$MeshFormat
4.1 0 8
$EndMeshFormat
$Entities
5 5 1 0
1 0 0 0 0 
2 4 0 0 0 
3 4 0.3 0 0 
4 4 2 0 0 
5 0 2 0 0 
1 0 0 0 4 0 0 0 2 1 -2 
2 4 0 0 4 0.3 0 0 2 2 -3 
3 4 0.3 0 4 2 0 0 2 3 -4 
4 0 2 0 4 2 0 0 2 4 -5 
5 0 0 0 0 2 0 0 2 5 -1 
1 0 0 0 4 2 0 0 5 1 2 3 4 5 
$EndEntities
$Nodes
11 159 1 159
0 1 0 1
1
0 0 0
0 2 0 1
2
4 0 0
0 3 0 1
3
4 0.3 0
0 4 0 1
4
4 2 0
0 5 0 1
5
0 2 0
1 1 0 16
6
7
8
9
10
11
12
13
14
15
16
17
18
19
20
21
0.3403355087776658 0 0
0.6641242164862738 0 0
0.9721704295408915 0 0
1.265239684473904 0 0
1.544060057876689 0 0
1.809324463673947 0 0
2.061691822422725 0 0
2.301789247188073 0 0
2.530213274014793 0 0
2.747531450298241 0 0
2.954283785153291 0 0
3.150983931104123 0 0
3.33812065758647 0 0
3.51615889856594 0 0
3.685541075929629 0 0
3.846687967090447 0 0
1 2 0 1
22
4 0.1499999999996187 0
1 3 0 7
23
24
25
26
27
28
29
4 0.4424484922575217 0
4 0.6008119306230346 0
4 0.7768684527843999 0
4 0.9725947058587832 0
4 1.190188356674658 0
4 1.432092484097558 0
4 1.701023202673657 0
1 4 0 11
30
31
32
33
34
35
36
37
38
39
40
3.666666666665279 2 0
3.333333333332408 2 0
3.000000000001387 2 0
2.666666666670367 2 0
2.333333333339345 2 0
2.000000000008237 2 0
1.666666666673601 2 0
1.333333333338878 2 0
1.000000000004158 2 0
0.6666666666694385 2 0
0.333333333334719 2 0
1 5 0 5
41
42
43
44
45
0 1.666666666666204 0
0 1.333333333335184 0
0 1.000000000004118 0
0 0.6666666666694392 0
0 0.3333333333347193 0
2 1 0 114
46
47
48
49
50
51
52
53
54
55
56
57
58
59
60
61
62
63
64
65
66
67
68
69
70
71
72
73
74
75
76
77
78
79
80
81
82
83
84
85
86
87
88
89
90
91
92
93
94
95
96
97
98
99
100
101
102
103
104
105
106
107
108
109
110
111
112
113
114
115
116
117
118
119
120
121
122
123
124
125
126
127
128
129
130
131
132
133
134
135
136
137
138
139
140
141
142
143
144
145
146
147
148
149
150
151
152
153
154
155
156
157
158
159
3.05600868972018 0.1728596679985939 0
3.826722515063693 1.075301194546513 0
2.448887061484139 0.2162825234556358 0
1.695569096252384 0.195689619377231 0
3.854657716509275 0.5451652710610224 0
2.849639018882272 1.713263725208451 0
1.169261239589565 1.742515855645273 0
1.099473631849142 0.251817858389139 0
2.166666666673791 1.711324865407151 0
3.427139778076205 0.1504374540392964 0
0.2672718625706452 0.8422972107803002 0
3.52768099736996 1.707152648185699 0
3.774272548481634 0.1287131928241053 0
0.5050848440432959 1.748695326388976 0
0.4991629071460224 0.2613528604893477 0
3.778802023113278 1.566557843385607 0
3.180257290896356 1.719171415963477 0
3.01096050546483 1.447646530432769 0
2.713199205083604 1.434007228183038 0
2.864465555717621 1.187755413194383 0
2.585615061144082 1.172123078323129 0
2.742953054255537 0.9452640136200481 0
3.005426127656662 0.9548501500676587 0
2.468257631166943 0.923765878613937 0
2.885327967735991 0.7293679256492119 0
3.132507114353649 0.7441864112570299 0
3.24837113228087 0.955210088202446 0
3.365669175363054 0.7509692354811272 0
2.308711614588971 1.153293500482607 0
2.189338505541141 0.8968375933310115 0
2.027335181100971 1.131260470085655 0
1.911228898639884 0.8640457069653618 0
1.741799434613047 1.108197714633031 0
1.620459553535769 0.8428832206544159 0
1.449426449839003 1.086471662230082 0
2.095062947062063 0.6280377345340251 0
3.257642364908275 0.5555828580456377 0
1.322677937291507 0.8172712455120683 0
1.150482514748268 1.06409312736498 0
1.02101715252894 0.7888249080933447 0
3.472616449994389 0.562260480089398 0
0.8470429951180788 1.040403607580468 0
3.578592909630331 0.7397944354276091 0
1.557988147101298 1.383512610103216 0
0.7372698141146925 0.7593925704376702 0
1.495693899892687 0.5780616704490147 0
0.9359495435674503 1.30338019213201 0
0.5946154043173246 1.257307402845883 0
3.390702094472581 0.397941181206472 0
3.591680322375641 0.418097477641428 0
3.179229247445241 0.3429368713302682 0
3.671369803346868 0.5660495100897509 0
3.762211759984712 0.7190993489773764 0
2.5265056442425 1.710363492547631 0
3.304139659046206 1.435974291266119 0
0.9104334051897609 0.512816309889215 0
2.6271269576401 0.7070691133239962 0
2.778778058990738 0.5024224677588763 0
2.527171906102275 0.4643510965767333 0
2.700391871509629 0.3031209933249602 0
2.283546765517059 0.4166328794642794 0
3.479993145230798 0.9466946472428927 0
3.39741279751037 1.184693348833837 0
2.3616444248796 0.6682637982374953 0
2.024355520122894 0.385081350824841 0
1.80820960722957 0.5738298262276003 0
2.145616178813996 1.389087947309708 0
1.841524465184339 1.740250036401283 0
1.517656107812731 1.707239677475345 0
3.805857869440971 1.30918657058386 0
3.031869829338705 0.5353571012643522 0
3.69961788310398 0.9000151062605671 0
3.611067068407524 0.1391228303835742 0
1.195488342323232 0.5419933376237178 0
0.8358876211768307 1.749192519243224 0
0.2886751345928292 1.166666666669651 0
3.244552294345298 0.1569242795781575 0
1.42061851823196 0.2858120255059746 0
3.87141986672187 0.3745536577949745 0
2.1817405348054 0.2013346990219221 0
2.842470396906033 0.1563795842119207 0
3.637059359889378 1.137596324430882 0
0.3034119440058761 0.5076143021821267 0
2.429528974805622 1.403585136487147 0
1.238923244411147 1.323815975558242 0
3.13385906973354 1.190053984949975 0
1.863642565386979 1.348693166936848 0
0.3147084033340196 1.492016635970201 0
3.880006197003304 0.2264183146716668 0
3.714242093771509 0.2834077491126117 0
0.5367123255549002 0.9608715106891467 0
0.8020458067568537 0.2503246950182048 0
2.944327994564366 0.3365576589718273 0
3.585899688564005 1.395763097210512 0
1.935508143048336 0.1752729572032331 0
0.6229537699715062 0.4984437239729121 0
3.865482975977941 0.8554531666885593 0
3.740673960545033 0.4374547331399576 0
3.512366009139876 0.2736214744692952 0
3.794629937429704 1.794946738848993 0
0.2437834843957509 0.2418288074448783 0
0.2440169358574636 1.755983064142783 0
3.894031951506176 0.105820942465292 0
1.649532840834515 0.4126851301638725 0
2.642783870040224 0.1273855293042817 0
0.4935239432435241 0.7137238636124312 0
3.90434569771526 0.6888401917037172 0
0.6841539509833355 1.527626805999647 0
1.327919734209412 1.551545351861277 0
1.976198912377635 1.548215977382667 0
1.82263504149754 0.3485117767593556 0
3.342340850109817 0.2557547704497541 0
1.734060758158403 1.537614339470942 0
1.008978145700428 1.545839501533756 0
$EndNodes
$Elements
11 321 1 321
0 1 15 1
1 1 
0 2 15 1
2 2 
0 3 15 1
3 3 
0 4 15 1
4 4 
0 5 15 1
5 5 
1 1 1 17
6 1 6 
7 6 7 
8 7 8 
9 8 9 
10 9 10 
11 10 11 
12 11 12 
13 12 13 
14 13 14 
15 14 15 
16 15 16 
17 16 17 
18 17 18 
19 18 19 
20 19 20 
21 20 21 
22 21 2 
1 2 1 2
23 2 22 
24 22 3 
1 3 1 8
25 3 23 
26 23 24 
27 24 25 
28 25 26 
29 26 27 
30 27 28 
31 28 29 
32 29 4 
1 4 1 12
33 4 30 
34 30 31 
35 31 32 
36 32 33 
37 33 34 
38 34 35 
39 35 36 
40 36 37 
41 37 38 
42 38 39 
43 39 40 
44 40 5 
1 5 1 6
45 5 41 
46 41 42 
47 42 43 
48 43 44 
49 44 45 
50 45 1 
2 1 2 271
51 108 127 139 
52 91 119 123 
53 100 108 139 
54 104 48 105 
55 121 93 133 
56 118 135 144 
57 99 54 129 
58 107 117 127 
59 48 104 106 
60 108 100 131 
61 103 105 138 
62 97 50 98 
63 100 63 131 
64 54 112 129 
65 105 126 138 
66 133 93 153 
67 79 91 111 
68 77 79 111 
69 117 47 127 
70 119 53 123 
71 135 95 144 
72 118 58 135 
73 34 54 99 
74 91 123 149 
75 106 81 110 
76 82 71 116 
77 96 46 122 
78 81 106 109 
79 96 82 116 
80 57 100 139 
81 102 69 109 
82 62 51 63 
83 33 34 99 
84 93 121 136 
85 62 63 100 
86 98 50 152 
87 81 77 111 
88 101 53 119 
89 61 57 139 
90 32 51 62 
91 46 96 138 
92 75 81 109 
93 69 75 109 
94 73 82 86 
95 57 62 100 
96 86 94 95 
97 68 70 71 
98 71 70 116 
99 73 71 82 
100 68 67 70 
101 86 82 94 
102 88 97 98 
103 65 67 68 
104 72 71 73 
105 105 48 150 
106 88 86 97 
107 63 64 65 
108 104 102 109 
109 108 107 127 
110 53 101 137 
111 37 52 114 
112 57 31 62 
113 63 51 64 
114 86 95 97 
115 30 31 57 
116 65 66 67 
117 59 133 153 
118 73 88 107 
119 51 33 99 
120 70 102 103 
121 103 104 105 
122 91 83 119 
123 73 86 88 
124 111 91 149 
125 153 92 159 
126 68 71 72 
127 93 92 153 
128 65 64 66 
129 67 69 102 
130 32 33 51 
131 75 77 81 
132 72 73 107 
133 28 61 115 
134 54 35 113 
135 70 103 116 
136 43 56 121 
137 34 35 54 
138 113 36 114 
139 31 32 62 
140 107 88 117 
141 63 65 131 
142 67 66 69 
143 70 67 102 
144 36 37 114 
145 50 97 143 
146 6 7 60 
147 48 106 125 
148 79 83 91 
149 39 59 120 
150 96 116 138 
151 28 29 61 
152 85 101 119 
153 123 49 149 
154 83 85 119 
155 37 38 52 
156 130 154 159 
157 103 102 104 
158 95 135 143 
159 43 44 56 
160 20 21 58 
161 52 38 120 
162 106 104 109 
163 35 36 113 
164 106 110 125 
165 42 43 121 
166 68 72 131 
167 85 90 101 
168 8 9 53 
169 110 81 111 
170 116 103 138 
171 26 27 47 
172 94 82 96 
173 18 19 55 
174 89 114 154 
175 57 61 145 
176 19 20 118 
177 20 58 118 
178 96 122 157 
179 38 39 120 
180 10 11 49 
181 39 40 59 
182 114 89 158 
183 44 45 128 
184 9 10 123 
185 56 44 128 
186 55 19 118 
187 128 60 141 
188 23 24 50 
189 13 14 48 
190 17 18 122 
191 53 9 123 
192 16 17 46 
193 12 13 125 
194 69 74 75 
195 60 7 137 
196 64 51 99 
197 60 137 141 
198 75 76 77 
199 72 108 131 
200 77 78 79 
201 15 16 126 
202 10 49 123 
203 18 55 122 
204 79 80 83 
205 83 84 85 
206 85 87 90 
207 27 28 115 
208 41 42 133 
209 77 76 78 
210 85 84 87 
211 83 80 84 
212 87 84 92 
213 69 66 74 
214 87 92 93 
215 92 130 159 
216 79 78 80 
217 75 74 76 
218 22 3 134 
219 13 48 125 
220 46 17 122 
221 97 95 143 
222 80 78 89 
223 65 68 131 
224 8 53 137 
225 121 56 136 
226 16 46 126 
227 1 6 146 
228 42 121 133 
229 88 98 117 
230 76 74 112 
231 64 99 129 
232 137 101 141 
233 26 47 142 
234 92 84 130 
235 95 94 144 
236 87 93 136 
237 66 64 129 
238 84 80 130 
239 7 8 137 
240 80 89 130 
241 72 107 108 
242 3 23 124 
243 58 134 135 
244 49 11 140 
245 74 66 129 
246 29 4 145 
247 89 78 132 
248 47 117 142 
249 90 87 136 
250 78 76 132 
251 23 50 124 
252 30 57 145 
253 45 1 146 
254 3 124 134 
255 47 115 127 
256 115 61 139 
257 76 112 132 
258 112 74 129 
259 5 41 147 
260 40 5 147 
261 48 14 150 
262 4 30 145 
263 134 124 135 
264 12 125 140 
265 21 2 148 
266 2 22 148 
267 47 27 115 
268 128 141 151 
269 94 96 157 
270 126 46 138 
271 25 26 142 
272 125 110 140 
273 114 52 154 
274 15 126 150 
275 50 24 152 
276 11 12 140 
277 136 56 151 
278 25 142 152 
279 127 115 139 
280 126 105 150 
281 90 136 151 
282 142 98 152 
283 101 90 141 
284 154 52 159 
285 117 98 142 
286 130 89 154 
287 144 94 157 
288 128 45 146 
289 113 114 158 
290 60 128 146 
291 24 25 152 
292 112 54 155 
293 58 21 148 
294 54 113 155 
295 56 128 151 
296 41 133 147 
297 55 118 144 
298 124 50 143 
299 120 59 153 
300 6 60 146 
301 14 15 150 
302 135 124 143 
303 120 153 159 
304 59 40 147 
305 110 111 156 
306 52 120 159 
307 61 29 145 
308 49 140 156 
309 55 144 157 
310 133 59 147 
311 122 55 157 
312 134 58 148 
313 22 134 148 
314 89 132 158 
315 132 112 155 
316 132 155 158 
317 111 149 156 
318 141 90 151 
319 155 113 158 
320 140 110 156 
321 149 49 156 
$EndElements
