$MeshFormat
4.1 0 8
$EndMeshFormat
$Entities
5 5 1 0
1 0 0 0 0 
2 4 0 0 0 
3 4 0.3 0 0 
4 4 2 0 0 
5 0 2 0 0 
1 0 0 0 4 0 0 0 2 1 -2 
2 4 0 0 4 0.3 0 0 2 2 -3 
3 4 0.3 0 4 2 0 0 2 3 -4 
4 0 2 0 4 2 0 0 2 4 -5 
5 0 0 0 0 2 0 0 2 5 -1 
1 0 0 0 4 2 0 0 5 1 2 3 4 5 
$EndEntities
$Nodes
11 326 1 326
0 1 0 1
1
0 0 0
0 2 0 1
2
4 0 0
0 3 0 1
3
4 0.3 0
0 4 0 1
4
4 2 0
0 5 0 1
5
0 2 0
1 1 0 26
6
7
8
9
10
11
12
13
14
15
16
17
18
19
20
21
22
23
24
25
26
27
28
29
30
31
0.2893349159945791 0 0
0.5619269055550409 0 0
0.8187448218508414 0 0
1.060701471056643 0 0
1.288656792138568 0 0
1.503421036620176 0 0
1.705757527227396 0 0
1.896385427858294 0 0
2.075982238716501 0 0
2.245186347925882 0 0
2.404599083654206 0 0
2.554787142906331 0 0
2.696284251201269 0 0
2.829593341141201 0 0
2.955188225651888 0 0
3.073515316615079 0 0
3.184995187797383 0 0
3.290024052536146 0 0
3.38897519280261 0 0
3.48220034095985 0 0
3.570030831578888 0 0
3.652778848777459 0 0
3.730738461663305 0 0
3.804186823294518 0 0
3.873384924048501 0 0
3.938578743323238 0 0
1 2 0 6
32
33
34
35
36
37
4 0.0565657992983425 0
4 0.1077987852518803 0
4 0.1542017088310057 0
4 0.196229936499139 0
4 0.2342958968965962 0
4 0.2687731412858431 0
1 3 0 14
38
39
40
41
42
43
44
45
46
47
48
49
50
51
4 0.3313393873666708 0
4 0.367878431940695 0
4 0.4104798279005837 0
4 0.4601494099054274 0
4 0.5180598945641191 0
4 0.5855785532827031 0
4 0.6642995377287898 0
4 0.7560814594607556 0
4 0.8630913303378438 0
4 0.9878556899911424 0
4 1.133320228727178 0
4 1.302919445906066 0
4 1.500657600065881 0
4 1.731203397776925 0
1 4 0 13
52
53
54
55
56
57
58
59
60
61
62
63
64
3.714285714284526 2 0
3.428571428569844 2 0
3.142857142857542 2 0
2.85714285714524 2 0
2.571428571432937 2 0
2.285714285720635 2 0
2.000000000008246 2 0
1.714285714292858 2 0
1.428571428577383 2 0
1.142857142861906 2 0
0.8571428571464295 2 0
0.5714285714309533 2 0
0.2857142857154762 2 0
1 5 0 6
65
66
67
68
69
70
0 1.714285714284922 0
0 1.42857142857262 0
0 1.142857142860318 0
0 0.8571428571464292 0
0 0.571428571430953 0
0 0.2857142857154766 0
2 1 0 256
71
72
73
74
75
76
77
78
79
80
81
82
83
84
85
86
87
88
89
90
91
92
93
94
95
96
97
98
99
100
101
102
103
104
105
106
107
108
109
110
111
112
113
114
115
116
117
118
119
120
121
122
123
124
125
126
127
128
129
130
131
132
133
134
135
136
137
138
139
140
141
142
143
144
145
146
147
148
149
150
151
152
153
154
155
156
157
158
159
160
161
162
163
164
165
166
167
168
169
170
171
172
173
174
175
176
177
178
179
180
181
182
183
184
185
186
187
188
189
190
191
192
193
194
195
196
197
198
199
200
201
202
203
204
205
206
207
208
209
210
211
212
213
214
215
216
217
218
219
220
221
222
223
224
225
226
227
228
229
230
231
232
233
234
235
236
237
238
239
240
241
242
243
244
245
246
247
248
249
250
251
252
253
254
255
256
257
258
259
260
261
262
263
264
265
266
267
268
269
270
271
272
273
274
275
276
277
278
279
280
281
282
283
284
285
286
287
288
289
290
291
292
293
294
295
296
297
298
299
300
301
302
303
304
305
306
307
308
309
310
311
312
313
314
315
316
317
318
319
320
321
322
323
324
325
326
3.016596876532769 0.1019590091575909 0
3.945412112792237 0.6139450195539863 0
3.96573118401547 0.389179129920639 0
3.901907029456697 0.9240581372210529 0
3.526115586269369 0.07386266055484562 0
2.631131507298251 0.1227849590594966 0
2.159145038500129 0.1353768129343804 0
3.97136813477402 0.2478922343602005 0
1.604589281923786 0.1701585727974486 0
2.72504185311758 1.761488759321991 0
0.9571351903808241 1.733347524471459 0
1.875753820245029 1.750745079574393 0
0.9373245290419931 0.2097560558067931 0
3.766473099714608 0.05453754817111869 0
3.868820594195737 1.212337635004579 0
3.946957507164674 0.4907385703345042 0
3.964815869730638 0.1795809782567838 0
3.339862719405245 0.07900184228946971 0
0.2175817875251289 1.012750980840603 0
3.969765891952456 0.3158338091618064 0
3.298836108613369 1.760500309962137 0
3.784626264838802 1.609813781227657 0
3.905981833685874 0.05482593613804734 0
0.4317202457212299 0.2233599812273289 0
0.4285714285732148 1.752564170346272 0
3.565489041895165 1.760864990738052 0
3.413196663695397 1.558156456888443 0
3.198679631727653 1.535484369200134 0
3.311016296819064 1.350591134760641 0
3.106172494705399 1.333283293957831 0
3.212913335724673 1.16287327713738 0
3.009439473101578 1.149243306381157 0
3.116974022723684 0.9851640551950176 0
2.922455426219995 0.9719473387229388 0
3.029153559088736 0.8164893944603909 0
3.208836804581684 0.8266197336838561 0
2.840398832108918 0.8016428680045476 0
2.729481947311935 0.9578466660317365 0
2.649611031388156 0.7793676561588934 0
2.533445879515306 0.9444652220112213 0
2.451760832645754 0.7602568900718931 0
2.331946824665649 0.9308098163840024 0
3.125437284740601 0.6715376153181839 0
3.287158394980367 0.6817540276376048 0
3.36670940808206 0.8135775036633266 0
3.43402077493802 0.6792353565446289 0
3.364294725078812 0.5602910498366328 0
3.499061233145112 0.5708335671508513 0
3.562458010293382 0.672714486135763 0
2.242642728709152 0.7445644356471524 0
2.120946282796144 0.9317466707793228 0
3.617073205490978 0.5704465303285084 0
3.56206094449561 0.4763351914699545 0
3.665698841627877 0.4758740798232025 0
3.620943205587989 0.3924357872339234 0
3.524194452877036 0.3877715757775697 0
3.712006499775939 0.3917006878096486 0
3.670828113277014 0.3171661414442567 0
3.752819616795902 0.3179038628543618 0
2.031143135435003 0.7279897030237614 0
1.906537216734534 0.9193675478025849 0
2.223450882996494 1.115497681440476 0
2.772545149467991 0.6248622606494912 0
1.819427739900015 0.7048398386704244 0
1.690179175721272 0.8910976361262744 0
1.595901250925831 0.6857748664392049 0
1.463771867895205 0.8679700809604981 0
1.563817398505229 1.08202965594228 0
1.326826786641068 1.064791391105588 0
1.226748040647251 0.8423164206740493 0
1.082645471303758 1.044855810090604 0
0.9859801888751489 0.8223997288702165 0
3.678482443900301 0.6669486025424336 0
3.625646485792517 0.7728378848950759 0
3.790638832162302 0.385426096371998 0
2.611089718980446 1.127556315430156 0
1.431464612219475 1.286334837475805 0
2.361784702021771 0.5805700599412216 0
3.71322424778414 0.2485387170965706 0
3.789856249239792 0.2557882210198522 0
3.414244434582565 1.169045802172912 0
3.632667499204294 0.2437104408905094 0
1.954848387194444 0.528409421213518 0
0.8329534213047005 1.022457061788594 0
0.6946187848058756 0.8029731636046675 0
3.677407019422879 0.1791218768146081 0
1.662183695883575 1.30216860070148 0
1.143537632226107 0.6254085670047684 0
0.9399513319013804 1.255912527858788 0
0.6856315287010586 1.233374881908574 0
3.742758033995578 0.7633700440202117 0
3.693748759598607 0.8749770575833169 0
2.903119181865675 1.328806227685526 0
1.543312629060965 1.511083887517663 0
3.567539654329553 0.8879380585087017 0
3.646978796376817 1.006890097568052 0
3.781163830076701 0.6560455074790326 0
3.84244395309899 0.735945200072581 0
1.299946743591252 1.493980482735935 0
3.589277864633086 0.15166539902889 0
3.546331799409698 0.2353825937768698 0
3.824154994790083 0.3180493176561655 0
3.85673967239476 0.2587410579059207 0
3.827943755287445 0.2026938743192044 0
3.868509236375721 0.3788461372445889 0
3.832990864326807 0.4393259139921356 0
3.893484618732344 0.3149795012461568 0
3.889420615471181 0.2084266690363626 0
3.866990500528702 0.1568020430925549 0
3.81010901111517 0.1474745349257814 0
3.90914461285059 0.2608630828419902 0
3.853531454186126 0.102157413148197 0
3.031363421060776 1.728663118814732 0
0.803912486236994 1.483500467499383 0
3.646769741693252 0.09930459753439079 0
3.733211415213511 0.5560117467218334 0
3.828302160940432 0.5631415506856967 0
3.901187095557283 0.439624245923927 0
2.951319233782918 0.6518760994313205 0
3.052836204262983 0.5203734637747637 0
3.213886350322307 0.5447488185130609 0
3.157435646523111 0.4106321238296711 0
3.011066867167614 0.3759724646798724 0
3.319066127053329 0.4277996941274031 0
3.248581449230999 0.3071858519730826 0
3.113336162471805 0.2845438545889654 0
3.376401301759413 0.3127530897915353 0
3.208009347013906 0.1874648306044587 0
2.977158255499339 0.2297732967879998 0
2.869872177799017 0.3322892946858156 0
2.850006796213028 0.2090574749883591 0
2.717294500204188 0.2642668684830261 0
2.894744519416375 0.4937078728392514 0
3.322778303320261 0.9802341256894708 0
2.738455058635707 0.4409534386205587 0
2.584159787506163 0.3549429500080336 0
2.571252653622907 0.5680368389131836 0
3.531465273346678 1.374740560051267 0
0.5185748483919175 1.455059662718055 0
3.920551327323684 0.3615468062950512 0
3.598002496020166 1.17465801475404 0
3.842435813519492 1.398725878160638 0
3.957603257027592 0.08317364801677964 0
2.157480350187041 0.5568635800782884 0
2.284763074725721 0.4125852717306118 0
2.100988187576731 0.3893149545436763 0
1.911281651321997 0.3224241577229071 0
1.751972036683957 0.5034602921289477 0
1.539605576688913 0.4790479927789173 0
1.172696017298802 0.202750223269789 0
3.938285608581592 0.2209212204298482 0
1.376510559790373 0.6453841864341953 0
1.31282345328609 0.4048497741666215 0
3.885842675862058 1.05570109456418 0
3.748134713757715 1.114823751997811 0
3.871594550503704 0.4954257983050115 0
3.903008781518226 0.557378114769258 0
3.757636413485093 0.1925893067687803 0
2.433641724291964 1.760910890664611 0
2.568730047889107 1.541290559163136 0
2.295261685968556 1.534083353842137 0
2.41712956060292 1.299627226686326 0
2.141253845056379 1.756416343970834 0
2.007173217980167 1.525340640532081 0
3.75470558511441 0.4654201348179427 0
2.324842100860476 0.1321534044425633 0
0.7098057494588313 1.74976431685544 0
3.132472577697974 0.09314372162457912 0
0.6848589952613914 0.2250667613848708 0
0.8099227123896759 0.4150821854368143 0
0.5592565638426255 0.4322214767739386 0
0.2595372584056919 0.4454148571584305 0
0.4585529710283643 0.6565324086947764 0
3.499658536719465 1.019401614686083 0
3.959344302928665 0.1334292189617422 0
3.909956740149717 0.1159462800303039 0
3.439670644250957 0.07982228214955175 0
3.389595106071674 0.1667652450433798 0
1.802371307363617 0.1585286905255406 0
3.440494261669816 0.4676014157735131 0
1.396038914379372 0.1789985497673064 0
3.736606361004025 0.1190321638331836 0
3.491383822568951 0.1575405974423382 0
3.453865223081091 0.237176017645827 0
0.2383817450578864 1.29791411957345 0
1.987099405454012 0.1429649532911839 0
2.47969311328027 0.125176525245699 0
2.418688907055509 0.2715457636090886 0
3.958298061694388 0.4322981708060631 0
3.917637449221826 0.1663033162873558 0
2.815132023911037 1.529933122629742 0
1.400847705596457 1.732333174354585 0
1.188407671673691 1.265630262301393 0
3.687329894367541 1.463864248754786 0
3.240624904196102 0.08568570233011041 0
2.134718322000029 1.331693803690984 0
2.002962841391008 1.136679112515331 0
0.6049300210827208 1.01890702580164 0
1.783465002514494 1.111679030649691 0
3.811592739030782 0.8539685469475876 0
3.781367452347113 0.9717364476470001 0
2.813797250709383 1.130771640305901 0
3.9310802196284 0.702983432572311 0
3.704739463587567 0.05616298736495859 0
0.2344187299761223 1.568695257586859 0
3.932050998998253 0.2983963882255259 0
3.971355539191022 0.3496089096536831 0
1.053909280896065 0.401788302040845 0
3.718067068399623 1.293768812685377 0
3.584465019765815 0.3131199714848897 0
2.767248261293489 0.1096790910379973 0
1.064478274205398 1.486201576481141 0
3.970614507540441 0.2836376885199544 0
3.310241008405641 0.2245099505891075 0
2.422105313846216 1.101702541618314 0
2.44045201369481 0.4353046169421939 0
3.917720235774953 0.8070399350441013 0
3.50079697818716 0.7873244798618027 0
1.765562927887763 1.525227437190849 0
3.836890056638442 0.04759533137382067 0
2.900642358841537 0.105372680241483 0
2.652546879624734 1.328912407298324 0
3.97489392261725 0.2157840532885135 0
1.692822460358575 0.3189730893574238 0
3.871901843009163 0.6382398041888109 0
0.2151066808416869 0.7313373162191568 0
1.621389037610076 1.753231596439581 0
0.9088579306307729 0.6135214618344469 0
3.815453522046891 1.821288495149221 0
3.075888921967464 0.1826137192716735 0
0.4461617004407652 1.150614122919865 0
2.238070523482844 0.2615809179449347 0
3.486914841296641 0.3113178236133956 0
2.557022679442025 0.2260841298335128 0
3.804160915219773 0.5038650289045239 0
0.2058247206307889 0.204789402920307 0
3.940985088314878 0.3304389990805814 0
3.960432766807341 0.0389130766906339 0
3.944880644639411 0.2691332409912299 0
1.881512012322007 1.33268199769669 0
0.692063054646575 0.5850895257429386 0
3.429414196931247 0.3814487198166833 0
1.509175937327347 0.3104055957735435 0
0.209157373592047 1.79084262640806 0
3.800721996531674 0.09415939829042028 0
3.591756006008439 0.06262943818966495 0
3.923810567599339 0.4008740403632968 0
3.451496576127701 0.8976951564818769 0
1.173053011327167 1.689172551608624 0
3.018286535141803 1.490150477056742 0
3.291608465375232 0.1463218323185818 0
3.962291888658267 0.5523005674283319 0
0.4219364960361018 0.8892644744768854 0
3.588551651003991 1.575829669532099 0
3.382265606528845 0.237070608100584 0
2.078778049180397 0.2477974162236619 0
$EndNodes
$Elements
11 655 1 655
0 1 15 1
1 1 
0 2 15 1
2 2 
0 3 15 1
3 3 
0 4 15 1
4 4 
0 5 15 1
5 5 
1 1 1 27
6 1 6 
7 6 7 
8 7 8 
9 8 9 
10 9 10 
11 10 11 
12 11 12 
13 12 13 
14 13 14 
15 14 15 
16 15 16 
17 16 17 
18 17 18 
19 18 19 
20 19 20 
21 20 21 
22 21 22 
23 22 23 
24 23 24 
25 24 25 
26 25 26 
27 26 27 
28 27 28 
29 28 29 
30 29 30 
31 30 31 
32 31 2 
1 2 1 7
33 2 32 
34 32 33 
35 33 34 
36 34 35 
37 35 36 
38 36 37 
39 37 3 
1 3 1 15
40 3 38 
41 38 39 
42 39 40 
43 40 41 
44 41 42 
45 42 43 
46 43 44 
47 44 45 
48 45 46 
49 46 47 
50 47 48 
51 48 49 
52 49 50 
53 50 51 
54 51 4 
1 4 1 14
55 4 52 
56 52 53 
57 53 54 
58 54 55 
59 55 56 
60 56 57 
61 57 58 
62 58 59 
63 59 60 
64 60 61 
65 61 62 
66 62 63 
67 63 64 
68 64 5 
1 5 1 7
69 5 65 
70 65 66 
71 66 67 
72 67 68 
73 68 69 
74 69 70 
75 70 1 
2 1 2 580
76 202 76 281 
77 170 75 316 
78 163 261 292 
79 194 192 195 
80 182 93 246 
81 167 186 187 
82 131 121 267 
83 172 150 173 
84 206 207 286 
85 55 80 183 
86 261 230 292 
87 189 133 203 
88 188 86 226 
89 206 205 207 
90 106 115 204 
91 75 170 253 
92 179 182 246 
93 132 232 266 
94 76 202 304 
95 191 192 194 
96 111 148 207 
97 262 61 319 
98 103 106 204 
99 167 143 186 
100 221 78 309 
101 175 172 177 
102 86 188 259 
103 175 177 210 
104 95 209 237 
105 202 200 205 
106 60 61 262 
107 273 168 295 
108 180 228 252 
109 177 173 181 
110 117 191 194 
111 180 252 315 
112 129 150 172 
113 200 203 205 
114 117 114 191 
115 248 247 253 
116 71 199 291 
117 209 184 237 
118 183 80 261 
119 185 27 274 
120 185 170 316 
121 187 186 305 
122 172 173 177 
123 166 211 244 
124 121 132 267 
125 196 193 199 
126 232 132 285 
127 109 111 207 
128 69 70 242 
129 186 235 305 
130 223 220 251 
131 190 189 203 
132 179 246 260 
133 87 221 260 
134 207 148 286 
135 93 182 290 
136 184 81 237 
137 92 96 324 
138 231 233 234 
139 180 174 228 
140 194 195 197 
141 54 55 183 
142 27 185 316 
143 168 167 295 
144 192 193 196 
145 245 87 260 
146 134 136 218 
147 211 151 244 
148 203 133 205 
149 73 210 277 
150 173 178 181 
151 59 60 297 
152 201 202 281 
153 226 86 227 
154 174 150 228 
155 197 254 303 
156 114 113 191 
157 96 92 299 
158 107 133 189 
159 145 129 172 
160 81 184 282 
161 99 151 208 
162 218 136 219 
163 145 176 235 
164 96 91 97 
165 173 174 178 
166 243 155 323 
167 124 125 127 
168 127 129 145 
169 247 75 253 
170 127 128 129 
171 272 163 292 
172 127 145 235 
173 101 103 204 
174 145 172 175 
175 116 117 118 
176 208 151 211 
177 173 150 174 
178 106 113 114 
179 122 123 124 
180 119 118 122 
181 50 92 212 
182 80 230 261 
183 131 267 269 
184 246 245 260 
185 117 194 250 
186 223 251 313 
187 199 201 291 
188 129 149 150 
189 231 234 266 
190 126 123 250 
191 177 181 276 
192 106 105 113 
193 143 122 186 
194 181 178 221 
195 97 99 208 
196 231 229 233 
197 116 114 117 
198 103 105 106 
199 115 114 116 
200 60 262 297 
201 181 221 309 
202 151 101 204 
203 97 98 99 
204 191 190 192 
205 187 227 295 
206 113 190 191 
207 122 118 123 
208 148 214 215 
209 186 124 235 
210 161 143 167 
211 53 91 96 
212 99 101 151 
213 155 243 311 
214 250 194 312 
215 187 226 227 
216 123 118 250 
217 232 231 266 
218 248 253 254 
219 242 70 306 
220 211 166 225 
221 255 209 275 
222 156 185 252 
223 124 123 125 
224 148 120 214 
225 155 268 323 
226 218 219 294 
227 195 196 198 
228 229 57 233 
229 127 125 128 
230 238 198 300 
231 195 192 196 
232 214 153 216 
233 194 197 312 
234 175 210 317 
235 116 118 119 
236 122 124 186 
237 97 91 98 
238 224 85 225 
239 216 153 217 
240 208 264 324 
241 99 100 101 
242 48 85 224 
243 221 178 260 
244 78 221 293 
245 133 109 207 
246 227 72 295 
247 277 210 307 
248 202 206 304 
249 151 204 244 
250 220 223 278 
251 202 205 206 
252 119 122 143 
253 113 189 190 
254 129 128 149 
255 30 31 93 
256 204 115 318 
257 80 229 230 
258 53 54 91 
259 230 231 232 
260 153 134 218 
261 146 272 292 
262 212 92 264 
263 101 102 103 
264 209 95 275 
265 103 104 105 
266 197 303 312 
267 9 10 220 
268 91 54 183 
269 140 158 222 
270 28 29 84 
271 161 167 168 
272 106 114 115 
273 7 8 239 
274 130 153 214 
275 8 83 239 
276 97 208 324 
277 193 190 203 
278 137 140 222 
279 52 53 96 
280 222 158 223 
281 233 82 234 
282 217 249 256 
283 50 51 92 
284 210 177 307 
285 198 196 300 
286 120 130 214 
287 105 107 189 
288 15 16 236 
289 99 98 100 
290 107 109 133 
291 21 22 238 
292 230 229 231 
293 124 127 235 
294 188 175 317 
295 80 56 229 
296 239 240 241 
297 48 49 85 
298 197 195 284 
299 223 158 278 
300 84 29 290 
301 215 214 216 
302 111 120 148 
303 252 185 274 
304 72 273 295 
305 118 117 250 
306 58 82 233 
307 258 206 286 
308 267 266 310 
309 55 56 80 
310 178 174 179 
311 130 134 153 
312 176 175 188 
313 113 105 189 
314 239 83 240 
315 294 219 313 
316 101 100 102 
317 192 190 193 
318 217 256 326 
319 93 213 246 
320 6 7 94 
321 220 10 251 
322 103 102 104 
323 105 104 107 
324 57 58 233 
325 149 156 228 
326 83 9 220 
327 69 242 296 
328 84 290 315 
329 58 59 82 
330 225 85 279 
331 30 93 290 
332 56 57 229 
333 150 149 228 
334 199 71 300 
335 94 7 239 
336 209 255 301 
337 61 81 319 
338 63 95 237 
339 238 22 265 
340 67 89 255 
341 61 62 81 
342 149 152 156 
343 81 62 237 
344 266 234 310 
345 46 47 74 
346 8 9 83 
347 140 142 158 
348 25 26 75 
349 136 137 222 
350 32 33 213 
351 156 170 185 
352 67 68 89 
353 66 67 255 
354 199 200 201 
355 228 156 252 
356 132 266 267 
357 62 63 237 
358 177 276 307 
359 115 116 288 
360 43 44 72 
361 211 225 279 
362 34 35 87 
363 11 12 79 
364 23 24 88 
365 63 64 95 
366 146 232 285 
367 12 13 249 
368 49 50 212 
369 10 11 251 
370 208 211 279 
371 24 25 247 
372 252 84 315 
373 198 238 265 
374 33 34 245 
375 236 16 257 
376 221 87 293 
377 281 19 291 
378 219 136 222 
379 14 15 77 
380 273 45 287 
381 199 193 200 
382 125 123 126 
383 145 175 176 
384 17 18 76 
385 20 21 71 
386 13 14 256 
387 77 15 236 
388 74 270 287 
389 205 133 207 
390 107 108 109 
391 25 75 247 
392 166 162 271 
393 243 241 311 
394 232 146 292 
395 94 239 241 
396 167 187 295 
397 109 110 111 
398 41 42 86 
399 16 17 257 
400 130 131 134 
401 71 21 238 
402 47 48 224 
403 111 112 120 
404 219 222 223 
405 216 217 326 
406 120 121 130 
407 36 37 78 
408 11 79 251 
409 88 24 247 
410 134 135 136 
411 137 139 140 
412 51 4 299 
413 79 12 249 
414 215 258 286 
415 44 45 273 
416 178 179 260 
417 52 96 299 
418 270 168 287 
419 217 153 218 
420 26 27 316 
421 144 143 161 
422 213 33 245 
423 65 66 275 
424 225 166 271 
425 264 208 279 
426 242 241 243 
427 206 258 304 
428 90 276 283 
429 140 141 142 
430 301 89 323 
431 22 23 265 
432 219 223 313 
433 142 154 155 
434 162 270 271 
435 249 13 256 
436 27 28 274 
437 147 138 157 
438 160 184 209 
439 125 126 280 
440 96 97 324 
441 156 152 170 
442 88 247 248 
443 34 87 245 
444 258 215 302 
445 134 131 135 
446 98 91 183 
447 147 164 169 
448 46 74 287 
449 179 180 182 
450 254 197 325 
451 154 141 159 
452 14 77 256 
453 160 159 184 
454 130 121 131 
455 94 241 242 
456 142 141 154 
457 136 135 137 
458 140 139 141 
459 149 128 152 
460 39 40 73 
461 1 6 306 
462 213 93 308 
463 82 59 297 
464 107 104 108 
465 120 112 121 
466 154 159 160 
467 109 108 110 
468 169 164 262 
469 111 110 112 
470 147 157 164 
471 17 76 257 
472 269 267 310 
473 268 301 323 
474 66 255 275 
475 201 200 202 
476 195 198 284 
477 224 225 271 
478 139 138 147 
479 89 68 296 
480 137 138 139 
481 102 100 163 
482 215 216 302 
483 41 86 259 
484 236 257 258 
485 83 220 278 
486 148 215 286 
487 84 252 274 
488 196 199 300 
489 43 72 322 
490 137 135 138 
491 213 245 246 
492 157 269 310 
493 176 188 226 
494 19 20 291 
495 155 154 268 
496 93 31 308 
497 121 112 132 
498 40 41 259 
499 259 188 317 
500 147 169 263 
501 141 139 263 
502 179 174 180 
503 278 158 298 
504 2 32 308 
505 240 83 278 
506 234 82 289 
507 157 138 269 
508 168 273 287 
509 139 147 263 
510 76 18 281 
511 159 141 263 
512 170 171 253 
513 154 160 268 
514 28 84 274 
515 135 131 269 
516 72 227 322 
517 23 88 265 
518 119 143 144 
519 18 19 281 
520 45 46 287 
521 263 169 282 
522 110 108 146 
523 270 74 271 
524 290 182 315 
525 159 263 282 
526 255 89 301 
527 87 35 293 
528 70 1 306 
529 242 243 296 
530 161 168 270 
531 200 193 203 
532 5 65 314 
533 64 5 314 
534 210 73 317 
535 142 155 298 
536 236 258 302 
537 264 92 324 
538 170 152 171 
539 240 278 298 
540 104 102 272 
541 212 264 279 
542 4 52 299 
543 253 171 254 
544 138 135 269 
545 144 161 162 
546 108 104 272 
547 89 296 323 
548 31 2 308 
549 102 163 272 
550 244 204 318 
551 38 39 277 
552 85 49 212 
553 230 232 292 
554 35 36 293 
555 128 125 280 
556 184 159 282 
557 201 281 291 
558 197 284 325 
559 160 209 301 
560 162 161 270 
561 74 224 271 
562 29 30 290 
563 132 112 285 
564 112 110 285 
565 165 162 166 
566 227 86 322 
567 146 108 272 
568 165 166 244 
569 235 176 305 
570 36 78 293 
571 144 162 165 
572 37 3 283 
573 116 119 288 
574 241 240 311 
575 152 128 280 
576 249 217 294 
577 94 242 306 
578 74 47 224 
579 98 183 320 
580 261 163 320 
581 85 212 279 
582 110 146 285 
583 126 250 312 
584 72 44 273 
585 289 82 297 
586 226 187 305 
587 78 37 283 
588 171 152 280 
589 183 261 320 
590 3 38 90 
591 119 144 288 
592 115 288 318 
593 217 218 294 
594 86 42 322 
595 164 157 289 
596 88 248 321 
597 280 126 303 
598 20 71 291 
599 68 69 296 
600 42 43 322 
601 39 73 277 
602 302 216 326 
603 79 249 294 
604 81 282 319 
605 258 257 304 
606 158 142 298 
607 163 100 320 
608 248 284 321 
609 164 289 297 
610 92 51 299 
611 283 276 309 
612 73 40 259 
613 296 243 323 
614 144 165 288 
615 262 164 297 
616 298 155 311 
617 65 275 314 
618 282 169 319 
619 75 26 316 
620 276 90 307 
621 6 94 306 
622 79 294 313 
623 71 238 300 
624 77 236 302 
625 95 64 314 
626 257 76 304 
627 171 280 303 
628 251 79 313 
629 268 160 301 
630 90 38 277 
631 254 171 303 
632 32 213 308 
633 303 126 312 
634 275 95 314 
635 276 181 309 
636 73 259 317 
637 182 180 315 
638 169 262 319 
639 3 90 283 
640 100 98 320 
641 288 165 318 
642 176 226 305 
643 256 77 326 
644 165 244 318 
645 198 265 321 
646 284 248 325 
647 234 289 310 
648 248 254 325 
649 77 302 326 
650 265 88 321 
651 78 283 309 
652 284 198 321 
653 240 298 311 
654 289 157 310 
655 90 277 307 
$EndElements
