$MeshFormat
4.1 0 8
$EndMeshFormat
$Entities
4 4 1 0
1 0 0 0 0 
2 0.5 0 0 0 
3 0.5 1 0 0 
4 0 1 0 0 
1 0 0 0 0.5 0 0 0 2 1 -2 
2 0.5 0 0 0.5 1 0 0 2 2 -3 
3 0 1 0 0.5 1 0 0 2 3 -4 
4 0 0 0 0 1 0 0 2 4 -1 
1 0 0 0 0.5 1 0 0 4 1 2 3 4 
$EndEntities
$Nodes
9 273 1 273
0 1 0 1
1
0 0 0
0 2 0 1
2
0.5 0 0
0 3 0 1
3
0.5 1 0
0 4 0 1
4
0 1 0
1 1 0 9
5
6
7
8
9
10
11
12
13
0.04999999999990733 0 0
0.09999999999977893 0 0
0.1499999999996332 0 0
0.1999999999994874 0 0
0.2499999999993471 0 0
0.2999999999994734 0 0
0.349999999999605 0 0
0.3999999999997367 0 0
0.4499999999998684 0 0
1 2 0 19
14
15
16
17
18
19
20
21
22
23
24
25
26
27
28
29
30
31
32
0.5 0.04999999999989965 0
0.5 0.09999999999981467 0
0.5 0.1499999999997036 0
0.5 0.1999999999995579 0
0.5 0.2499999999994121 0
0.5 0.2999999999992664 0
0.5 0.3499999999991206 0
0.5 0.3999999999989749 0
0.5 0.4499999999988292 0
0.5 0.4999999999986943 0
0.5 0.5499999999988151 0
0.5 0.5999999999989468 0
0.5 0.6499999999990784 0
0.5 0.69999999999921 0
0.5 0.7499999999993417 0
0.5 0.7999999999994734 0
0.5 0.8499999999996051 0
0.5 0.8999999999997368 0
0.5 0.9499999999998684 0
1 3 0 9
33
34
35
36
37
38
39
40
41
0.4499999999997918 1 0
0.3999999999999999 1 0
0.3500000000003467 1 0
0.3000000000006934 1 0
0.2500000000010293 1 0
0.2000000000008322 1 0
0.1500000000006241 1 0
0.1000000000004161 1 0
0.05000000000020799 1 0
1 4 0 19
42
43
44
45
46
47
48
49
50
51
52
53
54
55
56
57
58
59
60
0 0.9499999999997918 0
0 0.8999999999995836 0
0 0.8499999999996529 0
0 0.7999999999999998 0
0 0.7500000000003466 0
0 0.7000000000006934 0
0 0.6500000000010401 0
0 0.6000000000013869 0
0 0.5500000000017335 0
0 0.5000000000020587 0
0 0.4500000000018723 0
0 0.4000000000016644 0
0 0.3500000000014564 0
0 0.3000000000012483 0
0 0.2500000000010403 0
0 0.2000000000008322 0
0 0.1500000000006241 0
0 0.100000000000416 0
0 0.05000000000020799 0
2 1 0 213
61
62
63
64
65
66
67
68
69
70
71
72
73
74
75
76
77
78
79
80
81
82
83
84
85
86
87
88
89
90
91
92
93
94
95
96
97
98
99
100
101
102
103
104
105
106
107
108
109
110
111
112
113
114
115
116
117
118
119
120
121
122
123
124
125
126
127
128
129
130
131
132
133
134
135
136
137
138
139
140
141
142
143
144
145
146
147
148
149
150
151
152
153
154
155
156
157
158
159
160
161
162
163
164
165
166
167
168
169
170
171
172
173
174
175
176
177
178
179
180
181
182
183
184
185
186
187
188
189
190
191
192
193
194
195
196
197
198
199
200
201
202
203
204
205
206
207
208
209
210
211
212
213
214
215
216
217
218
219
220
221
222
223
224
225
226
227
228
229
230
231
232
233
234
235
236
237
238
239
240
241
242
243
244
245
246
247
248
249
250
251
252
253
254
255
256
257
258
259
260
261
262
263
264
265
266
267
268
269
270
271
272
273
0.04226795090229041 0.7253214333192364 0
0.0390978519485328 0.5762348182391054 0
0.4577320490975981 0.2746785666807162 0
0.4608687453561563 0.4241179869721734 0
0.4566987298103906 0.6749999999988971 0
0.04330127018979445 0.3250000000017483 0
0.2734201453149838 0.9576108593391175 0
0.2265798546854255 0.04238914066106486 0
0.4566987298104004 0.8249999999991944 0
0.04330127018992137 0.1750000000013578 0
0.1750000000007796 0.9566987298106612 0
0.3249999999995671 0.04330127018931688 0
0.4566987298106889 0.5749999999988087 0
0.04330127018935273 0.425000000001908 0
0.4515887990314923 0.1721291157958088 0
0.05192532665464584 0.8274873990370859 0
0.3793362827351413 0.95518519375195 0
0.120663717265084 0.04481480624819212 0
0.04289261930882773 0.9266515428713025 0
0.4230662432700181 0.04218481522084476 0
0.4576613977470425 0.9247881315356987 0
0.04233860225305004 0.07521186846442855 0
0.04330127018916183 0.4750000000019656 0
0.08588961773625621 0.4487651817639055 0
0.086483719938399 0.3997941969624079 0
0.1290522640784899 0.4235250782178457 0
0.1297420827465198 0.3747198791983566 0
0.1723232790630878 0.398472674666312 0
0.1656648526606824 0.4482648072427742 0
0.1730311591715436 0.3496987589793059 0
0.2156174744242541 0.3734604207047561 0
0.2163292179288073 0.3246931966160849 0
0.2596299528791324 0.3496922695557593 0
0.2597484875903979 0.2998975776975897 0
0.2164669731865334 0.274931795720951 0
0.2597912025854572 0.2499715622387282 0
0.255345871686012 0.3989801376453949 0
0.2164970515622089 0.2249838929953037 0
0.2598033348141331 0.1999925758746604 0
0.3030694243581368 0.3249316412113638 0
0.3031054405135922 0.2249940230214433 0
0.1731969679004797 0.2499859481211403 0
0.1732043253334967 0.1999986915684176 0
0.3036495641589613 0.1759364728202925 0
0.346499698518653 0.2001550826430414 0
0.3464101615155857 0.1500000000040132 0
0.262600204117358 0.1536829801197426 0
0.1299023325219531 0.2249974399498545 0
0.1299034383239353 0.1749993552546158 0
0.3464245092134312 0.2500248509467375 0
0.08413619377297099 0.4985593787240904 0
0.1732048928137045 0.1499996744724189 0
0.1299038105684719 0.3250000000024229 0
0.3897114317042588 0.2250000000042499 0
0.130741058430736 0.1264501558363769 0
0.1733098813723992 0.1015971281658343 0
0.3897114317039223 0.2750000000041817 0
0.08660223199760465 0.1999994658686753 0
0.08660224264145516 0.2499994843044868 0
0.04330116916989964 0.2249998250296791 0
0.08674196825206017 0.1502414961605559 0
0.09088091137158243 0.09247227057262634 0
0.04328146678277628 0.3749656994952154 0
0.4574116524530306 0.5262348182370415 0
0.4142292027041394 0.5514406212766851 0
0.4135360834684496 0.6002401035450479 0
0.3702579172538277 0.5752801208026259 0
0.3701462480434832 0.62508670405697 0
0.3268302169817579 0.6000611374755105 0
0.3268091453011196 0.6500246402543106 0
0.2835019030198547 0.6250142962871189 0
0.2834973957242398 0.6750064894223367 0
0.2401943789705772 0.6500034642836141 0
0.2401933366604014 0.700001658949623 0
0.283494433131119 0.7250013580607515 0
0.2401926691763996 0.7500005028336331 0
0.283493828118149 0.775000310147766 0
0.2401924570934508 0.8000001354954207 0
0.2835009076713159 0.5750125722926684 0
0.3742438976036835 0.5265216085847375 0
0.1968916016589107 0.6750008538708026 0
0.1968915241903502 0.6250007196911167 0
0.196891170098491 0.7750001063866222 0
0.32679507976616 0.7500002780336266 0
0.3267949339751482 0.8000000255163835 0
0.1535898779011216 0.6500000682665406 0
0.1963491695949049 0.8240613339768746 0
0.1543028369502065 0.6012349495631308 0
0.1534995255429504 0.7998435733922309 0
0.1552280461386348 0.8519997277642271 0
0.2373988834933719 0.8463154395754018 0
0.3700962186408908 0.7750000505906005 0
0.3700961967550621 0.8250000126833767 0
0.1535747965659665 0.7499739466282769 0
0.3267949229181553 0.850000006365292 0
0.1970100110053328 0.5752059448745519 0
0.3701069035434507 0.6750185573842298 0
0.1102885682966182 0.7749999999974729 0
0.1106906624587125 0.6256964475149535 0
0.112002724397854 0.6751160859620035 0
0.1560760147832229 0.551474967310545 0
0.1980382110889573 0.5265149702679495 0
0.3692588500382379 0.8735496856265521 0
0.3266900726615082 0.8984027922179063 0
0.07387842057569663 0.6526050587215906 0
0.158962595187486 0.5001493743833252 0
0.413397465709602 0.8000000105448014 0
0.4133974655037673 0.7500000101883155 0
0.4566987318056009 0.775000003454999 0
0.4132579052906709 0.8497582848086882 0
0.4091190574873874 0.9075276754892267 0
0.1112165470184962 0.7250039060349632 0
0.4567218337851126 0.6250400172565861 0
0.2247366908866038 0.9568507513988485 0
0.2034335111759154 0.915695928072823 0
0.1542703672447951 0.9063123678109993 0
0.2504716516565733 0.9180818635995949 0
0.1250000000007443 0.9566987298104757 0
0.1000000000008385 0.9133974596211814 0
0.4561228483892502 0.8761790153053584 0
0.1540277760362308 0.7000158101267306 0
0.2775135847559492 0.877304820649299 0
0.3746777072113717 0.04311519436122242 0
0.4008055072303017 0.08570330362996965 0
0.4541107944381689 0.08134206711387007 0
0.4249999999996779 0.1299038105678331 0
0.3479061620451138 0.09502363820715126 0
0.296173630979809 0.08573292516363556 0
0.2746255809438661 0.04300431273211042 0
0.2493565840082325 0.08213212262870233 0
0.3464059749698201 0.2999927486956342 0
0.3880636001078622 0.3249987914527169 0
0.3461282473296486 0.3499871968951606 0
0.3886768847642637 0.3737628464890422 0
0.3464101615139578 0.4000000000036866 0
0.3871914810486461 0.423558989512234 0
0.34452025414044 0.4500735819543386 0
0.4260272247123041 0.3473239698487931 0
0.3869071330620533 0.4753281223770774 0
0.04387712534443566 0.1238209392000014 0
0.1093027604849604 0.8288672472949875 0
0.2820314350590374 0.8247701229582605 0
0.04625383965293631 0.8791604993798751 0
0.04218964271480039 0.5249656994951271 0
0.07855846932987605 0.5524296192190081 0
0.2224617142502367 0.1227254660860205 0
0.3030908398718059 0.2749687339685828 0
0.3949291806329369 0.171856989983885 0
0.4598600790071963 0.4762936191056517 0
0.1969618916994 0.7249988131326146 0
0.3275202513012911 0.5503125731920591 0
0.2836157474999113 0.525054190913026 0
0.3301564343114415 0.5001947344396823 0
0.2858632443460665 0.4752101282995221 0
0.2974470623748451 0.4258086614277008 0
0.2415117675322779 0.5015313664841492 0
0.2489275675934895 0.4502550489763165 0
0.3018442927763537 0.3749285603270937 0
0.2179619204818563 0.1752305468527606 0
0.4134345430452936 0.6500642303733877 0
0.240215183953691 0.6000394995712381 0
0.4566987298109041 0.2249999999994849 0
0.04330127018892083 0.7750000000001729 0
0.1731877899926019 0.2999700515188711 0
0.3267998578162733 0.7000085538589484 0
0.1735657770520389 0.05051896336701836 0
0.3264342163817091 0.9494810252593739 0
0.08658429744487849 0.3499684023131938 0
0.2401923788647155 0.5499999999983594 0
0.3700988308152362 0.7250045750090527 0
0.1298992806674095 0.2749921539831655 0
0.4134058670879957 0.7000145621587917 0
0.08659869528373768 0.2999933401011166 0
0.456700132367959 0.7250024292999259 0
0.04330056288081448 0.2749987749065532 0
0.4254320982035761 0.9583777228054768 0
0.07683138341742905 0.9588103513490518 0
0.07456789808911514 0.04162227077337018 0
0.08979125866617291 0.8674117932627271 0
0.3063606654580085 0.1306322380142346 0
0.1941629450181383 0.8699162153773787 0
0.3830102022847232 0.1264975484785705 0
0.4622451175850957 0.3245004227552176 0
0.03773915662949091 0.6754877486735371 0
0.07395780680158334 0.6038281233032158 0
0.1153143606804692 0.5782673201830535 0
0.1244410443072423 0.4722002902034974 0
0.2042223015259312 0.4740511096546501 0
0.2103502244922428 0.4239140331483673 0
0.4182706631584862 0.505062294572316 0
0.4254251582462542 0.3989606321366794 0
0.4665063509457651 0.1250000000002111 0
0.07679491924176232 0.7500000000003475 0
0.07757433237012787 0.7955463924826593 0
0.1195814463435446 0.5255134916705865 0
0.4230872099797987 0.450553607446022 0
0.4232050807593598 0.2499999999994124 0
0.4232129392246202 0.2032059843862233 0
0.4624277076499683 0.3741505019518264 0
0.03744553932588395 0.6263592914899793 0
0.07687010113648463 0.6999999999974492 0
0.4231298988633156 0.3000000000043618 0
0.1378322690983681 0.08317066483800961 0
0.3621676958607968 0.9168292744690018 0
0.290520871885696 0.9188702367911111 0
0.2094791281150682 0.08112976320925444 0
0.1254513026342532 0.8778754247611898 0
0.4633974596214521 0.9633974596214727 0
0.03660254037856664 0.03660254037864719 0
0.03660254037858453 0.9633974596214155 0
0.4633974596214203 0.03660254037851759 0
0.2689289593668278 0.1151398457169256 0
0.2299653852951272 0.8849733281697887 0
$EndNodes
$Elements
9 548 1 548
0 1 15 1
1 1 
0 2 15 1
2 2 
0 3 15 1
3 3 
0 4 15 1
4 4 
1 1 1 10
5 1 5 
6 5 6 
7 6 7 
8 7 8 
9 8 9 
10 9 10 
11 10 11 
12 11 12 
13 12 13 
14 13 2 
1 2 1 20
15 2 14 
16 14 15 
17 15 16 
18 16 17 
19 17 18 
20 18 19 
21 19 20 
22 20 21 
23 21 22 
24 22 23 
25 23 24 
26 24 25 
27 25 26 
28 26 27 
29 27 28 
30 28 29 
31 29 30 
32 30 31 
33 31 32 
34 32 3 
1 3 1 10
35 3 33 
36 33 34 
37 34 35 
38 35 36 
39 36 37 
40 37 38 
41 38 39 
42 39 40 
43 40 41 
44 41 4 
1 4 1 20
45 4 42 
46 42 43 
47 43 44 
48 44 45 
49 45 46 
50 46 47 
51 47 48 
52 48 49 
53 49 50 
54 50 51 
55 51 52 
56 52 53 
57 53 54 
58 54 55 
59 55 56 
60 56 57 
61 57 58 
62 58 59 
63 59 60 
64 60 1 
2 1 2 484
65 186 75 208 
66 179 79 203 
67 76 201 239 
68 201 76 254 
69 208 75 258 
70 77 171 236 
71 78 122 238 
72 171 77 264 
73 122 78 263 
74 179 203 239 
75 197 213 214 
76 197 199 213 
77 199 140 213 
78 197 214 215 
79 187 106 240 
80 176 150 241 
81 97 215 217 
82 150 176 267 
83 217 248 249 
84 248 89 249 
85 215 214 217 
86 14 15 185 
87 203 76 239 
88 106 187 242 
89 188 187 240 
90 175 176 241 
91 14 185 271 
92 122 82 238 
93 171 81 236 
94 227 164 264 
95 226 116 263 
96 79 179 237 
97 62 205 245 
98 245 205 246 
99 195 215 218 
100 209 250 256 
101 111 247 255 
102 161 246 255 
103 196 251 256 
104 244 48 260 
105 243 20 259 
106 195 197 215 
107 215 97 218 
108 186 208 242 
109 201 150 267 
110 116 226 266 
111 164 227 265 
112 77 227 264 
113 78 226 263 
114 239 201 267 
115 182 177 273 
116 206 190 272 
117 75 186 252 
118 151 182 273 
119 107 206 272 
120 165 244 260 
121 198 243 259 
122 250 199 256 
123 247 166 255 
124 246 205 255 
125 251 64 256 
126 82 122 200 
127 70 118 120 
128 122 121 200 
129 81 171 180 
130 57 70 120 
131 118 70 121 
132 69 167 169 
133 29 69 169 
134 171 170 180 
135 56 57 120 
136 121 70 200 
137 55 56 235 
138 167 69 170 
139 27 28 234 
140 28 29 169 
141 170 69 180 
142 56 120 235 
143 115 109 121 
144 28 169 234 
145 123 66 228 
146 109 118 121 
147 54 66 123 
148 37 38 174 
149 53 54 123 
150 228 66 233 
151 67 37 174 
152 163 153 170 
153 68 189 190 
154 173 65 220 
155 153 167 170 
156 174 175 177 
157 9 10 189 
158 43 44 203 
159 115 121 122 
160 146 141 181 
161 68 9 189 
162 26 65 173 
163 51 52 83 
164 44 76 203 
165 220 65 232 
166 83 74 84 
167 172 160 181 
168 67 174 177 
169 25 26 173 
170 163 170 171 
171 39 40 178 
172 52 74 83 
173 74 53 123 
174 160 146 181 
175 50 51 204 
176 42 43 79 
177 38 71 174 
178 31 81 180 
179 181 141 210 
180 62 50 204 
181 51 83 204 
182 216 212 229 
183 52 53 74 
184 23 24 124 
185 100 193 218 
186 62 204 205 
187 143 154 210 
188 83 84 111 
189 183 80 184 
190 38 39 71 
191 124 73 125 
192 12 80 183 
193 65 27 234 
194 59 82 200 
195 162 216 229 
196 24 73 124 
197 174 71 175 
198 193 195 218 
199 73 25 173 
200 79 43 203 
201 182 151 202 
202 100 191 193 
203 213 212 214 
204 183 184 187 
205 10 72 189 
206 191 100 207 
207 66 55 235 
208 154 181 210 
209 137 145 202 
210 22 23 209 
211 184 80 185 
212 206 107 219 
213 31 32 81 
214 211 212 213 
215 24 25 73 
216 69 30 180 
217 145 155 202 
218 23 124 209 
219 155 163 164 
220 184 185 186 
221 72 183 187 
222 64 22 209 
223 72 11 183 
224 138 137 202 
225 189 188 190 
226 154 149 158 
227 136 143 210 
228 59 60 82 
229 10 11 72 
230 70 58 200 
231 159 160 165 
232 112 206 219 
233 148 146 159 
234 143 149 154 
235 154 158 172 
236 71 39 178 
237 129 130 131 
238 159 146 160 
239 142 141 146 
240 133 134 141 
241 29 30 69 
242 30 31 180 
243 12 13 80 
244 151 138 202 
245 72 188 189 
246 129 128 130 
247 143 147 149 
248 112 115 116 
249 211 139 212 
250 101 110 207 
251 155 153 163 
252 155 182 202 
253 72 187 188 
254 127 129 211 
255 129 139 211 
256 155 164 182 
257 214 212 216 
258 57 58 70 
259 110 191 207 
260 145 153 155 
261 58 59 200 
262 131 132 133 
263 100 94 207 
264 112 116 206 
265 11 12 183 
266 94 96 207 
267 127 128 129 
268 131 130 132 
269 101 105 110 
270 140 211 213 
271 133 141 142 
272 110 105 114 
273 110 114 117 
274 26 27 65 
275 96 101 207 
276 149 150 201 
277 158 149 201 
278 133 132 134 
279 140 127 211 
280 142 146 148 
281 86 87 88 
282 93 100 218 
283 147 138 151 
284 141 134 210 
285 54 55 66 
286 194 192 198 
287 103 109 112 
288 112 109 115 
289 88 90 91 
290 101 104 105 
291 214 216 217 
292 125 127 140 
293 136 138 143 
294 136 135 137 
295 93 94 100 
296 191 117 192 
297 88 87 90 
298 129 131 139 
299 107 99 219 
300 133 142 221 
301 127 126 128 
302 103 112 219 
303 110 117 191 
304 86 88 89 
305 125 73 126 
306 84 74 85 
307 91 93 97 
308 97 93 218 
309 143 138 147 
310 154 172 181 
311 204 111 205 
312 149 147 150 
313 130 128 157 
314 193 192 194 
315 83 111 204 
316 96 99 101 
317 104 99 107 
318 84 85 86 
319 139 131 221 
320 91 92 93 
321 91 90 92 
322 93 92 94 
323 136 137 138 
324 125 126 127 
325 99 98 219 
326 105 106 208 
327 137 144 145 
328 191 192 193 
329 134 136 210 
330 114 105 208 
331 105 104 106 
332 175 71 176 
333 101 99 104 
334 137 135 144 
335 131 133 221 
336 142 156 221 
337 96 98 99 
338 134 135 136 
339 98 103 219 
340 195 194 196 
341 86 85 87 
342 193 194 195 
343 134 132 135 
344 176 178 179 
345 96 95 98 
346 130 157 225 
347 128 126 220 
348 212 139 229 
349 156 148 161 
350 145 152 153 
351 94 95 96 
352 18 19 63 
353 21 22 64 
354 126 173 220 
355 17 18 222 
356 98 102 103 
357 90 87 113 
358 94 92 95 
359 197 196 199 
360 8 9 68 
361 16 17 75 
362 195 196 197 
363 162 161 166 
364 46 47 61 
365 49 50 62 
366 126 73 173 
367 103 108 109 
368 98 95 102 
369 36 37 67 
370 132 130 225 
371 142 148 156 
372 157 128 220 
373 45 46 223 
374 7 8 226 
375 135 132 225 
376 92 90 224 
377 221 156 229 
378 18 63 222 
379 144 135 225 
380 145 144 152 
381 156 161 162 
382 44 45 76 
383 6 7 78 
384 90 113 224 
385 75 17 222 
386 35 36 227 
387 103 102 108 
388 87 85 228 
389 153 152 167 
390 118 108 119 
391 109 108 118 
392 95 92 224 
393 156 162 229 
394 34 35 77 
395 46 61 223 
396 8 68 226 
397 167 152 168 
398 118 119 120 
399 167 168 169 
400 139 221 229 
401 176 71 178 
402 102 95 224 
403 113 87 228 
404 224 113 231 
405 76 45 223 
406 85 74 123 
407 78 7 226 
408 36 67 227 
409 102 224 231 
410 168 152 230 
411 225 157 230 
412 119 108 231 
413 144 225 230 
414 77 35 227 
415 85 123 228 
416 152 144 230 
417 168 230 232 
418 108 102 231 
419 230 157 232 
420 233 66 235 
421 157 220 232 
422 232 65 234 
423 231 113 233 
424 113 228 233 
425 119 231 233 
426 168 232 234 
427 119 233 235 
428 169 168 234 
429 120 119 235 
430 89 166 247 
431 166 89 248 
432 97 217 249 
433 140 199 250 
434 40 41 237 
435 179 178 237 
436 33 34 236 
437 5 6 238 
438 104 107 240 
439 147 151 241 
440 178 40 237 
441 34 77 236 
442 6 78 238 
443 187 184 242 
444 19 20 243 
445 47 48 244 
446 217 216 248 
447 161 148 246 
448 86 89 247 
449 111 84 247 
450 91 97 249 
451 89 88 249 
452 209 124 250 
453 125 140 250 
454 196 194 251 
455 162 166 248 
456 16 75 252 
457 21 64 259 
458 49 62 260 
459 165 160 261 
460 198 192 262 
461 163 171 264 
462 115 122 263 
463 226 68 266 
464 227 67 265 
465 208 106 242 
466 3 33 268 
467 1 5 269 
468 60 1 269 
469 13 2 271 
470 2 14 271 
471 185 80 271 
472 32 3 268 
473 41 4 270 
474 4 42 270 
475 106 104 240 
476 150 147 241 
477 185 15 252 
478 190 206 266 
479 177 182 265 
480 244 165 261 
481 243 198 262 
482 62 245 260 
483 64 251 259 
484 184 186 242 
485 63 19 243 
486 61 47 244 
487 159 165 245 
488 159 245 246 
489 148 159 246 
490 84 86 247 
491 216 162 248 
492 88 91 249 
493 124 125 250 
494 194 198 251 
495 206 116 266 
496 182 164 265 
497 257 63 262 
498 253 61 261 
499 199 196 256 
500 166 161 255 
501 117 114 257 
502 172 158 253 
503 114 208 258 
504 257 114 258 
505 158 201 254 
506 253 158 254 
507 15 16 252 
508 186 185 252 
509 223 61 253 
510 76 223 254 
511 223 253 254 
512 205 111 255 
513 64 209 256 
514 222 63 257 
515 222 257 258 
516 75 222 258 
517 117 257 262 
518 172 253 261 
519 20 21 259 
520 48 49 260 
521 160 172 261 
522 192 117 262 
523 116 115 263 
524 164 163 264 
525 176 179 267 
526 68 190 266 
527 67 177 265 
528 237 41 270 
529 33 236 268 
530 5 238 269 
531 81 32 268 
532 82 60 269 
533 80 13 271 
534 42 79 270 
535 177 175 273 
536 190 188 272 
537 241 151 273 
538 240 107 272 
539 179 239 267 
540 79 237 270 
541 236 81 268 
542 238 82 269 
543 63 243 262 
544 61 244 261 
545 245 165 260 
546 251 198 259 
547 188 240 272 
548 175 241 273 
$EndElements
