$MeshFormat
4.1 0 8
$EndMeshFormat
$Entities
4 4 1 0
1 0 0 0 0 
2 0.5 0 0 0 
3 0.5 1 0 0 
4 0 1 0 0 
1 0 0 0 0.5 0 0 0 2 1 -2 
2 0.5 0 0 0.5 1 0 0 2 2 -3 
3 0 1 0 0.5 1 0 0 2 3 -4 
4 0 0 0 0 1 0 0 2 4 -1 
1 0 0 0 0.5 1 0 0 4 1 2 3 4 
$EndEntities
$Nodes
9 80 1 80
0 1 0 1
1
0 0 0
0 2 0 1
2
0.5 0 0
0 3 0 1
3
0.5 1 0
0 4 0 1
4
0 1 0
1 1 0 4
5
6
7
8
0.09999999999977893 0 0
0.1999999999994874 0 0
0.2999999999994734 0 0
0.3999999999997367 0 0
1 2 0 9
9
10
11
12
13
14
15
16
17
0.5 0.09999999999981467 0
0.5 0.1999999999995579 0
0.5 0.2999999999992664 0
0.5 0.3999999999989749 0
0.5 0.4999999999986943 0
0.5 0.5999999999989468 0
0.5 0.69999999999921 0
0.5 0.7999999999994734 0
0.5 0.8999999999997368 0
1 3 0 4
18
19
20
21
0.3999999999999999 1 0
0.3000000000006934 1 0
0.2000000000008322 1 0
0.1000000000004161 1 0
1 4 0 9
22
23
24
25
26
27
28
29
30
0 0.8999999999995836 0
0 0.7999999999999998 0
0 0.7000000000006934 0
0 0.6000000000013869 0
0 0.5000000000020587 0
0 0.4000000000016644 0
0 0.3000000000012483 0
0 0.2000000000008322 0
0 0.100000000000416 0
2 1 0 50
31
32
33
34
35
36
37
38
39
40
41
42
43
44
45
46
47
48
49
50
51
52
53
54
55
56
57
58
59
60
61
62
63
64
65
66
67
68
69
70
71
72
73
74
75
76
77
78
79
80
0.0841996920749363 0.6486693610084168 0
0.08660254037846774 0.4500000000017809 0
0.4189902944627906 0.2538264941552835 0
0.4133974596213607 0.7499999999992799 0
0.418304128945001 0.549999999999541 0
0.08660254037888014 0.2500000000010512 0
0.2451660472532781 0.9186224219101069 0
0.2556674571289755 0.08185330602411708 0
0.0959510273116608 0.8430574538662956 0
0.08660254037877768 0.3500000000014102 0
0.173205080757012 0.4000000000020288 0
0.1724368359761339 0.4986693610093056 0
0.2589113355579095 0.4484475878441104 0
0.2580207779273623 0.3497412646424889 0
0.2522235405379297 0.548188852483378 0
0.3394245592921595 0.3970368640965683 0
0.1729072735561762 0.2999568774417055 0
0.2589914609927562 0.2423547288779352 0
0.1648514263472896 0.1968724074551396 0
0.08486487967304332 0.1501669795680659 0
0.4149834826226471 0.651330638991945 0
0.3278275011903842 0.7015524121574102 0
0.3351415623200241 0.8021093667060228 0
0.2420632923806362 0.758130781831386 0
0.2454730360718752 0.6509371483895934 0
0.4151348161432198 0.8497888450085795 0
0.3499432116971317 0.08469107173838723 0
0.08530578008370884 0.5482258146781464 0
0.08340600669315291 0.7442838882195562 0
0.1523966756084123 0.9204794770711167 0
0.4055498857228798 0.1576222989035494 0
0.3418822471642717 0.9060272378536169 0
0.1582413965877486 0.09389275545534052 0
0.3070622870680418 0.1579519847074386 0
0.1939005481492412 0.8431902935380023 0
0.4197037458147613 0.3501438930419594 0
0.167579263492838 0.5970868257237815 0
0.3334353970329199 0.5990042030113356 0
0.337586865776363 0.4987795845722947 0
0.1632681919775033 0.6955140866023284 0
0.4191698833047141 0.4493267236180053 0
0.3397086021913164 0.3031903721887023 0
0.4267949192428088 0.9267949192427382 0
0.07320508075687598 0.9267949192431241 0
0.07320508075722666 0.07320508075739736 0
0.4267949192427895 0.07320508075709027 0
0.1568878611515815 0.7739765144412376 0
0.346060506087557 0.2229891757665818 0
0.2289628056249623 0.1545850365039942 0
0.2716307394534902 0.845616020367827 0
$EndNodes
$Elements
9 162 1 162
0 1 15 1
1 1 
0 2 15 1
2 2 
0 3 15 1
3 3 
0 4 15 1
4 4 
1 1 1 5
5 1 5 
6 5 6 
7 6 7 
8 7 8 
9 8 2 
1 2 1 10
10 2 9 
11 9 10 
12 10 11 
13 11 12 
14 12 13 
15 13 14 
16 14 15 
17 15 16 
18 16 17 
19 17 3 
1 3 1 5
20 3 18 
21 18 19 
22 19 20 
23 20 21 
24 21 4 
1 4 1 10
25 4 22 
26 22 23 
27 23 24 
28 24 25 
29 25 26 
30 26 27 
31 27 28 
32 28 29 
33 29 30 
34 30 1 
2 1 2 128
35 49 50 63 
36 53 56 62 
37 35 68 69 
38 68 45 69 
39 57 61 64 
40 60 39 65 
41 49 63 79 
42 53 62 80 
43 64 61 78 
44 65 39 77 
45 31 67 70 
46 66 12 71 
47 29 30 50 
48 36 29 50 
49 49 36 50 
50 44 41 47 
51 41 40 47 
52 47 36 49 
53 26 27 32 
54 32 40 41 
55 44 47 48 
56 25 26 58 
57 32 27 40 
58 16 17 56 
59 28 36 40 
60 40 36 47 
61 13 14 35 
62 51 34 52 
63 32 41 42 
64 52 53 54 
65 27 28 40 
66 31 25 58 
67 26 32 58 
68 15 34 51 
69 35 14 51 
70 52 54 55 
71 52 34 53 
72 15 16 34 
73 43 44 46 
74 28 29 36 
75 14 15 51 
76 22 23 39 
77 19 20 37 
78 34 16 56 
79 42 43 45 
80 7 8 57 
81 48 47 49 
82 6 7 38 
83 42 41 43 
84 43 41 44 
85 53 34 56 
86 10 11 33 
87 39 23 59 
88 24 25 31 
89 23 24 59 
90 32 42 58 
91 38 7 57 
92 24 31 59 
93 20 21 60 
94 18 19 62 
95 9 10 61 
96 5 6 63 
97 45 55 67 
98 55 45 68 
99 46 66 71 
100 67 55 70 
101 11 12 66 
102 35 51 68 
103 42 45 67 
104 31 58 67 
105 52 55 68 
106 45 43 69 
107 13 35 71 
108 46 44 72 
109 37 20 60 
110 19 37 62 
111 10 33 61 
112 6 38 63 
113 38 57 64 
114 3 18 73 
115 1 5 75 
116 30 1 75 
117 17 3 73 
118 2 9 76 
119 8 2 76 
120 4 22 74 
121 21 4 74 
122 66 46 72 
123 35 69 71 
124 33 11 66 
125 58 42 67 
126 51 52 68 
127 43 46 69 
128 39 59 77 
129 55 54 70 
130 59 31 70 
131 12 13 71 
132 44 48 72 
133 37 60 65 
134 54 53 80 
135 48 49 79 
136 61 33 78 
137 63 38 79 
138 62 37 80 
139 33 66 72 
140 69 46 71 
141 65 54 80 
142 64 48 79 
143 60 21 74 
144 5 63 75 
145 18 62 73 
146 9 61 76 
147 50 30 75 
148 56 17 73 
149 57 8 76 
150 22 39 74 
151 39 60 74 
152 61 57 76 
153 62 56 73 
154 63 50 75 
155 48 64 78 
156 54 65 77 
157 70 54 77 
158 72 48 78 
159 38 64 79 
160 37 65 80 
161 33 72 78 
162 59 70 77 
$EndElements
