$MeshFormat
4.1 0 8
$EndMeshFormat
$Entities
5 5 1 0
1 0 0 0 0 
2 4 0 0 0 
3 4 2 0 0 
4 0 2 0 0 
5 0.5 2 0 0 
1 0 0 0 4 0 0 0 2 1 -2 
2 4 0 0 4 2 0 0 2 2 -3 
3 0.5 2 0 4 2 0 0 2 3 -5 
4 0 0 0 0 2 0 0 2 4 -1 
5 0 2 0 0.5 2 0 0 2 5 -4 
1 0 0 0 4 2 0 0 5 1 2 3 5 4 
$EndEntities
$Nodes
11 654 1 654
0 1 0 1
1
0 0 0
0 2 0 1
2
4 0 0
0 3 0 1
3
4 2 0
0 4 0 1
4
0 2 0
0 5 0 1
5
0.5 2 0
1 1 0 19
6
7
8
9
10
11
12
13
14
15
16
17
18
19
20
21
22
23
24
0.1999999999995986 0 0
0.3999999999992587 0 0
0.5999999999988144 0 0
0.7999999999982315 0 0
0.9999999999976484 0 0
1.199999999997066 0 0
1.399999999996483 0 0
1.5999999999959 0 0
1.799999999995317 0 0
1.999999999994777 0 0
2.19999999999526 0 0
2.399999999995787 0 0
2.599999999996314 0 0
2.79999999999684 0 0
2.999999999997367 0 0
3.199999999997893 0 0
3.39999999999842 0 0
3.599999999998947 0 0
3.799999999999474 0 0
1 2 0 9
25
26
27
28
29
30
31
32
33
4 0.1999999999996293 0
4 0.3999999999991157 0
4 0.5999999999985328 0
4 0.7999999999979498 0
4 0.9999999999973885 0
4 1.199999999997894 0
4 1.39999999999842 0
4 1.599999999998947 0
4 1.799999999999474 0
1 3 0 44
34
35
36
37
38
39
40
41
42
43
44
45
46
47
48
49
50
51
52
53
54
55
56
57
58
59
60
61
62
63
64
65
66
67
68
69
70
71
72
73
74
75
76
77
3.80601641821107 2 0
3.621709045639117 2 0
3.44659518490125 2 0
3.280216262757217 2 0
3.122136570041502 2 0
2.971942113297386 2 0
2.82923959474192 2 0
2.693655298376614 2 0
2.564834155269481 2 0
2.44243877917608 2 0
2.326148657778393 2 0
2.215659281211448 2 0
2.110681270441503 2 0
2.010939734312065 2 0
1.916173446514003 2 0
1.8261342360492 2 0
1.740586330588051 2 0
1.659305677284019 2 0
1.582079421068056 2 0
1.508705316810741 2 0
1.438991240771966 2 0
1.372754600596728 2 0
1.309821946328926 2 0
1.250028443310573 2 0
1.193217547228379 2 0
1.139240466918093 2 0
1.087955839753718 2 0
1.039229365754884 2 0
0.9929334442913111 2 0
0.9489468304193798 2 0
0.9071543292226143 2 0
0.8674465058790033 2 0
0.8297193735244286 2 0
0.7938741207800808 2 0
0.7598168822317186 2 0
0.727458470821305 2 0
0.696714143510166 2 0
0.6675033870659122 2 0
0.6397497105603542 2 0
0.6133804284320363 2 0
0.5883264830505022 2 0
0.5645222681068063 2 0
0.5419054448344642 2 0
0.5204167793686256 2 0
1 4 0 13
78
79
80
81
82
83
84
85
86
87
88
89
90
0 1.89848671726142 0
0 1.79182095965325 0
0 1.679741221390713 0
0 1.561972686045098 0
0 1.438226606050893 0
0 1.308199568995552 0
0 1.17157283718723 0
0 1.028011385862604 0
0 0.8771632451184739 0
0 0.7186585636762124 0
0 0.5521086835216291 0
0 0.3771053260781758 0
0 0.1932193729162104 0
1 5 0 10
91
92
93
94
95
96
97
98
99
100
0.4803052583715324 2 0
0.4575074584821537 2 0
0.431117682857018 2 0
0.4005699916633979 2 0
0.3652092646465718 2 0
0.3242771783287069 2 0
0.2768959207592777 2 0
0.2220493733697854 2 0
0.1585612984233962 2 0
0.08507019636417262 2 0
2 1 0 554
101
102
103
104
105
106
107
108
109
110
111
112
113
114
115
116
117
118
119
120
121
122
123
124
125
126
127
128
129
130
131
132
133
134
135
136
137
138
139
140
141
142
143
144
145
146
147
148
149
150
151
152
153
154
155
156
157
158
159
160
161
162
163
164
165
166
167
168
169
170
171
172
173
174
175
176
177
178
179
180
181
182
183
184
185
186
187
188
189
190
191
192
193
194
195
196
197
198
199
200
201
202
203
204
205
206
207
208
209
210
211
212
213
214
215
216
217
218
219
220
221
222
223
224
225
226
227
228
229
230
231
232
233
234
235
236
237
238
239
240
241
242
243
244
245
246
247
248
249
250
251
252
253
254
255
256
257
258
259
260
261
262
263
264
265
266
267
268
269
270
271
272
273
274
275
276
277
278
279
280
281
282
283
284
285
286
287
288
289
290
291
292
293
294
295
296
297
298
299
300
301
302
303
304
305
306
307
308
309
310
311
312
313
314
315
316
317
318
319
320
321
322
323
324
325
326
327
328
329
330
331
332
333
334
335
336
337
338
339
340
341
342
343
344
345
346
347
348
349
350
351
352
353
354
355
356
357
358
359
360
361
362
363
364
365
366
367
368
369
370
371
372
373
374
375
376
377
378
379
380
381
382
383
384
385
386
387
388
389
390
391
392
393
394
395
396
397
398
399
400
401
402
403
404
405
406
407
408
409
410
411
412
413
414
415
416
417
418
419
420
421
422
423
424
425
426
427
428
429
430
431
432
433
434
435
436
437
438
439
440
441
442
443
444
445
446
447
448
449
450
451
452
453
454
455
456
457
458
459
460
461
462
463
464
465
466
467
468
469
470
471
472
473
474
475
476
477
478
479
480
481
482
483
484
485
486
487
488
489
490
491
492
493
494
495
496
497
498
499
500
501
502
503
504
505
506
507
508
509
510
511
512
513
514
515
516
517
518
519
520
521
522
523
524
525
526
527
528
529
530
531
532
533
534
535
536
537
538
539
540
541
542
543
544
545
546
547
548
549
550
551
552
553
554
555
556
557
558
559
560
561
562
563
564
565
566
567
568
569
570
571
572
573
574
575
576
577
578
579
580
581
582
583
584
585
586
587
588
589
590
591
592
593
594
595
596
597
598
599
600
601
602
603
604
605
606
607
608
609
610
611
612
613
614
615
616
617
618
619
620
621
622
623
624
625
626
627
628
629
630
631
632
633
634
635
636
637
638
639
640
641
642
643
644
645
646
647
648
649
650
651
652
653
654
0.973887532925284 1.96031323467874 0
0.7436376765265118 1.972675712609382 0
0.5749050661529069 1.977702829258569 0
0.4443125706695858 1.978701155026932 0
1.212604128847021 1.95363471442258 0
1.473970871475624 1.942617768328239 0
1.78646714246787 1.92519696657111 0
0.1366215235846587 1.124189627125669 0
2.163170275826475 1.911353835866948 0
2.607166200544095 1.898805223521526 0
0.3450712079057676 1.966911776146049 0
1.103058001411019 0.1602018366330906 0
1.900007853263168 0.1811467935593079 0
3.047122432424051 1.867508154612138 0
0.8447919230533213 1.963773526927244 0
0.6536265488131332 1.976564071447545 0
2.500198718090897 0.166015468998776 0
0.09966018905357361 1.493828342465914 0
0.5116369995307977 1.978509478378368 0
3.128199797073888 0.1789476339511672 0
3.836250731568721 1.10637587243381 0
0.1298132043959342 0.6408236049348141 0
0.2518301164827009 1.956083057289988 0
3.367140526112879 1.880553233511309 0
2.388692821632664 1.885395791756819 0
1.966484809444604 1.921932644605028 0
1.620692549176038 1.934788131005524 0
1.341500144632633 1.950763316880083 0
1.068978220163357 1.962429678862988 0
0.6832680983895409 0.1612127292862298 0
1.491465323831581 0.165061136589033 0
3.807420549209554 0.697785258291206 0
0.0907545736494263 1.741234422315637 0
3.828522814264386 1.496639462588561 0
3.496554964154909 0.1785804678362012 0
0.310189250317996 0.1742716596158746 0
0.1317365464315388 1.940377074554168 0
3.712563403814704 1.855000681466117 0
3.819886666858804 0.3011378570378708 0
0.08776457821746388 1.844400095654518 0
0.169420324993396 1.788177154422288 0
0.1744768151856107 1.702340263640821 0
0.2439720648228536 1.747952767116264 0
0.250874101640513 1.667205396916311 0
0.3170665737570794 1.711323615153387 0
0.322594894416698 1.632786172548717 0
0.3890253705091818 1.676715029124335 0
0.3945534729149065 1.597480542510909 0
0.4593515269587805 1.638656617100563 0
0.4673262917312043 1.560870696872516 0
0.5336357313944868 1.603193649970104 0
0.5422010218842523 1.523677399978752 0
0.6124237201197364 1.573231675216065 0
0.6195992720191029 1.487462245978626 0
0.6921413058528059 1.536656521613057 0
0.7006659664432681 1.449518641595128 0
0.7768037696361978 1.4999341736623 0
0.7837048834059996 1.407401208603117 0
0.8615361032320465 1.460384200804433 0
0.8694971577802889 1.363098937069391 0
0.9532692125798985 1.419973820107297 0
0.9601548513787647 1.317740335046937 0
1.046741562269481 1.376888938512186 0
1.054011215863963 1.270456658285586 0
1.144865061958386 1.332252630431931 0
0.78465983438995 1.31437543417927 0
1.151741446373242 1.223735706529342 0
1.249536218409569 1.286642145764531 0
1.253566281748509 1.155316519231243 0
1.359707670668363 1.236455735621714 0
1.049695023046432 1.170920866375524 0
1.368042556532175 1.113834836785909 0
1.473720611381356 1.186490521927118 0
1.482802290894895 1.056197690595833 0
1.589687731735661 1.131336718654234 0
1.579354706772312 1.261519437638319 0
1.696344661380136 1.208465647566372 0
1.711862661194597 1.076487151139666 0
1.821238382146712 1.155765355471449 0
1.038060736125526 1.479050553547959 0
1.83838892019795 1.017441255555684 0
1.95417925149726 1.100882678092977 0
1.97004347798739 0.9552886542011234 0
2.090437283185782 1.043308009956454 0
1.919220686559737 1.23717934869006 0
1.372223319483762 0.9834240282355591 0
0.7710403165814991 1.584651297343512 0
0.5531556133034755 1.437397893489003 0
0.6042928990299693 1.656532461358358 0
2.107304075004118 0.8919614408162746 0
2.23067976147302 0.9835200447793288 0
0.4550913354043425 1.722174233230607 0
1.848509519502266 0.8691699326659148 0
1.233505161335934 1.396043348414951 0
2.215024395013816 1.135746221878861 0
2.354280094980791 1.076023955050369 0
2.338079031061928 1.228721141568231 0
2.479417368474631 1.169534501644875 0
2.498327773620982 1.013243171624516 0
2.626688736613257 1.11004397377162 0
2.646845875881551 0.9484509773417168 0
2.777692880783024 1.048201997982374 0
2.754030619509125 1.212582626439561 0
2.909450513750089 1.152246168292216 0
2.932839453248851 0.9836822775031454 0
2.247647577238747 0.8268398916046996 0
3.06645646603693 1.088994106857527 0
3.09232947710356 0.9175918417619224 0
2.456902440676202 1.321267490355628 0
2.321334867996738 1.378076698913577 0
1.681124018668202 1.336600325308702 0
2.954103199557091 0.8106045200226092 0
3.041914576258902 1.258029023462663 0
0.4054037468947404 1.525695379344509 0
3.199878376408142 1.195712275330575 0
1.571227287046281 1.386782070481424 0
1.666555183489574 1.4565009364299 0
1.563725403778721 1.503909782859137 0
1.651722434755574 1.568349545181349 0
1.761270523332601 1.528243472452094 0
1.55444700982498 1.61189069665464 0
3.11730903785994 0.742391343399101 0
2.119895136746433 0.7331018636613129 0
2.434186723150432 1.465624980235697 0
2.303942564632906 1.520886904969394 0
3.258650442584716 0.8522768005886708 0
3.172621938342515 1.363591504196694 0
3.018178086812299 1.42439559703775 0
2.26731717924016 0.6637978426538751 0
0.315327341558486 1.79076379415132 0
3.342230734753052 1.298637224391989 0
1.634227272629742 1.671584514012779 0
1.494592968049268 0.9204740933526281 0
1.371268942253399 0.8438897060587716 0
1.508069886671301 0.7764198886000389 0
1.383055535030989 0.6940835522208824 0
1.243134904415022 0.7648400172457108 0
1.521210488334298 0.6231671958012316 0
3.28509384898746 0.672478344338778 0
1.468986707480287 1.552213285820743 0
1.461638578434244 1.65322074844739 0
1.381189893870067 1.599260384736786 0
1.377558025286286 1.708808519361934 0
1.299578736009823 1.644723245512027 0
1.290852510349064 1.734392902070813 0
1.2220315453707 1.68313335983655 0
1.213018961741361 1.76447202864028 0
1.148795441604312 1.71875760598649 0
2.97492051012749 0.6330238687675555 0
1.138694672605348 1.795438357364814 0
1.079229078962894 1.753349998222739 0
1.253886933347377 0.6118475099780195 0
1.116428485724077 0.6823479167845653 0
2.132568294540053 0.5664542684173146 0
2.19532648079812 1.436467786380212 0
2.178201310221637 1.569164437470282 0
2.075886663477554 1.493047413634692 0
2.064631247486487 1.619572460800224 0
3.145445777432899 1.52785929329668 0
2.412785285375716 1.602522656674024 0
2.543264106165607 1.552349337280666 0
1.463312335256773 1.750734668787915 0
1.084444234190748 1.679615596363687 0
1.01775861916348 1.715241177697255 0
1.014106488994808 1.786149199103139 0
0.9561440327582993 1.749822296580922 0
0.9532153431958834 1.679546604655482 0
0.9536773958489906 1.816639999175077 0
0.8983708243684361 1.78323159858157 0
0.8984429867885853 1.845812219216372 0
0.8452707777148742 1.814526779515236 0
0.843555265094974 1.753549015431057 0
0.7914159556796463 1.784927835015477 0
0.7894634434882477 1.851905646059868 0
0.7405321191767311 1.816111066350139 0
0.7382537000676176 1.755842494479363 0
0.6886855861052166 1.790126800280994 0
0.6913681697405122 1.845804811363262 0
0.6429639932156349 1.822618779918436 0
0.6480385921339972 1.873913373790855 0
0.601418556521056 1.852518978947979 0
0.5949825641660663 1.800475124010604 0
0.5540926279574565 1.832250239726976 0
0.5647590617189006 1.887101106415932 0
0.5166183248550403 1.863461701897906 0
1.104297753039892 0.8361801801855822 0
0.9779565725338794 0.7560985072731966 0
0.9846589692621703 0.6013598349609508 0
0.8490391422680326 0.677575164964896 0
0.8449218677342217 0.8292940586751036 0
0.7169692286069547 0.7541221433528208 0
0.7171378211278325 0.9036161122993449 0
0.5919029548001696 0.8291775923385011 0
0.5939309639789203 0.9708964879331582 0
0.5818471144401433 0.6899653467032727 0
0.4703107305101307 0.9006462157025448 0
0.4736771119686261 1.038114517592277 0
0.5896135280154933 1.10492491418951 0
0.4757812240277209 1.168687594755065 0
0.8437032086457581 0.9734263693469526 0
3.42951855695445 0.7859660046458667 0
3.457236604926619 0.6013136102554715 0
0.691176078501498 1.89522092165817 0
1.224250858317822 1.595118798571788 0
0.8496824227887145 0.5179060286948213 0
2.99407967511287 1.584484173358289 0
2.844350115367313 1.488607749453964 0
2.852586441362232 1.650822924596938 0
2.289061544837284 0.4965483361987582 0
2.42019069628017 0.5963481074329084 0
1.280650357802097 1.810098404301286 0
0.5224597755076524 1.90797928214497 0
0.4785536166991997 1.891162732408287 0
0.471837557266341 1.845289009404472 0
0.4328931028164094 1.875439976427316 0
0.4256955795264221 1.826338654842897 0
2.814706598472752 0.7050202867414417 0
2.830734996370045 0.5236383918600436 0
1.009043014674259 1.851963033661186 0
0.5821843969399223 1.226894314856972 0
0.3547243952147455 0.9712049439812729 0
0.3868736547238825 1.858146115425985 0
3.399145415546237 0.9639827238482971 0
1.962758340059159 0.6384183883430937 0
3.307825232627812 0.4867711910044036 0
0.2559118452744625 1.585033146911262 0
2.158035722927774 1.685666273732795 0
0.3478706737462939 0.8299161731838678 0
2.048299360571066 1.731867118741953 0
1.958352198959546 1.668465545345386 0
2.159365237994892 0.4058573713919203 0
1.387429082420085 1.505049809766335 0
0.54776580418135 1.778146021145993 0
3.568093413639297 0.8997936350799242 0
3.547227738765847 1.085158569739948 0
2.522576479027926 1.687140410341343 0
0.4861997273305342 1.934455227899735 0
0.5597725192089265 1.926481102968508 0
0.4771472148555143 1.283934003150455 0
0.374764789999877 1.230080280081901 0
0.3756706308677052 1.345299986721714 0
0.2818283892609358 1.291911791517532 0
0.2748639633543952 1.39434906763943 0
1.645539755035047 0.7120992805276205 0
1.668190780070506 0.5535434705820936 0
0.3966328508522982 1.904669282138336 0
0.343635785299191 1.890576858962819 0
1.532641376722591 0.4591687860160037 0
1.668896456585031 0.419471492856431 0
1.0019495676965 0.4361025818862304 0
0.6779562275974388 1.172896717459973 0
0.684746578779893 1.731748622433071 0
2.993954641552366 0.4544770897098451 0
2.850940507411434 0.3383628254146666 0
2.68627386982182 0.416008094139133 0
2.515724506704158 0.8521206632323286 0
0.1944589012196204 1.33446066412435 0
0.2237969954235868 0.9022817267163461 0
0.6520384289754532 1.923567986722653 0
0.6941327113051838 1.94125541222691 0
0.7270384782480166 1.918775476017637 0
2.085663442952885 1.358547707530352 0
1.974883852738968 1.426219226305222 0
0.6121590805299735 1.901042031299347 0
0.6160259659865076 1.944188597948417 0
0.7285700182309301 1.6928179386443 0
1.945185808942671 1.782459740744545 0
1.861627062216566 1.722001523896293 0
2.651123315493278 1.638542955782086 0
2.67334587444436 1.500373559988552 0
2.375192727126183 1.741034704869097 0
3.115178122856319 1.689356806810062 0
3.255258796182572 1.636573103255468 0
0.2689127905138425 1.173565697650262 0
2.429040754042443 0.4246253310144151 0
1.824076120974837 0.4798801329113593 0
1.846161396151903 1.825833347980584 0
1.767846092749271 1.766296720718668 0
0.5920593435955521 1.738440858878551 0
0.5367778265318902 1.719418365462188 0
0.5237563838405643 1.948690144564801 0
0.09642926871709662 1.647626257896244 0
0.8644574699466196 0.3579502495659679 0
0.6870102859111022 0.4500862370222263 0
1.848372343711021 1.611591137418615 0
0.9524911834415195 1.876229381006456 0
0.8983957631595496 1.905461510551845 0
0.849825646509196 1.876228289925788 0
0.8002126910366574 1.906653016770888 0
3.511786052547621 0.4022166191544205 0
3.654163721709321 0.556166705803988 0
0.3790512314867318 1.747790874925004 0
1.07187534172376 1.823603148012508 0
1.124399065538384 1.86397872089251 0
1.200150519905711 1.847394235785148 0
1.268950486580908 1.881315723776654 0
1.328788438701645 1.862508781271781 0
1.348400137219254 1.79360159062937 0
1.393341687619749 1.846076403327324 0
1.061642725644843 1.883550569483981 0
1.002999259819515 1.912379440501524 0
0.2424314548516552 1.831969343469109 0
0.1750497702649777 1.865121420995104 0
1.546427338404164 1.714732184413377 0
1.611590154727842 1.768428316896903 0
1.525906395788424 1.80120405293771 0
0.6861253869588433 1.622925872493318 0
2.503956802741972 1.815933689182451 0
2.293118852606789 1.819665184848539 0
0.4665963064467782 1.792635527225025 0
0.969608786543274 0.9053545278014323 0
1.085490839073814 0.9713659547103564 0
0.9589162080873427 1.041157909503367 0
0.8428057149493731 1.109329092498549 0
0.7223693180700281 1.062409544480307 0
1.239954808718221 0.9282061917798415 0
1.457924874199019 1.327843208086012 0
0.382889628154985 1.971460817753252 0
0.7398175435809063 1.868812931114835 0
1.33315822703354 1.355369237993361 0
3.318202019964407 0.2918531406240684 0
2.278263369253231 1.642043006458133 0
2.700398625555152 0.2114838085264317 0
1.298023475038385 0.1659006555763894 0
1.169087999338997 0.339393470946858 0
1.385878602935966 0.3497532118129467 0
2.886717521472932 1.320964321842767 0
0.4415099370938106 1.922815511593138 0
1.685578829761527 0.1576974457093524 0
0.4938802884192233 0.1660245859894463 0
0.3968395759481673 0.3308579098278428 0
0.2176593721060294 0.3419580568568205 0
0.3141411700437178 0.4784336962367609 0
0.4940270154993744 0.4622273737672503 0
0.4153869485628188 0.6341973238467163 0
1.133546863438052 1.437827330199413 0
1.123305280620546 1.545299545072707 0
1.024815229822313 1.56606944313129 0
0.9445633611254918 1.513845445384743 0
0.8593347793400414 1.565379610154468 0
0.8303518179968783 1.633929038634592 0
0.1060769671695115 1.263377866293651 0
1.109994284430314 1.923446685885118 0
1.169741591636723 1.908346151461968 0
3.832712949110975 1.303707052348393 0
3.664696733614329 1.401569004553312 0
3.657461212888059 1.580073853702374 0
3.512360416602075 1.492937888401034 0
3.512137955555613 1.664036361221124 0
2.955986263626747 1.746172331783219 0
2.839346471010949 1.780461211661657 0
3.22261173550874 1.828113010062794 0
1.58787309278513 1.855675078846164 0
1.680756667827592 1.838505276403397 0
1.729317931818216 1.633071254884628 0
1.867911680099294 1.482077974262638 0
0.1949245234271976 1.952568343014083 0
3.813215586409106 1.703059960366655 0
0.3013977783079515 1.961332483644453 0
0.2880872794019438 1.90987958301389 0
0.2294562059344341 1.903843382483608 0
3.839499406654229 0.9071422001244425 0
2.103735908287452 0.1538338790370125 0
2.306811997002904 0.1731215607058409 0
0.8824211599366324 0.181525987289325 0
0.4689063584268435 1.98160018978709 0
3.523194347442201 1.83584613682011 0
2.066680302178836 1.212660840695835 0
1.778687871770513 1.411659681275641 0
1.795298779568981 1.285482806827166 0
0.29985388711938 1.852739435025031 0
2.069485745349118 1.911067044456547 0
1.873602391303951 1.923387619935644 0
1.709012936825866 1.923979854434302 0
1.545392368939396 1.938522996821263 0
0.9200328231983537 1.955657328357937 0
1.405997156850619 1.946454078426807 0
2.207467428854605 1.291014881610587 0
0.4589557925646126 1.95605330976428 0
1.967697032092006 1.55078030471193 0
2.605703441984694 1.266967434919682 0
1.272585377417298 1.94304626524533 0
1.218432185882106 1.496878916807787 0
3.833020437806188 0.4955663712954974 0
0.8408050503394308 1.922071695791258 0
0.805587693701956 1.946702943090277 0
0.2439515967127797 1.044915329163397 0
3.298698984341462 1.470784708879386 0
2.13094607732818 1.806798281419788 0
2.680342718933245 0.6089492524595927 0
1.473186978364045 1.441017880104909 0
0.4159514661918771 1.974711865993992 0
3.226328364201506 1.025573484222454 0
2.799175738446605 0.8830112456393754 0
1.02056664913391 1.959892129413593 0
3.601930471849785 0.7173763404817343 0
0.7120148465972789 1.972994383338832 0
1.622030167549226 0.8603056233473316 0
2.001340344773989 0.4549588175191421 0
1.786512477981338 0.6565934192276136 0
0.8828383814574675 1.970535557662884 0
0.6273158657039802 1.975637957143957 0
3.14112012565363 0.565218346717708 0
1.179710531814441 1.048899914862748 0
1.302104500990587 1.55044027388176 0
3.511772807913529 1.335043501089334 0
0.688662281532508 1.269684428957931 0
0.5865240675611357 1.338418190867331 0
0.5534513450789859 1.982413369419829 0
1.152011365925236 1.639946356385835 0
0.7789645615861156 1.972605528822299 0
2.726944465524464 1.36669802599744 0
0.8977998928088589 1.72004134083251 0
3.651161668150023 1.205216066438455 0
0.7147334591816781 0.6061801781683802 0
0.7606547044098939 1.939379545861951 0
0.682108765288039 1.975525562666313 0
2.372436339112899 0.9189313249837636 0
1.984116817956647 0.8081283136345161 0
3.364836590019467 1.126868240819078 0
1.391582188967647 0.5401787532549588 0
2.573391175324293 1.412213471462944 0
1.132190484720912 0.5227483795494854 0
0.1222032273017435 0.7979109043973432 0
0.6011611431492857 1.976460107109328 0
0.5828835677567934 1.950359676575904 0
2.666142442314805 0.7829897618290165 0
3.648975874523998 0.2883522319193254 0
0.9737252564243688 1.230697262375217 0
0.3653019847395986 1.104428060537362 0
1.60475487502497 0.9985657044899569 0
3.148411242206608 0.3786333738668272 0
0.949070551309089 1.604215676487817 0
1.505951010123655 1.877082349918997 0
2.899999999997106 0.157960962916515 0
0.4814636844119112 0.7767805303549805 0
0.5770999482207922 0.3158177702302438 0
2.628731932308897 1.775241057102804 0
0.1517641198533703 0.497068149817777 0
2.747549536312268 1.866954934135035 0
0.2580259377481882 0.7201586327364569 0
0.8787343281794265 1.237995128058488 0
2.26492221481209 1.910967592166745 0
0.7861365059661996 1.722085547145738 0
0.7821181030200385 1.199106298868053 0
0.5096595099538697 1.811199229865789 0
0.4735608697326906 1.48045198023607 0
0.467555901729187 1.387302750029442 0
2.393895919004442 0.7597373292445365 0
0.1853248030242327 1.621873819620399 0
0.3756062692745777 1.805497034741461 0
1.311859724301165 1.45456701484022 0
1.906165639615846 0.3409057428164178 0
0.3287475663635603 1.554973024714478 0
0.2657475708311413 1.491721412690534 0
2.899840203345176 1.887932037176598 0
0.3665070719326238 1.934451756604065 0
0.3277431399159742 1.931045473842547 0
0.1154012451642167 0.9713813966676553 0
0.5343216311421074 1.976996045093893 0
0.6392110448305253 1.764847514047425 0
1.156399362066072 1.958552040634063 0
0.9497220110454045 1.923369892039731 0
0.4901759772812688 1.982021188417039 0
0.4998104704108982 1.959708420202214 0
0.1867513909489513 1.535950598798065 0
0.4043163659816119 1.94369739102275 0
1.7277055812038 0.9374081421075822 0
1.76626925361163 1.845388752625781 0
2.016188243740529 1.8341337140801 0
2.302700399944226 0.3428774829407426 0
0.7625691846135656 1.898358661900463 0
2.536792961377861 0.687192790815774 0
3.699999999999211 0.1415178089258624 0
0.186548702170454 1.442202188260589 0
0.09779079326885992 1.380049206031825 0
1.018926988948951 1.64259327979565 0
1.266973281388731 0.467351005214301 0
3.69098335992743 1.008668512759628 0
0.5548484188633807 1.960440527980251 0
1.884666361244984 1.361465432480255 0
0.3702214642533457 1.454256228768025 0
0.6956182633712241 1.364412116341096 0
0.6311126365396413 1.415441817654237 0
3.308591356237903 0.1298762484822873 0
2.73962924796919 1.717873823575537 0
1.08358976471726 1.612515938946194 0
1.589206914603947 0.3063330165874075 0
0.4325025578246641 1.954411832161017 0
2.502051670544264 1.919885365359596 0
0.6392625443902964 1.713408356444946 0
1.002043761934845 0.2895500424406748 0
0.896298718231988 1.656264882263071 0
0.588135421555565 1.922728114735514 0
0.1511481193800401 0.2004217195003548 0
0.5021340499792081 1.760158693871688 0
1.746129177660563 0.8002548098303579 0
3.379639030938503 1.737845516019302 0
0.07123961773608101 1.928026117635931 0
1.112513634666311 1.968885681076434 0
1.693205446839852 1.7302812420861 0
1.461764614597023 1.830186914892678 0
0.6423684156270217 1.954545643492456 0
3.00430123764828 0.3016763771718042 0
1.918260825328988 1.859813120542406 0
0.811796747152254 1.976199797514572 0
1.369316985466368 1.902077641854959 0
1.435057054355506 1.890749192791501 0
0.5913873992978302 0.557756871896453 0
3.863857232724116 1.863890254307213 0
3.394395650579466 1.567995713763535 0
3.643714501221937 1.727603398715276 0
2.560347742293725 0.3229002444276617 0
2.041486401232928 0.3008915734723788 0
2.751631221317104 1.594775831882853 0
0.8383251872698927 1.688902029354706 0
0.7751883353923115 1.650147933379672 0
3.855026652993257 0.1449733470064951 0
0.3439534192670562 1.838630349399792 0
0.6662525615321397 1.953933121928222 0
0.5160141134722384 1.664341720199549 0
2.55216479045821 0.5093373033815808 0
3.701889186873763 0.8334580789332464 0
0.8766280847251733 1.940570497907092 0
1.137238219963342 1.132735378962898 0
0.7277609709512991 1.948768027571488 0
0.4209173884246142 1.779282773037545 0
1.219516309663636 1.905942665258601 0
0.6733048344919431 1.678392997798679 0
1.986222929135082 1.319214511140345 0
1.871589231381069 0.7538405244860669 0
1.408875359995817 1.785881619399844 0
2.241282638177378 1.741605781168889 0
1.311449584604138 1.909332036345174 0
1.787109569640505 1.688377618156835 0
0.7388513924809375 0.2933185946787986 0
0.1136331303487708 1.572250340965144 0
1.764738805892038 0.3064125104926076 0
2.218688011750183 1.838078135094182 0
0.4803036040422377 1.964335942117771 0
3.40827871985657 1.405796704804893 0
2.194775631348653 0.2667139483203387 0
1.393802466086761 1.41872687930644 0
0.2649572068268533 1.874607935997909 0
0.1975797143497138 1.237501129342293 0
1.054117582237037 1.073749841482851 0
1.282699499659421 1.04593629817906 0
0.950863981107481 1.139681502684159 0
1.048092245314588 1.925727972872393 0
0.2502348479249844 0.5925409510608555 0
3.477575163167371 1.198719348545401 0
2.419819922274839 0.2859080176174872 0
0.120527188158123 1.888387118223196 0
3.708238737758331 0.4148024118900664 0
$EndNodes
$Elements
11 1311 1 1311
0 1 15 1
1 1 
0 2 15 1
2 2 
0 3 15 1
3 3 
0 4 15 1
4 4 
0 5 15 1
5 5 
1 1 1 20
6 1 6 
7 6 7 
8 7 8 
9 8 9 
10 9 10 
11 10 11 
12 11 12 
13 12 13 
14 13 14 
15 14 15 
16 15 16 
17 16 17 
18 17 18 
19 18 19 
20 19 20 
21 20 21 
22 21 22 
23 22 23 
24 23 24 
25 24 2 
1 2 1 10
26 2 25 
27 25 26 
28 26 27 
29 27 28 
30 28 29 
31 29 30 
32 30 31 
33 31 32 
34 32 33 
35 33 3 
1 3 1 45
36 3 34 
37 34 35 
38 35 36 
39 36 37 
40 37 38 
41 38 39 
42 39 40 
43 40 41 
44 41 42 
45 42 43 
46 43 44 
47 44 45 
48 45 46 
49 46 47 
50 47 48 
51 48 49 
52 49 50 
53 50 51 
54 51 52 
55 52 53 
56 53 54 
57 54 55 
58 55 56 
59 56 57 
60 57 58 
61 58 59 
62 59 60 
63 60 61 
64 61 62 
65 62 63 
66 63 64 
67 64 65 
68 65 66 
69 66 67 
70 67 68 
71 68 69 
72 69 70 
73 70 71 
74 71 72 
75 72 73 
76 73 74 
77 74 75 
78 75 76 
79 76 77 
80 77 5 
1 4 1 14
81 4 78 
82 78 79 
83 79 80 
84 80 81 
85 81 82 
86 82 83 
87 83 84 
88 84 85 
89 85 86 
90 86 87 
91 87 88 
92 88 89 
93 89 90 
94 90 1 
1 5 1 11
95 5 91 
96 91 92 
97 92 93 
98 93 94 
99 94 95 
100 95 96 
101 96 97 
102 97 98 
103 98 99 
104 99 100 
105 100 4 
2 1 2 1206
106 189 379 380 
107 371 125 409 
108 395 311 396 
109 137 403 457 
110 442 357 576 
111 387 476 624 
112 351 415 545 
113 83 442 576 
114 284 364 594 
115 476 501 624 
116 350 425 523 
117 437 304 510 
118 125 371 408 
119 247 311 395 
120 415 414 545 
121 295 435 609 
122 127 454 474 
123 304 437 483 
124 284 281 364 
125 414 542 545 
126 476 387 563 
127 127 453 454 
128 18 19 423 
129 540 538 586 
130 274 388 389 
131 107 377 473 
132 434 384 609 
133 425 350 592 
134 220 385 455 
135 108 374 645 
136 37 38 452 
137 110 538 540 
138 391 132 496 
139 338 284 594 
140 358 524 541 
141 542 414 648 
142 120 421 532 
143 372 114 450 
144 509 560 580 
145 307 370 512 
146 119 381 560 
147 379 189 591 
148 298 294 415 
149 386 319 401 
150 90 1 595 
151 1 6 595 
152 398 243 632 
153 554 555 582 
154 114 372 452 
155 245 243 398 
156 362 468 478 
157 432 89 595 
158 377 107 569 
159 337 312 381 
160 457 403 461 
161 435 434 609 
162 328 358 541 
163 189 380 621 
164 421 120 585 
165 389 486 516 
166 376 324 500 
167 274 271 388 
168 347 460 471 
169 230 145 392 
170 489 472 570 
171 274 389 572 
172 384 434 537 
173 351 298 415 
174 337 381 565 
175 109 472 489 
176 452 373 598 
177 132 391 484 
178 393 250 394 
179 372 373 452 
180 403 137 653 
181 370 307 615 
182 214 554 582 
183 117 18 423 
184 187 157 440 
185 453 475 534 
186 404 405 406 
187 419 274 572 
188 260 371 422 
189 386 401 563 
190 187 440 441 
191 361 303 419 
192 441 440 593 
193 374 108 487 
194 38 114 452 
195 406 405 453 
196 234 186 416 
197 422 371 633 
198 324 376 499 
199 423 19 535 
200 453 127 475 
201 313 337 428 
202 382 81 637 
203 485 115 486 
204 140 133 141 
205 328 435 536 
206 80 81 382 
207 143 230 402 
208 371 409 633 
209 159 439 440 
210 485 387 624 
211 237 234 416 
212 474 454 569 
213 460 347 558 
214 508 188 548 
215 262 241 404 
216 560 381 580 
217 481 512 522 
218 89 90 595 
219 380 192 621 
220 548 547 582 
221 312 338 381 
222 599 140 653 
223 251 250 393 
224 435 328 541 
225 230 392 551 
226 192 380 596 
227 262 404 406 
228 339 508 548 
229 312 284 338 
230 166 507 545 
231 135 390 421 
232 385 220 456 
233 442 108 645 
234 486 115 606 
235 303 278 419 
236 366 407 617 
237 189 153 407 
238 401 101 563 
239 79 133 140 
240 280 303 359 
241 468 362 630 
242 381 119 565 
243 482 105 628 
244 364 359 365 
245 529 542 648 
246 411 286 412 
247 393 394 400 
248 440 533 593 
249 294 292 415 
250 455 385 635 
251 359 303 360 
252 243 262 632 
253 268 319 386 
254 378 454 601 
255 124 37 452 
256 107 474 569 
257 349 588 638 
258 89 432 539 
259 435 295 536 
260 194 168 420 
261 450 114 556 
262 465 383 636 
263 428 337 479 
264 170 417 420 
265 468 195 478 
266 141 143 402 
267 512 370 522 
268 467 124 598 
269 426 348 521 
270 157 159 440 
271 280 278 303 
272 78 79 140 
273 388 387 485 
274 365 502 525 
275 140 141 403 
276 241 221 404 
277 270 386 387 
278 78 140 599 
279 285 284 312 
280 281 280 364 
281 250 247 395 
282 533 438 577 
283 130 465 636 
284 159 161 439 
285 390 135 528 
286 411 412 413 
287 402 230 471 
288 287 286 411 
289 180 436 437 
290 279 278 280 
291 389 516 572 
292 143 145 230 
293 437 510 587 
294 507 351 545 
295 449 467 598 
296 225 260 422 
297 451 540 586 
298 547 214 582 
299 147 192 392 
300 313 312 337 
301 170 173 417 
302 443 129 649 
303 454 378 569 
304 437 436 483 
305 400 394 443 
306 180 163 436 
307 141 142 143 
308 319 400 401 
309 269 268 270 
310 270 268 386 
311 508 583 584 
312 283 281 284 
313 588 429 638 
314 112 424 425 
315 271 270 388 
316 180 437 438 
317 396 482 628 
318 79 80 133 
319 124 452 598 
320 268 265 319 
321 147 149 192 
322 427 307 512 
323 403 402 461 
324 277 275 278 
325 266 265 268 
326 101 401 495 
327 145 147 392 
328 155 187 407 
329 275 274 419 
330 103 509 580 
331 110 408 538 
332 280 359 364 
333 86 524 559 
334 248 247 250 
335 526 103 580 
336 426 521 578 
337 299 298 320 
338 273 271 274 
339 130 9 465 
340 267 533 577 
341 246 245 247 
342 218 219 221 
343 221 232 404 
344 339 320 508 
345 451 450 556 
346 81 118 637 
347 315 313 428 
348 286 237 416 
349 299 320 339 
350 247 245 311 
351 216 217 218 
352 168 170 420 
353 244 243 245 
354 112 11 424 
355 278 275 419 
356 242 241 243 
357 240 221 241 
358 407 187 617 
359 439 438 533 
360 179 185 470 
361 338 526 580 
362 81 82 118 
363 311 245 398 
364 151 153 189 
365 368 367 377 
366 243 241 262 
367 346 315 428 
368 153 155 407 
369 523 425 578 
370 297 298 299 
371 141 133 142 
372 297 294 298 
373 396 311 397 
374 409 125 543 
375 264 251 265 
376 131 13 429 
377 270 387 388 
378 258 327 329 
379 292 290 300 
380 8 130 430 
381 83 84 442 
382 300 413 414 
383 265 251 393 
384 32 33 458 
385 330 329 367 
386 176 211 216 
387 17 117 464 
388 221 219 232 
389 404 232 405 
390 218 217 219 
391 389 388 485 
392 257 256 258 
393 279 280 281 
394 365 525 526 
395 424 131 426 
396 210 224 225 
397 216 211 217 
398 570 126 605 
399 269 270 271 
400 433 434 435 
401 524 358 559 
402 273 274 275 
403 389 485 486 
404 461 402 644 
405 508 507 583 
406 255 225 256 
407 185 182 468 
408 432 431 433 
409 141 402 403 
410 136 430 431 
411 319 393 400 
412 430 130 537 
413 161 180 439 
414 165 194 436 
415 266 268 269 
416 504 625 646 
417 121 30 445 
418 322 315 346 
419 173 176 417 
420 300 411 413 
421 290 287 411 
422 277 278 279 
423 293 292 294 
424 155 157 187 
425 368 377 378 
426 197 209 210 
427 283 284 285 
428 143 144 145 
429 246 247 248 
430 258 256 327 
431 151 189 621 
432 228 307 427 
433 425 424 426 
434 218 221 240 
435 291 290 292 
436 203 204 427 
437 260 336 371 
438 307 306 308 
439 344 345 500 
440 258 329 330 
441 330 367 368 
442 112 425 592 
443 244 245 246 
444 248 250 251 
445 394 250 395 
446 264 265 266 
447 363 257 480 
448 136 431 432 
449 194 420 552 
450 292 300 415 
451 192 149 621 
452 163 165 436 
453 240 241 242 
454 454 405 601 
455 391 390 654 
456 308 450 451 
457 242 243 244 
458 433 431 434 
459 210 225 255 
460 340 339 341 
461 125 408 590 
462 225 224 260 
463 408 110 590 
464 131 429 588 
465 84 108 442 
466 406 453 534 
467 255 256 257 
468 228 259 306 
469 412 286 416 
470 210 209 224 
471 417 216 491 
472 296 294 297 
473 306 372 450 
474 133 80 382 
475 448 447 449 
476 387 386 563 
477 371 336 408 
478 394 395 444 
479 176 216 417 
480 12 131 424 
481 210 255 478 
482 289 287 290 
483 390 528 654 
484 524 122 541 
485 180 438 439 
486 253 237 286 
487 84 85 108 
488 228 306 307 
489 161 163 180 
490 416 186 647 
491 400 443 649 
492 255 362 478 
493 445 134 446 
494 189 407 629 
495 446 447 448 
496 345 376 500 
497 209 198 481 
498 121 445 514 
499 136 7 430 
500 320 298 351 
501 375 613 622 
502 14 113 429 
503 218 240 491 
504 204 213 427 
505 304 483 505 
506 10 11 112 
507 613 355 622 
508 395 396 628 
509 446 134 447 
510 308 306 450 
511 342 341 343 
512 213 227 228 
513 413 412 646 
514 195 197 478 
515 213 228 427 
516 165 168 194 
517 285 312 313 
518 240 332 491 
519 31 134 445 
520 113 15 463 
521 12 13 131 
522 99 137 457 
523 354 423 535 
524 176 177 211 
525 8 9 130 
526 132 28 462 
527 407 366 629 
528 306 259 372 
529 6 7 136 
530 443 444 562 
531 14 15 113 
532 463 16 464 
533 31 32 134 
534 300 414 415 
535 300 290 411 
536 134 32 458 
537 228 227 259 
538 444 105 562 
539 487 321 530 
540 456 363 480 
541 443 562 600 
542 490 317 527 
543 184 195 468 
544 256 225 422 
545 217 211 469 
546 16 17 464 
547 434 431 537 
548 182 184 468 
549 360 303 361 
550 143 142 144 
551 29 30 121 
552 11 12 424 
553 173 175 176 
554 417 491 643 
555 29 121 462 
556 374 487 530 
557 97 123 459 
558 616 544 617 
559 291 292 293 
560 192 410 627 
561 13 14 429 
562 412 504 646 
563 179 182 185 
564 7 8 430 
565 87 88 122 
566 319 265 393 
567 289 290 291 
568 10 112 465 
569 17 18 117 
570 195 196 197 
571 260 261 336 
572 36 37 124 
573 34 35 138 
574 253 286 287 
575 299 339 340 
576 323 335 520 
577 125 44 543 
578 121 514 579 
579 145 146 147 
580 82 83 576 
581 38 39 114 
582 30 31 445 
583 258 330 480 
584 197 198 209 
585 646 171 648 
586 15 16 463 
587 184 191 195 
588 209 481 522 
589 362 257 363 
590 330 385 480 
591 99 100 137 
592 440 439 533 
593 138 35 467 
594 63 64 476 
595 481 203 512 
596 198 200 481 
597 496 132 623 
598 293 294 296 
599 35 36 467 
600 36 124 467 
601 555 343 582 
602 97 98 123 
603 9 10 465 
604 27 28 132 
605 28 29 462 
606 385 456 480 
607 20 21 120 
608 197 210 478 
609 27 132 484 
610 204 207 213 
611 213 215 227 
612 447 134 458 
613 358 321 487 
614 200 202 203 
615 257 258 480 
616 381 338 580 
617 329 327 489 
618 220 217 469 
619 317 212 494 
620 219 217 220 
621 226 323 493 
622 436 194 483 
623 41 42 110 
624 384 305 515 
625 185 468 630 
626 147 148 149 
627 22 23 135 
628 177 179 470 
629 420 417 643 
630 470 185 581 
631 95 96 111 
632 43 44 125 
633 296 297 321 
634 232 219 455 
635 320 351 507 
636 25 26 139 
637 324 223 519 
638 408 336 538 
639 249 212 317 
640 376 349 638 
641 358 487 559 
642 87 122 524 
643 200 203 481 
644 360 497 517 
645 45 46 109 
646 139 26 484 
647 226 301 323 
648 318 317 490 
649 323 334 335 
650 459 123 460 
651 456 220 469 
652 216 218 491 
653 47 48 126 
654 472 126 570 
655 176 175 177 
656 272 271 273 
657 327 256 422 
658 354 318 355 
659 203 427 512 
660 219 220 455 
661 260 224 261 
662 262 406 602 
663 263 251 264 
664 359 360 620 
665 321 297 530 
666 49 50 107 
667 355 318 490 
668 51 52 127 
669 254 223 324 
670 149 150 151 
671 514 335 579 
672 46 47 472 
673 195 191 196 
674 340 341 342 
675 276 275 277 
676 53 54 106 
677 282 281 283 
678 213 207 215 
679 329 489 570 
680 322 346 347 
681 26 27 484 
682 203 202 204 
683 69 70 497 
684 48 49 473 
685 443 394 444 
686 55 56 128 
687 453 405 454 
688 487 108 559 
689 151 152 153 
690 50 51 474 
691 197 196 198 
692 410 192 596 
693 94 95 418 
694 236 234 237 
695 330 368 385 
696 255 257 362 
697 336 261 369 
698 40 540 556 
699 526 338 594 
700 52 53 475 
701 252 237 253 
702 323 301 334 
703 20 120 535 
704 57 58 105 
705 361 419 572 
706 249 317 318 
707 54 55 477 
708 342 343 357 
709 365 359 603 
710 412 416 504 
711 145 144 146 
712 372 259 373 
713 211 177 470 
714 354 355 423 
715 6 136 595 
716 153 154 155 
717 302 390 391 
718 288 287 289 
719 72 73 502 
720 227 215 231 
721 56 57 482 
722 299 340 530 
723 390 325 421 
724 392 192 627 
725 208 222 226 
726 383 305 384 
727 226 239 301 
728 367 570 605 
729 88 89 539 
730 302 239 325 
731 208 205 212 
732 553 376 638 
733 345 349 376 
734 155 156 157 
735 229 309 310 
736 135 421 585 
737 302 325 390 
738 254 324 499 
739 222 212 249 
740 204 205 207 
741 503 353 532 
742 109 46 472 
743 200 201 202 
744 301 239 302 
745 226 222 239 
746 353 318 354 
747 235 238 344 
748 60 61 129 
749 40 41 540 
750 244 246 304 
751 325 503 532 
752 240 242 332 
753 328 321 358 
754 157 158 159 
755 432 433 539 
756 208 212 222 
757 201 199 356 
758 47 126 472 
759 446 448 506 
760 198 199 200 
761 397 398 399 
762 85 86 559 
763 98 99 457 
764 445 446 514 
765 249 318 353 
766 207 205 208 
767 204 202 205 
768 227 231 488 
769 446 506 514 
770 233 235 498 
771 184 190 191 
772 126 48 473 
773 182 183 184 
774 341 548 582 
775 259 227 488 
776 114 39 556 
777 320 507 508 
778 215 207 493 
779 235 344 498 
780 159 160 161 
781 44 45 543 
782 96 97 459 
783 208 226 493 
784 202 201 494 
785 49 107 473 
786 177 178 179 
787 163 164 165 
788 173 174 175 
789 469 211 470 
790 165 167 168 
791 161 162 163 
792 200 199 201 
793 107 50 474 
794 179 181 182 
795 334 301 496 
796 147 146 148 
797 62 63 101 
798 168 169 170 
799 61 62 495 
800 187 441 617 
801 302 391 496 
802 425 426 578 
803 310 309 375 
804 51 127 474 
805 248 251 263 
806 127 52 475 
807 206 190 223 
808 207 208 493 
809 236 237 252 
810 340 374 530 
811 301 302 496 
812 253 287 288 
813 212 205 494 
814 291 293 295 
815 170 172 173 
816 191 190 206 
817 53 106 475 
818 431 430 537 
819 183 181 193 
820 129 443 600 
821 341 339 548 
822 269 271 272 
823 106 54 477 
824 198 196 199 
825 458 138 612 
826 205 202 494 
827 149 148 150 
828 325 239 503 
829 229 223 254 
830 86 87 524 
831 309 254 331 
832 184 183 190 
833 373 259 488 
834 264 266 267 
835 75 76 509 
836 493 323 520 
837 344 500 597 
838 229 254 309 
839 490 527 573 
840 344 238 345 
841 206 223 229 
842 297 299 530 
843 151 150 152 
844 182 181 183 
845 55 128 477 
846 346 428 567 
847 317 494 527 
848 249 353 503 
849 369 261 370 
850 288 289 305 
851 397 311 398 
852 222 249 503 
853 153 152 154 
854 224 209 522 
855 128 56 482 
856 177 175 178 
857 239 222 503 
858 64 65 501 
859 345 238 348 
860 65 66 115 
861 155 154 156 
862 140 403 653 
863 296 321 328 
864 331 254 499 
865 458 33 610 
866 444 395 628 
867 57 105 482 
868 179 178 181 
869 273 275 276 
870 279 281 282 
871 174 172 186 
872 314 313 315 
873 345 348 349 
874 157 156 158 
875 288 305 350 
876 173 172 174 
877 135 23 574 
878 447 458 612 
879 231 215 520 
880 201 356 527 
881 4 78 599 
882 168 167 169 
883 252 253 523 
884 159 158 160 
885 165 164 167 
886 67 68 511 
887 215 493 520 
888 163 162 164 
889 95 111 418 
890 486 511 516 
891 232 455 601 
892 170 169 172 
893 497 360 626 
894 475 106 534 
895 494 201 527 
896 161 160 162 
897 350 305 383 
898 120 21 585 
899 356 199 518 
900 235 234 236 
901 233 186 234 
902 235 236 238 
903 167 164 171 
904 316 315 322 
905 233 498 531 
906 253 288 523 
907 19 20 535 
908 489 633 639 
909 100 4 599 
910 191 206 518 
911 92 93 104 
912 93 94 492 
913 514 506 651 
914 105 444 628 
915 421 325 532 
916 22 135 585 
917 242 244 505 
918 3 34 610 
919 229 310 549 
920 174 186 233 
921 68 69 102 
922 340 342 374 
923 233 234 235 
924 110 42 590 
925 171 529 648 
926 332 242 505 
927 196 191 518 
928 91 92 466 
929 347 471 619 
930 357 442 645 
931 304 246 510 
932 246 248 510 
933 305 289 515 
934 142 133 382 
935 164 162 529 
936 307 308 615 
937 94 418 492 
938 401 400 649 
939 540 451 556 
940 289 291 515 
941 70 71 517 
942 261 224 522 
943 336 369 538 
944 476 64 501 
945 101 63 476 
946 413 646 648 
947 276 277 352 
948 244 304 505 
949 122 88 539 
950 223 190 519 
951 120 532 604 
952 71 72 116 
953 352 277 561 
954 175 174 531 
955 199 196 518 
956 178 175 531 
957 160 158 166 
958 518 206 549 
959 183 193 519 
960 105 58 562 
961 378 377 569 
962 288 350 523 
963 348 426 588 
964 190 183 519 
965 154 152 188 
966 505 483 552 
967 73 74 525 
968 248 263 510 
969 129 61 495 
970 347 346 557 
971 456 469 581 
972 471 460 644 
973 291 295 515 
974 266 269 513 
975 364 365 594 
976 58 59 562 
977 464 117 652 
978 139 528 574 
979 348 238 521 
980 385 368 635 
981 528 135 574 
982 74 75 103 
983 282 283 333 
984 41 110 540 
985 356 518 549 
986 236 252 521 
987 370 261 522 
988 426 131 588 
989 115 485 624 
990 295 293 536 
991 267 266 513 
992 363 456 581 
993 39 40 556 
994 2 25 618 
995 24 2 618 
996 137 599 653 
997 473 377 605 
998 33 3 610 
999 238 236 521 
1000 367 329 570 
1001 308 451 586 
1002 113 463 614 
1003 293 296 536 
1004 62 101 495 
1005 43 125 590 
1006 45 109 543 
1007 171 164 529 
1008 489 327 633 
1009 333 546 596 
1010 504 416 647 
1011 285 313 314 
1012 269 272 513 
1013 335 514 651 
1014 537 130 636 
1015 150 148 214 
1016 174 233 531 
1017 146 144 326 
1018 230 551 619 
1019 108 85 559 
1020 601 455 635 
1021 273 276 544 
1022 544 366 617 
1023 193 181 568 
1024 352 561 591 
1025 263 577 587 
1026 276 352 366 
1027 499 376 553 
1028 263 264 577 
1029 296 328 536 
1030 309 331 571 
1031 438 437 587 
1032 383 465 592 
1033 492 418 567 
1034 272 273 544 
1035 360 361 626 
1036 314 315 316 
1037 188 508 584 
1038 138 458 610 
1039 343 341 582 
1040 567 428 589 
1041 206 229 549 
1042 314 316 410 
1043 169 504 647 
1044 316 322 551 
1045 282 333 379 
1046 65 115 501 
1047 178 531 568 
1048 497 70 517 
1049 462 121 579 
1050 467 449 612 
1051 482 396 634 
1052 118 82 576 
1053 379 333 380 
1054 520 335 651 
1055 549 310 573 
1056 102 69 497 
1057 441 616 617 
1058 117 423 613 
1059 546 410 596 
1060 414 413 648 
1061 384 515 609 
1062 552 420 643 
1063 531 498 568 
1064 277 279 561 
1065 507 166 583 
1066 357 343 575 
1067 529 162 542 
1068 324 519 631 
1069 333 283 546 
1070 276 366 544 
1071 502 73 525 
1072 460 123 461 
1073 132 462 623 
1074 162 160 542 
1075 377 367 605 
1076 123 457 461 
1077 123 98 457 
1078 188 547 548 
1079 68 102 511 
1080 60 129 600 
1081 116 72 502 
1082 433 435 650 
1083 429 113 638 
1084 428 479 589 
1085 542 166 545 
1086 500 324 631 
1087 152 150 547 
1088 581 185 630 
1089 76 77 560 
1090 252 523 578 
1091 418 111 557 
1092 111 96 459 
1093 534 106 608 
1094 160 166 542 
1095 23 24 574 
1096 172 169 647 
1097 375 309 571 
1098 396 397 634 
1099 101 476 563 
1100 181 178 568 
1101 504 169 625 
1102 144 142 550 
1103 511 102 516 
1104 356 549 573 
1105 562 59 600 
1106 283 285 546 
1107 115 66 606 
1108 188 152 547 
1109 138 467 612 
1110 535 120 604 
1111 471 230 619 
1112 506 231 651 
1113 148 146 554 
1114 561 379 591 
1115 332 505 552 
1116 350 383 592 
1117 355 490 622 
1118 459 460 558 
1119 166 158 583 
1120 279 282 561 
1121 71 116 517 
1122 42 43 590 
1123 322 347 619 
1124 142 382 550 
1125 532 353 604 
1126 483 194 552 
1127 501 115 624 
1128 231 520 651 
1129 597 500 631 
1130 465 112 592 
1131 193 568 597 
1132 335 334 579 
1133 448 449 611 
1134 527 356 573 
1135 554 326 555 
1136 92 104 466 
1137 103 75 509 
1138 539 433 650 
1139 490 573 622 
1140 59 60 600 
1141 149 151 621 
1142 343 555 575 
1143 331 499 614 
1144 553 113 614 
1145 150 214 547 
1146 5 91 564 
1147 169 167 625 
1148 21 22 585 
1149 74 103 525 
1150 342 357 645 
1151 418 557 567 
1152 285 314 546 
1153 214 148 554 
1154 67 511 606 
1155 154 188 584 
1156 136 432 595 
1157 405 232 601 
1158 314 410 546 
1159 602 534 608 
1160 264 267 577 
1161 591 189 629 
1162 326 144 550 
1163 611 488 641 
1164 282 379 561 
1165 308 586 615 
1166 378 601 635 
1167 533 267 593 
1168 502 365 603 
1169 449 447 612 
1170 146 326 554 
1171 66 67 606 
1172 77 5 119 
1173 262 602 632 
1174 573 310 622 
1175 463 464 642 
1176 525 103 526 
1177 397 399 607 
1178 104 93 492 
1179 462 579 623 
1180 521 252 578 
1181 469 470 581 
1182 354 535 604 
1183 139 574 618 
1184 499 553 614 
1185 373 488 611 
1186 158 156 583 
1187 603 359 620 
1188 593 513 616 
1189 516 361 572 
1190 577 438 587 
1191 122 539 650 
1192 568 498 597 
1193 479 337 640 
1194 555 326 566 
1195 156 154 584 
1196 349 348 588 
1197 365 526 594 
1198 509 76 560 
1199 557 111 558 
1200 435 541 650 
1201 111 459 558 
1202 510 263 587 
1203 347 557 558 
1204 353 354 604 
1205 423 355 613 
1206 25 139 618 
1207 466 104 479 
1208 579 334 623 
1209 566 118 575 
1210 139 484 654 
1211 34 138 610 
1212 327 422 633 
1213 513 272 616 
1214 384 537 636 
1215 137 100 599 
1216 448 611 641 
1217 498 344 597 
1218 477 128 607 
1219 571 464 652 
1220 126 473 605 
1221 109 489 639 
1222 326 550 566 
1223 332 552 643 
1224 360 517 620 
1225 583 156 584 
1226 363 581 630 
1227 575 118 576 
1228 555 566 575 
1229 366 352 629 
1230 368 378 635 
1231 129 495 649 
1232 491 332 643 
1233 586 369 615 
1234 91 466 564 
1235 106 477 608 
1236 538 369 586 
1237 484 391 654 
1238 362 363 630 
1239 633 409 639 
1240 267 513 593 
1241 310 375 622 
1242 380 333 596 
1243 369 370 615 
1244 334 496 623 
1245 113 553 638 
1246 402 471 644 
1247 316 551 627 
1248 495 401 649 
1249 492 567 589 
1250 231 506 641 
1251 488 231 641 
1252 515 295 609 
1253 186 172 647 
1254 511 486 606 
1255 607 128 634 
1256 506 448 641 
1257 477 607 608 
1258 383 384 636 
1259 399 602 608 
1260 528 139 654 
1261 167 171 625 
1262 516 102 626 
1263 399 398 632 
1264 128 482 634 
1265 551 322 619 
1266 406 534 602 
1267 193 597 631 
1268 441 593 616 
1269 557 346 567 
1270 374 342 645 
1271 337 565 640 
1272 519 193 631 
1273 119 564 565 
1274 272 544 616 
1275 571 331 642 
1276 357 575 576 
1277 361 516 626 
1278 543 109 639 
1279 77 119 560 
1280 397 607 634 
1281 598 373 611 
1282 410 316 627 
1283 116 502 603 
1284 625 171 646 
1285 607 399 608 
1286 104 492 589 
1287 517 116 620 
1288 449 598 611 
1289 119 5 564 
1290 102 497 626 
1291 574 24 618 
1292 331 614 642 
1293 479 104 589 
1294 551 392 627 
1295 541 122 650 
1296 409 543 639 
1297 613 375 652 
1298 460 461 644 
1299 614 463 642 
1300 466 479 640 
1301 602 399 632 
1302 118 566 637 
1303 352 591 629 
1304 375 571 652 
1305 116 603 620 
1306 550 382 637 
1307 566 550 637 
1308 464 571 642 
1309 565 564 640 
1310 564 466 640 
1311 117 613 652 
$EndElements
