$MeshFormat
4.1 0 8
$EndMeshFormat
$Entities
7 6 1 0
1 0 0 0 0 
2 4 0 0 0 
3 4 2 0 0 
4 0 2 0 0 
5 0.5 2 0 0 
6 0.8 2 0 0 
7 0.5 1.7 0 0 
1 0 0 0 4 0 0 0 2 1 -2 
2 4 0 0 4 2 0 0 2 2 -3 
3 0.7999999999999998 2 0 4 2 0 0 2 3 -6 
4 0.5 2 0 0.8 2 0 0 2 6 -5 
5 0 2 0 0.5 2 0 0 2 5 -4 
6 0 0 0 0 2 0 0 2 4 -1 
1 0 0 0 4 2 0 0 6 1 2 3 4 5 6 
$EndEntities
$Nodes
14 99 1 99
0 1 0 1
1
0 0 0
0 2 0 1
2
4 0 0
0 3 0 1
3
4 2 0
0 4 0 1
4
0 2 0
0 5 0 1
5
0.5 2 0
0 6 0 1
6
0.8 2 0
0 7 0 1
7
0.5 1.7 0
1 1 0 7
8
9
10
11
12
13
14
0.4999999999990952 0 0
0.9999999999976482 0 0
1.49999999999619 0 0
1.999999999994776 0 0
2.49999999999605 0 0
2.999999999997367 0 0
3.499999999998683 0 0
1 2 0 3
15
16
17
4 0.4999999999988241 0
4 0.999999999997388 0
4 1.499999999998683 0
1 3 0 9
18
19
20
21
22
23
24
25
26
3.533032224039836 2 0
3.106950506505685 2 0
2.718174966394587 2 0
2.363439246250843 2 0
2.039762851835232 2 0
1.744426480413837 2 0
1.474948710230605 2 0
1.22906547836959 2 0
1.004710886325917 2 0
1 4 0 1
27
0.6500000000001736 2 0
1 5 0 2
28
29
0.3333333333337956 2 0
0.1666666666673601 2 0
1 6 0 6
30
31
32
33
34
35
0 1.81353028345889 0
0 1.600982356504528 0
0 1.358709081992032 0
0 1.082553386832501 0
0 0.7677767084668095 0
0 0.4089777689808953 0
2 1 0 64
36
37
38
39
40
41
42
43
44
45
46
47
48
49
50
51
52
53
54
55
56
57
58
59
60
61
62
63
64
65
66
67
68
69
70
71
72
73
74
75
76
77
78
79
80
81
82
83
84
85
86
87
88
89
90
91
92
93
94
95
96
97
98
99
1.114001416548734 1.81145219758913 0
0.2253579047393945 0.9342684130612273 0
1.896458296099345 1.753548102467463 0
2.563911338396281 1.651970804964248 0
1.27233988174204 0.4145673560661055 0
2.23462685569187 0.4229531329745389 0
3.631106143658466 1.284882314014862 0
0.2589772433118602 1.858338095348155 0
0.7293806088988696 1.859950905206666 0
3.257553744239477 0.395189363985186 0
0.1857662113115025 1.47496526257656 0
1.757986746092287 0.4184673925320448 0
1.517825262949406 0.7983735898612985 0
1.092052490558751 0.8074975549909009 0
1.268468118522702 1.174608637570001 0
0.9118603925212334 1.145159130066342 0
1.700877785049315 1.152249039391427 0
1.448956048786775 1.490793198986255 0
0.7172473733753262 0.8740618250722412 0
0.6165045372737334 1.230561216328547 0
0.779140316738671 1.433211615457448 0
1.177666961920567 1.44935136280263 0
0.773651344707486 0.4124548716047826 0
1.958310134250272 0.8071131153144609 0
2.393219538350714 0.8590454972708474 0
2.092720498835277 1.217365276666391 0
2.519189401805474 1.257463818060408 0
2.813168300344999 0.9758355468151005 0
2.931757148177123 1.390299277321587 0
2.761466521444163 0.4888572213115861 0
0.1928888327990983 1.221656664478425 0
0.5352589942624016 1.457779986136216 0
3.2956006835111 1.612313610031271 0
0.2575553768750123 0.6137960760520754 0
1.609687595322221 1.751781373432889 0
2.197919988413305 1.735289083684667 0
0.9023554431629583 1.854302516958498 0
0.7893186707248047 1.684565495497782 0
0.4176519634599478 1.861008148690457 0
1.352007094300098 1.799009199778638 0
3.551281559996434 0.776098150123647 0
1.822831570741429 1.442374245175277 0
0.5748197626554953 1.866398382002602 0
0.1785132710221754 1.707353550949162 0
0.3486939695303657 1.574324001217606 0
3.225768507862798 1.134734317740316 0
2.912562736450136 1.725835332734802 0
0.6481925258691513 1.587486366153397 0
0.9879672835942108 1.594943857787699 0
0.3338128678405327 0.3120545492577145 0
0.4225527703082536 0.8084547939943273 0
2.285337423765078 1.46583948948592 0
0.4214292591613293 1.072872252202711 0
3.680862892439541 1.670005413096999 0
0.3834236340564051 1.338693230490011 0
3.633974596214175 0.3660254037851586 0
3.124661865266456 0.7583812308923852 0
0.650000000000176 1.738737381173255 0
0.3401484079360341 1.739464715847112 0
0.1208314362002791 1.875844385951241 0
1.21847909073684 1.635318387068034 0
2.059053555570887 1.522883239495944 0
0.5065223768095193 0.5769558490428377 0
0.9750410451595175 1.365953508659249 0
$EndNodes
$Elements
14 203 1 203
0 1 15 1
1 1 
0 2 15 1
2 2 
0 3 15 1
3 3 
0 4 15 1
4 4 
0 5 15 1
5 5 
0 6 15 1
6 6 
0 7 15 1
7 7 
1 1 1 8
8 1 8 
9 8 9 
10 9 10 
11 10 11 
12 11 12 
13 12 13 
14 13 14 
15 14 2 
1 2 1 4
16 2 15 
17 15 16 
18 16 17 
19 17 3 
1 3 1 10
20 3 18 
21 18 19 
22 19 20 
23 20 21 
24 21 22 
25 22 23 
26 23 24 
27 24 25 
28 25 26 
29 26 6 
1 4 1 2
30 6 27 
31 27 5 
1 5 1 3
32 5 28 
33 28 29 
34 29 4 
1 6 1 7
35 4 30 
36 30 31 
37 31 32 
38 32 33 
39 33 34 
40 34 35 
41 35 1 
2 1 2 162
42 49 54 58 
43 36 72 84 
44 39 62 64 
45 61 60 62 
46 54 55 88 
47 40 49 58 
48 72 73 84 
49 59 60 61 
50 53 75 96 
51 52 48 59 
52 68 64 81 
53 53 70 75 
54 40 47 48 
55 39 64 82 
56 50 57 99 
57 48 47 59 
58 55 51 56 
59 49 50 51 
60 86 54 88 
61 13 45 65 
62 49 48 50 
63 85 58 98 
64 52 59 61 
65 51 50 99 
66 50 53 57 
67 40 48 49 
68 54 86 98 
69 40 10 47 
70 42 68 81 
71 63 65 92 
72 70 53 77 
73 58 54 98 
74 54 51 55 
75 63 60 65 
76 50 52 53 
77 38 70 77 
78 33 37 66 
79 67 7 80 
80 30 31 79 
81 9 40 58 
82 12 13 65 
83 55 56 67 
84 30 79 95 
85 47 41 59 
86 65 45 92 
87 9 10 40 
88 57 53 96 
89 49 51 54 
90 11 41 47 
91 23 24 70 
92 50 48 52 
93 8 9 58 
94 31 32 46 
95 16 17 42 
96 10 11 47 
97 59 41 60 
98 11 12 41 
99 55 67 90 
100 33 34 37 
101 64 68 82 
102 62 39 87 
103 62 60 63 
104 41 12 65 
105 18 19 68 
106 8 58 85 
107 62 63 64 
108 36 84 96 
109 13 14 45 
110 26 6 72 
111 16 42 76 
112 52 61 77 
113 7 67 83 
114 76 42 81 
115 20 21 39 
116 32 33 66 
117 15 16 76 
118 22 23 38 
119 35 1 85 
120 79 43 95 
121 5 28 74 
122 61 62 87 
123 21 22 71 
124 70 24 75 
125 88 55 90 
126 34 35 69 
127 1 8 85 
128 66 37 88 
129 38 23 70 
130 25 26 36 
131 53 52 77 
132 24 25 75 
133 68 19 82 
134 60 41 65 
135 31 46 79 
136 39 21 71 
137 76 81 92 
138 28 29 43 
139 22 38 71 
140 3 18 89 
141 56 51 99 
142 74 7 78 
143 68 42 89 
144 2 15 91 
145 14 2 91 
146 46 32 66 
147 6 44 72 
148 37 86 88 
149 73 56 84 
150 56 73 83 
151 20 39 82 
152 36 26 72 
153 17 3 89 
154 25 36 75 
155 39 71 87 
156 27 5 78 
157 4 30 95 
158 19 20 82 
159 28 43 74 
160 37 34 69 
161 42 17 89 
162 6 27 44 
163 5 74 78 
164 29 4 95 
165 67 56 83 
166 67 80 90 
167 72 44 73 
168 64 63 81 
169 45 76 92 
170 77 61 97 
171 43 79 94 
172 15 76 91 
173 69 35 85 
174 44 27 78 
175 45 14 91 
176 79 46 80 
177 76 45 91 
178 80 46 90 
179 7 74 94 
180 18 68 89 
181 66 88 90 
182 78 7 93 
183 84 57 96 
184 61 87 97 
185 37 69 86 
186 46 66 90 
187 73 44 93 
188 38 77 97 
189 74 43 94 
190 43 29 95 
191 79 80 94 
192 80 7 94 
193 71 38 97 
194 75 36 96 
195 81 63 92 
196 44 78 93 
197 69 85 98 
198 7 83 93 
199 87 71 97 
200 83 73 93 
201 84 56 99 
202 57 84 99 
203 86 69 98 
$EndElements
