$MeshFormat
4.1 0 8
$EndMeshFormat
$Entities
6 6 1 0
1 0 0 0 0 
2 4 0 0 0 
3 4 2 0 0 
4 0 2 0 0 
5 0.5 2 0 0 
6 0.8 2 0 0 
1 0 0 0 4 0 0 0 2 1 -2 
2 4 0 0 4 2 0 0 2 2 -3 
3 0.7999999999999998 2 0 4 2 0 0 2 3 -6 
4 0.5 2 0 0.8 2 0 0 2 6 -5 
5 0 2 0 0.5 2 0 0 2 5 -4 
6 0 0 0 0 2 0 0 2 4 -1 
1 0 0 0 4 2 0 0 6 1 2 3 4 5 6 
$EndEntities
$Nodes
13 274 1 274
0 1 0 1
1
0 0 0
0 2 0 1
2
4 0 0
0 3 0 1
3
4 2 0
0 4 0 1
4
0 2 0
0 5 0 1
5
0.5 2 0
0 6 0 1
6
0.8 2 0
1 1 0 7
7
8
9
10
11
12
13
0.4999999999990952 0 0
0.9999999999976482 0 0
1.49999999999619 0 0
1.999999999994776 0 0
2.49999999999605 0 0
2.999999999997367 0 0
3.499999999998683 0 0
1 2 0 4
14
15
16
17
4 0.4364749529430081 0
4 0.8538989294129761 0
4 1.253103356509006 0
4 1.634883566886109 0
1 3 0 23
18
19
20
21
22
23
24
25
26
27
28
29
30
31
32
33
34
35
36
37
38
39
40
3.627600981677583 2 0
3.295831152369213 2 0
3.00025783809841 2 0
2.736931950179912 2 0
2.502335228743087 2 0
2.293333377866579 2 0
2.107133822819224 2 0
1.941248910508385 2 0
1.793462250677 2 0
1.661799305965655 2 0
1.544500952550973 2 0
1.440000021476349 2 0
1.34690024270065 2 0
1.263957788809678 2 0
1.190064456108786 2 0
1.124232982900114 2 0
1.065583813382317 2 0
1.013333342080205 2 0
0.9667834547546752 2 0
0.9253122264611928 2 0
0.8883655614615567 2 0
0.8554498263537837 2 0
0.8261252416756726 2 0
1 4 0 11
41
42
43
44
45
46
47
48
49
50
51
0.7749999999999928 2 0
0.7500000000000651 2 0
0.7250000000001735 2 0
0.7000000000001807 2 0
0.6750000000001808 2 0
0.6500000000001736 2 0
0.6250000000001663 2 0
0.6000000000001664 2 0
0.5750000000001084 2 0
0.5500000000000289 2 0
0.5249999999999928 2 0
1 5 0 8
52
53
54
55
56
57
58
59
0.4755233529433065 2 0
0.4462538537498907 2 0
0.4112530055881153 2 0
0.3693985264590407 2 0
0.3193483918240502 2 0
0.2594977790523537 2 0
0.1879276195820581 2 0
0.1023430966637353 2 0
1 6 0 7
60
61
62
63
64
65
66
0 1.873861913450546 0
0 1.723857592780606 0
0 1.5454714351977 0
0 1.333333313456223 0
0 1.081057176678243 0
0 0.7810485403417395 0
0 0.4242761742895278 0
2 1 0 208
67
68
69
70
71
72
73
74
75
76
77
78
79
80
81
82
83
84
85
86
87
88
89
90
91
92
93
94
95
96
97
98
99
100
101
102
103
104
105
106
107
108
109
110
111
112
113
114
115
116
117
118
119
120
121
122
123
124
125
126
127
128
129
130
131
132
133
134
135
136
137
138
139
140
141
142
143
144
145
146
147
148
149
150
151
152
153
154
155
156
157
158
159
160
161
162
163
164
165
166
167
168
169
170
171
172
173
174
175
176
177
178
179
180
181
182
183
184
185
186
187
188
189
190
191
192
193
194
195
196
197
198
199
200
201
202
203
204
205
206
207
208
209
210
211
212
213
214
215
216
217
218
219
220
221
222
223
224
225
226
227
228
229
230
231
232
233
234
235
236
237
238
239
240
241
242
243
244
245
246
247
248
249
250
251
252
253
254
255
256
257
258
259
260
261
262
263
264
265
266
267
268
269
270
271
272
273
274
0.7625000000000385 1.977469044416663 0
0.946047840607934 1.966044056148451 0
0.6138645431138116 1.974338207852789 0
0.4892770601278934 1.974147924616401 0
1.153259730127788 1.938532416437016 0
1.389687276873638 1.911990846724934 0
1.734846306455307 1.887845701839695 0
0.390325766023578 1.966720667074978 0
0.8434665231948262 1.970670639070226 0
0.6875000000001924 1.977520563858601 0
0.1945628742954855 1.199309330619847 0
2.208787012944716 1.832059592468031 0
0.2908153496439931 1.955785467373167 0
2.868594894139161 1.784393185589828 0
1.039458577731261 1.957218189762725 0
1.215575031220955 0.4132692319399189 0
0.5625000000000686 1.978349364905348 0
0.1287779992592146 1.64661619865008 0
2.200839718014089 0.321136472424654 0
3.687448167901917 1.03242688562376 0
0.2494662817306091 0.6456974027145728 0
0.147149677763987 1.934852493809646 0
3.45885535011043 1.72414155298073 0
3.306411107576988 0.4136727482830292 0
0.7834579805428367 0.413695727817072 0
1.027939016715587 0.7583024196158039 0
1.36781427917907 0.7847749711732694 0
1.162969141870241 1.070937047898424 0
1.479377347559674 1.086548456946057 0
1.314649130356021 1.303832184898454 0
1.082068422776579 1.315620541750353 0
1.577149991148617 1.364034303694468 0
1.171263699388854 1.505385698228065 0
0.9569162934940729 1.494088607805304 0
0.8828415855273419 1.333720343870576 0
0.8048812475930982 1.497928730989311 0
0.9260312057329149 1.6313591850405 0
0.7509114243852127 1.635984426684502 0
0.6694034233733703 1.517572954811691 0
0.621718027915367 1.646049081045296 0
0.5354425320542665 1.548084299648816 0
0.493313351010519 1.683957582533187 0
0.6864601560837349 1.741724358975248 0
0.5789731037615727 1.410087746436477 0
1.756513194523902 1.127810341411901 0
1.857714883627813 1.377524801285893 0
2.031324781715004 1.163719875449865 0
0.403852803632318 1.569488513633692 0
2.13811563202139 1.448588201596956 0
2.311959590053579 1.207867720210557 0
2.425076235735927 1.449925030159805 0
2.60815139652808 1.242660404831903 0
0.363454560356252 1.691257781903745 0
0.4277651350475561 1.782740203652762 0
0.3324354369519754 1.794781675871461 0
1.711762840963015 1.588919759855664 0
0.58846667180242 1.755945161785872 0
0.6450894670219861 1.830218629026526 0
0.728576639677614 1.820801290241888 0
0.5760013300271437 1.824925331024347 0
0.7012279429187762 1.888437501144597 0
0.7680216349321746 1.885456925396443 0
0.801314996649242 1.822348223696153 0
0.6399839446762274 1.894437061357639 0
0.8339933370735485 1.889826631497746 0
0.8717415895729252 1.825844444250341 0
2.497611386587097 0.9656598070026214 0
2.816583513303769 1.002422281053847 0
2.916729359985617 1.296269365166107 0
1.588299622307411 0.4846272611028733 0
1.919859127434076 0.936823238908351 0
1.389183586680673 1.514603134347381 0
1.270867297150153 1.656791565609466 0
1.442726324913227 1.687300281432666 0
1.116796197390506 1.664524596928057 0
1.18319774184248 1.78630391990451 0
1.039426150329953 1.777225005184639 0
2.692624438778017 0.6857388952181582 0
0.9039917077760034 1.887668664134264 0
0.3974783698621432 1.870886863948086 0
3.137632584652375 1.074513110315912 0
0.7979042720384282 1.928229384539311 0
0.8380551761513728 1.768465744547875 0
0.9197208513491076 1.741362890292073 0
0.155023471716503 1.776452187506511 0
1.324105913893228 1.810916532724858 0
0.7370004469075019 1.921179176482518 0
0.4754798671597702 1.859546009374845 0
0.453159512875506 1.913224317254778 0
0.5073342180017265 1.916869197225554 0
0.2127166295142423 1.404349247474197 0
1.926513610517334 1.604503421566567 0
0.3928499567512969 1.324360476366718 0
0.414539219172078 1.100497768892389 0
3.247206924513636 1.429080440541377 0
0.6719255161455374 1.929270542181552 0
0.8787404451753568 1.013148375701769 0
0.720621965056088 0.7856179244577568 0
0.2489592719863998 1.720576658674349 0
1.242652659661108 1.870452204970177 0
0.4285259248656349 1.972512744435752 0
0.2562994412918019 1.57396699392351 0
2.619633589461499 1.780366115795619 0
1.107928007240899 1.859514357766935 0
1.014546660778192 1.864038861599776 0
3.678661550506155 0.6487012866018753 0
3.671460763309589 1.423452454373258 0
1.997446312700101 1.824212748275681 0
1.603150129258313 1.890183059640652 0
1.66732269596357 1.771734917971739 0
0.3228913175550353 1.87285692547298 0
0.2534027453601462 1.824630450097374 0
0.629585122538619 1.939647963281892 0
0.591470322727956 1.911317576487925 0
0.2257465526895572 1.946207992819328 0
3.148044495233813 1.761748063886896 0
0.3466310552570827 1.962396966601538 0
1.817541224532003 1.761623098080855 0
2.406768405869931 1.816117716693299 0
0.8716131872244087 1.935061335783098 0
1.492250487013663 1.915765213591966 0
1.439321733950072 1.821916342012416 0
2.699393160826626 1.528767686893887 0
2.115097375243742 1.667769990469394 0
0.9059215744996736 1.966556075393529 0
1.093520365477732 1.947462533969718 0
1.302175691764225 1.927317081270556 0
1.006563553122461 1.680026681330319 0
0.208529974718488 0.9344238081673173 0
0.9900934068072115 1.960402784879232 0
0.9619022405090771 1.908354159668902 0
0.5118525520076174 1.794026190708693 0
0.4608210393563004 1.975219814437327 0
0.4772895446651718 1.943778193791727 0
3.038847329699251 0.7317891728349554 0
0.8729633345468498 1.974457610049371 0
0.8081977367213742 1.967972844724944 0
0.7841395473442775 1.979372672786002 0
0.7375000000001137 1.978126154024515 0
0.6625000000001798 1.977922012778204 0
0.4552550436865507 0.8564040691665371 0
0.7125000000001764 1.977279540968214 0
0.6982753997019713 1.952337790778631 0
0.5883463767868131 1.975846454971864 0
0.5741146602061931 1.948228634361224 0
0.5412124000973306 1.95210133058834 0
0.6384916109421865 1.974488625579873 0
0.6417026417019587 1.029576961310777 0
0.5382424800194835 1.981820443672355 0
0.5124999999999966 1.978651522868086 0
0.3709421079706094 1.922284166388772 0
1.059219920265077 1.903073504632089 0
0.721986744733397 1.36276457756769 0
1.676297072644496 0.8307054994962748 0
2.202004107494276 0.951641571835009 0
3.375917660266745 0.8437465651924099 0
0.9438515906031706 1.82961533445813 0
1.856909000974559 1.894736309639246 0
1.222673395801093 1.938040551537227 0
0.5879242828525931 1.235856852339377 0
0.777858953766824 1.190243264488186 0
0.7787835792250847 1.954954862770393 0
1.547838667056606 1.783608835587653 0
2.975993766939771 1.560051748415619 0
1.968722000456807 0.6425915187386524 0
2.881927096239139 0.3568445573643853 0
0.3458771844155082 0.3496510711265469 0
0.1919973717918103 1.873941737577771 0
0.4459676036489402 1.464318657987473 0
2.315131831770114 1.648361754251512 0
0.77231413920957 1.744119336996725 0
3.741667646990617 1.743870183258505 0
0.549946641045524 1.921162902773117 0
0.5420675669258241 1.872715089412078 0
0.06892859661300521 1.931928087293026 0
1.541440577409152 1.562267165922993 0
0.3307694510873248 1.468411296721792 0
0.8310350112505172 1.938352167123065 0
0.5109356910863185 0.6102132390564972 0
3.697014531616365 0.2997697975655825 0
0.2658321837930656 1.900541409425136 0
3.415397057419431 1.161002566941058 0
2.354527789876308 0.6594552974880695 0
0.09384985298088425 1.852482335403018 0
0.6015517214168427 1.950431533592447 0
1.173519504355438 1.879890695421405 0
0.653928892803865 1.955430694470444 0
1.013044161218164 1.918617500108545 0
0.7238448384928927 1.950977945571483 0
0.7515981306453243 1.950449725253389 0
0.6750000000001931 1.956638578338884 0
0.5069504897656424 1.951566864773482 0
0.5993711568138708 1.867181069066009 0
0.4137077463624374 1.940053066024704 0
0.8387664181530218 1.685058457175512 0
1.035514189825762 1.595076953866449 0
2.525983808580721 0.4046350444990534 0
0.7666616127497027 1.928054014888411 0
0.9178953101234193 1.932736858225649 0
1.582218221261114 1.678766192154143 0
0.4476929922363632 1.949901014149938 0
1.851572268153855 0.289671050453236 0
2.501389394433594 1.635918837644632 0
0.1195588140130517 1.500747437740342 0
0.3227678525458813 1.922407261192146 0
0.8408389803459282 1.588969731964678 0
0.9575472781912984 1.189663356710817 0
0.7064548288333359 1.928440591231757 0
$EndNodes
$Elements
13 552 1 552
0 1 15 1
1 1 
0 2 15 1
2 2 
0 3 15 1
3 3 
0 4 15 1
4 4 
0 5 15 1
5 5 
0 6 15 1
6 6 
1 1 1 8
7 1 7 
8 7 8 
9 8 9 
10 9 10 
11 10 11 
12 11 12 
13 12 13 
14 13 2 
1 2 1 5
15 2 14 
16 14 15 
17 15 16 
18 16 17 
19 17 3 
1 3 1 24
20 3 18 
21 18 19 
22 19 20 
23 20 21 
24 21 22 
25 22 23 
26 23 24 
27 24 25 
28 25 26 
29 26 27 
30 27 28 
31 28 29 
32 29 30 
33 30 31 
34 31 32 
35 32 33 
36 33 34 
37 34 35 
38 35 36 
39 36 37 
40 37 38 
41 38 39 
42 39 40 
43 40 6 
1 4 1 12
44 6 41 
45 41 42 
46 42 43 
47 43 44 
48 44 45 
49 45 46 
50 46 47 
51 47 48 
52 48 49 
53 49 50 
54 50 51 
55 51 5 
1 5 1 9
56 5 52 
57 52 53 
58 53 54 
59 54 55 
60 55 56 
61 56 57 
62 57 58 
63 58 59 
64 59 4 
1 6 1 8
65 4 60 
66 60 61 
67 61 62 
68 62 63 
69 63 64 
70 64 65 
71 65 66 
72 66 1 
2 1 2 480
73 152 72 193 
74 108 123 198 
75 150 143 223 
76 158 174 184 
77 124 125 127 
78 123 109 124 
79 61 151 250 
80 143 171 223 
81 97 96 99 
82 141 139 142 
83 155 156 200 
84 60 61 250 
85 89 161 173 
86 203 204 228 
87 121 120 146 
88 146 154 155 
89 170 71 192 
90 97 99 100 
91 106 104 109 
92 124 127 130 
93 141 142 143 
94 100 103 272 
95 108 106 123 
96 161 89 182 
97 146 120 154 
98 92 93 94 
99 123 124 126 
100 119 108 120 
101 91 82 92 
102 94 96 97 
103 99 139 141 
104 99 138 139 
105 139 140 152 
106 130 127 162 
107 106 109 123 
108 127 128 153 
109 94 95 96 
110 124 109 125 
111 96 98 138 
112 176 122 184 
113 155 154 156 
114 61 84 151 
115 120 108 198 
116 197 145 223 
117 126 124 259 
118 122 158 184 
119 127 125 128 
120 233 91 245 
121 221 137 231 
122 143 142 170 
123 119 120 121 
124 128 131 148 
125 152 140 188 
126 138 98 242 
127 69 179 213 
128 128 148 264 
129 92 82 93 
130 184 174 224 
131 102 100 272 
132 166 152 193 
133 170 192 218 
134 91 92 164 
135 98 112 122 
136 109 104 237 
137 142 139 152 
138 110 159 226 
139 148 131 244 
140 94 93 95 
141 100 99 262 
142 8 82 91 
143 99 96 138 
144 127 153 274 
145 221 231 249 
146 151 84 165 
147 61 62 84 
148 171 197 223 
149 92 94 163 
150 150 149 261 
151 139 138 140 
152 159 110 235 
153 63 77 157 
154 180 239 240 
155 174 158 190 
156 75 186 202 
157 72 152 188 
158 96 95 98 
159 146 155 260 
160 142 152 166 
161 82 9 136 
162 143 170 171 
163 105 104 106 
164 80 169 189 
165 122 112 158 
166 143 150 194 
167 101 100 102 
168 159 160 226 
169 154 198 240 
170 161 182 230 
171 112 115 158 
172 8 9 82 
173 173 161 248 
174 131 186 244 
175 148 203 228 
176 198 126 240 
177 63 64 77 
178 21 22 169 
179 186 75 244 
180 171 170 218 
181 7 91 233 
182 10 11 85 
183 7 8 91 
184 103 150 261 
185 151 165 178 
186 121 146 177 
187 180 240 259 
188 98 122 242 
189 80 189 230 
190 24 25 174 
191 16 17 173 
192 107 106 108 
193 157 77 159 
194 12 13 90 
195 27 28 175 
196 71 170 252 
197 63 157 270 
198 62 63 270 
199 190 115 236 
200 99 141 262 
201 114 108 119 
202 191 186 265 
203 15 16 86 
204 217 146 260 
205 186 191 202 
206 179 69 251 
207 158 115 190 
208 86 16 173 
209 15 86 172 
210 151 178 234 
211 65 66 87 
212 77 64 195 
213 128 129 131 
214 97 100 101 
215 65 87 195 
216 18 19 89 
217 131 145 186 
218 137 220 231 
219 98 111 112 
220 90 172 222 
221 102 104 105 
222 220 136 231 
223 177 146 217 
224 160 77 195 
225 150 103 194 
226 14 15 172 
227 115 117 236 
228 131 132 145 
229 112 113 115 
230 89 19 182 
231 19 20 182 
232 115 116 117 
233 212 215 216 
234 130 162 179 
235 135 147 161 
236 169 22 185 
237 37 38 191 
238 20 21 80 
239 123 126 198 
240 103 100 262 
241 118 134 135 
242 104 102 272 
243 141 143 194 
244 3 18 238 
245 237 104 261 
246 195 87 207 
247 58 59 88 
248 56 57 79 
249 201 90 222 
250 58 88 181 
251 118 135 189 
252 156 212 258 
253 93 136 220 
254 212 156 239 
255 11 12 232 
256 64 65 195 
257 93 82 136 
258 136 9 268 
259 80 21 169 
260 94 97 273 
261 91 164 245 
262 165 84 168 
263 213 179 253 
264 54 55 74 
265 87 233 245 
266 56 79 183 
267 160 207 214 
268 122 176 266 
269 23 24 78 
270 4 60 241 
271 11 232 263 
272 163 94 273 
273 26 27 73 
274 22 23 185 
275 119 165 168 
276 70 199 200 
277 89 173 238 
278 20 80 182 
279 105 106 107 
280 66 1 233 
281 157 159 243 
282 174 25 224 
283 29 30 72 
284 173 17 238 
285 135 134 147 
286 57 58 181 
287 175 187 229 
288 98 95 111 
289 153 128 264 
290 114 119 168 
291 175 28 187 
292 172 90 246 
293 119 121 165 
294 160 214 226 
295 30 31 193 
296 92 163 164 
297 164 163 214 
298 1 7 233 
299 187 188 229 
300 53 54 167 
301 128 125 129 
302 28 29 187 
303 55 56 183 
304 117 116 118 
305 102 105 219 
306 124 130 259 
307 59 4 241 
308 156 154 240 
309 115 113 116 
310 32 33 71 
311 117 118 189 
312 86 173 248 
313 216 70 258 
314 70 200 258 
315 78 24 174 
316 107 108 114 
317 112 111 113 
318 177 217 271 
319 157 168 270 
320 40 6 203 
321 13 2 246 
322 90 13 246 
323 10 85 268 
324 17 3 238 
325 203 148 244 
326 73 27 175 
327 165 121 178 
328 33 34 192 
329 34 35 81 
330 154 120 198 
331 135 161 230 
332 85 11 263 
333 168 84 270 
334 2 14 246 
335 145 197 265 
336 31 32 225 
337 189 135 230 
338 185 78 236 
339 78 190 236 
340 142 166 252 
341 186 145 265 
342 23 78 185 
343 160 195 207 
344 131 129 132 
345 159 77 160 
346 52 53 199 
347 130 179 180 
348 78 174 190 
349 118 133 134 
350 35 36 196 
351 151 234 250 
352 180 179 251 
353 12 90 232 
354 25 26 224 
355 36 37 68 
356 172 86 222 
357 147 201 222 
358 41 42 67 
359 147 134 201 
360 105 110 219 
361 44 45 76 
362 43 44 208 
363 42 43 205 
364 45 46 206 
365 118 116 133 
366 46 47 213 
367 47 48 69 
368 168 157 243 
369 54 74 167 
370 38 39 202 
371 48 49 210 
372 170 142 252 
373 231 85 249 
374 29 72 187 
375 49 50 83 
376 72 30 193 
377 212 216 258 
378 134 133 144 
379 179 162 253 
380 51 5 216 
381 50 51 215 
382 188 140 229 
383 145 132 223 
384 194 103 262 
385 211 180 251 
386 39 40 75 
387 239 156 240 
388 6 41 204 
389 201 144 232 
390 121 177 178 
391 95 93 220 
392 26 73 224 
393 101 102 219 
394 193 31 225 
395 5 52 70 
396 113 111 137 
397 149 237 261 
398 162 127 274 
399 71 33 192 
400 207 164 214 
401 134 144 201 
402 9 10 268 
403 85 231 268 
404 125 109 237 
405 32 71 225 
406 187 72 188 
407 181 88 234 
408 189 169 269 
409 73 175 176 
410 182 80 230 
411 225 71 252 
412 73 176 184 
413 90 201 232 
414 129 125 237 
415 191 38 202 
416 53 167 199 
417 79 57 181 
418 132 149 150 
419 87 66 233 
420 105 107 110 
421 34 81 192 
422 211 83 212 
423 197 171 254 
424 74 55 183 
425 178 177 247 
426 132 129 149 
427 18 89 238 
428 84 62 270 
429 140 138 242 
430 68 37 191 
431 81 35 196 
432 240 126 259 
433 111 95 220 
434 73 184 224 
435 116 113 221 
436 192 81 218 
437 219 110 226 
438 228 256 264 
439 214 163 227 
440 14 172 246 
441 67 42 205 
442 74 183 217 
443 117 189 269 
444 133 116 221 
445 44 76 208 
446 88 59 241 
447 161 147 248 
448 205 43 208 
449 76 45 206 
450 36 68 196 
451 169 185 269 
452 132 150 223 
453 206 46 213 
454 212 83 215 
455 70 52 199 
456 47 69 213 
457 203 6 204 
458 196 68 197 
459 69 210 251 
460 69 48 210 
461 41 67 204 
462 149 129 237 
463 49 83 210 
464 144 133 249 
465 183 79 271 
466 255 209 274 
467 137 111 220 
468 83 50 215 
469 166 193 225 
470 234 88 250 
471 113 137 221 
472 176 175 229 
473 75 40 203 
474 208 76 209 
475 215 51 216 
476 144 249 263 
477 114 168 243 
478 5 70 216 
479 180 211 239 
480 256 153 264 
481 107 114 235 
482 229 140 266 
483 210 83 211 
484 204 67 228 
485 39 75 202 
486 219 226 227 
487 185 236 269 
488 147 222 248 
489 101 219 227 
490 79 247 271 
491 210 211 251 
492 153 255 274 
493 241 60 250 
494 207 87 245 
495 159 235 243 
496 74 217 260 
497 200 199 267 
498 222 86 248 
499 141 194 262 
500 211 212 239 
501 209 162 274 
502 110 107 235 
503 218 81 254 
504 166 225 252 
505 130 180 259 
506 234 178 247 
507 181 234 247 
508 235 114 243 
509 97 101 273 
510 164 207 245 
511 133 221 249 
512 167 74 260 
513 249 85 263 
514 88 241 250 
515 140 242 266 
516 79 181 247 
517 232 144 263 
518 171 218 254 
519 206 213 253 
520 75 203 244 
521 101 227 273 
522 197 68 265 
523 217 183 271 
524 162 209 257 
525 200 156 258 
526 226 214 227 
527 247 177 271 
528 205 208 255 
529 81 196 254 
530 196 197 254 
531 68 191 265 
532 208 209 255 
533 209 76 257 
534 76 206 257 
535 231 136 268 
536 67 205 256 
537 199 167 267 
538 228 67 256 
539 167 260 267 
540 176 229 266 
541 253 162 257 
542 255 153 256 
543 206 253 257 
544 236 117 269 
545 205 255 256 
546 242 122 266 
547 227 163 273 
548 155 200 267 
549 148 228 264 
550 261 104 272 
551 260 155 267 
552 103 261 272 
$EndElements
