$MeshFormat
4.1 0 8
$EndMeshFormat
$Entities
4 4 1 0
1 0 0 0 0 
2 4 0 0 0 
3 4 2 0 0 
4 0 2 0 0 
1 0 0 0 4 0 0 0 2 1 -2 
2 4 0 0 4 2 0 0 2 2 -3 
3 0 2 0 4 2 0 0 2 3 -4 
4 0 0 0 0 2 0 0 2 4 -1 
1 0 0 0 4 2 0 0 4 1 2 3 4 
$EndEntities
$Nodes
9 375 1 375
0 1 0 1
1
0 0 0
0 2 0 1
2
4 0 0
0 3 0 1
3
4 2 0
0 4 0 1
4
0 2 0
1 1 0 13
5
6
7
8
9
10
11
12
13
14
15
16
17
0.2857142857137174 0 0
0.5714285714274663 0 0
0.8571428571409179 0 0
1.142857142854369 0 0
1.428571428567821 0 0
1.714285714281272 0 0
1.999999999994767 0 0
2.285714285709762 0 0
2.5714285714248 0 0
2.85714285713984 0 0
3.14285714285488 0 0
3.42857142856992 0 0
3.71428571428496 0 0
1 2 0 6
18
19
20
21
22
23
4 0.2857142857137331 0
4 0.5714285714271847 0
4 0.8571428571406362 0
4 1.142857142854881 0
4 1.42857142856992 0
4 1.71428571428496 0
1 3 0 36
24
25
26
27
28
29
30
31
32
33
34
35
36
37
38
39
40
41
42
43
44
45
46
47
48
49
50
51
52
53
54
55
56
57
58
59
3.713108083245626 2 0
3.445146750124275 2 0
3.194866903017388 2 0
2.961101780518431 2 0
2.742761713573006 2 0
2.538828824689066 2 0
2.348352490471455 2 0
2.170444770443069 2 0
2.004276269004487 2 0
1.849072448732287 2 0
1.704109775532807 2 0
1.568712500732203 2 0
1.442249425022505 2 0
1.324131030505253 2 0
1.213806695927738 2 0
1.110762133528384 2 0
1.014516985557991 2 0
0.9246225866987392 2 0
0.8406598623335424 2 0
0.7622374415512914 2 0
0.6889897379490426 2 0
0.6205752957918551 2 0
0.5566751906566387 2 0
0.4969915464241339 2 0
0.4412461335824944 2 0
0.3891790836145583 2 0
0.3405476924386193 2 0
0.2951252512989728 2 0
0.2527000111056505 2 0
0.2130742099076453 2 0
0.1760631221082454 2 0
0.1414942152088394 2 0
0.1092063462654198 2 0
0.07904899544330224 2 0
0.05088157989977526 2 0
0.02457279832456249 2 0
1 4 0 18
60
61
62
63
64
65
66
67
68
69
70
71
72
73
74
75
76
77
0 1.975274160856445 0
0 1.947032961450284 0
0 1.914776608497964 0
0 1.877934260299218 0
0 1.83585389667585 0
0 1.787790821740522 0
0 1.732894450334916 0
0 1.670193259425071 0
0 1.59857761840006 0
0 1.516780129310874 0
0 1.42335320535929 0
0 1.316643434864874 0
0 1.194762342231421 0
0 1.055552990977547 0
0 0.8965517618712822 0
0 0.7149447483717621 0
0 0.5075180153474617 0
0 0.2706006824060798 0
2 1 0 298
78
79
80
81
82
83
84
85
86
87
88
89
90
91
92
93
94
95
96
97
98
99
100
101
102
103
104
105
106
107
108
109
110
111
112
113
114
115
116
117
118
119
120
121
122
123
124
125
126
127
128
129
130
131
132
133
134
135
136
137
138
139
140
141
142
143
144
145
146
147
148
149
150
151
152
153
154
155
156
157
158
159
160
161
162
163
164
165
166
167
168
169
170
171
172
173
174
175
176
177
178
179
180
181
182
183
184
185
186
187
188
189
190
191
192
193
194
195
196
197
198
199
200
201
202
203
204
205
206
207
208
209
210
211
212
213
214
215
216
217
218
219
220
221
222
223
224
225
226
227
228
229
230
231
232
233
234
235
236
237
238
239
240
241
242
243
244
245
246
247
248
249
250
251
252
253
254
255
256
257
258
259
260
261
262
263
264
265
266
267
268
269
270
271
272
273
274
275
276
277
278
279
280
281
282
283
284
285
286
287
288
289
290
291
292
293
294
295
296
297
298
299
300
301
302
303
304
305
306
307
308
309
310
311
312
313
314
315
316
317
318
319
320
321
322
323
324
325
326
327
328
329
330
331
332
333
334
335
336
337
338
339
340
341
342
343
344
345
346
347
348
349
350
351
352
353
354
355
356
357
358
359
360
361
362
363
364
365
366
367
368
369
370
371
372
373
374
375
0.9779349293082876 1.93367818475856 0
0.6591492681538589 1.940397228133103 0
0.1291289691345904 0.9760523764244147 0
0.411319716711306 1.957577568915377 0
0.07546309018200839 1.471149162638288 0
1.267982135468794 1.910079085612996 0
1.643968540743359 1.891186974712296 0
2.090437826171847 1.844374822735171 0
0.2333495522170034 1.967327114402149 0
0.04936266089838518 1.705810985423188 0
2.639215263205875 1.821812311604778 0
1.295994806988461 0.25948650209118 0
2.170468226914953 0.2467788851979588 0
0.1266266077066406 1.967208088580162 0
2.986462476834889 0.2357052390002558 0
0.03310346265774995 1.859069574457572 0
0.1669138499325599 0.6130104961341175 0
0.09979404155400162 1.257200870761233 0
3.07913671433095 1.814248960778407 0
3.761913666469984 1.024478288988941 0
0.3245418527118524 1.952351644564891 0
0.5317050639173857 1.946983691256225 0
0.801448651942417 1.934324909643939 0
0.06365313933534789 1.977793897542633 0
0.7316346788724734 0.2443979505759806 0
3.583273159537896 1.791934387615228 0
0.02713289718222996 1.934091916139232 0
3.580053488842592 0.2350866865342048 0
0.06988420649235123 1.561163042025322 0
0.1504824319894932 1.525705814947555 0
0.1658611291627073 1.429496716634113 0
0.2353181266354232 1.48826609826105 0
0.2235908749861102 1.582273709794769 0
0.3085621890213668 1.548632440443008 0
0.3278795376845157 1.450456243809433 0
0.4072241392414492 1.5155043515695 0
0.4269800177680454 1.410419742829129 0
0.5118800477320933 1.481110764859715 0
0.5349127472940265 1.366159906513446 0
0.6268683828901456 1.443454039370419 0
0.6511560280222253 1.319977993984854 0
0.7500480690255099 1.402569050696134 0
0.7775587371381003 1.268268734814628 0
0.8846994451540555 1.359193572198412 0
0.9129611611296649 1.215161261975812 0
1.033052916108354 1.313087532211935 0
0.8050534588193609 1.122538756080182 0
1.060461151153398 1.15539979934632 0
1.188212844328963 1.261809462344055 0
1.218393698734825 1.091851117372413 0
1.358916224256552 1.20913781928818 0
1.388902648971913 1.024318324249996 0
1.539147669265015 1.149632066598614 0
0.2903669454067809 1.638864115600752 0
1.571098573348156 0.9514824169863841 0
1.723184913282082 1.081569790167509 0
0.4845217519037409 1.599377474283959 0
1.082793133738662 0.9945890703684734 0
0.9976027246466082 1.455440731378316 0
0.5576804751743347 1.239572786275639 0
0.7250269655170611 1.532615221511872 0
1.308070711575421 1.37413143457006 0
1.689331574352582 1.279171591228682 0
1.874280853746145 1.214453301173682 0
1.918206464540906 1.010596975318232 0
2.076441235084612 1.152453779255936 0
2.123356382825835 0.9393415481408437 0
2.29304863392248 1.088649662169697 0
2.340485263255679 0.8632944082712571 0
2.516319450887049 1.020223773687781 0
2.215087756392627 1.294553377788387 0
1.831980038760883 1.407626941913249 0
2.566521362227506 0.7842259383914441 0
2.746922541632449 0.9476351293767062 0
2.698794055896301 1.188400557431704 0
2.929794282660686 1.117409511077371 0
2.983967227489329 0.8714619337128823 0
1.95888735644808 0.7833149753027782 0
0.3471911560164616 1.341290899956547 0
1.412782053187901 0.8237036918571251 0
1.657900169041715 1.467903433026673 0
0.2132704308869577 1.669109195632089 0
0.2727728382488522 1.720342036111445 0
0.2060421980947867 1.746645412872677 0
0.2593323081274172 1.793297912323029 0
0.3249359967208993 1.773689850682467 0
0.1995462015220269 1.814563748602216 0
1.793966808999333 1.587320217344451 0
1.967722865618898 1.536095252038718 0
0.2417199810330946 1.855791952060811 0
0.1889344456603032 1.872810116936986 0
0.1477857887254321 1.838895616692596 0
3.180897990433745 1.046075905599615 0
3.242828613575711 0.7964589897692491 0
3.113188511789065 1.290492214829603 0
0.1433228952376225 1.897092323731928 0
3.353777526803095 1.22007883562892 0
1.604546300055949 0.7430315716895015 0
2.389226861796561 0.6250240056773182 0
2.616482258829971 0.5389100969370821 0
3.288561693423186 1.4590670602747 0
3.530520801652011 1.383592644660417 0
1.625129591419663 1.645383182278028 0
0.1872474617710599 1.920747910789942 0
1.451520372987144 0.6071246340890526 0
1.642079755255172 0.5200865870544675 0
1.225026502174953 0.6775520142003107 0
0.1015164773447864 1.862395516438997 0
0.1065950954904511 1.811309918434334 0
0.09971610049015714 1.909126448075124 0
1.50068090743527 1.538865496386872 0
1.466259240353023 1.691203950688012 0
1.35756672515343 1.604120491770462 0
0.1520253575973255 1.707291575925169 0
1.336291926477797 1.737363836109169 0
1.231601682115525 1.651533463393282 0
3.04534537421959 0.6324092413056672 0
3.287101652937018 0.5375228577550365 0
3.47718901911441 0.7149794541604946 0
1.428929649537326 1.819092119500413 0
1.938578105401773 1.708587913688392 0
2.107000041502626 1.654074407721448 0
2.265185921176594 1.757333548381063 0
2.271319016265034 1.586048891642952 0
2.448291306303918 1.6932947656043 0
2.463509237036336 1.505956140841214 0
1.753817884858375 1.754808166886049 0
0.2262440430201479 1.904363967225677 0
0.2745459233872427 1.894408770487073 0
0.3001208415702025 1.842001912436964 0
0.3665234270369442 1.829514166637097 0
0.3949516620422705 1.762174660332404 0
0.435907011629803 1.822552996690133 0
0.4700418159684137 1.754671642903389 0
0.5144469123924568 1.82843159688879 0
0.5496930548201143 1.745176874293891 0
0.5968124885639912 1.8106474642006 0
0.6337980682699017 1.732848022859329 0
0.6895198598386498 1.812420440106173 0
0.7260948817826678 1.721223827892429 0
0.7862606159687395 1.793203759628744 0
0.8225329291906853 1.706219750200167 0
0.880836657917061 1.781947846930935 0
0.9263416080468436 1.691448761812173 0
0.9892053112485285 1.776536517774703 0
0.3325860230023518 1.893354835275921 0
1.036457552911091 1.678190690263375 0
1.101157083499945 1.78225671116606 0
0.8553639767806545 1.604893707416133 0
0.4241086241451919 1.691291748713697 0
0.3996456761335737 1.88366049123967 0
0.4670236514977766 1.885330220401198 0
2.415892942257442 0.3870553393606159 0
0.137334359191754 1.622587466753784 0
0.5771677530832539 1.660502195635094 0
3.047830127447487 1.527571853518198 0
1.584394275260791 0.2554993128782553 0
2.675008019208332 0.2540118746622386 0
1.001389589543046 0.240046210664694 0
0.8637921996460198 0.4660758866351635 0
0.6146952570187522 0.4772163860658256 0
0.7408045338503261 0.6680737107875576 0
0.5174288027291279 0.6874203990286026 0
0.6332666164534992 0.8484474978485488 0
0.4416818315301669 0.8714874022452939 0
0.8419341070037053 0.845642918069765 0
0.5321009906059053 1.000783589544329 0
0.3723873919136688 1.028424837677883 0
0.4197294455867315 0.2635079238923563 0
0.04458274804541452 1.760342636037721 0
0.02195037396279975 1.962383619796874 0
1.491664489888355 1.356830506551967 0
1.879173967582468 0.2358638591312489 0
1.998149928148173 0.4998337863330641 0
1.108958848958488 0.4608570402988777 0
0.9700500180550173 0.6595914803857263 0
0.1907354555500909 0.3947778411987752 0
0.3690869408734497 0.5291984345038721 0
0.5621770448525496 1.880113990522404 0
0.3781826113473182 1.611839376212177 0
2.878519590311767 1.359286211532796 0
2.814012899456531 1.604223206127809 0
0.145484087025437 0.8073536447108134 0
0.1081946087662051 1.128817105067901 0
0.2243481901663946 1.197640071716549 0
0.1243779281684611 1.932781408104654 0
0.09668898459909028 1.944302247637249 0
0.06235579802142616 1.926486230389099 0
0.06568088176989073 1.882315343281706 0
0.05913530679714897 1.638525823872396 0
1.145980579119579 1.413574331624999 0
0.03621100519042304 1.812204941500864 0
0.03137883993854946 1.899112322177465 0
3.323850644212794 1.811243898266266 0
1.147777130517399 1.902143181327058 0
1.218638473197935 1.792483419564853 0
2.451058075327735 1.281956358615512 0
3.29168317578023 0.2659493787848975 0
1.107697430887965 1.570735723143443 0
2.858875243183673 1.820376446701316 0
0.3148194742105979 0.7365468389370216 0
0.1915018803570678 1.962934326506155 0
0.1957191796478604 1.320210537882756 0
2.016065534767486 1.3477990351736 0
2.656928320103369 1.430564249541819 0
1.051276851492682 1.867948824073819 0
3.741728423051433 1.569734042326627 0
0.1519167743974797 1.779595485052804 0
0.1587496351736707 1.973571363740383 0
0.8841408174601942 1.931170479612415 0
0.2752343413909056 1.964283149209014 0
0.3670061526225558 1.965384609509811 0
0.4712852954115664 1.943696192388612 0
0.594071354960459 1.940155204913128 0
0.727992345505221 1.937927717782276 0
0.09826279066305096 1.754570863000295 0
0.08947290675776294 1.369675654690092 0
3.744564408049351 0.7183943759614601 0
0.5990725655998845 1.561441302102255 0
3.485549202018591 0.9864283937685091 0
1.909141917569696 1.86701051986216 0
0.344995544203335 1.70089997400673 0
0.2700558665326448 0.9152121764054579 0
2.799269921306281 0.7066468756616696 0
3.772673170484384 0.4169601435281294 0
3.76545888941007 1.288796828852161 0
2.171510317117155 0.6962255530100908 0
1.761765486942315 0.872569793510849 0
0.8554371590341767 1.490591254831559 0
0.6341462663904666 1.873436319567036 0
2.860992916509277 0.4613521053255556 0
1.77332754167166 1.898160704204697 0
1.235163900349671 0.9021211712879327 0
0.2362599590239343 1.060703911240307 0
0.678525748784816 1.179683523169329 0
2.609947378929783 1.616844166998513 0
0.7600590818456745 1.638556084950545 0
0.9407459874782862 1.069319959803749 0
1.57059764496485 1.786148013723364 0
0.03772718911216888 1.979987807488127 0
0.04741321410741667 1.955807479887115 0
0.8389215955951352 1.861714314604202 0
0.9631500753845563 1.581883478140833 0
0.447711525904945 1.283912705530648 0
0.3539404489935803 1.217433965975554 0
0.09199885362271364 1.974601179875723 0
0.6702032193497406 1.641197775825254 0
0.06884267439847355 1.836612557400773 0
0.5006947196430233 1.684544374087299 0
0.7591834976173408 1.870196923938156 0
1.256420217023975 1.515511191544489 0
2.429792059861094 1.862415237115979 0
2.147663579226115 1.476449217822526 0
2.22410587809506 0.4790134308559604 0
0.7008362446306713 1.003308458319107 0
0.4508291268830814 1.14537161510194 0
1.796425981419695 0.6417918067853651 0
3.525544152534664 0.4814821494540371 0
1.051388100170775 0.8353931299524199 0
0.1928287483929774 0.1924603501179837 0
0.2565382478705585 1.387245240406221 0
1.381666794309083 1.912971668931942 0
3.449599046271898 1.606694425443669 0
0.9370526938369813 1.858832694625772 0
1.505866531692259 1.905465670086778 0
0.2528688624311849 1.933601906645766 0
0.09873749217444912 1.679421944568184 0
1.315856162547651 0.4841081121603032 0
3.797231160864691 1.797575464754328 0
0.06994912393754019 1.792380050291164 0
3.57944401727075 1.18067499837979 0
3.790842626408119 0.2091573735915312 0
3.188677601948514 1.656454266458226 0
0.2924948433469764 1.928936931400273 0
0.6948403127343268 1.885667588497666 0
3.112033195182399 0.4236726173152886 0
0.2161624437273917 1.938360409992531 0
1.386374591066647 1.478690602984202 0
2.427303982850854 0.1639044639605444 0
1.061524277164494 1.942000206190553 0
0.01836864381044714 1.981592481891755 0
2.259774511123533 1.898878549804989 0
1.134768060700206 1.687824444613986 0
0.3756940072516119 1.924775935075631 0
2.971845939001294 1.68800256408143 0
0.8483861475269325 0.9947344435350232 0
1.326701795798187 1.834398025943875 0
0.2775714530914524 1.276420649306542 0
0.4317062008354896 1.916045927937528 0
0.5166425183434308 1.900978362782931 0
1.477468441312185 0.4204900943733995 0
0.07165988703052738 1.954101407966729 0
1.813127061668481 0.4319141268215304 0
0.157020361464101 1.942252900607956 0
2.308786260810022 1.440124342570051 0
0.3185862348334658 1.122391032872964 0
0.5839945172157619 1.113743994482069 0
0.9530494951836723 0.947935904345886 0
$EndNodes
$Elements
9 752 1 752
0 1 15 1
1 1 
0 2 15 1
2 2 
0 3 15 1
3 3 
0 4 15 1
4 4 
1 1 1 14
5 1 5 
6 5 6 
7 6 7 
8 7 8 
9 8 9 
10 9 10 
11 10 11 
12 11 12 
13 12 13 
14 13 14 
15 14 15 
16 15 16 
17 16 17 
18 17 2 
1 2 1 7
19 2 18 
20 18 19 
21 19 20 
22 20 21 
23 21 22 
24 22 23 
25 23 3 
1 3 1 37
26 3 24 
27 24 25 
28 25 26 
29 26 27 
30 27 28 
31 28 29 
32 29 30 
33 30 31 
34 31 32 
35 32 33 
36 33 34 
37 34 35 
38 35 36 
39 36 37 
40 37 38 
41 38 39 
42 39 40 
43 40 41 
44 41 42 
45 42 43 
46 43 44 
47 44 45 
48 45 46 
49 46 47 
50 47 48 
51 48 49 
52 49 50 
53 50 51 
54 51 52 
55 52 53 
56 53 54 
57 54 55 
58 55 56 
59 56 57 
60 57 58 
61 58 59 
62 59 4 
1 4 1 19
63 4 60 
64 60 61 
65 61 62 
66 62 63 
67 63 64 
68 64 65 
69 65 66 
70 66 67 
71 67 68 
72 68 69 
73 69 70 
74 70 71 
75 71 72 
76 72 73 
77 73 74 
78 74 75 
79 75 76 
80 76 77 
81 77 1 
2 1 2 671
82 283 78 341 
83 196 295 297 
84 254 246 255 
85 295 97 297 
86 204 84 316 
87 106 231 267 
88 259 88 313 
89 293 87 344 
90 306 136 320 
91 88 259 277 
92 223 98 351 
93 180 204 316 
94 296 138 324 
95 222 283 341 
96 226 306 320 
97 155 251 304 
98 252 184 253 
99 246 254 337 
100 98 223 361 
101 204 298 309 
102 14 92 235 
103 85 198 199 
104 225 272 283 
105 170 171 297 
106 134 227 257 
107 191 293 344 
108 289 98 361 
109 265 104 270 
110 203 274 282 
111 204 198 298 
112 251 155 334 
113 198 85 298 
114 138 226 314 
115 106 107 231 
116 253 184 336 
117 5 6 246 
118 255 240 278 
119 139 128 249 
120 193 192 273 
121 247 87 293 
122 193 273 360 
123 272 225 273 
124 238 240 255 
125 162 163 207 
126 13 14 235 
127 207 163 208 
128 202 88 329 
129 5 246 337 
130 102 236 237 
131 273 225 360 
132 246 238 255 
133 263 91 264 
134 267 231 344 
135 274 152 282 
136 88 202 313 
137 263 173 371 
138 161 162 164 
139 164 167 168 
140 159 160 161 
141 266 265 270 
142 121 136 306 
143 174 170 297 
144 227 134 326 
145 191 285 293 
146 128 130 249 
147 159 191 231 
148 169 168 173 
149 185 173 187 
150 117 138 296 
151 321 322 333 
152 102 7 236 
153 280 108 294 
154 250 90 251 
155 110 131 159 
156 95 280 294 
157 183 234 370 
158 240 242 278 
159 226 138 306 
160 161 160 162 
161 207 208 223 
162 164 162 167 
163 223 208 228 
164 107 110 231 
165 173 168 181 
166 242 241 244 
167 159 131 160 
168 136 123 268 
169 171 196 297 
170 237 252 253 
171 242 244 245 
172 238 237 239 
173 240 239 241 
174 173 181 371 
175 191 161 285 
176 102 237 238 
177 179 284 340 
178 104 265 318 
179 240 241 242 
180 11 90 250 
181 238 239 240 
182 284 179 303 
183 266 93 325 
184 190 189 192 
185 235 92 308 
186 195 275 335 
187 158 165 180 
188 137 321 333 
189 188 180 189 
190 93 266 270 
191 236 89 252 
192 164 168 169 
193 229 212 367 
194 159 161 191 
195 169 173 185 
196 169 186 285 
197 210 212 229 
198 85 199 200 
199 304 251 331 
200 291 256 307 
201 192 189 197 
202 158 188 249 
203 243 336 375 
204 110 159 231 
205 228 210 229 
206 332 312 374 
207 284 103 340 
208 274 203 372 
209 295 196 335 
210 75 94 260 
211 165 198 204 
212 143 148 281 
213 180 165 204 
214 6 102 246 
215 140 149 158 
216 168 167 205 
217 164 169 285 
218 22 284 303 
219 130 140 249 
220 257 227 299 
221 187 263 264 
222 26 96 271 
223 286 91 371 
224 158 149 165 
225 91 263 371 
226 113 134 257 
227 152 258 282 
228 237 236 252 
229 208 210 228 
230 131 257 299 
231 232 296 324 
232 84 204 309 
233 25 26 271 
234 79 291 307 
235 275 105 335 
236 148 145 274 
237 73 80 261 
238 99 256 291 
239 190 192 193 
240 188 189 190 
241 300 245 311 
242 302 295 335 
243 158 180 188 
244 152 153 258 
245 260 94 278 
246 234 250 370 
247 8 89 236 
248 187 264 265 
249 136 268 276 
250 6 7 102 
251 230 90 356 
252 140 158 249 
253 185 266 325 
254 94 255 278 
255 187 173 263 
256 258 233 259 
257 68 106 267 
258 110 111 131 
259 241 239 243 
260 65 247 269 
261 139 249 355 
262 243 253 336 
263 126 139 268 
264 185 187 266 
265 232 134 296 
266 123 126 268 
267 63 93 270 
268 89 9 234 
269 38 39 272 
270 136 276 320 
271 124 312 332 
272 234 10 250 
273 113 115 134 
274 8 9 89 
275 231 191 344 
276 200 329 359 
277 153 172 258 
278 172 233 258 
279 205 167 206 
280 172 178 233 
281 71 95 294 
282 276 224 320 
283 167 162 207 
284 107 109 110 
285 117 119 138 
286 264 91 323 
287 75 76 94 
288 10 11 250 
289 165 166 198 
290 7 8 236 
291 134 232 326 
292 241 243 332 
293 121 123 136 
294 53 54 279 
295 92 15 275 
296 189 180 316 
297 148 274 372 
298 184 252 345 
299 234 183 368 
300 77 1 337 
301 140 141 149 
302 126 128 139 
303 11 12 90 
304 73 74 80 
305 24 25 103 
306 71 72 95 
307 145 147 274 
308 130 133 140 
309 200 202 329 
310 147 152 274 
311 69 70 82 
312 68 69 106 
313 90 230 331 
314 65 66 247 
315 66 67 87 
316 103 25 271 
317 14 15 92 
318 63 64 93 
319 9 10 234 
320 26 27 96 
321 143 145 148 
322 281 148 330 
323 212 214 256 
324 61 62 104 
325 60 61 248 
326 161 164 285 
327 256 99 367 
328 249 188 355 
329 184 157 310 
330 239 237 253 
331 242 245 300 
332 162 160 163 
333 202 203 313 
334 222 225 283 
335 138 314 324 
336 147 151 152 
337 212 256 367 
338 16 105 275 
339 15 16 275 
340 258 259 282 
341 20 21 97 
342 181 168 205 
343 102 238 246 
344 28 29 88 
345 181 279 371 
346 20 97 295 
347 153 170 172 
348 69 82 106 
349 248 104 318 
350 96 27 277 
351 27 28 277 
352 66 87 247 
353 16 17 105 
354 81 361 366 
355 165 149 166 
356 172 174 178 
357 80 300 311 
358 131 111 257 
359 31 32 85 
360 76 77 254 
361 152 151 153 
362 32 33 298 
363 61 104 248 
364 70 71 294 
365 34 35 84 
366 216 218 327 
367 193 276 328 
368 198 166 199 
369 203 282 313 
370 74 75 260 
371 182 184 345 
372 140 133 141 
373 141 143 281 
374 110 109 111 
375 22 23 284 
376 28 88 277 
377 37 38 83 
378 72 73 261 
379 182 157 184 
380 106 82 107 
381 172 170 174 
382 290 229 367 
383 285 186 293 
384 67 68 267 
385 21 22 303 
386 64 65 269 
387 62 63 270 
388 19 20 295 
389 36 339 342 
390 18 19 302 
391 57 58 101 
392 40 41 78 
393 171 154 194 
394 214 216 307 
395 278 242 300 
396 55 56 91 
397 95 262 280 
398 42 43 100 
399 178 174 179 
400 83 38 272 
401 153 154 170 
402 52 53 86 
403 50 51 98 
404 48 49 81 
405 216 327 352 
406 46 47 99 
407 44 45 79 
408 169 185 186 
409 209 163 299 
410 171 195 196 
411 279 286 371 
412 147 150 151 
413 208 209 210 
414 171 194 195 
415 41 42 287 
416 153 151 154 
417 90 12 356 
418 332 243 363 
419 268 139 328 
420 54 55 286 
421 85 32 298 
422 43 44 292 
423 149 141 281 
424 194 154 301 
425 1 5 337 
426 51 52 288 
427 261 80 311 
428 170 154 171 
429 49 50 289 
430 47 48 290 
431 45 46 291 
432 145 146 147 
433 243 239 253 
434 227 209 299 
435 187 265 266 
436 150 146 176 
437 218 219 220 
438 141 142 143 
439 220 221 222 
440 143 144 145 
441 279 54 286 
442 222 224 225 
443 212 213 214 
444 3 24 346 
445 147 146 150 
446 214 215 216 
447 206 207 223 
448 210 211 212 
449 177 176 230 
450 177 230 235 
451 150 176 177 
452 245 244 333 
453 216 217 218 
454 130 132 133 
455 160 131 299 
456 184 310 336 
457 13 235 356 
458 200 199 201 
459 272 39 357 
460 115 117 296 
461 144 142 155 
462 88 29 329 
463 208 163 209 
464 134 115 296 
465 99 290 367 
466 128 129 130 
467 260 278 300 
468 154 151 301 
469 151 150 301 
470 94 254 255 
471 111 113 257 
472 86 53 279 
473 145 144 146 
474 117 118 119 
475 119 120 121 
476 121 122 123 
477 200 201 202 
478 143 142 144 
479 252 89 345 
480 97 21 303 
481 119 121 306 
482 298 33 309 
483 89 234 368 
484 126 127 128 
485 81 289 361 
486 123 125 126 
487 224 276 360 
488 276 193 360 
489 150 177 301 
490 33 34 309 
491 19 295 302 
492 111 112 113 
493 223 228 361 
494 115 116 117 
495 113 114 115 
496 141 133 142 
497 206 223 351 
498 36 37 339 
499 166 149 281 
500 82 70 294 
501 176 304 331 
502 130 129 132 
503 108 280 338 
504 132 129 157 
505 34 84 309 
506 316 84 342 
507 228 229 366 
508 202 201 203 
509 194 301 308 
510 56 57 323 
511 95 261 262 
512 220 222 341 
513 251 334 370 
514 279 181 354 
515 155 142 305 
516 107 108 109 
517 78 41 287 
518 251 90 331 
519 175 182 183 
520 2 18 349 
521 17 2 349 
522 175 157 182 
523 42 100 287 
524 178 340 350 
525 100 43 292 
526 55 91 286 
527 23 3 346 
528 4 60 358 
529 59 4 358 
530 78 283 357 
531 128 127 129 
532 84 35 342 
533 83 272 273 
534 132 157 175 
535 176 146 304 
536 206 167 207 
537 301 177 308 
538 98 51 288 
539 220 219 221 
540 222 221 224 
541 81 49 289 
542 94 76 254 
543 99 47 290 
544 79 45 291 
545 52 86 288 
546 44 79 292 
547 127 125 135 
548 58 59 317 
549 50 98 289 
550 138 119 306 
551 119 118 120 
552 48 81 290 
553 218 217 219 
554 46 99 291 
555 123 122 125 
556 121 120 122 
557 126 125 127 
558 101 58 317 
559 80 260 300 
560 192 197 364 
561 214 213 215 
562 117 116 118 
563 122 120 124 
564 216 215 217 
565 118 116 137 
566 212 211 213 
567 210 209 211 
568 91 56 323 
569 282 259 313 
570 80 74 260 
571 244 241 332 
572 144 155 304 
573 163 160 299 
574 265 264 369 
575 111 109 112 
576 114 112 156 
577 283 272 357 
578 133 132 305 
579 333 322 373 
580 177 235 308 
581 115 114 116 
582 221 219 226 
583 85 200 359 
584 197 189 316 
585 113 112 114 
586 340 271 350 
587 95 72 261 
588 146 144 304 
589 142 133 305 
590 57 101 323 
591 29 30 329 
592 262 322 365 
593 87 67 267 
594 269 247 347 
595 205 206 343 
596 256 214 307 
597 93 64 269 
598 215 213 232 
599 107 82 108 
600 104 62 270 
601 276 268 328 
602 211 209 227 
603 338 280 365 
604 108 82 294 
605 229 290 366 
606 244 332 374 
607 156 338 365 
608 275 195 353 
609 199 166 330 
610 31 85 359 
611 250 251 370 
612 190 193 328 
613 287 100 319 
614 307 216 352 
615 218 220 319 
616 235 230 356 
617 132 175 305 
618 339 197 342 
619 322 262 373 
620 311 245 373 
621 310 135 336 
622 219 217 314 
623 157 129 310 
624 201 199 330 
625 262 261 311 
626 361 228 366 
627 328 139 355 
628 92 275 353 
629 155 305 334 
630 100 292 327 
631 186 185 325 
632 345 89 368 
633 297 97 348 
634 197 316 342 
635 233 178 350 
636 97 303 348 
637 103 284 346 
638 40 78 357 
639 321 156 322 
640 35 36 342 
641 271 96 350 
642 329 30 359 
643 226 219 314 
644 135 125 315 
645 109 108 338 
646 230 176 331 
647 124 120 312 
648 127 135 310 
649 129 127 310 
650 137 116 321 
651 308 92 353 
652 319 100 327 
653 181 205 354 
654 254 77 337 
655 305 175 334 
656 178 179 340 
657 156 112 338 
658 323 101 369 
659 166 281 330 
660 196 195 335 
661 194 308 353 
662 259 233 362 
663 118 137 312 
664 273 192 364 
665 120 118 312 
666 122 124 315 
667 101 317 318 
668 125 122 315 
669 103 271 340 
670 175 183 334 
671 232 213 326 
672 93 269 325 
673 114 156 321 
674 224 221 320 
675 221 226 320 
676 318 265 369 
677 37 83 339 
678 79 307 352 
679 60 248 358 
680 292 79 352 
681 105 302 335 
682 116 114 321 
683 314 217 324 
684 18 302 349 
685 190 328 355 
686 30 31 359 
687 217 215 324 
688 39 40 357 
689 330 148 372 
690 215 232 324 
691 293 186 347 
692 284 23 346 
693 245 333 373 
694 24 103 346 
695 213 211 326 
696 174 297 348 
697 211 227 326 
698 112 109 338 
699 78 287 341 
700 105 17 349 
701 287 319 341 
702 12 13 356 
703 350 96 362 
704 317 248 318 
705 233 350 362 
706 277 259 362 
707 247 293 347 
708 96 277 362 
709 188 190 355 
710 303 179 348 
711 218 319 327 
712 288 86 343 
713 325 269 347 
714 262 311 373 
715 179 174 348 
716 302 105 349 
717 195 194 353 
718 290 81 366 
719 83 273 364 
720 336 135 375 
721 87 267 344 
722 334 183 370 
723 186 325 347 
724 264 323 369 
725 183 182 368 
726 98 288 351 
727 201 330 372 
728 86 279 354 
729 225 224 360 
730 280 262 365 
731 319 220 341 
732 203 201 372 
733 327 292 352 
734 322 156 365 
735 288 343 351 
736 197 339 364 
737 317 59 358 
738 343 206 351 
739 343 86 354 
740 137 333 374 
741 248 317 358 
742 182 345 368 
743 124 332 363 
744 312 137 374 
745 135 315 375 
746 315 124 363 
747 339 83 364 
748 205 343 354 
749 101 318 369 
750 333 244 374 
751 363 243 375 
752 315 363 375 
$EndElements
