$MeshFormat
4.1 0 8
$EndMeshFormat
$Entities
5 5 1 0
1 0 0 0 0 
2 4 0 0 0 
3 4 2 0 0 
4 0 2 0 0 
5 1 2 0 0 
1 0 0 0 4 0 0 0 2 1 -2 
2 4 0 0 4 2 0 0 2 2 -3 
3 1 2 0 4 2 0 0 2 3 -5 
4 0 2 0 1 2 0 0 2 5 -4 
5 0 0 0 0 2 0 0 2 4 -1 
1 0 0 0 4 2 0 0 5 1 2 3 4 5 
$EndEntities
$Nodes
11 404 1 404
0 1 0 1
1
0 0 0
0 2 0 1
2
4 0 0
0 3 0 1
3
4 2 0
0 4 0 1
4
0 2 0
0 5 0 1
5
1 2 0
1 1 0 7
6
7
8
9
10
11
12
0.4999999999990952 0 0
0.9999999999976482 0 0
1.49999999999619 0 0
1.999999999994776 0 0
2.49999999999605 0 0
2.999999999997367 0 0
3.499999999998683 0 0
1 2 0 4
13
14
15
16
4 0.4364749529430081 0
4 0.8538989294129761 0
4 1.253103356509006 0
4 1.634883566886109 0
1 3 0 22
17
18
19
20
21
22
23
24
25
26
27
28
29
30
31
32
33
34
35
36
37
38
3.636592420415967 2 0
3.314455145705439 2 0
3.028901375902194 2 0
2.775776494136177 2 0
2.551397678896562 2 0
2.352500445969823 2 0
2.176190901169918 2 0
2.019903947585949 2 0
1.881365720867769 2 0
1.758560564460553 2 0
1.649701749231871 2 0
1.553205492166656 2 0
1.467667788664488 2 0
1.391844178378863 2 0
1.324631470842046 2 0
1.26505177102622 2 0
1.21223822153964 2 0
1.165422438667128 2 0
1.123923287047085 2 0
1.087136979392758 2 0
1.05452830614946 2 0
1.025622829841478 2 0
1 4 0 39
39
40
41
42
43
44
45
46
47
48
49
50
51
52
53
54
55
56
57
58
59
60
61
62
63
64
65
66
67
68
69
70
71
72
73
74
75
76
77
0.9749999999998958 2 0
0.9499999999997918 2 0
0.9249999999996876 2 0
0.8999999999995836 2 0
0.8749999999995011 2 0
0.8499999999996529 2 0
0.8249999999998263 2 0
0.7999999999999998 2 0
0.7750000000001732 2 0
0.7500000000003466 2 0
0.7250000000005199 2 0
0.7000000000006934 2 0
0.6750000000008667 2 0
0.6500000000010401 2 0
0.6250000000012135 2 0
0.6000000000013869 2 0
0.5750000000015603 2 0
0.5500000000017335 2 0
0.5250000000019071 2 0
0.5000000000020587 2 0
0.4750000000019764 2 0
0.4500000000018723 2 0
0.4250000000017684 2 0
0.4000000000016644 2 0
0.3750000000015603 2 0
0.3500000000014564 2 0
0.3250000000013522 2 0
0.3000000000012483 2 0
0.2750000000011442 2 0
0.2500000000010403 2 0
0.2250000000009362 2 0
0.2000000000008322 2 0
0.1750000000007281 2 0
0.1500000000006241 2 0
0.1250000000005201 2 0
0.100000000000416 2 0
0.07500000000031215 2 0
0.05000000000020799 2 0
0.02500000000010405 2 0
1 5 0 12
78
79
80
81
82
83
84
85
86
87
88
89
0 1.972720514893969 0
0 1.938371410765361 0
0 1.895120560104031 0
0 1.840661034189248 0
0 1.772088048970885 0
0 1.685744008673901 0
0 1.577023480692232 0
0 1.440127480485486 0
0 1.267754150765333 0
0 1.050709446022114 0
0 0.7774164729436635 0
0 0.4332981783924972 0
2 1 0 315
90
91
92
93
94
95
96
97
98
99
100
101
102
103
104
105
106
107
108
109
110
111
112
113
114
115
116
117
118
119
120
121
122
123
124
125
126
127
128
129
130
131
132
133
134
135
136
137
138
139
140
141
142
143
144
145
146
147
148
149
150
151
152
153
154
155
156
157
158
159
160
161
162
163
164
165
166
167
168
169
170
171
172
173
174
175
176
177
178
179
180
181
182
183
184
185
186
187
188
189
190
191
192
193
194
195
196
197
198
199
200
201
202
203
204
205
206
207
208
209
210
211
212
213
214
215
216
217
218
219
220
221
222
223
224
225
226
227
228
229
230
231
232
233
234
235
236
237
238
239
240
241
242
243
244
245
246
247
248
249
250
251
252
253
254
255
256
257
258
259
260
261
262
263
264
265
266
267
268
269
270
271
272
273
274
275
276
277
278
279
280
281
282
283
284
285
286
287
288
289
290
291
292
293
294
295
296
297
298
299
300
301
302
303
304
305
306
307
308
309
310
311
312
313
314
315
316
317
318
319
320
321
322
323
324
325
326
327
328
329
330
331
332
333
334
335
336
337
338
339
340
341
342
343
344
345
346
347
348
349
350
351
352
353
354
355
356
357
358
359
360
361
362
363
364
365
366
367
368
369
370
371
372
373
374
375
376
377
378
379
380
381
382
383
384
385
386
387
388
389
390
391
392
393
394
395
396
397
398
399
400
401
402
403
404
0.9874999999999476 1.978349364905299 0
0.8124999999999121 1.977762074159404 0
1.185696185142149 1.967081553396108 0
0.6648758017619456 1.970996973483931 0
0.5393726697119582 1.97584682656911 0
0.4122565010948001 1.975013710444319 0
1.436447821428714 1.931838422821633 0
0.3125000000012996 1.97768867923376 0
1.705362638400734 1.909701127227331 0
2.098047424377934 1.872336952091506 0
0.1638554972872684 1.170332139053486 0
0.1875000000007802 1.978349364905299 0
1.068653820814957 1.976821490338684 0
0.7370980429552512 1.977857031914166 0
0.8874999999995389 1.977624919140874 0
0.07642923395154536 1.641495712691128 0
0.1097024568764801 1.978205556399199 0
0.05821747646774906 1.799621922620986 0
2.663587086516369 1.816716094737226 0
3.171678260803817 1.766745301632336 0
1.295038616454737 1.95085875845421 0
1.256453302174905 0.4290028065837248 0
0.2356178799696548 1.975409064669093 0
0.3625000000015091 1.977705975727468 0
0.4625000000019244 1.978349364905308 0
0.5870765778839365 1.981821085252248 0
0.9383612196534489 1.976372027384267 0
2.186860077595032 0.4229458046237137 0
0.06458333333360271 1.979783368516114 0
3.678677025939587 1.029738466704247 0
0.03181716145533451 1.918905454855214 0
0.2344066610855949 0.6435488340627135 0
3.282632320902461 0.4200486150063958 0
0.02825055087387297 1.955989433074948 0
0.1345363790173054 1.347503640339653 0
0.2980412890968347 1.308330466321303 0
0.3441087936696967 1.104542225862992 0
0.477541713867781 1.238691121611707 0
0.4449618813422089 1.406877058236512 0
0.5982503740914874 1.363227696878692 0
0.549261946907442 1.522233506997134 0
0.7156188696261003 1.487371046686244 0
0.7546752465886 1.330028055876864 0
0.8687919318183722 1.440221429728652 0
0.6506889443337132 1.610191168086676 0
0.5470330053236492 1.647133157497874 0
0.9170112632408254 1.290516722786434 0
1.02733432081899 1.419318044612123 0
0.9589535948961299 1.563981798455182 0
1.140598804700302 1.564986463618099 0
1.194694069336547 1.403207385286281 0
1.30056930238476 1.532882977492364 0
1.383267258666034 1.386369143499666 0
1.260888098622177 1.218015415518524 0
1.468908443429659 1.19905810048976 0
1.591627732508121 1.383538268042801 0
0.6203190028006664 1.7133054362092 0
0.5292089339658554 1.751904204504886 0
0.4599480586436731 1.689176472851558 0
0.4426876462984415 1.770371945377859 0
0.3804499813355045 1.719902123240452 0
0.369367281855992 1.806950757956071 0
0.5329242175404167 1.037882584253394 0
1.694285142141863 1.180727693204339 0
0.3103332819632795 1.75283765948913 0
0.315692606947948 1.673576737926641 0
0.2981415275871617 1.822464852610928 0
0.6012608887552526 1.798466316901151 0
0.6732980494424297 1.776770556091146 0
1.065566054675214 1.683391360746655 0
0.2450250575174513 1.780637268781131 0
0.9337766684282084 1.706106290932556 0
1.823100275559905 1.415944271265133 0
0.2398888861005178 1.852208645981752 0
1.935971684228198 1.172081107598678 0
2.065680174104053 1.383313183227627 0
0.4296621721376657 1.842708068217493 0
2.195636126898074 1.151528236913631 0
1.014157128553435 1.773104366875253 0
0.9218511132273257 1.799932195567652 0
1.111932557117592 1.777938108830674 0
0.6520660647947 1.855634668198432 0
0.711366472986283 1.836816666347862 0
0.7415478388166455 1.773770557521853 0
0.5817092603740586 1.87009316193794 0
1.80981560039378 0.9487218842928196 0
0.2933104766987968 1.87968076656284 0
0.9882637533577634 1.874726620860325 0
0.904742600353367 1.869367589103736 0
2.336959805258542 1.378704950445264 0
2.475542359873621 1.129352173924905 0
0.1878564793087769 1.807849551762678 0
0.1839798979935358 1.867626660834808 0
0.6995713745552639 1.892285482093089 0
0.7465812932201261 1.882915578564603 0
1.671170647768194 1.5698692704784 0
0.191348649586264 1.741960674963624 0
2.624700604918241 1.36749137461054 0
2.791346852650672 1.091053788010503 0
1.338434287433879 1.014670613322727 0
0.8574105791543478 1.824832844571238 0
0.8438518246525597 1.887701130030265 0
0.4919061213721398 1.820775813123892 0
0.4727754571902685 1.880237250726716 0
0.4269205637762528 1.897954370274954 0
0.84800548641916 1.640441711124561 0
0.6226388988919096 1.906326645468527 0
0.5834914471885601 1.923124180060563 0
1.051120323983129 1.846971850804514 0
1.138430586689262 1.865322033961518 0
1.204804558964007 1.795826843609738 0
1.025541597808279 1.914360487592554 0
0.9723611678920376 1.916523539762099 0
2.927197626876779 1.353793528543921 0
3.125303682447138 1.08974021563683 0
1.077674830147898 1.900143564663747 0
1.103182432538247 1.022237684492581 0
2.64867064147614 0.8006027466520269 0
1.17748036517472 1.698927744415413 0
1.29188863598585 1.731423501756519 0
3.240192235133604 1.367227235501819 0
0.7985416346554551 1.152788817414132 0
0.2183736269277579 1.901622247190197 0
0.1779650815086552 1.915383069816284 0
0.1408857683996665 1.888812139628867 0
0.2679456984923253 1.932304399803595 0
0.1433523805373415 1.929532246451005 0
0.108896888885849 1.912828167460106 0
0.1036456901484357 1.869122710381278 0
1.215403030507819 1.878165934104322 0
0.3399831430496615 1.864222727774588 0
0.3280610199995 1.91542022044928 0
0.8877764578553942 1.924007181337051 0
0.4622450146866288 1.923641229616071 0
0.503278395489025 1.914889683053028 0
0.8461263421907936 1.934575974313403 0
0.7303870845584797 1.923594757105495 0
0.7726214007000826 1.924962584128217 0
2.199072836492218 1.607967277638042 0
0.6878569228123519 1.938335277831966 0
1.957749236593965 1.589046414374497 0
1.847952466507836 1.747511259568346 0
0.1237307894763962 1.777917995436218 0
0.06303847836507651 1.732731318779593 0
1.756734067391355 0.4175559508774729 0
0.5234522565417399 1.871008881575344 0
0.2118637093356844 1.947810837105697 0
0.4137054281982455 1.536651744852624 0
0.3183343640012463 1.464725772162093 0
2.455962470052093 1.607841428510735 0
0.05838294583767389 1.938898367516108 0
0.1366329465251178 1.486084613074925 0
1.475117197644717 1.563956931930209 0
1.573943976085464 1.699766937976197 0
0.8397559328945516 1.721700033532869 0
0.1953750194968012 0.9368454832015296 0
0.0340801850183015 1.88045613458914 0
0.8127825184914697 1.844029557938486 0
0.7478708964750549 0.4042017600290593 0
2.82623165928601 0.4173255008615442 0
0.6149054833067066 1.946229566467012 0
0.4864137994145566 1.953221544760308 0
1.437916987518147 1.710901994933597 0
1.497208116711797 1.838319594676248 0
0.4243490554723042 1.941407580588961 0
0.388760493146692 1.925400113515797 0
3.60650959060807 1.437883266990441 0
0.9999999999976471 0.696413831247554 0
0.08310931134893004 1.959769790086521 0
3.653589699417258 0.6463122034969917 0
1.369493975672607 1.812267388579063 0
3.475523783060702 1.74108399399467 0
1.949784987134335 1.873268280863337 0
1.598187955650079 1.912566432119137 0
1.506232457490599 0.7051950659778596 0
0.6819653678507519 0.7799517822810806 0
1.144226329230312 1.964598548063707 0
2.903547869873132 1.795255699292733 0
2.436401229663251 1.832219303540214 0
2.26434567356987 1.858292206783922 0
1.819963142664162 1.901296040139286 0
1.510436640415572 1.931249560675157 0
1.04007556799547 1.972845170421559 0
1.359532960409388 1.942781062217575 0
0.7033088259490486 1.698667118548941 0
1.229035918187629 1.946775930938089 0
0.5238386941735429 1.948161635014129 0
0.3856040780962738 1.872648845993112 0
1.103346050337535 1.970001010539193 0
0.03928278029002791 1.97963036483806 0
0.6491841410697545 1.942131220321915 0
0.6924904063357101 1.96970572758303 0
0.140649260489883 1.835417031328354 0
0.1352005157729996 1.977401385098521 0
0.1622262518783461 1.977858971190019 0
0.1750000000007285 1.953124539750081 0
0.1347460080726687 1.698400950455559 0
0.1646342841278513 1.610830115443741 0
0.2621863133292034 1.977234396272996 0
0.2125000000008842 1.978349364905296 0
3.35695540926342 0.8405059936590684 0
1.169024584237799 1.920129647401547 0
0.3375000000014042 1.977471855165365 0
0.3536789039661988 1.943945062269322 0
0.3874894358743862 1.978044789914543 0
0.4872827598844998 1.981984054914231 0
0.4373509260957589 1.974740963992324 0
0.5125000000019829 1.978349364905537 0
0.5577057894415314 1.950785571411844 0
0.5625000000016465 1.978349364905543 0
0.2874477188892147 1.977396856730721 0
0.2970435568857934 1.953343876970113 0
0.6109733327637122 1.977663658129651 0
1.013546701820446 1.974963502268064 0
0.9970386428396063 1.946659735088031 0
0.6358231264840619 1.972836903067085 0
0.762433007159397 1.977560175201169 0
0.8374999999997425 1.978599087154383 0
0.4137979217286503 0.8402635755524652 0
0.9125373637566471 1.978045209350581 0
0.9249999999996773 1.952701354979707 0
0.9612057075150284 1.980710694360971 0
0.7874888345266086 1.97742172421443 0
0.7999999999999922 1.952805987821368 0
1.322512606806625 1.887286077869289 0
0.8624999999995785 1.978349364905534 0
2.76527019421654 1.589760494141375 0
1.063008693074362 1.943740503329639 0
1.277737334035967 1.836575479772111 0
0.5480463694479221 1.825431274032492 0
0.06866818378294726 1.903631539658909 0
3.004742395038437 0.7511645728925593 0
0.2526322743837697 1.713946500938948 0
2.005486043134442 0.676196663549224 0
2.302352097215874 0.8336913601309179 0
0.3906427875812677 1.636161720909606 0
0.3184789276531639 1.580139538882342 0
0.7520525544588377 1.614047599143756 0
0.8079119969638839 1.783961466281696 0
0.7500212988504686 1.952598907637747 0
0.2324671498836419 1.53448532621895 0
1.587919304942871 0.9702736547905829 0
1.077080184716754 1.248196092162754 0
0.8736311904796971 1.953801201661687 0
0.9279780501087466 1.913184294595743 0
1.638722800685418 1.816261509461539 0
0.3112806784681337 0.3113856465846184 0
0.8735543854452481 0.9385254432727702 0
0.2484277812339977 1.952711469708778 0
0.5421044678776897 1.913576839114647 0
2.026582101549419 1.738141739207693 0
0.4000000000016644 1.953825730887661 0
2.049852310374074 0.9564438504970539 0
0.8129409259542707 1.92297934525692 0
0.7154353414043199 1.980555909773998 0
0.7188815161527635 1.957107935307734 0
0.4532655422392772 1.954101562841955 0
0.6452228000441176 1.186167458627792 0
1.251290433543349 0.7652794204064117 0
0.08647902031194819 1.983551743000367 0
0.1165090615476162 1.949587541880637 0
3.743725158816948 1.762770165574244 0
0.2473645004590634 1.632215871540239 0
0.9584921125726418 1.952071573010874 0
1.35095969947663 1.63699238349084 0
0.2726102137661069 1.95859819989724 0
0.3210203820731005 1.948269830007917 0
0.09862584324229411 1.826398647559483 0
0.2956209320363293 1.921795395197468 0
0.3774898332847959 1.95599750766366 0
0.7745129082473097 1.957069875800586 0
3.042613442420571 1.583515226238861 0
0.897289002418191 1.95723597329398 0
0.7911020891779975 1.88369424049884 0
3.68724440406368 0.3005671542892792 0
0.662263480424796 1.906942658782786 0
0.2154563965133856 1.427345288369902 0
0.3589308146113789 1.898657038219771 0
1.117283524941644 1.93323438338809 0
0.1481926744632681 1.957305339614698 0
0.585901376807046 1.957589225917527 0
3.397253685272311 1.132471024063049 0
0.0668859996290066 1.849913578030577 0
1.718676634197393 1.711707941930608 0
0.4845008133276082 0.5968612359193395 0
0.7820971059170212 1.705431414358946 0
0.238922099139052 1.927142327307444 0
0.2577560099808512 1.902243405923814 0
1.397039096205826 1.882498509232761 0
0.8265112113573947 1.954189637540479 0
1.252299361544452 1.633042614154647 0
0.01850666623280099 1.981668062561396 0
0.4720632486024721 1.606584718083351 0
0.763300964682091 1.836832738971322 0
0.7094036135209649 0.9943864757319637 0
2.50702112693184 0.5260950207444022 0
2.323853589664425 1.715841371622048 0
0.8729069389109252 1.769102623358747 0
2.182380325130774 1.758515909468642 0
0.08596200892330287 1.932517869383569 0
1.746135536491109 1.817295575665422 0
0.2002817597580055 1.68031700983081 0
1.267945501198555 1.899932436227604 0
0.9593709237437354 1.135881300280582 0
0.9469816721418737 1.884545471035593 0
0.9494245281409553 1.850344858461971 0
0.9851201688836686 1.826144029401423 0
1.809830663896866 1.608261895639276 0
3.310165512478613 1.594830027326815 0
0.07553929292090289 1.551112280477502 0
1.028044051476368 1.947862496474233 0
1.764698724225293 0.7085075220925235 0
0.05240907364133929 1.961712001195024 0
0.8492537488054414 1.959903053115097 0
0.8251888700811956 1.541221419108157 0
$EndNodes
$Elements
11 811 1 811
0 1 15 1
1 1 
0 2 15 1
2 2 
0 3 15 1
3 3 
0 4 15 1
4 4 
0 5 15 1
5 5 
1 1 1 8
6 1 6 
7 6 7 
8 7 8 
9 8 9 
10 9 10 
11 10 11 
12 11 12 
13 12 2 
1 2 1 5
14 2 13 
15 13 14 
16 14 15 
17 15 16 
18 16 3 
1 3 1 23
19 3 17 
20 17 18 
21 18 19 
22 19 20 
23 20 21 
24 21 22 
25 22 23 
26 23 24 
27 24 25 
28 25 26 
29 26 27 
30 27 28 
31 28 29 
32 29 30 
33 30 31 
34 31 32 
35 32 33 
36 33 34 
37 34 35 
38 35 36 
39 36 37 
40 37 38 
41 38 5 
1 4 1 40
42 5 39 
43 39 40 
44 40 41 
45 41 42 
46 42 43 
47 43 44 
48 44 45 
49 45 46 
50 46 47 
51 47 48 
52 48 49 
53 49 50 
54 50 51 
55 51 52 
56 52 53 
57 53 54 
58 54 55 
59 55 56 
60 56 57 
61 57 58 
62 58 59 
63 59 60 
64 60 61 
65 61 62 
66 62 63 
67 63 64 
68 64 65 
69 65 66 
70 66 67 
71 67 68 
72 68 69 
73 69 70 
74 70 71 
75 71 72 
76 72 73 
77 73 74 
78 74 75 
79 75 76 
80 76 77 
81 77 4 
1 5 1 13
82 4 78 
83 78 79 
84 79 80 
85 80 81 
86 81 82 
87 82 83 
88 83 84 
89 84 85 
90 85 86 
91 86 87 
92 87 88 
93 88 89 
94 89 1 
2 1 2 717
95 220 151 277 
96 101 236 289 
97 302 250 305 
98 93 229 281 
99 90 311 353 
100 229 93 280 
101 151 166 277 
102 253 96 378 
103 177 201 202 
104 250 280 305 
105 255 293 367 
106 161 159 168 
107 169 168 396 
108 293 255 359 
109 161 168 169 
110 174 197 339 
111 236 112 289 
112 236 101 285 
113 177 198 201 
114 198 170 199 
115 235 174 339 
116 147 146 157 
117 174 171 196 
118 111 234 264 
119 135 134 146 
120 138 159 161 
121 280 93 305 
122 96 253 271 
123 219 275 291 
124 83 105 233 
125 293 221 367 
126 251 114 346 
127 7 111 248 
128 111 8 234 
129 202 201 304 
130 95 254 296 
131 88 121 245 
132 135 146 147 
133 159 139 208 
134 168 170 198 
135 304 90 353 
136 248 111 257 
137 174 196 197 
138 196 171 365 
139 198 199 205 
140 107 232 357 
141 50 51 281 
142 278 317 368 
143 141 142 242 
144 233 105 286 
145 192 147 319 
146 157 158 171 
147 194 193 223 
148 130 134 135 
149 191 178 222 
150 171 172 183 
151 242 185 243 
152 209 252 260 
153 157 171 174 
154 151 149 166 
155 166 193 194 
156 182 212 213 
157 163 156 176 
158 138 139 159 
159 262 231 340 
160 112 236 338 
161 182 163 212 
162 149 147 192 
163 246 81 372 
164 191 222 225 
165 183 184 226 
166 166 192 193 
167 171 183 365 
168 130 131 134 
169 156 151 220 
170 183 226 229 
171 125 128 238 
172 213 212 236 
173 147 157 319 
174 205 199 368 
175 114 251 295 
176 176 220 221 
177 108 239 316 
178 128 129 130 
179 263 253 335 
180 165 228 230 
181 145 185 242 
182 190 178 191 
183 204 188 321 
184 128 130 237 
185 188 207 321 
186 142 145 242 
187 197 196 250 
188 141 242 354 
189 336 248 374 
190 216 285 369 
191 231 262 270 
192 222 310 362 
193 162 165 230 
194 133 137 138 
195 245 121 308 
196 195 244 375 
197 232 107 233 
198 148 147 149 
199 214 213 216 
200 260 253 378 
201 242 243 252 
202 157 146 158 
203 117 10 385 
204 239 108 268 
205 150 149 151 
206 168 159 170 
207 183 172 184 
208 51 93 281 
209 171 158 172 
210 154 151 156 
211 125 127 128 
212 160 156 163 
213 201 198 205 
214 216 213 285 
215 162 230 397 
216 181 163 182 
217 208 139 380 
218 173 158 274 
219 163 176 377 
220 145 162 185 
221 199 291 368 
222 10 249 385 
223 6 7 248 
224 356 301 358 
225 125 238 366 
226 252 253 260 
227 9 117 234 
228 257 206 337 
229 158 146 274 
230 223 224 251 
231 86 100 124 
232 124 100 125 
233 210 256 398 
234 226 184 227 
235 256 210 371 
236 166 149 192 
237 194 223 254 
238 7 8 111 
239 81 107 372 
240 165 179 228 
241 223 193 224 
242 213 236 285 
243 176 156 220 
244 206 257 348 
245 87 88 245 
246 79 120 123 
247 225 222 333 
248 85 124 241 
249 323 117 324 
250 130 129 131 
251 189 264 331 
252 207 249 321 
253 123 120 240 
254 152 126 308 
255 83 84 105 
256 195 161 244 
257 229 226 345 
258 85 86 124 
259 258 118 402 
260 86 87 100 
261 177 202 394 
262 212 163 377 
263 81 82 107 
264 138 137 139 
265 253 263 271 
266 126 245 308 
267 296 254 346 
268 226 227 329 
269 9 10 117 
270 79 80 120 
271 252 243 253 
272 218 320 372 
273 152 265 384 
274 6 248 336 
275 231 230 340 
276 199 219 291 
277 327 195 375 
278 15 16 256 
279 78 79 123 
280 230 228 340 
281 128 127 129 
282 138 161 195 
283 223 251 346 
284 138 195 404 
285 201 205 317 
286 169 178 190 
287 182 213 214 
288 119 15 256 
289 24 25 262 
290 221 293 356 
291 265 152 308 
292 256 261 398 
293 283 350 369 
294 135 147 148 
295 134 131 327 
296 193 192 235 
297 302 115 370 
298 8 9 234 
299 133 138 404 
300 88 89 121 
301 232 233 286 
302 320 246 372 
303 27 28 263 
304 214 216 217 
305 11 122 249 
306 11 12 122 
307 254 95 341 
308 239 187 316 
309 176 221 358 
310 276 94 297 
311 228 179 239 
312 199 200 219 
313 148 149 150 
314 190 191 247 
315 150 151 154 
316 202 304 353 
317 154 156 160 
318 160 163 181 
319 182 214 282 
320 84 85 399 
321 14 15 119 
322 275 219 392 
323 124 125 366 
324 209 260 318 
325 283 106 350 
326 310 222 334 
327 10 11 249 
328 82 83 233 
329 14 119 259 
330 221 356 358 
331 80 81 246 
332 218 217 320 
333 214 218 282 
334 34 35 266 
335 122 259 290 
336 281 229 345 
337 219 318 392 
338 249 207 385 
339 251 276 297 
340 189 206 348 
341 179 187 239 
342 185 162 397 
343 146 134 274 
344 253 243 335 
345 234 117 323 
346 317 205 368 
347 324 117 385 
348 310 334 353 
349 198 177 396 
350 264 189 348 
351 217 216 350 
352 161 169 387 
353 128 237 238 
354 174 235 319 
355 18 19 109 
356 119 256 371 
357 17 18 261 
358 123 240 402 
359 237 130 382 
360 94 276 298 
361 37 38 272 
362 13 14 259 
363 166 194 277 
364 85 241 399 
365 130 135 382 
366 290 204 321 
367 18 109 261 
368 250 302 370 
369 89 1 336 
370 298 276 339 
371 329 227 360 
372 19 20 267 
373 252 209 354 
374 139 141 380 
375 318 314 392 
376 328 247 383 
377 203 204 210 
378 139 140 141 
379 241 287 399 
380 122 290 321 
381 238 237 326 
382 244 161 387 
383 20 21 108 
384 191 225 343 
385 178 169 395 
386 109 19 267 
387 131 132 133 
388 21 22 268 
389 232 181 282 
390 173 328 383 
391 243 185 373 
392 3 17 351 
393 240 258 402 
394 203 210 361 
395 194 254 255 
396 250 196 280 
397 197 298 339 
398 145 153 162 
399 262 25 270 
400 231 270 390 
401 179 180 187 
402 142 144 145 
403 23 24 99 
404 125 126 127 
405 248 257 265 
406 187 188 203 
407 26 27 98 
408 249 122 321 
409 170 159 208 
410 22 23 269 
411 162 164 165 
412 165 167 179 
413 133 136 137 
414 199 170 200 
415 25 26 270 
416 228 239 386 
417 256 16 351 
418 287 241 330 
419 29 30 96 
420 1 6 336 
421 263 28 271 
422 186 181 232 
423 259 119 290 
424 181 182 282 
425 287 105 399 
426 259 122 364 
427 222 178 334 
428 31 32 110 
429 261 256 351 
430 28 29 271 
431 78 123 381 
432 247 191 363 
433 30 31 273 
434 255 254 341 
435 33 34 92 
436 221 220 367 
437 215 301 355 
438 175 331 401 
439 115 299 370 
440 235 192 319 
441 20 108 267 
442 32 33 275 
443 251 224 276 
444 99 24 262 
445 76 77 279 
446 274 327 375 
447 242 252 354 
448 75 76 118 
449 203 188 204 
450 224 193 235 
451 12 2 364 
452 100 87 245 
453 122 12 364 
454 187 203 316 
455 172 158 173 
456 98 27 263 
457 73 74 106 
458 108 21 268 
459 50 281 344 
460 157 174 319 
461 227 313 360 
462 72 73 283 
463 311 116 353 
464 187 180 188 
465 71 72 284 
466 230 231 397 
467 70 71 101 
468 69 70 289 
469 35 36 278 
470 68 69 112 
471 2 13 364 
472 361 210 398 
473 65 66 97 
474 64 65 292 
475 36 37 102 
476 131 133 404 
477 63 64 113 
478 62 63 294 
479 66 67 300 
480 16 3 351 
481 61 62 95 
482 60 61 296 
483 59 60 114 
484 358 215 377 
485 56 57 94 
486 67 68 288 
487 55 56 299 
488 54 55 115 
489 267 108 316 
490 51 52 93 
491 48 49 103 
492 197 250 370 
493 268 22 269 
494 45 46 91 
495 57 58 297 
496 179 167 180 
497 52 53 305 
498 58 59 295 
499 189 143 206 
500 42 43 104 
501 46 47 312 
502 53 54 302 
503 41 42 309 
504 125 100 126 
505 40 41 116 
506 327 131 404 
507 131 129 132 
508 334 202 353 
509 255 341 359 
510 39 40 311 
511 120 246 320 
512 47 48 306 
513 363 184 383 
514 5 39 90 
515 43 44 315 
516 4 78 381 
517 214 217 218 
518 139 137 140 
519 323 324 342 
520 44 45 307 
521 141 140 142 
522 165 164 167 
523 23 99 269 
524 331 264 401 
525 217 350 389 
526 145 144 153 
527 107 82 233 
528 266 35 278 
529 118 258 349 
530 121 336 374 
531 162 153 164 
532 94 298 299 
533 120 80 246 
534 254 223 346 
535 26 98 270 
536 232 282 357 
537 298 197 370 
538 168 198 396 
539 340 228 388 
540 160 181 186 
541 77 4 381 
542 258 106 349 
543 150 154 155 
544 206 143 332 
545 236 212 376 
546 191 343 363 
547 224 235 339 
548 38 5 303 
549 133 132 136 
550 194 255 277 
551 225 333 403 
552 186 232 286 
553 92 34 266 
554 172 173 383 
555 106 258 350 
556 29 96 271 
557 188 180 207 
558 96 30 273 
559 286 105 287 
560 127 152 347 
561 344 281 345 
562 265 257 337 
563 118 76 279 
564 127 126 152 
565 211 337 393 
566 190 247 328 
567 240 120 320 
568 111 264 348 
569 227 184 363 
570 31 110 273 
571 330 326 352 
572 110 32 275 
573 183 229 365 
574 272 38 303 
575 257 111 348 
576 301 215 358 
577 176 358 377 
578 287 330 352 
579 140 137 332 
580 180 167 324 
581 299 298 370 
582 164 153 175 
583 116 310 353 
584 142 143 144 
585 33 92 275 
586 200 208 209 
587 175 323 342 
588 350 216 369 
589 121 89 336 
590 73 106 283 
591 72 283 284 
592 101 71 284 
593 70 101 289 
594 260 314 318 
595 112 69 289 
596 219 200 318 
597 207 324 385 
598 137 136 332 
599 74 75 349 
600 237 325 326 
601 142 140 143 
602 126 100 245 
603 65 97 292 
604 338 236 376 
605 68 112 288 
606 113 64 292 
607 97 66 300 
608 49 50 344 
609 63 113 294 
610 95 62 294 
611 61 95 296 
612 114 60 296 
613 67 288 300 
614 102 37 272 
615 56 94 299 
616 115 55 299 
617 94 57 297 
618 59 114 295 
619 93 52 305 
620 313 343 379 
621 54 115 302 
622 58 295 297 
623 91 46 312 
624 313 227 343 
625 75 118 349 
626 337 206 393 
627 53 302 305 
628 295 251 297 
629 48 103 306 
630 304 201 400 
631 129 127 347 
632 42 104 309 
633 136 132 211 
634 144 143 189 
635 116 41 309 
636 273 110 314 
637 47 306 312 
638 154 160 322 
639 173 274 375 
640 40 116 311 
641 104 43 315 
642 347 152 384 
643 90 39 311 
644 45 91 307 
645 106 74 349 
646 210 204 371 
647 148 150 325 
648 200 209 318 
649 44 307 315 
650 200 170 208 
651 101 284 285 
652 36 102 278 
653 247 363 383 
654 99 262 340 
655 204 290 371 
656 98 263 335 
657 207 180 324 
658 155 154 322 
659 97 300 301 
660 274 134 327 
661 113 292 293 
662 109 267 361 
663 267 316 361 
664 288 112 338 
665 325 155 326 
666 103 49 344 
667 280 196 365 
668 17 261 351 
669 5 90 303 
670 241 124 366 
671 143 140 332 
672 306 103 329 
673 13 259 364 
674 350 258 389 
675 91 312 313 
676 239 268 386 
677 229 280 365 
678 282 218 357 
679 160 186 322 
680 323 175 401 
681 92 266 291 
682 291 266 368 
683 326 155 352 
684 150 155 325 
685 238 326 330 
686 153 144 331 
687 261 109 398 
688 328 173 375 
689 264 234 401 
690 114 296 346 
691 109 361 398 
692 104 315 333 
693 103 344 345 
694 95 294 341 
695 116 309 310 
696 211 347 384 
697 337 211 384 
698 316 203 361 
699 132 129 347 
700 343 225 379 
701 276 224 339 
702 324 167 342 
703 175 153 331 
704 167 164 342 
705 123 279 381 
706 184 172 383 
707 102 272 317 
708 272 303 400 
709 286 287 391 
710 303 90 304 
711 290 119 371 
712 144 189 331 
713 268 269 386 
714 248 265 374 
715 164 175 342 
716 329 103 345 
717 220 277 367 
718 303 304 400 
719 277 255 367 
720 314 110 392 
721 334 178 394 
722 211 132 347 
723 135 148 382 
724 105 84 399 
725 279 77 381 
726 395 169 396 
727 190 328 387 
728 240 320 389 
729 169 190 387 
730 155 322 352 
731 148 325 382 
732 269 99 388 
733 258 240 389 
734 333 222 362 
735 265 337 384 
736 292 97 356 
737 244 328 375 
738 300 288 355 
739 231 373 397 
740 294 113 359 
741 285 284 369 
742 186 286 391 
743 284 283 369 
744 96 273 378 
745 301 300 355 
746 97 301 356 
747 270 98 390 
748 293 292 356 
749 288 338 355 
750 113 293 359 
751 266 278 368 
752 343 227 363 
753 373 185 397 
754 265 308 374 
755 312 306 360 
756 238 330 366 
757 330 241 366 
758 325 237 382 
759 273 314 378 
760 332 136 393 
761 341 294 359 
762 309 104 362 
763 234 323 401 
764 306 329 360 
765 313 312 360 
766 91 313 379 
767 307 91 379 
768 206 332 393 
769 314 260 378 
770 335 373 390 
771 226 329 345 
772 209 208 380 
773 98 335 390 
774 104 333 362 
775 310 309 362 
776 99 340 388 
777 386 269 388 
778 320 217 389 
779 118 279 402 
780 357 218 372 
781 136 211 393 
782 110 275 392 
783 333 315 403 
784 279 123 402 
785 215 338 376 
786 322 186 391 
787 328 244 387 
788 354 209 380 
789 317 272 400 
790 202 334 394 
791 315 307 403 
792 195 327 404 
793 308 121 374 
794 394 178 395 
795 335 243 373 
796 107 357 372 
797 201 317 400 
798 352 322 391 
799 338 215 355 
800 215 376 377 
801 373 231 390 
802 307 379 403 
803 228 386 388 
804 287 352 391 
805 141 354 380 
806 376 212 377 
807 177 395 396 
808 379 225 403 
809 177 394 395 
810 275 92 291 
811 278 102 317 
$EndElements
