$MeshFormat
4.1 0 8
$EndMeshFormat
$Entities
7 6 1 0
1 0 0 0 0 
2 4 0 0 0 
3 4 2 0 0 
4 0 2 0 0 
5 0.5 2 0 0 
6 0.8 2 0 0 
7 0.5 1.7 0 0 
1 0 0 0 4 0 0 0 2 1 -2 
2 4 0 0 4 2 0 0 2 2 -3 
3 0.7999999999999998 2 0 4 2 0 0 2 3 -6 
4 0.5 2 0 0.8 2 0 0 2 6 -5 
5 0 2 0 0.5 2 0 0 2 5 -4 
6 0 0 0 0 2 0 0 2 4 -1 
1 0 0 0 4 2 0 0 6 1 2 3 4 5 6 
$EndEntities
$Nodes
14 419 1 419
0 1 0 1
1
0 0 0
0 2 0 1
2
4 0 0
0 3 0 1
3
4 2 0
0 4 0 1
4
0 2 0
0 5 0 1
5
0.5 2 0
0 6 0 1
6
0.8 2 0
0 7 0 1
7
0.5 1.7 0
1 1 0 7
8
9
10
11
12
13
14
0.4999999999990952 0 0
0.9999999999976482 0 0
1.49999999999619 0 0
1.999999999994776 0 0
2.49999999999605 0 0
2.999999999997367 0 0
3.499999999998683 0 0
1 2 0 4
15
16
17
18
4 0.4364749529430081 0
4 0.8538989294129761 0
4 1.253103356509006 0
4 1.634883566886109 0
1 3 0 23
19
20
21
22
23
24
25
26
27
28
29
30
31
32
33
34
35
36
37
38
39
40
41
3.627600981677583 2 0
3.295831152369213 2 0
3.00025783809841 2 0
2.736931950179912 2 0
2.502335228743087 2 0
2.293333377866579 2 0
2.107133822819224 2 0
1.941248910508385 2 0
1.793462250677 2 0
1.661799305965655 2 0
1.544500952550973 2 0
1.440000021476349 2 0
1.34690024270065 2 0
1.263957788809678 2 0
1.190064456108786 2 0
1.124232982900114 2 0
1.065583813382317 2 0
1.013333342080205 2 0
0.9667834547546752 2 0
0.9253122264611928 2 0
0.8883655614615567 2 0
0.8554498263537837 2 0
0.8261252416756726 2 0
1 4 0 16
42
43
44
45
46
47
48
49
50
51
52
53
54
55
56
57
0.7760280163454711 2 0
0.7530137881086434 2 0
0.7309190565618815 2 0
0.7097070816565096 2 0
0.6893425955772308 2 0
0.6697917348429534 2 0
0.6510219970242908 2 0
0.6330021744740415 2 0
0.615702303469729 2 0
0.5990936181014922 2 0
0.5831485067940967 2 0
0.5678404545402889 2 0
0.5531440101422053 2 0
0.5390347354582995 2 0
0.525489174236752 2 0
0.5124848053433059 2 0
1 5 0 10
58
59
60
61
62
63
64
65
66
67
0.4870640694375488 2 0
0.4711160495739334 2 0
0.4514545832734004 2 0
0.4272150131509787 2 0
0.3973313394054821 2 0
0.3604893457548755 2 0
0.3150688164202046 2 0
0.2590722595281483 2 0
0.1900370931986667 2 0
0.1049273044065363 2 0
1 6 0 7
68
69
70
71
72
73
74
0 1.873861913450546 0
0 1.723857592780606 0
0 1.5454714351977 0
0 1.333333313456223 0
0 1.081057176678243 0
0 0.7810485403417395 0
0 0.4242761742895278 0
2 1 0 345
75
76
77
78
79
80
81
82
83
84
85
86
87
88
89
90
91
92
93
94
95
96
97
98
99
100
101
102
103
104
105
106
107
108
109
110
111
112
113
114
115
116
117
118
119
120
121
122
123
124
125
126
127
128
129
130
131
132
133
134
135
136
137
138
139
140
141
142
143
144
145
146
147
148
149
150
151
152
153
154
155
156
157
158
159
160
161
162
163
164
165
166
167
168
169
170
171
172
173
174
175
176
177
178
179
180
181
182
183
184
185
186
187
188
189
190
191
192
193
194
195
196
197
198
199
200
201
202
203
204
205
206
207
208
209
210
211
212
213
214
215
216
217
218
219
220
221
222
223
224
225
226
227
228
229
230
231
232
233
234
235
236
237
238
239
240
241
242
243
244
245
246
247
248
249
250
251
252
253
254
255
256
257
258
259
260
261
262
263
264
265
266
267
268
269
270
271
272
273
274
275
276
277
278
279
280
281
282
283
284
285
286
287
288
289
290
291
292
293
294
295
296
297
298
299
300
301
302
303
304
305
306
307
308
309
310
311
312
313
314
315
316
317
318
319
320
321
322
323
324
325
326
327
328
329
330
331
332
333
334
335
336
337
338
339
340
341
342
343
344
345
346
347
348
349
350
351
352
353
354
355
356
357
358
359
360
361
362
363
364
365
366
367
368
369
370
371
372
373
374
375
376
377
378
379
380
381
382
383
384
385
386
387
388
389
390
391
392
393
394
395
396
397
398
399
400
401
402
403
404
405
406
407
408
409
410
411
412
413
414
415
416
417
418
419
1.158866010780331 1.953657886507313 0
0.9070124384562827 1.969289250547459 0
0.7640562054102303 1.978929201153545 0
0.6604068659336221 1.98406965306323 0
0.5903985582847361 1.986346425811161 0
0.5324857621879391 1.9877280784664 0
0.4790950351152538 1.98830761461362 0
1.403208070312996 1.911517340387791 0
1.731584557166604 1.908659853258187 0
0.4130701730948805 1.976917320677845 0
0.2918580343037123 1.957735189098993 0
0.2293072178537464 0.9344419744358526 0
2.195558387448998 1.841249054886421 0
2.839422833645912 1.752895516033954 0
0.991451161294754 1.968980735130838 0
0.5608180142630623 1.987503304746 0
0.7014067148691074 1.98194460341773 0
0.6243694163037666 1.985561077478188 0
0.8130626208378358 1.978307265102466 0
1.247803491302899 0.4193387311790029 0
0.506242402671653 1.989187841411393 0
2.249999999995413 0.4330127018921585 0
0.1539667713821617 1.437165044871673 0
3.672143781582358 1.030234152144849 0
0.1208900789230911 1.787651114198939 0
3.456182246262076 1.722523875841014 0
3.276877945133675 0.4156435150979928 0
0.1470855736717665 1.59986507459777 0
0.3089853052746931 1.538909509939478 0
0.155774895251394 1.937248308164593 0
0.2382980925082226 1.155968530838658 0
0.4392563784157355 1.092659630533076 0
0.451011015200408 0.8149833894279884 0
0.6581213139471156 0.9691797115100524 0
0.6283740030419795 1.210710802386249 0
0.8197779486006859 1.14546238415032 0
0.8414247575245871 1.354874554485704 0
1.006775114523034 1.259092219045988 0
0.9544638476158523 1.468646409311194 0
1.165056143232069 1.409379115089812 0
0.8029201415404144 1.520649175224814 0
0.9584268349703482 1.631344296061128 0
0.8055042704323629 1.654796412835913 0
1.206850818507431 1.169106141402565 0
1.380085337609235 1.315107463178193 0
1.440018315862561 1.04403501299983 0
1.623207562116391 1.275212797100981 0
1.33876669458322 1.537688756290551 0
1.685114252565749 0.9722357752273776 0
1.903679840738242 1.155743162526092 0
1.852026488907814 1.430627866576153 0
2.098861156533535 1.343885851973164 0
2.186187040515263 1.057885670095675 0
2.386056443783019 1.327577000556926 0
2.478393187500489 0.9822179769074612 0
2.709644395772673 1.217480860660973 0
0.6940826076215687 0.6897876521571772 0
2.7532694468444 0.8489904855993289 0
3.058000066117231 1.088492603972103 0
0.6329406247610883 1.400416485553894 0
0.4992600469329511 1.321590534878719 0
0.4824981013552271 1.462491527040437 0
0.6091499330918619 1.529047388534337 0
0.38004481088565 1.377573602584974 0
1.080080134772426 1.568629559120873 0
1.051991766788522 1.705620568455152 0
0.4785688691226422 0.5573476313540943 0
1.167376368303226 1.672726079355213 0
1.138130485743766 1.797263458707117 0
1.253449000691448 1.756753257468215 0
1.026378368283153 1.807182835002378 0
0.951972377855395 1.746922010349074 0
0.9304245836037788 1.842882753634126 0
0.8680229509602324 1.786071086620147 0
0.8539483630154999 1.856967174018499 0
0.8055329138227081 1.815592877993266 0
0.7937107494784825 1.878807013807384 0
0.7513205543147707 1.840745481463043 0
0.7454319313935642 1.892571859148636 0
0.7085904720460188 1.858777944318435 0
0.710860317541864 1.812039717491136 0
0.6685155995754182 1.836116003769093 0
0.6714538056385846 1.787368135738054 0
0.6336751629939034 1.809019185969996 0
0.6266590068910585 1.852069632850623 0
0.6004051597456423 1.827555941591565 0
0.5946917807184381 1.857862420159268 0
0.5720022942952393 1.840438800264561 0
0.5690889503142792 1.868147437258995 0
0.5469621790115207 1.852371496505081 0
0.5436177208304187 1.879653646785646 0
0.5216204585067443 1.864944873112518 0
0.5250778396346681 1.83581540443795 0
0.4993688984340419 1.846968718121248 0
0.4962502729517918 1.877269697818123 0
0.4731968951463394 1.859964774020333 0
0.4751311412296484 1.828619333387084 0
0.4466893074926698 1.843234689569633 0
0.448041007993757 1.809743524403877 0
0.4133188624739546 1.82801826940967 0
0.4167661929059897 1.785867186282658 0
0.6272284835748598 1.765819860514706 0
0.5896433868225818 1.88437413069284 0
0.5765421473206753 1.808637672152367 0
0.4710291320288527 1.889187763783817 0
0.4932830651132625 1.905334878673307 0
0.4700002430403794 1.916571062150855 0
0.4459906697300491 1.906199121140077 0
0.3768184452513914 1.804113132012178 0
0.477111566405039 1.798765704031735 0
0.3802886359843901 1.756551480811603 0
0.4915360375354219 1.930684631665222 0
0.3744400730376234 1.851948390191785 0
0.3320167732392786 1.824888127336948 0
0.5123526760227142 1.921047372367984 0
0.510690115123326 1.942765193244797 0
0.5296844121439254 1.934236710780833 0
0.701883214945744 1.901059271709246 0
0.4699030321463474 1.941301820605896 0
0.6742252415834841 1.740512160028694 0
0.6323676926053832 1.714224020223981 0
0.5899758751724268 1.736086338984738 0
0.5903623938076045 1.685150900121623 0
0.4273915554391412 1.739978323886685 0
0.3843765391355476 1.705292659427565 0
0.3249559178964809 1.728436536856936 0
0.6437403283813919 1.65329257955284 0
0.5278728336361914 1.953669155685945 0
0.5463286600503748 1.945613126422693 0
0.5468229676048265 1.925674854844209 0
0.5650129884840697 1.937765814833143 0
0.4294201846687284 1.685886914748399 0
0.7291809519282961 1.929599490059317 0
0.3862975652030814 1.648261282487543 0
0.44264064914097 1.632649444667676 0
0.8345797347840789 1.910032435982894 0
0.5624641865181812 1.959592652830694 0
0.5811693154768496 1.950553965559728 0
0.5844736725569205 1.930276819583155 0
0.600781446710895 1.943524212904258 0
0.6044293170303263 1.922404901919944 0
0.6217250914875707 1.936600298147608 0
0.625472188766717 1.91312981100112 0
0.6450420766147915 1.928850624124501 0
0.6504523566282312 1.903358344749217 0
0.6382967844783114 1.951027647708274 0
0.659723928500818 1.948237532576671 0
0.8900121221155719 1.903257264332634 0
0.3290366555033862 1.876141276395129 0
0.2762846211466785 1.848199917899838 0
0.377552858524016 1.901212104917231 0
0.510249983825402 1.962073313591556 0
0.7949267201094662 1.926708828199861 0
0.5507058452787931 1.711297202473464 0
0.549704205593759 1.664259143998884 0
0.553899040188003 1.752387089114841 0
0.5248126426600949 1.737526591727295 0
0.5270277443848133 1.770980805284176 0
0.4993316392884543 1.754648531913187 0
0.628921672041302 1.886413873413499 0
1.206755018959627 0.8674078586137943 0
0.3857226915732307 1.581132557653375 0
0.598706244603657 1.961677683692076 0
0.5189204487948003 1.89582851379251 0
0.9521986163846519 1.90373827001109 0
2.025490703157769 1.572348030142987 0
1.815196262473819 1.672785306822266 0
1.647984314450951 1.536927363560964 0
0.6971259182798411 1.941017320193894 0
0.7183588147903317 1.962197069308569 0
2.643366784703322 1.531652314901218 0
0.4393347982121893 1.980990293602628 0
0.4318214847120557 1.956050781380279 0
0.4022234066716632 1.950436678573179 0
0.3405163029202242 1.965559497134794 0
1.753495706265064 0.3734713932291891 0
0.4895539979374767 1.955354161296062 0
0.4680142900957696 1.963493679587123 0
0.4987382729431967 1.974268159124045 0
2.931306971734262 1.456287580323717 0
0.6535961733337703 1.875538444132961 0
3.274994368794092 1.433080890705487 0
2.743166067760842 0.4262391804351299 0
1.630282477608707 1.71726772517656 0
0.2873632212425736 1.78962482904175 0
2.019048762418382 1.759563625892079 0
0.7482503655946201 1.956178364080726 0
0.4128606907618227 1.866429230343736 0
0.5262653163973494 1.972721110427797 0
0.5430499291737242 1.963542382926403 0
0.5654230283648175 1.894021441853594 0
0.5834503213975308 1.774164640352389 0
0.4235199372977519 1.927881225248287 0
0.2301196366401275 1.946458552269817 0
0.2176674879295072 1.886595227312343 0
0.463401776983576 1.985325101356558 0
1.075303023314967 1.868984937444662 0
2.584164467928267 1.798107682204594 0
2.385095706992538 1.658886057536166 0
0.8728392056558092 1.971212005395649 0
1.23882664450514 1.856139932963432 0
3.64881778519291 0.6451869411779919 0
3.671460763309589 1.423452454373258 0
1.609219493007759 1.877248706014644 0
1.478350478586358 1.802344756747094 0
1.490910349134548 1.631111056003269 0
0.6179352567707479 1.955900116486443 0
3.349746258464951 0.8356617893377223 0
0.3799542010675128 1.971879187758287 0
0.3660946385579515 1.938361630163906 0
1.305121836146103 1.924228596422354 0
1.341228405682084 1.827907040538042 0
1.093608518148721 1.939395228399782 0
1.038572612649351 1.911367534528229 0
0.5021219207176495 1.817734490878209 0
0.5264650060721225 1.804110885390725 0
0.540385076574174 1.902926414668706 0
3.132999235150661 1.727464643817362 0
0.7399560372832776 1.98002635273574 0
0.9514217438380189 1.956233312329284 0
0.4574835740597606 1.717161560327279 0
0.5821290894740766 1.971259649938189 0
0.5468085167486256 1.987481605900615 0
0.6798835117764996 1.983152052162409 0
0.5754944806671933 1.987089759636889 0
0.6073165663268505 1.98683500075987 0
0.6420120857491656 1.984802753350461 0
0.8098314353318986 1.744652593384067 0
0.6906689236820338 1.964663009520967 0
0.7201888200903315 1.983499893796359 0
0.7880207081731051 1.979311319701007 0
0.7758182254947773 1.954589671098061 0
0.8407875340147287 1.976391571966306 0
0.8968800539475358 0.8784722289550274 0
0.5676224532883134 1.916998244502743 0
1.495055803186887 1.918222160629906 0
1.221401967207679 1.937361444740998 0
0.4592636638001109 1.750088829076653 0
0.7387428479793801 0.3561214330433066 0
1.969686562265961 0.7556494247583889 0
0.3238399450219315 1.619424704692684 0
0.4698621299854961 1.678894931851673 0
0.5008585728090257 1.630705889189626 0
0.4610129141217537 1.561970955089277 0
0.3296265349752654 1.924083281769778 0
0.8230461482699802 1.948706839716011 0
0.7575098532270258 1.786099655351804 0
0.7374460738609372 1.716099270653587 0
0.7203469449169564 1.627302819206934 0
0.6928190430996489 1.515698111349104 0
1.368414403850462 1.716458359239367 0
0.5527059843055491 1.789470779978799 0
0.5192392498610651 1.987714668351205 0
0.4935320347187741 1.989057612778037 0
0.5011644819423635 1.724800674646794 0
0.6504467600049375 1.967520008241039 0
0.6695105639905654 1.967433963305908 0
0.279108537990252 1.905586245592229 0
0.5532844859521083 1.975506303159773 0
0.6723184407459898 1.92411341091359 0
0.4486783119764651 1.933485929712204 0
0.87460158806062 1.691773112271507 0
0.5499592417732958 1.821807506454914 0
0.7343609659181105 1.423453384893759 0
0.4448143815341783 1.877707345515885 0
1.535443208479236 0.6996662404502887 0
0.6816252562696306 1.690286169933207 0
0.6317838976879742 1.969613137970145 0
0.5865334491410711 1.908016231253047 0
0.4517837131093851 1.952994032181242 0
0.5123510583040055 1.976848515800021 0
0.5196385629419236 1.711346493066257 0
0.7612042370849272 1.927087472096564 0
0.6074569139410944 1.89811735117692 0
0.9568528039622022 0.6422255807896616 0
0.6715226377948831 1.894322584055384 0
1.866000498901704 1.85980163367727 0
0.3851828075482402 1.493449331457096 0
0.9207673586326884 1.933449857195769 0
0.5015959143677668 1.786051313633241 0
1.037442917749562 1.959113493969961 0
1.036384672128871 1.045647198529488 0
0.650228124146973 1.587274926073839 0
0.5835785194156424 1.616297722236336 0
1.481663725727591 1.475979375005076 0
2.392097433795894 1.859648558925437 0
0.2106731344991669 1.819596507934518 0
0.2250578077672224 1.750779389571008 0
0.2498452609464148 1.668345300429899 0
0.7117464116128235 1.766785262107842 0
0.539944655230137 1.977408770058216 0
0.3671131000628361 1.241415566882359 0
0.2341028097998565 0.6734603273232241 0
0.1485757442616989 1.706099694315644 0
0.7993545205118112 1.958950691674942 0
0.07209303665276112 1.931282525263805 0
2.21742402954093 1.516242734149752 0
0.4538196580127399 1.78063894685819 0
0.8898541142865425 1.939740964490532 0
0.6131792069212441 1.97261119343864 0
3.741667646990617 1.743870183258505 0
0.3394806000628762 1.779303695227101 0
0.451761665129746 1.968924728098432 0
0.5215098448283665 1.68310799648373 0
0.3110194418864083 0.3086189825179893 0
0.8555657593619614 1.941850245369598 0
0.6042602550065224 1.797039460116205 0
2.495425625043204 0.6708190709923508 0
0.250117420142241 1.588016886026421 0
3.399469796926196 1.157554774600756 0
0.4808186032092102 1.973983368333735 0
3.042341769947573 0.7131275842910286 0
0.5668380513749244 1.976190334062309 0
3.685139146065053 0.2994610818437985 0
0.4171872262680745 1.900774337122254 0
1.26622765195097 1.646546270995001 0
1.203501398568382 1.56699395617029 0
0.3338630456406912 1.673952096778925 0
0.5343927845783407 1.543497311400311 0
0.3946760407730138 1.924024503058511 0
0.6097414698445681 1.87436515878107 0
1.001558747220988 1.87407651809312 0
0.1311470976719668 1.264920000490829 0
2.266414536188431 0.8052555629857301 0
0.5301725743292683 1.916566619084157 0
0.2909016741545528 1.440613803711026 0
0.260245257777565 1.319609424896586 0
0.5985224836113574 1.975841463161453 0
0.4777529981193337 1.767403888408059 0
0.4967753932633187 1.673177960225952 0
1.155429532857397 1.889455835592402 0
2.025339016489187 1.896797627219304 0
0.6778695550398497 1.949093047302206 0
1.73240372199521 1.796285635486612 0
0.2242495045459195 1.516227239654854 0
0.1295164388759867 1.872705932720791 0
2.168523517911724 1.669657900521481 0
0.7743804060507302 1.905062269725551 0
0.9949287621681748 1.926147015254309 0
0.6793630033206804 1.867543448771909 0
0.871945714320938 1.591559136351711 0
0.7168407714936283 1.316115804201558 0
0.5692586666765346 1.460470386311856 0
0.4807811465659023 1.711017434352219 0
0.4792962506293209 1.737520153120698 0
$EndNodes
$Elements
14 843 1 843
0 1 15 1
1 1 
0 2 15 1
2 2 
0 3 15 1
3 3 
0 4 15 1
4 4 
0 5 15 1
5 5 
0 6 15 1
6 6 
0 7 15 1
7 7 
1 1 1 8
8 1 8 
9 8 9 
10 9 10 
11 10 11 
12 11 12 
13 12 13 
14 13 14 
15 14 2 
1 2 1 5
16 2 15 
17 15 16 
18 16 17 
19 17 18 
20 18 3 
1 3 1 24
21 3 19 
22 19 20 
23 20 21 
24 21 22 
25 22 23 
26 23 24 
27 24 25 
28 25 26 
29 26 27 
30 27 28 
31 28 29 
32 29 30 
33 30 31 
34 31 32 
35 32 33 
36 33 34 
37 34 35 
38 35 36 
39 36 37 
40 37 38 
41 38 39 
42 39 40 
43 40 41 
44 41 6 
1 4 1 17
45 6 42 
46 42 43 
47 43 44 
48 44 45 
49 45 46 
50 46 47 
51 47 48 
52 48 49 
53 49 50 
54 50 51 
55 51 52 
56 52 53 
57 53 54 
58 54 55 
59 55 56 
60 56 57 
61 57 5 
1 5 1 11
62 5 58 
63 58 59 
64 59 60 
65 60 61 
66 61 62 
67 62 63 
68 63 64 
69 64 65 
70 65 66 
71 66 67 
72 67 4 
1 6 1 8
73 4 68 
74 68 69 
75 69 70 
76 70 71 
77 71 72 
78 72 73 
79 73 74 
80 74 1 
2 1 2 763
81 244 91 303 
82 166 165 238 
83 102 97 409 
84 290 326 337 
85 204 291 309 
86 326 178 337 
87 314 123 340 
88 111 113 115 
89 106 109 135 
90 69 70 102 
91 70 97 102 
92 115 117 323 
93 313 94 349 
94 137 134 324 
95 128 273 371 
96 291 265 309 
97 151 210 227 
98 190 226 251 
99 197 229 358 
100 318 236 352 
101 363 362 368 
102 106 135 366 
103 124 123 314 
104 140 143 145 
105 146 145 147 
106 116 140 146 
107 229 317 358 
108 148 147 149 
109 192 207 243 
110 115 113 415 
111 296 79 299 
112 88 245 254 
113 120 235 340 
114 151 149 210 
115 245 88 272 
116 128 245 273 
117 228 196 230 
118 100 256 277 
119 238 165 291 
120 159 234 395 
121 271 288 396 
122 88 254 292 
123 263 80 327 
124 174 172 262 
125 169 166 238 
126 79 296 402 
127 234 159 255 
128 254 256 292 
129 251 226 253 
130 228 230 231 
131 159 156 255 
132 127 124 314 
133 279 82 286 
134 94 235 349 
135 116 146 336 
136 82 279 310 
137 200 259 362 
138 89 294 413 
139 192 153 207 
140 72 86 105 
141 150 149 151 
142 243 244 303 
143 201 323 341 
144 152 151 153 
145 235 94 340 
146 94 10 250 
147 158 156 159 
148 149 147 222 
149 123 120 340 
150 198 312 372 
151 196 176 266 
152 266 176 381 
153 94 250 340 
154 154 153 192 
155 186 190 251 
156 285 275 286 
157 91 244 304 
158 201 197 358 
159 70 71 97 
160 203 211 264 
161 153 151 412 
162 121 125 242 
163 256 100 292 
164 158 159 160 
165 111 115 338 
166 145 143 271 
167 262 172 339 
168 109 134 135 
169 228 346 378 
170 115 323 324 
171 227 210 320 
172 125 240 241 
173 243 207 244 
174 9 94 313 
175 333 297 365 
176 121 242 359 
177 175 198 372 
178 68 69 99 
179 160 159 161 
180 197 196 228 
181 135 134 417 
182 136 135 417 
183 68 99 410 
184 222 147 239 
185 95 253 345 
186 113 116 415 
187 136 318 352 
188 218 219 334 
189 221 218 334 
190 116 139 140 
191 290 232 326 
192 106 108 109 
193 239 294 353 
194 146 147 148 
195 241 351 408 
196 235 308 349 
197 140 145 146 
198 370 68 410 
199 232 290 354 
200 90 297 333 
201 266 178 326 
202 294 239 413 
203 13 101 257 
204 140 142 143 
205 109 110 416 
206 260 87 406 
207 72 105 397 
208 265 177 343 
209 110 111 416 
210 134 137 417 
211 87 260 411 
212 157 156 158 
213 187 174 262 
214 242 241 258 
215 323 201 357 
216 264 211 333 
217 250 314 340 
218 148 149 150 
219 253 95 328 
220 181 180 186 
221 150 151 152 
222 152 153 154 
223 361 99 362 
224 193 186 251 
225 160 161 162 
226 241 260 351 
227 277 256 384 
228 151 227 412 
229 111 112 113 
230 268 269 332 
231 186 189 190 
232 103 236 315 
233 237 214 281 
234 162 161 163 
235 63 249 283 
236 258 278 279 
237 134 109 416 
238 328 81 385 
239 72 73 86 
240 244 261 293 
241 225 284 319 
242 225 187 262 
243 117 115 415 
244 200 362 363 
245 105 86 106 
246 223 187 225 
247 190 202 226 
248 186 180 189 
249 60 246 270 
250 192 350 414 
251 275 144 286 
252 231 230 232 
253 269 224 332 
254 11 96 250 
255 102 363 368 
256 247 335 344 
257 263 327 345 
258 179 169 180 
259 163 177 265 
260 241 240 260 
261 190 191 202 
262 180 169 238 
263 66 104 268 
264 125 126 240 
265 114 119 122 
266 122 280 325 
267 147 145 396 
268 145 271 396 
269 113 114 139 
270 125 241 242 
271 121 124 125 
272 9 10 94 
273 167 168 289 
274 155 154 156 
275 296 237 402 
276 195 176 196 
277 83 278 408 
278 226 202 263 
279 71 72 397 
280 193 251 252 
281 268 104 269 
282 96 12 257 
283 270 252 385 
284 163 161 177 
285 257 101 386 
286 223 225 319 
287 253 328 385 
288 22 23 272 
289 181 186 193 
290 165 265 291 
291 176 158 381 
292 313 141 379 
293 11 12 96 
294 261 77 293 
295 165 163 265 
296 329 7 346 
297 211 296 387 
298 190 189 191 
299 171 184 289 
300 210 149 222 
301 253 226 345 
302 222 239 353 
303 203 205 211 
304 279 278 310 
305 309 265 343 
306 212 237 296 
307 230 266 326 
308 202 203 264 
309 39 40 274 
310 128 130 245 
311 114 122 391 
312 61 62 84 
313 318 136 393 
314 179 180 181 
315 17 18 277 
316 81 270 385 
317 358 317 393 
318 220 221 330 
319 230 196 266 
320 227 320 369 
321 317 229 378 
322 64 65 85 
323 10 11 250 
324 13 14 101 
325 278 258 408 
326 211 212 296 
327 168 171 289 
328 28 29 278 
329 367 74 379 
330 282 133 386 
331 119 121 359 
332 246 247 377 
333 330 221 331 
334 283 249 284 
335 61 84 246 
336 236 103 352 
337 216 220 281 
338 198 206 295 
339 156 154 414 
340 214 216 281 
341 336 117 415 
342 64 85 249 
343 164 163 165 
344 212 214 237 
345 210 222 380 
346 63 64 249 
347 250 96 314 
348 109 108 110 
349 31 32 285 
350 333 211 387 
351 132 257 386 
352 237 281 374 
353 34 35 287 
354 60 61 246 
355 244 207 261 
356 101 276 282 
357 247 267 335 
358 167 289 290 
359 16 17 98 
360 162 163 164 
361 133 132 386 
362 244 293 304 
363 98 17 277 
364 116 113 139 
365 202 191 203 
366 122 325 390 
367 171 173 184 
368 16 98 276 
369 12 13 257 
370 141 367 379 
371 135 136 138 
372 140 139 142 
373 80 263 365 
374 143 142 144 
375 143 144 275 
376 130 133 254 
377 160 162 178 
378 275 285 311 
379 245 130 254 
380 19 20 100 
381 87 273 360 
382 211 205 212 
383 58 59 81 
384 322 194 341 
385 257 132 382 
386 263 202 264 
387 125 124 126 
388 231 232 233 
389 62 63 283 
390 260 240 411 
391 254 133 256 
392 339 182 389 
393 157 158 176 
394 251 253 385 
395 154 192 414 
396 66 67 104 
397 276 98 282 
398 194 322 364 
399 216 218 220 
400 75 287 405 
401 195 196 197 
402 361 269 410 
403 258 241 408 
404 161 159 395 
405 267 182 335 
406 252 251 385 
407 155 156 157 
408 255 156 414 
409 139 114 391 
410 246 84 247 
411 15 16 276 
412 207 153 347 
413 273 87 411 
414 99 69 368 
415 221 334 407 
416 237 374 402 
417 316 317 404 
418 175 185 198 
419 113 112 114 
420 324 134 338 
421 323 322 341 
422 247 344 377 
423 100 20 292 
424 20 21 292 
425 105 106 366 
426 316 7 418 
427 189 180 238 
428 55 56 80 
429 47 48 78 
430 53 54 90 
431 51 52 79 
432 49 50 92 
433 233 232 354 
434 73 74 367 
435 168 166 169 
436 117 322 323 
437 98 277 384 
438 21 22 88 
439 45 46 91 
440 279 286 325 
441 65 66 268 
442 111 110 112 
443 54 55 297 
444 50 51 300 
445 52 53 299 
446 48 49 301 
447 178 266 381 
448 43 44 293 
449 46 47 298 
450 3 19 375 
451 248 283 284 
452 233 354 403 
453 38 39 76 
454 203 204 205 
455 231 329 346 
456 220 218 221 
457 192 243 334 
458 42 43 77 
459 334 243 407 
460 8 9 313 
461 117 302 322 
462 164 165 166 
463 264 333 365 
464 272 23 360 
465 59 60 270 
466 249 85 319 
467 225 262 389 
468 77 261 306 
469 228 231 346 
470 270 246 377 
471 363 102 383 
472 99 361 410 
473 245 272 273 
474 90 54 297 
475 78 48 301 
476 79 52 299 
477 92 50 300 
478 317 378 404 
479 178 162 337 
480 55 80 297 
481 53 90 299 
482 51 79 300 
483 49 92 301 
484 306 261 347 
485 130 132 133 
486 88 22 272 
487 164 166 167 
488 36 37 89 
489 290 289 354 
490 47 78 298 
491 198 199 206 
492 212 213 214 
493 37 38 294 
494 91 46 298 
495 242 258 280 
496 24 25 87 
497 67 4 370 
498 274 40 307 
499 170 169 179 
500 27 28 83 
501 287 35 355 
502 100 277 375 
503 21 88 292 
504 152 154 155 
505 4 68 370 
506 287 271 405 
507 41 6 93 
508 308 235 356 
509 30 31 82 
510 33 34 75 
511 239 147 396 
512 76 39 274 
513 40 41 307 
514 252 270 377 
515 44 45 304 
516 277 18 375 
517 223 319 332 
518 85 268 332 
519 6 42 305 
520 116 336 415 
521 278 29 310 
522 198 295 312 
523 393 136 417 
524 128 129 130 
525 56 57 327 
526 137 393 417 
527 222 373 380 
528 167 166 168 
529 203 191 204 
530 276 101 388 
531 324 323 357 
532 334 219 350 
533 357 201 358 
534 138 136 352 
535 29 30 310 
536 206 209 316 
537 273 272 360 
538 205 204 309 
539 8 313 379 
540 214 215 216 
541 212 205 213 
542 77 43 293 
543 96 257 382 
544 362 99 368 
545 232 230 326 
546 1 8 379 
547 26 27 351 
548 296 299 387 
549 32 33 311 
550 121 123 124 
551 126 127 128 
552 311 75 405 
553 80 56 327 
554 160 178 381 
555 285 32 311 
556 231 233 329 
557 45 91 304 
558 188 187 223 
559 58 81 328 
560 35 36 355 
561 316 209 317 
562 179 181 182 
563 42 77 305 
564 181 193 335 
565 106 107 108 
566 226 263 345 
567 38 76 294 
568 14 2 388 
569 101 14 388 
570 83 28 278 
571 213 205 309 
572 137 324 357 
573 18 3 375 
574 193 252 344 
575 258 279 280 
576 148 150 302 
577 78 301 330 
578 167 290 337 
579 233 403 419 
580 214 213 215 
581 301 92 342 
582 262 339 389 
583 84 62 283 
584 168 169 170 
585 119 120 121 
586 280 279 325 
587 183 174 187 
588 114 118 119 
589 293 44 304 
590 168 170 171 
591 74 1 379 
592 89 37 294 
593 197 228 229 
594 164 167 337 
595 227 306 347 
596 291 204 399 
597 23 24 360 
598 126 128 371 
599 302 321 322 
600 189 238 399 
601 2 15 388 
602 130 129 132 
603 224 269 361 
604 57 5 95 
605 5 58 328 
606 343 177 348 
607 219 217 234 
608 351 83 408 
609 82 31 285 
610 75 34 287 
611 216 217 218 
612 302 117 336 
613 91 298 303 
614 271 287 288 
615 288 287 355 
616 171 172 173 
617 238 291 399 
618 93 6 305 
619 122 119 359 
620 162 164 337 
621 132 129 382 
622 280 122 359 
623 322 321 364 
624 133 282 384 
625 171 170 172 
626 194 176 195 
627 216 215 217 
628 274 307 380 
629 143 275 405 
630 259 200 376 
631 225 389 394 
632 170 179 339 
633 281 220 342 
634 247 248 267 
635 286 144 325 
636 224 223 332 
637 263 264 365 
638 41 93 307 
639 289 184 354 
640 182 267 389 
641 198 185 199 
642 128 127 129 
643 97 71 397 
644 298 78 331 
645 319 85 332 
646 126 124 127 
647 87 25 406 
648 182 181 335 
649 158 160 381 
650 152 155 321 
651 307 320 380 
652 354 184 403 
653 127 314 398 
654 335 193 344 
655 302 150 321 
656 30 82 310 
657 179 182 339 
658 24 87 360 
659 209 236 318 
660 355 89 413 
661 229 228 378 
662 271 143 405 
663 121 120 123 
664 150 152 321 
665 33 75 311 
666 106 86 107 
667 57 95 327 
668 234 217 348 
669 312 295 419 
670 218 217 219 
671 261 207 347 
672 306 227 369 
673 219 234 255 
674 294 76 353 
675 247 84 248 
676 85 65 268 
677 330 301 342 
678 86 73 367 
679 173 174 175 
680 256 133 384 
681 327 95 345 
682 217 215 348 
683 213 309 343 
684 305 77 306 
685 146 148 336 
686 119 118 120 
687 173 172 174 
688 27 83 351 
689 114 112 118 
690 297 80 365 
691 101 282 386 
692 248 84 283 
693 215 343 348 
694 206 208 209 
695 78 330 331 
696 26 351 406 
697 240 126 371 
698 204 191 399 
699 81 59 270 
700 120 118 235 
701 36 89 355 
702 206 199 208 
703 307 93 320 
704 137 357 358 
705 215 213 343 
706 108 107 131 
707 342 92 374 
708 248 284 394 
709 183 187 188 
710 110 108 308 
711 188 223 224 
712 282 98 384 
713 148 302 336 
714 284 249 319 
715 172 170 339 
716 314 96 398 
717 157 176 194 
718 95 5 328 
719 303 298 331 
720 295 316 418 
721 131 107 141 
722 92 300 374 
723 236 208 315 
724 184 173 372 
725 173 175 372 
726 243 303 407 
727 275 311 405 
728 108 131 308 
729 308 131 349 
730 403 312 419 
731 82 285 286 
732 104 67 370 
733 25 26 406 
734 175 174 183 
735 195 197 201 
736 131 141 313 
737 175 183 185 
738 400 97 401 
739 107 86 367 
740 188 224 259 
741 348 177 395 
742 19 100 375 
743 177 161 395 
744 281 342 374 
745 200 363 392 
746 104 370 410 
747 317 318 393 
748 194 195 341 
749 135 138 366 
750 115 324 338 
751 295 206 316 
752 131 313 349 
753 90 333 387 
754 344 252 377 
755 15 276 388 
756 191 189 399 
757 199 185 200 
758 219 255 350 
759 76 274 373 
760 242 280 359 
761 329 233 419 
762 220 330 342 
763 389 267 394 
764 299 90 387 
765 209 208 236 
766 347 153 412 
767 155 157 364 
768 331 221 407 
769 235 118 356 
770 234 348 395 
771 259 361 362 
772 112 110 356 
773 374 300 402 
774 300 79 402 
775 141 107 367 
776 321 155 364 
777 7 329 418 
778 363 315 392 
779 346 7 378 
780 315 208 392 
781 317 209 318 
782 137 358 393 
783 320 210 380 
784 320 93 369 
785 7 316 404 
786 96 382 398 
787 195 201 341 
788 259 224 361 
789 118 112 356 
790 383 102 409 
791 192 334 350 
792 288 355 413 
793 93 305 369 
794 142 139 391 
795 110 308 356 
796 353 76 373 
797 351 260 406 
798 284 225 394 
799 267 248 394 
800 157 194 364 
801 188 259 376 
802 97 397 401 
803 373 274 380 
804 305 306 369 
805 129 127 398 
806 144 142 390 
807 269 104 410 
808 222 353 373 
809 200 185 376 
810 103 315 383 
811 315 363 383 
812 183 188 376 
813 185 183 376 
814 325 144 390 
815 390 142 391 
816 184 372 403 
817 352 103 400 
818 366 138 401 
819 382 129 398 
820 208 199 392 
821 371 273 411 
822 97 400 409 
823 240 371 411 
824 239 396 413 
825 199 200 392 
826 303 331 407 
827 227 347 412 
828 350 255 414 
829 122 390 391 
830 138 400 401 
831 338 134 416 
832 396 288 413 
833 372 312 403 
834 400 103 409 
835 105 366 401 
836 378 7 404 
837 418 329 419 
838 397 105 401 
839 138 352 400 
840 103 383 409 
841 295 418 419 
842 111 338 416 
843 69 102 368 
$EndElements
