$MeshFormat
4.1 0 8
$EndMeshFormat
$Entities
7 6 1 0
1 0 0 0 0 
2 4 0 0 0 
3 4 2 0 0 
4 0 2 0 0 
5 0.5 2 0 0 
6 0.8 2 0 0 
7 0.5 1.7 0 0 
1 0 0 0 4 0 0 0 2 1 -2 
2 4 0 0 4 2 0 0 2 2 -3 
3 0.7999999999999998 2 0 4 2 0 0 2 3 -6 
4 0.5 2 0 0.8 2 0 0 2 6 -5 
5 0 2 0 0.5 2 0 0 2 5 -4 
6 0 0 0 0 2 0 0 2 4 -1 
1 0 0 0 4 2 0 0 6 1 2 3 4 5 6 
$EndEntities
$Nodes
14 149 1 149
0 1 0 1
1
0 0 0
0 2 0 1
2
4 0 0
0 3 0 1
3
4 2 0
0 4 0 1
4
0 2 0
0 5 0 1
5
0.5 2 0
0 6 0 1
6
0.8 2 0
0 7 0 1
7
0.5 1.7 0
1 1 0 7
8
9
10
11
12
13
14
0.4999999999990952 0 0
0.9999999999976482 0 0
1.49999999999619 0 0
1.999999999994776 0 0
2.49999999999605 0 0
2.999999999997367 0 0
3.499999999998683 0 0
1 2 0 3
15
16
17
4 0.4999999999988241 0
4 0.999999999997388 0
4 1.499999999998683 0
1 3 0 12
18
19
20
21
22
23
24
25
26
27
28
29
3.534215864874533 2 0
3.122670393836883 2 0
2.759047806573175 2 0
2.43776761095614 2 0
2.153899195962983 2 0
1.903086165929416 2 0
1.681479346493034 2 0
1.485677710348523 2 0
1.312676423485152 2 0
1.159820443438212 2 0
1.024763953589364 2 0
0.9054342384398928 2 0
1 4 0 2
30
31
0.7000000000001807 2 0
0.6000000000001664 2 0
1 5 0 4
32
33
34
35
0.3999999999999999 2 0
0.3000000000006934 2 0
0.2000000000008322 2 0
0.1000000000004161 2 0
1 6 0 8
36
37
38
39
40
41
42
43
0 1.902093411773226 0
0 1.785015414999563 0
0 1.645012022352461 0
0 1.477594105836163 0
0 1.277393567296201 0
0 1.037991116209415 0
0 0.7517104783282322 0
0 0.4093723866549412 0
2 1 0 106
44
45
46
47
48
49
50
51
52
53
54
55
56
57
58
59
60
61
62
63
64
65
66
67
68
69
70
71
72
73
74
75
76
77
78
79
80
81
82
83
84
85
86
87
88
89
90
91
92
93
94
95
96
97
98
99
100
101
102
103
104
105
106
107
108
109
110
111
112
113
114
115
116
117
118
119
120
121
122
123
124
125
126
127
128
129
130
131
132
133
134
135
136
137
138
139
140
141
142
143
144
145
146
147
148
149
1.085203292931079 1.886982567391474 0
0.2260379318099468 0.9025741926273041 0
1.590998593855527 1.828967774439819 0
2.300417959711897 1.763865608077254 0
2.942080062233558 1.70176475232916 0
0.8531847604378358 1.910893274759206 0
1.291378817118301 0.4264928944241787 0
0.2500000000007628 1.913397459621917 0
0.1591834604893547 1.377493836566182 0
2.230185443993594 0.4207479729125368 0
0.649830791441655 1.913429414470833 0
0.106576250449798 1.720606329488454 0
0.4499659315294999 1.913377643995246 0
3.236875324661192 0.4179770163997483 0
3.569040371294099 1.289656924466761 0
0.08885366119291632 1.841377163737874 0
0.2044621189411965 1.80142672895549 0
0.222820110564021 1.674587376563368 0
0.3113053603419015 1.747985168426357 0
0.3334463226492619 1.63238448470916 0
0.2475157972236228 1.554272429129039 0
0.3695292915883707 1.511364394669992 0
1.756661599270126 0.4105179595201487 0
1.523783798873348 0.7861210785437206 0
1.076431857184198 0.799475678483523 0
1.330163831279812 1.136877294917442 0
1.007676406222063 1.137890492978489 0
1.680773837837095 1.117513485175976 0
1.135880522158602 1.383501325877294 0
0.8902558286578103 1.385469547445486 0
0.7538773798015896 1.187758696902907 0
0.6532861960966216 1.413753011681844 0
0.5292585212087002 1.247118925893728 0
0.8009183019959518 1.572837617421367 0
0.6213449209880146 0.9846729795588487 0
0.8838667070596414 0.436295161190202 0
1.002424989586218 1.566111660998469 0
1.229430545873016 1.587284310521817 0
1.38210771159333 1.454386662833812 0
0.901755764161927 1.726039500152761 0
0.7439604988536224 1.711590163730281 0
0.6484510965409704 1.587483164799414 0
2.000779319180425 0.8100140572692438 0
2.452493556057511 0.8338553271782205 0
2.069517769694118 1.200121340531848 0
2.477290514145836 1.245209514176073 0
1.798513553682255 1.413933734154483 0
2.735377686554982 0.422282472138385 0
3.011521725977452 0.7699428860743127 0
0.1892807674617096 1.164790904643357 0
0.2409705038432475 0.6210708509603745 0
1.073723608575176 1.717498795324931 0
2.032197426748965 1.794830036268509 0
1.401341267412609 1.851424401447122 0
2.140527070595113 1.516877204163599 0
3.326819996698701 1.670080758460457 0
3.106551137699734 1.379575747567851 0
2.601006344799291 1.742035199317258 0
0.519408873807648 1.512923815735894 0
1.79631784719943 1.821973483669723 0
0.5499661204952155 1.91333418405983 0
0.6000000000001952 1.826404004957438 0
1.454189664052612 1.655034625302958 0
0.7500000000000908 1.913397459621712 0
1.220138119677685 1.865525311773883 0
0.4530993040525653 0.794264800653792 0
0.5054522667756376 0.4626577275352143 0
3.556667516962109 0.7727805660048943 0
0.5007396532617772 1.832249104283978 0
0.3959879522146698 1.816990213795166 0
0.9650990960146284 1.904542761784017 0
0.3500000000003466 1.913397459622157 0
0.1172740793200412 1.582031296711277 0
0.3378996659094369 1.295287626644419 0
0.4451693305702127 1.60856105693705 0
0.8367900680812186 0.9358371672499446 0
2.722997384632553 1.454513632453481 0
0.152730598991943 1.913947835788084 0
0.8026646475787871 1.818784557825422 0
0.4031727636221596 1.708417764351585 0
0.6150992963511916 1.718113377074002 0
0.6935925390375903 1.816953162946615 0
2.448447854776938 1.544500231637533 0
0.3023510862997754 1.838639406084217 0
2.79794123689773 1.118415313258011 0
1.567244357909448 1.488787901888163 0
0.2996785279620248 1.427740926274141 0
0.3928201852383955 1.064784905003575 0
0.4380557504602431 1.393390423445588 0
3.686333159074605 1.68724629101659 0
1.680736274134376 1.644537580358854 0
3.28078280188563 1.054179099801151 0
0.5437421076366962 1.617137796860323 0
0.5497534894514852 1.763397020467822 0
1.27576464111822 1.735353488874142 0
3.633974596214175 0.3660254037851586 0
0.2496349765934499 0.2526117033798356 0
1.53053206076047 1.297207346933674 0
0.07306781381553416 1.927485662413225 0
0.4615420205085713 1.763693594852517 0
0.9066872789088386 1.833248094316832 0
0.9934190418990971 1.811467496156504 0
1.889658434472028 1.638430407723034 0
0.7160736538583873 0.2288146345037432 0
0.7138636474236771 0.7003300321945524 0
2.285643534748071 1.05284220281906 0
$EndNodes
$Elements
14 303 1 303
0 1 15 1
1 1 
0 2 15 1
2 2 
0 3 15 1
3 3 
0 4 15 1
4 4 
0 5 15 1
5 5 
0 6 15 1
6 6 
0 7 15 1
7 7 
1 1 1 8
8 1 8 
9 8 9 
10 9 10 
11 10 11 
12 11 12 
13 12 13 
14 13 14 
15 14 2 
1 2 1 4
16 2 15 
17 15 16 
18 16 17 
19 17 3 
1 3 1 13
20 3 18 
21 18 19 
22 19 20 
23 20 21 
24 21 22 
25 22 23 
26 23 24 
27 24 25 
28 25 26 
29 26 27 
30 27 28 
31 28 29 
32 29 6 
1 4 1 3
33 6 30 
34 30 31 
35 31 5 
1 5 1 5
36 5 32 
37 32 33 
38 33 34 
39 34 35 
40 35 4 
1 6 1 9
41 4 36 
42 36 37 
43 37 38 
44 38 39 
45 39 40 
46 40 41 
47 41 42 
48 42 43 
49 43 1 
2 1 2 254
50 52 64 116 
51 44 95 108 
52 52 40 93 
53 81 106 138 
54 71 67 86 
55 70 72 73 
56 92 111 135 
57 87 92 128 
58 39 52 116 
59 88 89 98 
60 50 66 67 
61 87 91 92 
62 67 66 86 
63 60 51 121 
64 75 102 132 
65 71 86 88 
66 70 69 72 
67 75 73 77 
68 68 69 70 
69 68 67 69 
70 108 95 138 
71 91 57 92 
72 75 77 85 
73 13 57 91 
74 92 57 111 
75 40 41 93 
76 73 72 80 
77 77 83 84 
78 50 67 68 
79 71 88 90 
80 90 88 98 
81 74 73 75 
82 50 10 66 
83 59 60 121 
84 81 82 106 
85 64 52 130 
86 72 69 82 
87 90 98 146 
88 45 109 131 
89 52 93 117 
90 80 72 81 
91 90 129 141 
92 77 80 83 
93 68 119 148 
94 9 50 79 
95 12 13 91 
96 66 53 86 
97 77 84 85 
98 58 99 100 
99 76 75 132 
100 70 73 74 
101 98 89 126 
102 75 85 102 
103 22 23 96 
104 39 40 52 
105 59 55 60 
106 37 55 59 
107 109 78 131 
108 69 67 71 
109 11 53 66 
110 41 45 93 
111 37 38 55 
112 25 26 97 
113 9 10 50 
114 100 128 135 
115 41 42 45 
116 36 37 59 
117 77 73 80 
118 71 90 141 
119 86 53 87 
120 89 87 128 
121 84 83 122 
122 16 17 58 
123 51 60 127 
124 11 12 53 
125 80 81 95 
126 60 61 62 
127 74 75 76 
128 105 124 125 
129 50 68 79 
130 10 11 66 
131 124 7 136 
132 70 74 119 
133 89 88 149 
134 38 39 116 
135 9 79 147 
136 53 12 91 
137 113 62 123 
138 128 92 135 
139 85 84 124 
140 74 78 119 
141 83 80 95 
142 16 58 111 
143 96 23 103 
144 118 7 123 
145 94 43 140 
146 82 69 141 
147 13 14 57 
148 19 20 48 
149 18 19 99 
150 61 55 116 
151 99 58 133 
152 7 124 137 
153 21 22 47 
154 79 68 148 
155 93 45 131 
156 5 32 56 
157 62 61 63 
158 31 5 104 
159 5 56 104 
160 20 21 101 
161 30 31 54 
162 42 43 94 
163 104 56 112 
164 54 31 104 
165 119 78 148 
166 47 22 96 
167 78 109 148 
168 1 8 140 
169 19 48 99 
170 15 16 111 
171 56 32 115 
172 32 33 115 
173 54 104 105 
174 105 104 112 
175 60 55 61 
176 97 26 108 
177 110 94 140 
178 48 20 101 
179 65 102 118 
180 33 34 51 
181 24 25 46 
182 112 56 113 
183 99 48 100 
184 23 24 103 
185 68 70 119 
186 27 28 44 
187 98 96 146 
188 33 51 115 
189 113 56 115 
190 21 47 101 
191 69 71 141 
192 26 27 108 
193 113 123 143 
194 64 61 116 
195 3 18 133 
196 60 62 127 
197 6 30 107 
198 87 53 91 
199 28 29 114 
200 30 54 107 
201 29 6 49 
202 46 25 97 
203 95 81 138 
204 55 38 116 
205 102 85 136 
206 81 72 82 
207 87 89 149 
208 95 44 145 
209 2 15 139 
210 14 2 139 
211 100 48 120 
212 51 34 121 
213 35 4 142 
214 58 17 133 
215 4 36 142 
216 52 117 130 
217 34 35 121 
218 24 46 103 
219 17 3 133 
220 62 113 127 
221 63 118 123 
222 58 100 135 
223 88 86 149 
224 106 97 138 
225 49 6 107 
226 100 120 128 
227 63 64 65 
228 86 87 149 
229 47 96 98 
230 48 101 120 
231 27 44 108 
232 44 28 114 
233 62 63 123 
234 63 65 118 
235 45 42 94 
236 29 49 114 
237 45 94 109 
238 124 84 125 
239 63 61 64 
240 36 59 142 
241 83 95 145 
242 113 115 127 
243 74 76 78 
244 54 105 125 
245 65 130 132 
246 8 110 140 
247 43 1 140 
248 76 117 131 
249 117 93 131 
250 111 58 135 
251 46 97 106 
252 107 54 125 
253 102 65 132 
254 103 46 134 
255 15 111 139 
256 110 8 147 
257 49 107 122 
258 85 124 136 
259 8 9 147 
260 120 101 126 
261 124 105 137 
262 46 106 134 
263 115 51 127 
264 57 14 139 
265 7 118 136 
266 106 82 129 
267 109 94 110 
268 111 57 139 
269 89 120 126 
270 101 47 126 
271 105 112 137 
272 18 99 133 
273 117 76 132 
274 112 113 143 
275 122 107 125 
276 120 89 128 
277 65 64 130 
278 78 76 131 
279 47 98 126 
280 118 102 136 
281 130 117 132 
282 97 108 138 
283 109 110 148 
284 122 83 144 
285 110 79 148 
286 121 35 142 
287 7 137 143 
288 59 121 142 
289 137 112 143 
290 96 103 146 
291 44 114 145 
292 123 7 143 
293 106 129 134 
294 49 122 144 
295 114 49 144 
296 129 82 141 
297 79 110 147 
298 84 122 125 
299 129 90 134 
300 144 83 145 
301 134 90 146 
302 103 134 146 
303 114 144 145 
$EndElements
