$MeshFormat
2.2 0 8
$EndMeshFormat
$PhysicalNames
5
1 1 "inner_boundary"
1 2 "outer_boundary"
1 3 "symmetry_x"
1 4 "symmetry_y"
2 5 "domain"
$EndPhysicalNames
$ParametricNodes
122
1 15 0 0 0 1
2 0 15 0 0 2
3 150 0 0 0 3
4 0 150 0 0 4
5 0 0 0 0 5
6 14.81532510892707 2.346516975603455 0 1 1 3.298672286269282
7 14.26584774442731 4.635254915624197 0 1 1 3.455751918948772
8 13.36509786282553 6.809857496093182 0 1 1 3.612831551628261
9 12.13525491562423 8.816778784387074 0 1 1 3.76991118430775
10 10.60660171779824 10.60660171779819 0 1 1 3.926990816987239
11 8.816778784387132 12.13525491562419 0 1 1 4.084070449666728
12 6.809857496093228 13.36509786282551 0 1 1 4.241150082346219
13 4.635254915624227 14.2658477444273 0 1 1 4.398229715025709
14 2.346516975603479 14.81532510892706 0 1 1 4.555309347705199
15 148.1532510892707 23.46516975603455 0 1 2 3.298672286269282
16 142.6584774442731 46.35254915624197 0 1 2 3.455751918948772
17 133.6509786282552 68.09857496093188 0 1 2 3.612831551628261
18 121.3525491562422 88.1677878438709 0 1 2 3.769911184307751
19 106.0660171779822 106.0660171779821 0 1 2 3.926990816987241
20 88.16778784387111 121.352549156242 0 1 2 4.08407044966673
21 68.09857496093217 133.6509786282551 0 1 2 4.24115008234622
22 46.35254915624213 142.658477444273 0 1 2 4.39822971502571
23 23.46516975603465 148.1532510892706 0 1 2 4.5553093477052
24 23.47062831806369 0 0 1 3 8.470628318063691
25 32.78831941717196 0 0 1 3 17.78831941717197
26 43.03777969775804 0 0 1 3 28.03777969775804
27 54.31218601711323 0 0 1 3 39.31218601711323
28 66.71403289780332 0 0 1 3 51.71403289780331
29 80.35606448277913 0 0 1 3 65.35606448277913
30 95.36229927474463 0 0 1 3 80.36229927474463
31 111.8691574938757 0 0 1 3 96.86915749387572
32 130.0267015160026 0 0 1 3 115.0267015160026
33 0 23.47062831806369 0 1 4 8.470628318063691
34 0 32.78831941717196 0 1 4 17.78831941717197
35 0 43.03777969775804 0 1 4 28.03777969775804
36 0 54.31218601711323 0 1 4 39.31218601711323
37 0 66.71403289780332 0 1 4 51.71403289780331
38 0 80.35606448277913 0 1 4 65.35606448277913
39 0 95.36229927474463 0 1 4 80.36229927474463
40 0 111.8691574938757 0 1 4 96.86915749387572
41 0 130.0267015160026 0 1 4 115.0267015160026
42 23.18166593619358 3.671615185094396 0 2 1 -39.6959933837492 -59.20604413484838
43 22.32189400343604 7.252823018939552 0 2 1 -40.55576531650674 -55.62483630100323
44 20.91248295819501 10.65544227931885 0 2 1 -41.96517636174777 -52.22221704062393
45 18.98813717797143 13.79568918739591 0 2 1 -43.88952214197135 -49.08197013254687
46 16.59624044241188 16.59624044241181 0 2 1 -46.2814188775309 -46.28141887753097
47 13.79568918739598 18.9881371779714 0 2 1 -49.0819701325468 -43.88952214197138
48 10.65544227931893 20.91248295819499 0 2 1 -52.22221704062385 -41.96517636174779
49 7.25282301893958 22.32189400343604 0 2 1 -55.6248363010032 -40.55576531650674
50 3.671615185094396 23.18166593619355 0 2 1 -59.20604413484838 -39.69599338374923
51 32.38464079604992 5.12922320759349 0 2 1 -30.49301852389286 -57.74843611234929
52 31.18354484006832 10.13214791690018 0 2 1 -31.69411447987446 -52.7455114030426
53 29.2146065178724 14.88558551782175 0 2 1 -33.66305280207038 -47.99207380212103
54 26.52630762548621 19.27249060086858 0 2 1 -36.35135169445657 -43.6051687190742
55 23.18484300359287 23.18484300359282 0 2 1 -39.69281631634991 -39.69281631634995
56 19.27249060086866 26.52630762548617 0 2 1 -43.60516871907411 -36.35135169445661
57 14.88558551782182 29.21460651787235 0 2 1 -47.99207380212096 -33.66305280207042
58 10.13214791690022 31.18354484006831 0 2 1 -52.74551140304256 -31.69411447987447
59 5.129223207593526 32.38464079604991 0 2 1 -57.74843611234925 -30.49301852389287
60 42.50791321257775 6.732592043538077 0 2 1 -20.36974610736503 -56.1450672764047
61 40.93136082842805 13.29940532677227 0 2 1 -21.94629849151472 -49.57825399317051
62 38.34694249728411 19.53874311266566 0 2 1 -24.53071682265867 -43.33891620727712
63 34.81829517565136 25.29697219775456 0 2 1 -28.05936414429142 -37.58068712218822
64 30.43230587149746 30.4323058714974 0 2 1 -32.44535344844532 -32.44535344844538
65 25.29697219775464 34.81829517565131 0 2 1 -37.58068712218814 -28.05936414429147
66 19.53874311266574 38.34694249728406 0 2 1 -43.33891620727704 -24.53071682265872
67 13.29940532677233 40.93136082842804 0 2 1 -49.57825399317045 -21.94629849151474
68 6.732592043538105 42.50791321257773 0 2 1 -56.14506727640467 -20.36974610736504
69 53.643512881337 8.496297764752597 0 2 1 -9.234146438605775 -54.38136155519018
70 51.65395842581006 16.78338848094132 0 2 1 -11.22370089413272 -46.09427083900146
71 48.39251208418016 24.65721647185639 0 2 1 -14.48514723576262 -38.22044284808639
72 43.93948148949801 31.9239019606246 0 2 1 -18.93817783044477 -30.95375735931817
73 38.40451503376598 38.40451503376592 0 2 1 -24.4731442861768 -24.47314428617686
74 31.92390196062468 43.93948148949795 0 2 1 -30.9537573593181 -18.93817783044483
75 24.65721647185651 48.3925120841801 0 2 1 -38.22044284808626 -14.48514723576267
76 16.78338848094138 51.65395842581005 0 2 1 -46.0942708390014 -11.22370089413274
77 8.49629776475264 53.643512881337 0 2 1 -54.38136155519014 -9.234146438605784
78 65.89267244724078 10.43637404704421 0 2 1 3.015013127298009 -52.44128527289857
79 63.44881571578511 20.61576992871047 0 2 1 0.5711563958423298 -42.26188939123231
80 59.44263856686019 30.28753713491422 0 2 1 -3.43502075308259 -32.59012218502856
81 53.97278637761222 39.21352465828365 0 2 1 -8.904872942330556 -23.66413466165913
82 47.17394506233918 47.1739450623391 0 2 1 -15.7037142576036 -15.70371425760368
83 39.21352465828375 53.97278637761215 0 2 1 -23.66413466165903 -8.904872942330627
84 30.28753713491437 59.44263856686013 0 2 1 -32.59012218502841 -3.435020753082654
85 20.61576992871056 63.44881571578508 0 2 1 -42.26188939123222 0.5711563958423032
86 10.43637404704424 65.89267244724077 0 2 1 -52.44128527289854 3.015013127297996
87 79.366747985752 12.57045796010183 0 2 1 16.48908866580923 -50.30720135984095
88 76.42315875018066 24.83138952626781 0 2 1 13.54549943023788 -38.04626979367497
89 71.59777771225743 36.48088987164007 0 2 1 8.720118392314648 -26.39676944830271
90 65.00942176765746 47.23210963524053 0 2 1 2.131762447714683 -15.64554968470225
91 56.82031810523664 56.82031810523657 0 2 1 -6.057341214706138 -6.057341214706206
92 47.23210963524065 65.00942176765739 0 2 1 -15.64554968470213 2.131762447714607
93 36.48088987164022 71.59777771225735 0 2 1 -26.39676944830256 8.720118392314578
94 24.83138952626788 76.42315875018063 0 2 1 -38.0462697936749 13.54549943023785
95 12.57045796010186 79.366747985752 0 2 1 -50.30720135984092 16.48908866580922
96 94.18823112600943 14.91795027205103 0 2 1 31.31057180606665 -47.95970904789175
97 90.69493613413449 29.46857109856572 0 2 1 27.81727681419171 -33.40908822137706
98 84.96843081540116 43.29357790405345 0 2 1 22.09077149545838 -19.58408141588933
99 77.14972073593816 56.05255313839605 0 2 1 14.27206141599538 -6.82510618154673
100 67.43132848671294 67.43132848671289 0 2 1 4.553669166770165 4.553669166770099
101 56.05255313839618 77.14972073593808 0 2 1 -6.825106181546598 14.27206141599529
102 43.29357790405363 84.96843081540109 0 2 1 -19.58408141588915 22.09077149545831
103 29.46857109856582 90.69493613413448 0 2 1 -33.40908822137696 27.81727681419169
104 14.91795027205107 94.18823112600944 0 2 1 -47.95970904789171 31.31057180606665
105 110.4918625289022 17.50019180705574 0 2 1 47.61420320895945 -45.37746751288704
106 106.3938912069993 34.56947081201501 0 2 1 43.51623188705657 -28.30818850792777
107 99.67614918249936 50.78753471608661 0 2 1 36.79848986255657 -12.09012460385617
108 90.50404955895299 65.7550409612841 0 2 1 27.62639023901021 2.877381641341316
109 79.10343986954544 79.10343986954535 0 2 1 16.22578054960266 16.22578054960258
110 65.75504096128425 90.50404955895289 0 2 1 2.877381641341469 27.62639023901011
111 50.78753471608681 99.67614918249924 0 2 1 -12.09012460385597 36.79848986255647
112 34.56947081201511 106.3938912069993 0 2 1 -28.30818850792767 43.51623188705653
113 17.50019180705578 110.4918625289022 0 2 1 -45.37746751288699 47.61420320895942
114 128.4258570533999 20.34065749260159 0 2 1 65.54819773345713 -42.53700182734119
115 123.6627417691592 40.18046049096343 0 2 1 60.78508244921645 -22.69719882897935
116 115.8546393694519 59.03088720073481 0 2 1 52.97698004950915 -3.846772119207973
117 105.1938112489649 76.42777755534162 0 2 1 42.3161519290221 13.55011823539885
118 91.94276237728464 91.94276237728454 0 2 1 29.06510305734186 29.06510305734176
119 76.42777755534181 105.1938112489648 0 2 1 13.55011823539903 42.31615192902198
120 59.03088720073503 115.8546393694518 0 2 1 -3.846772119207749 52.97698004950902
121 40.18046049096353 123.6627417691592 0 2 1 -22.69719882897925 60.78508244921641
122 20.34065749260165 128.4258570533999 0 2 1 -42.53700182734113 65.54819773345709
$EndParametricNodes
$Elements
145
1 15 2 0 1 1
2 15 2 0 2 2
3 15 2 0 3 3
4 15 2 0 4 4
5 15 2 0 5 5
6 1 2 0 1 1 6
7 1 2 0 1 6 7
8 1 2 0 1 7 8
9 1 2 0 1 8 9
10 1 2 0 1 9 10
11 1 2 0 1 10 11
12 1 2 0 1 11 12
13 1 2 0 1 12 13
14 1 2 0 1 13 14
15 1 2 0 1 14 2
16 1 2 0 2 3 15
17 1 2 0 2 15 16
18 1 2 0 2 16 17
19 1 2 0 2 17 18
20 1 2 0 2 18 19
21 1 2 0 2 19 20
22 1 2 0 2 20 21
23 1 2 0 2 21 22
24 1 2 0 2 22 23
25 1 2 0 2 23 4
26 1 2 0 3 1 24
27 1 2 0 3 24 25
28 1 2 0 3 25 26
29 1 2 0 3 26 27
30 1 2 0 3 27 28
31 1 2 0 3 28 29
32 1 2 0 3 29 30
33 1 2 0 3 30 31
34 1 2 0 3 31 32
35 1 2 0 3 32 3
36 1 2 0 4 2 33
37 1 2 0 4 33 34
38 1 2 0 4 34 35
39 1 2 0 4 35 36
40 1 2 0 4 36 37
41 1 2 0 4 37 38
42 1 2 0 4 38 39
43 1 2 0 4 39 40
44 1 2 0 4 40 41
45 1 2 0 4 41 4
46 3 2 0 1 1 24 42 6
47 3 2 0 1 6 42 43 7
48 3 2 0 1 7 43 44 8
49 3 2 0 1 8 44 45 9
50 3 2 0 1 9 45 46 10
51 3 2 0 1 10 46 47 11
52 3 2 0 1 11 47 48 12
53 3 2 0 1 12 48 49 13
54 3 2 0 1 13 49 50 14
55 3 2 0 1 14 50 33 2
56 3 2 0 1 24 25 51 42
57 3 2 0 1 42 51 52 43
58 3 2 0 1 43 52 53 44
59 3 2 0 1 44 53 54 45
60 3 2 0 1 45 54 55 46
61 3 2 0 1 46 55 56 47
62 3 2 0 1 47 56 57 48
63 3 2 0 1 48 57 58 49
64 3 2 0 1 49 58 59 50
65 3 2 0 1 50 59 34 33
66 3 2 0 1 25 26 60 51
67 3 2 0 1 51 60 61 52
68 3 2 0 1 52 61 62 53
69 3 2 0 1 53 62 63 54
70 3 2 0 1 54 63 64 55
71 3 2 0 1 55 64 65 56
72 3 2 0 1 56 65 66 57
73 3 2 0 1 57 66 67 58
74 3 2 0 1 58 67 68 59
75 3 2 0 1 59 68 35 34
76 3 2 0 1 26 27 69 60
77 3 2 0 1 60 69 70 61
78 3 2 0 1 61 70 71 62
79 3 2 0 1 62 71 72 63
80 3 2 0 1 63 72 73 64
81 3 2 0 1 64 73 74 65
82 3 2 0 1 65 74 75 66
83 3 2 0 1 66 75 76 67
84 3 2 0 1 67 76 77 68
85 3 2 0 1 68 77 36 35
86 3 2 0 1 27 28 78 69
87 3 2 0 1 69 78 79 70
88 3 2 0 1 70 79 80 71
89 3 2 0 1 71 80 81 72
90 3 2 0 1 72 81 82 73
91 3 2 0 1 73 82 83 74
92 3 2 0 1 74 83 84 75
93 3 2 0 1 75 84 85 76
94 3 2 0 1 76 85 86 77
95 3 2 0 1 77 86 37 36
96 3 2 0 1 28 29 87 78
97 3 2 0 1 78 87 88 79
98 3 2 0 1 79 88 89 80
99 3 2 0 1 80 89 90 81
100 3 2 0 1 81 90 91 82
101 3 2 0 1 82 91 92 83
102 3 2 0 1 83 92 93 84
103 3 2 0 1 84 93 94 85
104 3 2 0 1 85 94 95 86
105 3 2 0 1 86 95 38 37
106 3 2 0 1 29 30 96 87
107 3 2 0 1 87 96 97 88
108 3 2 0 1 88 97 98 89
109 3 2 0 1 89 98 99 90
110 3 2 0 1 90 99 100 91
111 3 2 0 1 91 100 101 92
112 3 2 0 1 92 101 102 93
113 3 2 0 1 93 102 103 94
114 3 2 0 1 94 103 104 95
115 3 2 0 1 95 104 39 38
116 3 2 0 1 30 31 105 96
117 3 2 0 1 96 105 106 97
118 3 2 0 1 97 106 107 98
119 3 2 0 1 98 107 108 99
120 3 2 0 1 99 108 109 100
121 3 2 0 1 100 109 110 101
122 3 2 0 1 101 110 111 102
123 3 2 0 1 102 111 112 103
124 3 2 0 1 103 112 113 104
125 3 2 0 1 104 113 40 39
126 3 2 0 1 31 32 114 105
127 3 2 0 1 105 114 115 106
128 3 2 0 1 106 115 116 107
129 3 2 0 1 107 116 117 108
130 3 2 0 1 108 117 118 109
131 3 2 0 1 109 118 119 110
132 3 2 0 1 110 119 120 111
133 3 2 0 1 111 120 121 112
134 3 2 0 1 112 121 122 113
135 3 2 0 1 113 122 41 40
136 3 2 0 1 32 3 15 114
137 3 2 0 1 114 15 16 115
138 3 2 0 1 115 16 17 116
139 3 2 0 1 116 17 18 117
140 3 2 0 1 117 18 19 118
141 3 2 0 1 118 19 20 119
142 3 2 0 1 119 20 21 120
143 3 2 0 1 120 21 22 121
144 3 2 0 1 121 22 23 122
145 3 2 0 1 122 23 4 41
$EndElements
