<?xml version="1.0"?>
<VTKFile type="UnstructuredGrid" version="0.1">
<UnstructuredGrid>
<FieldData>
<DataArray Name="TIME" type="Float64" format="ascii" NumberOfTuples="1">
0.000000e+00
</DataArray>
</FieldData>
<FieldData>
<DataArray Name="CYCLE" type="Int32" format="ascii" NumberOfTuples="1">
0
</DataArray>
</FieldData>
<Piece NumberOfPoints="187" NumberOfCells="160">
<Points>
<DataArray NumberOfComponents="3" type="Float64" format="ascii">
0.000000e+00 0.000000e+00 0.000000e+00
0.000000e+00 1.967198e-01 0.000000e+00
0.000000e+00 3.915658e-01 0.000000e+00
0.000000e+00 5.837832e-01 0.000000e+00
0.000000e+00 7.745471e-01 0.000000e+00
0.000000e+00 9.647703e-01 0.000000e+00
0.000000e+00 1.154738e+00 0.000000e+00
0.000000e+00 1.345055e+00 0.000000e+00
0.000000e+00 1.536896e+00 0.000000e+00
0.000000e+00 1.731990e+00 0.000000e+00
0.000000e+00 1.928000e+00 0.000000e+00
2.250000e-01 0.000000e+00 0.000000e+00
2.269592e-01 1.966507e-01 0.000000e+00
2.301807e-01 3.917149e-01 0.000000e+00
2.328286e-01 5.850118e-01 0.000000e+00
2.341497e-01 7.769464e-01 0.000000e+00
2.345647e-01 9.679749e-01 0.000000e+00
2.342918e-01 1.158591e+00 0.000000e+00
2.330616e-01 1.349167e+00 0.000000e+00
2.298889e-01 1.539975e+00 0.000000e+00
2.255926e-01 1.732376e+00 0.000000e+00
2.250000e-01 1.928000e+00 0.000000e+00
4.500000e-01 0.000000e+00 0.000000e+00
4.542752e-01 1.970458e-01 0.000000e+00
4.588999e-01 3.932229e-01 0.000000e+00
4.627944e-01 5.889801e-01 0.000000e+00
4.655012e-01 7.840863e-01 0.000000e+00
4.671956e-01 9.781287e-01 0.000000e+00
4.677086e-01 1.170836e+00 0.000000e+00
4.671433e-01 1.362175e+00 0.000000e+00
4.640824e-01 1.551895e+00 0.000000e+00
4.584625e-01 1.740180e+00 0.000000e+00
4.500000e-01 1.928000e+00 0.000000e+00
6.750000e-01 0.000000e+00 0.000000e+00
6.809282e-01 1.984311e-01 0.000000e+00
6.859646e-01 3.966698e-01 0.000000e+00
6.898199e-01 5.950721e-01 0.000000e+00
6.928414e-01 7.937647e-01 0.000000e+00
6.951143e-01 9.927853e-01 0.000000e+00
6.965001e-01 1.192127e+00 0.000000e+00
6.965024e-01 1.391960e+00 0.000000e+00
6.944258e-01 1.592323e+00 0.000000e+00
6.903726e-01 1.792965e+00 0.000000e+00
6.837110e-01 1.992838e+00 0.000000e+00
9.000000e-01 0.000000e+00 0.000000e+00
9.064171e-01 1.988935e-01 0.000000e+00
9.110451e-01 3.978932e-01 0.000000e+00
9.143944e-01 5.971963e-01 0.000000e+00
9.170091e-01 7.968016e-01 0.000000e+00
9.188750e-01 9.967511e-01 0.000000e+00
9.198117e-01 1.197126e+00 0.000000e+00
9.193797e-01 1.397885e+00 0.000000e+00
9.173317e-01 1.598777e+00 0.000000e+00
9.138405e-01 1.799453e+00 0.000000e+00
9.093085e-01 1.999539e+00 0.000000e+00
1.125000e+00 0.000000e+00 0.000000e+00
1.131451e+00 1.993905e-01 0.000000e+00
1.135427e+00 3.989649e-01 0.000000e+00
1.138351e+00 5.988476e-01 0.000000e+00
1.140589e+00 7.990384e-01 0.000000e+00
1.142058e+00 9.995584e-01 0.000000e+00
1.142640e+00 1.200406e+00 0.000000e+00
1.142090e+00 1.401471e+00 0.000000e+00
1.140357e+00 1.602503e+00 0.000000e+00
1.137717e+00 1.803179e+00 0.000000e+00
1.134898e+00 2.003254e+00 0.000000e+00
1.350000e+00 0.000000e+00 0.000000e+00
1.356049e+00 1.997703e-01 0.000000e+00
1.359431e+00 3.997467e-01 0.000000e+00
1.361979e+00 6.000077e-01 0.000000e+00
1.363850e+00 8.005447e-01 0.000000e+00
1.365023e+00 1.001368e+00 0.000000e+00
1.365410e+00 1.202433e+00 0.000000e+00
1.364911e+00 1.403598e+00 0.000000e+00
1.363593e+00 1.604642e+00 0.000000e+00
1.361812e+00 1.805274e+00 0.000000e+00
1.360157e+00 2.005423e+00 0.000000e+00
1.575000e+00 0.000000e+00 0.000000e+00
1.580346e+00 2.000241e-01 0.000000e+00
1.583244e+00 4.002468e-01 0.000000e+00
1.585423e+00 6.007287e-01 0.000000e+00
1.587009e+00 8.014639e-01 0.000000e+00
1.587966e+00 1.002431e+00 0.000000e+00
1.588264e+00 1.203556e+00 0.000000e+00
1.587899e+00 1.404716e+00 0.000000e+00
1.587014e+00 1.605706e+00 0.000000e+00
1.585952e+00 1.806315e+00 0.000000e+00
1.585107e+00 2.006533e+00 0.000000e+00
1.800000e+00 0.000000e+00 0.000000e+00
1.804483e+00 2.001477e-01 0.000000e+00
1.806969e+00 4.005120e-01 0.000000e+00
1.808830e+00 6.010996e-01 0.000000e+00
1.810180e+00 8.019245e-01 0.000000e+00
1.810979e+00 1.002928e+00 0.000000e+00
1.811257e+00 1.204037e+00 0.000000e+00
1.811061e+00 1.405133e+00 0.000000e+00
1.810574e+00 1.606042e+00 0.000000e+00
1.810060e+00 1.806640e+00 0.000000e+00
1.809767e+00 2.006943e+00 0.000000e+00
2.025000e+00 0.000000e+00 0.000000e+00
2.028591e+00 2.001681e-01 0.000000e+00
2.030701e+00 4.005820e-01 0.000000e+00
2.032288e+00 6.012133e-01 0.000000e+00
2.033426e+00 8.020501e-01 0.000000e+00
2.034116e+00 1.003023e+00 0.000000e+00
2.034407e+00 1.204066e+00 0.000000e+00
2.034389e+00 1.405064e+00 0.000000e+00
2.034221e+00 1.605896e+00 0.000000e+00
2.034091e+00 1.806501e+00 0.000000e+00
2.034151e+00 2.006900e+00 0.000000e+00
2.250000e+00 0.000000e+00 0.000000e+00
2.252758e+00 2.001462e-01 0.000000e+00
2.254515e+00 4.005511e-01 0.000000e+00
2.255841e+00 6.011640e-01 0.000000e+00
2.256793e+00 8.019538e-01 0.000000e+00
2.257403e+00 1.002855e+00 0.000000e+00
2.257725e+00 1.203793e+00 0.000000e+00
2.257861e+00 1.404688e+00 0.000000e+00
2.257912e+00 1.605463e+00 0.000000e+00
2.258023e+00 1.806088e+00 0.000000e+00
2.258285e+00 2.006590e+00 0.000000e+00
2.475000e+00 0.000000e+00 0.000000e+00
2.477024e+00 2.001059e-01 0.000000e+00
2.478447e+00 4.004669e-01 0.000000e+00
2.479531e+00 6.010197e-01 0.000000e+00
2.480322e+00 8.017207e-01 0.000000e+00
2.480864e+00 1.002513e+00 0.000000e+00
2.481208e+00 1.203344e+00 0.000000e+00
2.481434e+00 1.404158e+00 0.000000e+00
2.481617e+00 1.604898e+00 0.000000e+00
2.481856e+00 1.805551e+00 0.000000e+00
2.482208e+00 2.006145e+00 0.000000e+00
2.700000e+00 0.000000e+00 0.000000e+00
2.701413e+00 2.000584e-01 0.000000e+00
2.702514e+00 4.003475e-01 0.000000e+00
2.703375e+00 6.008153e-01 0.000000e+00
2.704022e+00 8.014133e-01 0.000000e+00
2.704491e+00 1.002102e+00 0.000000e+00
2.704821e+00 1.202844e+00 0.000000e+00
2.705078e+00 1.403592e+00 0.000000e+00
2.705318e+00 1.604311e+00 0.000000e+00
2.705601e+00 1.804994e+00 0.000000e+00
2.705962e+00 2.005666e+00 0.000000e+00
2.925000e+00 0.000000e+00 0.000000e+00
2.925928e+00 2.000144e-01 0.000000e+00
2.926722e+00 4.002181e-01 0.000000e+00
2.927371e+00 6.005924e-01 0.000000e+00
2.927874e+00 8.011032e-01 0.000000e+00
2.928252e+00 1.001712e+00 0.000000e+00
2.928535e+00 1.202381e+00 0.000000e+00
2.928771e+00 1.403077e+00 0.000000e+00
2.929005e+00 1.603781e+00 0.000000e+00
2.929273e+00 1.804491e+00 0.000000e+00
2.929586e+00 2.005231e+00 0.000000e+00
3.150000e+00 0.000000e+00 0.000000e+00
3.150559e+00 1.999703e-01 0.000000e+00
3.151066e+00 4.001069e-01 0.000000e+00
3.151497e+00 6.004056e-01 0.000000e+00
3.151845e+00 8.008480e-01 0.000000e+00
3.152111e+00 1.001395e+00 0.000000e+00
3.152317e+00 1.202013e+00 0.000000e+00
3.152497e+00 1.402673e+00 0.000000e+00
3.152679e+00 1.603366e+00 0.000000e+00
3.152882e+00 1.804097e+00 0.000000e+00
3.153108e+00 2.004888e+00 0.000000e+00
3.375000e+00 0.000000e+00 0.000000e+00
3.375263e+00 1.999422e-01 0.000000e+00
3.375507e+00 4.000382e-01 0.000000e+00
3.375723e+00 6.002915e-01 0.000000e+00
3.375899e+00 8.006856e-01 0.000000e+00
3.376038e+00 1.001192e+00 0.000000e+00
3.376145e+00 1.201775e+00 0.000000e+00
3.376243e+00 1.402413e+00 0.000000e+00
3.376342e+00 1.603098e+00 0.000000e+00
3.376450e+00 1.803842e+00 0.000000e+00
3.376568e+00 2.004663e+00 0.000000e+00
3.600000e+00 0.000000e+00 0.000000e+00
3.600000e+00 1.999445e-01 0.000000e+00
3.600000e+00 4.000289e-01 0.000000e+00
3.600000e+00 6.002662e-01 0.000000e+00
3.600000e+00 8.006384e-01 0.000000e+00
3.600000e+00 1.001126e+00 0.000000e+00
3.600000e+00 1.201692e+00 0.000000e+00
3.600000e+00 1.402317e+00 0.000000e+00
3.600000e+00 1.602996e+00 0.000000e+00
3.600000e+00 1.803740e+00 0.000000e+00
3.600000e+00 2.004567e+00 0.000000e+00
</DataArray>
</Points>
<Cells>
<DataArray Name="connectivity" type="Int32" format="ascii">
0 11 12 1
1 12 13 2
2 13 14 3
3 14 15 4
4 15 16 5
5 16 17 6
6 17 18 7
7 18 19 8
8 19 20 9
9 20 21 10
11 22 23 12
12 23 24 13
13 24 25 14
14 25 26 15
15 26 27 16
16 27 28 17
17 28 29 18
18 29 30 19
19 30 31 20
20 31 32 21
22 33 34 23
23 34 35 24
24 35 36 25
25 36 37 26
26 37 38 27
27 38 39 28
28 39 40 29
29 40 41 30
30 41 42 31
31 42 43 32
33 44 45 34
34 45 46 35
35 46 47 36
36 47 48 37
37 48 49 38
38 49 50 39
39 50 51 40
40 51 52 41
41 52 53 42
42 53 54 43
44 55 56 45
45 56 57 46
46 57 58 47
47 58 59 48
48 59 60 49
49 60 61 50
50 61 62 51
51 62 63 52
52 63 64 53
53 64 65 54
55 66 67 56
56 67 68 57
57 68 69 58
58 69 70 59
59 70 71 60
60 71 72 61
61 72 73 62
62 73 74 63
63 74 75 64
64 75 76 65
66 77 78 67
67 78 79 68
68 79 80 69
69 80 81 70
70 81 82 71
71 82 83 72
72 83 84 73
73 84 85 74
74 85 86 75
75 86 87 76
77 88 89 78
78 89 90 79
79 90 91 80
80 91 92 81
81 92 93 82
82 93 94 83
83 94 95 84
84 95 96 85
85 96 97 86
86 97 98 87
88 99 100 89
89 100 101 90
90 101 102 91
91 102 103 92
92 103 104 93
93 104 105 94
94 105 106 95
95 106 107 96
96 107 108 97
97 108 109 98
99 110 111 100
100 111 112 101
101 112 113 102
102 113 114 103
103 114 115 104
104 115 116 105
105 116 117 106
106 117 118 107
107 118 119 108
108 119 120 109
110 121 122 111
111 122 123 112
112 123 124 113
113 124 125 114
114 125 126 115
115 126 127 116
116 127 128 117
117 128 129 118
118 129 130 119
119 130 131 120
121 132 133 122
122 133 134 123
123 134 135 124
124 135 136 125
125 136 137 126
126 137 138 127
127 138 139 128
128 139 140 129
129 140 141 130
130 141 142 131
132 143 144 133
133 144 145 134
134 145 146 135
135 146 147 136
136 147 148 137
137 148 149 138
138 149 150 139
139 150 151 140
140 151 152 141
141 152 153 142
143 154 155 144
144 155 156 145
145 156 157 146
146 157 158 147
147 158 159 148
148 159 160 149
149 160 161 150
150 161 162 151
151 162 163 152
152 163 164 153
154 165 166 155
155 166 167 156
156 167 168 157
157 168 169 158
158 169 170 159
159 170 171 160
160 171 172 161
161 172 173 162
162 173 174 163
163 174 175 164
165 176 177 166
166 177 178 167
167 178 179 168
168 179 180 169
169 180 181 170
170 181 182 171
171 182 183 172
172 183 184 173
173 184 185 174
174 185 186 175
</DataArray>
<DataArray Name="offsets" type="Int32" format="ascii">
4
8
12
16
20
24
28
32
36
40
44
48
52
56
60
64
68
72
76
80
84
88
92
96
100
104
108
112
116
120
124
128
132
136
140
144
148
152
156
160
164
168
172
176
180
184
188
192
196
200
204
208
212
216
220
224
228
232
236
240
244
248
252
256
260
264
268
272
276
280
284
288
292
296
300
304
308
312
316
320
324
328
332
336
340
344
348
352
356
360
364
368
372
376
380
384
388
392
396
400
404
408
412
416
420
424
428
432
436
440
444
448
452
456
460
464
468
472
476
480
484
488
492
496
500
504
508
512
516
520
524
528
532
536
540
544
548
552
556
560
564
568
572
576
580
584
588
592
596
600
604
608
612
616
620
624
628
632
636
640
</DataArray>
<DataArray Name="types" type="UInt8" format="ascii">
9
9
9
9
9
9
9
9
9
9
9
9
9
9
9
9
9
9
9
9
9
9
9
9
9
9
9
9
9
9
9
9
9
9
9
9
9
9
9
9
9
9
9
9
9
9
9
9
9
9
9
9
9
9
9
9
9
9
9
9
9
9
9
9
9
9
9
9
9
9
9
9
9
9
9
9
9
9
9
9
9
9
9
9
9
9
9
9
9
9
9
9
9
9
9
9
9
9
9
9
9
9
9
9
9
9
9
9
9
9
9
9
9
9
9
9
9
9
9
9
9
9
9
9
9
9
9
9
9
9
9
9
9
9
9
9
9
9
9
9
9
9
9
9
9
9
9
9
9
9
9
9
9
9
9
9
9
9
9
9
</DataArray>
</Cells>
<PointData>
<DataArray Name="disp" type="Float64" NumberOfComponents="3" format="ascii">
0.000000e+00 0.000000e+00 0.000000e+00
0.000000e+00 -3.280194e-03 0.000000e+00
0.000000e+00 -8.434170e-03 0.000000e+00
0.000000e+00 -1.621681e-02 0.000000e+00
0.000000e+00 -2.545292e-02 0.000000e+00
0.000000e+00 -3.522969e-02 0.000000e+00
0.000000e+00 -4.526201e-02 0.000000e+00
0.000000e+00 -5.494460e-02 0.000000e+00
0.000000e+00 -6.310385e-02 0.000000e+00
0.000000e+00 -6.800970e-02 0.000000e+00
0.000000e+00 -7.200000e-02 0.000000e+00
0.000000e+00 0.000000e+00 0.000000e+00
1.959244e-03 -3.349314e-03 0.000000e+00
5.180648e-03 -8.285067e-03 0.000000e+00
7.828563e-03 -1.498814e-02 0.000000e+00
9.149685e-03 -2.305364e-02 0.000000e+00
9.564715e-03 -3.202510e-02 0.000000e+00
9.291838e-03 -4.140912e-02 0.000000e+00
8.061633e-03 -5.083276e-02 0.000000e+00
4.888856e-03 -6.002520e-02 0.000000e+00
5.925874e-04 -6.762425e-02 0.000000e+00
0.000000e+00 -7.200000e-02 0.000000e+00
0.000000e+00 0.000000e+00 0.000000e+00
4.275220e-03 -2.954154e-03 0.000000e+00
8.899932e-03 -6.777083e-03 0.000000e+00
1.279443e-02 -1.101992e-02 0.000000e+00
1.550117e-02 -1.591367e-02 0.000000e+00
1.719558e-02 -2.187134e-02 0.000000e+00
1.770866e-02 -2.916362e-02 0.000000e+00
1.714332e-02 -3.782453e-02 0.000000e+00
1.408241e-02 -4.810445e-02 0.000000e+00
8.462469e-03 -5.982044e-02 0.000000e+00
0.000000e+00 -7.200000e-02 0.000000e+00
0.000000e+00 0.000000e+00 0.000000e+00
5.928251e-03 -1.568876e-03 0.000000e+00
1.096462e-02 -3.330194e-03 0.000000e+00
1.481991e-02 -4.927890e-03 0.000000e+00
1.784132e-02 -6.235276e-03 0.000000e+00
2.011426e-02 -7.214728e-03 0.000000e+00
2.150005e-02 -7.873022e-03 0.000000e+00
2.150237e-02 -8.039956e-03 0.000000e+00
1.942580e-02 -7.677272e-03 0.000000e+00
1.537259e-02 -7.034617e-03 0.000000e+00
8.710991e-03 -7.162505e-03 0.000000e+00
0.000000e+00 0.000000e+00 0.000000e+00
6.417061e-03 -1.106515e-03 0.000000e+00
1.104506e-02 -2.106761e-03 0.000000e+00
1.439441e-02 -2.803639e-03 0.000000e+00
1.700904e-02 -3.198458e-03 0.000000e+00
1.887502e-02 -3.248887e-03 0.000000e+00
1.981165e-02 -2.874224e-03 0.000000e+00
1.937967e-02 -2.114628e-03 0.000000e+00
1.733171e-02 -1.223379e-03 0.000000e+00
1.384050e-02 -5.473325e-04 0.000000e+00
9.308491e-03 -4.609968e-04 0.000000e+00
0.000000e+00 0.000000e+00 0.000000e+00
6.451339e-03 -6.094556e-04 0.000000e+00
1.042706e-02 -1.035118e-03 0.000000e+00
1.335092e-02 -1.152419e-03 0.000000e+00
1.558906e-02 -9.616449e-04 0.000000e+00
1.705851e-02 -4.415966e-04 0.000000e+00
1.763994e-02 4.058832e-04 0.000000e+00
1.708968e-02 1.470781e-03 0.000000e+00
1.535720e-02 2.503274e-03 0.000000e+00
1.271739e-02 3.179090e-03 0.000000e+00
9.898367e-03 3.254041e-03 0.000000e+00
0.000000e+00 0.000000e+00 0.000000e+00
6.048955e-03 -2.296895e-04 0.000000e+00
9.430736e-03 -2.532554e-04 0.000000e+00
1.197927e-02 7.730037e-06 0.000000e+00
1.385011e-02 5.446766e-04 0.000000e+00
1.502291e-02 1.368230e-03 0.000000e+00
1.540979e-02 2.432657e-03 0.000000e+00
1.491149e-02 3.597919e-03 0.000000e+00
1.359298e-02 4.641851e-03 0.000000e+00
1.181193e-02 5.274173e-03 0.000000e+00
1.015747e-02 5.423379e-03 0.000000e+00
0.000000e+00 0.000000e+00 0.000000e+00
5.346213e-03 2.408742e-05 0.000000e+00
8.244172e-03 2.467746e-04 0.000000e+00
1.042335e-02 7.287008e-04 0.000000e+00
1.200897e-02 1.463931e-03 0.000000e+00
1.296639e-02 2.431096e-03 0.000000e+00
1.326355e-02 3.555800e-03 0.000000e+00
1.289875e-02 4.715728e-03 0.000000e+00
1.201393e-02 5.706264e-03 0.000000e+00
1.095236e-02 6.315267e-03 0.000000e+00
1.010678e-02 6.533496e-03 0.000000e+00
0.000000e+00 0.000000e+00 0.000000e+00
4.482588e-03 1.477151e-04 0.000000e+00
6.968830e-03 5.120097e-04 0.000000e+00
8.829574e-03 1.099590e-03 0.000000e+00
1.017998e-02 1.924471e-03 0.000000e+00
1.097900e-02 2.927823e-03 0.000000e+00
1.125692e-02 4.036752e-03 0.000000e+00
1.106078e-02 5.132522e-03 0.000000e+00
1.057354e-02 6.042033e-03 0.000000e+00
1.005962e-02 6.639865e-03 0.000000e+00
9.766573e-03 6.942652e-03 0.000000e+00
0.000000e+00 0.000000e+00 0.000000e+00
3.591317e-03 1.681273e-04 0.000000e+00
5.700647e-03 5.819592e-04 0.000000e+00
7.287579e-03 1.213262e-03 0.000000e+00
8.425915e-03 2.050077e-03 0.000000e+00
9.116057e-03 3.022675e-03 0.000000e+00
9.406622e-03 4.065984e-03 0.000000e+00
9.388878e-03 5.063922e-03 0.000000e+00
9.220601e-03 5.896169e-03 0.000000e+00
9.090869e-03 6.500982e-03 0.000000e+00
9.151230e-03 6.899922e-03 0.000000e+00
0.000000e+00 0.000000e+00 0.000000e+00
2.757538e-03 1.462238e-04 0.000000e+00
4.514894e-03 5.510508e-04 0.000000e+00
5.841379e-03 1.164056e-03 0.000000e+00
6.793384e-03 1.953801e-03 0.000000e+00
7.403428e-03 2.854637e-03 0.000000e+00
7.725065e-03 3.793338e-03 0.000000e+00
7.860556e-03 4.688038e-03 0.000000e+00
7.912169e-03 5.463120e-03 0.000000e+00
8.022575e-03 6.088235e-03 0.000000e+00
8.285293e-03 6.590166e-03 0.000000e+00
0.000000e+00 0.000000e+00 0.000000e+00
2.023907e-03 1.059041e-04 0.000000e+00
3.447112e-03 4.669024e-04 0.000000e+00
4.531273e-03 1.019761e-03 0.000000e+00
5.321870e-03 1.720700e-03 0.000000e+00
5.864029e-03 2.512746e-03 0.000000e+00
6.208305e-03 3.344242e-03 0.000000e+00
6.434343e-03 4.158434e-03 0.000000e+00
6.617568e-03 4.897634e-03 0.000000e+00
6.855546e-03 5.550821e-03 0.000000e+00
7.207749e-03 6.145012e-03 0.000000e+00
0.000000e+00 0.000000e+00 0.000000e+00
1.412570e-03 5.839687e-05 0.000000e+00
2.513821e-03 3.475214e-04 0.000000e+00
3.375103e-03 8.153117e-04 0.000000e+00
4.021911e-03 1.413320e-03 0.000000e+00
4.491343e-03 2.102497e-03 0.000000e+00
4.820959e-03 2.844042e-03 0.000000e+00
5.077693e-03 3.592332e-03 0.000000e+00
5.318164e-03 4.311169e-03 0.000000e+00
5.600486e-03 4.994395e-03 0.000000e+00
5.962191e-03 5.665455e-03 0.000000e+00
0.000000e+00 0.000000e+00 0.000000e+00
9.280985e-04 1.434783e-05 0.000000e+00
1.722398e-03 2.181043e-04 0.000000e+00
2.370485e-03 5.923453e-04 0.000000e+00
2.873993e-03 1.103225e-03 0.000000e+00
3.252175e-03 1.712393e-03 0.000000e+00
3.534446e-03 2.380942e-03 0.000000e+00
3.770758e-03 3.077046e-03 0.000000e+00
4.004885e-03 3.781308e-03 0.000000e+00
4.272555e-03 4.491305e-03 0.000000e+00
4.585641e-03 5.230661e-03 0.000000e+00
0.000000e+00 0.000000e+00 0.000000e+00
5.589822e-04 -2.967056e-05 0.000000e+00
1.065792e-03 1.069504e-04 0.000000e+00
1.497383e-03 4.056466e-04 0.000000e+00
1.844819e-03 8.479872e-04 0.000000e+00
2.111170e-03 1.394555e-03 0.000000e+00
2.316925e-03 2.012516e-03 0.000000e+00
2.497251e-03 2.673400e-03 0.000000e+00
2.679255e-03 3.365549e-03 0.000000e+00
2.881799e-03 4.096799e-03 0.000000e+00
3.107874e-03 4.888311e-03 0.000000e+00
0.000000e+00 0.000000e+00 0.000000e+00
2.632674e-04 -5.781477e-05 0.000000e+00
5.071174e-04 3.817931e-05 0.000000e+00
7.225444e-04 2.915040e-04 0.000000e+00
8.993583e-04 6.855966e-04 0.000000e+00
1.037644e-03 1.192230e-03 0.000000e+00
1.145385e-03 1.775282e-03 0.000000e+00
1.242834e-03 2.412966e-03 0.000000e+00
1.342158e-03 3.098319e-03 0.000000e+00
1.450165e-03 3.842081e-03 0.000000e+00
1.567786e-03 4.662496e-03 0.000000e+00
0.000000e+00 0.000000e+00 0.000000e+00
0.000000e+00 -5.550905e-05 0.000000e+00
0.000000e+00 2.893711e-05 0.000000e+00
0.000000e+00 2.661304e-04 0.000000e+00
0.000000e+00 6.384584e-04 0.000000e+00
0.000000e+00 1.126193e-03 0.000000e+00
0.000000e+00 1.691988e-03 0.000000e+00
0.000000e+00 2.316720e-03 0.000000e+00
0.000000e+00 2.995748e-03 0.000000e+00
0.000000e+00 3.739846e-03 0.000000e+00
0.000000e+00 4.566840e-03 0.000000e+00
</DataArray>
<DataArray Name="shear" type="Float64" NumberOfComponents="1" format="ascii">
1.981013e-02
3.107089e-02
5.445600e-02
7.529262e-02
8.699651e-02
9.177573e-02
9.088542e-02
8.127886e-02
5.743786e-02
3.048705e-02
2.168610e-02
2.224615e-02
3.285355e-02
5.111841e-02
6.722936e-02
7.950588e-02
8.791924e-02
9.153652e-02
8.853158e-02
7.511271e-02
5.199141e-02
3.480932e-02
2.802521e-02
3.568798e-02
4.572104e-02
5.448668e-02
6.639490e-02
8.128367e-02
9.707376e-02
1.109732e-01
1.221856e-01
1.286056e-01
1.289784e-01
3.187871e-02
3.387346e-02
3.544582e-02
3.766978e-02
4.308941e-02
5.169338e-02
6.279702e-02
7.497099e-02
8.961061e-02
1.070331e-01
1.207743e-01
3.307568e-02
3.028210e-02
2.533913e-02
2.343718e-02
2.329399e-02
2.330811e-02
2.252931e-02
1.992822e-02
1.512063e-02
7.242694e-03
4.295263e-04
3.276021e-02
2.801952e-02
2.156035e-02
1.996212e-02
1.963963e-02
1.941078e-02
1.854880e-02
1.632246e-02
1.230768e-02
6.023070e-03
1.667319e-03
3.052596e-02
2.502973e-02
1.850225e-02
1.742557e-02
1.721109e-02
1.709187e-02
1.648122e-02
1.477562e-02
1.135702e-02
5.995484e-03
2.224437e-03
2.693871e-02
2.178927e-02
1.609970e-02
1.548345e-02
1.550635e-02
1.554674e-02
1.514150e-02
1.372027e-02
1.070417e-02
6.221553e-03
3.206571e-03
2.260389e-02
1.841958e-02
1.408837e-02
1.384984e-02
1.411309e-02
1.429085e-02
1.400040e-02
1.271616e-02
1.014172e-02
6.634493e-03
4.424081e-03
1.813780e-02
1.513225e-02
1.228375e-02
1.237432e-02
1.282045e-02
1.308732e-02
1.284502e-02
1.172515e-02
9.724271e-03
7.226330e-03
5.758309e-03
1.396100e-02
1.209329e-02
1.056215e-02
1.091290e-02
1.148252e-02
1.181088e-02
1.165415e-02
1.084697e-02
9.483951e-03
7.915145e-03
7.068654e-03
1.027540e-02
9.328686e-03
8.840259e-03
9.405532e-03
1.006858e-02
1.051204e-02
1.057591e-02
1.016930e-02
9.395884e-03
8.588786e-03
8.217699e-03
7.190242e-03
6.875847e-03
7.138461e-03
7.942380e-03
8.754022e-03
9.373298e-03
9.688824e-03
9.663474e-03
9.407070e-03
9.188942e-03
9.165240e-03
4.726442e-03
4.768621e-03
5.551265e-03
6.657294e-03
7.683567e-03
8.480494e-03
9.002900e-03
9.289003e-03
9.456974e-03
9.704336e-03
9.942575e-03
2.826583e-03
3.062912e-03
4.247912e-03
5.647676e-03
6.879075e-03
7.832385e-03
8.522652e-03
9.034782e-03
9.511443e-03
1.009840e-02
1.051564e-02
1.333284e-03
1.816954e-03
3.385629e-03
4.986930e-03
6.355042e-03
7.416639e-03
8.213886e-03
8.877341e-03
9.545756e-03
1.032432e-02
1.083793e-02
4.554981e-04
1.306672e-03
3.080759e-03
4.746583e-03
6.158377e-03
7.260567e-03
8.095236e-03
8.814239e-03
9.549888e-03
1.039065e-02
1.093482e-02
</DataArray>
<DataArray Name="stress" type="Float64" NumberOfComponents="9" format="ascii">
-1.230803e+05 6.662204e+03 0.000000e+00 6.662204e+03 -2.161225e+05 0.000000e+00 0.000000e+00 0.000000e+00 0.000000e+00
-1.086860e+05 5.011395e+03 0.000000e+00 5.011395e+03 -2.169464e+05 0.000000e+00 0.000000e+00 0.000000e+00 0.000000e+00
-1.128932e+05 3.614802e+03 0.000000e+00 3.614802e+03 -2.223048e+05 0.000000e+00 0.000000e+00 0.000000e+00 0.000000e+00
-1.197635e+05 4.171270e+03 0.000000e+00 4.171270e+03 -2.297672e+05 0.000000e+00 0.000000e+00 0.000000e+00 0.000000e+00
-1.243619e+05 5.712303e+03 0.000000e+00 5.712303e+03 -2.401954e+05 0.000000e+00 0.000000e+00 0.000000e+00 0.000000e+00
-1.311288e+05 7.866595e+03 0.000000e+00 7.866595e+03 -2.511393e+05 0.000000e+00 0.000000e+00 0.000000e+00 0.000000e+00
-1.375622e+05 9.382683e+03 0.000000e+00 9.382683e+03 -2.639611e+05 0.000000e+00 0.000000e+00 0.000000e+00 0.000000e+00
-1.443473e+05 1.014050e+04 0.000000e+00 1.014050e+04 -2.751753e+05 0.000000e+00 0.000000e+00 0.000000e+00 0.000000e+00
-1.468495e+05 4.410961e+03 0.000000e+00 4.410961e+03 -2.837930e+05 0.000000e+00 0.000000e+00 0.000000e+00 0.000000e+00
-1.544043e+05 -2.595952e+03 0.000000e+00 -2.595952e+03 -2.928483e+05 0.000000e+00 0.000000e+00 0.000000e+00 0.000000e+00
-1.589715e+05 -8.839294e+02 0.000000e+00 -8.839294e+02 -2.792315e+05 0.000000e+00 0.000000e+00 0.000000e+00 0.000000e+00
-1.255657e+05 1.935396e+04 0.000000e+00 1.935396e+04 -2.096628e+05 0.000000e+00 0.000000e+00 0.000000e+00 0.000000e+00
-1.097187e+05 1.627789e+04 0.000000e+00 1.627789e+04 -2.056960e+05 0.000000e+00 0.000000e+00 0.000000e+00 0.000000e+00
-1.113962e+05 1.455088e+04 0.000000e+00 1.455088e+04 -2.166230e+05 0.000000e+00 0.000000e+00 0.000000e+00 0.000000e+00
-1.184857e+05 1.346194e+04 0.000000e+00 1.346194e+04 -2.286641e+05 0.000000e+00 0.000000e+00 0.000000e+00 0.000000e+00
-1.251116e+05 1.333857e+04 0.000000e+00 1.333857e+04 -2.402484e+05 0.000000e+00 0.000000e+00 0.000000e+00 0.000000e+00
-1.319780e+05 1.387966e+04 0.000000e+00 1.387966e+04 -2.501550e+05 0.000000e+00 0.000000e+00 0.000000e+00 0.000000e+00
-1.377726e+05 1.420004e+04 0.000000e+00 1.420004e+04 -2.588555e+05 0.000000e+00 0.000000e+00 0.000000e+00 0.000000e+00
-1.436254e+05 1.272431e+04 0.000000e+00 1.272431e+04 -2.653023e+05 0.000000e+00 0.000000e+00 0.000000e+00 0.000000e+00
-1.477752e+05 5.540655e+03 0.000000e+00 5.540655e+03 -2.766327e+05 0.000000e+00 0.000000e+00 0.000000e+00 0.000000e+00
-1.505663e+05 -1.836939e+03 0.000000e+00 -1.836939e+03 -2.850868e+05 0.000000e+00 0.000000e+00 0.000000e+00 0.000000e+00
-1.725518e+05 -7.261713e+03 0.000000e+00 -7.261713e+03 -3.209558e+05 0.000000e+00 0.000000e+00 0.000000e+00 0.000000e+00
-1.248272e+05 3.195646e+04 0.000000e+00 3.195646e+04 -1.827065e+05 0.000000e+00 0.000000e+00 0.000000e+00 0.000000e+00
-1.095368e+05 2.793035e+04 0.000000e+00 2.793035e+04 -1.736534e+05 0.000000e+00 0.000000e+00 0.000000e+00 0.000000e+00
-1.094040e+05 2.749747e+04 0.000000e+00 2.749747e+04 -1.818565e+05 0.000000e+00 0.000000e+00 0.000000e+00 0.000000e+00
-1.159815e+05 2.805089e+04 0.000000e+00 2.805089e+04 -1.918958e+05 0.000000e+00 0.000000e+00 0.000000e+00 0.000000e+00
-1.250971e+05 2.945891e+04 0.000000e+00 2.945891e+04 -2.032899e+05 0.000000e+00 0.000000e+00 0.000000e+00 0.000000e+00
-1.372793e+05 3.109855e+04 0.000000e+00 3.109855e+04 -2.180775e+05 0.000000e+00 0.000000e+00 0.000000e+00 0.000000e+00
-1.525365e+05 3.367518e+04 0.000000e+00 3.367518e+04 -2.336680e+05 0.000000e+00 0.000000e+00 0.000000e+00 0.000000e+00
-1.656098e+05 3.669555e+04 0.000000e+00 3.669555e+04 -2.533966e+05 0.000000e+00 0.000000e+00 0.000000e+00 0.000000e+00
-1.727357e+05 3.628053e+04 0.000000e+00 3.628053e+04 -2.710928e+05 0.000000e+00 0.000000e+00 0.000000e+00 0.000000e+00
-1.817482e+05 2.203950e+04 0.000000e+00 2.203950e+04 -2.866467e+05 0.000000e+00 0.000000e+00 0.000000e+00 0.000000e+00
-2.072055e+05 1.816218e+03 0.000000e+00 1.816218e+03 -3.408717e+05 0.000000e+00 0.000000e+00 0.000000e+00 0.000000e+00
-1.138718e+05 3.235775e+04 0.000000e+00 3.235775e+04 -1.391190e+05 0.000000e+00 0.000000e+00 0.000000e+00 0.000000e+00
-1.030920e+05 2.955092e+04 0.000000e+00 2.955092e+04 -1.318005e+05 0.000000e+00 0.000000e+00 0.000000e+00 0.000000e+00
-1.046214e+05 2.986339e+04 0.000000e+00 2.986339e+04 -1.327852e+05 0.000000e+00 0.000000e+00 0.000000e+00 0.000000e+00
-1.110480e+05 3.158396e+04 0.000000e+00 3.158396e+04 -1.328733e+05 0.000000e+00 0.000000e+00 0.000000e+00 0.000000e+00
-1.169260e+05 3.338757e+04 0.000000e+00 3.338757e+04 -1.313830e+05 0.000000e+00 0.000000e+00 0.000000e+00 0.000000e+00
-1.213620e+05 3.409435e+04 0.000000e+00 3.409435e+04 -1.277438e+05 0.000000e+00 0.000000e+00 0.000000e+00 0.000000e+00
-1.246644e+05 3.283899e+04 0.000000e+00 3.283899e+04 -1.204839e+05 0.000000e+00 0.000000e+00 0.000000e+00 0.000000e+00
-1.240584e+05 2.898980e+04 0.000000e+00 2.898980e+04 -1.120679e+05 0.000000e+00 0.000000e+00 0.000000e+00 0.000000e+00
-1.089080e+05 2.154711e+04 0.000000e+00 2.154711e+04 -9.476788e+04 0.000000e+00 0.000000e+00 0.000000e+00 0.000000e+00
-8.533505e+04 1.220585e+04 0.000000e+00 1.220585e+04 -7.900773e+04 0.000000e+00 0.000000e+00 0.000000e+00 0.000000e+00
-5.361270e+04 5.713595e+03 0.000000e+00 5.713595e+03 -5.978670e+04 0.000000e+00 0.000000e+00 0.000000e+00 0.000000e+00
-1.087333e+05 3.102371e+04 0.000000e+00 3.102371e+04 -1.177238e+05 0.000000e+00 0.000000e+00 0.000000e+00 0.000000e+00
-1.036800e+05 2.949372e+04 0.000000e+00 2.949372e+04 -1.146489e+05 0.000000e+00 0.000000e+00 0.000000e+00 0.000000e+00
-1.084123e+05 3.013163e+04 0.000000e+00 3.013163e+04 -1.157049e+05 0.000000e+00 0.000000e+00 0.000000e+00 0.000000e+00
-1.167606e+05 3.091000e+04 0.000000e+00 3.091000e+04 -1.135389e+05 0.000000e+00 0.000000e+00 0.000000e+00 0.000000e+00
-1.239314e+05 3.094178e+04 0.000000e+00 3.094178e+04 -1.090796e+05 0.000000e+00 0.000000e+00 0.000000e+00 0.000000e+00
-1.298296e+05 2.959960e+04 0.000000e+00 2.959960e+04 -1.027295e+05 0.000000e+00 0.000000e+00 0.000000e+00 0.000000e+00
-1.337802e+05 2.620436e+04 0.000000e+00 2.620436e+04 -9.469040e+04 0.000000e+00 0.000000e+00 0.000000e+00 0.000000e+00
-1.329649e+05 1.987234e+04 0.000000e+00 1.987234e+04 -8.560292e+04 0.000000e+00 0.000000e+00 0.000000e+00 0.000000e+00
-1.218498e+05 1.165115e+04 0.000000e+00 1.165115e+04 -7.576655e+04 0.000000e+00 0.000000e+00 0.000000e+00 0.000000e+00
-9.640920e+04 3.240618e+03 0.000000e+00 3.240618e+03 -6.815633e+04 0.000000e+00 0.000000e+00 0.000000e+00 0.000000e+00
-5.841995e+04 -3.922712e+01 0.000000e+00 -3.922712e+01 -5.597807e+04 0.000000e+00 0.000000e+00 0.000000e+00 0.000000e+00
-1.020097e+05 2.931061e+04 0.000000e+00 2.931061e+04 -1.023723e+05 0.000000e+00 0.000000e+00 0.000000e+00 0.000000e+00
-1.019209e+05 2.860281e+04 0.000000e+00 2.860281e+04 -1.018351e+05 0.000000e+00 0.000000e+00 0.000000e+00 0.000000e+00
-1.088405e+05 2.798750e+04 0.000000e+00 2.798750e+04 -1.007525e+05 0.000000e+00 0.000000e+00 0.000000e+00 0.000000e+00
-1.168245e+05 2.688989e+04 0.000000e+00 2.688989e+04 -9.644135e+04 0.000000e+00 0.000000e+00 0.000000e+00 0.000000e+00
-1.226564e+05 2.511653e+04 0.000000e+00 2.511653e+04 -9.162094e+04 0.000000e+00 0.000000e+00 0.000000e+00 0.000000e+00
-1.269344e+05 2.219487e+04 0.000000e+00 2.219487e+04 -8.595575e+04 0.000000e+00 0.000000e+00 0.000000e+00 0.000000e+00
-1.287145e+05 1.742005e+04 0.000000e+00 1.742005e+04 -7.959071e+04 0.000000e+00 0.000000e+00 0.000000e+00 0.000000e+00
-1.249710e+05 1.062962e+04 0.000000e+00 1.062962e+04 -7.295286e+04 0.000000e+00 0.000000e+00 0.000000e+00 0.000000e+00
-1.129992e+05 3.007323e+03 0.000000e+00 3.007323e+03 -6.696102e+04 0.000000e+00 0.000000e+00 0.000000e+00 0.000000e+00
-8.955000e+04 -2.433686e+03 0.000000e+00 -2.433686e+03 -6.251279e+04 0.000000e+00 0.000000e+00 0.000000e+00 0.000000e+00
-5.974261e+04 -3.654972e+03 0.000000e+00 -3.654972e+03 -5.566316e+04 0.000000e+00 0.000000e+00 0.000000e+00 0.000000e+00
-9.375170e+04 2.664916e+04 0.000000e+00 2.664916e+04 -8.959562e+04 0.000000e+00 0.000000e+00 0.000000e+00 0.000000e+00
-9.965913e+04 2.656128e+04 0.000000e+00 2.656128e+04 -9.123813e+04 0.000000e+00 0.000000e+00 0.000000e+00 0.000000e+00
-1.078137e+05 2.444151e+04 0.000000e+00 2.444151e+04 -8.833953e+04 0.000000e+00 0.000000e+00 0.000000e+00 0.000000e+00
-1.150347e+05 2.245921e+04 0.000000e+00 2.245921e+04 -8.457656e+04 0.000000e+00 0.000000e+00 0.000000e+00 0.000000e+00
-1.199441e+05 1.976138e+04 0.000000e+00 1.976138e+04 -8.046451e+04 0.000000e+00 0.000000e+00 0.000000e+00 0.000000e+00
-1.226805e+05 1.595261e+04 0.000000e+00 1.595261e+04 -7.565448e+04 0.000000e+00 0.000000e+00 0.000000e+00 0.000000e+00
-1.224262e+05 1.073884e+04 0.000000e+00 1.073884e+04 -7.070323e+04 0.000000e+00 0.000000e+00 0.000000e+00 0.000000e+00
-1.170684e+05 4.351769e+03 0.000000e+00 4.351769e+03 -6.599439e+04 0.000000e+00 0.000000e+00 0.000000e+00 0.000000e+00
-1.061229e+05 -1.640536e+03 0.000000e+00 -1.640536e+03 -6.252491e+04 0.000000e+00 0.000000e+00 0.000000e+00 0.000000e+00
-8.755241e+04 -4.218782e+03 0.000000e+00 -4.218782e+03 -6.039864e+04 0.000000e+00 0.000000e+00 0.000000e+00 0.000000e+00
-6.707000e+04 -3.940640e+03 0.000000e+00 -3.940640e+03 -5.663878e+04 0.000000e+00 0.000000e+00 0.000000e+00 0.000000e+00
-8.583891e+04 2.384292e+04 0.000000e+00 2.384292e+04 -7.997330e+04 0.000000e+00 0.000000e+00 0.000000e+00 0.000000e+00
-9.666548e+04 2.399414e+04 0.000000e+00 2.399414e+04 -8.309095e+04 0.000000e+00 0.000000e+00 0.000000e+00 0.000000e+00
-1.058309e+05 2.113494e+04 0.000000e+00 2.113494e+04 -7.972773e+04 0.000000e+00 0.000000e+00 0.000000e+00 0.000000e+00
-1.123142e+05 1.854605e+04 0.000000e+00 1.854605e+04 -7.661037e+04 0.000000e+00 0.000000e+00 0.000000e+00 0.000000e+00
-1.161862e+05 1.514670e+04 0.000000e+00 1.514670e+04 -7.294345e+04 0.000000e+00 0.000000e+00 0.000000e+00 0.000000e+00
-1.178038e+05 1.093249e+04 0.000000e+00 1.093249e+04 -6.908105e+04 0.000000e+00 0.000000e+00 0.000000e+00 0.000000e+00
-1.162187e+05 5.826714e+03 0.000000e+00 5.826714e+03 -6.533576e+04 0.000000e+00 0.000000e+00 0.000000e+00 0.000000e+00
-1.105258e+05 4.464057e+02 0.000000e+00 4.464057e+02 -6.226029e+04 0.000000e+00 0.000000e+00 0.000000e+00 0.000000e+00
-1.015946e+05 -3.642700e+03 0.000000e+00 -3.642700e+03 -6.041022e+04 0.000000e+00 0.000000e+00 0.000000e+00 0.000000e+00
-8.828698e+04 -4.465069e+03 0.000000e+00 -4.465069e+03 -5.960664e+04 0.000000e+00 0.000000e+00 0.000000e+00 0.000000e+00
-7.502930e+04 -3.535235e+03 0.000000e+00 -3.535235e+03 -5.731945e+04 0.000000e+00 0.000000e+00 0.000000e+00 0.000000e+00
-7.983191e+04 2.156463e+04 0.000000e+00 2.156463e+04 -7.353897e+04 0.000000e+00 0.000000e+00 0.000000e+00 0.000000e+00
-9.331916e+04 2.150121e+04 0.000000e+00 2.150121e+04 -7.671823e+04 0.000000e+00 0.000000e+00 0.000000e+00 0.000000e+00
-1.032048e+05 1.825773e+04 0.000000e+00 1.825773e+04 -7.364969e+04 0.000000e+00 0.000000e+00 0.000000e+00 0.000000e+00
-1.088682e+05 1.503681e+04 0.000000e+00 1.503681e+04 -7.084727e+04 0.000000e+00 0.000000e+00 0.000000e+00 0.000000e+00
-1.119836e+05 1.132320e+04 0.000000e+00 1.132320e+04 -6.780991e+04 0.000000e+00 0.000000e+00 0.000000e+00 0.000000e+00
-1.127996e+05 7.073707e+03 0.000000e+00 7.073707e+03 -6.482338e+04 0.000000e+00 0.000000e+00 0.000000e+00 0.000000e+00
-1.105982e+05 2.438350e+03 0.000000e+00 2.438350e+03 -6.217645e+04 0.000000e+00 0.000000e+00 0.000000e+00 0.000000e+00
-1.057565e+05 -1.741094e+03 0.000000e+00 -1.741094e+03 -6.034778e+04 0.000000e+00 0.000000e+00 0.000000e+00 0.000000e+00
-9.912228e+04 -4.298771e+03 0.000000e+00 -4.298771e+03 -5.945834e+04 0.000000e+00 0.000000e+00 0.000000e+00 0.000000e+00
-9.016059e+04 -4.084340e+03 0.000000e+00 -4.084340e+03 -5.936647e+04 0.000000e+00 0.000000e+00 0.000000e+00 0.000000e+00
-8.207616e+04 -2.839747e+03 0.000000e+00 -2.839747e+03 -5.798502e+04 0.000000e+00 0.000000e+00 0.000000e+00 0.000000e+00
-7.585953e+04 1.962659e+04 0.000000e+00 1.962659e+04 -6.910970e+04 0.000000e+00 0.000000e+00 0.000000e+00 0.000000e+00
-9.005888e+04 1.920668e+04 0.000000e+00 1.920668e+04 -7.188754e+04 0.000000e+00 0.000000e+00 0.000000e+00 0.000000e+00
-9.979855e+04 1.564178e+04 0.000000e+00 1.564178e+04 -6.899984e+04 0.000000e+00 0.000000e+00 0.000000e+00 0.000000e+00
-1.049089e+05 1.207189e+04 0.000000e+00 1.207189e+04 -6.662377e+04 0.000000e+00 0.000000e+00 0.000000e+00 0.000000e+00
-1.076843e+05 8.323854e+03 0.000000e+00 8.323854e+03 -6.431569e+04 0.000000e+00 0.000000e+00 0.000000e+00 0.000000e+00
-1.080309e+05 4.270069e+03 0.000000e+00 4.270069e+03 -6.209209e+04 0.000000e+00 0.000000e+00 0.000000e+00 0.000000e+00
-1.060178e+05 3.340463e+02 0.000000e+00 3.340463e+02 -6.035195e+04 0.000000e+00 0.000000e+00 0.000000e+00 0.000000e+00
-1.024866e+05 -2.757391e+03 0.000000e+00 -2.757391e+03 -5.932696e+04 0.000000e+00 0.000000e+00 0.000000e+00 0.000000e+00
-9.796939e+04 -4.264939e+03 0.000000e+00 -4.264939e+03 -5.905961e+04 0.000000e+00 0.000000e+00 0.000000e+00 0.000000e+00
-9.249877e+04 -3.490647e+03 0.000000e+00 -3.490647e+03 -5.934458e+04 0.000000e+00 0.000000e+00 0.000000e+00 0.000000e+00
-8.799709e+04 -2.141302e+03 0.000000e+00 -2.141302e+03 -5.861034e+04 0.000000e+00 0.000000e+00 0.000000e+00 0.000000e+00
-7.292189e+04 1.765315e+04 0.000000e+00 1.765315e+04 -6.570177e+04 0.000000e+00 0.000000e+00 0.000000e+00 0.000000e+00
-8.644477e+04 1.695673e+04 0.000000e+00 1.695673e+04 -6.816298e+04 0.000000e+00 0.000000e+00 0.000000e+00 0.000000e+00
-9.601415e+04 1.325945e+04 0.000000e+00 1.325945e+04 -6.558576e+04 0.000000e+00 0.000000e+00 0.000000e+00 0.000000e+00
-1.009880e+05 9.708453e+03 0.000000e+00 9.708453e+03 -6.362023e+04 0.000000e+00 0.000000e+00 0.000000e+00 0.000000e+00
-1.034424e+05 6.054491e+03 0.000000e+00 6.054491e+03 -6.180579e+04 0.000000e+00 0.000000e+00 0.000000e+00 0.000000e+00
-1.037945e+05 2.379916e+03 0.000000e+00 2.379916e+03 -6.025922e+04 0.000000e+00 0.000000e+00 0.000000e+00 0.000000e+00
-1.024903e+05 -8.356015e+02 0.000000e+00 -8.356015e+02 -5.920912e+04 0.000000e+00 0.000000e+00 0.000000e+00 0.000000e+00
-1.003018e+05 -3.066051e+03 0.000000e+00 -3.066051e+03 -5.877606e+04 0.000000e+00 0.000000e+00 0.000000e+00 0.000000e+00
-9.765604e+04 -3.860657e+03 0.000000e+00 -3.860657e+03 -5.891125e+04 0.000000e+00 0.000000e+00 0.000000e+00 0.000000e+00
-9.487828e+04 -2.844852e+03 0.000000e+00 -2.844852e+03 -5.939234e+04 0.000000e+00 0.000000e+00 0.000000e+00 0.000000e+00
-9.272416e+04 -1.585654e+03 0.000000e+00 -1.585654e+03 -5.918995e+04 0.000000e+00 0.000000e+00 0.000000e+00 0.000000e+00
-7.026828e+04 1.550499e+04 0.000000e+00 1.550499e+04 -6.371065e+04 0.000000e+00 0.000000e+00 0.000000e+00 0.000000e+00
-8.269966e+04 1.472562e+04 0.000000e+00 1.472562e+04 -6.556426e+04 0.000000e+00 0.000000e+00 0.000000e+00 0.000000e+00
-9.223668e+04 1.116175e+04 0.000000e+00 1.116175e+04 -6.320791e+04 0.000000e+00 0.000000e+00 0.000000e+00 0.000000e+00
-9.717197e+04 7.772543e+03 0.000000e+00 7.772543e+03 -6.147941e+04 0.000000e+00 0.000000e+00 0.000000e+00 0.000000e+00
-9.960762e+04 4.391969e+03 0.000000e+00 4.391969e+03 -6.004148e+04 0.000000e+00 0.000000e+00 0.000000e+00 0.000000e+00
-1.003008e+05 1.237451e+03 0.000000e+00 1.237451e+03 -5.899196e+04 0.000000e+00 0.000000e+00 0.000000e+00 0.000000e+00
-9.976848e+04 -1.336190e+03 0.000000e+00 -1.336190e+03 -5.847338e+04 0.000000e+00 0.000000e+00 0.000000e+00 0.000000e+00
-9.884403e+04 -2.914493e+03 0.000000e+00 -2.914493e+03 -5.849661e+04 0.000000e+00 0.000000e+00 0.000000e+00 0.000000e+00
-9.784234e+04 -3.239443e+03 0.000000e+00 -3.239443e+03 -5.889015e+04 0.000000e+00 0.000000e+00 0.000000e+00 0.000000e+00
-9.698993e+04 -2.206127e+03 0.000000e+00 -2.206127e+03 -5.944511e+04 0.000000e+00 0.000000e+00 0.000000e+00 0.000000e+00
-9.647345e+04 -1.130639e+03 0.000000e+00 -1.130639e+03 -5.961786e+04 0.000000e+00 0.000000e+00 0.000000e+00 0.000000e+00
-6.814803e+04 1.315092e+04 0.000000e+00 1.315092e+04 -6.292632e+04 0.000000e+00 0.000000e+00 0.000000e+00 0.000000e+00
-7.927272e+04 1.231497e+04 0.000000e+00 1.231497e+04 -6.404871e+04 0.000000e+00 0.000000e+00 0.000000e+00 0.000000e+00
-8.865627e+04 9.210277e+03 0.000000e+00 9.210277e+03 -6.181075e+04 0.000000e+00 0.000000e+00 0.000000e+00 0.000000e+00
-9.362568e+04 6.143946e+03 0.000000e+00 6.143946e+03 -6.023130e+04 0.000000e+00 0.000000e+00 0.000000e+00 0.000000e+00
-9.623045e+04 3.179110e+03 0.000000e+00 3.179110e+03 -5.901654e+04 0.000000e+00 0.000000e+00 0.000000e+00 0.000000e+00
-9.737991e+04 5.578123e+02 0.000000e+00 5.578123e+02 -5.830633e+04 0.000000e+00 0.000000e+00 0.000000e+00 0.000000e+00
-9.773728e+04 -1.396042e+03 0.000000e+00 -1.396042e+03 -5.812338e+04 0.000000e+00 0.000000e+00 0.000000e+00 0.000000e+00
-9.795897e+04 -2.453488e+03 0.000000e+00 -2.453488e+03 -5.840934e+04 0.000000e+00 0.000000e+00 0.000000e+00 0.000000e+00
-9.825358e+04 -2.515824e+03 0.000000e+00 -2.515824e+03 -5.895386e+04 0.000000e+00 0.000000e+00 0.000000e+00 0.000000e+00
-9.873039e+04 -1.602956e+03 0.000000e+00 -1.602956e+03 -5.950632e+04 0.000000e+00 0.000000e+00 0.000000e+00 0.000000e+00
-9.932049e+04 -7.450091e+02 0.000000e+00 -7.450091e+02 -5.993350e+04 0.000000e+00 0.000000e+00 0.000000e+00 0.000000e+00
-6.705562e+04 1.055724e+04 0.000000e+00 1.055724e+04 -6.310996e+04 0.000000e+00 0.000000e+00 0.000000e+00 0.000000e+00
-7.663563e+04 9.758359e+03 0.000000e+00 9.758359e+03 -6.344030e+04 0.000000e+00 0.000000e+00 0.000000e+00 0.000000e+00
-8.556412e+04 7.268726e+03 0.000000e+00 7.268726e+03 -6.127044e+04 0.000000e+00 0.000000e+00 0.000000e+00 0.000000e+00
-9.053373e+04 4.651284e+03 0.000000e+00 4.651284e+03 -5.968820e+04 0.000000e+00 0.000000e+00 0.000000e+00 0.000000e+00
-9.335388e+04 2.209284e+03 0.000000e+00 2.209284e+03 -5.860986e+04 0.000000e+00 0.000000e+00 0.000000e+00 0.000000e+00
-9.509109e+04 1.916997e+02 0.000000e+00 1.916997e+02 -5.810102e+04 0.000000e+00 0.000000e+00 0.000000e+00 0.000000e+00
-9.632745e+04 -1.198850e+03 0.000000e+00 -1.198850e+03 -5.809622e+04 0.000000e+00 0.000000e+00 0.000000e+00 0.000000e+00
-9.749162e+04 -1.855411e+03 0.000000e+00 -1.855411e+03 -5.849018e+04 0.000000e+00 0.000000e+00 0.000000e+00 0.000000e+00
-9.874698e+04 -1.776346e+03 0.000000e+00 -1.776346e+03 -5.907419e+04 0.000000e+00 0.000000e+00 0.000000e+00 0.000000e+00
-1.000420e+05 -1.065758e+03 0.000000e+00 -1.065758e+03 -5.960383e+04 0.000000e+00 0.000000e+00 0.000000e+00 0.000000e+00
-1.012822e+05 -4.348281e+02 0.000000e+00 -4.348281e+02 -6.016969e+04 0.000000e+00 0.000000e+00 0.000000e+00 0.000000e+00
-6.639219e+04 7.505524e+03 0.000000e+00 7.505524e+03 -6.403646e+04 0.000000e+00 0.000000e+00 0.000000e+00 0.000000e+00
-7.461827e+04 6.856497e+03 0.000000e+00 6.856497e+03 -6.364851e+04 0.000000e+00 0.000000e+00 0.000000e+00 0.000000e+00
-8.304277e+04 5.067253e+03 0.000000e+00 5.067253e+03 -6.126186e+04 0.000000e+00 0.000000e+00 0.000000e+00 0.000000e+00
-8.805757e+04 3.140950e+03 0.000000e+00 3.140950e+03 -5.953152e+04 0.000000e+00 0.000000e+00 0.000000e+00 0.000000e+00
-9.120927e+04 1.398659e+03 0.000000e+00 1.398659e+03 -5.851459e+04 0.000000e+00 0.000000e+00 0.000000e+00 0.000000e+00
-9.349220e+04 2.634084e+01 0.000000e+00 2.634084e+01 -5.812399e+04 0.000000e+00 0.000000e+00 0.000000e+00 0.000000e+00
-9.539213e+04 -8.558823e+02 0.000000e+00 -8.558823e+02 -5.824336e+04 0.000000e+00 0.000000e+00 0.000000e+00 0.000000e+00
-9.727867e+04 -1.222121e+03 0.000000e+00 -1.222121e+03 -5.869006e+04 0.000000e+00 0.000000e+00 0.000000e+00 0.000000e+00
-9.917207e+04 -1.103748e+03 0.000000e+00 -1.103748e+03 -5.923984e+04 0.000000e+00 0.000000e+00 0.000000e+00 0.000000e+00
-1.009158e+05 -6.236874e+02 0.000000e+00 -6.236874e+02 -5.971980e+04 0.000000e+00 0.000000e+00 0.000000e+00 0.000000e+00
-1.025274e+05 -2.230637e+02 0.000000e+00 -2.230637e+02 -6.032093e+04 0.000000e+00 0.000000e+00 0.000000e+00 0.000000e+00
-6.596912e+04 3.846914e+03 0.000000e+00 3.846914e+03 -6.476920e+04 0.000000e+00 0.000000e+00 0.000000e+00 0.000000e+00
-7.338708e+04 3.513117e+03 0.000000e+00 3.513117e+03 -6.402085e+04 0.000000e+00 0.000000e+00 0.000000e+00 0.000000e+00
-8.135605e+04 2.578929e+03 0.000000e+00 2.578929e+03 -6.137208e+04 0.000000e+00 0.000000e+00 0.000000e+00 0.000000e+00
-8.647498e+04 1.566007e+03 0.000000e+00 1.566007e+03 -5.955189e+04 0.000000e+00 0.000000e+00 0.000000e+00 0.000000e+00
-8.986116e+04 6.679609e+02 0.000000e+00 6.679609e+02 -5.857560e+04 0.000000e+00 0.000000e+00 0.000000e+00 0.000000e+00
-9.252797e+04 -1.439764e+01 0.000000e+00 -1.439764e+01 -5.824937e+04 0.000000e+00 0.000000e+00 0.000000e+00 0.000000e+00
-9.489545e+04 -4.407078e+02 0.000000e+00 -4.407078e+02 -5.842429e+04 0.000000e+00 0.000000e+00 0.000000e+00 0.000000e+00
-9.719052e+04 -5.962158e+02 0.000000e+00 -5.962158e+02 -5.889504e+04 0.000000e+00 0.000000e+00 0.000000e+00 0.000000e+00
-9.944168e+04 -5.200707e+02 0.000000e+00 -5.200707e+02 -5.939333e+04 0.000000e+00 0.000000e+00 0.000000e+00 0.000000e+00
-1.014242e+05 -2.753705e+02 0.000000e+00 -2.753705e+02 -5.980482e+04 0.000000e+00 0.000000e+00 0.000000e+00 0.000000e+00
-1.032124e+05 -8.153397e+01 0.000000e+00 -8.153397e+01 -6.039913e+04 0.000000e+00 0.000000e+00 0.000000e+00 0.000000e+00
-6.573276e+04 1.076956e+03 0.000000e+00 1.076956e+03 -6.479171e+04 0.000000e+00 0.000000e+00 0.000000e+00 0.000000e+00
-7.292478e+04 1.024108e+03 0.000000e+00 1.024108e+03 -6.402542e+04 0.000000e+00 0.000000e+00 0.000000e+00 0.000000e+00
-8.077927e+04 7.106174e+02 0.000000e+00 7.106174e+02 -6.139252e+04 0.000000e+00 0.000000e+00 0.000000e+00 0.000000e+00
-8.594238e+04 3.248387e+02 0.000000e+00 3.248387e+02 -5.959690e+04 0.000000e+00 0.000000e+00 0.000000e+00 0.000000e+00
-8.944521e+04 -2.388436e+01 0.000000e+00 -2.388436e+01 -5.865559e+04 0.000000e+00 0.000000e+00 0.000000e+00 0.000000e+00
-9.224441e+04 -2.760150e+02 0.000000e+00 -2.760150e+02 -5.836948e+04 0.000000e+00 0.000000e+00 0.000000e+00 0.000000e+00
-9.477964e+04 -4.354491e+02 0.000000e+00 -4.354491e+02 -5.855061e+04 0.000000e+00 0.000000e+00 0.000000e+00 0.000000e+00
-9.721161e+04 -4.922732e+02 0.000000e+00 -4.922732e+02 -5.901181e+04 0.000000e+00 0.000000e+00 0.000000e+00 0.000000e+00
-9.957067e+04 -4.572437e+02 0.000000e+00 -4.572437e+02 -5.948986e+04 0.000000e+00 0.000000e+00 0.000000e+00 0.000000e+00
-1.016195e+05 -3.381936e+02 0.000000e+00 -3.381936e+02 -5.987127e+04 0.000000e+00 0.000000e+00 0.000000e+00 0.000000e+00
-1.034488e+05 -2.413956e+02 0.000000e+00 -2.413956e+02 -6.045964e+04 0.000000e+00 0.000000e+00 0.000000e+00 0.000000e+00
</DataArray>
<DataArray Name="vol_eps" type="Float64" NumberOfComponents="1" format="ascii">
-1.375053e-02
-1.159500e-02
-9.420922e-03
-8.268663e-03
-7.738367e-03
-8.334614e-03
-9.901716e-03
-1.240822e-02
-1.567826e-02
-1.973575e-02
-1.992602e-02
-1.333145e-02
-1.079225e-02
-9.306770e-03
-8.672434e-03
-8.297003e-03
-8.324065e-03
-8.974023e-03
-1.058298e-02
-1.307171e-02
-1.629198e-02
-2.210689e-02
-1.113333e-02
-8.380299e-03
-7.581591e-03
-7.621328e-03
-7.714035e-03
-8.116088e-03
-8.807248e-03
-9.846752e-03
-1.037012e-02
-1.114864e-02
-1.591608e-02
-7.101849e-03
-5.450489e-03
-5.389712e-03
-5.743522e-03
-5.480030e-03
-4.685401e-03
-3.190828e-03
-1.147827e-03
2.470569e-03
7.451925e-03
1.221995e-02
-5.153306e-03
-4.826628e-03
-5.711443e-03
-6.342740e-03
-6.554997e-03
-6.491259e-03
-6.205100e-03
-5.692293e-03
-4.639764e-03
-2.753737e-03
5.772088e-04
-3.442929e-03
-3.903432e-03
-5.012160e-03
-5.439648e-03
-5.536939e-03
-5.399694e-03
-5.071715e-03
-4.517856e-03
-3.643951e-03
-2.008870e-03
3.963314e-04
-2.086819e-03
-3.229751e-03
-4.317044e-03
-4.671982e-03
-4.707514e-03
-4.496369e-03
-4.144362e-03
-3.638417e-03
-2.964548e-03
-1.761746e-03
-1.932167e-04
-1.155962e-03
-2.734325e-03
-3.760989e-03
-4.038453e-03
-3.995719e-03
-3.797969e-03
-3.476670e-03
-3.058618e-03
-2.568976e-03
-1.773031e-03
-7.592831e-04
-6.503712e-04
-2.355629e-03
-3.290037e-03
-3.479856e-03
-3.433030e-03
-3.279988e-03
-3.013075e-03
-2.701854e-03
-2.374219e-03
-1.892042e-03
-1.274084e-03
-4.731419e-04
-2.058928e-03
-2.836955e-03
-2.999123e-03
-3.003926e-03
-2.895531e-03
-2.699233e-03
-2.488436e-03
-2.300351e-03
-2.048069e-03
-1.711373e-03
-4.452180e-04
-1.806013e-03
-2.440666e-03
-2.617407e-03
-2.659152e-03
-2.602732e-03
-2.478173e-03
-2.361823e-03
-2.287799e-03
-2.193695e-03
-2.045338e-03
-4.724570e-04
-1.584101e-03
-2.122887e-03
-2.318931e-03
-2.390182e-03
-2.372689e-03
-2.309973e-03
-2.286983e-03
-2.302478e-03
-2.312533e-03
-2.291864e-03
-5.165599e-04
-1.399364e-03
-1.884367e-03
-2.090242e-03
-2.175897e-03
-2.192319e-03
-2.198932e-03
-2.249143e-03
-2.327315e-03
-2.403155e-03
-2.468164e-03
-5.603156e-04
-1.249028e-03
-1.700927e-03
-1.904761e-03
-1.999821e-03
-2.065269e-03
-2.137564e-03
-2.238608e-03
-2.358409e-03
-2.469637e-03
-2.582230e-03
-6.275007e-04
-1.150723e-03
-1.548331e-03
-1.756195e-03
-1.876793e-03
-1.984376e-03
-2.104778e-03
-2.246189e-03
-2.391412e-03
-2.516681e-03
-2.650683e-03
-6.777954e-04
-1.103345e-03
-1.445920e-03
-1.660985e-03
-1.808283e-03
-1.942760e-03
-2.093075e-03
-2.258158e-03
-2.416900e-03
-2.543868e-03
-2.685489e-03
-6.714835e-04
-1.076402e-03
-1.408507e-03
-1.633538e-03
-1.794665e-03
-1.939001e-03
-2.098593e-03
-2.269880e-03
-2.432502e-03
-2.558306e-03
-2.700634e-03
</DataArray>
</PointData>
</Piece>
</UnstructuredGrid>
</VTKFile>
