<?xml version="1.0"?>
<VTKFile type="UnstructuredGrid" version="0.1">
<UnstructuredGrid>
<FieldData>
<DataArray Name="TIME" type="Float64" format="ascii" NumberOfTuples="1">
0.000000e+00
</DataArray>
</FieldData>
<FieldData>
<DataArray Name="CYCLE" type="Int32" format="ascii" NumberOfTuples="1">
0
</DataArray>
</FieldData>
<Piece NumberOfPoints="187" NumberOfCells="160">
<Points>
<DataArray NumberOfComponents="3" type="Float64" format="ascii">
0.000000e+00 0.000000e+00 0.000000e+00
0.000000e+00 1.969773e-01 0.000000e+00
0.000000e+00 3.923823e-01 0.000000e+00
0.000000e+00 5.854811e-01 0.000000e+00
0.000000e+00 7.772101e-01 0.000000e+00
0.000000e+00 9.683823e-01 0.000000e+00
0.000000e+00 1.159398e+00 0.000000e+00
0.000000e+00 1.350602e+00 0.000000e+00
0.000000e+00 1.543144e+00 0.000000e+00
0.000000e+00 1.738595e+00 0.000000e+00
0.000000e+00 1.934750e+00 0.000000e+00
2.250000e-01 0.000000e+00 0.000000e+00
2.266843e-01 1.969196e-01 0.000000e+00
2.293811e-01 3.924634e-01 0.000000e+00
2.317789e-01 5.865538e-01 0.000000e+00
2.330589e-01 7.793260e-01 0.000000e+00
2.333889e-01 9.712296e-01 0.000000e+00
2.331318e-01 1.162758e+00 0.000000e+00
2.320665e-01 1.354311e+00 0.000000e+00
2.292135e-01 1.546008e+00 0.000000e+00
2.255604e-01 1.738983e+00 0.000000e+00
2.250000e-01 1.934750e+00 0.000000e+00
4.500000e-01 0.000000e+00 0.000000e+00
4.536843e-01 1.972595e-01 0.000000e+00
4.576287e-01 3.937017e-01 0.000000e+00
4.609593e-01 5.897430e-01 0.000000e+00
4.634283e-01 7.852902e-01 0.000000e+00
4.649104e-01 9.799411e-01 0.000000e+00
4.653132e-01 1.173444e+00 0.000000e+00
4.648666e-01 1.365652e+00 0.000000e+00
4.623750e-01 1.556281e+00 0.000000e+00
4.577194e-01 1.745713e+00 0.000000e+00
4.500000e-01 1.934750e+00 0.000000e+00
6.750000e-01 0.000000e+00 0.000000e+00
6.801171e-01 1.985051e-01 0.000000e+00
6.844807e-01 3.968273e-01 0.000000e+00
6.878269e-01 5.952962e-01 0.000000e+00
6.905084e-01 7.940080e-01 0.000000e+00
6.924853e-01 9.930394e-01 0.000000e+00
6.937267e-01 1.192401e+00 0.000000e+00
6.939896e-01 1.392137e+00 0.000000e+00
6.924480e-01 1.592375e+00 0.000000e+00
6.889996e-01 1.792790e+00 0.000000e+00
6.827962e-01 1.992805e+00 0.000000e+00
9.000000e-01 0.000000e+00 0.000000e+00
9.055367e-01 1.989471e-01 0.000000e+00
9.095548e-01 3.979776e-01 0.000000e+00
9.124500e-01 5.972741e-01 0.000000e+00
9.147753e-01 7.968540e-01 0.000000e+00
9.164065e-01 9.967198e-01 0.000000e+00
9.173036e-01 1.196934e+00 0.000000e+00
9.171134e-01 1.397508e+00 0.000000e+00
9.155241e-01 1.598258e+00 0.000000e+00
9.124717e-01 1.798905e+00 0.000000e+00
9.083076e-01 1.998979e+00 0.000000e+00
1.125000e+00 0.000000e+00 0.000000e+00
1.130561e+00 1.993891e-01 0.000000e+00
1.133987e+00 3.989623e-01 0.000000e+00
1.136537e+00 5.988006e-01 0.000000e+00
1.138535e+00 7.988896e-01 0.000000e+00
1.139845e+00 9.992435e-01 0.000000e+00
1.140426e+00 1.199873e+00 0.000000e+00
1.140068e+00 1.400730e+00 0.000000e+00
1.138660e+00 1.601642e+00 0.000000e+00
1.136369e+00 1.802266e+00 0.000000e+00
1.133849e+00 2.002357e+00 0.000000e+00
1.350000e+00 0.000000e+00 0.000000e+00
1.355183e+00 1.997467e-01 0.000000e+00
1.358107e+00 3.996685e-01 0.000000e+00
1.360338e+00 5.998173e-01 0.000000e+00
1.362017e+00 8.002034e-01 0.000000e+00
1.363083e+00 1.000821e+00 0.000000e+00
1.363475e+00 1.201666e+00 0.000000e+00
1.363100e+00 1.402641e+00 0.000000e+00
1.362020e+00 1.603546e+00 0.000000e+00
1.360503e+00 1.804115e+00 0.000000e+00
1.359053e+00 2.004260e+00 0.000000e+00
1.575000e+00 0.000000e+00 0.000000e+00
1.579550e+00 1.999696e-01 0.000000e+00
1.582080e+00 4.000928e-01 0.000000e+00
1.583995e+00 6.004335e-01 0.000000e+00
1.585415e+00 8.009867e-01 0.000000e+00
1.586289e+00 1.001756e+00 0.000000e+00
1.586575e+00 1.202683e+00 0.000000e+00
1.586296e+00 1.403651e+00 0.000000e+00
1.585588e+00 1.604479e+00 0.000000e+00
1.584699e+00 1.805014e+00 0.000000e+00
1.583964e+00 2.005221e+00 0.000000e+00
1.800000e+00 0.000000e+00 0.000000e+00
1.803805e+00 2.000647e-01 0.000000e+00
1.805986e+00 4.003194e-01 0.000000e+00
1.807630e+00 6.007618e-01 0.000000e+00
1.808823e+00 8.014028e-01 0.000000e+00
1.809542e+00 1.002225e+00 0.000000e+00
1.809801e+00 1.203138e+00 0.000000e+00
1.809673e+00 1.404032e+00 0.000000e+00
1.809304e+00 1.604779e+00 0.000000e+00
1.808873e+00 1.805297e+00 0.000000e+00
1.808615e+00 2.005577e+00 0.000000e+00
2.025000e+00 0.000000e+00 0.000000e+00
2.028045e+00 2.000908e-01 0.000000e+00
2.029903e+00 4.003996e-01 0.000000e+00
2.031306e+00 6.008922e-01 0.000000e+00
2.032301e+00 8.015550e-01 0.000000e+00
2.032912e+00 1.002344e+00 0.000000e+00
2.033190e+00 1.203183e+00 0.000000e+00
2.033217e+00 1.403987e+00 0.000000e+00
2.033103e+00 1.604672e+00 0.000000e+00
2.032988e+00 1.805196e+00 0.000000e+00
2.033025e+00 2.005554e+00 0.000000e+00
2.250000e+00 0.000000e+00 0.000000e+00
2.252339e+00 2.000832e-01 0.000000e+00
2.253888e+00 4.003939e-01 0.000000e+00
2.255062e+00 6.008801e-01 0.000000e+00
2.255899e+00 8.015068e-01 0.000000e+00
2.256440e+00 1.002221e+00 0.000000e+00
2.256743e+00 1.202968e+00 0.000000e+00
2.256884e+00 1.403693e+00 0.000000e+00
2.256940e+00 1.604337e+00 0.000000e+00
2.257020e+00 1.804875e+00 0.000000e+00
2.257226e+00 2.005315e+00 0.000000e+00
2.475000e+00 0.000000e+00 0.000000e+00
2.476721e+00 2.000560e-01 0.000000e+00
2.477971e+00 4.003318e-01 0.000000e+00
2.478935e+00 6.007673e-01 0.000000e+00
2.479638e+00 8.013227e-01 0.000000e+00
2.480123e+00 1.001955e+00 0.000000e+00
2.480437e+00 1.202624e+00 0.000000e+00
2.480638e+00 1.403285e+00 0.000000e+00
2.480791e+00 1.603901e+00 0.000000e+00
2.480974e+00 1.804456e+00 0.000000e+00
2.481253e+00 2.004966e+00 0.000000e+00
2.700000e+00 0.000000e+00 0.000000e+00
2.701208e+00 2.000240e-01 0.000000e+00
2.702173e+00 4.002370e-01 0.000000e+00
2.702939e+00 6.005996e-01 0.000000e+00
2.703517e+00 8.010799e-01 0.000000e+00
2.703938e+00 1.001639e+00 0.000000e+00
2.704233e+00 1.202242e+00 0.000000e+00
2.704451e+00 1.402855e+00 0.000000e+00
2.704643e+00 1.603452e+00 0.000000e+00
2.704862e+00 1.804026e+00 0.000000e+00
2.705147e+00 2.004592e+00 0.000000e+00
2.925000e+00 0.000000e+00 0.000000e+00
2.925807e+00 1.999879e-01 0.000000e+00
2.926501e+00 4.001355e-01 0.000000e+00
2.927072e+00 6.004262e-01 0.000000e+00
2.927520e+00 8.008389e-01 0.000000e+00
2.927859e+00 1.001337e+00 0.000000e+00
2.928108e+00 1.201889e+00 0.000000e+00
2.928306e+00 1.402466e+00 0.000000e+00
2.928490e+00 1.603050e+00 0.000000e+00
2.928694e+00 1.803640e+00 0.000000e+00
2.928940e+00 2.004251e+00 0.000000e+00
3.150000e+00 0.000000e+00 0.000000e+00
3.150495e+00 1.999547e-01 0.000000e+00
3.150937e+00 4.000519e-01 0.000000e+00
3.151316e+00 6.002887e-01 0.000000e+00
3.151620e+00 8.006444e-01 0.000000e+00
3.151859e+00 1.001096e+00 0.000000e+00
3.152040e+00 1.201610e+00 0.000000e+00
3.152189e+00 1.402161e+00 0.000000e+00
3.152331e+00 1.602737e+00 0.000000e+00
3.152484e+00 1.803339e+00 0.000000e+00
3.152662e+00 2.003982e+00 0.000000e+00
3.375000e+00 0.000000e+00 0.000000e+00
3.375236e+00 1.999348e-01 0.000000e+00
3.375449e+00 4.000036e-01 0.000000e+00
3.375638e+00 6.002071e-01 0.000000e+00
3.375791e+00 8.005277e-01 0.000000e+00
3.375914e+00 1.000946e+00 0.000000e+00
3.376010e+00 1.201434e+00 0.000000e+00
3.376089e+00 1.401968e+00 0.000000e+00
3.376166e+00 1.602538e+00 0.000000e+00
3.376248e+00 1.803147e+00 0.000000e+00
3.376341e+00 2.003806e+00 0.000000e+00
3.600000e+00 0.000000e+00 0.000000e+00
3.600000e+00 1.999402e-01 0.000000e+00
3.600000e+00 4.000024e-01 0.000000e+00
3.600000e+00 6.001945e-01 0.000000e+00
3.600000e+00 8.005010e-01 0.000000e+00
3.600000e+00 1.000903e+00 0.000000e+00
3.600000e+00 1.201379e+00 0.000000e+00
3.600000e+00 1.401903e+00 0.000000e+00
3.600000e+00 1.602467e+00 0.000000e+00
3.600000e+00 1.803075e+00 0.000000e+00
3.600000e+00 2.003737e+00 0.000000e+00
</DataArray>
</Points>
<Cells>
<DataArray Name="connectivity" type="Int32" format="ascii">
0 11 12 1
1 12 13 2
2 13 14 3
3 14 15 4
4 15 16 5
5 16 17 6
6 17 18 7
7 18 19 8
8 19 20 9
9 20 21 10
11 22 23 12
12 23 24 13
13 24 25 14
14 25 26 15
15 26 27 16
16 27 28 17
17 28 29 18
18 29 30 19
19 30 31 20
20 31 32 21
22 33 34 23
23 34 35 24
24 35 36 25
25 36 37 26
26 37 38 27
27 38 39 28
28 39 40 29
29 40 41 30
30 41 42 31
31 42 43 32
33 44 45 34
34 45 46 35
35 46 47 36
36 47 48 37
37 48 49 38
38 49 50 39
39 50 51 40
40 51 52 41
41 52 53 42
42 53 54 43
44 55 56 45
45 56 57 46
46 57 58 47
47 58 59 48
48 59 60 49
49 60 61 50
50 61 62 51
51 62 63 52
52 63 64 53
53 64 65 54
55 66 67 56
56 67 68 57
57 68 69 58
58 69 70 59
59 70 71 60
60 71 72 61
61 72 73 62
62 73 74 63
63 74 75 64
64 75 76 65
66 77 78 67
67 78 79 68
68 79 80 69
69 80 81 70
70 81 82 71
71 82 83 72
72 83 84 73
73 84 85 74
74 85 86 75
75 86 87 76
77 88 89 78
78 89 90 79
79 90 91 80
80 91 92 81
81 92 93 82
82 93 94 83
83 94 95 84
84 95 96 85
85 96 97 86
86 97 98 87
88 99 100 89
89 100 101 90
90 101 102 91
91 102 103 92
92 103 104 93
93 104 105 94
94 105 106 95
95 106 107 96
96 107 108 97
97 108 109 98
99 110 111 100
100 111 112 101
101 112 113 102
102 113 114 103
103 114 115 104
104 115 116 105
105 116 117 106
106 117 118 107
107 118 119 108
108 119 120 109
110 121 122 111
111 122 123 112
112 123 124 113
113 124 125 114
114 125 126 115
115 126 127 116
116 127 128 117
117 128 129 118
118 129 130 119
119 130 131 120
121 132 133 122
122 133 134 123
123 134 135 124
124 135 136 125
125 136 137 126
126 137 138 127
127 138 139 128
128 139 140 129
129 140 141 130
130 141 142 131
132 143 144 133
133 144 145 134
134 145 146 135
135 146 147 136
136 147 148 137
137 148 149 138
138 149 150 139
139 150 151 140
140 151 152 141
141 152 153 142
143 154 155 144
144 155 156 145
145 156 157 146
146 157 158 147
147 158 159 148
148 159 160 149
149 160 161 150
150 161 162 151
151 162 163 152
152 163 164 153
154 165 166 155
155 166 167 156
156 167 168 157
157 168 169 158
158 169 170 159
159 170 171 160
160 171 172 161
161 172 173 162
162 173 174 163
163 174 175 164
165 176 177 166
166 177 178 167
167 178 179 168
168 179 180 169
169 180 181 170
170 181 182 171
171 182 183 172
172 183 184 173
173 184 185 174
174 185 186 175
</DataArray>
<DataArray Name="offsets" type="Int32" format="ascii">
4
8
12
16
20
24
28
32
36
40
44
48
52
56
60
64
68
72
76
80
84
88
92
96
100
104
108
112
116
120
124
128
132
136
140
144
148
152
156
160
164
168
172
176
180
184
188
192
196
200
204
208
212
216
220
224
228
232
236
240
244
248
252
256
260
264
268
272
276
280
284
288
292
296
300
304
308
312
316
320
324
328
332
336
340
344
348
352
356
360
364
368
372
376
380
384
388
392
396
400
404
408
412
416
420
424
428
432
436
440
444
448
452
456
460
464
468
472
476
480
484
488
492
496
500
504
508
512
516
520
524
528
532
536
540
544
548
552
556
560
564
568
572
576
580
584
588
592
596
600
604
608
612
616
620
624
628
632
636
640
</DataArray>
<DataArray Name="types" type="UInt8" format="ascii">
9
9
9
9
9
9
9
9
9
9
9
9
9
9
9
9
9
9
9
9
9
9
9
9
9
9
9
9
9
9
9
9
9
9
9
9
9
9
9
9
9
9
9
9
9
9
9
9
9
9
9
9
9
9
9
9
9
9
9
9
9
9
9
9
9
9
9
9
9
9
9
9
9
9
9
9
9
9
9
9
9
9
9
9
9
9
9
9
9
9
9
9
9
9
9
9
9
9
9
9
9
9
9
9
9
9
9
9
9
9
9
9
9
9
9
9
9
9
9
9
9
9
9
9
9
9
9
9
9
9
9
9
9
9
9
9
9
9
9
9
9
9
9
9
9
9
9
9
9
9
9
9
9
9
9
9
9
9
9
9
</DataArray>
</Cells>
<PointData>
<DataArray Name="disp" type="Float64" NumberOfComponents="3" format="ascii">
0.000000e+00 0.000000e+00 0.000000e+00
0.000000e+00 -3.022692e-03 0.000000e+00
0.000000e+00 -7.617718e-03 0.000000e+00
0.000000e+00 -1.451887e-02 0.000000e+00
0.000000e+00 -2.278985e-02 0.000000e+00
0.000000e+00 -3.161769e-02 0.000000e+00
0.000000e+00 -4.060224e-02 0.000000e+00
0.000000e+00 -4.939777e-02 0.000000e+00
0.000000e+00 -5.685562e-02 0.000000e+00
0.000000e+00 -6.140495e-02 0.000000e+00
0.000000e+00 -6.525000e-02 0.000000e+00
0.000000e+00 0.000000e+00 0.000000e+00
1.684251e-03 -3.080389e-03 0.000000e+00
4.381055e-03 -7.536584e-03 0.000000e+00
6.778954e-03 -1.344625e-02 0.000000e+00
8.058886e-03 -2.067397e-02 0.000000e+00
8.388877e-03 -2.877044e-02 0.000000e+00
8.131832e-03 -3.724221e-02 0.000000e+00
7.066485e-03 -4.568943e-02 0.000000e+00
4.213530e-03 -5.399155e-02 0.000000e+00
5.603503e-04 -6.101689e-02 0.000000e+00
0.000000e+00 -6.525000e-02 0.000000e+00
0.000000e+00 0.000000e+00 0.000000e+00
3.684280e-03 -2.740468e-03 0.000000e+00
7.628685e-03 -6.298264e-03 0.000000e+00
1.095934e-02 -1.025699e-02 0.000000e+00
1.342826e-02 -1.470976e-02 0.000000e+00
1.491035e-02 -2.005888e-02 0.000000e+00
1.531320e-02 -2.655584e-02 0.000000e+00
1.486661e-02 -3.434828e-02 0.000000e+00
1.237496e-02 -4.371869e-02 0.000000e+00
7.719363e-03 -5.428698e-02 0.000000e+00
0.000000e+00 -6.525000e-02 0.000000e+00
0.000000e+00 0.000000e+00 0.000000e+00
5.117098e-03 -1.494867e-03 0.000000e+00
9.480735e-03 -3.172658e-03 0.000000e+00
1.282693e-02 -4.703818e-03 0.000000e+00
1.550845e-02 -5.991964e-03 0.000000e+00
1.748534e-02 -6.960594e-03 0.000000e+00
1.872667e-02 -7.598538e-03 0.000000e+00
1.898955e-02 -7.862695e-03 0.000000e+00
1.744799e-02 -7.625471e-03 0.000000e+00
1.399961e-02 -7.210018e-03 0.000000e+00
7.796182e-03 -7.194737e-03 0.000000e+00
0.000000e+00 0.000000e+00 0.000000e+00
5.536680e-03 -1.052864e-03 0.000000e+00
9.554761e-03 -2.022372e-03 0.000000e+00
1.245003e-02 -2.725909e-03 0.000000e+00
1.477530e-02 -3.146046e-03 0.000000e+00
1.640645e-02 -3.280251e-03 0.000000e+00
1.730360e-02 -3.066079e-03 0.000000e+00
1.711336e-02 -2.491933e-03 0.000000e+00
1.552413e-02 -1.742034e-03 0.000000e+00
1.247163e-02 -1.095324e-03 0.000000e+00
8.307633e-03 -1.021342e-03 0.000000e+00
0.000000e+00 0.000000e+00 0.000000e+00
5.561071e-03 -6.109435e-04 0.000000e+00
8.987176e-03 -1.037659e-03 0.000000e+00
1.153734e-02 -1.199372e-03 0.000000e+00
1.353468e-02 -1.110416e-03 0.000000e+00
1.484472e-02 -7.564947e-04 0.000000e+00
1.542623e-02 -1.272101e-04 0.000000e+00
1.506762e-02 7.302068e-04 0.000000e+00
1.366020e-02 1.641612e-03 0.000000e+00
1.136887e-02 2.266066e-03 0.000000e+00
8.849116e-03 2.357302e-03 0.000000e+00
0.000000e+00 0.000000e+00 0.000000e+00
5.183057e-03 -2.532874e-04 0.000000e+00
8.107326e-03 -3.315324e-04 0.000000e+00
1.033840e-02 -1.826578e-04 0.000000e+00
1.201682e-02 2.034053e-04 0.000000e+00
1.308267e-02 8.212820e-04 0.000000e+00
1.347492e-02 1.665827e-03 0.000000e+00
1.310022e-02 2.640633e-03 0.000000e+00
1.201962e-02 3.545915e-03 0.000000e+00
1.050290e-02 4.114626e-03 0.000000e+00
9.052745e-03 4.259927e-03 0.000000e+00
0.000000e+00 0.000000e+00 0.000000e+00
4.549633e-03 -3.037700e-05 0.000000e+00
7.080126e-03 9.285418e-05 0.000000e+00
8.995443e-03 4.334670e-04 0.000000e+00
1.041484e-02 9.867108e-04 0.000000e+00
1.128856e-02 1.755674e-03 0.000000e+00
1.157528e-02 2.682923e-03 0.000000e+00
1.129565e-02 3.650913e-03 0.000000e+00
1.058810e-02 4.479464e-03 0.000000e+00
9.698535e-03 5.014349e-03 0.000000e+00
8.964519e-03 5.221108e-03 0.000000e+00
0.000000e+00 0.000000e+00 0.000000e+00
3.804648e-03 6.467874e-05 0.000000e+00
5.985625e-03 3.193729e-04 0.000000e+00
7.630423e-03 7.618417e-04 0.000000e+00
8.823262e-03 1.402832e-03 0.000000e+00
9.542000e-03 2.224512e-03 0.000000e+00
9.800691e-03 3.137972e-03 0.000000e+00
9.673476e-03 4.031743e-03 0.000000e+00
9.304045e-03 4.779060e-03 0.000000e+00
8.873297e-03 5.297322e-03 0.000000e+00
8.615023e-03 5.576515e-03 0.000000e+00
0.000000e+00 0.000000e+00 0.000000e+00
3.045008e-03 9.080350e-05 0.000000e+00
4.903015e-03 3.996295e-04 0.000000e+00
6.305535e-03 8.922355e-04 0.000000e+00
7.301127e-03 1.555035e-03 0.000000e+00
7.912020e-03 2.344043e-03 0.000000e+00
8.190035e-03 3.183156e-03 0.000000e+00
8.217014e-03 3.987058e-03 0.000000e+00
8.102424e-03 4.672212e-03 0.000000e+00
7.987848e-03 5.196129e-03 0.000000e+00
8.024886e-03 5.554308e-03 0.000000e+00
0.000000e+00 0.000000e+00 0.000000e+00
2.338682e-03 8.317264e-05 0.000000e+00
3.888016e-03 3.939388e-04 0.000000e+00
5.061965e-03 8.800920e-04 0.000000e+00
5.899387e-03 1.506737e-03 0.000000e+00
6.439824e-03 2.220541e-03 0.000000e+00
6.743367e-03 2.968325e-03 0.000000e+00
6.884183e-03 3.693008e-03 0.000000e+00
6.939657e-03 4.336859e-03 0.000000e+00
7.020511e-03 4.875280e-03 0.000000e+00
7.225673e-03 5.314895e-03 0.000000e+00
0.000000e+00 0.000000e+00 0.000000e+00
1.720729e-03 5.602097e-05 0.000000e+00
2.971190e-03 3.317589e-04 0.000000e+00
3.934563e-03 7.672266e-04 0.000000e+00
4.638207e-03 1.322697e-03 0.000000e+00
5.122529e-03 1.954770e-03 0.000000e+00
5.436513e-03 2.623764e-03 0.000000e+00
5.637649e-03 3.284603e-03 0.000000e+00
5.790529e-03 3.900560e-03 0.000000e+00
5.974391e-03 4.456479e-03 0.000000e+00
6.253099e-03 4.966463e-03 0.000000e+00
0.000000e+00 0.000000e+00 0.000000e+00
1.208394e-03 2.402005e-05 0.000000e+00
2.173009e-03 2.369938e-04 0.000000e+00
2.939329e-03 5.995577e-04 0.000000e+00
3.517475e-03 1.079887e-03 0.000000e+00
3.937412e-03 1.639268e-03 0.000000e+00
4.232608e-03 2.242053e-03 0.000000e+00
4.451128e-03 2.854940e-03 0.000000e+00
4.642778e-03 3.451679e-03 0.000000e+00
4.861943e-03 4.025986e-03 0.000000e+00
5.147130e-03 4.592333e-03 0.000000e+00
0.000000e+00 0.000000e+00 0.000000e+00
8.066117e-04 -1.212353e-05 0.000000e+00
1.500920e-03 1.354439e-04 0.000000e+00
2.071555e-03 4.261847e-04 0.000000e+00
2.520361e-03 8.388978e-04 0.000000e+00
2.858562e-03 1.337380e-03 0.000000e+00
3.107763e-03 1.888960e-03 0.000000e+00
3.306337e-03 2.465742e-03 0.000000e+00
3.490363e-03 3.050027e-03 0.000000e+00
3.694473e-03 3.640337e-03 0.000000e+00
3.940050e-03 4.251488e-03 0.000000e+00
0.000000e+00 0.000000e+00 0.000000e+00
4.949757e-04 -4.530056e-05 0.000000e+00
9.372940e-04 5.185823e-05 0.000000e+00
1.315766e-03 2.886991e-04 0.000000e+00
1.620304e-03 6.443709e-04 0.000000e+00
1.858797e-03 1.096538e-03 0.000000e+00
2.039637e-03 1.609701e-03 0.000000e+00
2.188909e-03 2.160565e-03 0.000000e+00
2.331003e-03 2.736681e-03 0.000000e+00
2.484511e-03 3.339215e-03 0.000000e+00
2.662331e-03 3.981678e-03 0.000000e+00
0.000000e+00 0.000000e+00 0.000000e+00
2.361591e-04 -6.522230e-05 0.000000e+00
4.495152e-04 3.596401e-06 0.000000e+00
6.383637e-04 2.070789e-04 0.000000e+00
7.908327e-04 5.277214e-04 0.000000e+00
9.138923e-04 9.461910e-04 0.000000e+00
1.009614e-03 1.434210e-03 0.000000e+00
1.089124e-03 1.967754e-03 0.000000e+00
1.166025e-03 2.537703e-03 0.000000e+00
1.248053e-03 3.146753e-03 0.000000e+00
1.340857e-03 3.806181e-03 0.000000e+00
0.000000e+00 0.000000e+00 0.000000e+00
0.000000e+00 -5.983276e-05 0.000000e+00
0.000000e+00 2.429135e-06 0.000000e+00
0.000000e+00 1.944513e-04 0.000000e+00
0.000000e+00 5.010436e-04 0.000000e+00
0.000000e+00 9.032719e-04 0.000000e+00
0.000000e+00 1.378861e-03 0.000000e+00
0.000000e+00 1.902974e-03 0.000000e+00
0.000000e+00 2.466893e-03 0.000000e+00
0.000000e+00 3.074575e-03 0.000000e+00
0.000000e+00 3.737327e-03 0.000000e+00
</DataArray>
<DataArray Name="shear" type="Float64" NumberOfComponents="1" format="ascii">
1.802711e-02
2.758952e-02
4.754412e-02
6.625416e-02
7.737282e-02
8.162985e-02
8.082002e-02
7.261103e-02
5.165922e-02
2.841773e-02
2.090059e-02
2.002448e-02
2.912763e-02
4.477837e-02
5.893573e-02
7.010940e-02
7.759319e-02
8.078726e-02
7.848086e-02
6.747963e-02
4.779468e-02
3.263392e-02
2.475519e-02
3.153587e-02
4.048330e-02
4.824452e-02
5.856749e-02
7.151504e-02
8.595032e-02
9.929378e-02
1.101930e-01
1.152769e-01
1.147589e-01
2.780573e-02
2.978045e-02
3.154531e-02
3.398168e-02
3.891039e-02
4.642491e-02
5.679122e-02
6.837113e-02
8.163609e-02
9.609770e-02
1.074109e-01
2.866782e-02
2.641126e-02
2.234144e-02
2.096984e-02
2.097673e-02
2.095775e-02
2.049370e-02
1.856456e-02
1.442121e-02
7.176766e-03
7.034460e-04
2.828521e-02
2.427292e-02
1.884355e-02
1.760989e-02
1.727078e-02
1.694037e-02
1.633749e-02
1.473232e-02
1.142812e-02
5.751896e-03
1.624946e-03
2.619156e-02
2.157511e-02
1.603643e-02
1.510743e-02
1.485724e-02
1.470734e-02
1.434229e-02
1.309721e-02
1.023945e-02
5.557175e-03
2.199909e-03
2.293613e-02
1.866392e-02
1.386838e-02
1.328292e-02
1.330656e-02
1.340221e-02
1.313250e-02
1.193416e-02
9.408377e-03
5.662981e-03
3.081610e-03
1.917103e-02
1.575050e-02
1.215118e-02
1.185604e-02
1.209547e-02
1.229336e-02
1.199534e-02
1.086542e-02
8.796922e-03
5.978401e-03
4.143643e-03
1.537043e-02
1.296596e-02
1.061749e-02
1.057860e-02
1.089901e-02
1.109561e-02
1.083709e-02
9.938587e-03
8.419096e-03
6.460583e-03
5.264517e-03
1.183009e-02
1.035877e-02
9.105813e-03
9.286241e-03
9.658569e-03
9.886549e-03
9.773911e-03
9.206937e-03
8.218800e-03
7.010655e-03
6.328709e-03
8.724200e-03
7.978822e-03
7.572295e-03
7.971747e-03
8.467951e-03
8.819070e-03
8.901079e-03
8.654652e-03
8.127434e-03
7.523624e-03
7.233211e-03
6.138267e-03
5.870810e-03
6.066732e-03
6.731812e-03
7.418160e-03
7.936633e-03
8.219393e-03
8.248936e-03
8.101720e-03
7.961277e-03
7.951536e-03
4.085831e-03
4.078802e-03
4.703440e-03
5.654488e-03
6.552624e-03
7.242706e-03
7.700825e-03
7.959576e-03
8.113384e-03
8.314786e-03
8.499487e-03
2.489204e-03
2.638287e-03
3.616501e-03
4.812890e-03
5.890004e-03
6.731419e-03
7.328897e-03
7.762372e-03
8.134974e-03
8.566363e-03
8.875347e-03
1.190940e-03
1.562815e-03
2.902947e-03
4.276678e-03
5.457052e-03
6.394987e-03
7.090700e-03
7.633875e-03
8.140143e-03
8.703946e-03
9.082166e-03
4.038684e-04
1.110924e-03
2.652326e-03
4.087420e-03
5.295902e-03
6.265591e-03
7.000110e-03
7.581074e-03
8.132332e-03
8.741332e-03
9.142809e-03
</DataArray>
<DataArray Name="stress" type="Float64" NumberOfComponents="9" format="ascii">
-1.186711e+05 5.896087e+03 0.000000e+00 5.896087e+03 -2.046374e+05 0.000000e+00 0.000000e+00 0.000000e+00 0.000000e+00
-1.046957e+05 4.528520e+03 0.000000e+00 4.528520e+03 -2.053638e+05 0.000000e+00 0.000000e+00 0.000000e+00 0.000000e+00
-1.080805e+05 2.605983e+03 0.000000e+00 2.605983e+03 -2.112714e+05 0.000000e+00 0.000000e+00 0.000000e+00 0.000000e+00
-1.145917e+05 3.876423e+03 0.000000e+00 3.876423e+03 -2.170024e+05 0.000000e+00 0.000000e+00 0.000000e+00 0.000000e+00
-1.179736e+05 5.753229e+03 0.000000e+00 5.753229e+03 -2.261271e+05 0.000000e+00 0.000000e+00 0.000000e+00 0.000000e+00
-1.233286e+05 7.900175e+03 0.000000e+00 7.900175e+03 -2.377193e+05 0.000000e+00 0.000000e+00 0.000000e+00 0.000000e+00
-1.301465e+05 1.011369e+04 0.000000e+00 1.011369e+04 -2.512963e+05 0.000000e+00 0.000000e+00 0.000000e+00 0.000000e+00
-1.393386e+05 1.042496e+04 0.000000e+00 1.042496e+04 -2.631727e+05 0.000000e+00 0.000000e+00 0.000000e+00 0.000000e+00
-1.420132e+05 4.848038e+03 0.000000e+00 4.848038e+03 -2.734629e+05 0.000000e+00 0.000000e+00 0.000000e+00 0.000000e+00
-1.489484e+05 -1.579376e+03 0.000000e+00 -1.579376e+03 -2.814303e+05 0.000000e+00 0.000000e+00 0.000000e+00 0.000000e+00
-1.553282e+05 -7.214227e+02 0.000000e+00 -7.214227e+02 -2.711192e+05 0.000000e+00 0.000000e+00 0.000000e+00 0.000000e+00
-1.201967e+05 1.736031e+04 0.000000e+00 1.736031e+04 -1.990677e+05 0.000000e+00 0.000000e+00 0.000000e+00 0.000000e+00
-1.055461e+05 1.480813e+04 0.000000e+00 1.480813e+04 -1.958394e+05 0.000000e+00 0.000000e+00 0.000000e+00 0.000000e+00
-1.054915e+05 1.307462e+04 0.000000e+00 1.307462e+04 -2.070760e+05 0.000000e+00 0.000000e+00 0.000000e+00 0.000000e+00
-1.124453e+05 1.279158e+04 0.000000e+00 1.279158e+04 -2.186324e+05 0.000000e+00 0.000000e+00 0.000000e+00 0.000000e+00
-1.191464e+05 1.304439e+04 0.000000e+00 1.304439e+04 -2.299635e+05 0.000000e+00 0.000000e+00 0.000000e+00 0.000000e+00
-1.249019e+05 1.380095e+04 0.000000e+00 1.380095e+04 -2.407189e+05 0.000000e+00 0.000000e+00 0.000000e+00 0.000000e+00
-1.305389e+05 1.456306e+04 0.000000e+00 1.456306e+04 -2.500356e+05 0.000000e+00 0.000000e+00 0.000000e+00 0.000000e+00
-1.373274e+05 1.299500e+04 0.000000e+00 1.299500e+04 -2.568919e+05 0.000000e+00 0.000000e+00 0.000000e+00 0.000000e+00
-1.411301e+05 6.451706e+03 0.000000e+00 6.451706e+03 -2.679145e+05 0.000000e+00 0.000000e+00 0.000000e+00 0.000000e+00
-1.444799e+05 -1.925489e+03 0.000000e+00 -1.925489e+03 -2.726415e+05 0.000000e+00 0.000000e+00 0.000000e+00 0.000000e+00
-1.660873e+05 -7.518439e+03 0.000000e+00 -7.518439e+03 -3.064928e+05 0.000000e+00 0.000000e+00 0.000000e+00 0.000000e+00
-1.190897e+05 2.929241e+04 0.000000e+00 2.929241e+04 -1.745968e+05 0.000000e+00 0.000000e+00 0.000000e+00 0.000000e+00
-1.056087e+05 2.591585e+04 0.000000e+00 2.591585e+04 -1.673152e+05 0.000000e+00 0.000000e+00 0.000000e+00 0.000000e+00
-1.054348e+05 2.607041e+04 0.000000e+00 2.607041e+04 -1.755069e+05 0.000000e+00 0.000000e+00 0.000000e+00 0.000000e+00
-1.118382e+05 2.711814e+04 0.000000e+00 2.711814e+04 -1.855578e+05 0.000000e+00 0.000000e+00 0.000000e+00 0.000000e+00
-1.197537e+05 2.853832e+04 0.000000e+00 2.853832e+04 -1.959381e+05 0.000000e+00 0.000000e+00 0.000000e+00 0.000000e+00
-1.299680e+05 3.045580e+04 0.000000e+00 3.045580e+04 -2.082918e+05 0.000000e+00 0.000000e+00 0.000000e+00 0.000000e+00
-1.430741e+05 3.243676e+04 0.000000e+00 3.243676e+04 -2.231092e+05 0.000000e+00 0.000000e+00 0.000000e+00 0.000000e+00
-1.574892e+05 3.279753e+04 0.000000e+00 3.279753e+04 -2.383012e+05 0.000000e+00 0.000000e+00 0.000000e+00 0.000000e+00
-1.635411e+05 3.287103e+04 0.000000e+00 3.287103e+04 -2.542363e+05 0.000000e+00 0.000000e+00 0.000000e+00 0.000000e+00
-1.736450e+05 2.237854e+04 0.000000e+00 2.237854e+04 -2.701361e+05 0.000000e+00 0.000000e+00 0.000000e+00 0.000000e+00
-1.958122e+05 4.683206e+03 0.000000e+00 4.683206e+03 -3.191906e+05 0.000000e+00 0.000000e+00 0.000000e+00 0.000000e+00
-1.087535e+05 3.038072e+04 0.000000e+00 3.038072e+04 -1.349258e+05 0.000000e+00 0.000000e+00 0.000000e+00 0.000000e+00
-9.962319e+04 2.798921e+04 0.000000e+00 2.798921e+04 -1.288620e+05 0.000000e+00 0.000000e+00 0.000000e+00 0.000000e+00
-1.010730e+05 2.845789e+04 0.000000e+00 2.845789e+04 -1.294348e+05 0.000000e+00 0.000000e+00 0.000000e+00 0.000000e+00
-1.072196e+05 2.979625e+04 0.000000e+00 2.979625e+04 -1.288191e+05 0.000000e+00 0.000000e+00 0.000000e+00 0.000000e+00
-1.125558e+05 3.134974e+04 0.000000e+00 3.134974e+04 -1.269775e+05 0.000000e+00 0.000000e+00 0.000000e+00 0.000000e+00
-1.157841e+05 3.173070e+04 0.000000e+00 3.173070e+04 -1.226290e+05 0.000000e+00 0.000000e+00 0.000000e+00 0.000000e+00
-1.179129e+05 3.071062e+04 0.000000e+00 3.071062e+04 -1.160075e+05 0.000000e+00 0.000000e+00 0.000000e+00 0.000000e+00
-1.187129e+05 2.757941e+04 0.000000e+00 2.757941e+04 -1.083755e+05 0.000000e+00 0.000000e+00 0.000000e+00 0.000000e+00
-1.086616e+05 2.131888e+04 0.000000e+00 2.131888e+04 -9.545281e+04 0.000000e+00 0.000000e+00 0.000000e+00 0.000000e+00
-8.740017e+04 1.348339e+04 0.000000e+00 1.348339e+04 -7.990102e+04 0.000000e+00 0.000000e+00 0.000000e+00 0.000000e+00
-5.775753e+04 7.165916e+03 0.000000e+00 7.165916e+03 -6.293788e+04 0.000000e+00 0.000000e+00 0.000000e+00 0.000000e+00
-1.037171e+05 2.937875e+04 0.000000e+00 2.937875e+04 -1.144337e+05 0.000000e+00 0.000000e+00 0.000000e+00 0.000000e+00
-9.975908e+04 2.790191e+04 0.000000e+00 2.790191e+04 -1.119625e+05 0.000000e+00 0.000000e+00 0.000000e+00 0.000000e+00
-1.046476e+05 2.823719e+04 0.000000e+00 2.823719e+04 -1.126331e+05 0.000000e+00 0.000000e+00 0.000000e+00 0.000000e+00
-1.122020e+05 2.878584e+04 0.000000e+00 2.878584e+04 -1.104552e+05 0.000000e+00 0.000000e+00 0.000000e+00 0.000000e+00
-1.187260e+05 2.874162e+04 0.000000e+00 2.874162e+04 -1.062903e+05 0.000000e+00 0.000000e+00 0.000000e+00 0.000000e+00
-1.233073e+05 2.750781e+04 0.000000e+00 2.750781e+04 -1.003911e+05 0.000000e+00 0.000000e+00 0.000000e+00 0.000000e+00
-1.264987e+05 2.501848e+04 0.000000e+00 2.501848e+04 -9.329440e+04 0.000000e+00 0.000000e+00 0.000000e+00 0.000000e+00
-1.275290e+05 2.012062e+04 0.000000e+00 2.012062e+04 -8.540417e+04 0.000000e+00 0.000000e+00 0.000000e+00 0.000000e+00
-1.197284e+05 1.257811e+04 0.000000e+00 1.257811e+04 -7.634664e+04 0.000000e+00 0.000000e+00 0.000000e+00 0.000000e+00
-9.722113e+04 3.992166e+03 0.000000e+00 3.992166e+03 -6.875438e+04 0.000000e+00 0.000000e+00 0.000000e+00 0.000000e+00
-6.007504e+04 -7.910706e+01 0.000000e+00 -7.910706e+01 -5.645952e+04 0.000000e+00 0.000000e+00 0.000000e+00 0.000000e+00
-9.761722e+04 2.752295e+04 0.000000e+00 2.752295e+04 -9.967050e+04 0.000000e+00 0.000000e+00 0.000000e+00 0.000000e+00
-9.796243e+04 2.694786e+04 0.000000e+00 2.694786e+04 -9.932173e+04 0.000000e+00 0.000000e+00 0.000000e+00 0.000000e+00
-1.048160e+05 2.619897e+04 0.000000e+00 2.619897e+04 -9.807867e+04 0.000000e+00 0.000000e+00 0.000000e+00 0.000000e+00
-1.120971e+05 2.497156e+04 0.000000e+00 2.497156e+04 -9.414255e+04 0.000000e+00 0.000000e+00 0.000000e+00 0.000000e+00
-1.176052e+05 2.340157e+04 0.000000e+00 2.340157e+04 -8.995236e+04 0.000000e+00 0.000000e+00 0.000000e+00 0.000000e+00
-1.210666e+05 2.096603e+04 0.000000e+00 2.096603e+04 -8.488777e+04 0.000000e+00 0.000000e+00 0.000000e+00 0.000000e+00
-1.229038e+05 1.718508e+04 0.000000e+00 1.718508e+04 -7.912192e+04 0.000000e+00 0.000000e+00 0.000000e+00 0.000000e+00
-1.204803e+05 1.137024e+04 0.000000e+00 1.137024e+04 -7.282646e+04 0.000000e+00 0.000000e+00 0.000000e+00 0.000000e+00
-1.111592e+05 4.059361e+03 0.000000e+00 4.059361e+03 -6.685133e+04 0.000000e+00 0.000000e+00 0.000000e+00 0.000000e+00
-8.951928e+04 -1.919691e+03 0.000000e+00 -1.919691e+03 -6.235471e+04 0.000000e+00 0.000000e+00 0.000000e+00 0.000000e+00
-6.104980e+04 -3.532754e+03 0.000000e+00 -3.532754e+03 -5.582339e+04 0.000000e+00 0.000000e+00 0.000000e+00 0.000000e+00
-8.958524e+04 2.505882e+04 0.000000e+00 2.505882e+04 -8.763220e+04 0.000000e+00 0.000000e+00 0.000000e+00 0.000000e+00
-9.578352e+04 2.499724e+04 0.000000e+00 2.499724e+04 -8.919896e+04 0.000000e+00 0.000000e+00 0.000000e+00 0.000000e+00
-1.038101e+05 2.296455e+04 0.000000e+00 2.296455e+04 -8.649635e+04 0.000000e+00 0.000000e+00 0.000000e+00 0.000000e+00
-1.104537e+05 2.110584e+04 0.000000e+00 2.110584e+04 -8.321498e+04 0.000000e+00 0.000000e+00 0.000000e+00 0.000000e+00
-1.152182e+05 1.868531e+04 0.000000e+00 1.868531e+04 -7.960731e+04 0.000000e+00 0.000000e+00 0.000000e+00 0.000000e+00
-1.175569e+05 1.533651e+04 0.000000e+00 1.533651e+04 -7.516449e+04 0.000000e+00 0.000000e+00 0.000000e+00 0.000000e+00
-1.174878e+05 1.080576e+04 0.000000e+00 1.080576e+04 -7.049721e+04 0.000000e+00 0.000000e+00 0.000000e+00 0.000000e+00
-1.133232e+05 5.096718e+03 0.000000e+00 5.096718e+03 -6.596730e+04 0.000000e+00 0.000000e+00 0.000000e+00 0.000000e+00
-1.040389e+05 -7.194774e+02 0.000000e+00 -7.194774e+02 -6.241136e+04 0.000000e+00 0.000000e+00 0.000000e+00 0.000000e+00
-8.692688e+04 -3.663077e+03 0.000000e+00 -3.663077e+03 -6.031216e+04 0.000000e+00 0.000000e+00 0.000000e+00 0.000000e+00
-6.810306e+04 -3.660987e+03 0.000000e+00 -3.660987e+03 -5.685822e+04 0.000000e+00 0.000000e+00 0.000000e+00 0.000000e+00
-8.269474e+04 2.283514e+04 0.000000e+00 2.283514e+04 -7.918377e+04 0.000000e+00 0.000000e+00 0.000000e+00 0.000000e+00
-9.322534e+04 2.267254e+04 0.000000e+00 2.267254e+04 -8.150671e+04 0.000000e+00 0.000000e+00 0.000000e+00 0.000000e+00
-1.019027e+05 2.003311e+04 0.000000e+00 2.003311e+04 -7.861520e+04 0.000000e+00 0.000000e+00 0.000000e+00 0.000000e+00
-1.079739e+05 1.762375e+04 0.000000e+00 1.762375e+04 -7.572144e+04 0.000000e+00 0.000000e+00 0.000000e+00 0.000000e+00
-1.117588e+05 1.447412e+04 0.000000e+00 1.447412e+04 -7.241331e+04 0.000000e+00 0.000000e+00 0.000000e+00 0.000000e+00
-1.131615e+05 1.063577e+04 0.000000e+00 1.063577e+04 -6.883481e+04 0.000000e+00 0.000000e+00 0.000000e+00 0.000000e+00
-1.119295e+05 6.070129e+03 0.000000e+00 6.070129e+03 -6.532575e+04 0.000000e+00 0.000000e+00 0.000000e+00 0.000000e+00
-1.073944e+05 1.170977e+03 0.000000e+00 1.170977e+03 -6.230420e+04 0.000000e+00 0.000000e+00 0.000000e+00 0.000000e+00
-9.937933e+04 -2.801043e+03 0.000000e+00 -2.801043e+03 -6.036666e+04 0.000000e+00 0.000000e+00 0.000000e+00 0.000000e+00
-8.716346e+04 -3.884932e+03 0.000000e+00 -3.884932e+03 -5.962080e+04 0.000000e+00 0.000000e+00 0.000000e+00 0.000000e+00
-7.535509e+04 -3.164634e+03 0.000000e+00 -3.164634e+03 -5.757447e+04 0.000000e+00 0.000000e+00 0.000000e+00 0.000000e+00
-7.802451e+04 2.079931e+04 0.000000e+00 2.079931e+04 -7.321806e+04 0.000000e+00 0.000000e+00 0.000000e+00 0.000000e+00
-9.025347e+04 2.043282e+04 0.000000e+00 2.043282e+04 -7.560007e+04 0.000000e+00 0.000000e+00 0.000000e+00 0.000000e+00
-9.924892e+04 1.739196e+04 0.000000e+00 1.739196e+04 -7.282109e+04 0.000000e+00 0.000000e+00 0.000000e+00 0.000000e+00
-1.047796e+05 1.436948e+04 0.000000e+00 1.436948e+04 -7.018823e+04 0.000000e+00 0.000000e+00 0.000000e+00 0.000000e+00
-1.077704e+05 1.094023e+04 0.000000e+00 1.094023e+04 -6.746814e+04 0.000000e+00 0.000000e+00 0.000000e+00 0.000000e+00
-1.085722e+05 7.031946e+03 0.000000e+00 7.031946e+03 -6.472346e+04 0.000000e+00 0.000000e+00 0.000000e+00 0.000000e+00
-1.069631e+05 2.837827e+03 0.000000e+00 2.837827e+03 -6.222259e+04 0.000000e+00 0.000000e+00 0.000000e+00 0.000000e+00
-1.029909e+05 -1.006573e+03 0.000000e+00 -1.006573e+03 -6.038632e+04 0.000000e+00 0.000000e+00 0.000000e+00 0.000000e+00
-9.678414e+04 -3.545436e+03 0.000000e+00 -3.545436e+03 -5.949637e+04 0.000000e+00 0.000000e+00 0.000000e+00 0.000000e+00
-8.866648e+04 -3.538168e+03 0.000000e+00 -3.538168e+03 -5.942170e+04 0.000000e+00 0.000000e+00 0.000000e+00 0.000000e+00
-8.159861e+04 -2.482155e+03 0.000000e+00 -2.482155e+03 -5.825644e+04 0.000000e+00 0.000000e+00 0.000000e+00 0.000000e+00
-7.464097e+04 1.886524e+04 0.000000e+00 1.886524e+04 -6.876435e+04 0.000000e+00 0.000000e+00 0.000000e+00 0.000000e+00
-8.706216e+04 1.822881e+04 0.000000e+00 1.822881e+04 -7.103773e+04 0.000000e+00 0.000000e+00 0.000000e+00 0.000000e+00
-9.598423e+04 1.487553e+04 0.000000e+00 1.487553e+04 -6.838430e+04 0.000000e+00 0.000000e+00 0.000000e+00 0.000000e+00
-1.011596e+05 1.162329e+04 0.000000e+00 1.162329e+04 -6.614522e+04 0.000000e+00 0.000000e+00 0.000000e+00 0.000000e+00
-1.038050e+05 8.155016e+03 0.000000e+00 8.155016e+03 -6.400264e+04 0.000000e+00 0.000000e+00 0.000000e+00 0.000000e+00
-1.042986e+05 4.455090e+03 0.000000e+00 4.455090e+03 -6.197229e+04 0.000000e+00 0.000000e+00 0.000000e+00 0.000000e+00
-1.028535e+05 8.607422e+02 0.000000e+00 8.607422e+02 -6.034214e+04 0.000000e+00 0.000000e+00 0.000000e+00 0.000000e+00
-9.980732e+04 -2.046731e+03 0.000000e+00 -2.046731e+03 -5.935144e+04 0.000000e+00 0.000000e+00 0.000000e+00 0.000000e+00
-9.551459e+04 -3.576958e+03 0.000000e+00 -3.576958e+03 -5.913344e+04 0.000000e+00 0.000000e+00 0.000000e+00 0.000000e+00
-9.061102e+04 -2.986559e+03 0.000000e+00 -2.986559e+03 -5.940539e+04 0.000000e+00 0.000000e+00 0.000000e+00 0.000000e+00
-8.672410e+04 -1.853876e+03 0.000000e+00 -1.853876e+03 -5.885037e+04 0.000000e+00 0.000000e+00 0.000000e+00 0.000000e+00
-7.175193e+04 1.674143e+04 0.000000e+00 1.674143e+04 -6.575323e+04 0.000000e+00 0.000000e+00 0.000000e+00 0.000000e+00
-8.359078e+04 1.602415e+04 0.000000e+00 1.602415e+04 -6.764218e+04 0.000000e+00 0.000000e+00 0.000000e+00 0.000000e+00
-9.253573e+04 1.260730e+04 0.000000e+00 1.260730e+04 -6.524751e+04 0.000000e+00 0.000000e+00 0.000000e+00 0.000000e+00
-9.752289e+04 9.384180e+03 0.000000e+00 9.384180e+03 -6.334977e+04 0.000000e+00 0.000000e+00 0.000000e+00 0.000000e+00
-9.998667e+04 6.057133e+03 0.000000e+00 6.057133e+03 -6.163818e+04 0.000000e+00 0.000000e+00 0.000000e+00 0.000000e+00
-1.005162e+05 2.740863e+03 0.000000e+00 2.740863e+03 -6.017775e+04 0.000000e+00 0.000000e+00 0.000000e+00 0.000000e+00
-9.956780e+04 -2.203037e+02 0.000000e+00 -2.203037e+02 -5.922800e+04 0.000000e+00 0.000000e+00 0.000000e+00 0.000000e+00
-9.760839e+04 -2.355614e+03 0.000000e+00 -2.355614e+03 -5.885148e+04 0.000000e+00 0.000000e+00 0.000000e+00 0.000000e+00
-9.509952e+04 -3.198707e+03 0.000000e+00 -3.198707e+03 -5.903619e+04 0.000000e+00 0.000000e+00 0.000000e+00 0.000000e+00
-9.258758e+04 -2.396087e+03 0.000000e+00 -2.396087e+03 -5.946957e+04 0.000000e+00 0.000000e+00 0.000000e+00 0.000000e+00
-9.074600e+04 -1.353211e+03 0.000000e+00 -1.353211e+03 -5.933503e+04 0.000000e+00 0.000000e+00 0.000000e+00 0.000000e+00
-6.918452e+04 1.459949e+04 0.000000e+00 1.459949e+04 -6.407712e+04 0.000000e+00 0.000000e+00 0.000000e+00 0.000000e+00
-8.017787e+04 1.379982e+04 0.000000e+00 1.379982e+04 -6.543336e+04 0.000000e+00 0.000000e+00 0.000000e+00 0.000000e+00
-8.912528e+04 1.061048e+04 0.000000e+00 1.061048e+04 -6.322418e+04 0.000000e+00 0.000000e+00 0.000000e+00 0.000000e+00
-9.404209e+04 7.548433e+03 0.000000e+00 7.548433e+03 -6.159315e+04 0.000000e+00 0.000000e+00 0.000000e+00 0.000000e+00
-9.649631e+04 4.500434e+03 0.000000e+00 4.500434e+03 -6.024072e+04 0.000000e+00 0.000000e+00 0.000000e+00 0.000000e+00
-9.725664e+04 1.637297e+03 0.000000e+00 1.637297e+03 -5.922518e+04 0.000000e+00 0.000000e+00 0.000000e+00 0.000000e+00
-9.697991e+04 -7.091401e+02 0.000000e+00 -7.091401e+02 -5.870887e+04 0.000000e+00 0.000000e+00 0.000000e+00 0.000000e+00
-9.615415e+04 -2.225760e+03 0.000000e+00 -2.225760e+03 -5.869526e+04 0.000000e+00 0.000000e+00 0.000000e+00 0.000000e+00
-9.516110e+04 -2.638795e+03 0.000000e+00 -2.638795e+03 -5.906411e+04 0.000000e+00 0.000000e+00 0.000000e+00 0.000000e+00
-9.434108e+04 -1.842614e+03 0.000000e+00 -1.842614e+03 -5.954375e+04 0.000000e+00 0.000000e+00 0.000000e+00 0.000000e+00
-9.389681e+04 -9.669081e+02 0.000000e+00 -9.669081e+02 -5.969748e+04 0.000000e+00 0.000000e+00 0.000000e+00 0.000000e+00
-6.747232e+04 1.225065e+04 0.000000e+00 1.225065e+04 -6.343985e+04 0.000000e+00 0.000000e+00 0.000000e+00 0.000000e+00
-7.721213e+04 1.146240e+04 0.000000e+00 1.146240e+04 -6.415866e+04 0.000000e+00 0.000000e+00 0.000000e+00 0.000000e+00
-8.595268e+04 8.759637e+03 0.000000e+00 8.759637e+03 -6.211798e+04 0.000000e+00 0.000000e+00 0.000000e+00 0.000000e+00
-9.083180e+04 6.009861e+03 0.000000e+00 6.009861e+03 -6.064296e+04 0.000000e+00 0.000000e+00 0.000000e+00 0.000000e+00
-9.340367e+04 3.328287e+03 0.000000e+00 3.328287e+03 -5.950411e+04 0.000000e+00 0.000000e+00 0.000000e+00 0.000000e+00
-9.458905e+04 9.616456e+02 0.000000e+00 9.616456e+02 -5.879501e+04 0.000000e+00 0.000000e+00 0.000000e+00 0.000000e+00
-9.505122e+04 -8.313534e+02 0.000000e+00 -8.313534e+02 -5.857191e+04 0.000000e+00 0.000000e+00 0.000000e+00 0.000000e+00
-9.524282e+04 -1.869336e+03 0.000000e+00 -1.869336e+03 -5.874232e+04 0.000000e+00 0.000000e+00 0.000000e+00 0.000000e+00
-9.541129e+04 -2.040853e+03 0.000000e+00 -2.040853e+03 -5.915478e+04 0.000000e+00 0.000000e+00 0.000000e+00 0.000000e+00
-9.577102e+04 -1.343660e+03 0.000000e+00 -1.343660e+03 -5.960379e+04 0.000000e+00 0.000000e+00 0.000000e+00 0.000000e+00
-9.627841e+04 -6.481517e+02 0.000000e+00 -6.481517e+02 -5.993742e+04 0.000000e+00 0.000000e+00 0.000000e+00 0.000000e+00
-6.653496e+04 9.750018e+03 0.000000e+00 9.750018e+03 -6.372981e+04 0.000000e+00 0.000000e+00 0.000000e+00 0.000000e+00
-7.492981e+04 9.023148e+03 0.000000e+00 9.023148e+03 -6.379293e+04 0.000000e+00 0.000000e+00 0.000000e+00 0.000000e+00
-8.321381e+04 6.875490e+03 0.000000e+00 6.875490e+03 -6.174331e+04 0.000000e+00 0.000000e+00 0.000000e+00 0.000000e+00
-8.804466e+04 4.566598e+03 0.000000e+00 4.566598e+03 -6.021098e+04 0.000000e+00 0.000000e+00 0.000000e+00 0.000000e+00
-9.082306e+04 2.388632e+03 0.000000e+00 2.388632e+03 -5.916205e+04 0.000000e+00 0.000000e+00 0.000000e+00 0.000000e+00
-9.251978e+04 5.664088e+02 0.000000e+00 5.664088e+02 -5.862010e+04 0.000000e+00 0.000000e+00 0.000000e+00 0.000000e+00
-9.368136e+04 -7.385828e+02 0.000000e+00 -7.385828e+02 -5.855261e+04 0.000000e+00 0.000000e+00 0.000000e+00 0.000000e+00
-9.469375e+04 -1.424541e+03 0.000000e+00 -1.424541e+03 -5.883262e+04 0.000000e+00 0.000000e+00 0.000000e+00 0.000000e+00
-9.570988e+04 -1.465452e+03 0.000000e+00 -1.465452e+03 -5.926905e+04 0.000000e+00 0.000000e+00 0.000000e+00 0.000000e+00
-9.685129e+04 -9.141885e+02 0.000000e+00 -9.141885e+02 -5.968782e+04 0.000000e+00 0.000000e+00 0.000000e+00 0.000000e+00
-9.795785e+04 -4.102462e+02 0.000000e+00 -4.102462e+02 -6.012936e+04 0.000000e+00 0.000000e+00 0.000000e+00 0.000000e+00
-6.588559e+04 6.772323e+03 0.000000e+00 6.772323e+03 -6.450548e+04 0.000000e+00 0.000000e+00 0.000000e+00 0.000000e+00
-7.319638e+04 6.241034e+03 0.000000e+00 6.241034e+03 -6.406396e+04 0.000000e+00 0.000000e+00 0.000000e+00 0.000000e+00
-8.098888e+04 4.746642e+03 0.000000e+00 4.746642e+03 -6.176795e+04 0.000000e+00 0.000000e+00 0.000000e+00 0.000000e+00
-8.587065e+04 3.073730e+03 0.000000e+00 3.073730e+03 -6.009693e+04 0.000000e+00 0.000000e+00 0.000000e+00 0.000000e+00
-8.892710e+04 1.545683e+03 0.000000e+00 1.545683e+03 -5.906935e+04 0.000000e+00 0.000000e+00 0.000000e+00 0.000000e+00
-9.102060e+04 3.172770e+02 0.000000e+00 3.172770e+02 -5.861898e+04 0.000000e+00 0.000000e+00 0.000000e+00 0.000000e+00
-9.276872e+04 -5.308252e+02 0.000000e+00 -5.308252e+02 -5.862496e+04 0.000000e+00 0.000000e+00 0.000000e+00 0.000000e+00
-9.438757e+04 -9.420667e+02 0.000000e+00 -9.420667e+02 -5.893638e+04 0.000000e+00 0.000000e+00 0.000000e+00 0.000000e+00
-9.597838e+04 -9.290717e+02 0.000000e+00 -9.290717e+02 -5.936707e+04 0.000000e+00 0.000000e+00 0.000000e+00 0.000000e+00
-9.759681e+04 -5.556618e+02 0.000000e+00 -5.556618e+02 -5.974681e+04 0.000000e+00 0.000000e+00 0.000000e+00 0.000000e+00
-9.906732e+04 -2.356792e+02 0.000000e+00 -2.356792e+02 -6.022570e+04 0.000000e+00 0.000000e+00 0.000000e+00 0.000000e+00
-6.554563e+04 3.422618e+03 0.000000e+00 3.422618e+03 -6.500616e+04 0.000000e+00 0.000000e+00 0.000000e+00 0.000000e+00
-7.220698e+04 3.155228e+03 0.000000e+00 3.155228e+03 -6.432547e+04 0.000000e+00 0.000000e+00 0.000000e+00 0.000000e+00
-7.956335e+04 2.397210e+03 0.000000e+00 2.397210e+03 -6.183834e+04 0.000000e+00 0.000000e+00 0.000000e+00 0.000000e+00
-8.446526e+04 1.529236e+03 0.000000e+00 1.529236e+03 -6.013431e+04 0.000000e+00 0.000000e+00 0.000000e+00 0.000000e+00
-8.776329e+04 7.579279e+02 0.000000e+00 7.579279e+02 -5.910373e+04 0.000000e+00 0.000000e+00 0.000000e+00 0.000000e+00
-9.013303e+04 1.444899e+02 0.000000e+00 1.444899e+02 -5.869995e+04 0.000000e+00 0.000000e+00 0.000000e+00 0.000000e+00
-9.224400e+04 -2.730241e+02 0.000000e+00 -2.730241e+02 -5.873764e+04 0.000000e+00 0.000000e+00 0.000000e+00 0.000000e+00
-9.423511e+04 -4.663016e+02 0.000000e+00 -4.663016e+02 -5.905417e+04 0.000000e+00 0.000000e+00 0.000000e+00 0.000000e+00
-9.615248e+04 -4.424973e+02 0.000000e+00 -4.424973e+02 -5.946480e+04 0.000000e+00 0.000000e+00 0.000000e+00 0.000000e+00
-9.802885e+04 -2.553635e+02 0.000000e+00 -2.553635e+02 -5.979892e+04 0.000000e+00 0.000000e+00 0.000000e+00 0.000000e+00
-9.968869e+04 -9.224055e+01 0.000000e+00 -9.224055e+01 -6.028157e+04 0.000000e+00 0.000000e+00 0.000000e+00 0.000000e+00
-6.532934e+04 9.281409e+02 0.000000e+00 9.281409e+02 -6.491468e+04 0.000000e+00 0.000000e+00 0.000000e+00 0.000000e+00
-7.181852e+04 9.030127e+02 0.000000e+00 9.030127e+02 -6.426226e+04 0.000000e+00 0.000000e+00 0.000000e+00 0.000000e+00
-7.907303e+04 6.735568e+02 0.000000e+00 6.735568e+02 -6.185125e+04 0.000000e+00 0.000000e+00 0.000000e+00 0.000000e+00
-8.400474e+04 3.536200e+02 0.000000e+00 3.536200e+02 -6.017925e+04 0.000000e+00 0.000000e+00 0.000000e+00 0.000000e+00
-8.739659e+04 6.256230e+01 0.000000e+00 6.256230e+01 -5.916436e+04 0.000000e+00 0.000000e+00 0.000000e+00 0.000000e+00
-8.986237e+04 -1.773384e+02 0.000000e+00 -1.773384e+02 -5.878549e+04 0.000000e+00 0.000000e+00 0.000000e+00 0.000000e+00
-9.208869e+04 -3.317050e+02 0.000000e+00 -3.317050e+02 -5.883441e+04 0.000000e+00 0.000000e+00 0.000000e+00 0.000000e+00
-9.421741e+04 -3.998086e+02 0.000000e+00 -3.998086e+02 -5.914422e+04 0.000000e+00 0.000000e+00 0.000000e+00 0.000000e+00
-9.624312e+04 -3.796940e+02 0.000000e+00 -3.796940e+02 -5.953891e+04 0.000000e+00 0.000000e+00 0.000000e+00 0.000000e+00
-9.819423e+04 -2.956105e+02 0.000000e+00 -2.956105e+02 -5.984607e+04 0.000000e+00 0.000000e+00 0.000000e+00 0.000000e+00
-9.990605e+04 -2.135734e+02 0.000000e+00 -2.135734e+02 -6.031908e+04 0.000000e+00 0.000000e+00 0.000000e+00 0.000000e+00
</DataArray>
<DataArray Name="vol_eps" type="Float64" NumberOfComponents="1" format="ascii">
-1.283003e-02
-1.096152e-02
-9.131210e-03
-8.026009e-03
-7.615598e-03
-8.245277e-03
-9.740096e-03
-1.220311e-02
-1.530777e-02
-1.886185e-02
-1.923701e-02
-1.245818e-02
-1.029670e-02
-8.984598e-03
-8.575604e-03
-8.471483e-03
-8.592418e-03
-9.194002e-03
-1.067732e-02
-1.286102e-02
-1.560563e-02
-2.102030e-02
-1.051154e-02
-8.200815e-03
-7.527028e-03
-7.649844e-03
-7.761474e-03
-7.986619e-03
-8.564447e-03
-9.529163e-03
-9.834678e-03
-1.042891e-02
-1.480470e-02
-6.834598e-03
-5.432273e-03
-5.317889e-03
-5.547340e-03
-5.306047e-03
-4.441659e-03
-2.989739e-03
-1.161362e-03
1.827775e-03
6.228466e-03
1.091606e-02
-4.966708e-03
-4.709451e-03
-5.505315e-03
-6.011772e-03
-6.176325e-03
-6.095431e-03
-5.821523e-03
-5.461631e-03
-4.602742e-03
-2.860436e-03
4.053273e-04
-3.407634e-03
-3.811583e-03
-4.766594e-03
-5.126909e-03
-5.253927e-03
-5.154920e-03
-4.872730e-03
-4.375260e-03
-3.577571e-03
-2.012854e-03
2.899968e-04
-2.139840e-03
-3.177383e-03
-4.115695e-03
-4.445295e-03
-4.529672e-03
-4.353071e-03
-4.022907e-03
-3.553074e-03
-2.888336e-03
-1.732295e-03
-2.847519e-04
-1.285020e-03
-2.693607e-03
-3.590781e-03
-3.853546e-03
-3.858721e-03
-3.676975e-03
-3.396496e-03
-3.011149e-03
-2.493085e-03
-1.712492e-03
-8.027953e-04
-8.506082e-04
-2.306787e-03
-3.108780e-03
-3.313007e-03
-3.301550e-03
-3.171417e-03
-2.956870e-03
-2.660727e-03
-2.293588e-03
-1.805443e-03
-1.260865e-03
-6.605911e-04
-1.990970e-03
-2.657268e-03
-2.845468e-03
-2.871856e-03
-2.796470e-03
-2.636685e-03
-2.430147e-03
-2.205561e-03
-1.936300e-03
-1.644990e-03
-5.813624e-04
-1.719611e-03
-2.281900e-03
-2.481111e-03
-2.543188e-03
-2.505593e-03
-2.398513e-03
-2.285172e-03
-2.180392e-03
-2.065585e-03
-1.936841e-03
-5.610129e-04
-1.496035e-03
-1.994984e-03
-2.206822e-03
-2.285949e-03
-2.275480e-03
-2.229827e-03
-2.200728e-03
-2.185287e-03
-2.172051e-03
-2.151730e-03
-5.602871e-04
-1.310363e-03
-1.772895e-03
-1.986149e-03
-2.070236e-03
-2.098486e-03
-2.117244e-03
-2.152312e-03
-2.201369e-03
-2.255000e-03
-2.307976e-03
-5.864626e-04
-1.169186e-03
-1.589745e-03
-1.801237e-03
-1.902698e-03
-1.969842e-03
-2.040120e-03
-2.126312e-03
-2.222324e-03
-2.318745e-03
-2.415141e-03
-6.379763e-04
-1.090715e-03
-1.449400e-03
-1.659423e-03
-1.787585e-03
-1.885629e-03
-1.993944e-03
-2.115891e-03
-2.242230e-03
-2.362134e-03
-2.482310e-03
-6.717212e-04
-1.052420e-03
-1.362530e-03
-1.573195e-03
-1.720196e-03
-1.841123e-03
-1.971373e-03
-2.114625e-03
-2.257163e-03
-2.387557e-03
-2.520222e-03
-6.580836e-04
-1.026258e-03
-1.331169e-03
-1.547138e-03
-1.703327e-03
-1.833491e-03
-1.970622e-03
-2.120791e-03
-2.268365e-03
-2.400482e-03
-2.535603e-03
</DataArray>
</PointData>
</Piece>
</UnstructuredGrid>
</VTKFile>
