<?xml version="1.0"?>
<VTKFile type="UnstructuredGrid" version="0.1">
<UnstructuredGrid>
<FieldData>
<DataArray Name="TIME" type="Float64" format="ascii" NumberOfTuples="1">
0.000000e+00
</DataArray>
</FieldData>
<FieldData>
<DataArray Name="CYCLE" type="Int32" format="ascii" NumberOfTuples="1">
0
</DataArray>
</FieldData>
<Piece NumberOfPoints="187" NumberOfCells="160">
<Points>
<DataArray NumberOfComponents="3" type="Float64" format="ascii">
0.000000e+00 0.000000e+00 0.000000e+00
0.000000e+00 1.976735e-01 0.000000e+00
0.000000e+00 3.945554e-01 0.000000e+00
0.000000e+00 5.908237e-01 0.000000e+00
0.000000e+00 7.865793e-01 0.000000e+00
0.000000e+00 9.819967e-01 0.000000e+00
0.000000e+00 1.177274e+00 0.000000e+00
0.000000e+00 1.372622e+00 0.000000e+00
0.000000e+00 1.568357e+00 0.000000e+00
0.000000e+00 1.764872e+00 0.000000e+00
0.000000e+00 1.961750e+00 0.000000e+00
2.250000e-01 0.000000e+00 0.000000e+00
2.260881e-01 1.978678e-01 0.000000e+00
2.269762e-01 3.950108e-01 0.000000e+00
2.276586e-01 5.915757e-01 0.000000e+00
2.281327e-01 7.876586e-01 0.000000e+00
2.283161e-01 9.833647e-01 0.000000e+00
2.282122e-01 1.178786e+00 0.000000e+00
2.277787e-01 1.374047e+00 0.000000e+00
2.268618e-01 1.569357e+00 0.000000e+00
2.255520e-01 1.765005e+00 0.000000e+00
2.250000e-01 1.961750e+00 0.000000e+00
4.500000e-01 0.000000e+00 0.000000e+00
4.519710e-01 1.983586e-01 0.000000e+00
4.535637e-01 3.962688e-01 0.000000e+00
4.548110e-01 5.937533e-01 0.000000e+00
4.557158e-01 7.908304e-01 0.000000e+00
4.562280e-01 9.874784e-01 0.000000e+00
4.564326e-01 1.183636e+00 0.000000e+00
4.561862e-01 1.379235e+00 0.000000e+00
4.552869e-01 1.574150e+00 0.000000e+00
4.535227e-01 1.768229e+00 0.000000e+00
4.500000e-01 1.961750e+00 0.000000e+00
6.750000e-01 0.000000e+00 0.000000e+00
6.774265e-01 1.988694e-01 0.000000e+00
6.793006e-01 3.976707e-01 0.000000e+00
6.807740e-01 5.964892e-01 0.000000e+00
6.819351e-01 7.953781e-01 0.000000e+00
6.827939e-01 9.943868e-01 0.000000e+00
6.833916e-01 1.193522e+00 0.000000e+00
6.835806e-01 1.392817e+00 0.000000e+00
6.832025e-01 1.592425e+00 0.000000e+00
6.819819e-01 1.792471e+00 0.000000e+00
6.782707e-01 1.993126e+00 0.000000e+00
9.000000e-01 0.000000e+00 0.000000e+00
9.025336e-01 1.991644e-01 0.000000e+00
9.043285e-01 3.983780e-01 0.000000e+00
9.056761e-01 5.976844e-01 0.000000e+00
9.066967e-01 7.970945e-01 0.000000e+00
9.074154e-01 9.966262e-01 0.000000e+00
9.078302e-01 1.196323e+00 0.000000e+00
9.078220e-01 1.396228e+00 0.000000e+00
9.072466e-01 1.596346e+00 0.000000e+00
9.057524e-01 1.796667e+00 0.000000e+00
9.033076e-01 1.996659e+00 0.000000e+00
1.125000e+00 0.000000e+00 0.000000e+00
1.127459e+00 1.994204e-01 0.000000e+00
1.129077e+00 3.989333e-01 0.000000e+00
1.130276e+00 5.985532e-01 0.000000e+00
1.131158e+00 7.982829e-01 0.000000e+00
1.131741e+00 9.981356e-01 0.000000e+00
1.131999e+00 1.198128e+00 0.000000e+00
1.131873e+00 1.398268e+00 0.000000e+00
1.131233e+00 1.598534e+00 0.000000e+00
1.130047e+00 1.798780e+00 0.000000e+00
1.128551e+00 1.998858e+00 0.000000e+00
1.350000e+00 0.000000e+00 0.000000e+00
1.352242e+00 1.996212e-01 0.000000e+00
1.353680e+00 3.993514e-01 0.000000e+00
1.354734e+00 5.991823e-01 0.000000e+00
1.355486e+00 7.991132e-01 0.000000e+00
1.355957e+00 9.991482e-01 0.000000e+00
1.356126e+00 1.199288e+00 0.000000e+00
1.355946e+00 1.399524e+00 0.000000e+00
1.355399e+00 1.599804e+00 0.000000e+00
1.354557e+00 1.800027e+00 0.000000e+00
1.353636e+00 2.000095e+00 0.000000e+00
1.575000e+00 0.000000e+00 0.000000e+00
1.576945e+00 1.997586e-01 0.000000e+00
1.578207e+00 3.996342e-01 0.000000e+00
1.579124e+00 5.996038e-01 0.000000e+00
1.579773e+00 7.996592e-01 0.000000e+00
1.580161e+00 9.997969e-01 0.000000e+00
1.580277e+00 1.200012e+00 0.000000e+00
1.580114e+00 1.400280e+00 0.000000e+00
1.579708e+00 1.600548e+00 0.000000e+00
1.579147e+00 1.800746e+00 0.000000e+00
1.578594e+00 2.000832e+00 0.000000e+00
1.800000e+00 0.000000e+00 0.000000e+00
1.801621e+00 1.998484e-01 0.000000e+00
1.802709e+00 3.998178e-01 0.000000e+00
1.803505e+00 5.998703e-01 0.000000e+00
1.804066e+00 7.999948e-01 0.000000e+00
1.804390e+00 1.000187e+00 0.000000e+00
1.804487e+00 1.200434e+00 0.000000e+00
1.804377e+00 1.400704e+00 0.000000e+00
1.804106e+00 1.600954e+00 0.000000e+00
1.803756e+00 1.801141e+00 0.000000e+00
1.803444e+00 2.001245e+00 0.000000e+00
2.025000e+00 0.000000e+00 0.000000e+00
2.026304e+00 1.999058e-01 0.000000e+00
2.027225e+00 3.999245e-01 0.000000e+00
2.027912e+00 6.000178e-01 0.000000e+00
2.028391e+00 8.001783e-01 0.000000e+00
2.028670e+00 1.000395e+00 0.000000e+00
2.028769e+00 1.200647e+00 0.000000e+00
2.028715e+00 1.400907e+00 0.000000e+00
2.028555e+00 1.601143e+00 0.000000e+00
2.028356e+00 1.801327e+00 0.000000e+00
2.028204e+00 2.001451e+00 0.000000e+00
2.250000e+00 0.000000e+00 0.000000e+00
2.251017e+00 1.999356e-01 0.000000e+00
2.251783e+00 3.999734e-01 0.000000e+00
2.252361e+00 6.000834e-01 0.000000e+00
2.252766e+00 8.002570e-01 0.000000e+00
2.253011e+00 1.000477e+00 0.000000e+00
2.253115e+00 1.200723e+00 0.000000e+00
2.253108e+00 1.400970e+00 0.000000e+00
2.253031e+00 1.601194e+00 0.000000e+00
2.252935e+00 1.801379e+00 0.000000e+00
2.252887e+00 2.001522e+00 0.000000e+00
2.475000e+00 0.000000e+00 0.000000e+00
2.475775e+00 1.999485e-01 0.000000e+00
2.476390e+00 3.999876e-01 0.000000e+00
2.476860e+00 6.001004e-01 0.000000e+00
2.477196e+00 8.002717e-01 0.000000e+00
2.477409e+00 1.000484e+00 0.000000e+00
2.477515e+00 1.200716e+00 0.000000e+00
2.477541e+00 1.400949e+00 0.000000e+00
2.477520e+00 1.601165e+00 0.000000e+00
2.477492e+00 1.801354e+00 0.000000e+00
2.477504e+00 2.001515e+00 0.000000e+00
2.700000e+00 0.000000e+00 0.000000e+00
2.700574e+00 1.999529e-01 0.000000e+00
2.701046e+00 3.999877e-01 0.000000e+00
2.701412e+00 6.000921e-01 0.000000e+00
2.701682e+00 8.002522e-01 0.000000e+00
2.701860e+00 1.000450e+00 0.000000e+00
2.701960e+00 1.200668e+00 0.000000e+00
2.702003e+00 1.400889e+00 0.000000e+00
2.702015e+00 1.601098e+00 0.000000e+00
2.702026e+00 1.801291e+00 0.000000e+00
2.702068e+00 2.001468e+00 0.000000e+00
2.925000e+00 0.000000e+00 0.000000e+00
2.925404e+00 1.999527e-01 0.000000e+00
2.925745e+00 3.999814e-01 0.000000e+00
2.926015e+00 6.000747e-01 0.000000e+00
2.926217e+00 8.002209e-01 0.000000e+00
2.926356e+00 1.000404e+00 0.000000e+00
2.926440e+00 1.200609e+00 0.000000e+00
2.926486e+00 1.400819e+00 0.000000e+00
2.926511e+00 1.601024e+00 0.000000e+00
2.926538e+00 1.801221e+00 0.000000e+00
2.926589e+00 2.001412e+00 0.000000e+00
3.150000e+00 0.000000e+00 0.000000e+00
3.150258e+00 1.999518e-01 0.000000e+00
3.150480e+00 3.999744e-01 0.000000e+00
3.150656e+00 6.000592e-01 0.000000e+00
3.150791e+00 8.001946e-01 0.000000e+00
3.150885e+00 1.000366e+00 0.000000e+00
3.150946e+00 1.200560e+00 0.000000e+00
3.150983e+00 1.400762e+00 0.000000e+00
3.151008e+00 1.600964e+00 0.000000e+00
3.151034e+00 1.801164e+00 0.000000e+00
3.151076e+00 2.001364e+00 0.000000e+00
3.375000e+00 0.000000e+00 0.000000e+00
3.375127e+00 1.999529e-01 0.000000e+00
3.375235e+00 3.999751e-01 0.000000e+00
3.375323e+00 6.000558e-01 0.000000e+00
3.375390e+00 8.001846e-01 0.000000e+00
3.375437e+00 1.000349e+00 0.000000e+00
3.375468e+00 1.200535e+00 0.000000e+00
3.375489e+00 1.400733e+00 0.000000e+00
3.375504e+00 1.600933e+00 0.000000e+00
3.375520e+00 1.801134e+00 0.000000e+00
3.375543e+00 2.001341e+00 0.000000e+00
3.600000e+00 0.000000e+00 0.000000e+00
3.600000e+00 1.999662e-01 0.000000e+00
3.600000e+00 3.999909e-01 0.000000e+00
3.600000e+00 6.000705e-01 0.000000e+00
3.600000e+00 8.001967e-01 0.000000e+00
3.600000e+00 1.000358e+00 0.000000e+00
3.600000e+00 1.200542e+00 0.000000e+00
3.600000e+00 1.400738e+00 0.000000e+00
3.600000e+00 1.600938e+00 0.000000e+00
3.600000e+00 1.801140e+00 0.000000e+00
3.600000e+00 2.001348e+00 0.000000e+00
</DataArray>
</Points>
<Cells>
<DataArray Name="connectivity" type="Int32" format="ascii">
0 11 12 1
1 12 13 2
2 13 14 3
3 14 15 4
4 15 16 5
5 16 17 6
6 17 18 7
7 18 19 8
8 19 20 9
9 20 21 10
11 22 23 12
12 23 24 13
13 24 25 14
14 25 26 15
15 26 27 16
16 27 28 17
17 28 29 18
18 29 30 19
19 30 31 20
20 31 32 21
22 33 34 23
23 34 35 24
24 35 36 25
25 36 37 26
26 37 38 27
27 38 39 28
28 39 40 29
29 40 41 30
30 41 42 31
31 42 43 32
33 44 45 34
34 45 46 35
35 46 47 36
36 47 48 37
37 48 49 38
38 49 50 39
39 50 51 40
40 51 52 41
41 52 53 42
42 53 54 43
44 55 56 45
45 56 57 46
46 57 58 47
47 58 59 48
48 59 60 49
49 60 61 50
50 61 62 51
51 62 63 52
52 63 64 53
53 64 65 54
55 66 67 56
56 67 68 57
57 68 69 58
58 69 70 59
59 70 71 60
60 71 72 61
61 72 73 62
62 73 74 63
63 74 75 64
64 75 76 65
66 77 78 67
67 78 79 68
68 79 80 69
69 80 81 70
70 81 82 71
71 82 83 72
72 83 84 73
73 84 85 74
74 85 86 75
75 86 87 76
77 88 89 78
78 89 90 79
79 90 91 80
80 91 92 81
81 92 93 82
82 93 94 83
83 94 95 84
84 95 96 85
85 96 97 86
86 97 98 87
88 99 100 89
89 100 101 90
90 101 102 91
91 102 103 92
92 103 104 93
93 104 105 94
94 105 106 95
95 106 107 96
96 107 108 97
97 108 109 98
99 110 111 100
100 111 112 101
101 112 113 102
102 113 114 103
103 114 115 104
104 115 116 105
105 116 117 106
106 117 118 107
107 118 119 108
108 119 120 109
110 121 122 111
111 122 123 112
112 123 124 113
113 124 125 114
114 125 126 115
115 126 127 116
116 127 128 117
117 128 129 118
118 129 130 119
119 130 131 120
121 132 133 122
122 133 134 123
123 134 135 124
124 135 136 125
125 136 137 126
126 137 138 127
127 138 139 128
128 139 140 129
129 140 141 130
130 141 142 131
132 143 144 133
133 144 145 134
134 145 146 135
135 146 147 136
136 147 148 137
137 148 149 138
138 149 150 139
139 150 151 140
140 151 152 141
141 152 153 142
143 154 155 144
144 155 156 145
145 156 157 146
146 157 158 147
147 158 159 148
148 159 160 149
149 160 161 150
150 161 162 151
151 162 163 152
152 163 164 153
154 165 166 155
155 166 167 156
156 167 168 157
157 168 169 158
158 169 170 159
159 170 171 160
160 171 172 161
161 172 173 162
162 173 174 163
163 174 175 164
165 176 177 166
166 177 178 167
167 178 179 168
168 179 180 169
169 180 181 170
170 181 182 171
171 182 183 172
172 183 184 173
173 184 185 174
174 185 186 175
</DataArray>
<DataArray Name="offsets" type="Int32" format="ascii">
4
8
12
16
20
24
28
32
36
40
44
48
52
56
60
64
68
72
76
80
84
88
92
96
100
104
108
112
116
120
124
128
132
136
140
144
148
152
156
160
164
168
172
176
180
184
188
192
196
200
204
208
212
216
220
224
228
232
236
240
244
248
252
256
260
264
268
272
276
280
284
288
292
296
300
304
308
312
316
320
324
328
332
336
340
344
348
352
356
360
364
368
372
376
380
384
388
392
396
400
404
408
412
416
420
424
428
432
436
440
444
448
452
456
460
464
468
472
476
480
484
488
492
496
500
504
508
512
516
520
524
528
532
536
540
544
548
552
556
560
564
568
572
576
580
584
588
592
596
600
604
608
612
616
620
624
628
632
636
640
</DataArray>
<DataArray Name="types" type="UInt8" format="ascii">
9
9
9
9
9
9
9
9
9
9
9
9
9
9
9
9
9
9
9
9
9
9
9
9
9
9
9
9
9
9
9
9
9
9
9
9
9
9
9
9
9
9
9
9
9
9
9
9
9
9
9
9
9
9
9
9
9
9
9
9
9
9
9
9
9
9
9
9
9
9
9
9
9
9
9
9
9
9
9
9
9
9
9
9
9
9
9
9
9
9
9
9
9
9
9
9
9
9
9
9
9
9
9
9
9
9
9
9
9
9
9
9
9
9
9
9
9
9
9
9
9
9
9
9
9
9
9
9
9
9
9
9
9
9
9
9
9
9
9
9
9
9
9
9
9
9
9
9
9
9
9
9
9
9
9
9
9
9
9
9
</DataArray>
</Cells>
<PointData>
<DataArray Name="disp" type="Float64" NumberOfComponents="3" format="ascii">
0.000000e+00 0.000000e+00 0.000000e+00
0.000000e+00 -2.326465e-03 0.000000e+00
0.000000e+00 -5.444574e-03 0.000000e+00
0.000000e+00 -9.176367e-03 0.000000e+00
0.000000e+00 -1.342067e-02 0.000000e+00
0.000000e+00 -1.800334e-02 0.000000e+00
0.000000e+00 -2.272560e-02 0.000000e+00
0.000000e+00 -2.737821e-02 0.000000e+00
0.000000e+00 -3.164312e-02 0.000000e+00
0.000000e+00 -3.512777e-02 0.000000e+00
0.000000e+00 -3.825000e-02 0.000000e+00
0.000000e+00 0.000000e+00 0.000000e+00
1.088070e-03 -2.132217e-03 0.000000e+00
1.976159e-03 -4.989242e-03 0.000000e+00
2.658582e-03 -8.424247e-03 0.000000e+00
3.132728e-03 -1.234135e-02 0.000000e+00
3.316093e-03 -1.663530e-02 0.000000e+00
3.212194e-03 -2.121373e-02 0.000000e+00
2.778753e-03 -2.595275e-02 0.000000e+00
1.861848e-03 -3.064337e-02 0.000000e+00
5.519825e-04 -3.499531e-02 0.000000e+00
0.000000e+00 -3.825000e-02 0.000000e+00
0.000000e+00 0.000000e+00 0.000000e+00
1.970978e-03 -1.641435e-03 0.000000e+00
3.563722e-03 -3.731223e-03 0.000000e+00
4.811045e-03 -6.246680e-03 0.000000e+00
5.715848e-03 -9.169641e-03 0.000000e+00
6.227989e-03 -1.252158e-02 0.000000e+00
6.432565e-03 -1.636382e-02 0.000000e+00
6.186215e-03 -2.076463e-02 0.000000e+00
5.286881e-03 -2.584978e-02 0.000000e+00
3.522718e-03 -3.177117e-02 0.000000e+00
0.000000e+00 -3.825000e-02 0.000000e+00
0.000000e+00 0.000000e+00 0.000000e+00
2.426455e-03 -1.130644e-03 0.000000e+00
4.300625e-03 -2.329279e-03 0.000000e+00
5.774061e-03 -3.510809e-03 0.000000e+00
6.935075e-03 -4.621889e-03 0.000000e+00
7.793840e-03 -5.613192e-03 0.000000e+00
8.391613e-03 -6.477640e-03 0.000000e+00
8.580639e-03 -7.182722e-03 0.000000e+00
8.202522e-03 -7.575169e-03 0.000000e+00
6.981936e-03 -7.528704e-03 0.000000e+00
3.270700e-03 -6.873772e-03 0.000000e+00
0.000000e+00 0.000000e+00 0.000000e+00
2.533618e-03 -8.356260e-04 0.000000e+00
4.328455e-03 -1.621972e-03 0.000000e+00
5.676088e-03 -2.315645e-03 0.000000e+00
6.696740e-03 -2.905478e-03 0.000000e+00
7.415449e-03 -3.373819e-03 0.000000e+00
7.830193e-03 -3.677126e-03 0.000000e+00
7.821967e-03 -3.771849e-03 0.000000e+00
7.246565e-03 -3.653972e-03 0.000000e+00
5.752440e-03 -3.333076e-03 0.000000e+00
3.307604e-03 -3.341264e-03 0.000000e+00
0.000000e+00 0.000000e+00 0.000000e+00
2.458775e-03 -5.796131e-04 0.000000e+00
4.077311e-03 -1.066685e-03 0.000000e+00
5.275832e-03 -1.446814e-03 0.000000e+00
6.158150e-03 -1.717107e-03 0.000000e+00
6.740642e-03 -1.864398e-03 0.000000e+00
6.998701e-03 -1.871639e-03 0.000000e+00
6.872542e-03 -1.731555e-03 0.000000e+00
6.233160e-03 -1.466468e-03 0.000000e+00
5.047407e-03 -1.220116e-03 0.000000e+00
3.550906e-03 -1.142107e-03 0.000000e+00
0.000000e+00 0.000000e+00 0.000000e+00
2.241925e-03 -3.787651e-04 0.000000e+00
3.679849e-03 -6.486541e-04 0.000000e+00
4.734227e-03 -8.177200e-04 0.000000e+00
5.485739e-03 -8.868650e-04 0.000000e+00
5.956935e-03 -8.517734e-04 0.000000e+00
6.125673e-03 -7.116664e-04 0.000000e+00
5.946155e-03 -4.757590e-04 0.000000e+00
5.399276e-03 -1.962860e-04 0.000000e+00
4.556980e-03 2.664146e-05 0.000000e+00
3.635914e-03 9.519044e-05 0.000000e+00
0.000000e+00 0.000000e+00 0.000000e+00
1.944962e-03 -2.413834e-04 0.000000e+00
3.207270e-03 -3.657915e-04 0.000000e+00
4.124250e-03 -3.961906e-04 0.000000e+00
4.772859e-03 -3.408083e-04 0.000000e+00
5.160758e-03 -2.030495e-04 0.000000e+00
5.276575e-03 1.211010e-05 0.000000e+00
5.114162e-03 2.799012e-04 0.000000e+00
4.707985e-03 5.480802e-04 0.000000e+00
4.147362e-03 7.456832e-04 0.000000e+00
3.594471e-03 8.324165e-04 0.000000e+00
0.000000e+00 0.000000e+00 0.000000e+00
1.620742e-03 -1.516308e-04 0.000000e+00
2.708514e-03 -1.821973e-04 0.000000e+00
3.505458e-03 -1.297307e-04 0.000000e+00
4.065622e-03 -5.246970e-06 0.000000e+00
4.389583e-03 1.870636e-04 0.000000e+00
4.487348e-03 4.339760e-04 0.000000e+00
4.376788e-03 7.037963e-04 0.000000e+00
4.106442e-03 9.542050e-04 0.000000e+00
3.755520e-03 1.141135e-03 0.000000e+00
3.444036e-03 1.245197e-03 0.000000e+00
0.000000e+00 0.000000e+00 0.000000e+00
1.303518e-03 -9.417309e-05 0.000000e+00
2.224982e-03 -7.544807e-05 0.000000e+00
2.911903e-03 1.780006e-05 0.000000e+00
3.391384e-03 1.783218e-04 0.000000e+00
3.670195e-03 3.946325e-04 0.000000e+00
3.768916e-03 6.467467e-04 0.000000e+00
3.714778e-03 9.069415e-04 0.000000e+00
3.554789e-03 1.142614e-03 0.000000e+00
3.355525e-03 1.326696e-03 0.000000e+00
3.203696e-03 1.450455e-03 0.000000e+00
0.000000e+00 0.000000e+00 0.000000e+00
1.016959e-03 -6.443993e-05 0.000000e+00
1.782772e-03 -2.663910e-05 0.000000e+00
2.360907e-03 8.336655e-05 0.000000e+00
2.765570e-03 2.570169e-04 0.000000e+00
3.010696e-03 4.772336e-04 0.000000e+00
3.115254e-03 7.228600e-04 0.000000e+00
3.107594e-03 9.698064e-04 0.000000e+00
3.030711e-03 1.193839e-03 0.000000e+00
2.935437e-03 1.378968e-03 0.000000e+00
2.886514e-03 1.522412e-03 0.000000e+00
0.000000e+00 0.000000e+00 0.000000e+00
7.749412e-04 -5.145279e-05 0.000000e+00
1.389663e-03 -1.234874e-05 0.000000e+00
1.860266e-03 1.004209e-04 0.000000e+00
2.195585e-03 2.717674e-04 0.000000e+00
2.408894e-03 4.837213e-04 0.000000e+00
2.515288e-03 7.165497e-04 0.000000e+00
2.540976e-03 9.493979e-04 0.000000e+00
2.519964e-03 1.165260e-03 0.000000e+00
2.492140e-03 1.353638e-03 0.000000e+00
2.503868e-03 1.515237e-03 0.000000e+00
0.000000e+00 0.000000e+00 0.000000e+00
5.739533e-04 -4.712457e-05 0.000000e+00
1.045484e-03 -1.231674e-05 0.000000e+00
1.412527e-03 9.212481e-05 0.000000e+00
1.681781e-03 2.521823e-04 0.000000e+00
1.860309e-03 4.501129e-04 0.000000e+00
1.960394e-03 6.679685e-04 0.000000e+00
2.003011e-03 8.886271e-04 0.000000e+00
2.014878e-03 1.098402e-03 0.000000e+00
2.025579e-03 1.290998e-03 0.000000e+00
2.068207e-03 1.468399e-03 0.000000e+00
0.000000e+00 0.000000e+00 0.000000e+00
4.040846e-04 -4.729450e-05 0.000000e+00
7.450495e-04 -1.858746e-05 0.000000e+00
1.015116e-03 7.469393e-05 0.000000e+00
1.217069e-03 2.209119e-04 0.000000e+00
1.355867e-03 4.044487e-04 0.000000e+00
1.440464e-03 6.087754e-04 0.000000e+00
1.485812e-03 8.187518e-04 0.000000e+00
1.511311e-03 1.024167e-03 0.000000e+00
1.538023e-03 1.220858e-03 0.000000e+00
1.588630e-03 1.411692e-03 0.000000e+00
0.000000e+00 0.000000e+00 0.000000e+00
2.577263e-04 -4.824997e-05 0.000000e+00
4.796243e-04 -2.562860e-05 0.000000e+00
6.564436e-04 5.916130e-05 0.000000e+00
7.909150e-04 1.945626e-04 0.000000e+00
8.851213e-04 3.664985e-04 0.000000e+00
9.458856e-04 5.600146e-04 0.000000e+00
9.829983e-04 7.621192e-04 0.000000e+00
1.007871e-03 9.643297e-04 0.000000e+00
1.034400e-03 1.163844e-03 0.000000e+00
1.076427e-03 1.364509e-03 0.000000e+00
0.000000e+00 0.000000e+00 0.000000e+00
1.271663e-04 -4.712408e-05 0.000000e+00
2.352034e-04 -2.492533e-05 0.000000e+00
3.225018e-04 5.579241e-05 0.000000e+00
3.894851e-04 1.846339e-04 0.000000e+00
4.370256e-04 3.491934e-04 0.000000e+00
4.684385e-04 5.353970e-04 0.000000e+00
4.892392e-04 7.324638e-04 0.000000e+00
5.041806e-04 9.328077e-04 0.000000e+00
5.198507e-04 1.134207e-03 0.000000e+00
5.430766e-04 1.340656e-03 0.000000e+00
0.000000e+00 0.000000e+00 0.000000e+00
0.000000e+00 -3.376720e-05 0.000000e+00
0.000000e+00 -9.146474e-06 0.000000e+00
0.000000e+00 7.051849e-05 0.000000e+00
0.000000e+00 1.967175e-04 0.000000e+00
0.000000e+00 3.584525e-04 0.000000e+00
0.000000e+00 5.424712e-04 0.000000e+00
0.000000e+00 7.378915e-04 0.000000e+00
0.000000e+00 9.378699e-04 0.000000e+00
0.000000e+00 1.139905e-03 0.000000e+00
0.000000e+00 1.347986e-03 0.000000e+00
</DataArray>
<DataArray Name="shear" type="Float64" NumberOfComponents="1" format="ascii">
1.315317e-02
1.817721e-02
2.561343e-02
3.150246e-02
3.579963e-02
3.806915e-02
3.809163e-02
3.525145e-02
2.870122e-02
2.051314e-02
1.678831e-02
1.326494e-02
1.766394e-02
2.438596e-02
3.002053e-02
3.449966e-02
3.766970e-02
3.937946e-02
3.885215e-02
3.532083e-02
2.802487e-02
2.175065e-02
1.380961e-02
1.643351e-02
2.092465e-02
2.584358e-02
3.125383e-02
3.750038e-02
4.446850e-02
5.145888e-02
5.814365e-02
6.168054e-02
6.202462e-02
1.396800e-02
1.442331e-02
1.534886e-02
1.747569e-02
2.078408e-02
2.546266e-02
3.138535e-02
3.825951e-02
4.603757e-02
5.207139e-02
5.638795e-02
1.363821e-02
1.269857e-02
1.117743e-02
1.077699e-02
1.088297e-02
1.120180e-02
1.145026e-02
1.124571e-02
9.915325e-03
5.959553e-03
1.727174e-03
1.283526e-02
1.138129e-02
9.265870e-03
8.559632e-03
8.312264e-03
8.203668e-03
7.998187e-03
7.388135e-03
5.985050e-03
3.195817e-03
7.390468e-04
1.151918e-02
9.964687e-03
7.838633e-03
7.121528e-03
6.791905e-03
6.565046e-03
6.266781e-03
5.717744e-03
4.595246e-03
2.624434e-03
1.046412e-03
9.913595e-03
8.535185e-03
6.713476e-03
6.097423e-03
5.797796e-03
5.595786e-03
5.355388e-03
4.885976e-03
3.964741e-03
2.481391e-03
1.354786e-03
8.231786e-03
7.159609e-03
5.784115e-03
5.308364e-03
5.091765e-03
4.967389e-03
4.785192e-03
4.379497e-03
3.629436e-03
2.510588e-03
1.711213e-03
6.612313e-03
5.862292e-03
4.930465e-03
4.621807e-03
4.528352e-03
4.484088e-03
4.355461e-03
4.029465e-03
3.443847e-03
2.619707e-03
2.064655e-03
5.156462e-03
4.678264e-03
4.128351e-03
4.005236e-03
4.042938e-03
4.077858e-03
4.009323e-03
3.769931e-03
3.338681e-03
2.763422e-03
2.398927e-03
3.923764e-03
3.638856e-03
3.390528e-03
3.448527e-03
3.603485e-03
3.717601e-03
3.717989e-03
3.570682e-03
3.283341e-03
2.913992e-03
2.695979e-03
2.899889e-03
2.742996e-03
2.726341e-03
2.945243e-03
3.209239e-03
3.401763e-03
3.474559e-03
3.418292e-03
3.258018e-03
3.056668e-03
2.949915e-03
2.039702e-03
1.975016e-03
2.153042e-03
2.518349e-03
2.881240e-03
3.145785e-03
3.282880e-03
3.303770e-03
3.248598e-03
3.178864e-03
3.156596e-03
1.302653e-03
1.320823e-03
1.701535e-03
2.203223e-03
2.641925e-03
2.957841e-03
3.143878e-03
3.224083e-03
3.245628e-03
3.269138e-03
3.305367e-03
6.504143e-04
7.984122e-04
1.411035e-03
2.013105e-03
2.497904e-03
2.842594e-03
3.057935e-03
3.177469e-03
3.246767e-03
3.324113e-03
3.392631e-03
2.317775e-04
5.714396e-04
1.310459e-03
1.946465e-03
2.446757e-03
2.802453e-03
3.028464e-03
3.162513e-03
3.248461e-03
3.342047e-03
3.419864e-03
</DataArray>
<DataArray Name="stress" type="Float64" NumberOfComponents="9" format="ascii">
-1.034558e+05 4.743964e+03 0.000000e+00 4.743964e+03 -1.692079e+05 0.000000e+00 0.000000e+00 0.000000e+00 0.000000e+00
-9.310505e+04 4.459731e+03 0.000000e+00 4.459731e+03 -1.676977e+05 0.000000e+00 0.000000e+00 0.000000e+00 0.000000e+00
-8.841711e+04 4.376754e+03 0.000000e+00 4.376754e+03 -1.776717e+05 0.000000e+00 0.000000e+00 0.000000e+00 0.000000e+00
-8.822217e+04 4.451020e+03 0.000000e+00 4.451020e+03 -1.864314e+05 0.000000e+00 0.000000e+00 0.000000e+00 0.000000e+00
-9.083675e+04 4.728814e+03 0.000000e+00 4.728814e+03 -1.947150e+05 0.000000e+00 0.000000e+00 0.000000e+00 0.000000e+00
-9.465384e+04 5.214041e+03 0.000000e+00 5.214041e+03 -2.034963e+05 0.000000e+00 0.000000e+00 0.000000e+00 0.000000e+00
-9.920202e+04 5.521252e+03 0.000000e+00 5.521252e+03 -2.123755e+05 0.000000e+00 0.000000e+00 0.000000e+00 0.000000e+00
-1.042645e+05 5.003585e+03 0.000000e+00 5.003585e+03 -2.200690e+05 0.000000e+00 0.000000e+00 0.000000e+00 0.000000e+00
-1.117988e+05 2.346404e+03 0.000000e+00 2.346404e+03 -2.248544e+05 0.000000e+00 0.000000e+00 0.000000e+00 0.000000e+00
-1.254670e+05 -1.308605e+03 0.000000e+00 -1.308605e+03 -2.257134e+05 0.000000e+00 0.000000e+00 0.000000e+00 0.000000e+00
-1.336702e+05 -1.728087e+03 0.000000e+00 -1.728087e+03 -2.238506e+05 0.000000e+00 0.000000e+00 0.000000e+00 0.000000e+00
-1.015065e+05 1.281583e+04 0.000000e+00 1.281583e+04 -1.593009e+05 0.000000e+00 0.000000e+00 0.000000e+00 0.000000e+00
-9.213247e+04 1.157687e+04 0.000000e+00 1.157687e+04 -1.578713e+05 0.000000e+00 0.000000e+00 0.000000e+00 0.000000e+00
-8.813038e+04 1.043581e+04 0.000000e+00 1.043581e+04 -1.665641e+05 0.000000e+00 0.000000e+00 0.000000e+00 0.000000e+00
-8.847441e+04 1.025232e+04 0.000000e+00 1.025232e+04 -1.750763e+05 0.000000e+00 0.000000e+00 0.000000e+00 0.000000e+00
-9.121204e+04 1.067337e+04 0.000000e+00 1.067337e+04 -1.839683e+05 0.000000e+00 0.000000e+00 0.000000e+00 0.000000e+00
-9.532780e+04 1.132140e+04 0.000000e+00 1.132140e+04 -1.939209e+05 0.000000e+00 0.000000e+00 0.000000e+00 0.000000e+00
-9.974308e+04 1.144363e+04 0.000000e+00 1.144363e+04 -2.042819e+05 0.000000e+00 0.000000e+00 0.000000e+00 0.000000e+00
-1.041516e+05 9.987844e+03 0.000000e+00 9.987844e+03 -2.146572e+05 0.000000e+00 0.000000e+00 0.000000e+00 0.000000e+00
-1.101266e+05 5.723620e+03 0.000000e+00 5.723620e+03 -2.248202e+05 0.000000e+00 0.000000e+00 0.000000e+00 0.000000e+00
-1.201183e+05 -1.079622e+02 0.000000e+00 -1.079622e+02 -2.308563e+05 0.000000e+00 0.000000e+00 0.000000e+00 0.000000e+00
-1.377182e+05 -5.690647e+03 0.000000e+00 -5.690647e+03 -2.451582e+05 0.000000e+00 0.000000e+00 0.000000e+00 0.000000e+00
-9.637442e+04 2.066959e+04 0.000000e+00 2.066959e+04 -1.378260e+05 0.000000e+00 0.000000e+00 0.000000e+00 0.000000e+00
-8.960828e+04 1.929971e+04 0.000000e+00 1.929971e+04 -1.362260e+05 0.000000e+00 0.000000e+00 0.000000e+00 0.000000e+00
-8.756240e+04 1.867080e+04 0.000000e+00 1.867080e+04 -1.412681e+05 0.000000e+00 0.000000e+00 0.000000e+00 0.000000e+00
-8.986080e+04 1.966343e+04 0.000000e+00 1.966343e+04 -1.475218e+05 0.000000e+00 0.000000e+00 0.000000e+00 0.000000e+00
-9.418320e+04 2.171513e+04 0.000000e+00 2.171513e+04 -1.553374e+05 0.000000e+00 0.000000e+00 0.000000e+00 0.000000e+00
-1.000372e+05 2.406002e+04 0.000000e+00 2.406002e+04 -1.644649e+05 0.000000e+00 0.000000e+00 0.000000e+00 0.000000e+00
-1.057397e+05 2.512704e+04 0.000000e+00 2.512704e+04 -1.730534e+05 0.000000e+00 0.000000e+00 0.000000e+00 0.000000e+00
-1.123026e+05 2.654548e+04 0.000000e+00 2.654548e+04 -1.841132e+05 0.000000e+00 0.000000e+00 0.000000e+00 0.000000e+00
-1.211076e+05 2.606665e+04 0.000000e+00 2.606665e+04 -1.992301e+05 0.000000e+00 0.000000e+00 0.000000e+00 0.000000e+00
-1.354822e+05 2.108573e+04 0.000000e+00 2.108573e+04 -2.179144e+05 0.000000e+00 0.000000e+00 0.000000e+00 0.000000e+00
-1.559868e+05 1.031921e+04 0.000000e+00 1.031921e+04 -2.450252e+05 0.000000e+00 0.000000e+00 0.000000e+00 0.000000e+00
-9.068408e+04 2.260935e+04 0.000000e+00 2.260935e+04 -1.175930e+05 0.000000e+00 0.000000e+00 0.000000e+00 0.000000e+00
-8.683298e+04 2.164887e+04 0.000000e+00 2.164887e+04 -1.159924e+05 0.000000e+00 0.000000e+00 0.000000e+00 0.000000e+00
-8.585650e+04 2.133037e+04 0.000000e+00 2.133037e+04 -1.162185e+05 0.000000e+00 0.000000e+00 0.000000e+00 0.000000e+00
-8.775628e+04 2.227442e+04 0.000000e+00 2.227442e+04 -1.154991e+05 0.000000e+00 0.000000e+00 0.000000e+00 0.000000e+00
-9.017791e+04 2.363998e+04 0.000000e+00 2.363998e+04 -1.138896e+05 0.000000e+00 0.000000e+00 0.000000e+00 0.000000e+00
-9.256995e+04 2.469464e+04 0.000000e+00 2.469464e+04 -1.109935e+05 0.000000e+00 0.000000e+00 0.000000e+00 0.000000e+00
-9.458500e+04 2.485898e+04 0.000000e+00 2.485898e+04 -1.067779e+05 0.000000e+00 0.000000e+00 0.000000e+00 0.000000e+00
-9.583782e+04 2.546815e+04 0.000000e+00 2.546815e+04 -1.017751e+05 0.000000e+00 0.000000e+00 0.000000e+00 0.000000e+00
-9.467350e+04 2.399487e+04 0.000000e+00 2.399487e+04 -9.313114e+04 0.000000e+00 0.000000e+00 0.000000e+00 0.000000e+00
-8.705459e+04 1.751234e+04 0.000000e+00 1.751234e+04 -7.818539e+04 0.000000e+00 0.000000e+00 0.000000e+00 0.000000e+00
-7.480832e+04 1.267382e+04 0.000000e+00 1.267382e+04 -7.060877e+04 0.000000e+00 0.000000e+00 0.000000e+00 0.000000e+00
-8.634702e+04 2.220449e+04 0.000000e+00 2.220449e+04 -1.039218e+05 0.000000e+00 0.000000e+00 0.000000e+00 0.000000e+00
-8.565900e+04 2.144446e+04 0.000000e+00 2.144446e+04 -1.032035e+05 0.000000e+00 0.000000e+00 0.000000e+00 0.000000e+00
-8.727507e+04 2.077161e+04 0.000000e+00 2.077161e+04 -1.025440e+05 0.000000e+00 0.000000e+00 0.000000e+00 0.000000e+00
-9.065062e+04 2.105397e+04 0.000000e+00 2.105397e+04 -1.010208e+05 0.000000e+00 0.000000e+00 0.000000e+00 0.000000e+00
-9.412566e+04 2.147638e+04 0.000000e+00 2.147638e+04 -9.854545e+04 0.000000e+00 0.000000e+00 0.000000e+00 0.000000e+00
-9.703355e+04 2.162107e+04 0.000000e+00 2.162107e+04 -9.493519e+04 0.000000e+00 0.000000e+00 0.000000e+00 0.000000e+00
-9.975215e+04 2.107976e+04 0.000000e+00 2.107976e+04 -9.009896e+04 0.000000e+00 0.000000e+00 0.000000e+00 0.000000e+00
-1.011015e+05 1.920002e+04 0.000000e+00 1.920002e+04 -8.354048e+04 0.000000e+00 0.000000e+00 0.000000e+00 0.000000e+00
-9.967223e+04 1.513034e+04 0.000000e+00 1.513034e+04 -7.526462e+04 0.000000e+00 0.000000e+00 0.000000e+00 0.000000e+00
-9.045455e+04 7.193055e+03 0.000000e+00 7.193055e+03 -6.791263e+04 0.000000e+00 0.000000e+00 0.000000e+00 0.000000e+00
-6.701862e+04 1.166391e+03 0.000000e+00 1.166391e+03 -5.803211e+04 0.000000e+00 0.000000e+00 0.000000e+00 0.000000e+00
-8.185809e+04 2.083673e+04 0.000000e+00 2.083673e+04 -9.285688e+04 0.000000e+00 0.000000e+00 0.000000e+00 0.000000e+00
-8.377162e+04 2.026102e+04 0.000000e+00 2.026102e+04 -9.271076e+04 0.000000e+00 0.000000e+00 0.000000e+00 0.000000e+00
-8.706114e+04 1.912314e+04 0.000000e+00 1.912314e+04 -9.110752e+04 0.000000e+00 0.000000e+00 0.000000e+00 0.000000e+00
-9.087583e+04 1.854313e+04 0.000000e+00 1.854313e+04 -8.876128e+04 0.000000e+00 0.000000e+00 0.000000e+00 0.000000e+00
-9.412259e+04 1.793349e+04 0.000000e+00 1.793349e+04 -8.576314e+04 0.000000e+00 0.000000e+00 0.000000e+00 0.000000e+00
-9.653439e+04 1.688758e+04 0.000000e+00 1.688758e+04 -8.187815e+04 0.000000e+00 0.000000e+00 0.000000e+00 0.000000e+00
-9.809003e+04 1.498050e+04 0.000000e+00 1.498050e+04 -7.715184e+04 0.000000e+00 0.000000e+00 0.000000e+00 0.000000e+00
-9.783647e+04 1.175311e+04 0.000000e+00 1.175311e+04 -7.172680e+04 0.000000e+00 0.000000e+00 0.000000e+00 0.000000e+00
-9.391878e+04 6.841749e+03 0.000000e+00 6.841749e+03 -6.643450e+04 0.000000e+00 0.000000e+00 0.000000e+00 0.000000e+00
-8.097643e+04 1.255645e+03 0.000000e+00 1.255645e+03 -6.233006e+04 0.000000e+00 0.000000e+00 0.000000e+00 0.000000e+00
-6.284596e+04 -1.051395e+03 0.000000e+00 -1.051395e+03 -5.805990e+04 0.000000e+00 0.000000e+00 0.000000e+00 0.000000e+00
-7.757123e+04 1.909491e+04 0.000000e+00 1.909491e+04 -8.383206e+04 0.000000e+00 0.000000e+00 0.000000e+00 0.000000e+00
-8.170372e+04 1.851730e+04 0.000000e+00 1.851730e+04 -8.417059e+04 0.000000e+00 0.000000e+00 0.000000e+00 0.000000e+00
-8.610060e+04 1.688761e+04 0.000000e+00 1.688761e+04 -8.213586e+04 0.000000e+00 0.000000e+00 0.000000e+00 0.000000e+00
-9.001548e+04 1.567980e+04 0.000000e+00 1.567980e+04 -7.976865e+04 0.000000e+00 0.000000e+00 0.000000e+00 0.000000e+00
-9.290891e+04 1.427599e+04 0.000000e+00 1.427599e+04 -7.687155e+04 0.000000e+00 0.000000e+00 0.000000e+00 0.000000e+00
-9.472294e+04 1.238530e+04 0.000000e+00 1.238530e+04 -7.341375e+04 0.000000e+00 0.000000e+00 0.000000e+00 0.000000e+00
-9.518236e+04 9.817107e+03 0.000000e+00 9.817107e+03 -6.961218e+04 0.000000e+00 0.000000e+00 0.000000e+00 0.000000e+00
-9.355700e+04 6.361457e+03 0.000000e+00 6.361457e+03 -6.584309e+04 0.000000e+00 0.000000e+00 0.000000e+00 0.000000e+00
-8.823988e+04 2.243415e+03 0.000000e+00 2.243415e+03 -6.261127e+04 0.000000e+00 0.000000e+00 0.000000e+00 0.000000e+00
-7.716831e+04 -7.875369e+02 0.000000e+00 -7.875369e+02 -6.054277e+04 0.000000e+00 0.000000e+00 0.000000e+00 0.000000e+00
-6.519338e+04 -1.627957e+03 0.000000e+00 -1.627957e+03 -5.845098e+04 0.000000e+00 0.000000e+00 0.000000e+00 0.000000e+00
-7.375399e+04 1.727257e+04 0.000000e+00 1.727257e+04 -7.700563e+04 0.000000e+00 0.000000e+00 0.000000e+00 0.000000e+00
-7.936281e+04 1.662714e+04 0.000000e+00 1.662714e+04 -7.755418e+04 0.000000e+00 0.000000e+00 0.000000e+00 0.000000e+00
-8.455588e+04 1.463761e+04 0.000000e+00 1.463761e+04 -7.546609e+04 0.000000e+00 0.000000e+00 0.000000e+00 0.000000e+00
-8.839402e+04 1.291258e+04 0.000000e+00 1.291258e+04 -7.326457e+04 0.000000e+00 0.000000e+00 0.000000e+00 0.000000e+00
-9.092535e+04 1.099828e+04 0.000000e+00 1.099828e+04 -7.071820e+04 0.000000e+00 0.000000e+00 0.000000e+00 0.000000e+00
-9.218346e+04 8.747244e+03 0.000000e+00 8.747244e+03 -6.801841e+04 0.000000e+00 0.000000e+00 0.000000e+00 0.000000e+00
-9.191101e+04 6.044313e+03 0.000000e+00 6.044313e+03 -6.530053e+04 0.000000e+00 0.000000e+00 0.000000e+00 0.000000e+00
-8.953869e+04 2.924227e+03 0.000000e+00 2.924227e+03 -6.279023e+04 0.000000e+00 0.000000e+00 0.000000e+00 0.000000e+00
-8.444013e+04 -4.573980e+01 0.000000e+00 -4.573980e+01 -6.093991e+04 0.000000e+00 0.000000e+00 0.000000e+00 0.000000e+00
-7.604966e+04 -1.461972e+03 0.000000e+00 -1.461972e+03 -6.003224e+04 0.000000e+00 0.000000e+00 0.000000e+00 0.000000e+00
-6.813794e+04 -1.485255e+03 0.000000e+00 -1.485255e+03 -5.893055e+04 0.000000e+00 0.000000e+00 0.000000e+00 0.000000e+00
-7.054211e+04 1.531030e+04 0.000000e+00 1.531030e+04 -7.201821e+04 0.000000e+00 0.000000e+00 0.000000e+00 0.000000e+00
-7.689109e+04 1.464398e+04 0.000000e+00 1.464398e+04 -7.253573e+04 0.000000e+00 0.000000e+00 0.000000e+00 0.000000e+00
-8.257648e+04 1.250690e+04 0.000000e+00 1.250690e+04 -7.056595e+04 0.000000e+00 0.000000e+00 0.000000e+00 0.000000e+00
-8.632620e+04 1.050575e+04 0.000000e+00 1.050575e+04 -6.864417e+04 0.000000e+00 0.000000e+00 0.000000e+00 0.000000e+00
-8.858788e+04 8.395225e+03 0.000000e+00 8.395225e+03 -6.665827e+04 0.000000e+00 0.000000e+00 0.000000e+00 0.000000e+00
-8.945796e+04 6.057078e+03 0.000000e+00 6.057078e+03 -6.464631e+04 0.000000e+00 0.000000e+00 0.000000e+00 0.000000e+00
-8.878672e+04 3.469186e+03 0.000000e+00 3.469186e+03 -6.272527e+04 0.000000e+00 0.000000e+00 0.000000e+00 0.000000e+00
-8.635665e+04 8.874438e+02 0.000000e+00 8.874438e+02 -6.114331e+04 0.000000e+00 0.000000e+00 0.000000e+00 0.000000e+00
-8.217550e+04 -1.082516e+03 0.000000e+00 -1.082516e+03 -6.019989e+04 0.000000e+00 0.000000e+00 0.000000e+00 0.000000e+00
-7.620090e+04 -1.575854e+03 0.000000e+00 -1.575854e+03 -5.987229e+04 0.000000e+00 0.000000e+00 0.000000e+00 0.000000e+00
-7.100501e+04 -1.281420e+03 0.000000e+00 -1.281420e+03 -5.923361e+04 0.000000e+00 0.000000e+00 0.000000e+00 0.000000e+00
-6.814099e+04 1.334343e+04 0.000000e+00 1.334343e+04 -6.853619e+04 0.000000e+00 0.000000e+00 0.000000e+00 0.000000e+00
-7.455723e+04 1.270594e+04 0.000000e+00 1.270594e+04 -6.896228e+04 0.000000e+00 0.000000e+00 0.000000e+00 0.000000e+00
-8.042236e+04 1.063289e+04 0.000000e+00 1.063289e+04 -6.714978e+04 0.000000e+00 0.000000e+00 0.000000e+00 0.000000e+00
-8.406665e+04 8.554762e+03 0.000000e+00 8.554762e+03 -6.552897e+04 0.000000e+00 0.000000e+00 0.000000e+00 0.000000e+00
-8.612101e+04 6.393620e+03 0.000000e+00 6.393620e+03 -6.397588e+04 0.000000e+00 0.000000e+00 0.000000e+00 0.000000e+00
-8.677561e+04 4.097327e+03 0.000000e+00 4.097327e+03 -6.246275e+04 0.000000e+00 0.000000e+00 0.000000e+00 0.000000e+00
-8.604060e+04 1.794185e+03 0.000000e+00 1.794185e+03 -6.116152e+04 0.000000e+00 0.000000e+00 0.000000e+00 0.000000e+00
-8.402700e+04 -2.000868e+02 0.000000e+00 -2.000868e+02 -6.026034e+04 0.000000e+00 0.000000e+00 0.000000e+00 0.000000e+00
-8.093164e+04 -1.455317e+03 0.000000e+00 -1.455317e+03 -5.984839e+04 0.000000e+00 0.000000e+00 0.000000e+00 0.000000e+00
-7.686612e+04 -1.476593e+03 0.000000e+00 -1.476593e+03 -5.980336e+04 0.000000e+00 0.000000e+00 0.000000e+00 0.000000e+00
-7.353177e+04 -1.054994e+03 0.000000e+00 -1.054994e+03 -5.945254e+04 0.000000e+00 0.000000e+00 0.000000e+00 0.000000e+00
-6.652192e+04 1.152143e+04 0.000000e+00 1.152143e+04 -6.627870e+04 0.000000e+00 0.000000e+00 0.000000e+00 0.000000e+00
-7.250475e+04 1.088653e+04 0.000000e+00 1.088653e+04 -6.649227e+04 0.000000e+00 0.000000e+00 0.000000e+00 0.000000e+00
-7.822384e+04 8.951267e+03 0.000000e+00 8.951267e+03 -6.485441e+04 0.000000e+00 0.000000e+00 0.000000e+00 0.000000e+00
-8.176948e+04 6.926867e+03 0.000000e+00 6.926867e+03 -6.345834e+04 0.000000e+00 0.000000e+00 0.000000e+00 0.000000e+00
-8.369255e+04 4.833985e+03 0.000000e+00 4.833985e+03 -6.219157e+04 0.000000e+00 0.000000e+00 0.000000e+00 0.000000e+00
-8.430616e+04 2.723721e+03 0.000000e+00 2.723721e+03 -6.107624e+04 0.000000e+00 0.000000e+00 0.000000e+00 0.000000e+00
-8.380278e+04 7.944339e+02 0.000000e+00 7.944339e+02 -6.025377e+04 0.000000e+00 0.000000e+00 0.000000e+00 0.000000e+00
-8.239715e+04 -6.961207e+02 0.000000e+00 -6.961207e+02 -5.979277e+04 0.000000e+00 0.000000e+00 0.000000e+00 0.000000e+00
-8.030016e+04 -1.489420e+03 0.000000e+00 -1.489420e+03 -5.968712e+04 0.000000e+00 0.000000e+00 0.000000e+00 0.000000e+00
-7.770005e+04 -1.288105e+03 0.000000e+00 -1.288105e+03 -5.979209e+04 0.000000e+00 0.000000e+00 0.000000e+00 0.000000e+00
-7.567845e+04 -8.413498e+02 0.000000e+00 -8.413498e+02 -5.962782e+04 0.000000e+00 0.000000e+00 0.000000e+00 0.000000e+00
-6.529561e+04 9.650868e+03 0.000000e+00 9.650868e+03 -6.498375e+04 0.000000e+00 0.000000e+00 0.000000e+00 0.000000e+00
-7.067756e+04 9.074464e+03 0.000000e+00 9.074464e+03 -6.494673e+04 0.000000e+00 0.000000e+00 0.000000e+00 0.000000e+00
-7.612234e+04 7.376932e+03 0.000000e+00 7.376932e+03 -6.339712e+04 0.000000e+00 0.000000e+00 0.000000e+00 0.000000e+00
-7.956239e+04 5.515948e+03 0.000000e+00 5.515948e+03 -6.212902e+04 0.000000e+00 0.000000e+00 0.000000e+00 0.000000e+00
-8.144930e+04 3.610927e+03 0.000000e+00 3.610927e+03 -6.104687e+04 0.000000e+00 0.000000e+00 0.000000e+00 0.000000e+00
-8.219000e+04 1.800635e+03 0.000000e+00 1.800635e+03 -6.023477e+04 0.000000e+00 0.000000e+00 0.000000e+00 0.000000e+00
-8.205695e+04 2.567601e+02 0.000000e+00 2.567601e+02 -5.974359e+04 0.000000e+00 0.000000e+00 0.000000e+00 0.000000e+00
-8.125631e+04 -8.494407e+02 0.000000e+00 -8.494407e+02 -5.955418e+04 0.000000e+00 0.000000e+00 0.000000e+00 0.000000e+00
-8.001408e+04 -1.343951e+03 0.000000e+00 -1.343951e+03 -5.961777e+04 0.000000e+00 0.000000e+00 0.000000e+00 0.000000e+00
-7.853049e+04 -1.062609e+03 0.000000e+00 -1.062609e+03 -5.979351e+04 0.000000e+00 0.000000e+00 0.000000e+00 0.000000e+00
-7.744541e+04 -6.570855e+02 0.000000e+00 -6.570855e+02 -5.975680e+04 0.000000e+00 0.000000e+00 0.000000e+00 0.000000e+00
-6.443856e+04 7.714725e+03 0.000000e+00 7.714725e+03 -6.425159e+04 0.000000e+00 0.000000e+00 0.000000e+00 0.000000e+00
-6.915948e+04 7.222859e+03 0.000000e+00 7.222859e+03 -6.404336e+04 0.000000e+00 0.000000e+00 0.000000e+00 0.000000e+00
-7.426467e+04 5.839609e+03 0.000000e+00 5.839609e+03 -6.251258e+04 0.000000e+00 0.000000e+00 0.000000e+00 0.000000e+00
-7.758930e+04 4.235933e+03 0.000000e+00 4.235933e+03 -6.130068e+04 0.000000e+00 0.000000e+00 0.000000e+00 0.000000e+00
-7.952490e+04 2.641711e+03 0.000000e+00 2.641711e+03 -6.036848e+04 0.000000e+00 0.000000e+00 0.000000e+00 0.000000e+00
-8.048690e+04 1.188275e+03 0.000000e+00 1.188275e+03 -5.975981e+04 0.000000e+00 0.000000e+00 0.000000e+00 0.000000e+00
-8.072489e+04 1.462768e+00 0.000000e+00 1.462768e+00 -5.946672e+04 0.000000e+00 0.000000e+00 0.000000e+00 0.000000e+00
-8.046477e+04 -8.018604e+02 0.000000e+00 -8.018604e+02 -5.944471e+04 0.000000e+00 0.000000e+00 0.000000e+00 0.000000e+00
-7.991173e+04 -1.109971e+03 0.000000e+00 -1.109971e+03 -5.960437e+04 0.000000e+00 0.000000e+00 0.000000e+00 0.000000e+00
-7.925837e+04 -8.297468e+02 0.000000e+00 -8.297468e+02 -5.980732e+04 0.000000e+00 0.000000e+00 0.000000e+00 0.000000e+00
-7.883738e+04 -4.901078e+02 0.000000e+00 -4.901078e+02 -5.985991e+04 0.000000e+00 0.000000e+00 0.000000e+00 0.000000e+00
-6.385932e+04 5.755583e+03 0.000000e+00 5.755583e+03 -6.383707e+04 0.000000e+00 0.000000e+00 0.000000e+00 0.000000e+00
-6.799603e+04 5.377433e+03 0.000000e+00 5.377433e+03 -6.351556e+04 0.000000e+00 0.000000e+00 0.000000e+00 0.000000e+00
-7.272727e+04 4.317474e+03 0.000000e+00 4.317474e+03 -6.199800e+04 0.000000e+00 0.000000e+00 0.000000e+00 0.000000e+00
-7.598603e+04 3.069588e+03 0.000000e+00 3.069588e+03 -6.082154e+04 0.000000e+00 0.000000e+00 0.000000e+00 0.000000e+00
-7.801455e+04 1.852402e+03 0.000000e+00 1.852402e+03 -6.000152e+04 0.000000e+00 0.000000e+00 0.000000e+00 0.000000e+00
-7.918181e+04 7.700761e+02 0.000000e+00 7.700761e+02 -5.952241e+04 0.000000e+00 0.000000e+00 0.000000e+00 0.000000e+00
-7.974931e+04 -8.956694e+01 0.000000e+00 -8.956694e+01 -5.934989e+04 0.000000e+00 0.000000e+00 0.000000e+00 0.000000e+00
-7.992720e+04 -6.464039e+02 0.000000e+00 -6.464039e+02 -5.941020e+04 0.000000e+00 0.000000e+00 0.000000e+00 0.000000e+00
-7.989534e+04 -8.375855e+02 0.000000e+00 -8.375855e+02 -5.961470e+04 0.000000e+00 0.000000e+00 0.000000e+00 0.000000e+00
-7.984170e+04 -6.070643e+02 0.000000e+00 -6.070643e+02 -5.982388e+04 0.000000e+00 0.000000e+00 0.000000e+00 0.000000e+00
-7.987561e+04 -3.469859e+02 0.000000e+00 -3.469859e+02 -5.994343e+04 0.000000e+00 0.000000e+00 0.000000e+00 0.000000e+00
-6.343725e+04 3.768534e+03 0.000000e+00 3.768534e+03 -6.360886e+04 0.000000e+00 0.000000e+00 0.000000e+00 0.000000e+00
-6.716488e+04 3.498860e+03 0.000000e+00 3.498860e+03 -6.320624e+04 0.000000e+00 0.000000e+00 0.000000e+00 0.000000e+00
-7.160209e+04 2.800007e+03 0.000000e+00 2.800007e+03 -6.170383e+04 0.000000e+00 0.000000e+00 0.000000e+00 0.000000e+00
-7.481194e+04 1.974286e+03 0.000000e+00 1.974286e+03 -6.056657e+04 0.000000e+00 0.000000e+00 0.000000e+00 0.000000e+00
-7.693348e+04 1.171879e+03 0.000000e+00 1.171879e+03 -5.981779e+04 0.000000e+00 0.000000e+00 0.000000e+00 0.000000e+00
-7.826899e+04 4.660091e+02 0.000000e+00 4.660091e+02 -5.942089e+04 0.000000e+00 0.000000e+00 0.000000e+00 0.000000e+00
-7.908392e+04 -8.957218e+01 0.000000e+00 -8.957218e+01 -5.931384e+04 0.000000e+00 0.000000e+00 0.000000e+00 0.000000e+00
-7.957545e+04 -4.438131e+02 0.000000e+00 -4.438131e+02 -5.941360e+04 0.000000e+00 0.000000e+00 0.000000e+00 0.000000e+00
-7.991457e+04 -5.554654e+02 0.000000e+00 -5.554654e+02 -5.963000e+04 0.000000e+00 0.000000e+00 0.000000e+00 0.000000e+00
-8.026187e+04 -3.963685e+02 0.000000e+00 -3.963685e+02 -5.983773e+04 0.000000e+00 0.000000e+00 0.000000e+00 0.000000e+00
-8.059707e+04 -2.237103e+02 0.000000e+00 -2.237103e+02 -5.999948e+04 0.000000e+00 0.000000e+00 0.000000e+00 0.000000e+00
-6.316458e+04 1.741698e+03 0.000000e+00 1.741698e+03 -6.331458e+04 0.000000e+00 0.000000e+00 0.000000e+00 0.000000e+00
-6.669740e+04 1.655493e+03 0.000000e+00 1.655493e+03 -6.290904e+04 0.000000e+00 0.000000e+00 0.000000e+00 0.000000e+00
-7.094015e+04 1.342099e+03 0.000000e+00 1.342099e+03 -6.149188e+04 0.000000e+00 0.000000e+00 0.000000e+00 0.000000e+00
-7.411538e+04 9.566163e+02 0.000000e+00 9.566163e+02 -6.043147e+04 0.000000e+00 0.000000e+00 0.000000e+00 0.000000e+00
-7.629177e+04 5.651519e+02 0.000000e+00 5.651519e+02 -5.974599e+04 0.000000e+00 0.000000e+00 0.000000e+00 0.000000e+00
-7.773645e+04 2.239524e+02 0.000000e+00 2.239524e+02 -5.939330e+04 0.000000e+00 0.000000e+00 0.000000e+00 0.000000e+00
-7.869309e+04 -5.077441e+01 0.000000e+00 -5.077441e+01 -5.931013e+04 0.000000e+00 0.000000e+00 0.000000e+00 0.000000e+00
-7.937248e+04 -2.242382e+02 0.000000e+00 -2.242382e+02 -5.942567e+04 0.000000e+00 0.000000e+00 0.000000e+00 0.000000e+00
-7.993444e+04 -2.774371e+02 0.000000e+00 -2.774371e+02 -5.964113e+04 0.000000e+00 0.000000e+00 0.000000e+00 0.000000e+00
-8.051173e+04 -1.960354e+02 0.000000e+00 -1.960354e+02 -5.984542e+04 0.000000e+00 0.000000e+00 0.000000e+00 0.000000e+00
-8.101934e+04 -1.109192e+02 0.000000e+00 -1.109192e+02 -6.002623e+04 0.000000e+00 0.000000e+00 0.000000e+00 0.000000e+00
-6.296736e+04 3.500472e+02 0.000000e+00 3.500472e+02 -6.289600e+04 0.000000e+00 0.000000e+00 0.000000e+00 0.000000e+00
-6.651291e+04 4.192705e+02 0.000000e+00 4.192705e+02 -6.261753e+04 0.000000e+00 0.000000e+00 0.000000e+00 0.000000e+00
-7.072312e+04 3.762828e+02 0.000000e+00 3.762828e+02 -6.138342e+04 0.000000e+00 0.000000e+00 0.000000e+00 0.000000e+00
-7.389184e+04 2.654871e+02 0.000000e+00 2.654871e+02 -6.039005e+04 0.000000e+00 0.000000e+00 0.000000e+00 0.000000e+00
-7.608289e+04 1.291591e+02 0.000000e+00 1.291591e+02 -5.973430e+04 0.000000e+00 0.000000e+00 0.000000e+00 0.000000e+00
-7.756202e+04 1.390583e+01 0.000000e+00 1.390583e+01 -5.938927e+04 0.000000e+00 0.000000e+00 0.000000e+00 0.000000e+00
-7.856110e+04 -9.319725e+01 0.000000e+00 -9.319725e+01 -5.930666e+04 0.000000e+00 0.000000e+00 0.000000e+00 0.000000e+00
-7.930395e+04 -1.591279e+02 0.000000e+00 -1.591279e+02 -5.942838e+04 0.000000e+00 0.000000e+00 0.000000e+00 0.000000e+00
-7.994212e+04 -1.794019e+02 0.000000e+00 -1.794019e+02 -5.964346e+04 0.000000e+00 0.000000e+00 0.000000e+00 0.000000e+00
-8.059664e+04 -1.469002e+02 0.000000e+00 -1.469002e+02 -5.984779e+04 0.000000e+00 0.000000e+00 0.000000e+00 0.000000e+00
-8.115980e+04 -1.139785e+02 0.000000e+00 -1.139785e+02 -6.003426e+04 0.000000e+00 0.000000e+00 0.000000e+00 0.000000e+00
</DataArray>
<DataArray Name="vol_eps" type="Float64" NumberOfComponents="1" format="ascii">
-9.760164e-03
-8.643948e-03
-8.205014e-03
-8.013051e-03
-8.167764e-03
-8.736245e-03
-9.718055e-03
-1.104584e-02
-1.269836e-02
-1.448672e-02
-1.513691e-02
-9.010272e-03
-7.989688e-03
-7.629169e-03
-7.510290e-03
-7.711731e-03
-8.264150e-03
-9.082475e-03
-1.019360e-02
-1.171512e-02
-1.361055e-02
-1.639774e-02
-7.238813e-03
-6.491332e-03
-6.312725e-03
-6.364295e-03
-6.515405e-03
-6.732627e-03
-7.030446e-03
-7.514270e-03
-8.354982e-03
-9.993995e-03
-1.321942e-02
-5.439566e-03
-5.034018e-03
-4.901121e-03
-4.772649e-03
-4.435949e-03
-3.863088e-03
-3.169070e-03
-2.094645e-03
-4.467303e-04
2.137229e-03
4.557882e-03
-4.200194e-03
-4.173991e-03
-4.351673e-03
-4.506567e-03
-4.571933e-03
-4.515859e-03
-4.364409e-03
-4.016591e-03
-3.411556e-03
-2.416228e-03
-2.696356e-04
-3.168272e-03
-3.409692e-03
-3.680720e-03
-3.822478e-03
-3.854285e-03
-3.763493e-03
-3.557218e-03
-3.190270e-03
-2.604045e-03
-1.492801e-03
-2.913505e-05
-2.331867e-03
-2.769706e-03
-3.074887e-03
-3.212501e-03
-3.227858e-03
-3.128564e-03
-2.911782e-03
-2.556653e-03
-1.990090e-03
-1.124969e-03
-2.154846e-04
-1.709114e-03
-2.240860e-03
-2.563636e-03
-2.699323e-03
-2.709553e-03
-2.619529e-03
-2.418669e-03
-2.088669e-03
-1.623772e-03
-1.015229e-03
-4.380810e-04
-1.261410e-03
-1.804637e-03
-2.128304e-03
-2.267029e-03
-2.289489e-03
-2.211162e-03
-2.034046e-03
-1.765711e-03
-1.423700e-03
-1.012705e-03
-6.417277e-04
-9.417868e-04
-1.451907e-03
-1.765022e-03
-1.909741e-03
-1.941906e-03
-1.880365e-03
-1.744373e-03
-1.551633e-03
-1.317941e-03
-1.050021e-03
-8.153133e-04
-7.279388e-04
-1.174429e-03
-1.468647e-03
-1.616643e-03
-1.659177e-03
-1.623446e-03
-1.535139e-03
-1.411909e-03
-1.265349e-03
-1.101932e-03
-9.619399e-04
-5.927387e-04
-9.667492e-04
-1.236306e-03
-1.379946e-03
-1.434021e-03
-1.428434e-03
-1.385776e-03
-1.320454e-03
-1.242146e-03
-1.155262e-03
-1.082269e-03
-5.141335e-04
-8.219255e-04
-1.060170e-03
-1.196034e-03
-1.261456e-03
-1.283655e-03
-1.278876e-03
-1.260614e-03
-1.234798e-03
-1.204680e-03
-1.180022e-03
-4.714069e-04
-7.250911e-04
-9.301321e-04
-1.059973e-03
-1.136305e-03
-1.181073e-03
-1.206772e-03
-1.222670e-03
-1.234415e-03
-1.244691e-03
-1.255071e-03
-4.446760e-04
-6.601203e-04
-8.423216e-04
-9.685944e-04
-1.052871e-03
-1.113282e-03
-1.160444e-03
-1.199737e-03
-1.236663e-03
-1.273228e-03
-1.306230e-03
-4.163705e-04
-6.156696e-04
-7.899930e-04
-9.174502e-04
-1.007386e-03
-1.075837e-03
-1.134051e-03
-1.187121e-03
-1.238779e-03
-1.290099e-03
-1.335341e-03
-3.795152e-04
-5.871996e-04
-7.709835e-04
-9.016771e-04
-9.939475e-04
-1.064011e-03
-1.124826e-03
-1.182642e-03
-1.239456e-03
-1.295746e-03
-1.344838e-03
</DataArray>
</PointData>
</Piece>
</UnstructuredGrid>
</VTKFile>
