<?xml version="1.0"?>
<VTKFile type="UnstructuredGrid" version="0.1">
<UnstructuredGrid>
<FieldData>
<DataArray Name="TIME" type="Float64" format="ascii" NumberOfTuples="1">
0.000000e+00
</DataArray>
</FieldData>
<FieldData>
<DataArray Name="CYCLE" type="Int32" format="ascii" NumberOfTuples="1">
0
</DataArray>
</FieldData>
<Piece NumberOfPoints="187" NumberOfCells="160">
<Points>
<DataArray NumberOfComponents="3" type="Float64" format="ascii">
0.000000e+00 0.000000e+00 0.000000e+00
0.000000e+00 1.989098e-01 0.000000e+00
0.000000e+00 3.974611e-01 0.000000e+00
0.000000e+00 5.956421e-01 0.000000e+00
0.000000e+00 7.935164e-01 0.000000e+00
0.000000e+00 9.911713e-01 0.000000e+00
0.000000e+00 1.188675e+00 0.000000e+00
0.000000e+00 1.386117e+00 0.000000e+00
0.000000e+00 1.583659e+00 0.000000e+00
0.000000e+00 1.781583e+00 0.000000e+00
0.000000e+00 1.979750e+00 0.000000e+00
2.250000e-01 0.000000e+00 0.000000e+00
2.254027e-01 1.989662e-01 0.000000e+00
2.258056e-01 3.976201e-01 0.000000e+00
2.261596e-01 5.959548e-01 0.000000e+00
2.264053e-01 7.939836e-01 0.000000e+00
2.265179e-01 9.917632e-01 0.000000e+00
2.265022e-01 1.189352e+00 0.000000e+00
2.263397e-01 1.386810e+00 0.000000e+00
2.259233e-01 1.584233e+00 0.000000e+00
2.252463e-01 1.781743e+00 0.000000e+00
2.250000e-01 1.979750e+00 0.000000e+00
4.500000e-01 0.000000e+00 0.000000e+00
4.507358e-01 1.990854e-01 0.000000e+00
4.514208e-01 3.979735e-01 0.000000e+00
4.520299e-01 5.966815e-01 0.000000e+00
4.525060e-01 7.952012e-01 0.000000e+00
4.528107e-01 9.934950e-01 0.000000e+00
4.529196e-01 1.191514e+00 0.000000e+00
4.528207e-01 1.389208e+00 0.000000e+00
4.523559e-01 1.586539e+00 0.000000e+00
4.516262e-01 1.783357e+00 0.000000e+00
4.500000e-01 1.979750e+00 0.000000e+00
6.750000e-01 0.000000e+00 0.000000e+00
6.759527e-01 1.992392e-01 0.000000e+00
6.767641e-01 3.984028e-01 0.000000e+00
6.774481e-01 5.975364e-01 0.000000e+00
6.780020e-01 7.966724e-01 0.000000e+00
6.784101e-01 9.958443e-01 0.000000e+00
6.786558e-01 1.195094e+00 0.000000e+00
6.787563e-01 1.394468e+00 0.000000e+00
6.785764e-01 1.593993e+00 0.000000e+00
6.780420e-01 1.793826e+00 0.000000e+00
6.756988e-01 1.994319e+00 0.000000e+00
9.000000e-01 0.000000e+00 0.000000e+00
9.010439e-01 1.994045e-01 0.000000e+00
9.018598e-01 3.988115e-01 0.000000e+00
9.025061e-01 5.982477e-01 0.000000e+00
9.030024e-01 7.977329e-01 0.000000e+00
9.033390e-01 9.972845e-01 0.000000e+00
9.035013e-01 1.196924e+00 0.000000e+00
9.034689e-01 1.396685e+00 0.000000e+00
9.031563e-01 1.596607e+00 0.000000e+00
9.022830e-01 1.796717e+00 0.000000e+00
9.006959e-01 1.996670e+00 0.000000e+00
1.125000e+00 0.000000e+00 0.000000e+00
1.126037e+00 1.995607e-01 0.000000e+00
1.126801e+00 3.991600e-01 0.000000e+00
1.127382e+00 5.988064e-01 0.000000e+00
1.127806e+00 7.985087e-01 0.000000e+00
1.128070e+00 9.982786e-01 0.000000e+00
1.128157e+00 1.198128e+00 0.000000e+00
1.128040e+00 1.398071e+00 0.000000e+00
1.127650e+00 1.598111e+00 0.000000e+00
1.126911e+00 1.798184e+00 0.000000e+00
1.125906e+00 1.998206e+00 0.000000e+00
1.350000e+00 0.000000e+00 0.000000e+00
1.350961e+00 1.996883e-01 0.000000e+00
1.351653e+00 3.994298e-01 0.000000e+00
1.352167e+00 5.992197e-01 0.000000e+00
1.352527e+00 7.990623e-01 0.000000e+00
1.352731e+00 9.989634e-01 0.000000e+00
1.352768e+00 1.198927e+00 0.000000e+00
1.352619e+00 1.398952e+00 0.000000e+00
1.352259e+00 1.599023e+00 0.000000e+00
1.351695e+00 1.799095e+00 0.000000e+00
1.351043e+00 1.999102e+00 0.000000e+00
1.575000e+00 0.000000e+00 0.000000e+00
1.575847e+00 1.997841e-01 0.000000e+00
1.576461e+00 3.996241e-01 0.000000e+00
1.576911e+00 5.995116e-01 0.000000e+00
1.577216e+00 7.994458e-01 0.000000e+00
1.577376e+00 9.994265e-01 0.000000e+00
1.577387e+00 1.199453e+00 0.000000e+00
1.577242e+00 1.399518e+00 0.000000e+00
1.576948e+00 1.599600e+00 0.000000e+00
1.576541e+00 1.799665e+00 0.000000e+00
1.576116e+00 1.999680e+00 0.000000e+00
1.800000e+00 0.000000e+00 0.000000e+00
1.800719e+00 1.998512e-01 0.000000e+00
1.801254e+00 3.997586e-01 0.000000e+00
1.801643e+00 5.997105e-01 0.000000e+00
1.801900e+00 7.997025e-01 0.000000e+00
1.802029e+00 9.997323e-01 0.000000e+00
1.802031e+00 1.199795e+00 0.000000e+00
1.801911e+00 1.399877e+00 0.000000e+00
1.801688e+00 1.599960e+00 0.000000e+00
1.801403e+00 1.800023e+00 0.000000e+00
1.801132e+00 2.000046e+00 0.000000e+00
2.025000e+00 0.000000e+00 0.000000e+00
2.025594e+00 1.998972e-01 0.000000e+00
2.026048e+00 3.998487e-01 0.000000e+00
2.026379e+00 5.998412e-01 0.000000e+00
2.026597e+00 7.998688e-01 0.000000e+00
2.026704e+00 9.999264e-01 0.000000e+00
2.026706e+00 1.200006e+00 0.000000e+00
2.026616e+00 1.400095e+00 0.000000e+00
2.026456e+00 1.600178e+00 0.000000e+00
2.026264e+00 1.800240e+00 0.000000e+00
2.026097e+00 2.000273e+00 0.000000e+00
2.250000e+00 0.000000e+00 0.000000e+00
2.250479e+00 1.999281e-01 0.000000e+00
2.250854e+00 3.999057e-01 0.000000e+00
2.251131e+00 5.999224e-01 0.000000e+00
2.251313e+00 7.999705e-01 0.000000e+00
2.251403e+00 1.000042e+00 0.000000e+00
2.251411e+00 1.200129e+00 0.000000e+00
2.251348e+00 1.400219e+00 0.000000e+00
2.251239e+00 1.600301e+00 0.000000e+00
2.251115e+00 1.800365e+00 0.000000e+00
2.251019e+00 2.000407e+00 0.000000e+00
2.475000e+00 0.000000e+00 0.000000e+00
2.475375e+00 1.999472e-01 0.000000e+00
2.475678e+00 3.999404e-01 0.000000e+00
2.475904e+00 5.999706e-01 0.000000e+00
2.476052e+00 8.000292e-01 0.000000e+00
2.476128e+00 1.000107e+00 0.000000e+00
2.476140e+00 1.200196e+00 0.000000e+00
2.476100e+00 1.400285e+00 0.000000e+00
2.476029e+00 1.600365e+00 0.000000e+00
2.475953e+00 1.800431e+00 0.000000e+00
2.475904e+00 2.000481e+00 0.000000e+00
2.700000e+00 0.000000e+00 0.000000e+00
2.700285e+00 1.999599e-01 0.000000e+00
2.700519e+00 3.999622e-01 0.000000e+00
2.700696e+00 5.999991e-01 0.000000e+00
2.700813e+00 8.000619e-01 0.000000e+00
2.700875e+00 1.000142e+00 0.000000e+00
2.700889e+00 1.200229e+00 0.000000e+00
2.700866e+00 1.400316e+00 0.000000e+00
2.700823e+00 1.600395e+00 0.000000e+00
2.700779e+00 1.800462e+00 0.000000e+00
2.700758e+00 2.000519e+00 0.000000e+00
2.925000e+00 0.000000e+00 0.000000e+00
2.925206e+00 1.999679e-01 0.000000e+00
2.925377e+00 3.999756e-01 0.000000e+00
2.925506e+00 6.000161e-01 0.000000e+00
2.925593e+00 8.000804e-01 0.000000e+00
2.925641e+00 1.000160e+00 0.000000e+00
2.925654e+00 1.200245e+00 0.000000e+00
2.925642e+00 1.400329e+00 0.000000e+00
2.925617e+00 1.600407e+00 0.000000e+00
2.925594e+00 1.800477e+00 0.000000e+00
2.925589e+00 2.000539e+00 0.000000e+00
3.150000e+00 0.000000e+00 0.000000e+00
3.150135e+00 1.999750e-01 0.000000e+00
3.150246e+00 3.999866e-01 0.000000e+00
3.150330e+00 6.000293e-01 0.000000e+00
3.150388e+00 8.000944e-01 0.000000e+00
3.150420e+00 1.000172e+00 0.000000e+00
3.150430e+00 1.200256e+00 0.000000e+00
3.150425e+00 1.400339e+00 0.000000e+00
3.150412e+00 1.600416e+00 0.000000e+00
3.150401e+00 1.800487e+00 0.000000e+00
3.150402e+00 2.000552e+00 0.000000e+00
3.375000e+00 0.000000e+00 0.000000e+00
3.375069e+00 1.999815e-01 0.000000e+00
3.375122e+00 3.999989e-01 0.000000e+00
3.375163e+00 6.000445e-01 0.000000e+00
3.375192e+00 8.001103e-01 0.000000e+00
3.375208e+00 1.000188e+00 0.000000e+00
3.375213e+00 1.200271e+00 0.000000e+00
3.375211e+00 1.400352e+00 0.000000e+00
3.375206e+00 1.600429e+00 0.000000e+00
3.375202e+00 1.800500e+00 0.000000e+00
3.375204e+00 2.000568e+00 0.000000e+00
3.600000e+00 0.000000e+00 0.000000e+00
3.600000e+00 1.999972e-01 0.000000e+00
3.600000e+00 4.000199e-01 0.000000e+00
3.600000e+00 6.000671e-01 0.000000e+00
3.600000e+00 8.001330e-01 0.000000e+00
3.600000e+00 1.000210e+00 0.000000e+00
3.600000e+00 1.200292e+00 0.000000e+00
3.600000e+00 1.400373e+00 0.000000e+00
3.600000e+00 1.600449e+00 0.000000e+00
3.600000e+00 1.800521e+00 0.000000e+00
3.600000e+00 2.000590e+00 0.000000e+00
</DataArray>
</Points>
<Cells>
<DataArray Name="connectivity" type="Int32" format="ascii">
0 11 12 1
1 12 13 2
2 13 14 3
3 14 15 4
4 15 16 5
5 16 17 6
6 17 18 7
7 18 19 8
8 19 20 9
9 20 21 10
11 22 23 12
12 23 24 13
13 24 25 14
14 25 26 15
15 26 27 16
16 27 28 17
17 28 29 18
18 29 30 19
19 30 31 20
20 31 32 21
22 33 34 23
23 34 35 24
24 35 36 25
25 36 37 26
26 37 38 27
27 38 39 28
28 39 40 29
29 40 41 30
30 41 42 31
31 42 43 32
33 44 45 34
34 45 46 35
35 46 47 36
36 47 48 37
37 48 49 38
38 49 50 39
39 50 51 40
40 51 52 41
41 52 53 42
42 53 54 43
44 55 56 45
45 56 57 46
46 57 58 47
47 58 59 48
48 59 60 49
49 60 61 50
50 61 62 51
51 62 63 52
52 63 64 53
53 64 65 54
55 66 67 56
56 67 68 57
57 68 69 58
58 69 70 59
59 70 71 60
60 71 72 61
61 72 73 62
62 73 74 63
63 74 75 64
64 75 76 65
66 77 78 67
67 78 79 68
68 79 80 69
69 80 81 70
70 81 82 71
71 82 83 72
72 83 84 73
73 84 85 74
74 85 86 75
75 86 87 76
77 88 89 78
78 89 90 79
79 90 91 80
80 91 92 81
81 92 93 82
82 93 94 83
83 94 95 84
84 95 96 85
85 96 97 86
86 97 98 87
88 99 100 89
89 100 101 90
90 101 102 91
91 102 103 92
92 103 104 93
93 104 105 94
94 105 106 95
95 106 107 96
96 107 108 97
97 108 109 98
99 110 111 100
100 111 112 101
101 112 113 102
102 113 114 103
103 114 115 104
104 115 116 105
105 116 117 106
106 117 118 107
107 118 119 108
108 119 120 109
110 121 122 111
111 122 123 112
112 123 124 113
113 124 125 114
114 125 126 115
115 126 127 116
116 127 128 117
117 128 129 118
118 129 130 119
119 130 131 120
121 132 133 122
122 133 134 123
123 134 135 124
124 135 136 125
125 136 137 126
126 137 138 127
127 138 139 128
128 139 140 129
129 140 141 130
130 141 142 131
132 143 144 133
133 144 145 134
134 145 146 135
135 146 147 136
136 147 148 137
137 148 149 138
138 149 150 139
139 150 151 140
140 151 152 141
141 152 153 142
143 154 155 144
144 155 156 145
145 156 157 146
146 157 158 147
147 158 159 148
148 159 160 149
149 160 161 150
150 161 162 151
151 162 163 152
152 163 164 153
154 165 166 155
155 166 167 156
156 167 168 157
157 168 169 158
158 169 170 159
159 170 171 160
160 171 172 161
161 172 173 162
162 173 174 163
163 174 175 164
165 176 177 166
166 177 178 167
167 178 179 168
168 179 180 169
169 180 181 170
170 181 182 171
171 182 183 172
172 183 184 173
173 184 185 174
174 185 186 175
</DataArray>
<DataArray Name="offsets" type="Int32" format="ascii">
4
8
12
16
20
24
28
32
36
40
44
48
52
56
60
64
68
72
76
80
84
88
92
96
100
104
108
112
116
120
124
128
132
136
140
144
148
152
156
160
164
168
172
176
180
184
188
192
196
200
204
208
212
216
220
224
228
232
236
240
244
248
252
256
260
264
268
272
276
280
284
288
292
296
300
304
308
312
316
320
324
328
332
336
340
344
348
352
356
360
364
368
372
376
380
384
388
392
396
400
404
408
412
416
420
424
428
432
436
440
444
448
452
456
460
464
468
472
476
480
484
488
492
496
500
504
508
512
516
520
524
528
532
536
540
544
548
552
556
560
564
568
572
576
580
584
588
592
596
600
604
608
612
616
620
624
628
632
636
640
</DataArray>
<DataArray Name="types" type="UInt8" format="ascii">
9
9
9
9
9
9
9
9
9
9
9
9
9
9
9
9
9
9
9
9
9
9
9
9
9
9
9
9
9
9
9
9
9
9
9
9
9
9
9
9
9
9
9
9
9
9
9
9
9
9
9
9
9
9
9
9
9
9
9
9
9
9
9
9
9
9
9
9
9
9
9
9
9
9
9
9
9
9
9
9
9
9
9
9
9
9
9
9
9
9
9
9
9
9
9
9
9
9
9
9
9
9
9
9
9
9
9
9
9
9
9
9
9
9
9
9
9
9
9
9
9
9
9
9
9
9
9
9
9
9
9
9
9
9
9
9
9
9
9
9
9
9
9
9
9
9
9
9
9
9
9
9
9
9
9
9
9
9
9
9
</DataArray>
</Cells>
<PointData>
<DataArray Name="disp" type="Float64" NumberOfComponents="3" format="ascii">
0.000000e+00 0.000000e+00 0.000000e+00
0.000000e+00 -1.090210e-03 0.000000e+00
0.000000e+00 -2.538929e-03 0.000000e+00
0.000000e+00 -4.357856e-03 0.000000e+00
0.000000e+00 -6.483587e-03 0.000000e+00
0.000000e+00 -8.828674e-03 0.000000e+00
0.000000e+00 -1.132484e-02 0.000000e+00
0.000000e+00 -1.388319e-02 0.000000e+00
0.000000e+00 -1.634118e-02 0.000000e+00
0.000000e+00 -1.841721e-02 0.000000e+00
0.000000e+00 -2.025000e-02 0.000000e+00
0.000000e+00 0.000000e+00 0.000000e+00
4.027451e-04 -1.033821e-03 0.000000e+00
8.056186e-04 -2.379865e-03 0.000000e+00
1.159615e-03 -4.045159e-03 0.000000e+00
1.405328e-03 -6.016440e-03 0.000000e+00
1.517895e-03 -8.236748e-03 0.000000e+00
1.502173e-03 -1.064780e-02 0.000000e+00
1.339747e-03 -1.318961e-02 0.000000e+00
9.233269e-04 -1.576693e-02 0.000000e+00
2.463334e-04 -1.825705e-02 0.000000e+00
0.000000e+00 -2.025000e-02 0.000000e+00
0.000000e+00 0.000000e+00 0.000000e+00
7.357979e-04 -9.145723e-04 0.000000e+00
1.420788e-03 -2.026503e-03 0.000000e+00
2.029895e-03 -3.318533e-03 0.000000e+00
2.506020e-03 -4.798815e-03 0.000000e+00
2.810734e-03 -6.504933e-03 0.000000e+00
2.919619e-03 -8.485515e-03 0.000000e+00
2.820682e-03 -1.079175e-02 0.000000e+00
2.355855e-03 -1.346100e-02 0.000000e+00
1.626192e-03 -1.664276e-02 0.000000e+00
0.000000e+00 -2.025000e-02 0.000000e+00
0.000000e+00 0.000000e+00 0.000000e+00
9.526528e-04 -7.607981e-04 0.000000e+00
1.764065e-03 -1.597175e-03 0.000000e+00
2.448090e-03 -2.463528e-03 0.000000e+00
3.002002e-03 -3.327593e-03 0.000000e+00
3.410131e-03 -4.155713e-03 0.000000e+00
3.655778e-03 -4.905505e-03 0.000000e+00
3.756289e-03 -5.532167e-03 0.000000e+00
3.576360e-03 -6.007231e-03 0.000000e+00
3.041986e-03 -6.174257e-03 0.000000e+00
6.987581e-04 -5.681163e-03 0.000000e+00
0.000000e+00 0.000000e+00 0.000000e+00
1.043908e-03 -5.955106e-04 0.000000e+00
1.859750e-03 -1.188520e-03 0.000000e+00
2.506032e-03 -1.752287e-03 0.000000e+00
3.002455e-03 -2.267086e-03 0.000000e+00
3.338999e-03 -2.715446e-03 0.000000e+00
3.501281e-03 -3.076086e-03 0.000000e+00
3.468885e-03 -3.315444e-03 0.000000e+00
3.156344e-03 -3.393383e-03 0.000000e+00
2.282930e-03 -3.283283e-03 0.000000e+00
6.959313e-04 -3.329903e-03 0.000000e+00
0.000000e+00 0.000000e+00 0.000000e+00
1.036759e-03 -4.392992e-04 0.000000e+00
1.801192e-03 -8.399838e-04 0.000000e+00
2.381996e-03 -1.193622e-03 0.000000e+00
2.805964e-03 -1.491292e-03 0.000000e+00
3.069497e-03 -1.721419e-03 0.000000e+00
3.156913e-03 -1.871953e-03 0.000000e+00
3.040128e-03 -1.929145e-03 0.000000e+00
2.650464e-03 -1.888596e-03 0.000000e+00
1.911358e-03 -1.815763e-03 0.000000e+00
9.057982e-04 -1.793532e-03 0.000000e+00
0.000000e+00 0.000000e+00 0.000000e+00
9.610220e-04 -3.117126e-04 0.000000e+00
1.652845e-03 -5.702135e-04 0.000000e+00
2.167038e-03 -7.803413e-04 0.000000e+00
2.526871e-03 -9.376992e-04 0.000000e+00
2.730868e-03 -1.036656e-03 0.000000e+00
2.768046e-03 -1.073232e-03 0.000000e+00
2.618890e-03 -1.048351e-03 0.000000e+00
2.258684e-03 -9.773409e-04 0.000000e+00
1.695166e-03 -9.047938e-04 0.000000e+00
1.042507e-03 -8.977274e-04 0.000000e+00
0.000000e+00 0.000000e+00 0.000000e+00
8.471371e-04 -2.158651e-04 0.000000e+00
1.461159e-03 -3.759005e-04 0.000000e+00
1.911344e-03 -4.884624e-04 0.000000e+00
2.215522e-03 -5.542121e-04 0.000000e+00
2.375995e-03 -5.735127e-04 0.000000e+00
2.386638e-03 -5.471411e-04 0.000000e+00
2.242401e-03 -4.818910e-04 0.000000e+00
1.947764e-03 -3.996807e-04 0.000000e+00
1.540778e-03 -3.352298e-04 0.000000e+00
1.116131e-03 -3.199884e-04 0.000000e+00
0.000000e+00 0.000000e+00 0.000000e+00
7.190563e-04 -1.488103e-04 0.000000e+00
1.253766e-03 -2.414091e-04 0.000000e+00
1.642894e-03 -2.894660e-04 0.000000e+00
1.900303e-03 -2.974772e-04 0.000000e+00
2.029287e-03 -2.677089e-04 0.000000e+00
2.031051e-03 -2.054841e-04 0.000000e+00
1.910998e-03 -1.230597e-04 0.000000e+00
1.687559e-03 -3.954162e-05 0.000000e+00
1.403036e-03 2.269952e-05 0.000000e+00
1.131786e-03 4.618519e-05 0.000000e+00
0.000000e+00 0.000000e+00 0.000000e+00
5.936983e-04 -1.028403e-04 0.000000e+00
1.047911e-03 -1.513294e-04 0.000000e+00
1.379216e-03 -1.588504e-04 0.000000e+00
1.596530e-03 -1.311815e-04 0.000000e+00
1.703495e-03 -7.357977e-05 0.000000e+00
1.706307e-03 5.873023e-06 0.000000e+00
1.616235e-03 9.474113e-05 0.000000e+00
1.455637e-03 1.778064e-04 0.000000e+00
1.263686e-03 2.401649e-04 0.000000e+00
1.097056e-03 2.729501e-04 0.000000e+00
0.000000e+00 0.000000e+00 0.000000e+00
4.784868e-04 -7.187176e-05 0.000000e+00
8.540550e-04 -9.427712e-05 0.000000e+00
1.131208e-03 -7.762956e-05 0.000000e+00
1.312922e-03 -2.952199e-05 0.000000e+00
1.403183e-03 4.245362e-05 0.000000e+00
1.410858e-03 1.291126e-04 0.000000e+00
1.348380e-03 2.193574e-04 0.000000e+00
1.238723e-03 3.010731e-04 0.000000e+00
1.114581e-03 3.649443e-04 0.000000e+00
1.019115e-03 4.067629e-04 0.000000e+00
0.000000e+00 0.000000e+00 0.000000e+00
3.754345e-04 -5.283735e-05 0.000000e+00
6.777798e-04 -5.958173e-05 0.000000e+00
9.034433e-04 -2.933589e-05 0.000000e+00
1.051793e-03 2.922171e-05 0.000000e+00
1.128089e-03 1.074365e-04 0.000000e+00
1.139966e-03 1.959532e-04 0.000000e+00
1.100319e-03 2.848846e-04 0.000000e+00
1.029275e-03 3.651484e-04 0.000000e+00
9.530559e-04 4.307785e-04 0.000000e+00
9.040728e-04 4.807569e-04 0.000000e+00
0.000000e+00 0.000000e+00 0.000000e+00
2.851668e-04 -4.014701e-05 0.000000e+00
5.192210e-04 -3.774452e-05 0.000000e+00
6.958986e-04 -9.384946e-07 0.000000e+00
8.128965e-04 6.186519e-05 0.000000e+00
8.751263e-04 1.414430e-04 0.000000e+00
8.892259e-04 2.290235e-04 0.000000e+00
8.662802e-04 3.156751e-04 0.000000e+00
8.229501e-04 3.946700e-04 0.000000e+00
7.791360e-04 4.621735e-04 0.000000e+00
7.585578e-04 5.188726e-04 0.000000e+00
0.000000e+00 0.000000e+00 0.000000e+00
2.058782e-04 -3.214178e-05 0.000000e+00
3.768321e-04 -2.440614e-05 0.000000e+00
5.061961e-04 1.604202e-05 0.000000e+00
5.932645e-04 8.042958e-05 0.000000e+00
6.406000e-04 1.594664e-04 0.000000e+00
6.538669e-04 2.449969e-04 0.000000e+00
6.421796e-04 3.294154e-04 0.000000e+00
6.175146e-04 4.074529e-04 0.000000e+00
5.943505e-04 4.767212e-04 0.000000e+00
5.892937e-04 5.386592e-04 0.000000e+00
0.000000e+00 0.000000e+00 0.000000e+00
1.350657e-04 -2.497093e-05 0.000000e+00
2.461601e-04 -1.339026e-05 0.000000e+00
3.302806e-04 2.929240e-05 0.000000e+00
3.879197e-04 9.436088e-05 0.000000e+00
4.198276e-04 1.725527e-04 0.000000e+00
4.299596e-04 2.562134e-04 0.000000e+00
4.247044e-04 3.387778e-04 0.000000e+00
4.119496e-04 4.160868e-04 0.000000e+00
4.010540e-04 4.865357e-04 0.000000e+00
4.023243e-04 5.522987e-04 0.000000e+00
0.000000e+00 0.000000e+00 0.000000e+00
6.867130e-05 -1.846018e-05 0.000000e+00
1.221076e-04 -1.082758e-06 0.000000e+00
1.631767e-04 4.446276e-05 0.000000e+00
1.917707e-04 1.103318e-04 0.000000e+00
2.076915e-04 1.879902e-04 0.000000e+00
2.132750e-04 2.705026e-04 0.000000e+00
2.113604e-04 3.519403e-04 0.000000e+00
2.060516e-04 4.286180e-04 0.000000e+00
2.019760e-04 4.997118e-04 0.000000e+00
2.038800e-04 5.677132e-04 0.000000e+00
0.000000e+00 0.000000e+00 0.000000e+00
0.000000e+00 -2.783456e-06 0.000000e+00
0.000000e+00 1.993142e-05 0.000000e+00
0.000000e+00 6.711265e-05 0.000000e+00
0.000000e+00 1.329686e-04 0.000000e+00
0.000000e+00 2.100530e-04 0.000000e+00
0.000000e+00 2.919161e-04 0.000000e+00
0.000000e+00 3.729811e-04 0.000000e+00
0.000000e+00 4.494993e-04 0.000000e+00
0.000000e+00 5.209323e-04 0.000000e+00
0.000000e+00 5.896714e-04 0.000000e+00
</DataArray>
<DataArray Name="shear" type="Float64" NumberOfComponents="1" format="ascii">
6.015024e-03
8.078577e-03
1.160594e-02
1.483154e-02
1.729225e-02
1.881940e-02
1.938011e-02
1.862311e-02
1.581408e-02
1.171419e-02
9.839574e-03
6.047175e-03
7.871709e-03
1.095583e-02
1.388305e-02
1.639713e-02
1.832222e-02
1.953244e-02
1.967614e-02
1.836629e-02
1.532114e-02
1.246960e-02
6.245274e-03
7.469328e-03
9.482057e-03
1.154568e-02
1.383713e-02
1.647827e-02
1.952584e-02
2.276084e-02
2.624981e-02
2.833740e-02
2.836276e-02
6.347964e-03
6.886751e-03
7.683377e-03
8.600252e-03
9.820092e-03
1.153811e-02
1.401388e-02
1.721417e-02
2.109973e-02
2.330597e-02
2.466932e-02
6.189485e-03
6.203362e-03
6.133459e-03
6.270173e-03
6.520188e-03
6.813061e-03
7.103974e-03
7.195752e-03
6.583048e-03
4.054734e-03
1.208409e-03
5.764550e-03
5.475337e-03
4.964605e-03
4.774006e-03
4.695704e-03
4.629578e-03
4.508169e-03
4.177848e-03
3.310660e-03
1.561652e-03
1.492675e-04
5.150944e-03
4.739883e-03
4.075845e-03
3.757962e-03
3.552635e-03
3.363055e-03
3.126966e-03
2.747886e-03
2.071885e-03
9.552069e-04
9.096225e-05
4.445080e-03
4.038981e-03
3.397391e-03
3.056753e-03
2.828801e-03
2.635265e-03
2.422268e-03
2.115472e-03
1.611691e-03
8.146040e-04
1.893113e-04
3.727818e-03
3.389176e-03
2.858992e-03
2.558843e-03
2.366655e-03
2.220304e-03
2.060531e-03
1.819718e-03
1.428596e-03
8.269555e-04
3.637192e-04
3.055131e-03
2.796906e-03
2.401741e-03
2.178913e-03
2.051137e-03
1.960382e-03
1.848959e-03
1.662055e-03
1.351399e-03
8.872340e-04
5.492049e-04
2.449151e-03
2.261670e-03
1.998017e-03
1.869131e-03
1.813971e-03
1.776427e-03
1.705867e-03
1.561311e-03
1.314449e-03
9.637640e-04
7.260555e-04
1.915910e-03
1.788724e-03
1.645367e-03
1.610561e-03
1.625672e-03
1.634448e-03
1.596333e-03
1.486136e-03
1.294996e-03
1.041606e-03
8.835723e-04
1.452698e-03
1.374531e-03
1.337463e-03
1.394440e-03
1.472292e-03
1.519780e-03
1.508234e-03
1.427739e-03
1.285827e-03
1.112549e-03
1.014516e-03
1.049021e-03
1.012989e-03
1.077468e-03
1.223444e-03
1.354626e-03
1.430570e-03
1.439377e-03
1.383948e-03
1.283189e-03
1.171933e-03
1.117109e-03
6.896105e-04
6.992003e-04
8.779129e-04
1.103153e-03
1.274094e-03
1.368878e-03
1.390770e-03
1.354202e-03
1.284082e-03
1.216613e-03
1.191011e-03
3.582414e-04
4.569790e-04
7.600738e-04
1.034703e-03
1.227116e-03
1.332833e-03
1.363323e-03
1.338349e-03
1.286902e-03
1.244980e-03
1.235340e-03
1.508724e-04
3.650823e-04
7.227323e-04
1.009796e-03
1.208863e-03
1.319226e-03
1.354424e-03
1.334484e-03
1.289580e-03
1.255387e-03
1.250081e-03
</DataArray>
<DataArray Name="stress" type="Float64" NumberOfComponents="9" format="ascii">
-7.872138e+04 1.868394e+03 0.000000e+00 1.868394e+03 -1.152063e+05 0.000000e+00 0.000000e+00 0.000000e+00 0.000000e+00
-7.358699e+04 2.023898e+03 0.000000e+00 2.023898e+03 -1.158376e+05 0.000000e+00 0.000000e+00 0.000000e+00 0.000000e+00
-7.112132e+04 2.433799e+03 0.000000e+00 2.433799e+03 -1.207522e+05 0.000000e+00 0.000000e+00 0.000000e+00 0.000000e+00
-7.115505e+04 2.982067e+03 0.000000e+00 2.982067e+03 -1.261922e+05 0.000000e+00 0.000000e+00 0.000000e+00 0.000000e+00
-7.214479e+04 3.654045e+03 0.000000e+00 3.654045e+03 -1.325584e+05 0.000000e+00 0.000000e+00 0.000000e+00 0.000000e+00
-7.434392e+04 4.151410e+03 0.000000e+00 4.151410e+03 -1.396438e+05 0.000000e+00 0.000000e+00 0.000000e+00 0.000000e+00
-7.797744e+04 4.332581e+03 0.000000e+00 4.332581e+03 -1.469074e+05 0.000000e+00 0.000000e+00 0.000000e+00 0.000000e+00
-8.291392e+04 3.900291e+03 0.000000e+00 3.900291e+03 -1.533247e+05 0.000000e+00 0.000000e+00 0.000000e+00 0.000000e+00
-8.958140e+04 2.293149e+03 0.000000e+00 2.293149e+03 -1.574930e+05 0.000000e+00 0.000000e+00 0.000000e+00 0.000000e+00
-9.835798e+04 -1.215053e+01 0.000000e+00 -1.215053e+01 -1.599308e+05 0.000000e+00 0.000000e+00 0.000000e+00 0.000000e+00
-1.022464e+05 -6.963257e+02 0.000000e+00 -6.963257e+02 -1.591308e+05 0.000000e+00 0.000000e+00 0.000000e+00 0.000000e+00
-7.832678e+04 5.498862e+03 0.000000e+00 5.498862e+03 -1.125212e+05 0.000000e+00 0.000000e+00 0.000000e+00 0.000000e+00
-7.356030e+04 5.514426e+03 0.000000e+00 5.514426e+03 -1.130253e+05 0.000000e+00 0.000000e+00 0.000000e+00 0.000000e+00
-7.134454e+04 5.858776e+03 0.000000e+00 5.858776e+03 -1.175910e+05 0.000000e+00 0.000000e+00 0.000000e+00 0.000000e+00
-7.162745e+04 6.616919e+03 0.000000e+00 6.616919e+03 -1.226399e+05 0.000000e+00 0.000000e+00 0.000000e+00 0.000000e+00
-7.286348e+04 7.566190e+03 0.000000e+00 7.566190e+03 -1.285537e+05 0.000000e+00 0.000000e+00 0.000000e+00 0.000000e+00
-7.502235e+04 8.298567e+03 0.000000e+00 8.298567e+03 -1.353364e+05 0.000000e+00 0.000000e+00 0.000000e+00 0.000000e+00
-7.838903e+04 8.635926e+03 0.000000e+00 8.635926e+03 -1.427798e+05 0.000000e+00 0.000000e+00 0.000000e+00 0.000000e+00
-8.259934e+04 7.983579e+03 0.000000e+00 7.983579e+03 -1.505391e+05 0.000000e+00 0.000000e+00 0.000000e+00 0.000000e+00
-8.823085e+04 5.599113e+03 0.000000e+00 5.599113e+03 -1.587056e+05 0.000000e+00 0.000000e+00 0.000000e+00 0.000000e+00
-9.520612e+04 1.312027e+03 0.000000e+00 1.312027e+03 -1.638138e+05 0.000000e+00 0.000000e+00 0.000000e+00 0.000000e+00
-1.053489e+05 -2.608436e+03 0.000000e+00 -2.608436e+03 -1.711273e+05 0.000000e+00 0.000000e+00 0.000000e+00 0.000000e+00
-7.731660e+04 9.821645e+03 0.000000e+00 9.821645e+03 -1.066113e+05 0.000000e+00 0.000000e+00 0.000000e+00 0.000000e+00
-7.361133e+04 9.849375e+03 0.000000e+00 9.849375e+03 -1.066463e+05 0.000000e+00 0.000000e+00 0.000000e+00 0.000000e+00
-7.202295e+04 1.047549e+04 0.000000e+00 1.047549e+04 -1.097598e+05 0.000000e+00 0.000000e+00 0.000000e+00 0.000000e+00
-7.262583e+04 1.188462e+04 0.000000e+00 1.188462e+04 -1.130816e+05 0.000000e+00 0.000000e+00 0.000000e+00 0.000000e+00
-7.427087e+04 1.378649e+04 0.000000e+00 1.378649e+04 -1.169828e+05 0.000000e+00 0.000000e+00 0.000000e+00 0.000000e+00
-7.705405e+04 1.586542e+04 0.000000e+00 1.586542e+04 -1.219482e+05 0.000000e+00 0.000000e+00 0.000000e+00 0.000000e+00
-8.124863e+04 1.773618e+04 0.000000e+00 1.773618e+04 -1.283556e+05 0.000000e+00 0.000000e+00 0.000000e+00 0.000000e+00
-8.613045e+04 1.880847e+04 0.000000e+00 1.880847e+04 -1.363837e+05 0.000000e+00 0.000000e+00 0.000000e+00 0.000000e+00
-9.270568e+04 1.919137e+04 0.000000e+00 1.919137e+04 -1.476255e+05 0.000000e+00 0.000000e+00 0.000000e+00 0.000000e+00
-1.027942e+05 1.606785e+04 0.000000e+00 1.606785e+04 -1.606573e+05 0.000000e+00 0.000000e+00 0.000000e+00 0.000000e+00
-1.226130e+05 1.463859e+04 0.000000e+00 1.463859e+04 -1.798746e+05 0.000000e+00 0.000000e+00 0.000000e+00 0.000000e+00
-7.577016e+04 1.224408e+04 0.000000e+00 1.224408e+04 -9.936662e+04 0.000000e+00 0.000000e+00 0.000000e+00 0.000000e+00
-7.352304e+04 1.218338e+04 0.000000e+00 1.218338e+04 -9.910073e+04 0.000000e+00 0.000000e+00 0.000000e+00 0.000000e+00
-7.293110e+04 1.267627e+04 0.000000e+00 1.267627e+04 -1.002116e+05 0.000000e+00 0.000000e+00 0.000000e+00 0.000000e+00
-7.383692e+04 1.398421e+04 0.000000e+00 1.398421e+04 -1.008794e+05 0.000000e+00 0.000000e+00 0.000000e+00 0.000000e+00
-7.520624e+04 1.576516e+04 0.000000e+00 1.576516e+04 -1.007848e+05 0.000000e+00 0.000000e+00 0.000000e+00 0.000000e+00
-7.664908e+04 1.772896e+04 0.000000e+00 1.772896e+04 -9.954348e+04 0.000000e+00 0.000000e+00 0.000000e+00 0.000000e+00
-7.823305e+04 1.930087e+04 0.000000e+00 1.930087e+04 -9.699298e+04 0.000000e+00 0.000000e+00 0.000000e+00 0.000000e+00
-7.961112e+04 1.986945e+04 0.000000e+00 1.986945e+04 -9.338942e+04 0.000000e+00 0.000000e+00 0.000000e+00 0.000000e+00
-8.072241e+04 2.012801e+04 0.000000e+00 2.012801e+04 -8.778166e+04 0.000000e+00 0.000000e+00 0.000000e+00 0.000000e+00
-7.940695e+04 1.660874e+04 0.000000e+00 1.660874e+04 -7.798593e+04 0.000000e+00 0.000000e+00 0.000000e+00 0.000000e+00
-7.606645e+04 1.465598e+04 0.000000e+00 1.465598e+04 -7.279581e+04 0.000000e+00 0.000000e+00 0.000000e+00 0.000000e+00
-7.379352e+04 1.304689e+04 0.000000e+00 1.304689e+04 -9.171135e+04 0.000000e+00 0.000000e+00 0.000000e+00 0.000000e+00
-7.316129e+04 1.287621e+04 0.000000e+00 1.287621e+04 -9.140949e+04 0.000000e+00 0.000000e+00 0.000000e+00 0.000000e+00
-7.378219e+04 1.292981e+04 0.000000e+00 1.292981e+04 -9.129630e+04 0.000000e+00 0.000000e+00 0.000000e+00 0.000000e+00
-7.539516e+04 1.361552e+04 0.000000e+00 1.361552e+04 -9.059641e+04 0.000000e+00 0.000000e+00 0.000000e+00 0.000000e+00
-7.731977e+04 1.446234e+04 0.000000e+00 1.446234e+04 -8.915016e+04 0.000000e+00 0.000000e+00 0.000000e+00 0.000000e+00
-7.916991e+04 1.523058e+04 0.000000e+00 1.523058e+04 -8.679574e+04 0.000000e+00 0.000000e+00 0.000000e+00 0.000000e+00
-8.078137e+04 1.569318e+04 0.000000e+00 1.569318e+04 -8.330063e+04 0.000000e+00 0.000000e+00 0.000000e+00 0.000000e+00
-8.226631e+04 1.536659e+04 0.000000e+00 1.536659e+04 -7.868682e+04 0.000000e+00 0.000000e+00 0.000000e+00 0.000000e+00
-8.286397e+04 1.330168e+04 0.000000e+00 1.330168e+04 -7.230362e+04 0.000000e+00 0.000000e+00 0.000000e+00 0.000000e+00
-7.912128e+04 7.322006e+03 0.000000e+00 7.322006e+03 -6.633744e+04 0.000000e+00 0.000000e+00 0.000000e+00 0.000000e+00
-6.415667e+04 2.082679e+03 0.000000e+00 2.082679e+03 -5.927566e+04 0.000000e+00 0.000000e+00 0.000000e+00 0.000000e+00
-7.151408e+04 1.278235e+04 0.000000e+00 1.278235e+04 -8.433967e+04 0.000000e+00 0.000000e+00 0.000000e+00 0.000000e+00
-7.239700e+04 1.253227e+04 0.000000e+00 1.253227e+04 -8.409552e+04 0.000000e+00 0.000000e+00 0.000000e+00 0.000000e+00
-7.405976e+04 1.210452e+04 0.000000e+00 1.210452e+04 -8.326985e+04 0.000000e+00 0.000000e+00 0.000000e+00 0.000000e+00
-7.603880e+04 1.213498e+04 0.000000e+00 1.213498e+04 -8.194273e+04 0.000000e+00 0.000000e+00 0.000000e+00 0.000000e+00
-7.795220e+04 1.217177e+04 0.000000e+00 1.217177e+04 -8.001842e+04 0.000000e+00 0.000000e+00 0.000000e+00 0.000000e+00
-7.954341e+04 1.196944e+04 0.000000e+00 1.196944e+04 -7.740616e+04 0.000000e+00 0.000000e+00 0.000000e+00 0.000000e+00
-8.059785e+04 1.130335e+04 0.000000e+00 1.130335e+04 -7.401776e+04 0.000000e+00 0.000000e+00 0.000000e+00 0.000000e+00
-8.087638e+04 9.753127e+03 0.000000e+00 9.753127e+03 -6.988830e+04 0.000000e+00 0.000000e+00 0.000000e+00 0.000000e+00
-7.924534e+04 6.623758e+03 0.000000e+00 6.623758e+03 -6.552704e+04 0.000000e+00 0.000000e+00 0.000000e+00 0.000000e+00
-7.101814e+04 2.169855e+03 0.000000e+00 2.169855e+03 -6.213779e+04 0.000000e+00 0.000000e+00 0.000000e+00 0.000000e+00
-5.896762e+04 2.191655e+00 0.000000e+00 2.191655e+00 -5.910304e+04 0.000000e+00 0.000000e+00 0.000000e+00 0.000000e+00
-6.929770e+04 1.192115e+04 0.000000e+00 1.192115e+04 -7.812032e+04 0.000000e+00 0.000000e+00 0.000000e+00 0.000000e+00
-7.135317e+04 1.160451e+04 0.000000e+00 1.160451e+04 -7.796073e+04 0.000000e+00 0.000000e+00 0.000000e+00 0.000000e+00
-7.376420e+04 1.080502e+04 0.000000e+00 1.080502e+04 -7.679376e+04 0.000000e+00 0.000000e+00 0.000000e+00 0.000000e+00
-7.588334e+04 1.028481e+04 0.000000e+00 1.028481e+04 -7.529603e+04 0.000000e+00 0.000000e+00 0.000000e+00 0.000000e+00
-7.761566e+04 9.681093e+03 0.000000e+00 9.681093e+03 -7.335702e+04 0.000000e+00 0.000000e+00 0.000000e+00 0.000000e+00
-7.882031e+04 8.812755e+03 0.000000e+00 8.812755e+03 -7.095817e+04 0.000000e+00 0.000000e+00 0.000000e+00 0.000000e+00
-7.924856e+04 7.473752e+03 0.000000e+00 7.473752e+03 -6.816910e+04 0.000000e+00 0.000000e+00 0.000000e+00 0.000000e+00
-7.842000e+04 5.455248e+03 0.000000e+00 5.455248e+03 -6.519195e+04 0.000000e+00 0.000000e+00 0.000000e+00 0.000000e+00
-7.514319e+04 2.686562e+03 0.000000e+00 2.686562e+03 -6.247514e+04 0.000000e+00 0.000000e+00 0.000000e+00 0.000000e+00
-6.745200e+04 1.946060e+02 0.000000e+00 1.946060e+02 -6.070284e+04 0.000000e+00 0.000000e+00 0.000000e+00 0.000000e+00
-5.935345e+04 -7.139739e+02 0.000000e+00 -7.139739e+02 -5.915606e+04 0.000000e+00 0.000000e+00 0.000000e+00 0.000000e+00
-6.738052e+04 1.077336e+04 0.000000e+00 1.077336e+04 -7.324373e+04 0.000000e+00 0.000000e+00 0.000000e+00 0.000000e+00
-7.015191e+04 1.039906e+04 0.000000e+00 1.039906e+04 -7.312961e+04 0.000000e+00 0.000000e+00 0.000000e+00 0.000000e+00
-7.297933e+04 9.356492e+03 0.000000e+00 9.356492e+03 -7.184448e+04 0.000000e+00 0.000000e+00 0.000000e+00 0.000000e+00
-7.509656e+04 8.430410e+03 0.000000e+00 8.430410e+03 -7.037134e+04 0.000000e+00 0.000000e+00 0.000000e+00 0.000000e+00
-7.665020e+04 7.414644e+03 0.000000e+00 7.414644e+03 -6.865449e+04 0.000000e+00 0.000000e+00 0.000000e+00 0.000000e+00
-7.749394e+04 6.181928e+03 0.000000e+00 6.181928e+03 -6.671727e+04 0.000000e+00 0.000000e+00 0.000000e+00 0.000000e+00
-7.736403e+04 4.601840e+03 0.000000e+00 4.601840e+03 -6.464463e+04 0.000000e+00 0.000000e+00 0.000000e+00 0.000000e+00
-7.587802e+04 2.653591e+03 0.000000e+00 2.653591e+03 -6.264507e+04 0.000000e+00 0.000000e+00 0.000000e+00 0.000000e+00
-7.233105e+04 6.168409e+02 0.000000e+00 6.168409e+02 -6.107899e+04 0.000000e+00 0.000000e+00 0.000000e+00 0.000000e+00
-6.615189e+04 -6.002280e+02 0.000000e+00 -6.002280e+02 -6.023873e+04 0.000000e+00 0.000000e+00 0.000000e+00 0.000000e+00
-6.064261e+04 -7.823948e+02 0.000000e+00 -7.823948e+02 -5.942913e+04 0.000000e+00 0.000000e+00 0.000000e+00 0.000000e+00
-6.585862e+04 9.525156e+03 0.000000e+00 9.525156e+03 -6.960250e+04 0.000000e+00 0.000000e+00 0.000000e+00 0.000000e+00
-6.884533e+04 9.078229e+03 0.000000e+00 9.078229e+03 -6.946739e+04 0.000000e+00 0.000000e+00 0.000000e+00 0.000000e+00
-7.184302e+04 7.898514e+03 0.000000e+00 7.898514e+03 -6.818869e+04 0.000000e+00 0.000000e+00 0.000000e+00 0.000000e+00
-7.396466e+04 6.767670e+03 0.000000e+00 6.767670e+03 -6.686192e+04 0.000000e+00 0.000000e+00 0.000000e+00 0.000000e+00
-7.534451e+04 5.566497e+03 0.000000e+00 5.566497e+03 -6.544412e+04 0.000000e+00 0.000000e+00 0.000000e+00 0.000000e+00
-7.589368e+04 4.180560e+03 0.000000e+00 4.180560e+03 -6.395886e+04 0.000000e+00 0.000000e+00 0.000000e+00 0.000000e+00
-7.544909e+04 2.607397e+03 0.000000e+00 2.607397e+03 -6.250273e+04 0.000000e+00 0.000000e+00 0.000000e+00 0.000000e+00
-7.379350e+04 9.708015e+02 0.000000e+00 9.708015e+02 -6.124769e+04 0.000000e+00 0.000000e+00 0.000000e+00 0.000000e+00
-7.063247e+04 -3.989035e+02 0.000000e+00 -3.989035e+02 -6.041091e+04 0.000000e+00 0.000000e+00 0.000000e+00 0.000000e+00
-6.598219e+04 -8.722797e+02 0.000000e+00 -8.722797e+02 -6.004421e+04 0.000000e+00 0.000000e+00 0.000000e+00 0.000000e+00
-6.218363e+04 -7.644029e+02 0.000000e+00 -7.644029e+02 -5.958736e+04 0.000000e+00 0.000000e+00 0.000000e+00 0.000000e+00
-6.460773e+04 8.134542e+03 0.000000e+00 8.134542e+03 -6.695952e+04 0.000000e+00 0.000000e+00 0.000000e+00 0.000000e+00
-6.754512e+04 7.707569e+03 0.000000e+00 7.707569e+03 -6.678052e+04 0.000000e+00 0.000000e+00 0.000000e+00 0.000000e+00
-7.058405e+04 6.554916e+03 0.000000e+00 6.554916e+03 -6.557423e+04 0.000000e+00 0.000000e+00 0.000000e+00 0.000000e+00
-7.266099e+04 5.363112e+03 0.000000e+00 5.363112e+03 -6.442745e+04 0.000000e+00 0.000000e+00 0.000000e+00 0.000000e+00
-7.389355e+04 4.095313e+03 0.000000e+00 4.095313e+03 -6.327715e+04 0.000000e+00 0.000000e+00 0.000000e+00 0.000000e+00
-7.427514e+04 2.724125e+03 0.000000e+00 2.724125e+03 -6.217308e+04 0.000000e+00 0.000000e+00 0.000000e+00 0.000000e+00
-7.374880e+04 1.319901e+03 0.000000e+00 1.319901e+03 -6.119826e+04 0.000000e+00 0.000000e+00 0.000000e+00 0.000000e+00
-7.223427e+04 3.558738e+01 0.000000e+00 3.558738e+01 -6.047204e+04 0.000000e+00 0.000000e+00 0.000000e+00 0.000000e+00
-6.969313e+04 -8.419958e+02 0.000000e+00 -8.419958e+02 -6.006718e+04 0.000000e+00 0.000000e+00 0.000000e+00 0.000000e+00
-6.630566e+04 -9.225079e+02 0.000000e+00 -9.225079e+02 -5.994979e+04 0.000000e+00 0.000000e+00 0.000000e+00 0.000000e+00
-6.370082e+04 -6.898914e+02 0.000000e+00 -6.898914e+02 -5.968945e+04 0.000000e+00 0.000000e+00 0.000000e+00 0.000000e+00
-6.365839e+04 6.747446e+03 0.000000e+00 6.747446e+03 -6.507712e+04 0.000000e+00 0.000000e+00 0.000000e+00 0.000000e+00
-6.640095e+04 6.378172e+03 0.000000e+00 6.378172e+03 -6.487861e+04 0.000000e+00 0.000000e+00 0.000000e+00 0.000000e+00
-6.933299e+04 5.335000e+03 0.000000e+00 5.335000e+03 -6.376361e+04 0.000000e+00 0.000000e+00 0.000000e+00 0.000000e+00
-7.131218e+04 4.182641e+03 0.000000e+00 4.182641e+03 -6.275278e+04 0.000000e+00 0.000000e+00 0.000000e+00 0.000000e+00
-7.245881e+04 2.955870e+03 0.000000e+00 2.955870e+03 -6.183372e+04 0.000000e+00 0.000000e+00 0.000000e+00 0.000000e+00
-7.279648e+04 1.716888e+03 0.000000e+00 1.716888e+03 -6.103593e+04 0.000000e+00 0.000000e+00 0.000000e+00 0.000000e+00
-7.234629e+04 5.414769e+02 0.000000e+00 5.414769e+02 -6.041792e+04 0.000000e+00 0.000000e+00 0.000000e+00 0.000000e+00
-7.112620e+04 -4.285506e+02 0.000000e+00 -4.285506e+02 -6.003484e+04 0.000000e+00 0.000000e+00 0.000000e+00 0.000000e+00
-6.921357e+04 -9.779266e+02 0.000000e+00 -9.779266e+02 -5.988699e+04 0.000000e+00 0.000000e+00 0.000000e+00 0.000000e+00
-6.682520e+04 -8.643112e+02 0.000000e+00 -8.643112e+02 -5.990404e+04 0.000000e+00 0.000000e+00 0.000000e+00 0.000000e+00
-6.507953e+04 -5.904075e+02 0.000000e+00 -5.904075e+02 -5.976507e+04 0.000000e+00 0.000000e+00 0.000000e+00 0.000000e+00
-6.296538e+04 5.434669e+03 0.000000e+00 5.434669e+03 -6.378064e+04 0.000000e+00 0.000000e+00 0.000000e+00 0.000000e+00
-6.543284e+04 5.108735e+03 0.000000e+00 5.108735e+03 -6.356210e+04 0.000000e+00 0.000000e+00 0.000000e+00 0.000000e+00
-6.815380e+04 4.200957e+03 0.000000e+00 4.200957e+03 -6.252269e+04 0.000000e+00 0.000000e+00 0.000000e+00 0.000000e+00
-7.004423e+04 3.181145e+03 0.000000e+00 3.181145e+03 -6.163117e+04 0.000000e+00 0.000000e+00 0.000000e+00 0.000000e+00
-7.115735e+04 2.099172e+03 0.000000e+00 2.099172e+03 -6.089583e+04 0.000000e+00 0.000000e+00 0.000000e+00 0.000000e+00
-7.153571e+04 1.046513e+03 0.000000e+00 1.046513e+03 -6.033351e+04 0.000000e+00 0.000000e+00 0.000000e+00 0.000000e+00
-7.124384e+04 1.063472e+02 0.000000e+00 1.063472e+02 -5.996174e+04 0.000000e+00 0.000000e+00 0.000000e+00 0.000000e+00
-7.035499e+04 -6.059001e+02 0.000000e+00 -6.059001e+02 -5.979219e+04 0.000000e+00 0.000000e+00 0.000000e+00 0.000000e+00
-6.899688e+04 -9.442198e+02 0.000000e+00 -9.442198e+02 -5.979925e+04 0.000000e+00 0.000000e+00 0.000000e+00 0.000000e+00
-6.738606e+04 -7.529955e+02 0.000000e+00 -7.529955e+02 -5.988564e+04 0.000000e+00 0.000000e+00 0.000000e+00 0.000000e+00
-6.626552e+04 -4.834959e+02 0.000000e+00 -4.834959e+02 -5.983373e+04 0.000000e+00 0.000000e+00 0.000000e+00 0.000000e+00
-6.240715e+04 4.186964e+03 0.000000e+00 4.186964e+03 -6.290161e+04 0.000000e+00 0.000000e+00 0.000000e+00 0.000000e+00
-6.462589e+04 3.912511e+03 0.000000e+00 3.912511e+03 -6.265852e+04 0.000000e+00 0.000000e+00 0.000000e+00 0.000000e+00
-6.714984e+04 3.171907e+03 0.000000e+00 3.171907e+03 -6.169477e+04 0.000000e+00 0.000000e+00 0.000000e+00 0.000000e+00
-6.895748e+04 2.327319e+03 0.000000e+00 2.327319e+03 -6.090825e+04 0.000000e+00 0.000000e+00 0.000000e+00 0.000000e+00
-7.006520e+04 1.451387e+03 0.000000e+00 1.451387e+03 -6.029976e+04 0.000000e+00 0.000000e+00 0.000000e+00 0.000000e+00
-7.052090e+04 6.142316e+02 0.000000e+00 6.142316e+02 -5.990232e+04 0.000000e+00 0.000000e+00 0.000000e+00 0.000000e+00
-7.040678e+04 -1.033166e+02 0.000000e+00 -1.033166e+02 -5.969554e+04 0.000000e+00 0.000000e+00 0.000000e+00 0.000000e+00
-6.982709e+04 -6.129525e+02 0.000000e+00 -6.129525e+02 -5.965891e+04 0.000000e+00 0.000000e+00 0.000000e+00 0.000000e+00
-6.892385e+04 -8.166605e+02 0.000000e+00 -8.166605e+02 -5.975178e+04 0.000000e+00 0.000000e+00 0.000000e+00 0.000000e+00
-6.790356e+04 -6.147738e+02 0.000000e+00 -6.147738e+02 -5.987784e+04 0.000000e+00 0.000000e+00 0.000000e+00 0.000000e+00
-6.724160e+04 -3.812573e+02 0.000000e+00 -3.812573e+02 -5.988659e+04 0.000000e+00 0.000000e+00 0.000000e+00 0.000000e+00
-6.200341e+04 2.971357e+03 0.000000e+00 2.971357e+03 -6.228671e+04 0.000000e+00 0.000000e+00 0.000000e+00 0.000000e+00
-6.399520e+04 2.764857e+03 0.000000e+00 2.764857e+03 -6.202631e+04 0.000000e+00 0.000000e+00 0.000000e+00 0.000000e+00
-6.635687e+04 2.224021e+03 0.000000e+00 2.224021e+03 -6.113414e+04 0.000000e+00 0.000000e+00 0.000000e+00 0.000000e+00
-6.810027e+04 1.594058e+03 0.000000e+00 1.594058e+03 -6.043745e+04 0.000000e+00 0.000000e+00 0.000000e+00 0.000000e+00
-6.921740e+04 9.480293e+02 0.000000e+00 9.480293e+02 -5.993295e+04 0.000000e+00 0.000000e+00 0.000000e+00 0.000000e+00
-6.975496e+04 3.382852e+02 0.000000e+00 3.382852e+02 -5.964221e+04 0.000000e+00 0.000000e+00 0.000000e+00 0.000000e+00
-6.980093e+04 -1.714106e+02 0.000000e+00 -1.714106e+02 -5.953968e+04 0.000000e+00 0.000000e+00 0.000000e+00 0.000000e+00
-6.947363e+04 -5.196506e+02 0.000000e+00 -5.196506e+02 -5.958430e+04 0.000000e+00 0.000000e+00 0.000000e+00 0.000000e+00
-6.892134e+04 -6.377142e+02 0.000000e+00 -6.377142e+02 -5.972460e+04 0.000000e+00 0.000000e+00 0.000000e+00 0.000000e+00
-6.833138e+04 -4.630756e+02 0.000000e+00 -4.630756e+02 -5.987408e+04 0.000000e+00 0.000000e+00 0.000000e+00 0.000000e+00
-6.799743e+04 -2.820666e+02 0.000000e+00 -2.820666e+02 -5.992457e+04 0.000000e+00 0.000000e+00 0.000000e+00 0.000000e+00
-6.171005e+04 1.822069e+03 0.000000e+00 1.822069e+03 -6.179061e+04 0.000000e+00 0.000000e+00 0.000000e+00 0.000000e+00
-6.356090e+04 1.700400e+03 0.000000e+00 1.700400e+03 -6.154533e+04 0.000000e+00 0.000000e+00 0.000000e+00 0.000000e+00
-6.581662e+04 1.364698e+03 0.000000e+00 1.364698e+03 -6.073404e+04 0.000000e+00 0.000000e+00 0.000000e+00 0.000000e+00
-6.750340e+04 9.677326e+02 0.000000e+00 9.677326e+02 -6.012353e+04 0.000000e+00 0.000000e+00 0.000000e+00 0.000000e+00
-6.862638e+04 5.565521e+02 0.000000e+00 5.565521e+02 -5.970909e+04 0.000000e+00 0.000000e+00 0.000000e+00 0.000000e+00
-6.922976e+04 1.675349e+02 0.000000e+00 1.675349e+02 -5.949817e+04 0.000000e+00 0.000000e+00 0.000000e+00 0.000000e+00
-6.939652e+04 -1.552033e+02 0.000000e+00 -1.552033e+02 -5.945754e+04 0.000000e+00 0.000000e+00 0.000000e+00 0.000000e+00
-6.925117e+04 -3.695506e+02 0.000000e+00 -3.695506e+02 -5.955162e+04 0.000000e+00 0.000000e+00 0.000000e+00 0.000000e+00
-6.894417e+04 -4.321436e+02 0.000000e+00 -4.321436e+02 -5.971799e+04 0.000000e+00 0.000000e+00 0.000000e+00 0.000000e+00
-6.864568e+04 -3.076605e+02 0.000000e+00 -3.076605e+02 -5.987721e+04 0.000000e+00 0.000000e+00 0.000000e+00 0.000000e+00
-6.853034e+04 -1.850843e+02 0.000000e+00 -1.850843e+02 -5.995069e+04 0.000000e+00 0.000000e+00 0.000000e+00 0.000000e+00
-6.149436e+04 7.536482e+02 0.000000e+00 7.536482e+02 -6.130990e+04 0.000000e+00 0.000000e+00 0.000000e+00 0.000000e+00
-6.334071e+04 7.421823e+02 0.000000e+00 7.421823e+02 -6.111644e+04 0.000000e+00 0.000000e+00 0.000000e+00 0.000000e+00
-6.552382e+04 6.149008e+02 0.000000e+00 6.149008e+02 -6.041412e+04 0.000000e+00 0.000000e+00 0.000000e+00 0.000000e+00
-6.716005e+04 4.421523e+02 0.000000e+00 4.421523e+02 -5.991154e+04 0.000000e+00 0.000000e+00 0.000000e+00 0.000000e+00
-6.828522e+04 2.512751e+02 0.000000e+00 2.512751e+02 -5.957598e+04 0.000000e+00 0.000000e+00 0.000000e+00 0.000000e+00
-6.892675e+04 6.657876e+01 0.000000e+00 6.657876e+01 -5.942395e+04 0.000000e+00 0.000000e+00 0.000000e+00 0.000000e+00
-6.916464e+04 -8.881463e+01 0.000000e+00 -8.881463e+01 -5.942536e+04 0.000000e+00 0.000000e+00 0.000000e+00 0.000000e+00
-6.913070e+04 -1.903033e+02 0.000000e+00 -1.903033e+02 -5.954204e+04 0.000000e+00 0.000000e+00 0.000000e+00 0.000000e+00
-6.896730e+04 -2.165838e+02 0.000000e+00 -2.165838e+02 -5.971842e+04 0.000000e+00 0.000000e+00 0.000000e+00 0.000000e+00
-6.883535e+04 -1.535255e+02 0.000000e+00 -1.535255e+02 -5.988016e+04 0.000000e+00 0.000000e+00 0.000000e+00 0.000000e+00
-6.884325e+04 -9.284482e+01 0.000000e+00 -9.284482e+01 -5.996174e+04 0.000000e+00 0.000000e+00 0.000000e+00 0.000000e+00
-6.132112e+04 1.946576e+01 0.000000e+00 1.946576e+01 -6.080964e+04 0.000000e+00 0.000000e+00 0.000000e+00 0.000000e+00
-6.323654e+04 1.184315e+02 0.000000e+00 1.184315e+02 -6.076799e+04 0.000000e+00 0.000000e+00 0.000000e+00 0.000000e+00
-6.543123e+04 1.490370e+02 0.000000e+00 1.490370e+02 -6.025642e+04 0.000000e+00 0.000000e+00 0.000000e+00 0.000000e+00
-6.705093e+04 1.117782e+02 0.000000e+00 1.117782e+02 -5.983152e+04 0.000000e+00 0.000000e+00 0.000000e+00 0.000000e+00
-6.817670e+04 5.745440e+01 0.000000e+00 5.745440e+01 -5.953564e+04 0.000000e+00 0.000000e+00 0.000000e+00 0.000000e+00
-6.883003e+04 7.077758e-01 0.000000e+00 7.077758e-01 -5.940473e+04 0.000000e+00 0.000000e+00 0.000000e+00 0.000000e+00
-6.908952e+04 -5.208615e+01 0.000000e+00 -5.208615e+01 -5.942003e+04 0.000000e+00 0.000000e+00 0.000000e+00 0.000000e+00
-6.909296e+04 -8.697301e+01 0.000000e+00 -8.697301e+01 -5.953909e+04 0.000000e+00 0.000000e+00 0.000000e+00 0.000000e+00
-6.897542e+04 -9.654159e+01 0.000000e+00 -9.654159e+01 -5.971710e+04 0.000000e+00 0.000000e+00 0.000000e+00 0.000000e+00
-6.889738e+04 -7.542545e+01 0.000000e+00 -7.542545e+01 -5.987906e+04 0.000000e+00 0.000000e+00 0.000000e+00 0.000000e+00
-6.894484e+04 -5.407093e+01 0.000000e+00 -5.407093e+01 -5.996361e+04 0.000000e+00 0.000000e+00 0.000000e+00 0.000000e+00
</DataArray>
<DataArray Name="vol_eps" type="Float64" NumberOfComponents="1" format="ascii">
-4.774106e-03
-4.445018e-03
-4.447853e-03
-4.587955e-03
-4.872325e-03
-5.365593e-03
-6.078593e-03
-6.950336e-03
-7.940473e-03
-8.887123e-03
-9.108085e-03
-4.584396e-03
-4.271156e-03
-4.285889e-03
-4.448569e-03
-4.738427e-03
-5.179050e-03
-5.823527e-03
-6.648202e-03
-7.711153e-03
-8.710030e-03
-1.002728e-02
-4.147236e-03
-3.880008e-03
-3.894630e-03
-4.037022e-03
-4.264764e-03
-4.593814e-03
-5.054214e-03
-5.574652e-03
-6.296734e-03
-7.584879e-03
-9.972044e-03
-3.574006e-03
-3.393430e-03
-3.396727e-03
-3.457052e-03
-3.464917e-03
-3.343978e-03
-3.050976e-03
-2.571194e-03
-1.788934e-03
-5.394540e-04
4.611676e-04
-2.928152e-03
-2.865402e-03
-2.899976e-03
-2.958074e-03
-2.982482e-03
-2.935335e-03
-2.794769e-03
-2.579076e-03
-2.200991e-03
-1.606947e-03
-1.861183e-04
-2.285064e-03
-2.336978e-03
-2.403412e-03
-2.449733e-03
-2.449350e-03
-2.381104e-03
-2.228627e-03
-1.979219e-03
-1.587846e-03
-8.345021e-04
1.465887e-04
-1.727388e-03
-1.866770e-03
-1.961068e-03
-2.004181e-03
-1.992223e-03
-1.915568e-03
-1.761948e-03
-1.510676e-03
-1.119947e-03
-5.163053e-04
1.026056e-04
-1.283603e-03
-1.472707e-03
-1.585567e-03
-1.632701e-03
-1.624182e-03
-1.552576e-03
-1.406426e-03
-1.177395e-03
-8.487505e-04
-4.054973e-04
-3.438233e-06
-9.499132e-04
-1.151579e-03
-1.276033e-03
-1.331759e-03
-1.328557e-03
-1.265546e-03
-1.140254e-03
-9.521501e-04
-6.979965e-04
-3.825425e-04
-1.134554e-04
-7.051965e-04
-8.971288e-04
-1.026101e-03
-1.087645e-03
-1.091639e-03
-1.043080e-03
-9.453539e-04
-8.024375e-04
-6.162501e-04
-3.965093e-04
-2.162959e-04
-5.311334e-04
-7.057969e-04
-8.291536e-04
-8.912018e-04
-9.046308e-04
-8.739139e-04
-8.050733e-04
-7.037664e-04
-5.739859e-04
-4.256359e-04
-3.075497e-04
-4.127533e-04
-5.649297e-04
-6.761793e-04
-7.382216e-04
-7.609971e-04
-7.478294e-04
-7.055668e-04
-6.393058e-04
-5.542788e-04
-4.592084e-04
-3.859452e-04
-3.302801e-04
-4.606858e-04
-5.608452e-04
-6.235604e-04
-6.535180e-04
-6.560769e-04
-6.358724e-04
-5.975473e-04
-5.466536e-04
-4.909865e-04
-4.500565e-04
-2.726155e-04
-3.855734e-04
-4.765042e-04
-5.394327e-04
-5.760765e-04
-5.912122e-04
-5.880352e-04
-5.706378e-04
-5.447998e-04
-5.174777e-04
-4.996470e-04
-2.270544e-04
-3.306127e-04
-4.186780e-04
-4.818541e-04
-5.242986e-04
-5.486811e-04
-5.569907e-04
-5.543018e-04
-5.457037e-04
-5.372013e-04
-5.345341e-04
-1.847180e-04
-2.904002e-04
-3.805914e-04
-4.467607e-04
-4.944638e-04
-5.247510e-04
-5.398752e-04
-5.457003e-04
-5.470911e-04
-5.491833e-04
-5.547835e-04
-1.417793e-04
-2.616497e-04
-3.647654e-04
-4.350335e-04
-4.854861e-04
-5.175002e-04
-5.346606e-04
-5.429498e-04
-5.474286e-04
-5.530061e-04
-5.612835e-04
</DataArray>
</PointData>
</Piece>
</UnstructuredGrid>
</VTKFile>
