<?xml version="1.0"?>
<VTKFile type="UnstructuredGrid" version="0.1">
<UnstructuredGrid>
<FieldData>
<DataArray Name="TIME" type="Float64" format="ascii" NumberOfTuples="1">
0.000000e+00
</DataArray>
</FieldData>
<FieldData>
<DataArray Name="CYCLE" type="Int32" format="ascii" NumberOfTuples="1">
0
</DataArray>
</FieldData>
<Piece NumberOfPoints="187" NumberOfCells="160">
<Points>
<DataArray NumberOfComponents="3" type="Float64" format="ascii">
0.000000e+00 0.000000e+00 0.000000e+00
0.000000e+00 1.996929e-01 0.000000e+00
0.000000e+00 3.993531e-01 0.000000e+00
0.000000e+00 5.989778e-01 0.000000e+00
0.000000e+00 7.985645e-01 0.000000e+00
0.000000e+00 9.981073e-01 0.000000e+00
0.000000e+00 1.197603e+00 0.000000e+00
0.000000e+00 1.397056e+00 0.000000e+00
0.000000e+00 1.596495e+00 0.000000e+00
0.000000e+00 1.795981e+00 0.000000e+00
0.000000e+00 1.995500e+00 0.000000e+00
2.250000e-01 0.000000e+00 0.000000e+00
2.250678e-01 1.997141e-01 0.000000e+00
2.251170e-01 3.993899e-01 0.000000e+00
2.251571e-01 5.990310e-01 0.000000e+00
2.251908e-01 7.986358e-01 0.000000e+00
2.252181e-01 9.982010e-01 0.000000e+00
2.252346e-01 1.197721e+00 0.000000e+00
2.252267e-01 1.397192e+00 0.000000e+00
2.251686e-01 1.596620e+00 0.000000e+00
2.250400e-01 1.796029e+00 0.000000e+00
2.250000e-01 1.995500e+00 0.000000e+00
4.500000e-01 0.000000e+00 0.000000e+00
4.501230e-01 1.997391e-01 0.000000e+00
4.502158e-01 3.994491e-01 0.000000e+00
4.502899e-01 5.991323e-01 0.000000e+00
4.503513e-01 7.987893e-01 0.000000e+00
4.504003e-01 9.984186e-01 0.000000e+00
4.504324e-01 1.198017e+00 0.000000e+00
4.504339e-01 1.397573e+00 0.000000e+00
4.503809e-01 1.597059e+00 0.000000e+00
4.502331e-01 1.796397e+00 0.000000e+00
4.500000e-01 1.995500e+00 0.000000e+00
6.750000e-01 0.000000e+00 0.000000e+00
6.751633e-01 1.997735e-01 0.000000e+00
6.752864e-01 3.995289e-01 0.000000e+00
6.753823e-01 5.992696e-01 0.000000e+00
6.754583e-01 7.989990e-01 0.000000e+00
6.755161e-01 9.987204e-01 0.000000e+00
6.755505e-01 1.198438e+00 0.000000e+00
6.755509e-01 1.398161e+00 0.000000e+00
6.754900e-01 1.597908e+00 0.000000e+00
6.753427e-01 1.797739e+00 0.000000e+00
6.746582e-01 1.997859e+00 0.000000e+00
9.000000e-01 0.000000e+00 0.000000e+00
9.001865e-01 1.998135e-01 0.000000e+00
9.003256e-01 3.996200e-01 0.000000e+00
9.004307e-01 5.994229e-01 0.000000e+00
9.005087e-01 7.992268e-01 0.000000e+00
9.005601e-01 9.990386e-01 0.000000e+00
9.005789e-01 1.198868e+00 0.000000e+00
9.005494e-01 1.398729e+00 0.000000e+00
9.004462e-01 1.598642e+00 0.000000e+00
9.001741e-01 1.798636e+00 0.000000e+00
8.996846e-01 1.998607e+00 0.000000e+00
1.125000e+00 0.000000e+00 0.000000e+00
1.125193e+00 1.998535e-01 0.000000e+00
1.125336e+00 3.997088e-01 0.000000e+00
1.125440e+00 5.995686e-01 0.000000e+00
1.125511e+00 7.994372e-01 0.000000e+00
1.125549e+00 9.993210e-01 0.000000e+00
1.125547e+00 1.199228e+00 0.000000e+00
1.125491e+00 1.399166e+00 0.000000e+00
1.125355e+00 1.599142e+00 0.000000e+00
1.125112e+00 1.799139e+00 0.000000e+00
1.124785e+00 1.999130e+00 0.000000e+00
1.350000e+00 0.000000e+00 0.000000e+00
1.350186e+00 1.998899e-01 0.000000e+00
1.350323e+00 3.997872e-01 0.000000e+00
1.350420e+00 5.996931e-01 0.000000e+00
1.350482e+00 7.996107e-01 0.000000e+00
1.350506e+00 9.995447e-01 0.000000e+00
1.350488e+00 1.199499e+00 0.000000e+00
1.350419e+00 1.399476e+00 0.000000e+00
1.350289e+00 1.599472e+00 0.000000e+00
1.350096e+00 1.799474e+00 0.000000e+00
1.349875e+00 1.999460e+00 0.000000e+00
1.575000e+00 0.000000e+00 0.000000e+00
1.575170e+00 1.999199e-01 0.000000e+00
1.575296e+00 3.998507e-01 0.000000e+00
1.575383e+00 5.997921e-01 0.000000e+00
1.575434e+00 7.997456e-01 0.000000e+00
1.575447e+00 9.997128e-01 0.000000e+00
1.575422e+00 1.199695e+00 0.000000e+00
1.575354e+00 1.399691e+00 0.000000e+00
1.575243e+00 1.599694e+00 0.000000e+00
1.575099e+00 1.799695e+00 0.000000e+00
1.574951e+00 1.999684e+00 0.000000e+00
1.800000e+00 0.000000e+00 0.000000e+00
1.800150e+00 1.999439e-01 0.000000e+00
1.800261e+00 3.999001e-01 0.000000e+00
1.800336e+00 5.998670e-01 0.000000e+00
1.800377e+00 7.998444e-01 0.000000e+00
1.800385e+00 9.998325e-01 0.000000e+00
1.800359e+00 1.199830e+00 0.000000e+00
1.800299e+00 1.399835e+00 0.000000e+00
1.800210e+00 1.599843e+00 0.000000e+00
1.800105e+00 1.799844e+00 0.000000e+00
1.800009e+00 1.999836e+00 0.000000e+00
2.025000e+00 0.000000e+00 0.000000e+00
2.025128e+00 1.999622e-01 0.000000e+00
2.025223e+00 3.999363e-01 0.000000e+00
2.025287e+00 5.999203e-01 0.000000e+00
2.025320e+00 7.999135e-01 0.000000e+00
2.025324e+00 9.999145e-01 0.000000e+00
2.025300e+00 1.199921e+00 0.000000e+00
2.025251e+00 1.399932e+00 0.000000e+00
2.025184e+00 1.599940e+00 0.000000e+00
2.025110e+00 1.799943e+00 0.000000e+00
2.025051e+00 1.999938e+00 0.000000e+00
2.250000e+00 0.000000e+00 0.000000e+00
2.250106e+00 1.999753e-01 0.000000e+00
2.250185e+00 3.999618e-01 0.000000e+00
2.250238e+00 5.999573e-01 0.000000e+00
2.250265e+00 7.999606e-01 0.000000e+00
2.250268e+00 9.999694e-01 0.000000e+00
2.250248e+00 1.199982e+00 0.000000e+00
2.250210e+00 1.399994e+00 0.000000e+00
2.250160e+00 1.600004e+00 0.000000e+00
2.250109e+00 1.800008e+00 0.000000e+00
2.250075e+00 2.000007e+00 0.000000e+00
2.475000e+00 0.000000e+00 0.000000e+00
2.475085e+00 1.999850e-01 0.000000e+00
2.475150e+00 3.999799e-01 0.000000e+00
2.475192e+00 5.999829e-01 0.000000e+00
2.475214e+00 7.999924e-01 0.000000e+00
2.475216e+00 1.000006e+00 0.000000e+00
2.475200e+00 1.200021e+00 0.000000e+00
2.475172e+00 1.400035e+00 0.000000e+00
2.475136e+00 1.600046e+00 0.000000e+00
2.475103e+00 1.800051e+00 0.000000e+00
2.475085e+00 2.000053e+00 0.000000e+00
2.700000e+00 0.000000e+00 0.000000e+00
2.700067e+00 1.999921e-01 0.000000e+00
2.700117e+00 3.999926e-01 0.000000e+00
2.700150e+00 6.000010e-01 0.000000e+00
2.700166e+00 8.000147e-01 0.000000e+00
2.700168e+00 1.000031e+00 0.000000e+00
2.700156e+00 1.200048e+00 0.000000e+00
2.700136e+00 1.400063e+00 0.000000e+00
2.700112e+00 1.600075e+00 0.000000e+00
2.700091e+00 1.800081e+00 0.000000e+00
2.700083e+00 2.000085e+00 0.000000e+00
2.925000e+00 0.000000e+00 0.000000e+00
2.925050e+00 1.999975e-01 0.000000e+00
2.925087e+00 4.000029e-01 0.000000e+00
2.925111e+00 6.000152e-01 0.000000e+00
2.925122e+00 8.000321e-01 0.000000e+00
2.925123e+00 1.000051e+00 0.000000e+00
2.925115e+00 1.200069e+00 0.000000e+00
2.925101e+00 1.400085e+00 0.000000e+00
2.925086e+00 1.600097e+00 0.000000e+00
2.925074e+00 1.800105e+00 0.000000e+00
2.925071e+00 2.000110e+00 0.000000e+00
3.150000e+00 0.000000e+00 0.000000e+00
3.150035e+00 2.000025e-01 0.000000e+00
3.150059e+00 4.000123e-01 0.000000e+00
3.150074e+00 6.000288e-01 0.000000e+00
3.150081e+00 8.000487e-01 0.000000e+00
3.150081e+00 1.000069e+00 0.000000e+00
3.150076e+00 1.200089e+00 0.000000e+00
3.150067e+00 1.400105e+00 0.000000e+00
3.150058e+00 1.600117e+00 0.000000e+00
3.150052e+00 1.800126e+00 0.000000e+00
3.150052e+00 2.000134e+00 0.000000e+00
3.375000e+00 0.000000e+00 0.000000e+00
3.375020e+00 2.000082e-01 0.000000e+00
3.375030e+00 4.000251e-01 0.000000e+00
3.375037e+00 6.000459e-01 0.000000e+00
3.375040e+00 8.000683e-01 0.000000e+00
3.375040e+00 1.000091e+00 0.000000e+00
3.375038e+00 1.200111e+00 0.000000e+00
3.375034e+00 1.400128e+00 0.000000e+00
3.375030e+00 1.600140e+00 0.000000e+00
3.375027e+00 1.800150e+00 0.000000e+00
3.375027e+00 2.000158e+00 0.000000e+00
3.600000e+00 0.000000e+00 0.000000e+00
3.600000e+00 2.000248e-01 0.000000e+00
3.600000e+00 4.000474e-01 0.000000e+00
3.600000e+00 6.000705e-01 0.000000e+00
3.600000e+00 8.000942e-01 0.000000e+00
3.600000e+00 1.000117e+00 0.000000e+00
3.600000e+00 1.200137e+00 0.000000e+00
3.600000e+00 1.400154e+00 0.000000e+00
3.600000e+00 1.600167e+00 0.000000e+00
3.600000e+00 1.800177e+00 0.000000e+00
3.600000e+00 2.000185e+00 0.000000e+00
</DataArray>
</Points>
<Cells>
<DataArray Name="connectivity" type="Int32" format="ascii">
0 11 12 1
1 12 13 2
2 13 14 3
3 14 15 4
4 15 16 5
5 16 17 6
6 17 18 7
7 18 19 8
8 19 20 9
9 20 21 10
11 22 23 12
12 23 24 13
13 24 25 14
14 25 26 15
15 26 27 16
16 27 28 17
17 28 29 18
18 29 30 19
19 30 31 20
20 31 32 21
22 33 34 23
23 34 35 24
24 35 36 25
25 36 37 26
26 37 38 27
27 38 39 28
28 39 40 29
29 40 41 30
30 41 42 31
31 42 43 32
33 44 45 34
34 45 46 35
35 46 47 36
36 47 48 37
37 48 49 38
38 49 50 39
39 50 51 40
40 51 52 41
41 52 53 42
42 53 54 43
44 55 56 45
45 56 57 46
46 57 58 47
47 58 59 48
48 59 60 49
49 60 61 50
50 61 62 51
51 62 63 52
52 63 64 53
53 64 65 54
55 66 67 56
56 67 68 57
57 68 69 58
58 69 70 59
59 70 71 60
60 71 72 61
61 72 73 62
62 73 74 63
63 74 75 64
64 75 76 65
66 77 78 67
67 78 79 68
68 79 80 69
69 80 81 70
70 81 82 71
71 82 83 72
72 83 84 73
73 84 85 74
74 85 86 75
75 86 87 76
77 88 89 78
78 89 90 79
79 90 91 80
80 91 92 81
81 92 93 82
82 93 94 83
83 94 95 84
84 95 96 85
85 96 97 86
86 97 98 87
88 99 100 89
89 100 101 90
90 101 102 91
91 102 103 92
92 103 104 93
93 104 105 94
94 105 106 95
95 106 107 96
96 107 108 97
97 108 109 98
99 110 111 100
100 111 112 101
101 112 113 102
102 113 114 103
103 114 115 104
104 115 116 105
105 116 117 106
106 117 118 107
107 118 119 108
108 119 120 109
110 121 122 111
111 122 123 112
112 123 124 113
113 124 125 114
114 125 126 115
115 126 127 116
116 127 128 117
117 128 129 118
118 129 130 119
119 130 131 120
121 132 133 122
122 133 134 123
123 134 135 124
124 135 136 125
125 136 137 126
126 137 138 127
127 138 139 128
128 139 140 129
129 140 141 130
130 141 142 131
132 143 144 133
133 144 145 134
134 145 146 135
135 146 147 136
136 147 148 137
137 148 149 138
138 149 150 139
139 150 151 140
140 151 152 141
141 152 153 142
143 154 155 144
144 155 156 145
145 156 157 146
146 157 158 147
147 158 159 148
148 159 160 149
149 160 161 150
150 161 162 151
151 162 163 152
152 163 164 153
154 165 166 155
155 166 167 156
156 167 168 157
157 168 169 158
158 169 170 159
159 170 171 160
160 171 172 161
161 172 173 162
162 173 174 163
163 174 175 164
165 176 177 166
166 177 178 167
167 178 179 168
168 179 180 169
169 180 181 170
170 181 182 171
171 182 183 172
172 183 184 173
173 184 185 174
174 185 186 175
</DataArray>
<DataArray Name="offsets" type="Int32" format="ascii">
4
8
12
16
20
24
28
32
36
40
44
48
52
56
60
64
68
72
76
80
84
88
92
96
100
104
108
112
116
120
124
128
132
136
140
144
148
152
156
160
164
168
172
176
180
184
188
192
196
200
204
208
212
216
220
224
228
232
236
240
244
248
252
256
260
264
268
272
276
280
284
288
292
296
300
304
308
312
316
320
324
328
332
336
340
344
348
352
356
360
364
368
372
376
380
384
388
392
396
400
404
408
412
416
420
424
428
432
436
440
444
448
452
456
460
464
468
472
476
480
484
488
492
496
500
504
508
512
516
520
524
528
532
536
540
544
548
552
556
560
564
568
572
576
580
584
588
592
596
600
604
608
612
616
620
624
628
632
636
640
</DataArray>
<DataArray Name="types" type="UInt8" format="ascii">
9
9
9
9
9
9
9
9
9
9
9
9
9
9
9
9
9
9
9
9
9
9
9
9
9
9
9
9
9
9
9
9
9
9
9
9
9
9
9
9
9
9
9
9
9
9
9
9
9
9
9
9
9
9
9
9
9
9
9
9
9
9
9
9
9
9
9
9
9
9
9
9
9
9
9
9
9
9
9
9
9
9
9
9
9
9
9
9
9
9
9
9
9
9
9
9
9
9
9
9
9
9
9
9
9
9
9
9
9
9
9
9
9
9
9
9
9
9
9
9
9
9
9
9
9
9
9
9
9
9
9
9
9
9
9
9
9
9
9
9
9
9
9
9
9
9
9
9
9
9
9
9
9
9
9
9
9
9
9
9
</DataArray>
</Cells>
<PointData>
<DataArray Name="disp" type="Float64" NumberOfComponents="3" format="ascii">
0.000000e+00 0.000000e+00 0.000000e+00
0.000000e+00 -3.071135e-04 0.000000e+00
0.000000e+00 -6.469479e-04 0.000000e+00
0.000000e+00 -1.022220e-03 0.000000e+00
0.000000e+00 -1.435492e-03 0.000000e+00
0.000000e+00 -1.892730e-03 0.000000e+00
0.000000e+00 -2.397300e-03 0.000000e+00
0.000000e+00 -2.944129e-03 0.000000e+00
0.000000e+00 -3.504734e-03 0.000000e+00
0.000000e+00 -4.019329e-03 0.000000e+00
0.000000e+00 -4.500000e-03 0.000000e+00
0.000000e+00 0.000000e+00 0.000000e+00
6.778548e-05 -2.859410e-04 0.000000e+00
1.169642e-04 -6.100920e-04 0.000000e+00
1.571087e-04 -9.689878e-04 0.000000e+00
1.907528e-04 -1.364210e-03 0.000000e+00
2.181103e-04 -1.799065e-03 0.000000e+00
2.345940e-04 -2.279316e-03 0.000000e+00
2.267044e-04 -2.807674e-03 0.000000e+00
1.685664e-04 -3.380127e-03 0.000000e+00
4.004481e-05 -3.971215e-03 0.000000e+00
0.000000e+00 -4.500000e-03 0.000000e+00
0.000000e+00 0.000000e+00 0.000000e+00
1.229777e-04 -2.608724e-04 0.000000e+00
2.157641e-04 -5.508669e-04 0.000000e+00
2.899375e-04 -8.677030e-04 0.000000e+00
3.512554e-04 -1.210759e-03 0.000000e+00
4.003216e-04 -1.581408e-03 0.000000e+00
4.323859e-04 -1.983354e-03 0.000000e+00
4.338503e-04 -2.427383e-03 0.000000e+00
3.809015e-04 -2.941473e-03 0.000000e+00
2.330680e-04 -3.603225e-03 0.000000e+00
0.000000e+00 -4.500000e-03 0.000000e+00
0.000000e+00 0.000000e+00 0.000000e+00
1.633267e-04 -2.265446e-04 0.000000e+00
2.863804e-04 -4.710917e-04 0.000000e+00
3.823376e-04 -7.303626e-04 0.000000e+00
4.583256e-04 -1.000984e-03 0.000000e+00
5.160522e-04 -1.279615e-03 0.000000e+00
5.505182e-04 -1.561605e-03 0.000000e+00
5.508485e-04 -1.838796e-03 0.000000e+00
4.900278e-04 -2.091762e-03 0.000000e+00
3.427254e-04 -2.260583e-03 0.000000e+00
-3.417518e-04 -2.141282e-03 0.000000e+00
0.000000e+00 0.000000e+00 0.000000e+00
1.865282e-04 -1.865278e-04 0.000000e+00
3.255680e-04 -3.800329e-04 0.000000e+00
4.306962e-04 -5.771238e-04 0.000000e+00
5.086727e-04 -7.731856e-04 0.000000e+00
5.601207e-04 -9.614236e-04 0.000000e+00
5.788886e-04 -1.132267e-03 0.000000e+00
5.494374e-04 -1.271090e-03 0.000000e+00
4.461900e-04 -1.357721e-03 0.000000e+00
1.741524e-04 -1.363537e-03 0.000000e+00
-3.153927e-04 -1.393051e-03 0.000000e+00
0.000000e+00 0.000000e+00 0.000000e+00
1.932066e-04 -1.465537e-04 0.000000e+00
3.357583e-04 -2.911671e-04 0.000000e+00
4.400780e-04 -4.314074e-04 0.000000e+00
5.113319e-04 -5.627600e-04 0.000000e+00
5.492108e-04 -6.789703e-04 0.000000e+00
5.471134e-04 -7.723661e-04 0.000000e+00
4.911437e-04 -8.343661e-04 0.000000e+00
3.549434e-04 -8.580565e-04 0.000000e+00
1.123803e-04 -8.611370e-04 0.000000e+00
-2.151978e-04 -8.698070e-04 0.000000e+00
0.000000e+00 0.000000e+00 0.000000e+00
1.863106e-04 -1.100999e-04 0.000000e+00
3.233597e-04 -2.128253e-04 0.000000e+00
4.204931e-04 -3.069438e-04 0.000000e+00
4.815331e-04 -3.892384e-04 0.000000e+00
5.057175e-04 -4.553328e-04 0.000000e+00
4.881794e-04 -5.009744e-04 0.000000e+00
4.189977e-04 -5.237030e-04 0.000000e+00
2.886066e-04 -5.277648e-04 0.000000e+00
9.641168e-05 -5.264180e-04 0.000000e+00
-1.249946e-04 -5.403890e-04 0.000000e+00
0.000000e+00 0.000000e+00 0.000000e+00
1.703187e-04 -8.007739e-05 0.000000e+00
2.962583e-04 -1.493301e-04 0.000000e+00
3.832027e-04 -2.078722e-04 0.000000e+00
4.336067e-04 -2.544200e-04 0.000000e+00
4.473687e-04 -2.871632e-04 0.000000e+00
4.219948e-04 -3.048889e-04 0.000000e+00
3.540309e-04 -3.092687e-04 0.000000e+00
2.427358e-04 -3.057071e-04 0.000000e+00
9.872191e-05 -3.046933e-04 0.000000e+00
-4.923008e-05 -3.158582e-04 0.000000e+00
0.000000e+00 0.000000e+00 0.000000e+00
1.498986e-04 -5.607836e-05 0.000000e+00
2.610960e-04 -9.988737e-05 0.000000e+00
3.363792e-04 -1.329614e-04 0.000000e+00
3.775197e-04 -1.555647e-04 0.000000e+00
3.850012e-04 -1.674920e-04 0.000000e+00
3.585521e-04 -1.695801e-04 0.000000e+00
2.985704e-04 -1.645259e-04 0.000000e+00
2.100485e-04 -1.574989e-04 0.000000e+00
1.053905e-04 -1.556747e-04 0.000000e+00
9.038788e-06 -1.638195e-04 0.000000e+00
0.000000e+00 0.000000e+00 0.000000e+00
1.277027e-04 -3.778579e-05 0.000000e+00
2.228126e-04 -6.374627e-05 0.000000e+00
2.865724e-04 -7.964442e-05 0.000000e+00
3.201616e-04 -8.652190e-05 0.000000e+00
3.242887e-04 -8.554323e-05 0.000000e+00
3.003384e-04 -7.855969e-05 0.000000e+00
2.511840e-04 -6.850217e-05 0.000000e+00
1.836391e-04 -5.992348e-05 0.000000e+00
1.098637e-04 -5.690705e-05 0.000000e+00
5.057699e-05 -6.178166e-05 0.000000e+00
0.000000e+00 0.000000e+00 0.000000e+00
1.057577e-04 -2.467810e-05 0.000000e+00
1.849618e-04 -3.816329e-05 0.000000e+00
2.377498e-04 -4.268565e-05 0.000000e+00
2.650658e-04 -3.943690e-05 0.000000e+00
2.677034e-04 -3.062592e-05 0.000000e+00
2.477653e-04 -1.842921e-05 0.000000e+00
2.095156e-04 -5.709853e-06 0.000000e+00
1.597282e-04 4.051091e-06 0.000000e+00
1.095469e-04 8.338523e-06 0.000000e+00
7.451327e-05 6.768019e-06 0.000000e+00
0.000000e+00 0.000000e+00 0.000000e+00
8.534874e-05 -1.499990e-05 0.000000e+00
1.495304e-04 -2.009056e-05 0.000000e+00
1.919721e-04 -1.713622e-05 0.000000e+00
2.136790e-04 -7.612036e-06 0.000000e+00
2.155642e-04 5.967297e-06 0.000000e+00
2.001065e-04 2.113310e-05 0.000000e+00
1.715566e-04 3.529337e-05 0.000000e+00
1.361096e-04 4.568899e-05 0.000000e+00
1.033887e-04 5.143676e-05 0.000000e+00
8.454989e-05 5.257786e-05 0.000000e+00
0.000000e+00 0.000000e+00 0.000000e+00
6.709837e-05 -7.932708e-06 0.000000e+00
1.169504e-04 -7.356076e-06 0.000000e+00
1.497624e-04 9.593498e-07 0.000000e+00
1.663615e-04 1.471517e-05 0.000000e+00
1.677499e-04 3.127806e-05 0.000000e+00
1.563374e-04 4.823707e-05 0.000000e+00
1.358476e-04 6.335376e-05 0.000000e+00
1.118479e-04 7.447739e-05 0.000000e+00
9.131592e-05 8.137299e-05 0.000000e+00
8.289018e-05 8.487938e-05 0.000000e+00
0.000000e+00 0.000000e+00 0.000000e+00
5.048875e-05 -2.483673e-06 0.000000e+00
8.688572e-05 2.936967e-06 0.000000e+00
1.107143e-04 1.520858e-05 0.000000e+00
1.224792e-04 3.213082e-05 0.000000e+00
1.233680e-04 5.090568e-05 0.000000e+00
1.153198e-04 6.921481e-05 0.000000e+00
1.013377e-04 8.484855e-05 0.000000e+00
8.580760e-05 9.679405e-05 0.000000e+00
7.380555e-05 1.048129e-04 0.000000e+00
7.129334e-05 1.102800e-04 0.000000e+00
0.000000e+00 0.000000e+00 0.000000e+00
3.509913e-05 2.488504e-06 0.000000e+00
5.892226e-05 1.234818e-05 0.000000e+00
7.358756e-05 2.877315e-05 0.000000e+00
8.083186e-05 4.870930e-05 0.000000e+00
8.125280e-05 6.951357e-05 0.000000e+00
7.609025e-05 8.885612e-05 0.000000e+00
6.728497e-05 1.050667e-04 0.000000e+00
5.821568e-05 1.174895e-04 0.000000e+00
5.172613e-05 1.264858e-04 0.000000e+00
5.198712e-05 1.334983e-04 0.000000e+00
0.000000e+00 0.000000e+00 0.000000e+00
1.995336e-05 8.232381e-06 0.000000e+00
3.031903e-05 2.506333e-05 0.000000e+00
3.702555e-05 4.588559e-05 0.000000e+00
4.022022e-05 6.833686e-05 0.000000e+00
4.036408e-05 9.070639e-05 0.000000e+00
3.781322e-05 1.107919e-04 0.000000e+00
3.367894e-05 1.275355e-04 0.000000e+00
2.944647e-05 1.403234e-04 0.000000e+00
2.662178e-05 1.498253e-04 0.000000e+00
2.727992e-05 1.577737e-04 0.000000e+00
0.000000e+00 0.000000e+00 0.000000e+00
0.000000e+00 2.484992e-05 0.000000e+00
0.000000e+00 4.735117e-05 0.000000e+00
0.000000e+00 7.055509e-05 0.000000e+00
0.000000e+00 9.418855e-05 0.000000e+00
0.000000e+00 1.171433e-04 0.000000e+00
0.000000e+00 1.372748e-04 0.000000e+00
0.000000e+00 1.540226e-04 0.000000e+00
0.000000e+00 1.670650e-04 0.000000e+00
0.000000e+00 1.768892e-04 0.000000e+00
0.000000e+00 1.852346e-04 0.000000e+00
</DataArray>
<DataArray Name="shear" type="Float64" NumberOfComponents="1" format="ascii">
1.608038e-03
1.884415e-03
2.287768e-03
2.654303e-03
3.010131e-03
3.359574e-03
3.657807e-03
3.773273e-03
3.479100e-03
2.839606e-03
2.545189e-03
1.561072e-03
1.820908e-03
2.206164e-03
2.556073e-03
2.895621e-03
3.234548e-03
3.552134e-03
3.775626e-03
3.774107e-03
3.441739e-03
3.086258e-03
1.513250e-03
1.709277e-03
2.011092e-03
2.301271e-03
2.593091e-03
2.901059e-03
3.238541e-03
3.623846e-03
4.107620e-03
4.527139e-03
4.557624e-03
1.455214e-03
1.574879e-03
1.757303e-03
1.952906e-03
2.159805e-03
2.384366e-03
2.636701e-03
2.931189e-03
3.306131e-03
3.242979e-03
3.379555e-03
1.367362e-03
1.415190e-03
1.481594e-03
1.580536e-03
1.693084e-03
1.808463e-03
1.911748e-03
1.973763e-03
1.848556e-03
1.176563e-03
4.455107e-04
1.250877e-03
1.243287e-03
1.217451e-03
1.233555e-03
1.264024e-03
1.288558e-03
1.280338e-03
1.190454e-03
9.225612e-04
4.280940e-04
3.514277e-04
1.112701e-03
1.071955e-03
9.894798e-04
9.488892e-04
9.232396e-04
8.917365e-04
8.291100e-04
7.006135e-04
4.661176e-04
1.879057e-04
3.147582e-04
9.653582e-04
9.108953e-04
8.047777e-04
7.345909e-04
6.803885e-04
6.247436e-04
5.478528e-04
4.275019e-04
2.449550e-04
1.017810e-04
2.713485e-04
8.196537e-04
7.639082e-04
6.568592e-04
5.795609e-04
5.186003e-04
4.606293e-04
3.909228e-04
2.945790e-04
1.542328e-04
6.190719e-05
2.074678e-04
6.812301e-04
6.305690e-04
5.370103e-04
4.698492e-04
4.188961e-04
3.723839e-04
3.188028e-04
2.440637e-04
1.348477e-04
2.986500e-05
1.413825e-04
5.551459e-04
5.134467e-04
4.410910e-04
3.936163e-04
3.605502e-04
3.289306e-04
2.888171e-04
2.282900e-04
1.385557e-04
3.131624e-05
8.660545e-05
4.436258e-04
4.123458e-04
3.633570e-04
3.393447e-04
3.254208e-04
3.067574e-04
2.748048e-04
2.221353e-04
1.462063e-04
6.568033e-05
7.110652e-05
3.464703e-04
3.252652e-04
3.021083e-04
3.027553e-04
3.047515e-04
2.944646e-04
2.668178e-04
2.195395e-04
1.565593e-04
1.028752e-04
9.856246e-05
2.614083e-04
2.525007e-04
2.582268e-04
2.822736e-04
2.959405e-04
2.897172e-04
2.632694e-04
2.206939e-04
1.710477e-04
1.380998e-04
1.362779e-04
1.870745e-04
1.974052e-04
2.381110e-04
2.796593e-04
2.983269e-04
2.922256e-04
2.655425e-04
2.267365e-04
1.880651e-04
1.685410e-04
1.695935e-04
1.357439e-04
1.855139e-04
2.509142e-04
2.921714e-04
3.082065e-04
3.008189e-04
2.746598e-04
2.395169e-04
2.074444e-04
1.925664e-04
1.935395e-04
1.387601e-04
2.029387e-04
2.639962e-04
2.998547e-04
3.141916e-04
3.069860e-04
2.822619e-04
2.498527e-04
2.198759e-04
2.037533e-04
2.026083e-04
</DataArray>
<DataArray Name="stress" type="Float64" NumberOfComponents="9" format="ascii">
-6.502414e+04 9.801152e+01 0.000000e+00 9.801152e+01 -7.661695e+04 0.000000e+00 0.000000e+00 0.000000e+00 0.000000e+00
-6.342065e+04 2.295699e+02 0.000000e+00 2.295699e+02 -7.669662e+04 0.000000e+00 0.000000e+00 0.000000e+00 0.000000e+00
-6.188948e+04 3.834539e+02 0.000000e+00 3.834539e+02 -7.748587e+04 0.000000e+00 0.000000e+00 0.000000e+00 0.000000e+00
-6.096064e+04 5.675212e+02 0.000000e+00 5.675212e+02 -7.850066e+04 0.000000e+00 0.000000e+00 0.000000e+00 0.000000e+00
-6.047292e+04 7.866241e+02 0.000000e+00 7.866241e+02 -7.984161e+04 0.000000e+00 0.000000e+00 0.000000e+00 0.000000e+00
-6.044457e+04 1.030319e+03 0.000000e+00 1.030319e+03 -8.154754e+04 0.000000e+00 0.000000e+00 0.000000e+00 0.000000e+00
-6.095245e+04 1.252538e+03 0.000000e+00 1.252538e+03 -8.360402e+04 0.000000e+00 0.000000e+00 0.000000e+00 0.000000e+00
-6.226746e+04 1.271997e+03 0.000000e+00 1.271997e+03 -8.574191e+04 0.000000e+00 0.000000e+00 0.000000e+00 0.000000e+00
-6.480741e+04 7.647955e+02 0.000000e+00 7.647955e+02 -8.727453e+04 0.000000e+00 0.000000e+00 0.000000e+00 0.000000e+00
-6.843245e+04 1.173530e+00 0.000000e+00 1.173530e+00 -8.791704e+04 0.000000e+00 0.000000e+00 0.000000e+00 0.000000e+00
-6.981088e+04 -2.818957e+02 0.000000e+00 -2.818957e+02 -8.770709e+04 0.000000e+00 0.000000e+00 0.000000e+00 0.000000e+00
-6.482621e+04 8.151507e+02 0.000000e+00 8.151507e+02 -7.583374e+04 0.000000e+00 0.000000e+00 0.000000e+00 0.000000e+00
-6.339720e+04 8.850007e+02 0.000000e+00 8.850007e+02 -7.603277e+04 0.000000e+00 0.000000e+00 0.000000e+00 0.000000e+00
-6.199393e+04 1.011819e+03 0.000000e+00 1.011819e+03 -7.691298e+04 0.000000e+00 0.000000e+00 0.000000e+00 0.000000e+00
-6.113560e+04 1.287655e+03 0.000000e+00 1.287655e+03 -7.789889e+04 0.000000e+00 0.000000e+00 0.000000e+00 0.000000e+00
-6.069664e+04 1.660230e+03 0.000000e+00 1.660230e+03 -7.913995e+04 0.000000e+00 0.000000e+00 0.000000e+00 0.000000e+00
-6.068652e+04 2.090675e+03 0.000000e+00 2.090675e+03 -8.071750e+04 0.000000e+00 0.000000e+00 0.000000e+00 0.000000e+00
-6.116500e+04 2.489331e+03 0.000000e+00 2.489331e+03 -8.269697e+04 0.000000e+00 0.000000e+00 0.000000e+00 0.000000e+00
-6.229775e+04 2.609433e+03 0.000000e+00 2.609433e+03 -8.510002e+04 0.000000e+00 0.000000e+00 0.000000e+00 0.000000e+00
-6.437687e+04 2.004124e+03 0.000000e+00 2.004124e+03 -8.780619e+04 0.000000e+00 0.000000e+00 0.000000e+00 0.000000e+00
-6.771607e+04 8.679906e+02 0.000000e+00 8.679906e+02 -9.021355e+04 0.000000e+00 0.000000e+00 0.000000e+00 0.000000e+00
-7.066380e+04 -3.382431e+02 0.000000e+00 -3.382431e+02 -9.174545e+04 0.000000e+00 0.000000e+00 0.000000e+00 0.000000e+00
-6.453061e+04 1.753783e+03 0.000000e+00 1.753783e+03 -7.445918e+04 0.000000e+00 0.000000e+00 0.000000e+00 0.000000e+00
-6.340833e+04 1.800297e+03 0.000000e+00 1.800297e+03 -7.464998e+04 0.000000e+00 0.000000e+00 0.000000e+00 0.000000e+00
-6.227470e+04 1.948464e+03 0.000000e+00 1.948464e+03 -7.539155e+04 0.000000e+00 0.000000e+00 0.000000e+00 0.000000e+00
-6.158827e+04 2.378891e+03 0.000000e+00 2.378891e+03 -7.617533e+04 0.000000e+00 0.000000e+00 0.000000e+00 0.000000e+00
-6.129038e+04 3.010953e+03 0.000000e+00 3.010953e+03 -7.706827e+04 0.000000e+00 0.000000e+00 0.000000e+00 0.000000e+00
-6.136925e+04 3.798456e+03 0.000000e+00 3.798456e+03 -7.816435e+04 0.000000e+00 0.000000e+00 0.000000e+00 0.000000e+00
-6.184195e+04 4.678426e+03 0.000000e+00 4.678426e+03 -7.959964e+04 0.000000e+00 0.000000e+00 0.000000e+00 0.000000e+00
-6.280818e+04 5.557435e+03 0.000000e+00 5.557435e+03 -8.168462e+04 0.000000e+00 0.000000e+00 0.000000e+00 0.000000e+00
-6.466812e+04 6.289339e+03 0.000000e+00 6.289339e+03 -8.529351e+04 0.000000e+00 0.000000e+00 0.000000e+00 0.000000e+00
-6.972048e+04 6.876446e+03 0.000000e+00 6.876446e+03 -9.147754e+04 0.000000e+00 0.000000e+00 0.000000e+00 0.000000e+00
-7.829720e+04 7.610688e+03 0.000000e+00 7.610688e+03 -9.771366e+04 0.000000e+00 0.000000e+00 0.000000e+00 0.000000e+00
-6.411854e+04 2.440761e+03 0.000000e+00 2.440761e+03 -7.264304e+04 0.000000e+00 0.000000e+00 0.000000e+00 0.000000e+00
-6.335803e+04 2.481040e+03 0.000000e+00 2.481040e+03 -7.275447e+04 0.000000e+00 0.000000e+00 0.000000e+00 0.000000e+00
-6.260752e+04 2.609061e+03 0.000000e+00 2.609061e+03 -7.320038e+04 0.000000e+00 0.000000e+00 0.000000e+00 0.000000e+00
-6.219195e+04 3.058416e+03 0.000000e+00 3.058416e+03 -7.360596e+04 0.000000e+00 0.000000e+00 0.000000e+00 0.000000e+00
-6.208336e+04 3.752751e+03 0.000000e+00 3.752751e+03 -7.396088e+04 0.000000e+00 0.000000e+00 0.000000e+00 0.000000e+00
-6.229181e+04 4.636555e+03 0.000000e+00 4.636555e+03 -7.424005e+04 0.000000e+00 0.000000e+00 0.000000e+00 0.000000e+00
-6.278964e+04 5.671212e+03 0.000000e+00 5.671212e+03 -7.437862e+04 0.000000e+00 0.000000e+00 0.000000e+00 0.000000e+00
-6.355539e+04 6.808941e+03 0.000000e+00 6.808941e+03 -7.419884e+04 0.000000e+00 0.000000e+00 0.000000e+00 0.000000e+00
-6.463144e+04 8.058497e+03 0.000000e+00 8.058497e+03 -7.311476e+04 0.000000e+00 0.000000e+00 0.000000e+00 0.000000e+00
-6.588842e+04 7.851656e+03 0.000000e+00 7.851656e+03 -6.905173e+04 0.000000e+00 0.000000e+00 0.000000e+00 0.000000e+00
-6.748570e+04 7.458490e+03 0.000000e+00 7.458490e+03 -6.663988e+04 0.000000e+00 0.000000e+00 0.000000e+00 0.000000e+00
-6.361623e+04 2.828591e+03 0.000000e+00 2.828591e+03 -7.052293e+04 0.000000e+00 0.000000e+00 0.000000e+00 0.000000e+00
-6.324787e+04 2.844324e+03 0.000000e+00 2.844324e+03 -7.055399e+04 0.000000e+00 0.000000e+00 0.000000e+00 0.000000e+00
-6.290065e+04 2.897455e+03 0.000000e+00 2.897455e+03 -7.068412e+04 0.000000e+00 0.000000e+00 0.000000e+00 0.000000e+00
-6.277175e+04 3.245287e+03 0.000000e+00 3.245287e+03 -7.069441e+04 0.000000e+00 0.000000e+00 0.000000e+00 0.000000e+00
-6.286720e+04 3.787777e+03 0.000000e+00 3.787777e+03 -7.052748e+04 0.000000e+00 0.000000e+00 0.000000e+00 0.000000e+00
-6.319120e+04 4.435667e+03 0.000000e+00 4.435667e+03 -7.008959e+04 0.000000e+00 0.000000e+00 0.000000e+00 0.000000e+00
-6.371623e+04 5.080358e+03 0.000000e+00 5.080358e+03 -6.923196e+04 0.000000e+00 0.000000e+00 0.000000e+00 0.000000e+00
-6.438950e+04 5.529073e+03 0.000000e+00 5.529073e+03 -6.773148e+04 0.000000e+00 0.000000e+00 0.000000e+00 0.000000e+00
-6.504468e+04 5.248086e+03 0.000000e+00 5.248086e+03 -6.518989e+04 0.000000e+00 0.000000e+00 0.000000e+00 0.000000e+00
-6.428556e+04 3.110714e+03 0.000000e+00 3.110714e+03 -6.241118e+04 0.000000e+00 0.000000e+00 0.000000e+00 0.000000e+00
-5.985023e+04 9.860298e+02 0.000000e+00 9.860298e+02 -6.001786e+04 0.000000e+00 0.000000e+00 0.000000e+00 0.000000e+00
-6.305495e+04 2.919373e+03 0.000000e+00 2.919373e+03 -6.833813e+04 0.000000e+00 0.000000e+00 0.000000e+00 0.000000e+00
-6.305181e+04 2.898557e+03 0.000000e+00 2.898557e+03 -6.830263e+04 0.000000e+00 0.000000e+00 0.000000e+00 0.000000e+00
-6.306403e+04 2.841542e+03 0.000000e+00 2.841542e+03 -6.817951e+04 0.000000e+00 0.000000e+00 0.000000e+00 0.000000e+00
-6.316413e+04 3.008574e+03 0.000000e+00 3.008574e+03 -6.791337e+04 0.000000e+00 0.000000e+00 0.000000e+00 0.000000e+00
-6.338003e+04 3.288151e+03 0.000000e+00 3.288151e+03 -6.742678e+04 0.000000e+00 0.000000e+00 0.000000e+00 0.000000e+00
-6.371266e+04 3.565983e+03 0.000000e+00 3.565983e+03 -6.665549e+04 0.000000e+00 0.000000e+00 0.000000e+00 0.000000e+00
-6.408925e+04 3.697467e+03 0.000000e+00 3.697467e+03 -6.551446e+04 0.000000e+00 0.000000e+00 0.000000e+00 0.000000e+00
-6.433101e+04 3.445137e+03 0.000000e+00 3.445137e+03 -6.395615e+04 0.000000e+00 0.000000e+00 0.000000e+00 0.000000e+00
-6.392184e+04 2.487368e+03 0.000000e+00 2.487368e+03 -6.219872e+04 0.000000e+00 0.000000e+00 0.000000e+00 0.000000e+00
-6.133686e+04 9.345977e+02 0.000000e+00 9.345977e+02 -6.082846e+04 0.000000e+00 0.000000e+00 0.000000e+00 0.000000e+00
-5.776431e+04 1.636628e+02 0.000000e+00 1.636628e+02 -5.985341e+04 0.000000e+00 0.000000e+00 0.000000e+00 0.000000e+00
-6.249602e+04 2.794799e+03 0.000000e+00 2.794799e+03 -6.633884e+04 0.000000e+00 0.000000e+00 0.000000e+00 0.000000e+00
-6.277882e+04 2.734148e+03 0.000000e+00 2.734148e+03 -6.626089e+04 0.000000e+00 0.000000e+00 0.000000e+00 0.000000e+00
-6.306523e+04 2.563810e+03 0.000000e+00 2.563810e+03 -6.597507e+04 0.000000e+00 0.000000e+00 0.000000e+00 0.000000e+00
-6.331903e+04 2.538274e+03 0.000000e+00 2.538274e+03 -6.557103e+04 0.000000e+00 0.000000e+00 0.000000e+00 0.000000e+00
-6.357547e+04 2.561084e+03 0.000000e+00 2.561084e+03 -6.498735e+04 0.000000e+00 0.000000e+00 0.000000e+00 0.000000e+00
-6.381045e+04 2.524292e+03 0.000000e+00 2.524292e+03 -6.418796e+04 0.000000e+00 0.000000e+00 0.000000e+00 0.000000e+00
-6.392164e+04 2.302228e+03 0.000000e+00 2.302228e+03 -6.317970e+04 0.000000e+00 0.000000e+00 0.000000e+00 0.000000e+00
-6.367589e+04 1.778854e+03 0.000000e+00 1.778854e+03 -6.204058e+04 0.000000e+00 0.000000e+00 0.000000e+00 0.000000e+00
-6.260463e+04 9.411486e+02 0.000000e+00 9.411486e+02 -6.100616e+04 0.000000e+00 0.000000e+00 0.000000e+00 0.000000e+00
-6.011627e+04 1.475879e+02 0.000000e+00 1.475879e+02 -6.031402e+04 0.000000e+00 0.000000e+00 0.000000e+00 0.000000e+00
-5.761217e+04 -1.595755e+02 0.000000e+00 -1.595755e+02 -5.980403e+04 0.000000e+00 0.000000e+00 0.000000e+00 0.000000e+00
-6.200102e+04 2.502115e+03 0.000000e+00 2.502115e+03 -6.464991e+04 0.000000e+00 0.000000e+00 0.000000e+00 0.000000e+00
-6.245799e+04 2.412732e+03 0.000000e+00 2.412732e+03 -6.454988e+04 0.000000e+00 0.000000e+00 0.000000e+00 0.000000e+00
-6.292086e+04 2.159871e+03 0.000000e+00 2.159871e+03 -6.419059e+04 0.000000e+00 0.000000e+00 0.000000e+00 0.000000e+00
-6.325237e+04 1.987276e+03 0.000000e+00 1.987276e+03 -6.375527e+04 0.000000e+00 0.000000e+00 0.000000e+00 0.000000e+00
-6.349062e+04 1.824019e+03 0.000000e+00 1.824019e+03 -6.320519e+04 0.000000e+00 0.000000e+00 0.000000e+00 0.000000e+00
-6.360628e+04 1.594609e+03 0.000000e+00 1.594609e+03 -6.254026e+04 0.000000e+00 0.000000e+00 0.000000e+00 0.000000e+00
-6.349564e+04 1.234560e+03 0.000000e+00 1.234560e+03 -6.179681e+04 0.000000e+00 0.000000e+00 0.000000e+00 0.000000e+00
-6.296564e+04 7.229018e+02 0.000000e+00 7.229018e+02 -6.106041e+04 0.000000e+00 0.000000e+00 0.000000e+00 0.000000e+00
-6.176666e+04 1.500823e+02 0.000000e+00 1.500823e+02 -6.047271e+04 0.000000e+00 0.000000e+00 0.000000e+00 0.000000e+00
-5.969826e+04 -1.956304e+02 0.000000e+00 -1.956304e+02 -6.013591e+04 0.000000e+00 0.000000e+00 0.000000e+00 0.000000e+00
-5.792439e+04 -2.423474e+02 0.000000e+00 -2.423474e+02 -5.985579e+04 0.000000e+00 0.000000e+00 0.000000e+00 0.000000e+00
-6.157087e+04 2.124391e+03 0.000000e+00 2.124391e+03 -6.331156e+04 0.000000e+00 0.000000e+00 0.000000e+00 0.000000e+00
-6.210593e+04 2.020972e+03 0.000000e+00 2.020972e+03 -6.320036e+04 0.000000e+00 0.000000e+00 0.000000e+00 0.000000e+00
-6.266111e+04 1.730101e+03 0.000000e+00 1.730101e+03 -6.282902e+04 0.000000e+00 0.000000e+00 0.000000e+00 0.000000e+00
-6.303169e+04 1.471964e+03 0.000000e+00 1.471964e+03 -6.242623e+04 0.000000e+00 0.000000e+00 0.000000e+00 0.000000e+00
-6.324025e+04 1.208293e+03 0.000000e+00 1.208293e+03 -6.197375e+04 0.000000e+00 0.000000e+00 0.000000e+00 0.000000e+00
-6.326364e+04 8.977952e+02 0.000000e+00 8.977952e+02 -6.147830e+04 0.000000e+00 0.000000e+00 0.000000e+00 0.000000e+00
-6.302357e+04 5.202205e+02 0.000000e+00 5.202205e+02 -6.097471e+04 0.000000e+00 0.000000e+00 0.000000e+00 0.000000e+00
-6.240452e+04 1.017512e+02 0.000000e+00 1.017512e+02 -6.053079e+04 0.000000e+00 0.000000e+00 0.000000e+00 0.000000e+00
-6.130048e+04 -2.469572e+02 0.000000e+00 -2.469572e+02 -6.020332e+04 0.000000e+00 0.000000e+00 0.000000e+00 0.000000e+00
-5.968728e+04 -3.353361e+02 0.000000e+00 -3.353361e+02 -6.005059e+04 0.000000e+00 0.000000e+00 0.000000e+00 0.000000e+00
-5.842831e+04 -2.663679e+02 0.000000e+00 -2.663679e+02 -5.988708e+04 0.000000e+00 0.000000e+00 0.000000e+00 0.000000e+00
-6.119828e+04 1.726470e+03 0.000000e+00 1.726470e+03 -6.227680e+04 0.000000e+00 0.000000e+00 0.000000e+00 0.000000e+00
-6.176211e+04 1.620548e+03 0.000000e+00 1.620548e+03 -6.217716e+04 0.000000e+00 0.000000e+00 0.000000e+00 0.000000e+00
-6.235369e+04 1.328338e+03 0.000000e+00 1.328338e+03 -6.183447e+04 0.000000e+00 0.000000e+00 0.000000e+00 0.000000e+00
-6.273154e+04 1.039126e+03 0.000000e+00 1.039126e+03 -6.149334e+04 0.000000e+00 0.000000e+00 0.000000e+00 0.000000e+00
-6.291283e+04 7.386870e+02 0.000000e+00 7.386870e+02 -6.114468e+04 0.000000e+00 0.000000e+00 0.000000e+00 0.000000e+00
-6.288527e+04 4.151772e+02 0.000000e+00 4.151772e+02 -6.079451e+04 0.000000e+00 0.000000e+00 0.000000e+00 0.000000e+00
-6.260013e+04 7.404472e+01 0.000000e+00 7.404472e+01 -6.047659e+04 0.000000e+00 0.000000e+00 0.000000e+00 0.000000e+00
-6.201022e+04 -2.425885e+02 0.000000e+00 -2.425885e+02 -6.022981e+04 0.000000e+00 0.000000e+00 0.000000e+00 0.000000e+00
-6.108428e+04 -4.335806e+02 0.000000e+00 -4.335806e+02 -6.006252e+04 0.000000e+00 0.000000e+00 0.000000e+00 0.000000e+00
-5.986993e+04 -3.807160e+02 0.000000e+00 -3.807160e+02 -6.000622e+04 0.000000e+00 0.000000e+00 0.000000e+00 0.000000e+00
-5.897225e+04 -2.633138e+02 0.000000e+00 -2.633138e+02 -5.991939e+04 0.000000e+00 0.000000e+00 0.000000e+00 0.000000e+00
-6.090220e+04 1.348745e+03 0.000000e+00 1.348745e+03 -6.151167e+04 0.000000e+00 0.000000e+00 0.000000e+00 0.000000e+00
-6.145106e+04 1.249859e+03 0.000000e+00 1.249859e+03 -6.142643e+04 0.000000e+00 0.000000e+00 0.000000e+00 0.000000e+00
-6.203732e+04 9.789218e+02 0.000000e+00 9.789218e+02 -6.112546e+04 0.000000e+00 0.000000e+00 0.000000e+00 0.000000e+00
-6.240700e+04 6.936586e+02 0.000000e+00 6.936586e+02 -6.084768e+04 0.000000e+00 0.000000e+00 0.000000e+00 0.000000e+00
-6.257094e+04 3.987412e+02 0.000000e+00 3.987412e+02 -6.058605e+04 0.000000e+00 0.000000e+00 0.000000e+00 0.000000e+00
-6.252895e+04 9.950732e+01 0.000000e+00 9.950732e+01 -6.035169e+04 0.000000e+00 0.000000e+00 0.000000e+00 0.000000e+00
-6.225748e+04 -1.847333e+02 0.000000e+00 -1.847333e+02 -6.016639e+04 0.000000e+00 0.000000e+00 0.000000e+00 0.000000e+00
-6.175246e+04 -4.096247e+02 0.000000e+00 -4.096247e+02 -6.004627e+04 0.000000e+00 0.000000e+00 0.000000e+00 0.000000e+00
-6.102206e+04 -5.003968e+02 0.000000e+00 -5.003968e+02 -5.998230e+04 0.000000e+00 0.000000e+00 0.000000e+00 0.000000e+00
-6.013729e+04 -3.757755e+02 0.000000e+00 -3.757755e+02 -5.997919e+04 0.000000e+00 0.000000e+00 0.000000e+00 0.000000e+00
-5.950804e+04 -2.426746e+02 0.000000e+00 -2.426746e+02 -5.993843e+04 0.000000e+00 0.000000e+00 0.000000e+00 0.000000e+00
-6.067184e+04 1.004589e+03 0.000000e+00 1.004589e+03 -6.095517e+04 0.000000e+00 0.000000e+00 0.000000e+00 0.000000e+00
-6.118167e+04 9.180912e+02 0.000000e+00 9.180912e+02 -6.088013e+04 0.000000e+00 0.000000e+00 0.000000e+00 0.000000e+00
-6.174286e+04 6.807461e+02 0.000000e+00 6.807461e+02 -6.061874e+04 0.000000e+00 0.000000e+00 0.000000e+00 0.000000e+00
-6.209855e+04 4.239086e+02 0.000000e+00 4.239086e+02 -6.039542e+04 0.000000e+00 0.000000e+00 0.000000e+00 0.000000e+00
-6.225668e+04 1.622730e+02 0.000000e+00 1.622730e+02 -6.020586e+04 0.000000e+00 0.000000e+00 0.000000e+00 0.000000e+00
-6.222379e+04 -9.088854e+01 0.000000e+00 -9.088854e+01 -6.006024e+04 0.000000e+00 0.000000e+00 0.000000e+00 0.000000e+00
-6.199705e+04 -3.124497e+02 0.000000e+00 -3.124497e+02 -5.996627e+04 0.000000e+00 0.000000e+00 0.000000e+00 0.000000e+00
-6.159312e+04 -4.643888e+02 0.000000e+00 -4.643888e+02 -5.993194e+04 0.000000e+00 0.000000e+00 0.000000e+00 0.000000e+00
-6.104109e+04 -4.934683e+02 0.000000e+00 -4.934683e+02 -5.993050e+04 0.000000e+00 0.000000e+00 0.000000e+00 0.000000e+00
-6.042438e+04 -3.413918e+02 0.000000e+00 -3.413918e+02 -5.996206e+04 0.000000e+00 0.000000e+00 0.000000e+00 0.000000e+00
-6.001182e+04 -2.100997e+02 0.000000e+00 -2.100997e+02 -5.995083e+04 0.000000e+00 0.000000e+00 0.000000e+00 0.000000e+00
-6.049426e+04 6.994498e+02 0.000000e+00 6.994498e+02 -6.053365e+04 0.000000e+00 0.000000e+00 0.000000e+00 0.000000e+00
-6.095537e+04 6.258969e+02 0.000000e+00 6.258969e+02 -6.046458e+04 0.000000e+00 0.000000e+00 0.000000e+00 0.000000e+00
-6.148767e+04 4.343178e+02 0.000000e+00 4.343178e+02 -6.024202e+04 0.000000e+00 0.000000e+00 0.000000e+00 0.000000e+00
-6.183117e+04 2.179115e+02 0.000000e+00 2.179115e+02 -6.006777e+04 0.000000e+00 0.000000e+00 0.000000e+00 0.000000e+00
-6.199329e+04 8.068691e+00 0.000000e+00 8.068691e+00 -5.993489e+04 0.000000e+00 0.000000e+00 0.000000e+00 0.000000e+00
-6.198275e+04 -1.882043e+02 0.000000e+00 -1.882043e+02 -5.985693e+04 0.000000e+00 0.000000e+00 0.000000e+00 0.000000e+00
-6.180937e+04 -3.498840e+02 0.000000e+00 -3.498840e+02 -5.983179e+04 0.000000e+00 0.000000e+00 0.000000e+00 0.000000e+00
-6.149997e+04 -4.446302e+02 0.000000e+00 -4.446302e+02 -5.985213e+04 0.000000e+00 0.000000e+00 0.000000e+00 0.000000e+00
-6.109908e+04 -4.387863e+02 0.000000e+00 -4.387863e+02 -5.989379e+04 0.000000e+00 0.000000e+00 0.000000e+00 0.000000e+00
-6.069333e+04 -2.907133e+02 0.000000e+00 -2.907133e+02 -5.995364e+04 0.000000e+00 0.000000e+00 0.000000e+00 0.000000e+00
-6.044616e+04 -1.725055e+02 0.000000e+00 -1.725055e+02 -5.996333e+04 0.000000e+00 0.000000e+00 0.000000e+00 0.000000e+00
-6.034546e+04 4.368139e+02 0.000000e+00 4.368139e+02 -6.019747e+04 0.000000e+00 0.000000e+00 0.000000e+00 0.000000e+00
-6.077482e+04 3.765668e+02 0.000000e+00 3.765668e+02 -6.013205e+04 0.000000e+00 0.000000e+00 0.000000e+00 0.000000e+00
-6.128270e+04 2.276028e+02 0.000000e+00 2.276028e+02 -5.994723e+04 0.000000e+00 0.000000e+00 0.000000e+00 0.000000e+00
-6.162465e+04 6.954659e+01 0.000000e+00 6.954659e+01 -5.981479e+04 0.000000e+00 0.000000e+00 0.000000e+00 0.000000e+00
-6.179578e+04 -8.009212e+01 0.000000e+00 -8.009212e+01 -5.973348e+04 0.000000e+00 0.000000e+00 0.000000e+00 0.000000e+00
-6.180821e+04 -2.153859e+02 0.000000e+00 -2.153859e+02 -5.970893e+04 0.000000e+00 0.000000e+00 0.000000e+00 0.000000e+00
-6.168395e+04 -3.230102e+02 0.000000e+00 -3.230102e+02 -5.974066e+04 0.000000e+00 0.000000e+00 0.000000e+00 0.000000e+00
-6.145481e+04 -3.762591e+02 0.000000e+00 -3.762591e+02 -5.980095e+04 0.000000e+00 0.000000e+00 0.000000e+00 0.000000e+00
-6.117275e+04 -3.544577e+02 0.000000e+00 -3.544577e+02 -5.987250e+04 0.000000e+00 0.000000e+00 0.000000e+00 0.000000e+00
-6.092097e+04 -2.293075e+02 0.000000e+00 -2.293075e+02 -5.994718e+04 0.000000e+00 0.000000e+00 0.000000e+00 0.000000e+00
-6.079679e+04 -1.337491e+02 0.000000e+00 -1.337491e+02 -5.997273e+04 0.000000e+00 0.000000e+00 0.000000e+00 0.000000e+00
-6.021785e+04 1.867234e+02 0.000000e+00 1.867234e+02 -5.989698e+04 0.000000e+00 0.000000e+00 0.000000e+00 0.000000e+00
-6.063824e+04 1.497637e+02 0.000000e+00 1.497637e+02 -5.983717e+04 0.000000e+00 0.000000e+00 0.000000e+00 0.000000e+00
-6.114637e+04 5.975513e+01 0.000000e+00 5.975513e+01 -5.967966e+04 0.000000e+00 0.000000e+00 0.000000e+00 0.000000e+00
-6.149042e+04 -2.125198e+01 0.000000e+00 -2.125198e+01 -5.959189e+04 0.000000e+00 0.000000e+00 0.000000e+00 0.000000e+00
-6.166711e+04 -1.078781e+02 0.000000e+00 -1.078781e+02 -5.957348e+04 0.000000e+00 0.000000e+00 0.000000e+00 0.000000e+00
-6.169635e+04 -1.863430e+02 0.000000e+00 -1.863430e+02 -5.960023e+04 0.000000e+00 0.000000e+00 0.000000e+00 0.000000e+00
-6.160672e+04 -2.468810e+02 0.000000e+00 -2.468810e+02 -5.966982e+04 0.000000e+00 0.000000e+00 0.000000e+00 0.000000e+00
-6.143739e+04 -2.728293e+02 0.000000e+00 -2.728293e+02 -5.976258e+04 0.000000e+00 0.000000e+00 0.000000e+00 0.000000e+00
-6.123902e+04 -2.478364e+02 0.000000e+00 -2.478364e+02 -5.985556e+04 0.000000e+00 0.000000e+00 0.000000e+00 0.000000e+00
-6.109274e+04 -1.584339e+02 0.000000e+00 -1.584339e+02 -5.994173e+04 0.000000e+00 0.000000e+00 0.000000e+00 0.000000e+00
-6.105126e+04 -9.165685e+01 0.000000e+00 -9.165685e+01 -5.997907e+04 0.000000e+00 0.000000e+00 0.000000e+00 0.000000e+00
-6.009745e+04 -6.142477e+01 0.000000e+00 -6.142477e+01 -5.948800e+04 0.000000e+00 0.000000e+00 0.000000e+00 0.000000e+00
-6.058343e+04 -2.766814e+01 0.000000e+00 -2.766814e+01 -5.948311e+04 0.000000e+00 0.000000e+00 0.000000e+00 0.000000e+00
-6.109426e+04 -2.971017e+01 0.000000e+00 -2.971017e+01 -5.941331e+04 0.000000e+00 0.000000e+00 0.000000e+00 0.000000e+00
-6.142776e+04 -4.269578e+01 0.000000e+00 -4.269578e+01 -5.941333e+04 0.000000e+00 0.000000e+00 0.000000e+00 0.000000e+00
-6.159871e+04 -7.758177e+01 0.000000e+00 -7.758177e+01 -5.945741e+04 0.000000e+00 0.000000e+00 0.000000e+00 0.000000e+00
-6.163690e+04 -1.104422e+02 0.000000e+00 -1.104422e+02 -5.952577e+04 0.000000e+00 0.000000e+00 0.000000e+00 0.000000e+00
-6.156722e+04 -1.344442e+02 0.000000e+00 -1.344442e+02 -5.962145e+04 0.000000e+00 0.000000e+00 0.000000e+00 0.000000e+00
-6.143133e+04 -1.441021e+02 0.000000e+00 -1.441021e+02 -5.973623e+04 0.000000e+00 0.000000e+00 0.000000e+00 0.000000e+00
-6.128534e+04 -1.262810e+02 0.000000e+00 -1.262810e+02 -5.984442e+04 0.000000e+00 0.000000e+00 0.000000e+00 0.000000e+00
-6.119932e+04 -8.025961e+01 0.000000e+00 -8.025961e+01 -5.993821e+04 0.000000e+00 0.000000e+00 0.000000e+00 0.000000e+00
-6.120153e+04 -4.624834e+01 0.000000e+00 -4.624834e+01 -5.998235e+04 0.000000e+00 0.000000e+00 0.000000e+00 0.000000e+00
-5.994899e+04 -2.521520e+02 0.000000e+00 -2.521520e+02 -5.899663e+04 0.000000e+00 0.000000e+00 0.000000e+00 0.000000e+00
-6.053500e+04 -1.397650e+02 0.000000e+00 -1.397650e+02 -5.914532e+04 0.000000e+00 0.000000e+00 0.000000e+00 0.000000e+00
-6.107916e+04 -6.632516e+01 0.000000e+00 -6.632516e+01 -5.925759e+04 0.000000e+00 0.000000e+00 0.000000e+00 0.000000e+00
-6.141039e+04 -4.730038e+01 0.000000e+00 -4.730038e+01 -5.933568e+04 0.000000e+00 0.000000e+00 0.000000e+00 0.000000e+00
-6.157751e+04 -5.307284e+01 0.000000e+00 -5.307284e+01 -5.941238e+04 0.000000e+00 0.000000e+00 0.000000e+00 0.000000e+00
-6.161953e+04 -5.871791e+01 0.000000e+00 -5.871791e+01 -5.949992e+04 0.000000e+00 0.000000e+00 0.000000e+00 0.000000e+00
-6.155752e+04 -6.274022e+01 0.000000e+00 -6.274022e+01 -5.960920e+04 0.000000e+00 0.000000e+00 0.000000e+00 0.000000e+00
-6.143112e+04 -6.393853e+01 0.000000e+00 -6.393853e+01 -5.973043e+04 0.000000e+00 0.000000e+00 0.000000e+00 0.000000e+00
-6.130273e+04 -5.298352e+01 0.000000e+00 -5.298352e+01 -5.984142e+04 0.000000e+00 0.000000e+00 0.000000e+00 0.000000e+00
-6.123532e+04 -3.676482e+01 0.000000e+00 -3.676482e+01 -5.993822e+04 0.000000e+00 0.000000e+00 0.000000e+00 0.000000e+00
-6.124939e+04 -2.446028e+01 0.000000e+00 -2.446028e+01 -5.998378e+04 0.000000e+00 0.000000e+00 0.000000e+00 0.000000e+00
</DataArray>
<DataArray Name="vol_eps" type="Float64" NumberOfComponents="1" format="ascii">
-1.400698e-03
-1.300151e-03
-1.249173e-03
-1.250835e-03
-1.301450e-03
-1.406734e-03
-1.571166e-03
-1.795894e-03
-2.067550e-03
-2.351003e-03
-2.426530e-03
-1.336133e-03
-1.254719e-03
-1.217831e-03
-1.222341e-03
-1.269380e-03
-1.366789e-03
-1.524710e-03
-1.754295e-03
-2.068809e-03
-2.447113e-03
-2.740850e-03
-1.226524e-03
-1.165088e-03
-1.137122e-03
-1.140538e-03
-1.175527e-03
-1.246735e-03
-1.366638e-03
-1.562046e-03
-1.913458e-03
-2.643258e-03
-3.609768e-03
-1.081416e-03
-1.038821e-03
-1.017716e-03
-1.015319e-03
-1.029387e-03
-1.057616e-03
-1.095340e-03
-1.127455e-03
-1.112698e-03
-9.191658e-04
-8.707344e-04
-9.109057e-04
-8.888866e-04
-8.745457e-04
-8.663427e-04
-8.609040e-04
-8.523915e-04
-8.289376e-04
-7.717050e-04
-6.468034e-04
-4.245565e-04
1.625834e-05
-7.361041e-04
-7.337460e-04
-7.270154e-04
-7.163319e-04
-6.990177e-04
-6.699541e-04
-6.192839e-04
-5.325989e-04
-3.935843e-04
-1.405137e-04
1.617912e-04
-5.729606e-04
-5.869815e-04
-5.883013e-04
-5.788755e-04
-5.576101e-04
-5.206574e-04
-4.616467e-04
-3.713264e-04
-2.351157e-04
-2.949166e-05
1.737223e-04
-4.324639e-04
-4.563041e-04
-4.640699e-04
-4.581888e-04
-4.384217e-04
-4.019024e-04
-3.453490e-04
-2.627631e-04
-1.470833e-04
9.509254e-06
1.500462e-04
-3.167617e-04
-3.456686e-04
-3.592971e-04
-3.585327e-04
-3.425467e-04
-3.104962e-04
-2.610182e-04
-1.916181e-04
-9.982662e-05
1.626531e-05
1.158069e-04
-2.259713e-04
-2.573976e-04
-2.750256e-04
-2.777081e-04
-2.658055e-04
-2.402847e-04
-2.005108e-04
-1.460762e-04
-7.703064e-05
7.269618e-06
7.582078e-05
-1.576341e-04
-1.884489e-04
-2.076673e-04
-2.131774e-04
-2.058190e-04
-1.873414e-04
-1.573992e-04
-1.172015e-04
-6.728957e-05
-7.946866e-06
3.722430e-05
-1.058179e-04
-1.349265e-04
-1.550438e-04
-1.626603e-04
-1.596962e-04
-1.478850e-04
-1.271336e-04
-9.949804e-05
-6.468578e-05
-2.467411e-05
4.338205e-06
-6.683703e-05
-9.426150e-05
-1.145264e-04
-1.232316e-04
-1.243412e-04
-1.184842e-04
-1.059505e-04
-8.860421e-05
-6.640234e-05
-4.153368e-05
-2.435151e-05
-3.652009e-05
-6.192822e-05
-8.189912e-05
-9.303402e-05
-9.787385e-05
-9.705596e-05
-9.157418e-05
-8.233404e-05
-6.980469e-05
-5.647802e-05
-4.811705e-05
-9.533518e-06
-3.394491e-05
-5.554568e-05
-6.980389e-05
-7.846650e-05
-8.210359e-05
-8.189296e-05
-7.830383e-05
-7.273055e-05
-6.750775e-05
-6.560324e-05
2.422430e-05
-7.178718e-06
-3.480583e-05
-5.400566e-05
-6.602749e-05
-7.307027e-05
-7.619012e-05
-7.587014e-05
-7.472667e-05
-7.412615e-05
-7.604466e-05
6.699368e-05
1.822168e-05
-2.449787e-05
-4.784746e-05
-6.151532e-05
-7.022583e-05
-7.474212e-05
-7.536083e-05
-7.523687e-05
-7.607936e-05
-7.920832e-05
</DataArray>
</PointData>
</Piece>
</UnstructuredGrid>
</VTKFile>
