<?xml version="1.0"?>
<VTKFile type="UnstructuredGrid" version="0.1">
<UnstructuredGrid>
<FieldData>
<DataArray Name="TIME" type="Float64" format="ascii" NumberOfTuples="1">
0.000000e+00
</DataArray>
</FieldData>
<FieldData>
<DataArray Name="CYCLE" type="Int32" format="ascii" NumberOfTuples="1">
0
</DataArray>
</FieldData>
<Piece NumberOfPoints="187" NumberOfCells="160">
<Points>
<DataArray NumberOfComponents="3" type="Float64" format="ascii">
0.000000e+00 0.000000e+00 0.000000e+00
0.000000e+00 1.974303e-01 0.000000e+00
0.000000e+00 3.939776e-01 0.000000e+00
0.000000e+00 5.896842e-01 0.000000e+00
0.000000e+00 7.845191e-01 0.000000e+00
0.000000e+00 9.782046e-01 0.000000e+00
0.000000e+00 1.171496e+00 0.000000e+00
0.000000e+00 1.365605e+00 0.000000e+00
0.000000e+00 1.560864e+00 0.000000e+00
0.000000e+00 1.757235e+00 0.000000e+00
0.000000e+00 1.953875e+00 0.000000e+00
2.250000e-01 0.000000e+00 0.000000e+00
2.262244e-01 1.975752e-01 0.000000e+00
2.274060e-01 3.942966e-01 0.000000e+00
2.285496e-01 5.902686e-01 0.000000e+00
2.297120e-01 7.855134e-01 0.000000e+00
2.305143e-01 9.801151e-01 0.000000e+00
2.302541e-01 1.174140e+00 0.000000e+00
2.289021e-01 1.368143e+00 0.000000e+00
2.271729e-01 1.562496e+00 0.000000e+00
2.254987e-01 1.757433e+00 0.000000e+00
2.250000e-01 1.953875e+00 0.000000e+00
4.500000e-01 0.000000e+00 0.000000e+00
4.523804e-01 1.980593e-01 0.000000e+00
4.544986e-01 3.954867e-01 0.000000e+00
4.563761e-01 5.923890e-01 0.000000e+00
4.579422e-01 7.888690e-01 0.000000e+00
4.590590e-01 9.849880e-01 0.000000e+00
4.591906e-01 1.180659e+00 0.000000e+00
4.585218e-01 1.375438e+00 0.000000e+00
4.570757e-01 1.569043e+00 0.000000e+00
4.546611e-01 1.761558e+00 0.000000e+00
4.500000e-01 1.953875e+00 0.000000e+00
6.750000e-01 0.000000e+00 0.000000e+00
6.780838e-01 1.987801e-01 0.000000e+00
6.806398e-01 3.974244e-01 0.000000e+00
6.827608e-01 5.961021e-01 0.000000e+00
6.844936e-01 7.949159e-01 0.000000e+00
6.857575e-01 9.939000e-01 0.000000e+00
6.863340e-01 1.193040e+00 0.000000e+00
6.863776e-01 1.392443e+00 0.000000e+00
6.858081e-01 1.592179e+00 0.000000e+00
6.839708e-01 1.792369e+00 0.000000e+00
6.795267e-01 1.992900e+00 0.000000e+00
9.000000e-01 0.000000e+00 0.000000e+00
9.032778e-01 1.990690e-01 0.000000e+00
9.057044e-01 3.982027e-01 0.000000e+00
9.075977e-01 5.974842e-01 0.000000e+00
9.090648e-01 7.969279e-01 0.000000e+00
9.100687e-01 9.965564e-01 0.000000e+00
9.104954e-01 1.196377e+00 0.000000e+00
9.103600e-01 1.396398e+00 0.000000e+00
9.095457e-01 1.596678e+00 0.000000e+00
9.076242e-01 1.797101e+00 0.000000e+00
9.047075e-01 1.997113e+00 0.000000e+00
1.125000e+00 0.000000e+00 0.000000e+00
1.128233e+00 1.993988e-01 0.000000e+00
1.130404e+00 3.989013e-01 0.000000e+00
1.132044e+00 5.985517e-01 0.000000e+00
1.133278e+00 7.983587e-01 0.000000e+00
1.134072e+00 9.983357e-01 0.000000e+00
1.134369e+00 1.198476e+00 0.000000e+00
1.134134e+00 1.398778e+00 0.000000e+00
1.133279e+00 1.599196e+00 0.000000e+00
1.131799e+00 1.799543e+00 0.000000e+00
1.130029e+00 1.999633e+00 0.000000e+00
1.350000e+00 0.000000e+00 0.000000e+00
1.352980e+00 1.996319e-01 0.000000e+00
1.354888e+00 3.993881e-01 0.000000e+00
1.356305e+00 5.992811e-01 0.000000e+00
1.357340e+00 7.993242e-01 0.000000e+00
1.357987e+00 9.995055e-01 0.000000e+00
1.358192e+00 1.199814e+00 0.000000e+00
1.357929e+00 1.400221e+00 0.000000e+00
1.357225e+00 1.600646e+00 0.000000e+00
1.356201e+00 1.800953e+00 0.000000e+00
1.355134e+00 2.001046e+00 0.000000e+00
1.575000e+00 0.000000e+00 0.000000e+00
1.577612e+00 1.997858e-01 0.000000e+00
1.579262e+00 3.997098e-01 0.000000e+00
1.580483e+00 5.997711e-01 0.000000e+00
1.581367e+00 7.999463e-01 0.000000e+00
1.581897e+00 1.000234e+00 0.000000e+00
1.582044e+00 1.200619e+00 0.000000e+00
1.581833e+00 1.401052e+00 0.000000e+00
1.581334e+00 1.601453e+00 0.000000e+00
1.580680e+00 1.801732e+00 0.000000e+00
1.580068e+00 2.001851e+00 0.000000e+00
1.800000e+00 0.000000e+00 0.000000e+00
1.802190e+00 1.998851e-01 0.000000e+00
1.803599e+00 3.999172e-01 0.000000e+00
1.804653e+00 6.000612e-01 0.000000e+00
1.805409e+00 8.003070e-01 0.000000e+00
1.805846e+00 1.000648e+00 0.000000e+00
1.805978e+00 1.201054e+00 0.000000e+00
1.805852e+00 1.401474e+00 0.000000e+00
1.805545e+00 1.601844e+00 0.000000e+00
1.805166e+00 1.802112e+00 0.000000e+00
1.804855e+00 2.002263e+00 0.000000e+00
2.025000e+00 0.000000e+00 0.000000e+00
2.026758e+00 1.999362e-01 0.000000e+00
2.027952e+00 4.000220e-01 0.000000e+00
2.028854e+00 6.002072e-01 0.000000e+00
2.029494e+00 8.004835e-01 0.000000e+00
2.029867e+00 1.000836e+00 0.000000e+00
2.030008e+00 1.201232e+00 0.000000e+00
2.029968e+00 1.401625e+00 0.000000e+00
2.029813e+00 1.601969e+00 0.000000e+00
2.029628e+00 1.802236e+00 0.000000e+00
2.029515e+00 2.002420e+00 0.000000e+00
2.250000e+00 0.000000e+00 0.000000e+00
2.251361e+00 1.999610e-01 0.000000e+00
2.252351e+00 4.000614e-01 0.000000e+00
2.253111e+00 6.002564e-01 0.000000e+00
2.253646e+00 8.005342e-01 0.000000e+00
2.253974e+00 1.000875e+00 0.000000e+00
2.254131e+00 1.201244e+00 0.000000e+00
2.254158e+00 1.401605e+00 0.000000e+00
2.254111e+00 1.601931e+00 0.000000e+00
2.254055e+00 1.802203e+00 0.000000e+00
2.254065e+00 2.002419e+00 0.000000e+00
2.475000e+00 0.000000e+00 0.000000e+00
2.476020e+00 1.999689e-01 0.000000e+00
2.476817e+00 4.000591e-01 0.000000e+00
2.477437e+00 6.002443e-01 0.000000e+00
2.477883e+00 8.005065e-01 0.000000e+00
2.478171e+00 1.000820e+00 0.000000e+00
2.478333e+00 1.201158e+00 0.000000e+00
2.478402e+00 1.401495e+00 0.000000e+00
2.478422e+00 1.601807e+00 0.000000e+00
2.478443e+00 1.802085e+00 0.000000e+00
2.478521e+00 2.002331e+00 0.000000e+00
2.700000e+00 0.000000e+00 0.000000e+00
2.700742e+00 1.999633e-01 0.000000e+00
2.701354e+00 4.000355e-01 0.000000e+00
2.701839e+00 6.001998e-01 0.000000e+00
2.702200e+00 8.004372e-01 0.000000e+00
2.702446e+00 1.000723e+00 0.000000e+00
2.702598e+00 1.201034e+00 0.000000e+00
2.702684e+00 1.401349e+00 0.000000e+00
2.702738e+00 1.601652e+00 0.000000e+00
2.702798e+00 1.801936e+00 0.000000e+00
2.702901e+00 2.002205e+00 0.000000e+00
2.925000e+00 0.000000e+00 0.000000e+00
2.925516e+00 1.999554e-01 0.000000e+00
2.925955e+00 4.000073e-01 0.000000e+00
2.926312e+00 6.001471e-01 0.000000e+00
2.926586e+00 8.003591e-01 0.000000e+00
2.926781e+00 1.000620e+00 0.000000e+00
2.926909e+00 1.200909e+00 0.000000e+00
2.926992e+00 1.401207e+00 0.000000e+00
2.927055e+00 1.601503e+00 0.000000e+00
2.927124e+00 1.801792e+00 0.000000e+00
2.927223e+00 2.002080e+00 0.000000e+00
3.150000e+00 0.000000e+00 0.000000e+00
3.150326e+00 1.999469e-01 0.000000e+00
3.150609e+00 3.999844e-01 0.000000e+00
3.150842e+00 6.001047e-01 0.000000e+00
3.151026e+00 8.002952e-01 0.000000e+00
3.151162e+00 1.000537e+00 0.000000e+00
3.151255e+00 1.200809e+00 0.000000e+00
3.151319e+00 1.401095e+00 0.000000e+00
3.151371e+00 1.601386e+00 0.000000e+00
3.151428e+00 1.801680e+00 0.000000e+00
3.151504e+00 2.001981e+00 0.000000e+00
3.375000e+00 0.000000e+00 0.000000e+00
3.375159e+00 1.999434e-01 0.000000e+00
3.375297e+00 3.999746e-01 0.000000e+00
3.375412e+00 6.000841e-01 0.000000e+00
3.375504e+00 8.002610e-01 0.000000e+00
3.375573e+00 1.000490e+00 0.000000e+00
3.375622e+00 1.200751e+00 0.000000e+00
3.375657e+00 1.401031e+00 0.000000e+00
3.375686e+00 1.601319e+00 0.000000e+00
3.375717e+00 1.801615e+00 0.000000e+00
3.375758e+00 2.001925e+00 0.000000e+00
3.600000e+00 0.000000e+00 0.000000e+00
3.600000e+00 1.999549e-01 0.000000e+00
3.600000e+00 3.999865e-01 0.000000e+00
3.600000e+00 6.000925e-01 0.000000e+00
3.600000e+00 8.002650e-01 0.000000e+00
3.600000e+00 1.000489e+00 0.000000e+00
3.600000e+00 1.200747e+00 0.000000e+00
3.600000e+00 1.401024e+00 0.000000e+00
3.600000e+00 1.601310e+00 0.000000e+00
3.600000e+00 1.801607e+00 0.000000e+00
3.600000e+00 2.001919e+00 0.000000e+00
</DataArray>
</Points>
<Cells>
<DataArray Name="connectivity" type="Int32" format="ascii">
0 11 12 1
1 12 13 2
2 13 14 3
3 14 15 4
4 15 16 5
5 16 17 6
6 17 18 7
7 18 19 8
8 19 20 9
9 20 21 10
11 22 23 12
12 23 24 13
13 24 25 14
14 25 26 15
15 26 27 16
16 27 28 17
17 28 29 18
18 29 30 19
19 30 31 20
20 31 32 21
22 33 34 23
23 34 35 24
24 35 36 25
25 36 37 26
26 37 38 27
27 38 39 28
28 39 40 29
29 40 41 30
30 41 42 31
31 42 43 32
33 44 45 34
34 45 46 35
35 46 47 36
36 47 48 37
37 48 49 38
38 49 50 39
39 50 51 40
40 51 52 41
41 52 53 42
42 53 54 43
44 55 56 45
45 56 57 46
46 57 58 47
47 58 59 48
48 59 60 49
49 60 61 50
50 61 62 51
51 62 63 52
52 63 64 53
53 64 65 54
55 66 67 56
56 67 68 57
57 68 69 58
58 69 70 59
59 70 71 60
60 71 72 61
61 72 73 62
62 73 74 63
63 74 75 64
64 75 76 65
66 77 78 67
67 78 79 68
68 79 80 69
69 80 81 70
70 81 82 71
71 82 83 72
72 83 84 73
73 84 85 74
74 85 86 75
75 86 87 76
77 88 89 78
78 89 90 79
79 90 91 80
80 91 92 81
81 92 93 82
82 93 94 83
83 94 95 84
84 95 96 85
85 96 97 86
86 97 98 87
88 99 100 89
89 100 101 90
90 101 102 91
91 102 103 92
92 103 104 93
93 104 105 94
94 105 106 95
95 106 107 96
96 107 108 97
97 108 109 98
99 110 111 100
100 111 112 101
101 112 113 102
102 113 114 103
103 114 115 104
104 115 116 105
105 116 117 106
106 117 118 107
107 118 119 108
108 119 120 109
110 121 122 111
111 122 123 112
112 123 124 113
113 124 125 114
114 125 126 115
115 126 127 116
116 127 128 117
117 128 129 118
118 129 130 119
119 130 131 120
121 132 133 122
122 133 134 123
123 134 135 124
124 135 136 125
125 136 137 126
126 137 138 127
127 138 139 128
128 139 140 129
129 140 141 130
130 141 142 131
132 143 144 133
133 144 145 134
134 145 146 135
135 146 147 136
136 147 148 137
137 148 149 138
138 149 150 139
139 150 151 140
140 151 152 141
141 152 153 142
143 154 155 144
144 155 156 145
145 156 157 146
146 157 158 147
147 158 159 148
148 159 160 149
149 160 161 150
150 161 162 151
151 162 163 152
152 163 164 153
154 165 166 155
155 166 167 156
156 167 168 157
157 168 169 158
158 169 170 159
159 170 171 160
160 171 172 161
161 172 173 162
162 173 174 163
163 174 175 164
165 176 177 166
166 177 178 167
167 178 179 168
168 179 180 169
169 180 181 170
170 181 182 171
171 182 183 172
172 183 184 173
173 184 185 174
174 185 186 175
</DataArray>
<DataArray Name="offsets" type="Int32" format="ascii">
4
8
12
16
20
24
28
32
36
40
44
48
52
56
60
64
68
72
76
80
84
88
92
96
100
104
108
112
116
120
124
128
132
136
140
144
148
152
156
160
164
168
172
176
180
184
188
192
196
200
204
208
212
216
220
224
228
232
236
240
244
248
252
256
260
264
268
272
276
280
284
288
292
296
300
304
308
312
316
320
324
328
332
336
340
344
348
352
356
360
364
368
372
376
380
384
388
392
396
400
404
408
412
416
420
424
428
432
436
440
444
448
452
456
460
464
468
472
476
480
484
488
492
496
500
504
508
512
516
520
524
528
532
536
540
544
548
552
556
560
564
568
572
576
580
584
588
592
596
600
604
608
612
616
620
624
628
632
636
640
</DataArray>
<DataArray Name="types" type="UInt8" format="ascii">
9
9
9
9
9
9
9
9
9
9
9
9
9
9
9
9
9
9
9
9
9
9
9
9
9
9
9
9
9
9
9
9
9
9
9
9
9
9
9
9
9
9
9
9
9
9
9
9
9
9
9
9
9
9
9
9
9
9
9
9
9
9
9
9
9
9
9
9
9
9
9
9
9
9
9
9
9
9
9
9
9
9
9
9
9
9
9
9
9
9
9
9
9
9
9
9
9
9
9
9
9
9
9
9
9
9
9
9
9
9
9
9
9
9
9
9
9
9
9
9
9
9
9
9
9
9
9
9
9
9
9
9
9
9
9
9
9
9
9
9
9
9
9
9
9
9
9
9
9
9
9
9
9
9
9
9
9
9
9
9
</DataArray>
</Cells>
<PointData>
<DataArray Name="disp" type="Float64" NumberOfComponents="3" format="ascii">
0.000000e+00 0.000000e+00 0.000000e+00
0.000000e+00 -2.569663e-03 0.000000e+00
0.000000e+00 -6.022396e-03 0.000000e+00
0.000000e+00 -1.031584e-02 0.000000e+00
0.000000e+00 -1.548093e-02 0.000000e+00
0.000000e+00 -2.179537e-02 0.000000e+00
0.000000e+00 -2.850398e-02 0.000000e+00
0.000000e+00 -3.439526e-02 0.000000e+00
0.000000e+00 -3.913616e-02 0.000000e+00
0.000000e+00 -4.276533e-02 0.000000e+00
0.000000e+00 -4.612500e-02 0.000000e+00
0.000000e+00 0.000000e+00 0.000000e+00
1.224410e-03 -2.424775e-03 0.000000e+00
2.405946e-03 -5.703355e-03 0.000000e+00
3.549570e-03 -9.731422e-03 0.000000e+00
4.711961e-03 -1.448659e-02 0.000000e+00
5.514288e-03 -1.988492e-02 0.000000e+00
5.254138e-03 -2.585952e-02 0.000000e+00
3.902080e-03 -3.185735e-02 0.000000e+00
2.172937e-03 -3.750356e-02 0.000000e+00
4.986600e-04 -4.256675e-02 0.000000e+00
0.000000e+00 -4.612500e-02 0.000000e+00
0.000000e+00 0.000000e+00 0.000000e+00
2.380413e-03 -1.940703e-03 0.000000e+00
4.498572e-03 -4.513328e-03 0.000000e+00
6.376081e-03 -7.610928e-03 0.000000e+00
7.942240e-03 -1.113102e-02 0.000000e+00
9.058965e-03 -1.501199e-02 0.000000e+00
9.190573e-03 -1.934084e-02 0.000000e+00
8.521820e-03 -2.456149e-02 0.000000e+00
7.075706e-03 -3.095675e-02 0.000000e+00
4.661088e-03 -3.844244e-02 0.000000e+00
0.000000e+00 -4.612500e-02 0.000000e+00
0.000000e+00 0.000000e+00 0.000000e+00
3.083865e-03 -1.219877e-03 0.000000e+00
5.639813e-03 -2.575597e-03 0.000000e+00
7.760840e-03 -3.897869e-03 0.000000e+00
9.493594e-03 -5.084082e-03 0.000000e+00
1.075752e-02 -6.100010e-03 0.000000e+00
1.133404e-02 -6.960136e-03 0.000000e+00
1.137765e-02 -7.556618e-03 0.000000e+00
1.080803e-02 -7.821157e-03 0.000000e+00
8.970784e-03 -7.630546e-03 0.000000e+00
4.526724e-03 -7.099563e-03 0.000000e+00
0.000000e+00 0.000000e+00 0.000000e+00
3.277762e-03 -9.309969e-04 0.000000e+00
5.704466e-03 -1.797321e-03 0.000000e+00
7.597672e-03 -2.515791e-03 0.000000e+00
9.064792e-03 -3.072130e-03 0.000000e+00
1.006869e-02 -3.443628e-03 0.000000e+00
1.049538e-02 -3.622691e-03 0.000000e+00
1.035999e-02 -3.602243e-03 0.000000e+00
9.545714e-03 -3.322372e-03 0.000000e+00
7.624168e-03 -2.898476e-03 0.000000e+00
4.707511e-03 -2.886854e-03 0.000000e+00
0.000000e+00 0.000000e+00 0.000000e+00
3.232865e-03 -6.011587e-04 0.000000e+00
5.404264e-03 -1.098676e-03 0.000000e+00
7.044194e-03 -1.448300e-03 0.000000e+00
8.278546e-03 -1.641326e-03 0.000000e+00
9.072248e-03 -1.664300e-03 0.000000e+00
9.369069e-03 -1.523581e-03 0.000000e+00
9.134271e-03 -1.222328e-03 0.000000e+00
8.279331e-03 -8.043454e-04 0.000000e+00
6.799285e-03 -4.564546e-04 0.000000e+00
5.028762e-03 -3.667651e-04 0.000000e+00
0.000000e+00 0.000000e+00 0.000000e+00
2.979917e-03 -3.681199e-04 0.000000e+00
4.888322e-03 -6.118909e-04 0.000000e+00
6.305065e-03 -7.188850e-04 0.000000e+00
7.340235e-03 -6.758114e-04 0.000000e+00
7.986560e-03 -4.944932e-04 0.000000e+00
8.191829e-03 -1.857705e-04 0.000000e+00
7.929054e-03 2.212243e-04 0.000000e+00
7.225106e-03 6.457101e-04 0.000000e+00
6.201214e-03 9.529967e-04 0.000000e+00
5.134524e-03 1.045795e-03 0.000000e+00
0.000000e+00 0.000000e+00 0.000000e+00
2.612416e-03 -2.141672e-04 0.000000e+00
4.261655e-03 -2.902356e-04 0.000000e+00
5.483353e-03 -2.288851e-04 0.000000e+00
6.367189e-03 -5.366488e-05 0.000000e+00
6.896598e-03 2.335425e-04 0.000000e+00
7.043977e-03 6.190326e-04 0.000000e+00
6.832705e-03 1.052342e-03 0.000000e+00
6.334434e-03 1.452605e-03 0.000000e+00
5.679769e-03 1.731903e-03 0.000000e+00
5.068454e-03 1.851362e-03 0.000000e+00
0.000000e+00 0.000000e+00 0.000000e+00
2.189967e-03 -1.149507e-04 0.000000e+00
3.598837e-03 -8.277583e-05 0.000000e+00
4.652736e-03 6.119989e-05 0.000000e+00
5.408608e-03 3.070487e-04 0.000000e+00
5.845839e-03 6.475470e-04 0.000000e+00
5.977681e-03 1.053482e-03 0.000000e+00
5.851804e-03 1.474085e-03 0.000000e+00
5.544955e-03 1.843875e-03 0.000000e+00
5.165805e-03 2.112471e-03 0.000000e+00
4.855026e-03 2.262527e-03 0.000000e+00
0.000000e+00 0.000000e+00 0.000000e+00
1.758242e-03 -6.380948e-05 0.000000e+00
2.952168e-03 2.196355e-05 0.000000e+00
3.854299e-03 2.071984e-04 0.000000e+00
4.493860e-03 4.834688e-04 0.000000e+00
4.866817e-03 8.364279e-04 0.000000e+00
5.008263e-03 1.232387e-03 0.000000e+00
4.967570e-03 1.624846e-03 0.000000e+00
4.812955e-03 1.968684e-03 0.000000e+00
4.627962e-03 2.236267e-03 0.000000e+00
4.514465e-03 2.419612e-03 0.000000e+00
0.000000e+00 0.000000e+00 0.000000e+00
1.360752e-03 -3.897193e-05 0.000000e+00
2.350785e-03 6.136693e-05 0.000000e+00
3.111011e-03 2.563736e-04 0.000000e+00
3.646293e-03 5.341931e-04 0.000000e+00
3.974459e-03 8.745003e-04 0.000000e+00
4.131023e-03 1.243712e-03 0.000000e+00
4.158284e-03 1.605507e-03 0.000000e+00
4.111032e-03 1.931322e-03 0.000000e+00
4.054532e-03 2.203285e-03 0.000000e+00
4.064944e-03 2.418966e-03 0.000000e+00
0.000000e+00 0.000000e+00 0.000000e+00
1.020085e-03 -3.109764e-05 0.000000e+00
1.817072e-03 5.906587e-05 0.000000e+00
2.437590e-03 2.442626e-04 0.000000e+00
2.883068e-03 5.064833e-04 0.000000e+00
3.171306e-03 8.197838e-04 0.000000e+00
3.332723e-03 1.158430e-03 0.000000e+00
3.402295e-03 1.494661e-03 0.000000e+00
3.422224e-03 1.807523e-03 0.000000e+00
3.443331e-03 2.085405e-03 0.000000e+00
3.520712e-03 2.331130e-03 0.000000e+00
0.000000e+00 0.000000e+00 0.000000e+00
7.422059e-04 -3.673902e-05 0.000000e+00
1.353789e-03 3.550295e-05 0.000000e+00
1.839239e-03 1.998094e-04 0.000000e+00
2.200317e-03 4.371598e-04 0.000000e+00
2.446144e-03 7.231380e-04 0.000000e+00
2.597522e-03 1.033963e-03 0.000000e+00
2.684023e-03 1.348646e-03 0.000000e+00
2.738271e-03 1.651804e-03 0.000000e+00
2.797917e-03 1.935748e-03 0.000000e+00
2.900706e-03 2.205452e-03 0.000000e+00
0.000000e+00 0.000000e+00 0.000000e+00
5.158976e-04 -4.460279e-05 0.000000e+00
9.549353e-04 7.319459e-06 0.000000e+00
1.311816e-03 1.470949e-04 0.000000e+00
1.586287e-03 3.590524e-04 0.000000e+00
1.781366e-03 6.203599e-04 0.000000e+00
1.909029e-03 9.086555e-04 0.000000e+00
1.992135e-03 1.206580e-03 0.000000e+00
2.055037e-03 1.502499e-03 0.000000e+00
2.123594e-03 1.792033e-03 0.000000e+00
2.222877e-03 2.080274e-03 0.000000e+00
0.000000e+00 0.000000e+00 0.000000e+00
3.255554e-04 -5.307331e-05 0.000000e+00
6.088467e-04 -1.564053e-05 0.000000e+00
8.419165e-04 1.047752e-04 0.000000e+00
1.026355e-03 2.951685e-04 0.000000e+00
1.161872e-03 5.368187e-04 0.000000e+00
1.254797e-03 8.087839e-04 0.000000e+00
1.318760e-03 1.094916e-03 0.000000e+00
1.370792e-03 1.386113e-03 0.000000e+00
1.427462e-03 1.679865e-03 0.000000e+00
1.503652e-03 1.981518e-03 0.000000e+00
0.000000e+00 0.000000e+00 0.000000e+00
1.589592e-04 -5.663073e-05 0.000000e+00
2.967111e-04 -2.537315e-05 0.000000e+00
4.115692e-04 8.403728e-05 0.000000e+00
5.036195e-04 2.610014e-04 0.000000e+00
5.729591e-04 4.896062e-04 0.000000e+00
6.222176e-04 7.514814e-04 0.000000e+00
6.566920e-04 1.030882e-03 0.000000e+00
6.855939e-04 1.319106e-03 0.000000e+00
7.172690e-04 1.615223e-03 0.000000e+00
7.579817e-04 1.924762e-03 0.000000e+00
0.000000e+00 0.000000e+00 0.000000e+00
0.000000e+00 -4.515244e-05 0.000000e+00
0.000000e+00 -1.348912e-05 0.000000e+00
0.000000e+00 9.244777e-05 0.000000e+00
0.000000e+00 2.649338e-04 0.000000e+00
0.000000e+00 4.887474e-04 0.000000e+00
0.000000e+00 7.470069e-04 0.000000e+00
0.000000e+00 1.023488e-03 0.000000e+00
0.000000e+00 1.310374e-03 0.000000e+00
0.000000e+00 1.606969e-03 0.000000e+00
0.000000e+00 1.918641e-03 0.000000e+00
</DataArray>
<DataArray Name="shear" type="Float64" NumberOfComponents="1" format="ascii">
1.467428e-02
2.046991e-02
2.998464e-02
3.929210e-02
4.886946e-02
5.582307e-02
5.464094e-02
4.545015e-02
3.303083e-02
2.208926e-02
1.802036e-02
1.516801e-02
2.055200e-02
2.921853e-02
3.733205e-02
4.480302e-02
5.054515e-02
5.234104e-02
4.989432e-02
4.393467e-02
3.349612e-02
2.483639e-02
1.658622e-02
2.039840e-02
2.672155e-02
3.309151e-02
3.957305e-02
4.610987e-02
5.403948e-02
6.411007e-02
7.378486e-02
7.758842e-02
7.702682e-02
1.734339e-02
1.840271e-02
2.027661e-02
2.318923e-02
2.706976e-02
3.152356e-02
3.749767e-02
4.613145e-02
5.623760e-02
6.469210e-02
7.079182e-02
1.735983e-02
1.630093e-02
1.454239e-02
1.400794e-02
1.389568e-02
1.364169e-02
1.334453e-02
1.293628e-02
1.118245e-02
6.333666e-03
1.458861e-03
1.669521e-02
1.487675e-02
1.220429e-02
1.131383e-02
1.090768e-02
1.045772e-02
9.884479e-03
9.076759e-03
7.361746e-03
3.894526e-03
9.705739e-04
1.518665e-02
1.307569e-02
1.025935e-02
9.438491e-03
9.070849e-03
8.707009e-03
8.249616e-03
7.508523e-03
6.008851e-03
3.411137e-03
1.405201e-03
1.323177e-02
1.126260e-02
8.809355e-03
8.163422e-03
7.862984e-03
7.638073e-03
7.333417e-03
6.665274e-03
5.355214e-03
3.332156e-03
1.857593e-03
1.106435e-02
9.474859e-03
7.601352e-03
7.135374e-03
6.967953e-03
6.880648e-03
6.655667e-03
6.060097e-03
4.976664e-03
3.443212e-03
2.391245e-03
8.886893e-03
7.766711e-03
6.515156e-03
6.245386e-03
6.225619e-03
6.233132e-03
6.061609e-03
5.576220e-03
4.750422e-03
3.647874e-03
2.929641e-03
6.887649e-03
6.196996e-03
5.496497e-03
5.426527e-03
5.537149e-03
5.623294e-03
5.530332e-03
5.194620e-03
4.624190e-03
3.888890e-03
3.436556e-03
5.165025e-03
4.786352e-03
4.515093e-03
4.657615e-03
4.892988e-03
5.063426e-03
5.079221e-03
4.903635e-03
4.558545e-03
4.127118e-03
3.885253e-03
3.750128e-03
3.565973e-03
3.612722e-03
3.959285e-03
4.330898e-03
4.597752e-03
4.718044e-03
4.683652e-03
4.526806e-03
4.334889e-03
4.248651e-03
2.599581e-03
2.537692e-03
2.829809e-03
3.363916e-03
3.869383e-03
4.234207e-03
4.444085e-03
4.522299e-03
4.514820e-03
4.502232e-03
4.525619e-03
1.639109e-03
1.678541e-03
2.211526e-03
2.908057e-03
3.521454e-03
3.969570e-03
4.251711e-03
4.412942e-03
4.512293e-03
4.622824e-03
4.719547e-03
8.077521e-04
1.003171e-03
1.809013e-03
2.623409e-03
3.302842e-03
3.805623e-03
4.138645e-03
4.350691e-03
4.512206e-03
4.694175e-03
4.832301e-03
2.821463e-04
7.094305e-04
1.669544e-03
2.525031e-03
3.225463e-03
3.747443e-03
4.099894e-03
4.329695e-03
4.512076e-03
4.716969e-03
4.867602e-03
</DataArray>
<DataArray Name="stress" type="Float64" NumberOfComponents="9" format="ascii">
-1.097507e+05 4.869992e+03 0.000000e+00 4.869992e+03 -1.806862e+05 0.000000e+00 0.000000e+00 0.000000e+00 0.000000e+00
-9.783401e+04 4.052513e+03 0.000000e+00 4.052513e+03 -1.789081e+05 0.000000e+00 0.000000e+00 0.000000e+00 0.000000e+00
-9.159108e+04 3.016324e+03 0.000000e+00 3.016324e+03 -1.878228e+05 0.000000e+00 0.000000e+00 0.000000e+00 0.000000e+00
-9.120748e+04 2.731461e+03 0.000000e+00 2.731461e+03 -1.947948e+05 0.000000e+00 0.000000e+00 0.000000e+00 0.000000e+00
-1.007598e+05 3.399106e+03 0.000000e+00 3.399106e+03 -2.007614e+05 0.000000e+00 0.000000e+00 0.000000e+00 0.000000e+00
-1.137146e+05 5.212230e+03 0.000000e+00 5.212230e+03 -2.052780e+05 0.000000e+00 0.000000e+00 0.000000e+00 0.000000e+00
-1.164278e+05 7.498862e+03 0.000000e+00 7.498862e+03 -2.148919e+05 0.000000e+00 0.000000e+00 0.000000e+00 0.000000e+00
-1.115893e+05 6.989846e+03 0.000000e+00 6.989846e+03 -2.300656e+05 0.000000e+00 0.000000e+00 0.000000e+00 0.000000e+00
-1.174764e+05 4.947255e+03 0.000000e+00 4.947255e+03 -2.376675e+05 0.000000e+00 0.000000e+00 0.000000e+00 0.000000e+00
-1.343951e+05 -2.114281e+02 0.000000e+00 -2.114281e+02 -2.409523e+05 0.000000e+00 0.000000e+00 0.000000e+00 0.000000e+00
-1.420076e+05 -1.020359e+03 0.000000e+00 -1.020359e+03 -2.385498e+05 0.000000e+00 0.000000e+00 0.000000e+00 0.000000e+00
-1.080426e+05 1.370490e+04 0.000000e+00 1.370490e+04 -1.714627e+05 0.000000e+00 0.000000e+00 0.000000e+00 0.000000e+00
-9.671059e+04 1.171204e+04 0.000000e+00 1.171204e+04 -1.694442e+05 0.000000e+00 0.000000e+00 0.000000e+00 0.000000e+00
-9.142109e+04 9.815737e+03 0.000000e+00 9.815737e+03 -1.785324e+05 0.000000e+00 0.000000e+00 0.000000e+00 0.000000e+00
-9.221523e+04 1.004491e+04 0.000000e+00 1.004491e+04 -1.876064e+05 0.000000e+00 0.000000e+00 0.000000e+00 0.000000e+00
-9.922948e+04 1.188226e+04 0.000000e+00 1.188226e+04 -1.981545e+05 0.000000e+00 0.000000e+00 0.000000e+00 0.000000e+00
-1.089418e+05 1.296165e+04 0.000000e+00 1.296165e+04 -2.091524e+05 0.000000e+00 0.000000e+00 0.000000e+00 0.000000e+00
-1.151936e+05 1.245969e+04 0.000000e+00 1.245969e+04 -2.199847e+05 0.000000e+00 0.000000e+00 0.000000e+00 0.000000e+00
-1.134324e+05 1.022356e+04 0.000000e+00 1.022356e+04 -2.318148e+05 0.000000e+00 0.000000e+00 0.000000e+00 0.000000e+00
-1.177285e+05 6.842078e+03 0.000000e+00 6.842078e+03 -2.409273e+05 0.000000e+00 0.000000e+00 0.000000e+00 0.000000e+00
-1.277624e+05 6.208241e+02 0.000000e+00 6.208241e+02 -2.454770e+05 0.000000e+00 0.000000e+00 0.000000e+00 0.000000e+00
-1.457176e+05 -5.579547e+03 0.000000e+00 -5.579547e+03 -2.640644e+05 0.000000e+00 0.000000e+00 0.000000e+00 0.000000e+00
-1.024280e+05 2.283917e+04 0.000000e+00 2.283917e+04 -1.480676e+05 0.000000e+00 0.000000e+00 0.000000e+00 0.000000e+00
-9.388607e+04 2.063296e+04 0.000000e+00 2.063296e+04 -1.455743e+05 0.000000e+00 0.000000e+00 0.000000e+00 0.000000e+00
-9.201451e+04 1.982708e+04 0.000000e+00 1.982708e+04 -1.522942e+05 0.000000e+00 0.000000e+00 0.000000e+00 0.000000e+00
-9.604908e+04 2.179804e+04 0.000000e+00 2.179804e+04 -1.608993e+05 0.000000e+00 0.000000e+00 0.000000e+00 0.000000e+00
-1.044479e+05 2.550049e+04 0.000000e+00 2.550049e+04 -1.711841e+05 0.000000e+00 0.000000e+00 0.000000e+00 0.000000e+00
-1.128405e+05 2.741969e+04 0.000000e+00 2.741969e+04 -1.809362e+05 0.000000e+00 0.000000e+00 0.000000e+00 0.000000e+00
-1.185232e+05 2.873023e+04 0.000000e+00 2.873023e+04 -1.911823e+05 0.000000e+00 0.000000e+00 0.000000e+00 0.000000e+00
-1.239676e+05 2.859245e+04 0.000000e+00 2.859245e+04 -2.031632e+05 0.000000e+00 0.000000e+00 0.000000e+00 0.000000e+00
-1.367518e+05 2.906915e+04 0.000000e+00 2.906915e+04 -2.175653e+05 0.000000e+00 0.000000e+00 0.000000e+00 0.000000e+00
-1.469444e+05 2.152567e+04 0.000000e+00 2.152567e+04 -2.365690e+05 0.000000e+00 0.000000e+00 0.000000e+00 0.000000e+00
-1.641371e+05 1.062040e+04 0.000000e+00 1.062040e+04 -2.679136e+05 0.000000e+00 0.000000e+00 0.000000e+00 0.000000e+00
-9.471185e+04 2.514097e+04 0.000000e+00 2.514097e+04 -1.221096e+05 0.000000e+00 0.000000e+00 0.000000e+00 0.000000e+00
-8.956015e+04 2.376633e+04 0.000000e+00 2.376633e+04 -1.197187e+05 0.000000e+00 0.000000e+00 0.000000e+00 0.000000e+00
-8.946705e+04 2.363455e+04 0.000000e+00 2.363455e+04 -1.204852e+05 0.000000e+00 0.000000e+00 0.000000e+00 0.000000e+00
-9.346642e+04 2.524831e+04 0.000000e+00 2.524831e+04 -1.204444e+05 0.000000e+00 0.000000e+00 0.000000e+00 0.000000e+00
-9.929358e+04 2.702196e+04 0.000000e+00 2.702196e+04 -1.189937e+05 0.000000e+00 0.000000e+00 0.000000e+00 0.000000e+00
-1.037696e+05 2.716524e+04 0.000000e+00 2.716524e+04 -1.155934e+05 0.000000e+00 0.000000e+00 0.000000e+00 0.000000e+00
-1.045648e+05 2.747917e+04 0.000000e+00 2.747917e+04 -1.109165e+05 0.000000e+00 0.000000e+00 0.000000e+00 0.000000e+00
-1.024577e+05 2.649767e+04 0.000000e+00 2.649767e+04 -1.040728e+05 0.000000e+00 0.000000e+00 0.000000e+00 0.000000e+00
-9.892765e+04 2.367201e+04 0.000000e+00 2.367201e+04 -9.322987e+04 0.000000e+00 0.000000e+00 0.000000e+00 0.000000e+00
-8.836213e+04 1.638004e+04 0.000000e+00 1.638004e+04 -7.970409e+04 0.000000e+00 0.000000e+00 0.000000e+00 0.000000e+00
-7.022038e+04 1.071274e+04 0.000000e+00 1.071274e+04 -6.907080e+04 0.000000e+00 0.000000e+00 0.000000e+00 0.000000e+00
-9.047848e+04 2.479334e+04 0.000000e+00 2.479334e+04 -1.079019e+05 0.000000e+00 0.000000e+00 0.000000e+00 0.000000e+00
-8.913559e+04 2.400992e+04 0.000000e+00 2.400992e+04 -1.067922e+05 0.000000e+00 0.000000e+00 0.000000e+00 0.000000e+00
-9.200186e+04 2.377381e+04 0.000000e+00 2.377381e+04 -1.063415e+05 0.000000e+00 0.000000e+00 0.000000e+00 0.000000e+00
-9.767484e+04 2.437464e+04 0.000000e+00 2.437464e+04 -1.047020e+05 0.000000e+00 0.000000e+00 0.000000e+00 0.000000e+00
-1.036598e+05 2.468845e+04 0.000000e+00 2.468845e+04 -1.018113e+05 0.000000e+00 0.000000e+00 0.000000e+00 0.000000e+00
-1.082645e+05 2.391371e+04 0.000000e+00 2.391371e+04 -9.760766e+04 0.000000e+00 0.000000e+00 0.000000e+00 0.000000e+00
-1.096605e+05 2.220329e+04 0.000000e+00 2.220329e+04 -9.167775e+04 0.000000e+00 0.000000e+00 0.000000e+00 0.000000e+00
-1.090490e+05 1.954846e+04 0.000000e+00 1.954846e+04 -8.425397e+04 0.000000e+00 0.000000e+00 0.000000e+00 0.000000e+00
-1.062674e+05 1.458926e+04 0.000000e+00 1.458926e+04 -7.578491e+04 0.000000e+00 0.000000e+00 0.000000e+00 0.000000e+00
-9.295173e+04 6.105772e+03 0.000000e+00 6.105772e+03 -6.811507e+04 0.000000e+00 0.000000e+00 0.000000e+00 0.000000e+00
-6.495079e+04 4.916698e+02 0.000000e+00 4.916698e+02 -5.746843e+04 0.000000e+00 0.000000e+00 0.000000e+00 0.000000e+00
-8.540923e+04 2.345249e+04 0.000000e+00 2.345249e+04 -9.565447e+04 0.000000e+00 0.000000e+00 0.000000e+00 0.000000e+00
-8.742703e+04 2.284860e+04 0.000000e+00 2.284860e+04 -9.541062e+04 0.000000e+00 0.000000e+00 0.000000e+00 0.000000e+00
-9.218117e+04 2.197381e+04 0.000000e+00 2.197381e+04 -9.378673e+04 0.000000e+00 0.000000e+00 0.000000e+00 0.000000e+00
-9.804603e+04 2.153302e+04 0.000000e+00 2.153302e+04 -9.113367e+04 0.000000e+00 0.000000e+00 0.000000e+00 0.000000e+00
-1.030812e+05 2.048814e+04 0.000000e+00 2.048814e+04 -8.758256e+04 0.000000e+00 0.000000e+00 0.000000e+00 0.000000e+00
-1.063690e+05 1.842396e+04 0.000000e+00 1.842396e+04 -8.307114e+04 0.000000e+00 0.000000e+00 0.000000e+00 0.000000e+00
-1.069640e+05 1.544498e+04 0.000000e+00 1.544498e+04 -7.772981e+04 0.000000e+00 0.000000e+00 0.000000e+00 0.000000e+00
-1.050517e+05 1.152459e+04 0.000000e+00 1.152459e+04 -7.197431e+04 0.000000e+00 0.000000e+00 0.000000e+00 0.000000e+00
-9.950975e+04 5.987557e+03 0.000000e+00 5.987557e+03 -6.652725e+04 0.000000e+00 0.000000e+00 0.000000e+00 0.000000e+00
-8.380204e+04 2.382455e+02 0.000000e+00 2.382455e+02 -6.226055e+04 0.000000e+00 0.000000e+00 0.000000e+00 0.000000e+00
-6.259946e+04 -1.877139e+03 0.000000e+00 -1.877139e+03 -5.739236e+04 0.000000e+00 0.000000e+00 0.000000e+00 0.000000e+00
-8.064824e+04 2.158668e+04 0.000000e+00 2.158668e+04 -8.569097e+04 0.000000e+00 0.000000e+00 0.000000e+00 0.000000e+00
-8.551360e+04 2.106727e+04 0.000000e+00 2.106727e+04 -8.614227e+04 0.000000e+00 0.000000e+00 0.000000e+00 0.000000e+00
-9.151772e+04 1.950609e+04 0.000000e+00 1.950609e+04 -8.395952e+04 0.000000e+00 0.000000e+00 0.000000e+00 0.000000e+00
-9.693664e+04 1.812760e+04 0.000000e+00 1.812760e+04 -8.115809e+04 0.000000e+00 0.000000e+00 0.000000e+00 0.000000e+00
-1.010157e+05 1.612758e+04 0.000000e+00 1.612758e+04 -7.773684e+04 0.000000e+00 0.000000e+00 0.000000e+00 0.000000e+00
-1.033046e+05 1.341006e+04 0.000000e+00 1.341006e+04 -7.389737e+04 0.000000e+00 0.000000e+00 0.000000e+00 0.000000e+00
-1.030915e+05 9.974996e+03 0.000000e+00 9.974996e+03 -6.986176e+04 0.000000e+00 0.000000e+00 0.000000e+00 0.000000e+00
-1.001395e+05 5.852083e+03 0.000000e+00 5.852083e+03 -6.587470e+04 0.000000e+00 0.000000e+00 0.000000e+00 0.000000e+00
-9.335503e+04 1.287536e+03 0.000000e+00 1.287536e+03 -6.251169e+04 0.000000e+00 0.000000e+00 0.000000e+00 0.000000e+00
-8.042218e+04 -1.694315e+03 0.000000e+00 -1.694315e+03 -6.040499e+04 0.000000e+00 0.000000e+00 0.000000e+00 0.000000e+00
-6.647120e+04 -2.264568e+03 0.000000e+00 -2.264568e+03 -5.801705e+04 0.000000e+00 0.000000e+00 0.000000e+00 0.000000e+00
-7.655600e+04 1.947742e+04 0.000000e+00 1.947742e+04 -7.819020e+04 0.000000e+00 0.000000e+00 0.000000e+00 0.000000e+00
-8.331550e+04 1.897464e+04 0.000000e+00 1.897464e+04 -7.894052e+04 0.000000e+00 0.000000e+00 0.000000e+00 0.000000e+00
-8.986266e+04 1.689620e+04 0.000000e+00 1.689620e+04 -7.661868e+04 0.000000e+00 0.000000e+00 0.000000e+00 0.000000e+00
-9.488126e+04 1.485156e+04 0.000000e+00 1.485156e+04 -7.403472e+04 0.000000e+00 0.000000e+00 0.000000e+00 0.000000e+00
-9.832582e+04 1.242559e+04 0.000000e+00 1.242559e+04 -7.115549e+04 0.000000e+00 0.000000e+00 0.000000e+00 0.000000e+00
-9.981071e+04 9.483728e+03 0.000000e+00 9.483728e+03 -6.820538e+04 0.000000e+00 0.000000e+00 0.000000e+00 0.000000e+00
-9.897548e+04 6.003778e+03 0.000000e+00 6.003778e+03 -6.526623e+04 0.000000e+00 0.000000e+00 0.000000e+00 0.000000e+00
-9.556047e+04 2.280858e+03 0.000000e+00 2.280858e+03 -6.261629e+04 0.000000e+00 0.000000e+00 0.000000e+00 0.000000e+00
-8.934215e+04 -9.710571e+02 0.000000e+00 -9.710571e+02 -6.074223e+04 0.000000e+00 0.000000e+00 0.000000e+00 0.000000e+00
-7.976836e+04 -2.222721e+03 0.000000e+00 -2.222721e+03 -5.989051e+04 0.000000e+00 0.000000e+00 0.000000e+00 0.000000e+00
-7.072109e+04 -1.978333e+03 0.000000e+00 -1.978333e+03 -5.858756e+04 0.000000e+00 0.000000e+00 0.000000e+00 0.000000e+00
-7.309877e+04 1.740080e+04 0.000000e+00 1.740080e+04 -7.263457e+04 0.000000e+00 0.000000e+00 0.000000e+00 0.000000e+00
-8.078465e+04 1.683553e+04 0.000000e+00 1.683553e+04 -7.354441e+04 0.000000e+00 0.000000e+00 0.000000e+00 0.000000e+00
-8.763981e+04 1.446781e+04 0.000000e+00 1.446781e+04 -7.134411e+04 0.000000e+00 0.000000e+00 0.000000e+00 0.000000e+00
-9.241016e+04 1.210409e+04 0.000000e+00 1.210409e+04 -6.909775e+04 0.000000e+00 0.000000e+00 0.000000e+00 0.000000e+00
-9.529516e+04 9.486732e+03 0.000000e+00 9.486732e+03 -6.683715e+04 0.000000e+00 0.000000e+00 0.000000e+00 0.000000e+00
-9.625930e+04 6.516405e+03 0.000000e+00 6.516405e+03 -6.460132e+04 0.000000e+00 0.000000e+00 0.000000e+00 0.000000e+00
-9.512178e+04 3.285257e+03 0.000000e+00 3.285257e+03 -6.251146e+04 0.000000e+00 0.000000e+00 0.000000e+00 0.000000e+00
-9.195320e+04 2.341335e+02 0.000000e+00 2.341335e+02 -6.087948e+04 0.000000e+00 0.000000e+00 0.000000e+00 0.000000e+00
-8.704009e+04 -1.892048e+03 0.000000e+00 -1.892048e+03 -5.995414e+04 0.000000e+00 0.000000e+00 0.000000e+00 0.000000e+00
-8.039032e+04 -2.187705e+03 0.000000e+00 -2.187705e+03 -5.973678e+04 0.000000e+00 0.000000e+00 0.000000e+00 0.000000e+00
-7.458627e+04 -1.643877e+03 0.000000e+00 -1.643877e+03 -5.897891e+04 0.000000e+00 0.000000e+00 0.000000e+00 0.000000e+00
-7.015390e+04 1.544710e+04 0.000000e+00 1.544710e+04 -6.880453e+04 0.000000e+00 0.000000e+00 0.000000e+00 0.000000e+00
-7.814164e+04 1.476683e+04 0.000000e+00 1.476683e+04 -6.967565e+04 0.000000e+00 0.000000e+00 0.000000e+00 0.000000e+00
-8.514268e+04 1.229947e+04 0.000000e+00 1.229947e+04 -6.758167e+04 0.000000e+00 0.000000e+00 0.000000e+00 0.000000e+00
-8.965264e+04 9.837213e+03 0.000000e+00 9.837213e+03 -6.570338e+04 0.000000e+00 0.000000e+00 0.000000e+00 0.000000e+00
-9.220913e+04 7.207640e+03 0.000000e+00 7.207640e+03 -6.396849e+04 0.000000e+00 0.000000e+00 0.000000e+00 0.000000e+00
-9.289457e+04 4.364310e+03 0.000000e+00 4.364310e+03 -6.228614e+04 0.000000e+00 0.000000e+00 0.000000e+00 0.000000e+00
-9.180341e+04 1.540029e+03 0.000000e+00 1.540029e+03 -6.087539e+04 0.000000e+00 0.000000e+00 0.000000e+00 0.000000e+00
-8.934531e+04 -8.006208e+02 0.000000e+00 -8.006208e+02 -5.996486e+04 0.000000e+00 0.000000e+00 0.000000e+00 0.000000e+00
-8.584283e+04 -2.124847e+03 0.000000e+00 -2.124847e+03 -5.962034e+04 0.000000e+00 0.000000e+00 0.000000e+00 0.000000e+00
-8.146451e+04 -1.956020e+03 0.000000e+00 -1.956020e+03 -5.969802e+04 0.000000e+00 0.000000e+00 0.000000e+00 0.000000e+00
-7.789555e+04 -1.308282e+03 0.000000e+00 -1.308282e+03 -5.926958e+04 0.000000e+00 0.000000e+00 0.000000e+00 0.000000e+00
-6.786095e+04 1.336142e+04 0.000000e+00 1.336142e+04 -6.630970e+04 0.000000e+00 0.000000e+00 0.000000e+00 0.000000e+00
-7.560312e+04 1.270880e+04 0.000000e+00 1.270880e+04 -6.694613e+04 0.000000e+00 0.000000e+00 0.000000e+00 0.000000e+00
-8.260023e+04 1.039042e+04 0.000000e+00 1.039042e+04 -6.501027e+04 0.000000e+00 0.000000e+00 0.000000e+00 0.000000e+00
-8.691334e+04 7.996604e+03 0.000000e+00 7.996604e+03 -6.342875e+04 0.000000e+00 0.000000e+00 0.000000e+00 0.000000e+00
-8.923868e+04 5.465061e+03 0.000000e+00 5.465061e+03 -6.201812e+04 0.000000e+00 0.000000e+00 0.000000e+00 0.000000e+00
-8.985663e+04 2.867687e+03 0.000000e+00 2.867687e+03 -6.078961e+04 0.000000e+00 0.000000e+00 0.000000e+00 0.000000e+00
-8.914766e+04 5.274926e+02 0.000000e+00 5.274926e+02 -5.991648e+04 0.000000e+00 0.000000e+00 0.000000e+00 0.000000e+00
-8.753013e+04 -1.203443e+03 0.000000e+00 -1.203443e+03 -5.948850e+04 0.000000e+00 0.000000e+00 0.000000e+00 0.000000e+00
-8.528730e+04 -2.015383e+03 0.000000e+00 -2.015383e+03 -5.947983e+04 0.000000e+00 0.000000e+00 0.000000e+00 0.000000e+00
-8.264880e+04 -1.642309e+03 0.000000e+00 -1.642309e+03 -5.970782e+04 0.000000e+00 0.000000e+00 0.000000e+00 0.000000e+00
-8.062238e+04 -1.016036e+03 0.000000e+00 -1.016036e+03 -5.952608e+04 0.000000e+00 0.000000e+00 0.000000e+00 0.000000e+00
-6.643706e+04 1.138341e+04 0.000000e+00 1.138341e+04 -6.486920e+04 0.000000e+00 0.000000e+00 0.000000e+00 0.000000e+00
-7.344059e+04 1.073747e+04 0.000000e+00 1.073747e+04 -6.516777e+04 0.000000e+00 0.000000e+00 0.000000e+00 0.000000e+00
-8.015489e+04 8.659314e+03 0.000000e+00 8.659314e+03 -6.341143e+04 0.000000e+00 0.000000e+00 0.000000e+00 0.000000e+00
-8.426845e+04 6.415357e+03 0.000000e+00 6.415357e+03 -6.200730e+04 0.000000e+00 0.000000e+00 0.000000e+00 0.000000e+00
-8.649974e+04 4.095675e+03 0.000000e+00 4.095675e+03 -6.080141e+04 0.000000e+00 0.000000e+00 0.000000e+00 0.000000e+00
-8.728023e+04 1.874410e+03 0.000000e+00 1.874410e+03 -5.990226e+04 0.000000e+00 0.000000e+00 0.000000e+00 0.000000e+00
-8.708400e+04 1.569018e+01 0.000000e+00 1.569018e+01 -5.939958e+04 0.000000e+00 0.000000e+00 0.000000e+00 0.000000e+00
-8.627656e+04 -1.242820e+03 0.000000e+00 -1.242820e+03 -5.928125e+04 0.000000e+00 0.000000e+00 0.000000e+00 0.000000e+00
-8.508984e+04 -1.733241e+03 0.000000e+00 -1.733241e+03 -5.944821e+04 0.000000e+00 0.000000e+00 0.000000e+00 0.000000e+00
-8.375255e+04 -1.310459e+03 0.000000e+00 -1.310459e+03 -5.972900e+04 0.000000e+00 0.000000e+00 0.000000e+00 0.000000e+00
-8.280823e+04 -7.715233e+02 0.000000e+00 -7.715233e+02 -5.973281e+04 0.000000e+00 0.000000e+00 0.000000e+00 0.000000e+00
-6.541251e+04 9.307502e+03 0.000000e+00 9.307502e+03 -6.429643e+04 0.000000e+00 0.000000e+00 0.000000e+00 0.000000e+00
-7.157433e+04 8.727335e+03 0.000000e+00 8.727335e+03 -6.422382e+04 0.000000e+00 0.000000e+00 0.000000e+00 0.000000e+00
-7.790612e+04 6.970012e+03 0.000000e+00 6.970012e+03 -6.251886e+04 0.000000e+00 0.000000e+00 0.000000e+00 0.000000e+00
-8.185999e+04 5.005978e+03 0.000000e+00 5.005978e+03 -6.118178e+04 0.000000e+00 0.000000e+00 0.000000e+00 0.000000e+00
-8.412434e+04 3.014752e+03 0.000000e+00 3.014752e+03 -6.014059e+04 0.000000e+00 0.000000e+00 0.000000e+00 0.000000e+00
-8.520689e+04 1.225736e+03 0.000000e+00 1.225736e+03 -5.946621e+04 0.000000e+00 0.000000e+00 0.000000e+00 0.000000e+00
-8.553774e+04 -1.840775e+02 0.000000e+00 -1.840775e+02 -5.918784e+04 0.000000e+00 0.000000e+00 0.000000e+00 0.000000e+00
-8.542094e+04 -1.088991e+03 0.000000e+00 -1.088991e+03 -5.923195e+04 0.000000e+00 0.000000e+00 0.000000e+00 0.000000e+00
-8.506474e+04 -1.384252e+03 0.000000e+00 -1.384252e+03 -5.947281e+04 0.000000e+00 0.000000e+00 0.000000e+00 0.000000e+00
-8.468974e+04 -9.959688e+02 0.000000e+00 -9.959688e+02 -5.975090e+04 0.000000e+00 0.000000e+00 0.000000e+00 0.000000e+00
-8.451265e+04 -5.653097e+02 0.000000e+00 -5.653097e+02 -5.987780e+04 0.000000e+00 0.000000e+00 0.000000e+00 0.000000e+00
-6.470827e+04 7.072166e+03 0.000000e+00 7.072166e+03 -6.414000e+04 0.000000e+00 0.000000e+00 0.000000e+00 0.000000e+00
-7.008816e+04 6.602072e+03 0.000000e+00 6.602072e+03 -6.384516e+04 0.000000e+00 0.000000e+00 0.000000e+00 0.000000e+00
-7.600258e+04 5.249913e+03 0.000000e+00 5.249913e+03 -6.209394e+04 0.000000e+00 0.000000e+00 0.000000e+00 0.000000e+00
-7.984791e+04 3.674660e+03 0.000000e+00 3.674660e+03 -6.075254e+04 0.000000e+00 0.000000e+00 0.000000e+00 0.000000e+00
-8.220705e+04 2.132392e+03 0.000000e+00 2.132392e+03 -5.981305e+04 0.000000e+00 0.000000e+00 0.000000e+00 0.000000e+00
-8.362814e+04 7.934880e+02 0.000000e+00 7.934880e+02 -5.928664e+04 0.000000e+00 0.000000e+00 0.000000e+00 0.000000e+00
-8.441377e+04 -2.240043e+02 0.000000e+00 -2.240043e+02 -5.912578e+04 0.000000e+00 0.000000e+00 0.000000e+00 0.000000e+00
-8.484776e+04 -8.460060e+02 0.000000e+00 -8.460060e+02 -5.924564e+04 0.000000e+00 0.000000e+00 0.000000e+00 0.000000e+00
-8.511747e+04 -1.020991e+03 0.000000e+00 -1.020991e+03 -5.951542e+04 0.000000e+00 0.000000e+00 0.000000e+00 0.000000e+00
-8.541618e+04 -7.108708e+02 0.000000e+00 -7.108708e+02 -5.978474e+04 0.000000e+00 0.000000e+00 0.000000e+00 0.000000e+00
-8.576565e+04 -3.866013e+02 0.000000e+00 -3.866013e+02 -5.998216e+04 0.000000e+00 0.000000e+00 0.000000e+00 0.000000e+00
-6.425929e+04 4.749377e+03 0.000000e+00 4.749377e+03 -6.414039e+04 0.000000e+00 0.000000e+00 0.000000e+00 0.000000e+00
-6.903101e+04 4.400755e+03 0.000000e+00 4.400755e+03 -6.369350e+04 0.000000e+00 0.000000e+00 0.000000e+00 0.000000e+00
-7.456136e+04 3.471616e+03 0.000000e+00 3.471616e+03 -6.188575e+04 0.000000e+00 0.000000e+00 0.000000e+00 0.000000e+00
-7.836952e+04 2.397382e+03 0.000000e+00 2.397382e+03 -6.054811e+04 0.000000e+00 0.000000e+00 0.000000e+00 0.000000e+00
-8.084645e+04 1.371621e+03 0.000000e+00 1.371621e+03 -5.967936e+04 0.000000e+00 0.000000e+00 0.000000e+00 0.000000e+00
-8.251424e+04 4.815359e+02 0.000000e+00 4.815359e+02 -5.923639e+04 0.000000e+00 0.000000e+00 0.000000e+00 0.000000e+00
-8.364870e+04 -1.825482e+02 0.000000e+00 -1.825482e+02 -5.913118e+04 0.000000e+00 0.000000e+00 0.000000e+00 0.000000e+00
-8.448531e+04 -5.705027e+02 0.000000e+00 -5.705027e+02 -5.927786e+04 0.000000e+00 0.000000e+00 0.000000e+00 0.000000e+00
-8.518687e+04 -6.638035e+02 0.000000e+00 -6.638035e+02 -5.955610e+04 0.000000e+00 0.000000e+00 0.000000e+00 0.000000e+00
-8.593130e+04 -4.522471e+02 0.000000e+00 -4.522471e+02 -5.981175e+04 0.000000e+00 0.000000e+00 0.000000e+00 0.000000e+00
-8.660851e+04 -2.372483e+02 0.000000e+00 -2.372483e+02 -6.005819e+04 0.000000e+00 0.000000e+00 0.000000e+00 0.000000e+00
-6.394047e+04 2.266869e+03 0.000000e+00 2.266869e+03 -6.403088e+04 0.000000e+00 0.000000e+00 0.000000e+00 0.000000e+00
-6.839898e+04 2.130233e+03 0.000000e+00 2.130233e+03 -6.351991e+04 0.000000e+00 0.000000e+00 0.000000e+00 0.000000e+00
-7.367984e+04 1.695375e+03 0.000000e+00 1.695375e+03 -6.174736e+04 0.000000e+00 0.000000e+00 0.000000e+00 0.000000e+00
-7.748007e+04 1.176380e+03 0.000000e+00 1.176380e+03 -6.045627e+04 0.000000e+00 0.000000e+00 0.000000e+00 0.000000e+00
-8.003305e+04 6.703630e+02 0.000000e+00 6.703630e+02 -5.963604e+04 0.000000e+00 0.000000e+00 0.000000e+00 0.000000e+00
-8.184362e+04 2.279832e+02 0.000000e+00 2.279832e+02 -5.923195e+04 0.000000e+00 0.000000e+00 0.000000e+00 0.000000e+00
-8.320625e+04 -1.025132e+02 0.000000e+00 -1.025132e+02 -5.916263e+04 0.000000e+00 0.000000e+00 0.000000e+00 0.000000e+00
-8.428784e+04 -2.856331e+02 0.000000e+00 -2.856331e+02 -5.931944e+04 0.000000e+00 0.000000e+00 0.000000e+00 0.000000e+00
-8.523707e+04 -3.245925e+02 0.000000e+00 -3.245925e+02 -5.959561e+04 0.000000e+00 0.000000e+00 0.000000e+00 0.000000e+00
-8.623470e+04 -2.183773e+02 0.000000e+00 -2.183773e+02 -5.983218e+04 0.000000e+00 0.000000e+00 0.000000e+00 0.000000e+00
-8.708294e+04 -1.121978e+02 0.000000e+00 -1.121978e+02 -6.009911e+04 0.000000e+00 0.000000e+00 0.000000e+00 0.000000e+00
-6.372834e+04 5.286271e+02 0.000000e+00 5.286271e+02 -6.369304e+04 0.000000e+00 0.000000e+00 0.000000e+00 0.000000e+00
-6.815748e+04 5.777040e+02 0.000000e+00 5.777040e+02 -6.328271e+04 0.000000e+00 0.000000e+00 0.000000e+00 0.000000e+00
-7.338732e+04 4.853461e+02 0.000000e+00 4.853461e+02 -6.167631e+04 0.000000e+00 0.000000e+00 0.000000e+00 0.000000e+00
-7.718545e+04 3.197833e+02 0.000000e+00 3.197833e+02 -6.042800e+04 0.000000e+00 0.000000e+00 0.000000e+00 0.000000e+00
-7.976740e+04 1.319447e+02 0.000000e+00 1.319447e+02 -5.961872e+04 0.000000e+00 0.000000e+00 0.000000e+00 0.000000e+00
-8.162398e+04 -3.494776e+01 0.000000e+00 -3.494776e+01 -5.923179e+04 0.000000e+00 0.000000e+00 0.000000e+00 0.000000e+00
-8.306412e+04 -1.579087e+02 0.000000e+00 -1.579087e+02 -5.918371e+04 0.000000e+00 0.000000e+00 0.000000e+00 0.000000e+00
-8.423123e+04 -2.201158e+02 0.000000e+00 -2.201158e+02 -5.934641e+04 0.000000e+00 0.000000e+00 0.000000e+00 0.000000e+00
-8.525805e+04 -2.352679e+02 0.000000e+00 -2.352679e+02 -5.961580e+04 0.000000e+00 0.000000e+00 0.000000e+00 0.000000e+00
-8.633712e+04 -1.940800e+02 0.000000e+00 -1.940800e+02 -5.984427e+04 0.000000e+00 0.000000e+00 0.000000e+00 0.000000e+00
-8.723750e+04 -1.481904e+02 0.000000e+00 -1.481904e+02 -6.011187e+04 0.000000e+00 0.000000e+00 0.000000e+00 0.000000e+00
</DataArray>
<DataArray Name="vol_eps" type="Float64" NumberOfComponents="1" format="ascii">
-1.087197e-02
-9.505833e-03
-8.572417e-03
-7.685465e-03
-7.509613e-03
-8.210649e-03
-9.135983e-03
-1.085068e-02
-1.346481e-02
-1.592133e-02
-1.653465e-02
-1.015051e-02
-8.823182e-03
-8.087867e-03
-7.644713e-03
-7.811182e-03
-8.630629e-03
-9.614011e-03
-1.047302e-02
-1.210118e-02
-1.432504e-02
-1.780390e-02
-8.183719e-03
-7.119395e-03
-6.758886e-03
-6.805536e-03
-7.248126e-03
-7.764010e-03
-8.075946e-03
-8.233209e-03
-8.894004e-03
-1.034445e-02
-1.360866e-02
-5.825794e-03
-5.203742e-03
-5.015776e-03
-4.935878e-03
-4.811221e-03
-4.517567e-03
-3.545046e-03
-1.958834e-03
2.030605e-04
3.319521e-03
6.425811e-03
-4.528097e-03
-4.422260e-03
-4.712356e-03
-5.046719e-03
-5.296931e-03
-5.367201e-03
-5.071737e-03
-4.527638e-03
-3.835515e-03
-2.577160e-03
-7.806755e-05
-3.318197e-03
-3.598490e-03
-4.044867e-03
-4.351338e-03
-4.491646e-03
-4.433218e-03
-4.129732e-03
-3.636961e-03
-2.953927e-03
-1.664328e-03
4.615204e-05
-2.372031e-03
-2.952806e-03
-3.462306e-03
-3.699526e-03
-3.762109e-03
-3.666724e-03
-3.398146e-03
-2.960720e-03
-2.314843e-03
-1.325714e-03
-2.594303e-04
-1.704654e-03
-2.428282e-03
-2.924195e-03
-3.126273e-03
-3.174977e-03
-3.086843e-03
-2.848110e-03
-2.461777e-03
-1.938464e-03
-1.248372e-03
-5.725229e-04
-1.249005e-03
-2.004588e-03
-2.467493e-03
-2.662665e-03
-2.711118e-03
-2.631651e-03
-2.422918e-03
-2.117791e-03
-1.737083e-03
-1.276203e-03
-8.466857e-04
-9.558281e-04
-1.665651e-03
-2.084429e-03
-2.278277e-03
-2.334118e-03
-2.264769e-03
-2.103109e-03
-1.889207e-03
-1.634864e-03
-1.344273e-03
-1.079817e-03
-7.560300e-04
-1.379495e-03
-1.763474e-03
-1.954749e-03
-2.014215e-03
-1.971074e-03
-1.870141e-03
-1.738620e-03
-1.587453e-03
-1.423535e-03
-1.276475e-03
-6.250048e-04
-1.147683e-03
-1.498983e-03
-1.682949e-03
-1.750018e-03
-1.743286e-03
-1.700654e-03
-1.641104e-03
-1.572441e-03
-1.499284e-03
-1.436041e-03
-5.590311e-04
-9.799125e-04
-1.293701e-03
-1.468051e-03
-1.548041e-03
-1.576709e-03
-1.584011e-03
-1.580891e-03
-1.573339e-03
-1.565473e-03
-1.561009e-03
-5.321647e-04
-8.730256e-04
-1.144699e-03
-1.307552e-03
-1.400994e-03
-1.460587e-03
-1.505442e-03
-1.544023e-03
-1.580386e-03
-1.617808e-03
-1.653313e-03
-5.257041e-04
-8.064570e-04
-1.040225e-03
-1.196661e-03
-1.301871e-03
-1.382550e-03
-1.453383e-03
-1.521259e-03
-1.587394e-03
-1.653485e-03
-1.714253e-03
-5.118235e-04
-7.625081e-04
-9.777899e-04
-1.132034e-03
-1.244559e-03
-1.337745e-03
-1.424864e-03
-1.509954e-03
-1.592705e-03
-1.674402e-03
-1.748475e-03
-4.804275e-04
-7.346714e-04
-9.561191e-04
-1.111485e-03
-1.225919e-03
-1.323268e-03
-1.416740e-03
-1.507645e-03
-1.595276e-03
-1.682145e-03
-1.760177e-03
</DataArray>
</PointData>
</Piece>
</UnstructuredGrid>
</VTKFile>
