<?xml version="1.0"?>
<VTKFile type="UnstructuredGrid" version="0.1">
<UnstructuredGrid>
<FieldData>
<DataArray Name="TIME" type="Float64" format="ascii" NumberOfTuples="1">
0.000000e+00
</DataArray>
</FieldData>
<FieldData>
<DataArray Name="CYCLE" type="Int32" format="ascii" NumberOfTuples="1">
0
</DataArray>
</FieldData>
<Piece NumberOfPoints="187" NumberOfCells="160">
<Points>
<DataArray NumberOfComponents="3" type="Float64" format="ascii">
0.000000e+00 0.000000e+00 0.000000e+00
0.000000e+00 1.965476e-01 0.000000e+00
0.000000e+00 3.906466e-01 0.000000e+00
0.000000e+00 5.815951e-01 0.000000e+00
0.000000e+00 7.703071e-01 0.000000e+00
0.000000e+00 9.582919e-01 0.000000e+00
0.000000e+00 1.146504e+00 0.000000e+00
0.000000e+00 1.335558e+00 0.000000e+00
0.000000e+00 1.526929e+00 0.000000e+00
0.000000e+00 1.721973e+00 0.000000e+00
0.000000e+00 1.917875e+00 0.000000e+00
2.250000e-01 0.000000e+00 0.000000e+00
2.273028e-01 1.963621e-01 0.000000e+00
2.313755e-01 3.908000e-01 0.000000e+00
2.348301e-01 5.830346e-01 0.000000e+00
2.368623e-01 7.735651e-01 0.000000e+00
2.371659e-01 9.628525e-01 0.000000e+00
2.363945e-01 1.151745e+00 0.000000e+00
2.344609e-01 1.340874e+00 0.000000e+00
2.302713e-01 1.530707e+00 0.000000e+00
2.255975e-01 1.722417e+00 0.000000e+00
2.250000e-01 1.917875e+00 0.000000e+00
4.500000e-01 0.000000e+00 0.000000e+00
4.550194e-01 1.967893e-01 0.000000e+00
4.610062e-01 3.925669e-01 0.000000e+00
4.661706e-01 5.877773e-01 0.000000e+00
4.697003e-01 7.822291e-01 0.000000e+00
4.715722e-01 9.754300e-01 0.000000e+00
4.715732e-01 1.166833e+00 0.000000e+00
4.702623e-01 1.356748e+00 0.000000e+00
4.660222e-01 1.544925e+00 0.000000e+00
4.600671e-01 1.731396e+00 0.000000e+00
4.500000e-01 1.917875e+00 0.000000e+00
6.750000e-01 0.000000e+00 0.000000e+00
6.820703e-01 1.982539e-01 0.000000e+00
6.885046e-01 3.962613e-01 0.000000e+00
6.935012e-01 5.946328e-01 0.000000e+00
6.972009e-01 7.935017e-01 0.000000e+00
6.997414e-01 9.928074e-01 0.000000e+00
7.007274e-01 1.192685e+00 0.000000e+00
7.001685e-01 1.393004e+00 0.000000e+00
6.976600e-01 1.593635e+00 0.000000e+00
6.929181e-01 1.794121e+00 0.000000e+00
6.849600e-01 1.993519e+00 0.000000e+00
9.000000e-01 0.000000e+00 0.000000e+00
9.077597e-01 1.989689e-01 0.000000e+00
9.137268e-01 3.980160e-01 0.000000e+00
9.179538e-01 5.974306e-01 0.000000e+00
9.210463e-01 7.972656e-01 0.000000e+00
9.229999e-01 9.975780e-01 0.000000e+00
9.236053e-01 1.198283e+00 0.000000e+00
9.227570e-01 1.399313e+00 0.000000e+00
9.203413e-01 1.600419e+00 0.000000e+00
9.163049e-01 1.801285e+00 0.000000e+00
9.111059e-01 2.001391e+00 0.000000e+00
1.125000e+00 0.000000e+00 0.000000e+00
1.132821e+00 1.994946e-01 0.000000e+00
1.137970e+00 3.992045e-01 0.000000e+00
1.141599e+00 5.993302e-01 0.000000e+00
1.144200e+00 7.998508e-01 0.000000e+00
1.145731e+00 1.000731e+00 0.000000e+00
1.146098e+00 1.201916e+00 0.000000e+00
1.145233e+00 1.403253e+00 0.000000e+00
1.143136e+00 1.604515e+00 0.000000e+00
1.140056e+00 1.805334e+00 0.000000e+00
1.136911e+00 2.005398e+00 0.000000e+00
1.350000e+00 0.000000e+00 0.000000e+00
1.357317e+00 1.998943e-01 0.000000e+00
1.361717e+00 4.000867e-01 0.000000e+00
1.364838e+00 6.006363e-01 0.000000e+00
1.367022e+00 8.015252e-01 0.000000e+00
1.368262e+00 1.002740e+00 0.000000e+00
1.368526e+00 1.204164e+00 0.000000e+00
1.367797e+00 1.405620e+00 0.000000e+00
1.366169e+00 1.606881e+00 0.000000e+00
1.364078e+00 1.807624e+00 0.000000e+00
1.362234e+00 2.007787e+00 0.000000e+00
1.575000e+00 0.000000e+00 0.000000e+00
1.581489e+00 2.001639e-01 0.000000e+00
1.585208e+00 4.006220e-01 0.000000e+00
1.587888e+00 6.014225e-01 0.000000e+00
1.589732e+00 8.025361e-01 0.000000e+00
1.590774e+00 1.003896e+00 0.000000e+00
1.591033e+00 1.205382e+00 0.000000e+00
1.590517e+00 1.406836e+00 0.000000e+00
1.589403e+00 1.608045e+00 0.000000e+00
1.588136e+00 1.808769e+00 0.000000e+00
1.587196e+00 2.009011e+00 0.000000e+00
1.800000e+00 0.000000e+00 0.000000e+00
1.805478e+00 2.002762e-01 0.000000e+00
1.808597e+00 4.008853e-01 0.000000e+00
1.810888e+00 6.018259e-01 0.000000e+00
1.812469e+00 8.030168e-01 0.000000e+00
1.813385e+00 1.004379e+00 0.000000e+00
1.813681e+00 1.205832e+00 0.000000e+00
1.813402e+00 1.407227e+00 0.000000e+00
1.812760e+00 1.608374e+00 0.000000e+00
1.812138e+00 1.809100e+00 0.000000e+00
1.811832e+00 2.009449e+00 0.000000e+00
2.025000e+00 0.000000e+00 0.000000e+00
2.029409e+00 2.003172e-01 0.000000e+00
2.031995e+00 4.009625e-01 0.000000e+00
2.033953e+00 6.019129e-01 0.000000e+00
2.035323e+00 8.030759e-01 0.000000e+00
2.036155e+00 1.004378e+00 0.000000e+00
2.036496e+00 1.205744e+00 0.000000e+00
2.036438e+00 1.407044e+00 0.000000e+00
2.036188e+00 1.608128e+00 0.000000e+00
2.036034e+00 1.808879e+00 0.000000e+00
2.036147e+00 2.009356e+00 0.000000e+00
2.250000e+00 0.000000e+00 0.000000e+00
2.253385e+00 2.002667e-01 0.000000e+00
2.255502e+00 4.008688e-01 0.000000e+00
2.257151e+00 6.017593e-01 0.000000e+00
2.258334e+00 8.028453e-01 0.000000e+00
2.259094e+00 1.004056e+00 0.000000e+00
2.259481e+00 1.205310e+00 0.000000e+00
2.259605e+00 1.406507e+00 0.000000e+00
2.259646e+00 1.607534e+00 0.000000e+00
2.259802e+00 1.808322e+00 0.000000e+00
2.260160e+00 2.008929e+00 0.000000e+00
2.475000e+00 0.000000e+00 0.000000e+00
2.477479e+00 2.001936e-01 0.000000e+00
2.479177e+00 4.007056e-01 0.000000e+00
2.480518e+00 6.014787e-01 0.000000e+00
2.481520e+00 8.024453e-01 0.000000e+00
2.482206e+00 1.003539e+00 0.000000e+00
2.482625e+00 1.204675e+00 0.000000e+00
2.482877e+00 1.405776e+00 0.000000e+00
2.483107e+00 1.606757e+00 0.000000e+00
2.483441e+00 1.807597e+00 0.000000e+00
2.483911e+00 2.008340e+00 0.000000e+00
2.700000e+00 0.000000e+00 0.000000e+00
2.701722e+00 2.001171e-01 0.000000e+00
2.703038e+00 4.005253e-01 0.000000e+00
2.704088e+00 6.011643e-01 0.000000e+00
2.704898e+00 8.019916e-01 0.000000e+00
2.705490e+00 1.002948e+00 0.000000e+00
2.705907e+00 1.203966e+00 0.000000e+00
2.706227e+00 1.404978e+00 0.000000e+00
2.706548e+00 1.605934e+00 0.000000e+00
2.706944e+00 1.806834e+00 0.000000e+00
2.707424e+00 2.007720e+00 0.000000e+00
2.925000e+00 0.000000e+00 0.000000e+00
2.926118e+00 2.000538e-01 0.000000e+00
2.927076e+00 4.003499e-01 0.000000e+00
2.927858e+00 6.008640e-01 0.000000e+00
2.928476e+00 8.015506e-01 0.000000e+00
2.928948e+00 1.002376e+00 0.000000e+00
2.929315e+00 1.203289e+00 0.000000e+00
2.929631e+00 1.404233e+00 0.000000e+00
2.929955e+00 1.605180e+00 0.000000e+00
2.930320e+00 1.806140e+00 0.000000e+00
2.930730e+00 2.007153e+00 0.000000e+00
3.150000e+00 0.000000e+00 0.000000e+00
3.150662e+00 1.999940e-01 0.000000e+00
3.151273e+00 4.001936e-01 0.000000e+00
3.151799e+00 6.006020e-01 0.000000e+00
3.152223e+00 8.011895e-01 0.000000e+00
3.152550e+00 1.001916e+00 0.000000e+00
3.152819e+00 1.202747e+00 0.000000e+00
3.153069e+00 1.403641e+00 0.000000e+00
3.153324e+00 1.604583e+00 0.000000e+00
3.153594e+00 1.805593e+00 0.000000e+00
3.153891e+00 2.006692e+00 0.000000e+00
3.375000e+00 0.000000e+00 0.000000e+00
3.375308e+00 1.999524e-01 0.000000e+00
3.375602e+00 4.000927e-01 0.000000e+00
3.375865e+00 6.004317e-01 0.000000e+00
3.376082e+00 8.009560e-01 0.000000e+00
3.376249e+00 1.001622e+00 0.000000e+00
3.376390e+00 1.202394e+00 0.000000e+00
3.376529e+00 1.403255e+00 0.000000e+00
3.376667e+00 1.604196e+00 0.000000e+00
3.376809e+00 1.805232e+00 0.000000e+00
3.376965e+00 2.006376e+00 0.000000e+00
3.600000e+00 0.000000e+00 0.000000e+00
3.600000e+00 1.999499e-01 0.000000e+00
3.600000e+00 4.000715e-01 0.000000e+00
3.600000e+00 6.003830e-01 0.000000e+00
3.600000e+00 8.008776e-01 0.000000e+00
3.600000e+00 1.001515e+00 0.000000e+00
3.600000e+00 1.202260e+00 0.000000e+00
3.600000e+00 1.403104e+00 0.000000e+00
3.600000e+00 1.604044e+00 0.000000e+00
3.600000e+00 1.805083e+00 0.000000e+00
3.600000e+00 2.006235e+00 0.000000e+00
</DataArray>
</Points>
<Cells>
<DataArray Name="connectivity" type="Int32" format="ascii">
0 11 12 1
1 12 13 2
2 13 14 3
3 14 15 4
4 15 16 5
5 16 17 6
6 17 18 7
7 18 19 8
8 19 20 9
9 20 21 10
11 22 23 12
12 23 24 13
13 24 25 14
14 25 26 15
15 26 27 16
16 27 28 17
17 28 29 18
18 29 30 19
19 30 31 20
20 31 32 21
22 33 34 23
23 34 35 24
24 35 36 25
25 36 37 26
26 37 38 27
27 38 39 28
28 39 40 29
29 40 41 30
30 41 42 31
31 42 43 32
33 44 45 34
34 45 46 35
35 46 47 36
36 47 48 37
37 48 49 38
38 49 50 39
39 50 51 40
40 51 52 41
41 52 53 42
42 53 54 43
44 55 56 45
45 56 57 46
46 57 58 47
47 58 59 48
48 59 60 49
49 60 61 50
50 61 62 51
51 62 63 52
52 63 64 53
53 64 65 54
55 66 67 56
56 67 68 57
57 68 69 58
58 69 70 59
59 70 71 60
60 71 72 61
61 72 73 62
62 73 74 63
63 74 75 64
64 75 76 65
66 77 78 67
67 78 79 68
68 79 80 69
69 80 81 70
70 81 82 71
71 82 83 72
72 83 84 73
73 84 85 74
74 85 86 75
75 86 87 76
77 88 89 78
78 89 90 79
79 90 91 80
80 91 92 81
81 92 93 82
82 93 94 83
83 94 95 84
84 95 96 85
85 96 97 86
86 97 98 87
88 99 100 89
89 100 101 90
90 101 102 91
91 102 103 92
92 103 104 93
93 104 105 94
94 105 106 95
95 106 107 96
96 107 108 97
97 108 109 98
99 110 111 100
100 111 112 101
101 112 113 102
102 113 114 103
103 114 115 104
104 115 116 105
105 116 117 106
106 117 118 107
107 118 119 108
108 119 120 109
110 121 122 111
111 122 123 112
112 123 124 113
113 124 125 114
114 125 126 115
115 126 127 116
116 127 128 117
117 128 129 118
118 129 130 119
119 130 131 120
121 132 133 122
122 133 134 123
123 134 135 124
124 135 136 125
125 136 137 126
126 137 138 127
127 138 139 128
128 139 140 129
129 140 141 130
130 141 142 131
132 143 144 133
133 144 145 134
134 145 146 135
135 146 147 136
136 147 148 137
137 148 149 138
138 149 150 139
139 150 151 140
140 151 152 141
141 152 153 142
143 154 155 144
144 155 156 145
145 156 157 146
146 157 158 147
147 158 159 148
148 159 160 149
149 160 161 150
150 161 162 151
151 162 163 152
152 163 164 153
154 165 166 155
155 166 167 156
156 167 168 157
157 168 169 158
158 169 170 159
159 170 171 160
160 171 172 161
161 172 173 162
162 173 174 163
163 174 175 164
165 176 177 166
166 177 178 167
167 178 179 168
168 179 180 169
169 180 181 170
170 181 182 171
171 182 183 172
172 183 184 173
173 184 185 174
174 185 186 175
</DataArray>
<DataArray Name="offsets" type="Int32" format="ascii">
4
8
12
16
20
24
28
32
36
40
44
48
52
56
60
64
68
72
76
80
84
88
92
96
100
104
108
112
116
120
124
128
132
136
140
144
148
152
156
160
164
168
172
176
180
184
188
192
196
200
204
208
212
216
220
224
228
232
236
240
244
248
252
256
260
264
268
272
276
280
284
288
292
296
300
304
308
312
316
320
324
328
332
336
340
344
348
352
356
360
364
368
372
376
380
384
388
392
396
400
404
408
412
416
420
424
428
432
436
440
444
448
452
456
460
464
468
472
476
480
484
488
492
496
500
504
508
512
516
520
524
528
532
536
540
544
548
552
556
560
564
568
572
576
580
584
588
592
596
600
604
608
612
616
620
624
628
632
636
640
</DataArray>
<DataArray Name="types" type="UInt8" format="ascii">
9
9
9
9
9
9
9
9
9
9
9
9
9
9
9
9
9
9
9
9
9
9
9
9
9
9
9
9
9
9
9
9
9
9
9
9
9
9
9
9
9
9
9
9
9
9
9
9
9
9
9
9
9
9
9
9
9
9
9
9
9
9
9
9
9
9
9
9
9
9
9
9
9
9
9
9
9
9
9
9
9
9
9
9
9
9
9
9
9
9
9
9
9
9
9
9
9
9
9
9
9
9
9
9
9
9
9
9
9
9
9
9
9
9
9
9
9
9
9
9
9
9
9
9
9
9
9
9
9
9
9
9
9
9
9
9
9
9
9
9
9
9
9
9
9
9
9
9
9
9
9
9
9
9
9
9
9
9
9
9
</DataArray>
</Cells>
<PointData>
<DataArray Name="disp" type="Float64" NumberOfComponents="3" format="ascii">
0.000000e+00 0.000000e+00 0.000000e+00
0.000000e+00 -3.452372e-03 0.000000e+00
0.000000e+00 -9.353407e-03 0.000000e+00
0.000000e+00 -1.840485e-02 0.000000e+00
0.000000e+00 -2.969296e-02 0.000000e+00
0.000000e+00 -4.170806e-02 0.000000e+00
0.000000e+00 -5.349625e-02 0.000000e+00
0.000000e+00 -6.444229e-02 0.000000e+00
0.000000e+00 -7.307079e-02 0.000000e+00
0.000000e+00 -7.802692e-02 0.000000e+00
0.000000e+00 -8.212500e-02 0.000000e+00
0.000000e+00 0.000000e+00 0.000000e+00
2.302804e-03 -3.637863e-03 0.000000e+00
6.375492e-03 -9.200031e-03 0.000000e+00
9.830081e-03 -1.696538e-02 0.000000e+00
1.186234e-02 -2.643491e-02 0.000000e+00
1.216589e-02 -3.714747e-02 0.000000e+00
1.139450e-02 -4.825507e-02 0.000000e+00
9.460907e-03 -5.912594e-02 0.000000e+00
5.271296e-03 -6.929266e-02 0.000000e+00
5.975346e-04 -7.758287e-02 0.000000e+00
0.000000e+00 -8.212500e-02 0.000000e+00
0.000000e+00 0.000000e+00 0.000000e+00
5.019365e-03 -3.210719e-03 0.000000e+00
1.100618e-02 -7.433080e-03 0.000000e+00
1.617058e-02 -1.222270e-02 0.000000e+00
1.970028e-02 -1.777087e-02 0.000000e+00
2.157222e-02 -2.457000e-02 0.000000e+00
2.157324e-02 -3.316682e-02 0.000000e+00
2.026234e-02 -4.325200e-02 0.000000e+00
1.602220e-02 -5.507482e-02 0.000000e+00
1.006709e-02 -6.860426e-02 0.000000e+00
0.000000e+00 -8.212500e-02 0.000000e+00
0.000000e+00 0.000000e+00 0.000000e+00
7.070248e-03 -1.746051e-03 0.000000e+00
1.350466e-02 -3.738662e-03 0.000000e+00
1.850115e-02 -5.367204e-03 0.000000e+00
2.220090e-02 -6.498334e-03 0.000000e+00
2.474142e-02 -7.192625e-03 0.000000e+00
2.572741e-02 -7.314510e-03 0.000000e+00
2.516847e-02 -6.995818e-03 0.000000e+00
2.266000e-02 -6.365343e-03 0.000000e+00
1.791809e-02 -5.879217e-03 0.000000e+00
9.960026e-03 -6.480891e-03 0.000000e+00
0.000000e+00 0.000000e+00 0.000000e+00
7.759676e-03 -1.031134e-03 0.000000e+00
1.372679e-02 -1.983961e-03 0.000000e+00
1.795379e-02 -2.569351e-03 0.000000e+00
2.104626e-02 -2.734391e-03 0.000000e+00
2.299993e-02 -2.421981e-03 0.000000e+00
2.360530e-02 -1.716959e-03 0.000000e+00
2.275704e-02 -6.865378e-04 0.000000e+00
2.034125e-02 4.190897e-04 0.000000e+00
1.630491e-02 1.285161e-03 0.000000e+00
1.110593e-02 1.391122e-03 0.000000e+00
0.000000e+00 0.000000e+00 0.000000e+00
7.821382e-03 -5.053912e-04 0.000000e+00
1.297033e-02 -7.954796e-04 0.000000e+00
1.659875e-02 -6.697553e-04 0.000000e+00
1.920043e-02 -1.492678e-04 0.000000e+00
2.073066e-02 7.305587e-04 0.000000e+00
2.109765e-02 1.915466e-03 0.000000e+00
2.023256e-02 3.253107e-03 0.000000e+00
1.813602e-02 4.515236e-03 0.000000e+00
1.505609e-02 5.334440e-03 0.000000e+00
1.191107e-02 5.397467e-03 0.000000e+00
0.000000e+00 0.000000e+00 0.000000e+00
7.317222e-03 -1.056726e-04 0.000000e+00
1.171702e-02 8.666083e-05 0.000000e+00
1.483851e-02 6.363122e-04 0.000000e+00
1.702155e-02 1.525258e-03 0.000000e+00
1.826167e-02 2.739965e-03 0.000000e+00
1.852609e-02 4.163878e-03 0.000000e+00
1.779712e-02 5.620397e-03 0.000000e+00
1.616937e-02 6.880908e-03 0.000000e+00
1.407802e-02 7.624260e-03 0.000000e+00
1.223360e-02 7.787271e-03 0.000000e+00
0.000000e+00 0.000000e+00 0.000000e+00
6.489100e-03 1.638627e-04 0.000000e+00
1.020841e-02 6.220032e-04 0.000000e+00
1.288832e-02 1.422509e-03 0.000000e+00
1.473201e-02 2.536102e-03 0.000000e+00
1.577444e-02 3.895622e-03 0.000000e+00
1.603268e-02 5.382259e-03 0.000000e+00
1.551669e-02 6.836290e-03 0.000000e+00
1.440274e-02 8.045269e-03 0.000000e+00
1.313576e-02 8.769180e-03 0.000000e+00
1.219552e-02 9.011250e-03 0.000000e+00
0.000000e+00 0.000000e+00 0.000000e+00
5.478410e-03 2.761962e-04 0.000000e+00
8.597081e-03 8.852425e-04 0.000000e+00
1.088834e-02 1.825886e-03 0.000000e+00
1.246926e-02 3.016838e-03 0.000000e+00
1.338541e-02 4.379276e-03 0.000000e+00
1.368070e-02 5.831951e-03 0.000000e+00
1.340206e-02 7.226755e-03 0.000000e+00
1.276050e-02 8.374034e-03 0.000000e+00
1.213832e-02 9.100167e-03 0.000000e+00
1.183220e-02 9.449323e-03 0.000000e+00
0.000000e+00 0.000000e+00 0.000000e+00
4.409258e-03 3.171872e-04 0.000000e+00
6.995295e-03 9.625041e-04 0.000000e+00
8.952634e-03 1.912904e-03 0.000000e+00
1.032346e-02 3.075831e-03 0.000000e+00
1.115508e-02 4.378225e-03 0.000000e+00
1.149622e-02 5.744173e-03 0.000000e+00
1.143772e-02 7.044344e-03 0.000000e+00
1.118767e-02 8.128331e-03 0.000000e+00
1.103443e-02 8.878916e-03 0.000000e+00
1.114731e-02 9.355802e-03 0.000000e+00
0.000000e+00 0.000000e+00 0.000000e+00
3.384541e-03 2.667559e-04 0.000000e+00
5.502520e-03 8.688404e-04 0.000000e+00
7.150555e-03 1.759338e-03 0.000000e+00
8.334316e-03 2.845273e-03 0.000000e+00
9.093794e-03 4.055829e-03 0.000000e+00
9.480686e-03 5.310094e-03 0.000000e+00
9.605194e-03 6.507169e-03 0.000000e+00
9.645627e-03 7.533857e-03 0.000000e+00
9.802285e-03 8.322060e-03 0.000000e+00
1.015980e-02 8.929543e-03 0.000000e+00
0.000000e+00 0.000000e+00 0.000000e+00
2.478695e-03 1.936402e-04 0.000000e+00
4.177167e-03 7.056251e-04 0.000000e+00
5.518008e-03 1.478716e-03 0.000000e+00
6.520398e-03 2.445303e-03 0.000000e+00
7.206390e-03 3.539380e-03 0.000000e+00
7.624528e-03 4.675035e-03 0.000000e+00
7.876466e-03 5.776035e-03 0.000000e+00
8.106532e-03 6.756591e-03 0.000000e+00
8.440613e-03 7.596524e-03 0.000000e+00
8.911099e-03 8.340078e-03 0.000000e+00
0.000000e+00 0.000000e+00 0.000000e+00
1.722455e-03 1.170633e-04 0.000000e+00
3.037771e-03 5.252686e-04 0.000000e+00
4.087754e-03 1.164364e-03 0.000000e+00
4.897807e-03 1.991661e-03 0.000000e+00
5.489841e-03 2.947891e-03 0.000000e+00
5.907123e-03 3.965701e-03 0.000000e+00
6.226631e-03 4.978377e-03 0.000000e+00
6.547819e-03 5.933887e-03 0.000000e+00
6.944362e-03 6.834479e-03 0.000000e+00
7.424497e-03 7.720329e-03 0.000000e+00
0.000000e+00 0.000000e+00 0.000000e+00
1.118065e-03 5.379011e-05 0.000000e+00
2.075744e-03 3.499367e-04 0.000000e+00
2.858002e-03 8.640159e-04 0.000000e+00
3.475903e-03 1.550541e-03 0.000000e+00
3.948371e-03 2.376159e-03 0.000000e+00
4.315335e-03 3.289403e-03 0.000000e+00
4.630647e-03 4.233294e-03 0.000000e+00
4.954569e-03 5.179740e-03 0.000000e+00
5.319606e-03 6.139589e-03 0.000000e+00
5.730198e-03 7.153206e-03 0.000000e+00
0.000000e+00 0.000000e+00 0.000000e+00
6.620390e-04 -6.017004e-06 0.000000e+00
1.273256e-03 1.935773e-04 0.000000e+00
1.799518e-03 6.020374e-04 0.000000e+00
2.223098e-03 1.189562e-03 0.000000e+00
2.549529e-03 1.916052e-03 0.000000e+00
2.819500e-03 2.746728e-03 0.000000e+00
3.069364e-03 3.640756e-03 0.000000e+00
3.324449e-03 4.583171e-03 0.000000e+00
3.594132e-03 5.592790e-03 0.000000e+00
3.890590e-03 6.691712e-03 0.000000e+00
0.000000e+00 0.000000e+00 0.000000e+00
3.078793e-04 -4.756959e-05 0.000000e+00
6.018838e-04 9.269185e-05 0.000000e+00
8.654082e-04 4.316870e-04 0.000000e+00
1.082118e-03 9.560220e-04 0.000000e+00
1.248874e-03 1.622094e-03 0.000000e+00
1.390462e-03 2.394528e-03 0.000000e+00
1.528857e-03 3.254585e-03 0.000000e+00
1.667347e-03 4.196300e-03 0.000000e+00
1.808949e-03 5.232305e-03 0.000000e+00
1.964848e-03 6.375984e-03 0.000000e+00
0.000000e+00 0.000000e+00 0.000000e+00
0.000000e+00 -5.013946e-05 0.000000e+00
0.000000e+00 7.152307e-05 0.000000e+00
0.000000e+00 3.830220e-04 0.000000e+00
0.000000e+00 8.775427e-04 0.000000e+00
0.000000e+00 1.514525e-03 0.000000e+00
0.000000e+00 2.259956e-03 0.000000e+00
0.000000e+00 3.104130e-03 0.000000e+00
0.000000e+00 4.043921e-03 0.000000e+00
0.000000e+00 5.082757e-03 0.000000e+00
0.000000e+00 6.234944e-03 0.000000e+00
</DataArray>
<DataArray Name="shear" type="Float64" NumberOfComponents="1" format="ascii">
2.143647e-02
3.534995e-02
6.463978e-02
9.191847e-02
1.086153e-01
1.131710e-01
1.083906e-01
9.266404e-02
6.208234e-02
3.177701e-02
2.234196e-02
2.473461e-02
3.777849e-02
6.091985e-02
8.175407e-02
9.754869e-02
1.070519e-01
1.090782e-01
1.022838e-01
8.471334e-02
5.804157e-02
3.783290e-02
3.221504e-02
4.198118e-02
5.481869e-02
6.517819e-02
7.836898e-02
9.534432e-02
1.139158e-01
1.303877e-01
1.452323e-01
1.515821e-01
1.492113e-01
3.778938e-02
4.114642e-02
4.364876e-02
4.521064e-02
5.019574e-02
5.878474e-02
7.147232e-02
8.730250e-02
1.062946e-01
1.264217e-01
1.411287e-01
3.978898e-02
3.747084e-02
3.222219e-02
2.899727e-02
2.772760e-02
2.647966e-02
2.450713e-02
2.147356e-02
1.628424e-02
7.268817e-03
1.089518e-03
3.950066e-02
3.446624e-02
2.695513e-02
2.425934e-02
2.331823e-02
2.241195e-02
2.093627e-02
1.836632e-02
1.401725e-02
6.873076e-03
2.211730e-03
3.688396e-02
3.093228e-02
2.334606e-02
2.145109e-02
2.092074e-02
2.045511e-02
1.933330e-02
1.710358e-02
1.309263e-02
6.814110e-03
2.441430e-03
3.268108e-02
2.692836e-02
2.039882e-02
1.939183e-02
1.926452e-02
1.905206e-02
1.818581e-02
1.622466e-02
1.253674e-02
7.123771e-03
3.541742e-03
2.762925e-02
2.281198e-02
1.795309e-02
1.761653e-02
1.769381e-02
1.765953e-02
1.706911e-02
1.538655e-02
1.214128e-02
7.715183e-03
5.002092e-03
2.230238e-02
1.874126e-02
1.560613e-02
1.576821e-02
1.609650e-02
1.626768e-02
1.589843e-02
1.451198e-02
1.185958e-02
8.532529e-03
6.665716e-03
1.716148e-02
1.485845e-02
1.326520e-02
1.388395e-02
1.452275e-02
1.489588e-02
1.470791e-02
1.365481e-02
1.169574e-02
9.459054e-03
8.321843e-03
1.260716e-02
1.140773e-02
1.100389e-02
1.196930e-02
1.292229e-02
1.352271e-02
1.355880e-02
1.290067e-02
1.168077e-02
1.045696e-02
9.924368e-03
8.787666e-03
8.412235e-03
8.867741e-03
1.008052e-02
1.127988e-02
1.213929e-02
1.248115e-02
1.229236e-02
1.181649e-02
1.149289e-02
1.146759e-02
5.724289e-03
5.850517e-03
6.922035e-03
8.379423e-03
9.766399e-03
1.087454e-02
1.155177e-02
1.184730e-02
1.203425e-02
1.242190e-02
1.277433e-02
3.372860e-03
3.748726e-03
5.291543e-03
7.054286e-03
8.626649e-03
9.901139e-03
1.084529e-02
1.154591e-02
1.223766e-02
1.308891e-02
1.366325e-02
1.572063e-03
2.231768e-03
4.188049e-03
6.197265e-03
7.919238e-03
9.277555e-03
1.037847e-02
1.135868e-02
1.235258e-02
1.344438e-02
1.413677e-02
5.510118e-04
1.627352e-03
3.794191e-03
5.882381e-03
7.657590e-03
9.046571e-03
1.020457e-02
1.129100e-02
1.238172e-02
1.354233e-02
1.427323e-02
</DataArray>
<DataArray Name="stress" type="Float64" NumberOfComponents="9" format="ascii">
-1.255440e+05 7.204756e+03 0.000000e+00 7.204756e+03 -2.244991e+05 0.000000e+00 0.000000e+00 0.000000e+00 0.000000e+00
-1.132389e+05 5.088660e+03 0.000000e+00 5.088660e+03 -2.271287e+05 0.000000e+00 0.000000e+00 0.000000e+00 0.000000e+00
-1.187654e+05 3.650697e+03 0.000000e+00 3.650697e+03 -2.287146e+05 0.000000e+00 0.000000e+00 0.000000e+00 0.000000e+00
-1.303563e+05 5.351522e+03 0.000000e+00 5.351522e+03 -2.395289e+05 0.000000e+00 0.000000e+00 0.000000e+00 0.000000e+00
-1.398298e+05 5.118723e+03 0.000000e+00 5.118723e+03 -2.468379e+05 0.000000e+00 0.000000e+00 0.000000e+00 0.000000e+00
-1.453275e+05 6.720891e+03 0.000000e+00 6.720891e+03 -2.546188e+05 0.000000e+00 0.000000e+00 0.000000e+00 0.000000e+00
-1.494943e+05 8.898573e+03 0.000000e+00 8.898573e+03 -2.689239e+05 0.000000e+00 0.000000e+00 0.000000e+00 0.000000e+00
-1.498829e+05 1.065993e+04 0.000000e+00 1.065993e+04 -2.792114e+05 0.000000e+00 0.000000e+00 0.000000e+00 0.000000e+00
-1.503590e+05 6.856764e+03 0.000000e+00 6.856764e+03 -2.909124e+05 0.000000e+00 0.000000e+00 0.000000e+00 0.000000e+00
-1.585939e+05 -1.869489e+03 0.000000e+00 -1.869489e+03 -3.019692e+05 0.000000e+00 0.000000e+00 0.000000e+00 0.000000e+00
-1.623108e+05 -7.328173e+02 0.000000e+00 -7.328173e+02 -2.869798e+05 0.000000e+00 0.000000e+00 0.000000e+00 0.000000e+00
-1.307149e+05 2.147302e+04 0.000000e+00 2.147302e+04 -2.200690e+05 0.000000e+00 0.000000e+00 0.000000e+00 0.000000e+00
-1.146218e+05 1.794774e+04 0.000000e+00 1.794774e+04 -2.158420e+05 0.000000e+00 0.000000e+00 0.000000e+00 0.000000e+00
-1.165539e+05 1.602686e+04 0.000000e+00 1.602686e+04 -2.256929e+05 0.000000e+00 0.000000e+00 0.000000e+00 0.000000e+00
-1.258781e+05 1.362716e+04 0.000000e+00 1.362716e+04 -2.363074e+05 0.000000e+00 0.000000e+00 0.000000e+00 0.000000e+00
-1.367898e+05 1.255070e+04 0.000000e+00 1.255070e+04 -2.477149e+05 0.000000e+00 0.000000e+00 0.000000e+00 0.000000e+00
-1.458701e+05 1.291834e+04 0.000000e+00 1.291834e+04 -2.569829e+05 0.000000e+00 0.000000e+00 0.000000e+00 0.000000e+00
-1.513538e+05 1.470093e+04 0.000000e+00 1.470093e+04 -2.673531e+05 0.000000e+00 0.000000e+00 0.000000e+00 0.000000e+00
-1.502875e+05 1.369598e+04 0.000000e+00 1.369598e+04 -2.753582e+05 0.000000e+00 0.000000e+00 0.000000e+00 0.000000e+00
-1.524452e+05 5.984594e+03 0.000000e+00 5.984594e+03 -2.869487e+05 0.000000e+00 0.000000e+00 0.000000e+00 0.000000e+00
-1.539092e+05 -2.592250e+03 0.000000e+00 -2.592250e+03 -2.918069e+05 0.000000e+00 0.000000e+00 0.000000e+00 0.000000e+00
-1.771448e+05 -8.706638e+03 0.000000e+00 -8.706638e+03 -3.328572e+05 0.000000e+00 0.000000e+00 0.000000e+00 0.000000e+00
-1.317121e+05 3.483925e+04 0.000000e+00 3.483925e+04 -1.921837e+05 0.000000e+00 0.000000e+00 0.000000e+00 0.000000e+00
-1.140076e+05 2.950762e+04 0.000000e+00 2.950762e+04 -1.800826e+05 0.000000e+00 0.000000e+00 0.000000e+00 0.000000e+00
-1.136385e+05 2.831437e+04 0.000000e+00 2.831437e+04 -1.874782e+05 0.000000e+00 0.000000e+00 0.000000e+00 0.000000e+00
-1.226481e+05 2.901467e+04 0.000000e+00 2.901467e+04 -1.984554e+05 0.000000e+00 0.000000e+00 0.000000e+00 0.000000e+00
-1.366766e+05 3.142004e+04 0.000000e+00 3.142004e+04 -2.145205e+05 0.000000e+00 0.000000e+00 0.000000e+00 0.000000e+00
-1.533552e+05 3.423446e+04 0.000000e+00 3.423446e+04 -2.310710e+05 0.000000e+00 0.000000e+00 0.000000e+00 0.000000e+00
-1.682852e+05 3.566846e+04 0.000000e+00 3.566846e+04 -2.511604e+05 0.000000e+00 0.000000e+00 0.000000e+00 0.000000e+00
-1.751875e+05 3.640442e+04 0.000000e+00 3.640442e+04 -2.679191e+05 0.000000e+00 0.000000e+00 0.000000e+00 0.000000e+00
-1.842534e+05 3.265203e+04 0.000000e+00 3.265203e+04 -2.828273e+05 0.000000e+00 0.000000e+00 0.000000e+00 0.000000e+00
-1.892943e+05 1.972344e+04 0.000000e+00 1.972344e+04 -2.932602e+05 0.000000e+00 0.000000e+00 0.000000e+00 0.000000e+00
-2.087366e+05 -3.114438e+03 0.000000e+00 -3.114438e+03 -3.520275e+05 0.000000e+00 0.000000e+00 0.000000e+00 0.000000e+00
-1.201936e+05 3.297739e+04 0.000000e+00 3.297739e+04 -1.436386e+05 0.000000e+00 0.000000e+00 0.000000e+00 0.000000e+00
-1.069146e+05 2.958848e+04 0.000000e+00 2.958848e+04 -1.337841e+05 0.000000e+00 0.000000e+00 0.000000e+00 0.000000e+00
-1.091122e+05 3.100878e+04 0.000000e+00 3.100878e+04 -1.343986e+05 0.000000e+00 0.000000e+00 0.000000e+00 0.000000e+00
-1.183289e+05 3.414108e+04 0.000000e+00 3.414108e+04 -1.347793e+05 0.000000e+00 0.000000e+00 0.000000e+00 0.000000e+00
-1.262933e+05 3.586442e+04 0.000000e+00 3.586442e+04 -1.324013e+05 0.000000e+00 0.000000e+00 0.000000e+00 0.000000e+00
-1.314653e+05 3.605997e+04 0.000000e+00 3.605997e+04 -1.277590e+05 0.000000e+00 0.000000e+00 0.000000e+00 0.000000e+00
-1.293991e+05 3.148209e+04 0.000000e+00 3.148209e+04 -1.178424e+05 0.000000e+00 0.000000e+00 0.000000e+00 0.000000e+00
-1.216377e+05 2.557592e+04 0.000000e+00 2.557592e+04 -1.066074e+05 0.000000e+00 0.000000e+00 0.000000e+00 0.000000e+00
-1.088933e+05 1.895528e+04 0.000000e+00 1.895528e+04 -9.304366e+04 0.000000e+00 0.000000e+00 0.000000e+00 0.000000e+00
-8.505561e+04 9.498195e+03 0.000000e+00 9.498195e+03 -7.955555e+04 0.000000e+00 0.000000e+00 0.000000e+00 0.000000e+00
-4.599205e+04 3.557009e+03 0.000000e+00 3.557009e+03 -5.722643e+04 0.000000e+00 0.000000e+00 0.000000e+00 0.000000e+00
-1.133211e+05 3.127997e+04 0.000000e+00 3.127997e+04 -1.167800e+05 0.000000e+00 0.000000e+00 0.000000e+00 0.000000e+00
-1.079215e+05 3.008922e+04 0.000000e+00 3.008922e+04 -1.134595e+05 0.000000e+00 0.000000e+00 0.000000e+00 0.000000e+00
-1.149216e+05 3.192221e+04 0.000000e+00 3.192221e+04 -1.158131e+05 0.000000e+00 0.000000e+00 0.000000e+00 0.000000e+00
-1.257823e+05 3.357732e+04 0.000000e+00 3.357732e+04 -1.142844e+05 0.000000e+00 0.000000e+00 0.000000e+00 0.000000e+00
-1.344741e+05 3.305185e+04 0.000000e+00 3.305185e+04 -1.085985e+05 0.000000e+00 0.000000e+00 0.000000e+00 0.000000e+00
-1.403184e+05 2.994551e+04 0.000000e+00 2.994551e+04 -1.007958e+05 0.000000e+00 0.000000e+00 0.000000e+00 0.000000e+00
-1.400692e+05 2.461235e+04 0.000000e+00 2.461235e+04 -9.180489e+04 0.000000e+00 0.000000e+00 0.000000e+00 0.000000e+00
-1.359893e+05 1.802164e+04 0.000000e+00 1.802164e+04 -8.324270e+04 0.000000e+00 0.000000e+00 0.000000e+00 0.000000e+00
-1.245972e+05 9.841284e+03 0.000000e+00 9.841284e+03 -7.477785e+04 0.000000e+00 0.000000e+00 0.000000e+00 0.000000e+00
-9.583395e+04 1.271366e+03 0.000000e+00 1.271366e+03 -6.845388e+04 0.000000e+00 0.000000e+00 0.000000e+00 0.000000e+00
-5.181826e+04 -1.523652e+03 0.000000e+00 -1.523652e+03 -5.375619e+04 0.000000e+00 0.000000e+00 0.000000e+00 0.000000e+00
-1.063174e+05 3.078250e+04 0.000000e+00 3.078250e+04 -1.016002e+05 0.000000e+00 0.000000e+00 0.000000e+00 0.000000e+00
-1.074117e+05 3.051129e+04 0.000000e+00 3.051129e+04 -1.015715e+05 0.000000e+00 0.000000e+00 0.000000e+00 0.000000e+00
-1.156746e+05 3.026299e+04 0.000000e+00 3.026299e+04 -1.014707e+05 0.000000e+00 0.000000e+00 0.000000e+00 0.000000e+00
-1.250849e+05 2.858578e+04 0.000000e+00 2.858578e+04 -9.664477e+04 0.000000e+00 0.000000e+00 0.000000e+00 0.000000e+00
-1.319399e+05 2.581230e+04 0.000000e+00 2.581230e+04 -9.100283e+04 0.000000e+00 0.000000e+00 0.000000e+00 0.000000e+00
-1.351353e+05 2.151399e+04 0.000000e+00 2.151399e+04 -8.493416e+04 0.000000e+00 0.000000e+00 0.000000e+00 0.000000e+00
-1.338944e+05 1.595539e+04 0.000000e+00 1.595539e+04 -7.840146e+04 0.000000e+00 0.000000e+00 0.000000e+00 0.000000e+00
-1.280186e+05 9.265062e+03 0.000000e+00 9.265062e+03 -7.174105e+04 0.000000e+00 0.000000e+00 0.000000e+00 0.000000e+00
-1.154155e+05 1.632358e+03 0.000000e+00 1.632358e+03 -6.591610e+04 0.000000e+00 0.000000e+00 0.000000e+00 0.000000e+00
-9.007071e+04 -3.982200e+03 0.000000e+00 -3.982200e+03 -6.199779e+04 0.000000e+00 0.000000e+00 0.000000e+00 0.000000e+00
-5.739296e+04 -4.745467e+03 0.000000e+00 -4.745467e+03 -5.458889e+04 0.000000e+00 0.000000e+00 0.000000e+00 0.000000e+00
-9.886525e+04 2.926793e+04 0.000000e+00 2.926793e+04 -9.014738e+04 0.000000e+00 0.000000e+00 0.000000e+00 0.000000e+00
-1.051888e+05 2.919611e+04 0.000000e+00 2.919611e+04 -9.193563e+04 0.000000e+00 0.000000e+00 0.000000e+00 0.000000e+00
-1.139602e+05 2.626899e+04 0.000000e+00 2.626899e+04 -8.900885e+04 0.000000e+00 0.000000e+00 0.000000e+00 0.000000e+00
-1.227218e+05 2.350812e+04 0.000000e+00 2.350812e+04 -8.458044e+04 0.000000e+00 0.000000e+00 0.000000e+00 0.000000e+00
-1.280656e+05 1.994339e+04 0.000000e+00 1.994339e+04 -8.005729e+04 0.000000e+00 0.000000e+00 0.000000e+00 0.000000e+00
-1.295744e+05 1.515826e+04 0.000000e+00 1.515826e+04 -7.515730e+04 0.000000e+00 0.000000e+00 0.000000e+00 0.000000e+00
-1.273143e+05 9.425966e+03 0.000000e+00 9.425966e+03 -7.005887e+04 0.000000e+00 0.000000e+00 0.000000e+00 0.000000e+00
-1.203268e+05 2.997342e+03 0.000000e+00 2.997342e+03 -6.539869e+04 0.000000e+00 0.000000e+00 0.000000e+00 0.000000e+00
-1.083574e+05 -2.906484e+03 0.000000e+00 -2.906484e+03 -6.213322e+04 0.000000e+00 0.000000e+00 0.000000e+00 0.000000e+00
-8.847960e+04 -5.170427e+03 0.000000e+00 -5.170427e+03 -6.014370e+04 0.000000e+00 0.000000e+00 0.000000e+00 0.000000e+00
-6.664438e+04 -4.462939e+03 0.000000e+00 -4.462939e+03 -5.616356e+04 0.000000e+00 0.000000e+00 0.000000e+00 0.000000e+00
-8.993991e+04 2.598340e+04 0.000000e+00 2.598340e+04 -8.022626e+04 0.000000e+00 0.000000e+00 0.000000e+00 0.000000e+00
-1.010641e+05 2.624822e+04 0.000000e+00 2.624822e+04 -8.360626e+04 0.000000e+00 0.000000e+00 0.000000e+00 0.000000e+00
-1.113557e+05 2.247135e+04 0.000000e+00 2.247135e+04 -8.001690e+04 0.000000e+00 0.000000e+00 0.000000e+00 0.000000e+00
-1.192059e+05 1.921593e+04 0.000000e+00 1.921593e+04 -7.645128e+04 0.000000e+00 0.000000e+00 0.000000e+00 0.000000e+00
-1.233260e+05 1.507320e+04 0.000000e+00 1.507320e+04 -7.264088e+04 0.000000e+00 0.000000e+00 0.000000e+00 0.000000e+00
-1.239164e+05 1.014271e+04 0.000000e+00 1.014271e+04 -6.872006e+04 0.000000e+00 0.000000e+00 0.000000e+00 0.000000e+00
-1.208340e+05 4.629762e+03 0.000000e+00 4.629762e+03 -6.495018e+04 0.000000e+00 0.000000e+00 0.000000e+00 0.000000e+00
-1.139110e+05 -8.232406e+02 0.000000e+00 -8.232406e+02 -6.199523e+04 0.000000e+00 0.000000e+00 0.000000e+00 0.000000e+00
-1.039325e+05 -4.785216e+03 0.000000e+00 -4.785216e+03 -6.033217e+04 0.000000e+00 0.000000e+00 0.000000e+00 0.000000e+00
-8.987901e+04 -5.163737e+03 0.000000e+00 -5.163737e+03 -5.952405e+04 0.000000e+00 0.000000e+00 0.000000e+00 0.000000e+00
-7.578293e+04 -3.921284e+03 0.000000e+00 -3.921284e+03 -5.692759e+04 0.000000e+00 0.000000e+00 0.000000e+00 0.000000e+00
-8.245539e+04 2.267488e+04 0.000000e+00 2.267488e+04 -7.318410e+04 0.000000e+00 0.000000e+00 0.000000e+00 0.000000e+00
-9.699940e+04 2.295065e+04 0.000000e+00 2.295065e+04 -7.714901e+04 0.000000e+00 0.000000e+00 0.000000e+00 0.000000e+00
-1.081736e+05 1.927024e+04 0.000000e+00 1.927024e+04 -7.363641e+04 0.000000e+00 0.000000e+00 0.000000e+00 0.000000e+00
-1.148884e+05 1.556677e+04 0.000000e+00 1.556677e+04 -7.057002e+04 0.000000e+00 0.000000e+00 0.000000e+00 0.000000e+00
-1.183959e+05 1.119542e+04 0.000000e+00 1.119542e+04 -6.745788e+04 0.000000e+00 0.000000e+00 0.000000e+00 0.000000e+00
-1.184356e+05 6.341646e+03 0.000000e+00 6.341646e+03 -6.443011e+04 0.000000e+00 0.000000e+00 0.000000e+00 0.000000e+00
-1.150856e+05 1.408130e+03 0.000000e+00 1.408130e+03 -6.185724e+04 0.000000e+00 0.000000e+00 0.000000e+00 0.000000e+00
-1.091036e+05 -2.865166e+03 0.000000e+00 -2.865166e+03 -6.012431e+04 0.000000e+00 0.000000e+00 0.000000e+00 0.000000e+00
-1.016738e+05 -5.310655e+03 0.000000e+00 -5.310655e+03 -5.941813e+04 0.000000e+00 0.000000e+00 0.000000e+00 0.000000e+00
-9.241691e+04 -4.700593e+03 0.000000e+00 -4.700593e+03 -5.927889e+04 0.000000e+00 0.000000e+00 0.000000e+00 0.000000e+00
-8.367778e+04 -3.145279e+03 0.000000e+00 -3.145279e+03 -5.767041e+04 0.000000e+00 0.000000e+00 0.000000e+00 0.000000e+00
-7.698398e+04 2.032967e+04 0.000000e+00 2.032967e+04 -6.838859e+04 0.000000e+00 0.000000e+00 0.000000e+00 0.000000e+00
-9.319762e+04 2.029227e+04 0.000000e+00 2.029227e+04 -7.202270e+04 0.000000e+00 0.000000e+00 0.000000e+00 0.000000e+00
-1.045194e+05 1.650584e+04 0.000000e+00 1.650584e+04 -6.906124e+04 0.000000e+00 0.000000e+00 0.000000e+00 0.000000e+00
-1.105073e+05 1.250580e+04 0.000000e+00 1.250580e+04 -6.640957e+04 0.000000e+00 0.000000e+00 0.000000e+00 0.000000e+00
-1.134704e+05 8.153825e+03 0.000000e+00 8.153825e+03 -6.385835e+04 0.000000e+00 0.000000e+00 0.000000e+00 0.000000e+00
-1.132771e+05 3.614257e+03 0.000000e+00 3.614257e+03 -6.164253e+04 0.000000e+00 0.000000e+00 0.000000e+00 0.000000e+00
-1.103786e+05 -5.882902e+02 0.000000e+00 -5.882902e+02 -5.999994e+04 0.000000e+00 0.000000e+00 0.000000e+00 0.000000e+00
-1.057786e+05 -3.761493e+03 0.000000e+00 -3.761493e+03 -5.909921e+04 0.000000e+00 0.000000e+00 0.000000e+00 0.000000e+00
-1.007877e+05 -5.156953e+03 0.000000e+00 -5.156953e+03 -5.894413e+04 0.000000e+00 0.000000e+00 0.000000e+00 0.000000e+00
-9.530295e+04 -4.019507e+03 0.000000e+00 -4.019507e+03 -5.921960e+04 0.000000e+00 0.000000e+00 0.000000e+00 0.000000e+00
-9.028334e+04 -2.423599e+03 0.000000e+00 -2.423599e+03 -5.840482e+04 0.000000e+00 0.000000e+00 0.000000e+00 0.000000e+00
-7.383605e+04 1.839370e+04 0.000000e+00 1.839370e+04 -6.505735e+04 0.000000e+00 0.000000e+00 0.000000e+00 0.000000e+00
-8.971183e+04 1.795761e+04 0.000000e+00 1.795761e+04 -6.825970e+04 0.000000e+00 0.000000e+00 0.000000e+00 0.000000e+00
-1.003713e+05 1.399196e+04 0.000000e+00 1.399196e+04 -6.552439e+04 0.000000e+00 0.000000e+00 0.000000e+00 0.000000e+00
-1.059848e+05 9.984353e+03 0.000000e+00 9.984353e+03 -6.342000e+04 0.000000e+00 0.000000e+00 0.000000e+00 0.000000e+00
-1.086665e+05 5.845227e+03 0.000000e+00 5.845227e+03 -6.147325e+04 0.000000e+00 0.000000e+00 0.000000e+00 0.000000e+00
-1.086531e+05 1.773807e+03 0.000000e+00 1.773807e+03 -5.992611e+04 0.000000e+00 0.000000e+00 0.000000e+00 0.000000e+00
-1.066566e+05 -1.710270e+03 0.000000e+00 -1.710270e+03 -5.891973e+04 0.000000e+00 0.000000e+00 0.000000e+00 0.000000e+00
-1.036198e+05 -3.962973e+03 0.000000e+00 -3.962973e+03 -5.860396e+04 0.000000e+00 0.000000e+00 0.000000e+00 0.000000e+00
-1.007659e+05 -4.603710e+03 0.000000e+00 -4.603710e+03 -5.876312e+04 0.000000e+00 0.000000e+00 0.000000e+00 0.000000e+00
-9.816096e+04 -3.286077e+03 0.000000e+00 -3.286077e+03 -5.923735e+04 0.000000e+00 0.000000e+00 0.000000e+00 0.000000e+00
-9.583655e+04 -1.804558e+03 0.000000e+00 -1.804558e+03 -5.902194e+04 0.000000e+00 0.000000e+00 0.000000e+00 0.000000e+00
-7.139883e+04 1.646640e+04 0.000000e+00 1.646640e+04 -6.291766e+04 0.000000e+00 0.000000e+00 0.000000e+00 0.000000e+00
-8.584084e+04 1.576610e+04 0.000000e+00 1.576610e+04 -6.552631e+04 0.000000e+00 0.000000e+00 0.000000e+00 0.000000e+00
-9.619282e+04 1.184553e+04 0.000000e+00 1.184553e+04 -6.307633e+04 0.000000e+00 0.000000e+00 0.000000e+00 0.000000e+00
-1.016343e+05 8.024613e+03 0.000000e+00 8.024613e+03 -6.142291e+04 0.000000e+00 0.000000e+00 0.000000e+00 0.000000e+00
-1.042346e+05 4.167027e+03 0.000000e+00 4.167027e+03 -5.995576e+04 0.000000e+00 0.000000e+00 0.000000e+00 0.000000e+00
-1.046865e+05 6.005527e+02 0.000000e+00 6.005527e+02 -5.889657e+04 0.000000e+00 0.000000e+00 0.000000e+00 0.000000e+00
-1.037399e+05 -2.188412e+03 0.000000e+00 -2.188412e+03 -5.837459e+04 0.000000e+00 0.000000e+00 0.000000e+00 0.000000e+00
-1.023237e+05 -3.744765e+03 0.000000e+00 -3.744765e+03 -5.839994e+04 0.000000e+00 0.000000e+00 0.000000e+00 0.000000e+00
-1.012613e+05 -3.895521e+03 0.000000e+00 -3.895521e+03 -5.877703e+04 0.000000e+00 0.000000e+00 0.000000e+00 0.000000e+00
-1.006605e+05 -2.576357e+03 0.000000e+00 -2.576357e+03 -5.932379e+04 0.000000e+00 0.000000e+00 0.000000e+00 0.000000e+00
-1.002487e+05 -1.230443e+03 0.000000e+00 -1.230443e+03 -5.952014e+04 0.000000e+00 0.000000e+00 0.000000e+00 0.000000e+00
-6.915802e+04 1.425182e+04 0.000000e+00 1.425182e+04 -6.212439e+04 0.000000e+00 0.000000e+00 0.000000e+00 0.000000e+00
-8.208343e+04 1.340138e+04 0.000000e+00 1.340138e+04 -6.387419e+04 0.000000e+00 0.000000e+00 0.000000e+00 0.000000e+00
-9.226785e+04 9.882732e+03 0.000000e+00 9.882732e+03 -6.149830e+04 0.000000e+00 0.000000e+00 0.000000e+00 0.000000e+00
-9.762159e+04 6.403701e+03 0.000000e+00 6.403701e+03 -5.994225e+04 0.000000e+00 0.000000e+00 0.000000e+00 0.000000e+00
-1.003519e+05 2.976721e+03 0.000000e+00 2.976721e+03 -5.878064e+04 0.000000e+00 0.000000e+00 0.000000e+00 0.000000e+00
-1.014310e+05 -1.978497e+01 0.000000e+00 -1.978497e+01 -5.814379e+04 0.000000e+00 0.000000e+00 0.000000e+00 0.000000e+00
-1.016118e+05 -2.194194e+03 0.000000e+00 -2.194194e+03 -5.801514e+04 0.000000e+00 0.000000e+00 0.000000e+00 0.000000e+00
-1.016274e+05 -3.239136e+03 0.000000e+00 -3.239136e+03 -5.829795e+04 0.000000e+00 0.000000e+00 0.000000e+00 0.000000e+00
-1.019612e+05 -3.124924e+03 0.000000e+00 -3.124924e+03 -5.886741e+04 0.000000e+00 0.000000e+00 0.000000e+00 0.000000e+00
-1.027114e+05 -1.931928e+03 0.000000e+00 -1.931928e+03 -5.947255e+04 0.000000e+00 0.000000e+00 0.000000e+00 0.000000e+00
-1.035128e+05 -7.836789e+02 0.000000e+00 -7.836789e+02 -5.996514e+04 0.000000e+00 0.000000e+00 0.000000e+00 0.000000e+00
-6.772095e+04 1.161863e+04 0.000000e+00 1.161863e+04 -6.227490e+04 0.000000e+00 0.000000e+00 0.000000e+00 0.000000e+00
-7.887013e+04 1.074162e+04 0.000000e+00 1.074162e+04 -6.303523e+04 0.000000e+00 0.000000e+00 0.000000e+00 0.000000e+00
-8.871755e+04 7.875539e+03 0.000000e+00 7.875539e+03 -6.070496e+04 0.000000e+00 0.000000e+00 0.000000e+00 0.000000e+00
-9.409093e+04 4.920225e+03 0.000000e+00 4.920225e+03 -5.902776e+04 0.000000e+00 0.000000e+00 0.000000e+00 0.000000e+00
-9.714405e+04 2.108591e+03 0.000000e+00 2.108591e+03 -5.795901e+04 0.000000e+00 0.000000e+00 0.000000e+00 0.000000e+00
-9.888225e+04 -2.387724e+02 0.000000e+00 -2.387724e+02 -5.756253e+04 0.000000e+00 0.000000e+00 0.000000e+00 0.000000e+00
-1.000848e+05 -1.838083e+03 0.000000e+00 -1.838083e+03 -5.772842e+04 0.000000e+00 0.000000e+00 0.000000e+00 0.000000e+00
-1.012645e+05 -2.500954e+03 0.000000e+00 -2.500954e+03 -5.827872e+04 0.000000e+00 0.000000e+00 0.000000e+00 0.000000e+00
-1.026565e+05 -2.294532e+03 0.000000e+00 -2.294532e+03 -5.898459e+04 0.000000e+00 0.000000e+00 0.000000e+00 0.000000e+00
-1.042797e+05 -1.373831e+03 0.000000e+00 -1.373831e+03 -5.963055e+04 0.000000e+00 0.000000e+00 0.000000e+00 0.000000e+00
-1.059046e+05 -5.367400e+02 0.000000e+00 -5.367400e+02 -6.026298e+04 0.000000e+00 0.000000e+00 0.000000e+00 0.000000e+00
-6.703877e+04 8.462105e+03 0.000000e+00 8.462105e+03 -6.335875e+04 0.000000e+00 0.000000e+00 0.000000e+00 0.000000e+00
-7.659636e+04 7.701572e+03 0.000000e+00 7.701572e+03 -6.311796e+04 0.000000e+00 0.000000e+00 0.000000e+00 0.000000e+00
-8.587802e+04 5.603149e+03 0.000000e+00 5.603149e+03 -6.056818e+04 0.000000e+00 0.000000e+00 0.000000e+00 0.000000e+00
-9.121762e+04 3.344197e+03 0.000000e+00 3.344197e+03 -5.873636e+04 0.000000e+00 0.000000e+00 0.000000e+00 0.000000e+00
-9.465300e+04 1.317154e+03 0.000000e+00 1.317154e+03 -5.768075e+04 0.000000e+00 0.000000e+00 0.000000e+00 0.000000e+00
-9.706538e+04 -2.517761e+02 0.000000e+00 -2.517761e+02 -5.739378e+04 0.000000e+00 0.000000e+00 0.000000e+00 0.000000e+00
-9.906406e+04 -1.252125e+03 0.000000e+00 -1.252125e+03 -5.770705e+04 0.000000e+00 0.000000e+00 0.000000e+00 0.000000e+00
-1.010980e+05 -1.637159e+03 0.000000e+00 -1.637159e+03 -5.836757e+04 0.000000e+00 0.000000e+00 0.000000e+00 0.000000e+00
-1.031773e+05 -1.482354e+03 0.000000e+00 -1.482354e+03 -5.910779e+04 0.000000e+00 0.000000e+00 0.000000e+00 0.000000e+00
-1.054125e+05 -8.880833e+02 0.000000e+00 -8.880833e+02 -5.970321e+04 0.000000e+00 0.000000e+00 0.000000e+00 0.000000e+00
-1.076931e+05 -3.437494e+02 0.000000e+00 -3.437494e+02 -6.039251e+04 0.000000e+00 0.000000e+00 0.000000e+00 0.000000e+00
-6.659095e+04 4.445768e+03 0.000000e+00 4.445768e+03 -6.447295e+04 0.000000e+00 0.000000e+00 0.000000e+00 0.000000e+00
-7.508954e+04 4.016840e+03 0.000000e+00 4.016840e+03 -6.364341e+04 0.000000e+00 0.000000e+00 0.000000e+00 0.000000e+00
-8.394295e+04 2.891244e+03 0.000000e+00 2.891244e+03 -6.069665e+04 0.000000e+00 0.000000e+00 0.000000e+00 0.000000e+00
-8.936320e+04 1.682167e+03 0.000000e+00 1.682167e+03 -5.873952e+04 0.000000e+00 0.000000e+00 0.000000e+00 0.000000e+00
-9.308772e+04 6.311941e+02 0.000000e+00 6.311941e+02 -5.771864e+04 0.000000e+00 0.000000e+00 0.000000e+00 0.000000e+00
-9.600277e+04 -1.454609e+02 0.000000e+00 -1.454609e+02 -5.748469e+04 0.000000e+00 0.000000e+00 0.000000e+00 0.000000e+00
-9.852404e+04 -6.093043e+02 0.000000e+00 -6.093043e+02 -5.782987e+04 0.000000e+00 0.000000e+00 0.000000e+00 0.000000e+00
-1.010137e+05 -7.886738e+02 0.000000e+00 -7.886738e+02 -5.847962e+04 0.000000e+00 0.000000e+00 0.000000e+00 0.000000e+00
-1.034660e+05 -7.332915e+02 0.000000e+00 -7.332915e+02 -5.919668e+04 0.000000e+00 0.000000e+00 0.000000e+00 0.000000e+00
-1.061124e+05 -4.386768e+02 0.000000e+00 -4.386768e+02 -5.970934e+04 0.000000e+00 0.000000e+00 0.000000e+00 0.000000e+00
-1.087835e+05 -1.411025e+02 0.000000e+00 -1.411025e+02 -6.048477e+04 0.000000e+00 0.000000e+00 0.000000e+00 0.000000e+00
-6.635039e+04 1.296993e+03 0.000000e+00 1.296993e+03 -6.465082e+04 0.000000e+00 0.000000e+00 0.000000e+00 0.000000e+00
-7.454432e+04 1.180059e+03 0.000000e+00 1.180059e+03 -6.373800e+04 0.000000e+00 0.000000e+00 0.000000e+00 0.000000e+00
-8.327070e+04 7.553790e+02 0.000000e+00 7.553790e+02 -6.079512e+04 0.000000e+00 0.000000e+00 0.000000e+00 0.000000e+00
-8.873655e+04 3.044345e+02 0.000000e+00 3.044345e+02 -5.885524e+04 0.000000e+00 0.000000e+00 0.000000e+00 0.000000e+00
-9.259683e+04 -8.147203e+01 0.000000e+00 -8.147203e+01 -5.785892e+04 0.000000e+00 0.000000e+00 0.000000e+00 0.000000e+00
-9.572837e+04 -3.716909e+02 0.000000e+00 -3.716909e+02 -5.762220e+04 0.000000e+00 0.000000e+00 0.000000e+00 0.000000e+00
-9.840516e+04 -5.522241e+02 0.000000e+00 -5.522241e+02 -5.793724e+04 0.000000e+00 0.000000e+00 0.000000e+00 0.000000e+00
-1.010117e+05 -6.284320e+02 0.000000e+00 -6.284320e+02 -5.853037e+04 0.000000e+00 0.000000e+00 0.000000e+00 0.000000e+00
-1.035714e+05 -6.047955e+02 0.000000e+00 -6.047955e+02 -5.922229e+04 0.000000e+00 0.000000e+00 0.000000e+00 0.000000e+00
-1.063787e+05 -4.594200e+02 0.000000e+00 -4.594200e+02 -5.972045e+04 0.000000e+00 0.000000e+00 0.000000e+00 0.000000e+00
-1.091658e+05 -2.873535e+02 0.000000e+00 -2.873535e+02 -6.054679e+04 0.000000e+00 0.000000e+00 0.000000e+00 0.000000e+00
</DataArray>
<DataArray Name="vol_eps" type="Float64" NumberOfComponents="1" format="ascii">
-1.431464e-02
-1.206318e-02
-9.216305e-03
-7.722605e-03
-7.082814e-03
-7.629134e-03
-9.167656e-03
-1.174348e-02
-1.586146e-02
-2.043618e-02
-2.056865e-02
-1.412337e-02
-1.116878e-02
-8.976148e-03
-7.879659e-03
-7.619575e-03
-7.957260e-03
-8.757197e-03
-1.011649e-02
-1.295971e-02
-1.608940e-02
-2.270830e-02
-1.181194e-02
-8.425225e-03
-7.264737e-03
-7.321142e-03
-7.885254e-03
-8.686974e-03
-9.615557e-03
-1.004485e-02
-1.015423e-02
-1.062458e-02
-1.523806e-02
-7.423263e-03
-5.322677e-03
-5.143444e-03
-5.592072e-03
-5.494140e-03
-4.414210e-03
-2.328087e-03
2.009645e-04
4.081548e-03
8.881811e-03
1.480766e-02
-4.805464e-03
-4.389297e-03
-5.531833e-03
-6.460023e-03
-6.766702e-03
-6.705157e-03
-6.196269e-03
-5.552238e-03
-4.641868e-03
-2.675509e-03
1.385681e-03
-2.989263e-03
-3.583574e-03
-5.009150e-03
-5.620283e-03
-5.740492e-03
-5.546545e-03
-5.053081e-03
-4.394444e-03
-3.583976e-03
-1.958996e-03
6.942478e-04
-1.641868e-03
-2.969866e-03
-4.343740e-03
-4.810278e-03
-4.820906e-03
-4.534488e-03
-4.085300e-03
-3.551191e-03
-2.946223e-03
-1.773605e-03
-1.252034e-04
-6.835129e-04
-2.466999e-03
-3.768972e-03
-4.093528e-03
-4.042069e-03
-3.781259e-03
-3.403665e-03
-2.990623e-03
-2.577145e-03
-1.841458e-03
-7.810784e-04
-2.235949e-04
-2.154314e-03
-3.257461e-03
-3.483589e-03
-3.459947e-03
-3.245204e-03
-2.933809e-03
-2.631754e-03
-2.394296e-03
-1.999460e-03
-1.350789e-03
-4.287220e-05
-1.925054e-03
-2.847274e-03
-3.026983e-03
-3.027567e-03
-2.861645e-03
-2.629631e-03
-2.427875e-03
-2.327442e-03
-2.177148e-03
-1.831896e-03
-1.149793e-04
-1.767557e-03
-2.494621e-03
-2.674652e-03
-2.699627e-03
-2.594355e-03
-2.440418e-03
-2.328853e-03
-2.328770e-03
-2.334345e-03
-2.206309e-03
-2.653075e-04
-1.622546e-03
-2.215338e-03
-2.413412e-03
-2.459434e-03
-2.409651e-03
-2.326482e-03
-2.297543e-03
-2.364733e-03
-2.451283e-03
-2.465582e-03
-4.109841e-04
-1.481441e-03
-1.993253e-03
-2.194999e-03
-2.266347e-03
-2.267565e-03
-2.255270e-03
-2.298905e-03
-2.410566e-03
-2.536969e-03
-2.634665e-03
-5.133221e-04
-1.343346e-03
-1.820669e-03
-2.020011e-03
-2.107833e-03
-2.146384e-03
-2.202094e-03
-2.309890e-03
-2.453475e-03
-2.588301e-03
-2.721354e-03
-6.148358e-04
-1.240138e-03
-1.675689e-03
-1.874977e-03
-1.984877e-03
-2.072669e-03
-2.180721e-03
-2.328152e-03
-2.482634e-03
-2.609193e-03
-2.762921e-03
-6.957693e-04
-1.188455e-03
-1.569701e-03
-1.780741e-03
-1.916903e-03
-2.043843e-03
-2.183151e-03
-2.343416e-03
-2.497156e-03
-2.617710e-03
-2.787971e-03
-7.026020e-04
-1.162681e-03
-1.535335e-03
-1.758071e-03
-1.909848e-03
-2.050196e-03
-2.194359e-03
-2.352756e-03
-2.505938e-03
-2.628790e-03
-2.806629e-03
</DataArray>
</PointData>
</Piece>
</UnstructuredGrid>
</VTKFile>
