<?xml version="1.0"?>
<VTKFile type="UnstructuredGrid" version="0.1">
<UnstructuredGrid>
<FieldData>
<DataArray Name="TIME" type="Float64" format="ascii" NumberOfTuples="1">
0.000000e+00
</DataArray>
</FieldData>
<FieldData>
<DataArray Name="CYCLE" type="Int32" format="ascii" NumberOfTuples="1">
0
</DataArray>
</FieldData>
<Piece NumberOfPoints="187" NumberOfCells="160">
<Points>
<DataArray NumberOfComponents="3" type="Float64" format="ascii">
0.000000e+00 0.000000e+00 0.000000e+00
0.000000e+00 1.989745e-01 0.000000e+00
0.000000e+00 3.976275e-01 0.000000e+00
0.000000e+00 5.959372e-01 0.000000e+00
0.000000e+00 7.939340e-01 0.000000e+00
0.000000e+00 9.917144e-01 0.000000e+00
0.000000e+00 1.189343e+00 0.000000e+00
0.000000e+00 1.386911e+00 0.000000e+00
0.000000e+00 1.584579e+00 0.000000e+00
0.000000e+00 1.782618e+00 0.000000e+00
0.000000e+00 1.980875e+00 0.000000e+00
2.250000e-01 0.000000e+00 0.000000e+00
2.253668e-01 1.990263e-01 0.000000e+00
2.257333e-01 3.977672e-01 0.000000e+00
2.260676e-01 5.962173e-01 0.000000e+00
2.263172e-01 7.943743e-01 0.000000e+00
2.264365e-01 9.922794e-01 0.000000e+00
2.264273e-01 1.189994e+00 0.000000e+00
2.262612e-01 1.387586e+00 0.000000e+00
2.258580e-01 1.585140e+00 0.000000e+00
2.252202e-01 1.782773e+00 0.000000e+00
2.250000e-01 1.980875e+00 0.000000e+00
4.500000e-01 0.000000e+00 0.000000e+00
4.506740e-01 1.991341e-01 0.000000e+00
4.512998e-01 3.980829e-01 0.000000e+00
4.518685e-01 5.968618e-01 0.000000e+00
4.523297e-01 7.954678e-01 0.000000e+00
4.526380e-01 9.938707e-01 0.000000e+00
4.527535e-01 1.192015e+00 0.000000e+00
4.526342e-01 1.389847e+00 0.000000e+00
4.522047e-01 1.587320e+00 0.000000e+00
4.515076e-01 1.784307e+00 0.000000e+00
4.500000e-01 1.980875e+00 0.000000e+00
6.750000e-01 0.000000e+00 0.000000e+00
6.758762e-01 1.992736e-01 0.000000e+00
6.766258e-01 3.984722e-01 0.000000e+00
6.772656e-01 5.976365e-01 0.000000e+00
6.777919e-01 7.967978e-01 0.000000e+00
6.781834e-01 9.959890e-01 0.000000e+00
6.784164e-01 1.195256e+00 0.000000e+00
6.784731e-01 1.394644e+00 0.000000e+00
6.783193e-01 1.594181e+00 0.000000e+00
6.778107e-01 1.794012e+00 0.000000e+00
6.755679e-01 1.994491e+00 0.000000e+00
9.000000e-01 0.000000e+00 0.000000e+00
9.009656e-01 1.994282e-01 0.000000e+00
9.017244e-01 3.988552e-01 0.000000e+00
9.023327e-01 5.983072e-01 0.000000e+00
9.028031e-01 7.978051e-01 0.000000e+00
9.031238e-01 9.973679e-01 0.000000e+00
9.032720e-01 1.197015e+00 0.000000e+00
9.032221e-01 1.396774e+00 0.000000e+00
9.029246e-01 1.596688e+00 0.000000e+00
9.020897e-01 1.796787e+00 0.000000e+00
9.005699e-01 1.996739e+00 0.000000e+00
1.125000e+00 0.000000e+00 0.000000e+00
1.125963e+00 1.995765e-01 0.000000e+00
1.126677e+00 3.991869e-01 0.000000e+00
1.127224e+00 5.988407e-01 0.000000e+00
1.127625e+00 7.985476e-01 0.000000e+00
1.127874e+00 9.983193e-01 0.000000e+00
1.127951e+00 1.198168e+00 0.000000e+00
1.127830e+00 1.398104e+00 0.000000e+00
1.127452e+00 1.598135e+00 0.000000e+00
1.126742e+00 1.798199e+00 0.000000e+00
1.125774e+00 1.998218e+00 0.000000e+00
1.350000e+00 0.000000e+00 0.000000e+00
1.350894e+00 1.996982e-01 0.000000e+00
1.351543e+00 3.994448e-01 0.000000e+00
1.352027e+00 5.992368e-01 0.000000e+00
1.352366e+00 7.990794e-01 0.000000e+00
1.352558e+00 9.989790e-01 0.000000e+00
1.352588e+00 1.198938e+00 0.000000e+00
1.352439e+00 1.398955e+00 0.000000e+00
1.352088e+00 1.599016e+00 0.000000e+00
1.351544e+00 1.799082e+00 0.000000e+00
1.350912e+00 1.999086e+00 0.000000e+00
1.575000e+00 0.000000e+00 0.000000e+00
1.575790e+00 1.997895e-01 0.000000e+00
1.576367e+00 3.996312e-01 0.000000e+00
1.576790e+00 5.995180e-01 0.000000e+00
1.577076e+00 7.994505e-01 0.000000e+00
1.577225e+00 9.994273e-01 0.000000e+00
1.577231e+00 1.199448e+00 0.000000e+00
1.577088e+00 1.399505e+00 0.000000e+00
1.576800e+00 1.599579e+00 0.000000e+00
1.576404e+00 1.799637e+00 0.000000e+00
1.575991e+00 1.999649e+00 0.000000e+00
1.800000e+00 0.000000e+00 0.000000e+00
1.800672e+00 1.998545e-01 0.000000e+00
1.801174e+00 3.997619e-01 0.000000e+00
1.801540e+00 5.997120e-01 0.000000e+00
1.801781e+00 7.997001e-01 0.000000e+00
1.801901e+00 9.997246e-01 0.000000e+00
1.801898e+00 1.199780e+00 0.000000e+00
1.801778e+00 1.399855e+00 0.000000e+00
1.801559e+00 1.599931e+00 0.000000e+00
1.801281e+00 1.799987e+00 0.000000e+00
1.801016e+00 2.000007e+00 0.000000e+00
2.025000e+00 0.000000e+00 0.000000e+00
2.025556e+00 1.998996e-01 0.000000e+00
2.025983e+00 3.998501e-01 0.000000e+00
2.026294e+00 5.998397e-01 0.000000e+00
2.026497e+00 7.998629e-01 0.000000e+00
2.026596e+00 9.999146e-01 0.000000e+00
2.026594e+00 1.199987e+00 0.000000e+00
2.026503e+00 1.400069e+00 0.000000e+00
2.026345e+00 1.600145e+00 0.000000e+00
2.026156e+00 1.800202e+00 0.000000e+00
2.025992e+00 2.000230e+00 0.000000e+00
2.250000e+00 0.000000e+00 0.000000e+00
2.250449e+00 1.999296e-01 0.000000e+00
2.250802e+00 3.999058e-01 0.000000e+00
2.251062e+00 5.999194e-01 0.000000e+00
2.251231e+00 7.999633e-01 0.000000e+00
2.251314e+00 1.000030e+00 0.000000e+00
2.251318e+00 1.200110e+00 0.000000e+00
2.251254e+00 1.400193e+00 0.000000e+00
2.251145e+00 1.600269e+00 0.000000e+00
2.251022e+00 1.800327e+00 0.000000e+00
2.250927e+00 2.000364e+00 0.000000e+00
2.475000e+00 0.000000e+00 0.000000e+00
2.475353e+00 1.999486e-01 0.000000e+00
2.475637e+00 3.999411e-01 0.000000e+00
2.475849e+00 5.999683e-01 0.000000e+00
2.475987e+00 8.000223e-01 0.000000e+00
2.476056e+00 1.000095e+00 0.000000e+00
2.476064e+00 1.200177e+00 0.000000e+00
2.476023e+00 1.400260e+00 0.000000e+00
2.475951e+00 1.600334e+00 0.000000e+00
2.475875e+00 1.800394e+00 0.000000e+00
2.475826e+00 2.000439e+00 0.000000e+00
2.700000e+00 0.000000e+00 0.000000e+00
2.700269e+00 1.999614e-01 0.000000e+00
2.700488e+00 3.999628e-01 0.000000e+00
2.700654e+00 5.999971e-01 0.000000e+00
2.700763e+00 8.000559e-01 0.000000e+00
2.700819e+00 1.000130e+00 0.000000e+00
2.700830e+00 1.200212e+00 0.000000e+00
2.700805e+00 1.400293e+00 0.000000e+00
2.700761e+00 1.600366e+00 0.000000e+00
2.700716e+00 1.800428e+00 0.000000e+00
2.700695e+00 2.000479e+00 0.000000e+00
2.925000e+00 0.000000e+00 0.000000e+00
2.925194e+00 1.999696e-01 0.000000e+00
2.925355e+00 3.999768e-01 0.000000e+00
2.925476e+00 6.000150e-01 0.000000e+00
2.925557e+00 8.000758e-01 0.000000e+00
2.925600e+00 1.000150e+00 0.000000e+00
2.925610e+00 1.200230e+00 0.000000e+00
2.925597e+00 1.400309e+00 0.000000e+00
2.925571e+00 1.600381e+00 0.000000e+00
2.925547e+00 1.800445e+00 0.000000e+00
2.925541e+00 2.000502e+00 0.000000e+00
3.150000e+00 0.000000e+00 0.000000e+00
3.150127e+00 1.999772e-01 0.000000e+00
3.150232e+00 3.999885e-01 0.000000e+00
3.150311e+00 6.000291e-01 0.000000e+00
3.150364e+00 8.000907e-01 0.000000e+00
3.150393e+00 1.000165e+00 0.000000e+00
3.150401e+00 1.200243e+00 0.000000e+00
3.150395e+00 1.400320e+00 0.000000e+00
3.150381e+00 1.600392e+00 0.000000e+00
3.150369e+00 1.800457e+00 0.000000e+00
3.150370e+00 2.000517e+00 0.000000e+00
3.375000e+00 0.000000e+00 0.000000e+00
3.375065e+00 1.999840e-01 0.000000e+00
3.375115e+00 4.000013e-01 0.000000e+00
3.375153e+00 6.000448e-01 0.000000e+00
3.375180e+00 8.001074e-01 0.000000e+00
3.375195e+00 1.000181e+00 0.000000e+00
3.375199e+00 1.200259e+00 0.000000e+00
3.375196e+00 1.400335e+00 0.000000e+00
3.375191e+00 1.600407e+00 0.000000e+00
3.375186e+00 1.800472e+00 0.000000e+00
3.375188e+00 2.000535e+00 0.000000e+00
3.600000e+00 0.000000e+00 0.000000e+00
3.600000e+00 1.999996e-01 0.000000e+00
3.600000e+00 4.000225e-01 0.000000e+00
3.600000e+00 6.000677e-01 0.000000e+00
3.600000e+00 8.001307e-01 0.000000e+00
3.600000e+00 1.000204e+00 0.000000e+00
3.600000e+00 1.200281e+00 0.000000e+00
3.600000e+00 1.400357e+00 0.000000e+00
3.600000e+00 1.600429e+00 0.000000e+00
3.600000e+00 1.800495e+00 0.000000e+00
3.600000e+00 2.000558e+00 0.000000e+00
</DataArray>
</Points>
<Cells>
<DataArray Name="connectivity" type="Int32" format="ascii">
0 11 12 1
1 12 13 2
2 13 14 3
3 14 15 4
4 15 16 5
5 16 17 6
6 17 18 7
7 18 19 8
8 19 20 9
9 20 21 10
11 22 23 12
12 23 24 13
13 24 25 14
14 25 26 15
15 26 27 16
16 27 28 17
17 28 29 18
18 29 30 19
19 30 31 20
20 31 32 21
22 33 34 23
23 34 35 24
24 35 36 25
25 36 37 26
26 37 38 27
27 38 39 28
28 39 40 29
29 40 41 30
30 41 42 31
31 42 43 32
33 44 45 34
34 45 46 35
35 46 47 36
36 47 48 37
37 48 49 38
38 49 50 39
39 50 51 40
40 51 52 41
41 52 53 42
42 53 54 43
44 55 56 45
45 56 57 46
46 57 58 47
47 58 59 48
48 59 60 49
49 60 61 50
50 61 62 51
51 62 63 52
52 63 64 53
53 64 65 54
55 66 67 56
56 67 68 57
57 68 69 58
58 69 70 59
59 70 71 60
60 71 72 61
61 72 73 62
62 73 74 63
63 74 75 64
64 75 76 65
66 77 78 67
67 78 79 68
68 79 80 69
69 80 81 70
70 81 82 71
71 82 83 72
72 83 84 73
73 84 85 74
74 85 86 75
75 86 87 76
77 88 89 78
78 89 90 79
79 90 91 80
80 91 92 81
81 92 93 82
82 93 94 83
83 94 95 84
84 95 96 85
85 96 97 86
86 97 98 87
88 99 100 89
89 100 101 90
90 101 102 91
91 102 103 92
92 103 104 93
93 104 105 94
94 105 106 95
95 106 107 96
96 107 108 97
97 108 109 98
99 110 111 100
100 111 112 101
101 112 113 102
102 113 114 103
103 114 115 104
104 115 116 105
105 116 117 106
106 117 118 107
107 118 119 108
108 119 120 109
110 121 122 111
111 122 123 112
112 123 124 113
113 124 125 114
114 125 126 115
115 126 127 116
116 127 128 117
117 128 129 118
118 129 130 119
119 130 131 120
121 132 133 122
122 133 134 123
123 134 135 124
124 135 136 125
125 136 137 126
126 137 138 127
127 138 139 128
128 139 140 129
129 140 141 130
130 141 142 131
132 143 144 133
133 144 145 134
134 145 146 135
135 146 147 136
136 147 148 137
137 148 149 138
138 149 150 139
139 150 151 140
140 151 152 141
141 152 153 142
143 154 155 144
144 155 156 145
145 156 157 146
146 157 158 147
147 158 159 148
148 159 160 149
149 160 161 150
150 161 162 151
151 162 163 152
152 163 164 153
154 165 166 155
155 166 167 156
156 167 168 157
157 168 169 158
158 169 170 159
159 170 171 160
160 171 172 161
161 172 173 162
162 173 174 163
163 174 175 164
165 176 177 166
166 177 178 167
167 178 179 168
168 179 180 169
169 180 181 170
170 181 182 171
171 182 183 172
172 183 184 173
173 184 185 174
174 185 186 175
</DataArray>
<DataArray Name="offsets" type="Int32" format="ascii">
4
8
12
16
20
24
28
32
36
40
44
48
52
56
60
64
68
72
76
80
84
88
92
96
100
104
108
112
116
120
124
128
132
136
140
144
148
152
156
160
164
168
172
176
180
184
188
192
196
200
204
208
212
216
220
224
228
232
236
240
244
248
252
256
260
264
268
272
276
280
284
288
292
296
300
304
308
312
316
320
324
328
332
336
340
344
348
352
356
360
364
368
372
376
380
384
388
392
396
400
404
408
412
416
420
424
428
432
436
440
444
448
452
456
460
464
468
472
476
480
484
488
492
496
500
504
508
512
516
520
524
528
532
536
540
544
548
552
556
560
564
568
572
576
580
584
588
592
596
600
604
608
612
616
620
624
628
632
636
640
</DataArray>
<DataArray Name="types" type="UInt8" format="ascii">
9
9
9
9
9
9
9
9
9
9
9
9
9
9
9
9
9
9
9
9
9
9
9
9
9
9
9
9
9
9
9
9
9
9
9
9
9
9
9
9
9
9
9
9
9
9
9
9
9
9
9
9
9
9
9
9
9
9
9
9
9
9
9
9
9
9
9
9
9
9
9
9
9
9
9
9
9
9
9
9
9
9
9
9
9
9
9
9
9
9
9
9
9
9
9
9
9
9
9
9
9
9
9
9
9
9
9
9
9
9
9
9
9
9
9
9
9
9
9
9
9
9
9
9
9
9
9
9
9
9
9
9
9
9
9
9
9
9
9
9
9
9
9
9
9
9
9
9
9
9
9
9
9
9
9
9
9
9
9
9
</DataArray>
</Cells>
<PointData>
<DataArray Name="disp" type="Float64" NumberOfComponents="3" format="ascii">
0.000000e+00 0.000000e+00 0.000000e+00
0.000000e+00 -1.025511e-03 0.000000e+00
0.000000e+00 -2.372454e-03 0.000000e+00
0.000000e+00 -4.062824e-03 0.000000e+00
0.000000e+00 -6.065924e-03 0.000000e+00
0.000000e+00 -8.285618e-03 0.000000e+00
0.000000e+00 -1.065702e-02 0.000000e+00
0.000000e+00 -1.308903e-02 0.000000e+00
0.000000e+00 -1.542131e-02 0.000000e+00
0.000000e+00 -1.738247e-02 0.000000e+00
0.000000e+00 -1.912500e-02 0.000000e+00
0.000000e+00 0.000000e+00 0.000000e+00
3.668234e-04 -9.736565e-04 0.000000e+00
7.332976e-04 -2.232801e-03 0.000000e+00
1.067583e-03 -3.782678e-03 0.000000e+00
1.317154e-03 -5.625660e-03 0.000000e+00
1.436475e-03 -7.720632e-03 0.000000e+00
1.427263e-03 -1.000559e-02 0.000000e+00
1.261171e-03 -1.241430e-02 0.000000e+00
8.579982e-04 -1.485968e-02 0.000000e+00
2.202137e-04 -1.722662e-02 0.000000e+00
0.000000e+00 -1.912500e-02 0.000000e+00
0.000000e+00 0.000000e+00 0.000000e+00
6.740123e-04 -8.659438e-04 0.000000e+00
1.299822e-03 -1.917157e-03 0.000000e+00
1.868480e-03 -3.138221e-03 0.000000e+00
2.329685e-03 -4.532205e-03 0.000000e+00
2.638027e-03 -6.129289e-03 0.000000e+00
2.753510e-03 -7.985044e-03 0.000000e+00
2.634143e-03 -1.015300e-02 0.000000e+00
2.204730e-03 -1.267986e-02 0.000000e+00
1.507638e-03 -1.569351e-02 0.000000e+00
0.000000e+00 -1.912500e-02 0.000000e+00
0.000000e+00 0.000000e+00 0.000000e+00
8.761946e-04 -7.264506e-04 0.000000e+00
1.625780e-03 -1.527836e-03 0.000000e+00
2.265563e-03 -2.363459e-03 0.000000e+00
2.791866e-03 -3.202201e-03 0.000000e+00
3.183413e-03 -4.011052e-03 0.000000e+00
3.416379e-03 -4.744250e-03 0.000000e+00
3.473052e-03 -5.355455e-03 0.000000e+00
3.319267e-03 -5.819243e-03 0.000000e+00
2.810671e-03 -5.988177e-03 0.000000e+00
5.679479e-04 -5.509130e-03 0.000000e+00
0.000000e+00 0.000000e+00 0.000000e+00
9.656466e-04 -5.717664e-04 0.000000e+00
1.724379e-03 -1.144798e-03 0.000000e+00
2.332650e-03 -1.692793e-03 0.000000e+00
2.803076e-03 -2.194892e-03 0.000000e+00
3.123821e-03 -2.632168e-03 0.000000e+00
3.271981e-03 -2.984542e-03 0.000000e+00
3.222100e-03 -3.225845e-03 0.000000e+00
2.924589e-03 -3.312255e-03 0.000000e+00
2.089731e-03 -3.212657e-03 0.000000e+00
5.698533e-04 -3.261068e-03 0.000000e+00
0.000000e+00 0.000000e+00 0.000000e+00
9.630807e-04 -4.234886e-04 0.000000e+00
1.677187e-03 -8.131240e-04 0.000000e+00
2.223786e-03 -1.159372e-03 0.000000e+00
2.624832e-03 -1.452456e-03 0.000000e+00
2.873762e-03 -1.680665e-03 0.000000e+00
2.951058e-03 -1.832041e-03 0.000000e+00
2.829850e-03 -1.895586e-03 0.000000e+00
2.452464e-03 -1.865400e-03 0.000000e+00
1.742379e-03 -1.801044e-03 0.000000e+00
7.741477e-04 -1.782165e-03 0.000000e+00
0.000000e+00 0.000000e+00 0.000000e+00
8.943987e-04 -3.017538e-04 0.000000e+00
1.543167e-03 -5.552373e-04 0.000000e+00
2.027231e-03 -7.632290e-04 0.000000e+00
2.366408e-03 -9.206078e-04 0.000000e+00
2.557533e-03 -1.021030e-03 0.000000e+00
2.587734e-03 -1.062106e-03 0.000000e+00
2.438728e-03 -1.045021e-03 0.000000e+00
2.088476e-03 -9.836864e-04 0.000000e+00
1.543668e-03 -9.181696e-04 0.000000e+00
9.121422e-04 -9.143864e-04 0.000000e+00
0.000000e+00 0.000000e+00 0.000000e+00
7.900330e-04 -2.104627e-04 0.000000e+00
1.366996e-03 -3.687958e-04 0.000000e+00
1.790222e-03 -4.820155e-04 0.000000e+00
2.076027e-03 -5.495393e-04 0.000000e+00
2.225184e-03 -5.726712e-04 0.000000e+00
2.230590e-03 -5.522974e-04 0.000000e+00
2.087655e-03 -4.952509e-04 0.000000e+00
1.799802e-03 -4.212199e-04 0.000000e+00
1.404392e-03 -3.632123e-04 0.000000e+00
9.914252e-04 -3.514252e-04 0.000000e+00
0.000000e+00 0.000000e+00 0.000000e+00
6.720027e-04 -1.455347e-04 0.000000e+00
1.174231e-03 -2.380700e-04 0.000000e+00
1.539946e-03 -2.879625e-04 0.000000e+00
1.781242e-03 -2.998498e-04 0.000000e+00
1.900578e-03 -2.754627e-04 0.000000e+00
1.897691e-03 -2.201948e-04 0.000000e+00
1.778289e-03 -1.453820e-04 0.000000e+00
1.559004e-03 -6.890170e-05 0.000000e+00
1.281101e-03 -1.262644e-05 0.000000e+00
1.015737e-03 6.804996e-06 0.000000e+00
0.000000e+00 0.000000e+00 0.000000e+00
5.559891e-04 -1.004190e-04 0.000000e+00
9.825210e-04 -1.499050e-04 0.000000e+00
1.293623e-03 -1.603089e-04 0.000000e+00
1.497163e-03 -1.370615e-04 0.000000e+00
1.595480e-03 -8.539730e-05 0.000000e+00
1.593853e-03 -1.295196e-05 0.000000e+00
1.503276e-03 6.888949e-05 0.000000e+00
1.344659e-03 1.452679e-04 0.000000e+00
1.156162e-03 2.020329e-04 0.000000e+00
9.921800e-04 2.303328e-04 0.000000e+00
0.000000e+00 0.000000e+00 0.000000e+00
4.489215e-04 -7.037142e-05 0.000000e+00
8.017275e-04 -9.420583e-05 0.000000e+00
1.062061e-03 -8.061131e-05 0.000000e+00
1.231376e-03 -3.668964e-05 0.000000e+00
1.314162e-03 2.955586e-05 0.000000e+00
1.317571e-03 1.097004e-04 0.000000e+00
1.253687e-03 1.932311e-04 0.000000e+00
1.144609e-03 2.685856e-04 0.000000e+00
1.021699e-03 3.267446e-04 0.000000e+00
9.269827e-04 3.635337e-04 0.000000e+00
0.000000e+00 0.000000e+00 0.000000e+00
3.526805e-04 -5.143902e-05 0.000000e+00
6.369493e-04 -5.892192e-05 0.000000e+00
8.487061e-04 -3.167989e-05 0.000000e+00
9.867324e-04 2.228132e-05 0.000000e+00
1.056148e-03 9.505823e-05 0.000000e+00
1.064265e-03 1.774736e-04 0.000000e+00
1.022773e-03 2.599009e-04 0.000000e+00
9.514461e-04 3.341072e-04 0.000000e+00
8.751814e-04 3.941888e-04 0.000000e+00
8.258796e-04 4.389195e-04 0.000000e+00
0.000000e+00 0.000000e+00 0.000000e+00
2.684566e-04 -3.863348e-05 0.000000e+00
4.884431e-04 -3.715200e-05 0.000000e+00
6.540002e-04 -2.918098e-06 0.000000e+00
7.629787e-04 5.588992e-05 0.000000e+00
8.193142e-04 1.302053e-04 0.000000e+00
8.299304e-04 2.118107e-04 0.000000e+00
8.053227e-04 2.925674e-04 0.000000e+00
7.610267e-04 3.658096e-04 0.000000e+00
7.165484e-04 4.279174e-04 0.000000e+00
6.949520e-04 4.793718e-04 0.000000e+00
0.000000e+00 0.000000e+00 0.000000e+00
1.940646e-04 -3.041649e-05 0.000000e+00
3.548028e-04 -2.314032e-05 0.000000e+00
4.757491e-04 1.500095e-05 0.000000e+00
5.569267e-04 7.581602e-05 0.000000e+00
5.999679e-04 1.499270e-04 0.000000e+00
6.103863e-04 2.299058e-04 0.000000e+00
5.969687e-04 3.087234e-04 0.000000e+00
5.712645e-04 3.811655e-04 0.000000e+00
5.472312e-04 4.449320e-04 0.000000e+00
5.408853e-04 5.015571e-04 0.000000e+00
0.000000e+00 0.000000e+00 0.000000e+00
1.275187e-04 -2.281770e-05 0.000000e+00
2.318687e-04 -1.145880e-05 0.000000e+00
3.104949e-04 2.903024e-05 0.000000e+00
3.642397e-04 9.069185e-05 0.000000e+00
3.932773e-04 1.645271e-04 0.000000e+00
4.013968e-04 2.431079e-04 0.000000e+00
3.948297e-04 3.203269e-04 0.000000e+00
3.812062e-04 3.921803e-04 0.000000e+00
3.695174e-04 4.571771e-04 0.000000e+00
3.697872e-04 5.173950e-04 0.000000e+00
0.000000e+00 0.000000e+00 0.000000e+00
6.502228e-05 -1.598617e-05 0.000000e+00
1.151698e-04 1.257346e-06 0.000000e+00
1.533739e-04 4.479827e-05 0.000000e+00
1.801472e-04 1.074043e-04 0.000000e+00
1.946996e-04 1.810932e-04 0.000000e+00
1.991098e-04 2.587706e-04 0.000000e+00
1.964896e-04 3.350867e-04 0.000000e+00
1.907353e-04 4.065308e-04 0.000000e+00
1.861882e-04 4.723024e-04 0.000000e+00
1.876136e-04 5.346496e-04 0.000000e+00
0.000000e+00 0.000000e+00 0.000000e+00
0.000000e+00 -4.108446e-07 0.000000e+00
0.000000e+00 2.252401e-05 0.000000e+00
0.000000e+00 6.775333e-05 0.000000e+00
0.000000e+00 1.307085e-04 0.000000e+00
0.000000e+00 2.041514e-04 0.000000e+00
0.000000e+00 2.813225e-04 0.000000e+00
0.000000e+00 3.572161e-04 0.000000e+00
0.000000e+00 4.286322e-04 0.000000e+00
0.000000e+00 4.947934e-04 0.000000e+00
0.000000e+00 5.578918e-04 0.000000e+00
</DataArray>
<DataArray Name="shear" type="Float64" NumberOfComponents="1" format="ascii">
5.638849e-03
7.510018e-03
1.073175e-02
1.380430e-02
1.626727e-02
1.782072e-02
1.839428e-02
1.763811e-02
1.492611e-02
1.106053e-02
9.337693e-03
5.662769e-03
7.331480e-03
1.015844e-02
1.290805e-02
1.535187e-02
1.725849e-02
1.843818e-02
1.856482e-02
1.735226e-02
1.449359e-02
1.183235e-02
5.835585e-03
6.973691e-03
8.854982e-03
1.077867e-02
1.288879e-02
1.531760e-02
1.808363e-02
2.110910e-02
2.446473e-02
2.645669e-02
2.651314e-02
5.927371e-03
6.450776e-03
7.240597e-03
8.129630e-03
9.254489e-03
1.078879e-02
1.295057e-02
1.593464e-02
1.963843e-02
2.164259e-02
2.291240e-02
5.782718e-03
5.824669e-03
5.813173e-03
5.982978e-03
6.241846e-03
6.520604e-03
6.756533e-03
6.858665e-03
6.311389e-03
3.876654e-03
1.145968e-03
5.388095e-03
5.142275e-03
4.704578e-03
4.550005e-03
4.484854e-03
4.411902e-03
4.268849e-03
3.946115e-03
3.129053e-03
1.460157e-03
1.722919e-04
4.814742e-03
4.449947e-03
3.855178e-03
3.568175e-03
3.379314e-03
3.193977e-03
2.953546e-03
2.577740e-03
1.929054e-03
8.635134e-04
8.047537e-05
4.158265e-03
3.792907e-03
3.208732e-03
2.893489e-03
2.679007e-03
2.488072e-03
2.273782e-03
1.970844e-03
1.486241e-03
7.245674e-04
1.336869e-04
3.492060e-03
3.184490e-03
2.696978e-03
2.415541e-03
2.230532e-03
2.084181e-03
1.924777e-03
1.690785e-03
1.314687e-03
7.377145e-04
2.934569e-04
2.865576e-03
2.627948e-03
2.260379e-03
2.049817e-03
1.926539e-03
1.834889e-03
1.724420e-03
1.543656e-03
1.244390e-03
7.968667e-04
4.695745e-04
2.300215e-03
2.126096e-03
1.879939e-03
1.756620e-03
1.701773e-03
1.662441e-03
1.591098e-03
1.450150e-03
1.210965e-03
8.707502e-04
6.394063e-04
1.801894e-03
1.683615e-03
1.548933e-03
1.513367e-03
1.523883e-03
1.529500e-03
1.489284e-03
1.380390e-03
1.194417e-03
9.469645e-04
7.926509e-04
1.368564e-03
1.295049e-03
1.258728e-03
1.311310e-03
1.381171e-03
1.421478e-03
1.407057e-03
1.326819e-03
1.187411e-03
1.017244e-03
9.213472e-04
9.898571e-04
9.564860e-04
1.016095e-03
1.152528e-03
1.272977e-03
1.339422e-03
1.343563e-03
1.286837e-03
1.186045e-03
1.075709e-03
1.021547e-03
6.519856e-04
6.624585e-04
8.296318e-04
1.040475e-03
1.199084e-03
1.283971e-03
1.299715e-03
1.259918e-03
1.188113e-03
1.119524e-03
1.092917e-03
3.403174e-04
4.371152e-04
7.209620e-04
9.775632e-04
1.156959e-03
1.252299e-03
1.275278e-03
1.246276e-03
1.192371e-03
1.147811e-03
1.136201e-03
1.481439e-04
3.537828e-04
6.875297e-04
9.548341e-04
1.141074e-03
1.240889e-03
1.267544e-03
1.243286e-03
1.195913e-03
1.158516e-03
1.150998e-03
</DataArray>
<DataArray Name="stress" type="Float64" NumberOfComponents="9" format="ascii">
-7.757258e+04 1.727514e+03 0.000000e+00 1.727514e+03 -1.122745e+05 0.000000e+00 0.000000e+00 0.000000e+00 0.000000e+00
-7.265064e+04 1.867265e+03 0.000000e+00 1.867265e+03 -1.129149e+05 0.000000e+00 0.000000e+00 0.000000e+00 0.000000e+00
-7.002068e+04 2.260665e+03 0.000000e+00 2.260665e+03 -1.175036e+05 0.000000e+00 0.000000e+00 0.000000e+00 0.000000e+00
-7.008927e+04 2.782062e+03 0.000000e+00 2.782062e+03 -1.226641e+05 0.000000e+00 0.000000e+00 0.000000e+00 0.000000e+00
-7.113993e+04 3.454050e+03 0.000000e+00 3.454050e+03 -1.285697e+05 0.000000e+00 0.000000e+00 0.000000e+00 0.000000e+00
-7.316431e+04 4.008462e+03 0.000000e+00 4.008462e+03 -1.354106e+05 0.000000e+00 0.000000e+00 0.000000e+00 0.000000e+00
-7.662725e+04 4.204872e+03 0.000000e+00 4.204872e+03 -1.424192e+05 0.000000e+00 0.000000e+00 0.000000e+00 0.000000e+00
-8.154459e+04 3.824862e+03 0.000000e+00 3.824862e+03 -1.487634e+05 0.000000e+00 0.000000e+00 0.000000e+00 0.000000e+00
-8.803085e+04 2.324958e+03 0.000000e+00 2.324958e+03 -1.528919e+05 0.000000e+00 0.000000e+00 0.000000e+00 0.000000e+00
-9.642709e+04 7.364612e+01 0.000000e+00 7.364612e+01 -1.554502e+05 0.000000e+00 0.000000e+00 0.000000e+00 0.000000e+00
-1.000818e+05 -6.096598e+02 0.000000e+00 -6.096598e+02 -1.546491e+05 0.000000e+00 0.000000e+00 0.000000e+00 0.000000e+00
-7.717587e+04 5.095081e+03 0.000000e+00 5.095081e+03 -1.098409e+05 0.000000e+00 0.000000e+00 0.000000e+00 0.000000e+00
-7.263428e+04 5.112647e+03 0.000000e+00 5.112647e+03 -1.103488e+05 0.000000e+00 0.000000e+00 0.000000e+00 0.000000e+00
-7.025877e+04 5.467632e+03 0.000000e+00 5.467632e+03 -1.146176e+05 0.000000e+00 0.000000e+00 0.000000e+00 0.000000e+00
-7.048304e+04 6.237085e+03 0.000000e+00 6.237085e+03 -1.193992e+05 0.000000e+00 0.000000e+00 0.000000e+00 0.000000e+00
-7.179419e+04 7.196429e+03 0.000000e+00 7.196429e+03 -1.249670e+05 0.000000e+00 0.000000e+00 0.000000e+00 0.000000e+00
-7.386436e+04 8.000880e+03 0.000000e+00 8.000880e+03 -1.314451e+05 0.000000e+00 0.000000e+00 0.000000e+00 0.000000e+00
-7.703746e+04 8.367715e+03 0.000000e+00 8.367715e+03 -1.386584e+05 0.000000e+00 0.000000e+00 0.000000e+00 0.000000e+00
-8.129244e+04 7.814872e+03 0.000000e+00 7.814872e+03 -1.463100e+05 0.000000e+00 0.000000e+00 0.000000e+00 0.000000e+00
-8.673492e+04 5.502721e+03 0.000000e+00 5.502721e+03 -1.541483e+05 0.000000e+00 0.000000e+00 0.000000e+00 0.000000e+00
-9.354988e+04 1.390394e+03 0.000000e+00 1.390394e+03 -1.591909e+05 0.000000e+00 0.000000e+00 0.000000e+00 0.000000e+00
-1.030972e+05 -2.304646e+03 0.000000e+00 -2.304646e+03 -1.660895e+05 0.000000e+00 0.000000e+00 0.000000e+00 0.000000e+00
-7.625964e+04 9.150929e+03 0.000000e+00 9.150929e+03 -1.044550e+05 0.000000e+00 0.000000e+00 0.000000e+00 0.000000e+00
-7.269266e+04 9.193296e+03 0.000000e+00 9.193296e+03 -1.045645e+05 0.000000e+00 0.000000e+00 0.000000e+00 0.000000e+00
-7.101988e+04 9.820259e+03 0.000000e+00 9.820259e+03 -1.075207e+05 0.000000e+00 0.000000e+00 0.000000e+00 0.000000e+00
-7.154939e+04 1.125331e+04 0.000000e+00 1.125331e+04 -1.107714e+05 0.000000e+00 0.000000e+00 0.000000e+00 0.000000e+00
-7.314629e+04 1.310540e+04 0.000000e+00 1.310540e+04 -1.144599e+05 0.000000e+00 0.000000e+00 0.000000e+00 0.000000e+00
-7.575739e+04 1.520342e+04 0.000000e+00 1.520342e+04 -1.191161e+05 0.000000e+00 0.000000e+00 0.000000e+00 0.000000e+00
-7.967992e+04 1.711993e+04 0.000000e+00 1.711993e+04 -1.253381e+05 0.000000e+00 0.000000e+00 0.000000e+00 0.000000e+00
-8.453016e+04 1.827831e+04 0.000000e+00 1.827831e+04 -1.331045e+05 0.000000e+00 0.000000e+00 0.000000e+00 0.000000e+00
-9.078851e+04 1.854549e+04 0.000000e+00 1.854549e+04 -1.437399e+05 0.000000e+00 0.000000e+00 0.000000e+00 0.000000e+00
-1.009377e+05 1.565494e+04 0.000000e+00 1.565494e+04 -1.567167e+05 0.000000e+00 0.000000e+00 0.000000e+00 0.000000e+00
-1.199446e+05 1.434659e+04 0.000000e+00 1.434659e+04 -1.748929e+05 0.000000e+00 0.000000e+00 0.000000e+00 0.000000e+00
-7.487262e+04 1.150051e+04 0.000000e+00 1.150051e+04 -9.777481e+04 0.000000e+00 0.000000e+00 0.000000e+00 0.000000e+00
-7.265481e+04 1.149200e+04 0.000000e+00 1.149200e+04 -9.759565e+04 0.000000e+00 0.000000e+00 0.000000e+00 0.000000e+00
-7.198826e+04 1.200402e+04 0.000000e+00 1.200402e+04 -9.871431e+04 0.000000e+00 0.000000e+00 0.000000e+00 0.000000e+00
-7.286950e+04 1.334867e+04 0.000000e+00 1.334867e+04 -9.946500e+04 0.000000e+00 0.000000e+00 0.000000e+00 0.000000e+00
-7.430991e+04 1.508007e+04 0.000000e+00 1.508007e+04 -9.952169e+04 0.000000e+00 0.000000e+00 0.000000e+00 0.000000e+00
-7.580778e+04 1.707429e+04 0.000000e+00 1.707429e+04 -9.850853e+04 0.000000e+00 0.000000e+00 0.000000e+00 0.000000e+00
-7.724571e+04 1.875167e+04 0.000000e+00 1.875167e+04 -9.609203e+04 0.000000e+00 0.000000e+00 0.000000e+00 0.000000e+00
-7.848284e+04 1.926977e+04 0.000000e+00 1.926977e+04 -9.245352e+04 0.000000e+00 0.000000e+00 0.000000e+00 0.000000e+00
-7.962566e+04 1.962595e+04 0.000000e+00 1.962595e+04 -8.714907e+04 0.000000e+00 0.000000e+00 0.000000e+00 0.000000e+00
-7.850419e+04 1.622472e+04 0.000000e+00 1.622472e+04 -7.753859e+04 0.000000e+00 0.000000e+00 0.000000e+00 0.000000e+00
-7.539759e+04 1.426654e+04 0.000000e+00 1.426654e+04 -7.261045e+04 0.000000e+00 0.000000e+00 0.000000e+00 0.000000e+00
-7.302484e+04 1.233130e+04 0.000000e+00 1.233130e+04 -9.055443e+04 0.000000e+00 0.000000e+00 0.000000e+00 0.000000e+00
-7.235606e+04 1.221907e+04 0.000000e+00 1.221907e+04 -9.029248e+04 0.000000e+00 0.000000e+00 0.000000e+00 0.000000e+00
-7.286418e+04 1.231979e+04 0.000000e+00 1.231979e+04 -9.023212e+04 0.000000e+00 0.000000e+00 0.000000e+00 0.000000e+00
-7.438667e+04 1.306384e+04 0.000000e+00 1.306384e+04 -8.960237e+04 0.000000e+00 0.000000e+00 0.000000e+00 0.000000e+00
-7.628766e+04 1.394235e+04 0.000000e+00 1.394235e+04 -8.821803e+04 0.000000e+00 0.000000e+00 0.000000e+00 0.000000e+00
-7.814660e+04 1.469125e+04 0.000000e+00 1.469125e+04 -8.594777e+04 0.000000e+00 0.000000e+00 0.000000e+00 0.000000e+00
-7.969528e+04 1.513277e+04 0.000000e+00 1.513277e+04 -8.260227e+04 0.000000e+00 0.000000e+00 0.000000e+00 0.000000e+00
-8.086687e+04 1.489862e+04 0.000000e+00 1.489862e+04 -7.803930e+04 0.000000e+00 0.000000e+00 0.000000e+00 0.000000e+00
-8.165480e+04 1.297771e+04 0.000000e+00 1.297771e+04 -7.189497e+04 0.000000e+00 0.000000e+00 0.000000e+00 0.000000e+00
-7.814187e+04 7.123698e+03 0.000000e+00 7.123698e+03 -6.608198e+04 0.000000e+00 0.000000e+00 0.000000e+00 0.000000e+00
-6.378259e+04 2.020122e+03 0.000000e+00 2.020122e+03 -5.930415e+04 0.000000e+00 0.000000e+00 0.000000e+00 0.000000e+00
-7.089384e+04 1.215497e+04 0.000000e+00 1.215497e+04 -8.352248e+04 0.000000e+00 0.000000e+00 0.000000e+00 0.000000e+00
-7.168488e+04 1.193889e+04 0.000000e+00 1.193889e+04 -8.329420e+04 0.000000e+00 0.000000e+00 0.000000e+00 0.000000e+00
-7.319330e+04 1.158073e+04 0.000000e+00 1.158073e+04 -8.252175e+04 0.000000e+00 0.000000e+00 0.000000e+00 0.000000e+00
-7.507129e+04 1.165012e+04 0.000000e+00 1.165012e+04 -8.126767e+04 0.000000e+00 0.000000e+00 0.000000e+00 0.000000e+00
-7.693362e+04 1.171939e+04 0.000000e+00 1.171939e+04 -7.941247e+04 0.000000e+00 0.000000e+00 0.000000e+00 0.000000e+00
-7.850549e+04 1.153232e+04 0.000000e+00 1.153232e+04 -7.688158e+04 0.000000e+00 0.000000e+00 0.000000e+00 0.000000e+00
-7.950897e+04 1.088808e+04 0.000000e+00 1.088808e+04 -7.360884e+04 0.000000e+00 0.000000e+00 0.000000e+00 0.000000e+00
-7.966830e+04 9.435098e+03 0.000000e+00 9.435098e+03 -6.959029e+04 0.000000e+00 0.000000e+00 0.000000e+00 0.000000e+00
-7.813389e+04 6.463075e+03 0.000000e+00 6.463075e+03 -6.536668e+04 0.000000e+00 0.000000e+00 0.000000e+00 0.000000e+00
-7.025753e+04 2.145568e+03 0.000000e+00 2.145568e+03 -6.207789e+04 0.000000e+00 0.000000e+00 0.000000e+00 0.000000e+00
-5.872679e+04 3.627084e+01 0.000000e+00 3.627084e+01 -5.915862e+04 0.000000e+00 0.000000e+00 0.000000e+00 0.000000e+00
-6.881105e+04 1.137139e+04 0.000000e+00 1.137139e+04 -7.755930e+04 0.000000e+00 0.000000e+00 0.000000e+00 0.000000e+00
-7.072148e+04 1.106645e+04 0.000000e+00 1.106645e+04 -7.739287e+04 0.000000e+00 0.000000e+00 0.000000e+00 0.000000e+00
-7.296641e+04 1.034795e+04 0.000000e+00 1.034795e+04 -7.628791e+04 0.000000e+00 0.000000e+00 0.000000e+00 0.000000e+00
-7.496473e+04 9.872026e+03 0.000000e+00 9.872026e+03 -7.484302e+04 0.000000e+00 0.000000e+00 0.000000e+00 0.000000e+00
-7.662325e+04 9.305175e+03 0.000000e+00 9.305175e+03 -7.296555e+04 0.000000e+00 0.000000e+00 0.000000e+00 0.000000e+00
-7.780247e+04 8.478004e+03 0.000000e+00 8.478004e+03 -7.064584e+04 0.000000e+00 0.000000e+00 0.000000e+00 0.000000e+00
-7.821062e+04 7.195915e+03 0.000000e+00 7.195915e+03 -6.795472e+04 0.000000e+00 0.000000e+00 0.000000e+00 0.000000e+00
-7.737028e+04 5.274097e+03 0.000000e+00 5.274097e+03 -6.505977e+04 0.000000e+00 0.000000e+00 0.000000e+00 0.000000e+00
-7.418685e+04 2.628630e+03 0.000000e+00 2.628630e+03 -6.241964e+04 0.000000e+00 0.000000e+00 0.000000e+00 0.000000e+00
-6.678525e+04 2.230117e+02 0.000000e+00 2.230117e+02 -6.069380e+04 0.000000e+00 0.000000e+00 0.000000e+00 0.000000e+00
-5.903777e+04 -6.590300e+02 0.000000e+00 -6.590300e+02 -5.919804e+04 0.000000e+00 0.000000e+00 0.000000e+00 0.000000e+00
-6.702778e+04 1.028806e+04 0.000000e+00 1.028806e+04 -7.285957e+04 0.000000e+00 0.000000e+00 0.000000e+00 0.000000e+00
-6.959648e+04 9.925606e+03 0.000000e+00 9.925606e+03 -7.273038e+04 0.000000e+00 0.000000e+00 0.000000e+00 0.000000e+00
-7.224027e+04 8.941267e+03 0.000000e+00 8.941267e+03 -7.148770e+04 0.000000e+00 0.000000e+00 0.000000e+00 0.000000e+00
-7.422537e+04 8.067595e+03 0.000000e+00 8.067595e+03 -7.006979e+04 0.000000e+00 0.000000e+00 0.000000e+00 0.000000e+00
-7.570823e+04 7.113910e+03 0.000000e+00 7.113910e+03 -6.840246e+04 0.000000e+00 0.000000e+00 0.000000e+00 0.000000e+00
-7.653004e+04 5.936759e+03 0.000000e+00 5.936759e+03 -6.653348e+04 0.000000e+00 0.000000e+00 0.000000e+00 0.000000e+00
-7.640938e+04 4.422999e+03 0.000000e+00 4.422999e+03 -6.452980e+04 0.000000e+00 0.000000e+00 0.000000e+00 0.000000e+00
-7.494749e+04 2.553963e+03 0.000000e+00 2.553963e+03 -6.259257e+04 0.000000e+00 0.000000e+00 0.000000e+00 0.000000e+00
-7.148906e+04 6.054036e+02 0.000000e+00 6.054036e+02 -6.106949e+04 0.000000e+00 0.000000e+00 0.000000e+00 0.000000e+00
-6.551994e+04 -5.646613e+02 0.000000e+00 -5.646613e+02 -6.024493e+04 0.000000e+00 0.000000e+00 0.000000e+00 0.000000e+00
-6.022684e+04 -7.308158e+02 0.000000e+00 -7.308158e+02 -5.945723e+04 0.000000e+00 0.000000e+00 0.000000e+00 0.000000e+00
-6.557284e+04 9.083710e+03 0.000000e+00 9.083710e+03 -6.933334e+04 0.000000e+00 0.000000e+00 0.000000e+00 0.000000e+00
-6.835420e+04 8.654638e+03 0.000000e+00 8.654638e+03 -6.917176e+04 0.000000e+00 0.000000e+00 0.000000e+00 0.000000e+00
-7.116536e+04 7.536424e+03 0.000000e+00 7.536424e+03 -6.793651e+04 0.000000e+00 0.000000e+00 0.000000e+00 0.000000e+00
-7.315611e+04 6.456581e+03 0.000000e+00 6.456581e+03 -6.666659e+04 0.000000e+00 0.000000e+00 0.000000e+00 0.000000e+00
-7.447166e+04 5.319970e+03 0.000000e+00 5.319970e+03 -6.529002e+04 0.000000e+00 0.000000e+00 0.000000e+00 0.000000e+00
-7.499834e+04 4.002008e+03 0.000000e+00 4.002008e+03 -6.385531e+04 0.000000e+00 0.000000e+00 0.000000e+00 0.000000e+00
-7.456986e+04 2.495852e+03 0.000000e+00 2.495852e+03 -6.244037e+04 0.000000e+00 0.000000e+00 0.000000e+00 0.000000e+00
-7.294605e+04 9.208826e+02 0.000000e+00 9.208826e+02 -6.122304e+04 0.000000e+00 0.000000e+00 0.000000e+00 0.000000e+00
-6.986801e+04 -3.884766e+02 0.000000e+00 -3.884766e+02 -6.041036e+04 0.000000e+00 0.000000e+00 0.000000e+00 0.000000e+00
-6.536056e+04 -8.426298e+02 0.000000e+00 -8.426298e+02 -6.005116e+04 0.000000e+00 0.000000e+00 0.000000e+00 0.000000e+00
-6.168633e+04 -7.274805e+02 0.000000e+00 -7.274805e+02 -5.960572e+04 0.000000e+00 0.000000e+00 0.000000e+00 0.000000e+00
-6.438066e+04 7.718546e+03 0.000000e+00 7.718546e+03 -6.674539e+04 0.000000e+00 0.000000e+00 0.000000e+00 0.000000e+00
-6.711517e+04 7.316624e+03 0.000000e+00 7.316624e+03 -6.655707e+04 0.000000e+00 0.000000e+00 0.000000e+00 0.000000e+00
-6.996995e+04 6.235254e+03 0.000000e+00 6.235254e+03 -6.539844e+04 0.000000e+00 0.000000e+00 0.000000e+00 0.000000e+00
-7.192224e+04 5.110800e+03 0.000000e+00 5.110800e+03 -6.428764e+04 0.000000e+00 0.000000e+00 0.000000e+00 0.000000e+00
-7.309110e+04 3.894031e+03 0.000000e+00 3.894031e+03 -6.318315e+04 0.000000e+00 0.000000e+00 0.000000e+00 0.000000e+00
-7.345480e+04 2.592219e+03 0.000000e+00 2.592219e+03 -6.210869e+04 0.000000e+00 0.000000e+00 0.000000e+00 0.000000e+00
-7.293316e+04 1.248091e+03 0.000000e+00 1.248091e+03 -6.116365e+04 0.000000e+00 0.000000e+00 0.000000e+00 0.000000e+00
-7.145001e+04 1.504909e+01 0.000000e+00 1.504909e+01 -6.046221e+04 0.000000e+00 0.000000e+00 0.000000e+00 0.000000e+00
-6.897464e+04 -8.214846e+02 0.000000e+00 -8.214846e+02 -6.007153e+04 0.000000e+00 0.000000e+00 0.000000e+00 0.000000e+00
-6.567552e+04 -8.979383e+02 0.000000e+00 -8.979383e+02 -5.995512e+04 0.000000e+00 0.000000e+00 0.000000e+00 0.000000e+00
-6.314585e+04 -6.620294e+02 0.000000e+00 -6.620294e+02 -5.970347e+04 0.000000e+00 0.000000e+00 0.000000e+00 0.000000e+00
-6.347686e+04 6.394135e+03 0.000000e+00 6.394135e+03 -6.491265e+04 0.000000e+00 0.000000e+00 0.000000e+00 0.000000e+00
-6.604076e+04 6.043441e+03 0.000000e+00 6.043441e+03 -6.470810e+04 0.000000e+00 0.000000e+00 0.000000e+00 0.000000e+00
-6.878234e+04 5.060563e+03 0.000000e+00 5.060563e+03 -6.362817e+04 0.000000e+00 0.000000e+00 0.000000e+00 0.000000e+00
-7.063745e+04 3.968283e+03 0.000000e+00 3.968283e+03 -6.264648e+04 0.000000e+00 0.000000e+00 0.000000e+00 0.000000e+00
-7.172206e+04 2.799619e+03 0.000000e+00 2.799619e+03 -6.176866e+04 0.000000e+00 0.000000e+00 0.000000e+00 0.000000e+00
-7.204291e+04 1.617231e+03 0.000000e+00 1.617231e+03 -6.100341e+04 0.000000e+00 0.000000e+00 0.000000e+00 0.000000e+00
-7.158881e+04 4.931922e+02 0.000000e+00 4.931922e+02 -6.040788e+04 0.000000e+00 0.000000e+00 0.000000e+00 0.000000e+00
-7.039123e+04 -4.303928e+02 0.000000e+00 -4.303928e+02 -6.003645e+04 0.000000e+00 0.000000e+00 0.000000e+00 0.000000e+00
-6.851840e+04 -9.553507e+02 0.000000e+00 -9.553507e+02 -5.989469e+04 0.000000e+00 0.000000e+00 0.000000e+00 0.000000e+00
-6.618151e+04 -8.426954e+02 0.000000e+00 -8.426954e+02 -5.990971e+04 0.000000e+00 0.000000e+00 0.000000e+00 0.000000e+00
-6.448375e+04 -5.721890e+02 0.000000e+00 -5.721890e+02 -5.977865e+04 0.000000e+00 0.000000e+00 0.000000e+00 0.000000e+00
-6.280736e+04 5.144269e+03 0.000000e+00 5.144269e+03 -6.363551e+04 0.000000e+00 0.000000e+00 0.000000e+00 0.000000e+00
-6.511641e+04 4.827127e+03 0.000000e+00 4.827127e+03 -6.341413e+04 0.000000e+00 0.000000e+00 0.000000e+00 0.000000e+00
-6.766611e+04 3.965422e+03 0.000000e+00 3.965422e+03 -6.241691e+04 0.000000e+00 0.000000e+00 0.000000e+00 0.000000e+00
-6.944198e+04 2.997078e+03 0.000000e+00 2.997078e+03 -6.156721e+04 0.000000e+00 0.000000e+00 0.000000e+00 0.000000e+00
-7.048651e+04 1.978170e+03 0.000000e+00 1.978170e+03 -6.085300e+04 0.000000e+00 0.000000e+00 0.000000e+00 0.000000e+00
-7.083709e+04 9.740399e+02 0.000000e+00 9.740399e+02 -6.031474e+04 0.000000e+00 0.000000e+00 0.000000e+00 0.000000e+00
-7.053574e+04 7.528105e+01 0.000000e+00 7.528105e+01 -5.996400e+04 0.000000e+00 0.000000e+00 0.000000e+00 0.000000e+00
-6.965667e+04 -6.028455e+02 0.000000e+00 -6.028455e+02 -5.979736e+04 0.000000e+00 0.000000e+00 0.000000e+00 0.000000e+00
-6.831549e+04 -9.238694e+02 0.000000e+00 -9.238694e+02 -5.980191e+04 0.000000e+00 0.000000e+00 0.000000e+00 0.000000e+00
-6.672843e+04 -7.327634e+02 0.000000e+00 -7.327634e+02 -5.988804e+04 0.000000e+00 0.000000e+00 0.000000e+00 0.000000e+00
-6.563682e+04 -4.723277e+02 0.000000e+00 -4.723277e+02 -5.983789e+04 0.000000e+00 0.000000e+00 0.000000e+00 0.000000e+00
-6.226853e+04 3.938558e+03 0.000000e+00 3.938558e+03 -6.276790e+04 0.000000e+00 0.000000e+00 0.000000e+00 0.000000e+00
-6.434688e+04 3.680233e+03 0.000000e+00 3.680233e+03 -6.252873e+04 0.000000e+00 0.000000e+00 0.000000e+00 0.000000e+00
-6.671576e+04 2.982466e+03 0.000000e+00 2.982466e+03 -6.160646e+04 0.000000e+00 0.000000e+00 0.000000e+00 0.000000e+00
-6.841506e+04 2.179017e+03 0.000000e+00 2.179017e+03 -6.085946e+04 0.000000e+00 0.000000e+00 0.000000e+00 0.000000e+00
-6.945025e+04 1.353772e+03 0.000000e+00 1.353772e+03 -6.027716e+04 0.000000e+00 0.000000e+00 0.000000e+00 0.000000e+00
-6.986952e+04 5.601929e+02 0.000000e+00 5.601929e+02 -5.989058e+04 0.000000e+00 0.000000e+00 0.000000e+00 0.000000e+00
-6.973692e+04 -1.233214e+02 0.000000e+00 -1.233214e+02 -5.969604e+04 0.000000e+00 0.000000e+00 0.000000e+00 0.000000e+00
-6.915327e+04 -6.101413e+02 0.000000e+00 -6.101413e+02 -5.966339e+04 0.000000e+00 0.000000e+00 0.000000e+00 0.000000e+00
-6.825155e+04 -8.001129e+02 0.000000e+00 -8.001129e+02 -5.975474e+04 0.000000e+00 0.000000e+00 0.000000e+00 0.000000e+00
-6.723402e+04 -5.977090e+02 0.000000e+00 -5.977090e+02 -5.987995e+04 0.000000e+00 0.000000e+00 0.000000e+00 0.000000e+00
-6.658298e+04 -3.704381e+02 0.000000e+00 -3.704381e+02 -5.988543e+04 0.000000e+00 0.000000e+00 0.000000e+00 0.000000e+00
-6.187848e+04 2.776448e+03 0.000000e+00 2.776448e+03 -6.214096e+04 0.000000e+00 0.000000e+00 0.000000e+00 0.000000e+00
-6.375227e+04 2.587704e+03 0.000000e+00 2.587704e+03 -6.189376e+04 0.000000e+00 0.000000e+00 0.000000e+00 0.000000e+00
-6.597263e+04 2.078725e+03 0.000000e+00 2.078725e+03 -6.105307e+04 0.000000e+00 0.000000e+00 0.000000e+00 0.000000e+00
-6.760703e+04 1.486024e+03 0.000000e+00 1.486024e+03 -6.039287e+04 0.000000e+00 0.000000e+00 0.000000e+00 0.000000e+00
-6.864645e+04 8.745441e+02 0.000000e+00 8.745441e+02 -5.992261e+04 0.000000e+00 0.000000e+00 0.000000e+00 0.000000e+00
-6.914238e+04 2.967404e+02 0.000000e+00 2.967404e+02 -5.964469e+04 0.000000e+00 0.000000e+00 0.000000e+00 0.000000e+00
-6.916042e+04 -1.870279e+02 0.000000e+00 -1.870279e+02 -5.954809e+04 0.000000e+00 0.000000e+00 0.000000e+00 0.000000e+00
-6.881905e+04 -5.167484e+02 0.000000e+00 -5.167484e+02 -5.959603e+04 0.000000e+00 0.000000e+00 0.000000e+00 0.000000e+00
-6.825544e+04 -6.252145e+02 0.000000e+00 -6.252145e+02 -5.973481e+04 0.000000e+00 0.000000e+00 0.000000e+00 0.000000e+00
-6.765411e+04 -4.518437e+02 0.000000e+00 -4.518437e+02 -5.987973e+04 0.000000e+00 0.000000e+00 0.000000e+00 0.000000e+00
-6.731566e+04 -2.731702e+02 0.000000e+00 -2.731702e+02 -5.992254e+04 0.000000e+00 0.000000e+00 0.000000e+00 0.000000e+00
-6.159581e+04 1.699929e+03 0.000000e+00 1.699929e+03 -6.164901e+04 0.000000e+00 0.000000e+00 0.000000e+00 0.000000e+00
-6.334496e+04 1.585401e+03 0.000000e+00 1.585401e+03 -6.141714e+04 0.000000e+00 0.000000e+00 0.000000e+00 0.000000e+00
-6.546821e+04 1.269303e+03 0.000000e+00 1.269303e+03 -6.065381e+04 0.000000e+00 0.000000e+00 0.000000e+00 0.000000e+00
-6.704523e+04 8.997069e+02 0.000000e+00 8.997069e+02 -6.007846e+04 0.000000e+00 0.000000e+00 0.000000e+00 0.000000e+00
-6.808420e+04 5.083491e+02 0.000000e+00 5.083491e+02 -5.969459e+04 0.000000e+00 0.000000e+00 0.000000e+00 0.000000e+00
-6.864368e+04 1.384987e+02 0.000000e+00 1.384987e+02 -5.949758e+04 0.000000e+00 0.000000e+00 0.000000e+00 0.000000e+00
-6.877757e+04 -1.662294e+02 0.000000e+00 -1.662294e+02 -5.947023e+04 0.000000e+00 0.000000e+00 0.000000e+00 0.000000e+00
-6.860950e+04 -3.673295e+02 0.000000e+00 -3.673295e+02 -5.956488e+04 0.000000e+00 0.000000e+00 0.000000e+00 0.000000e+00
-6.828130e+04 -4.254288e+02 0.000000e+00 -4.254288e+02 -5.972779e+04 0.000000e+00 0.000000e+00 0.000000e+00 0.000000e+00
-6.796291e+04 -3.022893e+02 0.000000e+00 -3.022893e+02 -5.988124e+04 0.000000e+00 0.000000e+00 0.000000e+00 0.000000e+00
-6.783456e+04 -1.815484e+02 0.000000e+00 -1.815484e+02 -5.994706e+04 0.000000e+00 0.000000e+00 0.000000e+00 0.000000e+00
-6.138665e+04 6.914202e+02 0.000000e+00 6.914202e+02 -6.116477e+04 0.000000e+00 0.000000e+00 0.000000e+00 0.000000e+00
-6.313626e+04 6.835380e+02 0.000000e+00 6.835380e+02 -6.098636e+04 0.000000e+00 0.000000e+00 0.000000e+00 0.000000e+00
-6.519391e+04 5.677307e+02 0.000000e+00 5.677307e+02 -6.033137e+04 0.000000e+00 0.000000e+00 0.000000e+00 0.000000e+00
-6.672336e+04 4.107935e+02 0.000000e+00 4.107935e+02 -5.986157e+04 0.000000e+00 0.000000e+00 0.000000e+00 0.000000e+00
-6.775871e+04 2.271210e+02 0.000000e+00 2.271210e+02 -5.955730e+04 0.000000e+00 0.000000e+00 0.000000e+00 0.000000e+00
-6.835613e+04 5.183011e+01 0.000000e+00 5.183011e+01 -5.941755e+04 0.000000e+00 0.000000e+00 0.000000e+00 0.000000e+00
-6.856069e+04 -9.428866e+01 0.000000e+00 -9.428866e+01 -5.942836e+04 0.000000e+00 0.000000e+00 0.000000e+00 0.000000e+00
-6.849526e+04 -1.886220e+02 0.000000e+00 -1.886220e+02 -5.954913e+04 0.000000e+00 0.000000e+00 0.000000e+00 0.000000e+00
-6.830430e+04 -2.143806e+02 0.000000e+00 -2.143806e+02 -5.972291e+04 0.000000e+00 0.000000e+00 0.000000e+00 0.000000e+00
-6.814994e+04 -1.518719e+02 0.000000e+00 -1.518719e+02 -5.988075e+04 0.000000e+00 0.000000e+00 0.000000e+00 0.000000e+00
-6.814188e+04 -9.157360e+01 0.000000e+00 -9.157360e+01 -5.996205e+04 0.000000e+00 0.000000e+00 0.000000e+00 0.000000e+00
-6.121490e+04 -2.976748e+00 0.000000e+00 -2.976748e+00 -6.066134e+04 0.000000e+00 0.000000e+00 0.000000e+00 0.000000e+00
-6.303601e+04 9.753801e+01 0.000000e+00 9.753801e+01 -6.063667e+04 0.000000e+00 0.000000e+00 0.000000e+00 0.000000e+00
-6.510887e+04 1.340637e+02 0.000000e+00 1.340637e+02 -6.017447e+04 0.000000e+00 0.000000e+00 0.000000e+00 0.000000e+00
-6.662148e+04 1.034644e+02 0.000000e+00 1.034644e+02 -5.977833e+04 0.000000e+00 0.000000e+00 0.000000e+00 0.000000e+00
-6.765402e+04 4.833515e+01 0.000000e+00 4.833515e+01 -5.951457e+04 0.000000e+00 0.000000e+00 0.000000e+00 0.000000e+00
-6.826343e+04 -3.832832e+00 0.000000e+00 -3.832832e+00 -5.939850e+04 0.000000e+00 0.000000e+00 0.000000e+00 0.000000e+00
-6.849116e+04 -5.245211e+01 0.000000e+00 -5.245211e+01 -5.941793e+04 0.000000e+00 0.000000e+00 0.000000e+00 0.000000e+00
-6.845923e+04 -8.418543e+01 0.000000e+00 -8.418543e+01 -5.954370e+04 0.000000e+00 0.000000e+00 0.000000e+00 0.000000e+00
-6.831185e+04 -9.534309e+01 0.000000e+00 -9.534309e+01 -5.971894e+04 0.000000e+00 0.000000e+00 0.000000e+00 0.000000e+00
-6.821141e+04 -7.391686e+01 0.000000e+00 -7.391686e+01 -5.987928e+04 0.000000e+00 0.000000e+00 0.000000e+00 0.000000e+00
-6.824203e+04 -5.150170e+01 0.000000e+00 -5.150170e+01 -5.996895e+04 0.000000e+00 0.000000e+00 0.000000e+00 0.000000e+00
</DataArray>
<DataArray Name="vol_eps" type="Float64" NumberOfComponents="1" format="ascii">
-4.509765e-03
-4.202318e-03
-4.199191e-03
-4.350241e-03
-4.628570e-03
-5.091800e-03
-5.774838e-03
-6.636546e-03
-7.590222e-03
-8.484272e-03
-8.684146e-03
-4.333688e-03
-4.045049e-03
-4.055140e-03
-4.214648e-03
-4.507792e-03
-4.932116e-03
-5.546726e-03
-6.368674e-03
-7.385060e-03
-8.343630e-03
-9.572913e-03
-3.935243e-03
-3.690267e-03
-3.706608e-03
-3.849225e-03
-4.077382e-03
-4.399292e-03
-4.859932e-03
-5.414271e-03
-6.103026e-03
-7.362681e-03
-9.691924e-03
-3.410613e-03
-3.242643e-03
-3.247551e-03
-3.315706e-03
-3.351286e-03
-3.271244e-03
-3.014041e-03
-2.555971e-03
-1.826142e-03
-6.365429e-04
2.792901e-04
-2.804650e-03
-2.742311e-03
-2.773170e-03
-2.829185e-03
-2.857142e-03
-2.817818e-03
-2.684903e-03
-2.449884e-03
-2.100734e-03
-1.529492e-03
-1.676237e-04
-2.195362e-03
-2.240545e-03
-2.299408e-03
-2.342737e-03
-2.343060e-03
-2.278713e-03
-2.130034e-03
-1.879133e-03
-1.503641e-03
-7.823139e-04
1.536391e-04
-1.664073e-03
-1.791775e-03
-1.876573e-03
-1.914858e-03
-1.901889e-03
-1.828423e-03
-1.680164e-03
-1.434342e-03
-1.055271e-03
-4.737473e-04
1.197222e-04
-1.239986e-03
-1.412916e-03
-1.515799e-03
-1.556885e-03
-1.546222e-03
-1.477518e-03
-1.337464e-03
-1.114910e-03
-7.953444e-04
-3.661315e-04
2.179909e-05
-9.180672e-04
-1.102979e-03
-1.217054e-03
-1.267002e-03
-1.261987e-03
-1.201007e-03
-1.080243e-03
-8.972656e-04
-6.499003e-04
-3.438049e-04
-8.289667e-05
-6.801701e-04
-8.572938e-04
-9.757710e-04
-1.031037e-03
-1.033951e-03
-9.872182e-04
-8.920487e-04
-7.528260e-04
-5.712408e-04
-3.572816e-04
-1.818615e-04
-5.118605e-04
-6.735259e-04
-7.863858e-04
-8.418708e-04
-8.539310e-04
-8.246451e-04
-7.571804e-04
-6.580561e-04
-5.307802e-04
-3.861043e-04
-2.709023e-04
-3.960531e-04
-5.365094e-04
-6.389198e-04
-6.965122e-04
-7.163757e-04
-7.032467e-04
-6.617839e-04
-5.959646e-04
-5.118205e-04
-4.186869e-04
-3.472533e-04
-3.145251e-04
-4.357130e-04
-5.284470e-04
-5.864854e-04
-6.134560e-04
-6.149422e-04
-5.941648e-04
-5.552454e-04
-5.044729e-04
-4.493748e-04
-4.093793e-04
-2.570194e-04
-3.627233e-04
-4.475465e-04
-5.056776e-04
-5.393761e-04
-5.527670e-04
-5.479566e-04
-5.295979e-04
-5.032105e-04
-4.753985e-04
-4.572602e-04
-2.103281e-04
-3.081999e-04
-3.917007e-04
-4.504698e-04
-4.892431e-04
-5.114193e-04
-5.181876e-04
-5.139501e-04
-5.041680e-04
-4.947657e-04
-4.912656e-04
-1.671081e-04
-2.681355e-04
-3.545702e-04
-4.164859e-04
-4.601872e-04
-4.880866e-04
-5.016436e-04
-5.054482e-04
-5.051935e-04
-5.063809e-04
-5.113207e-04
-1.243405e-04
-2.394224e-04
-3.388961e-04
-4.046837e-04
-4.510452e-04
-4.810713e-04
-4.967218e-04
-5.027350e-04
-5.053563e-04
-5.100997e-04
-5.178547e-04
</DataArray>
</PointData>
</Piece>
</UnstructuredGrid>
</VTKFile>
