<?xml version="1.0"?>
<VTKFile type="UnstructuredGrid" version="0.1">
<UnstructuredGrid>
<FieldData>
<DataArray Name="TIME" type="Float64" format="ascii" NumberOfTuples="1">
0.000000e+00
</DataArray>
</FieldData>
<FieldData>
<DataArray Name="CYCLE" type="Int32" format="ascii" NumberOfTuples="1">
0
</DataArray>
</FieldData>
<Piece NumberOfPoints="187" NumberOfCells="160">
<Points>
<DataArray NumberOfComponents="3" type="Float64" format="ascii">
0.000000e+00 0.000000e+00 0.000000e+00
0.000000e+00 1.970665e-01 0.000000e+00
0.000000e+00 3.928390e-01 0.000000e+00
0.000000e+00 5.866858e-01 0.000000e+00
0.000000e+00 7.789144e-01 0.000000e+00
0.000000e+00 9.704141e-01 0.000000e+00
0.000000e+00 1.161716e+00 0.000000e+00
0.000000e+00 1.353253e+00 0.000000e+00
0.000000e+00 1.546219e+00 0.000000e+00
0.000000e+00 1.741897e+00 0.000000e+00
0.000000e+00 1.938125e+00 0.000000e+00
2.250000e-01 0.000000e+00 0.000000e+00
2.265203e-01 1.970564e-01 0.000000e+00
2.287243e-01 3.928783e-01 0.000000e+00
2.311089e-01 5.874562e-01 0.000000e+00
2.325410e-01 7.807203e-01 0.000000e+00
2.330242e-01 9.730682e-01 0.000000e+00
2.328135e-01 1.164965e+00 0.000000e+00
2.316570e-01 1.356879e+00 0.000000e+00
2.288261e-01 1.548995e+00 0.000000e+00
2.255426e-01 1.742225e+00 0.000000e+00
2.250000e-01 1.938125e+00 0.000000e+00
4.500000e-01 0.000000e+00 0.000000e+00
4.532984e-01 1.974138e-01 0.000000e+00
4.568408e-01 3.939933e-01 0.000000e+00
4.599810e-01 5.901241e-01 0.000000e+00
4.624049e-01 7.858769e-01 0.000000e+00
4.639353e-01 9.808893e-01 0.000000e+00
4.644626e-01 1.174865e+00 0.000000e+00
4.638554e-01 1.367588e+00 0.000000e+00
4.615209e-01 1.558656e+00 0.000000e+00
4.572718e-01 1.748518e+00 0.000000e+00
4.500000e-01 1.938125e+00 0.000000e+00
6.750000e-01 0.000000e+00 0.000000e+00
6.796134e-01 1.984824e-01 0.000000e+00
6.836532e-01 3.967747e-01 0.000000e+00
6.868218e-01 5.951925e-01 0.000000e+00
6.893860e-01 7.938098e-01 0.000000e+00
6.913348e-01 9.926805e-01 0.000000e+00
6.925128e-01 1.191866e+00 0.000000e+00
6.926785e-01 1.391427e+00 0.000000e+00
6.913404e-01 1.591505e+00 0.000000e+00
6.879742e-01 1.791902e+00 0.000000e+00
6.819505e-01 1.992119e+00 0.000000e+00
9.000000e-01 0.000000e+00 0.000000e+00
9.050553e-01 1.989034e-01 0.000000e+00
9.087936e-01 3.978804e-01 0.000000e+00
9.115439e-01 5.970945e-01 0.000000e+00
9.137696e-01 7.965644e-01 0.000000e+00
9.153709e-01 9.963160e-01 0.000000e+00
9.162012e-01 1.196394e+00 0.000000e+00
9.159929e-01 1.396808e+00 0.000000e+00
9.144720e-01 1.597454e+00 0.000000e+00
9.114661e-01 1.798038e+00 0.000000e+00
9.073779e-01 1.998065e+00 0.000000e+00
1.125000e+00 0.000000e+00 0.000000e+00
1.130123e+00 1.993363e-01 0.000000e+00
1.133319e+00 3.988343e-01 0.000000e+00
1.135733e+00 5.985748e-01 0.000000e+00
1.137630e+00 7.985532e-01 0.000000e+00
1.138907e+00 9.987972e-01 0.000000e+00
1.139443e+00 1.199310e+00 0.000000e+00
1.139075e+00 1.400049e+00 0.000000e+00
1.137689e+00 1.600856e+00 0.000000e+00
1.135433e+00 1.801412e+00 0.000000e+00
1.132920e+00 2.001490e+00 0.000000e+00
1.350000e+00 0.000000e+00 0.000000e+00
1.354789e+00 1.996881e-01 0.000000e+00
1.357541e+00 3.995295e-01 0.000000e+00
1.359640e+00 5.995749e-01 0.000000e+00
1.361227e+00 7.998537e-01 0.000000e+00
1.362249e+00 1.000371e+00 0.000000e+00
1.362606e+00 1.201109e+00 0.000000e+00
1.362217e+00 1.401982e+00 0.000000e+00
1.361141e+00 1.602791e+00 0.000000e+00
1.359627e+00 1.803303e+00 0.000000e+00
1.358153e+00 2.003425e+00 0.000000e+00
1.575000e+00 0.000000e+00 0.000000e+00
1.579220e+00 1.999044e-01 0.000000e+00
1.581607e+00 3.999532e-01 0.000000e+00
1.583405e+00 6.002033e-01 0.000000e+00
1.584742e+00 8.006647e-01 0.000000e+00
1.585562e+00 1.001333e+00 0.000000e+00
1.585814e+00 1.202166e+00 0.000000e+00
1.585518e+00 1.403034e+00 0.000000e+00
1.584801e+00 1.603776e+00 0.000000e+00
1.583887e+00 1.804257e+00 0.000000e+00
1.583110e+00 2.004438e+00 0.000000e+00
1.800000e+00 0.000000e+00 0.000000e+00
1.803541e+00 2.000093e-01 0.000000e+00
1.805598e+00 4.001988e-01 0.000000e+00
1.807145e+00 6.005682e-01 0.000000e+00
1.808261e+00 8.011243e-01 0.000000e+00
1.808925e+00 1.001848e+00 0.000000e+00
1.809148e+00 1.202664e+00 0.000000e+00
1.809001e+00 1.403466e+00 0.000000e+00
1.808604e+00 1.604141e+00 0.000000e+00
1.808132e+00 1.804609e+00 0.000000e+00
1.807819e+00 2.004854e+00 0.000000e+00
2.025000e+00 0.000000e+00 0.000000e+00
2.027840e+00 2.000466e-01 0.000000e+00
2.029594e+00 4.003042e-01 0.000000e+00
2.030913e+00 6.007313e-01 0.000000e+00
2.031845e+00 8.013139e-01 0.000000e+00
2.032406e+00 1.002015e+00 0.000000e+00
2.032646e+00 1.202765e+00 0.000000e+00
2.032642e+00 1.403490e+00 0.000000e+00
2.032487e+00 1.604113e+00 0.000000e+00
2.032322e+00 1.804585e+00 0.000000e+00
2.032301e+00 2.004899e+00 0.000000e+00
2.250000e+00 0.000000e+00 0.000000e+00
2.252188e+00 2.000528e-01 0.000000e+00
2.253649e+00 4.003197e-01 0.000000e+00
2.254755e+00 6.007456e-01 0.000000e+00
2.255538e+00 8.013016e-01 0.000000e+00
2.256033e+00 1.001942e+00 0.000000e+00
2.256299e+00 1.202618e+00 0.000000e+00
2.256398e+00 1.403275e+00 0.000000e+00
2.256409e+00 1.603860e+00 0.000000e+00
2.256441e+00 1.804343e+00 0.000000e+00
2.256589e+00 2.004727e+00 0.000000e+00
2.475000e+00 0.000000e+00 0.000000e+00
2.476615e+00 2.000361e-01 0.000000e+00
2.477796e+00 4.002743e-01 0.000000e+00
2.478703e+00 6.006582e-01 0.000000e+00
2.479359e+00 8.011585e-01 0.000000e+00
2.479802e+00 1.001732e+00 0.000000e+00
2.480077e+00 1.202340e+00 0.000000e+00
2.480237e+00 1.402942e+00 0.000000e+00
2.480347e+00 1.603500e+00 0.000000e+00
2.480485e+00 1.803998e+00 0.000000e+00
2.480711e+00 2.004447e+00 0.000000e+00
2.700000e+00 0.000000e+00 0.000000e+00
2.701139e+00 2.000114e-01 0.000000e+00
2.702051e+00 4.001964e-01 0.000000e+00
2.702771e+00 6.005210e-01 0.000000e+00
2.703310e+00 8.009574e-01 0.000000e+00
2.703692e+00 1.001468e+00 0.000000e+00
2.703951e+00 1.202019e+00 0.000000e+00
2.704133e+00 1.402577e+00 0.000000e+00
2.704287e+00 1.603116e+00 0.000000e+00
2.704465e+00 1.803631e+00 0.000000e+00
2.704706e+00 2.004134e+00 0.000000e+00
2.925000e+00 0.000000e+00 0.000000e+00
2.925766e+00 1.999802e-01 0.000000e+00
2.926422e+00 4.001113e-01 0.000000e+00
2.926957e+00 6.003761e-01 0.000000e+00
2.927372e+00 8.007528e-01 0.000000e+00
2.927680e+00 1.001211e+00 0.000000e+00
2.927901e+00 1.201716e+00 0.000000e+00
2.928069e+00 1.402242e+00 0.000000e+00
2.928222e+00 1.602770e+00 0.000000e+00
2.928393e+00 1.803300e+00 0.000000e+00
2.928606e+00 2.003842e+00 0.000000e+00
3.150000e+00 0.000000e+00 0.000000e+00
3.150471e+00 1.999535e-01 0.000000e+00
3.150890e+00 4.000412e-01 0.000000e+00
3.151246e+00 6.002604e-01 0.000000e+00
3.151526e+00 8.005886e-01 0.000000e+00
3.151742e+00 1.001004e+00 0.000000e+00
3.151903e+00 1.201475e+00 0.000000e+00
3.152032e+00 1.401978e+00 0.000000e+00
3.152151e+00 1.602499e+00 0.000000e+00
3.152282e+00 1.803039e+00 0.000000e+00
3.152438e+00 2.003609e+00 0.000000e+00
3.375000e+00 0.000000e+00 0.000000e+00
3.375226e+00 1.999370e-01 0.000000e+00
3.375427e+00 4.000014e-01 0.000000e+00
3.375605e+00 6.001918e-01 0.000000e+00
3.375747e+00 8.004913e-01 0.000000e+00
3.375856e+00 1.000876e+00 0.000000e+00
3.375942e+00 1.201324e+00 0.000000e+00
3.376011e+00 1.401812e+00 0.000000e+00
3.376076e+00 1.602327e+00 0.000000e+00
3.376147e+00 1.802872e+00 0.000000e+00
3.376229e+00 2.003459e+00 0.000000e+00
3.600000e+00 0.000000e+00 0.000000e+00
3.600000e+00 1.999437e-01 0.000000e+00
3.600000e+00 4.000028e-01 0.000000e+00
3.600000e+00 6.001832e-01 0.000000e+00
3.600000e+00 8.004713e-01 0.000000e+00
3.600000e+00 1.000844e+00 0.000000e+00
3.600000e+00 1.201280e+00 0.000000e+00
3.600000e+00 1.401759e+00 0.000000e+00
3.600000e+00 1.602270e+00 0.000000e+00
3.600000e+00 1.802813e+00 0.000000e+00
3.600000e+00 2.003403e+00 0.000000e+00
</DataArray>
</Points>
<Cells>
<DataArray Name="connectivity" type="Int32" format="ascii">
0 11 12 1
1 12 13 2
2 13 14 3
3 14 15 4
4 15 16 5
5 16 17 6
6 17 18 7
7 18 19 8
8 19 20 9
9 20 21 10
11 22 23 12
12 23 24 13
13 24 25 14
14 25 26 15
15 26 27 16
16 27 28 17
17 28 29 18
18 29 30 19
19 30 31 20
20 31 32 21
22 33 34 23
23 34 35 24
24 35 36 25
25 36 37 26
26 37 38 27
27 38 39 28
28 39 40 29
29 40 41 30
30 41 42 31
31 42 43 32
33 44 45 34
34 45 46 35
35 46 47 36
36 47 48 37
37 48 49 38
38 49 50 39
39 50 51 40
40 51 52 41
41 52 53 42
42 53 54 43
44 55 56 45
45 56 57 46
46 57 58 47
47 58 59 48
48 59 60 49
49 60 61 50
50 61 62 51
51 62 63 52
52 63 64 53
53 64 65 54
55 66 67 56
56 67 68 57
57 68 69 58
58 69 70 59
59 70 71 60
60 71 72 61
61 72 73 62
62 73 74 63
63 74 75 64
64 75 76 65
66 77 78 67
67 78 79 68
68 79 80 69
69 80 81 70
70 81 82 71
71 82 83 72
72 83 84 73
73 84 85 74
74 85 86 75
75 86 87 76
77 88 89 78
78 89 90 79
79 90 91 80
80 91 92 81
81 92 93 82
82 93 94 83
83 94 95 84
84 95 96 85
85 96 97 86
86 97 98 87
88 99 100 89
89 100 101 90
90 101 102 91
91 102 103 92
92 103 104 93
93 104 105 94
94 105 106 95
95 106 107 96
96 107 108 97
97 108 109 98
99 110 111 100
100 111 112 101
101 112 113 102
102 113 114 103
103 114 115 104
104 115 116 105
105 116 117 106
106 117 118 107
107 118 119 108
108 119 120 109
110 121 122 111
111 122 123 112
112 123 124 113
113 124 125 114
114 125 126 115
115 126 127 116
116 127 128 117
117 128 129 118
118 129 130 119
119 130 131 120
121 132 133 122
122 133 134 123
123 134 135 124
124 135 136 125
125 136 137 126
126 137 138 127
127 138 139 128
128 139 140 129
129 140 141 130
130 141 142 131
132 143 144 133
133 144 145 134
134 145 146 135
135 146 147 136
136 147 148 137
137 148 149 138
138 149 150 139
139 150 151 140
140 151 152 141
141 152 153 142
143 154 155 144
144 155 156 145
145 156 157 146
146 157 158 147
147 158 159 148
148 159 160 149
149 160 161 150
150 161 162 151
151 162 163 152
152 163 164 153
154 165 166 155
155 166 167 156
156 167 168 157
157 168 169 158
158 169 170 159
159 170 171 160
160 171 172 161
161 172 173 162
162 173 174 163
163 174 175 164
165 176 177 166
166 177 178 167
167 178 179 168
168 179 180 169
169 180 181 170
170 181 182 171
171 182 183 172
172 183 184 173
173 184 185 174
174 185 186 175
</DataArray>
<DataArray Name="offsets" type="Int32" format="ascii">
4
8
12
16
20
24
28
32
36
40
44
48
52
56
60
64
68
72
76
80
84
88
92
96
100
104
108
112
116
120
124
128
132
136
140
144
148
152
156
160
164
168
172
176
180
184
188
192
196
200
204
208
212
216
220
224
228
232
236
240
244
248
252
256
260
264
268
272
276
280
284
288
292
296
300
304
308
312
316
320
324
328
332
336
340
344
348
352
356
360
364
368
372
376
380
384
388
392
396
400
404
408
412
416
420
424
428
432
436
440
444
448
452
456
460
464
468
472
476
480
484
488
492
496
500
504
508
512
516
520
524
528
532
536
540
544
548
552
556
560
564
568
572
576
580
584
588
592
596
600
604
608
612
616
620
624
628
632
636
640
</DataArray>
<DataArray Name="types" type="UInt8" format="ascii">
9
9
9
9
9
9
9
9
9
9
9
9
9
9
9
9
9
9
9
9
9
9
9
9
9
9
9
9
9
9
9
9
9
9
9
9
9
9
9
9
9
9
9
9
9
9
9
9
9
9
9
9
9
9
9
9
9
9
9
9
9
9
9
9
9
9
9
9
9
9
9
9
9
9
9
9
9
9
9
9
9
9
9
9
9
9
9
9
9
9
9
9
9
9
9
9
9
9
9
9
9
9
9
9
9
9
9
9
9
9
9
9
9
9
9
9
9
9
9
9
9
9
9
9
9
9
9
9
9
9
9
9
9
9
9
9
9
9
9
9
9
9
9
9
9
9
9
9
9
9
9
9
9
9
9
9
9
9
9
9
</DataArray>
</Cells>
<PointData>
<DataArray Name="disp" type="Float64" NumberOfComponents="3" format="ascii">
0.000000e+00 0.000000e+00 0.000000e+00
0.000000e+00 -2.933485e-03 0.000000e+00
0.000000e+00 -7.161022e-03 0.000000e+00
0.000000e+00 -1.331413e-02 0.000000e+00
0.000000e+00 -2.108558e-02 0.000000e+00
0.000000e+00 -2.958592e-02 0.000000e+00
0.000000e+00 -3.828395e-02 0.000000e+00
0.000000e+00 -4.674706e-02 0.000000e+00
0.000000e+00 -5.378051e-02 0.000000e+00
0.000000e+00 -5.810314e-02 0.000000e+00
0.000000e+00 -6.187500e-02 0.000000e+00
0.000000e+00 0.000000e+00 0.000000e+00
1.520285e-03 -2.943567e-03 0.000000e+00
3.724332e-03 -7.121728e-03 0.000000e+00
6.108867e-03 -1.254378e-02 0.000000e+00
7.540977e-03 -1.927974e-02 0.000000e+00
8.024155e-03 -2.693184e-02 0.000000e+00
7.813528e-03 -3.503509e-02 0.000000e+00
6.656974e-03 -4.312142e-02 0.000000e+00
3.826124e-03 -5.100467e-02 0.000000e+00
5.425651e-04 -5.777490e-02 0.000000e+00
0.000000e+00 -6.187500e-02 0.000000e+00
0.000000e+00 0.000000e+00 0.000000e+00
3.298447e-03 -2.586230e-03 0.000000e+00
6.840857e-03 -6.006656e-03 0.000000e+00
9.981029e-03 -9.875848e-03 0.000000e+00
1.240490e-02 -1.412315e-02 0.000000e+00
1.393531e-02 -1.911067e-02 0.000000e+00
1.446264e-02 -2.513549e-02 0.000000e+00
1.385545e-02 -3.241168e-02 0.000000e+00
1.152087e-02 -4.134414e-02 0.000000e+00
7.271754e-03 -5.148184e-02 0.000000e+00
0.000000e+00 -6.187500e-02 0.000000e+00
0.000000e+00 0.000000e+00 0.000000e+00
4.613336e-03 -1.517564e-03 0.000000e+00
8.653204e-03 -3.225265e-03 0.000000e+00
1.182175e-02 -4.807535e-03 0.000000e+00
1.438601e-02 -6.190258e-03 0.000000e+00
1.633482e-02 -7.319486e-03 0.000000e+00
1.751280e-02 -8.134063e-03 0.000000e+00
1.767842e-02 -8.572982e-03 0.000000e+00
1.634039e-02 -8.494880e-03 0.000000e+00
1.297424e-02 -8.098461e-03 0.000000e+00
6.950500e-03 -7.880820e-03 0.000000e+00
0.000000e+00 0.000000e+00 0.000000e+00
5.055320e-03 -1.096552e-03 0.000000e+00
8.793565e-03 -2.119631e-03 0.000000e+00
1.154393e-02 -2.905520e-03 0.000000e+00
1.376959e-02 -3.435628e-03 0.000000e+00
1.537091e-02 -3.684030e-03 0.000000e+00
1.620119e-02 -3.606359e-03 0.000000e+00
1.599284e-02 -3.191617e-03 0.000000e+00
1.447196e-02 -2.546320e-03 0.000000e+00
1.146612e-02 -1.962405e-03 0.000000e+00
7.377917e-03 -1.935239e-03 0.000000e+00
0.000000e+00 0.000000e+00 0.000000e+00
5.122613e-03 -6.637132e-04 0.000000e+00
8.318646e-03 -1.165675e-03 0.000000e+00
1.073285e-02 -1.425179e-03 0.000000e+00
1.263017e-02 -1.446834e-03 0.000000e+00
1.390707e-02 -1.202845e-03 0.000000e+00
1.444337e-02 -6.904126e-04 0.000000e+00
1.407503e-02 4.878890e-05 0.000000e+00
1.268880e-02 8.555301e-04 0.000000e+00
1.043278e-02 1.411870e-03 0.000000e+00
7.919854e-03 1.490074e-03 0.000000e+00
0.000000e+00 0.000000e+00 0.000000e+00
4.788969e-03 -3.119175e-04 0.000000e+00
7.540944e-03 -4.704458e-04 0.000000e+00
9.640064e-03 -4.250806e-04 0.000000e+00
1.122743e-02 -1.462874e-04 0.000000e+00
1.224923e-02 3.712041e-04 0.000000e+00
1.260641e-02 1.109406e-03 0.000000e+00
1.221705e-02 1.981586e-03 0.000000e+00
1.114073e-02 2.791052e-03 0.000000e+00
9.626782e-03 3.302958e-03 0.000000e+00
8.153058e-03 3.424961e-03 0.000000e+00
0.000000e+00 0.000000e+00 0.000000e+00
4.219702e-03 -9.557632e-05 0.000000e+00
6.607332e-03 -4.679379e-05 0.000000e+00
8.405541e-03 2.033313e-04 0.000000e+00
9.741763e-03 6.647219e-04 0.000000e+00
1.056192e-02 1.333000e-03 0.000000e+00
1.081419e-02 2.166067e-03 0.000000e+00
1.051794e-02 3.034365e-03 0.000000e+00
9.801122e-03 3.775493e-03 0.000000e+00
8.886522e-03 4.257327e-03 0.000000e+00
8.110397e-03 4.437720e-03 0.000000e+00
0.000000e+00 0.000000e+00 0.000000e+00
3.541061e-03 9.307003e-06 0.000000e+00
5.597932e-03 1.988471e-04 0.000000e+00
7.144638e-03 5.682520e-04 0.000000e+00
8.261101e-03 1.124362e-03 0.000000e+00
8.924766e-03 1.848270e-03 0.000000e+00
9.147990e-03 2.664128e-03 0.000000e+00
9.001031e-03 3.466384e-03 0.000000e+00
8.604448e-03 4.141357e-03 0.000000e+00
8.131884e-03 4.609122e-03 0.000000e+00
7.818537e-03 4.853655e-03 0.000000e+00
0.000000e+00 0.000000e+00 0.000000e+00
2.840078e-03 4.662900e-05 0.000000e+00
4.593727e-03 3.041582e-04 0.000000e+00
5.913016e-03 7.313419e-04 0.000000e+00
6.845152e-03 1.313927e-03 0.000000e+00
7.406127e-03 2.015332e-03 0.000000e+00
7.645881e-03 2.764545e-03 0.000000e+00
7.641587e-03 3.489689e-03 0.000000e+00
7.487030e-03 4.113311e-03 0.000000e+00
7.322513e-03 4.584752e-03 0.000000e+00
7.300874e-03 4.898688e-03 0.000000e+00
0.000000e+00 0.000000e+00 0.000000e+00
2.187919e-03 5.276737e-05 0.000000e+00
3.649278e-03 3.196910e-04 0.000000e+00
4.754860e-03 7.455445e-04 0.000000e+00
5.538516e-03 1.301580e-03 0.000000e+00
6.032682e-03 1.942066e-03 0.000000e+00
6.299410e-03 2.617494e-03 0.000000e+00
6.397828e-03 3.274516e-03 0.000000e+00
6.408923e-03 3.859902e-03 0.000000e+00
6.440537e-03 4.343363e-03 0.000000e+00
6.589219e-03 4.727023e-03 0.000000e+00
0.000000e+00 0.000000e+00 0.000000e+00
1.615313e-03 3.614554e-05 0.000000e+00
2.795501e-03 2.743165e-04 0.000000e+00
3.703340e-03 6.582384e-04 0.000000e+00
4.358978e-03 1.158534e-03 0.000000e+00
4.801709e-03 1.731640e-03 0.000000e+00
5.076716e-03 2.340379e-03 0.000000e+00
5.236510e-03 2.941788e-03 0.000000e+00
5.346818e-03 3.499642e-03 0.000000e+00
5.484907e-03 3.997595e-03 0.000000e+00
5.711410e-03 4.447186e-03 0.000000e+00
0.000000e+00 0.000000e+00 0.000000e+00
1.139110e-03 1.137706e-05 0.000000e+00
2.051027e-03 1.964223e-04 0.000000e+00
2.771308e-03 5.210181e-04 0.000000e+00
3.309428e-03 9.573869e-04 0.000000e+00
3.691983e-03 1.468194e-03 0.000000e+00
3.951425e-03 2.018789e-03 0.000000e+00
4.133074e-03 2.576692e-03 0.000000e+00
4.286879e-03 3.116322e-03 0.000000e+00
4.464693e-03 3.631198e-03 0.000000e+00
4.706041e-03 4.133763e-03 0.000000e+00
0.000000e+00 0.000000e+00 0.000000e+00
7.657772e-04 -1.981524e-05 0.000000e+00
1.421884e-03 1.113543e-04 0.000000e+00
1.957054e-03 3.761501e-04 0.000000e+00
2.371925e-03 7.528342e-04 0.000000e+00
2.680024e-03 1.211025e-03 0.000000e+00
2.900748e-03 1.716315e-03 0.000000e+00
3.069246e-03 2.241542e-03 0.000000e+00
3.221981e-03 2.770288e-03 0.000000e+00
3.392610e-03 3.299785e-03 0.000000e+00
3.605565e-03 3.842005e-03 0.000000e+00
0.000000e+00 0.000000e+00 0.000000e+00
4.711239e-04 -4.654631e-05 0.000000e+00
8.902487e-04 4.121692e-05 0.000000e+00
1.245802e-03 2.603976e-04 0.000000e+00
1.526385e-03 5.886049e-04 0.000000e+00
1.741671e-03 1.004033e-03 0.000000e+00
1.903508e-03 1.475165e-03 0.000000e+00
2.031601e-03 1.977743e-03 0.000000e+00
2.150951e-03 2.499333e-03 0.000000e+00
2.282435e-03 3.038886e-03 0.000000e+00
2.438456e-03 3.608740e-03 0.000000e+00
0.000000e+00 0.000000e+00 0.000000e+00
2.255716e-04 -6.294732e-05 0.000000e+00
4.274521e-04 1.411751e-06 0.000000e+00
6.045908e-04 1.917974e-04 0.000000e+00
7.467575e-04 4.913537e-04 0.000000e+00
8.559597e-04 8.760523e-04 0.000000e+00
9.418666e-04 1.324192e-03 0.000000e+00
1.010659e-03 1.811548e-03 0.000000e+00
1.075760e-03 2.327392e-03 0.000000e+00
1.147043e-03 2.872354e-03 0.000000e+00
1.228865e-03 3.458842e-03 0.000000e+00
0.000000e+00 0.000000e+00 0.000000e+00
0.000000e+00 -5.626531e-05 0.000000e+00
0.000000e+00 2.816356e-06 0.000000e+00
0.000000e+00 1.832723e-04 0.000000e+00
0.000000e+00 4.713106e-04 0.000000e+00
0.000000e+00 8.435277e-04 0.000000e+00
0.000000e+00 1.280274e-03 0.000000e+00
0.000000e+00 1.759311e-03 0.000000e+00
0.000000e+00 2.269861e-03 0.000000e+00
0.000000e+00 2.813461e-03 0.000000e+00
0.000000e+00 3.403416e-03 0.000000e+00
</DataArray>
<DataArray Name="shear" type="Float64" NumberOfComponents="1" format="ascii">
1.722920e-02
2.545781e-02
4.241213e-02
6.039329e-02
7.280158e-02
7.814321e-02
7.759033e-02
6.890804e-02
4.853556e-02
2.723552e-02
2.040064e-02
1.880266e-02
2.685407e-02
4.090824e-02
5.424467e-02
6.534921e-02
7.306655e-02
7.641052e-02
7.397871e-02
6.384335e-02
4.559933e-02
3.130127e-02
2.267612e-02
2.901173e-02
3.789007e-02
4.518369e-02
5.429791e-02
6.592921e-02
7.876453e-02
9.133785e-02
1.024758e-01
1.069866e-01
1.060538e-01
2.537742e-02
2.748663e-02
2.968830e-02
3.225010e-02
3.681436e-02
4.340129e-02
5.219506e-02
6.288868e-02
7.540710e-02
8.845795e-02
9.881563e-02
2.634899e-02
2.457580e-02
2.122517e-02
2.010761e-02
2.025359e-02
2.026550e-02
1.970803e-02
1.798467e-02
1.415709e-02
7.074574e-03
7.920508e-04
2.612444e-02
2.260688e-02
1.778924e-02
1.668632e-02
1.644766e-02
1.611688e-02
1.541879e-02
1.386240e-02
1.070018e-02
5.251987e-03
1.310757e-03
2.423658e-02
2.010145e-02
1.505517e-02
1.416885e-02
1.398792e-02
1.384764e-02
1.342704e-02
1.218056e-02
9.452993e-03
5.051343e-03
1.895257e-03
2.127806e-02
1.740917e-02
1.298920e-02
1.241123e-02
1.243620e-02
1.251128e-02
1.221284e-02
1.102206e-02
8.648694e-03
5.146874e-03
2.699171e-03
1.783957e-02
1.472226e-02
1.138815e-02
1.105678e-02
1.122071e-02
1.136698e-02
1.106783e-02
1.000547e-02
8.086554e-03
5.429323e-03
3.671413e-03
1.433611e-02
1.213743e-02
9.941338e-03
9.829849e-03
1.006342e-02
1.021224e-02
9.966210e-03
9.156358e-03
7.737577e-03
5.852321e-03
4.685187e-03
1.106558e-02
9.708794e-03
8.504988e-03
8.608671e-03
8.922242e-03
9.121090e-03
9.011865e-03
8.487904e-03
7.538526e-03
6.339908e-03
5.653013e-03
8.186254e-03
7.486398e-03
7.064162e-03
7.399998e-03
7.849523e-03
8.165563e-03
8.231603e-03
7.976966e-03
7.441672e-03
6.817344e-03
6.505301e-03
5.782872e-03
5.519464e-03
5.669246e-03
6.270330e-03
6.900349e-03
7.368895e-03
7.607174e-03
7.598538e-03
7.415811e-03
7.229955e-03
7.183179e-03
3.873874e-03
3.852516e-03
4.413981e-03
5.283373e-03
6.110082e-03
6.738186e-03
7.131123e-03
7.330902e-03
7.426201e-03
7.553444e-03
7.687664e-03
2.372053e-03
2.505603e-03
3.412475e-03
4.517912e-03
5.500277e-03
6.264521e-03
6.790366e-03
7.149766e-03
7.442018e-03
7.781162e-03
8.034764e-03
1.138959e-03
1.487897e-03
2.748763e-03
4.032404e-03
5.110349e-03
5.951736e-03
6.570284e-03
7.031180e-03
7.443646e-03
7.911256e-03
8.234686e-03
3.882138e-04
1.060670e-03
2.514835e-03
3.859770e-03
4.970575e-03
5.834377e-03
6.485586e-03
6.982315e-03
7.435838e-03
7.947912e-03
8.295016e-03
</DataArray>
<DataArray Name="stress" type="Float64" NumberOfComponents="9" format="ascii">
-1.173952e+05 5.509707e+03 0.000000e+00 5.509707e+03 -2.007230e+05 0.000000e+00 0.000000e+00 0.000000e+00 0.000000e+00
-1.034444e+05 4.225181e+03 0.000000e+00 4.225181e+03 -2.005711e+05 0.000000e+00 0.000000e+00 0.000000e+00 0.000000e+00
-1.011588e+05 2.952748e+03 0.000000e+00 2.952748e+03 -2.104423e+05 0.000000e+00 0.000000e+00 0.000000e+00 0.000000e+00
-1.099101e+05 3.065760e+03 0.000000e+00 3.065760e+03 -2.112509e+05 0.000000e+00 0.000000e+00 0.000000e+00 0.000000e+00
-1.153764e+05 5.059996e+03 0.000000e+00 5.059996e+03 -2.211311e+05 0.000000e+00 0.000000e+00 0.000000e+00 0.000000e+00
-1.209999e+05 7.334749e+03 0.000000e+00 7.334749e+03 -2.313505e+05 0.000000e+00 0.000000e+00 0.000000e+00 0.000000e+00
-1.273823e+05 9.923114e+03 0.000000e+00 9.923114e+03 -2.447171e+05 0.000000e+00 0.000000e+00 0.000000e+00 0.000000e+00
-1.361067e+05 1.007790e+04 0.000000e+00 1.007790e+04 -2.557972e+05 0.000000e+00 0.000000e+00 0.000000e+00 0.000000e+00
-1.376845e+05 4.938885e+03 0.000000e+00 4.938885e+03 -2.688713e+05 0.000000e+00 0.000000e+00 0.000000e+00 0.000000e+00
-1.461343e+05 -1.275030e+03 0.000000e+00 -1.275030e+03 -2.746227e+05 0.000000e+00 0.000000e+00 0.000000e+00 0.000000e+00
-1.530375e+05 -8.204203e+02 0.000000e+00 -8.204203e+02 -2.657237e+05 0.000000e+00 0.000000e+00 0.000000e+00 0.000000e+00
-1.178998e+05 1.617432e+04 0.000000e+00 1.617432e+04 -1.942783e+05 0.000000e+00 0.000000e+00 0.000000e+00 0.000000e+00
-1.037457e+05 1.366660e+04 0.000000e+00 1.366660e+04 -1.915086e+05 0.000000e+00 0.000000e+00 0.000000e+00 0.000000e+00
-1.002367e+05 1.209173e+04 0.000000e+00 1.209173e+04 -2.019971e+05 0.000000e+00 0.000000e+00 0.000000e+00 0.000000e+00
-1.078381e+05 1.209790e+04 0.000000e+00 1.209790e+04 -2.121866e+05 0.000000e+00 0.000000e+00 0.000000e+00 0.000000e+00
-1.155481e+05 1.271306e+04 0.000000e+00 1.271306e+04 -2.245425e+05 0.000000e+00 0.000000e+00 0.000000e+00 0.000000e+00
-1.219984e+05 1.378975e+04 0.000000e+00 1.378975e+04 -2.352341e+05 0.000000e+00 0.000000e+00 0.000000e+00 0.000000e+00
-1.269441e+05 1.435812e+04 0.000000e+00 1.435812e+04 -2.448265e+05 0.000000e+00 0.000000e+00 0.000000e+00 0.000000e+00
-1.343616e+05 1.253373e+04 0.000000e+00 1.253373e+04 -2.525998e+05 0.000000e+00 0.000000e+00 0.000000e+00 0.000000e+00
-1.386941e+05 6.833296e+03 0.000000e+00 6.833296e+03 -2.641819e+05 0.000000e+00 0.000000e+00 0.000000e+00 0.000000e+00
-1.412931e+05 -1.121489e+03 0.000000e+00 -1.121489e+03 -2.693482e+05 0.000000e+00 0.000000e+00 0.000000e+00 0.000000e+00
-1.614551e+05 -7.244324e+03 0.000000e+00 -7.244324e+03 -2.992286e+05 0.000000e+00 0.000000e+00 0.000000e+00 0.000000e+00
-1.155195e+05 2.749497e+04 0.000000e+00 2.749497e+04 -1.700708e+05 0.000000e+00 0.000000e+00 0.000000e+00 0.000000e+00
-1.029805e+05 2.438726e+04 0.000000e+00 2.438726e+04 -1.641383e+05 0.000000e+00 0.000000e+00 0.000000e+00 0.000000e+00
-1.015379e+05 2.423660e+04 0.000000e+00 2.423660e+04 -1.715136e+05 0.000000e+00 0.000000e+00 0.000000e+00 0.000000e+00
-1.082471e+05 2.628557e+04 0.000000e+00 2.628557e+04 -1.821355e+05 0.000000e+00 0.000000e+00 0.000000e+00 0.000000e+00
-1.164059e+05 2.797878e+04 0.000000e+00 2.797878e+04 -1.924461e+05 0.000000e+00 0.000000e+00 0.000000e+00 0.000000e+00
-1.260477e+05 3.022516e+04 0.000000e+00 3.022516e+04 -2.041551e+05 0.000000e+00 0.000000e+00 0.000000e+00 0.000000e+00
-1.373522e+05 3.229079e+04 0.000000e+00 3.229079e+04 -2.189018e+05 0.000000e+00 0.000000e+00 0.000000e+00 0.000000e+00
-1.527880e+05 3.444222e+04 0.000000e+00 3.444222e+04 -2.359920e+05 0.000000e+00 0.000000e+00 0.000000e+00 0.000000e+00
-1.617737e+05 3.451775e+04 0.000000e+00 3.451775e+04 -2.540159e+05 0.000000e+00 0.000000e+00 0.000000e+00 0.000000e+00
-1.695993e+05 2.548069e+04 0.000000e+00 2.548069e+04 -2.722203e+05 0.000000e+00 0.000000e+00 0.000000e+00 0.000000e+00
-1.913056e+05 7.727085e+03 0.000000e+00 7.727085e+03 -3.164008e+05 0.000000e+00 0.000000e+00 0.000000e+00 0.000000e+00
-1.060968e+05 2.921001e+04 0.000000e+00 2.921001e+04 -1.349079e+05 0.000000e+00 0.000000e+00 0.000000e+00 0.000000e+00
-9.727862e+04 2.689752e+04 0.000000e+00 2.689752e+04 -1.294350e+05 0.000000e+00 0.000000e+00 0.000000e+00 0.000000e+00
-9.799087e+04 2.737966e+04 0.000000e+00 2.737966e+04 -1.302251e+05 0.000000e+00 0.000000e+00 0.000000e+00 0.000000e+00
-1.044976e+05 2.930594e+04 0.000000e+00 2.930594e+04 -1.305880e+05 0.000000e+00 0.000000e+00 0.000000e+00 0.000000e+00
-1.104367e+05 3.100115e+04 0.000000e+00 3.100115e+04 -1.291625e+05 0.000000e+00 0.000000e+00 0.000000e+00 0.000000e+00
-1.151360e+05 3.254547e+04 0.000000e+00 3.254547e+04 -1.265770e+05 0.000000e+00 0.000000e+00 0.000000e+00 0.000000e+00
-1.175521e+05 3.256720e+04 0.000000e+00 3.256720e+04 -1.205948e+05 0.000000e+00 0.000000e+00 0.000000e+00 0.000000e+00
-1.170434e+05 2.985213e+04 0.000000e+00 2.985213e+04 -1.111047e+05 0.000000e+00 0.000000e+00 0.000000e+00 0.000000e+00
-1.095879e+05 2.427226e+04 0.000000e+00 2.427226e+04 -9.919668e+04 0.000000e+00 0.000000e+00 0.000000e+00 0.000000e+00
-8.772637e+04 1.523485e+04 0.000000e+00 1.523485e+04 -8.064982e+04 0.000000e+00 0.000000e+00 0.000000e+00 0.000000e+00
-6.168274e+04 9.172382e+03 0.000000e+00 9.172382e+03 -6.645303e+04 0.000000e+00 0.000000e+00 0.000000e+00 0.000000e+00
-1.018506e+05 2.848943e+04 0.000000e+00 2.848943e+04 -1.155366e+05 0.000000e+00 0.000000e+00 0.000000e+00 0.000000e+00
-9.732103e+04 2.716808e+04 0.000000e+00 2.716808e+04 -1.131322e+05 0.000000e+00 0.000000e+00 0.000000e+00 0.000000e+00
-1.018026e+05 2.777693e+04 0.000000e+00 2.777693e+04 -1.141033e+05 0.000000e+00 0.000000e+00 0.000000e+00 0.000000e+00
-1.094673e+05 2.888856e+04 0.000000e+00 2.888856e+04 -1.125381e+05 0.000000e+00 0.000000e+00 0.000000e+00 0.000000e+00
-1.164712e+05 2.925472e+04 0.000000e+00 2.925472e+04 -1.089682e+05 0.000000e+00 0.000000e+00 0.000000e+00 0.000000e+00
-1.218230e+05 2.842811e+04 0.000000e+00 2.842811e+04 -1.033978e+05 0.000000e+00 0.000000e+00 0.000000e+00 0.000000e+00
-1.251561e+05 2.606958e+04 0.000000e+00 2.606958e+04 -9.611297e+04 0.000000e+00 0.000000e+00 0.000000e+00 0.000000e+00
-1.254849e+05 2.162754e+04 0.000000e+00 2.162754e+04 -8.738660e+04 0.000000e+00 0.000000e+00 0.000000e+00 0.000000e+00
-1.192828e+05 1.431334e+04 0.000000e+00 1.431334e+04 -7.769668e+04 0.000000e+00 0.000000e+00 0.000000e+00 0.000000e+00
-9.699969e+04 4.994170e+03 0.000000e+00 4.994170e+03 -6.879320e+04 0.000000e+00 0.000000e+00 0.000000e+00 0.000000e+00
-6.052572e+04 1.931562e+02 0.000000e+00 1.931562e+02 -5.673575e+04 0.000000e+00 0.000000e+00 0.000000e+00 0.000000e+00
-9.580072e+04 2.695771e+04 0.000000e+00 2.695771e+04 -1.009564e+05 0.000000e+00 0.000000e+00 0.000000e+00 0.000000e+00
-9.588545e+04 2.654986e+04 0.000000e+00 2.654986e+04 -1.005709e+05 0.000000e+00 0.000000e+00 0.000000e+00 0.000000e+00
-1.024640e+05 2.619728e+04 0.000000e+00 2.619728e+04 -9.954796e+04 0.000000e+00 0.000000e+00 0.000000e+00 0.000000e+00
-1.098830e+05 2.551942e+04 0.000000e+00 2.551942e+04 -9.591758e+04 0.000000e+00 0.000000e+00 0.000000e+00 0.000000e+00
-1.157674e+05 2.414190e+04 0.000000e+00 2.414190e+04 -9.171948e+04 0.000000e+00 0.000000e+00 0.000000e+00 0.000000e+00
-1.196753e+05 2.172203e+04 0.000000e+00 2.172203e+04 -8.652805e+04 0.000000e+00 0.000000e+00 0.000000e+00 0.000000e+00
-1.214097e+05 1.784041e+04 0.000000e+00 1.784041e+04 -8.043424e+04 0.000000e+00 0.000000e+00 0.000000e+00 0.000000e+00
-1.191267e+05 1.217110e+04 0.000000e+00 1.217110e+04 -7.379899e+04 0.000000e+00 0.000000e+00 0.000000e+00 0.000000e+00
-1.102368e+05 4.875780e+03 0.000000e+00 4.875780e+03 -6.746852e+04 0.000000e+00 0.000000e+00 0.000000e+00 0.000000e+00
-8.833933e+04 -1.366360e+03 0.000000e+00 -1.366360e+03 -6.254077e+04 0.000000e+00 0.000000e+00 0.000000e+00 0.000000e+00
-6.000485e+04 -3.140257e+03 0.000000e+00 -3.140257e+03 -5.625577e+04 0.000000e+00 0.000000e+00 0.000000e+00 0.000000e+00
-8.813184e+04 2.475863e+04 0.000000e+00 2.475863e+04 -8.913594e+04 0.000000e+00 0.000000e+00 0.000000e+00 0.000000e+00
-9.413029e+04 2.477444e+04 0.000000e+00 2.477444e+04 -9.034731e+04 0.000000e+00 0.000000e+00 0.000000e+00 0.000000e+00
-1.018732e+05 2.318146e+04 0.000000e+00 2.318146e+04 -8.775103e+04 0.000000e+00 0.000000e+00 0.000000e+00 0.000000e+00
-1.085841e+05 2.158088e+04 0.000000e+00 2.158088e+04 -8.443504e+04 0.000000e+00 0.000000e+00 0.000000e+00 0.000000e+00
-1.133823e+05 1.922284e+04 0.000000e+00 1.922284e+04 -8.057248e+04 0.000000e+00 0.000000e+00 0.000000e+00 0.000000e+00
-1.160097e+05 1.582012e+04 0.000000e+00 1.582012e+04 -7.601291e+04 0.000000e+00 0.000000e+00 0.000000e+00 0.000000e+00
-1.160268e+05 1.127474e+04 0.000000e+00 1.127474e+04 -7.116730e+04 0.000000e+00 0.000000e+00 0.000000e+00 0.000000e+00
-1.120800e+05 5.592496e+03 0.000000e+00 5.592496e+03 -6.652413e+04 0.000000e+00 0.000000e+00 0.000000e+00 0.000000e+00
-1.028181e+05 -2.627255e+02 0.000000e+00 -2.627255e+02 -6.275106e+04 0.000000e+00 0.000000e+00 0.000000e+00 0.000000e+00
-8.546505e+04 -3.407985e+03 0.000000e+00 -3.407985e+03 -6.041651e+04 0.000000e+00 0.000000e+00 0.000000e+00 0.000000e+00
-6.647992e+04 -3.568876e+03 0.000000e+00 -3.568876e+03 -5.707333e+04 0.000000e+00 0.000000e+00 0.000000e+00 0.000000e+00
-8.210616e+04 2.272498e+04 0.000000e+00 2.272498e+04 -8.042972e+04 0.000000e+00 0.000000e+00 0.000000e+00 0.000000e+00
-9.187892e+04 2.254469e+04 0.000000e+00 2.254469e+04 -8.228458e+04 0.000000e+00 0.000000e+00 0.000000e+00 0.000000e+00
-1.002468e+05 2.019929e+04 0.000000e+00 2.019929e+04 -7.941275e+04 0.000000e+00 0.000000e+00 0.000000e+00 0.000000e+00
-1.061483e+05 1.784747e+04 0.000000e+00 1.784747e+04 -7.638644e+04 0.000000e+00 0.000000e+00 0.000000e+00 0.000000e+00
-1.099828e+05 1.476981e+04 0.000000e+00 1.476981e+04 -7.290528e+04 0.000000e+00 0.000000e+00 0.000000e+00 0.000000e+00
-1.115445e+05 1.099072e+04 0.000000e+00 1.099072e+04 -6.929843e+04 0.000000e+00 0.000000e+00 0.000000e+00 0.000000e+00
-1.104685e+05 6.448919e+03 0.000000e+00 6.448919e+03 -6.570466e+04 0.000000e+00 0.000000e+00 0.000000e+00 0.000000e+00
-1.061374e+05 1.532979e+03 0.000000e+00 1.532979e+03 -6.258621e+04 0.000000e+00 0.000000e+00 0.000000e+00 0.000000e+00
-9.799388e+04 -2.571385e+03 0.000000e+00 -2.571385e+03 -6.051283e+04 0.000000e+00 0.000000e+00 0.000000e+00 0.000000e+00
-8.550684e+04 -3.793787e+03 0.000000e+00 -3.793787e+03 -5.965232e+04 0.000000e+00 0.000000e+00 0.000000e+00 0.000000e+00
-7.348985e+04 -3.146965e+03 0.000000e+00 -3.146965e+03 -5.768409e+04 0.000000e+00 0.000000e+00 0.000000e+00 0.000000e+00
-7.765806e+04 2.060443e+04 0.000000e+00 2.060443e+04 -7.402662e+04 0.000000e+00 0.000000e+00 0.000000e+00 0.000000e+00
-8.904193e+04 2.022661e+04 0.000000e+00 2.022661e+04 -7.611399e+04 0.000000e+00 0.000000e+00 0.000000e+00 0.000000e+00
-9.767485e+04 1.735195e+04 0.000000e+00 1.735195e+04 -7.328295e+04 0.000000e+00 0.000000e+00 0.000000e+00 0.000000e+00
-1.030287e+05 1.441842e+04 0.000000e+00 1.441842e+04 -7.054391e+04 0.000000e+00 0.000000e+00 0.000000e+00 0.000000e+00
-1.061322e+05 1.113176e+04 0.000000e+00 1.113176e+04 -6.772859e+04 0.000000e+00 0.000000e+00 0.000000e+00 0.000000e+00
-1.070285e+05 7.325503e+03 0.000000e+00 7.325503e+03 -6.496294e+04 0.000000e+00 0.000000e+00 0.000000e+00 0.000000e+00
-1.055475e+05 3.157168e+03 0.000000e+00 3.157168e+03 -6.239693e+04 0.000000e+00 0.000000e+00 0.000000e+00 0.000000e+00
-1.015754e+05 -7.421237e+02 0.000000e+00 -7.421237e+02 -6.047498e+04 0.000000e+00 0.000000e+00 0.000000e+00 0.000000e+00
-9.520380e+04 -3.414839e+03 0.000000e+00 -3.414839e+03 -5.954969e+04 0.000000e+00 0.000000e+00 0.000000e+00 0.000000e+00
-8.691341e+04 -3.493700e+03 0.000000e+00 -3.493700e+03 -5.943344e+04 0.000000e+00 0.000000e+00 0.000000e+00 0.000000e+00
-7.967571e+04 -2.486856e+03 0.000000e+00 -2.486856e+03 -5.831697e+04 0.000000e+00 0.000000e+00 0.000000e+00 0.000000e+00
-7.436854e+04 1.860529e+04 0.000000e+00 1.860529e+04 -6.936528e+04 0.000000e+00 0.000000e+00 0.000000e+00 0.000000e+00
-8.590632e+04 1.796572e+04 0.000000e+00 1.796572e+04 -7.131956e+04 0.000000e+00 0.000000e+00 0.000000e+00 0.000000e+00
-9.449229e+04 1.471687e+04 0.000000e+00 1.471687e+04 -6.865268e+04 0.000000e+00 0.000000e+00 0.000000e+00 0.000000e+00
-9.960600e+04 1.161237e+04 0.000000e+00 1.161237e+04 -6.639179e+04 0.000000e+00 0.000000e+00 0.000000e+00 0.000000e+00
-1.022858e+05 8.280252e+03 0.000000e+00 8.280252e+03 -6.419414e+04 0.000000e+00 0.000000e+00 0.000000e+00 0.000000e+00
-1.028379e+05 4.676028e+03 0.000000e+00 4.676028e+03 -6.209645e+04 0.000000e+00 0.000000e+00 0.000000e+00 0.000000e+00
-1.014270e+05 1.115950e+03 0.000000e+00 1.115950e+03 -6.039035e+04 0.000000e+00 0.000000e+00 0.000000e+00 0.000000e+00
-9.826713e+04 -1.842646e+03 0.000000e+00 -1.842646e+03 -5.937491e+04 0.000000e+00 0.000000e+00 0.000000e+00 0.000000e+00
-9.380375e+04 -3.457922e+03 0.000000e+00 -3.457922e+03 -5.914932e+04 0.000000e+00 0.000000e+00 0.000000e+00 0.000000e+00
-8.879018e+04 -2.954660e+03 0.000000e+00 -2.954660e+03 -5.940495e+04 0.000000e+00 0.000000e+00 0.000000e+00 0.000000e+00
-8.475002e+04 -1.875618e+03 0.000000e+00 -1.875618e+03 -5.885805e+04 0.000000e+00 0.000000e+00 0.000000e+00 0.000000e+00
-7.134658e+04 1.639146e+04 0.000000e+00 1.639146e+04 -6.622693e+04 0.000000e+00 0.000000e+00 0.000000e+00 0.000000e+00
-8.247146e+04 1.569047e+04 0.000000e+00 1.569047e+04 -6.785081e+04 0.000000e+00 0.000000e+00 0.000000e+00 0.000000e+00
-9.121226e+04 1.245172e+04 0.000000e+00 1.245172e+04 -6.545475e+04 0.000000e+00 0.000000e+00 0.000000e+00 0.000000e+00
-9.611384e+04 9.353619e+03 0.000000e+00 9.353619e+03 -6.358905e+04 0.000000e+00 0.000000e+00 0.000000e+00 0.000000e+00
-9.857345e+04 6.125562e+03 0.000000e+00 6.125562e+03 -6.183391e+04 0.000000e+00 0.000000e+00 0.000000e+00 0.000000e+00
-9.908662e+04 2.880374e+03 0.000000e+00 2.880374e+03 -6.034561e+04 0.000000e+00 0.000000e+00 0.000000e+00 0.000000e+00
-9.808313e+04 -4.490328e+01 0.000000e+00 -4.490328e+01 -5.933532e+04 0.000000e+00 0.000000e+00 0.000000e+00 0.000000e+00
-9.598764e+04 -2.201242e+03 0.000000e+00 -2.201242e+03 -5.891082e+04 0.000000e+00 0.000000e+00 0.000000e+00 0.000000e+00
-9.331219e+04 -3.092901e+03 0.000000e+00 -3.092901e+03 -5.905955e+04 0.000000e+00 0.000000e+00 0.000000e+00 0.000000e+00
-9.068463e+04 -2.350832e+03 0.000000e+00 -2.350832e+03 -5.946539e+04 0.000000e+00 0.000000e+00 0.000000e+00 0.000000e+00
-8.874184e+04 -1.350530e+03 0.000000e+00 -1.350530e+03 -5.930442e+04 0.000000e+00 0.000000e+00 0.000000e+00 0.000000e+00
-6.880631e+04 1.422775e+04 0.000000e+00 1.422775e+04 -6.442650e+04 0.000000e+00 0.000000e+00 0.000000e+00 0.000000e+00
-7.922202e+04 1.346259e+04 0.000000e+00 1.346259e+04 -6.561456e+04 0.000000e+00 0.000000e+00 0.000000e+00 0.000000e+00
-8.792913e+04 1.044473e+04 0.000000e+00 1.044473e+04 -6.344495e+04 0.000000e+00 0.000000e+00 0.000000e+00 0.000000e+00
-9.274033e+04 7.494934e+03 0.000000e+00 7.494934e+03 -6.182922e+04 0.000000e+00 0.000000e+00 0.000000e+00 0.000000e+00
-9.515373e+04 4.535583e+03 0.000000e+00 4.535583e+03 -6.044847e+04 0.000000e+00 0.000000e+00 0.000000e+00 0.000000e+00
-9.586906e+04 1.730956e+03 0.000000e+00 1.730956e+03 -5.941692e+04 0.000000e+00 0.000000e+00 0.000000e+00 0.000000e+00
-9.549809e+04 -5.999564e+02 0.000000e+00 -5.999564e+02 -5.887116e+04 0.000000e+00 0.000000e+00 0.000000e+00 0.000000e+00
-9.451488e+04 -2.125941e+03 0.000000e+00 -2.125941e+03 -5.880030e+04 0.000000e+00 0.000000e+00 0.000000e+00 0.000000e+00
-9.333220e+04 -2.573595e+03 0.000000e+00 -2.573595e+03 -5.912018e+04 0.000000e+00 0.000000e+00 0.000000e+00 0.000000e+00
-9.236715e+04 -1.805548e+03 0.000000e+00 -1.805548e+03 -5.956941e+04 0.000000e+00 0.000000e+00 0.000000e+00 0.000000e+00
-9.178209e+04 -9.605207e+02 0.000000e+00 -9.605207e+02 -5.968448e+04 0.000000e+00 0.000000e+00 0.000000e+00 0.000000e+00
-6.722163e+04 1.192771e+04 0.000000e+00 1.192771e+04 -6.371218e+04 0.000000e+00 0.000000e+00 0.000000e+00 0.000000e+00
-7.646231e+04 1.116477e+04 0.000000e+00 1.116477e+04 -6.429848e+04 0.000000e+00 0.000000e+00 0.000000e+00 0.000000e+00
-8.489005e+04 8.596703e+03 0.000000e+00 8.596703e+03 -6.229449e+04 0.000000e+00 0.000000e+00 0.000000e+00 0.000000e+00
-8.963757e+04 5.951207e+03 0.000000e+00 5.951207e+03 -6.081612e+04 0.000000e+00 0.000000e+00 0.000000e+00 0.000000e+00
-9.213446e+04 3.341662e+03 0.000000e+00 3.341662e+03 -5.965925e+04 0.000000e+00 0.000000e+00 0.000000e+00 0.000000e+00
-9.324815e+04 1.025390e+03 0.000000e+00 1.025390e+03 -5.893103e+04 0.000000e+00 0.000000e+00 0.000000e+00 0.000000e+00
-9.357957e+04 -7.640312e+02 0.000000e+00 -7.640312e+02 -5.867052e+04 0.000000e+00 0.000000e+00 0.000000e+00 0.000000e+00
-9.358009e+04 -1.815993e+03 0.000000e+00 -1.815993e+03 -5.881745e+04 0.000000e+00 0.000000e+00 0.000000e+00 0.000000e+00
-9.355885e+04 -2.008943e+03 0.000000e+00 -2.008943e+03 -5.922002e+04 0.000000e+00 0.000000e+00 0.000000e+00 0.000000e+00
-9.375308e+04 -1.333988e+03 0.000000e+00 -1.333988e+03 -5.964956e+04 0.000000e+00 0.000000e+00 0.000000e+00 0.000000e+00
-9.410096e+04 -6.684565e+02 0.000000e+00 -6.684565e+02 -5.992129e+04 0.000000e+00 0.000000e+00 0.000000e+00 0.000000e+00
-6.630609e+04 9.432988e+03 0.000000e+00 9.432988e+03 -6.391284e+04 0.000000e+00 0.000000e+00 0.000000e+00 0.000000e+00
-7.427622e+04 8.740594e+03 0.000000e+00 8.740594e+03 -6.388889e+04 0.000000e+00 0.000000e+00 0.000000e+00 0.000000e+00
-8.223614e+04 6.697422e+03 0.000000e+00 6.697422e+03 -6.184744e+04 0.000000e+00 0.000000e+00 0.000000e+00 0.000000e+00
-8.694687e+04 4.481764e+03 0.000000e+00 4.481764e+03 -6.032234e+04 0.000000e+00 0.000000e+00 0.000000e+00 0.000000e+00
-8.963218e+04 2.374552e+03 0.000000e+00 2.374552e+03 -5.927407e+04 0.000000e+00 0.000000e+00 0.000000e+00 0.000000e+00
-9.118975e+04 5.934080e+02 0.000000e+00 5.934080e+02 -5.872535e+04 0.000000e+00 0.000000e+00 0.000000e+00 0.000000e+00
-9.219632e+04 -6.960554e+02 0.000000e+00 -6.960554e+02 -5.863180e+04 0.000000e+00 0.000000e+00 0.000000e+00 0.000000e+00
-9.300881e+04 -1.392196e+03 0.000000e+00 -1.392196e+03 -5.888004e+04 0.000000e+00 0.000000e+00 0.000000e+00 0.000000e+00
-9.383112e+04 -1.460071e+03 0.000000e+00 -1.460071e+03 -5.930369e+04 0.000000e+00 0.000000e+00 0.000000e+00 0.000000e+00
-9.482442e+04 -9.308996e+02 0.000000e+00 -9.308996e+02 -5.969289e+04 0.000000e+00 0.000000e+00 0.000000e+00 0.000000e+00
-9.577604e+04 -4.330887e+02 0.000000e+00 -4.330887e+02 -6.007431e+04 0.000000e+00 0.000000e+00 0.000000e+00 0.000000e+00
-6.567352e+04 6.533593e+03 0.000000e+00 6.533593e+03 -6.447946e+04 0.000000e+00 0.000000e+00 0.000000e+00 0.000000e+00
-7.263528e+04 6.024544e+03 0.000000e+00 6.024544e+03 -6.403182e+04 0.000000e+00 0.000000e+00 0.000000e+00 0.000000e+00
-8.011617e+04 4.602880e+03 0.000000e+00 4.602880e+03 -6.179738e+04 0.000000e+00 0.000000e+00 0.000000e+00 0.000000e+00
-8.483407e+04 2.997533e+03 0.000000e+00 2.997533e+03 -6.014139e+04 0.000000e+00 0.000000e+00 0.000000e+00 0.000000e+00
-8.778637e+04 1.527401e+03 0.000000e+00 1.527401e+03 -5.911625e+04 0.000000e+00 0.000000e+00 0.000000e+00 0.000000e+00
-8.973484e+04 3.337789e+02 0.000000e+00 3.337789e+02 -5.867265e+04 0.000000e+00 0.000000e+00 0.000000e+00 0.000000e+00
-9.127010e+04 -5.051601e+02 0.000000e+00 -5.051601e+02 -5.866727e+04 0.000000e+00 0.000000e+00 0.000000e+00 0.000000e+00
-9.267292e+04 -9.350603e+02 0.000000e+00 -9.350603e+02 -5.896159e+04 0.000000e+00 0.000000e+00 0.000000e+00 0.000000e+00
-9.407302e+04 -9.435012e+02 0.000000e+00 -9.435012e+02 -5.938364e+04 0.000000e+00 0.000000e+00 0.000000e+00 0.000000e+00
-9.557241e+04 -5.754948e+02 0.000000e+00 -5.754948e+02 -5.974800e+04 0.000000e+00 0.000000e+00 0.000000e+00 0.000000e+00
-9.687541e+04 -2.452215e+02 0.000000e+00 -2.452215e+02 -6.019245e+04 0.000000e+00 0.000000e+00 0.000000e+00 0.000000e+00
-6.531645e+04 3.288533e+03 0.000000e+00 3.288533e+03 -6.483098e+04 0.000000e+00 0.000000e+00 0.000000e+00 0.000000e+00
-7.167541e+04 3.030625e+03 0.000000e+00 3.030625e+03 -6.415901e+04 0.000000e+00 0.000000e+00 0.000000e+00 0.000000e+00
-7.876609e+04 2.312336e+03 0.000000e+00 2.312336e+03 -6.176359e+04 0.000000e+00 0.000000e+00 0.000000e+00 0.000000e+00
-8.348148e+04 1.482851e+03 0.000000e+00 1.482851e+03 -6.010889e+04 0.000000e+00 0.000000e+00 0.000000e+00 0.000000e+00
-8.666683e+04 7.476556e+02 0.000000e+00 7.476556e+02 -5.910458e+04 0.000000e+00 0.000000e+00 0.000000e+00 0.000000e+00
-8.888308e+04 1.542855e+02 0.000000e+00 1.542855e+02 -5.870428e+04 0.000000e+00 0.000000e+00 0.000000e+00 0.000000e+00
-9.072968e+04 -2.634930e+02 0.000000e+00 -2.634930e+02 -5.873176e+04 0.000000e+00 0.000000e+00 0.000000e+00 0.000000e+00
-9.250224e+04 -4.700199e+02 0.000000e+00 -4.700199e+02 -5.904827e+04 0.000000e+00 0.000000e+00 0.000000e+00 0.000000e+00
-9.424462e+04 -4.602305e+02 0.000000e+00 -4.602305e+02 -5.945954e+04 0.000000e+00 0.000000e+00 0.000000e+00 0.000000e+00
-9.601240e+04 -2.650604e+02 0.000000e+00 -2.650604e+02 -5.979719e+04 0.000000e+00 0.000000e+00 0.000000e+00 0.000000e+00
-9.748002e+04 -1.003227e+02 0.000000e+00 -1.003227e+02 -6.026172e+04 0.000000e+00 0.000000e+00 0.000000e+00 0.000000e+00
-6.509151e+04 8.817773e+02 0.000000e+00 8.817773e+02 -6.468402e+04 0.000000e+00 0.000000e+00 0.000000e+00 0.000000e+00
-7.129821e+04 8.687213e+02 0.000000e+00 8.687213e+02 -6.405503e+04 0.000000e+00 0.000000e+00 0.000000e+00 0.000000e+00
-7.830266e+04 6.618008e+02 0.000000e+00 6.618008e+02 -6.173570e+04 0.000000e+00 0.000000e+00 0.000000e+00 0.000000e+00
-8.304488e+04 3.507112e+02 0.000000e+00 3.507112e+02 -6.011785e+04 0.000000e+00 0.000000e+00 0.000000e+00 0.000000e+00
-8.630113e+04 7.889008e+01 0.000000e+00 7.889008e+01 -5.913672e+04 0.000000e+00 0.000000e+00 0.000000e+00 0.000000e+00
-8.861734e+04 -1.441920e+02 0.000000e+00 -1.441920e+02 -5.874755e+04 0.000000e+00 0.000000e+00 0.000000e+00 0.000000e+00
-9.057745e+04 -3.052593e+02 0.000000e+00 -3.052593e+02 -5.879309e+04 0.000000e+00 0.000000e+00 0.000000e+00 0.000000e+00
-9.246671e+04 -3.826597e+02 0.000000e+00 -3.826597e+02 -5.912001e+04 0.000000e+00 0.000000e+00 0.000000e+00 0.000000e+00
-9.432415e+04 -3.754650e+02 0.000000e+00 -3.754650e+02 -5.953019e+04 0.000000e+00 0.000000e+00 0.000000e+00 0.000000e+00
-9.617417e+04 -2.827115e+02 0.000000e+00 -2.827115e+02 -5.983921e+04 0.000000e+00 0.000000e+00 0.000000e+00 0.000000e+00
-9.768877e+04 -2.032518e+02 0.000000e+00 -2.032518e+02 -6.029566e+04 0.000000e+00 0.000000e+00 0.000000e+00 0.000000e+00
</DataArray>
<DataArray Name="vol_eps" type="Float64" NumberOfComponents="1" format="ascii">
-1.253957e-02
-1.079694e-02
-9.082080e-03
-7.805627e-03
-7.594578e-03
-8.112406e-03
-9.493699e-03
-1.190143e-02
-1.504904e-02
-1.835889e-02
-1.878857e-02
-1.207494e-02
-1.012893e-02
-8.738511e-03
-8.286615e-03
-8.425881e-03
-8.636411e-03
-9.164295e-03
-1.065667e-02
-1.284338e-02
-1.537802e-02
-2.035387e-02
-1.014145e-02
-8.101748e-03
-7.316930e-03
-7.525189e-03
-7.757759e-03
-8.028130e-03
-8.594682e-03
-9.629391e-03
-1.009254e-02
-1.092049e-02
-1.507709e-02
-6.882711e-03
-5.553481e-03
-5.358104e-03
-5.595754e-03
-5.530735e-03
-4.912452e-03
-3.691467e-03
-1.797190e-03
1.115552e-03
5.352870e-03
9.823639e-03
-5.125890e-03
-4.787432e-03
-5.497316e-03
-6.035311e-03
-6.265227e-03
-6.259852e-03
-6.011297e-03
-5.521768e-03
-4.676584e-03
-2.855230e-03
3.336259e-04
-3.603447e-03
-3.919188e-03
-4.785411e-03
-5.175761e-03
-5.322646e-03
-5.250547e-03
-4.957899e-03
-4.430662e-03
-3.602767e-03
-1.958488e-03
3.295574e-04
-2.352567e-03
-3.285031e-03
-4.149472e-03
-4.478205e-03
-4.541638e-03
-4.386584e-03
-4.056688e-03
-3.579330e-03
-2.869558e-03
-1.649576e-03
-1.896863e-04
-1.500428e-03
-2.773657e-03
-3.605479e-03
-3.842079e-03
-3.841961e-03
-3.679150e-03
-3.401380e-03
-3.009466e-03
-2.443772e-03
-1.606496e-03
-6.841444e-04
-1.033806e-03
-2.359351e-03
-3.093174e-03
-3.276613e-03
-3.275375e-03
-3.159192e-03
-2.939570e-03
-2.621747e-03
-2.217170e-03
-1.689320e-03
-1.132172e-03
-7.958820e-04
-2.008623e-03
-2.622826e-03
-2.811654e-03
-2.841857e-03
-2.767036e-03
-2.594595e-03
-2.365515e-03
-2.112293e-03
-1.816303e-03
-1.509896e-03
-6.625086e-04
-1.709945e-03
-2.245625e-03
-2.448572e-03
-2.507766e-03
-2.461030e-03
-2.342689e-03
-2.209954e-03
-2.078975e-03
-1.946650e-03
-1.808660e-03
-6.028681e-04
-1.475478e-03
-1.958903e-03
-2.166120e-03
-2.235076e-03
-2.218242e-03
-2.166630e-03
-2.119235e-03
-2.083424e-03
-2.057152e-03
-2.026191e-03
-5.776144e-04
-1.280360e-03
-1.726676e-03
-1.934948e-03
-2.012836e-03
-2.034712e-03
-2.044788e-03
-2.066098e-03
-2.100316e-03
-2.141879e-03
-2.180053e-03
-5.900591e-04
-1.135568e-03
-1.534602e-03
-1.741536e-03
-1.841261e-03
-1.901462e-03
-1.961762e-03
-2.035295e-03
-2.119118e-03
-2.205441e-03
-2.289259e-03
-6.242584e-04
-1.053461e-03
-1.393732e-03
-1.594811e-03
-1.719127e-03
-1.813409e-03
-1.909608e-03
-2.018970e-03
-2.136240e-03
-2.250281e-03
-2.360755e-03
-6.445349e-04
-1.007526e-03
-1.304551e-03
-1.505153e-03
-1.649271e-03
-1.765304e-03
-1.882325e-03
-2.013270e-03
-2.149484e-03
-2.277197e-03
-2.399495e-03
-6.267086e-04
-9.796664e-04
-1.271927e-03
-1.476264e-03
-1.630576e-03
-1.753787e-03
-1.878651e-03
-2.016668e-03
-2.159438e-03
-2.290323e-03
-2.414587e-03
</DataArray>
</PointData>
</Piece>
</UnstructuredGrid>
</VTKFile>
