<?xml version="1.0"?>
<VTKFile type="UnstructuredGrid" version="0.1">
<UnstructuredGrid>
<FieldData>
<DataArray Name="TIME" type="Float64" format="ascii" NumberOfTuples="1">
0.000000e+00
</DataArray>
</FieldData>
<FieldData>
<DataArray Name="CYCLE" type="Int32" format="ascii" NumberOfTuples="1">
0
</DataArray>
</FieldData>
<Piece NumberOfPoints="187" NumberOfCells="160">
<Points>
<DataArray NumberOfComponents="3" type="Float64" format="ascii">
0.000000e+00 0.000000e+00 0.000000e+00
0.000000e+00 1.973749e-01 0.000000e+00
0.000000e+00 3.938562e-01 0.000000e+00
0.000000e+00 5.892864e-01 0.000000e+00
0.000000e+00 7.833263e-01 0.000000e+00
0.000000e+00 9.762762e-01 0.000000e+00
0.000000e+00 1.168877e+00 0.000000e+00
0.000000e+00 1.361828e+00 0.000000e+00
0.000000e+00 1.556535e+00 0.000000e+00
0.000000e+00 1.752874e+00 0.000000e+00
0.000000e+00 1.949375e+00 0.000000e+00
2.250000e-01 0.000000e+00 0.000000e+00
2.262336e-01 1.974731e-01 0.000000e+00
2.275636e-01 3.940272e-01 0.000000e+00
2.291154e-01 5.896954e-01 0.000000e+00
2.306481e-01 7.845206e-01 0.000000e+00
2.314292e-01 9.783942e-01 0.000000e+00
2.313044e-01 1.171733e+00 0.000000e+00
2.299177e-01 1.365001e+00 0.000000e+00
2.274356e-01 1.558711e+00 0.000000e+00
2.254092e-01 1.753077e+00 0.000000e+00
2.250000e-01 1.949375e+00 0.000000e+00
4.500000e-01 0.000000e+00 0.000000e+00
4.525056e-01 1.978858e-01 0.000000e+00
4.549242e-01 3.950647e-01 0.000000e+00
4.572219e-01 5.916988e-01 0.000000e+00
4.591781e-01 7.879623e-01 0.000000e+00
4.606121e-01 9.838579e-01 0.000000e+00
4.609245e-01 1.179177e+00 0.000000e+00
4.602458e-01 1.373497e+00 0.000000e+00
4.583933e-01 1.566292e+00 0.000000e+00
4.555396e-01 1.757867e+00 0.000000e+00
4.500000e-01 1.949375e+00 0.000000e+00
6.750000e-01 0.000000e+00 0.000000e+00
6.783857e-01 1.986966e-01 0.000000e+00
6.813142e-01 3.972141e-01 0.000000e+00
6.838183e-01 5.957702e-01 0.000000e+00
6.858980e-01 7.944778e-01 0.000000e+00
6.874516e-01 9.933497e-01 0.000000e+00
6.881928e-01 1.192446e+00 0.000000e+00
6.882616e-01 1.391876e+00 0.000000e+00
6.874626e-01 1.591745e+00 0.000000e+00
6.852361e-01 1.791991e+00 0.000000e+00
6.801361e-01 1.992458e+00 0.000000e+00
9.000000e-01 0.000000e+00 0.000000e+00
9.036646e-01 1.989945e-01 0.000000e+00
9.064414e-01 3.980483e-01 0.000000e+00
9.086665e-01 5.972750e-01 0.000000e+00
9.104340e-01 7.966986e-01 0.000000e+00
9.116783e-01 9.963633e-01 0.000000e+00
9.122074e-01 1.196254e+00 0.000000e+00
9.120309e-01 1.396374e+00 0.000000e+00
9.110172e-01 1.596746e+00 0.000000e+00
9.087705e-01 1.797238e+00 0.000000e+00
9.054487e-01 1.997252e+00 0.000000e+00
1.125000e+00 0.000000e+00 0.000000e+00
1.128663e+00 1.993679e-01 0.000000e+00
1.131141e+00 3.988436e-01 0.000000e+00
1.133067e+00 5.984956e-01 0.000000e+00
1.134544e+00 7.983376e-01 0.000000e+00
1.135522e+00 9.983747e-01 0.000000e+00
1.135883e+00 1.198611e+00 0.000000e+00
1.135599e+00 1.399032e+00 0.000000e+00
1.134582e+00 1.599559e+00 0.000000e+00
1.132862e+00 1.799971e+00 0.000000e+00
1.130856e+00 2.000061e+00 0.000000e+00
1.350000e+00 0.000000e+00 0.000000e+00
1.353402e+00 1.996297e-01 0.000000e+00
1.355585e+00 3.993898e-01 0.000000e+00
1.357235e+00 5.993060e-01 0.000000e+00
1.358468e+00 7.994013e-01 0.000000e+00
1.359254e+00 9.996765e-01 0.000000e+00
1.359503e+00 1.200108e+00 0.000000e+00
1.359195e+00 1.400637e+00 0.000000e+00
1.358375e+00 1.601166e+00 0.000000e+00
1.357196e+00 1.801533e+00 0.000000e+00
1.356001e+00 2.001635e+00 0.000000e+00
1.575000e+00 0.000000e+00 0.000000e+00
1.577999e+00 1.997971e-01 0.000000e+00
1.579888e+00 3.997390e-01 0.000000e+00
1.581301e+00 5.998408e-01 0.000000e+00
1.582344e+00 8.000911e-01 0.000000e+00
1.582976e+00 1.000487e+00 0.000000e+00
1.583159e+00 1.200993e+00 0.000000e+00
1.582919e+00 1.401543e+00 0.000000e+00
1.582349e+00 1.602039e+00 0.000000e+00
1.581608e+00 1.802374e+00 0.000000e+00
1.580937e+00 2.002512e+00 0.000000e+00
1.800000e+00 0.000000e+00 0.000000e+00
1.802528e+00 1.998996e-01 0.000000e+00
1.804137e+00 3.999636e-01 0.000000e+00
1.805354e+00 6.001636e-01 0.000000e+00
1.806232e+00 8.004893e-01 0.000000e+00
1.806749e+00 1.000935e+00 0.000000e+00
1.806911e+00 1.201453e+00 0.000000e+00
1.806778e+00 1.401979e+00 0.000000e+00
1.806436e+00 1.602436e+00 0.000000e+00
1.806021e+00 1.802760e+00 0.000000e+00
1.805699e+00 2.002937e+00 0.000000e+00
2.025000e+00 0.000000e+00 0.000000e+00
2.027038e+00 1.999553e-01 0.000000e+00
2.028397e+00 4.000794e-01 0.000000e+00
2.029437e+00 6.003226e-01 0.000000e+00
2.030172e+00 8.006766e-01 0.000000e+00
2.030607e+00 1.001123e+00 0.000000e+00
2.030782e+00 1.201616e+00 0.000000e+00
2.030750e+00 1.402104e+00 0.000000e+00
2.030587e+00 1.602529e+00 0.000000e+00
2.030402e+00 1.802852e+00 0.000000e+00
2.030309e+00 2.003071e+00 0.000000e+00
2.250000e+00 0.000000e+00 0.000000e+00
2.251579e+00 1.999760e-01 0.000000e+00
2.252704e+00 4.001147e-01 0.000000e+00
2.253577e+00 6.003648e-01 0.000000e+00
2.254192e+00 8.007140e-01 0.000000e+00
2.254574e+00 1.001135e+00 0.000000e+00
2.254762e+00 1.201591e+00 0.000000e+00
2.254807e+00 1.402039e+00 0.000000e+00
2.254773e+00 1.602438e+00 0.000000e+00
2.254739e+00 1.802766e+00 0.000000e+00
2.254785e+00 2.003026e+00 0.000000e+00
2.475000e+00 0.000000e+00 0.000000e+00
2.476177e+00 1.999817e-01 0.000000e+00
2.477085e+00 4.001062e-01 0.000000e+00
2.477795e+00 6.003368e-01 0.000000e+00
2.478306e+00 8.006584e-01 0.000000e+00
2.478640e+00 1.001044e+00 0.000000e+00
2.478833e+00 1.201460e+00 0.000000e+00
2.478927e+00 1.401871e+00 0.000000e+00
2.478975e+00 1.602251e+00 0.000000e+00
2.479029e+00 1.802587e+00 0.000000e+00
2.479149e+00 2.002884e+00 0.000000e+00
2.700000e+00 0.000000e+00 0.000000e+00
2.700848e+00 1.999723e-01 0.000000e+00
2.701547e+00 4.000696e-01 0.000000e+00
2.702104e+00 6.002737e-01 0.000000e+00
2.702516e+00 8.005611e-01 0.000000e+00
2.702799e+00 1.000907e+00 0.000000e+00
2.702980e+00 1.201284e+00 0.000000e+00
2.703095e+00 1.401666e+00 0.000000e+00
2.703181e+00 1.602032e+00 0.000000e+00
2.703277e+00 1.802377e+00 0.000000e+00
2.703422e+00 2.002706e+00 0.000000e+00
2.925000e+00 0.000000e+00 0.000000e+00
2.925585e+00 1.999587e-01 0.000000e+00
2.926085e+00 4.000286e-01 0.000000e+00
2.926496e+00 6.002008e-01 0.000000e+00
2.926810e+00 8.004559e-01 0.000000e+00
2.927034e+00 1.000767e+00 0.000000e+00
2.927187e+00 1.201112e+00 0.000000e+00
2.927296e+00 1.401470e+00 0.000000e+00
2.927388e+00 1.601827e+00 0.000000e+00
2.927490e+00 1.802179e+00 0.000000e+00
2.927624e+00 2.002534e+00 0.000000e+00
3.150000e+00 0.000000e+00 0.000000e+00
3.150367e+00 1.999464e-01 0.000000e+00
3.150688e+00 3.999949e-01 0.000000e+00
3.150956e+00 6.001404e-01 0.000000e+00
3.151169e+00 8.003685e-01 0.000000e+00
3.151325e+00 1.000654e+00 0.000000e+00
3.151436e+00 1.200976e+00 0.000000e+00
3.151519e+00 1.401317e+00 0.000000e+00
3.151593e+00 1.601667e+00 0.000000e+00
3.151675e+00 1.802025e+00 0.000000e+00
3.151775e+00 2.002398e+00 0.000000e+00
3.375000e+00 0.000000e+00 0.000000e+00
3.375179e+00 1.999396e-01 0.000000e+00
3.375334e+00 3.999781e-01 0.000000e+00
3.375466e+00 6.001080e-01 0.000000e+00
3.375573e+00 8.003178e-01 0.000000e+00
3.375654e+00 1.000587e+00 0.000000e+00
3.375711e+00 1.200895e+00 0.000000e+00
3.375756e+00 1.401226e+00 0.000000e+00
3.375797e+00 1.601572e+00 0.000000e+00
3.375842e+00 1.801933e+00 0.000000e+00
3.375895e+00 2.002317e+00 0.000000e+00
3.600000e+00 0.000000e+00 0.000000e+00
3.600000e+00 1.999500e-01 0.000000e+00
3.600000e+00 3.999879e-01 0.000000e+00
3.600000e+00 6.001124e-01 0.000000e+00
3.600000e+00 8.003161e-01 0.000000e+00
3.600000e+00 1.000579e+00 0.000000e+00
3.600000e+00 1.200882e+00 0.000000e+00
3.600000e+00 1.401208e+00 0.000000e+00
3.600000e+00 1.601552e+00 0.000000e+00
3.600000e+00 1.801913e+00 0.000000e+00
3.600000e+00 2.002298e+00 0.000000e+00
</DataArray>
</Points>
<Cells>
<DataArray Name="connectivity" type="Int32" format="ascii">
0 11 12 1
1 12 13 2
2 13 14 3
3 14 15 4
4 15 16 5
5 16 17 6
6 17 18 7
7 18 19 8
8 19 20 9
9 20 21 10
11 22 23 12
12 23 24 13
13 24 25 14
14 25 26 15
15 26 27 16
16 27 28 17
17 28 29 18
18 29 30 19
19 30 31 20
20 31 32 21
22 33 34 23
23 34 35 24
24 35 36 25
25 36 37 26
26 37 38 27
27 38 39 28
28 39 40 29
29 40 41 30
30 41 42 31
31 42 43 32
33 44 45 34
34 45 46 35
35 46 47 36
36 47 48 37
37 48 49 38
38 49 50 39
39 50 51 40
40 51 52 41
41 52 53 42
42 53 54 43
44 55 56 45
45 56 57 46
46 57 58 47
47 58 59 48
48 59 60 49
49 60 61 50
50 61 62 51
51 62 63 52
52 63 64 53
53 64 65 54
55 66 67 56
56 67 68 57
57 68 69 58
58 69 70 59
59 70 71 60
60 71 72 61
61 72 73 62
62 73 74 63
63 74 75 64
64 75 76 65
66 77 78 67
67 78 79 68
68 79 80 69
69 80 81 70
70 81 82 71
71 82 83 72
72 83 84 73
73 84 85 74
74 85 86 75
75 86 87 76
77 88 89 78
78 89 90 79
79 90 91 80
80 91 92 81
81 92 93 82
82 93 94 83
83 94 95 84
84 95 96 85
85 96 97 86
86 97 98 87
88 99 100 89
89 100 101 90
90 101 102 91
91 102 103 92
92 103 104 93
93 104 105 94
94 105 106 95
95 106 107 96
96 107 108 97
97 108 109 98
99 110 111 100
100 111 112 101
101 112 113 102
102 113 114 103
103 114 115 104
104 115 116 105
105 116 117 106
106 117 118 107
107 118 119 108
108 119 120 109
110 121 122 111
111 122 123 112
112 123 124 113
113 124 125 114
114 125 126 115
115 126 127 116
116 127 128 117
117 128 129 118
118 129 130 119
119 130 131 120
121 132 133 122
122 133 134 123
123 134 135 124
124 135 136 125
125 136 137 126
126 137 138 127
127 138 139 128
128 139 140 129
129 140 141 130
130 141 142 131
132 143 144 133
133 144 145 134
134 145 146 135
135 146 147 136
136 147 148 137
137 148 149 138
138 149 150 139
139 150 151 140
140 151 152 141
141 152 153 142
143 154 155 144
144 155 156 145
145 156 157 146
146 157 158 147
147 158 159 148
148 159 160 149
149 160 161 150
150 161 162 151
151 162 163 152
152 163 164 153
154 165 166 155
155 166 167 156
156 167 168 157
157 168 169 158
158 169 170 159
159 170 171 160
160 171 172 161
161 172 173 162
162 173 174 163
163 174 175 164
165 176 177 166
166 177 178 167
167 178 179 168
168 179 180 169
169 180 181 170
170 181 182 171
171 182 183 172
172 183 184 173
173 184 185 174
174 185 186 175
</DataArray>
<DataArray Name="offsets" type="Int32" format="ascii">
4
8
12
16
20
24
28
32
36
40
44
48
52
56
60
64
68
72
76
80
84
88
92
96
100
104
108
112
116
120
124
128
132
136
140
144
148
152
156
160
164
168
172
176
180
184
188
192
196
200
204
208
212
216
220
224
228
232
236
240
244
248
252
256
260
264
268
272
276
280
284
288
292
296
300
304
308
312
316
320
324
328
332
336
340
344
348
352
356
360
364
368
372
376
380
384
388
392
396
400
404
408
412
416
420
424
428
432
436
440
444
448
452
456
460
464
468
472
476
480
484
488
492
496
500
504
508
512
516
520
524
528
532
536
540
544
548
552
556
560
564
568
572
576
580
584
588
592
596
600
604
608
612
616
620
624
628
632
636
640
</DataArray>
<DataArray Name="types" type="UInt8" format="ascii">
9
9
9
9
9
9
9
9
9
9
9
9
9
9
9
9
9
9
9
9
9
9
9
9
9
9
9
9
9
9
9
9
9
9
9
9
9
9
9
9
9
9
9
9
9
9
9
9
9
9
9
9
9
9
9
9
9
9
9
9
9
9
9
9
9
9
9
9
9
9
9
9
9
9
9
9
9
9
9
9
9
9
9
9
9
9
9
9
9
9
9
9
9
9
9
9
9
9
9
9
9
9
9
9
9
9
9
9
9
9
9
9
9
9
9
9
9
9
9
9
9
9
9
9
9
9
9
9
9
9
9
9
9
9
9
9
9
9
9
9
9
9
9
9
9
9
9
9
9
9
9
9
9
9
9
9
9
9
9
9
</DataArray>
</Cells>
<PointData>
<DataArray Name="disp" type="Float64" NumberOfComponents="3" format="ascii">
0.000000e+00 0.000000e+00 0.000000e+00
0.000000e+00 -2.625125e-03 0.000000e+00
0.000000e+00 -6.143770e-03 0.000000e+00
0.000000e+00 -1.071357e-02 0.000000e+00
0.000000e+00 -1.667375e-02 0.000000e+00
0.000000e+00 -2.372383e-02 0.000000e+00
0.000000e+00 -3.112250e-02 0.000000e+00
0.000000e+00 -3.817182e-02 0.000000e+00
0.000000e+00 -4.346453e-02 0.000000e+00
0.000000e+00 -4.712570e-02 0.000000e+00
0.000000e+00 -5.062500e-02 0.000000e+00
0.000000e+00 0.000000e+00 0.000000e+00
1.233582e-03 -2.526860e-03 0.000000e+00
2.563605e-03 -5.972822e-03 0.000000e+00
4.115414e-03 -1.030463e-02 0.000000e+00
5.648111e-03 -1.547941e-02 0.000000e+00
6.429200e-03 -2.160583e-02 0.000000e+00
6.304418e-03 -2.826746e-02 0.000000e+00
4.917729e-03 -3.499902e-02 0.000000e+00
2.435626e-03 -4.128900e-02 0.000000e+00
4.091455e-04 -4.692268e-02 0.000000e+00
0.000000e+00 -5.062500e-02 0.000000e+00
0.000000e+00 0.000000e+00 0.000000e+00
2.505569e-03 -2.114231e-03 0.000000e+00
4.924193e-03 -4.935332e-03 0.000000e+00
7.221896e-03 -8.301166e-03 0.000000e+00
9.178072e-03 -1.203770e-02 0.000000e+00
1.061209e-02 -1.614214e-02 0.000000e+00
1.092450e-02 -2.082257e-02 0.000000e+00
1.024575e-02 -2.650347e-02 0.000000e+00
8.393303e-03 -3.370788e-02 0.000000e+00
5.539609e-03 -4.213275e-02 0.000000e+00
0.000000e+00 -5.062500e-02 0.000000e+00
0.000000e+00 0.000000e+00 0.000000e+00
3.385674e-03 -1.303367e-03 0.000000e+00
6.314230e-03 -2.785860e-03 0.000000e+00
8.818365e-03 -4.229748e-03 0.000000e+00
1.089799e-02 -5.522262e-03 0.000000e+00
1.245158e-02 -6.650290e-03 0.000000e+00
1.319285e-02 -7.553837e-03 0.000000e+00
1.326156e-02 -8.124551e-03 0.000000e+00
1.246258e-02 -8.255169e-03 0.000000e+00
1.023608e-02 -8.009493e-03 0.000000e+00
5.136061e-03 -7.542423e-03 0.000000e+00
0.000000e+00 0.000000e+00 0.000000e+00
3.664677e-03 -1.005511e-03 0.000000e+00
6.441380e-03 -1.951745e-03 0.000000e+00
8.666503e-03 -2.725067e-03 0.000000e+00
1.043403e-02 -3.301455e-03 0.000000e+00
1.167829e-02 -3.636641e-03 0.000000e+00
1.220745e-02 -3.746466e-03 0.000000e+00
1.203090e-02 -3.625507e-03 0.000000e+00
1.101715e-02 -3.254425e-03 0.000000e+00
8.770482e-03 -2.761952e-03 0.000000e+00
5.448660e-03 -2.748115e-03 0.000000e+00
0.000000e+00 0.000000e+00 0.000000e+00
3.662882e-03 -6.321279e-04 0.000000e+00
6.141391e-03 -1.156382e-03 0.000000e+00
8.067330e-03 -1.504411e-03 0.000000e+00
9.544007e-03 -1.662429e-03 0.000000e+00
1.052213e-02 -1.625294e-03 0.000000e+00
1.088298e-02 -1.388750e-03 0.000000e+00
1.059871e-02 -9.680846e-04 0.000000e+00
9.581708e-03 -4.413265e-04 0.000000e+00
7.861838e-03 -2.859760e-05 0.000000e+00
5.855977e-03 6.049973e-05 0.000000e+00
0.000000e+00 0.000000e+00 0.000000e+00
3.402437e-03 -3.702960e-04 0.000000e+00
5.585126e-03 -6.102168e-04 0.000000e+00
7.234791e-03 -6.939520e-04 0.000000e+00
8.468253e-03 -5.986947e-04 0.000000e+00
9.253920e-03 -3.234937e-04 0.000000e+00
9.503386e-03 1.077100e-04 0.000000e+00
9.195431e-03 6.369745e-04 0.000000e+00
8.374836e-03 1.165474e-03 0.000000e+00
7.195788e-03 1.532666e-03 0.000000e+00
6.000661e-03 1.635133e-03 0.000000e+00
0.000000e+00 0.000000e+00 0.000000e+00
2.998513e-03 -2.028841e-04 0.000000e+00
4.887830e-03 -2.610448e-04 0.000000e+00
6.301385e-03 -1.591786e-04 0.000000e+00
7.344413e-03 9.110871e-05 0.000000e+00
7.976386e-03 4.865951e-04 0.000000e+00
8.159119e-03 9.930377e-04 0.000000e+00
7.919207e-03 1.542968e-03 0.000000e+00
7.349357e-03 2.038675e-03 0.000000e+00
6.607973e-03 2.374410e-03 0.000000e+00
5.937299e-03 2.512124e-03 0.000000e+00
0.000000e+00 0.000000e+00 0.000000e+00
2.528041e-03 -1.004522e-04 0.000000e+00
4.137404e-03 -3.635867e-05 0.000000e+00
5.353865e-03 1.635688e-04 0.000000e+00
6.231971e-03 4.892963e-04 0.000000e+00
6.748904e-03 9.349942e-04 0.000000e+00
6.911525e-03 1.452820e-03 0.000000e+00
6.778382e-03 1.978733e-03 0.000000e+00
6.436352e-03 2.435914e-03 0.000000e+00
6.021263e-03 2.760076e-03 0.000000e+00
5.699226e-03 2.936584e-03 0.000000e+00
0.000000e+00 0.000000e+00 0.000000e+00
2.038300e-03 -4.469825e-05 0.000000e+00
3.396746e-03 7.944042e-05 0.000000e+00
4.436481e-03 3.226179e-04 0.000000e+00
5.171730e-03 6.765567e-04 0.000000e+00
5.607384e-03 1.122618e-03 0.000000e+00
5.782122e-03 1.616108e-03 0.000000e+00
5.750337e-03 2.103963e-03 0.000000e+00
5.587273e-03 2.528777e-03 0.000000e+00
5.402508e-03 2.851757e-03 0.000000e+00
5.309527e-03 3.070683e-03 0.000000e+00
0.000000e+00 0.000000e+00 0.000000e+00
1.578682e-03 -2.404813e-05 0.000000e+00
2.704413e-03 1.147436e-04 0.000000e+00
3.576631e-03 3.647917e-04 0.000000e+00
4.191620e-03 7.139765e-04 0.000000e+00
4.573694e-03 1.134594e-03 0.000000e+00
4.762353e-03 1.590721e-03 0.000000e+00
4.806891e-03 2.039166e-03 0.000000e+00
4.772665e-03 2.438016e-03 0.000000e+00
4.739110e-03 2.765964e-03 0.000000e+00
4.785156e-03 3.026554e-03 0.000000e+00
0.000000e+00 0.000000e+00 0.000000e+00
1.176456e-03 -1.832677e-05 0.000000e+00
2.084651e-03 1.062310e-04 0.000000e+00
2.795057e-03 3.367653e-04 0.000000e+00
3.305627e-03 6.583817e-04 0.000000e+00
3.640240e-03 1.043891e-03 0.000000e+00
3.833385e-03 1.459893e-03 0.000000e+00
3.927395e-03 1.871455e-03 0.000000e+00
3.974501e-03 2.251447e-03 0.000000e+00
4.029371e-03 2.587189e-03 0.000000e+00
4.148580e-03 2.884086e-03 0.000000e+00
0.000000e+00 0.000000e+00 0.000000e+00
8.482551e-04 -2.768604e-05 0.000000e+00
1.546853e-03 6.960123e-05 0.000000e+00
2.103879e-03 2.736875e-04 0.000000e+00
2.515679e-03 5.610719e-04 0.000000e+00
2.798908e-03 9.070993e-04 0.000000e+00
2.980274e-03 1.284210e-03 0.000000e+00
3.094913e-03 1.665519e-03 0.000000e+00
3.181144e-03 2.032377e-03 0.000000e+00
3.277382e-03 2.377243e-03 0.000000e+00
3.421839e-03 2.705955e-03 0.000000e+00
0.000000e+00 0.000000e+00 0.000000e+00
5.852333e-04 -4.133855e-05 0.000000e+00
1.085152e-03 2.865752e-05 0.000000e+00
1.495770e-03 2.007689e-04 0.000000e+00
1.810332e-03 4.558719e-04 0.000000e+00
2.033764e-03 7.674806e-04 0.000000e+00
2.186748e-03 1.112201e-03 0.000000e+00
2.295967e-03 1.469793e-03 0.000000e+00
2.387827e-03 1.827048e-03 0.000000e+00
2.489529e-03 2.179429e-03 0.000000e+00
2.624321e-03 2.533798e-03 0.000000e+00
0.000000e+00 0.000000e+00 0.000000e+00
3.670299e-04 -5.361304e-05 0.000000e+00
6.879391e-04 -5.067630e-06 0.000000e+00
9.565096e-04 1.404118e-04 0.000000e+00
1.169406e-03 3.684945e-04 0.000000e+00
1.325505e-03 6.543488e-04 0.000000e+00
1.435627e-03 9.759551e-04 0.000000e+00
1.519019e-03 1.316836e-03 0.000000e+00
1.593269e-03 1.667183e-03 0.000000e+00
1.674629e-03 2.024960e-03 0.000000e+00
1.775414e-03 2.397899e-03 0.000000e+00
0.000000e+00 0.000000e+00 0.000000e+00
1.784679e-04 -6.044014e-05 0.000000e+00
3.342641e-04 -2.187508e-05 0.000000e+00
4.660740e-04 1.079514e-04 0.000000e+00
5.729856e-04 3.177868e-04 0.000000e+00
6.534515e-04 5.874943e-04 0.000000e+00
7.112121e-04 8.953348e-04 0.000000e+00
7.558858e-04 1.226004e-03 0.000000e+00
7.968979e-04 1.572057e-03 0.000000e+00
8.416815e-04 1.933060e-03 0.000000e+00
8.945778e-04 2.316701e-03 0.000000e+00
0.000000e+00 0.000000e+00 0.000000e+00
0.000000e+00 -4.999365e-05 0.000000e+00
0.000000e+00 -1.206660e-05 0.000000e+00
0.000000e+00 1.124232e-04 0.000000e+00
0.000000e+00 3.160961e-04 0.000000e+00
0.000000e+00 5.793941e-04 0.000000e+00
0.000000e+00 8.815957e-04 0.000000e+00
0.000000e+00 1.208129e-03 0.000000e+00
0.000000e+00 1.551654e-03 0.000000e+00
0.000000e+00 1.912556e-03 0.000000e+00
0.000000e+00 2.298445e-03 0.000000e+00
</DataArray>
<DataArray Name="shear" type="Float64" NumberOfComponents="1" format="ascii">
1.503496e-02
2.102700e-02
3.182332e-02
4.417111e-02
5.632392e-02
6.364127e-02
6.358216e-02
5.366447e-02
3.663370e-02
2.291760e-02
1.860157e-02
1.575825e-02
2.156623e-02
3.145331e-02
4.125655e-02
5.047013e-02
5.749137e-02
6.017258e-02
5.749195e-02
4.999335e-02
3.735719e-02
2.676950e-02
1.774129e-02
2.228181e-02
2.967390e-02
3.652461e-02
4.340651e-02
5.102331e-02
5.990377e-02
7.073449e-02
8.188757e-02
8.600126e-02
8.452599e-02
1.900315e-02
2.056035e-02
2.307476e-02
2.627576e-02
3.028975e-02
3.481786e-02
4.094987e-02
4.985872e-02
6.099555e-02
7.074322e-02
7.761549e-02
1.935256e-02
1.834271e-02
1.664745e-02
1.621258e-02
1.619200e-02
1.589857e-02
1.539012e-02
1.462301e-02
1.229334e-02
6.715167e-03
1.197908e-03
1.886503e-02
1.688115e-02
1.403704e-02
1.319432e-02
1.281419e-02
1.226961e-02
1.152118e-02
1.047569e-02
8.384215e-03
4.343906e-03
1.071140e-03
1.730178e-02
1.490266e-02
1.175815e-02
1.094560e-02
1.064020e-02
1.030294e-02
9.769092e-03
8.847960e-03
7.013396e-03
3.908109e-03
1.560761e-03
1.516311e-02
1.288114e-02
1.009201e-02
9.477767e-03
9.279470e-03
9.106682e-03
8.747360e-03
7.915718e-03
6.311066e-03
3.866021e-03
2.115109e-03
1.275522e-02
1.088022e-02
8.743809e-03
8.313702e-03
8.229875e-03
8.195916e-03
7.934564e-03
7.208127e-03
5.886193e-03
4.019291e-03
2.760796e-03
1.029101e-02
8.942812e-03
7.510485e-03
7.281553e-03
7.325707e-03
7.383682e-03
7.204519e-03
6.634042e-03
5.621313e-03
4.275772e-03
3.423573e-03
7.981703e-03
7.142714e-03
6.346218e-03
6.327726e-03
6.500174e-03
6.639030e-03
6.562567e-03
6.168997e-03
5.459443e-03
4.573171e-03
4.049246e-03
5.960271e-03
5.518277e-03
5.224719e-03
5.422071e-03
5.734807e-03
5.972843e-03
6.009426e-03
5.796134e-03
5.371585e-03
4.864976e-03
4.591497e-03
4.290532e-03
4.092559e-03
4.178847e-03
4.598666e-03
5.048095e-03
5.388045e-03
5.545218e-03
5.508665e-03
5.333491e-03
5.128467e-03
5.043160e-03
2.949212e-03
2.894894e-03
3.267049e-03
3.899211e-03
4.485017e-03
4.919936e-03
5.184745e-03
5.297970e-03
5.319303e-03
5.343890e-03
5.397607e-03
1.846659e-03
1.904887e-03
2.539030e-03
3.357706e-03
4.067433e-03
4.587112e-03
4.934362e-03
5.155772e-03
5.315919e-03
5.499582e-03
5.646696e-03
9.038133e-04
1.134718e-03
2.064060e-03
3.013225e-03
3.804352e-03
4.386586e-03
4.786492e-03
5.071548e-03
5.315036e-03
5.590424e-03
5.787503e-03
3.130061e-04
8.034720e-04
1.900573e-03
2.892970e-03
3.710347e-03
4.315034e-03
4.734947e-03
5.041623e-03
5.312480e-03
5.617184e-03
5.828861e-03
</DataArray>
<DataArray Name="stress" type="Float64" NumberOfComponents="9" format="ascii">
-1.111236e+05 4.731906e+03 0.000000e+00 4.731906e+03 -1.848582e+05 0.000000e+00 0.000000e+00 0.000000e+00 0.000000e+00
-9.859801e+04 3.769311e+03 0.000000e+00 3.769311e+03 -1.833128e+05 0.000000e+00 0.000000e+00 0.000000e+00 0.000000e+00
-9.189954e+04 2.758522e+03 0.000000e+00 2.758522e+03 -1.927195e+05 0.000000e+00 0.000000e+00 0.000000e+00 0.000000e+00
-9.586014e+04 2.355781e+03 0.000000e+00 2.355781e+03 -1.996983e+05 0.000000e+00 0.000000e+00 0.000000e+00 0.000000e+00
-1.072809e+05 3.429491e+03 0.000000e+00 3.429491e+03 -2.012267e+05 0.000000e+00 0.000000e+00 0.000000e+00 0.000000e+00
-1.125895e+05 6.339622e+03 0.000000e+00 6.339622e+03 -2.113678e+05 0.000000e+00 0.000000e+00 0.000000e+00 0.000000e+00
-1.199363e+05 8.919203e+03 0.000000e+00 8.919203e+03 -2.225801e+05 0.000000e+00 0.000000e+00 0.000000e+00 0.000000e+00
-1.221087e+05 8.675204e+03 0.000000e+00 8.675204e+03 -2.350200e+05 0.000000e+00 0.000000e+00 0.000000e+00 0.000000e+00
-1.218988e+05 5.789661e+03 0.000000e+00 5.789661e+03 -2.484467e+05 0.000000e+00 0.000000e+00 0.000000e+00 0.000000e+00
-1.397840e+05 2.418029e+02 0.000000e+00 2.418029e+02 -2.521161e+05 0.000000e+00 0.000000e+00 0.000000e+00 0.000000e+00
-1.466162e+05 -4.956827e+02 0.000000e+00 -4.956827e+02 -2.481900e+05 0.000000e+00 0.000000e+00 0.000000e+00 0.000000e+00
-1.099081e+05 1.379650e+04 0.000000e+00 1.379650e+04 -1.768316e+05 0.000000e+00 0.000000e+00 0.000000e+00 0.000000e+00
-9.785825e+04 1.173940e+04 0.000000e+00 1.173940e+04 -1.748980e+05 0.000000e+00 0.000000e+00 0.000000e+00 0.000000e+00
-9.259859e+04 1.008928e+04 0.000000e+00 1.008928e+04 -1.842352e+05 0.000000e+00 0.000000e+00 0.000000e+00 0.000000e+00
-9.510423e+04 1.051741e+04 0.000000e+00 1.051741e+04 -1.936053e+05 0.000000e+00 0.000000e+00 0.000000e+00 0.000000e+00
-1.042015e+05 1.202098e+04 0.000000e+00 1.202098e+04 -2.045090e+05 0.000000e+00 0.000000e+00 0.000000e+00 0.000000e+00
-1.119733e+05 1.345681e+04 0.000000e+00 1.345681e+04 -2.157969e+05 0.000000e+00 0.000000e+00 0.000000e+00 0.000000e+00
-1.186269e+05 1.379421e+04 0.000000e+00 1.379421e+04 -2.268470e+05 0.000000e+00 0.000000e+00 0.000000e+00 0.000000e+00
-1.214645e+05 1.105712e+04 0.000000e+00 1.105712e+04 -2.366329e+05 0.000000e+00 0.000000e+00 0.000000e+00 0.000000e+00
-1.247121e+05 7.086837e+03 0.000000e+00 7.086837e+03 -2.473551e+05 0.000000e+00 0.000000e+00 0.000000e+00 0.000000e+00
-1.336833e+05 8.471351e+02 0.000000e+00 8.471351e+02 -2.504699e+05 0.000000e+00 0.000000e+00 0.000000e+00 0.000000e+00
-1.497272e+05 -5.563340e+03 0.000000e+00 -5.563340e+03 -2.736951e+05 0.000000e+00 0.000000e+00 0.000000e+00 0.000000e+00
-1.052276e+05 2.372952e+04 0.000000e+00 2.372952e+04 -1.540698e+05 0.000000e+00 0.000000e+00 0.000000e+00 0.000000e+00
-9.563479e+04 2.115474e+04 0.000000e+00 2.115474e+04 -1.508860e+05 0.000000e+00 0.000000e+00 0.000000e+00 0.000000e+00
-9.402925e+04 2.062599e+04 0.000000e+00 2.062599e+04 -1.578108e+05 0.000000e+00 0.000000e+00 0.000000e+00 0.000000e+00
-9.907320e+04 2.302316e+04 0.000000e+00 2.302316e+04 -1.670494e+05 0.000000e+00 0.000000e+00 0.000000e+00 0.000000e+00
-1.080289e+05 2.628659e+04 0.000000e+00 2.628659e+04 -1.777410e+05 0.000000e+00 0.000000e+00 0.000000e+00 0.000000e+00
-1.157108e+05 2.815196e+04 0.000000e+00 2.815196e+04 -1.868514e+05 0.000000e+00 0.000000e+00 0.000000e+00 0.000000e+00
-1.235339e+05 3.055801e+04 0.000000e+00 3.055801e+04 -1.991178e+05 0.000000e+00 0.000000e+00 0.000000e+00 0.000000e+00
-1.328020e+05 3.101010e+04 0.000000e+00 3.101010e+04 -2.138541e+05 0.000000e+00 0.000000e+00 0.000000e+00 0.000000e+00
-1.458334e+05 3.107986e+04 0.000000e+00 3.107986e+04 -2.278832e+05 0.000000e+00 0.000000e+00 0.000000e+00 0.000000e+00
-1.551525e+05 2.423924e+04 0.000000e+00 2.423924e+04 -2.463420e+05 0.000000e+00 0.000000e+00 0.000000e+00 0.000000e+00
-1.710141e+05 9.838921e+03 0.000000e+00 9.838921e+03 -2.837250e+05 0.000000e+00 0.000000e+00 0.000000e+00 0.000000e+00
-9.697719e+04 2.610673e+04 0.000000e+00 2.610673e+04 -1.255734e+05 0.000000e+00 0.000000e+00 0.000000e+00 0.000000e+00
-9.085966e+04 2.446193e+04 0.000000e+00 2.446193e+04 -1.224397e+05 0.000000e+00 0.000000e+00 0.000000e+00 0.000000e+00
-9.120118e+04 2.464731e+04 0.000000e+00 2.464731e+04 -1.236518e+05 0.000000e+00 0.000000e+00 0.000000e+00 0.000000e+00
-9.631355e+04 2.654049e+04 0.000000e+00 2.654049e+04 -1.240800e+05 0.000000e+00 0.000000e+00 0.000000e+00 0.000000e+00
-1.029395e+05 2.831749e+04 0.000000e+00 2.831749e+04 -1.230099e+05 0.000000e+00 0.000000e+00 0.000000e+00 0.000000e+00
-1.081172e+05 2.944145e+04 0.000000e+00 2.944145e+04 -1.206937e+05 0.000000e+00 0.000000e+00 0.000000e+00 0.000000e+00
-1.098406e+05 3.002530e+04 0.000000e+00 3.002530e+04 -1.158426e+05 0.000000e+00 0.000000e+00 0.000000e+00 0.000000e+00
-1.079143e+05 2.852061e+04 0.000000e+00 2.852061e+04 -1.077186e+05 0.000000e+00 0.000000e+00 0.000000e+00 0.000000e+00
-1.028280e+05 2.429769e+04 0.000000e+00 2.429769e+04 -9.597447e+04 0.000000e+00 0.000000e+00 0.000000e+00 0.000000e+00
-8.968458e+04 1.610720e+04 0.000000e+00 1.610720e+04 -8.125393e+04 0.000000e+00 0.000000e+00 0.000000e+00 0.000000e+00
-6.660547e+04 1.004354e+04 0.000000e+00 1.004354e+04 -6.780977e+04 0.000000e+00 0.000000e+00 0.000000e+00 0.000000e+00
-9.292148e+04 2.584677e+04 0.000000e+00 2.584677e+04 -1.108292e+05 0.000000e+00 0.000000e+00 0.000000e+00 0.000000e+00
-9.081591e+04 2.500263e+04 0.000000e+00 2.500263e+04 -1.093700e+05 0.000000e+00 0.000000e+00 0.000000e+00 0.000000e+00
-9.414398e+04 2.519103e+04 0.000000e+00 2.519103e+04 -1.092656e+05 0.000000e+00 0.000000e+00 0.000000e+00 0.000000e+00
-1.008043e+05 2.607165e+04 0.000000e+00 2.607165e+04 -1.078057e+05 0.000000e+00 0.000000e+00 0.000000e+00 0.000000e+00
-1.076502e+05 2.654452e+04 0.000000e+00 2.654452e+04 -1.048669e+05 0.000000e+00 0.000000e+00 0.000000e+00 0.000000e+00
-1.130150e+05 2.585018e+04 0.000000e+00 2.585018e+04 -1.002985e+05 0.000000e+00 0.000000e+00 0.000000e+00 0.000000e+00
-1.150987e+05 2.383636e+04 0.000000e+00 2.383636e+04 -9.372850e+04 0.000000e+00 0.000000e+00 0.000000e+00 0.000000e+00
-1.146760e+05 2.058448e+04 0.000000e+00 2.058448e+04 -8.576072e+04 0.000000e+00 0.000000e+00 0.000000e+00 0.000000e+00
-1.107538e+05 1.499090e+04 0.000000e+00 1.499090e+04 -7.664530e+04 0.000000e+00 0.000000e+00 0.000000e+00 0.000000e+00
-9.518891e+04 5.934262e+03 0.000000e+00 5.934262e+03 -6.847565e+04 0.000000e+00 0.000000e+00 0.000000e+00 0.000000e+00
-6.296263e+04 6.015289e+01 0.000000e+00 6.015289e+01 -5.688286e+04 0.000000e+00 0.000000e+00 0.000000e+00 0.000000e+00
-8.756165e+04 2.454441e+04 0.000000e+00 2.454441e+04 -9.783439e+04 0.000000e+00 0.000000e+00 0.000000e+00 0.000000e+00
-8.933198e+04 2.403644e+04 0.000000e+00 2.403644e+04 -9.748268e+04 0.000000e+00 0.000000e+00 0.000000e+00 0.000000e+00
-9.458987e+04 2.345741e+04 0.000000e+00 2.345741e+04 -9.592930e+04 0.000000e+00 0.000000e+00 0.000000e+00 0.000000e+00
-1.013828e+05 2.317877e+04 0.000000e+00 2.317877e+04 -9.311830e+04 0.000000e+00 0.000000e+00 0.000000e+00 0.000000e+00
-1.072958e+05 2.214126e+04 0.000000e+00 2.214126e+04 -8.938274e+04 0.000000e+00 0.000000e+00 0.000000e+00 0.000000e+00
-1.112510e+05 1.986110e+04 0.000000e+00 1.986110e+04 -8.461658e+04 0.000000e+00 0.000000e+00 0.000000e+00 0.000000e+00
-1.119770e+05 1.646854e+04 0.000000e+00 1.646854e+04 -7.883641e+04 0.000000e+00 0.000000e+00 0.000000e+00 0.000000e+00
-1.098269e+05 1.197757e+04 0.000000e+00 1.197757e+04 -7.266528e+04 0.000000e+00 0.000000e+00 0.000000e+00 0.000000e+00
-1.032808e+05 5.851906e+03 0.000000e+00 5.851906e+03 -6.686220e+04 0.000000e+00 0.000000e+00 0.000000e+00 0.000000e+00
-8.555905e+04 -3.016118e+02 0.000000e+00 -3.016118e+02 -6.227675e+04 0.000000e+00 0.000000e+00 0.000000e+00 0.000000e+00
-6.164847e+04 -2.418683e+03 0.000000e+00 -2.418683e+03 -5.692327e+04 0.000000e+00 0.000000e+00 0.000000e+00 0.000000e+00
-8.237509e+04 2.271390e+04 0.000000e+00 2.271390e+04 -8.718827e+04 0.000000e+00 0.000000e+00 0.000000e+00 0.000000e+00
-8.757252e+04 2.228821e+04 0.000000e+00 2.228821e+04 -8.772574e+04 0.000000e+00 0.000000e+00 0.000000e+00 0.000000e+00
-9.419332e+04 2.090358e+04 0.000000e+00 2.090358e+04 -8.544733e+04 0.000000e+00 0.000000e+00 0.000000e+00 0.000000e+00
-1.004035e+05 1.962155e+04 0.000000e+00 1.962155e+04 -8.255173e+04 0.000000e+00 0.000000e+00 0.000000e+00 0.000000e+00
-1.050702e+05 1.750573e+04 0.000000e+00 1.750573e+04 -7.884306e+04 0.000000e+00 0.000000e+00 0.000000e+00 0.000000e+00
-1.077208e+05 1.442250e+04 0.000000e+00 1.442250e+04 -7.471744e+04 0.000000e+00 0.000000e+00 0.000000e+00 0.000000e+00
-1.075775e+05 1.055479e+04 0.000000e+00 1.055479e+04 -7.037131e+04 0.000000e+00 0.000000e+00 0.000000e+00 0.000000e+00
-1.042974e+05 5.924993e+03 0.000000e+00 5.924993e+03 -6.612644e+04 0.000000e+00 0.000000e+00 0.000000e+00 0.000000e+00
-9.658655e+04 8.768297e+02 0.000000e+00 8.768297e+02 -6.256139e+04 0.000000e+00 0.000000e+00 0.000000e+00 0.000000e+00
-8.215444e+04 -2.250364e+03 0.000000e+00 -2.250364e+03 -6.034702e+04 0.000000e+00 0.000000e+00 0.000000e+00 0.000000e+00
-6.655570e+04 -2.705869e+03 0.000000e+00 -2.705869e+03 -5.771039e+04 0.000000e+00 0.000000e+00 0.000000e+00 0.000000e+00
-7.811260e+04 2.065840e+04 0.000000e+00 2.065840e+04 -7.918248e+04 0.000000e+00 0.000000e+00 0.000000e+00 0.000000e+00
-8.541677e+04 2.021143e+04 0.000000e+00 2.021143e+04 -8.011572e+04 0.000000e+00 0.000000e+00 0.000000e+00 0.000000e+00
-9.269143e+04 1.819051e+04 0.000000e+00 1.819051e+04 -7.769449e+04 0.000000e+00 0.000000e+00 0.000000e+00 0.000000e+00
-9.825309e+04 1.606121e+04 0.000000e+00 1.606121e+04 -7.487663e+04 0.000000e+00 0.000000e+00 0.000000e+00 0.000000e+00
-1.020701e+05 1.344993e+04 0.000000e+00 1.344993e+04 -7.176815e+04 0.000000e+00 0.000000e+00 0.000000e+00 0.000000e+00
-1.038294e+05 1.018596e+04 0.000000e+00 1.018596e+04 -6.860966e+04 0.000000e+00 0.000000e+00 0.000000e+00 0.000000e+00
-1.030225e+05 6.297357e+03 0.000000e+00 6.297357e+03 -6.544042e+04 0.000000e+00 0.000000e+00 0.000000e+00 0.000000e+00
-9.917923e+04 2.124336e+03 0.000000e+00 2.124336e+03 -6.260704e+04 0.000000e+00 0.000000e+00 0.000000e+00 0.000000e+00
-9.222395e+04 -1.456895e+03 0.000000e+00 -1.456895e+03 -6.065632e+04 0.000000e+00 0.000000e+00 0.000000e+00 0.000000e+00
-8.171634e+04 -2.706498e+03 0.000000e+00 -2.706498e+03 -5.979471e+04 0.000000e+00 0.000000e+00 0.000000e+00 0.000000e+00
-7.164986e+04 -2.339040e+03 0.000000e+00 -2.339040e+03 -5.832556e+04 0.000000e+00 0.000000e+00 0.000000e+00 0.000000e+00
-7.453148e+04 1.849549e+04 0.000000e+00 1.849549e+04 -7.336434e+04 0.000000e+00 0.000000e+00 0.000000e+00 0.000000e+00
-8.291064e+04 1.799055e+04 0.000000e+00 1.799055e+04 -7.442870e+04 0.000000e+00 0.000000e+00 0.000000e+00 0.000000e+00
-9.039352e+04 1.553447e+04 0.000000e+00 1.553447e+04 -7.206118e+04 0.000000e+00 0.000000e+00 0.000000e+00 0.000000e+00
-9.563417e+04 1.304076e+04 0.000000e+00 1.304076e+04 -6.957894e+04 0.000000e+00 0.000000e+00 0.000000e+00 0.000000e+00
-9.881855e+04 1.025926e+04 0.000000e+00 1.025926e+04 -6.714866e+04 0.000000e+00 0.000000e+00 0.000000e+00 0.000000e+00
-9.991235e+04 6.979775e+03 0.000000e+00 6.979775e+03 -6.472361e+04 0.000000e+00 0.000000e+00 0.000000e+00 0.000000e+00
-9.873644e+04 3.385403e+03 0.000000e+00 3.385403e+03 -6.246040e+04 0.000000e+00 0.000000e+00 0.000000e+00 0.000000e+00
-9.517108e+04 -1.773324e+01 0.000000e+00 -1.773324e+01 -6.072971e+04 0.000000e+00 0.000000e+00 0.000000e+00 0.000000e+00
-8.975022e+04 -2.362498e+03 0.000000e+00 -2.362498e+03 -5.982896e+04 0.000000e+00 0.000000e+00 0.000000e+00 0.000000e+00
-8.256708e+04 -2.585029e+03 0.000000e+00 -2.585029e+03 -5.964416e+04 0.000000e+00 0.000000e+00 0.000000e+00 0.000000e+00
-7.623061e+04 -1.889920e+03 0.000000e+00 -1.889920e+03 -5.876953e+04 0.000000e+00 0.000000e+00 0.000000e+00 0.000000e+00
-7.146833e+04 1.643219e+04 0.000000e+00 1.643219e+04 -6.921483e+04 0.000000e+00 0.000000e+00 0.000000e+00 0.000000e+00
-8.018706e+04 1.582650e+04 0.000000e+00 1.582650e+04 -7.030480e+04 0.000000e+00 0.000000e+00 0.000000e+00 0.000000e+00
-8.775636e+04 1.318880e+04 0.000000e+00 1.318880e+04 -6.807316e+04 0.000000e+00 0.000000e+00 0.000000e+00 0.000000e+00
-9.273722e+04 1.058768e+04 0.000000e+00 1.058768e+04 -6.602209e+04 0.000000e+00 0.000000e+00 0.000000e+00 0.000000e+00
-9.549554e+04 7.746966e+03 0.000000e+00 7.746966e+03 -6.408707e+04 0.000000e+00 0.000000e+00 0.000000e+00 0.000000e+00
-9.623977e+04 4.644103e+03 0.000000e+00 4.644103e+03 -6.224853e+04 0.000000e+00 0.000000e+00 0.000000e+00 0.000000e+00
-9.505636e+04 1.529366e+03 0.000000e+00 1.529366e+03 -6.071984e+04 0.000000e+00 0.000000e+00 0.000000e+00 0.000000e+00
-9.226350e+04 -1.077928e+03 0.000000e+00 -1.077928e+03 -5.977691e+04 0.000000e+00 0.000000e+00 0.000000e+00 0.000000e+00
-8.849616e+04 -2.525269e+03 0.000000e+00 -2.525269e+03 -5.948180e+04 0.000000e+00 0.000000e+00 0.000000e+00 0.000000e+00
-8.389062e+04 -2.251312e+03 0.000000e+00 -2.251312e+03 -5.961663e+04 0.000000e+00 0.000000e+00 0.000000e+00 0.000000e+00
-8.005077e+04 -1.478445e+03 0.000000e+00 -1.478445e+03 -5.915038e+04 0.000000e+00 0.000000e+00 0.000000e+00 0.000000e+00
-6.885241e+04 1.437367e+04 0.000000e+00 1.437367e+04 -6.650020e+04 0.000000e+00 0.000000e+00 0.000000e+00 0.000000e+00
-7.746742e+04 1.371079e+04 0.000000e+00 1.371079e+04 -6.737307e+04 0.000000e+00 0.000000e+00 0.000000e+00 0.000000e+00
-8.502180e+04 1.114249e+04 0.000000e+00 1.114249e+04 -6.529103e+04 0.000000e+00 0.000000e+00 0.000000e+00 0.000000e+00
-8.976885e+04 8.570390e+03 0.000000e+00 8.570390e+03 -6.361216e+04 0.000000e+00 0.000000e+00 0.000000e+00 0.000000e+00
-9.228103e+04 5.834760e+03 0.000000e+00 5.834760e+03 -6.207237e+04 0.000000e+00 0.000000e+00 0.000000e+00 0.000000e+00
-9.293214e+04 3.011391e+03 0.000000e+00 3.011391e+03 -6.072465e+04 0.000000e+00 0.000000e+00 0.000000e+00 0.000000e+00
-9.208198e+04 4.331388e+02 0.000000e+00 4.331388e+02 -5.976751e+04 0.000000e+00 0.000000e+00 0.000000e+00 0.000000e+00
-9.026399e+04 -1.469656e+03 0.000000e+00 -1.469656e+03 -5.933251e+04 0.000000e+00 0.000000e+00 0.000000e+00 0.000000e+00
-8.795188e+04 -2.330342e+03 0.000000e+00 -2.330342e+03 -5.936436e+04 0.000000e+00 0.000000e+00 0.000000e+00 0.000000e+00
-8.528001e+04 -1.855816e+03 0.000000e+00 -1.855816e+03 -5.962958e+04 0.000000e+00 0.000000e+00 0.000000e+00 0.000000e+00
-8.316782e+04 -1.135278e+03 0.000000e+00 -1.135278e+03 -5.946194e+04 0.000000e+00 0.000000e+00 0.000000e+00 0.000000e+00
-6.710000e+04 1.226835e+04 0.000000e+00 1.226835e+04 -6.489607e+04 0.000000e+00 0.000000e+00 0.000000e+00 0.000000e+00
-7.501655e+04 1.159450e+04 0.000000e+00 1.159450e+04 -6.541490e+04 0.000000e+00 0.000000e+00 0.000000e+00 0.000000e+00
-8.239570e+04 9.312774e+03 0.000000e+00 9.312774e+03 -6.352446e+04 0.000000e+00 0.000000e+00 0.000000e+00 0.000000e+00
-8.694228e+04 6.897049e+03 0.000000e+00 6.897049e+03 -6.206256e+04 0.000000e+00 0.000000e+00 0.000000e+00 0.000000e+00
-8.930746e+04 4.362088e+03 0.000000e+00 4.362088e+03 -6.079270e+04 0.000000e+00 0.000000e+00 0.000000e+00 0.000000e+00
-9.008488e+04 1.918452e+03 0.000000e+00 1.918452e+03 -5.983012e+04 0.000000e+00 0.000000e+00 0.000000e+00 0.000000e+00
-8.981239e+04 -1.229695e+02 0.000000e+00 -1.229695e+02 -5.927335e+04 0.000000e+00 0.000000e+00 0.000000e+00 0.000000e+00
-8.893407e+04 -1.483996e+03 0.000000e+00 -1.483996e+03 -5.915148e+04 0.000000e+00 0.000000e+00 0.000000e+00 0.000000e+00
-8.778466e+04 -1.978451e+03 0.000000e+00 -1.978451e+03 -5.935782e+04 0.000000e+00 0.000000e+00 0.000000e+00 0.000000e+00
-8.655279e+04 -1.469612e+03 0.000000e+00 -1.469612e+03 -5.966808e+04 0.000000e+00 0.000000e+00 0.000000e+00 0.000000e+00
-8.565734e+04 -8.502341e+02 0.000000e+00 -8.502341e+02 -5.969547e+04 0.000000e+00 0.000000e+00 0.000000e+00 0.000000e+00
-6.598576e+04 1.015578e+04 0.000000e+00 1.015578e+04 -6.426073e+04 0.000000e+00 0.000000e+00 0.000000e+00 0.000000e+00
-7.297386e+04 9.524070e+03 0.000000e+00 9.524070e+03 -6.435065e+04 0.000000e+00 0.000000e+00 0.000000e+00 0.000000e+00
-7.996569e+04 7.572668e+03 0.000000e+00 7.572668e+03 -6.255605e+04 0.000000e+00 0.000000e+00 0.000000e+00 0.000000e+00
-8.428981e+04 5.405506e+03 0.000000e+00 5.405506e+03 -6.114377e+04 0.000000e+00 0.000000e+00 0.000000e+00 0.000000e+00
-8.670902e+04 3.210469e+03 0.000000e+00 3.210469e+03 -6.002203e+04 0.000000e+00 0.000000e+00 0.000000e+00 0.000000e+00
-8.780095e+04 1.218371e+03 0.000000e+00 1.218371e+03 -5.930619e+04 0.000000e+00 0.000000e+00 0.000000e+00 0.000000e+00
-8.813418e+04 -3.309372e+02 0.000000e+00 -3.309372e+02 -5.901187e+04 0.000000e+00 0.000000e+00 0.000000e+00 0.000000e+00
-8.805027e+04 -1.288787e+03 0.000000e+00 -1.288787e+03 -5.908223e+04 0.000000e+00 0.000000e+00 0.000000e+00 0.000000e+00
-8.780814e+04 -1.562261e+03 0.000000e+00 -1.562261e+03 -5.938486e+04 0.000000e+00 0.000000e+00 0.000000e+00 0.000000e+00
-8.760745e+04 -1.103287e+03 0.000000e+00 -1.103287e+03 -5.970416e+04 0.000000e+00 0.000000e+00 0.000000e+00 0.000000e+00
-8.756114e+04 -6.015691e+02 0.000000e+00 -6.015691e+02 -5.987161e+04 0.000000e+00 0.000000e+00 0.000000e+00 0.000000e+00
-6.519427e+04 7.815269e+03 0.000000e+00 7.815269e+03 -6.424204e+04 0.000000e+00 0.000000e+00 0.000000e+00 0.000000e+00
-7.130955e+04 7.287820e+03 0.000000e+00 7.287820e+03 -6.397116e+04 0.000000e+00 0.000000e+00 0.000000e+00 0.000000e+00
-7.786499e+04 5.761127e+03 0.000000e+00 5.761127e+03 -6.212069e+04 0.000000e+00 0.000000e+00 0.000000e+00 0.000000e+00
-8.204395e+04 3.996575e+03 0.000000e+00 3.996575e+03 -6.068204e+04 0.000000e+00 0.000000e+00 0.000000e+00 0.000000e+00
-8.457918e+04 2.252375e+03 0.000000e+00 2.252375e+03 -5.966484e+04 0.000000e+00 0.000000e+00 0.000000e+00 0.000000e+00
-8.605934e+04 7.591127e+02 0.000000e+00 7.591127e+02 -5.909863e+04 0.000000e+00 0.000000e+00 0.000000e+00 0.000000e+00
-8.692635e+04 -3.444150e+02 0.000000e+00 -3.444150e+02 -5.894888e+04 0.000000e+00 0.000000e+00 0.000000e+00 0.000000e+00
-8.747893e+04 -9.911169e+02 0.000000e+00 -9.911169e+02 -5.910525e+04 0.000000e+00 0.000000e+00 0.000000e+00 0.000000e+00
-8.792036e+04 -1.135223e+03 0.000000e+00 -1.135223e+03 -5.942952e+04 0.000000e+00 0.000000e+00 0.000000e+00 0.000000e+00
-8.842205e+04 -7.703436e+02 0.000000e+00 -7.703436e+02 -5.974102e+04 0.000000e+00 0.000000e+00 0.000000e+00 0.000000e+00
-8.893446e+04 -3.976770e+02 0.000000e+00 -3.976770e+02 -6.000590e+04 0.000000e+00 0.000000e+00 0.000000e+00 0.000000e+00
-6.469715e+04 5.302577e+03 0.000000e+00 5.302577e+03 -6.435160e+04 0.000000e+00 0.000000e+00 0.000000e+00 0.000000e+00
-7.010273e+04 4.915354e+03 0.000000e+00 4.915354e+03 -6.388573e+04 0.000000e+00 0.000000e+00 0.000000e+00 0.000000e+00
-7.624887e+04 3.846247e+03 0.000000e+00 3.846247e+03 -6.191708e+04 0.000000e+00 0.000000e+00 0.000000e+00 0.000000e+00
-8.034557e+04 2.618149e+03 0.000000e+00 2.618149e+03 -6.047278e+04 0.000000e+00 0.000000e+00 0.000000e+00 0.000000e+00
-8.302138e+04 1.435353e+03 0.000000e+00 1.435353e+03 -5.954419e+04 0.000000e+00 0.000000e+00 0.000000e+00 0.000000e+00
-8.483801e+04 4.477347e+02 0.000000e+00 4.477347e+02 -5.906915e+04 0.000000e+00 0.000000e+00 0.000000e+00 0.000000e+00
-8.612187e+04 -2.657023e+02 0.000000e+00 -2.657023e+02 -5.899259e+04 0.000000e+00 0.000000e+00 0.000000e+00 0.000000e+00
-8.712453e+04 -6.616698e+02 0.000000e+00 -6.616698e+02 -5.918512e+04 0.000000e+00 0.000000e+00 0.000000e+00 0.000000e+00
-8.804402e+04 -7.285288e+02 0.000000e+00 -7.285288e+02 -5.949357e+04 0.000000e+00 0.000000e+00 0.000000e+00 0.000000e+00
-8.899355e+04 -4.762223e+02 0.000000e+00 -4.762223e+02 -5.978062e+04 0.000000e+00 0.000000e+00 0.000000e+00 0.000000e+00
-8.984141e+04 -2.283799e+02 0.000000e+00 -2.283799e+02 -6.009449e+04 0.000000e+00 0.000000e+00 0.000000e+00 0.000000e+00
-6.437410e+04 2.570769e+03 0.000000e+00 2.570769e+03 -6.435781e+04 0.000000e+00 0.000000e+00 0.000000e+00 0.000000e+00
-6.937714e+04 2.403559e+03 0.000000e+00 2.403559e+03 -6.379708e+04 0.000000e+00 0.000000e+00 0.000000e+00 0.000000e+00
-7.524025e+04 1.895641e+03 0.000000e+00 1.895641e+03 -6.181699e+04 0.000000e+00 0.000000e+00 0.000000e+00 0.000000e+00
-7.931961e+04 1.290435e+03 0.000000e+00 1.290435e+03 -6.040421e+04 0.000000e+00 0.000000e+00 0.000000e+00 0.000000e+00
-8.209098e+04 6.983998e+02 0.000000e+00 6.983998e+02 -5.952262e+04 0.000000e+00 0.000000e+00 0.000000e+00 0.000000e+00
-8.411180e+04 2.109737e+02 0.000000e+00 2.109737e+02 -5.910221e+04 0.000000e+00 0.000000e+00 0.000000e+00 0.000000e+00
-8.565684e+04 -1.429782e+02 0.000000e+00 -1.429782e+02 -5.905935e+04 0.000000e+00 0.000000e+00 0.000000e+00 0.000000e+00
-8.693259e+04 -3.299096e+02 0.000000e+00 -3.299096e+02 -5.926046e+04 0.000000e+00 0.000000e+00 0.000000e+00 0.000000e+00
-8.813312e+04 -3.543254e+02 0.000000e+00 -3.543254e+02 -5.955911e+04 0.000000e+00 0.000000e+00 0.000000e+00 0.000000e+00
-8.932487e+04 -2.237866e+02 0.000000e+00 -2.237866e+02 -5.982580e+04 0.000000e+00 0.000000e+00 0.000000e+00 0.000000e+00
-9.033497e+04 -9.812198e+01 0.000000e+00 -9.812198e+01 -6.014881e+04 0.000000e+00 0.000000e+00 0.000000e+00 0.000000e+00
-6.415511e+04 6.299134e+02 0.000000e+00 6.299134e+02 -6.407534e+04 0.000000e+00 0.000000e+00 0.000000e+00 0.000000e+00
-6.910247e+04 6.664060e+02 0.000000e+00 6.664060e+02 -6.359954e+04 0.000000e+00 0.000000e+00 0.000000e+00 0.000000e+00
-7.489949e+04 5.467198e+02 0.000000e+00 5.467198e+02 -6.177279e+04 0.000000e+00 0.000000e+00 0.000000e+00 0.000000e+00
-7.897849e+04 3.394397e+02 0.000000e+00 3.394397e+02 -6.039045e+04 0.000000e+00 0.000000e+00 0.000000e+00 0.000000e+00
-8.178377e+04 1.156602e+02 0.000000e+00 1.156602e+02 -5.952468e+04 0.000000e+00 0.000000e+00 0.000000e+00 0.000000e+00
-8.388248e+04 -6.155384e+01 0.000000e+00 -6.155384e+01 -5.912680e+04 0.000000e+00 0.000000e+00 0.000000e+00 0.000000e+00
-8.551152e+04 -1.948832e+02 0.000000e+00 -1.948832e+02 -5.909700e+04 0.000000e+00 0.000000e+00 0.000000e+00 0.000000e+00
-8.687724e+04 -2.672783e+02 0.000000e+00 -2.672783e+02 -5.929983e+04 0.000000e+00 0.000000e+00 0.000000e+00 0.000000e+00
-8.817324e+04 -2.790101e+02 0.000000e+00 -2.790101e+02 -5.959610e+04 0.000000e+00 0.000000e+00 0.000000e+00 0.000000e+00
-8.944052e+04 -2.213588e+02 0.000000e+00 -2.213588e+02 -5.985538e+04 0.000000e+00 0.000000e+00 0.000000e+00 0.000000e+00
-9.049576e+04 -1.631408e+02 0.000000e+00 -1.631408e+02 -6.017329e+04 0.000000e+00 0.000000e+00 0.000000e+00 0.000000e+00
</DataArray>
<DataArray Name="vol_eps" type="Float64" NumberOfComponents="1" format="ascii">
-1.121786e-02
-9.795869e-03
-8.671804e-03
-7.689504e-03
-7.337340e-03
-7.807938e-03
-9.106612e-03
-1.104654e-02
-1.403654e-02
-1.688791e-02
-1.738527e-02
-1.059496e-02
-9.166595e-03
-8.274106e-03
-7.709474e-03
-7.962239e-03
-8.600043e-03
-9.494372e-03
-1.044693e-02
-1.224267e-02
-1.457035e-02
-1.844631e-02
-8.708347e-03
-7.415669e-03
-6.904561e-03
-6.980022e-03
-7.469542e-03
-7.850450e-03
-8.307925e-03
-8.773396e-03
-9.296454e-03
-1.055263e-02
-1.409002e-02
-6.122372e-03
-5.304459e-03
-5.087791e-03
-5.093613e-03
-5.098578e-03
-4.892313e-03
-3.895572e-03
-2.129912e-03
3.121156e-04
3.698078e-03
7.373693e-03
-4.780115e-03
-4.584543e-03
-4.934545e-03
-5.345984e-03
-5.648402e-03
-5.748046e-03
-5.470409e-03
-4.918026e-03
-4.141096e-03
-2.732361e-03
1.147026e-04
-3.461316e-03
-3.725433e-03
-4.237437e-03
-4.610940e-03
-4.813070e-03
-4.794496e-03
-4.474122e-03
-3.947716e-03
-3.201034e-03
-1.777189e-03
1.488515e-04
-2.429396e-03
-3.070865e-03
-3.664585e-03
-3.968656e-03
-4.050632e-03
-3.956313e-03
-3.675209e-03
-3.216279e-03
-2.519075e-03
-1.436118e-03
-2.435341e-04
-1.719841e-03
-2.544869e-03
-3.132404e-03
-3.360417e-03
-3.408362e-03
-3.323039e-03
-3.085595e-03
-2.676345e-03
-2.118714e-03
-1.369899e-03
-6.157022e-04
-1.254139e-03
-2.116505e-03
-2.654589e-03
-2.862727e-03
-2.916183e-03
-2.839835e-03
-2.630110e-03
-2.304056e-03
-1.906905e-03
-1.415552e-03
-9.371474e-04
-9.566896e-04
-1.775447e-03
-2.255739e-03
-2.465993e-03
-2.524289e-03
-2.455981e-03
-2.286309e-03
-2.060749e-03
-1.803306e-03
-1.502029e-03
-1.212925e-03
-7.713384e-04
-1.496155e-03
-1.926719e-03
-2.138858e-03
-2.200068e-03
-2.151778e-03
-2.040745e-03
-1.907594e-03
-1.759891e-03
-1.596961e-03
-1.442960e-03
-6.453178e-04
-1.258126e-03
-1.654669e-03
-1.862056e-03
-1.929946e-03
-1.916406e-03
-1.868540e-03
-1.810405e-03
-1.748485e-03
-1.685736e-03
-1.627113e-03
-5.799338e-04
-1.074487e-03
-1.431939e-03
-1.625709e-03
-1.710801e-03
-1.738058e-03
-1.744921e-03
-1.747548e-03
-1.752309e-03
-1.759388e-03
-1.766755e-03
-5.620011e-04
-9.568009e-04
-1.267294e-03
-1.447257e-03
-1.547302e-03
-1.611237e-03
-1.661980e-03
-1.710871e-03
-1.762619e-03
-1.816618e-03
-1.867910e-03
-5.648604e-04
-8.866884e-04
-1.151341e-03
-1.322437e-03
-1.437385e-03
-1.528560e-03
-1.611130e-03
-1.692429e-03
-1.774582e-03
-1.856480e-03
-1.933479e-03
-5.597329e-04
-8.424845e-04
-1.081411e-03
-1.248970e-03
-1.373604e-03
-1.482386e-03
-1.584329e-03
-1.684038e-03
-1.783830e-03
-1.880281e-03
-1.968555e-03
-5.318249e-04
-8.150769e-04
-1.058007e-03
-1.225434e-03
-1.352923e-03
-1.468689e-03
-1.577334e-03
-1.682958e-03
-1.788946e-03
-1.890160e-03
-1.981035e-03
</DataArray>
</PointData>
</Piece>
</UnstructuredGrid>
</VTKFile>
