<?xml version="1.0"?>
<VTKFile type="UnstructuredGrid" version="0.1">
<UnstructuredGrid>
<FieldData>
<DataArray Name="TIME" type="Float64" format="ascii" NumberOfTuples="1">
0.000000e+00
</DataArray>
</FieldData>
<FieldData>
<DataArray Name="CYCLE" type="Int32" format="ascii" NumberOfTuples="1">
0
</DataArray>
</FieldData>
<Piece NumberOfPoints="187" NumberOfCells="160">
<Points>
<DataArray NumberOfComponents="3" type="Float64" format="ascii">
0.000000e+00 0.000000e+00 0.000000e+00
0.000000e+00 1.966185e-01 0.000000e+00
0.000000e+00 3.908564e-01 0.000000e+00
0.000000e+00 5.820995e-01 0.000000e+00
0.000000e+00 7.712120e-01 0.000000e+00
0.000000e+00 9.595947e-01 0.000000e+00
0.000000e+00 1.148113e+00 0.000000e+00
0.000000e+00 1.337540e+00 0.000000e+00
0.000000e+00 1.529119e+00 0.000000e+00
0.000000e+00 1.724223e+00 0.000000e+00
0.000000e+00 1.920125e+00 0.000000e+00
2.250000e-01 0.000000e+00 0.000000e+00
2.272373e-01 1.964487e-01 0.000000e+00
2.311323e-01 3.910542e-01 0.000000e+00
2.344263e-01 5.835123e-01 0.000000e+00
2.363430e-01 7.743872e-01 0.000000e+00
2.367360e-01 9.639571e-01 0.000000e+00
2.359267e-01 1.153104e+00 0.000000e+00
2.339735e-01 1.342547e+00 0.000000e+00
2.300330e-01 1.532722e+00 0.000000e+00
2.255750e-01 1.724634e+00 0.000000e+00
2.250000e-01 1.920125e+00 0.000000e+00
4.500000e-01 0.000000e+00 0.000000e+00
4.548557e-01 1.968590e-01 0.000000e+00
4.605257e-01 3.927552e-01 0.000000e+00
4.654559e-01 5.881419e-01 0.000000e+00
4.688963e-01 7.827818e-01 0.000000e+00
4.708253e-01 9.762407e-01 0.000000e+00
4.708676e-01 1.167959e+00 0.000000e+00
4.693316e-01 1.358102e+00 0.000000e+00
4.654520e-01 1.546447e+00 0.000000e+00
4.597153e-01 1.733275e+00 0.000000e+00
4.500000e-01 1.920125e+00 0.000000e+00
6.750000e-01 0.000000e+00 0.000000e+00
6.818219e-01 1.982952e-01 0.000000e+00
6.879055e-01 3.963617e-01 0.000000e+00
6.927062e-01 5.947202e-01 0.000000e+00
6.963603e-01 7.935327e-01 0.000000e+00
6.988097e-01 9.928056e-01 0.000000e+00
6.997862e-01 1.192671e+00 0.000000e+00
6.992199e-01 1.393059e+00 0.000000e+00
6.969370e-01 1.593830e+00 0.000000e+00
6.924557e-01 1.794349e+00 0.000000e+00
6.847820e-01 1.993785e+00 0.000000e+00
9.000000e-01 0.000000e+00 0.000000e+00
9.074634e-01 1.989540e-01 0.000000e+00
9.131004e-01 3.979960e-01 0.000000e+00
9.172005e-01 5.974072e-01 0.000000e+00
9.202309e-01 7.972440e-01 0.000000e+00
9.221159e-01 9.975455e-01 0.000000e+00
9.227006e-01 1.198246e+00 0.000000e+00
9.218730e-01 1.399238e+00 0.000000e+00
9.196349e-01 1.600311e+00 0.000000e+00
9.158367e-01 1.801186e+00 0.000000e+00
9.108834e-01 2.001312e+00 0.000000e+00
1.125000e+00 0.000000e+00 0.000000e+00
1.132503e+00 1.994952e-01 0.000000e+00
1.137378e+00 3.991900e-01 0.000000e+00
1.140887e+00 5.992961e-01 0.000000e+00
1.143424e+00 7.997892e-01 0.000000e+00
1.144901e+00 1.000631e+00 0.000000e+00
1.145263e+00 1.201762e+00 0.000000e+00
1.144448e+00 1.403022e+00 0.000000e+00
1.142484e+00 1.604221e+00 0.000000e+00
1.139592e+00 1.805017e+00 0.000000e+00
1.136624e+00 2.005095e+00 0.000000e+00
1.350000e+00 0.000000e+00 0.000000e+00
1.357008e+00 1.998809e-01 0.000000e+00
1.361174e+00 4.000442e-01 0.000000e+00
1.364184e+00 6.005573e-01 0.000000e+00
1.366307e+00 8.014034e-01 0.000000e+00
1.367511e+00 1.002558e+00 0.000000e+00
1.367779e+00 1.203903e+00 0.000000e+00
1.367106e+00 1.405278e+00 0.000000e+00
1.365584e+00 1.606469e+00 0.000000e+00
1.363629e+00 1.807179e+00 0.000000e+00
1.361892e+00 2.007346e+00 0.000000e+00
1.575000e+00 0.000000e+00 0.000000e+00
1.581204e+00 2.001406e-01 0.000000e+00
1.584730e+00 4.005663e-01 0.000000e+00
1.587303e+00 6.013148e-01 0.000000e+00
1.589094e+00 8.023679e-01 0.000000e+00
1.590112e+00 1.003650e+00 0.000000e+00
1.590377e+00 1.205049e+00 0.000000e+00
1.589909e+00 1.406423e+00 0.000000e+00
1.588880e+00 1.607569e+00 0.000000e+00
1.587704e+00 1.808260e+00 0.000000e+00
1.586822e+00 2.008500e+00 0.000000e+00
1.800000e+00 0.000000e+00 0.000000e+00
1.805222e+00 2.002584e-01 0.000000e+00
1.808188e+00 4.008251e-01 0.000000e+00
1.810383e+00 6.016979e-01 0.000000e+00
1.811922e+00 8.028152e-01 0.000000e+00
1.812817e+00 1.004099e+00 0.000000e+00
1.813114e+00 1.205467e+00 0.000000e+00
1.812871e+00 1.406784e+00 0.000000e+00
1.812290e+00 1.607871e+00 0.000000e+00
1.811725e+00 1.808565e+00 0.000000e+00
1.811445e+00 2.008908e+00 0.000000e+00
2.025000e+00 0.000000e+00 0.000000e+00
2.029189e+00 2.002886e-01 0.000000e+00
2.031658e+00 4.008836e-01 0.000000e+00
2.033533e+00 6.017649e-01 0.000000e+00
2.034861e+00 8.028597e-01 0.000000e+00
2.035673e+00 1.004092e+00 0.000000e+00
2.036013e+00 1.205382e+00 0.000000e+00
2.035978e+00 1.406608e+00 0.000000e+00
2.035768e+00 1.607630e+00 0.000000e+00
2.035645e+00 1.808346e+00 0.000000e+00
2.035762e+00 2.008810e+00 0.000000e+00
2.250000e+00 0.000000e+00 0.000000e+00
2.253214e+00 2.002386e-01 0.000000e+00
2.255239e+00 4.007920e-01 0.000000e+00
2.256813e+00 6.016158e-01 0.000000e+00
2.257950e+00 8.026362e-01 0.000000e+00
2.258686e+00 1.003783e+00 0.000000e+00
2.259073e+00 1.204969e+00 0.000000e+00
2.259215e+00 1.406098e+00 0.000000e+00
2.259280e+00 1.607060e+00 0.000000e+00
2.259444e+00 1.807809e+00 0.000000e+00
2.259791e+00 2.008397e+00 0.000000e+00
2.475000e+00 0.000000e+00 0.000000e+00
2.477353e+00 2.001705e-01 0.000000e+00
2.478981e+00 4.006441e-01 0.000000e+00
2.480257e+00 6.013605e-01 0.000000e+00
2.481211e+00 8.022661e-01 0.000000e+00
2.481871e+00 1.003292e+00 0.000000e+00
2.482286e+00 1.204361e+00 0.000000e+00
2.482553e+00 1.405396e+00 0.000000e+00
2.482796e+00 1.606319e+00 0.000000e+00
2.483120e+00 1.807118e+00 0.000000e+00
2.483574e+00 2.007829e+00 0.000000e+00
2.700000e+00 0.000000e+00 0.000000e+00
2.701636e+00 2.001021e-01 0.000000e+00
2.702896e+00 4.004796e-01 0.000000e+00
2.703897e+00 6.010750e-01 0.000000e+00
2.704666e+00 8.018430e-01 0.000000e+00
2.705233e+00 1.002732e+00 0.000000e+00
2.705643e+00 1.203683e+00 0.000000e+00
2.705967e+00 1.404632e+00 0.000000e+00
2.706290e+00 1.605537e+00 0.000000e+00
2.706674e+00 1.806393e+00 0.000000e+00
2.707138e+00 2.007231e+00 0.000000e+00
2.925000e+00 0.000000e+00 0.000000e+00
2.926064e+00 2.000434e-01 0.000000e+00
2.926979e+00 4.003142e-01 0.000000e+00
2.927726e+00 6.007913e-01 0.000000e+00
2.928315e+00 8.014296e-01 0.000000e+00
2.928766e+00 1.002196e+00 0.000000e+00
2.929122e+00 1.203046e+00 0.000000e+00
2.929434e+00 1.403932e+00 0.000000e+00
2.929753e+00 1.604825e+00 0.000000e+00
2.930111e+00 1.805731e+00 0.000000e+00
2.930514e+00 2.006683e+00 0.000000e+00
3.150000e+00 0.000000e+00 0.000000e+00
3.150634e+00 1.999868e-01 0.000000e+00
3.151215e+00 4.001687e-01 0.000000e+00
3.151717e+00 6.005457e-01 0.000000e+00
3.152122e+00 8.010923e-01 0.000000e+00
3.152435e+00 1.001768e+00 0.000000e+00
3.152691e+00 1.202539e+00 0.000000e+00
3.152935e+00 1.403376e+00 0.000000e+00
3.153186e+00 1.604260e+00 0.000000e+00
3.153455e+00 1.805205e+00 0.000000e+00
3.153745e+00 2.006242e+00 0.000000e+00
3.375000e+00 0.000000e+00 0.000000e+00
3.375295e+00 1.999490e-01 0.000000e+00
3.375576e+00 4.000760e-01 0.000000e+00
3.375827e+00 6.003891e-01 0.000000e+00
3.376033e+00 8.008760e-01 0.000000e+00
3.376194e+00 1.001496e+00 0.000000e+00
3.376327e+00 1.202214e+00 0.000000e+00
3.376459e+00 1.403013e+00 0.000000e+00
3.376598e+00 1.603891e+00 0.000000e+00
3.376740e+00 1.804862e+00 0.000000e+00
3.376891e+00 2.005943e+00 0.000000e+00
3.600000e+00 0.000000e+00 0.000000e+00
3.600000e+00 1.999470e-01 0.000000e+00
3.600000e+00 4.000575e-01 0.000000e+00
3.600000e+00 6.003472e-01 0.000000e+00
3.600000e+00 8.008061e-01 0.000000e+00
3.600000e+00 1.001399e+00 0.000000e+00
3.600000e+00 1.202092e+00 0.000000e+00
3.600000e+00 1.402872e+00 0.000000e+00
3.600000e+00 1.603745e+00 0.000000e+00
3.600000e+00 1.804722e+00 0.000000e+00
3.600000e+00 2.005813e+00 0.000000e+00
</DataArray>
</Points>
<Cells>
<DataArray Name="connectivity" type="Int32" format="ascii">
0 11 12 1
1 12 13 2
2 13 14 3
3 14 15 4
4 15 16 5
5 16 17 6
6 17 18 7
7 18 19 8
8 19 20 9
9 20 21 10
11 22 23 12
12 23 24 13
13 24 25 14
14 25 26 15
15 26 27 16
16 27 28 17
17 28 29 18
18 29 30 19
19 30 31 20
20 31 32 21
22 33 34 23
23 34 35 24
24 35 36 25
25 36 37 26
26 37 38 27
27 38 39 28
28 39 40 29
29 40 41 30
30 41 42 31
31 42 43 32
33 44 45 34
34 45 46 35
35 46 47 36
36 47 48 37
37 48 49 38
38 49 50 39
39 50 51 40
40 51 52 41
41 52 53 42
42 53 54 43
44 55 56 45
45 56 57 46
46 57 58 47
47 58 59 48
48 59 60 49
49 60 61 50
50 61 62 51
51 62 63 52
52 63 64 53
53 64 65 54
55 66 67 56
56 67 68 57
57 68 69 58
58 69 70 59
59 70 71 60
60 71 72 61
61 72 73 62
62 73 74 63
63 74 75 64
64 75 76 65
66 77 78 67
67 78 79 68
68 79 80 69
69 80 81 70
70 81 82 71
71 82 83 72
72 83 84 73
73 84 85 74
74 85 86 75
75 86 87 76
77 88 89 78
78 89 90 79
79 90 91 80
80 91 92 81
81 92 93 82
82 93 94 83
83 94 95 84
84 95 96 85
85 96 97 86
86 97 98 87
88 99 100 89
89 100 101 90
90 101 102 91
91 102 103 92
92 103 104 93
93 104 105 94
94 105 106 95
95 106 107 96
96 107 108 97
97 108 109 98
99 110 111 100
100 111 112 101
101 112 113 102
102 113 114 103
103 114 115 104
104 115 116 105
105 116 117 106
106 117 118 107
107 118 119 108
108 119 120 109
110 121 122 111
111 122 123 112
112 123 124 113
113 124 125 114
114 125 126 115
115 126 127 116
116 127 128 117
117 128 129 118
118 129 130 119
119 130 131 120
121 132 133 122
122 133 134 123
123 134 135 124
124 135 136 125
125 136 137 126
126 137 138 127
127 138 139 128
128 139 140 129
129 140 141 130
130 141 142 131
132 143 144 133
133 144 145 134
134 145 146 135
135 146 147 136
136 147 148 137
137 148 149 138
138 149 150 139
139 150 151 140
140 151 152 141
141 152 153 142
143 154 155 144
144 155 156 145
145 156 157 146
146 157 158 147
147 158 159 148
148 159 160 149
149 160 161 150
150 161 162 151
151 162 163 152
152 163 164 153
154 165 166 155
155 166 167 156
156 167 168 157
157 168 169 158
158 169 170 159
159 170 171 160
160 171 172 161
161 172 173 162
162 173 174 163
163 174 175 164
165 176 177 166
166 177 178 167
167 178 179 168
168 179 180 169
169 180 181 170
170 181 182 171
171 182 183 172
172 183 184 173
173 184 185 174
174 185 186 175
</DataArray>
<DataArray Name="offsets" type="Int32" format="ascii">
4
8
12
16
20
24
28
32
36
40
44
48
52
56
60
64
68
72
76
80
84
88
92
96
100
104
108
112
116
120
124
128
132
136
140
144
148
152
156
160
164
168
172
176
180
184
188
192
196
200
204
208
212
216
220
224
228
232
236
240
244
248
252
256
260
264
268
272
276
280
284
288
292
296
300
304
308
312
316
320
324
328
332
336
340
344
348
352
356
360
364
368
372
376
380
384
388
392
396
400
404
408
412
416
420
424
428
432
436
440
444
448
452
456
460
464
468
472
476
480
484
488
492
496
500
504
508
512
516
520
524
528
532
536
540
544
548
552
556
560
564
568
572
576
580
584
588
592
596
600
604
608
612
616
620
624
628
632
636
640
</DataArray>
<DataArray Name="types" type="UInt8" format="ascii">
9
9
9
9
9
9
9
9
9
9
9
9
9
9
9
9
9
9
9
9
9
9
9
9
9
9
9
9
9
9
9
9
9
9
9
9
9
9
9
9
9
9
9
9
9
9
9
9
9
9
9
9
9
9
9
9
9
9
9
9
9
9
9
9
9
9
9
9
9
9
9
9
9
9
9
9
9
9
9
9
9
9
9
9
9
9
9
9
9
9
9
9
9
9
9
9
9
9
9
9
9
9
9
9
9
9
9
9
9
9
9
9
9
9
9
9
9
9
9
9
9
9
9
9
9
9
9
9
9
9
9
9
9
9
9
9
9
9
9
9
9
9
9
9
9
9
9
9
9
9
9
9
9
9
9
9
9
9
9
9
</DataArray>
</Cells>
<PointData>
<DataArray Name="disp" type="Float64" NumberOfComponents="3" format="ascii">
0.000000e+00 0.000000e+00 0.000000e+00
0.000000e+00 -3.381480e-03 0.000000e+00
0.000000e+00 -9.143568e-03 0.000000e+00
0.000000e+00 -1.790049e-02 0.000000e+00
0.000000e+00 -2.878797e-02 0.000000e+00
0.000000e+00 -4.040533e-02 0.000000e+00
0.000000e+00 -5.188731e-02 0.000000e+00
0.000000e+00 -6.245989e-02 0.000000e+00
0.000000e+00 -7.088071e-02 0.000000e+00
0.000000e+00 -7.577721e-02 0.000000e+00
0.000000e+00 -7.987500e-02 0.000000e+00
0.000000e+00 0.000000e+00 0.000000e+00
2.237350e-03 -3.551300e-03 0.000000e+00
6.132340e-03 -8.945754e-03 0.000000e+00
9.426285e-03 -1.648769e-02 0.000000e+00
1.134299e-02 -2.561274e-02 0.000000e+00
1.173603e-02 -3.604287e-02 0.000000e+00
1.092666e-02 -4.689576e-02 0.000000e+00
8.973463e-03 -5.745345e-02 0.000000e+00
5.032965e-03 -6.727777e-02 0.000000e+00
5.749571e-04 -7.536596e-02 0.000000e+00
0.000000e+00 -7.987500e-02 0.000000e+00
0.000000e+00 0.000000e+00 0.000000e+00
4.855729e-03 -3.140961e-03 0.000000e+00
1.052566e-02 -7.244749e-03 0.000000e+00
1.545585e-02 -1.185814e-02 0.000000e+00
1.889634e-02 -1.721814e-02 0.000000e+00
2.082528e-02 -2.375929e-02 0.000000e+00
2.086760e-02 -3.204124e-02 0.000000e+00
1.933158e-02 -4.189774e-02 0.000000e+00
1.545195e-02 -5.355301e-02 0.000000e+00
9.715271e-03 -6.672452e-02 0.000000e+00
0.000000e+00 -7.987500e-02 0.000000e+00
0.000000e+00 0.000000e+00 0.000000e+00
6.821914e-03 -1.704822e-03 0.000000e+00
1.290547e-02 -3.638290e-03 0.000000e+00
1.770616e-02 -5.279765e-03 0.000000e+00
2.136028e-02 -6.467242e-03 0.000000e+00
2.380969e-02 -7.194427e-03 0.000000e+00
2.478616e-02 -7.329381e-03 0.000000e+00
2.421991e-02 -6.941494e-03 0.000000e+00
2.193695e-02 -6.170261e-03 0.000000e+00
1.745570e-02 -5.651264e-03 0.000000e+00
9.782045e-03 -6.215053e-03 0.000000e+00
0.000000e+00 0.000000e+00 0.000000e+00
7.463438e-03 -1.045955e-03 0.000000e+00
1.310040e-02 -2.003961e-03 0.000000e+00
1.720048e-02 -2.592774e-03 0.000000e+00
2.023091e-02 -2.755999e-03 0.000000e+00
2.211592e-02 -2.454514e-03 0.000000e+00
2.270059e-02 -1.754377e-03 0.000000e+00
2.187305e-02 -7.614859e-04 0.000000e+00
1.963488e-02 3.106713e-04 0.000000e+00
1.583669e-02 1.185954e-03 0.000000e+00
1.088336e-02 1.311654e-03 0.000000e+00
0.000000e+00 0.000000e+00 0.000000e+00
7.503344e-03 -5.047805e-04 0.000000e+00
1.237813e-02 -8.099914e-04 0.000000e+00
1.588689e-02 -7.038904e-04 0.000000e+00
1.842445e-02 -2.107884e-04 0.000000e+00
1.990116e-02 6.309724e-04 0.000000e+00
2.026254e-02 1.762205e-03 0.000000e+00
1.944752e-02 3.022092e-03 0.000000e+00
1.748422e-02 4.220922e-03 0.000000e+00
1.459176e-02 5.016839e-03 0.000000e+00
1.162350e-02 5.094778e-03 0.000000e+00
0.000000e+00 0.000000e+00 0.000000e+00
7.007910e-03 -1.190571e-04 0.000000e+00
1.117391e-02 4.418585e-05 0.000000e+00
1.418364e-02 5.572939e-04 0.000000e+00
1.630711e-02 1.403405e-03 0.000000e+00
1.751061e-02 2.557493e-03 0.000000e+00
1.777897e-02 3.903053e-03 0.000000e+00
1.710631e-02 5.277636e-03 0.000000e+00
1.558357e-02 6.468645e-03 0.000000e+00
1.362891e-02 7.179415e-03 0.000000e+00
1.189166e-02 7.346331e-03 0.000000e+00
0.000000e+00 0.000000e+00 0.000000e+00
6.203907e-03 1.406376e-04 0.000000e+00
9.730351e-03 5.662994e-04 0.000000e+00
1.230304e-02 1.314837e-03 0.000000e+00
1.409430e-02 2.367889e-03 0.000000e+00
1.511239e-02 3.650296e-03 0.000000e+00
1.537663e-02 5.048889e-03 0.000000e+00
1.490904e-02 6.423123e-03 0.000000e+00
1.387973e-02 7.568945e-03 0.000000e+00
1.270441e-02 8.259654e-03 0.000000e+00
1.182156e-02 8.500163e-03 0.000000e+00
0.000000e+00 0.000000e+00 0.000000e+00
5.221976e-03 2.584493e-04 0.000000e+00
8.188234e-03 8.251119e-04 0.000000e+00
1.038286e-02 1.697929e-03 0.000000e+00
1.192208e-02 2.815198e-03 0.000000e+00
1.281722e-02 4.098990e-03 0.000000e+00
1.311365e-02 5.466480e-03 0.000000e+00
1.287094e-02 6.784300e-03 0.000000e+00
1.229029e-02 7.871044e-03 0.000000e+00
1.172527e-02 8.565321e-03 0.000000e+00
1.144538e-02 8.907932e-03 0.000000e+00
0.000000e+00 0.000000e+00 0.000000e+00
4.188679e-03 2.886421e-04 0.000000e+00
6.657793e-03 8.836452e-04 0.000000e+00
8.533379e-03 1.764912e-03 0.000000e+00
9.861295e-03 2.859691e-03 0.000000e+00
1.067280e-02 4.091859e-03 0.000000e+00
1.101294e-02 5.382091e-03 0.000000e+00
1.097820e-02 6.607705e-03 0.000000e+00
1.076837e-02 7.630387e-03 0.000000e+00
1.064471e-02 8.345618e-03 0.000000e+00
1.076155e-02 8.810067e-03 0.000000e+00
0.000000e+00 0.000000e+00 0.000000e+00
3.213826e-03 2.385663e-04 0.000000e+00
5.238694e-03 7.920418e-04 0.000000e+00
6.812716e-03 1.615771e-03 0.000000e+00
7.950258e-03 2.636199e-03 0.000000e+00
8.686379e-03 3.782762e-03 0.000000e+00
9.073200e-03 4.968669e-03 0.000000e+00
9.215246e-03 6.098338e-03 0.000000e+00
9.279880e-03 7.059834e-03 0.000000e+00
9.443991e-03 7.809429e-03 0.000000e+00
9.791058e-03 8.396856e-03 0.000000e+00
0.000000e+00 0.000000e+00 0.000000e+00
2.353143e-03 1.704770e-04 0.000000e+00
3.980645e-03 6.440568e-04 0.000000e+00
5.256611e-03 1.360491e-03 0.000000e+00
6.211093e-03 2.266129e-03 0.000000e+00
6.871257e-03 3.291963e-03 0.000000e+00
7.285883e-03 4.361208e-03 0.000000e+00
7.552878e-03 5.396002e-03 0.000000e+00
7.795865e-03 6.319284e-03 0.000000e+00
8.120536e-03 7.117776e-03 0.000000e+00
8.574485e-03 7.829298e-03 0.000000e+00
0.000000e+00 0.000000e+00 0.000000e+00
1.636329e-03 1.021177e-04 0.000000e+00
2.896089e-03 4.795801e-04 0.000000e+00
3.896742e-03 1.074965e-03 0.000000e+00
4.666102e-03 1.843043e-03 0.000000e+00
5.232837e-03 2.732291e-03 0.000000e+00
5.643466e-03 3.683546e-03 0.000000e+00
5.967283e-03 4.632507e-03 0.000000e+00
6.289674e-03 5.537040e-03 0.000000e+00
6.674093e-03 6.392492e-03 0.000000e+00
7.138240e-03 7.231188e-03 0.000000e+00
0.000000e+00 0.000000e+00 0.000000e+00
1.064566e-03 4.338520e-05 0.000000e+00
1.979245e-03 3.141915e-04 0.000000e+00
2.725809e-03 7.912950e-04 0.000000e+00
3.315511e-03 1.429568e-03 0.000000e+00
3.766068e-03 2.195653e-03 0.000000e+00
4.122201e-03 3.046212e-03 0.000000e+00
4.434099e-03 3.931980e-03 0.000000e+00
4.752497e-03 4.824704e-03 0.000000e+00
5.110632e-03 5.730778e-03 0.000000e+00
5.514354e-03 6.682989e-03 0.000000e+00
0.000000e+00 0.000000e+00 0.000000e+00
6.339357e-04 -1.322832e-05 0.000000e+00
1.215328e-03 1.687307e-04 0.000000e+00
1.716848e-03 5.457313e-04 0.000000e+00
2.121666e-03 1.092346e-03 0.000000e+00
2.434585e-03 1.768104e-03 0.000000e+00
2.691360e-03 2.539181e-03 0.000000e+00
2.934457e-03 3.375674e-03 0.000000e+00
3.185857e-03 4.260347e-03 0.000000e+00
3.454684e-03 5.204871e-03 0.000000e+00
3.744984e-03 6.242262e-03 0.000000e+00
0.000000e+00 0.000000e+00 0.000000e+00
2.952548e-04 -5.104615e-05 0.000000e+00
5.759273e-04 7.602420e-05 0.000000e+00
8.265331e-04 3.890902e-04 0.000000e+00
1.033098e-03 8.759645e-04 0.000000e+00
1.193468e-03 1.496391e-03 0.000000e+00
1.326852e-03 2.213488e-03 0.000000e+00
1.459305e-03 3.012859e-03 0.000000e+00
1.597609e-03 3.891383e-03 0.000000e+00
1.740425e-03 4.861522e-03 0.000000e+00
1.891212e-03 5.943317e-03 0.000000e+00
0.000000e+00 0.000000e+00 0.000000e+00
0.000000e+00 -5.304228e-05 0.000000e+00
0.000000e+00 5.750491e-05 0.000000e+00
0.000000e+00 3.472079e-04 0.000000e+00
0.000000e+00 8.061035e-04 0.000000e+00
0.000000e+00 1.399410e-03 0.000000e+00
0.000000e+00 2.091710e-03 0.000000e+00
0.000000e+00 2.872246e-03 0.000000e+00
0.000000e+00 3.744989e-03 0.000000e+00
0.000000e+00 4.722059e-03 0.000000e+00
0.000000e+00 5.813303e-03 0.000000e+00
</DataArray>
<DataArray Name="shear" type="Float64" NumberOfComponents="1" format="ascii">
2.094466e-02
3.439704e-02
6.251020e-02
8.849949e-02
1.045807e-01
1.094668e-01
1.045725e-01
8.905005e-02
6.005630e-02
3.123209e-02
2.225139e-02
2.409259e-02
3.659055e-02
5.873492e-02
7.867634e-02
9.415609e-02
1.038267e-01
1.056942e-01
9.880655e-02
8.211631e-02
5.656422e-02
3.713829e-02
3.124551e-02
4.044167e-02
5.262162e-02
6.281359e-02
7.578551e-02
9.213617e-02
1.098773e-01
1.266252e-01
1.417249e-01
1.477080e-01
1.455276e-01
3.648183e-02
3.941473e-02
4.178113e-02
4.374934e-02
4.860939e-02
5.667789e-02
6.872509e-02
8.457852e-02
1.037092e-01
1.232595e-01
1.375403e-01
3.830501e-02
3.582893e-02
3.084102e-02
2.823204e-02
2.713946e-02
2.594687e-02
2.402383e-02
2.107431e-02
1.613503e-02
7.352577e-03
9.129318e-04
3.793674e-02
3.298409e-02
2.588271e-02
2.359550e-02
2.267165e-02
2.170159e-02
2.017309e-02
1.764799e-02
1.358033e-02
6.797220e-03
2.180245e-03
3.533001e-02
2.951601e-02
2.230660e-02
2.069006e-02
2.017406e-02
1.963903e-02
1.850973e-02
1.636044e-02
1.255848e-02
6.628247e-03
2.473094e-03
3.124932e-02
2.569195e-02
1.946553e-02
1.860204e-02
1.847031e-02
1.820767e-02
1.737214e-02
1.551620e-02
1.201175e-02
6.909067e-03
3.539477e-03
2.634073e-02
2.172959e-02
1.707451e-02
1.679263e-02
1.689448e-02
1.684987e-02
1.629029e-02
1.470084e-02
1.163530e-02
7.484665e-03
4.941217e-03
2.118709e-02
1.780104e-02
1.479985e-02
1.498345e-02
1.536542e-02
1.554409e-02
1.517199e-02
1.383604e-02
1.134414e-02
8.261680e-03
6.528169e-03
1.628582e-02
1.411112e-02
1.257611e-02
1.317836e-02
1.385205e-02
1.423278e-02
1.403461e-02
1.299887e-02
1.116870e-02
9.133756e-03
8.089786e-03
1.196328e-02
1.084552e-02
1.044133e-02
1.133982e-02
1.226565e-02
1.285550e-02
1.289677e-02
1.227750e-02
1.116741e-02
1.006147e-02
9.571784e-03
8.343974e-03
7.996796e-03
8.412670e-03
9.528823e-03
1.064610e-02
1.147302e-02
1.182630e-02
1.169816e-02
1.130330e-02
1.100428e-02
1.096925e-02
5.443355e-03
5.550458e-03
6.551686e-03
7.917540e-03
9.211096e-03
1.025846e-02
1.093791e-02
1.127104e-02
1.148043e-02
1.184333e-02
1.217127e-02
3.220093e-03
3.554514e-03
5.000189e-03
6.665185e-03
8.148930e-03
9.345488e-03
1.026032e-02
1.096317e-02
1.163307e-02
1.246350e-02
1.303855e-02
1.503608e-03
2.112993e-03
3.958870e-03
5.856507e-03
7.486393e-03
8.766649e-03
9.803182e-03
1.074844e-02
1.172316e-02
1.281373e-02
1.350779e-02
5.198662e-04
1.532299e-03
3.591602e-03
5.563248e-03
7.240572e-03
8.552270e-03
9.630560e-03
1.066346e-02
1.174906e-02
1.292040e-02
1.364545e-02
</DataArray>
<DataArray Name="stress" type="Float64" NumberOfComponents="9" format="ascii">
-1.240500e+05 7.136893e+03 0.000000e+00 7.136893e+03 -2.208369e+05 0.000000e+00 0.000000e+00 0.000000e+00 0.000000e+00
-1.119978e+05 5.061596e+03 0.000000e+00 5.061596e+03 -2.235371e+05 0.000000e+00 0.000000e+00 0.000000e+00 0.000000e+00
-1.181217e+05 3.813203e+03 0.000000e+00 3.813203e+03 -2.254170e+05 0.000000e+00 0.000000e+00 0.000000e+00 0.000000e+00
-1.275938e+05 5.419971e+03 0.000000e+00 5.419971e+03 -2.369474e+05 0.000000e+00 0.000000e+00 0.000000e+00 0.000000e+00
-1.372524e+05 5.796780e+03 0.000000e+00 5.796780e+03 -2.448924e+05 0.000000e+00 0.000000e+00 0.000000e+00 0.000000e+00
-1.440609e+05 7.225830e+03 0.000000e+00 7.225830e+03 -2.545569e+05 0.000000e+00 0.000000e+00 0.000000e+00 0.000000e+00
-1.482183e+05 8.653223e+03 0.000000e+00 8.653223e+03 -2.677621e+05 0.000000e+00 0.000000e+00 0.000000e+00 0.000000e+00
-1.487408e+05 1.072111e+04 0.000000e+00 1.072111e+04 -2.794442e+05 0.000000e+00 0.000000e+00 0.000000e+00 0.000000e+00
-1.500211e+05 6.841397e+03 0.000000e+00 6.841397e+03 -2.898684e+05 0.000000e+00 0.000000e+00 0.000000e+00 0.000000e+00
-1.581935e+05 -1.800417e+03 0.000000e+00 -1.800417e+03 -3.005393e+05 0.000000e+00 0.000000e+00 0.000000e+00 0.000000e+00
-1.623244e+05 -7.533952e+02 0.000000e+00 -7.533952e+02 -2.865253e+05 0.000000e+00 0.000000e+00 0.000000e+00 0.000000e+00
-1.289903e+05 2.114503e+04 0.000000e+00 2.114503e+04 -2.163860e+05 0.000000e+00 0.000000e+00 0.000000e+00 0.000000e+00
-1.130493e+05 1.772944e+04 0.000000e+00 1.772944e+04 -2.123467e+05 0.000000e+00 0.000000e+00 0.000000e+00 0.000000e+00
-1.153225e+05 1.608901e+04 0.000000e+00 1.608901e+04 -2.227782e+05 0.000000e+00 0.000000e+00 0.000000e+00 0.000000e+00
-1.238846e+05 1.438698e+04 0.000000e+00 1.438698e+04 -2.340827e+05 0.000000e+00 0.000000e+00 0.000000e+00 0.000000e+00
-1.346386e+05 1.323349e+04 0.000000e+00 1.323349e+04 -2.445927e+05 0.000000e+00 0.000000e+00 0.000000e+00 0.000000e+00
-1.446189e+05 1.320290e+04 0.000000e+00 1.320290e+04 -2.545803e+05 0.000000e+00 0.000000e+00 0.000000e+00 0.000000e+00
-1.498858e+05 1.377982e+04 0.000000e+00 1.377982e+04 -2.636382e+05 0.000000e+00 0.000000e+00 0.000000e+00 0.000000e+00
-1.496213e+05 1.345994e+04 0.000000e+00 1.345994e+04 -2.730106e+05 0.000000e+00 0.000000e+00 0.000000e+00 0.000000e+00
-1.517277e+05 6.691800e+03 0.000000e+00 6.691800e+03 -2.839913e+05 0.000000e+00 0.000000e+00 0.000000e+00 0.000000e+00
-1.529373e+05 -2.005066e+03 0.000000e+00 -2.005066e+03 -2.898960e+05 0.000000e+00 0.000000e+00 0.000000e+00 0.000000e+00
-1.759435e+05 -8.330624e+03 0.000000e+00 -8.330624e+03 -3.297253e+05 0.000000e+00 0.000000e+00 0.000000e+00 0.000000e+00
-1.299287e+05 3.435991e+04 0.000000e+00 3.435991e+04 -1.893682e+05 0.000000e+00 0.000000e+00 0.000000e+00 0.000000e+00
-1.127844e+05 2.927616e+04 0.000000e+00 2.927616e+04 -1.778334e+05 0.000000e+00 0.000000e+00 0.000000e+00 0.000000e+00
-1.127114e+05 2.840179e+04 0.000000e+00 2.840179e+04 -1.852916e+05 0.000000e+00 0.000000e+00 0.000000e+00 0.000000e+00
-1.207445e+05 2.896494e+04 0.000000e+00 2.896494e+04 -1.952879e+05 0.000000e+00 0.000000e+00 0.000000e+00 0.000000e+00
-1.338396e+05 3.154117e+04 0.000000e+00 3.154117e+04 -2.101256e+05 0.000000e+00 0.000000e+00 0.000000e+00 0.000000e+00
-1.504547e+05 3.423798e+04 0.000000e+00 3.423798e+04 -2.268509e+05 0.000000e+00 0.000000e+00 0.000000e+00 0.000000e+00
-1.660890e+05 3.548312e+04 0.000000e+00 3.548312e+04 -2.457583e+05 0.000000e+00 0.000000e+00 0.000000e+00 0.000000e+00
-1.745401e+05 3.785020e+04 0.000000e+00 3.785020e+04 -2.669423e+05 0.000000e+00 0.000000e+00 0.000000e+00 0.000000e+00
-1.827212e+05 3.058683e+04 0.000000e+00 3.058683e+04 -2.792537e+05 0.000000e+00 0.000000e+00 0.000000e+00 0.000000e+00
-1.867670e+05 1.827691e+04 0.000000e+00 1.827691e+04 -2.877925e+05 0.000000e+00 0.000000e+00 0.000000e+00 0.000000e+00
-2.049931e+05 -3.738571e+03 0.000000e+00 -3.738571e+03 -3.437373e+05 0.000000e+00 0.000000e+00 0.000000e+00 0.000000e+00
-1.187481e+05 3.290916e+04 0.000000e+00 3.290916e+04 -1.424440e+05 0.000000e+00 0.000000e+00 0.000000e+00 0.000000e+00
-1.060816e+05 2.957489e+04 0.000000e+00 2.957489e+04 -1.333226e+05 0.000000e+00 0.000000e+00 0.000000e+00 0.000000e+00
-1.080973e+05 3.081979e+04 0.000000e+00 3.081979e+04 -1.338385e+05 0.000000e+00 0.000000e+00 0.000000e+00 0.000000e+00
-1.170991e+05 3.370836e+04 0.000000e+00 3.370836e+04 -1.344006e+05 0.000000e+00 0.000000e+00 0.000000e+00 0.000000e+00
-1.254990e+05 3.625312e+04 0.000000e+00 3.625312e+04 -1.322805e+05 0.000000e+00 0.000000e+00 0.000000e+00 0.000000e+00
-1.305786e+05 3.617282e+04 0.000000e+00 3.617282e+04 -1.267831e+05 0.000000e+00 0.000000e+00 0.000000e+00 0.000000e+00
-1.283452e+05 3.152509e+04 0.000000e+00 3.152509e+04 -1.160970e+05 0.000000e+00 0.000000e+00 0.000000e+00 0.000000e+00
-1.192920e+05 2.535463e+04 0.000000e+00 2.535463e+04 -1.037535e+05 0.000000e+00 0.000000e+00 0.000000e+00 0.000000e+00
-1.076666e+05 1.786654e+04 0.000000e+00 1.786654e+04 -9.051959e+04 0.000000e+00 0.000000e+00 0.000000e+00 0.000000e+00
-8.540520e+04 8.917844e+03 0.000000e+00 8.917844e+03 -7.888427e+04 0.000000e+00 0.000000e+00 0.000000e+00 0.000000e+00
-4.634309e+04 3.077810e+03 0.000000e+00 3.077810e+03 -5.684998e+04 0.000000e+00 0.000000e+00 0.000000e+00 0.000000e+00
-1.123033e+05 3.100012e+04 0.000000e+00 3.100012e+04 -1.165337e+05 0.000000e+00 0.000000e+00 0.000000e+00 0.000000e+00
-1.071776e+05 3.000624e+04 0.000000e+00 3.000624e+04 -1.133731e+05 0.000000e+00 0.000000e+00 0.000000e+00 0.000000e+00
-1.133184e+05 3.151162e+04 0.000000e+00 3.151162e+04 -1.152671e+05 0.000000e+00 0.000000e+00 0.000000e+00 0.000000e+00
-1.240166e+05 3.298501e+04 0.000000e+00 3.298501e+04 -1.133952e+05 0.000000e+00 0.000000e+00 0.000000e+00 0.000000e+00
-1.330752e+05 3.244812e+04 0.000000e+00 3.244812e+04 -1.077761e+05 0.000000e+00 0.000000e+00 0.000000e+00 0.000000e+00
-1.385368e+05 2.928466e+04 0.000000e+00 2.928466e+04 -9.973189e+04 0.000000e+00 0.000000e+00 0.000000e+00 0.000000e+00
-1.381712e+05 2.399168e+04 0.000000e+00 2.399168e+04 -9.060738e+04 0.000000e+00 0.000000e+00 0.000000e+00 0.000000e+00
-1.337437e+05 1.770582e+04 0.000000e+00 1.770582e+04 -8.178678e+04 0.000000e+00 0.000000e+00 0.000000e+00 0.000000e+00
-1.234475e+05 9.764498e+03 0.000000e+00 9.764498e+03 -7.385741e+04 0.000000e+00 0.000000e+00 0.000000e+00 0.000000e+00
-9.617975e+04 1.126887e+03 0.000000e+00 1.126887e+03 -6.799173e+04 0.000000e+00 0.000000e+00 0.000000e+00 0.000000e+00
-5.284746e+04 -1.731361e+03 0.000000e+00 -1.731361e+03 -5.395469e+04 0.000000e+00 0.000000e+00 0.000000e+00 0.000000e+00
-1.052404e+05 3.062757e+04 0.000000e+00 3.062757e+04 -1.014288e+05 0.000000e+00 0.000000e+00 0.000000e+00 0.000000e+00
-1.061936e+05 3.016616e+04 0.000000e+00 3.016616e+04 -1.009774e+05 0.000000e+00 0.000000e+00 0.000000e+00 0.000000e+00
-1.139474e+05 2.961139e+04 0.000000e+00 2.961139e+04 -1.005211e+05 0.000000e+00 0.000000e+00 0.000000e+00 0.000000e+00
-1.234794e+05 2.805219e+04 0.000000e+00 2.805219e+04 -9.576145e+04 0.000000e+00 0.000000e+00 0.000000e+00 0.000000e+00
-1.305325e+05 2.522478e+04 0.000000e+00 2.522478e+04 -9.015908e+04 0.000000e+00 0.000000e+00 0.000000e+00 0.000000e+00
-1.335776e+05 2.090025e+04 0.000000e+00 2.090025e+04 -8.410505e+04 0.000000e+00 0.000000e+00 0.000000e+00 0.000000e+00
-1.322941e+05 1.544310e+04 0.000000e+00 1.544310e+04 -7.779620e+04 0.000000e+00 0.000000e+00 0.000000e+00 0.000000e+00
-1.263370e+05 9.126566e+03 0.000000e+00 9.126566e+03 -7.127143e+04 0.000000e+00 0.000000e+00 0.000000e+00 0.000000e+00
-1.143146e+05 1.874135e+03 0.000000e+00 1.874135e+03 -6.568409e+04 0.000000e+00 0.000000e+00 0.000000e+00 0.000000e+00
-9.026852e+04 -3.774839e+03 0.000000e+00 -3.774839e+03 -6.177446e+04 0.000000e+00 0.000000e+00 0.000000e+00 0.000000e+00
-5.871467e+04 -4.751257e+03 0.000000e+00 -4.751257e+03 -5.474761e+04 0.000000e+00 0.000000e+00 0.000000e+00 0.000000e+00
-9.738402e+04 2.852943e+04 0.000000e+00 2.852943e+04 -8.927359e+04 0.000000e+00 0.000000e+00 0.000000e+00 0.000000e+00
-1.036995e+05 2.848348e+04 0.000000e+00 2.848348e+04 -9.099293e+04 0.000000e+00 0.000000e+00 0.000000e+00 0.000000e+00
-1.123839e+05 2.564243e+04 0.000000e+00 2.564243e+04 -8.800901e+04 0.000000e+00 0.000000e+00 0.000000e+00 0.000000e+00
-1.211245e+05 2.303386e+04 0.000000e+00 2.303386e+04 -8.378401e+04 0.000000e+00 0.000000e+00 0.000000e+00 0.000000e+00
-1.265274e+05 1.944717e+04 0.000000e+00 1.944717e+04 -7.941955e+04 0.000000e+00 0.000000e+00 0.000000e+00 0.000000e+00
-1.280962e+05 1.473566e+04 0.000000e+00 1.473566e+04 -7.464616e+04 0.000000e+00 0.000000e+00 0.000000e+00 0.000000e+00
-1.258881e+05 9.163335e+03 0.000000e+00 9.163335e+03 -6.979876e+04 0.000000e+00 0.000000e+00 0.000000e+00 0.000000e+00
-1.190420e+05 2.988942e+03 0.000000e+00 2.988942e+03 -6.522066e+04 0.000000e+00 0.000000e+00 0.000000e+00 0.000000e+00
-1.074755e+05 -2.652626e+03 0.000000e+00 -2.652626e+03 -6.202192e+04 0.000000e+00 0.000000e+00 0.000000e+00 0.000000e+00
-8.851395e+04 -4.877606e+03 0.000000e+00 -4.877606e+03 -6.004186e+04 0.000000e+00 0.000000e+00 0.000000e+00 0.000000e+00
-6.774780e+04 -4.270261e+03 0.000000e+00 -4.270261e+03 -5.628512e+04 0.000000e+00 0.000000e+00 0.000000e+00 0.000000e+00
-8.863398e+04 2.527707e+04 0.000000e+00 2.527707e+04 -7.958233e+04 0.000000e+00 0.000000e+00 0.000000e+00 0.000000e+00
-9.978102e+04 2.552213e+04 0.000000e+00 2.552213e+04 -8.286400e+04 0.000000e+00 0.000000e+00 0.000000e+00 0.000000e+00
-1.099764e+05 2.199285e+04 0.000000e+00 2.199285e+04 -7.928005e+04 0.000000e+00 0.000000e+00 0.000000e+00 0.000000e+00
-1.176511e+05 1.884942e+04 0.000000e+00 1.884942e+04 -7.587771e+04 0.000000e+00 0.000000e+00 0.000000e+00 0.000000e+00
-1.217759e+05 1.476642e+04 0.000000e+00 1.476642e+04 -7.223226e+04 0.000000e+00 0.000000e+00 0.000000e+00 0.000000e+00
-1.225679e+05 9.941626e+03 0.000000e+00 9.941626e+03 -6.842454e+04 0.000000e+00 0.000000e+00 0.000000e+00 0.000000e+00
-1.196342e+05 4.553147e+03 0.000000e+00 4.553147e+03 -6.480569e+04 0.000000e+00 0.000000e+00 0.000000e+00 0.000000e+00
-1.128584e+05 -7.398813e+02 0.000000e+00 -7.398813e+02 -6.194181e+04 0.000000e+00 0.000000e+00 0.000000e+00 0.000000e+00
-1.032469e+05 -4.519854e+03 0.000000e+00 -4.519854e+03 -6.032178e+04 0.000000e+00 0.000000e+00 0.000000e+00 0.000000e+00
-8.977711e+04 -4.877181e+03 0.000000e+00 -4.877181e+03 -5.954866e+04 0.000000e+00 0.000000e+00 0.000000e+00 0.000000e+00
-7.635456e+04 -3.679362e+03 0.000000e+00 -3.679362e+03 -5.706255e+04 0.000000e+00 0.000000e+00 0.000000e+00 0.000000e+00
-8.139570e+04 2.218956e+04 0.000000e+00 2.218956e+04 -7.270857e+04 0.000000e+00 0.000000e+00 0.000000e+00 0.000000e+00
-9.591466e+04 2.239429e+04 0.000000e+00 2.239429e+04 -7.656044e+04 0.000000e+00 0.000000e+00 0.000000e+00 0.000000e+00
-1.069275e+05 1.887275e+04 0.000000e+00 1.887275e+04 -7.320163e+04 0.000000e+00 0.000000e+00 0.000000e+00 0.000000e+00
-1.134831e+05 1.530692e+04 0.000000e+00 1.530692e+04 -7.023855e+04 0.000000e+00 0.000000e+00 0.000000e+00 0.000000e+00
-1.169784e+05 1.102280e+04 0.000000e+00 1.102280e+04 -6.719412e+04 0.000000e+00 0.000000e+00 0.000000e+00 0.000000e+00
-1.171902e+05 6.269027e+03 0.000000e+00 6.269027e+03 -6.424771e+04 0.000000e+00 0.000000e+00 0.000000e+00 0.000000e+00
-1.140074e+05 1.438759e+03 0.000000e+00 1.438759e+03 -6.177366e+04 0.000000e+00 0.000000e+00 0.000000e+00 0.000000e+00
-1.082164e+05 -2.716245e+03 0.000000e+00 -2.716245e+03 -6.014160e+04 0.000000e+00 0.000000e+00 0.000000e+00 0.000000e+00
-1.011221e+05 -5.053984e+03 0.000000e+00 -5.053984e+03 -5.945088e+04 0.000000e+00 0.000000e+00 0.000000e+00 0.000000e+00
-9.218628e+04 -4.456195e+03 0.000000e+00 -4.456195e+03 -5.935316e+04 0.000000e+00 0.000000e+00 0.000000e+00 0.000000e+00
-8.377620e+04 -2.964955e+03 0.000000e+00 -2.964955e+03 -5.780205e+04 0.000000e+00 0.000000e+00 0.000000e+00 0.000000e+00
-7.645584e+04 2.012100e+04 0.000000e+00 2.012100e+04 -6.822620e+04 0.000000e+00 0.000000e+00 0.000000e+00 0.000000e+00
-9.232798e+04 1.998161e+04 0.000000e+00 1.998161e+04 -7.165466e+04 0.000000e+00 0.000000e+00 0.000000e+00 0.000000e+00
-1.033715e+05 1.621471e+04 0.000000e+00 1.621471e+04 -6.874850e+04 0.000000e+00 0.000000e+00 0.000000e+00 0.000000e+00
-1.091419e+05 1.229338e+04 0.000000e+00 1.229338e+04 -6.622159e+04 0.000000e+00 0.000000e+00 0.000000e+00 0.000000e+00
-1.121024e+05 8.059975e+03 0.000000e+00 8.059975e+03 -6.376811e+04 0.000000e+00 0.000000e+00 0.000000e+00 0.000000e+00
-1.120911e+05 3.622145e+03 0.000000e+00 3.622145e+03 -6.160575e+04 0.000000e+00 0.000000e+00 0.000000e+00 0.000000e+00
-1.093939e+05 -4.840985e+02 0.000000e+00 -4.840985e+02 -6.000656e+04 0.000000e+00 0.000000e+00 0.000000e+00 0.000000e+00
-1.050451e+05 -3.548179e+03 0.000000e+00 -3.548179e+03 -5.916849e+04 0.000000e+00 0.000000e+00 0.000000e+00 0.000000e+00
-1.002970e+05 -4.890616e+03 0.000000e+00 -4.890616e+03 -5.898727e+04 0.000000e+00 0.000000e+00 0.000000e+00 0.000000e+00
-9.493585e+04 -3.825490e+03 0.000000e+00 -3.825490e+03 -5.927230e+04 0.000000e+00 0.000000e+00 0.000000e+00 0.000000e+00
-9.004132e+04 -2.306600e+03 0.000000e+00 -2.306600e+03 -5.850246e+04 0.000000e+00 0.000000e+00 0.000000e+00 0.000000e+00
-7.348354e+04 1.817373e+04 0.000000e+00 1.817373e+04 -6.502851e+04 0.000000e+00 0.000000e+00 0.000000e+00 0.000000e+00
-8.880729e+04 1.765928e+04 0.000000e+00 1.765928e+04 -6.802174e+04 0.000000e+00 0.000000e+00 0.000000e+00 0.000000e+00
-9.926426e+04 1.377030e+04 0.000000e+00 1.377030e+04 -6.535771e+04 0.000000e+00 0.000000e+00 0.000000e+00 0.000000e+00
-1.047361e+05 9.846426e+03 0.000000e+00 9.846426e+03 -6.336649e+04 0.000000e+00 0.000000e+00 0.000000e+00 0.000000e+00
-1.073917e+05 5.831678e+03 0.000000e+00 5.831678e+03 -6.147745e+04 0.000000e+00 0.000000e+00 0.000000e+00 0.000000e+00
-1.075587e+05 1.848688e+03 0.000000e+00 1.848688e+03 -5.997430e+04 0.000000e+00 0.000000e+00 0.000000e+00 0.000000e+00
-1.057300e+05 -1.553814e+03 0.000000e+00 -1.553814e+03 -5.900689e+04 0.000000e+00 0.000000e+00 0.000000e+00 0.000000e+00
-1.029963e+05 -3.744764e+03 0.000000e+00 -3.744764e+03 -5.867212e+04 0.000000e+00 0.000000e+00 0.000000e+00 0.000000e+00
-1.002749e+05 -4.376750e+03 0.000000e+00 -4.376750e+03 -5.881029e+04 0.000000e+00 0.000000e+00 0.000000e+00 0.000000e+00
-9.762802e+04 -3.130388e+03 0.000000e+00 -3.130388e+03 -5.927861e+04 0.000000e+00 0.000000e+00 0.000000e+00 0.000000e+00
-9.533177e+04 -1.734532e+03 0.000000e+00 -1.734532e+03 -5.908515e+04 0.000000e+00 0.000000e+00 0.000000e+00 0.000000e+00
-7.108984e+04 1.622693e+04 0.000000e+00 1.622693e+04 -6.301941e+04 0.000000e+00 0.000000e+00 0.000000e+00 0.000000e+00
-8.497133e+04 1.549482e+04 0.000000e+00 1.549482e+04 -6.541650e+04 0.000000e+00 0.000000e+00 0.000000e+00 0.000000e+00
-9.516034e+04 1.166051e+04 0.000000e+00 1.166051e+04 -6.300907e+04 0.000000e+00 0.000000e+00 0.000000e+00 0.000000e+00
-1.005175e+05 7.930094e+03 0.000000e+00 7.930094e+03 -6.136274e+04 0.000000e+00 0.000000e+00 0.000000e+00 0.000000e+00
-1.030979e+05 4.191272e+03 0.000000e+00 4.191272e+03 -5.993364e+04 0.000000e+00 0.000000e+00 0.000000e+00 0.000000e+00
-1.036818e+05 7.220163e+02 0.000000e+00 7.220163e+02 -5.892437e+04 0.000000e+00 0.000000e+00 0.000000e+00 0.000000e+00
-1.028951e+05 -2.003536e+03 0.000000e+00 -2.003536e+03 -5.841459e+04 0.000000e+00 0.000000e+00 0.000000e+00 0.000000e+00
-1.017142e+05 -3.534080e+03 0.000000e+00 -3.534080e+03 -5.843380e+04 0.000000e+00 0.000000e+00 0.000000e+00 0.000000e+00
-1.007136e+05 -3.712444e+03 0.000000e+00 -3.712444e+03 -5.880079e+04 0.000000e+00 0.000000e+00 0.000000e+00 0.000000e+00
-1.000023e+05 -2.450882e+03 0.000000e+00 -2.450882e+03 -5.935524e+04 0.000000e+00 0.000000e+00 0.000000e+00 0.000000e+00
-9.956091e+04 -1.191904e+03 0.000000e+00 -1.191904e+03 -5.954431e+04 0.000000e+00 0.000000e+00 0.000000e+00 0.000000e+00
-6.883819e+04 1.398258e+04 0.000000e+00 1.398258e+04 -6.226885e+04 0.000000e+00 0.000000e+00 0.000000e+00 0.000000e+00
-8.128601e+04 1.310946e+04 0.000000e+00 1.310946e+04 -6.383755e+04 0.000000e+00 0.000000e+00 0.000000e+00 0.000000e+00
-9.130378e+04 9.697275e+03 0.000000e+00 9.697275e+03 -6.149277e+04 0.000000e+00 0.000000e+00 0.000000e+00 0.000000e+00
-9.660526e+04 6.329832e+03 0.000000e+00 6.329832e+03 -5.991945e+04 0.000000e+00 0.000000e+00 0.000000e+00 0.000000e+00
-9.937506e+04 3.021417e+03 0.000000e+00 3.021417e+03 -5.875582e+04 0.000000e+00 0.000000e+00 0.000000e+00 0.000000e+00
-1.005268e+05 1.245871e+02 0.000000e+00 1.245871e+02 -5.812974e+04 0.000000e+00 0.000000e+00 0.000000e+00 0.000000e+00
-1.008550e+05 -1.993059e+03 0.000000e+00 -1.993059e+03 -5.798201e+04 0.000000e+00 0.000000e+00 0.000000e+00 0.000000e+00
-1.009846e+05 -3.026950e+03 0.000000e+00 -3.026950e+03 -5.829743e+04 0.000000e+00 0.000000e+00 0.000000e+00 0.000000e+00
-1.013318e+05 -2.948810e+03 0.000000e+00 -2.948810e+03 -5.887440e+04 0.000000e+00 0.000000e+00 0.000000e+00 0.000000e+00
-1.019512e+05 -1.827536e+03 0.000000e+00 -1.827536e+03 -5.947911e+04 0.000000e+00 0.000000e+00 0.000000e+00 0.000000e+00
-1.026820e+05 -7.455620e+02 0.000000e+00 -7.455620e+02 -5.993639e+04 0.000000e+00 0.000000e+00 0.000000e+00 0.000000e+00
-6.751604e+04 1.133606e+04 0.000000e+00 1.133606e+04 -6.246102e+04 0.000000e+00 0.000000e+00 0.000000e+00 0.000000e+00
-7.822190e+04 1.046766e+04 0.000000e+00 1.046766e+04 -6.309375e+04 0.000000e+00 0.000000e+00 0.000000e+00 0.000000e+00
-8.787663e+04 7.712814e+03 0.000000e+00 7.712814e+03 -6.081654e+04 0.000000e+00 0.000000e+00 0.000000e+00 0.000000e+00
-9.316998e+04 4.843652e+03 0.000000e+00 4.843652e+03 -5.918145e+04 0.000000e+00 0.000000e+00 0.000000e+00 0.000000e+00
-9.624951e+04 2.126622e+03 0.000000e+00 2.126622e+03 -5.808730e+04 0.000000e+00 0.000000e+00 0.000000e+00 0.000000e+00
-9.806905e+04 -1.165535e+02 0.000000e+00 -1.165535e+02 -5.766616e+04 0.000000e+00 0.000000e+00 0.000000e+00 0.000000e+00
-9.934313e+04 -1.652311e+03 0.000000e+00 -1.652311e+03 -5.781895e+04 0.000000e+00 0.000000e+00 0.000000e+00 0.000000e+00
-1.005935e+05 -2.313379e+03 0.000000e+00 -2.313379e+03 -5.832740e+04 0.000000e+00 0.000000e+00 0.000000e+00 0.000000e+00
-1.019823e+05 -2.139770e+03 0.000000e+00 -2.139770e+03 -5.900739e+04 0.000000e+00 0.000000e+00 0.000000e+00 0.000000e+00
-1.034757e+05 -1.266014e+03 0.000000e+00 -1.266014e+03 -5.962061e+04 0.000000e+00 0.000000e+00 0.000000e+00 0.000000e+00
-1.049203e+05 -4.648387e+02 0.000000e+00 -4.648387e+02 -6.026446e+04 0.000000e+00 0.000000e+00 0.000000e+00 0.000000e+00
-6.685107e+04 8.163039e+03 0.000000e+00 8.163039e+03 -6.357193e+04 0.000000e+00 0.000000e+00 0.000000e+00 0.000000e+00
-7.603546e+04 7.442303e+03 0.000000e+00 7.442303e+03 -6.327592e+04 0.000000e+00 0.000000e+00 0.000000e+00 0.000000e+00
-8.513829e+04 5.452514e+03 0.000000e+00 5.452514e+03 -6.075448e+04 0.000000e+00 0.000000e+00 0.000000e+00 0.000000e+00
-9.042067e+04 3.280147e+03 0.000000e+00 3.280147e+03 -5.896305e+04 0.000000e+00 0.000000e+00 0.000000e+00 0.000000e+00
-9.383679e+04 1.329486e+03 0.000000e+00 1.329486e+03 -5.792360e+04 0.000000e+00 0.000000e+00 0.000000e+00 0.000000e+00
-9.632421e+04 -1.766255e+02 0.000000e+00 -1.766255e+02 -5.759804e+04 0.000000e+00 0.000000e+00 0.000000e+00 0.000000e+00
-9.837660e+04 -1.126467e+03 0.000000e+00 -1.126467e+03 -5.786387e+04 0.000000e+00 0.000000e+00 0.000000e+00 0.000000e+00
-1.004093e+05 -1.496196e+03 0.000000e+00 -1.496196e+03 -5.846324e+04 0.000000e+00 0.000000e+00 0.000000e+00 0.000000e+00
-1.024934e+05 -1.353247e+03 0.000000e+00 -1.353247e+03 -5.917000e+04 0.000000e+00 0.000000e+00 0.000000e+00 0.000000e+00
-1.045187e+05 -7.990146e+02 0.000000e+00 -7.990146e+02 -5.971638e+04 0.000000e+00 0.000000e+00 0.000000e+00 0.000000e+00
-1.065146e+05 -2.990216e+02 0.000000e+00 -2.990216e+02 -6.042363e+04 0.000000e+00 0.000000e+00 0.000000e+00 0.000000e+00
-6.641839e+04 4.269827e+03 0.000000e+00 4.269827e+03 -6.457582e+04 0.000000e+00 0.000000e+00 0.000000e+00 0.000000e+00
-7.462149e+04 3.865760e+03 0.000000e+00 3.865760e+03 -6.378138e+04 0.000000e+00 0.000000e+00 0.000000e+00 0.000000e+00
-8.327241e+04 2.795537e+03 0.000000e+00 2.795537e+03 -6.092244e+04 0.000000e+00 0.000000e+00 0.000000e+00 0.000000e+00
-8.863466e+04 1.647251e+03 0.000000e+00 1.647251e+03 -5.901133e+04 0.000000e+00 0.000000e+00 0.000000e+00 0.000000e+00
-9.232210e+04 6.418087e+02 0.000000e+00 6.418087e+02 -5.799878e+04 0.000000e+00 0.000000e+00 0.000000e+00 0.000000e+00
-9.529855e+04 -1.096700e+02 0.000000e+00 -1.096700e+02 -5.774614e+04 0.000000e+00 0.000000e+00 0.000000e+00 0.000000e+00
-9.788201e+04 -5.534287e+02 0.000000e+00 -5.534287e+02 -5.801750e+04 0.000000e+00 0.000000e+00 0.000000e+00 0.000000e+00
-1.003467e+05 -7.135065e+02 0.000000e+00 -7.135065e+02 -5.861388e+04 0.000000e+00 0.000000e+00 0.000000e+00 0.000000e+00
-1.027652e+05 -6.442411e+02 0.000000e+00 -6.442411e+02 -5.927294e+04 0.000000e+00 0.000000e+00 0.000000e+00 0.000000e+00
-1.051030e+05 -3.962058e+02 0.000000e+00 -3.962058e+02 -5.977054e+04 0.000000e+00 0.000000e+00 0.000000e+00 0.000000e+00
-1.075262e+05 -1.413776e+02 0.000000e+00 -1.413776e+02 -6.047381e+04 0.000000e+00 0.000000e+00 0.000000e+00 0.000000e+00
-6.618111e+04 1.232524e+03 0.000000e+00 1.232524e+03 -6.471375e+04 0.000000e+00 0.000000e+00 0.000000e+00 0.000000e+00
-7.409680e+04 1.128475e+03 0.000000e+00 1.128475e+03 -6.385003e+04 0.000000e+00 0.000000e+00 0.000000e+00 0.000000e+00
-8.262498e+04 7.326392e+02 0.000000e+00 7.326392e+02 -6.101867e+04 0.000000e+00 0.000000e+00 0.000000e+00 0.000000e+00
-8.805019e+04 3.061419e+02 0.000000e+00 3.061419e+02 -5.911794e+04 0.000000e+00 0.000000e+00 0.000000e+00 0.000000e+00
-9.186137e+04 -6.816256e+01 0.000000e+00 -6.816256e+01 -5.813232e+04 0.000000e+00 0.000000e+00 0.000000e+00 0.000000e+00
-9.501716e+04 -3.553640e+02 0.000000e+00 -3.553640e+02 -5.789762e+04 0.000000e+00 0.000000e+00 0.000000e+00 0.000000e+00
-9.777999e+04 -5.260314e+02 0.000000e+00 -5.260314e+02 -5.814427e+04 0.000000e+00 0.000000e+00 0.000000e+00 0.000000e+00
-1.003751e+05 -5.938749e+02 0.000000e+00 -5.938749e+02 -5.872127e+04 0.000000e+00 0.000000e+00 0.000000e+00 0.000000e+00
-1.028708e+05 -5.596025e+02 0.000000e+00 -5.596025e+02 -5.932232e+04 0.000000e+00 0.000000e+00 0.000000e+00 0.000000e+00
-1.053032e+05 -4.396440e+02 0.000000e+00 -4.396440e+02 -5.980046e+04 0.000000e+00 0.000000e+00 0.000000e+00 0.000000e+00
-1.078865e+05 -2.905336e+02 0.000000e+00 -2.905336e+02 -6.051868e+04 0.000000e+00 0.000000e+00 0.000000e+00 0.000000e+00
</DataArray>
<DataArray Name="vol_eps" type="Float64" NumberOfComponents="1" format="ascii">
-1.402430e-02
-1.185745e-02
-9.167355e-03
-7.698403e-03
-7.177224e-03
-7.818311e-03
-9.440830e-03
-1.205305e-02
-1.599587e-02
-2.037662e-02
-2.054484e-02
-1.383123e-02
-1.097881e-02
-8.994523e-03
-7.901146e-03
-7.634477e-03
-8.048301e-03
-8.809041e-03
-1.034951e-02
-1.300754e-02
-1.608900e-02
-2.254456e-02
-1.160095e-02
-8.343826e-03
-7.277837e-03
-7.260465e-03
-7.646739e-03
-8.489192e-03
-9.400390e-03
-1.007412e-02
-1.020836e-02
-1.046089e-02
-1.494726e-02
-7.332461e-03
-5.317452e-03
-5.194098e-03
-5.639600e-03
-5.512758e-03
-4.516097e-03
-2.336100e-03
5.564369e-04
4.136934e-03
8.668516e-03
1.440306e-02
-4.869302e-03
-4.479604e-03
-5.513175e-03
-6.351188e-03
-6.673404e-03
-6.567026e-03
-6.040198e-03
-5.347069e-03
-4.519926e-03
-2.675436e-03
1.267971e-03
-3.019428e-03
-3.619158e-03
-4.937093e-03
-5.511730e-03
-5.653769e-03
-5.463993e-03
-4.998541e-03
-4.337418e-03
-3.540371e-03
-1.968428e-03
5.754847e-04
-1.679663e-03
-2.975394e-03
-4.268750e-03
-4.721083e-03
-4.756486e-03
-4.499775e-03
-4.078705e-03
-3.544347e-03
-2.929001e-03
-1.783381e-03
-2.135989e-04
-7.470948e-04
-2.472542e-03
-3.704743e-03
-4.033814e-03
-3.999771e-03
-3.775387e-03
-3.417754e-03
-2.999693e-03
-2.574804e-03
-1.849620e-03
-8.306289e-04
-2.776393e-04
-2.161221e-03
-3.228368e-03
-3.454574e-03
-3.433991e-03
-3.245609e-03
-2.952925e-03
-2.650626e-03
-2.402414e-03
-2.001652e-03
-1.371114e-03
-1.124050e-04
-1.931259e-03
-2.828142e-03
-3.002552e-03
-3.007028e-03
-2.865017e-03
-2.650443e-03
-2.455217e-03
-2.339990e-03
-2.169576e-03
-1.827777e-03
-1.815657e-04
-1.760226e-03
-2.471510e-03
-2.655269e-03
-2.683555e-03
-2.599246e-03
-2.460796e-03
-2.358482e-03
-2.343237e-03
-2.319748e-03
-2.185148e-03
-3.158494e-04
-1.605218e-03
-2.184816e-03
-2.385905e-03
-2.442304e-03
-2.408493e-03
-2.337130e-03
-2.316101e-03
-2.369635e-03
-2.434303e-03
-2.439698e-03
-4.354608e-04
-1.454085e-03
-1.959248e-03
-2.165669e-03
-2.247659e-03
-2.258353e-03
-2.255213e-03
-2.302652e-03
-2.405160e-03
-2.517650e-03
-2.606152e-03
-5.235169e-04
-1.315138e-03
-1.789626e-03
-1.993967e-03
-2.090391e-03
-2.140042e-03
-2.204071e-03
-2.310422e-03
-2.449411e-03
-2.578190e-03
-2.707915e-03
-6.201841e-04
-1.216598e-03
-1.645080e-03
-1.850824e-03
-1.968865e-03
-2.069977e-03
-2.185951e-03
-2.330397e-03
-2.487478e-03
-2.607940e-03
-2.752108e-03
-6.949773e-04
-1.169252e-03
-1.541808e-03
-1.758019e-03
-1.901600e-03
-2.040958e-03
-2.188860e-03
-2.350482e-03
-2.506507e-03
-2.618652e-03
-2.773071e-03
-6.993697e-04
-1.143210e-03
-1.507335e-03
-1.734955e-03
-1.894653e-03
-2.045968e-03
-2.201854e-03
-2.365583e-03
-2.515533e-03
-2.626481e-03
-2.788887e-03
</DataArray>
</PointData>
</Piece>
</UnstructuredGrid>
</VTKFile>
