<?xml version="1.0"?>
<VTKFile type="UnstructuredGrid" version="0.1">
<UnstructuredGrid>
<FieldData>
<DataArray Name="TIME" type="Float64" format="ascii" NumberOfTuples="1">
0.000000e+00
</DataArray>
</FieldData>
<FieldData>
<DataArray Name="CYCLE" type="Int32" format="ascii" NumberOfTuples="1">
0
</DataArray>
</FieldData>
<Piece NumberOfPoints="187" NumberOfCells="160">
<Points>
<DataArray NumberOfComponents="3" type="Float64" format="ascii">
0.000000e+00 0.000000e+00 0.000000e+00
0.000000e+00 1.990971e-01 0.000000e+00
0.000000e+00 3.979411e-01 0.000000e+00
0.000000e+00 5.965038e-01 0.000000e+00
0.000000e+00 7.947874e-01 0.000000e+00
0.000000e+00 9.928205e-01 0.000000e+00
0.000000e+00 1.190693e+00 0.000000e+00
0.000000e+00 1.388503e+00 0.000000e+00
0.000000e+00 1.586415e+00 0.000000e+00
0.000000e+00 1.784683e+00 0.000000e+00
0.000000e+00 1.983125e+00 0.000000e+00
2.250000e-01 0.000000e+00 0.000000e+00
2.253007e-01 1.991405e-01 0.000000e+00
2.255938e-01 3.980494e-01 0.000000e+00
2.258757e-01 5.967193e-01 0.000000e+00
2.261143e-01 7.951431e-01 0.000000e+00
2.262690e-01 9.933237e-01 0.000000e+00
2.262856e-01 1.191297e+00 0.000000e+00
2.261330e-01 1.389140e+00 0.000000e+00
2.257412e-01 1.586942e+00 0.000000e+00
2.251715e-01 1.784823e+00 0.000000e+00
2.250000e-01 1.983125e+00 0.000000e+00
4.500000e-01 0.000000e+00 0.000000e+00
4.505549e-01 1.992281e-01 0.000000e+00
4.510668e-01 3.982986e-01 0.000000e+00
4.515432e-01 5.972202e-01 0.000000e+00
4.519591e-01 7.959946e-01 0.000000e+00
4.522734e-01 9.946066e-01 0.000000e+00
4.524225e-01 1.193014e+00 0.000000e+00
4.523231e-01 1.391142e+00 0.000000e+00
4.519404e-01 1.588909e+00 0.000000e+00
4.512775e-01 1.786228e+00 0.000000e+00
4.500000e-01 1.983125e+00 0.000000e+00
6.750000e-01 0.000000e+00 0.000000e+00
6.757292e-01 1.993427e-01 0.000000e+00
6.763561e-01 3.986140e-01 0.000000e+00
6.769025e-01 5.978428e-01 0.000000e+00
6.773654e-01 7.970577e-01 0.000000e+00
6.777285e-01 9.962872e-01 0.000000e+00
6.779503e-01 1.195573e+00 0.000000e+00
6.779784e-01 1.394964e+00 0.000000e+00
6.778219e-01 1.594511e+00 0.000000e+00
6.773525e-01 1.794323e+00 0.000000e+00
6.753021e-01 1.994777e+00 0.000000e+00
9.000000e-01 0.000000e+00 0.000000e+00
9.008136e-01 1.994747e-01 0.000000e+00
9.014593e-01 3.989413e-01 0.000000e+00
9.019871e-01 5.984243e-01 0.000000e+00
9.024049e-01 7.979431e-01 0.000000e+00
9.026997e-01 9.975202e-01 0.000000e+00
9.028367e-01 1.197178e+00 0.000000e+00
9.027764e-01 1.396937e+00 0.000000e+00
9.024864e-01 1.596831e+00 0.000000e+00
9.017120e-01 1.796904e+00 0.000000e+00
9.003035e-01 1.996848e+00 0.000000e+00
1.125000e+00 0.000000e+00 0.000000e+00
1.125819e+00 1.996064e-01 0.000000e+00
1.126435e+00 3.992385e-01 0.000000e+00
1.126912e+00 5.989055e-01 0.000000e+00
1.127268e+00 7.986196e-01 0.000000e+00
1.127492e+00 9.983941e-01 0.000000e+00
1.127559e+00 1.198240e+00 0.000000e+00
1.127439e+00 1.398166e+00 0.000000e+00
1.127079e+00 1.598177e+00 0.000000e+00
1.126414e+00 1.798225e+00 0.000000e+00
1.125508e+00 1.998236e+00 0.000000e+00
1.350000e+00 0.000000e+00 0.000000e+00
1.350765e+00 1.997160e-01 0.000000e+00
1.351330e+00 3.994719e-01 0.000000e+00
1.351754e+00 5.992677e-01 0.000000e+00
1.352053e+00 7.991095e-01 0.000000e+00
1.352221e+00 9.990042e-01 0.000000e+00
1.352243e+00 1.198955e+00 0.000000e+00
1.352098e+00 1.398960e+00 0.000000e+00
1.351765e+00 1.599007e+00 0.000000e+00
1.351251e+00 1.799059e+00 0.000000e+00
1.350656e+00 1.999056e+00 0.000000e+00
1.575000e+00 0.000000e+00 0.000000e+00
1.575680e+00 1.997995e-01 0.000000e+00
1.576184e+00 3.996444e-01 0.000000e+00
1.576555e+00 5.995296e-01 0.000000e+00
1.576805e+00 7.994564e-01 0.000000e+00
1.576933e+00 9.994250e-01 0.000000e+00
1.576931e+00 1.199435e+00 0.000000e+00
1.576791e+00 1.399479e+00 0.000000e+00
1.576516e+00 1.599540e+00 0.000000e+00
1.576142e+00 1.799586e+00 0.000000e+00
1.575749e+00 1.999590e+00 0.000000e+00
1.800000e+00 0.000000e+00 0.000000e+00
1.800582e+00 1.998609e-01 0.000000e+00
1.801021e+00 3.997682e-01 0.000000e+00
1.801341e+00 5.997136e-01 0.000000e+00
1.801550e+00 7.996939e-01 0.000000e+00
1.801651e+00 9.997079e-01 0.000000e+00
1.801641e+00 1.199751e+00 0.000000e+00
1.801522e+00 1.399813e+00 0.000000e+00
1.801311e+00 1.599876e+00 0.000000e+00
1.801046e+00 1.799922e+00 0.000000e+00
1.800792e+00 1.999933e+00 0.000000e+00
2.025000e+00 0.000000e+00 0.000000e+00
2.025484e+00 1.999036e-01 0.000000e+00
2.025857e+00 3.998517e-01 0.000000e+00
2.026129e+00 5.998353e-01 0.000000e+00
2.026304e+00 7.998500e-01 0.000000e+00
2.026386e+00 9.998913e-01 0.000000e+00
2.026376e+00 1.199952e+00 0.000000e+00
2.026284e+00 1.400020e+00 0.000000e+00
2.026130e+00 1.600084e+00 0.000000e+00
2.025949e+00 1.800130e+00 0.000000e+00
2.025789e+00 2.000150e+00 0.000000e+00
2.250000e+00 0.000000e+00 0.000000e+00
2.250392e+00 1.999325e-01 0.000000e+00
2.250701e+00 3.999066e-01 0.000000e+00
2.250928e+00 5.999144e-01 0.000000e+00
2.251074e+00 7.999493e-01 0.000000e+00
2.251141e+00 1.000005e+00 0.000000e+00
2.251136e+00 1.200073e+00 0.000000e+00
2.251070e+00 1.400144e+00 0.000000e+00
2.250962e+00 1.600207e+00 0.000000e+00
2.250843e+00 1.800255e+00 0.000000e+00
2.250748e+00 2.000282e+00 0.000000e+00
2.475000e+00 0.000000e+00 0.000000e+00
2.475310e+00 1.999518e-01 0.000000e+00
2.475558e+00 3.999425e-01 0.000000e+00
2.475743e+00 5.999640e-01 0.000000e+00
2.475861e+00 8.000094e-01 0.000000e+00
2.475917e+00 1.000071e+00 0.000000e+00
2.475917e+00 1.200142e+00 0.000000e+00
2.475873e+00 1.400213e+00 0.000000e+00
2.475801e+00 1.600276e+00 0.000000e+00
2.475725e+00 1.800325e+00 0.000000e+00
2.475674e+00 2.000360e+00 0.000000e+00
2.700000e+00 0.000000e+00 0.000000e+00
2.700237e+00 1.999646e-01 0.000000e+00
2.700429e+00 3.999646e-01 0.000000e+00
2.700573e+00 5.999939e-01 0.000000e+00
2.700666e+00 8.000450e-01 0.000000e+00
2.700711e+00 1.000110e+00 0.000000e+00
2.700715e+00 1.200180e+00 0.000000e+00
2.700687e+00 1.400250e+00 0.000000e+00
2.700641e+00 1.600312e+00 0.000000e+00
2.700596e+00 1.800363e+00 0.000000e+00
2.700572e+00 2.000404e+00 0.000000e+00
2.925000e+00 0.000000e+00 0.000000e+00
2.925172e+00 1.999735e-01 0.000000e+00
2.925313e+00 3.999800e-01 0.000000e+00
2.925417e+00 6.000136e-01 0.000000e+00
2.925486e+00 8.000672e-01 0.000000e+00
2.925521e+00 1.000133e+00 0.000000e+00
2.925526e+00 1.200202e+00 0.000000e+00
2.925510e+00 1.400271e+00 0.000000e+00
2.925482e+00 1.600332e+00 0.000000e+00
2.925456e+00 1.800385e+00 0.000000e+00
2.925447e+00 2.000431e+00 0.000000e+00
3.150000e+00 0.000000e+00 0.000000e+00
3.150113e+00 1.999813e-01 0.000000e+00
3.150205e+00 3.999926e-01 0.000000e+00
3.150273e+00 6.000292e-01 0.000000e+00
3.150318e+00 8.000842e-01 0.000000e+00
3.150342e+00 1.000150e+00 0.000000e+00
3.150346e+00 1.200219e+00 0.000000e+00
3.150337e+00 1.400286e+00 0.000000e+00
3.150322e+00 1.600347e+00 0.000000e+00
3.150309e+00 1.800402e+00 0.000000e+00
3.150307e+00 2.000451e+00 0.000000e+00
3.375000e+00 0.000000e+00 0.000000e+00
3.375058e+00 1.999883e-01 0.000000e+00
3.375102e+00 4.000060e-01 0.000000e+00
3.375135e+00 6.000465e-01 0.000000e+00
3.375157e+00 8.001027e-01 0.000000e+00
3.375169e+00 1.000168e+00 0.000000e+00
3.375172e+00 1.200237e+00 0.000000e+00
3.375168e+00 1.400304e+00 0.000000e+00
3.375161e+00 1.600365e+00 0.000000e+00
3.375156e+00 1.800420e+00 0.000000e+00
3.375156e+00 2.000472e+00 0.000000e+00
3.600000e+00 0.000000e+00 0.000000e+00
3.600000e+00 2.000042e-01 0.000000e+00
3.600000e+00 4.000277e-01 0.000000e+00
3.600000e+00 6.000699e-01 0.000000e+00
3.600000e+00 8.001270e-01 0.000000e+00
3.600000e+00 1.000193e+00 0.000000e+00
3.600000e+00 1.200261e+00 0.000000e+00
3.600000e+00 1.400328e+00 0.000000e+00
3.600000e+00 1.600389e+00 0.000000e+00
3.600000e+00 1.800444e+00 0.000000e+00
3.600000e+00 2.000497e+00 0.000000e+00
</DataArray>
</Points>
<Cells>
<DataArray Name="connectivity" type="Int32" format="ascii">
0 11 12 1
1 12 13 2
2 13 14 3
3 14 15 4
4 15 16 5
5 16 17 6
6 17 18 7
7 18 19 8
8 19 20 9
9 20 21 10
11 22 23 12
12 23 24 13
13 24 25 14
14 25 26 15
15 26 27 16
16 27 28 17
17 28 29 18
18 29 30 19
19 30 31 20
20 31 32 21
22 33 34 23
23 34 35 24
24 35 36 25
25 36 37 26
26 37 38 27
27 38 39 28
28 39 40 29
29 40 41 30
30 41 42 31
31 42 43 32
33 44 45 34
34 45 46 35
35 46 47 36
36 47 48 37
37 48 49 38
38 49 50 39
39 50 51 40
40 51 52 41
41 52 53 42
42 53 54 43
44 55 56 45
45 56 57 46
46 57 58 47
47 58 59 48
48 59 60 49
49 60 61 50
50 61 62 51
51 62 63 52
52 63 64 53
53 64 65 54
55 66 67 56
56 67 68 57
57 68 69 58
58 69 70 59
59 70 71 60
60 71 72 61
61 72 73 62
62 73 74 63
63 74 75 64
64 75 76 65
66 77 78 67
67 78 79 68
68 79 80 69
69 80 81 70
70 81 82 71
71 82 83 72
72 83 84 73
73 84 85 74
74 85 86 75
75 86 87 76
77 88 89 78
78 89 90 79
79 90 91 80
80 91 92 81
81 92 93 82
82 93 94 83
83 94 95 84
84 95 96 85
85 96 97 86
86 97 98 87
88 99 100 89
89 100 101 90
90 101 102 91
91 102 103 92
92 103 104 93
93 104 105 94
94 105 106 95
95 106 107 96
96 107 108 97
97 108 109 98
99 110 111 100
100 111 112 101
101 112 113 102
102 113 114 103
103 114 115 104
104 115 116 105
105 116 117 106
106 117 118 107
107 118 119 108
108 119 120 109
110 121 122 111
111 122 123 112
112 123 124 113
113 124 125 114
114 125 126 115
115 126 127 116
116 127 128 117
117 128 129 118
118 129 130 119
119 130 131 120
121 132 133 122
122 133 134 123
123 134 135 124
124 135 136 125
125 136 137 126
126 137 138 127
127 138 139 128
128 139 140 129
129 140 141 130
130 141 142 131
132 143 144 133
133 144 145 134
134 145 146 135
135 146 147 136
136 147 148 137
137 148 149 138
138 149 150 139
139 150 151 140
140 151 152 141
141 152 153 142
143 154 155 144
144 155 156 145
145 156 157 146
146 157 158 147
147 158 159 148
148 159 160 149
149 160 161 150
150 161 162 151
151 162 163 152
152 163 164 153
154 165 166 155
155 166 167 156
156 167 168 157
157 168 169 158
158 169 170 159
159 170 171 160
160 171 172 161
161 172 173 162
162 173 174 163
163 174 175 164
165 176 177 166
166 177 178 167
167 178 179 168
168 179 180 169
169 180 181 170
170 181 182 171
171 182 183 172
172 183 184 173
173 184 185 174
174 185 186 175
</DataArray>
<DataArray Name="offsets" type="Int32" format="ascii">
4
8
12
16
20
24
28
32
36
40
44
48
52
56
60
64
68
72
76
80
84
88
92
96
100
104
108
112
116
120
124
128
132
136
140
144
148
152
156
160
164
168
172
176
180
184
188
192
196
200
204
208
212
216
220
224
228
232
236
240
244
248
252
256
260
264
268
272
276
280
284
288
292
296
300
304
308
312
316
320
324
328
332
336
340
344
348
352
356
360
364
368
372
376
380
384
388
392
396
400
404
408
412
416
420
424
428
432
436
440
444
448
452
456
460
464
468
472
476
480
484
488
492
496
500
504
508
512
516
520
524
528
532
536
540
544
548
552
556
560
564
568
572
576
580
584
588
592
596
600
604
608
612
616
620
624
628
632
636
640
</DataArray>
<DataArray Name="types" type="UInt8" format="ascii">
9
9
9
9
9
9
9
9
9
9
9
9
9
9
9
9
9
9
9
9
9
9
9
9
9
9
9
9
9
9
9
9
9
9
9
9
9
9
9
9
9
9
9
9
9
9
9
9
9
9
9
9
9
9
9
9
9
9
9
9
9
9
9
9
9
9
9
9
9
9
9
9
9
9
9
9
9
9
9
9
9
9
9
9
9
9
9
9
9
9
9
9
9
9
9
9
9
9
9
9
9
9
9
9
9
9
9
9
9
9
9
9
9
9
9
9
9
9
9
9
9
9
9
9
9
9
9
9
9
9
9
9
9
9
9
9
9
9
9
9
9
9
9
9
9
9
9
9
9
9
9
9
9
9
9
9
9
9
9
9
</DataArray>
</Cells>
<PointData>
<DataArray Name="disp" type="Float64" NumberOfComponents="3" format="ascii">
0.000000e+00 0.000000e+00 0.000000e+00
0.000000e+00 -9.028721e-04 0.000000e+00
0.000000e+00 -2.058922e-03 0.000000e+00
0.000000e+00 -3.496212e-03 0.000000e+00
0.000000e+00 -5.212576e-03 0.000000e+00
0.000000e+00 -7.179508e-03 0.000000e+00
0.000000e+00 -9.306474e-03 0.000000e+00
0.000000e+00 -1.149704e-02 0.000000e+00
0.000000e+00 -1.358503e-02 0.000000e+00
0.000000e+00 -1.531717e-02 0.000000e+00
0.000000e+00 -1.687500e-02 0.000000e+00
0.000000e+00 0.000000e+00 0.000000e+00
3.007115e-04 -8.594487e-04 0.000000e+00
5.938218e-04 -1.950569e-03 0.000000e+00
8.757169e-04 -3.280708e-03 0.000000e+00
1.114297e-03 -4.856875e-03 0.000000e+00
1.269004e-03 -6.676309e-03 0.000000e+00
1.285613e-03 -8.703003e-03 0.000000e+00
1.133052e-03 -1.086007e-02 0.000000e+00
7.411729e-04 -1.305786e-02 0.000000e+00
1.714649e-04 -1.517695e-02 0.000000e+00
0.000000e+00 -1.687500e-02 0.000000e+00
0.000000e+00 0.000000e+00 0.000000e+00
5.548930e-04 -7.718656e-04 0.000000e+00
1.066752e-03 -1.701428e-03 0.000000e+00
1.543161e-03 -2.779793e-03 0.000000e+00
1.959122e-03 -4.005413e-03 0.000000e+00
2.273367e-03 -5.393463e-03 0.000000e+00
2.422478e-03 -6.986264e-03 0.000000e+00
2.323100e-03 -8.857622e-03 0.000000e+00
1.940407e-03 -1.109117e-02 0.000000e+00
1.277492e-03 -1.377177e-02 0.000000e+00
0.000000e+00 -1.687500e-02 0.000000e+00
0.000000e+00 0.000000e+00 0.000000e+00
7.292061e-04 -6.573253e-04 0.000000e+00
1.356133e-03 -1.386034e-03 0.000000e+00
1.902487e-03 -2.157275e-03 0.000000e+00
2.365407e-03 -2.942224e-03 0.000000e+00
2.728531e-03 -3.712765e-03 0.000000e+00
2.950272e-03 -4.426686e-03 0.000000e+00
2.978386e-03 -5.035504e-03 0.000000e+00
2.821903e-03 -5.488957e-03 0.000000e+00
2.352482e-03 -5.676763e-03 0.000000e+00
3.020784e-04 -5.223418e-03 0.000000e+00
0.000000e+00 0.000000e+00 0.000000e+00
8.136298e-04 -5.253076e-04 0.000000e+00
1.459316e-03 -1.058683e-03 0.000000e+00
1.987115e-03 -1.575720e-03 0.000000e+00
2.404880e-03 -2.056925e-03 0.000000e+00
2.699695e-03 -2.479790e-03 0.000000e+00
2.836731e-03 -2.822439e-03 0.000000e+00
2.776356e-03 -3.063341e-03 0.000000e+00
2.486396e-03 -3.168534e-03 0.000000e+00
1.712023e-03 -3.096192e-03 0.000000e+00
3.035546e-04 -3.152308e-03 0.000000e+00
0.000000e+00 0.000000e+00 0.000000e+00
8.186058e-04 -3.936220e-04 0.000000e+00
1.434657e-03 -7.615357e-04 0.000000e+00
1.912468e-03 -1.094519e-03 0.000000e+00
2.267929e-03 -1.380346e-03 0.000000e+00
2.491579e-03 -1.605932e-03 0.000000e+00
2.558952e-03 -1.759936e-03 0.000000e+00
2.439325e-03 -1.834461e-03 0.000000e+00
2.079507e-03 -1.822669e-03 0.000000e+00
1.414385e-03 -1.775359e-03 0.000000e+00
5.080848e-04 -1.764037e-03 0.000000e+00
0.000000e+00 0.000000e+00 0.000000e+00
7.653973e-04 -2.840313e-04 0.000000e+00
1.329709e-03 -5.280657e-04 0.000000e+00
1.754426e-03 -7.323408e-04 0.000000e+00
2.052977e-03 -8.905496e-04 0.000000e+00
2.220825e-03 -9.958409e-04 0.000000e+00
2.242962e-03 -1.045161e-03 0.000000e+00
2.097840e-03 -1.039793e-03 0.000000e+00
1.764663e-03 -9.933050e-04 0.000000e+00
1.250979e-03 -9.409789e-04 0.000000e+00
6.559293e-04 -9.442131e-04 0.000000e+00
0.000000e+00 0.000000e+00 0.000000e+00
6.798477e-04 -2.004801e-04 0.000000e+00
1.184320e-03 -3.556305e-04 0.000000e+00
1.554924e-03 -4.704145e-04 0.000000e+00
1.804752e-03 -5.435643e-04 0.000000e+00
1.933098e-03 -5.750122e-04 0.000000e+00
1.931103e-03 -5.655228e-04 0.000000e+00
1.791039e-03 -5.215007e-04 0.000000e+00
1.516153e-03 -4.605232e-04 0.000000e+00
1.141645e-03 -4.141969e-04 0.000000e+00
7.491478e-04 -4.098211e-04 0.000000e+00
0.000000e+00 0.000000e+00 0.000000e+00
5.822568e-04 -1.391186e-04 0.000000e+00
1.021132e-03 -2.318154e-04 0.000000e+00
1.340546e-03 -2.863968e-04 0.000000e+00
1.550430e-03 -3.060386e-04 0.000000e+00
1.651333e-03 -2.920884e-04 0.000000e+00
1.640665e-03 -2.491647e-04 0.000000e+00
1.521979e-03 -1.873471e-04 0.000000e+00
1.311125e-03 -1.236211e-04 0.000000e+00
1.046337e-03 -7.823807e-05 0.000000e+00
7.917313e-04 -6.660951e-05 0.000000e+00
0.000000e+00 0.000000e+00 0.000000e+00
4.841646e-04 -9.641926e-05 0.000000e+00
8.568713e-04 -1.482725e-04 0.000000e+00
1.129133e-03 -1.647050e-04 0.000000e+00
1.304333e-03 -1.499572e-04 0.000000e+00
1.385750e-03 -1.086600e-04 0.000000e+00
1.376092e-03 -4.837468e-05 0.000000e+00
1.284345e-03 2.040877e-05 0.000000e+00
1.130320e-03 8.442915e-05 0.000000e+00
9.488330e-04 1.303237e-04 0.000000e+00
7.895968e-04 1.501410e-04 0.000000e+00
0.000000e+00 0.000000e+00 0.000000e+00
3.922392e-04 -6.746211e-05 0.000000e+00
7.010713e-04 -9.340168e-05 0.000000e+00
9.284761e-04 -8.561678e-05 0.000000e+00
1.073521e-03 -5.063154e-05 0.000000e+00
1.140656e-03 4.840448e-06 0.000000e+00
1.136077e-03 7.272623e-05 0.000000e+00
1.070081e-03 1.435035e-04 0.000000e+00
9.624094e-04 2.072168e-04 0.000000e+00
8.425720e-04 2.546197e-04 0.000000e+00
7.482996e-04 2.821816e-04 0.000000e+00
0.000000e+00 0.000000e+00 0.000000e+00
3.096829e-04 -4.819926e-05 0.000000e+00
5.581664e-04 -5.744057e-05 0.000000e+00
7.426756e-04 -3.603873e-05 0.000000e+00
8.609411e-04 9.444439e-06 0.000000e+00
9.168903e-04 7.142620e-05 0.000000e+00
9.172199e-04 1.419204e-04 0.000000e+00
8.727953e-04 2.125562e-04 0.000000e+00
8.004812e-04 2.755568e-04 0.000000e+00
7.248792e-04 3.249304e-04 0.000000e+00
6.736554e-04 3.597342e-04 0.000000e+00
0.000000e+00 0.000000e+00 0.000000e+00
2.364531e-04 -3.539611e-05 0.000000e+00
4.292219e-04 -3.537022e-05 0.000000e+00
5.727937e-04 -6.143636e-06 0.000000e+00
6.660337e-04 4.496155e-05 0.000000e+00
7.114222e-04 1.098081e-04 0.000000e+00
7.153373e-04 1.803488e-04 0.000000e+00
6.872171e-04 2.497985e-04 0.000000e+00
6.409691e-04 3.119812e-04 0.000000e+00
5.956509e-04 3.632592e-04 0.000000e+00
5.715270e-04 4.041600e-04 0.000000e+00
0.000000e+00 0.000000e+00 0.000000e+00
1.717915e-04 -2.653546e-05 0.000000e+00
3.126262e-04 -1.997667e-05 0.000000e+00
4.171777e-04 1.363326e-05 0.000000e+00
4.860640e-04 6.720873e-05 0.000000e+00
5.210554e-04 1.326345e-04 0.000000e+00
5.263249e-04 2.024419e-04 0.000000e+00
5.095743e-04 2.705438e-04 0.000000e+00
4.817315e-04 3.322109e-04 0.000000e+00
4.562277e-04 3.852432e-04 0.000000e+00
4.475159e-04 4.311168e-04 0.000000e+00
0.000000e+00 0.000000e+00 0.000000e+00
1.134019e-04 -1.869669e-05 0.000000e+00
2.050700e-04 -7.384403e-06 0.000000e+00
2.726728e-04 2.920734e-05 0.000000e+00
3.177775e-04 8.423293e-05 0.000000e+00
3.415152e-04 1.498001e-04 0.000000e+00
3.462683e-04 2.189325e-04 0.000000e+00
3.371964e-04 2.860060e-04 0.000000e+00
3.218737e-04 3.473646e-04 0.000000e+00
3.087603e-04 4.017146e-04 0.000000e+00
3.071734e-04 4.511799e-04 0.000000e+00
0.000000e+00 0.000000e+00 0.000000e+00
5.821069e-05 -1.171445e-05 0.000000e+00
1.021749e-04 5.980216e-06 0.000000e+00
1.349654e-04 4.642843e-05 0.000000e+00
1.570651e-04 1.026779e-04 0.000000e+00
1.690116e-04 1.683508e-04 0.000000e+00
1.718106e-04 2.371161e-04 0.000000e+00
1.679105e-04 3.036569e-04 0.000000e+00
1.611852e-04 3.648533e-04 0.000000e+00
1.557888e-04 4.200529e-04 0.000000e+00
1.560485e-04 4.716433e-04 0.000000e+00
0.000000e+00 0.000000e+00 0.000000e+00
0.000000e+00 4.202882e-06 0.000000e+00
0.000000e+00 2.769140e-05 0.000000e+00
0.000000e+00 6.995588e-05 0.000000e+00
0.000000e+00 1.270042e-04 0.000000e+00
0.000000e+00 1.927259e-04 0.000000e+00
0.000000e+00 2.613788e-04 0.000000e+00
0.000000e+00 3.277336e-04 0.000000e+00
0.000000e+00 3.889089e-04 0.000000e+00
0.000000e+00 4.444300e-04 0.000000e+00
0.000000e+00 4.967030e-04 0.000000e+00
</DataArray>
<DataArray Name="shear" type="Float64" NumberOfComponents="1" format="ascii">
4.929343e-03
6.437690e-03
9.041151e-03
1.164531e-02
1.401706e-02
1.577474e-02
1.650434e-02
1.582679e-02
1.323681e-02
9.757820e-03
8.307369e-03
4.934702e-03
6.297186e-03
8.614333e-03
1.093060e-02
1.314827e-02
1.504798e-02
1.629106e-02
1.650460e-02
1.542929e-02
1.285391e-02
1.054388e-02
5.051044e-03
6.014269e-03
7.622326e-03
9.267794e-03
1.103749e-02
1.302981e-02
1.528390e-02
1.784406e-02
2.077666e-02
2.259783e-02
2.273026e-02
5.115788e-03
5.598142e-03
6.348875e-03
7.174633e-03
8.149251e-03
9.375882e-03
1.099209e-02
1.334521e-02
1.648385e-02
1.815893e-02
1.927076e-02
4.993759e-03
5.080086e-03
5.163307e-03
5.391353e-03
5.685442e-03
5.974439e-03
6.177008e-03
6.255921e-03
5.761201e-03
3.536823e-03
1.036241e-03
4.657201e-03
4.493593e-03
4.192919e-03
4.109503e-03
4.087732e-03
4.036031e-03
3.885336e-03
3.551549e-03
2.783388e-03
1.253133e-03
2.609697e-04
4.167856e-03
3.891090e-03
3.428245e-03
3.202015e-03
3.048985e-03
2.886889e-03
2.655481e-03
2.287992e-03
1.671926e-03
6.801940e-04
1.620632e-04
3.609199e-03
3.321709e-03
2.846341e-03
2.578781e-03
2.393136e-03
2.219488e-03
2.012333e-03
1.719259e-03
1.260370e-03
5.502916e-04
8.291148e-05
3.042569e-03
2.791017e-03
2.380338e-03
2.134317e-03
1.970010e-03
1.833505e-03
1.679213e-03
1.456065e-03
1.103225e-03
5.681011e-04
1.607549e-04
2.504887e-03
2.304149e-03
1.988900e-03
1.800885e-03
1.687552e-03
1.601340e-03
1.492796e-03
1.320369e-03
1.041117e-03
6.250562e-04
3.193108e-04
2.016846e-03
1.868091e-03
1.654881e-03
1.541605e-03
1.484782e-03
1.442967e-03
1.371424e-03
1.237383e-03
1.013835e-03
6.939390e-04
4.763214e-04
1.585646e-03
1.481817e-03
1.360875e-03
1.325825e-03
1.327932e-03
1.324711e-03
1.281833e-03
1.177593e-03
1.001026e-03
7.650599e-04
6.179487e-04
1.208138e-03
1.142739e-03
1.106169e-03
1.149632e-03
1.207235e-03
1.234565e-03
1.212144e-03
1.132010e-03
9.961016e-04
8.311305e-04
7.379510e-04
8.776569e-04
8.480563e-04
8.962104e-04
1.012762e-03
1.116119e-03
1.167047e-03
1.159862e-03
1.098829e-03
9.972029e-04
8.877833e-04
8.338578e-04
5.807742e-04
5.919567e-04
7.371110e-04
9.184771e-04
1.054010e-03
1.121769e-03
1.125057e-03
1.077799e-03
1.002025e-03
9.314330e-04
9.036098e-04
3.072719e-04
4.005914e-04
6.498283e-04
8.688277e-04
1.019037e-03
1.096208e-03
1.106809e-03
1.068744e-03
1.008945e-03
9.601475e-04
9.458687e-04
1.451273e-04
3.340954e-04
6.241624e-04
8.514056e-04
1.006168e-03
1.087278e-03
1.101813e-03
1.067911e-03
1.013706e-03
9.710402e-04
9.599933e-04
</DataArray>
<DataArray Name="stress" type="Float64" NumberOfComponents="9" format="ascii">
-7.541378e+04 1.465809e+03 0.000000e+00 1.465809e+03 -1.066467e+05 0.000000e+00 0.000000e+00 0.000000e+00 0.000000e+00
-7.094723e+04 1.582510e+03 0.000000e+00 1.582510e+03 -1.072604e+05 0.000000e+00 0.000000e+00 0.000000e+00 0.000000e+00
-6.808209e+04 1.907710e+03 0.000000e+00 1.907710e+03 -1.112627e+05 0.000000e+00 0.000000e+00 0.000000e+00 0.000000e+00
-6.772851e+04 2.406638e+03 0.000000e+00 2.406638e+03 -1.157533e+05 0.000000e+00 0.000000e+00 0.000000e+00 0.000000e+00
-6.885558e+04 2.993494e+03 0.000000e+00 2.993494e+03 -1.209863e+05 0.000000e+00 0.000000e+00 0.000000e+00 0.000000e+00
-7.087716e+04 3.626914e+03 0.000000e+00 3.626914e+03 -1.270034e+05 0.000000e+00 0.000000e+00 0.000000e+00 0.000000e+00
-7.395045e+04 3.928569e+03 0.000000e+00 3.928569e+03 -1.335558e+05 0.000000e+00 0.000000e+00 0.000000e+00 0.000000e+00
-7.856418e+04 3.632333e+03 0.000000e+00 3.632333e+03 -1.395295e+05 0.000000e+00 0.000000e+00 0.000000e+00 0.000000e+00
-8.449339e+04 2.334363e+03 0.000000e+00 2.334363e+03 -1.437951e+05 0.000000e+00 0.000000e+00 0.000000e+00 0.000000e+00
-9.239905e+04 1.521302e+02 0.000000e+00 1.521302e+02 -1.461947e+05 0.000000e+00 0.000000e+00 0.000000e+00 0.000000e+00
-9.560955e+04 -4.947893e+02 0.000000e+00 -4.947893e+02 -1.453729e+05 0.000000e+00 0.000000e+00 0.000000e+00 0.000000e+00
-7.506062e+04 4.304496e+03 0.000000e+00 4.304496e+03 -1.046805e+05 0.000000e+00 0.000000e+00 0.000000e+00 0.000000e+00
-7.094510e+04 4.332944e+03 0.000000e+00 4.332944e+03 -1.052109e+05 0.000000e+00 0.000000e+00 0.000000e+00 0.000000e+00
-6.833793e+04 4.675430e+03 0.000000e+00 4.675430e+03 -1.089025e+05 0.000000e+00 0.000000e+00 0.000000e+00 0.000000e+00
-6.811099e+04 5.427208e+03 0.000000e+00 5.427208e+03 -1.130310e+05 0.000000e+00 0.000000e+00 0.000000e+00 0.000000e+00
-6.936189e+04 6.390347e+03 0.000000e+00 6.390347e+03 -1.179138e+05 0.000000e+00 0.000000e+00 0.000000e+00 0.000000e+00
-7.146195e+04 7.318190e+03 0.000000e+00 7.318190e+03 -1.236682e+05 0.000000e+00 0.000000e+00 0.000000e+00 0.000000e+00
-7.440721e+04 7.779921e+03 0.000000e+00 7.779921e+03 -1.302367e+05 0.000000e+00 0.000000e+00 0.000000e+00 0.000000e+00
-7.844400e+04 7.352250e+03 0.000000e+00 7.352250e+03 -1.374622e+05 0.000000e+00 0.000000e+00 0.000000e+00 0.000000e+00
-8.345252e+04 5.207738e+03 0.000000e+00 5.207738e+03 -1.447953e+05 0.000000e+00 0.000000e+00 0.000000e+00 0.000000e+00
-9.003955e+04 1.565513e+03 0.000000e+00 1.565513e+03 -1.498024e+05 0.000000e+00 0.000000e+00 0.000000e+00 0.000000e+00
-9.842166e+04 -1.690374e+03 0.000000e+00 -1.690374e+03 -1.559648e+05 0.000000e+00 0.000000e+00 0.000000e+00 0.000000e+00
-7.430148e+04 7.804672e+03 0.000000e+00 7.804672e+03 -1.002224e+05 0.000000e+00 0.000000e+00 0.000000e+00 0.000000e+00
-7.100537e+04 7.864147e+03 0.000000e+00 7.864147e+03 -1.004587e+05 0.000000e+00 0.000000e+00 0.000000e+00 0.000000e+00
-6.913464e+04 8.458337e+03 0.000000e+00 8.458337e+03 -1.030638e+05 0.000000e+00 0.000000e+00 0.000000e+00 0.000000e+00
-6.929432e+04 9.817948e+03 0.000000e+00 9.817948e+03 -1.059887e+05 0.000000e+00 0.000000e+00 0.000000e+00 0.000000e+00
-7.076145e+04 1.162401e+04 0.000000e+00 1.162401e+04 -1.093235e+05 0.000000e+00 0.000000e+00 0.000000e+00 0.000000e+00
-7.306016e+04 1.367952e+04 0.000000e+00 1.367952e+04 -1.134056e+05 0.000000e+00 0.000000e+00 0.000000e+00 0.000000e+00
-7.640412e+04 1.565773e+04 0.000000e+00 1.565773e+04 -1.187639e+05 0.000000e+00 0.000000e+00 0.000000e+00 0.000000e+00
-8.100769e+04 1.707097e+04 0.000000e+00 1.707097e+04 -1.261095e+05 0.000000e+00 0.000000e+00 0.000000e+00 0.000000e+00
-8.669083e+04 1.726104e+04 0.000000e+00 1.726104e+04 -1.358244e+05 0.000000e+00 0.000000e+00 0.000000e+00 0.000000e+00
-9.720305e+04 1.575179e+04 0.000000e+00 1.575179e+04 -1.493480e+05 0.000000e+00 0.000000e+00 0.000000e+00 0.000000e+00
-1.150759e+05 1.364257e+04 0.000000e+00 1.364257e+04 -1.657033e+05 0.000000e+00 0.000000e+00 0.000000e+00 0.000000e+00
-7.315264e+04 9.984261e+03 0.000000e+00 9.984261e+03 -9.456022e+04 0.000000e+00 0.000000e+00 0.000000e+00 0.000000e+00
-7.101382e+04 1.001934e+04 0.000000e+00 1.001934e+04 -9.452586e+04 0.000000e+00 0.000000e+00 0.000000e+00 0.000000e+00
-7.013279e+04 1.057019e+04 0.000000e+00 1.057019e+04 -9.569208e+04 0.000000e+00 0.000000e+00 0.000000e+00 0.000000e+00
-7.075898e+04 1.190340e+04 0.000000e+00 1.190340e+04 -9.658572e+04 0.000000e+00 0.000000e+00 0.000000e+00 0.000000e+00
-7.219455e+04 1.363402e+04 0.000000e+00 1.363402e+04 -9.696644e+04 0.000000e+00 0.000000e+00 0.000000e+00 0.000000e+00
-7.390241e+04 1.557156e+04 0.000000e+00 1.557156e+04 -9.654689e+04 0.000000e+00 0.000000e+00 0.000000e+00 0.000000e+00
-7.543552e+04 1.738993e+04 0.000000e+00 1.738993e+04 -9.480277e+04 0.000000e+00 0.000000e+00 0.000000e+00 0.000000e+00
-7.659980e+04 1.864432e+04 0.000000e+00 1.864432e+04 -9.154286e+04 0.000000e+00 0.000000e+00 0.000000e+00 0.000000e+00
-7.756089e+04 1.858023e+04 0.000000e+00 1.858023e+04 -8.629429e+04 0.000000e+00 0.000000e+00 0.000000e+00 0.000000e+00
-7.682091e+04 1.607860e+04 0.000000e+00 1.607860e+04 -7.703736e+04 0.000000e+00 0.000000e+00 0.000000e+00 0.000000e+00
-7.451793e+04 1.373122e+04 0.000000e+00 1.373122e+04 -7.184869e+04 0.000000e+00 0.000000e+00 0.000000e+00 0.000000e+00
-7.155615e+04 1.089717e+04 0.000000e+00 1.089717e+04 -8.825209e+04 0.000000e+00 0.000000e+00 0.000000e+00 0.000000e+00
-7.081634e+04 1.084036e+04 0.000000e+00 1.084036e+04 -8.808085e+04 0.000000e+00 0.000000e+00 0.000000e+00 0.000000e+00
-7.102734e+04 1.103265e+04 0.000000e+00 1.103265e+04 -8.816238e+04 0.000000e+00 0.000000e+00 0.000000e+00 0.000000e+00
-7.224545e+04 1.184581e+04 0.000000e+00 1.184581e+04 -8.772466e+04 0.000000e+00 0.000000e+00 0.000000e+00 0.000000e+00
-7.399012e+04 1.285341e+04 0.000000e+00 1.285341e+04 -8.659499e+04 0.000000e+00 0.000000e+00 0.000000e+00 0.000000e+00
-7.592076e+04 1.368388e+04 0.000000e+00 1.368388e+04 -8.458908e+04 0.000000e+00 0.000000e+00 0.000000e+00 0.000000e+00
-7.756216e+04 1.414007e+04 0.000000e+00 1.414007e+04 -8.155019e+04 0.000000e+00 0.000000e+00 0.000000e+00 0.000000e+00
-7.858538e+04 1.401389e+04 0.000000e+00 1.401389e+04 -7.723757e+04 0.000000e+00 0.000000e+00 0.000000e+00 0.000000e+00
-7.931885e+04 1.234929e+04 0.000000e+00 1.234929e+04 -7.138396e+04 0.000000e+00 0.000000e+00 0.000000e+00 0.000000e+00
-7.615827e+04 6.907018e+03 0.000000e+00 6.907018e+03 -6.576077e+04 0.000000e+00 0.000000e+00 0.000000e+00 0.000000e+00
-6.308620e+04 2.035692e+03 0.000000e+00 2.035692e+03 -5.946850e+04 0.000000e+00 0.000000e+00 0.000000e+00 0.000000e+00
-6.970685e+04 1.087328e+04 0.000000e+00 1.087328e+04 -8.192359e+04 0.000000e+00 0.000000e+00 0.000000e+00 0.000000e+00
-7.027094e+04 1.071409e+04 0.000000e+00 1.071409e+04 -8.174763e+04 0.000000e+00 0.000000e+00 0.000000e+00 0.000000e+00
-7.143813e+04 1.047311e+04 0.000000e+00 1.047311e+04 -8.110248e+04 0.000000e+00 0.000000e+00 0.000000e+00 0.000000e+00
-7.301752e+04 1.066472e+04 0.000000e+00 1.066472e+04 -7.999784e+04 0.000000e+00 0.000000e+00 0.000000e+00 0.000000e+00
-7.475063e+04 1.086185e+04 0.000000e+00 1.086185e+04 -7.831861e+04 0.000000e+00 0.000000e+00 0.000000e+00 0.000000e+00
-7.634957e+04 1.077225e+04 0.000000e+00 1.077225e+04 -7.598421e+04 0.000000e+00 0.000000e+00 0.000000e+00 0.000000e+00
-7.743667e+04 1.020386e+04 0.000000e+00 1.020386e+04 -7.295396e+04 0.000000e+00 0.000000e+00 0.000000e+00 0.000000e+00
-7.761377e+04 8.876816e+03 0.000000e+00 8.876816e+03 -6.917291e+04 0.000000e+00 0.000000e+00 0.000000e+00 0.000000e+00
-7.606609e+04 6.127443e+03 0.000000e+00 6.127443e+03 -6.515214e+04 0.000000e+00 0.000000e+00 0.000000e+00 0.000000e+00
-6.868100e+04 2.085046e+03 0.000000e+00 2.085046e+03 -6.200228e+04 0.000000e+00 0.000000e+00 0.000000e+00 0.000000e+00
-5.809548e+04 1.084922e+02 0.000000e+00 1.084922e+02 -5.927502e+04 0.000000e+00 0.000000e+00 0.000000e+00 0.000000e+00
-6.791210e+04 1.023455e+04 0.000000e+00 1.023455e+04 -7.647820e+04 0.000000e+00 0.000000e+00 0.000000e+00 0.000000e+00
-6.948100e+04 9.992354e+03 0.000000e+00 9.992354e+03 -7.632648e+04 0.000000e+00 0.000000e+00 0.000000e+00 0.000000e+00
-7.133427e+04 9.389062e+03 0.000000e+00 9.389062e+03 -7.532973e+04 0.000000e+00 0.000000e+00 0.000000e+00 0.000000e+00
-7.305544e+04 9.041280e+03 0.000000e+00 9.041280e+03 -7.400252e+04 0.000000e+00 0.000000e+00 0.000000e+00 0.000000e+00
-7.459162e+04 8.621133e+03 0.000000e+00 8.621133e+03 -7.225524e+04 0.000000e+00 0.000000e+00 0.000000e+00 0.000000e+00
-7.575319e+04 7.912530e+03 0.000000e+00 7.912530e+03 -7.009005e+04 0.000000e+00 0.000000e+00 0.000000e+00 0.000000e+00
-7.622295e+04 6.746262e+03 0.000000e+00 6.746262e+03 -6.755531e+04 0.000000e+00 0.000000e+00 0.000000e+00 0.000000e+00
-7.546244e+04 4.941069e+03 0.000000e+00 4.941069e+03 -6.482318e+04 0.000000e+00 0.000000e+00 0.000000e+00 0.000000e+00
-7.240936e+04 2.469769e+03 0.000000e+00 2.469769e+03 -6.232421e+04 0.000000e+00 0.000000e+00 0.000000e+00 0.000000e+00
-6.544171e+04 2.369852e+02 0.000000e+00 2.369852e+02 -6.067806e+04 0.000000e+00 0.000000e+00 0.000000e+00 0.000000e+00
-5.828777e+04 -5.796393e+02 0.000000e+00 -5.796393e+02 -5.926716e+04 0.000000e+00 0.000000e+00 0.000000e+00 0.000000e+00
-6.634027e+04 9.309372e+03 0.000000e+00 9.309372e+03 -7.214666e+04 0.000000e+00 0.000000e+00 0.000000e+00 0.000000e+00
-6.847520e+04 8.961940e+03 0.000000e+00 8.961940e+03 -7.196827e+04 0.000000e+00 0.000000e+00 0.000000e+00 0.000000e+00
-7.071906e+04 8.095268e+03 0.000000e+00 8.095268e+03 -7.083825e+04 0.000000e+00 0.000000e+00 0.000000e+00 0.000000e+00
-7.247705e+04 7.364537e+03 0.000000e+00 7.364537e+03 -6.952546e+04 0.000000e+00 0.000000e+00 0.000000e+00 0.000000e+00
-7.382630e+04 6.557819e+03 0.000000e+00 6.557819e+03 -6.797462e+04 0.000000e+00 0.000000e+00 0.000000e+00 0.000000e+00
-7.461555e+04 5.519265e+03 0.000000e+00 5.519265e+03 -6.619573e+04 0.000000e+00 0.000000e+00 0.000000e+00 0.000000e+00
-7.454841e+04 4.125099e+03 0.000000e+00 4.125099e+03 -6.429320e+04 0.000000e+00 0.000000e+00 0.000000e+00 0.000000e+00
-7.318062e+04 2.373083e+03 0.000000e+00 2.373083e+03 -6.246229e+04 0.000000e+00 0.000000e+00 0.000000e+00 0.000000e+00
-6.990903e+04 5.580084e+02 0.000000e+00 5.580084e+02 -6.102452e+04 0.000000e+00 0.000000e+00 0.000000e+00 0.000000e+00
-6.427992e+04 -5.290035e+02 0.000000e+00 -5.290035e+02 -6.024456e+04 0.000000e+00 0.000000e+00 0.000000e+00 0.000000e+00
-5.934593e+04 -6.692418e+02 0.000000e+00 -6.692418e+02 -5.950727e+04 0.000000e+00 0.000000e+00 0.000000e+00 0.000000e+00
-6.500142e+04 8.135589e+03 0.000000e+00 8.135589e+03 -6.880727e+04 0.000000e+00 0.000000e+00 0.000000e+00 0.000000e+00
-6.736120e+04 7.765907e+03 0.000000e+00 7.765907e+03 -6.861604e+04 0.000000e+00 0.000000e+00 0.000000e+00 0.000000e+00
-6.981055e+04 6.805971e+03 0.000000e+00 6.805971e+03 -6.748088e+04 0.000000e+00 0.000000e+00 0.000000e+00 0.000000e+00
-7.156521e+04 5.878687e+03 0.000000e+00 5.878687e+03 -6.630348e+04 0.000000e+00 0.000000e+00 0.000000e+00 0.000000e+00
-7.273883e+04 4.860295e+03 0.000000e+00 4.860295e+03 -6.501998e+04 0.000000e+00 0.000000e+00 0.000000e+00 0.000000e+00
-7.323161e+04 3.673947e+03 0.000000e+00 3.673947e+03 -6.365146e+04 0.000000e+00 0.000000e+00 0.000000e+00 0.000000e+00
-7.284125e+04 2.294862e+03 0.000000e+00 2.294862e+03 -6.230661e+04 0.000000e+00 0.000000e+00 0.000000e+00 0.000000e+00
-7.130916e+04 8.344558e+02 0.000000e+00 8.344558e+02 -6.116565e+04 0.000000e+00 0.000000e+00 0.000000e+00 0.000000e+00
-6.840402e+04 -3.771150e+02 0.000000e+00 -3.771150e+02 -6.039945e+04 0.000000e+00 0.000000e+00 0.000000e+00 0.000000e+00
-6.414754e+04 -7.973452e+02 0.000000e+00 -7.973452e+02 -6.005458e+04 0.000000e+00 0.000000e+00 0.000000e+00 0.000000e+00
-6.068982e+04 -6.779740e+02 0.000000e+00 -6.779740e+02 -5.963865e+04 0.000000e+00 0.000000e+00 0.000000e+00 0.000000e+00
-6.394779e+04 6.905795e+03 0.000000e+00 6.905795e+03 -6.634262e+04 0.000000e+00 0.000000e+00 0.000000e+00 0.000000e+00
-6.630037e+04 6.556505e+03 0.000000e+00 6.556505e+03 -6.614259e+04 0.000000e+00 0.000000e+00 0.000000e+00 0.000000e+00
-6.877868e+04 5.608491e+03 0.000000e+00 5.608491e+03 -6.507455e+04 0.000000e+00 0.000000e+00 0.000000e+00 0.000000e+00
-7.046978e+04 4.604657e+03 0.000000e+00 4.604657e+03 -6.403286e+04 0.000000e+00 0.000000e+00 0.000000e+00 0.000000e+00
-7.149677e+04 3.522517e+03 0.000000e+00 3.522517e+03 -6.299033e+04 0.000000e+00 0.000000e+00 0.000000e+00 0.000000e+00
-7.182501e+04 2.341842e+03 0.000000e+00 2.341842e+03 -6.199465e+04 0.000000e+00 0.000000e+00 0.000000e+00 0.000000e+00
-7.133445e+04 1.115002e+03 0.000000e+00 1.115002e+03 -6.110965e+04 0.000000e+00 0.000000e+00 0.000000e+00 0.000000e+00
-6.992621e+04 -1.574489e+01 0.000000e+00 -1.574489e+01 -6.044607e+04 0.000000e+00 0.000000e+00 0.000000e+00 0.000000e+00
-6.757426e+04 -7.891239e+02 0.000000e+00 -7.891239e+02 -6.008015e+04 0.000000e+00 0.000000e+00 0.000000e+00 0.000000e+00
-6.445884e+04 -8.545541e+02 0.000000e+00 -8.545541e+02 -5.996248e+04 0.000000e+00 0.000000e+00 0.000000e+00 0.000000e+00
-6.205781e+04 -6.273713e+02 0.000000e+00 -6.273713e+02 -5.973030e+04 0.000000e+00 0.000000e+00 0.000000e+00 0.000000e+00
-6.313432e+04 5.715730e+03 0.000000e+00 5.715730e+03 -6.458097e+04 0.000000e+00 0.000000e+00 0.000000e+00 0.000000e+00
-6.533746e+04 5.387068e+03 0.000000e+00 5.387068e+03 -6.437074e+04 0.000000e+00 0.000000e+00 0.000000e+00 0.000000e+00
-6.771281e+04 4.498462e+03 0.000000e+00 4.498462e+03 -6.338355e+04 0.000000e+00 0.000000e+00 0.000000e+00 0.000000e+00
-6.933423e+04 3.525494e+03 0.000000e+00 3.525494e+03 -6.247875e+04 0.000000e+00 0.000000e+00 0.000000e+00 0.000000e+00
-7.027375e+04 2.500744e+03 0.000000e+00 2.500744e+03 -6.164719e+04 0.000000e+00 0.000000e+00 0.000000e+00 0.000000e+00
-7.054382e+04 1.434448e+03 0.000000e+00 1.434448e+03 -6.093288e+04 0.000000e+00 0.000000e+00 0.000000e+00 0.000000e+00
-7.010209e+04 4.101711e+02 0.000000e+00 4.101711e+02 -6.038207e+04 0.000000e+00 0.000000e+00 0.000000e+00 0.000000e+00
-6.895054e+04 -4.392101e+02 0.000000e+00 -4.392101e+02 -6.003348e+04 0.000000e+00 0.000000e+00 0.000000e+00 0.000000e+00
-6.715442e+04 -9.178109e+02 0.000000e+00 -9.178109e+02 -5.990454e+04 0.000000e+00 0.000000e+00 0.000000e+00 0.000000e+00
-6.494866e+04 -8.069747e+02 0.000000e+00 -8.069747e+02 -5.991728e+04 0.000000e+00 0.000000e+00 0.000000e+00 0.000000e+00
-6.332582e+04 -5.435018e+02 0.000000e+00 -5.435018e+02 -5.979565e+04 0.000000e+00 0.000000e+00 0.000000e+00 0.000000e+00
-6.249150e+04 4.551504e+03 0.000000e+00 4.551504e+03 -6.334147e+04 0.000000e+00 0.000000e+00 0.000000e+00 0.000000e+00
-6.450142e+04 4.272796e+03 0.000000e+00 4.272796e+03 -6.312374e+04 0.000000e+00 0.000000e+00 0.000000e+00 0.000000e+00
-6.672537e+04 3.501881e+03 0.000000e+00 3.501881e+03 -6.222177e+04 0.000000e+00 0.000000e+00 0.000000e+00 0.000000e+00
-6.827605e+04 2.632004e+03 0.000000e+00 2.632004e+03 -6.144797e+04 0.000000e+00 0.000000e+00 0.000000e+00 0.000000e+00
-6.917544e+04 1.731112e+03 0.000000e+00 1.731112e+03 -6.078879e+04 0.000000e+00 0.000000e+00 0.000000e+00 0.000000e+00
-6.945521e+04 8.343171e+02 0.000000e+00 8.343171e+02 -6.028184e+04 0.000000e+00 0.000000e+00 0.000000e+00 0.000000e+00
-6.913898e+04 2.168431e+01 0.000000e+00 2.168431e+01 -5.995105e+04 0.000000e+00 0.000000e+00 0.000000e+00 0.000000e+00
-6.827438e+04 -5.997811e+02 0.000000e+00 -5.997811e+02 -5.980530e+04 0.000000e+00 0.000000e+00 0.000000e+00 0.000000e+00
-6.697514e+04 -8.872215e+02 0.000000e+00 -8.872215e+02 -5.981221e+04 0.000000e+00 0.000000e+00 0.000000e+00 0.000000e+00
-6.547234e+04 -7.034454e+02 0.000000e+00 -7.034454e+02 -5.989490e+04 0.000000e+00 0.000000e+00 0.000000e+00 0.000000e+00
-6.442218e+04 -4.476961e+02 0.000000e+00 -4.476961e+02 -5.984693e+04 0.000000e+00 0.000000e+00 0.000000e+00 0.000000e+00
-6.200183e+04 3.460813e+03 0.000000e+00 3.460813e+03 -6.249531e+04 0.000000e+00 0.000000e+00 0.000000e+00 0.000000e+00
-6.380867e+04 3.228345e+03 0.000000e+00 3.228345e+03 -6.226816e+04 0.000000e+00 0.000000e+00 0.000000e+00 0.000000e+00
-6.587349e+04 2.602600e+03 0.000000e+00 2.602600e+03 -6.143374e+04 0.000000e+00 0.000000e+00 0.000000e+00 0.000000e+00
-6.736387e+04 1.890437e+03 0.000000e+00 1.890437e+03 -6.076101e+04 0.000000e+00 0.000000e+00 0.000000e+00 0.000000e+00
-6.824997e+04 1.157555e+03 0.000000e+00 1.157555e+03 -6.023934e+04 0.000000e+00 0.000000e+00 0.000000e+00 0.000000e+00
-6.858520e+04 4.490283e+02 0.000000e+00 4.490283e+02 -5.988808e+04 0.000000e+00 0.000000e+00 0.000000e+00 0.000000e+00
-6.841549e+04 -1.640210e+02 0.000000e+00 -1.640210e+02 -5.970857e+04 0.000000e+00 0.000000e+00 0.000000e+00 0.000000e+00
-6.781672e+04 -6.037341e+02 0.000000e+00 -6.037341e+02 -5.968368e+04 0.000000e+00 0.000000e+00 0.000000e+00 0.000000e+00
-6.692923e+04 -7.688672e+02 0.000000e+00 -7.688672e+02 -5.976680e+04 0.000000e+00 0.000000e+00 0.000000e+00 0.000000e+00
-6.595562e+04 -5.726475e+02 0.000000e+00 -5.726475e+02 -5.988729e+04 0.000000e+00 0.000000e+00 0.000000e+00 0.000000e+00
-6.532450e+04 -3.525502e+02 0.000000e+00 -3.525502e+02 -5.989052e+04 0.000000e+00 0.000000e+00 0.000000e+00 0.000000e+00
-6.164238e+04 2.414843e+03 0.000000e+00 2.414843e+03 -6.186133e+04 0.000000e+00 0.000000e+00 0.000000e+00 0.000000e+00
-6.327604e+04 2.247886e+03 0.000000e+00 2.247886e+03 -6.163455e+04 0.000000e+00 0.000000e+00 0.000000e+00 0.000000e+00
-6.521428e+04 1.792215e+03 0.000000e+00 1.792215e+03 -6.088749e+04 0.000000e+00 0.000000e+00 0.000000e+00 0.000000e+00
-6.665130e+04 1.273831e+03 0.000000e+00 1.273831e+03 -6.030309e+04 0.000000e+00 0.000000e+00 0.000000e+00 0.000000e+00
-6.753418e+04 7.309056e+02 0.000000e+00 7.309056e+02 -5.988909e+04 0.000000e+00 0.000000e+00 0.000000e+00 0.000000e+00
-6.793280e+04 2.155077e+02 0.000000e+00 2.155077e+02 -5.964583e+04 0.000000e+00 0.000000e+00 0.000000e+00 0.000000e+00
-6.789541e+04 -2.204802e+02 0.000000e+00 -2.204802e+02 -5.956491e+04 0.000000e+00 0.000000e+00 0.000000e+00 0.000000e+00
-6.751798e+04 -5.147235e+02 0.000000e+00 -5.147235e+02 -5.961478e+04 0.000000e+00 0.000000e+00 0.000000e+00 0.000000e+00
-6.694616e+04 -6.032326e+02 0.000000e+00 -6.032326e+02 -5.974538e+04 0.000000e+00 0.000000e+00 0.000000e+00 0.000000e+00
-6.635534e+04 -4.316274e+02 0.000000e+00 -4.316274e+02 -5.988477e+04 0.000000e+00 0.000000e+00 0.000000e+00 0.000000e+00
-6.602117e+04 -2.608925e+02 0.000000e+00 -2.608925e+02 -5.992246e+04 0.000000e+00 0.000000e+00 0.000000e+00 0.000000e+00
-6.136699e+04 1.462760e+03 0.000000e+00 1.462760e+03 -6.136341e+04 0.000000e+00 0.000000e+00 0.000000e+00 0.000000e+00
-6.290764e+04 1.361803e+03 0.000000e+00 1.361803e+03 -6.115521e+04 0.000000e+00 0.000000e+00 0.000000e+00 0.000000e+00
-6.477157e+04 1.078987e+03 0.000000e+00 1.078987e+03 -6.048559e+04 0.000000e+00 0.000000e+00 0.000000e+00 0.000000e+00
-6.615707e+04 7.604023e+02 0.000000e+00 7.604023e+02 -5.998378e+04 0.000000e+00 0.000000e+00 0.000000e+00 0.000000e+00
-6.703779e+04 4.139985e+02 0.000000e+00 4.139985e+02 -5.965714e+04 0.000000e+00 0.000000e+00 0.000000e+00 0.000000e+00
-6.748208e+04 8.448873e+01 0.000000e+00 8.448873e+01 -5.949797e+04 0.000000e+00 0.000000e+00 0.000000e+00 0.000000e+00
-6.754911e+04 -1.917047e+02 0.000000e+00 -1.917047e+02 -5.948136e+04 0.000000e+00 0.000000e+00 0.000000e+00 0.000000e+00
-6.733630e+04 -3.700090e+02 0.000000e+00 -3.700090e+02 -5.957932e+04 0.000000e+00 0.000000e+00 0.000000e+00 0.000000e+00
-6.698430e+04 -4.123260e+02 0.000000e+00 -4.123260e+02 -5.973678e+04 0.000000e+00 0.000000e+00 0.000000e+00 0.000000e+00
-6.665209e+04 -2.877399e+02 0.000000e+00 -2.877399e+02 -5.988520e+04 0.000000e+00 0.000000e+00 0.000000e+00 0.000000e+00
-6.651164e+04 -1.715501e+02 0.000000e+00 -1.715501e+02 -5.994526e+04 0.000000e+00 0.000000e+00 0.000000e+00 0.000000e+00
-6.117357e+04 5.701742e+02 0.000000e+00 5.701742e+02 -6.087882e+04 0.000000e+00 0.000000e+00 0.000000e+00 0.000000e+00
-6.272552e+04 5.697641e+02 0.000000e+00 5.697641e+02 -6.072659e+04 0.000000e+00 0.000000e+00 0.000000e+00 0.000000e+00
-6.453879e+04 4.738845e+02 0.000000e+00 4.738845e+02 -6.016105e+04 0.000000e+00 0.000000e+00 0.000000e+00 0.000000e+00
-6.587759e+04 3.432448e+02 0.000000e+00 3.432448e+02 -5.976327e+04 0.000000e+00 0.000000e+00 0.000000e+00 0.000000e+00
-6.675080e+04 1.813435e+02 0.000000e+00 1.813435e+02 -5.951559e+04 0.000000e+00 0.000000e+00 0.000000e+00 0.000000e+00
-6.722020e+04 2.358459e+01 0.000000e+00 2.358459e+01 -5.940947e+04 0.000000e+00 0.000000e+00 0.000000e+00 0.000000e+00
-6.735237e+04 -1.095366e+02 0.000000e+00 -1.095366e+02 -5.943611e+04 0.000000e+00 0.000000e+00 0.000000e+00 0.000000e+00
-6.724009e+04 -1.926041e+02 0.000000e+00 -1.926041e+02 -5.956152e+04 0.000000e+00 0.000000e+00 0.000000e+00 0.000000e+00
-6.701701e+04 -2.085739e+02 0.000000e+00 -2.085739e+02 -5.973439e+04 0.000000e+00 0.000000e+00 0.000000e+00 0.000000e+00
-6.683273e+04 -1.440824e+02 0.000000e+00 -1.440824e+02 -5.988651e+04 0.000000e+00 0.000000e+00 0.000000e+00 0.000000e+00
-6.679761e+04 -8.578717e+01 0.000000e+00 -8.578717e+01 -5.995791e+04 0.000000e+00 0.000000e+00 0.000000e+00 0.000000e+00
-6.100456e+04 -4.628421e+01 0.000000e+00 -4.628421e+01 -6.036897e+04 0.000000e+00 0.000000e+00 0.000000e+00 0.000000e+00
-6.263422e+04 5.851216e+01 0.000000e+00 5.851216e+01 -6.037582e+04 0.000000e+00 0.000000e+00 0.000000e+00 0.000000e+00
-6.446730e+04 1.038481e+02 0.000000e+00 1.038481e+02 -6.000457e+04 0.000000e+00 0.000000e+00 0.000000e+00 0.000000e+00
-6.578988e+04 8.555860e+01 0.000000e+00 8.555860e+01 -5.967767e+04 0.000000e+00 0.000000e+00 0.000000e+00 0.000000e+00
-6.665677e+04 3.644292e+01 0.000000e+00 3.644292e+01 -5.946352e+04 0.000000e+00 0.000000e+00 0.000000e+00 0.000000e+00
-6.713470e+04 -1.363494e+01 0.000000e+00 -1.363494e+01 -5.937932e+04 0.000000e+00 0.000000e+00 0.000000e+00 0.000000e+00
-6.728886e+04 -5.746460e+01 0.000000e+00 -5.746460e+01 -5.942305e+04 0.000000e+00 0.000000e+00 0.000000e+00 0.000000e+00
-6.721034e+04 -8.441276e+01 0.000000e+00 -8.441276e+01 -5.955652e+04 0.000000e+00 0.000000e+00 0.000000e+00 0.000000e+00
-6.702958e+04 -8.955228e+01 0.000000e+00 -8.955228e+01 -5.973377e+04 0.000000e+00 0.000000e+00 0.000000e+00 0.000000e+00
-6.689309e+04 -6.644051e+01 0.000000e+00 -6.644051e+01 -5.988706e+04 0.000000e+00 0.000000e+00 0.000000e+00 0.000000e+00
-6.689030e+04 -4.479759e+01 0.000000e+00 -4.479759e+01 -5.996076e+04 0.000000e+00 0.000000e+00 0.000000e+00 0.000000e+00
</DataArray>
<DataArray Name="vol_eps" type="Float64" NumberOfComponents="1" format="ascii">
-4.005767e-03
-3.739204e-03
-3.731494e-03
-3.853089e-03
-4.127525e-03
-4.552201e-03
-5.161531e-03
-5.965623e-03
-6.851863e-03
-7.642467e-03
-7.798917e-03
-3.858063e-03
-3.612785e-03
-3.615748e-03
-3.742437e-03
-4.010858e-03
-4.422026e-03
-4.984979e-03
-5.753223e-03
-6.678288e-03
-7.575574e-03
-8.638049e-03
-3.526731e-03
-3.318885e-03
-3.328055e-03
-3.455495e-03
-3.675070e-03
-3.983553e-03
-4.416557e-03
-5.011682e-03
-5.702133e-03
-6.958449e-03
-9.198288e-03
-3.086008e-03
-2.938978e-03
-2.943402e-03
-3.015573e-03
-3.092026e-03
-3.101657e-03
-2.963776e-03
-2.598552e-03
-1.967240e-03
-8.698300e-04
-1.117527e-04
-2.564523e-03
-2.503093e-03
-2.521710e-03
-2.570525e-03
-2.604911e-03
-2.591495e-03
-2.488839e-03
-2.259811e-03
-1.927091e-03
-1.384612e-03
-1.344712e-04
-2.024744e-03
-2.053327e-03
-2.093203e-03
-2.126333e-03
-2.128352e-03
-2.078989e-03
-1.951225e-03
-1.715833e-03
-1.355040e-03
-6.768241e-04
1.908279e-04
-1.546103e-03
-1.646049e-03
-1.709189e-03
-1.737269e-03
-1.724028e-03
-1.658277e-03
-1.523438e-03
-1.295287e-03
-9.363425e-04
-3.880600e-04
1.662567e-04
-1.157371e-03
-1.296251e-03
-1.378082e-03
-1.410677e-03
-1.396968e-03
-1.331412e-03
-1.202220e-03
-9.941787e-04
-6.929912e-04
-2.886461e-04
7.493625e-05
-8.565389e-04
-1.008273e-03
-1.102781e-03
-1.141389e-03
-1.132694e-03
-1.074718e-03
-9.623494e-04
-7.904666e-04
-5.572999e-04
-2.685935e-04
-2.242366e-05
-6.345368e-04
-7.831286e-04
-8.805972e-04
-9.224035e-04
-9.204186e-04
-8.763966e-04
-7.879579e-04
-6.559026e-04
-4.842091e-04
-2.820862e-04
-1.159771e-04
-4.747582e-04
-6.107694e-04
-7.043731e-04
-7.495156e-04
-7.554090e-04
-7.262524e-04
-6.626555e-04
-5.669039e-04
-4.462508e-04
-3.093898e-04
-2.001051e-04
-3.618414e-04
-4.810234e-04
-5.675757e-04
-6.161959e-04
-6.297759e-04
-6.145454e-04
-5.732030e-04
-5.087910e-04
-4.287829e-04
-3.404746e-04
-2.717563e-04
-2.824424e-04
-3.865263e-04
-4.650338e-04
-5.142378e-04
-5.353165e-04
-5.332732e-04
-5.110466e-04
-4.721233e-04
-4.227735e-04
-3.700618e-04
-3.305826e-04
-2.246972e-04
-3.164891e-04
-3.898639e-04
-4.399279e-04
-4.675332e-04
-4.761326e-04
-4.688404e-04
-4.491022e-04
-4.222346e-04
-3.948167e-04
-3.761138e-04
-1.783414e-04
-2.643978e-04
-3.376935e-04
-3.887972e-04
-4.212413e-04
-4.381756e-04
-4.416243e-04
-4.351532e-04
-4.238311e-04
-4.132698e-04
-4.084689e-04
-1.351311e-04
-2.255644e-04
-3.026519e-04
-3.570947e-04
-3.939315e-04
-4.160331e-04
-4.261743e-04
-4.277687e-04
-4.255388e-04
-4.245004e-04
-4.272781e-04
-9.174977e-05
-1.970575e-04
-2.879023e-04
-3.460204e-04
-3.845964e-04
-4.087093e-04
-4.211935e-04
-4.254821e-04
-4.261494e-04
-4.281929e-04
-4.331892e-04
</DataArray>
</PointData>
</Piece>
</UnstructuredGrid>
</VTKFile>
