<?xml version="1.0"?>
<VTKFile type="UnstructuredGrid" version="0.1">
<UnstructuredGrid>
<FieldData>
<DataArray Name="TIME" type="Float64" format="ascii" NumberOfTuples="1">
0.000000e+00
</DataArray>
</FieldData>
<FieldData>
<DataArray Name="CYCLE" type="Int32" format="ascii" NumberOfTuples="1">
0
</DataArray>
</FieldData>
<Piece NumberOfPoints="187" NumberOfCells="160">
<Points>
<DataArray NumberOfComponents="3" type="Float64" format="ascii">
0.000000e+00 0.000000e+00 0.000000e+00
0.000000e+00 1.963516e-01 0.000000e+00
0.000000e+00 3.899097e-01 0.000000e+00
0.000000e+00 5.799907e-01 0.000000e+00
0.000000e+00 7.675691e-01 0.000000e+00
0.000000e+00 9.539235e-01 0.000000e+00
0.000000e+00 1.140531e+00 0.000000e+00
0.000000e+00 1.328490e+00 0.000000e+00
0.000000e+00 1.519223e+00 0.000000e+00
0.000000e+00 1.714169e+00 0.000000e+00
0.000000e+00 1.910000e+00 0.000000e+00
2.250000e-01 0.000000e+00 0.000000e+00
2.275763e-01 1.961314e-01 0.000000e+00
2.321938e-01 3.899956e-01 0.000000e+00
2.360768e-01 5.815076e-01 0.000000e+00
2.383621e-01 7.710388e-01 0.000000e+00
2.389650e-01 9.592113e-01 0.000000e+00
2.382912e-01 1.146800e+00 0.000000e+00
2.359096e-01 1.334865e+00 0.000000e+00
2.307651e-01 1.523779e+00 0.000000e+00
2.255857e-01 1.714735e+00 0.000000e+00
2.250000e-01 1.910000e+00 0.000000e+00
4.500000e-01 0.000000e+00 0.000000e+00
4.555930e-01 1.965922e-01 0.000000e+00
4.625223e-01 3.920456e-01 0.000000e+00
4.683863e-01 5.867640e-01 0.000000e+00
4.726048e-01 7.805037e-01 0.000000e+00
4.746962e-01 9.727186e-01 0.000000e+00
4.747409e-01 1.163389e+00 0.000000e+00
4.726184e-01 1.352630e+00 0.000000e+00
4.678920e-01 1.539791e+00 0.000000e+00
4.613013e-01 1.724880e+00 0.000000e+00
4.500000e-01 1.910000e+00 0.000000e+00
6.750000e-01 0.000000e+00 0.000000e+00
6.829320e-01 1.981148e-01 0.000000e+00
6.902502e-01 3.959670e-01 0.000000e+00
6.961460e-01 5.942235e-01 0.000000e+00
7.004268e-01 7.931113e-01 0.000000e+00
7.032810e-01 9.924906e-01 0.000000e+00
7.041407e-01 1.192299e+00 0.000000e+00
7.029483e-01 1.392525e+00 0.000000e+00
6.999940e-01 1.593214e+00 0.000000e+00
6.945031e-01 1.793825e+00 0.000000e+00
6.858709e-01 1.993104e+00 0.000000e+00
9.000000e-01 0.000000e+00 0.000000e+00
9.087561e-01 1.989461e-01 0.000000e+00
9.155962e-01 3.979470e-01 0.000000e+00
9.206069e-01 5.973478e-01 0.000000e+00
9.241357e-01 7.971919e-01 0.000000e+00
9.263476e-01 9.975899e-01 0.000000e+00
9.268030e-01 1.198468e+00 0.000000e+00
9.254630e-01 1.399604e+00 0.000000e+00
9.225035e-01 1.600783e+00 0.000000e+00
9.178717e-01 1.801664e+00 0.000000e+00
9.120920e-01 2.001756e+00 0.000000e+00
1.125000e+00 0.000000e+00 0.000000e+00
1.133909e+00 1.994639e-01 0.000000e+00
1.139838e+00 3.991597e-01 0.000000e+00
1.144100e+00 5.993631e-01 0.000000e+00
1.147089e+00 8.000392e-01 0.000000e+00
1.148780e+00 1.001176e+00 0.000000e+00
1.149014e+00 1.202623e+00 0.000000e+00
1.147775e+00 1.404132e+00 0.000000e+00
1.145200e+00 1.605476e+00 0.000000e+00
1.141606e+00 1.806319e+00 0.000000e+00
1.137964e+00 2.006355e+00 0.000000e+00
1.350000e+00 0.000000e+00 0.000000e+00
1.358433e+00 1.999443e-01 0.000000e+00
1.363495e+00 4.001955e-01 0.000000e+00
1.367125e+00 6.008808e-01 0.000000e+00
1.369599e+00 8.020144e-01 0.000000e+00
1.370975e+00 1.003539e+00 0.000000e+00
1.371157e+00 1.205244e+00 0.000000e+00
1.370151e+00 1.406900e+00 0.000000e+00
1.368124e+00 1.608291e+00 0.000000e+00
1.365602e+00 1.809081e+00 0.000000e+00
1.363372e+00 2.009229e+00 0.000000e+00
1.575000e+00 0.000000e+00 0.000000e+00
1.582524e+00 2.002641e-01 0.000000e+00
1.586843e+00 4.008322e-01 0.000000e+00
1.589895e+00 6.018191e-01 0.000000e+00
1.591985e+00 8.032147e-01 0.000000e+00
1.593161e+00 1.004895e+00 0.000000e+00
1.593374e+00 1.206666e+00 0.000000e+00
1.592653e+00 1.408358e+00 0.000000e+00
1.591220e+00 1.609740e+00 0.000000e+00
1.589616e+00 1.810543e+00 0.000000e+00
1.588416e+00 2.010782e+00 0.000000e+00
1.800000e+00 0.000000e+00 0.000000e+00
1.806388e+00 2.003789e-01 0.000000e+00
1.810032e+00 4.011427e-01 0.000000e+00
1.812612e+00 6.022973e-01 0.000000e+00
1.814401e+00 8.037720e-01 0.000000e+00
1.815446e+00 1.005448e+00 0.000000e+00
1.815729e+00 1.207193e+00 0.000000e+00
1.815300e+00 1.408847e+00 0.000000e+00
1.814413e+00 1.610201e+00 0.000000e+00
1.813554e+00 1.811035e+00 0.000000e+00
1.813111e+00 2.011398e+00 0.000000e+00
2.025000e+00 0.000000e+00 0.000000e+00
2.030189e+00 2.004201e-01 0.000000e+00
2.033196e+00 4.012462e-01 0.000000e+00
2.035405e+00 6.024208e-01 0.000000e+00
2.036942e+00 8.038364e-01 0.000000e+00
2.037896e+00 1.005425e+00 0.000000e+00
2.038249e+00 1.207079e+00 0.000000e+00
2.038081e+00 1.408654e+00 0.000000e+00
2.037658e+00 1.609967e+00 0.000000e+00
2.037367e+00 1.810845e+00 0.000000e+00
2.037435e+00 2.011358e+00 0.000000e+00
2.250000e+00 0.000000e+00 0.000000e+00
2.253998e+00 2.003779e-01 0.000000e+00
2.256462e+00 4.011617e-01 0.000000e+00
2.258345e+00 6.022608e-01 0.000000e+00
2.259681e+00 8.035650e-01 0.000000e+00
2.260541e+00 1.005020e+00 0.000000e+00
2.260944e+00 1.206548e+00 0.000000e+00
2.260985e+00 1.408024e+00 0.000000e+00
2.260923e+00 1.609284e+00 0.000000e+00
2.261027e+00 1.810226e+00 0.000000e+00
2.261401e+00 2.010909e+00 0.000000e+00
2.475000e+00 0.000000e+00 0.000000e+00
2.477930e+00 2.002804e-01 0.000000e+00
2.479905e+00 4.009492e-01 0.000000e+00
2.481473e+00 6.019254e-01 0.000000e+00
2.482624e+00 8.031008e-01 0.000000e+00
2.483393e+00 1.004413e+00 0.000000e+00
2.483811e+00 1.205795e+00 0.000000e+00
2.484003e+00 1.407151e+00 0.000000e+00
2.484179e+00 1.608360e+00 0.000000e+00
2.484512e+00 1.809380e+00 0.000000e+00
2.485035e+00 2.010260e+00 0.000000e+00
2.700000e+00 0.000000e+00 0.000000e+00
2.702033e+00 2.001742e-01 0.000000e+00
2.703560e+00 4.007033e-01 0.000000e+00
2.704805e+00 6.015211e-01 0.000000e+00
2.705765e+00 8.025538e-01 0.000000e+00
2.706435e+00 1.003734e+00 0.000000e+00
2.706848e+00 1.204978e+00 0.000000e+00
2.707122e+00 1.406218e+00 0.000000e+00
2.707409e+00 1.607388e+00 0.000000e+00
2.707819e+00 1.808484e+00 0.000000e+00
2.708358e+00 2.009552e+00 0.000000e+00
2.925000e+00 0.000000e+00 0.000000e+00
2.926320e+00 2.000896e-01 0.000000e+00
2.927431e+00 4.004789e-01 0.000000e+00
2.928355e+00 6.011335e-01 0.000000e+00
2.929097e+00 8.020141e-01 0.000000e+00
2.929647e+00 1.003065e+00 0.000000e+00
2.930024e+00 1.204206e+00 0.000000e+00
2.930306e+00 1.405367e+00 0.000000e+00
2.930603e+00 1.606521e+00 0.000000e+00
2.930984e+00 1.807677e+00 0.000000e+00
2.931451e+00 2.008880e+00 0.000000e+00
3.150000e+00 0.000000e+00 0.000000e+00
3.150771e+00 2.000220e-01 0.000000e+00
3.151493e+00 4.002903e-01 0.000000e+00
3.152112e+00 6.008150e-01 0.000000e+00
3.152614e+00 8.015647e-01 0.000000e+00
3.153000e+00 1.002504e+00 0.000000e+00
3.153290e+00 1.203565e+00 0.000000e+00
3.153523e+00 1.404683e+00 0.000000e+00
3.153761e+00 1.605832e+00 0.000000e+00
3.154047e+00 1.807034e+00 0.000000e+00
3.154387e+00 2.008338e+00 0.000000e+00
3.375000e+00 0.000000e+00 0.000000e+00
3.375355e+00 1.999662e-01 0.000000e+00
3.375704e+00 4.001585e-01 0.000000e+00
3.376017e+00 6.006013e-01 0.000000e+00
3.376270e+00 8.012732e-01 0.000000e+00
3.376467e+00 1.002136e+00 0.000000e+00
3.376625e+00 1.203135e+00 0.000000e+00
3.376757e+00 1.404222e+00 0.000000e+00
3.376888e+00 1.605372e+00 0.000000e+00
3.377041e+00 1.806606e+00 0.000000e+00
3.377218e+00 2.007974e+00 0.000000e+00
3.600000e+00 0.000000e+00 0.000000e+00
3.600000e+00 1.999580e-01 0.000000e+00
3.600000e+00 4.001245e-01 0.000000e+00
3.600000e+00 6.005311e-01 0.000000e+00
3.600000e+00 8.011671e-01 0.000000e+00
3.600000e+00 1.001996e+00 0.000000e+00
3.600000e+00 1.202970e+00 0.000000e+00
3.600000e+00 1.404041e+00 0.000000e+00
3.600000e+00 1.605184e+00 0.000000e+00
3.600000e+00 1.806423e+00 0.000000e+00
3.600000e+00 2.007807e+00 0.000000e+00
</DataArray>
</Points>
<Cells>
<DataArray Name="connectivity" type="Int32" format="ascii">
0 11 12 1
1 12 13 2
2 13 14 3
3 14 15 4
4 15 16 5
5 16 17 6
6 17 18 7
7 18 19 8
8 19 20 9
9 20 21 10
11 22 23 12
12 23 24 13
13 24 25 14
14 25 26 15
15 26 27 16
16 27 28 17
17 28 29 18
18 29 30 19
19 30 31 20
20 31 32 21
22 33 34 23
23 34 35 24
24 35 36 25
25 36 37 26
26 37 38 27
27 38 39 28
28 39 40 29
29 40 41 30
30 41 42 31
31 42 43 32
33 44 45 34
34 45 46 35
35 46 47 36
36 47 48 37
37 48 49 38
38 49 50 39
39 50 51 40
40 51 52 41
41 52 53 42
42 53 54 43
44 55 56 45
45 56 57 46
46 57 58 47
47 58 59 48
48 59 60 49
49 60 61 50
50 61 62 51
51 62 63 52
52 63 64 53
53 64 65 54
55 66 67 56
56 67 68 57
57 68 69 58
58 69 70 59
59 70 71 60
60 71 72 61
61 72 73 62
62 73 74 63
63 74 75 64
64 75 76 65
66 77 78 67
67 78 79 68
68 79 80 69
69 80 81 70
70 81 82 71
71 82 83 72
72 83 84 73
73 84 85 74
74 85 86 75
75 86 87 76
77 88 89 78
78 89 90 79
79 90 91 80
80 91 92 81
81 92 93 82
82 93 94 83
83 94 95 84
84 95 96 85
85 96 97 86
86 97 98 87
88 99 100 89
89 100 101 90
90 101 102 91
91 102 103 92
92 103 104 93
93 104 105 94
94 105 106 95
95 106 107 96
96 107 108 97
97 108 109 98
99 110 111 100
100 111 112 101
101 112 113 102
102 113 114 103
103 114 115 104
104 115 116 105
105 116 117 106
106 117 118 107
107 118 119 108
108 119 120 109
110 121 122 111
111 122 123 112
112 123 124 113
113 124 125 114
114 125 126 115
115 126 127 116
116 127 128 117
117 128 129 118
118 129 130 119
119 130 131 120
121 132 133 122
122 133 134 123
123 134 135 124
124 135 136 125
125 136 137 126
126 137 138 127
127 138 139 128
128 139 140 129
129 140 141 130
130 141 142 131
132 143 144 133
133 144 145 134
134 145 146 135
135 146 147 136
136 147 148 137
137 148 149 138
138 149 150 139
139 150 151 140
140 151 152 141
141 152 153 142
143 154 155 144
144 155 156 145
145 156 157 146
146 157 158 147
147 158 159 148
148 159 160 149
149 160 161 150
150 161 162 151
151 162 163 152
152 163 164 153
154 165 166 155
155 166 167 156
156 167 168 157
157 168 169 158
158 169 170 159
159 170 171 160
160 171 172 161
161 172 173 162
162 173 174 163
163 174 175 164
165 176 177 166
166 177 178 167
167 178 179 168
168 179 180 169
169 180 181 170
170 181 182 171
171 182 183 172
172 183 184 173
173 184 185 174
174 185 186 175
</DataArray>
<DataArray Name="offsets" type="Int32" format="ascii">
4
8
12
16
20
24
28
32
36
40
44
48
52
56
60
64
68
72
76
80
84
88
92
96
100
104
108
112
116
120
124
128
132
136
140
144
148
152
156
160
164
168
172
176
180
184
188
192
196
200
204
208
212
216
220
224
228
232
236
240
244
248
252
256
260
264
268
272
276
280
284
288
292
296
300
304
308
312
316
320
324
328
332
336
340
344
348
352
356
360
364
368
372
376
380
384
388
392
396
400
404
408
412
416
420
424
428
432
436
440
444
448
452
456
460
464
468
472
476
480
484
488
492
496
500
504
508
512
516
520
524
528
532
536
540
544
548
552
556
560
564
568
572
576
580
584
588
592
596
600
604
608
612
616
620
624
628
632
636
640
</DataArray>
<DataArray Name="types" type="UInt8" format="ascii">
9
9
9
9
9
9
9
9
9
9
9
9
9
9
9
9
9
9
9
9
9
9
9
9
9
9
9
9
9
9
9
9
9
9
9
9
9
9
9
9
9
9
9
9
9
9
9
9
9
9
9
9
9
9
9
9
9
9
9
9
9
9
9
9
9
9
9
9
9
9
9
9
9
9
9
9
9
9
9
9
9
9
9
9
9
9
9
9
9
9
9
9
9
9
9
9
9
9
9
9
9
9
9
9
9
9
9
9
9
9
9
9
9
9
9
9
9
9
9
9
9
9
9
9
9
9
9
9
9
9
9
9
9
9
9
9
9
9
9
9
9
9
9
9
9
9
9
9
9
9
9
9
9
9
9
9
9
9
9
9
</DataArray>
</Cells>
<PointData>
<DataArray Name="disp" type="Float64" NumberOfComponents="3" format="ascii">
0.000000e+00 0.000000e+00 0.000000e+00
0.000000e+00 -3.648435e-03 0.000000e+00
0.000000e+00 -1.009025e-02 0.000000e+00
0.000000e+00 -2.000927e-02 0.000000e+00
0.000000e+00 -3.243095e-02 0.000000e+00
0.000000e+00 -4.607650e-02 0.000000e+00
0.000000e+00 -5.946876e-02 0.000000e+00
0.000000e+00 -7.150948e-02 0.000000e+00
0.000000e+00 -8.077737e-02 0.000000e+00
0.000000e+00 -8.583144e-02 0.000000e+00
0.000000e+00 -9.000000e-02 0.000000e+00
0.000000e+00 0.000000e+00 0.000000e+00
2.576312e-03 -3.868641e-03 0.000000e+00
7.193834e-03 -1.000436e-02 0.000000e+00
1.107677e-02 -1.849237e-02 0.000000e+00
1.336212e-02 -2.896123e-02 0.000000e+00
1.396505e-02 -4.078865e-02 0.000000e+00
1.329116e-02 -5.320010e-02 0.000000e+00
1.090961e-02 -6.513455e-02 0.000000e+00
5.765080e-03 -7.622087e-02 0.000000e+00
5.856721e-04 -8.526488e-02 0.000000e+00
0.000000e+00 -9.000000e-02 0.000000e+00
0.000000e+00 0.000000e+00 0.000000e+00
5.592968e-03 -3.407756e-03 0.000000e+00
1.252230e-02 -7.954434e-03 0.000000e+00
1.838632e-02 -1.323596e-02 0.000000e+00
2.260483e-02 -1.949625e-02 0.000000e+00
2.469622e-02 -2.728139e-02 0.000000e+00
2.474092e-02 -3.661089e-02 0.000000e+00
2.261840e-02 -4.737023e-02 0.000000e+00
1.789196e-02 -6.020882e-02 0.000000e+00
1.130129e-02 -7.511968e-02 0.000000e+00
0.000000e+00 -9.000000e-02 0.000000e+00
0.000000e+00 0.000000e+00 0.000000e+00
7.932027e-03 -1.885159e-03 0.000000e+00
1.525017e-02 -4.032983e-03 0.000000e+00
2.114598e-02 -5.776490e-03 0.000000e+00
2.542681e-02 -6.888753e-03 0.000000e+00
2.828097e-02 -7.509392e-03 0.000000e+00
2.914066e-02 -7.701196e-03 0.000000e+00
2.794828e-02 -7.474510e-03 0.000000e+00
2.499403e-02 -6.786167e-03 0.000000e+00
1.950305e-02 -6.175443e-03 0.000000e+00
1.087097e-02 -6.896194e-03 0.000000e+00
0.000000e+00 0.000000e+00 0.000000e+00
8.756142e-03 -1.053904e-03 0.000000e+00
1.559618e-02 -2.053001e-03 0.000000e+00
2.060688e-02 -2.652203e-03 0.000000e+00
2.413576e-02 -2.808170e-03 0.000000e+00
2.634763e-02 -2.410118e-03 0.000000e+00
2.680300e-02 -1.531633e-03 0.000000e+00
2.546296e-02 -3.960673e-04 0.000000e+00
2.250351e-02 7.835087e-04 0.000000e+00
1.787165e-02 1.663486e-03 0.000000e+00
1.209200e-02 1.756224e-03 0.000000e+00
0.000000e+00 0.000000e+00 0.000000e+00
8.908844e-03 -5.360756e-04 0.000000e+00
1.483837e-02 -8.402594e-04 0.000000e+00
1.910048e-02 -6.368309e-04 0.000000e+00
2.208892e-02 3.921221e-05 0.000000e+00
2.378047e-02 1.175593e-03 0.000000e+00
2.401360e-02 2.622819e-03 0.000000e+00
2.277542e-02 4.132069e-03 0.000000e+00
2.020053e-02 5.475952e-03 0.000000e+00
1.660601e-02 6.319018e-03 0.000000e+00
1.296354e-02 6.355089e-03 0.000000e+00
0.000000e+00 0.000000e+00 0.000000e+00
8.433066e-03 -5.570387e-05 0.000000e+00
1.349522e-02 1.955425e-04 0.000000e+00
1.712478e-02 8.807990e-04 0.000000e+00
1.959900e-02 2.014382e-03 0.000000e+00
2.097534e-02 3.539425e-03 0.000000e+00
2.115680e-02 5.243903e-03 0.000000e+00
2.015137e-02 6.899736e-03 0.000000e+00
1.812347e-02 8.290547e-03 0.000000e+00
1.560159e-02 9.080949e-03 0.000000e+00
1.337214e-02 9.229229e-03 0.000000e+00
0.000000e+00 0.000000e+00 0.000000e+00
7.524418e-03 2.640940e-04 0.000000e+00
1.184284e-02 8.321771e-04 0.000000e+00
1.489497e-02 1.819088e-03 0.000000e+00
1.698548e-02 3.214674e-03 0.000000e+00
1.816094e-02 4.895446e-03 0.000000e+00
1.837369e-02 6.665818e-03 0.000000e+00
1.765339e-02 8.357849e-03 0.000000e+00
1.621976e-02 9.739899e-03 0.000000e+00
1.461610e-02 1.054343e-02 0.000000e+00
1.341565e-02 1.078156e-02 0.000000e+00
0.000000e+00 0.000000e+00 0.000000e+00
6.387638e-03 3.789256e-04 0.000000e+00
1.003233e-02 1.142696e-03 0.000000e+00
1.261235e-02 2.297294e-03 0.000000e+00
1.440093e-02 3.771950e-03 0.000000e+00
1.544582e-02 5.448482e-03 0.000000e+00
1.572926e-02 7.193241e-03 0.000000e+00
1.530015e-02 8.847013e-03 0.000000e+00
1.441320e-02 1.020107e-02 0.000000e+00
1.355379e-02 1.103467e-02 0.000000e+00
1.311081e-02 1.139765e-02 0.000000e+00
0.000000e+00 0.000000e+00 0.000000e+00
5.188960e-03 4.201458e-04 0.000000e+00
8.195817e-03 1.246228e-03 0.000000e+00
1.040508e-02 2.420812e-03 0.000000e+00
1.194146e-02 3.836391e-03 0.000000e+00
1.289567e-02 5.425123e-03 0.000000e+00
1.324878e-02 7.078853e-03 0.000000e+00
1.308089e-02 8.654080e-03 0.000000e+00
1.265836e-02 9.966775e-03 0.000000e+00
1.236658e-02 1.084454e-02 0.000000e+00
1.243539e-02 1.135849e-02 0.000000e+00
0.000000e+00 0.000000e+00 0.000000e+00
3.998315e-03 3.779345e-04 0.000000e+00
6.461529e-03 1.161693e-03 0.000000e+00
8.345173e-03 2.260794e-03 0.000000e+00
9.680601e-03 3.565014e-03 0.000000e+00
1.054118e-02 5.020160e-03 0.000000e+00
1.094366e-02 6.547912e-03 0.000000e+00
1.098507e-02 8.024014e-03 0.000000e+00
1.092295e-02 9.284131e-03 0.000000e+00
1.102688e-02 1.022585e-02 0.000000e+00
1.140102e-02 1.090903e-02 0.000000e+00
0.000000e+00 0.000000e+00 0.000000e+00
2.930178e-03 2.804034e-04 0.000000e+00
4.905177e-03 9.491612e-04 0.000000e+00
6.472803e-03 1.925394e-03 0.000000e+00
7.624216e-03 3.100765e-03 0.000000e+00
8.392616e-03 4.413387e-03 0.000000e+00
8.811386e-03 5.795463e-03 0.000000e+00
9.003199e-03 7.150896e-03 0.000000e+00
9.179370e-03 8.359965e-03 0.000000e+00
9.511843e-03 9.380248e-03 0.000000e+00
1.003483e-02 1.026041e-02 0.000000e+00
0.000000e+00 0.000000e+00 0.000000e+00
2.033282e-03 1.741864e-04 0.000000e+00
3.559558e-03 7.033346e-04 0.000000e+00
4.804573e-03 1.521101e-03 0.000000e+00
5.765061e-03 2.553808e-03 0.000000e+00
6.435303e-03 3.733817e-03 0.000000e+00
6.848425e-03 4.978068e-03 0.000000e+00
7.121644e-03 6.218109e-03 0.000000e+00
7.409176e-03 7.387831e-03 0.000000e+00
7.818439e-03 8.484134e-03 0.000000e+00
8.357611e-03 9.552010e-03 0.000000e+00
0.000000e+00 0.000000e+00 0.000000e+00
1.319518e-03 8.960946e-05 0.000000e+00
2.431398e-03 4.789399e-04 0.000000e+00
3.355488e-03 1.133478e-03 0.000000e+00
4.096684e-03 2.014101e-03 0.000000e+00
4.646985e-03 3.065052e-03 0.000000e+00
5.023765e-03 4.205657e-03 0.000000e+00
5.306241e-03 5.366986e-03 0.000000e+00
5.603038e-03 6.520691e-03 0.000000e+00
5.983730e-03 7.677199e-03 0.000000e+00
6.451313e-03 8.880387e-03 0.000000e+00
0.000000e+00 0.000000e+00 0.000000e+00
7.711233e-04 2.200349e-05 0.000000e+00
1.492847e-03 2.903469e-04 0.000000e+00
2.111764e-03 8.149827e-04 0.000000e+00
2.614381e-03 1.564675e-03 0.000000e+00
3.000163e-03 2.504421e-03 0.000000e+00
3.290222e-03 3.565067e-03 0.000000e+00
3.523490e-03 4.682680e-03 0.000000e+00
3.760990e-03 5.831712e-03 0.000000e+00
4.047501e-03 7.033637e-03 0.000000e+00
4.386920e-03 8.338000e-03 0.000000e+00
0.000000e+00 0.000000e+00 0.000000e+00
3.545743e-04 -3.377258e-05 0.000000e+00
7.036304e-04 1.585041e-04 0.000000e+00
1.016952e-03 6.013402e-04 0.000000e+00
1.270353e-03 1.273224e-03 0.000000e+00
1.466881e-03 2.136014e-03 0.000000e+00
1.624507e-03 3.134611e-03 0.000000e+00
1.756747e-03 4.222055e-03 0.000000e+00
1.887931e-03 5.371773e-03 0.000000e+00
2.041062e-03 6.605776e-03 0.000000e+00
2.218097e-03 7.973900e-03 0.000000e+00
0.000000e+00 0.000000e+00 0.000000e+00
0.000000e+00 -4.198042e-05 0.000000e+00
0.000000e+00 1.245121e-04 0.000000e+00
0.000000e+00 5.311085e-04 0.000000e+00
0.000000e+00 1.167099e-03 0.000000e+00
0.000000e+00 1.996054e-03 0.000000e+00
0.000000e+00 2.969492e-03 0.000000e+00
0.000000e+00 4.041275e-03 0.000000e+00
0.000000e+00 5.184446e-03 0.000000e+00
0.000000e+00 6.422907e-03 0.000000e+00
0.000000e+00 7.806556e-03 0.000000e+00
</DataArray>
<DataArray Name="shear" type="Float64" NumberOfComponents="1" format="ascii">
2.294688e-02
3.873551e-02
7.167713e-02
1.021529e-01
1.218381e-01
1.288371e-01
1.233849e-01
1.036919e-01
6.748970e-02
3.319845e-02
2.289069e-02
2.677344e-02
4.166755e-02
6.792030e-02
9.138852e-02
1.097738e-01
1.208229e-01
1.222814e-01
1.129568e-01
9.332567e-02
6.351049e-02
4.061675e-02
3.544867e-02
4.664134e-02
6.137603e-02
7.345250e-02
8.854230e-02
1.065597e-01
1.246980e-01
1.418467e-01
1.595098e-01
1.665650e-01
1.637385e-01
4.222029e-02
4.612872e-02
4.932512e-02
5.113332e-02
5.625624e-02
6.534421e-02
7.775697e-02
9.460657e-02
1.157992e-01
1.382703e-01
1.551110e-01
4.483832e-02
4.239500e-02
3.691849e-02
3.306681e-02
3.098484e-02
2.903542e-02
2.609916e-02
2.249730e-02
1.705518e-02
7.351446e-03
1.356654e-03
4.495122e-02
3.928240e-02
3.092782e-02
2.782475e-02
2.666517e-02
2.550735e-02
2.320788e-02
1.973501e-02
1.473982e-02
6.995686e-03
2.241580e-03
4.247643e-02
3.566715e-02
2.700096e-02
2.491425e-02
2.439019e-02
2.362793e-02
2.177284e-02
1.879839e-02
1.412989e-02
7.117510e-03
2.340608e-03
3.788885e-02
3.123321e-02
2.356556e-02
2.251250e-02
2.253070e-02
2.208639e-02
2.073094e-02
1.826938e-02
1.394981e-02
7.660870e-03
3.495095e-03
3.222210e-02
2.660609e-02
2.082508e-02
2.046177e-02
2.072234e-02
2.059233e-02
1.972380e-02
1.771066e-02
1.385309e-02
8.469378e-03
5.136549e-03
2.624090e-02
2.203960e-02
1.827393e-02
1.836567e-02
1.880139e-02
1.902966e-02
1.860542e-02
1.701656e-02
1.375589e-02
9.493782e-03
7.090556e-03
2.030692e-02
1.758067e-02
1.565756e-02
1.621688e-02
1.687990e-02
1.740734e-02
1.735718e-02
1.619243e-02
1.370468e-02
1.071113e-02
9.172306e-03
1.492496e-02
1.348585e-02
1.306680e-02
1.412513e-02
1.508957e-02
1.581566e-02
1.601199e-02
1.530175e-02
1.374488e-02
1.207407e-02
1.132102e-02
1.039381e-02
9.936974e-03
1.058425e-02
1.207644e-02
1.341716e-02
1.435625e-02
1.474237e-02
1.450457e-02
1.386341e-02
1.335484e-02
1.325361e-02
6.771954e-03
6.949793e-03
8.297376e-03
1.013319e-02
1.184062e-02
1.309271e-02
1.375590e-02
1.396506e-02
1.403888e-02
1.434898e-02
1.469513e-02
3.965053e-03
4.492308e-03
6.383490e-03
8.543023e-03
1.051776e-02
1.205908e-02
1.304730e-02
1.365461e-02
1.422589e-02
1.507123e-02
1.571120e-02
1.832164e-03
2.691042e-03
5.077740e-03
7.521033e-03
9.651022e-03
1.133256e-02
1.255516e-02
1.346540e-02
1.435720e-02
1.551692e-02
1.632415e-02
6.660668e-04
1.986567e-03
4.605766e-03
7.150325e-03
9.333748e-03
1.106129e-02
1.237070e-02
1.339058e-02
1.439272e-02
1.565688e-02
1.651759e-02
</DataArray>
<DataArray Name="stress" type="Float64" NumberOfComponents="9" format="ascii">
-1.287151e+05 7.803508e+03 0.000000e+00 7.803508e+03 -2.335034e+05 0.000000e+00 0.000000e+00 0.000000e+00 0.000000e+00
-1.180228e+05 5.255872e+03 0.000000e+00 5.255872e+03 -2.365627e+05 0.000000e+00 0.000000e+00 0.000000e+00 0.000000e+00
-1.236335e+05 3.876073e+03 0.000000e+00 3.876073e+03 -2.362417e+05 0.000000e+00 0.000000e+00 0.000000e+00 0.000000e+00
-1.370962e+05 5.756821e+03 0.000000e+00 5.756821e+03 -2.475060e+05 0.000000e+00 0.000000e+00 0.000000e+00 0.000000e+00
-1.477688e+05 3.471932e+03 0.000000e+00 3.471932e+03 -2.527550e+05 0.000000e+00 0.000000e+00 0.000000e+00 0.000000e+00
-1.521138e+05 5.987864e+03 0.000000e+00 5.987864e+03 -2.586954e+05 0.000000e+00 0.000000e+00 0.000000e+00 0.000000e+00
-1.541786e+05 8.516469e+03 0.000000e+00 8.516469e+03 -2.732684e+05 0.000000e+00 0.000000e+00 0.000000e+00 0.000000e+00
-1.521202e+05 1.082055e+04 0.000000e+00 1.082055e+04 -2.809114e+05 0.000000e+00 0.000000e+00 0.000000e+00 0.000000e+00
-1.560893e+05 8.750025e+03 0.000000e+00 8.750025e+03 -2.969153e+05 0.000000e+00 0.000000e+00 0.000000e+00 0.000000e+00
-1.638893e+05 -7.377148e+02 0.000000e+00 -7.377148e+02 -3.109076e+05 0.000000e+00 0.000000e+00 0.000000e+00 0.000000e+00
-1.656154e+05 -1.773963e+02 0.000000e+00 -1.773963e+02 -2.936929e+05 0.000000e+00 0.000000e+00 0.000000e+00 0.000000e+00
-1.351940e+05 2.320787e+04 0.000000e+00 2.320787e+04 -2.292361e+05 0.000000e+00 0.000000e+00 0.000000e+00 0.000000e+00
-1.194564e+05 1.878302e+04 0.000000e+00 1.878302e+04 -2.252058e+05 0.000000e+00 0.000000e+00 0.000000e+00 0.000000e+00
-1.219658e+05 1.600792e+04 0.000000e+00 1.600792e+04 -2.319413e+05 0.000000e+00 0.000000e+00 0.000000e+00 0.000000e+00
-1.320880e+05 1.306521e+04 0.000000e+00 1.306521e+04 -2.430268e+05 0.000000e+00 0.000000e+00 0.000000e+00 0.000000e+00
-1.430814e+05 1.171408e+04 0.000000e+00 1.171408e+04 -2.528936e+05 0.000000e+00 0.000000e+00 0.000000e+00 0.000000e+00
-1.511476e+05 1.283509e+04 0.000000e+00 1.283509e+04 -2.616751e+05 0.000000e+00 0.000000e+00 0.000000e+00 0.000000e+00
-1.556300e+05 1.502549e+04 0.000000e+00 1.502549e+04 -2.736628e+05 0.000000e+00 0.000000e+00 0.000000e+00 0.000000e+00
-1.556564e+05 1.532771e+04 0.000000e+00 1.532771e+04 -2.841814e+05 0.000000e+00 0.000000e+00 0.000000e+00 0.000000e+00
-1.589330e+05 7.046377e+03 0.000000e+00 7.046377e+03 -2.979341e+05 0.000000e+00 0.000000e+00 0.000000e+00 0.000000e+00
-1.601888e+05 -2.541968e+03 0.000000e+00 -2.541968e+03 -3.015102e+05 0.000000e+00 0.000000e+00 0.000000e+00 0.000000e+00
-1.846189e+05 -8.686761e+03 0.000000e+00 -8.686761e+03 -3.466139e+05 0.000000e+00 0.000000e+00 0.000000e+00 0.000000e+00
-1.372629e+05 3.680299e+04 0.000000e+00 3.680299e+04 -1.996318e+05 0.000000e+00 0.000000e+00 0.000000e+00 0.000000e+00
-1.172375e+05 3.030017e+04 0.000000e+00 3.030017e+04 -1.861525e+05 0.000000e+00 0.000000e+00 0.000000e+00 0.000000e+00
-1.178274e+05 2.893304e+04 0.000000e+00 2.893304e+04 -1.942699e+05 0.000000e+00 0.000000e+00 0.000000e+00 0.000000e+00
-1.280021e+05 2.953610e+04 0.000000e+00 2.953610e+04 -2.074582e+05 0.000000e+00 0.000000e+00 0.000000e+00 0.000000e+00
-1.449676e+05 3.140724e+04 0.000000e+00 3.140724e+04 -2.254109e+05 0.000000e+00 0.000000e+00 0.000000e+00 0.000000e+00
-1.625616e+05 3.556826e+04 0.000000e+00 3.556826e+04 -2.428054e+05 0.000000e+00 0.000000e+00 0.000000e+00 0.000000e+00
-1.741227e+05 3.952817e+04 0.000000e+00 3.952817e+04 -2.646728e+05 0.000000e+00 0.000000e+00 0.000000e+00 0.000000e+00
-1.826264e+05 4.284535e+04 0.000000e+00 4.284535e+04 -2.852500e+05 0.000000e+00 0.000000e+00 0.000000e+00 0.000000e+00
-1.919597e+05 3.666096e+04 0.000000e+00 3.666096e+04 -2.982072e+05 0.000000e+00 0.000000e+00 0.000000e+00 0.000000e+00
-1.988077e+05 2.106285e+04 0.000000e+00 2.106285e+04 -3.095261e+05 0.000000e+00 0.000000e+00 0.000000e+00 0.000000e+00
-2.231820e+05 -2.501559e+03 0.000000e+00 -2.501559e+03 -3.727085e+05 0.000000e+00 0.000000e+00 0.000000e+00 0.000000e+00
-1.250581e+05 3.433868e+04 0.000000e+00 3.433868e+04 -1.483900e+05 0.000000e+00 0.000000e+00 0.000000e+00 0.000000e+00
-1.097888e+05 3.116713e+04 0.000000e+00 3.116713e+04 -1.375281e+05 0.000000e+00 0.000000e+00 0.000000e+00 0.000000e+00
-1.130224e+05 3.243015e+04 0.000000e+00 3.243015e+04 -1.387833e+05 0.000000e+00 0.000000e+00 0.000000e+00 0.000000e+00
-1.227068e+05 3.604672e+04 0.000000e+00 3.604672e+04 -1.387261e+05 0.000000e+00 0.000000e+00 0.000000e+00 0.000000e+00
-1.318482e+05 3.871719e+04 0.000000e+00 3.871719e+04 -1.376858e+05 0.000000e+00 0.000000e+00 0.000000e+00 0.000000e+00
-1.375978e+05 3.735132e+04 0.000000e+00 3.735132e+04 -1.323391e+05 0.000000e+00 0.000000e+00 0.000000e+00 0.000000e+00
-1.358275e+05 3.308009e+04 0.000000e+00 3.308009e+04 -1.241221e+05 0.000000e+00 0.000000e+00 0.000000e+00 0.000000e+00
-1.241502e+05 2.750753e+04 0.000000e+00 2.750753e+04 -1.098329e+05 0.000000e+00 0.000000e+00 0.000000e+00 0.000000e+00
-1.107693e+05 1.949146e+04 0.000000e+00 1.949146e+04 -9.408465e+04 0.000000e+00 0.000000e+00 0.000000e+00 0.000000e+00
-8.431623e+04 9.304449e+03 0.000000e+00 9.304449e+03 -7.975431e+04 0.000000e+00 0.000000e+00 0.000000e+00 0.000000e+00
-4.515354e+04 3.771417e+03 0.000000e+00 3.771417e+03 -5.797772e+04 0.000000e+00 0.000000e+00 0.000000e+00 0.000000e+00
-1.172458e+05 3.311263e+04 0.000000e+00 3.311263e+04 -1.202419e+05 0.000000e+00 0.000000e+00 0.000000e+00 0.000000e+00
-1.105853e+05 3.144778e+04 0.000000e+00 3.144778e+04 -1.160611e+05 0.000000e+00 0.000000e+00 0.000000e+00 0.000000e+00
-1.189304e+05 3.382175e+04 0.000000e+00 3.382175e+04 -1.190433e+05 0.000000e+00 0.000000e+00 0.000000e+00 0.000000e+00
-1.322685e+05 3.637460e+04 0.000000e+00 3.637460e+04 -1.185825e+05 0.000000e+00 0.000000e+00 0.000000e+00 0.000000e+00
-1.419602e+05 3.602391e+04 0.000000e+00 3.602391e+04 -1.126159e+05 0.000000e+00 0.000000e+00 0.000000e+00 0.000000e+00
-1.474875e+05 3.188780e+04 0.000000e+00 3.188780e+04 -1.038605e+05 0.000000e+00 0.000000e+00 0.000000e+00 0.000000e+00
-1.463777e+05 2.548454e+04 0.000000e+00 2.548454e+04 -9.411888e+04 0.000000e+00 0.000000e+00 0.000000e+00 0.000000e+00
-1.394295e+05 1.860828e+04 0.000000e+00 1.860828e+04 -8.403621e+04 0.000000e+00 0.000000e+00 0.000000e+00 0.000000e+00
-1.272262e+05 1.023098e+04 0.000000e+00 1.023098e+04 -7.507216e+04 0.000000e+00 0.000000e+00 0.000000e+00 0.000000e+00
-9.569806e+04 1.244923e+03 0.000000e+00 1.244923e+03 -6.816805e+04 0.000000e+00 0.000000e+00 0.000000e+00 0.000000e+00
-5.038898e+04 -1.396066e+03 0.000000e+00 -1.396066e+03 -5.323911e+04 0.000000e+00 0.000000e+00 0.000000e+00 0.000000e+00
-1.114285e+05 3.237409e+04 0.000000e+00 3.237409e+04 -1.052452e+05 0.000000e+00 0.000000e+00 0.000000e+00 0.000000e+00
-1.112863e+05 3.228710e+04 0.000000e+00 3.228710e+04 -1.047131e+05 0.000000e+00 0.000000e+00 0.000000e+00 0.000000e+00
-1.205377e+05 3.301898e+04 0.000000e+00 3.301898e+04 -1.047998e+05 0.000000e+00 0.000000e+00 0.000000e+00 0.000000e+00
-1.314525e+05 3.113093e+04 0.000000e+00 3.113093e+04 -9.989832e+04 0.000000e+00 0.000000e+00 0.000000e+00 0.000000e+00
-1.379714e+05 2.765359e+04 0.000000e+00 2.765359e+04 -9.347037e+04 0.000000e+00 0.000000e+00 0.000000e+00 0.000000e+00
-1.408724e+05 2.243366e+04 0.000000e+00 2.243366e+04 -8.672595e+04 0.000000e+00 0.000000e+00 0.000000e+00 0.000000e+00
-1.394207e+05 1.617167e+04 0.000000e+00 1.617167e+04 -7.965750e+04 0.000000e+00 0.000000e+00 0.000000e+00 0.000000e+00
-1.318224e+05 9.114373e+03 0.000000e+00 9.114373e+03 -7.244845e+04 0.000000e+00 0.000000e+00 0.000000e+00 0.000000e+00
-1.174858e+05 1.423272e+03 0.000000e+00 1.423272e+03 -6.641577e+04 0.000000e+00 0.000000e+00 0.000000e+00 0.000000e+00
-9.008529e+04 -4.057116e+03 0.000000e+00 -4.057116e+03 -6.220862e+04 0.000000e+00 0.000000e+00 0.000000e+00 0.000000e+00
-5.567668e+04 -4.610916e+03 0.000000e+00 -4.610916e+03 -5.433392e+04 0.000000e+00 0.000000e+00 0.000000e+00 0.000000e+00
-1.040280e+05 3.063346e+04 0.000000e+00 3.063346e+04 -9.271863e+04 0.000000e+00 0.000000e+00 0.000000e+00 0.000000e+00
-1.098851e+05 3.093023e+04 0.000000e+00 3.093023e+04 -9.474126e+04 0.000000e+00 0.000000e+00 0.000000e+00 0.000000e+00
-1.186623e+05 2.861439e+04 0.000000e+00 2.861439e+04 -9.177868e+04 0.000000e+00 0.000000e+00 0.000000e+00 0.000000e+00
-1.283677e+05 2.533780e+04 0.000000e+00 2.533780e+04 -8.680953e+04 0.000000e+00 0.000000e+00 0.000000e+00 0.000000e+00
-1.332521e+05 2.103166e+04 0.000000e+00 2.103166e+04 -8.174190e+04 0.000000e+00 0.000000e+00 0.000000e+00 0.000000e+00
-1.349090e+05 1.563776e+04 0.000000e+00 1.563776e+04 -7.633218e+04 0.000000e+00 0.000000e+00 0.000000e+00 0.000000e+00
-1.323975e+05 9.398013e+03 0.000000e+00 9.398013e+03 -7.093572e+04 0.000000e+00 0.000000e+00 0.000000e+00 0.000000e+00
-1.239189e+05 2.557932e+03 0.000000e+00 2.557932e+03 -6.597735e+04 0.000000e+00 0.000000e+00 0.000000e+00 0.000000e+00
-1.103049e+05 -3.450706e+03 0.000000e+00 -3.450706e+03 -6.263724e+04 0.000000e+00 0.000000e+00 0.000000e+00 0.000000e+00
-8.867344e+04 -5.490295e+03 0.000000e+00 -5.490295e+03 -6.044418e+04 0.000000e+00 0.000000e+00 0.000000e+00 0.000000e+00
-6.457275e+04 -4.552814e+03 0.000000e+00 -4.552814e+03 -5.595338e+04 0.000000e+00 0.000000e+00 0.000000e+00 0.000000e+00
-9.491888e+04 2.825015e+04 0.000000e+00 2.825015e+04 -8.194904e+04 0.000000e+00 0.000000e+00 0.000000e+00 0.000000e+00
-1.059292e+05 2.835102e+04 0.000000e+00 2.835102e+04 -8.585005e+04 0.000000e+00 0.000000e+00 0.000000e+00 0.000000e+00
-1.158279e+05 2.413109e+04 0.000000e+00 2.413109e+04 -8.176841e+04 0.000000e+00 0.000000e+00 0.000000e+00 0.000000e+00
-1.241558e+05 2.043786e+04 0.000000e+00 2.043786e+04 -7.786765e+04 0.000000e+00 0.000000e+00 0.000000e+00 0.000000e+00
-1.279725e+05 1.574184e+04 0.000000e+00 1.574184e+04 -7.363335e+04 0.000000e+00 0.000000e+00 0.000000e+00 0.000000e+00
-1.288519e+05 1.039514e+04 0.000000e+00 1.039514e+04 -6.938961e+04 0.000000e+00 0.000000e+00 0.000000e+00 0.000000e+00
-1.253749e+05 4.430347e+03 0.000000e+00 4.430347e+03 -6.543956e+04 0.000000e+00 0.000000e+00 0.000000e+00 0.000000e+00
-1.171463e+05 -1.395324e+03 0.000000e+00 -1.395324e+03 -6.238409e+04 0.000000e+00 0.000000e+00 0.000000e+00 0.000000e+00
-1.058841e+05 -5.500572e+03 0.000000e+00 -5.500572e+03 -6.066853e+04 0.000000e+00 0.000000e+00 0.000000e+00 0.000000e+00
-9.038384e+04 -5.684324e+03 0.000000e+00 -5.684324e+03 -5.973832e+04 0.000000e+00 0.000000e+00 0.000000e+00 0.000000e+00
-7.411848e+04 -4.277993e+03 0.000000e+00 -4.277993e+03 -5.662249e+04 0.000000e+00 0.000000e+00 0.000000e+00 0.000000e+00
-8.607502e+04 2.460101e+04 0.000000e+00 2.460101e+04 -7.433819e+04 0.000000e+00 0.000000e+00 0.000000e+00 0.000000e+00
-1.008198e+05 2.494459e+04 0.000000e+00 2.494459e+04 -7.877184e+04 0.000000e+00 0.000000e+00 0.000000e+00 0.000000e+00
-1.123181e+05 2.048980e+04 0.000000e+00 2.048980e+04 -7.475866e+04 0.000000e+00 0.000000e+00 0.000000e+00 0.000000e+00
-1.193684e+05 1.637992e+04 0.000000e+00 1.637992e+04 -7.136502e+04 0.000000e+00 0.000000e+00 0.000000e+00 0.000000e+00
-1.227120e+05 1.162279e+04 0.000000e+00 1.162279e+04 -6.805777e+04 0.000000e+00 0.000000e+00 0.000000e+00 0.000000e+00
-1.228799e+05 6.423837e+03 0.000000e+00 6.423837e+03 -6.483219e+04 0.000000e+00 0.000000e+00 0.000000e+00 0.000000e+00
-1.191590e+05 1.109734e+03 0.000000e+00 1.109734e+03 -6.214084e+04 0.000000e+00 0.000000e+00 0.000000e+00 0.000000e+00
-1.120444e+05 -3.475639e+03 0.000000e+00 -3.475639e+03 -6.033864e+04 0.000000e+00 0.000000e+00 0.000000e+00 0.000000e+00
-1.035540e+05 -6.115112e+03 0.000000e+00 -6.115112e+03 -5.958308e+04 0.000000e+00 0.000000e+00 0.000000e+00 0.000000e+00
-9.324253e+04 -5.351673e+03 0.000000e+00 -5.351673e+03 -5.936901e+04 0.000000e+00 0.000000e+00 0.000000e+00 0.000000e+00
-8.292674e+04 -3.631546e+03 0.000000e+00 -3.631546e+03 -5.732688e+04 0.000000e+00 0.000000e+00 0.000000e+00 0.000000e+00
-7.912161e+04 2.137119e+04 0.000000e+00 2.137119e+04 -6.882461e+04 0.000000e+00 0.000000e+00 0.000000e+00 0.000000e+00
-9.629332e+04 2.156512e+04 0.000000e+00 2.156512e+04 -7.304930e+04 0.000000e+00 0.000000e+00 0.000000e+00 0.000000e+00
-1.083685e+05 1.741020e+04 0.000000e+00 1.741020e+04 -6.972863e+04 0.000000e+00 0.000000e+00 0.000000e+00 0.000000e+00
-1.146467e+05 1.311310e+04 0.000000e+00 1.311310e+04 -6.679605e+04 0.000000e+00 0.000000e+00 0.000000e+00 0.000000e+00
-1.175312e+05 8.444920e+03 0.000000e+00 8.444920e+03 -6.420102e+04 0.000000e+00 0.000000e+00 0.000000e+00 0.000000e+00
-1.173382e+05 3.591207e+03 0.000000e+00 3.591207e+03 -6.189876e+04 0.000000e+00 0.000000e+00 0.000000e+00 0.000000e+00
-1.140281e+05 -9.838481e+02 0.000000e+00 -9.838481e+02 -6.013799e+04 0.000000e+00 0.000000e+00 0.000000e+00 0.000000e+00
-1.084368e+05 -4.450232e+03 0.000000e+00 -4.450232e+03 -5.916768e+04 0.000000e+00 0.000000e+00 0.000000e+00 0.000000e+00
-1.025906e+05 -5.989396e+03 0.000000e+00 -5.989396e+03 -5.893325e+04 0.000000e+00 0.000000e+00 0.000000e+00 0.000000e+00
-9.653549e+04 -4.700375e+03 0.000000e+00 -4.700375e+03 -5.913805e+04 0.000000e+00 0.000000e+00 0.000000e+00 0.000000e+00
-9.067112e+04 -2.897395e+03 0.000000e+00 -2.897395e+03 -5.807532e+04 0.000000e+00 0.000000e+00 0.000000e+00 0.000000e+00
-7.485837e+04 1.917554e+04 0.000000e+00 1.917554e+04 -6.508643e+04 0.000000e+00 0.000000e+00 0.000000e+00 0.000000e+00
-9.235900e+04 1.899061e+04 0.000000e+00 1.899061e+04 -6.891052e+04 0.000000e+00 0.000000e+00 0.000000e+00 0.000000e+00
-1.039847e+05 1.479997e+04 0.000000e+00 1.479997e+04 -6.597123e+04 0.000000e+00 0.000000e+00 0.000000e+00 0.000000e+00
-1.098972e+05 1.049642e+04 0.000000e+00 1.049642e+04 -6.357601e+04 0.000000e+00 0.000000e+00 0.000000e+00 0.000000e+00
-1.125562e+05 6.038513e+03 0.000000e+00 6.038513e+03 -6.151566e+04 0.000000e+00 0.000000e+00 0.000000e+00 0.000000e+00
-1.123912e+05 1.654471e+03 0.000000e+00 1.654471e+03 -5.993294e+04 0.000000e+00 0.000000e+00 0.000000e+00 0.000000e+00
-1.098249e+05 -2.186260e+03 0.000000e+00 -2.186260e+03 -5.889741e+04 0.000000e+00 0.000000e+00 0.000000e+00 0.000000e+00
-1.060485e+05 -4.735169e+03 0.000000e+00 -4.735169e+03 -5.853022e+04 0.000000e+00 0.000000e+00 0.000000e+00 0.000000e+00
-1.025671e+05 -5.459480e+03 0.000000e+00 -5.459480e+03 -5.863888e+04 0.000000e+00 0.000000e+00 0.000000e+00 0.000000e+00
-9.980960e+04 -3.905317e+03 0.000000e+00 -3.905317e+03 -5.906664e+04 0.000000e+00 0.000000e+00 0.000000e+00 0.000000e+00
-9.727107e+04 -2.114755e+03 0.000000e+00 -2.114755e+03 -5.874085e+04 0.000000e+00 0.000000e+00 0.000000e+00 0.000000e+00
-7.240386e+04 1.719469e+04 0.000000e+00 1.719469e+04 -6.262017e+04 0.000000e+00 0.000000e+00 0.000000e+00 0.000000e+00
-8.853816e+04 1.660151e+04 0.000000e+00 1.660151e+04 -6.590591e+04 0.000000e+00 0.000000e+00 0.000000e+00 0.000000e+00
-9.949916e+04 1.247462e+04 0.000000e+00 1.247462e+04 -6.332096e+04 0.000000e+00 0.000000e+00 0.000000e+00 0.000000e+00
-1.052119e+05 8.412959e+03 0.000000e+00 8.412959e+03 -6.140880e+04 0.000000e+00 0.000000e+00 0.000000e+00 0.000000e+00
-1.078846e+05 4.284187e+03 0.000000e+00 4.284187e+03 -5.980126e+04 0.000000e+00 0.000000e+00 0.000000e+00 0.000000e+00
-1.081009e+05 3.946538e+02 0.000000e+00 3.946538e+02 -5.869774e+04 0.000000e+00 0.000000e+00 0.000000e+00 0.000000e+00
-1.066236e+05 -2.715069e+03 0.000000e+00 -2.715069e+03 -5.817274e+04 0.000000e+00 0.000000e+00 0.000000e+00 0.000000e+00
-1.046114e+05 -4.517524e+03 0.000000e+00 -4.517524e+03 -5.816806e+04 0.000000e+00 0.000000e+00 0.000000e+00 0.000000e+00
-1.031852e+05 -4.681357e+03 0.000000e+00 -4.681357e+03 -5.860220e+04 0.000000e+00 0.000000e+00 0.000000e+00 0.000000e+00
-1.026840e+05 -3.086348e+03 0.000000e+00 -3.086348e+03 -5.923348e+04 0.000000e+00 0.000000e+00 0.000000e+00 0.000000e+00
-1.023311e+05 -1.435271e+03 0.000000e+00 -1.435271e+03 -5.943076e+04 0.000000e+00 0.000000e+00 0.000000e+00 0.000000e+00
-7.021162e+04 1.513632e+04 0.000000e+00 1.513632e+04 -6.163867e+04 0.000000e+00 0.000000e+00 0.000000e+00 0.000000e+00
-8.458579e+04 1.434099e+04 0.000000e+00 1.434099e+04 -6.394386e+04 0.000000e+00 0.000000e+00 0.000000e+00 0.000000e+00
-9.528901e+04 1.044587e+04 0.000000e+00 1.044587e+04 -6.152847e+04 0.000000e+00 0.000000e+00 0.000000e+00 0.000000e+00
-1.008407e+05 6.696887e+03 0.000000e+00 6.696887e+03 -5.993318e+04 0.000000e+00 0.000000e+00 0.000000e+00 0.000000e+00
-1.035656e+05 2.974463e+03 0.000000e+00 2.974463e+03 -5.864419e+04 0.000000e+00 0.000000e+00 0.000000e+00 0.000000e+00
-1.044799e+05 -3.230544e+02 0.000000e+00 -3.230544e+02 -5.785811e+04 0.000000e+00 0.000000e+00 0.000000e+00 0.000000e+00
-1.042653e+05 -2.784754e+03 0.000000e+00 -2.784754e+03 -5.766702e+04 0.000000e+00 0.000000e+00 0.000000e+00 0.000000e+00
-1.038367e+05 -3.966756e+03 0.000000e+00 -3.966756e+03 -5.798414e+04 0.000000e+00 0.000000e+00 0.000000e+00 0.000000e+00
-1.040892e+05 -3.783927e+03 0.000000e+00 -3.783927e+03 -5.864434e+04 0.000000e+00 0.000000e+00 0.000000e+00 0.000000e+00
-1.050986e+05 -2.343729e+03 0.000000e+00 -2.343729e+03 -5.937436e+04 0.000000e+00 0.000000e+00 0.000000e+00 0.000000e+00
-1.062191e+05 -1.005906e+03 0.000000e+00 -1.005906e+03 -5.991753e+04 0.000000e+00 0.000000e+00 0.000000e+00 0.000000e+00
-6.841060e+04 1.251712e+04 0.000000e+00 1.251712e+04 -6.173712e+04 0.000000e+00 0.000000e+00 0.000000e+00 0.000000e+00
-8.097715e+04 1.160970e+04 0.000000e+00 1.160970e+04 -6.292322e+04 0.000000e+00 0.000000e+00 0.000000e+00 0.000000e+00
-9.149343e+04 8.414777e+03 0.000000e+00 8.414777e+03 -6.044188e+04 0.000000e+00 0.000000e+00 0.000000e+00 0.000000e+00
-9.703994e+04 5.140513e+03 0.000000e+00 5.140513e+03 -5.879177e+04 0.000000e+00 0.000000e+00 0.000000e+00 0.000000e+00
-9.995987e+04 2.013506e+03 0.000000e+00 2.013506e+03 -5.775459e+04 0.000000e+00 0.000000e+00 0.000000e+00 0.000000e+00
-1.015144e+05 -6.214353e+02 0.000000e+00 -6.214353e+02 -5.731793e+04 0.000000e+00 0.000000e+00 0.000000e+00 0.000000e+00
-1.024644e+05 -2.440034e+03 0.000000e+00 -2.440034e+03 -5.743192e+04 0.000000e+00 0.000000e+00 0.000000e+00 0.000000e+00
-1.034705e+05 -3.183766e+03 0.000000e+00 -3.183766e+03 -5.796902e+04 0.000000e+00 0.000000e+00 0.000000e+00 0.000000e+00
-1.050377e+05 -2.848503e+03 0.000000e+00 -2.848503e+03 -5.871879e+04 0.000000e+00 0.000000e+00 0.000000e+00 0.000000e+00
-1.071629e+05 -1.642849e+03 0.000000e+00 -1.642849e+03 -5.945274e+04 0.000000e+00 0.000000e+00 0.000000e+00 0.000000e+00
-1.092563e+05 -6.307224e+02 0.000000e+00 -6.307224e+02 -6.021708e+04 0.000000e+00 0.000000e+00 0.000000e+00 0.000000e+00
-6.767392e+04 9.287749e+03 0.000000e+00 9.287749e+03 -6.268899e+04 0.000000e+00 0.000000e+00 0.000000e+00 0.000000e+00
-7.840862e+04 8.446526e+03 0.000000e+00 8.446526e+03 -6.269182e+04 0.000000e+00 0.000000e+00 0.000000e+00 0.000000e+00
-8.833318e+04 6.102742e+03 0.000000e+00 6.102742e+03 -6.000061e+04 0.000000e+00 0.000000e+00 0.000000e+00 0.000000e+00
-9.391534e+04 3.599838e+03 0.000000e+00 3.599838e+03 -5.808645e+04 0.000000e+00 0.000000e+00 0.000000e+00 0.000000e+00
-9.720320e+04 1.301827e+03 0.000000e+00 1.301827e+03 -5.708810e+04 0.000000e+00 0.000000e+00 0.000000e+00 0.000000e+00
-9.935700e+04 -5.589125e+02 0.000000e+00 -5.589125e+02 -5.690361e+04 0.000000e+00 0.000000e+00 0.000000e+00 0.000000e+00
-1.012019e+05 -1.797237e+03 0.000000e+00 -1.797237e+03 -5.729705e+04 0.000000e+00 0.000000e+00 0.000000e+00 0.000000e+00
-1.033202e+05 -2.250501e+03 0.000000e+00 -2.250501e+03 -5.801716e+04 0.000000e+00 0.000000e+00 0.000000e+00 0.000000e+00
-1.058987e+05 -1.920577e+03 0.000000e+00 -1.920577e+03 -5.884464e+04 0.000000e+00 0.000000e+00 0.000000e+00 0.000000e+00
-1.086066e+05 -1.017428e+03 0.000000e+00 -1.017428e+03 -5.956287e+04 0.000000e+00 0.000000e+00 0.000000e+00 0.000000e+00
-1.111834e+05 -3.202993e+02 0.000000e+00 -3.202993e+02 -6.045200e+04 0.000000e+00 0.000000e+00 0.000000e+00 0.000000e+00
-6.719960e+04 5.026854e+03 0.000000e+00 5.026854e+03 -6.403013e+04 0.000000e+00 0.000000e+00 0.000000e+00 0.000000e+00
-7.669424e+04 4.514073e+03 0.000000e+00 4.514073e+03 -6.317568e+04 0.000000e+00 0.000000e+00 0.000000e+00 0.000000e+00
-8.616364e+04 3.215167e+03 0.000000e+00 3.215167e+03 -5.998785e+04 0.000000e+00 0.000000e+00 0.000000e+00 0.000000e+00
-9.181567e+04 1.850644e+03 0.000000e+00 1.850644e+03 -5.786168e+04 0.000000e+00 0.000000e+00 0.000000e+00 0.000000e+00
-9.545389e+04 6.681517e+02 0.000000e+00 6.681517e+02 -5.679330e+04 0.000000e+00 0.000000e+00 0.000000e+00 0.000000e+00
-9.805209e+04 -2.938518e+02 0.000000e+00 -2.938518e+02 -5.665877e+04 0.000000e+00 0.000000e+00 0.000000e+00 0.000000e+00
-1.004735e+05 -9.510201e+02 0.000000e+00 -9.510201e+02 -5.719993e+04 0.000000e+00 0.000000e+00 0.000000e+00 0.000000e+00
-1.032843e+05 -1.183688e+03 0.000000e+00 -1.183688e+03 -5.807710e+04 0.000000e+00 0.000000e+00 0.000000e+00 0.000000e+00
-1.064921e+05 -9.700620e+02 0.000000e+00 -9.700620e+02 -5.898666e+04 0.000000e+00 0.000000e+00 0.000000e+00 0.000000e+00
-1.094755e+05 -4.724402e+02 0.000000e+00 -4.724402e+02 -5.966606e+04 0.000000e+00 0.000000e+00 0.000000e+00 0.000000e+00
-1.122372e+05 -1.092792e+02 0.000000e+00 -1.092792e+02 -6.059997e+04 0.000000e+00 0.000000e+00 0.000000e+00 0.000000e+00
-6.694257e+04 1.520291e+03 0.000000e+00 1.520291e+03 -6.438208e+04 0.000000e+00 0.000000e+00 0.000000e+00 0.000000e+00
-7.608472e+04 1.344391e+03 0.000000e+00 1.344391e+03 -6.334010e+04 0.000000e+00 0.000000e+00 0.000000e+00 0.000000e+00
-8.542450e+04 8.350307e+02 0.000000e+00 8.350307e+02 -6.004453e+04 0.000000e+00 0.000000e+00 0.000000e+00 0.000000e+00
-9.111294e+04 3.320961e+02 0.000000e+00 3.320961e+02 -5.791171e+04 0.000000e+00 0.000000e+00 0.000000e+00 0.000000e+00
-9.491069e+04 -6.402732e+01 0.000000e+00 -6.402732e+01 -5.680425e+04 0.000000e+00 0.000000e+00 0.000000e+00 0.000000e+00
-9.761739e+04 -4.349206e+02 0.000000e+00 -4.349206e+02 -5.660431e+04 0.000000e+00 0.000000e+00 0.000000e+00 0.000000e+00
-1.002552e+05 -7.193846e+02 0.000000e+00 -7.193846e+02 -5.715557e+04 0.000000e+00 0.000000e+00 0.000000e+00 0.000000e+00
-1.033248e+05 -8.082079e+02 0.000000e+00 -8.082079e+02 -5.812325e+04 0.000000e+00 0.000000e+00 0.000000e+00 0.000000e+00
-1.067550e+05 -6.825614e+02 0.000000e+00 -6.825614e+02 -5.907682e+04 0.000000e+00 0.000000e+00 0.000000e+00 0.000000e+00
-1.098095e+05 -4.495223e+02 0.000000e+00 -4.495223e+02 -5.972635e+04 0.000000e+00 0.000000e+00 0.000000e+00 0.000000e+00
-1.126048e+05 -2.615406e+02 0.000000e+00 -2.615406e+02 -6.066748e+04 0.000000e+00 0.000000e+00 0.000000e+00 0.000000e+00
</DataArray>
<DataArray Name="vol_eps" type="Float64" NumberOfComponents="1" format="ascii">
-1.496701e-02
-1.261355e-02
-9.334726e-03
-7.576088e-03
-7.501115e-03
-8.095074e-03
-8.407292e-03
-1.067590e-02
-1.608681e-02
-2.119679e-02
-2.115473e-02
-1.481708e-02
-1.169450e-02
-9.006270e-03
-7.590173e-03
-7.348542e-03
-7.897752e-03
-8.269745e-03
-9.758607e-03
-1.306935e-02
-1.642977e-02
-2.366193e-02
-1.236362e-02
-8.606385e-03
-7.341589e-03
-7.326960e-03
-8.226349e-03
-9.135818e-03
-9.683595e-03
-1.023726e-02
-1.056432e-02
-1.123153e-02
-1.599774e-02
-7.775351e-03
-5.353205e-03
-5.220457e-03
-5.551442e-03
-5.636448e-03
-4.687643e-03
-2.666738e-03
5.176836e-04
4.732941e-03
9.847651e-03
1.642038e-02
-4.864791e-03
-4.290385e-03
-5.550756e-03
-6.756341e-03
-7.181936e-03
-7.116904e-03
-6.598445e-03
-5.718166e-03
-4.757185e-03
-2.621726e-03
1.568054e-03
-2.986684e-03
-3.513626e-03
-5.101154e-03
-5.879611e-03
-5.953693e-03
-5.697120e-03
-5.218052e-03
-4.530896e-03
-3.686722e-03
-1.955795e-03
8.555236e-04
-1.462623e-03
-2.899009e-03
-4.444054e-03
-4.973916e-03
-4.881521e-03
-4.544526e-03
-4.148932e-03
-3.622220e-03
-3.016084e-03
-1.785878e-03
3.349599e-05
-3.786875e-04
-2.406647e-03
-3.851710e-03
-4.173845e-03
-3.996096e-03
-3.727314e-03
-3.399041e-03
-2.985319e-03
-2.602139e-03
-1.859888e-03
-6.549641e-04
9.728741e-05
-2.064736e-03
-3.308256e-03
-3.499615e-03
-3.400573e-03
-3.181265e-03
-2.880958e-03
-2.568436e-03
-2.375357e-03
-2.020535e-03
-1.284256e-03
2.585091e-04
-1.842288e-03
-2.879693e-03
-3.042004e-03
-2.998552e-03
-2.801239e-03
-2.541180e-03
-2.323732e-03
-2.272867e-03
-2.197586e-03
-1.831973e-03
1.700640e-04
-1.724714e-03
-2.540412e-03
-2.708264e-03
-2.692377e-03
-2.537585e-03
-2.331347e-03
-2.204054e-03
-2.254894e-03
-2.352369e-03
-2.249020e-03
-6.006675e-05
-1.632905e-03
-2.270634e-03
-2.445355e-03
-2.460056e-03
-2.360389e-03
-2.227744e-03
-2.176577e-03
-2.288608e-03
-2.464932e-03
-2.517241e-03
-3.033871e-04
-1.538759e-03
-2.064027e-03
-2.245175e-03
-2.273973e-03
-2.226171e-03
-2.175645e-03
-2.201178e-03
-2.346800e-03
-2.533301e-03
-2.663017e-03
-4.722953e-04
-1.425389e-03
-1.904402e-03
-2.079603e-03
-2.120703e-03
-2.114880e-03
-2.139260e-03
-2.236335e-03
-2.403534e-03
-2.575045e-03
-2.736663e-03
-5.946618e-04
-1.321509e-03
-1.768904e-03
-1.938320e-03
-1.995702e-03
-2.027710e-03
-2.109322e-03
-2.262746e-03
-2.452313e-03
-2.593991e-03
-2.760177e-03
-7.003997e-04
-1.259684e-03
-1.657775e-03
-1.840264e-03
-1.917161e-03
-1.976275e-03
-2.092815e-03
-2.280351e-03
-2.482132e-03
-2.599959e-03
-2.762979e-03
-7.215879e-04
-1.233638e-03
-1.622335e-03
-1.822247e-03
-1.905680e-03
-1.966418e-03
-2.092676e-03
-2.296253e-03
-2.503475e-03
-2.612174e-03
-2.772192e-03
</DataArray>
</PointData>
</Piece>
</UnstructuredGrid>
</VTKFile>
