<?xml version="1.0"?>
<VTKFile type="UnstructuredGrid" version="0.1">
<UnstructuredGrid>
<FieldData>
<DataArray Name="TIME" type="Float64" format="ascii" NumberOfTuples="1">
0.000000e+00
</DataArray>
</FieldData>
<FieldData>
<DataArray Name="CYCLE" type="Int32" format="ascii" NumberOfTuples="1">
0
</DataArray>
</FieldData>
<Piece NumberOfPoints="187" NumberOfCells="160">
<Points>
<DataArray NumberOfComponents="3" type="Float64" format="ascii">
0.000000e+00 0.000000e+00 0.000000e+00
0.000000e+00 1.966838e-01 0.000000e+00
0.000000e+00 3.913275e-01 0.000000e+00
0.000000e+00 5.830420e-01 0.000000e+00
0.000000e+00 7.729732e-01 0.000000e+00
0.000000e+00 9.618930e-01 0.000000e+00
0.000000e+00 1.150792e+00 0.000000e+00
0.000000e+00 1.340582e+00 0.000000e+00
0.000000e+00 1.532350e+00 0.000000e+00
0.000000e+00 1.727502e+00 0.000000e+00
0.000000e+00 1.923500e+00 0.000000e+00
2.250000e-01 0.000000e+00 0.000000e+00
2.270576e-01 1.965753e-01 0.000000e+00
2.306032e-01 3.914394e-01 0.000000e+00
2.336833e-01 5.843154e-01 0.000000e+00
2.354656e-01 7.756950e-01 0.000000e+00
2.360854e-01 9.658511e-01 0.000000e+00
2.354715e-01 1.155453e+00 0.000000e+00
2.336393e-01 1.345298e+00 0.000000e+00
2.299111e-01 1.535750e+00 0.000000e+00
2.254943e-01 1.727955e+00 0.000000e+00
2.250000e-01 1.923500e+00 0.000000e+00
4.500000e-01 0.000000e+00 0.000000e+00
4.545252e-01 1.969524e-01 0.000000e+00
4.596787e-01 3.929671e-01 0.000000e+00
4.642523e-01 5.885159e-01 0.000000e+00
4.675061e-01 7.833704e-01 0.000000e+00
4.695204e-01 9.771519e-01 0.000000e+00
4.698050e-01 1.169410e+00 0.000000e+00
4.686188e-01 1.360026e+00 0.000000e+00
4.646190e-01 1.548962e+00 0.000000e+00
4.590973e-01 1.736262e+00 0.000000e+00
4.500000e-01 1.923500e+00 0.000000e+00
6.750000e-01 0.000000e+00 0.000000e+00
6.813570e-01 1.983580e-01 0.000000e+00
6.869695e-01 3.964960e-01 0.000000e+00
6.914515e-01 5.948228e-01 0.000000e+00
6.949592e-01 7.935190e-01 0.000000e+00
6.974000e-01 9.926258e-01 0.000000e+00
6.985825e-01 1.192214e+00 0.000000e+00
6.981087e-01 1.392417e+00 0.000000e+00
6.957310e-01 1.593124e+00 0.000000e+00
6.915811e-01 1.793817e+00 0.000000e+00
6.844405e-01 1.993459e+00 0.000000e+00
9.000000e-01 0.000000e+00 0.000000e+00
9.069507e-01 1.988925e-01 0.000000e+00
9.121613e-01 3.978909e-01 0.000000e+00
9.160271e-01 5.972364e-01 0.000000e+00
9.189680e-01 7.969688e-01 0.000000e+00
9.209031e-01 9.971281e-01 0.000000e+00
9.216115e-01 1.197727e+00 0.000000e+00
9.208248e-01 1.398649e+00 0.000000e+00
9.185752e-01 1.599614e+00 0.000000e+00
9.149653e-01 1.800367e+00 0.000000e+00
9.102855e-01 2.000494e+00 0.000000e+00
1.125000e+00 0.000000e+00 0.000000e+00
1.132030e+00 1.994432e-01 0.000000e+00
1.136518e+00 3.990574e-01 0.000000e+00
1.139843e+00 5.990538e-01 0.000000e+00
1.142313e+00 7.994259e-01 0.000000e+00
1.143818e+00 1.000157e+00 0.000000e+00
1.144238e+00 1.201197e+00 0.000000e+00
1.143474e+00 1.402375e+00 0.000000e+00
1.141572e+00 1.603459e+00 0.000000e+00
1.138802e+00 1.804161e+00 0.000000e+00
1.135899e+00 2.004239e+00 0.000000e+00
1.350000e+00 0.000000e+00 0.000000e+00
1.356594e+00 1.998158e-01 0.000000e+00
1.360423e+00 3.998854e-01 0.000000e+00
1.363282e+00 6.002946e-01 0.000000e+00
1.365337e+00 8.010261e-01 0.000000e+00
1.366542e+00 1.002060e+00 0.000000e+00
1.366842e+00 1.203303e+00 0.000000e+00
1.366221e+00 1.404578e+00 0.000000e+00
1.364771e+00 1.605681e+00 0.000000e+00
1.362878e+00 1.806338e+00 0.000000e+00
1.361147e+00 2.006492e+00 0.000000e+00
1.575000e+00 0.000000e+00 0.000000e+00
1.580854e+00 2.000877e-01 0.000000e+00
1.584102e+00 4.004214e-01 0.000000e+00
1.586532e+00 6.010613e-01 0.000000e+00
1.588267e+00 8.019919e-01 0.000000e+00
1.589268e+00 1.003151e+00 0.000000e+00
1.589542e+00 1.204438e+00 0.000000e+00
1.589112e+00 1.405717e+00 0.000000e+00
1.588134e+00 1.606791e+00 0.000000e+00
1.586987e+00 1.807441e+00 0.000000e+00
1.586089e+00 2.007667e+00 0.000000e+00
1.800000e+00 0.000000e+00 0.000000e+00
1.804926e+00 2.002161e-01 0.000000e+00
1.807679e+00 4.006931e-01 0.000000e+00
1.809746e+00 6.014457e-01 0.000000e+00
1.811226e+00 8.024482e-01 0.000000e+00
1.812094e+00 1.003623e+00 0.000000e+00
1.812384e+00 1.204885e+00 0.000000e+00
1.812157e+00 1.406108e+00 0.000000e+00
1.811605e+00 1.607122e+00 0.000000e+00
1.811044e+00 1.807778e+00 0.000000e+00
1.810739e+00 2.008101e+00 0.000000e+00
2.025000e+00 0.000000e+00 0.000000e+00
2.028949e+00 2.002378e-01 0.000000e+00
2.031263e+00 4.007562e-01 0.000000e+00
2.033025e+00 6.015322e-01 0.000000e+00
2.034285e+00 8.025232e-01 0.000000e+00
2.035058e+00 1.003655e+00 0.000000e+00
2.035383e+00 1.204848e+00 0.000000e+00
2.035352e+00 1.405986e+00 0.000000e+00
2.035148e+00 1.606931e+00 0.000000e+00
2.035008e+00 1.807601e+00 0.000000e+00
2.035094e+00 2.008036e+00 0.000000e+00
2.250000e+00 0.000000e+00 0.000000e+00
2.253031e+00 2.002006e-01 0.000000e+00
2.254944e+00 4.006902e-01 0.000000e+00
2.256417e+00 6.014233e-01 0.000000e+00
2.257485e+00 8.023480e-01 0.000000e+00
2.258176e+00 1.003399e+00 0.000000e+00
2.258538e+00 1.204494e+00 0.000000e+00
2.258675e+00 1.405536e+00 0.000000e+00
2.258731e+00 1.606422e+00 0.000000e+00
2.258863e+00 1.807118e+00 0.000000e+00
2.259171e+00 2.007669e+00 0.000000e+00
2.475000e+00 0.000000e+00 0.000000e+00
2.477223e+00 2.001427e-01 0.000000e+00
2.478766e+00 4.005699e-01 0.000000e+00
2.479963e+00 6.012164e-01 0.000000e+00
2.480849e+00 8.020394e-01 0.000000e+00
2.481461e+00 1.002974e+00 0.000000e+00
2.481850e+00 1.203953e+00 0.000000e+00
2.482105e+00 1.404899e+00 0.000000e+00
2.482322e+00 1.605753e+00 0.000000e+00
2.482606e+00 1.806490e+00 0.000000e+00
2.483016e+00 2.007149e+00 0.000000e+00
2.700000e+00 0.000000e+00 0.000000e+00
2.701548e+00 2.000854e-01 0.000000e+00
2.702745e+00 4.004270e-01 0.000000e+00
2.703687e+00 6.009705e-01 0.000000e+00
2.704403e+00 8.016675e-01 0.000000e+00
2.704928e+00 1.002473e+00 0.000000e+00
2.705307e+00 1.203340e+00 0.000000e+00
2.705608e+00 1.404213e+00 0.000000e+00
2.705897e+00 1.605047e+00 0.000000e+00
2.706241e+00 1.805831e+00 0.000000e+00
2.706664e+00 2.006596e+00 0.000000e+00
2.925000e+00 0.000000e+00 0.000000e+00
2.926010e+00 2.000325e-01 0.000000e+00
2.926877e+00 4.002766e-01 0.000000e+00
2.927584e+00 6.007121e-01 0.000000e+00
2.928138e+00 8.012973e-01 0.000000e+00
2.928555e+00 1.001996e+00 0.000000e+00
2.928876e+00 1.202771e+00 0.000000e+00
2.929160e+00 1.403584e+00 0.000000e+00
2.929447e+00 1.604404e+00 0.000000e+00
2.929775e+00 1.805231e+00 0.000000e+00
2.930147e+00 2.006090e+00 0.000000e+00
3.150000e+00 0.000000e+00 0.000000e+00
3.150604e+00 1.999799e-01 0.000000e+00
3.151156e+00 4.001441e-01 0.000000e+00
3.151631e+00 6.004894e-01 0.000000e+00
3.152011e+00 8.009939e-01 0.000000e+00
3.152304e+00 1.001618e+00 0.000000e+00
3.152534e+00 1.202322e+00 0.000000e+00
3.152748e+00 1.403085e+00 0.000000e+00
3.152976e+00 1.603893e+00 0.000000e+00
3.153229e+00 1.804749e+00 0.000000e+00
3.153503e+00 2.005681e+00 0.000000e+00
3.375000e+00 0.000000e+00 0.000000e+00
3.375283e+00 1.999460e-01 0.000000e+00
3.375549e+00 4.000607e-01 0.000000e+00
3.375786e+00 6.003501e-01 0.000000e+00
3.375980e+00 8.008008e-01 0.000000e+00
3.376130e+00 1.001375e+00 0.000000e+00
3.376251e+00 1.202036e+00 0.000000e+00
3.376364e+00 1.402762e+00 0.000000e+00
3.376490e+00 1.603556e+00 0.000000e+00
3.376627e+00 1.804430e+00 0.000000e+00
3.376773e+00 2.005409e+00 0.000000e+00
3.600000e+00 0.000000e+00 0.000000e+00
3.600000e+00 1.999454e-01 0.000000e+00
3.600000e+00 4.000456e-01 0.000000e+00
3.600000e+00 6.003150e-01 0.000000e+00
3.600000e+00 8.007408e-01 0.000000e+00
3.600000e+00 1.001291e+00 0.000000e+00
3.600000e+00 1.201931e+00 0.000000e+00
3.600000e+00 1.402640e+00 0.000000e+00
3.600000e+00 1.603424e+00 0.000000e+00
3.600000e+00 1.804300e+00 0.000000e+00
3.600000e+00 2.005292e+00 0.000000e+00
</DataArray>
</Points>
<Cells>
<DataArray Name="connectivity" type="Int32" format="ascii">
0 11 12 1
1 12 13 2
2 13 14 3
3 14 15 4
4 15 16 5
5 16 17 6
6 17 18 7
7 18 19 8
8 19 20 9
9 20 21 10
11 22 23 12
12 23 24 13
13 24 25 14
14 25 26 15
15 26 27 16
16 27 28 17
17 28 29 18
18 29 30 19
19 30 31 20
20 31 32 21
22 33 34 23
23 34 35 24
24 35 36 25
25 36 37 26
26 37 38 27
27 38 39 28
28 39 40 29
29 40 41 30
30 41 42 31
31 42 43 32
33 44 45 34
34 45 46 35
35 46 47 36
36 47 48 37
37 48 49 38
38 49 50 39
39 50 51 40
40 51 52 41
41 52 53 42
42 53 54 43
44 55 56 45
45 56 57 46
46 57 58 47
47 58 59 48
48 59 60 49
49 60 61 50
50 61 62 51
51 62 63 52
52 63 64 53
53 64 65 54
55 66 67 56
56 67 68 57
57 68 69 58
58 69 70 59
59 70 71 60
60 71 72 61
61 72 73 62
62 73 74 63
63 74 75 64
64 75 76 65
66 77 78 67
67 78 79 68
68 79 80 69
69 80 81 70
70 81 82 71
71 82 83 72
72 83 84 73
73 84 85 74
74 85 86 75
75 86 87 76
77 88 89 78
78 89 90 79
79 90 91 80
80 91 92 81
81 92 93 82
82 93 94 83
83 94 95 84
84 95 96 85
85 96 97 86
86 97 98 87
88 99 100 89
89 100 101 90
90 101 102 91
91 102 103 92
92 103 104 93
93 104 105 94
94 105 106 95
95 106 107 96
96 107 108 97
97 108 109 98
99 110 111 100
100 111 112 101
101 112 113 102
102 113 114 103
103 114 115 104
104 115 116 105
105 116 117 106
106 117 118 107
107 118 119 108
108 119 120 109
110 121 122 111
111 122 123 112
112 123 124 113
113 124 125 114
114 125 126 115
115 126 127 116
116 127 128 117
117 128 129 118
118 129 130 119
119 130 131 120
121 132 133 122
122 133 134 123
123 134 135 124
124 135 136 125
125 136 137 126
126 137 138 127
127 138 139 128
128 139 140 129
129 140 141 130
130 141 142 131
132 143 144 133
133 144 145 134
134 145 146 135
135 146 147 136
136 147 148 137
137 148 149 138
138 149 150 139
139 150 151 140
140 151 152 141
141 152 153 142
143 154 155 144
144 155 156 145
145 156 157 146
146 157 158 147
147 158 159 148
148 159 160 149
149 160 161 150
150 161 162 151
151 162 163 152
152 163 164 153
154 165 166 155
155 166 167 156
156 167 168 157
157 168 169 158
158 169 170 159
159 170 171 160
160 171 172 161
161 172 173 162
162 173 174 163
163 174 175 164
165 176 177 166
166 177 178 167
167 178 179 168
168 179 180 169
169 180 181 170
170 181 182 171
171 182 183 172
172 183 184 173
173 184 185 174
174 185 186 175
</DataArray>
<DataArray Name="offsets" type="Int32" format="ascii">
4
8
12
16
20
24
28
32
36
40
44
48
52
56
60
64
68
72
76
80
84
88
92
96
100
104
108
112
116
120
124
128
132
136
140
144
148
152
156
160
164
168
172
176
180
184
188
192
196
200
204
208
212
216
220
224
228
232
236
240
244
248
252
256
260
264
268
272
276
280
284
288
292
296
300
304
308
312
316
320
324
328
332
336
340
344
348
352
356
360
364
368
372
376
380
384
388
392
396
400
404
408
412
416
420
424
428
432
436
440
444
448
452
456
460
464
468
472
476
480
484
488
492
496
500
504
508
512
516
520
524
528
532
536
540
544
548
552
556
560
564
568
572
576
580
584
588
592
596
600
604
608
612
616
620
624
628
632
636
640
</DataArray>
<DataArray Name="types" type="UInt8" format="ascii">
9
9
9
9
9
9
9
9
9
9
9
9
9
9
9
9
9
9
9
9
9
9
9
9
9
9
9
9
9
9
9
9
9
9
9
9
9
9
9
9
9
9
9
9
9
9
9
9
9
9
9
9
9
9
9
9
9
9
9
9
9
9
9
9
9
9
9
9
9
9
9
9
9
9
9
9
9
9
9
9
9
9
9
9
9
9
9
9
9
9
9
9
9
9
9
9
9
9
9
9
9
9
9
9
9
9
9
9
9
9
9
9
9
9
9
9
9
9
9
9
9
9
9
9
9
9
9
9
9
9
9
9
9
9
9
9
9
9
9
9
9
9
9
9
9
9
9
9
9
9
9
9
9
9
9
9
9
9
9
9
</DataArray>
</Cells>
<PointData>
<DataArray Name="disp" type="Float64" NumberOfComponents="3" format="ascii">
0.000000e+00 0.000000e+00 0.000000e+00
0.000000e+00 -3.316237e-03 0.000000e+00
0.000000e+00 -8.672531e-03 0.000000e+00
0.000000e+00 -1.695798e-02 0.000000e+00
0.000000e+00 -2.702681e-02 0.000000e+00
0.000000e+00 -3.810695e-02 0.000000e+00
0.000000e+00 -4.920832e-02 0.000000e+00
0.000000e+00 -5.941846e-02 0.000000e+00
0.000000e+00 -6.764966e-02 0.000000e+00
0.000000e+00 -7.249795e-02 0.000000e+00
0.000000e+00 -7.650000e-02 0.000000e+00
0.000000e+00 0.000000e+00 0.000000e+00
2.057581e-03 -3.424676e-03 0.000000e+00
5.603209e-03 -8.560569e-03 0.000000e+00
8.683287e-03 -1.568465e-02 0.000000e+00
1.046564e-02 -2.430506e-02 0.000000e+00
1.108535e-02 -3.414891e-02 0.000000e+00
1.047153e-02 -4.454697e-02 0.000000e+00
8.639298e-03 -5.470217e-02 0.000000e+00
4.911096e-03 -6.424956e-02 0.000000e+00
4.942724e-04 -7.204486e-02 0.000000e+00
0.000000e+00 -7.650000e-02 0.000000e+00
0.000000e+00 0.000000e+00 0.000000e+00
4.525211e-03 -3.047612e-03 0.000000e+00
9.678750e-03 -7.032895e-03 0.000000e+00
1.425233e-02 -1.148405e-02 0.000000e+00
1.750612e-02 -1.662962e-02 0.000000e+00
1.952037e-02 -2.284812e-02 0.000000e+00
1.980502e-02 -3.058983e-02 0.000000e+00
1.861882e-02 -3.997378e-02 0.000000e+00
1.461899e-02 -5.103778e-02 0.000000e+00
9.097318e-03 -6.373808e-02 0.000000e+00
0.000000e+00 -7.650000e-02 0.000000e+00
0.000000e+00 0.000000e+00 0.000000e+00
6.357035e-03 -1.641966e-03 0.000000e+00
1.196949e-02 -3.503982e-03 0.000000e+00
1.645155e-02 -5.177169e-03 0.000000e+00
1.995921e-02 -6.480958e-03 0.000000e+00
2.239999e-02 -7.374152e-03 0.000000e+00
2.358247e-02 -7.786097e-03 0.000000e+00
2.310865e-02 -7.582529e-03 0.000000e+00
2.073101e-02 -6.875846e-03 0.000000e+00
1.658112e-02 -6.182726e-03 0.000000e+00
9.440477e-03 -6.541210e-03 0.000000e+00
0.000000e+00 0.000000e+00 0.000000e+00
6.950717e-03 -1.107446e-03 0.000000e+00
1.216127e-02 -2.109113e-03 0.000000e+00
1.602704e-02 -2.763604e-03 0.000000e+00
1.896804e-02 -3.031231e-03 0.000000e+00
2.090316e-02 -2.871942e-03 0.000000e+00
2.161155e-02 -2.272533e-03 0.000000e+00
2.082480e-02 -1.351212e-03 0.000000e+00
1.857514e-02 -3.862311e-04 0.000000e+00
1.496525e-02 3.669774e-04 0.000000e+00
1.028548e-02 4.939364e-04 0.000000e+00
0.000000e+00 0.000000e+00 0.000000e+00
7.029880e-03 -5.568294e-04 0.000000e+00
1.151812e-02 -9.425638e-04 0.000000e+00
1.484299e-02 -9.462218e-04 0.000000e+00
1.731278e-02 -5.741261e-04 0.000000e+00
1.881827e-02 1.567908e-04 0.000000e+00
1.923807e-02 1.197223e-03 0.000000e+00
1.847354e-02 2.375127e-03 0.000000e+00
1.657177e-02 3.459287e-03 0.000000e+00
1.380186e-02 4.161247e-03 0.000000e+00
1.089888e-02 4.239034e-03 0.000000e+00
0.000000e+00 0.000000e+00 0.000000e+00
6.594340e-03 -1.841709e-04 0.000000e+00
1.042339e-02 -1.146182e-04 0.000000e+00
1.328173e-02 2.946500e-04 0.000000e+00
1.533737e-02 1.026132e-03 0.000000e+00
1.654208e-02 2.060157e-03 0.000000e+00
1.684245e-02 3.302510e-03 0.000000e+00
1.622054e-02 4.577677e-03 0.000000e+00
1.477150e-02 5.681450e-03 0.000000e+00
1.287842e-02 6.338278e-03 0.000000e+00
1.114718e-02 6.492272e-03 0.000000e+00
0.000000e+00 0.000000e+00 0.000000e+00
5.853955e-03 8.770084e-05 0.000000e+00
9.101831e-03 4.214255e-04 0.000000e+00
1.153204e-02 1.061353e-03 0.000000e+00
1.326664e-02 1.991969e-03 0.000000e+00
1.426775e-02 3.151459e-03 0.000000e+00
1.454188e-02 4.437923e-03 0.000000e+00
1.411161e-02 5.717497e-03 0.000000e+00
1.313352e-02 6.790705e-03 0.000000e+00
1.198697e-02 7.440508e-03 0.000000e+00
1.108888e-02 7.667363e-03 0.000000e+00
0.000000e+00 0.000000e+00 0.000000e+00
4.926452e-03 2.161304e-04 0.000000e+00
7.679052e-03 6.931108e-04 0.000000e+00
9.746407e-03 1.445690e-03 0.000000e+00
1.122634e-02 2.448235e-03 0.000000e+00
1.209358e-02 3.623141e-03 0.000000e+00
1.238375e-02 4.884474e-03 0.000000e+00
1.215712e-02 6.108063e-03 0.000000e+00
1.160548e-02 7.122060e-03 0.000000e+00
1.104360e-02 7.777543e-03 0.000000e+00
1.073862e-02 8.100652e-03 0.000000e+00
0.000000e+00 0.000000e+00 0.000000e+00
3.949516e-03 2.377690e-04 0.000000e+00
6.262886e-03 7.561788e-04 0.000000e+00
8.024741e-03 1.532192e-03 0.000000e+00
9.284958e-03 2.523174e-03 0.000000e+00
1.005750e-02 3.654678e-03 0.000000e+00
1.038289e-02 4.847528e-03 0.000000e+00
1.035179e-02 5.985568e-03 0.000000e+00
1.014762e-02 6.930645e-03 0.000000e+00
1.000829e-02 7.601116e-03 0.000000e+00
1.009356e-02 8.035659e-03 0.000000e+00
0.000000e+00 0.000000e+00 0.000000e+00
3.031045e-03 2.005816e-04 0.000000e+00
4.943574e-03 6.901536e-04 0.000000e+00
6.417228e-03 1.423252e-03 0.000000e+00
7.485174e-03 2.347972e-03 0.000000e+00
8.176336e-03 3.398840e-03 0.000000e+00
8.538270e-03 4.493637e-03 0.000000e+00
8.675227e-03 5.536245e-03 0.000000e+00
8.731468e-03 6.421597e-03 0.000000e+00
8.863053e-03 7.117918e-03 0.000000e+00
9.171428e-03 7.669296e-03 0.000000e+00
0.000000e+00 0.000000e+00 0.000000e+00
2.222562e-03 1.426658e-04 0.000000e+00
3.766333e-03 5.698616e-04 0.000000e+00
4.963009e-03 1.216460e-03 0.000000e+00
5.849091e-03 2.039388e-03 0.000000e+00
6.461180e-03 2.974386e-03 0.000000e+00
6.850376e-03 3.952672e-03 0.000000e+00
7.104571e-03 4.898566e-03 0.000000e+00
7.322397e-03 5.752918e-03 0.000000e+00
7.605781e-03 6.490215e-03 0.000000e+00
8.015613e-03 7.148524e-03 0.000000e+00
0.000000e+00 0.000000e+00 0.000000e+00
1.548227e-03 8.543722e-05 0.000000e+00
2.745040e-03 4.270461e-04 0.000000e+00
3.687088e-03 9.705304e-04 0.000000e+00
4.403180e-03 1.667452e-03 0.000000e+00
4.927803e-03 2.473173e-03 0.000000e+00
5.307078e-03 3.340385e-03 0.000000e+00
5.607953e-03 4.213066e-03 0.000000e+00
5.896500e-03 5.046922e-03 0.000000e+00
6.240746e-03 5.831009e-03 0.000000e+00
6.664192e-03 6.595806e-03 0.000000e+00
0.000000e+00 0.000000e+00 0.000000e+00
1.010274e-03 3.250501e-05 0.000000e+00
1.877493e-03 2.766281e-04 0.000000e+00
2.583671e-03 7.120627e-04 0.000000e+00
3.137956e-03 1.297278e-03 0.000000e+00
3.555077e-03 1.995907e-03 0.000000e+00
3.876518e-03 2.771225e-03 0.000000e+00
4.160052e-03 3.583505e-03 0.000000e+00
4.447504e-03 4.404076e-03 0.000000e+00
4.774909e-03 5.231046e-03 0.000000e+00
5.147232e-03 6.090019e-03 0.000000e+00
0.000000e+00 0.000000e+00 0.000000e+00
6.043382e-04 -2.009473e-05 0.000000e+00
1.156537e-03 1.440967e-04 0.000000e+00
1.630604e-03 4.894398e-04 0.000000e+00
2.011138e-03 9.939010e-04 0.000000e+00
2.303741e-03 1.617832e-03 0.000000e+00
2.533749e-03 2.322070e-03 0.000000e+00
2.747633e-03 3.084559e-03 0.000000e+00
2.975781e-03 3.892513e-03 0.000000e+00
3.228474e-03 4.749243e-03 0.000000e+00
3.503209e-03 5.681035e-03 0.000000e+00
0.000000e+00 0.000000e+00 0.000000e+00
2.825500e-04 -5.399759e-05 0.000000e+00
5.488546e-04 6.065288e-05 0.000000e+00
7.859311e-04 3.500551e-04 0.000000e+00
9.799382e-04 8.007857e-04 0.000000e+00
1.129777e-03 1.374903e-03 0.000000e+00
1.251388e-03 2.035758e-03 0.000000e+00
1.364244e-03 2.762035e-03 0.000000e+00
1.490018e-03 3.556140e-03 0.000000e+00
1.626742e-03 4.429695e-03 0.000000e+00
1.772704e-03 5.408501e-03 0.000000e+00
0.000000e+00 0.000000e+00 0.000000e+00
0.000000e+00 -5.457456e-05 0.000000e+00
0.000000e+00 4.557700e-05 0.000000e+00
0.000000e+00 3.149784e-04 0.000000e+00
0.000000e+00 7.407862e-04 0.000000e+00
0.000000e+00 1.290989e-03 0.000000e+00
0.000000e+00 1.930784e-03 0.000000e+00
0.000000e+00 2.639621e-03 0.000000e+00
0.000000e+00 3.423628e-03 0.000000e+00
0.000000e+00 4.299938e-03 0.000000e+00
0.000000e+00 5.292280e-03 0.000000e+00
</DataArray>
<DataArray Name="shear" type="Float64" NumberOfComponents="1" format="ascii">
2.021758e-02
3.232697e-02
5.815346e-02
8.223521e-02
9.760088e-02
1.039932e-01
1.003711e-01
8.599971e-02
5.844222e-02
3.036217e-02
2.171181e-02
2.296690e-02
3.445863e-02
5.483365e-02
7.337370e-02
8.808444e-02
9.809373e-02
1.007836e-01
9.486134e-02
7.871249e-02
5.431815e-02
3.603369e-02
2.946524e-02
3.801624e-02
4.953052e-02
5.931945e-02
7.175717e-02
8.709174e-02
1.037973e-01
1.188731e-01
1.329709e-01
1.402837e-01
1.391104e-01
3.409987e-02
3.673156e-02
3.916246e-02
4.154901e-02
4.653133e-02
5.439059e-02
6.533184e-02
7.904910e-02
9.701679e-02
1.166204e-01
1.306991e-01
3.577979e-02
3.330859e-02
2.865525e-02
2.660394e-02
2.598089e-02
2.524702e-02
2.362200e-02
2.048292e-02
1.548114e-02
7.336462e-03
2.979101e-04
3.560452e-02
3.083022e-02
2.423622e-02
2.243303e-02
2.177818e-02
2.102493e-02
1.955958e-02
1.685426e-02
1.264896e-02
6.267005e-03
1.867062e-03
3.325925e-02
2.758147e-02
2.080400e-02
1.958514e-02
1.919276e-02
1.874586e-02
1.767519e-02
1.553700e-02
1.182540e-02
6.227268e-03
2.321725e-03
2.948971e-02
2.406769e-02
1.810962e-02
1.746604e-02
1.739030e-02
1.718405e-02
1.644322e-02
1.470634e-02
1.139369e-02
6.570586e-03
3.357009e-03
2.484231e-02
2.034954e-02
1.582085e-02
1.563633e-02
1.583120e-02
1.584492e-02
1.535412e-02
1.388035e-02
1.102659e-02
7.125556e-03
4.685748e-03
1.996263e-02
1.669152e-02
1.373629e-02
1.392377e-02
1.436753e-02
1.459184e-02
1.426897e-02
1.300899e-02
1.070027e-02
7.832275e-03
6.177043e-03
1.535427e-02
1.328345e-02
1.172872e-02
1.224741e-02
1.291964e-02
1.331630e-02
1.314278e-02
1.217087e-02
1.049280e-02
8.623230e-03
7.646682e-03
1.129222e-02
1.023374e-02
9.778543e-03
1.054678e-02
1.139562e-02
1.195463e-02
1.200398e-02
1.145983e-02
1.046692e-02
9.437381e-03
8.976797e-03
7.890141e-03
7.555286e-03
7.897628e-03
8.877290e-03
9.865413e-03
1.062392e-02
1.098996e-02
1.091584e-02
1.055519e-02
1.023879e-02
1.018254e-02
5.158372e-03
5.239764e-03
6.149568e-03
7.400201e-03
8.573105e-03
9.518870e-03
1.016282e-02
1.050311e-02
1.067969e-02
1.094969e-02
1.121115e-02
3.063054e-03
3.358225e-03
4.699371e-03
6.253833e-03
7.632996e-03
8.716663e-03
9.532502e-03
1.017896e-02
1.077418e-02
1.148854e-02
1.198766e-02
1.435308e-03
1.994971e-03
3.732635e-03
5.513958e-03
7.034323e-03
8.212256e-03
9.124035e-03
9.940892e-03
1.080709e-02
1.181250e-02
1.246596e-02
4.925916e-04
1.441322e-03
3.390773e-03
5.244809e-03
6.809589e-03
8.022073e-03
8.972572e-03
9.845207e-03
1.080671e-02
1.191489e-02
1.262216e-02
</DataArray>
<DataArray Name="stress" type="Float64" NumberOfComponents="9" format="ascii">
-1.235031e+05 6.805202e+03 0.000000e+00 6.805202e+03 -2.179297e+05 0.000000e+00 0.000000e+00 0.000000e+00 0.000000e+00
-1.094332e+05 5.078284e+03 0.000000e+00 5.078284e+03 -2.192927e+05 0.000000e+00 0.000000e+00 0.000000e+00 0.000000e+00
-1.139570e+05 3.896671e+03 0.000000e+00 3.896671e+03 -2.250782e+05 0.000000e+00 0.000000e+00 0.000000e+00 0.000000e+00
-1.222820e+05 4.240301e+03 0.000000e+00 4.240301e+03 -2.330605e+05 0.000000e+00 0.000000e+00 0.000000e+00 0.000000e+00
-1.322483e+05 5.511464e+03 0.000000e+00 5.511464e+03 -2.423001e+05 0.000000e+00 0.000000e+00 0.000000e+00 0.000000e+00
-1.412760e+05 6.785802e+03 0.000000e+00 6.785802e+03 -2.510648e+05 0.000000e+00 0.000000e+00 0.000000e+00 0.000000e+00
-1.446976e+05 8.779078e+03 0.000000e+00 8.779078e+03 -2.631875e+05 0.000000e+00 0.000000e+00 0.000000e+00 0.000000e+00
-1.455135e+05 1.059061e+04 0.000000e+00 1.059061e+04 -2.746520e+05 0.000000e+00 0.000000e+00 0.000000e+00 0.000000e+00
-1.489394e+05 6.175001e+03 0.000000e+00 6.175001e+03 -2.844590e+05 0.000000e+00 0.000000e+00 0.000000e+00 0.000000e+00
-1.583386e+05 -1.238204e+03 0.000000e+00 -1.238204e+03 -2.956708e+05 0.000000e+00 0.000000e+00 0.000000e+00 0.000000e+00
-1.613855e+05 2.929585e+01 0.000000e+00 2.929585e+01 -2.821145e+05 0.000000e+00 0.000000e+00 0.000000e+00 0.000000e+00
-1.267400e+05 2.001663e+04 0.000000e+00 2.001663e+04 -2.122588e+05 0.000000e+00 0.000000e+00 0.000000e+00 0.000000e+00
-1.107839e+05 1.683611e+04 0.000000e+00 1.683611e+04 -2.082006e+05 0.000000e+00 0.000000e+00 0.000000e+00 0.000000e+00
-1.125753e+05 1.534634e+04 0.000000e+00 1.534634e+04 -2.192266e+05 0.000000e+00 0.000000e+00 0.000000e+00 0.000000e+00
-1.204052e+05 1.423860e+04 0.000000e+00 1.423860e+04 -2.299776e+05 0.000000e+00 0.000000e+00 0.000000e+00 0.000000e+00
-1.302033e+05 1.338564e+04 0.000000e+00 1.338564e+04 -2.412909e+05 0.000000e+00 0.000000e+00 0.000000e+00 0.000000e+00
-1.408728e+05 1.303701e+04 0.000000e+00 1.303701e+04 -2.517048e+05 0.000000e+00 0.000000e+00 0.000000e+00 0.000000e+00
-1.460026e+05 1.348717e+04 0.000000e+00 1.348717e+04 -2.608648e+05 0.000000e+00 0.000000e+00 0.000000e+00 0.000000e+00
-1.457377e+05 1.282029e+04 0.000000e+00 1.282029e+04 -2.687091e+05 0.000000e+00 0.000000e+00 0.000000e+00 0.000000e+00
-1.512812e+05 7.131639e+03 0.000000e+00 7.131639e+03 -2.813688e+05 0.000000e+00 0.000000e+00 0.000000e+00 0.000000e+00
-1.530394e+05 -7.357625e+02 0.000000e+00 -7.357625e+02 -2.881565e+05 0.000000e+00 0.000000e+00 0.000000e+00 0.000000e+00
-1.750482e+05 -6.796844e+03 0.000000e+00 -6.796844e+03 -3.262772e+05 0.000000e+00 0.000000e+00 0.000000e+00 0.000000e+00
-1.268829e+05 3.297867e+04 0.000000e+00 3.297867e+04 -1.858223e+05 0.000000e+00 0.000000e+00 0.000000e+00 0.000000e+00
-1.106640e+05 2.856107e+04 0.000000e+00 2.856107e+04 -1.757267e+05 0.000000e+00 0.000000e+00 0.000000e+00 0.000000e+00
-1.105589e+05 2.768721e+04 0.000000e+00 2.768721e+04 -1.833824e+05 0.000000e+00 0.000000e+00 0.000000e+00 0.000000e+00
-1.178902e+05 2.820162e+04 0.000000e+00 2.820162e+04 -1.928912e+05 0.000000e+00 0.000000e+00 0.000000e+00 0.000000e+00
-1.296045e+05 3.069690e+04 0.000000e+00 3.069690e+04 -2.058086e+05 0.000000e+00 0.000000e+00 0.000000e+00 0.000000e+00
-1.449223e+05 3.304675e+04 0.000000e+00 3.304675e+04 -2.225380e+05 0.000000e+00 0.000000e+00 0.000000e+00 0.000000e+00
-1.612152e+05 3.565145e+04 0.000000e+00 3.565145e+04 -2.410420e+05 0.000000e+00 0.000000e+00 0.000000e+00 0.000000e+00
-1.711662e+05 3.874891e+04 0.000000e+00 3.874891e+04 -2.621165e+05 0.000000e+00 0.000000e+00 0.000000e+00 0.000000e+00
-1.794888e+05 3.441336e+04 0.000000e+00 3.441336e+04 -2.788745e+05 0.000000e+00 0.000000e+00 0.000000e+00 0.000000e+00
-1.863763e+05 1.894225e+04 0.000000e+00 1.894225e+04 -2.891504e+05 0.000000e+00 0.000000e+00 0.000000e+00 0.000000e+00
-2.058031e+05 -2.962702e+03 0.000000e+00 -2.962702e+03 -3.417785e+05 0.000000e+00 0.000000e+00 0.000000e+00 0.000000e+00
-1.161289e+05 3.281712e+04 0.000000e+00 3.281712e+04 -1.411362e+05 0.000000e+00 0.000000e+00 0.000000e+00 0.000000e+00
-1.040276e+05 2.963325e+04 0.000000e+00 2.963325e+04 -1.326807e+05 0.000000e+00 0.000000e+00 0.000000e+00 0.000000e+00
-1.057408e+05 3.014653e+04 0.000000e+00 3.014653e+04 -1.333918e+05 0.000000e+00 0.000000e+00 0.000000e+00 0.000000e+00
-1.143949e+05 3.282356e+04 0.000000e+00 3.282356e+04 -1.345972e+05 0.000000e+00 0.000000e+00 0.000000e+00 0.000000e+00
-1.224327e+05 3.549309e+04 0.000000e+00 3.549309e+04 -1.330986e+05 0.000000e+00 0.000000e+00 0.000000e+00 0.000000e+00
-1.282125e+05 3.604745e+04 0.000000e+00 3.604745e+04 -1.284387e+05 0.000000e+00 0.000000e+00 0.000000e+00 0.000000e+00
-1.288485e+05 3.313203e+04 0.000000e+00 3.313203e+04 -1.188992e+05 0.000000e+00 0.000000e+00 0.000000e+00 0.000000e+00
-1.218202e+05 2.727677e+04 0.000000e+00 2.727677e+04 -1.071015e+05 0.000000e+00 0.000000e+00 0.000000e+00 0.000000e+00
-1.051356e+05 1.911536e+04 0.000000e+00 1.911536e+04 -8.937099e+04 0.000000e+00 0.000000e+00 0.000000e+00 0.000000e+00
-8.512611e+04 9.599189e+03 0.000000e+00 9.599189e+03 -7.769633e+04 0.000000e+00 0.000000e+00 0.000000e+00 0.000000e+00
-4.868170e+04 3.245200e+03 0.000000e+00 3.245200e+03 -5.682772e+04 0.000000e+00 0.000000e+00 0.000000e+00 0.000000e+00
-1.106941e+05 3.097495e+04 0.000000e+00 3.097495e+04 -1.175612e+05 0.000000e+00 0.000000e+00 0.000000e+00 0.000000e+00
-1.050669e+05 2.955802e+04 0.000000e+00 2.955802e+04 -1.142364e+05 0.000000e+00 0.000000e+00 0.000000e+00 0.000000e+00
-1.105592e+05 3.105379e+04 0.000000e+00 3.105379e+04 -1.158564e+05 0.000000e+00 0.000000e+00 0.000000e+00 0.000000e+00
-1.206532e+05 3.238919e+04 0.000000e+00 3.238919e+04 -1.140225e+05 0.000000e+00 0.000000e+00 0.000000e+00 0.000000e+00
-1.295995e+05 3.206877e+04 0.000000e+00 3.206877e+04 -1.089731e+05 0.000000e+00 0.000000e+00 0.000000e+00 0.000000e+00
-1.358325e+05 2.975972e+04 0.000000e+00 2.975972e+04 -1.014164e+05 0.000000e+00 0.000000e+00 0.000000e+00 0.000000e+00
-1.375583e+05 2.490404e+04 0.000000e+00 2.490404e+04 -9.233823e+04 0.000000e+00 0.000000e+00 0.000000e+00 0.000000e+00
-1.332127e+05 1.806694e+04 0.000000e+00 1.806694e+04 -8.283009e+04 0.000000e+00 0.000000e+00 0.000000e+00 0.000000e+00
-1.214028e+05 1.045249e+04 0.000000e+00 1.045249e+04 -7.370684e+04 0.000000e+00 0.000000e+00 0.000000e+00 0.000000e+00
-9.661780e+04 2.174091e+03 0.000000e+00 2.174091e+03 -6.761612e+04 0.000000e+00 0.000000e+00 0.000000e+00 0.000000e+00
-5.602607e+04 -1.120598e+03 0.000000e+00 -1.120598e+03 -5.491754e+04 0.000000e+00 0.000000e+00 0.000000e+00 0.000000e+00
-1.037383e+05 3.002475e+04 0.000000e+00 3.002475e+04 -1.021552e+05 0.000000e+00 0.000000e+00 0.000000e+00 0.000000e+00
-1.039830e+05 2.951543e+04 0.000000e+00 2.951543e+04 -1.016498e+05 0.000000e+00 0.000000e+00 0.000000e+00 0.000000e+00
-1.113800e+05 2.907225e+04 0.000000e+00 2.907225e+04 -1.009764e+05 0.000000e+00 0.000000e+00 0.000000e+00 0.000000e+00
-1.204723e+05 2.778486e+04 0.000000e+00 2.778486e+04 -9.631835e+04 0.000000e+00 0.000000e+00 0.000000e+00 0.000000e+00
-1.275898e+05 2.542397e+04 0.000000e+00 2.542397e+04 -9.089135e+04 0.000000e+00 0.000000e+00 0.000000e+00 0.000000e+00
-1.316434e+05 2.147804e+04 0.000000e+00 2.147804e+04 -8.485410e+04 0.000000e+00 0.000000e+00 0.000000e+00 0.000000e+00
-1.314444e+05 1.589052e+04 0.000000e+00 1.589052e+04 -7.848618e+04 0.000000e+00 0.000000e+00 0.000000e+00 0.000000e+00
-1.255797e+05 9.254012e+03 0.000000e+00 9.254012e+03 -7.191916e+04 0.000000e+00 0.000000e+00 0.000000e+00 0.000000e+00
-1.131541e+05 2.293678e+03 0.000000e+00 2.293678e+03 -6.615470e+04 0.000000e+00 0.000000e+00 0.000000e+00 0.000000e+00
-8.990517e+04 -2.895105e+03 0.000000e+00 -2.895105e+03 -6.203398e+04 0.000000e+00 0.000000e+00 0.000000e+00 0.000000e+00
-5.986871e+04 -4.070462e+03 0.000000e+00 -4.070462e+03 -5.519413e+04 0.000000e+00 0.000000e+00 0.000000e+00 0.000000e+00
-9.583976e+04 2.776783e+04 0.000000e+00 2.776783e+04 -8.967946e+04 0.000000e+00 0.000000e+00 0.000000e+00 0.000000e+00
-1.017572e+05 2.774710e+04 0.000000e+00 2.774710e+04 -9.122150e+04 0.000000e+00 0.000000e+00 0.000000e+00 0.000000e+00
-1.101492e+05 2.521244e+04 0.000000e+00 2.521244e+04 -8.819268e+04 0.000000e+00 0.000000e+00 0.000000e+00 0.000000e+00
-1.183560e+05 2.291358e+04 0.000000e+00 2.291358e+04 -8.418323e+04 0.000000e+00 0.000000e+00 0.000000e+00 0.000000e+00
-1.240250e+05 1.970693e+04 0.000000e+00 1.970693e+04 -7.982546e+04 0.000000e+00 0.000000e+00 0.000000e+00 0.000000e+00
-1.263489e+05 1.517218e+04 0.000000e+00 1.517218e+04 -7.501972e+04 0.000000e+00 0.000000e+00 0.000000e+00 0.000000e+00
-1.247976e+05 9.550958e+03 0.000000e+00 9.550958e+03 -7.013455e+04 0.000000e+00 0.000000e+00 0.000000e+00 0.000000e+00
-1.181859e+05 3.294245e+03 0.000000e+00 3.294245e+03 -6.563205e+04 0.000000e+00 0.000000e+00 0.000000e+00 0.000000e+00
-1.067016e+05 -2.257032e+03 0.000000e+00 -2.257032e+03 -6.240151e+04 0.000000e+00 0.000000e+00 0.000000e+00 0.000000e+00
-8.803400e+04 -4.440480e+03 0.000000e+00 -4.440480e+03 -6.037458e+04 0.000000e+00 0.000000e+00 0.000000e+00 0.000000e+00
-6.758531e+04 -3.945115e+03 0.000000e+00 -3.945115e+03 -5.652855e+04 0.000000e+00 0.000000e+00 0.000000e+00 0.000000e+00
-8.742709e+04 2.458290e+04 0.000000e+00 2.458290e+04 -7.977580e+04 0.000000e+00 0.000000e+00 0.000000e+00 0.000000e+00
-9.826048e+04 2.480144e+04 0.000000e+00 2.480144e+04 -8.295052e+04 0.000000e+00 0.000000e+00 0.000000e+00 0.000000e+00
-1.080412e+05 2.164038e+04 0.000000e+00 2.164038e+04 -7.940927e+04 0.000000e+00 0.000000e+00 0.000000e+00 0.000000e+00
-1.152994e+05 1.879365e+04 0.000000e+00 1.879365e+04 -7.617277e+04 0.000000e+00 0.000000e+00 0.000000e+00 0.000000e+00
-1.196222e+05 1.499619e+04 0.000000e+00 1.499619e+04 -7.246759e+04 0.000000e+00 0.000000e+00 0.000000e+00 0.000000e+00
-1.209285e+05 1.031465e+04 0.000000e+00 1.031465e+04 -6.865512e+04 0.000000e+00 0.000000e+00 0.000000e+00 0.000000e+00
-1.184826e+05 4.947479e+03 0.000000e+00 4.947479e+03 -6.501980e+04 0.000000e+00 0.000000e+00 0.000000e+00 0.000000e+00
-1.119390e+05 -3.705694e+02 0.000000e+00 -3.705694e+02 -6.214512e+04 0.000000e+00 0.000000e+00 0.000000e+00 0.000000e+00
-1.025805e+05 -4.175759e+03 0.000000e+00 -4.175759e+03 -6.044895e+04 0.000000e+00 0.000000e+00 0.000000e+00 0.000000e+00
-8.912833e+04 -4.655396e+03 0.000000e+00 -4.655396e+03 -5.968896e+04 0.000000e+00 0.000000e+00 0.000000e+00 0.000000e+00
-7.562030e+04 -3.570884e+03 0.000000e+00 -3.570884e+03 -5.718370e+04 0.000000e+00 0.000000e+00 0.000000e+00 0.000000e+00
-8.065392e+04 2.180913e+04 0.000000e+00 2.180913e+04 -7.290606e+04 0.000000e+00 0.000000e+00 0.000000e+00 0.000000e+00
-9.480240e+04 2.198522e+04 0.000000e+00 2.198522e+04 -7.655725e+04 0.000000e+00 0.000000e+00 0.000000e+00 0.000000e+00
-1.052782e+05 1.863336e+04 0.000000e+00 1.863336e+04 -7.331200e+04 0.000000e+00 0.000000e+00 0.000000e+00 0.000000e+00
-1.115042e+05 1.526707e+04 0.000000e+00 1.526707e+04 -7.045787e+04 0.000000e+00 0.000000e+00 0.000000e+00 0.000000e+00
-1.149954e+05 1.121010e+04 0.000000e+00 1.121010e+04 -6.741812e+04 0.000000e+00 0.000000e+00 0.000000e+00 0.000000e+00
-1.155675e+05 6.590142e+03 0.000000e+00 6.590142e+03 -6.445723e+04 0.000000e+00 0.000000e+00 0.000000e+00 0.000000e+00
-1.128191e+05 1.787557e+03 0.000000e+00 1.787557e+03 -6.193238e+04 0.000000e+00 0.000000e+00 0.000000e+00 0.000000e+00
-1.073074e+05 -2.384928e+03 0.000000e+00 -2.384928e+03 -6.027338e+04 0.000000e+00 0.000000e+00 0.000000e+00 0.000000e+00
-1.003962e+05 -4.768068e+03 0.000000e+00 -4.768068e+03 -5.948876e+04 0.000000e+00 0.000000e+00 0.000000e+00 0.000000e+00
-9.131365e+04 -4.316760e+03 0.000000e+00 -4.316760e+03 -5.942776e+04 0.000000e+00 0.000000e+00 0.000000e+00 0.000000e+00
-8.284736e+04 -2.930729e+03 0.000000e+00 -2.930729e+03 -5.782714e+04 0.000000e+00 0.000000e+00 0.000000e+00 0.000000e+00
-7.626825e+04 1.993823e+04 0.000000e+00 1.993823e+04 -6.859595e+04 0.000000e+00 0.000000e+00 0.000000e+00 0.000000e+00
-9.146098e+04 1.966154e+04 0.000000e+00 1.966154e+04 -7.178056e+04 0.000000e+00 0.000000e+00 0.000000e+00 0.000000e+00
-1.018163e+05 1.597303e+04 0.000000e+00 1.597303e+04 -6.883510e+04 0.000000e+00 0.000000e+00 0.000000e+00 0.000000e+00
-1.073470e+05 1.223845e+04 0.000000e+00 1.223845e+04 -6.637246e+04 0.000000e+00 0.000000e+00 0.000000e+00 0.000000e+00
-1.103383e+05 8.226539e+03 0.000000e+00 8.226539e+03 -6.395780e+04 0.000000e+00 0.000000e+00 0.000000e+00 0.000000e+00
-1.105474e+05 3.917006e+03 0.000000e+00 3.917006e+03 -6.178834e+04 0.000000e+00 0.000000e+00 0.000000e+00 0.000000e+00
-1.081421e+05 -1.681169e+02 0.000000e+00 -1.681169e+02 -6.014378e+04 0.000000e+00 0.000000e+00 0.000000e+00 0.000000e+00
-1.041264e+05 -3.262867e+03 0.000000e+00 -3.262867e+03 -5.925908e+04 0.000000e+00 0.000000e+00 0.000000e+00 0.000000e+00
-9.947195e+04 -4.666424e+03 0.000000e+00 -4.666424e+03 -5.902870e+04 0.000000e+00 0.000000e+00 0.000000e+00 0.000000e+00
-9.390744e+04 -3.724978e+03 0.000000e+00 -3.724978e+03 -5.933839e+04 0.000000e+00 0.000000e+00 0.000000e+00 0.000000e+00
-8.904139e+04 -2.268056e+03 0.000000e+00 -2.268056e+03 -5.851211e+04 0.000000e+00 0.000000e+00 0.000000e+00 0.000000e+00
-7.334634e+04 1.800411e+04 0.000000e+00 1.800411e+04 -6.528934e+04 0.000000e+00 0.000000e+00 0.000000e+00 0.000000e+00
-8.788975e+04 1.736431e+04 0.000000e+00 1.736431e+04 -6.811616e+04 0.000000e+00 0.000000e+00 0.000000e+00 0.000000e+00
-9.790607e+04 1.356011e+04 0.000000e+00 1.356011e+04 -6.547984e+04 0.000000e+00 0.000000e+00 0.000000e+00 0.000000e+00
-1.032162e+05 9.818933e+03 0.000000e+00 9.818933e+03 -6.348675e+04 0.000000e+00 0.000000e+00 0.000000e+00 0.000000e+00
-1.058186e+05 5.966019e+03 0.000000e+00 5.966019e+03 -6.164788e+04 0.000000e+00 0.000000e+00 0.000000e+00 0.000000e+00
-1.060677e+05 2.092275e+03 0.000000e+00 2.092275e+03 -6.011514e+04 0.000000e+00 0.000000e+00 0.000000e+00 0.000000e+00
-1.044557e+05 -1.260363e+03 0.000000e+00 -1.260363e+03 -5.910839e+04 0.000000e+00 0.000000e+00 0.000000e+00 0.000000e+00
-1.020077e+05 -3.489341e+03 0.000000e+00 -3.489341e+03 -5.872803e+04 0.000000e+00 0.000000e+00 0.000000e+00 0.000000e+00
-9.931991e+04 -4.222747e+03 0.000000e+00 -4.222747e+03 -5.886188e+04 0.000000e+00 0.000000e+00 0.000000e+00 0.000000e+00
-9.648167e+04 -3.074179e+03 0.000000e+00 -3.074179e+03 -5.933562e+04 0.000000e+00 0.000000e+00 0.000000e+00 0.000000e+00
-9.413542e+04 -1.713649e+03 0.000000e+00 -1.713649e+03 -5.912944e+04 0.000000e+00 0.000000e+00 0.000000e+00 0.000000e+00
-7.082604e+04 1.596070e+04 0.000000e+00 1.596070e+04 -6.328916e+04 0.000000e+00 0.000000e+00 0.000000e+00 0.000000e+00
-8.407016e+04 1.519048e+04 0.000000e+00 1.519048e+04 -6.546022e+04 0.000000e+00 0.000000e+00 0.000000e+00 0.000000e+00
-9.398344e+04 1.146409e+04 0.000000e+00 1.146409e+04 -6.307114e+04 0.000000e+00 0.000000e+00 0.000000e+00 0.000000e+00
-9.918711e+04 7.888738e+03 0.000000e+00 7.888738e+03 -6.140423e+04 0.000000e+00 0.000000e+00 0.000000e+00 0.000000e+00
-1.016996e+05 4.281037e+03 0.000000e+00 4.281037e+03 -5.998112e+04 0.000000e+00 0.000000e+00 0.000000e+00 0.000000e+00
-1.023310e+05 9.343790e+02 0.000000e+00 9.343790e+02 -5.894227e+04 0.000000e+00 0.000000e+00 0.000000e+00 0.000000e+00
-1.017233e+05 -1.731292e+03 0.000000e+00 -1.731292e+03 -5.840566e+04 0.000000e+00 0.000000e+00 0.000000e+00 0.000000e+00
-1.006485e+05 -3.294888e+03 0.000000e+00 -3.294888e+03 -5.838851e+04 0.000000e+00 0.000000e+00 0.000000e+00 0.000000e+00
-9.959166e+04 -3.565900e+03 0.000000e+00 -3.565900e+03 -5.879693e+04 0.000000e+00 0.000000e+00 0.000000e+00 0.000000e+00
-9.880745e+04 -2.398242e+03 0.000000e+00 -2.398242e+03 -5.936020e+04 0.000000e+00 0.000000e+00 0.000000e+00 0.000000e+00
-9.829246e+04 -1.204736e+03 0.000000e+00 -1.204736e+03 -5.955559e+04 0.000000e+00 0.000000e+00 0.000000e+00 0.000000e+00
-6.855349e+04 1.364635e+04 0.000000e+00 1.364635e+04 -6.249970e+04 0.000000e+00 0.000000e+00 0.000000e+00 0.000000e+00
-8.050427e+04 1.281723e+04 0.000000e+00 1.281723e+04 -6.388770e+04 0.000000e+00 0.000000e+00 0.000000e+00 0.000000e+00
-9.025103e+04 9.518221e+03 0.000000e+00 9.518221e+03 -6.157980e+04 0.000000e+00 0.000000e+00 0.000000e+00 0.000000e+00
-9.541044e+04 6.267939e+03 0.000000e+00 6.267939e+03 -5.999935e+04 0.000000e+00 0.000000e+00 0.000000e+00 0.000000e+00
-9.813935e+04 3.099761e+03 0.000000e+00 3.099761e+03 -5.879257e+04 0.000000e+00 0.000000e+00 0.000000e+00 0.000000e+00
-9.930829e+04 3.079021e+02 0.000000e+00 3.079021e+02 -5.812973e+04 0.000000e+00 0.000000e+00 0.000000e+00 0.000000e+00
-9.964365e+04 -1.767125e+03 0.000000e+00 -1.767125e+03 -5.800497e+04 0.000000e+00 0.000000e+00 0.000000e+00 0.000000e+00
-9.981308e+04 -2.813993e+03 0.000000e+00 -2.813993e+03 -5.829832e+04 0.000000e+00 0.000000e+00 0.000000e+00 0.000000e+00
-1.001163e+05 -2.798145e+03 0.000000e+00 -2.798145e+03 -5.887234e+04 0.000000e+00 0.000000e+00 0.000000e+00 0.000000e+00
-1.006763e+05 -1.751317e+03 0.000000e+00 -1.751317e+03 -5.946854e+04 0.000000e+00 0.000000e+00 0.000000e+00 0.000000e+00
-1.013291e+05 -7.634212e+02 0.000000e+00 -7.634212e+02 -5.991350e+04 0.000000e+00 0.000000e+00 0.000000e+00 0.000000e+00
-6.734240e+04 1.103399e+04 0.000000e+00 1.103399e+04 -6.269193e+04 0.000000e+00 0.000000e+00 0.000000e+00 0.000000e+00
-7.761804e+04 1.018678e+04 0.000000e+00 1.018678e+04 -6.319600e+04 0.000000e+00 0.000000e+00 0.000000e+00 0.000000e+00
-8.697214e+04 7.539527e+03 0.000000e+00 7.539527e+03 -6.097439e+04 0.000000e+00 0.000000e+00 0.000000e+00 0.000000e+00
-9.210928e+04 4.774323e+03 0.000000e+00 4.774323e+03 -5.934748e+04 0.000000e+00 0.000000e+00 0.000000e+00 0.000000e+00
-9.510628e+04 2.154700e+03 0.000000e+00 2.154700e+03 -5.825087e+04 0.000000e+00 0.000000e+00 0.000000e+00 0.000000e+00
-9.691418e+04 -6.846189e+00 0.000000e+00 -6.846189e+00 -5.777534e+04 0.000000e+00 0.000000e+00 0.000000e+00 0.000000e+00
-9.817520e+04 -1.481747e+03 0.000000e+00 -1.481747e+03 -5.788459e+04 0.000000e+00 0.000000e+00 0.000000e+00 0.000000e+00
-9.937697e+04 -2.142540e+03 0.000000e+00 -2.142540e+03 -5.837186e+04 0.000000e+00 0.000000e+00 0.000000e+00 0.000000e+00
-1.006944e+05 -2.004543e+03 0.000000e+00 -2.004543e+03 -5.899921e+04 0.000000e+00 0.000000e+00 0.000000e+00 0.000000e+00
-1.021316e+05 -1.173792e+03 0.000000e+00 -1.173792e+03 -5.958573e+04 0.000000e+00 0.000000e+00 0.000000e+00 0.000000e+00
-1.034758e+05 -4.298478e+02 0.000000e+00 -4.298478e+02 -6.017857e+04 0.000000e+00 0.000000e+00 0.000000e+00 0.000000e+00
-6.668360e+04 7.900004e+03 0.000000e+00 7.900004e+03 -6.374746e+04 0.000000e+00 0.000000e+00 0.000000e+00 0.000000e+00
-7.548866e+04 7.215482e+03 0.000000e+00 7.215482e+03 -6.340536e+04 0.000000e+00 0.000000e+00 0.000000e+00 0.000000e+00
-8.432192e+04 5.295755e+03 0.000000e+00 5.295755e+03 -6.094042e+04 0.000000e+00 0.000000e+00 0.000000e+00 0.000000e+00
-8.947597e+04 3.223010e+03 0.000000e+00 3.223010e+03 -5.917038e+04 0.000000e+00 0.000000e+00 0.000000e+00 0.000000e+00
-9.276855e+04 1.353979e+03 0.000000e+00 1.353979e+03 -5.813980e+04 0.000000e+00 0.000000e+00 0.000000e+00 0.000000e+00
-9.519877e+04 -1.119032e+02 0.000000e+00 -1.119032e+02 -5.779140e+04 0.000000e+00 0.000000e+00 0.000000e+00 0.000000e+00
-9.726525e+04 -1.032971e+03 0.000000e+00 -1.032971e+03 -5.796781e+04 0.000000e+00 0.000000e+00 0.000000e+00 0.000000e+00
-9.918717e+04 -1.402056e+03 0.000000e+00 -1.402056e+03 -5.853901e+04 0.000000e+00 0.000000e+00 0.000000e+00 0.000000e+00
-1.011964e+05 -1.252932e+03 0.000000e+00 -1.252932e+03 -5.918021e+04 0.000000e+00 0.000000e+00 0.000000e+00 0.000000e+00
-1.031371e+05 -7.044901e+02 0.000000e+00 -7.044901e+02 -5.971234e+04 0.000000e+00 0.000000e+00 0.000000e+00 0.000000e+00
-1.048560e+05 -2.189876e+02 0.000000e+00 -2.189876e+02 -6.037805e+04 0.000000e+00 0.000000e+00 0.000000e+00 0.000000e+00
-6.624895e+04 4.106387e+03 0.000000e+00 4.106387e+03 -6.464873e+04 0.000000e+00 0.000000e+00 0.000000e+00 0.000000e+00
-7.414419e+04 3.731597e+03 0.000000e+00 3.731597e+03 -6.387705e+04 0.000000e+00 0.000000e+00 0.000000e+00 0.000000e+00
-8.252077e+04 2.709064e+03 0.000000e+00 2.709064e+03 -6.110244e+04 0.000000e+00 0.000000e+00 0.000000e+00 0.000000e+00
-8.775662e+04 1.611387e+03 0.000000e+00 1.611387e+03 -5.922510e+04 0.000000e+00 0.000000e+00 0.000000e+00 0.000000e+00
-9.132541e+04 6.495173e+02 0.000000e+00 6.495173e+02 -5.821860e+04 0.000000e+00 0.000000e+00 0.000000e+00 0.000000e+00
-9.418312e+04 -8.520824e+01 0.000000e+00 -8.520824e+01 -5.794678e+04 0.000000e+00 0.000000e+00 0.000000e+00 0.000000e+00
-9.675038e+04 -5.271929e+02 0.000000e+00 -5.271929e+02 -5.818093e+04 0.000000e+00 0.000000e+00 0.000000e+00 0.000000e+00
-9.914773e+04 -6.774560e+02 0.000000e+00 -6.774560e+02 -5.872966e+04 0.000000e+00 0.000000e+00 0.000000e+00 0.000000e+00
-1.015287e+05 -5.823619e+02 0.000000e+00 -5.823619e+02 -5.933791e+04 0.000000e+00 0.000000e+00 0.000000e+00 0.000000e+00
-1.036825e+05 -3.233106e+02 0.000000e+00 -3.233106e+02 -5.980300e+04 0.000000e+00 0.000000e+00 0.000000e+00 0.000000e+00
-1.056425e+05 -9.164053e+01 0.000000e+00 -9.164053e+01 -6.051085e+04 0.000000e+00 0.000000e+00 0.000000e+00 0.000000e+00
-6.600734e+04 1.173070e+03 0.000000e+00 1.173070e+03 -6.474745e+04 0.000000e+00 0.000000e+00 0.000000e+00 0.000000e+00
-7.363833e+04 1.092086e+03 0.000000e+00 1.092086e+03 -6.392375e+04 0.000000e+00 0.000000e+00 0.000000e+00 0.000000e+00
-8.190981e+04 7.259549e+02 0.000000e+00 7.259549e+02 -6.115588e+04 0.000000e+00 0.000000e+00 0.000000e+00 0.000000e+00
-8.719865e+04 3.096674e+02 0.000000e+00 3.096674e+02 -5.929717e+04 0.000000e+00 0.000000e+00 0.000000e+00 0.000000e+00
-9.087597e+04 -5.502668e+01 0.000000e+00 -5.502668e+01 -5.833926e+04 0.000000e+00 0.000000e+00 0.000000e+00 0.000000e+00
-9.388858e+04 -3.284171e+02 0.000000e+00 -3.284171e+02 -5.808097e+04 0.000000e+00 0.000000e+00 0.000000e+00 0.000000e+00
-9.663600e+04 -4.991342e+02 0.000000e+00 -4.991342e+02 -5.834353e+04 0.000000e+00 0.000000e+00 0.000000e+00 0.000000e+00
-9.919251e+04 -5.635856e+02 0.000000e+00 -5.635856e+02 -5.885555e+04 0.000000e+00 0.000000e+00 0.000000e+00 0.000000e+00
-1.016812e+05 -5.208049e+02 0.000000e+00 -5.208049e+02 -5.942096e+04 0.000000e+00 0.000000e+00 0.000000e+00 0.000000e+00
-1.038805e+05 -3.972389e+02 0.000000e+00 -3.972389e+02 -5.982757e+04 0.000000e+00 0.000000e+00 0.000000e+00 0.000000e+00
-1.059029e+05 -2.951000e+02 0.000000e+00 -2.951000e+02 -6.054661e+04 0.000000e+00 0.000000e+00 0.000000e+00 0.000000e+00
</DataArray>
<DataArray Name="vol_eps" type="Float64" NumberOfComponents="1" format="ascii">
-1.385473e-02
-1.163845e-02
-9.261442e-03
-7.758623e-03
-7.304452e-03
-8.066746e-03
-9.372381e-03
-1.186841e-02
-1.575327e-02
-2.016250e-02
-2.024667e-02
-1.351153e-02
-1.082128e-02
-9.098042e-03
-8.076740e-03
-7.764752e-03
-8.192892e-03
-8.806884e-03
-1.019695e-02
-1.316369e-02
-1.627987e-02
-2.241183e-02
-1.133237e-02
-8.316697e-03
-7.338767e-03
-7.305584e-03
-7.549246e-03
-8.317361e-03
-9.215802e-03
-9.938209e-03
-1.040066e-02
-1.089123e-02
-1.528003e-02
-7.221977e-03
-5.327059e-03
-5.205930e-03
-5.696056e-03
-5.593090e-03
-4.829027e-03
-2.941033e-03
-1.306448e-04
3.930558e-03
8.378007e-03
1.357710e-02
-5.067669e-03
-4.625476e-03
-5.548413e-03
-6.323125e-03
-6.655849e-03
-6.579478e-03
-6.156891e-03
-5.447880e-03
-4.433942e-03
-2.711454e-03
8.734801e-04
-3.224067e-03
-3.728819e-03
-4.955791e-03
-5.466186e-03
-5.605680e-03
-5.461814e-03
-5.063449e-03
-4.426378e-03
-3.572226e-03
-1.993799e-03
4.295551e-04
-1.891925e-03
-3.083414e-03
-4.263772e-03
-4.673542e-03
-4.727139e-03
-4.517343e-03
-4.133761e-03
-3.609749e-03
-2.958475e-03
-1.790579e-03
-2.263540e-04
-9.254650e-04
-2.569068e-03
-3.703784e-03
-4.015801e-03
-3.995623e-03
-3.800090e-03
-3.462291e-03
-3.041977e-03
-2.588480e-03
-1.828100e-03
-7.952503e-04
-4.227402e-04
-2.242089e-03
-3.248316e-03
-3.454136e-03
-3.431806e-03
-3.267915e-03
-2.991252e-03
-2.685964e-03
-2.403790e-03
-1.960519e-03
-1.315618e-03
-2.650952e-04
-1.993406e-03
-2.831284e-03
-2.999496e-03
-3.004499e-03
-2.881949e-03
-2.677779e-03
-2.482488e-03
-2.337123e-03
-2.121910e-03
-1.769156e-03
-2.934053e-04
-1.785760e-03
-2.463680e-03
-2.647999e-03
-2.682179e-03
-2.608084e-03
-2.474163e-03
-2.369926e-03
-2.331861e-03
-2.270633e-03
-2.121761e-03
-3.840695e-04
-1.599252e-03
-2.160751e-03
-2.362953e-03
-2.427813e-03
-2.402551e-03
-2.336281e-03
-2.305700e-03
-2.345306e-03
-2.390711e-03
-2.381927e-03
-4.668710e-04
-1.433277e-03
-1.930371e-03
-2.137532e-03
-2.221988e-03
-2.235616e-03
-2.236038e-03
-2.279788e-03
-2.375771e-03
-2.477641e-03
-2.554649e-03
-5.361066e-04
-1.288893e-03
-1.755992e-03
-1.959077e-03
-2.056712e-03
-2.113552e-03
-2.180942e-03
-2.284300e-03
-2.413826e-03
-2.541554e-03
-2.665861e-03
-6.238164e-04
-1.190344e-03
-1.606857e-03
-1.813047e-03
-1.931912e-03
-2.040172e-03
-2.160437e-03
-2.302990e-03
-2.454807e-03
-2.585685e-03
-2.728678e-03
-6.898985e-04
-1.144399e-03
-1.504941e-03
-1.719310e-03
-1.864222e-03
-2.005761e-03
-2.160660e-03
-2.325726e-03
-2.486513e-03
-2.606587e-03
-2.754461e-03
-6.905744e-04
-1.118114e-03
-1.468487e-03
-1.693159e-03
-1.854063e-03
-2.004592e-03
-2.172420e-03
-2.342848e-03
-2.503559e-03
-2.615102e-03
-2.764026e-03
</DataArray>
</PointData>
</Piece>
</UnstructuredGrid>
</VTKFile>
