<?xml version="1.0"?>
<VTKFile type="UnstructuredGrid" version="0.1">
<UnstructuredGrid>
<FieldData>
<DataArray Name="TIME" type="Float64" format="ascii" NumberOfTuples="1">
0.000000e+00
</DataArray>
</FieldData>
<FieldData>
<DataArray Name="CYCLE" type="Int32" format="ascii" NumberOfTuples="1">
0
</DataArray>
</FieldData>
<Piece NumberOfPoints="187" NumberOfCells="160">
<Points>
<DataArray NumberOfComponents="3" type="Float64" format="ascii">
0.000000e+00 0.000000e+00 0.000000e+00
0.000000e+00 1.982957e-01 0.000000e+00
0.000000e+00 3.959644e-01 0.000000e+00
0.000000e+00 5.931629e-01 0.000000e+00
0.000000e+00 7.900068e-01 0.000000e+00
0.000000e+00 9.866141e-01 0.000000e+00
0.000000e+00 1.183084e+00 0.000000e+00
0.000000e+00 1.379535e+00 0.000000e+00
0.000000e+00 1.576166e+00 0.000000e+00
0.000000e+00 1.773292e+00 0.000000e+00
0.000000e+00 1.970750e+00 0.000000e+00
2.250000e-01 0.000000e+00 0.000000e+00
2.257532e-01 1.984312e-01 0.000000e+00
2.264108e-01 3.963011e-01 0.000000e+00
2.268633e-01 5.937192e-01 0.000000e+00
2.271344e-01 7.907695e-01 0.000000e+00
2.272397e-01 9.875301e-01 0.000000e+00
2.271924e-01 1.184057e+00 0.000000e+00
2.269328e-01 1.380456e+00 0.000000e+00
2.263763e-01 1.576856e+00 0.000000e+00
2.254395e-01 1.773428e+00 0.000000e+00
2.250000e-01 1.970750e+00 0.000000e+00
4.500000e-01 0.000000e+00 0.000000e+00
4.513353e-01 1.987168e-01 0.000000e+00
4.524797e-01 3.971273e-01 0.000000e+00
4.533355e-01 5.952506e-01 0.000000e+00
4.539410e-01 7.930503e-01 0.000000e+00
4.543439e-01 9.904782e-01 0.000000e+00
4.544825e-01 1.187527e+00 0.000000e+00
4.542890e-01 1.384142e+00 0.000000e+00
4.537066e-01 1.580256e+00 0.000000e+00
4.525328e-01 1.775763e+00 0.000000e+00
4.500000e-01 1.970750e+00 0.000000e+00
6.750000e-01 0.000000e+00 0.000000e+00
6.766470e-01 1.990268e-01 0.000000e+00
6.779628e-01 3.979920e-01 0.000000e+00
6.789806e-01 5.969584e-01 0.000000e+00
6.797750e-01 7.959577e-01 0.000000e+00
6.804245e-01 9.950271e-01 0.000000e+00
6.808547e-01 1.194218e+00 0.000000e+00
6.809998e-01 1.393568e+00 0.000000e+00
6.807710e-01 1.593109e+00 0.000000e+00
6.799513e-01 1.793051e+00 0.000000e+00
6.769437e-01 1.993667e+00 0.000000e+00
9.000000e-01 0.000000e+00 0.000000e+00
9.017330e-01 1.992668e-01 0.000000e+00
9.030066e-01 3.985672e-01 0.000000e+00
9.039597e-01 5.979284e-01 0.000000e+00
9.046817e-01 7.973602e-01 0.000000e+00
9.052097e-01 9.968886e-01 0.000000e+00
9.055026e-01 1.196548e+00 0.000000e+00
9.054931e-01 1.396367e+00 0.000000e+00
9.050844e-01 1.596382e+00 0.000000e+00
9.039310e-01 1.796596e+00 0.000000e+00
9.019418e-01 1.996570e+00 0.000000e+00
1.125000e+00 0.000000e+00 0.000000e+00
1.126679e+00 1.994766e-01 0.000000e+00
1.127846e+00 3.990248e-01 0.000000e+00
1.128703e+00 5.986466e-01 0.000000e+00
1.129332e+00 7.983462e-01 0.000000e+00
1.129750e+00 9.981418e-01 0.000000e+00
1.129926e+00 1.198048e+00 0.000000e+00
1.129814e+00 1.398075e+00 0.000000e+00
1.129323e+00 1.598216e+00 0.000000e+00
1.128388e+00 1.798370e+00 0.000000e+00
1.127154e+00 1.998421e+00 0.000000e+00
1.350000e+00 0.000000e+00 0.000000e+00
1.351532e+00 1.996388e-01 0.000000e+00
1.352573e+00 3.993644e-01 0.000000e+00
1.353334e+00 5.991631e-01 0.000000e+00
1.353873e+00 7.990361e-01 0.000000e+00
1.354202e+00 9.989892e-01 0.000000e+00
1.354307e+00 1.199026e+00 0.000000e+00
1.354154e+00 1.399140e+00 0.000000e+00
1.353718e+00 1.599301e+00 0.000000e+00
1.353032e+00 1.799441e+00 0.000000e+00
1.352256e+00 1.999479e+00 0.000000e+00
1.575000e+00 0.000000e+00 0.000000e+00
1.576335e+00 1.997577e-01 0.000000e+00
1.577248e+00 3.996055e-01 0.000000e+00
1.577915e+00 5.995218e-01 0.000000e+00
1.578377e+00 7.995017e-01 0.000000e+00
1.578645e+00 9.995448e-01 0.000000e+00
1.578709e+00 1.199648e+00 0.000000e+00
1.578564e+00 1.399799e+00 0.000000e+00
1.578225e+00 1.599961e+00 0.000000e+00
1.577752e+00 1.800084e+00 0.000000e+00
1.577265e+00 2.000134e+00 0.000000e+00
1.800000e+00 0.000000e+00 0.000000e+00
1.801119e+00 1.998423e-01 0.000000e+00
1.801909e+00 3.997676e-01 0.000000e+00
1.802488e+00 5.997550e-01 0.000000e+00
1.802884e+00 7.997981e-01 0.000000e+00
1.803106e+00 9.998931e-01 0.000000e+00
1.803155e+00 1.200032e+00 0.000000e+00
1.803045e+00 1.400193e+00 0.000000e+00
1.802804e+00 1.600348e+00 0.000000e+00
1.802489e+00 1.800464e+00 0.000000e+00
1.802195e+00 2.000526e+00 0.000000e+00
2.025000e+00 0.000000e+00 0.000000e+00
2.025910e+00 1.998934e-01 0.000000e+00
2.026581e+00 3.998654e-01 0.000000e+00
2.027077e+00 5.998946e-01 0.000000e+00
2.027413e+00 7.999756e-01 0.000000e+00
2.027601e+00 1.000098e+00 0.000000e+00
2.027651e+00 1.200250e+00 0.000000e+00
2.027580e+00 1.400410e+00 0.000000e+00
2.027421e+00 1.600558e+00 0.000000e+00
2.027224e+00 1.800673e+00 0.000000e+00
2.027060e+00 2.000747e+00 0.000000e+00
2.250000e+00 0.000000e+00 0.000000e+00
2.250721e+00 1.999254e-01 0.000000e+00
2.251278e+00 3.999223e-01 0.000000e+00
2.251692e+00 5.999748e-01 0.000000e+00
2.251975e+00 8.000731e-01 0.000000e+00
2.252138e+00 1.000206e+00 0.000000e+00
2.252192e+00 1.200358e+00 0.000000e+00
2.252157e+00 1.400513e+00 0.000000e+00
2.252060e+00 1.600655e+00 0.000000e+00
2.251946e+00 1.800771e+00 0.000000e+00
2.251866e+00 2.000858e+00 0.000000e+00
2.475000e+00 0.000000e+00 0.000000e+00
2.475558e+00 1.999431e-01 0.000000e+00
2.476006e+00 3.999529e-01 0.000000e+00
2.476342e+00 6.000140e-01 0.000000e+00
2.476577e+00 8.001168e-01 0.000000e+00
2.476716e+00 1.000249e+00 0.000000e+00
2.476773e+00 1.200397e+00 0.000000e+00
2.476762e+00 1.400546e+00 0.000000e+00
2.476710e+00 1.600684e+00 0.000000e+00
2.476652e+00 1.800802e+00 0.000000e+00
2.476626e+00 2.000900e+00 0.000000e+00
2.700000e+00 0.000000e+00 0.000000e+00
2.700418e+00 1.999527e-01 0.000000e+00
2.700764e+00 3.999662e-01 0.000000e+00
2.701028e+00 6.000288e-01 0.000000e+00
2.701215e+00 8.001301e-01 0.000000e+00
2.701330e+00 1.000258e+00 0.000000e+00
2.701383e+00 1.200399e+00 0.000000e+00
2.701388e+00 1.400542e+00 0.000000e+00
2.701365e+00 1.600676e+00 0.000000e+00
2.701342e+00 1.800796e+00 0.000000e+00
2.701346e+00 2.000904e+00 0.000000e+00
2.925000e+00 0.000000e+00 0.000000e+00
2.925297e+00 1.999576e-01 0.000000e+00
2.925550e+00 3.999717e-01 0.000000e+00
2.925745e+00 6.000327e-01 0.000000e+00
2.925884e+00 8.001300e-01 0.000000e+00
2.925973e+00 1.000252e+00 0.000000e+00
2.926018e+00 1.200387e+00 0.000000e+00
2.926029e+00 1.400524e+00 0.000000e+00
2.926023e+00 1.600656e+00 0.000000e+00
2.926019e+00 1.800778e+00 0.000000e+00
2.926035e+00 2.000893e+00 0.000000e+00
3.150000e+00 0.000000e+00 0.000000e+00
3.150192e+00 1.999612e-01 0.000000e+00
3.150356e+00 3.999754e-01 0.000000e+00
3.150484e+00 6.000348e-01 0.000000e+00
3.150577e+00 8.001288e-01 0.000000e+00
3.150637e+00 1.000246e+00 0.000000e+00
3.150669e+00 1.200376e+00 0.000000e+00
3.150681e+00 1.400509e+00 0.000000e+00
3.150682e+00 1.600638e+00 0.000000e+00
3.150686e+00 1.800761e+00 0.000000e+00
3.150702e+00 2.000882e+00 0.000000e+00
3.375000e+00 0.000000e+00 0.000000e+00
3.375096e+00 1.999656e-01 0.000000e+00
3.375175e+00 3.999828e-01 0.000000e+00
3.375239e+00 6.000424e-01 0.000000e+00
3.375285e+00 8.001345e-01 0.000000e+00
3.375315e+00 1.000249e+00 0.000000e+00
3.375332e+00 1.200375e+00 0.000000e+00
3.375339e+00 1.400505e+00 0.000000e+00
3.375341e+00 1.600633e+00 0.000000e+00
3.375345e+00 1.800758e+00 0.000000e+00
3.375355e+00 2.000881e+00 0.000000e+00
3.600000e+00 0.000000e+00 0.000000e+00
3.600000e+00 1.999804e-01 0.000000e+00
3.600000e+00 4.000017e-01 0.000000e+00
3.600000e+00 6.000611e-01 0.000000e+00
3.600000e+00 8.001526e-01 0.000000e+00
3.600000e+00 1.000266e+00 0.000000e+00
3.600000e+00 1.200391e+00 0.000000e+00
3.600000e+00 1.400520e+00 0.000000e+00
3.600000e+00 1.600647e+00 0.000000e+00
3.600000e+00 1.800772e+00 0.000000e+00
3.600000e+00 2.000896e+00 0.000000e+00
</DataArray>
</Points>
<Cells>
<DataArray Name="connectivity" type="Int32" format="ascii">
0 11 12 1
1 12 13 2
2 13 14 3
3 14 15 4
4 15 16 5
5 16 17 6
6 17 18 7
7 18 19 8
8 19 20 9
9 20 21 10
11 22 23 12
12 23 24 13
13 24 25 14
14 25 26 15
15 26 27 16
16 27 28 17
17 28 29 18
18 29 30 19
19 30 31 20
20 31 32 21
22 33 34 23
23 34 35 24
24 35 36 25
25 36 37 26
26 37 38 27
27 38 39 28
28 39 40 29
29 40 41 30
30 41 42 31
31 42 43 32
33 44 45 34
34 45 46 35
35 46 47 36
36 47 48 37
37 48 49 38
38 49 50 39
39 50 51 40
40 51 52 41
41 52 53 42
42 53 54 43
44 55 56 45
45 56 57 46
46 57 58 47
47 58 59 48
48 59 60 49
49 60 61 50
50 61 62 51
51 62 63 52
52 63 64 53
53 64 65 54
55 66 67 56
56 67 68 57
57 68 69 58
58 69 70 59
59 70 71 60
60 71 72 61
61 72 73 62
62 73 74 63
63 74 75 64
64 75 76 65
66 77 78 67
67 78 79 68
68 79 80 69
69 80 81 70
70 81 82 71
71 82 83 72
72 83 84 73
73 84 85 74
74 85 86 75
75 86 87 76
77 88 89 78
78 89 90 79
79 90 91 80
80 91 92 81
81 92 93 82
82 93 94 83
83 94 95 84
84 95 96 85
85 96 97 86
86 97 98 87
88 99 100 89
89 100 101 90
90 101 102 91
91 102 103 92
92 103 104 93
93 104 105 94
94 105 106 95
95 106 107 96
96 107 108 97
97 108 109 98
99 110 111 100
100 111 112 101
101 112 113 102
102 113 114 103
103 114 115 104
104 115 116 105
105 116 117 106
106 117 118 107
107 118 119 108
108 119 120 109
110 121 122 111
111 122 123 112
112 123 124 113
113 124 125 114
114 125 126 115
115 126 127 116
116 127 128 117
117 128 129 118
118 129 130 119
119 130 131 120
121 132 133 122
122 133 134 123
123 134 135 124
124 135 136 125
125 136 137 126
126 137 138 127
127 138 139 128
128 139 140 129
129 140 141 130
130 141 142 131
132 143 144 133
133 144 145 134
134 145 146 135
135 146 147 136
136 147 148 137
137 148 149 138
138 149 150 139
139 150 151 140
140 151 152 141
141 152 153 142
143 154 155 144
144 155 156 145
145 156 157 146
146 157 158 147
147 158 159 148
148 159 160 149
149 160 161 150
150 161 162 151
151 162 163 152
152 163 164 153
154 165 166 155
155 166 167 156
156 167 168 157
157 168 169 158
158 169 170 159
159 170 171 160
160 171 172 161
161 172 173 162
162 173 174 163
163 174 175 164
165 176 177 166
166 177 178 167
167 178 179 168
168 179 180 169
169 180 181 170
170 181 182 171
171 182 183 172
172 183 184 173
173 184 185 174
174 185 186 175
</DataArray>
<DataArray Name="offsets" type="Int32" format="ascii">
4
8
12
16
20
24
28
32
36
40
44
48
52
56
60
64
68
72
76
80
84
88
92
96
100
104
108
112
116
120
124
128
132
136
140
144
148
152
156
160
164
168
172
176
180
184
188
192
196
200
204
208
212
216
220
224
228
232
236
240
244
248
252
256
260
264
268
272
276
280
284
288
292
296
300
304
308
312
316
320
324
328
332
336
340
344
348
352
356
360
364
368
372
376
380
384
388
392
396
400
404
408
412
416
420
424
428
432
436
440
444
448
452
456
460
464
468
472
476
480
484
488
492
496
500
504
508
512
516
520
524
528
532
536
540
544
548
552
556
560
564
568
572
576
580
584
588
592
596
600
604
608
612
616
620
624
628
632
636
640
</DataArray>
<DataArray Name="types" type="UInt8" format="ascii">
9
9
9
9
9
9
9
9
9
9
9
9
9
9
9
9
9
9
9
9
9
9
9
9
9
9
9
9
9
9
9
9
9
9
9
9
9
9
9
9
9
9
9
9
9
9
9
9
9
9
9
9
9
9
9
9
9
9
9
9
9
9
9
9
9
9
9
9
9
9
9
9
9
9
9
9
9
9
9
9
9
9
9
9
9
9
9
9
9
9
9
9
9
9
9
9
9
9
9
9
9
9
9
9
9
9
9
9
9
9
9
9
9
9
9
9
9
9
9
9
9
9
9
9
9
9
9
9
9
9
9
9
9
9
9
9
9
9
9
9
9
9
9
9
9
9
9
9
9
9
9
9
9
9
9
9
9
9
9
9
</DataArray>
</Cells>
<PointData>
<DataArray Name="disp" type="Float64" NumberOfComponents="3" format="ascii">
0.000000e+00 0.000000e+00 0.000000e+00
0.000000e+00 -1.704313e-03 0.000000e+00
0.000000e+00 -4.035583e-03 0.000000e+00
0.000000e+00 -6.837096e-03 0.000000e+00
0.000000e+00 -9.993232e-03 0.000000e+00
0.000000e+00 -1.338591e-02 0.000000e+00
0.000000e+00 -1.691609e-02 0.000000e+00
0.000000e+00 -2.046461e-02 0.000000e+00
0.000000e+00 -2.383450e-02 0.000000e+00
0.000000e+00 -2.670818e-02 0.000000e+00
0.000000e+00 -2.925000e-02 0.000000e+00
0.000000e+00 0.000000e+00 0.000000e+00
7.531771e-04 -1.568818e-03 0.000000e+00
1.410802e-03 -3.698876e-03 0.000000e+00
1.863273e-03 -6.280813e-03 0.000000e+00
2.134410e-03 -9.230535e-03 0.000000e+00
2.239741e-03 -1.246995e-02 0.000000e+00
2.192397e-03 -1.594284e-02 0.000000e+00
1.932781e-03 -1.954380e-02 0.000000e+00
1.376315e-03 -2.314428e-02 0.000000e+00
4.394974e-04 -2.657194e-02 0.000000e+00
0.000000e+00 -2.925000e-02 0.000000e+00
0.000000e+00 0.000000e+00 0.000000e+00
1.335238e-03 -1.283174e-03 0.000000e+00
2.479700e-03 -2.872715e-03 0.000000e+00
3.335528e-03 -4.749419e-03 0.000000e+00
3.941027e-03 -6.949637e-03 0.000000e+00
4.343906e-03 -9.521835e-03 0.000000e+00
4.482505e-03 -1.247328e-02 0.000000e+00
4.289059e-03 -1.585823e-02 0.000000e+00
3.706626e-03 -1.974360e-02 0.000000e+00
2.532812e-03 -2.423665e-02 0.000000e+00
0.000000e+00 -2.925000e-02 0.000000e+00
0.000000e+00 0.000000e+00 0.000000e+00
1.646982e-03 -9.731613e-04 0.000000e+00
2.962846e-03 -2.007953e-03 0.000000e+00
3.980663e-03 -3.041624e-03 0.000000e+00
4.774983e-03 -4.042309e-03 0.000000e+00
5.424447e-03 -4.972907e-03 0.000000e+00
5.854682e-03 -5.782438e-03 0.000000e+00
5.999807e-03 -6.432433e-03 0.000000e+00
5.770993e-03 -6.891375e-03 0.000000e+00
4.951228e-03 -6.948604e-03 0.000000e+00
1.943694e-03 -6.333177e-03 0.000000e+00
0.000000e+00 0.000000e+00 0.000000e+00
1.732979e-03 -7.332338e-04 0.000000e+00
3.006599e-03 -1.432836e-03 0.000000e+00
3.959716e-03 -2.071610e-03 0.000000e+00
4.681725e-03 -2.639739e-03 0.000000e+00
5.209635e-03 -3.111352e-03 0.000000e+00
5.502574e-03 -3.452003e-03 0.000000e+00
5.493154e-03 -3.632965e-03 0.000000e+00
5.084384e-03 -3.617455e-03 0.000000e+00
3.930932e-03 -3.404375e-03 0.000000e+00
1.941780e-03 -3.429844e-03 0.000000e+00
0.000000e+00 0.000000e+00 0.000000e+00
1.678916e-03 -5.233724e-04 0.000000e+00
2.845541e-03 -9.752564e-04 0.000000e+00
3.703412e-03 -1.353421e-03 0.000000e+00
4.332271e-03 -1.653776e-03 0.000000e+00
4.749693e-03 -1.858171e-03 0.000000e+00
4.926348e-03 -1.951783e-03 0.000000e+00
4.813829e-03 -1.925014e-03 0.000000e+00
4.322615e-03 -1.784119e-03 0.000000e+00
3.387528e-03 -1.629890e-03 0.000000e+00
2.154471e-03 -1.579155e-03 0.000000e+00
0.000000e+00 0.000000e+00 0.000000e+00
1.532401e-03 -3.612197e-04 0.000000e+00
2.572874e-03 -6.355558e-04 0.000000e+00
3.334450e-03 -8.368737e-04 0.000000e+00
3.872610e-03 -9.638658e-04 0.000000e+00
4.201726e-03 -1.010834e-03 0.000000e+00
4.306836e-03 -9.744084e-04 0.000000e+00
4.153728e-03 -8.603639e-04 0.000000e+00
3.717814e-03 -6.989294e-04 0.000000e+00
3.032283e-03 -5.593533e-04 0.000000e+00
2.255579e-03 -5.214080e-04 0.000000e+00
0.000000e+00 0.000000e+00 0.000000e+00
1.335474e-03 -2.423383e-04 0.000000e+00
2.247542e-03 -3.945231e-04 0.000000e+00
2.915359e-03 -4.782416e-04 0.000000e+00
3.376833e-03 -4.982694e-04 0.000000e+00
3.644535e-03 -4.552260e-04 0.000000e+00
3.709450e-03 -3.520891e-04 0.000000e+00
3.564303e-03 -2.014759e-04 0.000000e+00
3.225401e-03 -3.894723e-05 0.000000e+00
2.751469e-03 8.357875e-05 0.000000e+00
2.265105e-03 1.336827e-04 0.000000e+00
0.000000e+00 0.000000e+00 0.000000e+00
1.118879e-03 -1.577470e-04 0.000000e+00
1.908580e-03 -2.323524e-04 0.000000e+00
2.487996e-03 -2.449240e-04 0.000000e+00
2.884438e-03 -2.019517e-04 0.000000e+00
3.105953e-03 -1.069392e-04 0.000000e+00
3.155401e-03 3.148963e-05 0.000000e+00
3.044585e-03 1.931306e-04 0.000000e+00
2.803647e-03 3.475092e-04 0.000000e+00
2.489386e-03 4.641665e-04 0.000000e+00
2.195313e-03 5.259999e-04 0.000000e+00
0.000000e+00 0.000000e+00 0.000000e+00
9.101331e-04 -1.065646e-04 0.000000e+00
1.580480e-03 -1.346517e-04 0.000000e+00
2.076849e-03 -1.054041e-04 0.000000e+00
2.413119e-03 -2.439807e-05 0.000000e+00
2.601367e-03 9.849134e-05 0.000000e+00
2.650476e-03 2.499972e-04 0.000000e+00
2.580497e-03 4.103326e-04 0.000000e+00
2.420905e-03 5.577542e-04 0.000000e+00
2.223951e-03 6.729453e-04 0.000000e+00
2.059573e-03 7.473236e-04 0.000000e+00
0.000000e+00 0.000000e+00 0.000000e+00
7.214049e-04 -7.463831e-05 0.000000e+00
1.278411e-03 -7.772759e-05 0.000000e+00
1.692356e-03 -2.527301e-05 0.000000e+00
1.975351e-03 7.308999e-05 0.000000e+00
2.137873e-03 2.057209e-04 0.000000e+00
2.192482e-03 3.577680e-04 0.000000e+00
2.156755e-03 5.127819e-04 0.000000e+00
2.059695e-03 6.547938e-04 0.000000e+00
1.945946e-03 7.708282e-04 0.000000e+00
1.866357e-03 8.575941e-04 0.000000e+00
0.000000e+00 0.000000e+00 0.000000e+00
5.580870e-04 -5.686077e-05 0.000000e+00
1.006228e-03 -4.708611e-05 0.000000e+00
1.342429e-03 1.397007e-05 0.000000e+00
1.576843e-03 1.168472e-04 0.000000e+00
1.716340e-03 2.487010e-04 0.000000e+00
1.772642e-03 3.966291e-04 0.000000e+00
1.761932e-03 5.459316e-04 0.000000e+00
1.709854e-03 6.836167e-04 0.000000e+00
1.651866e-03 8.015420e-04 0.000000e+00
1.625692e-03 8.994560e-04 0.000000e+00
0.000000e+00 0.000000e+00 0.000000e+00
4.182874e-04 -4.733430e-05 0.000000e+00
7.639723e-04 -3.385948e-05 0.000000e+00
1.028283e-03 2.879474e-05 0.000000e+00
1.214913e-03 1.300661e-04 0.000000e+00
1.330406e-03 2.579682e-04 0.000000e+00
1.383281e-03 3.993011e-04 0.000000e+00
1.387851e-03 5.421319e-04 0.000000e+00
1.365510e-03 6.763464e-04 0.000000e+00
1.342338e-03 7.963896e-04 0.000000e+00
1.345732e-03 9.035050e-04 0.000000e+00
0.000000e+00 0.000000e+00 0.000000e+00
2.973478e-04 -4.242896e-05 0.000000e+00
5.496128e-04 -2.832207e-05 0.000000e+00
7.446529e-04 3.272358e-05 0.000000e+00
8.841917e-04 1.299358e-04 0.000000e+00
9.729638e-04 2.521270e-04 0.000000e+00
1.017618e-03 3.871644e-04 0.000000e+00
1.029013e-03 5.243537e-04 0.000000e+00
1.023498e-03 6.557780e-04 0.000000e+00
1.019236e-03 7.778740e-04 0.000000e+00
1.035334e-03 8.925486e-04 0.000000e+00
0.000000e+00 0.000000e+00 0.000000e+00
1.917740e-04 -3.877749e-05 0.000000e+00
3.559813e-04 -2.460383e-05 0.000000e+00
4.840159e-04 3.485392e-05 0.000000e+00
5.770468e-04 1.288170e-04 0.000000e+00
6.369113e-04 2.460019e-04 0.000000e+00
6.690996e-04 3.757982e-04 0.000000e+00
6.806347e-04 5.085090e-04 0.000000e+00
6.822812e-04 6.379405e-04 0.000000e+00
6.855555e-04 7.613823e-04 0.000000e+00
7.022518e-04 8.817111e-04 0.000000e+00
0.000000e+00 0.000000e+00 0.000000e+00
9.589484e-05 -3.444193e-05 0.000000e+00
1.753741e-04 -1.719145e-05 0.000000e+00
2.385710e-04 4.241471e-05 0.000000e+00
2.848255e-04 1.344689e-04 0.000000e+00
3.150213e-04 2.487746e-04 0.000000e+00
3.317562e-04 3.751752e-04 0.000000e+00
3.387961e-04 5.050856e-04 0.000000e+00
3.411402e-04 6.331595e-04 0.000000e+00
3.446118e-04 7.574681e-04 0.000000e+00
3.545418e-04 8.809402e-04 0.000000e+00
0.000000e+00 0.000000e+00 0.000000e+00
0.000000e+00 -1.962460e-05 0.000000e+00
0.000000e+00 1.714972e-06 0.000000e+00
0.000000e+00 6.114732e-05 0.000000e+00
0.000000e+00 1.525940e-04 0.000000e+00
0.000000e+00 2.656425e-04 0.000000e+00
0.000000e+00 3.908467e-04 0.000000e+00
0.000000e+00 5.198165e-04 0.000000e+00
0.000000e+00 6.473394e-04 0.000000e+00
0.000000e+00 7.717353e-04 0.000000e+00
0.000000e+00 8.961739e-04 0.000000e+00
</DataArray>
<DataArray Name="shear" type="Float64" NumberOfComponents="1" format="ascii">
9.557002e-03
1.325340e-02
1.881616e-02
2.296338e-02
2.578239e-02
2.737230e-02
2.767920e-02
2.622679e-02
2.226822e-02
1.653170e-02
1.367882e-02
9.588431e-03
1.277678e-02
1.771692e-02
2.176949e-02
2.502907e-02
2.747726e-02
2.883058e-02
2.865498e-02
2.652429e-02
2.168296e-02
1.729876e-02
9.895707e-03
1.177472e-02
1.487025e-02
1.825765e-02
2.230416e-02
2.691887e-02
3.184726e-02
3.700839e-02
4.202260e-02
4.469272e-02
4.495608e-02
9.962567e-03
1.044647e-02
1.117388e-02
1.257229e-02
1.501254e-02
1.840933e-02
2.264084e-02
2.786259e-02
3.380026e-02
3.770924e-02
4.039616e-02
9.648852e-03
9.246348e-03
8.483566e-03
8.341501e-03
8.629067e-03
9.021588e-03
9.262222e-03
9.221368e-03
8.318865e-03
5.091993e-03
1.542163e-03
8.967534e-03
8.184571e-03
6.944245e-03
6.484388e-03
6.369237e-03
6.326511e-03
6.161645e-03
5.704863e-03
4.600901e-03
2.365973e-03
3.779329e-04
7.998318e-03
7.109249e-03
5.802725e-03
5.275381e-03
5.017993e-03
4.830524e-03
4.570963e-03
4.112466e-03
3.244350e-03
1.762024e-03
5.609912e-04
6.882321e-03
6.073123e-03
4.921772e-03
4.431374e-03
4.156236e-03
3.959863e-03
3.739139e-03
3.370698e-03
2.693740e-03
1.610636e-03
7.691984e-04
5.727756e-03
5.085182e-03
4.183747e-03
3.783673e-03
3.573284e-03
3.439797e-03
3.277254e-03
2.971635e-03
2.434032e-03
1.622792e-03
1.020674e-03
4.638425e-03
4.171843e-03
3.536472e-03
3.263535e-03
3.150701e-03
3.083543e-03
2.964083e-03
2.720122e-03
2.302578e-03
1.695690e-03
1.269735e-03
3.668606e-03
3.358350e-03
2.959474e-03
2.818996e-03
2.799022e-03
2.792619e-03
2.723079e-03
2.545631e-03
2.230831e-03
1.792002e-03
1.503309e-03
2.831908e-03
2.636608e-03
2.433120e-03
2.420694e-03
2.492006e-03
2.547928e-03
2.533522e-03
2.416658e-03
2.190145e-03
1.891069e-03
1.708109e-03
2.118874e-03
2.005841e-03
1.966063e-03
2.079143e-03
2.236373e-03
2.349678e-03
2.380195e-03
2.316039e-03
2.167204e-03
1.981167e-03
1.878295e-03
1.506846e-03
1.459474e-03
1.569633e-03
1.803158e-03
2.033804e-03
2.194068e-03
2.260845e-03
2.239530e-03
2.155216e-03
2.056790e-03
2.012456e-03
9.740042e-04
9.864898e-04
1.255973e-03
1.602002e-03
1.889986e-03
2.082431e-03
2.175511e-03
2.186560e-03
2.149952e-03
2.113395e-03
2.109248e-03
4.941639e-04
6.099531e-04
1.055589e-03
1.480405e-03
1.804310e-03
2.015609e-03
2.124534e-03
2.156330e-03
2.148922e-03
2.148279e-03
2.166040e-03
1.828058e-04
4.514223e-04
9.867549e-04
1.436673e-03
1.773259e-03
1.991829e-03
2.107251e-03
2.146900e-03
2.149193e-03
2.159853e-03
2.184163e-03
</DataArray>
<DataArray Name="stress" type="Float64" NumberOfComponents="9" format="ascii">
-9.020144e+04 3.424727e+03 0.000000e+00 3.424727e+03 -1.418866e+05 0.000000e+00 0.000000e+00 0.000000e+00 0.000000e+00
-8.323612e+04 3.467857e+03 0.000000e+00 3.467857e+03 -1.415308e+05 0.000000e+00 0.000000e+00 0.000000e+00 0.000000e+00
-8.020712e+04 3.834530e+03 0.000000e+00 3.834530e+03 -1.493826e+05 0.000000e+00 0.000000e+00 0.000000e+00 0.000000e+00
-7.981567e+04 4.357850e+03 0.000000e+00 4.357850e+03 -1.576819e+05 0.000000e+00 0.000000e+00 0.000000e+00 0.000000e+00
-8.165197e+04 4.651675e+03 0.000000e+00 4.651675e+03 -1.660434e+05 0.000000e+00 0.000000e+00 0.000000e+00 0.000000e+00
-8.472120e+04 4.836176e+03 0.000000e+00 4.836176e+03 -1.744570e+05 0.000000e+00 0.000000e+00 0.000000e+00 0.000000e+00
-8.884161e+04 4.767625e+03 0.000000e+00 4.767625e+03 -1.824238e+05 0.000000e+00 0.000000e+00 0.000000e+00 0.000000e+00
-9.407788e+04 4.219597e+03 0.000000e+00 4.219597e+03 -1.893276e+05 0.000000e+00 0.000000e+00 0.000000e+00 0.000000e+00
-1.014377e+05 2.115414e+03 0.000000e+00 2.115414e+03 -1.931088e+05 0.000000e+00 0.000000e+00 0.000000e+00 0.000000e+00
-1.127829e+05 -7.838895e+02 0.000000e+00 -7.838895e+02 -1.942520e+05 0.000000e+00 0.000000e+00 0.000000e+00 0.000000e+00
-1.191751e+05 -1.537742e+03 0.000000e+00 -1.537742e+03 -1.935707e+05 0.000000e+00 0.000000e+00 0.000000e+00 0.000000e+00
-8.914110e+04 9.472837e+03 0.000000e+00 9.472837e+03 -1.358425e+05 0.000000e+00 0.000000e+00 0.000000e+00 0.000000e+00
-8.288032e+04 8.931617e+03 0.000000e+00 8.931617e+03 -1.355335e+05 0.000000e+00 0.000000e+00 0.000000e+00 0.000000e+00
-8.032634e+04 8.909641e+03 0.000000e+00 8.909641e+03 -1.424711e+05 0.000000e+00 0.000000e+00 0.000000e+00 0.000000e+00
-8.022138e+04 9.236537e+03 0.000000e+00 9.236537e+03 -1.499132e+05 0.000000e+00 0.000000e+00 0.000000e+00 0.000000e+00
-8.227361e+04 9.629805e+03 0.000000e+00 9.629805e+03 -1.577311e+05 0.000000e+00 0.000000e+00 0.000000e+00 0.000000e+00
-8.539409e+04 9.939965e+03 0.000000e+00 9.939965e+03 -1.661270e+05 0.000000e+00 0.000000e+00 0.000000e+00 0.000000e+00
-8.934145e+04 9.837281e+03 0.000000e+00 9.837281e+03 -1.749652e+05 0.000000e+00 0.000000e+00 0.000000e+00 0.000000e+00
-9.387659e+04 8.940277e+03 0.000000e+00 8.940277e+03 -1.842541e+05 0.000000e+00 0.000000e+00 0.000000e+00 0.000000e+00
-9.943777e+04 5.732165e+03 0.000000e+00 5.732165e+03 -1.934013e+05 0.000000e+00 0.000000e+00 0.000000e+00 0.000000e+00
-1.080445e+05 5.349274e+02 0.000000e+00 5.349274e+02 -1.991564e+05 0.000000e+00 0.000000e+00 0.000000e+00 0.000000e+00
-1.225341e+05 -4.549672e+03 0.000000e+00 -4.549672e+03 -2.097627e+05 0.000000e+00 0.000000e+00 0.000000e+00 0.000000e+00
-8.656516e+04 1.565558e+04 0.000000e+00 1.565558e+04 -1.229064e+05 0.000000e+00 0.000000e+00 0.000000e+00 0.000000e+00
-8.184795e+04 1.510952e+04 0.000000e+00 1.510952e+04 -1.221766e+05 0.000000e+00 0.000000e+00 0.000000e+00 0.000000e+00
-8.019682e+04 1.536146e+04 0.000000e+00 1.536146e+04 -1.260847e+05 0.000000e+00 0.000000e+00 0.000000e+00 0.000000e+00
-8.102875e+04 1.658824e+04 0.000000e+00 1.658824e+04 -1.306807e+05 0.000000e+00 0.000000e+00 0.000000e+00 0.000000e+00
-8.421543e+04 1.835008e+04 0.000000e+00 1.835008e+04 -1.362628e+05 0.000000e+00 0.000000e+00 0.000000e+00 0.000000e+00
-8.862106e+04 2.020590e+04 0.000000e+00 2.020590e+04 -1.431649e+05 0.000000e+00 0.000000e+00 0.000000e+00 0.000000e+00
-9.410190e+04 2.185963e+04 0.000000e+00 2.185963e+04 -1.519443e+05 0.000000e+00 0.000000e+00 0.000000e+00 0.000000e+00
-1.002868e+05 2.257040e+04 0.000000e+00 2.257040e+04 -1.618193e+05 0.000000e+00 0.000000e+00 0.000000e+00 0.000000e+00
-1.070267e+05 2.263774e+04 0.000000e+00 2.263774e+04 -1.743406e+05 0.000000e+00 0.000000e+00 0.000000e+00 0.000000e+00
-1.180247e+05 1.855241e+04 0.000000e+00 1.855241e+04 -1.913249e+05 0.000000e+00 0.000000e+00 0.000000e+00 0.000000e+00
-1.389648e+05 1.243488e+04 0.000000e+00 1.243488e+04 -2.125752e+05 0.000000e+00 0.000000e+00 0.000000e+00 0.000000e+00
-8.342861e+04 1.798672e+04 0.000000e+00 1.798672e+04 -1.095591e+05 0.000000e+00 0.000000e+00 0.000000e+00 0.000000e+00
-8.079009e+04 1.746651e+04 0.000000e+00 1.746651e+04 -1.086978e+05 0.000000e+00 0.000000e+00 0.000000e+00 0.000000e+00
-8.005644e+04 1.755610e+04 0.000000e+00 1.755610e+04 -1.093640e+05 0.000000e+00 0.000000e+00 0.000000e+00 0.000000e+00
-8.081370e+04 1.874345e+04 0.000000e+00 1.874345e+04 -1.090592e+05 0.000000e+00 0.000000e+00 0.000000e+00 0.000000e+00
-8.244200e+04 2.030983e+04 0.000000e+00 2.030983e+04 -1.075949e+05 0.000000e+00 0.000000e+00 0.000000e+00 0.000000e+00
-8.444301e+04 2.152696e+04 0.000000e+00 2.152696e+04 -1.053597e+05 0.000000e+00 0.000000e+00 0.000000e+00 0.000000e+00
-8.640827e+04 2.266868e+04 0.000000e+00 2.266868e+04 -1.020714e+05 0.000000e+00 0.000000e+00 0.000000e+00 0.000000e+00
-8.751916e+04 2.243950e+04 0.000000e+00 2.243950e+04 -9.691954e+04 0.000000e+00 0.000000e+00 0.000000e+00 0.000000e+00
-8.801459e+04 2.205554e+04 0.000000e+00 2.205554e+04 -9.041404e+04 0.000000e+00 0.000000e+00 0.000000e+00 0.000000e+00
-8.436773e+04 1.732561e+04 0.000000e+00 1.732561e+04 -7.865318e+04 0.000000e+00 0.000000e+00 0.000000e+00 0.000000e+00
-7.748070e+04 1.428398e+04 0.000000e+00 1.428398e+04 -7.185987e+04 0.000000e+00 0.000000e+00 0.000000e+00 0.000000e+00
-8.013438e+04 1.816771e+04 0.000000e+00 1.816771e+04 -9.850980e+04 0.000000e+00 0.000000e+00 0.000000e+00 0.000000e+00
-7.978752e+04 1.763789e+04 0.000000e+00 1.763789e+04 -9.799976e+04 0.000000e+00 0.000000e+00 0.000000e+00 0.000000e+00
-8.091876e+04 1.713015e+04 0.000000e+00 1.713015e+04 -9.744952e+04 0.000000e+00 0.000000e+00 0.000000e+00 0.000000e+00
-8.303415e+04 1.751774e+04 0.000000e+00 1.751774e+04 -9.615946e+04 0.000000e+00 0.000000e+00 0.000000e+00 0.000000e+00
-8.538720e+04 1.824542e+04 0.000000e+00 1.824542e+04 -9.397304e+04 0.000000e+00 0.000000e+00 0.000000e+00 0.000000e+00
-8.803504e+04 1.873060e+04 0.000000e+00 1.873060e+04 -9.090016e+04 0.000000e+00 0.000000e+00 0.000000e+00 0.000000e+00
-9.025338e+04 1.859721e+04 0.000000e+00 1.859721e+04 -8.667926e+04 0.000000e+00 0.000000e+00 0.000000e+00 0.000000e+00
-9.165788e+04 1.751620e+04 0.000000e+00 1.751620e+04 -8.109816e+04 0.000000e+00 0.000000e+00 0.000000e+00 0.000000e+00
-9.166777e+04 1.445348e+04 0.000000e+00 1.445348e+04 -7.384047e+04 0.000000e+00 0.000000e+00 0.000000e+00 0.000000e+00
-8.548571e+04 7.406898e+03 0.000000e+00 7.406898e+03 -6.714164e+04 0.000000e+00 0.000000e+00 0.000000e+00 0.000000e+00
-6.619842e+04 1.616014e+03 0.000000e+00 1.616014e+03 -5.857878e+04 0.000000e+00 0.000000e+00 0.000000e+00 0.000000e+00
-7.654409e+04 1.728174e+04 0.000000e+00 1.728174e+04 -8.894936e+04 0.000000e+00 0.000000e+00 0.000000e+00 0.000000e+00
-7.821710e+04 1.674416e+04 0.000000e+00 1.674416e+04 -8.871928e+04 0.000000e+00 0.000000e+00 0.000000e+00 0.000000e+00
-8.077906e+04 1.576175e+04 0.000000e+00 1.576175e+04 -8.744588e+04 0.000000e+00 0.000000e+00 0.000000e+00 0.000000e+00
-8.348961e+04 1.543311e+04 0.000000e+00 1.543311e+04 -8.559445e+04 0.000000e+00 0.000000e+00 0.000000e+00 0.000000e+00
-8.585263e+04 1.518636e+04 0.000000e+00 1.518636e+04 -8.307976e+04 0.000000e+00 0.000000e+00 0.000000e+00 0.000000e+00
-8.789371e+04 1.459237e+04 0.000000e+00 1.459237e+04 -7.981155e+04 0.000000e+00 0.000000e+00 0.000000e+00 0.000000e+00
-8.930102e+04 1.333794e+04 0.000000e+00 1.333794e+04 -7.570332e+04 0.000000e+00 0.000000e+00 0.000000e+00 0.000000e+00
-8.942371e+04 1.098768e+04 0.000000e+00 1.098768e+04 -7.085629e+04 0.000000e+00 0.000000e+00 0.000000e+00 0.000000e+00
-8.692436e+04 6.948813e+03 0.000000e+00 6.948813e+03 -6.598822e+04 0.000000e+00 0.000000e+00 0.000000e+00 0.000000e+00
-7.648415e+04 1.849459e+03 0.000000e+00 1.849459e+03 -6.223726e+04 0.000000e+00 0.000000e+00 0.000000e+00 0.000000e+00
-6.134349e+04 -4.565122e+02 0.000000e+00 -4.565122e+02 -5.863685e+04 0.000000e+00 0.000000e+00 0.000000e+00 0.000000e+00
-7.321823e+04 1.582302e+04 0.000000e+00 1.582302e+04 -8.118641e+04 0.000000e+00 0.000000e+00 0.000000e+00 0.000000e+00
-7.643426e+04 1.532662e+04 0.000000e+00 1.532662e+04 -8.120638e+04 0.000000e+00 0.000000e+00 0.000000e+00 0.000000e+00
-8.003826e+04 1.400009e+04 0.000000e+00 1.400009e+04 -7.960106e+04 0.000000e+00 0.000000e+00 0.000000e+00 0.000000e+00
-8.297519e+04 1.307258e+04 0.000000e+00 1.307258e+04 -7.764618e+04 0.000000e+00 0.000000e+00 0.000000e+00 0.000000e+00
-8.512478e+04 1.206432e+04 0.000000e+00 1.206432e+04 -7.523276e+04 0.000000e+00 0.000000e+00 0.000000e+00 0.000000e+00
-8.664357e+04 1.072953e+04 0.000000e+00 1.072953e+04 -7.230877e+04 0.000000e+00 0.000000e+00 0.000000e+00 0.000000e+00
-8.721794e+04 8.810553e+03 0.000000e+00 8.810553e+03 -6.898823e+04 0.000000e+00 0.000000e+00 0.000000e+00 0.000000e+00
-8.609033e+04 6.086716e+03 0.000000e+00 6.086716e+03 -6.557852e+04 0.000000e+00 0.000000e+00 0.000000e+00 0.000000e+00
-8.198362e+04 2.647611e+03 0.000000e+00 2.647611e+03 -6.258605e+04 0.000000e+00 0.000000e+00 0.000000e+00 0.000000e+00
-7.265779e+04 -1.717972e+02 0.000000e+00 -1.717972e+02 -6.064575e+04 0.000000e+00 0.000000e+00 0.000000e+00 0.000000e+00
-6.254826e+04 -1.114577e+03 0.000000e+00 -1.114577e+03 -5.884246e+04 0.000000e+00 0.000000e+00 0.000000e+00 0.000000e+00
-7.034398e+04 1.420691e+04 0.000000e+00 1.420691e+04 -7.529372e+04 0.000000e+00 0.000000e+00 0.000000e+00 0.000000e+00
-7.458989e+04 1.367706e+04 0.000000e+00 1.367706e+04 -7.541580e+04 0.000000e+00 0.000000e+00 0.000000e+00 0.000000e+00
-7.878598e+04 1.214885e+04 0.000000e+00 1.214885e+04 -7.370709e+04 0.000000e+00 0.000000e+00 0.000000e+00 0.000000e+00
-8.173652e+04 1.077495e+04 0.000000e+00 1.077495e+04 -7.188394e+04 0.000000e+00 0.000000e+00 0.000000e+00 0.000000e+00
-8.369730e+04 9.307474e+03 0.000000e+00 9.307474e+03 -6.978597e+04 0.000000e+00 0.000000e+00 0.000000e+00 0.000000e+00
-8.477747e+04 7.594433e+03 0.000000e+00 7.594433e+03 -6.746046e+04 0.000000e+00 0.000000e+00 0.000000e+00 0.000000e+00
-8.465135e+04 5.464837e+03 0.000000e+00 5.464837e+03 -6.505507e+04 0.000000e+00 0.000000e+00 0.000000e+00 0.000000e+00
-8.282000e+04 2.939222e+03 0.000000e+00 2.939222e+03 -6.278040e+04 0.000000e+00 0.000000e+00 0.000000e+00 0.000000e+00
-7.865473e+04 4.421436e+02 0.000000e+00 4.421436e+02 -6.105422e+04 0.000000e+00 0.000000e+00 0.000000e+00 0.000000e+00
-7.132457e+04 -9.403073e+02 0.000000e+00 -9.403073e+02 -6.015573e+04 0.000000e+00 0.000000e+00 0.000000e+00 0.000000e+00
-6.454415e+04 -1.090409e+03 0.000000e+00 -1.090409e+03 -5.922086e+04 0.000000e+00 0.000000e+00 0.000000e+00 0.000000e+00
-6.803929e+04 1.261024e+04 0.000000e+00 1.261024e+04 -7.095241e+04 0.000000e+00 0.000000e+00 0.000000e+00 0.000000e+00
-7.272582e+04 1.203204e+04 0.000000e+00 1.203204e+04 -7.107162e+04 0.000000e+00 0.000000e+00 0.000000e+00 0.000000e+00
-7.719525e+04 1.036667e+04 0.000000e+00 1.036667e+04 -6.946107e+04 0.000000e+00 0.000000e+00 0.000000e+00 0.000000e+00
-8.010312e+04 8.760803e+03 0.000000e+00 8.760803e+03 -6.784991e+04 0.000000e+00 0.000000e+00 0.000000e+00 0.000000e+00
-8.189324e+04 7.081339e+03 0.000000e+00 7.081339e+03 -6.615570e+04 0.000000e+00 0.000000e+00 0.000000e+00 0.000000e+00
-8.262452e+04 5.234836e+03 0.000000e+00 5.234836e+03 -6.438805e+04 0.000000e+00 0.000000e+00 0.000000e+00 0.000000e+00
-8.211685e+04 3.157007e+03 0.000000e+00 3.157007e+03 -6.268321e+04 0.000000e+00 0.000000e+00 0.000000e+00 0.000000e+00
-8.020623e+04 1.061433e+03 0.000000e+00 1.061433e+03 -6.124989e+04 0.000000e+00 0.000000e+00 0.000000e+00 0.000000e+00
-7.663053e+04 -6.131702e+02 0.000000e+00 -6.131702e+02 -6.034394e+04 0.000000e+00 0.000000e+00 0.000000e+00 0.000000e+00
-7.122245e+04 -1.164301e+03 0.000000e+00 -1.164301e+03 -5.997373e+04 0.000000e+00 0.000000e+00 0.000000e+00 0.000000e+00
-6.666215e+04 -9.948035e+02 0.000000e+00 -9.948035e+02 -5.944182e+04 0.000000e+00 0.000000e+00 0.000000e+00 0.000000e+00
-6.631911e+04 1.093745e+04 0.000000e+00 1.093745e+04 -6.795946e+04 0.000000e+00 0.000000e+00 0.000000e+00 0.000000e+00
-7.095298e+04 1.038326e+04 0.000000e+00 1.038326e+04 -6.796441e+04 0.000000e+00 0.000000e+00 0.000000e+00 0.000000e+00
-7.541250e+04 8.731372e+03 0.000000e+00 8.731372e+03 -6.644973e+04 0.000000e+00 0.000000e+00 0.000000e+00 0.000000e+00
-7.827521e+04 7.070052e+03 0.000000e+00 7.070052e+03 -6.506767e+04 0.000000e+00 0.000000e+00 0.000000e+00 0.000000e+00
-7.993080e+04 5.338884e+03 0.000000e+00 5.338884e+03 -6.370538e+04 0.000000e+00 0.000000e+00 0.000000e+00 0.000000e+00
-8.046985e+04 3.508121e+03 0.000000e+00 3.508121e+03 -6.238520e+04 0.000000e+00 0.000000e+00 0.000000e+00 0.000000e+00
-7.991310e+04 1.666343e+03 0.000000e+00 1.666343e+03 -6.123314e+04 0.000000e+00 0.000000e+00 0.000000e+00 0.000000e+00
-7.827377e+04 3.993304e+01 0.000000e+00 3.993304e+01 -6.042019e+04 0.000000e+00 0.000000e+00 0.000000e+00 0.000000e+00
-7.547967e+04 -1.056083e+03 0.000000e+00 -1.056083e+03 -5.999546e+04 0.000000e+00 0.000000e+00 0.000000e+00 0.000000e+00
-7.165600e+04 -1.165385e+03 0.000000e+00 -1.165385e+03 -5.989569e+04 0.000000e+00 0.000000e+00 0.000000e+00 0.000000e+00
-6.863240e+04 -8.580079e+02 0.000000e+00 -8.580079e+02 -5.959498e+04 0.000000e+00 0.000000e+00 0.000000e+00 0.000000e+00
-6.505653e+04 9.283073e+03 0.000000e+00 9.283073e+03 -6.591450e+04 0.000000e+00 0.000000e+00 0.000000e+00 0.000000e+00
-6.932378e+04 8.750595e+03 0.000000e+00 8.750595e+03 -6.582879e+04 0.000000e+00 0.000000e+00 0.000000e+00 0.000000e+00
-7.363193e+04 7.245500e+03 0.000000e+00 7.245500e+03 -6.440330e+04 0.000000e+00 0.000000e+00 0.000000e+00 0.000000e+00
-7.643771e+04 5.643933e+03 0.000000e+00 5.643933e+03 -6.318197e+04 0.000000e+00 0.000000e+00 0.000000e+00 0.000000e+00
-7.799409e+04 3.975105e+03 0.000000e+00 3.975105e+03 -6.206191e+04 0.000000e+00 0.000000e+00 0.000000e+00 0.000000e+00
-7.851235e+04 2.314094e+03 0.000000e+00 2.314094e+03 -6.110754e+04 0.000000e+00 0.000000e+00 0.000000e+00 0.000000e+00
-7.811936e+04 7.801583e+02 0.000000e+00 7.801583e+02 -6.038484e+04 0.000000e+00 0.000000e+00 0.000000e+00 0.000000e+00
-7.688155e+04 -4.583199e+02 0.000000e+00 -4.583199e+02 -5.995751e+04 0.000000e+00 0.000000e+00 0.000000e+00 0.000000e+00
-7.486355e+04 -1.167829e+03 0.000000e+00 -1.167829e+03 -5.980927e+04 0.000000e+00 0.000000e+00 0.000000e+00 0.000000e+00
-7.229408e+04 -1.056911e+03 0.000000e+00 -1.056911e+03 -5.986163e+04 0.000000e+00 0.000000e+00 0.000000e+00 0.000000e+00
-7.036423e+04 -7.125586e+02 0.000000e+00 -7.125586e+02 -5.970996e+04 0.000000e+00 0.000000e+00 0.000000e+00 0.000000e+00
-6.409858e+04 7.589788e+03 0.000000e+00 7.589788e+03 -6.458308e+04 0.000000e+00 0.000000e+00 0.000000e+00 0.000000e+00
-6.790562e+04 7.130414e+03 0.000000e+00 7.130414e+03 -6.439810e+04 0.000000e+00 0.000000e+00 0.000000e+00 0.000000e+00
-7.199585e+04 5.853185e+03 0.000000e+00 5.853185e+03 -6.306044e+04 0.000000e+00 0.000000e+00 0.000000e+00 0.000000e+00
-7.469545e+04 4.412544e+03 0.000000e+00 4.412544e+03 -6.195201e+04 0.000000e+00 0.000000e+00 0.000000e+00 0.000000e+00
-7.623999e+04 2.928421e+03 0.000000e+00 2.928421e+03 -6.102989e+04 0.000000e+00 0.000000e+00 0.000000e+00 0.000000e+00
-7.685009e+04 1.517027e+03 0.000000e+00 1.517027e+03 -6.032955e+04 0.000000e+00 0.000000e+00 0.000000e+00 0.000000e+00
-7.669351e+04 2.825912e+02 0.000000e+00 2.825912e+02 -5.988974e+04 0.000000e+00 0.000000e+00 0.000000e+00 0.000000e+00
-7.588762e+04 -6.435086e+02 0.000000e+00 -6.435086e+02 -5.969920e+04 0.000000e+00 0.000000e+00 0.000000e+00 0.000000e+00
-7.456250e+04 -1.097598e+03 0.000000e+00 -1.097598e+03 -5.971657e+04 0.000000e+00 0.000000e+00 0.000000e+00 0.000000e+00
-7.295973e+04 -8.949435e+02 0.000000e+00 -8.949435e+02 -5.984421e+04 0.000000e+00 0.000000e+00 0.000000e+00 0.000000e+00
-7.182517e+04 -5.705894e+02 0.000000e+00 -5.705894e+02 -5.980009e+04 0.000000e+00 0.000000e+00 0.000000e+00 0.000000e+00
-6.342754e+04 5.946906e+03 0.000000e+00 5.946906e+03 -6.372633e+04 0.000000e+00 0.000000e+00 0.000000e+00 0.000000e+00
-6.679190e+04 5.583368e+03 0.000000e+00 5.583368e+03 -6.347264e+04 0.000000e+00 0.000000e+00 0.000000e+00 0.000000e+00
-7.058045e+04 4.543870e+03 0.000000e+00 4.543870e+03 -6.220982e+04 0.000000e+00 0.000000e+00 0.000000e+00 0.000000e+00
-7.317405e+04 3.329705e+03 0.000000e+00 3.329705e+03 -6.117649e+04 0.000000e+00 0.000000e+00 0.000000e+00 0.000000e+00
-7.474873e+04 2.108503e+03 0.000000e+00 2.108503e+03 -6.040071e+04 0.000000e+00 0.000000e+00 0.000000e+00 0.000000e+00
-7.550196e+04 9.772050e+02 0.000000e+00 9.772050e+02 -5.988220e+04 0.000000e+00 0.000000e+00 0.000000e+00 0.000000e+00
-7.560712e+04 2.880235e+01 0.000000e+00 2.880235e+01 -5.961586e+04 0.000000e+00 0.000000e+00 0.000000e+00 0.000000e+00
-7.519508e+04 -6.424904e+02 0.000000e+00 -6.424904e+02 -5.957034e+04 0.000000e+00 0.000000e+00 0.000000e+00 0.000000e+00
-7.443594e+04 -9.281893e+02 0.000000e+00 -9.281893e+02 -5.967825e+04 0.000000e+00 0.000000e+00 0.000000e+00 0.000000e+00
-7.356135e+04 -7.116019e+02 0.000000e+00 -7.116019e+02 -5.984243e+04 0.000000e+00 0.000000e+00 0.000000e+00 0.000000e+00
-7.299510e+04 -4.385805e+02 0.000000e+00 -4.385805e+02 -5.987488e+04 0.000000e+00 0.000000e+00 0.000000e+00 0.000000e+00
-6.292627e+04 4.354640e+03 0.000000e+00 4.354640e+03 -6.318012e+04 0.000000e+00 0.000000e+00 0.000000e+00 0.000000e+00
-6.592596e+04 4.066717e+03 0.000000e+00 4.066717e+03 -6.287988e+04 0.000000e+00 0.000000e+00 0.000000e+00 0.000000e+00
-6.941954e+04 3.276185e+03 0.000000e+00 3.276185e+03 -6.167116e+04 0.000000e+00 0.000000e+00 0.000000e+00 0.000000e+00
-7.195650e+04 2.361135e+03 0.000000e+00 2.361135e+03 -6.071273e+04 0.000000e+00 0.000000e+00 0.000000e+00 0.000000e+00
-7.357679e+04 1.443824e+03 0.000000e+00 1.443824e+03 -6.003474e+04 0.000000e+00 0.000000e+00 0.000000e+00 0.000000e+00
-7.447403e+04 6.094174e+02 0.000000e+00 6.094174e+02 -5.963570e+04 0.000000e+00 0.000000e+00 0.000000e+00 0.000000e+00
-7.480864e+04 -7.476930e+01 0.000000e+00 -7.476930e+01 -5.947634e+04 0.000000e+00 0.000000e+00 0.000000e+00 0.000000e+00
-7.472420e+04 -5.384637e+02 0.000000e+00 -5.384637e+02 -5.951364e+04 0.000000e+00 0.000000e+00 0.000000e+00 0.000000e+00
-7.440031e+04 -7.110298e+02 0.000000e+00 -7.110298e+02 -5.966964e+04 0.000000e+00 0.000000e+00 0.000000e+00 0.000000e+00
-7.404985e+04 -5.235756e+02 0.000000e+00 -5.235756e+02 -5.984774e+04 0.000000e+00 0.000000e+00 0.000000e+00 0.000000e+00
-7.388062e+04 -3.132186e+02 0.000000e+00 -3.132186e+02 -5.992686e+04 0.000000e+00 0.000000e+00 0.000000e+00 0.000000e+00
-6.257882e+04 2.779512e+03 0.000000e+00 2.779512e+03 -6.279991e+04 0.000000e+00 0.000000e+00 0.000000e+00 0.000000e+00
-6.531285e+04 2.589752e+03 0.000000e+00 2.589752e+03 -6.246111e+04 0.000000e+00 0.000000e+00 0.000000e+00 0.000000e+00
-6.860296e+04 2.080921e+03 0.000000e+00 2.080921e+03 -6.130572e+04 0.000000e+00 0.000000e+00 0.000000e+00 0.000000e+00
-7.108659e+04 1.490964e+03 0.000000e+00 1.490964e+03 -6.042100e+04 0.000000e+00 0.000000e+00 0.000000e+00 0.000000e+00
-7.275024e+04 8.898672e+02 0.000000e+00 8.898672e+02 -5.983498e+04 0.000000e+00 0.000000e+00 0.000000e+00 0.000000e+00
-7.376063e+04 3.506461e+02 0.000000e+00 3.506461e+02 -5.951053e+04 0.000000e+00 0.000000e+00 0.000000e+00 0.000000e+00
-7.426621e+04 -9.054139e+01 0.000000e+00 -9.054139e+01 -5.942099e+04 0.000000e+00 0.000000e+00 0.000000e+00 0.000000e+00
-7.442420e+04 -3.795502e+02 0.000000e+00 -3.795502e+02 -5.949938e+04 0.000000e+00 0.000000e+00 0.000000e+00 0.000000e+00
-7.440487e+04 -4.754601e+02 0.000000e+00 -4.754601e+02 -5.967882e+04 0.000000e+00 0.000000e+00 0.000000e+00 0.000000e+00
-7.440341e+04 -3.404554e+02 0.000000e+00 -3.404554e+02 -5.985868e+04 0.000000e+00 0.000000e+00 0.000000e+00 0.000000e+00
-7.449188e+04 -1.997066e+02 0.000000e+00 -1.997066e+02 -5.996058e+04 0.000000e+00 0.000000e+00 0.000000e+00 0.000000e+00
-6.233659e+04 1.228720e+03 0.000000e+00 1.228720e+03 -6.238423e+04 0.000000e+00 0.000000e+00 0.000000e+00 0.000000e+00
-6.498219e+04 1.187198e+03 0.000000e+00 1.187198e+03 -6.208130e+04 0.000000e+00 0.000000e+00 0.000000e+00 0.000000e+00
-6.814341e+04 9.771392e+02 0.000000e+00 9.771392e+02 -6.103202e+04 0.000000e+00 0.000000e+00 0.000000e+00 0.000000e+00
-7.057702e+04 7.126746e+02 0.000000e+00 7.126746e+02 -6.023693e+04 0.000000e+00 0.000000e+00 0.000000e+00 0.000000e+00
-7.226544e+04 4.221828e+02 0.000000e+00 4.221828e+02 -5.972803e+04 0.000000e+00 0.000000e+00 0.000000e+00 0.000000e+00
-7.334197e+04 1.585500e+02 0.000000e+00 1.585500e+02 -5.945501e+04 0.000000e+00 0.000000e+00 0.000000e+00 0.000000e+00
-7.395327e+04 -5.704974e+01 0.000000e+00 -5.704974e+01 -5.940428e+04 0.000000e+00 0.000000e+00 0.000000e+00 0.000000e+00
-7.425950e+04 -1.952390e+02 0.000000e+00 -1.952390e+02 -5.950423e+04 0.000000e+00 0.000000e+00 0.000000e+00 0.000000e+00
-7.441921e+04 -2.373236e+02 0.000000e+00 -2.373236e+02 -5.969267e+04 0.000000e+00 0.000000e+00 0.000000e+00 0.000000e+00
-7.461530e+04 -1.663993e+02 0.000000e+00 -1.663993e+02 -5.986918e+04 0.000000e+00 0.000000e+00 0.000000e+00 0.000000e+00
-7.484230e+04 -9.666534e+01 0.000000e+00 -9.666534e+01 -5.998165e+04 0.000000e+00 0.000000e+00 0.000000e+00 0.000000e+00
-6.214635e+04 1.779338e+02 0.000000e+00 1.779338e+02 -6.192313e+04 0.000000e+00 0.000000e+00 0.000000e+00 0.000000e+00
-6.484472e+04 2.654727e+02 0.000000e+00 2.654727e+02 -6.176360e+04 0.000000e+00 0.000000e+00 0.000000e+00 0.000000e+00
-6.800176e+04 2.639047e+02 0.000000e+00 2.639047e+02 -6.090187e+04 0.000000e+00 0.000000e+00 0.000000e+00 0.000000e+00
-7.041352e+04 1.997475e+02 0.000000e+00 1.997475e+02 -6.017757e+04 0.000000e+00 0.000000e+00 0.000000e+00 0.000000e+00
-7.210471e+04 1.025938e+02 0.000000e+00 1.025938e+02 -5.969458e+04 0.000000e+00 0.000000e+00 0.000000e+00 0.000000e+00
-7.320539e+04 1.188670e+01 0.000000e+00 1.188670e+01 -5.944311e+04 0.000000e+00 0.000000e+00 0.000000e+00 0.000000e+00
-7.385122e+04 -6.358099e+01 0.000000e+00 -6.358099e+01 -5.940136e+04 0.000000e+00 0.000000e+00 0.000000e+00 0.000000e+00
-7.420683e+04 -1.128655e+02 0.000000e+00 -1.128655e+02 -5.951038e+04 0.000000e+00 0.000000e+00 0.000000e+00 0.000000e+00
-7.442745e+04 -1.284259e+02 0.000000e+00 -1.284259e+02 -5.970061e+04 0.000000e+00 0.000000e+00 0.000000e+00 0.000000e+00
-7.468709e+04 -1.013385e+02 0.000000e+00 -1.013385e+02 -5.987511e+04 0.000000e+00 0.000000e+00 0.000000e+00 0.000000e+00
-7.495457e+04 -7.474996e+01 0.000000e+00 -7.474996e+01 -5.999028e+04 0.000000e+00 0.000000e+00 0.000000e+00 0.000000e+00
</DataArray>
<DataArray Name="vol_eps" type="Float64" NumberOfComponents="1" format="ascii">
-7.213647e-03
-6.585124e-03
-6.458262e-03
-6.528100e-03
-6.877177e-03
-7.479313e-03
-8.300852e-03
-9.342015e-03
-1.056963e-02
-1.189091e-02
-1.236608e-02
-6.760057e-03
-6.194919e-03
-6.118305e-03
-6.203449e-03
-6.503680e-03
-6.995229e-03
-7.728575e-03
-8.706896e-03
-9.943321e-03
-1.138919e-02
-1.344981e-02
-5.756028e-03
-5.302218e-03
-5.247727e-03
-5.342454e-03
-5.570949e-03
-5.803734e-03
-6.136662e-03
-6.680900e-03
-7.459356e-03
-8.898529e-03
-1.171817e-02
-4.644376e-03
-4.378324e-03
-4.323319e-03
-4.239894e-03
-4.040766e-03
-3.656902e-03
-3.051426e-03
-2.276598e-03
-1.160591e-03
7.638847e-04
2.476561e-03
-3.676808e-03
-3.640686e-03
-3.720876e-03
-3.780037e-03
-3.776584e-03
-3.727764e-03
-3.579157e-03
-3.299467e-03
-2.840839e-03
-2.060383e-03
-2.652473e-04
-2.810752e-03
-2.953566e-03
-3.098805e-03
-3.169351e-03
-3.162342e-03
-3.084763e-03
-2.911345e-03
-2.603783e-03
-2.123211e-03
-1.194266e-03
1.980412e-05
-2.099700e-03
-2.365501e-03
-2.548940e-03
-2.623808e-03
-2.614922e-03
-2.528829e-03
-2.349419e-03
-2.047178e-03
-1.572726e-03
-8.414019e-04
-8.160230e-05
-1.548287e-03
-1.881000e-03
-2.083023e-03
-2.168317e-03
-2.165176e-03
-2.083780e-03
-1.914656e-03
-1.640201e-03
-1.250192e-03
-7.243477e-04
-2.356404e-04
-1.132519e-03
-1.486808e-03
-1.702354e-03
-1.796414e-03
-1.803897e-03
-1.733754e-03
-1.586455e-03
-1.363606e-03
-1.071539e-03
-7.059005e-04
-3.836230e-04
-8.437246e-04
-1.176931e-03
-1.391162e-03
-1.492030e-03
-1.509265e-03
-1.457110e-03
-1.343614e-03
-1.180821e-03
-9.749897e-04
-7.278148e-04
-5.179440e-04
-6.459701e-04
-9.401227e-04
-1.142084e-03
-1.246598e-03
-1.273090e-03
-1.242874e-03
-1.168000e-03
-1.060040e-03
-9.236954e-04
-7.654133e-04
-6.342448e-04
-5.158172e-04
-7.649256e-04
-9.508180e-04
-1.052892e-03
-1.090262e-03
-1.082308e-03
-1.042738e-03
-9.800424e-04
-8.986022e-04
-8.062735e-04
-7.312709e-04
-4.337201e-04
-6.434700e-04
-8.072901e-04
-9.047504e-04
-9.529939e-04
-9.665097e-04
-9.560292e-04
-9.279067e-04
-8.879987e-04
-8.440122e-04
-8.100074e-04
-3.810140e-04
-5.583974e-04
-7.026786e-04
-7.984620e-04
-8.553717e-04
-8.856702e-04
-8.967525e-04
-8.943328e-04
-8.848388e-04
-8.747395e-04
-8.691660e-04
-3.425688e-04
-4.971441e-04
-6.307818e-04
-7.261903e-04
-7.907328e-04
-8.328281e-04
-8.589842e-04
-8.743015e-04
-8.854433e-04
-8.973911e-04
-9.100076e-04
-3.055489e-04
-4.542493e-04
-5.855743e-04
-6.836971e-04
-7.538391e-04
-8.028794e-04
-8.380217e-04
-8.640816e-04
-8.871102e-04
-9.115093e-04
-9.339733e-04
-2.648933e-04
-4.256020e-04
-5.690284e-04
-6.705241e-04
-7.420930e-04
-7.935517e-04
-8.313059e-04
-8.610893e-04
-8.881246e-04
-9.164994e-04
-9.417987e-04
</DataArray>
</PointData>
</Piece>
</UnstructuredGrid>
</VTKFile>
