<?xml version="1.0"?>
<VTKFile type="UnstructuredGrid" version="0.1">
<UnstructuredGrid>
<FieldData>
<DataArray Name="TIME" type="Float64" format="ascii" NumberOfTuples="1">
0.000000e+00
</DataArray>
</FieldData>
<FieldData>
<DataArray Name="CYCLE" type="Int32" format="ascii" NumberOfTuples="1">
0
</DataArray>
</FieldData>
<Piece NumberOfPoints="187" NumberOfCells="160">
<Points>
<DataArray NumberOfComponents="3" type="Float64" format="ascii">
0.000000e+00 0.000000e+00 0.000000e+00
0.000000e+00 1.984613e-01 0.000000e+00
0.000000e+00 3.963475e-01 0.000000e+00
0.000000e+00 5.937951e-01 0.000000e+00
0.000000e+00 7.909092e-01 0.000000e+00
0.000000e+00 9.877792e-01 0.000000e+00
0.000000e+00 1.184506e+00 0.000000e+00
0.000000e+00 1.381207e+00 0.000000e+00
0.000000e+00 1.578064e+00 0.000000e+00
0.000000e+00 1.775375e+00 0.000000e+00
0.000000e+00 1.973000e+00 0.000000e+00
2.250000e-01 0.000000e+00 0.000000e+00
2.256597e-01 1.985748e-01 0.000000e+00
2.262635e-01 3.966428e-01 0.000000e+00
2.266840e-01 5.942815e-01 0.000000e+00
2.269416e-01 7.915785e-01 0.000000e+00
2.270518e-01 9.885942e-01 0.000000e+00
2.270138e-01 1.185392e+00 0.000000e+00
2.267699e-01 1.382056e+00 0.000000e+00
2.262520e-01 1.578719e+00 0.000000e+00
2.254063e-01 1.775522e+00 0.000000e+00
2.250000e-01 1.973000e+00 0.000000e+00
4.500000e-01 0.000000e+00 0.000000e+00
4.511750e-01 1.988055e-01 0.000000e+00
4.522132e-01 3.973350e-01 0.000000e+00
4.530082e-01 5.956033e-01 0.000000e+00
4.535645e-01 7.935855e-01 0.000000e+00
4.539247e-01 9.912235e-01 0.000000e+00
4.540831e-01 1.188506e+00 0.000000e+00
4.538963e-01 1.385402e+00 0.000000e+00
4.533290e-01 1.581805e+00 0.000000e+00
4.523443e-01 1.777627e+00 0.000000e+00
4.500000e-01 1.973000e+00 0.000000e+00
6.750000e-01 0.000000e+00 0.000000e+00
6.764649e-01 1.990710e-01 0.000000e+00
6.776570e-01 3.980763e-01 0.000000e+00
6.785895e-01 5.970768e-01 0.000000e+00
6.793149e-01 7.961041e-01 0.000000e+00
6.798763e-01 9.951926e-01 0.000000e+00
6.802993e-01 1.194386e+00 0.000000e+00
6.804283e-01 1.393726e+00 0.000000e+00
6.802114e-01 1.593254e+00 0.000000e+00
6.795125e-01 1.793152e+00 0.000000e+00
6.766053e-01 1.993725e+00 0.000000e+00
9.000000e-01 0.000000e+00 0.000000e+00
9.015546e-01 1.992952e-01 0.000000e+00
9.027138e-01 3.986157e-01 0.000000e+00
9.035890e-01 5.979894e-01 0.000000e+00
9.042462e-01 7.974288e-01 0.000000e+00
9.047176e-01 9.969528e-01 0.000000e+00
9.049931e-01 1.196600e+00 0.000000e+00
9.049823e-01 1.396401e+00 0.000000e+00
9.046055e-01 1.596385e+00 0.000000e+00
9.035304e-01 1.796579e+00 0.000000e+00
9.016179e-01 1.996551e+00 0.000000e+00
1.125000e+00 0.000000e+00 0.000000e+00
1.126513e+00 1.994934e-01 0.000000e+00
1.127578e+00 3.990499e-01 0.000000e+00
1.128364e+00 5.986735e-01 0.000000e+00
1.128938e+00 7.983676e-01 0.000000e+00
1.129314e+00 9.981493e-01 0.000000e+00
1.129474e+00 1.198036e+00 0.000000e+00
1.129365e+00 1.398039e+00 0.000000e+00
1.128904e+00 1.598155e+00 0.000000e+00
1.128018e+00 1.798289e+00 0.000000e+00
1.126834e+00 1.998334e+00 0.000000e+00
1.350000e+00 0.000000e+00 0.000000e+00
1.351386e+00 1.996465e-01 0.000000e+00
1.352336e+00 3.993732e-01 0.000000e+00
1.353035e+00 5.991659e-01 0.000000e+00
1.353527e+00 7.990274e-01 0.000000e+00
1.353823e+00 9.989624e-01 0.000000e+00
1.353913e+00 1.198977e+00 0.000000e+00
1.353763e+00 1.399067e+00 0.000000e+00
1.353350e+00 1.599203e+00 0.000000e+00
1.352693e+00 1.799325e+00 0.000000e+00
1.351944e+00 1.999356e+00 0.000000e+00
1.575000e+00 0.000000e+00 0.000000e+00
1.576209e+00 1.997624e-01 0.000000e+00
1.577046e+00 3.996055e-01 0.000000e+00
1.577658e+00 5.995111e-01 0.000000e+00
1.578080e+00 7.994754e-01 0.000000e+00
1.578319e+00 9.994993e-01 0.000000e+00
1.578371e+00 1.199580e+00 0.000000e+00
1.578228e+00 1.399706e+00 0.000000e+00
1.577901e+00 1.599847e+00 0.000000e+00
1.577443e+00 1.799954e+00 0.000000e+00
1.576969e+00 1.999996e+00 0.000000e+00
1.800000e+00 0.000000e+00 0.000000e+00
1.801015e+00 1.998419e-01 0.000000e+00
1.801741e+00 3.997607e-01 0.000000e+00
1.802273e+00 5.997357e-01 0.000000e+00
1.802633e+00 7.997628e-01 0.000000e+00
1.802831e+00 9.998388e-01 0.000000e+00
1.802868e+00 1.199956e+00 0.000000e+00
1.802756e+00 1.400095e+00 0.000000e+00
1.802519e+00 1.600230e+00 0.000000e+00
1.802211e+00 1.800332e+00 0.000000e+00
1.801921e+00 2.000384e+00 0.000000e+00
2.025000e+00 0.000000e+00 0.000000e+00
2.025829e+00 1.998931e-01 0.000000e+00
2.026446e+00 3.998577e-01 0.000000e+00
2.026901e+00 5.998753e-01 0.000000e+00
2.027205e+00 7.999403e-01 0.000000e+00
2.027373e+00 1.000044e+00 0.000000e+00
2.027411e+00 1.200175e+00 0.000000e+00
2.027335e+00 1.400315e+00 0.000000e+00
2.027174e+00 1.600445e+00 0.000000e+00
2.026977e+00 1.800546e+00 0.000000e+00
2.026810e+00 2.000610e+00 0.000000e+00
2.250000e+00 0.000000e+00 0.000000e+00
2.250659e+00 1.999242e-01 0.000000e+00
2.251172e+00 3.999150e-01 0.000000e+00
2.251551e+00 5.999569e-01 0.000000e+00
2.251808e+00 8.000404e-01 0.000000e+00
2.251952e+00 1.000155e+00 0.000000e+00
2.251995e+00 1.200289e+00 0.000000e+00
2.251951e+00 1.400426e+00 0.000000e+00
2.251850e+00 1.600551e+00 0.000000e+00
2.251732e+00 1.800653e+00 0.000000e+00
2.251646e+00 2.000728e+00 0.000000e+00
2.475000e+00 0.000000e+00 0.000000e+00
2.475513e+00 1.999433e-01 0.000000e+00
2.475924e+00 3.999476e-01 0.000000e+00
2.476233e+00 5.999994e-01 0.000000e+00
2.476445e+00 8.000894e-01 0.000000e+00
2.476569e+00 1.000206e+00 0.000000e+00
2.476613e+00 1.200338e+00 0.000000e+00
2.476593e+00 1.400470e+00 0.000000e+00
2.476536e+00 1.600592e+00 0.000000e+00
2.476471e+00 1.800696e+00 0.000000e+00
2.476437e+00 2.000781e+00 0.000000e+00
2.700000e+00 0.000000e+00 0.000000e+00
2.700386e+00 1.999532e-01 0.000000e+00
2.700704e+00 3.999628e-01 0.000000e+00
2.700946e+00 6.000184e-01 0.000000e+00
2.701115e+00 8.001089e-01 0.000000e+00
2.701217e+00 1.000223e+00 0.000000e+00
2.701259e+00 1.200350e+00 0.000000e+00
2.701256e+00 1.400477e+00 0.000000e+00
2.701227e+00 1.600596e+00 0.000000e+00
2.701197e+00 1.800702e+00 0.000000e+00
2.701191e+00 2.000796e+00 0.000000e+00
2.925000e+00 0.000000e+00 0.000000e+00
2.925275e+00 1.999595e-01 0.000000e+00
2.925507e+00 3.999715e-01 0.000000e+00
2.925686e+00 6.000267e-01 0.000000e+00
2.925812e+00 8.001149e-01 0.000000e+00
2.925890e+00 1.000225e+00 0.000000e+00
2.925926e+00 1.200347e+00 0.000000e+00
2.925931e+00 1.400470e+00 0.000000e+00
2.925920e+00 1.600587e+00 0.000000e+00
2.925909e+00 1.800694e+00 0.000000e+00
2.925918e+00 2.000795e+00 0.000000e+00
3.150000e+00 0.000000e+00 0.000000e+00
3.150178e+00 1.999638e-01 0.000000e+00
3.150329e+00 3.999767e-01 0.000000e+00
3.150447e+00 6.000319e-01 0.000000e+00
3.150531e+00 8.001180e-01 0.000000e+00
3.150583e+00 1.000225e+00 0.000000e+00
3.150609e+00 1.200343e+00 0.000000e+00
3.150616e+00 1.400462e+00 0.000000e+00
3.150613e+00 1.600577e+00 0.000000e+00
3.150611e+00 1.800686e+00 0.000000e+00
3.150623e+00 2.000792e+00 0.000000e+00
3.375000e+00 0.000000e+00 0.000000e+00
3.375089e+00 1.999689e-01 0.000000e+00
3.375162e+00 3.999858e-01 0.000000e+00
3.375220e+00 6.000418e-01 0.000000e+00
3.375262e+00 8.001267e-01 0.000000e+00
3.375289e+00 1.000232e+00 0.000000e+00
3.375302e+00 1.200347e+00 0.000000e+00
3.375307e+00 1.400464e+00 0.000000e+00
3.375307e+00 1.600578e+00 0.000000e+00
3.375307e+00 1.800688e+00 0.000000e+00
3.375314e+00 2.000796e+00 0.000000e+00
3.600000e+00 0.000000e+00 0.000000e+00
3.600000e+00 1.999840e-01 0.000000e+00
3.600000e+00 4.000053e-01 0.000000e+00
3.600000e+00 6.000615e-01 0.000000e+00
3.600000e+00 8.001461e-01 0.000000e+00
3.600000e+00 1.000250e+00 0.000000e+00
3.600000e+00 1.200364e+00 0.000000e+00
3.600000e+00 1.400480e+00 0.000000e+00
3.600000e+00 1.600594e+00 0.000000e+00
3.600000e+00 1.800704e+00 0.000000e+00
3.600000e+00 2.000813e+00 0.000000e+00
</DataArray>
</Points>
<Cells>
<DataArray Name="connectivity" type="Int32" format="ascii">
0 11 12 1
1 12 13 2
2 13 14 3
3 14 15 4
4 15 16 5
5 16 17 6
6 17 18 7
7 18 19 8
8 19 20 9
9 20 21 10
11 22 23 12
12 23 24 13
13 24 25 14
14 25 26 15
15 26 27 16
16 27 28 17
17 28 29 18
18 29 30 19
19 30 31 20
20 31 32 21
22 33 34 23
23 34 35 24
24 35 36 25
25 36 37 26
26 37 38 27
27 38 39 28
28 39 40 29
29 40 41 30
30 41 42 31
31 42 43 32
33 44 45 34
34 45 46 35
35 46 47 36
36 47 48 37
37 48 49 38
38 49 50 39
39 50 51 40
40 51 52 41
41 52 53 42
42 53 54 43
44 55 56 45
45 56 57 46
46 57 58 47
47 58 59 48
48 59 60 49
49 60 61 50
50 61 62 51
51 62 63 52
52 63 64 53
53 64 65 54
55 66 67 56
56 67 68 57
57 68 69 58
58 69 70 59
59 70 71 60
60 71 72 61
61 72 73 62
62 73 74 63
63 74 75 64
64 75 76 65
66 77 78 67
67 78 79 68
68 79 80 69
69 80 81 70
70 81 82 71
71 82 83 72
72 83 84 73
73 84 85 74
74 85 86 75
75 86 87 76
77 88 89 78
78 89 90 79
79 90 91 80
80 91 92 81
81 92 93 82
82 93 94 83
83 94 95 84
84 95 96 85
85 96 97 86
86 97 98 87
88 99 100 89
89 100 101 90
90 101 102 91
91 102 103 92
92 103 104 93
93 104 105 94
94 105 106 95
95 106 107 96
96 107 108 97
97 108 109 98
99 110 111 100
100 111 112 101
101 112 113 102
102 113 114 103
103 114 115 104
104 115 116 105
105 116 117 106
106 117 118 107
107 118 119 108
108 119 120 109
110 121 122 111
111 122 123 112
112 123 124 113
113 124 125 114
114 125 126 115
115 126 127 116
116 127 128 117
117 128 129 118
118 129 130 119
119 130 131 120
121 132 133 122
122 133 134 123
123 134 135 124
124 135 136 125
125 136 137 126
126 137 138 127
127 138 139 128
128 139 140 129
129 140 141 130
130 141 142 131
132 143 144 133
133 144 145 134
134 145 146 135
135 146 147 136
136 147 148 137
137 148 149 138
138 149 150 139
139 150 151 140
140 151 152 141
141 152 153 142
143 154 155 144
144 155 156 145
145 156 157 146
146 157 158 147
147 158 159 148
148 159 160 149
149 160 161 150
150 161 162 151
151 162 163 152
152 163 164 153
154 165 166 155
155 166 167 156
156 167 168 157
157 168 169 158
158 169 170 159
159 170 171 160
160 171 172 161
161 172 173 162
162 173 174 163
163 174 175 164
165 176 177 166
166 177 178 167
167 178 179 168
168 179 180 169
169 180 181 170
170 181 182 171
171 182 183 172
172 183 184 173
173 184 185 174
174 185 186 175
</DataArray>
<DataArray Name="offsets" type="Int32" format="ascii">
4
8
12
16
20
24
28
32
36
40
44
48
52
56
60
64
68
72
76
80
84
88
92
96
100
104
108
112
116
120
124
128
132
136
140
144
148
152
156
160
164
168
172
176
180
184
188
192
196
200
204
208
212
216
220
224
228
232
236
240
244
248
252
256
260
264
268
272
276
280
284
288
292
296
300
304
308
312
316
320
324
328
332
336
340
344
348
352
356
360
364
368
372
376
380
384
388
392
396
400
404
408
412
416
420
424
428
432
436
440
444
448
452
456
460
464
468
472
476
480
484
488
492
496
500
504
508
512
516
520
524
528
532
536
540
544
548
552
556
560
564
568
572
576
580
584
588
592
596
600
604
608
612
616
620
624
628
632
636
640
</DataArray>
<DataArray Name="types" type="UInt8" format="ascii">
9
9
9
9
9
9
9
9
9
9
9
9
9
9
9
9
9
9
9
9
9
9
9
9
9
9
9
9
9
9
9
9
9
9
9
9
9
9
9
9
9
9
9
9
9
9
9
9
9
9
9
9
9
9
9
9
9
9
9
9
9
9
9
9
9
9
9
9
9
9
9
9
9
9
9
9
9
9
9
9
9
9
9
9
9
9
9
9
9
9
9
9
9
9
9
9
9
9
9
9
9
9
9
9
9
9
9
9
9
9
9
9
9
9
9
9
9
9
9
9
9
9
9
9
9
9
9
9
9
9
9
9
9
9
9
9
9
9
9
9
9
9
9
9
9
9
9
9
9
9
9
9
9
9
9
9
9
9
9
9
</DataArray>
</Cells>
<PointData>
<DataArray Name="disp" type="Float64" NumberOfComponents="3" format="ascii">
0.000000e+00 0.000000e+00 0.000000e+00
0.000000e+00 -1.538665e-03 0.000000e+00
0.000000e+00 -3.652491e-03 0.000000e+00
0.000000e+00 -6.204905e-03 0.000000e+00
0.000000e+00 -9.090782e-03 0.000000e+00
0.000000e+00 -1.222083e-02 0.000000e+00
0.000000e+00 -1.549360e-02 0.000000e+00
0.000000e+00 -1.879302e-02 0.000000e+00
0.000000e+00 -2.193622e-02 0.000000e+00
0.000000e+00 -2.462539e-02 0.000000e+00
0.000000e+00 -2.700000e-02 0.000000e+00
0.000000e+00 0.000000e+00 0.000000e+00
6.597032e-04 -1.425236e-03 0.000000e+00
1.263467e-03 -3.357212e-03 0.000000e+00
1.683965e-03 -5.718502e-03 0.000000e+00
1.941648e-03 -8.421510e-03 0.000000e+00
2.051828e-03 -1.140581e-02 0.000000e+00
2.013843e-03 -1.460827e-02 0.000000e+00
1.769864e-03 -1.794404e-02 0.000000e+00
1.251993e-03 -2.128121e-02 0.000000e+00
4.062857e-04 -2.447833e-02 0.000000e+00
0.000000e+00 -2.700000e-02 0.000000e+00
0.000000e+00 0.000000e+00 0.000000e+00
1.175031e-03 -1.194488e-03 0.000000e+00
2.213217e-03 -2.664984e-03 0.000000e+00
3.008243e-03 -4.396679e-03 0.000000e+00
3.564503e-03 -6.414487e-03 0.000000e+00
3.924666e-03 -8.776460e-03 0.000000e+00
4.083104e-03 -1.149386e-02 0.000000e+00
3.896317e-03 -1.459757e-02 0.000000e+00
3.328983e-03 -1.819457e-02 0.000000e+00
2.344274e-03 -2.237256e-02 0.000000e+00
0.000000e+00 -2.700000e-02 0.000000e+00
0.000000e+00 0.000000e+00 0.000000e+00
1.464871e-03 -9.290056e-04 0.000000e+00
2.656995e-03 -1.923745e-03 0.000000e+00
3.589503e-03 -2.923188e-03 0.000000e+00
4.314861e-03 -3.895915e-03 0.000000e+00
4.876242e-03 -4.807326e-03 0.000000e+00
5.299299e-03 -5.614405e-03 0.000000e+00
5.428260e-03 -6.274271e-03 0.000000e+00
5.211413e-03 -6.745681e-03 0.000000e+00
4.512475e-03 -6.848324e-03 0.000000e+00
1.605293e-03 -6.275283e-03 0.000000e+00
0.000000e+00 0.000000e+00 0.000000e+00
1.554591e-03 -7.047876e-04 0.000000e+00
2.713757e-03 -1.384285e-03 0.000000e+00
3.589018e-03 -2.010643e-03 0.000000e+00
4.246166e-03 -2.571125e-03 0.000000e+00
4.717597e-03 -3.047206e-03 0.000000e+00
4.993101e-03 -3.400255e-03 0.000000e+00
4.982304e-03 -3.599161e-03 0.000000e+00
4.605503e-03 -3.615086e-03 0.000000e+00
3.530392e-03 -3.421414e-03 0.000000e+00
1.617906e-03 -3.448855e-03 0.000000e+00
0.000000e+00 0.000000e+00 0.000000e+00
1.512826e-03 -5.066020e-04 0.000000e+00
2.578401e-03 -9.501164e-04 0.000000e+00
3.364248e-03 -1.326463e-03 0.000000e+00
3.938372e-03 -1.632400e-03 0.000000e+00
4.314207e-03 -1.850711e-03 0.000000e+00
4.474218e-03 -1.963730e-03 0.000000e+00
4.364606e-03 -1.960708e-03 0.000000e+00
3.903654e-03 -1.845182e-03 0.000000e+00
3.017652e-03 -1.710708e-03 0.000000e+00
1.834233e-03 -1.665551e-03 0.000000e+00
0.000000e+00 0.000000e+00 0.000000e+00
1.385686e-03 -3.535344e-04 0.000000e+00
2.336243e-03 -6.268401e-04 0.000000e+00
3.035123e-03 -8.340605e-04 0.000000e+00
3.527353e-03 -9.726093e-04 0.000000e+00
3.823257e-03 -1.037614e-03 0.000000e+00
3.912944e-03 -1.022737e-03 0.000000e+00
3.763434e-03 -9.332810e-04 0.000000e+00
3.349535e-03 -7.967668e-04 0.000000e+00
2.693372e-03 -6.746379e-04 0.000000e+00
1.943832e-03 -6.439100e-04 0.000000e+00
0.000000e+00 0.000000e+00 0.000000e+00
1.208698e-03 -2.375543e-04 0.000000e+00
2.046403e-03 -3.944537e-04 0.000000e+00
2.657982e-03 -4.888879e-04 0.000000e+00
3.079883e-03 -5.246272e-04 0.000000e+00
3.318951e-03 -5.006915e-04 0.000000e+00
3.371291e-03 -4.200671e-04 0.000000e+00
3.227856e-03 -2.936878e-04 0.000000e+00
2.901326e-03 -1.529858e-04 0.000000e+00
2.442902e-03 -4.567175e-05 0.000000e+00
1.968614e-03 -3.881358e-06 0.000000e+00
0.000000e+00 0.000000e+00 0.000000e+00
1.015343e-03 -1.580749e-04 0.000000e+00
1.741463e-03 -2.393247e-04 0.000000e+00
2.273264e-03 -2.642529e-04 0.000000e+00
2.633312e-03 -2.372323e-04 0.000000e+00
2.830935e-03 -1.611850e-04 0.000000e+00
2.868412e-03 -4.430849e-05 0.000000e+00
2.755931e-03 9.522027e-05 0.000000e+00
2.519489e-03 2.299583e-04 0.000000e+00
2.211304e-03 3.321719e-04 0.000000e+00
1.920509e-03 3.841241e-04 0.000000e+00
0.000000e+00 0.000000e+00 0.000000e+00
8.287823e-04 -1.068843e-04 0.000000e+00
1.445535e-03 -1.422686e-04 0.000000e+00
1.900708e-03 -1.247519e-04 0.000000e+00
2.205392e-03 -5.973101e-05 0.000000e+00
2.372715e-03 4.447385e-05 0.000000e+00
2.410585e-03 1.750594e-04 0.000000e+00
2.335408e-03 3.149662e-04 0.000000e+00
2.174543e-03 4.447366e-04 0.000000e+00
1.977259e-03 5.458024e-04 0.000000e+00
1.809796e-03 6.098353e-04 0.000000e+00
0.000000e+00 0.000000e+00 0.000000e+00
6.594656e-04 -7.584597e-05 0.000000e+00
1.172056e-03 -8.494980e-05 0.000000e+00
1.551391e-03 -4.305719e-05 0.000000e+00
1.808473e-03 4.037532e-05 0.000000e+00
1.952523e-03 1.551415e-04 0.000000e+00
1.994761e-03 2.887435e-04 0.000000e+00
1.951177e-03 4.259591e-04 0.000000e+00
1.849960e-03 5.514589e-04 0.000000e+00
1.731554e-03 6.534301e-04 0.000000e+00
1.646074e-03 7.283876e-04 0.000000e+00
0.000000e+00 0.000000e+00 0.000000e+00
5.124960e-04 -5.672127e-05 0.000000e+00
9.240334e-04 -5.243814e-05 0.000000e+00
1.233093e-03 -6.277969e-07 0.000000e+00
1.445526e-03 8.940981e-05 0.000000e+00
1.568751e-03 2.063545e-04 0.000000e+00
1.612855e-03 3.377013e-04 0.000000e+00
1.593544e-03 4.700053e-04 0.000000e+00
1.535951e-03 5.918490e-04 0.000000e+00
1.471359e-03 6.956909e-04 0.000000e+00
1.437054e-03 7.806484e-04 0.000000e+00
0.000000e+00 0.000000e+00 0.000000e+00
3.854583e-04 -4.684024e-05 0.000000e+00
7.036029e-04 -3.720632e-05 0.000000e+00
9.462981e-04 1.842071e-05 0.000000e+00
1.115091e-03 1.088521e-04 0.000000e+00
1.216628e-03 2.233215e-04 0.000000e+00
1.258802e-03 3.499056e-04 0.000000e+00
1.255459e-03 4.773028e-04 0.000000e+00
1.226882e-03 5.962481e-04 0.000000e+00
1.196556e-03 7.022410e-04 0.000000e+00
1.191533e-03 7.958688e-04 0.000000e+00
0.000000e+00 0.000000e+00 0.000000e+00
2.750820e-04 -4.052029e-05 0.000000e+00
5.071216e-04 -2.854831e-05 0.000000e+00
6.860913e-04 2.664677e-05 0.000000e+00
8.124138e-04 1.148592e-04 0.000000e+00
8.902720e-04 2.252868e-04 0.000000e+00
9.261215e-04 3.468262e-04 0.000000e+00
9.310614e-04 4.696341e-04 0.000000e+00
9.197161e-04 5.865081e-04 0.000000e+00
9.089180e-04 6.942590e-04 0.000000e+00
9.175121e-04 7.948051e-04 0.000000e+00
0.000000e+00 0.000000e+00 0.000000e+00
1.779058e-04 -3.620526e-05 0.000000e+00
3.293661e-04 -2.326450e-05 0.000000e+00
4.465939e-04 3.190602e-05 0.000000e+00
5.304999e-04 1.180263e-04 0.000000e+00
5.832681e-04 2.250754e-04 0.000000e+00
6.092054e-04 3.425342e-04 0.000000e+00
6.158630e-04 4.618762e-04 0.000000e+00
6.131343e-04 5.773143e-04 0.000000e+00
6.114765e-04 6.864616e-04 0.000000e+00
6.226524e-04 7.917713e-04 0.000000e+00
0.000000e+00 0.000000e+00 0.000000e+00
8.920708e-05 -3.111773e-05 0.000000e+00
1.622999e-04 -1.422492e-05 0.000000e+00
2.203560e-04 4.181112e-05 0.000000e+00
2.619572e-04 1.266539e-04 0.000000e+00
2.886358e-04 2.316178e-04 0.000000e+00
3.022440e-04 3.466569e-04 0.000000e+00
3.065215e-04 4.637249e-04 0.000000e+00
3.065799e-04 5.781288e-04 0.000000e+00
3.074149e-04 6.881332e-04 0.000000e+00
3.144743e-04 7.960842e-04 0.000000e+00
0.000000e+00 0.000000e+00 0.000000e+00
0.000000e+00 -1.595411e-05 0.000000e+00
0.000000e+00 5.260037e-06 0.000000e+00
0.000000e+00 6.156309e-05 0.000000e+00
0.000000e+00 1.460900e-04 0.000000e+00
0.000000e+00 2.501575e-04 0.000000e+00
0.000000e+00 3.640835e-04 0.000000e+00
0.000000e+00 4.803326e-04 0.000000e+00
0.000000e+00 5.942694e-04 0.000000e+00
0.000000e+00 7.044473e-04 0.000000e+00
0.000000e+00 8.132081e-04 0.000000e+00
</DataArray>
<DataArray Name="shear" type="Float64" NumberOfComponents="1" format="ascii">
8.603089e-03
1.191906e-02
1.702219e-02
2.088596e-02
2.358380e-02
2.518328e-02
2.555354e-02
2.425370e-02
2.064441e-02
1.541934e-02
1.279929e-02
8.639278e-03
1.150444e-02
1.602219e-02
1.977021e-02
2.279818e-02
2.510333e-02
2.643059e-02
2.631477e-02
2.443793e-02
2.016203e-02
1.615834e-02
8.938228e-03
1.066437e-02
1.348622e-02
1.650614e-02
2.006919e-02
2.422458e-02
2.867482e-02
3.328025e-02
3.806015e-02
4.046456e-02
4.037479e-02
9.032082e-03
9.552287e-03
1.029475e-02
1.152889e-02
1.360801e-02
1.667915e-02
2.050622e-02
2.513185e-02
3.069865e-02
3.404872e-02
3.611754e-02
8.761912e-03
8.486351e-03
7.915311e-03
7.828261e-03
8.087051e-03
8.513433e-03
8.804500e-03
8.785727e-03
7.999484e-03
4.928874e-03
1.457582e-03
8.143287e-03
7.496036e-03
6.448497e-03
6.051166e-03
5.941609e-03
5.919098e-03
5.789185e-03
5.363387e-03
4.322503e-03
2.194460e-03
2.891260e-04
7.267962e-03
6.504923e-03
5.365441e-03
4.888655e-03
4.639167e-03
4.459237e-03
4.218004e-03
3.779849e-03
2.957623e-03
1.568221e-03
4.423970e-04
6.252280e-03
5.554453e-03
4.534551e-03
4.074772e-03
3.807080e-03
3.613279e-03
3.399077e-03
3.048514e-03
2.419874e-03
1.413484e-03
6.261507e-04
5.210113e-03
4.651222e-03
3.845905e-03
3.461807e-03
3.254285e-03
3.118493e-03
2.957170e-03
2.670569e-03
2.175689e-03
1.422249e-03
8.561297e-04
4.231154e-03
3.822280e-03
3.248759e-03
2.980845e-03
2.859617e-03
2.785289e-03
2.667435e-03
2.441826e-03
2.056237e-03
1.490226e-03
1.088364e-03
3.357957e-03
3.081355e-03
2.716055e-03
2.571468e-03
2.537315e-03
2.522023e-03
2.454741e-03
2.288363e-03
1.992275e-03
1.578740e-03
1.304292e-03
2.602816e-03
2.423695e-03
2.233050e-03
2.210874e-03
2.265224e-03
2.308793e-03
2.287728e-03
2.172378e-03
1.956292e-03
1.670622e-03
1.494750e-03
1.954565e-03
1.848557e-03
1.807967e-03
1.904570e-03
2.038577e-03
2.134120e-03
2.152844e-03
2.083028e-03
1.937081e-03
1.755521e-03
1.653637e-03
1.395439e-03
1.349539e-03
1.446887e-03
1.656750e-03
1.860223e-03
1.997306e-03
2.048003e-03
2.016920e-03
1.927990e-03
1.825748e-03
1.777830e-03
9.046832e-04
9.154116e-04
1.162036e-03
1.476755e-03
1.734457e-03
1.900979e-03
1.973900e-03
1.971765e-03
1.924858e-03
1.877310e-03
1.865054e-03
4.609113e-04
5.715320e-04
9.829795e-04
1.369534e-03
1.659706e-03
1.844476e-03
1.930938e-03
1.946010e-03
1.925001e-03
1.909052e-03
1.915968e-03
1.732885e-04
4.283057e-04
9.208276e-04
1.330637e-03
1.632491e-03
1.824115e-03
1.916373e-03
1.938007e-03
1.925800e-03
1.919826e-03
1.932378e-03
</DataArray>
<DataArray Name="stress" type="Float64" NumberOfComponents="9" format="ascii">
-8.695681e+04 2.977863e+03 0.000000e+00 2.977863e+03 -1.347537e+05 0.000000e+00 0.000000e+00 0.000000e+00 0.000000e+00
-8.066088e+04 3.105990e+03 0.000000e+00 3.105990e+03 -1.348152e+05 0.000000e+00 0.000000e+00 0.000000e+00 0.000000e+00
-7.804672e+04 3.486231e+03 0.000000e+00 3.486231e+03 -1.417037e+05 0.000000e+00 0.000000e+00 0.000000e+00 0.000000e+00
-7.738792e+04 4.072088e+03 0.000000e+00 4.072088e+03 -1.494775e+05 0.000000e+00 0.000000e+00 0.000000e+00 0.000000e+00
-7.912405e+04 4.497683e+03 0.000000e+00 4.497683e+03 -1.574511e+05 0.000000e+00 0.000000e+00 0.000000e+00 0.000000e+00
-8.226408e+04 4.742360e+03 0.000000e+00 4.742360e+03 -1.656772e+05 0.000000e+00 0.000000e+00 0.000000e+00 0.000000e+00
-8.624020e+04 4.717114e+03 0.000000e+00 4.717114e+03 -1.735534e+05 0.000000e+00 0.000000e+00 0.000000e+00 0.000000e+00
-9.138157e+04 4.139506e+03 0.000000e+00 4.139506e+03 -1.804311e+05 0.000000e+00 0.000000e+00 0.000000e+00 0.000000e+00
-9.869884e+04 2.221235e+03 0.000000e+00 2.221235e+03 -1.844219e+05 0.000000e+00 0.000000e+00 0.000000e+00 0.000000e+00
-1.091788e+05 -5.715771e+02 0.000000e+00 -5.715771e+02 -1.858560e+05 0.000000e+00 0.000000e+00 0.000000e+00 0.000000e+00
-1.150121e+05 -1.431312e+03 0.000000e+00 -1.431312e+03 -1.854052e+05 0.000000e+00 0.000000e+00 0.000000e+00 0.000000e+00
-8.611709e+04 8.444296e+03 0.000000e+00 8.444296e+03 -1.297338e+05 0.000000e+00 0.000000e+00 0.000000e+00 0.000000e+00
-8.036991e+04 8.082716e+03 0.000000e+00 8.082716e+03 -1.297539e+05 0.000000e+00 0.000000e+00 0.000000e+00 0.000000e+00
-7.822763e+04 8.167019e+03 0.000000e+00 8.167019e+03 -1.360344e+05 0.000000e+00 0.000000e+00 0.000000e+00 0.000000e+00
-7.790987e+04 8.704428e+03 0.000000e+00 8.704428e+03 -1.430453e+05 0.000000e+00 0.000000e+00 0.000000e+00 0.000000e+00
-7.975892e+04 9.226616e+03 0.000000e+00 9.226616e+03 -1.504498e+05 0.000000e+00 0.000000e+00 0.000000e+00 0.000000e+00
-8.291030e+04 9.646456e+03 0.000000e+00 9.646456e+03 -1.585400e+05 0.000000e+00 0.000000e+00 0.000000e+00 0.000000e+00
-8.660834e+04 9.597849e+03 0.000000e+00 9.597849e+03 -1.669876e+05 0.000000e+00 0.000000e+00 0.000000e+00 0.000000e+00
-9.118313e+04 8.728568e+03 0.000000e+00 8.728568e+03 -1.759814e+05 0.000000e+00 0.000000e+00 0.000000e+00 0.000000e+00
-9.688455e+04 5.816134e+03 0.000000e+00 5.816134e+03 -1.850006e+05 0.000000e+00 0.000000e+00 0.000000e+00 0.000000e+00
-1.046186e+05 6.456552e+02 0.000000e+00 6.456552e+02 -1.902209e+05 0.000000e+00 0.000000e+00 0.000000e+00 0.000000e+00
-1.181602e+05 -4.351544e+03 0.000000e+00 -4.351544e+03 -1.999721e+05 0.000000e+00 0.000000e+00 0.000000e+00 0.000000e+00
-8.416442e+04 1.422067e+04 0.000000e+00 1.422067e+04 -1.190038e+05 0.000000e+00 0.000000e+00 0.000000e+00 0.000000e+00
-7.972483e+04 1.385356e+04 0.000000e+00 1.385356e+04 -1.185021e+05 0.000000e+00 0.000000e+00 0.000000e+00 0.000000e+00
-7.822662e+04 1.420869e+04 0.000000e+00 1.420869e+04 -1.221696e+05 0.000000e+00 0.000000e+00 0.000000e+00 0.000000e+00
-7.884917e+04 1.553812e+04 0.000000e+00 1.553812e+04 -1.263679e+05 0.000000e+00 0.000000e+00 0.000000e+00 0.000000e+00
-8.152935e+04 1.738377e+04 0.000000e+00 1.738377e+04 -1.316701e+05 0.000000e+00 0.000000e+00 0.000000e+00 0.000000e+00
-8.586380e+04 1.924973e+04 0.000000e+00 1.924973e+04 -1.380495e+05 0.000000e+00 0.000000e+00 0.000000e+00 0.000000e+00
-9.075284e+04 2.084642e+04 0.000000e+00 2.084642e+04 -1.460233e+05 0.000000e+00 0.000000e+00 0.000000e+00 0.000000e+00
-9.694877e+04 2.210706e+04 0.000000e+00 2.210706e+04 -1.560445e+05 0.000000e+00 0.000000e+00 0.000000e+00 0.000000e+00
-1.034316e+05 2.154429e+04 0.000000e+00 2.154429e+04 -1.678594e+05 0.000000e+00 0.000000e+00 0.000000e+00 0.000000e+00
-1.138581e+05 1.729235e+04 0.000000e+00 1.729235e+04 -1.836367e+05 0.000000e+00 0.000000e+00 0.000000e+00 0.000000e+00
-1.352521e+05 1.424199e+04 0.000000e+00 1.424199e+04 -2.049878e+05 0.000000e+00 0.000000e+00 0.000000e+00 0.000000e+00
-8.146602e+04 1.656948e+04 0.000000e+00 1.656948e+04 -1.073581e+05 0.000000e+00 0.000000e+00 0.000000e+00 0.000000e+00
-7.898186e+04 1.618152e+04 0.000000e+00 1.618152e+04 -1.066151e+05 0.000000e+00 0.000000e+00 0.000000e+00 0.000000e+00
-7.840346e+04 1.637060e+04 0.000000e+00 1.637060e+04 -1.074311e+05 0.000000e+00 0.000000e+00 0.000000e+00 0.000000e+00
-7.914141e+04 1.767007e+04 0.000000e+00 1.767007e+04 -1.073454e+05 0.000000e+00 0.000000e+00 0.000000e+00 0.000000e+00
-8.053476e+04 1.937067e+04 0.000000e+00 1.937067e+04 -1.061449e+05 0.000000e+00 0.000000e+00 0.000000e+00 0.000000e+00
-8.244741e+04 2.064299e+04 0.000000e+00 2.064299e+04 -1.039711e+05 0.000000e+00 0.000000e+00 0.000000e+00 0.000000e+00
-8.444774e+04 2.184425e+04 0.000000e+00 2.184425e+04 -1.011114e+05 0.000000e+00 0.000000e+00 0.000000e+00 0.000000e+00
-8.570332e+04 2.214523e+04 0.000000e+00 2.214523e+04 -9.632134e+04 0.000000e+00 0.000000e+00 0.000000e+00 0.000000e+00
-8.594241e+04 2.160353e+04 0.000000e+00 2.160353e+04 -8.976635e+04 0.000000e+00 0.000000e+00 0.000000e+00 0.000000e+00
-8.409274e+04 1.776430e+04 0.000000e+00 1.776430e+04 -7.940594e+04 0.000000e+00 0.000000e+00 0.000000e+00 0.000000e+00
-7.764886e+04 1.469082e+04 0.000000e+00 1.469082e+04 -7.282440e+04 0.000000e+00 0.000000e+00 0.000000e+00 0.000000e+00
-7.849280e+04 1.694504e+04 0.000000e+00 1.694504e+04 -9.708372e+04 0.000000e+00 0.000000e+00 0.000000e+00 0.000000e+00
-7.813289e+04 1.649821e+04 0.000000e+00 1.649821e+04 -9.661148e+04 0.000000e+00 0.000000e+00 0.000000e+00 0.000000e+00
-7.921791e+04 1.610605e+04 0.000000e+00 1.610605e+04 -9.618752e+04 0.000000e+00 0.000000e+00 0.000000e+00 0.000000e+00
-8.121836e+04 1.656490e+04 0.000000e+00 1.656490e+04 -9.503595e+04 0.000000e+00 0.000000e+00 0.000000e+00 0.000000e+00
-8.335712e+04 1.735653e+04 0.000000e+00 1.735653e+04 -9.303705e+04 0.000000e+00 0.000000e+00 0.000000e+00 0.000000e+00
-8.562373e+04 1.801370e+04 0.000000e+00 1.801370e+04 -9.005346e+04 0.000000e+00 0.000000e+00 0.000000e+00 0.000000e+00
-8.803162e+04 1.803260e+04 0.000000e+00 1.803260e+04 -8.611738e+04 0.000000e+00 0.000000e+00 0.000000e+00 0.000000e+00
-8.938591e+04 1.709882e+04 0.000000e+00 1.709882e+04 -8.076181e+04 0.000000e+00 0.000000e+00 0.000000e+00 0.000000e+00
-8.955266e+04 1.441979e+04 0.000000e+00 1.441979e+04 -7.361790e+04 0.000000e+00 0.000000e+00 0.000000e+00 0.000000e+00
-8.434899e+04 7.542934e+03 0.000000e+00 7.542934e+03 -6.715463e+04 0.000000e+00 0.000000e+00 0.000000e+00 0.000000e+00
-6.567820e+04 1.748455e+03 0.000000e+00 1.748455e+03 -5.871187e+04 0.000000e+00 0.000000e+00 0.000000e+00 0.000000e+00
-7.526866e+04 1.617904e+04 0.000000e+00 1.617904e+04 -8.798928e+04 0.000000e+00 0.000000e+00 0.000000e+00 0.000000e+00
-7.676639e+04 1.574483e+04 0.000000e+00 1.574483e+04 -8.774995e+04 0.000000e+00 0.000000e+00 0.000000e+00 0.000000e+00
-7.917730e+04 1.489104e+04 0.000000e+00 1.489104e+04 -8.659427e+04 0.000000e+00 0.000000e+00 0.000000e+00 0.000000e+00
-8.172380e+04 1.465611e+04 0.000000e+00 1.465611e+04 -8.489912e+04 0.000000e+00 0.000000e+00 0.000000e+00 0.000000e+00
-8.391755e+04 1.448933e+04 0.000000e+00 1.448933e+04 -8.252655e+04 0.000000e+00 0.000000e+00 0.000000e+00 0.000000e+00
-8.574855e+04 1.404992e+04 0.000000e+00 1.404992e+04 -7.939134e+04 0.000000e+00 0.000000e+00 0.000000e+00 0.000000e+00
-8.717793e+04 1.296238e+04 0.000000e+00 1.296238e+04 -7.545598e+04 0.000000e+00 0.000000e+00 0.000000e+00 0.000000e+00
-8.738612e+04 1.081217e+04 0.000000e+00 1.081217e+04 -7.074262e+04 0.000000e+00 0.000000e+00 0.000000e+00 0.000000e+00
-8.520242e+04 7.019813e+03 0.000000e+00 7.019813e+03 -6.593769e+04 0.000000e+00 0.000000e+00 0.000000e+00 0.000000e+00
-7.537477e+04 1.994323e+03 0.000000e+00 1.994323e+03 -6.222473e+04 0.000000e+00 0.000000e+00 0.000000e+00 0.000000e+00
-6.077340e+04 -3.557080e+02 0.000000e+00 -3.557080e+02 -5.869436e+04 0.000000e+00 0.000000e+00 0.000000e+00 0.000000e+00
-7.227894e+04 1.489967e+04 0.000000e+00 1.489967e+04 -8.054731e+04 0.000000e+00 0.000000e+00 0.000000e+00 0.000000e+00
-7.521318e+04 1.445054e+04 0.000000e+00 1.445054e+04 -8.051822e+04 0.000000e+00 0.000000e+00 0.000000e+00 0.000000e+00
-7.853424e+04 1.326757e+04 0.000000e+00 1.326757e+04 -7.902889e+04 0.000000e+00 0.000000e+00 0.000000e+00 0.000000e+00
-8.128166e+04 1.242003e+04 0.000000e+00 1.242003e+04 -7.719923e+04 0.000000e+00 0.000000e+00 0.000000e+00 0.000000e+00
-8.331966e+04 1.153005e+04 0.000000e+00 1.153005e+04 -7.489634e+04 0.000000e+00 0.000000e+00 0.000000e+00 0.000000e+00
-8.469311e+04 1.033212e+04 0.000000e+00 1.033212e+04 -7.209491e+04 0.000000e+00 0.000000e+00 0.000000e+00 0.000000e+00
-8.527298e+04 8.580028e+03 0.000000e+00 8.580028e+03 -6.888373e+04 0.000000e+00 0.000000e+00 0.000000e+00 0.000000e+00
-8.430345e+04 6.039717e+03 0.000000e+00 6.039717e+03 -6.554350e+04 0.000000e+00 0.000000e+00 0.000000e+00 0.000000e+00
-8.045541e+04 2.745436e+03 0.000000e+00 2.745436e+03 -6.259213e+04 0.000000e+00 0.000000e+00 0.000000e+00 0.000000e+00
-7.148674e+04 -4.721154e+01 0.000000e+00 -4.721154e+01 -6.067107e+04 0.000000e+00 0.000000e+00 0.000000e+00 0.000000e+00
-6.177577e+04 -1.014043e+03 0.000000e+00 -1.014043e+03 -5.891185e+04 0.000000e+00 0.000000e+00 0.000000e+00 0.000000e+00
-6.961223e+04 1.346220e+04 0.000000e+00 1.346220e+04 -7.486127e+04 0.000000e+00 0.000000e+00 0.000000e+00 0.000000e+00
-7.350902e+04 1.293510e+04 0.000000e+00 1.293510e+04 -7.492806e+04 0.000000e+00 0.000000e+00 0.000000e+00 0.000000e+00
-7.738962e+04 1.151217e+04 0.000000e+00 1.151217e+04 -7.333959e+04 0.000000e+00 0.000000e+00 0.000000e+00 0.000000e+00
-8.015891e+04 1.024252e+04 0.000000e+00 1.024252e+04 -7.160205e+04 0.000000e+00 0.000000e+00 0.000000e+00 0.000000e+00
-8.201928e+04 8.894046e+03 0.000000e+00 8.894046e+03 -6.960036e+04 0.000000e+00 0.000000e+00 0.000000e+00 0.000000e+00
-8.299522e+04 7.302236e+03 0.000000e+00 7.302236e+03 -6.736875e+04 0.000000e+00 0.000000e+00 0.000000e+00 0.000000e+00
-8.290202e+04 5.324888e+03 0.000000e+00 5.324888e+03 -6.502500e+04 0.000000e+00 0.000000e+00 0.000000e+00 0.000000e+00
-8.120058e+04 2.942115e+03 0.000000e+00 2.942115e+03 -6.279726e+04 0.000000e+00 0.000000e+00 0.000000e+00 0.000000e+00
-7.720713e+04 5.370468e+02 0.000000e+00 5.370468e+02 -6.108207e+04 0.000000e+00 0.000000e+00 0.000000e+00 0.000000e+00
-7.010659e+04 -8.360506e+02 0.000000e+00 -8.360506e+02 -6.018750e+04 0.000000e+00 0.000000e+00 0.000000e+00 0.000000e+00
-6.359261e+04 -1.009212e+03 0.000000e+00 -1.009212e+03 -5.925857e+04 0.000000e+00 0.000000e+00 0.000000e+00 0.000000e+00
-6.748636e+04 1.190416e+04 0.000000e+00 1.190416e+04 -7.071705e+04 0.000000e+00 0.000000e+00 0.000000e+00 0.000000e+00
-7.177246e+04 1.137446e+04 0.000000e+00 1.137446e+04 -7.074553e+04 0.000000e+00 0.000000e+00 0.000000e+00 0.000000e+00
-7.590395e+04 9.814214e+03 0.000000e+00 9.814214e+03 -6.921391e+04 0.000000e+00 0.000000e+00 0.000000e+00 0.000000e+00
-7.863440e+04 8.320756e+03 0.000000e+00 8.320756e+03 -6.766238e+04 0.000000e+00 0.000000e+00 0.000000e+00 0.000000e+00
-8.032641e+04 6.753292e+03 0.000000e+00 6.753292e+03 -6.604148e+04 0.000000e+00 0.000000e+00 0.000000e+00 0.000000e+00
-8.099580e+04 5.014382e+03 0.000000e+00 5.014382e+03 -6.433763e+04 0.000000e+00 0.000000e+00 0.000000e+00 0.000000e+00
-8.053249e+04 3.075843e+03 0.000000e+00 3.075843e+03 -6.267689e+04 0.000000e+00 0.000000e+00 0.000000e+00 0.000000e+00
-7.870074e+04 1.092078e+03 0.000000e+00 1.092078e+03 -6.128327e+04 0.000000e+00 0.000000e+00 0.000000e+00 0.000000e+00
-7.523070e+04 -5.302814e+02 0.000000e+00 -5.302814e+02 -6.037370e+04 0.000000e+00 0.000000e+00 0.000000e+00 0.000000e+00
-6.996409e+04 -1.080788e+03 0.000000e+00 -1.080788e+03 -6.000356e+04 0.000000e+00 0.000000e+00 0.000000e+00 0.000000e+00
-6.555676e+04 -9.329109e+02 0.000000e+00 -9.329109e+02 -5.947599e+04 0.000000e+00 0.000000e+00 0.000000e+00 0.000000e+00
-6.589757e+04 1.030038e+04 0.000000e+00 1.030038e+04 -6.778261e+04 0.000000e+00 0.000000e+00 0.000000e+00 0.000000e+00
-7.010832e+04 9.778857e+03 0.000000e+00 9.778857e+03 -6.773551e+04 0.000000e+00 0.000000e+00 0.000000e+00 0.000000e+00
-7.424030e+04 8.248969e+03 0.000000e+00 8.248969e+03 -6.628676e+04 0.000000e+00 0.000000e+00 0.000000e+00 0.000000e+00
-7.693024e+04 6.691985e+03 0.000000e+00 6.691985e+03 -6.495014e+04 0.000000e+00 0.000000e+00 0.000000e+00 0.000000e+00
-7.847298e+04 5.072689e+03 0.000000e+00 5.072689e+03 -6.363361e+04 0.000000e+00 0.000000e+00 0.000000e+00 0.000000e+00
-7.898657e+04 3.350680e+03 0.000000e+00 3.350680e+03 -6.236061e+04 0.000000e+00 0.000000e+00 0.000000e+00 0.000000e+00
-7.846139e+04 1.623877e+03 0.000000e+00 1.623877e+03 -6.125516e+04 0.000000e+00 0.000000e+00 0.000000e+00 0.000000e+00
-7.684773e+04 7.401573e+01 0.000000e+00 7.401573e+01 -6.045197e+04 0.000000e+00 0.000000e+00 0.000000e+00 0.000000e+00
-7.410630e+04 -9.881028e+02 0.000000e+00 -9.881028e+02 -6.001663e+04 0.000000e+00 0.000000e+00 0.000000e+00 0.000000e+00
-7.035493e+04 -1.097122e+03 0.000000e+00 -1.097122e+03 -5.991359e+04 0.000000e+00 0.000000e+00 0.000000e+00 0.000000e+00
-6.740585e+04 -8.179568e+02 0.000000e+00 -8.179568e+02 -5.962359e+04 0.000000e+00 0.000000e+00 0.000000e+00 0.000000e+00
-6.471861e+04 8.710083e+03 0.000000e+00 8.710083e+03 -6.577968e+04 0.000000e+00 0.000000e+00 0.000000e+00 0.000000e+00
-6.859296e+04 8.207751e+03 0.000000e+00 8.207751e+03 -6.564988e+04 0.000000e+00 0.000000e+00 0.000000e+00 0.000000e+00
-7.258010e+04 6.812921e+03 0.000000e+00 6.812921e+03 -6.429075e+04 0.000000e+00 0.000000e+00 0.000000e+00 0.000000e+00
-7.520705e+04 5.319848e+03 0.000000e+00 5.319848e+03 -6.311102e+04 0.000000e+00 0.000000e+00 0.000000e+00 0.000000e+00
-7.666165e+04 3.758503e+03 0.000000e+00 3.758503e+03 -6.203911e+04 0.000000e+00 0.000000e+00 0.000000e+00 0.000000e+00
-7.715272e+04 2.203900e+03 0.000000e+00 2.203900e+03 -6.111277e+04 0.000000e+00 0.000000e+00 0.000000e+00 0.000000e+00
-7.675181e+04 7.511346e+02 0.000000e+00 7.511346e+02 -6.041122e+04 0.000000e+00 0.000000e+00 0.000000e+00 0.000000e+00
-7.551229e+04 -4.279592e+02 0.000000e+00 -4.279592e+02 -5.998923e+04 0.000000e+00 0.000000e+00 0.000000e+00 0.000000e+00
-7.350728e+04 -1.112646e+03 0.000000e+00 -1.112646e+03 -5.983270e+04 0.000000e+00 0.000000e+00 0.000000e+00 0.000000e+00
-7.095232e+04 -1.003308e+03 0.000000e+00 -1.003308e+03 -5.987086e+04 0.000000e+00 0.000000e+00 0.000000e+00 0.000000e+00
-6.905015e+04 -6.852254e+02 0.000000e+00 -6.852254e+02 -5.973059e+04 0.000000e+00 0.000000e+00 0.000000e+00 0.000000e+00
-6.382212e+04 7.090935e+03 0.000000e+00 7.090935e+03 -6.444339e+04 0.000000e+00 0.000000e+00 0.000000e+00 0.000000e+00
-6.729055e+04 6.670502e+03 0.000000e+00 6.670502e+03 -6.423692e+04 0.000000e+00 0.000000e+00 0.000000e+00 0.000000e+00
-7.105737e+04 5.486849e+03 0.000000e+00 5.486849e+03 -6.297326e+04 0.000000e+00 0.000000e+00 0.000000e+00 0.000000e+00
-7.357502e+04 4.137719e+03 0.000000e+00 4.137719e+03 -6.190654e+04 0.000000e+00 0.000000e+00 0.000000e+00 0.000000e+00
-7.501788e+04 2.751190e+03 0.000000e+00 2.751190e+03 -6.102844e+04 0.000000e+00 0.000000e+00 0.000000e+00 0.000000e+00
-7.558152e+04 1.427126e+03 0.000000e+00 1.427126e+03 -6.035195e+04 0.000000e+00 0.000000e+00 0.000000e+00 0.000000e+00
-7.540002e+04 2.590434e+02 0.000000e+00 2.590434e+02 -5.992224e+04 0.000000e+00 0.000000e+00 0.000000e+00 0.000000e+00
-7.457041e+04 -6.186627e+02 0.000000e+00 -6.186627e+02 -5.973046e+04 0.000000e+00 0.000000e+00 0.000000e+00 0.000000e+00
-7.321643e+04 -1.054800e+03 0.000000e+00 -1.054800e+03 -5.973766e+04 0.000000e+00 0.000000e+00 0.000000e+00 0.000000e+00
-7.158502e+04 -8.568998e+02 0.000000e+00 -8.568998e+02 -5.985653e+04 0.000000e+00 0.000000e+00 0.000000e+00 0.000000e+00
-7.044092e+04 -5.504160e+02 0.000000e+00 -5.504160e+02 -5.981502e+04 0.000000e+00 0.000000e+00 0.000000e+00 0.000000e+00
-6.319458e+04 5.529081e+03 0.000000e+00 5.529081e+03 -6.356952e+04 0.000000e+00 0.000000e+00 0.000000e+00 0.000000e+00
-6.626142e+04 5.185457e+03 0.000000e+00 5.185457e+03 -6.331282e+04 0.000000e+00 0.000000e+00 0.000000e+00 0.000000e+00
-6.973244e+04 4.227436e+03 0.000000e+00 4.227436e+03 -6.211373e+04 0.000000e+00 0.000000e+00 0.000000e+00 0.000000e+00
-7.215434e+04 3.102556e+03 0.000000e+00 3.102556e+03 -6.113567e+04 0.000000e+00 0.000000e+00 0.000000e+00 0.000000e+00
-7.362370e+04 1.966389e+03 0.000000e+00 1.966389e+03 -6.040014e+04 0.000000e+00 0.000000e+00 0.000000e+00 0.000000e+00
-7.430962e+04 9.065232e+02 0.000000e+00 9.065232e+02 -5.990189e+04 0.000000e+00 0.000000e+00 0.000000e+00 0.000000e+00
-7.436624e+04 9.506537e+00 0.000000e+00 9.506537e+00 -5.964569e+04 0.000000e+00 0.000000e+00 0.000000e+00 0.000000e+00
-7.391023e+04 -6.268557e+02 0.000000e+00 -6.268557e+02 -5.959308e+04 0.000000e+00 0.000000e+00 0.000000e+00 0.000000e+00
-7.309789e+04 -8.966878e+02 0.000000e+00 -8.966878e+02 -5.969660e+04 0.000000e+00 0.000000e+00 0.000000e+00 0.000000e+00
-7.216079e+04 -6.858195e+02 0.000000e+00 -6.858195e+02 -5.985645e+04 0.000000e+00 0.000000e+00 0.000000e+00 0.000000e+00
-7.156270e+04 -4.223856e+02 0.000000e+00 -4.223856e+02 -5.987351e+04 0.000000e+00 0.000000e+00 0.000000e+00 0.000000e+00
-6.270320e+04 4.029414e+03 0.000000e+00 4.029414e+03 -6.298937e+04 0.000000e+00 0.000000e+00 0.000000e+00 0.000000e+00
-6.545459e+04 3.760901e+03 0.000000e+00 3.760901e+03 -6.269732e+04 0.000000e+00 0.000000e+00 0.000000e+00 0.000000e+00
-6.866993e+04 3.032819e+03 0.000000e+00 3.032819e+03 -6.156425e+04 0.000000e+00 0.000000e+00 0.000000e+00 0.000000e+00
-7.102572e+04 2.189338e+03 0.000000e+00 2.189338e+03 -6.066410e+04 0.000000e+00 0.000000e+00 0.000000e+00 0.000000e+00
-7.253302e+04 1.334826e+03 0.000000e+00 1.334826e+03 -6.003037e+04 0.000000e+00 0.000000e+00 0.000000e+00 0.000000e+00
-7.334470e+04 5.546819e+02 0.000000e+00 5.546819e+02 -5.964905e+04 0.000000e+00 0.000000e+00 0.000000e+00 0.000000e+00
-7.361195e+04 -8.942574e+01 0.000000e+00 -8.942574e+01 -5.950081e+04 0.000000e+00 0.000000e+00 0.000000e+00 0.000000e+00
-7.346349e+04 -5.283114e+02 0.000000e+00 -5.283114e+02 -5.953723e+04 0.000000e+00 0.000000e+00 0.000000e+00 0.000000e+00
-7.306719e+04 -6.902344e+02 0.000000e+00 -6.902344e+02 -5.968663e+04 0.000000e+00 0.000000e+00 0.000000e+00 0.000000e+00
-7.263441e+04 -5.088427e+02 0.000000e+00 -5.088427e+02 -5.985955e+04 0.000000e+00 0.000000e+00 0.000000e+00 0.000000e+00
-7.241395e+04 -3.061518e+02 0.000000e+00 -3.061518e+02 -5.992108e+04 0.000000e+00 0.000000e+00 0.000000e+00 0.000000e+00
-6.237193e+04 2.554823e+03 0.000000e+00 2.554823e+03 -6.257886e+04 0.000000e+00 0.000000e+00 0.000000e+00 0.000000e+00
-6.488863e+04 2.380776e+03 0.000000e+00 2.380776e+03 -6.226052e+04 0.000000e+00 0.000000e+00 0.000000e+00 0.000000e+00
-6.791909e+04 1.910061e+03 0.000000e+00 1.910061e+03 -6.118875e+04 0.000000e+00 0.000000e+00 0.000000e+00 0.000000e+00
-7.022544e+04 1.375004e+03 0.000000e+00 1.375004e+03 -6.035544e+04 0.000000e+00 0.000000e+00 0.000000e+00 0.000000e+00
-7.176530e+04 8.172979e+02 0.000000e+00 8.172979e+02 -5.981700e+04 0.000000e+00 0.000000e+00 0.000000e+00 0.000000e+00
-7.267368e+04 3.129697e+02 0.000000e+00 3.129697e+02 -5.951609e+04 0.000000e+00 0.000000e+00 0.000000e+00 0.000000e+00
-7.310118e+04 -9.971129e+01 0.000000e+00 -9.971129e+01 -5.943192e+04 0.000000e+00 0.000000e+00 0.000000e+00 0.000000e+00
-7.317699e+04 -3.739726e+02 0.000000e+00 -3.739726e+02 -5.951790e+04 0.000000e+00 0.000000e+00 0.000000e+00 0.000000e+00
-7.307286e+04 -4.631450e+02 0.000000e+00 -4.631450e+02 -5.968737e+04 0.000000e+00 0.000000e+00 0.000000e+00 0.000000e+00
-7.297855e+04 -3.348397e+02 0.000000e+00 -3.348397e+02 -5.986377e+04 0.000000e+00 0.000000e+00 0.000000e+00 0.000000e+00
-7.300636e+04 -1.987330e+02 0.000000e+00 -1.987330e+02 -5.995355e+04 0.000000e+00 0.000000e+00 0.000000e+00 0.000000e+00
-6.213735e+04 1.114992e+03 0.000000e+00 1.114992e+03 -6.214533e+04 0.000000e+00 0.000000e+00 0.000000e+00 0.000000e+00
-6.458428e+04 1.082352e+03 0.000000e+00 1.082352e+03 -6.186410e+04 0.000000e+00 0.000000e+00 0.000000e+00 0.000000e+00
-6.749846e+04 8.883456e+02 0.000000e+00 8.883456e+02 -6.090158e+04 0.000000e+00 0.000000e+00 0.000000e+00 0.000000e+00
-6.976202e+04 6.535184e+02 0.000000e+00 6.535184e+02 -6.017068e+04 0.000000e+00 0.000000e+00 0.000000e+00 0.000000e+00
-7.131472e+04 3.842345e+02 0.000000e+00 3.842345e+02 -5.970291e+04 0.000000e+00 0.000000e+00 0.000000e+00 0.000000e+00
-7.227991e+04 1.398958e+02 0.000000e+00 1.398958e+02 -5.945276e+04 0.000000e+00 0.000000e+00 0.000000e+00 0.000000e+00
-7.280608e+04 -6.147976e+01 0.000000e+00 -6.147976e+01 -5.940995e+04 0.000000e+00 0.000000e+00 0.000000e+00 0.000000e+00
-7.302029e+04 -1.920652e+02 0.000000e+00 -1.920652e+02 -5.951543e+04 0.000000e+00 0.000000e+00 0.000000e+00 0.000000e+00
-7.308664e+04 -2.310302e+02 0.000000e+00 -2.310302e+02 -5.969490e+04 0.000000e+00 0.000000e+00 0.000000e+00 0.000000e+00
-7.318506e+04 -1.657110e+02 0.000000e+00 -1.657110e+02 -5.986950e+04 0.000000e+00 0.000000e+00 0.000000e+00 0.000000e+00
-7.335079e+04 -9.712185e+01 0.000000e+00 -9.712185e+01 -5.997044e+04 0.000000e+00 0.000000e+00 0.000000e+00 0.000000e+00
-6.195319e+04 1.395875e+02 0.000000e+00 1.395875e+02 -6.167032e+04 0.000000e+00 0.000000e+00 0.000000e+00 0.000000e+00
-6.445579e+04 2.309935e+02 0.000000e+00 2.309935e+02 -6.153653e+04 0.000000e+00 0.000000e+00 0.000000e+00 0.000000e+00
-6.736403e+04 2.346590e+02 0.000000e+00 2.346590e+02 -6.075815e+04 0.000000e+00 0.000000e+00 0.000000e+00 0.000000e+00
-6.961345e+04 1.809575e+02 0.000000e+00 1.809575e+02 -6.010562e+04 0.000000e+00 0.000000e+00 0.000000e+00 0.000000e+00
-7.116463e+04 9.321262e+01 0.000000e+00 9.321262e+01 -5.966838e+04 0.000000e+00 0.000000e+00 0.000000e+00 0.000000e+00
-7.215023e+04 1.110656e+01 0.000000e+00 1.110656e+01 -5.943818e+04 0.000000e+00 0.000000e+00 0.000000e+00 0.000000e+00
-7.271095e+04 -5.858664e+01 0.000000e+00 -5.858664e+01 -5.940757e+04 0.000000e+00 0.000000e+00 0.000000e+00 0.000000e+00
-7.297205e+04 -1.043891e+02 0.000000e+00 -1.043891e+02 -5.951729e+04 0.000000e+00 0.000000e+00 0.000000e+00 0.000000e+00
-7.309317e+04 -1.183691e+02 0.000000e+00 -1.183691e+02 -5.970063e+04 0.000000e+00 0.000000e+00 0.000000e+00 0.000000e+00
-7.325362e+04 -9.493337e+01 0.000000e+00 -9.493337e+01 -5.987387e+04 0.000000e+00 0.000000e+00 0.000000e+00 0.000000e+00
-7.346140e+04 -6.776858e+01 0.000000e+00 -6.776858e+01 -5.997787e+04 0.000000e+00 0.000000e+00 0.000000e+00 0.000000e+00
</DataArray>
<DataArray Name="vol_eps" type="Float64" NumberOfComponents="1" format="ascii">
-6.554392e-03
-6.037992e-03
-5.953169e-03
-6.032780e-03
-6.386530e-03
-6.977477e-03
-7.770440e-03
-8.789673e-03
-9.966746e-03
-1.116000e-02
-1.158703e-02
-6.182780e-03
-5.706366e-03
-5.675878e-03
-5.773542e-03
-6.090375e-03
-6.597785e-03
-7.273613e-03
-8.232559e-03
-9.450432e-03
-1.071004e-02
-1.259441e-02
-5.366122e-03
-4.962461e-03
-4.937823e-03
-5.032967e-03
-5.276576e-03
-5.586528e-03
-5.880124e-03
-6.408407e-03
-7.221255e-03
-8.539716e-03
-1.121619e-02
-4.411228e-03
-4.164800e-03
-4.132980e-03
-4.081074e-03
-3.919481e-03
-3.605553e-03
-3.090617e-03
-2.350034e-03
-1.319862e-03
3.658869e-04
1.926779e-03
-3.518387e-03
-3.474593e-03
-3.546896e-03
-3.604028e-03
-3.598031e-03
-3.528841e-03
-3.409751e-03
-3.140417e-03
-2.693125e-03
-1.989348e-03
-2.414756e-04
-2.700720e-03
-2.819083e-03
-2.947558e-03
-3.013054e-03
-3.001986e-03
-2.917941e-03
-2.756370e-03
-2.464528e-03
-2.007286e-03
-1.121504e-03
5.405914e-05
-2.026706e-03
-2.257195e-03
-2.415753e-03
-2.482949e-03
-2.471159e-03
-2.384078e-03
-2.211716e-03
-1.924651e-03
-1.472846e-03
-7.688980e-04
-3.764275e-05
-1.494064e-03
-1.790073e-03
-1.967793e-03
-2.044765e-03
-2.040185e-03
-1.958018e-03
-1.794992e-03
-1.533246e-03
-1.158849e-03
-6.491201e-04
-1.780344e-04
-1.096165e-03
-1.409530e-03
-1.603009e-03
-1.687722e-03
-1.692275e-03
-1.621458e-03
-1.480039e-03
-1.267275e-03
-9.848461e-04
-6.285558e-04
-3.170207e-04
-8.152274e-04
-1.111288e-03
-1.304705e-03
-1.397286e-03
-1.409463e-03
-1.357522e-03
-1.249107e-03
-1.091855e-03
-8.899544e-04
-6.471879e-04
-4.424049e-04
-6.236447e-04
-8.849760e-04
-1.067477e-03
-1.162761e-03
-1.185443e-03
-1.154557e-03
-1.082122e-03
-9.762699e-04
-8.397850e-04
-6.822288e-04
-5.532362e-04
-4.943802e-04
-7.180517e-04
-8.859506e-04
-9.783303e-04
-1.012331e-03
-1.003359e-03
-9.639306e-04
-8.996554e-04
-8.152853e-04
-7.209003e-04
-6.466073e-04
-4.130867e-04
-6.020868e-04
-7.485304e-04
-8.378006e-04
-8.824099e-04
-8.933842e-04
-8.803647e-04
-8.489148e-04
-8.051375e-04
-7.566145e-04
-7.204049e-04
-3.580500e-04
-5.190029e-04
-6.492250e-04
-7.373454e-04
-7.897083e-04
-8.159211e-04
-8.232577e-04
-8.166518e-04
-8.022052e-04
-7.860419e-04
-7.761357e-04
-3.180920e-04
-4.597817e-04
-5.806024e-04
-6.682042e-04
-7.278371e-04
-7.647491e-04
-7.862916e-04
-7.968654e-04
-8.020722e-04
-8.075110e-04
-8.151505e-04
-2.789901e-04
-4.168530e-04
-5.373047e-04
-6.282777e-04
-6.927155e-04
-7.361103e-04
-7.662631e-04
-7.866384e-04
-8.029827e-04
-8.207773e-04
-8.382048e-04
-2.372075e-04
-3.877078e-04
-5.204965e-04
-6.155728e-04
-6.814547e-04
-7.274086e-04
-7.603631e-04
-7.836989e-04
-8.036586e-04
-8.254108e-04
-8.458090e-04
</DataArray>
</PointData>
</Piece>
</UnstructuredGrid>
</VTKFile>
