<?xml version="1.0"?>
<VTKFile type="UnstructuredGrid" version="0.1">
<UnstructuredGrid>
<FieldData>
<DataArray Name="TIME" type="Float64" format="ascii" NumberOfTuples="1">
0.000000e+00
</DataArray>
</FieldData>
<FieldData>
<DataArray Name="CYCLE" type="Int32" format="ascii" NumberOfTuples="1">
0
</DataArray>
</FieldData>
<Piece NumberOfPoints="187" NumberOfCells="160">
<Points>
<DataArray NumberOfComponents="3" type="Float64" format="ascii">
0.000000e+00 0.000000e+00 0.000000e+00
0.000000e+00 1.986941e-01 0.000000e+00
0.000000e+00 3.969123e-01 0.000000e+00
0.000000e+00 5.947131e-01 0.000000e+00
0.000000e+00 7.922109e-01 0.000000e+00
0.000000e+00 9.894890e-01 0.000000e+00
0.000000e+00 1.186615e+00 0.000000e+00
0.000000e+00 1.383687e+00 0.000000e+00
0.000000e+00 1.580875e+00 0.000000e+00
0.000000e+00 1.778478e+00 0.000000e+00
0.000000e+00 1.976375e+00 0.000000e+00
2.250000e-01 0.000000e+00 0.000000e+00
2.255267e-01 1.987754e-01 0.000000e+00
2.260379e-01 3.971435e-01 0.000000e+00
2.264304e-01 5.951184e-01 0.000000e+00
2.266612e-01 7.927752e-01 0.000000e+00
2.267594e-01 9.901773e-01 0.000000e+00
2.267342e-01 1.187376e+00 0.000000e+00
2.265499e-01 1.384438e+00 0.000000e+00
2.260949e-01 1.581480e+00 0.000000e+00
2.253237e-01 1.778636e+00 0.000000e+00
2.250000e-01 1.976375e+00 0.000000e+00
4.500000e-01 0.000000e+00 0.000000e+00
4.509467e-01 1.989419e-01 0.000000e+00
4.518153e-01 3.976489e-01 0.000000e+00
4.525232e-01 5.961399e-01 0.000000e+00
4.530250e-01 7.943915e-01 0.000000e+00
4.533288e-01 9.923615e-01 0.000000e+00
4.534697e-01 1.189994e+00 0.000000e+00
4.533475e-01 1.387281e+00 0.000000e+00
4.528125e-01 1.584160e+00 0.000000e+00
4.519714e-01 1.780494e+00 0.000000e+00
4.500000e-01 1.976375e+00 0.000000e+00
6.750000e-01 0.000000e+00 0.000000e+00
6.762040e-01 1.991449e-01 0.000000e+00
6.772044e-01 3.982210e-01 0.000000e+00
6.780123e-01 5.972832e-01 0.000000e+00
6.786393e-01 7.963627e-01 0.000000e+00
6.791029e-01 9.954899e-01 0.000000e+00
6.794525e-01 1.194706e+00 0.000000e+00
6.795761e-01 1.394055e+00 0.000000e+00
6.793587e-01 1.593579e+00 0.000000e+00
6.787697e-01 1.793412e+00 0.000000e+00
6.760945e-01 1.993968e+00 0.000000e+00
9.000000e-01 0.000000e+00 0.000000e+00
9.012975e-01 1.993455e-01 0.000000e+00
9.022806e-01 3.987043e-01 0.000000e+00
9.030378e-01 5.981054e-01 0.000000e+00
9.036059e-01 7.975631e-01 0.000000e+00
9.040002e-01 9.970939e-01 0.000000e+00
9.042235e-01 1.196729e+00 0.000000e+00
9.042071e-01 1.396509e+00 0.000000e+00
9.038554e-01 1.596455e+00 0.000000e+00
9.028795e-01 1.796613e+00 0.000000e+00
9.011128e-01 1.996573e+00 0.000000e+00
1.125000e+00 0.000000e+00 0.000000e+00
1.126272e+00 1.995227e-01 0.000000e+00
1.127182e+00 3.990984e-01 0.000000e+00
1.127863e+00 5.987303e-01 0.000000e+00
1.128355e+00 7.984256e-01 0.000000e+00
1.128670e+00 9.981959e-01 0.000000e+00
1.128793e+00 1.198059e+00 0.000000e+00
1.128683e+00 1.398029e+00 0.000000e+00
1.128252e+00 1.598105e+00 0.000000e+00
1.127435e+00 1.798207e+00 0.000000e+00
1.126336e+00 1.998241e+00 0.000000e+00
1.350000e+00 0.000000e+00 0.000000e+00
1.351167e+00 1.996656e-01 0.000000e+00
1.351988e+00 3.993977e-01 0.000000e+00
1.352591e+00 5.991871e-01 0.000000e+00
1.353013e+00 7.990353e-01 0.000000e+00
1.353259e+00 9.989490e-01 0.000000e+00
1.353321e+00 1.198934e+00 0.000000e+00
1.353171e+00 1.398989e+00 0.000000e+00
1.352782e+00 1.599090e+00 0.000000e+00
1.352169e+00 1.799185e+00 0.000000e+00
1.351464e+00 1.999203e+00 0.000000e+00
1.575000e+00 0.000000e+00 0.000000e+00
1.576023e+00 1.997716e-01 0.000000e+00
1.576748e+00 3.996118e-01 0.000000e+00
1.577277e+00 5.995057e-01 0.000000e+00
1.577637e+00 7.994519e-01 0.000000e+00
1.577833e+00 9.994505e-01 0.000000e+00
1.577862e+00 1.199501e+00 0.000000e+00
1.577717e+00 1.399595e+00 0.000000e+00
1.577405e+00 1.599704e+00 0.000000e+00
1.576969e+00 1.799788e+00 0.000000e+00
1.576516e+00 1.999815e+00 0.000000e+00
1.800000e+00 0.000000e+00 0.000000e+00
1.800864e+00 1.998454e-01 0.000000e+00
1.801492e+00 3.997574e-01 0.000000e+00
1.801952e+00 5.997192e-01 0.000000e+00
1.802258e+00 7.997257e-01 0.000000e+00
1.802418e+00 9.997758e-01 0.000000e+00
1.802436e+00 1.199862e+00 0.000000e+00
1.802319e+00 1.399971e+00 0.000000e+00
1.802086e+00 1.600078e+00 0.000000e+00
1.801787e+00 1.800159e+00 0.000000e+00
1.801502e+00 2.000196e+00 0.000000e+00
2.025000e+00 0.000000e+00 0.000000e+00
2.025708e+00 1.998944e-01 0.000000e+00
2.026243e+00 3.998509e-01 0.000000e+00
2.026635e+00 5.998544e-01 0.000000e+00
2.026894e+00 7.998988e-01 0.000000e+00
2.027030e+00 9.999772e-01 0.000000e+00
2.027048e+00 1.200080e+00 0.000000e+00
2.026963e+00 1.400192e+00 0.000000e+00
2.026800e+00 1.600297e+00 0.000000e+00
2.026603e+00 1.800377e+00 0.000000e+00
2.026433e+00 2.000425e+00 0.000000e+00
2.250000e+00 0.000000e+00 0.000000e+00
2.250566e+00 1.999253e-01 0.000000e+00
2.251011e+00 3.999093e-01 0.000000e+00
2.251338e+00 5.999367e-01 0.000000e+00
2.251556e+00 8.000007e-01 0.000000e+00
2.251671e+00 1.000093e+00 0.000000e+00
2.251694e+00 1.200201e+00 0.000000e+00
2.251639e+00 1.400313e+00 0.000000e+00
2.251532e+00 1.600415e+00 0.000000e+00
2.251408e+00 1.800496e+00 0.000000e+00
2.251315e+00 2.000554e+00 0.000000e+00
2.475000e+00 0.000000e+00 0.000000e+00
2.475442e+00 1.999447e-01 0.000000e+00
2.475800e+00 3.999423e-01 0.000000e+00
2.476066e+00 5.999829e-01 0.000000e+00
2.476245e+00 8.000559e-01 0.000000e+00
2.476343e+00 1.000152e+00 0.000000e+00
2.476370e+00 1.200261e+00 0.000000e+00
2.476339e+00 1.400370e+00 0.000000e+00
2.476273e+00 1.600469e+00 0.000000e+00
2.476200e+00 1.800553e+00 0.000000e+00
2.476156e+00 2.000619e+00 0.000000e+00
2.700000e+00 0.000000e+00 0.000000e+00
2.700335e+00 1.999558e-01 0.000000e+00
2.700611e+00 3.999615e-01 0.000000e+00
2.700820e+00 6.000073e-01 0.000000e+00
2.700962e+00 8.000829e-01 0.000000e+00
2.701043e+00 1.000179e+00 0.000000e+00
2.701069e+00 1.200285e+00 0.000000e+00
2.701055e+00 1.400391e+00 0.000000e+00
2.701017e+00 1.600489e+00 0.000000e+00
2.700978e+00 1.800574e+00 0.000000e+00
2.700963e+00 2.000648e+00 0.000000e+00
2.925000e+00 0.000000e+00 0.000000e+00
2.925240e+00 1.999634e-01 0.000000e+00
2.925441e+00 3.999728e-01 0.000000e+00
2.925596e+00 6.000203e-01 0.000000e+00
2.925701e+00 8.000959e-01 0.000000e+00
2.925763e+00 1.000190e+00 0.000000e+00
2.925787e+00 1.200293e+00 0.000000e+00
2.925782e+00 1.400396e+00 0.000000e+00
2.925763e+00 1.600492e+00 0.000000e+00
2.925744e+00 1.800580e+00 0.000000e+00
2.925745e+00 2.000659e+00 0.000000e+00
3.150000e+00 0.000000e+00 0.000000e+00
3.150156e+00 1.999690e-01 0.000000e+00
3.150287e+00 3.999811e-01 0.000000e+00
3.150388e+00 6.000301e-01 0.000000e+00
3.150458e+00 8.001052e-01 0.000000e+00
3.150500e+00 1.000197e+00 0.000000e+00
3.150517e+00 1.200298e+00 0.000000e+00
3.150517e+00 1.400398e+00 0.000000e+00
3.150509e+00 1.600493e+00 0.000000e+00
3.150501e+00 1.800582e+00 0.000000e+00
3.150507e+00 2.000666e+00 0.000000e+00
3.375000e+00 0.000000e+00 0.000000e+00
3.375079e+00 1.999752e-01 0.000000e+00
3.375142e+00 3.999920e-01 0.000000e+00
3.375192e+00 6.000431e-01 0.000000e+00
3.375226e+00 8.001182e-01 0.000000e+00
3.375247e+00 1.000209e+00 0.000000e+00
3.375257e+00 1.200307e+00 0.000000e+00
3.375257e+00 1.400406e+00 0.000000e+00
3.375254e+00 1.600501e+00 0.000000e+00
3.375252e+00 1.800590e+00 0.000000e+00
3.375257e+00 2.000677e+00 0.000000e+00
3.600000e+00 0.000000e+00 0.000000e+00
3.600000e+00 1.999905e-01 0.000000e+00
3.600000e+00 4.000123e-01 0.000000e+00
3.600000e+00 6.000645e-01 0.000000e+00
3.600000e+00 8.001391e-01 0.000000e+00
3.600000e+00 1.000229e+00 0.000000e+00
3.600000e+00 1.200327e+00 0.000000e+00
3.600000e+00 1.400425e+00 0.000000e+00
3.600000e+00 1.600520e+00 0.000000e+00
3.600000e+00 1.800610e+00 0.000000e+00
3.600000e+00 2.000697e+00 0.000000e+00
</DataArray>
</Points>
<Cells>
<DataArray Name="connectivity" type="Int32" format="ascii">
0 11 12 1
1 12 13 2
2 13 14 3
3 14 15 4
4 15 16 5
5 16 17 6
6 17 18 7
7 18 19 8
8 19 20 9
9 20 21 10
11 22 23 12
12 23 24 13
13 24 25 14
14 25 26 15
15 26 27 16
16 27 28 17
17 28 29 18
18 29 30 19
19 30 31 20
20 31 32 21
22 33 34 23
23 34 35 24
24 35 36 25
25 36 37 26
26 37 38 27
27 38 39 28
28 39 40 29
29 40 41 30
30 41 42 31
31 42 43 32
33 44 45 34
34 45 46 35
35 46 47 36
36 47 48 37
37 48 49 38
38 49 50 39
39 50 51 40
40 51 52 41
41 52 53 42
42 53 54 43
44 55 56 45
45 56 57 46
46 57 58 47
47 58 59 48
48 59 60 49
49 60 61 50
50 61 62 51
51 62 63 52
52 63 64 53
53 64 65 54
55 66 67 56
56 67 68 57
57 68 69 58
58 69 70 59
59 70 71 60
60 71 72 61
61 72 73 62
62 73 74 63
63 74 75 64
64 75 76 65
66 77 78 67
67 78 79 68
68 79 80 69
69 80 81 70
70 81 82 71
71 82 83 72
72 83 84 73
73 84 85 74
74 85 86 75
75 86 87 76
77 88 89 78
78 89 90 79
79 90 91 80
80 91 92 81
81 92 93 82
82 93 94 83
83 94 95 84
84 95 96 85
85 96 97 86
86 97 98 87
88 99 100 89
89 100 101 90
90 101 102 91
91 102 103 92
92 103 104 93
93 104 105 94
94 105 106 95
95 106 107 96
96 107 108 97
97 108 109 98
99 110 111 100
100 111 112 101
101 112 113 102
102 113 114 103
103 114 115 104
104 115 116 105
105 116 117 106
106 117 118 107
107 118 119 108
108 119 120 109
110 121 122 111
111 122 123 112
112 123 124 113
113 124 125 114
114 125 126 115
115 126 127 116
116 127 128 117
117 128 129 118
118 129 130 119
119 130 131 120
121 132 133 122
122 133 134 123
123 134 135 124
124 135 136 125
125 136 137 126
126 137 138 127
127 138 139 128
128 139 140 129
129 140 141 130
130 141 142 131
132 143 144 133
133 144 145 134
134 145 146 135
135 146 147 136
136 147 148 137
137 148 149 138
138 149 150 139
139 150 151 140
140 151 152 141
141 152 153 142
143 154 155 144
144 155 156 145
145 156 157 146
146 157 158 147
147 158 159 148
148 159 160 149
149 160 161 150
150 161 162 151
151 162 163 152
152 163 164 153
154 165 166 155
155 166 167 156
156 167 168 157
157 168 169 158
158 169 170 159
159 170 171 160
160 171 172 161
161 172 173 162
162 173 174 163
163 174 175 164
165 176 177 166
166 177 178 167
167 178 179 168
168 179 180 169
169 180 181 170
170 181 182 171
171 182 183 172
172 183 184 173
173 184 185 174
174 185 186 175
</DataArray>
<DataArray Name="offsets" type="Int32" format="ascii">
4
8
12
16
20
24
28
32
36
40
44
48
52
56
60
64
68
72
76
80
84
88
92
96
100
104
108
112
116
120
124
128
132
136
140
144
148
152
156
160
164
168
172
176
180
184
188
192
196
200
204
208
212
216
220
224
228
232
236
240
244
248
252
256
260
264
268
272
276
280
284
288
292
296
300
304
308
312
316
320
324
328
332
336
340
344
348
352
356
360
364
368
372
376
380
384
388
392
396
400
404
408
412
416
420
424
428
432
436
440
444
448
452
456
460
464
468
472
476
480
484
488
492
496
500
504
508
512
516
520
524
528
532
536
540
544
548
552
556
560
564
568
572
576
580
584
588
592
596
600
604
608
612
616
620
624
628
632
636
640
</DataArray>
<DataArray Name="types" type="UInt8" format="ascii">
9
9
9
9
9
9
9
9
9
9
9
9
9
9
9
9
9
9
9
9
9
9
9
9
9
9
9
9
9
9
9
9
9
9
9
9
9
9
9
9
9
9
9
9
9
9
9
9
9
9
9
9
9
9
9
9
9
9
9
9
9
9
9
9
9
9
9
9
9
9
9
9
9
9
9
9
9
9
9
9
9
9
9
9
9
9
9
9
9
9
9
9
9
9
9
9
9
9
9
9
9
9
9
9
9
9
9
9
9
9
9
9
9
9
9
9
9
9
9
9
9
9
9
9
9
9
9
9
9
9
9
9
9
9
9
9
9
9
9
9
9
9
9
9
9
9
9
9
9
9
9
9
9
9
9
9
9
9
9
9
</DataArray>
</Cells>
<PointData>
<DataArray Name="disp" type="Float64" NumberOfComponents="3" format="ascii">
0.000000e+00 0.000000e+00 0.000000e+00
0.000000e+00 -1.305950e-03 0.000000e+00
0.000000e+00 -3.087655e-03 0.000000e+00
0.000000e+00 -5.286930e-03 0.000000e+00
0.000000e+00 -7.789056e-03 0.000000e+00
0.000000e+00 -1.051098e-02 0.000000e+00
0.000000e+00 -1.338548e-02 0.000000e+00
0.000000e+00 -1.631282e-02 0.000000e+00
0.000000e+00 -1.912496e-02 0.000000e+00
0.000000e+00 -2.152243e-02 0.000000e+00
0.000000e+00 -2.362500e-02 0.000000e+00
0.000000e+00 0.000000e+00 0.000000e+00
5.267072e-04 -1.224649e-03 0.000000e+00
1.037877e-03 -2.856473e-03 0.000000e+00
1.430452e-03 -4.881567e-03 0.000000e+00
1.661200e-03 -7.224829e-03 0.000000e+00
1.759448e-03 -9.822699e-03 0.000000e+00
1.734211e-03 -1.262416e-02 0.000000e+00
1.549941e-03 -1.556223e-02 0.000000e+00
1.094926e-03 -1.852028e-02 0.000000e+00
3.237374e-04 -2.136418e-02 0.000000e+00
0.000000e+00 -2.362500e-02 0.000000e+00
0.000000e+00 0.000000e+00 0.000000e+00
9.466473e-04 -1.058068e-03 0.000000e+00
1.815312e-03 -2.351058e-03 0.000000e+00
2.523226e-03 -3.860092e-03 0.000000e+00
3.025025e-03 -5.608546e-03 0.000000e+00
3.328820e-03 -7.638466e-03 0.000000e+00
3.469685e-03 -1.000576e-02 0.000000e+00
3.347471e-03 -1.271935e-02 0.000000e+00
2.812514e-03 -1.584004e-02 0.000000e+00
1.971369e-03 -1.950559e-02 0.000000e+00
0.000000e+00 -2.362500e-02 0.000000e+00
0.000000e+00 0.000000e+00 0.000000e+00
1.203979e-03 -8.550818e-04 0.000000e+00
2.204417e-03 -1.778998e-03 0.000000e+00
3.012276e-03 -2.716742e-03 0.000000e+00
3.639268e-03 -3.637290e-03 0.000000e+00
4.102907e-03 -4.510076e-03 0.000000e+00
4.452505e-03 -5.294095e-03 0.000000e+00
4.576102e-03 -5.945409e-03 0.000000e+00
4.358707e-03 -6.420711e-03 0.000000e+00
3.769706e-03 -6.588326e-03 0.000000e+00
1.094456e-03 -6.032192e-03 0.000000e+00
0.000000e+00 0.000000e+00 0.000000e+00
1.297483e-03 -6.544911e-04 0.000000e+00
2.280557e-03 -1.295688e-03 0.000000e+00
3.037820e-03 -1.894658e-03 0.000000e+00
3.605938e-03 -2.436857e-03 0.000000e+00
4.000204e-03 -2.906075e-03 0.000000e+00
4.223532e-03 -3.270536e-03 0.000000e+00
4.207105e-03 -3.491397e-03 0.000000e+00
3.855430e-03 -3.545228e-03 0.000000e+00
2.879527e-03 -3.387455e-03 0.000000e+00
1.112824e-03 -3.426874e-03 0.000000e+00
0.000000e+00 0.000000e+00 0.000000e+00
1.272342e-03 -4.772579e-04 0.000000e+00
2.182362e-03 -9.016383e-04 0.000000e+00
2.862634e-03 -1.269650e-03 0.000000e+00
3.355043e-03 -1.574460e-03 0.000000e+00
3.670001e-03 -1.804142e-03 0.000000e+00
3.792701e-03 -1.940510e-03 0.000000e+00
3.682599e-03 -1.971306e-03 0.000000e+00
3.252287e-03 -1.894528e-03 0.000000e+00
2.435243e-03 -1.793202e-03 0.000000e+00
1.336341e-03 -1.759206e-03 0.000000e+00
0.000000e+00 0.000000e+00 0.000000e+00
1.167454e-03 -3.344411e-04 0.000000e+00
1.988236e-03 -6.023100e-04 0.000000e+00
2.591190e-03 -8.129266e-04 0.000000e+00
3.012818e-03 -9.647767e-04 0.000000e+00
3.259387e-03 -1.050986e-03 0.000000e+00
3.320818e-03 -1.066292e-03 0.000000e+00
3.171205e-03 -1.011284e-03 0.000000e+00
2.781953e-03 -9.098090e-04 0.000000e+00
2.168518e-03 -8.145770e-04 0.000000e+00
1.463590e-03 -7.971886e-04 0.000000e+00
0.000000e+00 0.000000e+00 0.000000e+00
1.022449e-03 -2.283912e-04 0.000000e+00
1.748026e-03 -3.882346e-04 0.000000e+00
2.276616e-03 -4.942899e-04 0.000000e+00
2.636988e-03 -5.480435e-04 0.000000e+00
2.833195e-03 -5.494742e-04 0.000000e+00
2.862273e-03 -4.986341e-04 0.000000e+00
2.717349e-03 -4.052580e-04 0.000000e+00
2.405028e-03 -2.962942e-04 0.000000e+00
1.968957e-03 -2.121529e-04 0.000000e+00
1.516015e-03 -1.846301e-04 0.000000e+00
0.000000e+00 0.000000e+00 0.000000e+00
8.637284e-04 -1.545594e-04 0.000000e+00
1.492455e-03 -2.426064e-04 0.000000e+00
1.951710e-03 -2.807696e-04 0.000000e+00
2.258498e-03 -2.743095e-04 0.000000e+00
2.418511e-03 -2.241629e-04 0.000000e+00
2.436422e-03 -1.376037e-04 0.000000e+00
2.318559e-03 -2.928093e-05 0.000000e+00
2.086315e-03 7.811344e-05 0.000000e+00
1.787033e-03 1.591380e-04 0.000000e+00
1.502517e-03 1.960725e-04 0.000000e+00
0.000000e+00 0.000000e+00 0.000000e+00
7.078311e-04 -1.056258e-04 0.000000e+00
1.243532e-03 -1.491129e-04 0.000000e+00
1.635302e-03 -1.456205e-04 0.000000e+00
1.894449e-03 -1.012073e-04 0.000000e+00
2.029775e-03 -2.285491e-05 0.000000e+00
2.048103e-03 7.988336e-05 0.000000e+00
1.962971e-03 1.923603e-04 0.000000e+00
1.800255e-03 2.969399e-04 0.000000e+00
1.602976e-03 3.773823e-04 0.000000e+00
1.432935e-03 4.245850e-04 0.000000e+00
0.000000e+00 0.000000e+00 0.000000e+00
5.664724e-04 -7.468231e-05 0.000000e+00
1.010952e-03 -9.075547e-05 0.000000e+00
1.337885e-03 -6.327209e-05 0.000000e+00
1.555816e-03 7.478453e-07 0.000000e+00
1.671411e-03 9.260349e-05 0.000000e+00
1.694343e-03 2.010015e-04 0.000000e+00
1.639355e-03 3.126822e-04 0.000000e+00
1.531896e-03 4.146509e-04 0.000000e+00
1.408185e-03 4.961882e-04 0.000000e+00
1.314825e-03 5.536776e-04 0.000000e+00
0.000000e+00 0.000000e+00 0.000000e+00
4.424554e-04 -5.531108e-05 0.000000e+00
7.994582e-04 -5.770730e-05 0.000000e+00
1.066134e-03 -1.709755e-05 0.000000e+00
1.245373e-03 5.589553e-05 0.000000e+00
1.343509e-03 1.521202e-04 0.000000e+00
1.369883e-03 2.605361e-04 0.000000e+00
1.338945e-03 3.696865e-04 0.000000e+00
1.272494e-03 4.693982e-04 0.000000e+00
1.199764e-03 5.529747e-04 0.000000e+00
1.155776e-03 6.193640e-04 0.000000e+00
0.000000e+00 0.000000e+00 0.000000e+00
3.345041e-04 -4.419929e-05 0.000000e+00
6.105366e-04 -3.852079e-05 0.000000e+00
8.197575e-04 7.289059e-06 0.000000e+00
9.619324e-04 8.294484e-05 0.000000e+00
1.042692e-03 1.789139e-04 0.000000e+00
1.069448e-03 2.849303e-04 0.000000e+00
1.054936e-03 3.908660e-04 0.000000e+00
1.017023e-03 4.888805e-04 0.000000e+00
9.778377e-04 5.743766e-04 0.000000e+00
9.632069e-04 6.481612e-04 0.000000e+00
0.000000e+00 0.000000e+00 0.000000e+00
2.403473e-04 -3.664390e-05 0.000000e+00
4.412570e-04 -2.718187e-05 0.000000e+00
5.956626e-04 2.028829e-05 0.000000e+00
7.013406e-04 9.589535e-05 0.000000e+00
7.632266e-04 1.900178e-04 0.000000e+00
7.868357e-04 2.929588e-04 0.000000e+00
7.822890e-04 3.959519e-04 0.000000e+00
7.628199e-04 4.924414e-04 0.000000e+00
7.443064e-04 5.795567e-04 0.000000e+00
7.446159e-04 6.590976e-04 0.000000e+00
0.000000e+00 0.000000e+00 0.000000e+00
1.564755e-04 -3.096672e-05 0.000000e+00
2.874740e-04 -1.885604e-05 0.000000e+00
3.884083e-04 3.014758e-05 0.000000e+00
4.582526e-04 1.052242e-04 0.000000e+00
4.998951e-04 1.974359e-04 0.000000e+00
5.174088e-04 2.975350e-04 0.000000e+00
5.175180e-04 3.980371e-04 0.000000e+00
5.088200e-04 4.933692e-04 0.000000e+00
5.015410e-04 5.817941e-04 0.000000e+00
5.068916e-04 6.655977e-04 0.000000e+00
0.000000e+00 0.000000e+00 0.000000e+00
7.898310e-05 -2.477500e-05 0.000000e+00
1.422520e-04 -7.947467e-06 0.000000e+00
1.918564e-04 4.312908e-05 0.000000e+00
2.264516e-04 1.182183e-04 0.000000e+00
2.472109e-04 2.090369e-04 0.000000e+00
2.565673e-04 3.073495e-04 0.000000e+00
2.576089e-04 4.060789e-04 0.000000e+00
2.544953e-04 5.008054e-04 0.000000e+00
2.523829e-04 5.901356e-04 0.000000e+00
2.564700e-04 6.767221e-04 0.000000e+00
0.000000e+00 0.000000e+00 0.000000e+00
0.000000e+00 -9.534888e-06 0.000000e+00
0.000000e+00 1.233604e-05 0.000000e+00
0.000000e+00 6.450149e-05 0.000000e+00
0.000000e+00 1.391302e-04 0.000000e+00
0.000000e+00 2.292065e-04 0.000000e+00
0.000000e+00 3.268596e-04 0.000000e+00
0.000000e+00 4.252216e-04 0.000000e+00
0.000000e+00 5.198172e-04 0.000000e+00
0.000000e+00 6.095335e-04 0.000000e+00
0.000000e+00 6.970518e-04 0.000000e+00
</DataArray>
<DataArray Name="shear" type="Float64" NumberOfComponents="1" format="ascii">
7.263327e-03
9.962828e-03
1.435601e-02
1.790854e-02
2.035152e-02
2.183861e-02
2.234020e-02
2.142015e-02
1.828565e-02
1.358921e-02
1.131605e-02
7.302963e-03
9.646743e-03
1.349719e-02
1.684992e-02
1.953934e-02
2.160301e-02
2.290366e-02
2.294648e-02
2.133941e-02
1.771508e-02
1.431125e-02
7.564047e-03
9.043233e-03
1.144846e-02
1.395634e-02
1.683665e-02
2.027301e-02
2.410534e-02
2.792251e-02
3.199003e-02
3.426199e-02
3.419467e-02
7.685919e-03
8.224704e-03
8.980853e-03
1.000590e-02
1.160335e-02
1.405319e-02
1.728927e-02
2.112822e-02
2.586081e-02
2.856319e-02
3.011620e-02
7.473380e-03
7.346681e-03
7.031002e-03
7.045957e-03
7.284688e-03
7.675207e-03
7.998243e-03
8.003998e-03
7.305746e-03
4.529312e-03
1.298163e-03
6.942051e-03
6.471563e-03
5.696051e-03
5.399046e-03
5.300620e-03
5.270522e-03
5.164820e-03
4.776844e-03
3.807674e-03
1.859321e-03
1.255727e-04
6.184626e-03
5.608911e-03
4.712413e-03
4.304314e-03
4.070638e-03
3.887945e-03
3.658059e-03
3.250982e-03
2.491043e-03
1.237186e-03
2.349062e-04
5.323031e-03
4.782001e-03
3.956544e-03
3.546573e-03
3.290790e-03
3.096355e-03
2.887152e-03
2.559163e-03
1.993291e-03
1.094946e-03
3.887969e-04
4.450201e-03
4.007445e-03
3.342344e-03
2.994543e-03
2.787138e-03
2.643125e-03
2.483196e-03
2.222770e-03
1.783295e-03
1.107809e-03
5.936268e-04
3.626531e-03
3.300257e-03
2.817658e-03
2.564550e-03
2.436063e-03
2.350722e-03
2.236674e-03
2.032092e-03
1.685511e-03
1.171610e-03
8.013242e-04
2.891086e-03
2.665059e-03
2.351347e-03
2.207777e-03
2.160647e-03
2.133051e-03
2.062293e-03
1.905550e-03
1.635339e-03
1.254361e-03
9.982383e-04
2.251580e-03
2.101292e-03
1.934348e-03
1.902013e-03
1.932904e-03
1.957139e-03
1.925927e-03
1.812355e-03
1.609095e-03
1.339295e-03
1.171267e-03
1.699788e-03
1.608668e-03
1.570432e-03
1.643440e-03
1.746234e-03
1.815799e-03
1.817879e-03
1.741807e-03
1.596086e-03
1.416042e-03
1.314411e-03
1.221430e-03
1.179367e-03
1.260248e-03
1.435650e-03
1.601230e-03
1.707202e-03
1.735123e-03
1.689147e-03
1.590425e-03
1.479585e-03
1.425920e-03
7.973323e-04
8.064900e-04
1.019068e-03
1.287629e-03
1.499487e-03
1.629635e-03
1.675421e-03
1.652604e-03
1.589734e-03
1.528176e-03
1.506842e-03
4.095764e-04
5.139151e-04
8.714798e-04
1.201400e-03
1.439065e-03
1.582670e-03
1.639983e-03
1.632598e-03
1.592472e-03
1.559869e-03
1.556691e-03
1.603613e-04
3.960231e-04
8.224939e-04
1.169886e-03
1.416184e-03
1.565434e-03
1.628336e-03
1.627309e-03
1.594935e-03
1.571267e-03
1.573283e-03
</DataArray>
<DataArray Name="stress" type="Float64" NumberOfComponents="9" format="ascii">
-8.259538e+04 2.388039e+03 0.000000e+00 2.388039e+03 -1.247121e+05 0.000000e+00 0.000000e+00 0.000000e+00 0.000000e+00
-7.687130e+04 2.584389e+03 0.000000e+00 2.584389e+03 -1.251958e+05 0.000000e+00 0.000000e+00 0.000000e+00 0.000000e+00
-7.470452e+04 2.958435e+03 0.000000e+00 2.958435e+03 -1.310457e+05 0.000000e+00 0.000000e+00 0.000000e+00 0.000000e+00
-7.431370e+04 3.591071e+03 0.000000e+00 3.591071e+03 -1.376643e+05 0.000000e+00 0.000000e+00 0.000000e+00 0.000000e+00
-7.541156e+04 4.160028e+03 0.000000e+00 4.160028e+03 -1.450617e+05 0.000000e+00 0.000000e+00 0.000000e+00 0.000000e+00
-7.822629e+04 4.512409e+03 0.000000e+00 4.512409e+03 -1.528190e+05 0.000000e+00 0.000000e+00 0.000000e+00 0.000000e+00
-8.212840e+04 4.562302e+03 0.000000e+00 4.562302e+03 -1.604994e+05 0.000000e+00 0.000000e+00 0.000000e+00 0.000000e+00
-8.713349e+04 3.982505e+03 0.000000e+00 3.982505e+03 -1.671663e+05 0.000000e+00 0.000000e+00 0.000000e+00 0.000000e+00
-9.430257e+04 2.178324e+03 0.000000e+00 2.178324e+03 -1.711253e+05 0.000000e+00 0.000000e+00 0.000000e+00 0.000000e+00
-1.039573e+05 -3.300741e+02 0.000000e+00 -3.300741e+02 -1.730262e+05 0.000000e+00 0.000000e+00 0.000000e+00 0.000000e+00
-1.086269e+05 -1.074713e+03 0.000000e+00 -1.074713e+03 -1.723852e+05 0.000000e+00 0.000000e+00 0.000000e+00 0.000000e+00
-8.204462e+04 6.932954e+03 0.000000e+00 6.932954e+03 -1.210104e+05 0.000000e+00 0.000000e+00 0.000000e+00 0.000000e+00
-7.676111e+04 6.815396e+03 0.000000e+00 6.815396e+03 -1.213327e+05 0.000000e+00 0.000000e+00 0.000000e+00 0.000000e+00
-7.489055e+04 7.040321e+03 0.000000e+00 7.040321e+03 -1.267619e+05 0.000000e+00 0.000000e+00 0.000000e+00 0.000000e+00
-7.489323e+04 7.774247e+03 0.000000e+00 7.774247e+03 -1.328154e+05 0.000000e+00 0.000000e+00 0.000000e+00 0.000000e+00
-7.611047e+04 8.496159e+03 0.000000e+00 8.496159e+03 -1.396568e+05 0.000000e+00 0.000000e+00 0.000000e+00 0.000000e+00
-7.888965e+04 9.034888e+03 0.000000e+00 9.034888e+03 -1.471274e+05 0.000000e+00 0.000000e+00 0.000000e+00 0.000000e+00
-8.249467e+04 9.119680e+03 0.000000e+00 9.119680e+03 -1.550396e+05 0.000000e+00 0.000000e+00 0.000000e+00 0.000000e+00
-8.683086e+04 8.304035e+03 0.000000e+00 8.304035e+03 -1.633067e+05 0.000000e+00 0.000000e+00 0.000000e+00 0.000000e+00
-9.272112e+04 5.722171e+03 0.000000e+00 5.722171e+03 -1.719477e+05 0.000000e+00 0.000000e+00 0.000000e+00 0.000000e+00
-1.000768e+05 1.015441e+03 0.000000e+00 1.015441e+03 -1.770962e+05 0.000000e+00 0.000000e+00 0.000000e+00 0.000000e+00
-1.118669e+05 -3.485323e+03 0.000000e+00 -3.485323e+03 -1.856875e+05 0.000000e+00 0.000000e+00 0.000000e+00 0.000000e+00
-8.067294e+04 1.204598e+04 0.000000e+00 1.204598e+04 -1.130100e+05 0.000000e+00 0.000000e+00 0.000000e+00 0.000000e+00
-7.658066e+04 1.190249e+04 0.000000e+00 1.190249e+04 -1.127599e+05 0.000000e+00 0.000000e+00 0.000000e+00 0.000000e+00
-7.519759e+04 1.241357e+04 0.000000e+00 1.241357e+04 -1.161610e+05 0.000000e+00 0.000000e+00 0.000000e+00 0.000000e+00
-7.578772e+04 1.379621e+04 0.000000e+00 1.379621e+04 -1.198625e+05 0.000000e+00 0.000000e+00 0.000000e+00 0.000000e+00
-7.769877e+04 1.569444e+04 0.000000e+00 1.569444e+04 -1.243960e+05 0.000000e+00 0.000000e+00 0.000000e+00 0.000000e+00
-8.134773e+04 1.766586e+04 0.000000e+00 1.766586e+04 -1.302034e+05 0.000000e+00 0.000000e+00 0.000000e+00 0.000000e+00
-8.600698e+04 1.930096e+04 0.000000e+00 1.930096e+04 -1.372326e+05 0.000000e+00 0.000000e+00 0.000000e+00 0.000000e+00
-9.150203e+04 2.048045e+04 0.000000e+00 2.048045e+04 -1.464812e+05 0.000000e+00 0.000000e+00 0.000000e+00 0.000000e+00
-9.835689e+04 2.014508e+04 0.000000e+00 2.014508e+04 -1.581147e+05 0.000000e+00 0.000000e+00 0.000000e+00 0.000000e+00
-1.088113e+05 1.760344e+04 0.000000e+00 1.760344e+04 -1.726727e+05 0.000000e+00 0.000000e+00 0.000000e+00 0.000000e+00
-1.284635e+05 1.410685e+04 0.000000e+00 1.410685e+04 -1.933513e+05 0.000000e+00 0.000000e+00 0.000000e+00 0.000000e+00
-7.859906e+04 1.443966e+04 0.000000e+00 1.443966e+04 -1.036985e+05 0.000000e+00 0.000000e+00 0.000000e+00 0.000000e+00
-7.623444e+04 1.422177e+04 0.000000e+00 1.422177e+04 -1.031375e+05 0.000000e+00 0.000000e+00 0.000000e+00 0.000000e+00
-7.576120e+04 1.457021e+04 0.000000e+00 1.457021e+04 -1.041197e+05 0.000000e+00 0.000000e+00 0.000000e+00 0.000000e+00
-7.658621e+04 1.585297e+04 0.000000e+00 1.585297e+04 -1.044199e+05 0.000000e+00 0.000000e+00 0.000000e+00 0.000000e+00
-7.777633e+04 1.769295e+04 0.000000e+00 1.769295e+04 -1.037099e+05 0.000000e+00 0.000000e+00 0.000000e+00 0.000000e+00
-7.938046e+04 1.943178e+04 0.000000e+00 1.943178e+04 -1.018336e+05 0.000000e+00 0.000000e+00 0.000000e+00 0.000000e+00
-8.127544e+04 2.042876e+04 0.000000e+00 2.042876e+04 -9.909917e+04 0.000000e+00 0.000000e+00 0.000000e+00 0.000000e+00
-8.280752e+04 2.134385e+04 0.000000e+00 2.134385e+04 -9.526125e+04 0.000000e+00 0.000000e+00 0.000000e+00 0.000000e+00
-8.342506e+04 2.072722e+04 0.000000e+00 2.072722e+04 -8.912327e+04 0.000000e+00 0.000000e+00 0.000000e+00 0.000000e+00
-8.172608e+04 1.743068e+04 0.000000e+00 1.743068e+04 -7.904627e+04 0.000000e+00 0.000000e+00 0.000000e+00 0.000000e+00
-7.673348e+04 1.480280e+04 0.000000e+00 1.480280e+04 -7.291766e+04 0.000000e+00 0.000000e+00 0.000000e+00 0.000000e+00
-7.610853e+04 1.500396e+04 0.000000e+00 1.500396e+04 -9.460648e+04 0.000000e+00 0.000000e+00 0.000000e+00 0.000000e+00
-7.565576e+04 1.471313e+04 0.000000e+00 1.471313e+04 -9.422544e+04 0.000000e+00 0.000000e+00 0.000000e+00 0.000000e+00
-7.657788e+04 1.456096e+04 0.000000e+00 1.456096e+04 -9.395795e+04 0.000000e+00 0.000000e+00 0.000000e+00 0.000000e+00
-7.838949e+04 1.509485e+04 0.000000e+00 1.509485e+04 -9.303821e+04 0.000000e+00 0.000000e+00 0.000000e+00 0.000000e+00
-8.029207e+04 1.590233e+04 0.000000e+00 1.590233e+04 -9.132938e+04 0.000000e+00 0.000000e+00 0.000000e+00 0.000000e+00
-8.222814e+04 1.672367e+04 0.000000e+00 1.672367e+04 -8.860124e+04 0.000000e+00 0.000000e+00 0.000000e+00 0.000000e+00
-8.441300e+04 1.703513e+04 0.000000e+00 1.703513e+04 -8.489849e+04 0.000000e+00 0.000000e+00 0.000000e+00 0.000000e+00
-8.594856e+04 1.641010e+04 0.000000e+00 1.641010e+04 -7.992798e+04 0.000000e+00 0.000000e+00 0.000000e+00 0.000000e+00
-8.625998e+04 1.402884e+04 0.000000e+00 1.402884e+04 -7.308840e+04 0.000000e+00 0.000000e+00 0.000000e+00 0.000000e+00
-8.193414e+04 7.508990e+03 0.000000e+00 7.508990e+03 -6.684642e+04 0.000000e+00 0.000000e+00 0.000000e+00 0.000000e+00
-6.460940e+04 1.792962e+03 0.000000e+00 1.792962e+03 -5.889228e+04 0.000000e+00 0.000000e+00 0.000000e+00 0.000000e+00
-7.339043e+04 1.453566e+04 0.000000e+00 1.453566e+04 -8.628755e+04 0.000000e+00 0.000000e+00 0.000000e+00 0.000000e+00
-7.465416e+04 1.418163e+04 0.000000e+00 1.418163e+04 -8.607569e+04 0.000000e+00 0.000000e+00 0.000000e+00 0.000000e+00
-7.666945e+04 1.355509e+04 0.000000e+00 1.355509e+04 -8.507684e+04 0.000000e+00 0.000000e+00 0.000000e+00 0.000000e+00
-7.891998e+04 1.341694e+04 0.000000e+00 1.341694e+04 -8.356852e+04 0.000000e+00 0.000000e+00 0.000000e+00 0.000000e+00
-8.091495e+04 1.335782e+04 0.000000e+00 1.335782e+04 -8.143860e+04 0.000000e+00 0.000000e+00 0.000000e+00 0.000000e+00
-8.260034e+04 1.309759e+04 0.000000e+00 1.309759e+04 -7.854217e+04 0.000000e+00 0.000000e+00 0.000000e+00 0.000000e+00
-8.387938e+04 1.225061e+04 0.000000e+00 1.225061e+04 -7.487684e+04 0.000000e+00 0.000000e+00 0.000000e+00 0.000000e+00
-8.423015e+04 1.039354e+04 0.000000e+00 1.039354e+04 -7.040938e+04 0.000000e+00 0.000000e+00 0.000000e+00 0.000000e+00
-8.229252e+04 6.897740e+03 0.000000e+00 6.897740e+03 -6.573864e+04 0.000000e+00 0.000000e+00 0.000000e+00 0.000000e+00
-7.316845e+04 2.080010e+03 0.000000e+00 2.080010e+03 -6.214675e+04 0.000000e+00 0.000000e+00 0.000000e+00 0.000000e+00
-5.964260e+04 -2.320470e+02 0.000000e+00 -2.320470e+02 -5.884523e+04 0.000000e+00 0.000000e+00 0.000000e+00 0.000000e+00
-7.074931e+04 1.352325e+04 0.000000e+00 1.352325e+04 -7.943165e+04 0.000000e+00 0.000000e+00 0.000000e+00 0.000000e+00
-7.332188e+04 1.308724e+04 0.000000e+00 1.308724e+04 -7.933977e+04 0.000000e+00 0.000000e+00 0.000000e+00 0.000000e+00
-7.617551e+04 1.207012e+04 0.000000e+00 1.207012e+04 -7.800534e+04 0.000000e+00 0.000000e+00 0.000000e+00 0.000000e+00
-7.860833e+04 1.137746e+04 0.000000e+00 1.137746e+04 -7.634632e+04 0.000000e+00 0.000000e+00 0.000000e+00 0.000000e+00
-8.048248e+04 1.064231e+04 0.000000e+00 1.064231e+04 -7.423362e+04 0.000000e+00 0.000000e+00 0.000000e+00 0.000000e+00
-8.176884e+04 9.635734e+03 0.000000e+00 9.635734e+03 -7.162608e+04 0.000000e+00 0.000000e+00 0.000000e+00 0.000000e+00
-8.226477e+04 8.104881e+03 0.000000e+00 8.104881e+03 -6.860211e+04 0.000000e+00 0.000000e+00 0.000000e+00 0.000000e+00
-8.142559e+04 5.805021e+03 0.000000e+00 5.805021e+03 -6.540711e+04 0.000000e+00 0.000000e+00 0.000000e+00 0.000000e+00
-7.782327e+04 2.732771e+03 0.000000e+00 2.732771e+03 -6.253575e+04 0.000000e+00 0.000000e+00 0.000000e+00 0.000000e+00
-6.937886e+04 7.418767e+01 0.000000e+00 7.418767e+01 -6.068582e+04 0.000000e+00 0.000000e+00 0.000000e+00 0.000000e+00
-6.041826e+04 -8.866866e+02 0.000000e+00 -8.866866e+02 -5.902441e+04 0.000000e+00 0.000000e+00 0.000000e+00 0.000000e+00
-6.846867e+04 1.218649e+04 0.000000e+00 1.218649e+04 -7.414106e+04 0.000000e+00 0.000000e+00 0.000000e+00 0.000000e+00
-7.181548e+04 1.173782e+04 0.000000e+00 1.173782e+04 -7.408741e+04 0.000000e+00 0.000000e+00 0.000000e+00 0.000000e+00
-7.520056e+04 1.047191e+04 0.000000e+00 1.047191e+04 -7.265939e+04 0.000000e+00 0.000000e+00 0.000000e+00 0.000000e+00
-7.766327e+04 9.376278e+03 0.000000e+00 9.376278e+03 -7.105641e+04 0.000000e+00 0.000000e+00 0.000000e+00 0.000000e+00
-7.937367e+04 8.198207e+03 0.000000e+00 8.198207e+03 -6.918630e+04 0.000000e+00 0.000000e+00 0.000000e+00 0.000000e+00
-8.026084e+04 6.784996e+03 0.000000e+00 6.784996e+03 -6.709890e+04 0.000000e+00 0.000000e+00 0.000000e+00 0.000000e+00
-8.013734e+04 5.002472e+03 0.000000e+00 5.002472e+03 -6.486833e+04 0.000000e+00 0.000000e+00 0.000000e+00 0.000000e+00
-7.856047e+04 2.825812e+03 0.000000e+00 2.825812e+03 -6.273813e+04 0.000000e+00 0.000000e+00 0.000000e+00 0.000000e+00
-7.476019e+04 5.850976e+02 0.000000e+00 5.850976e+02 -6.107944e+04 0.000000e+00 0.000000e+00 0.000000e+00 0.000000e+00
-6.803020e+04 -7.231923e+02 0.000000e+00 -7.231923e+02 -6.021389e+04 0.000000e+00 0.000000e+00 0.000000e+00 0.000000e+00
-6.197949e+04 -9.079125e+02 0.000000e+00 -9.079125e+02 -5.934597e+04 0.000000e+00 0.000000e+00 0.000000e+00 0.000000e+00
-6.664315e+04 1.072457e+04 0.000000e+00 1.072457e+04 -7.023184e+04 0.000000e+00 0.000000e+00 0.000000e+00 0.000000e+00
-7.029709e+04 1.026077e+04 0.000000e+00 1.026077e+04 -7.015381e+04 0.000000e+00 0.000000e+00 0.000000e+00 0.000000e+00
-7.387903e+04 8.901391e+03 0.000000e+00 8.901391e+03 -6.873634e+04 0.000000e+00 0.000000e+00 0.000000e+00 0.000000e+00
-7.632636e+04 7.575310e+03 0.000000e+00 7.575310e+03 -6.730334e+04 0.000000e+00 0.000000e+00 0.000000e+00 0.000000e+00
-7.786953e+04 6.184594e+03 0.000000e+00 6.184594e+03 -6.578144e+04 0.000000e+00 0.000000e+00 0.000000e+00 0.000000e+00
-7.845504e+04 4.621661e+03 0.000000e+00 4.621661e+03 -6.417485e+04 0.000000e+00 0.000000e+00 0.000000e+00 0.000000e+00
-7.799938e+04 2.862396e+03 0.000000e+00 2.862396e+03 -6.260677e+04 0.000000e+00 0.000000e+00 0.000000e+00 0.000000e+00
-7.624743e+04 1.042600e+03 0.000000e+00 1.042600e+03 -6.127268e+04 0.000000e+00 0.000000e+00 0.000000e+00 0.000000e+00
-7.289770e+04 -4.658160e+02 0.000000e+00 -4.658160e+02 -6.038775e+04 0.000000e+00 0.000000e+00 0.000000e+00 0.000000e+00
-6.787526e+04 -9.832906e+02 0.000000e+00 -9.832906e+02 -6.002013e+04 0.000000e+00 0.000000e+00 0.000000e+00 0.000000e+00
-6.374741e+04 -8.528103e+02 0.000000e+00 -8.528103e+02 -5.951661e+04 0.000000e+00 0.000000e+00 0.000000e+00 0.000000e+00
-6.527355e+04 9.276054e+03 0.000000e+00 9.276054e+03 -6.740521e+04 0.000000e+00 0.000000e+00 0.000000e+00 0.000000e+00
-6.882477e+04 8.780302e+03 0.000000e+00 8.780302e+03 -6.729873e+04 0.000000e+00 0.000000e+00 0.000000e+00 0.000000e+00
-7.240373e+04 7.433698e+03 0.000000e+00 7.433698e+03 -6.596460e+04 0.000000e+00 0.000000e+00 0.000000e+00 0.000000e+00
-7.482014e+04 6.059785e+03 0.000000e+00 6.059785e+03 -6.471103e+04 0.000000e+00 0.000000e+00 0.000000e+00 0.000000e+00
-7.621019e+04 4.602096e+03 0.000000e+00 4.602096e+03 -6.347999e+04 0.000000e+00 0.000000e+00 0.000000e+00 0.000000e+00
-7.664111e+04 3.054311e+03 0.000000e+00 3.054311e+03 -6.228268e+04 0.000000e+00 0.000000e+00 0.000000e+00 0.000000e+00
-7.610503e+04 1.484293e+03 0.000000e+00 1.484293e+03 -6.124020e+04 0.000000e+00 0.000000e+00 0.000000e+00 0.000000e+00
-7.452903e+04 5.760094e+01 0.000000e+00 5.760094e+01 -6.046581e+04 0.000000e+00 0.000000e+00 0.000000e+00 0.000000e+00
-7.185461e+04 -9.179252e+02 0.000000e+00 -9.179252e+02 -6.004259e+04 0.000000e+00 0.000000e+00 0.000000e+00 0.000000e+00
-6.823958e+04 -1.020147e+03 0.000000e+00 -1.020147e+03 -5.993432e+04 0.000000e+00 0.000000e+00 0.000000e+00 0.000000e+00
-6.544056e+04 -7.509959e+02 0.000000e+00 -7.509959e+02 -5.964447e+04 0.000000e+00 0.000000e+00 0.000000e+00 0.000000e+00
-6.418530e+04 7.753415e+03 0.000000e+00 7.753415e+03 -6.546434e+04 0.000000e+00 0.000000e+00 0.000000e+00 0.000000e+00
-6.747119e+04 7.305999e+03 0.000000e+00 7.305999e+03 -6.529268e+04 0.000000e+00 0.000000e+00 0.000000e+00 0.000000e+00
-7.094488e+04 6.100983e+03 0.000000e+00 6.100983e+03 -6.405711e+04 0.000000e+00 0.000000e+00 0.000000e+00 0.000000e+00
-7.327695e+04 4.773316e+03 0.000000e+00 4.773316e+03 -6.295575e+04 0.000000e+00 0.000000e+00 0.000000e+00 0.000000e+00
-7.457760e+04 3.377480e+03 0.000000e+00 3.377480e+03 -6.195057e+04 0.000000e+00 0.000000e+00 0.000000e+00 0.000000e+00
-7.497995e+04 1.970186e+03 0.000000e+00 1.970186e+03 -6.108728e+04 0.000000e+00 0.000000e+00 0.000000e+00 0.000000e+00
-7.454432e+04 6.510428e+02 0.000000e+00 6.510428e+02 -6.042605e+04 0.000000e+00 0.000000e+00 0.000000e+00 0.000000e+00
-7.329942e+04 -4.300264e+02 0.000000e+00 -4.300264e+02 -6.001280e+04 0.000000e+00 0.000000e+00 0.000000e+00 0.000000e+00
-7.130566e+04 -1.051323e+03 0.000000e+00 -1.051323e+03 -5.986059e+04 0.000000e+00 0.000000e+00 0.000000e+00 0.000000e+00
-6.880409e+04 -9.432243e+02 0.000000e+00 -9.432243e+02 -5.988997e+04 0.000000e+00 0.000000e+00 0.000000e+00 0.000000e+00
-6.695676e+04 -6.389864e+02 0.000000e+00 -6.389864e+02 -5.974752e+04 0.000000e+00 0.000000e+00 0.000000e+00 0.000000e+00
-6.339371e+04 6.276500e+03 0.000000e+00 6.276500e+03 -6.414266e+04 0.000000e+00 0.000000e+00 0.000000e+00 0.000000e+00
-6.635271e+04 5.911247e+03 0.000000e+00 5.911247e+03 -6.392590e+04 0.000000e+00 0.000000e+00 0.000000e+00 0.000000e+00
-6.960639e+04 4.875802e+03 0.000000e+00 4.875802e+03 -6.276614e+04 0.000000e+00 0.000000e+00 0.000000e+00 0.000000e+00
-7.181531e+04 3.671814e+03 0.000000e+00 3.671814e+03 -6.177513e+04 0.000000e+00 0.000000e+00 0.000000e+00 0.000000e+00
-7.310120e+04 2.436494e+03 0.000000e+00 2.436494e+03 -6.095842e+04 0.000000e+00 0.000000e+00 0.000000e+00 0.000000e+00
-7.355753e+04 1.242479e+03 0.000000e+00 1.242479e+03 -6.033975e+04 0.000000e+00 0.000000e+00 0.000000e+00 0.000000e+00
-7.331215e+04 1.870713e+02 0.000000e+00 1.870713e+02 -5.993501e+04 0.000000e+00 0.000000e+00 0.000000e+00 0.000000e+00
-7.243309e+04 -6.152740e+02 0.000000e+00 -6.152740e+02 -5.975612e+04 0.000000e+00 0.000000e+00 0.000000e+00 0.000000e+00
-7.104702e+04 -1.005707e+03 0.000000e+00 -1.005707e+03 -5.976330e+04 0.000000e+00 0.000000e+00 0.000000e+00 0.000000e+00
-6.940437e+04 -8.105048e+02 0.000000e+00 -8.105048e+02 -5.986879e+04 0.000000e+00 0.000000e+00 0.000000e+00 0.000000e+00
-6.825685e+04 -5.231810e+02 0.000000e+00 -5.231810e+02 -5.982384e+04 0.000000e+00 0.000000e+00 0.000000e+00 0.000000e+00
-6.281200e+04 4.865196e+03 0.000000e+00 4.865196e+03 -6.325930e+04 0.000000e+00 0.000000e+00 0.000000e+00 0.000000e+00
-6.543709e+04 4.556333e+03 0.000000e+00 4.556333e+03 -6.300339e+04 0.000000e+00 0.000000e+00 0.000000e+00 0.000000e+00
-6.842607e+04 3.702617e+03 0.000000e+00 3.702617e+03 -6.191539e+04 0.000000e+00 0.000000e+00 0.000000e+00 0.000000e+00
-7.055205e+04 2.726261e+03 0.000000e+00 2.726261e+03 -6.102473e+04 0.000000e+00 0.000000e+00 0.000000e+00 0.000000e+00
-7.185365e+04 1.710755e+03 0.000000e+00 1.710755e+03 -6.035469e+04 0.000000e+00 0.000000e+00 0.000000e+00 0.000000e+00
-7.241742e+04 7.632938e+02 0.000000e+00 7.632938e+02 -5.989945e+04 0.000000e+00 0.000000e+00 0.000000e+00 0.000000e+00
-7.237080e+04 -4.325230e+01 0.000000e+00 -4.325230e+01 -5.966542e+04 0.000000e+00 0.000000e+00 0.000000e+00 0.000000e+00
-7.183262e+04 -6.220854e+02 0.000000e+00 -6.220854e+02 -5.962202e+04 0.000000e+00 0.000000e+00 0.000000e+00 0.000000e+00
-7.095048e+04 -8.625330e+02 0.000000e+00 -8.625330e+02 -5.971843e+04 0.000000e+00 0.000000e+00 0.000000e+00 0.000000e+00
-6.995459e+04 -6.524261e+02 0.000000e+00 -6.524261e+02 -5.986195e+04 0.000000e+00 0.000000e+00 0.000000e+00 0.000000e+00
-6.931420e+04 -4.057451e+02 0.000000e+00 -4.057451e+02 -5.987642e+04 0.000000e+00 0.000000e+00 0.000000e+00 0.000000e+00
-6.235791e+04 3.509563e+03 0.000000e+00 3.509563e+03 -6.265458e+04 0.000000e+00 0.000000e+00 0.000000e+00 0.000000e+00
-6.471604e+04 3.268651e+03 0.000000e+00 3.268651e+03 -6.237360e+04 0.000000e+00 0.000000e+00 0.000000e+00 0.000000e+00
-6.750306e+04 2.634845e+03 0.000000e+00 2.634845e+03 -6.135756e+04 0.000000e+00 0.000000e+00 0.000000e+00 0.000000e+00
-6.955694e+04 1.901856e+03 0.000000e+00 1.901856e+03 -6.055327e+04 0.000000e+00 0.000000e+00 0.000000e+00 0.000000e+00
-7.087916e+04 1.144708e+03 0.000000e+00 1.144708e+03 -5.998890e+04 0.000000e+00 0.000000e+00 0.000000e+00 0.000000e+00
-7.155220e+04 4.476511e+02 0.000000e+00 4.476511e+02 -5.965275e+04 0.000000e+00 0.000000e+00 0.000000e+00 0.000000e+00
-7.168665e+04 -1.316888e+02 0.000000e+00 -1.316888e+02 -5.952483e+04 0.000000e+00 0.000000e+00 0.000000e+00 0.000000e+00
-7.142697e+04 -5.283341e+02 0.000000e+00 -5.283341e+02 -5.956193e+04 0.000000e+00 0.000000e+00 0.000000e+00 0.000000e+00
-7.093642e+04 -6.687878e+02 0.000000e+00 -6.687878e+02 -5.970438e+04 0.000000e+00 0.000000e+00 0.000000e+00 0.000000e+00
-7.040877e+04 -4.879298e+02 0.000000e+00 -4.879298e+02 -5.986446e+04 0.000000e+00 0.000000e+00 0.000000e+00 0.000000e+00
-7.012084e+04 -2.937440e+02 0.000000e+00 -2.937440e+02 -5.991732e+04 0.000000e+00 0.000000e+00 0.000000e+00 0.000000e+00
-6.204215e+04 2.188168e+03 0.000000e+00 2.188168e+03 -6.218722e+04 0.000000e+00 0.000000e+00 0.000000e+00 0.000000e+00
-6.421545e+04 2.039487e+03 0.000000e+00 2.039487e+03 -6.190529e+04 0.000000e+00 0.000000e+00 0.000000e+00 0.000000e+00
-6.685289e+04 1.641219e+03 0.000000e+00 1.641219e+03 -6.096017e+04 0.000000e+00 0.000000e+00 0.000000e+00 0.000000e+00
-6.885707e+04 1.175214e+03 0.000000e+00 1.175214e+03 -6.024224e+04 0.000000e+00 0.000000e+00 0.000000e+00 0.000000e+00
-7.019863e+04 6.947702e+02 0.000000e+00 6.947702e+02 -5.975529e+04 0.000000e+00 0.000000e+00 0.000000e+00 0.000000e+00
-7.094715e+04 2.418113e+02 0.000000e+00 2.418113e+02 -5.950841e+04 0.000000e+00 0.000000e+00 0.000000e+00 0.000000e+00
-7.122615e+04 -1.318644e+02 0.000000e+00 -1.318644e+02 -5.944701e+04 0.000000e+00 0.000000e+00 0.000000e+00 0.000000e+00
-7.117115e+04 -3.775455e+02 0.000000e+00 -3.775455e+02 -5.953507e+04 0.000000e+00 0.000000e+00 0.000000e+00 0.000000e+00
-7.095320e+04 -4.522593e+02 0.000000e+00 -4.522593e+02 -5.970373e+04 0.000000e+00 0.000000e+00 0.000000e+00 0.000000e+00
-7.074140e+04 -3.228567e+02 0.000000e+00 -3.228567e+02 -5.986964e+04 0.000000e+00 0.000000e+00 0.000000e+00 0.000000e+00
-7.068182e+04 -1.919776e+02 0.000000e+00 -1.919776e+02 -5.995131e+04 0.000000e+00 0.000000e+00 0.000000e+00 0.000000e+00
-6.181417e+04 9.361797e+02 0.000000e+00 9.361797e+02 -6.172938e+04 0.000000e+00 0.000000e+00 0.000000e+00 0.000000e+00
-6.395368e+04 9.138926e+02 0.000000e+00 9.138926e+02 -6.148939e+04 0.000000e+00 0.000000e+00 0.000000e+00 0.000000e+00
-6.649648e+04 7.522278e+02 0.000000e+00 7.522278e+02 -6.065372e+04 0.000000e+00 0.000000e+00 0.000000e+00 0.000000e+00
-6.845738e+04 5.471129e+02 0.000000e+00 5.471129e+02 -6.004223e+04 0.000000e+00 0.000000e+00 0.000000e+00 0.000000e+00
-6.980575e+04 3.254961e+02 0.000000e+00 3.254961e+02 -5.962709e+04 0.000000e+00 0.000000e+00 0.000000e+00 0.000000e+00
-7.059033e+04 1.065512e+02 0.000000e+00 1.065512e+02 -5.943322e+04 0.000000e+00 0.000000e+00 0.000000e+00 0.000000e+00
-7.095952e+04 -7.758913e+01 0.000000e+00 -7.758913e+01 -5.940927e+04 0.000000e+00 0.000000e+00 0.000000e+00 0.000000e+00
-7.103284e+04 -1.960138e+02 0.000000e+00 -1.960138e+02 -5.952636e+04 0.000000e+00 0.000000e+00 0.000000e+00 0.000000e+00
-7.097238e+04 -2.272748e+02 0.000000e+00 -2.272748e+02 -5.970564e+04 0.000000e+00 0.000000e+00 0.000000e+00 0.000000e+00
-7.094161e+04 -1.607047e+02 0.000000e+00 -1.607047e+02 -5.987134e+04 0.000000e+00 0.000000e+00 0.000000e+00 0.000000e+00
-7.101020e+04 -9.717211e+01 0.000000e+00 -9.717211e+01 -5.996939e+04 0.000000e+00 0.000000e+00 0.000000e+00 0.000000e+00
-6.163756e+04 8.195634e+01 0.000000e+00 8.195634e+01 -6.123785e+04 0.000000e+00 0.000000e+00 0.000000e+00 0.000000e+00
-6.383906e+04 1.766354e+02 0.000000e+00 1.766354e+02 -6.114816e+04 0.000000e+00 0.000000e+00 0.000000e+00 0.000000e+00
-6.638676e+04 1.901388e+02 0.000000e+00 1.901388e+02 -6.050386e+04 0.000000e+00 0.000000e+00 0.000000e+00 0.000000e+00
-6.833308e+04 1.440730e+02 0.000000e+00 1.440730e+02 -5.997481e+04 0.000000e+00 0.000000e+00 0.000000e+00 0.000000e+00
-6.968080e+04 8.349606e+01 0.000000e+00 8.349606e+01 -5.959511e+04 0.000000e+00 0.000000e+00 0.000000e+00 0.000000e+00
-7.047305e+04 1.021737e+01 0.000000e+00 1.021737e+01 -5.941315e+04 0.000000e+00 0.000000e+00 0.000000e+00 0.000000e+00
-7.087116e+04 -5.572779e+01 0.000000e+00 -5.572779e+01 -5.939530e+04 0.000000e+00 0.000000e+00 0.000000e+00 0.000000e+00
-7.098859e+04 -9.852851e+01 0.000000e+00 -9.852851e+01 -5.952157e+04 0.000000e+00 0.000000e+00 0.000000e+00 0.000000e+00
-7.098030e+04 -1.079240e+02 0.000000e+00 -1.079240e+02 -5.970408e+04 0.000000e+00 0.000000e+00 0.000000e+00 0.000000e+00
-7.100769e+04 -8.448293e+01 0.000000e+00 -8.448293e+01 -5.987021e+04 0.000000e+00 0.000000e+00 0.000000e+00 0.000000e+00
-7.111777e+04 -6.177878e+01 0.000000e+00 -6.177878e+01 -5.997127e+04 0.000000e+00 0.000000e+00 0.000000e+00 0.000000e+00
</DataArray>
<DataArray Name="vol_eps" type="Float64" NumberOfComponents="1" format="ascii">
-5.633689e-03
-5.227639e-03
-5.213171e-03
-5.320848e-03
-5.644090e-03
-6.218680e-03
-6.989799e-03
-7.911433e-03
-8.981515e-03
-1.005096e-02
-1.035257e-02
-5.369037e-03
-4.979937e-03
-4.996541e-03
-5.139929e-03
-5.432142e-03
-5.936948e-03
-6.607641e-03
-7.480151e-03
-8.633747e-03
-9.747116e-03
-1.133273e-02
-4.772774e-03
-4.435967e-03
-4.440349e-03
-4.566445e-03
-4.784231e-03
-5.135745e-03
-5.526043e-03
-6.020498e-03
-6.797352e-03
-8.097948e-03
-1.068340e-02
-4.027915e-03
-3.807219e-03
-3.798909e-03
-3.807293e-03
-3.715534e-03
-3.484156e-03
-3.095833e-03
-2.485520e-03
-1.605040e-03
-1.361658e-04
1.187685e-03
-3.248108e-03
-3.192963e-03
-3.248407e-03
-3.306050e-03
-3.306519e-03
-3.235164e-03
-3.118341e-03
-2.880940e-03
-2.458604e-03
-1.816156e-03
-1.819438e-04
-2.515454e-03
-2.600591e-03
-2.691328e-03
-2.746082e-03
-2.737975e-03
-2.657398e-03
-2.503680e-03
-2.234936e-03
-1.800672e-03
-9.726157e-04
1.207578e-04
-1.890332e-03
-2.076139e-03
-2.196443e-03
-2.251414e-03
-2.238233e-03
-2.155124e-03
-1.990622e-03
-1.721895e-03
-1.295949e-03
-6.363852e-04
4.252433e-05
-1.395079e-03
-1.634944e-03
-1.782074e-03
-1.844471e-03
-1.836723e-03
-1.758290e-03
-1.600635e-03
-1.355430e-03
-1.002519e-03
-5.217529e-04
-8.290952e-05
-1.027273e-03
-1.282509e-03
-1.441236e-03
-1.513774e-03
-1.515016e-03
-1.444956e-03
-1.309890e-03
-1.109157e-03
-8.385290e-04
-4.990700e-04
-2.069417e-04
-7.636576e-04
-1.006900e-03
-1.166533e-03
-1.244811e-03
-1.253659e-03
-1.201327e-03
-1.097320e-03
-9.464839e-04
-7.500309e-04
-5.159754e-04
-3.221461e-04
-5.798073e-04
-7.954969e-04
-9.495213e-04
-1.029414e-03
-1.046432e-03
-1.015132e-03
-9.441097e-04
-8.384678e-04
-7.035420e-04
-5.483057e-04
-4.230551e-04
-4.553586e-04
-6.422611e-04
-7.816664e-04
-8.585999e-04
-8.871137e-04
-8.752601e-04
-8.334980e-04
-7.667182e-04
-6.808694e-04
-5.846837e-04
-5.093316e-04
-3.737203e-04
-5.318180e-04
-6.546940e-04
-7.307189e-04
-7.686904e-04
-7.740174e-04
-7.560736e-04
-7.201641e-04
-6.719031e-04
-6.189608e-04
-5.794208e-04
-3.166885e-04
-4.527179e-04
-5.627894e-04
-6.383017e-04
-6.835817e-04
-7.032275e-04
-7.036295e-04
-6.905995e-04
-6.700102e-04
-6.475796e-04
-6.329473e-04
-2.739535e-04
-3.959470e-04
-4.986611e-04
-5.746481e-04
-6.261682e-04
-6.560484e-04
-6.695588e-04
-6.726095e-04
-6.708443e-04
-6.687096e-04
-6.704231e-04
-2.322535e-04
-3.543211e-04
-4.584307e-04
-5.372157e-04
-5.936263e-04
-6.290626e-04
-6.504308e-04
-6.630915e-04
-6.718202e-04
-6.810930e-04
-6.917567e-04
-1.900883e-04
-3.255207e-04
-4.423380e-04
-5.255078e-04
-5.839964e-04
-6.204504e-04
-6.439735e-04
-6.597713e-04
-6.719727e-04
-6.849991e-04
-6.984717e-04
</DataArray>
</PointData>
</Piece>
</UnstructuredGrid>
</VTKFile>
