<?xml version="1.0"?>
<VTKFile type="UnstructuredGrid" version="0.1">
<UnstructuredGrid>
<FieldData>
<DataArray Name="TIME" type="Float64" format="ascii" NumberOfTuples="1">
0.000000e+00
</DataArray>
</FieldData>
<FieldData>
<DataArray Name="CYCLE" type="Int32" format="ascii" NumberOfTuples="1">
0
</DataArray>
</FieldData>
<Piece NumberOfPoints="187" NumberOfCells="160">
<Points>
<DataArray NumberOfComponents="3" type="Float64" format="ascii">
0.000000e+00 0.000000e+00 0.000000e+00
0.000000e+00 1.974311e-01 0.000000e+00
0.000000e+00 3.939866e-01 0.000000e+00
0.000000e+00 5.897681e-01 0.000000e+00
0.000000e+00 7.849255e-01 0.000000e+00
0.000000e+00 9.796349e-01 0.000000e+00
0.000000e+00 1.174203e+00 0.000000e+00
0.000000e+00 1.368963e+00 0.000000e+00
0.000000e+00 1.564310e+00 0.000000e+00
0.000000e+00 1.760597e+00 0.000000e+00
0.000000e+00 1.957250e+00 0.000000e+00
2.250000e-01 0.000000e+00 0.000000e+00
2.262154e-01 1.976281e-01 0.000000e+00
2.272908e-01 3.944437e-01 0.000000e+00
2.281856e-01 5.905935e-01 0.000000e+00
2.288192e-01 7.861822e-01 0.000000e+00
2.290747e-01 9.813154e-01 0.000000e+00
2.289171e-01 1.176114e+00 0.000000e+00
2.282697e-01 1.370759e+00 0.000000e+00
2.270731e-01 1.565550e+00 0.000000e+00
2.255884e-01 1.760763e+00 0.000000e+00
2.250000e-01 1.957250e+00 0.000000e+00
4.500000e-01 0.000000e+00 0.000000e+00
4.522718e-01 1.981691e-01 0.000000e+00
4.541713e-01 3.957990e-01 0.000000e+00
4.556866e-01 5.929752e-01 0.000000e+00
4.567799e-01 7.897210e-01 0.000000e+00
4.574192e-01 9.860129e-01 0.000000e+00
4.576416e-01 1.181764e+00 0.000000e+00
4.572650e-01 1.376833e+00 0.000000e+00
4.561244e-01 1.571073e+00 0.000000e+00
4.541759e-01 1.764373e+00 0.000000e+00
4.500000e-01 1.957250e+00 0.000000e+00
6.750000e-01 0.000000e+00 0.000000e+00
6.778488e-01 1.988069e-01 0.000000e+00
6.800731e-01 3.975299e-01 0.000000e+00
6.818245e-01 5.962846e-01 0.000000e+00
6.831878e-01 7.951425e-01 0.000000e+00
6.841920e-01 9.941213e-01 0.000000e+00
6.848416e-01 1.193236e+00 0.000000e+00
6.849493e-01 1.392595e+00 0.000000e+00
6.845594e-01 1.592243e+00 0.000000e+00
6.830755e-01 1.792283e+00 0.000000e+00
6.788874e-01 1.992880e+00 0.000000e+00
9.000000e-01 0.000000e+00 0.000000e+00
9.029801e-01 1.991121e-01 0.000000e+00
9.050919e-01 3.982890e-01 0.000000e+00
9.066724e-01 5.975837e-01 0.000000e+00
9.078609e-01 7.970002e-01 0.000000e+00
9.086974e-01 9.965597e-01 0.000000e+00
9.091410e-01 1.196306e+00 0.000000e+00
9.090837e-01 1.396244e+00 0.000000e+00
9.084506e-01 1.596431e+00 0.000000e+00
9.067486e-01 1.796824e+00 0.000000e+00
9.040226e-01 1.996826e+00 0.000000e+00
1.125000e+00 0.000000e+00 0.000000e+00
1.127902e+00 1.994075e-01 0.000000e+00
1.129796e+00 3.989140e-01 0.000000e+00
1.131185e+00 5.985423e-01 0.000000e+00
1.132210e+00 7.982987e-01 0.000000e+00
1.132883e+00 9.981967e-01 0.000000e+00
1.133172e+00 1.198248e+00 0.000000e+00
1.133009e+00 1.398459e+00 0.000000e+00
1.132285e+00 1.598805e+00 0.000000e+00
1.130955e+00 1.799113e+00 0.000000e+00
1.129315e+00 1.999203e+00 0.000000e+00
1.350000e+00 0.000000e+00 0.000000e+00
1.352654e+00 1.996233e-01 0.000000e+00
1.354325e+00 3.993661e-01 0.000000e+00
1.355543e+00 5.992249e-01 0.000000e+00
1.356415e+00 7.992017e-01 0.000000e+00
1.356964e+00 9.992961e-01 0.000000e+00
1.357157e+00 1.199506e+00 0.000000e+00
1.356945e+00 1.399820e+00 0.000000e+00
1.356328e+00 1.600171e+00 0.000000e+00
1.355399e+00 1.800441e+00 0.000000e+00
1.354405e+00 2.000525e+00 0.000000e+00
1.575000e+00 0.000000e+00 0.000000e+00
1.577310e+00 1.997743e-01 0.000000e+00
1.578769e+00 3.996737e-01 0.000000e+00
1.579825e+00 5.996833e-01 0.000000e+00
1.580578e+00 7.997895e-01 0.000000e+00
1.581033e+00 9.999891e-01 0.000000e+00
1.581166e+00 1.200278e+00 0.000000e+00
1.580981e+00 1.400622e+00 0.000000e+00
1.580532e+00 1.600952e+00 0.000000e+00
1.579926e+00 1.801191e+00 0.000000e+00
1.579342e+00 2.001297e+00 0.000000e+00
1.800000e+00 0.000000e+00 0.000000e+00
1.801926e+00 1.998644e-01 0.000000e+00
1.803181e+00 3.998648e-01 0.000000e+00
1.804100e+00 5.999601e-01 0.000000e+00
1.804750e+00 8.001390e-01 0.000000e+00
1.805129e+00 1.000396e+00 0.000000e+00
1.805241e+00 1.200715e+00 0.000000e+00
1.805124e+00 1.401053e+00 0.000000e+00
1.804836e+00 1.601359e+00 0.000000e+00
1.804469e+00 1.801586e+00 0.000000e+00
1.804153e+00 2.001715e+00 0.000000e+00
2.025000e+00 0.000000e+00 0.000000e+00
2.026544e+00 1.999187e-01 0.000000e+00
2.027608e+00 3.999714e-01 0.000000e+00
2.028402e+00 6.001093e-01 0.000000e+00
2.028957e+00 8.003224e-01 0.000000e+00
2.029282e+00 1.000600e+00 0.000000e+00
2.029400e+00 1.200918e+00 0.000000e+00
2.029353e+00 1.401238e+00 0.000000e+00
2.029193e+00 1.601525e+00 0.000000e+00
2.028998e+00 1.801750e+00 0.000000e+00
2.028858e+00 2.001904e+00 0.000000e+00
2.250000e+00 0.000000e+00 0.000000e+00
2.251197e+00 1.999481e-01 0.000000e+00
2.252081e+00 4.000164e-01 0.000000e+00
2.252753e+00 6.001676e-01 0.000000e+00
2.253222e+00 8.003908e-01 0.000000e+00
2.253508e+00 1.000666e+00 0.000000e+00
2.253638e+00 1.200968e+00 0.000000e+00
2.253646e+00 1.401268e+00 0.000000e+00
2.253579e+00 1.601542e+00 0.000000e+00
2.253501e+00 1.801769e+00 0.000000e+00
2.253474e+00 2.001948e+00 0.000000e+00
2.475000e+00 0.000000e+00 0.000000e+00
2.475904e+00 1.999572e-01 0.000000e+00
2.476615e+00 4.000218e-01 0.000000e+00
2.477163e+00 6.001692e-01 0.000000e+00
2.477555e+00 8.003846e-01 0.000000e+00
2.477807e+00 1.000646e+00 0.000000e+00
2.477940e+00 1.200928e+00 0.000000e+00
2.477984e+00 1.401211e+00 0.000000e+00
2.477979e+00 1.601474e+00 0.000000e+00
2.477972e+00 1.801707e+00 0.000000e+00
2.478011e+00 2.001909e+00 0.000000e+00
2.700000e+00 0.000000e+00 0.000000e+00
2.700663e+00 1.999569e-01 0.000000e+00
2.701209e+00 4.000090e-01 0.000000e+00
2.701638e+00 6.001426e-01 0.000000e+00
2.701954e+00 8.003411e-01 0.000000e+00
2.702168e+00 1.000583e+00 0.000000e+00
2.702293e+00 1.200847e+00 0.000000e+00
2.702354e+00 1.401114e+00 0.000000e+00
2.702383e+00 1.601370e+00 0.000000e+00
2.702415e+00 1.801608e+00 0.000000e+00
2.702483e+00 2.001831e+00 0.000000e+00
2.925000e+00 0.000000e+00 0.000000e+00
2.925464e+00 1.999531e-01 0.000000e+00
2.925856e+00 3.999924e-01 0.000000e+00
2.926172e+00 6.001089e-01 0.000000e+00
2.926411e+00 8.002877e-01 0.000000e+00
2.926579e+00 1.000511e+00 0.000000e+00
2.926686e+00 1.200758e+00 0.000000e+00
2.926748e+00 1.401013e+00 0.000000e+00
2.926789e+00 1.601264e+00 0.000000e+00
2.926833e+00 1.801506e+00 0.000000e+00
2.926905e+00 2.001745e+00 0.000000e+00
3.150000e+00 0.000000e+00 0.000000e+00
3.150294e+00 1.999480e-01 0.000000e+00
3.150548e+00 3.999780e-01 0.000000e+00
3.150755e+00 6.000806e-01 0.000000e+00
3.150915e+00 8.002440e-01 0.000000e+00
3.151030e+00 1.000451e+00 0.000000e+00
3.151107e+00 1.200686e+00 0.000000e+00
3.151157e+00 1.400931e+00 0.000000e+00
3.151194e+00 1.601179e+00 0.000000e+00
3.151233e+00 1.801425e+00 0.000000e+00
3.151290e+00 2.001676e+00 0.000000e+00
3.375000e+00 0.000000e+00 0.000000e+00
3.375144e+00 1.999473e-01 0.000000e+00
3.375268e+00 3.999735e-01 0.000000e+00
3.375370e+00 6.000691e-01 0.000000e+00
3.375449e+00 8.002228e-01 0.000000e+00
3.375508e+00 1.000420e+00 0.000000e+00
3.375549e+00 1.200646e+00 0.000000e+00
3.375576e+00 1.400885e+00 0.000000e+00
3.375597e+00 1.601131e+00 0.000000e+00
3.375620e+00 1.801381e+00 0.000000e+00
3.375651e+00 2.001638e+00 0.000000e+00
3.600000e+00 0.000000e+00 0.000000e+00
3.600000e+00 1.999598e-01 0.000000e+00
3.600000e+00 3.999874e-01 0.000000e+00
3.600000e+00 6.000810e-01 0.000000e+00
3.600000e+00 8.002311e-01 0.000000e+00
3.600000e+00 1.000425e+00 0.000000e+00
3.600000e+00 1.200648e+00 0.000000e+00
3.600000e+00 1.400885e+00 0.000000e+00
3.600000e+00 1.601130e+00 0.000000e+00
3.600000e+00 1.801381e+00 0.000000e+00
3.600000e+00 2.001640e+00 0.000000e+00
</DataArray>
</Points>
<Cells>
<DataArray Name="connectivity" type="Int32" format="ascii">
0 11 12 1
1 12 13 2
2 13 14 3
3 14 15 4
4 15 16 5
5 16 17 6
6 17 18 7
7 18 19 8
8 19 20 9
9 20 21 10
11 22 23 12
12 23 24 13
13 24 25 14
14 25 26 15
15 26 27 16
16 27 28 17
17 28 29 18
18 29 30 19
19 30 31 20
20 31 32 21
22 33 34 23
23 34 35 24
24 35 36 25
25 36 37 26
26 37 38 27
27 38 39 28
28 39 40 29
29 40 41 30
30 41 42 31
31 42 43 32
33 44 45 34
34 45 46 35
35 46 47 36
36 47 48 37
37 48 49 38
38 49 50 39
39 50 51 40
40 51 52 41
41 52 53 42
42 53 54 43
44 55 56 45
45 56 57 46
46 57 58 47
47 58 59 48
48 59 60 49
49 60 61 50
50 61 62 51
51 62 63 52
52 63 64 53
53 64 65 54
55 66 67 56
56 67 68 57
57 68 69 58
58 69 70 59
59 70 71 60
60 71 72 61
61 72 73 62
62 73 74 63
63 74 75 64
64 75 76 65
66 77 78 67
67 78 79 68
68 79 80 69
69 80 81 70
70 81 82 71
71 82 83 72
72 83 84 73
73 84 85 74
74 85 86 75
75 86 87 76
77 88 89 78
78 89 90 79
79 90 91 80
80 91 92 81
81 92 93 82
82 93 94 83
83 94 95 84
84 95 96 85
85 96 97 86
86 97 98 87
88 99 100 89
89 100 101 90
90 101 102 91
91 102 103 92
92 103 104 93
93 104 105 94
94 105 106 95
95 106 107 96
96 107 108 97
97 108 109 98
99 110 111 100
100 111 112 101
101 112 113 102
102 113 114 103
103 114 115 104
104 115 116 105
105 116 117 106
106 117 118 107
107 118 119 108
108 119 120 109
110 121 122 111
111 122 123 112
112 123 124 113
113 124 125 114
114 125 126 115
115 126 127 116
116 127 128 117
117 128 129 118
118 129 130 119
119 130 131 120
121 132 133 122
122 133 134 123
123 134 135 124
124 135 136 125
125 136 137 126
126 137 138 127
127 138 139 128
128 139 140 129
129 140 141 130
130 141 142 131
132 143 144 133
133 144 145 134
134 145 146 135
135 146 147 136
136 147 148 137
137 148 149 138
138 149 150 139
139 150 151 140
140 151 152 141
141 152 153 142
143 154 155 144
144 155 156 145
145 156 157 146
146 157 158 147
147 158 159 148
148 159 160 149
149 160 161 150
150 161 162 151
151 162 163 152
152 163 164 153
154 165 166 155
155 166 167 156
156 167 168 157
157 168 169 158
158 169 170 159
159 170 171 160
160 171 172 161
161 172 173 162
162 173 174 163
163 174 175 164
165 176 177 166
166 177 178 167
167 178 179 168
168 179 180 169
169 180 181 170
170 181 182 171
171 182 183 172
172 183 184 173
173 184 185 174
174 185 186 175
</DataArray>
<DataArray Name="offsets" type="Int32" format="ascii">
4
8
12
16
20
24
28
32
36
40
44
48
52
56
60
64
68
72
76
80
84
88
92
96
100
104
108
112
116
120
124
128
132
136
140
144
148
152
156
160
164
168
172
176
180
184
188
192
196
200
204
208
212
216
220
224
228
232
236
240
244
248
252
256
260
264
268
272
276
280
284
288
292
296
300
304
308
312
316
320
324
328
332
336
340
344
348
352
356
360
364
368
372
376
380
384
388
392
396
400
404
408
412
416
420
424
428
432
436
440
444
448
452
456
460
464
468
472
476
480
484
488
492
496
500
504
508
512
516
520
524
528
532
536
540
544
548
552
556
560
564
568
572
576
580
584
588
592
596
600
604
608
612
616
620
624
628
632
636
640
</DataArray>
<DataArray Name="types" type="UInt8" format="ascii">
9
9
9
9
9
9
9
9
9
9
9
9
9
9
9
9
9
9
9
9
9
9
9
9
9
9
9
9
9
9
9
9
9
9
9
9
9
9
9
9
9
9
9
9
9
9
9
9
9
9
9
9
9
9
9
9
9
9
9
9
9
9
9
9
9
9
9
9
9
9
9
9
9
9
9
9
9
9
9
9
9
9
9
9
9
9
9
9
9
9
9
9
9
9
9
9
9
9
9
9
9
9
9
9
9
9
9
9
9
9
9
9
9
9
9
9
9
9
9
9
9
9
9
9
9
9
9
9
9
9
9
9
9
9
9
9
9
9
9
9
9
9
9
9
9
9
9
9
9
9
9
9
9
9
9
9
9
9
9
9
</DataArray>
</Cells>
<PointData>
<DataArray Name="disp" type="Float64" NumberOfComponents="3" format="ascii">
0.000000e+00 0.000000e+00 0.000000e+00
0.000000e+00 -2.568939e-03 0.000000e+00
0.000000e+00 -6.013427e-03 0.000000e+00
0.000000e+00 -1.023194e-02 0.000000e+00
0.000000e+00 -1.507452e-02 0.000000e+00
0.000000e+00 -2.036509e-02 0.000000e+00
0.000000e+00 -2.579748e-02 0.000000e+00
0.000000e+00 -3.103733e-02 0.000000e+00
0.000000e+00 -3.569032e-02 0.000000e+00
0.000000e+00 -3.940257e-02 0.000000e+00
0.000000e+00 -4.275000e-02 0.000000e+00
0.000000e+00 0.000000e+00 0.000000e+00
1.215415e-03 -2.371917e-03 0.000000e+00
2.290844e-03 -5.556273e-03 0.000000e+00
3.185625e-03 -9.406530e-03 0.000000e+00
3.819192e-03 -1.381777e-02 0.000000e+00
4.074711e-03 -1.868461e-02 0.000000e+00
3.917128e-03 -2.388552e-02 0.000000e+00
3.269714e-03 -2.924092e-02 0.000000e+00
2.073100e-03 -3.444965e-02 0.000000e+00
5.884242e-04 -3.923713e-02 0.000000e+00
0.000000e+00 -4.275000e-02 0.000000e+00
0.000000e+00 0.000000e+00 0.000000e+00
2.271771e-03 -1.830885e-03 0.000000e+00
4.171314e-03 -4.200991e-03 0.000000e+00
5.686607e-03 -7.024820e-03 0.000000e+00
6.779884e-03 -1.027898e-02 0.000000e+00
7.419255e-03 -1.398706e-02 0.000000e+00
7.641570e-03 -1.823558e-02 0.000000e+00
7.264978e-03 -2.316711e-02 0.000000e+00
6.124388e-03 -2.892712e-02 0.000000e+00
4.175865e-03 -3.562686e-02 0.000000e+00
0.000000e+00 -4.275000e-02 0.000000e+00
0.000000e+00 0.000000e+00 0.000000e+00
2.848760e-03 -1.193086e-03 0.000000e+00
5.073140e-03 -2.470084e-03 0.000000e+00
6.824511e-03 -3.715384e-03 0.000000e+00
8.187822e-03 -4.857545e-03 0.000000e+00
9.191984e-03 -5.878773e-03 0.000000e+00
9.841647e-03 -6.764100e-03 0.000000e+00
9.949356e-03 -7.405154e-03 0.000000e+00
9.559417e-03 -7.757054e-03 0.000000e+00
8.075528e-03 -7.716534e-03 0.000000e+00
3.887375e-03 -7.120382e-03 0.000000e+00
0.000000e+00 0.000000e+00 0.000000e+00
2.980134e-03 -8.878593e-04 0.000000e+00
5.091919e-03 -1.711016e-03 0.000000e+00
6.672355e-03 -2.416271e-03 0.000000e+00
7.860954e-03 -2.999750e-03 0.000000e+00
8.697400e-03 -3.440281e-03 0.000000e+00
9.140980e-03 -3.694485e-03 0.000000e+00
9.083746e-03 -3.755586e-03 0.000000e+00
8.450607e-03 -3.568880e-03 0.000000e+00
6.748623e-03 -3.175869e-03 0.000000e+00
4.022570e-03 -3.173804e-03 0.000000e+00
0.000000e+00 0.000000e+00 0.000000e+00
2.901511e-03 -5.925152e-04 0.000000e+00
4.796401e-03 -1.086015e-03 0.000000e+00
6.184805e-03 -1.457729e-03 0.000000e+00
7.209984e-03 -1.701278e-03 0.000000e+00
7.882966e-03 -1.803276e-03 0.000000e+00
8.171670e-03 -1.751829e-03 0.000000e+00
8.009330e-03 -1.540934e-03 0.000000e+00
7.285180e-03 -1.194983e-03 0.000000e+00
5.955423e-03 -8.874172e-04 0.000000e+00
4.315466e-03 -7.973465e-04 0.000000e+00
0.000000e+00 0.000000e+00 0.000000e+00
2.654223e-03 -3.767447e-04 0.000000e+00
4.324846e-03 -6.339431e-04 0.000000e+00
5.542655e-03 -7.750778e-04 0.000000e+00
6.415078e-03 -7.982592e-04 0.000000e+00
6.963876e-03 -7.039476e-04 0.000000e+00
7.156667e-03 -4.940687e-04 0.000000e+00
6.945150e-03 -1.801307e-04 0.000000e+00
6.328056e-03 1.709041e-04 0.000000e+00
5.398631e-03 4.407326e-04 0.000000e+00
4.405003e-03 5.247780e-04 0.000000e+00
0.000000e+00 0.000000e+00 0.000000e+00
2.310147e-03 -2.256654e-04 0.000000e+00
3.768719e-03 -3.263028e-04 0.000000e+00
4.824960e-03 -3.166463e-04 0.000000e+00
5.578444e-03 -2.105020e-04 0.000000e+00
6.033045e-03 -1.091887e-05 0.000000e+00
6.165797e-03 2.781376e-04 0.000000e+00
5.981192e-03 6.218614e-04 0.000000e+00
5.532357e-03 9.524011e-04 0.000000e+00
4.926353e-03 1.191473e-03 0.000000e+00
4.342037e-03 1.296611e-03 0.000000e+00
0.000000e+00 0.000000e+00 0.000000e+00
1.925605e-03 -1.356333e-04 0.000000e+00
3.181287e-03 -1.352299e-04 0.000000e+00
4.099917e-03 -3.982494e-05 0.000000e+00
4.749828e-03 1.390106e-04 0.000000e+00
5.128678e-03 3.964376e-04 0.000000e+00
5.241080e-03 7.148479e-04 0.000000e+00
5.123966e-03 1.053063e-03 0.000000e+00
4.835962e-03 1.359078e-03 0.000000e+00
4.469364e-03 1.586443e-03 0.000000e+00
4.152787e-03 1.714861e-03 0.000000e+00
0.000000e+00 0.000000e+00 0.000000e+00
1.543715e-03 -8.128080e-05 0.000000e+00
2.607953e-03 -2.860567e-05 0.000000e+00
3.402406e-03 1.093480e-04 0.000000e+00
3.956736e-03 3.223371e-04 0.000000e+00
4.281845e-03 6.004133e-04 0.000000e+00
4.400468e-03 9.175460e-04 0.000000e+00
4.353217e-03 1.237885e-03 0.000000e+00
4.193464e-03 1.525103e-03 0.000000e+00
3.998110e-03 1.750225e-03 0.000000e+00
3.858536e-03 1.903700e-03 0.000000e+00
0.000000e+00 0.000000e+00 0.000000e+00
1.196840e-03 -5.189460e-05 0.000000e+00
2.080939e-03 1.637194e-05 0.000000e+00
2.752754e-03 1.675816e-04 0.000000e+00
3.221941e-03 3.908640e-04 0.000000e+00
3.508238e-03 6.659766e-04 0.000000e+00
3.638041e-03 9.678543e-04 0.000000e+00
3.645726e-03 1.268263e-03 0.000000e+00
3.579340e-03 1.541699e-03 0.000000e+00
3.500604e-03 1.769303e-03 0.000000e+00
3.473552e-03 1.948072e-03 0.000000e+00
0.000000e+00 0.000000e+00 0.000000e+00
9.035946e-04 -4.276261e-05 0.000000e+00
1.614624e-03 2.180075e-05 0.000000e+00
2.162798e-03 1.692596e-04 0.000000e+00
2.555232e-03 3.846702e-04 0.000000e+00
2.807090e-03 6.456486e-04 0.000000e+00
2.939500e-03 9.283659e-04 0.000000e+00
2.983736e-03 1.210659e-03 0.000000e+00
2.978822e-03 1.474025e-03 0.000000e+00
2.972160e-03 1.706675e-03 0.000000e+00
3.011020e-03 1.909153e-03 0.000000e+00
0.000000e+00 0.000000e+00 0.000000e+00
6.626513e-04 -4.310122e-05 0.000000e+00
1.208714e-03 9.031695e-06 0.000000e+00
1.637393e-03 1.425728e-04 0.000000e+00
1.953771e-03 3.410986e-04 0.000000e+00
2.167661e-03 5.833060e-04 0.000000e+00
2.292775e-03 8.470013e-04 0.000000e+00
2.354521e-03 1.113841e-03 0.000000e+00
2.383296e-03 1.370006e-03 0.000000e+00
2.414979e-03 1.608136e-03 0.000000e+00
2.483450e-03 1.831195e-03 0.000000e+00
0.000000e+00 0.000000e+00 0.000000e+00
4.638291e-04 -4.691797e-05 0.000000e+00
8.564357e-04 -7.592308e-06 0.000000e+00
1.171855e-03 1.088849e-04 0.000000e+00
1.411276e-03 2.877070e-04 0.000000e+00
1.578954e-03 5.107725e-04 0.000000e+00
1.685492e-03 7.582115e-04 0.000000e+00
1.747908e-03 1.012855e-03 0.000000e+00
1.788915e-03 1.263593e-03 0.000000e+00
1.833437e-03 1.506386e-03 0.000000e+00
1.905026e-03 1.745554e-03 0.000000e+00
0.000000e+00 0.000000e+00 0.000000e+00
2.942502e-04 -5.195766e-05 0.000000e+00
5.484045e-04 -2.194809e-05 0.000000e+00
7.546713e-04 8.061746e-05 0.000000e+00
9.147995e-04 2.439930e-04 0.000000e+00
1.030268e-03 4.514756e-04 0.000000e+00
1.107235e-03 6.855224e-04 0.000000e+00
1.156958e-03 9.311294e-04 0.000000e+00
1.193773e-03 1.178722e-03 0.000000e+00
1.232965e-03 1.425510e-03 0.000000e+00
1.289636e-03 1.676271e-03 0.000000e+00
0.000000e+00 0.000000e+00 0.000000e+00
1.443441e-04 -5.270741e-05 0.000000e+00
2.680163e-04 -2.651792e-05 0.000000e+00
3.700146e-04 6.907954e-05 0.000000e+00
4.494587e-04 2.227497e-04 0.000000e+00
5.082947e-04 4.202285e-04 0.000000e+00
5.486848e-04 6.457276e-04 0.000000e+00
5.759873e-04 8.854201e-04 0.000000e+00
5.972817e-04 1.131233e-03 0.000000e+00
6.196607e-04 1.380859e-03 0.000000e+00
6.505912e-04 1.638237e-03 0.000000e+00
0.000000e+00 0.000000e+00 0.000000e+00
0.000000e+00 -4.022037e-05 0.000000e+00
0.000000e+00 -1.259992e-05 0.000000e+00
0.000000e+00 8.093829e-05 0.000000e+00
0.000000e+00 2.311064e-04 0.000000e+00
0.000000e+00 4.252071e-04 0.000000e+00
0.000000e+00 6.475639e-04 0.000000e+00
0.000000e+00 8.852970e-04 0.000000e+00
0.000000e+00 1.130524e-03 0.000000e+00
0.000000e+00 1.380751e-03 0.000000e+00
0.000000e+00 1.640033e-03 0.000000e+00
</DataArray>
<DataArray Name="shear" type="Float64" NumberOfComponents="1" format="ascii">
1.458058e-02
2.024338e-02
2.904931e-02
3.644145e-02
4.196191e-02
4.487331e-02
4.449294e-02
4.011010e-02
3.161263e-02
2.213150e-02
1.804215e-02
1.483418e-02
1.991329e-02
2.777272e-02
3.444120e-02
3.977861e-02
4.358066e-02
4.541456e-02
4.431603e-02
3.983553e-02
3.128798e-02
2.387707e-02
1.574580e-02
1.896428e-02
2.424270e-02
2.973437e-02
3.579889e-02
4.285672e-02
5.071381e-02
5.886484e-02
6.691145e-02
7.040568e-02
7.003723e-02
1.612432e-02
1.671632e-02
1.782439e-02
2.017276e-02
2.386788e-02
2.903391e-02
3.542648e-02
4.337152e-02
5.248957e-02
5.932177e-02
6.418115e-02
1.586702e-02
1.469056e-02
1.276528e-02
1.213908e-02
1.213073e-02
1.234374e-02
1.241415e-02
1.215172e-02
1.071049e-02
6.262815e-03
1.577145e-03
1.504103e-02
1.325984e-02
1.064706e-02
9.752933e-03
9.435177e-03
9.241920e-03
8.919471e-03
8.280710e-03
6.804064e-03
3.650925e-03
9.009495e-04
1.356874e-02
1.163068e-02
9.010148e-03
8.181030e-03
7.824386e-03
7.556644e-03
7.216718e-03
6.615761e-03
5.347945e-03
3.075971e-03
1.278239e-03
1.172808e-02
9.986997e-03
7.740473e-03
7.057330e-03
6.749415e-03
6.540218e-03
6.290214e-03
5.749499e-03
4.662441e-03
2.934714e-03
1.646489e-03
9.747508e-03
8.379491e-03
6.691927e-03
6.178702e-03
5.976624e-03
5.869441e-03
5.672534e-03
5.184716e-03
4.291316e-03
2.989576e-03
2.077038e-03
7.816224e-03
6.868896e-03
5.747744e-03
5.421598e-03
5.344791e-03
5.318829e-03
5.166064e-03
4.773534e-03
4.087374e-03
3.136768e-03
2.507177e-03
6.063994e-03
5.474834e-03
4.834377e-03
4.716759e-03
4.771689e-03
4.820690e-03
4.740019e-03
4.465773e-03
3.975803e-03
3.324291e-03
2.916337e-03
4.573353e-03
4.237254e-03
3.967816e-03
4.059671e-03
4.249490e-03
4.383012e-03
4.387822e-03
4.231563e-03
3.919541e-03
3.519295e-03
3.285247e-03
3.348160e-03
3.175349e-03
3.184259e-03
3.465083e-03
3.785175e-03
4.012871e-03
4.102927e-03
4.054626e-03
3.894891e-03
3.696346e-03
3.596638e-03
2.337927e-03
2.271327e-03
2.506042e-03
2.956994e-03
3.392971e-03
3.710603e-03
3.881888e-03
3.925273e-03
3.886933e-03
3.841245e-03
3.839022e-03
1.483851e-03
1.510102e-03
1.968601e-03
2.570504e-03
3.099914e-03
3.484747e-03
3.720115e-03
3.836659e-03
3.889221e-03
3.948514e-03
4.010181e-03
7.360101e-04
9.066068e-04
1.620199e-03
2.333606e-03
2.918425e-03
3.344950e-03
3.620525e-03
3.784674e-03
3.894554e-03
4.014025e-03
4.110414e-03
2.592402e-04
6.430710e-04
1.499730e-03
2.251975e-03
2.854366e-03
3.295601e-03
3.586204e-03
3.767706e-03
3.896847e-03
4.035237e-03
4.142444e-03
</DataArray>
<DataArray Name="stress" type="Float64" NumberOfComponents="9" format="ascii">
-1.088111e+05 5.146261e+03 0.000000e+00 5.146261e+03 -1.804794e+05 0.000000e+00 0.000000e+00 0.000000e+00 0.000000e+00
-9.701536e+04 4.704401e+03 0.000000e+00 4.704401e+03 -1.790429e+05 0.000000e+00 0.000000e+00 0.000000e+00 0.000000e+00
-9.179619e+04 4.283156e+03 0.000000e+00 4.283156e+03 -1.893502e+05 0.000000e+00 0.000000e+00 0.000000e+00 0.000000e+00
-9.195557e+04 4.246737e+03 0.000000e+00 4.246737e+03 -1.976452e+05 0.000000e+00 0.000000e+00 0.000000e+00 0.000000e+00
-9.572557e+04 4.626684e+03 0.000000e+00 4.626684e+03 -2.056984e+05 0.000000e+00 0.000000e+00 0.000000e+00 0.000000e+00
-1.007319e+05 5.319819e+03 0.000000e+00 5.319819e+03 -2.143770e+05 0.000000e+00 0.000000e+00 0.000000e+00 0.000000e+00
-1.055254e+05 5.689562e+03 0.000000e+00 5.689562e+03 -2.232556e+05 0.000000e+00 0.000000e+00 0.000000e+00 0.000000e+00
-1.094238e+05 5.448541e+03 0.000000e+00 5.448541e+03 -2.319335e+05 0.000000e+00 0.000000e+00 0.000000e+00 0.000000e+00
-1.165494e+05 3.034218e+03 0.000000e+00 3.034218e+03 -2.375372e+05 0.000000e+00 0.000000e+00 0.000000e+00 0.000000e+00
-1.309248e+05 -1.181266e+03 0.000000e+00 -1.181266e+03 -2.391519e+05 0.000000e+00 0.000000e+00 0.000000e+00 0.000000e+00
-1.395712e+05 -1.739290e+03 0.000000e+00 -1.739290e+03 -2.370005e+05 0.000000e+00 0.000000e+00 0.000000e+00 0.000000e+00
-1.067588e+05 1.403865e+04 0.000000e+00 1.403865e+04 -1.696176e+05 0.000000e+00 0.000000e+00 0.000000e+00 0.000000e+00
-9.590736e+04 1.240431e+04 0.000000e+00 1.240431e+04 -1.677764e+05 0.000000e+00 0.000000e+00 0.000000e+00 0.000000e+00
-9.142891e+04 1.081986e+04 0.000000e+00 1.081986e+04 -1.768959e+05 0.000000e+00 0.000000e+00 0.000000e+00 0.000000e+00
-9.203879e+04 1.059771e+04 0.000000e+00 1.059771e+04 -1.856136e+05 0.000000e+00 0.000000e+00 0.000000e+00 0.000000e+00
-9.584136e+04 1.122404e+04 0.000000e+00 1.122404e+04 -1.952220e+05 0.000000e+00 0.000000e+00 0.000000e+00 0.000000e+00
-1.009564e+05 1.201795e+04 0.000000e+00 1.201795e+04 -2.061213e+05 0.000000e+00 0.000000e+00 0.000000e+00 0.000000e+00
-1.058852e+05 1.190370e+04 0.000000e+00 1.190370e+04 -2.170063e+05 0.000000e+00 0.000000e+00 0.000000e+00 0.000000e+00
-1.096168e+05 1.022685e+04 0.000000e+00 1.022685e+04 -2.278485e+05 0.000000e+00 0.000000e+00 0.000000e+00 0.000000e+00
-1.153930e+05 6.159884e+03 0.000000e+00 6.159884e+03 -2.382509e+05 0.000000e+00 0.000000e+00 0.000000e+00 0.000000e+00
-1.247762e+05 -4.469781e+02 0.000000e+00 -4.469781e+02 -2.432504e+05 0.000000e+00 0.000000e+00 0.000000e+00 0.000000e+00
-1.435752e+05 -6.538292e+03 0.000000e+00 -6.538292e+03 -2.599277e+05 0.000000e+00 0.000000e+00 0.000000e+00 0.000000e+00
-1.008217e+05 2.264075e+04 0.000000e+00 2.264075e+04 -1.449254e+05 0.000000e+00 0.000000e+00 0.000000e+00 0.000000e+00
-9.300443e+04 2.078213e+04 0.000000e+00 2.078213e+04 -1.427168e+05 0.000000e+00 0.000000e+00 0.000000e+00 0.000000e+00
-9.110915e+04 1.986724e+04 0.000000e+00 1.986724e+04 -1.483548e+05 0.000000e+00 0.000000e+00 0.000000e+00 0.000000e+00
-9.397223e+04 2.118867e+04 0.000000e+00 2.118867e+04 -1.558450e+05 0.000000e+00 0.000000e+00 0.000000e+00 0.000000e+00
-9.936109e+04 2.352376e+04 0.000000e+00 2.352376e+04 -1.646400e+05 0.000000e+00 0.000000e+00 0.000000e+00 0.000000e+00
-1.059382e+05 2.582461e+04 0.000000e+00 2.582461e+04 -1.741768e+05 0.000000e+00 0.000000e+00 0.000000e+00 0.000000e+00
-1.120370e+05 2.735744e+04 0.000000e+00 2.735744e+04 -1.834872e+05 0.000000e+00 0.000000e+00 0.000000e+00 0.000000e+00
-1.190540e+05 2.764676e+04 0.000000e+00 2.764676e+04 -1.956859e+05 0.000000e+00 0.000000e+00 0.000000e+00 0.000000e+00
-1.297999e+05 2.769226e+04 0.000000e+00 2.769226e+04 -2.103947e+05 0.000000e+00 0.000000e+00 0.000000e+00 0.000000e+00
-1.416370e+05 2.078988e+04 0.000000e+00 2.078988e+04 -2.293579e+05 0.000000e+00 0.000000e+00 0.000000e+00 0.000000e+00
-1.613251e+05 1.136639e+04 0.000000e+00 1.136639e+04 -2.593901e+05 0.000000e+00 0.000000e+00 0.000000e+00 0.000000e+00
-9.377073e+04 2.444634e+04 0.000000e+00 2.444634e+04 -1.208410e+05 0.000000e+00 0.000000e+00 0.000000e+00 0.000000e+00
-8.926370e+04 2.325473e+04 0.000000e+00 2.325473e+04 -1.187842e+05 0.000000e+00 0.000000e+00 0.000000e+00 0.000000e+00
-8.865015e+04 2.286916e+04 0.000000e+00 2.286916e+04 -1.189824e+05 0.000000e+00 0.000000e+00 0.000000e+00 0.000000e+00
-9.123358e+04 2.385370e+04 0.000000e+00 2.385370e+04 -1.185875e+05 0.000000e+00 0.000000e+00 0.000000e+00 0.000000e+00
-9.443139e+04 2.529948e+04 0.000000e+00 2.529948e+04 -1.168044e+05 0.000000e+00 0.000000e+00 0.000000e+00 0.000000e+00
-9.716118e+04 2.588576e+04 0.000000e+00 2.588576e+04 -1.133204e+05 0.000000e+00 0.000000e+00 0.000000e+00 0.000000e+00
-9.909159e+04 2.654971e+04 0.000000e+00 2.654971e+04 -1.089363e+05 0.000000e+00 0.000000e+00 0.000000e+00 0.000000e+00
-9.903914e+04 2.599137e+04 0.000000e+00 2.599137e+04 -1.028334e+05 0.000000e+00 0.000000e+00 0.000000e+00 0.000000e+00
-9.717049e+04 2.356762e+04 0.000000e+00 2.356762e+04 -9.317009e+04 0.000000e+00 0.000000e+00 0.000000e+00 0.000000e+00
-8.907829e+04 1.746319e+04 0.000000e+00 1.746319e+04 -8.012305e+04 0.000000e+00 0.000000e+00 0.000000e+00 0.000000e+00
-7.301034e+04 1.208488e+04 0.000000e+00 1.208488e+04 -7.108935e+04 0.000000e+00 0.000000e+00 0.000000e+00 0.000000e+00
-8.918107e+04 2.395749e+04 0.000000e+00 2.395749e+04 -1.064187e+05 0.000000e+00 0.000000e+00 0.000000e+00 0.000000e+00
-8.830684e+04 2.307730e+04 0.000000e+00 2.307730e+04 -1.055115e+05 0.000000e+00 0.000000e+00 0.000000e+00 0.000000e+00
-9.045562e+04 2.248034e+04 0.000000e+00 2.248034e+04 -1.048289e+05 0.000000e+00 0.000000e+00 0.000000e+00 0.000000e+00
-9.469688e+04 2.277513e+04 0.000000e+00 2.277513e+04 -1.031803e+05 0.000000e+00 0.000000e+00 0.000000e+00 0.000000e+00
-9.877886e+04 2.306389e+04 0.000000e+00 2.306389e+04 -1.004890e+05 0.000000e+00 0.000000e+00 0.000000e+00 0.000000e+00
-1.021310e+05 2.295031e+04 0.000000e+00 2.295031e+04 -9.656955e+04 0.000000e+00 0.000000e+00 0.000000e+00 0.000000e+00
-1.046624e+05 2.198145e+04 0.000000e+00 2.198145e+04 -9.135773e+04 0.000000e+00 0.000000e+00 0.000000e+00 0.000000e+00
-1.050550e+05 1.983087e+04 0.000000e+00 1.983087e+04 -8.428352e+04 0.000000e+00 0.000000e+00 0.000000e+00 0.000000e+00
-1.036560e+05 1.537088e+04 0.000000e+00 1.537088e+04 -7.602596e+04 0.000000e+00 0.000000e+00 0.000000e+00 0.000000e+00
-9.267754e+04 6.840126e+03 0.000000e+00 6.840126e+03 -6.832184e+04 0.000000e+00 0.000000e+00 0.000000e+00 0.000000e+00
-6.584780e+04 6.338651e+02 0.000000e+00 6.338651e+02 -5.765816e+04 0.000000e+00 0.000000e+00 0.000000e+00 0.000000e+00
-8.415796e+04 2.249326e+04 0.000000e+00 2.249326e+04 -9.452261e+04 0.000000e+00 0.000000e+00 0.000000e+00 0.000000e+00
-8.628352e+04 2.183938e+04 0.000000e+00 2.183938e+04 -9.441631e+04 0.000000e+00 0.000000e+00 0.000000e+00 0.000000e+00
-9.029912e+04 2.068901e+04 0.000000e+00 2.068901e+04 -9.279964e+04 0.000000e+00 0.000000e+00 0.000000e+00 0.000000e+00
-9.485784e+04 2.006121e+04 0.000000e+00 2.006121e+04 -9.026759e+04 0.000000e+00 0.000000e+00 0.000000e+00 0.000000e+00
-9.857648e+04 1.923928e+04 0.000000e+00 1.923928e+04 -8.694685e+04 0.000000e+00 0.000000e+00 0.000000e+00 0.000000e+00
-1.012158e+05 1.782351e+04 0.000000e+00 1.782351e+04 -8.276011e+04 0.000000e+00 0.000000e+00 0.000000e+00 0.000000e+00
-1.025094e+05 1.549725e+04 0.000000e+00 1.549725e+04 -7.771880e+04 0.000000e+00 0.000000e+00 0.000000e+00 0.000000e+00
-1.015174e+05 1.201290e+04 0.000000e+00 1.201290e+04 -7.201622e+04 0.000000e+00 0.000000e+00 0.000000e+00 0.000000e+00
-9.724524e+04 6.741726e+03 0.000000e+00 6.741726e+03 -6.656548e+04 0.000000e+00 0.000000e+00 0.000000e+00 0.000000e+00
-8.295677e+04 7.682133e+02 0.000000e+00 7.682133e+02 -6.223513e+04 0.000000e+00 0.000000e+00 0.000000e+00 0.000000e+00
-6.290543e+04 -1.599653e+03 0.000000e+00 -1.599653e+03 -5.756641e+04 0.000000e+00 0.000000e+00 0.000000e+00 0.000000e+00
-7.951426e+04 2.056104e+04 0.000000e+00 2.056104e+04 -8.503155e+04 0.000000e+00 0.000000e+00 0.000000e+00 0.000000e+00
-8.414866e+04 2.003156e+04 0.000000e+00 2.003156e+04 -8.542871e+04 0.000000e+00 0.000000e+00 0.000000e+00 0.000000e+00
-8.930748e+04 1.831246e+04 0.000000e+00 1.831246e+04 -8.324627e+04 0.000000e+00 0.000000e+00 0.000000e+00 0.000000e+00
-9.377040e+04 1.690816e+04 0.000000e+00 1.690816e+04 -8.065688e+04 0.000000e+00 0.000000e+00 0.000000e+00 0.000000e+00
-9.701725e+04 1.522545e+04 0.000000e+00 1.522545e+04 -7.751729e+04 0.000000e+00 0.000000e+00 0.000000e+00 0.000000e+00
-9.896070e+04 1.301996e+04 0.000000e+00 1.301996e+04 -7.385136e+04 0.000000e+00 0.000000e+00 0.000000e+00 0.000000e+00
-9.921986e+04 1.011149e+04 0.000000e+00 1.011149e+04 -6.987713e+04 0.000000e+00 0.000000e+00 0.000000e+00 0.000000e+00
-9.702664e+04 6.346896e+03 0.000000e+00 6.346896e+03 -6.592376e+04 0.000000e+00 0.000000e+00 0.000000e+00 0.000000e+00
-9.113331e+04 1.942585e+03 0.000000e+00 1.942585e+03 -6.252790e+04 0.000000e+00 0.000000e+00 0.000000e+00 0.000000e+00
-7.915096e+04 -1.210848e+03 0.000000e+00 -1.210848e+03 -6.042590e+04 0.000000e+00 0.000000e+00 0.000000e+00 0.000000e+00
-6.617261e+04 -1.961614e+03 0.000000e+00 -1.961614e+03 -5.817434e+04 0.000000e+00 0.000000e+00 0.000000e+00 0.000000e+00
-7.544244e+04 1.851478e+04 0.000000e+00 1.851478e+04 -7.772035e+04 0.000000e+00 0.000000e+00 0.000000e+00 0.000000e+00
-8.176262e+04 1.795308e+04 0.000000e+00 1.795308e+04 -7.842984e+04 0.000000e+00 0.000000e+00 0.000000e+00 0.000000e+00
-8.759275e+04 1.585016e+04 0.000000e+00 1.585016e+04 -7.618247e+04 0.000000e+00 0.000000e+00 0.000000e+00 0.000000e+00
-9.192192e+04 1.393059e+04 0.000000e+00 1.393059e+04 -7.379369e+04 0.000000e+00 0.000000e+00 0.000000e+00 0.000000e+00
-9.475342e+04 1.175059e+04 0.000000e+00 1.175059e+04 -7.108603e+04 0.000000e+00 0.000000e+00 0.000000e+00 0.000000e+00
-9.605638e+04 9.197271e+03 0.000000e+00 9.197271e+03 -6.823120e+04 0.000000e+00 0.000000e+00 0.000000e+00 0.000000e+00
-9.556602e+04 6.161990e+03 0.000000e+00 6.161990e+03 -6.538005e+04 0.000000e+00 0.000000e+00 0.000000e+00 0.000000e+00
-9.272736e+04 2.745035e+03 0.000000e+00 2.745035e+03 -6.275223e+04 0.000000e+00 0.000000e+00 0.000000e+00 0.000000e+00
-8.711936e+04 -3.958325e+02 0.000000e+00 -3.958325e+02 -6.083891e+04 0.000000e+00 0.000000e+00 0.000000e+00 0.000000e+00
-7.816653e+04 -1.791601e+03 0.000000e+00 -1.791601e+03 -5.996140e+04 0.000000e+00 0.000000e+00 0.000000e+00 0.000000e+00
-6.972640e+04 -1.715748e+03 0.000000e+00 -1.715748e+03 -5.875986e+04 0.000000e+00 0.000000e+00 0.000000e+00 0.000000e+00
-7.205466e+04 1.656484e+04 0.000000e+00 1.656484e+04 -7.244327e+04 0.000000e+00 0.000000e+00 0.000000e+00 0.000000e+00
-7.919406e+04 1.591188e+04 0.000000e+00 1.591188e+04 -7.319581e+04 0.000000e+00 0.000000e+00 0.000000e+00 0.000000e+00
-8.544737e+04 1.356121e+04 0.000000e+00 1.356121e+04 -7.108084e+04 0.000000e+00 0.000000e+00 0.000000e+00 0.000000e+00
-8.959334e+04 1.134787e+04 0.000000e+00 1.134787e+04 -6.895461e+04 0.000000e+00 0.000000e+00 0.000000e+00 0.000000e+00
-9.207608e+04 8.970405e+03 0.000000e+00 8.970405e+03 -6.682130e+04 0.000000e+00 0.000000e+00 0.000000e+00 0.000000e+00
-9.297615e+04 6.348820e+03 0.000000e+00 6.348820e+03 -6.471155e+04 0.000000e+00 0.000000e+00 0.000000e+00 0.000000e+00
-9.210071e+04 3.469954e+03 0.000000e+00 3.469954e+03 -6.269601e+04 0.000000e+00 0.000000e+00 0.000000e+00 0.000000e+00
-8.932280e+04 6.592542e+02 0.000000e+00 6.592542e+02 -6.105139e+04 0.000000e+00 0.000000e+00 0.000000e+00 0.000000e+00
-8.478636e+04 -1.401762e+03 0.000000e+00 -1.401762e+03 -6.009720e+04 0.000000e+00 0.000000e+00 0.000000e+00 0.000000e+00
-7.848530e+04 -1.832730e+03 0.000000e+00 -1.832730e+03 -5.980979e+04 0.000000e+00 0.000000e+00 0.000000e+00 0.000000e+00
-7.303705e+04 -1.439683e+03 0.000000e+00 -1.439683e+03 -5.910225e+04 0.000000e+00 0.000000e+00 0.000000e+00 0.000000e+00
-6.921525e+04 1.454676e+04 0.000000e+00 1.454676e+04 -6.875576e+04 0.000000e+00 0.000000e+00 0.000000e+00 0.000000e+00
-7.656777e+04 1.386514e+04 0.000000e+00 1.386514e+04 -6.942098e+04 0.000000e+00 0.000000e+00 0.000000e+00 0.000000e+00
-8.303459e+04 1.150934e+04 0.000000e+00 1.150934e+04 -6.745161e+04 0.000000e+00 0.000000e+00 0.000000e+00 0.000000e+00
-8.708148e+04 9.229252e+03 0.000000e+00 9.229252e+03 -6.568941e+04 0.000000e+00 0.000000e+00 0.000000e+00 0.000000e+00
-8.933914e+04 6.834642e+03 0.000000e+00 6.834642e+03 -6.402290e+04 0.000000e+00 0.000000e+00 0.000000e+00 0.000000e+00
-8.999280e+04 4.284867e+03 0.000000e+00 4.284867e+03 -6.243285e+04 0.000000e+00 0.000000e+00 0.000000e+00 0.000000e+00
-8.908902e+04 1.736020e+03 0.000000e+00 1.736020e+03 -6.105552e+04 0.000000e+00 0.000000e+00 0.000000e+00 0.000000e+00
-8.685006e+04 -4.301013e+02 0.000000e+00 -4.301013e+02 -6.013454e+04 0.000000e+00 0.000000e+00 0.000000e+00 0.000000e+00
-8.353427e+04 -1.728623e+03 0.000000e+00 -1.728623e+03 -5.975965e+04 0.000000e+00 0.000000e+00 0.000000e+00 0.000000e+00
-7.932059e+04 -1.677941e+03 0.000000e+00 -1.677941e+03 -5.976270e+04 0.000000e+00 0.000000e+00 0.000000e+00 0.000000e+00
-7.589773e+04 -1.159284e+03 0.000000e+00 -1.159284e+03 -5.936582e+04 0.000000e+00 0.000000e+00 0.000000e+00 0.000000e+00
-6.725806e+04 1.254899e+04 0.000000e+00 1.254899e+04 -6.633901e+04 0.000000e+00 0.000000e+00 0.000000e+00 0.000000e+00
-7.420048e+04 1.188848e+04 0.000000e+00 1.188848e+04 -6.678384e+04 0.000000e+00 0.000000e+00 0.000000e+00 0.000000e+00
-8.063435e+04 9.716970e+03 0.000000e+00 9.716970e+03 -6.500126e+04 0.000000e+00 0.000000e+00 0.000000e+00 0.000000e+00
-8.455890e+04 7.493355e+03 0.000000e+00 7.493355e+03 -6.352866e+04 0.000000e+00 0.000000e+00 0.000000e+00 0.000000e+00
-8.664673e+04 5.173153e+03 0.000000e+00 5.173153e+03 -6.217125e+04 0.000000e+00 0.000000e+00 0.000000e+00 0.000000e+00
-8.726574e+04 2.837892e+03 0.000000e+00 2.837892e+03 -6.098815e+04 0.000000e+00 0.000000e+00 0.000000e+00 0.000000e+00
-8.665115e+04 7.111041e+02 0.000000e+00 7.111041e+02 -6.012519e+04 0.000000e+00 0.000000e+00 0.000000e+00 0.000000e+00
-8.512022e+04 -8.962673e+02 0.000000e+00 -8.962673e+02 -5.967156e+04 0.000000e+00 0.000000e+00 0.000000e+00 0.000000e+00
-8.291756e+04 -1.706049e+03 0.000000e+00 -1.706049e+03 -5.961505e+04 0.000000e+00 0.000000e+00 0.000000e+00 0.000000e+00
-8.030166e+04 -1.439369e+03 0.000000e+00 -1.439369e+03 -5.975794e+04 0.000000e+00 0.000000e+00 0.000000e+00 0.000000e+00
-7.828615e+04 -9.121200e+02 0.000000e+00 -9.121200e+02 -5.957379e+04 0.000000e+00 0.000000e+00 0.000000e+00 0.000000e+00
-6.594016e+04 1.063067e+04 0.000000e+00 1.063067e+04 -6.498647e+04 0.000000e+00 0.000000e+00 0.000000e+00 0.000000e+00
-7.218325e+04 1.000509e+04 0.000000e+00 1.000509e+04 -6.510313e+04 0.000000e+00 0.000000e+00 0.000000e+00 0.000000e+00
-7.832332e+04 8.081566e+03 0.000000e+00 8.081566e+03 -6.345413e+04 0.000000e+00 0.000000e+00 0.000000e+00 0.000000e+00
-8.211734e+04 6.009896e+03 0.000000e+00 6.009896e+03 -6.212812e+04 0.000000e+00 0.000000e+00 0.000000e+00 0.000000e+00
-8.414971e+04 3.881341e+03 0.000000e+00 3.881341e+03 -6.099810e+04 0.000000e+00 0.000000e+00 0.000000e+00 0.000000e+00
-8.492599e+04 1.864255e+03 0.000000e+00 1.864255e+03 -6.013164e+04 0.000000e+00 0.000000e+00 0.000000e+00 0.000000e+00
-8.475184e+04 1.695890e+02 0.000000e+00 1.695890e+02 -5.961978e+04 0.000000e+00 0.000000e+00 0.000000e+00 0.000000e+00
-8.392092e+04 -1.010231e+03 0.000000e+00 -1.010231e+03 -5.945531e+04 0.000000e+00 0.000000e+00 0.000000e+00 0.000000e+00
-8.266159e+04 -1.509185e+03 0.000000e+00 -1.509185e+03 -5.956290e+04 0.000000e+00 0.000000e+00 0.000000e+00 0.000000e+00
-8.124755e+04 -1.172308e+03 0.000000e+00 -1.172308e+03 -5.977466e+04 0.000000e+00 0.000000e+00 0.000000e+00 0.000000e+00
-8.021925e+04 -7.030154e+02 0.000000e+00 -7.030154e+02 -5.974085e+04 0.000000e+00 0.000000e+00 0.000000e+00 0.000000e+00
-6.497858e+04 8.609675e+03 0.000000e+00 8.609675e+03 -6.435383e+04 0.000000e+00 0.000000e+00 0.000000e+00 0.000000e+00
-7.046841e+04 8.050683e+03 0.000000e+00 8.050683e+03 -6.420703e+04 0.000000e+00 0.000000e+00 0.000000e+00 0.000000e+00
-7.624758e+04 6.465951e+03 0.000000e+00 6.465951e+03 -6.258227e+04 0.000000e+00 0.000000e+00 0.000000e+00 0.000000e+00
-7.990677e+04 4.667728e+03 0.000000e+00 4.667728e+03 -6.129460e+04 0.000000e+00 0.000000e+00 0.000000e+00 0.000000e+00
-8.198381e+04 2.863756e+03 0.000000e+00 2.863756e+03 -6.030698e+04 0.000000e+00 0.000000e+00 0.000000e+00 0.000000e+00
-8.302831e+04 1.229076e+03 0.000000e+00 1.229076e+03 -5.967441e+04 0.000000e+00 0.000000e+00 0.000000e+00 0.000000e+00
-8.331187e+04 -7.499593e+01 0.000000e+00 -7.499593e+01 -5.937757e+04 0.000000e+00 0.000000e+00 0.000000e+00 0.000000e+00
-8.309278e+04 -9.317170e+02 0.000000e+00 -9.317170e+02 -5.937131e+04 0.000000e+00 0.000000e+00 0.000000e+00 0.000000e+00
-8.259930e+04 -1.235898e+03 0.000000e+00 -1.235898e+03 -5.955521e+04 0.000000e+00 0.000000e+00 0.000000e+00 0.000000e+00
-8.206688e+04 -9.075040e+02 0.000000e+00 -9.075040e+02 -5.978977e+04 0.000000e+00 0.000000e+00 0.000000e+00 0.000000e+00
-8.174362e+04 -5.235020e+02 0.000000e+00 -5.235020e+02 -5.986723e+04 0.000000e+00 0.000000e+00 0.000000e+00 0.000000e+00
-6.432454e+04 6.485346e+03 0.000000e+00 6.485346e+03 -6.406351e+04 0.000000e+00 0.000000e+00 0.000000e+00 0.000000e+00
-6.912249e+04 6.054353e+03 0.000000e+00 6.054353e+03 -6.374939e+04 0.000000e+00 0.000000e+00 0.000000e+00 0.000000e+00
-7.450568e+04 4.834655e+03 0.000000e+00 4.834655e+03 -6.210412e+04 0.000000e+00 0.000000e+00 0.000000e+00 0.000000e+00
-7.808652e+04 3.403358e+03 0.000000e+00 3.403358e+03 -6.083603e+04 0.000000e+00 0.000000e+00 0.000000e+00 0.000000e+00
-8.027550e+04 2.024970e+03 0.000000e+00 2.024970e+03 -5.993632e+04 0.000000e+00 0.000000e+00 0.000000e+00 0.000000e+00
-8.156925e+04 8.060678e+02 0.000000e+00 8.060678e+02 -5.943686e+04 0.000000e+00 0.000000e+00 0.000000e+00 0.000000e+00
-8.224630e+04 -1.476076e+02 0.000000e+00 -1.476076e+02 -5.926875e+04 0.000000e+00 0.000000e+00 0.000000e+00 0.000000e+00
-8.252828e+04 -7.497877e+02 0.000000e+00 -7.497877e+02 -5.935528e+04 0.000000e+00 0.000000e+00 0.000000e+00 0.000000e+00
-8.262242e+04 -9.319504e+02 0.000000e+00 -9.319504e+02 -5.957554e+04 0.000000e+00 0.000000e+00 0.000000e+00 0.000000e+00
-8.272018e+04 -6.607626e+02 0.000000e+00 -6.607626e+02 -5.981035e+04 0.000000e+00 0.000000e+00 0.000000e+00 0.000000e+00
-8.288781e+04 -3.715930e+02 0.000000e+00 -3.715930e+02 -5.996143e+04 0.000000e+00 0.000000e+00 0.000000e+00 0.000000e+00
-6.388262e+04 4.307060e+03 0.000000e+00 4.307060e+03 -6.392975e+04 0.000000e+00 0.000000e+00 0.000000e+00 0.000000e+00
-6.817102e+04 3.990136e+03 0.000000e+00 3.990136e+03 -6.349936e+04 0.000000e+00 0.000000e+00 0.000000e+00 0.000000e+00
-7.320355e+04 3.171914e+03 0.000000e+00 3.171914e+03 -6.182975e+04 0.000000e+00 0.000000e+00 0.000000e+00 0.000000e+00
-7.675225e+04 2.214045e+03 0.000000e+00 2.214045e+03 -6.058364e+04 0.000000e+00 0.000000e+00 0.000000e+00 0.000000e+00
-7.905245e+04 1.292956e+03 0.000000e+00 1.292956e+03 -5.976628e+04 0.000000e+00 0.000000e+00 0.000000e+00 0.000000e+00
-8.054244e+04 4.921050e+02 0.000000e+00 4.921050e+02 -5.933780e+04 0.000000e+00 0.000000e+00 0.000000e+00 0.000000e+00
-8.151657e+04 -1.297571e+02 0.000000e+00 -1.297571e+02 -5.922861e+04 0.000000e+00 0.000000e+00 0.000000e+00 0.000000e+00
-8.216323e+04 -5.135861e+02 0.000000e+00 -5.135861e+02 -5.935420e+04 0.000000e+00 0.000000e+00 0.000000e+00 0.000000e+00
-8.266664e+04 -6.195612e+02 0.000000e+00 -6.195612e+02 -5.959377e+04 0.000000e+00 0.000000e+00 0.000000e+00 0.000000e+00
-8.318735e+04 -4.328322e+02 0.000000e+00 -4.328322e+02 -5.982520e+04 0.000000e+00 0.000000e+00 0.000000e+00 0.000000e+00
-8.368270e+04 -2.394414e+02 0.000000e+00 -2.394414e+02 -6.001438e+04 0.000000e+00 0.000000e+00 0.000000e+00 0.000000e+00
-6.359374e+04 2.022981e+03 0.000000e+00 2.022981e+03 -6.372123e+04 0.000000e+00 0.000000e+00 0.000000e+00 0.000000e+00
-6.762216e+04 1.912289e+03 0.000000e+00 1.912289e+03 -6.325898e+04 0.000000e+00 0.000000e+00 0.000000e+00 0.000000e+00
-7.242466e+04 1.539136e+03 0.000000e+00 1.539136e+03 -6.164553e+04 0.000000e+00 0.000000e+00 0.000000e+00 0.000000e+00
-7.594546e+04 1.080330e+03 0.000000e+00 1.080330e+03 -6.045557e+04 0.000000e+00 0.000000e+00 0.000000e+00 0.000000e+00
-7.832796e+04 6.318549e+02 0.000000e+00 6.318549e+02 -5.969326e+04 0.000000e+00 0.000000e+00 0.000000e+00 0.000000e+00
-7.993334e+04 2.329364e+02 0.000000e+00 2.329364e+02 -5.930205e+04 0.000000e+00 0.000000e+00 0.000000e+00 0.000000e+00
-8.109155e+04 -7.275910e+01 0.000000e+00 -7.275910e+01 -5.922285e+04 0.000000e+00 0.000000e+00 0.000000e+00 0.000000e+00
-8.195590e+04 -2.585263e+02 0.000000e+00 -2.585263e+02 -5.936170e+04 0.000000e+00 0.000000e+00 0.000000e+00 0.000000e+00
-8.269834e+04 -3.097124e+02 0.000000e+00 -3.097124e+02 -5.960472e+04 0.000000e+00 0.000000e+00 0.000000e+00 0.000000e+00
-8.346768e+04 -2.146953e+02 0.000000e+00 -2.146953e+02 -5.983379e+04 0.000000e+00 0.000000e+00 0.000000e+00 0.000000e+00
-8.413920e+04 -1.141963e+02 0.000000e+00 -1.141963e+02 -6.005198e+04 0.000000e+00 0.000000e+00 0.000000e+00 0.000000e+00
-6.338749e+04 4.456899e+02 0.000000e+00 4.456899e+02 -6.334548e+04 0.000000e+00 0.000000e+00 0.000000e+00 0.000000e+00
-6.741127e+04 5.060079e+02 0.000000e+00 5.060079e+02 -6.299637e+04 0.000000e+00 0.000000e+00 0.000000e+00 0.000000e+00
-7.216712e+04 4.399712e+02 0.000000e+00 4.399712e+02 -6.155896e+04 0.000000e+00 0.000000e+00 0.000000e+00 0.000000e+00
-7.568158e+04 2.988455e+02 0.000000e+00 2.988455e+02 -6.041949e+04 0.000000e+00 0.000000e+00 0.000000e+00 0.000000e+00
-7.808819e+04 1.416622e+02 0.000000e+00 1.416622e+02 -5.967291e+04 0.000000e+00 0.000000e+00 0.000000e+00 0.000000e+00
-7.973266e+04 -1.037622e+01 0.000000e+00 -1.037622e+01 -5.928998e+04 0.000000e+00 0.000000e+00 0.000000e+00 0.000000e+00
-8.095553e+04 -1.222959e+02 0.000000e+00 -1.222959e+02 -5.922157e+04 0.000000e+00 0.000000e+00 0.000000e+00 0.000000e+00
-8.188794e+04 -1.895947e+02 0.000000e+00 -1.895947e+02 -5.936541e+04 0.000000e+00 0.000000e+00 0.000000e+00 0.000000e+00
-8.271079e+04 -2.107948e+02 0.000000e+00 -2.107948e+02 -5.961078e+04 0.000000e+00 0.000000e+00 0.000000e+00 0.000000e+00
-8.356508e+04 -1.727967e+02 0.000000e+00 -1.727967e+02 -5.984219e+04 0.000000e+00 0.000000e+00 0.000000e+00 0.000000e+00
-8.428420e+04 -1.284897e+02 0.000000e+00 -1.284897e+02 -6.007442e+04 0.000000e+00 0.000000e+00 0.000000e+00 0.000000e+00
</DataArray>
<DataArray Name="vol_eps" type="Float64" NumberOfComponents="1" format="ascii">
-1.079384e-02
-9.477860e-03
-8.811170e-03
-8.359752e-03
-8.363982e-03
-8.951346e-03
-1.002143e-02
-1.156852e-02
-1.354721e-02
-1.557934e-02
-1.628338e-02
-9.959902e-03
-8.720313e-03
-8.161578e-03
-7.901283e-03
-8.074827e-03
-8.666542e-03
-9.548463e-03
-1.071542e-02
-1.234223e-02
-1.431075e-02
-1.752627e-02
-7.913832e-03
-6.983360e-03
-6.719863e-03
-6.747432e-03
-6.924548e-03
-7.154668e-03
-7.476078e-03
-7.978577e-03
-8.741031e-03
-1.029844e-02
-1.360123e-02
-5.746174e-03
-5.238818e-03
-5.093476e-03
-4.951095e-03
-4.610956e-03
-4.048685e-03
-3.206623e-03
-1.918176e-03
-1.296617e-04
2.615957e-03
5.516414e-03
-4.424408e-03
-4.383230e-03
-4.621545e-03
-4.851937e-03
-4.963338e-03
-4.928079e-03
-4.747706e-03
-4.295777e-03
-3.697723e-03
-2.578922e-03
-1.542097e-04
-3.280027e-03
-3.570737e-03
-3.943115e-03
-4.149872e-03
-4.201185e-03
-4.107215e-03
-3.861567e-03
-3.426904e-03
-2.816861e-03
-1.611769e-03
9.653938e-06
-2.381009e-03
-2.911970e-03
-3.322189e-03
-3.498797e-03
-3.521748e-03
-3.413889e-03
-3.172122e-03
-2.776668e-03
-2.174251e-03
-1.244713e-03
-2.560433e-04
-1.721653e-03
-2.373467e-03
-2.785819e-03
-2.950983e-03
-2.973089e-03
-2.876129e-03
-2.655054e-03
-2.295600e-03
-1.797918e-03
-1.147798e-03
-5.270361e-04
-1.276943e-03
-1.942321e-03
-2.335765e-03
-2.495086e-03
-2.528636e-03
-2.447305e-03
-2.251739e-03
-1.959743e-03
-1.593402e-03
-1.156173e-03
-7.591903e-04
-9.676555e-04
-1.586634e-03
-1.954345e-03
-2.120179e-03
-2.162183e-03
-2.095769e-03
-1.942894e-03
-1.734997e-03
-1.487192e-03
-1.205932e-03
-9.576200e-04
-7.507708e-04
-1.293060e-03
-1.637112e-03
-1.806274e-03
-1.853488e-03
-1.815047e-03
-1.719138e-03
-1.588377e-03
-1.435777e-03
-1.270416e-03
-1.125366e-03
-6.174893e-04
-1.068221e-03
-1.382831e-03
-1.549145e-03
-1.607407e-03
-1.601606e-03
-1.559193e-03
-1.492533e-03
-1.415013e-03
-1.334728e-03
-1.264153e-03
-5.441940e-04
-9.117616e-04
-1.191727e-03
-1.347291e-03
-1.419542e-03
-1.445961e-03
-1.445963e-03
-1.430803e-03
-1.410243e-03
-1.390244e-03
-1.373910e-03
-5.085275e-04
-8.086640e-04
-1.050330e-03
-1.197690e-03
-1.282275e-03
-1.333539e-03
-1.367415e-03
-1.392215e-03
-1.413143e-03
-1.435076e-03
-1.456067e-03
-4.929056e-04
-7.422783e-04
-9.512485e-04
-1.093598e-03
-1.189089e-03
-1.258491e-03
-1.315998e-03
-1.367666e-03
-1.417038e-03
-1.467058e-03
-1.512236e-03
-4.705118e-04
-6.978634e-04
-8.930112e-04
-1.033700e-03
-1.135482e-03
-1.215822e-03
-1.287122e-03
-1.354236e-03
-1.419700e-03
-1.486205e-03
-1.545570e-03
-4.357887e-04
-6.695358e-04
-8.724543e-04
-1.015397e-03
-1.118215e-03
-1.201840e-03
-1.277950e-03
-1.349859e-03
-1.420937e-03
-1.493182e-03
-1.557199e-03
</DataArray>
</PointData>
</Piece>
</UnstructuredGrid>
</VTKFile>
