<?xml version="1.0"?>
<VTKFile type="UnstructuredGrid" version="0.1">
<UnstructuredGrid>
<FieldData>
<DataArray Name="TIME" type="Float64" format="ascii" NumberOfTuples="1">
0.000000e+00
</DataArray>
</FieldData>
<FieldData>
<DataArray Name="CYCLE" type="Int32" format="ascii" NumberOfTuples="1">
0
</DataArray>
</FieldData>
<Piece NumberOfPoints="187" NumberOfCells="160">
<Points>
<DataArray NumberOfComponents="3" type="Float64" format="ascii">
0.000000e+00 0.000000e+00 0.000000e+00
0.000000e+00 1.982122e-01 0.000000e+00
0.000000e+00 3.957765e-01 0.000000e+00
0.000000e+00 5.928493e-01 0.000000e+00
0.000000e+00 7.895638e-01 0.000000e+00
0.000000e+00 9.860417e-01 0.000000e+00
0.000000e+00 1.182380e+00 0.000000e+00
0.000000e+00 1.378704e+00 0.000000e+00
0.000000e+00 1.575219e+00 0.000000e+00
0.000000e+00 1.772250e+00 0.000000e+00
0.000000e+00 1.969625e+00 0.000000e+00
2.250000e-01 0.000000e+00 0.000000e+00
2.257974e-01 1.983577e-01 0.000000e+00
2.264814e-01 3.961318e-01 0.000000e+00
2.269551e-01 5.934412e-01 0.000000e+00
2.272340e-01 7.903718e-01 0.000000e+00
2.273417e-01 9.870001e-01 0.000000e+00
2.272859e-01 1.183399e+00 0.000000e+00
2.270205e-01 1.379669e+00 0.000000e+00
2.264559e-01 1.575929e+00 0.000000e+00
2.254736e-01 1.772381e+00 0.000000e+00
2.250000e-01 1.969625e+00 0.000000e+00
4.500000e-01 0.000000e+00 0.000000e+00
4.514140e-01 1.986720e-01 0.000000e+00
4.526110e-01 3.970214e-01 0.000000e+00
4.535032e-01 5.950706e-01 0.000000e+00
4.541419e-01 7.927768e-01 0.000000e+00
4.545551e-01 9.901062e-01 0.000000e+00
4.546735e-01 1.187035e+00 0.000000e+00
4.545230e-01 1.383497e+00 0.000000e+00
4.539092e-01 1.579468e+00 0.000000e+00
4.527011e-01 1.774816e+00 0.000000e+00
4.500000e-01 1.969625e+00 0.000000e+00
6.750000e-01 0.000000e+00 0.000000e+00
6.767389e-01 1.990009e-01 0.000000e+00
6.781179e-01 3.979417e-01 0.000000e+00
6.791838e-01 5.968844e-01 0.000000e+00
6.800247e-01 7.958620e-01 0.000000e+00
6.806939e-01 9.949124e-01 0.000000e+00
6.811433e-01 1.194091e+00 0.000000e+00
6.813249e-01 1.393423e+00 0.000000e+00
6.810911e-01 1.592936e+00 0.000000e+00
6.802091e-01 1.792853e+00 0.000000e+00
6.770366e-01 1.993460e+00 0.000000e+00
9.000000e-01 0.000000e+00 0.000000e+00
9.018257e-01 1.992479e-01 0.000000e+00
9.031598e-01 3.985325e-01 0.000000e+00
9.041579e-01 5.978803e-01 0.000000e+00
9.049169e-01 7.973027e-01 0.000000e+00
9.054669e-01 9.968250e-01 0.000000e+00
9.057775e-01 1.196477e+00 0.000000e+00
9.057898e-01 1.396293e+00 0.000000e+00
9.053701e-01 1.596314e+00 0.000000e+00
9.041499e-01 1.796541e+00 0.000000e+00
9.020610e-01 1.996517e+00 0.000000e+00
1.125000e+00 0.000000e+00 0.000000e+00
1.126768e+00 1.994645e-01 0.000000e+00
1.127990e+00 3.990039e-01 0.000000e+00
1.128888e+00 5.986201e-01 0.000000e+00
1.129548e+00 7.983181e-01 0.000000e+00
1.129987e+00 9.981133e-01 0.000000e+00
1.130178e+00 1.198021e+00 0.000000e+00
1.130073e+00 1.398058e+00 0.000000e+00
1.129564e+00 1.598216e+00 0.000000e+00
1.128580e+00 1.798385e+00 0.000000e+00
1.127295e+00 1.998439e+00 0.000000e+00
1.350000e+00 0.000000e+00 0.000000e+00
1.351613e+00 1.996313e-01 0.000000e+00
1.352705e+00 3.993534e-01 0.000000e+00
1.353501e+00 5.991517e-01 0.000000e+00
1.354065e+00 7.990265e-01 0.000000e+00
1.354413e+00 9.989846e-01 0.000000e+00
1.354528e+00 1.199030e+00 0.000000e+00
1.354374e+00 1.399159e+00 0.000000e+00
1.353922e+00 1.599337e+00 0.000000e+00
1.353207e+00 1.799488e+00 0.000000e+00
1.352404e+00 1.999530e+00 0.000000e+00
1.575000e+00 0.000000e+00 0.000000e+00
1.576406e+00 1.997535e-01 0.000000e+00
1.577362e+00 3.996015e-01 0.000000e+00
1.578060e+00 5.995208e-01 0.000000e+00
1.578545e+00 7.995064e-01 0.000000e+00
1.578828e+00 9.995576e-01 0.000000e+00
1.578900e+00 1.199672e+00 0.000000e+00
1.578752e+00 1.399837e+00 0.000000e+00
1.578401e+00 1.600014e+00 0.000000e+00
1.577911e+00 1.800146e+00 0.000000e+00
1.577411e+00 2.000200e+00 0.000000e+00
1.800000e+00 0.000000e+00 0.000000e+00
1.801178e+00 1.998404e-01 0.000000e+00
1.802005e+00 3.997681e-01 0.000000e+00
1.802610e+00 5.997606e-01 0.000000e+00
1.803027e+00 7.998111e-01 0.000000e+00
1.803261e+00 9.999156e-01 0.000000e+00
1.803316e+00 1.200066e+00 0.000000e+00
1.803203e+00 1.400241e+00 0.000000e+00
1.802956e+00 1.600407e+00 0.000000e+00
1.802634e+00 1.800532e+00 0.000000e+00
1.802334e+00 2.000598e+00 0.000000e+00
2.025000e+00 0.000000e+00 0.000000e+00
2.025957e+00 1.998926e-01 0.000000e+00
2.026659e+00 3.998681e-01 0.000000e+00
2.027178e+00 5.999030e-01 0.000000e+00
2.027532e+00 7.999918e-01 0.000000e+00
2.027730e+00 1.000125e+00 0.000000e+00
2.027784e+00 1.200288e+00 0.000000e+00
2.027714e+00 1.400460e+00 0.000000e+00
2.027553e+00 1.600618e+00 0.000000e+00
2.027352e+00 1.800740e+00 0.000000e+00
2.027187e+00 2.000820e+00 0.000000e+00
2.250000e+00 0.000000e+00 0.000000e+00
2.250757e+00 1.999251e-01 0.000000e+00
2.251340e+00 3.999251e-01 0.000000e+00
2.251773e+00 5.999830e-01 0.000000e+00
2.252071e+00 8.000896e-01 0.000000e+00
2.252242e+00 1.000232e+00 0.000000e+00
2.252302e+00 1.200395e+00 0.000000e+00
2.252269e+00 1.400560e+00 0.000000e+00
2.252172e+00 1.600711e+00 0.000000e+00
2.252058e+00 1.800835e+00 0.000000e+00
2.251980e+00 2.000928e+00 0.000000e+00
2.475000e+00 0.000000e+00 0.000000e+00
2.475585e+00 1.999426e-01 0.000000e+00
2.476054e+00 3.999551e-01 0.000000e+00
2.476405e+00 6.000215e-01 0.000000e+00
2.476652e+00 8.001320e-01 0.000000e+00
2.476799e+00 1.000273e+00 0.000000e+00
2.476861e+00 1.200430e+00 0.000000e+00
2.476853e+00 1.400589e+00 0.000000e+00
2.476803e+00 1.600735e+00 0.000000e+00
2.476747e+00 1.800861e+00 0.000000e+00
2.476724e+00 2.000966e+00 0.000000e+00
2.700000e+00 0.000000e+00 0.000000e+00
2.700438e+00 1.999526e-01 0.000000e+00
2.700799e+00 3.999680e-01 0.000000e+00
2.701075e+00 6.000348e-01 0.000000e+00
2.701272e+00 8.001423e-01 0.000000e+00
2.701394e+00 1.000278e+00 0.000000e+00
2.701452e+00 1.200428e+00 0.000000e+00
2.701460e+00 1.400580e+00 0.000000e+00
2.701440e+00 1.600723e+00 0.000000e+00
2.701419e+00 1.800851e+00 0.000000e+00
2.701426e+00 2.000965e+00 0.000000e+00
2.925000e+00 0.000000e+00 0.000000e+00
2.925312e+00 1.999561e-01 0.000000e+00
2.925575e+00 3.999719e-01 0.000000e+00
2.925778e+00 6.000365e-01 0.000000e+00
2.925925e+00 8.001392e-01 0.000000e+00
2.926019e+00 1.000268e+00 0.000000e+00
2.926068e+00 1.200411e+00 0.000000e+00
2.926082e+00 1.400557e+00 0.000000e+00
2.926079e+00 1.600696e+00 0.000000e+00
2.926077e+00 1.800827e+00 0.000000e+00
2.926097e+00 2.000949e+00 0.000000e+00
3.150000e+00 0.000000e+00 0.000000e+00
3.150201e+00 1.999594e-01 0.000000e+00
3.150372e+00 3.999747e-01 0.000000e+00
3.150506e+00 6.000372e-01 0.000000e+00
3.150603e+00 8.001359e-01 0.000000e+00
3.150667e+00 1.000259e+00 0.000000e+00
3.150702e+00 1.200396e+00 0.000000e+00
3.150716e+00 1.400537e+00 0.000000e+00
3.150719e+00 1.600674e+00 0.000000e+00
3.150725e+00 1.800805e+00 0.000000e+00
3.150744e+00 2.000934e+00 0.000000e+00
3.375000e+00 0.000000e+00 0.000000e+00
3.375100e+00 1.999637e-01 0.000000e+00
3.375183e+00 3.999819e-01 0.000000e+00
3.375249e+00 6.000439e-01 0.000000e+00
3.375298e+00 8.001402e-01 0.000000e+00
3.375330e+00 1.000260e+00 0.000000e+00
3.375348e+00 1.200393e+00 0.000000e+00
3.375356e+00 1.400531e+00 0.000000e+00
3.375360e+00 1.600666e+00 0.000000e+00
3.375364e+00 1.800799e+00 0.000000e+00
3.375376e+00 2.000931e+00 0.000000e+00
3.600000e+00 0.000000e+00 0.000000e+00
3.600000e+00 1.999785e-01 0.000000e+00
3.600000e+00 4.000004e-01 0.000000e+00
3.600000e+00 6.000623e-01 0.000000e+00
3.600000e+00 8.001577e-01 0.000000e+00
3.600000e+00 1.000276e+00 0.000000e+00
3.600000e+00 1.200408e+00 0.000000e+00
3.600000e+00 1.400544e+00 0.000000e+00
3.600000e+00 1.600679e+00 0.000000e+00
3.600000e+00 1.800812e+00 0.000000e+00
3.600000e+00 2.000945e+00 0.000000e+00
</DataArray>
</Points>
<Cells>
<DataArray Name="connectivity" type="Int32" format="ascii">
0 11 12 1
1 12 13 2
2 13 14 3
3 14 15 4
4 15 16 5
5 16 17 6
6 17 18 7
7 18 19 8
8 19 20 9
9 20 21 10
11 22 23 12
12 23 24 13
13 24 25 14
14 25 26 15
15 26 27 16
16 27 28 17
17 28 29 18
18 29 30 19
19 30 31 20
20 31 32 21
22 33 34 23
23 34 35 24
24 35 36 25
25 36 37 26
26 37 38 27
27 38 39 28
28 39 40 29
29 40 41 30
30 41 42 31
31 42 43 32
33 44 45 34
34 45 46 35
35 46 47 36
36 47 48 37
37 48 49 38
38 49 50 39
39 50 51 40
40 51 52 41
41 52 53 42
42 53 54 43
44 55 56 45
45 56 57 46
46 57 58 47
47 58 59 48
48 59 60 49
49 60 61 50
50 61 62 51
51 62 63 52
52 63 64 53
53 64 65 54
55 66 67 56
56 67 68 57
57 68 69 58
58 69 70 59
59 70 71 60
60 71 72 61
61 72 73 62
62 73 74 63
63 74 75 64
64 75 76 65
66 77 78 67
67 78 79 68
68 79 80 69
69 80 81 70
70 81 82 71
71 82 83 72
72 83 84 73
73 84 85 74
74 85 86 75
75 86 87 76
77 88 89 78
78 89 90 79
79 90 91 80
80 91 92 81
81 92 93 82
82 93 94 83
83 94 95 84
84 95 96 85
85 96 97 86
86 97 98 87
88 99 100 89
89 100 101 90
90 101 102 91
91 102 103 92
92 103 104 93
93 104 105 94
94 105 106 95
95 106 107 96
96 107 108 97
97 108 109 98
99 110 111 100
100 111 112 101
101 112 113 102
102 113 114 103
103 114 115 104
104 115 116 105
105 116 117 106
106 117 118 107
107 118 119 108
108 119 120 109
110 121 122 111
111 122 123 112
112 123 124 113
113 124 125 114
114 125 126 115
115 126 127 116
116 127 128 117
117 128 129 118
118 129 130 119
119 130 131 120
121 132 133 122
122 133 134 123
123 134 135 124
124 135 136 125
125 136 137 126
126 137 138 127
127 138 139 128
128 139 140 129
129 140 141 130
130 141 142 131
132 143 144 133
133 144 145 134
134 145 146 135
135 146 147 136
136 147 148 137
137 148 149 138
138 149 150 139
139 150 151 140
140 151 152 141
141 152 153 142
143 154 155 144
144 155 156 145
145 156 157 146
146 157 158 147
147 158 159 148
148 159 160 149
149 160 161 150
150 161 162 151
151 162 163 152
152 163 164 153
154 165 166 155
155 166 167 156
156 167 168 157
157 168 169 158
158 169 170 159
159 170 171 160
160 171 172 161
161 172 173 162
162 173 174 163
163 174 175 164
165 176 177 166
166 177 178 167
167 178 179 168
168 179 180 169
169 180 181 170
170 181 182 171
171 182 183 172
172 183 184 173
173 184 185 174
174 185 186 175
</DataArray>
<DataArray Name="offsets" type="Int32" format="ascii">
4
8
12
16
20
24
28
32
36
40
44
48
52
56
60
64
68
72
76
80
84
88
92
96
100
104
108
112
116
120
124
128
132
136
140
144
148
152
156
160
164
168
172
176
180
184
188
192
196
200
204
208
212
216
220
224
228
232
236
240
244
248
252
256
260
264
268
272
276
280
284
288
292
296
300
304
308
312
316
320
324
328
332
336
340
344
348
352
356
360
364
368
372
376
380
384
388
392
396
400
404
408
412
416
420
424
428
432
436
440
444
448
452
456
460
464
468
472
476
480
484
488
492
496
500
504
508
512
516
520
524
528
532
536
540
544
548
552
556
560
564
568
572
576
580
584
588
592
596
600
604
608
612
616
620
624
628
632
636
640
</DataArray>
<DataArray Name="types" type="UInt8" format="ascii">
9
9
9
9
9
9
9
9
9
9
9
9
9
9
9
9
9
9
9
9
9
9
9
9
9
9
9
9
9
9
9
9
9
9
9
9
9
9
9
9
9
9
9
9
9
9
9
9
9
9
9
9
9
9
9
9
9
9
9
9
9
9
9
9
9
9
9
9
9
9
9
9
9
9
9
9
9
9
9
9
9
9
9
9
9
9
9
9
9
9
9
9
9
9
9
9
9
9
9
9
9
9
9
9
9
9
9
9
9
9
9
9
9
9
9
9
9
9
9
9
9
9
9
9
9
9
9
9
9
9
9
9
9
9
9
9
9
9
9
9
9
9
9
9
9
9
9
9
9
9
9
9
9
9
9
9
9
9
9
9
</DataArray>
</Cells>
<PointData>
<DataArray Name="disp" type="Float64" NumberOfComponents="3" format="ascii">
0.000000e+00 0.000000e+00 0.000000e+00
0.000000e+00 -1.787760e-03 0.000000e+00
0.000000e+00 -4.223537e-03 0.000000e+00
0.000000e+00 -7.150743e-03 0.000000e+00
0.000000e+00 -1.043615e-02 0.000000e+00
0.000000e+00 -1.395836e-02 0.000000e+00
0.000000e+00 -1.761967e-02 0.000000e+00
0.000000e+00 -2.129603e-02 0.000000e+00
0.000000e+00 -2.478120e-02 0.000000e+00
0.000000e+00 -2.775048e-02 0.000000e+00
0.000000e+00 -3.037500e-02 0.000000e+00
0.000000e+00 0.000000e+00 0.000000e+00
7.974242e-04 -1.642264e-03 0.000000e+00
1.481394e-03 -3.868185e-03 0.000000e+00
1.955100e-03 -6.558757e-03 0.000000e+00
2.234034e-03 -9.628135e-03 0.000000e+00
2.341712e-03 -1.299987e-02 0.000000e+00
2.285867e-03 -1.660097e-02 0.000000e+00
2.020463e-03 -2.033084e-02 0.000000e+00
1.455933e-03 -2.407087e-02 0.000000e+00
4.736405e-04 -2.761905e-02 0.000000e+00
0.000000e+00 -3.037500e-02 0.000000e+00
0.000000e+00 0.000000e+00 0.000000e+00
1.413998e-03 -1.327990e-03 0.000000e+00
2.610969e-03 -2.978598e-03 0.000000e+00
3.503228e-03 -4.929417e-03 0.000000e+00
4.141841e-03 -7.223180e-03 0.000000e+00
4.555075e-03 -9.893754e-03 0.000000e+00
4.673512e-03 -1.296470e-02 0.000000e+00
4.523035e-03 -1.650281e-02 0.000000e+00
3.909231e-03 -2.053235e-02 0.000000e+00
2.701051e-03 -2.518374e-02 0.000000e+00
0.000000e+00 -3.037500e-02 0.000000e+00
0.000000e+00 0.000000e+00 0.000000e+00
1.738911e-03 -9.991124e-04 0.000000e+00
3.117921e-03 -2.058291e-03 0.000000e+00
4.183863e-03 -3.115596e-03 0.000000e+00
5.024728e-03 -4.138057e-03 0.000000e+00
5.693884e-03 -5.087539e-03 0.000000e+00
6.143312e-03 -5.908802e-03 0.000000e+00
6.324912e-03 -6.576755e-03 0.000000e+00
6.091050e-03 -7.064041e-03 0.000000e+00
5.209086e-03 -7.146697e-03 0.000000e+00
2.036618e-03 -6.540257e-03 0.000000e+00
0.000000e+00 0.000000e+00 0.000000e+00
1.825661e-03 -7.521186e-04 0.000000e+00
3.159790e-03 -1.467528e-03 0.000000e+00
4.157896e-03 -2.119720e-03 0.000000e+00
4.916879e-03 -2.697313e-03 0.000000e+00
5.466868e-03 -3.174980e-03 0.000000e+00
5.777522e-03 -3.522806e-03 0.000000e+00
5.789817e-03 -3.707101e-03 0.000000e+00
5.370082e-03 -3.685538e-03 0.000000e+00
4.149891e-03 -3.458792e-03 0.000000e+00
2.061008e-03 -3.482681e-03 0.000000e+00
0.000000e+00 0.000000e+00 0.000000e+00
1.767468e-03 -5.354810e-04 0.000000e+00
2.989995e-03 -9.960689e-04 0.000000e+00
3.888465e-03 -1.379954e-03 0.000000e+00
4.548169e-03 -1.681838e-03 0.000000e+00
4.987411e-03 -1.886683e-03 0.000000e+00
5.177760e-03 -1.978789e-03 0.000000e+00
5.072846e-03 -1.942149e-03 0.000000e+00
4.563857e-03 -1.784106e-03 0.000000e+00
3.580252e-03 -1.615416e-03 0.000000e+00
2.294932e-03 -1.561175e-03 0.000000e+00
0.000000e+00 0.000000e+00 0.000000e+00
1.612534e-03 -3.686587e-04 0.000000e+00
2.704467e-03 -6.465797e-04 0.000000e+00
3.500670e-03 -8.482661e-04 0.000000e+00
4.065389e-03 -9.734512e-04 0.000000e+00
4.413410e-03 -1.015446e-03 0.000000e+00
4.528222e-03 -9.696825e-04 0.000000e+00
4.374410e-03 -8.412839e-04 0.000000e+00
3.922191e-03 -6.635190e-04 0.000000e+00
3.207400e-03 -5.115326e-04 0.000000e+00
2.403575e-03 -4.697452e-04 0.000000e+00
0.000000e+00 0.000000e+00 0.000000e+00
1.406085e-03 -2.464827e-04 0.000000e+00
2.361844e-03 -3.984391e-04 0.000000e+00
3.059701e-03 -4.792104e-04 0.000000e+00
3.544665e-03 -4.936617e-04 0.000000e+00
3.827859e-03 -4.424464e-04 0.000000e+00
3.899687e-03 -3.277378e-04 0.000000e+00
3.751704e-03 -1.629807e-04 0.000000e+00
3.401252e-03 1.388401e-05 0.000000e+00
2.910794e-03 1.460480e-04 0.000000e+00
2.411403e-03 1.999378e-04 0.000000e+00
0.000000e+00 0.000000e+00 0.000000e+00
1.178406e-03 -1.595592e-04 0.000000e+00
2.004664e-03 -2.318753e-04 0.000000e+00
2.610053e-03 -2.394281e-04 0.000000e+00
3.027042e-03 -1.889171e-04 0.000000e+00
3.260904e-03 -8.439658e-05 0.000000e+00
3.315627e-03 6.594676e-05 0.000000e+00
3.203358e-03 2.408050e-04 0.000000e+00
2.955750e-03 4.070596e-04 0.000000e+00
2.633597e-03 5.320405e-04 0.000000e+00
2.334099e-03 5.984733e-04 0.000000e+00
0.000000e+00 0.000000e+00 0.000000e+00
9.569806e-04 -1.074223e-04 0.000000e+00
1.658752e-03 -1.319403e-04 0.000000e+00
2.177923e-03 -9.697059e-05 0.000000e+00
2.531789e-03 -8.167257e-06 0.000000e+00
2.730137e-03 1.249828e-04 0.000000e+00
2.784351e-03 2.879083e-04 0.000000e+00
2.714205e-03 4.598747e-04 0.000000e+00
2.552508e-03 6.175226e-04 0.000000e+00
2.352411e-03 7.405216e-04 0.000000e+00
2.187143e-03 8.202319e-04 0.000000e+00
0.000000e+00 0.000000e+00 0.000000e+00
7.573735e-04 -7.486636e-05 0.000000e+00
1.340416e-03 -7.489297e-05 0.000000e+00
1.773325e-03 -1.696983e-05 0.000000e+00
2.070940e-03 8.959848e-05 0.000000e+00
2.242399e-03 2.321357e-04 0.000000e+00
2.301939e-03 3.947082e-04 0.000000e+00
2.268566e-03 5.601404e-04 0.000000e+00
2.171859e-03 7.113139e-04 0.000000e+00
2.057896e-03 8.351303e-04 0.000000e+00
1.980225e-03 9.278434e-04 0.000000e+00
0.000000e+00 0.000000e+00 0.000000e+00
5.850866e-04 -5.738174e-05 0.000000e+00
1.054033e-03 -4.494818e-05 0.000000e+00
1.405171e-03 2.151704e-05 0.000000e+00
1.651567e-03 1.320217e-04 0.000000e+00
1.799142e-03 2.729543e-04 0.000000e+00
1.860893e-03 4.300050e-04 0.000000e+00
1.853324e-03 5.886641e-04 0.000000e+00
1.803149e-03 7.353489e-04 0.000000e+00
1.746632e-03 8.611196e-04 0.000000e+00
1.723758e-03 9.655107e-04 0.000000e+00
0.000000e+00 0.000000e+00 0.000000e+00
4.379236e-04 -4.741805e-05 0.000000e+00
7.993344e-04 -3.197826e-05 0.000000e+00
1.075346e-03 3.474917e-05 0.000000e+00
1.271587e-03 1.422831e-04 0.000000e+00
1.394113e-03 2.778213e-04 0.000000e+00
1.452063e-03 4.277041e-04 0.000000e+00
1.460016e-03 5.795599e-04 0.000000e+00
1.439993e-03 7.225181e-04 0.000000e+00
1.419153e-03 8.505883e-04 0.000000e+00
1.426303e-03 9.650684e-04 0.000000e+00
0.000000e+00 0.000000e+00 0.000000e+00
3.114959e-04 -4.386538e-05 0.000000e+00
5.745143e-04 -2.806476e-05 0.000000e+00
7.782920e-04 3.651009e-05 0.000000e+00
9.248731e-04 1.392268e-04 0.000000e+00
1.019152e-03 2.683894e-04 0.000000e+00
1.067899e-03 4.112819e-04 0.000000e+00
1.082369e-03 5.566775e-04 0.000000e+00
1.079212e-03 6.964580e-04 0.000000e+00
1.077351e-03 8.265079e-04 0.000000e+00
1.096938e-03 9.491189e-04 0.000000e+00
0.000000e+00 0.000000e+00 0.000000e+00
2.010330e-04 -4.061663e-05 0.000000e+00
3.721014e-04 -2.526308e-05 0.000000e+00
5.055813e-04 3.714559e-05 0.000000e+00
6.032204e-04 1.358260e-04 0.000000e+00
6.668380e-04 2.592946e-04 0.000000e+00
7.020715e-04 3.963000e-04 0.000000e+00
7.158373e-04 5.367164e-04 0.000000e+00
7.193185e-04 6.740135e-04 0.000000e+00
7.245654e-04 8.054741e-04 0.000000e+00
7.439447e-04 9.337974e-04 0.000000e+00
0.000000e+00 0.000000e+00 0.000000e+00
1.003985e-04 -3.632517e-05 0.000000e+00
1.833371e-04 -1.812140e-05 0.000000e+00
2.489616e-04 4.391826e-05 0.000000e+00
2.976126e-04 1.402193e-04 0.000000e+00
3.296854e-04 2.601469e-04 0.000000e+00
3.480531e-04 3.932437e-04 0.000000e+00
3.562729e-04 5.305938e-04 0.000000e+00
3.596047e-04 6.662534e-04 0.000000e+00
3.641889e-04 7.985707e-04 0.000000e+00
3.757080e-04 9.304883e-04 0.000000e+00
0.000000e+00 0.000000e+00 0.000000e+00
0.000000e+00 -2.153227e-05 0.000000e+00
0.000000e+00 4.293034e-07 0.000000e+00
0.000000e+00 6.229134e-05 0.000000e+00
0.000000e+00 1.576523e-04 0.000000e+00
0.000000e+00 2.761370e-04 0.000000e+00
0.000000e+00 4.079680e-04 0.000000e+00
0.000000e+00 5.441033e-04 0.000000e+00
0.000000e+00 6.792402e-04 0.000000e+00
0.000000e+00 8.117676e-04 0.000000e+00
0.000000e+00 9.449669e-04 0.000000e+00
</DataArray>
<DataArray Name="shear" type="Float64" NumberOfComponents="1" format="ascii">
1.003457e-02
1.390311e-02
1.969475e-02
2.399727e-02
2.688647e-02
2.849188e-02
2.876612e-02
2.726484e-02
2.317099e-02
1.716163e-02
1.414245e-02
1.006494e-02
1.340519e-02
1.855503e-02
2.277031e-02
2.615598e-02
2.865381e-02
3.001999e-02
2.989276e-02
2.765161e-02
2.255776e-02
1.792369e-02
1.037770e-02
1.233489e-02
1.557395e-02
1.915226e-02
2.339675e-02
2.818036e-02
3.344425e-02
3.886018e-02
4.393582e-02
4.650646e-02
4.657450e-02
1.044291e-02
1.090974e-02
1.163960e-02
1.313156e-02
1.568384e-02
1.921984e-02
2.375991e-02
2.924196e-02
3.529042e-02
3.920644e-02
4.192017e-02
1.011986e-02
9.657498e-03
8.809054e-03
8.645394e-03
8.916966e-03
9.305595e-03
9.590713e-03
9.560542e-03
8.576898e-03
5.212492e-03
1.511956e-03
9.413673e-03
8.565790e-03
7.232743e-03
6.741696e-03
6.613601e-03
6.566024e-03
6.426465e-03
5.984019e-03
4.826568e-03
2.474611e-03
3.872352e-04
8.401877e-03
7.451500e-03
6.056083e-03
5.498861e-03
5.235591e-03
5.049528e-03
4.801710e-03
4.346631e-03
3.441095e-03
1.872360e-03
6.081756e-04
7.236454e-03
6.370803e-03
5.143634e-03
4.634211e-03
4.358575e-03
4.164344e-03
3.947364e-03
3.573216e-03
2.863624e-03
1.716707e-03
8.300294e-04
6.025134e-03
5.335639e-03
4.376686e-03
3.966155e-03
3.756014e-03
3.625477e-03
3.465140e-03
3.149840e-03
2.582916e-03
1.726916e-03
1.095911e-03
4.874549e-03
4.376502e-03
3.703552e-03
3.424841e-03
3.315708e-03
3.252728e-03
3.132938e-03
2.878054e-03
2.438131e-03
1.802201e-03
1.357929e-03
3.849922e-03
3.520272e-03
3.099305e-03
2.960728e-03
2.949369e-03
2.946476e-03
2.875419e-03
2.689066e-03
2.359838e-03
1.902355e-03
1.601998e-03
2.968178e-03
2.762279e-03
2.548672e-03
2.542436e-03
2.623936e-03
2.684273e-03
2.670315e-03
2.550981e-03
2.316792e-03
2.006010e-03
1.816321e-03
2.217811e-03
2.098086e-03
2.056620e-03
2.179453e-03
2.349532e-03
2.471693e-03
2.507746e-03
2.444915e-03
2.293074e-03
2.101554e-03
1.996156e-03
1.576744e-03
1.523147e-03
1.638759e-03
1.887356e-03
2.133845e-03
2.306063e-03
2.380429e-03
2.363178e-03
2.279671e-03
2.180906e-03
2.137390e-03
1.020127e-03
1.030311e-03
1.311196e-03
1.675011e-03
1.980087e-03
2.185989e-03
2.288269e-03
2.305341e-03
2.272693e-03
2.239536e-03
2.238030e-03
5.169393e-04
6.361304e-04
1.101354e-03
1.545546e-03
1.887240e-03
2.113007e-03
2.232990e-03
2.272102e-03
2.270478e-03
2.276379e-03
2.298844e-03
1.899725e-04
4.688434e-04
1.029169e-03
1.498828e-03
1.853366e-03
2.087066e-03
2.214024e-03
2.261507e-03
2.270528e-03
2.289039e-03
2.319142e-03
</DataArray>
<DataArray Name="stress" type="Float64" NumberOfComponents="9" format="ascii">
-9.192752e+04 3.628211e+03 0.000000e+00 3.628211e+03 -1.454871e+05 0.000000e+00 0.000000e+00 0.000000e+00 0.000000e+00
-8.455059e+04 3.626363e+03 0.000000e+00 3.626363e+03 -1.449581e+05 0.000000e+00 0.000000e+00 0.000000e+00 0.000000e+00
-8.132830e+04 3.989201e+03 0.000000e+00 3.989201e+03 -1.532249e+05 0.000000e+00 0.000000e+00 0.000000e+00 0.000000e+00
-8.097874e+04 4.432614e+03 0.000000e+00 4.432614e+03 -1.616369e+05 0.000000e+00 0.000000e+00 0.000000e+00 0.000000e+00
-8.274520e+04 4.648771e+03 0.000000e+00 4.648771e+03 -1.701226e+05 0.000000e+00 0.000000e+00 0.000000e+00 0.000000e+00
-8.587802e+04 4.834191e+03 0.000000e+00 4.834191e+03 -1.784843e+05 0.000000e+00 0.000000e+00 0.000000e+00 0.000000e+00
-9.011288e+04 4.843333e+03 0.000000e+00 4.843333e+03 -1.865540e+05 0.000000e+00 0.000000e+00 0.000000e+00 0.000000e+00
-9.532201e+04 4.289117e+03 0.000000e+00 4.289117e+03 -1.935739e+05 0.000000e+00 0.000000e+00 0.000000e+00 0.000000e+00
-1.024610e+05 2.058001e+03 0.000000e+00 2.058001e+03 -1.972393e+05 0.000000e+00 0.000000e+00 0.000000e+00 0.000000e+00
-1.140898e+05 -9.555668e+02 0.000000e+00 -9.555668e+02 -1.982477e+05 0.000000e+00 0.000000e+00 0.000000e+00 0.000000e+00
-1.210070e+05 -1.660380e+03 0.000000e+00 -1.660380e+03 -1.974740e+05 0.000000e+00 0.000000e+00 0.000000e+00 0.000000e+00
-9.072891e+04 9.937319e+03 0.000000e+00 9.937319e+03 -1.389433e+05 0.000000e+00 0.000000e+00 0.000000e+00 0.000000e+00
-8.413619e+04 9.315222e+03 0.000000e+00 9.315222e+03 -1.384550e+05 0.000000e+00 0.000000e+00 0.000000e+00 0.000000e+00
-8.134529e+04 9.213152e+03 0.000000e+00 9.213152e+03 -1.457026e+05 0.000000e+00 0.000000e+00 0.000000e+00 0.000000e+00
-8.133820e+04 9.423262e+03 0.000000e+00 9.423262e+03 -1.532384e+05 0.000000e+00 0.000000e+00 0.000000e+00 0.000000e+00
-8.341020e+04 9.749843e+03 0.000000e+00 9.749843e+03 -1.612849e+05 0.000000e+00 0.000000e+00 0.000000e+00 0.000000e+00
-8.658048e+04 9.995197e+03 0.000000e+00 9.995197e+03 -1.697471e+05 0.000000e+00 0.000000e+00 0.000000e+00 0.000000e+00
-9.068398e+04 1.003097e+04 0.000000e+00 1.003097e+04 -1.788853e+05 0.000000e+00 0.000000e+00 0.000000e+00 0.000000e+00
-9.498769e+04 9.011624e+03 0.000000e+00 9.011624e+03 -1.880896e+05 0.000000e+00 0.000000e+00 0.000000e+00 0.000000e+00
-1.005014e+05 5.625458e+03 0.000000e+00 5.625458e+03 -1.973037e+05 0.000000e+00 0.000000e+00 0.000000e+00 0.000000e+00
-1.091161e+05 2.768095e+02 0.000000e+00 2.768095e+02 -2.028789e+05 0.000000e+00 0.000000e+00 0.000000e+00 0.000000e+00
-1.242671e+05 -4.998346e+03 0.000000e+00 -4.998346e+03 -2.141272e+05 0.000000e+00 0.000000e+00 0.000000e+00 0.000000e+00
-8.782538e+04 1.632057e+04 0.000000e+00 1.632057e+04 -1.248902e+05 0.000000e+00 0.000000e+00 0.000000e+00 0.000000e+00
-8.293201e+04 1.567667e+04 0.000000e+00 1.567667e+04 -1.240210e+05 0.000000e+00 0.000000e+00 0.000000e+00 0.000000e+00
-8.114130e+04 1.585351e+04 0.000000e+00 1.585351e+04 -1.280972e+05 0.000000e+00 0.000000e+00 0.000000e+00 0.000000e+00
-8.207652e+04 1.701279e+04 0.000000e+00 1.701279e+04 -1.328568e+05 0.000000e+00 0.000000e+00 0.000000e+00 0.000000e+00
-8.537755e+04 1.871241e+04 0.000000e+00 1.871241e+04 -1.385740e+05 0.000000e+00 0.000000e+00 0.000000e+00 0.000000e+00
-8.988915e+04 2.056701e+04 0.000000e+00 2.056701e+04 -1.458964e+05 0.000000e+00 0.000000e+00 0.000000e+00 0.000000e+00
-9.573744e+04 2.226553e+04 0.000000e+00 2.226553e+04 -1.550816e+05 0.000000e+00 0.000000e+00 0.000000e+00 0.000000e+00
-1.016019e+05 2.246226e+04 0.000000e+00 2.246226e+04 -1.643020e+05 0.000000e+00 0.000000e+00 0.000000e+00 0.000000e+00
-1.084451e+05 2.282777e+04 0.000000e+00 2.282777e+04 -1.773820e+05 0.000000e+00 0.000000e+00 0.000000e+00 0.000000e+00
-1.200197e+05 1.915121e+04 0.000000e+00 1.915121e+04 -1.949042e+05 0.000000e+00 0.000000e+00 0.000000e+00 0.000000e+00
-1.415654e+05 1.353916e+04 0.000000e+00 1.353916e+04 -2.178013e+05 0.000000e+00 0.000000e+00 0.000000e+00 0.000000e+00
-8.445677e+04 1.864836e+04 0.000000e+00 1.864836e+04 -1.108226e+05 0.000000e+00 0.000000e+00 0.000000e+00 0.000000e+00
-8.168303e+04 1.806132e+04 0.000000e+00 1.806132e+04 -1.099054e+05 0.000000e+00 0.000000e+00 0.000000e+00 0.000000e+00
-8.082768e+04 1.809506e+04 0.000000e+00 1.809506e+04 -1.105170e+05 0.000000e+00 0.000000e+00 0.000000e+00 0.000000e+00
-8.164230e+04 1.924646e+04 0.000000e+00 1.924646e+04 -1.101624e+05 0.000000e+00 0.000000e+00 0.000000e+00 0.000000e+00
-8.336362e+04 2.070623e+04 0.000000e+00 2.070623e+04 -1.086505e+05 0.000000e+00 0.000000e+00 0.000000e+00 0.000000e+00
-8.528272e+04 2.202649e+04 0.000000e+00 2.202649e+04 -1.063703e+05 0.000000e+00 0.000000e+00 0.000000e+00 0.000000e+00
-8.726645e+04 2.299623e+04 0.000000e+00 2.299623e+04 -1.029700e+05 0.000000e+00 0.000000e+00 0.000000e+00 0.000000e+00
-8.864008e+04 2.269600e+04 0.000000e+00 2.269600e+04 -9.806582e+04 0.000000e+00 0.000000e+00 0.000000e+00 0.000000e+00
-8.934830e+04 2.272400e+04 0.000000e+00 2.272400e+04 -9.201953e+04 0.000000e+00 0.000000e+00 0.000000e+00 0.000000e+00
-8.542801e+04 1.816297e+04 0.000000e+00 1.816297e+04 -8.002893e+04 0.000000e+00 0.000000e+00 0.000000e+00 0.000000e+00
-7.735331e+04 1.466416e+04 0.000000e+00 1.466416e+04 -7.253721e+04 0.000000e+00 0.000000e+00 0.000000e+00 0.000000e+00
-8.103394e+04 1.876934e+04 0.000000e+00 1.876934e+04 -9.943172e+04 0.000000e+00 0.000000e+00 0.000000e+00 0.000000e+00
-8.064055e+04 1.817810e+04 0.000000e+00 1.817810e+04 -9.891957e+04 0.000000e+00 0.000000e+00 0.000000e+00 0.000000e+00
-8.171929e+04 1.763195e+04 0.000000e+00 1.763195e+04 -9.836158e+04 0.000000e+00 0.000000e+00 0.000000e+00 0.000000e+00
-8.391052e+04 1.799544e+04 0.000000e+00 1.799544e+04 -9.702548e+04 0.000000e+00 0.000000e+00 0.000000e+00 0.000000e+00
-8.639227e+04 1.866831e+04 0.000000e+00 1.866831e+04 -9.481844e+04 0.000000e+00 0.000000e+00 0.000000e+00 0.000000e+00
-8.900136e+04 1.913347e+04 0.000000e+00 1.913347e+04 -9.172984e+04 0.000000e+00 0.000000e+00 0.000000e+00 0.000000e+00
-9.130870e+04 1.907667e+04 0.000000e+00 1.907667e+04 -8.756521e+04 0.000000e+00 0.000000e+00 0.000000e+00 0.000000e+00
-9.309176e+04 1.806827e+04 0.000000e+00 1.806827e+04 -8.200522e+04 0.000000e+00 0.000000e+00 0.000000e+00 0.000000e+00
-9.318311e+04 1.487711e+04 0.000000e+00 1.487711e+04 -7.453630e+04 0.000000e+00 0.000000e+00 0.000000e+00 0.000000e+00
-8.637724e+04 7.525911e+03 0.000000e+00 7.525911e+03 -6.751569e+04 0.000000e+00 0.000000e+00 0.000000e+00 0.000000e+00
-6.583162e+04 1.555091e+03 0.000000e+00 1.555091e+03 -5.855565e+04 0.000000e+00 0.000000e+00 0.000000e+00 0.000000e+00
-7.730513e+04 1.785594e+04 0.000000e+00 1.785594e+04 -8.964836e+04 0.000000e+00 0.000000e+00 0.000000e+00 0.000000e+00
-7.898283e+04 1.725815e+04 0.000000e+00 1.725815e+04 -8.944778e+04 0.000000e+00 0.000000e+00 0.000000e+00 0.000000e+00
-8.154800e+04 1.622662e+04 0.000000e+00 1.622662e+04 -8.811251e+04 0.000000e+00 0.000000e+00 0.000000e+00 0.000000e+00
-8.435856e+04 1.586236e+04 0.000000e+00 1.586236e+04 -8.619224e+04 0.000000e+00 0.000000e+00 0.000000e+00 0.000000e+00
-8.682169e+04 1.559444e+04 0.000000e+00 1.559444e+04 -8.366100e+04 0.000000e+00 0.000000e+00 0.000000e+00 0.000000e+00
-8.893684e+04 1.503381e+04 0.000000e+00 1.503381e+04 -8.036709e+04 0.000000e+00 0.000000e+00 0.000000e+00 0.000000e+00
-9.042246e+04 1.379646e+04 0.000000e+00 1.379646e+04 -7.617722e+04 0.000000e+00 0.000000e+00 0.000000e+00 0.000000e+00
-9.072991e+04 1.133991e+04 0.000000e+00 1.133991e+04 -7.118234e+04 0.000000e+00 0.000000e+00 0.000000e+00 0.000000e+00
-8.817199e+04 7.054387e+03 0.000000e+00 7.054387e+03 -6.614520e+04 0.000000e+00 0.000000e+00 0.000000e+00 0.000000e+00
-7.710228e+04 1.739984e+03 0.000000e+00 1.739984e+03 -6.223314e+04 0.000000e+00 0.000000e+00 0.000000e+00 0.000000e+00
-6.117063e+04 -6.224440e+02 0.000000e+00 -6.224440e+02 -5.850730e+04 0.000000e+00 0.000000e+00 0.000000e+00 0.000000e+00
-7.378117e+04 1.634411e+04 0.000000e+00 1.634411e+04 -8.170272e+04 0.000000e+00 0.000000e+00 0.000000e+00 0.000000e+00
-7.707677e+04 1.579172e+04 0.000000e+00 1.579172e+04 -8.173916e+04 0.000000e+00 0.000000e+00 0.000000e+00 0.000000e+00
-8.076851e+04 1.439635e+04 0.000000e+00 1.439635e+04 -8.008200e+04 0.000000e+00 0.000000e+00 0.000000e+00 0.000000e+00
-8.380967e+04 1.345398e+04 0.000000e+00 1.345398e+04 -7.809144e+04 0.000000e+00 0.000000e+00 0.000000e+00 0.000000e+00
-8.608257e+04 1.244432e+04 0.000000e+00 1.244432e+04 -7.562805e+04 0.000000e+00 0.000000e+00 0.000000e+00 0.000000e+00
-8.768683e+04 1.108120e+04 0.000000e+00 1.108120e+04 -7.262089e+04 0.000000e+00 0.000000e+00 0.000000e+00 0.000000e+00
-8.828093e+04 9.103257e+03 0.000000e+00 9.103257e+03 -6.919119e+04 0.000000e+00 0.000000e+00 0.000000e+00 0.000000e+00
-8.720010e+04 6.251038e+03 0.000000e+00 6.251038e+03 -6.565947e+04 0.000000e+00 0.000000e+00 0.000000e+00 0.000000e+00
-8.296459e+04 2.630261e+03 0.000000e+00 2.630261e+03 -6.258718e+04 0.000000e+00 0.000000e+00 0.000000e+00 0.000000e+00
-7.321986e+04 -2.912553e+02 0.000000e+00 -2.912553e+02 -6.058794e+04 0.000000e+00 0.000000e+00 0.000000e+00 0.000000e+00
-6.269584e+04 -1.224779e+03 0.000000e+00 -1.224779e+03 -5.876546e+04 0.000000e+00 0.000000e+00 0.000000e+00 0.000000e+00
-7.075452e+04 1.459720e+04 0.000000e+00 1.459720e+04 -7.564788e+04 0.000000e+00 0.000000e+00 0.000000e+00 0.000000e+00
-7.514269e+04 1.408826e+04 0.000000e+00 1.408826e+04 -7.580894e+04 0.000000e+00 0.000000e+00 0.000000e+00 0.000000e+00
-7.948348e+04 1.250886e+04 0.000000e+00 1.250886e+04 -7.406054e+04 0.000000e+00 0.000000e+00 0.000000e+00 0.000000e+00
-8.256721e+04 1.111569e+04 0.000000e+00 1.111569e+04 -7.218716e+04 0.000000e+00 0.000000e+00 0.000000e+00 0.000000e+00
-8.462743e+04 9.612036e+03 0.000000e+00 9.612036e+03 -7.002061e+04 0.000000e+00 0.000000e+00 0.000000e+00 0.000000e+00
-8.576252e+04 7.840107e+03 0.000000e+00 7.840107e+03 -6.762428e+04 0.000000e+00 0.000000e+00 0.000000e+00 0.000000e+00
-8.563418e+04 5.635809e+03 0.000000e+00 5.635809e+03 -6.513520e+04 0.000000e+00 0.000000e+00 0.000000e+00 0.000000e+00
-8.376342e+04 2.998041e+03 0.000000e+00 2.998041e+03 -6.279492e+04 0.000000e+00 0.000000e+00 0.000000e+00 0.000000e+00
-7.947191e+04 3.848918e+02 0.000000e+00 3.848918e+02 -6.102585e+04 0.000000e+00 0.000000e+00 0.000000e+00 0.000000e+00
-7.190260e+04 -1.031623e+03 0.000000e+00 -1.031623e+03 -6.011966e+04 0.000000e+00 0.000000e+00 0.000000e+00 0.000000e+00
-6.488309e+04 -1.166720e+03 0.000000e+00 -1.166720e+03 -5.917826e+04 0.000000e+00 0.000000e+00 0.000000e+00 0.000000e+00
-6.834970e+04 1.294624e+04 0.000000e+00 1.294624e+04 -7.118562e+04 0.000000e+00 0.000000e+00 0.000000e+00 0.000000e+00
-7.323188e+04 1.237033e+04 0.000000e+00 1.237033e+04 -7.135409e+04 0.000000e+00 0.000000e+00 0.000000e+00 0.000000e+00
-7.786837e+04 1.068209e+04 0.000000e+00 1.068209e+04 -6.970304e+04 0.000000e+00 0.000000e+00 0.000000e+00 0.000000e+00
-8.088864e+04 9.041318e+03 0.000000e+00 9.041318e+03 -6.803766e+04 0.000000e+00 0.000000e+00 0.000000e+00 0.000000e+00
-8.277498e+04 7.318624e+03 0.000000e+00 7.318624e+03 -6.628171e+04 0.000000e+00 0.000000e+00 0.000000e+00 0.000000e+00
-8.353475e+04 5.400896e+03 0.000000e+00 5.400896e+03 -6.447923e+04 0.000000e+00 0.000000e+00 0.000000e+00 0.000000e+00
-8.300557e+04 3.249502e+03 0.000000e+00 3.249502e+03 -6.271631e+04 0.000000e+00 0.000000e+00 0.000000e+00 0.000000e+00
-8.103440e+04 1.068300e+03 0.000000e+00 1.068300e+03 -6.124309e+04 0.000000e+00 0.000000e+00 0.000000e+00 0.000000e+00
-7.737730e+04 -6.710522e+02 0.000000e+00 -6.710522e+02 -6.031716e+04 0.000000e+00 0.000000e+00 0.000000e+00 0.000000e+00
-7.183227e+04 -1.230010e+03 0.000000e+00 -1.230010e+03 -5.995076e+04 0.000000e+00 0.000000e+00 0.000000e+00 0.000000e+00
-6.714195e+04 -1.044268e+03 0.000000e+00 -1.044268e+03 -5.940975e+04 0.000000e+00 0.000000e+00 0.000000e+00 0.000000e+00
-6.656545e+04 1.127372e+04 0.000000e+00 1.127372e+04 -6.811916e+04 0.000000e+00 0.000000e+00 0.000000e+00 0.000000e+00
-7.141325e+04 1.070693e+04 0.000000e+00 1.070693e+04 -6.816202e+04 0.000000e+00 0.000000e+00 0.000000e+00 0.000000e+00
-7.605124e+04 9.016950e+03 0.000000e+00 9.016950e+03 -6.661584e+04 0.000000e+00 0.000000e+00 0.000000e+00 0.000000e+00
-7.901923e+04 7.302765e+03 0.000000e+00 7.302765e+03 -6.519567e+04 0.000000e+00 0.000000e+00 0.000000e+00 0.000000e+00
-8.074309e+04 5.520349e+03 0.000000e+00 5.520349e+03 -6.378360e+04 0.000000e+00 0.000000e+00 0.000000e+00 0.000000e+00
-8.129826e+04 3.621693e+03 0.000000e+00 3.621693e+03 -6.242120e+04 0.000000e+00 0.000000e+00 0.000000e+00 0.000000e+00
-8.071384e+04 1.708678e+03 0.000000e+00 1.708678e+03 -6.124101e+04 0.000000e+00 0.000000e+00 0.000000e+00 0.000000e+00
-7.903439e+04 2.432675e+01 0.000000e+00 2.432675e+01 -6.039809e+04 0.000000e+00 0.000000e+00 0.000000e+00 0.000000e+00
-7.619155e+04 -1.103972e+03 0.000000e+00 -1.103972e+03 -5.997362e+04 0.000000e+00 0.000000e+00 0.000000e+00 0.000000e+00
-7.229405e+04 -1.215908e+03 0.000000e+00 -1.215908e+03 -5.987908e+04 0.000000e+00 0.000000e+00 0.000000e+00 0.000000e+00
-6.920040e+04 -8.894168e+02 0.000000e+00 -8.894168e+02 -5.957136e+04 0.000000e+00 0.000000e+00 0.000000e+00 0.000000e+00
-6.523859e+04 9.585396e+03 0.000000e+00 9.585396e+03 -6.603212e+04 0.000000e+00 0.000000e+00 0.000000e+00 0.000000e+00
-6.972473e+04 9.050245e+03 0.000000e+00 9.050245e+03 -6.597237e+04 0.000000e+00 0.000000e+00 0.000000e+00 0.000000e+00
-7.421955e+04 7.492723e+03 0.000000e+00 7.492723e+03 -6.451096e+04 0.000000e+00 0.000000e+00 0.000000e+00 0.000000e+00
-7.712364e+04 5.833927e+03 0.000000e+00 5.833927e+03 -6.326444e+04 0.000000e+00 0.000000e+00 0.000000e+00 0.000000e+00
-7.873537e+04 4.109708e+03 0.000000e+00 4.109708e+03 -6.211132e+04 0.000000e+00 0.000000e+00 0.000000e+00 0.000000e+00
-7.926654e+04 2.385667e+03 0.000000e+00 2.385667e+03 -6.111802e+04 0.000000e+00 0.000000e+00 0.000000e+00 0.000000e+00
-7.885724e+04 7.975966e+02 0.000000e+00 7.975966e+02 -6.037566e+04 0.000000e+00 0.000000e+00 0.000000e+00 0.000000e+00
-7.760261e+04 -4.769374e+02 0.000000e+00 -4.769374e+02 -5.993639e+04 0.000000e+00 0.000000e+00 0.000000e+00 0.000000e+00
-7.555349e+04 -1.208111e+03 0.000000e+00 -1.208111e+03 -5.979598e+04 0.000000e+00 0.000000e+00 0.000000e+00 0.000000e+00
-7.295721e+04 -1.094258e+03 0.000000e+00 -1.094258e+03 -5.984585e+04 0.000000e+00 0.000000e+00 0.000000e+00 0.000000e+00
-7.099791e+04 -7.333694e+02 0.000000e+00 -7.333694e+02 -5.970135e+04 0.000000e+00 0.000000e+00 0.000000e+00 0.000000e+00
-6.425399e+04 7.864241e+03 0.000000e+00 7.864241e+03 -6.468587e+04 0.000000e+00 0.000000e+00 0.000000e+00 0.000000e+00
-6.825734e+04 7.390084e+03 0.000000e+00 7.390084e+03 -6.451618e+04 0.000000e+00 0.000000e+00 0.000000e+00 0.000000e+00
-7.252830e+04 6.063680e+03 0.000000e+00 6.063680e+03 -6.313473e+04 0.000000e+00 0.000000e+00 0.000000e+00 0.000000e+00
-7.532027e+04 4.569468e+03 0.000000e+00 4.569468e+03 -6.199262e+04 0.000000e+00 0.000000e+00 0.000000e+00 0.000000e+00
-7.691333e+04 3.027556e+03 0.000000e+00 3.027556e+03 -6.104450e+04 0.000000e+00 0.000000e+00 0.000000e+00 0.000000e+00
-7.754476e+04 1.563567e+03 0.000000e+00 1.563567e+03 -6.032743e+04 0.000000e+00 0.000000e+00 0.000000e+00 0.000000e+00
-7.739379e+04 2.906682e+02 0.000000e+00 2.906682e+02 -5.987139e+04 0.000000e+00 0.000000e+00 0.000000e+00 0.000000e+00
-7.657836e+04 -6.636979e+02 0.000000e+00 -6.636979e+02 -5.968019e+04 0.000000e+00 0.000000e+00 0.000000e+00 0.000000e+00
-7.524353e+04 -1.127664e+03 0.000000e+00 -1.127664e+03 -5.970436e+04 0.000000e+00 0.000000e+00 0.000000e+00 0.000000e+00
-7.364280e+04 -9.214824e+02 0.000000e+00 -9.214824e+02 -5.983518e+04 0.000000e+00 0.000000e+00 0.000000e+00 0.000000e+00
-7.250591e+04 -5.842241e+02 0.000000e+00 -5.842241e+02 -5.979478e+04 0.000000e+00 0.000000e+00 0.000000e+00 0.000000e+00
-6.355739e+04 6.183587e+03 0.000000e+00 6.183587e+03 -6.381385e+04 0.000000e+00 0.000000e+00 0.000000e+00 0.000000e+00
-6.708930e+04 5.802711e+03 0.000000e+00 5.802711e+03 -6.356586e+04 0.000000e+00 0.000000e+00 0.000000e+00 0.000000e+00
-7.105520e+04 4.715122e+03 0.000000e+00 4.715122e+03 -6.227041e+04 0.000000e+00 0.000000e+00 0.000000e+00 0.000000e+00
-7.374220e+04 3.453306e+03 0.000000e+00 3.453306e+03 -6.120576e+04 0.000000e+00 0.000000e+00 0.000000e+00 0.000000e+00
-7.536552e+04 2.183313e+03 0.000000e+00 2.183313e+03 -6.040805e+04 0.000000e+00 0.000000e+00 0.000000e+00 0.000000e+00
-7.615172e+04 1.011322e+03 0.000000e+00 1.011322e+03 -5.987403e+04 0.000000e+00 0.000000e+00 0.000000e+00 0.000000e+00
-7.626998e+04 3.134030e+01 0.000000e+00 3.134030e+01 -5.959909e+04 0.000000e+00 0.000000e+00 0.000000e+00 0.000000e+00
-7.586503e+04 -6.617056e+02 0.000000e+00 -6.617056e+02 -5.955244e+04 0.000000e+00 0.000000e+00 0.000000e+00 0.000000e+00
-7.511772e+04 -9.493131e+02 0.000000e+00 -9.493131e+02 -5.966756e+04 0.000000e+00 0.000000e+00 0.000000e+00 0.000000e+00
-7.425990e+04 -7.280359e+02 0.000000e+00 -7.280359e+02 -5.983840e+04 0.000000e+00 0.000000e+00 0.000000e+00 0.000000e+00
-7.371073e+04 -4.445611e+02 0.000000e+00 -4.445611e+02 -5.986596e+04 0.000000e+00 0.000000e+00 0.000000e+00 0.000000e+00
-6.304902e+04 4.541729e+03 0.000000e+00 4.541729e+03 -6.328744e+04 0.000000e+00 0.000000e+00 0.000000e+00 0.000000e+00
-6.617838e+04 4.236412e+03 0.000000e+00 4.236412e+03 -6.297360e+04 0.000000e+00 0.000000e+00 0.000000e+00 0.000000e+00
-6.984460e+04 3.409584e+03 0.000000e+00 3.409584e+03 -6.172077e+04 0.000000e+00 0.000000e+00 0.000000e+00 0.000000e+00
-7.247727e+04 2.454893e+03 0.000000e+00 2.454893e+03 -6.073256e+04 0.000000e+00 0.000000e+00 0.000000e+00 0.000000e+00
-7.414999e+04 1.501925e+03 0.000000e+00 1.501925e+03 -6.003802e+04 0.000000e+00 0.000000e+00 0.000000e+00 0.000000e+00
-7.508777e+04 6.345933e+02 0.000000e+00 6.345933e+02 -5.962697e+04 0.000000e+00 0.000000e+00 0.000000e+00 0.000000e+00
-7.544624e+04 -7.494958e+01 0.000000e+00 -7.494958e+01 -5.946602e+04 0.000000e+00 0.000000e+00 0.000000e+00 0.000000e+00
-7.538228e+04 -5.523746e+02 0.000000e+00 -5.523746e+02 -5.950570e+04 0.000000e+00 0.000000e+00 0.000000e+00 0.000000e+00
-7.508464e+04 -7.263224e+02 0.000000e+00 -7.263224e+02 -5.966345e+04 0.000000e+00 0.000000e+00 0.000000e+00 0.000000e+00
-7.476215e+04 -5.350723e+02 0.000000e+00 -5.350723e+02 -5.984573e+04 0.000000e+00 0.000000e+00 0.000000e+00 0.000000e+00
-7.461549e+04 -3.176331e+02 0.000000e+00 -3.176331e+02 -5.992355e+04 0.000000e+00 0.000000e+00 0.000000e+00 0.000000e+00
-6.268349e+04 2.900228e+03 0.000000e+00 2.900228e+03 -6.291154e+04 0.000000e+00 0.000000e+00 0.000000e+00 0.000000e+00
-6.553369e+04 2.701429e+03 0.000000e+00 2.701429e+03 -6.256114e+04 0.000000e+00 0.000000e+00 0.000000e+00 0.000000e+00
-6.899318e+04 2.173164e+03 0.000000e+00 2.173164e+03 -6.136430e+04 0.000000e+00 0.000000e+00 0.000000e+00 0.000000e+00
-7.157309e+04 1.553635e+03 0.000000e+00 1.553635e+03 -6.044763e+04 0.000000e+00 0.000000e+00 0.000000e+00 0.000000e+00
-7.329419e+04 9.314979e+02 0.000000e+00 9.314979e+02 -5.983389e+04 0.000000e+00 0.000000e+00 0.000000e+00 0.000000e+00
-7.434476e+04 3.683654e+02 0.000000e+00 3.683654e+02 -5.950204e+04 0.000000e+00 0.000000e+00 0.000000e+00 0.000000e+00
-7.488599e+04 -8.939647e+01 0.000000e+00 -8.939647e+01 -5.940780e+04 0.000000e+00 0.000000e+00 0.000000e+00 0.000000e+00
-7.507661e+04 -3.884468e+02 0.000000e+00 -3.884468e+02 -5.949080e+04 0.000000e+00 0.000000e+00 0.000000e+00 0.000000e+00
-7.508997e+04 -4.852798e+02 0.000000e+00 -4.852798e+02 -5.967430e+04 0.000000e+00 0.000000e+00 0.000000e+00 0.000000e+00
-7.512558e+04 -3.493942e+02 0.000000e+00 -3.493942e+02 -5.985421e+04 0.000000e+00 0.000000e+00 0.000000e+00 0.000000e+00
-7.523730e+04 -2.050547e+02 0.000000e+00 -2.050547e+02 -5.996868e+04 0.000000e+00 0.000000e+00 0.000000e+00 0.000000e+00
-6.243753e+04 1.290825e+03 0.000000e+00 1.290825e+03 -6.250630e+04 0.000000e+00 0.000000e+00 0.000000e+00 0.000000e+00
-6.518699e+04 1.243869e+03 0.000000e+00 1.243869e+03 -6.218769e+04 0.000000e+00 0.000000e+00 0.000000e+00 0.000000e+00
-6.851323e+04 1.023624e+03 0.000000e+00 1.023624e+03 -6.109929e+04 0.000000e+00 0.000000e+00 0.000000e+00 0.000000e+00
-7.104247e+04 7.449202e+02 0.000000e+00 7.449202e+02 -6.027084e+04 0.000000e+00 0.000000e+00 0.000000e+00 0.000000e+00
-7.278902e+04 4.437154e+02 0.000000e+00 4.437154e+02 -5.973093e+04 0.000000e+00 0.000000e+00 0.000000e+00 0.000000e+00
-7.390955e+04 1.675172e+02 0.000000e+00 1.675172e+02 -5.944755e+04 0.000000e+00 0.000000e+00 0.000000e+00 0.000000e+00
-7.456172e+04 -5.547538e+01 0.000000e+00 -5.547538e+01 -5.939188e+04 0.000000e+00 0.000000e+00 0.000000e+00 0.000000e+00
-7.490920e+04 -1.978633e+02 0.000000e+00 -1.978633e+02 -5.949064e+04 0.000000e+00 0.000000e+00 0.000000e+00 0.000000e+00
-7.510467e+04 -2.420949e+02 0.000000e+00 -2.420949e+02 -5.968648e+04 0.000000e+00 0.000000e+00 0.000000e+00 0.000000e+00
-7.534336e+04 -1.717946e+02 0.000000e+00 -1.717946e+02 -5.986091e+04 0.000000e+00 0.000000e+00 0.000000e+00 0.000000e+00
-7.559690e+04 -1.003567e+02 0.000000e+00 -1.003567e+02 -5.999524e+04 0.000000e+00 0.000000e+00 0.000000e+00 0.000000e+00
-6.224370e+04 1.998088e+02 0.000000e+00 1.998088e+02 -6.205140e+04 0.000000e+00 0.000000e+00 0.000000e+00 0.000000e+00
-6.504301e+04 2.849590e+02 0.000000e+00 2.849590e+02 -6.187377e+04 0.000000e+00 0.000000e+00 0.000000e+00 0.000000e+00
-6.836434e+04 2.792299e+02 0.000000e+00 2.792299e+02 -6.097410e+04 0.000000e+00 0.000000e+00 0.000000e+00 0.000000e+00
-7.086984e+04 2.097262e+02 0.000000e+00 2.097262e+02 -6.021127e+04 0.000000e+00 0.000000e+00 0.000000e+00 0.000000e+00
-7.262112e+04 1.084021e+02 0.000000e+00 1.084021e+02 -5.970217e+04 0.000000e+00 0.000000e+00 0.000000e+00 0.000000e+00
-7.376757e+04 1.245323e+01 0.000000e+00 1.245323e+01 -5.943455e+04 0.000000e+00 0.000000e+00 0.000000e+00 0.000000e+00
-7.445613e+04 -6.653809e+01 0.000000e+00 -6.653809e+01 -5.939036e+04 0.000000e+00 0.000000e+00 0.000000e+00 0.000000e+00
-7.485542e+04 -1.154745e+02 0.000000e+00 -1.154745e+02 -5.949589e+04 0.000000e+00 0.000000e+00 0.000000e+00 0.000000e+00
-7.511181e+04 -1.328760e+02 0.000000e+00 -1.328760e+02 -5.969114e+04 0.000000e+00 0.000000e+00 0.000000e+00 0.000000e+00
-7.541630e+04 -1.079187e+02 0.000000e+00 -1.079187e+02 -5.986221e+04 0.000000e+00 0.000000e+00 0.000000e+00 0.000000e+00
-7.571455e+04 -8.137542e+01 0.000000e+00 -8.137542e+01 -6.000011e+04 0.000000e+00 0.000000e+00 0.000000e+00 0.000000e+00
</DataArray>
<DataArray Name="vol_eps" type="Float64" NumberOfComponents="1" format="ascii">
-7.552078e-03
-6.861366e-03
-6.711468e-03
-6.757573e-03
-7.094391e-03
-7.701389e-03
-8.544801e-03
-9.597179e-03
-1.082280e-02
-1.220029e-02
-1.272630e-02
-7.056372e-03
-6.439022e-03
-6.333846e-03
-6.399923e-03
-6.687414e-03
-7.185775e-03
-7.946311e-03
-8.902964e-03
-1.015456e-02
-1.161857e-02
-1.380837e-02
-5.954820e-03
-5.471576e-03
-5.399885e-03
-5.492223e-03
-5.697196e-03
-5.922612e-03
-6.285170e-03
-6.807509e-03
-7.570333e-03
-9.074870e-03
-1.202392e-02
-4.774677e-03
-4.493743e-03
-4.425625e-03
-4.332687e-03
-4.119950e-03
-3.696071e-03
-3.059454e-03
-2.324338e-03
-1.193635e-03
7.663333e-04
2.587266e-03
-3.774567e-03
-3.738006e-03
-3.820543e-03
-3.884913e-03
-3.890267e-03
-3.836708e-03
-3.696943e-03
-3.444211e-03
-2.979524e-03
-2.141439e-03
-2.311277e-04
-2.882704e-03
-3.034498e-03
-3.185967e-03
-3.262339e-03
-3.261712e-03
-3.186409e-03
-3.011928e-03
-2.707437e-03
-2.213830e-03
-1.232722e-03
4.963737e-05
-2.151531e-03
-2.432304e-03
-2.627150e-03
-2.710797e-03
-2.705820e-03
-2.617971e-03
-2.432244e-03
-2.126021e-03
-1.637004e-03
-8.718687e-04
-7.777112e-05
-1.585184e-03
-1.935839e-03
-2.153296e-03
-2.245898e-03
-2.244537e-03
-2.161751e-03
-1.986395e-03
-1.703439e-03
-1.301638e-03
-7.581656e-04
-2.522477e-04
-1.160385e-03
-1.535210e-03
-1.763434e-03
-1.862280e-03
-1.871668e-03
-1.801074e-03
-1.648180e-03
-1.417867e-03
-1.117366e-03
-7.423667e-04
-4.112767e-04
-8.657599e-04
-1.218642e-03
-1.443672e-03
-1.549706e-03
-1.568348e-03
-1.514761e-03
-1.397569e-03
-1.229186e-03
-1.018135e-03
-7.667239e-04
-5.522562e-04
-6.625916e-04
-9.741142e-04
-1.187423e-03
-1.297260e-03
-1.324966e-03
-1.293721e-03
-1.216318e-03
-1.104641e-03
-9.659967e-04
-8.062450e-04
-6.733426e-04
-5.299164e-04
-7.934903e-04
-9.894522e-04
-1.095794e-03
-1.134572e-03
-1.126854e-03
-1.086146e-03
-1.021829e-03
-9.401623e-04
-8.487410e-04
-7.740549e-04
-4.451514e-04
-6.668743e-04
-8.412076e-04
-9.426235e-04
-9.925684e-04
-1.006839e-03
-9.964125e-04
-9.682421e-04
-9.297269e-04
-8.876295e-04
-8.547413e-04
-3.950918e-04
-5.799683e-04
-7.315653e-04
-8.321721e-04
-8.914497e-04
-9.233313e-04
-9.358489e-04
-9.348833e-04
-9.273675e-04
-9.195907e-04
-9.156563e-04
-3.586118e-04
-5.190947e-04
-6.576181e-04
-7.579714e-04
-8.247918e-04
-8.687694e-04
-8.969930e-04
-9.148719e-04
-9.285729e-04
-9.432439e-04
-9.583176e-04
-3.218094e-04
-4.763069e-04
-6.122650e-04
-7.143952e-04
-7.868446e-04
-8.380542e-04
-8.756004e-04
-9.046167e-04
-9.304462e-04
-9.574851e-04
-9.826886e-04
-2.810647e-04
-4.477718e-04
-5.957756e-04
-7.005966e-04
-7.748152e-04
-8.282831e-04
-8.687619e-04
-9.016087e-04
-9.311935e-04
-9.621566e-04
-9.904086e-04
</DataArray>
</PointData>
</Piece>
</UnstructuredGrid>
</VTKFile>
