<?xml version="1.0"?>
<VTKFile type="UnstructuredGrid" version="0.1">
<UnstructuredGrid>
<FieldData>
<DataArray Name="TIME" type="Float64" format="ascii" NumberOfTuples="1">
0.000000e+00
</DataArray>
</FieldData>
<FieldData>
<DataArray Name="CYCLE" type="Int32" format="ascii" NumberOfTuples="1">
0
</DataArray>
</FieldData>
<Piece NumberOfPoints="187" NumberOfCells="160">
<Points>
<DataArray NumberOfComponents="3" type="Float64" format="ascii">
0.000000e+00 0.000000e+00 0.000000e+00
0.000000e+00 1.973282e-01 0.000000e+00
0.000000e+00 3.936943e-01 0.000000e+00
0.000000e+00 5.888330e-01 0.000000e+00
0.000000e+00 7.823609e-01 0.000000e+00
0.000000e+00 9.750236e-01 0.000000e+00
0.000000e+00 1.167415e+00 0.000000e+00
0.000000e+00 1.360066e+00 0.000000e+00
0.000000e+00 1.554470e+00 0.000000e+00
0.000000e+00 1.750713e+00 0.000000e+00
0.000000e+00 1.947125e+00 0.000000e+00
2.250000e-01 0.000000e+00 0.000000e+00
2.262782e-01 1.973945e-01 0.000000e+00
2.277771e-01 3.938064e-01 0.000000e+00
2.296017e-01 5.892504e-01 0.000000e+00
2.310969e-01 7.837512e-01 0.000000e+00
2.317227e-01 9.773117e-01 0.000000e+00
2.315561e-01 1.170385e+00 0.000000e+00
2.302401e-01 1.363430e+00 0.000000e+00
2.276293e-01 1.556788e+00 0.000000e+00
2.254319e-01 1.750872e+00 0.000000e+00
2.250000e-01 1.947125e+00 0.000000e+00
4.500000e-01 0.000000e+00 0.000000e+00
4.526657e-01 1.977821e-01 0.000000e+00
4.553210e-01 3.948215e-01 0.000000e+00
4.578098e-01 5.913501e-01 0.000000e+00
4.598366e-01 7.875348e-01 0.000000e+00
4.612108e-01 9.832814e-01 0.000000e+00
4.615701e-01 1.178308e+00 0.000000e+00
4.609029e-01 1.372289e+00 0.000000e+00
4.590434e-01 1.564693e+00 0.000000e+00
4.558570e-01 1.755940e+00 0.000000e+00
4.500000e-01 1.947125e+00 0.000000e+00
6.750000e-01 0.000000e+00 0.000000e+00
6.786622e-01 1.986607e-01 0.000000e+00
6.818010e-01 3.971453e-01 0.000000e+00
6.844304e-01 5.957017e-01 0.000000e+00
6.865678e-01 7.944262e-01 0.000000e+00
6.881510e-01 9.933267e-01 0.000000e+00
6.889805e-01 1.192521e+00 0.000000e+00
6.891046e-01 1.392037e+00 0.000000e+00
6.883019e-01 1.591977e+00 0.000000e+00
6.858011e-01 1.792268e+00 0.000000e+00
6.805638e-01 1.992675e+00 0.000000e+00
9.000000e-01 0.000000e+00 0.000000e+00
9.039739e-01 1.989907e-01 0.000000e+00
9.069014e-01 3.980547e-01 0.000000e+00
9.092228e-01 5.973080e-01 0.000000e+00
9.110453e-01 7.967726e-01 0.000000e+00
9.123344e-01 9.964914e-01 0.000000e+00
9.129237e-01 1.196435e+00 0.000000e+00
9.127798e-01 1.396626e+00 0.000000e+00
9.117206e-01 1.597080e+00 0.000000e+00
9.093476e-01 1.797608e+00 0.000000e+00
9.059205e-01 1.997625e+00 0.000000e+00
1.125000e+00 0.000000e+00 0.000000e+00
1.128963e+00 1.993869e-01 0.000000e+00
1.131549e+00 3.988866e-01 0.000000e+00
1.133560e+00 5.985751e-01 0.000000e+00
1.135095e+00 7.984620e-01 0.000000e+00
1.136121e+00 9.985443e-01 0.000000e+00
1.136521e+00 1.198843e+00 0.000000e+00
1.136246e+00 1.399335e+00 0.000000e+00
1.135196e+00 1.599931e+00 0.000000e+00
1.133411e+00 1.800385e+00 0.000000e+00
1.131359e+00 2.000476e+00 0.000000e+00
1.350000e+00 0.000000e+00 0.000000e+00
1.353663e+00 1.996613e-01 0.000000e+00
1.355942e+00 3.994520e-01 0.000000e+00
1.357667e+00 5.994054e-01 0.000000e+00
1.358956e+00 7.995415e-01 0.000000e+00
1.359784e+00 9.998688e-01 0.000000e+00
1.360058e+00 1.200360e+00 0.000000e+00
1.359755e+00 1.400957e+00 0.000000e+00
1.358916e+00 1.601542e+00 0.000000e+00
1.357711e+00 1.801945e+00 0.000000e+00
1.356508e+00 2.002057e+00 0.000000e+00
1.575000e+00 0.000000e+00 0.000000e+00
1.578212e+00 1.998269e-01 0.000000e+00
1.580191e+00 3.997993e-01 0.000000e+00
1.581673e+00 5.999376e-01 0.000000e+00
1.582765e+00 8.002337e-01 0.000000e+00
1.583433e+00 1.000684e+00 0.000000e+00
1.583636e+00 1.201249e+00 0.000000e+00
1.583402e+00 1.401855e+00 0.000000e+00
1.582830e+00 1.602398e+00 0.000000e+00
1.582087e+00 1.802764e+00 0.000000e+00
1.581429e+00 2.002915e+00 0.000000e+00
1.800000e+00 0.000000e+00 0.000000e+00
1.802697e+00 1.999235e-01 0.000000e+00
1.804387e+00 4.000177e-01 0.000000e+00
1.805666e+00 6.002549e-01 0.000000e+00
1.806585e+00 8.006269e-01 0.000000e+00
1.807134e+00 1.001123e+00 0.000000e+00
1.807317e+00 1.201692e+00 0.000000e+00
1.807195e+00 1.402266e+00 0.000000e+00
1.806863e+00 1.602764e+00 0.000000e+00
1.806461e+00 1.803116e+00 0.000000e+00
1.806162e+00 2.003311e+00 0.000000e+00
2.025000e+00 0.000000e+00 0.000000e+00
2.027169e+00 1.999741e-01 0.000000e+00
2.028598e+00 4.001250e-01 0.000000e+00
2.029690e+00 6.004035e-01 0.000000e+00
2.030462e+00 8.008000e-01 0.000000e+00
2.030927e+00 1.001292e+00 0.000000e+00
2.031123e+00 1.201829e+00 0.000000e+00
2.031107e+00 1.402358e+00 0.000000e+00
2.030961e+00 1.602820e+00 0.000000e+00
2.030798e+00 1.803172e+00 0.000000e+00
2.030732e+00 2.003413e+00 0.000000e+00
2.250000e+00 0.000000e+00 0.000000e+00
2.251677e+00 1.999905e-01 0.000000e+00
2.252860e+00 4.001524e-01 0.000000e+00
2.253777e+00 6.004331e-01 0.000000e+00
2.254424e+00 8.008186e-01 0.000000e+00
2.254833e+00 1.001278e+00 0.000000e+00
2.255044e+00 1.201773e+00 0.000000e+00
2.255110e+00 1.402258e+00 0.000000e+00
2.255095e+00 1.602691e+00 0.000000e+00
2.255086e+00 1.803048e+00 0.000000e+00
2.255160e+00 2.003335e+00 0.000000e+00
2.475000e+00 0.000000e+00 0.000000e+00
2.476247e+00 1.999904e-01 0.000000e+00
2.477200e+00 4.001336e-01 0.000000e+00
2.477948e+00 6.003892e-01 0.000000e+00
2.478487e+00 8.007402e-01 0.000000e+00
2.478846e+00 1.001158e+00 0.000000e+00
2.479062e+00 1.201609e+00 0.000000e+00
2.479177e+00 1.402055e+00 0.000000e+00
2.479244e+00 1.602468e+00 0.000000e+00
2.479326e+00 1.802834e+00 0.000000e+00
2.479471e+00 2.003160e+00 0.000000e+00
2.700000e+00 0.000000e+00 0.000000e+00
2.700895e+00 1.999787e-01 0.000000e+00
2.701629e+00 4.000891e-01 0.000000e+00
2.702216e+00 6.003110e-01 0.000000e+00
2.702651e+00 8.006212e-01 0.000000e+00
2.702955e+00 1.000995e+00 0.000000e+00
2.703157e+00 1.201403e+00 0.000000e+00
2.703292e+00 1.401817e+00 0.000000e+00
2.703399e+00 1.602215e+00 0.000000e+00
2.703519e+00 1.802592e+00 0.000000e+00
2.703686e+00 2.002954e+00 0.000000e+00
2.925000e+00 0.000000e+00 0.000000e+00
2.925614e+00 1.999607e-01 0.000000e+00
2.926141e+00 4.000396e-01 0.000000e+00
2.926574e+00 6.002262e-01 0.000000e+00
2.926906e+00 8.004993e-01 0.000000e+00
2.927146e+00 1.000833e+00 0.000000e+00
2.927315e+00 1.201204e+00 0.000000e+00
2.927441e+00 1.401591e+00 0.000000e+00
2.927552e+00 1.601981e+00 0.000000e+00
2.927673e+00 1.802366e+00 0.000000e+00
2.927826e+00 2.002758e+00 0.000000e+00
3.150000e+00 0.000000e+00 0.000000e+00
3.150384e+00 1.999463e-01 0.000000e+00
3.150721e+00 3.999995e-01 0.000000e+00
3.151005e+00 6.001561e-01 0.000000e+00
3.151231e+00 8.003992e-01 0.000000e+00
3.151397e+00 1.000704e+00 0.000000e+00
3.151519e+00 1.201048e+00 0.000000e+00
3.151614e+00 1.401416e+00 0.000000e+00
3.151702e+00 1.601797e+00 0.000000e+00
3.151798e+00 1.802190e+00 0.000000e+00
3.151912e+00 2.002602e+00 0.000000e+00
3.375000e+00 0.000000e+00 0.000000e+00
3.375186e+00 1.999381e-01 0.000000e+00
3.375349e+00 3.999796e-01 0.000000e+00
3.375489e+00 6.001174e-01 0.000000e+00
3.375603e+00 8.003406e-01 0.000000e+00
3.375689e+00 1.000627e+00 0.000000e+00
3.375752e+00 1.200955e+00 0.000000e+00
3.375803e+00 1.401311e+00 0.000000e+00
3.375851e+00 1.601686e+00 0.000000e+00
3.375903e+00 1.802083e+00 0.000000e+00
3.375963e+00 2.002507e+00 0.000000e+00
3.600000e+00 0.000000e+00 0.000000e+00
3.600000e+00 1.999482e-01 0.000000e+00
3.600000e+00 3.999882e-01 0.000000e+00
3.600000e+00 6.001195e-01 0.000000e+00
3.600000e+00 8.003355e-01 0.000000e+00
3.600000e+00 1.000615e+00 0.000000e+00
3.600000e+00 1.200937e+00 0.000000e+00
3.600000e+00 1.401287e+00 0.000000e+00
3.600000e+00 1.601660e+00 0.000000e+00
3.600000e+00 1.802055e+00 0.000000e+00
3.600000e+00 2.002482e+00 0.000000e+00
</DataArray>
</Points>
<Cells>
<DataArray Name="connectivity" type="Int32" format="ascii">
0 11 12 1
1 12 13 2
2 13 14 3
3 14 15 4
4 15 16 5
5 16 17 6
6 17 18 7
7 18 19 8
8 19 20 9
9 20 21 10
11 22 23 12
12 23 24 13
13 24 25 14
14 25 26 15
15 26 27 16
16 27 28 17
17 28 29 18
18 29 30 19
19 30 31 20
20 31 32 21
22 33 34 23
23 34 35 24
24 35 36 25
25 36 37 26
26 37 38 27
27 38 39 28
28 39 40 29
29 40 41 30
30 41 42 31
31 42 43 32
33 44 45 34
34 45 46 35
35 46 47 36
36 47 48 37
37 48 49 38
38 49 50 39
39 50 51 40
40 51 52 41
41 52 53 42
42 53 54 43
44 55 56 45
45 56 57 46
46 57 58 47
47 58 59 48
48 59 60 49
49 60 61 50
50 61 62 51
51 62 63 52
52 63 64 53
53 64 65 54
55 66 67 56
56 67 68 57
57 68 69 58
58 69 70 59
59 70 71 60
60 71 72 61
61 72 73 62
62 73 74 63
63 74 75 64
64 75 76 65
66 77 78 67
67 78 79 68
68 79 80 69
69 80 81 70
70 81 82 71
71 82 83 72
72 83 84 73
73 84 85 74
74 85 86 75
75 86 87 76
77 88 89 78
78 89 90 79
79 90 91 80
80 91 92 81
81 92 93 82
82 93 94 83
83 94 95 84
84 95 96 85
85 96 97 86
86 97 98 87
88 99 100 89
89 100 101 90
90 101 102 91
91 102 103 92
92 103 104 93
93 104 105 94
94 105 106 95
95 106 107 96
96 107 108 97
97 108 109 98
99 110 111 100
100 111 112 101
101 112 113 102
102 113 114 103
103 114 115 104
104 115 116 105
105 116 117 106
106 117 118 107
107 118 119 108
108 119 120 109
110 121 122 111
111 122 123 112
112 123 124 113
113 124 125 114
114 125 126 115
115 126 127 116
116 127 128 117
117 128 129 118
118 129 130 119
119 130 131 120
121 132 133 122
122 133 134 123
123 134 135 124
124 135 136 125
125 136 137 126
126 137 138 127
127 138 139 128
128 139 140 129
129 140 141 130
130 141 142 131
132 143 144 133
133 144 145 134
134 145 146 135
135 146 147 136
136 147 148 137
137 148 149 138
138 149 150 139
139 150 151 140
140 151 152 141
141 152 153 142
143 154 155 144
144 155 156 145
145 156 157 146
146 157 158 147
147 158 159 148
148 159 160 149
149 160 161 150
150 161 162 151
151 162 163 152
152 163 164 153
154 165 166 155
155 166 167 156
156 167 168 157
157 168 169 158
158 169 170 159
159 170 171 160
160 171 172 161
161 172 173 162
162 173 174 163
163 174 175 164
165 176 177 166
166 177 178 167
167 178 179 168
168 179 180 169
169 180 181 170
170 181 182 171
171 182 183 172
172 183 184 173
173 184 185 174
174 185 186 175
</DataArray>
<DataArray Name="offsets" type="Int32" format="ascii">
4
8
12
16
20
24
28
32
36
40
44
48
52
56
60
64
68
72
76
80
84
88
92
96
100
104
108
112
116
120
124
128
132
136
140
144
148
152
156
160
164
168
172
176
180
184
188
192
196
200
204
208
212
216
220
224
228
232
236
240
244
248
252
256
260
264
268
272
276
280
284
288
292
296
300
304
308
312
316
320
324
328
332
336
340
344
348
352
356
360
364
368
372
376
380
384
388
392
396
400
404
408
412
416
420
424
428
432
436
440
444
448
452
456
460
464
468
472
476
480
484
488
492
496
500
504
508
512
516
520
524
528
532
536
540
544
548
552
556
560
564
568
572
576
580
584
588
592
596
600
604
608
612
616
620
624
628
632
636
640
</DataArray>
<DataArray Name="types" type="UInt8" format="ascii">
9
9
9
9
9
9
9
9
9
9
9
9
9
9
9
9
9
9
9
9
9
9
9
9
9
9
9
9
9
9
9
9
9
9
9
9
9
9
9
9
9
9
9
9
9
9
9
9
9
9
9
9
9
9
9
9
9
9
9
9
9
9
9
9
9
9
9
9
9
9
9
9
9
9
9
9
9
9
9
9
9
9
9
9
9
9
9
9
9
9
9
9
9
9
9
9
9
9
9
9
9
9
9
9
9
9
9
9
9
9
9
9
9
9
9
9
9
9
9
9
9
9
9
9
9
9
9
9
9
9
9
9
9
9
9
9
9
9
9
9
9
9
9
9
9
9
9
9
9
9
9
9
9
9
9
9
9
9
9
9
</DataArray>
</Cells>
<PointData>
<DataArray Name="disp" type="Float64" NumberOfComponents="3" format="ascii">
0.000000e+00 0.000000e+00 0.000000e+00
0.000000e+00 -2.671794e-03 0.000000e+00
0.000000e+00 -6.305659e-03 0.000000e+00
0.000000e+00 -1.116705e-02 0.000000e+00
0.000000e+00 -1.763914e-02 0.000000e+00
0.000000e+00 -2.497636e-02 0.000000e+00
0.000000e+00 -3.258525e-02 0.000000e+00
0.000000e+00 -3.993412e-02 0.000000e+00
0.000000e+00 -4.553012e-02 0.000000e+00
0.000000e+00 -4.928678e-02 0.000000e+00
0.000000e+00 -5.287500e-02 0.000000e+00
0.000000e+00 0.000000e+00 0.000000e+00
1.278215e-03 -2.605535e-03 0.000000e+00
2.777066e-03 -6.193621e-03 0.000000e+00
4.601737e-03 -1.074959e-02 0.000000e+00
6.096904e-03 -1.624876e-02 0.000000e+00
6.722671e-03 -2.268833e-02 0.000000e+00
6.556111e-03 -2.961458e-02 0.000000e+00
5.240091e-03 -3.656995e-02 0.000000e+00
2.629356e-03 -4.321173e-02 0.000000e+00
4.318954e-04 -4.912790e-02 0.000000e+00
0.000000e+00 -5.287500e-02 0.000000e+00
0.000000e+00 0.000000e+00 0.000000e+00
2.665678e-03 -2.217867e-03 0.000000e+00
5.320993e-03 -5.178471e-03 0.000000e+00
7.809774e-03 -8.649915e-03 0.000000e+00
9.836624e-03 -1.246523e-02 0.000000e+00
1.121080e-02 -1.671855e-02 0.000000e+00
1.157009e-02 -2.169152e-02 0.000000e+00
1.090286e-02 -2.771130e-02 0.000000e+00
9.043387e-03 -3.530696e-02 0.000000e+00
5.856993e-03 -4.405956e-02 0.000000e+00
0.000000e+00 -5.287500e-02 0.000000e+00
0.000000e+00 0.000000e+00 0.000000e+00
3.662204e-03 -1.339281e-03 0.000000e+00
6.800984e-03 -2.854729e-03 0.000000e+00
9.430389e-03 -4.298312e-03 0.000000e+00
1.156779e-02 -5.573790e-03 0.000000e+00
1.315101e-02 -6.673247e-03 0.000000e+00
1.398044e-02 -7.479412e-03 0.000000e+00
1.410453e-02 -7.963131e-03 0.000000e+00
1.330190e-02 -8.022673e-03 0.000000e+00
1.080107e-02 -7.731649e-03 0.000000e+00
5.563820e-03 -7.324838e-03 0.000000e+00
0.000000e+00 0.000000e+00 0.000000e+00
3.973964e-03 -1.009327e-03 0.000000e+00
6.901417e-03 -1.945311e-03 0.000000e+00
9.222802e-03 -2.691950e-03 0.000000e+00
1.104525e-02 -3.227377e-03 0.000000e+00
1.233439e-02 -3.508547e-03 0.000000e+00
1.292371e-02 -3.565372e-03 0.000000e+00
1.277982e-02 -3.373836e-03 0.000000e+00
1.172056e-02 -2.919587e-03 0.000000e+00
9.347611e-03 -2.391639e-03 0.000000e+00
5.920534e-03 -2.374654e-03 0.000000e+00
0.000000e+00 0.000000e+00 0.000000e+00
3.963529e-03 -6.130979e-04 0.000000e+00
6.549107e-03 -1.113391e-03 0.000000e+00
8.559882e-03 -1.424958e-03 0.000000e+00
1.009455e-02 -1.538031e-03 0.000000e+00
1.112095e-02 -1.455661e-03 0.000000e+00
1.152128e-02 -1.157045e-03 0.000000e+00
1.124570e-02 -6.648229e-04 0.000000e+00
1.019632e-02 -6.952252e-05 0.000000e+00
8.411265e-03 3.855088e-04 0.000000e+00
6.358465e-03 4.763347e-04 0.000000e+00
0.000000e+00 0.000000e+00 0.000000e+00
3.663060e-03 -3.386939e-04 0.000000e+00
5.941518e-03 -5.480371e-04 0.000000e+00
7.667042e-03 -5.945734e-04 0.000000e+00
8.956051e-03 -4.585157e-04 0.000000e+00
9.783620e-03 -1.312410e-04 0.000000e+00
1.005803e-02 3.604629e-04 0.000000e+00
9.755303e-03 9.567029e-04 0.000000e+00
8.915918e-03 1.541735e-03 0.000000e+00
7.710930e-03 1.944910e-03 0.000000e+00
6.507981e-03 2.056940e-03 0.000000e+00
0.000000e+00 0.000000e+00 0.000000e+00
3.211549e-03 -1.731108e-04 0.000000e+00
5.191186e-03 -2.006707e-04 0.000000e+00
6.672930e-03 -6.245764e-05 0.000000e+00
7.764746e-03 2.337064e-04 0.000000e+00
8.432755e-03 6.838900e-04 0.000000e+00
8.636032e-03 1.248821e-03 0.000000e+00
8.402036e-03 1.854507e-03 0.000000e+00
7.830136e-03 2.397586e-03 0.000000e+00
7.086869e-03 2.763536e-03 0.000000e+00
6.429446e-03 2.915382e-03 0.000000e+00
0.000000e+00 0.000000e+00 0.000000e+00
2.697181e-03 -7.651952e-05 0.000000e+00
4.387455e-03 1.768904e-05 0.000000e+00
5.665820e-03 2.548874e-04 0.000000e+00
6.585173e-03 6.269606e-04 0.000000e+00
7.134425e-03 1.122967e-03 0.000000e+00
7.316788e-03 1.691672e-03 0.000000e+00
7.195044e-03 2.265562e-03 0.000000e+00
6.862571e-03 2.763787e-03 0.000000e+00
6.460677e-03 3.116478e-03 0.000000e+00
6.161628e-03 3.311035e-03 0.000000e+00
0.000000e+00 0.000000e+00 0.000000e+00
2.169512e-03 -2.588659e-05 0.000000e+00
3.597753e-03 1.249530e-04 0.000000e+00
4.689768e-03 4.035482e-04 0.000000e+00
5.461965e-03 8.000213e-04 0.000000e+00
5.926901e-03 1.291491e-03 0.000000e+00
6.122592e-03 1.829333e-03 0.000000e+00
6.107516e-03 2.358308e-03 0.000000e+00
5.961338e-03 2.819521e-03 0.000000e+00
5.797797e-03 3.171588e-03 0.000000e+00
5.731982e-03 3.413225e-03 0.000000e+00
0.000000e+00 0.000000e+00 0.000000e+00
1.676766e-03 -9.498601e-06 0.000000e+00
2.860097e-03 1.523508e-04 0.000000e+00
3.777066e-03 4.330619e-04 0.000000e+00
4.423514e-03 8.186434e-04 0.000000e+00
4.832656e-03 1.277816e-03 0.000000e+00
5.044377e-03 1.772726e-03 0.000000e+00
5.109599e-03 2.258181e-03 0.000000e+00
5.095056e-03 2.690899e-03 0.000000e+00
5.086452e-03 3.048293e-03 0.000000e+00
5.160185e-03 3.334460e-03 0.000000e+00
0.000000e+00 0.000000e+00 0.000000e+00
1.246772e-03 -9.597449e-06 0.000000e+00
2.200164e-03 1.335583e-04 0.000000e+00
2.947858e-03 3.892603e-04 0.000000e+00
3.486739e-03 7.402644e-04 0.000000e+00
3.846110e-03 1.158472e-03 0.000000e+00
4.062211e-03 1.609263e-03 0.000000e+00
4.177344e-03 2.055384e-03 0.000000e+00
4.244575e-03 2.467711e-03 0.000000e+00
4.325419e-03 2.834364e-03 0.000000e+00
4.471087e-03 3.160549e-03 0.000000e+00
0.000000e+00 0.000000e+00 0.000000e+00
8.946004e-04 -2.128360e-05 0.000000e+00
1.629071e-03 8.910250e-05 0.000000e+00
2.215808e-03 3.109755e-04 0.000000e+00
2.650557e-03 6.211753e-04 0.000000e+00
2.954836e-03 9.947986e-04 0.000000e+00
3.157066e-03 1.402731e-03 0.000000e+00
3.292361e-03 1.816667e-03 0.000000e+00
3.398611e-03 2.215334e-03 0.000000e+00
3.518526e-03 2.592088e-03 0.000000e+00
3.686233e-03 2.953887e-03 0.000000e+00
0.000000e+00 0.000000e+00 0.000000e+00
6.139534e-04 -3.928228e-05 0.000000e+00
1.140662e-03 3.958104e-05 0.000000e+00
1.573755e-03 2.261842e-04 0.000000e+00
1.905521e-03 4.992746e-04 0.000000e+00
2.145638e-03 8.329683e-04 0.000000e+00
2.314840e-03 1.203968e-03 0.000000e+00
2.441161e-03 1.591446e-03 0.000000e+00
2.551859e-03 1.980592e-03 0.000000e+00
2.672794e-03 2.366414e-03 0.000000e+00
2.826208e-03 2.757575e-03 0.000000e+00
0.000000e+00 0.000000e+00 0.000000e+00
3.842025e-04 -5.367971e-05 0.000000e+00
7.209567e-04 -5.302784e-07 0.000000e+00
1.005207e-03 1.560630e-04 0.000000e+00
1.231033e-03 3.991950e-04 0.000000e+00
1.397256e-03 7.036512e-04 0.000000e+00
1.518839e-03 1.048131e-03 0.000000e+00
1.613994e-03 1.415817e-03 0.000000e+00
1.702112e-03 1.796897e-03 0.000000e+00
1.797691e-03 2.189570e-03 0.000000e+00
1.911817e-03 2.602303e-03 0.000000e+00
0.000000e+00 0.000000e+00 0.000000e+00
1.864796e-04 -6.188808e-05 0.000000e+00
3.493947e-04 -2.039013e-05 0.000000e+00
4.888885e-04 1.174067e-04 0.000000e+00
6.031491e-04 3.405990e-04 0.000000e+00
6.886431e-04 6.270888e-04 0.000000e+00
7.519537e-04 9.553719e-04 0.000000e+00
8.031802e-04 1.310960e-03 0.000000e+00
8.511201e-04 1.686335e-03 0.000000e+00
9.030149e-04 2.082565e-03 0.000000e+00
9.632812e-04 2.507287e-03 0.000000e+00
0.000000e+00 0.000000e+00 0.000000e+00
0.000000e+00 -5.175640e-05 0.000000e+00
0.000000e+00 -1.177431e-05 0.000000e+00
0.000000e+00 1.195061e-04 0.000000e+00
0.000000e+00 3.354756e-04 0.000000e+00
0.000000e+00 6.147451e-04 0.000000e+00
0.000000e+00 9.365862e-04 0.000000e+00
0.000000e+00 1.287405e-03 0.000000e+00
0.000000e+00 1.659688e-03 0.000000e+00
0.000000e+00 2.055372e-03 0.000000e+00
0.000000e+00 2.482315e-03 0.000000e+00
</DataArray>
<DataArray Name="shear" type="Float64" NumberOfComponents="1" format="ascii">
1.539163e-02
2.177594e-02
3.384817e-02
4.792312e-02
6.014896e-02
6.640508e-02
6.612730e-02
5.653900e-02
3.869712e-02
2.371924e-02
1.901544e-02
1.632360e-02
2.257798e-02
3.337534e-02
4.398569e-02
5.348703e-02
6.043382e-02
6.320319e-02
6.067662e-02
5.287803e-02
3.897015e-02
2.751948e-02
1.877832e-02
2.372931e-02
3.144356e-02
3.819808e-02
4.533765e-02
5.395222e-02
6.393175e-02
7.539701e-02
8.669637e-02
9.071647e-02
8.941188e-02
2.040819e-02
2.202374e-02
2.442872e-02
2.747030e-02
3.152228e-02
3.660339e-02
4.354308e-02
5.315768e-02
6.454829e-02
7.487357e-02
8.259210e-02
2.087089e-02
1.956260e-02
1.744940e-02
1.688400e-02
1.684638e-02
1.665408e-02
1.616681e-02
1.528112e-02
1.265837e-02
6.697530e-03
1.046899e-03
2.033707e-02
1.794354e-02
1.464915e-02
1.375960e-02
1.336128e-02
1.286465e-02
1.218763e-02
1.113786e-02
8.903692e-03
4.589632e-03
1.188262e-03
1.859073e-02
1.581915e-02
1.229065e-02
1.145811e-02
1.116815e-02
1.089166e-02
1.040933e-02
9.473320e-03
7.522726e-03
4.201500e-03
1.704366e-03
1.622329e-02
1.365587e-02
1.058383e-02
9.966005e-03
9.810921e-03
9.685073e-03
9.340340e-03
8.476519e-03
6.768337e-03
4.164970e-03
2.315410e-03
1.360240e-02
1.152966e-02
9.210884e-03
8.789924e-03
8.743356e-03
8.736422e-03
8.471413e-03
7.708763e-03
6.307500e-03
4.333396e-03
3.018303e-03
1.095130e-02
9.475271e-03
7.934212e-03
7.723539e-03
7.800221e-03
7.876322e-03
7.687725e-03
7.086718e-03
6.022956e-03
4.614782e-03
3.733918e-03
8.476388e-03
7.559734e-03
6.712401e-03
6.717526e-03
6.919335e-03
7.077788e-03
7.000064e-03
6.589972e-03
5.853359e-03
4.935458e-03
4.400000e-03
6.314810e-03
5.833240e-03
5.527637e-03
5.753550e-03
6.098514e-03
6.366119e-03
6.416634e-03
6.200959e-03
5.766176e-03
5.253144e-03
4.981095e-03
4.526662e-03
4.319519e-03
4.418844e-03
4.870835e-03
5.361100e-03
5.740476e-03
5.926883e-03
5.903656e-03
5.732555e-03
5.542939e-03
5.471443e-03
3.094834e-03
3.045416e-03
3.451833e-03
4.123313e-03
4.748711e-03
5.228009e-03
5.533908e-03
5.679872e-03
5.725934e-03
5.782648e-03
5.858842e-03
1.932320e-03
1.999171e-03
2.678721e-03
3.546981e-03
4.297446e-03
4.861704e-03
5.253996e-03
5.518940e-03
5.724456e-03
5.956623e-03
6.132636e-03
9.435051e-04
1.188889e-03
2.169248e-03
3.175747e-03
4.016157e-03
4.640664e-03
5.086463e-03
5.420419e-03
5.719128e-03
6.054181e-03
6.285764e-03
3.258861e-04
8.414674e-04
1.992175e-03
3.043615e-03
3.914839e-03
4.562328e-03
5.028129e-03
5.386234e-03
5.713952e-03
6.080682e-03
6.329389e-03
</DataArray>
<DataArray Name="stress" type="Float64" NumberOfComponents="9" format="ascii">
-1.120819e+05 4.842466e+03 0.000000e+00 4.842466e+03 -1.876482e+05 0.000000e+00 0.000000e+00 0.000000e+00 0.000000e+00
-9.923439e+04 3.833402e+03 0.000000e+00 3.833402e+03 -1.865351e+05 0.000000e+00 0.000000e+00 0.000000e+00 0.000000e+00
-9.262672e+04 2.736280e+03 0.000000e+00 2.736280e+03 -1.960971e+05 0.000000e+00 0.000000e+00 0.000000e+00 0.000000e+00
-1.005996e+05 2.224793e+03 0.000000e+00 2.224793e+03 -2.005350e+05 0.000000e+00 0.000000e+00 0.000000e+00 0.000000e+00
-1.094292e+05 3.850477e+03 0.000000e+00 3.850477e+03 -2.050475e+05 0.000000e+00 0.000000e+00 0.000000e+00 0.000000e+00
-1.134946e+05 7.048855e+03 0.000000e+00 7.048855e+03 -2.153853e+05 0.000000e+00 0.000000e+00 0.000000e+00 0.000000e+00
-1.210376e+05 9.936943e+03 0.000000e+00 9.936943e+03 -2.278099e+05 0.000000e+00 0.000000e+00 0.000000e+00 0.000000e+00
-1.262301e+05 9.515638e+03 0.000000e+00 9.515638e+03 -2.395412e+05 0.000000e+00 0.000000e+00 0.000000e+00 0.000000e+00
-1.249922e+05 5.566966e+03 0.000000e+00 5.566966e+03 -2.551701e+05 0.000000e+00 0.000000e+00 0.000000e+00 0.000000e+00
-1.410984e+05 -5.153154e+02 0.000000e+00 -5.153154e+02 -2.578332e+05 0.000000e+00 0.000000e+00 0.000000e+00 0.000000e+00
-1.481608e+05 -8.966901e+02 0.000000e+00 -8.966901e+02 -2.525469e+05 0.000000e+00 0.000000e+00 0.000000e+00 0.000000e+00
-1.113122e+05 1.424303e+04 0.000000e+00 1.424303e+04 -1.800982e+05 0.000000e+00 0.000000e+00 0.000000e+00 0.000000e+00
-9.873029e+04 1.205761e+04 0.000000e+00 1.205761e+04 -1.780512e+05 0.000000e+00 0.000000e+00 0.000000e+00 0.000000e+00
-9.365449e+04 1.056981e+04 0.000000e+00 1.056981e+04 -1.875171e+05 0.000000e+00 0.000000e+00 0.000000e+00 0.000000e+00
-9.844995e+04 1.091133e+04 0.000000e+00 1.091133e+04 -1.974895e+05 0.000000e+00 0.000000e+00 0.000000e+00 0.000000e+00
-1.072373e+05 1.205610e+04 0.000000e+00 1.205610e+04 -2.086036e+05 0.000000e+00 0.000000e+00 0.000000e+00 0.000000e+00
-1.136976e+05 1.359814e+04 0.000000e+00 1.359814e+04 -2.199570e+05 0.000000e+00 0.000000e+00 0.000000e+00 0.000000e+00
-1.197934e+05 1.439050e+04 0.000000e+00 1.439050e+04 -2.303007e+05 0.000000e+00 0.000000e+00 0.000000e+00 0.000000e+00
-1.260796e+05 1.153976e+04 0.000000e+00 1.153976e+04 -2.388288e+05 0.000000e+00 0.000000e+00 0.000000e+00 0.000000e+00
-1.286158e+05 6.941399e+03 0.000000e+00 6.941399e+03 -2.495747e+05 0.000000e+00 0.000000e+00 0.000000e+00 0.000000e+00
-1.353710e+05 2.573054e+02 0.000000e+00 2.573054e+02 -2.538485e+05 0.000000e+00 0.000000e+00 0.000000e+00 0.000000e+00
-1.512439e+05 -6.114520e+03 0.000000e+00 -6.114520e+03 -2.776127e+05 0.000000e+00 0.000000e+00 0.000000e+00 0.000000e+00
-1.071705e+05 2.454046e+04 0.000000e+00 2.454046e+04 -1.572109e+05 0.000000e+00 0.000000e+00 0.000000e+00 0.000000e+00
-9.677501e+04 2.174552e+04 0.000000e+00 2.174552e+04 -1.533492e+05 0.000000e+00 0.000000e+00 0.000000e+00 0.000000e+00
-9.551929e+04 2.141548e+04 0.000000e+00 2.141548e+04 -1.604044e+05 0.000000e+00 0.000000e+00 0.000000e+00 0.000000e+00
-1.016700e+05 2.402243e+04 0.000000e+00 2.402243e+04 -1.703763e+05 0.000000e+00 0.000000e+00 0.000000e+00 0.000000e+00
-1.102178e+05 2.672371e+04 0.000000e+00 2.672371e+04 -1.808321e+05 0.000000e+00 0.000000e+00 0.000000e+00 0.000000e+00
-1.178592e+05 2.889584e+04 0.000000e+00 2.889584e+04 -1.906134e+05 0.000000e+00 0.000000e+00 0.000000e+00 0.000000e+00
-1.266739e+05 3.062274e+04 0.000000e+00 3.062274e+04 -2.030370e+05 0.000000e+00 0.000000e+00 0.000000e+00 0.000000e+00
-1.382643e+05 3.172497e+04 0.000000e+00 3.172497e+04 -2.184692e+05 0.000000e+00 0.000000e+00 0.000000e+00 0.000000e+00
-1.494084e+05 3.038352e+04 0.000000e+00 3.038352e+04 -2.306103e+05 0.000000e+00 0.000000e+00 0.000000e+00 0.000000e+00
-1.569952e+05 2.362193e+04 0.000000e+00 2.362193e+04 -2.489882e+05 0.000000e+00 0.000000e+00 0.000000e+00 0.000000e+00
-1.718477e+05 7.842438e+03 0.000000e+00 7.842438e+03 -2.881377e+05 0.000000e+00 0.000000e+00 0.000000e+00 0.000000e+00
-9.842973e+04 2.666738e+04 0.000000e+00 2.666738e+04 -1.268176e+05 0.000000e+00 0.000000e+00 0.000000e+00 0.000000e+00
-9.174206e+04 2.487256e+04 0.000000e+00 2.487256e+04 -1.231431e+05 0.000000e+00 0.000000e+00 0.000000e+00 0.000000e+00
-9.269383e+04 2.532389e+04 0.000000e+00 2.532389e+04 -1.242227e+05 0.000000e+00 0.000000e+00 0.000000e+00 0.000000e+00
-9.847462e+04 2.731269e+04 0.000000e+00 2.731269e+04 -1.245506e+05 0.000000e+00 0.000000e+00 0.000000e+00 0.000000e+00
-1.047626e+05 2.867533e+04 0.000000e+00 2.867533e+04 -1.229109e+05 0.000000e+00 0.000000e+00 0.000000e+00 0.000000e+00
-1.090634e+05 2.969520e+04 0.000000e+00 2.969520e+04 -1.201677e+05 0.000000e+00 0.000000e+00 0.000000e+00 0.000000e+00
-1.106342e+05 2.925920e+04 0.000000e+00 2.925920e+04 -1.144672e+05 0.000000e+00 0.000000e+00 0.000000e+00 0.000000e+00
-1.089391e+05 2.740804e+04 0.000000e+00 2.740804e+04 -1.063077e+05 0.000000e+00 0.000000e+00 0.000000e+00 0.000000e+00
-1.043178e+05 2.317462e+04 0.000000e+00 2.317462e+04 -9.593682e+04 0.000000e+00 0.000000e+00 0.000000e+00 0.000000e+00
-8.826758e+04 1.486252e+04 0.000000e+00 1.486252e+04 -7.989710e+04 0.000000e+00 0.000000e+00 0.000000e+00 0.000000e+00
-6.472352e+04 9.278229e+03 0.000000e+00 9.278229e+03 -6.723053e+04 0.000000e+00 0.000000e+00 0.000000e+00 0.000000e+00
-9.433135e+04 2.612517e+04 0.000000e+00 2.612517e+04 -1.109341e+05 0.000000e+00 0.000000e+00 0.000000e+00 0.000000e+00
-9.199978e+04 2.532902e+04 0.000000e+00 2.532902e+04 -1.092632e+05 0.000000e+00 0.000000e+00 0.000000e+00 0.000000e+00
-9.589944e+04 2.575079e+04 0.000000e+00 2.575079e+04 -1.093348e+05 0.000000e+00 0.000000e+00 0.000000e+00 0.000000e+00
-1.028941e+05 2.655159e+04 0.000000e+00 2.655159e+04 -1.076821e+05 0.000000e+00 0.000000e+00 0.000000e+00 0.000000e+00
-1.094237e+05 2.674987e+04 0.000000e+00 2.674987e+04 -1.043843e+05 0.000000e+00 0.000000e+00 0.000000e+00 0.000000e+00
-1.143035e+05 2.588315e+04 0.000000e+00 2.588315e+04 -9.945098e+04 0.000000e+00 0.000000e+00 0.000000e+00 0.000000e+00
-1.166261e+05 2.376676e+04 0.000000e+00 2.376676e+04 -9.294856e+04 0.000000e+00 0.000000e+00 0.000000e+00 0.000000e+00
-1.165686e+05 2.032312e+04 0.000000e+00 2.032312e+04 -8.522981e+04 0.000000e+00 0.000000e+00 0.000000e+00 0.000000e+00
-1.127890e+05 1.426065e+04 0.000000e+00 1.426065e+04 -7.647827e+04 0.000000e+00 0.000000e+00 0.000000e+00 0.000000e+00
-9.510452e+04 5.101951e+03 0.000000e+00 5.101951e+03 -6.834895e+04 0.000000e+00 0.000000e+00 0.000000e+00 0.000000e+00
-6.203906e+04 -1.521209e+02 0.000000e+00 -1.521209e+02 -5.681589e+04 0.000000e+00 0.000000e+00 0.000000e+00 0.000000e+00
-8.869345e+04 2.481848e+04 0.000000e+00 2.481848e+04 -9.764567e+04 0.000000e+00 0.000000e+00 0.000000e+00 0.000000e+00
-9.071052e+04 2.443981e+04 0.000000e+00 2.443981e+04 -9.737908e+04 0.000000e+00 0.000000e+00 0.000000e+00 0.000000e+00
-9.636863e+04 2.389876e+04 0.000000e+00 2.389876e+04 -9.579916e+04 0.000000e+00 0.000000e+00 0.000000e+00 0.000000e+00
-1.032067e+05 2.337437e+04 0.000000e+00 2.337437e+04 -9.279809e+04 0.000000e+00 0.000000e+00 0.000000e+00 0.000000e+00
-1.088624e+05 2.210842e+04 0.000000e+00 2.210842e+04 -8.895970e+04 0.000000e+00 0.000000e+00 0.000000e+00 0.000000e+00
-1.125404e+05 1.983512e+04 0.000000e+00 1.983512e+04 -8.420291e+04 0.000000e+00 0.000000e+00 0.000000e+00 0.000000e+00
-1.133699e+05 1.646580e+04 0.000000e+00 1.646580e+04 -7.848555e+04 0.000000e+00 0.000000e+00 0.000000e+00 0.000000e+00
-1.114451e+05 1.179963e+04 0.000000e+00 1.179963e+04 -7.233809e+04 0.000000e+00 0.000000e+00 0.000000e+00 0.000000e+00
-1.046659e+05 5.357061e+03 0.000000e+00 5.357061e+03 -6.662329e+04 0.000000e+00 0.000000e+00 0.000000e+00 0.000000e+00
-8.612467e+04 -8.119907e+02 0.000000e+00 -8.119907e+02 -6.217610e+04 0.000000e+00 0.000000e+00 0.000000e+00 0.000000e+00
-6.149518e+04 -2.766869e+03 0.000000e+00 -2.766869e+03 -5.673290e+04 0.000000e+00 0.000000e+00 0.000000e+00 0.000000e+00
-8.312716e+04 2.306720e+04 0.000000e+00 2.306720e+04 -8.691398e+04 0.000000e+00 0.000000e+00 0.000000e+00 0.000000e+00
-8.899124e+04 2.267621e+04 0.000000e+00 2.267621e+04 -8.766123e+04 0.000000e+00 0.000000e+00 0.000000e+00 0.000000e+00
-9.583562e+04 2.116733e+04 0.000000e+00 2.116733e+04 -8.522955e+04 0.000000e+00 0.000000e+00 0.000000e+00 0.000000e+00
-1.020057e+05 1.973532e+04 0.000000e+00 1.973532e+04 -8.231577e+04 0.000000e+00 0.000000e+00 0.000000e+00 0.000000e+00
-1.065240e+05 1.752130e+04 0.000000e+00 1.752130e+04 -7.861832e+04 0.000000e+00 0.000000e+00 0.000000e+00 0.000000e+00
-1.090566e+05 1.442387e+04 0.000000e+00 1.442387e+04 -7.447717e+04 0.000000e+00 0.000000e+00 0.000000e+00 0.000000e+00
-1.089399e+05 1.051249e+04 0.000000e+00 1.051249e+04 -7.008688e+04 0.000000e+00 0.000000e+00 0.000000e+00 0.000000e+00
-1.056691e+05 5.736190e+03 0.000000e+00 5.736190e+03 -6.584429e+04 0.000000e+00 0.000000e+00 0.000000e+00 0.000000e+00
-9.777137e+04 5.276315e+02 0.000000e+00 5.276315e+02 -6.234285e+04 0.000000e+00 0.000000e+00 0.000000e+00 0.000000e+00
-8.298778e+04 -2.580093e+03 0.000000e+00 -2.580093e+03 -6.022700e+04 0.000000e+00 0.000000e+00 0.000000e+00 0.000000e+00
-6.710197e+04 -2.929896e+03 0.000000e+00 -2.929896e+03 -5.752482e+04 0.000000e+00 0.000000e+00 0.000000e+00 0.000000e+00
-7.865544e+04 2.107454e+04 0.000000e+00 2.107454e+04 -7.886550e+04 0.000000e+00 0.000000e+00 0.000000e+00 0.000000e+00
-8.670466e+04 2.058427e+04 0.000000e+00 2.058427e+04 -8.003409e+04 0.000000e+00 0.000000e+00 0.000000e+00 0.000000e+00
-9.419105e+04 1.840551e+04 0.000000e+00 1.840551e+04 -7.754948e+04 0.000000e+00 0.000000e+00 0.000000e+00 0.000000e+00
-9.972738e+04 1.619218e+04 0.000000e+00 1.619218e+04 -7.469981e+04 0.000000e+00 0.000000e+00 0.000000e+00 0.000000e+00
-1.034453e+05 1.348297e+04 0.000000e+00 1.348297e+04 -7.157732e+04 0.000000e+00 0.000000e+00 0.000000e+00 0.000000e+00
-1.051497e+05 1.016419e+04 0.000000e+00 1.016419e+04 -6.838355e+04 0.000000e+00 0.000000e+00 0.000000e+00 0.000000e+00
-1.043098e+05 6.219393e+03 0.000000e+00 6.219393e+03 -6.521426e+04 0.000000e+00 0.000000e+00 0.000000e+00 0.000000e+00
-1.004191e+05 1.948220e+03 0.000000e+00 1.948220e+03 -6.238782e+04 0.000000e+00 0.000000e+00 0.000000e+00 0.000000e+00
-9.330010e+04 -1.706684e+03 0.000000e+00 -1.706684e+03 -6.050001e+04 0.000000e+00 0.000000e+00 0.000000e+00 0.000000e+00
-8.271896e+04 -2.908118e+03 0.000000e+00 -2.908118e+03 -5.969154e+04 0.000000e+00 0.000000e+00 0.000000e+00 0.000000e+00
-7.260648e+04 -2.450926e+03 0.000000e+00 -2.450926e+03 -5.820177e+04 0.000000e+00 0.000000e+00 0.000000e+00 0.000000e+00
-7.506975e+04 1.892431e+04 0.000000e+00 1.892431e+04 -7.308881e+04 0.000000e+00 0.000000e+00 0.000000e+00 0.000000e+00
-8.404071e+04 1.837589e+04 0.000000e+00 1.837589e+04 -7.435675e+04 0.000000e+00 0.000000e+00 0.000000e+00 0.000000e+00
-9.176504e+04 1.574907e+04 0.000000e+00 1.574907e+04 -7.192333e+04 0.000000e+00 0.000000e+00 0.000000e+00 0.000000e+00
-9.698979e+04 1.315522e+04 0.000000e+00 1.315522e+04 -6.943916e+04 0.000000e+00 0.000000e+00 0.000000e+00 0.000000e+00
-1.001081e+05 1.028550e+04 0.000000e+00 1.028550e+04 -6.700290e+04 0.000000e+00 0.000000e+00 0.000000e+00 0.000000e+00
-1.011809e+05 6.951067e+03 0.000000e+00 6.951067e+03 -6.455532e+04 0.000000e+00 0.000000e+00 0.000000e+00 0.000000e+00
-9.994584e+04 3.293971e+03 0.000000e+00 3.293971e+03 -6.229494e+04 0.000000e+00 0.000000e+00 0.000000e+00 0.000000e+00
-9.632282e+04 -1.634594e+02 0.000000e+00 -1.634594e+02 -6.056912e+04 0.000000e+00 0.000000e+00 0.000000e+00 0.000000e+00
-9.082240e+04 -2.529677e+03 0.000000e+00 -2.529677e+03 -5.972930e+04 0.000000e+00 0.000000e+00 0.000000e+00 0.000000e+00
-8.369929e+04 -2.701147e+03 0.000000e+00 -2.701147e+03 -5.958220e+04 0.000000e+00 0.000000e+00 0.000000e+00 0.000000e+00
-7.741466e+04 -1.952836e+03 0.000000e+00 -1.952836e+03 -5.871435e+04 0.000000e+00 0.000000e+00 0.000000e+00 0.000000e+00
-7.192522e+04 1.678404e+04 0.000000e+00 1.678404e+04 -6.899520e+04 0.000000e+00 0.000000e+00 0.000000e+00 0.000000e+00
-8.116634e+04 1.618264e+04 0.000000e+00 1.618264e+04 -7.023181e+04 0.000000e+00 0.000000e+00 0.000000e+00 0.000000e+00
-8.898473e+04 1.339547e+04 0.000000e+00 1.339547e+04 -6.795849e+04 0.000000e+00 0.000000e+00 0.000000e+00 0.000000e+00
-9.401012e+04 1.069405e+04 0.000000e+00 1.069405e+04 -6.590560e+04 0.000000e+00 0.000000e+00 0.000000e+00 0.000000e+00
-9.671255e+04 7.776961e+03 0.000000e+00 7.776961e+03 -6.396702e+04 0.000000e+00 0.000000e+00 0.000000e+00 0.000000e+00
-9.743291e+04 4.608596e+03 0.000000e+00 4.608596e+03 -6.212456e+04 0.000000e+00 0.000000e+00 0.000000e+00 0.000000e+00
-9.621603e+04 1.439105e+03 0.000000e+00 1.439105e+03 -6.060477e+04 0.000000e+00 0.000000e+00 0.000000e+00 0.000000e+00
-9.339319e+04 -1.192792e+03 0.000000e+00 -1.192792e+03 -5.967175e+04 0.000000e+00 0.000000e+00 0.000000e+00 0.000000e+00
-8.958529e+04 -2.641804e+03 0.000000e+00 -2.641804e+03 -5.941517e+04 0.000000e+00 0.000000e+00 0.000000e+00 0.000000e+00
-8.510310e+04 -2.312357e+03 0.000000e+00 -2.312357e+03 -5.957213e+04 0.000000e+00 0.000000e+00 0.000000e+00 0.000000e+00
-8.134087e+04 -1.511171e+03 0.000000e+00 -1.511171e+03 -5.913237e+04 0.000000e+00 0.000000e+00 0.000000e+00 0.000000e+00
-6.920884e+04 1.474830e+04 0.000000e+00 1.474830e+04 -6.630242e+04 0.000000e+00 0.000000e+00 0.000000e+00 0.000000e+00
-7.830612e+04 1.406055e+04 0.000000e+00 1.406055e+04 -6.730738e+04 0.000000e+00 0.000000e+00 0.000000e+00 0.000000e+00
-8.611961e+04 1.134284e+04 0.000000e+00 1.134284e+04 -6.519914e+04 0.000000e+00 0.000000e+00 0.000000e+00 0.000000e+00
-9.093291e+04 8.659971e+03 0.000000e+00 8.659971e+03 -6.350060e+04 0.000000e+00 0.000000e+00 0.000000e+00 0.000000e+00
-9.343708e+04 5.859504e+03 0.000000e+00 5.859504e+03 -6.195278e+04 0.000000e+00 0.000000e+00 0.000000e+00 0.000000e+00
-9.408312e+04 2.986149e+03 0.000000e+00 2.986149e+03 -6.061046e+04 0.000000e+00 0.000000e+00 0.000000e+00 0.000000e+00
-9.321075e+04 3.668978e+02 0.000000e+00 3.668978e+02 -5.966253e+04 0.000000e+00 0.000000e+00 0.000000e+00 0.000000e+00
-9.137933e+04 -1.552442e+03 0.000000e+00 -1.552442e+03 -5.925139e+04 0.000000e+00 0.000000e+00 0.000000e+00 0.000000e+00
-8.907824e+04 -2.400967e+03 0.000000e+00 -2.400967e+03 -5.931733e+04 0.000000e+00 0.000000e+00 0.000000e+00 0.000000e+00
-8.654940e+04 -1.889137e+03 0.000000e+00 -1.889137e+03 -5.960577e+04 0.000000e+00 0.000000e+00 0.000000e+00 0.000000e+00
-8.454595e+04 -1.146344e+03 0.000000e+00 -1.146344e+03 -5.945693e+04 0.000000e+00 0.000000e+00 0.000000e+00 0.000000e+00
-6.732934e+04 1.260756e+04 0.000000e+00 1.260756e+04 -6.476706e+04 0.000000e+00 0.000000e+00 0.000000e+00 0.000000e+00
-7.570878e+04 1.192785e+04 0.000000e+00 1.192785e+04 -6.537717e+04 0.000000e+00 0.000000e+00 0.000000e+00 0.000000e+00
-8.335634e+04 9.513894e+03 0.000000e+00 9.513894e+03 -6.343320e+04 0.000000e+00 0.000000e+00 0.000000e+00 0.000000e+00
-8.801553e+04 6.988211e+03 0.000000e+00 6.988211e+03 -6.197510e+04 0.000000e+00 0.000000e+00 0.000000e+00 0.000000e+00
-9.040678e+04 4.395355e+03 0.000000e+00 4.395355e+03 -6.071560e+04 0.000000e+00 0.000000e+00 0.000000e+00 0.000000e+00
-9.119191e+04 1.902561e+03 0.000000e+00 1.902561e+03 -5.973787e+04 0.000000e+00 0.000000e+00 0.000000e+00 0.000000e+00
-9.090638e+04 -1.701128e+02 0.000000e+00 -1.701128e+02 -5.919468e+04 0.000000e+00 0.000000e+00 0.000000e+00 0.000000e+00
-9.005082e+04 -1.537103e+03 0.000000e+00 -1.537103e+03 -5.908893e+04 0.000000e+00 0.000000e+00 0.000000e+00 0.000000e+00
-8.894945e+04 -2.017020e+03 0.000000e+00 -2.017020e+03 -5.931245e+04 0.000000e+00 0.000000e+00 0.000000e+00 0.000000e+00
-8.784976e+04 -1.481723e+03 0.000000e+00 -1.481723e+03 -5.965473e+04 0.000000e+00 0.000000e+00 0.000000e+00 0.000000e+00
-8.708538e+04 -8.402770e+02 0.000000e+00 -8.402770e+02 -5.969325e+04 0.000000e+00 0.000000e+00 0.000000e+00 0.000000e+00
-6.620734e+04 1.046120e+04 0.000000e+00 1.046120e+04 -6.416296e+04 0.000000e+00 0.000000e+00 0.000000e+00 0.000000e+00
-7.357324e+04 9.805547e+03 0.000000e+00 9.805547e+03 -6.433096e+04 0.000000e+00 0.000000e+00 0.000000e+00 0.000000e+00
-8.082402e+04 7.765826e+03 0.000000e+00 7.765826e+03 -6.249999e+04 0.000000e+00 0.000000e+00 0.000000e+00 0.000000e+00
-8.528907e+04 5.514609e+03 0.000000e+00 5.514609e+03 -6.108648e+04 0.000000e+00 0.000000e+00 0.000000e+00 0.000000e+00
-8.773824e+04 3.240964e+03 0.000000e+00 3.240964e+03 -5.998150e+04 0.000000e+00 0.000000e+00 0.000000e+00 0.000000e+00
-8.885917e+04 1.201129e+03 0.000000e+00 1.201129e+03 -5.926820e+04 0.000000e+00 0.000000e+00 0.000000e+00 0.000000e+00
-8.919887e+04 -3.685726e+02 0.000000e+00 -3.685726e+02 -5.898964e+04 0.000000e+00 0.000000e+00 0.000000e+00 0.000000e+00
-8.916416e+04 -1.325635e+03 0.000000e+00 -1.325635e+03 -5.906052e+04 0.000000e+00 0.000000e+00 0.000000e+00 0.000000e+00
-8.900739e+04 -1.582642e+03 0.000000e+00 -1.582642e+03 -5.934847e+04 0.000000e+00 0.000000e+00 0.000000e+00 0.000000e+00
-8.892661e+04 -1.102544e+03 0.000000e+00 -1.102544e+03 -5.969680e+04 0.000000e+00 0.000000e+00 0.000000e+00 0.000000e+00
-8.900327e+04 -5.839472e+02 0.000000e+00 -5.839472e+02 -5.987551e+04 0.000000e+00 0.000000e+00 0.000000e+00 0.000000e+00
-6.539582e+04 8.100349e+03 0.000000e+00 8.100349e+03 -6.423440e+04 0.000000e+00 0.000000e+00 0.000000e+00 0.000000e+00
-7.182549e+04 7.541351e+03 0.000000e+00 7.541351e+03 -6.399755e+04 0.000000e+00 0.000000e+00 0.000000e+00 0.000000e+00
-7.862609e+04 5.938997e+03 0.000000e+00 5.938997e+03 -6.211565e+04 0.000000e+00 0.000000e+00 0.000000e+00 0.000000e+00
-8.294266e+04 4.093203e+03 0.000000e+00 4.093203e+03 -6.066058e+04 0.000000e+00 0.000000e+00 0.000000e+00 0.000000e+00
-8.556192e+04 2.288639e+03 0.000000e+00 2.288639e+03 -5.962022e+04 0.000000e+00 0.000000e+00 0.000000e+00 0.000000e+00
-8.708816e+04 7.569737e+02 0.000000e+00 7.569737e+02 -5.906310e+04 0.000000e+00 0.000000e+00 0.000000e+00 0.000000e+00
-8.799184e+04 -3.701591e+02 0.000000e+00 -3.701591e+02 -5.892259e+04 0.000000e+00 0.000000e+00 0.000000e+00 0.000000e+00
-8.859687e+04 -1.017454e+03 0.000000e+00 -1.017454e+03 -5.909927e+04 0.000000e+00 0.000000e+00 0.000000e+00 0.000000e+00
-8.913959e+04 -1.143590e+03 0.000000e+00 -1.143590e+03 -5.941664e+04 0.000000e+00 0.000000e+00 0.000000e+00 0.000000e+00
-8.975239e+04 -7.650146e+02 0.000000e+00 -7.650146e+02 -5.974579e+04 0.000000e+00 0.000000e+00 0.000000e+00 0.000000e+00
-9.037266e+04 -3.771934e+02 0.000000e+00 -3.771934e+02 -6.001945e+04 0.000000e+00 0.000000e+00 0.000000e+00 0.000000e+00
-6.487255e+04 5.510276e+03 0.000000e+00 5.510276e+03 -6.445349e+04 0.000000e+00 0.000000e+00 0.000000e+00 0.000000e+00
-7.054497e+04 5.103650e+03 0.000000e+00 5.103650e+03 -6.398748e+04 0.000000e+00 0.000000e+00 0.000000e+00 0.000000e+00
-7.694083e+04 3.983660e+03 0.000000e+00 3.983660e+03 -6.196390e+04 0.000000e+00 0.000000e+00 0.000000e+00 0.000000e+00
-8.116695e+04 2.690917e+03 0.000000e+00 2.690917e+03 -6.048359e+04 0.000000e+00 0.000000e+00 0.000000e+00 0.000000e+00
-8.394980e+04 1.459302e+03 0.000000e+00 1.459302e+03 -5.952325e+04 0.000000e+00 0.000000e+00 0.000000e+00 0.000000e+00
-8.583847e+04 4.431283e+02 0.000000e+00 4.431283e+02 -5.905099e+04 0.000000e+00 0.000000e+00 0.000000e+00 0.000000e+00
-8.717834e+04 -2.798442e+02 0.000000e+00 -2.798442e+02 -5.897318e+04 0.000000e+00 0.000000e+00 0.000000e+00 0.000000e+00
-8.825824e+04 -6.757587e+02 0.000000e+00 -6.757587e+02 -5.917852e+04 0.000000e+00 0.000000e+00 0.000000e+00 0.000000e+00
-8.926998e+04 -7.273284e+02 0.000000e+00 -7.273284e+02 -5.950143e+04 0.000000e+00 0.000000e+00 0.000000e+00 0.000000e+00
-9.032338e+04 -4.696173e+02 0.000000e+00 -4.696173e+02 -5.978987e+04 0.000000e+00 0.000000e+00 0.000000e+00 0.000000e+00
-9.126723e+04 -2.175084e+02 0.000000e+00 -2.175084e+02 -6.011570e+04 0.000000e+00 0.000000e+00 0.000000e+00 0.000000e+00
-6.455278e+04 2.689031e+03 0.000000e+00 2.689031e+03 -6.451598e+04 0.000000e+00 0.000000e+00 0.000000e+00 0.000000e+00
-6.978461e+04 2.505783e+03 0.000000e+00 2.505783e+03 -6.394175e+04 0.000000e+00 0.000000e+00 0.000000e+00 0.000000e+00
-7.587614e+04 1.970560e+03 0.000000e+00 1.970560e+03 -6.187747e+04 0.000000e+00 0.000000e+00 0.000000e+00 0.000000e+00
-8.009441e+04 1.327544e+03 0.000000e+00 1.327544e+03 -6.042480e+04 0.000000e+00 0.000000e+00 0.000000e+00 0.000000e+00
-8.297573e+04 7.135297e+02 0.000000e+00 7.135297e+02 -5.952635e+04 0.000000e+00 0.000000e+00 0.000000e+00 0.000000e+00
-8.509962e+04 2.038970e+02 0.000000e+00 2.038970e+02 -5.909217e+04 0.000000e+00 0.000000e+00 0.000000e+00 0.000000e+00
-8.671259e+04 -1.486783e+02 0.000000e+00 -1.486783e+02 -5.905545e+04 0.000000e+00 0.000000e+00 0.000000e+00 0.000000e+00
-8.808461e+04 -3.343549e+02 0.000000e+00 -3.343549e+02 -5.926189e+04 0.000000e+00 0.000000e+00 0.000000e+00 0.000000e+00
-8.936820e+04 -3.488328e+02 0.000000e+00 -3.488328e+02 -5.957000e+04 0.000000e+00 0.000000e+00 0.000000e+00 0.000000e+00
-9.065488e+04 -2.178729e+02 0.000000e+00 -2.178729e+02 -5.983120e+04 0.000000e+00 0.000000e+00 0.000000e+00 0.000000e+00
-9.176055e+04 -9.295367e+01 0.000000e+00 -9.295367e+01 -6.017460e+04 0.000000e+00 0.000000e+00 0.000000e+00 0.000000e+00
-6.433522e+04 6.723653e+02 0.000000e+00 6.723653e+02 -6.424680e+04 0.000000e+00 0.000000e+00 0.000000e+00 0.000000e+00
-6.949313e+04 6.980253e+02 0.000000e+00 6.980253e+02 -6.375767e+04 0.000000e+00 0.000000e+00 0.000000e+00 0.000000e+00
-7.551445e+04 5.672423e+02 0.000000e+00 5.672423e+02 -6.183479e+04 0.000000e+00 0.000000e+00 0.000000e+00 0.000000e+00
-7.974533e+04 3.386579e+02 0.000000e+00 3.386579e+02 -6.040962e+04 0.000000e+00 0.000000e+00 0.000000e+00 0.000000e+00
-8.265967e+04 1.092046e+02 0.000000e+00 1.092046e+02 -5.953636e+04 0.000000e+00 0.000000e+00 0.000000e+00 0.000000e+00
-8.486684e+04 -7.682198e+01 0.000000e+00 -7.682198e+01 -5.912345e+04 0.000000e+00 0.000000e+00 0.000000e+00 0.000000e+00
-8.656569e+04 -2.130661e+02 0.000000e+00 -2.130661e+02 -5.909854e+04 0.000000e+00 0.000000e+00 0.000000e+00 0.000000e+00
-8.804414e+04 -2.853045e+02 0.000000e+00 -2.853045e+02 -5.930734e+04 0.000000e+00 0.000000e+00 0.000000e+00 0.000000e+00
-8.942142e+04 -2.860654e+02 0.000000e+00 -2.860654e+02 -5.960880e+04 0.000000e+00 0.000000e+00 0.000000e+00 0.000000e+00
-9.077346e+04 -2.310516e+02 0.000000e+00 -2.310516e+02 -5.985745e+04 0.000000e+00 0.000000e+00 0.000000e+00 0.000000e+00
-9.192336e+04 -1.738943e+02 0.000000e+00 -1.738943e+02 -6.020592e+04 0.000000e+00 0.000000e+00 0.000000e+00 0.000000e+00
</DataArray>
<DataArray Name="vol_eps" type="Float64" NumberOfComponents="1" format="ascii">
-1.144219e-02
-9.968310e-03
-8.662623e-03
-7.639045e-03
-7.399643e-03
-7.814534e-03
-9.239101e-03
-1.131812e-02
-1.443727e-02
-1.726897e-02
-1.772946e-02
-1.086873e-02
-9.329917e-03
-8.321296e-03
-7.832179e-03
-8.111879e-03
-8.657206e-03
-9.438381e-03
-1.057943e-02
-1.248945e-02
-1.477129e-02
-1.871143e-02
-8.983535e-03
-7.510476e-03
-6.967857e-03
-7.170509e-03
-7.603889e-03
-7.937023e-03
-8.405338e-03
-8.998243e-03
-9.319653e-03
-1.040522e-02
-1.398277e-02
-6.224953e-03
-5.282655e-03
-5.106917e-03
-5.170329e-03
-5.152101e-03
-4.744095e-03
-3.655871e-03
-1.922007e-03
5.537557e-04
4.190838e-03
8.023407e-03
-4.790707e-03
-4.581749e-03
-5.018973e-03
-5.448128e-03
-5.697131e-03
-5.726717e-03
-5.468419e-03
-4.968386e-03
-4.252368e-03
-2.718878e-03
1.921225e-04
-3.411700e-03
-3.737847e-03
-4.313563e-03
-4.685917e-03
-4.863746e-03
-4.820906e-03
-4.506955e-03
-4.001139e-03
-3.261002e-03
-1.804131e-03
1.757487e-04
-2.348586e-03
-3.093685e-03
-3.732178e-03
-4.038968e-03
-4.109678e-03
-3.999136e-03
-3.715459e-03
-3.264314e-03
-2.572925e-03
-1.481534e-03
-2.658616e-04
-1.642085e-03
-2.571193e-03
-3.201619e-03
-3.425257e-03
-3.461501e-03
-3.366905e-03
-3.131504e-03
-2.728468e-03
-2.174906e-03
-1.430028e-03
-6.689370e-04
-1.194440e-03
-2.141726e-03
-2.715129e-03
-2.919373e-03
-2.965725e-03
-2.890385e-03
-2.683845e-03
-2.358733e-03
-1.968555e-03
-1.488108e-03
-1.012203e-03
-9.145128e-04
-1.801849e-03
-2.309865e-03
-2.519526e-03
-2.575645e-03
-2.511855e-03
-2.344570e-03
-2.119503e-03
-1.870242e-03
-1.581490e-03
-1.299194e-03
-7.449543e-04
-1.525146e-03
-1.979991e-03
-2.193668e-03
-2.254745e-03
-2.208833e-03
-2.098518e-03
-1.969325e-03
-1.832357e-03
-1.681973e-03
-1.536646e-03
-6.370518e-04
-1.292732e-03
-1.707586e-03
-1.921124e-03
-1.989738e-03
-1.975940e-03
-1.929110e-03
-1.877413e-03
-1.824906e-03
-1.773431e-03
-1.723975e-03
-5.803934e-04
-1.109946e-03
-1.484720e-03
-1.687085e-03
-1.774677e-03
-1.801640e-03
-1.810682e-03
-1.819321e-03
-1.831221e-03
-1.848758e-03
-1.864641e-03
-5.714598e-04
-9.900425e-04
-1.316207e-03
-1.504662e-03
-1.609118e-03
-1.676202e-03
-1.729854e-03
-1.784749e-03
-1.843490e-03
-1.905073e-03
-1.962840e-03
-5.799109e-04
-9.196165e-04
-1.198923e-03
-1.377469e-03
-1.497666e-03
-1.594440e-03
-1.680892e-03
-1.767194e-03
-1.856283e-03
-1.942860e-03
-2.024982e-03
-5.788064e-04
-8.756969e-04
-1.126434e-03
-1.302032e-03
-1.433915e-03
-1.548764e-03
-1.655519e-03
-1.760340e-03
-1.865575e-03
-1.964907e-03
-2.059018e-03
-5.519871e-04
-8.483298e-04
-1.101957e-03
-1.277253e-03
-1.413460e-03
-1.535700e-03
-1.648901e-03
-1.760773e-03
-1.871535e-03
-1.974368e-03
-2.071727e-03
</DataArray>
</PointData>
</Piece>
</UnstructuredGrid>
</VTKFile>
