<?xml version="1.0"?>
<VTKFile type="UnstructuredGrid" version="0.1">
<UnstructuredGrid>
<FieldData>
<DataArray Name="TIME" type="Float64" format="ascii" NumberOfTuples="1">
0.000000e+00
</DataArray>
</FieldData>
<FieldData>
<DataArray Name="CYCLE" type="Int32" format="ascii" NumberOfTuples="1">
0
</DataArray>
</FieldData>
<Piece NumberOfPoints="187" NumberOfCells="160">
<Points>
<DataArray NumberOfComponents="3" type="Float64" format="ascii">
0.000000e+00 0.000000e+00 0.000000e+00
0.000000e+00 1.985430e-01 0.000000e+00
0.000000e+00 3.965408e-01 0.000000e+00
0.000000e+00 5.941121e-01 0.000000e+00
0.000000e+00 7.913629e-01 0.000000e+00
0.000000e+00 9.883662e-01 0.000000e+00
0.000000e+00 1.185219e+00 0.000000e+00
0.000000e+00 1.382039e+00 0.000000e+00
0.000000e+00 1.579003e+00 0.000000e+00
0.000000e+00 1.776408e+00 0.000000e+00
0.000000e+00 1.974125e+00 0.000000e+00
2.250000e-01 0.000000e+00 0.000000e+00
2.256123e-01 1.986438e-01 0.000000e+00
2.261849e-01 3.968152e-01 0.000000e+00
2.265950e-01 5.945674e-01 0.000000e+00
2.268454e-01 7.919877e-01 0.000000e+00
2.269597e-01 9.891309e-01 0.000000e+00
2.269279e-01 1.186062e+00 0.000000e+00
2.266999e-01 1.382860e+00 0.000000e+00
2.262122e-01 1.579640e+00 0.000000e+00
2.253815e-01 1.776554e+00 0.000000e+00
2.250000e-01 1.974125e+00 0.000000e+00
4.500000e-01 0.000000e+00 0.000000e+00
4.510939e-01 1.988493e-01 0.000000e+00
4.520752e-01 3.974366e-01 0.000000e+00
4.528412e-01 5.957783e-01 0.000000e+00
4.533809e-01 7.938501e-01 0.000000e+00
4.537300e-01 9.916021e-01 0.000000e+00
4.538800e-01 1.189000e+00 0.000000e+00
4.537112e-01 1.386033e+00 0.000000e+00
4.532033e-01 1.582595e+00 0.000000e+00
4.522009e-01 1.778596e+00 0.000000e+00
4.500000e-01 1.974125e+00 0.000000e+00
6.750000e-01 0.000000e+00 0.000000e+00
6.763743e-01 1.990909e-01 0.000000e+00
6.775033e-01 3.981133e-01 0.000000e+00
6.783940e-01 5.971258e-01 0.000000e+00
6.790879e-01 7.961595e-01 0.000000e+00
6.796217e-01 9.952474e-01 0.000000e+00
6.800115e-01 1.194433e+00 0.000000e+00
6.801454e-01 1.393761e+00 0.000000e+00
6.799526e-01 1.593275e+00 0.000000e+00
6.792707e-01 1.793113e+00 0.000000e+00
6.763840e-01 1.993681e+00 0.000000e+00
9.000000e-01 0.000000e+00 0.000000e+00
9.014677e-01 1.993065e-01 0.000000e+00
9.025698e-01 3.986330e-01 0.000000e+00
9.034073e-01 5.980086e-01 0.000000e+00
9.040373e-01 7.974466e-01 0.000000e+00
9.044856e-01 9.969658e-01 0.000000e+00
9.047413e-01 1.196600e+00 0.000000e+00
9.047325e-01 1.396384e+00 0.000000e+00
9.043759e-01 1.596349e+00 0.000000e+00
9.033154e-01 1.796534e+00 0.000000e+00
9.014096e-01 1.996497e+00 0.000000e+00
1.125000e+00 0.000000e+00 0.000000e+00
1.126434e+00 1.994987e-01 0.000000e+00
1.127449e+00 3.990566e-01 0.000000e+00
1.128202e+00 5.986782e-01 0.000000e+00
1.128751e+00 7.983678e-01 0.000000e+00
1.129108e+00 9.981401e-01 0.000000e+00
1.129255e+00 1.198014e+00 0.000000e+00
1.129147e+00 1.398001e+00 0.000000e+00
1.128695e+00 1.598106e+00 0.000000e+00
1.127819e+00 1.798232e+00 0.000000e+00
1.126645e+00 1.998272e+00 0.000000e+00
1.350000e+00 0.000000e+00 0.000000e+00
1.351316e+00 1.996490e-01 0.000000e+00
1.352224e+00 3.993739e-01 0.000000e+00
1.352894e+00 5.991622e-01 0.000000e+00
1.353364e+00 7.990152e-01 0.000000e+00
1.353644e+00 9.989398e-01 0.000000e+00
1.353724e+00 1.198943e+00 0.000000e+00
1.353573e+00 1.399020e+00 0.000000e+00
1.353163e+00 1.599146e+00 0.000000e+00
1.352512e+00 1.799260e+00 0.000000e+00
1.351769e+00 1.999286e+00 0.000000e+00
1.575000e+00 0.000000e+00 0.000000e+00
1.576149e+00 1.997632e-01 0.000000e+00
1.576953e+00 3.996028e-01 0.000000e+00
1.577538e+00 5.995018e-01 0.000000e+00
1.577940e+00 7.994577e-01 0.000000e+00
1.578165e+00 9.994715e-01 0.000000e+00
1.578209e+00 1.199542e+00 0.000000e+00
1.578062e+00 1.399657e+00 0.000000e+00
1.577736e+00 1.599787e+00 0.000000e+00
1.577280e+00 1.799887e+00 0.000000e+00
1.576807e+00 1.999924e+00 0.000000e+00
1.800000e+00 0.000000e+00 0.000000e+00
1.800968e+00 1.998413e-01 0.000000e+00
1.801664e+00 3.997561e-01 0.000000e+00
1.802173e+00 5.997251e-01 0.000000e+00
1.802516e+00 7.997441e-01 0.000000e+00
1.802700e+00 9.998109e-01 0.000000e+00
1.802730e+00 1.199918e+00 0.000000e+00
1.802614e+00 1.400047e+00 0.000000e+00
1.802375e+00 1.600172e+00 0.000000e+00
1.802066e+00 1.800267e+00 0.000000e+00
1.801773e+00 2.000314e+00 0.000000e+00
2.025000e+00 0.000000e+00 0.000000e+00
2.025792e+00 1.998926e-01 0.000000e+00
2.026383e+00 3.998536e-01 0.000000e+00
2.026818e+00 5.998656e-01 0.000000e+00
2.027108e+00 7.999229e-01 0.000000e+00
2.027264e+00 1.000018e+00 0.000000e+00
2.027294e+00 1.200139e+00 0.000000e+00
2.027214e+00 1.400270e+00 0.000000e+00
2.027050e+00 1.600392e+00 0.000000e+00
2.026849e+00 1.800485e+00 0.000000e+00
2.026678e+00 2.000543e+00 0.000000e+00
2.250000e+00 0.000000e+00 0.000000e+00
2.250631e+00 1.999238e-01 0.000000e+00
2.251123e+00 3.999120e-01 0.000000e+00
2.251486e+00 5.999487e-01 0.000000e+00
2.251729e+00 8.000255e-01 0.000000e+00
2.251863e+00 1.000133e+00 0.000000e+00
2.251898e+00 1.200258e+00 0.000000e+00
2.251849e+00 1.400387e+00 0.000000e+00
2.251744e+00 1.600504e+00 0.000000e+00
2.251621e+00 1.800599e+00 0.000000e+00
2.251531e+00 2.000668e+00 0.000000e+00
2.475000e+00 0.000000e+00 0.000000e+00
2.475491e+00 1.999436e-01 0.000000e+00
2.475886e+00 3.999454e-01 0.000000e+00
2.476182e+00 5.999933e-01 0.000000e+00
2.476383e+00 8.000779e-01 0.000000e+00
2.476497e+00 1.000188e+00 0.000000e+00
2.476535e+00 1.200312e+00 0.000000e+00
2.476510e+00 1.400437e+00 0.000000e+00
2.476448e+00 1.600551e+00 0.000000e+00
2.476379e+00 1.800648e+00 0.000000e+00
2.476340e+00 2.000726e+00 0.000000e+00
2.700000e+00 0.000000e+00 0.000000e+00
2.700370e+00 1.999537e-01 0.000000e+00
2.700675e+00 3.999620e-01 0.000000e+00
2.700907e+00 6.000147e-01 0.000000e+00
2.701067e+00 8.001006e-01 0.000000e+00
2.701162e+00 1.000209e+00 0.000000e+00
2.701198e+00 1.200329e+00 0.000000e+00
2.701190e+00 1.400449e+00 0.000000e+00
2.701157e+00 1.600561e+00 0.000000e+00
2.701122e+00 1.800660e+00 0.000000e+00
2.701113e+00 2.000747e+00 0.000000e+00
2.925000e+00 0.000000e+00 0.000000e+00
2.925265e+00 1.999608e-01 0.000000e+00
2.925487e+00 3.999720e-01 0.000000e+00
2.925658e+00 6.000248e-01 0.000000e+00
2.925778e+00 8.001093e-01 0.000000e+00
2.925850e+00 1.000215e+00 0.000000e+00
2.925881e+00 1.200330e+00 0.000000e+00
2.925883e+00 1.400446e+00 0.000000e+00
2.925868e+00 1.600557e+00 0.000000e+00
2.925853e+00 1.800657e+00 0.000000e+00
2.925858e+00 2.000750e+00 0.000000e+00
3.150000e+00 0.000000e+00 0.000000e+00
3.150172e+00 1.999652e-01 0.000000e+00
3.150316e+00 3.999783e-01 0.000000e+00
3.150429e+00 6.000317e-01 0.000000e+00
3.150508e+00 8.001146e-01 0.000000e+00
3.150557e+00 1.000217e+00 0.000000e+00
3.150580e+00 1.200329e+00 0.000000e+00
3.150584e+00 1.400442e+00 0.000000e+00
3.150578e+00 1.600551e+00 0.000000e+00
3.150574e+00 1.800653e+00 0.000000e+00
3.150583e+00 2.000751e+00 0.000000e+00
3.375000e+00 0.000000e+00 0.000000e+00
3.375086e+00 1.999710e-01 0.000000e+00
3.375156e+00 3.999880e-01 0.000000e+00
3.375211e+00 6.000428e-01 0.000000e+00
3.375251e+00 8.001247e-01 0.000000e+00
3.375276e+00 1.000225e+00 0.000000e+00
3.375288e+00 1.200335e+00 0.000000e+00
3.375291e+00 1.400447e+00 0.000000e+00
3.375289e+00 1.600554e+00 0.000000e+00
3.375289e+00 1.800657e+00 0.000000e+00
3.375295e+00 2.000758e+00 0.000000e+00
3.600000e+00 0.000000e+00 0.000000e+00
3.600000e+00 1.999861e-01 0.000000e+00
3.600000e+00 4.000076e-01 0.000000e+00
3.600000e+00 6.000630e-01 0.000000e+00
3.600000e+00 8.001447e-01 0.000000e+00
3.600000e+00 1.000245e+00 0.000000e+00
3.600000e+00 1.200354e+00 0.000000e+00
3.600000e+00 1.400464e+00 0.000000e+00
3.600000e+00 1.600572e+00 0.000000e+00
3.600000e+00 1.800675e+00 0.000000e+00
3.600000e+00 2.000776e+00 0.000000e+00
</DataArray>
</Points>
<Cells>
<DataArray Name="connectivity" type="Int32" format="ascii">
0 11 12 1
1 12 13 2
2 13 14 3
3 14 15 4
4 15 16 5
5 16 17 6
6 17 18 7
7 18 19 8
8 19 20 9
9 20 21 10
11 22 23 12
12 23 24 13
13 24 25 14
14 25 26 15
15 26 27 16
16 27 28 17
17 28 29 18
18 29 30 19
19 30 31 20
20 31 32 21
22 33 34 23
23 34 35 24
24 35 36 25
25 36 37 26
26 37 38 27
27 38 39 28
28 39 40 29
29 40 41 30
30 41 42 31
31 42 43 32
33 44 45 34
34 45 46 35
35 46 47 36
36 47 48 37
37 48 49 38
38 49 50 39
39 50 51 40
40 51 52 41
41 52 53 42
42 53 54 43
44 55 56 45
45 56 57 46
46 57 58 47
47 58 59 48
48 59 60 49
49 60 61 50
50 61 62 51
51 62 63 52
52 63 64 53
53 64 65 54
55 66 67 56
56 67 68 57
57 68 69 58
58 69 70 59
59 70 71 60
60 71 72 61
61 72 73 62
62 73 74 63
63 74 75 64
64 75 76 65
66 77 78 67
67 78 79 68
68 79 80 69
69 80 81 70
70 81 82 71
71 82 83 72
72 83 84 73
73 84 85 74
74 85 86 75
75 86 87 76
77 88 89 78
78 89 90 79
79 90 91 80
80 91 92 81
81 92 93 82
82 93 94 83
83 94 95 84
84 95 96 85
85 96 97 86
86 97 98 87
88 99 100 89
89 100 101 90
90 101 102 91
91 102 103 92
92 103 104 93
93 104 105 94
94 105 106 95
95 106 107 96
96 107 108 97
97 108 109 98
99 110 111 100
100 111 112 101
101 112 113 102
102 113 114 103
103 114 115 104
104 115 116 105
105 116 117 106
106 117 118 107
107 118 119 108
108 119 120 109
110 121 122 111
111 122 123 112
112 123 124 113
113 124 125 114
114 125 126 115
115 126 127 116
116 127 128 117
117 128 129 118
118 129 130 119
119 130 131 120
121 132 133 122
122 133 134 123
123 134 135 124
124 135 136 125
125 136 137 126
126 137 138 127
127 138 139 128
128 139 140 129
129 140 141 130
130 141 142 131
132 143 144 133
133 144 145 134
134 145 146 135
135 146 147 136
136 147 148 137
137 148 149 138
138 149 150 139
139 150 151 140
140 151 152 141
141 152 153 142
143 154 155 144
144 155 156 145
145 156 157 146
146 157 158 147
147 158 159 148
148 159 160 149
149 160 161 150
150 161 162 151
151 162 163 152
152 163 164 153
154 165 166 155
155 166 167 156
156 167 168 157
157 168 169 158
158 169 170 159
159 170 171 160
160 171 172 161
161 172 173 162
162 173 174 163
163 174 175 164
165 176 177 166
166 177 178 167
167 178 179 168
168 179 180 169
169 180 181 170
170 181 182 171
171 182 183 172
172 183 184 173
173 184 185 174
174 185 186 175
</DataArray>
<DataArray Name="offsets" type="Int32" format="ascii">
4
8
12
16
20
24
28
32
36
40
44
48
52
56
60
64
68
72
76
80
84
88
92
96
100
104
108
112
116
120
124
128
132
136
140
144
148
152
156
160
164
168
172
176
180
184
188
192
196
200
204
208
212
216
220
224
228
232
236
240
244
248
252
256
260
264
268
272
276
280
284
288
292
296
300
304
308
312
316
320
324
328
332
336
340
344
348
352
356
360
364
368
372
376
380
384
388
392
396
400
404
408
412
416
420
424
428
432
436
440
444
448
452
456
460
464
468
472
476
480
484
488
492
496
500
504
508
512
516
520
524
528
532
536
540
544
548
552
556
560
564
568
572
576
580
584
588
592
596
600
604
608
612
616
620
624
628
632
636
640
</DataArray>
<DataArray Name="types" type="UInt8" format="ascii">
9
9
9
9
9
9
9
9
9
9
9
9
9
9
9
9
9
9
9
9
9
9
9
9
9
9
9
9
9
9
9
9
9
9
9
9
9
9
9
9
9
9
9
9
9
9
9
9
9
9
9
9
9
9
9
9
9
9
9
9
9
9
9
9
9
9
9
9
9
9
9
9
9
9
9
9
9
9
9
9
9
9
9
9
9
9
9
9
9
9
9
9
9
9
9
9
9
9
9
9
9
9
9
9
9
9
9
9
9
9
9
9
9
9
9
9
9
9
9
9
9
9
9
9
9
9
9
9
9
9
9
9
9
9
9
9
9
9
9
9
9
9
9
9
9
9
9
9
9
9
9
9
9
9
9
9
9
9
9
9
</DataArray>
</Cells>
<PointData>
<DataArray Name="disp" type="Float64" NumberOfComponents="3" format="ascii">
0.000000e+00 0.000000e+00 0.000000e+00
0.000000e+00 -1.457015e-03 0.000000e+00
0.000000e+00 -3.459234e-03 0.000000e+00
0.000000e+00 -5.887902e-03 0.000000e+00
0.000000e+00 -8.637113e-03 0.000000e+00
0.000000e+00 -1.163382e-02 0.000000e+00
0.000000e+00 -1.478075e-02 0.000000e+00
0.000000e+00 -1.796062e-02 0.000000e+00
0.000000e+00 -2.099661e-02 0.000000e+00
0.000000e+00 -2.359171e-02 0.000000e+00
0.000000e+00 -2.587500e-02 0.000000e+00
0.000000e+00 0.000000e+00 0.000000e+00
6.123187e-04 -1.356167e-03 0.000000e+00
1.184879e-03 -3.184763e-03 0.000000e+00
1.594953e-03 -5.432631e-03 0.000000e+00
1.845393e-03 -8.012299e-03 0.000000e+00
1.959739e-03 -1.086913e-02 0.000000e+00
1.927882e-03 -1.393834e-02 0.000000e+00
1.699928e-03 -1.713954e-02 0.000000e+00
1.212237e-03 -2.035986e-02 0.000000e+00
3.814711e-04 -2.344630e-02 0.000000e+00
0.000000e+00 -2.587500e-02 0.000000e+00
0.000000e+00 0.000000e+00 0.000000e+00
1.093953e-03 -1.150680e-03 0.000000e+00
2.075237e-03 -2.563395e-03 0.000000e+00
2.841203e-03 -4.221643e-03 0.000000e+00
3.380848e-03 -6.149900e-03 0.000000e+00
3.729968e-03 -8.397960e-03 0.000000e+00
3.879938e-03 -1.100050e-02 0.000000e+00
3.711218e-03 -1.396670e-02 0.000000e+00
3.203302e-03 -1.740460e-02 0.000000e+00
2.200964e-03 -2.140404e-02 0.000000e+00
0.000000e+00 -2.587500e-02 0.000000e+00
0.000000e+00 0.000000e+00 0.000000e+00
1.374314e-03 -9.090520e-04 0.000000e+00
2.503288e-03 -1.886681e-03 0.000000e+00
3.393947e-03 -2.874244e-03 0.000000e+00
4.087940e-03 -3.840504e-03 0.000000e+00
4.621678e-03 -4.752595e-03 0.000000e+00
5.011525e-03 -5.566630e-03 0.000000e+00
5.145388e-03 -6.238564e-03 0.000000e+00
4.952644e-03 -6.725458e-03 0.000000e+00
4.270656e-03 -6.886786e-03 0.000000e+00
1.384052e-03 -6.319417e-03 0.000000e+00
0.000000e+00 0.000000e+00 0.000000e+00
1.467754e-03 -6.935194e-04 0.000000e+00
2.569839e-03 -1.366954e-03 0.000000e+00
3.407301e-03 -1.991399e-03 0.000000e+00
4.037303e-03 -2.553400e-03 0.000000e+00
4.485580e-03 -3.034187e-03 0.000000e+00
4.741307e-03 -3.399566e-03 0.000000e+00
4.732547e-03 -3.615873e-03 0.000000e+00
4.375881e-03 -3.650906e-03 0.000000e+00
3.315388e-03 -3.466006e-03 0.000000e+00
1.409634e-03 -3.503448e-03 0.000000e+00
0.000000e+00 0.000000e+00 0.000000e+00
1.434069e-03 -5.013534e-04 0.000000e+00
2.449326e-03 -9.433779e-04 0.000000e+00
3.202151e-03 -1.321810e-03 0.000000e+00
3.750627e-03 -1.632215e-03 0.000000e+00
4.107825e-03 -1.859918e-03 0.000000e+00
4.255218e-03 -1.986296e-03 0.000000e+00
4.146732e-03 -1.998519e-03 0.000000e+00
3.694924e-03 -1.894337e-03 0.000000e+00
2.818920e-03 -1.768405e-03 0.000000e+00
1.644896e-03 -1.727720e-03 0.000000e+00
0.000000e+00 0.000000e+00 0.000000e+00
1.316182e-03 -3.510237e-04 0.000000e+00
2.224471e-03 -6.260682e-04 0.000000e+00
2.893763e-03 -8.378103e-04 0.000000e+00
3.363694e-03 -9.847517e-04 0.000000e+00
3.644222e-03 -1.060230e-03 0.000000e+00
3.724048e-03 -1.057316e-03 0.000000e+00
3.572716e-03 -9.797115e-04 0.000000e+00
3.163102e-03 -8.540717e-04 0.000000e+00
2.512478e-03 -7.394651e-04 0.000000e+00
1.768825e-03 -7.137709e-04 0.000000e+00
0.000000e+00 0.000000e+00 0.000000e+00
1.149295e-03 -2.368371e-04 0.000000e+00
1.952724e-03 -3.972383e-04 0.000000e+00
2.537604e-03 -4.981439e-04 0.000000e+00
2.940114e-03 -5.422674e-04 0.000000e+00
3.164886e-03 -5.284620e-04 0.000000e+00
3.208819e-03 -4.584827e-04 0.000000e+00
3.062276e-03 -3.432021e-04 0.000000e+00
2.736287e-03 -2.125614e-04 0.000000e+00
2.279582e-03 -1.128401e-04 0.000000e+00
1.807101e-03 -7.646021e-05 0.000000e+00
0.000000e+00 0.000000e+00 0.000000e+00
9.679965e-04 -1.586937e-04 0.000000e+00
1.664049e-03 -2.439366e-04 0.000000e+00
2.172873e-03 -2.749123e-04 0.000000e+00
2.515485e-03 -2.558773e-04 0.000000e+00
2.699929e-03 -1.890413e-04 0.000000e+00
2.729966e-03 -8.244216e-05 0.000000e+00
2.613577e-03 4.675884e-05 0.000000e+00
2.374766e-03 1.723064e-04 0.000000e+00
2.065614e-03 2.672759e-04 0.000000e+00
1.773184e-03 3.137526e-04 0.000000e+00
0.000000e+00 0.000000e+00 0.000000e+00
7.918153e-04 -1.074405e-04 0.000000e+00
1.383350e-03 -1.464039e-04 0.000000e+00
1.818251e-03 -1.344417e-04 0.000000e+00
2.108078e-03 -7.714563e-05 0.000000e+00
2.263946e-03 1.823585e-05 0.000000e+00
2.294268e-03 1.393866e-04 0.000000e+00
2.213704e-03 2.703573e-04 0.000000e+00
2.049576e-03 3.915558e-04 0.000000e+00
1.849235e-03 4.853961e-04 0.000000e+00
1.678099e-03 5.432891e-04 0.000000e+00
0.000000e+00 0.000000e+00 0.000000e+00
6.311708e-04 -7.615494e-05 0.000000e+00
1.122923e-03 -8.804329e-05 0.000000e+00
1.485477e-03 -5.128947e-05 0.000000e+00
1.729530e-03 2.550209e-05 0.000000e+00
1.863496e-03 1.327057e-04 0.000000e+00
1.898277e-03 2.579170e-04 0.000000e+00
1.849077e-03 3.866345e-04 0.000000e+00
1.743902e-03 5.040222e-04 0.000000e+00
1.621309e-03 5.990374e-04 0.000000e+00
1.531207e-03 6.679073e-04 0.000000e+00
0.000000e+00 0.000000e+00 0.000000e+00
4.912570e-04 -5.639653e-05 0.000000e+00
8.858999e-04 -5.459489e-05 0.000000e+00
1.181859e-03 -6.681706e-06 0.000000e+00
1.383078e-03 7.786226e-05 0.000000e+00
1.497463e-03 1.879924e-04 0.000000e+00
1.534858e-03 3.118106e-04 0.000000e+00
1.510200e-03 4.365141e-04 0.000000e+00
1.448244e-03 5.508280e-04 0.000000e+00
1.378890e-03 6.476691e-04 0.000000e+00
1.340336e-03 7.261816e-04 0.000000e+00
0.000000e+00 0.000000e+00 0.000000e+00
3.700199e-04 -4.634623e-05 0.000000e+00
6.751895e-04 -3.801508e-05 0.000000e+00
9.073946e-04 1.472612e-05 0.000000e+00
1.067356e-03 1.005753e-04 0.000000e+00
1.161554e-03 2.091572e-04 0.000000e+00
1.197786e-03 3.290604e-04 0.000000e+00
1.189963e-03 4.493409e-04 0.000000e+00
1.157086e-03 5.612820e-04 0.000000e+00
1.122272e-03 6.602528e-04 0.000000e+00
1.113195e-03 7.468772e-04 0.000000e+00
0.000000e+00 0.000000e+00 0.000000e+00
2.646979e-04 -3.918145e-05 0.000000e+00
4.869586e-04 -2.805161e-05 0.000000e+00
6.582204e-04 2.484623e-05 0.000000e+00
7.778266e-04 1.092776e-04 0.000000e+00
8.501671e-04 2.146225e-04 0.000000e+00
8.814448e-04 3.300435e-04 0.000000e+00
8.826790e-04 4.463986e-04 0.000000e+00
8.676054e-04 5.565566e-04 0.000000e+00
8.532109e-04 6.572440e-04 0.000000e+00
8.584311e-04 7.503355e-04 0.000000e+00
0.000000e+00 0.000000e+00 0.000000e+00
1.714728e-04 -3.476577e-05 0.000000e+00
3.164789e-04 -2.173643e-05 0.000000e+00
4.286129e-04 3.173214e-05 0.000000e+00
5.079522e-04 1.145530e-04 0.000000e+00
5.571733e-04 2.171573e-04 0.000000e+00
5.799200e-04 3.291272e-04 0.000000e+00
5.839390e-04 4.424644e-04 0.000000e+00
5.785386e-04 5.511954e-04 0.000000e+00
5.743363e-04 6.532070e-04 0.000000e+00
5.830626e-04 7.510784e-04 0.000000e+00
0.000000e+00 0.000000e+00 0.000000e+00
8.608835e-05 -2.903650e-05 0.000000e+00
1.561338e-04 -1.202087e-05 0.000000e+00
2.115894e-04 4.273271e-05 0.000000e+00
2.508616e-04 1.247110e-04 0.000000e+00
2.757045e-04 2.253941e-04 0.000000e+00
2.876793e-04 3.352959e-04 0.000000e+00
2.906233e-04 4.465849e-04 0.000000e+00
2.893526e-04 5.544465e-04 0.000000e+00
2.888418e-04 6.573479e-04 0.000000e+00
2.946553e-04 7.579502e-04 0.000000e+00
0.000000e+00 0.000000e+00 0.000000e+00
0.000000e+00 -1.386249e-05 0.000000e+00
0.000000e+00 7.569688e-06 0.000000e+00
0.000000e+00 6.295880e-05 0.000000e+00
0.000000e+00 1.447111e-04 0.000000e+00
0.000000e+00 2.447264e-04 0.000000e+00
0.000000e+00 3.537041e-04 0.000000e+00
0.000000e+00 4.641378e-04 0.000000e+00
0.000000e+00 5.715837e-04 0.000000e+00
0.000000e+00 6.747218e-04 0.000000e+00
0.000000e+00 7.762439e-04 0.000000e+00
</DataArray>
<DataArray Name="shear" type="Float64" NumberOfComponents="1" format="ascii">
8.133451e-03
1.124136e-02
1.610179e-02
1.984451e-02
2.248285e-02
2.410116e-02
2.452614e-02
2.335443e-02
1.992356e-02
1.483159e-02
1.229670e-02
8.173786e-03
1.085996e-02
1.515307e-02
1.876310e-02
2.169038e-02
2.394019e-02
2.524697e-02
2.522392e-02
2.349102e-02
1.933897e-02
1.551620e-02
8.465433e-03
1.011082e-02
1.279171e-02
1.563053e-02
1.895268e-02
2.283665e-02
2.702390e-02
3.142427e-02
3.588226e-02
3.812097e-02
3.808100e-02
8.578389e-03
9.114655e-03
9.868163e-03
1.102743e-02
1.294012e-02
1.576077e-02
1.936549e-02
2.377093e-02
2.896185e-02
3.192127e-02
3.376571e-02
8.338353e-03
8.122885e-03
7.649060e-03
7.605487e-03
7.869964e-03
8.282720e-03
8.599891e-03
8.642634e-03
7.875961e-03
4.829042e-03
1.365667e-03
7.757273e-03
7.173043e-03
6.222915e-03
5.864474e-03
5.761513e-03
5.734405e-03
5.618883e-03
5.228831e-03
4.211567e-03
2.091760e-03
1.883014e-04
6.926061e-03
6.224321e-03
5.166356e-03
4.713546e-03
4.468468e-03
4.289175e-03
4.054796e-03
3.631955e-03
2.825007e-03
1.458335e-03
3.573016e-04
5.959706e-03
5.315335e-03
4.357321e-03
3.911328e-03
3.648483e-03
3.456451e-03
3.243116e-03
2.897138e-03
2.284833e-03
1.302996e-03
5.340148e-04
4.974104e-03
4.452994e-03
3.690575e-03
3.315502e-03
3.107148e-03
2.969343e-03
2.807722e-03
2.526409e-03
2.045443e-03
1.311755e-03
7.583834e-04
4.046644e-03
3.662927e-03
3.115301e-03
2.849984e-03
2.724923e-03
2.646224e-03
2.528827e-03
2.308130e-03
1.931269e-03
1.378517e-03
9.840142e-04
3.216500e-03
2.955209e-03
2.603514e-03
2.456637e-03
2.417720e-03
2.397315e-03
2.327450e-03
2.162149e-03
1.871925e-03
1.466452e-03
1.195210e-03
2.496486e-03
2.325586e-03
2.141429e-03
2.114716e-03
2.160145e-03
2.196309e-03
2.170706e-03
2.053510e-03
1.839448e-03
1.556646e-03
1.381436e-03
1.877679e-03
1.775596e-03
1.735477e-03
1.824491e-03
1.946864e-03
2.032402e-03
2.044209e-03
1.970360e-03
1.822725e-03
1.638838e-03
1.535617e-03
1.343338e-03
1.297894e-03
1.390159e-03
1.589271e-03
1.779611e-03
1.904499e-03
1.946179e-03
1.909215e-03
1.815080e-03
1.707123e-03
1.655970e-03
8.724562e-04
8.823185e-04
1.118988e-03
1.419083e-03
1.661901e-03
1.815413e-03
1.878159e-03
1.867683e-03
1.812814e-03
1.758396e-03
1.742259e-03
4.454946e-04
5.546369e-04
9.496211e-04
1.318520e-03
1.591821e-03
1.763015e-03
1.838598e-03
1.844071e-03
1.813983e-03
1.790465e-03
1.793180e-03
1.692070e-04
4.187805e-04
8.914146e-04
1.282361e-03
1.566351e-03
1.744095e-03
1.824960e-03
1.836673e-03
1.815392e-03
1.801648e-03
1.809944e-03
</DataArray>
<DataArray Name="stress" type="Float64" NumberOfComponents="9" format="ascii">
-8.541030e+04 2.765405e+03 0.000000e+00 2.765405e+03 -1.312923e+05 0.000000e+00 0.000000e+00 0.000000e+00 0.000000e+00
-7.939747e+04 2.921793e+03 0.000000e+00 2.921793e+03 -1.315133e+05 0.000000e+00 0.000000e+00 0.000000e+00 0.000000e+00
-7.694766e+04 3.305011e+03 0.000000e+00 3.305011e+03 -1.379981e+05 0.000000e+00 0.000000e+00 0.000000e+00 0.000000e+00
-7.622902e+04 3.901559e+03 0.000000e+00 3.901559e+03 -1.453913e+05 0.000000e+00 0.000000e+00 0.000000e+00 0.000000e+00
-7.778656e+04 4.367231e+03 0.000000e+00 4.367231e+03 -1.532103e+05 0.000000e+00 0.000000e+00 0.000000e+00 0.000000e+00
-8.092635e+04 4.656438e+03 0.000000e+00 4.656438e+03 -1.612320e+05 0.000000e+00 0.000000e+00 0.000000e+00 0.000000e+00
-8.485763e+04 4.669195e+03 0.000000e+00 4.669195e+03 -1.690497e+05 0.000000e+00 0.000000e+00 0.000000e+00 0.000000e+00
-8.987573e+04 4.151395e+03 0.000000e+00 4.151395e+03 -1.759847e+05 0.000000e+00 0.000000e+00 0.000000e+00 0.000000e+00
-9.708577e+04 2.180725e+03 0.000000e+00 2.180725e+03 -1.799364e+05 0.000000e+00 0.000000e+00 0.000000e+00 0.000000e+00
-1.073246e+05 -5.771182e+02 0.000000e+00 -5.771182e+02 -1.814656e+05 0.000000e+00 0.000000e+00 0.000000e+00 0.000000e+00
-1.127620e+05 -1.366386e+03 0.000000e+00 -1.366386e+03 -1.808691e+05 0.000000e+00 0.000000e+00 0.000000e+00 0.000000e+00
-8.470659e+04 7.924843e+03 0.000000e+00 7.924843e+03 -1.268007e+05 0.000000e+00 0.000000e+00 0.000000e+00 0.000000e+00
-7.914238e+04 7.643205e+03 0.000000e+00 7.643205e+03 -1.269264e+05 0.000000e+00 0.000000e+00 0.000000e+00 0.000000e+00
-7.712341e+04 7.768970e+03 0.000000e+00 7.768970e+03 -1.328868e+05 0.000000e+00 0.000000e+00 0.000000e+00 0.000000e+00
-7.681860e+04 8.384450e+03 0.000000e+00 8.384450e+03 -1.395639e+05 0.000000e+00 0.000000e+00 0.000000e+00 0.000000e+00
-7.844570e+04 8.985906e+03 0.000000e+00 8.985906e+03 -1.467902e+05 0.000000e+00 0.000000e+00 0.000000e+00 0.000000e+00
-8.153998e+04 9.424201e+03 0.000000e+00 9.424201e+03 -1.546222e+05 0.000000e+00 0.000000e+00 0.000000e+00 0.000000e+00
-8.519470e+04 9.429327e+03 0.000000e+00 9.429327e+03 -1.629158e+05 0.000000e+00 0.000000e+00 0.000000e+00 0.000000e+00
-8.972468e+04 8.650898e+03 0.000000e+00 8.650898e+03 -1.717530e+05 0.000000e+00 0.000000e+00 0.000000e+00 0.000000e+00
-9.527355e+04 5.727637e+03 0.000000e+00 5.727637e+03 -1.804580e+05 0.000000e+00 0.000000e+00 0.000000e+00 0.000000e+00
-1.031492e+05 7.272351e+02 0.000000e+00 7.272351e+02 -1.859455e+05 0.000000e+00 0.000000e+00 0.000000e+00 0.000000e+00
-1.161077e+05 -4.019949e+03 0.000000e+00 -4.019949e+03 -1.951510e+05 0.000000e+00 0.000000e+00 0.000000e+00 0.000000e+00
-8.300654e+04 1.348200e+04 0.000000e+00 1.348200e+04 -1.171105e+05 0.000000e+00 0.000000e+00 0.000000e+00 0.000000e+00
-7.866822e+04 1.318060e+04 0.000000e+00 1.318060e+04 -1.166990e+05 0.000000e+00 0.000000e+00 0.000000e+00 0.000000e+00
-7.719327e+04 1.355442e+04 0.000000e+00 1.355442e+04 -1.202424e+05 0.000000e+00 0.000000e+00 0.000000e+00 0.000000e+00
-7.773981e+04 1.490795e+04 0.000000e+00 1.490795e+04 -1.242666e+05 0.000000e+00 0.000000e+00 0.000000e+00 0.000000e+00
-8.011348e+04 1.680156e+04 0.000000e+00 1.680156e+04 -1.292961e+05 0.000000e+00 0.000000e+00 0.000000e+00 0.000000e+00
-8.425881e+04 1.868553e+04 0.000000e+00 1.868553e+04 -1.354410e+05 0.000000e+00 0.000000e+00 0.000000e+00 0.000000e+00
-8.909355e+04 2.030169e+04 0.000000e+00 2.030169e+04 -1.431585e+05 0.000000e+00 0.000000e+00 0.000000e+00 0.000000e+00
-9.508320e+04 2.164326e+04 0.000000e+00 2.164326e+04 -1.529717e+05 0.000000e+00 0.000000e+00 0.000000e+00 0.000000e+00
-1.014854e+05 2.103157e+04 0.000000e+00 2.103157e+04 -1.645023e+05 0.000000e+00 0.000000e+00 0.000000e+00 0.000000e+00
-1.125788e+05 1.806964e+04 0.000000e+00 1.806964e+04 -1.805460e+05 0.000000e+00 0.000000e+00 0.000000e+00 0.000000e+00
-1.335998e+05 1.452910e+04 0.000000e+00 1.452910e+04 -2.023566e+05 0.000000e+00 0.000000e+00 0.000000e+00 0.000000e+00
-8.054500e+04 1.584013e+04 0.000000e+00 1.584013e+04 -1.063454e+05 0.000000e+00 0.000000e+00 0.000000e+00 0.000000e+00
-7.805901e+04 1.551696e+04 0.000000e+00 1.551696e+04 -1.056844e+05 0.000000e+00 0.000000e+00 0.000000e+00 0.000000e+00
-7.751242e+04 1.573871e+04 0.000000e+00 1.573871e+04 -1.065874e+05 0.000000e+00 0.000000e+00 0.000000e+00 0.000000e+00
-7.826127e+04 1.705958e+04 0.000000e+00 1.705958e+04 -1.067043e+05 0.000000e+00 0.000000e+00 0.000000e+00 0.000000e+00
-7.961670e+04 1.884511e+04 0.000000e+00 1.884511e+04 -1.057353e+05 0.000000e+00 0.000000e+00 0.000000e+00 0.000000e+00
-8.147087e+04 2.032822e+04 0.000000e+00 2.032822e+04 -1.036796e+05 0.000000e+00 0.000000e+00 0.000000e+00 0.000000e+00
-8.333496e+04 2.150797e+04 0.000000e+00 2.150797e+04 -1.009388e+05 0.000000e+00 0.000000e+00 0.000000e+00 0.000000e+00
-8.485184e+04 2.210399e+04 0.000000e+00 2.210399e+04 -9.656184e+04 0.000000e+00 0.000000e+00 0.000000e+00 0.000000e+00
-8.559166e+04 2.150275e+04 0.000000e+00 2.150275e+04 -9.037807e+04 0.000000e+00 0.000000e+00 0.000000e+00 0.000000e+00
-8.345674e+04 1.804548e+04 0.000000e+00 1.804548e+04 -7.970533e+04 0.000000e+00 0.000000e+00 0.000000e+00 0.000000e+00
-7.735039e+04 1.506068e+04 0.000000e+00 1.506068e+04 -7.326236e+04 0.000000e+00 0.000000e+00 0.000000e+00 0.000000e+00
-7.774827e+04 1.628900e+04 0.000000e+00 1.628900e+04 -9.651114e+04 0.000000e+00 0.000000e+00 0.000000e+00 0.000000e+00
-7.730791e+04 1.590656e+04 0.000000e+00 1.590656e+04 -9.607701e+04 0.000000e+00 0.000000e+00 0.000000e+00 0.000000e+00
-7.832873e+04 1.560160e+04 0.000000e+00 1.560160e+04 -9.572947e+04 0.000000e+00 0.000000e+00 0.000000e+00 0.000000e+00
-8.024692e+04 1.611036e+04 0.000000e+00 1.611036e+04 -9.468388e+04 0.000000e+00 0.000000e+00 0.000000e+00 0.000000e+00
-8.233795e+04 1.694694e+04 0.000000e+00 1.694694e+04 -9.280482e+04 0.000000e+00 0.000000e+00 0.000000e+00 0.000000e+00
-8.453155e+04 1.769078e+04 0.000000e+00 1.769078e+04 -8.994171e+04 0.000000e+00 0.000000e+00 0.000000e+00 0.000000e+00
-8.679048e+04 1.787604e+04 0.000000e+00 1.787604e+04 -8.612384e+04 0.000000e+00 0.000000e+00 0.000000e+00 0.000000e+00
-8.833861e+04 1.715369e+04 0.000000e+00 1.715369e+04 -8.091989e+04 0.000000e+00 0.000000e+00 0.000000e+00 0.000000e+00
-8.882755e+04 1.453588e+04 0.000000e+00 1.453588e+04 -7.387534e+04 0.000000e+00 0.000000e+00 0.000000e+00 0.000000e+00
-8.370799e+04 7.658632e+03 0.000000e+00 7.658632e+03 -6.730853e+04 0.000000e+00 0.000000e+00 0.000000e+00 0.000000e+00
-6.498124e+04 1.805827e+03 0.000000e+00 1.805827e+03 -5.882966e+04 0.000000e+00 0.000000e+00 0.000000e+00 0.000000e+00
-7.471298e+04 1.563430e+04 0.000000e+00 1.563430e+04 -8.762402e+04 0.000000e+00 0.000000e+00 0.000000e+00 0.000000e+00
-7.607783e+04 1.524784e+04 0.000000e+00 1.524784e+04 -8.740465e+04 0.000000e+00 0.000000e+00 0.000000e+00 0.000000e+00
-7.834229e+04 1.449408e+04 0.000000e+00 1.449408e+04 -8.631274e+04 0.000000e+00 0.000000e+00 0.000000e+00 0.000000e+00
-8.079084e+04 1.429972e+04 0.000000e+00 1.429972e+04 -8.468777e+04 0.000000e+00 0.000000e+00 0.000000e+00 0.000000e+00
-8.295855e+04 1.420343e+04 0.000000e+00 1.420343e+04 -8.241037e+04 0.000000e+00 0.000000e+00 0.000000e+00 0.000000e+00
-8.477082e+04 1.385894e+04 0.000000e+00 1.385894e+04 -7.936688e+04 0.000000e+00 0.000000e+00 0.000000e+00 0.000000e+00
-8.613918e+04 1.289562e+04 0.000000e+00 1.289562e+04 -7.550089e+04 0.000000e+00 0.000000e+00 0.000000e+00 0.000000e+00
-8.647116e+04 1.087044e+04 0.000000e+00 1.087044e+04 -7.079420e+04 0.000000e+00 0.000000e+00 0.000000e+00 0.000000e+00
-8.448786e+04 7.097396e+03 0.000000e+00 7.097396e+03 -6.596559e+04 0.000000e+00 0.000000e+00 0.000000e+00 0.000000e+00
-7.470766e+04 2.008764e+03 0.000000e+00 2.008764e+03 -6.221717e+04 0.000000e+00 0.000000e+00 0.000000e+00 0.000000e+00
-6.006334e+04 -3.901115e+02 0.000000e+00 -3.901115e+02 -5.869845e+04 0.000000e+00 0.000000e+00 0.000000e+00 0.000000e+00
-7.184526e+04 1.446837e+04 0.000000e+00 1.446837e+04 -8.033467e+04 0.000000e+00 0.000000e+00 0.000000e+00 0.000000e+00
-7.462350e+04 1.402211e+04 0.000000e+00 1.402211e+04 -8.029942e+04 0.000000e+00 0.000000e+00 0.000000e+00 0.000000e+00
-7.776339e+04 1.291619e+04 0.000000e+00 1.291619e+04 -7.886423e+04 0.000000e+00 0.000000e+00 0.000000e+00 0.000000e+00
-8.043149e+04 1.213967e+04 0.000000e+00 1.213967e+04 -7.709261e+04 0.000000e+00 0.000000e+00 0.000000e+00 0.000000e+00
-8.244566e+04 1.132749e+04 0.000000e+00 1.132749e+04 -7.485074e+04 0.000000e+00 0.000000e+00 0.000000e+00 0.000000e+00
-8.380520e+04 1.020186e+04 0.000000e+00 1.020186e+04 -7.209102e+04 0.000000e+00 0.000000e+00 0.000000e+00 0.000000e+00
-8.435783e+04 8.532331e+03 0.000000e+00 8.532331e+03 -6.889578e+04 0.000000e+00 0.000000e+00 0.000000e+00 0.000000e+00
-8.346636e+04 6.057329e+03 0.000000e+00 6.057329e+03 -6.554801e+04 0.000000e+00 0.000000e+00 0.000000e+00 0.000000e+00
-7.970411e+04 2.777828e+03 0.000000e+00 2.777828e+03 -6.257297e+04 0.000000e+00 0.000000e+00 0.000000e+00 0.000000e+00
-7.077016e+04 -3.065694e+01 0.000000e+00 -3.065694e+01 -6.065068e+04 0.000000e+00 0.000000e+00 0.000000e+00 0.000000e+00
-6.113553e+04 -1.015134e+03 0.000000e+00 -1.015134e+03 -5.889821e+04 0.000000e+00 0.000000e+00 0.000000e+00 0.000000e+00
-6.928516e+04 1.309015e+04 0.000000e+00 1.309015e+04 -7.474830e+04 0.000000e+00 0.000000e+00 0.000000e+00 0.000000e+00
-7.299455e+04 1.258866e+04 0.000000e+00 1.258866e+04 -7.477221e+04 0.000000e+00 0.000000e+00 0.000000e+00 0.000000e+00
-7.669028e+04 1.121210e+04 0.000000e+00 1.121210e+04 -7.324130e+04 0.000000e+00 0.000000e+00 0.000000e+00 0.000000e+00
-7.939677e+04 1.002568e+04 0.000000e+00 1.002568e+04 -7.154691e+04 0.000000e+00 0.000000e+00 0.000000e+00 0.000000e+00
-8.121458e+04 8.729458e+03 0.000000e+00 8.729458e+03 -6.958105e+04 0.000000e+00 0.000000e+00 0.000000e+00 0.000000e+00
-8.216754e+04 7.194364e+03 0.000000e+00 7.194364e+03 -6.737072e+04 0.000000e+00 0.000000e+00 0.000000e+00 0.000000e+00
-8.207340e+04 5.277452e+03 0.000000e+00 5.277452e+03 -6.502620e+04 0.000000e+00 0.000000e+00 0.000000e+00 0.000000e+00
-8.041091e+04 2.942776e+03 0.000000e+00 2.942776e+03 -6.279679e+04 0.000000e+00 0.000000e+00 0.000000e+00 0.000000e+00
-7.644741e+04 5.553457e+02 0.000000e+00 5.553457e+02 -6.107726e+04 0.000000e+00 0.000000e+00 0.000000e+00 0.000000e+00
-6.937631e+04 -8.184901e+02 0.000000e+00 -8.184901e+02 -6.018463e+04 0.000000e+00 0.000000e+00 0.000000e+00 0.000000e+00
-6.293130e+04 -9.917104e+02 0.000000e+00 -9.917104e+02 -5.927025e+04 0.000000e+00 0.000000e+00 0.000000e+00 0.000000e+00
-6.723598e+04 1.155888e+04 0.000000e+00 1.155888e+04 -7.065636e+04 0.000000e+00 0.000000e+00 0.000000e+00 0.000000e+00
-7.131225e+04 1.104594e+04 0.000000e+00 1.104594e+04 -7.064001e+04 0.000000e+00 0.000000e+00 0.000000e+00 0.000000e+00
-7.528002e+04 9.558131e+03 0.000000e+00 9.558131e+03 -6.914609e+04 0.000000e+00 0.000000e+00 0.000000e+00 0.000000e+00
-7.793490e+04 8.122000e+03 0.000000e+00 8.122000e+03 -6.762121e+04 0.000000e+00 0.000000e+00 0.000000e+00 0.000000e+00
-7.958144e+04 6.613189e+03 0.000000e+00 6.613189e+03 -6.601585e+04 0.000000e+00 0.000000e+00 0.000000e+00 0.000000e+00
-8.021873e+04 4.920292e+03 0.000000e+00 4.920292e+03 -6.432996e+04 0.000000e+00 0.000000e+00 0.000000e+00 0.000000e+00
-7.976070e+04 3.032675e+03 0.000000e+00 3.032675e+03 -6.267935e+04 0.000000e+00 0.000000e+00 0.000000e+00 0.000000e+00
-7.795012e+04 1.086619e+03 0.000000e+00 1.086619e+03 -6.128446e+04 0.000000e+00 0.000000e+00 0.000000e+00 0.000000e+00
-7.447853e+04 -5.180737e+02 0.000000e+00 -5.180737e+02 -6.037414e+04 0.000000e+00 0.000000e+00 0.000000e+00 0.000000e+00
-6.923019e+04 -1.063533e+03 0.000000e+00 -1.063533e+03 -6.000191e+04 0.000000e+00 0.000000e+00 0.000000e+00 0.000000e+00
-6.486776e+04 -9.124314e+02 0.000000e+00 -9.124314e+02 -5.948546e+04 0.000000e+00 0.000000e+00 0.000000e+00 0.000000e+00
-6.571103e+04 9.977133e+03 0.000000e+00 9.977133e+03 -6.772188e+04 0.000000e+00 0.000000e+00 0.000000e+00 0.000000e+00
-6.971219e+04 9.476279e+03 0.000000e+00 9.476279e+03 -6.765409e+04 0.000000e+00 0.000000e+00 0.000000e+00 0.000000e+00
-7.368280e+04 8.016359e+03 0.000000e+00 8.016359e+03 -6.623347e+04 0.000000e+00 0.000000e+00 0.000000e+00 0.000000e+00
-7.629499e+04 6.518426e+03 0.000000e+00 6.518426e+03 -6.491743e+04 0.000000e+00 0.000000e+00 0.000000e+00 0.000000e+00
-7.779030e+04 4.947607e+03 0.000000e+00 4.947607e+03 -6.361174e+04 0.000000e+00 0.000000e+00 0.000000e+00 0.000000e+00
-7.826802e+04 3.272650e+03 0.000000e+00 3.272650e+03 -6.235832e+04 0.000000e+00 0.000000e+00 0.000000e+00 0.000000e+00
-7.773418e+04 1.589330e+03 0.000000e+00 1.589330e+03 -6.126195e+04 0.000000e+00 0.000000e+00 0.000000e+00 0.000000e+00
-7.612352e+04 6.877524e+01 0.000000e+00 6.877524e+01 -6.045622e+04 0.000000e+00 0.000000e+00 0.000000e+00 0.000000e+00
-7.336875e+04 -9.759191e+02 0.000000e+00 -9.759191e+02 -6.002390e+04 0.000000e+00 0.000000e+00 0.000000e+00 0.000000e+00
-6.961804e+04 -1.084312e+03 0.000000e+00 -1.084312e+03 -5.991764e+04 0.000000e+00 0.000000e+00 0.000000e+00 0.000000e+00
-6.668182e+04 -8.033552e+02 0.000000e+00 -8.033552e+02 -5.963327e+04 0.000000e+00 0.000000e+00 0.000000e+00 0.000000e+00
-6.456454e+04 8.423860e+03 0.000000e+00 8.423860e+03 -6.571850e+04 0.000000e+00 0.000000e+00 0.000000e+00 0.000000e+00
-6.825762e+04 7.940548e+03 0.000000e+00 7.940548e+03 -6.557371e+04 0.000000e+00 0.000000e+00 0.000000e+00 0.000000e+00
-7.209098e+04 6.607218e+03 0.000000e+00 6.607218e+03 -6.424441e+04 0.000000e+00 0.000000e+00 0.000000e+00 0.000000e+00
-7.462170e+04 5.163850e+03 0.000000e+00 5.163850e+03 -6.308251e+04 0.000000e+00 0.000000e+00 0.000000e+00 0.000000e+00
-7.602882e+04 3.650710e+03 0.000000e+00 3.650710e+03 -6.202507e+04 0.000000e+00 0.000000e+00 0.000000e+00 0.000000e+00
-7.648395e+04 2.136860e+03 0.000000e+00 2.136860e+03 -6.111640e+04 0.000000e+00 0.000000e+00 0.000000e+00 0.000000e+00
-7.606334e+04 7.205288e+02 0.000000e+00 7.205288e+02 -6.042068e+04 0.000000e+00 0.000000e+00 0.000000e+00 0.000000e+00
-7.480821e+04 -4.332066e+02 0.000000e+00 -4.332066e+02 -5.999622e+04 0.000000e+00 0.000000e+00 0.000000e+00 0.000000e+00
-7.278384e+04 -1.101900e+03 0.000000e+00 -1.101900e+03 -5.983980e+04 0.000000e+00 0.000000e+00 0.000000e+00 0.000000e+00
-7.020873e+04 -9.946345e+02 0.000000e+00 -9.946345e+02 -5.987418e+04 0.000000e+00 0.000000e+00 0.000000e+00 0.000000e+00
-6.830155e+04 -6.773064e+02 0.000000e+00 -6.773064e+02 -5.973159e+04 0.000000e+00 0.000000e+00 0.000000e+00 0.000000e+00
-6.369663e+04 6.843807e+03 0.000000e+00 6.843807e+03 -6.436371e+04 0.000000e+00 0.000000e+00 0.000000e+00 0.000000e+00
-6.701118e+04 6.442749e+03 0.000000e+00 6.442749e+03 -6.415693e+04 0.000000e+00 0.000000e+00 0.000000e+00 0.000000e+00
-7.062523e+04 5.304712e+03 0.000000e+00 5.304712e+03 -6.293116e+04 0.000000e+00 0.000000e+00 0.000000e+00 0.000000e+00
-7.304216e+04 4.001183e+03 0.000000e+00 4.001183e+03 -6.187702e+04 0.000000e+00 0.000000e+00 0.000000e+00 0.000000e+00
-7.443258e+04 2.660102e+03 0.000000e+00 2.660102e+03 -6.101233e+04 0.000000e+00 0.000000e+00 0.000000e+00 0.000000e+00
-7.495503e+04 1.369360e+03 0.000000e+00 1.369360e+03 -6.035491e+04 0.000000e+00 0.000000e+00 0.000000e+00 0.000000e+00
-7.474306e+04 2.324389e+02 0.000000e+00 2.324389e+02 -5.993082e+04 0.000000e+00 0.000000e+00 0.000000e+00 0.000000e+00
-7.388173e+04 -6.255499e+02 0.000000e+00 -6.255499e+02 -5.973596e+04 0.000000e+00 0.000000e+00 0.000000e+00 0.000000e+00
-7.250181e+04 -1.046811e+03 0.000000e+00 -1.046811e+03 -5.974314e+04 0.000000e+00 0.000000e+00 0.000000e+00 0.000000e+00
-7.083703e+04 -8.510733e+02 0.000000e+00 -8.510733e+02 -5.985677e+04 0.000000e+00 0.000000e+00 0.000000e+00 0.000000e+00
-6.967659e+04 -5.463908e+02 0.000000e+00 -5.463908e+02 -5.981213e+04 0.000000e+00 0.000000e+00 0.000000e+00 0.000000e+00
-6.308577e+04 5.334847e+03 0.000000e+00 5.334847e+03 -6.348304e+04 0.000000e+00 0.000000e+00 0.000000e+00 0.000000e+00
-6.601762e+04 4.999620e+03 0.000000e+00 4.999620e+03 -6.322516e+04 0.000000e+00 0.000000e+00 0.000000e+00 0.000000e+00
-6.933732e+04 4.069171e+03 0.000000e+00 4.069171e+03 -6.205852e+04 0.000000e+00 0.000000e+00 0.000000e+00 0.000000e+00
-7.166707e+04 2.988353e+03 0.000000e+00 2.988353e+03 -6.110066e+04 0.000000e+00 0.000000e+00 0.000000e+00 0.000000e+00
-7.308084e+04 1.889599e+03 0.000000e+00 1.889599e+03 -6.038045e+04 0.000000e+00 0.000000e+00 0.000000e+00 0.000000e+00
-7.372138e+04 8.600194e+02 0.000000e+00 8.600194e+02 -5.989612e+04 0.000000e+00 0.000000e+00 0.000000e+00 0.000000e+00
-7.373617e+04 -1.281639e+01 0.000000e+00 -1.281639e+01 -5.964909e+04 0.000000e+00 0.000000e+00 0.000000e+00 0.000000e+00
-7.323840e+04 -6.334932e+02 0.000000e+00 -6.334932e+02 -5.959877e+04 0.000000e+00 0.000000e+00 0.000000e+00 0.000000e+00
-7.238806e+04 -8.936371e+02 0.000000e+00 -8.936371e+02 -5.970018e+04 0.000000e+00 0.000000e+00 0.000000e+00 0.000000e+00
-7.141212e+04 -6.827065e+02 0.000000e+00 -6.827065e+02 -5.985243e+04 0.000000e+00 0.000000e+00 0.000000e+00 0.000000e+00
-7.078666e+04 -4.219542e+02 0.000000e+00 -4.219542e+02 -5.987508e+04 0.000000e+00 0.000000e+00 0.000000e+00 0.000000e+00
-6.259723e+04 3.876184e+03 0.000000e+00 3.876184e+03 -6.288677e+04 0.000000e+00 0.000000e+00 0.000000e+00 0.000000e+00
-6.523205e+04 3.615459e+03 0.000000e+00 3.615459e+03 -6.259866e+04 0.000000e+00 0.000000e+00 0.000000e+00 0.000000e+00
-6.831559e+04 2.912863e+03 0.000000e+00 2.912863e+03 -6.150094e+04 0.000000e+00 0.000000e+00 0.000000e+00 0.000000e+00
-7.057466e+04 2.102007e+03 0.000000e+00 2.102007e+03 -6.062261e+04 0.000000e+00 0.000000e+00 0.000000e+00 0.000000e+00
-7.202346e+04 1.273913e+03 0.000000e+00 1.273913e+03 -6.001043e+04 0.000000e+00 0.000000e+00 0.000000e+00 0.000000e+00
-7.278416e+04 5.198344e+02 0.000000e+00 5.198344e+02 -5.964020e+04 0.000000e+00 0.000000e+00 0.000000e+00 0.000000e+00
-7.300090e+04 -1.079679e+02 0.000000e+00 -1.079679e+02 -5.949843e+04 0.000000e+00 0.000000e+00 0.000000e+00 0.000000e+00
-7.280316e+04 -5.357156e+02 0.000000e+00 -5.357156e+02 -5.953674e+04 0.000000e+00 0.000000e+00 0.000000e+00 0.000000e+00
-7.236174e+04 -6.901759e+02 0.000000e+00 -6.901759e+02 -5.968879e+04 0.000000e+00 0.000000e+00 0.000000e+00 0.000000e+00
-7.188269e+04 -5.067600e+02 0.000000e+00 -5.067600e+02 -5.985858e+04 0.000000e+00 0.000000e+00 0.000000e+00 0.000000e+00
-7.163145e+04 -3.054872e+02 0.000000e+00 -3.054872e+02 -5.992184e+04 0.000000e+00 0.000000e+00 0.000000e+00 0.000000e+00
-6.226814e+04 2.448325e+03 0.000000e+00 2.448325e+03 -6.245246e+04 0.000000e+00 0.000000e+00 0.000000e+00 0.000000e+00
-6.468310e+04 2.279667e+03 0.000000e+00 2.279667e+03 -6.214432e+04 0.000000e+00 0.000000e+00 0.000000e+00 0.000000e+00
-6.759453e+04 1.826854e+03 0.000000e+00 1.826854e+03 -6.111468e+04 0.000000e+00 0.000000e+00 0.000000e+00 0.000000e+00
-6.980377e+04 1.314015e+03 0.000000e+00 1.314015e+03 -6.031031e+04 0.000000e+00 0.000000e+00 0.000000e+00 0.000000e+00
-7.127995e+04 7.766597e+02 0.000000e+00 7.766597e+02 -5.979048e+04 0.000000e+00 0.000000e+00 0.000000e+00 0.000000e+00
-7.213038e+04 2.881237e+02 0.000000e+00 2.881237e+02 -5.950589e+04 0.000000e+00 0.000000e+00 0.000000e+00 0.000000e+00
-7.250220e+04 -1.140727e+02 0.000000e+00 -1.140727e+02 -5.942876e+04 0.000000e+00 0.000000e+00 0.000000e+00 0.000000e+00
-7.252718e+04 -3.797257e+02 0.000000e+00 -3.797257e+02 -5.951522e+04 0.000000e+00 0.000000e+00 0.000000e+00 0.000000e+00
-7.237273e+04 -4.642453e+02 0.000000e+00 -4.642453e+02 -5.969055e+04 0.000000e+00 0.000000e+00 0.000000e+00 0.000000e+00
-7.222520e+04 -3.338090e+02 0.000000e+00 -3.338090e+02 -5.986595e+04 0.000000e+00 0.000000e+00 0.000000e+00 0.000000e+00
-7.221870e+04 -1.983080e+02 0.000000e+00 -1.983080e+02 -5.995097e+04 0.000000e+00 0.000000e+00 0.000000e+00 0.000000e+00
-6.203437e+04 1.062703e+03 0.000000e+00 1.062703e+03 -6.201008e+04 0.000000e+00 0.000000e+00 0.000000e+00 0.000000e+00
-6.438758e+04 1.032984e+03 0.000000e+00 1.032984e+03 -6.173933e+04 0.000000e+00 0.000000e+00 0.000000e+00 0.000000e+00
-6.719328e+04 8.459252e+02 0.000000e+00 8.459252e+02 -6.081836e+04 0.000000e+00 0.000000e+00 0.000000e+00 0.000000e+00
-6.935970e+04 6.209661e+02 0.000000e+00 6.209661e+02 -6.012090e+04 0.000000e+00 0.000000e+00 0.000000e+00 0.000000e+00
-7.084395e+04 3.649740e+02 0.000000e+00 3.649740e+02 -5.967123e+04 0.000000e+00 0.000000e+00 0.000000e+00 0.000000e+00
-7.174857e+04 1.257192e+02 0.000000e+00 1.257192e+02 -5.944406e+04 0.000000e+00 0.000000e+00 0.000000e+00 0.000000e+00
-7.221555e+04 -6.805113e+01 0.000000e+00 -6.805113e+01 -5.940116e+04 0.000000e+00 0.000000e+00 0.000000e+00 0.000000e+00
-7.237612e+04 -1.954303e+02 0.000000e+00 -1.954303e+02 -5.951155e+04 0.000000e+00 0.000000e+00 0.000000e+00 0.000000e+00
-7.238977e+04 -2.319277e+02 0.000000e+00 -2.319277e+02 -5.969602e+04 0.000000e+00 0.000000e+00 0.000000e+00 0.000000e+00
-7.243183e+04 -1.649463e+02 0.000000e+00 -1.649463e+02 -5.987056e+04 0.000000e+00 0.000000e+00 0.000000e+00 0.000000e+00
-7.256023e+04 -9.680105e+01 0.000000e+00 -9.680105e+01 -5.996846e+04 0.000000e+00 0.000000e+00 0.000000e+00 0.000000e+00
-6.185316e+04 1.227325e+02 0.000000e+00 1.227325e+02 -6.152898e+04 0.000000e+00 0.000000e+00 0.000000e+00 0.000000e+00
-6.426228e+04 2.150847e+02 0.000000e+00 2.150847e+02 -6.140666e+04 0.000000e+00 0.000000e+00 0.000000e+00 0.000000e+00
-6.706624e+04 2.201609e+02 0.000000e+00 2.201609e+02 -6.067091e+04 0.000000e+00 0.000000e+00 0.000000e+00 0.000000e+00
-6.921960e+04 1.703186e+02 0.000000e+00 1.703186e+02 -6.005468e+04 0.000000e+00 0.000000e+00 0.000000e+00 0.000000e+00
-7.069967e+04 9.091145e+01 0.000000e+00 9.091145e+01 -5.963407e+04 0.000000e+00 0.000000e+00 0.000000e+00 0.000000e+00
-7.162236e+04 7.296290e+00 0.000000e+00 7.296290e+00 -5.942743e+04 0.000000e+00 0.000000e+00 0.000000e+00 0.000000e+00
-7.212247e+04 -5.729408e+01 0.000000e+00 -5.729408e+01 -5.939766e+04 0.000000e+00 0.000000e+00 0.000000e+00 0.000000e+00
-7.232832e+04 -1.027860e+02 0.000000e+00 -1.027860e+02 -5.951575e+04 0.000000e+00 0.000000e+00 0.000000e+00 0.000000e+00
-7.239748e+04 -1.152979e+02 0.000000e+00 -1.152979e+02 -5.970168e+04 0.000000e+00 0.000000e+00 0.000000e+00 0.000000e+00
-7.250022e+04 -9.091396e+01 0.000000e+00 -9.091396e+01 -5.987453e+04 0.000000e+00 0.000000e+00 0.000000e+00 0.000000e+00
-7.266934e+04 -6.487001e+01 0.000000e+00 -6.487001e+01 -5.997510e+04 0.000000e+00 0.000000e+00 0.000000e+00 0.000000e+00
</DataArray>
<DataArray Name="vol_eps" type="Float64" NumberOfComponents="1" format="ascii">
-6.234475e-03
-5.766125e-03
-5.706026e-03
-5.783780e-03
-6.134012e-03
-6.722603e-03
-7.499840e-03
-8.491206e-03
-9.621022e-03
-1.077791e-02
-1.115904e-02
-5.905636e-03
-5.463144e-03
-5.450785e-03
-5.559223e-03
-5.869307e-03
-6.378606e-03
-7.048188e-03
-7.979827e-03
-9.144325e-03
-1.040418e-02
-1.217760e-02
-5.176294e-03
-4.794815e-03
-4.778519e-03
-4.882282e-03
-5.115147e-03
-5.453419e-03
-5.784140e-03
-6.286888e-03
-7.075465e-03
-8.425277e-03
-1.115452e-02
-4.302263e-03
-4.062794e-03
-4.040823e-03
-4.012883e-03
-3.880886e-03
-3.608710e-03
-3.136791e-03
-2.442040e-03
-1.525589e-03
1.437196e-04
1.625036e-03
-3.450672e-03
-3.400169e-03
-3.467613e-03
-3.524281e-03
-3.522501e-03
-3.457512e-03
-3.334758e-03
-3.083961e-03
-2.665607e-03
-1.959456e-03
-2.049466e-04
-2.658683e-03
-2.762319e-03
-2.878297e-03
-2.940143e-03
-2.933359e-03
-2.853148e-03
-2.691239e-03
-2.406694e-03
-1.961437e-03
-1.077780e-03
1.006842e-04
-1.998914e-03
-2.212238e-03
-2.355173e-03
-2.420276e-03
-2.409722e-03
-2.322938e-03
-2.149512e-03
-1.867604e-03
-1.421878e-03
-7.218111e-04
4.601845e-06
-1.473621e-03
-1.750609e-03
-1.916682e-03
-1.990048e-03
-1.984864e-03
-1.902948e-03
-1.738975e-03
-1.480072e-03
-1.109880e-03
-6.034111e-04
-1.377469e-04
-1.081446e-03
-1.375107e-03
-1.558532e-03
-1.639051e-03
-1.641570e-03
-1.570001e-03
-1.429418e-03
-1.218741e-03
-9.373024e-04
-5.824521e-04
-2.745115e-04
-8.037314e-04
-1.082643e-03
-1.265586e-03
-1.354066e-03
-1.364008e-03
-1.310364e-03
-1.202501e-03
-1.046387e-03
-8.439207e-04
-6.012224e-04
-3.980734e-04
-6.132129e-04
-8.605172e-04
-1.034055e-03
-1.123649e-03
-1.143892e-03
-1.111924e-03
-1.039188e-03
-9.325555e-04
-7.948073e-04
-6.355925e-04
-5.057599e-04
-4.836182e-04
-6.965349e-04
-8.561208e-04
-9.426725e-04
-9.741985e-04
-9.640155e-04
-9.231037e-04
-8.567320e-04
-7.708906e-04
-6.742383e-04
-5.981441e-04
-4.020119e-04
-5.813788e-04
-7.201488e-04
-8.050458e-04
-8.471131e-04
-8.560047e-04
-8.409135e-04
-8.067897e-04
-7.608843e-04
-7.099396e-04
-6.722338e-04
-3.453041e-04
-4.987761e-04
-6.227635e-04
-7.065466e-04
-7.561993e-04
-7.798548e-04
-7.844598e-04
-7.751355e-04
-7.583234e-04
-7.396205e-04
-7.279831e-04
-3.050604e-04
-4.401555e-04
-5.545581e-04
-6.385691e-04
-6.954050e-04
-7.296979e-04
-7.484248e-04
-7.563631e-04
-7.589888e-04
-7.612754e-04
-7.664837e-04
-2.643433e-04
-3.972710e-04
-5.120449e-04
-5.990064e-04
-6.609033e-04
-7.017563e-04
-7.287581e-04
-7.465347e-04
-7.601812e-04
-7.742624e-04
-7.886385e-04
-2.221449e-04
-3.682073e-04
-4.955291e-04
-5.863747e-04
-6.497762e-04
-6.928532e-04
-7.227927e-04
-7.437139e-04
-7.608861e-04
-7.786534e-04
-7.958159e-04
</DataArray>
</PointData>
</Piece>
</UnstructuredGrid>
</VTKFile>
