<?xml version="1.0"?>
<VTKFile type="UnstructuredGrid" version="0.1">
<UnstructuredGrid>
<FieldData>
<DataArray Name="TIME" type="Float64" format="ascii" NumberOfTuples="1">
0.000000e+00
</DataArray>
</FieldData>
<FieldData>
<DataArray Name="CYCLE" type="Int32" format="ascii" NumberOfTuples="1">
0
</DataArray>
</FieldData>
<Piece NumberOfPoints="187" NumberOfCells="160">
<Points>
<DataArray NumberOfComponents="3" type="Float64" format="ascii">
0.000000e+00 0.000000e+00 0.000000e+00
0.000000e+00 1.973897e-01 0.000000e+00
0.000000e+00 3.939004e-01 0.000000e+00
0.000000e+00 5.894520e-01 0.000000e+00
0.000000e+00 7.837609e-01 0.000000e+00
0.000000e+00 9.768593e-01 0.000000e+00
0.000000e+00 1.169596e+00 0.000000e+00
0.000000e+00 1.362713e+00 0.000000e+00
0.000000e+00 1.557573e+00 0.000000e+00
0.000000e+00 1.753944e+00 0.000000e+00
0.000000e+00 1.950500e+00 0.000000e+00
2.250000e-01 0.000000e+00 0.000000e+00
2.262233e-01 1.975068e-01 0.000000e+00
2.274866e-01 3.941229e-01 0.000000e+00
2.289083e-01 5.898960e-01 0.000000e+00
2.304168e-01 7.848439e-01 0.000000e+00
2.312511e-01 9.788707e-01 0.000000e+00
2.311235e-01 1.172370e+00 0.000000e+00
2.297369e-01 1.365790e+00 0.000000e+00
2.273719e-01 1.559641e+00 0.000000e+00
2.254187e-01 1.754172e+00 0.000000e+00
2.250000e-01 1.950500e+00 0.000000e+00
4.500000e-01 0.000000e+00 0.000000e+00
4.524504e-01 1.979345e-01 0.000000e+00
4.547643e-01 3.951787e-01 0.000000e+00
4.569616e-01 5.918694e-01 0.000000e+00
4.588778e-01 7.881765e-01 0.000000e+00
4.602745e-01 9.841392e-01 0.000000e+00
4.605447e-01 1.179567e+00 0.000000e+00
4.598504e-01 1.374031e+00 0.000000e+00
4.580913e-01 1.567047e+00 0.000000e+00
4.553436e-01 1.758810e+00 0.000000e+00
4.500000e-01 1.950500e+00 0.000000e+00
6.750000e-01 0.000000e+00 0.000000e+00
6.782797e-01 1.987191e-01 0.000000e+00
6.811061e-01 3.972634e-01 0.000000e+00
6.835372e-01 5.958365e-01 0.000000e+00
6.855691e-01 7.945562e-01 0.000000e+00
6.870623e-01 9.934471e-01 0.000000e+00
6.877463e-01 1.192553e+00 0.000000e+00
6.877963e-01 1.391973e+00 0.000000e+00
6.870695e-01 1.591802e+00 0.000000e+00
6.849346e-01 1.792040e+00 0.000000e+00
6.799684e-01 1.992519e+00 0.000000e+00
9.000000e-01 0.000000e+00 0.000000e+00
9.035412e-01 1.990082e-01 0.000000e+00
9.062333e-01 3.980739e-01 0.000000e+00
9.083982e-01 5.973045e-01 0.000000e+00
9.101138e-01 7.967294e-01 0.000000e+00
9.113033e-01 9.963837e-01 0.000000e+00
9.117926e-01 1.196254e+00 0.000000e+00
9.116215e-01 1.396346e+00 0.000000e+00
9.106615e-01 1.596695e+00 0.000000e+00
9.084889e-01 1.797170e+00 0.000000e+00
9.052578e-01 1.997184e+00 0.000000e+00
1.125000e+00 0.000000e+00 0.000000e+00
1.128536e+00 1.993698e-01 0.000000e+00
1.130946e+00 3.988471e-01 0.000000e+00
1.132817e+00 5.984942e-01 0.000000e+00
1.134246e+00 7.983260e-01 0.000000e+00
1.135181e+00 9.983482e-01 0.000000e+00
1.135518e+00 1.198557e+00 0.000000e+00
1.135240e+00 1.398943e+00 0.000000e+00
1.134264e+00 1.599442e+00 0.000000e+00
1.132599e+00 1.799839e+00 0.000000e+00
1.130645e+00 1.999928e+00 0.000000e+00
1.350000e+00 0.000000e+00 0.000000e+00
1.353285e+00 1.996264e-01 0.000000e+00
1.355406e+00 3.993808e-01 0.000000e+00
1.357008e+00 5.992880e-01 0.000000e+00
1.358200e+00 7.993702e-01 0.000000e+00
1.358954e+00 9.996210e-01 0.000000e+00
1.359189e+00 1.200020e+00 0.000000e+00
1.358887e+00 1.400515e+00 0.000000e+00
1.358092e+00 1.601017e+00 0.000000e+00
1.356948e+00 1.801369e+00 0.000000e+00
1.355781e+00 2.001469e+00 0.000000e+00
1.575000e+00 0.000000e+00 0.000000e+00
1.577895e+00 1.997901e-01 0.000000e+00
1.579730e+00 3.997252e-01 0.000000e+00
1.581102e+00 5.998160e-01 0.000000e+00
1.582111e+00 8.000459e-01 0.000000e+00
1.582720e+00 1.000413e+00 0.000000e+00
1.582893e+00 1.200890e+00 0.000000e+00
1.582656e+00 1.401409e+00 0.000000e+00
1.582100e+00 1.601879e+00 0.000000e+00
1.581377e+00 1.802200e+00 0.000000e+00
1.580717e+00 2.002333e+00 0.000000e+00
1.800000e+00 0.000000e+00 0.000000e+00
1.802441e+00 1.998932e-01 0.000000e+00
1.804004e+00 3.999476e-01 0.000000e+00
1.805184e+00 6.001327e-01 0.000000e+00
1.806036e+00 8.004377e-01 0.000000e+00
1.806534e+00 1.000856e+00 0.000000e+00
1.806688e+00 1.201346e+00 0.000000e+00
1.806555e+00 1.401844e+00 0.000000e+00
1.806218e+00 1.602279e+00 0.000000e+00
1.805808e+00 1.802589e+00 0.000000e+00
1.805485e+00 2.002759e+00 0.000000e+00
2.025000e+00 0.000000e+00 0.000000e+00
2.026967e+00 1.999489e-01 0.000000e+00
2.028287e+00 4.000625e-01 0.000000e+00
2.029296e+00 6.002893e-01 0.000000e+00
2.030011e+00 8.006233e-01 0.000000e+00
2.030432e+00 1.001046e+00 0.000000e+00
2.030597e+00 1.201514e+00 0.000000e+00
2.030561e+00 1.401979e+00 0.000000e+00
2.030398e+00 1.602384e+00 0.000000e+00
2.030210e+00 1.802692e+00 0.000000e+00
2.030109e+00 2.002902e+00 0.000000e+00
2.250000e+00 0.000000e+00 0.000000e+00
2.251524e+00 1.999707e-01 0.000000e+00
2.252618e+00 4.000988e-01 0.000000e+00
2.253465e+00 6.003336e-01 0.000000e+00
2.254062e+00 8.006645e-01 0.000000e+00
2.254431e+00 1.001066e+00 0.000000e+00
2.254611e+00 1.201501e+00 0.000000e+00
2.254649e+00 1.401928e+00 0.000000e+00
2.254610e+00 1.602309e+00 0.000000e+00
2.254568e+00 1.802622e+00 0.000000e+00
2.254604e+00 2.002871e+00 0.000000e+00
2.475000e+00 0.000000e+00 0.000000e+00
2.476138e+00 1.999776e-01 0.000000e+00
2.477020e+00 4.000926e-01 0.000000e+00
2.477710e+00 6.003113e-01 0.000000e+00
2.478204e+00 8.006180e-01 0.000000e+00
2.478528e+00 1.000986e+00 0.000000e+00
2.478712e+00 1.201383e+00 0.000000e+00
2.478799e+00 1.401776e+00 0.000000e+00
2.478838e+00 1.602139e+00 0.000000e+00
2.478883e+00 1.802460e+00 0.000000e+00
2.478991e+00 2.002743e+00 0.000000e+00
2.700000e+00 0.000000e+00 0.000000e+00
2.700823e+00 1.999696e-01 0.000000e+00
2.701501e+00 4.000601e-01 0.000000e+00
2.702041e+00 6.002545e-01 0.000000e+00
2.702440e+00 8.005297e-01 0.000000e+00
2.702714e+00 1.000860e+00 0.000000e+00
2.702888e+00 1.201221e+00 0.000000e+00
2.702995e+00 1.401585e+00 0.000000e+00
2.703072e+00 1.601936e+00 0.000000e+00
2.703158e+00 1.802266e+00 0.000000e+00
2.703290e+00 2.002579e+00 0.000000e+00
2.925000e+00 0.000000e+00 0.000000e+00
2.925569e+00 1.999577e-01 0.000000e+00
2.926054e+00 4.000230e-01 0.000000e+00
2.926452e+00 6.001871e-01 0.000000e+00
2.926757e+00 8.004317e-01 0.000000e+00
2.926974e+00 1.000731e+00 0.000000e+00
2.927120e+00 1.201061e+00 0.000000e+00
2.927222e+00 1.401404e+00 0.000000e+00
2.927306e+00 1.601746e+00 0.000000e+00
2.927398e+00 1.802082e+00 0.000000e+00
2.927523e+00 2.002420e+00 0.000000e+00
3.150000e+00 0.000000e+00 0.000000e+00
3.150357e+00 1.999463e-01 0.000000e+00
3.150669e+00 3.999923e-01 0.000000e+00
3.150929e+00 6.001319e-01 0.000000e+00
3.151135e+00 8.003507e-01 0.000000e+00
3.151287e+00 1.000626e+00 0.000000e+00
3.151392e+00 1.200935e+00 0.000000e+00
3.151470e+00 1.401263e+00 0.000000e+00
3.151538e+00 1.601598e+00 0.000000e+00
3.151613e+00 1.801939e+00 0.000000e+00
3.151707e+00 2.002293e+00 0.000000e+00
3.375000e+00 0.000000e+00 0.000000e+00
3.375174e+00 1.999406e-01 0.000000e+00
3.375325e+00 3.999775e-01 0.000000e+00
3.375453e+00 6.001022e-01 0.000000e+00
3.375557e+00 8.003044e-01 0.000000e+00
3.375635e+00 1.000564e+00 0.000000e+00
3.375690e+00 1.200861e+00 0.000000e+00
3.375732e+00 1.401179e+00 0.000000e+00
3.375769e+00 1.601510e+00 0.000000e+00
3.375811e+00 1.801854e+00 0.000000e+00
3.375860e+00 2.002218e+00 0.000000e+00
3.600000e+00 0.000000e+00 0.000000e+00
3.600000e+00 1.999513e-01 0.000000e+00
3.600000e+00 3.999876e-01 0.000000e+00
3.600000e+00 6.001076e-01 0.000000e+00
3.600000e+00 8.003039e-01 0.000000e+00
3.600000e+00 1.000558e+00 0.000000e+00
3.600000e+00 1.200849e+00 0.000000e+00
3.600000e+00 1.401164e+00 0.000000e+00
3.600000e+00 1.601493e+00 0.000000e+00
3.600000e+00 1.801837e+00 0.000000e+00
3.600000e+00 2.002203e+00 0.000000e+00
</DataArray>
</Points>
<Cells>
<DataArray Name="connectivity" type="Int32" format="ascii">
0 11 12 1
1 12 13 2
2 13 14 3
3 14 15 4
4 15 16 5
5 16 17 6
6 17 18 7
7 18 19 8
8 19 20 9
9 20 21 10
11 22 23 12
12 23 24 13
13 24 25 14
14 25 26 15
15 26 27 16
16 27 28 17
17 28 29 18
18 29 30 19
19 30 31 20
20 31 32 21
22 33 34 23
23 34 35 24
24 35 36 25
25 36 37 26
26 37 38 27
27 38 39 28
28 39 40 29
29 40 41 30
30 41 42 31
31 42 43 32
33 44 45 34
34 45 46 35
35 46 47 36
36 47 48 37
37 48 49 38
38 49 50 39
39 50 51 40
40 51 52 41
41 52 53 42
42 53 54 43
44 55 56 45
45 56 57 46
46 57 58 47
47 58 59 48
48 59 60 49
49 60 61 50
50 61 62 51
51 62 63 52
52 63 64 53
53 64 65 54
55 66 67 56
56 67 68 57
57 68 69 58
58 69 70 59
59 70 71 60
60 71 72 61
61 72 73 62
62 73 74 63
63 74 75 64
64 75 76 65
66 77 78 67
67 78 79 68
68 79 80 69
69 80 81 70
70 81 82 71
71 82 83 72
72 83 84 73
73 84 85 74
74 85 86 75
75 86 87 76
77 88 89 78
78 89 90 79
79 90 91 80
80 91 92 81
81 92 93 82
82 93 94 83
83 94 95 84
84 95 96 85
85 96 97 86
86 97 98 87
88 99 100 89
89 100 101 90
90 101 102 91
91 102 103 92
92 103 104 93
93 104 105 94
94 105 106 95
95 106 107 96
96 107 108 97
97 108 109 98
99 110 111 100
100 111 112 101
101 112 113 102
102 113 114 103
103 114 115 104
104 115 116 105
105 116 117 106
106 117 118 107
107 118 119 108
108 119 120 109
110 121 122 111
111 122 123 112
112 123 124 113
113 124 125 114
114 125 126 115
115 126 127 116
116 127 128 117
117 128 129 118
118 129 130 119
119 130 131 120
121 132 133 122
122 133 134 123
123 134 135 124
124 135 136 125
125 136 137 126
126 137 138 127
127 138 139 128
128 139 140 129
129 140 141 130
130 141 142 131
132 143 144 133
133 144 145 134
134 145 146 135
135 146 147 136
136 147 148 137
137 148 149 138
138 149 150 139
139 150 151 140
140 151 152 141
141 152 153 142
143 154 155 144
144 155 156 145
145 156 157 146
146 157 158 147
147 158 159 148
148 159 160 149
149 160 161 150
150 161 162 151
151 162 163 152
152 163 164 153
154 165 166 155
155 166 167 156
156 167 168 157
157 168 169 158
158 169 170 159
159 170 171 160
160 171 172 161
161 172 173 162
162 173 174 163
163 174 175 164
165 176 177 166
166 177 178 167
167 178 179 168
168 179 180 169
169 180 181 170
170 181 182 171
171 182 183 172
172 183 184 173
173 184 185 174
174 185 186 175
</DataArray>
<DataArray Name="offsets" type="Int32" format="ascii">
4
8
12
16
20
24
28
32
36
40
44
48
52
56
60
64
68
72
76
80
84
88
92
96
100
104
108
112
116
120
124
128
132
136
140
144
148
152
156
160
164
168
172
176
180
184
188
192
196
200
204
208
212
216
220
224
228
232
236
240
244
248
252
256
260
264
268
272
276
280
284
288
292
296
300
304
308
312
316
320
324
328
332
336
340
344
348
352
356
360
364
368
372
376
380
384
388
392
396
400
404
408
412
416
420
424
428
432
436
440
444
448
452
456
460
464
468
472
476
480
484
488
492
496
500
504
508
512
516
520
524
528
532
536
540
544
548
552
556
560
564
568
572
576
580
584
588
592
596
600
604
608
612
616
620
624
628
632
636
640
</DataArray>
<DataArray Name="types" type="UInt8" format="ascii">
9
9
9
9
9
9
9
9
9
9
9
9
9
9
9
9
9
9
9
9
9
9
9
9
9
9
9
9
9
9
9
9
9
9
9
9
9
9
9
9
9
9
9
9
9
9
9
9
9
9
9
9
9
9
9
9
9
9
9
9
9
9
9
9
9
9
9
9
9
9
9
9
9
9
9
9
9
9
9
9
9
9
9
9
9
9
9
9
9
9
9
9
9
9
9
9
9
9
9
9
9
9
9
9
9
9
9
9
9
9
9
9
9
9
9
9
9
9
9
9
9
9
9
9
9
9
9
9
9
9
9
9
9
9
9
9
9
9
9
9
9
9
9
9
9
9
9
9
9
9
9
9
9
9
9
9
9
9
9
9
</DataArray>
</Cells>
<PointData>
<DataArray Name="disp" type="Float64" NumberOfComponents="3" format="ascii">
0.000000e+00 0.000000e+00 0.000000e+00
0.000000e+00 -2.610281e-03 0.000000e+00
0.000000e+00 -6.099588e-03 0.000000e+00
0.000000e+00 -1.054804e-02 0.000000e+00
0.000000e+00 -1.623908e-02 0.000000e+00
0.000000e+00 -2.314071e-02 0.000000e+00
0.000000e+00 -3.040442e-02 0.000000e+00
0.000000e+00 -3.728658e-02 0.000000e+00
0.000000e+00 -4.242728e-02 0.000000e+00
0.000000e+00 -4.605638e-02 0.000000e+00
0.000000e+00 -4.950000e-02 0.000000e+00
0.000000e+00 0.000000e+00 0.000000e+00
1.223331e-03 -2.493250e-03 0.000000e+00
2.486627e-03 -5.877123e-03 0.000000e+00
3.908312e-03 -1.010399e-02 0.000000e+00
5.416774e-03 -1.515615e-02 0.000000e+00
6.251079e-03 -2.112933e-02 0.000000e+00
6.123466e-03 -2.762992e-02 0.000000e+00
4.736914e-03 -3.420960e-02 0.000000e+00
2.371947e-03 -4.035875e-02 0.000000e+00
4.186610e-04 -4.582792e-02 0.000000e+00
0.000000e+00 -4.950000e-02 0.000000e+00
0.000000e+00 0.000000e+00 0.000000e+00
2.450408e-03 -2.065541e-03 0.000000e+00
4.764263e-03 -4.821260e-03 0.000000e+00
6.961578e-03 -8.130607e-03 0.000000e+00
8.877832e-03 -1.182355e-02 0.000000e+00
1.027456e-02 -1.586082e-02 0.000000e+00
1.054475e-02 -2.043331e-02 0.000000e+00
9.850411e-03 -2.596865e-02 0.000000e+00
8.091274e-03 -3.295270e-02 0.000000e+00
5.343573e-03 -4.119005e-02 0.000000e+00
0.000000e+00 -4.950000e-02 0.000000e+00
0.000000e+00 0.000000e+00 0.000000e+00
3.279690e-03 -1.280936e-03 0.000000e+00
6.106107e-03 -2.736599e-03 0.000000e+00
8.537220e-03 -4.163454e-03 0.000000e+00
1.056909e-02 -5.443775e-03 0.000000e+00
1.206231e-02 -6.552937e-03 0.000000e+00
1.274628e-02 -7.447368e-03 0.000000e+00
1.279629e-02 -8.026771e-03 0.000000e+00
1.206950e-02 -8.198531e-03 0.000000e+00
9.934563e-03 -7.960140e-03 0.000000e+00
4.968411e-03 -7.480510e-03 0.000000e+00
0.000000e+00 0.000000e+00 0.000000e+00
3.541209e-03 -9.918526e-04 0.000000e+00
6.233287e-03 -1.926083e-03 0.000000e+00
8.398153e-03 -2.695466e-03 0.000000e+00
1.011374e-02 -3.270642e-03 0.000000e+00
1.130336e-02 -3.616356e-03 0.000000e+00
1.179266e-02 -3.745719e-03 0.000000e+00
1.162149e-02 -3.654134e-03 0.000000e+00
1.066145e-02 -3.304529e-03 0.000000e+00
8.488893e-03 -2.829970e-03 0.000000e+00
5.257804e-03 -2.815646e-03 0.000000e+00
0.000000e+00 0.000000e+00 0.000000e+00
3.536008e-03 -6.301453e-04 0.000000e+00
5.946026e-03 -1.152894e-03 0.000000e+00
7.816523e-03 -1.505789e-03 0.000000e+00
9.245551e-03 -1.673973e-03 0.000000e+00
1.018055e-02 -1.651834e-03 0.000000e+00
1.051841e-02 -1.443359e-03 0.000000e+00
1.024010e-02 -1.056841e-03 0.000000e+00
9.263662e-03 -5.580308e-04 0.000000e+00
7.598688e-03 -1.606484e-04 0.000000e+00
5.645259e-03 -7.170574e-05 0.000000e+00
0.000000e+00 0.000000e+00 0.000000e+00
3.284868e-03 -3.735844e-04 0.000000e+00
5.406400e-03 -6.191749e-04 0.000000e+00
7.007642e-03 -7.119495e-04 0.000000e+00
8.199903e-03 -6.298140e-04 0.000000e+00
8.953923e-03 -3.789879e-04 0.000000e+00
9.189057e-03 1.979478e-05 0.000000e+00
8.887183e-03 5.154573e-04 0.000000e+00
8.092370e-03 1.016693e-03 0.000000e+00
6.948373e-03 1.368720e-03 0.000000e+00
5.780662e-03 1.469010e-03 0.000000e+00
0.000000e+00 0.000000e+00 0.000000e+00
2.894808e-03 -2.098880e-04 0.000000e+00
4.730203e-03 -2.747865e-04 0.000000e+00
6.102315e-03 -1.840163e-04 0.000000e+00
7.111510e-03 4.593478e-05 0.000000e+00
7.719931e-03 4.134256e-04 0.000000e+00
7.892643e-03 8.902365e-04 0.000000e+00
7.656063e-03 1.408904e-03 0.000000e+00
7.100440e-03 1.879016e-03 0.000000e+00
6.376909e-03 2.199891e-03 0.000000e+00
5.716742e-03 2.332869e-03 0.000000e+00
0.000000e+00 0.000000e+00 0.000000e+00
2.440741e-03 -1.067721e-04 0.000000e+00
4.003953e-03 -5.238823e-05 0.000000e+00
5.183970e-03 1.327102e-04 0.000000e+00
6.036241e-03 4.377203e-04 0.000000e+00
6.533541e-03 8.556308e-04 0.000000e+00
6.688045e-03 1.345757e-03 0.000000e+00
6.555353e-03 1.844441e-03 0.000000e+00
6.218098e-03 2.279380e-03 0.000000e+00
5.808441e-03 2.589002e-03 0.000000e+00
5.485241e-03 2.758557e-03 0.000000e+00
0.000000e+00 0.000000e+00 0.000000e+00
1.967117e-03 -5.114492e-05 0.000000e+00
3.287168e-03 6.250381e-05 0.000000e+00
4.296117e-03 2.892898e-04 0.000000e+00
5.011174e-03 6.233267e-04 0.000000e+00
5.431738e-03 1.045609e-03 0.000000e+00
5.597258e-03 1.514465e-03 0.000000e+00
5.561380e-03 1.979327e-03 0.000000e+00
5.397715e-03 2.383708e-03 0.000000e+00
5.209791e-03 2.692378e-03 0.000000e+00
5.108942e-03 2.902008e-03 0.000000e+00
0.000000e+00 0.000000e+00 0.000000e+00
1.524193e-03 -2.931515e-05 0.000000e+00
2.617985e-03 9.880938e-05 0.000000e+00
3.464746e-03 3.335561e-04 0.000000e+00
4.062440e-03 6.645355e-04 0.000000e+00
4.431227e-03 1.065841e-03 0.000000e+00
4.610455e-03 1.501039e-03 0.000000e+00
4.649100e-03 1.928174e-03 0.000000e+00
4.610360e-03 2.308735e-03 0.000000e+00
4.568449e-03 2.622011e-03 0.000000e+00
4.603823e-03 2.871362e-03 0.000000e+00
0.000000e+00 0.000000e+00 0.000000e+00
1.138231e-03 -2.237192e-05 0.000000e+00
2.020239e-03 9.258124e-05 0.000000e+00
2.709694e-03 3.113376e-04 0.000000e+00
3.204582e-03 6.179887e-04 0.000000e+00
3.527643e-03 9.864488e-04 0.000000e+00
3.712273e-03 1.383344e-03 0.000000e+00
3.799068e-03 1.775556e-03 0.000000e+00
3.838551e-03 2.138877e-03 0.000000e+00
3.883366e-03 2.459663e-03 0.000000e+00
3.990639e-03 2.743423e-03 0.000000e+00
0.000000e+00 0.000000e+00 0.000000e+00
8.231164e-04 -3.035913e-05 0.000000e+00
1.500712e-03 6.015602e-05 0.000000e+00
2.040645e-03 2.544498e-04 0.000000e+00
2.440304e-03 5.297103e-04 0.000000e+00
2.714014e-03 8.604939e-04 0.000000e+00
2.887905e-03 1.220905e-03 0.000000e+00
2.994808e-03 1.585432e-03 0.000000e+00
3.071795e-03 1.936306e-03 0.000000e+00
3.157727e-03 2.265725e-03 0.000000e+00
3.290537e-03 2.579052e-03 0.000000e+00
0.000000e+00 0.000000e+00 0.000000e+00
5.690812e-04 -4.233772e-05 0.000000e+00
1.054236e-03 2.303676e-05 0.000000e+00
1.452060e-03 1.870850e-04 0.000000e+00
1.756998e-03 4.316891e-04 0.000000e+00
1.973657e-03 7.310301e-04 0.000000e+00
2.119866e-03 1.061508e-03 0.000000e+00
2.222020e-03 1.404391e-03 0.000000e+00
2.305622e-03 1.746158e-03 0.000000e+00
2.398153e-03 2.082370e-03 0.000000e+00
2.523218e-03 2.419635e-03 0.000000e+00
0.000000e+00 0.000000e+00 0.000000e+00
3.574452e-04 -5.365326e-05 0.000000e+00
6.693234e-04 -7.664275e-06 0.000000e+00
9.292084e-04 1.318512e-04 0.000000e+00
1.135275e-03 3.507067e-04 0.000000e+00
1.286625e-03 6.257462e-04 0.000000e+00
1.392339e-03 9.351704e-04 0.000000e+00
1.470026e-03 1.262630e-03 0.000000e+00
1.538368e-03 1.598024e-03 0.000000e+00
1.612848e-03 1.939310e-03 0.000000e+00
1.707244e-03 2.293316e-03 0.000000e+00
0.000000e+00 0.000000e+00 0.000000e+00
1.735758e-04 -5.940892e-05 0.000000e+00
3.254481e-04 -2.245655e-05 0.000000e+00
4.530232e-04 1.022704e-04 0.000000e+00
5.567645e-04 3.044226e-04 0.000000e+00
6.345675e-04 5.642648e-04 0.000000e+00
6.896474e-04 8.608436e-04 0.000000e+00
7.315951e-04 1.178889e-03 0.000000e+00
7.693616e-04 1.510209e-03 0.000000e+00
8.105723e-04 1.854490e-03 0.000000e+00
8.603772e-04 2.218430e-03 0.000000e+00
0.000000e+00 0.000000e+00 0.000000e+00
0.000000e+00 -4.867340e-05 0.000000e+00
0.000000e+00 -1.237261e-05 0.000000e+00
0.000000e+00 1.075294e-04 0.000000e+00
0.000000e+00 3.038683e-04 0.000000e+00
0.000000e+00 5.581389e-04 0.000000e+00
0.000000e+00 8.493731e-04 0.000000e+00
0.000000e+00 1.163678e-03 0.000000e+00
0.000000e+00 1.492768e-03 0.000000e+00
0.000000e+00 1.837299e-03 0.000000e+00
0.000000e+00 2.203366e-03 0.000000e+00
</DataArray>
<DataArray Name="shear" type="Float64" NumberOfComponents="1" format="ascii">
1.491588e-02
2.078988e-02
3.104799e-02
4.248519e-02
5.438991e-02
6.202522e-02
6.196547e-02
5.212703e-02
3.572588e-02
2.258453e-02
1.837502e-02
1.554637e-02
2.117874e-02
3.064875e-02
4.005448e-02
4.905338e-02
5.590399e-02
5.842126e-02
5.579124e-02
4.854718e-02
3.642623e-02
2.631737e-02
1.733626e-02
2.167049e-02
2.885343e-02
3.573547e-02
4.249982e-02
4.968017e-02
5.816742e-02
6.882055e-02
7.979209e-02
8.385996e-02
8.252762e-02
1.844611e-02
1.992038e-02
2.240764e-02
2.566166e-02
2.960351e-02
3.393107e-02
3.989325e-02
4.872993e-02
5.961673e-02
6.902812e-02
7.570066e-02
1.873016e-02
1.777597e-02
1.618781e-02
1.578863e-02
1.572339e-02
1.536492e-02
1.487295e-02
1.423280e-02
1.206604e-02
6.635188e-03
1.251058e-03
1.823353e-02
1.636060e-02
1.365006e-02
1.281766e-02
1.241140e-02
1.184091e-02
1.110132e-02
1.012951e-02
8.145090e-03
4.238850e-03
1.043002e-03
1.671460e-02
1.443749e-02
1.143096e-02
1.062485e-02
1.029162e-02
9.919888e-03
9.383339e-03
8.504729e-03
6.762936e-03
3.785546e-03
1.521523e-03
1.464542e-02
1.247351e-02
9.802783e-03
9.184008e-03
8.950387e-03
8.755010e-03
8.397118e-03
7.595168e-03
6.066678e-03
3.730218e-03
2.049487e-03
1.231774e-02
1.053240e-02
8.478636e-03
8.039281e-03
7.927213e-03
7.875696e-03
7.621191e-03
6.921580e-03
5.657469e-03
3.872627e-03
2.664766e-03
9.934007e-03
8.652047e-03
7.273229e-03
7.033988e-03
7.060287e-03
7.103393e-03
6.928779e-03
6.378421e-03
5.405863e-03
4.117657e-03
3.296474e-03
7.707846e-03
6.909569e-03
6.139744e-03
6.111149e-03
6.272594e-03
6.399126e-03
6.316447e-03
5.933915e-03
5.253670e-03
4.401675e-03
3.894579e-03
5.765782e-03
5.340650e-03
5.053606e-03
5.239638e-03
5.536315e-03
5.756852e-03
5.782678e-03
5.576612e-03
5.170907e-03
4.679759e-03
4.413220e-03
4.161909e-03
3.966238e-03
4.042968e-03
4.446259e-03
4.875015e-03
5.194355e-03
5.340996e-03
5.304298e-03
5.133247e-03
4.928916e-03
4.841660e-03
2.867594e-03
2.810054e-03
3.162270e-03
3.771149e-03
4.336702e-03
4.752025e-03
5.002846e-03
5.107090e-03
5.118386e-03
5.130992e-03
5.175218e-03
1.798502e-03
1.852326e-03
2.461623e-03
3.250537e-03
3.936288e-03
4.437772e-03
4.768659e-03
4.973381e-03
5.114990e-03
5.276768e-03
5.408785e-03
8.805681e-04
1.104594e-03
2.003596e-03
2.920161e-03
3.685032e-03
4.247270e-03
4.629530e-03
4.893793e-03
5.113983e-03
5.362429e-03
5.542446e-03
3.052900e-04
7.807465e-04
1.845002e-03
2.805185e-03
3.596723e-03
4.180095e-03
4.580337e-03
4.865793e-03
5.111990e-03
5.388256e-03
5.582166e-03
</DataArray>
<DataArray Name="stress" type="Float64" NumberOfComponents="9" format="ascii">
-1.107695e+05 4.757294e+03 0.000000e+00 4.757294e+03 -1.836470e+05 0.000000e+00 0.000000e+00 0.000000e+00 0.000000e+00
-9.848358e+04 3.846310e+03 0.000000e+00 3.846310e+03 -1.819857e+05 0.000000e+00 0.000000e+00 0.000000e+00 0.000000e+00
-9.152079e+04 2.843040e+03 0.000000e+00 2.843040e+03 -1.913462e+05 0.000000e+00 0.000000e+00 0.000000e+00 0.000000e+00
-9.334813e+04 2.614336e+03 0.000000e+00 2.614336e+03 -1.987791e+05 0.000000e+00 0.000000e+00 0.000000e+00 0.000000e+00
-1.050443e+05 3.458395e+03 0.000000e+00 3.458395e+03 -2.013418e+05 0.000000e+00 0.000000e+00 0.000000e+00 0.000000e+00
-1.123301e+05 5.607373e+03 0.000000e+00 5.607373e+03 -2.097034e+05 0.000000e+00 0.000000e+00 0.000000e+00 0.000000e+00
-1.194978e+05 8.290727e+03 0.000000e+00 8.290727e+03 -2.201105e+05 0.000000e+00 0.000000e+00 0.000000e+00 0.000000e+00
-1.211597e+05 8.244949e+03 0.000000e+00 8.244949e+03 -2.317339e+05 0.000000e+00 0.000000e+00 0.000000e+00 0.000000e+00
-1.199969e+05 5.689421e+03 0.000000e+00 5.689421e+03 -2.447036e+05 0.000000e+00 0.000000e+00 0.000000e+00 0.000000e+00
-1.383506e+05 4.768591e+02 0.000000e+00 4.768591e+02 -2.483462e+05 0.000000e+00 0.000000e+00 0.000000e+00 0.000000e+00
-1.453791e+05 -3.769555e+02 0.000000e+00 -3.769555e+02 -2.450927e+05 0.000000e+00 0.000000e+00 0.000000e+00 0.000000e+00
-1.093119e+05 1.369453e+04 0.000000e+00 1.369453e+04 -1.753262e+05 0.000000e+00 0.000000e+00 0.000000e+00 0.000000e+00
-9.748556e+04 1.165265e+04 0.000000e+00 1.165265e+04 -1.733611e+05 0.000000e+00 0.000000e+00 0.000000e+00 0.000000e+00
-9.199903e+04 9.923170e+03 0.000000e+00 9.923170e+03 -1.825378e+05 0.000000e+00 0.000000e+00 0.000000e+00 0.000000e+00
-9.373477e+04 1.032895e+04 0.000000e+00 1.032895e+04 -1.917618e+05 0.000000e+00 0.000000e+00 0.000000e+00 0.000000e+00
-1.031277e+05 1.186095e+04 0.000000e+00 1.186095e+04 -2.022536e+05 0.000000e+00 0.000000e+00 0.000000e+00 0.000000e+00
-1.113137e+05 1.317057e+04 0.000000e+00 1.317057e+04 -2.137060e+05 0.000000e+00 0.000000e+00 0.000000e+00 0.000000e+00
-1.177730e+05 1.342843e+04 0.000000e+00 1.342843e+04 -2.253486e+05 0.000000e+00 0.000000e+00 0.000000e+00 0.000000e+00
-1.202022e+05 1.090429e+04 0.000000e+00 1.090429e+04 -2.354302e+05 0.000000e+00 0.000000e+00 0.000000e+00 0.000000e+00
-1.225075e+05 6.869539e+03 0.000000e+00 6.869539e+03 -2.458709e+05 0.000000e+00 0.000000e+00 0.000000e+00 0.000000e+00
-1.319571e+05 9.225485e+02 0.000000e+00 9.225485e+02 -2.489479e+05 0.000000e+00 0.000000e+00 0.000000e+00 0.000000e+00
-1.488068e+05 -5.418246e+03 0.000000e+00 -5.418246e+03 -2.713221e+05 0.000000e+00 0.000000e+00 0.000000e+00 0.000000e+00
-1.043827e+05 2.338418e+04 0.000000e+00 2.338418e+04 -1.524879e+05 0.000000e+00 0.000000e+00 0.000000e+00 0.000000e+00
-9.508491e+04 2.092001e+04 0.000000e+00 2.092001e+04 -1.495546e+05 0.000000e+00 0.000000e+00 0.000000e+00 0.000000e+00
-9.325382e+04 2.025684e+04 0.000000e+00 2.025684e+04 -1.564098e+05 0.000000e+00 0.000000e+00 0.000000e+00 0.000000e+00
-9.795525e+04 2.255806e+04 0.000000e+00 2.255806e+04 -1.653521e+05 0.000000e+00 0.000000e+00 0.000000e+00 0.000000e+00
-1.069564e+05 2.606728e+04 0.000000e+00 2.606728e+04 -1.760535e+05 0.000000e+00 0.000000e+00 0.000000e+00 0.000000e+00
-1.150200e+05 2.812874e+04 0.000000e+00 2.812874e+04 -1.855284e+05 0.000000e+00 0.000000e+00 0.000000e+00 0.000000e+00
-1.223978e+05 3.032380e+04 0.000000e+00 3.032380e+04 -1.974842e+05 0.000000e+00 0.000000e+00 0.000000e+00 0.000000e+00
-1.307526e+05 3.040296e+04 0.000000e+00 3.040296e+04 -2.113468e+05 0.000000e+00 0.000000e+00 0.000000e+00 0.000000e+00
-1.435785e+05 3.062373e+04 0.000000e+00 3.062373e+04 -2.258737e+05 0.000000e+00 0.000000e+00 0.000000e+00 0.000000e+00
-1.536895e+05 2.369518e+04 0.000000e+00 2.369518e+04 -2.439807e+05 0.000000e+00 0.000000e+00 0.000000e+00 0.000000e+00
-1.697002e+05 1.060162e+04 0.000000e+00 1.060162e+04 -2.804530e+05 0.000000e+00 0.000000e+00 0.000000e+00 0.000000e+00
-9.627570e+04 2.576419e+04 0.000000e+00 2.576419e+04 -1.246586e+05 0.000000e+00 0.000000e+00 0.000000e+00 0.000000e+00
-9.035645e+04 2.422809e+04 0.000000e+00 2.422809e+04 -1.217673e+05 0.000000e+00 0.000000e+00 0.000000e+00 0.000000e+00
-9.045289e+04 2.428969e+04 0.000000e+00 2.428969e+04 -1.229220e+05 0.000000e+00 0.000000e+00 0.000000e+00 0.000000e+00
-9.536280e+04 2.618898e+04 0.000000e+00 2.618898e+04 -1.233133e+05 0.000000e+00 0.000000e+00 0.000000e+00 0.000000e+00
-1.021464e+05 2.803842e+04 0.000000e+00 2.803842e+04 -1.223171e+05 0.000000e+00 0.000000e+00 0.000000e+00 0.000000e+00
-1.073022e+05 2.904734e+04 0.000000e+00 2.904734e+04 -1.197896e+05 0.000000e+00 0.000000e+00 0.000000e+00 0.000000e+00
-1.087322e+05 2.958433e+04 0.000000e+00 2.958433e+04 -1.149185e+05 0.000000e+00 0.000000e+00 0.000000e+00 0.000000e+00
-1.066380e+05 2.815901e+04 0.000000e+00 2.815901e+04 -1.070600e+05 0.000000e+00 0.000000e+00 0.000000e+00 0.000000e+00
-1.021236e+05 2.434171e+04 0.000000e+00 2.434171e+04 -9.561498e+04 0.000000e+00 0.000000e+00 0.000000e+00 0.000000e+00
-8.974721e+04 1.651615e+04 0.000000e+00 1.651615e+04 -8.136856e+04 0.000000e+00 0.000000e+00 0.000000e+00 0.000000e+00
-6.749623e+04 1.030019e+04 0.000000e+00 1.030019e+04 -6.824291e+04 0.000000e+00 0.000000e+00 0.000000e+00 0.000000e+00
-9.222488e+04 2.558405e+04 0.000000e+00 2.558405e+04 -1.102311e+05 0.000000e+00 0.000000e+00 0.000000e+00 0.000000e+00
-9.021545e+04 2.475139e+04 0.000000e+00 2.475139e+04 -1.088591e+05 0.000000e+00 0.000000e+00 0.000000e+00 0.000000e+00
-9.334598e+04 2.483288e+04 0.000000e+00 2.483288e+04 -1.086855e+05 0.000000e+00 0.000000e+00 0.000000e+00 0.000000e+00
-9.988219e+04 2.572192e+04 0.000000e+00 2.572192e+04 -1.072424e+05 0.000000e+00 0.000000e+00 0.000000e+00 0.000000e+00
-1.067671e+05 2.619554e+04 0.000000e+00 2.619554e+04 -1.043738e+05 0.000000e+00 0.000000e+00 0.000000e+00 0.000000e+00
-1.120611e+05 2.549092e+04 0.000000e+00 2.549092e+04 -9.987727e+04 0.000000e+00 0.000000e+00 0.000000e+00 0.000000e+00
-1.138853e+05 2.353292e+04 0.000000e+00 2.353292e+04 -9.340917e+04 0.000000e+00 0.000000e+00 0.000000e+00 0.000000e+00
-1.133383e+05 2.045918e+04 0.000000e+00 2.045918e+04 -8.552671e+04 0.000000e+00 0.000000e+00 0.000000e+00 0.000000e+00
-1.098711e+05 1.504200e+04 0.000000e+00 1.504200e+04 -7.655009e+04 0.000000e+00 0.000000e+00 0.000000e+00 0.000000e+00
-9.484970e+04 6.008576e+03 0.000000e+00 6.008576e+03 -6.838994e+04 0.000000e+00 0.000000e+00 0.000000e+00 0.000000e+00
-6.334009e+04 1.351561e+02 0.000000e+00 1.351561e+02 -5.699019e+04 0.000000e+00 0.000000e+00 0.000000e+00 0.000000e+00
-8.694826e+04 2.427600e+04 0.000000e+00 2.427600e+04 -9.743080e+04 0.000000e+00 0.000000e+00 0.000000e+00 0.000000e+00
-8.867733e+04 2.375165e+04 0.000000e+00 2.375165e+04 -9.707905e+04 0.000000e+00 0.000000e+00 0.000000e+00 0.000000e+00
-9.379176e+04 2.313821e+04 0.000000e+00 2.313821e+04 -9.550985e+04 0.000000e+00 0.000000e+00 0.000000e+00 0.000000e+00
-1.005027e+05 2.287121e+04 0.000000e+00 2.287121e+04 -9.278905e+04 0.000000e+00 0.000000e+00 0.000000e+00 0.000000e+00
-1.063757e+05 2.183355e+04 0.000000e+00 2.183355e+04 -8.911334e+04 0.000000e+00 0.000000e+00 0.000000e+00 0.000000e+00
-1.102498e+05 1.958321e+04 0.000000e+00 1.958321e+04 -8.439058e+04 0.000000e+00 0.000000e+00 0.000000e+00 0.000000e+00
-1.108800e+05 1.628707e+04 0.000000e+00 1.628707e+04 -7.867136e+04 0.000000e+00 0.000000e+00 0.000000e+00 0.000000e+00
-1.087311e+05 1.195484e+04 0.000000e+00 1.195484e+04 -7.257573e+04 0.000000e+00 0.000000e+00 0.000000e+00 0.000000e+00
-1.024800e+05 5.953762e+03 0.000000e+00 5.953762e+03 -6.682085e+04 0.000000e+00 0.000000e+00 0.000000e+00 0.000000e+00
-8.520175e+04 -1.578599e+02 0.000000e+00 -1.578599e+02 -6.225707e+04 0.000000e+00 0.000000e+00 0.000000e+00 0.000000e+00
-6.186536e+04 -2.303729e+03 0.000000e+00 -2.303729e+03 -5.702202e+04 0.000000e+00 0.000000e+00 0.000000e+00 0.000000e+00
-8.193016e+04 2.244269e+04 0.000000e+00 2.244269e+04 -8.693194e+04 0.000000e+00 0.000000e+00 0.000000e+00 0.000000e+00
-8.692020e+04 2.198930e+04 0.000000e+00 2.198930e+04 -8.741766e+04 0.000000e+00 0.000000e+00 0.000000e+00 0.000000e+00
-9.341579e+04 2.061925e+04 0.000000e+00 2.061925e+04 -8.520069e+04 0.000000e+00 0.000000e+00 0.000000e+00 0.000000e+00
-9.952762e+04 1.934205e+04 0.000000e+00 1.934205e+04 -8.232874e+04 0.000000e+00 0.000000e+00 0.000000e+00 0.000000e+00
-1.041749e+05 1.725352e+04 0.000000e+00 1.725352e+04 -7.868349e+04 0.000000e+00 0.000000e+00 0.000000e+00 0.000000e+00
-1.067978e+05 1.423513e+04 0.000000e+00 1.423513e+04 -7.461536e+04 0.000000e+00 0.000000e+00 0.000000e+00 0.000000e+00
-1.065964e+05 1.045632e+04 0.000000e+00 1.045632e+04 -7.031959e+04 0.000000e+00 0.000000e+00 0.000000e+00 0.000000e+00
-1.033666e+05 5.953012e+03 0.000000e+00 5.953012e+03 -6.610990e+04 0.000000e+00 0.000000e+00 0.000000e+00 0.000000e+00
-9.587598e+04 1.004838e+03 0.000000e+00 1.004838e+03 -6.257024e+04 0.000000e+00 0.000000e+00 0.000000e+00 0.000000e+00
-8.176688e+04 -2.108958e+03 0.000000e+00 -2.108958e+03 -6.035085e+04 0.000000e+00 0.000000e+00 0.000000e+00 0.000000e+00
-6.653215e+04 -2.603018e+03 0.000000e+00 -2.603018e+03 -5.777920e+04 0.000000e+00 0.000000e+00 0.000000e+00 0.000000e+00
-7.773875e+04 2.039931e+04 0.000000e+00 2.039931e+04 -7.904165e+04 0.000000e+00 0.000000e+00 0.000000e+00 0.000000e+00
-8.480824e+04 1.994507e+04 0.000000e+00 1.994507e+04 -7.990547e+04 0.000000e+00 0.000000e+00 0.000000e+00 0.000000e+00
-9.189694e+04 1.792727e+04 0.000000e+00 1.792727e+04 -7.751180e+04 0.000000e+00 0.000000e+00 0.000000e+00 0.000000e+00
-9.743038e+04 1.584326e+04 0.000000e+00 1.584326e+04 -7.473662e+04 0.000000e+00 0.000000e+00 0.000000e+00 0.000000e+00
-1.012617e+05 1.327252e+04 0.000000e+00 1.327252e+04 -7.167273e+04 0.000000e+00 0.000000e+00 0.000000e+00 0.000000e+00
-1.029568e+05 1.005681e+04 0.000000e+00 1.005681e+04 -6.857405e+04 0.000000e+00 0.000000e+00 0.000000e+00 0.000000e+00
-1.021433e+05 6.246351e+03 0.000000e+00 6.246351e+03 -6.544115e+04 0.000000e+00 0.000000e+00 0.000000e+00 0.000000e+00
-9.838688e+04 2.181839e+03 0.000000e+00 2.181839e+03 -6.263469e+04 0.000000e+00 0.000000e+00 0.000000e+00 0.000000e+00
-9.157536e+04 -1.326048e+03 0.000000e+00 -1.326048e+03 -6.069217e+04 0.000000e+00 0.000000e+00 0.000000e+00 0.000000e+00
-8.126478e+04 -2.580543e+03 0.000000e+00 -2.580543e+03 -5.981834e+04 0.000000e+00 0.000000e+00 0.000000e+00 0.000000e+00
-7.142657e+04 -2.250539e+03 0.000000e+00 -2.250539e+03 -5.838695e+04 0.000000e+00 0.000000e+00 0.000000e+00 0.000000e+00
-7.418928e+04 1.821870e+04 0.000000e+00 1.821870e+04 -7.326532e+04 0.000000e+00 0.000000e+00 0.000000e+00 0.000000e+00
-8.233530e+04 1.772117e+04 0.000000e+00 1.772117e+04 -7.427229e+04 0.000000e+00 0.000000e+00 0.000000e+00 0.000000e+00
-8.966958e+04 1.532285e+04 0.000000e+00 1.532285e+04 -7.194277e+04 0.000000e+00 0.000000e+00 0.000000e+00 0.000000e+00
-9.487254e+04 1.288137e+04 0.000000e+00 1.288137e+04 -6.950280e+04 0.000000e+00 0.000000e+00 0.000000e+00 0.000000e+00
-9.803815e+04 1.012905e+04 0.000000e+00 1.012905e+04 -6.710263e+04 0.000000e+00 0.000000e+00 0.000000e+00 0.000000e+00
-9.910561e+04 6.901983e+03 0.000000e+00 6.901983e+03 -6.472416e+04 0.000000e+00 0.000000e+00 0.000000e+00 0.000000e+00
-9.794590e+04 3.377693e+03 0.000000e+00 3.377693e+03 -6.250433e+04 0.000000e+00 0.000000e+00 0.000000e+00 0.000000e+00
-9.445803e+04 5.574819e+01 0.000000e+00 5.574819e+01 -6.078623e+04 0.000000e+00 0.000000e+00 0.000000e+00 0.000000e+00
-8.912949e+04 -2.247430e+03 0.000000e+00 -2.247430e+03 -5.987582e+04 0.000000e+00 0.000000e+00 0.000000e+00 0.000000e+00
-8.205327e+04 -2.483722e+03 0.000000e+00 -2.483722e+03 -5.967524e+04 0.000000e+00 0.000000e+00 0.000000e+00 0.000000e+00
-7.581211e+04 -1.831593e+03 0.000000e+00 -1.831593e+03 -5.882027e+04 0.000000e+00 0.000000e+00 0.000000e+00 0.000000e+00
-7.114388e+04 1.621241e+04 0.000000e+00 1.621241e+04 -6.917363e+04 0.000000e+00 0.000000e+00 0.000000e+00 0.000000e+00
-7.965829e+04 1.559892e+04 0.000000e+00 1.559892e+04 -7.019928e+04 0.000000e+00 0.000000e+00 0.000000e+00 0.000000e+00
-8.709226e+04 1.300856e+04 0.000000e+00 1.300856e+04 -6.801327e+04 0.000000e+00 0.000000e+00 0.000000e+00 0.000000e+00
-9.201141e+04 1.045986e+04 0.000000e+00 1.045986e+04 -6.598778e+04 0.000000e+00 0.000000e+00 0.000000e+00 0.000000e+00
-9.475741e+04 7.660184e+03 0.000000e+00 7.660184e+03 -6.408234e+04 0.000000e+00 0.000000e+00 0.000000e+00 0.000000e+00
-9.549421e+04 4.605481e+03 0.000000e+00 4.605481e+03 -6.227897e+04 0.000000e+00 0.000000e+00 0.000000e+00 0.000000e+00
-9.434045e+04 1.546064e+03 0.000000e+00 1.546064e+03 -6.077384e+04 0.000000e+00 0.000000e+00 0.000000e+00 0.000000e+00
-9.160805e+04 -1.004517e+03 0.000000e+00 -1.004517e+03 -5.984041e+04 0.000000e+00 0.000000e+00 0.000000e+00 0.000000e+00
-8.790270e+04 -2.432132e+03 0.000000e+00 -2.432132e+03 -5.952476e+04 0.000000e+00 0.000000e+00 0.000000e+00 0.000000e+00
-8.331396e+04 -2.179309e+03 0.000000e+00 -2.179309e+03 -5.964867e+04 0.000000e+00 0.000000e+00 0.000000e+00 0.000000e+00
-7.951037e+04 -1.442297e+03 0.000000e+00 -1.442297e+03 -5.918070e+04 0.000000e+00 0.000000e+00 0.000000e+00 0.000000e+00
-6.859920e+04 1.414883e+04 0.000000e+00 1.414883e+04 -6.650425e+04 0.000000e+00 0.000000e+00 0.000000e+00 0.000000e+00
-7.699020e+04 1.349765e+04 0.000000e+00 1.349765e+04 -6.729555e+04 0.000000e+00 0.000000e+00 0.000000e+00 0.000000e+00
-8.441663e+04 1.099270e+04 0.000000e+00 1.099270e+04 -6.525499e+04 0.000000e+00 0.000000e+00 0.000000e+00 0.000000e+00
-8.910445e+04 8.469757e+03 0.000000e+00 8.469757e+03 -6.360228e+04 0.000000e+00 0.000000e+00 0.000000e+00 0.000000e+00
-9.158704e+04 5.772863e+03 0.000000e+00 5.772863e+03 -6.210239e+04 0.000000e+00 0.000000e+00 0.000000e+00 0.000000e+00
-9.223228e+04 2.996398e+03 0.000000e+00 2.996398e+03 -6.077771e+04 0.000000e+00 0.000000e+00 0.000000e+00 0.000000e+00
-9.142702e+04 4.656115e+02 0.000000e+00 4.656115e+02 -5.982750e+04 0.000000e+00 0.000000e+00 0.000000e+00 0.000000e+00
-8.965127e+04 -1.404216e+03 0.000000e+00 -1.404216e+03 -5.939239e+04 0.000000e+00 0.000000e+00 0.000000e+00 0.000000e+00
-8.735405e+04 -2.264461e+03 0.000000e+00 -2.264461e+03 -5.940325e+04 0.000000e+00 0.000000e+00 0.000000e+00 0.000000e+00
-8.465310e+04 -1.810857e+03 0.000000e+00 -1.810857e+03 -5.965543e+04 0.000000e+00 0.000000e+00 0.000000e+00 0.000000e+00
-8.253207e+04 -1.113915e+03 0.000000e+00 -1.113915e+03 -5.948104e+04 0.000000e+00 0.000000e+00 0.000000e+00 0.000000e+00
-6.694244e+04 1.206471e+04 0.000000e+00 1.206471e+04 -6.492188e+04 0.000000e+00 0.000000e+00 0.000000e+00 0.000000e+00
-7.462202e+04 1.139713e+04 0.000000e+00 1.139713e+04 -6.538486e+04 0.000000e+00 0.000000e+00 0.000000e+00 0.000000e+00
-8.185665e+04 9.185198e+03 0.000000e+00 9.185198e+03 -6.352969e+04 0.000000e+00 0.000000e+00 0.000000e+00 0.000000e+00
-8.631905e+04 6.816822e+03 0.000000e+00 6.816822e+03 -6.207020e+04 0.000000e+00 0.000000e+00 0.000000e+00 0.000000e+00
-8.866392e+04 4.321713e+03 0.000000e+00 4.321713e+03 -6.080647e+04 0.000000e+00 0.000000e+00 0.000000e+00 0.000000e+00
-8.944741e+04 1.923621e+03 0.000000e+00 1.923621e+03 -5.985195e+04 0.000000e+00 0.000000e+00 0.000000e+00 0.000000e+00
-8.920877e+04 -8.652384e+01 0.000000e+00 -8.652384e+01 -5.930508e+04 0.000000e+00 0.000000e+00 0.000000e+00 0.000000e+00
-8.832898e+04 -1.430585e+03 0.000000e+00 -1.430585e+03 -5.918671e+04 0.000000e+00 0.000000e+00 0.000000e+00 0.000000e+00
-8.717662e+04 -1.932144e+03 0.000000e+00 -1.932144e+03 -5.937832e+04 0.000000e+00 0.000000e+00 0.000000e+00 0.000000e+00
-8.589147e+04 -1.441882e+03 0.000000e+00 -1.441882e+03 -5.968261e+04 0.000000e+00 0.000000e+00 0.000000e+00 0.000000e+00
-8.496518e+04 -8.381595e+02 0.000000e+00 -8.381595e+02 -5.970710e+04 0.000000e+00 0.000000e+00 0.000000e+00 0.000000e+00
-6.584355e+04 9.954979e+03 0.000000e+00 9.954979e+03 -6.429071e+04 0.000000e+00 0.000000e+00 0.000000e+00 0.000000e+00
-7.263495e+04 9.344431e+03 0.000000e+00 9.344431e+03 -6.434312e+04 0.000000e+00 0.000000e+00 0.000000e+00 0.000000e+00
-7.947716e+04 7.446130e+03 0.000000e+00 7.446130e+03 -6.256506e+04 0.000000e+00 0.000000e+00 0.000000e+00 0.000000e+00
-8.371562e+04 5.330977e+03 0.000000e+00 5.330977e+03 -6.115914e+04 0.000000e+00 0.000000e+00 0.000000e+00 0.000000e+00
-8.610840e+04 3.175910e+03 0.000000e+00 3.175910e+03 -6.004751e+04 0.000000e+00 0.000000e+00 0.000000e+00 0.000000e+00
-8.720980e+04 1.232355e+03 0.000000e+00 1.232355e+03 -5.933243e+04 0.000000e+00 0.000000e+00 0.000000e+00 0.000000e+00
-8.754558e+04 -2.936245e+02 0.000000e+00 -2.936245e+02 -5.904107e+04 0.000000e+00 0.000000e+00 0.000000e+00 0.000000e+00
-8.744793e+04 -1.244686e+03 0.000000e+00 -1.244686e+03 -5.910653e+04 0.000000e+00 0.000000e+00 0.000000e+00 0.000000e+00
-8.718589e+04 -1.529128e+03 0.000000e+00 -1.529128e+03 -5.939532e+04 0.000000e+00 0.000000e+00 0.000000e+00 0.000000e+00
-8.692750e+04 -1.087194e+03 0.000000e+00 -1.087194e+03 -5.971557e+04 0.000000e+00 0.000000e+00 0.000000e+00 0.000000e+00
-8.683532e+04 -5.997302e+02 0.000000e+00 -5.997302e+02 -5.987380e+04 0.000000e+00 0.000000e+00 0.000000e+00 0.000000e+00
-6.507551e+04 7.636575e+03 0.000000e+00 7.636575e+03 -6.423649e+04 0.000000e+00 0.000000e+00 0.000000e+00 0.000000e+00
-7.102562e+04 7.134814e+03 0.000000e+00 7.134814e+03 -6.395729e+04 0.000000e+00 0.000000e+00 0.000000e+00 0.000000e+00
-7.742692e+04 5.647615e+03 0.000000e+00 5.647615e+03 -6.212442e+04 0.000000e+00 0.000000e+00 0.000000e+00 0.000000e+00
-8.152683e+04 3.930535e+03 0.000000e+00 3.930535e+03 -6.070267e+04 0.000000e+00 0.000000e+00 0.000000e+00 0.000000e+00
-8.402562e+04 2.231601e+03 0.000000e+00 2.231601e+03 -5.969968e+04 0.000000e+00 0.000000e+00 0.000000e+00 0.000000e+00
-8.549895e+04 7.741503e+02 0.000000e+00 7.741503e+02 -5.913945e+04 0.000000e+00 0.000000e+00 0.000000e+00 0.000000e+00
-8.634774e+04 -3.132477e+02 0.000000e+00 -3.132477e+02 -5.898994e+04 0.000000e+00 0.000000e+00 0.000000e+00 0.000000e+00
-8.686962e+04 -9.581183e+02 0.000000e+00 -9.581183e+02 -5.913794e+04 0.000000e+00 0.000000e+00 0.000000e+00 0.000000e+00
-8.727174e+04 -1.113777e+03 0.000000e+00 -1.113777e+03 -5.945009e+04 0.000000e+00 0.000000e+00 0.000000e+00 0.000000e+00
-8.772169e+04 -7.623968e+02 0.000000e+00 -7.623968e+02 -5.975252e+04 0.000000e+00 0.000000e+00 0.000000e+00 0.000000e+00
-8.817750e+04 -3.996970e+02 0.000000e+00 -3.996970e+02 -6.000562e+04 0.000000e+00 0.000000e+00 0.000000e+00 0.000000e+00
-6.460298e+04 5.170677e+03 0.000000e+00 5.170677e+03 -6.431189e+04 0.000000e+00 0.000000e+00 0.000000e+00 0.000000e+00
-6.985645e+04 4.798903e+03 0.000000e+00 4.798903e+03 -6.384908e+04 0.000000e+00 0.000000e+00 0.000000e+00 0.000000e+00
-7.585370e+04 3.760756e+03 0.000000e+00 3.760756e+03 -6.191213e+04 0.000000e+00 0.000000e+00 0.000000e+00 0.000000e+00
-7.988105e+04 2.570316e+03 0.000000e+00 2.570316e+03 -6.049411e+04 0.000000e+00 0.000000e+00 0.000000e+00 0.000000e+00
-8.251187e+04 1.424198e+03 0.000000e+00 1.424198e+03 -5.957549e+04 0.000000e+00 0.000000e+00 0.000000e+00 0.000000e+00
-8.429685e+04 4.610660e+02 0.000000e+00 4.610660e+02 -5.910835e+04 0.000000e+00 0.000000e+00 0.000000e+00 0.000000e+00
-8.554412e+04 -2.437913e+02 0.000000e+00 -2.437913e+02 -5.902645e+04 0.000000e+00 0.000000e+00 0.000000e+00 0.000000e+00
-8.651188e+04 -6.420376e+02 0.000000e+00 -6.420376e+02 -5.920837e+04 0.000000e+00 0.000000e+00 0.000000e+00 0.000000e+00
-8.737650e+04 -7.163195e+02 0.000000e+00 -7.163195e+02 -5.951046e+04 0.000000e+00 0.000000e+00 0.000000e+00 0.000000e+00
-8.828405e+04 -4.758533e+02 0.000000e+00 -4.758533e+02 -5.979153e+04 0.000000e+00 0.000000e+00 0.000000e+00 0.000000e+00
-8.908425e+04 -2.354286e+02 0.000000e+00 -2.354286e+02 -6.009035e+04 0.000000e+00 0.000000e+00 0.000000e+00 0.000000e+00
-6.427907e+04 2.502316e+03 0.000000e+00 2.502316e+03 -6.428363e+04 0.000000e+00 0.000000e+00 0.000000e+00 0.000000e+00
-6.914956e+04 2.342059e+03 0.000000e+00 2.342059e+03 -6.373361e+04 0.000000e+00 0.000000e+00 0.000000e+00 0.000000e+00
-7.487609e+04 1.849343e+03 0.000000e+00 1.849343e+03 -6.180454e+04 0.000000e+00 0.000000e+00 0.000000e+00 0.000000e+00
-7.889047e+04 1.266710e+03 0.000000e+00 1.266710e+03 -6.041473e+04 0.000000e+00 0.000000e+00 0.000000e+00 0.000000e+00
-8.160624e+04 6.950651e+02 0.000000e+00 6.950651e+02 -5.954695e+04 0.000000e+00 0.000000e+00 0.000000e+00 0.000000e+00
-8.358813e+04 2.149692e+02 0.000000e+00 2.149692e+02 -5.913341e+04 0.000000e+00 0.000000e+00 0.000000e+00 0.000000e+00
-8.507927e+04 -1.305455e+02 0.000000e+00 -1.305455e+02 -5.908168e+04 0.000000e+00 0.000000e+00 0.000000e+00 0.000000e+00
-8.631878e+04 -3.212206e+02 0.000000e+00 -3.212206e+02 -5.927384e+04 0.000000e+00 0.000000e+00 0.000000e+00 0.000000e+00
-8.745112e+04 -3.476999e+02 0.000000e+00 -3.476999e+02 -5.956492e+04 0.000000e+00 0.000000e+00 0.000000e+00 0.000000e+00
-8.861425e+04 -2.256909e+02 0.000000e+00 -2.256909e+02 -5.982341e+04 0.000000e+00 0.000000e+00 0.000000e+00 0.000000e+00
-8.958700e+04 -1.044936e+02 0.000000e+00 -1.044936e+02 -6.013671e+04 0.000000e+00 0.000000e+00 0.000000e+00 0.000000e+00
-6.405390e+04 6.056170e+02 0.000000e+00 6.056170e+02 -6.398711e+04 0.000000e+00 0.000000e+00 0.000000e+00 0.000000e+00
-6.888065e+04 6.474285e+02 0.000000e+00 6.474285e+02 -6.352174e+04 0.000000e+00 0.000000e+00 0.000000e+00 0.000000e+00
-7.454580e+04 5.296751e+02 0.000000e+00 5.296751e+02 -6.175346e+04 0.000000e+00 0.000000e+00 0.000000e+00 0.000000e+00
-7.856104e+04 3.351733e+02 0.000000e+00 3.351733e+02 -6.039485e+04 0.000000e+00 0.000000e+00 0.000000e+00 0.000000e+00
-8.130611e+04 1.210740e+02 0.000000e+00 1.210740e+02 -5.954718e+04 0.000000e+00 0.000000e+00 0.000000e+00 0.000000e+00
-8.336122e+04 -5.558385e+01 0.000000e+00 -5.558385e+01 -5.915468e+04 0.000000e+00 0.000000e+00 0.000000e+00 0.000000e+00
-8.493651e+04 -1.811915e+02 0.000000e+00 -1.811915e+02 -5.910964e+04 0.000000e+00 0.000000e+00 0.000000e+00 0.000000e+00
-8.626169e+04 -2.565794e+02 0.000000e+00 -2.565794e+02 -5.930851e+04 0.000000e+00 0.000000e+00 0.000000e+00 0.000000e+00
-8.748330e+04 -2.655194e+02 0.000000e+00 -2.655194e+02 -5.959487e+04 0.000000e+00 0.000000e+00 0.000000e+00 0.000000e+00
-8.873141e+04 -2.172785e+02 0.000000e+00 -2.172785e+02 -5.984458e+04 0.000000e+00 0.000000e+00 0.000000e+00 0.000000e+00
-8.974730e+04 -1.609883e+02 0.000000e+00 -1.609883e+02 -6.015921e+04 0.000000e+00 0.000000e+00 0.000000e+00 0.000000e+00
</DataArray>
<DataArray Name="vol_eps" type="Float64" NumberOfComponents="1" format="ascii">
-1.112622e-02
-9.727047e-03
-8.658165e-03
-7.654772e-03
-7.330900e-03
-7.859097e-03
-9.097037e-03
-1.095109e-02
-1.377572e-02
-1.659258e-02
-1.713091e-02
-1.046888e-02
-9.078000e-03
-8.223703e-03
-7.657084e-03
-7.914346e-03
-8.597132e-03
-9.532928e-03
-1.048072e-02
-1.213392e-02
-1.444538e-02
-1.828731e-02
-8.567678e-03
-7.349836e-03
-6.859185e-03
-6.886225e-03
-7.389552e-03
-7.838048e-03
-8.304193e-03
-8.693261e-03
-9.232955e-03
-1.056637e-02
-1.404678e-02
-6.044555e-03
-5.279234e-03
-5.049945e-03
-5.030109e-03
-5.041426e-03
-4.849249e-03
-3.871854e-03
-2.145988e-03
2.276501e-04
3.545835e-03
7.092055e-03
-4.728828e-03
-4.544229e-03
-4.865983e-03
-5.267246e-03
-5.583535e-03
-5.687980e-03
-5.396572e-03
-4.835247e-03
-4.087467e-03
-2.709641e-03
7.587711e-05
-3.441137e-03
-3.691824e-03
-4.179747e-03
-4.549655e-03
-4.751880e-03
-4.732293e-03
-4.409789e-03
-3.883715e-03
-3.151354e-03
-1.755025e-03
1.239727e-04
-2.427113e-03
-3.041095e-03
-3.613196e-03
-3.908570e-03
-3.994090e-03
-3.904180e-03
-3.622644e-03
-3.163141e-03
-2.475468e-03
-1.411408e-03
-2.471627e-04
-1.728662e-03
-2.516190e-03
-3.078250e-03
-3.307257e-03
-3.363148e-03
-3.278313e-03
-3.038479e-03
-2.632321e-03
-2.079188e-03
-1.341527e-03
-6.047974e-04
-1.262286e-03
-2.089792e-03
-2.608572e-03
-2.817739e-03
-2.875349e-03
-2.798446e-03
-2.587300e-03
-2.265139e-03
-1.869246e-03
-1.382858e-03
-9.138680e-04
-9.635169e-04
-1.750802e-03
-2.217858e-03
-2.426577e-03
-2.484981e-03
-2.416398e-03
-2.247970e-03
-2.025486e-03
-1.766960e-03
-1.465460e-03
-1.179212e-03
-7.732299e-04
-1.469793e-03
-1.890315e-03
-2.100233e-03
-2.161618e-03
-2.114289e-03
-2.005982e-03
-1.872695e-03
-1.722745e-03
-1.556446e-03
-1.401038e-03
-6.436848e-04
-1.232978e-03
-1.619257e-03
-1.822463e-03
-1.890821e-03
-1.878901e-03
-1.832680e-03
-1.772878e-03
-1.708821e-03
-1.642092e-03
-1.580829e-03
-5.767068e-04
-1.053121e-03
-1.400393e-03
-1.589090e-03
-1.673329e-03
-1.701429e-03
-1.708379e-03
-1.708688e-03
-1.710588e-03
-1.714004e-03
-1.718123e-03
-5.560778e-04
-9.379321e-04
-1.238953e-03
-1.414765e-03
-1.513260e-03
-1.576315e-03
-1.625733e-03
-1.672146e-03
-1.720057e-03
-1.769865e-03
-1.816564e-03
-5.566292e-04
-8.687202e-04
-1.125289e-03
-1.293308e-03
-1.405732e-03
-1.494807e-03
-1.574627e-03
-1.652649e-03
-1.731063e-03
-1.809653e-03
-1.882846e-03
-5.481279e-04
-8.235531e-04
-1.057432e-03
-1.221445e-03
-1.342710e-03
-1.448925e-03
-1.547411e-03
-1.643157e-03
-1.739287e-03
-1.833074e-03
-1.919051e-03
-5.184553e-04
-7.950278e-04
-1.034480e-03
-1.198601e-03
-1.322874e-03
-1.435372e-03
-1.539641e-03
-1.641390e-03
-1.743324e-03
-1.842270e-03
-1.931789e-03
</DataArray>
</PointData>
</Piece>
</UnstructuredGrid>
</VTKFile>
