<?xml version="1.0"?>
<VTKFile type="UnstructuredGrid" version="0.1">
<UnstructuredGrid>
<FieldData>
<DataArray Name="TIME" type="Float64" format="ascii" NumberOfTuples="1">
0.000000e+00
</DataArray>
</FieldData>
<FieldData>
<DataArray Name="CYCLE" type="Int32" format="ascii" NumberOfTuples="1">
0
</DataArray>
</FieldData>
<Piece NumberOfPoints="187" NumberOfCells="160">
<Points>
<DataArray NumberOfComponents="3" type="Float64" format="ascii">
0.000000e+00 0.000000e+00 0.000000e+00
0.000000e+00 1.993073e-01 0.000000e+00
0.000000e+00 3.984591e-01 0.000000e+00
0.000000e+00 5.974438e-01 0.000000e+00
0.000000e+00 7.962487e-01 0.000000e+00
0.000000e+00 9.948668e-01 0.000000e+00
0.000000e+00 1.193325e+00 0.000000e+00
0.000000e+00 1.391701e+00 0.000000e+00
0.000000e+00 1.590142e+00 0.000000e+00
0.000000e+00 1.788829e+00 0.000000e+00
0.000000e+00 1.987625e+00 0.000000e+00
2.250000e-01 0.000000e+00 0.000000e+00
2.252009e-01 1.993383e-01 0.000000e+00
2.253812e-01 3.985338e-01 0.000000e+00
2.255501e-01 5.975773e-01 0.000000e+00
2.257072e-01 7.964638e-01 0.000000e+00
2.258313e-01 9.951867e-01 0.000000e+00
2.258842e-01 1.193748e+00 0.000000e+00
2.258020e-01 1.392169e+00 0.000000e+00
2.255218e-01 1.590523e+00 0.000000e+00
2.251144e-01 1.788929e+00 0.000000e+00
2.250000e-01 1.987625e+00 0.000000e+00
4.500000e-01 0.000000e+00 0.000000e+00
4.503687e-01 1.993988e-01 0.000000e+00
4.506934e-01 3.986985e-01 0.000000e+00
4.509882e-01 5.978983e-01 0.000000e+00
4.512534e-01 7.969977e-01 0.000000e+00
4.514757e-01 9.959897e-01 0.000000e+00
4.516169e-01 1.194856e+00 0.000000e+00
4.516057e-01 1.393554e+00 0.000000e+00
4.513575e-01 1.591984e+00 0.000000e+00
4.508699e-01 1.789992e+00 0.000000e+00
4.500000e-01 1.987625e+00 0.000000e+00
6.750000e-01 0.000000e+00 0.000000e+00
6.754882e-01 1.994823e-01 0.000000e+00
6.758949e-01 3.989119e-01 0.000000e+00
6.762488e-01 5.983024e-01 0.000000e+00
6.765538e-01 7.976660e-01 0.000000e+00
6.768007e-01 9.970238e-01 0.000000e+00
6.769668e-01 1.196400e+00 0.000000e+00
6.770066e-01 1.395823e+00 0.000000e+00
6.768543e-01 1.595360e+00 0.000000e+00
6.764752e-01 1.795151e+00 0.000000e+00
6.748357e-01 1.995529e+00 0.000000e+00
9.000000e-01 0.000000e+00 0.000000e+00
9.005514e-01 1.995808e-01 0.000000e+00
9.009865e-01 3.991479e-01 0.000000e+00
9.013420e-01 5.987157e-01 0.000000e+00
9.016268e-01 7.983014e-01 0.000000e+00
9.018323e-01 9.979235e-01 0.000000e+00
9.019360e-01 1.197605e+00 0.000000e+00
9.018916e-01 1.397371e+00 0.000000e+00
9.016419e-01 1.597251e+00 0.000000e+00
9.010010e-01 1.797277e+00 0.000000e+00
8.998492e-01 1.997213e+00 0.000000e+00
1.125000e+00 0.000000e+00 0.000000e+00
1.125561e+00 1.996769e-01 0.000000e+00
1.125989e+00 3.993664e-01 0.000000e+00
1.126319e+00 5.990769e-01 0.000000e+00
1.126564e+00 7.988196e-01 0.000000e+00
1.126718e+00 9.986079e-01 0.000000e+00
1.126761e+00 1.198454e+00 0.000000e+00
1.126658e+00 1.398370e+00 0.000000e+00
1.126355e+00 1.598357e+00 0.000000e+00
1.125799e+00 1.798379e+00 0.000000e+00
1.125044e+00 1.998376e+00 0.000000e+00
1.350000e+00 0.000000e+00 0.000000e+00
1.350532e+00 1.997614e-01 0.000000e+00
1.350929e+00 3.995489e-01 0.000000e+00
1.351226e+00 5.993649e-01 0.000000e+00
1.351431e+00 7.992156e-01 0.000000e+00
1.351542e+00 9.991075e-01 0.000000e+00
1.351544e+00 1.199047e+00 0.000000e+00
1.351416e+00 1.399033e+00 0.000000e+00
1.351133e+00 1.599056e+00 0.000000e+00
1.350700e+00 1.799085e+00 0.000000e+00
1.350199e+00 1.999071e+00 0.000000e+00
1.575000e+00 0.000000e+00 0.000000e+00
1.575478e+00 1.998294e-01 0.000000e+00
1.575835e+00 3.996907e-01 0.000000e+00
1.576095e+00 5.995815e-01 0.000000e+00
1.576266e+00 7.995039e-01 0.000000e+00
1.576347e+00 9.994608e-01 0.000000e+00
1.576328e+00 1.199452e+00 0.000000e+00
1.576200e+00 1.399473e+00 0.000000e+00
1.575964e+00 1.599510e+00 0.000000e+00
1.575645e+00 1.799536e+00 0.000000e+00
1.575312e+00 1.999529e+00 0.000000e+00
1.800000e+00 0.000000e+00 0.000000e+00
1.800413e+00 1.998805e-01 0.000000e+00
1.800725e+00 3.997942e-01 0.000000e+00
1.800950e+00 5.997368e-01 0.000000e+00
1.801092e+00 7.997072e-01 0.000000e+00
1.801151e+00 9.997043e-01 0.000000e+00
1.801125e+00 1.199725e+00 0.000000e+00
1.801014e+00 1.399763e+00 0.000000e+00
1.800829e+00 1.599803e+00 0.000000e+00
1.800601e+00 1.799828e+00 0.000000e+00
1.800383e+00 1.999827e+00 0.000000e+00
2.025000e+00 0.000000e+00 0.000000e+00
2.025347e+00 1.999172e-01 0.000000e+00
2.025612e+00 3.998673e-01 0.000000e+00
2.025802e+00 5.998445e-01 0.000000e+00
2.025920e+00 7.998452e-01 0.000000e+00
2.025966e+00 9.998667e-01 0.000000e+00
2.025941e+00 1.199904e+00 0.000000e+00
2.025852e+00 1.399948e+00 0.000000e+00
2.025714e+00 1.599988e+00 0.000000e+00
2.025556e+00 1.800014e+00 0.000000e+00
2.025416e+00 2.000019e+00 0.000000e+00
2.250000e+00 0.000000e+00 0.000000e+00
2.250283e+00 1.999433e-01 0.000000e+00
2.250503e+00 3.999175e-01 0.000000e+00
2.250661e+00 5.999163e-01 0.000000e+00
2.250758e+00 7.999356e-01 0.000000e+00
2.250794e+00 9.999709e-01 0.000000e+00
2.250774e+00 1.200016e+00 0.000000e+00
2.250708e+00 1.400062e+00 0.000000e+00
2.250609e+00 1.600102e+00 0.000000e+00
2.250501e+00 1.800129e+00 0.000000e+00
2.250416e+00 2.000141e+00 0.000000e+00
2.475000e+00 0.000000e+00 0.000000e+00
2.475225e+00 1.999610e-01 0.000000e+00
2.475402e+00 3.999503e-01 0.000000e+00
2.475530e+00 5.999629e-01 0.000000e+00
2.475608e+00 7.999930e-01 0.000000e+00
2.475637e+00 1.000035e+00 0.000000e+00
2.475624e+00 1.200083e+00 0.000000e+00
2.475576e+00 1.400130e+00 0.000000e+00
2.475508e+00 1.600170e+00 0.000000e+00
2.475437e+00 1.800199e+00 0.000000e+00
2.475389e+00 2.000217e+00 0.000000e+00
2.700000e+00 0.000000e+00 0.000000e+00
2.700173e+00 1.999733e-01 0.000000e+00
2.700311e+00 3.999729e-01 0.000000e+00
2.700410e+00 5.999935e-01 0.000000e+00
2.700470e+00 8.000294e-01 0.000000e+00
2.700494e+00 1.000075e+00 0.000000e+00
2.700486e+00 1.200124e+00 0.000000e+00
2.700454e+00 1.400171e+00 0.000000e+00
2.700408e+00 1.600211e+00 0.000000e+00
2.700364e+00 1.800242e+00 0.000000e+00
2.700338e+00 2.000264e+00 0.000000e+00
2.925000e+00 0.000000e+00 0.000000e+00
2.925127e+00 1.999829e-01 0.000000e+00
2.925227e+00 3.999890e-01 0.000000e+00
2.925299e+00 6.000144e-01 0.000000e+00
2.925344e+00 8.000537e-01 0.000000e+00
2.925361e+00 1.000101e+00 0.000000e+00
2.925357e+00 1.200150e+00 0.000000e+00
2.925337e+00 1.400196e+00 0.000000e+00
2.925308e+00 1.600237e+00 0.000000e+00
2.925281e+00 1.800269e+00 0.000000e+00
2.925270e+00 2.000295e+00 0.000000e+00
3.150000e+00 0.000000e+00 0.000000e+00
3.150084e+00 1.999901e-01 0.000000e+00
3.150150e+00 4.000016e-01 0.000000e+00
3.150197e+00 6.000313e-01 0.000000e+00
3.150225e+00 8.000732e-01 0.000000e+00
3.150237e+00 1.000121e+00 0.000000e+00
3.150235e+00 1.200170e+00 0.000000e+00
3.150223e+00 1.400216e+00 0.000000e+00
3.150206e+00 1.600257e+00 0.000000e+00
3.150192e+00 1.800290e+00 0.000000e+00
3.150187e+00 2.000319e+00 0.000000e+00
3.375000e+00 0.000000e+00 0.000000e+00
3.375044e+00 1.999971e-01 0.000000e+00
3.375075e+00 4.000156e-01 0.000000e+00
3.375098e+00 6.000494e-01 0.000000e+00
3.375111e+00 8.000934e-01 0.000000e+00
3.375117e+00 1.000142e+00 0.000000e+00
3.375116e+00 1.200191e+00 0.000000e+00
3.375111e+00 1.400237e+00 0.000000e+00
3.375103e+00 1.600277e+00 0.000000e+00
3.375097e+00 1.800312e+00 0.000000e+00
3.375096e+00 2.000343e+00 0.000000e+00
3.600000e+00 0.000000e+00 0.000000e+00
3.600000e+00 2.000132e-01 0.000000e+00
3.600000e+00 4.000377e-01 0.000000e+00
3.600000e+00 6.000736e-01 0.000000e+00
3.600000e+00 8.001183e-01 0.000000e+00
3.600000e+00 1.000167e+00 0.000000e+00
3.600000e+00 1.200216e+00 0.000000e+00
3.600000e+00 1.400262e+00 0.000000e+00
3.600000e+00 1.600302e+00 0.000000e+00
3.600000e+00 1.800337e+00 0.000000e+00
3.600000e+00 2.000368e+00 0.000000e+00
</DataArray>
</Points>
<Cells>
<DataArray Name="connectivity" type="Int32" format="ascii">
0 11 12 1
1 12 13 2
2 13 14 3
3 14 15 4
4 15 16 5
5 16 17 6
6 17 18 7
7 18 19 8
8 19 20 9
9 20 21 10
11 22 23 12
12 23 24 13
13 24 25 14
14 25 26 15
15 26 27 16
16 27 28 17
17 28 29 18
18 29 30 19
19 30 31 20
20 31 32 21
22 33 34 23
23 34 35 24
24 35 36 25
25 36 37 26
26 37 38 27
27 38 39 28
28 39 40 29
29 40 41 30
30 41 42 31
31 42 43 32
33 44 45 34
34 45 46 35
35 46 47 36
36 47 48 37
37 48 49 38
38 49 50 39
39 50 51 40
40 51 52 41
41 52 53 42
42 53 54 43
44 55 56 45
45 56 57 46
46 57 58 47
47 58 59 48
48 59 60 49
49 60 61 50
50 61 62 51
51 62 63 52
52 63 64 53
53 64 65 54
55 66 67 56
56 67 68 57
57 68 69 58
58 69 70 59
59 70 71 60
60 71 72 61
61 72 73 62
62 73 74 63
63 74 75 64
64 75 76 65
66 77 78 67
67 78 79 68
68 79 80 69
69 80 81 70
70 81 82 71
71 82 83 72
72 83 84 73
73 84 85 74
74 85 86 75
75 86 87 76
77 88 89 78
78 89 90 79
79 90 91 80
80 91 92 81
81 92 93 82
82 93 94 83
83 94 95 84
84 95 96 85
85 96 97 86
86 97 98 87
88 99 100 89
89 100 101 90
90 101 102 91
91 102 103 92
92 103 104 93
93 104 105 94
94 105 106 95
95 106 107 96
96 107 108 97
97 108 109 98
99 110 111 100
100 111 112 101
101 112 113 102
102 113 114 103
103 114 115 104
104 115 116 105
105 116 117 106
106 117 118 107
107 118 119 108
108 119 120 109
110 121 122 111
111 122 123 112
112 123 124 113
113 124 125 114
114 125 126 115
115 126 127 116
116 127 128 117
117 128 129 118
118 129 130 119
119 130 131 120
121 132 133 122
122 133 134 123
123 134 135 124
124 135 136 125
125 136 137 126
126 137 138 127
127 138 139 128
128 139 140 129
129 140 141 130
130 141 142 131
132 143 144 133
133 144 145 134
134 145 146 135
135 146 147 136
136 147 148 137
137 148 149 138
138 149 150 139
139 150 151 140
140 151 152 141
141 152 153 142
143 154 155 144
144 155 156 145
145 156 157 146
146 157 158 147
147 158 159 148
148 159 160 149
149 160 161 150
150 161 162 151
151 162 163 152
152 163 164 153
154 165 166 155
155 166 167 156
156 167 168 157
157 168 169 158
158 169 170 159
159 170 171 160
160 171 172 161
161 172 173 162
162 173 174 163
163 174 175 164
165 176 177 166
166 177 178 167
167 178 179 168
168 179 180 169
169 180 181 170
170 181 182 171
171 182 183 172
172 183 184 173
173 184 185 174
174 185 186 175
</DataArray>
<DataArray Name="offsets" type="Int32" format="ascii">
4
8
12
16
20
24
28
32
36
40
44
48
52
56
60
64
68
72
76
80
84
88
92
96
100
104
108
112
116
120
124
128
132
136
140
144
148
152
156
160
164
168
172
176
180
184
188
192
196
200
204
208
212
216
220
224
228
232
236
240
244
248
252
256
260
264
268
272
276
280
284
288
292
296
300
304
308
312
316
320
324
328
332
336
340
344
348
352
356
360
364
368
372
376
380
384
388
392
396
400
404
408
412
416
420
424
428
432
436
440
444
448
452
456
460
464
468
472
476
480
484
488
492
496
500
504
508
512
516
520
524
528
532
536
540
544
548
552
556
560
564
568
572
576
580
584
588
592
596
600
604
608
612
616
620
624
628
632
636
640
</DataArray>
<DataArray Name="types" type="UInt8" format="ascii">
9
9
9
9
9
9
9
9
9
9
9
9
9
9
9
9
9
9
9
9
9
9
9
9
9
9
9
9
9
9
9
9
9
9
9
9
9
9
9
9
9
9
9
9
9
9
9
9
9
9
9
9
9
9
9
9
9
9
9
9
9
9
9
9
9
9
9
9
9
9
9
9
9
9
9
9
9
9
9
9
9
9
9
9
9
9
9
9
9
9
9
9
9
9
9
9
9
9
9
9
9
9
9
9
9
9
9
9
9
9
9
9
9
9
9
9
9
9
9
9
9
9
9
9
9
9
9
9
9
9
9
9
9
9
9
9
9
9
9
9
9
9
9
9
9
9
9
9
9
9
9
9
9
9
9
9
9
9
9
9
</DataArray>
</Cells>
<PointData>
<DataArray Name="disp" type="Float64" NumberOfComponents="3" format="ascii">
0.000000e+00 0.000000e+00 0.000000e+00
0.000000e+00 -6.926755e-04 0.000000e+00
0.000000e+00 -1.540886e-03 0.000000e+00
0.000000e+00 -2.556167e-03 0.000000e+00
0.000000e+00 -3.751315e-03 0.000000e+00
0.000000e+00 -5.133150e-03 0.000000e+00
0.000000e+00 -6.674964e-03 0.000000e+00
0.000000e+00 -8.298573e-03 0.000000e+00
0.000000e+00 -9.857508e-03 0.000000e+00
0.000000e+00 -1.117137e-02 0.000000e+00
0.000000e+00 -1.237500e-02 0.000000e+00
0.000000e+00 0.000000e+00 0.000000e+00
2.008814e-04 -6.616520e-04 0.000000e+00
3.811904e-04 -1.466231e-03 0.000000e+00
5.501197e-04 -2.422675e-03 0.000000e+00
7.071855e-04 -3.536171e-03 0.000000e+00
8.312674e-04 -4.813330e-03 0.000000e+00
8.841719e-04 -6.252356e-03 0.000000e+00
8.019641e-04 -7.830909e-03 0.000000e+00
5.217805e-04 -9.476519e-03 0.000000e+00
1.144178e-04 -1.107143e-02 0.000000e+00
0.000000e+00 -1.237500e-02 0.000000e+00
0.000000e+00 0.000000e+00 0.000000e+00
3.687184e-04 -6.012312e-04 0.000000e+00
6.933642e-04 -1.301450e-03 0.000000e+00
9.882259e-04 -2.101714e-03 0.000000e+00
1.253446e-03 -3.002265e-03 0.000000e+00
1.475661e-03 -4.010330e-03 0.000000e+00
1.616910e-03 -5.143560e-03 0.000000e+00
1.605727e-03 -6.445603e-03 0.000000e+00
1.357508e-03 -8.015621e-03 0.000000e+00
8.698646e-04 -1.000822e-02 0.000000e+00
0.000000e+00 -1.237500e-02 0.000000e+00
0.000000e+00 0.000000e+00 0.000000e+00
4.881894e-04 -5.176718e-04 0.000000e+00
8.948815e-04 -1.088125e-03 0.000000e+00
1.248841e-03 -1.697569e-03 0.000000e+00
1.553773e-03 -2.333985e-03 0.000000e+00
1.800677e-03 -2.976255e-03 0.000000e+00
1.966851e-03 -3.600333e-03 0.000000e+00
2.006585e-03 -4.176550e-03 0.000000e+00
1.854298e-03 -4.639662e-03 0.000000e+00
1.475227e-03 -4.848908e-03 0.000000e+00
-1.642442e-04 -4.470837e-03 0.000000e+00
0.000000e+00 0.000000e+00 0.000000e+00
5.514653e-04 -4.191695e-04 0.000000e+00
9.865210e-04 -8.520624e-04 0.000000e+00
1.341978e-03 -1.284270e-03 0.000000e+00
1.626810e-03 -1.698574e-03 0.000000e+00
1.832322e-03 -2.076482e-03 0.000000e+00
1.936010e-03 -2.395435e-03 0.000000e+00
1.891561e-03 -2.628619e-03 0.000000e+00
1.641924e-03 -2.748549e-03 0.000000e+00
1.001063e-03 -2.723126e-03 0.000000e+00
-1.507436e-04 -2.787180e-03 0.000000e+00
0.000000e+00 0.000000e+00 0.000000e+00
5.613581e-04 -3.231378e-04 0.000000e+00
9.887132e-04 -6.335741e-04 0.000000e+00
1.319187e-03 -9.231507e-04 0.000000e+00
1.563965e-03 -1.180372e-03 0.000000e+00
1.718114e-03 -1.392097e-03 0.000000e+00
1.761061e-03 -1.545572e-03 0.000000e+00
1.657768e-03 -1.630172e-03 0.000000e+00
1.355080e-03 -1.642708e-03 0.000000e+00
7.991819e-04 -1.621409e-03 0.000000e+00
4.379455e-05 -1.623611e-03 0.000000e+00
0.000000e+00 0.000000e+00 0.000000e+00
5.317709e-04 -2.385835e-04 0.000000e+00
9.292610e-04 -4.511063e-04 0.000000e+00
1.225652e-03 -6.350711e-04 0.000000e+00
1.431050e-03 -7.844270e-04 0.000000e+00
1.542011e-03 -8.924531e-04 0.000000e+00
1.544482e-03 -9.532477e-04 0.000000e+00
1.415858e-03 -9.669968e-04 0.000000e+00
1.133505e-03 -9.442407e-04 0.000000e+00
7.004167e-04 -9.145417e-04 0.000000e+00
1.994139e-04 -9.286751e-04 0.000000e+00
0.000000e+00 0.000000e+00 0.000000e+00
4.782723e-04 -1.705649e-04 0.000000e+00
8.352341e-04 -3.092845e-04 0.000000e+00
1.095395e-03 -4.184656e-04 0.000000e+00
1.266415e-03 -4.960956e-04 0.000000e+00
1.346481e-03 -5.391804e-04 0.000000e+00
1.327568e-03 -5.478452e-04 0.000000e+00
1.200291e-03 -5.267430e-04 0.000000e+00
9.638629e-04 -4.899204e-04 0.000000e+00
6.454334e-04 -4.639322e-04 0.000000e+00
3.123448e-04 -4.711702e-04 0.000000e+00
0.000000e+00 0.000000e+00 0.000000e+00
4.135082e-04 -1.194604e-04 0.000000e+00
7.254372e-04 -2.058102e-04 0.000000e+00
9.498992e-04 -2.632533e-04 0.000000e+00
1.091923e-03 -2.927645e-04 0.000000e+00
1.151341e-03 -2.957013e-04 0.000000e+00
1.124865e-03 -2.746735e-04 0.000000e+00
1.013711e-03 -2.371139e-04 0.000000e+00
8.293567e-04 -1.973091e-04 0.000000e+00
6.015305e-04 -1.720429e-04 0.000000e+00
3.828635e-04 -1.732524e-04 0.000000e+00
0.000000e+00 0.000000e+00 0.000000e+00
3.465495e-04 -8.276552e-05 0.000000e+00
6.124685e-04 -1.326828e-04 0.000000e+00
8.024184e-04 -1.554809e-04 0.000000e+00
9.202500e-04 -1.547961e-04 0.000000e+00
9.657014e-04 -1.332646e-04 0.000000e+00
9.406322e-04 -9.622816e-05 0.000000e+00
8.516089e-04 -5.206502e-05 0.000000e+00
7.144079e-04 -1.181522e-05 0.000000e+00
5.555020e-04 1.386379e-05 0.000000e+00
4.159206e-04 1.942088e-05 0.000000e+00
0.000000e+00 0.000000e+00 0.000000e+00
2.829669e-04 -5.674133e-05 0.000000e+00
5.032763e-04 -8.246380e-05 0.000000e+00
6.614474e-04 -8.373093e-05 0.000000e+00
7.578045e-04 -6.437177e-05 0.000000e+00
7.940248e-04 -2.915204e-05 0.000000e+00
7.744053e-04 1.572529e-05 0.000000e+00
7.076684e-04 6.226134e-05 0.000000e+00
6.092388e-04 1.022728e-04 0.000000e+00
5.014265e-04 1.294315e-04 0.000000e+00
4.161613e-04 1.412730e-04 0.000000e+00
0.000000e+00 0.000000e+00 0.000000e+00
2.246257e-04 -3.902043e-05 0.000000e+00
4.022990e-04 -4.967472e-05 0.000000e+00
5.303699e-04 -3.712784e-05 0.000000e+00
6.076815e-04 -6.946475e-06 0.000000e+00
6.371616e-04 3.545089e-05 0.000000e+00
6.237839e-04 8.345090e-05 0.000000e+00
5.764338e-04 1.304314e-04 0.000000e+00
5.082246e-04 1.704718e-04 0.000000e+00
4.374261e-04 1.993994e-04 0.000000e+00
3.887622e-04 2.168992e-04 0.000000e+00
0.000000e+00 0.000000e+00 0.000000e+00
1.726274e-04 -2.668543e-05 0.000000e+00
3.106119e-04 -2.704021e-05 0.000000e+00
4.099183e-04 -6.520805e-06 0.000000e+00
4.701243e-04 2.941909e-05 0.000000e+00
4.937973e-04 7.496149e-05 0.000000e+00
4.857419e-04 1.239603e-04 0.000000e+00
4.536981e-04 1.707598e-04 0.000000e+00
4.082369e-04 2.108705e-04 0.000000e+00
3.635883e-04 2.416085e-04 0.000000e+00
3.383849e-04 2.638903e-04 0.000000e+00
0.000000e+00 0.000000e+00 0.000000e+00
1.265598e-04 -1.709830e-05 0.000000e+00
2.270321e-04 -1.099192e-05 0.000000e+00
2.994543e-04 1.441564e-05 0.000000e+00
3.434833e-04 5.371061e-05 0.000000e+00
3.613706e-04 1.007814e-04 0.000000e+00
3.570134e-04 1.499753e-04 0.000000e+00
3.365393e-04 1.964091e-04 0.000000e+00
3.077195e-04 2.365317e-04 0.000000e+00
2.810366e-04 2.689016e-04 0.000000e+00
2.695968e-04 2.950868e-04 0.000000e+00
0.000000e+00 0.000000e+00 0.000000e+00
8.437081e-05 -9.884471e-06 0.000000e+00
1.496580e-04 1.629139e-06 0.000000e+00
1.964895e-04 3.134055e-05 0.000000e+00
2.248699e-04 7.319416e-05 0.000000e+00
2.368230e-04 1.212712e-04 0.000000e+00
2.347313e-04 1.703686e-04 0.000000e+00
2.227752e-04 2.164251e-04 0.000000e+00
2.060980e-04 2.566196e-04 0.000000e+00
1.914736e-04 2.903043e-04 0.000000e+00
1.870806e-04 3.194752e-04 0.000000e+00
0.000000e+00 0.000000e+00 0.000000e+00
4.405627e-05 -2.896537e-06 0.000000e+00
7.495921e-05 1.558707e-05 0.000000e+00
9.751516e-05 4.945149e-05 0.000000e+00
1.112757e-04 9.340970e-05 0.000000e+00
1.172440e-04 1.421976e-04 0.000000e+00
1.164583e-04 1.912717e-04 0.000000e+00
1.109582e-04 2.370394e-04 0.000000e+00
1.033898e-04 2.773327e-04 0.000000e+00
9.701340e-05 3.118146e-04 0.000000e+00
9.569008e-05 3.426477e-04 0.000000e+00
0.000000e+00 0.000000e+00 0.000000e+00
0.000000e+00 1.318666e-05 0.000000e+00
0.000000e+00 3.769638e-05 0.000000e+00
0.000000e+00 7.361684e-05 0.000000e+00
0.000000e+00 1.182391e-04 0.000000e+00
0.000000e+00 1.672591e-04 0.000000e+00
0.000000e+00 2.163488e-04 0.000000e+00
0.000000e+00 2.619906e-04 0.000000e+00
0.000000e+00 3.021515e-04 0.000000e+00
0.000000e+00 3.368838e-04 0.000000e+00
0.000000e+00 3.683254e-04 0.000000e+00
</DataArray>
<DataArray Name="shear" type="Float64" NumberOfComponents="1" format="ascii">
3.734063e-03
4.696864e-03
6.299379e-03
7.905268e-03
9.496666e-03
1.090875e-02
1.178147e-02
1.155572e-02
9.785750e-03
7.357868e-03
6.371804e-03
3.712249e-03
4.583378e-03
6.038247e-03
7.498058e-03
8.953985e-03
1.033438e-02
1.143025e-02
1.186488e-02
1.129445e-02
9.563251e-03
7.992432e-03
3.731261e-03
4.362078e-03
5.409793e-03
6.499598e-03
7.654808e-03
8.925513e-03
1.034708e-02
1.195782e-02
1.390793e-02
1.521807e-02
1.528248e-02
3.712049e-03
4.060776e-03
4.610675e-03
5.224786e-03
5.912422e-03
6.721138e-03
7.721535e-03
9.016823e-03
1.084644e-02
1.175819e-02
1.246956e-02
3.580454e-03
3.681601e-03
3.816569e-03
4.046325e-03
4.322133e-03
4.612322e-03
4.852396e-03
4.947551e-03
4.567604e-03
2.804194e-03
8.252214e-04
3.326712e-03
3.256863e-03
3.113387e-03
3.101822e-03
3.134621e-03
3.149730e-03
3.070324e-03
2.792251e-03
2.128230e-03
8.862716e-04
4.184655e-04
2.982625e-03
2.826618e-03
2.545542e-03
2.405870e-03
2.315975e-03
2.214714e-03
2.042395e-03
1.731177e-03
1.197994e-03
3.692012e-04
3.395784e-04
2.591491e-03
2.411036e-03
2.096156e-03
1.909144e-03
1.774384e-03
1.642791e-03
1.473603e-03
1.222847e-03
8.305572e-04
2.387888e-04
2.392600e-04
2.192125e-03
2.024010e-03
1.737092e-03
1.556519e-03
1.427859e-03
1.312888e-03
1.180399e-03
9.901929e-04
6.943948e-04
2.587489e-04
1.016319e-04
1.812067e-03
1.673139e-03
1.443740e-03
1.299090e-03
1.202887e-03
1.123130e-03
1.026779e-03
8.787879e-04
6.471474e-04
3.091662e-04
5.983861e-05
1.465632e-03
1.358220e-03
1.194465e-03
1.101049e-03
1.049016e-03
1.004953e-03
9.363217e-04
8.172946e-04
6.305953e-04
3.676112e-04
1.866679e-04
1.156847e-03
1.080110e-03
9.823906e-04
9.460656e-04
9.372813e-04
9.220667e-04
8.735286e-04
7.768178e-04
6.256208e-04
4.269891e-04
3.042586e-04
8.866414e-04
8.385609e-04
8.036740e-04
8.233363e-04
8.533390e-04
8.602540e-04
8.266291e-04
7.474797e-04
6.264523e-04
4.829074e-04
4.044398e-04
6.488882e-04
6.268810e-04
6.557517e-04
7.312918e-04
7.937714e-04
8.162173e-04
7.925748e-04
7.268580e-04
6.312210e-04
5.318856e-04
4.850425e-04
4.341010e-04
4.455712e-04
5.508640e-04
6.746635e-04
7.576268e-04
7.882342e-04
7.703723e-04
7.149260e-04
6.390612e-04
5.709598e-04
5.442265e-04
2.407607e-04
3.237121e-04
5.029333e-04
6.497228e-04
7.399598e-04
7.741650e-04
7.600982e-04
7.117402e-04
6.487364e-04
5.977903e-04
5.808037e-04
1.426817e-04
2.908468e-04
4.916675e-04
6.407782e-04
7.332182e-04
7.699589e-04
7.585695e-04
7.134637e-04
6.551210e-04
6.088693e-04
5.939765e-04
</DataArray>
<DataArray Name="stress" type="Float64" NumberOfComponents="9" format="ascii">
-7.179389e+04 9.439167e+02 0.000000e+00 9.439167e+02 -9.656295e+04 0.000000e+00 0.000000e+00 0.000000e+00 0.000000e+00
-6.825428e+04 1.117403e+03 0.000000e+00 1.117403e+03 -9.711580e+04 0.000000e+00 0.000000e+00 0.000000e+00 0.000000e+00
-6.547674e+04 1.360613e+03 0.000000e+00 1.360613e+03 -1.000030e+05 0.000000e+00 0.000000e+00 0.000000e+00 0.000000e+00
-6.438304e+04 1.744303e+03 0.000000e+00 1.744303e+03 -1.033148e+05 0.000000e+00 0.000000e+00 0.000000e+00 0.000000e+00
-6.468186e+04 2.276331e+03 0.000000e+00 2.276331e+03 -1.072388e+05 0.000000e+00 0.000000e+00 0.000000e+00 0.000000e+00
-6.612765e+04 2.757227e+03 0.000000e+00 2.757227e+03 -1.119143e+05 0.000000e+00 0.000000e+00 0.000000e+00 0.000000e+00
-6.858289e+04 3.113336e+03 0.000000e+00 3.113336e+03 -1.170445e+05 0.000000e+00 0.000000e+00 0.000000e+00 0.000000e+00
-7.207045e+04 3.015280e+03 0.000000e+00 3.015280e+03 -1.220113e+05 0.000000e+00 0.000000e+00 0.000000e+00 0.000000e+00
-7.704592e+04 1.860741e+03 0.000000e+00 1.860741e+03 -1.257150e+05 0.000000e+00 0.000000e+00 0.000000e+00 0.000000e+00
-8.408722e+04 8.175240e+01 0.000000e+00 8.175240e+01 -1.274438e+05 0.000000e+00 0.000000e+00 0.000000e+00 0.000000e+00
-8.677712e+04 -3.945184e+02 0.000000e+00 -3.945184e+02 -1.267566e+05 0.000000e+00 0.000000e+00 0.000000e+00 0.000000e+00
-7.153541e+04 2.989371e+03 0.000000e+00 2.989371e+03 -9.523030e+04 0.000000e+00 0.000000e+00 0.000000e+00 0.000000e+00
-6.825107e+04 3.070160e+03 0.000000e+00 3.070160e+03 -9.574864e+04 0.000000e+00 0.000000e+00 0.000000e+00 0.000000e+00
-6.569984e+04 3.333461e+03 0.000000e+00 3.333461e+03 -9.839679e+04 0.000000e+00 0.000000e+00 0.000000e+00 0.000000e+00
-6.476180e+04 3.939339e+03 0.000000e+00 3.939339e+03 -1.014166e+05 0.000000e+00 0.000000e+00 0.000000e+00 0.000000e+00
-6.509877e+04 4.779798e+03 0.000000e+00 4.779798e+03 -1.049860e+05 0.000000e+00 0.000000e+00 0.000000e+00 0.000000e+00
-6.653016e+04 5.637279e+03 0.000000e+00 5.637279e+03 -1.093067e+05 0.000000e+00 0.000000e+00 0.000000e+00 0.000000e+00
-6.886742e+04 6.210384e+03 0.000000e+00 6.210384e+03 -1.144010e+05 0.000000e+00 0.000000e+00 0.000000e+00 0.000000e+00
-7.201271e+04 5.978559e+03 0.000000e+00 5.978559e+03 -1.201101e+05 0.000000e+00 0.000000e+00 0.000000e+00 0.000000e+00
-7.632547e+04 4.297249e+03 0.000000e+00 4.297249e+03 -1.261691e+05 0.000000e+00 0.000000e+00 0.000000e+00 0.000000e+00
-8.219842e+04 1.525240e+03 0.000000e+00 1.525240e+03 -1.306826e+05 0.000000e+00 0.000000e+00 0.000000e+00 0.000000e+00
-8.878512e+04 -1.037247e+03 0.000000e+00 -1.037247e+03 -1.351815e+05 0.000000e+00 0.000000e+00 0.000000e+00 0.000000e+00
-7.096027e+04 5.553271e+03 0.000000e+00 5.553271e+03 -9.211013e+04 0.000000e+00 0.000000e+00 0.000000e+00 0.000000e+00
-6.830427e+04 5.622219e+03 0.000000e+00 5.622219e+03 -9.242059e+04 0.000000e+00 0.000000e+00 0.000000e+00 0.000000e+00
-6.630953e+04 6.057310e+03 0.000000e+00 6.057310e+03 -9.435438e+04 0.000000e+00 0.000000e+00 0.000000e+00 0.000000e+00
-6.579465e+04 7.106116e+03 0.000000e+00 7.106116e+03 -9.644237e+04 0.000000e+00 0.000000e+00 0.000000e+00 0.000000e+00
-6.637018e+04 8.599945e+03 0.000000e+00 8.599945e+03 -9.890992e+04 0.000000e+00 0.000000e+00 0.000000e+00 0.000000e+00
-6.787250e+04 1.032701e+04 0.000000e+00 1.032701e+04 -1.019079e+05 0.000000e+00 0.000000e+00 0.000000e+00 0.000000e+00
-7.015475e+04 1.202403e+04 0.000000e+00 1.202403e+04 -1.057109e+05 0.000000e+00 0.000000e+00 0.000000e+00 0.000000e+00
-7.332971e+04 1.353927e+04 0.000000e+00 1.353927e+04 -1.111197e+05 0.000000e+00 0.000000e+00 0.000000e+00 0.000000e+00
-7.837905e+04 1.443873e+04 0.000000e+00 1.443873e+04 -1.195594e+05 0.000000e+00 0.000000e+00 0.000000e+00 0.000000e+00
-8.799387e+04 1.369085e+04 0.000000e+00 1.369085e+04 -1.316694e+05 0.000000e+00 0.000000e+00 0.000000e+00 0.000000e+00
-1.040729e+05 1.310925e+04 0.000000e+00 1.310925e+04 -1.462283e+05 0.000000e+00 0.000000e+00 0.000000e+00 0.000000e+00
-7.004280e+04 7.249268e+03 0.000000e+00 7.249268e+03 -8.789356e+04 0.000000e+00 0.000000e+00 0.000000e+00 0.000000e+00
-6.829382e+04 7.304565e+03 0.000000e+00 7.304565e+03 -8.799672e+04 0.000000e+00 0.000000e+00 0.000000e+00 0.000000e+00
-6.713523e+04 7.714159e+03 0.000000e+00 7.714159e+03 -8.905280e+04 0.000000e+00 0.000000e+00 0.000000e+00 0.000000e+00
-6.712427e+04 8.820653e+03 0.000000e+00 8.820653e+03 -8.991881e+04 0.000000e+00 0.000000e+00 0.000000e+00 0.000000e+00
-6.792532e+04 1.035472e+04 0.000000e+00 1.035472e+04 -9.050670e+04 0.000000e+00 0.000000e+00 0.000000e+00 0.000000e+00
-6.924053e+04 1.208190e+04 0.000000e+00 1.208190e+04 -9.069414e+04 0.000000e+00 0.000000e+00 0.000000e+00 0.000000e+00
-7.082506e+04 1.384172e+04 0.000000e+00 1.384172e+04 -9.015831e+04 0.000000e+00 0.000000e+00 0.000000e+00 0.000000e+00
-7.225566e+04 1.557270e+04 0.000000e+00 1.557270e+04 -8.841502e+04 0.000000e+00 0.000000e+00 0.000000e+00 0.000000e+00
-7.337918e+04 1.676644e+04 0.000000e+00 1.676644e+04 -8.435545e+04 0.000000e+00 0.000000e+00 0.000000e+00 0.000000e+00
-7.325280e+04 1.465358e+04 0.000000e+00 1.465358e+04 -7.572919e+04 0.000000e+00 0.000000e+00 0.000000e+00 0.000000e+00
-7.261223e+04 1.272429e+04 0.000000e+00 1.272429e+04 -7.136846e+04 0.000000e+00 0.000000e+00 0.000000e+00 0.000000e+00
-6.881230e+04 8.107448e+03 0.000000e+00 8.107448e+03 -8.302582e+04 0.000000e+00 0.000000e+00 0.000000e+00 0.000000e+00
-6.811483e+04 8.097035e+03 0.000000e+00 8.097035e+03 -8.298684e+04 0.000000e+00 0.000000e+00 0.000000e+00 0.000000e+00
-6.788726e+04 8.277170e+03 0.000000e+00 8.277170e+03 -8.317930e+04 0.000000e+00 0.000000e+00 0.000000e+00 0.000000e+00
-6.841410e+04 9.028548e+03 0.000000e+00 9.028548e+03 -8.304415e+04 0.000000e+00 0.000000e+00 0.000000e+00 0.000000e+00
-6.947395e+04 1.002930e+04 0.000000e+00 1.002930e+04 -8.238677e+04 0.000000e+00 0.000000e+00 0.000000e+00 0.000000e+00
-7.087454e+04 1.101508e+04 0.000000e+00 1.101508e+04 -8.102635e+04 0.000000e+00 0.000000e+00 0.000000e+00 0.000000e+00
-7.243345e+04 1.175818e+04 0.000000e+00 1.175818e+04 -7.872782e+04 0.000000e+00 0.000000e+00 0.000000e+00 0.000000e+00
-7.376546e+04 1.189250e+04 0.000000e+00 1.189250e+04 -7.522894e+04 0.000000e+00 0.000000e+00 0.000000e+00 0.000000e+00
-7.443286e+04 1.065380e+04 0.000000e+00 1.065380e+04 -7.005620e+04 0.000000e+00 0.000000e+00 0.000000e+00 0.000000e+00
-7.193467e+04 6.120508e+03 0.000000e+00 6.120508e+03 -6.494878e+04 0.000000e+00 0.000000e+00 0.000000e+00 0.000000e+00
-6.147659e+04 1.884195e+03 0.000000e+00 1.884195e+03 -5.971661e+04 0.000000e+00 0.000000e+00 0.000000e+00 0.000000e+00
-6.746877e+04 8.233599e+03 0.000000e+00 8.233599e+03 -7.818085e+04 0.000000e+00 0.000000e+00 0.000000e+00 0.000000e+00
-6.771801e+04 8.132453e+03 0.000000e+00 8.132453e+03 -7.805699e+04 0.000000e+00 0.000000e+00 0.000000e+00 0.000000e+00
-6.828229e+04 7.990580e+03 0.000000e+00 7.990580e+03 -7.762827e+04 0.000000e+00 0.000000e+00 0.000000e+00 0.000000e+00
-6.918924e+04 8.261359e+03 0.000000e+00 8.261359e+03 -7.682994e+04 0.000000e+00 0.000000e+00 0.000000e+00 0.000000e+00
-7.032434e+04 8.614207e+03 0.000000e+00 8.614207e+03 -7.554803e+04 0.000000e+00 0.000000e+00 0.000000e+00 0.000000e+00
-7.155184e+04 8.787056e+03 0.000000e+00 8.787056e+03 -7.366740e+04 0.000000e+00 0.000000e+00 0.000000e+00 0.000000e+00
-7.262018e+04 8.532636e+03 0.000000e+00 8.532636e+03 -7.114673e+04 0.000000e+00 0.000000e+00 0.000000e+00 0.000000e+00
-7.305505e+04 7.500350e+03 0.000000e+00 7.500350e+03 -6.794277e+04 0.000000e+00 0.000000e+00 0.000000e+00 0.000000e+00
-7.180918e+04 5.203980e+03 0.000000e+00 5.203980e+03 -6.447342e+04 0.000000e+00 0.000000e+00 0.000000e+00 0.000000e+00
-6.560553e+04 1.829347e+03 0.000000e+00 1.829347e+03 -6.178895e+04 0.000000e+00 0.000000e+00 0.000000e+00 0.000000e+00
-5.695991e+04 1.773945e+02 0.000000e+00 1.773945e+02 -5.951675e+04 0.000000e+00 0.000000e+00 0.000000e+00 0.000000e+00
-6.610624e+04 7.789546e+03 0.000000e+00 7.789546e+03 -7.380048e+04 0.000000e+00 0.000000e+00 0.000000e+00 0.000000e+00
-6.708686e+04 7.605046e+03 0.000000e+00 7.605046e+03 -7.362412e+04 0.000000e+00 0.000000e+00 0.000000e+00 0.000000e+00
-6.824707e+04 7.167471e+03 0.000000e+00 7.167471e+03 -7.285409e+04 0.000000e+00 0.000000e+00 0.000000e+00 0.000000e+00
-6.935343e+04 6.994092e+03 0.000000e+00 6.994092e+03 -7.181214e+04 0.000000e+00 0.000000e+00 0.000000e+00 0.000000e+00
-7.040192e+04 6.814058e+03 0.000000e+00 6.814058e+03 -7.041238e+04 0.000000e+00 0.000000e+00 0.000000e+00 0.000000e+00
-7.129120e+04 6.408297e+03 0.000000e+00 6.408297e+03 -6.862646e+04 0.000000e+00 0.000000e+00 0.000000e+00 0.000000e+00
-7.176456e+04 5.581258e+03 0.000000e+00 5.581258e+03 -6.648896e+04 0.000000e+00 0.000000e+00 0.000000e+00 0.000000e+00
-7.126488e+04 4.141060e+03 0.000000e+00 4.141060e+03 -6.414977e+04 0.000000e+00 0.000000e+00 0.000000e+00 0.000000e+00
-6.875642e+04 2.078523e+03 0.000000e+00 2.078523e+03 -6.200856e+04 0.000000e+00 0.000000e+00 0.000000e+00 0.000000e+00
-6.293501e+04 2.231868e+02 0.000000e+00 2.231868e+02 -6.060108e+04 0.000000e+00 0.000000e+00 0.000000e+00 0.000000e+00
-5.701930e+04 -4.845151e+02 0.000000e+00 -4.845151e+02 -5.941755e+04 0.000000e+00 0.000000e+00 0.000000e+00 0.000000e+00
-6.488311e+04 7.017392e+03 0.000000e+00 7.017392e+03 -7.017588e+04 0.000000e+00 0.000000e+00 0.000000e+00 0.000000e+00
-6.631782e+04 6.781644e+03 0.000000e+00 6.781644e+03 -6.998845e+04 0.000000e+00 0.000000e+00 0.000000e+00 0.000000e+00
-6.784983e+04 6.162421e+03 0.000000e+00 6.162421e+03 -6.910747e+04 0.000000e+00 0.000000e+00 0.000000e+00 0.000000e+00
-6.904041e+04 5.668582e+03 0.000000e+00 5.668582e+03 -6.805996e+04 0.000000e+00 0.000000e+00 0.000000e+00 0.000000e+00
-6.994970e+04 5.124792e+03 0.000000e+00 5.124792e+03 -6.677727e+04 0.000000e+00 0.000000e+00 0.000000e+00 0.000000e+00
-7.051369e+04 4.389291e+03 0.000000e+00 4.389291e+03 -6.528254e+04 0.000000e+00 0.000000e+00 0.000000e+00 0.000000e+00
-7.048162e+04 3.337919e+03 0.000000e+00 3.337919e+03 -6.365922e+04 0.000000e+00 0.000000e+00 0.000000e+00 0.000000e+00
-6.939188e+04 1.938916e+03 0.000000e+00 1.938916e+03 -6.209078e+04 0.000000e+00 0.000000e+00 0.000000e+00 0.000000e+00
-6.668003e+04 4.429454e+02 0.000000e+00 4.429454e+02 -6.086562e+04 0.000000e+00 0.000000e+00 0.000000e+00 0.000000e+00
-6.197554e+04 -4.324774e+02 0.000000e+00 -4.324774e+02 -6.020536e+04 0.000000e+00 0.000000e+00 0.000000e+00 0.000000e+00
-5.788333e+04 -5.719797e+02 0.000000e+00 -5.719797e+02 -5.958873e+04 0.000000e+00 0.000000e+00 0.000000e+00 0.000000e+00
-6.386300e+04 6.119236e+03 0.000000e+00 6.119236e+03 -6.736865e+04 0.000000e+00 0.000000e+00 0.000000e+00 0.000000e+00
-6.549659e+04 5.848555e+03 0.000000e+00 5.848555e+03 -6.716945e+04 0.000000e+00 0.000000e+00 0.000000e+00 0.000000e+00
-6.719121e+04 5.131705e+03 0.000000e+00 5.131705e+03 -6.627196e+04 0.000000e+00 0.000000e+00 0.000000e+00 0.000000e+00
-6.838655e+04 4.441633e+03 0.000000e+00 4.441633e+03 -6.530605e+04 0.000000e+00 0.000000e+00 0.000000e+00 0.000000e+00
-6.917752e+04 3.701835e+03 0.000000e+00 3.701835e+03 -6.423524e+04 0.000000e+00 0.000000e+00 0.000000e+00 0.000000e+00
-6.949838e+04 2.828246e+03 0.000000e+00 2.828246e+03 -6.309467e+04 0.000000e+00 0.000000e+00 0.000000e+00 0.000000e+00
-6.915153e+04 1.775668e+03 0.000000e+00 1.775668e+03 -6.196162e+04 0.000000e+00 0.000000e+00 0.000000e+00 0.000000e+00
-6.787692e+04 6.213121e+02 0.000000e+00 6.213121e+02 -6.099289e+04 0.000000e+00 0.000000e+00 0.000000e+00 0.000000e+00
-6.545576e+04 -3.505194e+02 0.000000e+00 -3.505194e+02 -6.033382e+04 0.000000e+00 0.000000e+00 0.000000e+00 0.000000e+00
-6.188259e+04 -6.648505e+02 0.000000e+00 -6.648505e+02 -6.004614e+04 0.000000e+00 0.000000e+00 0.000000e+00 0.000000e+00
-5.901262e+04 -5.696441e+02 0.000000e+00 -5.696441e+02 -5.969404e+04 0.000000e+00 0.000000e+00 0.000000e+00 0.000000e+00
-6.303629e+04 5.159169e+03 0.000000e+00 5.159169e+03 -6.524966e+04 0.000000e+00 0.000000e+00 0.000000e+00 0.000000e+00
-6.468109e+04 4.887679e+03 0.000000e+00 4.887679e+03 -6.505042e+04 0.000000e+00 0.000000e+00 0.000000e+00 0.000000e+00
-6.639859e+04 4.153281e+03 0.000000e+00 4.153281e+03 -6.419938e+04 0.000000e+00 0.000000e+00 0.000000e+00 0.000000e+00
-6.757605e+04 3.400053e+03 0.000000e+00 3.400053e+03 -6.335951e+04 0.000000e+00 0.000000e+00 0.000000e+00 0.000000e+00
-6.827293e+04 2.593828e+03 0.000000e+00 2.593828e+03 -6.251668e+04 0.000000e+00 0.000000e+00 0.000000e+00 0.000000e+00
-6.844384e+04 1.714385e+03 0.000000e+00 1.714385e+03 -6.168780e+04 0.000000e+00 0.000000e+00 0.000000e+00 0.000000e+00
-6.798138e+04 7.756691e+02 0.000000e+00 7.756691e+02 -6.094900e+04 0.000000e+00 0.000000e+00 0.000000e+00 0.000000e+00
-6.678357e+04 -1.038673e+02 0.000000e+00 -1.038673e+02 -6.039171e+04 0.000000e+00 0.000000e+00 0.000000e+00 0.000000e+00
-6.480834e+04 -7.011949e+02 0.000000e+00 -7.011949e+02 -6.007152e+04 0.000000e+00 0.000000e+00 0.000000e+00 0.000000e+00
-6.216658e+04 -7.215552e+02 0.000000e+00 -7.215552e+02 -5.997584e+04 0.000000e+00 0.000000e+00 0.000000e+00 0.000000e+00
-6.015338e+04 -5.194125e+02 0.000000e+00 -5.194125e+02 -5.977759e+04 0.000000e+00 0.000000e+00 0.000000e+00 0.000000e+00
-6.236202e+04 4.198535e+03 0.000000e+00 4.198535e+03 -6.371102e+04 0.000000e+00 0.000000e+00 0.000000e+00 0.000000e+00
-6.392609e+04 3.955633e+03 0.000000e+00 3.955633e+03 -6.351500e+04 0.000000e+00 0.000000e+00 0.000000e+00 0.000000e+00
-6.558906e+04 3.274444e+03 0.000000e+00 3.274444e+03 -6.273983e+04 0.000000e+00 0.000000e+00 0.000000e+00 0.000000e+00
-6.672348e+04 2.541114e+03 0.000000e+00 2.541114e+03 -6.202115e+04 0.000000e+00 0.000000e+00 0.000000e+00 0.000000e+00
-6.736177e+04 1.763006e+03 0.000000e+00 1.763006e+03 -6.136769e+04 0.000000e+00 0.000000e+00 0.000000e+00 0.000000e+00
-6.747417e+04 9.624396e+02 0.000000e+00 9.624396e+02 -6.079099e+04 0.000000e+00 0.000000e+00 0.000000e+00 0.000000e+00
-6.703484e+04 1.844205e+02 0.000000e+00 1.844205e+02 -6.033793e+04 0.000000e+00 0.000000e+00 0.000000e+00 0.000000e+00
-6.603166e+04 -4.610800e+02 0.000000e+00 -4.610800e+02 -6.004668e+04 0.000000e+00 0.000000e+00 0.000000e+00 0.000000e+00
-6.450209e+04 -8.156448e+02 0.000000e+00 -8.156448e+02 -5.993132e+04 0.000000e+00 0.000000e+00 0.000000e+00 0.000000e+00
-6.260019e+04 -6.903622e+02 0.000000e+00 -6.903622e+02 -5.993973e+04 0.000000e+00 0.000000e+00 0.000000e+00 0.000000e+00
-6.120831e+04 -4.575091e+02 0.000000e+00 -4.575091e+02 -5.983787e+04 0.000000e+00 0.000000e+00 0.000000e+00 0.000000e+00
-6.184456e+04 3.303418e+03 0.000000e+00 3.303418e+03 -6.261717e+04 0.000000e+00 0.000000e+00 0.000000e+00 0.000000e+00
-6.327446e+04 3.081898e+03 0.000000e+00 3.081898e+03 -6.242534e+04 0.000000e+00 0.000000e+00 0.000000e+00 0.000000e+00
-6.483504e+04 2.490210e+03 0.000000e+00 2.490210e+03 -6.171793e+04 0.000000e+00 0.000000e+00 0.000000e+00 0.000000e+00
-6.592486e+04 1.841704e+03 0.000000e+00 1.841704e+03 -6.110733e+04 0.000000e+00 0.000000e+00 0.000000e+00 0.000000e+00
-6.653198e+04 1.159242e+03 0.000000e+00 1.159242e+03 -6.060640e+04 0.000000e+00 0.000000e+00 0.000000e+00 0.000000e+00
-6.665139e+04 4.811449e+02 0.000000e+00 4.811449e+02 -6.021948e+04 0.000000e+00 0.000000e+00 0.000000e+00 0.000000e+00
-6.630616e+04 -1.311184e+02 0.000000e+00 -1.311184e+02 -5.996241e+04 0.000000e+00 0.000000e+00 0.000000e+00 0.000000e+00
-6.552374e+04 -5.957217e+02 0.000000e+00 -5.957217e+02 -5.984357e+04 0.000000e+00 0.000000e+00 0.000000e+00 0.000000e+00
-6.439223e+04 -7.938667e+02 0.000000e+00 -7.938667e+02 -5.984926e+04 0.000000e+00 0.000000e+00 0.000000e+00 0.000000e+00
-6.306588e+04 -6.102690e+02 0.000000e+00 -6.102690e+02 -5.991696e+04 0.000000e+00 0.000000e+00 0.000000e+00 0.000000e+00
-6.213975e+04 -3.855724e+02 0.000000e+00 -3.855724e+02 -5.987760e+04 0.000000e+00 0.000000e+00 0.000000e+00 0.000000e+00
-6.144759e+04 2.446483e+03 0.000000e+00 2.446483e+03 -6.181838e+04 0.000000e+00 0.000000e+00 0.000000e+00 0.000000e+00
-6.273358e+04 2.269050e+03 0.000000e+00 2.269050e+03 -6.163434e+04 0.000000e+00 0.000000e+00 0.000000e+00 0.000000e+00
-6.420054e+04 1.797185e+03 0.000000e+00 1.797185e+03 -6.100801e+04 0.000000e+00 0.000000e+00 0.000000e+00 0.000000e+00
-6.524548e+04 1.278821e+03 0.000000e+00 1.278821e+03 -6.049754e+04 0.000000e+00 0.000000e+00 0.000000e+00 0.000000e+00
-6.583608e+04 7.250398e+02 0.000000e+00 7.250398e+02 -6.011396e+04 0.000000e+00 0.000000e+00 0.000000e+00 0.000000e+00
-6.599720e+04 1.919483e+02 0.000000e+00 1.919483e+02 -5.985939e+04 0.000000e+00 0.000000e+00 0.000000e+00 0.000000e+00
-6.576276e+04 -2.682417e+02 0.000000e+00 -2.682417e+02 -5.973165e+04 0.000000e+00 0.000000e+00 0.000000e+00 0.000000e+00
-6.518995e+04 -5.923625e+02 0.000000e+00 -5.923625e+02 -5.972413e+04 0.000000e+00 0.000000e+00 0.000000e+00 0.000000e+00
-6.438694e+04 -6.938543e+02 0.000000e+00 -6.938543e+02 -5.980264e+04 0.000000e+00 0.000000e+00 0.000000e+00 0.000000e+00
-6.349912e+04 -5.042769e+02 0.000000e+00 -5.042769e+02 -5.990483e+04 0.000000e+00 0.000000e+00 0.000000e+00 0.000000e+00
-6.291703e+04 -3.103997e+02 0.000000e+00 -3.103997e+02 -5.991023e+04 0.000000e+00 0.000000e+00 0.000000e+00 0.000000e+00
-6.113969e+04 1.668056e+03 0.000000e+00 1.668056e+03 -6.120886e+04 0.000000e+00 0.000000e+00 0.000000e+00 0.000000e+00
-6.232345e+04 1.551260e+03 0.000000e+00 1.551260e+03 -6.105026e+04 0.000000e+00 0.000000e+00 0.000000e+00 0.000000e+00
-6.371574e+04 1.206480e+03 0.000000e+00 1.206480e+03 -6.050880e+04 0.000000e+00 0.000000e+00 0.000000e+00 0.000000e+00
-6.471343e+04 8.224920e+02 0.000000e+00 8.224920e+02 -6.008450e+04 0.000000e+00 0.000000e+00 0.000000e+00 0.000000e+00
-6.530083e+04 4.163798e+02 0.000000e+00 4.163798e+02 -5.978946e+04 0.000000e+00 0.000000e+00 0.000000e+00 0.000000e+00
-6.550870e+04 3.396305e+01 0.000000e+00 3.396305e+01 -5.962882e+04 0.000000e+00 0.000000e+00 0.000000e+00 0.000000e+00
-6.537616e+04 -2.892984e+02 0.000000e+00 -2.892984e+02 -5.959152e+04 0.000000e+00 0.000000e+00 0.000000e+00 0.000000e+00
-6.497964e+04 -5.028025e+02 0.000000e+00 -5.028025e+02 -5.965637e+04 0.000000e+00 0.000000e+00 0.000000e+00 0.000000e+00
-6.442907e+04 -5.484196e+02 0.000000e+00 -5.484196e+02 -5.977748e+04 0.000000e+00 0.000000e+00 0.000000e+00 0.000000e+00
-6.385996e+04 -3.840907e+02 0.000000e+00 -3.840907e+02 -5.990035e+04 0.000000e+00 0.000000e+00 0.000000e+00 0.000000e+00
-6.352564e+04 -2.334884e+02 0.000000e+00 -2.334884e+02 -5.993399e+04 0.000000e+00 0.000000e+00 0.000000e+00 0.000000e+00
-6.091964e+04 9.897202e+02 0.000000e+00 9.897202e+02 -6.076789e+04 0.000000e+00 0.000000e+00 0.000000e+00 0.000000e+00
-6.204109e+04 9.086901e+02 0.000000e+00 9.086901e+02 -6.061405e+04 0.000000e+00 0.000000e+00 0.000000e+00 0.000000e+00
-6.338327e+04 6.937213e+02 0.000000e+00 6.937213e+02 -6.012828e+04 0.000000e+00 0.000000e+00 0.000000e+00 0.000000e+00
-6.434804e+04 4.588190e+02 0.000000e+00 4.588190e+02 -5.978211e+04 0.000000e+00 0.000000e+00 0.000000e+00 0.000000e+00
-6.493372e+04 2.082445e+02 0.000000e+00 2.082445e+02 -5.956962e+04 0.000000e+00 0.000000e+00 0.000000e+00 0.000000e+00
-6.517656e+04 -3.185142e+01 0.000000e+00 -3.185142e+01 -5.948085e+04 0.000000e+00 0.000000e+00 0.000000e+00 0.000000e+00
-6.512264e+04 -2.334590e+02 0.000000e+00 -2.334590e+02 -5.950472e+04 0.000000e+00 0.000000e+00 0.000000e+00 0.000000e+00
-6.485514e+04 -3.603639e+02 0.000000e+00 -3.603639e+02 -5.961561e+04 0.000000e+00 0.000000e+00 0.000000e+00 0.000000e+00
-6.448180e+04 -3.765374e+02 0.000000e+00 -3.765374e+02 -5.976270e+04 0.000000e+00 0.000000e+00 0.000000e+00 0.000000e+00
-6.412700e+04 -2.579201e+02 0.000000e+00 -2.579201e+02 -5.989716e+04 0.000000e+00 0.000000e+00 0.000000e+00 0.000000e+00
-6.395879e+04 -1.554465e+02 0.000000e+00 -1.554465e+02 -5.994797e+04 0.000000e+00 0.000000e+00 0.000000e+00 0.000000e+00
-6.075253e+04 3.349326e+02 0.000000e+00 3.349326e+02 -6.029752e+04 0.000000e+00 0.000000e+00 0.000000e+00 0.000000e+00
-6.190153e+04 3.446187e+02 0.000000e+00 3.446187e+02 -6.020126e+04 0.000000e+00 0.000000e+00 0.000000e+00 0.000000e+00
-6.321461e+04 2.799468e+02 0.000000e+00 2.799468e+02 -5.981958e+04 0.000000e+00 0.000000e+00 0.000000e+00 0.000000e+00
-6.414923e+04 1.919298e+02 0.000000e+00 1.919298e+02 -5.957296e+04 0.000000e+00 0.000000e+00 0.000000e+00 0.000000e+00
-6.472499e+04 8.136243e+01 0.000000e+00 8.136243e+01 -5.942988e+04 0.000000e+00 0.000000e+00 0.000000e+00 0.000000e+00
-6.498558e+04 -3.404929e+01 0.000000e+00 -3.404929e+01 -5.940036e+04 0.000000e+00 0.000000e+00 0.000000e+00 0.000000e+00
-6.498097e+04 -1.294970e+02 0.000000e+00 -1.294970e+02 -5.946240e+04 0.000000e+00 0.000000e+00 0.000000e+00 0.000000e+00
-6.479213e+04 -1.871196e+02 0.000000e+00 -1.871196e+02 -5.959618e+04 0.000000e+00 0.000000e+00 0.000000e+00 0.000000e+00
-6.452197e+04 -1.903777e+02 0.000000e+00 -1.903777e+02 -5.975844e+04 0.000000e+00 0.000000e+00 0.000000e+00 0.000000e+00
-6.429000e+04 -1.288272e+02 0.000000e+00 -1.288272e+02 -5.989799e+04 0.000000e+00 0.000000e+00 0.000000e+00 0.000000e+00
-6.421310e+04 -7.684989e+01 0.000000e+00 -7.684989e+01 -5.995846e+04 0.000000e+00 0.000000e+00 0.000000e+00 0.000000e+00
-6.058825e+04 -1.249366e+02 0.000000e+00 -1.249366e+02 -5.978642e+04 0.000000e+00 0.000000e+00 0.000000e+00 0.000000e+00
-6.182159e+04 -1.626661e+01 0.000000e+00 -1.626661e+01 -5.985097e+04 0.000000e+00 0.000000e+00 0.000000e+00 0.000000e+00
-6.316262e+04 3.694873e+01 0.000000e+00 3.694873e+01 -5.966585e+04 0.000000e+00 0.000000e+00 0.000000e+00 0.000000e+00
-6.408897e+04 3.444905e+01 0.000000e+00 3.444905e+01 -5.949717e+04 0.000000e+00 0.000000e+00 0.000000e+00 0.000000e+00
-6.465927e+04 8.429752e+00 0.000000e+00 8.429752e+00 -5.938298e+04 0.000000e+00 0.000000e+00 0.000000e+00 0.000000e+00
-6.492354e+04 -2.935193e+01 0.000000e+00 -2.935193e+01 -5.937511e+04 0.000000e+00 0.000000e+00 0.000000e+00 0.000000e+00
-6.493569e+04 -6.014445e+01 0.000000e+00 -6.014445e+01 -5.945254e+04 0.000000e+00 0.000000e+00 0.000000e+00 0.000000e+00
-6.477305e+04 -7.811049e+01 0.000000e+00 -7.811049e+01 -5.959595e+04 0.000000e+00 0.000000e+00 0.000000e+00 0.000000e+00
-6.453625e+04 -7.682075e+01 0.000000e+00 -7.682075e+01 -5.976164e+04 0.000000e+00 0.000000e+00 0.000000e+00 0.000000e+00
-6.434406e+04 -5.454818e+01 0.000000e+00 -5.454818e+01 -5.989962e+04 0.000000e+00 0.000000e+00 0.000000e+00 0.000000e+00
-6.429419e+04 -3.591910e+01 0.000000e+00 -3.591910e+01 -5.996203e+04 0.000000e+00 0.000000e+00 0.000000e+00 0.000000e+00
</DataArray>
<DataArray Name="vol_eps" type="Float64" NumberOfComponents="1" format="ascii">
-3.119380e-03
-2.919426e-03
-2.898559e-03
-2.989038e-03
-3.191224e-03
-3.523828e-03
-3.995000e-03
-4.607272e-03
-5.290775e-03
-5.905645e-03
-6.032626e-03
-3.015612e-03
-2.831519e-03
-2.817083e-03
-2.909323e-03
-3.104243e-03
-3.414177e-03
-3.856664e-03
-4.446879e-03
-5.182357e-03
-5.929348e-03
-6.699211e-03
-2.778288e-03
-2.623005e-03
-2.608130e-03
-2.688632e-03
-2.852624e-03
-3.095495e-03
-3.426951e-03
-3.902439e-03
-4.656065e-03
-5.936016e-03
-7.843963e-03
-2.443842e-03
-2.335792e-03
-2.325058e-03
-2.374387e-03
-2.449021e-03
-2.517494e-03
-2.542161e-03
-2.430578e-03
-2.055717e-03
-1.237056e-03
-7.633890e-04
-2.046050e-03
-1.997384e-03
-1.995301e-03
-2.019686e-03
-2.042732e-03
-2.040062e-03
-1.986020e-03
-1.837091e-03
-1.541455e-03
-1.067783e-03
-5.684391e-05
-1.641366e-03
-1.651372e-03
-1.663474e-03
-1.671775e-03
-1.662136e-03
-1.618788e-03
-1.521803e-03
-1.340584e-03
-1.036470e-03
-4.693995e-04
2.385052e-04
-1.269165e-03
-1.325936e-03
-1.356780e-03
-1.361511e-03
-1.337499e-03
-1.277319e-03
-1.167364e-03
-9.826948e-04
-6.848123e-04
-2.258573e-04
2.351328e-04
-9.550485e-04
-1.040677e-03
-1.087202e-03
-1.097157e-03
-1.072108e-03
-1.009372e-03
-9.010964e-04
-7.303106e-04
-4.805652e-04
-1.409036e-04
1.642704e-04
-7.071710e-04
-8.052913e-04
-8.612032e-04
-8.774230e-04
-8.581093e-04
-8.030286e-04
-7.067656e-04
-5.635757e-04
-3.690355e-04
-1.252247e-04
8.253543e-05
-5.195712e-04
-6.172037e-04
-6.770631e-04
-6.993723e-04
-6.883469e-04
-6.446929e-04
-5.671686e-04
-4.556078e-04
-3.111939e-04
-1.387036e-04
3.032663e-06
-3.810207e-04
-4.720500e-04
-5.320239e-04
-5.582109e-04
-5.553604e-04
-5.245447e-04
-4.674001e-04
-3.857341e-04
-2.828542e-04
-1.638305e-04
-6.883729e-05
-2.813650e-04
-3.633339e-04
-4.193084e-04
-4.484861e-04
-4.531356e-04
-4.350413e-04
-3.967752e-04
-3.403978e-04
-2.704616e-04
-1.917088e-04
-1.305143e-04
-2.083801e-04
-2.805979e-04
-3.340861e-04
-3.661665e-04
-3.772397e-04
-3.700865e-04
-3.472943e-04
-3.114112e-04
-2.668641e-04
-2.180096e-04
-1.817273e-04
-1.528554e-04
-2.193071e-04
-2.721670e-04
-3.055903e-04
-3.223642e-04
-3.243561e-04
-3.137859e-04
-2.936571e-04
-2.677057e-04
-2.400806e-04
-2.215384e-04
-1.107290e-04
-1.739461e-04
-2.270606e-04
-2.629508e-04
-2.848553e-04
-2.940827e-04
-2.925419e-04
-2.834184e-04
-2.700237e-04
-2.564241e-04
-2.492757e-04
-6.940082e-05
-1.380800e-04
-1.961988e-04
-2.368347e-04
-2.627002e-04
-2.767515e-04
-2.809289e-04
-2.783113e-04
-2.722490e-04
-2.667575e-04
-2.657885e-04
-2.613754e-05
-1.102638e-04
-1.826889e-04
-2.278984e-04
-2.555621e-04
-2.711621e-04
-2.773245e-04
-2.770225e-04
-2.733685e-04
-2.702908e-04
-2.711478e-04
</DataArray>
</PointData>
</Piece>
</UnstructuredGrid>
</VTKFile>
