<?xml version="1.0"?>
<VTKFile type="UnstructuredGrid" version="0.1">
<UnstructuredGrid>
<FieldData>
<DataArray Name="TIME" type="Float64" format="ascii" NumberOfTuples="1">
0.000000e+00
</DataArray>
</FieldData>
<FieldData>
<DataArray Name="CYCLE" type="Int32" format="ascii" NumberOfTuples="1">
0
</DataArray>
</FieldData>
<Piece NumberOfPoints="187" NumberOfCells="160">
<Points>
<DataArray NumberOfComponents="3" type="Float64" format="ascii">
0.000000e+00 0.000000e+00 0.000000e+00
0.000000e+00 1.972975e-01 0.000000e+00
0.000000e+00 3.935885e-01 0.000000e+00
0.000000e+00 5.885416e-01 0.000000e+00
0.000000e+00 7.818033e-01 0.000000e+00
0.000000e+00 9.743221e-01 0.000000e+00
0.000000e+00 1.166618e+00 0.000000e+00
0.000000e+00 1.359176e+00 0.000000e+00
0.000000e+00 1.553452e+00 0.000000e+00
0.000000e+00 1.749623e+00 0.000000e+00
0.000000e+00 1.946000e+00 0.000000e+00
2.250000e-01 0.000000e+00 0.000000e+00
2.263099e-01 1.973493e-01 0.000000e+00
2.279058e-01 3.936834e-01 0.000000e+00
2.298756e-01 5.890081e-01 0.000000e+00
2.313334e-01 7.832870e-01 0.000000e+00
2.318559e-01 9.766880e-01 0.000000e+00
2.316485e-01 1.169636e+00 0.000000e+00
2.303438e-01 1.362569e+00 0.000000e+00
2.277345e-01 1.555809e+00 0.000000e+00
2.254522e-01 1.749799e+00 0.000000e+00
2.250000e-01 1.946000e+00 0.000000e+00
4.500000e-01 0.000000e+00 0.000000e+00
4.527598e-01 1.977217e-01 0.000000e+00
4.555486e-01 3.946824e-01 0.000000e+00
4.581482e-01 5.911494e-01 0.000000e+00
4.601963e-01 7.872977e-01 0.000000e+00
4.615223e-01 9.829466e-01 0.000000e+00
4.618422e-01 1.177822e+00 0.000000e+00
4.611871e-01 1.371627e+00 0.000000e+00
4.592752e-01 1.563857e+00 0.000000e+00
4.560169e-01 1.754959e+00 0.000000e+00
4.500000e-01 1.946000e+00 0.000000e+00
6.750000e-01 0.000000e+00 0.000000e+00
6.788185e-01 1.986387e-01 0.000000e+00
6.820829e-01 3.971028e-01 0.000000e+00
6.847759e-01 5.956581e-01 0.000000e+00
6.869249e-01 7.943918e-01 0.000000e+00
6.885142e-01 9.933159e-01 0.000000e+00
6.893343e-01 1.192545e+00 0.000000e+00
6.895099e-01 1.392092e+00 0.000000e+00
6.886405e-01 1.592056e+00 0.000000e+00
6.860396e-01 1.792344e+00 0.000000e+00
6.807519e-01 1.992676e+00 0.000000e+00
9.000000e-01 0.000000e+00 0.000000e+00
9.041454e-01 1.989866e-01 0.000000e+00
9.071687e-01 3.980533e-01 0.000000e+00
9.095342e-01 5.973186e-01 0.000000e+00
9.113714e-01 7.967998e-01 0.000000e+00
9.126655e-01 9.965352e-01 0.000000e+00
9.132603e-01 1.196490e+00 0.000000e+00
9.131283e-01 1.396712e+00 0.000000e+00
9.120296e-01 1.597195e+00 0.000000e+00
9.096016e-01 1.797726e+00 0.000000e+00
9.061177e-01 1.997751e+00 0.000000e+00
1.125000e+00 0.000000e+00 0.000000e+00
1.129134e+00 1.993893e-01 0.000000e+00
1.131786e+00 3.989000e-01 0.000000e+00
1.133836e+00 5.986058e-01 0.000000e+00
1.135390e+00 7.985107e-01 0.000000e+00
1.136425e+00 9.986097e-01 0.000000e+00
1.136827e+00 1.198930e+00 0.000000e+00
1.136548e+00 1.399452e+00 0.000000e+00
1.135476e+00 1.600076e+00 0.000000e+00
1.133653e+00 1.800546e+00 0.000000e+00
1.131566e+00 2.000635e+00 0.000000e+00
1.350000e+00 0.000000e+00 0.000000e+00
1.353816e+00 1.996747e-01 0.000000e+00
1.356149e+00 3.994800e-01 0.000000e+00
1.357910e+00 5.994503e-01 0.000000e+00
1.359219e+00 7.996032e-01 0.000000e+00
1.360054e+00 9.999516e-01 0.000000e+00
1.360328e+00 1.200468e+00 0.000000e+00
1.360018e+00 1.401092e+00 0.000000e+00
1.359164e+00 1.601702e+00 0.000000e+00
1.357939e+00 1.802120e+00 0.000000e+00
1.356720e+00 2.002236e+00 0.000000e+00
1.575000e+00 0.000000e+00 0.000000e+00
1.578340e+00 1.998436e-01 0.000000e+00
1.580368e+00 3.998304e-01 0.000000e+00
1.581882e+00 5.999854e-01 0.000000e+00
1.582994e+00 8.003016e-01 0.000000e+00
1.583668e+00 1.000775e+00 0.000000e+00
1.583871e+00 1.201367e+00 0.000000e+00
1.583631e+00 1.401996e+00 0.000000e+00
1.583051e+00 1.602560e+00 0.000000e+00
1.582299e+00 1.802939e+00 0.000000e+00
1.581640e+00 2.003096e+00 0.000000e+00
1.800000e+00 0.000000e+00 0.000000e+00
1.802799e+00 1.999346e-01 0.000000e+00
1.804535e+00 4.000453e-01 0.000000e+00
1.805842e+00 6.003010e-01 0.000000e+00
1.806779e+00 8.006970e-01 0.000000e+00
1.807335e+00 1.001217e+00 0.000000e+00
1.807519e+00 1.201809e+00 0.000000e+00
1.807395e+00 1.402404e+00 0.000000e+00
1.807060e+00 1.602920e+00 0.000000e+00
1.806657e+00 1.803285e+00 0.000000e+00
1.806363e+00 2.003486e+00 0.000000e+00
2.025000e+00 0.000000e+00 0.000000e+00
2.027249e+00 1.999845e-01 0.000000e+00
2.028718e+00 4.001499e-01 0.000000e+00
2.029833e+00 6.004465e-01 0.000000e+00
2.030621e+00 8.008661e-01 0.000000e+00
2.031095e+00 1.001381e+00 0.000000e+00
2.031294e+00 1.201939e+00 0.000000e+00
2.031281e+00 1.402487e+00 0.000000e+00
2.031136e+00 1.602964e+00 0.000000e+00
2.030977e+00 1.803329e+00 0.000000e+00
2.030919e+00 2.003579e+00 0.000000e+00
2.250000e+00 0.000000e+00 0.000000e+00
2.251736e+00 1.999987e-01 0.000000e+00
2.252953e+00 4.001742e-01 0.000000e+00
2.253891e+00 6.004720e-01 0.000000e+00
2.254551e+00 8.008772e-01 0.000000e+00
2.254970e+00 1.001357e+00 0.000000e+00
2.255188e+00 1.201871e+00 0.000000e+00
2.255258e+00 1.402374e+00 0.000000e+00
2.255248e+00 1.602822e+00 0.000000e+00
2.255246e+00 1.803192e+00 0.000000e+00
2.255329e+00 2.003489e+00 0.000000e+00
2.475000e+00 0.000000e+00 0.000000e+00
2.476288e+00 1.999956e-01 0.000000e+00
2.477268e+00 4.001503e-01 0.000000e+00
2.478035e+00 6.004206e-01 0.000000e+00
2.478586e+00 8.007891e-01 0.000000e+00
2.478955e+00 1.001225e+00 0.000000e+00
2.479179e+00 1.201693e+00 0.000000e+00
2.479300e+00 1.402156e+00 0.000000e+00
2.479374e+00 1.602584e+00 0.000000e+00
2.479463e+00 1.802965e+00 0.000000e+00
2.479619e+00 2.003304e+00 0.000000e+00
2.700000e+00 0.000000e+00 0.000000e+00
2.700922e+00 1.999826e-01 0.000000e+00
2.701677e+00 4.001013e-01 0.000000e+00
2.702278e+00 6.003343e-01 0.000000e+00
2.702724e+00 8.006585e-01 0.000000e+00
2.703038e+00 1.001048e+00 0.000000e+00
2.703249e+00 1.201472e+00 0.000000e+00
2.703391e+00 1.401903e+00 0.000000e+00
2.703504e+00 1.602317e+00 0.000000e+00
2.703631e+00 1.802709e+00 0.000000e+00
2.703808e+00 2.003086e+00 0.000000e+00
2.925000e+00 0.000000e+00 0.000000e+00
2.925631e+00 1.999627e-01 0.000000e+00
2.926172e+00 4.000474e-01 0.000000e+00
2.926617e+00 6.002428e-01 0.000000e+00
2.926958e+00 8.005265e-01 0.000000e+00
2.927205e+00 1.000873e+00 0.000000e+00
2.927381e+00 1.201259e+00 0.000000e+00
2.927514e+00 1.401663e+00 0.000000e+00
2.927631e+00 1.602068e+00 0.000000e+00
2.927759e+00 1.802470e+00 0.000000e+00
2.927920e+00 2.002879e+00 0.000000e+00
3.150000e+00 0.000000e+00 0.000000e+00
3.150394e+00 1.999466e-01 0.000000e+00
3.150740e+00 4.000037e-01 0.000000e+00
3.151032e+00 6.001675e-01 0.000000e+00
3.151264e+00 8.004200e-01 0.000000e+00
3.151435e+00 1.000736e+00 0.000000e+00
3.151561e+00 1.201093e+00 0.000000e+00
3.151662e+00 1.401476e+00 0.000000e+00
3.151756e+00 1.601873e+00 0.000000e+00
3.151855e+00 1.802283e+00 0.000000e+00
3.151974e+00 2.002714e+00 0.000000e+00
3.375000e+00 0.000000e+00 0.000000e+00
3.375191e+00 1.999379e-01 0.000000e+00
3.375358e+00 3.999819e-01 0.000000e+00
3.375502e+00 6.001256e-01 0.000000e+00
3.375619e+00 8.003572e-01 0.000000e+00
3.375707e+00 1.000654e+00 0.000000e+00
3.375773e+00 1.200994e+00 0.000000e+00
3.375827e+00 1.401363e+00 0.000000e+00
3.375878e+00 1.601755e+00 0.000000e+00
3.375932e+00 1.802169e+00 0.000000e+00
3.375994e+00 2.002613e+00 0.000000e+00
3.600000e+00 0.000000e+00 0.000000e+00
3.600000e+00 1.999478e-01 0.000000e+00
3.600000e+00 3.999898e-01 0.000000e+00
3.600000e+00 6.001264e-01 0.000000e+00
3.600000e+00 8.003501e-01 0.000000e+00
3.600000e+00 1.000639e+00 0.000000e+00
3.600000e+00 1.200973e+00 0.000000e+00
3.600000e+00 1.401337e+00 0.000000e+00
3.600000e+00 1.601725e+00 0.000000e+00
3.600000e+00 1.802139e+00 0.000000e+00
3.600000e+00 2.002584e+00 0.000000e+00
</DataArray>
</Points>
<Cells>
<DataArray Name="connectivity" type="Int32" format="ascii">
0 11 12 1
1 12 13 2
2 13 14 3
3 14 15 4
4 15 16 5
5 16 17 6
6 17 18 7
7 18 19 8
8 19 20 9
9 20 21 10
11 22 23 12
12 23 24 13
13 24 25 14
14 25 26 15
15 26 27 16
16 27 28 17
17 28 29 18
18 29 30 19
19 30 31 20
20 31 32 21
22 33 34 23
23 34 35 24
24 35 36 25
25 36 37 26
26 37 38 27
27 38 39 28
28 39 40 29
29 40 41 30
30 41 42 31
31 42 43 32
33 44 45 34
34 45 46 35
35 46 47 36
36 47 48 37
37 48 49 38
38 49 50 39
39 50 51 40
40 51 52 41
41 52 53 42
42 53 54 43
44 55 56 45
45 56 57 46
46 57 58 47
47 58 59 48
48 59 60 49
49 60 61 50
50 61 62 51
51 62 63 52
52 63 64 53
53 64 65 54
55 66 67 56
56 67 68 57
57 68 69 58
58 69 70 59
59 70 71 60
60 71 72 61
61 72 73 62
62 73 74 63
63 74 75 64
64 75 76 65
66 77 78 67
67 78 79 68
68 79 80 69
69 80 81 70
70 81 82 71
71 82 83 72
72 83 84 73
73 84 85 74
74 85 86 75
75 86 87 76
77 88 89 78
78 89 90 79
79 90 91 80
80 91 92 81
81 92 93 82
82 93 94 83
83 94 95 84
84 95 96 85
85 96 97 86
86 97 98 87
88 99 100 89
89 100 101 90
90 101 102 91
91 102 103 92
92 103 104 93
93 104 105 94
94 105 106 95
95 106 107 96
96 107 108 97
97 108 109 98
99 110 111 100
100 111 112 101
101 112 113 102
102 113 114 103
103 114 115 104
104 115 116 105
105 116 117 106
106 117 118 107
107 118 119 108
108 119 120 109
110 121 122 111
111 122 123 112
112 123 124 113
113 124 125 114
114 125 126 115
115 126 127 116
116 127 128 117
117 128 129 118
118 129 130 119
119 130 131 120
121 132 133 122
122 133 134 123
123 134 135 124
124 135 136 125
125 136 137 126
126 137 138 127
127 138 139 128
128 139 140 129
129 140 141 130
130 141 142 131
132 143 144 133
133 144 145 134
134 145 146 135
135 146 147 136
136 147 148 137
137 148 149 138
138 149 150 139
139 150 151 140
140 151 152 141
141 152 153 142
143 154 155 144
144 155 156 145
145 156 157 146
146 157 158 147
147 158 159 148
148 159 160 149
149 160 161 150
150 161 162 151
151 162 163 152
152 163 164 153
154 165 166 155
155 166 167 156
156 167 168 157
157 168 169 158
158 169 170 159
159 170 171 160
160 171 172 161
161 172 173 162
162 173 174 163
163 174 175 164
165 176 177 166
166 177 178 167
167 178 179 168
168 179 180 169
169 180 181 170
170 181 182 171
171 182 183 172
172 183 184 173
173 184 185 174
174 185 186 175
</DataArray>
<DataArray Name="offsets" type="Int32" format="ascii">
4
8
12
16
20
24
28
32
36
40
44
48
52
56
60
64
68
72
76
80
84
88
92
96
100
104
108
112
116
120
124
128
132
136
140
144
148
152
156
160
164
168
172
176
180
184
188
192
196
200
204
208
212
216
220
224
228
232
236
240
244
248
252
256
260
264
268
272
276
280
284
288
292
296
300
304
308
312
316
320
324
328
332
336
340
344
348
352
356
360
364
368
372
376
380
384
388
392
396
400
404
408
412
416
420
424
428
432
436
440
444
448
452
456
460
464
468
472
476
480
484
488
492
496
500
504
508
512
516
520
524
528
532
536
540
544
548
552
556
560
564
568
572
576
580
584
588
592
596
600
604
608
612
616
620
624
628
632
636
640
</DataArray>
<DataArray Name="types" type="UInt8" format="ascii">
9
9
9
9
9
9
9
9
9
9
9
9
9
9
9
9
9
9
9
9
9
9
9
9
9
9
9
9
9
9
9
9
9
9
9
9
9
9
9
9
9
9
9
9
9
9
9
9
9
9
9
9
9
9
9
9
9
9
9
9
9
9
9
9
9
9
9
9
9
9
9
9
9
9
9
9
9
9
9
9
9
9
9
9
9
9
9
9
9
9
9
9
9
9
9
9
9
9
9
9
9
9
9
9
9
9
9
9
9
9
9
9
9
9
9
9
9
9
9
9
9
9
9
9
9
9
9
9
9
9
9
9
9
9
9
9
9
9
9
9
9
9
9
9
9
9
9
9
9
9
9
9
9
9
9
9
9
9
9
9
</DataArray>
</Cells>
<PointData>
<DataArray Name="disp" type="Float64" NumberOfComponents="3" format="ascii">
0.000000e+00 0.000000e+00 0.000000e+00
0.000000e+00 -2.702469e-03 0.000000e+00
0.000000e+00 -6.411491e-03 0.000000e+00
0.000000e+00 -1.145835e-02 0.000000e+00
0.000000e+00 -1.819668e-02 0.000000e+00
0.000000e+00 -2.567786e-02 0.000000e+00
0.000000e+00 -3.338178e-02 0.000000e+00
0.000000e+00 -4.082374e-02 0.000000e+00
0.000000e+00 -4.654782e-02 0.000000e+00
0.000000e+00 -5.037691e-02 0.000000e+00
0.000000e+00 -5.400000e-02 0.000000e+00
0.000000e+00 0.000000e+00 0.000000e+00
1.309908e-03 -2.650662e-03 0.000000e+00
2.905837e-03 -6.316575e-03 0.000000e+00
4.875611e-03 -1.099193e-02 0.000000e+00
6.333393e-03 -1.671301e-02 0.000000e+00
6.855951e-03 -2.331201e-02 0.000000e+00
6.648547e-03 -3.036426e-02 0.000000e+00
5.343789e-03 -3.743090e-02 0.000000e+00
2.734457e-03 -4.419149e-02 0.000000e+00
4.521616e-04 -5.020102e-02 0.000000e+00
0.000000e+00 -5.400000e-02 0.000000e+00
0.000000e+00 0.000000e+00 0.000000e+00
2.759815e-03 -2.278254e-03 0.000000e+00
5.548600e-03 -5.317552e-03 0.000000e+00
8.148176e-03 -8.850574e-03 0.000000e+00
1.019626e-02 -1.270235e-02 0.000000e+00
1.152224e-02 -1.705341e-02 0.000000e+00
1.184223e-02 -2.217756e-02 0.000000e+00
1.118710e-02 -2.837340e-02 0.000000e+00
9.275230e-03 -3.614283e-02 0.000000e+00
6.016926e-03 -4.504097e-02 0.000000e+00
0.000000e+00 -5.400000e-02 0.000000e+00
0.000000e+00 0.000000e+00 0.000000e+00
3.818474e-03 -1.361286e-03 0.000000e+00
7.082902e-03 -2.897177e-03 0.000000e+00
9.775917e-03 -4.341958e-03 0.000000e+00
1.192485e-02 -5.608173e-03 0.000000e+00
1.351422e-02 -6.684065e-03 0.000000e+00
1.433432e-02 -7.454605e-03 0.000000e+00
1.450989e-02 -7.908491e-03 0.000000e+00
1.364054e-02 -7.943662e-03 0.000000e+00
1.103954e-02 -7.655581e-03 0.000000e+00
5.751927e-03 -7.323653e-03 0.000000e+00
0.000000e+00 0.000000e+00 0.000000e+00
4.145407e-03 -1.013357e-03 0.000000e+00
7.168712e-03 -1.946689e-03 0.000000e+00
9.534127e-03 -2.681393e-03 0.000000e+00
1.137141e-02 -3.200136e-03 0.000000e+00
1.266556e-02 -3.464835e-03 0.000000e+00
1.326027e-02 -3.510045e-03 0.000000e+00
1.312828e-02 -3.288405e-03 0.000000e+00
1.202959e-02 -2.805409e-03 0.000000e+00
9.601644e-03 -2.273658e-03 0.000000e+00
6.117688e-03 -2.249363e-03 0.000000e+00
0.000000e+00 0.000000e+00 0.000000e+00
4.134146e-03 -6.106555e-04 0.000000e+00
6.785669e-03 -1.100013e-03 0.000000e+00
8.836045e-03 -1.394171e-03 0.000000e+00
1.038975e-02 -1.489289e-03 0.000000e+00
1.142449e-02 -1.390281e-03 0.000000e+00
1.182654e-02 -1.070105e-03 0.000000e+00
1.154771e-02 -5.481094e-04 0.000000e+00
1.047644e-02 7.566084e-05 0.000000e+00
8.652884e-03 5.455753e-04 0.000000e+00
6.566335e-03 6.353897e-04 0.000000e+00
0.000000e+00 0.000000e+00 0.000000e+00
3.816006e-03 -3.253499e-04 0.000000e+00
6.148700e-03 -5.200273e-04 0.000000e+00
7.909688e-03 -5.497101e-04 0.000000e+00
9.218590e-03 -3.967522e-04 0.000000e+00
1.005451e-02 -4.842224e-05 0.000000e+00
1.032827e-02 4.676304e-04 0.000000e+00
1.001844e-02 1.092228e-03 0.000000e+00
9.164072e-03 1.701923e-03 0.000000e+00
7.938542e-03 2.120188e-03 0.000000e+00
6.720136e-03 2.235639e-03 0.000000e+00
0.000000e+00 0.000000e+00 0.000000e+00
3.340001e-03 -1.564352e-04 0.000000e+00
5.368374e-03 -1.696385e-04 0.000000e+00
6.882478e-03 -1.463998e-05 0.000000e+00
7.994223e-03 3.015559e-04 0.000000e+00
8.668529e-03 7.749695e-04 0.000000e+00
8.871276e-03 1.366908e-03 0.000000e+00
8.631233e-03 1.996289e-03 0.000000e+00
8.051108e-03 2.559853e-03 0.000000e+00
7.298709e-03 2.939220e-03 0.000000e+00
6.639615e-03 3.096137e-03 0.000000e+00
0.000000e+00 0.000000e+00 0.000000e+00
2.799358e-03 -6.543584e-05 0.000000e+00
4.535158e-03 4.529863e-05 0.000000e+00
5.841837e-03 3.009900e-04 0.000000e+00
6.779442e-03 6.969893e-04 0.000000e+00
7.335114e-03 1.216841e-03 0.000000e+00
7.518836e-03 1.809101e-03 0.000000e+00
7.395221e-03 2.403929e-03 0.000000e+00
7.059623e-03 2.919720e-03 0.000000e+00
6.657071e-03 3.284498e-03 0.000000e+00
6.362932e-03 3.485957e-03 0.000000e+00
0.000000e+00 0.000000e+00 0.000000e+00
2.249012e-03 -1.548176e-05 0.000000e+00
3.717538e-03 1.499185e-04 0.000000e+00
4.833376e-03 4.464779e-04 0.000000e+00
5.621262e-03 8.661120e-04 0.000000e+00
6.095277e-03 1.380702e-03 0.000000e+00
6.294337e-03 1.939328e-03 0.000000e+00
6.280621e-03 2.487293e-03 0.000000e+00
6.136109e-03 2.964379e-03 0.000000e+00
5.976695e-03 3.328463e-03 0.000000e+00
5.918828e-03 3.579098e-03 0.000000e+00
0.000000e+00 0.000000e+00 0.000000e+00
1.735757e-03 -1.339109e-06 0.000000e+00
2.953066e-03 1.741653e-04 0.000000e+00
3.891273e-03 4.720322e-04 0.000000e+00
4.551013e-03 8.772064e-04 0.000000e+00
4.969772e-03 1.357040e-03 0.000000e+00
5.188015e-03 1.871361e-03 0.000000e+00
5.257535e-03 2.374078e-03 0.000000e+00
5.247736e-03 2.822349e-03 0.000000e+00
5.245606e-03 3.192476e-03 0.000000e+00
5.328890e-03 3.489186e-03 0.000000e+00
0.000000e+00 0.000000e+00 0.000000e+00
1.288029e-03 -4.430939e-06 0.000000e+00
2.268233e-03 1.503298e-04 0.000000e+00
3.035101e-03 4.206042e-04 0.000000e+00
3.585989e-03 7.891139e-04 0.000000e+00
3.955101e-03 1.224820e-03 0.000000e+00
4.179111e-03 1.693230e-03 0.000000e+00
4.300586e-03 2.156411e-03 0.000000e+00
4.373986e-03 2.584374e-03 0.000000e+00
4.462670e-03 2.964879e-03 0.000000e+00
4.618510e-03 3.303752e-03 0.000000e+00
0.000000e+00 0.000000e+00 0.000000e+00
9.216924e-04 -1.741116e-05 0.000000e+00
1.677045e-03 1.012605e-04 0.000000e+00
2.278361e-03 3.343038e-04 0.000000e+00
2.724040e-03 6.585312e-04 0.000000e+00
3.038177e-03 1.047849e-03 0.000000e+00
3.248580e-03 1.472155e-03 0.000000e+00
3.390914e-03 1.902626e-03 0.000000e+00
3.503692e-03 2.316782e-03 0.000000e+00
3.631457e-03 2.708522e-03 0.000000e+00
3.808380e-03 3.085875e-03 0.000000e+00
0.000000e+00 0.000000e+00 0.000000e+00
6.307723e-04 -3.728246e-05 0.000000e+00
1.172613e-03 4.740010e-05 0.000000e+00
1.616973e-03 2.427672e-04 0.000000e+00
1.957532e-03 5.265019e-04 0.000000e+00
2.204772e-03 8.732791e-04 0.000000e+00
2.380996e-03 1.259526e-03 0.000000e+00
2.514180e-03 1.662978e-03 0.000000e+00
2.631435e-03 2.067735e-03 0.000000e+00
2.758948e-03 2.469635e-03 0.000000e+00
2.919583e-03 2.878983e-03 0.000000e+00
0.000000e+00 0.000000e+00 0.000000e+00
3.941673e-04 -5.341238e-05 0.000000e+00
7.398950e-04 3.679623e-06 0.000000e+00
1.032432e-03 1.674848e-04 0.000000e+00
1.264115e-03 4.200358e-04 0.000000e+00
1.435239e-03 7.357658e-04 0.000000e+00
1.561406e-03 1.093019e-03 0.000000e+00
1.662437e-03 1.475554e-03 0.000000e+00
1.755597e-03 1.872797e-03 0.000000e+00
1.855460e-03 2.282834e-03 0.000000e+00
1.974327e-03 2.714254e-03 0.000000e+00
0.000000e+00 0.000000e+00 0.000000e+00
1.907894e-04 -6.212565e-05 0.000000e+00
3.579870e-04 -1.809304e-05 0.000000e+00
5.017584e-04 1.255241e-04 0.000000e+00
6.193551e-04 3.571814e-04 0.000000e+00
7.074079e-04 6.535798e-04 0.000000e+00
7.732295e-04 9.939128e-04 0.000000e+00
8.268562e-04 1.363310e-03 0.000000e+00
8.777163e-04 1.755035e-03 0.000000e+00
9.319573e-04 2.169149e-03 0.000000e+00
9.945185e-04 2.612536e-03 0.000000e+00
0.000000e+00 0.000000e+00 0.000000e+00
0.000000e+00 -5.215579e-05 0.000000e+00
0.000000e+00 -1.018079e-05 0.000000e+00
0.000000e+00 1.264634e-04 0.000000e+00
0.000000e+00 3.500736e-04 0.000000e+00
0.000000e+00 6.391568e-04 0.000000e+00
0.000000e+00 9.729214e-04 0.000000e+00
0.000000e+00 1.336949e-03 0.000000e+00
0.000000e+00 1.725165e-03 0.000000e+00
0.000000e+00 2.138781e-03 0.000000e+00
0.000000e+00 2.584145e-03 0.000000e+00
</DataArray>
<DataArray Name="shear" type="Float64" NumberOfComponents="1" format="ascii">
1.562058e-02
2.225032e-02
3.507199e-02
5.006875e-02
6.217730e-02
6.770328e-02
6.711402e-02
5.757438e-02
3.962208e-02
2.416287e-02
1.925203e-02
1.666359e-02
2.316790e-02
3.447404e-02
4.558348e-02
5.517707e-02
6.190325e-02
6.457850e-02
6.201310e-02
5.398438e-02
3.970383e-02
2.797638e-02
1.937970e-02
2.454881e-02
3.243461e-02
3.910596e-02
4.640379e-02
5.547278e-02
6.599013e-02
7.773593e-02
8.898731e-02
9.296663e-02
9.162740e-02
2.120554e-02
2.286514e-02
2.519593e-02
2.807307e-02
3.210349e-02
3.740425e-02
4.482388e-02
5.476539e-02
6.628432e-02
7.698158e-02
8.503006e-02
2.172020e-02
2.026349e-02
1.789236e-02
1.718324e-02
1.709115e-02
1.688131e-02
1.643028e-02
1.551636e-02
1.272608e-02
6.662280e-03
9.815008e-04
2.117918e-02
1.856144e-02
1.498600e-02
1.401719e-02
1.357525e-02
1.308129e-02
1.245668e-02
1.142679e-02
9.111280e-03
4.682514e-03
1.230078e-03
1.935500e-02
1.636869e-02
1.259160e-02
1.171183e-02
1.139963e-02
1.113594e-02
1.068150e-02
9.748935e-03
7.744707e-03
4.320466e-03
1.752422e-03
1.686252e-02
1.411357e-02
1.084824e-02
1.021099e-02
1.005641e-02
9.944064e-03
9.604842e-03
8.721973e-03
6.968735e-03
4.288064e-03
2.384808e-03
1.411489e-02
1.191354e-02
9.461918e-03
9.035830e-03
9.000029e-03
8.991689e-03
8.716873e-03
7.930282e-03
6.489649e-03
4.460228e-03
3.113111e-03
1.135295e-02
9.796911e-03
8.170383e-03
7.958688e-03
8.048724e-03
8.118513e-03
7.914719e-03
7.292671e-03
6.197061e-03
4.753252e-03
3.854712e-03
8.774402e-03
7.811332e-03
6.923101e-03
6.930151e-03
7.144038e-03
7.303161e-03
7.213469e-03
6.786872e-03
6.029042e-03
5.088519e-03
4.542732e-03
6.524647e-03
6.022003e-03
5.705531e-03
5.941278e-03
6.298678e-03
6.570776e-03
6.619280e-03
6.395302e-03
5.948558e-03
5.424227e-03
5.148634e-03
4.665685e-03
4.454645e-03
4.559303e-03
5.027575e-03
5.535685e-03
5.928786e-03
6.122057e-03
6.097622e-03
5.922424e-03
5.734366e-03
5.667355e-03
3.180426e-03
3.134581e-03
3.559551e-03
4.250649e-03
4.896970e-03
5.397977e-03
5.719529e-03
5.871620e-03
5.922304e-03
5.991254e-03
6.077678e-03
1.981847e-03
2.055323e-03
2.762033e-03
3.655897e-03
4.427956e-03
5.012076e-03
5.423813e-03
5.706359e-03
5.926546e-03
6.174191e-03
6.360494e-03
9.656514e-04
1.222756e-03
2.234352e-03
3.271665e-03
4.135572e-03
4.780556e-03
5.246782e-03
5.603406e-03
5.923227e-03
6.274187e-03
6.514656e-03
3.328742e-04
8.657225e-04
2.049627e-03
3.133624e-03
4.030633e-03
4.700304e-03
5.186239e-03
5.565828e-03
5.917047e-03
6.300706e-03
6.557743e-03
</DataArray>
<DataArray Name="stress" type="Float64" NumberOfComponents="9" format="ascii">
-1.127159e+05 4.947043e+03 0.000000e+00 4.947043e+03 -1.892324e+05 0.000000e+00 0.000000e+00 0.000000e+00 0.000000e+00
-9.965710e+04 3.915469e+03 0.000000e+00 3.915469e+03 -1.882780e+05 0.000000e+00 0.000000e+00 0.000000e+00 0.000000e+00
-9.326188e+04 2.840579e+03 0.000000e+00 2.840579e+03 -1.981524e+05 0.000000e+00 0.000000e+00 0.000000e+00 0.000000e+00
-1.024079e+05 2.107061e+03 0.000000e+00 2.107061e+03 -2.015651e+05 0.000000e+00 0.000000e+00 0.000000e+00 0.000000e+00
-1.105450e+05 4.080334e+03 0.000000e+00 4.080334e+03 -2.070662e+05 0.000000e+00 0.000000e+00 0.000000e+00 0.000000e+00
-1.140815e+05 7.271062e+03 0.000000e+00 7.271062e+03 -2.175675e+05 0.000000e+00 0.000000e+00 0.000000e+00 0.000000e+00
-1.217951e+05 1.012818e+04 0.000000e+00 1.012818e+04 -2.301389e+05 0.000000e+00 0.000000e+00 0.000000e+00 0.000000e+00
-1.276031e+05 9.646082e+03 0.000000e+00 9.646082e+03 -2.415827e+05 0.000000e+00 0.000000e+00 0.000000e+00 0.000000e+00
-1.261180e+05 5.466267e+03 0.000000e+00 5.466267e+03 -2.576831e+05 0.000000e+00 0.000000e+00 0.000000e+00 0.000000e+00
-1.417468e+05 -5.920344e+02 0.000000e+00 -5.920344e+02 -2.603210e+05 0.000000e+00 0.000000e+00 0.000000e+00 0.000000e+00
-1.489251e+05 -9.440674e+02 0.000000e+00 -9.440674e+02 -2.547994e+05 0.000000e+00 0.000000e+00 0.000000e+00 0.000000e+00
-1.121488e+05 1.446646e+04 0.000000e+00 1.446646e+04 -1.819773e+05 0.000000e+00 0.000000e+00 0.000000e+00 0.000000e+00
-9.919948e+04 1.223308e+04 0.000000e+00 1.223308e+04 -1.797818e+05 0.000000e+00 0.000000e+00 0.000000e+00 0.000000e+00
-9.424174e+04 1.080881e+04 0.000000e+00 1.080881e+04 -1.892532e+05 0.000000e+00 0.000000e+00 0.000000e+00 0.000000e+00
-1.005563e+05 1.114572e+04 0.000000e+00 1.114572e+04 -1.995720e+05 0.000000e+00 0.000000e+00 0.000000e+00 0.000000e+00
-1.090224e+05 1.206992e+04 0.000000e+00 1.206992e+04 -2.105506e+05 0.000000e+00 0.000000e+00 0.000000e+00 0.000000e+00
-1.145865e+05 1.359167e+04 0.000000e+00 1.359167e+04 -2.220421e+05 0.000000e+00 0.000000e+00 0.000000e+00 0.000000e+00
-1.207645e+05 1.450505e+04 0.000000e+00 1.450505e+04 -2.323511e+05 0.000000e+00 0.000000e+00 0.000000e+00 0.000000e+00
-1.272384e+05 1.183672e+04 0.000000e+00 1.183672e+04 -2.404532e+05 0.000000e+00 0.000000e+00 0.000000e+00 0.000000e+00
-1.293238e+05 7.098885e+03 0.000000e+00 7.098885e+03 -2.522740e+05 0.000000e+00 0.000000e+00 0.000000e+00 0.000000e+00
-1.359065e+05 4.091264e+01 0.000000e+00 4.091264e+01 -2.560041e+05 0.000000e+00 0.000000e+00 0.000000e+00 0.000000e+00
-1.523825e+05 -6.431988e+03 0.000000e+00 -6.431988e+03 -2.804081e+05 0.000000e+00 0.000000e+00 0.000000e+00 0.000000e+00
-1.083799e+05 2.501432e+04 0.000000e+00 2.501432e+04 -1.591094e+05 0.000000e+00 0.000000e+00 0.000000e+00 0.000000e+00
-9.750684e+04 2.210693e+04 0.000000e+00 2.210693e+04 -1.548519e+05 0.000000e+00 0.000000e+00 0.000000e+00 0.000000e+00
-9.636967e+04 2.183806e+04 0.000000e+00 2.183806e+04 -1.619373e+05 0.000000e+00 0.000000e+00 0.000000e+00 0.000000e+00
-1.030730e+05 2.459581e+04 0.000000e+00 2.459581e+04 -1.723967e+05 0.000000e+00 0.000000e+00 0.000000e+00 0.000000e+00
-1.115370e+05 2.703068e+04 0.000000e+00 2.703068e+04 -1.827979e+05 0.000000e+00 0.000000e+00 0.000000e+00 0.000000e+00
-1.189665e+05 2.921546e+04 0.000000e+00 2.921546e+04 -1.927565e+05 0.000000e+00 0.000000e+00 0.000000e+00 0.000000e+00
-1.281646e+05 3.067550e+04 0.000000e+00 3.067550e+04 -2.054052e+05 0.000000e+00 0.000000e+00 0.000000e+00 0.000000e+00
-1.403145e+05 3.200392e+04 0.000000e+00 3.200392e+04 -2.204323e+05 0.000000e+00 0.000000e+00 0.000000e+00 0.000000e+00
-1.507893e+05 3.027585e+04 0.000000e+00 3.027585e+04 -2.333435e+05 0.000000e+00 0.000000e+00 0.000000e+00 0.000000e+00
-1.584122e+05 2.394919e+04 0.000000e+00 2.394919e+04 -2.504411e+05 0.000000e+00 0.000000e+00 0.000000e+00 0.000000e+00
-1.727688e+05 7.368087e+03 0.000000e+00 7.368087e+03 -2.898762e+05 0.000000e+00 0.000000e+00 0.000000e+00 0.000000e+00
-9.934531e+04 2.695820e+04 0.000000e+00 2.695820e+04 -1.276363e+05 0.000000e+00 0.000000e+00 0.000000e+00 0.000000e+00
-9.232190e+04 2.505396e+04 0.000000e+00 2.505396e+04 -1.236981e+05 0.000000e+00 0.000000e+00 0.000000e+00 0.000000e+00
-9.354138e+04 2.569539e+04 0.000000e+00 2.569539e+04 -1.247187e+05 0.000000e+00 0.000000e+00 0.000000e+00 0.000000e+00
-9.964849e+04 2.773563e+04 0.000000e+00 2.773563e+04 -1.249974e+05 0.000000e+00 0.000000e+00 0.000000e+00 0.000000e+00
-1.056048e+05 2.883118e+04 0.000000e+00 2.883118e+04 -1.230557e+05 0.000000e+00 0.000000e+00 0.000000e+00 0.000000e+00
-1.096183e+05 2.993926e+04 0.000000e+00 2.993926e+04 -1.202429e+05 0.000000e+00 0.000000e+00 0.000000e+00 0.000000e+00
-1.108668e+05 2.942316e+04 0.000000e+00 2.942316e+04 -1.143341e+05 0.000000e+00 0.000000e+00 0.000000e+00 0.000000e+00
-1.097068e+05 2.750054e+04 0.000000e+00 2.750054e+04 -1.063102e+05 0.000000e+00 0.000000e+00 0.000000e+00 0.000000e+00
-1.049124e+05 2.288953e+04 0.000000e+00 2.288953e+04 -9.594662e+04 0.000000e+00 0.000000e+00 0.000000e+00 0.000000e+00
-8.755324e+04 1.428594e+04 0.000000e+00 1.428594e+04 -7.921073e+04 0.000000e+00 0.000000e+00 0.000000e+00 0.000000e+00
-6.398496e+04 8.511569e+03 0.000000e+00 8.511569e+03 -6.659760e+04 0.000000e+00 0.000000e+00 0.000000e+00 0.000000e+00
-9.526731e+04 2.637606e+04 0.000000e+00 2.637606e+04 -1.111267e+05 0.000000e+00 0.000000e+00 0.000000e+00 0.000000e+00
-9.277352e+04 2.560132e+04 0.000000e+00 2.560132e+04 -1.094127e+05 0.000000e+00 0.000000e+00 0.000000e+00 0.000000e+00
-9.687954e+04 2.604167e+04 0.000000e+00 2.604167e+04 -1.095743e+05 0.000000e+00 0.000000e+00 0.000000e+00 0.000000e+00
-1.040517e+05 2.679687e+04 0.000000e+00 2.679687e+04 -1.078577e+05 0.000000e+00 0.000000e+00 0.000000e+00 0.000000e+00
-1.104320e+05 2.687861e+04 0.000000e+00 2.687861e+04 -1.044060e+05 0.000000e+00 0.000000e+00 0.000000e+00 0.000000e+00
-1.151611e+05 2.596242e+04 0.000000e+00 2.596242e+04 -9.941736e+04 0.000000e+00 0.000000e+00 0.000000e+00 0.000000e+00
-1.173058e+05 2.389008e+04 0.000000e+00 2.389008e+04 -9.280451e+04 0.000000e+00 0.000000e+00 0.000000e+00 0.000000e+00
-1.175793e+05 2.027874e+04 0.000000e+00 2.027874e+04 -8.515404e+04 0.000000e+00 0.000000e+00 0.000000e+00 0.000000e+00
-1.133901e+05 1.392060e+04 0.000000e+00 1.392060e+04 -7.644712e+04 0.000000e+00 0.000000e+00 0.000000e+00 0.000000e+00
-9.504798e+04 4.929194e+03 0.000000e+00 4.929194e+03 -6.848480e+04 0.000000e+00 0.000000e+00 0.000000e+00 0.000000e+00
-6.183861e+04 7.787861e+00 0.000000e+00 7.787861e+00 -5.699382e+04 0.000000e+00 0.000000e+00 0.000000e+00 0.000000e+00
-8.947959e+04 2.504505e+04 0.000000e+00 2.504505e+04 -9.775000e+04 0.000000e+00 0.000000e+00 0.000000e+00 0.000000e+00
-9.149865e+04 2.470424e+04 0.000000e+00 2.470424e+04 -9.752820e+04 0.000000e+00 0.000000e+00 0.000000e+00 0.000000e+00
-9.731431e+04 2.414212e+04 0.000000e+00 2.414212e+04 -9.594172e+04 0.000000e+00 0.000000e+00 0.000000e+00 0.000000e+00
-1.042510e+05 2.352392e+04 0.000000e+00 2.352392e+04 -9.286123e+04 0.000000e+00 0.000000e+00 0.000000e+00 0.000000e+00
-1.098075e+05 2.218000e+04 0.000000e+00 2.218000e+04 -8.899205e+04 0.000000e+00 0.000000e+00 0.000000e+00 0.000000e+00
-1.133242e+05 1.989710e+04 0.000000e+00 1.989710e+04 -8.423405e+04 0.000000e+00 0.000000e+00 0.000000e+00 0.000000e+00
-1.140636e+05 1.652085e+04 0.000000e+00 1.652085e+04 -7.847074e+04 0.000000e+00 0.000000e+00 0.000000e+00 0.000000e+00
-1.121580e+05 1.174579e+04 0.000000e+00 1.174579e+04 -7.233124e+04 0.000000e+00 0.000000e+00 0.000000e+00 0.000000e+00
-1.052120e+05 5.202814e+03 0.000000e+00 5.202814e+03 -6.659823e+04 0.000000e+00 0.000000e+00 0.000000e+00 0.000000e+00
-8.640950e+04 -9.441340e+02 0.000000e+00 -9.441340e+02 -6.217967e+04 0.000000e+00 0.000000e+00 0.000000e+00 0.000000e+00
-6.142736e+04 -2.866617e+03 0.000000e+00 -2.866617e+03 -5.666760e+04 0.000000e+00 0.000000e+00 0.000000e+00 0.000000e+00
-8.364339e+04 2.327323e+04 0.000000e+00 2.327323e+04 -8.699105e+04 0.000000e+00 0.000000e+00 0.000000e+00 0.000000e+00
-8.977430e+04 2.291233e+04 0.000000e+00 2.291233e+04 -8.780388e+04 0.000000e+00 0.000000e+00 0.000000e+00 0.000000e+00
-9.674519e+04 2.135916e+04 0.000000e+00 2.135916e+04 -8.533470e+04 0.000000e+00 0.000000e+00 0.000000e+00 0.000000e+00
-1.029758e+05 1.987701e+04 0.000000e+00 1.987701e+04 -8.239887e+04 0.000000e+00 0.000000e+00 0.000000e+00 0.000000e+00
-1.074242e+05 1.760557e+04 0.000000e+00 1.760557e+04 -7.867282e+04 0.000000e+00 0.000000e+00 0.000000e+00 0.000000e+00
-1.098068e+05 1.445395e+04 0.000000e+00 1.445395e+04 -7.450774e+04 0.000000e+00 0.000000e+00 0.000000e+00 0.000000e+00
-1.095680e+05 1.049973e+04 0.000000e+00 1.049973e+04 -7.006473e+04 0.000000e+00 0.000000e+00 0.000000e+00 0.000000e+00
-1.062652e+05 5.671763e+03 0.000000e+00 5.671763e+03 -6.580067e+04 0.000000e+00 0.000000e+00 0.000000e+00 0.000000e+00
-9.828371e+04 4.128307e+02 0.000000e+00 4.128307e+02 -6.231037e+04 0.000000e+00 0.000000e+00 0.000000e+00 0.000000e+00
-8.331659e+04 -2.705556e+03 0.000000e+00 -2.705556e+03 -6.021173e+04 0.000000e+00 0.000000e+00 0.000000e+00 0.000000e+00
-6.720098e+04 -3.017546e+03 0.000000e+00 -3.017546e+03 -5.745841e+04 0.000000e+00 0.000000e+00 0.000000e+00 0.000000e+00
-7.897834e+04 2.128822e+04 0.000000e+00 2.128822e+04 -7.883812e+04 0.000000e+00 0.000000e+00 0.000000e+00 0.000000e+00
-8.742484e+04 2.081243e+04 0.000000e+00 2.081243e+04 -8.014402e+04 0.000000e+00 0.000000e+00 0.000000e+00 0.000000e+00
-9.507460e+04 1.858941e+04 0.000000e+00 1.858941e+04 -7.764284e+04 0.000000e+00 0.000000e+00 0.000000e+00 0.000000e+00
-1.006291e+05 1.631336e+04 0.000000e+00 1.631336e+04 -7.476449e+04 0.000000e+00 0.000000e+00 0.000000e+00 0.000000e+00
-1.042644e+05 1.352486e+04 0.000000e+00 1.352486e+04 -7.160520e+04 0.000000e+00 0.000000e+00 0.000000e+00 0.000000e+00
-1.058381e+05 1.014465e+04 0.000000e+00 1.014465e+04 -6.838823e+04 0.000000e+00 0.000000e+00 0.000000e+00 0.000000e+00
-1.049063e+05 6.173292e+03 0.000000e+00 6.173292e+03 -6.518299e+04 0.000000e+00 0.000000e+00 0.000000e+00 0.000000e+00
-1.009818e+05 1.877930e+03 0.000000e+00 1.877930e+03 -6.233091e+04 0.000000e+00 0.000000e+00 0.000000e+00 0.000000e+00
-9.377084e+04 -1.808354e+03 0.000000e+00 -1.808354e+03 -6.045736e+04 0.000000e+00 0.000000e+00 0.000000e+00 0.000000e+00
-8.309774e+04 -3.000334e+03 0.000000e+00 -3.000334e+03 -5.966739e+04 0.000000e+00 0.000000e+00 0.000000e+00 0.000000e+00
-7.290102e+04 -2.520116e+03 0.000000e+00 -2.520116e+03 -5.814499e+04 0.000000e+00 0.000000e+00 0.000000e+00 0.000000e+00
-7.540173e+04 1.916965e+04 0.000000e+00 1.916965e+04 -7.308250e+04 0.000000e+00 0.000000e+00 0.000000e+00 0.000000e+00
-8.468963e+04 1.860576e+04 0.000000e+00 1.860576e+04 -7.445366e+04 0.000000e+00 0.000000e+00 0.000000e+00 0.000000e+00
-9.257973e+04 1.591400e+04 0.000000e+00 1.591400e+04 -7.194710e+04 0.000000e+00 0.000000e+00 0.000000e+00 0.000000e+00
-9.779607e+04 1.324194e+04 0.000000e+00 1.324194e+04 -6.945538e+04 0.000000e+00 0.000000e+00 0.000000e+00 0.000000e+00
-1.008418e+05 1.029951e+04 0.000000e+00 1.029951e+04 -6.701050e+04 0.000000e+00 0.000000e+00 0.000000e+00 0.000000e+00
-1.018460e+05 6.917043e+03 0.000000e+00 6.917043e+03 -6.453432e+04 0.000000e+00 0.000000e+00 0.000000e+00 0.000000e+00
-1.005305e+05 3.227620e+03 0.000000e+00 3.227620e+03 -6.226541e+04 0.000000e+00 0.000000e+00 0.000000e+00 0.000000e+00
-9.685227e+04 -2.424323e+02 0.000000e+00 -2.424323e+02 -6.052714e+04 0.000000e+00 0.000000e+00 0.000000e+00 0.000000e+00
-9.128081e+04 -2.615518e+03 0.000000e+00 -2.615518e+03 -5.969373e+04 0.000000e+00 0.000000e+00 0.000000e+00 0.000000e+00
-8.413090e+04 -2.765347e+03 0.000000e+00 -2.765347e+03 -5.955723e+04 0.000000e+00 0.000000e+00 0.000000e+00 0.000000e+00
-7.783034e+04 -1.989638e+03 0.000000e+00 -1.989638e+03 -5.868068e+04 0.000000e+00 0.000000e+00 0.000000e+00 0.000000e+00
-7.220107e+04 1.697941e+04 0.000000e+00 1.697941e+04 -6.896177e+04 0.000000e+00 0.000000e+00 0.000000e+00 0.000000e+00
-8.174098e+04 1.637910e+04 0.000000e+00 1.637910e+04 -7.028488e+04 0.000000e+00 0.000000e+00 0.000000e+00 0.000000e+00
-8.973671e+04 1.354066e+04 0.000000e+00 1.354066e+04 -6.796276e+04 0.000000e+00 0.000000e+00 0.000000e+00 0.000000e+00
-9.473750e+04 1.076434e+04 0.000000e+00 1.076434e+04 -6.588868e+04 0.000000e+00 0.000000e+00 0.000000e+00 0.000000e+00
-9.738260e+04 7.774147e+03 0.000000e+00 7.774147e+03 -6.394598e+04 0.000000e+00 0.000000e+00 0.000000e+00 0.000000e+00
-9.806538e+04 4.566305e+03 0.000000e+00 4.566305e+03 -6.208882e+04 0.000000e+00 0.000000e+00 0.000000e+00 0.000000e+00
-9.678515e+04 1.367365e+03 0.000000e+00 1.367365e+03 -6.056574e+04 0.000000e+00 0.000000e+00 0.000000e+00 0.000000e+00
-9.390636e+04 -1.272842e+03 0.000000e+00 -1.272842e+03 -5.964186e+04 0.000000e+00 0.000000e+00 0.000000e+00 0.000000e+00
-9.005777e+04 -2.713285e+03 0.000000e+00 -2.713285e+03 -5.939332e+04 0.000000e+00 0.000000e+00 0.000000e+00 0.000000e+00
-8.557526e+04 -2.359663e+03 0.000000e+00 -2.359663e+03 -5.956118e+04 0.000000e+00 0.000000e+00 0.000000e+00 0.000000e+00
-8.183680e+04 -1.530311e+03 0.000000e+00 -1.530311e+03 -5.911166e+04 0.000000e+00 0.000000e+00 0.000000e+00 0.000000e+00
-6.944773e+04 1.495483e+04 0.000000e+00 1.495483e+04 -6.625348e+04 0.000000e+00 0.000000e+00 0.000000e+00 0.000000e+00
-7.880773e+04 1.425463e+04 0.000000e+00 1.425463e+04 -6.734537e+04 0.000000e+00 0.000000e+00 0.000000e+00 0.000000e+00
-8.678846e+04 1.145441e+04 0.000000e+00 1.145441e+04 -6.521143e+04 0.000000e+00 0.000000e+00 0.000000e+00 0.000000e+00
-9.159006e+04 8.713777e+03 0.000000e+00 8.713777e+03 -6.348652e+04 0.000000e+00 0.000000e+00 0.000000e+00 0.000000e+00
-9.405582e+04 5.848557e+03 0.000000e+00 5.848557e+03 -6.192302e+04 0.000000e+00 0.000000e+00 0.000000e+00 0.000000e+00
-9.467011e+04 2.941977e+03 0.000000e+00 2.941977e+03 -6.058189e+04 0.000000e+00 0.000000e+00 0.000000e+00 0.000000e+00
-9.376838e+04 3.032737e+02 0.000000e+00 3.032737e+02 -5.963255e+04 0.000000e+00 0.000000e+00 0.000000e+00 0.000000e+00
-9.189400e+04 -1.628449e+03 0.000000e+00 -1.628449e+03 -5.922504e+04 0.000000e+00 0.000000e+00 0.000000e+00 0.000000e+00
-8.957052e+04 -2.462843e+03 0.000000e+00 -2.462843e+03 -5.929873e+04 0.000000e+00 0.000000e+00 0.000000e+00 0.000000e+00
-8.707105e+04 -1.926970e+03 0.000000e+00 -1.926970e+03 -5.959711e+04 0.000000e+00 0.000000e+00 0.000000e+00 0.000000e+00
-8.510283e+04 -1.156501e+03 0.000000e+00 -1.156501e+03 -5.944341e+04 0.000000e+00 0.000000e+00 0.000000e+00 0.000000e+00
-6.747877e+04 1.280180e+04 0.000000e+00 1.280180e+04 -6.470194e+04 0.000000e+00 0.000000e+00 0.000000e+00 0.000000e+00
-7.611052e+04 1.210904e+04 0.000000e+00 1.210904e+04 -6.538269e+04 0.000000e+00 0.000000e+00 0.000000e+00 0.000000e+00
-8.392794e+04 9.610645e+03 0.000000e+00 9.610645e+03 -6.341804e+04 0.000000e+00 0.000000e+00 0.000000e+00 0.000000e+00
-8.860706e+04 7.030536e+03 0.000000e+00 7.030536e+03 -6.194999e+04 0.000000e+00 0.000000e+00 0.000000e+00 0.000000e+00
-9.098034e+04 4.382693e+03 0.000000e+00 4.382693e+03 -6.068332e+04 0.000000e+00 0.000000e+00 0.000000e+00 0.000000e+00
-9.175454e+04 1.863149e+03 0.000000e+00 1.863149e+03 -5.970828e+04 0.000000e+00 0.000000e+00 0.000000e+00 0.000000e+00
-9.144110e+04 -2.304749e+02 0.000000e+00 -2.304749e+02 -5.916993e+04 0.000000e+00 0.000000e+00 0.000000e+00 0.000000e+00
-9.056001e+04 -1.606337e+03 0.000000e+00 -1.606337e+03 -5.906832e+04 0.000000e+00 0.000000e+00 0.000000e+00 0.000000e+00
-8.946905e+04 -2.064945e+03 0.000000e+00 -2.064945e+03 -5.929925e+04 0.000000e+00 0.000000e+00 0.000000e+00 0.000000e+00
-8.840984e+04 -1.506121e+03 0.000000e+00 -1.506121e+03 -5.964185e+04 0.000000e+00 0.000000e+00 0.000000e+00 0.000000e+00
-8.767283e+04 -8.441612e+02 0.000000e+00 -8.441612e+02 -5.969220e+04 0.000000e+00 0.000000e+00 0.000000e+00 0.000000e+00
-6.632118e+04 1.064663e+04 0.000000e+00 1.064663e+04 -6.409077e+04 0.000000e+00 0.000000e+00 0.000000e+00 0.000000e+00
-7.391102e+04 9.972470e+03 0.000000e+00 9.972470e+03 -6.430430e+04 0.000000e+00 0.000000e+00 0.000000e+00 0.000000e+00
-8.131902e+04 7.862353e+03 0.000000e+00 7.862353e+03 -6.245835e+04 0.000000e+00 0.000000e+00 0.000000e+00 0.000000e+00
-8.583259e+04 5.552590e+03 0.000000e+00 5.552590e+03 -6.104404e+04 0.000000e+00 0.000000e+00 0.000000e+00 0.000000e+00
-8.827609e+04 3.233787e+03 0.000000e+00 3.233787e+03 -5.994120e+04 0.000000e+00 0.000000e+00 0.000000e+00 0.000000e+00
-8.939092e+04 1.167837e+03 0.000000e+00 1.167837e+03 -5.923705e+04 0.000000e+00 0.000000e+00 0.000000e+00 0.000000e+00
-8.971899e+04 -4.207443e+02 0.000000e+00 -4.207443e+02 -5.896173e+04 0.000000e+00 0.000000e+00 0.000000e+00 0.000000e+00
-8.968650e+04 -1.381860e+03 0.000000e+00 -1.381860e+03 -5.904398e+04 0.000000e+00 0.000000e+00 0.000000e+00 0.000000e+00
-8.955368e+04 -1.624759e+03 0.000000e+00 -1.624759e+03 -5.934226e+04 0.000000e+00 0.000000e+00 0.000000e+00 0.000000e+00
-8.951171e+04 -1.120911e+03 0.000000e+00 -1.120911e+03 -5.969184e+04 0.000000e+00 0.000000e+00 0.000000e+00 0.000000e+00
-8.961431e+04 -5.848397e+02 0.000000e+00 -5.848397e+02 -5.988869e+04 0.000000e+00 0.000000e+00 0.000000e+00 0.000000e+00
-6.549691e+04 8.269986e+03 0.000000e+00 8.269986e+03 -6.419123e+04 0.000000e+00 0.000000e+00 0.000000e+00 0.000000e+00
-7.210259e+04 7.687073e+03 0.000000e+00 7.687073e+03 -6.397666e+04 0.000000e+00 0.000000e+00 0.000000e+00 0.000000e+00
-7.905130e+04 6.030662e+03 0.000000e+00 6.030662e+03 -6.207904e+04 0.000000e+00 0.000000e+00 0.000000e+00 0.000000e+00
-8.343157e+04 4.132702e+03 0.000000e+00 4.132702e+03 -6.061077e+04 0.000000e+00 0.000000e+00 0.000000e+00 0.000000e+00
-8.607042e+04 2.291890e+03 0.000000e+00 2.291890e+03 -5.956643e+04 0.000000e+00 0.000000e+00 0.000000e+00 0.000000e+00
-8.759880e+04 7.285337e+02 0.000000e+00 7.285337e+02 -5.902039e+04 0.000000e+00 0.000000e+00 0.000000e+00 0.000000e+00
-8.850302e+04 -4.103141e+02 0.000000e+00 -4.103141e+02 -5.889962e+04 0.000000e+00 0.000000e+00 0.000000e+00 0.000000e+00
-8.912598e+04 -1.055156e+03 0.000000e+00 -1.055156e+03 -5.908187e+04 0.000000e+00 0.000000e+00 0.000000e+00 0.000000e+00
-8.970183e+04 -1.177540e+03 0.000000e+00 -1.177540e+03 -5.941305e+04 0.000000e+00 0.000000e+00 0.000000e+00 0.000000e+00
-9.035920e+04 -7.832069e+02 0.000000e+00 -7.832069e+02 -5.974477e+04 0.000000e+00 0.000000e+00 0.000000e+00 0.000000e+00
-9.100427e+04 -3.845588e+02 0.000000e+00 -3.845588e+02 -6.003571e+04 0.000000e+00 0.000000e+00 0.000000e+00 0.000000e+00
-6.495668e+04 5.626926e+03 0.000000e+00 5.626926e+03 -6.446321e+04 0.000000e+00 0.000000e+00 0.000000e+00 0.000000e+00
-7.077692e+04 5.209777e+03 0.000000e+00 5.209777e+03 -6.398827e+04 0.000000e+00 0.000000e+00 0.000000e+00 0.000000e+00
-7.731905e+04 4.055326e+03 0.000000e+00 4.055326e+03 -6.193733e+04 0.000000e+00 0.000000e+00 0.000000e+00 0.000000e+00
-8.160617e+04 2.723080e+03 0.000000e+00 2.723080e+03 -6.043765e+04 0.000000e+00 0.000000e+00 0.000000e+00 0.000000e+00
-8.442857e+04 1.462761e+03 0.000000e+00 1.462761e+03 -5.946828e+04 0.000000e+00 0.000000e+00 0.000000e+00 0.000000e+00
-8.633443e+04 4.279490e+02 0.000000e+00 4.279490e+02 -5.899810e+04 0.000000e+00 0.000000e+00 0.000000e+00 0.000000e+00
-8.769112e+04 -3.022092e+02 0.000000e+00 -3.022092e+02 -5.893813e+04 0.000000e+00 0.000000e+00 0.000000e+00 0.000000e+00
-8.879166e+04 -6.965971e+02 0.000000e+00 -6.965971e+02 -5.915369e+04 0.000000e+00 0.000000e+00 0.000000e+00 0.000000e+00
-8.983927e+04 -7.501277e+02 0.000000e+00 -7.501277e+02 -5.948474e+04 0.000000e+00 0.000000e+00 0.000000e+00 0.000000e+00
-9.094757e+04 -4.870600e+02 0.000000e+00 -4.870600e+02 -5.978554e+04 0.000000e+00 0.000000e+00 0.000000e+00 0.000000e+00
-9.194316e+04 -2.297203e+02 0.000000e+00 -2.297203e+02 -6.012923e+04 0.000000e+00 0.000000e+00 0.000000e+00 0.000000e+00
-6.463661e+04 2.754981e+03 0.000000e+00 2.754981e+03 -6.455182e+04 0.000000e+00 0.000000e+00 0.000000e+00 0.000000e+00
-6.999495e+04 2.562521e+03 0.000000e+00 2.562521e+03 -6.396639e+04 0.000000e+00 0.000000e+00 0.000000e+00 0.000000e+00
-7.622577e+04 2.011381e+03 0.000000e+00 2.011381e+03 -6.185884e+04 0.000000e+00 0.000000e+00 0.000000e+00 0.000000e+00
-8.049682e+04 1.344883e+03 0.000000e+00 1.344883e+03 -6.038660e+04 0.000000e+00 0.000000e+00 0.000000e+00 0.000000e+00
-8.343759e+04 7.143009e+02 0.000000e+00 7.143009e+02 -5.947219e+04 0.000000e+00 0.000000e+00 0.000000e+00 0.000000e+00
-8.558202e+04 1.969825e+02 0.000000e+00 1.969825e+02 -5.904905e+04 0.000000e+00 0.000000e+00 0.000000e+00 0.000000e+00
-8.722337e+04 -1.586585e+02 0.000000e+00 -1.586585e+02 -5.901649e+04 0.000000e+00 0.000000e+00 0.000000e+00 0.000000e+00
-8.861975e+04 -3.433157e+02 0.000000e+00 -3.433157e+02 -5.923534e+04 0.000000e+00 0.000000e+00 0.000000e+00 0.000000e+00
-8.992884e+04 -3.587979e+02 0.000000e+00 -3.587979e+02 -5.955130e+04 0.000000e+00 0.000000e+00 0.000000e+00 0.000000e+00
-9.128866e+04 -2.300717e+02 0.000000e+00 -2.300717e+02 -5.981836e+04 0.000000e+00 0.000000e+00 0.000000e+00 0.000000e+00
-9.247236e+04 -1.024712e+02 0.000000e+00 -1.024712e+02 -6.017711e+04 0.000000e+00 0.000000e+00 0.000000e+00 0.000000e+00
-6.441670e+04 6.949291e+02 0.000000e+00 6.949291e+02 -6.428862e+04 0.000000e+00 0.000000e+00 0.000000e+00 0.000000e+00
-6.969509e+04 7.145775e+02 0.000000e+00 7.145775e+02 -6.379073e+04 0.000000e+00 0.000000e+00 0.000000e+00 0.000000e+00
-7.585063e+04 5.766188e+02 0.000000e+00 5.766188e+02 -6.181918e+04 0.000000e+00 0.000000e+00 0.000000e+00 0.000000e+00
-8.013680e+04 3.397579e+02 0.000000e+00 3.397579e+02 -6.037818e+04 0.000000e+00 0.000000e+00 0.000000e+00 0.000000e+00
-8.311596e+04 1.045710e+02 0.000000e+00 1.045710e+02 -5.948697e+04 0.000000e+00 0.000000e+00 0.000000e+00 0.000000e+00
-8.534188e+04 -8.579196e+01 0.000000e+00 -8.579196e+01 -5.908670e+04 0.000000e+00 0.000000e+00 0.000000e+00 0.000000e+00
-8.707825e+04 -2.196401e+02 0.000000e+00 -2.196401e+02 -5.906555e+04 0.000000e+00 0.000000e+00 0.000000e+00 0.000000e+00
-8.857706e+04 -2.916898e+02 0.000000e+00 -2.916898e+02 -5.928107e+04 0.000000e+00 0.000000e+00 0.000000e+00 0.000000e+00
-8.996959e+04 -2.954408e+02 0.000000e+00 -2.954408e+02 -5.959382e+04 0.000000e+00 0.000000e+00 0.000000e+00 0.000000e+00
-9.141145e+04 -2.412590e+02 0.000000e+00 -2.412590e+02 -5.984441e+04 0.000000e+00 0.000000e+00 0.000000e+00 0.000000e+00
-9.265070e+04 -1.817082e+02 0.000000e+00 -1.817082e+02 -6.020389e+04 0.000000e+00 0.000000e+00 0.000000e+00 0.000000e+00
</DataArray>
<DataArray Name="vol_eps" type="Float64" NumberOfComponents="1" format="ascii">
-1.157508e-02
-1.006364e-02
-8.674701e-03
-7.645831e-03
-7.458082e-03
-7.853040e-03
-9.332200e-03
-1.145336e-02
-1.456288e-02
-1.743729e-02
-1.790584e-02
-1.102823e-02
-9.419483e-03
-8.337345e-03
-7.947187e-03
-8.243674e-03
-8.676435e-03
-9.458221e-03
-1.062446e-02
-1.257167e-02
-1.486484e-02
-1.892050e-02
-9.152105e-03
-7.577936e-03
-7.008275e-03
-7.282521e-03
-7.699819e-03
-7.982353e-03
-8.462650e-03
-9.039277e-03
-9.371397e-03
-1.042706e-02
-1.401312e-02
-6.297046e-03
-5.288275e-03
-5.126916e-03
-5.231916e-03
-5.197593e-03
-4.700297e-03
-3.545295e-03
-1.798060e-03
6.880218e-04
4.270938e-03
8.129105e-03
-4.810775e-03
-4.593752e-03
-5.082303e-03
-5.527514e-03
-5.755354e-03
-5.770162e-03
-5.484294e-03
-5.016136e-03
-4.289956e-03
-2.728373e-03
1.950954e-04
-3.410125e-03
-3.755424e-03
-4.370118e-03
-4.750295e-03
-4.920027e-03
-4.865429e-03
-4.535520e-03
-4.031512e-03
-3.288866e-03
-1.821943e-03
1.871608e-04
-2.319752e-03
-3.113834e-03
-3.784285e-03
-4.098992e-03
-4.162488e-03
-4.038645e-03
-3.742150e-03
-3.289873e-03
-2.600248e-03
-1.501832e-03
-2.689444e-04
-1.603798e-03
-2.593881e-03
-3.254303e-03
-3.479196e-03
-3.506718e-03
-3.400346e-03
-3.158053e-03
-2.755113e-03
-2.200649e-03
-1.452988e-03
-6.826690e-04
-1.171169e-03
-2.166348e-03
-2.758371e-03
-2.961994e-03
-3.003240e-03
-2.922669e-03
-2.712884e-03
-2.386253e-03
-1.995441e-03
-1.514908e-03
-1.036643e-03
-8.957850e-04
-1.824085e-03
-2.348665e-03
-2.555275e-03
-2.608083e-03
-2.543731e-03
-2.374786e-03
-2.147913e-03
-1.899068e-03
-1.612897e-03
-1.330797e-03
-7.330860e-04
-1.547313e-03
-2.016175e-03
-2.227347e-03
-2.286298e-03
-2.240403e-03
-2.128818e-03
-1.998111e-03
-1.862912e-03
-1.716833e-03
-1.572981e-03
-6.334153e-04
-1.314614e-03
-1.740841e-03
-1.955426e-03
-2.021820e-03
-2.006909e-03
-1.958347e-03
-1.906559e-03
-1.857688e-03
-1.810530e-03
-1.763523e-03
-5.796048e-04
-1.129058e-03
-1.514319e-03
-1.720002e-03
-1.805805e-03
-1.832379e-03
-1.841139e-03
-1.851343e-03
-1.866789e-03
-1.887176e-03
-1.905475e-03
-5.740208e-04
-1.006335e-03
-1.341687e-03
-1.533141e-03
-1.638606e-03
-1.706293e-03
-1.760943e-03
-1.817826e-03
-1.879966e-03
-1.943709e-03
-2.003510e-03
-5.868137e-04
-9.355844e-04
-1.221333e-03
-1.402756e-03
-1.525139e-03
-1.623454e-03
-1.711223e-03
-1.799636e-03
-1.891466e-03
-1.981312e-03
-2.067121e-03
-5.870903e-04
-8.912456e-04
-1.146700e-03
-1.325633e-03
-1.460809e-03
-1.577718e-03
-1.685934e-03
-1.792867e-03
-1.899617e-03
-2.003060e-03
-2.102029e-03
-5.601006e-04
-8.629117e-04
-1.120987e-03
-1.300329e-03
-1.440754e-03
-1.564872e-03
-1.680365e-03
-1.793193e-03
-1.904954e-03
-2.012621e-03
-2.115411e-03
</DataArray>
</PointData>
</Piece>
</UnstructuredGrid>
</VTKFile>
