<?xml version="1.0"?>
<VTKFile type="UnstructuredGrid" version="0.1">
<UnstructuredGrid>
<FieldData>
<DataArray Name="TIME" type="Float64" format="ascii" NumberOfTuples="1">
0.000000e+00
</DataArray>
</FieldData>
<FieldData>
<DataArray Name="CYCLE" type="Int32" format="ascii" NumberOfTuples="1">
0
</DataArray>
</FieldData>
<Piece NumberOfPoints="187" NumberOfCells="160">
<Points>
<DataArray NumberOfComponents="3" type="Float64" format="ascii">
0.000000e+00 0.000000e+00 0.000000e+00
0.000000e+00 1.966946e-01 0.000000e+00
0.000000e+00 3.914331e-01 0.000000e+00
0.000000e+00 5.833957e-01 0.000000e+00
0.000000e+00 7.737438e-01 0.000000e+00
0.000000e+00 9.632566e-01 0.000000e+00
0.000000e+00 1.152775e+00 0.000000e+00
0.000000e+00 1.342888e+00 0.000000e+00
0.000000e+00 1.534647e+00 0.000000e+00
0.000000e+00 1.729747e+00 0.000000e+00
0.000000e+00 1.925750e+00 0.000000e+00
2.250000e-01 0.000000e+00 0.000000e+00
2.270097e-01 1.966117e-01 0.000000e+00
2.303920e-01 3.915747e-01 0.000000e+00
2.332574e-01 5.846481e-01 0.000000e+00
2.348007e-01 7.763076e-01 0.000000e+00
2.353067e-01 9.669308e-01 0.000000e+00
2.347925e-01 1.156986e+00 0.000000e+00
2.333233e-01 1.347182e+00 0.000000e+00
2.299262e-01 1.537855e+00 0.000000e+00
2.255495e-01 1.730165e+00 0.000000e+00
2.250000e-01 1.925750e+00 0.000000e+00
4.500000e-01 0.000000e+00 0.000000e+00
4.544002e-01 1.970012e-01 0.000000e+00
4.592864e-01 3.931008e-01 0.000000e+00
4.635256e-01 5.887724e-01 0.000000e+00
4.664857e-01 7.837749e-01 0.000000e+00
4.683594e-01 9.777043e-01 0.000000e+00
4.687928e-01 1.170180e+00 0.000000e+00
4.678969e-01 1.361075e+00 0.000000e+00
4.642967e-01 1.550364e+00 0.000000e+00
4.587775e-01 1.738218e+00 0.000000e+00
4.500000e-01 1.925750e+00 0.000000e+00
6.750000e-01 0.000000e+00 0.000000e+00
6.811383e-01 1.984075e-01 0.000000e+00
6.864645e-01 3.966038e-01 0.000000e+00
6.906292e-01 5.949678e-01 0.000000e+00
6.938742e-01 7.936586e-01 0.000000e+00
6.962695e-01 9.927108e-01 0.000000e+00
6.975752e-01 1.192172e+00 0.000000e+00
6.973168e-01 1.392243e+00 0.000000e+00
6.951016e-01 1.592827e+00 0.000000e+00
6.910403e-01 1.793416e+00 0.000000e+00
6.841039e-01 1.993167e+00 0.000000e+00
9.000000e-01 0.000000e+00 0.000000e+00
9.066709e-01 1.988873e-01 0.000000e+00
9.115981e-01 3.978924e-01 0.000000e+00
9.151989e-01 5.972228e-01 0.000000e+00
9.179705e-01 7.968932e-01 0.000000e+00
9.199048e-01 9.969610e-01 0.000000e+00
9.207276e-01 1.197466e+00 0.000000e+00
9.201105e-01 1.398311e+00 0.000000e+00
9.179822e-01 1.599229e+00 0.000000e+00
9.144512e-01 1.799955e+00 0.000000e+00
9.098355e-01 2.000062e+00 0.000000e+00
1.125000e+00 0.000000e+00 0.000000e+00
1.131733e+00 1.994200e-01 0.000000e+00
1.135964e+00 3.990128e-01 0.000000e+00
1.139083e+00 5.989546e-01 0.000000e+00
1.141434e+00 7.992412e-01 0.000000e+00
1.142943e+00 9.998782e-01 0.000000e+00
1.143450e+00 1.200829e+00 0.000000e+00
1.142800e+00 1.401953e+00 0.000000e+00
1.140992e+00 1.603010e+00 0.000000e+00
1.138295e+00 1.803702e+00 0.000000e+00
1.135441e+00 2.003783e+00 0.000000e+00
1.350000e+00 0.000000e+00 0.000000e+00
1.356316e+00 1.997904e-01 0.000000e+00
1.359915e+00 3.998184e-01 0.000000e+00
1.362617e+00 6.001602e-01 0.000000e+00
1.364580e+00 8.007962e-01 0.000000e+00
1.365782e+00 1.001727e+00 0.000000e+00
1.366136e+00 1.202885e+00 0.000000e+00
1.365585e+00 1.404106e+00 0.000000e+00
1.364208e+00 1.605183e+00 0.000000e+00
1.362376e+00 1.805830e+00 0.000000e+00
1.360689e+00 2.005982e+00 0.000000e+00
1.575000e+00 0.000000e+00 0.000000e+00
1.580598e+00 2.000607e-01 0.000000e+00
1.583659e+00 4.003394e-01 0.000000e+00
1.585965e+00 6.009017e-01 0.000000e+00
1.587627e+00 8.017339e-01 0.000000e+00
1.588616e+00 1.002797e+00 0.000000e+00
1.588912e+00 1.204005e+00 0.000000e+00
1.588522e+00 1.405227e+00 0.000000e+00
1.587596e+00 1.606263e+00 0.000000e+00
1.586497e+00 1.806896e+00 0.000000e+00
1.585629e+00 2.007120e+00 0.000000e+00
1.800000e+00 0.000000e+00 0.000000e+00
1.804702e+00 2.001832e-01 0.000000e+00
1.807311e+00 4.006050e-01 0.000000e+00
1.809278e+00 6.012747e-01 0.000000e+00
1.810695e+00 8.021883e-01 0.000000e+00
1.811535e+00 1.003274e+00 0.000000e+00
1.811827e+00 1.204463e+00 0.000000e+00
1.811621e+00 1.405626e+00 0.000000e+00
1.811107e+00 1.606591e+00 0.000000e+00
1.810574e+00 1.807221e+00 0.000000e+00
1.810279e+00 2.007536e+00 0.000000e+00
2.025000e+00 0.000000e+00 0.000000e+00
2.028768e+00 2.002037e-01 0.000000e+00
2.030971e+00 4.006676e-01 0.000000e+00
2.032647e+00 6.013693e-01 0.000000e+00
2.033850e+00 8.022823e-01 0.000000e+00
2.034585e+00 1.003336e+00 0.000000e+00
2.034898e+00 1.204456e+00 0.000000e+00
2.034879e+00 1.405527e+00 0.000000e+00
2.034698e+00 1.606416e+00 0.000000e+00
2.034567e+00 1.807057e+00 0.000000e+00
2.034644e+00 2.007477e+00 0.000000e+00
2.250000e+00 0.000000e+00 0.000000e+00
2.252891e+00 2.001737e-01 0.000000e+00
2.254723e+00 4.006190e-01 0.000000e+00
2.256122e+00 6.012884e-01 0.000000e+00
2.257133e+00 8.021455e-01 0.000000e+00
2.257787e+00 1.003122e+00 0.000000e+00
2.258131e+00 1.204141e+00 0.000000e+00
2.258274e+00 1.405110e+00 0.000000e+00
2.258332e+00 1.605942e+00 0.000000e+00
2.258455e+00 1.806604e+00 0.000000e+00
2.258744e+00 2.007134e+00 0.000000e+00
2.475000e+00 0.000000e+00 0.000000e+00
2.477121e+00 2.001233e-01 0.000000e+00
2.478603e+00 4.005159e-01 0.000000e+00
2.479742e+00 6.011142e-01 0.000000e+00
2.480580e+00 8.018740e-01 0.000000e+00
2.481158e+00 1.002737e+00 0.000000e+00
2.481527e+00 1.203642e+00 0.000000e+00
2.481773e+00 1.404523e+00 0.000000e+00
2.481977e+00 1.605323e+00 0.000000e+00
2.482240e+00 1.806018e+00 0.000000e+00
2.482623e+00 2.006646e+00 0.000000e+00
2.700000e+00 0.000000e+00 0.000000e+00
2.701479e+00 2.000714e-01 0.000000e+00
2.702627e+00 4.003859e-01 0.000000e+00
2.703528e+00 6.008902e-01 0.000000e+00
2.704209e+00 8.015361e-01 0.000000e+00
2.704705e+00 1.002281e+00 0.000000e+00
2.705061e+00 1.203084e+00 0.000000e+00
2.705343e+00 1.403895e+00 0.000000e+00
2.705612e+00 1.604673e+00 0.000000e+00
2.705929e+00 1.805407e+00 0.000000e+00
2.706323e+00 2.006127e+00 0.000000e+00
2.925000e+00 0.000000e+00 0.000000e+00
2.925968e+00 2.000229e-01 0.000000e+00
2.926799e+00 4.002460e-01 0.000000e+00
2.927475e+00 6.006498e-01 0.000000e+00
2.928004e+00 8.011966e-01 0.000000e+00
2.928402e+00 1.001849e+00 0.000000e+00
2.928703e+00 1.202568e+00 0.000000e+00
2.928963e+00 1.403321e+00 0.000000e+00
2.929228e+00 1.604084e+00 0.000000e+00
2.929528e+00 1.804854e+00 0.000000e+00
2.929871e+00 2.005657e+00 0.000000e+00
3.150000e+00 0.000000e+00 0.000000e+00
3.150581e+00 1.999748e-01 0.000000e+00
3.151110e+00 4.001244e-01 0.000000e+00
3.151564e+00 6.004454e-01 0.000000e+00
3.151927e+00 8.009178e-01 0.000000e+00
3.152206e+00 1.001502e+00 0.000000e+00
3.152425e+00 1.202162e+00 0.000000e+00
3.152621e+00 1.402869e+00 0.000000e+00
3.152826e+00 1.603619e+00 0.000000e+00
3.153056e+00 1.804415e+00 0.000000e+00
3.153307e+00 2.005277e+00 0.000000e+00
3.375000e+00 0.000000e+00 0.000000e+00
3.375273e+00 1.999437e-01 0.000000e+00
3.375528e+00 4.000480e-01 0.000000e+00
3.375754e+00 6.003184e-01 0.000000e+00
3.375939e+00 8.007407e-01 0.000000e+00
3.376084e+00 1.001279e+00 0.000000e+00
3.376199e+00 1.201901e+00 0.000000e+00
3.376303e+00 1.402581e+00 0.000000e+00
3.376414e+00 1.603318e+00 0.000000e+00
3.376538e+00 1.804126e+00 0.000000e+00
3.376670e+00 2.005024e+00 0.000000e+00
3.600000e+00 0.000000e+00 0.000000e+00
3.600000e+00 1.999445e-01 0.000000e+00
3.600000e+00 4.000359e-01 0.000000e+00
3.600000e+00 6.002883e-01 0.000000e+00
3.600000e+00 8.006870e-01 0.000000e+00
3.600000e+00 1.001205e+00 0.000000e+00
3.600000e+00 1.201807e+00 0.000000e+00
3.600000e+00 1.402472e+00 0.000000e+00
3.600000e+00 1.603201e+00 0.000000e+00
3.600000e+00 1.804009e+00 0.000000e+00
3.600000e+00 2.004915e+00 0.000000e+00
</DataArray>
</Points>
<Cells>
<DataArray Name="connectivity" type="Int32" format="ascii">
0 11 12 1
1 12 13 2
2 13 14 3
3 14 15 4
4 15 16 5
5 16 17 6
6 17 18 7
7 18 19 8
8 19 20 9
9 20 21 10
11 22 23 12
12 23 24 13
13 24 25 14
14 25 26 15
15 26 27 16
16 27 28 17
17 28 29 18
18 29 30 19
19 30 31 20
20 31 32 21
22 33 34 23
23 34 35 24
24 35 36 25
25 36 37 26
26 37 38 27
27 38 39 28
28 39 40 29
29 40 41 30
30 41 42 31
31 42 43 32
33 44 45 34
34 45 46 35
35 46 47 36
36 47 48 37
37 48 49 38
38 49 50 39
39 50 51 40
40 51 52 41
41 52 53 42
42 53 54 43
44 55 56 45
45 56 57 46
46 57 58 47
47 58 59 48
48 59 60 49
49 60 61 50
50 61 62 51
51 62 63 52
52 63 64 53
53 64 65 54
55 66 67 56
56 67 68 57
57 68 69 58
58 69 70 59
59 70 71 60
60 71 72 61
61 72 73 62
62 73 74 63
63 74 75 64
64 75 76 65
66 77 78 67
67 78 79 68
68 79 80 69
69 80 81 70
70 81 82 71
71 82 83 72
72 83 84 73
73 84 85 74
74 85 86 75
75 86 87 76
77 88 89 78
78 89 90 79
79 90 91 80
80 91 92 81
81 92 93 82
82 93 94 83
83 94 95 84
84 95 96 85
85 96 97 86
86 97 98 87
88 99 100 89
89 100 101 90
90 101 102 91
91 102 103 92
92 103 104 93
93 104 105 94
94 105 106 95
95 106 107 96
96 107 108 97
97 108 109 98
99 110 111 100
100 111 112 101
101 112 113 102
102 113 114 103
103 114 115 104
104 115 116 105
105 116 117 106
106 117 118 107
107 118 119 108
108 119 120 109
110 121 122 111
111 122 123 112
112 123 124 113
113 124 125 114
114 125 126 115
115 126 127 116
116 127 128 117
117 128 129 118
118 129 130 119
119 130 131 120
121 132 133 122
122 133 134 123
123 134 135 124
124 135 136 125
125 136 137 126
126 137 138 127
127 138 139 128
128 139 140 129
129 140 141 130
130 141 142 131
132 143 144 133
133 144 145 134
134 145 146 135
135 146 147 136
136 147 148 137
137 148 149 138
138 149 150 139
139 150 151 140
140 151 152 141
141 152 153 142
143 154 155 144
144 155 156 145
145 156 157 146
146 157 158 147
147 158 159 148
148 159 160 149
149 160 161 150
150 161 162 151
151 162 163 152
152 163 164 153
154 165 166 155
155 166 167 156
156 167 168 157
157 168 169 158
158 169 170 159
159 170 171 160
160 171 172 161
161 172 173 162
162 173 174 163
163 174 175 164
165 176 177 166
166 177 178 167
167 178 179 168
168 179 180 169
169 180 181 170
170 181 182 171
171 182 183 172
172 183 184 173
173 184 185 174
174 185 186 175
</DataArray>
<DataArray Name="offsets" type="Int32" format="ascii">
4
8
12
16
20
24
28
32
36
40
44
48
52
56
60
64
68
72
76
80
84
88
92
96
100
104
108
112
116
120
124
128
132
136
140
144
148
152
156
160
164
168
172
176
180
184
188
192
196
200
204
208
212
216
220
224
228
232
236
240
244
248
252
256
260
264
268
272
276
280
284
288
292
296
300
304
308
312
316
320
324
328
332
336
340
344
348
352
356
360
364
368
372
376
380
384
388
392
396
400
404
408
412
416
420
424
428
432
436
440
444
448
452
456
460
464
468
472
476
480
484
488
492
496
500
504
508
512
516
520
524
528
532
536
540
544
548
552
556
560
564
568
572
576
580
584
588
592
596
600
604
608
612
616
620
624
628
632
636
640
</DataArray>
<DataArray Name="types" type="UInt8" format="ascii">
9
9
9
9
9
9
9
9
9
9
9
9
9
9
9
9
9
9
9
9
9
9
9
9
9
9
9
9
9
9
9
9
9
9
9
9
9
9
9
9
9
9
9
9
9
9
9
9
9
9
9
9
9
9
9
9
9
9
9
9
9
9
9
9
9
9
9
9
9
9
9
9
9
9
9
9
9
9
9
9
9
9
9
9
9
9
9
9
9
9
9
9
9
9
9
9
9
9
9
9
9
9
9
9
9
9
9
9
9
9
9
9
9
9
9
9
9
9
9
9
9
9
9
9
9
9
9
9
9
9
9
9
9
9
9
9
9
9
9
9
9
9
9
9
9
9
9
9
9
9
9
9
9
9
9
9
9
9
9
9
</DataArray>
</Cells>
<PointData>
<DataArray Name="disp" type="Float64" NumberOfComponents="3" format="ascii">
0.000000e+00 0.000000e+00 0.000000e+00
0.000000e+00 -3.305368e-03 0.000000e+00
0.000000e+00 -8.566869e-03 0.000000e+00
0.000000e+00 -1.660435e-02 0.000000e+00
0.000000e+00 -2.625621e-02 0.000000e+00
0.000000e+00 -3.674342e-02 0.000000e+00
0.000000e+00 -4.722518e-02 0.000000e+00
0.000000e+00 -5.711222e-02 0.000000e+00
0.000000e+00 -6.535269e-02 0.000000e+00
0.000000e+00 -7.025264e-02 0.000000e+00
0.000000e+00 -7.425000e-02 0.000000e+00
0.000000e+00 0.000000e+00 0.000000e+00
2.009648e-03 -3.388253e-03 0.000000e+00
5.391991e-03 -8.425246e-03 0.000000e+00
8.257363e-03 -1.535185e-02 0.000000e+00
9.800749e-03 -2.369237e-02 0.000000e+00
1.030672e-02 -3.306920e-02 0.000000e+00
9.792498e-03 -4.301365e-02 0.000000e+00
8.323293e-03 -5.281845e-02 0.000000e+00
4.926241e-03 -6.214538e-02 0.000000e+00
5.494824e-04 -6.983536e-02 0.000000e+00
0.000000e+00 -7.425000e-02 0.000000e+00
0.000000e+00 0.000000e+00 0.000000e+00
4.400144e-03 -2.998795e-03 0.000000e+00
9.286403e-03 -6.899164e-03 0.000000e+00
1.352561e-02 -1.122764e-02 0.000000e+00
1.648567e-02 -1.622506e-02 0.000000e+00
1.835942e-02 -2.229567e-02 0.000000e+00
1.879283e-02 -2.981956e-02 0.000000e+00
1.789691e-02 -3.892544e-02 0.000000e+00
1.429671e-02 -4.963551e-02 0.000000e+00
8.777548e-03 -6.178175e-02 0.000000e+00
0.000000e+00 -7.425000e-02 0.000000e+00
0.000000e+00 0.000000e+00 0.000000e+00
6.138364e-03 -1.592523e-03 0.000000e+00
1.146454e-02 -3.396248e-03 0.000000e+00
1.562918e-02 -5.032205e-03 0.000000e+00
1.887427e-02 -6.341444e-03 0.000000e+00
2.126946e-02 -7.289257e-03 0.000000e+00
2.257516e-02 -7.827668e-03 0.000000e+00
2.231684e-02 -7.756853e-03 0.000000e+00
2.010154e-02 -7.173290e-03 0.000000e+00
1.604031e-02 -6.583640e-03 0.000000e+00
9.103879e-03 -6.833046e-03 0.000000e+00
0.000000e+00 0.000000e+00 0.000000e+00
6.670915e-03 -1.112679e-03 0.000000e+00
1.159806e-02 -2.107543e-03 0.000000e+00
1.519893e-02 -2.777221e-03 0.000000e+00
1.797053e-02 -3.106731e-03 0.000000e+00
1.990479e-02 -3.039001e-03 0.000000e+00
2.072755e-02 -2.533655e-03 0.000000e+00
2.011046e-02 -1.688700e-03 0.000000e+00
1.798221e-02 -7.714353e-04 0.000000e+00
1.445116e-02 -4.530220e-05 0.000000e+00
9.835513e-03 6.170528e-05 0.000000e+00
0.000000e+00 0.000000e+00 0.000000e+00
6.733301e-03 -5.800030e-04 0.000000e+00
1.096354e-02 -9.872275e-04 0.000000e+00
1.408254e-02 -1.045434e-03 0.000000e+00
1.643378e-02 -7.588347e-04 0.000000e+00
1.794330e-02 -1.217692e-04 0.000000e+00
1.844951e-02 8.288815e-04 0.000000e+00
1.780034e-02 1.952721e-03 0.000000e+00
1.599234e-02 3.010321e-03 0.000000e+00
1.329503e-02 3.701840e-03 0.000000e+00
1.044139e-02 3.783379e-03 0.000000e+00
0.000000e+00 0.000000e+00 0.000000e+00
6.316497e-03 -2.096283e-04 0.000000e+00
9.914982e-03 -1.816217e-04 0.000000e+00
1.261687e-02 1.602013e-04 0.000000e+00
1.457988e-02 7.962051e-04 0.000000e+00
1.578208e-02 1.726771e-03 0.000000e+00
1.613623e-02 2.884726e-03 0.000000e+00
1.558519e-02 4.106292e-03 0.000000e+00
1.420802e-02 5.183260e-03 0.000000e+00
1.237600e-02 5.829854e-03 0.000000e+00
1.068896e-02 5.982040e-03 0.000000e+00
0.000000e+00 0.000000e+00 0.000000e+00
5.597584e-03 6.073255e-05 0.000000e+00
8.659192e-03 3.394313e-04 0.000000e+00
1.096487e-02 9.017278e-04 0.000000e+00
1.262697e-02 1.733925e-03 0.000000e+00
1.361621e-02 2.797438e-03 0.000000e+00
1.391182e-02 4.004946e-03 0.000000e+00
1.352206e-02 5.226964e-03 0.000000e+00
1.259557e-02 6.263393e-03 0.000000e+00
1.149657e-02 6.895897e-03 0.000000e+00
1.062892e-02 7.119588e-03 0.000000e+00
0.000000e+00 0.000000e+00 0.000000e+00
4.701723e-03 1.832373e-04 0.000000e+00
7.311212e-03 6.049564e-04 0.000000e+00
9.277840e-03 1.274719e-03 0.000000e+00
1.069463e-02 2.188319e-03 0.000000e+00
1.153521e-02 3.274387e-03 0.000000e+00
1.182722e-02 4.463178e-03 0.000000e+00
1.162129e-02 5.626355e-03 0.000000e+00
1.110654e-02 6.591235e-03 0.000000e+00
1.057415e-02 7.221035e-03 0.000000e+00
1.027935e-02 7.536436e-03 0.000000e+00
0.000000e+00 0.000000e+00 0.000000e+00
3.767478e-03 2.037271e-04 0.000000e+00
5.971148e-03 6.676238e-04 0.000000e+00
7.647487e-03 1.369309e-03 0.000000e+00
8.849684e-03 2.282250e-03 0.000000e+00
9.584917e-03 3.335726e-03 0.000000e+00
9.897503e-03 4.455912e-03 0.000000e+00
9.878661e-03 5.527087e-03 0.000000e+00
9.697571e-03 6.416490e-03 0.000000e+00
9.566609e-03 7.056742e-03 0.000000e+00
9.643978e-03 7.476883e-03 0.000000e+00
0.000000e+00 0.000000e+00 0.000000e+00
2.891026e-03 1.737040e-04 0.000000e+00
4.722840e-03 6.189711e-04 0.000000e+00
6.121659e-03 1.288400e-03 0.000000e+00
7.132498e-03 2.145479e-03 0.000000e+00
7.786531e-03 3.121587e-03 0.000000e+00
8.131338e-03 4.141420e-03 0.000000e+00
8.273708e-03 5.109674e-03 0.000000e+00
8.331701e-03 5.942071e-03 0.000000e+00
8.455096e-03 6.604079e-03 0.000000e+00
8.743756e-03 7.133757e-03 0.000000e+00
0.000000e+00 0.000000e+00 0.000000e+00
2.120884e-03 1.233394e-04 0.000000e+00
3.602942e-03 5.158621e-04 0.000000e+00
4.742223e-03 1.114232e-03 0.000000e+00
5.580061e-03 1.874038e-03 0.000000e+00
6.157562e-03 2.736682e-03 0.000000e+00
6.526766e-03 3.641929e-03 0.000000e+00
6.773164e-03 4.523267e-03 0.000000e+00
6.976858e-03 5.323103e-03 0.000000e+00
7.239914e-03 6.018402e-03 0.000000e+00
7.623438e-03 6.645589e-03 0.000000e+00
0.000000e+00 0.000000e+00 0.000000e+00
1.479164e-03 7.137207e-05 0.000000e+00
2.627149e-03 3.859087e-04 0.000000e+00
3.527881e-03 8.901814e-04 0.000000e+00
4.209371e-03 1.536101e-03 0.000000e+00
4.705484e-03 2.280911e-03 0.000000e+00
5.060985e-03 3.083695e-03 0.000000e+00
5.343008e-03 3.895020e-03 0.000000e+00
5.611794e-03 4.673081e-03 0.000000e+00
5.928984e-03 5.407421e-03 0.000000e+00
6.322831e-03 6.126775e-03 0.000000e+00
0.000000e+00 0.000000e+00 0.000000e+00
9.684009e-04 2.285655e-05 0.000000e+00
1.798716e-03 2.460033e-04 0.000000e+00
2.475014e-03 6.498119e-04 0.000000e+00
3.004033e-03 1.196611e-03 0.000000e+00
3.402169e-03 1.848769e-03 0.000000e+00
3.702811e-03 2.568427e-03 0.000000e+00
3.962885e-03 3.321262e-03 0.000000e+00
4.228120e-03 4.083621e-03 0.000000e+00
4.527650e-03 4.854333e-03 0.000000e+00
4.871290e-03 5.656841e-03 0.000000e+00
0.000000e+00 0.000000e+00 0.000000e+00
5.812998e-04 -2.523449e-05 0.000000e+00
1.110456e-03 1.244422e-04 0.000000e+00
1.563638e-03 4.454769e-04 0.000000e+00
1.927444e-03 9.178162e-04 0.000000e+00
2.206337e-03 1.502385e-03 0.000000e+00
2.425265e-03 2.161542e-03 0.000000e+00
2.620523e-03 2.869439e-03 0.000000e+00
2.826292e-03 3.618671e-03 0.000000e+00
3.055900e-03 4.414944e-03 0.000000e+00
3.307237e-03 5.277477e-03 0.000000e+00
0.000000e+00 0.000000e+00 0.000000e+00
2.729332e-04 -5.634242e-05 0.000000e+00
5.278366e-04 4.802589e-05 0.000000e+00
7.543475e-04 3.183824e-04 0.000000e+00
9.393556e-04 7.407123e-04 0.000000e+00
1.083642e-03 1.279425e-03 0.000000e+00
1.198425e-03 1.900674e-03 0.000000e+00
1.303526e-03 2.580708e-03 0.000000e+00
1.414132e-03 3.317917e-03 0.000000e+00
1.537970e-03 4.126108e-03 0.000000e+00
1.670213e-03 5.023939e-03 0.000000e+00
0.000000e+00 0.000000e+00 0.000000e+00
0.000000e+00 -5.547524e-05 0.000000e+00
0.000000e+00 3.594713e-05 0.000000e+00
0.000000e+00 2.882485e-04 0.000000e+00
0.000000e+00 6.869648e-04 0.000000e+00
0.000000e+00 1.205326e-03 0.000000e+00
0.000000e+00 1.806960e-03 0.000000e+00
0.000000e+00 2.472464e-03 0.000000e+00
0.000000e+00 3.201294e-03 0.000000e+00
0.000000e+00 4.009258e-03 0.000000e+00
0.000000e+00 4.914741e-03 0.000000e+00
</DataArray>
<DataArray Name="shear" type="Float64" NumberOfComponents="1" format="ascii">
2.004345e-02
3.173106e-02
5.634035e-02
7.877868e-02
9.234773e-02
9.776627e-02
9.512879e-02
8.341820e-02
5.805659e-02
3.049660e-02
2.171033e-02
2.261906e-02
3.366977e-02
5.300755e-02
7.032267e-02
8.376528e-02
9.308106e-02
9.633372e-02
9.171175e-02
7.674739e-02
5.309363e-02
3.541733e-02
2.873866e-02
3.685148e-02
4.763389e-02
5.686772e-02
6.904357e-02
8.430143e-02
1.007583e-01
1.151745e-01
1.277366e-01
1.345859e-01
1.341144e-01
3.294390e-02
3.526079e-02
3.726929e-02
3.950752e-02
4.477157e-02
5.309308e-02
6.402914e-02
7.706591e-02
9.363518e-02
1.120556e-01
1.257589e-01
3.436846e-02
3.175757e-02
2.695239e-02
2.495013e-02
2.468326e-02
2.440436e-02
2.313281e-02
2.019230e-02
1.527681e-02
7.312053e-03
2.895143e-04
3.414449e-02
2.940718e-02
2.288943e-02
2.118737e-02
2.076300e-02
2.028955e-02
1.906220e-02
1.656985e-02
1.249186e-02
6.192233e-03
1.804590e-03
3.186808e-02
2.627928e-02
1.964572e-02
1.850865e-02
1.821873e-02
1.795012e-02
1.709339e-02
1.516966e-02
1.161579e-02
6.139720e-03
2.301917e-03
2.820260e-02
2.290249e-02
1.708454e-02
1.646496e-02
1.644212e-02
1.637647e-02
1.581198e-02
1.424243e-02
1.108410e-02
6.424583e-03
3.307072e-03
2.370695e-02
1.934703e-02
1.492193e-02
1.472581e-02
1.495804e-02
1.507599e-02
1.470598e-02
1.333025e-02
1.061721e-02
6.914367e-03
4.588086e-03
1.903495e-02
1.588305e-02
1.297845e-02
1.313367e-02
1.359055e-02
1.385360e-02
1.358318e-02
1.239020e-02
1.023776e-02
7.565568e-03
6.008088e-03
1.464101e-02
1.266672e-02
1.111799e-02
1.156365e-02
1.220047e-02
1.257709e-02
1.241566e-02
1.152449e-02
1.000989e-02
8.296925e-03
7.391999e-03
1.077078e-02
9.766538e-03
9.292305e-03
9.959590e-03
1.071921e-02
1.123269e-02
1.129893e-02
1.083284e-02
9.949728e-03
9.027421e-03
8.615759e-03
7.532935e-03
7.207565e-03
7.507361e-03
8.397070e-03
9.293143e-03
9.982835e-03
1.033753e-02
1.030464e-02
9.998014e-03
9.732218e-03
9.696396e-03
4.937919e-03
4.998771e-03
5.841916e-03
7.017381e-03
8.115061e-03
8.983389e-03
9.568928e-03
9.896167e-03
1.008481e-02
1.035471e-02
1.060743e-02
2.942558e-03
3.206452e-03
4.466896e-03
5.941857e-03
7.247363e-03
8.263657e-03
9.009663e-03
9.593193e-03
1.015094e-02
1.080991e-02
1.126665e-02
1.383553e-03
1.902277e-03
3.553167e-03
5.246154e-03
6.689263e-03
7.806720e-03
8.659768e-03
9.394643e-03
1.016761e-02
1.106465e-02
1.164656e-02
4.732928e-04
1.370729e-03
3.230717e-03
4.992525e-03
6.480064e-03
7.635932e-03
8.527583e-03
9.317839e-03
1.016133e-02
1.113737e-02
1.176106e-02
</DataArray>
<DataArray Name="stress" type="Float64" NumberOfComponents="9" format="ascii">
-1.233798e+05 6.766082e+03 0.000000e+00 6.766082e+03 -2.173269e+05 0.000000e+00 0.000000e+00 0.000000e+00 0.000000e+00
-1.091064e+05 5.097402e+03 0.000000e+00 5.097402e+03 -2.184270e+05 0.000000e+00 0.000000e+00 0.000000e+00 0.000000e+00
-1.132671e+05 3.894724e+03 0.000000e+00 3.894724e+03 -2.243393e+05 0.000000e+00 0.000000e+00 0.000000e+00 0.000000e+00
-1.206076e+05 4.361403e+03 0.000000e+00 4.361403e+03 -2.319918e+05 0.000000e+00 0.000000e+00 0.000000e+00 0.000000e+00
-1.284399e+05 5.858468e+03 0.000000e+00 5.858468e+03 -2.436280e+05 0.000000e+00 0.000000e+00 0.000000e+00 0.000000e+00
-1.368339e+05 7.221623e+03 0.000000e+00 7.221623e+03 -2.506210e+05 0.000000e+00 0.000000e+00 0.000000e+00 0.000000e+00
-1.404159e+05 9.506618e+03 0.000000e+00 9.506618e+03 -2.654218e+05 0.000000e+00 0.000000e+00 0.000000e+00 0.000000e+00
-1.447385e+05 1.021504e+04 0.000000e+00 1.021504e+04 -2.759061e+05 0.000000e+00 0.000000e+00 0.000000e+00 0.000000e+00
-1.482255e+05 4.987881e+03 0.000000e+00 4.987881e+03 -2.842470e+05 0.000000e+00 0.000000e+00 0.000000e+00 0.000000e+00
-1.562728e+05 -2.042921e+03 0.000000e+00 -2.042921e+03 -2.944361e+05 0.000000e+00 0.000000e+00 0.000000e+00 0.000000e+00
-1.600890e+05 -4.826448e+02 0.000000e+00 -4.826448e+02 -2.807001e+05 0.000000e+00 0.000000e+00 0.000000e+00 0.000000e+00
-1.261721e+05 1.975393e+04 0.000000e+00 1.975393e+04 -2.111049e+05 0.000000e+00 0.000000e+00 0.000000e+00 0.000000e+00
-1.102870e+05 1.662440e+04 0.000000e+00 1.662440e+04 -2.070674e+05 0.000000e+00 0.000000e+00 0.000000e+00 0.000000e+00
-1.121327e+05 1.506645e+04 0.000000e+00 1.506645e+04 -2.180125e+05 0.000000e+00 0.000000e+00 0.000000e+00 0.000000e+00
-1.194229e+05 1.402117e+04 0.000000e+00 1.402117e+04 -2.294112e+05 0.000000e+00 0.000000e+00 0.000000e+00 0.000000e+00
-1.275180e+05 1.371905e+04 0.000000e+00 1.371905e+04 -2.416581e+05 0.000000e+00 0.000000e+00 0.000000e+00 0.000000e+00
-1.368386e+05 1.301153e+04 0.000000e+00 1.301153e+04 -2.502622e+05 0.000000e+00 0.000000e+00 0.000000e+00 0.000000e+00
-1.423423e+05 1.336583e+04 0.000000e+00 1.336583e+04 -2.601275e+05 0.000000e+00 0.000000e+00 0.000000e+00 0.000000e+00
-1.446235e+05 1.254077e+04 0.000000e+00 1.254077e+04 -2.666597e+05 0.000000e+00 0.000000e+00 0.000000e+00 0.000000e+00
-1.495680e+05 6.325371e+03 0.000000e+00 6.325371e+03 -2.788895e+05 0.000000e+00 0.000000e+00 0.000000e+00 0.000000e+00
-1.515796e+05 -1.314265e+03 0.000000e+00 -1.314265e+03 -2.866613e+05 0.000000e+00 0.000000e+00 0.000000e+00 0.000000e+00
-1.736477e+05 -7.179271e+03 0.000000e+00 -7.179271e+03 -3.236996e+05 0.000000e+00 0.000000e+00 0.000000e+00 0.000000e+00
-1.258260e+05 3.246069e+04 0.000000e+00 3.246069e+04 -1.841153e+05 0.000000e+00 0.000000e+00 0.000000e+00 0.000000e+00
-1.101311e+05 2.829222e+04 0.000000e+00 2.829222e+04 -1.745826e+05 0.000000e+00 0.000000e+00 0.000000e+00 0.000000e+00
-1.099659e+05 2.755267e+04 0.000000e+00 2.755267e+04 -1.823690e+05 0.000000e+00 0.000000e+00 0.000000e+00 0.000000e+00
-1.167555e+05 2.819359e+04 0.000000e+00 2.819359e+04 -1.919829e+05 0.000000e+00 0.000000e+00 0.000000e+00 0.000000e+00
-1.271100e+05 3.021579e+04 0.000000e+00 3.021579e+04 -2.039328e+05 0.000000e+00 0.000000e+00 0.000000e+00 0.000000e+00
-1.408956e+05 3.212180e+04 0.000000e+00 3.212180e+04 -2.196984e+05 0.000000e+00 0.000000e+00 0.000000e+00 0.000000e+00
-1.571928e+05 3.468888e+04 0.000000e+00 3.468888e+04 -2.366988e+05 0.000000e+00 0.000000e+00 0.000000e+00 0.000000e+00
-1.686700e+05 3.751147e+04 0.000000e+00 3.751147e+04 -2.582433e+05 0.000000e+00 0.000000e+00 0.000000e+00 0.000000e+00
-1.761280e+05 3.300086e+04 0.000000e+00 3.300086e+04 -2.734839e+05 0.000000e+00 0.000000e+00 0.000000e+00 0.000000e+00
-1.844479e+05 2.164512e+04 0.000000e+00 2.164512e+04 -2.879275e+05 0.000000e+00 0.000000e+00 0.000000e+00 0.000000e+00
-2.063707e+05 -6.809795e+02 0.000000e+00 -6.809795e+02 -3.410833e+05 0.000000e+00 0.000000e+00 0.000000e+00 0.000000e+00
-1.148610e+05 3.263498e+04 0.000000e+00 3.263498e+04 -1.398243e+05 0.000000e+00 0.000000e+00 0.000000e+00 0.000000e+00
-1.035637e+05 2.971750e+04 0.000000e+00 2.971750e+04 -1.320500e+05 0.000000e+00 0.000000e+00 0.000000e+00 0.000000e+00
-1.052222e+05 3.005879e+04 0.000000e+00 3.005879e+04 -1.329714e+05 0.000000e+00 0.000000e+00 0.000000e+00 0.000000e+00
-1.127053e+05 3.223562e+04 0.000000e+00 3.223562e+04 -1.337394e+05 0.000000e+00 0.000000e+00 0.000000e+00 0.000000e+00
-1.196256e+05 3.447755e+04 0.000000e+00 3.447755e+04 -1.322608e+05 0.000000e+00 0.000000e+00 0.000000e+00 0.000000e+00
-1.248446e+05 3.503142e+04 0.000000e+00 3.503142e+04 -1.280252e+05 0.000000e+00 0.000000e+00 0.000000e+00 0.000000e+00
-1.268307e+05 3.310027e+04 0.000000e+00 3.310027e+04 -1.194979e+05 0.000000e+00 0.000000e+00 0.000000e+00 0.000000e+00
-1.224378e+05 2.808844e+04 0.000000e+00 2.808844e+04 -1.088984e+05 0.000000e+00 0.000000e+00 0.000000e+00 0.000000e+00
-1.065374e+05 1.952086e+04 0.000000e+00 1.952086e+04 -9.159768e+04 0.000000e+00 0.000000e+00 0.000000e+00 0.000000e+00
-8.578748e+04 1.128460e+04 0.000000e+00 1.128460e+04 -7.932235e+04 0.000000e+00 0.000000e+00 0.000000e+00 0.000000e+00
-5.064999e+04 4.366778e+03 0.000000e+00 4.366778e+03 -5.810997e+04 0.000000e+00 0.000000e+00 0.000000e+00 0.000000e+00
-1.097307e+05 3.108439e+04 0.000000e+00 3.108439e+04 -1.177158e+05 0.000000e+00 0.000000e+00 0.000000e+00 0.000000e+00
-1.043299e+05 2.956944e+04 0.000000e+00 2.956944e+04 -1.144156e+05 0.000000e+00 0.000000e+00 0.000000e+00 0.000000e+00
-1.093799e+05 3.057851e+04 0.000000e+00 3.057851e+04 -1.156540e+05 0.000000e+00 0.000000e+00 0.000000e+00 0.000000e+00
-1.186112e+05 3.164554e+04 0.000000e+00 3.164554e+04 -1.136250e+05 0.000000e+00 0.000000e+00 0.000000e+00 0.000000e+00
-1.264986e+05 3.146427e+04 0.000000e+00 3.146427e+04 -1.087972e+05 0.000000e+00 0.000000e+00 0.000000e+00 0.000000e+00
-1.328205e+05 2.961591e+04 0.000000e+00 2.961591e+04 -1.018186e+05 0.000000e+00 0.000000e+00 0.000000e+00 0.000000e+00
-1.356928e+05 2.539556e+04 0.000000e+00 2.539556e+04 -9.323486e+04 0.000000e+00 0.000000e+00 0.000000e+00 0.000000e+00
-1.328429e+05 1.878274e+04 0.000000e+00 1.878274e+04 -8.392152e+04 0.000000e+00 0.000000e+00 0.000000e+00 0.000000e+00
-1.216533e+05 1.101509e+04 0.000000e+00 1.101509e+04 -7.479325e+04 0.000000e+00 0.000000e+00 0.000000e+00 0.000000e+00
-9.695095e+04 2.745752e+03 0.000000e+00 2.745752e+03 -6.807298e+04 0.000000e+00 0.000000e+00 0.000000e+00 0.000000e+00
-5.709788e+04 -7.059653e+02 0.000000e+00 -7.059653e+02 -5.549884e+04 0.000000e+00 0.000000e+00 0.000000e+00 0.000000e+00
-1.028232e+05 2.963408e+04 0.000000e+00 2.963408e+04 -1.021429e+05 0.000000e+00 0.000000e+00 0.000000e+00 0.000000e+00
-1.028065e+05 2.900904e+04 0.000000e+00 2.900904e+04 -1.016248e+05 0.000000e+00 0.000000e+00 0.000000e+00 0.000000e+00
-1.100856e+05 2.850522e+04 0.000000e+00 2.850522e+04 -1.007395e+05 0.000000e+00 0.000000e+00 0.000000e+00 0.000000e+00
-1.185120e+05 2.727653e+04 0.000000e+00 2.727653e+04 -9.618674e+04 0.000000e+00 0.000000e+00 0.000000e+00 0.000000e+00
-1.248612e+05 2.521203e+04 0.000000e+00 2.521203e+04 -9.102685e+04 0.000000e+00 0.000000e+00 0.000000e+00 0.000000e+00
-1.293273e+05 2.176456e+04 0.000000e+00 2.176456e+04 -8.518236e+04 0.000000e+00 0.000000e+00 0.000000e+00 0.000000e+00
-1.300390e+05 1.653602e+04 0.000000e+00 1.653602e+04 -7.886252e+04 0.000000e+00 0.000000e+00 0.000000e+00 0.000000e+00
-1.251282e+05 9.915177e+03 0.000000e+00 9.915177e+03 -7.234754e+04 0.000000e+00 0.000000e+00 0.000000e+00 0.000000e+00
-1.131811e+05 2.750104e+03 0.000000e+00 2.750104e+03 -6.644344e+04 0.000000e+00 0.000000e+00 0.000000e+00 0.000000e+00
-8.998955e+04 -2.675926e+03 0.000000e+00 -2.675926e+03 -6.214580e+04 0.000000e+00 0.000000e+00 0.000000e+00 0.000000e+00
-5.995717e+04 -3.980230e+03 0.000000e+00 -3.980230e+03 -5.534205e+04 0.000000e+00 0.000000e+00 0.000000e+00 0.000000e+00
-9.476157e+04 2.718572e+04 0.000000e+00 2.718572e+04 -8.955245e+04 0.000000e+00 0.000000e+00 0.000000e+00 0.000000e+00
-1.006100e+05 2.709896e+04 0.000000e+00 2.709896e+04 -9.110863e+04 0.000000e+00 0.000000e+00 0.000000e+00 0.000000e+00
-1.089193e+05 2.475374e+04 0.000000e+00 2.475374e+04 -8.811263e+04 0.000000e+00 0.000000e+00 0.000000e+00 0.000000e+00
-1.165495e+05 2.260486e+04 0.000000e+00 2.260486e+04 -8.422402e+04 0.000000e+00 0.000000e+00 0.000000e+00 0.000000e+00
-1.218348e+05 1.968648e+04 0.000000e+00 1.968648e+04 -7.996453e+04 0.000000e+00 0.000000e+00 0.000000e+00 0.000000e+00
-1.245029e+05 1.553493e+04 0.000000e+00 1.553493e+04 -7.522285e+04 0.000000e+00 0.000000e+00 0.000000e+00 0.000000e+00
-1.235877e+05 1.012065e+04 0.000000e+00 1.012065e+04 -7.032254e+04 0.000000e+00 0.000000e+00 0.000000e+00 0.000000e+00
-1.176412e+05 3.842212e+03 0.000000e+00 3.842212e+03 -6.574512e+04 0.000000e+00 0.000000e+00 0.000000e+00 0.000000e+00
-1.064688e+05 -1.905804e+03 0.000000e+00 -1.905804e+03 -6.242145e+04 0.000000e+00 0.000000e+00 0.000000e+00 0.000000e+00
-8.795431e+04 -4.311754e+03 0.000000e+00 -4.311754e+03 -6.036043e+04 0.000000e+00 0.000000e+00 0.000000e+00 0.000000e+00
-6.758009e+04 -3.973731e+03 0.000000e+00 -3.973731e+03 -5.656030e+04 0.000000e+00 0.000000e+00 0.000000e+00 0.000000e+00
-8.651739e+04 2.415082e+04 0.000000e+00 2.415082e+04 -7.967046e+04 0.000000e+00 0.000000e+00 0.000000e+00 0.000000e+00
-9.735805e+04 2.428061e+04 0.000000e+00 2.428061e+04 -8.285754e+04 0.000000e+00 0.000000e+00 0.000000e+00 0.000000e+00
-1.068602e+05 2.131439e+04 0.000000e+00 2.131439e+04 -7.946062e+04 0.000000e+00 0.000000e+00 0.000000e+00 0.000000e+00
-1.136975e+05 1.861910e+04 0.000000e+00 1.861910e+04 -7.628875e+04 0.000000e+00 0.000000e+00 0.000000e+00 0.000000e+00
-1.178125e+05 1.505142e+04 0.000000e+00 1.505142e+04 -7.261826e+04 0.000000e+00 0.000000e+00 0.000000e+00 0.000000e+00
-1.193485e+05 1.062970e+04 0.000000e+00 1.062970e+04 -6.880903e+04 0.000000e+00 0.000000e+00 0.000000e+00 0.000000e+00
-1.173631e+05 5.396885e+03 0.000000e+00 5.396885e+03 -6.514078e+04 0.000000e+00 0.000000e+00 0.000000e+00 0.000000e+00
-1.112814e+05 5.731856e+01 0.000000e+00 5.731856e+01 -6.217874e+04 0.000000e+00 0.000000e+00 0.000000e+00 0.000000e+00
-1.021457e+05 -3.869612e+03 0.000000e+00 -3.869612e+03 -6.041860e+04 0.000000e+00 0.000000e+00 0.000000e+00 0.000000e+00
-8.882573e+04 -4.513755e+03 0.000000e+00 -4.513755e+03 -5.965817e+04 0.000000e+00 0.000000e+00 0.000000e+00 0.000000e+00
-7.553477e+04 -3.545503e+03 0.000000e+00 -3.545503e+03 -5.722658e+04 0.000000e+00 0.000000e+00 0.000000e+00 0.000000e+00
-8.017490e+04 2.165735e+04 0.000000e+00 2.165735e+04 -7.312399e+04 0.000000e+00 0.000000e+00 0.000000e+00 0.000000e+00
-9.399759e+04 2.169240e+04 0.000000e+00 2.169240e+04 -7.654847e+04 0.000000e+00 0.000000e+00 0.000000e+00 0.000000e+00
-1.041825e+05 1.840331e+04 0.000000e+00 1.840331e+04 -7.341295e+04 0.000000e+00 0.000000e+00 0.000000e+00 0.000000e+00
-1.101091e+05 1.512289e+04 0.000000e+00 1.512289e+04 -7.061441e+04 0.000000e+00 0.000000e+00 0.000000e+00 0.000000e+00
-1.134419e+05 1.126506e+04 0.000000e+00 1.126506e+04 -6.758295e+04 0.000000e+00 0.000000e+00 0.000000e+00 0.000000e+00
-1.141746e+05 6.859575e+03 0.000000e+00 6.859575e+03 -6.461952e+04 0.000000e+00 0.000000e+00 0.000000e+00 0.000000e+00
-1.117267e+05 2.130229e+03 0.000000e+00 2.130229e+03 -6.205537e+04 0.000000e+00 0.000000e+00 0.000000e+00 0.000000e+00
-1.065902e+05 -2.041673e+03 0.000000e+00 -2.041673e+03 -6.032519e+04 0.000000e+00 0.000000e+00 0.000000e+00 0.000000e+00
-9.984220e+04 -4.503519e+03 0.000000e+00 -4.503519e+03 -5.946372e+04 0.000000e+00 0.000000e+00 0.000000e+00 0.000000e+00
-9.083972e+04 -4.167605e+03 0.000000e+00 -4.167605e+03 -5.940954e+04 0.000000e+00 0.000000e+00 0.000000e+00 0.000000e+00
-8.262372e+04 -2.855933e+03 0.000000e+00 -2.855933e+03 -5.788447e+04 0.000000e+00 0.000000e+00 0.000000e+00 0.000000e+00
-7.604064e+04 1.977631e+04 0.000000e+00 1.977631e+04 -6.880899e+04 0.000000e+00 0.000000e+00 0.000000e+00 0.000000e+00
-9.073841e+04 1.939415e+04 0.000000e+00 1.939415e+04 -7.181599e+04 0.000000e+00 0.000000e+00 0.000000e+00 0.000000e+00
-1.007556e+05 1.578915e+04 0.000000e+00 1.578915e+04 -6.890704e+04 0.000000e+00 0.000000e+00 0.000000e+00 0.000000e+00
-1.060785e+05 1.215138e+04 0.000000e+00 1.215138e+04 -6.649894e+04 0.000000e+00 0.000000e+00 0.000000e+00 0.000000e+00
-1.089734e+05 8.285251e+03 0.000000e+00 8.285251e+03 -6.413730e+04 0.000000e+00 0.000000e+00 0.000000e+00 0.000000e+00
-1.092716e+05 4.114245e+03 0.000000e+00 4.114245e+03 -6.194273e+04 0.000000e+00 0.000000e+00 0.000000e+00 0.000000e+00
-1.070751e+05 1.053928e+02 0.000000e+00 1.053928e+02 -6.027441e+04 0.000000e+00 0.000000e+00 0.000000e+00 0.000000e+00
-1.033774e+05 -2.993488e+03 0.000000e+00 -2.993488e+03 -5.930576e+04 0.000000e+00 0.000000e+00 0.000000e+00 0.000000e+00
-9.882505e+04 -4.454758e+03 0.000000e+00 -4.454758e+03 -5.905568e+04 0.000000e+00 0.000000e+00 0.000000e+00 0.000000e+00
-9.329889e+04 -3.593706e+03 0.000000e+00 -3.593706e+03 -5.936307e+04 0.000000e+00 0.000000e+00 0.000000e+00 0.000000e+00
-8.863030e+04 -2.181349e+03 0.000000e+00 -2.181349e+03 -5.858028e+04 0.000000e+00 0.000000e+00 0.000000e+00 0.000000e+00
-7.311768e+04 1.784016e+04 0.000000e+00 1.784016e+04 -6.544416e+04 0.000000e+00 0.000000e+00 0.000000e+00 0.000000e+00
-8.716470e+04 1.715570e+04 0.000000e+00 1.715570e+04 -6.811952e+04 0.000000e+00 0.000000e+00 0.000000e+00 0.000000e+00
-9.693447e+04 1.341184e+04 0.000000e+00 1.341184e+04 -6.552017e+04 0.000000e+00 0.000000e+00 0.000000e+00 0.000000e+00
-1.020587e+05 9.768751e+03 0.000000e+00 9.768751e+03 -6.355544e+04 0.000000e+00 0.000000e+00 0.000000e+00 0.000000e+00
-1.045908e+05 6.023698e+03 0.000000e+00 6.023698e+03 -6.173111e+04 0.000000e+00 0.000000e+00 0.000000e+00 0.000000e+00
-1.049269e+05 2.254336e+03 0.000000e+00 2.254336e+03 -6.019004e+04 0.000000e+00 0.000000e+00 0.000000e+00 0.000000e+00
-1.035066e+05 -1.020396e+03 0.000000e+00 -1.020396e+03 -5.915400e+04 0.000000e+00 0.000000e+00 0.000000e+00 0.000000e+00
-1.012293e+05 -3.249965e+03 0.000000e+00 -3.249965e+03 -5.873996e+04 0.000000e+00 0.000000e+00 0.000000e+00 0.000000e+00
-9.857347e+04 -4.024589e+03 0.000000e+00 -4.024589e+03 -5.888907e+04 0.000000e+00 0.000000e+00 0.000000e+00 0.000000e+00
-9.577280e+04 -2.952594e+03 0.000000e+00 -2.952594e+03 -5.937977e+04 0.000000e+00 0.000000e+00 0.000000e+00 0.000000e+00
-9.351082e+04 -1.644458e+03 0.000000e+00 -1.644458e+03 -5.919000e+04 0.000000e+00 0.000000e+00 0.000000e+00 0.000000e+00
-7.054517e+04 1.575392e+04 0.000000e+00 1.575392e+04 -6.347728e+04 0.000000e+00 0.000000e+00 0.000000e+00 0.000000e+00
-8.339221e+04 1.498064e+04 0.000000e+00 1.498064e+04 -6.550045e+04 0.000000e+00 0.000000e+00 0.000000e+00 0.000000e+00
-9.308680e+04 1.131771e+04 0.000000e+00 1.131771e+04 -6.312532e+04 0.000000e+00 0.000000e+00 0.000000e+00 0.000000e+00
-9.814717e+04 7.841355e+03 0.000000e+00 7.841355e+03 -6.142716e+04 0.000000e+00 0.000000e+00 0.000000e+00 0.000000e+00
-1.006525e+05 4.352172e+03 0.000000e+00 4.352172e+03 -5.999336e+04 0.000000e+00 0.000000e+00 0.000000e+00 0.000000e+00
-1.013252e+05 1.104168e+03 0.000000e+00 1.104168e+03 -5.897520e+04 0.000000e+00 0.000000e+00 0.000000e+00 0.000000e+00
-1.007688e+05 -1.517990e+03 0.000000e+00 -1.517990e+03 -5.844145e+04 0.000000e+00 0.000000e+00 0.000000e+00 0.000000e+00
-9.979384e+04 -3.076808e+03 0.000000e+00 -3.076808e+03 -5.844116e+04 0.000000e+00 0.000000e+00 0.000000e+00 0.000000e+00
-9.877391e+04 -3.381581e+03 0.000000e+00 -3.381581e+03 -5.883458e+04 0.000000e+00 0.000000e+00 0.000000e+00 0.000000e+00
-9.798791e+04 -2.299901e+03 0.000000e+00 -2.299901e+03 -5.938954e+04 0.000000e+00 0.000000e+00 0.000000e+00 0.000000e+00
-9.746707e+04 -1.171285e+03 0.000000e+00 -1.171285e+03 -5.958455e+04 0.000000e+00 0.000000e+00 0.000000e+00 0.000000e+00
-6.834924e+04 1.339917e+04 0.000000e+00 1.339917e+04 -6.272047e+04 0.000000e+00 0.000000e+00 0.000000e+00 0.000000e+00
-7.988423e+04 1.257252e+04 0.000000e+00 1.257252e+04 -6.397226e+04 0.000000e+00 0.000000e+00 0.000000e+00 0.000000e+00
-8.943166e+04 9.368384e+03 0.000000e+00 9.368384e+03 -6.169934e+04 0.000000e+00 0.000000e+00 0.000000e+00 0.000000e+00
-9.449798e+04 6.222622e+03 0.000000e+00 6.222622e+03 -6.010021e+04 0.000000e+00 0.000000e+00 0.000000e+00 0.000000e+00
-9.716928e+04 3.164791e+03 0.000000e+00 3.164791e+03 -5.889573e+04 0.000000e+00 0.000000e+00 0.000000e+00 0.000000e+00
-9.835253e+04 4.517971e+02 0.000000e+00 4.517971e+02 -5.820924e+04 0.000000e+00 0.000000e+00 0.000000e+00 0.000000e+00
-9.872078e+04 -1.565386e+03 0.000000e+00 -1.565386e+03 -5.805198e+04 0.000000e+00 0.000000e+00 0.000000e+00 0.000000e+00
-9.893922e+04 -2.616703e+03 0.000000e+00 -2.616703e+03 -5.835640e+04 0.000000e+00 0.000000e+00 0.000000e+00 0.000000e+00
-9.924084e+04 -2.641634e+03 0.000000e+00 -2.641634e+03 -5.890201e+04 0.000000e+00 0.000000e+00 0.000000e+00 0.000000e+00
-9.979584e+04 -1.665400e+03 0.000000e+00 -1.665400e+03 -5.947896e+04 0.000000e+00 0.000000e+00 0.000000e+00 0.000000e+00
-1.004402e+05 -7.461175e+02 0.000000e+00 -7.461175e+02 -5.990676e+04 0.000000e+00 0.000000e+00 0.000000e+00 0.000000e+00
-6.720415e+04 1.080122e+04 0.000000e+00 1.080122e+04 -6.291030e+04 0.000000e+00 0.000000e+00 0.000000e+00 0.000000e+00
-7.713812e+04 9.986677e+03 0.000000e+00 9.986677e+03 -6.332420e+04 0.000000e+00 0.000000e+00 0.000000e+00 0.000000e+00
-8.625347e+04 7.407491e+03 0.000000e+00 7.407491e+03 -6.113121e+04 0.000000e+00 0.000000e+00 0.000000e+00 0.000000e+00
-9.131338e+04 4.722171e+03 0.000000e+00 4.722171e+03 -5.951306e+04 0.000000e+00 0.000000e+00 0.000000e+00 0.000000e+00
-9.422334e+04 2.195288e+03 0.000000e+00 2.195288e+03 -5.842722e+04 0.000000e+00 0.000000e+00 0.000000e+00 0.000000e+00
-9.601222e+04 1.049894e+02 0.000000e+00 1.049894e+02 -5.793954e+04 0.000000e+00 0.000000e+00 0.000000e+00 0.000000e+00
-9.729604e+04 -1.322634e+03 0.000000e+00 -1.322634e+03 -5.797168e+04 0.000000e+00 0.000000e+00 0.000000e+00 0.000000e+00
-9.849274e+04 -1.974185e+03 0.000000e+00 -1.974185e+03 -5.842470e+04 0.000000e+00 0.000000e+00 0.000000e+00 0.000000e+00
-9.975666e+04 -1.874488e+03 0.000000e+00 -1.874488e+03 -5.904579e+04 0.000000e+00 0.000000e+00 0.000000e+00 0.000000e+00
-1.011375e+05 -1.115208e+03 0.000000e+00 -1.115208e+03 -5.960615e+04 0.000000e+00 0.000000e+00 0.000000e+00 0.000000e+00
-1.024495e+05 -4.331150e+02 0.000000e+00 -4.331150e+02 -6.017473e+04 0.000000e+00 0.000000e+00 0.000000e+00 0.000000e+00
-6.654228e+04 7.712703e+03 0.000000e+00 7.712703e+03 -6.390890e+04 0.000000e+00 0.000000e+00 0.000000e+00 0.000000e+00
-7.505077e+04 7.039962e+03 0.000000e+00 7.039962e+03 -6.354572e+04 0.000000e+00 0.000000e+00 0.000000e+00 0.000000e+00
-8.367339e+04 5.181037e+03 0.000000e+00 5.181037e+03 -6.112193e+04 0.000000e+00 0.000000e+00 0.000000e+00 0.000000e+00
-8.875728e+04 3.195693e+03 0.000000e+00 3.195693e+03 -5.935782e+04 0.000000e+00 0.000000e+00 0.000000e+00 0.000000e+00
-9.198040e+04 1.387231e+03 0.000000e+00 1.387231e+03 -5.833748e+04 0.000000e+00 0.000000e+00 0.000000e+00 0.000000e+00
-9.434012e+04 -3.382195e+01 0.000000e+00 -3.382195e+01 -5.796751e+04 0.000000e+00 0.000000e+00 0.000000e+00 0.000000e+00
-9.636773e+04 -9.371895e+02 0.000000e+00 -9.371895e+02 -5.811789e+04 0.000000e+00 0.000000e+00 0.000000e+00 0.000000e+00
-9.831272e+04 -1.290049e+03 0.000000e+00 -1.290049e+03 -5.859968e+04 0.000000e+00 0.000000e+00 0.000000e+00 0.000000e+00
-1.001934e+05 -1.159746e+03 0.000000e+00 -1.159746e+03 -5.921743e+04 0.000000e+00 0.000000e+00 0.000000e+00 0.000000e+00
-1.020830e+05 -6.555215e+02 0.000000e+00 -6.555215e+02 -5.970181e+04 0.000000e+00 0.000000e+00 0.000000e+00 0.000000e+00
-1.037849e+05 -2.174565e+02 0.000000e+00 -2.174565e+02 -6.033556e+04 0.000000e+00 0.000000e+00 0.000000e+00 0.000000e+00
-6.611581e+04 3.975096e+03 0.000000e+00 3.975096e+03 -6.475091e+04 0.000000e+00 0.000000e+00 0.000000e+00 0.000000e+00
-7.376257e+04 3.619179e+03 0.000000e+00 3.619179e+03 -6.399132e+04 0.000000e+00 0.000000e+00 0.000000e+00 0.000000e+00
-8.193975e+04 2.644551e+03 0.000000e+00 2.644551e+03 -6.127648e+04 0.000000e+00 0.000000e+00 0.000000e+00 0.000000e+00
-8.710645e+04 1.594016e+03 0.000000e+00 1.594016e+03 -5.941866e+04 0.000000e+00 0.000000e+00 0.000000e+00 0.000000e+00
-9.058562e+04 6.598706e+02 0.000000e+00 6.598706e+02 -5.843169e+04 0.000000e+00 0.000000e+00 0.000000e+00 0.000000e+00
-9.337252e+04 -4.472392e+01 0.000000e+00 -4.472392e+01 -5.811852e+04 0.000000e+00 0.000000e+00 0.000000e+00 0.000000e+00
-9.584221e+04 -4.805158e+02 0.000000e+00 -4.805158e+02 -5.833623e+04 0.000000e+00 0.000000e+00 0.000000e+00 0.000000e+00
-9.826605e+04 -6.257885e+02 0.000000e+00 -6.257885e+02 -5.880861e+04 0.000000e+00 0.000000e+00 0.000000e+00 0.000000e+00
-1.004911e+05 -5.389130e+02 0.000000e+00 -5.389130e+02 -5.938259e+04 0.000000e+00 0.000000e+00 0.000000e+00 0.000000e+00
-1.026102e+05 -2.952349e+02 0.000000e+00 -2.952349e+02 -5.979057e+04 0.000000e+00 0.000000e+00 0.000000e+00 0.000000e+00
-1.045063e+05 -7.924183e+01 0.000000e+00 -7.924183e+01 -6.043805e+04 0.000000e+00 0.000000e+00 0.000000e+00 0.000000e+00
-6.587867e+04 1.125403e+03 0.000000e+00 1.125403e+03 -6.482180e+04 0.000000e+00 0.000000e+00 0.000000e+00 0.000000e+00
-7.327885e+04 1.058384e+03 0.000000e+00 1.058384e+03 -6.402784e+04 0.000000e+00 0.000000e+00 0.000000e+00 0.000000e+00
-8.135091e+04 7.217710e+02 0.000000e+00 7.217710e+02 -6.131870e+04 0.000000e+00 0.000000e+00 0.000000e+00 0.000000e+00
-8.656391e+04 3.228957e+02 0.000000e+00 3.228957e+02 -5.947981e+04 0.000000e+00 0.000000e+00 0.000000e+00 0.000000e+00
-9.014923e+04 -3.973716e+01 0.000000e+00 -3.973716e+01 -5.852830e+04 0.000000e+00 0.000000e+00 0.000000e+00 0.000000e+00
-9.307641e+04 -2.981407e+02 0.000000e+00 -2.981407e+02 -5.825960e+04 0.000000e+00 0.000000e+00 0.000000e+00 0.000000e+00
-9.571725e+04 -4.639644e+02 0.000000e+00 -4.639644e+02 -5.847733e+04 0.000000e+00 0.000000e+00 0.000000e+00 0.000000e+00
-9.830360e+04 -5.215017e+02 0.000000e+00 -5.215017e+02 -5.893831e+04 0.000000e+00 0.000000e+00 0.000000e+00 0.000000e+00
-1.006323e+05 -4.831482e+02 0.000000e+00 -4.831482e+02 -5.948106e+04 0.000000e+00 0.000000e+00 0.000000e+00 0.000000e+00
-1.028205e+05 -3.749580e+02 0.000000e+00 -3.749580e+02 -5.984546e+04 0.000000e+00 0.000000e+00 0.000000e+00 0.000000e+00
-1.047770e+05 -2.629295e+02 0.000000e+00 -2.629295e+02 -6.048816e+04 0.000000e+00 0.000000e+00 0.000000e+00 0.000000e+00
</DataArray>
<DataArray Name="vol_eps" type="Float64" NumberOfComponents="1" format="ascii">
-1.382720e-02
-1.163816e-02
-9.367478e-03
-8.025397e-03
-7.618438e-03
-8.284709e-03
-9.725812e-03
-1.221446e-02
-1.573109e-02
-1.994654e-02
-2.008001e-02
-1.343015e-02
-1.081549e-02
-9.224894e-03
-8.379133e-03
-8.001191e-03
-8.264708e-03
-8.927081e-03
-1.038040e-02
-1.312723e-02
-1.627738e-02
-2.225701e-02
-1.122023e-02
-8.340402e-03
-7.434513e-03
-7.418359e-03
-7.574263e-03
-8.137047e-03
-8.977740e-03
-9.940136e-03
-1.030481e-02
-1.085966e-02
-1.550869e-02
-7.130837e-03
-5.370311e-03
-5.283022e-03
-5.725218e-03
-5.538689e-03
-4.756236e-03
-3.040737e-03
-5.075188e-04
3.289968e-03
7.918729e-03
1.298673e-02
-5.118059e-03
-4.722076e-03
-5.618694e-03
-6.328021e-03
-6.572399e-03
-6.499272e-03
-6.154001e-03
-5.535035e-03
-4.551740e-03
-2.779722e-03
7.289755e-04
-3.324243e-03
-3.803314e-03
-4.980761e-03
-5.437152e-03
-5.536359e-03
-5.409765e-03
-5.051495e-03
-4.457888e-03
-3.610543e-03
-2.011206e-03
4.143170e-04
-1.988161e-03
-3.144437e-03
-4.274416e-03
-4.652120e-03
-4.696695e-03
-4.494741e-03
-4.128906e-03
-3.619151e-03
-2.962381e-03
-1.786580e-03
-2.267710e-04
-1.024059e-03
-2.637644e-03
-3.722724e-03
-4.015435e-03
-3.987120e-03
-3.792759e-03
-3.464789e-03
-3.049222e-03
-2.580177e-03
-1.809540e-03
-7.919008e-04
-5.277342e-04
-2.292513e-03
-3.262448e-03
-3.459045e-03
-3.428673e-03
-3.272429e-03
-2.999359e-03
-2.696693e-03
-2.393410e-03
-1.934101e-03
-1.304400e-03
-3.655026e-04
-2.026520e-03
-2.832731e-03
-2.998957e-03
-3.001814e-03
-2.886521e-03
-2.689563e-03
-2.490431e-03
-2.325971e-03
-2.093004e-03
-1.748897e-03
-3.679928e-04
-1.796789e-03
-2.452515e-03
-2.633293e-03
-2.670721e-03
-2.605072e-03
-2.479507e-03
-2.370656e-03
-2.315719e-03
-2.239712e-03
-2.090244e-03
-4.301042e-04
-1.592557e-03
-2.141375e-03
-2.340010e-03
-2.408856e-03
-2.389496e-03
-2.325827e-03
-2.298588e-03
-2.327818e-03
-2.357225e-03
-2.341504e-03
-4.936367e-04
-1.416957e-03
-1.907556e-03
-2.114606e-03
-2.200760e-03
-2.216206e-03
-2.220586e-03
-2.270047e-03
-2.356938e-03
-2.446448e-03
-2.517311e-03
-5.502109e-04
-1.270370e-03
-1.729384e-03
-1.931926e-03
-2.029564e-03
-2.092379e-03
-2.163189e-03
-2.268717e-03
-2.392897e-03
-2.510476e-03
-2.628444e-03
-6.270707e-04
-1.171879e-03
-1.579303e-03
-1.785163e-03
-1.905411e-03
-2.015557e-03
-2.139209e-03
-2.281326e-03
-2.427417e-03
-2.554260e-03
-2.695883e-03
-6.856890e-04
-1.126386e-03
-1.478863e-03
-1.692365e-03
-1.838906e-03
-1.978092e-03
-2.133384e-03
-2.299521e-03
-2.455757e-03
-2.581485e-03
-2.731551e-03
-6.832377e-04
-1.100560e-03
-1.442897e-03
-1.666479e-03
-1.826543e-03
-1.976273e-03
-2.141772e-03
-2.315134e-03
-2.472395e-03
-2.596163e-03
-2.748178e-03
</DataArray>
</PointData>
</Piece>
</UnstructuredGrid>
</VTKFile>
