<?xml version="1.0"?>
<VTKFile type="UnstructuredGrid" version="0.1">
<UnstructuredGrid>
<FieldData>
<DataArray Name="TIME" type="Float64" format="ascii" NumberOfTuples="1">
0.000000e+00
</DataArray>
</FieldData>
<FieldData>
<DataArray Name="CYCLE" type="Int32" format="ascii" NumberOfTuples="1">
0
</DataArray>
</FieldData>
<Piece NumberOfPoints="187" NumberOfCells="160">
<Points>
<DataArray NumberOfComponents="3" type="Float64" format="ascii">
0.000000e+00 0.000000e+00 0.000000e+00
0.000000e+00 1.967489e-01 0.000000e+00
0.000000e+00 3.916568e-01 0.000000e+00
0.000000e+00 5.839927e-01 0.000000e+00
0.000000e+00 7.749246e-01 0.000000e+00
0.000000e+00 9.653693e-01 0.000000e+00
0.000000e+00 1.155583e+00 0.000000e+00
0.000000e+00 1.346038e+00 0.000000e+00
0.000000e+00 1.537989e+00 0.000000e+00
0.000000e+00 1.733110e+00 0.000000e+00
0.000000e+00 1.929125e+00 0.000000e+00
2.250000e-01 0.000000e+00 0.000000e+00
2.269297e-01 1.966825e-01 0.000000e+00
2.300846e-01 3.918091e-01 0.000000e+00
2.326535e-01 5.852168e-01 0.000000e+00
2.339133e-01 7.772846e-01 0.000000e+00
2.342799e-01 9.684702e-01 0.000000e+00
2.340277e-01 1.159263e+00 0.000000e+00
2.328770e-01 1.350049e+00 0.000000e+00
2.297840e-01 1.540992e+00 0.000000e+00
2.256183e-01 1.733488e+00 0.000000e+00
2.250000e-01 1.929125e+00 0.000000e+00
4.500000e-01 0.000000e+00 0.000000e+00
4.542094e-01 1.970726e-01 0.000000e+00
4.587206e-01 3.932897e-01 0.000000e+00
4.624762e-01 5.890973e-01 0.000000e+00
4.651131e-01 7.842666e-01 0.000000e+00
4.667192e-01 9.783925e-01 0.000000e+00
4.672450e-01 1.171213e+00 0.000000e+00
4.667114e-01 1.362695e+00 0.000000e+00
4.638361e-01 1.552575e+00 0.000000e+00
4.584115e-01 1.741048e+00 0.000000e+00
4.500000e-01 1.929125e+00 0.000000e+00
6.750000e-01 0.000000e+00 0.000000e+00
6.808268e-01 1.984436e-01 0.000000e+00
6.857314e-01 3.967055e-01 0.000000e+00
6.894636e-01 5.951294e-01 0.000000e+00
6.924101e-01 7.938346e-01 0.000000e+00
6.946027e-01 9.928615e-01 0.000000e+00
6.960096e-01 1.192187e+00 0.000000e+00
6.960753e-01 1.391970e+00 0.000000e+00
6.941275e-01 1.592249e+00 0.000000e+00
6.902230e-01 1.792781e+00 0.000000e+00
6.834918e-01 1.992679e+00 0.000000e+00
9.000000e-01 0.000000e+00 0.000000e+00
9.062930e-01 1.989102e-01 0.000000e+00
9.107921e-01 3.979150e-01 0.000000e+00
9.140413e-01 5.972131e-01 0.000000e+00
9.165902e-01 7.968045e-01 0.000000e+00
9.184120e-01 9.967205e-01 0.000000e+00
9.193766e-01 1.197053e+00 0.000000e+00
9.190179e-01 1.397762e+00 0.000000e+00
9.170818e-01 1.598619e+00 0.000000e+00
9.136508e-01 1.799301e+00 0.000000e+00
9.091175e-01 1.999384e+00 0.000000e+00
1.125000e+00 0.000000e+00 0.000000e+00
1.131311e+00 1.993818e-01 0.000000e+00
1.135174e+00 3.989551e-01 0.000000e+00
1.138025e+00 5.988239e-01 0.000000e+00
1.140210e+00 7.989879e-01 0.000000e+00
1.141656e+00 9.994668e-01 0.000000e+00
1.142259e+00 1.200265e+00 0.000000e+00
1.141771e+00 1.401293e+00 0.000000e+00
1.140104e+00 1.602314e+00 0.000000e+00
1.137510e+00 1.802990e+00 0.000000e+00
1.134720e+00 2.003072e+00 0.000000e+00
1.350000e+00 0.000000e+00 0.000000e+00
1.355910e+00 1.997632e-01 0.000000e+00
1.359198e+00 3.997221e-01 0.000000e+00
1.361687e+00 5.999600e-01 0.000000e+00
1.363518e+00 8.004609e-01 0.000000e+00
1.364676e+00 1.001238e+00 0.000000e+00
1.365078e+00 1.202258e+00 0.000000e+00
1.364617e+00 1.403393e+00 0.000000e+00
1.363343e+00 1.604423e+00 0.000000e+00
1.361600e+00 1.805053e+00 0.000000e+00
1.359975e+00 2.005203e+00 0.000000e+00
1.575000e+00 0.000000e+00 0.000000e+00
1.580214e+00 2.000114e-01 0.000000e+00
1.583041e+00 4.002139e-01 0.000000e+00
1.585170e+00 6.006641e-01 0.000000e+00
1.586725e+00 8.013586e-01 0.000000e+00
1.587669e+00 1.002283e+00 0.000000e+00
1.587973e+00 1.203369e+00 0.000000e+00
1.587628e+00 1.404499e+00 0.000000e+00
1.586776e+00 1.605469e+00 0.000000e+00
1.585744e+00 1.806070e+00 0.000000e+00
1.584917e+00 2.006288e+00 0.000000e+00
1.800000e+00 0.000000e+00 0.000000e+00
1.804366e+00 2.001313e-01 0.000000e+00
1.806801e+00 4.004725e-01 0.000000e+00
1.808618e+00 6.010260e-01 0.000000e+00
1.809941e+00 8.018126e-01 0.000000e+00
1.810727e+00 1.002778e+00 0.000000e+00
1.811003e+00 1.203851e+00 0.000000e+00
1.810820e+00 1.404914e+00 0.000000e+00
1.810356e+00 1.605799e+00 0.000000e+00
1.809860e+00 1.806386e+00 0.000000e+00
1.809574e+00 2.006686e+00 0.000000e+00
2.025000e+00 0.000000e+00 0.000000e+00
2.028499e+00 2.001510e-01 0.000000e+00
2.030566e+00 4.005437e-01 0.000000e+00
2.032117e+00 6.011447e-01 0.000000e+00
2.033229e+00 8.019461e-01 0.000000e+00
2.033905e+00 1.002884e+00 0.000000e+00
2.034190e+00 1.203891e+00 0.000000e+00
2.034182e+00 1.404853e+00 0.000000e+00
2.034026e+00 1.605660e+00 0.000000e+00
2.033902e+00 1.806252e+00 0.000000e+00
2.033961e+00 2.006646e+00 0.000000e+00
2.250000e+00 0.000000e+00 0.000000e+00
2.252687e+00 2.001322e-01 0.000000e+00
2.254410e+00 4.005185e-01 0.000000e+00
2.255709e+00 6.011062e-01 0.000000e+00
2.256637e+00 8.018640e-01 0.000000e+00
2.257233e+00 1.002731e+00 0.000000e+00
2.257549e+00 1.203632e+00 0.000000e+00
2.257687e+00 1.404494e+00 0.000000e+00
2.257742e+00 1.605244e+00 0.000000e+00
2.257848e+00 1.805854e+00 0.000000e+00
2.258101e+00 2.006348e+00 0.000000e+00
2.475000e+00 0.000000e+00 0.000000e+00
2.476975e+00 2.000960e-01 0.000000e+00
2.478368e+00 4.004403e-01 0.000000e+00
2.479431e+00 6.009716e-01 0.000000e+00
2.480204e+00 8.016458e-01 0.000000e+00
2.480734e+00 1.002405e+00 0.000000e+00
2.481071e+00 1.203204e+00 0.000000e+00
2.481293e+00 1.403988e+00 0.000000e+00
2.481472e+00 1.604702e+00 0.000000e+00
2.481699e+00 1.805340e+00 0.000000e+00
2.482036e+00 2.005922e+00 0.000000e+00
2.700000e+00 0.000000e+00 0.000000e+00
2.701380e+00 2.000518e-01 0.000000e+00
2.702457e+00 4.003267e-01 0.000000e+00
2.703302e+00 6.007749e-01 0.000000e+00
2.703936e+00 8.013506e-01 0.000000e+00
2.704397e+00 1.002015e+00 0.000000e+00
2.704719e+00 1.202729e+00 0.000000e+00
2.704968e+00 1.403448e+00 0.000000e+00
2.705198e+00 1.604144e+00 0.000000e+00
2.705466e+00 1.804809e+00 0.000000e+00
2.705811e+00 2.005463e+00 0.000000e+00
2.925000e+00 0.000000e+00 0.000000e+00
2.925909e+00 2.000094e-01 0.000000e+00
2.926686e+00 4.002021e-01 0.000000e+00
2.927321e+00 6.005608e-01 0.000000e+00
2.927814e+00 8.010538e-01 0.000000e+00
2.928185e+00 1.001642e+00 0.000000e+00
2.928463e+00 1.202289e+00 0.000000e+00
2.928691e+00 1.402962e+00 0.000000e+00
2.928912e+00 1.603644e+00 0.000000e+00
2.929164e+00 1.804332e+00 0.000000e+00
2.929465e+00 2.005045e+00 0.000000e+00
3.150000e+00 0.000000e+00 0.000000e+00
3.150549e+00 1.999666e-01 0.000000e+00
3.151045e+00 4.000960e-01 0.000000e+00
3.151467e+00 6.003833e-01 0.000000e+00
3.151808e+00 8.008102e-01 0.000000e+00
3.152069e+00 1.001339e+00 0.000000e+00
3.152271e+00 1.201938e+00 0.000000e+00
3.152444e+00 1.402580e+00 0.000000e+00
3.152616e+00 1.603251e+00 0.000000e+00
3.152808e+00 1.803956e+00 0.000000e+00
3.153024e+00 2.004717e+00 0.000000e+00
3.375000e+00 0.000000e+00 0.000000e+00
3.375259e+00 1.999404e-01 0.000000e+00
3.375498e+00 4.000311e-01 0.000000e+00
3.375709e+00 6.002757e-01 0.000000e+00
3.375881e+00 8.006561e-01 0.000000e+00
3.376017e+00 1.001147e+00 0.000000e+00
3.376123e+00 1.201714e+00 0.000000e+00
3.376216e+00 1.402333e+00 0.000000e+00
3.376311e+00 1.602997e+00 0.000000e+00
3.376413e+00 1.803714e+00 0.000000e+00
3.376525e+00 2.004502e+00 0.000000e+00
3.600000e+00 0.000000e+00 0.000000e+00
3.600000e+00 1.999435e-01 0.000000e+00
3.600000e+00 4.000236e-01 0.000000e+00
3.600000e+00 6.002526e-01 0.000000e+00
3.600000e+00 8.006129e-01 0.000000e+00
3.600000e+00 1.001086e+00 0.000000e+00
3.600000e+00 1.201636e+00 0.000000e+00
3.600000e+00 1.402243e+00 0.000000e+00
3.600000e+00 1.602901e+00 0.000000e+00
3.600000e+00 1.803618e+00 0.000000e+00
3.600000e+00 2.004413e+00 0.000000e+00
</DataArray>
</Points>
<Cells>
<DataArray Name="connectivity" type="Int32" format="ascii">
0 11 12 1
1 12 13 2
2 13 14 3
3 14 15 4
4 15 16 5
5 16 17 6
6 17 18 7
7 18 19 8
8 19 20 9
9 20 21 10
11 22 23 12
12 23 24 13
13 24 25 14
14 25 26 15
15 26 27 16
16 27 28 17
17 28 29 18
18 29 30 19
19 30 31 20
20 31 32 21
22 33 34 23
23 34 35 24
24 35 36 25
25 36 37 26
26 37 38 27
27 38 39 28
28 39 40 29
29 40 41 30
30 41 42 31
31 42 43 32
33 44 45 34
34 45 46 35
35 46 47 36
36 47 48 37
37 48 49 38
38 49 50 39
39 50 51 40
40 51 52 41
41 52 53 42
42 53 54 43
44 55 56 45
45 56 57 46
46 57 58 47
47 58 59 48
48 59 60 49
49 60 61 50
50 61 62 51
51 62 63 52
52 63 64 53
53 64 65 54
55 66 67 56
56 67 68 57
57 68 69 58
58 69 70 59
59 70 71 60
60 71 72 61
61 72 73 62
62 73 74 63
63 74 75 64
64 75 76 65
66 77 78 67
67 78 79 68
68 79 80 69
69 80 81 70
70 81 82 71
71 82 83 72
72 83 84 73
73 84 85 74
74 85 86 75
75 86 87 76
77 88 89 78
78 89 90 79
79 90 91 80
80 91 92 81
81 92 93 82
82 93 94 83
83 94 95 84
84 95 96 85
85 96 97 86
86 97 98 87
88 99 100 89
89 100 101 90
90 101 102 91
91 102 103 92
92 103 104 93
93 104 105 94
94 105 106 95
95 106 107 96
96 107 108 97
97 108 109 98
99 110 111 100
100 111 112 101
101 112 113 102
102 113 114 103
103 114 115 104
104 115 116 105
105 116 117 106
106 117 118 107
107 118 119 108
108 119 120 109
110 121 122 111
111 122 123 112
112 123 124 113
113 124 125 114
114 125 126 115
115 126 127 116
116 127 128 117
117 128 129 118
118 129 130 119
119 130 131 120
121 132 133 122
122 133 134 123
123 134 135 124
124 135 136 125
125 136 137 126
126 137 138 127
127 138 139 128
128 139 140 129
129 140 141 130
130 141 142 131
132 143 144 133
133 144 145 134
134 145 146 135
135 146 147 136
136 147 148 137
137 148 149 138
138 149 150 139
139 150 151 140
140 151 152 141
141 152 153 142
143 154 155 144
144 155 156 145
145 156 157 146
146 157 158 147
147 158 159 148
148 159 160 149
149 160 161 150
150 161 162 151
151 162 163 152
152 163 164 153
154 165 166 155
155 166 167 156
156 167 168 157
157 168 169 158
158 169 170 159
159 170 171 160
160 171 172 161
161 172 173 162
162 173 174 163
163 174 175 164
165 176 177 166
166 177 178 167
167 178 179 168
168 179 180 169
169 180 181 170
170 181 182 171
171 182 183 172
172 183 184 173
173 184 185 174
174 185 186 175
</DataArray>
<DataArray Name="offsets" type="Int32" format="ascii">
4
8
12
16
20
24
28
32
36
40
44
48
52
56
60
64
68
72
76
80
84
88
92
96
100
104
108
112
116
120
124
128
132
136
140
144
148
152
156
160
164
168
172
176
180
184
188
192
196
200
204
208
212
216
220
224
228
232
236
240
244
248
252
256
260
264
268
272
276
280
284
288
292
296
300
304
308
312
316
320
324
328
332
336
340
344
348
352
356
360
364
368
372
376
380
384
388
392
396
400
404
408
412
416
420
424
428
432
436
440
444
448
452
456
460
464
468
472
476
480
484
488
492
496
500
504
508
512
516
520
524
528
532
536
540
544
548
552
556
560
564
568
572
576
580
584
588
592
596
600
604
608
612
616
620
624
628
632
636
640
</DataArray>
<DataArray Name="types" type="UInt8" format="ascii">
9
9
9
9
9
9
9
9
9
9
9
9
9
9
9
9
9
9
9
9
9
9
9
9
9
9
9
9
9
9
9
9
9
9
9
9
9
9
9
9
9
9
9
9
9
9
9
9
9
9
9
9
9
9
9
9
9
9
9
9
9
9
9
9
9
9
9
9
9
9
9
9
9
9
9
9
9
9
9
9
9
9
9
9
9
9
9
9
9
9
9
9
9
9
9
9
9
9
9
9
9
9
9
9
9
9
9
9
9
9
9
9
9
9
9
9
9
9
9
9
9
9
9
9
9
9
9
9
9
9
9
9
9
9
9
9
9
9
9
9
9
9
9
9
9
9
9
9
9
9
9
9
9
9
9
9
9
9
9
9
</DataArray>
</Cells>
<PointData>
<DataArray Name="disp" type="Float64" NumberOfComponents="3" format="ascii">
0.000000e+00 0.000000e+00 0.000000e+00
0.000000e+00 -3.251126e-03 0.000000e+00
0.000000e+00 -8.343150e-03 0.000000e+00
0.000000e+00 -1.600729e-02 0.000000e+00
0.000000e+00 -2.507543e-02 0.000000e+00
0.000000e+00 -3.463065e-02 0.000000e+00
0.000000e+00 -4.441701e-02 0.000000e+00
0.000000e+00 -5.396169e-02 0.000000e+00
0.000000e+00 -6.201048e-02 0.000000e+00
0.000000e+00 -6.688970e-02 0.000000e+00
0.000000e+00 -7.087500e-02 0.000000e+00
0.000000e+00 0.000000e+00 0.000000e+00
1.929660e-03 -3.317454e-03 0.000000e+00
5.084577e-03 -8.190863e-03 0.000000e+00
7.653453e-03 -1.478321e-02 0.000000e+00
8.913269e-03 -2.271541e-02 0.000000e+00
9.279883e-03 -3.152977e-02 0.000000e+00
9.027718e-03 -4.073660e-02 0.000000e+00
7.877025e-03 -4.995111e-02 0.000000e+00
4.784042e-03 -5.900766e-02 0.000000e+00
6.182743e-04 -6.651244e-02 0.000000e+00
0.000000e+00 -7.087500e-02 0.000000e+00
0.000000e+00 0.000000e+00 0.000000e+00
4.209390e-03 -2.927377e-03 0.000000e+00
8.720586e-03 -6.710351e-03 0.000000e+00
1.247617e-02 -1.090271e-02 0.000000e+00
1.511309e-02 -1.573339e-02 0.000000e+00
1.671914e-02 -2.160745e-02 0.000000e+00
1.724496e-02 -2.878681e-02 0.000000e+00
1.671144e-02 -3.730503e-02 0.000000e+00
1.383607e-02 -4.742524e-02 0.000000e+00
8.411465e-03 -5.895239e-02 0.000000e+00
0.000000e+00 -7.087500e-02 0.000000e+00
0.000000e+00 0.000000e+00 0.000000e+00
5.826809e-03 -1.556439e-03 0.000000e+00
1.073143e-02 -3.294492e-03 0.000000e+00
1.446360e-02 -4.870611e-03 0.000000e+00
1.741003e-02 -6.165390e-03 0.000000e+00
1.960274e-02 -7.138480e-03 0.000000e+00
2.100963e-02 -7.813157e-03 0.000000e+00
2.107527e-02 -8.030369e-03 0.000000e+00
1.912752e-02 -7.751145e-03 0.000000e+00
1.522298e-02 -7.218896e-03 0.000000e+00
8.491759e-03 -7.321163e-03 0.000000e+00
0.000000e+00 0.000000e+00 0.000000e+00
6.292995e-03 -1.089803e-03 0.000000e+00
1.079204e-02 -2.085036e-03 0.000000e+00
1.404135e-02 -2.786930e-03 0.000000e+00
1.659015e-02 -3.195516e-03 0.000000e+00
1.841197e-02 -3.279516e-03 0.000000e+00
1.937654e-02 -2.946657e-03 0.000000e+00
1.901788e-02 -2.237616e-03 0.000000e+00
1.708185e-02 -1.381342e-03 0.000000e+00
1.365075e-02 -6.988658e-04 0.000000e+00
9.117444e-03 -6.162661e-04 0.000000e+00
0.000000e+00 0.000000e+00 0.000000e+00
6.310533e-03 -6.182300e-04 0.000000e+00
1.017404e-02 -1.044916e-03 0.000000e+00
1.302512e-02 -1.176099e-03 0.000000e+00
1.521019e-02 -1.012108e-03 0.000000e+00
1.665610e-02 -5.331745e-04 0.000000e+00
1.725940e-02 2.652886e-04 0.000000e+00
1.677071e-02 1.293268e-03 0.000000e+00
1.510389e-02 2.313881e-03 0.000000e+00
1.250992e-02 2.990389e-03 0.000000e+00
9.720465e-03 3.071589e-03 0.000000e+00
0.000000e+00 0.000000e+00 0.000000e+00
5.909816e-03 -2.368407e-04 0.000000e+00
9.197740e-03 -2.778633e-04 0.000000e+00
1.168707e-02 -4.004755e-05 0.000000e+00
1.351804e-02 4.608599e-04 0.000000e+00
1.467596e-02 1.237832e-03 0.000000e+00
1.507809e-02 2.257949e-03 0.000000e+00
1.461669e-02 3.392926e-03 0.000000e+00
1.334249e-02 4.423408e-03 0.000000e+00
1.159982e-02 5.052510e-03 0.000000e+00
9.974875e-03 5.202527e-03 0.000000e+00
0.000000e+00 0.000000e+00 0.000000e+00
5.214077e-03 1.143471e-05 0.000000e+00
8.041043e-03 2.138892e-04 0.000000e+00
1.016973e-02 6.641059e-04 0.000000e+00
1.172476e-02 1.358662e-03 0.000000e+00
1.266874e-02 2.283462e-03 0.000000e+00
1.297256e-02 3.368750e-03 0.000000e+00
1.262825e-02 4.498520e-03 0.000000e+00
1.177637e-02 5.469064e-03 0.000000e+00
1.074430e-02 6.070230e-03 0.000000e+00
9.917437e-03 6.287548e-03 0.000000e+00
0.000000e+00 0.000000e+00 0.000000e+00
4.366401e-03 1.312824e-04 0.000000e+00
6.800826e-03 4.724559e-04 0.000000e+00
8.618132e-03 1.026027e-03 0.000000e+00
9.941280e-03 1.812573e-03 0.000000e+00
1.072649e-02 2.777950e-03 0.000000e+00
1.100266e-02 3.850750e-03 0.000000e+00
1.082004e-02 4.914368e-03 0.000000e+00
1.035591e-02 5.799204e-03 0.000000e+00
9.859686e-03 6.385995e-03 0.000000e+00
9.573776e-03 6.686544e-03 0.000000e+00
0.000000e+00 0.000000e+00 0.000000e+00
3.498624e-03 1.510282e-04 0.000000e+00
5.565980e-03 5.436913e-04 0.000000e+00
7.117164e-03 1.144754e-03 0.000000e+00
8.229171e-03 1.946132e-03 0.000000e+00
8.904600e-03 2.883506e-03 0.000000e+00
9.189632e-03 3.890912e-03 0.000000e+00
9.181709e-03 4.853460e-03 0.000000e+00
9.026006e-03 5.660095e-03 0.000000e+00
8.902091e-03 6.251773e-03 0.000000e+00
8.960579e-03 6.645667e-03 0.000000e+00
0.000000e+00 0.000000e+00 0.000000e+00
2.687544e-03 1.322204e-04 0.000000e+00
4.410180e-03 5.185244e-04 0.000000e+00
5.708899e-03 1.106242e-03 0.000000e+00
6.636864e-03 1.863958e-03 0.000000e+00
7.232790e-03 2.730646e-03 0.000000e+00
7.549184e-03 3.631987e-03 0.000000e+00
7.687220e-03 4.494156e-03 0.000000e+00
7.741637e-03 5.243894e-03 0.000000e+00
7.848377e-03 5.854224e-03 0.000000e+00
8.100625e-03 6.347872e-03 0.000000e+00
0.000000e+00 0.000000e+00 0.000000e+00
1.975029e-03 9.595081e-05 0.000000e+00
3.368359e-03 4.403434e-04 0.000000e+00
4.430709e-03 9.716454e-04 0.000000e+00
5.204102e-03 1.645756e-03 0.000000e+00
5.733896e-03 2.405053e-03 0.000000e+00
6.071008e-03 3.204280e-03 0.000000e+00
6.293007e-03 3.987551e-03 0.000000e+00
6.472262e-03 4.702520e-03 0.000000e+00
6.699301e-03 5.339617e-03 0.000000e+00
7.036218e-03 5.921628e-03 0.000000e+00
0.000000e+00 0.000000e+00 0.000000e+00
1.379822e-03 5.181162e-05 0.000000e+00
2.457286e-03 3.266897e-04 0.000000e+00
3.301807e-03 7.748996e-04 0.000000e+00
3.936226e-03 1.350575e-03 0.000000e+00
4.396714e-03 2.015474e-03 0.000000e+00
4.719292e-03 2.728792e-03 0.000000e+00
4.968476e-03 3.448338e-03 0.000000e+00
5.198366e-03 4.143885e-03 0.000000e+00
5.465832e-03 4.809077e-03 0.000000e+00
5.811079e-03 5.462949e-03 0.000000e+00
0.000000e+00 0.000000e+00 0.000000e+00
9.088443e-04 9.432033e-06 0.000000e+00
1.685920e-03 2.020815e-04 0.000000e+00
2.320752e-03 5.608162e-04 0.000000e+00
2.814284e-03 1.053818e-03 0.000000e+00
3.185511e-03 1.642499e-03 0.000000e+00
3.462448e-03 2.289011e-03 0.000000e+00
3.691189e-03 2.962032e-03 0.000000e+00
3.912304e-03 3.643799e-03 0.000000e+00
4.164529e-03 4.331637e-03 0.000000e+00
4.464462e-03 5.045529e-03 0.000000e+00
0.000000e+00 0.000000e+00 0.000000e+00
5.490928e-04 -3.336545e-05 0.000000e+00
1.044972e-03 9.600644e-05 0.000000e+00
1.467362e-03 3.832906e-04 0.000000e+00
1.807466e-03 8.101714e-04 0.000000e+00
2.069355e-03 1.339455e-03 0.000000e+00
2.270747e-03 1.938184e-03 0.000000e+00
2.443759e-03 2.579665e-03 0.000000e+00
2.616224e-03 3.250940e-03 0.000000e+00
2.807803e-03 3.955849e-03 0.000000e+00
3.024384e-03 4.717390e-03 0.000000e+00
0.000000e+00 0.000000e+00 0.000000e+00
2.595049e-04 -5.957252e-05 0.000000e+00
4.977581e-04 3.105626e-05 0.000000e+00
7.086797e-04 2.756849e-04 0.000000e+00
8.813070e-04 6.561266e-04 0.000000e+00
1.017311e-03 1.147446e-03 0.000000e+00
1.122595e-03 1.713634e-03 0.000000e+00
1.215911e-03 2.333195e-03 0.000000e+00
1.310483e-03 2.997195e-03 0.000000e+00
1.412971e-03 3.713857e-03 0.000000e+00
1.525410e-03 4.502166e-03 0.000000e+00
0.000000e+00 0.000000e+00 0.000000e+00
0.000000e+00 -5.648029e-05 0.000000e+00
0.000000e+00 2.364485e-05 0.000000e+00
0.000000e+00 2.525974e-04 0.000000e+00
0.000000e+00 6.129385e-04 0.000000e+00
0.000000e+00 1.085998e-03 0.000000e+00
0.000000e+00 1.636235e-03 0.000000e+00
0.000000e+00 2.242715e-03 0.000000e+00
0.000000e+00 2.900794e-03 0.000000e+00
0.000000e+00 3.617806e-03 0.000000e+00
0.000000e+00 4.413132e-03 0.000000e+00
</DataArray>
<DataArray Name="shear" type="Float64" NumberOfComponents="1" format="ascii">
1.960906e-02
3.067252e-02
5.356302e-02
7.383427e-02
8.504012e-02
8.945117e-02
8.872160e-02
7.971422e-02
5.657389e-02
3.033943e-02
2.168582e-02
2.199235e-02
3.239545e-02
5.020907e-02
6.586510e-02
7.778728e-02
8.589477e-02
8.943828e-02
8.669746e-02
7.392265e-02
5.142382e-02
3.452949e-02
2.763982e-02
3.510846e-02
4.481778e-02
5.340645e-02
6.512235e-02
7.981696e-02
9.543496e-02
1.091730e-01
1.202940e-01
1.260357e-01
1.258553e-01
3.135972e-02
3.323678e-02
3.466956e-02
3.692864e-02
4.230234e-02
5.090336e-02
6.202652e-02
7.409932e-02
8.851621e-02
1.049946e-01
1.178518e-01
3.243643e-02
2.959883e-02
2.466675e-02
2.284114e-02
2.271282e-02
2.278785e-02
2.214454e-02
1.968371e-02
1.507165e-02
7.307728e-03
4.261040e-04
3.205571e-02
2.734260e-02
2.098415e-02
1.945065e-02
1.913348e-02
1.895085e-02
1.820855e-02
1.614053e-02
1.228271e-02
6.060934e-03
1.701178e-03
2.983157e-02
2.443116e-02
1.802865e-02
1.697836e-02
1.674946e-02
1.666135e-02
1.614834e-02
1.457665e-02
1.126667e-02
5.978942e-03
2.242030e-03
2.627539e-02
2.124721e-02
1.567707e-02
1.505633e-02
1.507772e-02
1.515103e-02
1.481487e-02
1.347623e-02
1.054773e-02
6.161677e-03
3.202192e-03
2.201849e-02
1.795760e-02
1.371825e-02
1.345735e-02
1.372723e-02
1.392525e-02
1.366954e-02
1.243059e-02
9.942311e-03
6.545826e-03
4.395066e-03
1.766499e-02
1.475744e-02
1.197396e-02
1.202966e-02
1.246651e-02
1.273370e-02
1.249755e-02
1.141777e-02
9.507189e-03
7.113329e-03
5.698609e-03
1.360436e-02
1.179991e-02
1.030313e-02
1.061269e-02
1.114914e-02
1.145923e-02
1.130602e-02
1.054480e-02
9.260969e-03
7.777434e-03
6.972354e-03
1.002341e-02
9.103766e-03
8.619688e-03
9.150093e-03
9.770802e-03
1.018745e-02
1.025124e-02
9.879842e-03
9.171067e-03
8.423367e-03
8.075584e-03
7.021256e-03
6.708185e-03
6.951335e-03
7.726880e-03
8.510630e-03
9.101978e-03
9.400924e-03
9.391472e-03
9.177195e-03
8.986287e-03
8.965407e-03
4.623721e-03
4.651607e-03
5.401837e-03
6.480257e-03
7.482328e-03
8.255910e-03
8.761980e-03
9.045503e-03
9.214833e-03
9.449304e-03
9.672536e-03
2.773516e-03
2.990817e-03
4.138669e-03
5.503158e-03
6.706113e-03
7.637967e-03
8.313464e-03
8.811219e-03
9.256361e-03
9.802387e-03
1.019782e-02
1.312779e-03
1.774439e-03
3.303370e-03
4.864803e-03
6.200682e-03
7.242155e-03
8.020877e-03
8.657784e-03
9.283866e-03
1.001306e-02
1.050031e-02
4.478503e-04
1.274268e-03
3.007625e-03
4.633035e-03
6.010941e-03
7.092475e-03
7.906524e-03
8.595099e-03
9.287259e-03
1.007747e-02
1.059416e-02
</DataArray>
<DataArray Name="stress" type="Float64" NumberOfComponents="9" format="ascii">
-1.225512e+05 6.590937e+03 0.000000e+00 6.590937e+03 -2.147596e+05 0.000000e+00 0.000000e+00 0.000000e+00 0.000000e+00
-1.081825e+05 4.955016e+03 0.000000e+00 4.955016e+03 -2.155032e+05 0.000000e+00 0.000000e+00 0.000000e+00 0.000000e+00
-1.124203e+05 3.490622e+03 0.000000e+00 3.490622e+03 -2.206574e+05 0.000000e+00 0.000000e+00 0.000000e+00 0.000000e+00
-1.192470e+05 4.158608e+03 0.000000e+00 4.158608e+03 -2.282822e+05 0.000000e+00 0.000000e+00 0.000000e+00 0.000000e+00
-1.233172e+05 5.747885e+03 0.000000e+00 5.747885e+03 -2.384467e+05 0.000000e+00 0.000000e+00 0.000000e+00 0.000000e+00
-1.292421e+05 7.955835e+03 0.000000e+00 7.955835e+03 -2.495460e+05 0.000000e+00 0.000000e+00 0.000000e+00 0.000000e+00
-1.359691e+05 9.707632e+03 0.000000e+00 9.707632e+03 -2.629168e+05 0.000000e+00 0.000000e+00 0.000000e+00 0.000000e+00
-1.436600e+05 1.023691e+04 0.000000e+00 1.023691e+04 -2.738807e+05 0.000000e+00 0.000000e+00 0.000000e+00 0.000000e+00
-1.460383e+05 4.327792e+03 0.000000e+00 4.327792e+03 -2.830616e+05 0.000000e+00 0.000000e+00 0.000000e+00 0.000000e+00
-1.532224e+05 -2.614680e+03 0.000000e+00 -2.614680e+03 -2.914688e+05 0.000000e+00 0.000000e+00 0.000000e+00 0.000000e+00
-1.583810e+05 -1.094528e+03 0.000000e+00 -1.094528e+03 -2.785929e+05 0.000000e+00 0.000000e+00 0.000000e+00 0.000000e+00
-1.249247e+05 1.911757e+04 0.000000e+00 1.911757e+04 -2.083125e+05 0.000000e+00 0.000000e+00 0.000000e+00 0.000000e+00
-1.091650e+05 1.609868e+04 0.000000e+00 1.609868e+04 -2.043819e+05 0.000000e+00 0.000000e+00 0.000000e+00 0.000000e+00
-1.108316e+05 1.435129e+04 0.000000e+00 1.435129e+04 -2.152953e+05 0.000000e+00 0.000000e+00 0.000000e+00 0.000000e+00
-1.178844e+05 1.339769e+04 0.000000e+00 1.339769e+04 -2.277054e+05 0.000000e+00 0.000000e+00 0.000000e+00 0.000000e+00
-1.243389e+05 1.321777e+04 0.000000e+00 1.321777e+04 -2.390565e+05 0.000000e+00 0.000000e+00 0.000000e+00 0.000000e+00
-1.306597e+05 1.388959e+04 0.000000e+00 1.388959e+04 -2.493969e+05 0.000000e+00 0.000000e+00 0.000000e+00 0.000000e+00
-1.360842e+05 1.426398e+04 0.000000e+00 1.426398e+04 -2.574181e+05 0.000000e+00 0.000000e+00 0.000000e+00 0.000000e+00
-1.422355e+05 1.267254e+04 0.000000e+00 1.267254e+04 -2.644834e+05 0.000000e+00 0.000000e+00 0.000000e+00 0.000000e+00
-1.464636e+05 5.395379e+03 0.000000e+00 5.395379e+03 -2.752540e+05 0.000000e+00 0.000000e+00 0.000000e+00 0.000000e+00
-1.487867e+05 -2.244046e+03 0.000000e+00 -2.244046e+03 -2.825145e+05 0.000000e+00 0.000000e+00 0.000000e+00 0.000000e+00
-1.710306e+05 -7.864808e+03 0.000000e+00 -7.864808e+03 -3.182281e+05 0.000000e+00 0.000000e+00 0.000000e+00 0.000000e+00
-1.241687e+05 3.163754e+04 0.000000e+00 3.163754e+04 -1.816542e+05 0.000000e+00 0.000000e+00 0.000000e+00 0.000000e+00
-1.090687e+05 2.771738e+04 0.000000e+00 2.771738e+04 -1.728487e+05 0.000000e+00 0.000000e+00 0.000000e+00 0.000000e+00
-1.090257e+05 2.751670e+04 0.000000e+00 2.751670e+04 -1.812431e+05 0.000000e+00 0.000000e+00 0.000000e+00 0.000000e+00
-1.155580e+05 2.802749e+04 0.000000e+00 2.802749e+04 -1.913261e+05 0.000000e+00 0.000000e+00 0.000000e+00 0.000000e+00
-1.242336e+05 2.927549e+04 0.000000e+00 2.927549e+04 -2.024675e+05 0.000000e+00 0.000000e+00 0.000000e+00 0.000000e+00
-1.359091e+05 3.085339e+04 0.000000e+00 3.085339e+04 -2.169659e+05 0.000000e+00 0.000000e+00 0.000000e+00 0.000000e+00
-1.507928e+05 3.321964e+04 0.000000e+00 3.321964e+04 -2.317609e+05 0.000000e+00 0.000000e+00 0.000000e+00 0.000000e+00
-1.637660e+05 3.576458e+04 0.000000e+00 3.576458e+04 -2.511546e+05 0.000000e+00 0.000000e+00 0.000000e+00 0.000000e+00
-1.709087e+05 3.566238e+04 0.000000e+00 3.566238e+04 -2.682095e+05 0.000000e+00 0.000000e+00 0.000000e+00 0.000000e+00
-1.813835e+05 2.324192e+04 0.000000e+00 2.324192e+04 -2.854422e+05 0.000000e+00 0.000000e+00 0.000000e+00 0.000000e+00
-2.045333e+05 3.116843e+03 0.000000e+00 3.116843e+03 -3.375374e+05 0.000000e+00 0.000000e+00 0.000000e+00 0.000000e+00
-1.132565e+05 3.213091e+04 0.000000e+00 3.213091e+04 -1.385472e+05 0.000000e+00 0.000000e+00 0.000000e+00 0.000000e+00
-1.026897e+05 2.937172e+04 0.000000e+00 2.937172e+04 -1.314290e+05 0.000000e+00 0.000000e+00 0.000000e+00 0.000000e+00
-1.042562e+05 2.980193e+04 0.000000e+00 2.980193e+04 -1.323548e+05 0.000000e+00 0.000000e+00 0.000000e+00 0.000000e+00
-1.103687e+05 3.128143e+04 0.000000e+00 3.128143e+04 -1.321295e+05 0.000000e+00 0.000000e+00 0.000000e+00 0.000000e+00
-1.159862e+05 3.306100e+04 0.000000e+00 3.306100e+04 -1.305966e+05 0.000000e+00 0.000000e+00 0.000000e+00 0.000000e+00
-1.198430e+05 3.354848e+04 0.000000e+00 3.354848e+04 -1.268843e+05 0.000000e+00 0.000000e+00 0.000000e+00 0.000000e+00
-1.232688e+05 3.234693e+04 0.000000e+00 3.234693e+04 -1.200092e+05 0.000000e+00 0.000000e+00 0.000000e+00 0.000000e+00
-1.232082e+05 2.884557e+04 0.000000e+00 2.884557e+04 -1.122711e+05 0.000000e+00 0.000000e+00 0.000000e+00 0.000000e+00
-1.097515e+05 2.204375e+04 0.000000e+00 2.204375e+04 -9.628995e+04 0.000000e+00 0.000000e+00 0.000000e+00 0.000000e+00
-8.690217e+04 1.291331e+04 0.000000e+00 1.291331e+04 -8.038773e+04 0.000000e+00 0.000000e+00 0.000000e+00 0.000000e+00
-5.409090e+04 6.054780e+03 0.000000e+00 6.054780e+03 -6.065667e+04 0.000000e+00 0.000000e+00 0.000000e+00 0.000000e+00
-1.079785e+05 3.083845e+04 0.000000e+00 3.083845e+04 -1.172422e+05 0.000000e+00 0.000000e+00 0.000000e+00 0.000000e+00
-1.032410e+05 2.939415e+04 0.000000e+00 2.939415e+04 -1.144064e+05 0.000000e+00 0.000000e+00 0.000000e+00 0.000000e+00
-1.079839e+05 2.988457e+04 0.000000e+00 2.988457e+04 -1.153808e+05 0.000000e+00 0.000000e+00 0.000000e+00 0.000000e+00
-1.159605e+05 3.059547e+04 0.000000e+00 3.059547e+04 -1.131724e+05 0.000000e+00 0.000000e+00 0.000000e+00 0.000000e+00
-1.228801e+05 3.054988e+04 0.000000e+00 3.054988e+04 -1.088072e+05 0.000000e+00 0.000000e+00 0.000000e+00 0.000000e+00
-1.283171e+05 2.931676e+04 0.000000e+00 2.931676e+04 -1.025703e+05 0.000000e+00 0.000000e+00 0.000000e+00 0.000000e+00
-1.325255e+05 2.626594e+04 0.000000e+00 2.626594e+04 -9.490229e+04 0.000000e+00 0.000000e+00 0.000000e+00 0.000000e+00
-1.322182e+05 2.031880e+04 0.000000e+00 2.031880e+04 -8.605999e+04 0.000000e+00 0.000000e+00 0.000000e+00 0.000000e+00
-1.220545e+05 1.233544e+04 0.000000e+00 1.233544e+04 -7.627395e+04 0.000000e+00 0.000000e+00 0.000000e+00 0.000000e+00
-9.733486e+04 3.547280e+03 0.000000e+00 3.547280e+03 -6.850205e+04 0.000000e+00 0.000000e+00 0.000000e+00 0.000000e+00
-5.821554e+04 -2.550080e+02 0.000000e+00 -2.550080e+02 -5.587382e+04 0.000000e+00 0.000000e+00 0.000000e+00 0.000000e+00
-1.014522e+05 2.909143e+04 0.000000e+00 2.909143e+04 -1.022677e+05 0.000000e+00 0.000000e+00 0.000000e+00 0.000000e+00
-1.014785e+05 2.845303e+04 0.000000e+00 2.845303e+04 -1.017178e+05 0.000000e+00 0.000000e+00 0.000000e+00 0.000000e+00
-1.082599e+05 2.772856e+04 0.000000e+00 2.772856e+04 -1.005010e+05 0.000000e+00 0.000000e+00 0.000000e+00 0.000000e+00
-1.159572e+05 2.656659e+04 0.000000e+00 2.656659e+04 -9.626177e+04 0.000000e+00 0.000000e+00 0.000000e+00 0.000000e+00
-1.215919e+05 2.485853e+04 0.000000e+00 2.485853e+04 -9.156585e+04 0.000000e+00 0.000000e+00 0.000000e+00 0.000000e+00
-1.257609e+05 2.216762e+04 0.000000e+00 2.216762e+04 -8.604727e+04 0.000000e+00 0.000000e+00 0.000000e+00 0.000000e+00
-1.277789e+05 1.769145e+04 0.000000e+00 1.769145e+04 -7.983336e+04 0.000000e+00 0.000000e+00 0.000000e+00 0.000000e+00
-1.244619e+05 1.111240e+04 0.000000e+00 1.111240e+04 -7.315266e+04 0.000000e+00 0.000000e+00 0.000000e+00 0.000000e+00
-1.132331e+05 3.448048e+03 0.000000e+00 3.448048e+03 -6.701339e+04 0.000000e+00 0.000000e+00 0.000000e+00 0.000000e+00
-8.988008e+04 -2.372239e+03 0.000000e+00 -2.372239e+03 -6.244901e+04 0.000000e+00 0.000000e+00 0.000000e+00 0.000000e+00
-5.983201e+04 -3.739203e+03 0.000000e+00 -3.739203e+03 -5.560849e+04 0.000000e+00 0.000000e+00 0.000000e+00 0.000000e+00
-9.321421e+04 2.639889e+04 0.000000e+00 2.639889e+04 -8.944361e+04 0.000000e+00 0.000000e+00 0.000000e+00 0.000000e+00
-9.916320e+04 2.630164e+04 0.000000e+00 2.630164e+04 -9.112173e+04 0.000000e+00 0.000000e+00 0.000000e+00 0.000000e+00
-1.071481e+05 2.419856e+04 0.000000e+00 2.419856e+04 -8.823526e+04 0.000000e+00 0.000000e+00 0.000000e+00 0.000000e+00
-1.142057e+05 2.225204e+04 0.000000e+00 2.225204e+04 -8.457577e+04 0.000000e+00 0.000000e+00 0.000000e+00 0.000000e+00
-1.190749e+05 1.969688e+04 0.000000e+00 1.969688e+04 -8.056707e+04 0.000000e+00 0.000000e+00 0.000000e+00 0.000000e+00
-1.217488e+05 1.602886e+04 0.000000e+00 1.602886e+04 -7.584282e+04 0.000000e+00 0.000000e+00 0.000000e+00 0.000000e+00
-1.216807e+05 1.100427e+04 0.000000e+00 1.100427e+04 -7.086437e+04 0.000000e+00 0.000000e+00 0.000000e+00 0.000000e+00
-1.166884e+05 4.712950e+03 0.000000e+00 4.712950e+03 -6.610908e+04 0.000000e+00 0.000000e+00 0.000000e+00 0.000000e+00
-1.060614e+05 -1.367659e+03 0.000000e+00 -1.367659e+03 -6.253295e+04 0.000000e+00 0.000000e+00 0.000000e+00 0.000000e+00
-8.762572e+04 -4.153137e+03 0.000000e+00 -4.153137e+03 -6.034467e+04 0.000000e+00 0.000000e+00 0.000000e+00 0.000000e+00
-6.727763e+04 -3.948270e+03 0.000000e+00 -3.948270e+03 -5.664664e+04 0.000000e+00 0.000000e+00 0.000000e+00 0.000000e+00
-8.530455e+04 2.363670e+04 0.000000e+00 2.363670e+04 -7.999412e+04 0.000000e+00 0.000000e+00 0.000000e+00 0.000000e+00
-9.618653e+04 2.378984e+04 0.000000e+00 2.378984e+04 -8.300284e+04 0.000000e+00 0.000000e+00 0.000000e+00 0.000000e+00
-1.051983e+05 2.097446e+04 0.000000e+00 2.097446e+04 -7.971388e+04 0.000000e+00 0.000000e+00 0.000000e+00 0.000000e+00
-1.116281e+05 1.846129e+04 0.000000e+00 1.846129e+04 -7.666380e+04 0.000000e+00 0.000000e+00 0.000000e+00 0.000000e+00
-1.154421e+05 1.515058e+04 0.000000e+00 1.515058e+04 -7.303406e+04 0.000000e+00 0.000000e+00 0.000000e+00 0.000000e+00
-1.170383e+05 1.103288e+04 0.000000e+00 1.103288e+04 -6.919905e+04 0.000000e+00 0.000000e+00 0.000000e+00 0.000000e+00
-1.156066e+05 6.035787e+03 0.000000e+00 6.035787e+03 -6.543257e+04 0.000000e+00 0.000000e+00 0.000000e+00 0.000000e+00
-1.101640e+05 7.007735e+02 0.000000e+00 7.007735e+02 -6.233001e+04 0.000000e+00 0.000000e+00 0.000000e+00 0.000000e+00
-1.013707e+05 -3.434396e+03 0.000000e+00 -3.434396e+03 -6.041347e+04 0.000000e+00 0.000000e+00 0.000000e+00 0.000000e+00
-8.820520e+04 -4.369083e+03 0.000000e+00 -4.369083e+03 -5.958525e+04 0.000000e+00 0.000000e+00 0.000000e+00 0.000000e+00
-7.520160e+04 -3.499229e+03 0.000000e+00 -3.499229e+03 -5.734419e+04 0.000000e+00 0.000000e+00 0.000000e+00 0.000000e+00
-7.957430e+04 2.147466e+04 0.000000e+00 2.147466e+04 -7.364086e+04 0.000000e+00 0.000000e+00 0.000000e+00 0.000000e+00
-9.288303e+04 2.136036e+04 0.000000e+00 2.136036e+04 -7.668156e+04 0.000000e+00 0.000000e+00 0.000000e+00 0.000000e+00
-1.026126e+05 1.816638e+04 0.000000e+00 1.816638e+04 -7.366547e+04 0.000000e+00 0.000000e+00 0.000000e+00 0.000000e+00
-1.082351e+05 1.497486e+04 0.000000e+00 1.497486e+04 -7.089396e+04 0.000000e+00 0.000000e+00 0.000000e+00 0.000000e+00
-1.113019e+05 1.133866e+04 0.000000e+00 1.133866e+04 -6.788213e+04 0.000000e+00 0.000000e+00 0.000000e+00 0.000000e+00
-1.121220e+05 7.172212e+03 0.000000e+00 7.172212e+03 -6.489136e+04 0.000000e+00 0.000000e+00 0.000000e+00 0.000000e+00
-1.100467e+05 2.607023e+03 0.000000e+00 2.607023e+03 -6.226124e+04 0.000000e+00 0.000000e+00 0.000000e+00 0.000000e+00
-1.053991e+05 -1.545798e+03 0.000000e+00 -1.545798e+03 -6.037661e+04 0.000000e+00 0.000000e+00 0.000000e+00 0.000000e+00
-9.882007e+04 -4.136035e+03 0.000000e+00 -4.136035e+03 -5.945889e+04 0.000000e+00 0.000000e+00 0.000000e+00 0.000000e+00
-9.000316e+04 -3.993550e+03 0.000000e+00 -3.993550e+03 -5.933554e+04 0.000000e+00 0.000000e+00 0.000000e+00 0.000000e+00
-8.214283e+04 -2.780115e+03 0.000000e+00 -2.780115e+03 -5.800619e+04 0.000000e+00 0.000000e+00 0.000000e+00 0.000000e+00
-7.568982e+04 1.952814e+04 0.000000e+00 1.952814e+04 -6.914930e+04 0.000000e+00 0.000000e+00 0.000000e+00 0.000000e+00
-8.958520e+04 1.908865e+04 0.000000e+00 1.908865e+04 -7.186559e+04 0.000000e+00 0.000000e+00 0.000000e+00 0.000000e+00
-9.922595e+04 1.556612e+04 0.000000e+00 1.556612e+04 -6.901817e+04 0.000000e+00 0.000000e+00 0.000000e+00 0.000000e+00
-1.043402e+05 1.204873e+04 0.000000e+00 1.204873e+04 -6.665353e+04 0.000000e+00 0.000000e+00 0.000000e+00 0.000000e+00
-1.070664e+05 8.345865e+03 0.000000e+00 8.345865e+03 -6.438371e+04 0.000000e+00 0.000000e+00 0.000000e+00 0.000000e+00
-1.074242e+05 4.358063e+03 0.000000e+00 4.358063e+03 -6.216452e+04 0.000000e+00 0.000000e+00 0.000000e+00 0.000000e+00
-1.055126e+05 4.829198e+02 0.000000e+00 4.829198e+02 -6.042657e+04 0.000000e+00 0.000000e+00 0.000000e+00 0.000000e+00
-1.021254e+05 -2.589507e+03 0.000000e+00 -2.589507e+03 -5.935030e+04 0.000000e+00 0.000000e+00 0.000000e+00 0.000000e+00
-9.761244e+04 -4.121645e+03 0.000000e+00 -4.121645e+03 -5.907445e+04 0.000000e+00 0.000000e+00 0.000000e+00 0.000000e+00
-9.226848e+04 -3.400666e+03 0.000000e+00 -3.400666e+03 -5.933513e+04 0.000000e+00 0.000000e+00 0.000000e+00 0.000000e+00
-8.791388e+04 -2.075364e+03 0.000000e+00 -2.075364e+03 -5.864589e+04 0.000000e+00 0.000000e+00 0.000000e+00 0.000000e+00
-7.278516e+04 1.754555e+04 0.000000e+00 1.754555e+04 -6.582067e+04 0.000000e+00 0.000000e+00 0.000000e+00 0.000000e+00
-8.598944e+04 1.683720e+04 0.000000e+00 1.683720e+04 -6.816137e+04 0.000000e+00 0.000000e+00 0.000000e+00 0.000000e+00
-9.548470e+04 1.320021e+04 0.000000e+00 1.320021e+04 -6.558828e+04 0.000000e+00 0.000000e+00 0.000000e+00 0.000000e+00
-1.004687e+05 9.707851e+03 0.000000e+00 9.707851e+03 -6.363091e+04 0.000000e+00 0.000000e+00 0.000000e+00 0.000000e+00
-1.028871e+05 6.093039e+03 0.000000e+00 6.093039e+03 -6.184855e+04 0.000000e+00 0.000000e+00 0.000000e+00 0.000000e+00
-1.032767e+05 2.479430e+03 0.000000e+00 2.479430e+03 -6.030854e+04 0.000000e+00 0.000000e+00 0.000000e+00 0.000000e+00
-1.020482e+05 -6.951859e+02 0.000000e+00 -6.951859e+02 -5.925915e+04 0.000000e+00 0.000000e+00 0.000000e+00 0.000000e+00
-9.991398e+04 -2.920544e+03 0.000000e+00 -2.920544e+03 -5.881702e+04 0.000000e+00 0.000000e+00 0.000000e+00 0.000000e+00
-9.727617e+04 -3.733567e+03 0.000000e+00 -3.733567e+03 -5.894013e+04 0.000000e+00 0.000000e+00 0.000000e+00 0.000000e+00
-9.455611e+04 -2.756316e+03 0.000000e+00 -2.756316e+03 -5.940552e+04 0.000000e+00 0.000000e+00 0.000000e+00 0.000000e+00
-9.249495e+04 -1.537133e+03 0.000000e+00 -1.537133e+03 -5.922554e+04 0.000000e+00 0.000000e+00 0.000000e+00 0.000000e+00
-7.010686e+04 1.538631e+04 0.000000e+00 1.538631e+04 -6.385135e+04 0.000000e+00 0.000000e+00 0.000000e+00 0.000000e+00
-8.230004e+04 1.458732e+04 0.000000e+00 1.458732e+04 -6.561460e+04 0.000000e+00 0.000000e+00 0.000000e+00 0.000000e+00
-9.176925e+04 1.110681e+04 0.000000e+00 1.110681e+04 -6.327008e+04 0.000000e+00 0.000000e+00 0.000000e+00 0.000000e+00
-9.669051e+04 7.771524e+03 0.000000e+00 7.771524e+03 -6.153845e+04 0.000000e+00 0.000000e+00 0.000000e+00 0.000000e+00
-9.911116e+04 4.443230e+03 0.000000e+00 4.443230e+03 -6.009605e+04 0.000000e+00 0.000000e+00 0.000000e+00 0.000000e+00
-9.982091e+04 1.331496e+03 0.000000e+00 1.331496e+03 -5.903803e+04 0.000000e+00 0.000000e+00 0.000000e+00 0.000000e+00
-9.932603e+04 -1.204801e+03 0.000000e+00 -1.204801e+03 -5.852522e+04 0.000000e+00 0.000000e+00 0.000000e+00 0.000000e+00
-9.844772e+04 -2.777776e+03 0.000000e+00 -2.777776e+03 -5.853832e+04 0.000000e+00 0.000000e+00 0.000000e+00 0.000000e+00
-9.743569e+04 -3.127655e+03 0.000000e+00 -3.127655e+03 -5.892016e+04 0.000000e+00 0.000000e+00 0.000000e+00 0.000000e+00
-9.659870e+04 -2.130646e+03 0.000000e+00 -2.130646e+03 -5.945890e+04 0.000000e+00 0.000000e+00 0.000000e+00 0.000000e+00
-9.612825e+04 -1.096457e+03 0.000000e+00 -1.096457e+03 -5.962788e+04 0.000000e+00 0.000000e+00 0.000000e+00 0.000000e+00
-6.802652e+04 1.301169e+04 0.000000e+00 1.301169e+04 -6.306289e+04 0.000000e+00 0.000000e+00 0.000000e+00 0.000000e+00
-7.895701e+04 1.218383e+04 0.000000e+00 1.218383e+04 -6.411999e+04 0.000000e+00 0.000000e+00 0.000000e+00 0.000000e+00
-8.825000e+04 9.155206e+03 0.000000e+00 9.155206e+03 -6.191263e+04 0.000000e+00 0.000000e+00 0.000000e+00 0.000000e+00
-9.320549e+04 6.138514e+03 0.000000e+00 6.138514e+03 -6.034093e+04 0.000000e+00 0.000000e+00 0.000000e+00 0.000000e+00
-9.577958e+04 3.219785e+03 0.000000e+00 3.219785e+03 -5.914244e+04 0.000000e+00 0.000000e+00 0.000000e+00 0.000000e+00
-9.693620e+04 6.477120e+02 0.000000e+00 6.477120e+02 -5.841215e+04 0.000000e+00 0.000000e+00 0.000000e+00 0.000000e+00
-9.734236e+04 -1.275433e+03 0.000000e+00 -1.275433e+03 -5.820724e+04 0.000000e+00 0.000000e+00 0.000000e+00 0.000000e+00
-9.756705e+04 -2.329472e+03 0.000000e+00 -2.329472e+03 -5.845584e+04 0.000000e+00 0.000000e+00 0.000000e+00 0.000000e+00
-9.782024e+04 -2.424866e+03 0.000000e+00 -2.424866e+03 -5.898523e+04 0.000000e+00 0.000000e+00 0.000000e+00 0.000000e+00
-9.828514e+04 -1.550885e+03 0.000000e+00 -1.550885e+03 -5.952901e+04 0.000000e+00 0.000000e+00 0.000000e+00 0.000000e+00
-9.886413e+04 -7.250623e+02 0.000000e+00 -7.250623e+02 -5.992605e+04 0.000000e+00 0.000000e+00 0.000000e+00 0.000000e+00
-6.698622e+04 1.043902e+04 0.000000e+00 1.043902e+04 -6.324754e+04 0.000000e+00 0.000000e+00 0.000000e+00 0.000000e+00
-7.638980e+04 9.661228e+03 0.000000e+00 9.661228e+03 -6.353561e+04 0.000000e+00 0.000000e+00 0.000000e+00 0.000000e+00
-8.521875e+04 7.218800e+03 0.000000e+00 7.218800e+03 -6.138229e+04 0.000000e+00 0.000000e+00 0.000000e+00 0.000000e+00
-9.015527e+04 4.649785e+03 0.000000e+00 4.649785e+03 -5.979799e+04 0.000000e+00 0.000000e+00 0.000000e+00 0.000000e+00
-9.296440e+04 2.251084e+03 0.000000e+00 2.251084e+03 -5.873347e+04 0.000000e+00 0.000000e+00 0.000000e+00 0.000000e+00
-9.469006e+04 2.717428e+02 0.000000e+00 2.717428e+02 -5.822552e+04 0.000000e+00 0.000000e+00 0.000000e+00 0.000000e+00
-9.591578e+04 -1.098666e+03 0.000000e+00 -1.098666e+03 -5.820259e+04 0.000000e+00 0.000000e+00 0.000000e+00 0.000000e+00
-9.704927e+04 -1.770239e+03 0.000000e+00 -1.770239e+03 -5.857322e+04 0.000000e+00 0.000000e+00 0.000000e+00 0.000000e+00
-9.826359e+04 -1.719134e+03 0.000000e+00 -1.719134e+03 -5.912586e+04 0.000000e+00 0.000000e+00 0.000000e+00 0.000000e+00
-9.956449e+04 -1.033794e+03 0.000000e+00 -1.033794e+03 -5.962388e+04 0.000000e+00 0.000000e+00 0.000000e+00 0.000000e+00
-1.007853e+05 -4.257971e+02 0.000000e+00 -4.257971e+02 -6.015575e+04 0.000000e+00 0.000000e+00 0.000000e+00 0.000000e+00
-6.632055e+04 7.399975e+03 0.000000e+00 7.399975e+03 -6.415564e+04 0.000000e+00 0.000000e+00 0.000000e+00 0.000000e+00
-7.440374e+04 6.767485e+03 0.000000e+00 6.767485e+03 -6.374979e+04 0.000000e+00 0.000000e+00 0.000000e+00 0.000000e+00
-8.273502e+04 5.022657e+03 0.000000e+00 5.022657e+03 -6.138169e+04 0.000000e+00 0.000000e+00 0.000000e+00 0.000000e+00
-8.772938e+04 3.138283e+03 0.000000e+00 3.138283e+03 -5.965292e+04 0.000000e+00 0.000000e+00 0.000000e+00 0.000000e+00
-9.085777e+04 1.433135e+03 0.000000e+00 1.433135e+03 -5.863471e+04 0.000000e+00 0.000000e+00 0.000000e+00 0.000000e+00
-9.312058e+04 9.255101e+01 0.000000e+00 9.255101e+01 -5.823291e+04 0.000000e+00 0.000000e+00 0.000000e+00 0.000000e+00
-9.499252e+04 -7.834428e+02 0.000000e+00 -7.834428e+02 -5.833527e+04 0.000000e+00 0.000000e+00 0.000000e+00 0.000000e+00
-9.679333e+04 -1.169218e+03 0.000000e+00 -1.169218e+03 -5.875588e+04 0.000000e+00 0.000000e+00 0.000000e+00 0.000000e+00
-9.866215e+04 -1.073292e+03 0.000000e+00 -1.073292e+03 -5.927996e+04 0.000000e+00 0.000000e+00 0.000000e+00 0.000000e+00
-1.004146e+05 -6.098912e+02 0.000000e+00 -6.098912e+02 -5.973304e+04 0.000000e+00 0.000000e+00 0.000000e+00 0.000000e+00
-1.019651e+05 -2.232700e+02 0.000000e+00 -2.232700e+02 -6.031598e+04 0.000000e+00 0.000000e+00 0.000000e+00 0.000000e+00
-6.590890e+04 3.780753e+03 0.000000e+00 3.780753e+03 -6.485355e+04 0.000000e+00 0.000000e+00 0.000000e+00 0.000000e+00
-7.321255e+04 3.458462e+03 0.000000e+00 3.458462e+03 -6.410871e+04 0.000000e+00 0.000000e+00 0.000000e+00 0.000000e+00
-8.109305e+04 2.553532e+03 0.000000e+00 2.553532e+03 -6.148155e+04 0.000000e+00 0.000000e+00 0.000000e+00 0.000000e+00
-8.618386e+04 1.566023e+03 0.000000e+00 1.566023e+03 -5.967901e+04 0.000000e+00 0.000000e+00 0.000000e+00 0.000000e+00
-8.955045e+04 6.931394e+02 0.000000e+00 6.931394e+02 -5.868848e+04 0.000000e+00 0.000000e+00 0.000000e+00 0.000000e+00
-9.217638e+04 2.229667e+01 0.000000e+00 2.229667e+01 -5.834184e+04 0.000000e+00 0.000000e+00 0.000000e+00 0.000000e+00
-9.449009e+04 -4.053445e+02 0.000000e+00 -4.053445e+02 -5.849498e+04 0.000000e+00 0.000000e+00 0.000000e+00 0.000000e+00
-9.668903e+04 -5.730651e+02 0.000000e+00 -5.730651e+02 -5.892678e+04 0.000000e+00 0.000000e+00 0.000000e+00 0.000000e+00
-9.892902e+04 -5.046982e+02 0.000000e+00 -5.046982e+02 -5.941333e+04 0.000000e+00 0.000000e+00 0.000000e+00 0.000000e+00
-1.009068e+05 -2.720031e+02 0.000000e+00 -2.720031e+02 -5.981543e+04 0.000000e+00 0.000000e+00 0.000000e+00 0.000000e+00
-1.026235e+05 -8.459933e+01 0.000000e+00 -8.459933e+01 -6.039579e+04 0.000000e+00 0.000000e+00 0.000000e+00 0.000000e+00
-6.567920e+04 1.054088e+03 0.000000e+00 1.054088e+03 -6.485299e+04 0.000000e+00 0.000000e+00 0.000000e+00 0.000000e+00
-7.276176e+04 1.005409e+03 0.000000e+00 1.005409e+03 -6.410586e+04 0.000000e+00 0.000000e+00 0.000000e+00 0.000000e+00
-8.053154e+04 7.094799e+02 0.000000e+00 7.094799e+02 -6.149614e+04 0.000000e+00 0.000000e+00 0.000000e+00 0.000000e+00
-8.566420e+04 3.300953e+02 0.000000e+00 3.300953e+02 -5.972797e+04 0.000000e+00 0.000000e+00 0.000000e+00 0.000000e+00
-8.914081e+04 -3.152332e-01 0.000000e+00 -3.152332e-01 -5.876039e+04 0.000000e+00 0.000000e+00 0.000000e+00 0.000000e+00
-9.189418e+04 -2.532100e+02 0.000000e+00 -2.532100e+02 -5.844220e+04 0.000000e+00 0.000000e+00 0.000000e+00 0.000000e+00
-9.436820e+04 -4.136870e+02 0.000000e+00 -4.136870e+02 -5.860411e+04 0.000000e+00 0.000000e+00 0.000000e+00 0.000000e+00
-9.669873e+04 -4.762690e+02 0.000000e+00 -4.762690e+02 -5.903805e+04 0.000000e+00 0.000000e+00 0.000000e+00 0.000000e+00
-9.905824e+04 -4.400837e+02 0.000000e+00 -4.400837e+02 -5.950058e+04 0.000000e+00 0.000000e+00 0.000000e+00 0.000000e+00
-1.010960e+05 -3.272200e+02 0.000000e+00 -3.272200e+02 -5.986941e+04 0.000000e+00 0.000000e+00 0.000000e+00 0.000000e+00
-1.028568e+05 -2.408346e+02 0.000000e+00 -2.408346e+02 -6.042937e+04 0.000000e+00 0.000000e+00 0.000000e+00 0.000000e+00
</DataArray>
<DataArray Name="vol_eps" type="Float64" NumberOfComponents="1" format="ascii">
-1.364183e-02
-1.151683e-02
-9.387580e-03
-8.298974e-03
-7.806062e-03
-8.391335e-03
-9.981397e-03
-1.247108e-02
-1.566479e-02
-1.959226e-02
-1.984847e-02
-1.322480e-02
-1.072638e-02
-9.290494e-03
-8.734589e-03
-8.392228e-03
-8.433425e-03
-9.015596e-03
-1.063522e-02
-1.302086e-02
-1.608089e-02
-2.187792e-02
-1.105776e-02
-8.364717e-03
-7.618038e-03
-7.677979e-03
-7.740546e-03
-8.105258e-03
-8.732479e-03
-9.794551e-03
-1.032109e-02
-1.092003e-02
-1.556761e-02
-7.065744e-03
-5.462889e-03
-5.410085e-03
-5.723231e-03
-5.443198e-03
-4.620844e-03
-3.168642e-03
-1.216838e-03
2.141289e-03
7.122784e-03
1.207070e-02
-5.122453e-03
-4.842377e-03
-5.726765e-03
-6.313344e-03
-6.518119e-03
-6.432056e-03
-6.180536e-03
-5.702023e-03
-4.699625e-03
-2.839906e-03
6.105989e-04
-3.474447e-03
-3.933483e-03
-5.003594e-03
-5.405673e-03
-5.505150e-03
-5.372873e-03
-5.062803e-03
-4.518851e-03
-3.670918e-03
-2.031885e-03
4.071024e-04
-2.121737e-03
-3.256144e-03
-4.306433e-03
-4.654000e-03
-4.698485e-03
-4.492618e-03
-4.142239e-03
-3.642070e-03
-2.969386e-03
-1.768053e-03
-2.056716e-04
-1.200422e-03
-2.756808e-03
-3.751728e-03
-4.032908e-03
-3.993973e-03
-3.796856e-03
-3.480225e-03
-3.062092e-03
-2.564003e-03
-1.768314e-03
-7.703156e-04
-7.005224e-04
-2.366731e-03
-3.280041e-03
-3.474858e-03
-3.429485e-03
-3.277203e-03
-3.018324e-03
-2.704076e-03
-2.366394e-03
-1.881197e-03
-1.274197e-03
-5.212314e-04
-2.060488e-03
-2.823638e-03
-2.990270e-03
-2.997862e-03
-2.891866e-03
-2.702083e-03
-2.489832e-03
-2.291236e-03
-2.034532e-03
-1.705716e-03
-4.820054e-04
-1.801417e-03
-2.425431e-03
-2.605920e-03
-2.649191e-03
-2.597570e-03
-2.476268e-03
-2.359867e-03
-2.277240e-03
-2.177569e-03
-2.034711e-03
-4.952351e-04
-1.577452e-03
-2.111290e-03
-2.308341e-03
-2.380283e-03
-2.364969e-03
-2.304844e-03
-2.282207e-03
-2.289269e-03
-2.293721e-03
-2.274400e-03
-5.289783e-04
-1.392190e-03
-1.874974e-03
-2.081112e-03
-2.165219e-03
-2.183896e-03
-2.194772e-03
-2.241617e-03
-2.312005e-03
-2.383277e-03
-2.445912e-03
-5.683461e-04
-1.241817e-03
-1.689524e-03
-1.893412e-03
-1.989031e-03
-2.055761e-03
-2.129316e-03
-2.228030e-03
-2.341667e-03
-2.450252e-03
-2.560191e-03
-6.339120e-04
-1.145582e-03
-1.537037e-03
-1.745278e-03
-1.866760e-03
-1.973404e-03
-2.092210e-03
-2.229110e-03
-2.371884e-03
-2.497033e-03
-2.627825e-03
-6.802223e-04
-1.099597e-03
-1.436619e-03
-1.651553e-03
-1.798908e-03
-1.930701e-03
-2.077105e-03
-2.236442e-03
-2.395553e-03
-2.525064e-03
-2.663620e-03
-6.720777e-04
-1.073053e-03
-1.400256e-03
-1.624217e-03
-1.783972e-03
-1.925101e-03
-2.080811e-03
-2.247039e-03
-2.410355e-03
-2.538919e-03
-2.677223e-03
</DataArray>
</PointData>
</Piece>
</UnstructuredGrid>
</VTKFile>
