<?xml version="1.0"?>
<VTKFile type="UnstructuredGrid" version="0.1">
<UnstructuredGrid>
<FieldData>
<DataArray Name="TIME" type="Float64" format="ascii" NumberOfTuples="1">
0.000000e+00
</DataArray>
</FieldData>
<FieldData>
<DataArray Name="CYCLE" type="Int32" format="ascii" NumberOfTuples="1">
0
</DataArray>
</FieldData>
<Piece NumberOfPoints="187" NumberOfCells="160">
<Points>
<DataArray NumberOfComponents="3" type="Float64" format="ascii">
0.000000e+00 0.000000e+00 0.000000e+00
0.000000e+00 1.980507e-01 0.000000e+00
0.000000e+00 3.954161e-01 0.000000e+00
0.000000e+00 5.922582e-01 0.000000e+00
0.000000e+00 7.887300e-01 0.000000e+00
0.000000e+00 9.849339e-01 0.000000e+00
0.000000e+00 1.180974e+00 0.000000e+00
0.000000e+00 1.377017e+00 0.000000e+00
0.000000e+00 1.573299e+00 0.000000e+00
0.000000e+00 1.770160e+00 0.000000e+00
0.000000e+00 1.967375e+00 0.000000e+00
2.250000e-01 0.000000e+00 0.000000e+00
2.258805e-01 1.982156e-01 0.000000e+00
2.266142e-01 3.958061e-01 0.000000e+00
2.271266e-01 5.929021e-01 0.000000e+00
2.274335e-01 7.896047e-01 0.000000e+00
2.275886e-01 9.859726e-01 0.000000e+00
2.275323e-01 1.182105e+00 0.000000e+00
2.272287e-01 1.378097e+00 0.000000e+00
2.265922e-01 1.574087e+00 0.000000e+00
2.255239e-01 1.770290e+00 0.000000e+00
2.250000e-01 1.967375e+00 0.000000e+00
4.500000e-01 0.000000e+00 0.000000e+00
4.515660e-01 1.985817e-01 0.000000e+00
4.528642e-01 3.968082e-01 0.000000e+00
4.538324e-01 5.947019e-01 0.000000e+00
4.545400e-01 7.922162e-01 0.000000e+00
4.550119e-01 9.893433e-01 0.000000e+00
4.551272e-01 1.186054e+00 0.000000e+00
4.549939e-01 1.382278e+00 0.000000e+00
4.543028e-01 1.577944e+00 0.000000e+00
4.530224e-01 1.772940e+00 0.000000e+00
4.500000e-01 1.967375e+00 0.000000e+00
6.750000e-01 0.000000e+00 0.000000e+00
6.769224e-01 1.989502e-01 0.000000e+00
6.784273e-01 3.978385e-01 0.000000e+00
6.795952e-01 5.967315e-01 0.000000e+00
6.805299e-01 7.956605e-01 0.000000e+00
6.812779e-01 9.946719e-01 0.000000e+00
6.817576e-01 1.193807e+00 0.000000e+00
6.819649e-01 1.393079e+00 0.000000e+00
6.817173e-01 1.592569e+00 0.000000e+00
6.807686e-01 1.792484e+00 0.000000e+00
6.773010e-01 1.993102e+00 0.000000e+00
9.000000e-01 0.000000e+00 0.000000e+00
9.020191e-01 1.992130e-01 0.000000e+00
9.034721e-01 3.984648e-01 0.000000e+00
9.045650e-01 5.977833e-01 0.000000e+00
9.054064e-01 7.971827e-01 0.000000e+00
9.060176e-01 9.966883e-01 0.000000e+00
9.063618e-01 1.196331e+00 0.000000e+00
9.063863e-01 1.396152e+00 0.000000e+00
9.059362e-01 1.596191e+00 0.000000e+00
9.046193e-01 1.796454e+00 0.000000e+00
9.023559e-01 1.996432e+00 0.000000e+00
1.125000e+00 0.000000e+00 0.000000e+00
1.126956e+00 1.994417e-01 0.000000e+00
1.128287e+00 3.989615e-01 0.000000e+00
1.129271e+00 5.985651e-01 0.000000e+00
1.130000e+00 7.982593e-01 0.000000e+00
1.130488e+00 9.980583e-01 0.000000e+00
1.130703e+00 1.197979e+00 0.000000e+00
1.130601e+00 1.398039e+00 0.000000e+00
1.130054e+00 1.598229e+00 0.000000e+00
1.128993e+00 1.798423e+00 0.000000e+00
1.127613e+00 1.998484e+00 0.000000e+00
1.350000e+00 0.000000e+00 0.000000e+00
1.351785e+00 1.996186e-01 0.000000e+00
1.352977e+00 3.993329e-01 0.000000e+00
1.353846e+00 5.991301e-01 0.000000e+00
1.354468e+00 7.990123e-01 0.000000e+00
1.354856e+00 9.989852e-01 0.000000e+00
1.354989e+00 1.199054e+00 0.000000e+00
1.354830e+00 1.399211e+00 0.000000e+00
1.354347e+00 1.599418e+00 0.000000e+00
1.353580e+00 1.799592e+00 0.000000e+00
1.352725e+00 1.999641e+00 0.000000e+00
1.575000e+00 0.000000e+00 0.000000e+00
1.576555e+00 1.997466e-01 0.000000e+00
1.577600e+00 3.995963e-01 0.000000e+00
1.578360e+00 5.995244e-01 0.000000e+00
1.578894e+00 7.995242e-01 0.000000e+00
1.579210e+00 9.995949e-01 0.000000e+00
1.579296e+00 1.199734e+00 0.000000e+00
1.579144e+00 1.399927e+00 0.000000e+00
1.578771e+00 1.600131e+00 0.000000e+00
1.578250e+00 1.800282e+00 0.000000e+00
1.577723e+00 2.000345e+00 0.000000e+00
1.800000e+00 0.000000e+00 0.000000e+00
1.801303e+00 1.998374e-01 0.000000e+00
1.802203e+00 3.997726e-01 0.000000e+00
1.802865e+00 5.997779e-01 0.000000e+00
1.803324e+00 7.998441e-01 0.000000e+00
1.803586e+00 9.999701e-01 0.000000e+00
1.803652e+00 1.200146e+00 0.000000e+00
1.803538e+00 1.400347e+00 0.000000e+00
1.803278e+00 1.600538e+00 0.000000e+00
1.802940e+00 1.800681e+00 0.000000e+00
1.802629e+00 2.000757e+00 0.000000e+00
2.025000e+00 0.000000e+00 0.000000e+00
2.026055e+00 1.998934e-01 0.000000e+00
2.026820e+00 3.998773e-01 0.000000e+00
2.027388e+00 5.999255e-01 0.000000e+00
2.027779e+00 8.000312e-01 0.000000e+00
2.028000e+00 1.000185e+00 0.000000e+00
2.028066e+00 1.200372e+00 0.000000e+00
2.027997e+00 1.400570e+00 0.000000e+00
2.027831e+00 1.600749e+00 0.000000e+00
2.027625e+00 1.800889e+00 0.000000e+00
2.027458e+00 2.000980e+00 0.000000e+00
2.250000e+00 0.000000e+00 0.000000e+00
2.250833e+00 1.999255e-01 0.000000e+00
2.251468e+00 3.999328e-01 0.000000e+00
2.251943e+00 6.000036e-01 0.000000e+00
2.252271e+00 8.001271e-01 0.000000e+00
2.252463e+00 1.000291e+00 0.000000e+00
2.252533e+00 1.200476e+00 0.000000e+00
2.252504e+00 1.400664e+00 0.000000e+00
2.252410e+00 1.600835e+00 0.000000e+00
2.252296e+00 1.800976e+00 0.000000e+00
2.252223e+00 2.001081e+00 0.000000e+00
2.475000e+00 0.000000e+00 0.000000e+00
2.475641e+00 1.999425e-01 0.000000e+00
2.476152e+00 3.999608e-01 0.000000e+00
2.476537e+00 6.000394e-01 0.000000e+00
2.476808e+00 8.001662e-01 0.000000e+00
2.476973e+00 1.000326e+00 0.000000e+00
2.477046e+00 1.200504e+00 0.000000e+00
2.477046e+00 1.400682e+00 0.000000e+00
2.477001e+00 1.600848e+00 0.000000e+00
2.476948e+00 1.800991e+00 0.000000e+00
2.476933e+00 2.001110e+00 0.000000e+00
2.700000e+00 0.000000e+00 0.000000e+00
2.700478e+00 1.999520e-01 0.000000e+00
2.700871e+00 3.999724e-01 0.000000e+00
2.701174e+00 6.000489e-01 0.000000e+00
2.701390e+00 8.001703e-01 0.000000e+00
2.701527e+00 1.000323e+00 0.000000e+00
2.701596e+00 1.200491e+00 0.000000e+00
2.701612e+00 1.400661e+00 0.000000e+00
2.701598e+00 1.600822e+00 0.000000e+00
2.701583e+00 1.800967e+00 0.000000e+00
2.701598e+00 2.001098e+00 0.000000e+00
2.925000e+00 0.000000e+00 0.000000e+00
2.925339e+00 1.999546e-01 0.000000e+00
2.925625e+00 3.999737e-01 0.000000e+00
2.925848e+00 6.000459e-01 0.000000e+00
2.926010e+00 8.001605e-01 0.000000e+00
2.926116e+00 1.000304e+00 0.000000e+00
2.926174e+00 1.200464e+00 0.000000e+00
2.926195e+00 1.400627e+00 0.000000e+00
2.926198e+00 1.600785e+00 0.000000e+00
2.926202e+00 1.800932e+00 0.000000e+00
2.926228e+00 2.001072e+00 0.000000e+00
3.150000e+00 0.000000e+00 0.000000e+00
3.150218e+00 1.999567e-01 0.000000e+00
3.150404e+00 3.999740e-01 0.000000e+00
3.150550e+00 6.000425e-01 0.000000e+00
3.150658e+00 8.001513e-01 0.000000e+00
3.150730e+00 1.000288e+00 0.000000e+00
3.150772e+00 1.200441e+00 0.000000e+00
3.150791e+00 1.400599e+00 0.000000e+00
3.150799e+00 1.600753e+00 0.000000e+00
3.150808e+00 1.800903e+00 0.000000e+00
3.150832e+00 2.001050e+00 0.000000e+00
3.375000e+00 0.000000e+00 0.000000e+00
3.375108e+00 1.999601e-01 0.000000e+00
3.375199e+00 3.999794e-01 0.000000e+00
3.375271e+00 6.000467e-01 0.000000e+00
3.375324e+00 8.001523e-01 0.000000e+00
3.375361e+00 1.000285e+00 0.000000e+00
3.375383e+00 1.200433e+00 0.000000e+00
3.375394e+00 1.400587e+00 0.000000e+00
3.375399e+00 1.600740e+00 0.000000e+00
3.375406e+00 1.800891e+00 0.000000e+00
3.375420e+00 2.001042e+00 0.000000e+00
3.600000e+00 0.000000e+00 0.000000e+00
3.600000e+00 1.999746e-01 0.000000e+00
3.600000e+00 3.999973e-01 0.000000e+00
3.600000e+00 6.000643e-01 0.000000e+00
3.600000e+00 8.001686e-01 0.000000e+00
3.600000e+00 1.000299e+00 0.000000e+00
3.600000e+00 1.200446e+00 0.000000e+00
3.600000e+00 1.400598e+00 0.000000e+00
3.600000e+00 1.600751e+00 0.000000e+00
3.600000e+00 1.800902e+00 0.000000e+00
3.600000e+00 2.001054e+00 0.000000e+00
</DataArray>
</Points>
<Cells>
<DataArray Name="connectivity" type="Int32" format="ascii">
0 11 12 1
1 12 13 2
2 13 14 3
3 14 15 4
4 15 16 5
5 16 17 6
6 17 18 7
7 18 19 8
8 19 20 9
9 20 21 10
11 22 23 12
12 23 24 13
13 24 25 14
14 25 26 15
15 26 27 16
16 27 28 17
17 28 29 18
18 29 30 19
19 30 31 20
20 31 32 21
22 33 34 23
23 34 35 24
24 35 36 25
25 36 37 26
26 37 38 27
27 38 39 28
28 39 40 29
29 40 41 30
30 41 42 31
31 42 43 32
33 44 45 34
34 45 46 35
35 46 47 36
36 47 48 37
37 48 49 38
38 49 50 39
39 50 51 40
40 51 52 41
41 52 53 42
42 53 54 43
44 55 56 45
45 56 57 46
46 57 58 47
47 58 59 48
48 59 60 49
49 60 61 50
50 61 62 51
51 62 63 52
52 63 64 53
53 64 65 54
55 66 67 56
56 67 68 57
57 68 69 58
58 69 70 59
59 70 71 60
60 71 72 61
61 72 73 62
62 73 74 63
63 74 75 64
64 75 76 65
66 77 78 67
67 78 79 68
68 79 80 69
69 80 81 70
70 81 82 71
71 82 83 72
72 83 84 73
73 84 85 74
74 85 86 75
75 86 87 76
77 88 89 78
78 89 90 79
79 90 91 80
80 91 92 81
81 92 93 82
82 93 94 83
83 94 95 84
84 95 96 85
85 96 97 86
86 97 98 87
88 99 100 89
89 100 101 90
90 101 102 91
91 102 103 92
92 103 104 93
93 104 105 94
94 105 106 95
95 106 107 96
96 107 108 97
97 108 109 98
99 110 111 100
100 111 112 101
101 112 113 102
102 113 114 103
103 114 115 104
104 115 116 105
105 116 117 106
106 117 118 107
107 118 119 108
108 119 120 109
110 121 122 111
111 122 123 112
112 123 124 113
113 124 125 114
114 125 126 115
115 126 127 116
116 127 128 117
117 128 129 118
118 129 130 119
119 130 131 120
121 132 133 122
122 133 134 123
123 134 135 124
124 135 136 125
125 136 137 126
126 137 138 127
127 138 139 128
128 139 140 129
129 140 141 130
130 141 142 131
132 143 144 133
133 144 145 134
134 145 146 135
135 146 147 136
136 147 148 137
137 148 149 138
138 149 150 139
139 150 151 140
140 151 152 141
141 152 153 142
143 154 155 144
144 155 156 145
145 156 157 146
146 157 158 147
147 158 159 148
148 159 160 149
149 160 161 150
150 161 162 151
151 162 163 152
152 163 164 153
154 165 166 155
155 166 167 156
156 167 168 157
157 168 169 158
158 169 170 159
159 170 171 160
160 171 172 161
161 172 173 162
162 173 174 163
163 174 175 164
165 176 177 166
166 177 178 167
167 178 179 168
168 179 180 169
169 180 181 170
170 181 182 171
171 182 183 172
172 183 184 173
173 184 185 174
174 185 186 175
</DataArray>
<DataArray Name="offsets" type="Int32" format="ascii">
4
8
12
16
20
24
28
32
36
40
44
48
52
56
60
64
68
72
76
80
84
88
92
96
100
104
108
112
116
120
124
128
132
136
140
144
148
152
156
160
164
168
172
176
180
184
188
192
196
200
204
208
212
216
220
224
228
232
236
240
244
248
252
256
260
264
268
272
276
280
284
288
292
296
300
304
308
312
316
320
324
328
332
336
340
344
348
352
356
360
364
368
372
376
380
384
388
392
396
400
404
408
412
416
420
424
428
432
436
440
444
448
452
456
460
464
468
472
476
480
484
488
492
496
500
504
508
512
516
520
524
528
532
536
540
544
548
552
556
560
564
568
572
576
580
584
588
592
596
600
604
608
612
616
620
624
628
632
636
640
</DataArray>
<DataArray Name="types" type="UInt8" format="ascii">
9
9
9
9
9
9
9
9
9
9
9
9
9
9
9
9
9
9
9
9
9
9
9
9
9
9
9
9
9
9
9
9
9
9
9
9
9
9
9
9
9
9
9
9
9
9
9
9
9
9
9
9
9
9
9
9
9
9
9
9
9
9
9
9
9
9
9
9
9
9
9
9
9
9
9
9
9
9
9
9
9
9
9
9
9
9
9
9
9
9
9
9
9
9
9
9
9
9
9
9
9
9
9
9
9
9
9
9
9
9
9
9
9
9
9
9
9
9
9
9
9
9
9
9
9
9
9
9
9
9
9
9
9
9
9
9
9
9
9
9
9
9
9
9
9
9
9
9
9
9
9
9
9
9
9
9
9
9
9
9
</DataArray>
</Cells>
<PointData>
<DataArray Name="disp" type="Float64" NumberOfComponents="3" format="ascii">
0.000000e+00 0.000000e+00 0.000000e+00
0.000000e+00 -1.949307e-03 0.000000e+00
0.000000e+00 -4.583848e-03 0.000000e+00
0.000000e+00 -7.741763e-03 0.000000e+00
0.000000e+00 -1.127004e-02 0.000000e+00
0.000000e+00 -1.506613e-02 0.000000e+00
0.000000e+00 -1.902613e-02 0.000000e+00
0.000000e+00 -2.298316e-02 0.000000e+00
0.000000e+00 -2.670074e-02 0.000000e+00
0.000000e+00 -2.983957e-02 0.000000e+00
0.000000e+00 -3.262500e-02 0.000000e+00
0.000000e+00 0.000000e+00 0.000000e+00
8.805079e-04 -1.784434e-03 0.000000e+00
1.614223e-03 -4.193886e-03 0.000000e+00
2.126593e-03 -7.097904e-03 0.000000e+00
2.433479e-03 -1.039529e-02 0.000000e+00
2.588592e-03 -1.402734e-02 0.000000e+00
2.532271e-03 -1.789476e-02 0.000000e+00
2.228655e-03 -2.190282e-02 0.000000e+00
1.592164e-03 -2.591267e-02 0.000000e+00
5.239419e-04 -2.971027e-02 0.000000e+00
0.000000e+00 -3.262500e-02 0.000000e+00
0.000000e+00 0.000000e+00 0.000000e+00
1.565939e-03 -1.418252e-03 0.000000e+00
2.864157e-03 -3.191828e-03 0.000000e+00
3.832414e-03 -5.298139e-03 0.000000e+00
4.540046e-03 -7.783733e-03 0.000000e+00
5.011892e-03 -1.065665e-02 0.000000e+00
5.127219e-03 -1.394591e-02 0.000000e+00
4.993900e-03 -1.772214e-02 0.000000e+00
4.302809e-03 -2.205634e-02 0.000000e+00
3.022434e-03 -2.705971e-02 0.000000e+00
0.000000e+00 -3.262500e-02 0.000000e+00
0.000000e+00 0.000000e+00 0.000000e+00
1.922400e-03 -1.049811e-03 0.000000e+00
3.427355e-03 -2.161518e-03 0.000000e+00
4.595217e-03 -3.268480e-03 0.000000e+00
5.529876e-03 -4.339494e-03 0.000000e+00
6.277903e-03 -5.328123e-03 0.000000e+00
6.757596e-03 -6.192943e-03 0.000000e+00
6.964925e-03 -6.921072e-03 0.000000e+00
6.717266e-03 -7.431502e-03 0.000000e+00
5.768635e-03 -7.515596e-03 0.000000e+00
2.300997e-03 -6.897945e-03 0.000000e+00
0.000000e+00 0.000000e+00 0.000000e+00
2.019164e-03 -7.870205e-04 0.000000e+00
3.472082e-03 -1.535172e-03 0.000000e+00
4.564984e-03 -2.216655e-03 0.000000e+00
5.406404e-03 -2.817280e-03 0.000000e+00
6.017628e-03 -3.311682e-03 0.000000e+00
6.361846e-03 -3.669298e-03 0.000000e+00
6.386301e-03 -3.847999e-03 0.000000e+00
5.936181e-03 -3.809101e-03 0.000000e+00
4.619349e-03 -3.546375e-03 0.000000e+00
2.355892e-03 -3.568405e-03 0.000000e+00
0.000000e+00 0.000000e+00 0.000000e+00
1.956510e-03 -5.583443e-04 0.000000e+00
3.286806e-03 -1.038552e-03 0.000000e+00
4.270863e-03 -1.434878e-03 0.000000e+00
5.000145e-03 -1.740702e-03 0.000000e+00
5.487983e-03 -1.941762e-03 0.000000e+00
5.703345e-03 -2.020807e-03 0.000000e+00
5.600586e-03 -1.960724e-03 0.000000e+00
5.054030e-03 -1.771075e-03 0.000000e+00
3.992718e-03 -1.577400e-03 0.000000e+00
2.613169e-03 -1.515969e-03 0.000000e+00
0.000000e+00 0.000000e+00 0.000000e+00
1.785142e-03 -3.814160e-04 0.000000e+00
2.977049e-03 -6.671331e-04 0.000000e+00
3.845657e-03 -8.699003e-04 0.000000e+00
4.468380e-03 -9.877074e-04 0.000000e+00
4.855568e-03 -1.014758e-03 0.000000e+00
4.989202e-03 -9.462680e-04 0.000000e+00
4.830025e-03 -7.893707e-04 0.000000e+00
4.346939e-03 -5.818996e-04 0.000000e+00
3.580166e-03 -4.074564e-04 0.000000e+00
2.724537e-03 -3.593011e-04 0.000000e+00
0.000000e+00 0.000000e+00 0.000000e+00
1.555023e-03 -2.533811e-04 0.000000e+00
2.600064e-03 -4.037212e-04 0.000000e+00
3.359850e-03 -4.755480e-04 0.000000e+00
3.893913e-03 -4.758163e-04 0.000000e+00
4.209802e-03 -4.051264e-04 0.000000e+00
4.295545e-03 -2.655098e-04 0.000000e+00
4.143524e-03 -7.288200e-05 0.000000e+00
3.771071e-03 1.307660e-04 0.000000e+00
3.249886e-03 2.822358e-04 0.000000e+00
2.723397e-03 3.448601e-04 0.000000e+00
0.000000e+00 0.000000e+00 0.000000e+00
1.303121e-03 -1.625613e-04 0.000000e+00
2.203090e-03 -2.273437e-04 0.000000e+00
2.864518e-03 -2.221161e-04 0.000000e+00
3.324019e-03 -1.558498e-04 0.000000e+00
3.585717e-03 -2.993721e-05 0.000000e+00
3.652233e-03 1.456629e-04 0.000000e+00
3.537658e-03 3.472687e-04 0.000000e+00
3.278375e-03 5.378609e-04 0.000000e+00
2.939867e-03 6.804775e-04 0.000000e+00
2.629353e-03 7.567703e-04 0.000000e+00
0.000000e+00 0.000000e+00 0.000000e+00
1.054830e-03 -1.065820e-04 0.000000e+00
1.820114e-03 -1.226483e-04 0.000000e+00
2.388161e-03 -7.454676e-05 0.000000e+00
2.778611e-03 3.116327e-05 0.000000e+00
2.999899e-03 1.851538e-04 0.000000e+00
3.065726e-03 3.724229e-04 0.000000e+00
2.996932e-03 5.694997e-04 0.000000e+00
2.831317e-03 7.488629e-04 0.000000e+00
2.625359e-03 8.887181e-04 0.000000e+00
2.458543e-03 9.797732e-04 0.000000e+00
0.000000e+00 0.000000e+00 0.000000e+00
8.325168e-04 -7.454883e-05 0.000000e+00
1.467623e-03 -6.722815e-05 0.000000e+00
1.942947e-03 3.609530e-06 0.000000e+00
2.271415e-03 1.271637e-04 0.000000e+00
2.462586e-03 2.906191e-04 0.000000e+00
2.532787e-03 4.764226e-04 0.000000e+00
2.504098e-03 6.644064e-04 0.000000e+00
2.409699e-03 8.354706e-04 0.000000e+00
2.296081e-03 9.759872e-04 0.000000e+00
2.222961e-03 1.081452e-03 0.000000e+00
0.000000e+00 0.000000e+00 0.000000e+00
6.407603e-04 -5.745573e-05 0.000000e+00
1.151587e-03 -3.922273e-05 0.000000e+00
1.536777e-03 3.936530e-05 0.000000e+00
1.808177e-03 1.661901e-04 0.000000e+00
1.973225e-03 3.264386e-04 0.000000e+00
2.045916e-03 5.040070e-04 0.000000e+00
2.045925e-03 6.824978e-04 0.000000e+00
2.000917e-03 8.478606e-04 0.000000e+00
1.948548e-03 9.905980e-04 0.000000e+00
1.932959e-03 1.109658e-03 0.000000e+00
0.000000e+00 0.000000e+00 0.000000e+00
4.781415e-04 -4.798326e-05 0.000000e+00
8.713548e-04 -2.761718e-05 0.000000e+00
1.173611e-03 4.888673e-05 0.000000e+00
1.390078e-03 1.703221e-04 0.000000e+00
1.527475e-03 3.228404e-04 0.000000e+00
1.596137e-03 4.911602e-04 0.000000e+00
1.612005e-03 6.612998e-04 0.000000e+00
1.598106e-03 8.221732e-04 0.000000e+00
1.583072e-03 9.674171e-04 0.000000e+00
1.597911e-03 1.098289e-03 0.000000e+00
0.000000e+00 0.000000e+00 0.000000e+00
3.389691e-04 -4.535043e-05 0.000000e+00
6.249515e-04 -2.632963e-05 0.000000e+00
8.477088e-04 4.592456e-05 0.000000e+00
1.009857e-03 1.604453e-04 0.000000e+00
1.116190e-03 3.043047e-04 0.000000e+00
1.174209e-03 4.641014e-04 0.000000e+00
1.195446e-03 6.272221e-04 0.000000e+00
1.197964e-03 7.845329e-04 0.000000e+00
1.201662e-03 9.321762e-04 0.000000e+00
1.227701e-03 1.072421e-03 0.000000e+00
0.000000e+00 0.000000e+00 0.000000e+00
2.179635e-04 -4.326208e-05 0.000000e+00
4.041505e-04 -2.599528e-05 0.000000e+00
5.502523e-04 4.246685e-05 0.000000e+00
6.581008e-04 1.512590e-04 0.000000e+00
7.301719e-04 2.882206e-04 0.000000e+00
7.718926e-04 4.409269e-04 0.000000e+00
7.908903e-04 5.984950e-04 0.000000e+00
7.986620e-04 7.532542e-04 0.000000e+00
8.080380e-04 9.027550e-04 0.000000e+00
8.321200e-04 1.049743e-03 0.000000e+00
0.000000e+00 0.000000e+00 0.000000e+00
1.084563e-04 -3.989696e-05 0.000000e+00
1.988786e-04 -2.060746e-05 0.000000e+00
2.708847e-04 4.668112e-05 0.000000e+00
3.245453e-04 1.523147e-04 0.000000e+00
3.608266e-04 2.846907e-04 0.000000e+00
3.825951e-04 4.326635e-04 0.000000e+00
3.935820e-04 5.867123e-04 0.000000e+00
3.993706e-04 7.398456e-04 0.000000e+00
4.061286e-04 8.905205e-04 0.000000e+00
4.199333e-04 1.041548e-03 0.000000e+00
0.000000e+00 0.000000e+00 0.000000e+00
0.000000e+00 -2.540877e-05 0.000000e+00
0.000000e+00 -2.668291e-06 0.000000e+00
0.000000e+00 6.436209e-05 0.000000e+00
0.000000e+00 1.685818e-04 0.000000e+00
0.000000e+00 2.990605e-04 0.000000e+00
0.000000e+00 4.454883e-04 0.000000e+00
0.000000e+00 5.982249e-04 0.000000e+00
0.000000e+00 7.507894e-04 0.000000e+00
0.000000e+00 9.016547e-04 0.000000e+00
0.000000e+00 1.053914e-03 0.000000e+00
</DataArray>
<DataArray Name="shear" type="Float64" NumberOfComponents="1" format="ascii">
1.095517e-02
1.514287e-02
2.134984e-02
2.594133e-02
2.909765e-02
3.099522e-02
3.130748e-02
2.952550e-02
2.489292e-02
1.831629e-02
1.503198e-02
1.098578e-02
1.461425e-02
2.016923e-02
2.470131e-02
2.838637e-02
3.110984e-02
3.254520e-02
3.240133e-02
2.991189e-02
2.431851e-02
1.917605e-02
1.132669e-02
1.344394e-02
1.698724e-02
2.095953e-02
2.562339e-02
3.073592e-02
3.638185e-02
4.222791e-02
4.774067e-02
5.034100e-02
5.009630e-02
1.141241e-02
1.185885e-02
1.261678e-02
1.431395e-02
1.715690e-02
2.094940e-02
2.585133e-02
3.174870e-02
3.825841e-02
4.237704e-02
4.515867e-02
1.109791e-02
1.050216e-02
9.482141e-03
9.301173e-03
9.581136e-03
9.951321e-03
1.026205e-02
1.028031e-02
9.238918e-03
5.596528e-03
1.550911e-03
1.036067e-02
9.349419e-03
7.815141e-03
7.294017e-03
7.162499e-03
7.110066e-03
6.977261e-03
6.516956e-03
5.274619e-03
2.725529e-03
4.635867e-04
9.264533e-03
8.160349e-03
6.573867e-03
5.985477e-03
5.721918e-03
5.530566e-03
5.275520e-03
4.795462e-03
3.816390e-03
2.100759e-03
7.196096e-04
7.983403e-03
6.987955e-03
5.604340e-03
5.068594e-03
4.791899e-03
4.593161e-03
4.369892e-03
3.971261e-03
3.197871e-03
1.937354e-03
9.657318e-04
6.649412e-03
5.857011e-03
4.783400e-03
4.352263e-03
4.138925e-03
4.011432e-03
3.848732e-03
3.512725e-03
2.889655e-03
1.947322e-03
1.257518e-03
5.368071e-03
4.799738e-03
4.051425e-03
3.762756e-03
3.657667e-03
3.605528e-03
3.488017e-03
3.211646e-03
2.725464e-03
2.027859e-03
1.544355e-03
4.227042e-03
3.851151e-03
3.391037e-03
3.258632e-03
3.260270e-03
3.270314e-03
3.200343e-03
2.995198e-03
2.634145e-03
2.136830e-03
1.811742e-03
3.249008e-03
3.018261e-03
2.792111e-03
2.802977e-03
2.903496e-03
2.976860e-03
2.963449e-03
2.834206e-03
2.584761e-03
2.252384e-03
2.050413e-03
2.419954e-03
2.287944e-03
2.250137e-03
2.396634e-03
2.590817e-03
2.730928e-03
2.774724e-03
2.712974e-03
2.557721e-03
2.359572e-03
2.251762e-03
1.714193e-03
1.656047e-03
1.786646e-03
2.066334e-03
2.344166e-03
2.540835e-03
2.631586e-03
2.622621e-03
2.543414e-03
2.448668e-03
2.408797e-03
1.104525e-03
1.116217e-03
1.424880e-03
1.826641e-03
2.169147e-03
2.405150e-03
2.529449e-03
2.560327e-03
2.537430e-03
2.514607e-03
2.520208e-03
5.571969e-04
6.841950e-04
1.192731e-03
1.682256e-03
2.063711e-03
2.321816e-03
2.466995e-03
2.524194e-03
2.536299e-03
2.555486e-03
2.586443e-03
2.024658e-04
4.992273e-04
1.112830e-03
1.630703e-03
2.025212e-03
2.291813e-03
2.445297e-03
2.512266e-03
2.536529e-03
2.569046e-03
2.607636e-03
</DataArray>
<DataArray Name="stress" type="Float64" NumberOfComponents="9" format="ascii">
-9.533393e+04 3.992831e+03 0.000000e+00 3.992831e+03 -1.525296e+05 0.000000e+00 0.000000e+00 0.000000e+00 0.000000e+00
-8.707952e+04 3.907994e+03 0.000000e+00 3.907994e+03 -1.516673e+05 0.000000e+00 0.000000e+00 0.000000e+00 0.000000e+00
-8.356090e+04 4.198807e+03 0.000000e+00 4.198807e+03 -1.605205e+05 0.000000e+00 0.000000e+00 0.000000e+00 0.000000e+00
-8.315209e+04 4.429019e+03 0.000000e+00 4.429019e+03 -1.691743e+05 0.000000e+00 0.000000e+00 0.000000e+00 0.000000e+00
-8.490943e+04 4.668493e+03 0.000000e+00 4.668493e+03 -1.777012e+05 0.000000e+00 0.000000e+00 0.000000e+00 0.000000e+00
-8.816089e+04 4.879031e+03 0.000000e+00 4.879031e+03 -1.859515e+05 0.000000e+00 0.000000e+00 0.000000e+00 0.000000e+00
-9.246646e+04 4.992050e+03 0.000000e+00 4.992050e+03 -1.942069e+05 0.000000e+00 0.000000e+00 0.000000e+00 0.000000e+00
-9.767933e+04 4.503595e+03 0.000000e+00 4.503595e+03 -2.014957e+05 0.000000e+00 0.000000e+00 0.000000e+00 0.000000e+00
-1.048844e+05 2.161781e+03 0.000000e+00 2.161781e+03 -2.053964e+05 0.000000e+00 0.000000e+00 0.000000e+00 0.000000e+00
-1.171370e+05 -1.121798e+03 0.000000e+00 -1.121798e+03 -2.063243e+05 0.000000e+00 0.000000e+00 0.000000e+00 0.000000e+00
-1.248275e+05 -1.819223e+03 0.000000e+00 -1.819223e+03 -2.054069e+05 0.000000e+00 0.000000e+00 0.000000e+00 0.000000e+00
-9.388553e+04 1.079935e+04 0.000000e+00 1.079935e+04 -1.449523e+05 0.000000e+00 0.000000e+00 0.000000e+00 0.000000e+00
-8.656170e+04 1.001413e+04 0.000000e+00 1.001413e+04 -1.441788e+05 0.000000e+00 0.000000e+00 0.000000e+00 0.000000e+00
-8.344941e+04 9.661851e+03 0.000000e+00 9.661851e+03 -1.519482e+05 0.000000e+00 0.000000e+00 0.000000e+00 0.000000e+00
-8.343777e+04 9.634130e+03 0.000000e+00 9.634130e+03 -1.597542e+05 0.000000e+00 0.000000e+00 0.000000e+00 0.000000e+00
-8.560080e+04 9.957488e+03 0.000000e+00 9.957488e+03 -1.680626e+05 0.000000e+00 0.000000e+00 0.000000e+00 0.000000e+00
-8.885832e+04 1.024730e+04 0.000000e+00 1.024730e+04 -1.766260e+05 0.000000e+00 0.000000e+00 0.000000e+00 0.000000e+00
-9.300573e+04 1.044572e+04 0.000000e+00 1.044572e+04 -1.862874e+05 0.000000e+00 0.000000e+00 0.000000e+00 0.000000e+00
-9.725307e+04 9.313473e+03 0.000000e+00 9.313473e+03 -1.957287e+05 0.000000e+00 0.000000e+00 0.000000e+00 0.000000e+00
-1.030072e+05 5.672145e+03 0.000000e+00 5.672145e+03 -2.053648e+05 0.000000e+00 0.000000e+00 0.000000e+00 0.000000e+00
-1.118176e+05 -1.126520e+01 0.000000e+00 -1.126520e+01 -2.106832e+05 0.000000e+00 0.000000e+00 0.000000e+00 0.000000e+00
-1.280376e+05 -5.637402e+03 0.000000e+00 -5.637402e+03 -2.231545e+05 0.000000e+00 0.000000e+00 0.000000e+00 0.000000e+00
-9.033985e+04 1.763656e+04 0.000000e+00 1.763656e+04 -1.288505e+05 0.000000e+00 0.000000e+00 0.000000e+00 0.000000e+00
-8.494439e+04 1.679237e+04 0.000000e+00 1.679237e+04 -1.277704e+05 0.000000e+00 0.000000e+00 0.000000e+00 0.000000e+00
-8.299505e+04 1.670538e+04 0.000000e+00 1.670538e+04 -1.321243e+05 0.000000e+00 0.000000e+00 0.000000e+00 0.000000e+00
-8.423763e+04 1.774438e+04 0.000000e+00 1.774438e+04 -1.372511e+05 0.000000e+00 0.000000e+00 0.000000e+00 0.000000e+00
-8.787298e+04 1.942650e+04 0.000000e+00 1.942650e+04 -1.434678e+05 0.000000e+00 0.000000e+00 0.000000e+00 0.000000e+00
-9.256380e+04 2.131093e+04 0.000000e+00 2.131093e+04 -1.512668e+05 0.000000e+00 0.000000e+00 0.000000e+00 0.000000e+00
-9.850074e+04 2.322426e+04 0.000000e+00 2.322426e+04 -1.607258e+05 0.000000e+00 0.000000e+00 0.000000e+00 0.000000e+00
-1.041591e+05 2.380328e+04 0.000000e+00 2.380328e+04 -1.701310e+05 0.000000e+00 0.000000e+00 0.000000e+00 0.000000e+00
-1.116391e+05 2.361527e+04 0.000000e+00 2.361527e+04 -1.838557e+05 0.000000e+00 0.000000e+00 0.000000e+00 0.000000e+00
-1.240392e+05 2.028448e+04 0.000000e+00 2.028448e+04 -2.021321e+05 0.000000e+00 0.000000e+00 0.000000e+00 0.000000e+00
-1.471210e+05 1.449823e+04 0.000000e+00 1.449823e+04 -2.275406e+05 0.000000e+00 0.000000e+00 0.000000e+00 0.000000e+00
-8.645921e+04 1.987392e+04 0.000000e+00 1.987392e+04 -1.132847e+05 0.000000e+00 0.000000e+00 0.000000e+00 0.000000e+00
-8.331433e+04 1.915188e+04 0.000000e+00 1.915188e+04 -1.121683e+05 0.000000e+00 0.000000e+00 0.000000e+00 0.000000e+00
-8.230684e+04 1.906689e+04 0.000000e+00 1.906689e+04 -1.126943e+05 0.000000e+00 0.000000e+00 0.000000e+00 0.000000e+00
-8.328178e+04 2.013809e+04 0.000000e+00 2.013809e+04 -1.122382e+05 0.000000e+00 0.000000e+00 0.000000e+00 0.000000e+00
-8.524687e+04 2.141297e+04 0.000000e+00 2.141297e+04 -1.108108e+05 0.000000e+00 0.000000e+00 0.000000e+00 0.000000e+00
-8.739211e+04 2.285399e+04 0.000000e+00 2.285399e+04 -1.086395e+05 0.000000e+00 0.000000e+00 0.000000e+00 0.000000e+00
-8.938452e+04 2.370922e+04 0.000000e+00 2.370922e+04 -1.051175e+05 0.000000e+00 0.000000e+00 0.000000e+00 0.000000e+00
-9.063384e+04 2.381766e+04 0.000000e+00 2.381766e+04 -1.003795e+05 0.000000e+00 0.000000e+00 0.000000e+00 0.000000e+00
-9.146080e+04 2.371386e+04 0.000000e+00 2.371386e+04 -9.387983e+04 0.000000e+00 0.000000e+00 0.000000e+00 0.000000e+00
-8.722728e+04 1.895893e+04 0.000000e+00 1.895893e+04 -8.146723e+04 0.000000e+00 0.000000e+00 0.000000e+00 0.000000e+00
-7.788393e+04 1.544558e+04 0.000000e+00 1.544558e+04 -7.332532e+04 0.000000e+00 0.000000e+00 0.000000e+00 0.000000e+00
-8.279199e+04 1.981452e+04 0.000000e+00 1.981452e+04 -1.011509e+05 0.000000e+00 0.000000e+00 0.000000e+00 0.000000e+00
-8.221421e+04 1.915561e+04 0.000000e+00 1.915561e+04 -1.006335e+05 0.000000e+00 0.000000e+00 0.000000e+00 0.000000e+00
-8.330444e+04 1.860122e+04 0.000000e+00 1.860122e+04 -1.000643e+05 0.000000e+00 0.000000e+00 0.000000e+00 0.000000e+00
-8.571575e+04 1.895462e+04 0.000000e+00 1.895462e+04 -9.872165e+04 0.000000e+00 0.000000e+00 0.000000e+00 0.000000e+00
-8.850577e+04 1.960373e+04 0.000000e+00 1.960373e+04 -9.655935e+04 0.000000e+00 0.000000e+00 0.000000e+00 0.000000e+00
-9.140362e+04 2.003713e+04 0.000000e+00 2.003713e+04 -9.346279e+04 0.000000e+00 0.000000e+00 0.000000e+00 0.000000e+00
-9.369476e+04 1.994071e+04 0.000000e+00 1.994071e+04 -8.915404e+04 0.000000e+00 0.000000e+00 0.000000e+00 0.000000e+00
-9.552508e+04 1.886868e+04 0.000000e+00 1.886868e+04 -8.334444e+04 0.000000e+00 0.000000e+00 0.000000e+00 0.000000e+00
-9.548453e+04 1.553455e+04 0.000000e+00 1.553455e+04 -7.544279e+04 0.000000e+00 0.000000e+00 0.000000e+00 0.000000e+00
-8.826217e+04 7.785115e+03 0.000000e+00 7.785115e+03 -6.810395e+04 0.000000e+00 0.000000e+00 0.000000e+00 0.000000e+00
-6.589777e+04 1.496291e+03 0.000000e+00 1.496291e+03 -5.834381e+04 0.000000e+00 0.000000e+00 0.000000e+00 0.000000e+00
-7.883234e+04 1.882109e+04 0.000000e+00 1.882109e+04 -9.097640e+04 0.000000e+00 0.000000e+00 0.000000e+00 0.000000e+00
-8.051648e+04 1.819002e+04 0.000000e+00 1.819002e+04 -9.083587e+04 0.000000e+00 0.000000e+00 0.000000e+00 0.000000e+00
-8.312894e+04 1.715407e+04 0.000000e+00 1.715407e+04 -8.941874e+04 0.000000e+00 0.000000e+00 0.000000e+00 0.000000e+00
-8.616320e+04 1.677143e+04 0.000000e+00 1.677143e+04 -8.739599e+04 0.000000e+00 0.000000e+00 0.000000e+00 0.000000e+00
-8.888866e+04 1.645826e+04 0.000000e+00 1.645826e+04 -8.476252e+04 0.000000e+00 0.000000e+00 0.000000e+00 0.000000e+00
-9.122027e+04 1.580530e+04 0.000000e+00 1.580530e+04 -8.130677e+04 0.000000e+00 0.000000e+00 0.000000e+00 0.000000e+00
-9.271418e+04 1.441522e+04 0.000000e+00 1.441522e+04 -7.692002e+04 0.000000e+00 0.000000e+00 0.000000e+00 0.000000e+00
-9.301278e+04 1.179150e+04 0.000000e+00 1.179150e+04 -7.171155e+04 0.000000e+00 0.000000e+00 0.000000e+00 0.000000e+00
-9.027931e+04 7.257443e+03 0.000000e+00 7.257443e+03 -6.642741e+04 0.000000e+00 0.000000e+00 0.000000e+00 0.000000e+00
-7.852094e+04 1.661818e+03 0.000000e+00 1.661818e+03 -6.231988e+04 0.000000e+00 0.000000e+00 0.000000e+00 0.000000e+00
-6.134032e+04 -8.126871e+02 0.000000e+00 -8.126871e+02 -5.827766e+04 0.000000e+00 0.000000e+00 0.000000e+00 0.000000e+00
-7.502491e+04 1.731170e+04 0.000000e+00 1.731170e+04 -8.268827e+04 0.000000e+00 0.000000e+00 0.000000e+00 0.000000e+00
-7.851751e+04 1.669286e+04 0.000000e+00 1.669286e+04 -8.281123e+04 0.000000e+00 0.000000e+00 0.000000e+00 0.000000e+00
-8.231039e+04 1.522109e+04 0.000000e+00 1.522109e+04 -8.104782e+04 0.000000e+00 0.000000e+00 0.000000e+00 0.000000e+00
-8.556423e+04 1.422697e+04 0.000000e+00 1.422697e+04 -7.893888e+04 0.000000e+00 0.000000e+00 0.000000e+00 0.000000e+00
-8.807570e+04 1.314609e+04 0.000000e+00 1.314609e+04 -7.631672e+04 0.000000e+00 0.000000e+00 0.000000e+00 0.000000e+00
-8.980375e+04 1.165505e+04 0.000000e+00 1.165505e+04 -7.314244e+04 0.000000e+00 0.000000e+00 0.000000e+00 0.000000e+00
-9.040470e+04 9.517370e+03 0.000000e+00 9.517370e+03 -6.952628e+04 0.000000e+00 0.000000e+00 0.000000e+00 0.000000e+00
-8.927588e+04 6.485891e+03 0.000000e+00 6.485891e+03 -6.585034e+04 0.000000e+00 0.000000e+00 0.000000e+00 0.000000e+00
-8.478712e+04 2.631653e+03 0.000000e+00 2.631653e+03 -6.264605e+04 0.000000e+00 0.000000e+00 0.000000e+00 0.000000e+00
-7.447339e+04 -4.308493e+02 0.000000e+00 -4.308493e+02 -6.058380e+04 0.000000e+00 0.000000e+00 0.000000e+00 0.000000e+00
-6.320744e+04 -1.399873e+03 0.000000e+00 -1.399873e+03 -5.862627e+04 0.000000e+00 0.000000e+00 0.000000e+00 0.000000e+00
-7.167573e+04 1.549222e+04 0.000000e+00 1.549222e+04 -7.631834e+04 0.000000e+00 0.000000e+00 0.000000e+00 0.000000e+00
-7.638632e+04 1.491783e+04 0.000000e+00 1.491783e+04 -7.655410e+04 0.000000e+00 0.000000e+00 0.000000e+00 0.000000e+00
-8.095884e+04 1.319836e+04 0.000000e+00 1.319836e+04 -7.471658e+04 0.000000e+00 0.000000e+00 0.000000e+00 0.000000e+00
-8.425704e+04 1.173773e+04 0.000000e+00 1.173773e+04 -7.272754e+04 0.000000e+00 0.000000e+00 0.000000e+00 0.000000e+00
-8.651598e+04 1.015099e+04 0.000000e+00 1.015099e+04 -7.042934e+04 0.000000e+00 0.000000e+00 0.000000e+00 0.000000e+00
-8.771270e+04 8.245962e+03 0.000000e+00 8.245962e+03 -6.790853e+04 0.000000e+00 0.000000e+00 0.000000e+00 0.000000e+00
-8.759494e+04 5.894247e+03 0.000000e+00 5.894247e+03 -6.530133e+04 0.000000e+00 0.000000e+00 0.000000e+00 0.000000e+00
-8.562548e+04 3.086429e+03 0.000000e+00 3.086429e+03 -6.286095e+04 0.000000e+00 0.000000e+00 0.000000e+00 0.000000e+00
-8.108947e+04 3.051249e+02 0.000000e+00 3.051249e+02 -6.101386e+04 0.000000e+00 0.000000e+00 0.000000e+00 0.000000e+00
-7.314005e+04 -1.162683e+03 0.000000e+00 -1.162683e+03 -6.009282e+04 0.000000e+00 0.000000e+00 0.000000e+00 0.000000e+00
-6.569264e+04 -1.281898e+03 0.000000e+00 -1.281898e+03 -5.907258e+04 0.000000e+00 0.000000e+00 0.000000e+00 0.000000e+00
-6.901010e+04 1.366485e+04 0.000000e+00 1.366485e+04 -7.162797e+04 0.000000e+00 0.000000e+00 0.000000e+00 0.000000e+00
-7.431441e+04 1.308696e+04 0.000000e+00 1.308696e+04 -7.187976e+04 0.000000e+00 0.000000e+00 0.000000e+00 0.000000e+00
-7.926939e+04 1.128890e+04 0.000000e+00 1.128890e+04 -7.012223e+04 0.000000e+00 0.000000e+00 0.000000e+00 0.000000e+00
-8.251820e+04 9.561535e+03 0.000000e+00 9.561535e+03 -6.837055e+04 0.000000e+00 0.000000e+00 0.000000e+00 0.000000e+00
-8.453638e+04 7.733444e+03 0.000000e+00 7.733444e+03 -6.652250e+04 0.000000e+00 0.000000e+00 0.000000e+00 0.000000e+00
-8.533749e+04 5.692387e+03 0.000000e+00 5.692387e+03 -6.462715e+04 0.000000e+00 0.000000e+00 0.000000e+00 0.000000e+00
-8.480109e+04 3.402452e+03 0.000000e+00 3.402452e+03 -6.278097e+04 0.000000e+00 0.000000e+00 0.000000e+00 0.000000e+00
-8.270532e+04 1.069928e+03 0.000000e+00 1.069928e+03 -6.124715e+04 0.000000e+00 0.000000e+00 0.000000e+00 0.000000e+00
-7.888149e+04 -7.737831e+02 0.000000e+00 -7.737831e+02 -6.028225e+04 0.000000e+00 0.000000e+00 0.000000e+00 0.000000e+00
-7.310214e+04 -1.338018e+03 0.000000e+00 -1.338018e+03 -5.992723e+04 0.000000e+00 0.000000e+00 0.000000e+00 0.000000e+00
-6.816261e+04 -1.123409e+03 0.000000e+00 -1.123409e+03 -5.934034e+04 0.000000e+00 0.000000e+00 0.000000e+00 0.000000e+00
-6.709026e+04 1.195761e+04 0.000000e+00 1.195761e+04 -6.835757e+04 0.000000e+00 0.000000e+00 0.000000e+00 0.000000e+00
-7.236617e+04 1.136311e+04 0.000000e+00 1.136311e+04 -6.850988e+04 0.000000e+00 0.000000e+00 0.000000e+00 0.000000e+00
-7.736045e+04 9.556788e+03 0.000000e+00 9.556788e+03 -6.689466e+04 0.000000e+00 0.000000e+00 0.000000e+00 0.000000e+00
-8.053986e+04 7.739009e+03 0.000000e+00 7.739009e+03 -6.539614e+04 0.000000e+00 0.000000e+00 0.000000e+00 0.000000e+00
-8.237864e+04 5.848490e+03 0.000000e+00 5.848490e+03 -6.392294e+04 0.000000e+00 0.000000e+00 0.000000e+00 0.000000e+00
-8.296552e+04 3.825908e+03 0.000000e+00 3.825908e+03 -6.250621e+04 0.000000e+00 0.000000e+00 0.000000e+00 0.000000e+00
-8.234473e+04 1.782226e+03 0.000000e+00 1.782226e+03 -6.126319e+04 0.000000e+00 0.000000e+00 0.000000e+00 0.000000e+00
-8.057566e+04 -1.551435e+01 0.000000e+00 -1.551435e+01 -6.037493e+04 0.000000e+00 0.000000e+00 0.000000e+00 0.000000e+00
-7.765062e+04 -1.200375e+03 0.000000e+00 -1.200375e+03 -5.994073e+04 0.000000e+00 0.000000e+00 0.000000e+00 0.000000e+00
-7.361198e+04 -1.300661e+03 0.000000e+00 -1.300661e+03 -5.986348e+04 0.000000e+00 0.000000e+00 0.000000e+00 0.000000e+00
-7.038109e+04 -9.476414e+02 0.000000e+00 -9.476414e+02 -5.954557e+04 0.000000e+00 0.000000e+00 0.000000e+00 0.000000e+00
-6.564280e+04 1.020181e+04 0.000000e+00 1.020181e+04 -6.621658e+04 0.000000e+00 0.000000e+00 0.000000e+00 0.000000e+00
-7.056920e+04 9.636312e+03 0.000000e+00 9.636312e+03 -6.621248e+04 0.000000e+00 0.000000e+00 0.000000e+00 0.000000e+00
-7.541815e+04 7.963364e+03 0.000000e+00 7.963364e+03 -6.469639e+04 0.000000e+00 0.000000e+00 0.000000e+00 0.000000e+00
-7.852741e+04 6.208967e+03 0.000000e+00 6.208967e+03 -6.339488e+04 0.000000e+00 0.000000e+00 0.000000e+00 0.000000e+00
-8.025118e+04 4.373154e+03 0.000000e+00 4.373154e+03 -6.218554e+04 0.000000e+00 0.000000e+00 0.000000e+00 0.000000e+00
-8.078791e+04 2.524335e+03 0.000000e+00 2.524335e+03 -6.113705e+04 0.000000e+00 0.000000e+00 0.000000e+00 0.000000e+00
-8.035527e+04 8.213795e+02 0.000000e+00 8.213795e+02 -6.036069e+04 0.000000e+00 0.000000e+00 0.000000e+00 0.000000e+00
-7.907052e+04 -5.283970e+02 0.000000e+00 -5.283970e+02 -5.989820e+04 0.000000e+00 0.000000e+00 0.000000e+00 0.000000e+00
-7.698902e+04 -1.287201e+03 0.000000e+00 -1.287201e+03 -5.976680e+04 0.000000e+00 0.000000e+00 0.000000e+00 0.000000e+00
-7.431952e+04 -1.159119e+03 0.000000e+00 -1.159119e+03 -5.983516e+04 0.000000e+00 0.000000e+00 0.000000e+00 0.000000e+00
-7.231316e+04 -7.810343e+02 0.000000e+00 -7.810343e+02 -5.967548e+04 0.000000e+00 0.000000e+00 0.000000e+00 0.000000e+00
-6.459783e+04 8.454506e+03 0.000000e+00 8.454506e+03 -6.486186e+04 0.000000e+00 0.000000e+00 0.000000e+00 0.000000e+00
-6.899624e+04 7.936528e+03 0.000000e+00 7.936528e+03 -6.471355e+04 0.000000e+00 0.000000e+00 0.000000e+00 0.000000e+00
-7.360264e+04 6.484270e+03 0.000000e+00 6.484270e+03 -6.326330e+04 0.000000e+00 0.000000e+00 0.000000e+00 0.000000e+00
-7.659888e+04 4.883059e+03 0.000000e+00 4.883059e+03 -6.206984e+04 0.000000e+00 0.000000e+00 0.000000e+00 0.000000e+00
-7.829485e+04 3.227110e+03 0.000000e+00 3.227110e+03 -6.107207e+04 0.000000e+00 0.000000e+00 0.000000e+00 0.000000e+00
-7.894371e+04 1.653801e+03 0.000000e+00 1.653801e+03 -6.031838e+04 0.000000e+00 0.000000e+00 0.000000e+00 0.000000e+00
-7.880166e+04 2.963059e+02 0.000000e+00 2.963059e+02 -5.984069e+04 0.000000e+00 0.000000e+00 0.000000e+00 0.000000e+00
-7.800526e+04 -7.088987e+02 0.000000e+00 -7.088987e+02 -5.964371e+04 0.000000e+00 0.000000e+00 0.000000e+00 0.000000e+00
-7.666480e+04 -1.194063e+03 0.000000e+00 -1.194063e+03 -5.968027e+04 0.000000e+00 0.000000e+00 0.000000e+00 0.000000e+00
-7.504752e+04 -9.698461e+02 0.000000e+00 -9.698461e+02 -5.982232e+04 0.000000e+00 0.000000e+00 0.000000e+00 0.000000e+00
-7.391445e+04 -6.148135e+02 0.000000e+00 -6.148135e+02 -5.977334e+04 0.000000e+00 0.000000e+00 0.000000e+00 0.000000e+00
-6.383198e+04 6.659413e+03 0.000000e+00 6.659413e+03 -6.398475e+04 0.000000e+00 0.000000e+00 0.000000e+00 0.000000e+00
-6.770862e+04 6.245056e+03 0.000000e+00 6.245056e+03 -6.374408e+04 0.000000e+00 0.000000e+00 0.000000e+00 0.000000e+00
-7.201202e+04 5.071231e+03 0.000000e+00 5.071231e+03 -6.237143e+04 0.000000e+00 0.000000e+00 0.000000e+00 0.000000e+00
-7.490415e+04 3.705052e+03 0.000000e+00 3.705052e+03 -6.125538e+04 0.000000e+00 0.000000e+00 0.000000e+00 0.000000e+00
-7.663181e+04 2.335698e+03 0.000000e+00 2.335698e+03 -6.040566e+04 0.000000e+00 0.000000e+00 0.000000e+00 0.000000e+00
-7.745625e+04 1.076020e+03 0.000000e+00 1.076020e+03 -5.984467e+04 0.000000e+00 0.000000e+00 0.000000e+00 0.000000e+00
-7.761303e+04 3.468026e+01 0.000000e+00 3.468026e+01 -5.955906e+04 0.000000e+00 0.000000e+00 0.000000e+00 0.000000e+00
-7.725497e+04 -6.956273e+02 0.000000e+00 -6.956273e+02 -5.951993e+04 0.000000e+00 0.000000e+00 0.000000e+00 0.000000e+00
-7.653434e+04 -1.002532e+03 0.000000e+00 -1.002532e+03 -5.964696e+04 0.000000e+00 0.000000e+00 0.000000e+00 0.000000e+00
-7.570097e+04 -7.651113e+02 0.000000e+00 -7.651113e+02 -5.982905e+04 0.000000e+00 0.000000e+00 0.000000e+00 0.000000e+00
-7.518131e+04 -4.641805e+02 0.000000e+00 -4.641805e+02 -5.986253e+04 0.000000e+00 0.000000e+00 0.000000e+00 0.000000e+00
-6.330150e+04 4.907745e+03 0.000000e+00 4.907745e+03 -6.347153e+04 0.000000e+00 0.000000e+00 0.000000e+00 0.000000e+00
-6.672934e+04 4.580844e+03 0.000000e+00 4.580844e+03 -6.315947e+04 0.000000e+00 0.000000e+00 0.000000e+00 0.000000e+00
-7.070472e+04 3.691522e+03 0.000000e+00 3.691522e+03 -6.181980e+04 0.000000e+00 0.000000e+00 0.000000e+00 0.000000e+00
-7.353298e+04 2.647549e+03 0.000000e+00 2.647549e+03 -6.077220e+04 0.000000e+00 0.000000e+00 0.000000e+00 0.000000e+00
-7.532150e+04 1.612373e+03 0.000000e+00 1.612373e+03 -6.003709e+04 0.000000e+00 0.000000e+00 0.000000e+00 0.000000e+00
-7.632166e+04 6.813972e+02 0.000000e+00 6.813972e+02 -5.960100e+04 0.000000e+00 0.000000e+00 0.000000e+00 0.000000e+00
-7.674057e+04 -7.056691e+01 0.000000e+00 -7.056691e+01 -5.943020e+04 0.000000e+00 0.000000e+00 0.000000e+00 0.000000e+00
-7.674522e+04 -5.756531e+02 0.000000e+00 -5.756531e+02 -5.946584e+04 0.000000e+00 0.000000e+00 0.000000e+00 0.000000e+00
-7.649825e+04 -7.636766e+02 0.000000e+00 -7.636766e+02 -5.964507e+04 0.000000e+00 0.000000e+00 0.000000e+00 0.000000e+00
-7.622871e+04 -5.603633e+02 0.000000e+00 -5.603633e+02 -5.984077e+04 0.000000e+00 0.000000e+00 0.000000e+00 0.000000e+00
-7.613457e+04 -3.314872e+02 0.000000e+00 -3.314872e+02 -5.992594e+04 0.000000e+00 0.000000e+00 0.000000e+00 0.000000e+00
-6.291268e+04 3.173279e+03 0.000000e+00 3.173279e+03 -6.313741e+04 0.000000e+00 0.000000e+00 0.000000e+00 0.000000e+00
-6.603080e+04 2.952771e+03 0.000000e+00 2.952771e+03 -6.276661e+04 0.000000e+00 0.000000e+00 0.000000e+00 0.000000e+00
-6.976910e+04 2.364910e+03 0.000000e+00 2.364910e+03 -6.147581e+04 0.000000e+00 0.000000e+00 0.000000e+00 0.000000e+00
-7.254576e+04 1.684206e+03 0.000000e+00 1.684206e+03 -6.048930e+04 0.000000e+00 0.000000e+00 0.000000e+00 0.000000e+00
-7.439405e+04 1.008373e+03 0.000000e+00 1.008373e+03 -5.983485e+04 0.000000e+00 0.000000e+00 0.000000e+00 0.000000e+00
-7.553030e+04 3.996127e+02 0.000000e+00 3.996127e+02 -5.948500e+04 0.000000e+00 0.000000e+00 0.000000e+00 0.000000e+00
-7.614734e+04 -8.697330e+01 0.000000e+00 -8.697330e+01 -5.938545e+04 0.000000e+00 0.000000e+00 0.000000e+00 0.000000e+00
-7.641790e+04 -4.038918e+02 0.000000e+00 -4.038918e+02 -5.946417e+04 0.000000e+00 0.000000e+00 0.000000e+00 0.000000e+00
-7.650577e+04 -5.094930e+02 0.000000e+00 -5.094930e+02 -5.965850e+04 0.000000e+00 0.000000e+00 0.000000e+00 0.000000e+00
-7.661266e+04 -3.630853e+02 0.000000e+00 -3.630853e+02 -5.984666e+04 0.000000e+00 0.000000e+00 0.000000e+00 0.000000e+00
-7.679194e+04 -2.104989e+02 0.000000e+00 -2.104989e+02 -5.996846e+04 0.000000e+00 0.000000e+00 0.000000e+00 0.000000e+00
-6.265865e+04 1.428964e+03 0.000000e+00 1.428964e+03 -6.276071e+04 0.000000e+00 0.000000e+00 0.000000e+00 0.000000e+00
-6.564226e+04 1.370745e+03 0.000000e+00 1.370745e+03 -6.241003e+04 0.000000e+00 0.000000e+00 0.000000e+00 0.000000e+00
-6.923838e+04 1.121083e+03 0.000000e+00 1.121083e+03 -6.122364e+04 0.000000e+00 0.000000e+00 0.000000e+00 0.000000e+00
-7.196385e+04 8.084056e+02 0.000000e+00 8.084056e+02 -6.033187e+04 0.000000e+00 0.000000e+00 0.000000e+00 0.000000e+00
-7.384808e+04 4.849713e+02 0.000000e+00 4.849713e+02 -5.973821e+04 0.000000e+00 0.000000e+00 0.000000e+00 0.000000e+00
-7.506452e+04 1.870278e+02 0.000000e+00 1.870278e+02 -5.943288e+04 0.000000e+00 0.000000e+00 0.000000e+00 0.000000e+00
-7.580363e+04 -5.372453e+01 0.000000e+00 -5.372453e+01 -5.936588e+04 0.000000e+00 0.000000e+00 0.000000e+00 0.000000e+00
-7.623488e+04 -2.082011e+02 0.000000e+00 -2.082011e+02 -5.947586e+04 0.000000e+00 0.000000e+00 0.000000e+00 0.000000e+00
-7.652499e+04 -2.545115e+02 0.000000e+00 -2.545115e+02 -5.967216e+04 0.000000e+00 0.000000e+00 0.000000e+00 0.000000e+00
-7.684187e+04 -1.777375e+02 0.000000e+00 -1.777375e+02 -5.985495e+04 0.000000e+00 0.000000e+00 0.000000e+00 0.000000e+00
-7.716802e+04 -1.008480e+02 0.000000e+00 -1.008480e+02 -5.999470e+04 0.000000e+00 0.000000e+00 0.000000e+00 0.000000e+00
-6.245928e+04 2.452635e+02 0.000000e+00 2.452635e+02 -6.231495e+04 0.000000e+00 0.000000e+00 0.000000e+00 0.000000e+00
-6.548384e+04 3.266459e+02 0.000000e+00 3.266459e+02 -6.210220e+04 0.000000e+00 0.000000e+00 0.000000e+00 0.000000e+00
-6.907008e+04 3.102134e+02 0.000000e+00 3.102134e+02 -6.110319e+04 0.000000e+00 0.000000e+00 0.000000e+00 0.000000e+00
-7.177427e+04 2.255726e+02 0.000000e+00 2.255726e+02 -6.028360e+04 0.000000e+00 0.000000e+00 0.000000e+00 0.000000e+00
-7.367070e+04 1.185093e+02 0.000000e+00 1.185093e+02 -5.971351e+04 0.000000e+00 0.000000e+00 0.000000e+00 0.000000e+00
-7.491063e+04 1.605716e+01 0.000000e+00 1.605716e+01 -5.941656e+04 0.000000e+00 0.000000e+00 0.000000e+00 0.000000e+00
-7.569038e+04 -7.168076e+01 0.000000e+00 -7.168076e+01 -5.935707e+04 0.000000e+00 0.000000e+00 0.000000e+00 0.000000e+00
-7.617630e+04 -1.293460e+02 0.000000e+00 -1.293460e+02 -5.947905e+04 0.000000e+00 0.000000e+00 0.000000e+00 0.000000e+00
-7.653421e+04 -1.461617e+02 0.000000e+00 -1.461617e+02 -5.967905e+04 0.000000e+00 0.000000e+00 0.000000e+00 0.000000e+00
-7.691855e+04 -1.156204e+02 0.000000e+00 -1.156204e+02 -5.986202e+04 0.000000e+00 0.000000e+00 0.000000e+00 0.000000e+00
-7.728853e+04 -8.499484e+01 0.000000e+00 -8.499484e+01 -6.000504e+04 0.000000e+00 0.000000e+00 0.000000e+00 0.000000e+00
</DataArray>
<DataArray Name="vol_eps" type="Float64" NumberOfComponents="1" format="ascii">
-8.211524e-03
-7.399571e-03
-7.194212e-03
-7.185518e-03
-7.493019e-03
-8.069771e-03
-8.934568e-03
-1.004073e-02
-1.135259e-02
-1.285521e-02
-1.346379e-02
-7.633686e-03
-6.911818e-03
-6.754073e-03
-6.772232e-03
-7.029696e-03
-7.519254e-03
-8.304129e-03
-9.276720e-03
-1.061070e-02
-1.213573e-02
-1.455911e-02
-6.346025e-03
-5.798487e-03
-5.696540e-03
-5.779770e-03
-5.950782e-03
-6.153236e-03
-6.510965e-03
-7.038132e-03
-7.824410e-03
-9.365437e-03
-1.250726e-02
-5.019342e-03
-4.703036e-03
-4.611953e-03
-4.500068e-03
-4.258386e-03
-3.808751e-03
-3.157719e-03
-2.382877e-03
-1.112560e-03
9.731412e-04
3.009935e-03
-3.949301e-03
-3.909843e-03
-4.009906e-03
-4.090372e-03
-4.117089e-03
-4.087613e-03
-3.937842e-03
-3.666943e-03
-3.169212e-03
-2.293703e-03
-2.172248e-04
-3.014847e-03
-3.188983e-03
-3.360251e-03
-3.449660e-03
-3.462877e-03
-3.394274e-03
-3.207895e-03
-2.888475e-03
-2.370354e-03
-1.331914e-03
5.419597e-05
-2.248979e-03
-2.568391e-03
-2.784210e-03
-2.880542e-03
-2.882800e-03
-2.792927e-03
-2.597137e-03
-2.277547e-03
-1.762286e-03
-9.525710e-04
-1.047651e-04
-1.657008e-03
-2.050242e-03
-2.292875e-03
-2.394709e-03
-2.398839e-03
-2.312899e-03
-2.128941e-03
-1.830914e-03
-1.406434e-03
-8.333931e-04
-2.963521e-04
-1.213402e-03
-1.630467e-03
-1.882830e-03
-1.992897e-03
-2.007423e-03
-1.933390e-03
-1.771232e-03
-1.528742e-03
-1.212170e-03
-8.199038e-04
-4.707620e-04
-9.019651e-04
-1.298076e-03
-1.546443e-03
-1.663608e-03
-1.687924e-03
-1.632214e-03
-1.507069e-03
-1.329620e-03
-1.108913e-03
-8.479476e-04
-6.239801e-04
-6.921508e-04
-1.041291e-03
-1.276693e-03
-1.396958e-03
-1.429902e-03
-1.396103e-03
-1.314703e-03
-1.198057e-03
-1.054230e-03
-8.907937e-04
-7.541390e-04
-5.562470e-04
-8.511769e-04
-1.066295e-03
-1.182858e-03
-1.226935e-03
-1.218880e-03
-1.176624e-03
-1.110737e-03
-1.027822e-03
-9.359554e-04
-8.615196e-04
-4.692264e-04
-7.157620e-04
-9.080844e-04
-1.019503e-03
-1.073176e-03
-1.088213e-03
-1.078946e-03
-1.053783e-03
-1.017369e-03
-9.774317e-04
-9.471726e-04
-4.199687e-04
-6.248909e-04
-7.917238e-04
-9.010157e-04
-9.648358e-04
-9.988423e-04
-1.013914e-03
-1.017622e-03
-1.014747e-03
-1.011194e-03
-1.011197e-03
-3.860284e-04
-5.623346e-04
-7.137043e-04
-8.217563e-04
-8.935381e-04
-9.415364e-04
-9.737581e-04
-9.966748e-04
-1.015773e-03
-1.035477e-03
-1.055074e-03
-3.516954e-04
-5.190173e-04
-6.662681e-04
-7.760148e-04
-8.535197e-04
-9.095385e-04
-9.512822e-04
-9.858285e-04
-1.017643e-03
-1.050242e-03
-1.080402e-03
-3.118806e-04
-4.904119e-04
-6.489031e-04
-7.616103e-04
-8.412073e-04
-8.992513e-04
-9.437997e-04
-9.823337e-04
-1.018605e-03
-1.055461e-03
-1.088590e-03
</DataArray>
</PointData>
</Piece>
</UnstructuredGrid>
</VTKFile>
