<?xml version="1.0"?>
<VTKFile type="UnstructuredGrid" version="0.1">
<UnstructuredGrid>
<FieldData>
<DataArray Name="TIME" type="Float64" format="ascii" NumberOfTuples="1">
0.000000e+00
</DataArray>
</FieldData>
<FieldData>
<DataArray Name="CYCLE" type="Int32" format="ascii" NumberOfTuples="1">
0
</DataArray>
</FieldData>
<Piece NumberOfPoints="187" NumberOfCells="160">
<Points>
<DataArray NumberOfComponents="3" type="Float64" format="ascii">
0.000000e+00 0.000000e+00 0.000000e+00
0.000000e+00 1.964191e-01 0.000000e+00
0.000000e+00 3.901972e-01 0.000000e+00
0.000000e+00 5.806602e-01 0.000000e+00
0.000000e+00 7.687913e-01 0.000000e+00
0.000000e+00 9.558898e-01 0.000000e+00
0.000000e+00 1.143130e+00 0.000000e+00
0.000000e+00 1.331519e+00 0.000000e+00
0.000000e+00 1.522520e+00 0.000000e+00
0.000000e+00 1.717520e+00 0.000000e+00
0.000000e+00 1.913375e+00 0.000000e+00
2.250000e-01 0.000000e+00 0.000000e+00
2.274546e-01 1.962119e-01 0.000000e+00
2.318293e-01 3.903383e-01 0.000000e+00
2.354857e-01 5.821720e-01 0.000000e+00
2.376693e-01 7.721285e-01 0.000000e+00
2.381889e-01 9.607328e-01 0.000000e+00
2.375147e-01 1.148908e+00 0.000000e+00
2.353294e-01 1.337468e+00 0.000000e+00
2.305353e-01 1.526772e+00 0.000000e+00
2.255993e-01 1.718036e+00 0.000000e+00
2.250000e-01 1.913375e+00 0.000000e+00
4.500000e-01 0.000000e+00 0.000000e+00
4.553466e-01 1.966766e-01 0.000000e+00
4.618495e-01 3.922589e-01 0.000000e+00
4.673761e-01 5.871842e-01 0.000000e+00
4.713548e-01 7.812154e-01 0.000000e+00
4.733440e-01 9.738523e-01 0.000000e+00
4.734255e-01 1.164830e+00 0.000000e+00
4.715284e-01 1.354397e+00 0.000000e+00
4.670931e-01 1.541978e+00 0.000000e+00
4.608380e-01 1.727651e+00 0.000000e+00
4.500000e-01 1.913375e+00 0.000000e+00
6.750000e-01 0.000000e+00 0.000000e+00
6.825475e-01 1.981912e-01 0.000000e+00
6.894893e-01 3.961430e-01 0.000000e+00
6.949558e-01 5.944795e-01 0.000000e+00
6.990268e-01 7.934019e-01 0.000000e+00
7.017456e-01 9.927881e-01 0.000000e+00
7.027201e-01 1.192620e+00 0.000000e+00
7.016951e-01 1.392894e+00 0.000000e+00
6.990105e-01 1.593619e+00 0.000000e+00
6.938892e-01 1.794181e+00 0.000000e+00
6.855667e-01 1.993473e+00 0.000000e+00
9.000000e-01 0.000000e+00 0.000000e+00
9.083083e-01 1.989760e-01 0.000000e+00
9.147595e-01 3.980113e-01 0.000000e+00
9.194053e-01 5.974340e-01 0.000000e+00
9.227747e-01 7.972977e-01 0.000000e+00
9.248831e-01 9.976767e-01 0.000000e+00
9.254352e-01 1.198526e+00 0.000000e+00
9.242797e-01 1.399628e+00 0.000000e+00
9.215826e-01 1.600762e+00 0.000000e+00
9.172623e-01 1.801650e+00 0.000000e+00
9.117779e-01 2.001760e+00 0.000000e+00
1.125000e+00 0.000000e+00 0.000000e+00
1.133407e+00 1.994877e-01 0.000000e+00
1.138996e+00 3.992073e-01 0.000000e+00
1.142966e+00 5.993884e-01 0.000000e+00
1.145805e+00 8.000116e-01 0.000000e+00
1.147428e+00 1.001053e+00 0.000000e+00
1.147741e+00 1.202410e+00 0.000000e+00
1.146678e+00 1.403853e+00 0.000000e+00
1.144332e+00 1.605156e+00 0.000000e+00
1.140997e+00 1.805991e+00 0.000000e+00
1.137611e+00 2.006042e+00 0.000000e+00
1.350000e+00 0.000000e+00 0.000000e+00
1.357899e+00 1.999318e-01 0.000000e+00
1.362692e+00 4.001715e-01 0.000000e+00
1.366084e+00 6.008023e-01 0.000000e+00
1.368442e+00 8.018353e-01 0.000000e+00
1.369762e+00 1.003234e+00 0.000000e+00
1.369999e+00 1.204826e+00 0.000000e+00
1.369137e+00 1.406404e+00 0.000000e+00
1.367307e+00 1.607740e+00 0.000000e+00
1.365001e+00 1.808510e+00 0.000000e+00
1.362969e+00 2.008667e+00 0.000000e+00
1.575000e+00 0.000000e+00 0.000000e+00
1.582028e+00 2.002186e-01 0.000000e+00
1.586097e+00 4.007468e-01 0.000000e+00
1.588982e+00 6.016564e-01 0.000000e+00
1.590966e+00 8.029341e-01 0.000000e+00
1.592089e+00 1.004478e+00 0.000000e+00
1.592337e+00 1.206131e+00 0.000000e+00
1.591730e+00 1.407724e+00 0.000000e+00
1.590462e+00 1.609036e+00 0.000000e+00
1.589032e+00 1.809804e+00 0.000000e+00
1.587970e+00 2.010046e+00 0.000000e+00
1.800000e+00 0.000000e+00 0.000000e+00
1.805957e+00 2.003269e-01 0.000000e+00
1.809365e+00 4.010244e-01 0.000000e+00
1.811826e+00 6.020946e-01 0.000000e+00
1.813517e+00 8.034419e-01 0.000000e+00
1.814515e+00 1.004988e+00 0.000000e+00
1.814820e+00 1.206604e+00 0.000000e+00
1.814478e+00 1.408146e+00 0.000000e+00
1.813724e+00 1.609412e+00 0.000000e+00
1.812994e+00 1.810200e+00 0.000000e+00
1.812630e+00 2.010559e+00 0.000000e+00
2.025000e+00 0.000000e+00 0.000000e+00
2.029821e+00 2.003779e-01 0.000000e+00
2.032632e+00 4.011228e-01 0.000000e+00
2.034738e+00 6.021975e-01 0.000000e+00
2.036197e+00 8.034986e-01 0.000000e+00
2.037103e+00 1.004961e+00 0.000000e+00
2.037470e+00 1.206487e+00 0.000000e+00
2.037369e+00 1.407945e+00 0.000000e+00
2.037049e+00 1.609151e+00 0.000000e+00
2.036836e+00 1.809975e+00 0.000000e+00
2.036939e+00 2.010478e+00 0.000000e+00
2.250000e+00 0.000000e+00 0.000000e+00
2.253704e+00 2.003270e-01 0.000000e+00
2.256008e+00 4.010286e-01 0.000000e+00
2.257792e+00 6.020378e-01 0.000000e+00
2.259062e+00 8.032436e-01 0.000000e+00
2.259881e+00 1.004584e+00 0.000000e+00
2.260291e+00 1.205988e+00 0.000000e+00
2.260391e+00 1.407338e+00 0.000000e+00
2.260398e+00 1.608493e+00 0.000000e+00
2.260537e+00 1.809370e+00 0.000000e+00
2.260912e+00 2.010025e+00 0.000000e+00
2.475000e+00 0.000000e+00 0.000000e+00
2.477713e+00 2.002385e-01 0.000000e+00
2.479556e+00 4.008315e-01 0.000000e+00
2.481026e+00 6.017184e-01 0.000000e+00
2.482116e+00 8.028005e-01 0.000000e+00
2.482853e+00 1.004015e+00 0.000000e+00
2.483284e+00 1.205281e+00 0.000000e+00
2.483525e+00 1.406516e+00 0.000000e+00
2.483741e+00 1.607627e+00 0.000000e+00
2.484083e+00 1.808571e+00 0.000000e+00
2.484586e+00 2.009397e+00 0.000000e+00
2.700000e+00 0.000000e+00 0.000000e+00
2.701884e+00 2.001458e-01 0.000000e+00
2.703308e+00 4.006157e-01 0.000000e+00
2.704463e+00 6.013468e-01 0.000000e+00
2.705361e+00 8.022848e-01 0.000000e+00
2.706006e+00 1.003363e+00 0.000000e+00
2.706435e+00 1.204505e+00 0.000000e+00
2.706745e+00 1.405641e+00 0.000000e+00
2.707059e+00 1.606718e+00 0.000000e+00
2.707467e+00 1.807733e+00 0.000000e+00
2.707979e+00 2.008733e+00 0.000000e+00
2.925000e+00 0.000000e+00 0.000000e+00
2.926222e+00 2.000721e-01 0.000000e+00
2.927262e+00 4.004151e-01 0.000000e+00
2.928118e+00 6.009996e-01 0.000000e+00
2.928803e+00 8.017859e-01 0.000000e+00
2.929323e+00 1.002731e+00 0.000000e+00
2.929708e+00 1.203767e+00 0.000000e+00
2.930021e+00 1.404833e+00 0.000000e+00
2.930338e+00 1.605900e+00 0.000000e+00
2.930709e+00 1.806980e+00 0.000000e+00
2.931152e+00 2.008109e+00 0.000000e+00
3.150000e+00 0.000000e+00 0.000000e+00
3.150718e+00 2.000074e-01 0.000000e+00
3.151388e+00 4.002416e-01 0.000000e+00
3.151963e+00 6.007099e-01 0.000000e+00
3.152429e+00 8.013779e-01 0.000000e+00
3.152790e+00 1.002214e+00 0.000000e+00
3.153079e+00 1.203165e+00 0.000000e+00
3.153329e+00 1.404183e+00 0.000000e+00
3.153578e+00 1.605252e+00 0.000000e+00
3.153857e+00 1.806376e+00 0.000000e+00
3.154181e+00 2.007591e+00 0.000000e+00
3.375000e+00 0.000000e+00 0.000000e+00
3.375332e+00 1.999590e-01 0.000000e+00
3.375654e+00 4.001247e-01 0.000000e+00
3.375944e+00 6.005159e-01 0.000000e+00
3.376182e+00 8.011155e-01 0.000000e+00
3.376365e+00 1.001880e+00 0.000000e+00
3.376520e+00 1.202772e+00 0.000000e+00
3.376657e+00 1.403756e+00 0.000000e+00
3.376793e+00 1.604822e+00 0.000000e+00
3.376943e+00 1.805971e+00 0.000000e+00
3.377114e+00 2.007242e+00 0.000000e+00
3.600000e+00 0.000000e+00 0.000000e+00
3.600000e+00 1.999538e-01 0.000000e+00
3.600000e+00 4.000976e-01 0.000000e+00
3.600000e+00 6.004547e-01 0.000000e+00
3.600000e+00 8.010212e-01 0.000000e+00
3.600000e+00 1.001754e+00 0.000000e+00
3.600000e+00 1.202621e+00 0.000000e+00
3.600000e+00 1.403592e+00 0.000000e+00
3.600000e+00 1.604649e+00 0.000000e+00
3.600000e+00 1.805800e+00 0.000000e+00
3.600000e+00 2.007084e+00 0.000000e+00
</DataArray>
</Points>
<Cells>
<DataArray Name="connectivity" type="Int32" format="ascii">
0 11 12 1
1 12 13 2
2 13 14 3
3 14 15 4
4 15 16 5
5 16 17 6
6 17 18 7
7 18 19 8
8 19 20 9
9 20 21 10
11 22 23 12
12 23 24 13
13 24 25 14
14 25 26 15
15 26 27 16
16 27 28 17
17 28 29 18
18 29 30 19
19 30 31 20
20 31 32 21
22 33 34 23
23 34 35 24
24 35 36 25
25 36 37 26
26 37 38 27
27 38 39 28
28 39 40 29
29 40 41 30
30 41 42 31
31 42 43 32
33 44 45 34
34 45 46 35
35 46 47 36
36 47 48 37
37 48 49 38
38 49 50 39
39 50 51 40
40 51 52 41
41 52 53 42
42 53 54 43
44 55 56 45
45 56 57 46
46 57 58 47
47 58 59 48
48 59 60 49
49 60 61 50
50 61 62 51
51 62 63 52
52 63 64 53
53 64 65 54
55 66 67 56
56 67 68 57
57 68 69 58
58 69 70 59
59 70 71 60
60 71 72 61
61 72 73 62
62 73 74 63
63 74 75 64
64 75 76 65
66 77 78 67
67 78 79 68
68 79 80 69
69 80 81 70
70 81 82 71
71 82 83 72
72 83 84 73
73 84 85 74
74 85 86 75
75 86 87 76
77 88 89 78
78 89 90 79
79 90 91 80
80 91 92 81
81 92 93 82
82 93 94 83
83 94 95 84
84 95 96 85
85 96 97 86
86 97 98 87
88 99 100 89
89 100 101 90
90 101 102 91
91 102 103 92
92 103 104 93
93 104 105 94
94 105 106 95
95 106 107 96
96 107 108 97
97 108 109 98
99 110 111 100
100 111 112 101
101 112 113 102
102 113 114 103
103 114 115 104
104 115 116 105
105 116 117 106
106 117 118 107
107 118 119 108
108 119 120 109
110 121 122 111
111 122 123 112
112 123 124 113
113 124 125 114
114 125 126 115
115 126 127 116
116 127 128 117
117 128 129 118
118 129 130 119
119 130 131 120
121 132 133 122
122 133 134 123
123 134 135 124
124 135 136 125
125 136 137 126
126 137 138 127
127 138 139 128
128 139 140 129
129 140 141 130
130 141 142 131
132 143 144 133
133 144 145 134
134 145 146 135
135 146 147 136
136 147 148 137
137 148 149 138
138 149 150 139
139 150 151 140
140 151 152 141
141 152 153 142
143 154 155 144
144 155 156 145
145 156 157 146
146 157 158 147
147 158 159 148
148 159 160 149
149 160 161 150
150 161 162 151
151 162 163 152
152 163 164 153
154 165 166 155
155 166 167 156
156 167 168 157
157 168 169 158
158 169 170 159
159 170 171 160
160 171 172 161
161 172 173 162
162 173 174 163
163 174 175 164
165 176 177 166
166 177 178 167
167 178 179 168
168 179 180 169
169 180 181 170
170 181 182 171
171 182 183 172
172 183 184 173
173 184 185 174
174 185 186 175
</DataArray>
<DataArray Name="offsets" type="Int32" format="ascii">
4
8
12
16
20
24
28
32
36
40
44
48
52
56
60
64
68
72
76
80
84
88
92
96
100
104
108
112
116
120
124
128
132
136
140
144
148
152
156
160
164
168
172
176
180
184
188
192
196
200
204
208
212
216
220
224
228
232
236
240
244
248
252
256
260
264
268
272
276
280
284
288
292
296
300
304
308
312
316
320
324
328
332
336
340
344
348
352
356
360
364
368
372
376
380
384
388
392
396
400
404
408
412
416
420
424
428
432
436
440
444
448
452
456
460
464
468
472
476
480
484
488
492
496
500
504
508
512
516
520
524
528
532
536
540
544
548
552
556
560
564
568
572
576
580
584
588
592
596
600
604
608
612
616
620
624
628
632
636
640
</DataArray>
<DataArray Name="types" type="UInt8" format="ascii">
9
9
9
9
9
9
9
9
9
9
9
9
9
9
9
9
9
9
9
9
9
9
9
9
9
9
9
9
9
9
9
9
9
9
9
9
9
9
9
9
9
9
9
9
9
9
9
9
9
9
9
9
9
9
9
9
9
9
9
9
9
9
9
9
9
9
9
9
9
9
9
9
9
9
9
9
9
9
9
9
9
9
9
9
9
9
9
9
9
9
9
9
9
9
9
9
9
9
9
9
9
9
9
9
9
9
9
9
9
9
9
9
9
9
9
9
9
9
9
9
9
9
9
9
9
9
9
9
9
9
9
9
9
9
9
9
9
9
9
9
9
9
9
9
9
9
9
9
9
9
9
9
9
9
9
9
9
9
9
9
</DataArray>
</Cells>
<PointData>
<DataArray Name="disp" type="Float64" NumberOfComponents="3" format="ascii">
0.000000e+00 0.000000e+00 0.000000e+00
0.000000e+00 -3.580947e-03 0.000000e+00
0.000000e+00 -9.802748e-03 0.000000e+00
0.000000e+00 -1.933975e-02 0.000000e+00
0.000000e+00 -3.120875e-02 0.000000e+00
0.000000e+00 -4.411024e-02 0.000000e+00
0.000000e+00 -5.687027e-02 0.000000e+00
0.000000e+00 -6.848062e-02 0.000000e+00
0.000000e+00 -7.747965e-02 0.000000e+00
0.000000e+00 -8.248041e-02 0.000000e+00
0.000000e+00 -8.662500e-02 0.000000e+00
0.000000e+00 0.000000e+00 0.000000e+00
2.454576e-03 -3.788106e-03 0.000000e+00
6.829299e-03 -9.661699e-03 0.000000e+00
1.048570e-02 -1.782794e-02 0.000000e+00
1.266931e-02 -2.787152e-02 0.000000e+00
1.318886e-02 -3.926722e-02 0.000000e+00
1.251473e-02 -5.109223e-02 0.000000e+00
1.032940e-02 -6.253225e-02 0.000000e+00
5.535255e-03 -7.322822e-02 0.000000e+00
5.992557e-04 -8.196405e-02 0.000000e+00
0.000000e+00 -8.662500e-02 0.000000e+00
0.000000e+00 0.000000e+00 0.000000e+00
5.346581e-03 -3.323448e-03 0.000000e+00
1.184945e-02 -7.741131e-03 0.000000e+00
1.737605e-02 -1.281582e-02 0.000000e+00
2.135485e-02 -1.878458e-02 0.000000e+00
2.334396e-02 -2.614764e-02 0.000000e+00
2.342553e-02 -3.516957e-02 0.000000e+00
2.152835e-02 -4.560344e-02 0.000000e+00
1.709307e-02 -5.802180e-02 0.000000e+00
1.083800e-02 -7.234908e-02 0.000000e+00
0.000000e+00 -8.662500e-02 0.000000e+00
0.000000e+00 0.000000e+00 0.000000e+00
7.547508e-03 -1.808791e-03 0.000000e+00
1.448930e-02 -3.856972e-03 0.000000e+00
1.995576e-02 -5.520478e-03 0.000000e+00
2.402683e-02 -6.598123e-03 0.000000e+00
2.674557e-02 -7.211921e-03 0.000000e+00
2.772013e-02 -7.380433e-03 0.000000e+00
2.669508e-02 -7.106426e-03 0.000000e+00
2.401051e-02 -6.380705e-03 0.000000e+00
1.888923e-02 -5.818960e-03 0.000000e+00
1.056664e-02 -6.527451e-03 0.000000e+00
0.000000e+00 0.000000e+00 0.000000e+00
8.308291e-03 -1.024019e-03 0.000000e+00
1.475953e-02 -1.988721e-03 0.000000e+00
1.940529e-02 -2.565950e-03 0.000000e+00
2.277467e-02 -2.702270e-03 0.000000e+00
2.488313e-02 -2.323348e-03 0.000000e+00
2.543519e-02 -1.474447e-03 0.000000e+00
2.427972e-02 -3.715635e-04 0.000000e+00
2.158255e-02 7.619771e-04 0.000000e+00
1.726232e-02 1.650216e-03 0.000000e+00
1.177787e-02 1.760269e-03 0.000000e+00
0.000000e+00 0.000000e+00 0.000000e+00
8.407177e-03 -5.122902e-04 0.000000e+00
1.399605e-02 -7.927211e-04 0.000000e+00
1.796564e-02 -6.115814e-04 0.000000e+00
2.080450e-02 1.154948e-05 0.000000e+00
2.242813e-02 1.053383e-03 0.000000e+00
2.274089e-02 2.409858e-03 0.000000e+00
2.167845e-02 3.853365e-03 0.000000e+00
1.933203e-02 5.155920e-03 0.000000e+00
1.599652e-02 5.991191e-03 0.000000e+00
1.261085e-02 6.041978e-03 0.000000e+00
0.000000e+00 0.000000e+00 0.000000e+00
7.899438e-03 -6.823522e-05 0.000000e+00
1.269177e-02 1.714568e-04 0.000000e+00
1.608392e-02 8.023144e-04 0.000000e+00
1.844195e-02 1.835309e-03 0.000000e+00
1.976153e-02 3.233756e-03 0.000000e+00
1.999898e-02 4.826387e-03 0.000000e+00
1.913696e-02 6.404133e-03 0.000000e+00
1.730747e-02 7.740082e-03 0.000000e+00
1.500094e-02 8.509857e-03 0.000000e+00
1.296941e-02 8.666756e-03 0.000000e+00
0.000000e+00 0.000000e+00 0.000000e+00
7.028160e-03 2.185666e-04 0.000000e+00
1.109693e-02 7.467626e-04 0.000000e+00
1.398154e-02 1.656367e-03 0.000000e+00
1.596589e-02 2.934098e-03 0.000000e+00
1.708892e-02 4.477495e-03 0.000000e+00
1.733692e-02 6.130650e-03 0.000000e+00
1.672952e-02 7.724239e-03 0.000000e+00
1.546214e-02 9.035654e-03 0.000000e+00
1.403173e-02 9.803740e-03 0.000000e+00
1.296952e-02 1.004562e-02 0.000000e+00
0.000000e+00 0.000000e+00 0.000000e+00
5.957204e-03 3.268850e-04 0.000000e+00
9.364608e-03 1.024403e-03 0.000000e+00
1.182583e-02 2.094585e-03 0.000000e+00
1.351731e-02 3.441902e-03 0.000000e+00
1.451515e-02 4.988061e-03 0.000000e+00
1.482031e-02 6.604386e-03 0.000000e+00
1.447763e-02 8.146275e-03 0.000000e+00
1.372405e-02 9.411638e-03 0.000000e+00
1.299385e-02 1.019983e-02 0.000000e+00
1.262979e-02 1.055934e-02 0.000000e+00
0.000000e+00 0.000000e+00 0.000000e+00
4.821281e-03 3.779097e-04 0.000000e+00
7.632196e-03 1.122818e-03 0.000000e+00
9.737634e-03 2.197507e-03 0.000000e+00
1.119704e-02 3.498590e-03 0.000000e+00
1.210331e-02 4.961486e-03 0.000000e+00
1.247036e-02 6.486840e-03 0.000000e+00
1.236913e-02 7.944513e-03 0.000000e+00
1.204907e-02 9.151194e-03 0.000000e+00
1.183595e-02 9.974580e-03 0.000000e+00
1.193932e-02 1.047814e-02 0.000000e+00
0.000000e+00 0.000000e+00 0.000000e+00
3.703641e-03 3.270345e-04 0.000000e+00
6.008071e-03 1.028568e-03 0.000000e+00
7.792091e-03 2.037799e-03 0.000000e+00
9.061654e-03 3.243574e-03 0.000000e+00
9.881129e-03 4.583946e-03 0.000000e+00
1.029061e-02 5.988253e-03 0.000000e+00
1.039098e-02 7.338130e-03 0.000000e+00
1.039807e-02 8.493055e-03 0.000000e+00
1.053707e-02 9.369630e-03 0.000000e+00
1.091181e-02 1.002501e-02 0.000000e+00
0.000000e+00 0.000000e+00 0.000000e+00
2.712587e-03 2.385130e-04 0.000000e+00
4.555563e-03 8.314747e-04 0.000000e+00
6.026242e-03 1.718374e-03 0.000000e+00
7.115521e-03 2.800504e-03 0.000000e+00
7.853115e-03 4.014605e-03 0.000000e+00
8.283783e-03 5.280720e-03 0.000000e+00
8.524859e-03 6.516129e-03 0.000000e+00
8.741127e-03 7.627355e-03 0.000000e+00
9.082796e-03 8.570831e-03 0.000000e+00
9.585769e-03 9.396719e-03 0.000000e+00
0.000000e+00 0.000000e+00 0.000000e+00
1.883620e-03 1.458433e-04 0.000000e+00
3.308269e-03 6.156666e-04 0.000000e+00
4.462642e-03 1.346788e-03 0.000000e+00
5.360645e-03 2.284852e-03 0.000000e+00
6.005524e-03 3.363517e-03 0.000000e+00
6.435438e-03 4.505206e-03 0.000000e+00
6.745212e-03 5.640852e-03 0.000000e+00
7.059253e-03 6.718182e-03 0.000000e+00
7.467423e-03 7.733375e-03 0.000000e+00
7.978779e-03 8.732618e-03 0.000000e+00
0.000000e+00 0.000000e+00 0.000000e+00
1.221673e-03 7.211440e-05 0.000000e+00
2.261725e-03 4.151170e-04 0.000000e+00
3.117657e-03 9.995667e-04 0.000000e+00
3.803456e-03 1.785927e-03 0.000000e+00
4.322805e-03 2.731487e-03 0.000000e+00
4.708144e-03 3.767469e-03 0.000000e+00
5.021307e-03 4.833384e-03 0.000000e+00
5.338420e-03 5.899588e-03 0.000000e+00
5.709076e-03 6.980212e-03 0.000000e+00
6.152054e-03 8.109303e-03 0.000000e+00
0.000000e+00 0.000000e+00 0.000000e+00
7.179854e-04 7.400293e-06 0.000000e+00
1.387715e-03 2.415896e-04 0.000000e+00
1.963314e-03 7.098641e-04 0.000000e+00
2.428511e-03 1.377917e-03 0.000000e+00
2.789479e-03 2.214322e-03 0.000000e+00
3.079023e-03 3.164804e-03 0.000000e+00
3.329126e-03 4.182826e-03 0.000000e+00
3.578253e-03 5.251494e-03 0.000000e+00
3.856417e-03 6.376064e-03 0.000000e+00
4.180954e-03 7.591030e-03 0.000000e+00
0.000000e+00 0.000000e+00 0.000000e+00
3.322180e-04 -4.105403e-05 0.000000e+00
6.536968e-04 1.246752e-04 0.000000e+00
9.444080e-04 5.158742e-04 0.000000e+00
1.181606e-03 1.115503e-03 0.000000e+00
1.365262e-03 1.880204e-03 0.000000e+00
1.519795e-03 2.771993e-03 0.000000e+00
1.657466e-03 3.756439e-03 0.000000e+00
1.793138e-03 4.822037e-03 0.000000e+00
1.942737e-03 5.970516e-03 0.000000e+00
2.114279e-03 7.241890e-03 0.000000e+00
0.000000e+00 0.000000e+00 0.000000e+00
0.000000e+00 -4.618522e-05 0.000000e+00
0.000000e+00 9.757973e-05 0.000000e+00
0.000000e+00 4.547172e-04 0.000000e+00
0.000000e+00 1.021216e-03 0.000000e+00
0.000000e+00 1.753546e-03 0.000000e+00
0.000000e+00 2.620834e-03 0.000000e+00
0.000000e+00 3.591785e-03 0.000000e+00
0.000000e+00 4.648885e-03 0.000000e+00
0.000000e+00 5.799545e-03 0.000000e+00
0.000000e+00 7.083627e-03 0.000000e+00
</DataArray>
<DataArray Name="shear" type="Float64" NumberOfComponents="1" format="ascii">
2.237695e-02
3.731138e-02
6.856250e-02
9.742549e-02
1.158127e-01
1.220680e-01
1.171557e-01
9.914120e-02
6.516847e-02
3.261064e-02
2.270377e-02
2.596284e-02
4.000936e-02
6.479968e-02
8.710569e-02
1.045272e-01
1.149295e-01
1.165290e-01
1.081994e-01
8.966898e-02
6.129327e-02
3.949936e-02
3.406472e-02
4.464811e-02
5.853629e-02
7.004177e-02
8.450180e-02
1.021517e-01
1.202003e-01
1.369777e-01
1.539574e-01
1.606012e-01
1.577806e-01
4.024360e-02
4.394752e-02
4.682601e-02
4.868966e-02
5.391783e-02
6.291033e-02
7.529706e-02
9.172226e-02
1.123186e-01
1.337120e-01
1.496041e-01
4.254391e-02
4.016677e-02
3.474328e-02
3.123038e-02
2.955996e-02
2.794694e-02
2.540961e-02
2.192576e-02
1.670731e-02
7.343753e-03
1.252675e-03
4.242083e-02
3.709450e-02
2.914145e-02
2.625216e-02
2.524321e-02
2.423055e-02
2.228058e-02
1.909050e-02
1.439421e-02
6.981211e-03
2.246760e-03
3.981278e-02
3.351333e-02
2.538311e-02
2.335813e-02
2.288269e-02
2.227482e-02
2.076409e-02
1.808636e-02
1.368128e-02
7.004154e-03
2.410713e-03
3.538834e-02
2.923881e-02
2.216489e-02
2.111297e-02
2.110057e-02
2.078264e-02
1.965670e-02
1.741265e-02
1.335086e-02
7.444916e-03
3.550379e-03
3.004607e-02
2.485066e-02
1.957578e-02
1.920886e-02
1.939289e-02
1.932792e-02
1.856989e-02
1.670273e-02
1.311129e-02
8.170163e-03
5.128920e-03
2.438484e-02
2.050950e-02
1.708858e-02
1.721126e-02
1.758915e-02
1.780905e-02
1.741477e-02
1.590095e-02
1.291239e-02
9.114699e-03
6.975750e-03
1.879925e-02
1.628807e-02
1.456967e-02
1.517436e-02
1.580447e-02
1.626371e-02
1.616055e-02
1.504176e-02
1.281780e-02
1.020727e-02
8.873307e-03
1.380635e-02
1.248392e-02
1.210903e-02
1.315651e-02
1.411128e-02
1.476408e-02
1.487263e-02
1.421091e-02
1.285357e-02
1.141864e-02
1.078804e-02
9.618637e-03
9.200641e-03
9.761999e-03
1.114988e-02
1.244964e-02
1.335909e-02
1.371980e-02
1.352710e-02
1.300596e-02
1.262422e-02
1.257680e-02
6.263284e-03
6.419780e-03
7.630904e-03
9.291298e-03
1.087263e-02
1.208417e-02
1.277827e-02
1.306334e-02
1.323154e-02
1.359642e-02
1.393907e-02
3.675390e-03
4.130582e-03
5.858083e-03
7.822528e-03
9.609167e-03
1.104305e-02
1.204883e-02
1.276549e-02
1.342647e-02
1.425448e-02
1.484913e-02
1.705851e-03
2.465109e-03
4.643484e-03
6.879273e-03
8.812354e-03
1.035652e-02
1.156355e-02
1.255965e-02
1.351781e-02
1.463627e-02
1.539599e-02
6.093426e-04
1.809410e-03
4.202113e-03
6.530902e-03
8.522055e-03
1.010665e-02
1.138933e-02
1.247785e-02
1.353138e-02
1.475222e-02
1.556951e-02
</DataArray>
<DataArray Name="stress" type="Float64" NumberOfComponents="9" format="ascii">
-1.278189e+05 7.518000e+03 0.000000e+00 7.518000e+03 -2.306866e+05 0.000000e+00 0.000000e+00 0.000000e+00 0.000000e+00
-1.162541e+05 5.187406e+03 0.000000e+00 5.187406e+03 -2.334551e+05 0.000000e+00 0.000000e+00 0.000000e+00 0.000000e+00
-1.216070e+05 3.598616e+03 0.000000e+00 3.598616e+03 -2.339159e+05 0.000000e+00 0.000000e+00 0.000000e+00 0.000000e+00
-1.339353e+05 5.628487e+03 0.000000e+00 5.628487e+03 -2.460510e+05 0.000000e+00 0.000000e+00 0.000000e+00 0.000000e+00
-1.437050e+05 4.231359e+03 0.000000e+00 4.231359e+03 -2.526444e+05 0.000000e+00 0.000000e+00 0.000000e+00 0.000000e+00
-1.491089e+05 5.512385e+03 0.000000e+00 5.512385e+03 -2.579706e+05 0.000000e+00 0.000000e+00 0.000000e+00 0.000000e+00
-1.520230e+05 7.830338e+03 0.000000e+00 7.830338e+03 -2.724049e+05 0.000000e+00 0.000000e+00 0.000000e+00 0.000000e+00
-1.511008e+05 1.045651e+04 0.000000e+00 1.045651e+04 -2.789569e+05 0.000000e+00 0.000000e+00 0.000000e+00 0.000000e+00
-1.535332e+05 8.341238e+03 0.000000e+00 8.341238e+03 -2.949379e+05 0.000000e+00 0.000000e+00 0.000000e+00 0.000000e+00
-1.614276e+05 -1.129439e+03 0.000000e+00 -1.129439e+03 -3.073301e+05 0.000000e+00 0.000000e+00 0.000000e+00 0.000000e+00
-1.642143e+05 -5.009795e+02 0.000000e+00 -5.009795e+02 -2.912891e+05 0.000000e+00 0.000000e+00 0.000000e+00 0.000000e+00
-1.336648e+05 2.249255e+04 0.000000e+00 2.249255e+04 -2.261647e+05 0.000000e+00 0.000000e+00 0.000000e+00 0.000000e+00
-1.175476e+05 1.848290e+04 0.000000e+00 1.848290e+04 -2.217020e+05 0.000000e+00 0.000000e+00 0.000000e+00 0.000000e+00
-1.195421e+05 1.607035e+04 0.000000e+00 1.607035e+04 -2.302726e+05 0.000000e+00 0.000000e+00 0.000000e+00 0.000000e+00
-1.295778e+05 1.329867e+04 0.000000e+00 1.329867e+04 -2.408042e+05 0.000000e+00 0.000000e+00 0.000000e+00 0.000000e+00
-1.409985e+05 1.178919e+04 0.000000e+00 1.178919e+04 -2.511577e+05 0.000000e+00 0.000000e+00 0.000000e+00 0.000000e+00
-1.495505e+05 1.255805e+04 0.000000e+00 1.255805e+04 -2.592700e+05 0.000000e+00 0.000000e+00 0.000000e+00 0.000000e+00
-1.530053e+05 1.476079e+04 0.000000e+00 1.476079e+04 -2.717230e+05 0.000000e+00 0.000000e+00 0.000000e+00 0.000000e+00
-1.535435e+05 1.472802e+04 0.000000e+00 1.472802e+04 -2.805700e+05 0.000000e+00 0.000000e+00 0.000000e+00 0.000000e+00
-1.560560e+05 6.722976e+03 0.000000e+00 6.722976e+03 -2.939653e+05 0.000000e+00 0.000000e+00 0.000000e+00 0.000000e+00
-1.570133e+05 -2.648707e+03 0.000000e+00 -2.648707e+03 -2.970789e+05 0.000000e+00 0.000000e+00 0.000000e+00 0.000000e+00
-1.810613e+05 -9.131172e+03 0.000000e+00 -9.131172e+03 -3.409565e+05 0.000000e+00 0.000000e+00 0.000000e+00 0.000000e+00
-1.349548e+05 3.600071e+04 0.000000e+00 3.600071e+04 -1.964507e+05 0.000000e+00 0.000000e+00 0.000000e+00 0.000000e+00
-1.160720e+05 3.001394e+04 0.000000e+00 3.001394e+04 -1.835250e+05 0.000000e+00 0.000000e+00 0.000000e+00 0.000000e+00
-1.158071e+05 2.842087e+04 0.000000e+00 2.842087e+04 -1.912379e+05 0.000000e+00 0.000000e+00 0.000000e+00 0.000000e+00
-1.257650e+05 2.922385e+04 0.000000e+00 2.922385e+04 -2.034497e+05 0.000000e+00 0.000000e+00 0.000000e+00 0.000000e+00
-1.415571e+05 3.086066e+04 0.000000e+00 3.086066e+04 -2.204751e+05 0.000000e+00 0.000000e+00 0.000000e+00 0.000000e+00
-1.592758e+05 3.467643e+04 0.000000e+00 3.467643e+04 -2.377568e+05 0.000000e+00 0.000000e+00 0.000000e+00 0.000000e+00
-1.710940e+05 3.753730e+04 0.000000e+00 3.753730e+04 -2.580702e+05 0.000000e+00 0.000000e+00 0.000000e+00 0.000000e+00
-1.791587e+05 4.051291e+04 0.000000e+00 4.051291e+04 -2.780968e+05 0.000000e+00 0.000000e+00 0.000000e+00 0.000000e+00
-1.879335e+05 3.321116e+04 0.000000e+00 3.321116e+04 -2.909121e+05 0.000000e+00 0.000000e+00 0.000000e+00 0.000000e+00
-1.939939e+05 1.967330e+04 0.000000e+00 1.967330e+04 -3.001445e+05 0.000000e+00 0.000000e+00 0.000000e+00 0.000000e+00
-2.159360e+05 -3.768325e+03 0.000000e+00 -3.768325e+03 -3.618847e+05 0.000000e+00 0.000000e+00 0.000000e+00 0.000000e+00
-1.226563e+05 3.355580e+04 0.000000e+00 3.355580e+04 -1.453917e+05 0.000000e+00 0.000000e+00 0.000000e+00 0.000000e+00
-1.082702e+05 3.022418e+04 0.000000e+00 3.022418e+04 -1.348937e+05 0.000000e+00 0.000000e+00 0.000000e+00 0.000000e+00
-1.110229e+05 3.154854e+04 0.000000e+00 3.154854e+04 -1.356508e+05 0.000000e+00 0.000000e+00 0.000000e+00 0.000000e+00
-1.205069e+05 3.540807e+04 0.000000e+00 3.540807e+04 -1.361742e+05 0.000000e+00 0.000000e+00 0.000000e+00 0.000000e+00
-1.291965e+05 3.717414e+04 0.000000e+00 3.717414e+04 -1.342749e+05 0.000000e+00 0.000000e+00 0.000000e+00 0.000000e+00
-1.351209e+05 3.571498e+04 0.000000e+00 3.571498e+04 -1.294940e+05 0.000000e+00 0.000000e+00 0.000000e+00 0.000000e+00
-1.333757e+05 3.184844e+04 0.000000e+00 3.184844e+04 -1.212255e+05 0.000000e+00 0.000000e+00 0.000000e+00 0.000000e+00
-1.219733e+05 2.654496e+04 0.000000e+00 2.654496e+04 -1.072190e+05 0.000000e+00 0.000000e+00 0.000000e+00 0.000000e+00
-1.102629e+05 1.883471e+04 0.000000e+00 1.883471e+04 -9.308917e+04 0.000000e+00 0.000000e+00 0.000000e+00 0.000000e+00
-8.507917e+04 9.010229e+03 0.000000e+00 9.010229e+03 -7.968813e+04 0.000000e+00 0.000000e+00 0.000000e+00 0.000000e+00
-4.549727e+04 3.552404e+03 0.000000e+00 3.552404e+03 -5.756290e+04 0.000000e+00 0.000000e+00 0.000000e+00 0.000000e+00
-1.152457e+05 3.199654e+04 0.000000e+00 3.199654e+04 -1.177327e+05 0.000000e+00 0.000000e+00 0.000000e+00 0.000000e+00
-1.094128e+05 3.077090e+04 0.000000e+00 3.077090e+04 -1.142651e+05 0.000000e+00 0.000000e+00 0.000000e+00 0.000000e+00
-1.171288e+05 3.302759e+04 0.000000e+00 3.302759e+04 -1.170551e+05 0.000000e+00 0.000000e+00 0.000000e+00 0.000000e+00
-1.291052e+05 3.498802e+04 0.000000e+00 3.498802e+04 -1.159914e+05 0.000000e+00 0.000000e+00 0.000000e+00 0.000000e+00
-1.386585e+05 3.459332e+04 0.000000e+00 3.459332e+04 -1.101497e+05 0.000000e+00 0.000000e+00 0.000000e+00 0.000000e+00
-1.444134e+05 3.076220e+04 0.000000e+00 3.076220e+04 -1.018536e+05 0.000000e+00 0.000000e+00 0.000000e+00 0.000000e+00
-1.438619e+05 2.459983e+04 0.000000e+00 2.459983e+04 -9.270492e+04 0.000000e+00 0.000000e+00 0.000000e+00 0.000000e+00
-1.372314e+05 1.800029e+04 0.000000e+00 1.800029e+04 -8.303338e+04 0.000000e+00 0.000000e+00 0.000000e+00 0.000000e+00
-1.260134e+05 9.952744e+03 0.000000e+00 9.952744e+03 -7.457247e+04 0.000000e+00 0.000000e+00 0.000000e+00 0.000000e+00
-9.587619e+04 1.080779e+03 0.000000e+00 1.080779e+03 -6.816359e+04 0.000000e+00 0.000000e+00 0.000000e+00 0.000000e+00
-5.101102e+04 -1.606551e+03 0.000000e+00 -1.606551e+03 -5.341302e+04 0.000000e+00 0.000000e+00 0.000000e+00 0.000000e+00
-1.088286e+05 3.129833e+04 0.000000e+00 3.129833e+04 -1.030494e+05 0.000000e+00 0.000000e+00 0.000000e+00 0.000000e+00
-1.096132e+05 3.136762e+04 0.000000e+00 3.136762e+04 -1.029454e+05 0.000000e+00 0.000000e+00 0.000000e+00 0.000000e+00
-1.181954e+05 3.169775e+04 0.000000e+00 3.169775e+04 -1.028167e+05 0.000000e+00 0.000000e+00 0.000000e+00 0.000000e+00
-1.283513e+05 2.983795e+04 0.000000e+00 2.983795e+04 -9.793001e+04 0.000000e+00 0.000000e+00 0.000000e+00 0.000000e+00
-1.353266e+05 2.676466e+04 0.000000e+00 2.676466e+04 -9.193131e+04 0.000000e+00 0.000000e+00 0.000000e+00 0.000000e+00
-1.383508e+05 2.187018e+04 0.000000e+00 2.187018e+04 -8.553481e+04 0.000000e+00 0.000000e+00 0.000000e+00 0.000000e+00
-1.370421e+05 1.576258e+04 0.000000e+00 1.576258e+04 -7.885683e+04 0.000000e+00 0.000000e+00 0.000000e+00 0.000000e+00
-1.299515e+05 8.913276e+03 0.000000e+00 8.913276e+03 -7.194211e+04 0.000000e+00 0.000000e+00 0.000000e+00 0.000000e+00
-1.164722e+05 1.451876e+03 0.000000e+00 1.451876e+03 -6.606046e+04 0.000000e+00 0.000000e+00 0.000000e+00 0.000000e+00
-9.025664e+04 -4.024140e+03 0.000000e+00 -4.024140e+03 -6.201892e+04 0.000000e+00 0.000000e+00 0.000000e+00 0.000000e+00
-5.678786e+04 -4.726632e+03 0.000000e+00 -4.726632e+03 -5.443595e+04 0.000000e+00 0.000000e+00 0.000000e+00 0.000000e+00
-1.016756e+05 3.023458e+04 0.000000e+00 3.023458e+04 -9.118394e+04 0.000000e+00 0.000000e+00 0.000000e+00 0.000000e+00
-1.077907e+05 3.022570e+04 0.000000e+00 3.022570e+04 -9.313965e+04 0.000000e+00 0.000000e+00 0.000000e+00 0.000000e+00
-1.163979e+05 2.744196e+04 0.000000e+00 2.744196e+04 -9.017383e+04 0.000000e+00 0.000000e+00 0.000000e+00 0.000000e+00
-1.257300e+05 2.447815e+04 0.000000e+00 2.447815e+04 -8.543674e+04 0.000000e+00 0.000000e+00 0.000000e+00 0.000000e+00
-1.309571e+05 2.049967e+04 0.000000e+00 2.049967e+04 -8.067128e+04 0.000000e+00 0.000000e+00 0.000000e+00 0.000000e+00
-1.324532e+05 1.531928e+04 0.000000e+00 1.531928e+04 -7.550237e+04 0.000000e+00 0.000000e+00 0.000000e+00 0.000000e+00
-1.300761e+05 9.262460e+03 0.000000e+00 9.262460e+03 -7.037367e+04 0.000000e+00 0.000000e+00 0.000000e+00 0.000000e+00
-1.222768e+05 2.603207e+03 0.000000e+00 2.603207e+03 -6.563422e+04 0.000000e+00 0.000000e+00 0.000000e+00 0.000000e+00
-1.094760e+05 -3.272442e+03 0.000000e+00 -3.272442e+03 -6.237764e+04 0.000000e+00 0.000000e+00 0.000000e+00 0.000000e+00
-8.877340e+04 -5.327750e+03 0.000000e+00 -5.327750e+03 -6.031698e+04 0.000000e+00 0.000000e+00 0.000000e+00 0.000000e+00
-6.587374e+04 -4.508080e+03 0.000000e+00 -4.508080e+03 -5.605893e+04 0.000000e+00 0.000000e+00 0.000000e+00 0.000000e+00
-9.248437e+04 2.721590e+04 0.000000e+00 2.721590e+04 -8.091430e+04 0.000000e+00 0.000000e+00 0.000000e+00 0.000000e+00
-1.034334e+05 2.740016e+04 0.000000e+00 2.740016e+04 -8.452534e+04 0.000000e+00 0.000000e+00 0.000000e+00 0.000000e+00
-1.137358e+05 2.333052e+04 0.000000e+00 2.333052e+04 -8.076797e+04 0.000000e+00 0.000000e+00 0.000000e+00 0.000000e+00
-1.218938e+05 1.985385e+04 0.000000e+00 1.985385e+04 -7.693320e+04 0.000000e+00 0.000000e+00 0.000000e+00 0.000000e+00
-1.258761e+05 1.541450e+04 0.000000e+00 1.541450e+04 -7.298049e+04 0.000000e+00 0.000000e+00 0.000000e+00 0.000000e+00
-1.265791e+05 1.024139e+04 0.000000e+00 1.024139e+04 -6.885137e+04 0.000000e+00 0.000000e+00 0.000000e+00 0.000000e+00
-1.233044e+05 4.474317e+03 0.000000e+00 4.474317e+03 -6.506836e+04 0.000000e+00 0.000000e+00 0.000000e+00 0.000000e+00
-1.156919e+05 -1.161764e+03 0.000000e+00 -1.161764e+03 -6.217936e+04 0.000000e+00 0.000000e+00 0.000000e+00 0.000000e+00
-1.051199e+05 -5.200358e+03 0.000000e+00 -5.200358e+03 -6.051786e+04 0.000000e+00 0.000000e+00 0.000000e+00 0.000000e+00
-9.037239e+04 -5.442537e+03 0.000000e+00 -5.442537e+03 -5.964584e+04 0.000000e+00 0.000000e+00 0.000000e+00 0.000000e+00
-7.520168e+04 -4.130099e+03 0.000000e+00 -4.130099e+03 -5.677289e+04 0.000000e+00 0.000000e+00 0.000000e+00 0.000000e+00
-8.426788e+04 2.364128e+04 0.000000e+00 2.364128e+04 -7.374661e+04 0.000000e+00 0.000000e+00 0.000000e+00 0.000000e+00
-9.890151e+04 2.398357e+04 0.000000e+00 2.398357e+04 -7.785853e+04 0.000000e+00 0.000000e+00 0.000000e+00 0.000000e+00
-1.103514e+05 1.991332e+04 0.000000e+00 1.991332e+04 -7.411648e+04 0.000000e+00 0.000000e+00 0.000000e+00 0.000000e+00
-1.173280e+05 1.598354e+04 0.000000e+00 1.598354e+04 -7.084095e+04 0.000000e+00 0.000000e+00 0.000000e+00 0.000000e+00
-1.207107e+05 1.140354e+04 0.000000e+00 1.140354e+04 -6.766764e+04 0.000000e+00 0.000000e+00 0.000000e+00 0.000000e+00
-1.207964e+05 6.369739e+03 0.000000e+00 6.369739e+03 -6.454575e+04 0.000000e+00 0.000000e+00 0.000000e+00 0.000000e+00
-1.173480e+05 1.241606e+03 0.000000e+00 1.241606e+03 -6.191020e+04 0.000000e+00 0.000000e+00 0.000000e+00 0.000000e+00
-1.107548e+05 -3.179254e+03 0.000000e+00 -3.179254e+03 -6.020979e+04 0.000000e+00 0.000000e+00 0.000000e+00 0.000000e+00
-1.028344e+05 -5.740471e+03 0.000000e+00 -5.740471e+03 -5.946163e+04 0.000000e+00 0.000000e+00 0.000000e+00 0.000000e+00
-9.306921e+04 -5.035174e+03 0.000000e+00 -5.035174e+03 -5.933497e+04 0.000000e+00 0.000000e+00 0.000000e+00 0.000000e+00
-8.361397e+04 -3.410052e+03 0.000000e+00 -3.410052e+03 -5.745738e+04 0.000000e+00 0.000000e+00 0.000000e+00 0.000000e+00
-7.795463e+04 2.080587e+04 0.000000e+00 2.080587e+04 -6.848618e+04 0.000000e+00 0.000000e+00 0.000000e+00 0.000000e+00
-9.470980e+04 2.087977e+04 0.000000e+00 2.087977e+04 -7.245798e+04 0.000000e+00 0.000000e+00 0.000000e+00 0.000000e+00
-1.065640e+05 1.697994e+04 0.000000e+00 1.697994e+04 -6.934880e+04 0.000000e+00 0.000000e+00 0.000000e+00 0.000000e+00
-1.128237e+05 1.282075e+04 0.000000e+00 1.282075e+04 -6.656270e+04 0.000000e+00 0.000000e+00 0.000000e+00 0.000000e+00
-1.156766e+05 8.305603e+03 0.000000e+00 8.305603e+03 -6.397620e+04 0.000000e+00 0.000000e+00 0.000000e+00 0.000000e+00
-1.154740e+05 3.609064e+03 0.000000e+00 3.609064e+03 -6.173972e+04 0.000000e+00 0.000000e+00 0.000000e+00 0.000000e+00
-1.123891e+05 -7.708491e+02 0.000000e+00 -7.708491e+02 -6.004172e+04 0.000000e+00 0.000000e+00 0.000000e+00 0.000000e+00
-1.072911e+05 -4.100724e+03 0.000000e+00 -4.100724e+03 -5.912693e+04 0.000000e+00 0.000000e+00 0.000000e+00 0.000000e+00
-1.019232e+05 -5.591407e+03 0.000000e+00 -5.591407e+03 -5.892417e+04 0.000000e+00 0.000000e+00 0.000000e+00 0.000000e+00
-9.617888e+04 -4.377429e+03 0.000000e+00 -4.377429e+03 -5.918096e+04 0.000000e+00 0.000000e+00 0.000000e+00 0.000000e+00
-9.079534e+04 -2.653099e+03 0.000000e+00 -2.653099e+03 -5.822336e+04 0.000000e+00 0.000000e+00 0.000000e+00 0.000000e+00
-7.432054e+04 1.879976e+04 0.000000e+00 1.879976e+04 -6.500859e+04 0.000000e+00 0.000000e+00 0.000000e+00 0.000000e+00
-9.112996e+04 1.849338e+04 0.000000e+00 1.849338e+04 -6.854233e+04 0.000000e+00 0.000000e+00 0.000000e+00 0.000000e+00
-1.022999e+05 1.441373e+04 0.000000e+00 1.441373e+04 -6.569715e+04 0.000000e+00 0.000000e+00 0.000000e+00 0.000000e+00
-1.081166e+05 1.025071e+04 0.000000e+00 1.025071e+04 -6.346031e+04 0.000000e+00 0.000000e+00 0.000000e+00 0.000000e+00
-1.108176e+05 5.950502e+03 0.000000e+00 5.950502e+03 -6.143371e+04 0.000000e+00 0.000000e+00 0.000000e+00 0.000000e+00
-1.107177e+05 1.724150e+03 0.000000e+00 1.724150e+03 -5.988715e+04 0.000000e+00 0.000000e+00 0.000000e+00 0.000000e+00
-1.084360e+05 -1.922820e+03 0.000000e+00 -1.922820e+03 -5.888696e+04 0.000000e+00 0.000000e+00 0.000000e+00 0.000000e+00
-1.050123e+05 -4.346209e+03 0.000000e+00 -4.346209e+03 -5.848460e+04 0.000000e+00 0.000000e+00 0.000000e+00 0.000000e+00
-1.018556e+05 -5.039013e+03 0.000000e+00 -5.039013e+03 -5.866977e+04 0.000000e+00 0.000000e+00 0.000000e+00 0.000000e+00
-9.926995e+04 -3.614061e+03 0.000000e+00 -3.614061e+03 -5.914410e+04 0.000000e+00 0.000000e+00 0.000000e+00 0.000000e+00
-9.693213e+04 -1.943713e+03 0.000000e+00 -1.943713e+03 -5.890257e+04 0.000000e+00 0.000000e+00 0.000000e+00 0.000000e+00
-7.194565e+04 1.687334e+04 0.000000e+00 1.687334e+04 -6.272268e+04 0.000000e+00 0.000000e+00 0.000000e+00 0.000000e+00
-8.728885e+04 1.622473e+04 0.000000e+00 1.622473e+04 -6.567471e+04 0.000000e+00 0.000000e+00 0.000000e+00 0.000000e+00
-9.795676e+04 1.216739e+04 0.000000e+00 1.216739e+04 -6.317097e+04 0.000000e+00 0.000000e+00 0.000000e+00 0.000000e+00
-1.035757e+05 8.213639e+03 0.000000e+00 8.213639e+03 -6.140918e+04 0.000000e+00 0.000000e+00 0.000000e+00 0.000000e+00
-1.062494e+05 4.217385e+03 0.000000e+00 4.217385e+03 -5.983217e+04 0.000000e+00 0.000000e+00 0.000000e+00 0.000000e+00
-1.065904e+05 5.034508e+02 0.000000e+00 5.034508e+02 -5.872032e+04 0.000000e+00 0.000000e+00 0.000000e+00 0.000000e+00
-1.054352e+05 -2.444352e+03 0.000000e+00 -2.444352e+03 -5.816206e+04 0.000000e+00 0.000000e+00 0.000000e+00 0.000000e+00
-1.036248e+05 -4.119893e+03 0.000000e+00 -4.119893e+03 -5.818709e+04 0.000000e+00 0.000000e+00 0.000000e+00 0.000000e+00
-1.023699e+05 -4.272619e+03 0.000000e+00 -4.272619e+03 -5.864118e+04 0.000000e+00 0.000000e+00 0.000000e+00 0.000000e+00
-1.019730e+05 -2.822161e+03 0.000000e+00 -2.822161e+03 -5.926948e+04 0.000000e+00 0.000000e+00 0.000000e+00 0.000000e+00
-1.016476e+05 -1.301951e+03 0.000000e+00 -1.301951e+03 -5.948740e+04 0.000000e+00 0.000000e+00 0.000000e+00 0.000000e+00
-6.972082e+04 1.472006e+04 0.000000e+00 1.472006e+04 -6.187013e+04 0.000000e+00 0.000000e+00 0.000000e+00 0.000000e+00
-8.342095e+04 1.390650e+04 0.000000e+00 1.390650e+04 -6.391048e+04 0.000000e+00 0.000000e+00 0.000000e+00 0.000000e+00
-9.389432e+04 1.019019e+04 0.000000e+00 1.019019e+04 -6.150641e+04 0.000000e+00 0.000000e+00 0.000000e+00 0.000000e+00
-9.941016e+04 6.559310e+03 0.000000e+00 6.559310e+03 -5.995714e+04 0.000000e+00 0.000000e+00 0.000000e+00 0.000000e+00
-1.021461e+05 2.961849e+03 0.000000e+00 2.961849e+03 -5.875819e+04 0.000000e+00 0.000000e+00 0.000000e+00 0.000000e+00
-1.031489e+05 -1.803703e+02 0.000000e+00 -1.803703e+02 -5.804745e+04 0.000000e+00 0.000000e+00 0.000000e+00 0.000000e+00
-1.031550e+05 -2.489101e+03 0.000000e+00 -2.489101e+03 -5.788593e+04 0.000000e+00 0.000000e+00 0.000000e+00 0.000000e+00
-1.028942e+05 -3.585972e+03 0.000000e+00 -3.585972e+03 -5.821366e+04 0.000000e+00 0.000000e+00 0.000000e+00 0.000000e+00
-1.031763e+05 -3.427837e+03 0.000000e+00 -3.427837e+03 -5.881009e+04 0.000000e+00 0.000000e+00 0.000000e+00 0.000000e+00
-1.041645e+05 -2.116578e+03 0.000000e+00 -2.116578e+03 -5.948493e+04 0.000000e+00 0.000000e+00 0.000000e+00 0.000000e+00
-1.051455e+05 -8.802596e+02 0.000000e+00 -8.802596e+02 -5.996707e+04 0.000000e+00 0.000000e+00 0.000000e+00 0.000000e+00
-6.808229e+04 1.209718e+04 0.000000e+00 1.209718e+04 -6.200961e+04 0.000000e+00 0.000000e+00 0.000000e+00 0.000000e+00
-8.000255e+04 1.121956e+04 0.000000e+00 1.121956e+04 -6.298778e+04 0.000000e+00 0.000000e+00 0.000000e+00 0.000000e+00
-9.021399e+04 8.164364e+03 0.000000e+00 8.164364e+03 -6.056629e+04 0.000000e+00 0.000000e+00 0.000000e+00 0.000000e+00
-9.571506e+04 5.061240e+03 0.000000e+00 5.061240e+03 -5.892352e+04 0.000000e+00 0.000000e+00 0.000000e+00 0.000000e+00
-9.874681e+04 2.083885e+03 0.000000e+00 2.083885e+03 -5.789696e+04 0.000000e+00 0.000000e+00 0.000000e+00 0.000000e+00
-1.004044e+05 -4.158109e+02 0.000000e+00 -4.158109e+02 -5.753450e+04 0.000000e+00 0.000000e+00 0.000000e+00 0.000000e+00
-1.014921e+05 -2.120922e+03 0.000000e+00 -2.120922e+03 -5.770721e+04 0.000000e+00 0.000000e+00 0.000000e+00 0.000000e+00
-1.025039e+05 -2.832463e+03 0.000000e+00 -2.832463e+03 -5.824966e+04 0.000000e+00 0.000000e+00 0.000000e+00 0.000000e+00
-1.039712e+05 -2.593662e+03 0.000000e+00 -2.593662e+03 -5.895676e+04 0.000000e+00 0.000000e+00 0.000000e+00 0.000000e+00
-1.060043e+05 -1.530832e+03 0.000000e+00 -1.530832e+03 -5.958585e+04 0.000000e+00 0.000000e+00 0.000000e+00 0.000000e+00
-1.079253e+05 -6.043627e+02 0.000000e+00 -6.043627e+02 -6.023704e+04 0.000000e+00 0.000000e+00 0.000000e+00 0.000000e+00
-6.739702e+04 8.898272e+03 0.000000e+00 8.898272e+03 -6.305326e+04 0.000000e+00 0.000000e+00 0.000000e+00 0.000000e+00
-7.757741e+04 8.105000e+03 0.000000e+00 8.105000e+03 -6.292310e+04 0.000000e+00 0.000000e+00 0.000000e+00 0.000000e+00
-8.720934e+04 5.876844e+03 0.000000e+00 5.876844e+03 -6.029996e+04 0.000000e+00 0.000000e+00 0.000000e+00 0.000000e+00
-9.271991e+04 3.508188e+03 0.000000e+00 3.508188e+03 -5.841239e+04 0.000000e+00 0.000000e+00 0.000000e+00 0.000000e+00
-9.615138e+04 1.362055e+03 0.000000e+00 1.362055e+03 -5.735229e+04 0.000000e+00 0.000000e+00 0.000000e+00 0.000000e+00
-9.843573e+04 -3.478895e+02 0.000000e+00 -3.478895e+02 -5.712520e+04 0.000000e+00 0.000000e+00 0.000000e+00 0.000000e+00
-1.003488e+05 -1.483528e+03 0.000000e+00 -1.483528e+03 -5.750244e+04 0.000000e+00 0.000000e+00 0.000000e+00 0.000000e+00
-1.022750e+05 -1.949470e+03 0.000000e+00 -1.949470e+03 -5.821377e+04 0.000000e+00 0.000000e+00 0.000000e+00 0.000000e+00
-1.046332e+05 -1.747769e+03 0.000000e+00 -1.747769e+03 -5.899912e+04 0.000000e+00 0.000000e+00 0.000000e+00 0.000000e+00
-1.073650e+05 -9.931802e+02 0.000000e+00 -9.931802e+02 -5.960098e+04 0.000000e+00 0.000000e+00 0.000000e+00 0.000000e+00
-1.098703e+05 -3.605014e+02 0.000000e+00 -3.605014e+02 -6.041903e+04 0.000000e+00 0.000000e+00 0.000000e+00 0.000000e+00
-6.691917e+04 4.738804e+03 0.000000e+00 4.738804e+03 -6.428955e+04 0.000000e+00 0.000000e+00 0.000000e+00 0.000000e+00
-7.596302e+04 4.274971e+03 0.000000e+00 4.274971e+03 -6.344832e+04 0.000000e+00 0.000000e+00 0.000000e+00 0.000000e+00
-8.517065e+04 3.065058e+03 0.000000e+00 3.065058e+03 -6.037640e+04 0.000000e+00 0.000000e+00 0.000000e+00 0.000000e+00
-9.072183e+04 1.772982e+03 0.000000e+00 1.772982e+03 -5.832859e+04 0.000000e+00 0.000000e+00 0.000000e+00 0.000000e+00
-9.449488e+04 6.686555e+02 0.000000e+00 6.686555e+02 -5.725559e+04 0.000000e+00 0.000000e+00 0.000000e+00 0.000000e+00
-9.725988e+04 -1.748689e+02 0.000000e+00 -1.748689e+02 -5.702959e+04 0.000000e+00 0.000000e+00 0.000000e+00 0.000000e+00
-9.968389e+04 -7.419025e+02 0.000000e+00 -7.419025e+02 -5.745730e+04 0.000000e+00 0.000000e+00 0.000000e+00 0.000000e+00
-1.021691e+05 -9.933355e+02 0.000000e+00 -9.933355e+02 -5.823403e+04 0.000000e+00 0.000000e+00 0.000000e+00 0.000000e+00
-1.050821e+05 -8.922490e+02 0.000000e+00 -8.922490e+02 -5.904166e+04 0.000000e+00 0.000000e+00 0.000000e+00 0.000000e+00
-1.081683e+05 -4.834794e+02 0.000000e+00 -4.834794e+02 -5.965544e+04 0.000000e+00 0.000000e+00 0.000000e+00 0.000000e+00
-1.109558e+05 -1.465948e+02 0.000000e+00 -1.465948e+02 -6.055000e+04 0.000000e+00 0.000000e+00 0.000000e+00 0.000000e+00
-6.666852e+04 1.411278e+03 0.000000e+00 1.411278e+03 -6.455270e+04 0.000000e+00 0.000000e+00 0.000000e+00 0.000000e+00
-7.538095e+04 1.270812e+03 0.000000e+00 1.270812e+03 -6.356804e+04 0.000000e+00 0.000000e+00 0.000000e+00 0.000000e+00
-8.446368e+04 8.014020e+02 0.000000e+00 8.014020e+02 -6.043088e+04 0.000000e+00 0.000000e+00 0.000000e+00 0.000000e+00
-9.009059e+04 3.165532e+02 0.000000e+00 3.165532e+02 -5.839155e+04 0.000000e+00 0.000000e+00 0.000000e+00 0.000000e+00
-9.400374e+04 -8.841573e+01 0.000000e+00 -8.841573e+01 -5.734953e+04 0.000000e+00 0.000000e+00 0.000000e+00 0.000000e+00
-9.692197e+04 -3.845143e+02 0.000000e+00 -3.845143e+02 -5.708433e+04 0.000000e+00 0.000000e+00 0.000000e+00 0.000000e+00
-9.947530e+04 -6.155597e+02 0.000000e+00 -6.155597e+02 -5.746104e+04 0.000000e+00 0.000000e+00 0.000000e+00 0.000000e+00
-1.021546e+05 -7.336544e+02 0.000000e+00 -7.336544e+02 -5.826313e+04 0.000000e+00 0.000000e+00 0.000000e+00 0.000000e+00
-1.052676e+05 -6.770385e+02 0.000000e+00 -6.770385e+02 -5.909750e+04 0.000000e+00 0.000000e+00 0.000000e+00 0.000000e+00
-1.084711e+05 -4.608513e+02 0.000000e+00 -4.608513e+02 -5.970317e+04 0.000000e+00 0.000000e+00 0.000000e+00 0.000000e+00
-1.113319e+05 -2.892143e+02 0.000000e+00 -2.892143e+02 -6.063966e+04 0.000000e+00 0.000000e+00 0.000000e+00 0.000000e+00
</DataArray>
<DataArray Name="vol_eps" type="Float64" NumberOfComponents="1" format="ascii">
-1.478127e-02
-1.245023e-02
-9.343057e-03
-7.695577e-03
-7.341028e-03
-7.940318e-03
-8.702233e-03
-1.104438e-02
-1.601058e-02
-2.087029e-02
-2.092672e-02
-1.459673e-02
-1.149778e-02
-9.002923e-03
-7.762308e-03
-7.533882e-03
-7.964775e-03
-8.357720e-03
-9.951800e-03
-1.306648e-02
-1.622284e-02
-2.322051e-02
-1.213736e-02
-8.542014e-03
-7.294632e-03
-7.308618e-03
-8.052220e-03
-8.963768e-03
-9.590749e-03
-1.019642e-02
-1.041708e-02
-1.085157e-02
-1.543664e-02
-7.566415e-03
-5.280933e-03
-5.099950e-03
-5.460547e-03
-5.486830e-03
-4.554419e-03
-2.517904e-03
5.782198e-04
4.537086e-03
9.409533e-03
1.578546e-02
-4.763712e-03
-4.281732e-03
-5.502636e-03
-6.550092e-03
-6.943454e-03
-6.884029e-03
-6.406665e-03
-5.567087e-03
-4.678918e-03
-2.640528e-03
1.495249e-03
-2.953113e-03
-3.524845e-03
-5.012650e-03
-5.708663e-03
-5.820761e-03
-5.588624e-03
-5.120710e-03
-4.450605e-03
-3.628859e-03
-1.962047e-03
7.581168e-04
-1.514992e-03
-2.903368e-03
-4.362833e-03
-4.866522e-03
-4.831962e-03
-4.510435e-03
-4.098774e-03
-3.580643e-03
-2.984569e-03
-1.792218e-03
-6.206066e-05
-5.057192e-04
-2.399952e-03
-3.794581e-03
-4.110318e-03
-4.004143e-03
-3.732226e-03
-3.384437e-03
-2.980436e-03
-2.595909e-03
-1.866458e-03
-7.311173e-04
-5.338043e-05
-2.088174e-03
-3.268090e-03
-3.478962e-03
-3.421712e-03
-3.200209e-03
-2.898319e-03
-2.594331e-03
-2.388829e-03
-2.026489e-03
-1.336939e-03
1.329714e-04
-1.869902e-03
-2.855974e-03
-3.034566e-03
-3.006643e-03
-2.827475e-03
-2.580613e-03
-2.373255e-03
-2.307541e-03
-2.200990e-03
-1.852387e-03
4.182823e-05
-1.743450e-03
-2.512520e-03
-2.687597e-03
-2.695602e-03
-2.566154e-03
-2.386734e-03
-2.262598e-03
-2.294987e-03
-2.355041e-03
-2.249501e-03
-1.583703e-04
-1.630384e-03
-2.244048e-03
-2.431979e-03
-2.462980e-03
-2.385183e-03
-2.281219e-03
-2.234084e-03
-2.326250e-03
-2.470074e-03
-2.509987e-03
-3.587655e-04
-1.515938e-03
-2.034419e-03
-2.232668e-03
-2.282436e-03
-2.259283e-03
-2.229798e-03
-2.260256e-03
-2.385629e-03
-2.547671e-03
-2.659129e-03
-4.949568e-04
-1.391080e-03
-1.871602e-03
-2.061990e-03
-2.131180e-03
-2.152881e-03
-2.192584e-03
-2.285948e-03
-2.434512e-03
-2.589519e-03
-2.736155e-03
-6.080953e-04
-1.287004e-03
-1.733211e-03
-1.921115e-03
-2.007640e-03
-2.067530e-03
-2.160129e-03
-2.295187e-03
-2.463095e-03
-2.608288e-03
-2.774225e-03
-7.010006e-04
-1.229750e-03
-1.624536e-03
-1.823969e-03
-1.935345e-03
-2.027021e-03
-2.147504e-03
-2.305529e-03
-2.483875e-03
-2.617813e-03
-2.789136e-03
-7.146196e-04
-1.203288e-03
-1.588634e-03
-1.803968e-03
-1.928996e-03
-2.025839e-03
-2.147759e-03
-2.315977e-03
-2.501473e-03
-2.631145e-03
-2.804613e-03
</DataArray>
</PointData>
</Piece>
</UnstructuredGrid>
</VTKFile>
