<?xml version="1.0"?>
<VTKFile type="UnstructuredGrid" version="0.1">
<UnstructuredGrid>
<FieldData>
<DataArray Name="TIME" type="Float64" format="ascii" NumberOfTuples="1">
0.000000e+00
</DataArray>
</FieldData>
<FieldData>
<DataArray Name="CYCLE" type="Int32" format="ascii" NumberOfTuples="1">
0
</DataArray>
</FieldData>
<Piece NumberOfPoints="187" NumberOfCells="160">
<Points>
<DataArray NumberOfComponents="3" type="Float64" format="ascii">
0.000000e+00 0.000000e+00 0.000000e+00
0.000000e+00 1.997580e-01 0.000000e+00
0.000000e+00 3.994955e-01 0.000000e+00
0.000000e+00 5.992108e-01 0.000000e+00
0.000000e+00 7.989007e-01 0.000000e+00
0.000000e+00 9.985610e-01 0.000000e+00
0.000000e+00 1.198188e+00 0.000000e+00
0.000000e+00 1.397784e+00 0.000000e+00
0.000000e+00 1.597368e+00 0.000000e+00
0.000000e+00 1.796984e+00 0.000000e+00
0.000000e+00 1.996625e+00 0.000000e+00
2.250000e-01 0.000000e+00 0.000000e+00
2.250514e-01 1.997782e-01 0.000000e+00
2.250864e-01 3.995290e-01 0.000000e+00
2.251142e-01 5.992566e-01 0.000000e+00
2.251377e-01 7.989600e-01 0.000000e+00
2.251572e-01 9.986363e-01 0.000000e+00
2.251691e-01 1.198281e+00 0.000000e+00
2.251641e-01 1.397890e+00 0.000000e+00
2.251226e-01 1.597465e+00 0.000000e+00
2.250286e-01 1.797024e+00 0.000000e+00
2.250000e-01 1.996625e+00 0.000000e+00
4.500000e-01 0.000000e+00 0.000000e+00
4.500924e-01 1.997989e-01 0.000000e+00
4.501596e-01 3.995769e-01 0.000000e+00
4.502117e-01 5.993357e-01 0.000000e+00
4.502542e-01 7.990763e-01 0.000000e+00
4.502887e-01 9.987980e-01 0.000000e+00
4.503118e-01 1.198498e+00 0.000000e+00
4.503132e-01 1.398168e+00 0.000000e+00
4.502756e-01 1.597789e+00 0.000000e+00
4.501652e-01 1.797300e+00 0.000000e+00
4.500000e-01 1.996625e+00 0.000000e+00
6.750000e-01 0.000000e+00 0.000000e+00
6.751222e-01 1.998258e-01 0.000000e+00
6.752124e-01 3.996386e-01 0.000000e+00
6.752813e-01 5.994405e-01 0.000000e+00
6.753349e-01 7.992337e-01 0.000000e+00
6.753754e-01 9.990208e-01 0.000000e+00
6.753997e-01 1.198805e+00 0.000000e+00
6.753995e-01 1.398593e+00 0.000000e+00
6.753548e-01 1.598396e+00 0.000000e+00
6.752445e-01 1.798259e+00 0.000000e+00
6.747294e-01 1.998342e+00 0.000000e+00
9.000000e-01 0.000000e+00 0.000000e+00
9.001394e-01 1.998563e-01 0.000000e+00
9.002421e-01 3.997076e-01 0.000000e+00
9.003187e-01 5.995559e-01 0.000000e+00
9.003749e-01 7.994050e-01 0.000000e+00
9.004117e-01 9.992594e-01 0.000000e+00
9.004250e-01 1.199126e+00 0.000000e+00
9.004036e-01 1.399016e+00 0.000000e+00
9.003263e-01 1.598945e+00 0.000000e+00
9.001209e-01 1.798938e+00 0.000000e+00
8.997531e-01 1.998916e+00 0.000000e+00
1.125000e+00 0.000000e+00 0.000000e+00
1.125145e+00 1.998872e-01 0.000000e+00
1.125251e+00 3.997754e-01 0.000000e+00
1.125328e+00 5.996667e-01 0.000000e+00
1.125379e+00 7.995642e-01 0.000000e+00
1.125407e+00 9.994728e-01 0.000000e+00
1.125405e+00 1.199399e+00 0.000000e+00
1.125363e+00 1.399349e+00 0.000000e+00
1.125260e+00 1.599330e+00 0.000000e+00
1.125078e+00 1.799326e+00 0.000000e+00
1.124832e+00 1.999318e+00 0.000000e+00
1.350000e+00 0.000000e+00 0.000000e+00
1.350140e+00 1.999147e-01 0.000000e+00
1.350242e+00 3.998351e-01 0.000000e+00
1.350315e+00 5.997620e-01 0.000000e+00
1.350359e+00 7.996977e-01 0.000000e+00
1.350377e+00 9.996456e-01 0.000000e+00
1.350363e+00 1.199609e+00 0.000000e+00
1.350311e+00 1.399590e+00 0.000000e+00
1.350213e+00 1.599585e+00 0.000000e+00
1.350069e+00 1.799584e+00 0.000000e+00
1.349904e+00 1.999573e+00 0.000000e+00
1.575000e+00 0.000000e+00 0.000000e+00
1.575129e+00 1.999384e-01 0.000000e+00
1.575223e+00 3.998848e-01 0.000000e+00
1.575287e+00 5.998390e-01 0.000000e+00
1.575325e+00 7.998021e-01 0.000000e+00
1.575335e+00 9.997755e-01 0.000000e+00
1.575315e+00 1.199760e+00 0.000000e+00
1.575264e+00 1.399756e+00 0.000000e+00
1.575181e+00 1.599757e+00 0.000000e+00
1.575075e+00 1.799757e+00 0.000000e+00
1.574965e+00 1.999748e+00 0.000000e+00
1.800000e+00 0.000000e+00 0.000000e+00
1.800113e+00 1.999570e-01 0.000000e+00
1.800197e+00 3.999229e-01 0.000000e+00
1.800253e+00 5.998967e-01 0.000000e+00
1.800283e+00 7.998783e-01 0.000000e+00
1.800289e+00 9.998681e-01 0.000000e+00
1.800269e+00 1.199865e+00 0.000000e+00
1.800224e+00 1.399868e+00 0.000000e+00
1.800158e+00 1.599872e+00 0.000000e+00
1.800083e+00 1.799873e+00 0.000000e+00
1.800013e+00 1.999866e+00 0.000000e+00
2.025000e+00 0.000000e+00 0.000000e+00
2.025097e+00 1.999710e-01 0.000000e+00
2.025168e+00 3.999509e-01 0.000000e+00
2.025216e+00 5.999382e-01 0.000000e+00
2.025241e+00 7.999320e-01 0.000000e+00
2.025244e+00 9.999320e-01 0.000000e+00
2.025226e+00 1.199937e+00 0.000000e+00
2.025189e+00 1.399943e+00 0.000000e+00
2.025140e+00 1.599949e+00 0.000000e+00
2.025089e+00 1.799951e+00 0.000000e+00
2.025047e+00 1.999947e+00 0.000000e+00
2.250000e+00 0.000000e+00 0.000000e+00
2.250080e+00 1.999814e-01 0.000000e+00
2.250140e+00 3.999710e-01 0.000000e+00
2.250180e+00 5.999671e-01 0.000000e+00
2.250200e+00 7.999690e-01 0.000000e+00
2.250202e+00 9.999753e-01 0.000000e+00
2.250187e+00 1.199984e+00 0.000000e+00
2.250159e+00 1.399993e+00 0.000000e+00
2.250123e+00 1.600000e+00 0.000000e+00
2.250090e+00 1.800003e+00 0.000000e+00
2.250068e+00 2.000001e+00 0.000000e+00
2.475000e+00 0.000000e+00 0.000000e+00
2.475065e+00 1.999891e-01 0.000000e+00
2.475114e+00 3.999854e-01 0.000000e+00
2.475146e+00 5.999876e-01 0.000000e+00
2.475162e+00 7.999946e-01 0.000000e+00
2.475163e+00 1.000005e+00 0.000000e+00
2.475151e+00 1.200016e+00 0.000000e+00
2.475130e+00 1.400026e+00 0.000000e+00
2.475106e+00 1.600034e+00 0.000000e+00
2.475086e+00 1.800038e+00 0.000000e+00
2.475076e+00 2.000040e+00 0.000000e+00
2.700000e+00 0.000000e+00 0.000000e+00
2.700052e+00 1.999949e-01 0.000000e+00
2.700090e+00 3.999962e-01 0.000000e+00
2.700114e+00 6.000029e-01 0.000000e+00
2.700127e+00 8.000134e-01 0.000000e+00
2.700127e+00 1.000026e+00 0.000000e+00
2.700118e+00 1.200039e+00 0.000000e+00
2.700104e+00 1.400050e+00 0.000000e+00
2.700088e+00 1.600059e+00 0.000000e+00
2.700076e+00 1.800064e+00 0.000000e+00
2.700074e+00 2.000067e+00 0.000000e+00
2.925000e+00 0.000000e+00 0.000000e+00
2.925039e+00 1.999997e-01 0.000000e+00
2.925067e+00 4.000054e-01 0.000000e+00
2.925085e+00 6.000157e-01 0.000000e+00
2.925094e+00 8.000292e-01 0.000000e+00
2.925094e+00 1.000044e+00 0.000000e+00
2.925087e+00 1.200058e+00 0.000000e+00
2.925078e+00 1.400070e+00 0.000000e+00
2.925067e+00 1.600079e+00 0.000000e+00
2.925061e+00 1.800086e+00 0.000000e+00
2.925063e+00 2.000091e+00 0.000000e+00
3.150000e+00 0.000000e+00 0.000000e+00
3.150028e+00 2.000045e-01 0.000000e+00
3.150046e+00 4.000146e-01 0.000000e+00
3.150057e+00 6.000289e-01 0.000000e+00
3.150062e+00 8.000452e-01 0.000000e+00
3.150062e+00 1.000062e+00 0.000000e+00
3.150058e+00 1.200077e+00 0.000000e+00
3.150052e+00 1.400090e+00 0.000000e+00
3.150046e+00 1.600100e+00 0.000000e+00
3.150043e+00 1.800107e+00 0.000000e+00
3.150045e+00 2.000113e+00 0.000000e+00
3.375000e+00 0.000000e+00 0.000000e+00
3.375016e+00 2.000107e-01 0.000000e+00
3.375024e+00 4.000272e-01 0.000000e+00
3.375029e+00 6.000459e-01 0.000000e+00
3.375031e+00 8.000649e-01 0.000000e+00
3.375031e+00 1.000083e+00 0.000000e+00
3.375029e+00 1.200099e+00 0.000000e+00
3.375026e+00 1.400113e+00 0.000000e+00
3.375023e+00 1.600123e+00 0.000000e+00
3.375022e+00 1.800131e+00 0.000000e+00
3.375024e+00 2.000137e+00 0.000000e+00
3.600000e+00 0.000000e+00 0.000000e+00
3.600000e+00 2.000268e-01 0.000000e+00
3.600000e+00 4.000496e-01 0.000000e+00
3.600000e+00 6.000710e-01 0.000000e+00
3.600000e+00 8.000913e-01 0.000000e+00
3.600000e+00 1.000110e+00 0.000000e+00
3.600000e+00 1.200127e+00 0.000000e+00
3.600000e+00 1.400140e+00 0.000000e+00
3.600000e+00 1.600151e+00 0.000000e+00
3.600000e+00 1.800159e+00 0.000000e+00
3.600000e+00 2.000165e+00 0.000000e+00
</DataArray>
</Points>
<Cells>
<DataArray Name="connectivity" type="Int32" format="ascii">
0 11 12 1
1 12 13 2
2 13 14 3
3 14 15 4
4 15 16 5
5 16 17 6
6 17 18 7
7 18 19 8
8 19 20 9
9 20 21 10
11 22 23 12
12 23 24 13
13 24 25 14
14 25 26 15
15 26 27 16
16 27 28 17
17 28 29 18
18 29 30 19
19 30 31 20
20 31 32 21
22 33 34 23
23 34 35 24
24 35 36 25
25 36 37 26
26 37 38 27
27 38 39 28
28 39 40 29
29 40 41 30
30 41 42 31
31 42 43 32
33 44 45 34
34 45 46 35
35 46 47 36
36 47 48 37
37 48 49 38
38 49 50 39
39 50 51 40
40 51 52 41
41 52 53 42
42 53 54 43
44 55 56 45
45 56 57 46
46 57 58 47
47 58 59 48
48 59 60 49
49 60 61 50
50 61 62 51
51 62 63 52
52 63 64 53
53 64 65 54
55 66 67 56
56 67 68 57
57 68 69 58
58 69 70 59
59 70 71 60
60 71 72 61
61 72 73 62
62 73 74 63
63 74 75 64
64 75 76 65
66 77 78 67
67 78 79 68
68 79 80 69
69 80 81 70
70 81 82 71
71 82 83 72
72 83 84 73
73 84 85 74
74 85 86 75
75 86 87 76
77 88 89 78
78 89 90 79
79 90 91 80
80 91 92 81
81 92 93 82
82 93 94 83
83 94 95 84
84 95 96 85
85 96 97 86
86 97 98 87
88 99 100 89
89 100 101 90
90 101 102 91
91 102 103 92
92 103 104 93
93 104 105 94
94 105 106 95
95 106 107 96
96 107 108 97
97 108 109 98
99 110 111 100
100 111 112 101
101 112 113 102
102 113 114 103
103 114 115 104
104 115 116 105
105 116 117 106
106 117 118 107
107 118 119 108
108 119 120 109
110 121 122 111
111 122 123 112
112 123 124 113
113 124 125 114
114 125 126 115
115 126 127 116
116 127 128 117
117 128 129 118
118 129 130 119
119 130 131 120
121 132 133 122
122 133 134 123
123 134 135 124
124 135 136 125
125 136 137 126
126 137 138 127
127 138 139 128
128 139 140 129
129 140 141 130
130 141 142 131
132 143 144 133
133 144 145 134
134 145 146 135
135 146 147 136
136 147 148 137
137 148 149 138
138 149 150 139
139 150 151 140
140 151 152 141
141 152 153 142
143 154 155 144
144 155 156 145
145 156 157 146
146 157 158 147
147 158 159 148
148 159 160 149
149 160 161 150
150 161 162 151
151 162 163 152
152 163 164 153
154 165 166 155
155 166 167 156
156 167 168 157
157 168 169 158
158 169 170 159
159 170 171 160
160 171 172 161
161 172 173 162
162 173 174 163
163 174 175 164
165 176 177 166
166 177 178 167
167 178 179 168
168 179 180 169
169 180 181 170
170 181 182 171
171 182 183 172
172 183 184 173
173 184 185 174
174 185 186 175
</DataArray>
<DataArray Name="offsets" type="Int32" format="ascii">
4
8
12
16
20
24
28
32
36
40
44
48
52
56
60
64
68
72
76
80
84
88
92
96
100
104
108
112
116
120
124
128
132
136
140
144
148
152
156
160
164
168
172
176
180
184
188
192
196
200
204
208
212
216
220
224
228
232
236
240
244
248
252
256
260
264
268
272
276
280
284
288
292
296
300
304
308
312
316
320
324
328
332
336
340
344
348
352
356
360
364
368
372
376
380
384
388
392
396
400
404
408
412
416
420
424
428
432
436
440
444
448
452
456
460
464
468
472
476
480
484
488
492
496
500
504
508
512
516
520
524
528
532
536
540
544
548
552
556
560
564
568
572
576
580
584
588
592
596
600
604
608
612
616
620
624
628
632
636
640
</DataArray>
<DataArray Name="types" type="UInt8" format="ascii">
9
9
9
9
9
9
9
9
9
9
9
9
9
9
9
9
9
9
9
9
9
9
9
9
9
9
9
9
9
9
9
9
9
9
9
9
9
9
9
9
9
9
9
9
9
9
9
9
9
9
9
9
9
9
9
9
9
9
9
9
9
9
9
9
9
9
9
9
9
9
9
9
9
9
9
9
9
9
9
9
9
9
9
9
9
9
9
9
9
9
9
9
9
9
9
9
9
9
9
9
9
9
9
9
9
9
9
9
9
9
9
9
9
9
9
9
9
9
9
9
9
9
9
9
9
9
9
9
9
9
9
9
9
9
9
9
9
9
9
9
9
9
9
9
9
9
9
9
9
9
9
9
9
9
9
9
9
9
9
9
</DataArray>
</Cells>
<PointData>
<DataArray Name="disp" type="Float64" NumberOfComponents="3" format="ascii">
0.000000e+00 0.000000e+00 0.000000e+00
0.000000e+00 -2.420393e-04 0.000000e+00
0.000000e+00 -5.045095e-04 0.000000e+00
0.000000e+00 -7.891853e-04 0.000000e+00
0.000000e+00 -1.099266e-03 0.000000e+00
0.000000e+00 -1.438994e-03 0.000000e+00
0.000000e+00 -1.812341e-03 0.000000e+00
0.000000e+00 -2.216312e-03 0.000000e+00
0.000000e+00 -2.632116e-03 0.000000e+00
0.000000e+00 -3.016029e-03 0.000000e+00
0.000000e+00 -3.375000e-03 0.000000e+00
0.000000e+00 0.000000e+00 0.000000e+00
5.142357e-05 -2.217516e-04 0.000000e+00
8.642812e-05 -4.709703e-04 0.000000e+00
1.141922e-04 -7.433835e-04 0.000000e+00
1.377454e-04 -1.039951e-03 0.000000e+00
1.572171e-04 -1.363710e-03 0.000000e+00
1.690944e-04 -1.719425e-03 0.000000e+00
1.640913e-04 -2.110088e-03 0.000000e+00
1.226092e-04 -2.534606e-03 0.000000e+00
2.857896e-05 -2.976152e-03 0.000000e+00
0.000000e+00 -3.375000e-03 0.000000e+00
0.000000e+00 0.000000e+00 0.000000e+00
9.241691e-05 -2.010705e-04 0.000000e+00
1.595754e-04 -4.230651e-04 0.000000e+00
2.117090e-04 -6.643125e-04 0.000000e+00
2.542353e-04 -9.237123e-04 0.000000e+00
2.887283e-04 -1.202013e-03 0.000000e+00
3.118454e-04 -1.502139e-03 0.000000e+00
3.131570e-04 -1.831804e-03 0.000000e+00
2.756335e-04 -2.210966e-03 0.000000e+00
1.652536e-04 -2.699843e-03 0.000000e+00
0.000000e+00 -3.375000e-03 0.000000e+00
0.000000e+00 0.000000e+00 0.000000e+00
1.221834e-04 -1.741621e-04 0.000000e+00
2.124512e-04 -3.614306e-04 0.000000e+00
2.812685e-04 -5.594938e-04 0.000000e+00
3.349583e-04 -7.662913e-04 0.000000e+00
3.754022e-04 -9.791865e-04 0.000000e+00
3.997164e-04 -1.194674e-03 0.000000e+00
3.995614e-04 -1.407245e-03 0.000000e+00
3.548499e-04 -1.604438e-03 0.000000e+00
2.445169e-04 -1.741370e-03 0.000000e+00
-2.706169e-04 -1.658179e-03 0.000000e+00
0.000000e+00 0.000000e+00 0.000000e+00
1.394166e-04 -1.437394e-04 0.000000e+00
2.420761e-04 -2.924527e-04 0.000000e+00
3.187694e-04 -4.440689e-04 0.000000e+00
3.748875e-04 -5.950171e-04 0.000000e+00
4.116762e-04 -7.405641e-04 0.000000e+00
4.250327e-04 -8.739034e-04 0.000000e+00
4.035933e-04 -9.842770e-04 0.000000e+00
3.262364e-04 -1.054824e-03 0.000000e+00
1.208337e-04 -1.061781e-03 0.000000e+00
-2.469255e-04 -1.084013e-03 0.000000e+00
0.000000e+00 0.000000e+00 0.000000e+00
1.446006e-04 -1.127737e-04 0.000000e+00
2.506915e-04 -2.245630e-04 0.000000e+00
3.275413e-04 -3.333408e-04 0.000000e+00
3.794703e-04 -4.358172e-04 0.000000e+00
4.067504e-04 -5.272023e-04 0.000000e+00
4.048041e-04 -6.012005e-04 0.000000e+00
3.631281e-04 -6.506306e-04 0.000000e+00
2.604409e-04 -6.704089e-04 0.000000e+00
7.800741e-05 -6.740993e-04 0.000000e+00
-1.683242e-04 -6.819676e-04 0.000000e+00
0.000000e+00 0.000000e+00 0.000000e+00
1.398689e-04 -8.525715e-05 0.000000e+00
2.425119e-04 -1.648564e-04 0.000000e+00
3.145654e-04 -2.379934e-04 0.000000e+00
3.594354e-04 -3.022909e-04 0.000000e+00
3.769146e-04 -3.543975e-04 0.000000e+00
3.632722e-04 -3.911468e-04 0.000000e+00
3.111760e-04 -4.103228e-04 0.000000e+00
2.133771e-04 -4.152088e-04 0.000000e+00
6.942591e-05 -4.155812e-04 0.000000e+00
-9.598108e-05 -4.269125e-04 0.000000e+00
0.000000e+00 0.000000e+00 0.000000e+00
1.286008e-04 -6.159820e-05 0.000000e+00
2.229021e-04 -1.152463e-04 0.000000e+00
2.875014e-04 -1.610320e-04 0.000000e+00
3.247293e-04 -1.978583e-04 0.000000e+00
3.346320e-04 -2.244524e-04 0.000000e+00
3.153065e-04 -2.396548e-04 0.000000e+00
2.641007e-04 -2.444173e-04 0.000000e+00
1.812475e-04 -2.430210e-04 0.000000e+00
7.487621e-05 -2.433882e-04 0.000000e+00
-3.460947e-05 -2.525101e-04 0.000000e+00
0.000000e+00 0.000000e+00 0.000000e+00
1.133991e-04 -4.297004e-05 0.000000e+00
1.968553e-04 -7.712242e-05 0.000000e+00
2.530277e-04 -1.033126e-04 0.000000e+00
2.834736e-04 -1.217011e-04 0.000000e+00
2.888327e-04 -1.318900e-04 0.000000e+00
2.687934e-04 -1.344922e-04 0.000000e+00
2.239448e-04 -1.317117e-04 0.000000e+00
1.583046e-04 -1.277704e-04 0.000000e+00
8.314091e-05 -1.270902e-04 0.000000e+00
1.317829e-05 -1.339485e-04 0.000000e+00
0.000000e+00 0.000000e+00 0.000000e+00
9.675942e-05 -2.897895e-05 0.000000e+00
1.684696e-04 -4.908929e-05 0.000000e+00
2.162224e-04 -6.187162e-05 0.000000e+00
2.410665e-04 -6.801093e-05 0.000000e+00
2.439621e-04 -6.800357e-05 0.000000e+00
2.258706e-04 -6.341586e-05 0.000000e+00
1.892180e-04 -5.665983e-05 0.000000e+00
1.400418e-04 -5.084163e-05 0.000000e+00
8.916781e-05 -4.903258e-05 0.000000e+00
4.710998e-05 -5.313266e-05 0.000000e+00
0.000000e+00 0.000000e+00 0.000000e+00
8.043487e-05 -1.857752e-05 0.000000e+00
1.404628e-04 -2.897427e-05 0.000000e+00
1.799883e-04 -3.292189e-05 0.000000e+00
2.001639e-04 -3.101458e-05 0.000000e+00
2.018505e-04 -2.476003e-05 0.000000e+00
1.868497e-04 -1.601159e-05 0.000000e+00
1.584425e-04 -7.038371e-06 0.000000e+00
1.233478e-04 -1.930570e-07 0.000000e+00
9.028466e-05 2.891566e-06 0.000000e+00
6.799241e-05 1.449344e-06 0.000000e+00
0.000000e+00 0.000000e+00 0.000000e+00
6.539691e-05 -1.092229e-05 0.000000e+00
1.139862e-04 -1.463916e-05 0.000000e+00
1.459102e-04 -1.240585e-05 0.000000e+00
1.619175e-04 -5.345561e-06 0.000000e+00
1.630041e-04 4.721963e-06 0.000000e+00
1.512669e-04 1.591889e-05 0.000000e+00
1.302692e-04 2.627297e-05 0.000000e+00
1.060572e-04 3.408422e-05 0.000000e+00
8.588033e-05 3.846686e-05 0.000000e+00
7.642956e-05 3.951284e-05 0.000000e+00
0.000000e+00 0.000000e+00 0.000000e+00
5.172366e-05 -5.120283e-06 0.000000e+00
8.959211e-05 -3.825331e-06 0.000000e+00
1.144255e-04 2.865883e-06 0.000000e+00
1.265550e-04 1.343967e-05 0.000000e+00
1.271837e-04 2.607988e-05 0.000000e+00
1.184111e-04 3.890411e-05 0.000000e+00
1.035099e-04 5.022321e-05 0.000000e+00
8.747106e-05 5.883114e-05 0.000000e+00
7.586439e-05 6.446584e-05 0.000000e+00
7.411828e-05 6.758694e-05 0.000000e+00
0.000000e+00 0.000000e+00 0.000000e+00
3.935893e-05 -2.495770e-07 0.000000e+00
6.714761e-05 5.409916e-06 0.000000e+00
8.519979e-05 1.572295e-05 0.000000e+00
9.355482e-05 2.918387e-05 0.000000e+00
9.373007e-05 4.383535e-05 0.000000e+00
8.748118e-05 5.794667e-05 0.000000e+00
7.765360e-05 7.013808e-05 0.000000e+00
6.747699e-05 7.931417e-05 0.000000e+00
6.119921e-05 8.589342e-05 0.000000e+00
6.306847e-05 9.068994e-05 0.000000e+00
0.000000e+00 0.000000e+00 0.000000e+00
2.792706e-05 4.539837e-06 0.000000e+00
4.593334e-05 1.461085e-05 0.000000e+00
5.704002e-05 2.886502e-05 0.000000e+00
6.202979e-05 4.518655e-05 0.000000e+00
6.177081e-05 6.182190e-05 0.000000e+00
5.782258e-05 7.701005e-05 0.000000e+00
5.187323e-05 8.986334e-05 0.000000e+00
4.600134e-05 9.965184e-05 0.000000e+00
4.300288e-05 1.069516e-04 0.000000e+00
4.540857e-05 1.129836e-04 0.000000e+00
0.000000e+00 0.000000e+00 0.000000e+00
1.635774e-05 1.070850e-05 0.000000e+00
2.399328e-05 2.716000e-05 0.000000e+00
2.886034e-05 4.587492e-05 0.000000e+00
3.096184e-05 6.490253e-05 0.000000e+00
3.068209e-05 8.307489e-05 0.000000e+00
2.875329e-05 9.908981e-05 0.000000e+00
2.603843e-05 1.125408e-04 0.000000e+00
2.330988e-05 1.227859e-04 0.000000e+00
2.216533e-05 1.306692e-04 0.000000e+00
2.362281e-05 1.373970e-04 0.000000e+00
0.000000e+00 0.000000e+00 0.000000e+00
0.000000e+00 2.680315e-05 0.000000e+00
0.000000e+00 4.959555e-05 0.000000e+00
0.000000e+00 7.102185e-05 0.000000e+00
0.000000e+00 9.127529e-05 0.000000e+00
0.000000e+00 1.100514e-04 0.000000e+00
0.000000e+00 1.266068e-04 0.000000e+00
0.000000e+00 1.403580e-04 0.000000e+00
0.000000e+00 1.506772e-04 0.000000e+00
0.000000e+00 1.585711e-04 0.000000e+00
0.000000e+00 1.654495e-04 0.000000e+00
</DataArray>
<DataArray Name="shear" type="Float64" NumberOfComponents="1" format="ascii">
1.258363e-03
1.458679e-03
1.737553e-03
1.985910e-03
2.230326e-03
2.475303e-03
2.689899e-03
2.780613e-03
2.577666e-03
2.117061e-03
1.904845e-03
1.209872e-03
1.400731e-03
1.674112e-03
1.915576e-03
2.149832e-03
2.387364e-03
2.614846e-03
2.780832e-03
2.789788e-03
2.561954e-03
2.315204e-03
1.160559e-03
1.304174e-03
1.523846e-03
1.732332e-03
1.938443e-03
2.154936e-03
2.392322e-03
2.663455e-03
3.006105e-03
3.320310e-03
3.347366e-03
1.108565e-03
1.196187e-03
1.330478e-03
1.476307e-03
1.629547e-03
1.793122e-03
1.973448e-03
2.179111e-03
2.431177e-03
2.350450e-03
2.447022e-03
1.037828e-03
1.073338e-03
1.123164e-03
1.198506e-03
1.284741e-03
1.374062e-03
1.454718e-03
1.501601e-03
1.406121e-03
9.096123e-04
3.783594e-04
9.468747e-04
9.424693e-04
9.251079e-04
9.393487e-04
9.653723e-04
9.878128e-04
9.863240e-04
9.218488e-04
7.208606e-04
3.561507e-04
3.039305e-04
8.427200e-04
8.134227e-04
7.526873e-04
7.238907e-04
7.080222e-04
6.876715e-04
6.425719e-04
5.461261e-04
3.689544e-04
1.767626e-04
2.700312e-04
7.321375e-04
6.915943e-04
6.111871e-04
5.588652e-04
5.193382e-04
4.784134e-04
4.209020e-04
3.305026e-04
1.952063e-04
1.128771e-04
2.340877e-04
6.214404e-04
5.787577e-04
4.969318e-04
4.384196e-04
3.928815e-04
3.499922e-04
2.973125e-04
2.228872e-04
1.184420e-04
8.085697e-05
1.838001e-04
5.171138e-04
4.786551e-04
4.069012e-04
3.548415e-04
3.162129e-04
2.813274e-04
2.394692e-04
1.810188e-04
9.677526e-05
5.671437e-05
1.335570e-04
4.228036e-04
3.914084e-04
3.350357e-04
2.974304e-04
2.720258e-04
2.479002e-04
2.160415e-04
1.683365e-04
9.936472e-05
5.314629e-05
9.765298e-05
3.398931e-04
3.159554e-04
2.779627e-04
2.585294e-04
2.467691e-04
2.318506e-04
2.064512e-04
1.656462e-04
1.106312e-04
7.511587e-05
9.228657e-05
2.677113e-04
2.522100e-04
2.347401e-04
2.335478e-04
2.334519e-04
2.247007e-04
2.025623e-04
1.665843e-04
1.246801e-04
1.040415e-04
1.122918e-04
2.053768e-04
2.003388e-04
2.055751e-04
2.219874e-04
2.302571e-04
2.242528e-04
2.034220e-04
1.716402e-04
1.405858e-04
1.313517e-04
1.389965e-04
1.531938e-04
1.643536e-04
1.963292e-04
2.259951e-04
2.371696e-04
2.305448e-04
2.101030e-04
1.826171e-04
1.595155e-04
1.557646e-04
1.628119e-04
1.252865e-04
1.674659e-04
2.160088e-04
2.441003e-04
2.516655e-04
2.430526e-04
2.238551e-04
1.999648e-04
1.806387e-04
1.763494e-04
1.805356e-04
1.410117e-04
1.911285e-04
2.337473e-04
2.552603e-04
2.603137e-04
2.518758e-04
2.343066e-04
2.120686e-04
1.927080e-04
1.852109e-04
1.867124e-04
</DataArray>
<DataArray Name="stress" type="Float64" NumberOfComponents="9" format="ascii">
-6.391488e+04 -1.159114e+01 0.000000e+00 -1.159114e+01 -7.307288e+04 0.000000e+00 0.000000e+00 0.000000e+00 0.000000e+00
-6.263145e+04 1.153699e+02 0.000000e+00 1.153699e+02 -7.308278e+04 0.000000e+00 0.000000e+00 0.000000e+00 0.000000e+00
-6.139927e+04 2.515903e+02 0.000000e+00 2.515903e+02 -7.359842e+04 0.000000e+00 0.000000e+00 0.000000e+00 0.000000e+00
-6.063466e+04 3.934974e+02 0.000000e+00 3.934974e+02 -7.430339e+04 0.000000e+00 0.000000e+00 0.000000e+00 0.000000e+00
-6.019317e+04 5.609008e+02 0.000000e+00 5.609008e+02 -7.524864e+04 0.000000e+00 0.000000e+00 0.000000e+00 0.000000e+00
-6.009741e+04 7.508281e+02 0.000000e+00 7.508281e+02 -7.648120e+04 0.000000e+00 0.000000e+00 0.000000e+00 0.000000e+00
-6.041851e+04 9.198710e+02 0.000000e+00 9.198710e+02 -7.798746e+04 0.000000e+00 0.000000e+00 0.000000e+00 0.000000e+00
-6.136087e+04 9.446970e+02 0.000000e+00 9.446970e+02 -7.956984e+04 0.000000e+00 0.000000e+00 0.000000e+00 0.000000e+00
-6.331385e+04 5.530290e+02 0.000000e+00 5.530290e+02 -8.069393e+04 0.000000e+00 0.000000e+00 0.000000e+00 0.000000e+00
-6.613891e+04 -4.700573e+01 0.000000e+00 -4.700573e+01 -8.110206e+04 0.000000e+00 0.000000e+00 0.000000e+00 0.000000e+00
-6.719385e+04 -2.902836e+02 0.000000e+00 -2.902836e+02 -8.090073e+04 0.000000e+00 0.000000e+00 0.000000e+00 0.000000e+00
-6.373211e+04 5.287236e+02 0.000000e+00 5.287236e+02 -7.234195e+04 0.000000e+00 0.000000e+00 0.000000e+00 0.000000e+00
-6.260604e+04 5.936108e+02 0.000000e+00 5.936108e+02 -7.248028e+04 0.000000e+00 0.000000e+00 0.000000e+00 0.000000e+00
-6.147945e+04 6.963077e+02 0.000000e+00 6.963077e+02 -7.311057e+04 0.000000e+00 0.000000e+00 0.000000e+00 0.000000e+00
-6.076667e+04 9.063388e+02 0.000000e+00 9.063388e+02 -7.381592e+04 0.000000e+00 0.000000e+00 0.000000e+00 0.000000e+00
-6.036578e+04 1.193233e+03 0.000000e+00 1.193233e+03 -7.470676e+04 0.000000e+00 0.000000e+00 0.000000e+00 0.000000e+00
-6.028498e+04 1.530811e+03 0.000000e+00 1.530811e+03 -7.585592e+04 0.000000e+00 0.000000e+00 0.000000e+00 0.000000e+00
-6.058649e+04 1.844193e+03 0.000000e+00 1.844193e+03 -7.731797e+04 0.000000e+00 0.000000e+00 0.000000e+00 0.000000e+00
-6.139158e+04 1.954404e+03 0.000000e+00 1.954404e+03 -7.911890e+04 0.000000e+00 0.000000e+00 0.000000e+00 0.000000e+00
-6.297388e+04 1.503264e+03 0.000000e+00 1.503264e+03 -8.116274e+04 0.000000e+00 0.000000e+00 0.000000e+00 0.000000e+00
-6.560395e+04 6.336122e+02 0.000000e+00 6.336122e+02 -8.301312e+04 0.000000e+00 0.000000e+00 0.000000e+00 0.000000e+00
-6.784716e+04 -3.038676e+02 0.000000e+00 -3.038676e+02 -8.412106e+04 0.000000e+00 0.000000e+00 0.000000e+00 0.000000e+00
-6.347844e+04 1.220871e+03 0.000000e+00 1.220871e+03 -7.118604e+04 0.000000e+00 0.000000e+00 0.000000e+00 0.000000e+00
-6.261125e+04 1.257260e+03 0.000000e+00 1.257260e+03 -7.133373e+04 0.000000e+00 0.000000e+00 0.000000e+00 0.000000e+00
-6.169824e+04 1.366517e+03 0.000000e+00 1.366517e+03 -7.187738e+04 0.000000e+00 0.000000e+00 0.000000e+00 0.000000e+00
-6.112065e+04 1.692996e+03 0.000000e+00 1.692996e+03 -7.245151e+04 0.000000e+00 0.000000e+00 0.000000e+00 0.000000e+00
-6.083352e+04 2.177425e+03 0.000000e+00 2.177425e+03 -7.311489e+04 0.000000e+00 0.000000e+00 0.000000e+00 0.000000e+00
-6.081494e+04 2.785647e+03 0.000000e+00 2.785647e+03 -7.392919e+04 0.000000e+00 0.000000e+00 0.000000e+00 0.000000e+00
-6.110756e+04 3.474946e+03 0.000000e+00 3.474946e+03 -7.499329e+04 0.000000e+00 0.000000e+00 0.000000e+00 0.000000e+00
-6.178839e+04 4.181655e+03 0.000000e+00 4.181655e+03 -7.656038e+04 0.000000e+00 0.000000e+00 0.000000e+00 0.000000e+00
-6.316921e+04 4.788253e+03 0.000000e+00 4.788253e+03 -7.930385e+04 0.000000e+00 0.000000e+00 0.000000e+00 0.000000e+00
-6.708004e+04 5.347566e+03 0.000000e+00 5.347566e+03 -8.415346e+04 0.000000e+00 0.000000e+00 0.000000e+00 0.000000e+00
-7.369069e+04 6.017056e+03 0.000000e+00 6.017056e+03 -8.886605e+04 0.000000e+00 0.000000e+00 0.000000e+00 0.000000e+00
-6.314168e+04 1.734951e+03 0.000000e+00 1.734951e+03 -6.974910e+04 0.000000e+00 0.000000e+00 0.000000e+00 0.000000e+00
-6.255691e+04 1.763747e+03 0.000000e+00 1.763747e+03 -6.983930e+04 0.000000e+00 0.000000e+00 0.000000e+00 0.000000e+00
-6.195053e+04 1.853214e+03 0.000000e+00 1.853214e+03 -7.017086e+04 0.000000e+00 0.000000e+00 0.000000e+00 0.000000e+00
-6.159015e+04 2.195251e+03 0.000000e+00 2.195251e+03 -7.047026e+04 0.000000e+00 0.000000e+00 0.000000e+00 0.000000e+00
-6.146583e+04 2.725284e+03 0.000000e+00 2.725284e+03 -7.073511e+04 0.000000e+00 0.000000e+00 0.000000e+00 0.000000e+00
-6.156902e+04 3.407914e+03 0.000000e+00 3.407914e+03 -7.095152e+04 0.000000e+00 0.000000e+00 0.000000e+00 0.000000e+00
-6.190667e+04 4.221359e+03 0.000000e+00 4.221359e+03 -7.107957e+04 0.000000e+00 0.000000e+00 0.000000e+00 0.000000e+00
-6.247636e+04 5.156268e+03 0.000000e+00 5.156268e+03 -7.099480e+04 0.000000e+00 0.000000e+00 0.000000e+00 0.000000e+00
-6.333231e+04 6.206453e+03 0.000000e+00 6.206453e+03 -7.024730e+04 0.000000e+00 0.000000e+00 0.000000e+00 0.000000e+00
-6.443425e+04 6.154862e+03 0.000000e+00 6.154862e+03 -6.718208e+04 0.000000e+00 0.000000e+00 0.000000e+00 0.000000e+00
-6.590391e+04 5.977115e+03 0.000000e+00 5.977115e+03 -6.524280e+04 0.000000e+00 0.000000e+00 0.000000e+00 0.000000e+00
-6.275175e+04 2.019563e+03 0.000000e+00 2.019563e+03 -6.808159e+04 0.000000e+00 0.000000e+00 0.000000e+00 0.000000e+00
-6.246291e+04 2.032464e+03 0.000000e+00 2.032464e+03 -6.810733e+04 0.000000e+00 0.000000e+00 0.000000e+00 0.000000e+00
-6.216618e+04 2.068384e+03 0.000000e+00 2.068384e+03 -6.820815e+04 0.000000e+00 0.000000e+00 0.000000e+00 0.000000e+00
-6.202695e+04 2.333125e+03 0.000000e+00 2.333125e+03 -6.822121e+04 0.000000e+00 0.000000e+00 0.000000e+00 0.000000e+00
-6.205804e+04 2.753827e+03 0.000000e+00 2.753827e+03 -6.809875e+04 0.000000e+00 0.000000e+00 0.000000e+00 0.000000e+00
-6.226712e+04 3.269987e+03 0.000000e+00 3.269987e+03 -6.777969e+04 0.000000e+00 0.000000e+00 0.000000e+00 0.000000e+00
-6.265063e+04 3.799973e+03 0.000000e+00 3.799973e+03 -6.715421e+04 0.000000e+00 0.000000e+00 0.000000e+00 0.000000e+00
-6.317190e+04 4.209012e+03 0.000000e+00 4.209012e+03 -6.602268e+04 0.000000e+00 0.000000e+00 0.000000e+00 0.000000e+00
-6.369619e+04 4.040074e+03 0.000000e+00 4.040074e+03 -6.405258e+04 0.000000e+00 0.000000e+00 0.000000e+00 0.000000e+00
-6.311804e+04 2.408007e+03 0.000000e+00 2.408007e+03 -6.185832e+04 0.000000e+00 0.000000e+00 0.000000e+00 0.000000e+00
-5.975557e+04 7.618281e+02 0.000000e+00 7.618281e+02 -6.002747e+04 0.000000e+00 0.000000e+00 0.000000e+00 0.000000e+00
-6.231827e+04 2.097122e+03 0.000000e+00 2.097122e+03 -6.639673e+04 0.000000e+00 0.000000e+00 0.000000e+00 0.000000e+00
-6.230524e+04 2.082008e+03 0.000000e+00 2.082008e+03 -6.637274e+04 0.000000e+00 0.000000e+00 0.000000e+00 0.000000e+00
-6.228818e+04 2.034583e+03 0.000000e+00 2.034583e+03 -6.628027e+04 0.000000e+00 0.000000e+00 0.000000e+00 0.000000e+00
-6.233379e+04 2.165066e+03 0.000000e+00 2.165066e+03 -6.607974e+04 0.000000e+00 0.000000e+00 0.000000e+00 0.000000e+00
-6.246938e+04 2.391611e+03 0.000000e+00 2.391611e+03 -6.571585e+04 0.000000e+00 0.000000e+00 0.000000e+00 0.000000e+00
-6.269872e+04 2.628091e+03 0.000000e+00 2.628091e+03 -6.513456e+04 0.000000e+00 0.000000e+00 0.000000e+00 0.000000e+00
-6.297689e+04 2.762396e+03 0.000000e+00 2.762396e+03 -6.426454e+04 0.000000e+00 0.000000e+00 0.000000e+00 0.000000e+00
-6.316575e+04 2.601566e+03 0.000000e+00 2.601566e+03 -6.305596e+04 0.000000e+00 0.000000e+00 0.000000e+00 0.000000e+00
-6.284885e+04 1.886954e+03 0.000000e+00 1.886954e+03 -6.169165e+04 0.000000e+00 0.000000e+00 0.000000e+00 0.000000e+00
-6.087792e+04 7.193782e+02 0.000000e+00 7.193782e+02 -6.062821e+04 0.000000e+00 0.000000e+00 0.000000e+00 0.000000e+00
-5.816907e+04 1.282745e+02 0.000000e+00 1.282745e+02 -5.989587e+04 0.000000e+00 0.000000e+00 0.000000e+00 0.000000e+00
-6.190422e+04 1.994272e+03 0.000000e+00 1.994272e+03 -6.485711e+04 0.000000e+00 0.000000e+00 0.000000e+00 0.000000e+00
-6.209863e+04 1.948593e+03 0.000000e+00 1.948593e+03 -6.479445e+04 0.000000e+00 0.000000e+00 0.000000e+00 0.000000e+00
-6.229366e+04 1.816949e+03 0.000000e+00 1.816949e+03 -6.457742e+04 0.000000e+00 0.000000e+00 0.000000e+00 0.000000e+00
-6.246210e+04 1.802703e+03 0.000000e+00 1.802703e+03 -6.426949e+04 0.000000e+00 0.000000e+00 0.000000e+00 0.000000e+00
-6.263713e+04 1.834855e+03 0.000000e+00 1.834855e+03 -6.383037e+04 0.000000e+00 0.000000e+00 0.000000e+00 0.000000e+00
-6.280189e+04 1.829923e+03 0.000000e+00 1.829923e+03 -6.322622e+04 0.000000e+00 0.000000e+00 0.000000e+00 0.000000e+00
-6.288015e+04 1.688860e+03 0.000000e+00 1.688860e+03 -6.245050e+04 0.000000e+00 0.000000e+00 0.000000e+00 0.000000e+00
-6.269457e+04 1.312235e+03 0.000000e+00 1.312235e+03 -6.157784e+04 0.000000e+00 0.000000e+00 0.000000e+00 0.000000e+00
-6.186313e+04 6.926357e+02 0.000000e+00 6.926357e+02 -6.077641e+04 0.000000e+00 0.000000e+00 0.000000e+00 0.000000e+00
-5.996847e+04 1.109020e+02 0.000000e+00 1.109020e+02 -6.024975e+04 0.000000e+00 0.000000e+00 0.000000e+00 0.000000e+00
-5.803564e+04 -1.269224e+02 0.000000e+00 -1.269224e+02 -5.984874e+04 0.000000e+00 0.000000e+00 0.000000e+00 0.000000e+00
-6.151573e+04 1.769321e+03 0.000000e+00 1.769321e+03 -6.355179e+04 0.000000e+00 0.000000e+00 0.000000e+00 0.000000e+00
-6.184635e+04 1.704253e+03 0.000000e+00 1.704253e+03 -6.347471e+04 0.000000e+00 0.000000e+00 0.000000e+00 0.000000e+00
-6.218066e+04 1.516334e+03 0.000000e+00 1.516334e+03 -6.320648e+04 0.000000e+00 0.000000e+00 0.000000e+00 0.000000e+00
-6.242105e+04 1.394804e+03 0.000000e+00 1.394804e+03 -6.288036e+04 0.000000e+00 0.000000e+00 0.000000e+00 0.000000e+00
-6.259362e+04 1.284151e+03 0.000000e+00 1.284151e+03 -6.247009e+04 0.000000e+00 0.000000e+00 0.000000e+00 0.000000e+00
-6.267235e+04 1.127621e+03 0.000000e+00 1.127621e+03 -6.196636e+04 0.000000e+00 0.000000e+00 0.000000e+00 0.000000e+00
-6.258139e+04 8.714980e+02 0.000000e+00 8.714980e+02 -6.139510e+04 0.000000e+00 0.000000e+00 0.000000e+00 0.000000e+00
-6.217436e+04 5.012092e+02 0.000000e+00 5.012092e+02 -6.083354e+04 0.000000e+00 0.000000e+00 0.000000e+00 0.000000e+00
-6.124929e+04 8.285715e+01 0.000000e+00 8.285715e+01 -6.037209e+04 0.000000e+00 0.000000e+00 0.000000e+00 0.000000e+00
-5.966610e+04 -1.630378e+02 0.000000e+00 -1.630378e+02 -6.011496e+04 0.000000e+00 0.000000e+00 0.000000e+00 0.000000e+00
-5.827812e+04 -1.982352e+02 0.000000e+00 -1.982352e+02 -5.988248e+04 0.000000e+00 0.000000e+00 0.000000e+00 0.000000e+00
-6.117980e+04 1.493499e+03 0.000000e+00 1.493499e+03 -6.251162e+04 0.000000e+00 0.000000e+00 0.000000e+00 0.000000e+00
-6.158155e+04 1.415844e+03 0.000000e+00 1.415844e+03 -6.243460e+04 0.000000e+00 0.000000e+00 0.000000e+00 0.000000e+00
-6.199292e+04 1.199855e+03 0.000000e+00 1.199855e+03 -6.216350e+04 0.000000e+00 0.000000e+00 0.000000e+00 0.000000e+00
-6.226539e+04 1.013155e+03 0.000000e+00 1.013155e+03 -6.186516e+04 0.000000e+00 0.000000e+00 0.000000e+00 0.000000e+00
-6.241802e+04 8.205366e+02 0.000000e+00 8.205366e+02 -6.152736e+04 0.000000e+00 0.000000e+00 0.000000e+00 0.000000e+00
-6.242723e+04 5.956489e+02 0.000000e+00 5.956489e+02 -6.115125e+04 0.000000e+00 0.000000e+00 0.000000e+00 0.000000e+00
-6.224035e+04 3.224814e+02 0.000000e+00 3.224814e+02 -6.076829e+04 0.000000e+00 0.000000e+00 0.000000e+00 0.000000e+00
-6.177039e+04 2.493794e+01 0.000000e+00 2.493794e+01 -6.042748e+04 0.000000e+00 0.000000e+00 0.000000e+00 0.000000e+00
-6.091337e+04 -2.364066e+02 0.000000e+00 -2.364066e+02 -6.016438e+04 0.000000e+00 0.000000e+00 0.000000e+00 0.000000e+00
-5.967571e+04 -2.842199e+02 0.000000e+00 -2.842199e+02 -6.004631e+04 0.000000e+00 0.000000e+00 0.000000e+00 0.000000e+00
-5.868470e+04 -2.264793e+02 0.000000e+00 -2.264793e+02 -5.990862e+04 0.000000e+00 0.000000e+00 0.000000e+00 0.000000e+00
-6.090004e+04 1.204976e+03 0.000000e+00 1.204976e+03 -6.172065e+04 0.000000e+00 0.000000e+00 0.000000e+00 0.000000e+00
-6.132257e+04 1.125604e+03 0.000000e+00 1.125604e+03 -6.164907e+04 0.000000e+00 0.000000e+00 0.000000e+00 0.000000e+00
-6.176354e+04 9.056044e+02 0.000000e+00 9.056044e+02 -6.139748e+04 0.000000e+00 0.000000e+00 0.000000e+00 0.000000e+00
-6.204567e+04 6.894220e+02 0.000000e+00 6.894220e+02 -6.114445e+04 0.000000e+00 0.000000e+00 0.000000e+00 0.000000e+00
-6.217768e+04 4.665029e+02 0.000000e+00 4.665029e+02 -6.088725e+04 0.000000e+00 0.000000e+00 0.000000e+00 0.000000e+00
-6.215071e+04 2.282578e+02 0.000000e+00 2.282578e+02 -6.062285e+04 0.000000e+00 0.000000e+00 0.000000e+00 0.000000e+00
-6.193631e+04 -1.909549e+01 0.000000e+00 -1.909549e+01 -6.037866e+04 0.000000e+00 0.000000e+00 0.000000e+00 0.000000e+00
-6.148839e+04 -2.408141e+02 0.000000e+00 -2.408141e+02 -6.018362e+04 0.000000e+00 0.000000e+00 0.000000e+00 0.000000e+00
-6.076762e+04 -3.894061e+02 0.000000e+00 -3.894061e+02 -6.004971e+04 0.000000e+00 0.000000e+00 0.000000e+00 0.000000e+00
-5.983398e+04 -3.267122e+02 0.000000e+00 -3.267122e+02 -6.000574e+04 0.000000e+00 0.000000e+00 0.000000e+00 0.000000e+00
-5.913780e+04 -2.226360e+02 0.000000e+00 -2.226360e+02 -5.993483e+04 0.000000e+00 0.000000e+00 0.000000e+00 0.000000e+00
-6.067793e+04 9.251953e+02 0.000000e+00 9.251953e+02 -6.113196e+04 0.000000e+00 0.000000e+00 0.000000e+00 0.000000e+00
-6.108708e+04 8.518003e+02 0.000000e+00 8.518003e+02 -6.106536e+04 0.000000e+00 0.000000e+00 0.000000e+00 0.000000e+00
-6.152586e+04 6.479825e+02 0.000000e+00 6.479825e+02 -6.084227e+04 0.000000e+00 0.000000e+00 0.000000e+00 0.000000e+00
-6.180235e+04 4.328986e+02 0.000000e+00 4.328986e+02 -6.063773e+04 0.000000e+00 0.000000e+00 0.000000e+00 0.000000e+00
-6.192346e+04 2.121768e+02 0.000000e+00 2.121768e+02 -6.044460e+04 0.000000e+00 0.000000e+00 0.000000e+00 0.000000e+00
-6.188999e+04 -9.654046e+00 0.000000e+00 -9.654046e+00 -6.027156e+04 0.000000e+00 0.000000e+00 0.000000e+00 0.000000e+00
-6.168890e+04 -2.148988e+02 0.000000e+00 -2.148988e+02 -6.013277e+04 0.000000e+00 0.000000e+00 0.000000e+00 0.000000e+00
-6.130418e+04 -3.741326e+02 0.000000e+00 -3.741326e+02 -6.003643e+04 0.000000e+00 0.000000e+00 0.000000e+00 0.000000e+00
-6.073957e+04 -4.423430e+02 0.000000e+00 -4.423430e+02 -5.998580e+04 0.000000e+00 0.000000e+00 0.000000e+00 0.000000e+00
-6.005535e+04 -3.296302e+02 0.000000e+00 -3.296302e+02 -5.998459e+04 0.000000e+00 0.000000e+00 0.000000e+00 0.000000e+00
-5.958205e+04 -2.114942e+02 0.000000e+00 -2.114942e+02 -5.995594e+04 0.000000e+00 0.000000e+00 0.000000e+00 0.000000e+00
-6.050239e+04 6.733370e+02 0.000000e+00 6.733370e+02 -6.068507e+04 0.000000e+00 0.000000e+00 0.000000e+00 0.000000e+00
-6.088307e+04 6.068044e+02 0.000000e+00 6.068044e+02 -6.062969e+04 0.000000e+00 0.000000e+00 0.000000e+00 0.000000e+00
-6.130308e+04 4.291231e+02 0.000000e+00 4.291231e+02 -6.043886e+04 0.000000e+00 0.000000e+00 0.000000e+00 0.000000e+00
-6.156763e+04 2.349261e+02 0.000000e+00 2.349261e+02 -6.027533e+04 0.000000e+00 0.000000e+00 0.000000e+00 0.000000e+00
-6.168941e+04 3.773915e+01 0.000000e+00 3.773915e+01 -6.014044e+04 0.000000e+00 0.000000e+00 0.000000e+00 0.000000e+00
-6.166703e+04 -1.485219e+02 0.000000e+00 -1.485219e+02 -6.003457e+04 0.000000e+00 0.000000e+00 0.000000e+00 0.000000e+00
-6.150022e+04 -3.081367e+02 0.000000e+00 -3.081367e+02 -5.996847e+04 0.000000e+00 0.000000e+00 0.000000e+00 0.000000e+00
-6.119337e+04 -4.164423e+02 0.000000e+00 -4.164423e+02 -5.994239e+04 0.000000e+00 0.000000e+00 0.000000e+00 0.000000e+00
-6.076945e+04 -4.374289e+02 0.000000e+00 -4.374289e+02 -5.994562e+04 0.000000e+00 0.000000e+00 0.000000e+00 0.000000e+00
-6.029161e+04 -3.070581e+02 0.000000e+00 -3.070581e+02 -5.997180e+04 0.000000e+00 0.000000e+00 0.000000e+00 0.000000e+00
-5.998382e+04 -1.915525e+02 0.000000e+00 -1.915525e+02 -5.996517e+04 0.000000e+00 0.000000e+00 0.000000e+00 0.000000e+00
-6.035859e+04 4.505823e+02 0.000000e+00 4.505823e+02 -6.034828e+04 0.000000e+00 0.000000e+00 0.000000e+00 0.000000e+00
-6.071198e+04 3.962626e+02 0.000000e+00 3.962626e+02 -6.030272e+04 0.000000e+00 0.000000e+00 0.000000e+00 0.000000e+00
-6.110763e+04 2.449136e+02 0.000000e+00 2.449136e+02 -6.014148e+04 0.000000e+00 0.000000e+00 0.000000e+00 0.000000e+00
-6.136504e+04 8.571597e+01 0.000000e+00 8.571597e+01 -6.000987e+04 0.000000e+00 0.000000e+00 0.000000e+00 0.000000e+00
-6.149384e+04 -7.187417e+01 0.000000e+00 -7.187417e+01 -5.991941e+04 0.000000e+00 0.000000e+00 0.000000e+00 0.000000e+00
-6.149055e+04 -2.155299e+02 0.000000e+00 -2.155299e+02 -5.986734e+04 0.000000e+00 0.000000e+00 0.000000e+00 0.000000e+00
-6.136429e+04 -3.301139e+02 0.000000e+00 -3.301139e+02 -5.985471e+04 0.000000e+00 0.000000e+00 0.000000e+00 0.000000e+00
-6.113464e+04 -3.990492e+02 0.000000e+00 -3.990492e+02 -5.987677e+04 0.000000e+00 0.000000e+00 0.000000e+00 0.000000e+00
-6.083277e+04 -3.919309e+02 0.000000e+00 -3.919309e+02 -5.991870e+04 0.000000e+00 0.000000e+00 0.000000e+00 0.000000e+00
-6.052150e+04 -2.650665e+02 0.000000e+00 -2.650665e+02 -5.996447e+04 0.000000e+00 0.000000e+00 0.000000e+00 0.000000e+00
-6.033833e+04 -1.627771e+02 0.000000e+00 -1.627771e+02 -5.997387e+04 0.000000e+00 0.000000e+00 0.000000e+00 0.000000e+00
-6.023978e+04 2.568278e+02 0.000000e+00 2.568278e+02 -6.008227e+04 0.000000e+00 0.000000e+00 0.000000e+00 0.000000e+00
-6.056853e+04 2.133895e+02 0.000000e+00 2.133895e+02 -6.003777e+04 0.000000e+00 0.000000e+00 0.000000e+00 0.000000e+00
-6.094916e+04 9.230667e+01 0.000000e+00 9.230667e+01 -5.989955e+04 0.000000e+00 0.000000e+00 0.000000e+00 0.000000e+00
-6.121167e+04 -2.154056e+01 0.000000e+00 -2.154056e+01 -5.979938e+04 0.000000e+00 0.000000e+00 0.000000e+00 0.000000e+00
-6.134823e+04 -1.281729e+02 0.000000e+00 -1.281729e+02 -5.974586e+04 0.000000e+00 0.000000e+00 0.000000e+00 0.000000e+00
-6.136489e+04 -2.244898e+02 0.000000e+00 -2.244898e+02 -5.974022e+04 0.000000e+00 0.000000e+00 0.000000e+00 0.000000e+00
-6.127432e+04 -3.000692e+02 0.000000e+00 -3.000692e+02 -5.977052e+04 0.000000e+00 0.000000e+00 0.000000e+00 0.000000e+00
-6.111189e+04 -3.396725e+02 0.000000e+00 -3.396725e+02 -5.982737e+04 0.000000e+00 0.000000e+00 0.000000e+00 0.000000e+00
-6.090711e+04 -3.186906e+02 0.000000e+00 -3.186906e+02 -5.989743e+04 0.000000e+00 0.000000e+00 0.000000e+00 0.000000e+00
-6.072072e+04 -2.105339e+02 0.000000e+00 -2.105339e+02 -5.995971e+04 0.000000e+00 0.000000e+00 0.000000e+00 0.000000e+00
-6.063197e+04 -1.278405e+02 0.000000e+00 -1.278405e+02 -5.998271e+04 0.000000e+00 0.000000e+00 0.000000e+00 0.000000e+00
-6.014000e+04 7.557127e+01 0.000000e+00 7.557127e+01 -5.983047e+04 0.000000e+00 0.000000e+00 0.000000e+00 0.000000e+00
-6.045582e+04 4.558144e+01 0.000000e+00 4.558144e+01 -5.978194e+04 0.000000e+00 0.000000e+00 0.000000e+00 0.000000e+00
-6.084912e+04 -2.324075e+01 0.000000e+00 -2.324075e+01 -5.966209e+04 0.000000e+00 0.000000e+00 0.000000e+00 0.000000e+00
-6.111740e+04 -7.996311e+01 0.000000e+00 -7.996311e+01 -5.960530e+04 0.000000e+00 0.000000e+00 0.000000e+00 0.000000e+00
-6.125777e+04 -1.334382e+02 0.000000e+00 -1.334382e+02 -5.960246e+04 0.000000e+00 0.000000e+00 0.000000e+00 0.000000e+00
-6.128485e+04 -1.857118e+02 0.000000e+00 -1.857118e+02 -5.964129e+04 0.000000e+00 0.000000e+00 0.000000e+00 0.000000e+00
-6.122127e+04 -2.295491e+02 0.000000e+00 -2.295491e+02 -5.970510e+04 0.000000e+00 0.000000e+00 0.000000e+00 0.000000e+00
-6.110700e+04 -2.473926e+02 0.000000e+00 -2.473926e+02 -5.979272e+04 0.000000e+00 0.000000e+00 0.000000e+00 0.000000e+00
-6.097192e+04 -2.254267e+02 0.000000e+00 -2.254267e+02 -5.988262e+04 0.000000e+00 0.000000e+00 0.000000e+00 0.000000e+00
-6.087097e+04 -1.474826e+02 0.000000e+00 -1.474826e+02 -5.995361e+04 0.000000e+00 0.000000e+00 0.000000e+00 0.000000e+00
-6.084944e+04 -9.001823e+01 0.000000e+00 -9.001823e+01 -5.998711e+04 0.000000e+00 0.000000e+00 0.000000e+00 0.000000e+00
-6.003373e+04 -1.167071e+02 0.000000e+00 -1.167071e+02 -5.945247e+04 0.000000e+00 0.000000e+00 0.000000e+00 0.000000e+00
-6.041297e+04 -7.821159e+01 0.000000e+00 -7.821159e+01 -5.945280e+04 0.000000e+00 0.000000e+00 0.000000e+00 0.000000e+00
-6.082089e+04 -6.995933e+01 0.000000e+00 -6.995933e+01 -5.941249e+04 0.000000e+00 0.000000e+00 0.000000e+00 0.000000e+00
-6.107907e+04 -7.174117e+01 0.000000e+00 -7.174117e+01 -5.943436e+04 0.000000e+00 0.000000e+00 0.000000e+00 0.000000e+00
-6.121282e+04 -8.547659e+01 0.000000e+00 -8.547659e+01 -5.949043e+04 0.000000e+00 0.000000e+00 0.000000e+00 0.000000e+00
-6.124151e+04 -1.067997e+02 0.000000e+00 -1.067997e+02 -5.956658e+04 0.000000e+00 0.000000e+00 0.000000e+00 0.000000e+00
-6.119607e+04 -1.256283e+02 0.000000e+00 -1.256283e+02 -5.965965e+04 0.000000e+00 0.000000e+00 0.000000e+00 0.000000e+00
-6.111161e+04 -1.318433e+02 0.000000e+00 -1.318433e+02 -5.976809e+04 0.000000e+00 0.000000e+00 0.000000e+00 0.000000e+00
-6.101509e+04 -1.200924e+02 0.000000e+00 -1.200924e+02 -5.987185e+04 0.000000e+00 0.000000e+00 0.000000e+00 0.000000e+00
-6.096321e+04 -7.942162e+01 0.000000e+00 -7.942162e+01 -5.994965e+04 0.000000e+00 0.000000e+00 0.000000e+00 0.000000e+00
-6.098067e+04 -5.022572e+01 0.000000e+00 -5.022572e+01 -5.998848e+04 0.000000e+00 0.000000e+00 0.000000e+00 0.000000e+00
-5.989126e+04 -2.678207e+02 0.000000e+00 -2.678207e+02 -5.897101e+04 0.000000e+00 0.000000e+00 0.000000e+00 0.000000e+00
-6.037228e+04 -1.528576e+02 0.000000e+00 -1.528576e+02 -5.912309e+04 0.000000e+00 0.000000e+00 0.000000e+00 0.000000e+00
-6.081886e+04 -8.055970e+01 0.000000e+00 -8.055970e+01 -5.926474e+04 0.000000e+00 0.000000e+00 0.000000e+00 0.000000e+00
-6.107065e+04 -5.742890e+01 0.000000e+00 -5.742890e+01 -5.935655e+04 0.000000e+00 0.000000e+00 0.000000e+00 0.000000e+00
-6.119978e+04 -5.036810e+01 0.000000e+00 -5.036810e+01 -5.944544e+04 0.000000e+00 0.000000e+00 0.000000e+00 0.000000e+00
-6.122840e+04 -5.476747e+01 0.000000e+00 -5.476747e+01 -5.953608e+04 0.000000e+00 0.000000e+00 0.000000e+00 0.000000e+00
-6.118981e+04 -5.986640e+01 0.000000e+00 -5.986640e+01 -5.964208e+04 0.000000e+00 0.000000e+00 0.000000e+00 0.000000e+00
-6.111882e+04 -6.102241e+01 0.000000e+00 -6.102241e+01 -5.976050e+04 0.000000e+00 0.000000e+00 0.000000e+00 0.000000e+00
-6.103062e+04 -5.796553e+01 0.000000e+00 -5.796553e+01 -5.986617e+04 0.000000e+00 0.000000e+00 0.000000e+00 0.000000e+00
-6.099341e+04 -4.388562e+01 0.000000e+00 -4.388562e+01 -5.994560e+04 0.000000e+00 0.000000e+00 0.000000e+00 0.000000e+00
-6.102255e+04 -3.306278e+01 0.000000e+00 -3.306278e+01 -5.998634e+04 0.000000e+00 0.000000e+00 0.000000e+00 0.000000e+00
</DataArray>
<DataArray Name="vol_eps" type="Float64" NumberOfComponents="1" format="ascii">
-1.100659e-03
-1.017462e-03
-9.684991e-04
-9.618168e-04
-9.917592e-04
-1.062761e-03
-1.179889e-03
-1.344876e-03
-1.550035e-03
-1.764214e-03
-1.820129e-03
-1.040385e-03
-9.759061e-04
-9.419503e-04
-9.385707e-04
-9.675964e-04
-1.034273e-03
-1.146626e-03
-1.315447e-03
-1.554241e-03
-1.849755e-03
-2.070358e-03
-9.480911e-04
-9.008419e-04
-8.756981e-04
-8.735655e-04
-8.953841e-04
-9.447934e-04
-1.030235e-03
-1.172424e-03
-1.436334e-03
-2.006639e-03
-2.753277e-03
-8.333336e-04
-8.006491e-04
-7.814858e-04
-7.760467e-04
-7.836392e-04
-8.029459e-04
-8.311255e-04
-8.592343e-04
-8.583600e-04
-7.216039e-04
-6.953431e-04
-7.018300e-04
-6.844430e-04
-6.711938e-04
-6.620926e-04
-6.554158e-04
-6.476523e-04
-6.304336e-04
-5.879689e-04
-4.923211e-04
-3.174281e-04
1.972639e-05
-5.665338e-04
-5.641433e-04
-5.573202e-04
-5.474045e-04
-5.326334e-04
-5.090589e-04
-4.691288e-04
-4.020746e-04
-2.934202e-04
-9.728748e-05
1.326018e-04
-4.414298e-04
-4.504451e-04
-4.499388e-04
-4.415032e-04
-4.239338e-04
-3.947124e-04
-3.488661e-04
-2.793206e-04
-1.728943e-04
-1.220700e-05
1.443920e-04
-3.318354e-04
-3.490885e-04
-3.548153e-04
-3.498068e-04
-3.341093e-04
-3.056399e-04
-2.613497e-04
-1.973277e-04
-1.071643e-04
1.732710e-05
1.265538e-04
-2.423250e-04
-2.643798e-04
-2.745859e-04
-2.733915e-04
-2.605646e-04
-2.352597e-04
-1.970777e-04
-1.442134e-04
-7.207537e-05
2.108341e-05
9.787737e-05
-1.723168e-04
-1.957655e-04
-2.087734e-04
-2.109362e-04
-2.014352e-04
-1.814927e-04
-1.514953e-04
-1.099539e-04
-5.457887e-05
1.227824e-05
6.595735e-05
-1.184140e-04
-1.414981e-04
-1.566215e-04
-1.610903e-04
-1.551137e-04
-1.411102e-04
-1.190950e-04
-8.836238e-05
-4.856797e-05
-2.532960e-06
3.366627e-05
-7.742642e-05
-9.944822e-05
-1.154133e-04
-1.214136e-04
-1.193792e-04
-1.109329e-04
-9.602927e-05
-7.484233e-05
-4.843306e-05
-1.899340e-05
3.286386e-06
-4.566632e-05
-6.614773e-05
-8.218001e-05
-9.006527e-05
-9.189029e-05
-8.829416e-05
-7.946721e-05
-6.617802e-05
-5.039791e-05
-3.420412e-05
-2.280153e-05
-1.894339e-05
-3.791652e-05
-5.466935e-05
-6.553539e-05
-7.082424e-05
-7.144584e-05
-6.753554e-05
-6.095018e-05
-5.341847e-05
-4.651287e-05
-4.325865e-05
6.810370e-06
-1.213905e-05
-3.147369e-05
-4.604842e-05
-5.481507e-05
-5.907726e-05
-5.950471e-05
-5.806625e-05
-5.640920e-05
-5.574940e-05
-5.764320e-05
4.112736e-05
1.363090e-05
-1.235429e-05
-3.148787e-05
-4.391458e-05
-5.094988e-05
-5.433790e-05
-5.634965e-05
-5.836924e-05
-6.150406e-05
-6.594391e-05
8.295719e-05
3.904980e-05
-1.589201e-06
-2.530959e-05
-3.980400e-05
-4.777630e-05
-5.215069e-05
-5.585701e-05
-5.931421e-05
-6.364652e-05
-6.869309e-05
</DataArray>
</PointData>
</Piece>
</UnstructuredGrid>
</VTKFile>
