<?xml version="1.0"?>
<VTKFile type="UnstructuredGrid" version="0.1">
<UnstructuredGrid>
<FieldData>
<DataArray Name="TIME" type="Float64" format="ascii" NumberOfTuples="1">
0.000000e+00
</DataArray>
</FieldData>
<FieldData>
<DataArray Name="CYCLE" type="Int32" format="ascii" NumberOfTuples="1">
0
</DataArray>
</FieldData>
<Piece NumberOfPoints="187" NumberOfCells="160">
<Points>
<DataArray NumberOfComponents="3" type="Float64" format="ascii">
0.000000e+00 0.000000e+00 0.000000e+00
0.000000e+00 1.973479e-01 0.000000e+00
0.000000e+00 3.937710e-01 0.000000e+00
0.000000e+00 5.890704e-01 0.000000e+00
0.000000e+00 7.829233e-01 0.000000e+00
0.000000e+00 9.757254e-01 0.000000e+00
0.000000e+00 1.168193e+00 0.000000e+00
0.000000e+00 1.360977e+00 0.000000e+00
0.000000e+00 1.555516e+00 0.000000e+00
0.000000e+00 1.751819e+00 0.000000e+00
0.000000e+00 1.948250e+00 0.000000e+00
2.250000e-01 0.000000e+00 0.000000e+00
2.262547e-01 1.974351e-01 0.000000e+00
2.276577e-01 3.939219e-01 0.000000e+00
2.293081e-01 5.894894e-01 0.000000e+00
2.308294e-01 7.841845e-01 0.000000e+00
2.315842e-01 9.779128e-01 0.000000e+00
2.314502e-01 1.171113e+00 0.000000e+00
2.300922e-01 1.364256e+00 0.000000e+00
2.275100e-01 1.557796e+00 0.000000e+00
2.254102e-01 1.751962e+00 0.000000e+00
2.250000e-01 1.948250e+00 0.000000e+00
4.500000e-01 0.000000e+00 0.000000e+00
4.525764e-01 1.978409e-01 0.000000e+00
4.550972e-01 3.949629e-01 0.000000e+00
4.574750e-01 5.915540e-01 0.000000e+00
4.594730e-01 7.877795e-01 0.000000e+00
4.609098e-01 9.836150e-01 0.000000e+00
4.612667e-01 1.178815e+00 0.000000e+00
4.605999e-01 1.372982e+00 0.000000e+00
4.587780e-01 1.565547e+00 0.000000e+00
4.557098e-01 1.756927e+00 0.000000e+00
4.500000e-01 1.948250e+00 0.000000e+00
6.750000e-01 0.000000e+00 0.000000e+00
6.785061e-01 1.986777e-01 0.000000e+00
6.815273e-01 3.971748e-01 0.000000e+00
6.840894e-01 5.957227e-01 0.000000e+00
6.862050e-01 7.944275e-01 0.000000e+00
6.877973e-01 9.932971e-01 0.000000e+00
6.886010e-01 1.192417e+00 0.000000e+00
6.887113e-01 1.391881e+00 0.000000e+00
6.879092e-01 1.591821e+00 0.000000e+00
6.855219e-01 1.792110e+00 0.000000e+00
6.803665e-01 1.992563e+00 0.000000e+00
9.000000e-01 0.000000e+00 0.000000e+00
9.038033e-01 1.989895e-01 0.000000e+00
9.066487e-01 3.980434e-01 0.000000e+00
9.089219e-01 5.972762e-01 0.000000e+00
9.107229e-01 7.967117e-01 0.000000e+00
9.120082e-01 9.963982e-01 0.000000e+00
9.125812e-01 1.196315e+00 0.000000e+00
9.124224e-01 1.396477e+00 0.000000e+00
9.113765e-01 1.596892e+00 0.000000e+00
9.090635e-01 1.797405e+00 0.000000e+00
9.056923e-01 1.997419e+00 0.000000e+00
1.125000e+00 0.000000e+00 0.000000e+00
1.128800e+00 1.993755e-01 0.000000e+00
1.131330e+00 3.988581e-01 0.000000e+00
1.133300e+00 5.985227e-01 0.000000e+00
1.134809e+00 7.983811e-01 0.000000e+00
1.135822e+00 9.984388e-01 0.000000e+00
1.136211e+00 1.198709e+00 0.000000e+00
1.135933e+00 1.399168e+00 0.000000e+00
1.134896e+00 1.599730e+00 0.000000e+00
1.133142e+00 1.800162e+00 0.000000e+00
1.131111e+00 2.000253e+00 0.000000e+00
1.350000e+00 0.000000e+00 0.000000e+00
1.353523e+00 1.996415e-01 0.000000e+00
1.355754e+00 3.994132e-01 0.000000e+00
1.357442e+00 5.993437e-01 0.000000e+00
1.358707e+00 7.994561e-01 0.000000e+00
1.359519e+00 9.997559e-01 0.000000e+00
1.359786e+00 1.200219e+00 0.000000e+00
1.359483e+00 1.400784e+00 0.000000e+00
1.358652e+00 1.601341e+00 0.000000e+00
1.357458e+00 1.801726e+00 0.000000e+00
1.356255e+00 2.001833e+00 0.000000e+00
1.575000e+00 0.000000e+00 0.000000e+00
1.578100e+00 1.998087e-01 0.000000e+00
1.580033e+00 3.997622e-01 0.000000e+00
1.581482e+00 5.998792e-01 0.000000e+00
1.582551e+00 8.001505e-01 0.000000e+00
1.583205e+00 1.000573e+00 0.000000e+00
1.583401e+00 1.201108e+00 0.000000e+00
1.583166e+00 1.401687e+00 0.000000e+00
1.582595e+00 1.602208e+00 0.000000e+00
1.581851e+00 1.802559e+00 0.000000e+00
1.581183e+00 2.002705e+00 0.000000e+00
1.800000e+00 0.000000e+00 0.000000e+00
1.802611e+00 1.999095e-01 0.000000e+00
1.804259e+00 3.999858e-01 0.000000e+00
1.805507e+00 6.002017e-01 0.000000e+00
1.806407e+00 8.005485e-01 0.000000e+00
1.806942e+00 1.001018e+00 0.000000e+00
1.807117e+00 1.201562e+00 0.000000e+00
1.806990e+00 1.402113e+00 0.000000e+00
1.806652e+00 1.602591e+00 0.000000e+00
1.806242e+00 1.802931e+00 0.000000e+00
1.805930e+00 2.003117e+00 0.000000e+00
2.025000e+00 0.000000e+00 0.000000e+00
2.027103e+00 1.999631e-01 0.000000e+00
2.028496e+00 4.000982e-01 0.000000e+00
2.029562e+00 6.003581e-01 0.000000e+00
2.030316e+00 8.007311e-01 0.000000e+00
2.030767e+00 1.001199e+00 0.000000e+00
2.030954e+00 1.201715e+00 0.000000e+00
2.030931e+00 1.402224e+00 0.000000e+00
2.030776e+00 1.602667e+00 0.000000e+00
2.030600e+00 1.803005e+00 0.000000e+00
2.030519e+00 2.003236e+00 0.000000e+00
2.250000e+00 0.000000e+00 0.000000e+00
2.251628e+00 1.999821e-01 0.000000e+00
2.252782e+00 4.001313e-01 0.000000e+00
2.253677e+00 6.003956e-01 0.000000e+00
2.254308e+00 8.007619e-01 0.000000e+00
2.254704e+00 1.001201e+00 0.000000e+00
2.254904e+00 1.201676e+00 0.000000e+00
2.254959e+00 1.402143e+00 0.000000e+00
2.254934e+00 1.602559e+00 0.000000e+00
2.254912e+00 1.802902e+00 0.000000e+00
2.254971e+00 2.003175e+00 0.000000e+00
2.475000e+00 0.000000e+00 0.000000e+00
2.476212e+00 1.999856e-01 0.000000e+00
2.477143e+00 4.001186e-01 0.000000e+00
2.477872e+00 6.003605e-01 0.000000e+00
2.478397e+00 8.006960e-01 0.000000e+00
2.478744e+00 1.001097e+00 0.000000e+00
2.478948e+00 1.201530e+00 0.000000e+00
2.479052e+00 1.401959e+00 0.000000e+00
2.479109e+00 1.602355e+00 0.000000e+00
2.479176e+00 1.802706e+00 0.000000e+00
2.479308e+00 2.003018e+00 0.000000e+00
2.700000e+00 0.000000e+00 0.000000e+00
2.700872e+00 1.999750e-01 0.000000e+00
2.701589e+00 4.000781e-01 0.000000e+00
2.702161e+00 6.002905e-01 0.000000e+00
2.702584e+00 8.005888e-01 0.000000e+00
2.702878e+00 1.000948e+00 0.000000e+00
2.703069e+00 1.201340e+00 0.000000e+00
2.703193e+00 1.401738e+00 0.000000e+00
2.703290e+00 1.602121e+00 0.000000e+00
2.703397e+00 1.802481e+00 0.000000e+00
2.703552e+00 2.002826e+00 0.000000e+00
2.925000e+00 0.000000e+00 0.000000e+00
2.925600e+00 1.999592e-01 0.000000e+00
2.926113e+00 4.000331e-01 0.000000e+00
2.926536e+00 6.002123e-01 0.000000e+00
2.926859e+00 8.004762e-01 0.000000e+00
2.927090e+00 1.000799e+00 0.000000e+00
2.927251e+00 1.201156e+00 0.000000e+00
2.927368e+00 1.401528e+00 0.000000e+00
2.927469e+00 1.601902e+00 0.000000e+00
2.927581e+00 1.802271e+00 0.000000e+00
2.927724e+00 2.002643e+00 0.000000e+00
3.150000e+00 0.000000e+00 0.000000e+00
3.150376e+00 1.999457e-01 0.000000e+00
3.150705e+00 3.999963e-01 0.000000e+00
3.150981e+00 6.001471e-01 0.000000e+00
3.151201e+00 8.003829e-01 0.000000e+00
3.151362e+00 1.000678e+00 0.000000e+00
3.151477e+00 1.201011e+00 0.000000e+00
3.151567e+00 1.401365e+00 0.000000e+00
3.151647e+00 1.601730e+00 0.000000e+00
3.151736e+00 1.802105e+00 0.000000e+00
3.151843e+00 2.002498e+00 0.000000e+00
3.375000e+00 0.000000e+00 0.000000e+00
3.375182e+00 1.999384e-01 0.000000e+00
3.375342e+00 3.999781e-01 0.000000e+00
3.375478e+00 6.001117e-01 0.000000e+00
3.375588e+00 8.003283e-01 0.000000e+00
3.375671e+00 1.000607e+00 0.000000e+00
3.375732e+00 1.200925e+00 0.000000e+00
3.375780e+00 1.401268e+00 0.000000e+00
3.375824e+00 1.601628e+00 0.000000e+00
3.375872e+00 1.802006e+00 0.000000e+00
3.375928e+00 2.002410e+00 0.000000e+00
3.600000e+00 0.000000e+00 0.000000e+00
3.600000e+00 1.999487e-01 0.000000e+00
3.600000e+00 3.999874e-01 0.000000e+00
3.600000e+00 6.001151e-01 0.000000e+00
3.600000e+00 8.003248e-01 0.000000e+00
3.600000e+00 1.000596e+00 0.000000e+00
3.600000e+00 1.200908e+00 0.000000e+00
3.600000e+00 1.401247e+00 0.000000e+00
3.600000e+00 1.601605e+00 0.000000e+00
3.600000e+00 1.801983e+00 0.000000e+00
3.600000e+00 2.002389e+00 0.000000e+00
</DataArray>
</Points>
<Cells>
<DataArray Name="connectivity" type="Int32" format="ascii">
0 11 12 1
1 12 13 2
2 13 14 3
3 14 15 4
4 15 16 5
5 16 17 6
6 17 18 7
7 18 19 8
8 19 20 9
9 20 21 10
11 22 23 12
12 23 24 13
13 24 25 14
14 25 26 15
15 26 27 16
16 27 28 17
17 28 29 18
18 29 30 19
19 30 31 20
20 31 32 21
22 33 34 23
23 34 35 24
24 35 36 25
25 36 37 26
26 37 38 27
27 38 39 28
28 39 40 29
29 40 41 30
30 41 42 31
31 42 43 32
33 44 45 34
34 45 46 35
35 46 47 36
36 47 48 37
37 48 49 38
38 49 50 39
39 50 51 40
40 51 52 41
41 52 53 42
42 53 54 43
44 55 56 45
45 56 57 46
46 57 58 47
47 58 59 48
48 59 60 49
49 60 61 50
50 61 62 51
51 62 63 52
52 63 64 53
53 64 65 54
55 66 67 56
56 67 68 57
57 68 69 58
58 69 70 59
59 70 71 60
60 71 72 61
61 72 73 62
62 73 74 63
63 74 75 64
64 75 76 65
66 77 78 67
67 78 79 68
68 79 80 69
69 80 81 70
70 81 82 71
71 82 83 72
72 83 84 73
73 84 85 74
74 85 86 75
75 86 87 76
77 88 89 78
78 89 90 79
79 90 91 80
80 91 92 81
81 92 93 82
82 93 94 83
83 94 95 84
84 95 96 85
85 96 97 86
86 97 98 87
88 99 100 89
89 100 101 90
90 101 102 91
91 102 103 92
92 103 104 93
93 104 105 94
94 105 106 95
95 106 107 96
96 107 108 97
97 108 109 98
99 110 111 100
100 111 112 101
101 112 113 102
102 113 114 103
103 114 115 104
104 115 116 105
105 116 117 106
106 117 118 107
107 118 119 108
108 119 120 109
110 121 122 111
111 122 123 112
112 123 124 113
113 124 125 114
114 125 126 115
115 126 127 116
116 127 128 117
117 128 129 118
118 129 130 119
119 130 131 120
121 132 133 122
122 133 134 123
123 134 135 124
124 135 136 125
125 136 137 126
126 137 138 127
127 138 139 128
128 139 140 129
129 140 141 130
130 141 142 131
132 143 144 133
133 144 145 134
134 145 146 135
135 146 147 136
136 147 148 137
137 148 149 138
138 149 150 139
139 150 151 140
140 151 152 141
141 152 153 142
143 154 155 144
144 155 156 145
145 156 157 146
146 157 158 147
147 158 159 148
148 159 160 149
149 160 161 150
150 161 162 151
151 162 163 152
152 163 164 153
154 165 166 155
155 166 167 156
156 167 168 157
157 168 169 158
158 169 170 159
159 170 171 160
160 171 172 161
161 172 173 162
162 173 174 163
163 174 175 164
165 176 177 166
166 177 178 167
167 178 179 168
168 179 180 169
169 180 181 170
170 181 182 171
171 182 183 172
172 183 184 173
173 184 185 174
174 185 186 175
</DataArray>
<DataArray Name="offsets" type="Int32" format="ascii">
4
8
12
16
20
24
28
32
36
40
44
48
52
56
60
64
68
72
76
80
84
88
92
96
100
104
108
112
116
120
124
128
132
136
140
144
148
152
156
160
164
168
172
176
180
184
188
192
196
200
204
208
212
216
220
224
228
232
236
240
244
248
252
256
260
264
268
272
276
280
284
288
292
296
300
304
308
312
316
320
324
328
332
336
340
344
348
352
356
360
364
368
372
376
380
384
388
392
396
400
404
408
412
416
420
424
428
432
436
440
444
448
452
456
460
464
468
472
476
480
484
488
492
496
500
504
508
512
516
520
524
528
532
536
540
544
548
552
556
560
564
568
572
576
580
584
588
592
596
600
604
608
612
616
620
624
628
632
636
640
</DataArray>
<DataArray Name="types" type="UInt8" format="ascii">
9
9
9
9
9
9
9
9
9
9
9
9
9
9
9
9
9
9
9
9
9
9
9
9
9
9
9
9
9
9
9
9
9
9
9
9
9
9
9
9
9
9
9
9
9
9
9
9
9
9
9
9
9
9
9
9
9
9
9
9
9
9
9
9
9
9
9
9
9
9
9
9
9
9
9
9
9
9
9
9
9
9
9
9
9
9
9
9
9
9
9
9
9
9
9
9
9
9
9
9
9
9
9
9
9
9
9
9
9
9
9
9
9
9
9
9
9
9
9
9
9
9
9
9
9
9
9
9
9
9
9
9
9
9
9
9
9
9
9
9
9
9
9
9
9
9
9
9
9
9
9
9
9
9
9
9
9
9
9
9
</DataArray>
</Cells>
<PointData>
<DataArray Name="disp" type="Float64" NumberOfComponents="3" format="ascii">
0.000000e+00 0.000000e+00 0.000000e+00
0.000000e+00 -2.652089e-03 0.000000e+00
0.000000e+00 -6.229052e-03 0.000000e+00
0.000000e+00 -1.092960e-02 0.000000e+00
0.000000e+00 -1.707670e-02 0.000000e+00
0.000000e+00 -2.427459e-02 0.000000e+00
0.000000e+00 -3.180666e-02 0.000000e+00
0.000000e+00 -3.902257e-02 0.000000e+00
0.000000e+00 -4.448362e-02 0.000000e+00
0.000000e+00 -4.818118e-02 0.000000e+00
0.000000e+00 -5.175000e-02 0.000000e+00
0.000000e+00 0.000000e+00 0.000000e+00
1.254729e-03 -2.564954e-03 0.000000e+00
2.657722e-03 -6.078157e-03 0.000000e+00
4.308080e-03 -1.051058e-02 0.000000e+00
5.829415e-03 -1.581550e-02 0.000000e+00
6.584207e-03 -2.208717e-02 0.000000e+00
6.450192e-03 -2.888696e-02 0.000000e+00
5.092181e-03 -3.574437e-02 0.000000e+00
2.510039e-03 -4.220392e-02 0.000000e+00
4.101892e-04 -4.803809e-02 0.000000e+00
0.000000e+00 -5.175000e-02 0.000000e+00
0.000000e+00 0.000000e+00 0.000000e+00
2.576379e-03 -2.159126e-03 0.000000e+00
5.097188e-03 -5.037109e-03 0.000000e+00
7.475019e-03 -8.445999e-03 0.000000e+00
9.472990e-03 -1.222049e-02 0.000000e+00
1.090979e-02 -1.638498e-02 0.000000e+00
1.126666e-02 -2.118448e-02 0.000000e+00
1.059989e-02 -2.701776e-02 0.000000e+00
8.778028e-03 -3.445258e-02 0.000000e+00
5.709848e-03 -4.307250e-02 0.000000e+00
0.000000e+00 -5.175000e-02 0.000000e+00
0.000000e+00 0.000000e+00 0.000000e+00
3.506156e-03 -1.322248e-03 0.000000e+00
6.527266e-03 -2.825178e-03 0.000000e+00
9.089346e-03 -4.277313e-03 0.000000e+00
1.120502e-02 -5.572474e-03 0.000000e+00
1.279730e-02 -6.702882e-03 0.000000e+00
1.360102e-02 -7.582631e-03 0.000000e+00
1.371135e-02 -8.119148e-03 0.000000e+00
1.290926e-02 -8.178848e-03 0.000000e+00
1.052191e-02 -7.889569e-03 0.000000e+00
5.366458e-03 -7.437109e-03 0.000000e+00
0.000000e+00 0.000000e+00 0.000000e+00
3.803263e-03 -1.010479e-03 0.000000e+00
6.648666e-03 -1.956633e-03 0.000000e+00
8.921905e-03 -2.723829e-03 0.000000e+00
1.072284e-02 -3.288285e-03 0.000000e+00
1.200819e-02 -3.601827e-03 0.000000e+00
1.258119e-02 -3.684769e-03 0.000000e+00
1.242238e-02 -3.522871e-03 0.000000e+00
1.137653e-02 -3.107738e-03 0.000000e+00
9.063430e-03 -2.594710e-03 0.000000e+00
5.692263e-03 -2.581155e-03 0.000000e+00
0.000000e+00 0.000000e+00 0.000000e+00
3.800147e-03 -6.245254e-04 0.000000e+00
6.329945e-03 -1.141857e-03 0.000000e+00
8.299806e-03 -1.477302e-03 0.000000e+00
9.809013e-03 -1.618864e-03 0.000000e+00
1.082236e-02 -1.561182e-03 0.000000e+00
1.121129e-02 -1.291525e-03 0.000000e+00
1.093331e-02 -8.321785e-04 0.000000e+00
9.895873e-03 -2.705194e-04 0.000000e+00
8.141860e-03 1.621647e-04 0.000000e+00
6.110897e-03 2.531736e-04 0.000000e+00
0.000000e+00 0.000000e+00 0.000000e+00
3.522987e-03 -3.584764e-04 0.000000e+00
5.753678e-03 -5.867710e-04 0.000000e+00
7.441933e-03 -6.562828e-04 0.000000e+00
8.706692e-03 -5.438994e-04 0.000000e+00
9.518693e-03 -2.441079e-04 0.000000e+00
9.786111e-03 2.187595e-04 0.000000e+00
9.483158e-03 7.836830e-04 0.000000e+00
8.652121e-03 1.340953e-03 0.000000e+00
7.457901e-03 1.726403e-03 0.000000e+00
6.254787e-03 1.833525e-03 0.000000e+00
0.000000e+00 0.000000e+00 0.000000e+00
3.100008e-03 -1.912649e-04 0.000000e+00
5.033374e-03 -2.377480e-04 0.000000e+00
6.481619e-03 -1.207886e-04 0.000000e+00
7.551275e-03 1.505156e-04 0.000000e+00
8.204905e-03 5.725696e-04 0.000000e+00
8.400962e-03 1.107850e-03 0.000000e+00
8.165734e-03 1.687017e-03 0.000000e+00
7.594624e-03 2.207868e-03 0.000000e+00
6.850501e-03 2.559534e-03 0.000000e+00
6.183451e-03 2.704954e-03 0.000000e+00
0.000000e+00 0.000000e+00 0.000000e+00
2.610958e-03 -9.046283e-05 0.000000e+00
4.259190e-03 -1.416101e-05 0.000000e+00
5.506780e-03 2.017353e-04 0.000000e+00
6.406613e-03 5.485152e-04 0.000000e+00
6.942141e-03 1.018415e-03 0.000000e+00
7.116552e-03 1.561781e-03 0.000000e+00
6.989545e-03 2.112591e-03 0.000000e+00
6.652065e-03 2.591339e-03 0.000000e+00
6.242293e-03 2.930819e-03 0.000000e+00
5.929612e-03 3.117059e-03 0.000000e+00
0.000000e+00 0.000000e+00 0.000000e+00
2.103474e-03 -3.693198e-05 0.000000e+00
3.495928e-03 9.823927e-05 0.000000e+00
4.562312e-03 3.580511e-04 0.000000e+00
5.316404e-03 7.311126e-04 0.000000e+00
5.767216e-03 1.198996e-03 0.000000e+00
5.953776e-03 1.714727e-03 0.000000e+00
5.930549e-03 2.223554e-03 0.000000e+00
5.775435e-03 2.667371e-03 0.000000e+00
5.599871e-03 3.005473e-03 0.000000e+00
5.519536e-03 3.236105e-03 0.000000e+00
0.000000e+00 0.000000e+00 0.000000e+00
1.627992e-03 -1.791223e-05 0.000000e+00
2.781862e-03 1.313460e-04 0.000000e+00
3.677028e-03 3.956226e-04 0.000000e+00
4.308335e-03 7.618510e-04 0.000000e+00
4.703599e-03 1.200524e-03 0.000000e+00
4.904382e-03 1.675516e-03 0.000000e+00
4.958865e-03 2.143043e-03 0.000000e+00
4.933687e-03 2.559038e-03 0.000000e+00
4.912030e-03 2.902041e-03 0.000000e+00
4.970896e-03 3.175446e-03 0.000000e+00
0.000000e+00 0.000000e+00 0.000000e+00
1.212074e-03 -1.439569e-05 0.000000e+00
2.142697e-03 1.186497e-04 0.000000e+00
2.871783e-03 3.604508e-04 0.000000e+00
3.397173e-03 6.959556e-04 0.000000e+00
3.744222e-03 1.097145e-03 0.000000e+00
3.948219e-03 1.530444e-03 0.000000e+00
4.052392e-03 1.959420e-03 0.000000e+00
4.109241e-03 2.355274e-03 0.000000e+00
4.176044e-03 2.706412e-03 0.000000e+00
4.308137e-03 3.017860e-03 0.000000e+00
0.000000e+00 0.000000e+00 0.000000e+00
8.718162e-04 -2.496736e-05 0.000000e+00
1.588682e-03 7.814560e-05 0.000000e+00
2.160806e-03 2.905004e-04 0.000000e+00
2.584122e-03 5.887611e-04 0.000000e+00
2.877603e-03 9.482839e-04 0.000000e+00
3.068862e-03 1.340479e-03 0.000000e+00
3.193396e-03 1.737805e-03 0.000000e+00
3.289478e-03 2.120880e-03 0.000000e+00
3.397007e-03 2.481356e-03 0.000000e+00
3.552312e-03 2.826112e-03 0.000000e+00
0.000000e+00 0.000000e+00 0.000000e+00
5.999525e-04 -4.075259e-05 0.000000e+00
1.113462e-03 3.314480e-05 0.000000e+00
1.535615e-03 2.123306e-04 0.000000e+00
1.858875e-03 4.762021e-04 0.000000e+00
2.090475e-03 7.986105e-04 0.000000e+00
2.251038e-03 1.156130e-03 0.000000e+00
2.367976e-03 1.528441e-03 0.000000e+00
2.468861e-03 1.901525e-03 0.000000e+00
2.580756e-03 2.270670e-03 0.000000e+00
2.724173e-03 2.642835e-03 0.000000e+00
0.000000e+00 0.000000e+00 0.000000e+00
3.758403e-04 -5.425281e-05 0.000000e+00
7.048224e-04 -3.698994e-06 0.000000e+00
9.814474e-04 1.471251e-04 0.000000e+00
1.201086e-03 3.828295e-04 0.000000e+00
1.361923e-03 6.779940e-04 0.000000e+00
1.477363e-03 1.010946e-03 0.000000e+00
1.566413e-03 1.365002e-03 0.000000e+00
1.646953e-03 1.730165e-03 0.000000e+00
1.735555e-03 2.105180e-03 0.000000e+00
1.842954e-03 2.497746e-03 0.000000e+00
0.000000e+00 0.000000e+00 0.000000e+00
1.823439e-04 -6.157212e-05 0.000000e+00
3.419657e-04 -2.191431e-05 0.000000e+00
4.776996e-04 1.117193e-04 0.000000e+00
5.883627e-04 3.283294e-04 0.000000e+00
6.713839e-04 6.065519e-04 0.000000e+00
7.317362e-04 9.245633e-04 0.000000e+00
7.795142e-04 1.267694e-03 0.000000e+00
8.237386e-04 1.627937e-03 0.000000e+00
8.719002e-04 2.006073e-03 0.000000e+00
9.284802e-04 2.410002e-03 0.000000e+00
0.000000e+00 0.000000e+00 0.000000e+00
0.000000e+00 -5.126697e-05 0.000000e+00
0.000000e+00 -1.263415e-05 0.000000e+00
0.000000e+00 1.150575e-04 0.000000e+00
0.000000e+00 3.247886e-04 0.000000e+00
0.000000e+00 5.961554e-04 0.000000e+00
0.000000e+00 9.083522e-04 0.000000e+00
0.000000e+00 1.247134e-03 0.000000e+00
0.000000e+00 1.604707e-03 0.000000e+00
0.000000e+00 1.982630e-03 0.000000e+00
0.000000e+00 2.388851e-03 0.000000e+00
</DataArray>
<DataArray Name="shear" type="Float64" NumberOfComponents="1" format="ascii">
1.522240e-02
2.139316e-02
3.272360e-02
4.567853e-02
5.792825e-02
6.507930e-02
6.502365e-02
5.520502e-02
3.766391e-02
2.333371e-02
1.885742e-02
1.602678e-02
2.203396e-02
3.230646e-02
4.242333e-02
5.182429e-02
5.896604e-02
6.177649e-02
5.919748e-02
5.166210e-02
3.831286e-02
2.714837e-02
1.819958e-02
2.291226e-02
3.043844e-02
3.728626e-02
4.432561e-02
5.237458e-02
6.172816e-02
7.295876e-02
8.425731e-02
8.834293e-02
8.699954e-02
1.962241e-02
2.120414e-02
2.366947e-02
2.681494e-02
3.088832e-02
3.566997e-02
4.211145e-02
5.129991e-02
6.252222e-02
7.265765e-02
8.007608e-02
2.003744e-02
1.890331e-02
1.703983e-02
1.657051e-02
1.659147e-02
1.639640e-02
1.591599e-02
1.507182e-02
1.253617e-02
6.728116e-03
1.147160e-03
1.953764e-02
1.737541e-02
1.434045e-02
1.348748e-02
1.312710e-02
1.263375e-02
1.191576e-02
1.083769e-02
8.648654e-03
4.468670e-03
1.130554e-03
1.789871e-02
1.533289e-02
1.201767e-02
1.120252e-02
1.092055e-02
1.062822e-02
1.012184e-02
9.181586e-03
7.275685e-03
4.060499e-03
1.640821e-03
1.566834e-02
1.325321e-02
1.033178e-02
9.721365e-03
9.552849e-03
9.408508e-03
9.059954e-03
8.213747e-03
6.553378e-03
4.025463e-03
2.222746e-03
1.316939e-02
1.119582e-02
8.969463e-03
8.547569e-03
8.486163e-03
8.471771e-03
8.212357e-03
7.470593e-03
6.109267e-03
4.187208e-03
2.897684e-03
1.061855e-02
9.204078e-03
7.717535e-03
7.498422e-03
7.557954e-03
7.631151e-03
7.451267e-03
6.867871e-03
5.830723e-03
4.452191e-03
3.583622e-03
8.230319e-03
7.350423e-03
6.527459e-03
6.520264e-03
6.704785e-03
6.854980e-03
6.783556e-03
6.384034e-03
5.660487e-03
4.757506e-03
4.226496e-03
6.139808e-03
5.676150e-03
5.373037e-03
5.584606e-03
5.913991e-03
6.167613e-03
6.214263e-03
5.999938e-03
5.568965e-03
5.058913e-03
4.785631e-03
4.410342e-03
4.206462e-03
4.297359e-03
4.732999e-03
5.203421e-03
5.563418e-03
5.735348e-03
5.707011e-03
5.533431e-03
5.332542e-03
5.253442e-03
3.023485e-03
2.970492e-03
3.359660e-03
4.011817e-03
4.616698e-03
5.073177e-03
5.358083e-03
5.487891e-03
5.522321e-03
5.560936e-03
5.623745e-03
1.890386e-03
1.952303e-03
2.609290e-03
3.453700e-03
4.184009e-03
4.724992e-03
5.093473e-03
5.334623e-03
5.517194e-03
5.726293e-03
5.887125e-03
9.235959e-04
1.161365e-03
2.116587e-03
3.095647e-03
3.912381e-03
4.514976e-03
4.936735e-03
5.244414e-03
5.513520e-03
5.819217e-03
6.033971e-03
3.192639e-04
8.205951e-04
1.945611e-03
2.968733e-03
3.814031e-03
4.440486e-03
4.882649e-03
5.213012e-03
5.510096e-03
5.845501e-03
6.076040e-03
</DataArray>
<DataArray Name="stress" type="Float64" NumberOfComponents="9" format="ascii">
-1.116404e+05 4.818188e+03 0.000000e+00 4.818188e+03 -1.864445e+05 0.000000e+00 0.000000e+00 0.000000e+00 0.000000e+00
-9.897341e+04 3.868333e+03 0.000000e+00 3.868333e+03 -1.851396e+05 0.000000e+00 0.000000e+00 0.000000e+00 0.000000e+00
-9.230044e+04 2.817128e+03 0.000000e+00 2.817128e+03 -1.946989e+05 0.000000e+00 0.000000e+00 0.000000e+00 0.000000e+00
-9.722152e+04 2.477792e+03 0.000000e+00 2.477792e+03 -2.008678e+05 0.000000e+00 0.000000e+00 0.000000e+00 0.000000e+00
-1.075999e+05 3.674335e+03 0.000000e+00 3.674335e+03 -2.038716e+05 0.000000e+00 0.000000e+00 0.000000e+00 0.000000e+00
-1.132733e+05 6.692063e+03 0.000000e+00 6.692063e+03 -2.138575e+05 0.000000e+00 0.000000e+00 0.000000e+00 0.000000e+00
-1.206051e+05 9.498854e+03 0.000000e+00 9.498854e+03 -2.257077e+05 0.000000e+00 0.000000e+00 0.000000e+00 0.000000e+00
-1.241851e+05 9.228075e+03 0.000000e+00 9.228075e+03 -2.381389e+05 0.000000e+00 0.000000e+00 0.000000e+00 0.000000e+00
-1.240545e+05 5.825404e+03 0.000000e+00 5.825404e+03 -2.529414e+05 0.000000e+00 0.000000e+00 0.000000e+00 0.000000e+00
-1.410948e+05 -3.869001e+02 0.000000e+00 -3.869001e+02 -2.560929e+05 0.000000e+00 0.000000e+00 0.000000e+00 0.000000e+00
-1.478407e+05 -8.459645e+02 0.000000e+00 -8.459645e+02 -2.512071e+05 0.000000e+00 0.000000e+00 0.000000e+00 0.000000e+00
-1.106202e+05 1.405193e+04 0.000000e+00 1.405193e+04 -1.784489e+05 0.000000e+00 0.000000e+00 0.000000e+00 0.000000e+00
-9.834489e+04 1.194901e+04 0.000000e+00 1.194901e+04 -1.764985e+05 0.000000e+00 0.000000e+00 0.000000e+00 0.000000e+00
-9.311684e+04 1.033770e+04 0.000000e+00 1.033770e+04 -1.859047e+05 0.000000e+00 0.000000e+00 0.000000e+00 0.000000e+00
-9.618862e+04 1.072161e+04 0.000000e+00 1.072161e+04 -1.954364e+05 0.000000e+00 0.000000e+00 0.000000e+00 0.000000e+00
-1.051249e+05 1.210452e+04 0.000000e+00 1.210452e+04 -2.066475e+05 0.000000e+00 0.000000e+00 0.000000e+00 0.000000e+00
-1.128076e+05 1.368038e+04 0.000000e+00 1.368038e+04 -2.178669e+05 0.000000e+00 0.000000e+00 0.000000e+00 0.000000e+00
-1.192470e+05 1.419721e+04 0.000000e+00 1.419721e+04 -2.285725e+05 0.000000e+00 0.000000e+00 0.000000e+00 0.000000e+00
-1.236191e+05 1.141138e+04 0.000000e+00 1.141138e+04 -2.380312e+05 0.000000e+00 0.000000e+00 0.000000e+00 0.000000e+00
-1.275106e+05 6.972707e+03 0.000000e+00 6.972707e+03 -2.478019e+05 0.000000e+00 0.000000e+00 0.000000e+00 0.000000e+00
-1.355420e+05 5.100707e+02 0.000000e+00 5.100707e+02 -2.521190e+05 0.000000e+00 0.000000e+00 0.000000e+00 0.000000e+00
-1.504431e+05 -5.807534e+03 0.000000e+00 -5.807534e+03 -2.755645e+05 0.000000e+00 0.000000e+00 0.000000e+00 0.000000e+00
-1.061017e+05 2.413818e+04 0.000000e+00 2.413818e+04 -1.554938e+05 0.000000e+00 0.000000e+00 0.000000e+00 0.000000e+00
-9.612891e+04 2.144313e+04 0.000000e+00 2.144313e+04 -1.519841e+05 0.000000e+00 0.000000e+00 0.000000e+00 0.000000e+00
-9.459687e+04 2.096950e+04 0.000000e+00 2.096950e+04 -1.588654e+05 0.000000e+00 0.000000e+00 0.000000e+00 0.000000e+00
-9.991259e+04 2.342400e+04 0.000000e+00 2.342400e+04 -1.682596e+05 0.000000e+00 0.000000e+00 0.000000e+00 0.000000e+00
-1.087665e+05 2.654878e+04 0.000000e+00 2.654878e+04 -1.788183e+05 0.000000e+00 0.000000e+00 0.000000e+00 0.000000e+00
-1.165389e+05 2.854674e+04 0.000000e+00 2.854674e+04 -1.881945e+05 0.000000e+00 0.000000e+00 0.000000e+00 0.000000e+00
-1.248019e+05 3.074839e+04 0.000000e+00 3.074839e+04 -2.006526e+05 0.000000e+00 0.000000e+00 0.000000e+00 0.000000e+00
-1.355639e+05 3.153928e+04 0.000000e+00 3.153928e+04 -2.163125e+05 0.000000e+00 0.000000e+00 0.000000e+00 0.000000e+00
-1.483235e+05 3.077342e+04 0.000000e+00 3.077342e+04 -2.287457e+05 0.000000e+00 0.000000e+00 0.000000e+00 0.000000e+00
-1.563815e+05 2.415517e+04 0.000000e+00 2.415517e+04 -2.483393e+05 0.000000e+00 0.000000e+00 0.000000e+00 0.000000e+00
-1.714472e+05 8.502763e+03 0.000000e+00 8.502763e+03 -2.864153e+05 0.000000e+00 0.000000e+00 0.000000e+00 0.000000e+00
-9.767361e+04 2.638587e+04 0.000000e+00 2.638587e+04 -1.262242e+05 0.000000e+00 0.000000e+00 0.000000e+00 0.000000e+00
-9.125825e+04 2.463141e+04 0.000000e+00 2.463141e+04 -1.228378e+05 0.000000e+00 0.000000e+00 0.000000e+00 0.000000e+00
-9.180144e+04 2.493064e+04 0.000000e+00 2.493064e+04 -1.240556e+05 0.000000e+00 0.000000e+00 0.000000e+00 0.000000e+00
-9.711182e+04 2.687584e+04 0.000000e+00 2.687584e+04 -1.245151e+05 0.000000e+00 0.000000e+00 0.000000e+00 0.000000e+00
-1.037040e+05 2.857566e+04 0.000000e+00 2.857566e+04 -1.232953e+05 0.000000e+00 0.000000e+00 0.000000e+00 0.000000e+00
-1.086793e+05 2.973969e+04 0.000000e+00 2.973969e+04 -1.208680e+05 0.000000e+00 0.000000e+00 0.000000e+00 0.000000e+00
-1.105604e+05 3.020728e+04 0.000000e+00 3.020728e+04 -1.158345e+05 0.000000e+00 0.000000e+00 0.000000e+00 0.000000e+00
-1.088600e+05 2.836551e+04 0.000000e+00 2.836551e+04 -1.075248e+05 0.000000e+00 0.000000e+00 0.000000e+00 0.000000e+00
-1.038563e+05 2.380992e+04 0.000000e+00 2.380992e+04 -9.593072e+04 0.000000e+00 0.000000e+00 0.000000e+00 0.000000e+00
-8.887034e+04 1.546967e+04 0.000000e+00 1.546967e+04 -8.047070e+04 0.000000e+00 0.000000e+00 0.000000e+00 0.000000e+00
-6.556635e+04 9.592819e+03 0.000000e+00 9.592819e+03 -6.737559e+04 0.000000e+00 0.000000e+00 0.000000e+00 0.000000e+00
-9.352669e+04 2.599485e+04 0.000000e+00 2.599485e+04 -1.110421e+05 0.000000e+00 0.000000e+00 0.000000e+00 0.000000e+00
-9.131595e+04 2.513436e+04 0.000000e+00 2.513436e+04 -1.094488e+05 0.000000e+00 0.000000e+00 0.000000e+00 0.000000e+00
-9.485673e+04 2.546172e+04 0.000000e+00 2.546172e+04 -1.094512e+05 0.000000e+00 0.000000e+00 0.000000e+00 0.000000e+00
-1.016283e+05 2.636055e+04 0.000000e+00 2.636055e+04 -1.079516e+05 0.000000e+00 0.000000e+00 0.000000e+00 0.000000e+00
-1.084100e+05 2.679262e+04 0.000000e+00 2.679262e+04 -1.048980e+05 0.000000e+00 0.000000e+00 0.000000e+00 0.000000e+00
-1.137105e+05 2.606101e+04 0.000000e+00 2.606101e+04 -1.001745e+05 0.000000e+00 0.000000e+00 0.000000e+00 0.000000e+00
-1.160183e+05 2.399816e+04 0.000000e+00 2.399816e+04 -9.354162e+04 0.000000e+00 0.000000e+00 0.000000e+00 0.000000e+00
-1.158427e+05 2.058996e+04 0.000000e+00 2.058996e+04 -8.552288e+04 0.000000e+00 0.000000e+00 0.000000e+00 0.000000e+00
-1.119349e+05 1.462456e+04 0.000000e+00 1.462456e+04 -7.650881e+04 0.000000e+00 0.000000e+00 0.000000e+00 0.000000e+00
-9.514870e+04 5.481571e+03 0.000000e+00 5.481571e+03 -6.835597e+04 0.000000e+00 0.000000e+00 0.000000e+00 0.000000e+00
-6.266216e+04 -5.164842e+01 0.000000e+00 -5.164842e+01 -5.685627e+04 0.000000e+00 0.000000e+00 0.000000e+00 0.000000e+00
-8.808125e+04 2.470695e+04 0.000000e+00 2.470695e+04 -9.783812e+04 0.000000e+00 0.000000e+00 0.000000e+00 0.000000e+00
-8.994595e+04 2.424029e+04 0.000000e+00 2.424029e+04 -9.753395e+04 0.000000e+00 0.000000e+00 0.000000e+00 0.000000e+00
-9.535615e+04 2.371823e+04 0.000000e+00 2.371823e+04 -9.598883e+04 0.000000e+00 0.000000e+00 0.000000e+00 0.000000e+00
-1.021830e+05 2.338519e+04 0.000000e+00 2.338519e+04 -9.309428e+04 0.000000e+00 0.000000e+00 0.000000e+00 0.000000e+00
-1.080252e+05 2.228940e+04 0.000000e+00 2.228940e+04 -8.927634e+04 0.000000e+00 0.000000e+00 0.000000e+00 0.000000e+00
-1.119591e+05 2.000381e+04 0.000000e+00 2.000381e+04 -8.447583e+04 0.000000e+00 0.000000e+00 0.000000e+00 0.000000e+00
-1.128079e+05 1.655849e+04 0.000000e+00 1.655849e+04 -7.868116e+04 0.000000e+00 0.000000e+00 0.000000e+00 0.000000e+00
-1.107709e+05 1.190817e+04 0.000000e+00 1.190817e+04 -7.250390e+04 0.000000e+00 0.000000e+00 0.000000e+00 0.000000e+00
-1.040243e+05 5.606189e+03 0.000000e+00 5.606189e+03 -6.674077e+04 0.000000e+00 0.000000e+00 0.000000e+00 0.000000e+00
-8.587996e+04 -5.402632e+02 0.000000e+00 -5.402632e+02 -6.223370e+04 0.000000e+00 0.000000e+00 0.000000e+00 0.000000e+00
-6.166953e+04 -2.556437e+03 0.000000e+00 -2.556437e+03 -5.685082e+04 0.000000e+00 0.000000e+00 0.000000e+00 0.000000e+00
-8.275606e+04 2.292426e+04 0.000000e+00 2.292426e+04 -8.713548e+04 0.000000e+00 0.000000e+00 0.000000e+00 0.000000e+00
-8.821912e+04 2.251376e+04 0.000000e+00 2.251376e+04 -8.775684e+04 0.000000e+00 0.000000e+00 0.000000e+00 0.000000e+00
-9.494094e+04 2.108090e+04 0.000000e+00 2.108090e+04 -8.542064e+04 0.000000e+00 0.000000e+00 0.000000e+00 0.000000e+00
-1.011627e+05 1.976519e+04 0.000000e+00 1.976519e+04 -8.250579e+04 0.000000e+00 0.000000e+00 0.000000e+00 0.000000e+00
-1.057555e+05 1.761275e+04 0.000000e+00 1.761275e+04 -7.876514e+04 0.000000e+00 0.000000e+00 0.000000e+00 0.000000e+00
-1.084157e+05 1.451585e+04 0.000000e+00 1.451585e+04 -7.459928e+04 0.000000e+00 0.000000e+00 0.000000e+00 0.000000e+00
-1.083343e+05 1.059527e+04 0.000000e+00 1.059527e+04 -7.022189e+04 0.000000e+00 0.000000e+00 0.000000e+00 0.000000e+00
-1.050742e+05 5.857536e+03 0.000000e+00 5.857536e+03 -6.598305e+04 0.000000e+00 0.000000e+00 0.000000e+00 0.000000e+00
-9.723807e+04 7.117859e+02 0.000000e+00 7.117859e+02 -6.245405e+04 0.000000e+00 0.000000e+00 0.000000e+00 0.000000e+00
-8.262134e+04 -2.405255e+03 0.000000e+00 -2.405255e+03 -6.029587e+04 0.000000e+00 0.000000e+00 0.000000e+00 0.000000e+00
-6.685826e+04 -2.814150e+03 0.000000e+00 -2.814150e+03 -5.761471e+04 0.000000e+00 0.000000e+00 0.000000e+00 0.000000e+00
-7.840263e+04 2.088421e+04 0.000000e+00 2.088421e+04 -7.909924e+04 0.000000e+00 0.000000e+00 0.000000e+00 0.000000e+00
-8.600973e+04 2.042221e+04 0.000000e+00 2.042221e+04 -8.013791e+04 0.000000e+00 0.000000e+00 0.000000e+00 0.000000e+00
-9.340398e+04 1.833990e+04 0.000000e+00 1.833990e+04 -7.767973e+04 0.000000e+00 0.000000e+00 0.000000e+00 0.000000e+00
-9.895576e+04 1.617879e+04 0.000000e+00 1.617879e+04 -7.484942e+04 0.000000e+00 0.000000e+00 0.000000e+00 0.000000e+00
-1.027297e+05 1.353119e+04 0.000000e+00 1.353119e+04 -7.170621e+04 0.000000e+00 0.000000e+00 0.000000e+00 0.000000e+00
-1.045155e+05 1.024830e+04 0.000000e+00 1.024830e+04 -6.849127e+04 0.000000e+00 0.000000e+00 0.000000e+00 0.000000e+00
-1.037239e+05 6.317509e+03 0.000000e+00 6.317509e+03 -6.531806e+04 0.000000e+00 0.000000e+00 0.000000e+00 0.000000e+00
-9.986041e+04 2.069305e+03 0.000000e+00 2.069305e+03 -6.249291e+04 0.000000e+00 0.000000e+00 0.000000e+00 0.000000e+00
-9.281637e+04 -1.567368e+03 0.000000e+00 -1.567368e+03 -6.057989e+04 0.000000e+00 0.000000e+00 0.000000e+00 0.000000e+00
-8.226477e+04 -2.801724e+03 0.000000e+00 -2.801724e+03 -5.974448e+04 0.000000e+00 0.000000e+00 0.000000e+00 0.000000e+00
-7.215841e+04 -2.390414e+03 0.000000e+00 -2.390414e+03 -5.825871e+04 0.000000e+00 0.000000e+00 0.000000e+00 0.000000e+00
-7.482584e+04 1.870549e+04 0.000000e+00 1.870549e+04 -7.328811e+04 0.000000e+00 0.000000e+00 0.000000e+00 0.000000e+00
-8.346727e+04 1.821120e+04 0.000000e+00 1.821120e+04 -7.444754e+04 0.000000e+00 0.000000e+00 0.000000e+00 0.000000e+00
-9.105788e+04 1.568194e+04 0.000000e+00 1.568194e+04 -7.203952e+04 0.000000e+00 0.000000e+00 0.000000e+00 0.000000e+00
-9.629188e+04 1.313427e+04 0.000000e+00 1.313427e+04 -6.954413e+04 0.000000e+00 0.000000e+00 0.000000e+00 0.000000e+00
-9.945738e+04 1.031870e+04 0.000000e+00 1.031870e+04 -6.710114e+04 0.000000e+00 0.000000e+00 0.000000e+00 0.000000e+00
-1.005668e+05 7.020070e+03 0.000000e+00 7.020070e+03 -6.465122e+04 0.000000e+00 0.000000e+00 0.000000e+00 0.000000e+00
-9.937320e+04 3.387405e+03 0.000000e+00 3.387405e+03 -6.237556e+04 0.000000e+00 0.000000e+00 0.000000e+00 0.000000e+00
-9.579083e+04 -5.829290e+01 0.000000e+00 -5.829290e+01 -6.064532e+04 0.000000e+00 0.000000e+00 0.000000e+00 0.000000e+00
-9.032780e+04 -2.429455e+03 0.000000e+00 -2.429455e+03 -5.977656e+04 0.000000e+00 0.000000e+00 0.000000e+00 0.000000e+00
-8.316848e+04 -2.642128e+03 0.000000e+00 -2.642128e+03 -5.961364e+04 0.000000e+00 0.000000e+00 0.000000e+00 0.000000e+00
-7.684636e+04 -1.921070e+03 0.000000e+00 -1.921070e+03 -5.873802e+04 0.000000e+00 0.000000e+00 0.000000e+00 0.000000e+00
-7.172309e+04 1.662166e+04 0.000000e+00 1.662166e+04 -6.916593e+04 0.000000e+00 0.000000e+00 0.000000e+00 0.000000e+00
-8.068739e+04 1.603347e+04 0.000000e+00 1.603347e+04 -7.032759e+04 0.000000e+00 0.000000e+00 0.000000e+00 0.000000e+00
-8.834970e+04 1.331100e+04 0.000000e+00 1.331100e+04 -6.806477e+04 0.000000e+00 0.000000e+00 0.000000e+00 0.000000e+00
-9.336138e+04 1.067281e+04 0.000000e+00 1.067281e+04 -6.598523e+04 0.000000e+00 0.000000e+00 0.000000e+00 0.000000e+00
-9.611041e+04 7.799061e+03 0.000000e+00 7.799061e+03 -6.404896e+04 0.000000e+00 0.000000e+00 0.000000e+00 0.000000e+00
-9.685013e+04 4.669663e+03 0.000000e+00 4.669663e+03 -6.219998e+04 0.000000e+00 0.000000e+00 0.000000e+00 0.000000e+00
-9.565870e+04 1.519131e+03 0.000000e+00 1.519131e+03 -6.066923e+04 0.000000e+00 0.000000e+00 0.000000e+00 0.000000e+00
-9.285671e+04 -1.110012e+03 0.000000e+00 -1.110012e+03 -5.972505e+04 0.000000e+00 0.000000e+00 0.000000e+00 0.000000e+00
-8.906691e+04 -2.568670e+03 0.000000e+00 -2.568670e+03 -5.944670e+04 0.000000e+00 0.000000e+00 0.000000e+00 0.000000e+00
-8.452523e+04 -2.276308e+03 0.000000e+00 -2.276308e+03 -5.959311e+04 0.000000e+00 0.000000e+00 0.000000e+00 0.000000e+00
-8.070862e+04 -1.489600e+03 0.000000e+00 -1.489600e+03 -5.914119e+04 0.000000e+00 0.000000e+00 0.000000e+00 0.000000e+00
-6.904677e+04 1.456336e+04 0.000000e+00 1.456336e+04 -6.644163e+04 0.000000e+00 0.000000e+00 0.000000e+00 0.000000e+00
-7.789220e+04 1.389103e+04 0.000000e+00 1.389103e+04 -6.738402e+04 0.000000e+00 0.000000e+00 0.000000e+00 0.000000e+00
-8.555682e+04 1.124607e+04 0.000000e+00 1.124607e+04 -6.529066e+04 0.000000e+00 0.000000e+00 0.000000e+00 0.000000e+00
-9.035378e+04 8.635505e+03 0.000000e+00 8.635505e+03 -6.358896e+04 0.000000e+00 0.000000e+00 0.000000e+00 0.000000e+00
-9.287051e+04 5.871972e+03 0.000000e+00 5.871972e+03 -6.204178e+04 0.000000e+00 0.000000e+00 0.000000e+00 0.000000e+00
-9.352193e+04 3.029492e+03 0.000000e+00 3.029492e+03 -6.068145e+04 0.000000e+00 0.000000e+00 0.000000e+00 0.000000e+00
-9.265691e+04 4.257593e+02 0.000000e+00 4.257593e+02 -5.973170e+04 0.000000e+00 0.000000e+00 0.000000e+00 0.000000e+00
-9.083782e+04 -1.492477e+03 0.000000e+00 -1.492477e+03 -5.929321e+04 0.000000e+00 0.000000e+00 0.000000e+00 0.000000e+00
-8.853395e+04 -2.353224e+03 0.000000e+00 -2.353224e+03 -5.934009e+04 0.000000e+00 0.000000e+00 0.000000e+00 0.000000e+00
-8.593830e+04 -1.868652e+03 0.000000e+00 -1.868652e+03 -5.961730e+04 0.000000e+00 0.000000e+00 0.000000e+00 0.000000e+00
-8.386840e+04 -1.138006e+03 0.000000e+00 -1.138006e+03 -5.945401e+04 0.000000e+00 0.000000e+00 0.000000e+00 0.000000e+00
-6.722305e+04 1.243433e+04 0.000000e+00 1.243433e+04 -6.485914e+04 0.000000e+00 0.000000e+00 0.000000e+00 0.000000e+00
-7.536831e+04 1.176014e+04 0.000000e+00 1.176014e+04 -6.542646e+04 0.000000e+00 0.000000e+00 0.000000e+00 0.000000e+00
-8.287798e+04 9.424681e+03 0.000000e+00 9.424681e+03 -6.350777e+04 0.000000e+00 0.000000e+00 0.000000e+00 0.000000e+00
-8.748694e+04 6.957475e+03 0.000000e+00 6.957475e+03 -6.205195e+04 0.000000e+00 0.000000e+00 0.000000e+00 0.000000e+00
-8.987006e+04 4.396394e+03 0.000000e+00 4.396394e+03 -6.078043e+04 0.000000e+00 0.000000e+00 0.000000e+00 0.000000e+00
-9.064805e+04 1.926963e+03 0.000000e+00 1.926963e+03 -5.980150e+04 0.000000e+00 0.000000e+00 0.000000e+00 0.000000e+00
-9.036152e+04 -1.295317e+02 0.000000e+00 -1.295317e+02 -5.924933e+04 0.000000e+00 0.000000e+00 0.000000e+00 0.000000e+00
-8.950384e+04 -1.493485e+03 0.000000e+00 -1.493485e+03 -5.912046e+04 0.000000e+00 0.000000e+00 0.000000e+00 0.000000e+00
-8.838163e+04 -1.986537e+03 0.000000e+00 -1.986537e+03 -5.933231e+04 0.000000e+00 0.000000e+00 0.000000e+00 0.000000e+00
-8.721520e+04 -1.472724e+03 0.000000e+00 -1.472724e+03 -5.966143e+04 0.000000e+00 0.000000e+00 0.000000e+00 0.000000e+00
-8.637846e+04 -8.441014e+02 0.000000e+00 -8.441014e+02 -5.969168e+04 0.000000e+00 0.000000e+00 0.000000e+00 0.000000e+00
-6.610591e+04 1.030862e+04 0.000000e+00 1.030862e+04 -6.423930e+04 0.000000e+00 0.000000e+00 0.000000e+00 0.000000e+00
-7.328499e+04 9.667822e+03 0.000000e+00 9.667822e+03 -6.436927e+04 0.000000e+00 0.000000e+00 0.000000e+00 0.000000e+00
-8.040482e+04 7.679709e+03 0.000000e+00 7.679709e+03 -6.255537e+04 0.000000e+00 0.000000e+00 0.000000e+00 0.000000e+00
-8.479652e+04 5.471898e+03 0.000000e+00 5.471898e+03 -6.113533e+04 0.000000e+00 0.000000e+00 0.000000e+00 0.000000e+00
-8.723906e+04 3.238878e+03 0.000000e+00 3.238878e+03 -6.001294e+04 0.000000e+00 0.000000e+00 0.000000e+00 0.000000e+00
-8.834134e+04 1.221195e+03 0.000000e+00 1.221195e+03 -5.930342e+04 0.000000e+00 0.000000e+00 0.000000e+00 0.000000e+00
-8.867776e+04 -3.399337e+02 0.000000e+00 -3.399337e+02 -5.901155e+04 0.000000e+00 0.000000e+00 0.000000e+00 0.000000e+00
-8.861530e+04 -1.296226e+03 0.000000e+00 -1.296226e+03 -5.907308e+04 0.000000e+00 0.000000e+00 0.000000e+00 0.000000e+00
-8.841232e+04 -1.566941e+03 0.000000e+00 -1.566941e+03 -5.937099e+04 0.000000e+00 0.000000e+00 0.000000e+00 0.000000e+00
-8.827153e+04 -1.100370e+03 0.000000e+00 -1.100370e+03 -5.969726e+04 0.000000e+00 0.000000e+00 0.000000e+00 0.000000e+00
-8.828947e+04 -5.952286e+02 0.000000e+00 -5.952286e+02 -5.987107e+04 0.000000e+00 0.000000e+00 0.000000e+00 0.000000e+00
-6.530175e+04 7.959499e+03 0.000000e+00 7.959499e+03 -6.426098e+04 0.000000e+00 0.000000e+00 0.000000e+00 0.000000e+00
-7.157977e+04 7.418582e+03 0.000000e+00 7.418582e+03 -6.400550e+04 0.000000e+00 0.000000e+00 0.000000e+00 0.000000e+00
-7.825947e+04 5.855460e+03 0.000000e+00 5.855460e+03 -6.213971e+04 0.000000e+00 0.000000e+00 0.000000e+00 0.000000e+00
-8.250242e+04 4.053843e+03 0.000000e+00 4.053843e+03 -6.068725e+04 0.000000e+00 0.000000e+00 0.000000e+00 0.000000e+00
-8.508322e+04 2.279096e+03 0.000000e+00 2.279096e+03 -5.965369e+04 0.000000e+00 0.000000e+00 0.000000e+00 0.000000e+00
-8.658470e+04 7.645331e+02 0.000000e+00 7.645331e+02 -5.908633e+04 0.000000e+00 0.000000e+00 0.000000e+00 0.000000e+00
-8.746990e+04 -3.521868e+02 0.000000e+00 -3.521868e+02 -5.893787e+04 0.000000e+00 0.000000e+00 0.000000e+00 0.000000e+00
-8.804731e+04 -9.989849e+02 0.000000e+00 -9.989849e+02 -5.909864e+04 0.000000e+00 0.000000e+00 0.000000e+00 0.000000e+00
-8.852944e+04 -1.135393e+03 0.000000e+00 -1.135393e+03 -5.942209e+04 0.000000e+00 0.000000e+00 0.000000e+00 0.000000e+00
-8.908759e+04 -7.647640e+02 0.000000e+00 -7.647640e+02 -5.973718e+04 0.000000e+00 0.000000e+00 0.000000e+00 0.000000e+00
-8.966230e+04 -3.840445e+02 0.000000e+00 -3.840445e+02 -6.000680e+04 0.000000e+00 0.000000e+00 0.000000e+00 0.000000e+00
-6.479135e+04 5.414786e+03 0.000000e+00 5.414786e+03 -6.441477e+04 0.000000e+00 0.000000e+00 0.000000e+00 0.000000e+00
-7.033662e+04 5.015161e+03 0.000000e+00 5.015161e+03 -6.394888e+04 0.000000e+00 0.000000e+00 0.000000e+00 0.000000e+00
-7.660955e+04 3.919507e+03 0.000000e+00 3.919507e+03 -6.195520e+04 0.000000e+00 0.000000e+00 0.000000e+00 0.000000e+00
-8.076615e+04 2.660807e+03 0.000000e+00 2.660807e+03 -6.048897e+04 0.000000e+00 0.000000e+00 0.000000e+00 0.000000e+00
-8.350075e+04 1.451224e+03 0.000000e+00 1.451224e+03 -5.953510e+04 0.000000e+00 0.000000e+00 0.000000e+00 0.000000e+00
-8.534782e+04 4.487180e+02 0.000000e+00 4.487180e+02 -5.906560e+04 0.000000e+00 0.000000e+00 0.000000e+00 0.000000e+00
-8.665545e+04 -2.694244e+02 0.000000e+00 -2.694244e+02 -5.898663e+04 0.000000e+00 0.000000e+00 0.000000e+00 0.000000e+00
-8.770086e+04 -6.674523e+02 0.000000e+00 -6.674523e+02 -5.917520e+04 0.000000e+00 0.000000e+00 0.000000e+00 0.000000e+00
-8.866123e+04 -7.275976e+02 0.000000e+00 -7.275976e+02 -5.949100e+04 0.000000e+00 0.000000e+00 0.000000e+00 0.000000e+00
-8.965656e+04 -4.700360e+02 0.000000e+00 -4.700360e+02 -5.978388e+04 0.000000e+00 0.000000e+00 0.000000e+00 0.000000e+00
-9.055516e+04 -2.187220e+02 0.000000e+00 -2.187220e+02 -6.010919e+04 0.000000e+00 0.000000e+00 0.000000e+00 0.000000e+00
-6.446924e+04 2.633656e+03 0.000000e+00 2.633656e+03 -6.445098e+04 0.000000e+00 0.000000e+00 0.000000e+00 0.000000e+00
-6.959257e+04 2.458591e+03 0.000000e+00 2.458591e+03 -6.388132e+04 0.000000e+00 0.000000e+00 0.000000e+00 0.000000e+00
-7.557364e+04 1.937033e+03 0.000000e+00 1.937033e+03 -6.186012e+04 0.000000e+00 0.000000e+00 0.000000e+00 0.000000e+00
-7.971916e+04 1.312591e+03 0.000000e+00 1.312591e+03 -6.042204e+04 0.000000e+00 0.000000e+00 0.000000e+00 0.000000e+00
-8.254438e+04 7.080762e+02 0.000000e+00 7.080762e+02 -5.952864e+04 0.000000e+00 0.000000e+00 0.000000e+00 0.000000e+00
-8.461074e+04 2.089058e+02 0.000000e+00 2.089058e+02 -5.910240e+04 0.000000e+00 0.000000e+00 0.000000e+00 0.000000e+00
-8.619205e+04 -1.447276e+02 0.000000e+00 -1.447276e+02 -5.905876e+04 0.000000e+00 0.000000e+00 0.000000e+00 0.000000e+00
-8.751395e+04 -3.325229e+02 0.000000e+00 -3.325229e+02 -5.926094e+04 0.000000e+00 0.000000e+00 0.000000e+00 0.000000e+00
-8.875720e+04 -3.510382e+02 0.000000e+00 -3.510382e+02 -5.956582e+04 0.000000e+00 0.000000e+00 0.000000e+00 0.000000e+00
-8.998997e+04 -2.172864e+02 0.000000e+00 -2.172864e+02 -5.982195e+04 0.000000e+00 0.000000e+00 0.000000e+00 0.000000e+00
-9.104792e+04 -9.693082e+01 0.000000e+00 -9.693082e+01 -6.016159e+04 0.000000e+00 0.000000e+00 0.000000e+00 0.000000e+00
-6.425283e+04 6.528723e+02 0.000000e+00 6.528723e+02 -6.417688e+04 0.000000e+00 0.000000e+00 0.000000e+00 0.000000e+00
-6.931081e+04 6.841899e+02 0.000000e+00 6.841899e+02 -6.369055e+04 0.000000e+00 0.000000e+00 0.000000e+00 0.000000e+00
-7.522272e+04 5.591992e+02 0.000000e+00 5.591992e+02 -6.181618e+04 0.000000e+00 0.000000e+00 0.000000e+00 0.000000e+00
-7.937366e+04 3.398036e+02 0.000000e+00 3.398036e+02 -6.040551e+04 0.000000e+00 0.000000e+00 0.000000e+00 0.000000e+00
-8.222691e+04 1.116805e+02 0.000000e+00 1.116805e+02 -5.953866e+04 0.000000e+00 0.000000e+00 0.000000e+00 0.000000e+00
-8.437752e+04 -6.920826e+01 0.000000e+00 -6.920826e+01 -5.912887e+04 0.000000e+00 0.000000e+00 0.000000e+00 0.000000e+00
-8.604619e+04 -2.030011e+02 0.000000e+00 -2.030011e+02 -5.909528e+04 0.000000e+00 0.000000e+00 0.000000e+00 0.000000e+00
-8.746028e+04 -2.767041e+02 0.000000e+00 -2.767041e+02 -5.930471e+04 0.000000e+00 0.000000e+00 0.000000e+00 0.000000e+00
-8.880237e+04 -2.817714e+02 0.000000e+00 -2.817714e+02 -5.960613e+04 0.000000e+00 0.000000e+00 0.000000e+00 0.000000e+00
-9.010445e+04 -2.236987e+02 0.000000e+00 -2.236987e+02 -5.984657e+04 0.000000e+00 0.000000e+00 0.000000e+00 0.000000e+00
-9.120566e+04 -1.727676e+02 0.000000e+00 -1.727676e+02 -6.018171e+04 0.000000e+00 0.000000e+00 0.000000e+00 0.000000e+00
</DataArray>
<DataArray Name="vol_eps" type="Float64" NumberOfComponents="1" format="ascii">
-1.134191e-02
-9.897862e-03
-8.704273e-03
-7.669688e-03
-7.374429e-03
-7.855525e-03
-9.194486e-03
-1.120884e-02
-1.435396e-02
-1.718835e-02
-1.763603e-02
-1.073174e-02
-9.256171e-03
-8.311370e-03
-7.736576e-03
-7.994139e-03
-8.625019e-03
-9.464113e-03
-1.048006e-02
-1.238476e-02
-1.474052e-02
-1.856797e-02
-8.834538e-03
-7.460202e-03
-6.922043e-03
-7.023184e-03
-7.480759e-03
-7.855653e-03
-8.313580e-03
-8.875209e-03
-9.336958e-03
-1.052790e-02
-1.405926e-02
-6.178351e-03
-5.305272e-03
-5.104382e-03
-5.131450e-03
-5.137872e-03
-4.864357e-03
-3.821771e-03
-2.022605e-03
4.212723e-04
3.957519e-03
7.729562e-03
-4.794471e-03
-4.588975e-03
-4.974888e-03
-5.392940e-03
-5.675833e-03
-5.752359e-03
-5.484556e-03
-4.951963e-03
-4.199442e-03
-2.718156e-03
1.426347e-04
-3.444073e-03
-3.735604e-03
-4.274976e-03
-4.648246e-03
-4.838734e-03
-4.812686e-03
-4.497834e-03
-3.981796e-03
-3.233906e-03
-1.793040e-03
1.537703e-04
-2.400619e-03
-3.085438e-03
-3.699368e-03
-4.005285e-03
-4.079398e-03
-3.978709e-03
-3.698013e-03
-3.244997e-03
-2.549890e-03
-1.463261e-03
-2.605217e-04
-1.690844e-03
-2.560347e-03
-3.169144e-03
-3.393913e-03
-3.435121e-03
-3.346364e-03
-3.111191e-03
-2.705818e-03
-2.150963e-03
-1.403450e-03
-6.439031e-04
-1.231588e-03
-2.133110e-03
-2.687675e-03
-2.892600e-03
-2.942561e-03
-2.867434e-03
-2.659027e-03
-2.333769e-03
-1.940809e-03
-1.454741e-03
-9.758855e-04
-9.422476e-04
-1.794277e-03
-2.285530e-03
-2.494188e-03
-2.552045e-03
-2.485939e-03
-2.317094e-03
-2.091788e-03
-1.839087e-03
-1.543793e-03
-1.257240e-03
-7.630163e-04
-1.514579e-03
-1.956135e-03
-2.169436e-03
-2.230325e-03
-2.182265e-03
-2.071048e-03
-1.939991e-03
-1.797907e-03
-1.640843e-03
-1.491006e-03
-6.438956e-04
-1.278337e-03
-1.684152e-03
-1.894883e-03
-1.962877e-03
-1.948202e-03
-1.900436e-03
-1.845526e-03
-1.787812e-03
-1.730391e-03
-1.676319e-03
-5.825773e-04
-1.095202e-03
-1.461201e-03
-1.658508e-03
-1.744905e-03
-1.771946e-03
-1.779648e-03
-1.784845e-03
-1.792871e-03
-1.804377e-03
-1.816334e-03
-5.692341e-04
-9.762949e-04
-1.294408e-03
-1.477884e-03
-1.579706e-03
-1.645342e-03
-1.697356e-03
-1.748619e-03
-1.803815e-03
-1.861532e-03
-1.916169e-03
-5.754786e-04
-9.062648e-04
-1.177536e-03
-1.351682e-03
-1.468819e-03
-1.562773e-03
-1.646879e-03
-1.730360e-03
-1.815863e-03
-1.900554e-03
-1.979901e-03
-5.716286e-04
-8.615375e-04
-1.106124e-03
-1.277137e-03
-1.405056e-03
-1.516551e-03
-1.620373e-03
-1.723014e-03
-1.825528e-03
-1.922816e-03
-2.013565e-03
-5.437007e-04
-8.332604e-04
-1.081770e-03
-1.252851e-03
-1.384307e-03
-1.503032e-03
-1.613377e-03
-1.722480e-03
-1.831036e-03
-1.931932e-03
-2.025431e-03
</DataArray>
</PointData>
</Piece>
</UnstructuredGrid>
</VTKFile>
