<?xml version="1.0"?>
<VTKFile type="UnstructuredGrid" version="0.1">
<UnstructuredGrid>
<FieldData>
<DataArray Name="TIME" type="Float64" format="ascii" NumberOfTuples="1">
0.000000e+00
</DataArray>
</FieldData>
<FieldData>
<DataArray Name="CYCLE" type="Int32" format="ascii" NumberOfTuples="1">
0
</DataArray>
</FieldData>
<Piece NumberOfPoints="187" NumberOfCells="160">
<Points>
<DataArray NumberOfComponents="3" type="Float64" format="ascii">
0.000000e+00 0.000000e+00 0.000000e+00
0.000000e+00 1.973666e-01 0.000000e+00
0.000000e+00 3.938271e-01 0.000000e+00
0.000000e+00 5.894344e-01 0.000000e+00
0.000000e+00 7.843027e-01 0.000000e+00
0.000000e+00 9.785583e-01 0.000000e+00
0.000000e+00 1.172600e+00 0.000000e+00
0.000000e+00 1.367016e+00 0.000000e+00
0.000000e+00 1.562195e+00 0.000000e+00
0.000000e+00 1.758433e+00 0.000000e+00
0.000000e+00 1.955000e+00 0.000000e+00
2.250000e-01 0.000000e+00 0.000000e+00
2.262509e-01 1.975480e-01 0.000000e+00
2.274202e-01 3.942465e-01 0.000000e+00
2.284548e-01 5.902278e-01 0.000000e+00
2.292618e-01 7.855778e-01 0.000000e+00
2.296874e-01 9.803977e-01 0.000000e+00
2.294592e-01 1.174828e+00 0.000000e+00
2.285981e-01 1.369134e+00 0.000000e+00
2.271724e-01 1.563627e+00 0.000000e+00
2.255656e-01 1.758597e+00 0.000000e+00
2.250000e-01 1.955000e+00 0.000000e+00
4.500000e-01 0.000000e+00 0.000000e+00
4.523898e-01 1.980818e-01 0.000000e+00
4.544443e-01 3.955777e-01 0.000000e+00
4.561368e-01 5.925993e-01 0.000000e+00
4.574170e-01 7.891868e-01 0.000000e+00
4.582054e-01 9.853448e-01 0.000000e+00
4.583965e-01 1.180966e+00 0.000000e+00
4.579669e-01 1.375810e+00 0.000000e+00
4.567463e-01 1.569674e+00 0.000000e+00
4.545850e-01 1.762478e+00 0.000000e+00
4.500000e-01 1.955000e+00 0.000000e+00
6.750000e-01 0.000000e+00 0.000000e+00
6.780441e-01 1.987833e-01 0.000000e+00
6.804634e-01 3.974629e-01 0.000000e+00
6.823904e-01 5.961787e-01 0.000000e+00
6.839048e-01 7.950177e-01 0.000000e+00
6.850002e-01 9.939975e-01 0.000000e+00
6.856583e-01 1.193123e+00 0.000000e+00
6.858237e-01 1.392489e+00 0.000000e+00
6.853771e-01 1.592140e+00 0.000000e+00
6.836997e-01 1.792251e+00 0.000000e+00
6.792774e-01 1.992808e+00 0.000000e+00
9.000000e-01 0.000000e+00 0.000000e+00
9.032011e-01 1.990850e-01 0.000000e+00
9.054875e-01 3.982401e-01 0.000000e+00
9.072185e-01 5.975301e-01 0.000000e+00
9.085236e-01 7.969562e-01 0.000000e+00
9.094301e-01 9.965366e-01 0.000000e+00
9.099014e-01 1.196305e+00 0.000000e+00
9.098690e-01 1.396284e+00 0.000000e+00
9.091671e-01 1.596533e+00 0.000000e+00
9.073289e-01 1.796956e+00 0.000000e+00
9.044570e-01 1.996967e+00 0.000000e+00
1.125000e+00 0.000000e+00 0.000000e+00
1.128129e+00 1.994023e-01 0.000000e+00
1.130176e+00 3.989065e-01 0.000000e+00
1.131688e+00 5.985424e-01 0.000000e+00
1.132808e+00 7.983171e-01 0.000000e+00
1.133539e+00 9.982447e-01 0.000000e+00
1.133855e+00 1.198337e+00 0.000000e+00
1.133692e+00 1.398602e+00 0.000000e+00
1.132916e+00 1.599002e+00 0.000000e+00
1.131496e+00 1.799345e+00 0.000000e+00
1.129771e+00 1.999439e+00 0.000000e+00
1.350000e+00 0.000000e+00 0.000000e+00
1.352868e+00 1.996258e-01 0.000000e+00
1.354671e+00 3.993746e-01 0.000000e+00
1.355991e+00 5.992503e-01 0.000000e+00
1.356942e+00 7.992576e-01 0.000000e+00
1.357542e+00 9.993912e-01 0.000000e+00
1.357755e+00 1.199649e+00 0.000000e+00
1.357535e+00 1.400016e+00 0.000000e+00
1.356881e+00 1.600420e+00 0.000000e+00
1.355900e+00 1.800720e+00 0.000000e+00
1.354865e+00 2.000813e+00 0.000000e+00
1.575000e+00 0.000000e+00 0.000000e+00
1.577504e+00 1.997806e-01 0.000000e+00
1.579071e+00 3.996925e-01 0.000000e+00
1.580214e+00 5.997285e-01 0.000000e+00
1.581035e+00 7.998683e-01 0.000000e+00
1.581531e+00 1.000110e+00 0.000000e+00
1.581678e+00 1.200447e+00 0.000000e+00
1.581487e+00 1.400842e+00 0.000000e+00
1.581018e+00 1.601216e+00 0.000000e+00
1.580389e+00 1.801484e+00 0.000000e+00
1.579791e+00 2.001601e+00 0.000000e+00
1.800000e+00 0.000000e+00 0.000000e+00
1.802092e+00 1.998761e-01 0.000000e+00
1.803437e+00 3.998944e-01 0.000000e+00
1.804429e+00 6.000145e-01 0.000000e+00
1.805136e+00 8.002264e-01 0.000000e+00
1.805548e+00 1.000526e+00 0.000000e+00
1.805674e+00 1.200890e+00 0.000000e+00
1.805556e+00 1.401274e+00 0.000000e+00
1.805262e+00 1.601616e+00 0.000000e+00
1.804891e+00 1.801870e+00 0.000000e+00
1.804579e+00 2.002014e+00 0.000000e+00
2.025000e+00 0.000000e+00 0.000000e+00
2.026678e+00 1.999275e-01 0.000000e+00
2.027819e+00 3.999986e-01 0.000000e+00
2.028673e+00 6.001626e-01 0.000000e+00
2.029275e+00 8.004084e-01 0.000000e+00
2.029628e+00 1.000726e+00 0.000000e+00
2.029760e+00 1.201084e+00 0.000000e+00
2.029720e+00 1.401443e+00 0.000000e+00
2.029565e+00 1.601763e+00 0.000000e+00
2.029377e+00 1.802014e+00 0.000000e+00
2.029250e+00 2.002187e+00 0.000000e+00
2.250000e+00 0.000000e+00 0.000000e+00
2.251299e+00 1.999548e-01 0.000000e+00
2.252246e+00 4.000412e-01 0.000000e+00
2.252969e+00 6.002162e-01 0.000000e+00
2.253477e+00 8.004683e-01 0.000000e+00
2.253787e+00 1.000777e+00 0.000000e+00
2.253933e+00 1.201115e+00 0.000000e+00
2.253953e+00 1.401450e+00 0.000000e+00
2.253897e+00 1.601753e+00 0.000000e+00
2.253830e+00 1.802007e+00 0.000000e+00
2.253824e+00 2.002209e+00 0.000000e+00
2.475000e+00 0.000000e+00 0.000000e+00
2.475976e+00 1.999632e-01 0.000000e+00
2.476739e+00 4.000420e-01 0.000000e+00
2.477330e+00 6.002102e-01 0.000000e+00
2.477754e+00 8.004512e-01 0.000000e+00
2.478028e+00 1.000740e+00 0.000000e+00
2.478177e+00 1.201054e+00 0.000000e+00
2.478235e+00 1.401366e+00 0.000000e+00
2.478243e+00 1.601657e+00 0.000000e+00
2.478251e+00 1.801917e+00 0.000000e+00
2.478310e+00 2.002146e+00 0.000000e+00
2.700000e+00 0.000000e+00 0.000000e+00
2.700712e+00 1.999596e-01 0.000000e+00
2.701298e+00 4.000225e-01 0.000000e+00
2.701761e+00 6.001731e-01 0.000000e+00
2.702105e+00 8.003937e-01 0.000000e+00
2.702338e+00 1.000661e+00 0.000000e+00
2.702478e+00 1.200951e+00 0.000000e+00
2.702553e+00 1.401245e+00 0.000000e+00
2.702595e+00 1.601527e+00 0.000000e+00
2.702641e+00 1.801793e+00 0.000000e+00
2.702727e+00 2.002043e+00 0.000000e+00
2.925000e+00 0.000000e+00 0.000000e+00
2.925496e+00 1.999533e-01 0.000000e+00
2.925918e+00 3.999994e-01 0.000000e+00
2.926258e+00 6.001288e-01 0.000000e+00
2.926519e+00 8.003267e-01 0.000000e+00
2.926703e+00 1.000572e+00 0.000000e+00
2.926822e+00 1.200843e+00 0.000000e+00
2.926896e+00 1.401123e+00 0.000000e+00
2.926948e+00 1.601400e+00 0.000000e+00
2.927004e+00 1.801670e+00 0.000000e+00
2.927089e+00 2.001938e+00 0.000000e+00
3.150000e+00 0.000000e+00 0.000000e+00
3.150314e+00 1.999462e-01 0.000000e+00
3.150586e+00 3.999800e-01 0.000000e+00
3.150809e+00 6.000929e-01 0.000000e+00
3.150984e+00 8.002717e-01 0.000000e+00
3.151111e+00 1.000499e+00 0.000000e+00
3.151198e+00 1.200756e+00 0.000000e+00
3.151256e+00 1.401026e+00 0.000000e+00
3.151300e+00 1.601299e+00 0.000000e+00
3.151347e+00 1.801573e+00 0.000000e+00
3.151413e+00 2.001853e+00 0.000000e+00
3.375000e+00 0.000000e+00 0.000000e+00
3.375154e+00 1.999442e-01 0.000000e+00
3.375286e+00 3.999727e-01 0.000000e+00
3.375396e+00 6.000761e-01 0.000000e+00
3.375483e+00 8.002433e-01 0.000000e+00
3.375548e+00 1.000459e+00 0.000000e+00
3.375594e+00 1.200707e+00 0.000000e+00
3.375625e+00 1.400971e+00 0.000000e+00
3.375650e+00 1.601242e+00 0.000000e+00
3.375677e+00 1.801519e+00 0.000000e+00
3.375712e+00 2.001806e+00 0.000000e+00
3.600000e+00 0.000000e+00 0.000000e+00
3.600000e+00 1.999562e-01 0.000000e+00
3.600000e+00 3.999854e-01 0.000000e+00
3.600000e+00 6.000860e-01 0.000000e+00
3.600000e+00 8.002494e-01 0.000000e+00
3.600000e+00 1.000461e+00 0.000000e+00
3.600000e+00 1.200706e+00 0.000000e+00
3.600000e+00 1.400967e+00 0.000000e+00
3.600000e+00 1.601237e+00 0.000000e+00
3.600000e+00 1.801515e+00 0.000000e+00
3.600000e+00 2.001804e+00 0.000000e+00
</DataArray>
</Points>
<Cells>
<DataArray Name="connectivity" type="Int32" format="ascii">
0 11 12 1
1 12 13 2
2 13 14 3
3 14 15 4
4 15 16 5
5 16 17 6
6 17 18 7
7 18 19 8
8 19 20 9
9 20 21 10
11 22 23 12
12 23 24 13
13 24 25 14
14 25 26 15
15 26 27 16
16 27 28 17
17 28 29 18
18 29 30 19
19 30 31 20
20 31 32 21
22 33 34 23
23 34 35 24
24 35 36 25
25 36 37 26
26 37 38 27
27 38 39 28
28 39 40 29
29 40 41 30
30 41 42 31
31 42 43 32
33 44 45 34
34 45 46 35
35 46 47 36
36 47 48 37
37 48 49 38
38 49 50 39
39 50 51 40
40 51 52 41
41 52 53 42
42 53 54 43
44 55 56 45
45 56 57 46
46 57 58 47
47 58 59 48
48 59 60 49
49 60 61 50
50 61 62 51
51 62 63 52
52 63 64 53
53 64 65 54
55 66 67 56
56 67 68 57
57 68 69 58
58 69 70 59
59 70 71 60
60 71 72 61
61 72 73 62
62 73 74 63
63 74 75 64
64 75 76 65
66 77 78 67
67 78 79 68
68 79 80 69
69 80 81 70
70 81 82 71
71 82 83 72
72 83 84 73
73 84 85 74
74 85 86 75
75 86 87 76
77 88 89 78
78 89 90 79
79 90 91 80
80 91 92 81
81 92 93 82
82 93 94 83
83 94 95 84
84 95 96 85
85 96 97 86
86 97 98 87
88 99 100 89
89 100 101 90
90 101 102 91
91 102 103 92
92 103 104 93
93 104 105 94
94 105 106 95
95 106 107 96
96 107 108 97
97 108 109 98
99 110 111 100
100 111 112 101
101 112 113 102
102 113 114 103
103 114 115 104
104 115 116 105
105 116 117 106
106 117 118 107
107 118 119 108
108 119 120 109
110 121 122 111
111 122 123 112
112 123 124 113
113 124 125 114
114 125 126 115
115 126 127 116
116 127 128 117
117 128 129 118
118 129 130 119
119 130 131 120
121 132 133 122
122 133 134 123
123 134 135 124
124 135 136 125
125 136 137 126
126 137 138 127
127 138 139 128
128 139 140 129
129 140 141 130
130 141 142 131
132 143 144 133
133 144 145 134
134 145 146 135
135 146 147 136
136 147 148 137
137 148 149 138
138 149 150 139
139 150 151 140
140 151 152 141
141 152 153 142
143 154 155 144
144 155 156 145
145 156 157 146
146 157 158 147
147 158 159 148
148 159 160 149
149 160 161 150
150 161 162 151
151 162 163 152
152 163 164 153
154 165 166 155
155 166 167 156
156 167 168 157
157 168 169 158
158 169 170 159
159 170 171 160
160 171 172 161
161 172 173 162
162 173 174 163
163 174 175 164
165 176 177 166
166 177 178 167
167 178 179 168
168 179 180 169
169 180 181 170
170 181 182 171
171 182 183 172
172 183 184 173
173 184 185 174
174 185 186 175
</DataArray>
<DataArray Name="offsets" type="Int32" format="ascii">
4
8
12
16
20
24
28
32
36
40
44
48
52
56
60
64
68
72
76
80
84
88
92
96
100
104
108
112
116
120
124
128
132
136
140
144
148
152
156
160
164
168
172
176
180
184
188
192
196
200
204
208
212
216
220
224
228
232
236
240
244
248
252
256
260
264
268
272
276
280
284
288
292
296
300
304
308
312
316
320
324
328
332
336
340
344
348
352
356
360
364
368
372
376
380
384
388
392
396
400
404
408
412
416
420
424
428
432
436
440
444
448
452
456
460
464
468
472
476
480
484
488
492
496
500
504
508
512
516
520
524
528
532
536
540
544
548
552
556
560
564
568
572
576
580
584
588
592
596
600
604
608
612
616
620
624
628
632
636
640
</DataArray>
<DataArray Name="types" type="UInt8" format="ascii">
9
9
9
9
9
9
9
9
9
9
9
9
9
9
9
9
9
9
9
9
9
9
9
9
9
9
9
9
9
9
9
9
9
9
9
9
9
9
9
9
9
9
9
9
9
9
9
9
9
9
9
9
9
9
9
9
9
9
9
9
9
9
9
9
9
9
9
9
9
9
9
9
9
9
9
9
9
9
9
9
9
9
9
9
9
9
9
9
9
9
9
9
9
9
9
9
9
9
9
9
9
9
9
9
9
9
9
9
9
9
9
9
9
9
9
9
9
9
9
9
9
9
9
9
9
9
9
9
9
9
9
9
9
9
9
9
9
9
9
9
9
9
9
9
9
9
9
9
9
9
9
9
9
9
9
9
9
9
9
9
</DataArray>
</Cells>
<PointData>
<DataArray Name="disp" type="Float64" NumberOfComponents="3" format="ascii">
0.000000e+00 0.000000e+00 0.000000e+00
0.000000e+00 -2.633391e-03 0.000000e+00
0.000000e+00 -6.172878e-03 0.000000e+00
0.000000e+00 -1.056559e-02 0.000000e+00
0.000000e+00 -1.569730e-02 0.000000e+00
0.000000e+00 -2.144172e-02 0.000000e+00
0.000000e+00 -2.740023e-02 0.000000e+00
0.000000e+00 -3.298406e-02 0.000000e+00
0.000000e+00 -3.780463e-02 0.000000e+00
0.000000e+00 -4.156753e-02 0.000000e+00
0.000000e+00 -4.500000e-02 0.000000e+00
0.000000e+00 0.000000e+00 0.000000e+00
1.250898e-03 -2.452041e-03 0.000000e+00
2.420182e-03 -5.753505e-03 0.000000e+00
3.454783e-03 -9.772229e-03 0.000000e+00
4.261839e-03 -1.442216e-02 0.000000e+00
4.687419e-03 -1.960233e-02 0.000000e+00
4.459162e-03 -2.517207e-02 0.000000e+00
3.598142e-03 -3.086604e-02 0.000000e+00
2.172451e-03 -3.637305e-02 0.000000e+00
5.655842e-04 -4.140328e-02 0.000000e+00
0.000000e+00 -4.500000e-02 0.000000e+00
0.000000e+00 0.000000e+00 0.000000e+00
2.389812e-03 -1.918176e-03 0.000000e+00
4.444287e-03 -4.422259e-03 0.000000e+00
6.136820e-03 -7.400666e-03 0.000000e+00
7.416996e-03 -1.081323e-02 0.000000e+00
8.205378e-03 -1.465521e-02 0.000000e+00
8.396513e-03 -1.903444e-02 0.000000e+00
7.966865e-03 -2.419034e-02 0.000000e+00
6.746268e-03 -3.032639e-02 0.000000e+00
4.585051e-03 -3.752214e-02 0.000000e+00
0.000000e+00 -4.500000e-02 0.000000e+00
0.000000e+00 0.000000e+00 0.000000e+00
3.044100e-03 -1.216715e-03 0.000000e+00
5.463452e-03 -2.537052e-03 0.000000e+00
7.390397e-03 -3.821285e-03 0.000000e+00
8.904811e-03 -4.982310e-03 0.000000e+00
1.000025e-02 -6.002481e-03 0.000000e+00
1.065830e-02 -6.876626e-03 0.000000e+00
1.082371e-02 -7.511071e-03 0.000000e+00
1.037704e-02 -7.859770e-03 0.000000e+00
8.699745e-03 -7.748636e-03 0.000000e+00
4.277362e-03 -7.191906e-03 0.000000e+00
0.000000e+00 0.000000e+00 0.000000e+00
3.201114e-03 -9.149674e-04 0.000000e+00
5.487537e-03 -1.759931e-03 0.000000e+00
7.218530e-03 -2.469915e-03 0.000000e+00
8.523609e-03 -3.043790e-03 0.000000e+00
9.430148e-03 -3.463469e-03 0.000000e+00
9.901443e-03 -3.695449e-03 0.000000e+00
9.868980e-03 -3.715965e-03 0.000000e+00
9.167076e-03 -3.466986e-03 0.000000e+00
7.328878e-03 -3.043792e-03 0.000000e+00
4.456975e-03 -3.033191e-03 0.000000e+00
0.000000e+00 0.000000e+00 0.000000e+00
3.129017e-03 -5.976885e-04 0.000000e+00
5.175919e-03 -1.093470e-03 0.000000e+00
6.688125e-03 -1.457608e-03 0.000000e+00
7.807877e-03 -1.682845e-03 0.000000e+00
8.539232e-03 -1.755320e-03 0.000000e+00
8.855402e-03 -1.663215e-03 0.000000e+00
8.691916e-03 -1.398164e-03 0.000000e+00
7.916069e-03 -9.977638e-04 0.000000e+00
6.495618e-03 -6.544726e-04 0.000000e+00
4.770937e-03 -5.609267e-04 0.000000e+00
0.000000e+00 0.000000e+00 0.000000e+00
2.868367e-03 -3.741447e-04 0.000000e+00
4.671253e-03 -6.253699e-04 0.000000e+00
5.991461e-03 -7.496930e-04 0.000000e+00
6.941934e-03 -7.424426e-04 0.000000e+00
7.541827e-03 -6.087977e-04 0.000000e+00
7.754737e-03 -3.510661e-04 0.000000e+00
7.534577e-03 1.601599e-05 0.000000e+00
6.881099e-03 4.194905e-04 0.000000e+00
5.899997e-03 7.201995e-04 0.000000e+00
4.864894e-03 8.131256e-04 0.000000e+00
0.000000e+00 0.000000e+00 0.000000e+00
2.504426e-03 -2.193980e-04 0.000000e+00
4.070841e-03 -3.075193e-04 0.000000e+00
5.214125e-03 -2.714548e-04 0.000000e+00
6.035096e-03 -1.317288e-04 0.000000e+00
6.530577e-03 1.097497e-04 0.000000e+00
6.677962e-03 4.469844e-04 0.000000e+00
6.487264e-03 8.417562e-04 0.000000e+00
6.018043e-03 1.216370e-03 0.000000e+00
5.388895e-03 1.483959e-03 0.000000e+00
4.791236e-03 1.601259e-03 0.000000e+00
0.000000e+00 0.000000e+00 0.000000e+00
2.092049e-03 -1.238512e-04 0.000000e+00
3.436882e-03 -1.055642e-04 0.000000e+00
4.429153e-03 1.449510e-05 0.000000e+00
5.136434e-03 2.264375e-04 0.000000e+00
5.548199e-03 5.255431e-04 0.000000e+00
5.674445e-03 8.899322e-04 0.000000e+00
5.556124e-03 1.273648e-03 0.000000e+00
5.261942e-03 1.616166e-03 0.000000e+00
4.891226e-03 1.869971e-03 0.000000e+00
4.578846e-03 2.014020e-03 0.000000e+00
0.000000e+00 0.000000e+00 0.000000e+00
1.678019e-03 -7.252124e-05 0.000000e+00
2.818936e-03 -1.407402e-06 0.000000e+00
3.673490e-03 1.625381e-04 0.000000e+00
4.275456e-03 4.084099e-04 0.000000e+00
4.627556e-03 7.254501e-04 0.000000e+00
4.760217e-03 1.084305e-03 0.000000e+00
4.719656e-03 1.443198e-03 0.000000e+00
4.564717e-03 1.762711e-03 0.000000e+00
4.376457e-03 2.013781e-03 0.000000e+00
4.250138e-03 2.186501e-03 0.000000e+00
0.000000e+00 0.000000e+00 0.000000e+00
1.299220e-03 -4.516506e-05 0.000000e+00
2.246289e-03 4.118357e-05 0.000000e+00
2.969378e-03 2.162233e-04 0.000000e+00
3.476648e-03 4.682706e-04 0.000000e+00
3.787045e-03 7.775307e-04 0.000000e+00
3.932661e-03 1.115141e-03 0.000000e+00
3.952576e-03 1.449583e-03 0.000000e+00
3.897003e-03 1.752783e-03 0.000000e+00
3.830462e-03 2.007192e-03 0.000000e+00
3.823552e-03 2.208624e-03 0.000000e+00
0.000000e+00 0.000000e+00 0.000000e+00
9.759606e-04 -3.684684e-05 0.000000e+00
1.739223e-03 4.203829e-05 0.000000e+00
2.330262e-03 2.102492e-04 0.000000e+00
2.754296e-03 4.512067e-04 0.000000e+00
3.027466e-03 7.403921e-04 0.000000e+00
3.176914e-03 1.053764e-03 0.000000e+00
3.235257e-03 1.365925e-03 0.000000e+00
3.243186e-03 1.657313e-03 0.000000e+00
3.251279e-03 1.916871e-03 0.000000e+00
3.309910e-03 2.145642e-03 0.000000e+00
0.000000e+00 0.000000e+00 0.000000e+00
7.122199e-04 -4.043098e-05 0.000000e+00
1.298441e-03 2.248147e-05 0.000000e+00
1.761436e-03 1.731192e-04 0.000000e+00
2.105081e-03 3.937268e-04 0.000000e+00
2.338035e-03 6.607027e-04 0.000000e+00
2.477874e-03 9.508741e-04 0.000000e+00
2.552881e-03 1.244570e-03 0.000000e+00
2.594952e-03 1.527343e-03 0.000000e+00
2.640704e-03 1.792574e-03 0.000000e+00
2.726530e-03 2.043447e-03 0.000000e+00
0.000000e+00 0.000000e+00 0.000000e+00
4.964417e-04 -4.665878e-05 0.000000e+00
9.176685e-04 -6.272982e-07 0.000000e+00
1.258207e-03 1.288150e-04 0.000000e+00
1.518855e-03 3.267147e-04 0.000000e+00
1.703455e-03 5.721626e-04 0.000000e+00
1.822384e-03 8.433957e-04 0.000000e+00
1.896107e-03 1.122850e-03 0.000000e+00
1.947882e-03 1.399736e-03 0.000000e+00
2.004158e-03 1.669972e-03 0.000000e+00
2.089550e-03 1.937847e-03 0.000000e+00
0.000000e+00 0.000000e+00 0.000000e+00
3.139895e-04 -5.385197e-05 0.000000e+00
5.862995e-04 -2.001279e-05 0.000000e+00
8.086630e-04 9.288274e-05 0.000000e+00
9.837629e-04 2.716770e-04 0.000000e+00
1.111145e-03 4.993015e-04 0.000000e+00
1.198005e-03 7.561511e-04 0.000000e+00
1.255913e-03 1.026082e-03 0.000000e+00
1.299950e-03 1.299366e-03 0.000000e+00
1.347510e-03 1.573383e-03 0.000000e+00
1.413548e-03 1.853290e-03 0.000000e+00
0.000000e+00 0.000000e+00 0.000000e+00
1.536505e-04 -5.580896e-05 0.000000e+00
2.859445e-04 -2.727117e-05 0.000000e+00
3.958729e-04 7.606143e-05 0.000000e+00
4.830211e-04 2.432727e-04 0.000000e+00
5.483034e-04 4.593764e-04 0.000000e+00
5.938847e-04 7.067305e-04 0.000000e+00
6.254798e-04 9.709477e-04 0.000000e+00
6.505089e-04 1.242219e-03 0.000000e+00
6.770241e-04 1.518861e-03 0.000000e+00
7.124555e-04 1.806015e-03 0.000000e+00
0.000000e+00 0.000000e+00 0.000000e+00
0.000000e+00 -4.382741e-05 0.000000e+00
0.000000e+00 -1.455309e-05 0.000000e+00
0.000000e+00 8.600071e-05 0.000000e+00
0.000000e+00 2.493815e-04 0.000000e+00
0.000000e+00 4.613030e-04 0.000000e+00
0.000000e+00 7.054926e-04 0.000000e+00
0.000000e+00 9.672337e-04 0.000000e+00
0.000000e+00 1.237371e-03 0.000000e+00
0.000000e+00 1.514568e-03 0.000000e+00
0.000000e+00 1.803813e-03 0.000000e+00
</DataArray>
<DataArray Name="shear" type="Float64" NumberOfComponents="1" format="ascii">
1.498655e-02
2.087836e-02
3.034731e-02
3.878150e-02
4.565933e-02
4.970179e-02
4.896913e-02
4.307218e-02
3.300438e-02
2.264429e-02
1.843712e-02
1.535889e-02
2.072905e-02
2.916519e-02
3.654897e-02
4.271092e-02
4.712404e-02
4.899066e-02
4.760725e-02
4.265422e-02
3.311087e-02
2.484014e-02
1.655049e-02
2.011228e-02
2.587735e-02
3.173565e-02
3.806962e-02
4.519742e-02
5.352515e-02
6.270541e-02
7.149441e-02
7.490581e-02
7.415020e-02
1.712298e-02
1.787320e-02
1.920600e-02
2.173218e-02
2.551944e-02
3.063277e-02
3.729472e-02
4.574906e-02
5.527351e-02
6.276911e-02
6.816798e-02
1.696908e-02
1.572498e-02
1.369579e-02
1.301549e-02
1.291315e-02
1.300424e-02
1.308709e-02
1.281051e-02
1.115886e-02
6.406092e-03
1.513289e-03
1.617464e-02
1.425907e-02
1.146177e-02
1.050525e-02
1.012965e-02
9.888074e-03
9.575114e-03
8.923490e-03
7.298023e-03
3.899675e-03
9.955311e-04
1.463531e-02
1.251797e-02
9.684289e-03
8.825132e-03
8.457921e-03
8.178857e-03
7.842370e-03
7.226966e-03
5.847085e-03
3.356331e-03
1.408894e-03
1.269658e-02
1.077312e-02
8.339062e-03
7.650505e-03
7.336022e-03
7.129424e-03
6.885163e-03
6.314864e-03
5.122206e-03
3.224974e-03
1.825417e-03
1.057808e-02
9.048557e-03
7.207875e-03
6.702363e-03
6.512294e-03
6.420927e-03
6.224582e-03
5.693224e-03
4.710042e-03
3.291422e-03
2.306652e-03
8.486499e-03
7.417160e-03
6.190977e-03
5.883307e-03
5.830835e-03
5.823245e-03
5.665928e-03
5.231139e-03
4.482011e-03
3.459285e-03
2.785557e-03
6.578465e-03
5.917506e-03
5.224108e-03
5.122355e-03
5.200152e-03
5.266798e-03
5.183178e-03
4.883820e-03
4.360443e-03
3.671318e-03
3.241181e-03
4.941006e-03
4.573023e-03
4.291698e-03
4.406577e-03
4.617309e-03
4.769159e-03
4.782216e-03
4.620072e-03
4.296677e-03
3.886491e-03
3.651170e-03
3.598279e-03
3.414616e-03
3.440168e-03
3.757667e-03
4.106576e-03
4.354021e-03
4.460081e-03
4.420282e-03
4.266493e-03
4.076722e-03
3.985601e-03
2.501548e-03
2.434928e-03
2.701057e-03
3.201250e-03
3.679228e-03
4.024280e-03
4.214676e-03
4.275747e-03
4.256275e-03
4.229987e-03
4.241681e-03
1.582053e-03
1.614125e-03
2.115986e-03
2.774106e-03
3.354216e-03
3.778800e-03
4.042139e-03
4.182119e-03
4.257625e-03
4.342707e-03
4.422285e-03
7.822010e-04
9.655937e-04
1.734518e-03
2.509208e-03
3.152289e-03
3.625862e-03
3.937836e-03
4.129138e-03
4.262545e-03
4.411274e-03
4.527789e-03
2.741237e-04
6.819310e-04
1.601856e-03
2.418114e-03
3.081131e-03
3.572385e-03
3.901694e-03
4.110764e-03
4.264296e-03
4.433088e-03
4.560663e-03
</DataArray>
<DataArray Name="stress" type="Float64" NumberOfComponents="9" format="ascii">
-1.103411e+05 5.194438e+03 0.000000e+00 5.194438e+03 -1.837904e+05 0.000000e+00 0.000000e+00 0.000000e+00 0.000000e+00
-9.808720e+04 4.635192e+03 0.000000e+00 4.635192e+03 -1.824074e+05 0.000000e+00 0.000000e+00 0.000000e+00 0.000000e+00
-9.254135e+04 4.016989e+03 0.000000e+00 4.016989e+03 -1.925069e+05 0.000000e+00 0.000000e+00 0.000000e+00 0.000000e+00
-9.298633e+04 3.959300e+03 0.000000e+00 3.959300e+03 -2.006332e+05 0.000000e+00 0.000000e+00 0.000000e+00 0.000000e+00
-9.836732e+04 4.466175e+03 0.000000e+00 4.466175e+03 -2.077752e+05 0.000000e+00 0.000000e+00 0.000000e+00 0.000000e+00
-1.060370e+05 5.652023e+03 0.000000e+00 5.652023e+03 -2.152325e+05 0.000000e+00 0.000000e+00 0.000000e+00 0.000000e+00
-1.101516e+05 6.378872e+03 0.000000e+00 6.378872e+03 -2.255147e+05 0.000000e+00 0.000000e+00 0.000000e+00 0.000000e+00
-1.115166e+05 6.114089e+03 0.000000e+00 6.114089e+03 -2.356134e+05 0.000000e+00 0.000000e+00 0.000000e+00 0.000000e+00
-1.186131e+05 3.695610e+03 0.000000e+00 3.695610e+03 -2.425434e+05 0.000000e+00 0.000000e+00 0.000000e+00 0.000000e+00
-1.337667e+05 -1.052204e+03 0.000000e+00 -1.052204e+03 -2.447626e+05 0.000000e+00 0.000000e+00 0.000000e+00 0.000000e+00
-1.421563e+05 -1.606306e+03 0.000000e+00 -1.606306e+03 -2.421027e+05 0.000000e+00 0.000000e+00 0.000000e+00 0.000000e+00
-1.083878e+05 1.431335e+04 0.000000e+00 1.431335e+04 -1.730965e+05 0.000000e+00 0.000000e+00 0.000000e+00 0.000000e+00
-9.698804e+04 1.250537e+04 0.000000e+00 1.250537e+04 -1.711262e+05 0.000000e+00 0.000000e+00 0.000000e+00 0.000000e+00
-9.223121e+04 1.077194e+04 0.000000e+00 1.077194e+04 -1.803012e+05 0.000000e+00 0.000000e+00 0.000000e+00 0.000000e+00
-9.310206e+04 1.065895e+04 0.000000e+00 1.065895e+04 -1.893092e+05 0.000000e+00 0.000000e+00 0.000000e+00 0.000000e+00
-9.800814e+04 1.161832e+04 0.000000e+00 1.161832e+04 -1.991772e+05 0.000000e+00 0.000000e+00 0.000000e+00 0.000000e+00
-1.048277e+05 1.254873e+04 0.000000e+00 1.254873e+04 -2.099648e+05 0.000000e+00 0.000000e+00 0.000000e+00 0.000000e+00
-1.097303e+05 1.231336e+04 0.000000e+00 1.231336e+04 -2.216331e+05 0.000000e+00 0.000000e+00 0.000000e+00 0.000000e+00
-1.120691e+05 1.044138e+04 0.000000e+00 1.044138e+04 -2.323831e+05 0.000000e+00 0.000000e+00 0.000000e+00 0.000000e+00
-1.177908e+05 6.269659e+03 0.000000e+00 6.269659e+03 -2.424545e+05 0.000000e+00 0.000000e+00 0.000000e+00 0.000000e+00
-1.271032e+05 -4.139138e+02 0.000000e+00 -4.139138e+02 -2.469172e+05 0.000000e+00 0.000000e+00 0.000000e+00 0.000000e+00
-1.455668e+05 -6.623976e+03 0.000000e+00 -6.623976e+03 -2.650947e+05 0.000000e+00 0.000000e+00 0.000000e+00 0.000000e+00
-1.024965e+05 2.328377e+04 0.000000e+00 2.328377e+04 -1.478766e+05 0.000000e+00 0.000000e+00 0.000000e+00 0.000000e+00
-9.410693e+04 2.116846e+04 0.000000e+00 2.116846e+04 -1.452853e+05 0.000000e+00 0.000000e+00 0.000000e+00 0.000000e+00
-9.229465e+04 2.020029e+04 0.000000e+00 2.020029e+04 -1.513111e+05 0.000000e+00 0.000000e+00 0.000000e+00 0.000000e+00
-9.568643e+04 2.182716e+04 0.000000e+00 2.182716e+04 -1.594011e+05 0.000000e+00 0.000000e+00 0.000000e+00 0.000000e+00
-1.021166e+05 2.463532e+04 0.000000e+00 2.463532e+04 -1.687422e+05 0.000000e+00 0.000000e+00 0.000000e+00 0.000000e+00
-1.092369e+05 2.687178e+04 0.000000e+00 2.687178e+04 -1.784851e+05 0.000000e+00 0.000000e+00 0.000000e+00 0.000000e+00
-1.152228e+05 2.836919e+04 0.000000e+00 2.836919e+04 -1.880184e+05 0.000000e+00 0.000000e+00 0.000000e+00 0.000000e+00
-1.220938e+05 2.841755e+04 0.000000e+00 2.841755e+04 -2.001970e+05 0.000000e+00 0.000000e+00 0.000000e+00 0.000000e+00
-1.352065e+05 2.853234e+04 0.000000e+00 2.853234e+04 -2.145512e+05 0.000000e+00 0.000000e+00 0.000000e+00 0.000000e+00
-1.459445e+05 2.129051e+04 0.000000e+00 2.129051e+04 -2.343581e+05 0.000000e+00 0.000000e+00 0.000000e+00 0.000000e+00
-1.637521e+05 1.147332e+04 0.000000e+00 1.147332e+04 -2.658498e+05 0.000000e+00 0.000000e+00 0.000000e+00 0.000000e+00
-9.488170e+04 2.511905e+04 0.000000e+00 2.511905e+04 -1.220167e+05 0.000000e+00 0.000000e+00 0.000000e+00 0.000000e+00
-8.998018e+04 2.381701e+04 0.000000e+00 2.381701e+04 -1.196915e+05 0.000000e+00 0.000000e+00 0.000000e+00 0.000000e+00
-8.971602e+04 2.350212e+04 0.000000e+00 2.350212e+04 -1.201318e+05 0.000000e+00 0.000000e+00 0.000000e+00 0.000000e+00
-9.284775e+04 2.474220e+04 0.000000e+00 2.474220e+04 -1.198655e+05 0.000000e+00 0.000000e+00 0.000000e+00 0.000000e+00
-9.687756e+04 2.620541e+04 0.000000e+00 2.620541e+04 -1.181349e+05 0.000000e+00 0.000000e+00 0.000000e+00 0.000000e+00
-9.982731e+04 2.648673e+04 0.000000e+00 2.648673e+04 -1.145196e+05 0.000000e+00 0.000000e+00 0.000000e+00 0.000000e+00
-1.012968e+05 2.711986e+04 0.000000e+00 2.711986e+04 -1.103004e+05 0.000000e+00 0.000000e+00 0.000000e+00 0.000000e+00
-1.011486e+05 2.657990e+04 0.000000e+00 2.657990e+04 -1.042206e+05 0.000000e+00 0.000000e+00 0.000000e+00 0.000000e+00
-9.908970e+04 2.413674e+04 0.000000e+00 2.413674e+04 -9.403086e+04 0.000000e+00 0.000000e+00 0.000000e+00 0.000000e+00
-8.983348e+04 1.711252e+04 0.000000e+00 1.711252e+04 -8.083329e+04 0.000000e+00 0.000000e+00 0.000000e+00 0.000000e+00
-7.155862e+04 1.138009e+04 0.000000e+00 1.138009e+04 -7.016398e+04 0.000000e+00 0.000000e+00 0.000000e+00 0.000000e+00
-9.034757e+04 2.461748e+04 0.000000e+00 2.461748e+04 -1.075000e+05 0.000000e+00 0.000000e+00 0.000000e+00 0.000000e+00
-8.929952e+04 2.379203e+04 0.000000e+00 2.379203e+04 -1.065255e+05 0.000000e+00 0.000000e+00 0.000000e+00 0.000000e+00
-9.183408e+04 2.329966e+04 0.000000e+00 2.329966e+04 -1.059202e+05 0.000000e+00 0.000000e+00 0.000000e+00 0.000000e+00
-9.661343e+04 2.364723e+04 0.000000e+00 2.364723e+04 -1.042290e+05 0.000000e+00 0.000000e+00 0.000000e+00 0.000000e+00
-1.013117e+05 2.391122e+04 0.000000e+00 2.391122e+04 -1.014266e+05 0.000000e+00 0.000000e+00 0.000000e+00 0.000000e+00
-1.048801e+05 2.360122e+04 0.000000e+00 2.360122e+04 -9.740528e+04 0.000000e+00 0.000000e+00 0.000000e+00 0.000000e+00
-1.070809e+05 2.250057e+04 0.000000e+00 2.250057e+04 -9.195241e+04 0.000000e+00 0.000000e+00 0.000000e+00 0.000000e+00
-1.077374e+05 2.017851e+04 0.000000e+00 2.017851e+04 -8.474681e+04 0.000000e+00 0.000000e+00 0.000000e+00 0.000000e+00
-1.059624e+05 1.528099e+04 0.000000e+00 1.528099e+04 -7.622295e+04 0.000000e+00 0.000000e+00 0.000000e+00 0.000000e+00
-9.362730e+04 6.507667e+03 0.000000e+00 6.507667e+03 -6.833222e+04 0.000000e+00 0.000000e+00 0.000000e+00 0.000000e+00
-6.532217e+04 4.332934e+02 0.000000e+00 4.332934e+02 -5.743405e+04 0.000000e+00 0.000000e+00 0.000000e+00 0.000000e+00
-8.518250e+04 2.320632e+04 0.000000e+00 2.320632e+04 -9.536549e+04 0.000000e+00 0.000000e+00 0.000000e+00 0.000000e+00
-8.738033e+04 2.255404e+04 0.000000e+00 2.255404e+04 -9.524798e+04 0.000000e+00 0.000000e+00 0.000000e+00 0.000000e+00
-9.175146e+04 2.146071e+04 0.000000e+00 2.146071e+04 -9.359577e+04 0.000000e+00 0.000000e+00 0.000000e+00 0.000000e+00
-9.682264e+04 2.085405e+04 0.000000e+00 2.085405e+04 -9.099390e+04 0.000000e+00 0.000000e+00 0.000000e+00 0.000000e+00
-1.009462e+05 1.993348e+04 0.000000e+00 1.993348e+04 -8.755832e+04 0.000000e+00 0.000000e+00 0.000000e+00 0.000000e+00
-1.036792e+05 1.832977e+04 0.000000e+00 1.832977e+04 -8.317966e+04 0.000000e+00 0.000000e+00 0.000000e+00 0.000000e+00
-1.048191e+05 1.585113e+04 0.000000e+00 1.585113e+04 -7.794098e+04 0.000000e+00 0.000000e+00 0.000000e+00 0.000000e+00
-1.038894e+05 1.215547e+04 0.000000e+00 1.215547e+04 -7.212110e+04 0.000000e+00 0.000000e+00 0.000000e+00 0.000000e+00
-9.916063e+04 6.524542e+03 0.000000e+00 6.524542e+03 -6.658313e+04 0.000000e+00 0.000000e+00 0.000000e+00 0.000000e+00
-8.396159e+04 4.524405e+02 0.000000e+00 4.524405e+02 -6.223093e+04 0.000000e+00 0.000000e+00 0.000000e+00 0.000000e+00
-6.291383e+04 -1.848648e+03 0.000000e+00 -1.848648e+03 -5.738204e+04 0.000000e+00 0.000000e+00 0.000000e+00 0.000000e+00
-8.039609e+04 2.128461e+04 0.000000e+00 2.128461e+04 -8.559811e+04 0.000000e+00 0.000000e+00 0.000000e+00 0.000000e+00
-8.526845e+04 2.073201e+04 0.000000e+00 2.073201e+04 -8.605822e+04 0.000000e+00 0.000000e+00 0.000000e+00 0.000000e+00
-9.083399e+04 1.901443e+04 0.000000e+00 1.901443e+04 -8.382884e+04 0.000000e+00 0.000000e+00 0.000000e+00 0.000000e+00
-9.567773e+04 1.756402e+04 0.000000e+00 1.756402e+04 -8.111470e+04 0.000000e+00 0.000000e+00 0.000000e+00 0.000000e+00
-9.918819e+04 1.576007e+04 0.000000e+00 1.576007e+04 -7.781909e+04 0.000000e+00 0.000000e+00 0.000000e+00 0.000000e+00
-1.012101e+05 1.338559e+04 0.000000e+00 1.338559e+04 -7.402700e+04 0.000000e+00 0.000000e+00 0.000000e+00 0.000000e+00
-1.013838e+05 1.032417e+04 0.000000e+00 1.032417e+04 -6.997519e+04 0.000000e+00 0.000000e+00 0.000000e+00 0.000000e+00
-9.903311e+04 6.352021e+03 0.000000e+00 6.352021e+03 -6.593280e+04 0.000000e+00 0.000000e+00 0.000000e+00 0.000000e+00
-9.278224e+04 1.711388e+03 0.000000e+00 1.711388e+03 -6.249518e+04 0.000000e+00 0.000000e+00 0.000000e+00 0.000000e+00
-8.026401e+04 -1.475449e+03 0.000000e+00 -1.475449e+03 -6.038213e+04 0.000000e+00 0.000000e+00 0.000000e+00 0.000000e+00
-6.667205e+04 -2.184944e+03 0.000000e+00 -2.184944e+03 -5.801495e+04 0.000000e+00 0.000000e+00 0.000000e+00 0.000000e+00
-7.624115e+04 1.914397e+04 0.000000e+00 1.914397e+04 -7.812032e+04 0.000000e+00 0.000000e+00 0.000000e+00 0.000000e+00
-8.291621e+04 1.860075e+04 0.000000e+00 1.860075e+04 -7.886830e+04 0.000000e+00 0.000000e+00 0.000000e+00 0.000000e+00
-8.909469e+04 1.645572e+04 0.000000e+00 1.645572e+04 -7.656743e+04 0.000000e+00 0.000000e+00 0.000000e+00 0.000000e+00
-9.371545e+04 1.444535e+04 0.000000e+00 1.444535e+04 -7.407191e+04 0.000000e+00 0.000000e+00 0.000000e+00 0.000000e+00
-9.676810e+04 1.216373e+04 0.000000e+00 1.216373e+04 -7.127371e+04 0.000000e+00 0.000000e+00 0.000000e+00 0.000000e+00
-9.814484e+04 9.465425e+03 0.000000e+00 9.465425e+03 -6.834070e+04 0.000000e+00 0.000000e+00 0.000000e+00 0.000000e+00
-9.754575e+04 6.263766e+03 0.000000e+00 6.263766e+03 -6.539584e+04 0.000000e+00 0.000000e+00 0.000000e+00 0.000000e+00
-9.449878e+04 2.667181e+03 0.000000e+00 2.667181e+03 -6.269270e+04 0.000000e+00 0.000000e+00 0.000000e+00 0.000000e+00
-8.862885e+04 -6.077572e+02 0.000000e+00 -6.077572e+02 -6.075228e+04 0.000000e+00 0.000000e+00 0.000000e+00 0.000000e+00
-7.938088e+04 -1.997673e+03 0.000000e+00 -1.997673e+03 -5.990312e+04 0.000000e+00 0.000000e+00 0.000000e+00 0.000000e+00
-7.063858e+04 -1.859079e+03 0.000000e+00 -1.859079e+03 -5.862229e+04 0.000000e+00 0.000000e+00 0.000000e+00 0.000000e+00
-7.277705e+04 1.712218e+04 0.000000e+00 1.712218e+04 -7.263500e+04 0.000000e+00 0.000000e+00 0.000000e+00 0.000000e+00
-8.029260e+04 1.650332e+04 0.000000e+00 1.650332e+04 -7.350829e+04 0.000000e+00 0.000000e+00 0.000000e+00 0.000000e+00
-8.686434e+04 1.410633e+04 0.000000e+00 1.410633e+04 -7.134146e+04 0.000000e+00 0.000000e+00 0.000000e+00 0.000000e+00
-9.131139e+04 1.178368e+04 0.000000e+00 1.178368e+04 -6.916005e+04 0.000000e+00 0.000000e+00 0.000000e+00 0.000000e+00
-9.394695e+04 9.295793e+03 0.000000e+00 9.295793e+03 -6.695466e+04 0.000000e+00 0.000000e+00 0.000000e+00 0.000000e+00
-9.487466e+04 6.525505e+03 0.000000e+00 6.525505e+03 -6.476278e+04 0.000000e+00 0.000000e+00 0.000000e+00 0.000000e+00
-9.388612e+04 3.485067e+03 0.000000e+00 3.485067e+03 -6.267582e+04 0.000000e+00 0.000000e+00 0.000000e+00 0.000000e+00
-9.095473e+04 5.436144e+02 0.000000e+00 5.436144e+02 -6.098077e+04 0.000000e+00 0.000000e+00 0.000000e+00 0.000000e+00
-8.624863e+04 -1.584363e+03 0.000000e+00 -1.584363e+03 -6.001278e+04 0.000000e+00 0.000000e+00 0.000000e+00 0.000000e+00
-7.981022e+04 -1.984985e+03 0.000000e+00 -1.984985e+03 -5.976048e+04 0.000000e+00 0.000000e+00 0.000000e+00 0.000000e+00
-7.422383e+04 -1.527778e+03 0.000000e+00 -1.527778e+03 -5.902826e+04 0.000000e+00 0.000000e+00 0.000000e+00 0.000000e+00
-6.984356e+04 1.511496e+04 0.000000e+00 1.511496e+04 -6.885691e+04 0.000000e+00 0.000000e+00 0.000000e+00 0.000000e+00
-7.761052e+04 1.443245e+04 0.000000e+00 1.443245e+04 -6.964995e+04 0.000000e+00 0.000000e+00 0.000000e+00 0.000000e+00
-8.437689e+04 1.199625e+04 0.000000e+00 1.199625e+04 -6.759598e+04 0.000000e+00 0.000000e+00 0.000000e+00 0.000000e+00
-8.865112e+04 9.594043e+03 0.000000e+00 9.594043e+03 -6.577646e+04 0.000000e+00 0.000000e+00 0.000000e+00 0.000000e+00
-9.105000e+04 7.084024e+03 0.000000e+00 7.084024e+03 -6.407050e+04 0.000000e+00 0.000000e+00 0.000000e+00 0.000000e+00
-9.171930e+04 4.391551e+03 0.000000e+00 4.391551e+03 -6.243920e+04 0.000000e+00 0.000000e+00 0.000000e+00 0.000000e+00
-9.072973e+04 1.702198e+03 0.000000e+00 1.702198e+03 -6.102403e+04 0.000000e+00 0.000000e+00 0.000000e+00 0.000000e+00
-8.838885e+04 -5.578951e+02 0.000000e+00 -5.578951e+02 -6.007832e+04 0.000000e+00 0.000000e+00 0.000000e+00 0.000000e+00
-8.499484e+04 -1.878043e+03 0.000000e+00 -1.878043e+03 -5.970428e+04 0.000000e+00 0.000000e+00 0.000000e+00 0.000000e+00
-8.073134e+04 -1.789028e+03 0.000000e+00 -1.789028e+03 -5.973441e+04 0.000000e+00 0.000000e+00 0.000000e+00 0.000000e+00
-7.726793e+04 -1.218799e+03 0.000000e+00 -1.218799e+03 -5.932464e+04 0.000000e+00 0.000000e+00 0.000000e+00 0.000000e+00
-6.765668e+04 1.306394e+04 0.000000e+00 1.306394e+04 -6.638705e+04 0.000000e+00 0.000000e+00 0.000000e+00 0.000000e+00
-7.511842e+04 1.240542e+04 0.000000e+00 1.240542e+04 -6.695459e+04 0.000000e+00 0.000000e+00 0.000000e+00 0.000000e+00
-8.187857e+04 1.013055e+04 0.000000e+00 1.013055e+04 -6.508056e+04 0.000000e+00 0.000000e+00 0.000000e+00 0.000000e+00
-8.600938e+04 7.807305e+03 0.000000e+00 7.807305e+03 -6.355422e+04 0.000000e+00 0.000000e+00 0.000000e+00 0.000000e+00
-8.823041e+04 5.376347e+03 0.000000e+00 5.376347e+03 -6.215379e+04 0.000000e+00 0.000000e+00 0.000000e+00 0.000000e+00
-8.883509e+04 2.904545e+03 0.000000e+00 2.904545e+03 -6.094193e+04 0.000000e+00 0.000000e+00 0.000000e+00 0.000000e+00
-8.816930e+04 6.639511e+02 0.000000e+00 6.639511e+02 -6.004788e+04 0.000000e+00 0.000000e+00 0.000000e+00 0.000000e+00
-8.660282e+04 -1.012131e+03 0.000000e+00 -1.012131e+03 -5.960117e+04 0.000000e+00 0.000000e+00 0.000000e+00 0.000000e+00
-8.439889e+04 -1.823271e+03 0.000000e+00 -1.823271e+03 -5.956469e+04 0.000000e+00 0.000000e+00 0.000000e+00 0.000000e+00
-8.178658e+04 -1.516147e+03 0.000000e+00 -1.516147e+03 -5.974317e+04 0.000000e+00 0.000000e+00 0.000000e+00 0.000000e+00
-7.978455e+04 -9.470476e+02 0.000000e+00 -9.470476e+02 -5.955708e+04 0.000000e+00 0.000000e+00 0.000000e+00 0.000000e+00
-6.628544e+04 1.111009e+04 0.000000e+00 1.111009e+04 -6.496521e+04 0.000000e+00 0.000000e+00 0.000000e+00 0.000000e+00
-7.299495e+04 1.046659e+04 0.000000e+00 1.046659e+04 -6.520927e+04 0.000000e+00 0.000000e+00 0.000000e+00 0.000000e+00
-7.948473e+04 8.446903e+03 0.000000e+00 8.446903e+03 -6.349555e+04 0.000000e+00 0.000000e+00 0.000000e+00 0.000000e+00
-8.344678e+04 6.269007e+03 0.000000e+00 6.269007e+03 -6.213129e+04 0.000000e+00 0.000000e+00 0.000000e+00 0.000000e+00
-8.560227e+04 4.032593e+03 0.000000e+00 4.032593e+03 -6.094896e+04 0.000000e+00 0.000000e+00 0.000000e+00 0.000000e+00
-8.637467e+04 1.907485e+03 0.000000e+00 1.907485e+03 -6.005447e+04 0.000000e+00 0.000000e+00 0.000000e+00 0.000000e+00
-8.618505e+04 1.268582e+02 0.000000e+00 1.268582e+02 -5.953947e+04 0.000000e+00 0.000000e+00 0.000000e+00 0.000000e+00
-8.537363e+04 -1.097996e+03 0.000000e+00 -1.097996e+03 -5.939243e+04 0.000000e+00 0.000000e+00 0.000000e+00 0.000000e+00
-8.416873e+04 -1.594334e+03 0.000000e+00 -1.594334e+03 -5.951875e+04 0.000000e+00 0.000000e+00 0.000000e+00 0.000000e+00
-8.279701e+04 -1.224122e+03 0.000000e+00 -1.224122e+03 -5.975376e+04 0.000000e+00 0.000000e+00 0.000000e+00 0.000000e+00
-8.182430e+04 -7.258865e+02 0.000000e+00 -7.258865e+02 -5.973470e+04 0.000000e+00 0.000000e+00 0.000000e+00 0.000000e+00
-6.527129e+04 9.048077e+03 0.000000e+00 9.048077e+03 -6.438537e+04 0.000000e+00 0.000000e+00 0.000000e+00 0.000000e+00
-7.118059e+04 8.489604e+03 0.000000e+00 8.489604e+03 -6.428046e+04 0.000000e+00 0.000000e+00 0.000000e+00 0.000000e+00
-7.729959e+04 6.786704e+03 0.000000e+00 6.786704e+03 -6.261113e+04 0.000000e+00 0.000000e+00 0.000000e+00 0.000000e+00
-8.112792e+04 4.889869e+03 0.000000e+00 4.889869e+03 -6.128296e+04 0.000000e+00 0.000000e+00 0.000000e+00 0.000000e+00
-8.331345e+04 2.976440e+03 0.000000e+00 2.976440e+03 -6.026576e+04 0.000000e+00 0.000000e+00 0.000000e+00 0.000000e+00
-8.438212e+04 1.252983e+03 0.000000e+00 1.252983e+03 -5.959500e+04 0.000000e+00 0.000000e+00 0.000000e+00 0.000000e+00
-8.468747e+04 -1.068149e+02 0.000000e+00 -1.068149e+02 -5.930233e+04 0.000000e+00 0.000000e+00 0.000000e+00 0.000000e+00
-8.453339e+04 -9.894437e+02 0.000000e+00 -9.894437e+02 -5.931074e+04 0.000000e+00 0.000000e+00 0.000000e+00 0.000000e+00
-8.411963e+04 -1.291880e+03 0.000000e+00 -1.291880e+03 -5.952083e+04 0.000000e+00 0.000000e+00 0.000000e+00 0.000000e+00
-8.366112e+04 -9.436138e+02 0.000000e+00 -9.436138e+02 -5.977636e+04 0.000000e+00 0.000000e+00 0.000000e+00 0.000000e+00
-8.341988e+04 -5.382228e+02 0.000000e+00 -5.382228e+02 -5.987369e+04 0.000000e+00 0.000000e+00 0.000000e+00 0.000000e+00
-6.458291e+04 6.868125e+03 0.000000e+00 6.868125e+03 -6.417323e+04 0.000000e+00 0.000000e+00 0.000000e+00 0.000000e+00
-6.973764e+04 6.408303e+03 0.000000e+00 6.408303e+03 -6.386418e+04 0.000000e+00 0.000000e+00 0.000000e+00 0.000000e+00
-7.545448e+04 5.099038e+03 0.000000e+00 5.099038e+03 -6.215280e+04 0.000000e+00 0.000000e+00 0.000000e+00 0.000000e+00
-7.919613e+04 3.581132e+03 0.000000e+00 3.581132e+03 -6.083716e+04 0.000000e+00 0.000000e+00 0.000000e+00 0.000000e+00
-8.148516e+04 2.109823e+03 0.000000e+00 2.109823e+03 -5.990984e+04 0.000000e+00 0.000000e+00 0.000000e+00 0.000000e+00
-8.285248e+04 8.150247e+02 0.000000e+00 8.150247e+02 -5.939713e+04 0.000000e+00 0.000000e+00 0.000000e+00 0.000000e+00
-8.359219e+04 -1.743282e+02 0.000000e+00 -1.743282e+02 -5.921654e+04 0.000000e+00 0.000000e+00 0.000000e+00 0.000000e+00
-8.396438e+04 -7.842095e+02 0.000000e+00 -7.842095e+02 -5.930057e+04 0.000000e+00 0.000000e+00 0.000000e+00 0.000000e+00
-8.414937e+04 -9.638274e+02 0.000000e+00 -9.638274e+02 -5.954496e+04 0.000000e+00 0.000000e+00 0.000000e+00 0.000000e+00
-8.434202e+04 -6.783115e+02 0.000000e+00 -6.783115e+02 -5.979858e+04 0.000000e+00 0.000000e+00 0.000000e+00 0.000000e+00
-8.459910e+04 -3.735115e+02 0.000000e+00 -3.735115e+02 -5.997267e+04 0.000000e+00 0.000000e+00 0.000000e+00 0.000000e+00
-6.413079e+04 4.586477e+03 0.000000e+00 4.586477e+03 -6.410842e+04 0.000000e+00 0.000000e+00 0.000000e+00 0.000000e+00
-6.871330e+04 4.250893e+03 0.000000e+00 4.250893e+03 -6.366231e+04 0.000000e+00 0.000000e+00 0.000000e+00 0.000000e+00
-7.406266e+04 3.363120e+03 0.000000e+00 3.363120e+03 -6.190436e+04 0.000000e+00 0.000000e+00 0.000000e+00 0.000000e+00
-7.777754e+04 2.335399e+03 0.000000e+00 2.335399e+03 -6.059918e+04 0.000000e+00 0.000000e+00 0.000000e+00 0.000000e+00
-8.018363e+04 1.352980e+03 0.000000e+00 1.352980e+03 -5.974384e+04 0.000000e+00 0.000000e+00 0.000000e+00 0.000000e+00
-8.176801e+04 5.004837e+02 0.000000e+00 5.004837e+02 -5.930502e+04 0.000000e+00 0.000000e+00 0.000000e+00 0.000000e+00
-8.283931e+04 -1.527011e+02 0.000000e+00 -1.527011e+02 -5.919691e+04 0.000000e+00 0.000000e+00 0.000000e+00 0.000000e+00
-8.359757e+04 -5.398863e+02 0.000000e+00 -5.398863e+02 -5.932618e+04 0.000000e+00 0.000000e+00 0.000000e+00 0.000000e+00
-8.420743e+04 -6.349651e+02 0.000000e+00 -6.349651e+02 -5.957688e+04 0.000000e+00 0.000000e+00 0.000000e+00 0.000000e+00
-8.483373e+04 -4.334200e+02 0.000000e+00 -4.334200e+02 -5.982177e+04 0.000000e+00 0.000000e+00 0.000000e+00 0.000000e+00
-8.540434e+04 -2.344782e+02 0.000000e+00 -2.344782e+02 -6.004229e+04 0.000000e+00 0.000000e+00 0.000000e+00 0.000000e+00
-6.382185e+04 2.173762e+03 0.000000e+00 2.173762e+03 -6.395260e+04 0.000000e+00 0.000000e+00 0.000000e+00 0.000000e+00
-6.811745e+04 2.049231e+03 0.000000e+00 2.049231e+03 -6.345749e+04 0.000000e+00 0.000000e+00 0.000000e+00 0.000000e+00
-7.322063e+04 1.639394e+03 0.000000e+00 1.639394e+03 -6.174885e+04 0.000000e+00 0.000000e+00 0.000000e+00 0.000000e+00
-7.692412e+04 1.144967e+03 0.000000e+00 1.144967e+03 -6.048868e+04 0.000000e+00 0.000000e+00 0.000000e+00 0.000000e+00
-7.940598e+04 6.589742e+02 0.000000e+00 6.589742e+02 -5.968489e+04 0.000000e+00 0.000000e+00 0.000000e+00 0.000000e+00
-8.112711e+04 2.405949e+02 0.000000e+00 2.405949e+02 -5.927637e+04 0.000000e+00 0.000000e+00 0.000000e+00 0.000000e+00
-8.239537e+04 -8.510448e+01 0.000000e+00 -8.510448e+01 -5.920190e+04 0.000000e+00 0.000000e+00 0.000000e+00 0.000000e+00
-8.339466e+04 -2.758783e+02 0.000000e+00 -2.758783e+02 -5.935154e+04 0.000000e+00 0.000000e+00 0.000000e+00 0.000000e+00
-8.425753e+04 -3.126052e+02 0.000000e+00 -3.126052e+02 -5.960248e+04 0.000000e+00 0.000000e+00 0.000000e+00 0.000000e+00
-8.512429e+04 -2.094939e+02 0.000000e+00 -2.094939e+02 -5.983698e+04 0.000000e+00 0.000000e+00 0.000000e+00 0.000000e+00
-8.586800e+04 -1.143460e+02 0.000000e+00 -1.143460e+02 -6.007631e+04 0.000000e+00 0.000000e+00 0.000000e+00 0.000000e+00
-6.361187e+04 4.971846e+02 0.000000e+00 4.971846e+02 -6.359877e+04 0.000000e+00 0.000000e+00 0.000000e+00 0.000000e+00
-6.788926e+04 5.509838e+02 0.000000e+00 5.509838e+02 -6.321150e+04 0.000000e+00 0.000000e+00 0.000000e+00 0.000000e+00
-7.294174e+04 4.708646e+02 0.000000e+00 4.708646e+02 -6.166777e+04 0.000000e+00 0.000000e+00 0.000000e+00 0.000000e+00
-7.663885e+04 3.136491e+02 0.000000e+00 3.136491e+02 -6.045701e+04 0.000000e+00 0.000000e+00 0.000000e+00 0.000000e+00
-7.915100e+04 1.368949e+02 0.000000e+00 1.368949e+02 -5.966859e+04 0.000000e+00 0.000000e+00 0.000000e+00 0.000000e+00
-8.091886e+04 -1.859141e+01 0.000000e+00 -1.859141e+01 -5.927314e+04 0.000000e+00 0.000000e+00 0.000000e+00 0.000000e+00
-8.225044e+04 -1.394769e+02 0.000000e+00 -1.394769e+02 -5.921025e+04 0.000000e+00 0.000000e+00 0.000000e+00 0.000000e+00
-8.333582e+04 -2.095384e+02 0.000000e+00 -2.095384e+02 -5.936767e+04 0.000000e+00 0.000000e+00 0.000000e+00 0.000000e+00
-8.428166e+04 -2.175274e+02 0.000000e+00 -2.175274e+02 -5.961793e+04 0.000000e+00 0.000000e+00 0.000000e+00 0.000000e+00
-8.522100e+04 -1.778580e+02 0.000000e+00 -1.778580e+02 -5.984366e+04 0.000000e+00 0.000000e+00 0.000000e+00 0.000000e+00
-8.601919e+04 -1.431026e+02 0.000000e+00 -1.431026e+02 -6.008409e+04 0.000000e+00 0.000000e+00 0.000000e+00 0.000000e+00
</DataArray>
<DataArray Name="vol_eps" type="Float64" NumberOfComponents="1" format="ascii">
-1.109412e-02
-9.714787e-03
-8.908859e-03
-8.293876e-03
-8.176367e-03
-8.715264e-03
-9.851606e-03
-1.155615e-02
-1.386151e-02
-1.608068e-02
-1.674779e-02
-1.027074e-02
-8.940461e-03
-8.275479e-03
-7.938565e-03
-8.087129e-03
-8.716104e-03
-9.630683e-03
-1.073444e-02
-1.239852e-02
-1.445043e-02
-1.788020e-02
-8.177452e-03
-7.138799e-03
-6.819110e-03
-6.857249e-03
-7.100700e-03
-7.413708e-03
-7.695100e-03
-8.085014e-03
-8.877995e-03
-1.036057e-02
-1.362398e-02
-5.846391e-03
-5.270984e-03
-5.118355e-03
-4.995610e-03
-4.714650e-03
-4.199959e-03
-3.285858e-03
-1.943724e-03
-4.393727e-05
2.927221e-03
6.079612e-03
-4.516160e-03
-4.454547e-03
-4.729225e-03
-5.003234e-03
-5.161410e-03
-5.144635e-03
-4.923391e-03
-4.477066e-03
-3.844913e-03
-2.636795e-03
-9.961316e-05
-3.323632e-03
-3.630244e-03
-4.050286e-03
-4.301376e-03
-4.378026e-03
-4.279009e-03
-4.008160e-03
-3.570368e-03
-2.934290e-03
-1.675813e-03
2.192231e-05
-2.396439e-03
-2.971868e-03
-3.436809e-03
-3.636789e-03
-3.667151e-03
-3.555474e-03
-3.303476e-03
-2.895891e-03
-2.276602e-03
-1.314853e-03
-2.783358e-04
-1.724336e-03
-2.431224e-03
-2.891536e-03
-3.071795e-03
-3.099916e-03
-3.002996e-03
-2.772411e-03
-2.401472e-03
-1.892716e-03
-1.223405e-03
-5.749110e-04
-1.269662e-03
-1.996755e-03
-2.432021e-03
-2.610395e-03
-2.648555e-03
-2.564320e-03
-2.359977e-03
-2.061070e-03
-1.687434e-03
-1.239305e-03
-8.289568e-04
-9.704923e-04
-1.647169e-03
-2.044848e-03
-2.226150e-03
-2.275571e-03
-2.205805e-03
-2.047432e-03
-1.834568e-03
-1.582256e-03
-1.297724e-03
-1.042870e-03
-7.619930e-04
-1.355874e-03
-1.723880e-03
-1.905337e-03
-1.959333e-03
-1.916857e-03
-1.815546e-03
-1.684591e-03
-1.532882e-03
-1.368576e-03
-1.223280e-03
-6.290470e-04
-1.124895e-03
-1.461473e-03
-1.637716e-03
-1.700422e-03
-1.693375e-03
-1.650522e-03
-1.588612e-03
-1.514102e-03
-1.436389e-03
-1.370617e-03
-5.595806e-04
-9.604167e-04
-1.261284e-03
-1.427240e-03
-1.503414e-03
-1.530607e-03
-1.535050e-03
-1.526448e-03
-1.510827e-03
-1.495872e-03
-1.485817e-03
-5.291060e-04
-8.540627e-04
-1.113947e-03
-1.271002e-03
-1.360377e-03
-1.415938e-03
-1.454927e-03
-1.486161e-03
-1.514419e-03
-1.543828e-03
-1.572633e-03
-5.188521e-04
-7.870580e-04
-1.010559e-03
-1.161792e-03
-1.262898e-03
-1.337894e-03
-1.402210e-03
-1.462322e-03
-1.520621e-03
-1.579424e-03
-1.632943e-03
-5.000610e-04
-7.424347e-04
-9.502501e-04
-1.098879e-03
-1.206621e-03
-1.293436e-03
-1.372799e-03
-1.449977e-03
-1.525751e-03
-1.600150e-03
-1.666446e-03
-4.667741e-04
-7.143035e-04
-9.288758e-04
-1.078936e-03
-1.188292e-03
-1.279417e-03
-1.363755e-03
-1.446957e-03
-1.528413e-03
-1.607093e-03
-1.676962e-03
</DataArray>
</PointData>
</Piece>
</UnstructuredGrid>
</VTKFile>
