<?xml version="1.0"?>
<VTKFile type="UnstructuredGrid" version="0.1">
<UnstructuredGrid>
<FieldData>
<DataArray Name="TIME" type="Float64" format="ascii" NumberOfTuples="1">
0.000000e+00
</DataArray>
</FieldData>
<FieldData>
<DataArray Name="CYCLE" type="Int32" format="ascii" NumberOfTuples="1">
0
</DataArray>
</FieldData>
<Piece NumberOfPoints="187" NumberOfCells="160">
<Points>
<DataArray NumberOfComponents="3" type="Float64" format="ascii">
0.000000e+00 0.000000e+00 0.000000e+00
0.000000e+00 1.963639e-01 0.000000e+00
0.000000e+00 3.899657e-01 0.000000e+00
0.000000e+00 5.801669e-01 0.000000e+00
0.000000e+00 7.679328e-01 0.000000e+00
0.000000e+00 9.546066e-01 0.000000e+00
0.000000e+00 1.141409e+00 0.000000e+00
0.000000e+00 1.329496e+00 0.000000e+00
0.000000e+00 1.520319e+00 0.000000e+00
0.000000e+00 1.715286e+00 0.000000e+00
0.000000e+00 1.911125e+00 0.000000e+00
2.250000e-01 0.000000e+00 0.000000e+00
2.275447e-01 1.961551e-01 0.000000e+00
2.320966e-01 3.900866e-01 0.000000e+00
2.358750e-01 5.817027e-01 0.000000e+00
2.380842e-01 7.713540e-01 0.000000e+00
2.386836e-01 9.596888e-01 0.000000e+00
2.380491e-01 1.147481e+00 0.000000e+00
2.357234e-01 1.335739e+00 0.000000e+00
2.306842e-01 1.524769e+00 0.000000e+00
2.255908e-01 1.715831e+00 0.000000e+00
2.250000e-01 1.911125e+00 0.000000e+00
4.500000e-01 0.000000e+00 0.000000e+00
4.555206e-01 1.966173e-01 0.000000e+00
4.623208e-01 3.921153e-01 0.000000e+00
4.680438e-01 5.869051e-01 0.000000e+00
4.721668e-01 7.807381e-01 0.000000e+00
4.742440e-01 9.730648e-01 0.000000e+00
4.743027e-01 1.163834e+00 0.000000e+00
4.722411e-01 1.353189e+00 0.000000e+00
4.676117e-01 1.540505e+00 0.000000e+00
4.611318e-01 1.725776e+00 0.000000e+00
4.500000e-01 1.911125e+00 0.000000e+00
6.750000e-01 0.000000e+00 0.000000e+00
6.828132e-01 1.981498e-01 0.000000e+00
6.900076e-01 3.960401e-01 0.000000e+00
6.957402e-01 5.943267e-01 0.000000e+00
6.999456e-01 7.932267e-01 0.000000e+00
7.027835e-01 9.926013e-01 0.000000e+00
7.036591e-01 1.192406e+00 0.000000e+00
7.025068e-01 1.392639e+00 0.000000e+00
6.996459e-01 1.593329e+00 0.000000e+00
6.942813e-01 1.793923e+00 0.000000e+00
6.857435e-01 1.993194e+00 0.000000e+00
9.000000e-01 0.000000e+00 0.000000e+00
9.086065e-01 1.989500e-01 0.000000e+00
9.153146e-01 3.979629e-01 0.000000e+00
9.201914e-01 5.973692e-01 0.000000e+00
9.236713e-01 7.972194e-01 0.000000e+00
9.258649e-01 9.976166e-01 0.000000e+00
9.263401e-01 1.198487e+00 0.000000e+00
9.250535e-01 1.399604e+00 0.000000e+00
9.221799e-01 1.600761e+00 0.000000e+00
9.176523e-01 1.801642e+00 0.000000e+00
9.119663e-01 2.001742e+00 0.000000e+00
1.125000e+00 0.000000e+00 0.000000e+00
1.133742e+00 1.994722e-01 0.000000e+00
1.139551e+00 3.991746e-01 0.000000e+00
1.143712e+00 5.993684e-01 0.000000e+00
1.146651e+00 8.000264e-01 0.000000e+00
1.148324e+00 1.001134e+00 0.000000e+00
1.148584e+00 1.202549e+00 0.000000e+00
1.147400e+00 1.404030e+00 0.000000e+00
1.144898e+00 1.605357e+00 0.000000e+00
1.141387e+00 1.806196e+00 0.000000e+00
1.137829e+00 2.006237e+00 0.000000e+00
1.350000e+00 0.000000e+00 0.000000e+00
1.358248e+00 1.999397e-01 0.000000e+00
1.363221e+00 4.001896e-01 0.000000e+00
1.366769e+00 6.008561e-01 0.000000e+00
1.369205e+00 8.019533e-01 0.000000e+00
1.370561e+00 1.003429e+00 0.000000e+00
1.370764e+00 1.205097e+00 0.000000e+00
1.369805e+00 1.406727e+00 0.000000e+00
1.367839e+00 1.608097e+00 0.000000e+00
1.365389e+00 1.808879e+00 0.000000e+00
1.363223e+00 2.009030e+00 0.000000e+00
1.575000e+00 0.000000e+00 0.000000e+00
1.582349e+00 2.002485e-01 0.000000e+00
1.586589e+00 4.008029e-01 0.000000e+00
1.589583e+00 6.017613e-01 0.000000e+00
1.591640e+00 8.031144e-01 0.000000e+00
1.592795e+00 1.004746e+00 0.000000e+00
1.593020e+00 1.206477e+00 0.000000e+00
1.592336e+00 1.408138e+00 0.000000e+00
1.590957e+00 1.609496e+00 0.000000e+00
1.589411e+00 1.810286e+00 0.000000e+00
1.588255e+00 2.010525e+00 0.000000e+00
1.800000e+00 0.000000e+00 0.000000e+00
1.806235e+00 2.003583e-01 0.000000e+00
1.809806e+00 4.011004e-01 0.000000e+00
1.812345e+00 6.022245e-01 0.000000e+00
1.814101e+00 8.036539e-01 0.000000e+00
1.815128e+00 1.005286e+00 0.000000e+00
1.815418e+00 1.206987e+00 0.000000e+00
1.815016e+00 1.408602e+00 0.000000e+00
1.814173e+00 1.609928e+00 0.000000e+00
1.813358e+00 1.810745e+00 0.000000e+00
1.812941e+00 2.011106e+00 0.000000e+00
2.025000e+00 0.000000e+00 0.000000e+00
2.030060e+00 2.004040e-01 0.000000e+00
2.033002e+00 4.012019e-01 0.000000e+00
2.035179e+00 6.023424e-01 0.000000e+00
2.036687e+00 8.037171e-01 0.000000e+00
2.037624e+00 1.005264e+00 0.000000e+00
2.037982e+00 1.206873e+00 0.000000e+00
2.037834e+00 1.408409e+00 0.000000e+00
2.037445e+00 1.609684e+00 0.000000e+00
2.037182e+00 1.810542e+00 0.000000e+00
2.037263e+00 2.011051e+00 0.000000e+00
2.250000e+00 0.000000e+00 0.000000e+00
2.253895e+00 2.003589e-01 0.000000e+00
2.256305e+00 4.011137e-01 0.000000e+00
2.258157e+00 6.021823e-01 0.000000e+00
2.259470e+00 8.034529e-01 0.000000e+00
2.260314e+00 1.004869e+00 0.000000e+00
2.260719e+00 1.206355e+00 0.000000e+00
2.260779e+00 1.407790e+00 0.000000e+00
2.260743e+00 1.609011e+00 0.000000e+00
2.260858e+00 1.809927e+00 0.000000e+00
2.261232e+00 2.010601e+00 0.000000e+00
2.475000e+00 0.000000e+00 0.000000e+00
2.477855e+00 2.002648e-01 0.000000e+00
2.479785e+00 4.009055e-01 0.000000e+00
2.481320e+00 6.018513e-01 0.000000e+00
2.482449e+00 8.029972e-01 0.000000e+00
2.483207e+00 1.004277e+00 0.000000e+00
2.483629e+00 1.205618e+00 0.000000e+00
2.483838e+00 1.406932e+00 0.000000e+00
2.484031e+00 1.608107e+00 0.000000e+00
2.484365e+00 1.809101e+00 0.000000e+00
2.484879e+00 2.009961e+00 0.000000e+00
2.700000e+00 0.000000e+00 0.000000e+00
2.701982e+00 2.001634e-01 0.000000e+00
2.703473e+00 4.006718e-01 0.000000e+00
2.704685e+00 6.014600e-01 0.000000e+00
2.705624e+00 8.024606e-01 0.000000e+00
2.706287e+00 1.003606e+00 0.000000e+00
2.706706e+00 1.204817e+00 0.000000e+00
2.706993e+00 1.406018e+00 0.000000e+00
2.707290e+00 1.607157e+00 0.000000e+00
2.707698e+00 1.808227e+00 0.000000e+00
2.708227e+00 2.009271e+00 0.000000e+00
2.925000e+00 0.000000e+00 0.000000e+00
2.926287e+00 2.000839e-01 0.000000e+00
2.927373e+00 4.004577e-01 0.000000e+00
2.928273e+00 6.010874e-01 0.000000e+00
2.928994e+00 8.019345e-01 0.000000e+00
2.929532e+00 1.002949e+00 0.000000e+00
2.929914e+00 1.204054e+00 0.000000e+00
2.930210e+00 1.405184e+00 0.000000e+00
2.930511e+00 1.606308e+00 0.000000e+00
2.930889e+00 1.807438e+00 0.000000e+00
2.931349e+00 2.008615e+00 0.000000e+00
3.150000e+00 0.000000e+00 0.000000e+00
3.150753e+00 2.000180e-01 0.000000e+00
3.151457e+00 4.002750e-01 0.000000e+00
3.152061e+00 6.007801e-01 0.000000e+00
3.152549e+00 8.015004e-01 0.000000e+00
3.152925e+00 1.002403e+00 0.000000e+00
3.153215e+00 1.203424e+00 0.000000e+00
3.153456e+00 1.404511e+00 0.000000e+00
3.153698e+00 1.605633e+00 0.000000e+00
3.153982e+00 1.806806e+00 0.000000e+00
3.154318e+00 2.008079e+00 0.000000e+00
3.375000e+00 0.000000e+00 0.000000e+00
3.375347e+00 1.999643e-01 0.000000e+00
3.375686e+00 4.001477e-01 0.000000e+00
3.375992e+00 6.005734e-01 0.000000e+00
3.376240e+00 8.012200e-01 0.000000e+00
3.376431e+00 1.002048e+00 0.000000e+00
3.376587e+00 1.203008e+00 0.000000e+00
3.376721e+00 1.404060e+00 0.000000e+00
3.376856e+00 1.605181e+00 0.000000e+00
3.377008e+00 1.806385e+00 0.000000e+00
3.377183e+00 2.007720e+00 0.000000e+00
3.600000e+00 0.000000e+00 0.000000e+00
3.600000e+00 1.999570e-01 0.000000e+00
3.600000e+00 4.001161e-01 0.000000e+00
3.600000e+00 6.005061e-01 0.000000e+00
3.600000e+00 8.011183e-01 0.000000e+00
3.600000e+00 1.001913e+00 0.000000e+00
3.600000e+00 1.202849e+00 0.000000e+00
3.600000e+00 1.403884e+00 0.000000e+00
3.600000e+00 1.604998e+00 0.000000e+00
3.600000e+00 1.806205e+00 0.000000e+00
3.600000e+00 2.007555e+00 0.000000e+00
</DataArray>
</Points>
<Cells>
<DataArray Name="connectivity" type="Int32" format="ascii">
0 11 12 1
1 12 13 2
2 13 14 3
3 14 15 4
4 15 16 5
5 16 17 6
6 17 18 7
7 18 19 8
8 19 20 9
9 20 21 10
11 22 23 12
12 23 24 13
13 24 25 14
14 25 26 15
15 26 27 16
16 27 28 17
17 28 29 18
18 29 30 19
19 30 31 20
20 31 32 21
22 33 34 23
23 34 35 24
24 35 36 25
25 36 37 26
26 37 38 27
27 38 39 28
28 39 40 29
29 40 41 30
30 41 42 31
31 42 43 32
33 44 45 34
34 45 46 35
35 46 47 36
36 47 48 37
37 48 49 38
38 49 50 39
39 50 51 40
40 51 52 41
41 52 53 42
42 53 54 43
44 55 56 45
45 56 57 46
46 57 58 47
47 58 59 48
48 59 60 49
49 60 61 50
50 61 62 51
51 62 63 52
52 63 64 53
53 64 65 54
55 66 67 56
56 67 68 57
57 68 69 58
58 69 70 59
59 70 71 60
60 71 72 61
61 72 73 62
62 73 74 63
63 74 75 64
64 75 76 65
66 77 78 67
67 78 79 68
68 79 80 69
69 80 81 70
70 81 82 71
71 82 83 72
72 83 84 73
73 84 85 74
74 85 86 75
75 86 87 76
77 88 89 78
78 89 90 79
79 90 91 80
80 91 92 81
81 92 93 82
82 93 94 83
83 94 95 84
84 95 96 85
85 96 97 86
86 97 98 87
88 99 100 89
89 100 101 90
90 101 102 91
91 102 103 92
92 103 104 93
93 104 105 94
94 105 106 95
95 106 107 96
96 107 108 97
97 108 109 98
99 110 111 100
100 111 112 101
101 112 113 102
102 113 114 103
103 114 115 104
104 115 116 105
105 116 117 106
106 117 118 107
107 118 119 108
108 119 120 109
110 121 122 111
111 122 123 112
112 123 124 113
113 124 125 114
114 125 126 115
115 126 127 116
116 127 128 117
117 128 129 118
118 129 130 119
119 130 131 120
121 132 133 122
122 133 134 123
123 134 135 124
124 135 136 125
125 136 137 126
126 137 138 127
127 138 139 128
128 139 140 129
129 140 141 130
130 141 142 131
132 143 144 133
133 144 145 134
134 145 146 135
135 146 147 136
136 147 148 137
137 148 149 138
138 149 150 139
139 150 151 140
140 151 152 141
141 152 153 142
143 154 155 144
144 155 156 145
145 156 157 146
146 157 158 147
147 158 159 148
148 159 160 149
149 160 161 150
150 161 162 151
151 162 163 152
152 163 164 153
154 165 166 155
155 166 167 156
156 167 168 157
157 168 169 158
158 169 170 159
159 170 171 160
160 171 172 161
161 172 173 162
162 173 174 163
163 174 175 164
165 176 177 166
166 177 178 167
167 178 179 168
168 179 180 169
169 180 181 170
170 181 182 171
171 182 183 172
172 183 184 173
173 184 185 174
174 185 186 175
</DataArray>
<DataArray Name="offsets" type="Int32" format="ascii">
4
8
12
16
20
24
28
32
36
40
44
48
52
56
60
64
68
72
76
80
84
88
92
96
100
104
108
112
116
120
124
128
132
136
140
144
148
152
156
160
164
168
172
176
180
184
188
192
196
200
204
208
212
216
220
224
228
232
236
240
244
248
252
256
260
264
268
272
276
280
284
288
292
296
300
304
308
312
316
320
324
328
332
336
340
344
348
352
356
360
364
368
372
376
380
384
388
392
396
400
404
408
412
416
420
424
428
432
436
440
444
448
452
456
460
464
468
472
476
480
484
488
492
496
500
504
508
512
516
520
524
528
532
536
540
544
548
552
556
560
564
568
572
576
580
584
588
592
596
600
604
608
612
616
620
624
628
632
636
640
</DataArray>
<DataArray Name="types" type="UInt8" format="ascii">
9
9
9
9
9
9
9
9
9
9
9
9
9
9
9
9
9
9
9
9
9
9
9
9
9
9
9
9
9
9
9
9
9
9
9
9
9
9
9
9
9
9
9
9
9
9
9
9
9
9
9
9
9
9
9
9
9
9
9
9
9
9
9
9
9
9
9
9
9
9
9
9
9
9
9
9
9
9
9
9
9
9
9
9
9
9
9
9
9
9
9
9
9
9
9
9
9
9
9
9
9
9
9
9
9
9
9
9
9
9
9
9
9
9
9
9
9
9
9
9
9
9
9
9
9
9
9
9
9
9
9
9
9
9
9
9
9
9
9
9
9
9
9
9
9
9
9
9
9
9
9
9
9
9
9
9
9
9
9
9
</DataArray>
</Cells>
<PointData>
<DataArray Name="disp" type="Float64" NumberOfComponents="3" format="ascii">
0.000000e+00 0.000000e+00 0.000000e+00
0.000000e+00 -3.636089e-03 0.000000e+00
0.000000e+00 -1.003433e-02 0.000000e+00
0.000000e+00 -1.983310e-02 0.000000e+00
0.000000e+00 -3.206723e-02 0.000000e+00
0.000000e+00 -4.539338e-02 0.000000e+00
0.000000e+00 -5.859145e-02 0.000000e+00
0.000000e+00 -7.050408e-02 0.000000e+00
0.000000e+00 -7.968072e-02 0.000000e+00
0.000000e+00 -8.471381e-02 0.000000e+00
0.000000e+00 -8.887500e-02 0.000000e+00
0.000000e+00 0.000000e+00 0.000000e+00
2.544657e-03 -3.844919e-03 0.000000e+00
7.096579e-03 -9.913377e-03 0.000000e+00
1.087496e-02 -1.829727e-02 0.000000e+00
1.308423e-02 -2.864602e-02 0.000000e+00
1.368363e-02 -4.031118e-02 0.000000e+00
1.304915e-02 -5.251933e-02 0.000000e+00
1.072339e-02 -6.426124e-02 0.000000e+00
5.684209e-03 -7.523058e-02 0.000000e+00
5.908296e-04 -8.416876e-02 0.000000e+00
0.000000e+00 -8.887500e-02 0.000000e+00
0.000000e+00 0.000000e+00 0.000000e+00
5.520609e-03 -3.382677e-03 0.000000e+00
1.232080e-02 -7.884703e-03 0.000000e+00
1.804383e-02 -1.309487e-02 0.000000e+00
2.216679e-02 -1.926192e-02 0.000000e+00
2.424402e-02 -2.693521e-02 0.000000e+00
2.430274e-02 -3.616628e-02 0.000000e+00
2.224107e-02 -4.681124e-02 0.000000e+00
1.761167e-02 -5.949512e-02 0.000000e+00
1.113177e-02 -7.422358e-02 0.000000e+00
0.000000e+00 -8.887500e-02 0.000000e+00
0.000000e+00 0.000000e+00 0.000000e+00
7.813218e-03 -1.850250e-03 0.000000e+00
1.500759e-02 -3.959864e-03 0.000000e+00
2.074025e-02 -5.673266e-03 0.000000e+00
2.494556e-02 -6.773289e-03 0.000000e+00
2.778350e-02 -7.398647e-03 0.000000e+00
2.865904e-02 -7.593901e-03 0.000000e+00
2.750685e-02 -7.361347e-03 0.000000e+00
2.464590e-02 -6.671061e-03 0.000000e+00
1.928125e-02 -6.076620e-03 0.000000e+00
1.074345e-02 -6.806011e-03 0.000000e+00
0.000000e+00 0.000000e+00 0.000000e+00
8.606475e-03 -1.050033e-03 0.000000e+00
1.531461e-02 -2.037130e-03 0.000000e+00
2.019139e-02 -2.630783e-03 0.000000e+00
2.367128e-02 -2.780631e-03 0.000000e+00
2.586489e-02 -2.383337e-03 0.000000e+00
2.634012e-02 -1.512903e-03 0.000000e+00
2.505355e-02 -3.960926e-04 0.000000e+00
2.217990e-02 7.612334e-04 0.000000e+00
1.765228e-02 1.642289e-03 0.000000e+00
1.196632e-02 1.741998e-03 0.000000e+00
0.000000e+00 0.000000e+00 0.000000e+00
8.742218e-03 -5.277601e-04 0.000000e+00
1.455056e-02 -8.254184e-04 0.000000e+00
1.871192e-02 -6.316249e-04 0.000000e+00
2.165053e-02 2.632947e-05 0.000000e+00
2.332366e-02 1.133606e-03 0.000000e+00
2.358415e-02 2.549080e-03 0.000000e+00
2.239950e-02 4.030386e-03 0.000000e+00
1.989764e-02 5.357035e-03 0.000000e+00
1.638705e-02 6.196184e-03 0.000000e+00
1.282859e-02 6.236596e-03 0.000000e+00
0.000000e+00 0.000000e+00 0.000000e+00
8.247736e-03 -6.033412e-05 0.000000e+00
1.322089e-02 1.895780e-04 0.000000e+00
1.676868e-02 8.561094e-04 0.000000e+00
1.920447e-02 1.953242e-03 0.000000e+00
2.056138e-02 3.428895e-03 0.000000e+00
2.076409e-02 5.097042e-03 0.000000e+00
1.980494e-02 6.726806e-03 0.000000e+00
1.783890e-02 8.097352e-03 0.000000e+00
1.538859e-02 8.879159e-03 0.000000e+00
1.322261e-02 9.030075e-03 0.000000e+00
0.000000e+00 0.000000e+00 0.000000e+00
7.349086e-03 2.484499e-04 0.000000e+00
1.158938e-02 8.028650e-04 0.000000e+00
1.458276e-02 1.761319e-03 0.000000e+00
1.663951e-02 3.114371e-03 0.000000e+00
1.779454e-02 4.745629e-03 0.000000e+00
1.801972e-02 6.476979e-03 0.000000e+00
1.733581e-02 8.138189e-03 0.000000e+00
1.595662e-02 9.496491e-03 0.000000e+00
1.441053e-02 1.028646e-02 0.000000e+00
1.325480e-02 1.052534e-02 0.000000e+00
0.000000e+00 0.000000e+00 0.000000e+00
6.234975e-03 3.582556e-04 0.000000e+00
9.805507e-03 1.100403e-03 0.000000e+00
1.234496e-02 2.224446e-03 0.000000e+00
1.410071e-02 3.653907e-03 0.000000e+00
1.512757e-02 5.285493e-03 0.000000e+00
1.541770e-02 6.986593e-03 0.000000e+00
1.501556e-02 8.602131e-03 0.000000e+00
1.417323e-02 9.927694e-03 0.000000e+00
1.335786e-02 1.074538e-02 0.000000e+00
1.294127e-02 1.110645e-02 0.000000e+00
0.000000e+00 0.000000e+00 0.000000e+00
5.059886e-03 4.039513e-04 0.000000e+00
8.002311e-03 1.201886e-03 0.000000e+00
1.017878e-02 2.342424e-03 0.000000e+00
1.168710e-02 3.717127e-03 0.000000e+00
1.262438e-02 5.264137e-03 0.000000e+00
1.298189e-02 6.873231e-03 0.000000e+00
1.283386e-02 8.408826e-03 0.000000e+00
1.244540e-02 9.683645e-03 0.000000e+00
1.218192e-02 1.054159e-02 0.000000e+00
1.226289e-02 1.105139e-02 0.000000e+00
0.000000e+00 0.000000e+00 0.000000e+00
3.895271e-03 3.589322e-04 0.000000e+00
6.305141e-03 1.113739e-03 0.000000e+00
8.156923e-03 2.182322e-03 0.000000e+00
9.469438e-03 3.452884e-03 0.000000e+00
1.031411e-02 4.868716e-03 0.000000e+00
1.071899e-02 6.355067e-03 0.000000e+00
1.077894e-02 7.790064e-03 0.000000e+00
1.074259e-02 9.010572e-03 0.000000e+00
1.085813e-02 9.927397e-03 0.000000e+00
1.123157e-02 1.060083e-02 0.000000e+00
0.000000e+00 0.000000e+00 0.000000e+00
2.854962e-03 2.648106e-04 0.000000e+00
4.784668e-03 9.054651e-04 0.000000e+00
6.319661e-03 1.851347e-03 0.000000e+00
7.449166e-03 2.997229e-03 0.000000e+00
8.206501e-03 4.276670e-03 0.000000e+00
8.628592e-03 5.618093e-03 0.000000e+00
8.837514e-03 6.932311e-03 0.000000e+00
9.031394e-03 8.106560e-03 0.000000e+00
9.364901e-03 9.100578e-03 0.000000e+00
9.879229e-03 9.961218e-03 0.000000e+00
0.000000e+00 0.000000e+00 0.000000e+00
1.982604e-03 1.634112e-04 0.000000e+00
3.473398e-03 6.718350e-04 0.000000e+00
4.685547e-03 1.460062e-03 0.000000e+00
5.624185e-03 2.460544e-03 0.000000e+00
6.286618e-03 3.606441e-03 0.000000e+00
6.705586e-03 4.816769e-03 0.000000e+00
6.993265e-03 6.018061e-03 0.000000e+00
7.290105e-03 7.156499e-03 0.000000e+00
7.698109e-03 8.227073e-03 0.000000e+00
8.227267e-03 9.270580e-03 0.000000e+00
0.000000e+00 0.000000e+00 0.000000e+00
1.286851e-03 8.394750e-05 0.000000e+00
2.373252e-03 4.577515e-04 0.000000e+00
3.272792e-03 1.087382e-03 0.000000e+00
3.993662e-03 1.934503e-03 0.000000e+00
4.532281e-03 2.948729e-03 0.000000e+00
4.914348e-03 4.054205e-03 0.000000e+00
5.209937e-03 5.183810e-03 0.000000e+00
5.511298e-03 6.307965e-03 0.000000e+00
5.889005e-03 7.438320e-03 0.000000e+00
6.349176e-03 8.614754e-03 0.000000e+00
0.000000e+00 0.000000e+00 0.000000e+00
7.529911e-04 1.800340e-05 0.000000e+00
1.456984e-03 2.750338e-04 0.000000e+00
2.060911e-03 7.800767e-04 0.000000e+00
2.548817e-03 1.500377e-03 0.000000e+00
2.925540e-03 2.403115e-03 0.000000e+00
3.215150e-03 3.424403e-03 0.000000e+00
3.456332e-03 4.510605e-03 0.000000e+00
3.698013e-03 5.633097e-03 0.000000e+00
3.982481e-03 6.806244e-03 0.000000e+00
4.317671e-03 8.079171e-03 0.000000e+00
0.000000e+00 0.000000e+00 0.000000e+00
3.468881e-04 -3.572865e-05 0.000000e+00
6.863814e-04 1.476882e-04 0.000000e+00
9.922349e-04 5.733597e-04 0.000000e+00
1.239496e-03 1.219981e-03 0.000000e+00
1.430614e-03 2.047528e-03 0.000000e+00
1.587129e-03 3.007707e-03 0.000000e+00
1.721151e-03 4.059691e-03 0.000000e+00
1.855571e-03 5.181396e-03 0.000000e+00
2.008180e-03 6.385264e-03 0.000000e+00
2.183076e-03 7.720326e-03 0.000000e+00
0.000000e+00 0.000000e+00 0.000000e+00
0.000000e+00 -4.305317e-05 0.000000e+00
0.000000e+00 1.160908e-04 0.000000e+00
0.000000e+00 5.060529e-04 0.000000e+00
0.000000e+00 1.118328e-03 0.000000e+00
0.000000e+00 1.913104e-03 0.000000e+00
0.000000e+00 2.848615e-03 0.000000e+00
0.000000e+00 3.884418e-03 0.000000e+00
0.000000e+00 4.997686e-03 0.000000e+00
0.000000e+00 6.205063e-03 0.000000e+00
0.000000e+00 7.555429e-03 0.000000e+00
</DataArray>
<DataArray Name="shear" type="Float64" NumberOfComponents="1" format="ascii">
2.281349e-02
3.839893e-02
7.080196e-02
1.005770e-01
1.195446e-01
1.263538e-01
1.213487e-01
1.022121e-01
6.670724e-02
3.299049e-02
2.282437e-02
2.655017e-02
4.121990e-02
6.698087e-02
8.998492e-02
1.079913e-01
1.188049e-01
1.202932e-01
1.112906e-01
9.208095e-02
6.272094e-02
4.019725e-02
3.503777e-02
4.604420e-02
6.044324e-02
7.231680e-02
8.737838e-02
1.052829e-01
1.231862e-01
1.401219e-01
1.576138e-01
1.645222e-01
1.616454e-01
4.158771e-02
4.540510e-02
4.842112e-02
5.023455e-02
5.553358e-02
6.462001e-02
7.693762e-02
9.366424e-02
1.146631e-01
1.367553e-01
1.532336e-01
4.407486e-02
4.162866e-02
3.612113e-02
3.238431e-02
3.051190e-02
2.867159e-02
2.580640e-02
2.224768e-02
1.691433e-02
7.336800e-03
1.336060e-03
4.410754e-02
3.854887e-02
3.032429e-02
2.730332e-02
2.621377e-02
2.509877e-02
2.287336e-02
1.948100e-02
1.460171e-02
6.977862e-03
2.242005e-03
4.155571e-02
3.493441e-02
2.645534e-02
2.438080e-02
2.386465e-02
2.316386e-02
2.143631e-02
1.855208e-02
1.396566e-02
7.065066e-03
2.356665e-03
3.700630e-02
3.055020e-02
2.308863e-02
2.201818e-02
2.202500e-02
2.163734e-02
2.037760e-02
1.798944e-02
1.374277e-02
7.577030e-03
3.503120e-03
3.144979e-02
2.600346e-02
2.040799e-02
2.002693e-02
2.026529e-02
2.016195e-02
1.933380e-02
1.737442e-02
1.360211e-02
8.359909e-03
5.122670e-03
2.558799e-02
2.151345e-02
1.787960e-02
1.797243e-02
1.838837e-02
1.861665e-02
1.820026e-02
1.663104e-02
1.345353e-02
9.352708e-03
7.042385e-03
1.977911e-02
1.713186e-02
1.528767e-02
1.586567e-02
1.651612e-02
1.702052e-02
1.695428e-02
1.579009e-02
1.337642e-02
1.052541e-02
9.064406e-03
1.453701e-02
1.313646e-02
1.273655e-02
1.380338e-02
1.476569e-02
1.545797e-02
1.561963e-02
1.491783e-02
1.343107e-02
1.184473e-02
1.113161e-02
1.013032e-02
9.684389e-03
1.030177e-02
1.176183e-02
1.309122e-02
1.402141e-02
1.438721e-02
1.416009e-02
1.357623e-02
1.310668e-02
1.301417e-02
6.602741e-03
6.772527e-03
8.068068e-03
9.837551e-03
1.150376e-02
1.274857e-02
1.342568e-02
1.366077e-02
1.376510e-02
1.408687e-02
1.442707e-02
3.867715e-03
4.371352e-03
6.203630e-03
8.289535e-03
1.019525e-02
1.170020e-02
1.270712e-02
1.336074e-02
1.394896e-02
1.478282e-02
1.541083e-02
1.788931e-03
2.614607e-03
4.930534e-03
7.299899e-03
9.354721e-03
1.098457e-02
1.220594e-02
1.315483e-02
1.406795e-02
1.521375e-02
1.600882e-02
6.471320e-04
1.927413e-03
4.468990e-03
6.938738e-03
9.049911e-03
1.072111e-02
1.202095e-02
1.306952e-02
1.409512e-02
1.534912e-02
1.619864e-02
</DataArray>
<DataArray Name="stress" type="Float64" NumberOfComponents="9" format="ascii">
-1.285422e+05 7.781078e+03 0.000000e+00 7.781078e+03 -2.329375e+05 0.000000e+00 0.000000e+00 0.000000e+00 0.000000e+00
-1.177948e+05 5.318037e+03 0.000000e+00 5.318037e+03 -2.360429e+05 0.000000e+00 0.000000e+00 0.000000e+00 0.000000e+00
-1.231781e+05 3.784704e+03 0.000000e+00 3.784704e+03 -2.355085e+05 0.000000e+00 0.000000e+00 0.000000e+00 0.000000e+00
-1.362749e+05 5.620363e+03 0.000000e+00 5.620363e+03 -2.480256e+05 0.000000e+00 0.000000e+00 0.000000e+00 0.000000e+00
-1.458290e+05 3.600750e+03 0.000000e+00 3.600750e+03 -2.544005e+05 0.000000e+00 0.000000e+00 0.000000e+00 0.000000e+00
-1.510802e+05 5.491164e+03 0.000000e+00 5.491164e+03 -2.567768e+05 0.000000e+00 0.000000e+00 0.000000e+00 0.000000e+00
-1.533910e+05 8.182793e+03 0.000000e+00 8.182793e+03 -2.736578e+05 0.000000e+00 0.000000e+00 0.000000e+00 0.000000e+00
-1.517425e+05 1.071518e+04 0.000000e+00 1.071518e+04 -2.802151e+05 0.000000e+00 0.000000e+00 0.000000e+00 0.000000e+00
-1.552688e+05 8.617494e+03 0.000000e+00 8.617494e+03 -2.962389e+05 0.000000e+00 0.000000e+00 0.000000e+00 0.000000e+00
-1.630401e+05 -8.818123e+02 0.000000e+00 -8.818123e+02 -3.095644e+05 0.000000e+00 0.000000e+00 0.000000e+00 0.000000e+00
-1.651331e+05 -2.856279e+02 0.000000e+00 -2.856279e+02 -2.927963e+05 0.000000e+00 0.000000e+00 0.000000e+00 0.000000e+00
-1.347841e+05 2.308731e+04 0.000000e+00 2.308731e+04 -2.284123e+05 0.000000e+00 0.000000e+00 0.000000e+00 0.000000e+00
-1.191130e+05 1.876090e+04 0.000000e+00 1.876090e+04 -2.243421e+05 0.000000e+00 0.000000e+00 0.000000e+00 0.000000e+00
-1.215226e+05 1.600044e+04 0.000000e+00 1.600044e+04 -2.312130e+05 0.000000e+00 0.000000e+00 0.000000e+00 0.000000e+00
-1.315483e+05 1.307313e+04 0.000000e+00 1.307313e+04 -2.428876e+05 0.000000e+00 0.000000e+00 0.000000e+00 0.000000e+00
-1.426109e+05 1.169033e+04 0.000000e+00 1.169033e+04 -2.522764e+05 0.000000e+00 0.000000e+00 0.000000e+00 0.000000e+00
-1.502444e+05 1.280599e+04 0.000000e+00 1.280599e+04 -2.607815e+05 0.000000e+00 0.000000e+00 0.000000e+00 0.000000e+00
-1.547115e+05 1.492112e+04 0.000000e+00 1.492112e+04 -2.733051e+05 0.000000e+00 0.000000e+00 0.000000e+00 0.000000e+00
-1.550415e+05 1.507281e+04 0.000000e+00 1.507281e+04 -2.828647e+05 0.000000e+00 0.000000e+00 0.000000e+00 0.000000e+00
-1.582474e+05 6.828244e+03 0.000000e+00 6.828244e+03 -2.967217e+05 0.000000e+00 0.000000e+00 0.000000e+00 0.000000e+00
-1.591241e+05 -2.581214e+03 0.000000e+00 -2.581214e+03 -3.000330e+05 0.000000e+00 0.000000e+00 0.000000e+00 0.000000e+00
-1.831746e+05 -8.981438e+03 0.000000e+00 -8.981438e+03 -3.446786e+05 0.000000e+00 0.000000e+00 0.000000e+00 0.000000e+00
-1.366056e+05 3.659020e+04 0.000000e+00 3.659020e+04 -1.986038e+05 0.000000e+00 0.000000e+00 0.000000e+00 0.000000e+00
-1.170378e+05 3.018733e+04 0.000000e+00 3.018733e+04 -1.852886e+05 0.000000e+00 0.000000e+00 0.000000e+00 0.000000e+00
-1.173732e+05 2.873646e+04 0.000000e+00 2.873646e+04 -1.932641e+05 0.000000e+00 0.000000e+00 0.000000e+00 0.000000e+00
-1.273033e+05 2.942094e+04 0.000000e+00 2.942094e+04 -2.062405e+05 0.000000e+00 0.000000e+00 0.000000e+00 0.000000e+00
-1.440368e+05 3.107892e+04 0.000000e+00 3.107892e+04 -2.237686e+05 0.000000e+00 0.000000e+00 0.000000e+00 0.000000e+00
-1.616128e+05 3.505819e+04 0.000000e+00 3.505819e+04 -2.408957e+05 0.000000e+00 0.000000e+00 0.000000e+00 0.000000e+00
-1.732421e+05 3.894858e+04 0.000000e+00 3.894858e+04 -2.625872e+05 0.000000e+00 0.000000e+00 0.000000e+00 0.000000e+00
-1.813980e+05 4.236223e+04 0.000000e+00 4.236223e+04 -2.829434e+05 0.000000e+00 0.000000e+00 0.000000e+00 0.000000e+00
-1.906482e+05 3.577813e+04 0.000000e+00 3.577813e+04 -2.961785e+05 0.000000e+00 0.000000e+00 0.000000e+00 0.000000e+00
-1.970520e+05 2.026403e+04 0.000000e+00 2.026403e+04 -3.065200e+05 0.000000e+00 0.000000e+00 0.000000e+00 0.000000e+00
-2.202768e+05 -3.006441e+03 0.000000e+00 -3.006441e+03 -3.698402e+05 0.000000e+00 0.000000e+00 0.000000e+00 0.000000e+00
-1.242878e+05 3.411791e+04 0.000000e+00 3.411791e+04 -1.471691e+05 0.000000e+00 0.000000e+00 0.000000e+00 0.000000e+00
-1.094009e+05 3.091366e+04 0.000000e+00 3.091366e+04 -1.365688e+05 0.000000e+00 0.000000e+00 0.000000e+00 0.000000e+00
-1.124799e+05 3.216412e+04 0.000000e+00 3.216412e+04 -1.377640e+05 0.000000e+00 0.000000e+00 0.000000e+00 0.000000e+00
-1.219117e+05 3.592916e+04 0.000000e+00 3.592916e+04 -1.379588e+05 0.000000e+00 0.000000e+00 0.000000e+00 0.000000e+00
-1.309406e+05 3.817353e+04 0.000000e+00 3.817353e+04 -1.366812e+05 0.000000e+00 0.000000e+00 0.000000e+00 0.000000e+00
-1.369058e+05 3.672480e+04 0.000000e+00 3.672480e+04 -1.315517e+05 0.000000e+00 0.000000e+00 0.000000e+00 0.000000e+00
-1.352225e+05 3.266900e+04 0.000000e+00 3.266900e+04 -1.234820e+05 0.000000e+00 0.000000e+00 0.000000e+00 0.000000e+00
-1.233999e+05 2.709630e+04 0.000000e+00 2.709630e+04 -1.090328e+05 0.000000e+00 0.000000e+00 0.000000e+00 0.000000e+00
-1.104626e+05 1.916951e+04 0.000000e+00 1.916951e+04 -9.385477e+04 0.000000e+00 0.000000e+00 0.000000e+00 0.000000e+00
-8.445659e+04 9.167131e+03 0.000000e+00 9.167131e+03 -7.980630e+04 0.000000e+00 0.000000e+00 0.000000e+00 0.000000e+00
-4.528457e+04 3.868373e+03 0.000000e+00 3.868373e+03 -5.809168e+04 0.000000e+00 0.000000e+00 0.000000e+00 0.000000e+00
-1.166816e+05 3.291127e+04 0.000000e+00 3.291127e+04 -1.195829e+05 0.000000e+00 0.000000e+00 0.000000e+00 0.000000e+00
-1.103866e+05 3.138421e+04 0.000000e+00 3.138421e+04 -1.156147e+05 0.000000e+00 0.000000e+00 0.000000e+00 0.000000e+00
-1.185048e+05 3.355407e+04 0.000000e+00 3.355407e+04 -1.184776e+05 0.000000e+00 0.000000e+00 0.000000e+00 0.000000e+00
-1.311610e+05 3.590779e+04 0.000000e+00 3.590779e+04 -1.177497e+05 0.000000e+00 0.000000e+00 0.000000e+00 0.000000e+00
-1.407756e+05 3.552338e+04 0.000000e+00 3.552338e+04 -1.117764e+05 0.000000e+00 0.000000e+00 0.000000e+00 0.000000e+00
-1.466654e+05 3.147087e+04 0.000000e+00 3.147087e+04 -1.032853e+05 0.000000e+00 0.000000e+00 0.000000e+00 0.000000e+00
-1.456107e+05 2.514232e+04 0.000000e+00 2.514232e+04 -9.374094e+04 0.000000e+00 0.000000e+00 0.000000e+00 0.000000e+00
-1.386648e+05 1.842794e+04 0.000000e+00 1.842794e+04 -8.380506e+04 0.000000e+00 0.000000e+00 0.000000e+00 0.000000e+00
-1.267901e+05 1.020857e+04 0.000000e+00 1.020857e+04 -7.495279e+04 0.000000e+00 0.000000e+00 0.000000e+00 0.000000e+00
-9.567936e+04 1.248845e+03 0.000000e+00 1.248845e+03 -6.820244e+04 0.000000e+00 0.000000e+00 0.000000e+00 0.000000e+00
-5.049931e+04 -1.436794e+03 0.000000e+00 -1.436794e+03 -5.331244e+04 0.000000e+00 0.000000e+00 0.000000e+00 0.000000e+00
-1.105647e+05 3.205742e+04 0.000000e+00 3.205742e+04 -1.046309e+05 0.000000e+00 0.000000e+00 0.000000e+00 0.000000e+00
-1.108355e+05 3.197854e+04 0.000000e+00 3.197854e+04 -1.042084e+05 0.000000e+00 0.000000e+00 0.000000e+00 0.000000e+00
-1.197983e+05 3.257972e+04 0.000000e+00 3.257972e+04 -1.042185e+05 0.000000e+00 0.000000e+00 0.000000e+00 0.000000e+00
-1.303594e+05 3.068888e+04 0.000000e+00 3.068888e+04 -9.927888e+04 0.000000e+00 0.000000e+00 0.000000e+00 0.000000e+00
-1.370349e+05 2.737592e+04 0.000000e+00 2.737592e+04 -9.302470e+04 0.000000e+00 0.000000e+00 0.000000e+00 0.000000e+00
-1.402099e+05 2.226344e+04 0.000000e+00 2.226344e+04 -8.645019e+04 0.000000e+00 0.000000e+00 0.000000e+00 0.000000e+00
-1.387268e+05 1.601144e+04 0.000000e+00 1.601144e+04 -7.947859e+04 0.000000e+00 0.000000e+00 0.000000e+00 0.000000e+00
-1.312056e+05 9.035632e+03 0.000000e+00 9.035632e+03 -7.234885e+04 0.000000e+00 0.000000e+00 0.000000e+00 0.000000e+00
-1.171096e+05 1.439752e+03 0.000000e+00 1.439752e+03 -6.634868e+04 0.000000e+00 0.000000e+00 0.000000e+00 0.000000e+00
-9.004608e+04 -4.032573e+03 0.000000e+00 -4.032573e+03 -6.217628e+04 0.000000e+00 0.000000e+00 0.000000e+00 0.000000e+00
-5.592093e+04 -4.644817e+03 0.000000e+00 -4.644817e+03 -5.436375e+04 0.000000e+00 0.000000e+00 0.000000e+00 0.000000e+00
-1.033223e+05 3.057420e+04 0.000000e+00 3.057420e+04 -9.224641e+04 0.000000e+00 0.000000e+00 0.000000e+00 0.000000e+00
-1.092894e+05 3.072188e+04 0.000000e+00 3.072188e+04 -9.423907e+04 0.000000e+00 0.000000e+00 0.000000e+00 0.000000e+00
-1.178621e+05 2.822236e+04 0.000000e+00 2.822236e+04 -9.124224e+04 0.000000e+00 0.000000e+00 0.000000e+00 0.000000e+00
-1.274620e+05 2.505303e+04 0.000000e+00 2.505303e+04 -8.636609e+04 0.000000e+00 0.000000e+00 0.000000e+00 0.000000e+00
-1.325255e+05 2.090688e+04 0.000000e+00 2.090688e+04 -8.142467e+04 0.000000e+00 0.000000e+00 0.000000e+00 0.000000e+00
-1.342070e+05 1.557161e+04 0.000000e+00 1.557161e+04 -7.609322e+04 0.000000e+00 0.000000e+00 0.000000e+00 0.000000e+00
-1.316714e+05 9.328645e+03 0.000000e+00 9.328645e+03 -7.079699e+04 0.000000e+00 0.000000e+00 0.000000e+00 0.000000e+00
-1.233792e+05 2.542442e+03 0.000000e+00 2.542442e+03 -6.592038e+04 0.000000e+00 0.000000e+00 0.000000e+00 0.000000e+00
-1.100169e+05 -3.415379e+03 0.000000e+00 -3.415379e+03 -6.257747e+04 0.000000e+00 0.000000e+00 0.000000e+00 0.000000e+00
-8.862033e+04 -5.448118e+03 0.000000e+00 -5.448118e+03 -6.040669e+04 0.000000e+00 0.000000e+00 0.000000e+00 0.000000e+00
-6.486343e+04 -4.528731e+03 0.000000e+00 -4.528731e+03 -5.598048e+04 0.000000e+00 0.000000e+00 0.000000e+00 0.000000e+00
-9.414080e+04 2.795713e+04 0.000000e+00 2.795713e+04 -8.157230e+04 0.000000e+00 0.000000e+00 0.000000e+00 0.000000e+00
-1.050690e+05 2.804162e+04 0.000000e+00 2.804162e+04 -8.539891e+04 0.000000e+00 0.000000e+00 0.000000e+00 0.000000e+00
-1.151089e+05 2.385016e+04 0.000000e+00 2.385016e+04 -8.144080e+04 0.000000e+00 0.000000e+00 0.000000e+00 0.000000e+00
-1.234319e+05 2.027855e+04 0.000000e+00 2.027855e+04 -7.755955e+04 0.000000e+00 0.000000e+00 0.000000e+00 0.000000e+00
-1.273093e+05 1.567107e+04 0.000000e+00 1.567107e+04 -7.343266e+04 0.000000e+00 0.000000e+00 0.000000e+00 0.000000e+00
-1.281180e+05 1.036266e+04 0.000000e+00 1.036266e+04 -6.921282e+04 0.000000e+00 0.000000e+00 0.000000e+00 0.000000e+00
-1.246984e+05 4.428078e+03 0.000000e+00 4.428078e+03 -6.530063e+04 0.000000e+00 0.000000e+00 0.000000e+00 0.000000e+00
-1.166816e+05 -1.349047e+03 0.000000e+00 -1.349047e+03 -6.231916e+04 0.000000e+00 0.000000e+00 0.000000e+00 0.000000e+00
-1.056334e+05 -5.437727e+03 0.000000e+00 -5.437727e+03 -6.061236e+04 0.000000e+00 0.000000e+00 0.000000e+00 0.000000e+00
-9.032065e+04 -5.625104e+03 0.000000e+00 -5.625104e+03 -5.972312e+04 0.000000e+00 0.000000e+00 0.000000e+00 0.000000e+00
-7.434582e+04 -4.230527e+03 0.000000e+00 -4.230527e+03 -5.666430e+04 0.000000e+00 0.000000e+00 0.000000e+00 0.000000e+00
-8.544946e+04 2.425594e+04 0.000000e+00 2.425594e+04 -7.420698e+04 0.000000e+00 0.000000e+00 0.000000e+00 0.000000e+00
-1.001239e+05 2.461744e+04 0.000000e+00 2.461744e+04 -7.848109e+04 0.000000e+00 0.000000e+00 0.000000e+00 0.000000e+00
-1.116608e+05 2.031427e+04 0.000000e+00 2.031427e+04 -7.457444e+04 0.000000e+00 0.000000e+00 0.000000e+00 0.000000e+00
-1.187321e+05 1.628359e+04 0.000000e+00 1.628359e+04 -7.120117e+04 0.000000e+00 0.000000e+00 0.000000e+00 0.000000e+00
-1.220763e+05 1.156480e+04 0.000000e+00 1.156480e+04 -6.793467e+04 0.000000e+00 0.000000e+00 0.000000e+00 0.000000e+00
-1.221879e+05 6.417270e+03 0.000000e+00 6.417270e+03 -6.472227e+04 0.000000e+00 0.000000e+00 0.000000e+00 0.000000e+00
-1.185659e+05 1.153205e+03 0.000000e+00 1.153205e+03 -6.204195e+04 0.000000e+00 0.000000e+00 0.000000e+00 0.000000e+00
-1.116054e+05 -3.389343e+03 0.000000e+00 -3.389343e+03 -6.029348e+04 0.000000e+00 0.000000e+00 0.000000e+00 0.000000e+00
-1.033030e+05 -6.018948e+03 0.000000e+00 -6.018948e+03 -5.955143e+04 0.000000e+00 0.000000e+00 0.000000e+00 0.000000e+00
-9.314134e+04 -5.272217e+03 0.000000e+00 -5.272217e+03 -5.936536e+04 0.000000e+00 0.000000e+00 0.000000e+00 0.000000e+00
-8.304766e+04 -3.572559e+03 0.000000e+00 -3.572559e+03 -5.738594e+04 0.000000e+00 0.000000e+00 0.000000e+00 0.000000e+00
-7.869362e+04 2.111900e+04 0.000000e+00 2.111900e+04 -6.871896e+04 0.000000e+00 0.000000e+00 0.000000e+00 0.000000e+00
-9.573610e+04 2.134152e+04 0.000000e+00 2.134152e+04 -7.284502e+04 0.000000e+00 0.000000e+00 0.000000e+00 0.000000e+00
-1.077662e+05 1.728193e+04 0.000000e+00 1.728193e+04 -6.964296e+04 0.000000e+00 0.000000e+00 0.000000e+00 0.000000e+00
-1.140687e+05 1.303187e+04 0.000000e+00 1.303187e+04 -6.674209e+04 0.000000e+00 0.000000e+00 0.000000e+00 0.000000e+00
-1.169153e+05 8.394760e+03 0.000000e+00 8.394760e+03 -6.414039e+04 0.000000e+00 0.000000e+00 0.000000e+00 0.000000e+00
-1.167015e+05 3.595478e+03 0.000000e+00 3.595478e+03 -6.185514e+04 0.000000e+00 0.000000e+00 0.000000e+00 0.000000e+00
-1.134632e+05 -9.156306e+02 0.000000e+00 -9.156306e+02 -6.011083e+04 0.000000e+00 0.000000e+00 0.000000e+00 0.000000e+00
-1.080355e+05 -4.339038e+03 0.000000e+00 -4.339038e+03 -5.915574e+04 0.000000e+00 0.000000e+00 0.000000e+00 0.000000e+00
-1.023548e+05 -5.875497e+03 0.000000e+00 -5.875497e+03 -5.891522e+04 0.000000e+00 0.000000e+00 0.000000e+00 0.000000e+00
-9.638459e+04 -4.620710e+03 0.000000e+00 -4.620710e+03 -5.914017e+04 0.000000e+00 0.000000e+00 0.000000e+00 0.000000e+00
-9.067215e+04 -2.838538e+03 0.000000e+00 -2.838538e+03 -5.812397e+04 0.000000e+00 0.000000e+00 0.000000e+00 0.000000e+00
-7.467416e+04 1.904500e+04 0.000000e+00 1.904500e+04 -6.509178e+04 0.000000e+00 0.000000e+00 0.000000e+00 0.000000e+00
-9.195084e+04 1.884567e+04 0.000000e+00 1.884567e+04 -6.879562e+04 0.000000e+00 0.000000e+00 0.000000e+00 0.000000e+00
-1.034139e+05 1.468483e+04 0.000000e+00 1.468483e+04 -6.589430e+04 0.000000e+00 0.000000e+00 0.000000e+00 0.000000e+00
-1.093290e+05 1.042032e+04 0.000000e+00 1.042032e+04 -6.354004e+04 0.000000e+00 0.000000e+00 0.000000e+00 0.000000e+00
-1.119831e+05 6.004397e+03 0.000000e+00 6.004397e+03 -6.148841e+04 0.000000e+00 0.000000e+00 0.000000e+00 0.000000e+00
-1.118316e+05 1.668586e+03 0.000000e+00 1.668586e+03 -5.991734e+04 0.000000e+00 0.000000e+00 0.000000e+00 0.000000e+00
-1.093207e+05 -2.097427e+03 0.000000e+00 -2.097427e+03 -5.889389e+04 0.000000e+00 0.000000e+00 0.000000e+00 0.000000e+00
-1.056806e+05 -4.616376e+03 0.000000e+00 -4.616376e+03 -5.850391e+04 0.000000e+00 0.000000e+00 0.000000e+00 0.000000e+00
-1.023359e+05 -5.337966e+03 0.000000e+00 -5.337966e+03 -5.860280e+04 0.000000e+00 0.000000e+00 0.000000e+00 0.000000e+00
-9.960102e+04 -3.822918e+03 0.000000e+00 -3.822918e+03 -5.908205e+04 0.000000e+00 0.000000e+00 0.000000e+00 0.000000e+00
-9.714639e+04 -2.067706e+03 0.000000e+00 -2.067706e+03 -5.879043e+04 0.000000e+00 0.000000e+00 0.000000e+00 0.000000e+00
-7.225211e+04 1.711588e+04 0.000000e+00 1.711588e+04 -6.267856e+04 0.000000e+00 0.000000e+00 0.000000e+00 0.000000e+00
-8.811767e+04 1.648645e+04 0.000000e+00 1.648645e+04 -6.583407e+04 0.000000e+00 0.000000e+00 0.000000e+00 0.000000e+00
-9.898553e+04 1.238904e+04 0.000000e+00 1.238904e+04 -6.327354e+04 0.000000e+00 0.000000e+00 0.000000e+00 0.000000e+00
-1.046710e+05 8.342478e+03 0.000000e+00 8.342478e+03 -6.141946e+04 0.000000e+00 0.000000e+00 0.000000e+00 0.000000e+00
-1.073432e+05 4.256747e+03 0.000000e+00 4.256747e+03 -5.981575e+04 0.000000e+00 0.000000e+00 0.000000e+00 0.000000e+00
-1.075884e+05 4.239243e+02 0.000000e+00 4.239243e+02 -5.870529e+04 0.000000e+00 0.000000e+00 0.000000e+00 0.000000e+00
-1.062014e+05 -2.633467e+03 0.000000e+00 -2.633467e+03 -5.817429e+04 0.000000e+00 0.000000e+00 0.000000e+00 0.000000e+00
-1.042532e+05 -4.398229e+03 0.000000e+00 -4.398229e+03 -5.816252e+04 0.000000e+00 0.000000e+00 0.000000e+00 0.000000e+00
-1.028883e+05 -4.553104e+03 0.000000e+00 -4.553104e+03 -5.861183e+04 0.000000e+00 0.000000e+00 0.000000e+00 0.000000e+00
-1.024264e+05 -3.002188e+03 0.000000e+00 -3.002188e+03 -5.923642e+04 0.000000e+00 0.000000e+00 0.000000e+00 0.000000e+00
-1.021071e+05 -1.389879e+03 0.000000e+00 -1.389879e+03 -5.943505e+04 0.000000e+00 0.000000e+00 0.000000e+00 0.000000e+00
-7.005697e+04 1.501723e+04 0.000000e+00 1.501723e+04 -6.173424e+04 0.000000e+00 0.000000e+00 0.000000e+00 0.000000e+00
-8.417184e+04 1.418886e+04 0.000000e+00 1.418886e+04 -6.395274e+04 0.000000e+00 0.000000e+00 0.000000e+00 0.000000e+00
-9.480091e+04 1.036345e+04 0.000000e+00 1.036345e+04 -6.153164e+04 0.000000e+00 0.000000e+00 0.000000e+00 0.000000e+00
-1.003486e+05 6.642161e+03 0.000000e+00 6.642161e+03 -5.994678e+04 0.000000e+00 0.000000e+00 0.000000e+00 0.000000e+00
-1.030974e+05 2.960752e+03 0.000000e+00 2.960752e+03 -5.868071e+04 0.000000e+00 0.000000e+00 0.000000e+00 0.000000e+00
-1.040133e+05 -2.836913e+02 0.000000e+00 -2.836913e+02 -5.792713e+04 0.000000e+00 0.000000e+00 0.000000e+00 0.000000e+00
-1.038847e+05 -2.690170e+03 0.000000e+00 -2.690170e+03 -5.774005e+04 0.000000e+00 0.000000e+00 0.000000e+00 0.000000e+00
-1.035077e+05 -3.849436e+03 0.000000e+00 -3.849436e+03 -5.805282e+04 0.000000e+00 0.000000e+00 0.000000e+00 0.000000e+00
-1.037513e+05 -3.670672e+03 0.000000e+00 -3.670672e+03 -5.872722e+04 0.000000e+00 0.000000e+00 0.000000e+00 0.000000e+00
-1.047665e+05 -2.273306e+03 0.000000e+00 -2.273306e+03 -5.941776e+04 0.000000e+00 0.000000e+00 0.000000e+00 0.000000e+00
-1.058420e+05 -9.601268e+02 0.000000e+00 -9.601268e+02 -5.993627e+04 0.000000e+00 0.000000e+00 0.000000e+00 0.000000e+00
-6.827985e+04 1.236430e+04 0.000000e+00 1.236430e+04 -6.183085e+04 0.000000e+00 0.000000e+00 0.000000e+00 0.000000e+00
-8.062903e+04 1.146266e+04 0.000000e+00 1.146266e+04 -6.294710e+04 0.000000e+00 0.000000e+00 0.000000e+00 0.000000e+00
-9.105116e+04 8.327787e+03 0.000000e+00 8.327787e+03 -6.048582e+04 0.000000e+00 0.000000e+00 0.000000e+00 0.000000e+00
-9.658847e+04 5.109728e+03 0.000000e+00 5.109728e+03 -5.882820e+04 0.000000e+00 0.000000e+00 0.000000e+00 0.000000e+00
-9.956527e+04 2.030022e+03 0.000000e+00 2.030022e+03 -5.781565e+04 0.000000e+00 0.000000e+00 0.000000e+00 0.000000e+00
-1.011273e+05 -5.600602e+02 0.000000e+00 -5.600602e+02 -5.741873e+04 0.000000e+00 0.000000e+00 0.000000e+00 0.000000e+00
-1.020981e+05 -2.336054e+03 0.000000e+00 -2.336054e+03 -5.755662e+04 0.000000e+00 0.000000e+00 0.000000e+00 0.000000e+00
-1.031063e+05 -3.078193e+03 0.000000e+00 -3.078193e+03 -5.808754e+04 0.000000e+00 0.000000e+00 0.000000e+00 0.000000e+00
-1.046602e+05 -2.772153e+03 0.000000e+00 -2.772153e+03 -5.881874e+04 0.000000e+00 0.000000e+00 0.000000e+00 0.000000e+00
-1.067729e+05 -1.613815e+03 0.000000e+00 -1.613815e+03 -5.950390e+04 0.000000e+00 0.000000e+00 0.000000e+00 0.000000e+00
-1.088125e+05 -6.269907e+02 0.000000e+00 -6.269907e+02 -6.022741e+04 0.000000e+00 0.000000e+00 0.000000e+00 0.000000e+00
-6.757766e+04 9.157428e+03 0.000000e+00 9.157428e+03 -6.278252e+04 0.000000e+00 0.000000e+00 0.000000e+00 0.000000e+00
-7.812326e+04 8.326491e+03 0.000000e+00 8.326491e+03 -6.274859e+04 0.000000e+00 0.000000e+00 0.000000e+00 0.000000e+00
-8.794305e+04 6.026726e+03 0.000000e+00 6.026726e+03 -6.008804e+04 0.000000e+00 0.000000e+00 0.000000e+00 0.000000e+00
-9.350309e+04 3.571560e+03 0.000000e+00 3.571560e+03 -5.818129e+04 0.000000e+00 0.000000e+00 0.000000e+00 0.000000e+00
-9.685198e+04 1.329502e+03 0.000000e+00 1.329502e+03 -5.715868e+04 0.000000e+00 0.000000e+00 0.000000e+00 0.000000e+00
-9.903988e+04 -4.876003e+02 0.000000e+00 -4.876003e+02 -5.697426e+04 0.000000e+00 0.000000e+00 0.000000e+00 0.000000e+00
-1.008847e+05 -1.687627e+03 0.000000e+00 -1.687627e+03 -5.736615e+04 0.000000e+00 0.000000e+00 0.000000e+00 0.000000e+00
-1.029074e+05 -2.157647e+03 0.000000e+00 -2.157647e+03 -5.810021e+04 0.000000e+00 0.000000e+00 0.000000e+00 0.000000e+00
-1.054720e+05 -1.878476e+03 0.000000e+00 -1.878476e+03 -5.888754e+04 0.000000e+00 0.000000e+00 0.000000e+00 0.000000e+00
-1.082044e+05 -1.016013e+03 0.000000e+00 -1.016013e+03 -5.957386e+04 0.000000e+00 0.000000e+00 0.000000e+00 0.000000e+00
-1.107491e+05 -3.421084e+02 0.000000e+00 -3.421084e+02 -6.044402e+04 0.000000e+00 0.000000e+00 0.000000e+00 0.000000e+00
-6.710056e+04 4.928268e+03 0.000000e+00 4.928268e+03 -6.409094e+04 0.000000e+00 0.000000e+00 0.000000e+00 0.000000e+00
-7.644172e+04 4.428554e+03 0.000000e+00 4.428554e+03 -6.324613e+04 0.000000e+00 0.000000e+00 0.000000e+00 0.000000e+00
-8.582538e+04 3.163224e+03 0.000000e+00 3.163224e+03 -6.009879e+04 0.000000e+00 0.000000e+00 0.000000e+00 0.000000e+00
-9.143795e+04 1.821716e+03 0.000000e+00 1.821716e+03 -5.801110e+04 0.000000e+00 0.000000e+00 0.000000e+00 0.000000e+00
-9.514316e+04 6.689396e+02 0.000000e+00 6.689396e+02 -5.693518e+04 0.000000e+00 0.000000e+00 0.000000e+00 0.000000e+00
-9.777777e+04 -2.497745e+02 0.000000e+00 -2.497745e+02 -5.677160e+04 0.000000e+00 0.000000e+00 0.000000e+00 0.000000e+00
-1.001856e+05 -8.791315e+02 0.000000e+00 -8.791315e+02 -5.726195e+04 0.000000e+00 0.000000e+00 0.000000e+00 0.000000e+00
-1.028432e+05 -1.132843e+03 0.000000e+00 -1.132843e+03 -5.812110e+04 0.000000e+00 0.000000e+00 0.000000e+00 0.000000e+00
-1.060134e+05 -9.533810e+02 0.000000e+00 -9.533810e+02 -5.898987e+04 0.000000e+00 0.000000e+00 0.000000e+00 0.000000e+00
-1.090530e+05 -4.812731e+02 0.000000e+00 -4.812731e+02 -5.965934e+04 0.000000e+00 0.000000e+00 0.000000e+00 0.000000e+00
-1.118131e+05 -1.181788e+02 0.000000e+00 -1.181788e+02 -6.058811e+04 0.000000e+00 0.000000e+00 0.000000e+00 0.000000e+00
-6.684526e+04 1.481623e+03 0.000000e+00 1.481623e+03 -6.441832e+04 0.000000e+00 0.000000e+00 0.000000e+00 0.000000e+00
-7.584335e+04 1.317933e+03 0.000000e+00 1.317933e+03 -6.339875e+04 0.000000e+00 0.000000e+00 0.000000e+00 0.000000e+00
-8.509691e+04 8.254429e+02 0.000000e+00 8.254429e+02 -6.015136e+04 0.000000e+00 0.000000e+00 0.000000e+00 0.000000e+00
-9.076783e+04 3.306408e+02 0.000000e+00 3.306408e+02 -5.805616e+04 0.000000e+00 0.000000e+00 0.000000e+00 0.000000e+00
-9.462554e+04 -6.681863e+01 0.000000e+00 -6.681863e+01 -5.695460e+04 0.000000e+00 0.000000e+00 0.000000e+00 0.000000e+00
-9.736804e+04 -4.204135e+02 0.000000e+00 -4.204135e+02 -5.674615e+04 0.000000e+00 0.000000e+00 0.000000e+00 0.000000e+00
-9.995892e+04 -6.847986e+02 0.000000e+00 -6.847986e+02 -5.724673e+04 0.000000e+00 0.000000e+00 0.000000e+00 0.000000e+00
-1.028673e+05 -7.918499e+02 0.000000e+00 -7.918499e+02 -5.815130e+04 0.000000e+00 0.000000e+00 0.000000e+00 0.000000e+00
-1.062613e+05 -6.801796e+02 0.000000e+00 -6.801796e+02 -5.906893e+04 0.000000e+00 0.000000e+00 0.000000e+00 0.000000e+00
-1.093842e+05 -4.544656e+02 0.000000e+00 -4.544656e+02 -5.973405e+04 0.000000e+00 0.000000e+00 0.000000e+00 0.000000e+00
-1.121781e+05 -2.710227e+02 0.000000e+00 -2.710227e+02 -6.067385e+04 0.000000e+00 0.000000e+00 0.000000e+00 0.000000e+00
</DataArray>
<DataArray Name="vol_eps" type="Float64" NumberOfComponents="1" format="ascii">
-1.493170e-02
-1.260366e-02
-9.348394e-03
-7.672351e-03
-7.467162e-03
-8.006114e-03
-8.493305e-03
-1.077937e-02
-1.606825e-02
-2.107872e-02
-2.107283e-02
-1.475824e-02
-1.166414e-02
-9.025580e-03
-7.698863e-03
-7.428794e-03
-7.876405e-03
-8.255729e-03
-9.817116e-03
-1.311360e-02
-1.636888e-02
-2.348905e-02
-1.229308e-02
-8.596417e-03
-7.346982e-03
-7.330283e-03
-8.172700e-03
-9.079752e-03
-9.672841e-03
-1.024591e-02
-1.056199e-02
-1.112799e-02
-1.578680e-02
-7.688981e-03
-5.331838e-03
-5.208280e-03
-5.532670e-03
-5.595982e-03
-4.674539e-03
-2.657361e-03
5.035655e-04
4.640247e-03
9.674246e-03
1.615717e-02
-4.849473e-03
-4.310034e-03
-5.563839e-03
-6.696246e-03
-7.097137e-03
-7.061740e-03
-6.553654e-03
-5.680572e-03
-4.735975e-03
-2.626633e-03
1.551853e-03
-2.985068e-03
-3.532720e-03
-5.083721e-03
-5.821614e-03
-5.908850e-03
-5.680361e-03
-5.202855e-03
-4.515076e-03
-3.670568e-03
-1.953227e-03
8.329754e-04
-1.489369e-03
-2.912471e-03
-4.416094e-03
-4.941180e-03
-4.877632e-03
-4.548700e-03
-4.138656e-03
-3.614065e-03
-3.008242e-03
-1.782566e-03
1.144730e-05
-4.269089e-04
-2.407686e-03
-3.833306e-03
-4.157906e-03
-4.009312e-03
-3.735947e-03
-3.394136e-03
-2.984526e-03
-2.600795e-03
-1.859006e-03
-6.712871e-04
3.642948e-05
-2.074141e-03
-3.298499e-03
-3.499551e-03
-3.416434e-03
-3.190398e-03
-2.887643e-03
-2.576908e-03
-2.379789e-03
-2.020436e-03
-1.295708e-03
2.083837e-04
-1.853387e-03
-2.875820e-03
-3.046011e-03
-3.005759e-03
-2.811746e-03
-2.554880e-03
-2.340659e-03
-2.284942e-03
-2.196301e-03
-1.835083e-03
1.202654e-04
-1.733768e-03
-2.532994e-03
-2.704470e-03
-2.695830e-03
-2.549087e-03
-2.348440e-03
-2.223595e-03
-2.269287e-03
-2.352036e-03
-2.247887e-03
-9.808008e-05
-1.634891e-03
-2.263677e-03
-2.441459e-03
-2.461794e-03
-2.370410e-03
-2.246776e-03
-2.195057e-03
-2.301543e-03
-2.466560e-03
-2.516188e-03
-3.255439e-04
-1.531994e-03
-2.054117e-03
-2.242062e-03
-2.278942e-03
-2.238442e-03
-2.195367e-03
-2.221949e-03
-2.360391e-03
-2.538644e-03
-2.663726e-03
-4.794027e-04
-1.413252e-03
-1.893318e-03
-2.074570e-03
-2.127229e-03
-2.130087e-03
-2.157773e-03
-2.253199e-03
-2.415208e-03
-2.582235e-03
-2.739170e-03
-5.958502e-04
-1.308120e-03
-1.756418e-03
-1.933365e-03
-2.001976e-03
-2.044072e-03
-2.125568e-03
-2.270782e-03
-2.456745e-03
-2.602241e-03
-2.767365e-03
-6.977206e-04
-1.247385e-03
-1.645014e-03
-1.834537e-03
-1.924871e-03
-1.996435e-03
-2.110427e-03
-2.285103e-03
-2.483244e-03
-2.609639e-03
-2.773893e-03
-7.170363e-04
-1.221066e-03
-1.608561e-03
-1.815242e-03
-1.914720e-03
-1.988187e-03
-2.111369e-03
-2.299744e-03
-2.504885e-03
-2.622436e-03
-2.783201e-03
</DataArray>
</PointData>
</Piece>
</UnstructuredGrid>
</VTKFile>
