<?xml version="1.0"?>
<VTKFile type="UnstructuredGrid" version="0.1">
<UnstructuredGrid>
<FieldData>
<DataArray Name="TIME" type="Float64" format="ascii" NumberOfTuples="1">
0.000000e+00
</DataArray>
</FieldData>
<FieldData>
<DataArray Name="CYCLE" type="Int32" format="ascii" NumberOfTuples="1">
0
</DataArray>
</FieldData>
<Piece NumberOfPoints="187" NumberOfCells="160">
<Points>
<DataArray NumberOfComponents="3" type="Float64" format="ascii">
0.000000e+00 0.000000e+00 0.000000e+00
0.000000e+00 1.967912e-01 0.000000e+00
0.000000e+00 3.917791e-01 0.000000e+00
0.000000e+00 5.842353e-01 0.000000e+00
0.000000e+00 7.753114e-01 0.000000e+00
0.000000e+00 9.659384e-01 0.000000e+00
0.000000e+00 1.156349e+00 0.000000e+00
0.000000e+00 1.346977e+00 0.000000e+00
0.000000e+00 1.539049e+00 0.000000e+00
0.000000e+00 1.734216e+00 0.000000e+00
0.000000e+00 1.930250e+00 0.000000e+00
2.250000e-01 0.000000e+00 0.000000e+00
2.268903e-01 1.967261e-01 0.000000e+00
2.299812e-01 3.919273e-01 0.000000e+00
2.324971e-01 5.854413e-01 0.000000e+00
2.337185e-01 7.776396e-01 0.000000e+00
2.340491e-01 9.689786e-01 0.000000e+00
2.337877e-01 1.159937e+00 0.000000e+00
2.326780e-01 1.350887e+00 0.000000e+00
2.296696e-01 1.541995e+00 0.000000e+00
2.256301e-01 1.734597e+00 0.000000e+00
2.250000e-01 1.930250e+00 0.000000e+00
4.500000e-01 0.000000e+00 0.000000e+00
4.541267e-01 1.971014e-01 0.000000e+00
4.585316e-01 3.933580e-01 0.000000e+00
4.621908e-01 5.892145e-01 0.000000e+00
4.647468e-01 7.844535e-01 0.000000e+00
4.662947e-01 9.786659e-01 0.000000e+00
4.667956e-01 1.171615e+00 0.000000e+00
4.663061e-01 1.363238e+00 0.000000e+00
4.635301e-01 1.553269e+00 0.000000e+00
4.582902e-01 1.741951e+00 0.000000e+00
4.500000e-01 1.930250e+00 0.000000e+00
6.750000e-01 0.000000e+00 0.000000e+00
6.807127e-01 1.984637e-01 0.000000e+00
6.855013e-01 3.967495e-01 0.000000e+00
6.891406e-01 5.952000e-01 0.000000e+00
6.919923e-01 7.939292e-01 0.000000e+00
6.941231e-01 9.929844e-01 0.000000e+00
6.955251e-01 1.192314e+00 0.000000e+00
6.956360e-01 1.392090e+00 0.000000e+00
6.937879e-01 1.592354e+00 0.000000e+00
6.899971e-01 1.792846e+00 0.000000e+00
6.833420e-01 1.992782e+00 0.000000e+00
9.000000e-01 0.000000e+00 0.000000e+00
9.061571e-01 1.989308e-01 0.000000e+00
9.105495e-01 3.979520e-01 0.000000e+00
9.137085e-01 5.972614e-01 0.000000e+00
9.161829e-01 7.968566e-01 0.000000e+00
9.179617e-01 9.967565e-01 0.000000e+00
9.189247e-01 1.197069e+00 0.000000e+00
9.186196e-01 1.397757e+00 0.000000e+00
9.167731e-01 1.598596e+00 0.000000e+00
9.134247e-01 1.799283e+00 0.000000e+00
9.089729e-01 1.999361e+00 0.000000e+00
1.125000e+00 0.000000e+00 0.000000e+00
1.131162e+00 1.993883e-01 0.000000e+00
1.134932e+00 3.989713e-01 0.000000e+00
1.137708e+00 5.988382e-01 0.000000e+00
1.139836e+00 7.989827e-01 0.000000e+00
1.141250e+00 9.994352e-01 0.000000e+00
1.141856e+00 1.200202e+00 0.000000e+00
1.141410e+00 1.401203e+00 0.000000e+00
1.139812e+00 1.602211e+00 0.000000e+00
1.137289e+00 1.802884e+00 0.000000e+00
1.134568e+00 2.002968e+00 0.000000e+00
1.350000e+00 0.000000e+00 0.000000e+00
1.355760e+00 1.997627e-01 0.000000e+00
1.358970e+00 3.997175e-01 0.000000e+00
1.361395e+00 5.999390e-01 0.000000e+00
1.363185e+00 8.004155e-01 0.000000e+00
1.364319e+00 1.001158e+00 0.000000e+00
1.364722e+00 1.202143e+00 0.000000e+00
1.364290e+00 1.403249e+00 0.000000e+00
1.363068e+00 1.604260e+00 0.000000e+00
1.361385e+00 1.804882e+00 0.000000e+00
1.359811e+00 2.005032e+00 0.000000e+00
1.575000e+00 0.000000e+00 0.000000e+00
1.580075e+00 2.000054e-01 0.000000e+00
1.582837e+00 4.001937e-01 0.000000e+00
1.584911e+00 6.006200e-01 0.000000e+00
1.586435e+00 8.012853e-01 0.000000e+00
1.587360e+00 1.002176e+00 0.000000e+00
1.587661e+00 1.203225e+00 0.000000e+00
1.587337e+00 1.404323e+00 0.000000e+00
1.586525e+00 1.605268e+00 0.000000e+00
1.585537e+00 1.805857e+00 0.000000e+00
1.584742e+00 2.006074e+00 0.000000e+00
1.800000e+00 0.000000e+00 0.000000e+00
1.804246e+00 2.001180e-01 0.000000e+00
1.806625e+00 4.004405e-01 0.000000e+00
1.808402e+00 6.009691e-01 0.000000e+00
1.809693e+00 8.017240e-01 0.000000e+00
1.810462e+00 1.002658e+00 0.000000e+00
1.810733e+00 1.203696e+00 0.000000e+00
1.810567e+00 1.404725e+00 0.000000e+00
1.810133e+00 1.605580e+00 0.000000e+00
1.809662e+00 1.806153e+00 0.000000e+00
1.809391e+00 2.006452e+00 0.000000e+00
2.025000e+00 0.000000e+00 0.000000e+00
2.028401e+00 2.001383e-01 0.000000e+00
2.030422e+00 4.005129e-01 0.000000e+00
2.031939e+00 6.010900e-01 0.000000e+00
2.033021e+00 8.018602e-01 0.000000e+00
2.033681e+00 1.002767e+00 0.000000e+00
2.033963e+00 1.203737e+00 0.000000e+00
2.033969e+00 1.404662e+00 0.000000e+00
2.033830e+00 1.605440e+00 0.000000e+00
2.033716e+00 1.806018e+00 0.000000e+00
2.033776e+00 2.006407e+00 0.000000e+00
2.250000e+00 0.000000e+00 0.000000e+00
2.252611e+00 2.001212e-01 0.000000e+00
2.254297e+00 4.004924e-01 0.000000e+00
2.255567e+00 6.010586e-01 0.000000e+00
2.256471e+00 8.017874e-01 0.000000e+00
2.257054e+00 1.002620e+00 0.000000e+00
2.257369e+00 1.203484e+00 0.000000e+00
2.257511e+00 1.404314e+00 0.000000e+00
2.257572e+00 1.605037e+00 0.000000e+00
2.257677e+00 1.805632e+00 0.000000e+00
2.257922e+00 2.006118e+00 0.000000e+00
2.475000e+00 0.000000e+00 0.000000e+00
2.476919e+00 2.000873e-01 0.000000e+00
2.478281e+00 4.004176e-01 0.000000e+00
2.479321e+00 6.009290e-01 0.000000e+00
2.480077e+00 8.015764e-01 0.000000e+00
2.480597e+00 1.002305e+00 0.000000e+00
2.480930e+00 1.203072e+00 0.000000e+00
2.481151e+00 1.403825e+00 0.000000e+00
2.481329e+00 1.604517e+00 0.000000e+00
2.481547e+00 1.805138e+00 0.000000e+00
2.481872e+00 2.005707e+00 0.000000e+00
2.700000e+00 0.000000e+00 0.000000e+00
2.701341e+00 2.000463e-01 0.000000e+00
2.702394e+00 4.003078e-01 0.000000e+00
2.703221e+00 6.007370e-01 0.000000e+00
2.703843e+00 8.012905e-01 0.000000e+00
2.704296e+00 1.001931e+00 0.000000e+00
2.704615e+00 1.202617e+00 0.000000e+00
2.704858e+00 1.403310e+00 0.000000e+00
2.705080e+00 1.603983e+00 0.000000e+00
2.705336e+00 1.804629e+00 0.000000e+00
2.705668e+00 2.005266e+00 0.000000e+00
2.925000e+00 0.000000e+00 0.000000e+00
2.925886e+00 2.000048e-01 0.000000e+00
2.926644e+00 4.001871e-01 0.000000e+00
2.927265e+00 6.005303e-01 0.000000e+00
2.927750e+00 8.010048e-01 0.000000e+00
2.928115e+00 1.001572e+00 0.000000e+00
2.928387e+00 1.202197e+00 0.000000e+00
2.928609e+00 1.402848e+00 0.000000e+00
2.928822e+00 1.603508e+00 0.000000e+00
2.929062e+00 1.804174e+00 0.000000e+00
2.929349e+00 2.004865e+00 0.000000e+00
3.150000e+00 0.000000e+00 0.000000e+00
3.150537e+00 1.999638e-01 0.000000e+00
3.151021e+00 4.000852e-01 0.000000e+00
3.151433e+00 6.003605e-01 0.000000e+00
3.151767e+00 8.007712e-01 0.000000e+00
3.152025e+00 1.001283e+00 0.000000e+00
3.152222e+00 1.201862e+00 0.000000e+00
3.152390e+00 1.402483e+00 0.000000e+00
3.152555e+00 1.603134e+00 0.000000e+00
3.152737e+00 1.803816e+00 0.000000e+00
3.152945e+00 2.004550e+00 0.000000e+00
3.375000e+00 0.000000e+00 0.000000e+00
3.375254e+00 1.999386e-01 0.000000e+00
3.375487e+00 4.000238e-01 0.000000e+00
3.375693e+00 6.002586e-01 0.000000e+00
3.375861e+00 8.006246e-01 0.000000e+00
3.375995e+00 1.001100e+00 0.000000e+00
3.376099e+00 1.201648e+00 0.000000e+00
3.376189e+00 1.402249e+00 0.000000e+00
3.376279e+00 1.602893e+00 0.000000e+00
3.376377e+00 1.803584e+00 0.000000e+00
3.376486e+00 2.004344e+00 0.000000e+00
3.600000e+00 0.000000e+00 0.000000e+00
3.600000e+00 1.999422e-01 0.000000e+00
3.600000e+00 4.000177e-01 0.000000e+00
3.600000e+00 6.002376e-01 0.000000e+00
3.600000e+00 8.005854e-01 0.000000e+00
3.600000e+00 1.001042e+00 0.000000e+00
3.600000e+00 1.201576e+00 0.000000e+00
3.600000e+00 1.402165e+00 0.000000e+00
3.600000e+00 1.602802e+00 0.000000e+00
3.600000e+00 1.803493e+00 0.000000e+00
3.600000e+00 2.004259e+00 0.000000e+00
</DataArray>
</Points>
<Cells>
<DataArray Name="connectivity" type="Int32" format="ascii">
0 11 12 1
1 12 13 2
2 13 14 3
3 14 15 4
4 15 16 5
5 16 17 6
6 17 18 7
7 18 19 8
8 19 20 9
9 20 21 10
11 22 23 12
12 23 24 13
13 24 25 14
14 25 26 15
15 26 27 16
16 27 28 17
17 28 29 18
18 29 30 19
19 30 31 20
20 31 32 21
22 33 34 23
23 34 35 24
24 35 36 25
25 36 37 26
26 37 38 27
27 38 39 28
28 39 40 29
29 40 41 30
30 41 42 31
31 42 43 32
33 44 45 34
34 45 46 35
35 46 47 36
36 47 48 37
37 48 49 38
38 49 50 39
39 50 51 40
40 51 52 41
41 52 53 42
42 53 54 43
44 55 56 45
45 56 57 46
46 57 58 47
47 58 59 48
48 59 60 49
49 60 61 50
50 61 62 51
51 62 63 52
52 63 64 53
53 64 65 54
55 66 67 56
56 67 68 57
57 68 69 58
58 69 70 59
59 70 71 60
60 71 72 61
61 72 73 62
62 73 74 63
63 74 75 64
64 75 76 65
66 77 78 67
67 78 79 68
68 79 80 69
69 80 81 70
70 81 82 71
71 82 83 72
72 83 84 73
73 84 85 74
74 85 86 75
75 86 87 76
77 88 89 78
78 89 90 79
79 90 91 80
80 91 92 81
81 92 93 82
82 93 94 83
83 94 95 84
84 95 96 85
85 96 97 86
86 97 98 87
88 99 100 89
89 100 101 90
90 101 102 91
91 102 103 92
92 103 104 93
93 104 105 94
94 105 106 95
95 106 107 96
96 107 108 97
97 108 109 98
99 110 111 100
100 111 112 101
101 112 113 102
102 113 114 103
103 114 115 104
104 115 116 105
105 116 117 106
106 117 118 107
107 118 119 108
108 119 120 109
110 121 122 111
111 122 123 112
112 123 124 113
113 124 125 114
114 125 126 115
115 126 127 116
116 127 128 117
117 128 129 118
118 129 130 119
119 130 131 120
121 132 133 122
122 133 134 123
123 134 135 124
124 135 136 125
125 136 137 126
126 137 138 127
127 138 139 128
128 139 140 129
129 140 141 130
130 141 142 131
132 143 144 133
133 144 145 134
134 145 146 135
135 146 147 136
136 147 148 137
137 148 149 138
138 149 150 139
139 150 151 140
140 151 152 141
141 152 153 142
143 154 155 144
144 155 156 145
145 156 157 146
146 157 158 147
147 158 159 148
148 159 160 149
149 160 161 150
150 161 162 151
151 162 163 152
152 163 164 153
154 165 166 155
155 166 167 156
156 167 168 157
157 168 169 158
158 169 170 159
159 170 171 160
160 171 172 161
161 172 173 162
162 173 174 163
163 174 175 164
165 176 177 166
166 177 178 167
167 178 179 168
168 179 180 169
169 180 181 170
170 181 182 171
171 182 183 172
172 183 184 173
173 184 185 174
174 185 186 175
</DataArray>
<DataArray Name="offsets" type="Int32" format="ascii">
4
8
12
16
20
24
28
32
36
40
44
48
52
56
60
64
68
72
76
80
84
88
92
96
100
104
108
112
116
120
124
128
132
136
140
144
148
152
156
160
164
168
172
176
180
184
188
192
196
200
204
208
212
216
220
224
228
232
236
240
244
248
252
256
260
264
268
272
276
280
284
288
292
296
300
304
308
312
316
320
324
328
332
336
340
344
348
352
356
360
364
368
372
376
380
384
388
392
396
400
404
408
412
416
420
424
428
432
436
440
444
448
452
456
460
464
468
472
476
480
484
488
492
496
500
504
508
512
516
520
524
528
532
536
540
544
548
552
556
560
564
568
572
576
580
584
588
592
596
600
604
608
612
616
620
624
628
632
636
640
</DataArray>
<DataArray Name="types" type="UInt8" format="ascii">
9
9
9
9
9
9
9
9
9
9
9
9
9
9
9
9
9
9
9
9
9
9
9
9
9
9
9
9
9
9
9
9
9
9
9
9
9
9
9
9
9
9
9
9
9
9
9
9
9
9
9
9
9
9
9
9
9
9
9
9
9
9
9
9
9
9
9
9
9
9
9
9
9
9
9
9
9
9
9
9
9
9
9
9
9
9
9
9
9
9
9
9
9
9
9
9
9
9
9
9
9
9
9
9
9
9
9
9
9
9
9
9
9
9
9
9
9
9
9
9
9
9
9
9
9
9
9
9
9
9
9
9
9
9
9
9
9
9
9
9
9
9
9
9
9
9
9
9
9
9
9
9
9
9
9
9
9
9
9
9
</DataArray>
</Cells>
<PointData>
<DataArray Name="disp" type="Float64" NumberOfComponents="3" format="ascii">
0.000000e+00 0.000000e+00 0.000000e+00
0.000000e+00 -3.208766e-03 0.000000e+00
0.000000e+00 -8.220942e-03 0.000000e+00
0.000000e+00 -1.576471e-02 0.000000e+00
0.000000e+00 -2.468866e-02 0.000000e+00
0.000000e+00 -3.406161e-02 0.000000e+00
0.000000e+00 -4.365128e-02 0.000000e+00
0.000000e+00 -5.302256e-02 0.000000e+00
0.000000e+00 -6.095077e-02 0.000000e+00
0.000000e+00 -6.578434e-02 0.000000e+00
0.000000e+00 -6.975000e-02 0.000000e+00
0.000000e+00 0.000000e+00 0.000000e+00
1.890287e-03 -3.273930e-03 0.000000e+00
4.981217e-03 -8.072714e-03 0.000000e+00
7.497146e-03 -1.455872e-02 0.000000e+00
8.718463e-03 -2.236038e-02 0.000000e+00
9.049141e-03 -3.102142e-02 0.000000e+00
8.787724e-03 -4.006309e-02 0.000000e+00
7.677977e-03 -4.911271e-02 0.000000e+00
4.669623e-03 -5.800487e-02 0.000000e+00
6.300617e-04 -6.540285e-02 0.000000e+00
0.000000e+00 -6.975000e-02 0.000000e+00
0.000000e+00 0.000000e+00 0.000000e+00
4.126661e-03 -2.898591e-03 0.000000e+00
8.531605e-03 -6.642036e-03 0.000000e+00
1.219079e-02 -1.078550e-02 0.000000e+00
1.474682e-02 -1.554651e-02 0.000000e+00
1.629474e-02 -2.133402e-02 0.000000e+00
1.679557e-02 -2.838464e-02 0.000000e+00
1.630609e-02 -3.676207e-02 0.000000e+00
1.353005e-02 -4.673131e-02 0.000000e+00
8.290239e-03 -5.804913e-02 0.000000e+00
0.000000e+00 -6.975000e-02 0.000000e+00
0.000000e+00 0.000000e+00 0.000000e+00
5.712720e-03 -1.536265e-03 0.000000e+00
1.050132e-02 -3.250487e-03 0.000000e+00
1.414063e-02 -4.799976e-03 0.000000e+00
1.699228e-02 -6.070757e-03 0.000000e+00
1.912316e-02 -7.015598e-03 0.000000e+00
2.052509e-02 -7.685602e-03 0.000000e+00
2.063596e-02 -7.909804e-03 0.000000e+00
1.878791e-02 -7.645989e-03 0.000000e+00
1.499707e-02 -7.154356e-03 0.000000e+00
8.341989e-03 -7.217990e-03 0.000000e+00
0.000000e+00 0.000000e+00 0.000000e+00
6.157097e-03 -1.069178e-03 0.000000e+00
1.054945e-02 -2.048014e-03 0.000000e+00
1.370851e-02 -2.738577e-03 0.000000e+00
1.618288e-02 -3.143406e-03 0.000000e+00
1.796173e-02 -3.243522e-03 0.000000e+00
1.892475e-02 -2.930652e-03 0.000000e+00
1.861962e-02 -2.243104e-03 0.000000e+00
1.677317e-02 -1.403544e-03 0.000000e+00
1.342475e-02 -7.170375e-04 0.000000e+00
8.972860e-03 -6.390097e-04 0.000000e+00
0.000000e+00 0.000000e+00 0.000000e+00
6.162363e-03 -6.117278e-04 0.000000e+00
9.931786e-03 -1.028648e-03 0.000000e+00
1.270760e-02 -1.161791e-03 0.000000e+00
1.483628e-02 -1.017270e-03 0.000000e+00
1.625050e-02 -5.648045e-04 0.000000e+00
1.685577e-02 2.024594e-04 0.000000e+00
1.641017e-02 1.202934e-03 0.000000e+00
1.481148e-02 2.211147e-03 0.000000e+00
1.228895e-02 2.883876e-03 0.000000e+00
9.568499e-03 2.968366e-03 0.000000e+00
0.000000e+00 0.000000e+00 0.000000e+00
5.760168e-03 -2.373444e-04 0.000000e+00
8.969956e-03 -2.825313e-04 0.000000e+00
1.139493e-02 -6.096456e-05 0.000000e+00
1.318513e-02 4.154438e-04 0.000000e+00
1.431901e-02 1.157761e-03 0.000000e+00
1.472210e-02 2.143000e-03 0.000000e+00
1.428969e-02 3.248555e-03 0.000000e+00
1.306820e-02 4.260351e-03 0.000000e+00
1.138468e-02 4.881969e-03 0.000000e+00
9.811445e-03 5.032183e-03 0.000000e+00
0.000000e+00 0.000000e+00 0.000000e+00
5.075442e-03 5.394758e-06 0.000000e+00
7.836816e-03 1.937055e-04 0.000000e+00
9.911425e-03 6.200378e-04 0.000000e+00
1.143516e-02 1.285349e-03 0.000000e+00
1.235966e-02 2.175633e-03 0.000000e+00
1.266069e-02 3.225289e-03 0.000000e+00
1.233655e-02 4.322936e-03 0.000000e+00
1.152537e-02 5.267735e-03 0.000000e+00
1.053664e-02 5.857097e-03 0.000000e+00
9.742376e-03 6.074466e-03 0.000000e+00
0.000000e+00 0.000000e+00 0.000000e+00
4.245707e-03 1.180107e-04 0.000000e+00
6.625293e-03 4.405493e-04 0.000000e+00
8.401539e-03 9.691184e-04 0.000000e+00
9.693456e-03 1.724023e-03 0.000000e+00
1.046227e-02 2.657728e-03 0.000000e+00
1.073348e-02 3.696450e-03 0.000000e+00
1.056653e-02 4.724625e-03 0.000000e+00
1.013250e-02 5.580371e-03 0.000000e+00
9.661745e-03 6.153243e-03 0.000000e+00
9.391538e-03 6.451537e-03 0.000000e+00
0.000000e+00 0.000000e+00 0.000000e+00
3.401354e-03 1.382978e-04 0.000000e+00
5.422482e-03 5.128734e-04 0.000000e+00
6.938914e-03 1.090028e-03 0.000000e+00
8.021364e-03 1.860180e-03 0.000000e+00
8.681409e-03 2.766729e-03 0.000000e+00
8.963469e-03 3.736937e-03 0.000000e+00
8.968689e-03 4.661734e-03 0.000000e+00
8.829815e-03 5.439990e-03 0.000000e+00
8.716058e-03 6.018271e-03 0.000000e+00
8.776047e-03 6.407421e-03 0.000000e+00
0.000000e+00 0.000000e+00 0.000000e+00
2.611131e-03 1.211912e-04 0.000000e+00
4.296839e-03 4.924293e-04 0.000000e+00
5.566908e-03 1.058631e-03 0.000000e+00
6.471254e-03 1.787390e-03 0.000000e+00
7.054030e-03 2.619873e-03 0.000000e+00
7.368837e-03 3.483907e-03 0.000000e+00
7.511045e-03 4.313691e-03 0.000000e+00
7.572278e-03 5.037215e-03 0.000000e+00
7.677299e-03 5.632424e-03 0.000000e+00
7.922346e-03 6.117512e-03 0.000000e+00
0.000000e+00 0.000000e+00 0.000000e+00
1.919330e-03 8.725890e-05 0.000000e+00
3.280517e-03 4.175734e-04 0.000000e+00
4.320729e-03 9.290064e-04 0.000000e+00
5.077162e-03 1.576384e-03 0.000000e+00
5.597389e-03 2.304881e-03 0.000000e+00
5.929918e-03 3.072321e-03 0.000000e+00
6.150718e-03 3.824883e-03 0.000000e+00
6.328625e-03 4.516887e-03 0.000000e+00
6.547043e-03 5.137706e-03 0.000000e+00
6.872167e-03 5.706565e-03 0.000000e+00
0.000000e+00 0.000000e+00 0.000000e+00
1.341498e-03 4.633989e-05 0.000000e+00
2.393585e-03 3.077985e-04 0.000000e+00
3.220739e-03 7.370331e-04 0.000000e+00
3.843387e-03 1.290484e-03 0.000000e+00
4.295840e-03 1.930847e-03 0.000000e+00
4.614613e-03 2.616930e-03 0.000000e+00
4.857800e-03 3.309917e-03 0.000000e+00
5.080014e-03 3.983024e-03 0.000000e+00
5.336327e-03 4.629147e-03 0.000000e+00
5.668003e-03 5.266418e-03 0.000000e+00
0.000000e+00 0.000000e+00 0.000000e+00
8.858059e-04 4.804554e-06 0.000000e+00
1.643653e-03 1.870721e-04 0.000000e+00
2.265093e-03 5.303399e-04 0.000000e+00
2.749793e-03 1.004776e-03 0.000000e+00
3.114626e-03 1.571995e-03 0.000000e+00
3.386656e-03 2.196622e-03 0.000000e+00
3.609381e-03 2.848099e-03 0.000000e+00
3.822366e-03 3.507838e-03 0.000000e+00
4.061649e-03 4.174441e-03 0.000000e+00
4.349070e-03 4.865270e-03 0.000000e+00
0.000000e+00 0.000000e+00 0.000000e+00
5.365131e-04 -3.622634e-05 0.000000e+00
1.020705e-03 8.524768e-05 0.000000e+00
1.433224e-03 3.604759e-04 0.000000e+00
1.766667e-03 7.712189e-04 0.000000e+00
2.024448e-03 1.283076e-03 0.000000e+00
2.221691e-03 1.861980e-03 0.000000e+00
2.389560e-03 2.483414e-03 0.000000e+00
2.554604e-03 3.134217e-03 0.000000e+00
2.737165e-03 3.816389e-03 0.000000e+00
2.945162e-03 4.549434e-03 0.000000e+00
0.000000e+00 0.000000e+00 0.000000e+00
2.540055e-04 -6.142388e-05 0.000000e+00
4.866036e-04 2.386178e-05 0.000000e+00
6.928737e-04 2.586627e-04 0.000000e+00
8.610773e-04 6.246291e-04 0.000000e+00
9.952585e-04 1.099748e-03 0.000000e+00
1.098985e-03 1.648457e-03 0.000000e+00
1.188938e-03 2.249342e-03 0.000000e+00
1.278643e-03 2.892886e-03 0.000000e+00
1.376972e-03 3.584488e-03 0.000000e+00
1.485730e-03 4.343656e-03 0.000000e+00
0.000000e+00 0.000000e+00 0.000000e+00
0.000000e+00 -5.783025e-05 0.000000e+00
0.000000e+00 1.768954e-05 0.000000e+00
0.000000e+00 2.375839e-04 0.000000e+00
0.000000e+00 5.854103e-04 0.000000e+00
0.000000e+00 1.041770e-03 0.000000e+00
0.000000e+00 1.576023e-03 0.000000e+00
0.000000e+00 2.164702e-03 0.000000e+00
0.000000e+00 2.802074e-03 0.000000e+00
0.000000e+00 3.493271e-03 0.000000e+00
0.000000e+00 4.258877e-03 0.000000e+00
</DataArray>
<DataArray Name="shear" type="Float64" NumberOfComponents="1" format="ascii">
1.932675e-02
3.016546e-02
5.261393e-02
7.249795e-02
8.337726e-02
8.751842e-02
8.676057e-02
7.806151e-02
5.558294e-02
3.007227e-02
2.161060e-02
2.165517e-02
3.184363e-02
4.927509e-02
6.457929e-02
7.618054e-02
8.402832e-02
8.750173e-02
8.491707e-02
7.255916e-02
5.070464e-02
3.419352e-02
2.717670e-02
3.449614e-02
4.398859e-02
5.237419e-02
6.384914e-02
7.832786e-02
9.381418e-02
1.074731e-01
1.184835e-01
1.239414e-01
1.235964e-01
3.077018e-02
3.260969e-02
3.402724e-02
3.626015e-02
4.157765e-02
5.016383e-02
6.124953e-02
7.323807e-02
8.745587e-02
1.033918e-01
1.157811e-01
3.174203e-02
2.894975e-02
2.410369e-02
2.230075e-02
2.217565e-02
2.228761e-02
2.175559e-02
1.943264e-02
1.494138e-02
7.285545e-03
4.509306e-04
3.130485e-02
2.669251e-02
2.046428e-02
1.894315e-02
1.862365e-02
1.847752e-02
1.782965e-02
1.589866e-02
1.216675e-02
6.033084e-03
1.704375e-03
2.908353e-02
2.383096e-02
1.757077e-02
1.652282e-02
1.629526e-02
1.622210e-02
1.578006e-02
1.431207e-02
1.110590e-02
5.925799e-03
2.254803e-03
2.557635e-02
2.069759e-02
1.526466e-02
1.464146e-02
1.466659e-02
1.474960e-02
1.445491e-02
1.317419e-02
1.033578e-02
6.082443e-03
3.206702e-03
2.140888e-02
1.747992e-02
1.336256e-02
1.308641e-02
1.335789e-02
1.356172e-02
1.330802e-02
1.209771e-02
9.703843e-03
6.445699e-03
4.376028e-03
1.717036e-02
1.436876e-02
1.167422e-02
1.170289e-02
1.212087e-02
1.237394e-02
1.212283e-02
1.107944e-02
9.268436e-03
6.996260e-03
5.644925e-03
1.321713e-02
1.148791e-02
1.004594e-02
1.031901e-02
1.081401e-02
1.109729e-02
1.094598e-02
1.023095e-02
9.028513e-03
7.634909e-03
6.871641e-03
9.738816e-03
8.858534e-03
8.393925e-03
8.889674e-03
9.470073e-03
9.862774e-03
9.926534e-03
9.591941e-03
8.946161e-03
8.251958e-03
7.926401e-03
6.824959e-03
6.522075e-03
6.754972e-03
7.502353e-03
8.257535e-03
8.827755e-03
9.119701e-03
9.128194e-03
8.946883e-03
8.782349e-03
8.770248e-03
4.501694e-03
4.520086e-03
5.242153e-03
6.292883e-03
7.269632e-03
8.023988e-03
8.523571e-03
8.805729e-03
8.977119e-03
9.205860e-03
9.419187e-03
2.707028e-03
2.908576e-03
4.017523e-03
5.346416e-03
6.524030e-03
7.435697e-03
8.096463e-03
8.585007e-03
9.014571e-03
9.526393e-03
9.896953e-03
1.283378e-03
1.723490e-03
3.210240e-03
4.729419e-03
6.034246e-03
7.056950e-03
7.819813e-03
8.437448e-03
9.032272e-03
9.720723e-03
1.018429e-02
4.364260e-04
1.233765e-03
2.923495e-03
4.506857e-03
5.848654e-03
6.911770e-03
7.713200e-03
8.376543e-03
9.030011e-03
9.779339e-03
1.027486e-02
</DataArray>
<DataArray Name="stress" type="Float64" NumberOfComponents="9" format="ascii">
-1.217631e+05 6.503417e+03 0.000000e+00 6.503417e+03 -2.128380e+05 0.000000e+00 0.000000e+00 0.000000e+00 0.000000e+00
-1.074293e+05 4.915954e+03 0.000000e+00 4.915954e+03 -2.136292e+05 0.000000e+00 0.000000e+00 0.000000e+00 0.000000e+00
-1.119439e+05 3.369682e+03 0.000000e+00 3.369682e+03 -2.185563e+05 0.000000e+00 0.000000e+00 0.000000e+00 0.000000e+00
-1.188605e+05 4.040854e+03 0.000000e+00 4.040854e+03 -2.262675e+05 0.000000e+00 0.000000e+00 0.000000e+00 0.000000e+00
-1.223876e+05 5.795146e+03 0.000000e+00 5.795146e+03 -2.361551e+05 0.000000e+00 0.000000e+00 0.000000e+00 0.000000e+00
-1.278316e+05 8.061715e+03 0.000000e+00 8.061715e+03 -2.474677e+05 0.000000e+00 0.000000e+00 0.000000e+00 0.000000e+00
-1.349905e+05 9.959926e+03 0.000000e+00 9.959926e+03 -2.611652e+05 0.000000e+00 0.000000e+00 0.000000e+00 0.000000e+00
-1.428527e+05 1.030677e+04 0.000000e+00 1.030677e+04 -2.722544e+05 0.000000e+00 0.000000e+00 0.000000e+00 0.000000e+00
-1.453334e+05 4.267157e+03 0.000000e+00 4.267157e+03 -2.813772e+05 0.000000e+00 0.000000e+00 0.000000e+00 0.000000e+00
-1.521219e+05 -2.474396e+03 0.000000e+00 -2.474396e+03 -2.894788e+05 0.000000e+00 0.000000e+00 0.000000e+00 0.000000e+00
-1.577251e+05 -1.122491e+03 0.000000e+00 -1.122491e+03 -2.773707e+05 0.000000e+00 0.000000e+00 0.000000e+00 0.000000e+00
-1.240165e+05 1.886402e+04 0.000000e+00 1.886402e+04 -2.065605e+05 0.000000e+00 0.000000e+00 0.000000e+00 0.000000e+00
-1.084199e+05 1.593383e+04 0.000000e+00 1.593383e+04 -2.027383e+05 0.000000e+00 0.000000e+00 0.000000e+00 0.000000e+00
-1.104267e+05 1.417150e+04 0.000000e+00 1.417150e+04 -2.135070e+05 0.000000e+00 0.000000e+00 0.000000e+00 0.000000e+00
-1.173590e+05 1.324552e+04 0.000000e+00 1.324552e+04 -2.263740e+05 0.000000e+00 0.000000e+00 0.000000e+00 0.000000e+00
-1.235971e+05 1.311292e+04 0.000000e+00 1.311292e+04 -2.375364e+05 0.000000e+00 0.000000e+00 0.000000e+00 0.000000e+00
-1.294420e+05 1.395622e+04 0.000000e+00 1.395622e+04 -2.481600e+05 0.000000e+00 0.000000e+00 0.000000e+00 0.000000e+00
-1.351331e+05 1.430913e+04 0.000000e+00 1.430913e+04 -2.563167e+05 0.000000e+00 0.000000e+00 0.000000e+00 0.000000e+00
-1.414480e+05 1.252869e+04 0.000000e+00 1.252869e+04 -2.630209e+05 0.000000e+00 0.000000e+00 0.000000e+00 0.000000e+00
-1.451801e+05 5.587773e+03 0.000000e+00 5.587773e+03 -2.741802e+05 0.000000e+00 0.000000e+00 0.000000e+00 0.000000e+00
-1.474521e+05 -2.264316e+03 0.000000e+00 -2.264316e+03 -2.806728e+05 0.000000e+00 0.000000e+00 0.000000e+00 0.000000e+00
-1.699560e+05 -8.006166e+03 0.000000e+00 -8.006166e+03 -3.159932e+05 0.000000e+00 0.000000e+00 0.000000e+00 0.000000e+00
-1.233287e+05 3.131487e+04 0.000000e+00 3.131487e+04 -1.804341e+05 0.000000e+00 0.000000e+00 0.000000e+00 0.000000e+00
-1.085041e+05 2.749853e+04 0.000000e+00 2.749853e+04 -1.718682e+05 0.000000e+00 0.000000e+00 0.000000e+00 0.000000e+00
-1.086590e+05 2.745932e+04 0.000000e+00 2.745932e+04 -1.803814e+05 0.000000e+00 0.000000e+00 0.000000e+00 0.000000e+00
-1.151579e+05 2.796931e+04 0.000000e+00 2.796931e+04 -1.904313e+05 0.000000e+00 0.000000e+00 0.000000e+00 0.000000e+00
-1.236373e+05 2.922044e+04 0.000000e+00 2.922044e+04 -2.015585e+05 0.000000e+00 0.000000e+00 0.000000e+00 0.000000e+00
-1.348780e+05 3.076065e+04 0.000000e+00 3.076065e+04 -2.154523e+05 0.000000e+00 0.000000e+00 0.000000e+00 0.000000e+00
-1.493821e+05 3.297270e+04 0.000000e+00 3.297270e+04 -2.296870e+05 0.000000e+00 0.000000e+00 0.000000e+00 0.000000e+00
-1.624315e+05 3.480518e+04 0.000000e+00 3.480518e+04 -2.482228e+05 0.000000e+00 0.000000e+00 0.000000e+00 0.000000e+00
-1.690996e+05 3.461224e+04 0.000000e+00 3.461224e+04 -2.646324e+05 0.000000e+00 0.000000e+00 0.000000e+00 0.000000e+00
-1.793267e+05 2.295173e+04 0.000000e+00 2.295173e+04 -2.818227e+05 0.000000e+00 0.000000e+00 0.000000e+00 0.000000e+00
-2.017809e+05 2.600159e+03 0.000000e+00 2.600159e+03 -3.324706e+05 0.000000e+00 0.000000e+00 0.000000e+00 0.000000e+00
-1.124181e+05 3.183409e+04 0.000000e+00 3.183409e+04 -1.376180e+05 0.000000e+00 0.000000e+00 0.000000e+00 0.000000e+00
-1.021765e+05 2.914720e+04 0.000000e+00 2.914720e+04 -1.306698e+05 0.000000e+00 0.000000e+00 0.000000e+00 0.000000e+00
-1.038387e+05 2.966197e+04 0.000000e+00 2.966197e+04 -1.314621e+05 0.000000e+00 0.000000e+00 0.000000e+00 0.000000e+00
-1.099180e+05 3.100657e+04 0.000000e+00 3.100657e+04 -1.309405e+05 0.000000e+00 0.000000e+00 0.000000e+00 0.000000e+00
-1.152008e+05 3.265033e+04 0.000000e+00 3.265033e+04 -1.291866e+05 0.000000e+00 0.000000e+00 0.000000e+00 0.000000e+00
-1.187561e+05 3.293284e+04 0.000000e+00 3.293284e+04 -1.253899e+05 0.000000e+00 0.000000e+00 0.000000e+00 0.000000e+00
-1.220856e+05 3.154300e+04 0.000000e+00 3.154300e+04 -1.186484e+05 0.000000e+00 0.000000e+00 0.000000e+00 0.000000e+00
-1.222137e+05 2.828930e+04 0.000000e+00 2.828930e+04 -1.112762e+05 0.000000e+00 0.000000e+00 0.000000e+00 0.000000e+00
-1.095049e+05 2.178417e+04 0.000000e+00 2.178417e+04 -9.601602e+04 0.000000e+00 0.000000e+00 0.000000e+00 0.000000e+00
-8.732406e+04 1.304876e+04 0.000000e+00 1.304876e+04 -8.033475e+04 0.000000e+00 0.000000e+00 0.000000e+00 0.000000e+00
-5.452842e+04 5.944475e+03 0.000000e+00 5.944475e+03 -6.079521e+04 0.000000e+00 0.000000e+00 0.000000e+00 0.000000e+00
-1.070900e+05 3.057597e+04 0.000000e+00 3.057597e+04 -1.163742e+05 0.000000e+00 0.000000e+00 0.000000e+00 0.000000e+00
-1.026839e+05 2.916519e+04 0.000000e+00 2.916519e+04 -1.136353e+05 0.000000e+00 0.000000e+00 0.000000e+00 0.000000e+00
-1.074741e+05 2.955412e+04 0.000000e+00 2.955412e+04 -1.144769e+05 0.000000e+00 0.000000e+00 0.000000e+00 0.000000e+00
-1.153794e+05 3.016171e+04 0.000000e+00 3.016171e+04 -1.122210e+05 0.000000e+00 0.000000e+00 0.000000e+00 0.000000e+00
-1.219826e+05 3.008019e+04 0.000000e+00 3.008019e+04 -1.078788e+05 0.000000e+00 0.000000e+00 0.000000e+00 0.000000e+00
-1.271094e+05 2.891333e+04 0.000000e+00 2.891333e+04 -1.017907e+05 0.000000e+00 0.000000e+00 0.000000e+00 0.000000e+00
-1.313088e+05 2.589941e+04 0.000000e+00 2.589941e+04 -9.436548e+04 0.000000e+00 0.000000e+00 0.000000e+00 0.000000e+00
-1.311845e+05 2.011249e+04 0.000000e+00 2.011249e+04 -8.574770e+04 0.000000e+00 0.000000e+00 0.000000e+00 0.000000e+00
-1.215302e+05 1.225456e+04 0.000000e+00 1.225456e+04 -7.617519e+04 0.000000e+00 0.000000e+00 0.000000e+00 0.000000e+00
-9.737282e+04 3.505838e+03 0.000000e+00 3.505838e+03 -6.848202e+04 0.000000e+00 0.000000e+00 0.000000e+00 0.000000e+00
-5.818610e+04 -5.101476e+02 0.000000e+00 -5.101476e+02 -5.573004e+04 0.000000e+00 0.000000e+00 0.000000e+00 0.000000e+00
-1.006814e+05 2.876567e+04 0.000000e+00 2.876567e+04 -1.015416e+05 0.000000e+00 0.000000e+00 0.000000e+00 0.000000e+00
-1.008774e+05 2.814845e+04 0.000000e+00 2.814845e+04 -1.010310e+05 0.000000e+00 0.000000e+00 0.000000e+00 0.000000e+00
-1.076690e+05 2.737155e+04 0.000000e+00 2.737155e+04 -9.975057e+04 0.000000e+00 0.000000e+00 0.000000e+00 0.000000e+00
-1.153402e+05 2.619788e+04 0.000000e+00 2.619788e+04 -9.562379e+04 0.000000e+00 0.000000e+00 0.000000e+00 0.000000e+00
-1.207254e+05 2.451728e+04 0.000000e+00 2.451728e+04 -9.103752e+04 0.000000e+00 0.000000e+00 0.000000e+00 0.000000e+00
-1.246088e+05 2.186728e+04 0.000000e+00 2.186728e+04 -8.562000e+04 0.000000e+00 0.000000e+00 0.000000e+00 0.000000e+00
-1.266497e+05 1.751393e+04 0.000000e+00 1.751393e+04 -7.951745e+04 0.000000e+00 0.000000e+00 0.000000e+00 0.000000e+00
-1.235840e+05 1.107819e+04 0.000000e+00 1.107819e+04 -7.297082e+04 0.000000e+00 0.000000e+00 0.000000e+00 0.000000e+00
-1.128110e+05 3.464922e+03 0.000000e+00 3.464922e+03 -6.691122e+04 0.000000e+00 0.000000e+00 0.000000e+00 0.000000e+00
-8.986208e+04 -2.365038e+03 0.000000e+00 -2.365038e+03 -6.239776e+04 0.000000e+00 0.000000e+00 0.000000e+00 0.000000e+00
-6.000014e+04 -3.779763e+03 0.000000e+00 -3.779763e+03 -5.557876e+04 0.000000e+00 0.000000e+00 0.000000e+00 0.000000e+00
-9.249434e+04 2.613832e+04 0.000000e+00 2.613832e+04 -8.886905e+04 0.000000e+00 0.000000e+00 0.000000e+00 0.000000e+00
-9.852350e+04 2.601849e+04 0.000000e+00 2.601849e+04 -9.057319e+04 0.000000e+00 0.000000e+00 0.000000e+00 0.000000e+00
-1.065638e+05 2.392325e+04 0.000000e+00 2.392325e+04 -8.774049e+04 0.000000e+00 0.000000e+00 0.000000e+00 0.000000e+00
-1.135573e+05 2.197589e+04 0.000000e+00 2.197589e+04 -8.419149e+04 0.000000e+00 0.000000e+00 0.000000e+00 0.000000e+00
-1.182155e+05 1.941912e+04 0.000000e+00 1.941912e+04 -8.023601e+04 0.000000e+00 0.000000e+00 0.000000e+00 0.000000e+00
-1.207410e+05 1.583301e+04 0.000000e+00 1.583301e+04 -7.557852e+04 0.000000e+00 0.000000e+00 0.000000e+00 0.000000e+00
-1.207164e+05 1.093159e+04 0.000000e+00 1.093159e+04 -7.068157e+04 0.000000e+00 0.000000e+00 0.000000e+00 0.000000e+00
-1.159489e+05 4.754285e+03 0.000000e+00 4.754285e+03 -6.599149e+04 0.000000e+00 0.000000e+00 0.000000e+00 0.000000e+00
-1.056677e+05 -1.285708e+03 0.000000e+00 -1.285708e+03 -6.244978e+04 0.000000e+00 0.000000e+00 0.000000e+00 0.000000e+00
-8.754514e+04 -4.085046e+03 0.000000e+00 -4.085046e+03 -6.031794e+04 0.000000e+00 0.000000e+00 0.000000e+00 0.000000e+00
-6.753329e+04 -3.926025e+03 0.000000e+00 -3.926025e+03 -5.667034e+04 0.000000e+00 0.000000e+00 0.000000e+00 0.000000e+00
-8.468409e+04 2.345958e+04 0.000000e+00 2.345958e+04 -7.968892e+04 0.000000e+00 0.000000e+00 0.000000e+00 0.000000e+00
-9.558032e+04 2.354749e+04 0.000000e+00 2.354749e+04 -8.258053e+04 0.000000e+00 0.000000e+00 0.000000e+00 0.000000e+00
-1.046487e+05 2.078553e+04 0.000000e+00 2.078553e+04 -7.939515e+04 0.000000e+00 0.000000e+00 0.000000e+00 0.000000e+00
-1.109332e+05 1.825553e+04 0.000000e+00 1.825553e+04 -7.636548e+04 0.000000e+00 0.000000e+00 0.000000e+00 0.000000e+00
-1.146197e+05 1.495043e+04 0.000000e+00 1.495043e+04 -7.281901e+04 0.000000e+00 0.000000e+00 0.000000e+00 0.000000e+00
-1.161399e+05 1.091450e+04 0.000000e+00 1.091450e+04 -6.903220e+04 0.000000e+00 0.000000e+00 0.000000e+00 0.000000e+00
-1.147656e+05 6.021115e+03 0.000000e+00 6.021115e+03 -6.532597e+04 0.000000e+00 0.000000e+00 0.000000e+00 0.000000e+00
-1.095435e+05 7.885493e+02 0.000000e+00 7.885493e+02 -6.226861e+04 0.000000e+00 0.000000e+00 0.000000e+00 0.000000e+00
-1.009764e+05 -3.312659e+03 0.000000e+00 -3.312659e+03 -6.036677e+04 0.000000e+00 0.000000e+00 0.000000e+00 0.000000e+00
-8.807725e+04 -4.277772e+03 0.000000e+00 -4.277772e+03 -5.956816e+04 0.000000e+00 0.000000e+00 0.000000e+00 0.000000e+00
-7.538097e+04 -3.438582e+03 0.000000e+00 -3.438582e+03 -5.737776e+04 0.000000e+00 0.000000e+00 0.000000e+00 0.000000e+00
-7.927231e+04 2.139754e+04 0.000000e+00 2.139754e+04 -7.354507e+04 0.000000e+00 0.000000e+00 0.000000e+00 0.000000e+00
-9.240409e+04 2.120271e+04 0.000000e+00 2.120271e+04 -7.640920e+04 0.000000e+00 0.000000e+00 0.000000e+00 0.000000e+00
-1.019956e+05 1.800702e+04 0.000000e+00 1.800702e+04 -7.343614e+04 0.000000e+00 0.000000e+00 0.000000e+00 0.000000e+00
-1.075320e+05 1.481096e+04 0.000000e+00 1.481096e+04 -7.067077e+04 0.000000e+00 0.000000e+00 0.000000e+00 0.000000e+00
-1.105460e+05 1.120946e+04 0.000000e+00 1.120946e+04 -6.774330e+04 0.000000e+00 0.000000e+00 0.000000e+00 0.000000e+00
-1.113295e+05 7.114041e+03 0.000000e+00 7.114041e+03 -6.478909e+04 0.000000e+00 0.000000e+00 0.000000e+00 0.000000e+00
-1.093289e+05 2.640692e+03 0.000000e+00 2.640692e+03 -6.219954e+04 0.000000e+00 0.000000e+00 0.000000e+00 0.000000e+00
-1.048650e+05 -1.428600e+03 0.000000e+00 -1.428600e+03 -6.034439e+04 0.000000e+00 0.000000e+00 0.000000e+00 0.000000e+00
-9.840883e+04 -4.003867e+03 0.000000e+00 -4.003867e+03 -5.944329e+04 0.000000e+00 0.000000e+00 0.000000e+00 0.000000e+00
-8.981779e+04 -3.887020e+03 0.000000e+00 -3.887020e+03 -5.935010e+04 0.000000e+00 0.000000e+00 0.000000e+00 0.000000e+00
-8.218936e+04 -2.718425e+03 0.000000e+00 -2.718425e+03 -5.804827e+04 0.000000e+00 0.000000e+00 0.000000e+00 0.000000e+00
-7.545999e+04 1.939312e+04 0.000000e+00 1.939312e+04 -6.906583e+04 0.000000e+00 0.000000e+00 0.000000e+00 0.000000e+00
-8.908630e+04 1.888097e+04 0.000000e+00 1.888097e+04 -7.165034e+04 0.000000e+00 0.000000e+00 0.000000e+00 0.000000e+00
-9.856901e+04 1.539908e+04 0.000000e+00 1.539908e+04 -6.884002e+04 0.000000e+00 0.000000e+00 0.000000e+00 0.000000e+00
-1.036774e+05 1.192863e+04 0.000000e+00 1.192863e+04 -6.650526e+04 0.000000e+00 0.000000e+00 0.000000e+00 0.000000e+00
-1.063492e+05 8.270185e+03 0.000000e+00 8.270185e+03 -6.427336e+04 0.000000e+00 0.000000e+00 0.000000e+00 0.000000e+00
-1.067201e+05 4.349793e+03 0.000000e+00 4.349793e+03 -6.209680e+04 0.000000e+00 0.000000e+00 0.000000e+00 0.000000e+00
-1.049190e+05 5.510729e+02 0.000000e+00 5.510729e+02 -6.038236e+04 0.000000e+00 0.000000e+00 0.000000e+00 0.000000e+00
-1.016438e+05 -2.467683e+03 0.000000e+00 -2.467683e+03 -5.933963e+04 0.000000e+00 0.000000e+00 0.000000e+00 0.000000e+00
-9.719372e+04 -3.989646e+03 0.000000e+00 -3.989646e+03 -5.907732e+04 0.000000e+00 0.000000e+00 0.000000e+00 0.000000e+00
-9.200562e+04 -3.293711e+03 0.000000e+00 -3.293711e+03 -5.934918e+04 0.000000e+00 0.000000e+00 0.000000e+00 0.000000e+00
-8.780624e+04 -2.013842e+03 0.000000e+00 -2.013842e+03 -5.868575e+04 0.000000e+00 0.000000e+00 0.000000e+00 0.000000e+00
-7.258385e+04 1.737906e+04 0.000000e+00 1.737906e+04 -6.577780e+04 0.000000e+00 0.000000e+00 0.000000e+00 0.000000e+00
-8.550604e+04 1.665109e+04 0.000000e+00 1.665109e+04 -6.802089e+04 0.000000e+00 0.000000e+00 0.000000e+00 0.000000e+00
-9.487027e+04 1.304866e+04 0.000000e+00 1.304866e+04 -6.548434e+04 0.000000e+00 0.000000e+00 0.000000e+00 0.000000e+00
-9.984556e+04 9.611741e+03 0.000000e+00 9.611741e+03 -6.353475e+04 0.000000e+00 0.000000e+00 0.000000e+00 0.000000e+00
-1.022621e+05 6.060060e+03 0.000000e+00 6.060060e+03 -6.176961e+04 0.000000e+00 0.000000e+00 0.000000e+00 0.000000e+00
-1.026909e+05 2.516909e+03 0.000000e+00 2.516909e+03 -6.025407e+04 0.000000e+00 0.000000e+00 0.000000e+00 0.000000e+00
-1.015152e+05 -5.997570e+02 0.000000e+00 -5.997570e+02 -5.923796e+04 0.000000e+00 0.000000e+00 0.000000e+00 0.000000e+00
-9.945625e+04 -2.793602e+03 0.000000e+00 -2.793602e+03 -5.881905e+04 0.000000e+00 0.000000e+00 0.000000e+00 0.000000e+00
-9.686080e+04 -3.606363e+03 0.000000e+00 -3.606363e+03 -5.895412e+04 0.000000e+00 0.000000e+00 0.000000e+00 0.000000e+00
-9.421164e+04 -2.663481e+03 0.000000e+00 -2.663481e+03 -5.942359e+04 0.000000e+00 0.000000e+00 0.000000e+00 0.000000e+00
-9.223534e+04 -1.483959e+03 0.000000e+00 -1.483959e+03 -5.926788e+04 0.000000e+00 0.000000e+00 0.000000e+00 0.000000e+00
-6.991184e+04 1.521624e+04 0.000000e+00 1.521624e+04 -6.387847e+04 0.000000e+00 0.000000e+00 0.000000e+00 0.000000e+00
-8.185394e+04 1.441150e+04 0.000000e+00 1.441150e+04 -6.554611e+04 0.000000e+00 0.000000e+00 0.000000e+00 0.000000e+00
-9.121977e+04 1.098122e+04 0.000000e+00 1.098122e+04 -6.323559e+04 0.000000e+00 0.000000e+00 0.000000e+00 0.000000e+00
-9.613375e+04 7.703051e+03 0.000000e+00 7.703051e+03 -6.153264e+04 0.000000e+00 0.000000e+00 0.000000e+00 0.000000e+00
-9.855430e+04 4.450466e+03 0.000000e+00 4.450466e+03 -6.009947e+04 0.000000e+00 0.000000e+00 0.000000e+00 0.000000e+00
-9.927526e+04 1.392424e+03 0.000000e+00 1.392424e+03 -5.906872e+04 0.000000e+00 0.000000e+00 0.000000e+00 0.000000e+00
-9.884555e+04 -1.094830e+03 0.000000e+00 -1.094830e+03 -5.855030e+04 0.000000e+00 0.000000e+00 0.000000e+00 0.000000e+00
-9.800402e+04 -2.640812e+03 0.000000e+00 -2.640812e+03 -5.856627e+04 0.000000e+00 0.000000e+00 0.000000e+00 0.000000e+00
-9.698833e+04 -3.009444e+03 0.000000e+00 -3.009444e+03 -5.895489e+04 0.000000e+00 0.000000e+00 0.000000e+00 0.000000e+00
-9.618366e+04 -2.055709e+03 0.000000e+00 -2.055709e+03 -5.948582e+04 0.000000e+00 0.000000e+00 0.000000e+00 0.000000e+00
-9.575152e+04 -1.059796e+03 0.000000e+00 -1.059796e+03 -5.966420e+04 0.000000e+00 0.000000e+00 0.000000e+00 0.000000e+00
-6.790195e+04 1.283541e+04 0.000000e+00 1.283541e+04 -6.311160e+04 0.000000e+00 0.000000e+00 0.000000e+00 0.000000e+00
-7.859229e+04 1.201809e+04 0.000000e+00 1.201809e+04 -6.409487e+04 0.000000e+00 0.000000e+00 0.000000e+00 0.000000e+00
-8.776931e+04 9.057422e+03 0.000000e+00 9.057422e+03 -6.192904e+04 0.000000e+00 0.000000e+00 0.000000e+00 0.000000e+00
-9.271741e+04 6.097631e+03 0.000000e+00 6.097631e+03 -6.038944e+04 0.000000e+00 0.000000e+00 0.000000e+00 0.000000e+00
-9.527885e+04 3.234923e+03 0.000000e+00 3.234923e+03 -5.920620e+04 0.000000e+00 0.000000e+00 0.000000e+00 0.000000e+00
-9.643557e+04 7.184718e+02 0.000000e+00 7.184718e+02 -5.849580e+04 0.000000e+00 0.000000e+00 0.000000e+00 0.000000e+00
-9.688509e+04 -1.167327e+03 0.000000e+00 -1.167327e+03 -5.828006e+04 0.000000e+00 0.000000e+00 0.000000e+00 0.000000e+00
-9.710746e+04 -2.218792e+03 0.000000e+00 -2.218792e+03 -5.852052e+04 0.000000e+00 0.000000e+00 0.000000e+00 0.000000e+00
-9.734326e+04 -2.333818e+03 0.000000e+00 -2.333818e+03 -5.902866e+04 0.000000e+00 0.000000e+00 0.000000e+00 0.000000e+00
-9.779979e+04 -1.497949e+03 0.000000e+00 -1.497949e+03 -5.956192e+04 0.000000e+00 0.000000e+00 0.000000e+00 0.000000e+00
-9.839255e+04 -7.035484e+02 0.000000e+00 -7.035484e+02 -5.993561e+04 0.000000e+00 0.000000e+00 0.000000e+00 0.000000e+00
-6.689641e+04 1.029055e+04 0.000000e+00 1.029055e+04 -6.334046e+04 0.000000e+00 0.000000e+00 0.000000e+00 0.000000e+00
-7.608900e+04 9.519338e+03 0.000000e+00 9.519338e+03 -6.357695e+04 0.000000e+00 0.000000e+00 0.000000e+00 0.000000e+00
-8.480125e+04 7.139184e+03 0.000000e+00 7.139184e+03 -6.144920e+04 0.000000e+00 0.000000e+00 0.000000e+00 0.000000e+00
-8.971223e+04 4.626403e+03 0.000000e+00 4.626403e+03 -5.989006e+04 0.000000e+00 0.000000e+00 0.000000e+00 0.000000e+00
-9.252622e+04 2.280490e+03 0.000000e+00 2.280490e+03 -5.883269e+04 0.000000e+00 0.000000e+00 0.000000e+00 0.000000e+00
-9.425473e+04 3.418224e+02 0.000000e+00 3.418224e+02 -5.831926e+04 0.000000e+00 0.000000e+00 0.000000e+00 0.000000e+00
-9.547495e+04 -1.003878e+03 0.000000e+00 -1.003878e+03 -5.829053e+04 0.000000e+00 0.000000e+00 0.000000e+00 0.000000e+00
-9.657575e+04 -1.677478e+03 0.000000e+00 -1.677478e+03 -5.863459e+04 0.000000e+00 0.000000e+00 0.000000e+00 0.000000e+00
-9.774967e+04 -1.660485e+03 0.000000e+00 -1.660485e+03 -5.915850e+04 0.000000e+00 0.000000e+00 0.000000e+00 0.000000e+00
-9.904834e+04 -1.001299e+03 0.000000e+00 -1.001299e+03 -5.963625e+04 0.000000e+00 0.000000e+00 0.000000e+00 0.000000e+00
-1.002708e+05 -4.203908e+02 0.000000e+00 -4.203908e+02 -6.013884e+04 0.000000e+00 0.000000e+00 0.000000e+00 0.000000e+00
-6.623343e+04 7.264626e+03 0.000000e+00 7.264626e+03 -6.424791e+04 0.000000e+00 0.000000e+00 0.000000e+00 0.000000e+00
-7.415153e+04 6.649438e+03 0.000000e+00 6.649438e+03 -6.383525e+04 0.000000e+00 0.000000e+00 0.000000e+00 0.000000e+00
-8.237134e+04 4.961778e+03 0.000000e+00 4.961778e+03 -6.147729e+04 0.000000e+00 0.000000e+00 0.000000e+00 0.000000e+00
-8.734786e+04 3.124815e+03 0.000000e+00 3.124815e+03 -5.976901e+04 0.000000e+00 0.000000e+00 0.000000e+00 0.000000e+00
-9.045273e+04 1.462294e+03 0.000000e+00 1.462294e+03 -5.875415e+04 0.000000e+00 0.000000e+00 0.000000e+00 0.000000e+00
-9.270294e+04 1.485654e+02 0.000000e+00 1.485654e+02 -5.833230e+04 0.000000e+00 0.000000e+00 0.000000e+00 0.000000e+00
-9.455384e+04 -7.241827e+02 0.000000e+00 -7.241827e+02 -5.841106e+04 0.000000e+00 0.000000e+00 0.000000e+00 0.000000e+00
-9.629638e+04 -1.111607e+03 0.000000e+00 -1.111607e+03 -5.879957e+04 0.000000e+00 0.000000e+00 0.000000e+00 0.000000e+00
-9.810818e+04 -1.044943e+03 0.000000e+00 -1.044943e+03 -5.931138e+04 0.000000e+00 0.000000e+00 0.000000e+00 0.000000e+00
-9.989077e+04 -5.926486e+02 0.000000e+00 -5.926486e+02 -5.972695e+04 0.000000e+00 0.000000e+00 0.000000e+00 0.000000e+00
-1.014260e+05 -2.189144e+02 0.000000e+00 -2.189144e+02 -6.029696e+04 0.000000e+00 0.000000e+00 0.000000e+00 0.000000e+00
-6.583931e+04 3.704825e+03 0.000000e+00 3.704825e+03 -6.490185e+04 0.000000e+00 0.000000e+00 0.000000e+00 0.000000e+00
-7.300243e+04 3.392481e+03 0.000000e+00 3.392481e+03 -6.417579e+04 0.000000e+00 0.000000e+00 0.000000e+00 0.000000e+00
-8.077812e+04 2.520234e+03 0.000000e+00 2.520234e+03 -6.157228e+04 0.000000e+00 0.000000e+00 0.000000e+00 0.000000e+00
-8.584058e+04 1.559221e+03 0.000000e+00 1.559221e+03 -5.979385e+04 0.000000e+00 0.000000e+00 0.000000e+00 0.000000e+00
-8.918974e+04 7.127153e+02 0.000000e+00 7.127153e+02 -5.879438e+04 0.000000e+00 0.000000e+00 0.000000e+00 0.000000e+00
-9.176880e+04 5.372794e+01 0.000000e+00 5.372794e+01 -5.843705e+04 0.000000e+00 0.000000e+00 0.000000e+00 0.000000e+00
-9.404205e+04 -3.764709e+02 0.000000e+00 -3.764709e+02 -5.855269e+04 0.000000e+00 0.000000e+00 0.000000e+00 0.000000e+00
-9.617825e+04 -5.453748e+02 0.000000e+00 -5.453748e+02 -5.895596e+04 0.000000e+00 0.000000e+00 0.000000e+00 0.000000e+00
-9.836127e+04 -4.947503e+02 0.000000e+00 -4.947503e+02 -5.943570e+04 0.000000e+00 0.000000e+00 0.000000e+00 0.000000e+00
-1.003670e+05 -2.648593e+02 0.000000e+00 -2.648593e+02 -5.980691e+04 0.000000e+00 0.000000e+00 0.000000e+00 0.000000e+00
-1.020419e+05 -7.875066e+01 0.000000e+00 -7.875066e+01 -6.038522e+04 0.000000e+00 0.000000e+00 0.000000e+00 0.000000e+00
-6.560831e+04 1.027255e+03 0.000000e+00 1.027255e+03 -6.487925e+04 0.000000e+00 0.000000e+00 0.000000e+00 0.000000e+00
-7.256484e+04 9.840085e+02 0.000000e+00 9.840085e+02 -6.415347e+04 0.000000e+00 0.000000e+00 0.000000e+00 0.000000e+00
-8.023248e+04 6.989526e+02 0.000000e+00 6.989526e+02 -6.157973e+04 0.000000e+00 0.000000e+00 0.000000e+00 0.000000e+00
-8.533242e+04 3.307426e+02 0.000000e+00 3.307426e+02 -5.983814e+04 0.000000e+00 0.000000e+00 0.000000e+00 0.000000e+00
-8.879385e+04 1.527658e+01 0.000000e+00 1.527658e+01 -5.885334e+04 0.000000e+00 0.000000e+00 0.000000e+00 0.000000e+00
-9.148618e+04 -2.394176e+02 0.000000e+00 -2.394176e+02 -5.853190e+04 0.000000e+00 0.000000e+00 0.000000e+00 0.000000e+00
-9.390340e+04 -3.968287e+02 0.000000e+00 -3.968287e+02 -5.866083e+04 0.000000e+00 0.000000e+00 0.000000e+00 0.000000e+00
-9.617855e+04 -4.565794e+02 0.000000e+00 -4.565794e+02 -5.906336e+04 0.000000e+00 0.000000e+00 0.000000e+00 0.000000e+00
-9.848508e+04 -4.288647e+02 0.000000e+00 -4.288647e+02 -5.951568e+04 0.000000e+00 0.000000e+00 0.000000e+00 0.000000e+00
-1.005565e+05 -3.204148e+02 0.000000e+00 -3.204148e+02 -5.985639e+04 0.000000e+00 0.000000e+00 0.000000e+00 0.000000e+00
-1.022616e+05 -2.302141e+02 0.000000e+00 -2.302141e+02 -6.042113e+04 0.000000e+00 0.000000e+00 0.000000e+00 0.000000e+00
</DataArray>
<DataArray Name="vol_eps" type="Float64" NumberOfComponents="1" format="ascii">
-1.348284e-02
-1.139934e-02
-9.328644e-03
-8.296143e-03
-7.820620e-03
-8.417543e-03
-1.003808e-02
-1.249979e-02
-1.561403e-02
-1.942635e-02
-1.973798e-02
-1.307810e-02
-1.063392e-02
-9.261435e-03
-8.766046e-03
-8.463381e-03
-8.514183e-03
-9.103511e-03
-1.067388e-02
-1.297867e-02
-1.595898e-02
-2.171111e-02
-1.096102e-02
-8.333122e-03
-7.634053e-03
-7.709006e-03
-7.786104e-03
-8.098945e-03
-8.659019e-03
-9.715352e-03
-1.020687e-02
-1.075423e-02
-1.531089e-02
-6.994850e-03
-5.439735e-03
-5.385529e-03
-5.675643e-03
-5.367949e-03
-4.532514e-03
-3.089425e-03
-1.173785e-03
2.069859e-03
6.967588e-03
1.195119e-02
-5.055444e-03
-4.808040e-03
-5.680953e-03
-6.250845e-03
-6.435500e-03
-6.341770e-03
-6.098530e-03
-5.635239e-03
-4.664250e-03
-2.835014e-03
6.117886e-04
-3.445139e-03
-3.905537e-03
-4.952249e-03
-5.354390e-03
-5.446826e-03
-5.307656e-03
-5.000537e-03
-4.470643e-03
-3.639668e-03
-2.022984e-03
3.853910e-04
-2.115358e-03
-3.235920e-03
-4.268738e-03
-4.616561e-03
-4.656408e-03
-4.450032e-03
-4.102820e-03
-3.612009e-03
-2.946269e-03
-1.762551e-03
-2.305005e-04
-1.210158e-03
-2.742335e-03
-3.723749e-03
-3.996598e-03
-3.959868e-03
-3.766085e-03
-3.456351e-03
-3.044412e-03
-2.546633e-03
-1.761362e-03
-7.882211e-04
-7.295391e-04
-2.356664e-03
-3.249805e-03
-3.441014e-03
-3.402461e-03
-3.252594e-03
-3.003340e-03
-2.692857e-03
-2.351887e-03
-1.871666e-03
-1.283806e-03
-5.510804e-04
-2.047044e-03
-2.790024e-03
-2.961392e-03
-2.971047e-03
-2.870299e-03
-2.690820e-03
-2.481979e-03
-2.276214e-03
-2.019671e-03
-1.704654e-03
-5.058321e-04
-1.784818e-03
-2.394269e-03
-2.579630e-03
-2.625526e-03
-2.579391e-03
-2.463429e-03
-2.350117e-03
-2.262329e-03
-2.159325e-03
-2.022578e-03
-5.097681e-04
-1.559188e-03
-2.085902e-03
-2.287743e-03
-2.361523e-03
-2.348828e-03
-2.293776e-03
-2.271307e-03
-2.273143e-03
-2.273492e-03
-2.255895e-03
-5.341416e-04
-1.374045e-03
-1.853780e-03
-2.062251e-03
-2.145978e-03
-2.168726e-03
-2.184008e-03
-2.229134e-03
-2.294529e-03
-2.361739e-03
-2.422146e-03
-5.716542e-04
-1.226372e-03
-1.668833e-03
-1.875190e-03
-1.973356e-03
-2.041497e-03
-2.115793e-03
-2.211780e-03
-2.321434e-03
-2.427499e-03
-2.535429e-03
-6.358643e-04
-1.135221e-03
-1.519868e-03
-1.729267e-03
-1.853213e-03
-1.958833e-03
-2.075318e-03
-2.208135e-03
-2.348745e-03
-2.473600e-03
-2.603200e-03
-6.805875e-04
-1.090896e-03
-1.422517e-03
-1.637813e-03
-1.785984e-03
-1.915520e-03
-2.057897e-03
-2.212386e-03
-2.370148e-03
-2.501659e-03
-2.637975e-03
-6.715170e-04
-1.064385e-03
-1.386704e-03
-1.610049e-03
-1.769760e-03
-1.909190e-03
-2.060214e-03
-2.221900e-03
-2.383650e-03
-2.515522e-03
-2.652292e-03
</DataArray>
</PointData>
</Piece>
</UnstructuredGrid>
</VTKFile>
