<?xml version="1.0"?>
<VTKFile type="UnstructuredGrid" version="0.1">
<UnstructuredGrid>
<FieldData>
<DataArray Name="TIME" type="Float64" format="ascii" NumberOfTuples="1">
0.000000e+00
</DataArray>
</FieldData>
<FieldData>
<DataArray Name="CYCLE" type="Int32" format="ascii" NumberOfTuples="1">
0
</DataArray>
</FieldData>
<Piece NumberOfPoints="187" NumberOfCells="160">
<Points>
<DataArray NumberOfComponents="3" type="Float64" format="ascii">
0.000000e+00 0.000000e+00 0.000000e+00
0.000000e+00 1.979717e-01 0.000000e+00
0.000000e+00 3.952391e-01 0.000000e+00
0.000000e+00 5.919726e-01 0.000000e+00
0.000000e+00 7.883162e-01 0.000000e+00
0.000000e+00 9.843650e-01 0.000000e+00
0.000000e+00 1.180249e+00 0.000000e+00
0.000000e+00 1.376158e+00 0.000000e+00
0.000000e+00 1.572329e+00 0.000000e+00
0.000000e+00 1.769113e+00 0.000000e+00
0.000000e+00 1.966250e+00 0.000000e+00
2.250000e-01 0.000000e+00 0.000000e+00
2.259225e-01 1.981441e-01 0.000000e+00
2.266812e-01 3.956452e-01 0.000000e+00
2.272174e-01 5.926359e-01 0.000000e+00
2.275543e-01 7.892189e-01 0.000000e+00
2.277324e-01 9.854559e-01 0.000000e+00
2.276607e-01 1.181453e+00 0.000000e+00
2.273302e-01 1.377304e+00 0.000000e+00
2.266553e-01 1.573158e+00 0.000000e+00
2.255490e-01 1.769235e+00 0.000000e+00
2.250000e-01 1.966250e+00 0.000000e+00
4.500000e-01 0.000000e+00 0.000000e+00
4.516452e-01 1.985370e-01 0.000000e+00
4.529954e-01 3.967003e-01 0.000000e+00
4.540106e-01 5.945109e-01 0.000000e+00
4.547608e-01 7.919314e-01 0.000000e+00
4.552473e-01 9.889607e-01 0.000000e+00
4.553633e-01 1.185563e+00 0.000000e+00
4.552157e-01 1.381664e+00 0.000000e+00
4.545201e-01 1.577169e+00 0.000000e+00
4.531655e-01 1.771998e+00 0.000000e+00
4.500000e-01 1.966250e+00 0.000000e+00
6.750000e-01 0.000000e+00 0.000000e+00
6.770200e-01 1.989308e-01 0.000000e+00
6.785916e-01 3.977984e-01 0.000000e+00
6.798144e-01 5.966724e-01 0.000000e+00
6.807982e-01 7.955879e-01 0.000000e+00
6.815773e-01 9.945962e-01 0.000000e+00
6.820678e-01 1.193723e+00 0.000000e+00
6.822799e-01 1.392988e+00 0.000000e+00
6.820337e-01 1.592499e+00 0.000000e+00
6.810690e-01 1.792409e+00 0.000000e+00
6.774901e-01 1.993028e+00 0.000000e+00
9.000000e-01 0.000000e+00 0.000000e+00
9.021207e-01 1.992023e-01 0.000000e+00
9.036342e-01 3.984433e-01 0.000000e+00
9.047771e-01 5.977547e-01 0.000000e+00
9.056572e-01 7.971509e-01 0.000000e+00
9.062942e-01 9.966570e-01 0.000000e+00
9.066504e-01 1.196304e+00 0.000000e+00
9.066752e-01 1.396137e+00 0.000000e+00
9.062230e-01 1.596185e+00 0.000000e+00
9.048795e-01 1.796471e+00 0.000000e+00
9.025531e-01 1.996455e+00 0.000000e+00
1.125000e+00 0.000000e+00 0.000000e+00
1.127054e+00 1.994349e-01 0.000000e+00
1.128438e+00 3.989511e-01 0.000000e+00
1.129466e+00 5.985551e-01 0.000000e+00
1.130227e+00 7.982527e-01 0.000000e+00
1.130738e+00 9.980590e-01 0.000000e+00
1.130962e+00 1.197990e+00 0.000000e+00
1.130861e+00 1.398063e+00 0.000000e+00
1.130305e+00 1.598270e+00 0.000000e+00
1.129221e+00 1.798479e+00 0.000000e+00
1.127812e+00 1.998546e+00 0.000000e+00
1.350000e+00 0.000000e+00 0.000000e+00
1.351873e+00 1.996168e-01 0.000000e+00
1.353114e+00 3.993313e-01 0.000000e+00
1.354019e+00 5.991315e-01 0.000000e+00
1.354670e+00 7.990209e-01 0.000000e+00
1.355076e+00 9.990045e-01 0.000000e+00
1.355218e+00 1.199086e+00 0.000000e+00
1.355058e+00 1.399258e+00 0.000000e+00
1.354566e+00 1.599480e+00 0.000000e+00
1.353786e+00 1.799666e+00 0.000000e+00
1.352916e+00 1.999720e+00 0.000000e+00
1.575000e+00 0.000000e+00 0.000000e+00
1.576629e+00 1.997459e-01 0.000000e+00
1.577719e+00 3.995993e-01 0.000000e+00
1.578510e+00 5.995342e-01 0.000000e+00
1.579067e+00 7.995433e-01 0.000000e+00
1.579400e+00 9.996254e-01 0.000000e+00
1.579492e+00 1.199779e+00 0.000000e+00
1.579342e+00 1.399986e+00 0.000000e+00
1.578965e+00 1.600202e+00 0.000000e+00
1.578436e+00 1.800364e+00 0.000000e+00
1.577903e+00 2.000432e+00 0.000000e+00
1.800000e+00 0.000000e+00 0.000000e+00
1.801364e+00 1.998382e-01 0.000000e+00
1.802301e+00 3.997788e-01 0.000000e+00
1.802991e+00 5.997921e-01 0.000000e+00
1.803472e+00 7.998679e-01 0.000000e+00
1.803747e+00 1.000005e+00 0.000000e+00
1.803821e+00 1.200194e+00 0.000000e+00
1.803709e+00 1.400408e+00 0.000000e+00
1.803448e+00 1.600611e+00 0.000000e+00
1.803107e+00 1.800763e+00 0.000000e+00
1.802795e+00 2.000846e+00 0.000000e+00
2.025000e+00 0.000000e+00 0.000000e+00
2.026102e+00 1.998946e-01 0.000000e+00
2.026899e+00 3.998843e-01 0.000000e+00
2.027493e+00 5.999400e-01 0.000000e+00
2.027901e+00 8.000550e-01 0.000000e+00
2.028135e+00 1.000220e+00 0.000000e+00
2.028208e+00 1.200420e+00 0.000000e+00
2.028143e+00 1.400629e+00 0.000000e+00
2.027978e+00 1.600820e+00 0.000000e+00
2.027773e+00 1.800969e+00 0.000000e+00
2.027609e+00 2.001066e+00 0.000000e+00
2.250000e+00 0.000000e+00 0.000000e+00
2.250869e+00 1.999263e-01 0.000000e+00
2.251529e+00 3.999383e-01 0.000000e+00
2.252027e+00 6.000162e-01 0.000000e+00
2.252371e+00 8.001487e-01 0.000000e+00
2.252573e+00 1.000322e+00 0.000000e+00
2.252650e+00 1.200520e+00 0.000000e+00
2.252626e+00 1.400719e+00 0.000000e+00
2.252535e+00 1.600901e+00 0.000000e+00
2.252424e+00 1.801050e+00 0.000000e+00
2.252356e+00 2.001164e+00 0.000000e+00
2.475000e+00 0.000000e+00 0.000000e+00
2.475668e+00 1.999431e-01 0.000000e+00
2.476199e+00 3.999644e-01 0.000000e+00
2.476602e+00 6.000488e-01 0.000000e+00
2.476886e+00 8.001837e-01 0.000000e+00
2.477061e+00 1.000353e+00 0.000000e+00
2.477140e+00 1.200542e+00 0.000000e+00
2.477145e+00 1.400731e+00 0.000000e+00
2.477105e+00 1.600906e+00 0.000000e+00
2.477057e+00 1.801058e+00 0.000000e+00
2.477046e+00 2.001186e+00 0.000000e+00
2.700000e+00 0.000000e+00 0.000000e+00
2.700498e+00 1.999516e-01 0.000000e+00
2.700906e+00 3.999742e-01 0.000000e+00
2.701222e+00 6.000558e-01 0.000000e+00
2.701449e+00 8.001844e-01 0.000000e+00
2.701594e+00 1.000346e+00 0.000000e+00
2.701669e+00 1.200523e+00 0.000000e+00
2.701690e+00 1.400703e+00 0.000000e+00
2.701681e+00 1.600873e+00 0.000000e+00
2.701670e+00 1.801028e+00 0.000000e+00
2.701690e+00 2.001168e+00 0.000000e+00
2.925000e+00 0.000000e+00 0.000000e+00
2.925352e+00 1.999537e-01 0.000000e+00
2.925649e+00 3.999742e-01 0.000000e+00
2.925882e+00 6.000503e-01 0.000000e+00
2.926052e+00 8.001707e-01 0.000000e+00
2.926165e+00 1.000322e+00 0.000000e+00
2.926228e+00 1.200490e+00 0.000000e+00
2.926254e+00 1.400662e+00 0.000000e+00
2.926260e+00 1.600829e+00 0.000000e+00
2.926268e+00 1.800986e+00 0.000000e+00
2.926298e+00 2.001136e+00 0.000000e+00
3.150000e+00 0.000000e+00 0.000000e+00
3.150226e+00 1.999556e-01 0.000000e+00
3.150420e+00 3.999733e-01 0.000000e+00
3.150572e+00 6.000445e-01 0.000000e+00
3.150685e+00 8.001582e-01 0.000000e+00
3.150762e+00 1.000302e+00 0.000000e+00
3.150807e+00 1.200462e+00 0.000000e+00
3.150830e+00 1.400628e+00 0.000000e+00
3.150840e+00 1.600792e+00 0.000000e+00
3.150852e+00 1.800951e+00 0.000000e+00
3.150880e+00 2.001109e+00 0.000000e+00
3.375000e+00 0.000000e+00 0.000000e+00
3.375112e+00 1.999583e-01 0.000000e+00
3.375206e+00 3.999777e-01 0.000000e+00
3.375282e+00 6.000473e-01 0.000000e+00
3.375338e+00 8.001571e-01 0.000000e+00
3.375376e+00 1.000295e+00 0.000000e+00
3.375401e+00 1.200451e+00 0.000000e+00
3.375413e+00 1.400613e+00 0.000000e+00
3.375420e+00 1.600775e+00 0.000000e+00
3.375428e+00 1.800936e+00 0.000000e+00
3.375444e+00 2.001097e+00 0.000000e+00
3.600000e+00 0.000000e+00 0.000000e+00
3.600000e+00 1.999725e-01 0.000000e+00
3.600000e+00 3.999951e-01 0.000000e+00
3.600000e+00 6.000645e-01 0.000000e+00
3.600000e+00 8.001724e-01 0.000000e+00
3.600000e+00 1.000309e+00 0.000000e+00
3.600000e+00 1.200462e+00 0.000000e+00
3.600000e+00 1.400623e+00 0.000000e+00
3.600000e+00 1.600785e+00 0.000000e+00
3.600000e+00 1.800945e+00 0.000000e+00
3.600000e+00 2.001108e+00 0.000000e+00
</DataArray>
</Points>
<Cells>
<DataArray Name="connectivity" type="Int32" format="ascii">
0 11 12 1
1 12 13 2
2 13 14 3
3 14 15 4
4 15 16 5
5 16 17 6
6 17 18 7
7 18 19 8
8 19 20 9
9 20 21 10
11 22 23 12
12 23 24 13
13 24 25 14
14 25 26 15
15 26 27 16
16 27 28 17
17 28 29 18
18 29 30 19
19 30 31 20
20 31 32 21
22 33 34 23
23 34 35 24
24 35 36 25
25 36 37 26
26 37 38 27
27 38 39 28
28 39 40 29
29 40 41 30
30 41 42 31
31 42 43 32
33 44 45 34
34 45 46 35
35 46 47 36
36 47 48 37
37 48 49 38
38 49 50 39
39 50 51 40
40 51 52 41
41 52 53 42
42 53 54 43
44 55 56 45
45 56 57 46
46 57 58 47
47 58 59 48
48 59 60 49
49 60 61 50
50 61 62 51
51 62 63 52
52 63 64 53
53 64 65 54
55 66 67 56
56 67 68 57
57 68 69 58
58 69 70 59
59 70 71 60
60 71 72 61
61 72 73 62
62 73 74 63
63 74 75 64
64 75 76 65
66 77 78 67
67 78 79 68
68 79 80 69
69 80 81 70
70 81 82 71
71 82 83 72
72 83 84 73
73 84 85 74
74 85 86 75
75 86 87 76
77 88 89 78
78 89 90 79
79 90 91 80
80 91 92 81
81 92 93 82
82 93 94 83
83 94 95 84
84 95 96 85
85 96 97 86
86 97 98 87
88 99 100 89
89 100 101 90
90 101 102 91
91 102 103 92
92 103 104 93
93 104 105 94
94 105 106 95
95 106 107 96
96 107 108 97
97 108 109 98
99 110 111 100
100 111 112 101
101 112 113 102
102 113 114 103
103 114 115 104
104 115 116 105
105 116 117 106
106 117 118 107
107 118 119 108
108 119 120 109
110 121 122 111
111 122 123 112
112 123 124 113
113 124 125 114
114 125 126 115
115 126 127 116
116 127 128 117
117 128 129 118
118 129 130 119
119 130 131 120
121 132 133 122
122 133 134 123
123 134 135 124
124 135 136 125
125 136 137 126
126 137 138 127
127 138 139 128
128 139 140 129
129 140 141 130
130 141 142 131
132 143 144 133
133 144 145 134
134 145 146 135
135 146 147 136
136 147 148 137
137 148 149 138
138 149 150 139
139 150 151 140
140 151 152 141
141 152 153 142
143 154 155 144
144 155 156 145
145 156 157 146
146 157 158 147
147 158 159 148
148 159 160 149
149 160 161 150
150 161 162 151
151 162 163 152
152 163 164 153
154 165 166 155
155 166 167 156
156 167 168 157
157 168 169 158
158 169 170 159
159 170 171 160
160 171 172 161
161 172 173 162
162 173 174 163
163 174 175 164
165 176 177 166
166 177 178 167
167 178 179 168
168 179 180 169
169 180 181 170
170 181 182 171
171 182 183 172
172 183 184 173
173 184 185 174
174 185 186 175
</DataArray>
<DataArray Name="offsets" type="Int32" format="ascii">
4
8
12
16
20
24
28
32
36
40
44
48
52
56
60
64
68
72
76
80
84
88
92
96
100
104
108
112
116
120
124
128
132
136
140
144
148
152
156
160
164
168
172
176
180
184
188
192
196
200
204
208
212
216
220
224
228
232
236
240
244
248
252
256
260
264
268
272
276
280
284
288
292
296
300
304
308
312
316
320
324
328
332
336
340
344
348
352
356
360
364
368
372
376
380
384
388
392
396
400
404
408
412
416
420
424
428
432
436
440
444
448
452
456
460
464
468
472
476
480
484
488
492
496
500
504
508
512
516
520
524
528
532
536
540
544
548
552
556
560
564
568
572
576
580
584
588
592
596
600
604
608
612
616
620
624
628
632
636
640
</DataArray>
<DataArray Name="types" type="UInt8" format="ascii">
9
9
9
9
9
9
9
9
9
9
9
9
9
9
9
9
9
9
9
9
9
9
9
9
9
9
9
9
9
9
9
9
9
9
9
9
9
9
9
9
9
9
9
9
9
9
9
9
9
9
9
9
9
9
9
9
9
9
9
9
9
9
9
9
9
9
9
9
9
9
9
9
9
9
9
9
9
9
9
9
9
9
9
9
9
9
9
9
9
9
9
9
9
9
9
9
9
9
9
9
9
9
9
9
9
9
9
9
9
9
9
9
9
9
9
9
9
9
9
9
9
9
9
9
9
9
9
9
9
9
9
9
9
9
9
9
9
9
9
9
9
9
9
9
9
9
9
9
9
9
9
9
9
9
9
9
9
9
9
9
</DataArray>
</Cells>
<PointData>
<DataArray Name="disp" type="Float64" NumberOfComponents="3" format="ascii">
0.000000e+00 0.000000e+00 0.000000e+00
0.000000e+00 -2.028260e-03 0.000000e+00
0.000000e+00 -4.760866e-03 0.000000e+00
0.000000e+00 -8.027363e-03 0.000000e+00
0.000000e+00 -1.168373e-02 0.000000e+00
0.000000e+00 -1.563497e-02 0.000000e+00
0.000000e+00 -1.975088e-02 0.000000e+00
0.000000e+00 -2.384223e-02 0.000000e+00
0.000000e+00 -2.767122e-02 0.000000e+00
0.000000e+00 -3.088744e-02 0.000000e+00
0.000000e+00 -3.375000e-02 0.000000e+00
0.000000e+00 0.000000e+00 0.000000e+00
9.224552e-04 -1.855928e-03 0.000000e+00
1.681171e-03 -4.354814e-03 0.000000e+00
2.217406e-03 -7.364113e-03 0.000000e+00
2.554328e-03 -1.078110e-02 0.000000e+00
2.732411e-03 -1.454411e-02 0.000000e+00
2.660708e-03 -1.854654e-02 0.000000e+00
2.330221e-03 -2.269610e-02 0.000000e+00
1.655254e-03 -2.684173e-02 0.000000e+00
5.490288e-04 -3.076485e-02 0.000000e+00
0.000000e+00 -3.375000e-02 0.000000e+00
0.000000e+00 0.000000e+00 0.000000e+00
1.645200e-03 -1.463001e-03 0.000000e+00
2.995411e-03 -3.299714e-03 0.000000e+00
4.010585e-03 -5.489111e-03 0.000000e+00
4.760799e-03 -8.068598e-03 0.000000e+00
5.247344e-03 -1.103933e-02 0.000000e+00
5.363307e-03 -1.443743e-02 0.000000e+00
5.215679e-03 -1.833565e-02 0.000000e+00
4.520118e-03 -2.283054e-02 0.000000e+00
3.165475e-03 -2.800174e-02 0.000000e+00
0.000000e+00 -3.375000e-02 0.000000e+00
0.000000e+00 0.000000e+00 0.000000e+00
2.019997e-03 -1.069230e-03 0.000000e+00
3.591632e-03 -2.201590e-03 0.000000e+00
4.814382e-03 -3.327585e-03 0.000000e+00
5.798232e-03 -4.412089e-03 0.000000e+00
6.577273e-03 -5.403846e-03 0.000000e+00
7.067813e-03 -6.276625e-03 0.000000e+00
7.279858e-03 -7.011611e-03 0.000000e+00
7.033673e-03 -7.500879e-03 0.000000e+00
6.069013e-03 -7.591138e-03 0.000000e+00
2.490133e-03 -6.972326e-03 0.000000e+00
0.000000e+00 0.000000e+00 0.000000e+00
2.120698e-03 -7.977282e-04 0.000000e+00
3.634198e-03 -1.556756e-03 0.000000e+00
4.777114e-03 -2.245288e-03 0.000000e+00
5.657168e-03 -2.849072e-03 0.000000e+00
6.294154e-03 -3.343061e-03 0.000000e+00
6.650365e-03 -3.695654e-03 0.000000e+00
6.675217e-03 -3.863326e-03 0.000000e+00
6.223027e-03 -3.814560e-03 0.000000e+00
4.879438e-03 -3.528708e-03 0.000000e+00
2.553080e-03 -3.545442e-03 0.000000e+00
0.000000e+00 0.000000e+00 0.000000e+00
2.054284e-03 -5.651046e-04 0.000000e+00
3.438314e-03 -1.048917e-03 0.000000e+00
4.465595e-03 -1.444877e-03 0.000000e+00
5.227328e-03 -1.747316e-03 0.000000e+00
5.737687e-03 -1.941030e-03 0.000000e+00
5.962517e-03 -2.009541e-03 0.000000e+00
5.860625e-03 -1.936746e-03 0.000000e+00
5.305001e-03 -1.729955e-03 0.000000e+00
4.220636e-03 -1.520965e-03 0.000000e+00
2.811844e-03 -1.453898e-03 0.000000e+00
0.000000e+00 0.000000e+00 0.000000e+00
1.873040e-03 -3.831709e-04 0.000000e+00
3.113811e-03 -6.686609e-04 0.000000e+00
4.019266e-03 -8.685049e-04 0.000000e+00
4.669602e-03 -9.790782e-04 0.000000e+00
5.075578e-03 -9.955167e-04 0.000000e+00
5.218136e-03 -9.141902e-04 0.000000e+00
5.058487e-03 -7.421756e-04 0.000000e+00
4.566190e-03 -5.199337e-04 0.000000e+00
3.785684e-03 -3.337408e-04 0.000000e+00
2.915522e-03 -2.802903e-04 0.000000e+00
0.000000e+00 0.000000e+00 0.000000e+00
1.629447e-03 -2.541172e-04 0.000000e+00
2.718732e-03 -4.007313e-04 0.000000e+00
3.510273e-03 -4.657717e-04 0.000000e+00
4.067524e-03 -4.566785e-04 0.000000e+00
4.399713e-03 -3.745393e-04 0.000000e+00
4.492290e-03 -2.212091e-04 0.000000e+00
4.341599e-03 -1.438467e-05 0.000000e+00
3.964818e-03 2.023144e-04 0.000000e+00
3.435968e-03 3.636350e-04 0.000000e+00
2.902681e-03 4.320508e-04 0.000000e+00
0.000000e+00 0.000000e+00 0.000000e+00
1.363843e-03 -1.617770e-04 0.000000e+00
2.301362e-03 -2.212299e-04 0.000000e+00
2.991254e-03 -2.079142e-04 0.000000e+00
3.471676e-03 -1.321494e-04 0.000000e+00
3.746951e-03 5.515042e-06 0.000000e+00
3.820739e-03 1.937384e-04 0.000000e+00
3.708568e-03 4.082519e-04 0.000000e+00
3.448111e-03 6.109269e-04 0.000000e+00
3.106993e-03 7.631395e-04 0.000000e+00
2.795119e-03 8.455892e-04 0.000000e+00
0.000000e+00 0.000000e+00 0.000000e+00
1.102363e-03 -1.054299e-04 0.000000e+00
1.899283e-03 -1.157008e-04 0.000000e+00
2.492427e-03 -5.998781e-05 0.000000e+00
2.901117e-03 5.503095e-05 0.000000e+00
3.134954e-03 2.202807e-04 0.000000e+00
3.207918e-03 4.196076e-04 0.000000e+00
3.142590e-03 6.289466e-04 0.000000e+00
2.978459e-03 8.196189e-04 0.000000e+00
2.773418e-03 9.685610e-04 0.000000e+00
2.608560e-03 1.066530e-03 0.000000e+00
0.000000e+00 0.000000e+00 0.000000e+00
8.686077e-04 -7.368049e-05 0.000000e+00
1.529377e-03 -6.172650e-05 0.000000e+00
2.026718e-03 1.617245e-05 0.000000e+00
2.370537e-03 1.487499e-04 0.000000e+00
2.572875e-03 3.223883e-04 0.000000e+00
2.650596e-03 5.196108e-04 0.000000e+00
2.626107e-03 7.193618e-04 0.000000e+00
2.534963e-03 9.007251e-04 0.000000e+00
2.424545e-03 1.050479e-03 0.000000e+00
2.355498e-03 1.163837e-03 0.000000e+00
0.000000e+00 0.000000e+00 0.000000e+00
6.676234e-04 -5.686964e-05 0.000000e+00
1.198703e-03 -3.564469e-05 0.000000e+00
1.601595e-03 4.885091e-05 0.000000e+00
1.886360e-03 1.836588e-04 0.000000e+00
2.061125e-03 3.534092e-04 0.000000e+00
2.140304e-03 5.418659e-04 0.000000e+00
2.145309e-03 7.311142e-04 0.000000e+00
2.104926e-03 9.061639e-04 0.000000e+00
2.056832e-03 1.058025e-03 0.000000e+00
2.045819e-03 1.185590e-03 0.000000e+00
0.000000e+00 0.000000e+00 0.000000e+00
4.975710e-04 -4.837128e-05 0.000000e+00
9.063442e-04 -2.581612e-05 0.000000e+00
1.221611e-03 5.575626e-05 0.000000e+00
1.448889e-03 1.844542e-04 0.000000e+00
1.594441e-03 3.456808e-04 0.000000e+00
1.668949e-03 5.233256e-04 0.000000e+00
1.690355e-03 7.029366e-04 0.000000e+00
1.681288e-03 8.731400e-04 0.000000e+00
1.670422e-03 1.027730e-03 0.000000e+00
1.689990e-03 1.167734e-03 0.000000e+00
0.000000e+00 0.000000e+00 0.000000e+00
3.522930e-04 -4.626814e-05 0.000000e+00
6.494362e-04 -2.579328e-05 0.000000e+00
8.816969e-04 5.026198e-05 0.000000e+00
1.051858e-03 1.706671e-04 0.000000e+00
1.164743e-03 3.221778e-04 0.000000e+00
1.227715e-03 4.903781e-04 0.000000e+00
1.253815e-03 6.622999e-04 0.000000e+00
1.260196e-03 8.288869e-04 0.000000e+00
1.267617e-03 9.861027e-04 0.000000e+00
1.297955e-03 1.136101e-03 0.000000e+00
0.000000e+00 0.000000e+00 0.000000e+00
2.256944e-04 -4.442295e-05 0.000000e+00
4.196339e-04 -2.669369e-05 0.000000e+00
5.719101e-04 4.453454e-05 0.000000e+00
6.850655e-04 1.581861e-04 0.000000e+00
7.618783e-04 3.017272e-04 0.000000e+00
8.073734e-04 4.623353e-04 0.000000e+00
8.295896e-04 6.283838e-04 0.000000e+00
8.400491e-04 7.922609e-04 0.000000e+00
8.522131e-04 9.513424e-04 0.000000e+00
8.795289e-04 1.108573e-03 0.000000e+00
0.000000e+00 0.000000e+00 0.000000e+00
1.120680e-04 -4.174143e-05 0.000000e+00
2.064210e-04 -2.235995e-05 0.000000e+00
2.814995e-04 4.730811e-05 0.000000e+00
3.377017e-04 1.570573e-04 0.000000e+00
3.764667e-04 2.952889e-04 0.000000e+00
4.004724e-04 4.508932e-04 0.000000e+00
4.129903e-04 6.132750e-04 0.000000e+00
4.199993e-04 7.754140e-04 0.000000e+00
4.283049e-04 9.356220e-04 0.000000e+00
4.438276e-04 1.097026e-03 0.000000e+00
0.000000e+00 0.000000e+00 0.000000e+00
0.000000e+00 -2.749527e-05 0.000000e+00
0.000000e+00 -4.854188e-06 0.000000e+00
0.000000e+00 6.443528e-05 0.000000e+00
0.000000e+00 1.724705e-04 0.000000e+00
0.000000e+00 3.086883e-04 0.000000e+00
0.000000e+00 4.624122e-04 0.000000e+00
0.000000e+00 6.233691e-04 0.000000e+00
0.000000e+00 7.846805e-04 0.000000e+00
0.000000e+00 9.451587e-04 0.000000e+00
0.000000e+00 1.107900e-03 0.000000e+00
</DataArray>
<DataArray Name="shear" type="Float64" NumberOfComponents="1" format="ascii">
1.141053e-02
1.575675e-02
2.216570e-02
2.694647e-02
3.033052e-02
3.237376e-02
3.261789e-02
3.063761e-02
2.571926e-02
1.886521e-02
1.545095e-02
1.144968e-02
1.522115e-02
2.098221e-02
2.570709e-02
2.956059e-02
3.236925e-02
3.382467e-02
3.365630e-02
3.105954e-02
2.515721e-02
1.975174e-02
1.181622e-02
1.402148e-02
1.773991e-02
2.192079e-02
2.675590e-02
3.203518e-02
3.790719e-02
4.406916e-02
4.984868e-02
5.247596e-02
5.218052e-02
1.191371e-02
1.235239e-02
1.313584e-02
1.494387e-02
1.790579e-02
2.183423e-02
2.693546e-02
3.310559e-02
3.992488e-02
4.422112e-02
4.709925e-02
1.159772e-02
1.092453e-02
9.810976e-03
9.612903e-03
9.871593e-03
1.021244e-02
1.051658e-02
1.055789e-02
9.503799e-03
5.767580e-03
1.591944e-03
1.084239e-02
9.737866e-03
8.094000e-03
7.549142e-03
7.403842e-03
7.339037e-03
7.196973e-03
6.739124e-03
5.494230e-03
2.878702e-03
5.480737e-04
9.698845e-03
8.509689e-03
6.821972e-03
6.212166e-03
5.942137e-03
5.745099e-03
5.486071e-03
5.001706e-03
4.002457e-03
2.234974e-03
8.080832e-04
8.353470e-03
7.290814e-03
5.829402e-03
5.277629e-03
4.997299e-03
4.796871e-03
4.571825e-03
4.163433e-03
3.364391e-03
2.062835e-03
1.060856e-03
6.952981e-03
6.112553e-03
4.986309e-03
4.542935e-03
4.325433e-03
4.198469e-03
4.033412e-03
3.689968e-03
3.046920e-03
2.071975e-03
1.360434e-03
5.606511e-03
5.005828e-03
4.226030e-03
3.931638e-03
3.827766e-03
3.778551e-03
3.660744e-03
3.378279e-03
2.875496e-03
2.154658e-03
1.657096e-03
4.408720e-03
4.012396e-03
3.536978e-03
3.406928e-03
3.413103e-03
3.430054e-03
3.363526e-03
3.152805e-03
2.779303e-03
2.268414e-03
1.935631e-03
3.383859e-03
3.140660e-03
2.909938e-03
2.931783e-03
3.041671e-03
3.124238e-03
3.115983e-03
2.982489e-03
2.726163e-03
2.388516e-03
2.183631e-03
2.517079e-03
2.378418e-03
2.343398e-03
2.505205e-03
2.713687e-03
2.863687e-03
2.912682e-03
2.851933e-03
2.697669e-03
2.500075e-03
2.392086e-03
1.780606e-03
1.720874e-03
1.859109e-03
2.154968e-03
2.449936e-03
2.659166e-03
2.758035e-03
2.756164e-03
2.683339e-03
2.593079e-03
2.555752e-03
1.143667e-03
1.157662e-03
1.479499e-03
1.900404e-03
2.262363e-03
2.514310e-03
2.650014e-03
2.690896e-03
2.676684e-03
2.661593e-03
2.672326e-03
5.751414e-04
7.057225e-04
1.235318e-03
1.747192e-03
2.148924e-03
2.425890e-03
2.585540e-03
2.653349e-03
2.674734e-03
2.703694e-03
2.741289e-03
2.079619e-04
5.115864e-04
1.151456e-03
1.692921e-03
2.107773e-03
2.394052e-03
2.563349e-03
2.641000e-03
2.674491e-03
2.717804e-03
2.763504e-03
</DataArray>
<DataArray Name="stress" type="Float64" NumberOfComponents="9" format="ascii">
-9.703710e+04 4.163998e+03 0.000000e+00 4.163998e+03 -1.559638e+05 0.000000e+00 0.000000e+00 0.000000e+00 0.000000e+00
-8.834312e+04 4.033195e+03 0.000000e+00 4.033195e+03 -1.549159e+05 0.000000e+00 0.000000e+00 0.000000e+00 0.000000e+00
-8.457741e+04 4.267662e+03 0.000000e+00 4.267662e+03 -1.640964e+05 0.000000e+00 0.000000e+00 0.000000e+00 0.000000e+00
-8.410245e+04 4.388181e+03 0.000000e+00 4.388181e+03 -1.728053e+05 0.000000e+00 0.000000e+00 0.000000e+00 0.000000e+00
-8.598807e+04 4.659209e+03 0.000000e+00 4.659209e+03 -1.812529e+05 0.000000e+00 0.000000e+00 0.000000e+00 0.000000e+00
-8.946744e+04 4.921964e+03 0.000000e+00 4.921964e+03 -1.894682e+05 0.000000e+00 0.000000e+00 0.000000e+00 0.000000e+00
-9.382802e+04 5.061818e+03 0.000000e+00 5.061818e+03 -1.978872e+05 0.000000e+00 0.000000e+00 0.000000e+00 0.000000e+00
-9.895390e+04 4.629890e+03 0.000000e+00 4.629890e+03 -2.053076e+05 0.000000e+00 0.000000e+00 0.000000e+00 0.000000e+00
-1.061605e+05 2.229293e+03 0.000000e+00 2.229293e+03 -2.094017e+05 0.000000e+00 0.000000e+00 0.000000e+00 0.000000e+00
-1.185847e+05 -1.234333e+03 0.000000e+00 -1.234333e+03 -2.101556e+05 0.000000e+00 0.000000e+00 0.000000e+00 0.000000e+00
-1.265834e+05 -1.927165e+03 0.000000e+00 -1.927165e+03 -2.091614e+05 0.000000e+00 0.000000e+00 0.000000e+00 0.000000e+00
-9.545338e+04 1.121204e+04 0.000000e+00 1.121204e+04 -1.479122e+05 0.000000e+00 0.000000e+00 0.000000e+00 0.000000e+00
-8.772276e+04 1.033884e+04 0.000000e+00 1.033884e+04 -1.469687e+05 0.000000e+00 0.000000e+00 0.000000e+00 0.000000e+00
-8.442014e+04 9.849924e+03 0.000000e+00 9.849924e+03 -1.549662e+05 0.000000e+00 0.000000e+00 0.000000e+00 0.000000e+00
-8.446545e+04 9.739829e+03 0.000000e+00 9.739829e+03 -1.629141e+05 0.000000e+00 0.000000e+00 0.000000e+00 0.000000e+00
-8.665635e+04 1.005398e+04 0.000000e+00 1.005398e+04 -1.712926e+05 0.000000e+00 0.000000e+00 0.000000e+00 0.000000e+00
-9.006404e+04 1.047236e+04 0.000000e+00 1.047236e+04 -1.801267e+05 0.000000e+00 0.000000e+00 0.000000e+00 0.000000e+00
-9.432697e+04 1.061710e+04 0.000000e+00 1.061710e+04 -1.899515e+05 0.000000e+00 0.000000e+00 0.000000e+00 0.000000e+00
-9.862799e+04 9.476749e+03 0.000000e+00 9.476749e+03 -1.995894e+05 0.000000e+00 0.000000e+00 0.000000e+00 0.000000e+00
-1.042731e+05 5.685399e+03 0.000000e+00 5.685399e+03 -2.091994e+05 0.000000e+00 0.000000e+00 0.000000e+00 0.000000e+00
-1.131496e+05 -1.711997e+02 0.000000e+00 -1.711997e+02 -2.145162e+05 0.000000e+00 0.000000e+00 0.000000e+00 0.000000e+00
-1.298005e+05 -5.919797e+03 0.000000e+00 -5.919797e+03 -2.274353e+05 0.000000e+00 0.000000e+00 0.000000e+00 0.000000e+00
-9.156538e+04 1.826756e+04 0.000000e+00 1.826756e+04 -1.307033e+05 0.000000e+00 0.000000e+00 0.000000e+00 0.000000e+00
-8.592218e+04 1.729528e+04 0.000000e+00 1.729528e+04 -1.295009e+05 0.000000e+00 0.000000e+00 0.000000e+00 0.000000e+00
-8.390854e+04 1.710198e+04 0.000000e+00 1.710198e+04 -1.340161e+05 0.000000e+00 0.000000e+00 0.000000e+00 0.000000e+00
-8.535199e+04 1.813311e+04 0.000000e+00 1.813311e+04 -1.393420e+05 0.000000e+00 0.000000e+00 0.000000e+00 0.000000e+00
-8.912593e+04 1.988158e+04 0.000000e+00 1.988158e+04 -1.458900e+05 0.000000e+00 0.000000e+00 0.000000e+00 0.000000e+00
-9.395984e+04 2.182085e+04 0.000000e+00 2.182085e+04 -1.540336e+05 0.000000e+00 0.000000e+00 0.000000e+00 0.000000e+00
-1.000169e+05 2.367977e+04 0.000000e+00 2.367977e+04 -1.634863e+05 0.000000e+00 0.000000e+00 0.000000e+00 0.000000e+00
-1.057275e+05 2.441722e+04 0.000000e+00 2.441722e+04 -1.731680e+05 0.000000e+00 0.000000e+00 0.000000e+00 0.000000e+00
-1.131480e+05 2.360665e+04 0.000000e+00 2.360665e+04 -1.867438e+05 0.000000e+00 0.000000e+00 0.000000e+00 0.000000e+00
-1.259394e+05 2.067821e+04 0.000000e+00 2.067821e+04 -2.053270e+05 0.000000e+00 0.000000e+00 0.000000e+00 0.000000e+00
-1.496092e+05 1.448520e+04 0.000000e+00 1.448520e+04 -2.314300e+05 0.000000e+00 0.000000e+00 0.000000e+00 0.000000e+00
-8.733356e+04 2.045541e+04 0.000000e+00 2.045541e+04 -1.142464e+05 0.000000e+00 0.000000e+00 0.000000e+00 0.000000e+00
-8.404644e+04 1.965981e+04 0.000000e+00 1.965981e+04 -1.130558e+05 0.000000e+00 0.000000e+00 0.000000e+00 0.000000e+00
-8.303309e+04 1.952517e+04 0.000000e+00 1.952517e+04 -1.135206e+05 0.000000e+00 0.000000e+00 0.000000e+00 0.000000e+00
-8.416713e+04 2.057021e+04 0.000000e+00 2.057021e+04 -1.129630e+05 0.000000e+00 0.000000e+00 0.000000e+00 0.000000e+00
-8.620497e+04 2.180372e+04 0.000000e+00 2.180372e+04 -1.115370e+05 0.000000e+00 0.000000e+00 0.000000e+00 0.000000e+00
-8.840959e+04 2.324646e+04 0.000000e+00 2.324646e+04 -1.092627e+05 0.000000e+00 0.000000e+00 0.000000e+00 0.000000e+00
-9.040684e+04 2.394290e+04 0.000000e+00 2.394290e+04 -1.055702e+05 0.000000e+00 0.000000e+00 0.000000e+00 0.000000e+00
-9.135480e+04 2.406154e+04 0.000000e+00 2.406154e+04 -1.007835e+05 0.000000e+00 0.000000e+00 0.000000e+00 0.000000e+00
-9.236252e+04 2.368044e+04 0.000000e+00 2.368044e+04 -9.416502e+04 0.000000e+00 0.000000e+00 0.000000e+00 0.000000e+00
-8.802403e+04 1.906304e+04 0.000000e+00 1.906304e+04 -8.183595e+04 0.000000e+00 0.000000e+00 0.000000e+00 0.000000e+00
-7.776469e+04 1.543478e+04 0.000000e+00 1.543478e+04 -7.330270e+04 0.000000e+00 0.000000e+00 0.000000e+00 0.000000e+00
-8.353091e+04 2.026838e+04 0.000000e+00 2.026838e+04 -1.017785e+05 0.000000e+00 0.000000e+00 0.000000e+00 0.000000e+00
-8.292180e+04 1.961141e+04 0.000000e+00 1.961141e+04 -1.012333e+05 0.000000e+00 0.000000e+00 0.000000e+00 0.000000e+00
-8.410427e+04 1.903521e+04 0.000000e+00 1.903521e+04 -1.006469e+05 0.000000e+00 0.000000e+00 0.000000e+00 0.000000e+00
-8.667938e+04 1.938549e+04 0.000000e+00 1.938549e+04 -9.928191e+04 0.000000e+00 0.000000e+00 0.000000e+00 0.000000e+00
-8.962607e+04 2.000280e+04 0.000000e+00 2.000280e+04 -9.707743e+04 0.000000e+00 0.000000e+00 0.000000e+00 0.000000e+00
-9.256952e+04 2.039604e+04 0.000000e+00 2.039604e+04 -9.391837e+04 0.000000e+00 0.000000e+00 0.000000e+00 0.000000e+00
-9.478238e+04 2.022595e+04 0.000000e+00 2.022595e+04 -8.948316e+04 0.000000e+00 0.000000e+00 0.000000e+00 0.000000e+00
-9.653723e+04 1.908618e+04 0.000000e+00 1.908618e+04 -8.356576e+04 0.000000e+00 0.000000e+00 0.000000e+00 0.000000e+00
-9.647930e+04 1.568966e+04 0.000000e+00 1.568966e+04 -7.561453e+04 0.000000e+00 0.000000e+00 0.000000e+00 0.000000e+00
-8.917752e+04 7.789829e+03 0.000000e+00 7.789829e+03 -6.829003e+04 0.000000e+00 0.000000e+00 0.000000e+00 0.000000e+00
-6.616335e+04 1.425302e+03 0.000000e+00 1.425302e+03 -5.822831e+04 0.000000e+00 0.000000e+00 0.000000e+00 0.000000e+00
-7.950859e+04 1.922735e+04 0.000000e+00 1.922735e+04 -9.141172e+04 0.000000e+00 0.000000e+00 0.000000e+00 0.000000e+00
-8.123733e+04 1.861523e+04 0.000000e+00 1.861523e+04 -9.128566e+04 0.000000e+00 0.000000e+00 0.000000e+00 0.000000e+00
-8.391182e+04 1.757449e+04 0.000000e+00 1.757449e+04 -8.982607e+04 0.000000e+00 0.000000e+00 0.000000e+00 0.000000e+00
-8.709294e+04 1.716601e+04 0.000000e+00 1.716601e+04 -8.777153e+04 0.000000e+00 0.000000e+00 0.000000e+00 0.000000e+00
-8.994708e+04 1.680660e+04 0.000000e+00 1.680660e+04 -8.507227e+04 0.000000e+00 0.000000e+00 0.000000e+00 0.000000e+00
-9.230239e+04 1.606754e+04 0.000000e+00 1.606754e+04 -8.154084e+04 0.000000e+00 0.000000e+00 0.000000e+00 0.000000e+00
-9.373257e+04 1.459789e+04 0.000000e+00 1.459789e+04 -7.708334e+04 0.000000e+00 0.000000e+00 0.000000e+00 0.000000e+00
-9.397250e+04 1.192189e+04 0.000000e+00 1.192189e+04 -7.180498e+04 0.000000e+00 0.000000e+00 0.000000e+00 0.000000e+00
-9.121409e+04 7.325084e+03 0.000000e+00 7.325084e+03 -6.648141e+04 0.000000e+00 0.000000e+00 0.000000e+00 0.000000e+00
-7.931250e+04 1.618095e+03 0.000000e+00 1.618095e+03 -6.232793e+04 0.000000e+00 0.000000e+00 0.000000e+00 0.000000e+00
-6.174235e+04 -8.898818e+02 0.000000e+00 -8.898818e+02 -5.814987e+04 0.000000e+00 0.000000e+00 0.000000e+00 0.000000e+00
-7.560207e+04 1.773263e+04 0.000000e+00 1.773263e+04 -8.299897e+04 0.000000e+00 0.000000e+00 0.000000e+00 0.000000e+00
-7.921592e+04 1.709197e+04 0.000000e+00 1.709197e+04 -8.319070e+04 0.000000e+00 0.000000e+00 0.000000e+00 0.000000e+00
-8.308291e+04 1.558219e+04 0.000000e+00 1.558219e+04 -8.136398e+04 0.000000e+00 0.000000e+00 0.000000e+00 0.000000e+00
-8.645643e+04 1.455852e+04 0.000000e+00 1.455852e+04 -7.919049e+04 0.000000e+00 0.000000e+00 0.000000e+00 0.000000e+00
-8.904627e+04 1.341224e+04 0.000000e+00 1.341224e+04 -7.651595e+04 0.000000e+00 0.000000e+00 0.000000e+00 0.000000e+00
-9.079590e+04 1.185082e+04 0.000000e+00 1.185082e+04 -7.327425e+04 0.000000e+00 0.000000e+00 0.000000e+00 0.000000e+00
-9.135967e+04 9.639610e+03 0.000000e+00 9.639610e+03 -6.960473e+04 0.000000e+00 0.000000e+00 0.000000e+00 0.000000e+00
-9.018525e+04 6.552908e+03 0.000000e+00 6.552908e+03 -6.588012e+04 0.000000e+00 0.000000e+00 0.000000e+00 0.000000e+00
-8.562702e+04 2.631184e+03 0.000000e+00 2.631184e+03 -6.264895e+04 0.000000e+00 0.000000e+00 0.000000e+00 0.000000e+00
-7.520034e+04 -4.748942e+02 0.000000e+00 -4.748942e+02 -6.057121e+04 0.000000e+00 0.000000e+00 0.000000e+00 0.000000e+00
-6.374426e+04 -1.440844e+03 0.000000e+00 -1.440844e+03 -5.856564e+04 0.000000e+00 0.000000e+00 0.000000e+00 0.000000e+00
-7.212959e+04 1.591472e+04 0.000000e+00 1.591472e+04 -7.653860e+04 0.000000e+00 0.000000e+00 0.000000e+00 0.000000e+00
-7.699822e+04 1.529581e+04 0.000000e+00 1.529581e+04 -7.683126e+04 0.000000e+00 0.000000e+00 0.000000e+00 0.000000e+00
-8.168697e+04 1.350440e+04 0.000000e+00 1.350440e+04 -7.493059e+04 0.000000e+00 0.000000e+00 0.000000e+00 0.000000e+00
-8.508112e+04 1.199601e+04 0.000000e+00 1.199601e+04 -7.288531e+04 0.000000e+00 0.000000e+00 0.000000e+00 0.000000e+00
-8.741501e+04 1.035525e+04 0.000000e+00 1.035525e+04 -7.054496e+04 0.000000e+00 0.000000e+00 0.000000e+00 0.000000e+00
-8.862205e+04 8.388251e+03 0.000000e+00 8.388251e+03 -6.798577e+04 0.000000e+00 0.000000e+00 0.000000e+00 0.000000e+00
-8.848855e+04 5.977502e+03 0.000000e+00 5.977502e+03 -6.534644e+04 0.000000e+00 0.000000e+00 0.000000e+00 0.000000e+00
-8.647752e+04 3.114645e+03 0.000000e+00 3.114645e+03 -6.287889e+04 0.000000e+00 0.000000e+00 0.000000e+00 0.000000e+00
-8.187498e+04 2.902275e+02 0.000000e+00 2.902275e+02 -6.101377e+04 0.000000e+00 0.000000e+00 0.000000e+00 0.000000e+00
-7.386146e+04 -1.201760e+03 0.000000e+00 -1.201760e+03 -6.007852e+04 0.000000e+00 0.000000e+00 0.000000e+00 0.000000e+00
-6.630195e+04 -1.312021e+03 0.000000e+00 -1.312021e+03 -5.904329e+04 0.000000e+00 0.000000e+00 0.000000e+00 0.000000e+00
-6.932095e+04 1.401540e+04 0.000000e+00 1.401540e+04 -7.176140e+04 0.000000e+00 0.000000e+00 0.000000e+00 0.000000e+00
-7.483716e+04 1.342223e+04 0.000000e+00 1.342223e+04 -7.205259e+04 0.000000e+00 0.000000e+00 0.000000e+00 0.000000e+00
-7.993976e+04 1.155124e+04 0.000000e+00 1.155124e+04 -7.025713e+04 0.000000e+00 0.000000e+00 0.000000e+00 0.000000e+00
-8.330163e+04 9.777469e+03 0.000000e+00 9.777469e+03 -6.846633e+04 0.000000e+00 0.000000e+00 0.000000e+00 0.000000e+00
-8.536941e+04 7.896109e+03 0.000000e+00 7.896109e+03 -6.658877e+04 0.000000e+00 0.000000e+00 0.000000e+00 0.000000e+00
-8.618909e+04 5.801004e+03 0.000000e+00 5.801004e+03 -6.467041e+04 0.000000e+00 0.000000e+00 0.000000e+00 0.000000e+00
-8.563995e+04 3.458906e+03 0.000000e+00 3.458906e+03 -6.279896e+04 0.000000e+00 0.000000e+00 0.000000e+00 0.000000e+00
-8.349996e+04 1.075465e+03 0.000000e+00 1.075465e+03 -6.125118e+04 0.000000e+00 0.000000e+00 0.000000e+00 0.000000e+00
-7.963314e+04 -8.027592e+02 0.000000e+00 -8.027592e+02 -6.027546e+04 0.000000e+00 0.000000e+00 0.000000e+00 0.000000e+00
-7.382888e+04 -1.368365e+03 0.000000e+00 -1.368365e+03 -5.991718e+04 0.000000e+00 0.000000e+00 0.000000e+00 0.000000e+00
-6.883177e+04 -1.142767e+03 0.000000e+00 -1.142767e+03 -5.932203e+04 0.000000e+00 0.000000e+00 0.000000e+00 0.000000e+00
-6.732799e+04 1.226642e+04 0.000000e+00 1.226642e+04 -6.842681e+04 0.000000e+00 0.000000e+00 0.000000e+00 0.000000e+00
-7.280817e+04 1.164993e+04 0.000000e+00 1.164993e+04 -6.863530e+04 0.000000e+00 0.000000e+00 0.000000e+00 0.000000e+00
-7.797615e+04 9.790286e+03 0.000000e+00 9.790286e+03 -6.699019e+04 0.000000e+00 0.000000e+00 0.000000e+00 0.000000e+00
-8.127023e+04 7.925259e+03 0.000000e+00 7.925259e+03 -6.546104e+04 0.000000e+00 0.000000e+00 0.000000e+00 0.000000e+00
-8.316009e+04 5.984447e+03 0.000000e+00 5.984447e+03 -6.397141e+04 0.000000e+00 0.000000e+00 0.000000e+00 0.000000e+00
-8.376662e+04 3.916367e+03 0.000000e+00 3.916367e+03 -6.253034e+04 0.000000e+00 0.000000e+00 0.000000e+00 0.000000e+00
-8.312966e+04 1.817275e+03 0.000000e+00 1.817275e+03 -6.126554e+04 0.000000e+00 0.000000e+00 0.000000e+00 0.000000e+00
-8.132079e+04 -2.235238e+01 0.000000e+00 -2.235238e+01 -6.037192e+04 0.000000e+00 0.000000e+00 0.000000e+00 0.000000e+00
-7.839558e+04 -1.226510e+03 0.000000e+00 -1.226510e+03 -5.992773e+04 0.000000e+00 0.000000e+00 0.000000e+00 0.000000e+00
-7.434784e+04 -1.322217e+03 0.000000e+00 -1.322217e+03 -5.985583e+04 0.000000e+00 0.000000e+00 0.000000e+00 0.000000e+00
-7.109654e+04 -9.654059e+02 0.000000e+00 -9.654059e+02 -5.952273e+04 0.000000e+00 0.000000e+00 0.000000e+00 0.000000e+00
-6.582391e+04 1.048129e+04 0.000000e+00 1.048129e+04 -6.627211e+04 0.000000e+00 0.000000e+00 0.000000e+00 0.000000e+00
-7.096186e+04 9.909347e+03 0.000000e+00 9.909347e+03 -6.630188e+04 0.000000e+00 0.000000e+00 0.000000e+00 0.000000e+00
-7.597968e+04 8.182562e+03 0.000000e+00 8.182562e+03 -6.476425e+04 0.000000e+00 0.000000e+00 0.000000e+00 0.000000e+00
-7.919862e+04 6.371537e+03 0.000000e+00 6.371537e+03 -6.344602e+04 0.000000e+00 0.000000e+00 0.000000e+00 0.000000e+00
-8.097344e+04 4.489642e+03 0.000000e+00 4.489642e+03 -6.222050e+04 0.000000e+00 0.000000e+00 0.000000e+00 0.000000e+00
-8.152866e+04 2.589781e+03 0.000000e+00 2.589781e+03 -6.114917e+04 0.000000e+00 0.000000e+00 0.000000e+00 0.000000e+00
-8.108592e+04 8.385908e+02 0.000000e+00 8.385908e+02 -6.035466e+04 0.000000e+00 0.000000e+00 0.000000e+00 0.000000e+00
-7.978909e+04 -5.410396e+02 0.000000e+00 -5.410396e+02 -5.989360e+04 0.000000e+00 0.000000e+00 0.000000e+00 0.000000e+00
-7.773477e+04 -1.309457e+03 0.000000e+00 -1.309457e+03 -5.975379e+04 0.000000e+00 0.000000e+00 0.000000e+00 0.000000e+00
-7.506316e+04 -1.173744e+03 0.000000e+00 -1.173744e+03 -5.982767e+04 0.000000e+00 0.000000e+00 0.000000e+00 0.000000e+00
-7.305874e+04 -7.889368e+02 0.000000e+00 -7.889368e+02 -5.965672e+04 0.000000e+00 0.000000e+00 0.000000e+00 0.000000e+00
-6.474850e+04 8.711511e+03 0.000000e+00 8.711511e+03 -6.492371e+04 0.000000e+00 0.000000e+00 0.000000e+00 0.000000e+00
-6.934020e+04 8.182939e+03 0.000000e+00 8.182939e+03 -6.479326e+04 0.000000e+00 0.000000e+00 0.000000e+00 0.000000e+00
-7.411688e+04 6.690259e+03 0.000000e+00 6.690259e+03 -6.331238e+04 0.000000e+00 0.000000e+00 0.000000e+00 0.000000e+00
-7.721238e+04 5.027981e+03 0.000000e+00 5.027981e+03 -6.211557e+04 0.000000e+00 0.000000e+00 0.000000e+00 0.000000e+00
-7.895652e+04 3.321935e+03 0.000000e+00 3.321935e+03 -6.109429e+04 0.000000e+00 0.000000e+00 0.000000e+00 0.000000e+00
-7.962379e+04 1.698979e+03 0.000000e+00 1.698979e+03 -6.031644e+04 0.000000e+00 0.000000e+00 0.000000e+00 0.000000e+00
-7.948716e+04 3.037687e+02 0.000000e+00 3.037687e+02 -5.983369e+04 0.000000e+00 0.000000e+00 0.000000e+00 0.000000e+00
-7.871074e+04 -7.211127e+02 0.000000e+00 -7.211127e+02 -5.963548e+04 0.000000e+00 0.000000e+00 0.000000e+00 0.000000e+00
-7.741035e+04 -1.212317e+03 0.000000e+00 -1.212317e+03 -5.967256e+04 0.000000e+00 0.000000e+00 0.000000e+00 0.000000e+00
-7.580298e+04 -9.827036e+02 0.000000e+00 -9.827036e+02 -5.982178e+04 0.000000e+00 0.000000e+00 0.000000e+00 0.000000e+00
-7.467831e+04 -6.200503e+02 0.000000e+00 -6.200503e+02 -5.977355e+04 0.000000e+00 0.000000e+00 0.000000e+00 0.000000e+00
-6.396456e+04 6.882241e+03 0.000000e+00 6.882241e+03 -6.407162e+04 0.000000e+00 0.000000e+00 0.000000e+00 0.000000e+00
-6.800612e+04 6.453970e+03 0.000000e+00 6.453970e+03 -6.383449e+04 0.000000e+00 0.000000e+00 0.000000e+00 0.000000e+00
-7.247230e+04 5.242043e+03 0.000000e+00 5.242043e+03 -6.241351e+04 0.000000e+00 0.000000e+00 0.000000e+00 0.000000e+00
-7.546116e+04 3.827504e+03 0.000000e+00 3.827504e+03 -6.127527e+04 0.000000e+00 0.000000e+00 0.000000e+00 0.000000e+00
-7.724403e+04 2.410643e+03 0.000000e+00 2.410643e+03 -6.040790e+04 0.000000e+00 0.000000e+00 0.000000e+00 0.000000e+00
-7.809334e+04 1.110568e+03 0.000000e+00 1.110568e+03 -5.983877e+04 0.000000e+00 0.000000e+00 0.000000e+00 0.000000e+00
-7.827232e+04 4.099094e+01 0.000000e+00 4.099094e+01 -5.954800e+04 0.000000e+00 0.000000e+00 0.000000e+00 0.000000e+00
-7.795470e+04 -7.041136e+02 0.000000e+00 -7.041136e+02 -5.950584e+04 0.000000e+00 0.000000e+00 0.000000e+00 0.000000e+00
-7.727510e+04 -1.014786e+03 0.000000e+00 -1.014786e+03 -5.964163e+04 0.000000e+00 0.000000e+00 0.000000e+00 0.000000e+00
-7.646946e+04 -7.757901e+02 0.000000e+00 -7.757901e+02 -5.982398e+04 0.000000e+00 0.000000e+00 0.000000e+00 0.000000e+00
-7.596409e+04 -4.687836e+02 0.000000e+00 -4.687836e+02 -5.986101e+04 0.000000e+00 0.000000e+00 0.000000e+00 0.000000e+00
-6.342261e+04 5.080672e+03 0.000000e+00 5.080672e+03 -6.356952e+04 0.000000e+00 0.000000e+00 0.000000e+00 0.000000e+00
-6.698969e+04 4.743779e+03 0.000000e+00 4.743779e+03 -6.325229e+04 0.000000e+00 0.000000e+00 0.000000e+00 0.000000e+00
-7.112208e+04 3.823523e+03 0.000000e+00 3.823523e+03 -6.187600e+04 0.000000e+00 0.000000e+00 0.000000e+00 0.000000e+00
-7.404314e+04 2.741984e+03 0.000000e+00 2.741984e+03 -6.079374e+04 0.000000e+00 0.000000e+00 0.000000e+00 0.000000e+00
-7.589093e+04 1.668949e+03 0.000000e+00 1.668949e+03 -6.003501e+04 0.000000e+00 0.000000e+00 0.000000e+00 0.000000e+00
-7.692686e+04 7.092063e+02 0.000000e+00 7.092063e+02 -5.958883e+04 0.000000e+00 0.000000e+00 0.000000e+00 0.000000e+00
-7.738129e+04 -6.309581e+01 0.000000e+00 -6.309581e+01 -5.941138e+04 0.000000e+00 0.000000e+00 0.000000e+00 0.000000e+00
-7.743566e+04 -5.792452e+02 0.000000e+00 -5.792452e+02 -5.945527e+04 0.000000e+00 0.000000e+00 0.000000e+00 0.000000e+00
-7.723637e+04 -7.695450e+02 0.000000e+00 -7.695450e+02 -5.963716e+04 0.000000e+00 0.000000e+00 0.000000e+00 0.000000e+00
-7.700560e+04 -5.669229e+02 0.000000e+00 -5.669229e+02 -5.983271e+04 0.000000e+00 0.000000e+00 0.000000e+00 0.000000e+00
-7.692958e+04 -3.326633e+02 0.000000e+00 -3.326633e+02 -5.993116e+04 0.000000e+00 0.000000e+00 0.000000e+00 0.000000e+00
-6.302343e+04 3.295327e+03 0.000000e+00 3.295327e+03 -6.325490e+04 0.000000e+00 0.000000e+00 0.000000e+00 0.000000e+00
-6.626581e+04 3.064334e+03 0.000000e+00 3.064334e+03 -6.287545e+04 0.000000e+00 0.000000e+00 0.000000e+00 0.000000e+00
-7.014923e+04 2.454303e+03 0.000000e+00 2.454303e+03 -6.154543e+04 0.000000e+00 0.000000e+00 0.000000e+00 0.000000e+00
-7.302018e+04 1.744684e+03 0.000000e+00 1.744684e+03 -6.052525e+04 0.000000e+00 0.000000e+00 0.000000e+00 0.000000e+00
-7.493169e+04 1.043830e+03 0.000000e+00 1.043830e+03 -5.984548e+04 0.000000e+00 0.000000e+00 0.000000e+00 0.000000e+00
-7.611304e+04 4.165587e+02 0.000000e+00 4.165587e+02 -5.947975e+04 0.000000e+00 0.000000e+00 0.000000e+00 0.000000e+00
-7.677560e+04 -7.831700e+01 0.000000e+00 -7.831700e+01 -5.936763e+04 0.000000e+00 0.000000e+00 0.000000e+00 0.000000e+00
-7.710216e+04 -4.019155e+02 0.000000e+00 -4.019155e+02 -5.945254e+04 0.000000e+00 0.000000e+00 0.000000e+00 0.000000e+00
-7.724066e+04 -5.102353e+02 0.000000e+00 -5.102353e+02 -5.965114e+04 0.000000e+00 0.000000e+00 0.000000e+00 0.000000e+00
-7.739191e+04 -3.659289e+02 0.000000e+00 -3.659289e+02 -5.984284e+04 0.000000e+00 0.000000e+00 0.000000e+00 0.000000e+00
-7.759270e+04 -2.106027e+02 0.000000e+00 -2.106027e+02 -5.997946e+04 0.000000e+00 0.000000e+00 0.000000e+00 0.000000e+00
-6.276699e+04 1.492295e+03 0.000000e+00 1.492295e+03 -6.289166e+04 0.000000e+00 0.000000e+00 0.000000e+00 0.000000e+00
-6.586192e+04 1.428680e+03 0.000000e+00 1.428680e+03 -6.252950e+04 0.000000e+00 0.000000e+00 0.000000e+00 0.000000e+00
-6.958905e+04 1.166185e+03 0.000000e+00 1.166185e+03 -6.129255e+04 0.000000e+00 0.000000e+00 0.000000e+00 0.000000e+00
-7.241771e+04 8.366731e+02 0.000000e+00 8.366731e+02 -6.037291e+04 0.000000e+00 0.000000e+00 0.000000e+00 0.000000e+00
-7.436701e+04 5.020485e+02 0.000000e+00 5.020485e+02 -5.975763e+04 0.000000e+00 0.000000e+00 0.000000e+00 0.000000e+00
-7.563524e+04 1.925498e+02 0.000000e+00 1.925498e+02 -5.944168e+04 0.000000e+00 0.000000e+00 0.000000e+00 0.000000e+00
-7.642661e+04 -5.049771e+01 0.000000e+00 -5.049771e+01 -5.936787e+04 0.000000e+00 0.000000e+00 0.000000e+00 0.000000e+00
-7.691638e+04 -2.035876e+02 0.000000e+00 -2.035876e+02 -5.947027e+04 0.000000e+00 0.000000e+00 0.000000e+00 0.000000e+00
-7.725377e+04 -2.518912e+02 0.000000e+00 -2.518912e+02 -5.967223e+04 0.000000e+00 0.000000e+00 0.000000e+00 0.000000e+00
-7.762084e+04 -1.776510e+02 0.000000e+00 -1.776510e+02 -5.985602e+04 0.000000e+00 0.000000e+00 0.000000e+00 0.000000e+00
-7.797305e+04 -1.017826e+02 0.000000e+00 -1.017826e+02 -6.000567e+04 0.000000e+00 0.000000e+00 0.000000e+00 0.000000e+00
-6.256779e+04 2.656416e+02 0.000000e+00 2.656416e+02 -6.244876e+04 0.000000e+00 0.000000e+00 0.000000e+00 0.000000e+00
-6.569793e+04 3.450258e+02 0.000000e+00 3.450258e+02 -6.222358e+04 0.000000e+00 0.000000e+00 0.000000e+00 0.000000e+00
-6.940727e+04 3.228779e+02 0.000000e+00 3.228779e+02 -6.116989e+04 0.000000e+00 0.000000e+00 0.000000e+00 0.000000e+00
-7.222065e+04 2.322964e+02 0.000000e+00 2.322964e+02 -6.032634e+04 0.000000e+00 0.000000e+00 0.000000e+00 0.000000e+00
-7.418348e+04 1.222749e+02 0.000000e+00 1.222749e+02 -5.973556e+04 0.000000e+00 0.000000e+00 0.000000e+00 0.000000e+00
-7.547775e+04 1.140835e+01 0.000000e+00 1.140835e+01 -5.943269e+04 0.000000e+00 0.000000e+00 0.000000e+00 0.000000e+00
-7.631297e+04 -7.765713e+01 0.000000e+00 -7.765713e+01 -5.937778e+04 0.000000e+00 0.000000e+00 0.000000e+00 0.000000e+00
-7.685855e+04 -1.279125e+02 0.000000e+00 -1.279125e+02 -5.948490e+04 0.000000e+00 0.000000e+00 0.000000e+00 0.000000e+00
-7.726045e+04 -1.459126e+02 0.000000e+00 -1.459126e+02 -5.968433e+04 0.000000e+00 0.000000e+00 0.000000e+00 0.000000e+00
-7.769548e+04 -1.196068e+02 0.000000e+00 -1.196068e+02 -5.986447e+04 0.000000e+00 0.000000e+00 0.000000e+00 0.000000e+00
-7.809348e+04 -9.121630e+01 0.000000e+00 -9.121630e+01 -6.001523e+04 0.000000e+00 0.000000e+00 0.000000e+00 0.000000e+00
</DataArray>
<DataArray Name="vol_eps" type="Float64" NumberOfComponents="1" format="ascii">
-8.535441e-03
-7.660508e-03
-7.413681e-03
-7.372842e-03
-7.660357e-03
-8.220404e-03
-9.106673e-03
-1.025507e-02
-1.161553e-02
-1.316186e-02
-1.380646e-02
-7.919627e-03
-7.137923e-03
-6.944826e-03
-6.938084e-03
-7.181693e-03
-7.678603e-03
-8.480971e-03
-9.479291e-03
-1.081869e-02
-1.238955e-02
-1.491117e-02
-6.531841e-03
-5.947378e-03
-5.832482e-03
-5.911279e-03
-6.070096e-03
-6.272951e-03
-6.622753e-03
-7.152726e-03
-7.921509e-03
-9.431950e-03
-1.262972e-02
-5.114837e-03
-4.781305e-03
-4.683270e-03
-4.564041e-03
-4.300076e-03
-3.824293e-03
-3.157329e-03
-2.324093e-03
-1.031695e-03
1.144479e-03
3.316318e-03
-4.007184e-03
-3.972192e-03
-4.086870e-03
-4.177136e-03
-4.214173e-03
-4.184738e-03
-4.022643e-03
-3.738271e-03
-3.237223e-03
-2.362479e-03
-2.254743e-04
-3.058172e-03
-3.246047e-03
-3.429497e-03
-3.529222e-03
-3.548330e-03
-3.477481e-03
-3.283002e-03
-2.954388e-03
-2.433631e-03
-1.384646e-03
3.437793e-05
-2.278539e-03
-2.621132e-03
-2.850193e-03
-2.953655e-03
-2.958580e-03
-2.868154e-03
-2.667354e-03
-2.340342e-03
-1.818177e-03
-9.988626e-04
-1.367255e-04
-1.680484e-03
-2.098088e-03
-2.353286e-03
-2.460275e-03
-2.466909e-03
-2.380887e-03
-2.193236e-03
-1.888974e-03
-1.457235e-03
-8.781959e-04
-3.331910e-04
-1.230404e-03
-1.670752e-03
-1.936348e-03
-2.052109e-03
-2.068308e-03
-1.993406e-03
-1.827884e-03
-1.581385e-03
-1.260778e-03
-8.650195e-04
-5.112324e-04
-9.150092e-04
-1.331756e-03
-1.592947e-03
-1.716788e-03
-1.743793e-03
-1.686777e-03
-1.558675e-03
-1.378735e-03
-1.156307e-03
-8.937980e-04
-6.672074e-04
-7.031246e-04
-1.070276e-03
-1.317771e-03
-1.444224e-03
-1.480020e-03
-1.446155e-03
-1.362630e-03
-1.245452e-03
-1.101338e-03
-9.370690e-04
-7.996314e-04
-5.662356e-04
-8.767915e-04
-1.102710e-03
-1.225841e-03
-1.272342e-03
-1.264390e-03
-1.222182e-03
-1.156806e-03
-1.074503e-03
-9.833969e-04
-9.095345e-04
-4.808249e-04
-7.395005e-04
-9.401054e-04
-1.056690e-03
-1.113379e-03
-1.129996e-03
-1.121969e-03
-1.097983e-03
-1.063512e-03
-1.025387e-03
-9.961692e-04
-4.329851e-04
-6.481057e-04
-8.216244e-04
-9.346844e-04
-1.000975e-03
-1.036552e-03
-1.053811e-03
-1.060568e-03
-1.060552e-03
-1.059208e-03
-1.060893e-03
-3.993954e-04
-5.846785e-04
-7.424913e-04
-8.539598e-04
-9.283671e-04
-9.778725e-04
-1.012203e-03
-1.039097e-03
-1.061506e-03
-1.083732e-03
-1.105480e-03
-3.662783e-04
-5.403365e-04
-6.937583e-04
-8.073528e-04
-8.879667e-04
-9.458311e-04
-9.901875e-04
-1.028514e-03
-1.063511e-03
-1.098973e-03
-1.131728e-03
-3.272624e-04
-5.118127e-04
-6.761610e-04
-7.929202e-04
-8.755020e-04
-9.357494e-04
-9.837302e-04
-1.025818e-03
-1.064680e-03
-1.104283e-03
-1.140241e-03
</DataArray>
</PointData>
</Piece>
</UnstructuredGrid>
</VTKFile>
