<?xml version="1.0"?>
<VTKFile type="UnstructuredGrid" version="0.1">
<UnstructuredGrid>
<FieldData>
<DataArray Name="TIME" type="Float64" format="ascii" NumberOfTuples="1">
0.000000e+00
</DataArray>
</FieldData>
<FieldData>
<DataArray Name="CYCLE" type="Int32" format="ascii" NumberOfTuples="1">
0
</DataArray>
</FieldData>
<Piece NumberOfPoints="187" NumberOfCells="160">
<Points>
<DataArray NumberOfComponents="3" type="Float64" format="ascii">
0.000000e+00 0.000000e+00 0.000000e+00
0.000000e+00 1.995723e-01 0.000000e+00
0.000000e+00 3.990817e-01 0.000000e+00
0.000000e+00 5.985280e-01 0.000000e+00
0.000000e+00 7.979060e-01 0.000000e+00
0.000000e+00 9.972057e-01 0.000000e+00
0.000000e+00 1.196423e+00 0.000000e+00
0.000000e+00 1.395576e+00 0.000000e+00
0.000000e+00 1.594723e+00 0.000000e+00
0.000000e+00 1.793961e+00 0.000000e+00
0.000000e+00 1.993250e+00 0.000000e+00
2.250000e-01 0.000000e+00 0.000000e+00
2.251036e-01 1.995956e-01 0.000000e+00
2.251836e-01 3.991269e-01 0.000000e+00
2.252503e-01 5.985975e-01 0.000000e+00
2.253089e-01 7.980059e-01 0.000000e+00
2.253585e-01 9.973453e-01 0.000000e+00
2.253883e-01 1.196606e+00 0.000000e+00
2.253715e-01 1.395787e+00 0.000000e+00
2.252665e-01 1.594907e+00 0.000000e+00
2.250640e-01 1.794019e+00 0.000000e+00
2.250000e-01 1.993250e+00 0.000000e+00
4.500000e-01 0.000000e+00 0.000000e+00
4.501890e-01 1.996304e-01 0.000000e+00
4.503380e-01 3.992131e-01 0.000000e+00
4.504595e-01 5.987517e-01 0.000000e+00
4.505626e-01 7.982464e-01 0.000000e+00
4.506501e-01 9.976962e-01 0.000000e+00
4.507120e-01 1.197093e+00 0.000000e+00
4.507186e-01 1.396416e+00 0.000000e+00
4.506270e-01 1.595616e+00 0.000000e+00
4.503935e-01 1.794583e+00 0.000000e+00
4.500000e-01 1.993250e+00 0.000000e+00
6.750000e-01 0.000000e+00 0.000000e+00
6.752504e-01 1.996793e-01 0.000000e+00
6.754445e-01 3.993312e-01 0.000000e+00
6.756000e-01 5.989608e-01 0.000000e+00
6.757258e-01 7.985731e-01 0.000000e+00
6.758248e-01 9.981743e-01 0.000000e+00
6.758881e-01 1.197775e+00 0.000000e+00
6.758972e-01 1.397391e+00 0.000000e+00
6.758147e-01 1.597052e+00 0.000000e+00
6.756049e-01 1.796839e+00 0.000000e+00
6.746066e-01 1.997029e+00 0.000000e+00
9.000000e-01 0.000000e+00 0.000000e+00
9.002843e-01 1.997362e-01 0.000000e+00
9.004998e-01 3.994635e-01 0.000000e+00
9.006664e-01 5.991870e-01 0.000000e+00
9.007925e-01 7.989141e-01 0.000000e+00
9.008788e-01 9.986550e-01 0.000000e+00
9.009149e-01 1.198425e+00 0.000000e+00
9.008777e-01 1.398243e+00 0.000000e+00
9.007328e-01 1.598135e+00 0.000000e+00
9.003456e-01 1.798135e+00 0.000000e+00
8.996347e-01 1.998093e+00 0.000000e+00
1.125000e+00 0.000000e+00 0.000000e+00
1.125293e+00 1.997944e-01 0.000000e+00
1.125510e+00 3.995927e-01 0.000000e+00
1.125672e+00 5.993989e-01 0.000000e+00
1.125785e+00 7.992197e-01 0.000000e+00
1.125849e+00 9.990637e-01 0.000000e+00
1.125852e+00 1.198942e+00 0.000000e+00
1.125778e+00 1.398864e+00 0.000000e+00
1.125587e+00 1.598839e+00 0.000000e+00
1.125243e+00 1.798841e+00 0.000000e+00
1.124772e+00 1.998832e+00 0.000000e+00
1.350000e+00 0.000000e+00 0.000000e+00
1.350280e+00 1.998459e-01 0.000000e+00
1.350488e+00 3.997044e-01 0.000000e+00
1.350636e+00 5.995767e-01 0.000000e+00
1.350733e+00 7.994668e-01 0.000000e+00
1.350775e+00 9.993802e-01 0.000000e+00
1.350756e+00 1.199322e+00 0.000000e+00
1.350663e+00 1.399297e+00 0.000000e+00
1.350480e+00 1.599297e+00 0.000000e+00
1.350207e+00 1.799304e+00 0.000000e+00
1.349891e+00 1.999287e+00 0.000000e+00
1.575000e+00 0.000000e+00 0.000000e+00
1.575255e+00 1.998889e-01 0.000000e+00
1.575444e+00 3.997941e-01 0.000000e+00
1.575576e+00 5.997149e-01 0.000000e+00
1.575656e+00 7.996533e-01 0.000000e+00
1.575682e+00 9.996120e-01 0.000000e+00
1.575652e+00 1.199592e+00 0.000000e+00
1.575559e+00 1.399591e+00 0.000000e+00
1.575403e+00 1.599601e+00 0.000000e+00
1.575199e+00 1.799607e+00 0.000000e+00
1.574987e+00 1.999594e+00 0.000000e+00
1.800000e+00 0.000000e+00 0.000000e+00
1.800222e+00 1.999219e-01 0.000000e+00
1.800389e+00 3.998613e-01 0.000000e+00
1.800503e+00 5.998169e-01 0.000000e+00
1.800569e+00 7.997885e-01 0.000000e+00
1.800585e+00 9.997760e-01 0.000000e+00
1.800552e+00 1.199777e+00 0.000000e+00
1.800471e+00 1.399789e+00 0.000000e+00
1.800347e+00 1.599802e+00 0.000000e+00
1.800198e+00 1.799809e+00 0.000000e+00
1.800058e+00 1.999800e+00 0.000000e+00
2.025000e+00 0.000000e+00 0.000000e+00
2.025188e+00 1.999460e-01 0.000000e+00
2.025330e+00 3.999104e-01 0.000000e+00
2.025427e+00 5.998901e-01 0.000000e+00
2.025481e+00 7.998832e-01 0.000000e+00
2.025492e+00 9.998879e-01 0.000000e+00
2.025462e+00 1.199901e+00 0.000000e+00
2.025395e+00 1.399919e+00 0.000000e+00
2.025301e+00 1.599934e+00 0.000000e+00
2.025195e+00 1.799942e+00 0.000000e+00
2.025106e+00 1.999937e+00 0.000000e+00
2.250000e+00 0.000000e+00 0.000000e+00
2.250155e+00 1.999643e-01 0.000000e+00
2.250273e+00 3.999458e-01 0.000000e+00
2.250354e+00 5.999407e-01 0.000000e+00
2.250397e+00 7.999470e-01 0.000000e+00
2.250405e+00 9.999619e-01 0.000000e+00
2.250380e+00 1.199982e+00 0.000000e+00
2.250329e+00 1.400002e+00 0.000000e+00
2.250259e+00 1.600019e+00 0.000000e+00
2.250186e+00 1.800028e+00 0.000000e+00
2.250132e+00 2.000027e+00 0.000000e+00
2.475000e+00 0.000000e+00 0.000000e+00
2.475125e+00 1.999775e-01 0.000000e+00
2.475220e+00 3.999702e-01 0.000000e+00
2.475285e+00 5.999751e-01 0.000000e+00
2.475319e+00 7.999895e-01 0.000000e+00
2.475326e+00 1.000010e+00 0.000000e+00
2.475307e+00 1.200033e+00 0.000000e+00
2.475268e+00 1.400055e+00 0.000000e+00
2.475219e+00 1.600073e+00 0.000000e+00
2.475170e+00 1.800083e+00 0.000000e+00
2.475139e+00 2.000087e+00 0.000000e+00
2.700000e+00 0.000000e+00 0.000000e+00
2.700097e+00 1.999868e-01 0.000000e+00
2.700171e+00 3.999873e-01 0.000000e+00
2.700221e+00 5.999988e-01 0.000000e+00
2.700248e+00 8.000181e-01 0.000000e+00
2.700253e+00 1.000042e+00 0.000000e+00
2.700239e+00 1.200067e+00 0.000000e+00
2.700212e+00 1.400090e+00 0.000000e+00
2.700177e+00 1.600108e+00 0.000000e+00
2.700146e+00 1.800120e+00 0.000000e+00
2.700130e+00 2.000127e+00 0.000000e+00
2.925000e+00 0.000000e+00 0.000000e+00
2.925072e+00 1.999939e-01 0.000000e+00
2.925126e+00 3.999997e-01 0.000000e+00
2.925163e+00 6.000162e-01 0.000000e+00
2.925182e+00 8.000391e-01 0.000000e+00
2.925185e+00 1.000065e+00 0.000000e+00
2.925176e+00 1.200091e+00 0.000000e+00
2.925157e+00 1.400115e+00 0.000000e+00
2.925135e+00 1.600134e+00 0.000000e+00
2.925116e+00 1.800147e+00 0.000000e+00
2.925109e+00 2.000156e+00 0.000000e+00
3.150000e+00 0.000000e+00 0.000000e+00
3.150049e+00 1.999995e-01 0.000000e+00
3.150084e+00 4.000105e-01 0.000000e+00
3.150108e+00 6.000315e-01 0.000000e+00
3.150120e+00 8.000576e-01 0.000000e+00
3.150122e+00 1.000085e+00 0.000000e+00
3.150116e+00 1.200112e+00 0.000000e+00
3.150104e+00 1.400136e+00 0.000000e+00
3.150091e+00 1.600156e+00 0.000000e+00
3.150081e+00 1.800170e+00 0.000000e+00
3.150079e+00 2.000182e+00 0.000000e+00
3.375000e+00 0.000000e+00 0.000000e+00
3.375027e+00 2.000058e-01 0.000000e+00
3.375043e+00 4.000241e-01 0.000000e+00
3.375054e+00 6.000495e-01 0.000000e+00
3.375060e+00 8.000782e-01 0.000000e+00
3.375061e+00 1.000107e+00 0.000000e+00
3.375058e+00 1.200135e+00 0.000000e+00
3.375052e+00 1.400159e+00 0.000000e+00
3.375046e+00 1.600179e+00 0.000000e+00
3.375041e+00 1.800195e+00 0.000000e+00
3.375041e+00 2.000207e+00 0.000000e+00
3.600000e+00 0.000000e+00 0.000000e+00
3.600000e+00 2.000226e-01 0.000000e+00
3.600000e+00 4.000468e-01 0.000000e+00
3.600000e+00 6.000744e-01 0.000000e+00
3.600000e+00 8.001040e-01 0.000000e+00
3.600000e+00 1.000134e+00 0.000000e+00
3.600000e+00 1.200162e+00 0.000000e+00
3.600000e+00 1.400186e+00 0.000000e+00
3.600000e+00 1.600206e+00 0.000000e+00
3.600000e+00 1.800222e+00 0.000000e+00
3.600000e+00 2.000236e+00 0.000000e+00
</DataArray>
</Points>
<Cells>
<DataArray Name="connectivity" type="Int32" format="ascii">
0 11 12 1
1 12 13 2
2 13 14 3
3 14 15 4
4 15 16 5
5 16 17 6
6 17 18 7
7 18 19 8
8 19 20 9
9 20 21 10
11 22 23 12
12 23 24 13
13 24 25 14
14 25 26 15
15 26 27 16
16 27 28 17
17 28 29 18
18 29 30 19
19 30 31 20
20 31 32 21
22 33 34 23
23 34 35 24
24 35 36 25
25 36 37 26
26 37 38 27
27 38 39 28
28 39 40 29
29 40 41 30
30 41 42 31
31 42 43 32
33 44 45 34
34 45 46 35
35 46 47 36
36 47 48 37
37 48 49 38
38 49 50 39
39 50 51 40
40 51 52 41
41 52 53 42
42 53 54 43
44 55 56 45
45 56 57 46
46 57 58 47
47 58 59 48
48 59 60 49
49 60 61 50
50 61 62 51
51 62 63 52
52 63 64 53
53 64 65 54
55 66 67 56
56 67 68 57
57 68 69 58
58 69 70 59
59 70 71 60
60 71 72 61
61 72 73 62
62 73 74 63
63 74 75 64
64 75 76 65
66 77 78 67
67 78 79 68
68 79 80 69
69 80 81 70
70 81 82 71
71 82 83 72
72 83 84 73
73 84 85 74
74 85 86 75
75 86 87 76
77 88 89 78
78 89 90 79
79 90 91 80
80 91 92 81
81 92 93 82
82 93 94 83
83 94 95 84
84 95 96 85
85 96 97 86
86 97 98 87
88 99 100 89
89 100 101 90
90 101 102 91
91 102 103 92
92 103 104 93
93 104 105 94
94 105 106 95
95 106 107 96
96 107 108 97
97 108 109 98
99 110 111 100
100 111 112 101
101 112 113 102
102 113 114 103
103 114 115 104
104 115 116 105
105 116 117 106
106 117 118 107
107 118 119 108
108 119 120 109
110 121 122 111
111 122 123 112
112 123 124 113
113 124 125 114
114 125 126 115
115 126 127 116
116 127 128 117
117 128 129 118
118 129 130 119
119 130 131 120
121 132 133 122
122 133 134 123
123 134 135 124
124 135 136 125
125 136 137 126
126 137 138 127
127 138 139 128
128 139 140 129
129 140 141 130
130 141 142 131
132 143 144 133
133 144 145 134
134 145 146 135
135 146 147 136
136 147 148 137
137 148 149 138
138 149 150 139
139 150 151 140
140 151 152 141
141 152 153 142
143 154 155 144
144 155 156 145
145 156 157 146
146 157 158 147
147 158 159 148
148 159 160 149
149 160 161 150
150 161 162 151
151 162 163 152
152 163 164 153
154 165 166 155
155 166 167 156
156 167 168 157
157 168 169 158
158 169 170 159
159 170 171 160
160 171 172 161
161 172 173 162
162 173 174 163
163 174 175 164
165 176 177 166
166 177 178 167
167 178 179 168
168 179 180 169
169 180 181 170
170 181 182 171
171 182 183 172
172 183 184 173
173 184 185 174
174 185 186 175
</DataArray>
<DataArray Name="offsets" type="Int32" format="ascii">
4
8
12
16
20
24
28
32
36
40
44
48
52
56
60
64
68
72
76
80
84
88
92
96
100
104
108
112
116
120
124
128
132
136
140
144
148
152
156
160
164
168
172
176
180
184
188
192
196
200
204
208
212
216
220
224
228
232
236
240
244
248
252
256
260
264
268
272
276
280
284
288
292
296
300
304
308
312
316
320
324
328
332
336
340
344
348
352
356
360
364
368
372
376
380
384
388
392
396
400
404
408
412
416
420
424
428
432
436
440
444
448
452
456
460
464
468
472
476
480
484
488
492
496
500
504
508
512
516
520
524
528
532
536
540
544
548
552
556
560
564
568
572
576
580
584
588
592
596
600
604
608
612
616
620
624
628
632
636
640
</DataArray>
<DataArray Name="types" type="UInt8" format="ascii">
9
9
9
9
9
9
9
9
9
9
9
9
9
9
9
9
9
9
9
9
9
9
9
9
9
9
9
9
9
9
9
9
9
9
9
9
9
9
9
9
9
9
9
9
9
9
9
9
9
9
9
9
9
9
9
9
9
9
9
9
9
9
9
9
9
9
9
9
9
9
9
9
9
9
9
9
9
9
9
9
9
9
9
9
9
9
9
9
9
9
9
9
9
9
9
9
9
9
9
9
9
9
9
9
9
9
9
9
9
9
9
9
9
9
9
9
9
9
9
9
9
9
9
9
9
9
9
9
9
9
9
9
9
9
9
9
9
9
9
9
9
9
9
9
9
9
9
9
9
9
9
9
9
9
9
9
9
9
9
9
</DataArray>
</Cells>
<PointData>
<DataArray Name="disp" type="Float64" NumberOfComponents="3" format="ascii">
0.000000e+00 0.000000e+00 0.000000e+00
0.000000e+00 -4.276583e-04 0.000000e+00
0.000000e+00 -9.182610e-04 0.000000e+00
0.000000e+00 -1.472003e-03 0.000000e+00
0.000000e+00 -2.094016e-03 0.000000e+00
0.000000e+00 -2.794288e-03 0.000000e+00
0.000000e+00 -3.576615e-03 0.000000e+00
0.000000e+00 -4.423995e-03 0.000000e+00
0.000000e+00 -5.277046e-03 0.000000e+00
0.000000e+00 -6.039011e-03 0.000000e+00
0.000000e+00 -6.750000e-03 0.000000e+00
0.000000e+00 0.000000e+00 0.000000e+00
1.035552e-04 -4.043657e-04 0.000000e+00
1.835966e-04 -8.731546e-04 0.000000e+00
2.502658e-04 -1.402453e-03 0.000000e+00
3.088909e-04 -1.994056e-03 0.000000e+00
3.584909e-04 -2.654647e-03 0.000000e+00
3.882850e-04 -3.394048e-03 0.000000e+00
3.715099e-04 -4.212810e-03 0.000000e+00
2.665300e-04 -5.092921e-03 0.000000e+00
6.401921e-05 -5.981059e-03 0.000000e+00
0.000000e+00 -6.750000e-03 0.000000e+00
0.000000e+00 0.000000e+00 0.000000e+00
1.889917e-04 -3.695767e-04 0.000000e+00
3.379681e-04 -7.868633e-04 0.000000e+00
4.595503e-04 -1.248357e-03 0.000000e+00
5.626348e-04 -1.753569e-03 0.000000e+00
6.500659e-04 -2.303803e-03 0.000000e+00
7.120359e-04 -2.906869e-03 0.000000e+00
7.186419e-04 -3.584378e-03 0.000000e+00
6.270022e-04 -4.384139e-03 0.000000e+00
3.935031e-04 -5.416968e-03 0.000000e+00
0.000000e+00 -6.750000e-03 0.000000e+00
0.000000e+00 0.000000e+00 0.000000e+00
2.503643e-04 -3.207378e-04 0.000000e+00
4.444999e-04 -6.688069e-04 0.000000e+00
5.999691e-04 -1.039235e-03 0.000000e+00
7.258455e-04 -1.426942e-03 0.000000e+00
8.247725e-04 -1.825714e-03 0.000000e+00
8.881379e-04 -2.225090e-03 0.000000e+00
8.971802e-04 -2.609068e-03 0.000000e+00
8.146665e-04 -2.948309e-03 0.000000e+00
6.048948e-04 -3.160491e-03 0.000000e+00
-3.934595e-04 -2.970748e-03 0.000000e+00
0.000000e+00 0.000000e+00 0.000000e+00
2.843387e-04 -2.637690e-04 0.000000e+00
4.998166e-04 -5.365276e-04 0.000000e+00
6.663830e-04 -8.129826e-04 0.000000e+00
7.925562e-04 -1.085926e-03 0.000000e+00
8.788004e-04 -1.344977e-03 0.000000e+00
9.149017e-04 -1.575370e-03 0.000000e+00
8.777385e-04 -1.757134e-03 0.000000e+00
7.328102e-04 -1.864994e-03 0.000000e+00
3.456078e-04 -1.865073e-03 0.000000e+00
-3.652620e-04 -1.906616e-03 0.000000e+00
0.000000e+00 0.000000e+00 0.000000e+00
2.924970e-04 -2.056312e-04 0.000000e+00
5.105090e-04 -4.072843e-04 0.000000e+00
6.723231e-04 -6.010669e-04 0.000000e+00
7.854210e-04 -7.803374e-04 0.000000e+00
8.486944e-04 -9.362689e-04 0.000000e+00
8.524845e-04 -1.058157e-03 0.000000e+00
7.781129e-04 -1.135633e-03 0.000000e+00
5.874570e-04 -1.161213e-03 0.000000e+00
2.427952e-04 -1.159471e-03 0.000000e+00
-2.282194e-04 -1.167744e-03 0.000000e+00
0.000000e+00 0.000000e+00 0.000000e+00
2.803477e-04 -1.540564e-04 0.000000e+00
4.876791e-04 -2.955804e-04 0.000000e+00
6.365391e-04 -4.233195e-04 0.000000e+00
7.328748e-04 -5.332245e-04 0.000000e+00
7.751246e-04 -6.197867e-04 0.000000e+00
7.560161e-04 -6.775191e-04 0.000000e+00
6.626532e-04 -7.034281e-04 0.000000e+00
4.798212e-04 -7.034405e-04 0.000000e+00
2.069332e-04 -6.959856e-04 0.000000e+00
-1.094397e-04 -7.124631e-04 0.000000e+00
0.000000e+00 0.000000e+00 0.000000e+00
2.549778e-04 -1.110826e-04 0.000000e+00
4.435345e-04 -2.058706e-04 0.000000e+00
5.759458e-04 -2.850676e-04 0.000000e+00
6.557542e-04 -3.467276e-04 0.000000e+00
6.822475e-04 -3.880252e-04 0.000000e+00
6.515324e-04 -4.079065e-04 0.000000e+00
5.588951e-04 -4.087476e-04 0.000000e+00
4.033870e-04 -3.986002e-04 0.000000e+00
1.992861e-04 -3.929363e-04 0.000000e+00
-1.264389e-05 -4.055562e-04 0.000000e+00
0.000000e+00 0.000000e+00 0.000000e+00
2.224494e-04 -7.814441e-05 0.000000e+00
3.885758e-04 -1.386720e-04 0.000000e+00
5.032229e-04 -1.830867e-04 0.000000e+00
5.688356e-04 -2.114601e-04 0.000000e+00
5.852703e-04 -2.239953e-04 0.000000e+00
5.521519e-04 -2.225381e-04 0.000000e+00
4.707031e-04 -2.111955e-04 0.000000e+00
3.468634e-04 -1.975465e-04 0.000000e+00
1.981642e-04 -1.912199e-04 0.000000e+00
5.825262e-05 -2.000496e-04 0.000000e+00
0.000000e+00 0.000000e+00 0.000000e+00
1.881336e-04 -5.396036e-05 0.000000e+00
3.302269e-04 -8.956676e-05 0.000000e+00
4.273472e-04 -1.098658e-04 0.000000e+00
4.809277e-04 -1.167559e-04 0.000000e+00
4.917373e-04 -1.120865e-04 0.000000e+00
4.617470e-04 -9.884584e-05 0.000000e+00
3.952449e-04 -8.147112e-05 0.000000e+00
3.006097e-04 -6.593029e-05 0.000000e+00
1.949835e-04 -5.850260e-05 0.000000e+00
1.061554e-04 -6.308284e-05 0.000000e+00
0.000000e+00 0.000000e+00 0.000000e+00
1.551060e-04 -3.569869e-05 0.000000e+00
2.732183e-04 -5.418124e-05 0.000000e+00
3.535071e-04 -5.932328e-05 0.000000e+00
3.969551e-04 -5.297774e-05 0.000000e+00
4.049773e-04 -3.813763e-05 0.000000e+00
3.803911e-04 -1.838040e-05 0.000000e+00
3.287665e-04 1.977807e-06 0.000000e+00
2.589129e-04 1.872026e-05 0.000000e+00
1.860685e-04 2.765925e-05 0.000000e+00
1.318765e-04 2.727780e-05 0.000000e+00
0.000000e+00 0.000000e+00 0.000000e+00
1.246843e-04 -2.245478e-05 0.000000e+00
2.198754e-04 -2.977306e-05 0.000000e+00
2.845596e-04 -2.486274e-05 0.000000e+00
3.191193e-04 -1.046608e-05 0.000000e+00
3.254702e-04 1.014639e-05 0.000000e+00
3.067456e-04 3.322072e-05 0.000000e+00
2.683566e-04 5.511501e-05 0.000000e+00
2.184814e-04 7.267193e-05 0.000000e+00
1.699595e-04 8.319405e-05 0.000000e+00
1.389458e-04 8.654514e-05 0.000000e+00
0.000000e+00 0.000000e+00 0.000000e+00
9.702396e-05 -1.320864e-05 0.000000e+00
1.710346e-04 -1.274376e-05 0.000000e+00
2.211666e-04 -1.212558e-06 0.000000e+00
2.478307e-04 1.813435e-05 0.000000e+00
2.527916e-04 4.199518e-05 0.000000e+00
2.392530e-04 6.695826e-05 0.000000e+00
2.117346e-04 8.967087e-05 0.000000e+00
1.774358e-04 1.080243e-04 0.000000e+00
1.464801e-04 1.200750e-04 0.000000e+00
1.305797e-04 1.266144e-04 0.000000e+00
0.000000e+00 0.000000e+00 0.000000e+00
7.218604e-05 -6.091193e-06 0.000000e+00
1.262291e-04 -2.601066e-07 0.000000e+00
1.628497e-04 1.619054e-05 0.000000e+00
1.818913e-04 3.906661e-05 0.000000e+00
1.855226e-04 6.520555e-05 0.000000e+00
1.761300e-04 9.125072e-05 0.000000e+00
1.573792e-04 1.145986e-04 0.000000e+00
1.350351e-04 1.335624e-04 0.000000e+00
1.163843e-04 1.470490e-04 0.000000e+00
1.094162e-04 1.562329e-04 0.000000e+00
0.000000e+00 0.000000e+00 0.000000e+00
4.938649e-05 -4.552596e-07 0.000000e+00
8.450988e-05 1.052407e-05 0.000000e+00
1.077468e-04 3.152441e-05 0.000000e+00
1.197699e-04 5.763095e-05 0.000000e+00
1.219317e-04 8.550489e-05 0.000000e+00
1.160272e-04 1.124575e-04 0.000000e+00
1.043756e-04 1.362988e-04 0.000000e+00
9.111600e-05 1.557240e-04 0.000000e+00
8.076658e-05 1.704323e-04 0.000000e+00
7.842670e-05 1.817148e-04 0.000000e+00
0.000000e+00 0.000000e+00 0.000000e+00
2.709240e-05 5.840780e-06 0.000000e+00
4.307608e-05 2.413441e-05 0.000000e+00
5.380809e-05 4.947000e-05 0.000000e+00
5.954812e-05 7.816365e-05 0.000000e+00
6.056330e-05 1.074540e-04 0.000000e+00
5.761724e-05 1.351276e-04 0.000000e+00
5.204712e-05 1.593537e-04 0.000000e+00
4.589372e-05 1.791373e-04 0.000000e+00
4.141463e-05 1.946615e-04 0.000000e+00
4.073123e-05 2.074147e-04 0.000000e+00
0.000000e+00 0.000000e+00 0.000000e+00
0.000000e+00 2.260496e-05 0.000000e+00
0.000000e+00 4.683219e-05 0.000000e+00
0.000000e+00 7.432292e-05 0.000000e+00
0.000000e+00 1.039851e-04 0.000000e+00
0.000000e+00 1.338136e-04 0.000000e+00
0.000000e+00 1.617994e-04 0.000000e+00
0.000000e+00 1.862746e-04 0.000000e+00
0.000000e+00 2.063972e-04 0.000000e+00
0.000000e+00 2.223112e-04 0.000000e+00
0.000000e+00 2.357340e-04 0.000000e+00
</DataArray>
<DataArray Name="shear" type="Float64" NumberOfComponents="1" format="ascii">
2.264218e-03
2.714991e-03
3.396457e-03
4.024787e-03
4.648765e-03
5.266136e-03
5.768907e-03
5.896218e-03
5.306970e-03
4.229925e-03
3.751996e-03
2.222085e-03
2.637772e-03
3.274510e-03
3.863652e-03
4.446315e-03
5.040388e-03
5.591633e-03
5.938030e-03
5.859699e-03
5.213066e-03
4.566049e-03
2.182557e-03
2.490445e-03
2.973850e-03
3.448588e-03
3.935996e-03
4.463781e-03
5.057073e-03
5.744366e-03
6.604410e-03
7.254666e-03
7.270926e-03
2.120323e-03
2.299407e-03
2.576570e-03
2.881747e-03
3.213752e-03
3.579065e-03
3.998595e-03
4.525314e-03
5.248477e-03
5.329329e-03
5.557257e-03
2.007745e-03
2.071943e-03
2.159739e-03
2.299266e-03
2.464619e-03
2.637599e-03
2.792520e-03
2.886867e-03
2.704820e-03
1.689413e-03
5.600210e-04
1.842973e-03
1.823693e-03
1.772223e-03
1.785661e-03
1.822791e-03
1.851373e-03
1.833976e-03
1.699762e-03
1.310828e-03
5.684234e-04
4.097072e-04
1.642464e-03
1.574235e-03
1.440561e-03
1.373361e-03
1.330062e-03
1.278795e-03
1.186218e-03
1.002977e-03
6.682931e-04
2.073721e-04
3.670040e-04
1.424229e-03
1.337030e-03
1.172661e-03
1.066690e-03
9.859152e-04
9.053244e-04
7.987282e-04
6.338545e-04
3.769798e-04
6.771755e-05
3.086793e-04
1.204817e-03
1.118482e-03
9.602000e-04
8.505098e-04
7.659605e-04
6.863340e-04
5.922181e-04
4.606362e-04
2.686520e-04
1.148724e-05
2.199568e-04
9.989577e-04
9.245630e-04
7.921396e-04
6.987309e-04
6.291838e-04
5.664239e-04
4.937784e-04
3.929326e-04
2.460516e-04
3.168008e-05
1.297610e-04
8.125239e-04
7.534976e-04
6.529971e-04
5.870831e-04
5.431502e-04
5.021088e-04
4.480130e-04
3.678303e-04
2.479235e-04
7.710273e-05
5.633756e-05
6.465095e-04
6.020691e-04
5.362852e-04
5.039788e-04
4.864496e-04
4.640008e-04
4.227127e-04
3.553422e-04
2.541794e-04
1.237372e-04
7.180891e-05
5.004487e-04
4.710894e-04
4.418421e-04
4.434879e-04
4.486458e-04
4.393118e-04
4.059767e-04
3.471018e-04
2.622978e-04
1.687356e-04
1.331174e-04
3.720999e-04
3.589631e-04
3.697998e-04
4.050048e-04
4.272736e-04
4.249535e-04
3.952564e-04
3.423319e-04
2.729643e-04
2.099161e-04
1.893679e-04
2.581434e-04
2.689708e-04
3.282918e-04
3.901444e-04
4.205151e-04
4.196762e-04
3.913108e-04
3.429317e-04
2.868943e-04
2.450118e-04
2.341786e-04
1.661834e-04
2.287578e-04
3.260318e-04
3.931264e-04
4.236696e-04
4.224225e-04
3.951696e-04
3.508393e-04
3.038511e-04
2.723545e-04
2.650042e-04
1.434551e-04
2.339445e-04
3.326545e-04
3.954580e-04
4.259225e-04
4.260030e-04
4.006328e-04
3.591487e-04
3.153897e-04
2.852567e-04
2.771953e-04
</DataArray>
<DataArray Name="stress" type="Float64" NumberOfComponents="9" format="ascii">
-6.709388e+04 3.523593e+02 0.000000e+00 3.523593e+02 -8.299838e+04 0.000000e+00 0.000000e+00 0.000000e+00 0.000000e+00
-6.489603e+04 4.862154e+02 0.000000e+00 4.862154e+02 -8.321805e+04 0.000000e+00 0.000000e+00 0.000000e+00 0.000000e+00
-6.287143e+04 6.745481e+02 0.000000e+00 6.745481e+02 -8.462485e+04 0.000000e+00 0.000000e+00 0.000000e+00 0.000000e+00
-6.168093e+04 9.281060e+02 0.000000e+00 9.281060e+02 -8.634296e+04 0.000000e+00 0.000000e+00 0.000000e+00 0.000000e+00
-6.117619e+04 1.254130e+03 0.000000e+00 1.254130e+03 -8.851457e+04 0.000000e+00 0.000000e+00 0.000000e+00 0.000000e+00
-6.144059e+04 1.596305e+03 0.000000e+00 1.596305e+03 -9.118108e+04 0.000000e+00 0.000000e+00 0.000000e+00 0.000000e+00
-6.251936e+04 1.851793e+03 0.000000e+00 1.851793e+03 -9.426511e+04 0.000000e+00 0.000000e+00 0.000000e+00 0.000000e+00
-6.455104e+04 1.820534e+03 0.000000e+00 1.820534e+03 -9.734993e+04 0.000000e+00 0.000000e+00 0.000000e+00 0.000000e+00
-6.801790e+04 1.121919e+03 0.000000e+00 1.121919e+03 -9.959081e+04 0.000000e+00 0.000000e+00 0.000000e+00 0.000000e+00
-7.295717e+04 6.575661e+01 0.000000e+00 6.575661e+01 -1.005811e+05 0.000000e+00 0.000000e+00 0.000000e+00 0.000000e+00
-7.490225e+04 -2.637822e+02 0.000000e+00 -2.637822e+02 -1.002849e+05 0.000000e+00 0.000000e+00 0.000000e+00 0.000000e+00
-6.689770e+04 1.431572e+03 0.000000e+00 1.431572e+03 -8.212083e+04 0.000000e+00 0.000000e+00 0.000000e+00 0.000000e+00
-6.489288e+04 1.510800e+03 0.000000e+00 1.510800e+03 -8.242059e+04 0.000000e+00 0.000000e+00 0.000000e+00 0.000000e+00
-6.302967e+04 1.693555e+03 0.000000e+00 1.693555e+03 -8.383259e+04 0.000000e+00 0.000000e+00 0.000000e+00 0.000000e+00
-6.193595e+04 2.086602e+03 0.000000e+00 2.086602e+03 -8.543264e+04 0.000000e+00 0.000000e+00 0.000000e+00 0.000000e+00
-6.148774e+04 2.625751e+03 0.000000e+00 2.625751e+03 -8.739105e+04 0.000000e+00 0.000000e+00 0.000000e+00 0.000000e+00
-6.175307e+04 3.214703e+03 0.000000e+00 3.214703e+03 -8.979937e+04 0.000000e+00 0.000000e+00 0.000000e+00 0.000000e+00
-6.276452e+04 3.698678e+03 0.000000e+00 3.698678e+03 -9.274676e+04 0.000000e+00 0.000000e+00 0.000000e+00 0.000000e+00
-6.456718e+04 3.741922e+03 0.000000e+00 3.741922e+03 -9.624752e+04 0.000000e+00 0.000000e+00 0.000000e+00 0.000000e+00
-6.746947e+04 2.813270e+03 0.000000e+00 2.813270e+03 -1.000918e+05 0.000000e+00 0.000000e+00 0.000000e+00 0.000000e+00
-7.187085e+04 1.159166e+03 0.000000e+00 1.159166e+03 -1.032864e+05 0.000000e+00 0.000000e+00 0.000000e+00 0.000000e+00
-7.606937e+04 -4.637461e+02 0.000000e+00 -4.637461e+02 -1.056368e+05 0.000000e+00 0.000000e+00 0.000000e+00 0.000000e+00
-6.651878e+04 2.847386e+03 0.000000e+00 2.847386e+03 -8.030248e+04 0.000000e+00 0.000000e+00 0.000000e+00 0.000000e+00
-6.491993e+04 2.914217e+03 0.000000e+00 2.914217e+03 -8.056117e+04 0.000000e+00 0.000000e+00 0.000000e+00 0.000000e+00
-6.342285e+04 3.149737e+03 0.000000e+00 3.149737e+03 -8.166820e+04 0.000000e+00 0.000000e+00 0.000000e+00 0.000000e+00
-6.260698e+04 3.772958e+03 0.000000e+00 3.772958e+03 -8.283679e+04 0.000000e+00 0.000000e+00 0.000000e+00 0.000000e+00
-6.234764e+04 4.685817e+03 0.000000e+00 4.685817e+03 -8.417413e+04 0.000000e+00 0.000000e+00 0.000000e+00 0.000000e+00
-6.266788e+04 5.800423e+03 0.000000e+00 5.800423e+03 -8.580642e+04 0.000000e+00 0.000000e+00 0.000000e+00 0.000000e+00
-6.361419e+04 7.009689e+03 0.000000e+00 7.009689e+03 -8.793773e+04 0.000000e+00 0.000000e+00 0.000000e+00 0.000000e+00
-6.523829e+04 8.142050e+03 0.000000e+00 8.142050e+03 -9.103879e+04 0.000000e+00 0.000000e+00 0.000000e+00 0.000000e+00
-6.812998e+04 8.996603e+03 0.000000e+00 8.996603e+03 -9.620341e+04 0.000000e+00 0.000000e+00 0.000000e+00 0.000000e+00
-7.509462e+04 9.490720e+03 0.000000e+00 9.490720e+03 -1.045888e+05 0.000000e+00 0.000000e+00 0.000000e+00 0.000000e+00
-8.666574e+04 1.009964e+04 0.000000e+00 1.009964e+04 -1.137657e+05 0.000000e+00 0.000000e+00 0.000000e+00 0.000000e+00
-6.594959e+04 3.853589e+03 0.000000e+00 3.853589e+03 -7.776695e+04 0.000000e+00 0.000000e+00 0.000000e+00 0.000000e+00
-6.487737e+04 3.909867e+03 0.000000e+00 3.909867e+03 -7.790772e+04 0.000000e+00 0.000000e+00 0.000000e+00 0.000000e+00
-6.390829e+04 4.115317e+03 0.000000e+00 4.115317e+03 -7.853902e+04 0.000000e+00 0.000000e+00 0.000000e+00 0.000000e+00
-6.346786e+04 4.771579e+03 0.000000e+00 4.771579e+03 -7.910065e+04 0.000000e+00 0.000000e+00 0.000000e+00 0.000000e+00
-6.347894e+04 5.754925e+03 0.000000e+00 5.754925e+03 -7.956927e+04 0.000000e+00 0.000000e+00 0.000000e+00 0.000000e+00
-6.393239e+04 6.977207e+03 0.000000e+00 6.977207e+03 -7.990219e+04 0.000000e+00 0.000000e+00 0.000000e+00 0.000000e+00
-6.474595e+04 8.357511e+03 0.000000e+00 8.357511e+03 -7.997221e+04 0.000000e+00 0.000000e+00 0.000000e+00 0.000000e+00
-6.577627e+04 9.801613e+03 0.000000e+00 9.801613e+03 -7.948355e+04 0.000000e+00 0.000000e+00 0.000000e+00 0.000000e+00
-6.715409e+04 1.124568e+04 0.000000e+00 1.124568e+04 -7.762280e+04 0.000000e+00 0.000000e+00 0.000000e+00 0.000000e+00
-6.850134e+04 1.068585e+04 0.000000e+00 1.068585e+04 -7.185599e+04 0.000000e+00 0.000000e+00 0.000000e+00 0.000000e+00
-6.991445e+04 9.868745e+03 0.000000e+00 9.868745e+03 -6.882917e+04 0.000000e+00 0.000000e+00 0.000000e+00 0.000000e+00
-6.522566e+04 4.392908e+03 0.000000e+00 4.392908e+03 -7.476971e+04 0.000000e+00 0.000000e+00 0.000000e+00 0.000000e+00
-6.473478e+04 4.414351e+03 0.000000e+00 4.414351e+03 -7.479319e+04 0.000000e+00 0.000000e+00 0.000000e+00 0.000000e+00
-6.433503e+04 4.498184e+03 0.000000e+00 4.498184e+03 -7.495281e+04 0.000000e+00 0.000000e+00 0.000000e+00 0.000000e+00
-6.428295e+04 4.990479e+03 0.000000e+00 4.990479e+03 -7.493008e+04 0.000000e+00 0.000000e+00 0.000000e+00 0.000000e+00
-6.454630e+04 5.734029e+03 0.000000e+00 5.734029e+03 -7.463440e+04 0.000000e+00 0.000000e+00 0.000000e+00 0.000000e+00
-6.512138e+04 6.582065e+03 0.000000e+00 6.582065e+03 -7.394057e+04 0.000000e+00 0.000000e+00 0.000000e+00 0.000000e+00
-6.593999e+04 7.364003e+03 0.000000e+00 7.364003e+03 -7.264814e+04 0.000000e+00 0.000000e+00 0.000000e+00 0.000000e+00
-6.687203e+04 7.835781e+03 0.000000e+00 7.835781e+03 -7.050072e+04 0.000000e+00 0.000000e+00 0.000000e+00 0.000000e+00
-6.775552e+04 7.303720e+03 0.000000e+00 7.303720e+03 -6.702471e+04 0.000000e+00 0.000000e+00 0.000000e+00 0.000000e+00
-6.664838e+04 4.299981e+03 0.000000e+00 4.299981e+03 -6.333671e+04 0.000000e+00 0.000000e+00 0.000000e+00 0.000000e+00
-6.019535e+04 1.343048e+03 0.000000e+00 1.343048e+03 -5.996939e+04 0.000000e+00 0.000000e+00 0.000000e+00 0.000000e+00
-6.441996e+04 4.508406e+03 0.000000e+00 4.508406e+03 -7.170518e+04 0.000000e+00 0.000000e+00 0.000000e+00 0.000000e+00
-6.446815e+04 4.473857e+03 0.000000e+00 4.473857e+03 -7.164338e+04 0.000000e+00 0.000000e+00 0.000000e+00 0.000000e+00
-6.458172e+04 4.388984e+03 0.000000e+00 4.388984e+03 -7.144227e+04 0.000000e+00 0.000000e+00 0.000000e+00 0.000000e+00
-6.483499e+04 4.608107e+03 0.000000e+00 4.608107e+03 -7.103155e+04 0.000000e+00 0.000000e+00 0.000000e+00 0.000000e+00
-6.524527e+04 4.960725e+03 0.000000e+00 4.960725e+03 -7.030825e+04 0.000000e+00 0.000000e+00 0.000000e+00 0.000000e+00
-6.578886e+04 5.281628e+03 0.000000e+00 5.281628e+03 -6.917870e+04 0.000000e+00 0.000000e+00 0.000000e+00 0.000000e+00
-6.634898e+04 5.359874e+03 0.000000e+00 5.359874e+03 -6.756138e+04 0.000000e+00 0.000000e+00 0.000000e+00 0.000000e+00
-6.669402e+04 4.925196e+03 0.000000e+00 4.925196e+03 -6.540708e+04 0.000000e+00 0.000000e+00 0.000000e+00 0.000000e+00
-6.614023e+04 3.532691e+03 0.000000e+00 3.532691e+03 -6.302547e+04 0.000000e+00 0.000000e+00 0.000000e+00 0.000000e+00
-6.245224e+04 1.307332e+03 0.000000e+00 1.307332e+03 -6.116438e+04 0.000000e+00 0.000000e+00 0.000000e+00 0.000000e+00
-5.724891e+04 1.910565e+02 0.000000e+00 1.910565e+02 -5.975294e+04 0.000000e+00 0.000000e+00 0.000000e+00 0.000000e+00
-6.362192e+04 4.298132e+03 0.000000e+00 4.298132e+03 -6.890827e+04 0.000000e+00 0.000000e+00 0.000000e+00 0.000000e+00
-6.408340e+04 4.205901e+03 0.000000e+00 4.205901e+03 -6.879540e+04 0.000000e+00 0.000000e+00 0.000000e+00 0.000000e+00
-6.458191e+04 3.954464e+03 0.000000e+00 3.954464e+03 -6.837407e+04 0.000000e+00 0.000000e+00 0.000000e+00 0.000000e+00
-6.502741e+04 3.901480e+03 0.000000e+00 3.901480e+03 -6.777992e+04 0.000000e+00 0.000000e+00 0.000000e+00 0.000000e+00
-6.545936e+04 3.891514e+03 0.000000e+00 3.891514e+03 -6.693441e+04 0.000000e+00 0.000000e+00 0.000000e+00 0.000000e+00
-6.583726e+04 3.778502e+03 0.000000e+00 3.778502e+03 -6.580320e+04 0.000000e+00 0.000000e+00 0.000000e+00 0.000000e+00
-6.602858e+04 3.413058e+03 0.000000e+00 3.413058e+03 -6.439410e+04 0.000000e+00 0.000000e+00 0.000000e+00 0.000000e+00
-6.571832e+04 2.628340e+03 0.000000e+00 2.628340e+03 -6.282014e+04 0.000000e+00 0.000000e+00 0.000000e+00 0.000000e+00
-6.421744e+04 1.394701e+03 0.000000e+00 1.394701e+03 -6.137406e+04 0.000000e+00 0.000000e+00 0.000000e+00 0.000000e+00
-6.068296e+04 2.148008e+02 0.000000e+00 2.148008e+02 -6.041111e+04 0.000000e+00 0.000000e+00 0.000000e+00 0.000000e+00
-5.709954e+04 -2.363579e+02 0.000000e+00 -2.363579e+02 -5.969300e+04 0.000000e+00 0.000000e+00 0.000000e+00 0.000000e+00
-6.289422e+04 3.871816e+03 0.000000e+00 3.871816e+03 -6.655896e+04 0.000000e+00 0.000000e+00 0.000000e+00 0.000000e+00
-6.362105e+04 3.742302e+03 0.000000e+00 3.742302e+03 -6.642318e+04 0.000000e+00 0.000000e+00 0.000000e+00 0.000000e+00
-6.436350e+04 3.377286e+03 0.000000e+00 3.377286e+03 -6.590716e+04 0.000000e+00 0.000000e+00 0.000000e+00 0.000000e+00
-6.490080e+04 3.110879e+03 0.000000e+00 3.110879e+03 -6.527722e+04 0.000000e+00 0.000000e+00 0.000000e+00 0.000000e+00
-6.528769e+04 2.839706e+03 0.000000e+00 2.839706e+03 -6.448493e+04 0.000000e+00 0.000000e+00 0.000000e+00 0.000000e+00
-6.549195e+04 2.475061e+03 0.000000e+00 2.475061e+03 -6.353566e+04 0.000000e+00 0.000000e+00 0.000000e+00 0.000000e+00
-6.537234e+04 1.924834e+03 0.000000e+00 1.924834e+03 -6.248675e+04 0.000000e+00 0.000000e+00 0.000000e+00 0.000000e+00
-6.465440e+04 1.151129e+03 0.000000e+00 1.151129e+03 -6.145345e+04 0.000000e+00 0.000000e+00 0.000000e+00 0.000000e+00
-6.296448e+04 2.882990e+02 0.000000e+00 2.882990e+02 -6.063128e+04 0.000000e+00 0.000000e+00 0.000000e+00 0.000000e+00
-6.006273e+04 -2.501670e+02 0.000000e+00 -2.501670e+02 -6.016354e+04 0.000000e+00 0.000000e+00 0.000000e+00 0.000000e+00
-5.752949e+04 -3.305976e+02 0.000000e+00 -3.305976e+02 -5.978304e+04 0.000000e+00 0.000000e+00 0.000000e+00 0.000000e+00
-6.227576e+04 3.351267e+03 0.000000e+00 3.351267e+03 -6.470187e+04 0.000000e+00 0.000000e+00 0.000000e+00 0.000000e+00
-6.312223e+04 3.186436e+03 0.000000e+00 3.186436e+03 -6.456005e+04 0.000000e+00 0.000000e+00 0.000000e+00 0.000000e+00
-6.397842e+04 2.755432e+03 0.000000e+00 2.755432e+03 -6.402160e+04 0.000000e+00 0.000000e+00 0.000000e+00 0.000000e+00
-6.454967e+04 2.358545e+03 0.000000e+00 2.358545e+03 -6.343182e+04 0.000000e+00 0.000000e+00 0.000000e+00 0.000000e+00
-6.488780e+04 1.953117e+03 0.000000e+00 1.953117e+03 -6.277300e+04 0.000000e+00 0.000000e+00 0.000000e+00 0.000000e+00
-6.496290e+04 1.484208e+03 0.000000e+00 1.484208e+03 -6.206294e+04 0.000000e+00 0.000000e+00 0.000000e+00 0.000000e+00
-6.465742e+04 9.132080e+02 0.000000e+00 9.132080e+02 -6.134733e+04 0.000000e+00 0.000000e+00 0.000000e+00 0.000000e+00
-6.380615e+04 2.765362e+02 0.000000e+00 2.765362e+02 -6.071498e+04 0.000000e+00 0.000000e+00 0.000000e+00 0.000000e+00
-6.225611e+04 -2.638278e+02 0.000000e+00 -2.638278e+02 -6.027388e+04 0.000000e+00 0.000000e+00 0.000000e+00 0.000000e+00
-6.001439e+04 -4.340732e+02 0.000000e+00 -4.340732e+02 -6.005635e+04 0.000000e+00 0.000000e+00 0.000000e+00 0.000000e+00
-5.819583e+04 -3.623814e+02 0.000000e+00 -3.623814e+02 -5.983976e+04 0.000000e+00 0.000000e+00 0.000000e+00 0.000000e+00
-6.175877e+04 2.767923e+03 0.000000e+00 2.767923e+03 -6.328317e+04 0.000000e+00 0.000000e+00 0.000000e+00 0.000000e+00
-6.262003e+04 2.603016e+03 0.000000e+00 2.603016e+03 -6.314013e+04 0.000000e+00 0.000000e+00 0.000000e+00 0.000000e+00
-6.350721e+04 2.162311e+03 0.000000e+00 2.162311e+03 -6.262880e+04 0.000000e+00 0.000000e+00 0.000000e+00 0.000000e+00
-6.408746e+04 1.721019e+03 0.000000e+00 1.721019e+03 -6.212498e+04 0.000000e+00 0.000000e+00 0.000000e+00 0.000000e+00
-6.439549e+04 1.276133e+03 0.000000e+00 1.276133e+03 -6.161752e+04 0.000000e+00 0.000000e+00 0.000000e+00 0.000000e+00
-6.439385e+04 7.915935e+02 0.000000e+00 7.915935e+02 -6.111285e+04 0.000000e+00 0.000000e+00 0.000000e+00 0.000000e+00
-6.401986e+04 2.762086e+02 0.000000e+00 2.762086e+02 -6.065427e+04 0.000000e+00 0.000000e+00 0.000000e+00 0.000000e+00
-6.320260e+04 -2.040627e+02 0.000000e+00 -2.040627e+02 -6.029405e+04 0.000000e+00 0.000000e+00 0.000000e+00 0.000000e+00
-6.190385e+04 -5.188849e+02 0.000000e+00 -5.188849e+02 -6.008349e+04 0.000000e+00 0.000000e+00 0.000000e+00 0.000000e+00
-6.021428e+04 -4.929862e+02 0.000000e+00 -4.929862e+02 -5.999447e+04 0.000000e+00 0.000000e+00 0.000000e+00 0.000000e+00
-5.893040e+04 -3.539425e+02 0.000000e+00 -3.539425e+02 -5.987288e+04 0.000000e+00 0.000000e+00 0.000000e+00 0.000000e+00
-6.134308e+04 2.186148e+03 0.000000e+00 2.186148e+03 -6.223056e+04 0.000000e+00 0.000000e+00 0.000000e+00 0.000000e+00
-6.215749e+04 2.039534e+03 0.000000e+00 2.039534e+03 -6.209334e+04 0.000000e+00 0.000000e+00 0.000000e+00 0.000000e+00
-6.303115e+04 1.640173e+03 0.000000e+00 1.640173e+03 -6.163526e+04 0.000000e+00 0.000000e+00 0.000000e+00 0.000000e+00
-6.360744e+04 1.216856e+03 0.000000e+00 1.216856e+03 -6.122277e+04 0.000000e+00 0.000000e+00 0.000000e+00 0.000000e+00
-6.389081e+04 7.808923e+02 0.000000e+00 7.808923e+02 -6.084272e+04 0.000000e+00 0.000000e+00 0.000000e+00 0.000000e+00
-6.386077e+04 3.343658e+02 0.000000e+00 3.343658e+02 -6.049994e+04 0.000000e+00 0.000000e+00 0.000000e+00 0.000000e+00
-6.350350e+04 -9.260983e+01 0.000000e+00 -9.260983e+01 -6.022746e+04 0.000000e+00 0.000000e+00 0.000000e+00 0.000000e+00
-6.279860e+04 -4.386357e+02 0.000000e+00 -4.386357e+02 -6.004449e+04 0.000000e+00 0.000000e+00 0.000000e+00 0.000000e+00
-6.176492e+04 -6.087458e+02 0.000000e+00 -6.087458e+02 -5.997240e+04 0.000000e+00 0.000000e+00 0.000000e+00 0.000000e+00
-6.052541e+04 -4.826978e+02 0.000000e+00 -4.826978e+02 -5.996088e+04 0.000000e+00 0.000000e+00 0.000000e+00 0.000000e+00
-5.964371e+04 -3.183750e+02 0.000000e+00 -3.183750e+02 -5.990120e+04 0.000000e+00 0.000000e+00 0.000000e+00 0.000000e+00
-6.100588e+04 1.656268e+03 0.000000e+00 1.656268e+03 -6.144802e+04 0.000000e+00 0.000000e+00 0.000000e+00 0.000000e+00
-6.176458e+04 1.532789e+03 0.000000e+00 1.532789e+03 -6.133195e+04 0.000000e+00 0.000000e+00 0.000000e+00 0.000000e+00
-6.260057e+04 1.193420e+03 0.000000e+00 1.193420e+03 -6.094061e+04 0.000000e+00 0.000000e+00 0.000000e+00 0.000000e+00
-6.315361e+04 8.204559e+02 0.000000e+00 8.204559e+02 -6.060270e+04 0.000000e+00 0.000000e+00 0.000000e+00 0.000000e+00
-6.342418e+04 4.316428e+02 0.000000e+00 4.316428e+02 -6.032468e+04 0.000000e+00 0.000000e+00 0.000000e+00 0.000000e+00
-6.340722e+04 5.451967e+01 0.000000e+00 5.451967e+01 -6.010625e+04 0.000000e+00 0.000000e+00 0.000000e+00 0.000000e+00
-6.310911e+04 -2.795949e+02 0.000000e+00 -2.795949e+02 -5.996396e+04 0.000000e+00 0.000000e+00 0.000000e+00 0.000000e+00
-6.253668e+04 -5.211891e+02 0.000000e+00 -5.211891e+02 -5.989644e+04 0.000000e+00 0.000000e+00 0.000000e+00 0.000000e+00
-6.175100e+04 -6.009279e+02 0.000000e+00 -6.009279e+02 -5.991125e+04 0.000000e+00 0.000000e+00 0.000000e+00 0.000000e+00
-6.087321e+04 -4.360719e+02 0.000000e+00 -4.360719e+02 -5.994419e+04 0.000000e+00 0.000000e+00 0.000000e+00 0.000000e+00
-6.028615e+04 -2.725731e+02 0.000000e+00 -2.725731e+02 -5.992582e+04 0.000000e+00 0.000000e+00 0.000000e+00 0.000000e+00
-6.075346e+04 1.192559e+03 0.000000e+00 1.192559e+03 -6.089056e+04 0.000000e+00 0.000000e+00 0.000000e+00 0.000000e+00
-6.144531e+04 1.090527e+03 0.000000e+00 1.090527e+03 -6.078446e+04 0.000000e+00 0.000000e+00 0.000000e+00 0.000000e+00
-6.222828e+04 8.132720e+02 0.000000e+00 8.132720e+02 -6.044863e+04 0.000000e+00 0.000000e+00 0.000000e+00 0.000000e+00
-6.276281e+04 5.092520e+02 0.000000e+00 5.092520e+02 -6.017457e+04 0.000000e+00 0.000000e+00 0.000000e+00 0.000000e+00
-6.303362e+04 1.968740e+02 0.000000e+00 1.968740e+02 -5.997270e+04 0.000000e+00 0.000000e+00 0.000000e+00 0.000000e+00
-6.304838e+04 -9.769393e+01 0.000000e+00 -9.769393e+01 -5.984642e+04 0.000000e+00 0.000000e+00 0.000000e+00 0.000000e+00
-6.281877e+04 -3.450889e+02 0.000000e+00 -3.450889e+02 -5.979316e+04 0.000000e+00 0.000000e+00 0.000000e+00 0.000000e+00
-6.237480e+04 -5.072196e+02 0.000000e+00 -5.072196e+02 -5.980711e+04 0.000000e+00 0.000000e+00 0.000000e+00 0.000000e+00
-6.179879e+04 -5.331638e+02 0.000000e+00 -5.331638e+02 -5.987382e+04 0.000000e+00 0.000000e+00 0.000000e+00 0.000000e+00
-6.120315e+04 -3.681230e+02 0.000000e+00 -3.681230e+02 -5.993581e+04 0.000000e+00 0.000000e+00 0.000000e+00 0.000000e+00
-6.083227e+04 -2.220169e+02 0.000000e+00 -2.220169e+02 -5.994451e+04 0.000000e+00 0.000000e+00 0.000000e+00 0.000000e+00
-6.055788e+04 7.814611e+02 0.000000e+00 7.814611e+02 -6.045800e+04 0.000000e+00 0.000000e+00 0.000000e+00 0.000000e+00
-6.119917e+04 7.090131e+02 0.000000e+00 7.090131e+02 -6.036847e+04 0.000000e+00 0.000000e+00 0.000000e+00 0.000000e+00
-6.194177e+04 4.982603e+02 0.000000e+00 4.982603e+02 -6.007992e+04 0.000000e+00 0.000000e+00 0.000000e+00 0.000000e+00
-6.245960e+04 2.714716e+02 0.000000e+00 2.714716e+02 -5.986150e+04 0.000000e+00 0.000000e+00 0.000000e+00 0.000000e+00
-6.273979e+04 4.967696e+01 0.000000e+00 4.967696e+01 -5.972200e+04 0.000000e+00 0.000000e+00 0.000000e+00 0.000000e+00
-6.278409e+04 -1.571860e+02 0.000000e+00 -1.571860e+02 -5.966707e+04 0.000000e+00 0.000000e+00 0.000000e+00 0.000000e+00
-6.261548e+04 -3.273195e+02 0.000000e+00 -3.273195e+02 -5.967821e+04 0.000000e+00 0.000000e+00 0.000000e+00 0.000000e+00
-6.228181e+04 -4.294713e+02 0.000000e+00 -4.294713e+02 -5.974855e+04 0.000000e+00 0.000000e+00 0.000000e+00 0.000000e+00
-6.186895e+04 -4.278715e+02 0.000000e+00 -4.278715e+02 -5.984941e+04 0.000000e+00 0.000000e+00 0.000000e+00 0.000000e+00
-6.148754e+04 -2.883742e+02 0.000000e+00 -2.883742e+02 -5.993469e+04 0.000000e+00 0.000000e+00 0.000000e+00 0.000000e+00
-6.127075e+04 -1.704622e+02 0.000000e+00 -1.704622e+02 -5.996083e+04 0.000000e+00 0.000000e+00 0.000000e+00 0.000000e+00
-6.040910e+04 4.087993e+02 0.000000e+00 4.087993e+02 -6.011021e+04 0.000000e+00 0.000000e+00 0.000000e+00 0.000000e+00
-6.101959e+04 3.592156e+02 0.000000e+00 3.592156e+02 -6.002453e+04 0.000000e+00 0.000000e+00 0.000000e+00 0.000000e+00
-6.174977e+04 2.324860e+02 0.000000e+00 2.324860e+02 -5.977357e+04 0.000000e+00 0.000000e+00 0.000000e+00 0.000000e+00
-6.225794e+04 1.057031e+02 0.000000e+00 1.057031e+02 -5.961395e+04 0.000000e+00 0.000000e+00 0.000000e+00 0.000000e+00
-6.254656e+04 -2.365882e+01 0.000000e+00 -2.365882e+01 -5.953912e+04 0.000000e+00 0.000000e+00 0.000000e+00 0.000000e+00
-6.260890e+04 -1.471719e+02 0.000000e+00 -1.471719e+02 -5.953920e+04 0.000000e+00 0.000000e+00 0.000000e+00 0.000000e+00
-6.248402e+04 -2.506122e+02 0.000000e+00 -2.506122e+02 -5.960093e+04 0.000000e+00 0.000000e+00 0.000000e+00 0.000000e+00
-6.223329e+04 -3.088376e+02 0.000000e+00 -3.088376e+02 -5.970863e+04 0.000000e+00 0.000000e+00 0.000000e+00 0.000000e+00
-6.193458e+04 -2.979368e+02 0.000000e+00 -2.979368e+02 -5.983304e+04 0.000000e+00 0.000000e+00 0.000000e+00 0.000000e+00
-6.169771e+04 -1.989472e+02 0.000000e+00 -1.989472e+02 -5.993341e+04 0.000000e+00 0.000000e+00 0.000000e+00 0.000000e+00
-6.159670e+04 -1.187329e+02 0.000000e+00 -1.187329e+02 -5.997602e+04 0.000000e+00 0.000000e+00 0.000000e+00 0.000000e+00
-6.026946e+04 4.554990e+01 0.000000e+00 4.554990e+01 -5.968804e+04 0.000000e+00 0.000000e+00 0.000000e+00 0.000000e+00
-6.093856e+04 7.265462e+01 0.000000e+00 7.265462e+01 -5.965866e+04 0.000000e+00 0.000000e+00 0.000000e+00 0.000000e+00
-6.166682e+04 5.224440e+01 0.000000e+00 5.224440e+01 -5.950041e+04 0.000000e+00 0.000000e+00 0.000000e+00 0.000000e+00
-6.215720e+04 1.970704e+01 0.000000e+00 1.970704e+01 -5.942946e+04 0.000000e+00 0.000000e+00 0.000000e+00 0.000000e+00
-6.244195e+04 -3.170440e+01 0.000000e+00 -3.170440e+01 -5.941718e+04 0.000000e+00 0.000000e+00 0.000000e+00 0.000000e+00
-6.251146e+04 -8.753236e+01 0.000000e+00 -8.753236e+01 -5.946148e+04 0.000000e+00 0.000000e+00 0.000000e+00 0.000000e+00
-6.241239e+04 -1.346165e+02 0.000000e+00 -1.346165e+02 -5.955439e+04 0.000000e+00 0.000000e+00 0.000000e+00 0.000000e+00
-6.221035e+04 -1.605551e+02 0.000000e+00 -1.605551e+02 -5.968394e+04 0.000000e+00 0.000000e+00 0.000000e+00 0.000000e+00
-6.198035e+04 -1.531821e+02 0.000000e+00 -1.531821e+02 -5.982071e+04 0.000000e+00 0.000000e+00 0.000000e+00 0.000000e+00
-6.182036e+04 -1.021303e+02 0.000000e+00 -1.021303e+02 -5.992859e+04 0.000000e+00 0.000000e+00 0.000000e+00 0.000000e+00
-6.178861e+04 -6.309554e+01 0.000000e+00 -6.309554e+01 -5.997793e+04 0.000000e+00 0.000000e+00 0.000000e+00 0.000000e+00
-6.011062e+04 -2.195254e+02 0.000000e+00 -2.195254e+02 -5.918428e+04 0.000000e+00 0.000000e+00 0.000000e+00 0.000000e+00
-6.087870e+04 -1.074275e+02 0.000000e+00 -1.074275e+02 -5.931561e+04 0.000000e+00 0.000000e+00 0.000000e+00 0.000000e+00
-6.164447e+04 -3.982091e+01 0.000000e+00 -3.982091e+01 -5.935255e+04 0.000000e+00 0.000000e+00 0.000000e+00 0.000000e+00
-6.212921e+04 -2.381625e+01 0.000000e+00 -2.381625e+01 -5.935611e+04 0.000000e+00 0.000000e+00 0.000000e+00 0.000000e+00
-6.240957e+04 -3.059212e+01 0.000000e+00 -3.059212e+01 -5.937418e+04 0.000000e+00 0.000000e+00 0.000000e+00 0.000000e+00
-6.248043e+04 -4.470259e+01 0.000000e+00 -4.470259e+01 -5.943492e+04 0.000000e+00 0.000000e+00 0.000000e+00 0.000000e+00
-6.239025e+04 -5.787597e+01 0.000000e+00 -5.787597e+01 -5.953614e+04 0.000000e+00 0.000000e+00 0.000000e+00 0.000000e+00
-6.220289e+04 -6.602600e+01 0.000000e+00 -6.602600e+01 -5.967134e+04 0.000000e+00 0.000000e+00 0.000000e+00 0.000000e+00
-6.199694e+04 -6.499689e+01 0.000000e+00 -6.499689e+01 -5.981195e+04 0.000000e+00 0.000000e+00 0.000000e+00 0.000000e+00
-6.186060e+04 -4.614252e+01 0.000000e+00 -4.614252e+01 -5.992366e+04 0.000000e+00 0.000000e+00 0.000000e+00 0.000000e+00
-6.184586e+04 -3.117297e+01 0.000000e+00 -3.117297e+01 -5.997154e+04 0.000000e+00 0.000000e+00 0.000000e+00 0.000000e+00
</DataArray>
<DataArray Name="vol_eps" type="Float64" NumberOfComponents="1" format="ascii">
-1.947892e-03
-1.817463e-03
-1.769292e-03
-1.791381e-03
-1.886354e-03
-2.065621e-03
-2.331335e-03
-2.672446e-03
-3.060509e-03
-3.454849e-03
-3.562243e-03
-1.873959e-03
-1.762649e-03
-1.726755e-03
-1.750250e-03
-1.838001e-03
-2.002424e-03
-2.254890e-03
-2.602688e-03
-3.050408e-03
-3.553371e-03
-3.982185e-03
-1.728879e-03
-1.641569e-03
-1.611844e-03
-1.627999e-03
-1.692300e-03
-1.812087e-03
-2.006907e-03
-2.309313e-03
-2.817716e-03
-3.781884e-03
-5.099110e-03
-1.527426e-03
-1.466285e-03
-1.442596e-03
-1.445901e-03
-1.472708e-03
-1.518071e-03
-1.568875e-03
-1.592390e-03
-1.526951e-03
-1.188842e-03
-1.053732e-03
-1.287479e-03
-1.256732e-03
-1.240559e-03
-1.234689e-03
-1.231509e-03
-1.220926e-03
-1.184956e-03
-1.099837e-03
-9.305150e-04
-6.311187e-04
2.129741e-06
-1.037119e-03
-1.036614e-03
-1.031436e-03
-1.021369e-03
-1.000829e-03
-9.621037e-04
-8.921928e-04
-7.733178e-04
-5.847186e-04
-2.317945e-04
2.058266e-04
-8.055703e-04
-8.289442e-04
-8.353718e-04
-8.263403e-04
-7.998705e-04
-7.509562e-04
-6.714236e-04
-5.488107e-04
-3.593784e-04
-7.127503e-05
2.171364e-04
-6.068529e-04
-6.468053e-04
-6.638628e-04
-6.593961e-04
-6.334563e-04
-5.843051e-04
-5.073100e-04
-3.934987e-04
-2.327097e-04
-1.550438e-05
1.798147e-04
-4.476351e-04
-4.953716e-04
-5.185510e-04
-5.183971e-04
-4.967543e-04
-4.538210e-04
-3.867847e-04
-2.912929e-04
-1.646037e-04
-5.853893e-06
1.295011e-04
-3.246765e-04
-3.722190e-04
-3.981633e-04
-4.034588e-04
-3.888867e-04
-3.547728e-04
-3.006981e-04
-2.256133e-04
-1.298488e-04
-1.574784e-05
7.736471e-05
-2.297031e-04
-2.749506e-04
-3.036182e-04
-3.137034e-04
-3.052869e-04
-2.803784e-04
-2.398589e-04
-1.837769e-04
-1.137817e-04
-3.402769e-05
2.782791e-05
-1.586432e-04
-2.014312e-04
-2.308190e-04
-2.436530e-04
-2.411862e-04
-2.254404e-04
-1.972978e-04
-1.575028e-04
-1.085184e-04
-5.483828e-05
-1.491119e-05
-1.067115e-04
-1.462306e-04
-1.750167e-04
-1.899716e-04
-1.932371e-04
-1.852544e-04
-1.676913e-04
-1.411926e-04
-1.086714e-04
-7.499341e-05
-5.117810e-05
-6.698059e-05
-1.039899e-04
-1.324015e-04
-1.495046e-04
-1.580496e-04
-1.568144e-04
-1.474656e-04
-1.310199e-04
-1.110147e-04
-9.228186e-05
-8.047624e-05
-3.512992e-05
-7.012319e-05
-9.953632e-05
-1.202771e-04
-1.334055e-04
-1.375130e-04
-1.340368e-04
-1.248999e-04
-1.137310e-04
-1.049826e-04
-1.014068e-04
1.345056e-06
-4.035052e-05
-7.582960e-05
-1.018265e-04
-1.186217e-04
-1.261357e-04
-1.262192e-04
-1.214148e-04
-1.154910e-04
-1.122785e-04
-1.129282e-04
4.494878e-05
-1.402318e-05
-6.502552e-05
-9.520153e-05
-1.137247e-04
-1.224464e-04
-1.234811e-04
-1.199100e-04
-1.157476e-04
-1.144327e-04
-1.160559e-04
</DataArray>
</PointData>
</Piece>
</UnstructuredGrid>
</VTKFile>
