<?xml version="1.0"?>
<VTKFile type="UnstructuredGrid" version="0.1">
<UnstructuredGrid>
<FieldData>
<DataArray Name="TIME" type="Float64" format="ascii" NumberOfTuples="1">
0.000000e+00
</DataArray>
</FieldData>
<FieldData>
<DataArray Name="CYCLE" type="Int32" format="ascii" NumberOfTuples="1">
0
</DataArray>
</FieldData>
<Piece NumberOfPoints="187" NumberOfCells="160">
<Points>
<DataArray NumberOfComponents="3" type="Float64" format="ascii">
0.000000e+00 0.000000e+00 0.000000e+00
0.000000e+00 1.986185e-01 0.000000e+00
0.000000e+00 3.967277e-01 0.000000e+00
0.000000e+00 5.944149e-01 0.000000e+00
0.000000e+00 7.917893e-01 0.000000e+00
0.000000e+00 9.889351e-01 0.000000e+00
0.000000e+00 1.185923e+00 0.000000e+00
0.000000e+00 1.382867e+00 0.000000e+00
0.000000e+00 1.579942e+00 0.000000e+00
0.000000e+00 1.777445e+00 0.000000e+00
0.000000e+00 1.975250e+00 0.000000e+00
2.250000e-01 0.000000e+00 0.000000e+00
2.255691e-01 1.987100e-01 0.000000e+00
2.261102e-01 3.969805e-01 0.000000e+00
2.265128e-01 5.948426e-01 0.000000e+00
2.267502e-01 7.923824e-01 0.000000e+00
2.268547e-01 9.896573e-01 0.000000e+00
2.268306e-01 1.186720e+00 0.000000e+00
2.266241e-01 1.383650e+00 0.000000e+00
2.261558e-01 1.580563e+00 0.000000e+00
2.253567e-01 1.777596e+00 0.000000e+00
2.250000e-01 1.975250e+00 0.000000e+00
4.500000e-01 0.000000e+00 0.000000e+00
4.510194e-01 1.988956e-01 0.000000e+00
4.519450e-01 3.975422e-01 0.000000e+00
4.526822e-01 5.959580e-01 0.000000e+00
4.531970e-01 7.941198e-01 0.000000e+00
4.535258e-01 9.919792e-01 0.000000e+00
4.536731e-01 1.189492e+00 0.000000e+00
4.535239e-01 1.386651e+00 0.000000e+00
4.530084e-01 1.583371e+00 0.000000e+00
4.520959e-01 1.779542e+00 0.000000e+00
4.500000e-01 1.975250e+00 0.000000e+00
6.750000e-01 0.000000e+00 0.000000e+00
6.762890e-01 1.991169e-01 0.000000e+00
6.773534e-01 3.981658e-01 0.000000e+00
6.782023e-01 5.972028e-01 0.000000e+00
6.788605e-01 7.962577e-01 0.000000e+00
6.793631e-01 9.953613e-01 0.000000e+00
6.797274e-01 1.194561e+00 0.000000e+00
6.798548e-01 1.393899e+00 0.000000e+00
6.796582e-01 1.593413e+00 0.000000e+00
6.790263e-01 1.793239e+00 0.000000e+00
6.762280e-01 1.993796e+00 0.000000e+00
9.000000e-01 0.000000e+00 0.000000e+00
9.013826e-01 1.993254e-01 0.000000e+00
9.024246e-01 3.986669e-01 0.000000e+00
9.032215e-01 5.980540e-01 0.000000e+00
9.038211e-01 7.975004e-01 0.000000e+00
9.042426e-01 9.970244e-01 0.000000e+00
9.044805e-01 1.196658e+00 0.000000e+00
9.044669e-01 1.396437e+00 0.000000e+00
9.041171e-01 1.596391e+00 0.000000e+00
9.030998e-01 1.796564e+00 0.000000e+00
9.012550e-01 1.996526e+00 0.000000e+00
1.125000e+00 0.000000e+00 0.000000e+00
1.126353e+00 1.995097e-01 0.000000e+00
1.127315e+00 3.990758e-01 0.000000e+00
1.128032e+00 5.987017e-01 0.000000e+00
1.128552e+00 7.983934e-01 0.000000e+00
1.128889e+00 9.981641e-01 0.000000e+00
1.129023e+00 1.198031e+00 0.000000e+00
1.128914e+00 1.398008e+00 0.000000e+00
1.128473e+00 1.598098e+00 0.000000e+00
1.127626e+00 1.798212e+00 0.000000e+00
1.126488e+00 1.998250e+00 0.000000e+00
1.350000e+00 0.000000e+00 0.000000e+00
1.351242e+00 1.996567e-01 0.000000e+00
1.352106e+00 3.993846e-01 0.000000e+00
1.352742e+00 5.991728e-01 0.000000e+00
1.353188e+00 7.990225e-01 0.000000e+00
1.353452e+00 9.989405e-01 0.000000e+00
1.353522e+00 1.198933e+00 0.000000e+00
1.353372e+00 1.398999e+00 0.000000e+00
1.352972e+00 1.599112e+00 0.000000e+00
1.352340e+00 1.799217e+00 0.000000e+00
1.351614e+00 1.999239e+00 0.000000e+00
1.575000e+00 0.000000e+00 0.000000e+00
1.576085e+00 1.997670e-01 0.000000e+00
1.576851e+00 3.996064e-01 0.000000e+00
1.577407e+00 5.995021e-01 0.000000e+00
1.577789e+00 7.994524e-01 0.000000e+00
1.577999e+00 9.994578e-01 0.000000e+00
1.578036e+00 1.199518e+00 0.000000e+00
1.577890e+00 1.399622e+00 0.000000e+00
1.577570e+00 1.599741e+00 0.000000e+00
1.577123e+00 1.799833e+00 0.000000e+00
1.576660e+00 1.999865e+00 0.000000e+00
1.800000e+00 0.000000e+00 0.000000e+00
1.800916e+00 1.998428e-01 0.000000e+00
1.801579e+00 3.997557e-01 0.000000e+00
1.802063e+00 5.997208e-01 0.000000e+00
1.802388e+00 7.997330e-01 0.000000e+00
1.802559e+00 9.997913e-01 0.000000e+00
1.802583e+00 1.199888e+00 0.000000e+00
1.802466e+00 1.400006e+00 0.000000e+00
1.802230e+00 1.600122e+00 0.000000e+00
1.801925e+00 1.800210e+00 0.000000e+00
1.801636e+00 2.000252e+00 0.000000e+00
2.025000e+00 0.000000e+00 0.000000e+00
2.025750e+00 1.998932e-01 0.000000e+00
2.026314e+00 3.998517e-01 0.000000e+00
2.026727e+00 5.998590e-01 0.000000e+00
2.027002e+00 7.999094e-01 0.000000e+00
2.027147e+00 9.999959e-01 0.000000e+00
2.027171e+00 1.200108e+00 0.000000e+00
2.027088e+00 1.400229e+00 0.000000e+00
2.026925e+00 1.600342e+00 0.000000e+00
2.026725e+00 1.800429e+00 0.000000e+00
2.026554e+00 2.000481e+00 0.000000e+00
2.250000e+00 0.000000e+00 0.000000e+00
2.250599e+00 1.999243e-01 0.000000e+00
2.251067e+00 3.999102e-01 0.000000e+00
2.251412e+00 5.999421e-01 0.000000e+00
2.251643e+00 8.000124e-01 0.000000e+00
2.251768e+00 1.000112e+00 0.000000e+00
2.251797e+00 1.200228e+00 0.000000e+00
2.251744e+00 1.400348e+00 0.000000e+00
2.251638e+00 1.600458e+00 0.000000e+00
2.251514e+00 1.800546e+00 0.000000e+00
2.251421e+00 2.000609e+00 0.000000e+00
2.475000e+00 0.000000e+00 0.000000e+00
2.475467e+00 1.999441e-01 0.000000e+00
2.475843e+00 3.999435e-01 0.000000e+00
2.476125e+00 5.999879e-01 0.000000e+00
2.476315e+00 8.000665e-01 0.000000e+00
2.476421e+00 1.000170e+00 0.000000e+00
2.476453e+00 1.200286e+00 0.000000e+00
2.476425e+00 1.400402e+00 0.000000e+00
2.476360e+00 1.600509e+00 0.000000e+00
2.476289e+00 1.800599e+00 0.000000e+00
2.476247e+00 2.000672e+00 0.000000e+00
2.700000e+00 0.000000e+00 0.000000e+00
2.700352e+00 1.999546e-01 0.000000e+00
2.700643e+00 3.999616e-01 0.000000e+00
2.700864e+00 6.000110e-01 0.000000e+00
2.701015e+00 8.000917e-01 0.000000e+00
2.701102e+00 1.000194e+00 0.000000e+00
2.701134e+00 1.200307e+00 0.000000e+00
2.701123e+00 1.400420e+00 0.000000e+00
2.701087e+00 1.600524e+00 0.000000e+00
2.701050e+00 1.800617e+00 0.000000e+00
2.701037e+00 2.000697e+00 0.000000e+00
2.925000e+00 0.000000e+00 0.000000e+00
2.925253e+00 1.999621e-01 0.000000e+00
2.925464e+00 3.999724e-01 0.000000e+00
2.925627e+00 6.000226e-01 0.000000e+00
2.925740e+00 8.001026e-01 0.000000e+00
2.925807e+00 1.000202e+00 0.000000e+00
2.925835e+00 1.200311e+00 0.000000e+00
2.925833e+00 1.400421e+00 0.000000e+00
2.925815e+00 1.600524e+00 0.000000e+00
2.925798e+00 1.800618e+00 0.000000e+00
2.925801e+00 2.000705e+00 0.000000e+00
3.150000e+00 0.000000e+00 0.000000e+00
3.150164e+00 1.999674e-01 0.000000e+00
3.150302e+00 3.999800e-01 0.000000e+00
3.150409e+00 6.000312e-01 0.000000e+00
3.150483e+00 8.001100e-01 0.000000e+00
3.150529e+00 1.000207e+00 0.000000e+00
3.150549e+00 1.200313e+00 0.000000e+00
3.150551e+00 1.400420e+00 0.000000e+00
3.150543e+00 1.600523e+00 0.000000e+00
3.150538e+00 1.800618e+00 0.000000e+00
3.150545e+00 2.000709e+00 0.000000e+00
3.375000e+00 0.000000e+00 0.000000e+00
3.375082e+00 1.999731e-01 0.000000e+00
3.375149e+00 3.999901e-01 0.000000e+00
3.375202e+00 6.000431e-01 0.000000e+00
3.375239e+00 8.001217e-01 0.000000e+00
3.375262e+00 1.000217e+00 0.000000e+00
3.375272e+00 1.200322e+00 0.000000e+00
3.375274e+00 1.400427e+00 0.000000e+00
3.375272e+00 1.600528e+00 0.000000e+00
3.375270e+00 1.800624e+00 0.000000e+00
3.375275e+00 2.000718e+00 0.000000e+00
3.600000e+00 0.000000e+00 0.000000e+00
3.600000e+00 1.999883e-01 0.000000e+00
3.600000e+00 4.000101e-01 0.000000e+00
3.600000e+00 6.000639e-01 0.000000e+00
3.600000e+00 8.001420e-01 0.000000e+00
3.600000e+00 1.000237e+00 0.000000e+00
3.600000e+00 1.200341e+00 0.000000e+00
3.600000e+00 1.400445e+00 0.000000e+00
3.600000e+00 1.600547e+00 0.000000e+00
3.600000e+00 1.800643e+00 0.000000e+00
3.600000e+00 2.000737e+00 0.000000e+00
</DataArray>
</Points>
<Cells>
<DataArray Name="connectivity" type="Int32" format="ascii">
0 11 12 1
1 12 13 2
2 13 14 3
3 14 15 4
4 15 16 5
5 16 17 6
6 17 18 7
7 18 19 8
8 19 20 9
9 20 21 10
11 22 23 12
12 23 24 13
13 24 25 14
14 25 26 15
15 26 27 16
16 27 28 17
17 28 29 18
18 29 30 19
19 30 31 20
20 31 32 21
22 33 34 23
23 34 35 24
24 35 36 25
25 36 37 26
26 37 38 27
27 38 39 28
28 39 40 29
29 40 41 30
30 41 42 31
31 42 43 32
33 44 45 34
34 45 46 35
35 46 47 36
36 47 48 37
37 48 49 38
38 49 50 39
39 50 51 40
40 51 52 41
41 52 53 42
42 53 54 43
44 55 56 45
45 56 57 46
46 57 58 47
47 58 59 48
48 59 60 49
49 60 61 50
50 61 62 51
51 62 63 52
52 63 64 53
53 64 65 54
55 66 67 56
56 67 68 57
57 68 69 58
58 69 70 59
59 70 71 60
60 71 72 61
61 72 73 62
62 73 74 63
63 74 75 64
64 75 76 65
66 77 78 67
67 78 79 68
68 79 80 69
69 80 81 70
70 81 82 71
71 82 83 72
72 83 84 73
73 84 85 74
74 85 86 75
75 86 87 76
77 88 89 78
78 89 90 79
79 90 91 80
80 91 92 81
81 92 93 82
82 93 94 83
83 94 95 84
84 95 96 85
85 96 97 86
86 97 98 87
88 99 100 89
89 100 101 90
90 101 102 91
91 102 103 92
92 103 104 93
93 104 105 94
94 105 106 95
95 106 107 96
96 107 108 97
97 108 109 98
99 110 111 100
100 111 112 101
101 112 113 102
102 113 114 103
103 114 115 104
104 115 116 105
105 116 117 106
106 117 118 107
107 118 119 108
108 119 120 109
110 121 122 111
111 122 123 112
112 123 124 113
113 124 125 114
114 125 126 115
115 126 127 116
116 127 128 117
117 128 129 118
118 129 130 119
119 130 131 120
121 132 133 122
122 133 134 123
123 134 135 124
124 135 136 125
125 136 137 126
126 137 138 127
127 138 139 128
128 139 140 129
129 140 141 130
130 141 142 131
132 143 144 133
133 144 145 134
134 145 146 135
135 146 147 136
136 147 148 137
137 148 149 138
138 149 150 139
139 150 151 140
140 151 152 141
141 152 153 142
143 154 155 144
144 155 156 145
145 156 157 146
146 157 158 147
147 158 159 148
148 159 160 149
149 160 161 150
150 161 162 151
151 162 163 152
152 163 164 153
154 165 166 155
155 166 167 156
156 167 168 157
157 168 169 158
158 169 170 159
159 170 171 160
160 171 172 161
161 172 173 162
162 173 174 163
163 174 175 164
165 176 177 166
166 177 178 167
167 178 179 168
168 179 180 169
169 180 181 170
170 181 182 171
171 182 183 172
172 183 184 173
173 184 185 174
174 185 186 175
</DataArray>
<DataArray Name="offsets" type="Int32" format="ascii">
4
8
12
16
20
24
28
32
36
40
44
48
52
56
60
64
68
72
76
80
84
88
92
96
100
104
108
112
116
120
124
128
132
136
140
144
148
152
156
160
164
168
172
176
180
184
188
192
196
200
204
208
212
216
220
224
228
232
236
240
244
248
252
256
260
264
268
272
276
280
284
288
292
296
300
304
308
312
316
320
324
328
332
336
340
344
348
352
356
360
364
368
372
376
380
384
388
392
396
400
404
408
412
416
420
424
428
432
436
440
444
448
452
456
460
464
468
472
476
480
484
488
492
496
500
504
508
512
516
520
524
528
532
536
540
544
548
552
556
560
564
568
572
576
580
584
588
592
596
600
604
608
612
616
620
624
628
632
636
640
</DataArray>
<DataArray Name="types" type="UInt8" format="ascii">
9
9
9
9
9
9
9
9
9
9
9
9
9
9
9
9
9
9
9
9
9
9
9
9
9
9
9
9
9
9
9
9
9
9
9
9
9
9
9
9
9
9
9
9
9
9
9
9
9
9
9
9
9
9
9
9
9
9
9
9
9
9
9
9
9
9
9
9
9
9
9
9
9
9
9
9
9
9
9
9
9
9
9
9
9
9
9
9
9
9
9
9
9
9
9
9
9
9
9
9
9
9
9
9
9
9
9
9
9
9
9
9
9
9
9
9
9
9
9
9
9
9
9
9
9
9
9
9
9
9
9
9
9
9
9
9
9
9
9
9
9
9
9
9
9
9
9
9
9
9
9
9
9
9
9
9
9
9
9
9
</DataArray>
</Cells>
<PointData>
<DataArray Name="disp" type="Float64" NumberOfComponents="3" format="ascii">
0.000000e+00 0.000000e+00 0.000000e+00
0.000000e+00 -1.381467e-03 0.000000e+00
0.000000e+00 -3.272297e-03 0.000000e+00
0.000000e+00 -5.585138e-03 0.000000e+00
0.000000e+00 -8.210714e-03 0.000000e+00
0.000000e+00 -1.106490e-02 0.000000e+00
0.000000e+00 -1.407689e-02 0.000000e+00
0.000000e+00 -1.713289e-02 0.000000e+00
0.000000e+00 -2.005809e-02 0.000000e+00
0.000000e+00 -2.255530e-02 0.000000e+00
0.000000e+00 -2.475000e-02 0.000000e+00
0.000000e+00 0.000000e+00 0.000000e+00
5.691422e-04 -1.289958e-03 0.000000e+00
1.110246e-03 -3.019534e-03 0.000000e+00
1.512774e-03 -5.157434e-03 0.000000e+00
1.750212e-03 -7.617636e-03 0.000000e+00
1.854714e-03 -1.034268e-02 0.000000e+00
1.830618e-03 -1.328041e-02 0.000000e+00
1.624148e-03 -1.634992e-02 0.000000e+00
1.155828e-03 -1.943665e-02 0.000000e+00
3.566579e-04 -2.240398e-02 0.000000e+00
0.000000e+00 -2.475000e-02 0.000000e+00
0.000000e+00 0.000000e+00 0.000000e+00
1.019394e-03 -1.104360e-03 0.000000e+00
1.945043e-03 -2.457768e-03 0.000000e+00
2.682239e-03 -4.042001e-03 0.000000e+00
3.196990e-03 -5.880195e-03 0.000000e+00
3.525825e-03 -8.020795e-03 0.000000e+00
3.673081e-03 -1.050846e-02 0.000000e+00
3.523898e-03 -1.334895e-02 0.000000e+00
3.008437e-03 -1.662933e-02 0.000000e+00
2.095855e-03 -2.045793e-02 0.000000e+00
0.000000e+00 -2.475000e-02 0.000000e+00
0.000000e+00 0.000000e+00 0.000000e+00
1.288981e-03 -8.830699e-04 0.000000e+00
2.353396e-03 -1.834165e-03 0.000000e+00
3.202317e-03 -2.797244e-03 0.000000e+00
3.860528e-03 -3.742321e-03 0.000000e+00
4.363156e-03 -4.638727e-03 0.000000e+00
4.727368e-03 -5.438861e-03 0.000000e+00
4.854762e-03 -6.101127e-03 0.000000e+00
4.658169e-03 -6.586927e-03 0.000000e+00
4.026309e-03 -6.760647e-03 0.000000e+00
1.227990e-03 -6.204412e-03 0.000000e+00
0.000000e+00 0.000000e+00 0.000000e+00
1.382644e-03 -6.745611e-04 0.000000e+00
2.424645e-03 -1.333093e-03 0.000000e+00
3.221507e-03 -1.946003e-03 0.000000e+00
3.821044e-03 -2.499553e-03 0.000000e+00
4.242602e-03 -2.975593e-03 0.000000e+00
4.480497e-03 -3.341755e-03 0.000000e+00
4.466844e-03 -3.562809e-03 0.000000e+00
4.117128e-03 -3.609158e-03 0.000000e+00
3.099764e-03 -3.436262e-03 0.000000e+00
1.254925e-03 -3.474531e-03 0.000000e+00
0.000000e+00 0.000000e+00 0.000000e+00
1.353430e-03 -4.903088e-04 0.000000e+00
2.315185e-03 -9.242255e-04 0.000000e+00
3.032004e-03 -1.298278e-03 0.000000e+00
3.552210e-03 -1.606551e-03 0.000000e+00
3.888590e-03 -1.835960e-03 0.000000e+00
4.023437e-03 -1.969085e-03 0.000000e+00
3.913739e-03 -1.992094e-03 0.000000e+00
3.473294e-03 -1.901902e-03 0.000000e+00
2.626439e-03 -1.787595e-03 0.000000e+00
1.487967e-03 -1.750075e-03 0.000000e+00
0.000000e+00 0.000000e+00 0.000000e+00
1.241918e-03 -3.433218e-04 0.000000e+00
2.106148e-03 -6.153792e-04 0.000000e+00
2.742484e-03 -8.272117e-04 0.000000e+00
3.188098e-03 -9.774949e-04 0.000000e+00
3.452019e-03 -1.059487e-03 0.000000e+00
3.522355e-03 -1.066544e-03 0.000000e+00
3.371813e-03 -1.000740e-03 0.000000e+00
2.971876e-03 -8.877002e-04 0.000000e+00
2.339484e-03 -7.826775e-04 0.000000e+00
1.614259e-03 -7.608678e-04 0.000000e+00
0.000000e+00 0.000000e+00 0.000000e+00
1.085503e-03 -2.329961e-04 0.000000e+00
1.850521e-03 -3.935971e-04 0.000000e+00
2.407465e-03 -4.979203e-04 0.000000e+00
2.788962e-03 -5.476149e-04 0.000000e+00
2.999364e-03 -5.422334e-04 0.000000e+00
3.035716e-03 -4.821926e-04 0.000000e+00
2.889744e-03 -3.781719e-04 0.000000e+00
2.570051e-03 -2.586968e-04 0.000000e+00
2.123153e-03 -1.669934e-04 0.000000e+00
1.659508e-03 -1.350258e-04 0.000000e+00
0.000000e+00 0.000000e+00 0.000000e+00
9.158854e-04 -1.571981e-04 0.000000e+00
1.578522e-03 -2.442464e-04 0.000000e+00
2.062825e-03 -2.791816e-04 0.000000e+00
2.387651e-03 -2.669942e-04 0.000000e+00
2.559477e-03 -2.086682e-04 0.000000e+00
2.583413e-03 -1.124343e-04 0.000000e+00
2.466209e-03 5.890009e-06 0.000000e+00
2.230124e-03 1.219960e-04 0.000000e+00
1.925184e-03 2.099005e-04 0.000000e+00
1.635886e-03 2.516227e-04 0.000000e+00
0.000000e+00 0.000000e+00 0.000000e+00
7.497114e-04 -1.067725e-04 0.000000e+00
1.314064e-03 -1.482666e-04 0.000000e+00
1.727331e-03 -1.409882e-04 0.000000e+00
2.001935e-03 -9.061456e-05 0.000000e+00
2.147359e-03 -4.072263e-06 0.000000e+00
2.171482e-03 1.077336e-04 0.000000e+00
2.088400e-03 2.293683e-04 0.000000e+00
1.924581e-03 3.419964e-04 0.000000e+00
1.725028e-03 4.289648e-04 0.000000e+00
1.553860e-03 4.813578e-04 0.000000e+00
0.000000e+00 0.000000e+00 0.000000e+00
5.988689e-04 -7.569816e-05 0.000000e+00
1.067476e-03 -8.975960e-05 0.000000e+00
1.412359e-03 -5.784248e-05 0.000000e+00
1.643253e-03 1.240607e-05 0.000000e+00
1.767954e-03 1.116934e-04 0.000000e+00
1.796629e-03 2.282898e-04 0.000000e+00
1.744145e-03 3.483111e-04 0.000000e+00
1.637683e-03 4.578281e-04 0.000000e+00
1.513860e-03 5.458803e-04 0.000000e+00
1.421536e-03 6.089007e-04 0.000000e+00
0.000000e+00 0.000000e+00 0.000000e+00
4.670795e-04 -5.594338e-05 0.000000e+00
8.430599e-04 -5.645884e-05 0.000000e+00
1.124708e-03 -1.214024e-05 0.000000e+00
1.314800e-03 6.651904e-05 0.000000e+00
1.420934e-03 1.696351e-04 0.000000e+00
1.452578e-03 2.855183e-04 0.000000e+00
1.424595e-03 4.021919e-04 0.000000e+00
1.360118e-03 5.090476e-04 0.000000e+00
1.288726e-03 5.991732e-04 0.000000e+00
1.246917e-03 6.715893e-04 0.000000e+00
0.000000e+00 0.000000e+00 0.000000e+00
3.525148e-04 -4.543893e-05 0.000000e+00
6.431236e-04 -3.838427e-05 0.000000e+00
8.639844e-04 1.101097e-05 0.000000e+00
1.015197e-03 9.174152e-05 0.000000e+00
1.102533e-03 1.938475e-04 0.000000e+00
1.133913e-03 3.066578e-04 0.000000e+00
1.122709e-03 4.195934e-04 0.000000e+00
1.086775e-03 5.244436e-04 0.000000e+00
1.049610e-03 6.166336e-04 0.000000e+00
1.037469e-03 6.967508e-04 0.000000e+00
0.000000e+00 0.000000e+00 0.000000e+00
2.526397e-04 -3.787594e-05 0.000000e+00
4.643695e-04 -2.757389e-05 0.000000e+00
6.271809e-04 2.259403e-05 0.000000e+00
7.399539e-04 1.025720e-04 0.000000e+00
8.072167e-04 2.022719e-04 0.000000e+00
8.345586e-04 3.114617e-04 0.000000e+00
8.326792e-04 4.210598e-04 0.000000e+00
8.149621e-04 5.243291e-04 0.000000e+00
7.983685e-04 6.182080e-04 0.000000e+00
8.009695e-04 7.044458e-04 0.000000e+00
0.000000e+00 0.000000e+00 0.000000e+00
1.639590e-04 -3.261581e-05 0.000000e+00
3.019997e-04 -2.002232e-05 0.000000e+00
4.088514e-04 3.118291e-05 0.000000e+00
4.833152e-04 1.099744e-04 0.000000e+00
5.288497e-04 2.073089e-04 0.000000e+00
5.489406e-04 3.134699e-04 0.000000e+00
5.508112e-04 4.204013e-04 0.000000e+00
5.435452e-04 5.224924e-04 0.000000e+00
5.376564e-04 6.176785e-04 0.000000e+00
5.445465e-04 7.085582e-04 0.000000e+00
0.000000e+00 0.000000e+00 0.000000e+00
8.252579e-05 -2.694520e-05 0.000000e+00
1.491965e-04 -9.872685e-06 0.000000e+00
2.018601e-04 4.312409e-05 0.000000e+00
2.387366e-04 1.216702e-04 0.000000e+00
2.616245e-04 2.173959e-04 0.000000e+00
2.723059e-04 3.215358e-04 0.000000e+00
2.741621e-04 4.267280e-04 0.000000e+00
2.718977e-04 5.281012e-04 0.000000e+00
2.704828e-04 6.241982e-04 0.000000e+00
2.753490e-04 7.177543e-04 0.000000e+00
0.000000e+00 0.000000e+00 0.000000e+00
0.000000e+00 -1.167474e-05 0.000000e+00
0.000000e+00 1.013276e-05 0.000000e+00
0.000000e+00 6.394310e-05 0.000000e+00
0.000000e+00 1.420605e-04 0.000000e+00
0.000000e+00 2.373141e-04 0.000000e+00
0.000000e+00 3.408229e-04 0.000000e+00
0.000000e+00 4.454166e-04 0.000000e+00
0.000000e+00 5.465410e-04 0.000000e+00
0.000000e+00 6.428658e-04 0.000000e+00
0.000000e+00 7.372392e-04 0.000000e+00
</DataArray>
<DataArray Name="shear" type="Float64" NumberOfComponents="1" format="ascii">
7.696941e-03
1.059729e-02
1.522195e-02
1.887028e-02
2.139102e-02
2.294443e-02
2.343322e-02
2.238872e-02
1.911697e-02
1.423127e-02
1.182048e-02
7.735236e-03
1.024897e-02
1.432440e-02
1.780059e-02
2.059193e-02
2.275968e-02
2.407044e-02
2.407007e-02
2.241545e-02
1.854431e-02
1.492606e-02
8.011298e-03
9.575111e-03
1.212064e-02
1.478447e-02
1.788700e-02
2.155793e-02
2.554734e-02
2.965694e-02
3.393130e-02
3.614102e-02
3.603501e-02
8.132324e-03
8.669522e-03
9.422188e-03
1.051011e-02
1.227715e-02
1.490779e-02
1.831343e-02
2.246117e-02
2.743548e-02
3.020398e-02
3.185002e-02
7.906944e-03
7.734777e-03
7.338602e-03
7.325578e-03
7.582637e-03
7.982698e-03
8.297154e-03
8.335034e-03
7.618003e-03
4.693656e-03
1.322727e-03
7.351400e-03
6.821931e-03
5.959845e-03
5.634487e-03
5.534456e-03
5.503957e-03
5.390075e-03
5.006131e-03
4.020486e-03
1.981060e-03
1.474313e-04
6.556341e-03
5.917397e-03
4.940848e-03
4.509873e-03
4.269231e-03
4.087102e-03
3.855282e-03
3.441246e-03
2.659129e-03
1.349141e-03
2.964565e-04
5.640427e-03
5.048948e-03
4.158027e-03
3.728758e-03
3.468506e-03
3.276252e-03
3.065182e-03
2.727014e-03
2.137678e-03
1.198684e-03
4.615646e-04
4.712103e-03
4.231113e-03
3.517696e-03
3.155439e-03
2.946513e-03
2.805790e-03
2.644818e-03
2.372965e-03
1.912686e-03
1.209007e-03
6.752479e-04
3.836520e-03
3.483378e-03
2.968306e-03
2.707423e-03
2.580328e-03
2.497721e-03
2.382158e-03
2.169349e-03
1.806920e-03
1.273689e-03
8.911194e-04
3.054179e-03
2.811477e-03
2.478977e-03
2.332596e-03
2.289325e-03
2.264982e-03
2.194305e-03
2.033015e-03
1.752360e-03
1.358682e-03
1.094908e-03
2.375111e-03
2.214440e-03
2.039399e-03
2.009634e-03
2.046622e-03
2.076294e-03
2.047226e-03
1.931497e-03
1.723407e-03
1.446642e-03
1.274593e-03
1.789957e-03
1.693081e-03
1.654233e-03
1.735442e-03
1.846836e-03
1.923398e-03
1.929913e-03
1.855008e-03
1.708817e-03
1.526552e-03
1.423595e-03
1.283260e-03
1.240056e-03
1.326460e-03
1.513052e-03
1.690888e-03
1.806039e-03
1.840602e-03
1.799083e-03
1.702330e-03
1.592697e-03
1.540085e-03
8.348344e-04
8.447650e-04
1.069970e-03
1.353676e-03
1.580982e-03
1.723390e-03
1.777616e-03
1.760539e-03
1.700928e-03
1.642638e-03
1.623905e-03
4.272948e-04
5.342225e-04
9.111778e-04
1.260623e-03
1.515961e-03
1.673759e-03
1.740450e-03
1.739115e-03
1.703080e-03
1.674356e-03
1.673877e-03
1.647220e-04
4.078372e-04
8.576284e-04
1.226603e-03
1.491927e-03
1.656169e-03
1.728229e-03
1.733008e-03
1.705121e-03
1.685463e-03
1.690251e-03
</DataArray>
<DataArray Name="stress" type="Float64" NumberOfComponents="9" format="ascii">
-8.398564e+04 2.569673e+03 0.000000e+00 2.569673e+03 -1.280233e+05 0.000000e+00 0.000000e+00 0.000000e+00 0.000000e+00
-7.810165e+04 2.744858e+03 0.000000e+00 2.744858e+03 -1.283516e+05 0.000000e+00 0.000000e+00 0.000000e+00 0.000000e+00
-7.579352e+04 3.141707e+03 0.000000e+00 3.141707e+03 -1.345420e+05 0.000000e+00 0.000000e+00 0.000000e+00 0.000000e+00
-7.527942e+04 3.759472e+03 0.000000e+00 3.759472e+03 -1.415113e+05 0.000000e+00 0.000000e+00 0.000000e+00 0.000000e+00
-7.653515e+04 4.258863e+03 0.000000e+00 4.258863e+03 -1.491544e+05 0.000000e+00 0.000000e+00 0.000000e+00 0.000000e+00
-7.957341e+04 4.580517e+03 0.000000e+00 4.580517e+03 -1.570215e+05 0.000000e+00 0.000000e+00 0.000000e+00 0.000000e+00
-8.354685e+04 4.589096e+03 0.000000e+00 4.589096e+03 -1.647389e+05 0.000000e+00 0.000000e+00 0.000000e+00 0.000000e+00
-8.849230e+04 4.054716e+03 0.000000e+00 4.054716e+03 -1.715647e+05 0.000000e+00 0.000000e+00 0.000000e+00 0.000000e+00
-9.563538e+04 2.183201e+03 0.000000e+00 2.183201e+03 -1.754833e+05 0.000000e+00 0.000000e+00 0.000000e+00 0.000000e+00
-1.055794e+05 -4.592880e+02 0.000000e+00 -4.592880e+02 -1.771900e+05 0.000000e+00 0.000000e+00 0.000000e+00 0.000000e+00
-1.106901e+05 -1.240773e+03 0.000000e+00 -1.240773e+03 -1.766385e+05 0.000000e+00 0.000000e+00 0.000000e+00 0.000000e+00
-8.334777e+04 7.421872e+03 0.000000e+00 7.421872e+03 -1.239096e+05 0.000000e+00 0.000000e+00 0.000000e+00 0.000000e+00
-7.792005e+04 7.226650e+03 0.000000e+00 7.226650e+03 -1.241417e+05 0.000000e+00 0.000000e+00 0.000000e+00 0.000000e+00
-7.600836e+04 7.400995e+03 0.000000e+00 7.400995e+03 -1.298359e+05 0.000000e+00 0.000000e+00 0.000000e+00 0.000000e+00
-7.585882e+04 8.083688e+03 0.000000e+00 8.083688e+03 -1.361816e+05 0.000000e+00 0.000000e+00 0.000000e+00 0.000000e+00
-7.722483e+04 8.745556e+03 0.000000e+00 8.745556e+03 -1.432770e+05 0.000000e+00 0.000000e+00 0.000000e+00 0.000000e+00
-8.021581e+04 9.208821e+03 0.000000e+00 9.208821e+03 -1.508928e+05 0.000000e+00 0.000000e+00 0.000000e+00 0.000000e+00
-8.387594e+04 9.263041e+03 0.000000e+00 9.263041e+03 -1.589881e+05 0.000000e+00 0.000000e+00 0.000000e+00 0.000000e+00
-8.826670e+04 8.473092e+03 0.000000e+00 8.473092e+03 -1.675623e+05 0.000000e+00 0.000000e+00 0.000000e+00 0.000000e+00
-9.392209e+04 5.720713e+03 0.000000e+00 5.720713e+03 -1.761839e+05 0.000000e+00 0.000000e+00 0.000000e+00 0.000000e+00
-1.015484e+05 8.382471e+02 0.000000e+00 8.382471e+02 -1.814257e+05 0.000000e+00 0.000000e+00 0.000000e+00 0.000000e+00
-1.139790e+05 -3.820912e+03 0.000000e+00 -3.820912e+03 -1.903458e+05 0.000000e+00 0.000000e+00 0.000000e+00 0.000000e+00
-8.183319e+04 1.276923e+04 0.000000e+00 1.276923e+04 -1.150732e+05 0.000000e+00 0.000000e+00 0.000000e+00 0.000000e+00
-7.760875e+04 1.255090e+04 0.000000e+00 1.255090e+04 -1.147483e+05 0.000000e+00 0.000000e+00 0.000000e+00 0.000000e+00
-7.619518e+04 1.297529e+04 0.000000e+00 1.297529e+04 -1.182075e+05 0.000000e+00 0.000000e+00 0.000000e+00 0.000000e+00
-7.677070e+04 1.434531e+04 0.000000e+00 1.434531e+04 -1.220638e+05 0.000000e+00 0.000000e+00 0.000000e+00 0.000000e+00
-7.885835e+04 1.624830e+04 0.000000e+00 1.624830e+04 -1.268511e+05 0.000000e+00 0.000000e+00 0.000000e+00 0.000000e+00
-8.277812e+04 1.815275e+04 0.000000e+00 1.815275e+04 -1.327984e+05 0.000000e+00 0.000000e+00 0.000000e+00 0.000000e+00
-8.756955e+04 1.978238e+04 0.000000e+00 1.978238e+04 -1.402368e+05 0.000000e+00 0.000000e+00 0.000000e+00 0.000000e+00
-9.330257e+04 2.102504e+04 0.000000e+00 2.102504e+04 -1.498542e+05 0.000000e+00 0.000000e+00 0.000000e+00 0.000000e+00
-9.982941e+04 2.038210e+04 0.000000e+00 2.038210e+04 -1.611468e+05 0.000000e+00 0.000000e+00 0.000000e+00 0.000000e+00
-1.106446e+05 1.794738e+04 0.000000e+00 1.794738e+04 -1.766669e+05 0.000000e+00 0.000000e+00 0.000000e+00 0.000000e+00
-1.309525e+05 1.457490e+04 0.000000e+00 1.457490e+04 -1.981011e+05 0.000000e+00 0.000000e+00 0.000000e+00 0.000000e+00
-7.956870e+04 1.511924e+04 0.000000e+00 1.511924e+04 -1.050740e+05 0.000000e+00 0.000000e+00 0.000000e+00 0.000000e+00
-7.712216e+04 1.486302e+04 0.000000e+00 1.486302e+04 -1.044478e+05 0.000000e+00 0.000000e+00 0.000000e+00 0.000000e+00
-7.662316e+04 1.514885e+04 0.000000e+00 1.514885e+04 -1.053935e+05 0.000000e+00 0.000000e+00 0.000000e+00 0.000000e+00
-7.741068e+04 1.645884e+04 0.000000e+00 1.645884e+04 -1.056184e+05 0.000000e+00 0.000000e+00 0.000000e+00 0.000000e+00
-7.865745e+04 1.827136e+04 0.000000e+00 1.827136e+04 -1.047876e+05 0.000000e+00 0.000000e+00 0.000000e+00 0.000000e+00
-8.042802e+04 1.997472e+04 0.000000e+00 1.997472e+04 -1.028330e+05 0.000000e+00 0.000000e+00 0.000000e+00 0.000000e+00
-8.226985e+04 2.106119e+04 0.000000e+00 2.106119e+04 -1.000820e+05 0.000000e+00 0.000000e+00 0.000000e+00 0.000000e+00
-8.380127e+04 2.172427e+04 0.000000e+00 2.172427e+04 -9.602907e+04 0.000000e+00 0.000000e+00 0.000000e+00 0.000000e+00
-8.458313e+04 2.111097e+04 0.000000e+00 2.111097e+04 -8.992438e+04 0.000000e+00 0.000000e+00 0.000000e+00 0.000000e+00
-8.277687e+04 1.790123e+04 0.000000e+00 1.790123e+04 -7.965284e+04 0.000000e+00 0.000000e+00 0.000000e+00 0.000000e+00
-7.727144e+04 1.518393e+04 0.000000e+00 1.518393e+04 -7.337762e+04 0.000000e+00 0.000000e+00 0.000000e+00 0.000000e+00
-7.692594e+04 1.562426e+04 0.000000e+00 1.562426e+04 -9.560657e+04 0.000000e+00 0.000000e+00 0.000000e+00 0.000000e+00
-7.646851e+04 1.530585e+04 0.000000e+00 1.530585e+04 -9.519638e+04 0.000000e+00 0.000000e+00 0.000000e+00 0.000000e+00
-7.745801e+04 1.508119e+04 0.000000e+00 1.508119e+04 -9.489577e+04 0.000000e+00 0.000000e+00 0.000000e+00 0.000000e+00
-7.931056e+04 1.560036e+04 0.000000e+00 1.560036e+04 -9.392800e+04 0.000000e+00 0.000000e+00 0.000000e+00 0.000000e+00
-8.130780e+04 1.644441e+04 0.000000e+00 1.644441e+04 -9.212915e+04 0.000000e+00 0.000000e+00 0.000000e+00 0.000000e+00
-8.341045e+04 1.723228e+04 0.000000e+00 1.723228e+04 -8.932919e+04 0.000000e+00 0.000000e+00 0.000000e+00 0.000000e+00
-8.555814e+04 1.748186e+04 0.000000e+00 1.748186e+04 -8.556277e+04 0.000000e+00 0.000000e+00 0.000000e+00 0.000000e+00
-8.711712e+04 1.684449e+04 0.000000e+00 1.684449e+04 -8.049598e+04 0.000000e+00 0.000000e+00 0.000000e+00 0.000000e+00
-8.761780e+04 1.433489e+04 0.000000e+00 1.433489e+04 -7.358109e+04 0.000000e+00 0.000000e+00 0.000000e+00 0.000000e+00
-8.291207e+04 7.613847e+03 0.000000e+00 7.613847e+03 -6.714434e+04 0.000000e+00 0.000000e+00 0.000000e+00 0.000000e+00
-6.472729e+04 1.791724e+03 0.000000e+00 1.791724e+03 -5.887217e+04 0.000000e+00 0.000000e+00 0.000000e+00 0.000000e+00
-7.408002e+04 1.507810e+04 0.000000e+00 1.507810e+04 -8.698852e+04 0.000000e+00 0.000000e+00 0.000000e+00 0.000000e+00
-7.537106e+04 1.471188e+04 0.000000e+00 1.471188e+04 -8.678294e+04 0.000000e+00 0.000000e+00 0.000000e+00 0.000000e+00
-7.750905e+04 1.403398e+04 0.000000e+00 1.403398e+04 -8.573220e+04 0.000000e+00 0.000000e+00 0.000000e+00 0.000000e+00
-7.984980e+04 1.386893e+04 0.000000e+00 1.386893e+04 -8.417175e+04 0.000000e+00 0.000000e+00 0.000000e+00 0.000000e+00
-8.194168e+04 1.379614e+04 0.000000e+00 1.379614e+04 -8.196378e+04 0.000000e+00 0.000000e+00 0.000000e+00 0.000000e+00
-8.370374e+04 1.349882e+04 0.000000e+00 1.349882e+04 -7.900305e+04 0.000000e+00 0.000000e+00 0.000000e+00 0.000000e+00
-8.501120e+04 1.260779e+04 0.000000e+00 1.260779e+04 -7.524388e+04 0.000000e+00 0.000000e+00 0.000000e+00 0.000000e+00
-8.535730e+04 1.069005e+04 0.000000e+00 1.069005e+04 -7.062577e+04 0.000000e+00 0.000000e+00 0.000000e+00 0.000000e+00
-8.343948e+04 7.033998e+03 0.000000e+00 7.033998e+03 -6.585416e+04 0.000000e+00 0.000000e+00 0.000000e+00 0.000000e+00
-7.398580e+04 2.046173e+03 0.000000e+00 2.046173e+03 -6.216981e+04 0.000000e+00 0.000000e+00 0.000000e+00 0.000000e+00
-5.982866e+04 -3.306105e+02 0.000000e+00 -3.306105e+02 -5.875316e+04 0.000000e+00 0.000000e+00 0.000000e+00 0.000000e+00
-7.129859e+04 1.400491e+04 0.000000e+00 1.400491e+04 -7.991269e+04 0.000000e+00 0.000000e+00 0.000000e+00 0.000000e+00
-7.398191e+04 1.355975e+04 0.000000e+00 1.355975e+04 -7.985138e+04 0.000000e+00 0.000000e+00 0.000000e+00 0.000000e+00
-7.696844e+04 1.250396e+04 0.000000e+00 1.250396e+04 -7.846510e+04 0.000000e+00 0.000000e+00 0.000000e+00 0.000000e+00
-7.952622e+04 1.177213e+04 0.000000e+00 1.177213e+04 -7.675295e+04 0.000000e+00 0.000000e+00 0.000000e+00 0.000000e+00
-8.147341e+04 1.099710e+04 0.000000e+00 1.099710e+04 -7.458294e+04 0.000000e+00 0.000000e+00 0.000000e+00 0.000000e+00
-8.281514e+04 9.947512e+03 0.000000e+00 9.947512e+03 -7.188973e+04 0.000000e+00 0.000000e+00 0.000000e+00 0.000000e+00
-8.332727e+04 8.342336e+03 0.000000e+00 8.342336e+03 -6.878041e+04 0.000000e+00 0.000000e+00 0.000000e+00 0.000000e+00
-8.246534e+04 5.956667e+03 0.000000e+00 5.956667e+03 -6.548843e+04 0.000000e+00 0.000000e+00 0.000000e+00 0.000000e+00
-7.878591e+04 2.772342e+03 0.000000e+00 2.772342e+03 -6.255394e+04 0.000000e+00 0.000000e+00 0.000000e+00 0.000000e+00
-7.008595e+04 2.576737e+01 0.000000e+00 2.576737e+01 -6.066108e+04 0.000000e+00 0.000000e+00 0.000000e+00 0.000000e+00
-6.077555e+04 -9.516190e+02 0.000000e+00 -9.516190e+02 -5.895907e+04 0.000000e+00 0.000000e+00 0.000000e+00 0.000000e+00
-6.887504e+04 1.265294e+04 0.000000e+00 1.265294e+04 -7.446629e+04 0.000000e+00 0.000000e+00 0.000000e+00 0.000000e+00
-7.241082e+04 1.217169e+04 0.000000e+00 1.217169e+04 -7.445494e+04 0.000000e+00 0.000000e+00 0.000000e+00 0.000000e+00
-7.594748e+04 1.084799e+04 0.000000e+00 1.084799e+04 -7.298133e+04 0.000000e+00 0.000000e+00 0.000000e+00 0.000000e+00
-7.854217e+04 9.714099e+03 0.000000e+00 9.714099e+03 -7.133505e+04 0.000000e+00 0.000000e+00 0.000000e+00 0.000000e+00
-8.031113e+04 8.481336e+03 0.000000e+00 8.481336e+03 -6.941130e+04 0.000000e+00 0.000000e+00 0.000000e+00 0.000000e+00
-8.123685e+04 7.006398e+03 0.000000e+00 7.006398e+03 -6.725851e+04 0.000000e+00 0.000000e+00 0.000000e+00 0.000000e+00
-8.112162e+04 5.151864e+03 0.000000e+00 5.151864e+03 -6.496225e+04 0.000000e+00 0.000000e+00 0.000000e+00 0.000000e+00
-7.950166e+04 2.894197e+03 0.000000e+00 2.894197e+03 -6.277716e+04 0.000000e+00 0.000000e+00 0.000000e+00 0.000000e+00
-7.561205e+04 5.785967e+02 0.000000e+00 5.785967e+02 -6.108258e+04 0.000000e+00 0.000000e+00 0.000000e+00 0.000000e+00
-6.870614e+04 -7.671380e+02 0.000000e+00 -7.671380e+02 -6.020446e+04 0.000000e+00 0.000000e+00 0.000000e+00 0.000000e+00
-6.245398e+04 -9.502372e+02 0.000000e+00 -9.502372e+02 -5.930773e+04 0.000000e+00 0.000000e+00 0.000000e+00 0.000000e+00
-6.694128e+04 1.115552e+04 0.000000e+00 1.115552e+04 -7.047204e+04 0.000000e+00 0.000000e+00 0.000000e+00 0.000000e+00
-7.080846e+04 1.066841e+04 0.000000e+00 1.066841e+04 -7.042265e+04 0.000000e+00 0.000000e+00 0.000000e+00 0.000000e+00
-7.458208e+04 9.242560e+03 0.000000e+00 9.242560e+03 -6.895950e+04 0.000000e+00 0.000000e+00 0.000000e+00 0.000000e+00
-7.714162e+04 7.856179e+03 0.000000e+00 7.856179e+03 -6.748243e+04 0.000000e+00 0.000000e+00 0.000000e+00 0.000000e+00
-7.874171e+04 6.415725e+03 0.000000e+00 6.415725e+03 -6.591004e+04 0.000000e+00 0.000000e+00 0.000000e+00 0.000000e+00
-7.934774e+04 4.779206e+03 0.000000e+00 4.779206e+03 -6.426425e+04 0.000000e+00 0.000000e+00 0.000000e+00 0.000000e+00
-7.889653e+04 2.953976e+03 0.000000e+00 2.953976e+03 -6.265211e+04 0.000000e+00 0.000000e+00 0.000000e+00 0.000000e+00
-7.711354e+04 1.070324e+03 0.000000e+00 1.070324e+03 -6.128977e+04 0.000000e+00 0.000000e+00 0.000000e+00 0.000000e+00
-7.369557e+04 -4.862671e+02 0.000000e+00 -4.862671e+02 -6.038448e+04 0.000000e+00 0.000000e+00 0.000000e+00 0.000000e+00
-6.855140e+04 -1.022138e+03 0.000000e+00 -1.022138e+03 -6.001264e+04 0.000000e+00 0.000000e+00 0.000000e+00 0.000000e+00
-6.429967e+04 -8.806497e+02 0.000000e+00 -8.806497e+02 -5.949148e+04 0.000000e+00 0.000000e+00 0.000000e+00 0.000000e+00
-6.550067e+04 9.640534e+03 0.000000e+00 9.640534e+03 -6.758240e+04 0.000000e+00 0.000000e+00 0.000000e+00 0.000000e+00
-6.927285e+04 9.141811e+03 0.000000e+00 9.141811e+03 -6.749290e+04 0.000000e+00 0.000000e+00 0.000000e+00 0.000000e+00
-7.304909e+04 7.738288e+03 0.000000e+00 7.738288e+03 -6.611280e+04 0.000000e+00 0.000000e+00 0.000000e+00 0.000000e+00
-7.557316e+04 6.300399e+03 0.000000e+00 6.300399e+03 -6.483009e+04 0.000000e+00 0.000000e+00 0.000000e+00 0.000000e+00
-7.701451e+04 4.782231e+03 0.000000e+00 4.782231e+03 -6.355791e+04 0.000000e+00 0.000000e+00 0.000000e+00 0.000000e+00
-7.746493e+04 3.170346e+03 0.000000e+00 3.170346e+03 -6.232833e+04 0.000000e+00 0.000000e+00 0.000000e+00 0.000000e+00
-7.693202e+04 1.542097e+03 0.000000e+00 1.542097e+03 -6.125591e+04 0.000000e+00 0.000000e+00 0.000000e+00 0.000000e+00
-7.533692e+04 6.585406e+01 0.000000e+00 6.585406e+01 -6.046972e+04 0.000000e+00 0.000000e+00 0.000000e+00 0.000000e+00
-7.261853e+04 -9.441740e+02 0.000000e+00 -9.441740e+02 -6.003730e+04 0.000000e+00 0.000000e+00 0.000000e+00 0.000000e+00
-6.892562e+04 -1.052713e+03 0.000000e+00 -1.052713e+03 -5.992997e+04 0.000000e+00 0.000000e+00 0.000000e+00 0.000000e+00
-6.605110e+04 -7.736572e+02 0.000000e+00 -7.736572e+02 -5.963962e+04 0.000000e+00 0.000000e+00 0.000000e+00 0.000000e+00
-6.437708e+04 8.098424e+03 0.000000e+00 8.098424e+03 -6.560236e+04 0.000000e+00 0.000000e+00 0.000000e+00 0.000000e+00
-6.786535e+04 7.633598e+03 0.000000e+00 7.633598e+03 -6.544363e+04 0.000000e+00 0.000000e+00 0.000000e+00 0.000000e+00
-7.152504e+04 6.358700e+03 0.000000e+00 6.358700e+03 -6.416298e+04 0.000000e+00 0.000000e+00 0.000000e+00 0.000000e+00
-7.396002e+04 4.977098e+03 0.000000e+00 4.977098e+03 -6.302730e+04 0.000000e+00 0.000000e+00 0.000000e+00 0.000000e+00
-7.531373e+04 3.517862e+03 0.000000e+00 3.517862e+03 -6.199812e+04 0.000000e+00 0.000000e+00 0.000000e+00 0.000000e+00
-7.574384e+04 2.058567e+03 0.000000e+00 2.058567e+03 -6.111116e+04 0.000000e+00 0.000000e+00 0.000000e+00 0.000000e+00
-7.531409e+04 6.891875e+02 0.000000e+00 6.891875e+02 -6.042886e+04 0.000000e+00 0.000000e+00 0.000000e+00 0.000000e+00
-7.406388e+04 -4.299643e+02 0.000000e+00 -4.299643e+02 -6.000563e+04 0.000000e+00 0.000000e+00 0.000000e+00 0.000000e+00
-7.205095e+04 -1.074486e+03 0.000000e+00 -1.074486e+03 -5.985370e+04 0.000000e+00 0.000000e+00 0.000000e+00 0.000000e+00
-6.950142e+04 -9.704971e+02 0.000000e+00 -9.704971e+02 -5.988745e+04 0.000000e+00 0.000000e+00 0.000000e+00 0.000000e+00
-6.761808e+04 -6.594277e+02 0.000000e+00 -6.594277e+02 -5.974528e+04 0.000000e+00 0.000000e+00 0.000000e+00 0.000000e+00
-6.354693e+04 6.568487e+03 0.000000e+00 6.568487e+03 -6.426078e+04 0.000000e+00 0.000000e+00 0.000000e+00 0.000000e+00
-6.668352e+04 6.182269e+03 0.000000e+00 6.182269e+03 -6.404805e+04 0.000000e+00 0.000000e+00 0.000000e+00 0.000000e+00
-7.012248e+04 5.094780e+03 0.000000e+00 5.094780e+03 -6.285897e+04 0.000000e+00 0.000000e+00 0.000000e+00 0.000000e+00
-7.243852e+04 3.840861e+03 0.000000e+00 3.840861e+03 -6.183203e+04 0.000000e+00 0.000000e+00 0.000000e+00 0.000000e+00
-7.377677e+04 2.552976e+03 0.000000e+00 2.552976e+03 -6.099081e+04 0.000000e+00 0.000000e+00 0.000000e+00 0.000000e+00
-7.426830e+04 1.310530e+03 0.000000e+00 1.310530e+03 -6.034880e+04 0.000000e+00 0.000000e+00 0.000000e+00 0.000000e+00
-7.403601e+04 2.112492e+02 0.000000e+00 2.112492e+02 -5.993714e+04 0.000000e+00 0.000000e+00 0.000000e+00 0.000000e+00
-7.316624e+04 -6.210473e+02 0.000000e+00 -6.210473e+02 -5.974415e+04 0.000000e+00 0.000000e+00 0.000000e+00 0.000000e+00
-7.178034e+04 -1.024301e+03 0.000000e+00 -1.024301e+03 -5.975547e+04 0.000000e+00 0.000000e+00 0.000000e+00 0.000000e+00
-7.011484e+04 -8.328622e+02 0.000000e+00 -8.328622e+02 -5.986268e+04 0.000000e+00 0.000000e+00 0.000000e+00 0.000000e+00
-6.895744e+04 -5.366340e+02 0.000000e+00 -5.366340e+02 -5.981749e+04 0.000000e+00 0.000000e+00 0.000000e+00 0.000000e+00
-6.295205e+04 5.107262e+03 0.000000e+00 5.107262e+03 -6.337780e+04 0.000000e+00 0.000000e+00 0.000000e+00 0.000000e+00
-6.573048e+04 4.784703e+03 0.000000e+00 4.784703e+03 -6.311781e+04 0.000000e+00 0.000000e+00 0.000000e+00 0.000000e+00
-6.888394e+04 3.891020e+03 0.000000e+00 3.891020e+03 -6.198895e+04 0.000000e+00 0.000000e+00 0.000000e+00 0.000000e+00
-7.111923e+04 2.860763e+03 0.000000e+00 2.860763e+03 -6.106728e+04 0.000000e+00 0.000000e+00 0.000000e+00 0.000000e+00
-7.247758e+04 1.802413e+03 0.000000e+00 1.802413e+03 -6.037336e+04 0.000000e+00 0.000000e+00 0.000000e+00 0.000000e+00
-7.307884e+04 8.153290e+02 0.000000e+00 8.153290e+02 -5.989679e+04 0.000000e+00 0.000000e+00 0.000000e+00 0.000000e+00
-7.306038e+04 -2.650421e+01 0.000000e+00 -2.650421e+01 -5.965683e+04 0.000000e+00 0.000000e+00 0.000000e+00 0.000000e+00
-7.254295e+04 -6.281515e+02 0.000000e+00 -6.281515e+02 -5.960898e+04 0.000000e+00 0.000000e+00 0.000000e+00 0.000000e+00
-7.167312e+04 -8.775610e+02 0.000000e+00 -8.775610e+02 -5.971184e+04 0.000000e+00 0.000000e+00 0.000000e+00 0.000000e+00
-7.067883e+04 -6.701021e+02 0.000000e+00 -6.701021e+02 -5.985716e+04 0.000000e+00 0.000000e+00 0.000000e+00 0.000000e+00
-7.004271e+04 -4.130904e+02 0.000000e+00 -4.130904e+02 -5.987407e+04 0.000000e+00 0.000000e+00 0.000000e+00 0.000000e+00
-6.247728e+04 3.694169e+03 0.000000e+00 3.694169e+03 -6.277527e+04 0.000000e+00 0.000000e+00 0.000000e+00 0.000000e+00
-6.497567e+04 3.444356e+03 0.000000e+00 3.444356e+03 -6.249163e+04 0.000000e+00 0.000000e+00 0.000000e+00 0.000000e+00
-6.791330e+04 2.776957e+03 0.000000e+00 2.776957e+03 -6.143381e+04 0.000000e+00 0.000000e+00 0.000000e+00 0.000000e+00
-7.007516e+04 2.006851e+03 0.000000e+00 2.006851e+03 -6.058704e+04 0.000000e+00 0.000000e+00 0.000000e+00 0.000000e+00
-7.146218e+04 1.210319e+03 0.000000e+00 1.210319e+03 -6.000281e+04 0.000000e+00 0.000000e+00 0.000000e+00 0.000000e+00
-7.217646e+04 4.867646e+02 0.000000e+00 4.867646e+02 -5.964639e+04 0.000000e+00 0.000000e+00 0.000000e+00 0.000000e+00
-7.234823e+04 -1.183192e+02 0.000000e+00 -1.183192e+02 -5.951282e+04 0.000000e+00 0.000000e+00 0.000000e+00 0.000000e+00
-7.212099e+04 -5.315129e+02 0.000000e+00 -5.315129e+02 -5.955020e+04 0.000000e+00 0.000000e+00 0.000000e+00 0.000000e+00
-7.165070e+04 -6.802141e+02 0.000000e+00 -6.802141e+02 -5.969737e+04 0.000000e+00 0.000000e+00 0.000000e+00 0.000000e+00
-7.114296e+04 -4.991712e+02 0.000000e+00 -4.991712e+02 -5.986243e+04 0.000000e+00 0.000000e+00 0.000000e+00 0.000000e+00
-7.086955e+04 -2.998794e+02 0.000000e+00 -2.998794e+02 -5.992053e+04 0.000000e+00 0.000000e+00 0.000000e+00 0.000000e+00
-6.215650e+04 2.321828e+03 0.000000e+00 2.321828e+03 -6.232416e+04 0.000000e+00 0.000000e+00 0.000000e+00 0.000000e+00
-6.445300e+04 2.162890e+03 0.000000e+00 2.162890e+03 -6.203068e+04 0.000000e+00 0.000000e+00 0.000000e+00 0.000000e+00
-6.723182e+04 1.736564e+03 0.000000e+00 1.736564e+03 -6.104480e+04 0.000000e+00 0.000000e+00 0.000000e+00 0.000000e+00
-6.933760e+04 1.247538e+03 0.000000e+00 1.247538e+03 -6.027854e+04 0.000000e+00 0.000000e+00 0.000000e+00 0.000000e+00
-7.074993e+04 7.375558e+02 0.000000e+00 7.375558e+02 -5.977615e+04 0.000000e+00 0.000000e+00 0.000000e+00 0.000000e+00
-7.154800e+04 2.654078e+02 0.000000e+00 2.654078e+02 -5.950993e+04 0.000000e+00 0.000000e+00 0.000000e+00 0.000000e+00
-7.186770e+04 -1.219176e+02 0.000000e+00 -1.219176e+02 -5.943886e+04 0.000000e+00 0.000000e+00 0.000000e+00 0.000000e+00
-7.185348e+04 -3.782891e+02 0.000000e+00 -3.782891e+02 -5.952388e+04 0.000000e+00 0.000000e+00 0.000000e+00 0.000000e+00
-7.166421e+04 -4.594780e+02 0.000000e+00 -4.594780e+02 -5.969577e+04 0.000000e+00 0.000000e+00 0.000000e+00 0.000000e+00
-7.148091e+04 -3.292562e+02 0.000000e+00 -3.292562e+02 -5.986700e+04 0.000000e+00 0.000000e+00 0.000000e+00 0.000000e+00
-7.144558e+04 -1.958446e+02 0.000000e+00 -1.958446e+02 -5.995202e+04 0.000000e+00 0.000000e+00 0.000000e+00 0.000000e+00
-6.192522e+04 1.001470e+03 0.000000e+00 1.001470e+03 -6.187338e+04 0.000000e+00 0.000000e+00 0.000000e+00 0.000000e+00
-6.417460e+04 9.757805e+02 0.000000e+00 9.757805e+02 -6.161871e+04 0.000000e+00 0.000000e+00 0.000000e+00 0.000000e+00
-6.685291e+04 8.014108e+02 0.000000e+00 8.014108e+02 -6.073888e+04 0.000000e+00 0.000000e+00 0.000000e+00 0.000000e+00
-6.891416e+04 5.853414e+02 0.000000e+00 5.853414e+02 -6.008327e+04 0.000000e+00 0.000000e+00 0.000000e+00 0.000000e+00
-7.033418e+04 3.481449e+02 0.000000e+00 3.481449e+02 -5.964797e+04 0.000000e+00 0.000000e+00 0.000000e+00 0.000000e+00
-7.117713e+04 1.146984e+02 0.000000e+00 1.146984e+02 -5.943975e+04 0.000000e+00 0.000000e+00 0.000000e+00 0.000000e+00
-7.159184e+04 -7.395723e+01 0.000000e+00 -7.395723e+01 -5.940569e+04 0.000000e+00 0.000000e+00 0.000000e+00 0.000000e+00
-7.170658e+04 -1.955953e+02 0.000000e+00 -1.955953e+02 -5.951569e+04 0.000000e+00 0.000000e+00 0.000000e+00 0.000000e+00
-7.168284e+04 -2.313260e+02 0.000000e+00 -2.313260e+02 -5.969980e+04 0.000000e+00 0.000000e+00 0.000000e+00 0.000000e+00
-7.168468e+04 -1.629211e+02 0.000000e+00 -1.629211e+02 -5.987066e+04 0.000000e+00 0.000000e+00 0.000000e+00 0.000000e+00
-7.178069e+04 -9.606032e+01 0.000000e+00 -9.606032e+01 -5.996546e+04 0.000000e+00 0.000000e+00 0.000000e+00 0.000000e+00
-6.174757e+04 1.031193e+02 0.000000e+00 1.031193e+02 -6.138774e+04 0.000000e+00 0.000000e+00 0.000000e+00 0.000000e+00
-6.405469e+04 1.965238e+02 0.000000e+00 1.965238e+02 -6.128084e+04 0.000000e+00 0.000000e+00 0.000000e+00 0.000000e+00
-6.673122e+04 2.062224e+02 0.000000e+00 2.062224e+02 -6.058805e+04 0.000000e+00 0.000000e+00 0.000000e+00 0.000000e+00
-6.878255e+04 1.580844e+02 0.000000e+00 1.580844e+02 -6.001523e+04 0.000000e+00 0.000000e+00 0.000000e+00 0.000000e+00
-7.019914e+04 8.940002e+01 0.000000e+00 8.940002e+01 -5.960910e+04 0.000000e+00 0.000000e+00 0.000000e+00 0.000000e+00
-7.105282e+04 7.680858e+00 0.000000e+00 7.680858e+00 -5.941491e+04 0.000000e+00 0.000000e+00 0.000000e+00 0.000000e+00
-7.150162e+04 -5.837081e+01 0.000000e+00 -5.837081e+01 -5.939635e+04 0.000000e+00 0.000000e+00 0.000000e+00 0.000000e+00
-7.165960e+04 -9.988234e+01 0.000000e+00 -9.988234e+01 -5.951492e+04 0.000000e+00 0.000000e+00 0.000000e+00 0.000000e+00
-7.169114e+04 -1.134133e+02 0.000000e+00 -1.134133e+02 -5.970370e+04 0.000000e+00 0.000000e+00 0.000000e+00 0.000000e+00
-7.175308e+04 -8.714565e+01 0.000000e+00 -8.714565e+01 -5.987471e+04 0.000000e+00 0.000000e+00 0.000000e+00 0.000000e+00
-7.188877e+04 -6.167195e+01 0.000000e+00 -6.167195e+01 -5.997156e+04 0.000000e+00 0.000000e+00 0.000000e+00 0.000000e+00
</DataArray>
<DataArray Name="vol_eps" type="Float64" NumberOfComponents="1" format="ascii">
-5.933756e-03
-5.495852e-03
-5.459809e-03
-5.553020e-03
-5.889518e-03
-6.480813e-03
-7.258090e-03
-8.205854e-03
-9.295295e-03
-1.040808e-02
-1.075775e-02
-5.636416e-03
-5.220779e-03
-5.224990e-03
-5.351473e-03
-5.652820e-03
-6.165939e-03
-6.840335e-03
-7.736085e-03
-8.885824e-03
-1.006501e-02
-1.175096e-02
-4.974756e-03
-4.615760e-03
-4.611112e-03
-4.726815e-03
-4.950892e-03
-5.296963e-03
-5.668131e-03
-6.166785e-03
-6.939209e-03
-8.259143e-03
-1.092890e-02
-4.168189e-03
-3.936891e-03
-3.923072e-03
-3.914500e-03
-3.800464e-03
-3.550809e-03
-3.120093e-03
-2.471611e-03
-1.589086e-03
-3.002293e-05
1.377651e-03
-3.352628e-03
-3.300280e-03
-3.362988e-03
-3.419634e-03
-3.418245e-03
-3.352578e-03
-3.227202e-03
-2.984819e-03
-2.573269e-03
-1.898232e-03
-1.888047e-04
-2.591317e-03
-2.685311e-03
-2.787979e-03
-2.845494e-03
-2.838650e-03
-2.759576e-03
-2.600994e-03
-2.321933e-03
-1.884047e-03
-1.026928e-03
1.157812e-04
-1.948187e-03
-2.147831e-03
-2.277844e-03
-2.337913e-03
-2.326537e-03
-2.242287e-03
-2.072375e-03
-1.796015e-03
-1.359943e-03
-6.787726e-04
2.519124e-05
-1.436649e-03
-1.695050e-03
-1.851549e-03
-1.919687e-03
-1.913115e-03
-1.833140e-03
-1.671250e-03
-1.418925e-03
-1.057058e-03
-5.628961e-04
-1.101326e-04
-1.056594e-03
-1.330446e-03
-1.501138e-03
-1.578438e-03
-1.579958e-03
-1.508601e-03
-1.371024e-03
-1.165341e-03
-8.886074e-04
-5.407943e-04
-2.401626e-04
-7.851848e-04
-1.046041e-03
-1.217235e-03
-1.301238e-03
-1.310616e-03
-1.256643e-03
-1.150609e-03
-9.976868e-04
-7.977271e-04
-5.587001e-04
-3.598325e-04
-5.974684e-04
-8.285407e-04
-9.928008e-04
-1.077431e-03
-1.096337e-03
-1.064735e-03
-9.927504e-04
-8.864501e-04
-7.498054e-04
-5.918362e-04
-4.639682e-04
-4.700066e-04
-6.699080e-04
-8.196438e-04
-9.013438e-04
-9.313591e-04
-9.206005e-04
-8.793491e-04
-8.122130e-04
-7.263143e-04
-6.289568e-04
-5.526170e-04
-3.885430e-04
-5.571045e-04
-6.876011e-04
-7.685835e-04
-8.087715e-04
-8.155631e-04
-7.988537e-04
-7.638633e-04
-7.166640e-04
-6.642268e-04
-6.251859e-04
-3.310024e-04
-4.760956e-04
-5.932018e-04
-6.728705e-04
-7.207536e-04
-7.419636e-04
-7.443597e-04
-7.333921e-04
-7.141414e-04
-6.934081e-04
-6.801927e-04
-2.887684e-04
-4.178142e-04
-5.269963e-04
-6.072605e-04
-6.618053e-04
-6.935086e-04
-7.092327e-04
-7.145350e-04
-7.145001e-04
-7.144418e-04
-7.177080e-04
-2.481898e-04
-3.754070e-04
-4.849290e-04
-5.686410e-04
-6.278832e-04
-6.658548e-04
-6.895700e-04
-7.043940e-04
-7.156116e-04
-7.272404e-04
-7.395603e-04
-2.060878e-04
-3.464444e-04
-4.685292e-04
-5.563975e-04
-6.171336e-04
-6.566644e-04
-6.832518e-04
-7.012747e-04
-7.162337e-04
-7.317229e-04
-7.468670e-04
</DataArray>
</PointData>
</Piece>
</UnstructuredGrid>
</VTKFile>
