<?xml version="1.0"?>
<VTKFile type="UnstructuredGrid" version="0.1">
<UnstructuredGrid>
<FieldData>
<DataArray Name="TIME" type="Float64" format="ascii" NumberOfTuples="1">
0.000000e+00
</DataArray>
</FieldData>
<FieldData>
<DataArray Name="CYCLE" type="Int32" format="ascii" NumberOfTuples="1">
0
</DataArray>
</FieldData>
<Piece NumberOfPoints="187" NumberOfCells="160">
<Points>
<DataArray NumberOfComponents="3" type="Float64" format="ascii">
0.000000e+00 0.000000e+00 0.000000e+00
0.000000e+00 1.964754e-01 0.000000e+00
0.000000e+00 3.903705e-01 0.000000e+00
0.000000e+00 5.809656e-01 0.000000e+00
0.000000e+00 7.692490e-01 0.000000e+00
0.000000e+00 9.564881e-01 0.000000e+00
0.000000e+00 1.143915e+00 0.000000e+00
0.000000e+00 1.332455e+00 0.000000e+00
0.000000e+00 1.523572e+00 0.000000e+00
0.000000e+00 1.718623e+00 0.000000e+00
0.000000e+00 1.914500e+00 0.000000e+00
2.250000e-01 0.000000e+00 0.000000e+00
2.273927e-01 1.962620e-01 0.000000e+00
2.316973e-01 3.904912e-01 0.000000e+00
2.353198e-01 5.824392e-01 0.000000e+00
2.375058e-01 7.725434e-01 0.000000e+00
2.380001e-01 9.613057e-01 0.000000e+00
2.372997e-01 1.149613e+00 0.000000e+00
2.351482e-01 1.338280e+00 0.000000e+00
2.304221e-01 1.527729e+00 0.000000e+00
2.255604e-01 1.719138e+00 0.000000e+00
2.250000e-01 1.914500e+00 0.000000e+00
4.500000e-01 0.000000e+00 0.000000e+00
4.552386e-01 1.967053e-01 0.000000e+00
4.616160e-01 3.923270e-01 0.000000e+00
4.670601e-01 5.873240e-01 0.000000e+00
4.710116e-01 7.814639e-01 0.000000e+00
4.729097e-01 9.742728e-01 0.000000e+00
4.730585e-01 1.165368e+00 0.000000e+00
4.712922e-01 1.355049e+00 0.000000e+00
4.666998e-01 1.542788e+00 0.000000e+00
4.606881e-01 1.728593e+00 0.000000e+00
4.500000e-01 1.914500e+00 0.000000e+00
6.750000e-01 0.000000e+00 0.000000e+00
6.824051e-01 1.982147e-01 0.000000e+00
6.892396e-01 3.961866e-01 0.000000e+00
6.945907e-01 5.945317e-01 0.000000e+00
6.986301e-01 7.934433e-01 0.000000e+00
7.012538e-01 9.928156e-01 0.000000e+00
7.022989e-01 1.192642e+00 0.000000e+00
7.013383e-01 1.392928e+00 0.000000e+00
6.986477e-01 1.593641e+00 0.000000e+00
6.936842e-01 1.794221e+00 0.000000e+00
6.854542e-01 1.993527e+00 0.000000e+00
9.000000e-01 0.000000e+00 0.000000e+00
9.081551e-01 1.989734e-01 0.000000e+00
9.145002e-01 3.980086e-01 0.000000e+00
9.190485e-01 5.974299e-01 0.000000e+00
9.223799e-01 7.972941e-01 0.000000e+00
9.244447e-01 9.976492e-01 0.000000e+00
9.250280e-01 1.198477e+00 0.000000e+00
9.239260e-01 1.399578e+00 0.000000e+00
9.212765e-01 1.600698e+00 0.000000e+00
9.170436e-01 1.801577e+00 0.000000e+00
9.116506e-01 2.001696e+00 0.000000e+00
1.125000e+00 0.000000e+00 0.000000e+00
1.133255e+00 1.994878e-01 0.000000e+00
1.138744e+00 3.992044e-01 0.000000e+00
1.142631e+00 5.993695e-01 0.000000e+00
1.145433e+00 7.999680e-01 0.000000e+00
1.147036e+00 1.000979e+00 0.000000e+00
1.147362e+00 1.202306e+00 0.000000e+00
1.146342e+00 1.403733e+00 0.000000e+00
1.144053e+00 1.605018e+00 0.000000e+00
1.140785e+00 1.805844e+00 0.000000e+00
1.137464e+00 2.005898e+00 0.000000e+00
1.350000e+00 0.000000e+00 0.000000e+00
1.357753e+00 1.999219e-01 0.000000e+00
1.362453e+00 4.001486e-01 0.000000e+00
1.365782e+00 6.007568e-01 0.000000e+00
1.368106e+00 8.017585e-01 0.000000e+00
1.369412e+00 1.003124e+00 0.000000e+00
1.369655e+00 1.204683e+00 0.000000e+00
1.368827e+00 1.406233e+00 0.000000e+00
1.367049e+00 1.607549e+00 0.000000e+00
1.364795e+00 1.808308e+00 0.000000e+00
1.362808e+00 2.008466e+00 0.000000e+00
1.575000e+00 0.000000e+00 0.000000e+00
1.581895e+00 2.002023e-01 0.000000e+00
1.585880e+00 4.007112e-01 0.000000e+00
1.588718e+00 6.015952e-01 0.000000e+00
1.590670e+00 8.028386e-01 0.000000e+00
1.591779e+00 1.004346e+00 0.000000e+00
1.592032e+00 1.205964e+00 0.000000e+00
1.591450e+00 1.407524e+00 0.000000e+00
1.590223e+00 1.608812e+00 0.000000e+00
1.588831e+00 1.809569e+00 0.000000e+00
1.587797e+00 2.009811e+00 0.000000e+00
1.800000e+00 0.000000e+00 0.000000e+00
1.805842e+00 2.003140e-01 0.000000e+00
1.809175e+00 4.009874e-01 0.000000e+00
1.811598e+00 6.020292e-01 0.000000e+00
1.813262e+00 8.033416e-01 0.000000e+00
1.814245e+00 1.004848e+00 0.000000e+00
1.814554e+00 1.206427e+00 0.000000e+00
1.814231e+00 1.407936e+00 0.000000e+00
1.813506e+00 1.609175e+00 0.000000e+00
1.812801e+00 1.809949e+00 0.000000e+00
1.812451e+00 2.010307e+00 0.000000e+00
2.025000e+00 0.000000e+00 0.000000e+00
2.029722e+00 2.003637e-01 0.000000e+00
2.032477e+00 4.010848e-01 0.000000e+00
2.034547e+00 6.021305e-01 0.000000e+00
2.035985e+00 8.033982e-01 0.000000e+00
2.036875e+00 1.004823e+00 0.000000e+00
2.037241e+00 1.206312e+00 0.000000e+00
2.037155e+00 1.407736e+00 0.000000e+00
2.036853e+00 1.608916e+00 0.000000e+00
2.036654e+00 1.809724e+00 0.000000e+00
2.036761e+00 2.010222e+00 0.000000e+00
2.250000e+00 0.000000e+00 0.000000e+00
2.253625e+00 2.003119e-01 0.000000e+00
2.255884e+00 4.009909e-01 0.000000e+00
2.257637e+00 6.019735e-01 0.000000e+00
2.258886e+00 8.031500e-01 0.000000e+00
2.259692e+00 1.004458e+00 0.000000e+00
2.260099e+00 1.205826e+00 0.000000e+00
2.260210e+00 1.407141e+00 0.000000e+00
2.260225e+00 1.608269e+00 0.000000e+00
2.260369e+00 1.809127e+00 0.000000e+00
2.260742e+00 2.009771e+00 0.000000e+00
2.475000e+00 0.000000e+00 0.000000e+00
2.477654e+00 2.002274e-01 0.000000e+00
2.479461e+00 4.008014e-01 0.000000e+00
2.480903e+00 6.016616e-01 0.000000e+00
2.481972e+00 8.027157e-01 0.000000e+00
2.482699e+00 1.003901e+00 0.000000e+00
2.483128e+00 1.205135e+00 0.000000e+00
2.483374e+00 1.406340e+00 0.000000e+00
2.483593e+00 1.607423e+00 0.000000e+00
2.483937e+00 1.808342e+00 0.000000e+00
2.484436e+00 2.009147e+00 0.000000e+00
2.700000e+00 0.000000e+00 0.000000e+00
2.701844e+00 2.001392e-01 0.000000e+00
2.703241e+00 4.005937e-01 0.000000e+00
2.704371e+00 6.013018e-01 0.000000e+00
2.705249e+00 8.022134e-01 0.000000e+00
2.705883e+00 1.003262e+00 0.000000e+00
2.706310e+00 1.204375e+00 0.000000e+00
2.706623e+00 1.405483e+00 0.000000e+00
2.706941e+00 1.606532e+00 0.000000e+00
2.707350e+00 1.807518e+00 0.000000e+00
2.707856e+00 2.008493e+00 0.000000e+00
2.925000e+00 0.000000e+00 0.000000e+00
2.926195e+00 2.000674e-01 0.000000e+00
2.927216e+00 4.003995e-01 0.000000e+00
2.928054e+00 6.009663e-01 0.000000e+00
2.928725e+00 8.017272e-01 0.000000e+00
2.929233e+00 1.002645e+00 0.000000e+00
2.929614e+00 1.203651e+00 0.000000e+00
2.929929e+00 1.404688e+00 0.000000e+00
2.930252e+00 1.605725e+00 0.000000e+00
2.930621e+00 1.806779e+00 0.000000e+00
2.931055e+00 2.007884e+00 0.000000e+00
3.150000e+00 0.000000e+00 0.000000e+00
3.150703e+00 2.000042e-01 0.000000e+00
3.151360e+00 4.002296e-01 0.000000e+00
3.151924e+00 6.006825e-01 0.000000e+00
3.152379e+00 8.013308e-01 0.000000e+00
3.152731e+00 1.002141e+00 0.000000e+00
3.153017e+00 1.203062e+00 0.000000e+00
3.153269e+00 1.404049e+00 0.000000e+00
3.153521e+00 1.605089e+00 0.000000e+00
3.153796e+00 1.806190e+00 0.000000e+00
3.154114e+00 2.007377e+00 0.000000e+00
3.375000e+00 0.000000e+00 0.000000e+00
3.375326e+00 1.999567e-01 0.000000e+00
3.375641e+00 4.001160e-01 0.000000e+00
3.375926e+00 6.004941e-01 0.000000e+00
3.376158e+00 8.010752e-01 0.000000e+00
3.376337e+00 1.001815e+00 0.000000e+00
3.376489e+00 1.202678e+00 0.000000e+00
3.376628e+00 1.403633e+00 0.000000e+00
3.376764e+00 1.604670e+00 0.000000e+00
3.376912e+00 1.805793e+00 0.000000e+00
3.377080e+00 2.007035e+00 0.000000e+00
3.600000e+00 0.000000e+00 0.000000e+00
3.600000e+00 1.999525e-01 0.000000e+00
3.600000e+00 4.000900e-01 0.000000e+00
3.600000e+00 6.004355e-01 0.000000e+00
3.600000e+00 8.009846e-01 0.000000e+00
3.600000e+00 1.001693e+00 0.000000e+00
3.600000e+00 1.202530e+00 0.000000e+00
3.600000e+00 1.403472e+00 0.000000e+00
3.600000e+00 1.604503e+00 0.000000e+00
3.600000e+00 1.805627e+00 0.000000e+00
3.600000e+00 2.006881e+00 0.000000e+00
</DataArray>
</Points>
<Cells>
<DataArray Name="connectivity" type="Int32" format="ascii">
0 11 12 1
1 12 13 2
2 13 14 3
3 14 15 4
4 15 16 5
5 16 17 6
6 17 18 7
7 18 19 8
8 19 20 9
9 20 21 10
11 22 23 12
12 23 24 13
13 24 25 14
14 25 26 15
15 26 27 16
16 27 28 17
17 28 29 18
18 29 30 19
19 30 31 20
20 31 32 21
22 33 34 23
23 34 35 24
24 35 36 25
25 36 37 26
26 37 38 27
27 38 39 28
28 39 40 29
29 40 41 30
30 41 42 31
31 42 43 32
33 44 45 34
34 45 46 35
35 46 47 36
36 47 48 37
37 48 49 38
38 49 50 39
39 50 51 40
40 51 52 41
41 52 53 42
42 53 54 43
44 55 56 45
45 56 57 46
46 57 58 47
47 58 59 48
48 59 60 49
49 60 61 50
50 61 62 51
51 62 63 52
52 63 64 53
53 64 65 54
55 66 67 56
56 67 68 57
57 68 69 58
58 69 70 59
59 70 71 60
60 71 72 61
61 72 73 62
62 73 74 63
63 74 75 64
64 75 76 65
66 77 78 67
67 78 79 68
68 79 80 69
69 80 81 70
70 81 82 71
71 82 83 72
72 83 84 73
73 84 85 74
74 85 86 75
75 86 87 76
77 88 89 78
78 89 90 79
79 90 91 80
80 91 92 81
81 92 93 82
82 93 94 83
83 94 95 84
84 95 96 85
85 96 97 86
86 97 98 87
88 99 100 89
89 100 101 90
90 101 102 91
91 102 103 92
92 103 104 93
93 104 105 94
94 105 106 95
95 106 107 96
96 107 108 97
97 108 109 98
99 110 111 100
100 111 112 101
101 112 113 102
102 113 114 103
103 114 115 104
104 115 116 105
105 116 117 106
106 117 118 107
107 118 119 108
108 119 120 109
110 121 122 111
111 122 123 112
112 123 124 113
113 124 125 114
114 125 126 115
115 126 127 116
116 127 128 117
117 128 129 118
118 129 130 119
119 130 131 120
121 132 133 122
122 133 134 123
123 134 135 124
124 135 136 125
125 136 137 126
126 137 138 127
127 138 139 128
128 139 140 129
129 140 141 130
130 141 142 131
132 143 144 133
133 144 145 134
134 145 146 135
135 146 147 136
136 147 148 137
137 148 149 138
138 149 150 139
139 150 151 140
140 151 152 141
141 152 153 142
143 154 155 144
144 155 156 145
145 156 157 146
146 157 158 147
147 158 159 148
148 159 160 149
149 160 161 150
150 161 162 151
151 162 163 152
152 163 164 153
154 165 166 155
155 166 167 156
156 167 168 157
157 168 169 158
158 169 170 159
159 170 171 160
160 171 172 161
161 172 173 162
162 173 174 163
163 174 175 164
165 176 177 166
166 177 178 167
167 178 179 168
168 179 180 169
169 180 181 170
170 181 182 171
171 182 183 172
172 183 184 173
173 184 185 174
174 185 186 175
</DataArray>
<DataArray Name="offsets" type="Int32" format="ascii">
4
8
12
16
20
24
28
32
36
40
44
48
52
56
60
64
68
72
76
80
84
88
92
96
100
104
108
112
116
120
124
128
132
136
140
144
148
152
156
160
164
168
172
176
180
184
188
192
196
200
204
208
212
216
220
224
228
232
236
240
244
248
252
256
260
264
268
272
276
280
284
288
292
296
300
304
308
312
316
320
324
328
332
336
340
344
348
352
356
360
364
368
372
376
380
384
388
392
396
400
404
408
412
416
420
424
428
432
436
440
444
448
452
456
460
464
468
472
476
480
484
488
492
496
500
504
508
512
516
520
524
528
532
536
540
544
548
552
556
560
564
568
572
576
580
584
588
592
596
600
604
608
612
616
620
624
628
632
636
640
</DataArray>
<DataArray Name="types" type="UInt8" format="ascii">
9
9
9
9
9
9
9
9
9
9
9
9
9
9
9
9
9
9
9
9
9
9
9
9
9
9
9
9
9
9
9
9
9
9
9
9
9
9
9
9
9
9
9
9
9
9
9
9
9
9
9
9
9
9
9
9
9
9
9
9
9
9
9
9
9
9
9
9
9
9
9
9
9
9
9
9
9
9
9
9
9
9
9
9
9
9
9
9
9
9
9
9
9
9
9
9
9
9
9
9
9
9
9
9
9
9
9
9
9
9
9
9
9
9
9
9
9
9
9
9
9
9
9
9
9
9
9
9
9
9
9
9
9
9
9
9
9
9
9
9
9
9
9
9
9
9
9
9
9
9
9
9
9
9
9
9
9
9
9
9
</DataArray>
</Cells>
<PointData>
<DataArray Name="disp" type="Float64" NumberOfComponents="3" format="ascii">
0.000000e+00 0.000000e+00 0.000000e+00
0.000000e+00 -3.524578e-03 0.000000e+00
0.000000e+00 -9.629505e-03 0.000000e+00
0.000000e+00 -1.903435e-02 0.000000e+00
0.000000e+00 -3.075102e-02 0.000000e+00
0.000000e+00 -4.351190e-02 0.000000e+00
0.000000e+00 -5.608546e-02 0.000000e+00
0.000000e+00 -6.754480e-02 0.000000e+00
0.000000e+00 -7.642812e-02 0.000000e+00
0.000000e+00 -8.137655e-02 0.000000e+00
0.000000e+00 -8.550000e-02 0.000000e+00
0.000000e+00 0.000000e+00 0.000000e+00
2.392723e-03 -3.738011e-03 0.000000e+00
6.697276e-03 -9.508752e-03 0.000000e+00
1.031980e-02 -1.756080e-02 0.000000e+00
1.250581e-02 -2.745658e-02 0.000000e+00
1.300014e-02 -3.869428e-02 0.000000e+00
1.229967e-02 -5.038672e-02 0.000000e+00
1.014816e-02 -6.172026e-02 0.000000e+00
5.422075e-03 -7.227130e-02 0.000000e+00
5.603578e-04 -8.086202e-02 0.000000e+00
0.000000e+00 -8.550000e-02 0.000000e+00
0.000000e+00 0.000000e+00 0.000000e+00
5.238626e-03 -3.294735e-03 0.000000e+00
1.161601e-02 -7.672958e-03 0.000000e+00
1.706015e-02 -1.267603e-02 0.000000e+00
2.101165e-02 -1.853615e-02 0.000000e+00
2.290970e-02 -2.572722e-02 0.000000e+00
2.305854e-02 -3.463182e-02 0.000000e+00
2.129222e-02 -4.495132e-02 0.000000e+00
1.669977e-02 -5.721168e-02 0.000000e+00
1.068805e-02 -7.140664e-02 0.000000e+00
0.000000e+00 -8.550000e-02 0.000000e+00
0.000000e+00 0.000000e+00 0.000000e+00
7.405086e-03 -1.785299e-03 0.000000e+00
1.423959e-02 -3.813377e-03 0.000000e+00
1.959073e-02 -5.468347e-03 0.000000e+00
2.363007e-02 -6.556723e-03 0.000000e+00
2.625375e-02 -7.184467e-03 0.000000e+00
2.729888e-02 -7.358012e-03 0.000000e+00
2.633829e-02 -7.072251e-03 0.000000e+00
2.364769e-02 -6.359424e-03 0.000000e+00
1.868416e-02 -5.779392e-03 0.000000e+00
1.045422e-02 -6.472980e-03 0.000000e+00
0.000000e+00 0.000000e+00 0.000000e+00
8.155100e-03 -1.026626e-03 0.000000e+00
1.450016e-02 -1.991426e-03 0.000000e+00
1.904850e-02 -2.570122e-03 0.000000e+00
2.237983e-02 -2.705896e-03 0.000000e+00
2.444476e-02 -2.350819e-03 0.000000e+00
2.502795e-02 -1.523004e-03 0.000000e+00
2.392597e-02 -4.219089e-04 0.000000e+00
2.127653e-02 6.984385e-04 0.000000e+00
1.704361e-02 1.577412e-03 0.000000e+00
1.165062e-02 1.695676e-03 0.000000e+00
0.000000e+00 0.000000e+00 0.000000e+00
8.254698e-03 -5.121926e-04 0.000000e+00
1.374399e-02 -7.955835e-04 0.000000e+00
1.763127e-02 -6.304725e-04 0.000000e+00
2.043276e-02 -3.196745e-05 0.000000e+00
2.203640e-02 9.788222e-04 0.000000e+00
2.236240e-02 2.306222e-03 0.000000e+00
2.134176e-02 3.732520e-03 0.000000e+00
1.905285e-02 5.018048e-03 0.000000e+00
1.578472e-02 5.843547e-03 0.000000e+00
1.246424e-02 5.898205e-03 0.000000e+00
0.000000e+00 0.000000e+00 0.000000e+00
7.753081e-03 -7.806090e-05 0.000000e+00
1.245292e-02 1.485899e-04 0.000000e+00
1.578238e-02 7.567702e-04 0.000000e+00
1.810609e-02 1.758450e-03 0.000000e+00
1.941177e-02 3.124376e-03 0.000000e+00
1.965553e-02 4.682603e-03 0.000000e+00
1.882734e-02 6.233102e-03 0.000000e+00
1.704930e-02 7.548753e-03 0.000000e+00
1.479510e-02 8.308006e-03 0.000000e+00
1.280818e-02 8.465772e-03 0.000000e+00
0.000000e+00 0.000000e+00 0.000000e+00
6.895151e-03 2.023182e-04 0.000000e+00
1.088020e-02 7.112366e-04 0.000000e+00
1.371793e-02 1.595252e-03 0.000000e+00
1.567012e-02 2.838645e-03 0.000000e+00
1.677850e-02 4.346343e-03 0.000000e+00
1.703236e-02 5.963739e-03 0.000000e+00
1.645037e-02 7.523600e-03 0.000000e+00
1.522320e-02 8.811680e-03 0.000000e+00
1.383103e-02 9.569216e-03 0.000000e+00
1.279713e-02 9.810835e-03 0.000000e+00
0.000000e+00 0.000000e+00 0.000000e+00
5.841936e-03 3.139554e-04 0.000000e+00
9.175325e-03 9.873982e-04 0.000000e+00
1.159842e-02 2.029175e-03 0.000000e+00
1.326249e-02 3.341586e-03 0.000000e+00
1.424451e-02 4.847719e-03 0.000000e+00
1.455413e-02 6.427463e-03 0.000000e+00
1.423089e-02 7.936241e-03 0.000000e+00
1.350619e-02 9.174697e-03 0.000000e+00
1.280091e-02 9.949122e-03 0.000000e+00
1.245117e-02 1.030699e-02 0.000000e+00
0.000000e+00 0.000000e+00 0.000000e+00
4.722359e-03 3.637245e-04 0.000000e+00
7.476741e-03 1.084752e-03 0.000000e+00
9.547054e-03 2.130507e-03 0.000000e+00
1.098467e-02 3.398208e-03 0.000000e+00
1.187442e-02 4.822998e-03 0.000000e+00
1.224137e-02 6.312402e-03 0.000000e+00
1.215519e-02 7.736029e-03 0.000000e+00
1.185340e-02 8.915730e-03 0.000000e+00
1.165413e-02 9.723606e-03 0.000000e+00
1.176086e-02 1.022189e-02 0.000000e+00
0.000000e+00 0.000000e+00 0.000000e+00
3.625206e-03 3.118853e-04 0.000000e+00
5.884091e-03 9.908926e-04 0.000000e+00
7.636637e-03 1.973528e-03 0.000000e+00
8.885722e-03 3.149984e-03 0.000000e+00
9.692136e-03 4.457803e-03 0.000000e+00
1.009915e-02 5.826243e-03 0.000000e+00
1.020946e-02 7.141331e-03 0.000000e+00
1.022494e-02 8.268938e-03 0.000000e+00
1.036936e-02 9.127005e-03 0.000000e+00
1.074236e-02 9.770954e-03 0.000000e+00
0.000000e+00 0.000000e+00 0.000000e+00
2.654199e-03 2.273733e-04 0.000000e+00
4.461279e-03 8.014206e-04 0.000000e+00
5.902932e-03 1.661553e-03 0.000000e+00
6.972389e-03 2.715671e-03 0.000000e+00
7.698697e-03 3.900721e-03 0.000000e+00
8.128078e-03 5.135444e-03 0.000000e+00
8.374366e-03 6.339644e-03 0.000000e+00
8.593478e-03 7.422630e-03 0.000000e+00
8.936833e-03 8.341661e-03 0.000000e+00
9.435926e-03 9.146925e-03 0.000000e+00
0.000000e+00 0.000000e+00 0.000000e+00
1.843450e-03 1.391966e-04 0.000000e+00
3.240983e-03 5.936942e-04 0.000000e+00
4.370717e-03 1.301842e-03 0.000000e+00
5.248720e-03 2.213447e-03 0.000000e+00
5.882544e-03 3.262427e-03 0.000000e+00
6.310118e-03 4.374934e-03 0.000000e+00
6.623397e-03 5.483235e-03 0.000000e+00
6.941374e-03 6.532011e-03 0.000000e+00
7.350086e-03 7.518134e-03 0.000000e+00
7.855892e-03 8.492678e-03 0.000000e+00
0.000000e+00 0.000000e+00 0.000000e+00
1.195348e-03 6.738975e-05 0.000000e+00
2.215776e-03 3.994854e-04 0.000000e+00
3.054084e-03 9.663279e-04 0.000000e+00
3.724455e-03 1.727241e-03 0.000000e+00
4.232769e-03 2.644650e-03 0.000000e+00
4.613665e-03 3.650622e-03 0.000000e+00
4.928841e-03 4.687521e-03 0.000000e+00
5.252217e-03 5.724568e-03 0.000000e+00
5.620803e-03 6.778935e-03 0.000000e+00
6.055202e-03 7.884333e-03 0.000000e+00
0.000000e+00 0.000000e+00 0.000000e+00
7.029154e-04 4.242086e-06 0.000000e+00
1.359468e-03 2.296350e-04 0.000000e+00
1.923844e-03 6.825153e-04 0.000000e+00
2.378932e-03 1.330819e-03 0.000000e+00
2.731325e-03 2.140792e-03 0.000000e+00
3.016921e-03 3.062118e-03 0.000000e+00
3.268940e-03 4.048678e-03 0.000000e+00
3.520683e-03 5.088612e-03 0.000000e+00
3.795774e-03 6.189581e-03 0.000000e+00
4.113875e-03 7.376612e-03 0.000000e+00
0.000000e+00 0.000000e+00 0.000000e+00
3.258566e-04 -4.334899e-05 0.000000e+00
6.409243e-04 1.159647e-04 0.000000e+00
9.255848e-04 4.941074e-04 0.000000e+00
1.157563e-03 1.075158e-03 0.000000e+00
1.336766e-03 1.815079e-03 0.000000e+00
1.489077e-03 2.677933e-03 0.000000e+00
1.628088e-03 3.632537e-03 0.000000e+00
1.764045e-03 4.670151e-03 0.000000e+00
1.911557e-03 5.793205e-03 0.000000e+00
2.080017e-03 7.034629e-03 0.000000e+00
0.000000e+00 0.000000e+00 0.000000e+00
0.000000e+00 -4.749936e-05 0.000000e+00
0.000000e+00 8.997441e-05 0.000000e+00
0.000000e+00 4.354851e-04 0.000000e+00
0.000000e+00 9.846115e-04 0.000000e+00
0.000000e+00 1.692798e-03 0.000000e+00
0.000000e+00 2.529826e-03 0.000000e+00
0.000000e+00 3.471738e-03 0.000000e+00
0.000000e+00 4.503011e-03 0.000000e+00
0.000000e+00 5.627182e-03 0.000000e+00
0.000000e+00 6.880607e-03 0.000000e+00
</DataArray>
<DataArray Name="shear" type="Float64" NumberOfComponents="1" format="ascii">
2.199507e-02
3.659399e-02
6.738579e-02
9.600433e-02
1.143024e-01
1.204225e-01
1.154476e-01
9.765266e-02
6.411462e-02
3.214372e-02
2.253441e-02
2.552354e-02
3.928709e-02
6.366964e-02
8.571049e-02
1.028988e-01
1.131988e-01
1.150348e-01
1.068429e-01
8.823580e-02
6.047558e-02
3.912502e-02
3.348383e-02
4.393275e-02
5.761009e-02
6.891642e-02
8.292975e-02
1.003856e-01
1.187076e-01
1.350070e-01
1.518640e-01
1.587651e-01
1.557207e-01
3.951493e-02
4.323277e-02
4.609911e-02
4.798970e-02
5.301545e-02
6.187392e-02
7.431991e-02
9.024482e-02
1.107563e-01
1.320689e-01
1.475568e-01
4.177166e-02
3.947505e-02
3.413188e-02
3.073308e-02
2.912884e-02
2.758656e-02
2.526247e-02
2.177098e-02
1.654441e-02
7.357458e-03
1.166339e-03
4.165739e-02
3.644738e-02
2.863016e-02
2.581248e-02
2.484094e-02
2.385772e-02
2.202621e-02
1.890588e-02
1.423840e-02
6.932646e-03
2.223743e-03
3.907326e-02
3.287585e-02
2.489203e-02
2.292128e-02
2.248060e-02
2.190571e-02
2.045513e-02
1.784670e-02
1.351220e-02
6.944627e-03
2.417045e-03
3.471952e-02
2.866980e-02
2.174178e-02
2.072372e-02
2.071224e-02
2.041855e-02
1.932341e-02
1.713249e-02
1.315932e-02
7.371851e-03
3.551043e-03
2.946353e-02
2.435394e-02
1.919174e-02
1.884730e-02
1.901059e-02
1.895868e-02
1.823074e-02
1.640132e-02
1.289411e-02
8.074116e-03
5.107026e-03
2.388334e-02
2.007994e-02
1.673468e-02
1.686960e-02
1.723108e-02
1.744854e-02
1.707153e-02
1.559158e-02
1.268420e-02
8.991855e-03
6.911846e-03
1.839752e-02
1.593949e-02
1.426191e-02
1.486620e-02
1.548939e-02
1.593153e-02
1.582138e-02
1.473159e-02
1.257530e-02
1.004010e-02
8.743164e-03
1.350868e-02
1.221927e-02
1.184465e-02
1.287227e-02
1.382300e-02
1.446428e-02
1.456336e-02
1.391375e-02
1.258559e-02
1.119042e-02
1.058154e-02
9.411189e-03
9.004950e-03
9.541986e-03
1.089070e-02
1.216856e-02
1.306907e-02
1.343291e-02
1.324284e-02
1.272195e-02
1.236330e-02
1.233484e-02
6.126237e-03
6.279459e-03
7.456720e-03
9.065042e-03
1.060454e-02
1.179616e-02
1.248622e-02
1.277365e-02
1.295437e-02
1.333991e-02
1.369058e-02
3.595107e-03
4.034696e-03
5.717545e-03
7.631890e-03
9.370758e-03
1.076801e-02
1.175528e-02
1.247393e-02
1.316113e-02
1.399431e-02
1.457566e-02
1.669444e-03
2.403816e-03
4.529773e-03
6.712227e-03
8.593789e-03
1.009326e-02
1.127874e-02
1.228010e-02
1.325360e-02
1.436185e-02
1.510246e-02
5.934396e-04
1.761148e-03
4.099435e-03
6.373091e-03
8.310169e-03
9.845756e-03
1.110706e-02
1.220604e-02
1.326760e-02
1.447072e-02
1.526900e-02
</DataArray>
<DataArray Name="stress" type="Float64" NumberOfComponents="9" format="ascii">
-1.268649e+05 7.349092e+03 0.000000e+00 7.349092e+03 -2.282788e+05 0.000000e+00 0.000000e+00 0.000000e+00 0.000000e+00
-1.149895e+05 5.116083e+03 0.000000e+00 5.116083e+03 -2.311810e+05 0.000000e+00 0.000000e+00 0.000000e+00 0.000000e+00
-1.206125e+05 3.466863e+03 0.000000e+00 3.466863e+03 -2.317887e+05 0.000000e+00 0.000000e+00 0.000000e+00 0.000000e+00
-1.327105e+05 5.525712e+03 0.000000e+00 5.525712e+03 -2.438339e+05 0.000000e+00 0.000000e+00 0.000000e+00 0.000000e+00
-1.428088e+05 4.425770e+03 0.000000e+00 4.425770e+03 -2.505304e+05 0.000000e+00 0.000000e+00 0.000000e+00 0.000000e+00
-1.485238e+05 5.983174e+03 0.000000e+00 5.983174e+03 -2.565932e+05 0.000000e+00 0.000000e+00 0.000000e+00 0.000000e+00
-1.514826e+05 8.058784e+03 0.000000e+00 8.058784e+03 -2.707768e+05 0.000000e+00 0.000000e+00 0.000000e+00 0.000000e+00
-1.503720e+05 1.045765e+04 0.000000e+00 1.045765e+04 -2.779608e+05 0.000000e+00 0.000000e+00 0.000000e+00 0.000000e+00
-1.524352e+05 8.236024e+03 0.000000e+00 8.236024e+03 -2.936119e+05 0.000000e+00 0.000000e+00 0.000000e+00 0.000000e+00
-1.612392e+05 -9.013113e+02 0.000000e+00 -9.013113e+02 -3.056946e+05 0.000000e+00 0.000000e+00 0.000000e+00 0.000000e+00
-1.642145e+05 -2.244219e+02 0.000000e+00 -2.244219e+02 -2.902589e+05 0.000000e+00 0.000000e+00 0.000000e+00 0.000000e+00
-1.325514e+05 2.209286e+04 0.000000e+00 2.209286e+04 -2.241729e+05 0.000000e+00 0.000000e+00 0.000000e+00 0.000000e+00
-1.164263e+05 1.830900e+04 0.000000e+00 1.830900e+04 -2.198025e+05 0.000000e+00 0.000000e+00 0.000000e+00 0.000000e+00
-1.184072e+05 1.604637e+04 0.000000e+00 1.604637e+04 -2.287672e+05 0.000000e+00 0.000000e+00 0.000000e+00 0.000000e+00
-1.283191e+05 1.351751e+04 0.000000e+00 1.351751e+04 -2.393733e+05 0.000000e+00 0.000000e+00 0.000000e+00 0.000000e+00
-1.400037e+05 1.176727e+04 0.000000e+00 1.176727e+04 -2.492696e+05 0.000000e+00 0.000000e+00 0.000000e+00 0.000000e+00
-1.494741e+05 1.276380e+04 0.000000e+00 1.276380e+04 -2.585217e+05 0.000000e+00 0.000000e+00 0.000000e+00 0.000000e+00
-1.529655e+05 1.484205e+04 0.000000e+00 1.484205e+04 -2.702861e+05 0.000000e+00 0.000000e+00 0.000000e+00 0.000000e+00
-1.522255e+05 1.433515e+04 0.000000e+00 1.433515e+04 -2.786828e+05 0.000000e+00 0.000000e+00 0.000000e+00 0.000000e+00
-1.552455e+05 6.795708e+03 0.000000e+00 6.795708e+03 -2.923684e+05 0.000000e+00 0.000000e+00 0.000000e+00 0.000000e+00
-1.562722e+05 -2.296644e+03 0.000000e+00 -2.296644e+03 -2.951596e+05 0.000000e+00 0.000000e+00 0.000000e+00 0.000000e+00
-1.801432e+05 -8.719988e+03 0.000000e+00 -8.719988e+03 -3.389224e+05 0.000000e+00 0.000000e+00 0.000000e+00 0.000000e+00
-1.338335e+05 3.557342e+04 0.000000e+00 3.557342e+04 -1.952337e+05 0.000000e+00 0.000000e+00 0.000000e+00 0.000000e+00
-1.154175e+05 2.980934e+04 0.000000e+00 2.980934e+04 -1.825423e+05 0.000000e+00 0.000000e+00 0.000000e+00 0.000000e+00
-1.149905e+05 2.825766e+04 0.000000e+00 2.825766e+04 -1.901285e+05 0.000000e+00 0.000000e+00 0.000000e+00 0.000000e+00
-1.249252e+05 2.922798e+04 0.000000e+00 2.922798e+04 -2.019108e+05 0.000000e+00 0.000000e+00 0.000000e+00 0.000000e+00
-1.400909e+05 3.092514e+04 0.000000e+00 3.092514e+04 -2.182163e+05 0.000000e+00 0.000000e+00 0.000000e+00 0.000000e+00
-1.580620e+05 3.477896e+04 0.000000e+00 3.477896e+04 -2.364118e+05 0.000000e+00 0.000000e+00 0.000000e+00 0.000000e+00
-1.705511e+05 3.690072e+04 0.000000e+00 3.690072e+04 -2.556440e+05 0.000000e+00 0.000000e+00 0.000000e+00 0.000000e+00
-1.774231e+05 3.959894e+04 0.000000e+00 3.959894e+04 -2.746043e+05 0.000000e+00 0.000000e+00 0.000000e+00 0.000000e+00
-1.876211e+05 3.347748e+04 0.000000e+00 3.347748e+04 -2.893631e+05 0.000000e+00 0.000000e+00 0.000000e+00 0.000000e+00
-1.930815e+05 1.916854e+04 0.000000e+00 1.916854e+04 -2.977233e+05 0.000000e+00 0.000000e+00 0.000000e+00 0.000000e+00
-2.135755e+05 -4.109200e+03 0.000000e+00 -4.109200e+03 -3.583591e+05 0.000000e+00 0.000000e+00 0.000000e+00 0.000000e+00
-1.217124e+05 3.332541e+04 0.000000e+00 3.332541e+04 -1.447213e+05 0.000000e+00 0.000000e+00 0.000000e+00 0.000000e+00
-1.076236e+05 2.997459e+04 0.000000e+00 2.997459e+04 -1.343014e+05 0.000000e+00 0.000000e+00 0.000000e+00 0.000000e+00
-1.102830e+05 3.135522e+04 0.000000e+00 3.135522e+04 -1.350014e+05 0.000000e+00 0.000000e+00 0.000000e+00 0.000000e+00
-1.199252e+05 3.509027e+04 0.000000e+00 3.509027e+04 -1.356293e+05 0.000000e+00 0.000000e+00 0.000000e+00 0.000000e+00
-1.285947e+05 3.678350e+04 0.000000e+00 3.678350e+04 -1.335640e+05 0.000000e+00 0.000000e+00 0.000000e+00 0.000000e+00
-1.343088e+05 3.592788e+04 0.000000e+00 3.592788e+04 -1.290296e+05 0.000000e+00 0.000000e+00 0.000000e+00 0.000000e+00
-1.332092e+05 3.195029e+04 0.000000e+00 3.195029e+04 -1.207934e+05 0.000000e+00 0.000000e+00 0.000000e+00 0.000000e+00
-1.218133e+05 2.625071e+04 0.000000e+00 2.625071e+04 -1.069727e+05 0.000000e+00 0.000000e+00 0.000000e+00 0.000000e+00
-1.087771e+05 1.879419e+04 0.000000e+00 1.879419e+04 -9.212026e+04 0.000000e+00 0.000000e+00 0.000000e+00 0.000000e+00
-8.540369e+04 8.940859e+03 0.000000e+00 8.940859e+03 -7.943013e+04 0.000000e+00 0.000000e+00 0.000000e+00 0.000000e+00
-4.569930e+04 3.301752e+03 0.000000e+00 3.301752e+03 -5.738925e+04 0.000000e+00 0.000000e+00 0.000000e+00 0.000000e+00
-1.146238e+05 3.171356e+04 0.000000e+00 3.171356e+04 -1.172693e+05 0.000000e+00 0.000000e+00 0.000000e+00 0.000000e+00
-1.088186e+05 3.044607e+04 0.000000e+00 3.044607e+04 -1.138777e+05 0.000000e+00 0.000000e+00 0.000000e+00 0.000000e+00
-1.164668e+05 3.277750e+04 0.000000e+00 3.277750e+04 -1.166821e+05 0.000000e+00 0.000000e+00 0.000000e+00 0.000000e+00
-1.282209e+05 3.464102e+04 0.000000e+00 3.464102e+04 -1.154664e+05 0.000000e+00 0.000000e+00 0.000000e+00 0.000000e+00
-1.379945e+05 3.427103e+04 0.000000e+00 3.427103e+04 -1.097929e+05 0.000000e+00 0.000000e+00 0.000000e+00 0.000000e+00
-1.432492e+05 3.058271e+04 0.000000e+00 3.058271e+04 -1.013967e+05 0.000000e+00 0.000000e+00 0.000000e+00 0.000000e+00
-1.432150e+05 2.450946e+04 0.000000e+00 2.450946e+04 -9.242027e+04 0.000000e+00 0.000000e+00 0.000000e+00 0.000000e+00
-1.367802e+05 1.768877e+04 0.000000e+00 1.768877e+04 -8.287496e+04 0.000000e+00 0.000000e+00 0.000000e+00 0.000000e+00
-1.251246e+05 9.884439e+03 0.000000e+00 9.884439e+03 -7.425645e+04 0.000000e+00 0.000000e+00 0.000000e+00 0.000000e+00
-9.595955e+04 1.182949e+03 0.000000e+00 1.182949e+03 -6.807743e+04 0.000000e+00 0.000000e+00 0.000000e+00 0.000000e+00
-5.146900e+04 -1.635131e+03 0.000000e+00 -1.635131e+03 -5.336640e+04 0.000000e+00 0.000000e+00 0.000000e+00 0.000000e+00
-1.081279e+05 3.095412e+04 0.000000e+00 3.095412e+04 -1.025750e+05 0.000000e+00 0.000000e+00 0.000000e+00 0.000000e+00
-1.088999e+05 3.111485e+04 0.000000e+00 3.111485e+04 -1.024969e+05 0.000000e+00 0.000000e+00 0.000000e+00 0.000000e+00
-1.175234e+05 3.137889e+04 0.000000e+00 3.137889e+04 -1.024485e+05 0.000000e+00 0.000000e+00 0.000000e+00 0.000000e+00
-1.275913e+05 2.959639e+04 0.000000e+00 2.959639e+04 -9.758152e+04 0.000000e+00 0.000000e+00 0.000000e+00 0.000000e+00
-1.346344e+05 2.653055e+04 0.000000e+00 2.653055e+04 -9.170645e+04 0.000000e+00 0.000000e+00 0.000000e+00 0.000000e+00
-1.374508e+05 2.172276e+04 0.000000e+00 2.172276e+04 -8.528107e+04 0.000000e+00 0.000000e+00 0.000000e+00 0.000000e+00
-1.362814e+05 1.568164e+04 0.000000e+00 1.568164e+04 -7.867578e+04 0.000000e+00 0.000000e+00 0.000000e+00 0.000000e+00
-1.294199e+05 8.797312e+03 0.000000e+00 8.797312e+03 -7.189549e+04 0.000000e+00 0.000000e+00 0.000000e+00 0.000000e+00
-1.160479e+05 1.426991e+03 0.000000e+00 1.426991e+03 -6.603029e+04 0.000000e+00 0.000000e+00 0.000000e+00 0.000000e+00
-9.018224e+04 -3.916817e+03 0.000000e+00 -3.916817e+03 -6.204491e+04 0.000000e+00 0.000000e+00 0.000000e+00 0.000000e+00
-5.718302e+04 -4.645187e+03 0.000000e+00 -4.645187e+03 -5.445930e+04 0.000000e+00 0.000000e+00 0.000000e+00 0.000000e+00
-1.009863e+05 3.000595e+04 0.000000e+00 3.000595e+04 -9.091697e+04 0.000000e+00 0.000000e+00 0.000000e+00 0.000000e+00
-1.070992e+05 3.001729e+04 0.000000e+00 3.001729e+04 -9.279898e+04 0.000000e+00 0.000000e+00 0.000000e+00 0.000000e+00
-1.157970e+05 2.720134e+04 0.000000e+00 2.720134e+04 -8.987352e+04 0.000000e+00 0.000000e+00 0.000000e+00 0.000000e+00
-1.249986e+05 2.427884e+04 0.000000e+00 2.427884e+04 -8.519072e+04 0.000000e+00 0.000000e+00 0.000000e+00 0.000000e+00
-1.302315e+05 2.032498e+04 0.000000e+00 2.032498e+04 -8.050364e+04 0.000000e+00 0.000000e+00 0.000000e+00 0.000000e+00
-1.316554e+05 1.520615e+04 0.000000e+00 1.520615e+04 -7.535759e+04 0.000000e+00 0.000000e+00 0.000000e+00 0.000000e+00
-1.293827e+05 9.229057e+03 0.000000e+00 9.229057e+03 -7.024926e+04 0.000000e+00 0.000000e+00 0.000000e+00 0.000000e+00
-1.217729e+05 2.632498e+03 0.000000e+00 2.632498e+03 -6.558093e+04 0.000000e+00 0.000000e+00 0.000000e+00 0.000000e+00
-1.091884e+05 -3.210147e+03 0.000000e+00 -3.210147e+03 -6.237124e+04 0.000000e+00 0.000000e+00 0.000000e+00 0.000000e+00
-8.872176e+04 -5.252691e+03 0.000000e+00 -5.252691e+03 -6.033866e+04 0.000000e+00 0.000000e+00 0.000000e+00 0.000000e+00
-6.610166e+04 -4.441166e+03 0.000000e+00 -4.441166e+03 -5.611490e+04 0.000000e+00 0.000000e+00 0.000000e+00 0.000000e+00
-9.187917e+04 2.693702e+04 0.000000e+00 2.693702e+04 -8.077927e+04 0.000000e+00 0.000000e+00 0.000000e+00 0.000000e+00
-1.028280e+05 2.713389e+04 0.000000e+00 2.713389e+04 -8.429683e+04 0.000000e+00 0.000000e+00 0.000000e+00 0.000000e+00
-1.131635e+05 2.314391e+04 0.000000e+00 2.314391e+04 -8.058038e+04 0.000000e+00 0.000000e+00 0.000000e+00 0.000000e+00
-1.212139e+05 1.969491e+04 0.000000e+00 1.969491e+04 -7.678234e+04 0.000000e+00 0.000000e+00 0.000000e+00 0.000000e+00
-1.251714e+05 1.529908e+04 0.000000e+00 1.529908e+04 -7.286000e+04 0.000000e+00 0.000000e+00 0.000000e+00 0.000000e+00
-1.258557e+05 1.017436e+04 0.000000e+00 1.017436e+04 -6.878438e+04 0.000000e+00 0.000000e+00 0.000000e+00 0.000000e+00
-1.226899e+05 4.481744e+03 0.000000e+00 4.481744e+03 -6.501341e+04 0.000000e+00 0.000000e+00 0.000000e+00 0.000000e+00
-1.152623e+05 -1.094434e+03 0.000000e+00 -1.094434e+03 -6.212457e+04 0.000000e+00 0.000000e+00 0.000000e+00 0.000000e+00
-1.048617e+05 -5.099508e+03 0.000000e+00 -5.099508e+03 -6.049482e+04 0.000000e+00 0.000000e+00 0.000000e+00 0.000000e+00
-9.029820e+04 -5.364149e+03 0.000000e+00 -5.364149e+03 -5.964454e+04 0.000000e+00 0.000000e+00 0.000000e+00 0.000000e+00
-7.530677e+04 -4.077276e+03 0.000000e+00 -4.077276e+03 -5.682207e+04 0.000000e+00 0.000000e+00 0.000000e+00 0.000000e+00
-8.384884e+04 2.340993e+04 0.000000e+00 2.340993e+04 -7.361885e+04 0.000000e+00 0.000000e+00 0.000000e+00 0.000000e+00
-9.847448e+04 2.373136e+04 0.000000e+00 2.373136e+04 -7.767075e+04 0.000000e+00 0.000000e+00 0.000000e+00 0.000000e+00
-1.098079e+05 1.975712e+04 0.000000e+00 1.975712e+04 -7.398170e+04 0.000000e+00 0.000000e+00 0.000000e+00 0.000000e+00
-1.166763e+05 1.586714e+04 0.000000e+00 1.586714e+04 -7.075073e+04 0.000000e+00 0.000000e+00 0.000000e+00 0.000000e+00
-1.200715e+05 1.133253e+04 0.000000e+00 1.133253e+04 -6.758773e+04 0.000000e+00 0.000000e+00 0.000000e+00 0.000000e+00
-1.201772e+05 6.354037e+03 0.000000e+00 6.354037e+03 -6.450552e+04 0.000000e+00 0.000000e+00 0.000000e+00 0.000000e+00
-1.167982e+05 1.283609e+03 0.000000e+00 1.283609e+03 -6.189457e+04 0.000000e+00 0.000000e+00 0.000000e+00 0.000000e+00
-1.103643e+05 -3.105654e+03 0.000000e+00 -3.105654e+03 -6.018780e+04 0.000000e+00 0.000000e+00 0.000000e+00 0.000000e+00
-1.026014e+05 -5.635814e+03 0.000000e+00 -5.635814e+03 -5.944638e+04 0.000000e+00 0.000000e+00 0.000000e+00 0.000000e+00
-9.295157e+04 -4.956621e+03 0.000000e+00 -4.956621e+03 -5.931381e+04 0.000000e+00 0.000000e+00 0.000000e+00 0.000000e+00
-8.360564e+04 -3.364582e+03 0.000000e+00 -3.364582e+03 -5.749951e+04 0.000000e+00 0.000000e+00 0.000000e+00 0.000000e+00
-7.773523e+04 2.068580e+04 0.000000e+00 2.068580e+04 -6.840373e+04 0.000000e+00 0.000000e+00 0.000000e+00 0.000000e+00
-9.438841e+04 2.072269e+04 0.000000e+00 2.072269e+04 -7.230912e+04 0.000000e+00 0.000000e+00 0.000000e+00 0.000000e+00
-1.060290e+05 1.684642e+04 0.000000e+00 1.684642e+04 -6.924530e+04 0.000000e+00 0.000000e+00 0.000000e+00 0.000000e+00
-1.122070e+05 1.272327e+04 0.000000e+00 1.272327e+04 -6.648890e+04 0.000000e+00 0.000000e+00 0.000000e+00 0.000000e+00
-1.151042e+05 8.261150e+03 0.000000e+00 8.261150e+03 -6.391678e+04 0.000000e+00 0.000000e+00 0.000000e+00 0.000000e+00
-1.149129e+05 3.607467e+03 0.000000e+00 3.607467e+03 -6.168912e+04 0.000000e+00 0.000000e+00 0.000000e+00 0.000000e+00
-1.118847e+05 -7.207967e+02 0.000000e+00 -7.207967e+02 -6.002486e+04 0.000000e+00 0.000000e+00 0.000000e+00 0.000000e+00
-1.069337e+05 -4.016137e+03 0.000000e+00 -4.016137e+03 -5.911169e+04 0.000000e+00 0.000000e+00 0.000000e+00 0.000000e+00
-1.016718e+05 -5.485210e+03 0.000000e+00 -5.485210e+03 -5.894138e+04 0.000000e+00 0.000000e+00 0.000000e+00 0.000000e+00
-9.598389e+04 -4.290347e+03 0.000000e+00 -4.290347e+03 -5.919307e+04 0.000000e+00 0.000000e+00 0.000000e+00 0.000000e+00
-9.066672e+04 -2.606900e+03 0.000000e+00 -2.606900e+03 -5.825424e+04 0.000000e+00 0.000000e+00 0.000000e+00 0.000000e+00
-7.422806e+04 1.871924e+04 0.000000e+00 1.871924e+04 -6.502040e+04 0.000000e+00 0.000000e+00 0.000000e+00 0.000000e+00
-9.081590e+04 1.834436e+04 0.000000e+00 1.834436e+04 -6.846327e+04 0.000000e+00 0.000000e+00 0.000000e+00 0.000000e+00
-1.018037e+05 1.428542e+04 0.000000e+00 1.428542e+04 -6.563020e+04 0.000000e+00 0.000000e+00 0.000000e+00 0.000000e+00
-1.075633e+05 1.017180e+04 0.000000e+00 1.017180e+04 -6.341971e+04 0.000000e+00 0.000000e+00 0.000000e+00 0.000000e+00
-1.102796e+05 5.923040e+03 0.000000e+00 5.923040e+03 -6.141155e+04 0.000000e+00 0.000000e+00 0.000000e+00 0.000000e+00
-1.102180e+05 1.745182e+03 0.000000e+00 1.745182e+03 -5.986030e+04 0.000000e+00 0.000000e+00 0.000000e+00 0.000000e+00
-1.080184e+05 -1.856826e+03 0.000000e+00 -1.856826e+03 -5.885876e+04 0.000000e+00 0.000000e+00 0.000000e+00 0.000000e+00
-1.046679e+05 -4.243132e+03 0.000000e+00 -4.243132e+03 -5.849730e+04 0.000000e+00 0.000000e+00 0.000000e+00 0.000000e+00
-1.015976e+05 -4.931470e+03 0.000000e+00 -4.931470e+03 -5.869084e+04 0.000000e+00 0.000000e+00 0.000000e+00 0.000000e+00
-9.901920e+04 -3.539895e+03 0.000000e+00 -3.539895e+03 -5.916526e+04 0.000000e+00 0.000000e+00 0.000000e+00 0.000000e+00
-9.668741e+04 -1.917305e+03 0.000000e+00 -1.917305e+03 -5.891215e+04 0.000000e+00 0.000000e+00 0.000000e+00 0.000000e+00
-7.183720e+04 1.678718e+04 0.000000e+00 1.678718e+04 -6.273872e+04 0.000000e+00 0.000000e+00 0.000000e+00 0.000000e+00
-8.693357e+04 1.610165e+04 0.000000e+00 1.610165e+04 -6.561148e+04 0.000000e+00 0.000000e+00 0.000000e+00 0.000000e+00
-9.750283e+04 1.206347e+04 0.000000e+00 1.206347e+04 -6.313388e+04 0.000000e+00 0.000000e+00 0.000000e+00 0.000000e+00
-1.031006e+05 8.159326e+03 0.000000e+00 8.159326e+03 -6.140041e+04 0.000000e+00 0.000000e+00 0.000000e+00 0.000000e+00
-1.057557e+05 4.206183e+03 0.000000e+00 4.206183e+03 -5.984729e+04 0.000000e+00 0.000000e+00 0.000000e+00 0.000000e+00
-1.061472e+05 5.379885e+02 0.000000e+00 5.379885e+02 -5.873716e+04 0.000000e+00 0.000000e+00 0.000000e+00 0.000000e+00
-1.050457e+05 -2.364308e+03 0.000000e+00 -2.364308e+03 -5.818720e+04 0.000000e+00 0.000000e+00 0.000000e+00 0.000000e+00
-1.033051e+05 -4.021995e+03 0.000000e+00 -4.021995e+03 -5.822694e+04 0.000000e+00 0.000000e+00 0.000000e+00 0.000000e+00
-1.021111e+05 -4.185416e+03 0.000000e+00 -4.185416e+03 -5.864547e+04 0.000000e+00 0.000000e+00 0.000000e+00 0.000000e+00
-1.016762e+05 -2.763382e+03 0.000000e+00 -2.763382e+03 -5.928068e+04 0.000000e+00 0.000000e+00 0.000000e+00 0.000000e+00
-1.013447e+05 -1.278403e+03 0.000000e+00 -1.278403e+03 -5.949739e+04 0.000000e+00 0.000000e+00 0.000000e+00 0.000000e+00
-6.959618e+04 1.461268e+04 0.000000e+00 1.461268e+04 -6.189883e+04 0.000000e+00 0.000000e+00 0.000000e+00 0.000000e+00
-8.309928e+04 1.377788e+04 0.000000e+00 1.377788e+04 -6.387458e+04 0.000000e+00 0.000000e+00 0.000000e+00 0.000000e+00
-9.349196e+04 1.011868e+04 0.000000e+00 1.011868e+04 -6.148343e+04 0.000000e+00 0.000000e+00 0.000000e+00 0.000000e+00
-9.899611e+04 6.518824e+03 0.000000e+00 6.518824e+03 -5.994257e+04 0.000000e+00 0.000000e+00 0.000000e+00 0.000000e+00
-1.017146e+05 2.964089e+03 0.000000e+00 2.964089e+03 -5.876898e+04 0.000000e+00 0.000000e+00 0.000000e+00 0.000000e+00
-1.027416e+05 -1.367946e+02 0.000000e+00 -1.367946e+02 -5.809161e+04 0.000000e+00 0.000000e+00 0.000000e+00 0.000000e+00
-1.027705e+05 -2.414364e+03 0.000000e+00 -2.414364e+03 -5.793252e+04 0.000000e+00 0.000000e+00 0.000000e+00 0.000000e+00
-1.025668e+05 -3.495598e+03 0.000000e+00 -3.495598e+03 -5.824300e+04 0.000000e+00 0.000000e+00 0.000000e+00 0.000000e+00
-1.028970e+05 -3.344783e+03 0.000000e+00 -3.344783e+03 -5.881538e+04 0.000000e+00 0.000000e+00 0.000000e+00 0.000000e+00
-1.038305e+05 -2.066542e+03 0.000000e+00 -2.066542e+03 -5.949121e+04 0.000000e+00 0.000000e+00 0.000000e+00 0.000000e+00
-1.047640e+05 -8.501833e+02 0.000000e+00 -8.501833e+02 -5.998858e+04 0.000000e+00 0.000000e+00 0.000000e+00 0.000000e+00
-6.800354e+04 1.198467e+04 0.000000e+00 1.198467e+04 -6.206151e+04 0.000000e+00 0.000000e+00 0.000000e+00 0.000000e+00
-7.974016e+04 1.110390e+04 0.000000e+00 1.110390e+04 -6.298481e+04 0.000000e+00 0.000000e+00 0.000000e+00 0.000000e+00
-8.985165e+04 8.100412e+03 0.000000e+00 8.100412e+03 -6.057971e+04 0.000000e+00 0.000000e+00 0.000000e+00 0.000000e+00
-9.533867e+04 5.037197e+03 0.000000e+00 5.037197e+03 -5.893252e+04 0.000000e+00 0.000000e+00 0.000000e+00 0.000000e+00
-9.836745e+04 2.100066e+03 0.000000e+00 2.100066e+03 -5.789375e+04 0.000000e+00 0.000000e+00 0.000000e+00 0.000000e+00
-1.000558e+05 -3.701100e+02 0.000000e+00 -3.701100e+02 -5.753461e+04 0.000000e+00 0.000000e+00 0.000000e+00 0.000000e+00
-1.011720e+05 -2.052143e+03 0.000000e+00 -2.052143e+03 -5.770423e+04 0.000000e+00 0.000000e+00 0.000000e+00 0.000000e+00
-1.022124e+05 -2.744844e+03 0.000000e+00 -2.744844e+03 -5.825648e+04 0.000000e+00 0.000000e+00 0.000000e+00 0.000000e+00
-1.036256e+05 -2.514232e+03 0.000000e+00 -2.514232e+03 -5.897427e+04 0.000000e+00 0.000000e+00 0.000000e+00 0.000000e+00
-1.055702e+05 -1.496168e+03 0.000000e+00 -1.496168e+03 -5.960937e+04 0.000000e+00 0.000000e+00 0.000000e+00 0.000000e+00
-1.074618e+05 -6.050433e+02 0.000000e+00 -6.050433e+02 -6.024632e+04 0.000000e+00 0.000000e+00 0.000000e+00 0.000000e+00
-6.732050e+04 8.804350e+03 0.000000e+00 8.804350e+03 -6.312654e+04 0.000000e+00 0.000000e+00 0.000000e+00 0.000000e+00
-7.734996e+04 8.020134e+03 0.000000e+00 8.020134e+03 -6.296900e+04 0.000000e+00 0.000000e+00 0.000000e+00 0.000000e+00
-8.689145e+04 5.813938e+03 0.000000e+00 5.813938e+03 -6.036835e+04 0.000000e+00 0.000000e+00 0.000000e+00 0.000000e+00
-9.236843e+04 3.476058e+03 0.000000e+00 3.476058e+03 -5.848488e+04 0.000000e+00 0.000000e+00 0.000000e+00 0.000000e+00
-9.579827e+04 1.356866e+03 0.000000e+00 1.356866e+03 -5.742295e+04 0.000000e+00 0.000000e+00 0.000000e+00 0.000000e+00
-9.811753e+04 -3.184989e+02 0.000000e+00 -3.184989e+02 -5.717341e+04 0.000000e+00 0.000000e+00 0.000000e+00 0.000000e+00
-1.000654e+05 -1.420489e+03 0.000000e+00 -1.420489e+03 -5.753473e+04 0.000000e+00 0.000000e+00 0.000000e+00 0.000000e+00
-1.020083e+05 -1.862769e+03 0.000000e+00 -1.862769e+03 -5.824014e+04 0.000000e+00 0.000000e+00 0.000000e+00 0.000000e+00
-1.042221e+05 -1.685584e+03 0.000000e+00 -1.685584e+03 -5.903664e+04 0.000000e+00 0.000000e+00 0.000000e+00 0.000000e+00
-1.069001e+05 -9.751290e+02 0.000000e+00 -9.751290e+02 -5.961305e+04 0.000000e+00 0.000000e+00 0.000000e+00 0.000000e+00
-1.094108e+05 -3.603305e+02 0.000000e+00 -3.603305e+02 -6.040006e+04 0.000000e+00 0.000000e+00 0.000000e+00 0.000000e+00
-6.684673e+04 4.673171e+03 0.000000e+00 4.673171e+03 -6.435048e+04 0.000000e+00 0.000000e+00 0.000000e+00 0.000000e+00
-7.574640e+04 4.214739e+03 0.000000e+00 4.214739e+03 -6.350670e+04 0.000000e+00 0.000000e+00 0.000000e+00 0.000000e+00
-8.487159e+04 3.023427e+03 0.000000e+00 3.023427e+03 -6.046460e+04 0.000000e+00 0.000000e+00 0.000000e+00 0.000000e+00
-9.040050e+04 1.753610e+03 0.000000e+00 1.753610e+03 -5.844114e+04 0.000000e+00 0.000000e+00 0.000000e+00 0.000000e+00
-9.417345e+04 6.579222e+02 0.000000e+00 6.579222e+02 -5.737161e+04 0.000000e+00 0.000000e+00 0.000000e+00 0.000000e+00
-9.698466e+04 -1.586737e+02 0.000000e+00 -1.586737e+02 -5.713850e+04 0.000000e+00 0.000000e+00 0.000000e+00 0.000000e+00
-9.942941e+04 -6.958611e+02 0.000000e+00 -6.958611e+02 -5.753407e+04 0.000000e+00 0.000000e+00 0.000000e+00 0.000000e+00
-1.019038e+05 -9.366799e+02 0.000000e+00 -9.366799e+02 -5.827579e+04 0.000000e+00 0.000000e+00 0.000000e+00 0.000000e+00
-1.046479e+05 -8.601057e+02 0.000000e+00 -8.601057e+02 -5.907085e+04 0.000000e+00 0.000000e+00 0.000000e+00 0.000000e+00
-1.076844e+05 -4.739838e+02 0.000000e+00 -4.739838e+02 -5.966216e+04 0.000000e+00 0.000000e+00 0.000000e+00 0.000000e+00
-1.104828e+05 -1.444384e+02 0.000000e+00 -1.444384e+02 -6.053642e+04 0.000000e+00 0.000000e+00 0.000000e+00 0.000000e+00
-6.659809e+04 1.383091e+03 0.000000e+00 1.383091e+03 -6.460256e+04 0.000000e+00 0.000000e+00 0.000000e+00 0.000000e+00
-7.517371e+04 1.249346e+03 0.000000e+00 1.249346e+03 -6.363272e+04 0.000000e+00 0.000000e+00 0.000000e+00 0.000000e+00
-8.417777e+04 7.929090e+02 0.000000e+00 7.929090e+02 -6.053553e+04 0.000000e+00 0.000000e+00 0.000000e+00 0.000000e+00
-8.975776e+04 3.067755e+02 0.000000e+00 3.067755e+02 -5.852518e+04 0.000000e+00 0.000000e+00 0.000000e+00 0.000000e+00
-9.367469e+04 -9.208787e+01 0.000000e+00 -9.208787e+01 -5.747241e+04 0.000000e+00 0.000000e+00 0.000000e+00 0.000000e+00
-9.666127e+04 -3.788266e+02 0.000000e+00 -3.788266e+02 -5.721535e+04 0.000000e+00 0.000000e+00 0.000000e+00 0.000000e+00
-9.923348e+04 -5.922551e+02 0.000000e+00 -5.922551e+02 -5.756665e+04 0.000000e+00 0.000000e+00 0.000000e+00 0.000000e+00
-1.018799e+05 -7.078825e+02 0.000000e+00 -7.078825e+02 -5.829606e+04 0.000000e+00 0.000000e+00 0.000000e+00 0.000000e+00
-1.048141e+05 -6.691017e+02 0.000000e+00 -6.691017e+02 -5.911149e+04 0.000000e+00 0.000000e+00 0.000000e+00 0.000000e+00
-1.079885e+05 -4.558245e+02 0.000000e+00 -4.558245e+02 -5.971405e+04 0.000000e+00 0.000000e+00 0.000000e+00 0.000000e+00
-1.108659e+05 -2.872826e+02 0.000000e+00 -2.872826e+02 -6.059631e+04 0.000000e+00 0.000000e+00 0.000000e+00 0.000000e+00
</DataArray>
<DataArray Name="vol_eps" type="Float64" NumberOfComponents="1" format="ascii">
-1.459639e-02
-1.230037e-02
-9.266688e-03
-7.645464e-03
-7.259719e-03
-7.895140e-03
-8.758523e-03
-1.110688e-02
-1.595845e-02
-2.079934e-02
-2.087324e-02
-1.443388e-02
-1.137441e-02
-8.956730e-03
-7.752769e-03
-7.489674e-03
-8.039135e-03
-8.447402e-03
-9.891010e-03
-1.307950e-02
-1.613946e-02
-2.308224e-02
-1.203612e-02
-8.498658e-03
-7.259512e-03
-7.285934e-03
-7.939268e-03
-8.928593e-03
-9.591480e-03
-1.004736e-02
-1.034838e-02
-1.081005e-02
-1.529060e-02
-7.496803e-03
-5.250227e-03
-5.063193e-03
-5.462411e-03
-5.491077e-03
-4.513939e-03
-2.551427e-03
5.067774e-04
4.629622e-03
9.288749e-03
1.555478e-02
-4.758738e-03
-4.281297e-03
-5.490663e-03
-6.508818e-03
-6.923728e-03
-6.814668e-03
-6.357308e-03
-5.537777e-03
-4.609992e-03
-2.644949e-03
1.458446e-03
-2.957360e-03
-3.520703e-03
-5.002975e-03
-5.683336e-03
-5.804180e-03
-5.554820e-03
-5.089431e-03
-4.431068e-03
-3.611202e-03
-1.962059e-03
7.273681e-04
-1.545944e-03
-2.913445e-03
-4.359805e-03
-4.848029e-03
-4.817343e-03
-4.496963e-03
-4.086870e-03
-3.571180e-03
-2.979253e-03
-1.797579e-03
-9.034501e-05
-5.554495e-04
-2.418573e-03
-3.791397e-03
-4.097510e-03
-3.997964e-03
-3.731586e-03
-3.385069e-03
-2.982354e-03
-2.594717e-03
-1.868487e-03
-7.501820e-04
-9.644796e-05
-2.106628e-03
-3.263980e-03
-3.470911e-03
-3.421387e-03
-3.205387e-03
-2.903237e-03
-2.600711e-03
-2.392143e-03
-2.023433e-03
-1.342207e-03
8.975704e-05
-1.884997e-03
-2.847705e-03
-3.025864e-03
-3.006293e-03
-2.830472e-03
-2.587730e-03
-2.382565e-03
-2.313181e-03
-2.196605e-03
-1.848358e-03
3.112306e-07
-1.751495e-03
-2.503774e-03
-2.679967e-03
-2.695163e-03
-2.570697e-03
-2.397507e-03
-2.275166e-03
-2.301639e-03
-2.350094e-03
-2.239720e-03
-1.853623e-04
-1.627463e-03
-2.234205e-03
-2.427143e-03
-2.462876e-03
-2.391044e-03
-2.291916e-03
-2.247030e-03
-2.333027e-03
-2.466602e-03
-2.501588e-03
-3.704249e-04
-1.506069e-03
-2.023064e-03
-2.224757e-03
-2.279822e-03
-2.263367e-03
-2.236882e-03
-2.269283e-03
-2.391172e-03
-2.547623e-03
-2.655888e-03
-5.002971e-04
-1.379529e-03
-1.858248e-03
-2.052997e-03
-2.126201e-03
-2.153488e-03
-2.197611e-03
-2.292463e-03
-2.437834e-03
-2.588144e-03
-2.732850e-03
-6.096925e-04
-1.275141e-03
-1.720123e-03
-1.911270e-03
-2.003245e-03
-2.070305e-03
-2.168002e-03
-2.303877e-03
-2.464897e-03
-2.607462e-03
-2.775171e-03
-7.012175e-04
-1.219576e-03
-1.612252e-03
-1.815594e-03
-1.933643e-03
-2.033577e-03
-2.158034e-03
-2.314685e-03
-2.484750e-03
-2.617458e-03
-2.791333e-03
-7.134012e-04
-1.194862e-03
-1.578002e-03
-1.795110e-03
-1.927155e-03
-2.035009e-03
-2.160138e-03
-2.322619e-03
-2.500378e-03
-2.631197e-03
-2.806735e-03
</DataArray>
</PointData>
</Piece>
</UnstructuredGrid>
</VTKFile>
