<?xml version="1.0"?>
<VTKFile type="UnstructuredGrid" version="0.1">
<UnstructuredGrid>
<FieldData>
<DataArray Name="TIME" type="Float64" format="ascii" NumberOfTuples="1">
0.000000e+00
</DataArray>
</FieldData>
<FieldData>
<DataArray Name="CYCLE" type="Int32" format="ascii" NumberOfTuples="1">
0
</DataArray>
</FieldData>
<Piece NumberOfPoints="187" NumberOfCells="160">
<Points>
<DataArray NumberOfComponents="3" type="Float64" format="ascii">
0.000000e+00 0.000000e+00 0.000000e+00
0.000000e+00 1.968305e-01 0.000000e+00
0.000000e+00 3.919164e-01 0.000000e+00
0.000000e+00 5.845252e-01 0.000000e+00
0.000000e+00 7.757610e-01 0.000000e+00
0.000000e+00 9.665354e-01 0.000000e+00
0.000000e+00 1.157126e+00 0.000000e+00
0.000000e+00 1.347916e+00 0.000000e+00
0.000000e+00 1.540096e+00 0.000000e+00
0.000000e+00 1.735317e+00 0.000000e+00
0.000000e+00 1.931375e+00 0.000000e+00
2.250000e-01 0.000000e+00 0.000000e+00
2.268404e-01 1.967676e-01 0.000000e+00
2.298378e-01 3.920461e-01 0.000000e+00
2.323135e-01 5.856949e-01 0.000000e+00
2.335431e-01 7.780271e-01 0.000000e+00
2.338601e-01 9.695155e-01 0.000000e+00
2.335944e-01 1.160620e+00 0.000000e+00
2.325111e-01 1.351744e+00 0.000000e+00
2.295656e-01 1.543033e+00 0.000000e+00
2.256484e-01 1.735709e+00 0.000000e+00
2.250000e-01 1.931375e+00 0.000000e+00
4.500000e-01 0.000000e+00 0.000000e+00
4.540243e-01 1.971324e-01 0.000000e+00
4.583099e-01 3.934265e-01 0.000000e+00
4.618842e-01 5.893151e-01 0.000000e+00
4.643865e-01 7.846186e-01 0.000000e+00
4.659220e-01 9.789218e-01 0.000000e+00
4.663793e-01 1.172018e+00 0.000000e+00
4.658758e-01 1.363796e+00 0.000000e+00
4.632613e-01 1.553955e+00 0.000000e+00
4.582278e-01 1.742828e+00 0.000000e+00
4.500000e-01 1.931375e+00 0.000000e+00
6.750000e-01 0.000000e+00 0.000000e+00
6.805750e-01 1.984732e-01 0.000000e+00
6.852494e-01 3.967679e-01 0.000000e+00
6.888112e-01 5.952257e-01 0.000000e+00
6.915956e-01 7.939543e-01 0.000000e+00
6.937007e-01 9.929980e-01 0.000000e+00
6.950387e-01 1.192319e+00 0.000000e+00
6.952006e-01 1.392069e+00 0.000000e+00
6.934851e-01 1.592291e+00 0.000000e+00
6.897913e-01 1.792710e+00 0.000000e+00
6.831391e-01 1.992632e+00 0.000000e+00
9.000000e-01 0.000000e+00 0.000000e+00
9.060075e-01 1.989350e-01 0.000000e+00
9.103010e-01 3.979572e-01 0.000000e+00
9.133868e-01 5.972608e-01 0.000000e+00
9.158121e-01 7.968448e-01 0.000000e+00
9.175593e-01 9.967300e-01 0.000000e+00
9.184926e-01 1.197001e+00 0.000000e+00
9.182428e-01 1.397640e+00 0.000000e+00
9.164947e-01 1.598448e+00 0.000000e+00
9.132072e-01 1.799133e+00 0.000000e+00
9.087758e-01 1.999214e+00 0.000000e+00
1.125000e+00 0.000000e+00 0.000000e+00
1.131012e+00 1.993857e-01 0.000000e+00
1.134696e+00 3.989637e-01 0.000000e+00
1.137409e+00 5.988200e-01 0.000000e+00
1.139500e+00 7.989430e-01 0.000000e+00
1.140889e+00 9.993601e-01 0.000000e+00
1.141487e+00 1.200076e+00 0.000000e+00
1.141080e+00 1.401033e+00 0.000000e+00
1.139540e+00 1.602024e+00 0.000000e+00
1.137063e+00 1.802695e+00 0.000000e+00
1.134375e+00 2.002782e+00 0.000000e+00
1.350000e+00 0.000000e+00 0.000000e+00
1.355615e+00 1.997537e-01 0.000000e+00
1.358755e+00 3.996981e-01 0.000000e+00
1.361126e+00 5.998977e-01 0.000000e+00
1.362890e+00 8.003434e-01 0.000000e+00
1.364006e+00 1.001043e+00 0.000000e+00
1.364407e+00 1.201984e+00 0.000000e+00
1.363994e+00 1.403054e+00 0.000000e+00
1.362807e+00 1.604046e+00 0.000000e+00
1.361160e+00 1.804662e+00 0.000000e+00
1.359613e+00 2.004813e+00 0.000000e+00
1.575000e+00 0.000000e+00 0.000000e+00
1.579944e+00 1.999927e-01 0.000000e+00
1.582649e+00 4.001625e-01 0.000000e+00
1.584680e+00 6.005591e-01 0.000000e+00
1.586181e+00 8.011894e-01 0.000000e+00
1.587092e+00 1.002043e+00 0.000000e+00
1.587387e+00 1.203058e+00 0.000000e+00
1.587073e+00 1.404122e+00 0.000000e+00
1.586285e+00 1.605042e+00 0.000000e+00
1.585319e+00 1.805619e+00 0.000000e+00
1.584540e+00 2.005835e+00 0.000000e+00
1.800000e+00 0.000000e+00 0.000000e+00
1.804135e+00 2.001011e-01 0.000000e+00
1.806469e+00 4.004030e-01 0.000000e+00
1.808210e+00 6.009034e-01 0.000000e+00
1.809478e+00 8.016241e-01 0.000000e+00
1.810234e+00 1.002528e+00 0.000000e+00
1.810499e+00 1.203534e+00 0.000000e+00
1.810337e+00 1.404529e+00 0.000000e+00
1.809917e+00 1.605357e+00 0.000000e+00
1.809456e+00 1.805915e+00 0.000000e+00
1.809187e+00 2.006209e+00 0.000000e+00
2.025000e+00 0.000000e+00 0.000000e+00
2.028313e+00 2.001230e-01 0.000000e+00
2.030296e+00 4.004775e-01 0.000000e+00
2.031784e+00 6.010305e-01 0.000000e+00
2.032843e+00 8.017703e-01 0.000000e+00
2.033489e+00 1.002648e+00 0.000000e+00
2.033767e+00 1.203585e+00 0.000000e+00
2.033775e+00 1.404477e+00 0.000000e+00
2.033641e+00 1.605229e+00 0.000000e+00
2.033526e+00 1.805793e+00 0.000000e+00
2.033578e+00 2.006174e+00 0.000000e+00
2.250000e+00 0.000000e+00 0.000000e+00
2.252545e+00 2.001095e-01 0.000000e+00
2.254197e+00 4.004635e-01 0.000000e+00
2.255444e+00 6.010083e-01 0.000000e+00
2.256329e+00 8.017101e-01 0.000000e+00
2.256899e+00 1.002512e+00 0.000000e+00
2.257210e+00 1.203345e+00 0.000000e+00
2.257349e+00 1.404147e+00 0.000000e+00
2.257409e+00 1.604847e+00 0.000000e+00
2.257506e+00 1.805427e+00 0.000000e+00
2.257738e+00 2.005900e+00 0.000000e+00
2.475000e+00 0.000000e+00 0.000000e+00
2.476872e+00 2.000777e-01 0.000000e+00
2.478206e+00 4.003933e-01 0.000000e+00
2.479227e+00 6.008855e-01 0.000000e+00
2.479968e+00 8.015088e-01 0.000000e+00
2.480478e+00 1.002211e+00 0.000000e+00
2.480804e+00 1.202953e+00 0.000000e+00
2.481019e+00 1.403680e+00 0.000000e+00
2.481190e+00 1.604352e+00 0.000000e+00
2.481397e+00 1.804956e+00 0.000000e+00
2.481708e+00 2.005508e+00 0.000000e+00
2.700000e+00 0.000000e+00 0.000000e+00
2.701310e+00 2.000403e-01 0.000000e+00
2.702340e+00 4.002890e-01 0.000000e+00
2.703152e+00 6.007010e-01 0.000000e+00
2.703763e+00 8.012357e-01 0.000000e+00
2.704206e+00 1.001855e+00 0.000000e+00
2.704518e+00 1.202519e+00 0.000000e+00
2.704754e+00 1.403190e+00 0.000000e+00
2.704967e+00 1.603843e+00 0.000000e+00
2.705212e+00 1.804470e+00 0.000000e+00
2.705530e+00 2.005089e+00 0.000000e+00
2.925000e+00 0.000000e+00 0.000000e+00
2.925867e+00 1.999999e-01 0.000000e+00
2.926609e+00 4.001732e-01 0.000000e+00
2.927218e+00 6.005032e-01 0.000000e+00
2.927693e+00 8.009622e-01 0.000000e+00
2.928051e+00 1.001511e+00 0.000000e+00
2.928316e+00 1.202117e+00 0.000000e+00
2.928532e+00 1.402749e+00 0.000000e+00
2.928736e+00 1.603389e+00 0.000000e+00
2.928964e+00 1.804035e+00 0.000000e+00
2.929240e+00 2.004705e+00 0.000000e+00
3.150000e+00 0.000000e+00 0.000000e+00
3.150527e+00 1.999613e-01 0.000000e+00
3.151000e+00 4.000767e-01 0.000000e+00
3.151404e+00 6.003425e-01 0.000000e+00
3.151730e+00 8.007390e-01 0.000000e+00
3.151983e+00 1.001236e+00 0.000000e+00
3.152176e+00 1.201797e+00 0.000000e+00
3.152338e+00 1.402400e+00 0.000000e+00
3.152496e+00 1.603032e+00 0.000000e+00
3.152670e+00 1.803693e+00 0.000000e+00
3.152870e+00 2.004400e+00 0.000000e+00
3.375000e+00 0.000000e+00 0.000000e+00
3.375250e+00 1.999379e-01 0.000000e+00
3.375478e+00 4.000190e-01 0.000000e+00
3.375679e+00 6.002460e-01 0.000000e+00
3.375844e+00 8.005998e-01 0.000000e+00
3.375975e+00 1.001061e+00 0.000000e+00
3.376076e+00 1.201594e+00 0.000000e+00
3.376163e+00 1.402178e+00 0.000000e+00
3.376249e+00 1.602802e+00 0.000000e+00
3.376343e+00 1.803472e+00 0.000000e+00
3.376447e+00 2.004203e+00 0.000000e+00
3.600000e+00 0.000000e+00 0.000000e+00
3.600000e+00 1.999421e-01 0.000000e+00
3.600000e+00 4.000141e-01 0.000000e+00
3.600000e+00 6.002268e-01 0.000000e+00
3.600000e+00 8.005641e-01 0.000000e+00
3.600000e+00 1.001007e+00 0.000000e+00
3.600000e+00 1.201526e+00 0.000000e+00
3.600000e+00 1.402099e+00 0.000000e+00
3.600000e+00 1.602716e+00 0.000000e+00
3.600000e+00 1.803385e+00 0.000000e+00
3.600000e+00 2.004123e+00 0.000000e+00
</DataArray>
</Points>
<Cells>
<DataArray Name="connectivity" type="Int32" format="ascii">
0 11 12 1
1 12 13 2
2 13 14 3
3 14 15 4
4 15 16 5
5 16 17 6
6 17 18 7
7 18 19 8
8 19 20 9
9 20 21 10
11 22 23 12
12 23 24 13
13 24 25 14
14 25 26 15
15 26 27 16
16 27 28 17
17 28 29 18
18 29 30 19
19 30 31 20
20 31 32 21
22 33 34 23
23 34 35 24
24 35 36 25
25 36 37 26
26 37 38 27
27 38 39 28
28 39 40 29
29 40 41 30
30 41 42 31
31 42 43 32
33 44 45 34
34 45 46 35
35 46 47 36
36 47 48 37
37 48 49 38
38 49 50 39
39 50 51 40
40 51 52 41
41 52 53 42
42 53 54 43
44 55 56 45
45 56 57 46
46 57 58 47
47 58 59 48
48 59 60 49
49 60 61 50
50 61 62 51
51 62 63 52
52 63 64 53
53 64 65 54
55 66 67 56
56 67 68 57
57 68 69 58
58 69 70 59
59 70 71 60
60 71 72 61
61 72 73 62
62 73 74 63
63 74 75 64
64 75 76 65
66 77 78 67
67 78 79 68
68 79 80 69
69 80 81 70
70 81 82 71
71 82 83 72
72 83 84 73
73 84 85 74
74 85 86 75
75 86 87 76
77 88 89 78
78 89 90 79
79 90 91 80
80 91 92 81
81 92 93 82
82 93 94 83
83 94 95 84
84 95 96 85
85 96 97 86
86 97 98 87
88 99 100 89
89 100 101 90
90 101 102 91
91 102 103 92
92 103 104 93
93 104 105 94
94 105 106 95
95 106 107 96
96 107 108 97
97 108 109 98
99 110 111 100
100 111 112 101
101 112 113 102
102 113 114 103
103 114 115 104
104 115 116 105
105 116 117 106
106 117 118 107
107 118 119 108
108 119 120 109
110 121 122 111
111 122 123 112
112 123 124 113
113 124 125 114
114 125 126 115
115 126 127 116
116 127 128 117
117 128 129 118
118 129 130 119
119 130 131 120
121 132 133 122
122 133 134 123
123 134 135 124
124 135 136 125
125 136 137 126
126 137 138 127
127 138 139 128
128 139 140 129
129 140 141 130
130 141 142 131
132 143 144 133
133 144 145 134
134 145 146 135
135 146 147 136
136 147 148 137
137 148 149 138
138 149 150 139
139 150 151 140
140 151 152 141
141 152 153 142
143 154 155 144
144 155 156 145
145 156 157 146
146 157 158 147
147 158 159 148
148 159 160 149
149 160 161 150
150 161 162 151
151 162 163 152
152 163 164 153
154 165 166 155
155 166 167 156
156 167 168 157
157 168 169 158
158 169 170 159
159 170 171 160
160 171 172 161
161 172 173 162
162 173 174 163
163 174 175 164
165 176 177 166
166 177 178 167
167 178 179 168
168 179 180 169
169 180 181 170
170 181 182 171
171 182 183 172
172 183 184 173
173 184 185 174
174 185 186 175
</DataArray>
<DataArray Name="offsets" type="Int32" format="ascii">
4
8
12
16
20
24
28
32
36
40
44
48
52
56
60
64
68
72
76
80
84
88
92
96
100
104
108
112
116
120
124
128
132
136
140
144
148
152
156
160
164
168
172
176
180
184
188
192
196
200
204
208
212
216
220
224
228
232
236
240
244
248
252
256
260
264
268
272
276
280
284
288
292
296
300
304
308
312
316
320
324
328
332
336
340
344
348
352
356
360
364
368
372
376
380
384
388
392
396
400
404
408
412
416
420
424
428
432
436
440
444
448
452
456
460
464
468
472
476
480
484
488
492
496
500
504
508
512
516
520
524
528
532
536
540
544
548
552
556
560
564
568
572
576
580
584
588
592
596
600
604
608
612
616
620
624
628
632
636
640
</DataArray>
<DataArray Name="types" type="UInt8" format="ascii">
9
9
9
9
9
9
9
9
9
9
9
9
9
9
9
9
9
9
9
9
9
9
9
9
9
9
9
9
9
9
9
9
9
9
9
9
9
9
9
9
9
9
9
9
9
9
9
9
9
9
9
9
9
9
9
9
9
9
9
9
9
9
9
9
9
9
9
9
9
9
9
9
9
9
9
9
9
9
9
9
9
9
9
9
9
9
9
9
9
9
9
9
9
9
9
9
9
9
9
9
9
9
9
9
9
9
9
9
9
9
9
9
9
9
9
9
9
9
9
9
9
9
9
9
9
9
9
9
9
9
9
9
9
9
9
9
9
9
9
9
9
9
9
9
9
9
9
9
9
9
9
9
9
9
9
9
9
9
9
9
</DataArray>
</Cells>
<PointData>
<DataArray Name="disp" type="Float64" NumberOfComponents="3" format="ascii">
0.000000e+00 0.000000e+00 0.000000e+00
0.000000e+00 -3.169485e-03 0.000000e+00
0.000000e+00 -8.083651e-03 0.000000e+00
0.000000e+00 -1.547477e-02 0.000000e+00
0.000000e+00 -2.423899e-02 0.000000e+00
0.000000e+00 -3.346456e-02 0.000000e+00
0.000000e+00 -4.287414e-02 0.000000e+00
0.000000e+00 -5.208445e-02 0.000000e+00
0.000000e+00 -5.990408e-02 0.000000e+00
0.000000e+00 -6.468257e-02 0.000000e+00
0.000000e+00 -6.862500e-02 0.000000e+00
0.000000e+00 0.000000e+00 0.000000e+00
1.840414e-03 -3.232363e-03 0.000000e+00
4.837755e-03 -7.953938e-03 0.000000e+00
7.313455e-03 -1.430510e-02 0.000000e+00
8.543051e-03 -2.197292e-02 0.000000e+00
8.860089e-03 -3.048452e-02 0.000000e+00
8.594391e-03 -3.937969e-02 0.000000e+00
7.511117e-03 -4.825642e-02 0.000000e+00
4.565609e-03 -5.696667e-02 0.000000e+00
6.483604e-04 -6.429139e-02 0.000000e+00
0.000000e+00 -6.862500e-02 0.000000e+00
0.000000e+00 0.000000e+00 0.000000e+00
4.024260e-03 -2.867568e-03 0.000000e+00
8.309854e-03 -6.573470e-03 0.000000e+00
1.188420e-02 -1.068486e-02 0.000000e+00
1.438649e-02 -1.538142e-02 0.000000e+00
1.592200e-02 -2.107815e-02 0.000000e+00
1.637927e-02 -2.798180e-02 0.000000e+00
1.587579e-02 -3.620403e-02 0.000000e+00
1.326130e-02 -4.604458e-02 0.000000e+00
8.227834e-03 -5.717185e-02 0.000000e+00
0.000000e+00 -6.862500e-02 0.000000e+00
0.000000e+00 0.000000e+00 0.000000e+00
5.574932e-03 -1.526808e-03 0.000000e+00
1.024942e-02 -3.232133e-03 0.000000e+00
1.381116e-02 -4.774321e-03 0.000000e+00
1.659555e-02 -6.045751e-03 0.000000e+00
1.870066e-02 -7.002018e-03 0.000000e+00
2.003872e-02 -7.680940e-03 0.000000e+00
2.020064e-02 -7.930812e-03 0.000000e+00
1.848510e-02 -7.709334e-03 0.000000e+00
1.479130e-02 -7.289656e-03 0.000000e+00
8.139130e-03 -7.368207e-03 0.000000e+00
0.000000e+00 0.000000e+00 0.000000e+00
6.007444e-03 -1.064952e-03 0.000000e+00
1.030095e-02 -2.042803e-03 0.000000e+00
1.338681e-02 -2.739201e-03 0.000000e+00
1.581214e-02 -3.155184e-03 0.000000e+00
1.755932e-02 -3.269956e-03 0.000000e+00
1.849263e-02 -2.998962e-03 0.000000e+00
1.824273e-02 -2.359904e-03 0.000000e+00
1.649471e-02 -1.552475e-03 0.000000e+00
1.320720e-02 -8.670742e-04 0.000000e+00
8.775811e-03 -7.860113e-04 0.000000e+00
0.000000e+00 0.000000e+00 0.000000e+00
6.011622e-03 -6.143312e-04 0.000000e+00
9.696215e-03 -1.036306e-03 0.000000e+00
1.240942e-02 -1.180004e-03 0.000000e+00
1.450021e-02 -1.057044e-03 0.000000e+00
1.588878e-02 -6.398440e-04 0.000000e+00
1.648650e-02 7.585739e-05 0.000000e+00
1.607993e-02 1.032820e-03 0.000000e+00
1.454035e-02 2.023909e-03 0.000000e+00
1.206250e-02 2.694748e-03 0.000000e+00
9.375396e-03 2.782403e-03 0.000000e+00
0.000000e+00 0.000000e+00 0.000000e+00
5.614957e-03 -2.463365e-04 0.000000e+00
8.755004e-03 -3.018536e-04 0.000000e+00
1.112598e-02 -1.023462e-04 0.000000e+00
1.288977e-02 3.434127e-04 0.000000e+00
1.400556e-02 1.042651e-03 0.000000e+00
1.440717e-02 1.984109e-03 0.000000e+00
1.399378e-02 3.054521e-03 0.000000e+00
1.280744e-02 4.046196e-03 0.000000e+00
1.115979e-02 4.661740e-03 0.000000e+00
9.613476e-03 4.812754e-03 0.000000e+00
0.000000e+00 0.000000e+00 0.000000e+00
4.944521e-03 -7.281262e-06 0.000000e+00
7.648963e-03 1.625094e-04 0.000000e+00
9.680449e-03 5.590935e-04 0.000000e+00
1.118131e-02 1.189341e-03 0.000000e+00
1.209243e-02 2.043444e-03 0.000000e+00
1.238718e-02 3.057580e-03 0.000000e+00
1.207258e-02 4.122358e-03 0.000000e+00
1.128485e-02 5.041474e-03 0.000000e+00
1.031925e-02 5.619226e-03 0.000000e+00
9.540117e-03 5.835088e-03 0.000000e+00
0.000000e+00 0.000000e+00 0.000000e+00
4.134953e-03 1.011099e-04 0.000000e+00
6.468567e-03 4.030216e-04 0.000000e+00
8.210138e-03 9.033949e-04 0.000000e+00
9.477558e-03 1.624086e-03 0.000000e+00
1.023435e-02 2.527950e-03 0.000000e+00
1.049862e-02 3.533915e-03 0.000000e+00
1.033706e-02 4.529012e-03 0.000000e+00
9.917351e-03 5.356759e-03 0.000000e+00
9.456168e-03 5.915314e-03 0.000000e+00
9.186650e-03 6.209298e-03 0.000000e+00
0.000000e+00 0.000000e+00 0.000000e+00
3.313170e-03 1.229931e-04 0.000000e+00
5.296274e-03 4.774544e-04 0.000000e+00
6.784181e-03 1.030464e-03 0.000000e+00
7.842671e-03 1.770288e-03 0.000000e+00
8.488457e-03 2.648130e-03 0.000000e+00
8.766747e-03 3.584553e-03 0.000000e+00
8.774696e-03 4.476735e-03 0.000000e+00
8.640986e-03 5.229257e-03 0.000000e+00
8.525666e-03 5.792943e-03 0.000000e+00
8.577675e-03 6.173753e-03 0.000000e+00
0.000000e+00 0.000000e+00 0.000000e+00
2.545147e-03 1.095488e-04 0.000000e+00
4.197389e-03 4.635013e-04 0.000000e+00
5.443742e-03 1.008321e-03 0.000000e+00
6.329200e-03 1.710102e-03 0.000000e+00
6.898928e-03 2.512011e-03 0.000000e+00
7.209481e-03 3.345350e-03 0.000000e+00
7.349532e-03 4.146607e-03 0.000000e+00
7.408565e-03 4.847398e-03 0.000000e+00
7.505580e-03 5.427329e-03 0.000000e+00
7.738154e-03 5.900341e-03 0.000000e+00
0.000000e+00 0.000000e+00 0.000000e+00
1.872195e-03 7.771298e-05 0.000000e+00
3.205822e-03 3.932637e-04 0.000000e+00
4.226736e-03 8.854628e-04 0.000000e+00
4.968005e-03 1.508763e-03 0.000000e+00
5.477503e-03 2.211491e-03 0.000000e+00
5.804255e-03 2.952787e-03 0.000000e+00
6.018801e-03 3.680187e-03 0.000000e+00
6.190183e-03 4.351807e-03 0.000000e+00
6.397224e-03 4.955560e-03 0.000000e+00
6.708396e-03 5.508285e-03 0.000000e+00
0.000000e+00 0.000000e+00 0.000000e+00
1.309673e-03 4.026575e-05 0.000000e+00
2.340148e-03 2.890340e-04 0.000000e+00
3.151748e-03 7.009499e-04 0.000000e+00
3.762822e-03 1.235653e-03 0.000000e+00
4.205855e-03 1.854812e-03 0.000000e+00
4.517834e-03 2.518895e-03 0.000000e+00
4.753689e-03 3.190015e-03 0.000000e+00
4.967269e-03 3.842669e-03 0.000000e+00
5.212183e-03 4.469885e-03 0.000000e+00
5.529745e-03 5.088593e-03 0.000000e+00
0.000000e+00 0.000000e+00 0.000000e+00
8.669628e-04 -6.625687e-08 0.000000e+00
1.609105e-03 1.732412e-04 0.000000e+00
2.217689e-03 5.032193e-04 0.000000e+00
2.693054e-03 9.622091e-04 0.000000e+00
3.050527e-03 1.511498e-03 0.000000e+00
3.316093e-03 2.116682e-03 0.000000e+00
3.531825e-03 2.748567e-03 0.000000e+00
3.736383e-03 3.388677e-03 0.000000e+00
3.964479e-03 4.035356e-03 0.000000e+00
4.239505e-03 4.704804e-03 0.000000e+00
0.000000e+00 0.000000e+00 0.000000e+00
5.266691e-04 -3.868630e-05 0.000000e+00
1.000383e-03 7.667833e-05 0.000000e+00
1.404063e-03 3.424453e-04 0.000000e+00
1.730217e-03 7.390229e-04 0.000000e+00
1.983218e-03 1.235571e-03 0.000000e+00
2.175680e-03 1.797411e-03 0.000000e+00
2.338091e-03 2.400505e-03 0.000000e+00
2.495971e-03 3.032163e-03 0.000000e+00
2.670264e-03 3.693244e-03 0.000000e+00
2.869908e-03 4.400383e-03 0.000000e+00
0.000000e+00 0.000000e+00 0.000000e+00
2.495343e-04 -6.213928e-05 0.000000e+00
4.775283e-04 1.898979e-05 0.000000e+00
6.795026e-04 2.460406e-04 0.000000e+00
8.439169e-04 5.997566e-04 0.000000e+00
9.750000e-04 1.061007e-03 0.000000e+00
1.076396e-03 1.594338e-03 0.000000e+00
1.163342e-03 2.177873e-03 0.000000e+00
1.248896e-03 2.802222e-03 0.000000e+00
1.343123e-03 3.471534e-03 0.000000e+00
1.447451e-03 4.202953e-03 0.000000e+00
0.000000e+00 0.000000e+00 0.000000e+00
0.000000e+00 -5.788989e-05 0.000000e+00
0.000000e+00 1.410564e-05 0.000000e+00
0.000000e+00 2.267918e-04 0.000000e+00
0.000000e+00 5.640943e-04 0.000000e+00
0.000000e+00 1.007083e-03 0.000000e+00
0.000000e+00 1.526366e-03 0.000000e+00
0.000000e+00 2.098602e-03 0.000000e+00
0.000000e+00 2.716322e-03 0.000000e+00
0.000000e+00 3.385048e-03 0.000000e+00
0.000000e+00 4.122836e-03 0.000000e+00
</DataArray>
<DataArray Name="shear" type="Float64" NumberOfComponents="1" format="ascii">
1.904020e-02
2.956719e-02
5.140155e-02
7.095460e-02
8.180723e-02
8.585830e-02
8.504260e-02
7.657016e-02
5.468284e-02
2.983900e-02
2.153600e-02
2.128972e-02
3.121565e-02
4.819477e-02
6.318699e-02
7.459488e-02
8.227804e-02
8.560880e-02
8.308548e-02
7.130657e-02
5.013509e-02
3.389300e-02
2.662963e-02
3.380669e-02
4.315364e-02
5.136408e-02
6.256959e-02
7.665890e-02
9.177303e-02
1.054912e-01
1.165378e-01
1.214346e-01
1.206329e-01
3.008277e-02
3.192710e-02
3.341302e-02
3.567738e-02
4.096193e-02
4.930748e-02
6.017441e-02
7.222679e-02
8.622856e-02
1.013833e-01
1.131615e-01
3.099723e-02
2.830965e-02
2.362350e-02
2.189365e-02
2.180423e-02
2.185832e-02
2.134783e-02
1.922776e-02
1.488341e-02
7.298749e-03
4.510964e-04
3.054911e-02
2.607922e-02
2.002894e-02
1.855711e-02
1.822736e-02
1.801340e-02
1.739760e-02
1.564321e-02
1.208256e-02
6.033955e-03
1.721156e-03
2.835711e-02
2.326601e-02
1.716902e-02
1.613012e-02
1.588368e-02
1.578513e-02
1.539561e-02
1.404511e-02
1.096183e-02
5.879248e-03
2.254596e-03
2.491706e-02
2.019184e-02
1.489671e-02
1.426564e-02
1.429469e-02
1.438230e-02
1.411539e-02
1.288581e-02
1.013311e-02
5.994818e-03
3.186141e-03
2.084761e-02
1.704976e-02
1.304527e-02
1.275268e-02
1.303265e-02
1.324311e-02
1.297971e-02
1.179092e-02
9.473897e-03
6.328612e-03
4.323367e-03
1.672367e-02
1.402258e-02
1.140862e-02
1.141284e-02
1.181527e-02
1.206080e-02
1.179667e-02
1.077970e-02
9.040867e-03
6.854611e-03
5.545245e-03
1.287975e-02
1.121107e-02
9.813709e-03
1.006067e-02
1.052292e-02
1.079018e-02
1.064083e-02
9.956635e-03
8.809377e-03
7.469149e-03
6.727932e-03
9.496455e-03
8.645139e-03
8.191630e-03
8.660846e-03
9.213830e-03
9.592165e-03
9.656617e-03
9.342064e-03
8.729206e-03
8.059739e-03
7.742449e-03
6.661227e-03
6.364814e-03
6.585372e-03
7.310630e-03
8.044084e-03
8.596967e-03
8.883384e-03
8.896315e-03
8.726873e-03
8.569127e-03
8.556840e-03
4.402280e-03
4.412460e-03
5.109261e-03
6.135120e-03
7.089530e-03
7.823136e-03
8.310532e-03
8.586969e-03
8.754494e-03
8.972417e-03
9.174517e-03
2.655581e-03
2.844017e-03
3.919853e-03
5.213936e-03
6.364145e-03
7.256659e-03
7.899645e-03
8.373582e-03
8.786305e-03
9.268138e-03
9.616581e-03
1.261105e-03
1.685311e-03
3.134674e-03
4.615128e-03
5.888874e-03
6.891198e-03
7.634304e-03
8.230050e-03
8.797343e-03
9.447439e-03
9.885374e-03
4.286145e-04
1.203915e-03
2.855765e-03
4.401706e-03
5.711287e-03
6.750382e-03
7.532128e-03
8.170628e-03
8.792340e-03
9.502418e-03
9.971580e-03
</DataArray>
<DataArray Name="stress" type="Float64" NumberOfComponents="9" format="ascii">
-1.211553e+05 6.355676e+03 0.000000e+00 6.355676e+03 -2.111484e+05 0.000000e+00 0.000000e+00 0.000000e+00 0.000000e+00
-1.068559e+05 4.823942e+03 0.000000e+00 4.823942e+03 -2.118966e+05 0.000000e+00 0.000000e+00 0.000000e+00 0.000000e+00
-1.110998e+05 3.113386e+03 0.000000e+00 3.113386e+03 -2.170119e+05 0.000000e+00 0.000000e+00 0.000000e+00 0.000000e+00
-1.180604e+05 3.903807e+03 0.000000e+00 3.903807e+03 -2.242370e+05 0.000000e+00 0.000000e+00 0.000000e+00 0.000000e+00
-1.212929e+05 5.661466e+03 0.000000e+00 5.661466e+03 -2.336046e+05 0.000000e+00 0.000000e+00 0.000000e+00 0.000000e+00
-1.264335e+05 7.961571e+03 0.000000e+00 7.961571e+03 -2.450504e+05 0.000000e+00 0.000000e+00 0.000000e+00 0.000000e+00
-1.334459e+05 9.943363e+03 0.000000e+00 9.943363e+03 -2.586454e+05 0.000000e+00 0.000000e+00 0.000000e+00 0.000000e+00
-1.419541e+05 1.033478e+04 0.000000e+00 1.033478e+04 -2.697595e+05 0.000000e+00 0.000000e+00 0.000000e+00 0.000000e+00
-1.445727e+05 4.517824e+03 0.000000e+00 4.517824e+03 -2.792928e+05 0.000000e+00 0.000000e+00 0.000000e+00 0.000000e+00
-1.508900e+05 -2.212082e+03 0.000000e+00 -2.212082e+03 -2.874428e+05 0.000000e+00 0.000000e+00 0.000000e+00 0.000000e+00
-1.569156e+05 -1.168073e+03 0.000000e+00 -1.168073e+03 -2.760492e+05 0.000000e+00 0.000000e+00 0.000000e+00 0.000000e+00
-1.232120e+05 1.850912e+04 0.000000e+00 1.850912e+04 -2.050444e+05 0.000000e+00 0.000000e+00 0.000000e+00 0.000000e+00
-1.078009e+05 1.564844e+04 0.000000e+00 1.564844e+04 -2.013334e+05 0.000000e+00 0.000000e+00 0.000000e+00 0.000000e+00
-1.096008e+05 1.386423e+04 0.000000e+00 1.386423e+04 -2.121500e+05 0.000000e+00 0.000000e+00 0.000000e+00 0.000000e+00
-1.165523e+05 1.303910e+04 0.000000e+00 1.303910e+04 -2.247469e+05 0.000000e+00 0.000000e+00 0.000000e+00 0.000000e+00
-1.226924e+05 1.305086e+04 0.000000e+00 1.305086e+04 -2.361131e+05 0.000000e+00 0.000000e+00 0.000000e+00 0.000000e+00
-1.280715e+05 1.383666e+04 0.000000e+00 1.383666e+04 -2.467086e+05 0.000000e+00 0.000000e+00 0.000000e+00 0.000000e+00
-1.336647e+05 1.425551e+04 0.000000e+00 1.425551e+04 -2.553507e+05 0.000000e+00 0.000000e+00 0.000000e+00 0.000000e+00
-1.402333e+05 1.259742e+04 0.000000e+00 1.259742e+04 -2.618298e+05 0.000000e+00 0.000000e+00 0.000000e+00 0.000000e+00
-1.437311e+05 5.930901e+03 0.000000e+00 5.930901e+03 -2.729779e+05 0.000000e+00 0.000000e+00 0.000000e+00 0.000000e+00
-1.459314e+05 -2.527979e+03 0.000000e+00 -2.527979e+03 -2.785088e+05 0.000000e+00 0.000000e+00 0.000000e+00 0.000000e+00
-1.684533e+05 -8.510184e+03 0.000000e+00 -8.510184e+03 -3.133112e+05 0.000000e+00 0.000000e+00 0.000000e+00 0.000000e+00
-1.224587e+05 3.087868e+04 0.000000e+00 3.087868e+04 -1.793222e+05 0.000000e+00 0.000000e+00 0.000000e+00 0.000000e+00
-1.079076e+05 2.710899e+04 0.000000e+00 2.710899e+04 -1.710716e+05 0.000000e+00 0.000000e+00 0.000000e+00 0.000000e+00
-1.081076e+05 2.718413e+04 0.000000e+00 2.718413e+04 -1.796829e+05 0.000000e+00 0.000000e+00 0.000000e+00 0.000000e+00
-1.145797e+05 2.774788e+04 0.000000e+00 2.774788e+04 -1.897715e+05 0.000000e+00 0.000000e+00 0.000000e+00 0.000000e+00
-1.228794e+05 2.907198e+04 0.000000e+00 2.907198e+04 -2.009315e+05 0.000000e+00 0.000000e+00 0.000000e+00 0.000000e+00
-1.334559e+05 3.033778e+04 0.000000e+00 3.033778e+04 -2.138108e+05 0.000000e+00 0.000000e+00 0.000000e+00 0.000000e+00
-1.474792e+05 3.292366e+04 0.000000e+00 3.292366e+04 -2.283637e+05 0.000000e+00 0.000000e+00 0.000000e+00 0.000000e+00
-1.611384e+05 3.434310e+04 0.000000e+00 3.434310e+04 -2.465760e+05 0.000000e+00 0.000000e+00 0.000000e+00 0.000000e+00
-1.676945e+05 3.390391e+04 0.000000e+00 3.390391e+04 -2.623711e+05 0.000000e+00 0.000000e+00 0.000000e+00 0.000000e+00
-1.773220e+05 2.260275e+04 0.000000e+00 2.260275e+04 -2.787196e+05 0.000000e+00 0.000000e+00 0.000000e+00 0.000000e+00
-2.001874e+05 5.259777e+03 0.000000e+00 5.259777e+03 -3.308222e+05 0.000000e+00 0.000000e+00 0.000000e+00 0.000000e+00
-1.116685e+05 3.152458e+04 0.000000e+00 3.152458e+04 -1.370805e+05 0.000000e+00 0.000000e+00 0.000000e+00 0.000000e+00
-1.016534e+05 2.890826e+04 0.000000e+00 2.890826e+04 -1.303993e+05 0.000000e+00 0.000000e+00 0.000000e+00 0.000000e+00
-1.032462e+05 2.946261e+04 0.000000e+00 2.946261e+04 -1.311206e+05 0.000000e+00 0.000000e+00 0.000000e+00 0.000000e+00
-1.092990e+05 3.069775e+04 0.000000e+00 3.069775e+04 -1.304953e+05 0.000000e+00 0.000000e+00 0.000000e+00 0.000000e+00
-1.144422e+05 3.224911e+04 0.000000e+00 3.224911e+04 -1.287374e+05 0.000000e+00 0.000000e+00 0.000000e+00 0.000000e+00
-1.178932e+05 3.233242e+04 0.000000e+00 3.233242e+04 -1.248931e+05 0.000000e+00 0.000000e+00 0.000000e+00 0.000000e+00
-1.209733e+05 3.141291e+04 0.000000e+00 3.141291e+04 -1.186177e+05 0.000000e+00 0.000000e+00 0.000000e+00 0.000000e+00
-1.209414e+05 2.811245e+04 0.000000e+00 2.811245e+04 -1.110909e+05 0.000000e+00 0.000000e+00 0.000000e+00 0.000000e+00
-1.098328e+05 2.194809e+04 0.000000e+00 2.194809e+04 -9.692391e+04 0.000000e+00 0.000000e+00 0.000000e+00 0.000000e+00
-8.858077e+04 1.354375e+04 0.000000e+00 1.354375e+04 -8.154522e+04 0.000000e+00 0.000000e+00 0.000000e+00 0.000000e+00
-5.568419e+04 7.035257e+03 0.000000e+00 7.035257e+03 -6.283077e+04 0.000000e+00 0.000000e+00 0.000000e+00 0.000000e+00
-1.063818e+05 3.033731e+04 0.000000e+00 3.033731e+04 -1.160527e+05 0.000000e+00 0.000000e+00 0.000000e+00 0.000000e+00
-1.020963e+05 2.891979e+04 0.000000e+00 2.891979e+04 -1.134039e+05 0.000000e+00 0.000000e+00 0.000000e+00 0.000000e+00
-1.068263e+05 2.929707e+04 0.000000e+00 2.929707e+04 -1.141326e+05 0.000000e+00 0.000000e+00 0.000000e+00 0.000000e+00
-1.146195e+05 2.985360e+04 0.000000e+00 2.985360e+04 -1.119226e+05 0.000000e+00 0.000000e+00 0.000000e+00 0.000000e+00
-1.210616e+05 2.979970e+04 0.000000e+00 2.979970e+04 -1.076367e+05 0.000000e+00 0.000000e+00 0.000000e+00 0.000000e+00
-1.262145e+05 2.867404e+04 0.000000e+00 2.867404e+04 -1.017677e+05 0.000000e+00 0.000000e+00 0.000000e+00 0.000000e+00
-1.300812e+05 2.582170e+04 0.000000e+00 2.582170e+04 -9.448457e+04 0.000000e+00 0.000000e+00 0.000000e+00 0.000000e+00
-1.301972e+05 2.045798e+04 0.000000e+00 2.045798e+04 -8.609995e+04 0.000000e+00 0.000000e+00 0.000000e+00 0.000000e+00
-1.216137e+05 1.277898e+04 0.000000e+00 1.277898e+04 -7.657996e+04 0.000000e+00 0.000000e+00 0.000000e+00 0.000000e+00
-9.783985e+04 3.769825e+03 0.000000e+00 3.769825e+03 -6.874284e+04 0.000000e+00 0.000000e+00 0.000000e+00 0.000000e+00
-5.822068e+04 -4.617162e+02 0.000000e+00 -4.617162e+02 -5.584118e+04 0.000000e+00 0.000000e+00 0.000000e+00 0.000000e+00
-1.000125e+05 2.851229e+04 0.000000e+00 2.851229e+04 -1.012243e+05 0.000000e+00 0.000000e+00 0.000000e+00 0.000000e+00
-1.002528e+05 2.788231e+04 0.000000e+00 2.788231e+04 -1.007663e+05 0.000000e+00 0.000000e+00 0.000000e+00 0.000000e+00
-1.069747e+05 2.712721e+04 0.000000e+00 2.712721e+04 -9.948876e+04 0.000000e+00 0.000000e+00 0.000000e+00 0.000000e+00
-1.145617e+05 2.595437e+04 0.000000e+00 2.595437e+04 -9.542816e+04 0.000000e+00 0.000000e+00 0.000000e+00 0.000000e+00
-1.199665e+05 2.437404e+04 0.000000e+00 2.437404e+04 -9.094240e+04 0.000000e+00 0.000000e+00 0.000000e+00 0.000000e+00
-1.238376e+05 2.180488e+04 0.000000e+00 2.180488e+04 -8.567231e+04 0.000000e+00 0.000000e+00 0.000000e+00 0.000000e+00
-1.257071e+05 1.761289e+04 0.000000e+00 1.761289e+04 -7.963020e+04 0.000000e+00 0.000000e+00 0.000000e+00 0.000000e+00
-1.228654e+05 1.140942e+04 0.000000e+00 1.140942e+04 -7.310486e+04 0.000000e+00 0.000000e+00 0.000000e+00 0.000000e+00
-1.127240e+05 3.818349e+03 0.000000e+00 3.818349e+03 -6.697543e+04 0.000000e+00 0.000000e+00 0.000000e+00 0.000000e+00
-8.998815e+04 -2.263911e+03 0.000000e+00 -2.263911e+03 -6.235065e+04 0.000000e+00 0.000000e+00 0.000000e+00 0.000000e+00
-6.008977e+04 -3.808911e+03 0.000000e+00 -3.808911e+03 -5.554663e+04 0.000000e+00 0.000000e+00 0.000000e+00 0.000000e+00
-9.193177e+04 2.593082e+04 0.000000e+00 2.593082e+04 -8.868248e+04 0.000000e+00 0.000000e+00 0.000000e+00 0.000000e+00
-9.787984e+04 2.581649e+04 0.000000e+00 2.581649e+04 -9.034652e+04 0.000000e+00 0.000000e+00 0.000000e+00 0.000000e+00
-1.059122e+05 2.373422e+04 0.000000e+00 2.373422e+04 -8.757545e+04 0.000000e+00 0.000000e+00 0.000000e+00 0.000000e+00
-1.128557e+05 2.186142e+04 0.000000e+00 2.186142e+04 -8.410685e+04 0.000000e+00 0.000000e+00 0.000000e+00 0.000000e+00
-1.175502e+05 1.937299e+04 0.000000e+00 1.937299e+04 -8.022157e+04 0.000000e+00 0.000000e+00 0.000000e+00 0.000000e+00
-1.200326e+05 1.584655e+04 0.000000e+00 1.584655e+04 -7.562886e+04 0.000000e+00 0.000000e+00 0.000000e+00 0.000000e+00
-1.199398e+05 1.104699e+04 0.000000e+00 1.104699e+04 -7.074537e+04 0.000000e+00 0.000000e+00 0.000000e+00 0.000000e+00
-1.153937e+05 5.002499e+03 0.000000e+00 5.002499e+03 -6.605130e+04 0.000000e+00 0.000000e+00 0.000000e+00 0.000000e+00
-1.054197e+05 -1.055243e+03 0.000000e+00 -1.055243e+03 -6.246871e+04 0.000000e+00 0.000000e+00 0.000000e+00 0.000000e+00
-8.745670e+04 -3.987729e+03 0.000000e+00 -3.987729e+03 -6.029245e+04 0.000000e+00 0.000000e+00 0.000000e+00 0.000000e+00
-6.764177e+04 -3.889564e+03 0.000000e+00 -3.889564e+03 -5.668963e+04 0.000000e+00 0.000000e+00 0.000000e+00 0.000000e+00
-8.423166e+04 2.330597e+04 0.000000e+00 2.330597e+04 -7.972138e+04 0.000000e+00 0.000000e+00 0.000000e+00 0.000000e+00
-9.501470e+04 2.335869e+04 0.000000e+00 2.335869e+04 -8.245659e+04 0.000000e+00 0.000000e+00 0.000000e+00 0.000000e+00
-1.040489e+05 2.069263e+04 0.000000e+00 2.069263e+04 -7.935791e+04 0.000000e+00 0.000000e+00 0.000000e+00 0.000000e+00
-1.103033e+05 1.820372e+04 0.000000e+00 1.820372e+04 -7.635938e+04 0.000000e+00 0.000000e+00 0.000000e+00 0.000000e+00
-1.139650e+05 1.491876e+04 0.000000e+00 1.491876e+04 -7.285833e+04 0.000000e+00 0.000000e+00 0.000000e+00 0.000000e+00
-1.154534e+05 1.094217e+04 0.000000e+00 1.094217e+04 -6.907758e+04 0.000000e+00 0.000000e+00 0.000000e+00 0.000000e+00
-1.141128e+05 6.133212e+03 0.000000e+00 6.133212e+03 -6.539927e+04 0.000000e+00 0.000000e+00 0.000000e+00 0.000000e+00
-1.090714e+05 9.743761e+02 0.000000e+00 9.743761e+02 -6.231694e+04 0.000000e+00 0.000000e+00 0.000000e+00 0.000000e+00
-1.006601e+05 -3.140355e+03 0.000000e+00 -3.140355e+03 -6.036275e+04 0.000000e+00 0.000000e+00 0.000000e+00 0.000000e+00
-8.789180e+04 -4.176790e+03 0.000000e+00 -4.176790e+03 -5.955767e+04 0.000000e+00 0.000000e+00 0.000000e+00 0.000000e+00
-7.538917e+04 -3.379510e+03 0.000000e+00 -3.379510e+03 -5.741359e+04 0.000000e+00 0.000000e+00 0.000000e+00 0.000000e+00
-7.901381e+04 2.131327e+04 0.000000e+00 2.131327e+04 -7.364488e+04 0.000000e+00 0.000000e+00 0.000000e+00 0.000000e+00
-9.190453e+04 2.107020e+04 0.000000e+00 2.107020e+04 -7.638469e+04 0.000000e+00 0.000000e+00 0.000000e+00 0.000000e+00
-1.013798e+05 1.792732e+04 0.000000e+00 1.792732e+04 -7.344025e+04 0.000000e+00 0.000000e+00 0.000000e+00 0.000000e+00
-1.069351e+05 1.476710e+04 0.000000e+00 1.476710e+04 -7.068432e+04 0.000000e+00 0.000000e+00 0.000000e+00 0.000000e+00
-1.099123e+05 1.120691e+04 0.000000e+00 1.120691e+04 -6.780066e+04 0.000000e+00 0.000000e+00 0.000000e+00 0.000000e+00
-1.106949e+05 7.160689e+03 0.000000e+00 7.160689e+03 -6.487594e+04 0.000000e+00 0.000000e+00 0.000000e+00 0.000000e+00
-1.087639e+05 2.746399e+03 0.000000e+00 2.746399e+03 -6.227417e+04 0.000000e+00 0.000000e+00 0.000000e+00 0.000000e+00
-1.044208e+05 -1.276324e+03 0.000000e+00 -1.276324e+03 -6.038739e+04 0.000000e+00 0.000000e+00 0.000000e+00 0.000000e+00
-9.803262e+04 -3.863766e+03 0.000000e+00 -3.863766e+03 -5.946197e+04 0.000000e+00 0.000000e+00 0.000000e+00 0.000000e+00
-8.955537e+04 -3.790432e+03 0.000000e+00 -3.790432e+03 -5.936659e+04 0.000000e+00 0.000000e+00 0.000000e+00 0.000000e+00
-8.204689e+04 -2.662597e+03 0.000000e+00 -2.662597e+03 -5.810094e+04 0.000000e+00 0.000000e+00 0.000000e+00 0.000000e+00
-7.529185e+04 1.928777e+04 0.000000e+00 1.928777e+04 -6.913485e+04 0.000000e+00 0.000000e+00 0.000000e+00 0.000000e+00
-8.861288e+04 1.876547e+04 0.000000e+00 1.876547e+04 -7.161941e+04 0.000000e+00 0.000000e+00 0.000000e+00 0.000000e+00
-9.799002e+04 1.532535e+04 0.000000e+00 1.532535e+04 -6.886073e+04 0.000000e+00 0.000000e+00 0.000000e+00 0.000000e+00
-1.031184e+05 1.189570e+04 0.000000e+00 1.189570e+04 -6.651998e+04 0.000000e+00 0.000000e+00 0.000000e+00 0.000000e+00
-1.057514e+05 8.282875e+03 0.000000e+00 8.282875e+03 -6.430686e+04 0.000000e+00 0.000000e+00 0.000000e+00 0.000000e+00
-1.061475e+05 4.404544e+03 0.000000e+00 4.404544e+03 -6.215077e+04 0.000000e+00 0.000000e+00 0.000000e+00 0.000000e+00
-1.044532e+05 6.545114e+02 0.000000e+00 6.545114e+02 -6.043158e+04 0.000000e+00 0.000000e+00 0.000000e+00 0.000000e+00
-1.012226e+05 -2.336516e+03 0.000000e+00 -2.336516e+03 -5.937830e+04 0.000000e+00 0.000000e+00 0.000000e+00 0.000000e+00
-9.678760e+04 -3.865338e+03 0.000000e+00 -3.865338e+03 -5.910161e+04 0.000000e+00 0.000000e+00 0.000000e+00 0.000000e+00
-9.166223e+04 -3.212427e+03 0.000000e+00 -3.212427e+03 -5.936371e+04 0.000000e+00 0.000000e+00 0.000000e+00 0.000000e+00
-8.753973e+04 -1.976163e+03 0.000000e+00 -1.976163e+03 -5.872870e+04 0.000000e+00 0.000000e+00 0.000000e+00 0.000000e+00
-7.240279e+04 1.724622e+04 0.000000e+00 1.724622e+04 -6.586779e+04 0.000000e+00 0.000000e+00 0.000000e+00 0.000000e+00
-8.506173e+04 1.654546e+04 0.000000e+00 1.654546e+04 -6.800927e+04 0.000000e+00 0.000000e+00 0.000000e+00 0.000000e+00
-9.434109e+04 1.298449e+04 0.000000e+00 1.298449e+04 -6.550308e+04 0.000000e+00 0.000000e+00 0.000000e+00 0.000000e+00
-9.933033e+04 9.589589e+03 0.000000e+00 9.589589e+03 -6.355234e+04 0.000000e+00 0.000000e+00 0.000000e+00 0.000000e+00
-1.017370e+05 6.086321e+03 0.000000e+00 6.086321e+03 -6.179202e+04 0.000000e+00 0.000000e+00 0.000000e+00 0.000000e+00
-1.021890e+05 2.593433e+03 0.000000e+00 2.593433e+03 -6.028536e+04 0.000000e+00 0.000000e+00 0.000000e+00 0.000000e+00
-1.010640e+05 -4.921947e+02 0.000000e+00 -4.921947e+02 -5.927396e+04 0.000000e+00 0.000000e+00 0.000000e+00 0.000000e+00
-9.901331e+04 -2.675423e+03 0.000000e+00 -2.675423e+03 -5.886071e+04 0.000000e+00 0.000000e+00 0.000000e+00 0.000000e+00
-9.642278e+04 -3.500300e+03 0.000000e+00 -3.500300e+03 -5.898388e+04 0.000000e+00 0.000000e+00 0.000000e+00 0.000000e+00
-9.380741e+04 -2.598352e+03 0.000000e+00 -2.598352e+03 -5.942795e+04 0.000000e+00 0.000000e+00 0.000000e+00 0.000000e+00
-9.186402e+04 -1.448035e+03 0.000000e+00 -1.448035e+03 -5.928749e+04 0.000000e+00 0.000000e+00 0.000000e+00 0.000000e+00
-6.976012e+04 1.507572e+04 0.000000e+00 1.507572e+04 -6.400408e+04 0.000000e+00 0.000000e+00 0.000000e+00 0.000000e+00
-8.147334e+04 1.428860e+04 0.000000e+00 1.428860e+04 -6.558678e+04 0.000000e+00 0.000000e+00 0.000000e+00 0.000000e+00
-9.073518e+04 1.091923e+04 0.000000e+00 1.091923e+04 -6.327753e+04 0.000000e+00 0.000000e+00 0.000000e+00 0.000000e+00
-9.566370e+04 7.686909e+03 0.000000e+00 7.686909e+03 -6.158323e+04 0.000000e+00 0.000000e+00 0.000000e+00 0.000000e+00
-9.808238e+04 4.480556e+03 0.000000e+00 4.480556e+03 -6.015041e+04 0.000000e+00 0.000000e+00 0.000000e+00 0.000000e+00
-9.880768e+04 1.466325e+03 0.000000e+00 1.466325e+03 -5.912209e+04 0.000000e+00 0.000000e+00 0.000000e+00 0.000000e+00
-9.842124e+04 -9.888376e+02 0.000000e+00 -9.888376e+02 -5.860529e+04 0.000000e+00 0.000000e+00 0.000000e+00 0.000000e+00
-9.756086e+04 -2.534258e+03 0.000000e+00 -2.534258e+03 -5.860616e+04 0.000000e+00 0.000000e+00 0.000000e+00 0.000000e+00
-9.652494e+04 -2.923578e+03 0.000000e+00 -2.923578e+03 -5.898100e+04 0.000000e+00 0.000000e+00 0.000000e+00 0.000000e+00
-9.573451e+04 -2.006128e+03 0.000000e+00 -2.006128e+03 -5.948987e+04 0.000000e+00 0.000000e+00 0.000000e+00 0.000000e+00
-9.530165e+04 -1.036710e+03 0.000000e+00 -1.036710e+03 -5.966856e+04 0.000000e+00 0.000000e+00 0.000000e+00 0.000000e+00
-6.781013e+04 1.271175e+04 0.000000e+00 1.271175e+04 -6.323307e+04 0.000000e+00 0.000000e+00 0.000000e+00 0.000000e+00
-7.827891e+04 1.190327e+04 0.000000e+00 1.190327e+04 -6.415596e+04 0.000000e+00 0.000000e+00 0.000000e+00 0.000000e+00
-8.734265e+04 8.995276e+03 0.000000e+00 8.995276e+03 -6.201658e+04 0.000000e+00 0.000000e+00 0.000000e+00 0.000000e+00
-9.228586e+04 6.090290e+03 0.000000e+00 6.090290e+03 -6.048789e+04 0.000000e+00 0.000000e+00 0.000000e+00 0.000000e+00
-9.484170e+04 3.265055e+03 0.000000e+00 3.265055e+03 -5.930154e+04 0.000000e+00 0.000000e+00 0.000000e+00 0.000000e+00
-9.599460e+04 7.839463e+02 0.000000e+00 7.839463e+02 -5.858073e+04 0.000000e+00 0.000000e+00 0.000000e+00 0.000000e+00
-9.644878e+04 -1.078169e+03 0.000000e+00 -1.078169e+03 -5.836443e+04 0.000000e+00 0.000000e+00 0.000000e+00 0.000000e+00
-9.664955e+04 -2.132141e+03 0.000000e+00 -2.132141e+03 -5.858455e+04 0.000000e+00 0.000000e+00 0.000000e+00 0.000000e+00
-9.685529e+04 -2.262079e+03 0.000000e+00 -2.262079e+03 -5.907057e+04 0.000000e+00 0.000000e+00 0.000000e+00 0.000000e+00
-9.730442e+04 -1.463246e+03 0.000000e+00 -1.463246e+03 -5.956706e+04 0.000000e+00 0.000000e+00 0.000000e+00 0.000000e+00
-9.787327e+04 -6.962314e+02 0.000000e+00 -6.962314e+02 -5.994224e+04 0.000000e+00 0.000000e+00 0.000000e+00 0.000000e+00
-6.682908e+04 1.018296e+04 0.000000e+00 1.018296e+04 -6.346204e+04 0.000000e+00 0.000000e+00 0.000000e+00 0.000000e+00
-7.582796e+04 9.410852e+03 0.000000e+00 9.410852e+03 -6.364793e+04 0.000000e+00 0.000000e+00 0.000000e+00 0.000000e+00
-8.443255e+04 7.079857e+03 0.000000e+00 7.079857e+03 -6.154154e+04 0.000000e+00 0.000000e+00 0.000000e+00 0.000000e+00
-8.932438e+04 4.618016e+03 0.000000e+00 4.618016e+03 -5.999109e+04 0.000000e+00 0.000000e+00 0.000000e+00 0.000000e+00
-9.212885e+04 2.310753e+03 0.000000e+00 2.310753e+03 -5.893275e+04 0.000000e+00 0.000000e+00 0.000000e+00 0.000000e+00
-9.384252e+04 4.000176e+02 0.000000e+00 4.000176e+02 -5.841427e+04 0.000000e+00 0.000000e+00 0.000000e+00 0.000000e+00
-9.504588e+04 -9.354444e+02 0.000000e+00 -9.354444e+02 -5.838030e+04 0.000000e+00 0.000000e+00 0.000000e+00 0.000000e+00
-9.611492e+04 -1.614888e+03 0.000000e+00 -1.614888e+03 -5.868904e+04 0.000000e+00 0.000000e+00 0.000000e+00 0.000000e+00
-9.722679e+04 -1.615327e+03 0.000000e+00 -1.615327e+03 -5.919071e+04 0.000000e+00 0.000000e+00 0.000000e+00 0.000000e+00
-9.849980e+04 -9.903071e+02 0.000000e+00 -9.903071e+02 -5.964565e+04 0.000000e+00 0.000000e+00 0.000000e+00 0.000000e+00
-9.969979e+04 -4.303127e+02 0.000000e+00 -4.303127e+02 -6.013435e+04 0.000000e+00 0.000000e+00 0.000000e+00 0.000000e+00
-6.615702e+04 7.153924e+03 0.000000e+00 7.153924e+03 -6.432217e+04 0.000000e+00 0.000000e+00 0.000000e+00 0.000000e+00
-7.392968e+04 6.555875e+03 0.000000e+00 6.555875e+03 -6.389773e+04 0.000000e+00 0.000000e+00 0.000000e+00 0.000000e+00
-8.204947e+04 4.913831e+03 0.000000e+00 4.913831e+03 -6.155793e+04 0.000000e+00 0.000000e+00 0.000000e+00 0.000000e+00
-8.701460e+04 3.117123e+03 0.000000e+00 3.117123e+03 -5.985350e+04 0.000000e+00 0.000000e+00 0.000000e+00 0.000000e+00
-9.009670e+04 1.488615e+03 0.000000e+00 1.488615e+03 -5.883799e+04 0.000000e+00 0.000000e+00 0.000000e+00 0.000000e+00
-9.230765e+04 1.932113e+02 0.000000e+00 1.932113e+02 -5.840508e+04 0.000000e+00 0.000000e+00 0.000000e+00 0.000000e+00
-9.413323e+04 -6.762373e+02 0.000000e+00 -6.762373e+02 -5.846488e+04 0.000000e+00 0.000000e+00 0.000000e+00 0.000000e+00
-9.582800e+04 -1.073777e+03 0.000000e+00 -1.073777e+03 -5.882851e+04 0.000000e+00 0.000000e+00 0.000000e+00 0.000000e+00
-9.755048e+04 -1.025275e+03 0.000000e+00 -1.025275e+03 -5.932082e+04 0.000000e+00 0.000000e+00 0.000000e+00 0.000000e+00
-9.933441e+04 -5.893265e+02 0.000000e+00 -5.893265e+02 -5.972469e+04 0.000000e+00 0.000000e+00 0.000000e+00 0.000000e+00
-1.008832e+05 -2.262265e+02 0.000000e+00 -2.262265e+02 -6.027107e+04 0.000000e+00 0.000000e+00 0.000000e+00 0.000000e+00
-6.577259e+04 3.640565e+03 0.000000e+00 3.640565e+03 -6.493148e+04 0.000000e+00 0.000000e+00 0.000000e+00 0.000000e+00
-7.281666e+04 3.337123e+03 0.000000e+00 3.337123e+03 -6.421328e+04 0.000000e+00 0.000000e+00 0.000000e+00 0.000000e+00
-8.049938e+04 2.492691e+03 0.000000e+00 2.492691e+03 -6.163404e+04 0.000000e+00 0.000000e+00 0.000000e+00 0.000000e+00
-8.553821e+04 1.553252e+03 0.000000e+00 1.553252e+03 -5.987051e+04 0.000000e+00 0.000000e+00 0.000000e+00 0.000000e+00
-8.885788e+04 7.281554e+02 0.000000e+00 7.281554e+02 -5.886536e+04 0.000000e+00 0.000000e+00 0.000000e+00 0.000000e+00
-9.137872e+04 7.781863e+01 0.000000e+00 7.781863e+01 -5.849234e+04 0.000000e+00 0.000000e+00 0.000000e+00 0.000000e+00
-9.361165e+04 -3.507389e+02 0.000000e+00 -3.507389e+02 -5.858699e+04 0.000000e+00 0.000000e+00 0.000000e+00 0.000000e+00
-9.570179e+04 -5.300807e+02 0.000000e+00 -5.300807e+02 -5.897247e+04 0.000000e+00 0.000000e+00 0.000000e+00 0.000000e+00
-9.777773e+04 -4.886578e+02 0.000000e+00 -4.886578e+02 -5.944139e+04 0.000000e+00 0.000000e+00 0.000000e+00 0.000000e+00
-9.980634e+04 -2.641707e+02 0.000000e+00 -2.641707e+02 -5.979974e+04 0.000000e+00 0.000000e+00 0.000000e+00 0.000000e+00
-1.014911e+05 -8.250728e+01 0.000000e+00 -8.250728e+01 -6.037049e+04 0.000000e+00 0.000000e+00 0.000000e+00 0.000000e+00
-6.554510e+04 1.005021e+03 0.000000e+00 1.005021e+03 -6.488698e+04 0.000000e+00 0.000000e+00 0.000000e+00 0.000000e+00
-7.238846e+04 9.655658e+02 0.000000e+00 9.655658e+02 -6.417622e+04 0.000000e+00 0.000000e+00 0.000000e+00 0.000000e+00
-7.996631e+04 6.908758e+02 0.000000e+00 6.908758e+02 -6.164317e+04 0.000000e+00 0.000000e+00 0.000000e+00 0.000000e+00
-8.504209e+04 3.347692e+02 0.000000e+00 3.347692e+02 -5.991832e+04 0.000000e+00 0.000000e+00 0.000000e+00 0.000000e+00
-8.846802e+04 3.124289e+01 0.000000e+00 3.124289e+01 -5.893255e+04 0.000000e+00 0.000000e+00 0.000000e+00 0.000000e+00
-9.109948e+04 -2.156184e+02 0.000000e+00 -2.156184e+02 -5.858748e+04 0.000000e+00 0.000000e+00 0.000000e+00 0.000000e+00
-9.346700e+04 -3.796270e+02 0.000000e+00 -3.796270e+02 -5.869216e+04 0.000000e+00 0.000000e+00 0.000000e+00 0.000000e+00
-9.570081e+04 -4.431624e+02 0.000000e+00 -4.431624e+02 -5.907502e+04 0.000000e+00 0.000000e+00 0.000000e+00 0.000000e+00
-9.788714e+04 -4.187390e+02 0.000000e+00 -4.187390e+02 -5.952793e+04 0.000000e+00 0.000000e+00 0.000000e+00 0.000000e+00
-9.997761e+04 -3.119444e+02 0.000000e+00 -3.119444e+02 -5.985356e+04 0.000000e+00 0.000000e+00 0.000000e+00 0.000000e+00
-1.016864e+05 -2.300894e+02 0.000000e+00 -2.300894e+02 -6.042083e+04 0.000000e+00 0.000000e+00 0.000000e+00 0.000000e+00
</DataArray>
<DataArray Name="vol_eps" type="Float64" NumberOfComponents="1" format="ascii">
-1.335318e-02
-1.131586e-02
-9.300395e-03
-8.277679e-03
-7.805575e-03
-8.389229e-03
-9.970353e-03
-1.241579e-02
-1.552243e-02
-1.924131e-02
-1.960875e-02
-1.295337e-02
-1.057481e-02
-9.227981e-03
-8.773002e-03
-8.528523e-03
-8.561953e-03
-9.151113e-03
-1.069177e-02
-1.291816e-02
-1.579077e-02
-2.148189e-02
-1.087694e-02
-8.323691e-03
-7.652922e-03
-7.745627e-03
-7.850267e-03
-8.081870e-03
-8.611529e-03
-9.711487e-03
-1.018430e-02
-1.061600e-02
-1.506040e-02
-6.967010e-03
-5.453256e-03
-5.385686e-03
-5.656774e-03
-5.354983e-03
-4.529600e-03
-3.066788e-03
-1.174246e-03
1.853105e-03
6.597144e-03
1.160614e-02
-5.044360e-03
-4.806038e-03
-5.654635e-03
-6.210954e-03
-6.379049e-03
-6.320097e-03
-6.066523e-03
-5.619184e-03
-4.707998e-03
-2.889767e-03
6.074221e-04
-3.453790e-03
-3.903552e-03
-4.920404e-03
-5.315316e-03
-5.415190e-03
-5.305029e-03
-4.990638e-03
-4.460032e-03
-3.646913e-03
-2.031348e-03
3.882406e-04
-2.142899e-03
-3.236086e-03
-4.244353e-03
-4.594272e-03
-4.647660e-03
-4.451571e-03
-4.098573e-03
-3.608157e-03
-2.941257e-03
-1.756747e-03
-2.352080e-04
-1.248146e-03
-2.744508e-03
-3.708617e-03
-3.984368e-03
-3.955276e-03
-3.759377e-03
-3.453386e-03
-3.043933e-03
-2.537507e-03
-1.750498e-03
-7.925894e-04
-7.773807e-04
-2.360249e-03
-3.233165e-03
-3.429445e-03
-3.394471e-03
-3.244432e-03
-2.999881e-03
-2.690314e-03
-2.341209e-03
-1.856781e-03
-1.280534e-03
-5.927158e-04
-2.045960e-03
-2.772797e-03
-2.947505e-03
-2.956932e-03
-2.861091e-03
-2.687705e-03
-2.476736e-03
-2.261959e-03
-1.999710e-03
-1.690138e-03
-5.349611e-04
-1.777845e-03
-2.376764e-03
-2.565238e-03
-2.612959e-03
-2.567340e-03
-2.454325e-03
-2.340627e-03
-2.244577e-03
-2.136257e-03
-2.001599e-03
-5.310691e-04
-1.551804e-03
-2.069882e-03
-2.274323e-03
-2.348990e-03
-2.335340e-03
-2.283023e-03
-2.258135e-03
-2.252675e-03
-2.248934e-03
-2.231452e-03
-5.454654e-04
-1.364351e-03
-1.839739e-03
-2.048591e-03
-2.130996e-03
-2.154651e-03
-2.171469e-03
-2.213781e-03
-2.274123e-03
-2.337058e-03
-2.395308e-03
-5.787319e-04
-1.215936e-03
-1.652775e-03
-1.860005e-03
-1.959237e-03
-2.027246e-03
-2.100365e-03
-2.192773e-03
-2.298845e-03
-2.402477e-03
-2.507048e-03
-6.380843e-04
-1.126551e-03
-1.504265e-03
-1.714164e-03
-1.839205e-03
-1.942583e-03
-2.056960e-03
-2.185792e-03
-2.322638e-03
-2.447828e-03
-2.576701e-03
-6.777829e-04
-1.081948e-03
-1.408660e-03
-1.623899e-03
-1.771264e-03
-1.897376e-03
-2.037086e-03
-2.188098e-03
-2.341871e-03
-2.475607e-03
-2.612728e-03
-6.662836e-04
-1.054423e-03
-1.374300e-03
-1.596976e-03
-1.755190e-03
-1.890772e-03
-2.038250e-03
-2.197041e-03
-2.355181e-03
-2.489015e-03
-2.626170e-03
</DataArray>
</PointData>
</Piece>
</UnstructuredGrid>
</VTKFile>
