<?xml version="1.0"?>
<VTKFile type="UnstructuredGrid" version="0.1">
<UnstructuredGrid>
<FieldData>
<DataArray Name="TIME" type="Float64" format="ascii" NumberOfTuples="1">
0.000000e+00
</DataArray>
</FieldData>
<FieldData>
<DataArray Name="CYCLE" type="Int32" format="ascii" NumberOfTuples="1">
0
</DataArray>
</FieldData>
<Piece NumberOfPoints="187" NumberOfCells="160">
<Points>
<DataArray NumberOfComponents="3" type="Float64" format="ascii">
0.000000e+00 0.000000e+00 0.000000e+00
0.000000e+00 1.972587e-01 0.000000e+00
0.000000e+00 3.934664e-01 0.000000e+00
0.000000e+00 5.882380e-01 0.000000e+00
0.000000e+00 7.813151e-01 0.000000e+00
0.000000e+00 9.736930e-01 0.000000e+00
0.000000e+00 1.165852e+00 0.000000e+00
0.000000e+00 1.358293e+00 0.000000e+00
0.000000e+00 1.552448e+00 0.000000e+00
0.000000e+00 1.748535e+00 0.000000e+00
0.000000e+00 1.944875e+00 0.000000e+00
2.250000e-01 0.000000e+00 0.000000e+00
2.263439e-01 1.973021e-01 0.000000e+00
2.280373e-01 3.935553e-01 0.000000e+00
2.300977e-01 5.887646e-01 0.000000e+00
2.315178e-01 7.828619e-01 0.000000e+00
2.320012e-01 9.761164e-01 0.000000e+00
2.317828e-01 1.168933e+00 0.000000e+00
2.304570e-01 1.361733e+00 0.000000e+00
2.278533e-01 1.554811e+00 0.000000e+00
2.254741e-01 1.748708e+00 0.000000e+00
2.250000e-01 1.944875e+00 0.000000e+00
4.500000e-01 0.000000e+00 0.000000e+00
4.528498e-01 1.976658e-01 0.000000e+00
4.557603e-01 3.945573e-01 0.000000e+00
4.584466e-01 5.909707e-01 0.000000e+00
4.605126e-01 7.870707e-01 0.000000e+00
4.618168e-01 9.826228e-01 0.000000e+00
4.621904e-01 1.177356e+00 0.000000e+00
4.615348e-01 1.371007e+00 0.000000e+00
4.595722e-01 1.563053e+00 0.000000e+00
4.561550e-01 1.754010e+00 0.000000e+00
4.500000e-01 1.944875e+00 0.000000e+00
6.750000e-01 0.000000e+00 0.000000e+00
6.789602e-01 1.986165e-01 0.000000e+00
6.823432e-01 3.970532e-01 0.000000e+00
6.850907e-01 5.955955e-01 0.000000e+00
6.872560e-01 7.943262e-01 0.000000e+00
6.888634e-01 9.932639e-01 0.000000e+00
6.897579e-01 1.192490e+00 0.000000e+00
6.899459e-01 1.392027e+00 0.000000e+00
6.889979e-01 1.592004e+00 0.000000e+00
6.862639e-01 1.792278e+00 0.000000e+00
6.808906e-01 1.992573e+00 0.000000e+00
9.000000e-01 0.000000e+00 0.000000e+00
9.043072e-01 1.989758e-01 0.000000e+00
9.074218e-01 3.980373e-01 0.000000e+00
9.098306e-01 5.973054e-01 0.000000e+00
9.116834e-01 7.967898e-01 0.000000e+00
9.130054e-01 9.965228e-01 0.000000e+00
9.136434e-01 1.196489e+00 0.000000e+00
9.135163e-01 1.396737e+00 0.000000e+00
9.123525e-01 1.597236e+00 0.000000e+00
9.098387e-01 1.797769e+00 0.000000e+00
9.062644e-01 1.997792e+00 0.000000e+00
1.125000e+00 0.000000e+00 0.000000e+00
1.129300e+00 1.993857e-01 0.000000e+00
1.132015e+00 3.988981e-01 0.000000e+00
1.134109e+00 5.986122e-01 0.000000e+00
1.135682e+00 7.985232e-01 0.000000e+00
1.136741e+00 9.986341e-01 0.000000e+00
1.137162e+00 1.198976e+00 0.000000e+00
1.136881e+00 1.399531e+00 0.000000e+00
1.135768e+00 1.600183e+00 0.000000e+00
1.133883e+00 1.800664e+00 0.000000e+00
1.131734e+00 2.000750e+00 0.000000e+00
1.350000e+00 0.000000e+00 0.000000e+00
1.353969e+00 1.996826e-01 0.000000e+00
1.356354e+00 3.994951e-01 0.000000e+00
1.358155e+00 5.994759e-01 0.000000e+00
1.359486e+00 7.996395e-01 0.000000e+00
1.360337e+00 1.000005e+00 0.000000e+00
1.360619e+00 1.200547e+00 0.000000e+00
1.360302e+00 1.401206e+00 0.000000e+00
1.359421e+00 1.601843e+00 0.000000e+00
1.358156e+00 1.802276e+00 0.000000e+00
1.356904e+00 2.002392e+00 0.000000e+00
1.575000e+00 0.000000e+00 0.000000e+00
1.578472e+00 1.998544e-01 0.000000e+00
1.580549e+00 3.998525e-01 0.000000e+00
1.582096e+00 6.000200e-01 0.000000e+00
1.583230e+00 8.003535e-01 0.000000e+00
1.583915e+00 1.000848e+00 0.000000e+00
1.584120e+00 1.201468e+00 0.000000e+00
1.583873e+00 1.402126e+00 0.000000e+00
1.583276e+00 1.602713e+00 0.000000e+00
1.582503e+00 1.803108e+00 0.000000e+00
1.581832e+00 2.003268e+00 0.000000e+00
1.800000e+00 0.000000e+00 0.000000e+00
1.802904e+00 1.999446e-01 0.000000e+00
1.804688e+00 4.000691e-01 0.000000e+00
1.806024e+00 6.003397e-01 0.000000e+00
1.806981e+00 8.007569e-01 0.000000e+00
1.807544e+00 1.001300e+00 0.000000e+00
1.807730e+00 1.201918e+00 0.000000e+00
1.807602e+00 1.402536e+00 0.000000e+00
1.807258e+00 1.603072e+00 0.000000e+00
1.806847e+00 1.803450e+00 0.000000e+00
1.806553e+00 2.003657e+00 0.000000e+00
2.025000e+00 0.000000e+00 0.000000e+00
2.027331e+00 1.999931e-01 0.000000e+00
2.028842e+00 4.001731e-01 0.000000e+00
2.029984e+00 6.004859e-01 0.000000e+00
2.030789e+00 8.009270e-01 0.000000e+00
2.031270e+00 1.001463e+00 0.000000e+00
2.031471e+00 1.202044e+00 0.000000e+00
2.031457e+00 1.402614e+00 0.000000e+00
2.031310e+00 1.603108e+00 0.000000e+00
2.031151e+00 1.803485e+00 0.000000e+00
2.031098e+00 2.003744e+00 0.000000e+00
2.250000e+00 0.000000e+00 0.000000e+00
2.251798e+00 2.000058e-01 0.000000e+00
2.253052e+00 4.001938e-01 0.000000e+00
2.254012e+00 6.005084e-01 0.000000e+00
2.254686e+00 8.009333e-01 0.000000e+00
2.255113e+00 1.001434e+00 0.000000e+00
2.255335e+00 1.201967e+00 0.000000e+00
2.255407e+00 1.402489e+00 0.000000e+00
2.255399e+00 1.602954e+00 0.000000e+00
2.255400e+00 1.803337e+00 0.000000e+00
2.255492e+00 2.003644e+00 0.000000e+00
2.475000e+00 0.000000e+00 0.000000e+00
2.476333e+00 2.000000e-01 0.000000e+00
2.477342e+00 4.001667e-01 0.000000e+00
2.478128e+00 6.004522e-01 0.000000e+00
2.478692e+00 8.008381e-01 0.000000e+00
2.479070e+00 1.001292e+00 0.000000e+00
2.479300e+00 1.201777e+00 0.000000e+00
2.479424e+00 1.402258e+00 0.000000e+00
2.479501e+00 1.602702e+00 0.000000e+00
2.479596e+00 1.803096e+00 0.000000e+00
2.479761e+00 2.003448e+00 0.000000e+00
2.700000e+00 0.000000e+00 0.000000e+00
2.700952e+00 1.999868e-01 0.000000e+00
2.701729e+00 4.001138e-01 0.000000e+00
2.702346e+00 6.003578e-01 0.000000e+00
2.702803e+00 8.006970e-01 0.000000e+00
2.703127e+00 1.001103e+00 0.000000e+00
2.703343e+00 1.201545e+00 0.000000e+00
2.703490e+00 1.401991e+00 0.000000e+00
2.703607e+00 1.602420e+00 0.000000e+00
2.703740e+00 1.802827e+00 0.000000e+00
2.703925e+00 2.003220e+00 0.000000e+00
2.925000e+00 0.000000e+00 0.000000e+00
2.925650e+00 1.999649e-01 0.000000e+00
2.926208e+00 4.000557e-01 0.000000e+00
2.926664e+00 6.002602e-01 0.000000e+00
2.927013e+00 8.005554e-01 0.000000e+00
2.927268e+00 1.000917e+00 0.000000e+00
2.927451e+00 1.201320e+00 0.000000e+00
2.927589e+00 1.401739e+00 0.000000e+00
2.927710e+00 1.602159e+00 0.000000e+00
2.927842e+00 1.802577e+00 0.000000e+00
2.928008e+00 2.003004e+00 0.000000e+00
3.150000e+00 0.000000e+00 0.000000e+00
3.150405e+00 1.999477e-01 0.000000e+00
3.150761e+00 4.000086e-01 0.000000e+00
3.151062e+00 6.001800e-01 0.000000e+00
3.151299e+00 8.004424e-01 0.000000e+00
3.151475e+00 1.000770e+00 0.000000e+00
3.151606e+00 1.201142e+00 0.000000e+00
3.151712e+00 1.401541e+00 0.000000e+00
3.151809e+00 1.601955e+00 0.000000e+00
3.151911e+00 1.802382e+00 0.000000e+00
3.152034e+00 2.002831e+00 0.000000e+00
3.375000e+00 0.000000e+00 0.000000e+00
3.375196e+00 1.999377e-01 0.000000e+00
3.375368e+00 3.999846e-01 0.000000e+00
3.375516e+00 6.001345e-01 0.000000e+00
3.375637e+00 8.003754e-01 0.000000e+00
3.375727e+00 1.000683e+00 0.000000e+00
3.375795e+00 1.201036e+00 0.000000e+00
3.375851e+00 1.401421e+00 0.000000e+00
3.375904e+00 1.601830e+00 0.000000e+00
3.375960e+00 1.802262e+00 0.000000e+00
3.376024e+00 2.002723e+00 0.000000e+00
3.600000e+00 0.000000e+00 0.000000e+00
3.600000e+00 1.999474e-01 0.000000e+00
3.600000e+00 3.999918e-01 0.000000e+00
3.600000e+00 6.001344e-01 0.000000e+00
3.600000e+00 8.003670e-01 0.000000e+00
3.600000e+00 1.000666e+00 0.000000e+00
3.600000e+00 1.201013e+00 0.000000e+00
3.600000e+00 1.401392e+00 0.000000e+00
3.600000e+00 1.601797e+00 0.000000e+00
3.600000e+00 1.802227e+00 0.000000e+00
3.600000e+00 2.002691e+00 0.000000e+00
</DataArray>
</Points>
<Cells>
<DataArray Name="connectivity" type="Int32" format="ascii">
0 11 12 1
1 12 13 2
2 13 14 3
3 14 15 4
4 15 16 5
5 16 17 6
6 17 18 7
7 18 19 8
8 19 20 9
9 20 21 10
11 22 23 12
12 23 24 13
13 24 25 14
14 25 26 15
15 26 27 16
16 27 28 17
17 28 29 18
18 29 30 19
19 30 31 20
20 31 32 21
22 33 34 23
23 34 35 24
24 35 36 25
25 36 37 26
26 37 38 27
27 38 39 28
28 39 40 29
29 40 41 30
30 41 42 31
31 42 43 32
33 44 45 34
34 45 46 35
35 46 47 36
36 47 48 37
37 48 49 38
38 49 50 39
39 50 51 40
40 51 52 41
41 52 53 42
42 53 54 43
44 55 56 45
45 56 57 46
46 57 58 47
47 58 59 48
48 59 60 49
49 60 61 50
50 61 62 51
51 62 63 52
52 63 64 53
53 64 65 54
55 66 67 56
56 67 68 57
57 68 69 58
58 69 70 59
59 70 71 60
60 71 72 61
61 72 73 62
62 73 74 63
63 74 75 64
64 75 76 65
66 77 78 67
67 78 79 68
68 79 80 69
69 80 81 70
70 81 82 71
71 82 83 72
72 83 84 73
73 84 85 74
74 85 86 75
75 86 87 76
77 88 89 78
78 89 90 79
79 90 91 80
80 91 92 81
81 92 93 82
82 93 94 83
83 94 95 84
84 95 96 85
85 96 97 86
86 97 98 87
88 99 100 89
89 100 101 90
90 101 102 91
91 102 103 92
92 103 104 93
93 104 105 94
94 105 106 95
95 106 107 96
96 107 108 97
97 108 109 98
99 110 111 100
100 111 112 101
101 112 113 102
102 113 114 103
103 114 115 104
104 115 116 105
105 116 117 106
106 117 118 107
107 118 119 108
108 119 120 109
110 121 122 111
111 122 123 112
112 123 124 113
113 124 125 114
114 125 126 115
115 126 127 116
116 127 128 117
117 128 129 118
118 129 130 119
119 130 131 120
121 132 133 122
122 133 134 123
123 134 135 124
124 135 136 125
125 136 137 126
126 137 138 127
127 138 139 128
128 139 140 129
129 140 141 130
130 141 142 131
132 143 144 133
133 144 145 134
134 145 146 135
135 146 147 136
136 147 148 137
137 148 149 138
138 149 150 139
139 150 151 140
140 151 152 141
141 152 153 142
143 154 155 144
144 155 156 145
145 156 157 146
146 157 158 147
147 158 159 148
148 159 160 149
149 160 161 150
150 161 162 151
151 162 163 152
152 163 164 153
154 165 166 155
155 166 167 156
156 167 168 157
157 168 169 158
158 169 170 159
159 170 171 160
160 171 172 161
161 172 173 162
162 173 174 163
163 174 175 164
165 176 177 166
166 177 178 167
167 178 179 168
168 179 180 169
169 180 181 170
170 181 182 171
171 182 183 172
172 183 184 173
173 184 185 174
174 185 186 175
</DataArray>
<DataArray Name="offsets" type="Int32" format="ascii">
4
8
12
16
20
24
28
32
36
40
44
48
52
56
60
64
68
72
76
80
84
88
92
96
100
104
108
112
116
120
124
128
132
136
140
144
148
152
156
160
164
168
172
176
180
184
188
192
196
200
204
208
212
216
220
224
228
232
236
240
244
248
252
256
260
264
268
272
276
280
284
288
292
296
300
304
308
312
316
320
324
328
332
336
340
344
348
352
356
360
364
368
372
376
380
384
388
392
396
400
404
408
412
416
420
424
428
432
436
440
444
448
452
456
460
464
468
472
476
480
484
488
492
496
500
504
508
512
516
520
524
528
532
536
540
544
548
552
556
560
564
568
572
576
580
584
588
592
596
600
604
608
612
616
620
624
628
632
636
640
</DataArray>
<DataArray Name="types" type="UInt8" format="ascii">
9
9
9
9
9
9
9
9
9
9
9
9
9
9
9
9
9
9
9
9
9
9
9
9
9
9
9
9
9
9
9
9
9
9
9
9
9
9
9
9
9
9
9
9
9
9
9
9
9
9
9
9
9
9
9
9
9
9
9
9
9
9
9
9
9
9
9
9
9
9
9
9
9
9
9
9
9
9
9
9
9
9
9
9
9
9
9
9
9
9
9
9
9
9
9
9
9
9
9
9
9
9
9
9
9
9
9
9
9
9
9
9
9
9
9
9
9
9
9
9
9
9
9
9
9
9
9
9
9
9
9
9
9
9
9
9
9
9
9
9
9
9
9
9
9
9
9
9
9
9
9
9
9
9
9
9
9
9
9
9
</DataArray>
</Cells>
<PointData>
<DataArray Name="disp" type="Float64" NumberOfComponents="3" format="ascii">
0.000000e+00 0.000000e+00 0.000000e+00
0.000000e+00 -2.741265e-03 0.000000e+00
0.000000e+00 -6.533610e-03 0.000000e+00
0.000000e+00 -1.176198e-02 0.000000e+00
0.000000e+00 -1.868492e-02 0.000000e+00
0.000000e+00 -2.630703e-02 0.000000e+00
0.000000e+00 -3.414780e-02 0.000000e+00
0.000000e+00 -4.170740e-02 0.000000e+00
0.000000e+00 -4.755244e-02 0.000000e+00
0.000000e+00 -5.146528e-02 0.000000e+00
0.000000e+00 -5.512500e-02 0.000000e+00
0.000000e+00 0.000000e+00 0.000000e+00
1.343871e-03 -2.697854e-03 0.000000e+00
3.037328e-03 -6.444643e-03 0.000000e+00
5.097673e-03 -1.123538e-02 0.000000e+00
6.517805e-03 -1.713805e-02 0.000000e+00
7.001192e-03 -2.388360e-02 0.000000e+00
6.782805e-03 -3.106750e-02 0.000000e+00
5.456994e-03 -3.826741e-02 0.000000e+00
2.853340e-03 -4.518919e-02 0.000000e+00
4.740529e-04 -5.129194e-02 0.000000e+00
0.000000e+00 -5.512500e-02 0.000000e+00
0.000000e+00 0.000000e+00 0.000000e+00
2.849774e-03 -2.334210e-03 0.000000e+00
5.760293e-03 -5.442689e-03 0.000000e+00
8.446607e-03 -9.029319e-03 0.000000e+00
1.051264e-02 -1.292929e-02 0.000000e+00
1.181684e-02 -1.737718e-02 0.000000e+00
1.219039e-02 -2.264363e-02 0.000000e+00
1.153481e-02 -2.899332e-02 0.000000e+00
9.572201e-03 -3.694752e-02 0.000000e+00
6.154980e-03 -4.599018e-02 0.000000e+00
0.000000e+00 -5.512500e-02 0.000000e+00
0.000000e+00 0.000000e+00 0.000000e+00
3.960227e-03 -1.383450e-03 0.000000e+00
7.343236e-03 -2.946757e-03 0.000000e+00
1.009068e-02 -4.404477e-03 0.000000e+00
1.225601e-02 -5.673764e-03 0.000000e+00
1.386337e-02 -6.736115e-03 0.000000e+00
1.475794e-02 -7.509583e-03 0.000000e+00
1.494589e-02 -7.972801e-03 0.000000e+00
1.399795e-02 -7.996297e-03 0.000000e+00
1.126388e-02 -7.722390e-03 0.000000e+00
5.890532e-03 -7.426740e-03 0.000000e+00
0.000000e+00 0.000000e+00 0.000000e+00
4.307191e-03 -1.024169e-03 0.000000e+00
7.421763e-03 -1.962756e-03 0.000000e+00
9.830576e-03 -2.694649e-03 0.000000e+00
1.168340e-02 -3.210226e-03 0.000000e+00
1.300538e-02 -3.477232e-03 0.000000e+00
1.364336e-02 -3.511267e-03 0.000000e+00
1.351628e-02 -3.262707e-03 0.000000e+00
1.235253e-02 -2.763959e-03 0.000000e+00
9.838703e-03 -2.231099e-03 0.000000e+00
6.264338e-03 -2.207895e-03 0.000000e+00
0.000000e+00 0.000000e+00 0.000000e+00
4.300122e-03 -6.142919e-04 0.000000e+00
7.014893e-03 -1.101913e-03 0.000000e+00
9.108878e-03 -1.387802e-03 0.000000e+00
1.068236e-02 -1.476784e-03 0.000000e+00
1.174087e-02 -1.365879e-03 0.000000e+00
1.216227e-02 -1.023820e-03 0.000000e+00
1.188134e-02 -4.685788e-04 0.000000e+00
1.076773e-02 1.829003e-04 0.000000e+00
8.882482e-03 6.635513e-04 0.000000e+00
6.734358e-03 7.501557e-04 0.000000e+00
0.000000e+00 0.000000e+00 0.000000e+00
3.969098e-03 -3.173647e-04 0.000000e+00
6.354482e-03 -5.048905e-04 0.000000e+00
8.154621e-03 -5.241127e-04 0.000000e+00
9.485720e-03 -3.605216e-04 0.000000e+00
1.033719e-02 4.534208e-06 0.000000e+00
1.061880e-02 5.471093e-04 0.000000e+00
1.030190e-02 1.205800e-03 0.000000e+00
9.420563e-03 1.843271e-03 0.000000e+00
8.156371e-03 2.275620e-03 0.000000e+00
6.904387e-03 2.391733e-03 0.000000e+00
0.000000e+00 0.000000e+00 0.000000e+00
3.471678e-03 -1.455498e-04 0.000000e+00
5.549479e-03 -1.475564e-04 0.000000e+00
7.096258e-03 2.000389e-05 0.000000e+00
8.230202e-03 3.535062e-04 0.000000e+00
8.914573e-03 8.480642e-04 0.000000e+00
9.119722e-03 1.468252e-03 0.000000e+00
8.872712e-03 2.126104e-03 0.000000e+00
8.276216e-03 2.713451e-03 0.000000e+00
7.503228e-03 3.107494e-03 0.000000e+00
6.831709e-03 3.268033e-03 0.000000e+00
0.000000e+00 0.000000e+00 0.000000e+00
2.904502e-03 -5.540244e-05 0.000000e+00
4.688251e-03 6.909179e-05 0.000000e+00
6.023807e-03 3.396915e-04 0.000000e+00
6.980717e-03 7.569063e-04 0.000000e+00
7.544443e-03 1.299863e-03 0.000000e+00
7.729732e-03 1.917505e-03 0.000000e+00
7.601699e-03 2.536088e-03 0.000000e+00
7.257971e-03 3.072118e-03 0.000000e+00
6.847169e-03 3.450107e-03 0.000000e+00
6.552748e-03 3.657427e-03 0.000000e+00
0.000000e+00 0.000000e+00 0.000000e+00
2.331118e-03 -6.864565e-06 0.000000e+00
3.842357e-03 1.730748e-04 0.000000e+00
4.983695e-03 4.858909e-04 0.000000e+00
5.788785e-03 9.269910e-04 0.000000e+00
6.269949e-03 1.463041e-03 0.000000e+00
6.471368e-03 2.044378e-03 0.000000e+00
6.457231e-03 2.613694e-03 0.000000e+00
6.310283e-03 3.108429e-03 0.000000e+00
6.150833e-03 3.485309e-03 0.000000e+00
6.097553e-03 3.744042e-03 0.000000e+00
0.000000e+00 0.000000e+00 0.000000e+00
1.798007e-03 5.851191e-06 0.000000e+00
3.052262e-03 1.937458e-04 0.000000e+00
4.011665e-03 5.083630e-04 0.000000e+00
4.686338e-03 9.333058e-04 0.000000e+00
5.112579e-03 1.433803e-03 0.000000e+00
5.334892e-03 1.967331e-03 0.000000e+00
5.406662e-03 2.488532e-03 0.000000e+00
5.398890e-03 2.953691e-03 0.000000e+00
5.400497e-03 3.337294e-03 0.000000e+00
5.491802e-03 3.644319e-03 0.000000e+00
0.000000e+00 0.000000e+00 0.000000e+00
1.333475e-03 2.718212e-08 0.000000e+00
2.341715e-03 1.666597e-04 0.000000e+00
3.127994e-03 4.521568e-04 0.000000e+00
3.691792e-03 8.381372e-04 0.000000e+00
4.069916e-03 1.291928e-03 0.000000e+00
4.299671e-03 1.777479e-03 0.000000e+00
4.424054e-03 2.257838e-03 0.000000e+00
4.501510e-03 2.701825e-03 0.000000e+00
4.595868e-03 3.096465e-03 0.000000e+00
4.760552e-03 3.448553e-03 0.000000e+00
0.000000e+00 0.000000e+00 0.000000e+00
9.516045e-04 -1.320059e-05 0.000000e+00
1.729277e-03 1.138049e-04 0.000000e+00
2.345737e-03 3.578153e-04 0.000000e+00
2.803472e-03 6.969504e-04 0.000000e+00
3.126833e-03 1.103035e-03 0.000000e+00
3.343399e-03 1.544539e-03 0.000000e+00
3.489750e-03 1.990757e-03 0.000000e+00
3.606957e-03 2.420104e-03 0.000000e+00
3.740322e-03 2.826815e-03 0.000000e+00
3.924941e-03 3.220345e-03 0.000000e+00
0.000000e+00 0.000000e+00 0.000000e+00
6.495810e-04 -3.512012e-05 0.000000e+00
1.207532e-03 5.574616e-05 0.000000e+00
1.663812e-03 2.602037e-04 0.000000e+00
2.012898e-03 5.553792e-04 0.000000e+00
2.267585e-03 9.167875e-04 0.000000e+00
2.450539e-03 1.319541e-03 0.000000e+00
2.589111e-03 1.739142e-03 0.000000e+00
2.710277e-03 2.159237e-03 0.000000e+00
2.841639e-03 2.577121e-03 0.000000e+00
3.007745e-03 3.003889e-03 0.000000e+00
0.000000e+00 0.000000e+00 0.000000e+00
4.049802e-04 -5.234988e-05 0.000000e+00
7.608511e-04 8.633352e-06 0.000000e+00
1.061997e-03 1.799497e-04 0.000000e+00
1.299517e-03 4.424094e-04 0.000000e+00
1.475405e-03 7.704071e-04 0.000000e+00
1.606419e-03 1.142149e-03 0.000000e+00
1.712033e-03 1.540900e-03 0.000000e+00
1.808608e-03 1.954966e-03 0.000000e+00
1.910935e-03 2.381874e-03 0.000000e+00
2.033574e-03 2.830497e-03 0.000000e+00
0.000000e+00 0.000000e+00 0.000000e+00
1.960366e-04 -6.229772e-05 0.000000e+00
3.678556e-04 -1.536523e-05 0.000000e+00
5.158334e-04 1.344806e-04 0.000000e+00
6.367085e-04 3.754112e-04 0.000000e+00
7.268858e-04 6.828662e-04 0.000000e+00
7.949853e-04 1.036277e-03 0.000000e+00
8.513606e-04 1.421187e-03 0.000000e+00
9.042766e-04 1.830057e-03 0.000000e+00
9.600181e-04 2.261551e-03 0.000000e+00
1.024505e-03 2.722463e-03 0.000000e+00
0.000000e+00 0.000000e+00 0.000000e+00
0.000000e+00 -5.264475e-05 0.000000e+00
0.000000e+00 -8.189892e-06 0.000000e+00
0.000000e+00 1.344269e-04 0.000000e+00
0.000000e+00 3.670132e-04 0.000000e+00
0.000000e+00 6.665001e-04 0.000000e+00
0.000000e+00 1.012871e-03 0.000000e+00
0.000000e+00 1.391473e-03 0.000000e+00
0.000000e+00 1.796733e-03 0.000000e+00
0.000000e+00 2.227469e-03 0.000000e+00
0.000000e+00 2.690930e-03 0.000000e+00
</DataArray>
<DataArray Name="shear" type="Float64" NumberOfComponents="1" format="ascii">
1.588537e-02
2.276854e-02
3.627410e-02
5.184332e-02
6.383227e-02
6.908961e-02
6.837902e-02
5.876442e-02
4.062523e-02
2.462908e-02
1.946772e-02
1.701577e-02
2.376585e-02
3.551523e-02
4.698088e-02
5.667620e-02
6.338920e-02
6.613445e-02
6.359751e-02
5.527651e-02
4.041786e-02
2.838159e-02
1.994743e-02
2.530854e-02
3.332004e-02
3.995183e-02
4.744694e-02
5.703060e-02
6.797525e-02
7.985634e-02
9.099015e-02
9.490144e-02
9.366510e-02
2.193998e-02
2.364192e-02
2.588843e-02
2.861275e-02
3.266311e-02
3.832587e-02
4.607462e-02
5.606975e-02
6.766208e-02
7.869380e-02
8.710090e-02
2.252775e-02
2.093300e-02
1.832232e-02
1.747993e-02
1.737286e-02
1.725652e-02
1.685628e-02
1.581444e-02
1.283198e-02
6.640542e-03
9.047894e-04
2.200494e-02
1.917010e-02
1.532935e-02
1.428293e-02
1.382814e-02
1.341100e-02
1.284728e-02
1.177236e-02
9.321063e-03
4.742424e-03
1.243568e-03
2.012141e-02
1.691704e-02
1.290034e-02
1.198312e-02
1.166425e-02
1.144566e-02
1.103682e-02
1.008706e-02
7.986057e-03
4.422124e-03
1.768163e-03
1.751904e-02
1.458653e-02
1.112364e-02
1.046962e-02
1.032402e-02
1.023912e-02
9.920701e-03
9.015894e-03
7.195176e-03
4.405606e-03
2.425513e-03
1.464519e-02
1.231692e-02
9.726021e-03
9.288681e-03
9.265157e-03
9.267163e-03
8.994215e-03
8.183938e-03
6.692575e-03
4.585064e-03
3.188410e-03
1.176828e-02
1.013080e-02
8.414102e-03
8.198643e-03
8.298768e-03
8.370756e-03
8.163240e-03
7.519959e-03
6.385283e-03
4.889837e-03
3.962577e-03
9.089358e-03
8.077099e-03
7.140598e-03
7.150992e-03
7.375275e-03
7.531443e-03
7.434208e-03
6.996483e-03
6.213921e-03
5.242231e-03
4.680138e-03
6.754319e-03
6.226353e-03
5.894233e-03
6.138490e-03
6.506621e-03
6.778041e-03
6.822295e-03
6.593070e-03
6.134309e-03
5.597401e-03
5.317946e-03
4.820193e-03
4.603195e-03
4.708746e-03
5.193273e-03
5.722001e-03
6.126089e-03
6.318464e-03
6.287462e-03
6.109695e-03
5.925613e-03
5.864533e-03
3.276329e-03
3.233638e-03
3.675521e-03
4.387042e-03
5.058216e-03
5.580946e-03
5.911050e-03
6.062348e-03
6.115267e-03
6.193975e-03
6.288536e-03
2.036758e-03
2.117748e-03
2.851155e-03
3.772060e-03
4.567890e-03
5.175329e-03
5.606372e-03
5.900778e-03
6.127506e-03
6.381964e-03
6.574064e-03
9.910261e-04
1.259961e-03
2.305231e-03
3.375739e-03
4.264815e-03
4.930743e-03
5.418668e-03
5.794921e-03
6.126961e-03
6.485410e-03
6.731719e-03
3.412942e-04
8.946017e-04
2.114876e-03
3.233310e-03
4.156168e-03
4.845554e-03
5.352616e-03
5.754444e-03
6.120780e-03
6.513936e-03
6.778114e-03
</DataArray>
<DataArray Name="stress" type="Float64" NumberOfComponents="9" format="ascii">
-1.135131e+05 5.051698e+03 0.000000e+00 5.051698e+03 -1.910649e+05 0.000000e+00 0.000000e+00 0.000000e+00 0.000000e+00
-1.002493e+05 4.008500e+03 0.000000e+00 4.008500e+03 -1.902445e+05 0.000000e+00 0.000000e+00 0.000000e+00 0.000000e+00
-9.452067e+04 3.046090e+03 0.000000e+00 3.046090e+03 -1.999723e+05 0.000000e+00 0.000000e+00 0.000000e+00 0.000000e+00
-1.036865e+05 2.279977e+03 0.000000e+00 2.279977e+03 -2.030515e+05 0.000000e+00 0.000000e+00 0.000000e+00 0.000000e+00
-1.112960e+05 4.320270e+03 0.000000e+00 4.320270e+03 -2.096287e+05 0.000000e+00 0.000000e+00 0.000000e+00 0.000000e+00
-1.150316e+05 7.457125e+03 0.000000e+00 7.457125e+03 -2.201080e+05 0.000000e+00 0.000000e+00 0.000000e+00 0.000000e+00
-1.226951e+05 1.031138e+04 0.000000e+00 1.031138e+04 -2.328334e+05 0.000000e+00 0.000000e+00 0.000000e+00 0.000000e+00
-1.288017e+05 9.766263e+03 0.000000e+00 9.766263e+03 -2.444790e+05 0.000000e+00 0.000000e+00 0.000000e+00 0.000000e+00
-1.272647e+05 5.143035e+03 0.000000e+00 5.143035e+03 -2.603205e+05 0.000000e+00 0.000000e+00 0.000000e+00 0.000000e+00
-1.423896e+05 -9.326176e+02 0.000000e+00 -9.326176e+02 -2.627443e+05 0.000000e+00 0.000000e+00 0.000000e+00 0.000000e+00
-1.495467e+05 -1.086590e+03 0.000000e+00 -1.086590e+03 -2.567375e+05 0.000000e+00 0.000000e+00 0.000000e+00 0.000000e+00
-1.130954e+05 1.475853e+04 0.000000e+00 1.475853e+04 -1.839948e+05 0.000000e+00 0.000000e+00 0.000000e+00 0.000000e+00
-9.986564e+04 1.246980e+04 0.000000e+00 1.246980e+04 -1.816640e+05 0.000000e+00 0.000000e+00 0.000000e+00 0.000000e+00
-9.507245e+04 1.101593e+04 0.000000e+00 1.101593e+04 -1.910945e+05 0.000000e+00 0.000000e+00 0.000000e+00 0.000000e+00
-1.023302e+05 1.114772e+04 0.000000e+00 1.114772e+04 -2.009227e+05 0.000000e+00 0.000000e+00 0.000000e+00 0.000000e+00
-1.100808e+05 1.209690e+04 0.000000e+00 1.209690e+04 -2.133429e+05 0.000000e+00 0.000000e+00 0.000000e+00 0.000000e+00
-1.156752e+05 1.379403e+04 0.000000e+00 1.379403e+04 -2.242164e+05 0.000000e+00 0.000000e+00 0.000000e+00 0.000000e+00
-1.215224e+05 1.453804e+04 0.000000e+00 1.453804e+04 -2.341440e+05 0.000000e+00 0.000000e+00 0.000000e+00 0.000000e+00
-1.286011e+05 1.178551e+04 0.000000e+00 1.178551e+04 -2.413558e+05 0.000000e+00 0.000000e+00 0.000000e+00 0.000000e+00
-1.303725e+05 7.025915e+03 0.000000e+00 7.025915e+03 -2.543563e+05 0.000000e+00 0.000000e+00 0.000000e+00 0.000000e+00
-1.365203e+05 -1.808662e+02 0.000000e+00 -1.808662e+02 -2.580091e+05 0.000000e+00 0.000000e+00 0.000000e+00 0.000000e+00
-1.534656e+05 -6.670159e+03 0.000000e+00 -6.670159e+03 -2.829497e+05 0.000000e+00 0.000000e+00 0.000000e+00 0.000000e+00
-1.095597e+05 2.544856e+04 0.000000e+00 2.544856e+04 -1.609906e+05 0.000000e+00 0.000000e+00 0.000000e+00 0.000000e+00
-9.836961e+04 2.243961e+04 0.000000e+00 2.243961e+04 -1.563529e+05 0.000000e+00 0.000000e+00 0.000000e+00 0.000000e+00
-9.721296e+04 2.218742e+04 0.000000e+00 2.218742e+04 -1.634472e+05 0.000000e+00 0.000000e+00 0.000000e+00 0.000000e+00
-1.040971e+05 2.495075e+04 0.000000e+00 2.495075e+04 -1.741366e+05 0.000000e+00 0.000000e+00 0.000000e+00 0.000000e+00
-1.124393e+05 2.724770e+04 0.000000e+00 2.724770e+04 -1.846500e+05 0.000000e+00 0.000000e+00 0.000000e+00 0.000000e+00
-1.202869e+05 2.953387e+04 0.000000e+00 2.953387e+04 -1.949227e+05 0.000000e+00 0.000000e+00 0.000000e+00 0.000000e+00
-1.294123e+05 3.069227e+04 0.000000e+00 3.069227e+04 -2.072143e+05 0.000000e+00 0.000000e+00 0.000000e+00 0.000000e+00
-1.422928e+05 3.239798e+04 0.000000e+00 3.239798e+04 -2.220809e+05 0.000000e+00 0.000000e+00 0.000000e+00 0.000000e+00
-1.519905e+05 3.062702e+04 0.000000e+00 3.062702e+04 -2.361429e+05 0.000000e+00 0.000000e+00 0.000000e+00 0.000000e+00
-1.597616e+05 2.457072e+04 0.000000e+00 2.457072e+04 -2.537354e+05 0.000000e+00 0.000000e+00 0.000000e+00 0.000000e+00
-1.749761e+05 7.568150e+03 0.000000e+00 7.568150e+03 -2.931619e+05 0.000000e+00 0.000000e+00 0.000000e+00 0.000000e+00
-1.003174e+05 2.726291e+04 0.000000e+00 2.726291e+04 -1.286261e+05 0.000000e+00 0.000000e+00 0.000000e+00 0.000000e+00
-9.305629e+04 2.529348e+04 0.000000e+00 2.529348e+04 -1.244170e+05 0.000000e+00 0.000000e+00 0.000000e+00 0.000000e+00
-9.432377e+04 2.597394e+04 0.000000e+00 2.597394e+04 -1.254942e+05 0.000000e+00 0.000000e+00 0.000000e+00 0.000000e+00
-1.005295e+05 2.806305e+04 0.000000e+00 2.806305e+04 -1.257396e+05 0.000000e+00 0.000000e+00 0.000000e+00 0.000000e+00
-1.063065e+05 2.903600e+04 0.000000e+00 2.903600e+04 -1.236359e+05 0.000000e+00 0.000000e+00 0.000000e+00 0.000000e+00
-1.101909e+05 3.004426e+04 0.000000e+00 3.004426e+04 -1.209449e+05 0.000000e+00 0.000000e+00 0.000000e+00 0.000000e+00
-1.116334e+05 2.932898e+04 0.000000e+00 2.932898e+04 -1.150873e+05 0.000000e+00 0.000000e+00 0.000000e+00 0.000000e+00
-1.107500e+05 2.761181e+04 0.000000e+00 2.761181e+04 -1.070336e+05 0.000000e+00 0.000000e+00 0.000000e+00 0.000000e+00
-1.058696e+05 2.303227e+04 0.000000e+00 2.303227e+04 -9.673938e+04 0.000000e+00 0.000000e+00 0.000000e+00 0.000000e+00
-8.698455e+04 1.451029e+04 0.000000e+00 1.451029e+04 -7.949271e+04 0.000000e+00 0.000000e+00 0.000000e+00 0.000000e+00
-6.373021e+04 9.021401e+03 0.000000e+00 9.021401e+03 -6.699774e+04 0.000000e+00 0.000000e+00 0.000000e+00 0.000000e+00
-9.634454e+04 2.669689e+04 0.000000e+00 2.669689e+04 -1.116493e+05 0.000000e+00 0.000000e+00 0.000000e+00 0.000000e+00
-9.351246e+04 2.585016e+04 0.000000e+00 2.585016e+04 -1.098440e+05 0.000000e+00 0.000000e+00 0.000000e+00 0.000000e+00
-9.776296e+04 2.633092e+04 0.000000e+00 2.633092e+04 -1.100994e+05 0.000000e+00 0.000000e+00 0.000000e+00 0.000000e+00
-1.049390e+05 2.709474e+04 0.000000e+00 2.709474e+04 -1.083610e+05 0.000000e+00 0.000000e+00 0.000000e+00 0.000000e+00
-1.112280e+05 2.718220e+04 0.000000e+00 2.718220e+04 -1.049146e+05 0.000000e+00 0.000000e+00 0.000000e+00 0.000000e+00
-1.159535e+05 2.633851e+04 0.000000e+00 2.633851e+04 -9.996645e+04 0.000000e+00 0.000000e+00 0.000000e+00 0.000000e+00
-1.185794e+05 2.423915e+04 0.000000e+00 2.423915e+04 -9.346118e+04 0.000000e+00 0.000000e+00 0.000000e+00 0.000000e+00
-1.189495e+05 2.042243e+04 0.000000e+00 2.042243e+04 -8.564113e+04 0.000000e+00 0.000000e+00 0.000000e+00 0.000000e+00
-1.142959e+05 1.383608e+04 0.000000e+00 1.383608e+04 -7.677568e+04 0.000000e+00 0.000000e+00 0.000000e+00 0.000000e+00
-9.499709e+04 4.902550e+03 0.000000e+00 4.902550e+03 -6.864276e+04 0.000000e+00 0.000000e+00 0.000000e+00 0.000000e+00
-6.141730e+04 1.390818e+02 0.000000e+00 1.390818e+02 -5.708660e+04 0.000000e+00 0.000000e+00 0.000000e+00 0.000000e+00
-9.040034e+04 2.528813e+04 0.000000e+00 2.528813e+04 -9.811123e+04 0.000000e+00 0.000000e+00 0.000000e+00 0.000000e+00
-9.228656e+04 2.494735e+04 0.000000e+00 2.494735e+04 -9.792425e+04 0.000000e+00 0.000000e+00 0.000000e+00 0.000000e+00
-9.819544e+04 2.443050e+04 0.000000e+00 2.443050e+04 -9.639077e+04 0.000000e+00 0.000000e+00 0.000000e+00 0.000000e+00
-1.051726e+05 2.380479e+04 0.000000e+00 2.380479e+04 -9.326855e+04 0.000000e+00 0.000000e+00 0.000000e+00 0.000000e+00
-1.106465e+05 2.252451e+04 0.000000e+00 2.252451e+04 -8.932692e+04 0.000000e+00 0.000000e+00 0.000000e+00 0.000000e+00
-1.141833e+05 2.026107e+04 0.000000e+00 2.026107e+04 -8.454864e+04 0.000000e+00 0.000000e+00 0.000000e+00 0.000000e+00
-1.151008e+05 1.675688e+04 0.000000e+00 1.675688e+04 -7.874252e+04 0.000000e+00 0.000000e+00 0.000000e+00 0.000000e+00
-1.132164e+05 1.174427e+04 0.000000e+00 1.174427e+04 -7.255379e+04 0.000000e+00 0.000000e+00 0.000000e+00 0.000000e+00
-1.059391e+05 5.052171e+03 0.000000e+00 5.052171e+03 -6.675458e+04 0.000000e+00 0.000000e+00 0.000000e+00 0.000000e+00
-8.656011e+04 -1.078531e+03 0.000000e+00 -1.078531e+03 -6.226566e+04 0.000000e+00 0.000000e+00 0.000000e+00 0.000000e+00
-6.098791e+04 -2.945633e+03 0.000000e+00 -2.945633e+03 -5.660826e+04 0.000000e+00 0.000000e+00 0.000000e+00 0.000000e+00
-8.424813e+04 2.347455e+04 0.000000e+00 2.347455e+04 -8.726138e+04 0.000000e+00 0.000000e+00 0.000000e+00 0.000000e+00
-9.057311e+04 2.321426e+04 0.000000e+00 2.321426e+04 -8.817978e+04 0.000000e+00 0.000000e+00 0.000000e+00 0.000000e+00
-9.758430e+04 2.163078e+04 0.000000e+00 2.163078e+04 -8.567552e+04 0.000000e+00 0.000000e+00 0.000000e+00 0.000000e+00
-1.039300e+05 2.013058e+04 0.000000e+00 2.013058e+04 -8.273925e+04 0.000000e+00 0.000000e+00 0.000000e+00 0.000000e+00
-1.082989e+05 1.786954e+04 0.000000e+00 1.786954e+04 -7.892593e+04 0.000000e+00 0.000000e+00 0.000000e+00 0.000000e+00
-1.106443e+05 1.468210e+04 0.000000e+00 1.468210e+04 -7.467945e+04 0.000000e+00 0.000000e+00 0.000000e+00 0.000000e+00
-1.104068e+05 1.063311e+04 0.000000e+00 1.063311e+04 -7.016827e+04 0.000000e+00 0.000000e+00 0.000000e+00 0.000000e+00
-1.070874e+05 5.657460e+03 0.000000e+00 5.657460e+03 -6.586741e+04 0.000000e+00 0.000000e+00 0.000000e+00 0.000000e+00
-9.892443e+04 2.583195e+02 0.000000e+00 2.583195e+02 -6.234525e+04 0.000000e+00 0.000000e+00 0.000000e+00 0.000000e+00
-8.354975e+04 -2.884458e+03 0.000000e+00 -2.884458e+03 -6.022627e+04 0.000000e+00 0.000000e+00 0.000000e+00 0.000000e+00
-6.696873e+04 -3.151510e+03 0.000000e+00 -3.151510e+03 -5.741837e+04 0.000000e+00 0.000000e+00 0.000000e+00 0.000000e+00
-7.941207e+04 2.150809e+04 0.000000e+00 2.150809e+04 -7.905202e+04 0.000000e+00 0.000000e+00 0.000000e+00 0.000000e+00
-8.818586e+04 2.107816e+04 0.000000e+00 2.107816e+04 -8.046111e+04 0.000000e+00 0.000000e+00 0.000000e+00 0.000000e+00
-9.592076e+04 1.883819e+04 0.000000e+00 1.883819e+04 -7.789362e+04 0.000000e+00 0.000000e+00 0.000000e+00 0.000000e+00
-1.015345e+05 1.653080e+04 0.000000e+00 1.653080e+04 -7.499874e+04 0.000000e+00 0.000000e+00 0.000000e+00 0.000000e+00
-1.051109e+05 1.369082e+04 0.000000e+00 1.369082e+04 -7.176537e+04 0.000000e+00 0.000000e+00 0.000000e+00 0.000000e+00
-1.066098e+05 1.026237e+04 0.000000e+00 1.026237e+04 -6.848005e+04 0.000000e+00 0.000000e+00 0.000000e+00 0.000000e+00
-1.056271e+05 6.223579e+03 0.000000e+00 6.223579e+03 -6.519857e+04 0.000000e+00 0.000000e+00 0.000000e+00 0.000000e+00
-1.016753e+05 1.834711e+03 0.000000e+00 1.834711e+03 -6.230395e+04 0.000000e+00 0.000000e+00 0.000000e+00 0.000000e+00
-9.433173e+04 -1.946515e+03 0.000000e+00 -1.946515e+03 -6.040461e+04 0.000000e+00 0.000000e+00 0.000000e+00 0.000000e+00
-8.339889e+04 -3.154616e+03 0.000000e+00 -3.154616e+03 -5.962355e+04 0.000000e+00 0.000000e+00 0.000000e+00 0.000000e+00
-7.297680e+04 -2.634977e+03 0.000000e+00 -2.634977e+03 -5.806448e+04 0.000000e+00 0.000000e+00 0.000000e+00 0.000000e+00
-7.579884e+04 1.945845e+04 0.000000e+00 1.945845e+04 -7.319037e+04 0.000000e+00 0.000000e+00 0.000000e+00 0.000000e+00
-8.540255e+04 1.887921e+04 0.000000e+00 1.887921e+04 -7.469238e+04 0.000000e+00 0.000000e+00 0.000000e+00 0.000000e+00
-9.340858e+04 1.612822e+04 0.000000e+00 1.612822e+04 -7.213258e+04 0.000000e+00 0.000000e+00 0.000000e+00 0.000000e+00
-9.863061e+04 1.339615e+04 0.000000e+00 1.339615e+04 -6.959082e+04 0.000000e+00 0.000000e+00 0.000000e+00 0.000000e+00
-1.016314e+05 1.039557e+04 0.000000e+00 1.039557e+04 -6.707583e+04 0.000000e+00 0.000000e+00 0.000000e+00 0.000000e+00
-1.025790e+05 6.957769e+03 0.000000e+00 6.957769e+03 -6.455798e+04 0.000000e+00 0.000000e+00 0.000000e+00 0.000000e+00
-1.011910e+05 3.218510e+03 0.000000e+00 3.218510e+03 -6.223863e+04 0.000000e+00 0.000000e+00 0.000000e+00 0.000000e+00
-9.745971e+04 -3.062470e+02 0.000000e+00 -3.062470e+02 -6.047102e+04 0.000000e+00 0.000000e+00 0.000000e+00 0.000000e+00
-9.176792e+04 -2.734996e+03 0.000000e+00 -2.734996e+03 -5.963573e+04 0.000000e+00 0.000000e+00 0.000000e+00 0.000000e+00
-8.449851e+04 -2.881252e+03 0.000000e+00 -2.881252e+03 -5.951459e+04 0.000000e+00 0.000000e+00 0.000000e+00 0.000000e+00
-7.810555e+04 -2.060520e+03 0.000000e+00 -2.060520e+03 -5.863323e+04 0.000000e+00 0.000000e+00 0.000000e+00 0.000000e+00
-7.254520e+04 1.724175e+04 0.000000e+00 1.724175e+04 -6.900267e+04 0.000000e+00 0.000000e+00 0.000000e+00 0.000000e+00
-8.235355e+04 1.663332e+04 0.000000e+00 1.663332e+04 -7.040472e+04 0.000000e+00 0.000000e+00 0.000000e+00 0.000000e+00
-9.051295e+04 1.372195e+04 0.000000e+00 1.372195e+04 -6.801843e+04 0.000000e+00 0.000000e+00 0.000000e+00 0.000000e+00
-9.549698e+04 1.087362e+04 0.000000e+00 1.087362e+04 -6.594823e+04 0.000000e+00 0.000000e+00 0.000000e+00 0.000000e+00
-9.811448e+04 7.822492e+03 0.000000e+00 7.822492e+03 -6.396527e+04 0.000000e+00 0.000000e+00 0.000000e+00 0.000000e+00
-9.875468e+04 4.559452e+03 0.000000e+00 4.559452e+03 -6.208085e+04 0.000000e+00 0.000000e+00 0.000000e+00 0.000000e+00
-9.739039e+04 1.322077e+03 0.000000e+00 1.322077e+03 -6.052803e+04 0.000000e+00 0.000000e+00 0.000000e+00 0.000000e+00
-9.445511e+04 -1.354342e+03 0.000000e+00 -1.354342e+03 -5.959003e+04 0.000000e+00 0.000000e+00 0.000000e+00 0.000000e+00
-9.053102e+04 -2.808858e+03 0.000000e+00 -2.808858e+03 -5.934371e+04 0.000000e+00 0.000000e+00 0.000000e+00 0.000000e+00
-8.601280e+04 -2.436697e+03 0.000000e+00 -2.436697e+03 -5.952715e+04 0.000000e+00 0.000000e+00 0.000000e+00 0.000000e+00
-8.225033e+04 -1.570401e+03 0.000000e+00 -1.570401e+03 -5.908271e+04 0.000000e+00 0.000000e+00 0.000000e+00 0.000000e+00
-6.971548e+04 1.518135e+04 0.000000e+00 1.518135e+04 -6.625106e+04 0.000000e+00 0.000000e+00 0.000000e+00 0.000000e+00
-7.933249e+04 1.448618e+04 0.000000e+00 1.448618e+04 -6.741998e+04 0.000000e+00 0.000000e+00 0.000000e+00 0.000000e+00
-8.748524e+04 1.160767e+04 0.000000e+00 1.160767e+04 -6.523845e+04 0.000000e+00 0.000000e+00 0.000000e+00 0.000000e+00
-9.228255e+04 8.797030e+03 0.000000e+00 8.797030e+03 -6.348865e+04 0.000000e+00 0.000000e+00 0.000000e+00 0.000000e+00
-9.472084e+04 5.869521e+03 0.000000e+00 5.869521e+03 -6.191235e+04 0.000000e+00 0.000000e+00 0.000000e+00 0.000000e+00
-9.530388e+04 2.912237e+03 0.000000e+00 2.912237e+03 -6.055181e+04 0.000000e+00 0.000000e+00 0.000000e+00 0.000000e+00
-9.435045e+04 2.409810e+02 0.000000e+00 2.409810e+02 -5.958819e+04 0.000000e+00 0.000000e+00 0.000000e+00 0.000000e+00
-9.241940e+04 -1.707700e+03 0.000000e+00 -1.707700e+03 -5.918292e+04 0.000000e+00 0.000000e+00 0.000000e+00 0.000000e+00
-9.005398e+04 -2.538784e+03 0.000000e+00 -2.538784e+03 -5.925395e+04 0.000000e+00 0.000000e+00 0.000000e+00 0.000000e+00
-8.756247e+04 -1.977421e+03 0.000000e+00 -1.977421e+03 -5.958038e+04 0.000000e+00 0.000000e+00 0.000000e+00 0.000000e+00
-8.560712e+04 -1.178777e+03 0.000000e+00 -1.178777e+03 -5.942614e+04 0.000000e+00 0.000000e+00 0.000000e+00 0.000000e+00
-6.763468e+04 1.301620e+04 0.000000e+00 1.301620e+04 -6.467405e+04 0.000000e+00 0.000000e+00 0.000000e+00 0.000000e+00
-7.652952e+04 1.231560e+04 0.000000e+00 1.231560e+04 -6.542368e+04 0.000000e+00 0.000000e+00 0.000000e+00 0.000000e+00
-8.453705e+04 9.736111e+03 0.000000e+00 9.736111e+03 -6.341811e+04 0.000000e+00 0.000000e+00 0.000000e+00 0.000000e+00
-8.923569e+04 7.091481e+03 0.000000e+00 7.091481e+03 -6.193867e+04 0.000000e+00 0.000000e+00 0.000000e+00 0.000000e+00
-9.159730e+04 4.395396e+03 0.000000e+00 4.395396e+03 -6.065224e+04 0.000000e+00 0.000000e+00 0.000000e+00 0.000000e+00
-9.234550e+04 1.833480e+03 0.000000e+00 1.833480e+03 -5.966877e+04 0.000000e+00 0.000000e+00 0.000000e+00 0.000000e+00
-9.200191e+04 -2.964547e+02 0.000000e+00 -2.964547e+02 -5.913147e+04 0.000000e+00 0.000000e+00 0.000000e+00 0.000000e+00
-9.107959e+04 -1.682417e+03 0.000000e+00 -1.682417e+03 -5.904003e+04 0.000000e+00 0.000000e+00 0.000000e+00 0.000000e+00
-8.997777e+04 -2.126068e+03 0.000000e+00 -2.126068e+03 -5.927722e+04 0.000000e+00 0.000000e+00 0.000000e+00 0.000000e+00
-8.893669e+04 -1.535553e+03 0.000000e+00 -1.535553e+03 -5.963502e+04 0.000000e+00 0.000000e+00 0.000000e+00 0.000000e+00
-8.822506e+04 -8.530156e+02 0.000000e+00 -8.530156e+02 -5.968882e+04 0.000000e+00 0.000000e+00 0.000000e+00 0.000000e+00
-6.644968e+04 1.084113e+04 0.000000e+00 1.084113e+04 -6.403339e+04 0.000000e+00 0.000000e+00 0.000000e+00 0.000000e+00
-7.427421e+04 1.015369e+04 0.000000e+00 1.015369e+04 -6.430393e+04 0.000000e+00 0.000000e+00 0.000000e+00 0.000000e+00
-8.185705e+04 7.975691e+03 0.000000e+00 7.975691e+03 -6.244283e+04 0.000000e+00 0.000000e+00 0.000000e+00 0.000000e+00
-8.640904e+04 5.607326e+03 0.000000e+00 5.607326e+03 -6.102249e+04 0.000000e+00 0.000000e+00 0.000000e+00 0.000000e+00
-8.884253e+04 3.240289e+03 0.000000e+00 3.240289e+03 -5.991365e+04 0.000000e+00 0.000000e+00 0.000000e+00 0.000000e+00
-8.993602e+04 1.140538e+03 0.000000e+00 1.140538e+03 -5.921491e+04 0.000000e+00 0.000000e+00 0.000000e+00 0.000000e+00
-9.025329e+04 -4.767913e+02 0.000000e+00 -4.767913e+02 -5.893695e+04 0.000000e+00 0.000000e+00 0.000000e+00 0.000000e+00
-9.021625e+04 -1.447126e+03 0.000000e+00 -1.447126e+03 -5.902570e+04 0.000000e+00 0.000000e+00 0.000000e+00 0.000000e+00
-9.008886e+04 -1.676312e+03 0.000000e+00 -1.676312e+03 -5.934271e+04 0.000000e+00 0.000000e+00 0.000000e+00 0.000000e+00
-9.007165e+04 -1.145589e+03 0.000000e+00 -1.145589e+03 -5.969255e+04 0.000000e+00 0.000000e+00 0.000000e+00 0.000000e+00
-9.019529e+04 -5.910374e+02 0.000000e+00 -5.910374e+02 -5.990184e+04 0.000000e+00 0.000000e+00 0.000000e+00 0.000000e+00
-6.561123e+04 8.439106e+03 0.000000e+00 8.439106e+03 -6.415817e+04 0.000000e+00 0.000000e+00 0.000000e+00 0.000000e+00
-7.241377e+04 7.847222e+03 0.000000e+00 7.847222e+03 -6.396292e+04 0.000000e+00 0.000000e+00 0.000000e+00 0.000000e+00
-7.951545e+04 6.132523e+03 0.000000e+00 6.132523e+03 -6.205230e+04 0.000000e+00 0.000000e+00 0.000000e+00 0.000000e+00
-8.395206e+04 4.181934e+03 0.000000e+00 4.181934e+03 -6.057421e+04 0.000000e+00 0.000000e+00 0.000000e+00 0.000000e+00
-8.659689e+04 2.299353e+03 0.000000e+00 2.299353e+03 -5.952327e+04 0.000000e+00 0.000000e+00 0.000000e+00 0.000000e+00
-8.811162e+04 7.041202e+02 0.000000e+00 7.041202e+02 -5.898822e+04 0.000000e+00 0.000000e+00 0.000000e+00 0.000000e+00
-8.900571e+04 -4.507737e+02 0.000000e+00 -4.507737e+02 -5.887930e+04 0.000000e+00 0.000000e+00 0.000000e+00 0.000000e+00
-8.964717e+04 -1.101517e+03 0.000000e+00 -1.101517e+03 -5.907053e+04 0.000000e+00 0.000000e+00 0.000000e+00 0.000000e+00
-9.024941e+04 -1.222163e+03 0.000000e+00 -1.222163e+03 -5.942337e+04 0.000000e+00 0.000000e+00 0.000000e+00 0.000000e+00
-9.094421e+04 -8.107105e+02 0.000000e+00 -8.107105e+02 -5.975404e+04 0.000000e+00 0.000000e+00 0.000000e+00 0.000000e+00
-9.162483e+04 -3.993889e+02 0.000000e+00 -3.993889e+02 -6.004986e+04 0.000000e+00 0.000000e+00 0.000000e+00 0.000000e+00
-6.505918e+04 5.764226e+03 0.000000e+00 5.764226e+03 -6.447191e+04 0.000000e+00 0.000000e+00 0.000000e+00 0.000000e+00
-7.104662e+04 5.337562e+03 0.000000e+00 5.337562e+03 -6.399301e+04 0.000000e+00 0.000000e+00 0.000000e+00 0.000000e+00
-7.772448e+04 4.140161e+03 0.000000e+00 4.140161e+03 -6.191560e+04 0.000000e+00 0.000000e+00 0.000000e+00 0.000000e+00
-8.207057e+04 2.760200e+03 0.000000e+00 2.760200e+03 -6.039845e+04 0.000000e+00 0.000000e+00 0.000000e+00 0.000000e+00
-8.492279e+04 1.468630e+03 0.000000e+00 1.468630e+03 -5.940911e+04 0.000000e+00 0.000000e+00 0.000000e+00 0.000000e+00
-8.683486e+04 4.156426e+02 0.000000e+00 4.156426e+02 -5.894353e+04 0.000000e+00 0.000000e+00 0.000000e+00 0.000000e+00
-8.818973e+04 -3.267805e+02 0.000000e+00 -3.267805e+02 -5.890802e+04 0.000000e+00 0.000000e+00 0.000000e+00 0.000000e+00
-8.929907e+04 -7.246722e+02 0.000000e+00 -7.246722e+02 -5.913290e+04 0.000000e+00 0.000000e+00 0.000000e+00 0.000000e+00
-9.039306e+04 -7.848583e+02 0.000000e+00 -7.848583e+02 -5.947808e+04 0.000000e+00 0.000000e+00 0.000000e+00 0.000000e+00
-9.156163e+04 -5.132701e+02 0.000000e+00 -5.132701e+02 -5.978237e+04 0.000000e+00 0.000000e+00 0.000000e+00 0.000000e+00
-9.261546e+04 -2.457139e+02 0.000000e+00 -2.457139e+02 -6.012889e+04 0.000000e+00 0.000000e+00 0.000000e+00 0.000000e+00
-6.473269e+04 2.837252e+03 0.000000e+00 2.837252e+03 -6.459144e+04 0.000000e+00 0.000000e+00 0.000000e+00 0.000000e+00
-7.023424e+04 2.634178e+03 0.000000e+00 2.634178e+03 -6.398766e+04 0.000000e+00 0.000000e+00 0.000000e+00 0.000000e+00
-7.659091e+04 2.056017e+03 0.000000e+00 2.056017e+03 -6.184075e+04 0.000000e+00 0.000000e+00 0.000000e+00 0.000000e+00
-8.092457e+04 1.364222e+03 0.000000e+00 1.364222e+03 -6.034192e+04 0.000000e+00 0.000000e+00 0.000000e+00 0.000000e+00
-8.390999e+04 7.175540e+02 0.000000e+00 7.175540e+02 -5.941523e+04 0.000000e+00 0.000000e+00 0.000000e+00 0.000000e+00
-8.607336e+04 1.926472e+02 0.000000e+00 1.926472e+02 -5.899316e+04 0.000000e+00 0.000000e+00 0.000000e+00 0.000000e+00
-8.772220e+04 -1.685773e+02 0.000000e+00 -1.685773e+02 -5.897089e+04 0.000000e+00 0.000000e+00 0.000000e+00 0.000000e+00
-8.911649e+04 -3.552495e+02 0.000000e+00 -3.552495e+02 -5.920093e+04 0.000000e+00 0.000000e+00 0.000000e+00 0.000000e+00
-9.048613e+04 -3.803209e+02 0.000000e+00 -3.803209e+02 -5.952447e+04 0.000000e+00 0.000000e+00 0.000000e+00 0.000000e+00
-9.192300e+04 -2.435061e+02 0.000000e+00 -2.435061e+02 -5.980763e+04 0.000000e+00 0.000000e+00 0.000000e+00 0.000000e+00
-9.317596e+04 -1.086014e+02 0.000000e+00 -1.086014e+02 -6.018325e+04 0.000000e+00 0.000000e+00 0.000000e+00 0.000000e+00
-6.451200e+04 7.238003e+02 0.000000e+00 7.238003e+02 -6.433929e+04 0.000000e+00 0.000000e+00 0.000000e+00 0.000000e+00
-6.992345e+04 7.370070e+02 0.000000e+00 7.370070e+02 -6.382123e+04 0.000000e+00 0.000000e+00 0.000000e+00 0.000000e+00
-7.620642e+04 5.887806e+02 0.000000e+00 5.887806e+02 -6.180055e+04 0.000000e+00 0.000000e+00 0.000000e+00 0.000000e+00
-8.055450e+04 3.434970e+02 0.000000e+00 3.434970e+02 -6.032478e+04 0.000000e+00 0.000000e+00 0.000000e+00 0.000000e+00
-8.358201e+04 1.001899e+02 0.000000e+00 1.001899e+02 -5.942886e+04 0.000000e+00 0.000000e+00 0.000000e+00 0.000000e+00
-8.582752e+04 -9.405729e+01 0.000000e+00 -9.405729e+01 -5.902757e+04 0.000000e+00 0.000000e+00 0.000000e+00 0.000000e+00
-8.758204e+04 -2.306828e+02 0.000000e+00 -2.306828e+02 -5.901176e+04 0.000000e+00 0.000000e+00 0.000000e+00 0.000000e+00
-8.907402e+04 -3.021675e+02 0.000000e+00 -3.021675e+02 -5.924601e+04 0.000000e+00 0.000000e+00 0.000000e+00 0.000000e+00
-9.052998e+04 -3.112948e+02 0.000000e+00 -3.112948e+02 -5.956745e+04 0.000000e+00 0.000000e+00 0.000000e+00 0.000000e+00
-9.205418e+04 -2.482051e+02 0.000000e+00 -2.482051e+02 -5.983843e+04 0.000000e+00 0.000000e+00 0.000000e+00 0.000000e+00
-9.335877e+04 -1.845470e+02 0.000000e+00 -1.845470e+02 -6.021573e+04 0.000000e+00 0.000000e+00 0.000000e+00 0.000000e+00
</DataArray>
<DataArray Name="vol_eps" type="Float64" NumberOfComponents="1" format="ascii">
-1.173559e-02
-1.018239e-02
-8.722115e-03
-7.655898e-03
-7.506042e-03
-7.926912e-03
-9.428452e-03
-1.160654e-02
-1.468413e-02
-1.759801e-02
-1.805566e-02
-1.120103e-02
-9.531043e-03
-8.386191e-03
-8.031956e-03
-8.337844e-03
-8.713042e-03
-9.416065e-03
-1.063914e-02
-1.262131e-02
-1.495291e-02
-1.911358e-02
-9.320115e-03
-7.660798e-03
-7.060215e-03
-7.359692e-03
-7.765209e-03
-8.056894e-03
-8.480975e-03
-9.067911e-03
-9.448079e-03
-1.051124e-02
-1.419545e-02
-6.375568e-03
-5.313259e-03
-5.167411e-03
-5.295407e-03
-5.237180e-03
-4.711804e-03
-3.601024e-03
-1.823514e-03
6.995191e-04
4.361521e-03
8.265733e-03
-4.851395e-03
-4.619653e-03
-5.154509e-03
-5.608864e-03
-5.829448e-03
-5.835734e-03
-5.586316e-03
-5.125374e-03
-4.371598e-03
-2.737569e-03
2.222901e-04
-3.431793e-03
-3.790812e-03
-4.441255e-03
-4.827296e-03
-4.986791e-03
-4.925232e-03
-4.601577e-03
-4.100166e-03
-3.341349e-03
-1.836859e-03
2.237049e-04
-2.312917e-03
-3.149794e-03
-3.848040e-03
-4.173195e-03
-4.226808e-03
-4.091207e-03
-3.785684e-03
-3.333804e-03
-2.639349e-03
-1.517649e-03
-2.474243e-04
-1.588142e-03
-2.631878e-03
-3.315420e-03
-3.543935e-03
-3.562222e-03
-3.443891e-03
-3.192921e-03
-2.790065e-03
-2.230517e-03
-1.468833e-03
-6.771277e-04
-1.158221e-03
-2.202422e-03
-2.813775e-03
-3.014806e-03
-3.048013e-03
-2.961707e-03
-2.746502e-03
-2.417333e-03
-2.022362e-03
-1.535903e-03
-1.049773e-03
-8.844848e-04
-1.851126e-03
-2.392284e-03
-2.598511e-03
-2.647333e-03
-2.581027e-03
-2.406908e-03
-2.176860e-03
-1.926553e-03
-1.640178e-03
-1.356496e-03
-7.253636e-04
-1.571670e-03
-2.054751e-03
-2.264675e-03
-2.321833e-03
-2.274128e-03
-2.159641e-03
-2.026708e-03
-1.891568e-03
-1.748978e-03
-1.605799e-03
-6.329968e-04
-1.339402e-03
-1.776958e-03
-1.992008e-03
-2.055575e-03
-2.038263e-03
-1.988156e-03
-1.935720e-03
-1.889346e-03
-1.845571e-03
-1.800541e-03
-5.797754e-04
-1.151667e-03
-1.548718e-03
-1.756194e-03
-1.838803e-03
-1.863256e-03
-1.871699e-03
-1.882199e-03
-1.900224e-03
-1.923265e-03
-1.943770e-03
-5.765565e-04
-1.025035e-03
-1.370962e-03
-1.565018e-03
-1.670255e-03
-1.736138e-03
-1.790490e-03
-1.849229e-03
-1.914168e-03
-1.980384e-03
-2.042704e-03
-5.916548e-04
-9.521016e-04
-1.246521e-03
-1.430794e-03
-1.553641e-03
-1.652205e-03
-1.740537e-03
-1.830160e-03
-1.924833e-03
-2.018551e-03
-2.107996e-03
-5.951952e-04
-9.076055e-04
-1.169295e-03
-1.351158e-03
-1.488161e-03
-1.606418e-03
-1.714559e-03
-1.821828e-03
-1.931876e-03
-2.040465e-03
-2.143800e-03
-5.697924e-04
-8.801991e-04
-1.142926e-03
-1.324537e-03
-1.468057e-03
-1.593456e-03
-1.708733e-03
-1.822226e-03
-1.937508e-03
-2.050575e-03
-2.157066e-03
</DataArray>
</PointData>
</Piece>
</UnstructuredGrid>
</VTKFile>
