<?xml version="1.0"?>
<VTKFile type="UnstructuredGrid" version="0.1">
<UnstructuredGrid>
<FieldData>
<DataArray Name="TIME" type="Float64" format="ascii" NumberOfTuples="1">
0.000000e+00
</DataArray>
</FieldData>
<FieldData>
<DataArray Name="CYCLE" type="Int32" format="ascii" NumberOfTuples="1">
0
</DataArray>
</FieldData>
<Piece NumberOfPoints="187" NumberOfCells="160">
<Points>
<DataArray NumberOfComponents="3" type="Float64" format="ascii">
0.000000e+00 0.000000e+00 0.000000e+00
0.000000e+00 1.996312e-01 0.000000e+00
0.000000e+00 3.992147e-01 0.000000e+00
0.000000e+00 5.987487e-01 0.000000e+00
0.000000e+00 7.982297e-01 0.000000e+00
0.000000e+00 9.976528e-01 0.000000e+00
0.000000e+00 1.197014e+00 0.000000e+00
0.000000e+00 1.396321e+00 0.000000e+00
0.000000e+00 1.595616e+00 0.000000e+00
0.000000e+00 1.794974e+00 0.000000e+00
0.000000e+00 1.994375e+00 0.000000e+00
2.250000e-01 0.000000e+00 0.000000e+00
2.250854e-01 1.996534e-01 0.000000e+00
2.251501e-01 3.992551e-01 0.000000e+00
2.252030e-01 5.988098e-01 0.000000e+00
2.252478e-01 7.983152e-01 0.000000e+00
2.252841e-01 9.977670e-01 0.000000e+00
2.253062e-01 1.197160e+00 0.000000e+00
2.252951e-01 1.396491e+00 0.000000e+00
2.252166e-01 1.595767e+00 0.000000e+00
2.250525e-01 1.795026e+00 0.000000e+00
2.250000e-01 1.994375e+00 0.000000e+00
4.500000e-01 0.000000e+00 0.000000e+00
4.501558e-01 1.996829e-01 0.000000e+00
4.502764e-01 3.993278e-01 0.000000e+00
4.503739e-01 5.989369e-01 0.000000e+00
4.504545e-01 7.985116e-01 0.000000e+00
4.505194e-01 9.980497e-01 0.000000e+00
4.505628e-01 1.197546e+00 0.000000e+00
4.505669e-01 1.396987e+00 0.000000e+00
4.504978e-01 1.596335e+00 0.000000e+00
4.503096e-01 1.795491e+00 0.000000e+00
4.500000e-01 1.994375e+00 0.000000e+00
6.750000e-01 0.000000e+00 0.000000e+00
6.752068e-01 1.997243e-01 0.000000e+00
6.753648e-01 3.994263e-01 0.000000e+00
6.754898e-01 5.991101e-01 0.000000e+00
6.755897e-01 7.987792e-01 0.000000e+00
6.756654e-01 9.984388e-01 0.000000e+00
6.757120e-01 1.198095e+00 0.000000e+00
6.757145e-01 1.397761e+00 0.000000e+00
6.756408e-01 1.597462e+00 0.000000e+00
6.754627e-01 1.797269e+00 0.000000e+00
6.746179e-01 1.997423e+00 0.000000e+00
9.000000e-01 0.000000e+00 0.000000e+00
9.002355e-01 1.997734e-01 0.000000e+00
9.004121e-01 3.995384e-01 0.000000e+00
9.005472e-01 5.992998e-01 0.000000e+00
9.006483e-01 7.990636e-01 0.000000e+00
9.007153e-01 9.988382e-01 0.000000e+00
9.007411e-01 1.198636e+00 0.000000e+00
9.007067e-01 1.398473e+00 0.000000e+00
9.005803e-01 1.598374e+00 0.000000e+00
9.002486e-01 1.798370e+00 0.000000e+00
8.996455e-01 1.998334e+00 0.000000e+00
1.125000e+00 0.000000e+00 0.000000e+00
1.125243e+00 1.998228e-01 0.000000e+00
1.125423e+00 3.996485e-01 0.000000e+00
1.125555e+00 5.994800e-01 0.000000e+00
1.125647e+00 7.993231e-01 0.000000e+00
1.125696e+00 9.991852e-01 0.000000e+00
1.125696e+00 1.199076e+00 0.000000e+00
1.125629e+00 1.399005e+00 0.000000e+00
1.125463e+00 1.598979e+00 0.000000e+00
1.125167e+00 1.798978e+00 0.000000e+00
1.124765e+00 1.998969e+00 0.000000e+00
1.350000e+00 0.000000e+00 0.000000e+00
1.350233e+00 1.998671e-01 0.000000e+00
1.350405e+00 3.997441e-01 0.000000e+00
1.350528e+00 5.996321e-01 0.000000e+00
1.350606e+00 7.995349e-01 0.000000e+00
1.350638e+00 9.994574e-01 0.000000e+00
1.350619e+00 1.199404e+00 0.000000e+00
1.350536e+00 1.399379e+00 0.000000e+00
1.350377e+00 1.599377e+00 0.000000e+00
1.350142e+00 1.799381e+00 0.000000e+00
1.349871e+00 1.999365e+00 0.000000e+00
1.575000e+00 0.000000e+00 0.000000e+00
1.575212e+00 1.999039e-01 0.000000e+00
1.575370e+00 3.998208e-01 0.000000e+00
1.575479e+00 5.997509e-01 0.000000e+00
1.575544e+00 7.996961e-01 0.000000e+00
1.575563e+00 9.996585e-01 0.000000e+00
1.575534e+00 1.199639e+00 0.000000e+00
1.575452e+00 1.399637e+00 0.000000e+00
1.575317e+00 1.599643e+00 0.000000e+00
1.575141e+00 1.799646e+00 0.000000e+00
1.574960e+00 1.999633e+00 0.000000e+00
1.800000e+00 0.000000e+00 0.000000e+00
1.800186e+00 1.999321e-01 0.000000e+00
1.800325e+00 3.998794e-01 0.000000e+00
1.800420e+00 5.998405e-01 0.000000e+00
1.800472e+00 7.998146e-01 0.000000e+00
1.800484e+00 9.998021e-01 0.000000e+00
1.800453e+00 1.199802e+00 0.000000e+00
1.800381e+00 1.399809e+00 0.000000e+00
1.800273e+00 1.599819e+00 0.000000e+00
1.800146e+00 1.799823e+00 0.000000e+00
1.800027e+00 1.999814e+00 0.000000e+00
2.025000e+00 0.000000e+00 0.000000e+00
2.025158e+00 1.999539e-01 0.000000e+00
2.025277e+00 3.999231e-01 0.000000e+00
2.025357e+00 5.999048e-01 0.000000e+00
2.025400e+00 7.998976e-01 0.000000e+00
2.025407e+00 9.999003e-01 0.000000e+00
2.025379e+00 1.199910e+00 0.000000e+00
2.025320e+00 1.399924e+00 0.000000e+00
2.025237e+00 1.599936e+00 0.000000e+00
2.025149e+00 1.799940e+00 0.000000e+00
2.025073e+00 1.999935e+00 0.000000e+00
2.250000e+00 0.000000e+00 0.000000e+00
2.250131e+00 1.999700e-01 0.000000e+00
2.250229e+00 3.999540e-01 0.000000e+00
2.250296e+00 5.999492e-01 0.000000e+00
2.250331e+00 7.999539e-01 0.000000e+00
2.250335e+00 9.999655e-01 0.000000e+00
2.250312e+00 1.199981e+00 0.000000e+00
2.250266e+00 1.399998e+00 0.000000e+00
2.250206e+00 1.600011e+00 0.000000e+00
2.250145e+00 1.800017e+00 0.000000e+00
2.250101e+00 2.000016e+00 0.000000e+00
2.475000e+00 0.000000e+00 0.000000e+00
2.475105e+00 1.999813e-01 0.000000e+00
2.475185e+00 3.999754e-01 0.000000e+00
2.475239e+00 5.999796e-01 0.000000e+00
2.475266e+00 7.999916e-01 0.000000e+00
2.475270e+00 1.000008e+00 0.000000e+00
2.475252e+00 1.200027e+00 0.000000e+00
2.475217e+00 1.400046e+00 0.000000e+00
2.475174e+00 1.600060e+00 0.000000e+00
2.475135e+00 1.800068e+00 0.000000e+00
2.475111e+00 2.000070e+00 0.000000e+00
2.700000e+00 0.000000e+00 0.000000e+00
2.700082e+00 1.999897e-01 0.000000e+00
2.700144e+00 3.999905e-01 0.000000e+00
2.700186e+00 6.000007e-01 0.000000e+00
2.700207e+00 8.000174e-01 0.000000e+00
2.700210e+00 1.000038e+00 0.000000e+00
2.700197e+00 1.200058e+00 0.000000e+00
2.700171e+00 1.400078e+00 0.000000e+00
2.700142e+00 1.600092e+00 0.000000e+00
2.700117e+00 1.800102e+00 0.000000e+00
2.700107e+00 2.000107e+00 0.000000e+00
2.925000e+00 0.000000e+00 0.000000e+00
2.925061e+00 1.999961e-01 0.000000e+00
2.925107e+00 4.000021e-01 0.000000e+00
2.925137e+00 6.000168e-01 0.000000e+00
2.925152e+00 8.000370e-01 0.000000e+00
2.925154e+00 1.000060e+00 0.000000e+00
2.925145e+00 1.200082e+00 0.000000e+00
2.925128e+00 1.400102e+00 0.000000e+00
2.925109e+00 1.600117e+00 0.000000e+00
2.925094e+00 1.800128e+00 0.000000e+00
2.925090e+00 2.000135e+00 0.000000e+00
3.150000e+00 0.000000e+00 0.000000e+00
3.150043e+00 2.000015e-01 0.000000e+00
3.150072e+00 4.000126e-01 0.000000e+00
3.150091e+00 6.000317e-01 0.000000e+00
3.150100e+00 8.000550e-01 0.000000e+00
3.150101e+00 1.000080e+00 0.000000e+00
3.150095e+00 1.200103e+00 0.000000e+00
3.150085e+00 1.400123e+00 0.000000e+00
3.150074e+00 1.600139e+00 0.000000e+00
3.150065e+00 1.800151e+00 0.000000e+00
3.150065e+00 2.000160e+00 0.000000e+00
3.375000e+00 0.000000e+00 0.000000e+00
3.375024e+00 2.000080e-01 0.000000e+00
3.375037e+00 4.000260e-01 0.000000e+00
3.375046e+00 6.000496e-01 0.000000e+00
3.375050e+00 8.000756e-01 0.000000e+00
3.375050e+00 1.000102e+00 0.000000e+00
3.375047e+00 1.200126e+00 0.000000e+00
3.375042e+00 1.400147e+00 0.000000e+00
3.375037e+00 1.600163e+00 0.000000e+00
3.375034e+00 1.800175e+00 0.000000e+00
3.375034e+00 2.000185e+00 0.000000e+00
3.600000e+00 0.000000e+00 0.000000e+00
3.600000e+00 2.000247e-01 0.000000e+00
3.600000e+00 4.000491e-01 0.000000e+00
3.600000e+00 6.000749e-01 0.000000e+00
3.600000e+00 8.001020e-01 0.000000e+00
3.600000e+00 1.000129e+00 0.000000e+00
3.600000e+00 1.200153e+00 0.000000e+00
3.600000e+00 1.400174e+00 0.000000e+00
3.600000e+00 1.600191e+00 0.000000e+00
3.600000e+00 1.800203e+00 0.000000e+00
3.600000e+00 2.000214e+00 0.000000e+00
</DataArray>
</Points>
<Cells>
<DataArray Name="connectivity" type="Int32" format="ascii">
0 11 12 1
1 12 13 2
2 13 14 3
3 14 15 4
4 15 16 5
5 16 17 6
6 17 18 7
7 18 19 8
8 19 20 9
9 20 21 10
11 22 23 12
12 23 24 13
13 24 25 14
14 25 26 15
15 26 27 16
16 27 28 17
17 28 29 18
18 29 30 19
19 30 31 20
20 31 32 21
22 33 34 23
23 34 35 24
24 35 36 25
25 36 37 26
26 37 38 27
27 38 39 28
28 39 40 29
29 40 41 30
30 41 42 31
31 42 43 32
33 44 45 34
34 45 46 35
35 46 47 36
36 47 48 37
37 48 49 38
38 49 50 39
39 50 51 40
40 51 52 41
41 52 53 42
42 53 54 43
44 55 56 45
45 56 57 46
46 57 58 47
47 58 59 48
48 59 60 49
49 60 61 50
50 61 62 51
51 62 63 52
52 63 64 53
53 64 65 54
55 66 67 56
56 67 68 57
57 68 69 58
58 69 70 59
59 70 71 60
60 71 72 61
61 72 73 62
62 73 74 63
63 74 75 64
64 75 76 65
66 77 78 67
67 78 79 68
68 79 80 69
69 80 81 70
70 81 82 71
71 82 83 72
72 83 84 73
73 84 85 74
74 85 86 75
75 86 87 76
77 88 89 78
78 89 90 79
79 90 91 80
80 91 92 81
81 92 93 82
82 93 94 83
83 94 95 84
84 95 96 85
85 96 97 86
86 97 98 87
88 99 100 89
89 100 101 90
90 101 102 91
91 102 103 92
92 103 104 93
93 104 105 94
94 105 106 95
95 106 107 96
96 107 108 97
97 108 109 98
99 110 111 100
100 111 112 101
101 112 113 102
102 113 114 103
103 114 115 104
104 115 116 105
105 116 117 106
106 117 118 107
107 118 119 108
108 119 120 109
110 121 122 111
111 122 123 112
112 123 124 113
113 124 125 114
114 125 126 115
115 126 127 116
116 127 128 117
117 128 129 118
118 129 130 119
119 130 131 120
121 132 133 122
122 133 134 123
123 134 135 124
124 135 136 125
125 136 137 126
126 137 138 127
127 138 139 128
128 139 140 129
129 140 141 130
130 141 142 131
132 143 144 133
133 144 145 134
134 145 146 135
135 146 147 136
136 147 148 137
137 148 149 138
138 149 150 139
139 150 151 140
140 151 152 141
141 152 153 142
143 154 155 144
144 155 156 145
145 156 157 146
146 157 158 147
147 158 159 148
148 159 160 149
149 160 161 150
150 161 162 151
151 162 163 152
152 163 164 153
154 165 166 155
155 166 167 156
156 167 168 157
157 168 169 158
158 169 170 159
159 170 171 160
160 171 172 161
161 172 173 162
162 173 174 163
163 174 175 164
165 176 177 166
166 177 178 167
167 178 179 168
168 179 180 169
169 180 181 170
170 181 182 171
171 182 183 172
172 183 184 173
173 184 185 174
174 185 186 175
</DataArray>
<DataArray Name="offsets" type="Int32" format="ascii">
4
8
12
16
20
24
28
32
36
40
44
48
52
56
60
64
68
72
76
80
84
88
92
96
100
104
108
112
116
120
124
128
132
136
140
144
148
152
156
160
164
168
172
176
180
184
188
192
196
200
204
208
212
216
220
224
228
232
236
240
244
248
252
256
260
264
268
272
276
280
284
288
292
296
300
304
308
312
316
320
324
328
332
336
340
344
348
352
356
360
364
368
372
376
380
384
388
392
396
400
404
408
412
416
420
424
428
432
436
440
444
448
452
456
460
464
468
472
476
480
484
488
492
496
500
504
508
512
516
520
524
528
532
536
540
544
548
552
556
560
564
568
572
576
580
584
588
592
596
600
604
608
612
616
620
624
628
632
636
640
</DataArray>
<DataArray Name="types" type="UInt8" format="ascii">
9
9
9
9
9
9
9
9
9
9
9
9
9
9
9
9
9
9
9
9
9
9
9
9
9
9
9
9
9
9
9
9
9
9
9
9
9
9
9
9
9
9
9
9
9
9
9
9
9
9
9
9
9
9
9
9
9
9
9
9
9
9
9
9
9
9
9
9
9
9
9
9
9
9
9
9
9
9
9
9
9
9
9
9
9
9
9
9
9
9
9
9
9
9
9
9
9
9
9
9
9
9
9
9
9
9
9
9
9
9
9
9
9
9
9
9
9
9
9
9
9
9
9
9
9
9
9
9
9
9
9
9
9
9
9
9
9
9
9
9
9
9
9
9
9
9
9
9
9
9
9
9
9
9
9
9
9
9
9
9
</DataArray>
</Cells>
<PointData>
<DataArray Name="disp" type="Float64" NumberOfComponents="3" format="ascii">
0.000000e+00 0.000000e+00 0.000000e+00
0.000000e+00 -3.687898e-04 0.000000e+00
0.000000e+00 -7.852598e-04 0.000000e+00
0.000000e+00 -1.251341e-03 0.000000e+00
0.000000e+00 -1.770314e-03 0.000000e+00
0.000000e+00 -2.347209e-03 0.000000e+00
0.000000e+00 -2.985936e-03 0.000000e+00
0.000000e+00 -3.678995e-03 0.000000e+00
0.000000e+00 -4.384534e-03 0.000000e+00
0.000000e+00 -5.025853e-03 0.000000e+00
0.000000e+00 -5.625000e-03 0.000000e+00
0.000000e+00 0.000000e+00 0.000000e+00
8.542142e-05 -3.466296e-04 0.000000e+00
1.501346e-04 -7.448826e-04 0.000000e+00
2.030404e-04 -1.190172e-03 0.000000e+00
2.478399e-04 -1.684819e-03 0.000000e+00
2.840626e-04 -2.233019e-03 0.000000e+00
3.061699e-04 -2.840184e-03 0.000000e+00
2.950582e-04 -3.509269e-03 0.000000e+00
2.166043e-04 -4.233494e-03 0.000000e+00
5.252976e-05 -4.973597e-03 0.000000e+00
0.000000e+00 -5.625000e-03 0.000000e+00
0.000000e+00 0.000000e+00 0.000000e+00
1.557840e-04 -3.171048e-04 0.000000e+00
2.764346e-04 -6.721811e-04 0.000000e+00
3.739271e-04 -1.063128e-03 0.000000e+00
4.544782e-04 -1.488390e-03 0.000000e+00
5.193782e-04 -1.950282e-03 0.000000e+00
5.628169e-04 -2.453724e-03 0.000000e+00
5.668520e-04 -3.012606e-03 0.000000e+00
4.978221e-04 -3.665170e-03 0.000000e+00
3.096253e-04 -4.508965e-03 0.000000e+00
0.000000e+00 -5.625000e-03 0.000000e+00
0.000000e+00 0.000000e+00 0.000000e+00
2.067747e-04 -2.756608e-04 0.000000e+00
3.647697e-04 -5.736487e-04 0.000000e+00
4.898509e-04 -8.898824e-04 0.000000e+00
5.897122e-04 -1.220812e-03 0.000000e+00
6.654420e-04 -1.561234e-03 0.000000e+00
7.120083e-04 -1.904613e-03 0.000000e+00
7.144987e-04 -2.238608e-03 0.000000e+00
6.408209e-04 -2.537864e-03 0.000000e+00
4.626527e-04 -2.731212e-03 0.000000e+00
-3.820716e-04 -2.576713e-03 0.000000e+00
0.000000e+00 0.000000e+00 0.000000e+00
2.354603e-04 -2.266401e-04 0.000000e+00
4.121343e-04 -4.615729e-04 0.000000e+00
5.472283e-04 -7.001896e-04 0.000000e+00
6.483209e-04 -9.363507e-04 0.000000e+00
7.152810e-04 -1.161731e-03 0.000000e+00
7.411201e-04 -1.364428e-03 0.000000e+00
7.067182e-04 -1.527322e-03 0.000000e+00
5.803736e-04 -1.626493e-03 0.000000e+00
2.486735e-04 -1.630050e-03 0.000000e+00
-3.544642e-04 -1.665849e-03 0.000000e+00
0.000000e+00 0.000000e+00 0.000000e+00
2.429533e-04 -1.772407e-04 0.000000e+00
4.228304e-04 -3.515182e-04 0.000000e+00
5.553237e-04 -5.199786e-04 0.000000e+00
6.465774e-04 -6.769379e-04 0.000000e+00
6.961370e-04 -8.147740e-04 0.000000e+00
6.956987e-04 -9.240697e-04 0.000000e+00
6.289587e-04 -9.949760e-04 0.000000e+00
4.633549e-04 -1.020824e-03 0.000000e+00
1.671281e-04 -1.022000e-03 0.000000e+00
-2.350020e-04 -1.030921e-03 0.000000e+00
0.000000e+00 0.000000e+00 0.000000e+00
2.333953e-04 -1.329107e-04 0.000000e+00
4.052855e-04 -2.559009e-04 0.000000e+00
5.279817e-04 -3.679087e-04 0.000000e+00
6.059406e-04 -4.651436e-04 0.000000e+00
6.382546e-04 -5.426689e-04 0.000000e+00
6.187877e-04 -5.955026e-04 0.000000e+00
5.357694e-04 -6.205400e-04 0.000000e+00
3.772182e-04 -6.231120e-04 0.000000e+00
1.423505e-04 -6.192811e-04 0.000000e+00
-1.287119e-04 -6.350804e-04 0.000000e+00
0.000000e+00 0.000000e+00 0.000000e+00
2.125241e-04 -9.610481e-05 0.000000e+00
3.697546e-04 -1.792092e-04 0.000000e+00
4.790734e-04 -2.490523e-04 0.000000e+00
5.436724e-04 -3.038716e-04 0.000000e+00
5.630595e-04 -3.414689e-04 0.000000e+00
5.339091e-04 -3.606888e-04 0.000000e+00
4.520251e-04 -3.634481e-04 0.000000e+00
3.168855e-04 -3.570554e-04 0.000000e+00
1.413608e-04 -3.541164e-04 0.000000e+00
-4.053807e-05 -3.666144e-04 0.000000e+00
0.000000e+00 0.000000e+00 0.000000e+00
1.860696e-04 -6.791654e-05 0.000000e+00
3.248916e-04 -1.205596e-04 0.000000e+00
4.196344e-04 -1.595120e-04 0.000000e+00
4.722915e-04 -1.853817e-04 0.000000e+00
4.835534e-04 -1.978832e-04 0.000000e+00
4.527102e-04 -1.983632e-04 0.000000e+00
3.808080e-04 -1.905049e-04 0.000000e+00
2.728254e-04 -1.806352e-04 0.000000e+00
1.460577e-04 -1.769621e-04 0.000000e+00
2.651031e-05 -1.861849e-04 0.000000e+00
0.000000e+00 0.000000e+00 0.000000e+00
1.580708e-04 -4.613777e-05 0.000000e+00
2.768341e-04 -7.690861e-05 0.000000e+00
3.569156e-04 -9.521762e-05 0.000000e+00
3.997889e-04 -1.024288e-04 0.000000e+00
4.066018e-04 -9.971020e-05 0.000000e+00
3.788198e-04 -8.974697e-05 0.000000e+00
3.198434e-04 -7.641246e-05 0.000000e+00
2.374349e-04 -6.444177e-05 0.000000e+00
1.486163e-04 -5.955009e-05 0.000000e+00
7.278214e-05 -6.463280e-05 0.000000e+00
0.000000e+00 0.000000e+00 0.000000e+00
1.307664e-04 -3.000303e-05 0.000000e+00
2.294398e-04 -4.603055e-05 0.000000e+00
2.957846e-04 -5.075710e-05 0.000000e+00
3.306403e-04 -4.608301e-05 0.000000e+00
3.352336e-04 -3.445059e-05 0.000000e+00
3.122603e-04 -1.878689e-05 0.000000e+00
2.661270e-04 -2.409824e-06 0.000000e+00
2.054546e-04 1.085516e-05 0.000000e+00
1.453077e-04 1.726401e-05 0.000000e+00
1.006454e-04 1.577778e-05 0.000000e+00
0.000000e+00 0.000000e+00 0.000000e+00
1.051902e-04 -1.868275e-05 0.000000e+00
1.849437e-04 -2.456824e-05 0.000000e+00
2.385678e-04 -2.034332e-05 0.000000e+00
2.663260e-04 -8.411564e-06 0.000000e+00
2.698324e-04 8.398703e-06 0.000000e+00
2.519621e-04 2.738454e-05 0.000000e+00
2.172264e-04 4.546680e-05 0.000000e+00
1.741482e-04 5.968038e-05 0.000000e+00
1.348855e-04 6.760277e-05 0.000000e+00
1.110430e-04 6.958531e-05 0.000000e+00
0.000000e+00 0.000000e+00 0.000000e+00
8.208558e-05 -1.032924e-05 0.000000e+00
1.441990e-04 -9.456798e-06 0.000000e+00
1.857890e-04 7.266945e-07 0.000000e+00
2.073224e-04 1.740939e-05 0.000000e+00
2.099267e-04 3.757268e-05 0.000000e+00
1.964495e-04 5.850839e-05 0.000000e+00
1.715516e-04 7.755856e-05 0.000000e+00
1.421460e-04 9.227881e-05 0.000000e+00
1.173825e-04 1.017940e-04 0.000000e+00
1.065894e-04 1.067669e-04 0.000000e+00
0.000000e+00 0.000000e+00 0.000000e+00
6.147037e-05 -3.935550e-06 0.000000e+00
1.067928e-04 2.133521e-06 0.000000e+00
1.370861e-04 1.681491e-05 0.000000e+00
1.523478e-04 3.697832e-05 0.000000e+00
1.540969e-04 5.956056e-05 0.000000e+00
1.446478e-04 8.180855e-05 0.000000e+00
1.277506e-04 1.015189e-04 0.000000e+00
1.085923e-04 1.168278e-04 0.000000e+00
9.377042e-05 1.275742e-04 0.000000e+00
9.021732e-05 1.349626e-04 0.000000e+00
0.000000e+00 0.000000e+00 0.000000e+00
4.244513e-05 1.508840e-06 0.000000e+00
7.175331e-05 1.264460e-05 0.000000e+00
9.089754e-05 3.172098e-05 0.000000e+00
1.004534e-04 5.504288e-05 0.000000e+00
1.013139e-04 7.949994e-05 0.000000e+00
9.525712e-05 1.028907e-04 0.000000e+00
8.491403e-05 1.231941e-04 0.000000e+00
7.341113e-05 1.390707e-04 0.000000e+00
6.534983e-05 1.507191e-04 0.000000e+00
6.492808e-05 1.598444e-04 0.000000e+00
0.000000e+00 0.000000e+00 0.000000e+00
2.361903e-05 8.056606e-06 0.000000e+00
3.661262e-05 2.603771e-05 0.000000e+00
4.553783e-05 4.959868e-05 0.000000e+00
5.002683e-05 7.561390e-05 0.000000e+00
5.029900e-05 1.016544e-04 0.000000e+00
4.729486e-05 1.259212e-04 0.000000e+00
4.235543e-05 1.466147e-04 0.000000e+00
3.699209e-05 1.629288e-04 0.000000e+00
3.353092e-05 1.752272e-04 0.000000e+00
3.384199e-05 1.854117e-04 0.000000e+00
0.000000e+00 0.000000e+00 0.000000e+00
0.000000e+00 2.469455e-05 0.000000e+00
0.000000e+00 4.909090e-05 0.000000e+00
0.000000e+00 7.495573e-05 0.000000e+00
0.000000e+00 1.020111e-04 0.000000e+00
0.000000e+00 1.287407e-04 0.000000e+00
0.000000e+00 1.534296e-04 0.000000e+00
0.000000e+00 1.744805e-04 0.000000e+00
0.000000e+00 1.909274e-04 0.000000e+00
0.000000e+00 2.034846e-04 0.000000e+00
0.000000e+00 2.140124e-04 0.000000e+00
</DataArray>
<DataArray Name="shear" type="Float64" NumberOfComponents="1" format="ascii">
1.942789e-03
2.305845e-03
2.847861e-03
3.342495e-03
3.819798e-03
4.280454e-03
4.668682e-03
4.801878e-03
4.388066e-03
3.548329e-03
3.164472e-03
1.898468e-03
2.236273e-03
2.746135e-03
3.212700e-03
3.666042e-03
4.114931e-03
4.531717e-03
4.818292e-03
4.796295e-03
4.325924e-03
3.835368e-03
1.855466e-03
2.106653e-03
2.497696e-03
2.877640e-03
3.262936e-03
3.673842e-03
4.126936e-03
4.648085e-03
5.307795e-03
5.842433e-03
5.868250e-03
1.795161e-03
1.943895e-03
2.171618e-03
2.420221e-03
2.686648e-03
2.980445e-03
3.315935e-03
3.715481e-03
4.249366e-03
4.244249e-03
4.421830e-03
1.693114e-03
1.749477e-03
1.826692e-03
1.944974e-03
2.081452e-03
2.224985e-03
2.356694e-03
2.434956e-03
2.280756e-03
1.437639e-03
5.063461e-04
1.550734e-03
1.537271e-03
1.499493e-03
1.515082e-03
1.548409e-03
1.574420e-03
1.560891e-03
1.448074e-03
1.117912e-03
4.988806e-04
3.882537e-04
1.379867e-03
1.325246e-03
1.216930e-03
1.162771e-03
1.128261e-03
1.087167e-03
1.008770e-03
8.517402e-04
5.651591e-04
1.982836e-04
3.510033e-04
1.195403e-03
1.124884e-03
9.897685e-04
9.013164e-04
8.337285e-04
7.654367e-04
6.728246e-04
5.279573e-04
3.059701e-04
8.989690e-05
3.014831e-04
1.013110e-03
9.428506e-04
8.110745e-04
7.166307e-04
6.432325e-04
5.739483e-04
4.901547e-04
3.732652e-04
2.054530e-04
4.645541e-05
2.248612e-04
8.418706e-04
7.803758e-04
6.670233e-04
5.848021e-04
5.234782e-04
4.682224e-04
4.031923e-04
3.147520e-04
1.846722e-04
1.288988e-05
1.453547e-04
6.853545e-04
6.349595e-04
5.481590e-04
4.903938e-04
4.500754e-04
4.126839e-04
3.653118e-04
2.958592e-04
1.884310e-04
4.427411e-05
8.157992e-05
5.458989e-04
5.081951e-04
4.515111e-04
4.221938e-04
4.040474e-04
3.826052e-04
3.469431e-04
2.873733e-04
1.964379e-04
9.083195e-05
7.484360e-05
4.239535e-04
3.995775e-04
3.741373e-04
3.744556e-04
3.763725e-04
3.656574e-04
3.353960e-04
2.812495e-04
2.062575e-04
1.351048e-04
1.189283e-04
3.175741e-04
3.073108e-04
3.167336e-04
3.458490e-04
3.626313e-04
3.572911e-04
3.285470e-04
2.789694e-04
2.188430e-04
1.737599e-04
1.656712e-04
2.242647e-04
2.358373e-04
2.866132e-04
3.376770e-04
3.607178e-04
3.562280e-04
3.281656e-04
2.829249e-04
2.345536e-04
2.057824e-04
2.030305e-04
1.537988e-04
2.107216e-04
2.917411e-04
3.458601e-04
3.679012e-04
3.625436e-04
3.351847e-04
2.940162e-04
2.531618e-04
2.309568e-04
2.289142e-04
1.455654e-04
2.227904e-04
3.019752e-04
3.508703e-04
3.724619e-04
3.681477e-04
3.425663e-04
3.039131e-04
2.652894e-04
2.425526e-04
2.386898e-04
</DataArray>
<DataArray Name="stress" type="Float64" NumberOfComponents="9" format="ascii">
-6.608043e+04 2.249270e+02 0.000000e+00 2.249270e+02 -7.990993e+04 0.000000e+00 0.000000e+00 0.000000e+00 0.000000e+00
-6.417063e+04 3.562007e+02 0.000000e+00 3.562007e+02 -8.006808e+04 0.000000e+00 0.000000e+00 0.000000e+00 0.000000e+00
-6.237627e+04 5.323818e+02 0.000000e+00 5.323818e+02 -8.116513e+04 0.000000e+00 0.000000e+00 0.000000e+00 0.000000e+00
-6.132216e+04 7.526749e+02 0.000000e+00 7.526749e+02 -8.253770e+04 0.000000e+00 0.000000e+00 0.000000e+00 0.000000e+00
-6.080536e+04 1.022404e+03 0.000000e+00 1.022404e+03 -8.429416e+04 0.000000e+00 0.000000e+00 0.000000e+00 0.000000e+00
-6.085236e+04 1.320403e+03 0.000000e+00 1.320403e+03 -8.649199e+04 0.000000e+00 0.000000e+00 0.000000e+00 0.000000e+00
-6.159691e+04 1.573966e+03 0.000000e+00 1.573966e+03 -8.908375e+04 0.000000e+00 0.000000e+00 0.000000e+00 0.000000e+00
-6.329038e+04 1.574619e+03 0.000000e+00 1.574619e+03 -9.172952e+04 0.000000e+00 0.000000e+00 0.000000e+00 0.000000e+00
-6.636711e+04 9.462900e+02 0.000000e+00 9.462900e+02 -9.363766e+04 0.000000e+00 0.000000e+00 0.000000e+00 0.000000e+00
-7.070727e+04 2.435153e+01 0.000000e+00 2.435153e+01 -9.443377e+04 0.000000e+00 0.000000e+00 0.000000e+00 0.000000e+00
-7.238018e+04 -2.843633e+02 0.000000e+00 -2.843633e+02 -9.419502e+04 0.000000e+00 0.000000e+00 0.000000e+00 0.000000e+00
-6.588791e+04 1.127068e+03 0.000000e+00 1.127068e+03 -7.909227e+04 0.000000e+00 0.000000e+00 0.000000e+00 0.000000e+00
-6.416255e+04 1.196985e+03 0.000000e+00 1.196985e+03 -7.934860e+04 0.000000e+00 0.000000e+00 0.000000e+00 0.000000e+00
-6.251295e+04 1.355552e+03 0.000000e+00 1.355552e+03 -8.049375e+04 0.000000e+00 0.000000e+00 0.000000e+00 0.000000e+00
-6.153484e+04 1.687725e+03 0.000000e+00 1.687725e+03 -8.179220e+04 0.000000e+00 0.000000e+00 0.000000e+00 0.000000e+00
-6.108251e+04 2.142829e+03 0.000000e+00 2.142829e+03 -8.339829e+04 0.000000e+00 0.000000e+00 0.000000e+00 0.000000e+00
-6.114835e+04 2.666464e+03 0.000000e+00 2.666464e+03 -8.541220e+04 0.000000e+00 0.000000e+00 0.000000e+00 0.000000e+00
-6.183348e+04 3.119483e+03 0.000000e+00 3.119483e+03 -8.789923e+04 0.000000e+00 0.000000e+00 0.000000e+00 0.000000e+00
-6.331690e+04 3.213475e+03 0.000000e+00 3.213475e+03 -9.085751e+04 0.000000e+00 0.000000e+00 0.000000e+00 0.000000e+00
-6.586754e+04 2.435226e+03 0.000000e+00 2.435226e+03 -9.414031e+04 0.000000e+00 0.000000e+00 0.000000e+00 0.000000e+00
-6.979070e+04 1.031634e+03 0.000000e+00 1.031634e+03 -9.697819e+04 0.000000e+00 0.000000e+00 0.000000e+00 0.000000e+00
-7.339323e+04 -3.896039e+02 0.000000e+00 -3.896039e+02 -9.889812e+04 0.000000e+00 0.000000e+00 0.000000e+00 0.000000e+00
-6.554966e+04 2.302674e+03 0.000000e+00 2.302674e+03 -7.750745e+04 0.000000e+00 0.000000e+00 0.000000e+00 0.000000e+00
-6.417980e+04 2.360027e+03 0.000000e+00 2.360027e+03 -7.773281e+04 0.000000e+00 0.000000e+00 0.000000e+00 0.000000e+00
-6.284992e+04 2.555348e+03 0.000000e+00 2.555348e+03 -7.865973e+04 0.000000e+00 0.000000e+00 0.000000e+00 0.000000e+00
-6.209555e+04 3.082878e+03 0.000000e+00 3.082878e+03 -7.963634e+04 0.000000e+00 0.000000e+00 0.000000e+00 0.000000e+00
-6.181017e+04 3.856301e+03 0.000000e+00 3.856301e+03 -8.076295e+04 0.000000e+00 0.000000e+00 0.000000e+00 0.000000e+00
-6.197534e+04 4.813359e+03 0.000000e+00 4.813359e+03 -8.212976e+04 0.000000e+00 0.000000e+00 0.000000e+00 0.000000e+00
-6.262180e+04 5.864683e+03 0.000000e+00 5.864683e+03 -8.391522e+04 0.000000e+00 0.000000e+00 0.000000e+00 0.000000e+00
-6.389483e+04 6.889527e+03 0.000000e+00 6.889527e+03 -8.651766e+04 0.000000e+00 0.000000e+00 0.000000e+00 0.000000e+00
-6.630312e+04 7.698044e+03 0.000000e+00 7.698044e+03 -9.092438e+04 0.000000e+00 0.000000e+00 0.000000e+00 0.000000e+00
-7.240329e+04 8.231070e+03 0.000000e+00 8.231070e+03 -9.826659e+04 0.000000e+00 0.000000e+00 0.000000e+00 0.000000e+00
-8.260538e+04 8.983630e+03 0.000000e+00 8.983630e+03 -1.060056e+05 0.000000e+00 0.000000e+00 0.000000e+00 0.000000e+00
-6.505750e+04 3.150580e+03 0.000000e+00 3.150580e+03 -7.532066e+04 0.000000e+00 0.000000e+00 0.000000e+00 0.000000e+00
-6.413478e+04 3.199124e+03 0.000000e+00 3.199124e+03 -7.544793e+04 0.000000e+00 0.000000e+00 0.000000e+00 0.000000e+00
-6.326166e+04 3.366987e+03 0.000000e+00 3.366987e+03 -7.599265e+04 0.000000e+00 0.000000e+00 0.000000e+00 0.000000e+00
-6.282672e+04 3.925546e+03 0.000000e+00 3.925546e+03 -7.647473e+04 0.000000e+00 0.000000e+00 0.000000e+00 0.000000e+00
-6.278025e+04 4.768987e+03 0.000000e+00 4.768987e+03 -7.688752e+04 0.000000e+00 0.000000e+00 0.000000e+00 0.000000e+00
-6.308013e+04 5.829584e+03 0.000000e+00 5.829584e+03 -7.719554e+04 0.000000e+00 0.000000e+00 0.000000e+00 0.000000e+00
-6.371759e+04 7.045678e+03 0.000000e+00 7.045678e+03 -7.729775e+04 0.000000e+00 0.000000e+00 0.000000e+00 0.000000e+00
-6.463158e+04 8.380093e+03 0.000000e+00 8.380093e+03 -7.697883e+04 0.000000e+00 0.000000e+00 0.000000e+00 0.000000e+00
-6.586748e+04 9.754841e+03 0.000000e+00 9.754841e+03 -7.554591e+04 0.000000e+00 0.000000e+00 0.000000e+00 0.000000e+00
-6.725134e+04 9.382468e+03 0.000000e+00 9.382468e+03 -7.058642e+04 0.000000e+00 0.000000e+00 0.000000e+00 0.000000e+00
-6.884186e+04 8.793773e+03 0.000000e+00 8.793773e+03 -6.780923e+04 0.000000e+00 0.000000e+00 0.000000e+00 0.000000e+00
-6.443915e+04 3.616171e+03 0.000000e+00 3.616171e+03 -7.274200e+04 0.000000e+00 0.000000e+00 0.000000e+00 0.000000e+00
-6.400856e+04 3.633526e+03 0.000000e+00 3.633526e+03 -7.277088e+04 0.000000e+00 0.000000e+00 0.000000e+00 0.000000e+00
-6.362874e+04 3.704210e+03 0.000000e+00 3.704210e+03 -7.292044e+04 0.000000e+00 0.000000e+00 0.000000e+00 0.000000e+00
-6.353284e+04 4.128250e+03 0.000000e+00 4.128250e+03 -7.291883e+04 0.000000e+00 0.000000e+00 0.000000e+00 0.000000e+00
-6.370654e+04 4.778854e+03 0.000000e+00 4.778854e+03 -7.268878e+04 0.000000e+00 0.000000e+00 0.000000e+00 0.000000e+00
-6.412976e+04 5.534902e+03 0.000000e+00 5.534902e+03 -7.211145e+04 0.000000e+00 0.000000e+00 0.000000e+00 0.000000e+00
-6.478970e+04 6.254513e+03 0.000000e+00 6.254513e+03 -7.104500e+04 0.000000e+00 0.000000e+00 0.000000e+00 0.000000e+00
-6.559389e+04 6.738885e+03 0.000000e+00 6.738885e+03 -6.921166e+04 0.000000e+00 0.000000e+00 0.000000e+00 0.000000e+00
-6.637331e+04 6.350922e+03 0.000000e+00 6.350922e+03 -6.616783e+04 0.000000e+00 0.000000e+00 0.000000e+00 0.000000e+00
-6.546238e+04 3.752037e+03 0.000000e+00 3.752037e+03 -6.289552e+04 0.000000e+00 0.000000e+00 0.000000e+00 0.000000e+00
-6.000464e+04 1.182877e+03 0.000000e+00 1.182877e+03 -5.999545e+04 0.000000e+00 0.000000e+00 0.000000e+00 0.000000e+00
-6.375644e+04 3.738903e+03 0.000000e+00 3.738903e+03 -7.010438e+04 0.000000e+00 0.000000e+00 0.000000e+00 0.000000e+00
-6.377767e+04 3.707647e+03 0.000000e+00 3.707647e+03 -7.005618e+04 0.000000e+00 0.000000e+00 0.000000e+00 0.000000e+00
-6.383732e+04 3.634726e+03 0.000000e+00 3.634726e+03 -6.989673e+04 0.000000e+00 0.000000e+00 0.000000e+00 0.000000e+00
-6.401062e+04 3.826677e+03 0.000000e+00 3.826677e+03 -6.955860e+04 0.000000e+00 0.000000e+00 0.000000e+00 0.000000e+00
-6.431661e+04 4.140255e+03 0.000000e+00 4.140255e+03 -6.895557e+04 0.000000e+00 0.000000e+00 0.000000e+00 0.000000e+00
-6.474100e+04 4.444949e+03 0.000000e+00 4.444949e+03 -6.799928e+04 0.000000e+00 0.000000e+00 0.000000e+00 0.000000e+00
-6.520240e+04 4.561778e+03 0.000000e+00 4.561778e+03 -6.660527e+04 0.000000e+00 0.000000e+00 0.000000e+00 0.000000e+00
-6.549385e+04 4.220516e+03 0.000000e+00 4.220516e+03 -6.473408e+04 0.000000e+00 0.000000e+00 0.000000e+00 0.000000e+00
-6.500409e+04 3.042831e+03 0.000000e+00 3.042831e+03 -6.263679e+04 0.000000e+00 0.000000e+00 0.000000e+00 0.000000e+00
-6.185895e+04 1.139385e+03 0.000000e+00 1.139385e+03 -6.100536e+04 0.000000e+00 0.000000e+00 0.000000e+00 0.000000e+00
-5.745729e+04 1.882452e+02 0.000000e+00 1.882452e+02 -5.980864e+04 0.000000e+00 0.000000e+00 0.000000e+00 0.000000e+00
-6.307431e+04 3.561312e+03 0.000000e+00 3.561312e+03 -6.768328e+04 0.000000e+00 0.000000e+00 0.000000e+00 0.000000e+00
-6.344800e+04 3.482375e+03 0.000000e+00 3.482375e+03 -6.758974e+04 0.000000e+00 0.000000e+00 0.000000e+00 0.000000e+00
-6.383562e+04 3.272265e+03 0.000000e+00 3.272265e+03 -6.723826e+04 0.000000e+00 0.000000e+00 0.000000e+00 0.000000e+00
-6.417998e+04 3.232262e+03 0.000000e+00 3.232262e+03 -6.673733e+04 0.000000e+00 0.000000e+00 0.000000e+00 0.000000e+00
-6.451859e+04 3.237553e+03 0.000000e+00 3.237553e+03 -6.602020e+04 0.000000e+00 0.000000e+00 0.000000e+00 0.000000e+00
-6.482159e+04 3.164602e+03 0.000000e+00 3.164602e+03 -6.504901e+04 0.000000e+00 0.000000e+00 0.000000e+00 0.000000e+00
-6.496736e+04 2.873104e+03 0.000000e+00 2.873104e+03 -6.382891e+04 0.000000e+00 0.000000e+00 0.000000e+00 0.000000e+00
-6.467829e+04 2.217769e+03 0.000000e+00 2.217769e+03 -6.246039e+04 0.000000e+00 0.000000e+00 0.000000e+00 0.000000e+00
-6.337243e+04 1.180848e+03 0.000000e+00 1.180848e+03 -6.120241e+04 0.000000e+00 0.000000e+00 0.000000e+00 0.000000e+00
-6.035306e+04 1.868668e+02 0.000000e+00 1.868668e+02 -6.036808e+04 0.000000e+00 0.000000e+00 0.000000e+00 0.000000e+00
-5.728362e+04 -1.912430e+02 0.000000e+00 -1.912430e+02 -5.974681e+04 0.000000e+00 0.000000e+00 0.000000e+00 0.000000e+00
-6.245632e+04 3.212494e+03 0.000000e+00 3.212494e+03 -6.565111e+04 0.000000e+00 0.000000e+00 0.000000e+00 0.000000e+00
-6.305129e+04 3.097252e+03 0.000000e+00 3.097252e+03 -6.553305e+04 0.000000e+00 0.000000e+00 0.000000e+00 0.000000e+00
-6.365032e+04 2.782902e+03 0.000000e+00 2.782902e+03 -6.509199e+04 0.000000e+00 0.000000e+00 0.000000e+00 0.000000e+00
-6.408231e+04 2.558269e+03 0.000000e+00 2.558269e+03 -6.455151e+04 0.000000e+00 0.000000e+00 0.000000e+00 0.000000e+00
-6.439252e+04 2.338901e+03 0.000000e+00 2.338901e+03 -6.387512e+04 0.000000e+00 0.000000e+00 0.000000e+00 0.000000e+00
-6.454491e+04 2.039798e+03 0.000000e+00 2.039798e+03 -6.306293e+04 0.000000e+00 0.000000e+00 0.000000e+00 0.000000e+00
-6.442341e+04 1.582212e+03 0.000000e+00 1.582212e+03 -6.215959e+04 0.000000e+00 0.000000e+00 0.000000e+00 0.000000e+00
-6.379021e+04 9.353787e+02 0.000000e+00 9.353787e+02 -6.127099e+04 0.000000e+00 0.000000e+00 0.000000e+00 0.000000e+00
-6.232691e+04 2.262973e+02 0.000000e+00 2.262973e+02 -6.056359e+04 0.000000e+00 0.000000e+00 0.000000e+00 0.000000e+00
-5.982861e+04 -2.252807e+02 0.000000e+00 -2.252807e+02 -6.015296e+04 0.000000e+00 0.000000e+00 0.000000e+00 0.000000e+00
-5.765864e+04 -2.839722e+02 0.000000e+00 -2.839722e+02 -5.981921e+04 0.000000e+00 0.000000e+00 0.000000e+00 0.000000e+00
-6.192543e+04 2.754277e+03 0.000000e+00 2.754277e+03 -6.403203e+04 0.000000e+00 0.000000e+00 0.000000e+00 0.000000e+00
-6.261870e+04 2.617594e+03 0.000000e+00 2.617594e+03 -6.390506e+04 0.000000e+00 0.000000e+00 0.000000e+00 0.000000e+00
-6.332096e+04 2.251417e+03 0.000000e+00 2.251417e+03 -6.344276e+04 0.000000e+00 0.000000e+00 0.000000e+00 0.000000e+00
-6.378939e+04 1.920358e+03 0.000000e+00 1.920358e+03 -6.294474e+04 0.000000e+00 0.000000e+00 0.000000e+00 0.000000e+00
-6.406382e+04 1.580680e+03 0.000000e+00 1.580680e+03 -6.239034e+04 0.000000e+00 0.000000e+00 0.000000e+00 0.000000e+00
-6.410785e+04 1.188743e+03 0.000000e+00 1.188743e+03 -6.178674e+04 0.000000e+00 0.000000e+00 0.000000e+00 0.000000e+00
-6.382940e+04 7.145356e+02 0.000000e+00 7.145356e+02 -6.117130e+04 0.000000e+00 0.000000e+00 0.000000e+00 0.000000e+00
-6.308724e+04 1.861991e+02 0.000000e+00 1.861991e+02 -6.062880e+04 0.000000e+00 0.000000e+00 0.000000e+00 0.000000e+00
-6.174256e+04 -2.578532e+02 0.000000e+00 -2.578532e+02 -6.025030e+04 0.000000e+00 0.000000e+00 0.000000e+00 0.000000e+00
-5.979616e+04 -3.929816e+02 0.000000e+00 -3.929816e+02 -6.005648e+04 0.000000e+00 0.000000e+00 0.000000e+00 0.000000e+00
-5.824541e+04 -3.198680e+02 0.000000e+00 -3.198680e+02 -5.987050e+04 0.000000e+00 0.000000e+00 0.000000e+00 0.000000e+00
-6.148732e+04 2.251521e+03 0.000000e+00 2.251521e+03 -6.279405e+04 0.000000e+00 0.000000e+00 0.000000e+00 0.000000e+00
-6.219173e+04 2.118128e+03 0.000000e+00 2.118128e+03 -6.266746e+04 0.000000e+00 0.000000e+00 0.000000e+00 0.000000e+00
-6.292743e+04 1.749705e+03 0.000000e+00 1.749705e+03 -6.223606e+04 0.000000e+00 0.000000e+00 0.000000e+00 0.000000e+00
-6.340779e+04 1.384405e+03 0.000000e+00 1.384405e+03 -6.180994e+04 0.000000e+00 0.000000e+00 0.000000e+00 0.000000e+00
-6.365183e+04 1.006919e+03 0.000000e+00 1.006919e+03 -6.138574e+04 0.000000e+00 0.000000e+00 0.000000e+00 0.000000e+00
-6.363217e+04 5.992976e+02 0.000000e+00 5.992976e+02 -6.096016e+04 0.000000e+00 0.000000e+00 0.000000e+00 0.000000e+00
-6.330121e+04 1.703715e+02 0.000000e+00 1.703715e+02 -6.056901e+04 0.000000e+00 0.000000e+00 0.000000e+00 0.000000e+00
-6.258496e+04 -2.261910e+02 0.000000e+00 -2.261910e+02 -6.026004e+04 0.000000e+00 0.000000e+00 0.000000e+00 0.000000e+00
-6.146279e+04 -4.809659e+02 0.000000e+00 -4.809659e+02 -6.007313e+04 0.000000e+00 0.000000e+00 0.000000e+00 0.000000e+00
-5.999168e+04 -4.453713e+02 0.000000e+00 -4.453713e+02 -6.000060e+04 0.000000e+00 0.000000e+00 0.000000e+00 0.000000e+00
-5.888507e+04 -3.150092e+02 0.000000e+00 -3.150092e+02 -5.989551e+04 0.000000e+00 0.000000e+00 0.000000e+00 0.000000e+00
-6.112096e+04 1.766002e+03 0.000000e+00 1.766002e+03 -6.186799e+04 0.000000e+00 0.000000e+00 0.000000e+00 0.000000e+00
-6.180561e+04 1.646176e+03 0.000000e+00 1.646176e+03 -6.175607e+04 0.000000e+00 0.000000e+00 0.000000e+00 0.000000e+00
-6.253322e+04 1.312503e+03 0.000000e+00 1.312503e+03 -6.137678e+04 0.000000e+00 0.000000e+00 0.000000e+00 0.000000e+00
-6.300266e+04 9.587167e+02 0.000000e+00 9.587167e+02 -6.102802e+04 0.000000e+00 0.000000e+00 0.000000e+00 0.000000e+00
-6.322522e+04 5.897773e+02 0.000000e+00 5.897773e+02 -6.070907e+04 0.000000e+00 0.000000e+00 0.000000e+00 0.000000e+00
-6.318625e+04 2.150516e+02 0.000000e+00 2.150516e+02 -6.042239e+04 0.000000e+00 0.000000e+00 0.000000e+00 0.000000e+00
-6.287056e+04 -1.430617e+02 0.000000e+00 -1.430617e+02 -6.019299e+04 0.000000e+00 0.000000e+00 0.000000e+00 0.000000e+00
-6.225010e+04 -4.291159e+02 0.000000e+00 -4.291159e+02 -6.004432e+04 0.000000e+00 0.000000e+00 0.000000e+00 0.000000e+00
-6.136586e+04 -5.577830e+02 0.000000e+00 -5.577830e+02 -5.997439e+04 0.000000e+00 0.000000e+00 0.000000e+00 0.000000e+00
-6.028643e+04 -4.371300e+02 0.000000e+00 -4.371300e+02 -5.997160e+04 0.000000e+00 0.000000e+00 0.000000e+00 0.000000e+00
-5.952124e+04 -2.867977e+02 0.000000e+00 -2.867977e+02 -5.991767e+04 0.000000e+00 0.000000e+00 0.000000e+00 0.000000e+00
-6.083845e+04 1.333583e+03 0.000000e+00 1.333583e+03 -6.119472e+04 0.000000e+00 0.000000e+00 0.000000e+00 0.000000e+00
-6.147579e+04 1.228724e+03 0.000000e+00 1.228724e+03 -6.109890e+04 0.000000e+00 0.000000e+00 0.000000e+00 0.000000e+00
-6.217043e+04 9.400934e+02 0.000000e+00 9.400934e+02 -6.077285e+04 0.000000e+00 0.000000e+00 0.000000e+00 0.000000e+00
-6.261804e+04 6.243843e+02 0.000000e+00 6.243843e+02 -6.049338e+04 0.000000e+00 0.000000e+00 0.000000e+00 0.000000e+00
-6.283425e+04 2.981322e+02 0.000000e+00 2.981322e+02 -6.025535e+04 0.000000e+00 0.000000e+00 0.000000e+00 0.000000e+00
-6.280647e+04 -1.830622e+01 0.000000e+00 -1.830622e+01 -6.007358e+04 0.000000e+00 0.000000e+00 0.000000e+00 0.000000e+00
-6.253654e+04 -2.988985e+02 0.000000e+00 -2.988985e+02 -5.995764e+04 0.000000e+00 0.000000e+00 0.000000e+00 0.000000e+00
-6.203814e+04 -4.985607e+02 0.000000e+00 -4.985607e+02 -5.991270e+04 0.000000e+00 0.000000e+00 0.000000e+00 0.000000e+00
-6.136940e+04 -5.497561e+02 0.000000e+00 -5.497561e+02 -5.991601e+04 0.000000e+00 0.000000e+00 0.000000e+00 0.000000e+00
-6.060311e+04 -3.972681e+02 0.000000e+00 -3.972681e+02 -5.995503e+04 0.000000e+00 0.000000e+00 0.000000e+00 0.000000e+00
-6.009481e+04 -2.491414e+02 0.000000e+00 -2.491414e+02 -5.993770e+04 0.000000e+00 0.000000e+00 0.000000e+00 0.000000e+00
-6.062241e+04 9.479457e+02 0.000000e+00 9.479457e+02 -6.070766e+04 0.000000e+00 0.000000e+00 0.000000e+00 0.000000e+00
-6.120753e+04 8.653766e+02 0.000000e+00 8.653766e+02 -6.062302e+04 0.000000e+00 0.000000e+00 0.000000e+00 0.000000e+00
-6.186184e+04 6.252928e+02 0.000000e+00 6.252928e+02 -6.034165e+04 0.000000e+00 0.000000e+00 0.000000e+00 0.000000e+00
-6.228842e+04 3.659697e+02 0.000000e+00 3.659697e+02 -6.011796e+04 0.000000e+00 0.000000e+00 0.000000e+00 0.000000e+00
-6.250558e+04 1.047007e+02 0.000000e+00 1.047007e+02 -5.994645e+04 0.000000e+00 0.000000e+00 0.000000e+00 0.000000e+00
-6.250416e+04 -1.433031e+02 0.000000e+00 -1.433031e+02 -5.984609e+04 0.000000e+00 0.000000e+00 0.000000e+00 0.000000e+00
-6.229216e+04 -3.499271e+02 0.000000e+00 -3.499271e+02 -5.980675e+04 0.000000e+00 0.000000e+00 0.000000e+00 0.000000e+00
-6.191090e+04 -4.815254e+02 0.000000e+00 -4.815254e+02 -5.982825e+04 0.000000e+00 0.000000e+00 0.000000e+00 0.000000e+00
-6.142572e+04 -4.894341e+02 0.000000e+00 -4.894341e+02 -5.988062e+04 0.000000e+00 0.000000e+00 0.000000e+00 0.000000e+00
-6.090093e+04 -3.375981e+02 0.000000e+00 -3.375981e+02 -5.994519e+04 0.000000e+00 0.000000e+00 0.000000e+00 0.000000e+00
-6.058611e+04 -2.045959e+02 0.000000e+00 -2.045959e+02 -5.995363e+04 0.000000e+00 0.000000e+00 0.000000e+00 0.000000e+00
-6.045384e+04 6.102506e+02 0.000000e+00 6.102506e+02 -6.032741e+04 0.000000e+00 0.000000e+00 0.000000e+00 0.000000e+00
-6.098857e+04 5.438138e+02 0.000000e+00 5.438138e+02 -6.024932e+04 0.000000e+00 0.000000e+00 0.000000e+00 0.000000e+00
-6.160934e+04 3.597955e+02 0.000000e+00 3.597955e+02 -6.000971e+04 0.000000e+00 0.000000e+00 0.000000e+00 0.000000e+00
-6.203638e+04 1.720242e+02 0.000000e+00 1.720242e+02 -5.983491e+04 0.000000e+00 0.000000e+00 0.000000e+00 0.000000e+00
-6.225668e+04 -1.219526e+01 0.000000e+00 -1.219526e+01 -5.972163e+04 0.000000e+00 0.000000e+00 0.000000e+00 0.000000e+00
-6.228084e+04 -1.861132e+02 0.000000e+00 -1.861132e+02 -5.968290e+04 0.000000e+00 0.000000e+00 0.000000e+00 0.000000e+00
-6.212515e+04 -3.265098e+02 0.000000e+00 -3.265098e+02 -5.970309e+04 0.000000e+00 0.000000e+00 0.000000e+00 0.000000e+00
-6.184071e+04 -4.067833e+02 0.000000e+00 -4.067833e+02 -5.977265e+04 0.000000e+00 0.000000e+00 0.000000e+00 0.000000e+00
-6.150073e+04 -3.929191e+02 0.000000e+00 -3.929191e+02 -5.985868e+04 0.000000e+00 0.000000e+00 0.000000e+00 0.000000e+00
-6.115562e+04 -2.640063e+02 0.000000e+00 -2.640063e+02 -5.993942e+04 0.000000e+00 0.000000e+00 0.000000e+00 0.000000e+00
-6.098129e+04 -1.572185e+02 0.000000e+00 -1.572185e+02 -5.996587e+04 0.000000e+00 0.000000e+00 0.000000e+00 0.000000e+00
-6.031275e+04 2.966438e+02 0.000000e+00 2.966438e+02 -6.000368e+04 0.000000e+00 0.000000e+00 0.000000e+00 0.000000e+00
-6.082911e+04 2.533755e+02 0.000000e+00 2.533755e+02 -5.993029e+04 0.000000e+00 0.000000e+00 0.000000e+00 0.000000e+00
-6.145005e+04 1.459842e+02 0.000000e+00 1.459842e+02 -5.972314e+04 0.000000e+00 0.000000e+00 0.000000e+00 0.000000e+00
-6.187198e+04 4.244000e+01 0.000000e+00 4.244000e+01 -5.960187e+04 0.000000e+00 0.000000e+00 0.000000e+00 0.000000e+00
-6.209367e+04 -6.217378e+01 0.000000e+00 -6.217378e+01 -5.954930e+04 0.000000e+00 0.000000e+00 0.000000e+00 0.000000e+00
-6.213335e+04 -1.655292e+02 0.000000e+00 -1.655292e+02 -5.956135e+04 0.000000e+00 0.000000e+00 0.000000e+00 0.000000e+00
-6.202005e+04 -2.484694e+02 0.000000e+00 -2.484694e+02 -5.963213e+04 0.000000e+00 0.000000e+00 0.000000e+00 0.000000e+00
-6.180798e+04 -2.918296e+02 0.000000e+00 -2.918296e+02 -5.973526e+04 0.000000e+00 0.000000e+00 0.000000e+00 0.000000e+00
-6.157001e+04 -2.736376e+02 0.000000e+00 -2.736376e+02 -5.984420e+04 0.000000e+00 0.000000e+00 0.000000e+00 0.000000e+00
-6.135266e+04 -1.804291e+02 0.000000e+00 -1.804291e+02 -5.993742e+04 0.000000e+00 0.000000e+00 0.000000e+00 0.000000e+00
-6.126866e+04 -1.078935e+02 0.000000e+00 -1.078935e+02 -5.997469e+04 0.000000e+00 0.000000e+00 0.000000e+00 0.000000e+00
-6.018308e+04 -7.966030e+00 0.000000e+00 -7.966030e+00 -5.959092e+04 0.000000e+00 0.000000e+00 0.000000e+00 0.000000e+00
-6.076117e+04 2.185394e+01 0.000000e+00 2.185394e+01 -5.957259e+04 0.000000e+00 0.000000e+00 0.000000e+00 0.000000e+00
-6.138649e+04 1.165889e+01 0.000000e+00 1.165889e+01 -5.945537e+04 0.000000e+00 0.000000e+00 0.000000e+00 0.000000e+00
-6.179093e+04 -1.183967e+01 0.000000e+00 -1.183967e+01 -5.942139e+04 0.000000e+00 0.000000e+00 0.000000e+00 0.000000e+00
-6.200705e+04 -5.064460e+01 0.000000e+00 -5.064460e+01 -5.943067e+04 0.000000e+00 0.000000e+00 0.000000e+00 0.000000e+00
-6.205177e+04 -9.559425e+01 0.000000e+00 -9.559425e+01 -5.948515e+04 0.000000e+00 0.000000e+00 0.000000e+00 0.000000e+00
-6.196357e+04 -1.334702e+02 0.000000e+00 -1.334702e+02 -5.958543e+04 0.000000e+00 0.000000e+00 0.000000e+00 0.000000e+00
-6.179565e+04 -1.529244e+02 0.000000e+00 -1.529244e+02 -5.970852e+04 0.000000e+00 0.000000e+00 0.000000e+00 0.000000e+00
-6.161718e+04 -1.396632e+02 0.000000e+00 -1.396632e+02 -5.983292e+04 0.000000e+00 0.000000e+00 0.000000e+00 0.000000e+00
-6.148118e+04 -9.090324e+01 0.000000e+00 -9.090324e+01 -5.993818e+04 0.000000e+00 0.000000e+00 0.000000e+00 0.000000e+00
-6.144360e+04 -5.626145e+01 0.000000e+00 -5.626145e+01 -5.997962e+04 0.000000e+00 0.000000e+00 0.000000e+00 0.000000e+00
-6.002786e+04 -2.364536e+02 0.000000e+00 -2.364536e+02 -5.909700e+04 0.000000e+00 0.000000e+00 0.000000e+00 0.000000e+00
-6.070551e+04 -1.240102e+02 0.000000e+00 -1.240102e+02 -5.923711e+04 0.000000e+00 0.000000e+00 0.000000e+00 0.000000e+00
-6.137102e+04 -5.312203e+01 0.000000e+00 -5.312203e+01 -5.930908e+04 0.000000e+00 0.000000e+00 0.000000e+00 0.000000e+00
-6.176819e+04 -3.600677e+01 0.000000e+00 -3.600677e+01 -5.934650e+04 0.000000e+00 0.000000e+00 0.000000e+00 0.000000e+00
-6.198071e+04 -3.675831e+01 0.000000e+00 -3.675831e+01 -5.938729e+04 0.000000e+00 0.000000e+00 0.000000e+00 0.000000e+00
-6.202590e+04 -4.672014e+01 0.000000e+00 -4.672014e+01 -5.945789e+04 0.000000e+00 0.000000e+00 0.000000e+00 0.000000e+00
-6.194577e+04 -5.778392e+01 0.000000e+00 -5.778392e+01 -5.956538e+04 0.000000e+00 0.000000e+00 0.000000e+00 0.000000e+00
-6.179306e+04 -6.489807e+01 0.000000e+00 -6.489807e+01 -5.969591e+04 0.000000e+00 0.000000e+00 0.000000e+00 0.000000e+00
-6.163330e+04 -5.790901e+01 0.000000e+00 -5.790901e+01 -5.982612e+04 0.000000e+00 0.000000e+00 0.000000e+00 0.000000e+00
-6.152583e+04 -4.119786e+01 0.000000e+00 -4.119786e+01 -5.993734e+04 0.000000e+00 0.000000e+00 0.000000e+00 0.000000e+00
-6.150228e+04 -3.020418e+01 0.000000e+00 -3.020418e+01 -5.998045e+04 0.000000e+00 0.000000e+00 0.000000e+00 0.000000e+00
</DataArray>
<DataArray Name="vol_eps" type="Float64" NumberOfComponents="1" format="ascii">
-1.681769e-03
-1.566745e-03
-1.517436e-03
-1.531337e-03
-1.603738e-03
-1.741017e-03
-1.952060e-03
-2.236062e-03
-2.570806e-03
-2.915109e-03
-3.008806e-03
-1.612819e-03
-1.517015e-03
-1.480709e-03
-1.494928e-03
-1.563334e-03
-1.691972e-03
-1.893073e-03
-2.182104e-03
-2.568090e-03
-3.014433e-03
-3.376219e-03
-1.486724e-03
-1.411647e-03
-1.383254e-03
-1.392662e-03
-1.441345e-03
-1.536139e-03
-1.689890e-03
-1.937861e-03
-2.376232e-03
-3.237863e-03
-4.391044e-03
-1.313775e-03
-1.261154e-03
-1.238365e-03
-1.239188e-03
-1.258591e-03
-1.293875e-03
-1.336865e-03
-1.366147e-03
-1.334014e-03
-1.076365e-03
-9.912135e-04
-1.106663e-03
-1.080383e-03
-1.065191e-03
-1.057942e-03
-1.052890e-03
-1.041646e-03
-1.011452e-03
-9.387924e-04
-7.890289e-04
-5.282599e-04
9.889864e-06
-8.923375e-04
-8.908888e-04
-8.850767e-04
-8.747207e-04
-8.554168e-04
-8.199990e-04
-7.580899e-04
-6.549485e-04
-4.890347e-04
-1.841000e-04
1.868235e-04
-6.935961e-04
-7.126842e-04
-7.167087e-04
-7.073690e-04
-6.828682e-04
-6.392059e-04
-5.683517e-04
-4.604995e-04
-2.962025e-04
-4.697481e-05
2.001592e-04
-5.228953e-04
-5.556168e-04
-5.679809e-04
-5.619752e-04
-5.384163e-04
-4.946569e-04
-4.265926e-04
-3.274347e-04
-1.883492e-04
1.822533e-06
1.709348e-04
-3.853337e-04
-4.228470e-04
-4.400502e-04
-4.394307e-04
-4.207819e-04
-3.825704e-04
-3.237388e-04
-2.408859e-04
-1.301839e-04
1.032099e-05
1.281897e-04
-2.763968e-04
-3.149421e-04
-3.364626e-04
-3.409507e-04
-3.274061e-04
-2.971397e-04
-2.501949e-04
-1.848597e-04
-1.004733e-04
9.662319e-07
8.354822e-05
-1.932178e-04
-2.314120e-04
-2.553381e-04
-2.628425e-04
-2.549793e-04
-2.333714e-04
-1.980409e-04
-1.490069e-04
-8.774878e-05
-1.729463e-05
3.903227e-05
-1.319556e-04
-1.677785e-04
-1.918949e-04
-2.021418e-04
-1.998313e-04
-1.860758e-04
-1.612281e-04
-1.261944e-04
-8.394876e-05
-3.799523e-05
-2.342254e-06
-8.566902e-05
-1.188367e-04
-1.432005e-04
-1.555059e-04
-1.581434e-04
-1.513544e-04
-1.354336e-04
-1.122544e-04
-8.500880e-05
-5.706594e-05
-3.691507e-05
-4.983416e-05
-8.068224e-05
-1.053923e-04
-1.200839e-04
-1.272221e-04
-1.262152e-04
-1.174507e-04
-1.037859e-04
-8.819885e-05
-7.305569e-05
-6.388612e-05
-1.957509e-05
-4.926240e-05
-7.560344e-05
-9.370119e-05
-1.048321e-04
-1.083661e-04
-1.052778e-04
-9.878782e-05
-9.136683e-05
-8.509967e-05
-8.308325e-05
1.725074e-05
-2.034371e-05
-5.293593e-05
-7.612368e-05
-9.095801e-05
-9.739880e-05
-9.791744e-05
-9.590456e-05
-9.317915e-05
-9.231291e-05
-9.427832e-05
6.075207e-05
6.408049e-06
-4.133743e-05
-6.961300e-05
-8.622256e-05
-9.352946e-05
-9.508758e-05
-9.461275e-05
-9.364617e-05
-9.461903e-05
-9.788987e-05
</DataArray>
</PointData>
</Piece>
</UnstructuredGrid>
</VTKFile>
