<?xml version="1.0"?>
<VTKFile type="UnstructuredGrid" version="0.1">
<UnstructuredGrid>
<FieldData>
<DataArray Name="TIME" type="Float64" format="ascii" NumberOfTuples="1">
0.000000e+00
</DataArray>
</FieldData>
<FieldData>
<DataArray Name="CYCLE" type="Int32" format="ascii" NumberOfTuples="1">
0
</DataArray>
</FieldData>
<Piece NumberOfPoints="187" NumberOfCells="160">
<Points>
<DataArray NumberOfComponents="3" type="Float64" format="ascii">
0.000000e+00 0.000000e+00 0.000000e+00
0.000000e+00 1.987690e-01 0.000000e+00
0.000000e+00 3.971015e-01 0.000000e+00
0.000000e+00 5.950204e-01 0.000000e+00
0.000000e+00 7.926429e-01 0.000000e+00
0.000000e+00 9.900452e-01 0.000000e+00
0.000000e+00 1.187300e+00 0.000000e+00
0.000000e+00 1.384497e+00 0.000000e+00
0.000000e+00 1.581799e+00 0.000000e+00
0.000000e+00 1.779509e+00 0.000000e+00
0.000000e+00 1.977500e+00 0.000000e+00
2.250000e-01 0.000000e+00 0.000000e+00
2.254834e-01 1.988406e-01 0.000000e+00
2.259609e-01 3.973071e-01 0.000000e+00
2.263458e-01 5.953990e-01 0.000000e+00
2.265777e-01 7.931766e-01 0.000000e+00
2.266755e-01 9.907045e-01 0.000000e+00
2.266479e-01 1.188037e+00 0.000000e+00
2.264802e-01 1.385229e+00 0.000000e+00
2.260377e-01 1.582388e+00 0.000000e+00
2.252855e-01 1.779667e+00 0.000000e+00
2.250000e-01 1.977500e+00 0.000000e+00
4.500000e-01 0.000000e+00 0.000000e+00
4.508737e-01 1.989894e-01 0.000000e+00
4.516823e-01 3.977563e-01 0.000000e+00
4.523615e-01 5.963208e-01 0.000000e+00
4.528538e-01 7.946648e-01 0.000000e+00
4.531521e-01 9.927445e-01 0.000000e+00
4.532695e-01 1.190506e+00 0.000000e+00
4.531775e-01 1.387929e+00 0.000000e+00
4.526641e-01 1.584963e+00 0.000000e+00
4.518078e-01 1.781463e+00 0.000000e+00
4.500000e-01 1.977500e+00 0.000000e+00
6.750000e-01 0.000000e+00 0.000000e+00
6.761187e-01 1.991750e-01 0.000000e+00
6.770554e-01 3.982790e-01 0.000000e+00
6.778235e-01 5.973642e-01 0.000000e+00
6.784243e-01 7.964619e-01 0.000000e+00
6.788674e-01 9.956053e-01 0.000000e+00
6.791652e-01 1.194836e+00 0.000000e+00
6.793078e-01 1.394192e+00 0.000000e+00
6.790867e-01 1.593720e+00 0.000000e+00
6.784951e-01 1.793569e+00 0.000000e+00
6.759700e-01 1.994125e+00 0.000000e+00
9.000000e-01 0.000000e+00 0.000000e+00
9.012120e-01 1.993650e-01 0.000000e+00
9.021383e-01 3.987400e-01 0.000000e+00
9.028584e-01 5.981531e-01 0.000000e+00
9.034008e-01 7.976204e-01 0.000000e+00
9.037720e-01 9.971589e-01 0.000000e+00
9.039696e-01 1.196794e+00 0.000000e+00
9.039558e-01 1.396569e+00 0.000000e+00
9.036085e-01 1.596513e+00 0.000000e+00
9.026603e-01 1.796651e+00 0.000000e+00
9.009680e-01 1.996606e+00 0.000000e+00
1.125000e+00 0.000000e+00 0.000000e+00
1.126192e+00 1.995352e-01 0.000000e+00
1.127053e+00 3.991185e-01 0.000000e+00
1.127699e+00 5.987554e-01 0.000000e+00
1.128167e+00 7.984535e-01 0.000000e+00
1.128462e+00 9.982239e-01 0.000000e+00
1.128570e+00 1.198084e+00 0.000000e+00
1.128458e+00 1.398046e+00 0.000000e+00
1.128040e+00 1.598111e+00 0.000000e+00
1.127249e+00 1.798200e+00 0.000000e+00
1.126182e+00 1.998228e+00 0.000000e+00
1.350000e+00 0.000000e+00 0.000000e+00
1.351096e+00 1.996735e-01 0.000000e+00
1.351874e+00 3.994093e-01 0.000000e+00
1.352445e+00 5.991992e-01 0.000000e+00
1.352845e+00 7.990461e-01 0.000000e+00
1.353076e+00 9.989561e-01 0.000000e+00
1.353127e+00 1.198933e+00 0.000000e+00
1.352977e+00 1.398978e+00 0.000000e+00
1.352598e+00 1.599068e+00 0.000000e+00
1.352001e+00 1.799155e+00 0.000000e+00
1.351314e+00 1.999169e+00 0.000000e+00
1.575000e+00 0.000000e+00 0.000000e+00
1.575962e+00 1.997760e-01 0.000000e+00
1.576649e+00 3.996165e-01 0.000000e+00
1.577151e+00 5.995086e-01 0.000000e+00
1.577491e+00 7.994512e-01 0.000000e+00
1.577674e+00 9.994439e-01 0.000000e+00
1.577695e+00 1.199486e+00 0.000000e+00
1.577551e+00 1.399569e+00 0.000000e+00
1.577244e+00 1.599669e+00 0.000000e+00
1.576818e+00 1.799746e+00 0.000000e+00
1.576375e+00 1.999769e+00 0.000000e+00
1.800000e+00 0.000000e+00 0.000000e+00
1.800814e+00 1.998481e-01 0.000000e+00
1.801410e+00 3.997585e-01 0.000000e+00
1.801845e+00 5.997174e-01 0.000000e+00
1.802134e+00 7.997191e-01 0.000000e+00
1.802283e+00 9.997619e-01 0.000000e+00
1.802295e+00 1.199840e+00 0.000000e+00
1.802176e+00 1.399939e+00 0.000000e+00
1.801946e+00 1.600038e+00 0.000000e+00
1.801652e+00 1.800112e+00 0.000000e+00
1.801372e+00 2.000144e+00 0.000000e+00
2.025000e+00 0.000000e+00 0.000000e+00
2.025668e+00 1.998952e-01 0.000000e+00
2.026176e+00 3.998505e-01 0.000000e+00
2.026547e+00 5.998503e-01 0.000000e+00
2.026791e+00 7.998891e-01 0.000000e+00
2.026916e+00 9.999605e-01 0.000000e+00
2.026929e+00 1.200055e+00 0.000000e+00
2.026842e+00 1.400159e+00 0.000000e+00
2.026679e+00 1.600256e+00 0.000000e+00
2.026484e+00 1.800330e+00 0.000000e+00
2.026315e+00 2.000372e+00 0.000000e+00
2.250000e+00 0.000000e+00 0.000000e+00
2.250535e+00 1.999264e-01 0.000000e+00
2.250956e+00 3.999084e-01 0.000000e+00
2.251266e+00 5.999323e-01 0.000000e+00
2.251472e+00 7.999908e-01 0.000000e+00
2.251578e+00 1.000076e+00 0.000000e+00
2.251595e+00 1.200177e+00 0.000000e+00
2.251538e+00 1.400281e+00 0.000000e+00
2.251429e+00 1.600376e+00 0.000000e+00
2.251305e+00 1.800451e+00 0.000000e+00
2.251211e+00 2.000503e+00 0.000000e+00
2.475000e+00 0.000000e+00 0.000000e+00
2.475419e+00 1.999455e-01 0.000000e+00
2.475757e+00 3.999417e-01 0.000000e+00
2.476010e+00 5.999791e-01 0.000000e+00
2.476178e+00 8.000471e-01 0.000000e+00
2.476269e+00 1.000137e+00 0.000000e+00
2.476290e+00 1.200238e+00 0.000000e+00
2.476255e+00 1.400341e+00 0.000000e+00
2.476187e+00 1.600433e+00 0.000000e+00
2.476113e+00 1.800511e+00 0.000000e+00
2.476067e+00 2.000571e+00 0.000000e+00
2.700000e+00 0.000000e+00 0.000000e+00
2.700317e+00 1.999573e-01 0.000000e+00
2.700578e+00 3.999620e-01 0.000000e+00
2.700777e+00 6.000048e-01 0.000000e+00
2.700910e+00 8.000760e-01 0.000000e+00
2.700984e+00 1.000166e+00 0.000000e+00
2.701007e+00 1.200266e+00 0.000000e+00
2.700989e+00 1.400365e+00 0.000000e+00
2.700949e+00 1.600456e+00 0.000000e+00
2.700908e+00 1.800535e+00 0.000000e+00
2.700891e+00 2.000603e+00 0.000000e+00
2.925000e+00 0.000000e+00 0.000000e+00
2.925228e+00 1.999650e-01 0.000000e+00
2.925419e+00 3.999740e-01 0.000000e+00
2.925565e+00 6.000193e-01 0.000000e+00
2.925664e+00 8.000908e-01 0.000000e+00
2.925720e+00 1.000180e+00 0.000000e+00
2.925740e+00 1.200277e+00 0.000000e+00
2.925733e+00 1.400373e+00 0.000000e+00
2.925712e+00 1.600463e+00 0.000000e+00
2.925692e+00 1.800544e+00 0.000000e+00
2.925690e+00 2.000617e+00 0.000000e+00
3.150000e+00 0.000000e+00 0.000000e+00
3.150149e+00 1.999713e-01 0.000000e+00
3.150273e+00 3.999834e-01 0.000000e+00
3.150368e+00 6.000302e-01 0.000000e+00
3.150434e+00 8.001018e-01 0.000000e+00
3.150472e+00 1.000189e+00 0.000000e+00
3.150487e+00 1.200284e+00 0.000000e+00
3.150485e+00 1.400378e+00 0.000000e+00
3.150475e+00 1.600466e+00 0.000000e+00
3.150466e+00 1.800548e+00 0.000000e+00
3.150470e+00 2.000625e+00 0.000000e+00
3.375000e+00 0.000000e+00 0.000000e+00
3.375075e+00 1.999774e-01 0.000000e+00
3.375135e+00 3.999946e-01 0.000000e+00
3.375182e+00 6.000438e-01 0.000000e+00
3.375214e+00 8.001158e-01 0.000000e+00
3.375233e+00 1.000202e+00 0.000000e+00
3.375241e+00 1.200294e+00 0.000000e+00
3.375242e+00 1.400387e+00 0.000000e+00
3.375237e+00 1.600475e+00 0.000000e+00
3.375235e+00 1.800558e+00 0.000000e+00
3.375238e+00 2.000638e+00 0.000000e+00
3.600000e+00 0.000000e+00 0.000000e+00
3.600000e+00 1.999929e-01 0.000000e+00
3.600000e+00 4.000152e-01 0.000000e+00
3.600000e+00 6.000656e-01 0.000000e+00
3.600000e+00 8.001371e-01 0.000000e+00
3.600000e+00 1.000222e+00 0.000000e+00
3.600000e+00 1.200314e+00 0.000000e+00
3.600000e+00 1.400406e+00 0.000000e+00
3.600000e+00 1.600494e+00 0.000000e+00
3.600000e+00 1.800577e+00 0.000000e+00
3.600000e+00 2.000658e+00 0.000000e+00
</DataArray>
</Points>
<Cells>
<DataArray Name="connectivity" type="Int32" format="ascii">
0 11 12 1
1 12 13 2
2 13 14 3
3 14 15 4
4 15 16 5
5 16 17 6
6 17 18 7
7 18 19 8
8 19 20 9
9 20 21 10
11 22 23 12
12 23 24 13
13 24 25 14
14 25 26 15
15 26 27 16
16 27 28 17
17 28 29 18
18 29 30 19
19 30 31 20
20 31 32 21
22 33 34 23
23 34 35 24
24 35 36 25
25 36 37 26
26 37 38 27
27 38 39 28
28 39 40 29
29 40 41 30
30 41 42 31
31 42 43 32
33 44 45 34
34 45 46 35
35 46 47 36
36 47 48 37
37 48 49 38
38 49 50 39
39 50 51 40
40 51 52 41
41 52 53 42
42 53 54 43
44 55 56 45
45 56 57 46
46 57 58 47
47 58 59 48
48 59 60 49
49 60 61 50
50 61 62 51
51 62 63 52
52 63 64 53
53 64 65 54
55 66 67 56
56 67 68 57
57 68 69 58
58 69 70 59
59 70 71 60
60 71 72 61
61 72 73 62
62 73 74 63
63 74 75 64
64 75 76 65
66 77 78 67
67 78 79 68
68 79 80 69
69 80 81 70
70 81 82 71
71 82 83 72
72 83 84 73
73 84 85 74
74 85 86 75
75 86 87 76
77 88 89 78
78 89 90 79
79 90 91 80
80 91 92 81
81 92 93 82
82 93 94 83
83 94 95 84
84 95 96 85
85 96 97 86
86 97 98 87
88 99 100 89
89 100 101 90
90 101 102 91
91 102 103 92
92 103 104 93
93 104 105 94
94 105 106 95
95 106 107 96
96 107 108 97
97 108 109 98
99 110 111 100
100 111 112 101
101 112 113 102
102 113 114 103
103 114 115 104
104 115 116 105
105 116 117 106
106 117 118 107
107 118 119 108
108 119 120 109
110 121 122 111
111 122 123 112
112 123 124 113
113 124 125 114
114 125 126 115
115 126 127 116
116 127 128 117
117 128 129 118
118 129 130 119
119 130 131 120
121 132 133 122
122 133 134 123
123 134 135 124
124 135 136 125
125 136 137 126
126 137 138 127
127 138 139 128
128 139 140 129
129 140 141 130
130 141 142 131
132 143 144 133
133 144 145 134
134 145 146 135
135 146 147 136
136 147 148 137
137 148 149 138
138 149 150 139
139 150 151 140
140 151 152 141
141 152 153 142
143 154 155 144
144 155 156 145
145 156 157 146
146 157 158 147
147 158 159 148
148 159 160 149
149 160 161 150
150 161 162 151
151 162 163 152
152 163 164 153
154 165 166 155
155 166 167 156
156 167 168 157
157 168 169 158
158 169 170 159
159 170 171 160
160 171 172 161
161 172 173 162
162 173 174 163
163 174 175 164
165 176 177 166
166 177 178 167
167 178 179 168
168 179 180 169
169 180 181 170
170 181 182 171
171 182 183 172
172 183 184 173
173 184 185 174
174 185 186 175
</DataArray>
<DataArray Name="offsets" type="Int32" format="ascii">
4
8
12
16
20
24
28
32
36
40
44
48
52
56
60
64
68
72
76
80
84
88
92
96
100
104
108
112
116
120
124
128
132
136
140
144
148
152
156
160
164
168
172
176
180
184
188
192
196
200
204
208
212
216
220
224
228
232
236
240
244
248
252
256
260
264
268
272
276
280
284
288
292
296
300
304
308
312
316
320
324
328
332
336
340
344
348
352
356
360
364
368
372
376
380
384
388
392
396
400
404
408
412
416
420
424
428
432
436
440
444
448
452
456
460
464
468
472
476
480
484
488
492
496
500
504
508
512
516
520
524
528
532
536
540
544
548
552
556
560
564
568
572
576
580
584
588
592
596
600
604
608
612
616
620
624
628
632
636
640
</DataArray>
<DataArray Name="types" type="UInt8" format="ascii">
9
9
9
9
9
9
9
9
9
9
9
9
9
9
9
9
9
9
9
9
9
9
9
9
9
9
9
9
9
9
9
9
9
9
9
9
9
9
9
9
9
9
9
9
9
9
9
9
9
9
9
9
9
9
9
9
9
9
9
9
9
9
9
9
9
9
9
9
9
9
9
9
9
9
9
9
9
9
9
9
9
9
9
9
9
9
9
9
9
9
9
9
9
9
9
9
9
9
9
9
9
9
9
9
9
9
9
9
9
9
9
9
9
9
9
9
9
9
9
9
9
9
9
9
9
9
9
9
9
9
9
9
9
9
9
9
9
9
9
9
9
9
9
9
9
9
9
9
9
9
9
9
9
9
9
9
9
9
9
9
</DataArray>
</Cells>
<PointData>
<DataArray Name="disp" type="Float64" NumberOfComponents="3" format="ascii">
0.000000e+00 0.000000e+00 0.000000e+00
0.000000e+00 -1.230967e-03 0.000000e+00
0.000000e+00 -2.898527e-03 0.000000e+00
0.000000e+00 -4.979560e-03 0.000000e+00
0.000000e+00 -7.357085e-03 0.000000e+00
0.000000e+00 -9.954787e-03 0.000000e+00
0.000000e+00 -1.269955e-02 0.000000e+00
0.000000e+00 -1.550306e-02 0.000000e+00
0.000000e+00 -1.820109e-02 0.000000e+00
0.000000e+00 -2.049130e-02 0.000000e+00
0.000000e+00 -2.250000e-02 0.000000e+00
0.000000e+00 0.000000e+00 0.000000e+00
4.834331e-04 -1.159364e-03 0.000000e+00
9.609124e-04 -2.692873e-03 0.000000e+00
1.345771e-03 -4.600949e-03 0.000000e+00
1.577750e-03 -6.823432e-03 0.000000e+00
1.675524e-03 -9.295436e-03 0.000000e+00
1.647871e-03 -1.196329e-02 0.000000e+00
1.480168e-03 -1.477150e-02 0.000000e+00
1.037720e-03 -1.761154e-02 0.000000e+00
2.854494e-04 -2.033304e-02 0.000000e+00
0.000000e+00 -2.250000e-02 0.000000e+00
0.000000e+00 0.000000e+00 0.000000e+00
8.737036e-04 -1.010639e-03 0.000000e+00
1.682281e-03 -2.243652e-03 0.000000e+00
2.361536e-03 -3.679175e-03 0.000000e+00
2.853822e-03 -5.335178e-03 0.000000e+00
3.152146e-03 -7.255523e-03 0.000000e+00
3.269476e-03 -9.493788e-03 0.000000e+00
3.177447e-03 -1.207089e-02 0.000000e+00
2.664105e-03 -1.503723e-02 0.000000e+00
1.807781e-03 -1.853736e-02 0.000000e+00
0.000000e+00 -2.250000e-02 0.000000e+00
0.000000e+00 0.000000e+00 0.000000e+00
1.118747e-03 -8.249546e-04 0.000000e+00
2.055447e-03 -1.721055e-03 0.000000e+00
2.823499e-03 -2.635737e-03 0.000000e+00
3.424304e-03 -3.538050e-03 0.000000e+00
3.867400e-03 -4.394737e-03 0.000000e+00
4.165243e-03 -5.164213e-03 0.000000e+00
4.307776e-03 -5.807984e-03 0.000000e+00
4.086740e-03 -6.280054e-03 0.000000e+00
3.495097e-03 -6.430681e-03 0.000000e+00
9.700316e-04 -5.874560e-03 0.000000e+00
0.000000e+00 0.000000e+00 0.000000e+00
1.211960e-03 -6.350462e-04 0.000000e+00
2.138283e-03 -1.260009e-03 0.000000e+00
2.858364e-03 -1.846938e-03 0.000000e+00
3.400808e-03 -2.379642e-03 0.000000e+00
3.771991e-03 -2.841037e-03 0.000000e+00
3.969589e-03 -3.206122e-03 0.000000e+00
3.955806e-03 -3.430617e-03 0.000000e+00
3.608493e-03 -3.487330e-03 0.000000e+00
2.660318e-03 -3.349474e-03 0.000000e+00
9.679892e-04 -3.394487e-03 0.000000e+00
0.000000e+00 0.000000e+00 0.000000e+00
1.192206e-03 -4.647902e-04 0.000000e+00
2.053090e-03 -8.814430e-04 0.000000e+00
2.699059e-03 -1.244608e-03 0.000000e+00
3.166891e-03 -1.546550e-03 0.000000e+00
3.462423e-03 -1.776107e-03 0.000000e+00
3.569763e-03 -1.916414e-03 0.000000e+00
3.457774e-03 -1.953969e-03 0.000000e+00
3.039876e-03 -1.888961e-03 0.000000e+00
2.248725e-03 -1.800228e-03 0.000000e+00
1.182274e-03 -1.772079e-03 0.000000e+00
0.000000e+00 0.000000e+00 0.000000e+00
1.096192e-03 -3.264897e-04 0.000000e+00
1.874020e-03 -5.907252e-04 0.000000e+00
2.445467e-03 -8.008060e-04 0.000000e+00
2.845377e-03 -9.538981e-04 0.000000e+00
3.075658e-03 -1.043886e-03 0.000000e+00
3.127010e-03 -1.066675e-03 0.000000e+00
2.976856e-03 -1.022148e-03 0.000000e+00
2.597899e-03 -9.316684e-04 0.000000e+00
2.001239e-03 -8.447182e-04 0.000000e+00
1.314210e-03 -8.314574e-04 0.000000e+00
0.000000e+00 0.000000e+00 0.000000e+00
9.618201e-04 -2.240338e-04 0.000000e+00
1.649235e-03 -3.834912e-04 0.000000e+00
2.150642e-03 -4.913675e-04 0.000000e+00
2.491361e-03 -5.487933e-04 0.000000e+00
2.673999e-03 -5.560652e-04 0.000000e+00
2.695535e-03 -5.136660e-04 0.000000e+00
2.550971e-03 -4.306055e-04 0.000000e+00
2.244265e-03 -3.312086e-04 0.000000e+00
1.818253e-03 -2.542574e-04 0.000000e+00
1.374992e-03 -2.312271e-04 0.000000e+00
0.000000e+00 0.000000e+00 0.000000e+00
8.135570e-04 -1.518867e-04 0.000000e+00
1.409661e-03 -2.414721e-04 0.000000e+00
1.845025e-03 -2.825368e-04 0.000000e+00
2.134284e-03 -2.808960e-04 0.000000e+00
2.283158e-03 -2.381215e-04 0.000000e+00
2.294907e-03 -1.603378e-04 0.000000e+00
2.175737e-03 -6.111833e-05 0.000000e+00
1.946372e-03 3.782141e-05 0.000000e+00
1.652226e-03 1.121833e-04 0.000000e+00
1.372033e-03 1.442591e-04 0.000000e+00
0.000000e+00 0.000000e+00 0.000000e+00
6.676065e-04 -1.047481e-04 0.000000e+00
1.175631e-03 -1.495157e-04 0.000000e+00
1.546677e-03 -1.496746e-04 0.000000e+00
1.791136e-03 -1.108694e-04 0.000000e+00
1.916286e-03 -3.954627e-05 0.000000e+00
1.928787e-03 5.512216e-05 0.000000e+00
1.841550e-03 1.591084e-04 0.000000e+00
1.679388e-03 2.560146e-04 0.000000e+00
1.483944e-03 3.301622e-04 0.000000e+00
1.314933e-03 3.723463e-04 0.000000e+00
0.000000e+00 0.000000e+00 0.000000e+00
5.355276e-04 -7.357720e-05 0.000000e+00
9.564016e-04 -9.162833e-05 0.000000e+00
1.266140e-03 -6.768636e-05 0.000000e+00
1.471451e-03 -9.208379e-06 0.000000e+00
1.578024e-03 7.600855e-05 0.000000e+00
1.595420e-03 1.767473e-04 0.000000e+00
1.537695e-03 2.806881e-04 0.000000e+00
1.429128e-03 3.755249e-04 0.000000e+00
1.305097e-03 4.508652e-04 0.000000e+00
1.210833e-03 5.027676e-04 0.000000e+00
0.000000e+00 0.000000e+00 0.000000e+00
4.187596e-04 -5.445511e-05 0.000000e+00
7.570461e-04 -5.828659e-05 0.000000e+00
1.009515e-03 -2.088257e-05 0.000000e+00
1.178182e-03 4.707141e-05 0.000000e+00
1.268560e-03 1.370326e-04 0.000000e+00
1.289799e-03 2.383737e-04 0.000000e+00
1.255516e-03 3.405529e-04 0.000000e+00
1.187157e-03 4.335205e-04 0.000000e+00
1.113059e-03 5.105367e-04 0.000000e+00
1.067265e-03 5.712224e-04 0.000000e+00
0.000000e+00 0.000000e+00 0.000000e+00
3.171337e-04 -4.270919e-05 0.000000e+00
5.784564e-04 -3.800368e-05 0.000000e+00
7.767684e-04 4.762866e-06 0.000000e+00
9.100281e-04 7.599910e-05 0.000000e+00
9.844820e-04 1.661913e-04 0.000000e+00
1.006634e-03 2.657998e-04 0.000000e+00
9.889553e-04 3.651434e-04 0.000000e+00
9.489460e-04 4.564632e-04 0.000000e+00
9.079484e-04 5.353662e-04 0.000000e+00
8.912488e-04 6.030225e-04 0.000000e+00
0.000000e+00 0.000000e+00 0.000000e+00
2.280653e-04 -3.498523e-05 0.000000e+00
4.187292e-04 -2.601343e-05 0.000000e+00
5.646008e-04 1.924685e-05 0.000000e+00
6.636706e-04 9.086248e-05 0.000000e+00
7.204175e-04 1.797351e-04 0.000000e+00
7.404722e-04 2.768776e-04 0.000000e+00
7.333479e-04 3.733191e-04 0.000000e+00
7.118346e-04 4.631409e-04 0.000000e+00
6.916393e-04 5.436930e-04 0.000000e+00
6.899755e-04 6.167676e-04 0.000000e+00
0.000000e+00 0.000000e+00 0.000000e+00
1.488442e-04 -2.866006e-05 0.000000e+00
2.727636e-04 -1.663117e-05 0.000000e+00
3.682823e-04 3.025621e-05 0.000000e+00
4.338477e-04 1.018268e-04 0.000000e+00
4.717598e-04 1.889943e-04 0.000000e+00
4.867749e-04 2.835015e-04 0.000000e+00
4.850733e-04 3.776060e-04 0.000000e+00
4.748334e-04 4.663439e-04 0.000000e+00
4.662393e-04 5.482312e-04 0.000000e+00
4.701456e-04 6.254455e-04 0.000000e+00
0.000000e+00 0.000000e+00 0.000000e+00
7.530317e-05 -2.256424e-05 0.000000e+00
1.350027e-04 -5.365818e-06 0.000000e+00
1.818803e-04 4.378321e-05 0.000000e+00
2.144196e-04 1.157499e-04 0.000000e+00
2.332984e-04 2.017203e-04 0.000000e+00
2.413183e-04 2.942889e-04 0.000000e+00
2.414262e-04 3.868413e-04 0.000000e+00
2.374664e-04 4.749470e-04 0.000000e+00
2.346584e-04 5.577260e-04 0.000000e+00
2.380094e-04 6.375185e-04 0.000000e+00
0.000000e+00 0.000000e+00 0.000000e+00
0.000000e+00 -7.102746e-06 0.000000e+00
0.000000e+00 1.520177e-05 0.000000e+00
0.000000e+00 6.559325e-05 0.000000e+00
0.000000e+00 1.371196e-04 0.000000e+00
0.000000e+00 2.222722e-04 0.000000e+00
0.000000e+00 3.140152e-04 0.000000e+00
0.000000e+00 4.060931e-04 0.000000e+00
0.000000e+00 4.940472e-04 0.000000e+00
0.000000e+00 5.771822e-04 0.000000e+00
0.000000e+00 6.578307e-04 0.000000e+00
</DataArray>
<DataArray Name="shear" type="Float64" NumberOfComponents="1" format="ascii">
6.830432e-03
9.314192e-03
1.345236e-02
1.692325e-02
1.934534e-02
2.081070e-02
2.131826e-02
2.049694e-02
1.746037e-02
1.291240e-02
1.078363e-02
6.870275e-03
9.038077e-03
1.265034e-02
1.587877e-02
1.849689e-02
2.048886e-02
2.176004e-02
2.188792e-02
2.034079e-02
1.683586e-02
1.364611e-02
7.114792e-03
8.510953e-03
1.078526e-02
1.313543e-02
1.580901e-02
1.896479e-02
2.257359e-02
2.622763e-02
2.998294e-02
3.230698e-02
3.249334e-02
7.235097e-03
7.777293e-03
8.549608e-03
9.528480e-03
1.098414e-02
1.316007e-02
1.620278e-02
1.982948e-02
2.416230e-02
2.682114e-02
2.846742e-02
7.039824e-03
6.961633e-03
6.731450e-03
6.785350e-03
7.021861e-03
7.367052e-03
7.708791e-03
7.745078e-03
7.022036e-03
4.339006e-03
1.281980e-03
6.540716e-03
6.133237e-03
5.447735e-03
5.183496e-03
5.089305e-03
5.042511e-03
4.942185e-03
4.576103e-03
3.616484e-03
1.732395e-03
1.191992e-04
5.828106e-03
5.312410e-03
4.495969e-03
4.116543e-03
3.891530e-03
3.702859e-03
3.469954e-03
3.071275e-03
2.336411e-03
1.129342e-03
1.709619e-04
5.019129e-03
4.526438e-03
3.764380e-03
3.376920e-03
3.127940e-03
2.929746e-03
2.718707e-03
2.398873e-03
1.856106e-03
9.932671e-04
3.153324e-04
4.198477e-03
3.792601e-03
3.175667e-03
2.843278e-03
2.638596e-03
2.491838e-03
2.331692e-03
2.079742e-03
1.657632e-03
1.007911e-03
5.114841e-04
3.425170e-03
3.124384e-03
2.674342e-03
2.430251e-03
2.300926e-03
2.213777e-03
2.099881e-03
1.901035e-03
1.567921e-03
1.071900e-03
7.127231e-04
2.735401e-03
2.524725e-03
2.229765e-03
2.090762e-03
2.040062e-03
2.008404e-03
1.936540e-03
1.784264e-03
1.522910e-03
1.152685e-03
9.028244e-04
2.132986e-03
1.992157e-03
1.835046e-03
1.801338e-03
1.825938e-03
1.843994e-03
1.810472e-03
1.698664e-03
1.498834e-03
1.234552e-03
1.070295e-03
1.612619e-03
1.526858e-03
1.490599e-03
1.557402e-03
1.651033e-03
1.712965e-03
1.710347e-03
1.632113e-03
1.486550e-03
1.308441e-03
1.208383e-03
1.160235e-03
1.121403e-03
1.197931e-03
1.362299e-03
1.514998e-03
1.611812e-03
1.632743e-03
1.581905e-03
1.481577e-03
1.370085e-03
1.315974e-03
7.588351e-04
7.685670e-04
9.707983e-04
1.223862e-03
1.420270e-03
1.538586e-03
1.576260e-03
1.547416e-03
1.481404e-03
1.417515e-03
1.394364e-03
3.910742e-04
4.935837e-04
8.326055e-04
1.143590e-03
1.364600e-03
1.493891e-03
1.542155e-03
1.528415e-03
1.484046e-03
1.448052e-03
1.442274e-03
1.567034e-04
3.853424e-04
7.873597e-04
1.113947e-03
1.343015e-03
1.477240e-03
1.530669e-03
1.523276e-03
1.486382e-03
1.458986e-03
1.458186e-03
</DataArray>
<DataArray Name="stress" type="Float64" NumberOfComponents="9" format="ascii">
-8.123849e+04 2.196628e+03 0.000000e+00 2.196628e+03 -1.214126e+05 0.000000e+00 0.000000e+00 0.000000e+00 0.000000e+00
-7.567523e+04 2.395402e+03 0.000000e+00 2.395402e+03 -1.219902e+05 0.000000e+00 0.000000e+00 0.000000e+00 0.000000e+00
-7.358298e+04 2.784730e+03 0.000000e+00 2.784730e+03 -1.275331e+05 0.000000e+00 0.000000e+00 0.000000e+00 0.000000e+00
-7.333664e+04 3.419993e+03 0.000000e+00 3.419993e+03 -1.337410e+05 0.000000e+00 0.000000e+00 0.000000e+00 0.000000e+00
-7.427851e+04 4.045917e+03 0.000000e+00 4.045917e+03 -1.408846e+05 0.000000e+00 0.000000e+00 0.000000e+00 0.000000e+00
-7.685780e+04 4.431942e+03 0.000000e+00 4.431942e+03 -1.484911e+05 0.000000e+00 0.000000e+00 0.000000e+00 0.000000e+00
-8.074188e+04 4.539953e+03 0.000000e+00 4.539953e+03 -1.561297e+05 0.000000e+00 0.000000e+00 0.000000e+00 0.000000e+00
-8.581459e+04 3.975867e+03 0.000000e+00 3.975867e+03 -1.626929e+05 0.000000e+00 0.000000e+00 0.000000e+00 0.000000e+00
-9.284169e+04 2.163867e+03 0.000000e+00 2.163867e+03 -1.666603e+05 0.000000e+00 0.000000e+00 0.000000e+00 0.000000e+00
-1.022830e+05 -2.366142e+02 0.000000e+00 -2.366142e+02 -1.687869e+05 0.000000e+00 0.000000e+00 0.000000e+00 0.000000e+00
-1.065336e+05 -8.961400e+02 0.000000e+00 -8.961400e+02 -1.679260e+05 0.000000e+00 0.000000e+00 0.000000e+00 0.000000e+00
-8.074421e+04 6.427420e+03 0.000000e+00 6.427420e+03 -1.181201e+05 0.000000e+00 0.000000e+00 0.000000e+00 0.000000e+00
-7.561805e+04 6.389846e+03 0.000000e+00 6.389846e+03 -1.185060e+05 0.000000e+00 0.000000e+00 0.000000e+00 0.000000e+00
-7.374835e+04 6.659867e+03 0.000000e+00 6.659867e+03 -1.236783e+05 0.000000e+00 0.000000e+00 0.000000e+00 0.000000e+00
-7.389234e+04 7.417329e+03 0.000000e+00 7.417329e+03 -1.293778e+05 0.000000e+00 0.000000e+00 0.000000e+00 0.000000e+00
-7.501484e+04 8.234386e+03 0.000000e+00 8.234386e+03 -1.359515e+05 0.000000e+00 0.000000e+00 0.000000e+00 0.000000e+00
-7.751250e+04 8.836112e+03 0.000000e+00 8.836112e+03 -1.431997e+05 0.000000e+00 0.000000e+00 0.000000e+00 0.000000e+00
-8.117088e+04 9.021912e+03 0.000000e+00 9.021912e+03 -1.510692e+05 0.000000e+00 0.000000e+00 0.000000e+00 0.000000e+00
-8.550473e+04 8.231000e+03 0.000000e+00 8.231000e+03 -1.590863e+05 0.000000e+00 0.000000e+00 0.000000e+00 0.000000e+00
-9.129686e+04 5.658452e+03 0.000000e+00 5.658452e+03 -1.675836e+05 0.000000e+00 0.000000e+00 0.000000e+00 0.000000e+00
-9.882690e+04 1.223840e+03 0.000000e+00 1.223840e+03 -1.730384e+05 0.000000e+00 0.000000e+00 0.000000e+00 0.000000e+00
-1.099169e+05 -2.951445e+03 0.000000e+00 -2.951445e+03 -1.810724e+05 0.000000e+00 0.000000e+00 0.000000e+00 0.000000e+00
-7.950037e+04 1.132110e+04 0.000000e+00 1.132110e+04 -1.108913e+05 0.000000e+00 0.000000e+00 0.000000e+00 0.000000e+00
-7.555544e+04 1.123963e+04 0.000000e+00 1.123963e+04 -1.107248e+05 0.000000e+00 0.000000e+00 0.000000e+00 0.000000e+00
-7.416511e+04 1.180895e+04 0.000000e+00 1.180895e+04 -1.140735e+05 0.000000e+00 0.000000e+00 0.000000e+00 0.000000e+00
-7.478609e+04 1.317818e+04 0.000000e+00 1.317818e+04 -1.176095e+05 0.000000e+00 0.000000e+00 0.000000e+00 0.000000e+00
-7.653759e+04 1.508826e+04 0.000000e+00 1.508826e+04 -1.219040e+05 0.000000e+00 0.000000e+00 0.000000e+00 0.000000e+00
-7.983038e+04 1.712713e+04 0.000000e+00 1.712713e+04 -1.274527e+05 0.000000e+00 0.000000e+00 0.000000e+00 0.000000e+00
-8.451335e+04 1.883485e+04 0.000000e+00 1.883485e+04 -1.342596e+05 0.000000e+00 0.000000e+00 0.000000e+00 0.000000e+00
-8.977108e+04 1.996234e+04 0.000000e+00 1.996234e+04 -1.429871e+05 0.000000e+00 0.000000e+00 0.000000e+00 0.000000e+00
-9.660375e+04 2.015939e+04 0.000000e+00 2.015939e+04 -1.548596e+05 0.000000e+00 0.000000e+00 0.000000e+00 0.000000e+00
-1.068421e+05 1.722424e+04 0.000000e+00 1.722424e+04 -1.689792e+05 0.000000e+00 0.000000e+00 0.000000e+00 0.000000e+00
-1.264406e+05 1.317932e+04 0.000000e+00 1.317932e+04 -1.887916e+05 0.000000e+00 0.000000e+00 0.000000e+00 0.000000e+00
-7.764289e+04 1.371495e+04 0.000000e+00 1.371495e+04 -1.022780e+05 0.000000e+00 0.000000e+00 0.000000e+00 0.000000e+00
-7.531290e+04 1.355772e+04 0.000000e+00 1.355772e+04 -1.018119e+05 0.000000e+00 0.000000e+00 0.000000e+00 0.000000e+00
-7.484916e+04 1.396477e+04 0.000000e+00 1.396477e+04 -1.028306e+05 0.000000e+00 0.000000e+00 0.000000e+00 0.000000e+00
-7.575405e+04 1.522742e+04 0.000000e+00 1.522742e+04 -1.032559e+05 0.000000e+00 0.000000e+00 0.000000e+00 0.000000e+00
-7.695820e+04 1.709858e+04 0.000000e+00 1.709858e+04 -1.027630e+05 0.000000e+00 0.000000e+00 0.000000e+00 0.000000e+00
-7.842952e+04 1.894404e+04 0.000000e+00 1.894404e+04 -1.010111e+05 0.000000e+00 0.000000e+00 0.000000e+00 0.000000e+00
-8.024357e+04 2.003329e+04 0.000000e+00 2.003329e+04 -9.828782e+04 0.000000e+00 0.000000e+00 0.000000e+00 0.000000e+00
-8.189640e+04 2.090224e+04 0.000000e+00 2.090224e+04 -9.463652e+04 0.000000e+00 0.000000e+00 0.000000e+00 0.000000e+00
-8.246468e+04 2.050319e+04 0.000000e+00 2.050319e+04 -8.838655e+04 0.000000e+00 0.000000e+00 0.000000e+00 0.000000e+00
-8.060198e+04 1.709280e+04 0.000000e+00 1.709280e+04 -7.803900e+04 0.000000e+00 0.000000e+00 0.000000e+00 0.000000e+00
-7.652502e+04 1.457333e+04 0.000000e+00 1.457333e+04 -7.206876e+04 0.000000e+00 0.000000e+00 0.000000e+00 0.000000e+00
-7.531867e+04 1.434759e+04 0.000000e+00 1.434759e+04 -9.363648e+04 0.000000e+00 0.000000e+00 0.000000e+00 0.000000e+00
-7.482167e+04 1.411782e+04 0.000000e+00 1.411782e+04 -9.328428e+04 0.000000e+00 0.000000e+00 0.000000e+00 0.000000e+00
-7.566997e+04 1.403969e+04 0.000000e+00 1.403969e+04 -9.305537e+04 0.000000e+00 0.000000e+00 0.000000e+00 0.000000e+00
-7.745898e+04 1.461874e+04 0.000000e+00 1.461874e+04 -9.220598e+04 0.000000e+00 0.000000e+00 0.000000e+00 0.000000e+00
-7.935410e+04 1.542800e+04 0.000000e+00 1.542800e+04 -9.057681e+04 0.000000e+00 0.000000e+00 0.000000e+00 0.000000e+00
-8.122002e+04 1.621391e+04 0.000000e+00 1.621391e+04 -8.796773e+04 0.000000e+00 0.000000e+00 0.000000e+00 0.000000e+00
-8.310275e+04 1.660559e+04 0.000000e+00 1.660559e+04 -8.427838e+04 0.000000e+00 0.000000e+00 0.000000e+00 0.000000e+00
-8.483808e+04 1.601905e+04 0.000000e+00 1.601905e+04 -7.943673e+04 0.000000e+00 0.000000e+00 0.000000e+00 0.000000e+00
-8.507236e+04 1.362508e+04 0.000000e+00 1.362508e+04 -7.268673e+04 0.000000e+00 0.000000e+00 0.000000e+00 0.000000e+00
-8.076963e+04 7.372124e+03 0.000000e+00 7.372124e+03 -6.652710e+04 0.000000e+00 0.000000e+00 0.000000e+00 0.000000e+00
-6.456025e+04 1.880755e+03 0.000000e+00 1.880755e+03 -5.899946e+04 0.000000e+00 0.000000e+00 0.000000e+00 0.000000e+00
-7.272887e+04 1.397451e+04 0.000000e+00 1.397451e+04 -8.564066e+04 0.000000e+00 0.000000e+00 0.000000e+00 0.000000e+00
-7.391221e+04 1.364509e+04 0.000000e+00 1.364509e+04 -8.541642e+04 0.000000e+00 0.000000e+00 0.000000e+00 0.000000e+00
-7.582554e+04 1.308286e+04 0.000000e+00 1.308286e+04 -8.447095e+04 0.000000e+00 0.000000e+00 0.000000e+00 0.000000e+00
-7.800554e+04 1.299042e+04 0.000000e+00 1.299042e+04 -8.301330e+04 0.000000e+00 0.000000e+00 0.000000e+00 0.000000e+00
-7.996462e+04 1.294892e+04 0.000000e+00 1.294892e+04 -8.093653e+04 0.000000e+00 0.000000e+00 0.000000e+00 0.000000e+00
-8.156996e+04 1.268854e+04 0.000000e+00 1.268854e+04 -7.811830e+04 0.000000e+00 0.000000e+00 0.000000e+00 0.000000e+00
-8.272224e+04 1.191460e+04 0.000000e+00 1.191460e+04 -7.451161e+04 0.000000e+00 0.000000e+00 0.000000e+00 0.000000e+00
-8.310700e+04 1.012350e+04 0.000000e+00 1.012350e+04 -7.018592e+04 0.000000e+00 0.000000e+00 0.000000e+00 0.000000e+00
-8.121274e+04 6.727062e+03 0.000000e+00 6.727062e+03 -6.565983e+04 0.000000e+00 0.000000e+00 0.000000e+00 0.000000e+00
-7.232802e+04 2.098452e+03 0.000000e+00 2.098452e+03 -6.218225e+04 0.000000e+00 0.000000e+00 0.000000e+00 0.000000e+00
-5.940629e+04 -1.098063e+02 0.000000e+00 -1.098063e+02 -5.899357e+04 0.000000e+00 0.000000e+00 0.000000e+00 0.000000e+00
-7.024752e+04 1.299975e+04 0.000000e+00 1.299975e+04 -7.898214e+04 0.000000e+00 0.000000e+00 0.000000e+00 0.000000e+00
-7.266373e+04 1.260779e+04 0.000000e+00 1.260779e+04 -7.886747e+04 0.000000e+00 0.000000e+00 0.000000e+00 0.000000e+00
-7.539502e+04 1.165198e+04 0.000000e+00 1.165198e+04 -7.758199e+04 0.000000e+00 0.000000e+00 0.000000e+00 0.000000e+00
-7.772147e+04 1.100257e+04 0.000000e+00 1.100257e+04 -7.596974e+04 0.000000e+00 0.000000e+00 0.000000e+00 0.000000e+00
-7.953989e+04 1.030143e+04 0.000000e+00 1.030143e+04 -7.390464e+04 0.000000e+00 0.000000e+00 0.000000e+00 0.000000e+00
-8.077894e+04 9.322213e+03 0.000000e+00 9.322213e+03 -7.137916e+04 0.000000e+00 0.000000e+00 0.000000e+00 0.000000e+00
-8.121894e+04 7.864570e+03 0.000000e+00 7.864570e+03 -6.842830e+04 0.000000e+00 0.000000e+00 0.000000e+00 0.000000e+00
-8.037791e+04 5.662377e+03 0.000000e+00 5.662377e+03 -6.531521e+04 0.000000e+00 0.000000e+00 0.000000e+00 0.000000e+00
-7.688556e+04 2.693348e+03 0.000000e+00 2.693348e+03 -6.251661e+04 0.000000e+00 0.000000e+00 0.000000e+00 0.000000e+00
-6.867297e+04 1.085252e+02 0.000000e+00 1.085252e+02 -6.070155e+04 0.000000e+00 0.000000e+00 0.000000e+00 0.000000e+00
-6.000665e+04 -8.272950e+02 0.000000e+00 -8.272950e+02 -5.907331e+04 0.000000e+00 0.000000e+00 0.000000e+00 0.000000e+00
-6.808761e+04 1.171610e+04 0.000000e+00 1.171610e+04 -7.382725e+04 0.000000e+00 0.000000e+00 0.000000e+00 0.000000e+00
-7.124826e+04 1.128586e+04 0.000000e+00 1.128586e+04 -7.374386e+04 0.000000e+00 0.000000e+00 0.000000e+00 0.000000e+00
-7.447482e+04 1.009765e+04 0.000000e+00 1.009765e+04 -7.236330e+04 0.000000e+00 0.000000e+00 0.000000e+00 0.000000e+00
-7.680934e+04 9.036843e+03 0.000000e+00 9.036843e+03 -7.079956e+04 0.000000e+00 0.000000e+00 0.000000e+00 0.000000e+00
-7.846252e+04 7.910535e+03 0.000000e+00 7.910535e+03 -6.897970e+04 0.000000e+00 0.000000e+00 0.000000e+00 0.000000e+00
-7.932351e+04 6.556821e+03 0.000000e+00 6.556821e+03 -6.694386e+04 0.000000e+00 0.000000e+00 0.000000e+00 0.000000e+00
-7.918014e+04 4.844320e+03 0.000000e+00 4.844320e+03 -6.477571e+04 0.000000e+00 0.000000e+00 0.000000e+00 0.000000e+00
-7.762865e+04 2.753831e+03 0.000000e+00 2.753831e+03 -6.269898e+04 0.000000e+00 0.000000e+00 0.000000e+00 0.000000e+00
-7.391302e+04 5.831271e+02 0.000000e+00 5.831271e+02 -6.107317e+04 0.000000e+00 0.000000e+00 0.000000e+00 0.000000e+00
-6.735961e+04 -6.848484e+02 0.000000e+00 -6.848484e+02 -6.022011e+04 0.000000e+00 0.000000e+00 0.000000e+00 0.000000e+00
-6.148702e+04 -8.797007e+02 0.000000e+00 -8.797007e+02 -5.937182e+04 0.000000e+00 0.000000e+00 0.000000e+00 0.000000e+00
-6.637462e+04 1.031509e+04 0.000000e+00 1.031509e+04 -6.999355e+04 0.000000e+00 0.000000e+00 0.000000e+00 0.000000e+00
-6.981106e+04 9.861970e+03 0.000000e+00 9.861970e+03 -6.990241e+04 0.000000e+00 0.000000e+00 0.000000e+00 0.000000e+00
-7.320119e+04 8.563097e+03 0.000000e+00 8.563097e+03 -6.853030e+04 0.000000e+00 0.000000e+00 0.000000e+00 0.000000e+00
-7.553035e+04 7.294318e+03 0.000000e+00 7.294318e+03 -6.713131e+04 0.000000e+00 0.000000e+00 0.000000e+00 0.000000e+00
-7.702444e+04 5.959100e+03 0.000000e+00 5.959100e+03 -6.564802e+04 0.000000e+00 0.000000e+00 0.000000e+00 0.000000e+00
-7.758687e+04 4.455831e+03 0.000000e+00 4.455831e+03 -6.408573e+04 0.000000e+00 0.000000e+00 0.000000e+00 0.000000e+00
-7.712094e+04 2.762430e+03 0.000000e+00 2.762430e+03 -6.255567e+04 0.000000e+00 0.000000e+00 0.000000e+00 0.000000e+00
-7.539762e+04 1.004364e+03 0.000000e+00 1.004364e+03 -6.125869e+04 0.000000e+00 0.000000e+00 0.000000e+00 0.000000e+00
-7.210588e+04 -4.517517e+02 0.000000e+00 -4.517517e+02 -6.038811e+04 0.000000e+00 0.000000e+00 0.000000e+00 0.000000e+00
-6.720597e+04 -9.484259e+02 0.000000e+00 -9.484259e+02 -6.002474e+04 0.000000e+00 0.000000e+00 0.000000e+00 0.000000e+00
-6.318867e+04 -8.323827e+02 0.000000e+00 -8.323827e+02 -5.953882e+04 0.000000e+00 0.000000e+00 0.000000e+00 0.000000e+00
-6.505582e+04 8.909544e+03 0.000000e+00 8.909544e+03 -6.724808e+04 0.000000e+00 0.000000e+00 0.000000e+00 0.000000e+00
-6.839884e+04 8.428210e+03 0.000000e+00 8.428210e+03 -6.710683e+04 0.000000e+00 0.000000e+00 0.000000e+00 0.000000e+00
-7.178376e+04 7.134229e+03 0.000000e+00 7.134229e+03 -6.581159e+04 0.000000e+00 0.000000e+00 0.000000e+00 0.000000e+00
-7.408871e+04 5.816592e+03 0.000000e+00 5.816592e+03 -6.459714e+04 0.000000e+00 0.000000e+00 0.000000e+00 0.000000e+00
-7.543016e+04 4.423032e+03 0.000000e+00 4.423032e+03 -6.339134e+04 0.000000e+00 0.000000e+00 0.000000e+00 0.000000e+00
-7.583655e+04 2.930024e+03 0.000000e+00 2.930024e+03 -6.223609e+04 0.000000e+00 0.000000e+00 0.000000e+00 0.000000e+00
-7.529668e+04 1.415962e+03 0.000000e+00 1.415962e+03 -6.122041e+04 0.000000e+00 0.000000e+00 0.000000e+00 0.000000e+00
-7.373787e+04 4.208627e+01 0.000000e+00 4.208627e+01 -6.046311e+04 0.000000e+00 0.000000e+00 0.000000e+00 0.000000e+00
-7.109953e+04 -8.999435e+02 0.000000e+00 -8.999435e+02 -6.004821e+04 0.000000e+00 0.000000e+00 0.000000e+00 0.000000e+00
-6.756075e+04 -9.906799e+02 0.000000e+00 -9.906799e+02 -5.993810e+04 0.000000e+00 0.000000e+00 0.000000e+00 0.000000e+00
-6.482809e+04 -7.302725e+02 0.000000e+00 -7.302725e+02 -5.966309e+04 0.000000e+00 0.000000e+00 0.000000e+00 0.000000e+00
-6.400196e+04 7.413308e+03 0.000000e+00 7.413308e+03 -6.532416e+04 0.000000e+00 0.000000e+00 0.000000e+00 0.000000e+00
-6.709902e+04 6.992463e+03 0.000000e+00 6.992463e+03 -6.513986e+04 0.000000e+00 0.000000e+00 0.000000e+00 0.000000e+00
-7.039092e+04 5.843093e+03 0.000000e+00 5.843093e+03 -6.394549e+04 0.000000e+00 0.000000e+00 0.000000e+00 0.000000e+00
-7.260823e+04 4.566230e+03 0.000000e+00 4.566230e+03 -6.287580e+04 0.000000e+00 0.000000e+00 0.000000e+00 0.000000e+00
-7.386072e+04 3.231038e+03 0.000000e+00 3.231038e+03 -6.189313e+04 0.000000e+00 0.000000e+00 0.000000e+00 0.000000e+00
-7.423305e+04 1.877401e+03 0.000000e+00 1.877401e+03 -6.105919e+04 0.000000e+00 0.000000e+00 0.000000e+00 0.000000e+00
-7.379118e+04 6.046959e+02 0.000000e+00 6.046959e+02 -6.041831e+04 0.000000e+00 0.000000e+00 0.000000e+00 0.000000e+00
-7.254953e+04 -4.348465e+02 0.000000e+00 -4.348465e+02 -6.001686e+04 0.000000e+00 0.000000e+00 0.000000e+00 0.000000e+00
-7.057574e+04 -1.033930e+03 0.000000e+00 -1.033930e+03 -5.987109e+04 0.000000e+00 0.000000e+00 0.000000e+00 0.000000e+00
-6.811611e+04 -9.202305e+02 0.000000e+00 -9.202305e+02 -5.989875e+04 0.000000e+00 0.000000e+00 0.000000e+00 0.000000e+00
-6.629984e+04 -6.206704e+02 0.000000e+00 -6.206704e+02 -5.975768e+04 0.000000e+00 0.000000e+00 0.000000e+00 0.000000e+00
-6.324605e+04 5.994449e+03 0.000000e+00 5.994449e+03 -6.401690e+04 0.000000e+00 0.000000e+00 0.000000e+00 0.000000e+00
-6.603132e+04 5.638507e+03 0.000000e+00 5.638507e+03 -6.379409e+04 0.000000e+00 0.000000e+00 0.000000e+00 0.000000e+00
-6.910266e+04 4.645104e+03 0.000000e+00 4.645104e+03 -6.267611e+04 0.000000e+00 0.000000e+00 0.000000e+00 0.000000e+00
-7.120679e+04 3.503285e+03 0.000000e+00 3.503285e+03 -6.171715e+04 0.000000e+00 0.000000e+00 0.000000e+00 0.000000e+00
-7.243959e+04 2.315597e+03 0.000000e+00 2.315597e+03 -6.093343e+04 0.000000e+00 0.000000e+00 0.000000e+00 0.000000e+00
-7.286692e+04 1.172944e+03 0.000000e+00 1.172944e+03 -6.032764e+04 0.000000e+00 0.000000e+00 0.000000e+00 0.000000e+00
-7.260202e+04 1.553134e+02 0.000000e+00 1.553134e+02 -5.993939e+04 0.000000e+00 0.000000e+00 0.000000e+00 0.000000e+00
-7.171223e+04 -6.164840e+02 0.000000e+00 -6.164840e+02 -5.976740e+04 0.000000e+00 0.000000e+00 0.000000e+00 0.000000e+00
-7.033608e+04 -9.894982e+02 0.000000e+00 -9.894982e+02 -5.977686e+04 0.000000e+00 0.000000e+00 0.000000e+00 0.000000e+00
-6.870641e+04 -7.942197e+02 0.000000e+00 -7.942197e+02 -5.987657e+04 0.000000e+00 0.000000e+00 0.000000e+00 0.000000e+00
-6.756113e+04 -5.101652e+02 0.000000e+00 -5.101652e+02 -5.982601e+04 0.000000e+00 0.000000e+00 0.000000e+00 0.000000e+00
-6.266871e+04 4.630857e+03 0.000000e+00 4.630857e+03 -6.313003e+04 0.000000e+00 0.000000e+00 0.000000e+00 0.000000e+00
-6.515616e+04 4.335552e+03 0.000000e+00 4.335552e+03 -6.287804e+04 0.000000e+00 0.000000e+00 0.000000e+00 0.000000e+00
-6.798160e+04 3.522265e+03 0.000000e+00 3.522265e+03 -6.183171e+04 0.000000e+00 0.000000e+00 0.000000e+00 0.000000e+00
-7.000125e+04 2.591860e+03 0.000000e+00 2.591860e+03 -6.097557e+04 0.000000e+00 0.000000e+00 0.000000e+00 0.000000e+00
-7.124309e+04 1.620072e+03 0.000000e+00 1.620072e+03 -6.033453e+04 0.000000e+00 0.000000e+00 0.000000e+00 0.000000e+00
-7.176993e+04 7.084507e+02 0.000000e+00 7.084507e+02 -5.990114e+04 0.000000e+00 0.000000e+00 0.000000e+00 0.000000e+00
-7.169530e+04 -6.800674e+01 0.000000e+00 -6.800674e+01 -5.967105e+04 0.000000e+00 0.000000e+00 0.000000e+00 0.000000e+00
-7.113686e+04 -6.238843e+02 0.000000e+00 -6.238843e+02 -5.963112e+04 0.000000e+00 0.000000e+00 0.000000e+00 0.000000e+00
-7.025102e+04 -8.470394e+02 0.000000e+00 -8.470394e+02 -5.972701e+04 0.000000e+00 0.000000e+00 0.000000e+00 0.000000e+00
-6.924641e+04 -6.412159e+02 0.000000e+00 -6.412159e+02 -5.986659e+04 0.000000e+00 0.000000e+00 0.000000e+00 0.000000e+00
-6.859329e+04 -4.005128e+02 0.000000e+00 -4.005128e+02 -5.988399e+04 0.000000e+00 0.000000e+00 0.000000e+00 0.000000e+00
-6.223507e+04 3.319179e+03 0.000000e+00 3.319179e+03 -6.252070e+04 0.000000e+00 0.000000e+00 0.000000e+00 0.000000e+00
-6.446977e+04 3.096345e+03 0.000000e+00 3.096345e+03 -6.224896e+04 0.000000e+00 0.000000e+00 0.000000e+00 0.000000e+00
-6.710043e+04 2.495251e+03 0.000000e+00 2.495251e+03 -6.127144e+04 0.000000e+00 0.000000e+00 0.000000e+00 0.000000e+00
-6.905298e+04 1.797316e+03 0.000000e+00 1.797316e+03 -6.050782e+04 0.000000e+00 0.000000e+00 0.000000e+00 0.000000e+00
-7.031002e+04 1.079974e+03 0.000000e+00 1.079974e+03 -5.995869e+04 0.000000e+00 0.000000e+00 0.000000e+00 0.000000e+00
-7.093497e+04 4.064969e+02 0.000000e+00 4.064969e+02 -5.964739e+04 0.000000e+00 0.000000e+00 0.000000e+00 0.000000e+00
-7.103712e+04 -1.500027e+02 0.000000e+00 -1.500027e+02 -5.952561e+04 0.000000e+00 0.000000e+00 0.000000e+00 0.000000e+00
-7.075469e+04 -5.288073e+02 0.000000e+00 -5.288073e+02 -5.956687e+04 0.000000e+00 0.000000e+00 0.000000e+00 0.000000e+00
-7.024270e+04 -6.572680e+02 0.000000e+00 -6.572680e+02 -5.970986e+04 0.000000e+00 0.000000e+00 0.000000e+00 0.000000e+00
-6.968932e+04 -4.787665e+02 0.000000e+00 -4.787665e+02 -5.986870e+04 0.000000e+00 0.000000e+00 0.000000e+00 0.000000e+00
-6.938625e+04 -2.913419e+02 0.000000e+00 -2.913419e+02 -5.992078e+04 0.000000e+00 0.000000e+00 0.000000e+00 0.000000e+00
-6.193405e+04 2.066664e+03 0.000000e+00 2.066664e+03 -6.204804e+04 0.000000e+00 0.000000e+00 0.000000e+00 0.000000e+00
-6.399707e+04 1.926919e+03 0.000000e+00 1.926919e+03 -6.178116e+04 0.000000e+00 0.000000e+00 0.000000e+00 0.000000e+00
-6.649323e+04 1.548127e+03 0.000000e+00 1.548127e+03 -6.087924e+04 0.000000e+00 0.000000e+00 0.000000e+00 0.000000e+00
-6.838545e+04 1.103814e+03 0.000000e+00 1.103814e+03 -6.020094e+04 0.000000e+00 0.000000e+00 0.000000e+00 0.000000e+00
-6.965911e+04 6.466456e+02 0.000000e+00 6.466456e+02 -5.973243e+04 0.000000e+00 0.000000e+00 0.000000e+00 0.000000e+00
-7.035578e+04 2.157492e+02 0.000000e+00 2.157492e+02 -5.949778e+04 0.000000e+00 0.000000e+00 0.000000e+00 0.000000e+00
-7.059451e+04 -1.415842e+02 0.000000e+00 -1.415842e+02 -5.944916e+04 0.000000e+00 0.000000e+00 0.000000e+00 0.000000e+00
-7.051361e+04 -3.752957e+02 0.000000e+00 -3.752957e+02 -5.954082e+04 0.000000e+00 0.000000e+00 0.000000e+00 0.000000e+00
-7.026225e+04 -4.458155e+02 0.000000e+00 -4.458155e+02 -5.971008e+04 0.000000e+00 0.000000e+00 0.000000e+00 0.000000e+00
-7.001545e+04 -3.179059e+02 0.000000e+00 -3.179059e+02 -5.987549e+04 0.000000e+00 0.000000e+00 0.000000e+00 0.000000e+00
-6.993976e+04 -1.892721e+02 0.000000e+00 -1.892721e+02 -5.994744e+04 0.000000e+00 0.000000e+00 0.000000e+00 0.000000e+00
-6.170764e+04 8.750233e+02 0.000000e+00 8.750233e+02 -6.158567e+04 0.000000e+00 0.000000e+00 0.000000e+00 0.000000e+00
-6.374857e+04 8.560092e+02 0.000000e+00 8.560092e+02 -6.136336e+04 0.000000e+00 0.000000e+00 0.000000e+00 0.000000e+00
-6.616305e+04 7.073625e+02 0.000000e+00 7.073625e+02 -6.057241e+04 0.000000e+00 0.000000e+00 0.000000e+00 0.000000e+00
-6.800014e+04 5.099862e+02 0.000000e+00 5.099862e+02 -5.999775e+04 0.000000e+00 0.000000e+00 0.000000e+00 0.000000e+00
-6.928370e+04 2.978102e+02 0.000000e+00 2.978102e+02 -5.960845e+04 0.000000e+00 0.000000e+00 0.000000e+00 0.000000e+00
-7.002010e+04 9.328362e+01 0.000000e+00 9.328362e+01 -5.942500e+04 0.000000e+00 0.000000e+00 0.000000e+00 0.000000e+00
-7.033936e+04 -8.075783e+01 0.000000e+00 -8.075783e+01 -5.941768e+04 0.000000e+00 0.000000e+00 0.000000e+00 0.000000e+00
-7.038135e+04 -1.931027e+02 0.000000e+00 -1.931027e+02 -5.953132e+04 0.000000e+00 0.000000e+00 0.000000e+00 0.000000e+00
-7.028159e+04 -2.237827e+02 0.000000e+00 -2.237827e+02 -5.971105e+04 0.000000e+00 0.000000e+00 0.000000e+00 0.000000e+00
-7.021220e+04 -1.590123e+02 0.000000e+00 -1.590123e+02 -5.987634e+04 0.000000e+00 0.000000e+00 0.000000e+00 0.000000e+00
-7.026353e+04 -9.512597e+01 0.000000e+00 -9.512597e+01 -5.996351e+04 0.000000e+00 0.000000e+00 0.000000e+00 0.000000e+00
-6.153149e+04 6.126799e+01 0.000000e+00 6.126799e+01 -6.109338e+04 0.000000e+00 0.000000e+00 0.000000e+00 0.000000e+00
-6.363565e+04 1.575177e+02 0.000000e+00 1.575177e+02 -6.101955e+04 0.000000e+00 0.000000e+00 0.000000e+00 0.000000e+00
-6.605580e+04 1.770707e+02 0.000000e+00 1.770707e+02 -6.041944e+04 0.000000e+00 0.000000e+00 0.000000e+00 0.000000e+00
-6.787938e+04 1.322824e+02 0.000000e+00 1.322824e+02 -5.992779e+04 0.000000e+00 0.000000e+00 0.000000e+00 0.000000e+00
-6.916500e+04 7.352834e+01 0.000000e+00 7.352834e+01 -5.957754e+04 0.000000e+00 0.000000e+00 0.000000e+00 0.000000e+00
-6.991216e+04 7.399036e+00 0.000000e+00 7.399036e+00 -5.940739e+04 0.000000e+00 0.000000e+00 0.000000e+00 0.000000e+00
-7.025584e+04 -5.357893e+01 0.000000e+00 -5.357893e+01 -5.940992e+04 0.000000e+00 0.000000e+00 0.000000e+00 0.000000e+00
-7.033916e+04 -9.387563e+01 0.000000e+00 -9.387563e+01 -5.952705e+04 0.000000e+00 0.000000e+00 0.000000e+00 0.000000e+00
-7.028962e+04 -1.040119e+02 0.000000e+00 -1.040119e+02 -5.970711e+04 0.000000e+00 0.000000e+00 0.000000e+00 0.000000e+00
-7.027743e+04 -8.267033e+01 0.000000e+00 -8.267033e+01 -5.987391e+04 0.000000e+00 0.000000e+00 0.000000e+00 0.000000e+00
-7.036929e+04 -5.919517e+01 0.000000e+00 -5.919517e+01 -5.996555e+04 0.000000e+00 0.000000e+00 0.000000e+00 0.000000e+00
</DataArray>
<DataArray Name="vol_eps" type="Float64" NumberOfComponents="1" format="ascii">
-5.336828e-03
-4.957560e-03
-4.962541e-03
-5.078817e-03
-5.385739e-03
-5.942328e-03
-6.705741e-03
-7.611014e-03
-8.653318e-03
-9.685230e-03
-9.935040e-03
-5.101495e-03
-4.737735e-03
-4.763178e-03
-4.917325e-03
-5.202494e-03
-5.687434e-03
-6.365673e-03
-7.217231e-03
-8.341217e-03
-9.458231e-03
-1.092634e-02
-4.564846e-03
-4.251165e-03
-4.263716e-03
-4.397595e-03
-4.613031e-03
-4.955902e-03
-5.383129e-03
-5.870112e-03
-6.629215e-03
-7.954581e-03
-1.048363e-02
-3.880207e-03
-3.671735e-03
-3.669660e-03
-3.700225e-03
-3.640054e-03
-3.435628e-03
-3.076358e-03
-2.526378e-03
-1.646636e-03
-1.844907e-04
1.003349e-03
-3.143511e-03
-3.085318e-03
-3.133437e-03
-3.194119e-03
-3.201653e-03
-3.135679e-03
-2.998257e-03
-2.784919e-03
-2.362582e-03
-1.722539e-03
-1.916590e-04
-2.440208e-03
-2.515253e-03
-2.596901e-03
-2.649557e-03
-2.642392e-03
-2.562669e-03
-2.403686e-03
-2.147607e-03
-1.726041e-03
-9.221401e-04
1.228982e-04
-1.835192e-03
-2.005962e-03
-2.118154e-03
-2.168481e-03
-2.154027e-03
-2.072774e-03
-1.909707e-03
-1.647100e-03
-1.234039e-03
-5.931174e-04
6.538067e-05
-1.355993e-03
-1.578680e-03
-1.715497e-03
-1.771347e-03
-1.763013e-03
-1.686161e-03
-1.532112e-03
-1.292661e-03
-9.483358e-04
-4.798959e-04
-5.352331e-05
-9.988431e-04
-1.237036e-03
-1.383968e-03
-1.450131e-03
-1.450878e-03
-1.382924e-03
-1.250359e-03
-1.054345e-03
-7.889638e-04
-4.576246e-04
-1.735275e-04
-7.433211e-04
-9.684576e-04
-1.116889e-03
-1.190111e-03
-1.197178e-03
-1.146282e-03
-1.044721e-03
-8.962633e-04
-7.029923e-04
-4.739121e-04
-2.848063e-04
-5.624265e-04
-7.634002e-04
-9.068996e-04
-9.815042e-04
-9.969297e-04
-9.656550e-04
-8.959124e-04
-7.915984e-04
-6.583341e-04
-5.057206e-04
-3.829204e-04
-4.402832e-04
-6.149228e-04
-7.443596e-04
-8.162108e-04
-8.434021e-04
-8.308943e-04
-7.888765e-04
-7.221102e-04
-6.371259e-04
-5.413555e-04
-4.659870e-04
-3.582008e-04
-5.064252e-04
-6.212615e-04
-6.929549e-04
-7.290557e-04
-7.333484e-04
-7.139966e-04
-6.771179e-04
-6.287360e-04
-5.749235e-04
-5.345210e-04
-3.007795e-04
-4.287578e-04
-5.320451e-04
-6.035515e-04
-6.463774e-04
-6.644040e-04
-6.632953e-04
-6.492548e-04
-6.272400e-04
-6.030674e-04
-5.872262e-04
-2.566663e-04
-3.722668e-04
-4.704462e-04
-5.422715e-04
-5.910320e-04
-6.188821e-04
-6.306326e-04
-6.323772e-04
-6.282578e-04
-6.237411e-04
-6.238613e-04
-2.152808e-04
-3.311367e-04
-4.304047e-04
-5.056630e-04
-5.597276e-04
-5.935185e-04
-6.124678e-04
-6.231281e-04
-6.292191e-04
-6.358174e-04
-6.449331e-04
-1.728437e-04
-3.023137e-04
-4.142538e-04
-4.939628e-04
-5.506110e-04
-5.858276e-04
-6.066705e-04
-6.200291e-04
-6.293210e-04
-6.396362e-04
-6.516379e-04
</DataArray>
</PointData>
</Piece>
</UnstructuredGrid>
</VTKFile>
