<?xml version="1.0"?>
<VTKFile type="UnstructuredGrid" version="0.1">
<UnstructuredGrid>
<FieldData>
<DataArray Name="TIME" type="Float64" format="ascii" NumberOfTuples="1">
0.000000e+00
</DataArray>
</FieldData>
<FieldData>
<DataArray Name="CYCLE" type="Int32" format="ascii" NumberOfTuples="1">
0
</DataArray>
</FieldData>
<Piece NumberOfPoints="187" NumberOfCells="160">
<Points>
<DataArray NumberOfComponents="3" type="Float64" format="ascii">
0.000000e+00 0.000000e+00 0.000000e+00
0.000000e+00 1.963919e-01 0.000000e+00
0.000000e+00 3.900864e-01 0.000000e+00
0.000000e+00 5.804230e-01 0.000000e+00
0.000000e+00 7.683960e-01 0.000000e+00
0.000000e+00 9.553027e-01 0.000000e+00
0.000000e+00 1.142247e+00 0.000000e+00
0.000000e+00 1.330488e+00 0.000000e+00
0.000000e+00 1.521417e+00 0.000000e+00
0.000000e+00 1.716402e+00 0.000000e+00
0.000000e+00 1.912250e+00 0.000000e+00
2.250000e-01 0.000000e+00 0.000000e+00
2.274998e-01 1.961787e-01 0.000000e+00
2.319562e-01 3.902090e-01 0.000000e+00
2.356662e-01 5.819427e-01 0.000000e+00
2.378560e-01 7.717434e-01 0.000000e+00
2.384554e-01 9.602095e-01 0.000000e+00
2.378050e-01 1.148205e+00 0.000000e+00
2.355250e-01 1.336609e+00 0.000000e+00
2.306119e-01 1.525776e+00 0.000000e+00
2.255950e-01 1.716936e+00 0.000000e+00
2.250000e-01 1.912250e+00 0.000000e+00
4.500000e-01 0.000000e+00 0.000000e+00
4.554356e-01 1.966464e-01 0.000000e+00
4.620787e-01 3.921824e-01 0.000000e+00
4.676913e-01 5.870330e-01 0.000000e+00
4.717482e-01 7.809523e-01 0.000000e+00
4.738100e-01 9.734386e-01 0.000000e+00
4.738616e-01 1.164317e+00 0.000000e+00
4.718858e-01 1.353787e+00 0.000000e+00
4.673465e-01 1.541237e+00 0.000000e+00
4.609842e-01 1.726715e+00 0.000000e+00
4.500000e-01 1.912250e+00 0.000000e+00
6.750000e-01 0.000000e+00 0.000000e+00
6.826837e-01 1.981737e-01 0.000000e+00
6.897441e-01 3.960988e-01 0.000000e+00
6.953362e-01 5.944176e-01 0.000000e+00
6.994790e-01 7.933344e-01 0.000000e+00
7.022768e-01 9.927105e-01 0.000000e+00
7.031927e-01 1.192525e+00 0.000000e+00
7.020991e-01 1.392776e+00 0.000000e+00
6.993194e-01 1.593486e+00 0.000000e+00
6.940823e-01 1.794061e+00 0.000000e+00
6.856611e-01 1.993342e+00 0.000000e+00
9.000000e-01 0.000000e+00 0.000000e+00
9.084582e-01 1.989637e-01 0.000000e+00
9.150294e-01 3.979899e-01 0.000000e+00
9.197854e-01 5.974042e-01 0.000000e+00
9.232181e-01 7.972617e-01 0.000000e+00
9.253778e-01 9.976552e-01 0.000000e+00
9.258903e-01 1.198519e+00 0.000000e+00
9.246647e-01 1.399627e+00 0.000000e+00
9.218775e-01 1.600769e+00 0.000000e+00
9.174562e-01 1.801650e+00 0.000000e+00
9.118734e-01 2.001756e+00 0.000000e+00
1.125000e+00 0.000000e+00 0.000000e+00
1.133572e+00 1.994813e-01 0.000000e+00
1.139265e+00 3.991925e-01 0.000000e+00
1.143328e+00 5.993802e-01 0.000000e+00
1.146222e+00 8.000240e-01 0.000000e+00
1.147873e+00 1.001101e+00 0.000000e+00
1.148163e+00 1.202489e+00 0.000000e+00
1.147039e+00 1.403951e+00 0.000000e+00
1.144615e+00 1.605264e+00 0.000000e+00
1.141193e+00 1.806100e+00 0.000000e+00
1.137722e+00 2.006145e+00 0.000000e+00
1.350000e+00 0.000000e+00 0.000000e+00
1.358066e+00 1.999369e-01 0.000000e+00
1.362949e+00 4.001836e-01 0.000000e+00
1.366416e+00 6.008335e-01 0.000000e+00
1.368816e+00 8.018973e-01 0.000000e+00
1.370156e+00 1.003333e+00 0.000000e+00
1.370380e+00 1.204966e+00 0.000000e+00
1.369471e+00 1.406571e+00 0.000000e+00
1.367574e+00 1.607924e+00 0.000000e+00
1.365196e+00 1.808700e+00 0.000000e+00
1.363099e+00 2.008854e+00 0.000000e+00
1.575000e+00 0.000000e+00 0.000000e+00
1.582180e+00 2.002335e-01 0.000000e+00
1.586336e+00 4.007761e-01 0.000000e+00
1.589275e+00 6.017103e-01 0.000000e+00
1.591296e+00 8.030245e-01 0.000000e+00
1.592436e+00 1.004610e+00 0.000000e+00
1.592675e+00 1.206303e+00 0.000000e+00
1.592031e+00 1.407933e+00 0.000000e+00
1.590710e+00 1.609269e+00 0.000000e+00
1.589223e+00 1.810049e+00 0.000000e+00
1.588116e+00 2.010289e+00 0.000000e+00
1.800000e+00 0.000000e+00 0.000000e+00
1.806088e+00 2.003411e-01 0.000000e+00
1.809579e+00 4.010620e-01 0.000000e+00
1.812079e+00 6.021584e-01 0.000000e+00
1.813804e+00 8.035460e-01 0.000000e+00
1.814817e+00 1.005134e+00 0.000000e+00
1.815115e+00 1.206793e+00 0.000000e+00
1.814744e+00 1.408373e+00 0.000000e+00
1.813948e+00 1.609670e+00 0.000000e+00
1.813177e+00 1.810474e+00 0.000000e+00
1.812790e+00 2.010834e+00 0.000000e+00
2.025000e+00 0.000000e+00 0.000000e+00
2.029935e+00 2.003908e-01 0.000000e+00
2.032811e+00 4.011618e-01 0.000000e+00
2.034953e+00 6.022681e-01 0.000000e+00
2.036437e+00 8.036048e-01 0.000000e+00
2.037360e+00 1.005110e+00 0.000000e+00
2.037722e+00 1.206676e+00 0.000000e+00
2.037598e+00 1.408174e+00 0.000000e+00
2.037246e+00 1.609414e+00 0.000000e+00
2.037011e+00 1.810255e+00 0.000000e+00
2.037105e+00 2.010762e+00 0.000000e+00
2.250000e+00 0.000000e+00 0.000000e+00
2.253795e+00 2.003421e-01 0.000000e+00
2.256152e+00 4.010696e-01 0.000000e+00
2.257970e+00 6.021074e-01 0.000000e+00
2.259261e+00 8.033450e-01 0.000000e+00
2.260094e+00 1.004723e+00 0.000000e+00
2.260501e+00 1.206168e+00 0.000000e+00
2.260582e+00 1.407561e+00 0.000000e+00
2.260570e+00 1.608747e+00 0.000000e+00
2.260699e+00 1.809643e+00 0.000000e+00
2.261074e+00 2.010308e+00 0.000000e+00
2.475000e+00 0.000000e+00 0.000000e+00
2.477781e+00 2.002508e-01 0.000000e+00
2.479666e+00 4.008658e-01 0.000000e+00
2.481169e+00 6.017818e-01 0.000000e+00
2.482278e+00 8.028963e-01 0.000000e+00
2.483026e+00 1.004142e+00 0.000000e+00
2.483453e+00 1.205446e+00 0.000000e+00
2.483680e+00 1.406719e+00 0.000000e+00
2.483887e+00 1.607862e+00 0.000000e+00
2.484226e+00 1.808831e+00 0.000000e+00
2.484734e+00 2.009675e+00 0.000000e+00
2.700000e+00 0.000000e+00 0.000000e+00
2.701931e+00 2.001536e-01 0.000000e+00
2.703388e+00 4.006416e-01 0.000000e+00
2.704570e+00 6.014009e-01 0.000000e+00
2.705488e+00 8.023696e-01 0.000000e+00
2.706143e+00 1.003482e+00 0.000000e+00
2.706568e+00 1.204657e+00 0.000000e+00
2.706869e+00 1.405824e+00 0.000000e+00
2.707175e+00 1.606932e+00 0.000000e+00
2.707584e+00 1.807976e+00 0.000000e+00
2.708103e+00 2.008998e+00 0.000000e+00
2.925000e+00 0.000000e+00 0.000000e+00
2.926253e+00 2.000780e-01 0.000000e+00
2.927315e+00 4.004356e-01 0.000000e+00
2.928192e+00 6.010412e-01 0.000000e+00
2.928895e+00 8.018566e-01 0.000000e+00
2.929424e+00 1.002836e+00 0.000000e+00
2.929810e+00 1.203906e+00 0.000000e+00
2.930116e+00 1.405004e+00 0.000000e+00
2.930425e+00 1.606099e+00 0.000000e+00
2.930799e+00 1.807206e+00 0.000000e+00
2.931251e+00 2.008358e+00 0.000000e+00
3.150000e+00 0.000000e+00 0.000000e+00
3.150735e+00 2.000127e-01 0.000000e+00
3.151421e+00 4.002576e-01 0.000000e+00
3.152010e+00 6.007436e-01 0.000000e+00
3.152486e+00 8.014361e-01 0.000000e+00
3.152855e+00 1.002305e+00 0.000000e+00
3.153146e+00 1.203289e+00 0.000000e+00
3.153392e+00 1.404341e+00 0.000000e+00
3.153637e+00 1.605438e+00 0.000000e+00
3.153919e+00 1.806586e+00 0.000000e+00
3.154250e+00 2.007830e+00 0.000000e+00
3.375000e+00 0.000000e+00 0.000000e+00
3.375339e+00 1.999617e-01 0.000000e+00
3.375669e+00 4.001358e-01 0.000000e+00
3.375968e+00 6.005436e-01 0.000000e+00
3.376209e+00 8.011659e-01 0.000000e+00
3.376397e+00 1.001960e+00 0.000000e+00
3.376553e+00 1.202885e+00 0.000000e+00
3.376688e+00 1.403903e+00 0.000000e+00
3.376824e+00 1.604996e+00 0.000000e+00
3.376976e+00 1.806172e+00 0.000000e+00
3.377149e+00 2.007475e+00 0.000000e+00
3.600000e+00 0.000000e+00 0.000000e+00
3.600000e+00 1.999555e-01 0.000000e+00
3.600000e+00 4.001066e-01 0.000000e+00
3.600000e+00 6.004793e-01 0.000000e+00
3.600000e+00 8.010679e-01 0.000000e+00
3.600000e+00 1.001829e+00 0.000000e+00
3.600000e+00 1.202730e+00 0.000000e+00
3.600000e+00 1.403733e+00 0.000000e+00
3.600000e+00 1.604818e+00 0.000000e+00
3.600000e+00 1.805996e+00 0.000000e+00
3.600000e+00 2.007313e+00 0.000000e+00
</DataArray>
</Points>
<Cells>
<DataArray Name="connectivity" type="Int32" format="ascii">
0 11 12 1
1 12 13 2
2 13 14 3
3 14 15 4
4 15 16 5
5 16 17 6
6 17 18 7
7 18 19 8
8 19 20 9
9 20 21 10
11 22 23 12
12 23 24 13
13 24 25 14
14 25 26 15
15 26 27 16
16 27 28 17
17 28 29 18
18 29 30 19
19 30 31 20
20 31 32 21
22 33 34 23
23 34 35 24
24 35 36 25
25 36 37 26
26 37 38 27
27 38 39 28
28 39 40 29
29 40 41 30
30 41 42 31
31 42 43 32
33 44 45 34
34 45 46 35
35 46 47 36
36 47 48 37
37 48 49 38
38 49 50 39
39 50 51 40
40 51 52 41
41 52 53 42
42 53 54 43
44 55 56 45
45 56 57 46
46 57 58 47
47 58 59 48
48 59 60 49
49 60 61 50
50 61 62 51
51 62 63 52
52 63 64 53
53 64 65 54
55 66 67 56
56 67 68 57
57 68 69 58
58 69 70 59
59 70 71 60
60 71 72 61
61 72 73 62
62 73 74 63
63 74 75 64
64 75 76 65
66 77 78 67
67 78 79 68
68 79 80 69
69 80 81 70
70 81 82 71
71 82 83 72
72 83 84 73
73 84 85 74
74 85 86 75
75 86 87 76
77 88 89 78
78 89 90 79
79 90 91 80
80 91 92 81
81 92 93 82
82 93 94 83
83 94 95 84
84 95 96 85
85 96 97 86
86 97 98 87
88 99 100 89
89 100 101 90
90 101 102 91
91 102 103 92
92 103 104 93
93 104 105 94
94 105 106 95
95 106 107 96
96 107 108 97
97 108 109 98
99 110 111 100
100 111 112 101
101 112 113 102
102 113 114 103
103 114 115 104
104 115 116 105
105 116 117 106
106 117 118 107
107 118 119 108
108 119 120 109
110 121 122 111
111 122 123 112
112 123 124 113
113 124 125 114
114 125 126 115
115 126 127 116
116 127 128 117
117 128 129 118
118 129 130 119
119 130 131 120
121 132 133 122
122 133 134 123
123 134 135 124
124 135 136 125
125 136 137 126
126 137 138 127
127 138 139 128
128 139 140 129
129 140 141 130
130 141 142 131
132 143 144 133
133 144 145 134
134 145 146 135
135 146 147 136
136 147 148 137
137 148 149 138
138 149 150 139
139 150 151 140
140 151 152 141
141 152 153 142
143 154 155 144
144 155 156 145
145 156 157 146
146 157 158 147
147 158 159 148
148 159 160 149
149 160 161 150
150 161 162 151
151 162 163 152
152 163 164 153
154 165 166 155
155 166 167 156
156 167 168 157
157 168 169 158
158 169 170 159
159 170 171 160
160 171 172 161
161 172 173 162
162 173 174 163
163 174 175 164
165 176 177 166
166 177 178 167
167 178 179 168
168 179 180 169
169 180 181 170
170 181 182 171
171 182 183 172
172 183 184 173
173 184 185 174
174 185 186 175
</DataArray>
<DataArray Name="offsets" type="Int32" format="ascii">
4
8
12
16
20
24
28
32
36
40
44
48
52
56
60
64
68
72
76
80
84
88
92
96
100
104
108
112
116
120
124
128
132
136
140
144
148
152
156
160
164
168
172
176
180
184
188
192
196
200
204
208
212
216
220
224
228
232
236
240
244
248
252
256
260
264
268
272
276
280
284
288
292
296
300
304
308
312
316
320
324
328
332
336
340
344
348
352
356
360
364
368
372
376
380
384
388
392
396
400
404
408
412
416
420
424
428
432
436
440
444
448
452
456
460
464
468
472
476
480
484
488
492
496
500
504
508
512
516
520
524
528
532
536
540
544
548
552
556
560
564
568
572
576
580
584
588
592
596
600
604
608
612
616
620
624
628
632
636
640
</DataArray>
<DataArray Name="types" type="UInt8" format="ascii">
9
9
9
9
9
9
9
9
9
9
9
9
9
9
9
9
9
9
9
9
9
9
9
9
9
9
9
9
9
9
9
9
9
9
9
9
9
9
9
9
9
9
9
9
9
9
9
9
9
9
9
9
9
9
9
9
9
9
9
9
9
9
9
9
9
9
9
9
9
9
9
9
9
9
9
9
9
9
9
9
9
9
9
9
9
9
9
9
9
9
9
9
9
9
9
9
9
9
9
9
9
9
9
9
9
9
9
9
9
9
9
9
9
9
9
9
9
9
9
9
9
9
9
9
9
9
9
9
9
9
9
9
9
9
9
9
9
9
9
9
9
9
9
9
9
9
9
9
9
9
9
9
9
9
9
9
9
9
9
9
</DataArray>
</Cells>
<PointData>
<DataArray Name="disp" type="Float64" NumberOfComponents="3" format="ascii">
0.000000e+00 0.000000e+00 0.000000e+00
0.000000e+00 -3.608096e-03 0.000000e+00
0.000000e+00 -9.913566e-03 0.000000e+00
0.000000e+00 -1.957701e-02 0.000000e+00
0.000000e+00 -3.160400e-02 0.000000e+00
0.000000e+00 -4.469731e-02 0.000000e+00
0.000000e+00 -5.775341e-02 0.000000e+00
0.000000e+00 -6.951202e-02 0.000000e+00
0.000000e+00 -7.858266e-02 0.000000e+00
0.000000e+00 -8.359754e-02 0.000000e+00
0.000000e+00 -8.775000e-02 0.000000e+00
0.000000e+00 0.000000e+00 0.000000e+00
2.499848e-03 -3.821296e-03 0.000000e+00
6.956208e-03 -9.790947e-03 0.000000e+00
1.066615e-02 -1.805731e-02 0.000000e+00
1.285601e-02 -2.825662e-02 0.000000e+00
1.345542e-02 -3.979047e-02 0.000000e+00
1.280500e-02 -5.179496e-02 0.000000e+00
1.052503e-02 -6.339090e-02 0.000000e+00
5.611861e-03 -7.422356e-02 0.000000e+00
5.950340e-04 -8.306418e-02 0.000000e+00
0.000000e+00 -8.775000e-02 0.000000e+00
0.000000e+00 0.000000e+00 0.000000e+00
5.435591e-03 -3.353643e-03 0.000000e+00
1.207867e-02 -7.817564e-03 0.000000e+00
1.769129e-02 -1.296698e-02 0.000000e+00
2.174824e-02 -1.904771e-02 0.000000e+00
2.380997e-02 -2.656139e-02 0.000000e+00
2.386160e-02 -3.568342e-02 0.000000e+00
2.188583e-02 -4.621260e-02 0.000000e+00
1.734648e-02 -5.876259e-02 0.000000e+00
1.098419e-02 -7.328539e-02 0.000000e+00
0.000000e+00 -8.775000e-02 0.000000e+00
0.000000e+00 0.000000e+00 0.000000e+00
7.683718e-03 -1.826265e-03 0.000000e+00
1.474404e-02 -3.901207e-03 0.000000e+00
2.033616e-02 -5.582347e-03 0.000000e+00
2.447899e-02 -6.665608e-03 0.000000e+00
2.727680e-02 -7.289538e-03 0.000000e+00
2.819268e-02 -7.475373e-03 0.000000e+00
2.709912e-02 -7.224257e-03 0.000000e+00
2.431940e-02 -6.513814e-03 0.000000e+00
1.908231e-02 -5.939229e-03 0.000000e+00
1.066116e-02 -6.657981e-03 0.000000e+00
0.000000e+00 0.000000e+00 0.000000e+00
8.458187e-03 -1.036264e-03 0.000000e+00
1.502942e-02 -2.010071e-03 0.000000e+00
1.978542e-02 -2.595731e-03 0.000000e+00
2.321805e-02 -2.738352e-03 0.000000e+00
2.537776e-02 -2.344774e-03 0.000000e+00
2.589029e-02 -1.481176e-03 0.000000e+00
2.466474e-02 -3.728635e-04 0.000000e+00
2.187753e-02 7.686582e-04 0.000000e+00
1.745614e-02 1.650370e-03 0.000000e+00
1.187341e-02 1.756328e-03 0.000000e+00
0.000000e+00 0.000000e+00 0.000000e+00
8.571838e-03 -5.186694e-04 0.000000e+00
1.426457e-02 -8.074945e-04 0.000000e+00
1.832843e-02 -6.197848e-04 0.000000e+00
2.122150e-02 2.400667e-05 0.000000e+00
2.287281e-02 1.100759e-03 0.000000e+00
2.316270e-02 2.488759e-03 0.000000e+00
2.203915e-02 3.950793e-03 0.000000e+00
1.961474e-02 5.264095e-03 0.000000e+00
1.619252e-02 6.099931e-03 0.000000e+00
1.272152e-02 6.145005e-03 0.000000e+00
0.000000e+00 0.000000e+00 0.000000e+00
8.065968e-03 -6.311377e-05 0.000000e+00
1.294940e-02 1.835918e-04 0.000000e+00
1.641647e-02 8.335341e-04 0.000000e+00
1.881624e-02 1.897315e-03 0.000000e+00
2.015590e-02 3.333118e-03 0.000000e+00
2.038014e-02 4.965770e-03 0.000000e+00
1.947084e-02 6.571140e-03 0.000000e+00
1.757384e-02 7.924438e-03 0.000000e+00
1.519651e-02 8.700064e-03 0.000000e+00
1.309915e-02 8.853902e-03 0.000000e+00
0.000000e+00 0.000000e+00 0.000000e+00
7.179846e-03 2.335335e-04 0.000000e+00
1.133612e-02 7.761008e-04 0.000000e+00
1.427459e-02 1.710283e-03 0.000000e+00
1.629639e-02 3.024457e-03 0.000000e+00
1.743591e-02 4.610009e-03 0.000000e+00
1.767524e-02 6.303309e-03 0.000000e+00
1.703111e-02 7.933483e-03 0.000000e+00
1.570954e-02 9.269410e-03 0.000000e+00
1.422281e-02 1.004880e-02 0.000000e+00
1.311606e-02 1.028904e-02 0.000000e+00
0.000000e+00 0.000000e+00 0.000000e+00
6.088237e-03 3.410736e-04 0.000000e+00
9.578781e-03 1.061942e-03 0.000000e+00
1.207920e-02 2.158354e-03 0.000000e+00
1.380350e-02 3.545950e-03 0.000000e+00
1.481671e-02 5.133619e-03 0.000000e+00
1.511506e-02 6.792676e-03 0.000000e+00
1.474382e-02 8.372653e-03 0.000000e+00
1.394787e-02 9.670213e-03 0.000000e+00
1.317747e-02 1.047376e-02 0.000000e+00
1.278965e-02 1.083443e-02 0.000000e+00
0.000000e+00 0.000000e+00 0.000000e+00
4.934791e-03 3.908246e-04 0.000000e+00
7.811167e-03 1.161839e-03 0.000000e+00
9.952737e-03 2.268071e-03 0.000000e+00
1.143678e-02 3.604753e-03 0.000000e+00
1.235973e-02 5.109820e-03 0.000000e+00
1.272244e-02 6.676126e-03 0.000000e+00
1.259788e-02 8.174017e-03 0.000000e+00
1.224564e-02 9.414362e-03 0.000000e+00
1.201070e-02 1.025516e-02 0.000000e+00
1.210536e-02 1.076245e-02 0.000000e+00
0.000000e+00 0.000000e+00 0.000000e+00
3.794731e-03 3.421280e-04 0.000000e+00
6.151840e-03 1.069604e-03 0.000000e+00
7.970055e-03 2.107393e-03 0.000000e+00
9.261073e-03 3.345001e-03 0.000000e+00
1.009362e-02 4.722826e-03 0.000000e+00
1.050096e-02 6.168392e-03 0.000000e+00
1.058238e-02 7.560712e-03 0.000000e+00
1.057036e-02 8.747376e-03 0.000000e+00
1.069928e-02 9.643162e-03 0.000000e+00
1.107441e-02 1.030825e-02 0.000000e+00
0.000000e+00 0.000000e+00 0.000000e+00
2.780674e-03 2.508259e-04 0.000000e+00
4.665910e-03 8.657923e-04 0.000000e+00
6.169466e-03 1.781858e-03 0.000000e+00
7.278299e-03 2.896305e-03 0.000000e+00
8.025790e-03 4.142131e-03 0.000000e+00
8.452815e-03 5.445839e-03 0.000000e+00
8.680000e-03 6.719416e-03 0.000000e+00
8.887135e-03 7.862300e-03 0.000000e+00
9.225548e-03 8.830581e-03 0.000000e+00
9.733750e-03 9.674430e-03 0.000000e+00
0.000000e+00 0.000000e+00 0.000000e+00
1.931398e-03 1.535680e-04 0.000000e+00
3.387848e-03 6.415484e-04 0.000000e+00
4.569671e-03 1.400873e-03 0.000000e+00
5.488543e-03 2.369594e-03 0.000000e+00
6.143069e-03 3.481502e-03 0.000000e+00
6.568537e-03 4.656867e-03 0.000000e+00
6.869171e-03 5.824156e-03 0.000000e+00
7.175317e-03 6.931980e-03 0.000000e+00
7.583642e-03 7.976376e-03 0.000000e+00
8.103347e-03 8.998222e-03 0.000000e+00
0.000000e+00 0.000000e+00 0.000000e+00
1.253269e-03 7.800234e-05 0.000000e+00
2.315202e-03 4.355850e-04 0.000000e+00
3.192202e-03 1.041174e-03 0.000000e+00
3.895380e-03 1.856646e-03 0.000000e+00
4.424301e-03 2.835504e-03 0.000000e+00
4.809779e-03 3.905696e-03 0.000000e+00
5.115747e-03 5.003611e-03 0.000000e+00
5.424730e-03 6.099325e-03 0.000000e+00
5.798590e-03 7.205660e-03 0.000000e+00
6.251012e-03 8.358203e-03 0.000000e+00
0.000000e+00 0.000000e+00 0.000000e+00
7.349797e-04 1.265688e-05 0.000000e+00
1.421124e-03 2.576018e-04 0.000000e+00
2.010247e-03 7.436090e-04 0.000000e+00
2.486277e-03 1.436131e-03 0.000000e+00
2.855263e-03 2.304839e-03 0.000000e+00
3.145692e-03 3.288906e-03 0.000000e+00
3.391722e-03 4.341504e-03 0.000000e+00
3.637431e-03 5.438060e-03 0.000000e+00
3.919374e-03 6.585967e-03 0.000000e+00
4.249968e-03 7.829582e-03 0.000000e+00
0.000000e+00 0.000000e+00 0.000000e+00
3.393118e-04 -3.834239e-05 0.000000e+00
6.692405e-04 1.358095e-04 0.000000e+00
9.676178e-04 5.436016e-04 0.000000e+00
1.209204e-03 1.165852e-03 0.000000e+00
1.396785e-03 1.960160e-03 0.000000e+00
1.552930e-03 2.885010e-03 0.000000e+00
1.688442e-03 3.902695e-03 0.000000e+00
1.823886e-03 4.996140e-03 0.000000e+00
1.975647e-03 6.172205e-03 0.000000e+00
2.149264e-03 7.475341e-03 0.000000e+00
0.000000e+00 0.000000e+00 0.000000e+00
0.000000e+00 -4.452687e-05 0.000000e+00
0.000000e+00 1.066356e-04 0.000000e+00
0.000000e+00 4.793100e-04 0.000000e+00
0.000000e+00 1.067927e-03 0.000000e+00
0.000000e+00 1.829243e-03 0.000000e+00
0.000000e+00 2.730021e-03 0.000000e+00
0.000000e+00 3.732967e-03 0.000000e+00
0.000000e+00 4.817925e-03 0.000000e+00
0.000000e+00 5.995831e-03 0.000000e+00
0.000000e+00 7.313577e-03 0.000000e+00
</DataArray>
<DataArray Name="shear" type="Float64" NumberOfComponents="1" format="ascii">
2.260081e-02
3.784148e-02
6.962352e-02
9.888022e-02
1.175356e-01
1.243362e-01
1.194618e-01
1.006759e-01
6.591915e-02
3.280277e-02
2.276629e-02
2.627267e-02
4.061168e-02
6.583991e-02
8.847357e-02
1.062202e-01
1.168717e-01
1.184086e-01
1.097352e-01
9.086311e-02
6.201107e-02
3.985561e-02
3.456725e-02
4.535384e-02
5.948196e-02
7.120939e-02
8.605001e-02
1.037519e-01
1.216337e-01
1.385223e-01
1.557768e-01
1.625783e-01
1.597418e-01
4.092609e-02
4.466340e-02
4.759642e-02
4.948744e-02
5.484204e-02
6.384976e-02
7.614385e-02
9.270582e-02
1.135107e-01
1.352723e-01
1.514599e-01
4.330968e-02
4.087209e-02
3.538488e-02
3.178569e-02
3.005034e-02
2.832600e-02
2.559788e-02
2.206270e-02
1.678325e-02
7.330742e-03
1.282412e-03
4.324884e-02
3.780175e-02
2.971547e-02
2.678592e-02
2.575286e-02
2.468578e-02
2.258239e-02
1.927422e-02
1.448231e-02
6.967244e-03
2.234418e-03
4.064847e-02
3.420544e-02
2.591370e-02
2.386641e-02
2.337188e-02
2.272390e-02
2.111194e-02
1.832536e-02
1.382326e-02
7.031271e-03
2.378152e-03
3.615335e-02
2.987311e-02
2.262183e-02
2.155252e-02
2.155055e-02
2.120682e-02
2.002927e-02
1.771517e-02
1.355404e-02
7.512035e-03
3.524398e-03
3.070895e-02
2.540934e-02
1.998965e-02
1.960863e-02
1.982067e-02
1.974025e-02
1.895707e-02
1.705023e-02
1.336530e-02
8.267876e-03
5.127027e-03
2.495674e-02
2.099567e-02
1.747831e-02
1.758324e-02
1.798374e-02
1.821005e-02
1.780816e-02
1.626713e-02
1.318079e-02
9.235390e-03
7.014330e-03
1.926487e-02
1.669348e-02
1.491941e-02
1.551223e-02
1.615601e-02
1.664062e-02
1.655535e-02
1.540802e-02
1.308744e-02
1.036603e-02
8.976538e-03
1.415484e-02
1.279536e-02
1.241414e-02
1.347824e-02
1.443568e-02
1.510648e-02
1.523854e-02
1.455557e-02
1.313876e-02
1.163381e-02
1.096673e-02
9.864947e-03
9.432899e-03
1.002380e-02
1.145159e-02
1.276604e-02
1.368523e-02
1.404553e-02
1.383797e-02
1.329503e-02
1.287261e-02
1.280018e-02
6.428267e-03
6.590376e-03
7.840674e-03
9.553902e-03
1.117955e-02
1.241020e-02
1.309865e-02
1.336435e-02
1.350369e-02
1.384483e-02
1.418272e-02
3.768718e-03
4.246431e-03
6.023661e-03
8.045956e-03
9.891716e-03
1.136099e-02
1.237272e-02
1.306659e-02
1.368886e-02
1.451588e-02
1.512790e-02
1.746152e-03
2.537173e-03
4.781561e-03
7.081300e-03
9.071705e-03
1.065854e-02
1.187758e-02
1.285402e-02
1.379035e-02
1.492379e-02
1.570321e-02
6.278113e-04
1.866406e-03
4.329673e-03
6.727119e-03
8.773361e-03
1.040186e-02
1.169890e-02
1.276861e-02
1.380882e-02
1.505023e-02
1.588773e-02
</DataArray>
<DataArray Name="stress" type="Float64" NumberOfComponents="9" format="ascii">
-1.281928e+05 7.628270e+03 0.000000e+00 7.628270e+03 -2.319084e+05 0.000000e+00 0.000000e+00 0.000000e+00 0.000000e+00
-1.169827e+05 5.195061e+03 0.000000e+00 5.195061e+03 -2.347619e+05 0.000000e+00 0.000000e+00 0.000000e+00 0.000000e+00
-1.224031e+05 3.636802e+03 0.000000e+00 3.636802e+03 -2.347014e+05 0.000000e+00 0.000000e+00 0.000000e+00 0.000000e+00
-1.349516e+05 5.524008e+03 0.000000e+00 5.524008e+03 -2.471765e+05 0.000000e+00 0.000000e+00 0.000000e+00 0.000000e+00
-1.445564e+05 3.829581e+03 0.000000e+00 3.829581e+03 -2.532542e+05 0.000000e+00 0.000000e+00 0.000000e+00 0.000000e+00
-1.508326e+05 5.172670e+03 0.000000e+00 5.172670e+03 -2.556185e+05 0.000000e+00 0.000000e+00 0.000000e+00 0.000000e+00
-1.532214e+05 7.994861e+03 0.000000e+00 7.994861e+03 -2.733807e+05 0.000000e+00 0.000000e+00 0.000000e+00 0.000000e+00
-1.510996e+05 1.072468e+04 0.000000e+00 1.072468e+04 -2.792497e+05 0.000000e+00 0.000000e+00 0.000000e+00 0.000000e+00
-1.542099e+05 8.648363e+03 0.000000e+00 8.648363e+03 -2.953278e+05 0.000000e+00 0.000000e+00 0.000000e+00 0.000000e+00
-1.622877e+05 -9.378111e+02 0.000000e+00 -9.378111e+02 -3.083716e+05 0.000000e+00 0.000000e+00 0.000000e+00 0.000000e+00
-1.646923e+05 -3.572052e+02 0.000000e+00 -3.572052e+02 -2.920329e+05 0.000000e+00 0.000000e+00 0.000000e+00 0.000000e+00
-1.342973e+05 2.277489e+04 0.000000e+00 2.277489e+04 -2.274728e+05 0.000000e+00 0.000000e+00 0.000000e+00 0.000000e+00
-1.183225e+05 1.857899e+04 0.000000e+00 1.857899e+04 -2.231345e+05 0.000000e+00 0.000000e+00 0.000000e+00 0.000000e+00
-1.204197e+05 1.602279e+04 0.000000e+00 1.602279e+04 -2.309020e+05 0.000000e+00 0.000000e+00 0.000000e+00 0.000000e+00
-1.304384e+05 1.310204e+04 0.000000e+00 1.310204e+04 -2.421332e+05 0.000000e+00 0.000000e+00 0.000000e+00 0.000000e+00
-1.419408e+05 1.177433e+04 0.000000e+00 1.177433e+04 -2.516172e+05 0.000000e+00 0.000000e+00 0.000000e+00 0.000000e+00
-1.497359e+05 1.270927e+04 0.000000e+00 1.270927e+04 -2.599878e+05 0.000000e+00 0.000000e+00 0.000000e+00 0.000000e+00
-1.537725e+05 1.480946e+04 0.000000e+00 1.480946e+04 -2.732439e+05 0.000000e+00 0.000000e+00 0.000000e+00 0.000000e+00
-1.541515e+05 1.483449e+04 0.000000e+00 1.483449e+04 -2.819018e+05 0.000000e+00 0.000000e+00 0.000000e+00 0.000000e+00
-1.571787e+05 6.841445e+03 0.000000e+00 6.841445e+03 -2.954023e+05 0.000000e+00 0.000000e+00 0.000000e+00 0.000000e+00
-1.582231e+05 -2.554332e+03 0.000000e+00 -2.554332e+03 -2.985650e+05 0.000000e+00 0.000000e+00 0.000000e+00 0.000000e+00
-1.821566e+05 -9.025961e+03 0.000000e+00 -9.025961e+03 -3.429203e+05 0.000000e+00 0.000000e+00 0.000000e+00 0.000000e+00
-1.358065e+05 3.630446e+04 0.000000e+00 3.630446e+04 -1.975560e+05 0.000000e+00 0.000000e+00 0.000000e+00 0.000000e+00
-1.165358e+05 3.004256e+04 0.000000e+00 3.004256e+04 -1.844297e+05 0.000000e+00 0.000000e+00 0.000000e+00 0.000000e+00
-1.165528e+05 2.853302e+04 0.000000e+00 2.853302e+04 -1.923498e+05 0.000000e+00 0.000000e+00 0.000000e+00 0.000000e+00
-1.265523e+05 2.928335e+04 0.000000e+00 2.928335e+04 -2.051123e+05 0.000000e+00 0.000000e+00 0.000000e+00 0.000000e+00
-1.428515e+05 3.092346e+04 0.000000e+00 3.092346e+04 -2.222602e+05 0.000000e+00 0.000000e+00 0.000000e+00 0.000000e+00
-1.606304e+05 3.482929e+04 0.000000e+00 3.482929e+04 -2.391679e+05 0.000000e+00 0.000000e+00 0.000000e+00 0.000000e+00
-1.721767e+05 3.825027e+04 0.000000e+00 3.825027e+04 -2.603332e+05 0.000000e+00 0.000000e+00 0.000000e+00 0.000000e+00
-1.801850e+05 4.147085e+04 0.000000e+00 4.147085e+04 -2.805198e+05 0.000000e+00 0.000000e+00 0.000000e+00 0.000000e+00
-1.892052e+05 3.450138e+04 0.000000e+00 3.450138e+04 -2.936674e+05 0.000000e+00 0.000000e+00 0.000000e+00 0.000000e+00
-1.955804e+05 2.011846e+04 0.000000e+00 2.011846e+04 -3.033312e+05 0.000000e+00 0.000000e+00 0.000000e+00 0.000000e+00
-2.178610e+05 -3.417755e+03 0.000000e+00 -3.417755e+03 -3.660702e+05 0.000000e+00 0.000000e+00 0.000000e+00 0.000000e+00
-1.234973e+05 3.384147e+04 0.000000e+00 3.384147e+04 -1.461487e+05 0.000000e+00 0.000000e+00 0.000000e+00 0.000000e+00
-1.087990e+05 3.052301e+04 0.000000e+00 3.052301e+04 -1.356183e+05 0.000000e+00 0.000000e+00 0.000000e+00 0.000000e+00
-1.116602e+05 3.184695e+04 0.000000e+00 3.184695e+04 -1.366176e+05 0.000000e+00 0.000000e+00 0.000000e+00 0.000000e+00
-1.211321e+05 3.572441e+04 0.000000e+00 3.572441e+04 -1.369601e+05 0.000000e+00 0.000000e+00 0.000000e+00 0.000000e+00
-1.300913e+05 3.765466e+04 0.000000e+00 3.765466e+04 -1.354141e+05 0.000000e+00 0.000000e+00 0.000000e+00 0.000000e+00
-1.361282e+05 3.614471e+04 0.000000e+00 3.614471e+04 -1.305524e+05 0.000000e+00 0.000000e+00 0.000000e+00 0.000000e+00
-1.343430e+05 3.220450e+04 0.000000e+00 3.220450e+04 -1.223361e+05 0.000000e+00 0.000000e+00 0.000000e+00 0.000000e+00
-1.227237e+05 2.688484e+04 0.000000e+00 2.688484e+04 -1.081071e+05 0.000000e+00 0.000000e+00 0.000000e+00 0.000000e+00
-1.103055e+05 1.899376e+04 0.000000e+00 1.899376e+04 -9.342943e+04 0.000000e+00 0.000000e+00 0.000000e+00 0.000000e+00
-8.464492e+04 9.025482e+03 0.000000e+00 9.025482e+03 -7.965220e+04 0.000000e+00 0.000000e+00 0.000000e+00 0.000000e+00
-4.535678e+04 3.723633e+03 0.000000e+00 3.723633e+03 -5.782757e+04 0.000000e+00 0.000000e+00 0.000000e+00 0.000000e+00
-1.160583e+05 3.247956e+04 0.000000e+00 3.247956e+04 -1.185757e+05 0.000000e+00 0.000000e+00 0.000000e+00 0.000000e+00
-1.099527e+05 3.111068e+04 0.000000e+00 3.111068e+04 -1.149268e+05 0.000000e+00 0.000000e+00 0.000000e+00 0.000000e+00
-1.178084e+05 3.329533e+04 0.000000e+00 3.329533e+04 -1.177312e+05 0.000000e+00 0.000000e+00 0.000000e+00 0.000000e+00
-1.300608e+05 3.542373e+04 0.000000e+00 3.542373e+04 -1.168259e+05 0.000000e+00 0.000000e+00 0.000000e+00 0.000000e+00
-1.396685e+05 3.503143e+04 0.000000e+00 3.503143e+04 -1.109156e+05 0.000000e+00 0.000000e+00 0.000000e+00 0.000000e+00
-1.456852e+05 3.109331e+04 0.000000e+00 3.109331e+04 -1.026020e+05 0.000000e+00 0.000000e+00 0.000000e+00 0.000000e+00
-1.447988e+05 2.481822e+04 0.000000e+00 2.481822e+04 -9.325688e+04 0.000000e+00 0.000000e+00 0.000000e+00 0.000000e+00
-1.379399e+05 1.816572e+04 0.000000e+00 1.816572e+04 -8.344814e+04 0.000000e+00 0.000000e+00 0.000000e+00 0.000000e+00
-1.263096e+05 1.007671e+04 0.000000e+00 1.007671e+04 -7.476854e+04 0.000000e+00 0.000000e+00 0.000000e+00 0.000000e+00
-9.572982e+04 1.173984e+03 0.000000e+00 1.173984e+03 -6.818550e+04 0.000000e+00 0.000000e+00 0.000000e+00 0.000000e+00
-5.076016e+04 -1.452671e+03 0.000000e+00 -1.452671e+03 -5.337214e+04 0.000000e+00 0.000000e+00 0.000000e+00 0.000000e+00
-1.096998e+05 3.171394e+04 0.000000e+00 3.171394e+04 -1.038176e+05 0.000000e+00 0.000000e+00 0.000000e+00 0.000000e+00
-1.102812e+05 3.165461e+04 0.000000e+00 3.165461e+04 -1.036093e+05 0.000000e+00 0.000000e+00 0.000000e+00 0.000000e+00
-1.189378e+05 3.213012e+04 0.000000e+00 3.213012e+04 -1.035201e+05 0.000000e+00 0.000000e+00 0.000000e+00 0.000000e+00
-1.292302e+05 3.021192e+04 0.000000e+00 3.021192e+04 -9.859963e+04 0.000000e+00 0.000000e+00 0.000000e+00 0.000000e+00
-1.361380e+05 2.705496e+04 0.000000e+00 2.705496e+04 -9.249282e+04 0.000000e+00 0.000000e+00 0.000000e+00 0.000000e+00
-1.393948e+05 2.208116e+04 0.000000e+00 2.208116e+04 -8.601190e+04 0.000000e+00 0.000000e+00 0.000000e+00 0.000000e+00
-1.379404e+05 1.585585e+04 0.000000e+00 1.585585e+04 -7.919307e+04 0.000000e+00 0.000000e+00 0.000000e+00 0.000000e+00
-1.305724e+05 8.926024e+03 0.000000e+00 8.926024e+03 -7.217408e+04 0.000000e+00 0.000000e+00 0.000000e+00 0.000000e+00
-1.167542e+05 1.434073e+03 0.000000e+00 1.434073e+03 -6.620795e+04 0.000000e+00 0.000000e+00 0.000000e+00 0.000000e+00
-9.012719e+04 -4.021569e+03 0.000000e+00 -4.021569e+03 -6.211516e+04 0.000000e+00 0.000000e+00 0.000000e+00 0.000000e+00
-5.630207e+04 -4.655210e+03 0.000000e+00 -4.655210e+03 -5.440355e+04 0.000000e+00 0.000000e+00 0.000000e+00 0.000000e+00
-1.024430e+05 3.041644e+04 0.000000e+00 3.041644e+04 -9.167040e+04 0.000000e+00 0.000000e+00 0.000000e+00 0.000000e+00
-1.085584e+05 3.048356e+04 0.000000e+00 3.048356e+04 -9.367816e+04 0.000000e+00 0.000000e+00 0.000000e+00 0.000000e+00
-1.170643e+05 2.781608e+04 0.000000e+00 2.781608e+04 -9.067695e+04 0.000000e+00 0.000000e+00 0.000000e+00 0.000000e+00
-1.265095e+05 2.475317e+04 0.000000e+00 2.475317e+04 -8.589337e+04 0.000000e+00 0.000000e+00 0.000000e+00 0.000000e+00
-1.317538e+05 2.072724e+04 0.000000e+00 2.072724e+04 -8.107753e+04 0.000000e+00 0.000000e+00 0.000000e+00 0.000000e+00
-1.333851e+05 1.545786e+04 0.000000e+00 1.545786e+04 -7.581252e+04 0.000000e+00 0.000000e+00 0.000000e+00 0.000000e+00
-1.308785e+05 9.272232e+03 0.000000e+00 9.272232e+03 -7.059102e+04 0.000000e+00 0.000000e+00 0.000000e+00 0.000000e+00
-1.228201e+05 2.542984e+03 0.000000e+00 2.542984e+03 -6.579084e+04 0.000000e+00 0.000000e+00 0.000000e+00 0.000000e+00
-1.097526e+05 -3.370435e+03 0.000000e+00 -3.370435e+03 -6.248217e+04 0.000000e+00 0.000000e+00 0.000000e+00 0.000000e+00
-8.869163e+04 -5.402854e+03 0.000000e+00 -5.402854e+03 -6.036579e+04 0.000000e+00 0.000000e+00 0.000000e+00 0.000000e+00
-6.531817e+04 -4.506232e+03 0.000000e+00 -4.506232e+03 -5.602732e+04 0.000000e+00 0.000000e+00 0.000000e+00 0.000000e+00
-9.326728e+04 2.758391e+04 0.000000e+00 2.758391e+04 -8.122345e+04 0.000000e+00 0.000000e+00 0.000000e+00 0.000000e+00
-1.042042e+05 2.773301e+04 0.000000e+00 2.773301e+04 -8.493923e+04 0.000000e+00 0.000000e+00 0.000000e+00 0.000000e+00
-1.143560e+05 2.357484e+04 0.000000e+00 2.357484e+04 -8.107035e+04 0.000000e+00 0.000000e+00 0.000000e+00 0.000000e+00
-1.226342e+05 2.007793e+04 0.000000e+00 2.007793e+04 -7.721586e+04 0.000000e+00 0.000000e+00 0.000000e+00 0.000000e+00
-1.266053e+05 1.555629e+04 0.000000e+00 1.555629e+04 -7.318414e+04 0.000000e+00 0.000000e+00 0.000000e+00 0.000000e+00
-1.273618e+05 1.031151e+04 0.000000e+00 1.031151e+04 -6.900966e+04 0.000000e+00 0.000000e+00 0.000000e+00 0.000000e+00
-1.239850e+05 4.450523e+03 0.000000e+00 4.450523e+03 -6.516850e+04 0.000000e+00 0.000000e+00 0.000000e+00 0.000000e+00
-1.161640e+05 -1.271525e+03 0.000000e+00 -1.271525e+03 -6.225891e+04 0.000000e+00 0.000000e+00 0.000000e+00 0.000000e+00
-1.053896e+05 -5.341969e+03 0.000000e+00 -5.341969e+03 -6.056057e+04 0.000000e+00 0.000000e+00 0.000000e+00 0.000000e+00
-9.034187e+04 -5.549425e+03 0.000000e+00 -5.549425e+03 -5.968389e+04 0.000000e+00 0.000000e+00 0.000000e+00 0.000000e+00
-7.472765e+04 -4.168717e+03 0.000000e+00 -4.168717e+03 -5.673013e+04 0.000000e+00 0.000000e+00 0.000000e+00 0.000000e+00
-8.485162e+04 2.392395e+04 0.000000e+00 2.392395e+04 -7.396627e+04 0.000000e+00 0.000000e+00 0.000000e+00 0.000000e+00
-9.944764e+04 2.428651e+04 0.000000e+00 2.428651e+04 -7.815513e+04 0.000000e+00 0.000000e+00 0.000000e+00 0.000000e+00
-1.109550e+05 2.010454e+04 0.000000e+00 2.010454e+04 -7.432504e+04 0.000000e+00 0.000000e+00 0.000000e+00 0.000000e+00
-1.180276e+05 1.614469e+04 0.000000e+00 1.614469e+04 -7.100752e+04 0.000000e+00 0.000000e+00 0.000000e+00 0.000000e+00
-1.214016e+05 1.149676e+04 0.000000e+00 1.149676e+04 -6.778237e+04 0.000000e+00 0.000000e+00 0.000000e+00 0.000000e+00
-1.214981e+05 6.401728e+03 0.000000e+00 6.401728e+03 -6.461071e+04 0.000000e+00 0.000000e+00 0.000000e+00 0.000000e+00
-1.179355e+05 1.205256e+03 0.000000e+00 1.205256e+03 -6.196125e+04 0.000000e+00 0.000000e+00 0.000000e+00 0.000000e+00
-1.111467e+05 -3.283411e+03 0.000000e+00 -3.283411e+03 -6.025977e+04 0.000000e+00 0.000000e+00 0.000000e+00 0.000000e+00
-1.030566e+05 -5.887467e+03 0.000000e+00 -5.887467e+03 -5.951186e+04 0.000000e+00 0.000000e+00 0.000000e+00 0.000000e+00
-9.309881e+04 -5.167098e+03 0.000000e+00 -5.167098e+03 -5.935155e+04 0.000000e+00 0.000000e+00 0.000000e+00 0.000000e+00
-8.330212e+04 -3.499001e+03 0.000000e+00 -3.499001e+03 -5.742796e+04 0.000000e+00 0.000000e+00 0.000000e+00 0.000000e+00
-7.827246e+04 2.094098e+04 0.000000e+00 2.094098e+04 -6.857253e+04 0.000000e+00 0.000000e+00 0.000000e+00 0.000000e+00
-9.515231e+04 2.107382e+04 0.000000e+00 2.107382e+04 -7.264749e+04 0.000000e+00 0.000000e+00 0.000000e+00 0.000000e+00
-1.071573e+05 1.713527e+04 0.000000e+00 1.713527e+04 -6.949178e+04 0.000000e+00 0.000000e+00 0.000000e+00 0.000000e+00
-1.134644e+05 1.294071e+04 0.000000e+00 1.294071e+04 -6.663906e+04 0.000000e+00 0.000000e+00 0.000000e+00 0.000000e+00
-1.162931e+05 8.363609e+03 0.000000e+00 8.363609e+03 -6.404993e+04 0.000000e+00 0.000000e+00 0.000000e+00 0.000000e+00
-1.160881e+05 3.613177e+03 0.000000e+00 3.613177e+03 -6.178811e+04 0.000000e+00 0.000000e+00 0.000000e+00 0.000000e+00
-1.128973e+05 -8.300178e+02 0.000000e+00 -8.300178e+02 -6.007127e+04 0.000000e+00 0.000000e+00 0.000000e+00 0.000000e+00
-1.076329e+05 -4.208804e+03 0.000000e+00 -4.208804e+03 -5.914172e+04 0.000000e+00 0.000000e+00 0.000000e+00 0.000000e+00
-1.021375e+05 -5.734989e+03 0.000000e+00 -5.734989e+03 -5.890388e+04 0.000000e+00 0.000000e+00 0.000000e+00 0.000000e+00
-9.628931e+04 -4.512205e+03 0.000000e+00 -4.512205e+03 -5.914515e+04 0.000000e+00 0.000000e+00 0.000000e+00 0.000000e+00
-9.076273e+04 -2.745892e+03 0.000000e+00 -2.745892e+03 -5.816851e+04 0.000000e+00 0.000000e+00 0.000000e+00 0.000000e+00
-7.447289e+04 1.890191e+04 0.000000e+00 1.890191e+04 -6.501478e+04 0.000000e+00 0.000000e+00 0.000000e+00 0.000000e+00
-9.151414e+04 1.865482e+04 0.000000e+00 1.865482e+04 -6.866708e+04 0.000000e+00 0.000000e+00 0.000000e+00 0.000000e+00
-1.028654e+05 1.456609e+04 0.000000e+00 1.456609e+04 -6.578748e+04 0.000000e+00 0.000000e+00 0.000000e+00 0.000000e+00
-1.087272e+05 1.034488e+04 0.000000e+00 1.034488e+04 -6.349033e+04 0.000000e+00 0.000000e+00 0.000000e+00 0.000000e+00
-1.113869e+05 5.980431e+03 0.000000e+00 5.980431e+03 -6.146481e+04 0.000000e+00 0.000000e+00 0.000000e+00 0.000000e+00
-1.112608e+05 1.698058e+03 0.000000e+00 1.698058e+03 -5.991082e+04 0.000000e+00 0.000000e+00 0.000000e+00 0.000000e+00
-1.088445e+05 -2.004215e+03 0.000000e+00 -2.004215e+03 -5.890687e+04 0.000000e+00 0.000000e+00 0.000000e+00 0.000000e+00
-1.053185e+05 -4.474874e+03 0.000000e+00 -4.474874e+03 -5.848023e+04 0.000000e+00 0.000000e+00 0.000000e+00 0.000000e+00
-1.020814e+05 -5.190005e+03 0.000000e+00 -5.190005e+03 -5.862151e+04 0.000000e+00 0.000000e+00 0.000000e+00 0.000000e+00
-9.943681e+04 -3.723870e+03 0.000000e+00 -3.723870e+03 -5.910849e+04 0.000000e+00 0.000000e+00 0.000000e+00 0.000000e+00
-9.705727e+04 -2.006737e+03 0.000000e+00 -2.006737e+03 -5.885231e+04 0.000000e+00 0.000000e+00 0.000000e+00 0.000000e+00
-7.208751e+04 1.699765e+04 0.000000e+00 1.699765e+04 -6.270138e+04 0.000000e+00 0.000000e+00 0.000000e+00 0.000000e+00
-8.768555e+04 1.636113e+04 0.000000e+00 1.636113e+04 -6.576216e+04 0.000000e+00 0.000000e+00 0.000000e+00 0.000000e+00
-9.846983e+04 1.228795e+04 0.000000e+00 1.228795e+04 -6.323541e+04 0.000000e+00 0.000000e+00 0.000000e+00 0.000000e+00
-1.041078e+05 8.280123e+03 0.000000e+00 8.280123e+03 -6.142710e+04 0.000000e+00 0.000000e+00 0.000000e+00 0.000000e+00
-1.067990e+05 4.237879e+03 0.000000e+00 4.237879e+03 -5.982210e+04 0.000000e+00 0.000000e+00 0.000000e+00 0.000000e+00
-1.070834e+05 4.665458e+02 0.000000e+00 4.665458e+02 -5.871431e+04 0.000000e+00 0.000000e+00 0.000000e+00 0.000000e+00
-1.057860e+05 -2.538500e+03 0.000000e+00 -2.538500e+03 -5.817439e+04 0.000000e+00 0.000000e+00 0.000000e+00 0.000000e+00
-1.039125e+05 -4.259834e+03 0.000000e+00 -4.259834e+03 -5.815722e+04 0.000000e+00 0.000000e+00 0.000000e+00 0.000000e+00
-1.026019e+05 -4.409095e+03 0.000000e+00 -4.409095e+03 -5.863413e+04 0.000000e+00 0.000000e+00 0.000000e+00 0.000000e+00
-1.022073e+05 -2.904588e+03 0.000000e+00 -2.904588e+03 -5.925227e+04 0.000000e+00 0.000000e+00 0.000000e+00 0.000000e+00
-1.018942e+05 -1.339452e+03 0.000000e+00 -1.339452e+03 -5.946223e+04 0.000000e+00 0.000000e+00 0.000000e+00 0.000000e+00
-6.988795e+04 1.486676e+04 0.000000e+00 1.486676e+04 -6.182529e+04 0.000000e+00 0.000000e+00 0.000000e+00 0.000000e+00
-8.378702e+04 1.405285e+04 0.000000e+00 1.405285e+04 -6.394474e+04 0.000000e+00 0.000000e+00 0.000000e+00 0.000000e+00
-9.433244e+04 1.027515e+04 0.000000e+00 1.027515e+04 -6.153446e+04 0.000000e+00 0.000000e+00 0.000000e+00 0.000000e+00
-9.985757e+04 6.602983e+03 0.000000e+00 6.602983e+03 -5.996234e+04 0.000000e+00 0.000000e+00 0.000000e+00 0.000000e+00
-1.026169e+05 2.966609e+03 0.000000e+00 2.966609e+03 -5.872698e+04 0.000000e+00 0.000000e+00 0.000000e+00 0.000000e+00
-1.035572e+05 -2.329277e+02 0.000000e+00 -2.329277e+02 -5.798930e+04 0.000000e+00 0.000000e+00 0.000000e+00 0.000000e+00
-1.034988e+05 -2.584969e+03 0.000000e+00 -2.584969e+03 -5.780893e+04 0.000000e+00 0.000000e+00 0.000000e+00 0.000000e+00
-1.031895e+05 -3.712443e+03 0.000000e+00 -3.712443e+03 -5.812661e+04 0.000000e+00 0.000000e+00 0.000000e+00 0.000000e+00
-1.034269e+05 -3.542147e+03 0.000000e+00 -3.542147e+03 -5.879062e+04 0.000000e+00 0.000000e+00 0.000000e+00 0.000000e+00
-1.044604e+05 -2.187165e+03 0.000000e+00 -2.187165e+03 -5.946883e+04 0.000000e+00 0.000000e+00 0.000000e+00 0.000000e+00
-1.055156e+05 -9.182269e+02 0.000000e+00 -9.182269e+02 -5.993335e+04 0.000000e+00 0.000000e+00 0.000000e+00 0.000000e+00
-6.817499e+04 1.221782e+04 0.000000e+00 1.221782e+04 -6.193427e+04 0.000000e+00 0.000000e+00 0.000000e+00 0.000000e+00
-8.029252e+04 1.132302e+04 0.000000e+00 1.132302e+04 -6.298845e+04 0.000000e+00 0.000000e+00 0.000000e+00 0.000000e+00
-9.062571e+04 8.242221e+03 0.000000e+00 8.242221e+03 -6.053516e+04 0.000000e+00 0.000000e+00 0.000000e+00 0.000000e+00
-9.614680e+04 5.085544e+03 0.000000e+00 5.085544e+03 -5.887614e+04 0.000000e+00 0.000000e+00 0.000000e+00 0.000000e+00
-9.915366e+04 2.054029e+03 0.000000e+00 2.054029e+03 -5.786899e+04 0.000000e+00 0.000000e+00 0.000000e+00 0.000000e+00
-1.007565e+05 -4.926883e+02 0.000000e+00 -4.926883e+02 -5.749204e+04 0.000000e+00 0.000000e+00 0.000000e+00 0.000000e+00
-1.017759e+05 -2.220984e+03 0.000000e+00 -2.220984e+03 -5.765501e+04 0.000000e+00 0.000000e+00 0.000000e+00 0.000000e+00
-1.027716e+05 -2.948188e+03 0.000000e+00 -2.948188e+03 -5.819750e+04 0.000000e+00 0.000000e+00 0.000000e+00 0.000000e+00
-1.042986e+05 -2.678213e+03 0.000000e+00 -2.678213e+03 -5.890323e+04 0.000000e+00 0.000000e+00 0.000000e+00 0.000000e+00
-1.063960e+05 -1.570523e+03 0.000000e+00 -1.570523e+03 -5.954457e+04 0.000000e+00 0.000000e+00 0.000000e+00 0.000000e+00
-1.083732e+05 -6.106661e+02 0.000000e+00 -6.106661e+02 -6.023351e+04 0.000000e+00 0.000000e+00 0.000000e+00 0.000000e+00
-6.748453e+04 9.025325e+03 0.000000e+00 9.025325e+03 -6.292585e+04 0.000000e+00 0.000000e+00 0.000000e+00 0.000000e+00
-7.783266e+04 8.201255e+03 0.000000e+00 8.201255e+03 -6.285115e+04 0.000000e+00 0.000000e+00 0.000000e+00 0.000000e+00
-8.756505e+04 5.950979e+03 0.000000e+00 5.950979e+03 -6.019947e+04 0.000000e+00 0.000000e+00 0.000000e+00 0.000000e+00
-9.309879e+04 3.538856e+03 0.000000e+00 3.538856e+03 -5.830769e+04 0.000000e+00 0.000000e+00 0.000000e+00 0.000000e+00
-9.649897e+04 1.352970e+03 0.000000e+00 1.352970e+03 -5.726040e+04 0.000000e+00 0.000000e+00 0.000000e+00 0.000000e+00
-9.873104e+04 -4.097106e+02 0.000000e+00 -4.097106e+02 -5.705371e+04 0.000000e+00 0.000000e+00 0.000000e+00 0.000000e+00
-1.006040e+05 -1.582135e+03 0.000000e+00 -1.582135e+03 -5.744100e+04 0.000000e+00 0.000000e+00 0.000000e+00 0.000000e+00
-1.025605e+05 -2.056229e+03 0.000000e+00 -2.056229e+03 -5.816269e+04 0.000000e+00 0.000000e+00 0.000000e+00 0.000000e+00
-1.050508e+05 -1.815863e+03 0.000000e+00 -1.815863e+03 -5.893938e+04 0.000000e+00 0.000000e+00 0.000000e+00 0.000000e+00
-1.078021e+05 -1.008792e+03 0.000000e+00 -1.008792e+03 -5.957842e+04 0.000000e+00 0.000000e+00 0.000000e+00 0.000000e+00
-1.103225e+05 -3.536469e+02 0.000000e+00 -3.536469e+02 -6.042137e+04 0.000000e+00 0.000000e+00 0.000000e+00 0.000000e+00
-6.700813e+04 4.829533e+03 0.000000e+00 4.829533e+03 -6.419154e+04 0.000000e+00 0.000000e+00 0.000000e+00 0.000000e+00
-7.619391e+04 4.346228e+03 0.000000e+00 4.346228e+03 -6.335797e+04 0.000000e+00 0.000000e+00 0.000000e+00 0.000000e+00
-8.548705e+04 3.112922e+03 0.000000e+00 3.112922e+03 -6.024934e+04 0.000000e+00 0.000000e+00 0.000000e+00 0.000000e+00
-9.105423e+04 1.796128e+03 0.000000e+00 1.796128e+03 -5.818766e+04 0.000000e+00 0.000000e+00 0.000000e+00 0.000000e+00
-9.482196e+04 6.690925e+02 0.000000e+00 6.690925e+02 -5.709464e+04 0.000000e+00 0.000000e+00 0.000000e+00 0.000000e+00
-9.750991e+04 -2.059700e+02 0.000000e+00 -2.059700e+02 -5.690218e+04 0.000000e+00 0.000000e+00 0.000000e+00 0.000000e+00
-9.991306e+04 -8.084008e+02 0.000000e+00 -8.084008e+02 -5.735957e+04 0.000000e+00 0.000000e+00 0.000000e+00 0.000000e+00
-1.024807e+05 -1.066440e+03 0.000000e+00 -1.066440e+03 -5.816608e+04 0.000000e+00 0.000000e+00 0.000000e+00 0.000000e+00
-1.055476e+05 -9.254646e+02 0.000000e+00 -9.254646e+02 -5.899161e+04 0.000000e+00 0.000000e+00 0.000000e+00 0.000000e+00
-1.086157e+05 -4.852842e+02 0.000000e+00 -4.852842e+02 -5.965180e+04 0.000000e+00 0.000000e+00 0.000000e+00 0.000000e+00
-1.113901e+05 -1.287678e+02 0.000000e+00 -1.287678e+02 -6.056893e+04 0.000000e+00 0.000000e+00 0.000000e+00 0.000000e+00
-6.675402e+04 1.444653e+03 0.000000e+00 1.444653e+03 -6.448259e+04 0.000000e+00 0.000000e+00 0.000000e+00 0.000000e+00
-7.560654e+04 1.292854e+03 0.000000e+00 1.292854e+03 -6.348304e+04 0.000000e+00 0.000000e+00 0.000000e+00 0.000000e+00
-8.477604e+04 8.117213e+02 0.000000e+00 8.117213e+02 -6.029075e+04 0.000000e+00 0.000000e+00 0.000000e+00 0.000000e+00
-9.041284e+04 3.268417e+02 0.000000e+00 3.268417e+02 -5.823710e+04 0.000000e+00 0.000000e+00 0.000000e+00 0.000000e+00
-9.432838e+04 -7.799099e+01 0.000000e+00 -7.799099e+01 -5.714248e+04 0.000000e+00 0.000000e+00 0.000000e+00 0.000000e+00
-9.714789e+04 -4.028525e+02 0.000000e+00 -4.028525e+02 -5.690504e+04 0.000000e+00 0.000000e+00 0.000000e+00 0.000000e+00
-9.969534e+04 -6.495301e+02 0.000000e+00 -6.495301e+02 -5.735555e+04 0.000000e+00 0.000000e+00 0.000000e+00 0.000000e+00
-1.024766e+05 -7.696568e+02 0.000000e+00 -7.696568e+02 -5.820261e+04 0.000000e+00 0.000000e+00 0.000000e+00 0.000000e+00
-1.057756e+05 -6.847263e+02 0.000000e+00 -6.847263e+02 -5.905721e+04 0.000000e+00 0.000000e+00 0.000000e+00 0.000000e+00
-1.089327e+05 -4.565739e+02 0.000000e+00 -4.565739e+02 -5.972252e+04 0.000000e+00 0.000000e+00 0.000000e+00 0.000000e+00
-1.117628e+05 -2.741781e+02 0.000000e+00 -2.741781e+02 -6.065626e+04 0.000000e+00 0.000000e+00 0.000000e+00 0.000000e+00
</DataArray>
<DataArray Name="vol_eps" type="Float64" NumberOfComponents="1" format="ascii">
-1.486279e-02
-1.252533e-02
-9.350172e-03
-7.686835e-03
-7.384387e-03
-8.010134e-03
-8.644063e-03
-1.086563e-02
-1.600341e-02
-2.097359e-02
-2.100208e-02
-1.469240e-02
-1.158590e-02
-9.012090e-03
-7.748416e-03
-7.496239e-03
-7.911162e-03
-8.315478e-03
-9.878702e-03
-1.309378e-02
-1.630628e-02
-2.336337e-02
-1.221632e-02
-8.570346e-03
-7.324992e-03
-7.336433e-03
-8.115795e-03
-9.019895e-03
-9.633471e-03
-1.021315e-02
-1.049763e-02
-1.099630e-02
-1.561330e-02
-7.617509e-03
-5.297190e-03
-5.139000e-03
-5.473020e-03
-5.534917e-03
-4.635395e-03
-2.586477e-03
5.445915e-04
4.588393e-03
9.532276e-03
1.596697e-02
-4.804718e-03
-4.297941e-03
-5.532696e-03
-6.614315e-03
-7.011157e-03
-6.982727e-03
-6.487143e-03
-5.628047e-03
-4.705624e-03
-2.632621e-03
1.522194e-03
-2.969176e-03
-3.535853e-03
-5.046114e-03
-5.755174e-03
-5.859889e-03
-5.639509e-03
-5.165462e-03
-4.484543e-03
-3.648991e-03
-1.955267e-03
7.992359e-04
-1.501438e-03
-2.909657e-03
-4.381997e-03
-4.898149e-03
-4.858323e-03
-4.531862e-03
-4.116747e-03
-3.597609e-03
-2.997257e-03
-1.786422e-03
-2.249875e-05
-4.665835e-04
-2.400537e-03
-3.807727e-03
-4.130094e-03
-4.009534e-03
-3.734222e-03
-3.385206e-03
-2.979630e-03
-2.598242e-03
-1.862579e-03
-7.002084e-04
-1.129741e-05
-2.076780e-03
-3.279489e-03
-3.489272e-03
-3.421028e-03
-3.194588e-03
-2.889605e-03
-2.582111e-03
-2.382771e-03
-2.021883e-03
-1.314131e-03
1.706760e-04
-1.858125e-03
-2.865363e-03
-3.042289e-03
-3.006696e-03
-2.819875e-03
-2.565957e-03
-2.353973e-03
-2.295076e-03
-2.197189e-03
-1.842821e-03
7.942499e-05
-1.737770e-03
-2.522796e-03
-2.695665e-03
-2.695096e-03
-2.557671e-03
-2.366325e-03
-2.240396e-03
-2.281009e-03
-2.353821e-03
-2.249932e-03
-1.303700e-04
-1.633503e-03
-2.255024e-03
-2.436646e-03
-2.462647e-03
-2.377446e-03
-2.262697e-03
-2.212636e-03
-2.313041e-03
-2.469249e-03
-2.514370e-03
-3.448474e-04
-1.525266e-03
-2.044793e-03
-2.238208e-03
-2.281602e-03
-2.249376e-03
-2.212616e-03
-2.240978e-03
-2.371946e-03
-2.543456e-03
-2.662447e-03
-4.873076e-04
-1.402359e-03
-1.883398e-03
-2.069110e-03
-2.130987e-03
-2.143687e-03
-2.176270e-03
-2.269990e-03
-2.424652e-03
-2.586325e-03
-2.738461e-03
-6.015486e-04
-1.297584e-03
-1.745039e-03
-1.928144e-03
-2.006679e-03
-2.057952e-03
-2.144067e-03
-2.281809e-03
-2.460052e-03
-2.606281e-03
-2.771346e-03
-6.987813e-04
-1.238357e-03
-1.634874e-03
-1.829291e-03
-1.931769e-03
-2.014140e-03
-2.129396e-03
-2.293894e-03
-2.483149e-03
-2.614663e-03
-2.782525e-03
-7.150809e-04
-1.211510e-03
-1.598347e-03
-1.809903e-03
-1.923674e-03
-2.009344e-03
-2.129572e-03
-2.306205e-03
-2.503732e-03
-2.628559e-03
-2.794329e-03
</DataArray>
</PointData>
</Piece>
</UnstructuredGrid>
</VTKFile>
