<?xml version="1.0"?>
<VTKFile type="UnstructuredGrid" version="0.1">
<UnstructuredGrid>
<FieldData>
<DataArray Name="TIME" type="Float64" format="ascii" NumberOfTuples="1">
0.000000e+00
</DataArray>
</FieldData>
<FieldData>
<DataArray Name="CYCLE" type="Int32" format="ascii" NumberOfTuples="1">
0
</DataArray>
</FieldData>
<Piece NumberOfPoints="187" NumberOfCells="160">
<Points>
<DataArray NumberOfComponents="3" type="Float64" format="ascii">
0.000000e+00 0.000000e+00 0.000000e+00
0.000000e+00 1.971011e-01 0.000000e+00
0.000000e+00 3.929590e-01 0.000000e+00
0.000000e+00 5.869802e-01 0.000000e+00
0.000000e+00 7.793677e-01 0.000000e+00
0.000000e+00 9.710292e-01 0.000000e+00
0.000000e+00 1.162449e+00 0.000000e+00
0.000000e+00 1.354139e+00 0.000000e+00
0.000000e+00 1.547247e+00 0.000000e+00
0.000000e+00 1.742991e+00 0.000000e+00
0.000000e+00 1.939250e+00 0.000000e+00
2.250000e-01 0.000000e+00 0.000000e+00
2.264861e-01 1.971003e-01 0.000000e+00
2.285938e-01 3.929967e-01 0.000000e+00
2.309248e-01 5.877007e-01 0.000000e+00
2.323547e-01 7.811183e-01 0.000000e+00
2.328652e-01 9.736165e-01 0.000000e+00
2.326503e-01 1.165663e+00 0.000000e+00
2.314869e-01 1.357720e+00 0.000000e+00
2.287149e-01 1.549967e+00 0.000000e+00
2.255398e-01 1.743294e+00 0.000000e+00
2.250000e-01 1.939250e+00 0.000000e+00
4.500000e-01 0.000000e+00 0.000000e+00
4.532160e-01 1.974575e-01 0.000000e+00
4.566466e-01 3.940920e-01 0.000000e+00
4.597014e-01 5.902727e-01 0.000000e+00
4.620817e-01 7.860840e-01 0.000000e+00
4.635754e-01 9.811956e-01 0.000000e+00
4.641024e-01 1.175301e+00 0.000000e+00
4.635016e-01 1.368168e+00 0.000000e+00
4.612577e-01 1.559389e+00 0.000000e+00
4.570776e-01 1.749436e+00 0.000000e+00
4.500000e-01 1.939250e+00 0.000000e+00
6.750000e-01 0.000000e+00 0.000000e+00
6.795016e-01 1.984988e-01 0.000000e+00
6.834223e-01 3.968098e-01 0.000000e+00
6.865122e-01 5.952396e-01 0.000000e+00
6.890170e-01 7.938719e-01 0.000000e+00
6.909140e-01 9.927539e-01 0.000000e+00
6.920658e-01 1.191947e+00 0.000000e+00
6.922637e-01 1.391497e+00 0.000000e+00
6.909662e-01 1.591565e+00 0.000000e+00
6.876734e-01 1.791942e+00 0.000000e+00
6.817707e-01 1.992180e+00 0.000000e+00
9.000000e-01 0.000000e+00 0.000000e+00
9.049344e-01 1.989139e-01 0.000000e+00
9.085528e-01 3.979035e-01 0.000000e+00
9.112453e-01 5.971257e-01 0.000000e+00
9.134105e-01 7.965937e-01 0.000000e+00
9.149715e-01 9.963361e-01 0.000000e+00
9.157878e-01 1.196391e+00 0.000000e+00
9.156041e-01 1.396786e+00 0.000000e+00
9.141253e-01 1.597409e+00 0.000000e+00
9.111891e-01 1.797978e+00 0.000000e+00
9.071853e-01 1.998001e+00 0.000000e+00
1.125000e+00 0.000000e+00 0.000000e+00
1.129992e+00 1.993408e-01 0.000000e+00
1.133091e+00 3.988380e-01 0.000000e+00
1.135452e+00 5.985702e-01 0.000000e+00
1.137296e+00 7.985340e-01 0.000000e+00
1.138541e+00 9.987551e-01 0.000000e+00
1.139071e+00 1.199243e+00 0.000000e+00
1.138721e+00 1.399955e+00 0.000000e+00
1.137374e+00 1.600738e+00 0.000000e+00
1.135175e+00 1.801278e+00 0.000000e+00
1.132719e+00 2.001356e+00 0.000000e+00
1.350000e+00 0.000000e+00 0.000000e+00
1.354657e+00 1.996886e-01 0.000000e+00
1.357338e+00 3.995208e-01 0.000000e+00
1.359385e+00 5.995511e-01 0.000000e+00
1.360929e+00 7.998062e-01 0.000000e+00
1.361924e+00 1.000296e+00 0.000000e+00
1.362276e+00 1.201004e+00 0.000000e+00
1.361903e+00 1.401846e+00 0.000000e+00
1.360859e+00 1.602626e+00 0.000000e+00
1.359384e+00 1.803124e+00 0.000000e+00
1.357945e+00 2.003245e+00 0.000000e+00
1.575000e+00 0.000000e+00 0.000000e+00
1.579099e+00 1.998973e-01 0.000000e+00
1.581430e+00 3.999356e-01 0.000000e+00
1.583183e+00 6.001674e-01 0.000000e+00
1.584484e+00 8.006054e-01 0.000000e+00
1.585281e+00 1.001242e+00 0.000000e+00
1.585528e+00 1.202041e+00 0.000000e+00
1.585245e+00 1.402875e+00 0.000000e+00
1.584551e+00 1.603589e+00 0.000000e+00
1.583658e+00 1.804057e+00 0.000000e+00
1.582898e+00 2.004234e+00 0.000000e+00
1.800000e+00 0.000000e+00 0.000000e+00
1.803436e+00 1.999980e-01 0.000000e+00
1.805447e+00 4.001764e-01 0.000000e+00
1.806956e+00 6.005273e-01 0.000000e+00
1.808043e+00 8.010585e-01 0.000000e+00
1.808690e+00 1.001751e+00 0.000000e+00
1.808907e+00 1.202530e+00 0.000000e+00
1.808768e+00 1.403299e+00 0.000000e+00
1.808383e+00 1.603952e+00 0.000000e+00
1.807919e+00 1.804406e+00 0.000000e+00
1.807608e+00 2.004646e+00 0.000000e+00
2.025000e+00 0.000000e+00 0.000000e+00
2.027755e+00 2.000374e-01 0.000000e+00
2.029469e+00 4.002820e-01 0.000000e+00
2.030757e+00 6.006888e-01 0.000000e+00
2.031667e+00 8.012451e-01 0.000000e+00
2.032215e+00 1.001916e+00 0.000000e+00
2.032449e+00 1.202634e+00 0.000000e+00
2.032445e+00 1.403331e+00 0.000000e+00
2.032291e+00 1.603934e+00 0.000000e+00
2.032127e+00 1.804391e+00 0.000000e+00
2.032100e+00 2.004696e+00 0.000000e+00
2.250000e+00 0.000000e+00 0.000000e+00
2.252122e+00 2.000449e-01 0.000000e+00
2.253551e+00 4.002983e-01 0.000000e+00
2.254631e+00 6.007035e-01 0.000000e+00
2.255396e+00 8.012359e-01 0.000000e+00
2.255879e+00 1.001850e+00 0.000000e+00
2.256139e+00 1.202500e+00 0.000000e+00
2.256233e+00 1.403133e+00 0.000000e+00
2.256240e+00 1.603699e+00 0.000000e+00
2.256266e+00 1.804166e+00 0.000000e+00
2.256405e+00 2.004536e+00 0.000000e+00
2.475000e+00 0.000000e+00 0.000000e+00
2.476568e+00 2.000292e-01 0.000000e+00
2.477720e+00 4.002550e-01 0.000000e+00
2.478609e+00 6.006215e-01 0.000000e+00
2.479248e+00 8.011016e-01 0.000000e+00
2.479681e+00 1.001653e+00 0.000000e+00
2.479948e+00 1.202240e+00 0.000000e+00
2.480102e+00 1.402820e+00 0.000000e+00
2.480206e+00 1.603359e+00 0.000000e+00
2.480335e+00 1.803839e+00 0.000000e+00
2.480551e+00 2.004272e+00 0.000000e+00
2.700000e+00 0.000000e+00 0.000000e+00
2.701108e+00 2.000069e-01 0.000000e+00
2.701998e+00 4.001814e-01 0.000000e+00
2.702702e+00 6.004913e-01 0.000000e+00
2.703227e+00 8.009108e-01 0.000000e+00
2.703599e+00 1.001403e+00 0.000000e+00
2.703851e+00 1.201935e+00 0.000000e+00
2.704027e+00 1.402473e+00 0.000000e+00
2.704173e+00 1.602994e+00 0.000000e+00
2.704342e+00 1.803491e+00 0.000000e+00
2.704573e+00 2.003975e+00 0.000000e+00
2.925000e+00 0.000000e+00 0.000000e+00
2.925746e+00 1.999771e-01 0.000000e+00
2.926387e+00 4.001009e-01 0.000000e+00
2.926909e+00 6.003551e-01 0.000000e+00
2.927313e+00 8.007171e-01 0.000000e+00
2.927613e+00 1.001159e+00 0.000000e+00
2.927828e+00 1.201647e+00 0.000000e+00
2.927990e+00 1.402154e+00 0.000000e+00
2.928137e+00 1.602664e+00 0.000000e+00
2.928299e+00 1.803175e+00 0.000000e+00
2.928503e+00 2.003697e+00 0.000000e+00
3.150000e+00 0.000000e+00 0.000000e+00
3.150460e+00 1.999521e-01 0.000000e+00
3.150869e+00 4.000347e-01 0.000000e+00
3.151216e+00 6.002457e-01 0.000000e+00
3.151489e+00 8.005625e-01 0.000000e+00
3.151698e+00 1.000962e+00 0.000000e+00
3.151855e+00 1.201418e+00 0.000000e+00
3.151980e+00 1.401903e+00 0.000000e+00
3.152094e+00 1.602406e+00 0.000000e+00
3.152219e+00 1.802927e+00 0.000000e+00
3.152369e+00 2.003475e+00 0.000000e+00
3.375000e+00 0.000000e+00 0.000000e+00
3.375221e+00 1.999366e-01 0.000000e+00
3.375418e+00 3.999977e-01 0.000000e+00
3.375590e+00 6.001812e-01 0.000000e+00
3.375729e+00 8.004709e-01 0.000000e+00
3.375835e+00 1.000842e+00 0.000000e+00
3.375918e+00 1.201274e+00 0.000000e+00
3.375985e+00 1.401745e+00 0.000000e+00
3.376047e+00 1.602243e+00 0.000000e+00
3.376115e+00 1.802769e+00 0.000000e+00
3.376193e+00 2.003333e+00 0.000000e+00
3.600000e+00 0.000000e+00 0.000000e+00
3.600000e+00 1.999438e-01 0.000000e+00
3.600000e+00 4.000001e-01 0.000000e+00
3.600000e+00 6.001743e-01 0.000000e+00
3.600000e+00 8.004529e-01 0.000000e+00
3.600000e+00 1.000813e+00 0.000000e+00
3.600000e+00 1.201234e+00 0.000000e+00
3.600000e+00 1.401697e+00 0.000000e+00
3.600000e+00 1.602190e+00 0.000000e+00
3.600000e+00 1.802715e+00 0.000000e+00
3.600000e+00 2.003282e+00 0.000000e+00
</DataArray>
</Points>
<Cells>
<DataArray Name="connectivity" type="Int32" format="ascii">
0 11 12 1
1 12 13 2
2 13 14 3
3 14 15 4
4 15 16 5
5 16 17 6
6 17 18 7
7 18 19 8
8 19 20 9
9 20 21 10
11 22 23 12
12 23 24 13
13 24 25 14
14 25 26 15
15 26 27 16
16 27 28 17
17 28 29 18
18 29 30 19
19 30 31 20
20 31 32 21
22 33 34 23
23 34 35 24
24 35 36 25
25 36 37 26
26 37 38 27
27 38 39 28
28 39 40 29
29 40 41 30
30 41 42 31
31 42 43 32
33 44 45 34
34 45 46 35
35 46 47 36
36 47 48 37
37 48 49 38
38 49 50 39
39 50 51 40
40 51 52 41
41 52 53 42
42 53 54 43
44 55 56 45
45 56 57 46
46 57 58 47
47 58 59 48
48 59 60 49
49 60 61 50
50 61 62 51
51 62 63 52
52 63 64 53
53 64 65 54
55 66 67 56
56 67 68 57
57 68 69 58
58 69 70 59
59 70 71 60
60 71 72 61
61 72 73 62
62 73 74 63
63 74 75 64
64 75 76 65
66 77 78 67
67 78 79 68
68 79 80 69
69 80 81 70
70 81 82 71
71 82 83 72
72 83 84 73
73 84 85 74
74 85 86 75
75 86 87 76
77 88 89 78
78 89 90 79
79 90 91 80
80 91 92 81
81 92 93 82
82 93 94 83
83 94 95 84
84 95 96 85
85 96 97 86
86 97 98 87
88 99 100 89
89 100 101 90
90 101 102 91
91 102 103 92
92 103 104 93
93 104 105 94
94 105 106 95
95 106 107 96
96 107 108 97
97 108 109 98
99 110 111 100
100 111 112 101
101 112 113 102
102 113 114 103
103 114 115 104
104 115 116 105
105 116 117 106
106 117 118 107
107 118 119 108
108 119 120 109
110 121 122 111
111 122 123 112
112 123 124 113
113 124 125 114
114 125 126 115
115 126 127 116
116 127 128 117
117 128 129 118
118 129 130 119
119 130 131 120
121 132 133 122
122 133 134 123
123 134 135 124
124 135 136 125
125 136 137 126
126 137 138 127
127 138 139 128
128 139 140 129
129 140 141 130
130 141 142 131
132 143 144 133
133 144 145 134
134 145 146 135
135 146 147 136
136 147 148 137
137 148 149 138
138 149 150 139
139 150 151 140
140 151 152 141
141 152 153 142
143 154 155 144
144 155 156 145
145 156 157 146
146 157 158 147
147 158 159 148
148 159 160 149
149 160 161 150
150 161 162 151
151 162 163 152
152 163 164 153
154 165 166 155
155 166 167 156
156 167 168 157
157 168 169 158
158 169 170 159
159 170 171 160
160 171 172 161
161 172 173 162
162 173 174 163
163 174 175 164
165 176 177 166
166 177 178 167
167 178 179 168
168 179 180 169
169 180 181 170
170 181 182 171
171 182 183 172
172 183 184 173
173 184 185 174
174 185 186 175
</DataArray>
<DataArray Name="offsets" type="Int32" format="ascii">
4
8
12
16
20
24
28
32
36
40
44
48
52
56
60
64
68
72
76
80
84
88
92
96
100
104
108
112
116
120
124
128
132
136
140
144
148
152
156
160
164
168
172
176
180
184
188
192
196
200
204
208
212
216
220
224
228
232
236
240
244
248
252
256
260
264
268
272
276
280
284
288
292
296
300
304
308
312
316
320
324
328
332
336
340
344
348
352
356
360
364
368
372
376
380
384
388
392
396
400
404
408
412
416
420
424
428
432
436
440
444
448
452
456
460
464
468
472
476
480
484
488
492
496
500
504
508
512
516
520
524
528
532
536
540
544
548
552
556
560
564
568
572
576
580
584
588
592
596
600
604
608
612
616
620
624
628
632
636
640
</DataArray>
<DataArray Name="types" type="UInt8" format="ascii">
9
9
9
9
9
9
9
9
9
9
9
9
9
9
9
9
9
9
9
9
9
9
9
9
9
9
9
9
9
9
9
9
9
9
9
9
9
9
9
9
9
9
9
9
9
9
9
9
9
9
9
9
9
9
9
9
9
9
9
9
9
9
9
9
9
9
9
9
9
9
9
9
9
9
9
9
9
9
9
9
9
9
9
9
9
9
9
9
9
9
9
9
9
9
9
9
9
9
9
9
9
9
9
9
9
9
9
9
9
9
9
9
9
9
9
9
9
9
9
9
9
9
9
9
9
9
9
9
9
9
9
9
9
9
9
9
9
9
9
9
9
9
9
9
9
9
9
9
9
9
9
9
9
9
9
9
9
9
9
9
</DataArray>
</Cells>
<PointData>
<DataArray Name="disp" type="Float64" NumberOfComponents="3" format="ascii">
0.000000e+00 0.000000e+00 0.000000e+00
0.000000e+00 -2.898933e-03 0.000000e+00
0.000000e+00 -7.040997e-03 0.000000e+00
0.000000e+00 -1.301980e-02 0.000000e+00
0.000000e+00 -2.063224e-02 0.000000e+00
0.000000e+00 -2.897076e-02 0.000000e+00
0.000000e+00 -3.755098e-02 0.000000e+00
0.000000e+00 -4.586124e-02 0.000000e+00
0.000000e+00 -5.275302e-02 0.000000e+00
0.000000e+00 -5.700944e-02 0.000000e+00
0.000000e+00 -6.075000e-02 0.000000e+00
0.000000e+00 0.000000e+00 0.000000e+00
1.486077e-03 -2.899752e-03 0.000000e+00
3.593744e-03 -7.003310e-03 0.000000e+00
5.924840e-03 -1.229928e-02 0.000000e+00
7.354676e-03 -1.888167e-02 0.000000e+00
7.865245e-03 -2.638353e-02 0.000000e+00
7.650279e-03 -3.433705e-02 0.000000e+00
6.486903e-03 -4.228012e-02 0.000000e+00
3.714880e-03 -5.003258e-02 0.000000e+00
5.398233e-04 -5.670585e-02 0.000000e+00
0.000000e+00 -6.075000e-02 0.000000e+00
0.000000e+00 0.000000e+00 0.000000e+00
3.216040e-03 -2.542478e-03 0.000000e+00
6.646635e-03 -5.907966e-03 0.000000e+00
9.701458e-03 -9.727268e-03 0.000000e+00
1.208166e-02 -1.391602e-02 0.000000e+00
1.357539e-02 -1.880437e-02 0.000000e+00
1.410245e-02 -2.469862e-02 0.000000e+00
1.350159e-02 -3.183218e-02 0.000000e+00
1.125765e-02 -4.061111e-02 0.000000e+00
7.077631e-03 -5.056370e-02 0.000000e+00
0.000000e+00 -6.075000e-02 0.000000e+00
0.000000e+00 0.000000e+00 0.000000e+00
4.501621e-03 -1.501162e-03 0.000000e+00
8.422277e-03 -3.190154e-03 0.000000e+00
1.151219e-02 -4.760426e-03 0.000000e+00
1.401702e-02 -6.128056e-03 0.000000e+00
1.591396e-02 -7.246155e-03 0.000000e+00
1.706576e-02 -8.052524e-03 0.000000e+00
1.726371e-02 -8.502803e-03 0.000000e+00
1.596622e-02 -8.434719e-03 0.000000e+00
1.267341e-02 -8.058454e-03 0.000000e+00
6.770770e-03 -7.820073e-03 0.000000e+00
0.000000e+00 0.000000e+00 0.000000e+00
4.934425e-03 -1.086113e-03 0.000000e+00
8.552779e-03 -2.096457e-03 0.000000e+00
1.124527e-02 -2.874267e-03 0.000000e+00
1.341054e-02 -3.406334e-03 0.000000e+00
1.497156e-02 -3.663897e-03 0.000000e+00
1.578780e-02 -3.609247e-03 0.000000e+00
1.560403e-02 -3.214100e-03 0.000000e+00
1.412529e-02 -2.591323e-03 0.000000e+00
1.118912e-02 -2.021852e-03 0.000000e+00
7.185250e-03 -1.999474e-03 0.000000e+00
0.000000e+00 0.000000e+00 0.000000e+00
4.992103e-03 -6.591980e-04 0.000000e+00
8.091482e-03 -1.162059e-03 0.000000e+00
1.045192e-02 -1.429805e-03 0.000000e+00
1.229556e-02 -1.466032e-03 0.000000e+00
1.354047e-02 -1.244931e-03 0.000000e+00
1.407138e-02 -7.565150e-04 0.000000e+00
1.372134e-02 -4.483225e-05 0.000000e+00
1.237419e-02 7.375752e-04 0.000000e+00
1.017505e-02 1.278028e-03 0.000000e+00
7.718698e-03 1.355735e-03 0.000000e+00
0.000000e+00 0.000000e+00 0.000000e+00
4.657323e-03 -3.114234e-04 0.000000e+00
7.338211e-03 -4.791693e-04 0.000000e+00
9.385278e-03 -4.489436e-04 0.000000e+00
1.092887e-02 -1.938136e-04 0.000000e+00
1.192414e-02 2.965016e-04 0.000000e+00
1.227602e-02 1.004229e-03 0.000000e+00
1.190336e-02 1.846101e-03 0.000000e+00
1.085858e-02 2.626225e-03 0.000000e+00
9.384317e-03 3.124110e-03 0.000000e+00
7.945079e-03 3.244627e-03 0.000000e+00
0.000000e+00 0.000000e+00 0.000000e+00
4.098688e-03 -1.026824e-04 0.000000e+00
6.429867e-03 -6.440663e-05 0.000000e+00
8.182837e-03 1.673714e-04 0.000000e+00
9.484060e-03 6.054055e-04 0.000000e+00
1.028080e-02 1.242160e-03 0.000000e+00
1.052776e-02 2.040854e-03 0.000000e+00
1.024482e-02 2.875341e-03 0.000000e+00
9.550980e-03 3.589290e-03 0.000000e+00
8.658091e-03 4.056987e-03 0.000000e+00
7.898489e-03 4.234117e-03 0.000000e+00
0.000000e+00 0.000000e+00 0.000000e+00
3.435858e-03 -2.026039e-06 0.000000e+00
5.446658e-03 1.763869e-04 0.000000e+00
6.955754e-03 5.273502e-04 0.000000e+00
8.043109e-03 1.058495e-03 0.000000e+00
8.689933e-03 1.750713e-03 0.000000e+00
8.907386e-03 2.530190e-03 0.000000e+00
8.768400e-03 3.298952e-03 0.000000e+00
8.382501e-03 3.951524e-03 0.000000e+00
7.918670e-03 4.406145e-03 0.000000e+00
7.608432e-03 4.645471e-03 0.000000e+00
0.000000e+00 0.000000e+00 0.000000e+00
2.755196e-03 3.740823e-05 0.000000e+00
4.468951e-03 2.820294e-04 0.000000e+00
5.757333e-03 6.888154e-04 0.000000e+00
6.666926e-03 1.245097e-03 0.000000e+00
7.214902e-03 1.916230e-03 0.000000e+00
7.449290e-03 2.633492e-03 0.000000e+00
7.445056e-03 3.331290e-03 0.000000e+00
7.291459e-03 3.934321e-03 0.000000e+00
7.126803e-03 4.390825e-03 0.000000e+00
7.099813e-03 4.696001e-03 0.000000e+00
0.000000e+00 0.000000e+00 0.000000e+00
2.122262e-03 4.486596e-05 0.000000e+00
3.551268e-03 2.982740e-04 0.000000e+00
4.631307e-03 7.034714e-04 0.000000e+00
5.396389e-03 1.235923e-03 0.000000e+00
5.878978e-03 1.850068e-03 0.000000e+00
6.139131e-03 2.500063e-03 0.000000e+00
6.232965e-03 3.133428e-03 0.000000e+00
6.240184e-03 3.698953e-03 0.000000e+00
6.266232e-03 4.165669e-03 0.000000e+00
6.404729e-03 4.536252e-03 0.000000e+00
0.000000e+00 0.000000e+00 0.000000e+00
1.568385e-03 2.923678e-05 0.000000e+00
2.720412e-03 2.549744e-04 0.000000e+00
3.609158e-03 6.215385e-04 0.000000e+00
4.248394e-03 1.101646e-03 0.000000e+00
4.680646e-03 1.653203e-03 0.000000e+00
4.948278e-03 2.239642e-03 0.000000e+00
5.101753e-03 2.820057e-03 0.000000e+00
5.205633e-03 3.358680e-03 0.000000e+00
5.335544e-03 3.838891e-03 0.000000e+00
5.550615e-03 4.272093e-03 0.000000e+00
0.000000e+00 0.000000e+00 0.000000e+00
1.107865e-03 6.854199e-06 0.000000e+00
1.997814e-03 1.813964e-04 0.000000e+00
2.701593e-03 4.913260e-04 0.000000e+00
3.226849e-03 9.107860e-04 0.000000e+00
3.599522e-03 1.403437e-03 0.000000e+00
3.851523e-03 1.934748e-03 0.000000e+00
4.026582e-03 2.473414e-03 0.000000e+00
4.173211e-03 2.994205e-03 0.000000e+00
4.342420e-03 3.490821e-03 0.000000e+00
4.572834e-03 3.975076e-03 0.000000e+00
0.000000e+00 0.000000e+00 0.000000e+00
7.463974e-04 -2.290824e-05 0.000000e+00
1.386913e-03 1.008845e-04 0.000000e+00
1.909378e-03 3.551561e-04 0.000000e+00
2.312911e-03 7.171339e-04 0.000000e+00
2.613019e-03 1.159142e-03 0.000000e+00
2.827672e-03 1.647077e-03 0.000000e+00
2.990164e-03 2.153991e-03 0.000000e+00
3.136484e-03 2.664101e-03 0.000000e+00
3.298899e-03 3.174889e-03 0.000000e+00
3.502447e-03 3.697509e-03 0.000000e+00
0.000000e+00 0.000000e+00 0.000000e+00
4.601925e-04 -4.791115e-05 0.000000e+00
8.690411e-04 3.472687e-05 0.000000e+00
1.216086e-03 2.456772e-04 0.000000e+00
1.489370e-03 5.624806e-04 0.000000e+00
1.697788e-03 9.624444e-04 0.000000e+00
1.855397e-03 1.417527e-03 0.000000e+00
1.979614e-03 1.902537e-03 0.000000e+00
2.093610e-03 2.406040e-03 0.000000e+00
2.218975e-03 2.926813e-03 0.000000e+00
2.368434e-03 3.475171e-03 0.000000e+00
0.000000e+00 0.000000e+00 0.000000e+00
2.205906e-04 -6.337201e-05 0.000000e+00
4.178879e-04 -2.263235e-06 0.000000e+00
5.902831e-04 1.811644e-04 0.000000e+00
7.289344e-04 4.708952e-04 0.000000e+00
8.346016e-04 8.417020e-04 0.000000e+00
9.179929e-04 1.274094e-03 0.000000e+00
9.850276e-04 1.745049e-03 0.000000e+00
1.046764e-03 2.243303e-03 0.000000e+00
1.115012e-03 2.768770e-03 0.000000e+00
1.193310e-03 3.332979e-03 0.000000e+00
0.000000e+00 0.000000e+00 0.000000e+00
0.000000e+00 -5.615508e-05 0.000000e+00
0.000000e+00 1.053718e-07 0.000000e+00
0.000000e+00 1.743126e-04 0.000000e+00
0.000000e+00 4.529599e-04 0.000000e+00
0.000000e+00 8.126180e-04 0.000000e+00
0.000000e+00 1.233944e-03 0.000000e+00
0.000000e+00 1.697184e-03 0.000000e+00
0.000000e+00 2.190400e-03 0.000000e+00
0.000000e+00 2.714609e-03 0.000000e+00
0.000000e+00 3.281778e-03 0.000000e+00
</DataArray>
<DataArray Name="shear" type="Float64" NumberOfComponents="1" format="ascii">
1.698380e-02
2.495054e-02
4.124657e-02
5.880080e-02
7.118498e-02
7.667050e-02
7.614818e-02
6.746556e-02
4.753014e-02
2.684896e-02
2.019592e-02
1.847753e-02
2.629253e-02
3.990800e-02
5.289994e-02
6.382806e-02
7.143743e-02
7.475086e-02
7.241730e-02
6.260406e-02
4.474144e-02
3.076215e-02
2.219010e-02
2.835408e-02
3.706291e-02
4.423377e-02
5.307015e-02
6.435613e-02
7.695005e-02
8.943778e-02
1.004203e-01
1.048138e-01
1.039671e-01
2.480022e-02
2.682505e-02
2.901527e-02
3.163494e-02
3.611527e-02
4.255090e-02
5.120754e-02
6.172189e-02
7.394894e-02
8.672506e-02
9.685881e-02
2.573315e-02
2.395086e-02
2.071390e-02
1.969094e-02
1.981209e-02
1.983750e-02
1.933808e-02
1.768576e-02
1.391891e-02
6.967231e-03
7.960437e-04
2.547062e-02
2.201669e-02
1.733742e-02
1.627177e-02
1.600830e-02
1.570880e-02
1.506120e-02
1.355468e-02
1.046412e-02
5.139646e-03
1.282134e-03
2.357920e-02
1.956713e-02
1.467064e-02
1.379504e-02
1.360025e-02
1.347362e-02
1.307862e-02
1.186248e-02
9.210142e-03
4.941932e-03
1.869552e-03
2.066705e-02
1.693280e-02
1.265414e-02
1.207053e-02
1.207616e-02
1.213692e-02
1.184963e-02
1.069836e-02
8.411466e-03
5.030789e-03
2.656660e-03
1.731174e-02
1.431993e-02
1.109966e-02
1.074568e-02
1.087948e-02
1.099901e-02
1.070544e-02
9.697930e-03
7.865435e-03
5.301242e-03
3.599746e-03
1.390813e-02
1.180507e-02
9.681340e-03
9.541046e-03
9.747895e-03
9.880705e-03
9.644656e-03
8.880211e-03
7.520645e-03
5.700057e-03
4.572107e-03
1.073311e-02
9.437392e-03
8.272458e-03
8.350755e-03
8.647409e-03
8.838838e-03
8.736857e-03
8.236052e-03
7.318967e-03
6.158290e-03
5.493253e-03
7.946216e-03
7.275337e-03
6.867645e-03
7.182521e-03
7.614956e-03
7.922168e-03
7.987691e-03
7.741923e-03
7.221531e-03
6.613565e-03
6.308953e-03
5.622162e-03
5.366622e-03
5.507587e-03
6.087979e-03
6.699875e-03
7.155638e-03
7.385893e-03
7.375965e-03
7.196054e-03
7.012705e-03
6.964680e-03
3.773848e-03
3.749167e-03
4.290331e-03
5.132012e-03
5.934077e-03
6.546139e-03
6.925556e-03
7.115723e-03
7.205869e-03
7.325135e-03
7.451349e-03
2.316097e-03
2.440532e-03
3.318977e-03
4.393503e-03
5.343185e-03
6.084795e-03
6.595765e-03
6.941233e-03
7.222113e-03
7.542572e-03
7.781845e-03
1.113893e-03
1.448887e-03
2.674821e-03
3.924169e-03
4.968574e-03
5.781018e-03
6.382544e-03
6.829181e-03
7.222821e-03
7.665503e-03
7.972230e-03
3.799755e-04
1.031145e-03
2.448644e-03
3.757124e-03
4.834978e-03
5.668706e-03
6.300851e-03
6.783138e-03
7.214491e-03
7.699445e-03
8.028493e-03
</DataArray>
<DataArray Name="stress" type="Float64" NumberOfComponents="9" format="ascii">
-1.167189e+05 5.426286e+03 0.000000e+00 5.426286e+03 -1.989991e+05 0.000000e+00 0.000000e+00 0.000000e+00 0.000000e+00
-1.028819e+05 4.171616e+03 0.000000e+00 4.171616e+03 -1.986935e+05 0.000000e+00 0.000000e+00 0.000000e+00 0.000000e+00
-9.965484e+04 2.996090e+03 0.000000e+00 2.996090e+03 -2.088892e+05 0.000000e+00 0.000000e+00 0.000000e+00 0.000000e+00
-1.087997e+05 2.899047e+03 0.000000e+00 2.899047e+03 -2.094221e+05 0.000000e+00 0.000000e+00 0.000000e+00 0.000000e+00
-1.142677e+05 4.973787e+03 0.000000e+00 4.973787e+03 -2.193898e+05 0.000000e+00 0.000000e+00 0.000000e+00 0.000000e+00
-1.202667e+05 7.261810e+03 0.000000e+00 7.261810e+03 -2.288804e+05 0.000000e+00 0.000000e+00 0.000000e+00 0.000000e+00
-1.267733e+05 9.940459e+03 0.000000e+00 9.940459e+03 -2.425371e+05 0.000000e+00 0.000000e+00 0.000000e+00 0.000000e+00
-1.353118e+05 9.947127e+03 0.000000e+00 9.947127e+03 -2.535175e+05 0.000000e+00 0.000000e+00 0.000000e+00 0.000000e+00
-1.367054e+05 4.737959e+03 0.000000e+00 4.737959e+03 -2.667432e+05 0.000000e+00 0.000000e+00 0.000000e+00 0.000000e+00
-1.449746e+05 -1.310131e+03 0.000000e+00 -1.310131e+03 -2.720343e+05 0.000000e+00 0.000000e+00 0.000000e+00 0.000000e+00
-1.519953e+05 -9.178630e+02 0.000000e+00 -9.178630e+02 -2.634529e+05 0.000000e+00 0.000000e+00 0.000000e+00 0.000000e+00
-1.170392e+05 1.591742e+04 0.000000e+00 1.591742e+04 -1.924677e+05 0.000000e+00 0.000000e+00 0.000000e+00 0.000000e+00
-1.030657e+05 1.343765e+04 0.000000e+00 1.343765e+04 -1.897793e+05 0.000000e+00 0.000000e+00 0.000000e+00 0.000000e+00
-9.908159e+04 1.185577e+04 0.000000e+00 1.185577e+04 -2.000043e+05 0.000000e+00 0.000000e+00 0.000000e+00 0.000000e+00
-1.063248e+05 1.189897e+04 0.000000e+00 1.189897e+04 -2.103556e+05 0.000000e+00 0.000000e+00 0.000000e+00 0.000000e+00
-1.144385e+05 1.266361e+04 0.000000e+00 1.266361e+04 -2.225810e+05 0.000000e+00 0.000000e+00 0.000000e+00 0.000000e+00
-1.211965e+05 1.380513e+04 0.000000e+00 1.380513e+04 -2.332918e+05 0.000000e+00 0.000000e+00 0.000000e+00 0.000000e+00
-1.260130e+05 1.435573e+04 0.000000e+00 1.435573e+04 -2.430172e+05 0.000000e+00 0.000000e+00 0.000000e+00 0.000000e+00
-1.336155e+05 1.246231e+04 0.000000e+00 1.246231e+04 -2.508506e+05 0.000000e+00 0.000000e+00 0.000000e+00 0.000000e+00
-1.379109e+05 6.780249e+03 0.000000e+00 6.780249e+03 -2.622125e+05 0.000000e+00 0.000000e+00 0.000000e+00 0.000000e+00
-1.401333e+05 -1.050174e+03 0.000000e+00 -1.050174e+03 -2.676849e+05 0.000000e+00 0.000000e+00 0.000000e+00 0.000000e+00
-1.598363e+05 -7.173468e+03 0.000000e+00 -7.173468e+03 -2.961402e+05 0.000000e+00 0.000000e+00 0.000000e+00 0.000000e+00
-1.144511e+05 2.715523e+04 0.000000e+00 2.715523e+04 -1.685539e+05 0.000000e+00 0.000000e+00 0.000000e+00 0.000000e+00
-1.020952e+05 2.401713e+04 0.000000e+00 2.401713e+04 -1.627605e+05 0.000000e+00 0.000000e+00 0.000000e+00 0.000000e+00
-1.005814e+05 2.381754e+04 0.000000e+00 2.381754e+04 -1.700450e+05 0.000000e+00 0.000000e+00 0.000000e+00 0.000000e+00
-1.073783e+05 2.609494e+04 0.000000e+00 2.609494e+04 -1.807648e+05 0.000000e+00 0.000000e+00 0.000000e+00 0.000000e+00
-1.156134e+05 2.797975e+04 0.000000e+00 2.797975e+04 -1.911085e+05 0.000000e+00 0.000000e+00 0.000000e+00 0.000000e+00
-1.249597e+05 3.020778e+04 0.000000e+00 3.020778e+04 -2.027967e+05 0.000000e+00 0.000000e+00 0.000000e+00 0.000000e+00
-1.360320e+05 3.204630e+04 0.000000e+00 3.204630e+04 -2.170921e+05 0.000000e+00 0.000000e+00 0.000000e+00 0.000000e+00
-1.515318e+05 3.402973e+04 0.000000e+00 3.402973e+04 -2.336596e+05 0.000000e+00 0.000000e+00 0.000000e+00 0.000000e+00
-1.606894e+05 3.366104e+04 0.000000e+00 3.366104e+04 -2.514273e+05 0.000000e+00 0.000000e+00 0.000000e+00 0.000000e+00
-1.678506e+05 2.539892e+04 0.000000e+00 2.539892e+04 -2.697633e+05 0.000000e+00 0.000000e+00 0.000000e+00 0.000000e+00
-1.887575e+05 7.636839e+03 0.000000e+00 7.636839e+03 -3.127798e+05 0.000000e+00 0.000000e+00 0.000000e+00 0.000000e+00
-1.051262e+05 2.887338e+04 0.000000e+00 2.887338e+04 -1.340078e+05 0.000000e+00 0.000000e+00 0.000000e+00 0.000000e+00
-9.645523e+04 2.657767e+04 0.000000e+00 2.657767e+04 -1.286913e+05 0.000000e+00 0.000000e+00 0.000000e+00 0.000000e+00
-9.721345e+04 2.708869e+04 0.000000e+00 2.708869e+04 -1.296313e+05 0.000000e+00 0.000000e+00 0.000000e+00 0.000000e+00
-1.037532e+05 2.912076e+04 0.000000e+00 2.912076e+04 -1.299956e+05 0.000000e+00 0.000000e+00 0.000000e+00 0.000000e+00
-1.096809e+05 3.066323e+04 0.000000e+00 3.066323e+04 -1.283511e+05 0.000000e+00 0.000000e+00 0.000000e+00 0.000000e+00
-1.142351e+05 3.219846e+04 0.000000e+00 3.219846e+04 -1.257157e+05 0.000000e+00 0.000000e+00 0.000000e+00 0.000000e+00
-1.166326e+05 3.221842e+04 0.000000e+00 3.221842e+04 -1.198613e+05 0.000000e+00 0.000000e+00 0.000000e+00 0.000000e+00
-1.162373e+05 2.968807e+04 0.000000e+00 2.968807e+04 -1.105777e+05 0.000000e+00 0.000000e+00 0.000000e+00 0.000000e+00
-1.094678e+05 2.414705e+04 0.000000e+00 2.414705e+04 -9.901420e+04 0.000000e+00 0.000000e+00 0.000000e+00 0.000000e+00
-8.731516e+04 1.516895e+04 0.000000e+00 1.516895e+04 -8.032955e+04 0.000000e+00 0.000000e+00 0.000000e+00 0.000000e+00
-6.199579e+04 9.344883e+03 0.000000e+00 9.344883e+03 -6.676428e+04 0.000000e+00 0.000000e+00 0.000000e+00 0.000000e+00
-1.010218e+05 2.813087e+04 0.000000e+00 2.813087e+04 -1.148911e+05 0.000000e+00 0.000000e+00 0.000000e+00 0.000000e+00
-9.658673e+04 2.690308e+04 0.000000e+00 2.690308e+04 -1.125937e+05 0.000000e+00 0.000000e+00 0.000000e+00 0.000000e+00
-1.009853e+05 2.756001e+04 0.000000e+00 2.756001e+04 -1.135059e+05 0.000000e+00 0.000000e+00 0.000000e+00 0.000000e+00
-1.086093e+05 2.863075e+04 0.000000e+00 2.863075e+04 -1.119170e+05 0.000000e+00 0.000000e+00 0.000000e+00 0.000000e+00
-1.155956e+05 2.897356e+04 0.000000e+00 2.897356e+04 -1.084548e+05 0.000000e+00 0.000000e+00 0.000000e+00 0.000000e+00
-1.208757e+05 2.815906e+04 0.000000e+00 2.815906e+04 -1.030131e+05 0.000000e+00 0.000000e+00 0.000000e+00 0.000000e+00
-1.241338e+05 2.589114e+04 0.000000e+00 2.589114e+04 -9.580467e+04 0.000000e+00 0.000000e+00 0.000000e+00 0.000000e+00
-1.247044e+05 2.148471e+04 0.000000e+00 2.148471e+04 -8.721665e+04 0.000000e+00 0.000000e+00 0.000000e+00 0.000000e+00
-1.186457e+05 1.416027e+04 0.000000e+00 1.416027e+04 -7.763648e+04 0.000000e+00 0.000000e+00 0.000000e+00 0.000000e+00
-9.658316e+04 4.969396e+03 0.000000e+00 4.969396e+03 -6.874020e+04 0.000000e+00 0.000000e+00 0.000000e+00 0.000000e+00
-6.059820e+04 2.078914e+02 0.000000e+00 2.078914e+02 -5.683827e+04 0.000000e+00 0.000000e+00 0.000000e+00 0.000000e+00
-9.496374e+04 2.667744e+04 0.000000e+00 2.667744e+04 -1.005455e+05 0.000000e+00 0.000000e+00 0.000000e+00 0.000000e+00
-9.526302e+04 2.628083e+04 0.000000e+00 2.628083e+04 -1.001984e+05 0.000000e+00 0.000000e+00 0.000000e+00 0.000000e+00
-1.016714e+05 2.593302e+04 0.000000e+00 2.593302e+04 -9.908507e+04 0.000000e+00 0.000000e+00 0.000000e+00 0.000000e+00
-1.090455e+05 2.530599e+04 0.000000e+00 2.530599e+04 -9.555173e+04 0.000000e+00 0.000000e+00 0.000000e+00 0.000000e+00
-1.149112e+05 2.395364e+04 0.000000e+00 2.395364e+04 -9.139421e+04 0.000000e+00 0.000000e+00 0.000000e+00 0.000000e+00
-1.187725e+05 2.155434e+04 0.000000e+00 2.155434e+04 -8.626182e+04 0.000000e+00 0.000000e+00 0.000000e+00 0.000000e+00
-1.204417e+05 1.773378e+04 0.000000e+00 1.773378e+04 -8.019570e+04 0.000000e+00 0.000000e+00 0.000000e+00 0.000000e+00
-1.183737e+05 1.211827e+04 0.000000e+00 1.211827e+04 -7.362225e+04 0.000000e+00 0.000000e+00 0.000000e+00 0.000000e+00
-1.096393e+05 4.860237e+03 0.000000e+00 4.860237e+03 -6.737439e+04 0.000000e+00 0.000000e+00 0.000000e+00 0.000000e+00
-8.799984e+04 -1.346215e+03 0.000000e+00 -1.346215e+03 -6.250811e+04 0.000000e+00 0.000000e+00 0.000000e+00 0.000000e+00
-6.003159e+04 -3.094255e+03 0.000000e+00 -3.094255e+03 -5.633356e+04 0.000000e+00 0.000000e+00 0.000000e+00 0.000000e+00
-8.745198e+04 2.453509e+04 0.000000e+00 2.453509e+04 -8.885598e+04 0.000000e+00 0.000000e+00 0.000000e+00 0.000000e+00
-9.357547e+04 2.452104e+04 0.000000e+00 2.452104e+04 -9.004090e+04 0.000000e+00 0.000000e+00 0.000000e+00 0.000000e+00
-1.011329e+05 2.295837e+04 0.000000e+00 2.295837e+04 -8.746484e+04 0.000000e+00 0.000000e+00 0.000000e+00 0.000000e+00
-1.078191e+05 2.142256e+04 0.000000e+00 2.142256e+04 -8.419604e+04 0.000000e+00 0.000000e+00 0.000000e+00 0.000000e+00
-1.125379e+05 1.907188e+04 0.000000e+00 1.907188e+04 -8.035116e+04 0.000000e+00 0.000000e+00 0.000000e+00 0.000000e+00
-1.151220e+05 1.569703e+04 0.000000e+00 1.569703e+04 -7.580086e+04 0.000000e+00 0.000000e+00 0.000000e+00 0.000000e+00
-1.151468e+05 1.121027e+04 0.000000e+00 1.121027e+04 -7.102434e+04 0.000000e+00 0.000000e+00 0.000000e+00 0.000000e+00
-1.113840e+05 5.602700e+03 0.000000e+00 5.602700e+03 -6.644337e+04 0.000000e+00 0.000000e+00 0.000000e+00 0.000000e+00
-1.022731e+05 -2.046297e+02 0.000000e+00 -2.046297e+02 -6.268992e+04 0.000000e+00 0.000000e+00 0.000000e+00 0.000000e+00
-8.513082e+04 -3.354502e+03 0.000000e+00 -3.354502e+03 -6.039700e+04 0.000000e+00 0.000000e+00 0.000000e+00 0.000000e+00
-6.645309e+04 -3.514524e+03 0.000000e+00 -3.514524e+03 -5.713837e+04 0.000000e+00 0.000000e+00 0.000000e+00 0.000000e+00
-8.166420e+04 2.254230e+04 0.000000e+00 2.254230e+04 -8.026791e+04 0.000000e+00 0.000000e+00 0.000000e+00 0.000000e+00
-9.131656e+04 2.232162e+04 0.000000e+00 2.232162e+04 -8.203570e+04 0.000000e+00 0.000000e+00 0.000000e+00 0.000000e+00
-9.954628e+04 1.999852e+04 0.000000e+00 1.999852e+04 -7.920155e+04 0.000000e+00 0.000000e+00 0.000000e+00 0.000000e+00
-1.053872e+05 1.768742e+04 0.000000e+00 1.768742e+04 -7.617527e+04 0.000000e+00 0.000000e+00 0.000000e+00 0.000000e+00
-1.091684e+05 1.463815e+04 0.000000e+00 1.463815e+04 -7.273445e+04 0.000000e+00 0.000000e+00 0.000000e+00 0.000000e+00
-1.107161e+05 1.091174e+04 0.000000e+00 1.091174e+04 -6.914926e+04 0.000000e+00 0.000000e+00 0.000000e+00 0.000000e+00
-1.096766e+05 6.451650e+03 0.000000e+00 6.451650e+03 -6.562123e+04 0.000000e+00 0.000000e+00 0.000000e+00 0.000000e+00
-1.054986e+05 1.597279e+03 0.000000e+00 1.597279e+03 -6.253296e+04 0.000000e+00 0.000000e+00 0.000000e+00 0.000000e+00
-9.746084e+04 -2.492136e+03 0.000000e+00 -2.492136e+03 -6.048665e+04 0.000000e+00 0.000000e+00 0.000000e+00 0.000000e+00
-8.515498e+04 -3.720637e+03 0.000000e+00 -3.720637e+03 -5.966191e+04 0.000000e+00 0.000000e+00 0.000000e+00 0.000000e+00
-7.336040e+04 -3.098153e+03 0.000000e+00 -3.098153e+03 -5.775004e+04 0.000000e+00 0.000000e+00 0.000000e+00 0.000000e+00
-7.736287e+04 2.046760e+04 0.000000e+00 2.046760e+04 -7.388695e+04 0.000000e+00 0.000000e+00 0.000000e+00 0.000000e+00
-8.847325e+04 2.002615e+04 0.000000e+00 2.002615e+04 -7.589520e+04 0.000000e+00 0.000000e+00 0.000000e+00 0.000000e+00
-9.700049e+04 1.716747e+04 0.000000e+00 1.716747e+04 -7.308630e+04 0.000000e+00 0.000000e+00 0.000000e+00 0.000000e+00
-1.023067e+05 1.427509e+04 0.000000e+00 1.427509e+04 -7.037473e+04 0.000000e+00 0.000000e+00 0.000000e+00 0.000000e+00
-1.053808e+05 1.103576e+04 0.000000e+00 1.103576e+04 -6.759546e+04 0.000000e+00 0.000000e+00 0.000000e+00 0.000000e+00
-1.062886e+05 7.295560e+03 0.000000e+00 7.295560e+03 -6.485815e+04 0.000000e+00 0.000000e+00 0.000000e+00 0.000000e+00
-1.048667e+05 3.205448e+03 0.000000e+00 3.205448e+03 -6.233732e+04 0.000000e+00 0.000000e+00 0.000000e+00 0.000000e+00
-1.009574e+05 -6.515777e+02 0.000000e+00 -6.515777e+02 -6.042032e+04 0.000000e+00 0.000000e+00 0.000000e+00 0.000000e+00
-9.465974e+04 -3.310656e+03 0.000000e+00 -3.310656e+03 -5.952915e+04 0.000000e+00 0.000000e+00 0.000000e+00 0.000000e+00
-8.652916e+04 -3.415376e+03 0.000000e+00 -3.415376e+03 -5.943035e+04 0.000000e+00 0.000000e+00 0.000000e+00 0.000000e+00
-7.943016e+04 -2.432915e+03 0.000000e+00 -2.432915e+03 -5.835386e+04 0.000000e+00 0.000000e+00 0.000000e+00 0.000000e+00
-7.410207e+04 1.842438e+04 0.000000e+00 1.842438e+04 -6.929387e+04 0.000000e+00 0.000000e+00 0.000000e+00 0.000000e+00
-8.534311e+04 1.776760e+04 0.000000e+00 1.776760e+04 -7.116860e+04 0.000000e+00 0.000000e+00 0.000000e+00 0.000000e+00
-9.386450e+04 1.455579e+04 0.000000e+00 1.455579e+04 -6.851575e+04 0.000000e+00 0.000000e+00 0.000000e+00 0.000000e+00
-9.894842e+04 1.150091e+04 0.000000e+00 1.150091e+04 -6.629489e+04 0.000000e+00 0.000000e+00 0.000000e+00 0.000000e+00
-1.015974e+05 8.218994e+03 0.000000e+00 8.218994e+03 -6.412354e+04 0.000000e+00 0.000000e+00 0.000000e+00 0.000000e+00
-1.021725e+05 4.681452e+03 0.000000e+00 4.681452e+03 -6.206495e+04 0.000000e+00 0.000000e+00 0.000000e+00 0.000000e+00
-1.007902e+05 1.177878e+03 0.000000e+00 1.177878e+03 -6.037741e+04 0.000000e+00 0.000000e+00 0.000000e+00 0.000000e+00
-9.764843e+04 -1.738868e+03 0.000000e+00 -1.738868e+03 -5.937523e+04 0.000000e+00 0.000000e+00 0.000000e+00 0.000000e+00
-9.326759e+04 -3.348473e+03 0.000000e+00 -3.348473e+03 -5.916617e+04 0.000000e+00 0.000000e+00 0.000000e+00 0.000000e+00
-8.836047e+04 -2.876183e+03 0.000000e+00 -2.876183e+03 -5.941132e+04 0.000000e+00 0.000000e+00 0.000000e+00 0.000000e+00
-8.437688e+04 -1.828676e+03 0.000000e+00 -1.828676e+03 -5.889046e+04 0.000000e+00 0.000000e+00 0.000000e+00 0.000000e+00
-7.108550e+04 1.621241e+04 0.000000e+00 1.621241e+04 -6.622566e+04 0.000000e+00 0.000000e+00 0.000000e+00 0.000000e+00
-8.195769e+04 1.551062e+04 0.000000e+00 1.551062e+04 -6.777478e+04 0.000000e+00 0.000000e+00 0.000000e+00 0.000000e+00
-9.063364e+04 1.232102e+04 0.000000e+00 1.232102e+04 -6.541588e+04 0.000000e+00 0.000000e+00 0.000000e+00 0.000000e+00
-9.550876e+04 9.278401e+03 0.000000e+00 9.278401e+03 -6.356212e+04 0.000000e+00 0.000000e+00 0.000000e+00 0.000000e+00
-9.794151e+04 6.101271e+03 0.000000e+00 6.101271e+03 -6.185377e+04 0.000000e+00 0.000000e+00 0.000000e+00 0.000000e+00
-9.847890e+04 2.911422e+03 0.000000e+00 2.911422e+03 -6.039138e+04 0.000000e+00 0.000000e+00 0.000000e+00 0.000000e+00
-9.748728e+04 2.477908e+01 0.000000e+00 2.477908e+01 -5.937660e+04 0.000000e+00 0.000000e+00 0.000000e+00 0.000000e+00
-9.540046e+04 -2.101997e+03 0.000000e+00 -2.101997e+03 -5.895298e+04 0.000000e+00 0.000000e+00 0.000000e+00 0.000000e+00
-9.277649e+04 -2.996559e+03 0.000000e+00 -2.996559e+03 -5.908004e+04 0.000000e+00 0.000000e+00 0.000000e+00 0.000000e+00
-9.019666e+04 -2.286508e+03 0.000000e+00 -2.286508e+03 -5.947632e+04 0.000000e+00 0.000000e+00 0.000000e+00 0.000000e+00
-8.826526e+04 -1.319095e+03 0.000000e+00 -1.319095e+03 -5.932862e+04 0.000000e+00 0.000000e+00 0.000000e+00 0.000000e+00
-6.859665e+04 1.402704e+04 0.000000e+00 1.402704e+04 -6.447816e+04 0.000000e+00 0.000000e+00 0.000000e+00 0.000000e+00
-7.877516e+04 1.328076e+04 0.000000e+00 1.328076e+04 -6.559141e+04 0.000000e+00 0.000000e+00 0.000000e+00 0.000000e+00
-8.739679e+04 1.033523e+04 0.000000e+00 1.033523e+04 -6.345078e+04 0.000000e+00 0.000000e+00 0.000000e+00 0.000000e+00
-9.219222e+04 7.444461e+03 0.000000e+00 7.444461e+03 -6.185528e+04 0.000000e+00 0.000000e+00 0.000000e+00 0.000000e+00
-9.458445e+04 4.528474e+03 0.000000e+00 4.528474e+03 -6.049599e+04 0.000000e+00 0.000000e+00 0.000000e+00 0.000000e+00
-9.530577e+04 1.766296e+03 0.000000e+00 1.766296e+03 -5.946499e+04 0.000000e+00 0.000000e+00 0.000000e+00 0.000000e+00
-9.493631e+04 -5.308564e+02 0.000000e+00 -5.308564e+02 -5.890968e+04 0.000000e+00 0.000000e+00 0.000000e+00 0.000000e+00
-9.394719e+04 -2.043046e+03 0.000000e+00 -2.043046e+03 -5.883778e+04 0.000000e+00 0.000000e+00 0.000000e+00 0.000000e+00
-9.278707e+04 -2.486911e+03 0.000000e+00 -2.486911e+03 -5.913850e+04 0.000000e+00 0.000000e+00 0.000000e+00 0.000000e+00
-9.182107e+04 -1.751891e+03 0.000000e+00 -1.751891e+03 -5.957584e+04 0.000000e+00 0.000000e+00 0.000000e+00 0.000000e+00
-9.121094e+04 -9.389946e+02 0.000000e+00 -9.389946e+02 -5.969087e+04 0.000000e+00 0.000000e+00 0.000000e+00 0.000000e+00
-6.710721e+04 1.176588e+04 0.000000e+00 1.176588e+04 -6.378319e+04 0.000000e+00 0.000000e+00 0.000000e+00 0.000000e+00
-7.611748e+04 1.100775e+04 0.000000e+00 1.100775e+04 -6.432376e+04 0.000000e+00 0.000000e+00 0.000000e+00 0.000000e+00
-8.442166e+04 8.511443e+03 0.000000e+00 8.511443e+03 -6.233224e+04 0.000000e+00 0.000000e+00 0.000000e+00 0.000000e+00
-8.913851e+04 5.906982e+03 0.000000e+00 5.906982e+03 -6.086748e+04 0.000000e+00 0.000000e+00 0.000000e+00 0.000000e+00
-9.160684e+04 3.336791e+03 0.000000e+00 3.336791e+03 -5.971665e+04 0.000000e+00 0.000000e+00 0.000000e+00 0.000000e+00
-9.272196e+04 1.058018e+03 0.000000e+00 1.058018e+03 -5.897939e+04 0.000000e+00 0.000000e+00 0.000000e+00 0.000000e+00
-9.304126e+04 -7.041970e+02 0.000000e+00 -7.041970e+02 -5.871678e+04 0.000000e+00 0.000000e+00 0.000000e+00 0.000000e+00
-9.302412e+04 -1.745524e+03 0.000000e+00 -1.745524e+03 -5.885644e+04 0.000000e+00 0.000000e+00 0.000000e+00 0.000000e+00
-9.298694e+04 -1.940380e+03 0.000000e+00 -1.940380e+03 -5.924269e+04 0.000000e+00 0.000000e+00 0.000000e+00 0.000000e+00
-9.315829e+04 -1.297724e+03 0.000000e+00 -1.297724e+03 -5.965745e+04 0.000000e+00 0.000000e+00 0.000000e+00 0.000000e+00
-9.346686e+04 -6.552791e+02 0.000000e+00 -6.552791e+02 -5.992779e+04 0.000000e+00 0.000000e+00 0.000000e+00 0.000000e+00
-6.620870e+04 9.288269e+03 0.000000e+00 9.288269e+03 -6.398029e+04 0.000000e+00 0.000000e+00 0.000000e+00 0.000000e+00
-7.398891e+04 8.608237e+03 0.000000e+00 8.608237e+03 -6.392580e+04 0.000000e+00 0.000000e+00 0.000000e+00 0.000000e+00
-8.180742e+04 6.618062e+03 0.000000e+00 6.618062e+03 -6.190290e+04 0.000000e+00 0.000000e+00 0.000000e+00 0.000000e+00
-8.648485e+04 4.439608e+03 0.000000e+00 4.439608e+03 -6.038486e+04 0.000000e+00 0.000000e+00 0.000000e+00 0.000000e+00
-8.915255e+04 2.369623e+03 0.000000e+00 2.369623e+03 -5.934198e+04 0.000000e+00 0.000000e+00 0.000000e+00 0.000000e+00
-9.069393e+04 6.251536e+02 0.000000e+00 6.251536e+02 -5.878875e+04 0.000000e+00 0.000000e+00 0.000000e+00 0.000000e+00
-9.167373e+04 -6.474822e+02 0.000000e+00 -6.474822e+02 -5.869004e+04 0.000000e+00 0.000000e+00 0.000000e+00 0.000000e+00
-9.245531e+04 -1.336542e+03 0.000000e+00 -1.336542e+03 -5.892570e+04 0.000000e+00 0.000000e+00 0.000000e+00 0.000000e+00
-9.323583e+04 -1.413655e+03 0.000000e+00 -1.413655e+03 -5.933058e+04 0.000000e+00 0.000000e+00 0.000000e+00 0.000000e+00
-9.418066e+04 -9.107581e+02 0.000000e+00 -9.107581e+02 -5.970766e+04 0.000000e+00 0.000000e+00 0.000000e+00 0.000000e+00
-9.509889e+04 -4.328298e+02 0.000000e+00 -4.328298e+02 -6.007136e+04 0.000000e+00 0.000000e+00 0.000000e+00 0.000000e+00
-6.558470e+04 6.418298e+03 0.000000e+00 6.418298e+03 -6.450078e+04 0.000000e+00 0.000000e+00 0.000000e+00 0.000000e+00
-7.239289e+04 5.921636e+03 0.000000e+00 5.921636e+03 -6.404941e+04 0.000000e+00 0.000000e+00 0.000000e+00 0.000000e+00
-7.973762e+04 4.536140e+03 0.000000e+00 4.536140e+03 -6.183890e+04 0.000000e+00 0.000000e+00 0.000000e+00 0.000000e+00
-8.440100e+04 2.965179e+03 0.000000e+00 2.965179e+03 -6.020402e+04 0.000000e+00 0.000000e+00 0.000000e+00 0.000000e+00
-8.734673e+04 1.522321e+03 0.000000e+00 1.522321e+03 -5.917513e+04 0.000000e+00 0.000000e+00 0.000000e+00 0.000000e+00
-8.927397e+04 3.558800e+02 0.000000e+00 3.558800e+02 -5.873383e+04 0.000000e+00 0.000000e+00 0.000000e+00 0.000000e+00
-9.075561e+04 -4.684187e+02 0.000000e+00 -4.684187e+02 -5.871473e+04 0.000000e+00 0.000000e+00 0.000000e+00 0.000000e+00
-9.211146e+04 -8.971205e+02 0.000000e+00 -8.971205e+02 -5.900174e+04 0.000000e+00 0.000000e+00 0.000000e+00 0.000000e+00
-9.345823e+04 -9.175240e+02 0.000000e+00 -9.175240e+02 -5.940280e+04 0.000000e+00 0.000000e+00 0.000000e+00 0.000000e+00
-9.490770e+04 -5.661513e+02 0.000000e+00 -5.661513e+02 -5.974577e+04 0.000000e+00 0.000000e+00 0.000000e+00 0.000000e+00
-9.618766e+04 -2.456659e+02 0.000000e+00 -2.456659e+02 -6.017648e+04 0.000000e+00 0.000000e+00 0.000000e+00 0.000000e+00
-6.523125e+04 3.223052e+03 0.000000e+00 3.223052e+03 -6.481298e+04 0.000000e+00 0.000000e+00 0.000000e+00 0.000000e+00
-7.145548e+04 2.973361e+03 0.000000e+00 2.973361e+03 -6.414930e+04 0.000000e+00 0.000000e+00 0.000000e+00 0.000000e+00
-7.842118e+04 2.275065e+03 0.000000e+00 2.275065e+03 -6.179335e+04 0.000000e+00 0.000000e+00 0.000000e+00 0.000000e+00
-8.307575e+04 1.465105e+03 0.000000e+00 1.465105e+03 -6.016102e+04 0.000000e+00 0.000000e+00 0.000000e+00 0.000000e+00
-8.624661e+04 7.441179e+02 0.000000e+00 7.441179e+02 -5.916024e+04 0.000000e+00 0.000000e+00 0.000000e+00 0.000000e+00
-8.844951e+04 1.649086e+02 0.000000e+00 1.649086e+02 -5.875212e+04 0.000000e+00 0.000000e+00 0.000000e+00 0.000000e+00
-9.022286e+04 -2.420770e+02 0.000000e+00 -2.420770e+02 -5.877253e+04 0.000000e+00 0.000000e+00 0.000000e+00 0.000000e+00
-9.192949e+04 -4.501707e+02 0.000000e+00 -4.501707e+02 -5.907504e+04 0.000000e+00 0.000000e+00 0.000000e+00 0.000000e+00
-9.361402e+04 -4.505840e+02 0.000000e+00 -4.505840e+02 -5.947315e+04 0.000000e+00 0.000000e+00 0.000000e+00 0.000000e+00
-9.533811e+04 -2.636393e+02 0.000000e+00 -2.636393e+02 -5.979405e+04 0.000000e+00 0.000000e+00 0.000000e+00 0.000000e+00
-9.678428e+04 -1.010428e+02 0.000000e+00 -1.010428e+02 -6.024308e+04 0.000000e+00 0.000000e+00 0.000000e+00 0.000000e+00
-6.500536e+04 8.594422e+02 0.000000e+00 8.594422e+02 -6.465006e+04 0.000000e+00 0.000000e+00 0.000000e+00 0.000000e+00
-7.108737e+04 8.510500e+02 0.000000e+00 8.510500e+02 -6.403208e+04 0.000000e+00 0.000000e+00 0.000000e+00 0.000000e+00
-7.797081e+04 6.535018e+02 0.000000e+00 6.535018e+02 -6.176220e+04 0.000000e+00 0.000000e+00 0.000000e+00 0.000000e+00
-8.264852e+04 3.503236e+02 0.000000e+00 3.503236e+02 -6.015996e+04 0.000000e+00 0.000000e+00 0.000000e+00 0.000000e+00
-8.588269e+04 8.474313e+01 0.000000e+00 8.474313e+01 -5.919004e+04 0.000000e+00 0.000000e+00 0.000000e+00 0.000000e+00
-8.819130e+04 -1.354876e+02 0.000000e+00 -1.354876e+02 -5.879364e+04 0.000000e+00 0.000000e+00 0.000000e+00 0.000000e+00
-9.006409e+04 -2.884798e+02 0.000000e+00 -2.884798e+02 -5.883621e+04 0.000000e+00 0.000000e+00 0.000000e+00 0.000000e+00
-9.188571e+04 -3.669810e+02 0.000000e+00 -3.669810e+02 -5.914038e+04 0.000000e+00 0.000000e+00 0.000000e+00 0.000000e+00
-9.368187e+04 -3.654542e+02 0.000000e+00 -3.654542e+02 -5.953580e+04 0.000000e+00 0.000000e+00 0.000000e+00 0.000000e+00
-9.549732e+04 -2.786446e+02 0.000000e+00 -2.786446e+02 -5.983581e+04 0.000000e+00 0.000000e+00 0.000000e+00 0.000000e+00
-9.698882e+04 -1.993822e+02 0.000000e+00 -1.993822e+02 -6.027283e+04 0.000000e+00 0.000000e+00 0.000000e+00 0.000000e+00
</DataArray>
<DataArray Name="vol_eps" type="Float64" NumberOfComponents="1" format="ascii">
-1.239926e-02
-1.068920e-02
-9.005541e-03
-7.750226e-03
-7.556180e-03
-8.071303e-03
-9.472504e-03
-1.184287e-02
-1.494772e-02
-1.815315e-02
-1.859123e-02
-1.192153e-02
-1.002733e-02
-8.653748e-03
-8.205689e-03
-8.389157e-03
-8.659221e-03
-9.195699e-03
-1.066904e-02
-1.280979e-02
-1.529457e-02
-2.010517e-02
-9.999556e-03
-8.017789e-03
-7.254835e-03
-7.486188e-03
-7.743248e-03
-8.039366e-03
-8.596404e-03
-9.589106e-03
-1.006139e-02
-1.089437e-02
-1.496021e-02
-6.809469e-03
-5.513599e-03
-5.336456e-03
-5.551595e-03
-5.488656e-03
-4.877388e-03
-3.703714e-03
-1.845672e-03
9.774944e-04
5.177449e-03
9.560294e-03
-5.086711e-03
-4.757046e-03
-5.441186e-03
-5.962916e-03
-6.202256e-03
-6.200096e-03
-5.950099e-03
-5.485525e-03
-4.649383e-03
-2.830634e-03
3.167659e-04
-3.586612e-03
-3.907487e-03
-4.731042e-03
-5.122767e-03
-5.273889e-03
-5.199872e-03
-4.907043e-03
-4.394462e-03
-3.570961e-03
-1.937122e-03
3.186422e-04
-2.345575e-03
-3.271873e-03
-4.105533e-03
-4.434380e-03
-4.495006e-03
-4.340275e-03
-4.017762e-03
-3.550250e-03
-2.840567e-03
-1.628286e-03
-1.943890e-04
-1.513251e-03
-2.757004e-03
-3.564392e-03
-3.797613e-03
-3.798892e-03
-3.642220e-03
-3.370948e-03
-2.982305e-03
-2.415050e-03
-1.585048e-03
-6.826207e-04
-1.058327e-03
-2.339904e-03
-3.051233e-03
-3.236219e-03
-3.238604e-03
-3.128086e-03
-2.912431e-03
-2.591867e-03
-2.186268e-03
-1.664009e-03
-1.119156e-03
-8.133522e-04
-1.985252e-03
-2.586483e-03
-2.780316e-03
-2.812490e-03
-2.741011e-03
-2.567271e-03
-2.335720e-03
-2.082383e-03
-1.788573e-03
-1.487305e-03
-6.741731e-04
-1.688102e-03
-2.217909e-03
-2.422023e-03
-2.481916e-03
-2.436105e-03
-2.316264e-03
-2.181313e-03
-2.048809e-03
-1.916228e-03
-1.778859e-03
-6.107719e-04
-1.455209e-03
-1.933881e-03
-2.141318e-03
-2.208467e-03
-2.192495e-03
-2.140663e-03
-2.090217e-03
-2.052578e-03
-2.024667e-03
-1.991963e-03
-5.806349e-04
-1.262093e-03
-1.701412e-03
-1.910488e-03
-1.987354e-03
-2.009009e-03
-2.018511e-03
-2.037379e-03
-2.068689e-03
-2.107925e-03
-2.143754e-03
-5.902389e-04
-1.120000e-03
-1.510594e-03
-1.716655e-03
-1.817811e-03
-1.877510e-03
-1.935715e-03
-2.006105e-03
-2.086035e-03
-2.169152e-03
-2.249781e-03
-6.210798e-04
-1.039408e-03
-1.372265e-03
-1.570708e-03
-1.695991e-03
-1.790638e-03
-1.883682e-03
-1.988919e-03
-2.101583e-03
-2.212574e-03
-2.320560e-03
-6.388997e-04
-9.934129e-04
-1.284338e-03
-1.482022e-03
-1.626691e-03
-1.742456e-03
-1.855530e-03
-1.981808e-03
-2.113435e-03
-2.239026e-03
-2.358846e-03
-6.196689e-04
-9.653805e-04
-1.252830e-03
-1.453427e-03
-1.607349e-03
-1.730461e-03
-1.851323e-03
-1.984401e-03
-2.122092e-03
-2.251712e-03
-2.373760e-03
</DataArray>
</PointData>
</Piece>
</UnstructuredGrid>
</VTKFile>
