<?xml version="1.0"?>
<VTKFile type="UnstructuredGrid" version="0.1">
<UnstructuredGrid>
<FieldData>
<DataArray Name="TIME" type="Float64" format="ascii" NumberOfTuples="1">
0.000000e+00
</DataArray>
</FieldData>
<FieldData>
<DataArray Name="CYCLE" type="Int32" format="ascii" NumberOfTuples="1">
0
</DataArray>
</FieldData>
<Piece NumberOfPoints="187" NumberOfCells="160">
<Points>
<DataArray NumberOfComponents="3" type="Float64" format="ascii">
0.000000e+00 0.000000e+00 0.000000e+00
0.000000e+00 1.978920e-01 0.000000e+00
0.000000e+00 3.950592e-01 0.000000e+00
0.000000e+00 5.916789e-01 0.000000e+00
0.000000e+00 7.878826e-01 0.000000e+00
0.000000e+00 9.837725e-01 0.000000e+00
0.000000e+00 1.179507e+00 0.000000e+00
0.000000e+00 1.375286e+00 0.000000e+00
0.000000e+00 1.571351e+00 0.000000e+00
0.000000e+00 1.768059e+00 0.000000e+00
0.000000e+00 1.965125e+00 0.000000e+00
2.250000e-01 0.000000e+00 0.000000e+00
2.259681e-01 1.980726e-01 0.000000e+00
2.267534e-01 3.954816e-01 0.000000e+00
2.273166e-01 5.923651e-01 0.000000e+00
2.276887e-01 7.888193e-01 0.000000e+00
2.278783e-01 9.849218e-01 0.000000e+00
2.277791e-01 1.180785e+00 0.000000e+00
2.274247e-01 1.376495e+00 0.000000e+00
2.267127e-01 1.572213e+00 0.000000e+00
2.255642e-01 1.768179e+00 0.000000e+00
2.250000e-01 1.965125e+00 0.000000e+00
4.500000e-01 0.000000e+00 0.000000e+00
4.517316e-01 1.984942e-01 0.000000e+00
4.531353e-01 3.965970e-01 0.000000e+00
4.542004e-01 5.943249e-01 0.000000e+00
4.549984e-01 7.916558e-01 0.000000e+00
4.554880e-01 9.885840e-01 0.000000e+00
4.555815e-01 1.185068e+00 0.000000e+00
4.554485e-01 1.381034e+00 0.000000e+00
4.547170e-01 1.576389e+00 0.000000e+00
4.532824e-01 1.771045e+00 0.000000e+00
4.500000e-01 1.965125e+00 0.000000e+00
6.750000e-01 0.000000e+00 0.000000e+00
6.771243e-01 1.989218e-01 0.000000e+00
6.787638e-01 3.977817e-01 0.000000e+00
6.800407e-01 5.966517e-01 0.000000e+00
6.810843e-01 7.955724e-01 0.000000e+00
6.818732e-01 9.945971e-01 0.000000e+00
6.823682e-01 1.193748e+00 0.000000e+00
6.825897e-01 1.393034e+00 0.000000e+00
6.823314e-01 1.592590e+00 0.000000e+00
6.813551e-01 1.792504e+00 0.000000e+00
6.777394e-01 1.993132e+00 0.000000e+00
9.000000e-01 0.000000e+00 0.000000e+00
9.022238e-01 1.992000e-01 0.000000e+00
9.037973e-01 3.984416e-01 0.000000e+00
9.049869e-01 5.977585e-01 0.000000e+00
9.059049e-01 7.971669e-01 0.000000e+00
9.065582e-01 9.966892e-01 0.000000e+00
9.069210e-01 1.196354e+00 0.000000e+00
9.069468e-01 1.396210e+00 0.000000e+00
9.064933e-01 1.596275e+00 0.000000e+00
9.051424e-01 1.796583e+00 0.000000e+00
9.027990e-01 1.996572e+00 0.000000e+00
1.125000e+00 0.000000e+00 0.000000e+00
1.127151e+00 1.994361e-01 0.000000e+00
1.128585e+00 3.989569e-01 0.000000e+00
1.129652e+00 5.985701e-01 0.000000e+00
1.130444e+00 7.982817e-01 0.000000e+00
1.130971e+00 9.981049e-01 0.000000e+00
1.131204e+00 1.198054e+00 0.000000e+00
1.131104e+00 1.398143e+00 0.000000e+00
1.130548e+00 1.598367e+00 0.000000e+00
1.129459e+00 1.798591e+00 0.000000e+00
1.128048e+00 1.998665e+00 0.000000e+00
1.350000e+00 0.000000e+00 0.000000e+00
1.351959e+00 1.996222e-01 0.000000e+00
1.353242e+00 3.993438e-01 0.000000e+00
1.354182e+00 5.991542e-01 0.000000e+00
1.354857e+00 7.990570e-01 0.000000e+00
1.355280e+00 9.990559e-01 0.000000e+00
1.355431e+00 1.199152e+00 0.000000e+00
1.355275e+00 1.399340e+00 0.000000e+00
1.354783e+00 1.599576e+00 0.000000e+00
1.354003e+00 1.799774e+00 0.000000e+00
1.353135e+00 1.999834e+00 0.000000e+00
1.575000e+00 0.000000e+00 0.000000e+00
1.576701e+00 1.997508e-01 0.000000e+00
1.577828e+00 3.996119e-01 0.000000e+00
1.578649e+00 5.995575e-01 0.000000e+00
1.579228e+00 7.995791e-01 0.000000e+00
1.579576e+00 9.996758e-01 0.000000e+00
1.579678e+00 1.199844e+00 0.000000e+00
1.579532e+00 1.400065e+00 0.000000e+00
1.579159e+00 1.600294e+00 0.000000e+00
1.578633e+00 1.800466e+00 0.000000e+00
1.578104e+00 2.000541e+00 0.000000e+00
1.800000e+00 0.000000e+00 0.000000e+00
1.801421e+00 1.998422e-01 0.000000e+00
1.802391e+00 3.997908e-01 0.000000e+00
1.803107e+00 5.998150e-01 0.000000e+00
1.803607e+00 7.999023e-01 0.000000e+00
1.803896e+00 1.000053e+00 0.000000e+00
1.803980e+00 1.200254e+00 0.000000e+00
1.803875e+00 1.400481e+00 0.000000e+00
1.803619e+00 1.600696e+00 0.000000e+00
1.803284e+00 1.800857e+00 0.000000e+00
1.802978e+00 2.000947e+00 0.000000e+00
2.025000e+00 0.000000e+00 0.000000e+00
2.026146e+00 1.998983e-01 0.000000e+00
2.026971e+00 3.998951e-01 0.000000e+00
2.027587e+00 5.999593e-01 0.000000e+00
2.028013e+00 8.000842e-01 0.000000e+00
2.028260e+00 1.000261e+00 0.000000e+00
2.028343e+00 1.200473e+00 0.000000e+00
2.028286e+00 1.400694e+00 0.000000e+00
2.028128e+00 1.600896e+00 0.000000e+00
2.027930e+00 1.801054e+00 0.000000e+00
2.027772e+00 2.001160e+00 0.000000e+00
2.250000e+00 0.000000e+00 0.000000e+00
2.250901e+00 1.999284e-01 0.000000e+00
2.251585e+00 3.999457e-01 0.000000e+00
2.252102e+00 6.000312e-01 0.000000e+00
2.252461e+00 8.001726e-01 0.000000e+00
2.252676e+00 1.000357e+00 0.000000e+00
2.252763e+00 1.200565e+00 0.000000e+00
2.252746e+00 1.400776e+00 0.000000e+00
2.252662e+00 1.600968e+00 0.000000e+00
2.252560e+00 1.801127e+00 0.000000e+00
2.252498e+00 2.001249e+00 0.000000e+00
2.475000e+00 0.000000e+00 0.000000e+00
2.475691e+00 1.999440e-01 0.000000e+00
2.476241e+00 3.999686e-01 0.000000e+00
2.476660e+00 6.000590e-01 0.000000e+00
2.476958e+00 8.002015e-01 0.000000e+00
2.477143e+00 1.000381e+00 0.000000e+00
2.477231e+00 1.200579e+00 0.000000e+00
2.477244e+00 1.400779e+00 0.000000e+00
2.477211e+00 1.600964e+00 0.000000e+00
2.477170e+00 1.801125e+00 0.000000e+00
2.477166e+00 2.001262e+00 0.000000e+00
2.700000e+00 0.000000e+00 0.000000e+00
2.700515e+00 1.999512e-01 0.000000e+00
2.700937e+00 3.999761e-01 0.000000e+00
2.701265e+00 6.000621e-01 0.000000e+00
2.701503e+00 8.001975e-01 0.000000e+00
2.701657e+00 1.000366e+00 0.000000e+00
2.701739e+00 1.200553e+00 0.000000e+00
2.701768e+00 1.400742e+00 0.000000e+00
2.701766e+00 1.600922e+00 0.000000e+00
2.701762e+00 1.801086e+00 0.000000e+00
2.701788e+00 2.001236e+00 0.000000e+00
2.925000e+00 0.000000e+00 0.000000e+00
2.925364e+00 1.999530e-01 0.000000e+00
2.925671e+00 3.999744e-01 0.000000e+00
2.925912e+00 6.000536e-01 0.000000e+00
2.926090e+00 8.001794e-01 0.000000e+00
2.926210e+00 1.000338e+00 0.000000e+00
2.926279e+00 1.200514e+00 0.000000e+00
2.926311e+00 1.400695e+00 0.000000e+00
2.926324e+00 1.600871e+00 0.000000e+00
2.926337e+00 1.801037e+00 0.000000e+00
2.926373e+00 2.001198e+00 0.000000e+00
3.150000e+00 0.000000e+00 0.000000e+00
3.150233e+00 1.999536e-01 0.000000e+00
3.150434e+00 3.999721e-01 0.000000e+00
3.150591e+00 6.000456e-01 0.000000e+00
3.150710e+00 8.001636e-01 0.000000e+00
3.150791e+00 1.000313e+00 0.000000e+00
3.150841e+00 1.200481e+00 0.000000e+00
3.150867e+00 1.400655e+00 0.000000e+00
3.150882e+00 1.600828e+00 0.000000e+00
3.150899e+00 1.800997e+00 0.000000e+00
3.150930e+00 2.001165e+00 0.000000e+00
3.375000e+00 0.000000e+00 0.000000e+00
3.375116e+00 1.999562e-01 0.000000e+00
3.375213e+00 3.999754e-01 0.000000e+00
3.375291e+00 6.000469e-01 0.000000e+00
3.375350e+00 8.001603e-01 0.000000e+00
3.375391e+00 1.000304e+00 0.000000e+00
3.375417e+00 1.200466e+00 0.000000e+00
3.375432e+00 1.400636e+00 0.000000e+00
3.375441e+00 1.600808e+00 0.000000e+00
3.375452e+00 1.800978e+00 0.000000e+00
3.375470e+00 2.001150e+00 0.000000e+00
3.600000e+00 0.000000e+00 0.000000e+00
3.600000e+00 1.999702e-01 0.000000e+00
3.600000e+00 3.999925e-01 0.000000e+00
3.600000e+00 6.000635e-01 0.000000e+00
3.600000e+00 8.001750e-01 0.000000e+00
3.600000e+00 1.000316e+00 0.000000e+00
3.600000e+00 1.200476e+00 0.000000e+00
3.600000e+00 1.400645e+00 0.000000e+00
3.600000e+00 1.600815e+00 0.000000e+00
3.600000e+00 1.800986e+00 0.000000e+00
3.600000e+00 2.001160e+00 0.000000e+00
</DataArray>
</Points>
<Cells>
<DataArray Name="connectivity" type="Int32" format="ascii">
0 11 12 1
1 12 13 2
2 13 14 3
3 14 15 4
4 15 16 5
5 16 17 6
6 17 18 7
7 18 19 8
8 19 20 9
9 20 21 10
11 22 23 12
12 23 24 13
13 24 25 14
14 25 26 15
15 26 27 16
16 27 28 17
17 28 29 18
18 29 30 19
19 30 31 20
20 31 32 21
22 33 34 23
23 34 35 24
24 35 36 25
25 36 37 26
26 37 38 27
27 38 39 28
28 39 40 29
29 40 41 30
30 41 42 31
31 42 43 32
33 44 45 34
34 45 46 35
35 46 47 36
36 47 48 37
37 48 49 38
38 49 50 39
39 50 51 40
40 51 52 41
41 52 53 42
42 53 54 43
44 55 56 45
45 56 57 46
46 57 58 47
47 58 59 48
48 59 60 49
49 60 61 50
50 61 62 51
51 62 63 52
52 63 64 53
53 64 65 54
55 66 67 56
56 67 68 57
57 68 69 58
58 69 70 59
59 70 71 60
60 71 72 61
61 72 73 62
62 73 74 63
63 74 75 64
64 75 76 65
66 77 78 67
67 78 79 68
68 79 80 69
69 80 81 70
70 81 82 71
71 82 83 72
72 83 84 73
73 84 85 74
74 85 86 75
75 86 87 76
77 88 89 78
78 89 90 79
79 90 91 80
80 91 92 81
81 92 93 82
82 93 94 83
83 94 95 84
84 95 96 85
85 96 97 86
86 97 98 87
88 99 100 89
89 100 101 90
90 101 102 91
91 102 103 92
92 103 104 93
93 104 105 94
94 105 106 95
95 106 107 96
96 107 108 97
97 108 109 98
99 110 111 100
100 111 112 101
101 112 113 102
102 113 114 103
103 114 115 104
104 115 116 105
105 116 117 106
106 117 118 107
107 118 119 108
108 119 120 109
110 121 122 111
111 122 123 112
112 123 124 113
113 124 125 114
114 125 126 115
115 126 127 116
116 127 128 117
117 128 129 118
118 129 130 119
119 130 131 120
121 132 133 122
122 133 134 123
123 134 135 124
124 135 136 125
125 136 137 126
126 137 138 127
127 138 139 128
128 139 140 129
129 140 141 130
130 141 142 131
132 143 144 133
133 144 145 134
134 145 146 135
135 146 147 136
136 147 148 137
137 148 149 138
138 149 150 139
139 150 151 140
140 151 152 141
141 152 153 142
143 154 155 144
144 155 156 145
145 156 157 146
146 157 158 147
147 158 159 148
148 159 160 149
149 160 161 150
150 161 162 151
151 162 163 152
152 163 164 153
154 165 166 155
155 166 167 156
156 167 168 157
157 168 169 158
158 169 170 159
159 170 171 160
160 171 172 161
161 172 173 162
162 173 174 163
163 174 175 164
165 176 177 166
166 177 178 167
167 178 179 168
168 179 180 169
169 180 181 170
170 181 182 171
171 182 183 172
172 183 184 173
173 184 185 174
174 185 186 175
</DataArray>
<DataArray Name="offsets" type="Int32" format="ascii">
4
8
12
16
20
24
28
32
36
40
44
48
52
56
60
64
68
72
76
80
84
88
92
96
100
104
108
112
116
120
124
128
132
136
140
144
148
152
156
160
164
168
172
176
180
184
188
192
196
200
204
208
212
216
220
224
228
232
236
240
244
248
252
256
260
264
268
272
276
280
284
288
292
296
300
304
308
312
316
320
324
328
332
336
340
344
348
352
356
360
364
368
372
376
380
384
388
392
396
400
404
408
412
416
420
424
428
432
436
440
444
448
452
456
460
464
468
472
476
480
484
488
492
496
500
504
508
512
516
520
524
528
532
536
540
544
548
552
556
560
564
568
572
576
580
584
588
592
596
600
604
608
612
616
620
624
628
632
636
640
</DataArray>
<DataArray Name="types" type="UInt8" format="ascii">
9
9
9
9
9
9
9
9
9
9
9
9
9
9
9
9
9
9
9
9
9
9
9
9
9
9
9
9
9
9
9
9
9
9
9
9
9
9
9
9
9
9
9
9
9
9
9
9
9
9
9
9
9
9
9
9
9
9
9
9
9
9
9
9
9
9
9
9
9
9
9
9
9
9
9
9
9
9
9
9
9
9
9
9
9
9
9
9
9
9
9
9
9
9
9
9
9
9
9
9
9
9
9
9
9
9
9
9
9
9
9
9
9
9
9
9
9
9
9
9
9
9
9
9
9
9
9
9
9
9
9
9
9
9
9
9
9
9
9
9
9
9
9
9
9
9
9
9
9
9
9
9
9
9
9
9
9
9
9
9
</DataArray>
</Cells>
<PointData>
<DataArray Name="disp" type="Float64" NumberOfComponents="3" format="ascii">
0.000000e+00 0.000000e+00 0.000000e+00
0.000000e+00 -2.108024e-03 0.000000e+00
0.000000e+00 -4.940795e-03 0.000000e+00
0.000000e+00 -8.321170e-03 0.000000e+00
0.000000e+00 -1.211739e-02 0.000000e+00
0.000000e+00 -1.622751e-02 0.000000e+00
0.000000e+00 -2.049254e-02 0.000000e+00
0.000000e+00 -2.471386e-02 0.000000e+00
0.000000e+00 -2.864898e-02 0.000000e+00
0.000000e+00 -3.194145e-02 0.000000e+00
0.000000e+00 -3.487500e-02 0.000000e+00
0.000000e+00 0.000000e+00 0.000000e+00
9.681227e-04 -1.927364e-03 0.000000e+00
1.753426e-03 -4.518347e-03 0.000000e+00
2.316647e-03 -7.634826e-03 0.000000e+00
2.688675e-03 -1.118066e-02 0.000000e+00
2.878307e-03 -1.507821e-02 0.000000e+00
2.779068e-03 -1.921484e-02 0.000000e+00
2.424666e-03 -2.350525e-02 0.000000e+00
1.712736e-03 -2.778673e-02 0.000000e+00
5.641467e-04 -3.182072e-02 0.000000e+00
0.000000e+00 -3.487500e-02 0.000000e+00
0.000000e+00 0.000000e+00 0.000000e+00
1.731593e-03 -1.505835e-03 0.000000e+00
3.135314e-03 -3.402981e-03 0.000000e+00
4.200425e-03 -5.675047e-03 0.000000e+00
4.998433e-03 -8.344183e-03 0.000000e+00
5.488005e-03 -1.141593e-02 0.000000e+00
5.581552e-03 -1.493237e-02 0.000000e+00
5.448464e-03 -1.896636e-02 0.000000e+00
4.717034e-03 -2.361117e-02 0.000000e+00
3.282410e-03 -2.895509e-02 0.000000e+00
0.000000e+00 -3.487500e-02 0.000000e+00
0.000000e+00 0.000000e+00 0.000000e+00
2.124258e-03 -1.078252e-03 0.000000e+00
3.763805e-03 -2.218315e-03 0.000000e+00
5.040641e-03 -3.348320e-03 0.000000e+00
6.084314e-03 -4.427580e-03 0.000000e+00
6.873189e-03 -5.402851e-03 0.000000e+00
7.368166e-03 -6.252046e-03 0.000000e+00
7.589676e-03 -6.965954e-03 0.000000e+00
7.331390e-03 -7.410323e-03 0.000000e+00
6.355097e-03 -7.495894e-03 0.000000e+00
2.739410e-03 -6.867518e-03 0.000000e+00
0.000000e+00 0.000000e+00 0.000000e+00
2.223842e-03 -7.999573e-04 0.000000e+00
3.797256e-03 -1.558431e-03 0.000000e+00
4.986875e-03 -2.241448e-03 0.000000e+00
5.904950e-03 -2.833083e-03 0.000000e+00
6.558243e-03 -3.310815e-03 0.000000e+00
6.920940e-03 -3.645573e-03 0.000000e+00
6.946867e-03 -3.790356e-03 0.000000e+00
6.493307e-03 -3.724950e-03 0.000000e+00
5.142348e-03 -3.417277e-03 0.000000e+00
2.798942e-03 -3.428144e-03 0.000000e+00
0.000000e+00 0.000000e+00 0.000000e+00
2.151507e-03 -5.638768e-04 0.000000e+00
3.585451e-03 -1.043080e-03 0.000000e+00
4.651742e-03 -1.429898e-03 0.000000e+00
5.443564e-03 -1.718260e-03 0.000000e+00
5.971362e-03 -1.895154e-03 0.000000e+00
6.203600e-03 -1.946333e-03 0.000000e+00
6.104428e-03 -1.856615e-03 0.000000e+00
5.547597e-03 -1.632554e-03 0.000000e+00
4.458931e-03 -1.409453e-03 0.000000e+00
3.047859e-03 -1.334714e-03 0.000000e+00
0.000000e+00 0.000000e+00 0.000000e+00
1.958873e-03 -3.778421e-04 0.000000e+00
3.242267e-03 -6.561792e-04 0.000000e+00
4.181472e-03 -8.458137e-04 0.000000e+00
4.856889e-03 -9.430167e-04 0.000000e+00
5.280078e-03 -9.441313e-04 0.000000e+00
5.431338e-03 -8.476266e-04 0.000000e+00
5.275336e-03 -6.599482e-04 0.000000e+00
4.783451e-03 -4.236205e-04 0.000000e+00
4.003149e-03 -2.260146e-04 0.000000e+00
3.134505e-03 -1.658203e-04 0.000000e+00
0.000000e+00 0.000000e+00 0.000000e+00
1.700910e-03 -2.491917e-04 0.000000e+00
2.828027e-03 -3.881227e-04 0.000000e+00
3.648811e-03 -4.425660e-04 0.000000e+00
4.228053e-03 -4.208267e-04 0.000000e+00
4.576021e-03 -3.242497e-04 0.000000e+00
4.678028e-03 -1.561415e-04 0.000000e+00
4.532279e-03 6.488154e-05 0.000000e+00
4.158660e-03 2.939894e-04 0.000000e+00
3.632989e-03 4.655694e-04 0.000000e+00
3.104406e-03 5.410442e-04 0.000000e+00
0.000000e+00 0.000000e+00 0.000000e+00
1.421119e-03 -1.578113e-04 0.000000e+00
2.390716e-03 -2.091991e-04 0.000000e+00
3.106534e-03 -1.850686e-04 0.000000e+00
3.606729e-03 -9.776108e-05 0.000000e+00
3.896261e-03 5.286949e-05 0.000000e+00
3.980108e-03 2.540925e-04 0.000000e+00
3.875071e-03 4.813160e-04 0.000000e+00
3.619350e-03 6.956820e-04 0.000000e+00
3.283739e-03 8.572961e-04 0.000000e+00
2.978035e-03 9.469038e-04 0.000000e+00
0.000000e+00 0.000000e+00 0.000000e+00
1.146417e-03 -1.017215e-04 0.000000e+00
1.970594e-03 -1.049137e-04 0.000000e+00
2.586611e-03 -4.066151e-05 0.000000e+00
3.012988e-03 8.421487e-05 0.000000e+00
3.260560e-03 2.612244e-04 0.000000e+00
3.343422e-03 4.726101e-04 0.000000e+00
3.285454e-03 6.940455e-04 0.000000e+00
3.127929e-03 8.957926e-04 0.000000e+00
2.929491e-03 1.054271e-03 0.000000e+00
2.771985e-03 1.160303e-03 0.000000e+00
0.000000e+00 0.000000e+00 0.000000e+00
9.011878e-04 -7.164400e-05 0.000000e+00
1.584673e-03 -5.425449e-05 0.000000e+00
2.102154e-03 3.120729e-05 0.000000e+00
2.460920e-03 1.726053e-04 0.000000e+00
2.675621e-03 3.565467e-04 0.000000e+00
2.762844e-03 5.647943e-04 0.000000e+00
2.746361e-03 7.755858e-04 0.000000e+00
2.662457e-03 9.677389e-04 0.000000e+00
2.559569e-03 1.126872e-03 0.000000e+00
2.497836e-03 1.249035e-03 0.000000e+00
0.000000e+00 0.000000e+00 0.000000e+00
6.913662e-04 -5.598824e-05 0.000000e+00
1.240648e-03 -3.138842e-05 0.000000e+00
1.660050e-03 5.898263e-05 0.000000e+00
1.957881e-03 2.014981e-04 0.000000e+00
2.143224e-03 3.805754e-04 0.000000e+00
2.231364e-03 5.790576e-04 0.000000e+00
2.243981e-03 7.788980e-04 0.000000e+00
2.210949e-03 9.637713e-04 0.000000e+00
2.170310e-03 1.125097e-03 0.000000e+00
2.166237e-03 1.262107e-03 0.000000e+00
0.000000e+00 0.000000e+00 0.000000e+00
5.146895e-04 -4.877611e-05 0.000000e+00
9.373722e-04 -2.393171e-05 0.000000e+00
1.264877e-03 6.206622e-05 0.000000e+00
1.502807e-03 1.974781e-04 0.000000e+00
1.657257e-03 3.664789e-04 0.000000e+00
1.739357e-03 5.532170e-04 0.000000e+00
1.768016e-03 7.424270e-04 0.000000e+00
1.766157e-03 9.222552e-04 0.000000e+00
1.761935e-03 1.086412e-03 0.000000e+00
1.787948e-03 1.236216e-03 0.000000e+00
0.000000e+00 0.000000e+00 0.000000e+00
3.637439e-04 -4.698581e-05 0.000000e+00
6.711947e-04 -2.560201e-05 0.000000e+00
9.121888e-04 5.360688e-05 0.000000e+00
1.090374e-03 1.793736e-04 0.000000e+00
1.210028e-03 3.378424e-04 0.000000e+00
1.279004e-03 5.140522e-04 0.000000e+00
1.311222e-03 6.946717e-04 0.000000e+00
1.323804e-03 8.705785e-04 0.000000e+00
1.337085e-03 1.037364e-03 0.000000e+00
1.372818e-03 1.197718e-03 0.000000e+00
0.000000e+00 0.000000e+00 0.000000e+00
2.332758e-04 -4.640727e-05 0.000000e+00
4.334231e-04 -2.790841e-05 0.000000e+00
5.912978e-04 4.561878e-05 0.000000e+00
7.097923e-04 1.636032e-04 0.000000e+00
7.913868e-04 3.130694e-04 0.000000e+00
8.408899e-04 4.809801e-04 0.000000e+00
8.674553e-04 6.552120e-04 0.000000e+00
8.824373e-04 8.281049e-04 0.000000e+00
8.989391e-04 9.969453e-04 0.000000e+00
9.302432e-04 1.164831e-03 0.000000e+00
0.000000e+00 0.000000e+00 0.000000e+00
1.156550e-04 -4.379705e-05 0.000000e+00
2.128007e-04 -2.454617e-05 0.000000e+00
2.909334e-04 4.695105e-05 0.000000e+00
3.498314e-04 1.603091e-04 0.000000e+00
3.911101e-04 3.039131e-04 0.000000e+00
4.170698e-04 4.662339e-04 0.000000e+00
4.317935e-04 6.364164e-04 0.000000e+00
4.412088e-04 8.075641e-04 0.000000e+00
4.517310e-04 9.776853e-04 0.000000e+00
4.697523e-04 1.150069e-03 0.000000e+00
0.000000e+00 0.000000e+00 0.000000e+00
0.000000e+00 -2.977221e-05 0.000000e+00
0.000000e+00 -7.504161e-06 0.000000e+00
0.000000e+00 6.349054e-05 0.000000e+00
0.000000e+00 1.750050e-04 0.000000e+00
0.000000e+00 3.162927e-04 0.000000e+00
0.000000e+00 4.763434e-04 0.000000e+00
0.000000e+00 6.449551e-04 0.000000e+00
0.000000e+00 8.154085e-04 0.000000e+00
0.000000e+00 9.861415e-04 0.000000e+00
0.000000e+00 1.160255e-03 0.000000e+00
</DataArray>
<DataArray Name="shear" type="Float64" NumberOfComponents="1" format="ascii">
1.187527e-02
1.639360e-02
2.302339e-02
2.803102e-02
3.165013e-02
3.375885e-02
3.387523e-02
3.169968e-02
2.649168e-02
1.935466e-02
1.583132e-02
1.192643e-02
1.585143e-02
2.183143e-02
2.677669e-02
3.080549e-02
3.364620e-02
3.509307e-02
3.491147e-02
3.213877e-02
2.591801e-02
2.028325e-02
1.232720e-02
1.462092e-02
1.852562e-02
2.294390e-02
2.797273e-02
3.342320e-02
3.964609e-02
4.614664e-02
5.216544e-02
5.495863e-02
5.474016e-02
1.242424e-02
1.284293e-02
1.364289e-02
1.558988e-02
1.865985e-02
2.272846e-02
2.814662e-02
3.462425e-02
4.177555e-02
4.645437e-02
4.956536e-02
1.209055e-02
1.132227e-02
1.008764e-02
9.864298e-03
1.007272e-02
1.035692e-02
1.064843e-02
1.068444e-02
9.605858e-03
5.855432e-03
1.645074e-03
1.131182e-02
1.010252e-02
8.333767e-03
7.763979e-03
7.592538e-03
7.498455e-03
7.344704e-03
6.888637e-03
5.652849e-03
3.019042e-03
6.609163e-04
1.011653e-02
8.830932e-03
7.035921e-03
6.409639e-03
6.127659e-03
5.917605e-03
5.652100e-03
5.170020e-03
4.165649e-03
2.373754e-03
9.209024e-04
8.703753e-03
7.562926e-03
6.020840e-03
5.460596e-03
5.177077e-03
4.975730e-03
4.748285e-03
4.334484e-03
3.522708e-03
2.197242e-03
1.177563e-03
7.236655e-03
6.341231e-03
5.162610e-03
4.714759e-03
4.496044e-03
4.371056e-03
4.205032e-03
3.855803e-03
3.199147e-03
2.204986e-03
1.482980e-03
5.825920e-03
5.189852e-03
4.379028e-03
4.083513e-03
3.983877e-03
3.940052e-03
3.823964e-03
3.538372e-03
3.024482e-03
2.290886e-03
1.787769e-03
4.571580e-03
4.154182e-03
3.665437e-03
3.540299e-03
3.554279e-03
3.580245e-03
3.517388e-03
3.305514e-03
2.925735e-03
2.408729e-03
2.074830e-03
3.502643e-03
3.247963e-03
3.014744e-03
3.047640e-03
3.168541e-03
3.261619e-03
3.260196e-03
3.127999e-03
2.869358e-03
2.532242e-03
2.328731e-03
2.602298e-03
2.458235e-03
2.426301e-03
2.603076e-03
2.826283e-03
2.988583e-03
3.047522e-03
2.991481e-03
2.839690e-03
2.646338e-03
2.541486e-03
1.838165e-03
1.776338e-03
1.922201e-03
2.234890e-03
2.547284e-03
2.771053e-03
2.882065e-03
2.889708e-03
2.824802e-03
2.742552e-03
2.710635e-03
1.180587e-03
1.192661e-03
1.527199e-03
1.966726e-03
2.347596e-03
2.615875e-03
2.766005e-03
2.819915e-03
2.817972e-03
2.814808e-03
2.832380e-03
5.934559e-04
7.246980e-04
1.272229e-03
1.804941e-03
2.226747e-03
2.521633e-03
2.696665e-03
2.779849e-03
2.816438e-03
2.859892e-03
2.906166e-03
2.135606e-04
5.216786e-04
1.183641e-03
1.747717e-03
2.183239e-03
2.487736e-03
2.672673e-03
2.766746e-03
2.816776e-03
2.875684e-03
2.931363e-03
</DataArray>
<DataArray Name="stress" type="Float64" NumberOfComponents="9" format="ascii">
-9.871077e+04 4.327917e+03 0.000000e+00 4.327917e+03 -1.594349e+05 0.000000e+00 0.000000e+00 0.000000e+00 0.000000e+00
-8.955634e+04 4.157296e+03 0.000000e+00 4.157296e+03 -1.581955e+05 0.000000e+00 0.000000e+00 0.000000e+00 0.000000e+00
-8.556061e+04 4.315869e+03 0.000000e+00 4.315869e+03 -1.676472e+05 0.000000e+00 0.000000e+00 0.000000e+00 0.000000e+00
-8.512762e+04 4.408779e+03 0.000000e+00 4.408779e+03 -1.764663e+05 0.000000e+00 0.000000e+00 0.000000e+00 0.000000e+00
-8.727797e+04 4.682173e+03 0.000000e+00 4.682173e+03 -1.848387e+05 0.000000e+00 0.000000e+00 0.000000e+00 0.000000e+00
-9.092323e+04 4.936589e+03 0.000000e+00 4.936589e+03 -1.930275e+05 0.000000e+00 0.000000e+00 0.000000e+00 0.000000e+00
-9.535257e+04 5.191725e+03 0.000000e+00 5.191725e+03 -2.016200e+05 0.000000e+00 0.000000e+00 0.000000e+00 0.000000e+00
-1.003744e+05 4.783121e+03 0.000000e+00 4.783121e+03 -2.091087e+05 0.000000e+00 0.000000e+00 0.000000e+00 0.000000e+00
-1.074903e+05 2.241999e+03 0.000000e+00 2.241999e+03 -2.133300e+05 0.000000e+00 0.000000e+00 0.000000e+00 0.000000e+00
-1.201102e+05 -1.320129e+03 0.000000e+00 -1.320129e+03 -2.140276e+05 0.000000e+00 0.000000e+00 0.000000e+00 0.000000e+00
-1.282918e+05 -1.955275e+03 0.000000e+00 -1.955275e+03 -2.128863e+05 0.000000e+00 0.000000e+00 0.000000e+00 0.000000e+00
-9.699528e+04 1.166226e+04 0.000000e+00 1.166226e+04 -1.508102e+05 0.000000e+00 0.000000e+00 0.000000e+00 0.000000e+00
-8.883594e+04 1.068643e+04 0.000000e+00 1.068643e+04 -1.497182e+05 0.000000e+00 0.000000e+00 0.000000e+00 0.000000e+00
-8.537277e+04 1.002127e+04 0.000000e+00 1.002127e+04 -1.579545e+05 0.000000e+00 0.000000e+00 0.000000e+00 0.000000e+00
-8.552348e+04 9.912025e+03 0.000000e+00 9.912025e+03 -1.661359e+05 0.000000e+00 0.000000e+00 0.000000e+00 0.000000e+00
-8.786700e+04 1.018726e+04 0.000000e+00 1.018726e+04 -1.745330e+05 0.000000e+00 0.000000e+00 0.000000e+00 0.000000e+00
-9.146612e+04 1.064288e+04 0.000000e+00 1.064288e+04 -1.836685e+05 0.000000e+00 0.000000e+00 0.000000e+00 0.000000e+00
-9.591299e+04 1.081075e+04 0.000000e+00 1.081075e+04 -1.937536e+05 0.000000e+00 0.000000e+00 0.000000e+00 0.000000e+00
-1.000567e+05 9.595283e+03 0.000000e+00 9.595283e+03 -2.033728e+05 0.000000e+00 0.000000e+00 0.000000e+00 0.000000e+00
-1.056082e+05 5.636367e+03 0.000000e+00 5.636367e+03 -2.130196e+05 0.000000e+00 0.000000e+00 0.000000e+00 0.000000e+00
-1.146035e+05 -2.922062e+02 0.000000e+00 -2.922062e+02 -2.183728e+05 0.000000e+00 0.000000e+00 0.000000e+00 0.000000e+00
-1.316246e+05 -6.061247e+03 0.000000e+00 -6.061247e+03 -2.316787e+05 0.000000e+00 0.000000e+00 0.000000e+00 0.000000e+00
-9.274365e+04 1.895440e+04 0.000000e+00 1.895440e+04 -1.323774e+05 0.000000e+00 0.000000e+00 0.000000e+00 0.000000e+00
-8.680128e+04 1.786473e+04 0.000000e+00 1.786473e+04 -1.310533e+05 0.000000e+00 0.000000e+00 0.000000e+00 0.000000e+00
-8.479452e+04 1.753659e+04 0.000000e+00 1.753659e+04 -1.357422e+05 0.000000e+00 0.000000e+00 0.000000e+00 0.000000e+00
-8.657897e+04 1.859090e+04 0.000000e+00 1.859090e+04 -1.412896e+05 0.000000e+00 0.000000e+00 0.000000e+00 0.000000e+00
-9.052324e+04 2.038269e+04 0.000000e+00 2.038269e+04 -1.481576e+05 0.000000e+00 0.000000e+00 0.000000e+00 0.000000e+00
-9.561863e+04 2.242904e+04 0.000000e+00 2.242904e+04 -1.567962e+05 0.000000e+00 0.000000e+00 0.000000e+00 0.000000e+00
-1.016322e+05 2.375710e+04 0.000000e+00 2.375710e+04 -1.659127e+05 0.000000e+00 0.000000e+00 0.000000e+00 0.000000e+00
-1.076618e+05 2.494226e+04 0.000000e+00 2.494226e+04 -1.758963e+05 0.000000e+00 0.000000e+00 0.000000e+00 0.000000e+00
-1.149925e+05 2.410696e+04 0.000000e+00 2.410696e+04 -1.895971e+05 0.000000e+00 0.000000e+00 0.000000e+00 0.000000e+00
-1.280588e+05 2.054458e+04 0.000000e+00 2.054458e+04 -2.073767e+05 0.000000e+00 0.000000e+00 0.000000e+00 0.000000e+00
-1.511586e+05 1.312176e+04 0.000000e+00 1.312176e+04 -2.340588e+05 0.000000e+00 0.000000e+00 0.000000e+00 0.000000e+00
-8.808748e+04 2.101826e+04 0.000000e+00 2.101826e+04 -1.147839e+05 0.000000e+00 0.000000e+00 0.000000e+00 0.000000e+00
-8.467457e+04 2.018505e+04 0.000000e+00 2.018505e+04 -1.134847e+05 0.000000e+00 0.000000e+00 0.000000e+00 0.000000e+00
-8.369879e+04 2.001348e+04 0.000000e+00 2.001348e+04 -1.138758e+05 0.000000e+00 0.000000e+00 0.000000e+00 0.000000e+00
-8.505761e+04 2.102954e+04 0.000000e+00 2.102954e+04 -1.131782e+05 0.000000e+00 0.000000e+00 0.000000e+00 0.000000e+00
-8.731183e+04 2.223516e+04 0.000000e+00 2.223516e+04 -1.116880e+05 0.000000e+00 0.000000e+00 0.000000e+00 0.000000e+00
-8.942517e+04 2.356986e+04 0.000000e+00 2.356986e+04 -1.090855e+05 0.000000e+00 0.000000e+00 0.000000e+00 0.000000e+00
-9.109802e+04 2.384785e+04 0.000000e+00 2.384785e+04 -1.049378e+05 0.000000e+00 0.000000e+00 0.000000e+00 0.000000e+00
-9.240368e+04 2.421012e+04 0.000000e+00 2.421012e+04 -1.004750e+05 0.000000e+00 0.000000e+00 0.000000e+00 0.000000e+00
-9.252137e+04 2.290486e+04 0.000000e+00 2.290486e+04 -9.333983e+04 0.000000e+00 0.000000e+00 0.000000e+00 0.000000e+00
-8.757865e+04 1.819546e+04 0.000000e+00 1.819546e+04 -8.043499e+04 0.000000e+00 0.000000e+00 0.000000e+00 0.000000e+00
-7.704184e+04 1.453469e+04 0.000000e+00 1.453469e+04 -7.254234e+04 0.000000e+00 0.000000e+00 0.000000e+00 0.000000e+00
-8.412260e+04 2.071640e+04 0.000000e+00 2.071640e+04 -1.019837e+05 0.000000e+00 0.000000e+00 0.000000e+00 0.000000e+00
-8.355377e+04 2.005534e+04 0.000000e+00 2.005534e+04 -1.014087e+05 0.000000e+00 0.000000e+00 0.000000e+00 0.000000e+00
-8.488151e+04 1.946295e+04 0.000000e+00 1.946295e+04 -1.007766e+05 0.000000e+00 0.000000e+00 0.000000e+00 0.000000e+00
-8.768103e+04 1.978650e+04 0.000000e+00 1.978650e+04 -9.931105e+04 0.000000e+00 0.000000e+00 0.000000e+00 0.000000e+00
-9.088605e+04 2.023891e+04 0.000000e+00 2.023891e+04 -9.700666e+04 0.000000e+00 0.000000e+00 0.000000e+00 0.000000e+00
-9.364764e+04 2.045708e+04 0.000000e+00 2.045708e+04 -9.370481e+04 0.000000e+00 0.000000e+00 0.000000e+00 0.000000e+00
-9.570439e+04 2.016733e+04 0.000000e+00 2.016733e+04 -8.915920e+04 0.000000e+00 0.000000e+00 0.000000e+00 0.000000e+00
-9.739793e+04 1.890043e+04 0.000000e+00 1.890043e+04 -8.322950e+04 0.000000e+00 0.000000e+00 0.000000e+00 0.000000e+00
-9.715434e+04 1.541468e+04 0.000000e+00 1.541468e+04 -7.537245e+04 0.000000e+00 0.000000e+00 0.000000e+00 0.000000e+00
-8.979501e+04 7.588549e+03 0.000000e+00 7.588549e+03 -6.822809e+04 0.000000e+00 0.000000e+00 0.000000e+00 0.000000e+00
-6.658559e+04 1.257608e+03 0.000000e+00 1.257608e+03 -5.809573e+04 0.000000e+00 0.000000e+00 0.000000e+00 0.000000e+00
-8.000425e+04 1.956540e+04 0.000000e+00 1.956540e+04 -9.150327e+04 0.000000e+00 0.000000e+00 0.000000e+00 0.000000e+00
-8.184555e+04 1.899288e+04 0.000000e+00 1.899288e+04 -9.139736e+04 0.000000e+00 0.000000e+00 0.000000e+00 0.000000e+00
-8.467138e+04 1.792376e+04 0.000000e+00 1.792376e+04 -8.985368e+04 0.000000e+00 0.000000e+00 0.000000e+00 0.000000e+00
-8.801291e+04 1.744531e+04 0.000000e+00 1.744531e+04 -8.770842e+04 0.000000e+00 0.000000e+00 0.000000e+00 0.000000e+00
-9.096051e+04 1.694350e+04 0.000000e+00 1.694350e+04 -8.493297e+04 0.000000e+00 0.000000e+00 0.000000e+00 0.000000e+00
-9.325093e+04 1.608373e+04 0.000000e+00 1.608373e+04 -8.136605e+04 0.000000e+00 0.000000e+00 0.000000e+00 0.000000e+00
-9.459452e+04 1.454482e+04 0.000000e+00 1.454482e+04 -7.689779e+04 0.000000e+00 0.000000e+00 0.000000e+00 0.000000e+00
-9.473252e+04 1.182808e+04 0.000000e+00 1.182808e+04 -7.164861e+04 0.000000e+00 0.000000e+00 0.000000e+00 0.000000e+00
-9.191368e+04 7.233615e+03 0.000000e+00 7.233615e+03 -6.637277e+04 0.000000e+00 0.000000e+00 0.000000e+00 0.000000e+00
-8.001118e+04 1.523448e+03 0.000000e+00 1.523448e+03 -6.228135e+04 0.000000e+00 0.000000e+00 0.000000e+00 0.000000e+00
-6.240589e+04 -9.535988e+02 0.000000e+00 -9.535988e+02 -5.806384e+04 0.000000e+00 0.000000e+00 0.000000e+00 0.000000e+00
-7.600981e+04 1.805380e+04 0.000000e+00 1.805380e+04 -8.299284e+04 0.000000e+00 0.000000e+00 0.000000e+00 0.000000e+00
-7.981320e+04 1.740978e+04 0.000000e+00 1.740978e+04 -8.324127e+04 0.000000e+00 0.000000e+00 0.000000e+00 0.000000e+00
-8.381184e+04 1.585891e+04 0.000000e+00 1.585891e+04 -8.135466e+04 0.000000e+00 0.000000e+00 0.000000e+00 0.000000e+00
-8.727655e+04 1.475981e+04 0.000000e+00 1.475981e+04 -7.914101e+04 0.000000e+00 0.000000e+00 0.000000e+00 0.000000e+00
-8.992691e+04 1.353164e+04 0.000000e+00 1.353164e+04 -7.641252e+04 0.000000e+00 0.000000e+00 0.000000e+00 0.000000e+00
-9.166577e+04 1.188283e+04 0.000000e+00 1.188283e+04 -7.316419e+04 0.000000e+00 0.000000e+00 0.000000e+00 0.000000e+00
-9.216476e+04 9.614028e+03 0.000000e+00 9.614028e+03 -6.951182e+04 0.000000e+00 0.000000e+00 0.000000e+00 0.000000e+00
-9.092741e+04 6.501146e+03 0.000000e+00 6.501146e+03 -6.580215e+04 0.000000e+00 0.000000e+00 0.000000e+00 0.000000e+00
-8.632502e+04 2.570644e+03 0.000000e+00 2.570644e+03 -6.259395e+04 0.000000e+00 0.000000e+00 0.000000e+00 0.000000e+00
-7.592884e+04 -5.204507e+02 0.000000e+00 -5.204507e+02 -6.054916e+04 0.000000e+00 0.000000e+00 0.000000e+00 0.000000e+00
-6.450854e+04 -1.468120e+03 0.000000e+00 -1.468120e+03 -5.854070e+04 0.000000e+00 0.000000e+00 0.000000e+00 0.000000e+00
-7.248473e+04 1.624219e+04 0.000000e+00 1.624219e+04 -7.650015e+04 0.000000e+00 0.000000e+00 0.000000e+00 0.000000e+00
-7.754756e+04 1.560366e+04 0.000000e+00 1.560366e+04 -7.687060e+04 0.000000e+00 0.000000e+00 0.000000e+00 0.000000e+00
-8.236379e+04 1.374116e+04 0.000000e+00 1.374116e+04 -7.491891e+04 0.000000e+00 0.000000e+00 0.000000e+00 0.000000e+00
-8.581992e+04 1.215118e+04 0.000000e+00 1.215118e+04 -7.284044e+04 0.000000e+00 0.000000e+00 0.000000e+00 0.000000e+00
-8.819692e+04 1.045487e+04 0.000000e+00 1.045487e+04 -7.047895e+04 0.000000e+00 0.000000e+00 0.000000e+00 0.000000e+00
-8.942770e+04 8.431517e+03 0.000000e+00 8.431517e+03 -6.791838e+04 0.000000e+00 0.000000e+00 0.000000e+00 0.000000e+00
-8.926364e+04 5.972041e+03 0.000000e+00 5.972041e+03 -6.528732e+04 0.000000e+00 0.000000e+00 0.000000e+00 0.000000e+00
-8.720176e+04 3.084928e+03 0.000000e+00 3.084928e+03 -6.283321e+04 0.000000e+00 0.000000e+00 0.000000e+00 0.000000e+00
-8.257670e+04 2.555418e+02 0.000000e+00 2.555418e+02 -6.099454e+04 0.000000e+00 0.000000e+00 0.000000e+00 0.000000e+00
-7.462144e+04 -1.221243e+03 0.000000e+00 -1.221243e+03 -6.006833e+04 0.000000e+00 0.000000e+00 0.000000e+00 0.000000e+00
-6.710422e+04 -1.323840e+03 0.000000e+00 -1.323840e+03 -5.902149e+04 0.000000e+00 0.000000e+00 0.000000e+00 0.000000e+00
-6.955155e+04 1.429601e+04 0.000000e+00 1.429601e+04 -7.172889e+04 0.000000e+00 0.000000e+00 0.000000e+00 0.000000e+00
-7.530637e+04 1.370470e+04 0.000000e+00 1.370470e+04 -7.207248e+04 0.000000e+00 0.000000e+00 0.000000e+00 0.000000e+00
-8.053694e+04 1.174967e+04 0.000000e+00 1.174967e+04 -7.023492e+04 0.000000e+00 0.000000e+00 0.000000e+00 0.000000e+00
-8.397581e+04 9.911258e+03 0.000000e+00 9.911258e+03 -6.842676e+04 0.000000e+00 0.000000e+00 0.000000e+00 0.000000e+00
-8.608559e+04 7.990508e+03 0.000000e+00 7.990508e+03 -6.655405e+04 0.000000e+00 0.000000e+00 0.000000e+00 0.000000e+00
-8.693735e+04 5.849943e+03 0.000000e+00 5.849943e+03 -6.462871e+04 0.000000e+00 0.000000e+00 0.000000e+00 0.000000e+00
-8.638041e+04 3.466895e+03 0.000000e+00 3.466895e+03 -6.276744e+04 0.000000e+00 0.000000e+00 0.000000e+00 0.000000e+00
-8.420594e+04 1.059815e+03 0.000000e+00 1.059815e+03 -6.122479e+04 0.000000e+00 0.000000e+00 0.000000e+00 0.000000e+00
-8.034236e+04 -8.239286e+02 0.000000e+00 -8.239286e+02 -6.025947e+04 0.000000e+00 0.000000e+00 0.000000e+00 0.000000e+00
-7.460573e+04 -1.377909e+03 0.000000e+00 -1.377909e+03 -5.991814e+04 0.000000e+00 0.000000e+00 0.000000e+00 0.000000e+00
-6.964584e+04 -1.150670e+03 0.000000e+00 -1.150670e+03 -5.931474e+04 0.000000e+00 0.000000e+00 0.000000e+00 0.000000e+00
-6.749860e+04 1.250886e+04 0.000000e+00 1.250886e+04 -6.838437e+04 0.000000e+00 0.000000e+00 0.000000e+00 0.000000e+00
-7.320459e+04 1.188379e+04 0.000000e+00 1.188379e+04 -6.865074e+04 0.000000e+00 0.000000e+00 0.000000e+00 0.000000e+00
-7.852138e+04 9.969388e+03 0.000000e+00 9.969388e+03 -6.698302e+04 0.000000e+00 0.000000e+00 0.000000e+00 0.000000e+00
-8.190585e+04 8.059692e+03 0.000000e+00 8.059692e+03 -6.544232e+04 0.000000e+00 0.000000e+00 0.000000e+00 0.000000e+00
-8.383244e+04 6.074393e+03 0.000000e+00 6.074393e+03 -6.395319e+04 0.000000e+00 0.000000e+00 0.000000e+00 0.000000e+00
-8.445646e+04 3.967591e+03 0.000000e+00 3.967591e+03 -6.250768e+04 0.000000e+00 0.000000e+00 0.000000e+00 0.000000e+00
-8.382957e+04 1.833456e+03 0.000000e+00 1.833456e+03 -6.124253e+04 0.000000e+00 0.000000e+00 0.000000e+00 0.000000e+00
-8.200695e+04 -3.376070e+01 0.000000e+00 -3.376070e+01 -6.035697e+04 0.000000e+00 0.000000e+00 0.000000e+00 0.000000e+00
-7.911646e+04 -1.236597e+03 0.000000e+00 -1.236597e+03 -5.991444e+04 0.000000e+00 0.000000e+00 0.000000e+00 0.000000e+00
-7.513347e+04 -1.323622e+03 0.000000e+00 -1.323622e+03 -5.985591e+04 0.000000e+00 0.000000e+00 0.000000e+00 0.000000e+00
-7.192170e+04 -9.665162e+02 0.000000e+00 -9.665162e+02 -5.950925e+04 0.000000e+00 0.000000e+00 0.000000e+00 0.000000e+00
-6.597695e+04 1.072008e+04 0.000000e+00 1.072008e+04 -6.625948e+04 0.000000e+00 0.000000e+00 0.000000e+00 0.000000e+00
-7.131365e+04 1.013221e+04 0.000000e+00 1.013221e+04 -6.632045e+04 0.000000e+00 0.000000e+00 0.000000e+00 0.000000e+00
-7.647360e+04 8.352511e+03 0.000000e+00 8.352511e+03 -6.477066e+04 0.000000e+00 0.000000e+00 0.000000e+00 0.000000e+00
-7.978287e+04 6.497228e+03 0.000000e+00 6.497228e+03 -6.343875e+04 0.000000e+00 0.000000e+00 0.000000e+00 0.000000e+00
-8.160312e+04 4.576735e+03 0.000000e+00 4.576735e+03 -6.220913e+04 0.000000e+00 0.000000e+00 0.000000e+00 0.000000e+00
-8.217864e+04 2.636523e+03 0.000000e+00 2.636523e+03 -6.114416e+04 0.000000e+00 0.000000e+00 0.000000e+00 0.000000e+00
-8.174923e+04 8.575652e+02 0.000000e+00 8.575652e+02 -6.034112e+04 0.000000e+00 0.000000e+00 0.000000e+00 0.000000e+00
-8.046123e+04 -5.429975e+02 0.000000e+00 -5.429975e+02 -5.988172e+04 0.000000e+00 0.000000e+00 0.000000e+00 0.000000e+00
-7.846388e+04 -1.313573e+03 0.000000e+00 -1.313573e+03 -5.974286e+04 0.000000e+00 0.000000e+00 0.000000e+00 0.000000e+00
-7.585780e+04 -1.171940e+03 0.000000e+00 -1.171940e+03 -5.982530e+04 0.000000e+00 0.000000e+00 0.000000e+00 0.000000e+00
-7.388042e+04 -7.849957e+02 0.000000e+00 -7.849957e+02 -5.965336e+04 0.000000e+00 0.000000e+00 0.000000e+00 0.000000e+00
-6.487045e+04 8.927021e+03 0.000000e+00 8.927021e+03 -6.494305e+04 0.000000e+00 0.000000e+00 0.000000e+00 0.000000e+00
-6.964141e+04 8.392763e+03 0.000000e+00 8.392763e+03 -6.483243e+04 0.000000e+00 0.000000e+00 0.000000e+00 0.000000e+00
-7.456098e+04 6.847542e+03 0.000000e+00 6.847542e+03 -6.334360e+04 0.000000e+00 0.000000e+00 0.000000e+00 0.000000e+00
-7.775666e+04 5.148769e+03 0.000000e+00 5.148769e+03 -6.212866e+04 0.000000e+00 0.000000e+00 0.000000e+00 0.000000e+00
-7.954683e+04 3.402902e+03 0.000000e+00 3.402902e+03 -6.108899e+04 0.000000e+00 0.000000e+00 0.000000e+00 0.000000e+00
-8.024265e+04 1.743667e+03 0.000000e+00 1.743667e+03 -6.030757e+04 0.000000e+00 0.000000e+00 0.000000e+00 0.000000e+00
-8.012601e+04 3.205273e+02 0.000000e+00 3.205273e+02 -5.982476e+04 0.000000e+00 0.000000e+00 0.000000e+00 0.000000e+00
-7.937402e+04 -7.171826e+02 0.000000e+00 -7.171826e+02 -5.962626e+04 0.000000e+00 0.000000e+00 0.000000e+00 0.000000e+00
-7.814447e+04 -1.210634e+03 0.000000e+00 -1.210634e+03 -5.966268e+04 0.000000e+00 0.000000e+00 0.000000e+00 0.000000e+00
-7.660116e+04 -9.797758e+02 0.000000e+00 -9.797758e+02 -5.981605e+04 0.000000e+00 0.000000e+00 0.000000e+00 0.000000e+00
-7.550019e+04 -6.151406e+02 0.000000e+00 -6.151406e+02 -5.977086e+04 0.000000e+00 0.000000e+00 0.000000e+00 0.000000e+00
-6.407787e+04 7.080611e+03 0.000000e+00 7.080611e+03 -6.413923e+04 0.000000e+00 0.000000e+00 0.000000e+00 0.000000e+00
-6.827141e+04 6.633819e+03 0.000000e+00 6.633819e+03 -6.390465e+04 0.000000e+00 0.000000e+00 0.000000e+00 0.000000e+00
-7.287702e+04 5.383313e+03 0.000000e+00 5.383313e+03 -6.245346e+04 0.000000e+00 0.000000e+00 0.000000e+00 0.000000e+00
-7.596159e+04 3.931896e+03 0.000000e+00 3.931896e+03 -6.129421e+04 0.000000e+00 0.000000e+00 0.000000e+00 0.000000e+00
-7.779284e+04 2.477583e+03 0.000000e+00 2.477583e+03 -6.041584e+04 0.000000e+00 0.000000e+00 0.000000e+00 0.000000e+00
-7.868505e+04 1.148619e+03 0.000000e+00 1.148619e+03 -5.983361e+04 0.000000e+00 0.000000e+00 0.000000e+00 0.000000e+00
-7.889246e+04 5.551628e+01 0.000000e+00 5.551628e+01 -5.954711e+04 0.000000e+00 0.000000e+00 0.000000e+00 0.000000e+00
-7.861528e+04 -6.967684e+02 0.000000e+00 -6.967684e+02 -5.950491e+04 0.000000e+00 0.000000e+00 0.000000e+00 0.000000e+00
-7.800930e+04 -1.009569e+03 0.000000e+00 -1.009569e+03 -5.963576e+04 0.000000e+00 0.000000e+00 0.000000e+00 0.000000e+00
-7.726459e+04 -7.698168e+02 0.000000e+00 -7.698168e+02 -5.982121e+04 0.000000e+00 0.000000e+00 0.000000e+00 0.000000e+00
-7.678291e+04 -4.622498e+02 0.000000e+00 -4.622498e+02 -5.986452e+04 0.000000e+00 0.000000e+00 0.000000e+00 0.000000e+00
-6.352949e+04 5.230432e+03 0.000000e+00 5.230432e+03 -6.365716e+04 0.000000e+00 0.000000e+00 0.000000e+00 0.000000e+00
-6.722488e+04 4.890126e+03 0.000000e+00 4.890126e+03 -6.334354e+04 0.000000e+00 0.000000e+00 0.000000e+00 0.000000e+00
-7.149010e+04 3.940141e+03 0.000000e+00 3.940141e+03 -6.193161e+04 0.000000e+00 0.000000e+00 0.000000e+00 0.000000e+00
-7.450091e+04 2.824569e+03 0.000000e+00 2.824569e+03 -6.082374e+04 0.000000e+00 0.000000e+00 0.000000e+00 0.000000e+00
-7.640476e+04 1.725096e+03 0.000000e+00 1.725096e+03 -6.004623e+04 0.000000e+00 0.000000e+00 0.000000e+00 0.000000e+00
-7.749154e+04 7.401038e+02 0.000000e+00 7.401038e+02 -5.958346e+04 0.000000e+00 0.000000e+00 0.000000e+00 0.000000e+00
-7.798774e+04 -4.853342e+01 0.000000e+00 -4.853342e+01 -5.941071e+04 0.000000e+00 0.000000e+00 0.000000e+00 0.000000e+00
-7.809586e+04 -5.723597e+02 0.000000e+00 -5.723597e+02 -5.945612e+04 0.000000e+00 0.000000e+00 0.000000e+00 0.000000e+00
-7.797164e+04 -7.624949e+02 0.000000e+00 -7.624949e+02 -5.963831e+04 0.000000e+00 0.000000e+00 0.000000e+00 0.000000e+00
-7.779596e+04 -5.609799e+02 0.000000e+00 -5.609799e+02 -5.983338e+04 0.000000e+00 0.000000e+00 0.000000e+00 0.000000e+00
-7.774605e+04 -3.283817e+02 0.000000e+00 -3.283817e+02 -5.993334e+04 0.000000e+00 0.000000e+00 0.000000e+00 0.000000e+00
-6.312644e+04 3.398107e+03 0.000000e+00 3.398107e+03 -6.337162e+04 0.000000e+00 0.000000e+00 0.000000e+00 0.000000e+00
-6.647926e+04 3.160675e+03 0.000000e+00 3.160675e+03 -6.298790e+04 0.000000e+00 0.000000e+00 0.000000e+00 0.000000e+00
-7.048624e+04 2.531834e+03 0.000000e+00 2.531834e+03 -6.161245e+04 0.000000e+00 0.000000e+00 0.000000e+00 0.000000e+00
-7.344743e+04 1.800817e+03 0.000000e+00 1.800817e+03 -6.056792e+04 0.000000e+00 0.000000e+00 0.000000e+00 0.000000e+00
-7.542040e+04 1.080136e+03 0.000000e+00 1.080136e+03 -5.986920e+04 0.000000e+00 0.000000e+00 0.000000e+00 0.000000e+00
-7.665518e+04 4.400685e+02 0.000000e+00 4.400685e+02 -5.948657e+04 0.000000e+00 0.000000e+00 0.000000e+00 0.000000e+00
-7.737140e+04 -6.476337e+01 0.000000e+00 -6.476337e+01 -5.937259e+04 0.000000e+00 0.000000e+00 0.000000e+00 0.000000e+00
-7.776159e+04 -3.931515e+02 0.000000e+00 -3.931515e+02 -5.945708e+04 0.000000e+00 0.000000e+00 0.000000e+00 0.000000e+00
-7.797508e+04 -5.028290e+02 0.000000e+00 -5.028290e+02 -5.965448e+04 0.000000e+00 0.000000e+00 0.000000e+00 0.000000e+00
-7.817617e+04 -3.626935e+02 0.000000e+00 -3.626935e+02 -5.984846e+04 0.000000e+00 0.000000e+00 0.000000e+00 0.000000e+00
-7.841010e+04 -2.099846e+02 0.000000e+00 -2.099846e+02 -5.997726e+04 0.000000e+00 0.000000e+00 0.000000e+00 0.000000e+00
-6.286747e+04 1.546619e+03 0.000000e+00 1.546619e+03 -6.302566e+04 0.000000e+00 0.000000e+00 0.000000e+00 0.000000e+00
-6.606338e+04 1.478600e+03 0.000000e+00 1.478600e+03 -6.265627e+04 0.000000e+00 0.000000e+00 0.000000e+00 0.000000e+00
-6.990980e+04 1.208082e+03 0.000000e+00 1.208082e+03 -6.137504e+04 0.000000e+00 0.000000e+00 0.000000e+00 0.000000e+00
-7.282499e+04 8.653347e+02 0.000000e+00 8.653347e+02 -6.042251e+04 0.000000e+00 0.000000e+00 0.000000e+00 0.000000e+00
-7.484058e+04 5.186193e+02 0.000000e+00 5.186193e+02 -5.979296e+04 0.000000e+00 0.000000e+00 0.000000e+00 0.000000e+00
-7.616799e+04 2.029769e+02 0.000000e+00 2.029769e+02 -5.946207e+04 0.000000e+00 0.000000e+00 0.000000e+00 0.000000e+00
-7.701821e+04 -3.942122e+01 0.000000e+00 -3.942122e+01 -5.937908e+04 0.000000e+00 0.000000e+00 0.000000e+00 0.000000e+00
-7.757470e+04 -1.962370e+02 0.000000e+00 -1.962370e+02 -5.947846e+04 0.000000e+00 0.000000e+00 0.000000e+00 0.000000e+00
-7.798438e+04 -2.467494e+02 0.000000e+00 -2.467494e+02 -5.967164e+04 0.000000e+00 0.000000e+00 0.000000e+00 0.000000e+00
-7.840176e+04 -1.773943e+02 0.000000e+00 -1.773943e+02 -5.985763e+04 0.000000e+00 0.000000e+00 0.000000e+00 0.000000e+00
-7.879238e+04 -1.029430e+02 0.000000e+00 -1.029430e+02 -6.000860e+04 0.000000e+00 0.000000e+00 0.000000e+00 0.000000e+00
-6.266958e+04 2.833732e+02 0.000000e+00 2.833732e+02 -6.258914e+04 0.000000e+00 0.000000e+00 0.000000e+00 0.000000e+00
-6.589764e+04 3.602357e+02 0.000000e+00 3.602357e+02 -6.235629e+04 0.000000e+00 0.000000e+00 0.000000e+00 0.000000e+00
-6.972609e+04 3.357567e+02 0.000000e+00 3.357567e+02 -6.125862e+04 0.000000e+00 0.000000e+00 0.000000e+00 0.000000e+00
-7.262020e+04 2.381586e+02 0.000000e+00 2.381586e+02 -6.037693e+04 0.000000e+00 0.000000e+00 0.000000e+00 0.000000e+00
-7.465241e+04 1.235348e+02 0.000000e+00 1.235348e+02 -5.977509e+04 0.000000e+00 0.000000e+00 0.000000e+00 0.000000e+00
-7.600934e+04 9.205901e+00 0.000000e+00 9.205901e+00 -5.946365e+04 0.000000e+00 0.000000e+00 0.000000e+00 0.000000e+00
-7.690516e+04 -7.375794e+01 0.000000e+00 -7.375794e+01 -5.939260e+04 0.000000e+00 0.000000e+00 0.000000e+00 0.000000e+00
-7.751607e+04 -1.287309e+02 0.000000e+00 -1.287309e+02 -5.949081e+04 0.000000e+00 0.000000e+00 0.000000e+00 0.000000e+00
-7.798858e+04 -1.483553e+02 0.000000e+00 -1.483553e+02 -5.967675e+04 0.000000e+00 0.000000e+00 0.000000e+00 0.000000e+00
-7.847558e+04 -1.267381e+02 0.000000e+00 -1.267381e+02 -5.985570e+04 0.000000e+00 0.000000e+00 0.000000e+00 0.000000e+00
-7.891415e+04 -9.984888e+01 0.000000e+00 -9.984888e+01 -6.001933e+04 0.000000e+00 0.000000e+00 0.000000e+00 0.000000e+00
</DataArray>
<DataArray Name="vol_eps" type="Float64" NumberOfComponents="1" format="ascii">
-8.856635e-03
-7.913902e-03
-7.625353e-03
-7.560555e-03
-7.818406e-03
-8.360459e-03
-9.292554e-03
-1.048554e-02
-1.188465e-02
-1.347649e-02
-1.414112e-02
-8.199316e-03
-7.354243e-03
-7.125908e-03
-7.102285e-03
-7.331311e-03
-7.839601e-03
-8.681204e-03
-9.676581e-03
-1.103226e-02
-1.265682e-02
-1.526377e-02
-6.700434e-03
-6.074869e-03
-5.949618e-03
-6.026012e-03
-6.173900e-03
-6.399357e-03
-6.749965e-03
-7.251448e-03
-8.003083e-03
-9.460499e-03
-1.262170e-02
-5.170960e-03
-4.821415e-03
-4.715339e-03
-4.589432e-03
-4.305270e-03
-3.780144e-03
-3.074211e-03
-2.211607e-03
-8.796987e-04
1.407720e-03
3.741637e-03
-4.026650e-03
-3.999888e-03
-4.131459e-03
-4.233345e-03
-4.287438e-03
-4.237731e-03
-4.057685e-03
-3.771115e-03
-3.263223e-03
-2.396578e-03
-2.449592e-04
-3.064507e-03
-3.270710e-03
-3.472742e-03
-3.579809e-03
-3.603162e-03
-3.526268e-03
-3.324019e-03
-2.991084e-03
-2.470694e-03
-1.426269e-03
-2.897367e-06
-2.274813e-03
-2.645085e-03
-2.891580e-03
-3.000742e-03
-3.008637e-03
-2.917651e-03
-2.713084e-03
-2.383188e-03
-1.860760e-03
-1.044489e-03
-1.835088e-04
-1.677497e-03
-2.123788e-03
-2.393892e-03
-2.506156e-03
-2.515294e-03
-2.430239e-03
-2.240735e-03
-1.934107e-03
-1.502343e-03
-9.258757e-04
-3.818698e-04
-1.230306e-03
-1.695727e-03
-1.973826e-03
-2.095605e-03
-2.114838e-03
-2.040199e-03
-1.874243e-03
-1.626265e-03
-1.306551e-03
-9.144114e-04
-5.620355e-04
-9.159401e-04
-1.354909e-03
-1.628133e-03
-1.758387e-03
-1.788053e-03
-1.730694e-03
-1.603056e-03
-1.423373e-03
-1.202452e-03
-9.432604e-04
-7.182332e-04
-7.075516e-04
-1.092546e-03
-1.350090e-03
-1.482502e-03
-1.521387e-03
-1.488750e-03
-1.405817e-03
-1.289217e-03
-1.147864e-03
-9.868853e-04
-8.511415e-04
-5.733875e-04
-8.977085e-04
-1.132733e-03
-1.262005e-03
-1.310846e-03
-1.304597e-03
-1.263628e-03
-1.200303e-03
-1.121221e-03
-1.033121e-03
-9.607091e-04
-4.911419e-04
-7.602046e-04
-9.682261e-04
-1.090135e-03
-1.150030e-03
-1.169259e-03
-1.163309e-03
-1.141718e-03
-1.110251e-03
-1.074911e-03
-1.047289e-03
-4.444328e-04
-6.680299e-04
-8.487265e-04
-9.657327e-04
-1.034672e-03
-1.073039e-03
-1.093636e-03
-1.103915e-03
-1.107721e-03
-1.109218e-03
-1.112711e-03
-4.141473e-04
-6.048880e-04
-7.685022e-04
-8.838227e-04
-9.607357e-04
-1.012707e-03
-1.050593e-03
-1.081856e-03
-1.108834e-03
-1.134967e-03
-1.159028e-03
-3.822998e-04
-5.619386e-04
-7.195396e-04
-8.364135e-04
-9.199996e-04
-9.808417e-04
-1.028483e-03
-1.070732e-03
-1.110411e-03
-1.150579e-03
-1.186773e-03
-3.435946e-04
-5.334138e-04
-7.011009e-04
-8.214690e-04
-9.076376e-04
-9.714768e-04
-1.022442e-03
-1.067722e-03
-1.110923e-03
-1.155395e-03
-1.195815e-03
</DataArray>
</PointData>
</Piece>
</UnstructuredGrid>
</VTKFile>
