<?xml version="1.0"?>
<VTKFile type="UnstructuredGrid" version="0.1">
<UnstructuredGrid>
<FieldData>
<DataArray Name="TIME" type="Float64" format="ascii" NumberOfTuples="1">
0.000000e+00
</DataArray>
</FieldData>
<FieldData>
<DataArray Name="CYCLE" type="Int32" format="ascii" NumberOfTuples="1">
0
</DataArray>
</FieldData>
<Piece NumberOfPoints="187" NumberOfCells="160">
<Points>
<DataArray NumberOfComponents="3" type="Float64" format="ascii">
0.000000e+00 0.000000e+00 0.000000e+00
0.000000e+00 1.992576e-01 0.000000e+00
0.000000e+00 3.983366e-01 0.000000e+00
0.000000e+00 5.972246e-01 0.000000e+00
0.000000e+00 7.959023e-01 0.000000e+00
0.000000e+00 9.943752e-01 0.000000e+00
0.000000e+00 1.192679e+00 0.000000e+00
0.000000e+00 1.390902e+00 0.000000e+00
0.000000e+00 1.589210e+00 0.000000e+00
0.000000e+00 1.787794e+00 0.000000e+00
0.000000e+00 1.986500e+00 0.000000e+00
2.250000e-01 0.000000e+00 0.000000e+00
2.252240e-01 1.992918e-01 0.000000e+00
2.254288e-01 3.984188e-01 0.000000e+00
2.256261e-01 5.973752e-01 0.000000e+00
2.258054e-01 7.961515e-01 0.000000e+00
2.259420e-01 9.947453e-01 0.000000e+00
2.259934e-01 1.193157e+00 0.000000e+00
2.258917e-01 1.391423e+00 0.000000e+00
2.255673e-01 1.589633e+00 0.000000e+00
2.251219e-01 1.787905e+00 0.000000e+00
2.250000e-01 1.986500e+00 0.000000e+00
4.500000e-01 0.000000e+00 0.000000e+00
4.504117e-01 1.993583e-01 0.000000e+00
4.507794e-01 3.986041e-01 0.000000e+00
4.511157e-01 5.977370e-01 0.000000e+00
4.514209e-01 7.967584e-01 0.000000e+00
4.516730e-01 9.956587e-01 0.000000e+00
4.518271e-01 1.194417e+00 0.000000e+00
4.517977e-01 1.392980e+00 0.000000e+00
4.514948e-01 1.591240e+00 0.000000e+00
4.509750e-01 1.789049e+00 0.000000e+00
4.500000e-01 1.986500e+00 0.000000e+00
6.750000e-01 0.000000e+00 0.000000e+00
6.755433e-01 1.994484e-01 0.000000e+00
6.760013e-01 3.988402e-01 0.000000e+00
6.764019e-01 5.981900e-01 0.000000e+00
6.767477e-01 7.975147e-01 0.000000e+00
6.770272e-01 9.968393e-01 0.000000e+00
6.772142e-01 1.196189e+00 0.000000e+00
6.772492e-01 1.395606e+00 0.000000e+00
6.770772e-01 1.595155e+00 0.000000e+00
6.766919e-01 1.794971e+00 0.000000e+00
6.749801e-01 1.995355e+00 0.000000e+00
9.000000e-01 0.000000e+00 0.000000e+00
9.006116e-01 1.995545e-01 0.000000e+00
9.010962e-01 3.990963e-01 0.000000e+00
9.014944e-01 5.986422e-01 0.000000e+00
9.018135e-01 7.982106e-01 0.000000e+00
9.020442e-01 9.978216e-01 0.000000e+00
9.021588e-01 1.197499e+00 0.000000e+00
9.021075e-01 1.397268e+00 0.000000e+00
9.018400e-01 1.597151e+00 0.000000e+00
9.011783e-01 1.797182e+00 0.000000e+00
8.999770e-01 1.997125e+00 0.000000e+00
1.125000e+00 0.000000e+00 0.000000e+00
1.125621e+00 1.996600e-01 0.000000e+00
1.126093e+00 3.993351e-01 0.000000e+00
1.126459e+00 5.990340e-01 0.000000e+00
1.126733e+00 7.987694e-01 0.000000e+00
1.126906e+00 9.985538e-01 0.000000e+00
1.126956e+00 1.198401e+00 0.000000e+00
1.126848e+00 1.398318e+00 0.000000e+00
1.126531e+00 1.598309e+00 0.000000e+00
1.125953e+00 1.798335e+00 0.000000e+00
1.125165e+00 1.998336e+00 0.000000e+00
1.350000e+00 0.000000e+00 0.000000e+00
1.350585e+00 1.997498e-01 0.000000e+00
1.351023e+00 3.995286e-01 0.000000e+00
1.351351e+00 5.993387e-01 0.000000e+00
1.351581e+00 7.991865e-01 0.000000e+00
1.351707e+00 9.990792e-01 0.000000e+00
1.351714e+00 1.199021e+00 0.000000e+00
1.351583e+00 1.399012e+00 0.000000e+00
1.351289e+00 1.599039e+00 0.000000e+00
1.350838e+00 1.799074e+00 0.000000e+00
1.350314e+00 1.999062e+00 0.000000e+00
1.575000e+00 0.000000e+00 0.000000e+00
1.575525e+00 1.998215e-01 0.000000e+00
1.575917e+00 3.996781e-01 0.000000e+00
1.576205e+00 5.995671e-01 0.000000e+00
1.576396e+00 7.994902e-01 0.000000e+00
1.576488e+00 9.994496e-01 0.000000e+00
1.576474e+00 1.199445e+00 0.000000e+00
1.576345e+00 1.399471e+00 0.000000e+00
1.576100e+00 1.599513e+00 0.000000e+00
1.575769e+00 1.799544e+00 0.000000e+00
1.575421e+00 1.999539e+00 0.000000e+00
1.800000e+00 0.000000e+00 0.000000e+00
1.800453e+00 1.998751e-01 0.000000e+00
1.800795e+00 3.997864e-01 0.000000e+00
1.801043e+00 5.997287e-01 0.000000e+00
1.801203e+00 7.997012e-01 0.000000e+00
1.801272e+00 9.997021e-01 0.000000e+00
1.801250e+00 1.199728e+00 0.000000e+00
1.801138e+00 1.399771e+00 0.000000e+00
1.800948e+00 1.599817e+00 0.000000e+00
1.800712e+00 1.799847e+00 0.000000e+00
1.800484e+00 1.999849e+00 0.000000e+00
2.025000e+00 0.000000e+00 0.000000e+00
2.025379e+00 1.999133e-01 0.000000e+00
2.025670e+00 3.998619e-01 0.000000e+00
2.025881e+00 5.998402e-01 0.000000e+00
2.026013e+00 7.998439e-01 0.000000e+00
2.026068e+00 9.998696e-01 0.000000e+00
2.026047e+00 1.199912e+00 0.000000e+00
2.025958e+00 1.399962e+00 0.000000e+00
2.025817e+00 1.600008e+00 0.000000e+00
2.025652e+00 1.800038e+00 0.000000e+00
2.025508e+00 2.000048e+00 0.000000e+00
2.250000e+00 0.000000e+00 0.000000e+00
2.250309e+00 1.999399e-01 0.000000e+00
2.250550e+00 3.999137e-01 0.000000e+00
2.250725e+00 5.999141e-01 0.000000e+00
2.250834e+00 7.999367e-01 0.000000e+00
2.250879e+00 9.999765e-01 0.000000e+00
2.250863e+00 1.200027e+00 0.000000e+00
2.250796e+00 1.400079e+00 0.000000e+00
2.250696e+00 1.600125e+00 0.000000e+00
2.250585e+00 1.800157e+00 0.000000e+00
2.250497e+00 2.000173e+00 0.000000e+00
2.475000e+00 0.000000e+00 0.000000e+00
2.475245e+00 1.999584e-01 0.000000e+00
2.475440e+00 3.999474e-01 0.000000e+00
2.475581e+00 5.999615e-01 0.000000e+00
2.475669e+00 7.999951e-01 0.000000e+00
2.475705e+00 1.000042e+00 0.000000e+00
2.475695e+00 1.200096e+00 0.000000e+00
2.475649e+00 1.400149e+00 0.000000e+00
2.475580e+00 1.600194e+00 0.000000e+00
2.475508e+00 1.800228e+00 0.000000e+00
2.475458e+00 2.000249e+00 0.000000e+00
2.700000e+00 0.000000e+00 0.000000e+00
2.700188e+00 1.999707e-01 0.000000e+00
2.700339e+00 3.999701e-01 0.000000e+00
2.700449e+00 5.999923e-01 0.000000e+00
2.700517e+00 8.000318e-01 0.000000e+00
2.700547e+00 1.000082e+00 0.000000e+00
2.700541e+00 1.200136e+00 0.000000e+00
2.700511e+00 1.400188e+00 0.000000e+00
2.700465e+00 1.600234e+00 0.000000e+00
2.700421e+00 1.800269e+00 0.000000e+00
2.700395e+00 2.000296e+00 0.000000e+00
2.925000e+00 0.000000e+00 0.000000e+00
2.925138e+00 1.999805e-01 0.000000e+00
2.925248e+00 3.999862e-01 0.000000e+00
2.925328e+00 6.000133e-01 0.000000e+00
2.925378e+00 8.000557e-01 0.000000e+00
2.925400e+00 1.000107e+00 0.000000e+00
2.925398e+00 1.200161e+00 0.000000e+00
2.925379e+00 1.400213e+00 0.000000e+00
2.925351e+00 1.600258e+00 0.000000e+00
2.925324e+00 1.800295e+00 0.000000e+00
2.925313e+00 2.000326e+00 0.000000e+00
3.150000e+00 0.000000e+00 0.000000e+00
3.150091e+00 1.999877e-01 0.000000e+00
3.150163e+00 3.999988e-01 0.000000e+00
3.150215e+00 6.000301e-01 0.000000e+00
3.150247e+00 8.000748e-01 0.000000e+00
3.150262e+00 1.000127e+00 0.000000e+00
3.150262e+00 1.200181e+00 0.000000e+00
3.150251e+00 1.400232e+00 0.000000e+00
3.150235e+00 1.600277e+00 0.000000e+00
3.150221e+00 1.800316e+00 0.000000e+00
3.150217e+00 2.000350e+00 0.000000e+00
3.375000e+00 0.000000e+00 0.000000e+00
3.375047e+00 1.999944e-01 0.000000e+00
3.375082e+00 4.000126e-01 0.000000e+00
3.375107e+00 6.000480e-01 0.000000e+00
3.375122e+00 8.000947e-01 0.000000e+00
3.375130e+00 1.000147e+00 0.000000e+00
3.375130e+00 1.200201e+00 0.000000e+00
3.375125e+00 1.400252e+00 0.000000e+00
3.375118e+00 1.600297e+00 0.000000e+00
3.375112e+00 1.800337e+00 0.000000e+00
3.375111e+00 2.000372e+00 0.000000e+00
3.600000e+00 0.000000e+00 0.000000e+00
3.600000e+00 2.000107e-01 0.000000e+00
3.600000e+00 4.000345e-01 0.000000e+00
3.600000e+00 6.000719e-01 0.000000e+00
3.600000e+00 8.001193e-01 0.000000e+00
3.600000e+00 1.000172e+00 0.000000e+00
3.600000e+00 1.200226e+00 0.000000e+00
3.600000e+00 1.400276e+00 0.000000e+00
3.600000e+00 1.600322e+00 0.000000e+00
3.600000e+00 1.800362e+00 0.000000e+00
3.600000e+00 2.000398e+00 0.000000e+00
</DataArray>
</Points>
<Cells>
<DataArray Name="connectivity" type="Int32" format="ascii">
0 11 12 1
1 12 13 2
2 13 14 3
3 14 15 4
4 15 16 5
5 16 17 6
6 17 18 7
7 18 19 8
8 19 20 9
9 20 21 10
11 22 23 12
12 23 24 13
13 24 25 14
14 25 26 15
15 26 27 16
16 27 28 17
17 28 29 18
18 29 30 19
19 30 31 20
20 31 32 21
22 33 34 23
23 34 35 24
24 35 36 25
25 36 37 26
26 37 38 27
27 38 39 28
28 39 40 29
29 40 41 30
30 41 42 31
31 42 43 32
33 44 45 34
34 45 46 35
35 46 47 36
36 47 48 37
37 48 49 38
38 49 50 39
39 50 51 40
40 51 52 41
41 52 53 42
42 53 54 43
44 55 56 45
45 56 57 46
46 57 58 47
47 58 59 48
48 59 60 49
49 60 61 50
50 61 62 51
51 62 63 52
52 63 64 53
53 64 65 54
55 66 67 56
56 67 68 57
57 68 69 58
58 69 70 59
59 70 71 60
60 71 72 61
61 72 73 62
62 73 74 63
63 74 75 64
64 75 76 65
66 77 78 67
67 78 79 68
68 79 80 69
69 80 81 70
70 81 82 71
71 82 83 72
72 83 84 73
73 84 85 74
74 85 86 75
75 86 87 76
77 88 89 78
78 89 90 79
79 90 91 80
80 91 92 81
81 92 93 82
82 93 94 83
83 94 95 84
84 95 96 85
85 96 97 86
86 97 98 87
88 99 100 89
89 100 101 90
90 101 102 91
91 102 103 92
92 103 104 93
93 104 105 94
94 105 106 95
95 106 107 96
96 107 108 97
97 108 109 98
99 110 111 100
100 111 112 101
101 112 113 102
102 113 114 103
103 114 115 104
104 115 116 105
105 116 117 106
106 117 118 107
107 118 119 108
108 119 120 109
110 121 122 111
111 122 123 112
112 123 124 113
113 124 125 114
114 125 126 115
115 126 127 116
116 127 128 117
117 128 129 118
118 129 130 119
119 130 131 120
121 132 133 122
122 133 134 123
123 134 135 124
124 135 136 125
125 136 137 126
126 137 138 127
127 138 139 128
128 139 140 129
129 140 141 130
130 141 142 131
132 143 144 133
133 144 145 134
134 145 146 135
135 146 147 136
136 147 148 137
137 148 149 138
138 149 150 139
139 150 151 140
140 151 152 141
141 152 153 142
143 154 155 144
144 155 156 145
145 156 157 146
146 157 158 147
147 158 159 148
148 159 160 149
149 160 161 150
150 161 162 151
151 162 163 152
152 163 164 153
154 165 166 155
155 166 167 156
156 167 168 157
157 168 169 158
158 169 170 159
159 170 171 160
160 171 172 161
161 172 173 162
162 173 174 163
163 174 175 164
165 176 177 166
166 177 178 167
167 178 179 168
168 179 180 169
169 180 181 170
170 181 182 171
171 182 183 172
172 183 184 173
173 184 185 174
174 185 186 175
</DataArray>
<DataArray Name="offsets" type="Int32" format="ascii">
4
8
12
16
20
24
28
32
36
40
44
48
52
56
60
64
68
72
76
80
84
88
92
96
100
104
108
112
116
120
124
128
132
136
140
144
148
152
156
160
164
168
172
176
180
184
188
192
196
200
204
208
212
216
220
224
228
232
236
240
244
248
252
256
260
264
268
272
276
280
284
288
292
296
300
304
308
312
316
320
324
328
332
336
340
344
348
352
356
360
364
368
372
376
380
384
388
392
396
400
404
408
412
416
420
424
428
432
436
440
444
448
452
456
460
464
468
472
476
480
484
488
492
496
500
504
508
512
516
520
524
528
532
536
540
544
548
552
556
560
564
568
572
576
580
584
588
592
596
600
604
608
612
616
620
624
628
632
636
640
</DataArray>
<DataArray Name="types" type="UInt8" format="ascii">
9
9
9
9
9
9
9
9
9
9
9
9
9
9
9
9
9
9
9
9
9
9
9
9
9
9
9
9
9
9
9
9
9
9
9
9
9
9
9
9
9
9
9
9
9
9
9
9
9
9
9
9
9
9
9
9
9
9
9
9
9
9
9
9
9
9
9
9
9
9
9
9
9
9
9
9
9
9
9
9
9
9
9
9
9
9
9
9
9
9
9
9
9
9
9
9
9
9
9
9
9
9
9
9
9
9
9
9
9
9
9
9
9
9
9
9
9
9
9
9
9
9
9
9
9
9
9
9
9
9
9
9
9
9
9
9
9
9
9
9
9
9
9
9
9
9
9
9
9
9
9
9
9
9
9
9
9
9
9
9
</DataArray>
</Cells>
<PointData>
<DataArray Name="disp" type="Float64" NumberOfComponents="3" format="ascii">
0.000000e+00 0.000000e+00 0.000000e+00
0.000000e+00 -7.423869e-04 0.000000e+00
0.000000e+00 -1.663411e-03 0.000000e+00
0.000000e+00 -2.775425e-03 0.000000e+00
0.000000e+00 -4.097765e-03 0.000000e+00
0.000000e+00 -5.624778e-03 0.000000e+00
0.000000e+00 -7.321234e-03 0.000000e+00
0.000000e+00 -9.098144e-03 0.000000e+00
0.000000e+00 -1.078994e-02 0.000000e+00
0.000000e+00 -1.220579e-02 0.000000e+00
0.000000e+00 -1.350000e-02 0.000000e+00
0.000000e+00 0.000000e+00 0.000000e+00
2.240442e-04 -7.081924e-04 0.000000e+00
4.287772e-04 -1.581213e-03 0.000000e+00
6.261258e-04 -2.624837e-03 0.000000e+00
8.054439e-04 -3.848486e-03 0.000000e+00
9.419933e-04 -5.254766e-03 0.000000e+00
9.934241e-04 -6.842779e-03 0.000000e+00
8.917017e-04 -8.576781e-03 0.000000e+00
5.673227e-04 -1.036715e-02 0.000000e+00
1.219411e-04 -1.209499e-02 0.000000e+00
0.000000e+00 -1.350000e-02 0.000000e+00
0.000000e+00 0.000000e+00 0.000000e+00
4.117188e-04 -6.417166e-04 0.000000e+00
7.794133e-04 -1.395884e-03 0.000000e+00
1.115691e-03 -2.262989e-03 0.000000e+00
1.420919e-03 -3.241592e-03 0.000000e+00
1.673039e-03 -4.341333e-03 0.000000e+00
1.827091e-03 -5.583422e-03 0.000000e+00
1.797686e-03 -7.019947e-03 0.000000e+00
1.494840e-03 -8.760108e-03 0.000000e+00
9.749676e-04 -1.095095e-02 0.000000e+00
0.000000e+00 -1.350000e-02 0.000000e+00
0.000000e+00 0.000000e+00 0.000000e+00
5.432998e-04 -5.515792e-04 0.000000e+00
1.001315e-03 -1.159791e-03 0.000000e+00
1.401892e-03 -1.809974e-03 0.000000e+00
1.747710e-03 -2.485269e-03 0.000000e+00
2.027246e-03 -3.160708e-03 0.000000e+00
2.214188e-03 -3.810828e-03 0.000000e+00
2.249172e-03 -4.393998e-03 0.000000e+00
2.077177e-03 -4.844819e-03 0.000000e+00
1.691915e-03 -5.029475e-03 0.000000e+00
-1.989578e-05 -4.645455e-03 0.000000e+00
0.000000e+00 0.000000e+00 0.000000e+00
6.116400e-04 -4.455471e-04 0.000000e+00
1.096151e-03 -9.037278e-04 0.000000e+00
1.494388e-03 -1.357759e-03 0.000000e+00
1.813520e-03 -1.789351e-03 0.000000e+00
2.044223e-03 -2.178438e-03 0.000000e+00
2.158810e-03 -2.501007e-03 0.000000e+00
2.107533e-03 -2.732254e-03 0.000000e+00
1.839953e-03 -2.849293e-03 0.000000e+00
1.178304e-03 -2.817668e-03 0.000000e+00
-2.305175e-05 -2.875171e-03 0.000000e+00
0.000000e+00 0.000000e+00 0.000000e+00
6.207941e-04 -3.399785e-04 0.000000e+00
1.092656e-03 -6.649469e-04 0.000000e+00
1.459538e-03 -9.659867e-04 0.000000e+00
1.732883e-03 -1.230667e-03 0.000000e+00
1.905889e-03 -1.446221e-03 0.000000e+00
1.955786e-03 -1.599213e-03 0.000000e+00
1.848077e-03 -1.681717e-03 0.000000e+00
1.531180e-03 -1.690902e-03 0.000000e+00
9.530144e-04 -1.664614e-03 0.000000e+00
1.654828e-04 -1.663817e-03 0.000000e+00
0.000000e+00 0.000000e+00 0.000000e+00
5.855170e-04 -2.502254e-04 0.000000e+00
1.023283e-03 -4.714423e-04 0.000000e+00
1.351216e-03 -6.613508e-04 0.000000e+00
1.580506e-03 -8.134609e-04 0.000000e+00
1.706459e-03 -9.207923e-04 0.000000e+00
1.714359e-03 -9.788792e-04 0.000000e+00
1.582695e-03 -9.883306e-04 0.000000e+00
1.288724e-03 -9.606416e-04 0.000000e+00
8.382880e-04 -9.264445e-04 0.000000e+00
3.142862e-04 -9.380471e-04 0.000000e+00
0.000000e+00 0.000000e+00 0.000000e+00
5.250371e-04 -1.785307e-04 0.000000e+00
9.172038e-04 -3.219497e-04 0.000000e+00
1.204479e-03 -4.329699e-04 0.000000e+00
1.395567e-03 -5.098689e-04 0.000000e+00
1.488255e-03 -5.503848e-04 0.000000e+00
1.474182e-03 -5.551119e-04 0.000000e+00
1.344944e-03 -5.289757e-04 0.000000e+00
1.100229e-03 -4.871364e-04 0.000000e+00
7.690566e-04 -4.563509e-04 0.000000e+00
4.210063e-04 -4.607598e-04 0.000000e+00
0.000000e+00 0.000000e+00 0.000000e+00
4.530601e-04 -1.249440e-04 0.000000e+00
7.950797e-04 -2.135648e-04 0.000000e+00
1.042971e-03 -2.713159e-04 0.000000e+00
1.202552e-03 -2.988640e-04 0.000000e+00
1.272385e-03 -2.979322e-04 0.000000e+00
1.250345e-03 -2.720535e-04 0.000000e+00
1.138256e-03 -2.291068e-04 0.000000e+00
9.481621e-04 -1.833683e-04 0.000000e+00
7.118272e-04 -1.533047e-04 0.000000e+00
4.842292e-04 -1.510322e-04 0.000000e+00
0.000000e+00 0.000000e+00 0.000000e+00
3.789477e-04 -8.671033e-05 0.000000e+00
6.701371e-04 -1.380760e-04 0.000000e+00
8.804917e-04 -1.597617e-04 0.000000e+00
1.013172e-03 -1.561213e-04 0.000000e+00
1.067757e-03 -1.303971e-04 0.000000e+00
1.046768e-03 -8.814919e-05 0.000000e+00
9.577527e-04 -3.802765e-05 0.000000e+00
8.167333e-04 8.056736e-06 0.000000e+00
6.525037e-04 3.850323e-05 0.000000e+00
5.076817e-04 4.770551e-05 0.000000e+00
0.000000e+00 0.000000e+00 0.000000e+00
3.087747e-04 -6.009340e-05 0.000000e+00
5.502716e-04 -8.626986e-05 0.000000e+00
7.251603e-04 -8.590686e-05 0.000000e+00
8.344812e-04 -6.337164e-05 0.000000e+00
8.785859e-04 -2.345759e-05 0.000000e+00
8.627798e-04 2.677081e-05 0.000000e+00
7.964124e-04 7.925412e-05 0.000000e+00
6.960595e-04 1.250602e-04 0.000000e+00
5.853918e-04 1.569465e-04 0.000000e+00
4.972895e-04 1.725396e-04 0.000000e+00
0.000000e+00 0.000000e+00 0.000000e+00
2.448710e-04 -4.156460e-05 0.000000e+00
4.395463e-04 -5.257959e-05 0.000000e+00
5.811763e-04 -3.856949e-05 0.000000e+00
6.689436e-04 -4.891473e-06 0.000000e+00
7.052717e-04 4.223507e-05 0.000000e+00
6.954220e-04 9.569822e-05 0.000000e+00
6.487359e-04 1.484580e-04 0.000000e+00
5.800989e-04 1.939206e-04 0.000000e+00
5.082899e-04 2.276871e-04 0.000000e+00
4.581556e-04 2.492146e-04 0.000000e+00
0.000000e+00 0.000000e+00 0.000000e+00
1.878026e-04 -2.930352e-05 0.000000e+00
3.391620e-04 -2.987731e-05 0.000000e+00
4.490638e-04 -7.665798e-06 0.000000e+00
5.172432e-04 3.176586e-05 0.000000e+00
5.464843e-04 8.189859e-05 0.000000e+00
5.414989e-04 1.361533e-04 0.000000e+00
5.104938e-04 1.883251e-04 0.000000e+00
4.654894e-04 2.336100e-04 0.000000e+00
4.209855e-04 2.693335e-04 0.000000e+00
3.953387e-04 2.959438e-04 0.000000e+00
0.000000e+00 0.000000e+00 0.000000e+00
1.375304e-04 -1.953841e-05 0.000000e+00
2.476845e-04 -1.382178e-05 0.000000e+00
3.278271e-04 1.333654e-05 0.000000e+00
3.777643e-04 5.575373e-05 0.000000e+00
3.997697e-04 1.071180e-04 0.000000e+00
3.979254e-04 1.613284e-04 0.000000e+00
3.785634e-04 2.128391e-04 0.000000e+00
3.505646e-04 2.580854e-04 0.000000e+00
3.245411e-04 2.954529e-04 0.000000e+00
3.132429e-04 3.263253e-04 0.000000e+00
0.000000e+00 0.000000e+00 0.000000e+00
9.143435e-05 -1.228891e-05 0.000000e+00
1.631576e-04 -1.246369e-06 0.000000e+00
2.148774e-04 3.005127e-05 0.000000e+00
2.472799e-04 7.480798e-05 0.000000e+00
2.618771e-04 1.268760e-04 0.000000e+00
2.615373e-04 1.807372e-04 0.000000e+00
2.505793e-04 2.318281e-04 0.000000e+00
2.345986e-04 2.770809e-04 0.000000e+00
2.206427e-04 3.157550e-04 0.000000e+00
2.167564e-04 3.497649e-04 0.000000e+00
0.000000e+00 0.000000e+00 0.000000e+00
4.754271e-05 -5.618142e-06 0.000000e+00
8.167144e-05 1.264553e-05 0.000000e+00
1.065301e-04 4.801372e-05 0.000000e+00
1.223774e-04 9.469032e-05 0.000000e+00
1.296394e-04 1.473700e-04 0.000000e+00
1.296942e-04 2.009607e-04 0.000000e+00
1.247486e-04 2.517272e-04 0.000000e+00
1.176104e-04 2.970658e-04 0.000000e+00
1.116275e-04 3.366171e-04 0.000000e+00
1.106294e-04 3.725084e-04 0.000000e+00
0.000000e+00 0.000000e+00 0.000000e+00
0.000000e+00 1.065712e-05 0.000000e+00
0.000000e+00 3.454777e-05 0.000000e+00
0.000000e+00 7.190791e-05 0.000000e+00
0.000000e+00 1.193141e-04 0.000000e+00
0.000000e+00 1.722354e-04 0.000000e+00
0.000000e+00 2.257727e-04 0.000000e+00
0.000000e+00 2.763369e-04 0.000000e+00
0.000000e+00 3.217155e-04 0.000000e+00
0.000000e+00 3.615878e-04 0.000000e+00
0.000000e+00 3.980970e-04 0.000000e+00
</DataArray>
<DataArray Name="shear" type="Float64" NumberOfComponents="1" format="ascii">
4.015486e-03
5.105268e-03
6.932667e-03
8.786676e-03
1.059644e-02
1.214529e-02
1.304475e-02
1.268216e-02
1.062600e-02
7.933940e-03
6.856843e-03
3.998595e-03
4.985011e-03
6.639267e-03
8.304329e-03
9.960614e-03
1.150748e-02
1.269533e-02
1.307892e-02
1.235108e-02
1.040694e-02
8.641001e-03
4.038181e-03
4.745893e-03
5.929017e-03
7.156220e-03
8.465397e-03
9.916629e-03
1.153777e-02
1.336171e-02
1.562817e-02
1.714923e-02
1.721814e-02
4.037429e-03
4.417353e-03
5.020442e-03
5.697250e-03
6.457453e-03
7.368224e-03
8.493068e-03
9.984394e-03
1.219692e-02
1.344401e-02
1.428752e-02
3.908759e-03
4.010279e-03
4.140782e-03
4.378606e-03
4.665713e-03
4.959508e-03
5.182600e-03
5.244530e-03
4.841974e-03
2.994853e-03
9.128450e-04
3.634133e-03
3.546525e-03
3.373916e-03
3.350222e-03
3.372350e-03
3.369329e-03
3.263028e-03
2.956367e-03
2.271066e-03
9.841962e-04
3.672213e-04
3.255942e-03
3.075213e-03
2.756821e-03
2.599498e-03
2.495744e-03
2.378432e-03
2.189205e-03
1.861207e-03
1.309254e-03
4.466733e-04
2.848562e-04
2.828319e-03
2.625354e-03
2.276732e-03
2.073016e-03
1.926561e-03
1.783284e-03
1.603945e-03
1.342184e-03
9.345857e-04
3.172496e-04
1.871664e-04
2.391791e-03
2.204692e-03
1.890484e-03
1.696854e-03
1.558671e-03
1.436653e-03
1.299569e-03
1.103334e-03
7.953722e-04
3.366111e-04
5.852680e-05
1.975468e-03
1.821986e-03
1.574270e-03
1.422520e-03
1.320815e-03
1.237457e-03
1.139406e-03
9.871718e-04
7.437795e-04
3.876415e-04
1.253057e-04
1.596456e-03
1.479653e-03
1.304603e-03
1.208184e-03
1.155789e-03
1.111493e-03
1.042559e-03
9.206083e-04
7.234337e-04
4.469127e-04
2.583333e-04
1.259103e-03
1.176174e-03
1.072197e-03
1.037325e-03
1.033966e-03
1.021801e-03
9.741801e-04
8.748734e-04
7.161709e-04
5.085647e-04
3.797640e-04
9.635657e-04
9.115954e-04
8.758736e-04
9.013527e-04
9.395877e-04
9.525135e-04
9.213050e-04
8.407992e-04
7.159177e-04
5.671386e-04
4.839847e-04
7.043530e-04
6.800855e-04
7.125768e-04
7.980533e-04
8.706041e-04
9.014103e-04
8.819330e-04
8.167673e-04
7.202611e-04
6.185452e-04
5.688140e-04
4.693608e-04
4.798173e-04
5.945726e-04
7.325104e-04
8.277076e-04
8.679674e-04
8.559989e-04
8.028696e-04
7.278068e-04
6.593277e-04
6.315129e-04
2.561404e-04
3.412912e-04
5.379136e-04
7.017255e-04
8.060719e-04
8.504431e-04
8.429289e-04
7.982681e-04
7.370436e-04
6.870470e-04
6.703977e-04
1.414660e-04
3.003178e-04
5.231031e-04
6.906898e-04
7.980390e-04
8.449944e-04
8.400222e-04
7.991311e-04
7.430948e-04
6.980782e-04
6.838647e-04
</DataArray>
<DataArray Name="stress" type="Float64" NumberOfComponents="9" format="ascii">
-7.263735e+04 1.079554e+03 0.000000e+00 1.079554e+03 -9.899062e+04 0.000000e+00 0.000000e+00 0.000000e+00 0.000000e+00
-6.887049e+04 1.235665e+03 0.000000e+00 1.235665e+03 -9.958282e+04 0.000000e+00 0.000000e+00 0.000000e+00 0.000000e+00
-6.600696e+04 1.488041e+03 0.000000e+00 1.488041e+03 -1.027492e+05 0.000000e+00 0.000000e+00 0.000000e+00 0.000000e+00
-6.505864e+04 1.924332e+03 0.000000e+00 1.924332e+03 -1.063671e+05 0.000000e+00 0.000000e+00 0.000000e+00 0.000000e+00
-6.561735e+04 2.467947e+03 0.000000e+00 2.467947e+03 -1.106652e+05 0.000000e+00 0.000000e+00 0.000000e+00 0.000000e+00
-6.726657e+04 2.981656e+03 0.000000e+00 2.981656e+03 -1.157099e+05 0.000000e+00 0.000000e+00 0.000000e+00 0.000000e+00
-6.996520e+04 3.346259e+03 0.000000e+00 3.346259e+03 -1.211979e+05 0.000000e+00 0.000000e+00 0.000000e+00 0.000000e+00
-7.375033e+04 3.211425e+03 0.000000e+00 3.211425e+03 -1.264657e+05 0.000000e+00 0.000000e+00 0.000000e+00 0.000000e+00
-7.905073e+04 2.041039e+03 0.000000e+00 2.041039e+03 -1.304417e+05 0.000000e+00 0.000000e+00 0.000000e+00 0.000000e+00
-8.634753e+04 1.306017e+02 0.000000e+00 1.306017e+02 -1.323889e+05 0.000000e+00 0.000000e+00 0.000000e+00 0.000000e+00
-8.909692e+04 -4.013593e+02 0.000000e+00 -4.013593e+02 -1.316470e+05 0.000000e+00 0.000000e+00 0.000000e+00 0.000000e+00
-7.235178e+04 3.318380e+03 0.000000e+00 3.318380e+03 -9.751214e+04 0.000000e+00 0.000000e+00 0.000000e+00 0.000000e+00
-6.885822e+04 3.376898e+03 0.000000e+00 3.376898e+03 -9.806039e+04 0.000000e+00 0.000000e+00 0.000000e+00 0.000000e+00
-6.624973e+04 3.667158e+03 0.000000e+00 3.667158e+03 -1.009493e+05 0.000000e+00 0.000000e+00 0.000000e+00 0.000000e+00
-6.544304e+04 4.330458e+03 0.000000e+00 4.330458e+03 -1.042647e+05 0.000000e+00 0.000000e+00 0.000000e+00 0.000000e+00
-6.603949e+04 5.201176e+03 0.000000e+00 5.201176e+03 -1.081534e+05 0.000000e+00 0.000000e+00 0.000000e+00 0.000000e+00
-6.771197e+04 6.101029e+03 0.000000e+00 6.101029e+03 -1.128616e+05 0.000000e+00 0.000000e+00 0.000000e+00 0.000000e+00
-7.027848e+04 6.671588e+03 0.000000e+00 6.671588e+03 -1.183816e+05 0.000000e+00 0.000000e+00 0.000000e+00 0.000000e+00
-7.365920e+04 6.344841e+03 0.000000e+00 6.344841e+03 -1.244840e+05 0.000000e+00 0.000000e+00 0.000000e+00 0.000000e+00
-7.828463e+04 4.566083e+03 0.000000e+00 4.566083e+03 -1.309681e+05 0.000000e+00 0.000000e+00 0.000000e+00 0.000000e+00
-8.426830e+04 1.574390e+03 0.000000e+00 1.574390e+03 -1.355521e+05 0.000000e+00 0.000000e+00 0.000000e+00 0.000000e+00
-9.120357e+04 -1.163619e+03 0.000000e+00 -1.163619e+03 -1.404579e+05 0.000000e+00 0.000000e+00 0.000000e+00 0.000000e+00
-7.174690e+04 6.099356e+03 0.000000e+00 6.099356e+03 -9.406789e+04 0.000000e+00 0.000000e+00 0.000000e+00 0.000000e+00
-6.890506e+04 6.164409e+03 0.000000e+00 6.164409e+03 -9.439884e+04 0.000000e+00 0.000000e+00 0.000000e+00 0.000000e+00
-6.692141e+04 6.646153e+03 0.000000e+00 6.646153e+03 -9.646956e+04 0.000000e+00 0.000000e+00 0.000000e+00 0.000000e+00
-6.655216e+04 7.798138e+03 0.000000e+00 7.798138e+03 -9.877652e+04 0.000000e+00 0.000000e+00 0.000000e+00 0.000000e+00
-6.735883e+04 9.396419e+03 0.000000e+00 9.396419e+03 -1.014717e+05 0.000000e+00 0.000000e+00 0.000000e+00 0.000000e+00
-6.914008e+04 1.122322e+04 0.000000e+00 1.122322e+04 -1.047412e+05 0.000000e+00 0.000000e+00 0.000000e+00 0.000000e+00
-7.169948e+04 1.303371e+04 0.000000e+00 1.303371e+04 -1.089059e+05 0.000000e+00 0.000000e+00 0.000000e+00 0.000000e+00
-7.518851e+04 1.456697e+04 0.000000e+00 1.456697e+04 -1.148886e+05 0.000000e+00 0.000000e+00 0.000000e+00 0.000000e+00
-8.076730e+04 1.529886e+04 0.000000e+00 1.529886e+04 -1.237959e+05 0.000000e+00 0.000000e+00 0.000000e+00 0.000000e+00
-9.044332e+04 1.413665e+04 0.000000e+00 1.413665e+04 -1.361423e+05 0.000000e+00 0.000000e+00 0.000000e+00 0.000000e+00
-1.066489e+05 1.328449e+04 0.000000e+00 1.328449e+04 -1.510314e+05 0.000000e+00 0.000000e+00 0.000000e+00 0.000000e+00
-7.076914e+04 7.904406e+03 0.000000e+00 7.904406e+03 -8.953711e+04 0.000000e+00 0.000000e+00 0.000000e+00 0.000000e+00
-6.891136e+04 7.963028e+03 0.000000e+00 7.963028e+03 -8.962570e+04 0.000000e+00 0.000000e+00 0.000000e+00 0.000000e+00
-6.780438e+04 8.422586e+03 0.000000e+00 8.422586e+03 -9.072186e+04 0.000000e+00 0.000000e+00 0.000000e+00 0.000000e+00
-6.797334e+04 9.620338e+03 0.000000e+00 9.620338e+03 -9.157195e+04 0.000000e+00 0.000000e+00 0.000000e+00 0.000000e+00
-6.894155e+04 1.122354e+04 0.000000e+00 1.122354e+04 -9.213813e+04 0.000000e+00 0.000000e+00 0.000000e+00 0.000000e+00
-7.044098e+04 1.301777e+04 0.000000e+00 1.301777e+04 -9.218610e+04 0.000000e+00 0.000000e+00 0.000000e+00 0.000000e+00
-7.211572e+04 1.483308e+04 0.000000e+00 1.483308e+04 -9.136384e+04 0.000000e+00 0.000000e+00 0.000000e+00 0.000000e+00
-7.334697e+04 1.642429e+04 0.000000e+00 1.642429e+04 -8.910943e+04 0.000000e+00 0.000000e+00 0.000000e+00 0.000000e+00
-7.433157e+04 1.735438e+04 0.000000e+00 1.735438e+04 -8.454012e+04 0.000000e+00 0.000000e+00 0.000000e+00 0.000000e+00
-7.420773e+04 1.456124e+04 0.000000e+00 1.456124e+04 -7.562124e+04 0.000000e+00 0.000000e+00 0.000000e+00 0.000000e+00
-7.332832e+04 1.278605e+04 0.000000e+00 1.278605e+04 -7.135600e+04 0.000000e+00 0.000000e+00 0.000000e+00 0.000000e+00
-6.946099e+04 8.786907e+03 0.000000e+00 8.786907e+03 -8.431161e+04 0.000000e+00 0.000000e+00 0.000000e+00 0.000000e+00
-6.875043e+04 8.779211e+03 0.000000e+00 8.779211e+03 -8.424842e+04 0.000000e+00 0.000000e+00 0.000000e+00 0.000000e+00
-6.862360e+04 8.968146e+03 0.000000e+00 8.968146e+03 -8.443541e+04 0.000000e+00 0.000000e+00 0.000000e+00 0.000000e+00
-6.932041e+04 9.761413e+03 0.000000e+00 9.761413e+03 -8.423430e+04 0.000000e+00 0.000000e+00 0.000000e+00 0.000000e+00
-7.055509e+04 1.077420e+04 0.000000e+00 1.077420e+04 -8.345665e+04 0.000000e+00 0.000000e+00 0.000000e+00 0.000000e+00
-7.214452e+04 1.174924e+04 0.000000e+00 1.174924e+04 -8.189080e+04 0.000000e+00 0.000000e+00 0.000000e+00 0.000000e+00
-7.379026e+04 1.238594e+04 0.000000e+00 1.238594e+04 -7.936832e+04 0.000000e+00 0.000000e+00 0.000000e+00 0.000000e+00
-7.498640e+04 1.237082e+04 0.000000e+00 1.237082e+04 -7.562038e+04 0.000000e+00 0.000000e+00 0.000000e+00 0.000000e+00
-7.546630e+04 1.105476e+04 0.000000e+00 1.105476e+04 -7.026695e+04 0.000000e+00 0.000000e+00 0.000000e+00 0.000000e+00
-7.301889e+04 6.369221e+03 0.000000e+00 6.369221e+03 -6.512087e+04 0.000000e+00 0.000000e+00 0.000000e+00 0.000000e+00
-6.226898e+04 2.025750e+03 0.000000e+00 2.025750e+03 -5.969635e+04 0.000000e+00 0.000000e+00 0.000000e+00 0.000000e+00
-6.799574e+04 8.909109e+03 0.000000e+00 8.909109e+03 -7.911737e+04 0.000000e+00 0.000000e+00 0.000000e+00 0.000000e+00
-6.832315e+04 8.789599e+03 0.000000e+00 8.789599e+03 -7.897955e+04 0.000000e+00 0.000000e+00 0.000000e+00 0.000000e+00
-6.903816e+04 8.635894e+03 0.000000e+00 8.635894e+03 -7.851047e+04 0.000000e+00 0.000000e+00 0.000000e+00 0.000000e+00
-7.010652e+04 8.894802e+03 0.000000e+00 8.894802e+03 -7.764021e+04 0.000000e+00 0.000000e+00 0.000000e+00 0.000000e+00
-7.140272e+04 9.205895e+03 0.000000e+00 9.205895e+03 -7.624322e+04 0.000000e+00 0.000000e+00 0.000000e+00 0.000000e+00
-7.276141e+04 9.313414e+03 0.000000e+00 9.313414e+03 -7.423456e+04 0.000000e+00 0.000000e+00 0.000000e+00 0.000000e+00
-7.385384e+04 8.942445e+03 0.000000e+00 8.942445e+03 -7.157848e+04 0.000000e+00 0.000000e+00 0.000000e+00 0.000000e+00
-7.417402e+04 7.810339e+03 0.000000e+00 7.810339e+03 -6.825332e+04 0.000000e+00 0.000000e+00 0.000000e+00 0.000000e+00
-7.277460e+04 5.453855e+03 0.000000e+00 5.453855e+03 -6.465561e+04 0.000000e+00 0.000000e+00 0.000000e+00 0.000000e+00
-6.642111e+04 1.956096e+03 0.000000e+00 1.956096e+03 -6.186769e+04 0.000000e+00 0.000000e+00 0.000000e+00 0.000000e+00
-5.751042e+04 2.214819e+02 0.000000e+00 2.214819e+02 -5.946356e+04 0.000000e+00 0.000000e+00 0.000000e+00 0.000000e+00
-6.655784e+04 8.443678e+03 0.000000e+00 8.443678e+03 -7.450466e+04 0.000000e+00 0.000000e+00 0.000000e+00 0.000000e+00
-6.766316e+04 8.223526e+03 0.000000e+00 8.223526e+03 -7.432734e+04 0.000000e+00 0.000000e+00 0.000000e+00 0.000000e+00
-6.898116e+04 7.741688e+03 0.000000e+00 7.741688e+03 -7.349314e+04 0.000000e+00 0.000000e+00 0.000000e+00 0.000000e+00
-7.023485e+04 7.518448e+03 0.000000e+00 7.518448e+03 -7.237398e+04 0.000000e+00 0.000000e+00 0.000000e+00 0.000000e+00
-7.141411e+04 7.277878e+03 0.000000e+00 7.277878e+03 -7.088046e+04 0.000000e+00 0.000000e+00 0.000000e+00 0.000000e+00
-7.239609e+04 6.792977e+03 0.000000e+00 6.792977e+03 -6.899976e+04 0.000000e+00 0.000000e+00 0.000000e+00 0.000000e+00
-7.287302e+04 5.872350e+03 0.000000e+00 5.872350e+03 -6.676865e+04 0.000000e+00 0.000000e+00 0.000000e+00 0.000000e+00
-7.229497e+04 4.341541e+03 0.000000e+00 4.341541e+03 -6.433881e+04 0.000000e+00 0.000000e+00 0.000000e+00 0.000000e+00
-6.964162e+04 2.205092e+03 0.000000e+00 2.205092e+03 -6.211972e+04 0.000000e+00 0.000000e+00 0.000000e+00 0.000000e+00
-6.360634e+04 2.648100e+02 0.000000e+00 2.648100e+02 -6.065202e+04 0.000000e+00 0.000000e+00 0.000000e+00 0.000000e+00
-5.747650e+04 -4.593075e+02 0.000000e+00 -4.593075e+02 -5.939455e+04 0.000000e+00 0.000000e+00 0.000000e+00 0.000000e+00
-6.523857e+04 7.595081e+03 0.000000e+00 7.595081e+03 -7.069672e+04 0.000000e+00 0.000000e+00 0.000000e+00 0.000000e+00
-6.682484e+04 7.328293e+03 0.000000e+00 7.328293e+03 -7.050109e+04 0.000000e+00 0.000000e+00 0.000000e+00 0.000000e+00
-6.853019e+04 6.656316e+03 0.000000e+00 6.656316e+03 -6.954669e+04 0.000000e+00 0.000000e+00 0.000000e+00 0.000000e+00
-6.986245e+04 6.111146e+03 0.000000e+00 6.111146e+03 -6.843446e+04 0.000000e+00 0.000000e+00 0.000000e+00 0.000000e+00
-7.089141e+04 5.504615e+03 0.000000e+00 5.504615e+03 -6.708770e+04 0.000000e+00 0.000000e+00 0.000000e+00 0.000000e+00
-7.152373e+04 4.687383e+03 0.000000e+00 4.687383e+03 -6.552153e+04 0.000000e+00 0.000000e+00 0.000000e+00 0.000000e+00
-7.148628e+04 3.544012e+03 0.000000e+00 3.544012e+03 -6.383692e+04 0.000000e+00 0.000000e+00 0.000000e+00 0.000000e+00
-7.033562e+04 2.061898e+03 0.000000e+00 2.061898e+03 -6.220805e+04 0.000000e+00 0.000000e+00 0.000000e+00 0.000000e+00
-6.748488e+04 4.941978e+02 0.000000e+00 4.941978e+02 -6.093265e+04 0.000000e+00 0.000000e+00 0.000000e+00 0.000000e+00
-6.258471e+04 -4.343539e+02 0.000000e+00 -4.343539e+02 -6.023076e+04 0.000000e+00 0.000000e+00 0.000000e+00 0.000000e+00
-5.832083e+04 -5.719813e+02 0.000000e+00 -5.719813e+02 -5.956242e+04 0.000000e+00 0.000000e+00 0.000000e+00 0.000000e+00
-6.413682e+04 6.609858e+03 0.000000e+00 6.609858e+03 -6.774638e+04 0.000000e+00 0.000000e+00 0.000000e+00 0.000000e+00
-6.594149e+04 6.326646e+03 0.000000e+00 6.326646e+03 -6.754998e+04 0.000000e+00 0.000000e+00 0.000000e+00 0.000000e+00
-6.782368e+04 5.559393e+03 0.000000e+00 5.559393e+03 -6.659763e+04 0.000000e+00 0.000000e+00 0.000000e+00 0.000000e+00
-6.915109e+04 4.812487e+03 0.000000e+00 4.812487e+03 -6.556709e+04 0.000000e+00 0.000000e+00 0.000000e+00 0.000000e+00
-7.003928e+04 4.007599e+03 0.000000e+00 4.007599e+03 -6.443707e+04 0.000000e+00 0.000000e+00 0.000000e+00 0.000000e+00
-7.041005e+04 3.057404e+03 0.000000e+00 3.057404e+03 -6.323806e+04 0.000000e+00 0.000000e+00 0.000000e+00 0.000000e+00
-7.005970e+04 1.922675e+03 0.000000e+00 1.922675e+03 -6.205582e+04 0.000000e+00 0.000000e+00 0.000000e+00 0.000000e+00
-6.873173e+04 6.915015e+02 0.000000e+00 6.915015e+02 -6.104437e+04 0.000000e+00 0.000000e+00 0.000000e+00 0.000000e+00
-6.619800e+04 -3.456595e+02 0.000000e+00 -3.456595e+02 -6.036315e+04 0.000000e+00 0.000000e+00 0.000000e+00 0.000000e+00
-6.247496e+04 -6.856131e+02 0.000000e+00 -6.856131e+02 -6.005512e+04 0.000000e+00 0.000000e+00 0.000000e+00 0.000000e+00
-5.946704e+04 -5.790634e+02 0.000000e+00 -5.790634e+02 -5.967870e+04 0.000000e+00 0.000000e+00 0.000000e+00 0.000000e+00
-6.326707e+04 5.597915e+03 0.000000e+00 5.597915e+03 -6.555000e+04 0.000000e+00 0.000000e+00 0.000000e+00 0.000000e+00
-6.507852e+04 5.309468e+03 0.000000e+00 5.309468e+03 -6.534697e+04 0.000000e+00 0.000000e+00 0.000000e+00 0.000000e+00
-6.696945e+04 4.517363e+03 0.000000e+00 4.517363e+03 -6.443824e+04 0.000000e+00 0.000000e+00 0.000000e+00 0.000000e+00
-6.826919e+04 3.698730e+03 0.000000e+00 3.698730e+03 -6.354527e+04 0.000000e+00 0.000000e+00 0.000000e+00 0.000000e+00
-6.905772e+04 2.839431e+03 0.000000e+00 2.839431e+03 -6.264557e+04 0.000000e+00 0.000000e+00 0.000000e+00 0.000000e+00
-6.926969e+04 1.887762e+03 0.000000e+00 1.887762e+03 -6.177348e+04 0.000000e+00 0.000000e+00 0.000000e+00 0.000000e+00
-6.880610e+04 8.783994e+02 0.000000e+00 8.783994e+02 -6.099335e+04 0.000000e+00 0.000000e+00 0.000000e+00 0.000000e+00
-6.756045e+04 -6.579900e+01 0.000000e+00 -6.579900e+01 -6.040964e+04 0.000000e+00 0.000000e+00 0.000000e+00 0.000000e+00
-6.550554e+04 -7.134520e+02 0.000000e+00 -7.134520e+02 -6.007994e+04 0.000000e+00 0.000000e+00 0.000000e+00 0.000000e+00
-6.275973e+04 -7.459023e+02 0.000000e+00 -7.459023e+02 -5.997682e+04 0.000000e+00 0.000000e+00 0.000000e+00 0.000000e+00
-6.063945e+04 -5.388209e+02 0.000000e+00 -5.388209e+02 -5.977187e+04 0.000000e+00 0.000000e+00 0.000000e+00 0.000000e+00
-6.255873e+04 4.578185e+03 0.000000e+00 4.578185e+03 -6.394737e+04 0.000000e+00 0.000000e+00 0.000000e+00 0.000000e+00
-6.426917e+04 4.310698e+03 0.000000e+00 4.310698e+03 -6.374907e+04 0.000000e+00 0.000000e+00 0.000000e+00 0.000000e+00
-6.609500e+04 3.579207e+03 0.000000e+00 3.579207e+03 -6.291759e+04 0.000000e+00 0.000000e+00 0.000000e+00 0.000000e+00
-6.735715e+04 2.788867e+03 0.000000e+00 2.788867e+03 -6.215674e+04 0.000000e+00 0.000000e+00 0.000000e+00 0.000000e+00
-6.807327e+04 1.956193e+03 0.000000e+00 1.956193e+03 -6.145726e+04 0.000000e+00 0.000000e+00 0.000000e+00 0.000000e+00
-6.822533e+04 1.090879e+03 0.000000e+00 1.090879e+03 -6.083939e+04 0.000000e+00 0.000000e+00 0.000000e+00 0.000000e+00
-6.778872e+04 2.536246e+02 0.000000e+00 2.536246e+02 -6.035644e+04 0.000000e+00 0.000000e+00 0.000000e+00 0.000000e+00
-6.675159e+04 -4.406228e+02 0.000000e+00 -4.406228e+02 -6.005166e+04 0.000000e+00 0.000000e+00 0.000000e+00 0.000000e+00
-6.516796e+04 -8.306854e+02 0.000000e+00 -8.306854e+02 -5.992802e+04 0.000000e+00 0.000000e+00 0.000000e+00 0.000000e+00
-6.319787e+04 -7.087465e+02 0.000000e+00 -7.087465e+02 -5.993333e+04 0.000000e+00 0.000000e+00 0.000000e+00 0.000000e+00
-6.173972e+04 -4.787625e+02 0.000000e+00 -4.787625e+02 -5.983054e+04 0.000000e+00 0.000000e+00 0.000000e+00 0.000000e+00
-6.200059e+04 3.611484e+03 0.000000e+00 3.611484e+03 -6.282139e+04 0.000000e+00 0.000000e+00 0.000000e+00 0.000000e+00
-6.356954e+04 3.376876e+03 0.000000e+00 3.376876e+03 -6.262255e+04 0.000000e+00 0.000000e+00 0.000000e+00 0.000000e+00
-6.528717e+04 2.744999e+03 0.000000e+00 2.744999e+03 -6.186356e+04 0.000000e+00 0.000000e+00 0.000000e+00 0.000000e+00
-6.649577e+04 2.044504e+03 0.000000e+00 2.044504e+03 -6.120718e+04 0.000000e+00 0.000000e+00 0.000000e+00 0.000000e+00
-6.717680e+04 1.304256e+03 0.000000e+00 1.304256e+03 -6.067200e+04 0.000000e+00 0.000000e+00 0.000000e+00 0.000000e+00
-6.733955e+04 5.754243e+02 0.000000e+00 5.754243e+02 -6.025146e+04 0.000000e+00 0.000000e+00 0.000000e+00 0.000000e+00
-6.700252e+04 -8.578233e+01 0.000000e+00 -8.578233e+01 -5.997502e+04 0.000000e+00 0.000000e+00 0.000000e+00 0.000000e+00
-6.620655e+04 -5.845286e+02 0.000000e+00 -5.845286e+02 -5.984201e+04 0.000000e+00 0.000000e+00 0.000000e+00 0.000000e+00
-6.503673e+04 -8.102526e+02 0.000000e+00 -8.102526e+02 -5.984405e+04 0.000000e+00 0.000000e+00 0.000000e+00 0.000000e+00
-6.366750e+04 -6.256265e+02 0.000000e+00 -6.256265e+02 -5.991022e+04 0.000000e+00 0.000000e+00 0.000000e+00 0.000000e+00
-6.271073e+04 -4.032306e+02 0.000000e+00 -4.032306e+02 -5.987106e+04 0.000000e+00 0.000000e+00 0.000000e+00 0.000000e+00
-6.158729e+04 2.697656e+03 0.000000e+00 2.697656e+03 -6.200457e+04 0.000000e+00 0.000000e+00 0.000000e+00 0.000000e+00
-6.299302e+04 2.504185e+03 0.000000e+00 2.504185e+03 -6.180712e+04 0.000000e+00 0.000000e+00 0.000000e+00 0.000000e+00
-6.460091e+04 1.997122e+03 0.000000e+00 1.997122e+03 -6.112984e+04 0.000000e+00 0.000000e+00 0.000000e+00 0.000000e+00
-6.575772e+04 1.434052e+03 0.000000e+00 1.434052e+03 -6.057043e+04 0.000000e+00 0.000000e+00 0.000000e+00 0.000000e+00
-6.642605e+04 8.351087e+02 0.000000e+00 8.351087e+02 -6.015695e+04 0.000000e+00 0.000000e+00 0.000000e+00 0.000000e+00
-6.663255e+04 2.591302e+02 0.000000e+00 2.591302e+02 -5.987754e+04 0.000000e+00 0.000000e+00 0.000000e+00 0.000000e+00
-6.641649e+04 -2.383016e+02 0.000000e+00 -2.383016e+02 -5.973746e+04 0.000000e+00 0.000000e+00 0.000000e+00 0.000000e+00
-6.584564e+04 -5.872334e+02 0.000000e+00 -5.872334e+02 -5.971778e+04 0.000000e+00 0.000000e+00 0.000000e+00 0.000000e+00
-6.501755e+04 -7.095541e+02 0.000000e+00 -7.095541e+02 -5.979714e+04 0.000000e+00 0.000000e+00 0.000000e+00 0.000000e+00
-6.410593e+04 -5.176355e+02 0.000000e+00 -5.176355e+02 -5.990177e+04 0.000000e+00 0.000000e+00 0.000000e+00 0.000000e+00
-6.351711e+04 -3.188407e+02 0.000000e+00 -3.188407e+02 -5.990203e+04 0.000000e+00 0.000000e+00 0.000000e+00 0.000000e+00
-6.126036e+04 1.852408e+03 0.000000e+00 1.852408e+03 -6.137550e+04 0.000000e+00 0.000000e+00 0.000000e+00 0.000000e+00
-6.254923e+04 1.718623e+03 0.000000e+00 1.718623e+03 -6.119764e+04 0.000000e+00 0.000000e+00 0.000000e+00 0.000000e+00
-6.407671e+04 1.351434e+03 0.000000e+00 1.351434e+03 -6.061150e+04 0.000000e+00 0.000000e+00 0.000000e+00 0.000000e+00
-6.518234e+04 9.356124e+02 0.000000e+00 9.356124e+02 -6.014312e+04 0.000000e+00 0.000000e+00 0.000000e+00 0.000000e+00
-6.584823e+04 4.970743e+02 0.000000e+00 4.970743e+02 -5.981955e+04 0.000000e+00 0.000000e+00 0.000000e+00 0.000000e+00
-6.610298e+04 8.113296e+01 0.000000e+00 8.113296e+01 -5.963994e+04 0.000000e+00 0.000000e+00 0.000000e+00 0.000000e+00
-6.599887e+04 -2.686121e+02 0.000000e+00 -2.686121e+02 -5.959101e+04 0.000000e+00 0.000000e+00 0.000000e+00 0.000000e+00
-6.561328e+04 -5.012567e+02 0.000000e+00 -5.012567e+02 -5.964826e+04 0.000000e+00 0.000000e+00 0.000000e+00 0.000000e+00
-6.505138e+04 -5.607773e+02 0.000000e+00 -5.607773e+02 -5.977259e+04 0.000000e+00 0.000000e+00 0.000000e+00 0.000000e+00
-6.447467e+04 -3.950624e+02 0.000000e+00 -3.950624e+02 -5.989871e+04 0.000000e+00 0.000000e+00 0.000000e+00 0.000000e+00
-6.414378e+04 -2.362763e+02 0.000000e+00 -2.362763e+02 -5.993000e+04 0.000000e+00 0.000000e+00 0.000000e+00 0.000000e+00
-6.102947e+04 1.103363e+03 0.000000e+00 1.103363e+03 -6.091783e+04 0.000000e+00 0.000000e+00 0.000000e+00 0.000000e+00
-6.225305e+04 1.018076e+03 0.000000e+00 1.018076e+03 -6.075194e+04 0.000000e+00 0.000000e+00 0.000000e+00 0.000000e+00
-6.371934e+04 7.888542e+02 0.000000e+00 7.888542e+02 -6.022083e+04 0.000000e+00 0.000000e+00 0.000000e+00 0.000000e+00
-6.478575e+04 5.341127e+02 0.000000e+00 5.341127e+02 -5.983676e+04 0.000000e+00 0.000000e+00 0.000000e+00 0.000000e+00
-6.544992e+04 2.608252e+02 0.000000e+00 2.608252e+02 -5.959643e+04 0.000000e+00 0.000000e+00 0.000000e+00 0.000000e+00
-6.574331e+04 -4.447371e-01 0.000000e+00 -4.447371e-01 -5.949142e+04 0.000000e+00 0.000000e+00 0.000000e+00 0.000000e+00
-6.572268e+04 -2.195931e+02 0.000000e+00 -2.195931e+02 -5.950566e+04 0.000000e+00 0.000000e+00 0.000000e+00 0.000000e+00
-6.547225e+04 -3.604498e+02 0.000000e+00 -3.604498e+02 -5.960984e+04 0.000000e+00 0.000000e+00 0.000000e+00 0.000000e+00
-6.509941e+04 -3.853715e+02 0.000000e+00 -3.853715e+02 -5.976027e+04 0.000000e+00 0.000000e+00 0.000000e+00 0.000000e+00
-6.474962e+04 -2.654044e+02 0.000000e+00 -2.654044e+02 -5.989682e+04 0.000000e+00 0.000000e+00 0.000000e+00 0.000000e+00
-6.458798e+04 -1.571216e+02 0.000000e+00 -1.571216e+02 -5.994903e+04 0.000000e+00 0.000000e+00 0.000000e+00 0.000000e+00
-6.085591e+04 3.925978e+02 0.000000e+00 3.925978e+02 -6.044647e+04 0.000000e+00 0.000000e+00 0.000000e+00 0.000000e+00
-6.210285e+04 3.991521e+02 0.000000e+00 3.991521e+02 -6.033604e+04 0.000000e+00 0.000000e+00 0.000000e+00 0.000000e+00
-6.353645e+04 3.276087e+02 0.000000e+00 3.276087e+02 -5.990953e+04 0.000000e+00 0.000000e+00 0.000000e+00 0.000000e+00
-6.456723e+04 2.303072e+02 0.000000e+00 2.303072e+02 -5.962544e+04 0.000000e+00 0.000000e+00 0.000000e+00 0.000000e+00
-6.522148e+04 1.071112e+02 0.000000e+00 1.071112e+02 -5.945557e+04 0.000000e+00 0.000000e+00 0.000000e+00 0.000000e+00
-6.553780e+04 -1.789880e+01 0.000000e+00 -1.789880e+01 -5.940560e+04 0.000000e+00 0.000000e+00 0.000000e+00 0.000000e+00
-6.556705e+04 -1.219051e+02 0.000000e+00 -1.219051e+02 -5.945707e+04 0.000000e+00 0.000000e+00 0.000000e+00 0.000000e+00
-6.539744e+04 -1.876681e+02 0.000000e+00 -1.876681e+02 -5.958969e+04 0.000000e+00 0.000000e+00 0.000000e+00 0.000000e+00
-6.513722e+04 -1.955975e+02 0.000000e+00 -1.955975e+02 -5.975348e+04 0.000000e+00 0.000000e+00 0.000000e+00 0.000000e+00
-6.491753e+04 -1.333071e+02 0.000000e+00 -1.333071e+02 -5.989570e+04 0.000000e+00 0.000000e+00 0.000000e+00 0.000000e+00
-6.484947e+04 -7.920589e+01 0.000000e+00 -7.920589e+01 -5.995758e+04 0.000000e+00 0.000000e+00 0.000000e+00 0.000000e+00
-6.069129e+04 -1.065648e+02 0.000000e+00 -1.065648e+02 -5.993382e+04 0.000000e+00 0.000000e+00 0.000000e+00 0.000000e+00
-6.202045e+04 6.141698e-01 0.000000e+00 6.141698e-01 -5.998510e+04 0.000000e+00 0.000000e+00 0.000000e+00 0.000000e+00
-6.348141e+04 5.357217e+01 0.000000e+00 5.357217e+01 -5.975647e+04 0.000000e+00 0.000000e+00 0.000000e+00 0.000000e+00
-6.450029e+04 4.840856e+01 0.000000e+00 4.840856e+01 -5.954702e+04 0.000000e+00 0.000000e+00 0.000000e+00 0.000000e+00
-6.514832e+04 1.613902e+01 0.000000e+00 1.613902e+01 -5.940740e+04 0.000000e+00 0.000000e+00 0.000000e+00 0.000000e+00
-6.547094e+04 -2.384849e+01 0.000000e+00 -2.384849e+01 -5.937759e+04 0.000000e+00 0.000000e+00 0.000000e+00 0.000000e+00
-6.551701e+04 -5.704686e+01 0.000000e+00 -5.704686e+01 -5.944180e+04 0.000000e+00 0.000000e+00 0.000000e+00 0.000000e+00
-6.537420e+04 -7.941382e+01 0.000000e+00 -7.941382e+01 -5.958427e+04 0.000000e+00 0.000000e+00 0.000000e+00 0.000000e+00
-6.515154e+04 -8.151190e+01 0.000000e+00 -8.151190e+01 -5.975205e+04 0.000000e+00 0.000000e+00 0.000000e+00 0.000000e+00
-6.497347e+04 -5.842332e+01 0.000000e+00 -5.842332e+01 -5.989595e+04 0.000000e+00 0.000000e+00 0.000000e+00 0.000000e+00
-6.493389e+04 -3.810474e+01 0.000000e+00 -3.810474e+01 -5.996082e+04 0.000000e+00 0.000000e+00 0.000000e+00 0.000000e+00
</DataArray>
<DataArray Name="vol_eps" type="Float64" NumberOfComponents="1" format="ascii">
-3.329178e-03
-3.116837e-03
-3.098667e-03
-3.197255e-03
-3.420656e-03
-3.780541e-03
-4.297504e-03
-4.960802e-03
-5.711603e-03
-6.369310e-03
-6.495403e-03
-3.214837e-03
-3.019155e-03
-3.008917e-03
-3.112514e-03
-3.323645e-03
-3.660077e-03
-4.145113e-03
-4.786654e-03
-5.588430e-03
-6.356755e-03
-7.190790e-03
-2.957261e-03
-2.789988e-03
-2.781060e-03
-2.876556e-03
-3.055313e-03
-3.316115e-03
-3.673226e-03
-4.192809e-03
-4.975419e-03
-6.220890e-03
-8.148243e-03
-2.600361e-03
-2.482631e-03
-2.476380e-03
-2.532372e-03
-2.610265e-03
-2.674327e-03
-2.667357e-03
-2.483189e-03
-2.015640e-03
-1.150524e-03
-6.252017e-04
-2.173411e-03
-2.121432e-03
-2.124831e-03
-2.155742e-03
-2.181870e-03
-2.177682e-03
-2.113362e-03
-1.938293e-03
-1.618234e-03
-1.146850e-03
-1.041583e-04
-1.734158e-03
-1.749279e-03
-1.768397e-03
-1.783058e-03
-1.776833e-03
-1.733144e-03
-1.629553e-03
-1.433644e-03
-1.110397e-03
-5.256236e-04
2.093558e-04
-1.338149e-03
-1.405276e-03
-1.443814e-03
-1.453830e-03
-1.432066e-03
-1.371232e-03
-1.256173e-03
-1.060922e-03
-7.481729e-04
-2.714084e-04
2.073675e-04
-1.006454e-03
-1.103662e-03
-1.158844e-03
-1.173671e-03
-1.150850e-03
-1.088749e-03
-9.765478e-04
-7.975603e-04
-5.354981e-04
-1.809300e-04
1.385406e-04
-7.460538e-04
-8.560919e-04
-9.212758e-04
-9.419143e-04
-9.240314e-04
-8.692282e-04
-7.703256e-04
-6.202780e-04
-4.171600e-04
-1.629663e-04
5.488333e-05
-5.502838e-04
-6.597982e-04
-7.277881e-04
-7.544419e-04
-7.455014e-04
-7.016532e-04
-6.213902e-04
-5.050107e-04
-3.550716e-04
-1.760303e-04
-2.824152e-05
-4.066147e-04
-5.074426e-04
-5.746410e-04
-6.061835e-04
-6.054820e-04
-5.744994e-04
-5.155063e-04
-4.308195e-04
-3.239767e-04
-2.007909e-04
-1.024336e-04
-3.027027e-04
-3.935413e-04
-4.567585e-04
-4.902747e-04
-4.975265e-04
-4.800725e-04
-4.409160e-04
-3.828491e-04
-3.102522e-04
-2.288009e-04
-1.658600e-04
-2.281341e-04
-3.076110e-04
-3.669527e-04
-4.028362e-04
-4.165801e-04
-4.109881e-04
-3.884769e-04
-3.519464e-04
-3.058261e-04
-2.556012e-04
-2.184657e-04
-1.711852e-04
-2.440013e-04
-3.018245e-04
-3.389420e-04
-3.583285e-04
-3.619423e-04
-3.523577e-04
-3.324179e-04
-3.062391e-04
-2.785628e-04
-2.596211e-04
-1.285902e-04
-1.973983e-04
-2.547059e-04
-2.941275e-04
-3.186924e-04
-3.295050e-04
-3.291700e-04
-3.208793e-04
-3.084437e-04
-2.958534e-04
-2.889821e-04
-8.781719e-05
-1.609605e-04
-2.226895e-04
-2.667292e-04
-2.953438e-04
-3.109906e-04
-3.164096e-04
-3.148524e-04
-3.102472e-04
-3.063221e-04
-3.062744e-04
-4.427027e-05
-1.332679e-04
-2.094103e-04
-2.572665e-04
-2.876932e-04
-3.050288e-04
-3.124283e-04
-3.129865e-04
-3.108862e-04
-3.097716e-04
-3.117725e-04
</DataArray>
</PointData>
</Piece>
</UnstructuredGrid>
</VTKFile>
