<?xml version="1.0"?>
<VTKFile type="UnstructuredGrid" version="0.1">
<UnstructuredGrid>
<FieldData>
<DataArray Name="TIME" type="Float64" format="ascii" NumberOfTuples="1">
0.000000e+00
</DataArray>
</FieldData>
<FieldData>
<DataArray Name="CYCLE" type="Int32" format="ascii" NumberOfTuples="1">
0
</DataArray>
</FieldData>
<Piece NumberOfPoints="187" NumberOfCells="160">
<Points>
<DataArray NumberOfComponents="3" type="Float64" format="ascii">
0.000000e+00 0.000000e+00 0.000000e+00
0.000000e+00 1.971661e-01 0.000000e+00
0.000000e+00 3.931632e-01 0.000000e+00
0.000000e+00 5.874519e-01 0.000000e+00
0.000000e+00 7.801015e-01 0.000000e+00
0.000000e+00 9.720638e-01 0.000000e+00
0.000000e+00 1.163782e+00 0.000000e+00
0.000000e+00 1.355772e+00 0.000000e+00
0.000000e+00 1.549309e+00 0.000000e+00
0.000000e+00 1.745215e+00 0.000000e+00
0.000000e+00 1.941500e+00 0.000000e+00
2.250000e-01 0.000000e+00 0.000000e+00
2.264312e-01 1.971772e-01 0.000000e+00
2.283844e-01 3.932082e-01 0.000000e+00
2.306223e-01 5.881046e-01 0.000000e+00
2.320209e-01 7.817913e-01 0.000000e+00
2.325096e-01 9.745916e-01 0.000000e+00
2.322919e-01 1.166956e+00 0.000000e+00
2.310677e-01 1.359300e+00 0.000000e+00
2.283147e-01 1.551914e+00 0.000000e+00
2.254905e-01 1.745469e+00 0.000000e+00
2.250000e-01 1.941500e+00 0.000000e+00
4.500000e-01 0.000000e+00 0.000000e+00
4.530815e-01 1.975319e-01 0.000000e+00
4.563068e-01 3.942613e-01 0.000000e+00
4.592071e-01 5.905377e-01 0.000000e+00
4.614566e-01 7.864670e-01 0.000000e+00
4.628372e-01 9.817625e-01 0.000000e+00
4.633255e-01 1.176126e+00 0.000000e+00
4.627439e-01 1.369306e+00 0.000000e+00
4.604793e-01 1.560843e+00 0.000000e+00
4.566734e-01 1.751267e+00 0.000000e+00
4.500000e-01 1.941500e+00 0.000000e+00
6.750000e-01 0.000000e+00 0.000000e+00
6.793031e-01 1.985431e-01 0.000000e+00
6.830024e-01 3.969042e-01 0.000000e+00
6.859372e-01 5.953779e-01 0.000000e+00
6.883098e-01 7.940492e-01 0.000000e+00
6.900525e-01 9.929495e-01 0.000000e+00
6.911173e-01 1.192155e+00 0.000000e+00
6.913332e-01 1.391687e+00 0.000000e+00
6.900883e-01 1.591724e+00 0.000000e+00
6.870303e-01 1.792081e+00 0.000000e+00
6.814161e-01 1.992356e+00 0.000000e+00
9.000000e-01 0.000000e+00 0.000000e+00
9.046992e-01 1.989411e-01 0.000000e+00
9.081013e-01 3.979580e-01 0.000000e+00
9.106735e-01 5.971975e-01 0.000000e+00
9.127061e-01 7.966700e-01 0.000000e+00
9.141505e-01 9.964036e-01 0.000000e+00
9.149033e-01 1.196418e+00 0.000000e+00
9.147426e-01 1.396766e+00 0.000000e+00
9.133484e-01 1.597328e+00 0.000000e+00
9.105906e-01 1.797862e+00 0.000000e+00
9.067850e-01 1.997882e+00 0.000000e+00
1.125000e+00 0.000000e+00 0.000000e+00
1.129727e+00 1.993544e-01 0.000000e+00
1.132659e+00 3.988561e-01 0.000000e+00
1.134907e+00 5.985793e-01 0.000000e+00
1.136631e+00 7.985211e-01 0.000000e+00
1.137789e+00 9.986955e-01 0.000000e+00
1.138275e+00 1.199126e+00 0.000000e+00
1.137949e+00 1.399776e+00 0.000000e+00
1.136686e+00 1.600495e+00 0.000000e+00
1.134616e+00 1.800997e+00 0.000000e+00
1.132283e+00 2.001075e+00 0.000000e+00
1.350000e+00 0.000000e+00 0.000000e+00
1.354389e+00 1.996881e-01 0.000000e+00
1.356943e+00 3.995100e-01 0.000000e+00
1.358884e+00 5.995199e-01 0.000000e+00
1.360331e+00 7.997332e-01 0.000000e+00
1.361261e+00 1.000169e+00 0.000000e+00
1.361578e+00 1.200808e+00 0.000000e+00
1.361228e+00 1.401574e+00 0.000000e+00
1.360249e+00 1.602287e+00 0.000000e+00
1.358857e+00 1.802754e+00 0.000000e+00
1.357490e+00 2.002870e+00 0.000000e+00
1.575000e+00 0.000000e+00 0.000000e+00
1.578850e+00 1.998813e-01 0.000000e+00
1.581076e+00 3.999050e-01 0.000000e+00
1.582740e+00 6.001087e-01 0.000000e+00
1.583964e+00 8.005011e-01 0.000000e+00
1.584707e+00 1.001077e+00 0.000000e+00
1.584933e+00 1.201799e+00 0.000000e+00
1.584667e+00 1.402555e+00 0.000000e+00
1.584013e+00 1.603212e+00 0.000000e+00
1.583164e+00 1.803648e+00 0.000000e+00
1.582437e+00 2.003818e+00 0.000000e+00
1.800000e+00 0.000000e+00 0.000000e+00
1.803219e+00 1.999767e-01 0.000000e+00
1.805140e+00 4.001358e-01 0.000000e+00
1.806575e+00 6.004527e-01 0.000000e+00
1.807603e+00 8.009340e-01 0.000000e+00
1.808210e+00 1.001562e+00 0.000000e+00
1.808413e+00 1.202270e+00 0.000000e+00
1.808279e+00 1.402972e+00 0.000000e+00
1.807907e+00 1.603575e+00 0.000000e+00
1.807461e+00 1.803997e+00 0.000000e+00
1.807155e+00 2.004222e+00 0.000000e+00
2.025000e+00 0.000000e+00 0.000000e+00
2.027581e+00 2.000186e-01 0.000000e+00
2.029214e+00 4.002384e-01 0.000000e+00
2.030442e+00 6.006064e-01 0.000000e+00
2.031305e+00 8.011138e-01 0.000000e+00
2.031820e+00 1.001725e+00 0.000000e+00
2.032040e+00 1.202382e+00 0.000000e+00
2.032030e+00 1.403025e+00 0.000000e+00
2.031877e+00 1.603583e+00 0.000000e+00
2.031711e+00 1.804005e+00 0.000000e+00
2.031672e+00 2.004289e+00 0.000000e+00
2.250000e+00 0.000000e+00 0.000000e+00
2.251988e+00 2.000293e-01 0.000000e+00
2.253348e+00 4.002561e-01 0.000000e+00
2.254378e+00 6.006227e-01 0.000000e+00
2.255105e+00 8.011101e-01 0.000000e+00
2.255561e+00 1.001674e+00 0.000000e+00
2.255803e+00 1.202274e+00 0.000000e+00
2.255885e+00 1.402859e+00 0.000000e+00
2.255884e+00 1.603383e+00 0.000000e+00
2.255898e+00 1.803813e+00 0.000000e+00
2.256016e+00 2.004155e+00 0.000000e+00
2.475000e+00 0.000000e+00 0.000000e+00
2.476471e+00 2.000170e-01 0.000000e+00
2.477565e+00 4.002182e-01 0.000000e+00
2.478413e+00 6.005511e-01 0.000000e+00
2.479020e+00 8.009917e-01 0.000000e+00
2.479429e+00 1.001502e+00 0.000000e+00
2.479677e+00 1.202045e+00 0.000000e+00
2.479817e+00 1.402582e+00 0.000000e+00
2.479908e+00 1.603081e+00 0.000000e+00
2.480022e+00 1.803524e+00 0.000000e+00
2.480216e+00 2.003922e+00 0.000000e+00
2.700000e+00 0.000000e+00 0.000000e+00
2.701043e+00 1.999984e-01 0.000000e+00
2.701887e+00 4.001531e-01 0.000000e+00
2.702555e+00 6.004345e-01 0.000000e+00
2.703053e+00 8.008207e-01 0.000000e+00
2.703405e+00 1.001278e+00 0.000000e+00
2.703641e+00 1.201772e+00 0.000000e+00
2.703802e+00 1.402271e+00 0.000000e+00
2.703934e+00 1.602752e+00 0.000000e+00
2.704088e+00 1.803209e+00 0.000000e+00
2.704297e+00 2.003654e+00 0.000000e+00
2.925000e+00 0.000000e+00 0.000000e+00
2.925706e+00 1.999722e-01 0.000000e+00
2.926313e+00 4.000815e-01 0.000000e+00
2.926809e+00 6.003153e-01 0.000000e+00
2.927188e+00 8.006485e-01 0.000000e+00
2.927469e+00 1.001058e+00 0.000000e+00
2.927672e+00 1.201512e+00 0.000000e+00
2.927823e+00 1.401981e+00 0.000000e+00
2.927958e+00 1.602452e+00 0.000000e+00
2.928106e+00 1.802922e+00 0.000000e+00
2.928293e+00 2.003403e+00 0.000000e+00
3.150000e+00 0.000000e+00 0.000000e+00
3.150438e+00 1.999501e-01 0.000000e+00
3.150825e+00 4.000238e-01 0.000000e+00
3.151153e+00 6.002184e-01 0.000000e+00
3.151410e+00 8.005126e-01 0.000000e+00
3.151604e+00 1.000881e+00 0.000000e+00
3.151752e+00 1.201303e+00 0.000000e+00
3.151869e+00 1.401752e+00 0.000000e+00
3.151975e+00 1.602217e+00 0.000000e+00
3.152089e+00 1.802698e+00 0.000000e+00
3.152226e+00 2.003204e+00 0.000000e+00
3.375000e+00 0.000000e+00 0.000000e+00
3.375211e+00 1.999371e-01 0.000000e+00
3.375397e+00 3.999927e-01 0.000000e+00
3.375560e+00 6.001626e-01 0.000000e+00
3.375691e+00 8.004321e-01 0.000000e+00
3.375789e+00 1.000776e+00 0.000000e+00
3.375866e+00 1.201174e+00 0.000000e+00
3.375930e+00 1.401610e+00 0.000000e+00
3.375988e+00 1.602071e+00 0.000000e+00
3.376050e+00 1.802557e+00 0.000000e+00
3.376121e+00 2.003077e+00 0.000000e+00
3.600000e+00 0.000000e+00 0.000000e+00
3.600000e+00 1.999454e-01 0.000000e+00
3.600000e+00 3.999971e-01 0.000000e+00
3.600000e+00 6.001586e-01 0.000000e+00
3.600000e+00 8.004186e-01 0.000000e+00
3.600000e+00 1.000753e+00 0.000000e+00
3.600000e+00 1.201141e+00 0.000000e+00
3.600000e+00 1.401570e+00 0.000000e+00
3.600000e+00 1.602027e+00 0.000000e+00
3.600000e+00 1.802512e+00 0.000000e+00
3.600000e+00 2.003034e+00 0.000000e+00
</DataArray>
</Points>
<Cells>
<DataArray Name="connectivity" type="Int32" format="ascii">
0 11 12 1
1 12 13 2
2 13 14 3
3 14 15 4
4 15 16 5
5 16 17 6
6 17 18 7
7 18 19 8
8 19 20 9
9 20 21 10
11 22 23 12
12 23 24 13
13 24 25 14
14 25 26 15
15 26 27 16
16 27 28 17
17 28 29 18
18 29 30 19
19 30 31 20
20 31 32 21
22 33 34 23
23 34 35 24
24 35 36 25
25 36 37 26
26 37 38 27
27 38 39 28
28 39 40 29
29 40 41 30
30 41 42 31
31 42 43 32
33 44 45 34
34 45 46 35
35 46 47 36
36 47 48 37
37 48 49 38
38 49 50 39
39 50 51 40
40 51 52 41
41 52 53 42
42 53 54 43
44 55 56 45
45 56 57 46
46 57 58 47
47 58 59 48
48 59 60 49
49 60 61 50
50 61 62 51
51 62 63 52
52 63 64 53
53 64 65 54
55 66 67 56
56 67 68 57
57 68 69 58
58 69 70 59
59 70 71 60
60 71 72 61
61 72 73 62
62 73 74 63
63 74 75 64
64 75 76 65
66 77 78 67
67 78 79 68
68 79 80 69
69 80 81 70
70 81 82 71
71 82 83 72
72 83 84 73
73 84 85 74
74 85 86 75
75 86 87 76
77 88 89 78
78 89 90 79
79 90 91 80
80 91 92 81
81 92 93 82
82 93 94 83
83 94 95 84
84 95 96 85
85 96 97 86
86 97 98 87
88 99 100 89
89 100 101 90
90 101 102 91
91 102 103 92
92 103 104 93
93 104 105 94
94 105 106 95
95 106 107 96
96 107 108 97
97 108 109 98
99 110 111 100
100 111 112 101
101 112 113 102
102 113 114 103
103 114 115 104
104 115 116 105
105 116 117 106
106 117 118 107
107 118 119 108
108 119 120 109
110 121 122 111
111 122 123 112
112 123 124 113
113 124 125 114
114 125 126 115
115 126 127 116
116 127 128 117
117 128 129 118
118 129 130 119
119 130 131 120
121 132 133 122
122 133 134 123
123 134 135 124
124 135 136 125
125 136 137 126
126 137 138 127
127 138 139 128
128 139 140 129
129 140 141 130
130 141 142 131
132 143 144 133
133 144 145 134
134 145 146 135
135 146 147 136
136 147 148 137
137 148 149 138
138 149 150 139
139 150 151 140
140 151 152 141
141 152 153 142
143 154 155 144
144 155 156 145
145 156 157 146
146 157 158 147
147 158 159 148
148 159 160 149
149 160 161 150
150 161 162 151
151 162 163 152
152 163 164 153
154 165 166 155
155 166 167 156
156 167 168 157
157 168 169 158
158 169 170 159
159 170 171 160
160 171 172 161
161 172 173 162
162 173 174 163
163 174 175 164
165 176 177 166
166 177 178 167
167 178 179 168
168 179 180 169
169 180 181 170
170 181 182 171
171 182 183 172
172 183 184 173
173 184 185 174
174 185 186 175
</DataArray>
<DataArray Name="offsets" type="Int32" format="ascii">
4
8
12
16
20
24
28
32
36
40
44
48
52
56
60
64
68
72
76
80
84
88
92
96
100
104
108
112
116
120
124
128
132
136
140
144
148
152
156
160
164
168
172
176
180
184
188
192
196
200
204
208
212
216
220
224
228
232
236
240
244
248
252
256
260
264
268
272
276
280
284
288
292
296
300
304
308
312
316
320
324
328
332
336
340
344
348
352
356
360
364
368
372
376
380
384
388
392
396
400
404
408
412
416
420
424
428
432
436
440
444
448
452
456
460
464
468
472
476
480
484
488
492
496
500
504
508
512
516
520
524
528
532
536
540
544
548
552
556
560
564
568
572
576
580
584
588
592
596
600
604
608
612
616
620
624
628
632
636
640
</DataArray>
<DataArray Name="types" type="UInt8" format="ascii">
9
9
9
9
9
9
9
9
9
9
9
9
9
9
9
9
9
9
9
9
9
9
9
9
9
9
9
9
9
9
9
9
9
9
9
9
9
9
9
9
9
9
9
9
9
9
9
9
9
9
9
9
9
9
9
9
9
9
9
9
9
9
9
9
9
9
9
9
9
9
9
9
9
9
9
9
9
9
9
9
9
9
9
9
9
9
9
9
9
9
9
9
9
9
9
9
9
9
9
9
9
9
9
9
9
9
9
9
9
9
9
9
9
9
9
9
9
9
9
9
9
9
9
9
9
9
9
9
9
9
9
9
9
9
9
9
9
9
9
9
9
9
9
9
9
9
9
9
9
9
9
9
9
9
9
9
9
9
9
9
</DataArray>
</Cells>
<PointData>
<DataArray Name="disp" type="Float64" NumberOfComponents="3" format="ascii">
0.000000e+00 0.000000e+00 0.000000e+00
0.000000e+00 -2.833868e-03 0.000000e+00
0.000000e+00 -6.836808e-03 0.000000e+00
0.000000e+00 -1.254804e-02 0.000000e+00
0.000000e+00 -1.989852e-02 0.000000e+00
0.000000e+00 -2.793614e-02 0.000000e+00
0.000000e+00 -3.621791e-02 0.000000e+00
0.000000e+00 -4.422752e-02 0.000000e+00
0.000000e+00 -5.069055e-02 0.000000e+00
0.000000e+00 -5.478517e-02 0.000000e+00
0.000000e+00 -5.850000e-02 0.000000e+00
0.000000e+00 0.000000e+00 0.000000e+00
1.431168e-03 -2.822789e-03 0.000000e+00
3.384427e-03 -6.791782e-03 0.000000e+00
5.622317e-03 -1.189540e-02 0.000000e+00
7.020937e-03 -1.820873e-02 0.000000e+00
7.509644e-03 -2.540845e-02 0.000000e+00
7.291865e-03 -3.304393e-02 0.000000e+00
6.067672e-03 -4.070042e-02 0.000000e+00
3.314674e-03 -4.808619e-02 0.000000e+00
4.904813e-04 -5.453072e-02 0.000000e+00
0.000000e+00 -5.850000e-02 0.000000e+00
0.000000e+00 0.000000e+00 0.000000e+00
3.081557e-03 -2.468134e-03 0.000000e+00
6.306769e-03 -5.738666e-03 0.000000e+00
9.207126e-03 -9.462274e-03 0.000000e+00
1.145655e-02 -1.353303e-02 0.000000e+00
1.283717e-02 -1.823748e-02 0.000000e+00
1.332549e-02 -2.387449e-02 0.000000e+00
1.274390e-02 -3.069402e-02 0.000000e+00
1.047932e-02 -3.915716e-02 0.000000e+00
6.673369e-03 -4.873344e-02 0.000000e+00
0.000000e+00 -5.850000e-02 0.000000e+00
0.000000e+00 0.000000e+00 0.000000e+00
4.303080e-03 -1.456906e-03 0.000000e+00
8.002345e-03 -3.095805e-03 0.000000e+00
1.093718e-02 -4.622151e-03 0.000000e+00
1.330984e-02 -5.950809e-03 0.000000e+00
1.505252e-02 -7.050487e-03 0.000000e+00
1.611735e-02 -7.844655e-03 0.000000e+00
1.633323e-02 -8.313466e-03 0.000000e+00
1.508827e-02 -8.276239e-03 0.000000e+00
1.203027e-02 -7.918647e-03 0.000000e+00
6.416106e-03 -7.643722e-03 0.000000e+00
0.000000e+00 0.000000e+00 0.000000e+00
4.699181e-03 -1.058950e-03 0.000000e+00
8.101312e-03 -2.041978e-03 0.000000e+00
1.067348e-02 -2.802502e-03 0.000000e+00
1.270609e-02 -3.330025e-03 0.000000e+00
1.415053e-02 -3.596393e-03 0.000000e+00
1.490333e-02 -3.581850e-03 0.000000e+00
1.474261e-02 -3.233552e-03 0.000000e+00
1.334843e-02 -2.671784e-03 0.000000e+00
1.059061e-02 -2.137549e-03 0.000000e+00
6.785012e-03 -2.118379e-03 0.000000e+00
0.000000e+00 0.000000e+00 0.000000e+00
4.727075e-03 -6.456358e-04 0.000000e+00
7.659004e-03 -1.143884e-03 0.000000e+00
9.907253e-03 -1.420681e-03 0.000000e+00
1.163064e-02 -1.478906e-03 0.000000e+00
1.278900e-02 -1.304481e-03 0.000000e+00
1.327497e-02 -8.739857e-04 0.000000e+00
1.294929e-02 -2.236751e-04 0.000000e+00
1.168614e-02 4.947681e-04 0.000000e+00
9.615523e-03 9.973368e-04 0.000000e+00
7.283024e-03 1.075336e-03 0.000000e+00
0.000000e+00 0.000000e+00 0.000000e+00
4.389201e-03 -3.119334e-04 0.000000e+00
6.943053e-03 -4.899952e-04 0.000000e+00
8.883803e-03 -4.800861e-04 0.000000e+00
1.033127e-02 -2.668211e-04 0.000000e+00
1.126069e-02 1.689935e-04 0.000000e+00
1.157775e-02 8.076537e-04 0.000000e+00
1.122808e-02 1.573998e-03 0.000000e+00
1.024900e-02 2.287361e-03 0.000000e+00
8.857179e-03 2.753737e-03 0.000000e+00
7.489674e-03 2.870280e-03 0.000000e+00
0.000000e+00 0.000000e+00 0.000000e+00
3.850254e-03 -1.186917e-04 0.000000e+00
6.075663e-03 -9.504110e-05 0.000000e+00
7.739708e-03 1.086950e-04 0.000000e+00
8.963906e-03 5.011030e-04 0.000000e+00
9.707037e-03 1.077202e-03 0.000000e+00
9.933230e-03 1.798727e-03 0.000000e+00
9.666821e-03 2.555109e-03 0.000000e+00
9.012580e-03 3.212460e-03 0.000000e+00
8.163872e-03 3.648261e-03 0.000000e+00
7.436913e-03 3.817828e-03 0.000000e+00
0.000000e+00 0.000000e+00 0.000000e+00
3.219282e-03 -2.330367e-05 0.000000e+00
5.140268e-03 1.357979e-04 0.000000e+00
6.574899e-03 4.527192e-04 0.000000e+00
7.602617e-03 9.339685e-04 0.000000e+00
8.210148e-03 1.561860e-03 0.000000e+00
8.412600e-03 2.270005e-03 0.000000e+00
8.278853e-03 2.971462e-03 0.000000e+00
7.907336e-03 3.575098e-03 0.000000e+00
7.460910e-03 3.996925e-03 0.000000e+00
7.154980e-03 4.221990e-03 0.000000e+00
0.000000e+00 0.000000e+00 0.000000e+00
2.581147e-03 1.861549e-05 0.000000e+00
4.214345e-03 2.383776e-04 0.000000e+00
5.441780e-03 6.064076e-04 0.000000e+00
6.304753e-03 1.113779e-03 0.000000e+00
6.819517e-03 1.724711e-03 0.000000e+00
7.040130e-03 2.381560e-03 0.000000e+00
7.030037e-03 3.024835e-03 0.000000e+00
6.876779e-03 3.583188e-03 0.000000e+00
6.710771e-03 4.004869e-03 0.000000e+00
6.671621e-03 4.288940e-03 0.000000e+00
0.000000e+00 0.000000e+00 0.000000e+00
1.988011e-03 2.935003e-05 0.000000e+00
3.348146e-03 2.561158e-04 0.000000e+00
4.377924e-03 6.227115e-04 0.000000e+00
5.104958e-03 1.110130e-03 0.000000e+00
5.561446e-03 1.673847e-03 0.000000e+00
5.803341e-03 2.273652e-03 0.000000e+00
5.885295e-03 2.859243e-03 0.000000e+00
5.883971e-03 3.382997e-03 0.000000e+00
5.898576e-03 3.813386e-03 0.000000e+00
6.016193e-03 4.155428e-03 0.000000e+00
0.000000e+00 0.000000e+00 0.000000e+00
1.471146e-03 1.703517e-05 0.000000e+00
2.565003e-03 2.182032e-04 0.000000e+00
3.412694e-03 5.511014e-04 0.000000e+00
4.020432e-03 9.916535e-04 0.000000e+00
4.428574e-03 1.502113e-03 0.000000e+00
4.677417e-03 2.044969e-03 0.000000e+00
4.816693e-03 2.582286e-03 0.000000e+00
4.907793e-03 3.080769e-03 0.000000e+00
5.022053e-03 3.523612e-03 0.000000e+00
5.215555e-03 3.921614e-03 0.000000e+00
0.000000e+00 0.000000e+00 0.000000e+00
1.043070e-03 -1.599271e-06 0.000000e+00
1.887003e-03 1.530636e-04 0.000000e+00
2.555259e-03 4.345093e-04 0.000000e+00
3.052639e-03 8.207193e-04 0.000000e+00
3.404889e-03 1.278396e-03 0.000000e+00
3.640948e-03 1.771976e-03 0.000000e+00
3.801586e-03 2.270964e-03 0.000000e+00
3.934510e-03 2.752280e-03 0.000000e+00
4.087703e-03 3.208888e-03 0.000000e+00
4.297186e-03 3.654186e-03 0.000000e+00
0.000000e+00 0.000000e+00 0.000000e+00
7.063964e-04 -2.781147e-05 0.000000e+00
1.313170e-03 8.149438e-05 0.000000e+00
1.808733e-03 3.152825e-04 0.000000e+00
2.188231e-03 6.485095e-04 0.000000e+00
2.469535e-03 1.058377e-03 0.000000e+00
2.671755e-03 1.511718e-03 0.000000e+00
2.822832e-03 1.981150e-03 0.000000e+00
2.957472e-03 2.451908e-03 0.000000e+00
3.105997e-03 2.922292e-03 0.000000e+00
3.292487e-03 3.403456e-03 0.000000e+00
0.000000e+00 0.000000e+00 0.000000e+00
4.377685e-04 -4.993720e-05 0.000000e+00
8.248913e-04 2.382920e-05 0.000000e+00
1.152819e-03 2.183606e-04 0.000000e+00
1.410399e-03 5.125513e-04 0.000000e+00
1.604133e-03 8.814717e-04 0.000000e+00
1.751960e-03 1.302988e-03 0.000000e+00
1.869065e-03 1.752365e-03 0.000000e+00
1.975078e-03 2.216981e-03 0.000000e+00
2.089021e-03 2.697486e-03 0.000000e+00
2.225717e-03 3.203783e-03 0.000000e+00
0.000000e+00 0.000000e+00 0.000000e+00
2.106826e-04 -6.285631e-05 0.000000e+00
3.974542e-04 -7.258740e-06 0.000000e+00
5.600007e-04 1.626159e-04 0.000000e+00
6.905802e-04 4.321267e-04 0.000000e+00
7.890609e-04 7.758702e-04 0.000000e+00
8.661799e-04 1.174373e-03 0.000000e+00
9.301808e-04 1.610102e-03 0.000000e+00
9.881335e-04 2.070929e-03 0.000000e+00
1.049414e-03 2.557222e-03 0.000000e+00
1.121143e-03 3.076523e-03 0.000000e+00
0.000000e+00 0.000000e+00 0.000000e+00
0.000000e+00 -5.456937e-05 0.000000e+00
0.000000e+00 -2.957166e-06 0.000000e+00
0.000000e+00 1.586045e-04 0.000000e+00
0.000000e+00 4.185774e-04 0.000000e+00
0.000000e+00 7.526477e-04 0.000000e+00
0.000000e+00 1.141128e-03 0.000000e+00
0.000000e+00 1.569690e-03 0.000000e+00
0.000000e+00 2.026834e-03 0.000000e+00
0.000000e+00 2.512336e-03 0.000000e+00
0.000000e+00 3.034150e-03 0.000000e+00
</DataArray>
<DataArray Name="shear" type="Float64" NumberOfComponents="1" format="ascii">
1.654610e-02
2.409905e-02
3.938802e-02
5.620236e-02
6.826700e-02
7.356933e-02
7.299874e-02
6.387753e-02
4.450504e-02
2.582858e-02
1.990806e-02
1.792116e-02
2.532945e-02
3.822753e-02
5.058796e-02
6.095755e-02
6.815054e-02
7.131454e-02
6.883636e-02
5.944398e-02
4.293270e-02
2.981240e-02
2.136745e-02
2.720414e-02
3.557967e-02
4.248415e-02
5.074830e-02
6.136891e-02
7.343942e-02
8.545747e-02
9.645019e-02
1.009353e-01
9.999230e-02
2.374748e-02
2.560103e-02
2.774189e-02
3.041061e-02
3.466158e-02
4.080590e-02
4.921766e-02
5.928179e-02
7.125221e-02
8.361792e-02
9.314140e-02
2.452324e-02
2.274291e-02
1.969475e-02
1.876050e-02
1.875621e-02
1.875749e-02
1.838117e-02
1.687842e-02
1.332192e-02
6.766629e-03
8.755982e-04
2.414240e-02
2.087316e-02
1.648320e-02
1.542970e-02
1.507068e-02
1.474685e-02
1.417471e-02
1.278773e-02
9.878854e-03
4.894960e-03
1.231688e-03
2.223523e-02
1.851450e-02
1.393990e-02
1.303875e-02
1.278028e-02
1.262387e-02
1.223430e-02
1.110023e-02
8.648838e-03
4.689465e-03
1.801832e-03
1.941685e-02
1.599018e-02
1.202185e-02
1.138936e-02
1.132510e-02
1.132878e-02
1.102272e-02
9.968087e-03
7.883175e-03
4.756311e-03
2.542996e-03
1.622813e-02
1.351002e-02
1.053669e-02
1.012357e-02
1.018113e-02
1.024923e-02
9.960588e-03
9.047568e-03
7.368867e-03
4.991163e-03
3.411829e-03
1.302973e-02
1.112531e-02
9.164523e-03
8.974128e-03
9.120173e-03
9.222271e-03
9.007521e-03
8.308167e-03
7.042006e-03
5.346355e-03
4.298602e-03
1.005399e-02
8.883384e-03
7.810356e-03
7.849952e-03
8.104896e-03
8.274206e-03
8.182650e-03
7.714865e-03
6.850766e-03
5.759403e-03
5.134871e-03
7.451794e-03
6.842892e-03
6.468894e-03
6.750999e-03
7.153346e-03
7.439171e-03
7.491560e-03
7.253406e-03
6.755989e-03
6.175261e-03
5.882662e-03
5.289679e-03
5.051091e-03
5.177167e-03
5.718262e-03
6.300466e-03
6.731302e-03
6.934299e-03
6.910706e-03
6.727939e-03
6.544796e-03
6.494853e-03
3.568073e-03
3.535500e-03
4.035413e-03
4.822571e-03
5.574233e-03
6.154019e-03
6.503998e-03
6.666235e-03
6.736750e-03
6.840843e-03
6.954968e-03
2.201867e-03
2.307870e-03
3.127040e-03
4.136531e-03
5.019336e-03
5.708601e-03
6.188245e-03
6.502669e-03
6.755759e-03
7.050500e-03
7.270058e-03
1.064353e-03
1.372722e-03
2.524927e-03
3.698895e-03
4.674090e-03
5.421822e-03
5.980872e-03
6.400398e-03
6.765080e-03
7.165620e-03
7.440927e-03
3.644043e-04
9.765076e-04
2.313548e-03
3.543557e-03
4.551928e-03
5.318453e-03
5.902158e-03
6.359388e-03
6.761950e-03
7.196813e-03
7.490207e-03
</DataArray>
<DataArray Name="stress" type="Float64" NumberOfComponents="9" format="ascii">
-1.153959e+05 5.261212e+03 0.000000e+00 5.261212e+03 -1.958225e+05 0.000000e+00 0.000000e+00 0.000000e+00 0.000000e+00
-1.017314e+05 4.044334e+03 0.000000e+00 4.044334e+03 -1.953216e+05 0.000000e+00 0.000000e+00 0.000000e+00 0.000000e+00
-9.783973e+04 2.924677e+03 0.000000e+00 2.924677e+03 -2.054951e+05 0.000000e+00 0.000000e+00 0.000000e+00 0.000000e+00
-1.078389e+05 2.756147e+03 0.000000e+00 2.756147e+03 -2.058503e+05 0.000000e+00 0.000000e+00 0.000000e+00 0.000000e+00
-1.128288e+05 4.917684e+03 0.000000e+00 4.917684e+03 -2.155579e+05 0.000000e+00 0.000000e+00 0.000000e+00 0.000000e+00
-1.181443e+05 7.588491e+03 0.000000e+00 7.588491e+03 -2.254353e+05 0.000000e+00 0.000000e+00 0.000000e+00 0.000000e+00
-1.253011e+05 1.021896e+04 0.000000e+00 1.021896e+04 -2.389204e+05 0.000000e+00 0.000000e+00 0.000000e+00 0.000000e+00
-1.334538e+05 9.764221e+03 0.000000e+00 9.764221e+03 -2.488326e+05 0.000000e+00 0.000000e+00 0.000000e+00 0.000000e+00
-1.321910e+05 4.883184e+03 0.000000e+00 4.883184e+03 -2.660233e+05 0.000000e+00 0.000000e+00 0.000000e+00 0.000000e+00
-1.444889e+05 -9.221462e+02 0.000000e+00 -9.221462e+02 -2.688888e+05 0.000000e+00 0.000000e+00 0.000000e+00 0.000000e+00
-1.515246e+05 -8.240734e+02 0.000000e+00 -8.240734e+02 -2.614450e+05 0.000000e+00 0.000000e+00 0.000000e+00 0.000000e+00
-1.154823e+05 1.545273e+04 0.000000e+00 1.545273e+04 -1.892056e+05 0.000000e+00 0.000000e+00 0.000000e+00 0.000000e+00
-1.017701e+05 1.302647e+04 0.000000e+00 1.302647e+04 -1.866634e+05 0.000000e+00 0.000000e+00 0.000000e+00 0.000000e+00
-9.761866e+04 1.148831e+04 0.000000e+00 1.148831e+04 -1.966705e+05 0.000000e+00 0.000000e+00 0.000000e+00 0.000000e+00
-1.048407e+05 1.161767e+04 0.000000e+00 1.161767e+04 -2.068032e+05 0.000000e+00 0.000000e+00 0.000000e+00 0.000000e+00
-1.124110e+05 1.241315e+04 0.000000e+00 1.241315e+04 -2.191525e+05 0.000000e+00 0.000000e+00 0.000000e+00 0.000000e+00
-1.189902e+05 1.389289e+04 0.000000e+00 1.389289e+04 -2.299457e+05 0.000000e+00 0.000000e+00 0.000000e+00 0.000000e+00
-1.242811e+05 1.470286e+04 0.000000e+00 1.470286e+04 -2.397776e+05 0.000000e+00 0.000000e+00 0.000000e+00 0.000000e+00
-1.312524e+05 1.203282e+04 0.000000e+00 1.203282e+04 -2.463641e+05 0.000000e+00 0.000000e+00 0.000000e+00 0.000000e+00
-1.342672e+05 7.069220e+03 0.000000e+00 7.069220e+03 -2.606450e+05 0.000000e+00 0.000000e+00 0.000000e+00 0.000000e+00
-1.391119e+05 -3.586674e+02 0.000000e+00 -3.586674e+02 -2.646719e+05 0.000000e+00 0.000000e+00 0.000000e+00 0.000000e+00
-1.576054e+05 -6.712791e+03 0.000000e+00 -6.712791e+03 -2.916066e+05 0.000000e+00 0.000000e+00 0.000000e+00 0.000000e+00
-1.126468e+05 2.646612e+04 0.000000e+00 2.646612e+04 -1.657912e+05 0.000000e+00 0.000000e+00 0.000000e+00 0.000000e+00
-1.006739e+05 2.340919e+04 0.000000e+00 2.340919e+04 -1.604241e+05 0.000000e+00 0.000000e+00 0.000000e+00 0.000000e+00
-9.938996e+04 2.319170e+04 0.000000e+00 2.319170e+04 -1.676248e+05 0.000000e+00 0.000000e+00 0.000000e+00 0.000000e+00
-1.063046e+05 2.579484e+04 0.000000e+00 2.579484e+04 -1.784808e+05 0.000000e+00 0.000000e+00 0.000000e+00 0.000000e+00
-1.143099e+05 2.773400e+04 0.000000e+00 2.773400e+04 -1.886197e+05 0.000000e+00 0.000000e+00 0.000000e+00 0.000000e+00
-1.231444e+05 3.005927e+04 0.000000e+00 3.005927e+04 -1.997863e+05 0.000000e+00 0.000000e+00 0.000000e+00 0.000000e+00
-1.335734e+05 3.172220e+04 0.000000e+00 3.172220e+04 -2.134179e+05 0.000000e+00 0.000000e+00 0.000000e+00 0.000000e+00
-1.481749e+05 3.351396e+04 0.000000e+00 3.351396e+04 -2.281483e+05 0.000000e+00 0.000000e+00 0.000000e+00 0.000000e+00
-1.571255e+05 3.328823e+04 0.000000e+00 3.328823e+04 -2.462556e+05 0.000000e+00 0.000000e+00 0.000000e+00 0.000000e+00
-1.644611e+05 2.498131e+04 0.000000e+00 2.498131e+04 -2.636122e+05 0.000000e+00 0.000000e+00 0.000000e+00 0.000000e+00
-1.836325e+05 7.253394e+03 0.000000e+00 7.253394e+03 -3.045249e+05 0.000000e+00 0.000000e+00 0.000000e+00 0.000000e+00
-1.033935e+05 2.821737e+04 0.000000e+00 2.821737e+04 -1.319654e+05 0.000000e+00 0.000000e+00 0.000000e+00 0.000000e+00
-9.523890e+04 2.610551e+04 0.000000e+00 2.610551e+04 -1.271095e+05 0.000000e+00 0.000000e+00 0.000000e+00 0.000000e+00
-9.621535e+04 2.669024e+04 0.000000e+00 2.669024e+04 -1.281373e+05 0.000000e+00 0.000000e+00 0.000000e+00 0.000000e+00
-1.025796e+05 2.875692e+04 0.000000e+00 2.875692e+04 -1.285028e+05 0.000000e+00 0.000000e+00 0.000000e+00 0.000000e+00
-1.083138e+05 2.991093e+04 0.000000e+00 2.991093e+04 -1.266326e+05 0.000000e+00 0.000000e+00 0.000000e+00 0.000000e+00
-1.125569e+05 3.145434e+04 0.000000e+00 3.145434e+04 -1.240009e+05 0.000000e+00 0.000000e+00 0.000000e+00 0.000000e+00
-1.147433e+05 3.125427e+04 0.000000e+00 3.125427e+04 -1.183701e+05 0.000000e+00 0.000000e+00 0.000000e+00 0.000000e+00
-1.142095e+05 2.892698e+04 0.000000e+00 2.892698e+04 -1.091976e+05 0.000000e+00 0.000000e+00 0.000000e+00 0.000000e+00
-1.075351e+05 2.383240e+04 0.000000e+00 2.383240e+04 -9.743760e+04 0.000000e+00 0.000000e+00 0.000000e+00 0.000000e+00
-8.662554e+04 1.493162e+04 0.000000e+00 1.493162e+04 -7.940627e+04 0.000000e+00 0.000000e+00 0.000000e+00 0.000000e+00
-6.330005e+04 9.409077e+03 0.000000e+00 9.409077e+03 -6.696477e+04 0.000000e+00 0.000000e+00 0.000000e+00 0.000000e+00
-9.919909e+04 2.771365e+04 0.000000e+00 2.771365e+04 -1.136328e+05 0.000000e+00 0.000000e+00 0.000000e+00 0.000000e+00
-9.550765e+04 2.658489e+04 0.000000e+00 2.658489e+04 -1.115668e+05 0.000000e+00 0.000000e+00 0.000000e+00 0.000000e+00
-9.982713e+04 2.712814e+04 0.000000e+00 2.712814e+04 -1.122844e+05 0.000000e+00 0.000000e+00 0.000000e+00 0.000000e+00
-1.072021e+05 2.806115e+04 0.000000e+00 2.806115e+04 -1.106105e+05 0.000000e+00 0.000000e+00 0.000000e+00 0.000000e+00
-1.140206e+05 2.826681e+04 0.000000e+00 2.826681e+04 -1.072136e+05 0.000000e+00 0.000000e+00 0.000000e+00 0.000000e+00
-1.188943e+05 2.745752e+04 0.000000e+00 2.745752e+04 -1.019122e+05 0.000000e+00 0.000000e+00 0.000000e+00 0.000000e+00
-1.219524e+05 2.523199e+04 0.000000e+00 2.523199e+04 -9.496076e+04 0.000000e+00 0.000000e+00 0.000000e+00 0.000000e+00
-1.226709e+05 2.089523e+04 0.000000e+00 2.089523e+04 -8.670242e+04 0.000000e+00 0.000000e+00 0.000000e+00 0.000000e+00
-1.165619e+05 1.391413e+04 0.000000e+00 1.391413e+04 -7.715098e+04 0.000000e+00 0.000000e+00 0.000000e+00 0.000000e+00
-9.561959e+04 5.055167e+03 0.000000e+00 5.055167e+03 -6.861473e+04 0.000000e+00 0.000000e+00 0.000000e+00 0.000000e+00
-6.130441e+04 3.862368e+02 0.000000e+00 3.862368e+02 -5.702938e+04 0.000000e+00 0.000000e+00 0.000000e+00 0.000000e+00
-9.310988e+04 2.612487e+04 0.000000e+00 2.612487e+04 -9.974634e+04 0.000000e+00 0.000000e+00 0.000000e+00 0.000000e+00
-9.419227e+04 2.583719e+04 0.000000e+00 2.583719e+04 -9.944989e+04 0.000000e+00 0.000000e+00 0.000000e+00 0.000000e+00
-1.003386e+05 2.536836e+04 0.000000e+00 2.536836e+04 -9.809370e+04 0.000000e+00 0.000000e+00 0.000000e+00 0.000000e+00
-1.075658e+05 2.472902e+04 0.000000e+00 2.472902e+04 -9.472199e+04 0.000000e+00 0.000000e+00 0.000000e+00 0.000000e+00
-1.132897e+05 2.336953e+04 0.000000e+00 2.336953e+04 -9.063170e+04 0.000000e+00 0.000000e+00 0.000000e+00 0.000000e+00
-1.168952e+05 2.102328e+04 0.000000e+00 2.102328e+04 -8.560343e+04 0.000000e+00 0.000000e+00 0.000000e+00 0.000000e+00
-1.182835e+05 1.731875e+04 0.000000e+00 1.731875e+04 -7.965963e+04 0.000000e+00 0.000000e+00 0.000000e+00 0.000000e+00
-1.164062e+05 1.185238e+04 0.000000e+00 1.185238e+04 -7.328631e+04 0.000000e+00 0.000000e+00 0.000000e+00 0.000000e+00
-1.080196e+05 4.852466e+03 0.000000e+00 4.852466e+03 -6.721073e+04 0.000000e+00 0.000000e+00 0.000000e+00 0.000000e+00
-8.722745e+04 -1.156721e+03 0.000000e+00 -1.156721e+03 -6.252168e+04 0.000000e+00 0.000000e+00 0.000000e+00 0.000000e+00
-6.042889e+04 -2.904866e+03 0.000000e+00 -2.904866e+03 -5.656454e+04 0.000000e+00 0.000000e+00 0.000000e+00 0.000000e+00
-8.621692e+04 2.416393e+04 0.000000e+00 2.416393e+04 -8.834019e+04 0.000000e+00 0.000000e+00 0.000000e+00 0.000000e+00
-9.251393e+04 2.402566e+04 0.000000e+00 2.402566e+04 -8.940277e+04 0.000000e+00 0.000000e+00 0.000000e+00 0.000000e+00
-9.976385e+04 2.244940e+04 0.000000e+00 2.244940e+04 -8.682012e+04 0.000000e+00 0.000000e+00 0.000000e+00 0.000000e+00
-1.063490e+05 2.091716e+04 0.000000e+00 2.091716e+04 -8.366700e+04 0.000000e+00 0.000000e+00 0.000000e+00 0.000000e+00
-1.109117e+05 1.858443e+04 0.000000e+00 1.858443e+04 -7.984251e+04 0.000000e+00 0.000000e+00 0.000000e+00 0.000000e+00
-1.133042e+05 1.527993e+04 0.000000e+00 1.527993e+04 -7.538452e+04 0.000000e+00 0.000000e+00 0.000000e+00 0.000000e+00
-1.131625e+05 1.094665e+04 0.000000e+00 1.094665e+04 -7.073075e+04 0.000000e+00 0.000000e+00 0.000000e+00 0.000000e+00
-1.097016e+05 5.584564e+03 0.000000e+00 5.584564e+03 -6.626881e+04 0.000000e+00 0.000000e+00 0.000000e+00 0.000000e+00
-1.008956e+05 -5.473379e+01 0.000000e+00 -5.473379e+01 -6.260516e+04 0.000000e+00 0.000000e+00 0.000000e+00 0.000000e+00
-8.436134e+04 -3.168950e+03 0.000000e+00 -3.168950e+03 -6.039232e+04 0.000000e+00 0.000000e+00 0.000000e+00 0.000000e+00
-6.651398e+04 -3.360401e+03 0.000000e+00 -3.360401e+03 -5.730113e+04 0.000000e+00 0.000000e+00 0.000000e+00 0.000000e+00
-8.073439e+04 2.209125e+04 0.000000e+00 2.209125e+04 -7.983743e+04 0.000000e+00 0.000000e+00 0.000000e+00 0.000000e+00
-9.017036e+04 2.181731e+04 0.000000e+00 2.181731e+04 -8.147734e+04 0.000000e+00 0.000000e+00 0.000000e+00 0.000000e+00
-9.812336e+04 1.952731e+04 0.000000e+00 1.952731e+04 -7.872359e+04 0.000000e+00 0.000000e+00 0.000000e+00 0.000000e+00
-1.039073e+05 1.722880e+04 0.000000e+00 1.722880e+04 -7.572476e+04 0.000000e+00 0.000000e+00 0.000000e+00 0.000000e+00
-1.075733e+05 1.423458e+04 0.000000e+00 1.423458e+04 -7.236741e+04 0.000000e+00 0.000000e+00 0.000000e+00 0.000000e+00
-1.090274e+05 1.062359e+04 0.000000e+00 1.062359e+04 -6.888777e+04 0.000000e+00 0.000000e+00 0.000000e+00 0.000000e+00
-1.079983e+05 6.348647e+03 0.000000e+00 6.348647e+03 -6.545806e+04 0.000000e+00 0.000000e+00 0.000000e+00 0.000000e+00
-1.039888e+05 1.681574e+03 0.000000e+00 1.681574e+03 -6.244703e+04 0.000000e+00 0.000000e+00 0.000000e+00 0.000000e+00
-9.616416e+04 -2.303454e+03 0.000000e+00 -2.303454e+03 -6.046343e+04 0.000000e+00 0.000000e+00 0.000000e+00 0.000000e+00
-8.434919e+04 -3.520795e+03 0.000000e+00 -3.520795e+03 -5.965317e+04 0.000000e+00 0.000000e+00 0.000000e+00 0.000000e+00
-7.307706e+04 -2.929266e+03 0.000000e+00 -2.929266e+03 -5.789132e+04 0.000000e+00 0.000000e+00 0.000000e+00 0.000000e+00
-7.676822e+04 2.011980e+04 0.000000e+00 2.011980e+04 -7.357920e+04 0.000000e+00 0.000000e+00 0.000000e+00 0.000000e+00
-8.730696e+04 1.959545e+04 0.000000e+00 1.959545e+04 -7.540459e+04 0.000000e+00 0.000000e+00 0.000000e+00 0.000000e+00
-9.560246e+04 1.674651e+04 0.000000e+00 1.674651e+04 -7.268211e+04 0.000000e+00 0.000000e+00 0.000000e+00 0.000000e+00
-1.008910e+05 1.391909e+04 0.000000e+00 1.391909e+04 -7.003217e+04 0.000000e+00 0.000000e+00 0.000000e+00 0.000000e+00
-1.038958e+05 1.075417e+04 0.000000e+00 1.075417e+04 -6.735494e+04 0.000000e+00 0.000000e+00 0.000000e+00 0.000000e+00
-1.047796e+05 7.136251e+03 0.000000e+00 7.136251e+03 -6.471721e+04 0.000000e+00 0.000000e+00 0.000000e+00 0.000000e+00
-1.033640e+05 3.209996e+03 0.000000e+00 3.209996e+03 -6.226512e+04 0.000000e+00 0.000000e+00 0.000000e+00 0.000000e+00
-9.953172e+04 -5.232234e+02 0.000000e+00 -5.232234e+02 -6.042617e+04 0.000000e+00 0.000000e+00 0.000000e+00 0.000000e+00
-9.343041e+04 -3.108215e+03 0.000000e+00 -3.108215e+03 -5.955094e+04 0.000000e+00 0.000000e+00 0.000000e+00 0.000000e+00
-8.563799e+04 -3.222370e+03 0.000000e+00 -3.222370e+03 -5.945231e+04 0.000000e+00 0.000000e+00 0.000000e+00 0.000000e+00
-7.881053e+04 -2.305174e+03 0.000000e+00 -2.305174e+03 -5.845752e+04 0.000000e+00 0.000000e+00 0.000000e+00 0.000000e+00
-7.351037e+04 1.795675e+04 0.000000e+00 1.795675e+04 -6.913872e+04 0.000000e+00 0.000000e+00 0.000000e+00 0.000000e+00
-8.415519e+04 1.732153e+04 0.000000e+00 1.732153e+04 -7.082888e+04 0.000000e+00 0.000000e+00 0.000000e+00 0.000000e+00
-9.256316e+04 1.420059e+04 0.000000e+00 1.420059e+04 -6.826691e+04 0.000000e+00 0.000000e+00 0.000000e+00 0.000000e+00
-9.761266e+04 1.122871e+04 0.000000e+00 1.122871e+04 -6.611811e+04 0.000000e+00 0.000000e+00 0.000000e+00 0.000000e+00
-1.002087e+05 8.045829e+03 0.000000e+00 8.045829e+03 -6.401369e+04 0.000000e+00 0.000000e+00 0.000000e+00 0.000000e+00
-1.007925e+05 4.626455e+03 0.000000e+00 4.626455e+03 -6.204309e+04 0.000000e+00 0.000000e+00 0.000000e+00 0.000000e+00
-9.939534e+04 1.232574e+03 0.000000e+00 1.232574e+03 -6.042141e+04 0.000000e+00 0.000000e+00 0.000000e+00 0.000000e+00
-9.630997e+04 -1.592820e+03 0.000000e+00 -1.592820e+03 -5.945434e+04 0.000000e+00 0.000000e+00 0.000000e+00 0.000000e+00
-9.210937e+04 -3.153521e+03 0.000000e+00 -3.153521e+03 -5.922078e+04 0.000000e+00 0.000000e+00 0.000000e+00 0.000000e+00
-8.736255e+04 -2.708672e+03 0.000000e+00 -2.708672e+03 -5.944709e+04 0.000000e+00 0.000000e+00 0.000000e+00 0.000000e+00
-8.345519e+04 -1.728391e+03 0.000000e+00 -1.728391e+03 -5.895648e+04 0.000000e+00 0.000000e+00 0.000000e+00 0.000000e+00
-7.051355e+04 1.579883e+04 0.000000e+00 1.579883e+04 -6.621234e+04 0.000000e+00 0.000000e+00 0.000000e+00 0.000000e+00
-8.088178e+04 1.510221e+04 0.000000e+00 1.510221e+04 -6.761572e+04 0.000000e+00 0.000000e+00 0.000000e+00 0.000000e+00
-8.939688e+04 1.202253e+04 0.000000e+00 1.202253e+04 -6.533276e+04 0.000000e+00 0.000000e+00 0.000000e+00 0.000000e+00
-9.426001e+04 9.075601e+03 0.000000e+00 9.075601e+03 -6.353246e+04 0.000000e+00 0.000000e+00 0.000000e+00 0.000000e+00
-9.666334e+04 6.003166e+03 0.000000e+00 6.003166e+03 -6.188958e+04 0.000000e+00 0.000000e+00 0.000000e+00 0.000000e+00
-9.719721e+04 2.908415e+03 0.000000e+00 2.908415e+03 -6.045976e+04 0.000000e+00 0.000000e+00 0.000000e+00 0.000000e+00
-9.619688e+04 1.075918e+02 0.000000e+00 1.075918e+02 -5.947036e+04 0.000000e+00 0.000000e+00 0.000000e+00 0.000000e+00
-9.414447e+04 -1.953537e+03 0.000000e+00 -1.953537e+03 -5.904330e+04 0.000000e+00 0.000000e+00 0.000000e+00 0.000000e+00
-9.162734e+04 -2.820497e+03 0.000000e+00 -2.820497e+03 -5.914969e+04 0.000000e+00 0.000000e+00 0.000000e+00 0.000000e+00
-8.908616e+04 -2.167130e+03 0.000000e+00 -2.167130e+03 -5.952641e+04 0.000000e+00 0.000000e+00 0.000000e+00 0.000000e+00
-8.713733e+04 -1.266179e+03 0.000000e+00 -1.266179e+03 -5.936799e+04 0.000000e+00 0.000000e+00 0.000000e+00 0.000000e+00
-6.817952e+04 1.364334e+04 0.000000e+00 1.364334e+04 -6.454334e+04 0.000000e+00 0.000000e+00 0.000000e+00 0.000000e+00
-7.785278e+04 1.291117e+04 0.000000e+00 1.291117e+04 -6.551186e+04 0.000000e+00 0.000000e+00 0.000000e+00 0.000000e+00
-8.625645e+04 1.009661e+04 0.000000e+00 1.009661e+04 -6.344570e+04 0.000000e+00 0.000000e+00 0.000000e+00 0.000000e+00
-9.103684e+04 7.298939e+03 0.000000e+00 7.298939e+03 -6.190671e+04 0.000000e+00 0.000000e+00 0.000000e+00 0.000000e+00
-9.340080e+04 4.469543e+03 0.000000e+00 4.469543e+03 -6.057243e+04 0.000000e+00 0.000000e+00 0.000000e+00 0.000000e+00
-9.411805e+04 1.786687e+03 0.000000e+00 1.786687e+03 -5.955896e+04 0.000000e+00 0.000000e+00 0.000000e+00 0.000000e+00
-9.374048e+04 -4.493079e+02 0.000000e+00 -4.493079e+02 -5.899671e+04 0.000000e+00 0.000000e+00 0.000000e+00 0.000000e+00
-9.273872e+04 -1.905636e+03 0.000000e+00 -1.905636e+03 -5.891664e+04 0.000000e+00 0.000000e+00 0.000000e+00 0.000000e+00
-9.159980e+04 -2.345316e+03 0.000000e+00 -2.345316e+03 -5.919497e+04 0.000000e+00 0.000000e+00 0.000000e+00 0.000000e+00
-9.060521e+04 -1.665422e+03 0.000000e+00 -1.665422e+03 -5.960693e+04 0.000000e+00 0.000000e+00 0.000000e+00 0.000000e+00
-8.995645e+04 -9.034683e+02 0.000000e+00 -9.034683e+02 -5.969189e+04 0.000000e+00 0.000000e+00 0.000000e+00 0.000000e+00
-6.683128e+04 1.140212e+04 0.000000e+00 1.140212e+04 -6.388625e+04 0.000000e+00 0.000000e+00 0.000000e+00 0.000000e+00
-7.535342e+04 1.067661e+04 0.000000e+00 1.067661e+04 -6.431625e+04 0.000000e+00 0.000000e+00 0.000000e+00 0.000000e+00
-8.339869e+04 8.314348e+03 0.000000e+00 8.314348e+03 -6.237818e+04 0.000000e+00 0.000000e+00 0.000000e+00 0.000000e+00
-8.807260e+04 5.792269e+03 0.000000e+00 5.792269e+03 -6.094075e+04 0.000000e+00 0.000000e+00 0.000000e+00 0.000000e+00
-9.050230e+04 3.295416e+03 0.000000e+00 3.295416e+03 -5.980544e+04 0.000000e+00 0.000000e+00 0.000000e+00 0.000000e+00
-9.158265e+04 1.082002e+03 0.000000e+00 1.082002e+03 -5.908117e+04 0.000000e+00 0.000000e+00 0.000000e+00 0.000000e+00
-9.189244e+04 -6.264571e+02 0.000000e+00 -6.264571e+02 -5.880630e+04 0.000000e+00 0.000000e+00 0.000000e+00 0.000000e+00
-9.184933e+04 -1.632647e+03 0.000000e+00 -1.632647e+03 -5.893672e+04 0.000000e+00 0.000000e+00 0.000000e+00 0.000000e+00
-9.177769e+04 -1.841319e+03 0.000000e+00 -1.841319e+03 -5.928920e+04 0.000000e+00 0.000000e+00 0.000000e+00 0.000000e+00
-9.186373e+04 -1.241095e+03 0.000000e+00 -1.241095e+03 -5.967901e+04 0.000000e+00 0.000000e+00 0.000000e+00 0.000000e+00
-9.208260e+04 -6.354107e+02 0.000000e+00 -6.354107e+02 -5.992166e+04 0.000000e+00 0.000000e+00 0.000000e+00 0.000000e+00
-6.596926e+04 8.954463e+03 0.000000e+00 8.954463e+03 -6.405713e+04 0.000000e+00 0.000000e+00 0.000000e+00 0.000000e+00
-7.334780e+04 8.321346e+03 0.000000e+00 8.321346e+03 -6.393745e+04 0.000000e+00 0.000000e+00 0.000000e+00 0.000000e+00
-8.088727e+04 6.436816e+03 0.000000e+00 6.436816e+03 -6.195572e+04 0.000000e+00 0.000000e+00 0.000000e+00 0.000000e+00
-8.549076e+04 4.339946e+03 0.000000e+00 4.339946e+03 -6.044377e+04 0.000000e+00 0.000000e+00 0.000000e+00 0.000000e+00
-8.813532e+04 2.337248e+03 0.000000e+00 2.337248e+03 -5.940809e+04 0.000000e+00 0.000000e+00 0.000000e+00 0.000000e+00
-8.963062e+04 6.536615e+02 0.000000e+00 6.536615e+02 -5.886871e+04 0.000000e+00 0.000000e+00 0.000000e+00 0.000000e+00
-9.057348e+04 -5.740327e+02 0.000000e+00 -5.740327e+02 -5.875942e+04 0.000000e+00 0.000000e+00 0.000000e+00 0.000000e+00
-9.129047e+04 -1.252577e+03 0.000000e+00 -1.252577e+03 -5.898633e+04 0.000000e+00 0.000000e+00 0.000000e+00 0.000000e+00
-9.199693e+04 -1.343108e+03 0.000000e+00 -1.343108e+03 -5.936973e+04 0.000000e+00 0.000000e+00 0.000000e+00 0.000000e+00
-9.284153e+04 -8.705212e+02 0.000000e+00 -8.705212e+02 -5.973420e+04 0.000000e+00 0.000000e+00 0.000000e+00 0.000000e+00
-9.364862e+04 -4.228652e+02 0.000000e+00 -4.228652e+02 -6.007654e+04 0.000000e+00 0.000000e+00 0.000000e+00 0.000000e+00
-6.537039e+04 6.163438e+03 0.000000e+00 6.163438e+03 -6.449991e+04 0.000000e+00 0.000000e+00 0.000000e+00 0.000000e+00
-7.184259e+04 5.697725e+03 0.000000e+00 5.697725e+03 -6.402545e+04 0.000000e+00 0.000000e+00 0.000000e+00 0.000000e+00
-7.892136e+04 4.386997e+03 0.000000e+00 4.386997e+03 -6.186105e+04 0.000000e+00 0.000000e+00 0.000000e+00 0.000000e+00
-8.347236e+04 2.883088e+03 0.000000e+00 2.883088e+03 -6.027164e+04 0.000000e+00 0.000000e+00 0.000000e+00 0.000000e+00
-8.638435e+04 1.497162e+03 0.000000e+00 1.497162e+03 -5.925804e+04 0.000000e+00 0.000000e+00 0.000000e+00 0.000000e+00
-8.828705e+04 3.785918e+02 0.000000e+00 3.785918e+02 -5.880893e+04 0.000000e+00 0.000000e+00 0.000000e+00 0.000000e+00
-8.967995e+04 -4.110417e+02 0.000000e+00 -4.110417e+02 -5.878586e+04 0.000000e+00 0.000000e+00 0.000000e+00 0.000000e+00
-9.093848e+04 -8.359087e+02 0.000000e+00 -8.359087e+02 -5.904587e+04 0.000000e+00 0.000000e+00 0.000000e+00 0.000000e+00
-9.219005e+04 -8.704080e+02 0.000000e+00 -8.704080e+02 -5.943403e+04 0.000000e+00 0.000000e+00 0.000000e+00 0.000000e+00
-9.351332e+04 -5.486376e+02 0.000000e+00 -5.486376e+02 -5.977870e+04 0.000000e+00 0.000000e+00 0.000000e+00 0.000000e+00
-9.470015e+04 -2.545707e+02 0.000000e+00 -2.545707e+02 -6.015908e+04 0.000000e+00 0.000000e+00 0.000000e+00 0.000000e+00
-6.502429e+04 3.067791e+03 0.000000e+00 3.067791e+03 -6.472197e+04 0.000000e+00 0.000000e+00 0.000000e+00 0.000000e+00
-7.095491e+04 2.837255e+03 0.000000e+00 2.837255e+03 -6.408197e+04 0.000000e+00 0.000000e+00 0.000000e+00 0.000000e+00
-7.768256e+04 2.192158e+03 0.000000e+00 2.192158e+03 -6.180541e+04 0.000000e+00 0.000000e+00 0.000000e+00 0.000000e+00
-8.220246e+04 1.422997e+03 0.000000e+00 1.422997e+03 -6.022946e+04 0.000000e+00 0.000000e+00 0.000000e+00 0.000000e+00
-8.530774e+04 7.286939e+02 0.000000e+00 7.286939e+02 -5.925319e+04 0.000000e+00 0.000000e+00 0.000000e+00 0.000000e+00
-8.749906e+04 1.748720e+02 0.000000e+00 1.748720e+02 -5.883982e+04 0.000000e+00 0.000000e+00 0.000000e+00 0.000000e+00
-8.917341e+04 -2.081710e+02 0.000000e+00 -2.081710e+02 -5.885142e+04 0.000000e+00 0.000000e+00 0.000000e+00 0.000000e+00
-9.074391e+04 -4.131710e+02 0.000000e+00 -4.131710e+02 -5.912287e+04 0.000000e+00 0.000000e+00 0.000000e+00 0.000000e+00
-9.232023e+04 -4.254284e+02 0.000000e+00 -4.254284e+02 -5.948969e+04 0.000000e+00 0.000000e+00 0.000000e+00 0.000000e+00
-9.391643e+04 -2.616428e+02 0.000000e+00 -2.616428e+02 -5.980861e+04 0.000000e+00 0.000000e+00 0.000000e+00 0.000000e+00
-9.530294e+04 -1.069640e+02 0.000000e+00 -1.069640e+02 -6.020477e+04 0.000000e+00 0.000000e+00 0.000000e+00 0.000000e+00
-6.480133e+04 8.061918e+02 0.000000e+00 8.061918e+02 -6.451702e+04 0.000000e+00 0.000000e+00 0.000000e+00 0.000000e+00
-7.061098e+04 8.042105e+02 0.000000e+00 8.042105e+02 -6.394266e+04 0.000000e+00 0.000000e+00 0.000000e+00 0.000000e+00
-7.725930e+04 6.300419e+02 0.000000e+00 6.300419e+02 -6.177313e+04 0.000000e+00 0.000000e+00 0.000000e+00 0.000000e+00
-8.178750e+04 3.491674e+02 0.000000e+00 3.491674e+02 -6.022562e+04 0.000000e+00 0.000000e+00 0.000000e+00 0.000000e+00
-8.495716e+04 9.104953e+01 0.000000e+00 9.104953e+01 -5.927771e+04 0.000000e+00 0.000000e+00 0.000000e+00 0.000000e+00
-8.725081e+04 -1.163125e+02 0.000000e+00 -1.163125e+02 -5.887868e+04 0.000000e+00 0.000000e+00 0.000000e+00 0.000000e+00
-8.902031e+04 -2.633210e+02 0.000000e+00 -2.633210e+02 -5.889979e+04 0.000000e+00 0.000000e+00 0.000000e+00 0.000000e+00
-9.069658e+04 -3.416003e+02 0.000000e+00 -3.416003e+02 -5.917710e+04 0.000000e+00 0.000000e+00 0.000000e+00 0.000000e+00
-9.238065e+04 -3.414476e+02 0.000000e+00 -3.414476e+02 -5.953851e+04 0.000000e+00 0.000000e+00 0.000000e+00 0.000000e+00
-9.405959e+04 -2.698633e+02 0.000000e+00 -2.698633e+02 -5.984018e+04 0.000000e+00 0.000000e+00 0.000000e+00 0.000000e+00
-9.549388e+04 -1.932031e+02 0.000000e+00 -1.932031e+02 -6.024313e+04 0.000000e+00 0.000000e+00 0.000000e+00 0.000000e+00
</DataArray>
<DataArray Name="vol_eps" type="Float64" NumberOfComponents="1" format="ascii">
-1.213043e-02
-1.047860e-02
-8.902093e-03
-7.707815e-03
-7.518535e-03
-8.008141e-03
-9.491564e-03
-1.177431e-02
-1.493445e-02
-1.801712e-02
-1.844976e-02
-1.164298e-02
-9.832098e-03
-8.563874e-03
-8.155963e-03
-8.371862e-03
-8.700149e-03
-9.296970e-03
-1.060940e-02
-1.280947e-02
-1.525292e-02
-1.977418e-02
-9.751664e-03
-7.886473e-03
-7.202507e-03
-7.484500e-03
-7.763054e-03
-8.069051e-03
-8.579656e-03
-9.391765e-03
-9.853414e-03
-1.083762e-02
-1.473388e-02
-6.648389e-03
-5.445054e-03
-5.297805e-03
-5.481120e-03
-5.419663e-03
-4.826298e-03
-3.726882e-03
-1.917134e-03
9.311099e-04
4.841484e-03
8.974632e-03
-4.995242e-03
-4.718172e-03
-5.354801e-03
-5.840499e-03
-6.088904e-03
-6.067294e-03
-5.817864e-03
-5.381276e-03
-4.520828e-03
-2.773562e-03
2.378405e-04
-3.542104e-03
-3.883833e-03
-4.630747e-03
-5.020679e-03
-5.180151e-03
-5.096759e-03
-4.794636e-03
-4.301819e-03
-3.486411e-03
-1.896676e-03
2.699573e-04
-2.336013e-03
-3.239376e-03
-4.013336e-03
-4.344305e-03
-4.405257e-03
-4.249903e-03
-3.931744e-03
-3.476198e-03
-2.767541e-03
-1.581016e-03
-2.084094e-04
-1.546043e-03
-2.718871e-03
-3.472998e-03
-3.708243e-03
-3.714081e-03
-3.569482e-03
-3.304942e-03
-2.911155e-03
-2.342820e-03
-1.532302e-03
-6.696805e-04
-1.102988e-03
-2.290678e-03
-2.960438e-03
-3.156344e-03
-3.167891e-03
-3.066440e-03
-2.851152e-03
-2.524106e-03
-2.118026e-03
-1.607375e-03
-1.082933e-03
-8.456592e-04
-1.931814e-03
-2.509956e-03
-2.711907e-03
-2.750877e-03
-2.682953e-03
-2.506255e-03
-2.271168e-03
-2.017537e-03
-1.725808e-03
-1.429787e-03
-6.948414e-04
-1.641016e-03
-2.156961e-03
-2.364073e-03
-2.422099e-03
-2.373866e-03
-2.255225e-03
-2.117549e-03
-1.983606e-03
-1.847120e-03
-1.706160e-03
-6.199965e-04
-1.408561e-03
-1.875491e-03
-2.086669e-03
-2.150872e-03
-2.132368e-03
-2.080023e-03
-2.025941e-03
-1.984612e-03
-1.951699e-03
-1.913560e-03
-5.806966e-04
-1.217547e-03
-1.642750e-03
-1.853202e-03
-1.930293e-03
-1.950324e-03
-1.958143e-03
-1.973524e-03
-2.000939e-03
-2.033509e-03
-2.061466e-03
-5.839521e-04
-1.081139e-03
-1.454075e-03
-1.657118e-03
-1.759974e-03
-1.820307e-03
-1.877135e-03
-1.943033e-03
-2.016933e-03
-2.092643e-03
-2.164483e-03
-6.092092e-04
-1.003362e-03
-1.320537e-03
-1.513925e-03
-1.639505e-03
-1.734856e-03
-1.824433e-03
-1.924192e-03
-2.029926e-03
-2.132974e-03
-2.232419e-03
-6.209381e-04
-9.579392e-04
-1.236518e-03
-1.427863e-03
-1.570469e-03
-1.688001e-03
-1.797575e-03
-1.916006e-03
-2.038948e-03
-2.157339e-03
-2.271618e-03
-5.988416e-04
-9.301078e-04
-1.207035e-03
-1.400076e-03
-1.550017e-03
-1.675928e-03
-1.792333e-03
-1.917113e-03
-2.045995e-03
-2.168711e-03
-2.286637e-03
</DataArray>
</PointData>
</Piece>
</UnstructuredGrid>
</VTKFile>
