<?xml version="1.0"?>
<VTKFile type="UnstructuredGrid" version="0.1">
<UnstructuredGrid>
<FieldData>
<DataArray Name="TIME" type="Float64" format="ascii" NumberOfTuples="1">
0.000000e+00
</DataArray>
</FieldData>
<FieldData>
<DataArray Name="CYCLE" type="Int32" format="ascii" NumberOfTuples="1">
0
</DataArray>
</FieldData>
<Piece NumberOfPoints="187" NumberOfCells="160">
<Points>
<DataArray NumberOfComponents="3" type="Float64" format="ascii">
0.000000e+00 0.000000e+00 0.000000e+00
0.000000e+00 1.993566e-01 0.000000e+00
0.000000e+00 3.985804e-01 0.000000e+00
0.000000e+00 5.976581e-01 0.000000e+00
0.000000e+00 7.965841e-01 0.000000e+00
0.000000e+00 9.953465e-01 0.000000e+00
0.000000e+00 1.193963e+00 0.000000e+00
0.000000e+00 1.392496e+00 0.000000e+00
0.000000e+00 1.591073e+00 0.000000e+00
0.000000e+00 1.789861e+00 0.000000e+00
0.000000e+00 1.988750e+00 0.000000e+00
2.250000e-01 0.000000e+00 0.000000e+00
2.251795e-01 1.993855e-01 0.000000e+00
2.253365e-01 3.986475e-01 0.000000e+00
2.254814e-01 5.977777e-01 0.000000e+00
2.256142e-01 7.967715e-01 0.000000e+00
2.257222e-01 9.956204e-01 0.000000e+00
2.257716e-01 1.194326e+00 0.000000e+00
2.257082e-01 1.392905e+00 0.000000e+00
2.254744e-01 1.591413e+00 0.000000e+00
2.251076e-01 1.789953e+00 0.000000e+00
2.250000e-01 1.988750e+00 0.000000e+00
4.500000e-01 0.000000e+00 0.000000e+00
4.503292e-01 1.994406e-01 0.000000e+00
4.506132e-01 3.987937e-01 0.000000e+00
4.508688e-01 5.980605e-01 0.000000e+00
4.510967e-01 7.972380e-01 0.000000e+00
4.512869e-01 9.963217e-01 0.000000e+00
4.514090e-01 1.195295e+00 0.000000e+00
4.514068e-01 1.394120e+00 0.000000e+00
4.512068e-01 1.592712e+00 0.000000e+00
4.507693e-01 1.790923e+00 0.000000e+00
4.500000e-01 1.988750e+00 0.000000e+00
6.750000e-01 0.000000e+00 0.000000e+00
6.754371e-01 1.995178e-01 0.000000e+00
6.757957e-01 3.989872e-01 0.000000e+00
6.761038e-01 5.984207e-01 0.000000e+00
6.763688e-01 7.978284e-01 0.000000e+00
6.765821e-01 9.972255e-01 0.000000e+00
6.767243e-01 1.196635e+00 0.000000e+00
6.767637e-01 1.396082e+00 0.000000e+00
6.766309e-01 1.595621e+00 0.000000e+00
6.762745e-01 1.795387e+00 0.000000e+00
6.747245e-01 1.995737e+00 0.000000e+00
9.000000e-01 0.000000e+00 0.000000e+00
9.004948e-01 1.996082e-01 0.000000e+00
9.008825e-01 3.992030e-01 0.000000e+00
9.011958e-01 5.987964e-01 0.000000e+00
9.014456e-01 7.984034e-01 0.000000e+00
9.016243e-01 9.980417e-01 0.000000e+00
9.017142e-01 1.197732e+00 0.000000e+00
9.016744e-01 1.397500e+00 0.000000e+00
9.014463e-01 1.597377e+00 0.000000e+00
9.008414e-01 1.797397e+00 0.000000e+00
8.997496e-01 1.997331e+00 0.000000e+00
1.125000e+00 0.000000e+00 0.000000e+00
1.125505e+00 1.996963e-01 0.000000e+00
1.125888e+00 3.994032e-01 0.000000e+00
1.126182e+00 5.991277e-01 0.000000e+00
1.126398e+00 7.988805e-01 0.000000e+00
1.126532e+00 9.986746e-01 0.000000e+00
1.126567e+00 1.198523e+00 0.000000e+00
1.126469e+00 1.398437e+00 0.000000e+00
1.126185e+00 1.598421e+00 0.000000e+00
1.125659e+00 1.798437e+00 0.000000e+00
1.124946e+00 1.998433e+00 0.000000e+00
1.350000e+00 0.000000e+00 0.000000e+00
1.350479e+00 1.997752e-01 0.000000e+00
1.350837e+00 3.995734e-01 0.000000e+00
1.351102e+00 5.993969e-01 0.000000e+00
1.351284e+00 7.992514e-01 0.000000e+00
1.351379e+00 9.991440e-01 0.000000e+00
1.351376e+00 1.199081e+00 0.000000e+00
1.351252e+00 1.399063e+00 0.000000e+00
1.350985e+00 1.599081e+00 0.000000e+00
1.350575e+00 1.799106e+00 0.000000e+00
1.350102e+00 1.999090e+00 0.000000e+00
1.575000e+00 0.000000e+00 0.000000e+00
1.575432e+00 1.998388e-01 0.000000e+00
1.575754e+00 3.997061e-01 0.000000e+00
1.575988e+00 5.996002e-01 0.000000e+00
1.576139e+00 7.995236e-01 0.000000e+00
1.576206e+00 9.994788e-01 0.000000e+00
1.576183e+00 1.199466e+00 0.000000e+00
1.576059e+00 1.399482e+00 0.000000e+00
1.575835e+00 1.599514e+00 0.000000e+00
1.575533e+00 1.799535e+00 0.000000e+00
1.575218e+00 1.999525e+00 0.000000e+00
1.800000e+00 0.000000e+00 0.000000e+00
1.800374e+00 1.998869e-01 0.000000e+00
1.800656e+00 3.998042e-01 0.000000e+00
1.800858e+00 5.997481e-01 0.000000e+00
1.800982e+00 7.997172e-01 0.000000e+00
1.801031e+00 9.997110e-01 0.000000e+00
1.801001e+00 1.199727e+00 0.000000e+00
1.800893e+00 1.399759e+00 0.000000e+00
1.800717e+00 1.599792e+00 0.000000e+00
1.800501e+00 1.799813e+00 0.000000e+00
1.800294e+00 1.999809e+00 0.000000e+00
2.025000e+00 0.000000e+00 0.000000e+00
2.025315e+00 1.999219e-01 0.000000e+00
2.025555e+00 3.998741e-01 0.000000e+00
2.025725e+00 5.998507e-01 0.000000e+00
2.025828e+00 7.998490e-01 0.000000e+00
2.025865e+00 9.998663e-01 0.000000e+00
2.025837e+00 1.199898e+00 0.000000e+00
2.025750e+00 1.399936e+00 0.000000e+00
2.025618e+00 1.599970e+00 0.000000e+00
2.025467e+00 1.799992e+00 0.000000e+00
2.025334e+00 1.999994e+00 0.000000e+00
2.250000e+00 0.000000e+00 0.000000e+00
2.250257e+00 1.999471e-01 0.000000e+00
2.250456e+00 3.999220e-01 0.000000e+00
2.250598e+00 5.999196e-01 0.000000e+00
2.250682e+00 7.999358e-01 0.000000e+00
2.250711e+00 9.999664e-01 0.000000e+00
2.250689e+00 1.200006e+00 0.000000e+00
2.250623e+00 1.400046e+00 0.000000e+00
2.250528e+00 1.600081e+00 0.000000e+00
2.250425e+00 1.800104e+00 0.000000e+00
2.250343e+00 2.000112e+00 0.000000e+00
2.475000e+00 0.000000e+00 0.000000e+00
2.475204e+00 1.999637e-01 0.000000e+00
2.475365e+00 3.999536e-01 0.000000e+00
2.475480e+00 5.999645e-01 0.000000e+00
2.475547e+00 7.999913e-01 0.000000e+00
2.475571e+00 1.000029e+00 0.000000e+00
2.475555e+00 1.200071e+00 0.000000e+00
2.475507e+00 1.400113e+00 0.000000e+00
2.475441e+00 1.600148e+00 0.000000e+00
2.475373e+00 1.800172e+00 0.000000e+00
2.475326e+00 2.000186e+00 0.000000e+00
2.700000e+00 0.000000e+00 0.000000e+00
2.700157e+00 1.999761e-01 0.000000e+00
2.700282e+00 3.999757e-01 0.000000e+00
2.700371e+00 5.999943e-01 0.000000e+00
2.700423e+00 8.000268e-01 0.000000e+00
2.700442e+00 1.000068e+00 0.000000e+00
2.700432e+00 1.200112e+00 0.000000e+00
2.700399e+00 1.400153e+00 0.000000e+00
2.700354e+00 1.600188e+00 0.000000e+00
2.700311e+00 1.800215e+00 0.000000e+00
2.700287e+00 2.000233e+00 0.000000e+00
2.925000e+00 0.000000e+00 0.000000e+00
2.925116e+00 1.999852e-01 0.000000e+00
2.925207e+00 3.999913e-01 0.000000e+00
2.925271e+00 6.000149e-01 0.000000e+00
2.925310e+00 8.000510e-01 0.000000e+00
2.925324e+00 1.000094e+00 0.000000e+00
2.925318e+00 1.200138e+00 0.000000e+00
2.925296e+00 1.400179e+00 0.000000e+00
2.925267e+00 1.600214e+00 0.000000e+00
2.925242e+00 1.800242e+00 0.000000e+00
2.925231e+00 2.000264e+00 0.000000e+00
3.150000e+00 0.000000e+00 0.000000e+00
3.150077e+00 1.999922e-01 0.000000e+00
3.150136e+00 4.000039e-01 0.000000e+00
3.150178e+00 6.000319e-01 0.000000e+00
3.150203e+00 8.000706e-01 0.000000e+00
3.150212e+00 1.000115e+00 0.000000e+00
3.150209e+00 1.200159e+00 0.000000e+00
3.150196e+00 1.400200e+00 0.000000e+00
3.150179e+00 1.600236e+00 0.000000e+00
3.150165e+00 1.800265e+00 0.000000e+00
3.150161e+00 2.000290e+00 0.000000e+00
3.375000e+00 0.000000e+00 0.000000e+00
3.375041e+00 1.999989e-01 0.000000e+00
3.375068e+00 4.000177e-01 0.000000e+00
3.375088e+00 6.000500e-01 0.000000e+00
3.375100e+00 8.000910e-01 0.000000e+00
3.375105e+00 1.000136e+00 0.000000e+00
3.375104e+00 1.200181e+00 0.000000e+00
3.375098e+00 1.400222e+00 0.000000e+00
3.375090e+00 1.600257e+00 0.000000e+00
3.375084e+00 1.800287e+00 0.000000e+00
3.375082e+00 2.000314e+00 0.000000e+00
3.600000e+00 0.000000e+00 0.000000e+00
3.600000e+00 2.000152e-01 0.000000e+00
3.600000e+00 4.000399e-01 0.000000e+00
3.600000e+00 6.000743e-01 0.000000e+00
3.600000e+00 8.001159e-01 0.000000e+00
3.600000e+00 1.000161e+00 0.000000e+00
3.600000e+00 1.200206e+00 0.000000e+00
3.600000e+00 1.400247e+00 0.000000e+00
3.600000e+00 1.600283e+00 0.000000e+00
3.600000e+00 1.800313e+00 0.000000e+00
3.600000e+00 2.000340e+00 0.000000e+00
</DataArray>
</Points>
<Cells>
<DataArray Name="connectivity" type="Int32" format="ascii">
0 11 12 1
1 12 13 2
2 13 14 3
3 14 15 4
4 15 16 5
5 16 17 6
6 17 18 7
7 18 19 8
8 19 20 9
9 20 21 10
11 22 23 12
12 23 24 13
13 24 25 14
14 25 26 15
15 26 27 16
16 27 28 17
17 28 29 18
18 29 30 19
19 30 31 20
20 31 32 21
22 33 34 23
23 34 35 24
24 35 36 25
25 36 37 26
26 37 38 27
27 38 39 28
28 39 40 29
29 40 41 30
30 41 42 31
31 42 43 32
33 44 45 34
34 45 46 35
35 46 47 36
36 47 48 37
37 48 49 38
38 49 50 39
39 50 51 40
40 51 52 41
41 52 53 42
42 53 54 43
44 55 56 45
45 56 57 46
46 57 58 47
47 58 59 48
48 59 60 49
49 60 61 50
50 61 62 51
51 62 63 52
52 63 64 53
53 64 65 54
55 66 67 56
56 67 68 57
57 68 69 58
58 69 70 59
59 70 71 60
60 71 72 61
61 72 73 62
62 73 74 63
63 74 75 64
64 75 76 65
66 77 78 67
67 78 79 68
68 79 80 69
69 80 81 70
70 81 82 71
71 82 83 72
72 83 84 73
73 84 85 74
74 85 86 75
75 86 87 76
77 88 89 78
78 89 90 79
79 90 91 80
80 91 92 81
81 92 93 82
82 93 94 83
83 94 95 84
84 95 96 85
85 96 97 86
86 97 98 87
88 99 100 89
89 100 101 90
90 101 102 91
91 102 103 92
92 103 104 93
93 104 105 94
94 105 106 95
95 106 107 96
96 107 108 97
97 108 109 98
99 110 111 100
100 111 112 101
101 112 113 102
102 113 114 103
103 114 115 104
104 115 116 105
105 116 117 106
106 117 118 107
107 118 119 108
108 119 120 109
110 121 122 111
111 122 123 112
112 123 124 113
113 124 125 114
114 125 126 115
115 126 127 116
116 127 128 117
117 128 129 118
118 129 130 119
119 130 131 120
121 132 133 122
122 133 134 123
123 134 135 124
124 135 136 125
125 136 137 126
126 137 138 127
127 138 139 128
128 139 140 129
129 140 141 130
130 141 142 131
132 143 144 133
133 144 145 134
134 145 146 135
135 146 147 136
136 147 148 137
137 148 149 138
138 149 150 139
139 150 151 140
140 151 152 141
141 152 153 142
143 154 155 144
144 155 156 145
145 156 157 146
146 157 158 147
147 158 159 148
148 159 160 149
149 160 161 150
150 161 162 151
151 162 163 152
152 163 164 153
154 165 166 155
155 166 167 156
156 167 168 157
157 168 169 158
158 169 170 159
159 170 171 160
160 171 172 161
161 172 173 162
162 173 174 163
163 174 175 164
165 176 177 166
166 177 178 167
167 178 179 168
168 179 180 169
169 180 181 170
170 181 182 171
171 182 183 172
172 183 184 173
173 184 185 174
174 185 186 175
</DataArray>
<DataArray Name="offsets" type="Int32" format="ascii">
4
8
12
16
20
24
28
32
36
40
44
48
52
56
60
64
68
72
76
80
84
88
92
96
100
104
108
112
116
120
124
128
132
136
140
144
148
152
156
160
164
168
172
176
180
184
188
192
196
200
204
208
212
216
220
224
228
232
236
240
244
248
252
256
260
264
268
272
276
280
284
288
292
296
300
304
308
312
316
320
324
328
332
336
340
344
348
352
356
360
364
368
372
376
380
384
388
392
396
400
404
408
412
416
420
424
428
432
436
440
444
448
452
456
460
464
468
472
476
480
484
488
492
496
500
504
508
512
516
520
524
528
532
536
540
544
548
552
556
560
564
568
572
576
580
584
588
592
596
600
604
608
612
616
620
624
628
632
636
640
</DataArray>
<DataArray Name="types" type="UInt8" format="ascii">
9
9
9
9
9
9
9
9
9
9
9
9
9
9
9
9
9
9
9
9
9
9
9
9
9
9
9
9
9
9
9
9
9
9
9
9
9
9
9
9
9
9
9
9
9
9
9
9
9
9
9
9
9
9
9
9
9
9
9
9
9
9
9
9
9
9
9
9
9
9
9
9
9
9
9
9
9
9
9
9
9
9
9
9
9
9
9
9
9
9
9
9
9
9
9
9
9
9
9
9
9
9
9
9
9
9
9
9
9
9
9
9
9
9
9
9
9
9
9
9
9
9
9
9
9
9
9
9
9
9
9
9
9
9
9
9
9
9
9
9
9
9
9
9
9
9
9
9
9
9
9
9
9
9
9
9
9
9
9
9
</DataArray>
</Cells>
<PointData>
<DataArray Name="disp" type="Float64" NumberOfComponents="3" format="ascii">
0.000000e+00 0.000000e+00 0.000000e+00
0.000000e+00 -6.434455e-04 0.000000e+00
0.000000e+00 -1.419631e-03 0.000000e+00
0.000000e+00 -2.341921e-03 0.000000e+00
0.000000e+00 -3.415943e-03 0.000000e+00
0.000000e+00 -4.653501e-03 0.000000e+00
0.000000e+00 -6.037009e-03 0.000000e+00
0.000000e+00 -7.504221e-03 0.000000e+00
0.000000e+00 -8.927404e-03 0.000000e+00
0.000000e+00 -1.013890e-02 0.000000e+00
0.000000e+00 -1.125000e-02 0.000000e+00
0.000000e+00 0.000000e+00 0.000000e+00
1.795428e-04 -6.144647e-04 0.000000e+00
3.365425e-04 -1.352542e-03 0.000000e+00
4.813771e-04 -2.222273e-03 0.000000e+00
6.142125e-04 -3.228507e-03 0.000000e+00
7.222064e-04 -4.379642e-03 0.000000e+00
7.716366e-04 -5.674361e-03 0.000000e+00
7.082180e-04 -7.094866e-03 0.000000e+00
4.744171e-04 -8.587277e-03 0.000000e+00
1.075741e-04 -1.004748e-02 0.000000e+00
0.000000e+00 -1.125000e-02 0.000000e+00
0.000000e+00 0.000000e+00 0.000000e+00
3.292410e-04 -5.594256e-04 0.000000e+00
6.132253e-04 -1.206304e-03 0.000000e+00
8.687827e-04 -1.939424e-03 0.000000e+00
1.096738e-03 -2.762020e-03 0.000000e+00
1.286889e-03 -3.678269e-03 0.000000e+00
1.409048e-03 -4.705100e-03 0.000000e+00
1.406764e-03 -5.880415e-03 0.000000e+00
1.206832e-03 -7.288152e-03 0.000000e+00
7.692738e-04 -9.076640e-03 0.000000e+00
0.000000e+00 -1.125000e-02 0.000000e+00
0.000000e+00 0.000000e+00 0.000000e+00
4.371217e-04 -4.821587e-04 0.000000e+00
7.956718e-04 -1.012782e-03 0.000000e+00
1.103745e-03 -1.579279e-03 0.000000e+00
1.368790e-03 -2.171595e-03 0.000000e+00
1.582092e-03 -2.774553e-03 0.000000e+00
1.724244e-03 -3.365171e-03 0.000000e+00
1.763628e-03 -3.918235e-03 0.000000e+00
1.630891e-03 -4.379482e-03 0.000000e+00
1.274524e-03 -4.612647e-03 0.000000e+00
-2.755579e-04 -4.262923e-03 0.000000e+00
0.000000e+00 0.000000e+00 0.000000e+00
4.948063e-04 -3.918021e-04 0.000000e+00
8.825359e-04 -7.969954e-04 0.000000e+00
1.195735e-03 -1.203659e-03 0.000000e+00
1.445550e-03 -1.596574e-03 0.000000e+00
1.624337e-03 -1.958251e-03 0.000000e+00
1.714220e-03 -2.268253e-03 0.000000e+00
1.674394e-03 -2.500148e-03 0.000000e+00
1.446261e-03 -2.623114e-03 0.000000e+00
8.413615e-04 -2.603160e-03 0.000000e+00
-2.503789e-04 -2.668831e-03 0.000000e+00
0.000000e+00 0.000000e+00 0.000000e+00
5.049005e-04 -3.037425e-04 0.000000e+00
8.878339e-04 -5.968477e-04 0.000000e+00
1.182137e-03 -8.722813e-04 0.000000e+00
1.398338e-03 -1.119462e-03 0.000000e+00
1.532291e-03 -1.325408e-03 0.000000e+00
1.566658e-03 -1.477035e-03 0.000000e+00
1.469087e-03 -1.563117e-03 0.000000e+00
1.184577e-03 -1.579436e-03 0.000000e+00
6.594950e-04 -1.562631e-03 0.000000e+00
-5.395770e-05 -1.566669e-03 0.000000e+00
0.000000e+00 0.000000e+00 0.000000e+00
4.793240e-04 -2.248225e-04 0.000000e+00
8.370797e-04 -4.266219e-04 0.000000e+00
1.102364e-03 -6.030942e-04 0.000000e+00
1.284067e-03 -7.485491e-04 0.000000e+00
1.379287e-03 -8.560016e-04 0.000000e+00
1.375897e-03 -9.190117e-04 0.000000e+00
1.252366e-03 -9.365689e-04 0.000000e+00
9.848326e-04 -9.186594e-04 0.000000e+00
5.753604e-04 -8.935219e-04 0.000000e+00
1.022998e-04 -9.096116e-04 0.000000e+00
0.000000e+00 0.000000e+00 0.000000e+00
4.320516e-04 -1.611960e-04 0.000000e+00
7.543095e-04 -2.939055e-04 0.000000e+00
9.877451e-04 -3.997766e-04 0.000000e+00
1.138607e-03 -4.764096e-04 0.000000e+00
1.205971e-03 -5.212712e-04 0.000000e+00
1.182754e-03 -5.337416e-04 0.000000e+00
1.059374e-03 -5.176066e-04 0.000000e+00
8.346004e-04 -4.864375e-04 0.000000e+00
5.328440e-04 -4.653265e-04 0.000000e+00
2.184935e-04 -4.752796e-04 0.000000e+00
0.000000e+00 0.000000e+00 0.000000e+00
3.742891e-04 -1.130871e-04 0.000000e+00
6.564512e-04 -1.958196e-04 0.000000e+00
8.576363e-04 -2.519487e-04 0.000000e+00
9.823228e-04 -2.828164e-04 0.000000e+00
1.031458e-03 -2.889926e-04 0.000000e+00
1.001466e-03 -2.728317e-04 0.000000e+00
8.932112e-04 -2.411747e-04 0.000000e+00
7.172828e-04 -2.074765e-04 0.000000e+00
5.009433e-04 -1.868103e-04 0.000000e+00
2.939915e-04 -1.908671e-04 0.000000e+00
0.000000e+00 0.000000e+00 0.000000e+00
3.144884e-04 -7.807552e-05 0.000000e+00
5.547723e-04 -1.259088e-04 0.000000e+00
7.251290e-04 -1.492927e-04 0.000000e+00
8.281265e-04 -1.509775e-04 0.000000e+00
8.650401e-04 -1.336681e-04 0.000000e+00
8.367945e-04 -1.020246e-04 0.000000e+00
7.498435e-04 -6.398826e-05 0.000000e+00
6.180078e-04 -2.956557e-05 0.000000e+00
4.665702e-04 -8.357541e-06 0.000000e+00
3.340975e-04 -6.280193e-06 0.000000e+00
0.000000e+00 0.000000e+00 0.000000e+00
2.570177e-04 -5.294305e-05 0.000000e+00
4.561741e-04 -7.805985e-05 0.000000e+00
5.980028e-04 -8.047165e-05 0.000000e+00
6.822881e-04 -6.416228e-05 0.000000e+00
7.111501e-04 -3.361079e-05 0.000000e+00
6.886967e-04 5.590352e-06 0.000000e+00
6.228813e-04 4.615411e-05 0.000000e+00
5.275596e-04 8.084493e-05 0.000000e+00
4.245291e-04 1.035320e-04 0.000000e+00
3.431409e-04 1.116984e-04 0.000000e+00
0.000000e+00 0.000000e+00 0.000000e+00
2.042027e-04 -3.630964e-05 0.000000e+00
3.650082e-04 -4.643398e-05 0.000000e+00
4.796703e-04 -3.550352e-05 0.000000e+00
5.473485e-04 -8.764653e-06 0.000000e+00
5.707476e-04 2.878089e-05 0.000000e+00
5.547186e-04 7.133662e-05 0.000000e+00
5.073296e-04 1.128498e-04 0.000000e+00
4.407012e-04 1.476808e-04 0.000000e+00
3.728295e-04 1.721727e-04 0.000000e+00
3.257508e-04 1.858122e-04 0.000000e+00
0.000000e+00 0.000000e+00 0.000000e+00
1.574248e-04 -2.392778e-05 0.000000e+00
2.820414e-04 -2.434090e-05 0.000000e+00
3.709723e-04 -5.678120e-06 0.000000e+00
4.235787e-04 2.682302e-05 0.000000e+00
4.424103e-04 6.777837e-05 0.000000e+00
4.319349e-04 1.116338e-04 0.000000e+00
3.992508e-04 1.531800e-04 0.000000e+00
3.544210e-04 1.881337e-04 0.000000e+00
3.115009e-04 2.144992e-04 0.000000e+00
2.868895e-04 2.327301e-04 0.000000e+00
0.000000e+00 0.000000e+00 0.000000e+00
1.157739e-04 -1.482351e-05 0.000000e+00
2.065618e-04 -8.695398e-06 0.000000e+00
2.712745e-04 1.487210e-05 0.000000e+00
3.095840e-04 5.101791e-05 0.000000e+00
3.237539e-04 9.383594e-05 0.000000e+00
3.174340e-04 1.380939e-04 0.000000e+00
2.961195e-04 1.793855e-04 0.000000e+00
2.674039e-04 2.145177e-04 0.000000e+00
2.416606e-04 2.424329e-04 0.000000e+00
2.304638e-04 2.644983e-04 0.000000e+00
0.000000e+00 0.000000e+00 0.000000e+00
7.734136e-05 -7.761299e-06 0.000000e+00
1.364160e-04 3.858658e-06 0.000000e+00
1.781930e-04 3.186132e-05 0.000000e+00
2.027906e-04 7.063519e-05 0.000000e+00
2.122148e-04 1.147124e-04 0.000000e+00
2.087628e-04 1.591232e-04 0.000000e+00
1.960052e-04 2.002328e-04 0.000000e+00
1.791922e-04 2.356440e-04 0.000000e+00
1.650232e-04 2.647821e-04 0.000000e+00
1.607929e-04 2.896105e-04 0.000000e+00
0.000000e+00 0.000000e+00 0.000000e+00
4.062629e-05 -1.095452e-06 0.000000e+00
6.848062e-05 1.770803e-05 0.000000e+00
8.856415e-05 4.998574e-05 0.000000e+00
1.004344e-04 9.103712e-05 0.000000e+00
1.050666e-04 1.359547e-04 0.000000e+00
1.036168e-04 1.806126e-04 0.000000e+00
9.760925e-05 2.217094e-04 0.000000e+00
8.993205e-05 2.572943e-04 0.000000e+00
8.372925e-05 2.873276e-04 0.000000e+00
8.249491e-05 3.137994e-04 0.000000e+00
0.000000e+00 0.000000e+00 0.000000e+00
0.000000e+00 1.521050e-05 0.000000e+00
0.000000e+00 3.985520e-05 0.000000e+00
0.000000e+00 7.431475e-05 0.000000e+00
0.000000e+00 1.159023e-04 0.000000e+00
0.000000e+00 1.609751e-04 0.000000e+00
0.000000e+00 2.057597e-04 0.000000e+00
0.000000e+00 2.469905e-04 0.000000e+00
0.000000e+00 2.829389e-04 0.000000e+00
0.000000e+00 3.133717e-04 0.000000e+00
0.000000e+00 3.404738e-04 0.000000e+00
</DataArray>
<DataArray Name="shear" type="Float64" NumberOfComponents="1" format="ascii">
3.456439e-03
4.299872e-03
5.691913e-03
7.072416e-03
8.438390e-03
9.681939e-03
1.049529e-02
1.039301e-02
8.924592e-03
6.777863e-03
5.882104e-03
3.428996e-03
4.194295e-03
5.460135e-03
6.724055e-03
7.985894e-03
9.193481e-03
1.017357e-02
1.061995e-02
1.019783e-02
8.710246e-03
7.338324e-03
3.430381e-03
3.989799e-03
4.907889e-03
5.859659e-03
6.868622e-03
7.970179e-03
9.208356e-03
1.062161e-02
1.229164e-02
1.340966e-02
1.344590e-02
3.395829e-03
3.710921e-03
4.204488e-03
4.752205e-03
5.365070e-03
6.075867e-03
6.960568e-03
8.095188e-03
9.622320e-03
1.023381e-02
1.079705e-02
3.263662e-03
3.359160e-03
3.488510e-03
3.704672e-03
3.961632e-03
4.237278e-03
4.483272e-03
4.599929e-03
4.255571e-03
2.603321e-03
7.529580e-04
3.027379e-03
2.969728e-03
2.848343e-03
2.845878e-03
2.882710e-03
2.906563e-03
2.851561e-03
2.607383e-03
1.982227e-03
8.065780e-04
4.497570e-04
2.711501e-03
2.576129e-03
2.328625e-03
2.205424e-03
2.126574e-03
2.038570e-03
1.885428e-03
1.596435e-03
1.089369e-03
3.072532e-04
3.754912e-04
2.355037e-03
2.195682e-03
1.913665e-03
1.742786e-03
1.619026e-03
1.498982e-03
1.341777e-03
1.103807e-03
7.287121e-04
1.675019e-04
2.802944e-04
1.992980e-03
1.843055e-03
1.583079e-03
1.414603e-03
1.293960e-03
1.185731e-03
1.058571e-03
8.757086e-04
5.960651e-04
1.876128e-04
1.453297e-04
1.649066e-03
1.523250e-03
1.312213e-03
1.175196e-03
1.082962e-03
1.006005e-03
9.122601e-04
7.707970e-04
5.541954e-04
2.368365e-04
1.957857e-05
1.333749e-03
1.235505e-03
1.083748e-03
9.946619e-04
9.416520e-04
8.968053e-04
8.296198e-04
7.171068e-04
5.420047e-04
2.929519e-04
1.221002e-04
1.053557e-03
9.832792e-04
8.917169e-04
8.547231e-04
8.417250e-04
8.233479e-04
7.753219e-04
6.830558e-04
5.396191e-04
3.506456e-04
2.350610e-04
8.093744e-04
7.645949e-04
7.297000e-04
7.448766e-04
7.685306e-04
7.705326e-04
7.353154e-04
6.580617e-04
5.420312e-04
4.052500e-04
3.310429e-04
5.937839e-04
5.729311e-04
5.972018e-04
6.640762e-04
7.176312e-04
7.331775e-04
7.058794e-04
6.402759e-04
5.477404e-04
4.532791e-04
4.092128e-04
3.986589e-04
4.102092e-04
5.059559e-04
6.162287e-04
6.876106e-04
7.099896e-04
6.872870e-04
6.306727e-04
5.563967e-04
4.915593e-04
4.666751e-04
2.249938e-04
3.049231e-04
4.677226e-04
5.972822e-04
6.740479e-04
6.992607e-04
6.801900e-04
6.297551e-04
5.674070e-04
5.186473e-04
5.028211e-04
1.426020e-04
2.801537e-04
4.601653e-04
5.907310e-04
6.687467e-04
6.963043e-04
6.802724e-04
6.333039e-04
5.753541e-04
5.303142e-04
5.160853e-04
</DataArray>
<DataArray Name="stress" type="Float64" NumberOfComponents="9" format="ascii">
-7.094036e+04 8.143455e+02 0.000000e+00 8.143455e+02 -9.411008e+04 0.000000e+00 0.000000e+00 0.000000e+00 0.000000e+00
-6.763509e+04 9.904458e+02 0.000000e+00 9.904458e+02 -9.459599e+04 0.000000e+00 0.000000e+00 0.000000e+00 0.000000e+00
-6.494489e+04 1.246571e+03 0.000000e+00 1.246571e+03 -9.722107e+04 0.000000e+00 0.000000e+00 0.000000e+00 0.000000e+00
-6.380196e+04 1.583747e+03 0.000000e+00 1.583747e+03 -1.002093e+05 0.000000e+00 0.000000e+00 0.000000e+00 0.000000e+00
-6.383809e+04 2.049735e+03 0.000000e+00 2.049735e+03 -1.038058e+05 0.000000e+00 0.000000e+00 0.000000e+00 0.000000e+00
-6.504051e+04 2.539698e+03 0.000000e+00 2.539698e+03 -1.080410e+05 0.000000e+00 0.000000e+00 0.000000e+00 0.000000e+00
-6.719289e+04 2.870232e+03 0.000000e+00 2.870232e+03 -1.128088e+05 0.000000e+00 0.000000e+00 0.000000e+00 0.000000e+00
-7.038067e+04 2.796027e+03 0.000000e+00 2.796027e+03 -1.174641e+05 0.000000e+00 0.000000e+00 0.000000e+00 0.000000e+00
-7.512221e+04 1.697047e+03 0.000000e+00 1.697047e+03 -1.208595e+05 0.000000e+00 0.000000e+00 0.000000e+00 0.000000e+00
-8.182207e+04 5.944110e+01 0.000000e+00 5.944110e+01 -1.224255e+05 0.000000e+00 0.000000e+00 0.000000e+00 0.000000e+00
-8.441630e+04 -3.829503e+02 0.000000e+00 -3.829503e+02 -1.218341e+05 0.000000e+00 0.000000e+00 0.000000e+00 0.000000e+00
-7.070002e+04 2.670930e+03 0.000000e+00 2.670930e+03 -9.288914e+04 0.000000e+00 0.000000e+00 0.000000e+00 0.000000e+00
-6.764379e+04 2.765101e+03 0.000000e+00 2.765101e+03 -9.337309e+04 0.000000e+00 0.000000e+00 0.000000e+00 0.000000e+00
-6.515180e+04 3.017020e+03 0.000000e+00 3.017020e+03 -9.579140e+04 0.000000e+00 0.000000e+00 0.000000e+00 0.000000e+00
-6.414809e+04 3.571251e+03 0.000000e+00 3.571251e+03 -9.849505e+04 0.000000e+00 0.000000e+00 0.000000e+00 0.000000e+00
-6.425363e+04 4.335867e+03 0.000000e+00 4.335867e+03 -1.017819e+05 0.000000e+00 0.000000e+00 0.000000e+00 0.000000e+00
-6.541802e+04 5.151083e+03 0.000000e+00 5.151083e+03 -1.057045e+05 0.000000e+00 0.000000e+00 0.000000e+00 0.000000e+00
-6.747176e+04 5.724569e+03 0.000000e+00 5.724569e+03 -1.103812e+05 0.000000e+00 0.000000e+00 0.000000e+00 0.000000e+00
-7.035503e+04 5.582499e+03 0.000000e+00 5.582499e+03 -1.156776e+05 0.000000e+00 0.000000e+00 0.000000e+00 0.000000e+00
-7.441912e+04 4.027596e+03 0.000000e+00 4.027596e+03 -1.213059e+05 0.000000e+00 0.000000e+00 0.000000e+00 0.000000e+00
-8.011398e+04 1.463799e+03 0.000000e+00 1.463799e+03 -1.256622e+05 0.000000e+00 0.000000e+00 0.000000e+00 0.000000e+00
-8.632640e+04 -9.370805e+02 0.000000e+00 -9.370805e+02 -1.297784e+05 0.000000e+00 0.000000e+00 0.000000e+00 0.000000e+00
-7.014222e+04 5.024803e+03 0.000000e+00 5.024803e+03 -9.005540e+04 0.000000e+00 0.000000e+00 0.000000e+00 0.000000e+00
-6.769082e+04 5.099096e+03 0.000000e+00 5.099096e+03 -9.035152e+04 0.000000e+00 0.000000e+00 0.000000e+00 0.000000e+00
-6.571810e+04 5.475617e+03 0.000000e+00 5.475617e+03 -9.212928e+04 0.000000e+00 0.000000e+00 0.000000e+00 0.000000e+00
-6.508822e+04 6.439646e+03 0.000000e+00 6.439646e+03 -9.402760e+04 0.000000e+00 0.000000e+00 0.000000e+00 0.000000e+00
-6.545416e+04 7.810513e+03 0.000000e+00 7.810513e+03 -9.624802e+04 0.000000e+00 0.000000e+00 0.000000e+00 0.000000e+00
-6.667543e+04 9.416179e+03 0.000000e+00 9.416179e+03 -9.897486e+04 0.000000e+00 0.000000e+00 0.000000e+00 0.000000e+00
-6.866912e+04 1.103351e+04 0.000000e+00 1.103351e+04 -1.024656e+05 0.000000e+00 0.000000e+00 0.000000e+00 0.000000e+00
-7.153765e+04 1.247197e+04 0.000000e+00 1.247197e+04 -1.073819e+05 0.000000e+00 0.000000e+00 0.000000e+00 0.000000e+00
-7.609562e+04 1.346105e+04 0.000000e+00 1.346105e+04 -1.151550e+05 0.000000e+00 0.000000e+00 0.000000e+00 0.000000e+00
-8.545041e+04 1.320636e+04 0.000000e+00 1.320636e+04 -1.268912e+05 0.000000e+00 0.000000e+00 0.000000e+00 0.000000e+00
-1.010320e+05 1.281719e+04 0.000000e+00 1.281719e+04 -1.406913e+05 0.000000e+00 0.000000e+00 0.000000e+00 0.000000e+00
-6.927802e+04 6.589797e+03 0.000000e+00 6.589797e+03 -8.614485e+04 0.000000e+00 0.000000e+00 0.000000e+00 0.000000e+00
-6.766616e+04 6.649293e+03 0.000000e+00 6.649293e+03 -8.625762e+04 0.000000e+00 0.000000e+00 0.000000e+00 0.000000e+00
-6.648731e+04 7.000114e+03 0.000000e+00 7.000114e+03 -8.723759e+04 0.000000e+00 0.000000e+00 0.000000e+00 0.000000e+00
-6.632260e+04 8.021558e+03 0.000000e+00 8.021558e+03 -8.809120e+04 0.000000e+00 0.000000e+00 0.000000e+00 0.000000e+00
-6.693469e+04 9.455759e+03 0.000000e+00 9.455759e+03 -8.869090e+04 0.000000e+00 0.000000e+00 0.000000e+00 0.000000e+00
-6.806070e+04 1.110936e+04 0.000000e+00 1.110936e+04 -8.894448e+04 0.000000e+00 0.000000e+00 0.000000e+00 0.000000e+00
-6.950307e+04 1.282655e+04 0.000000e+00 1.282655e+04 -8.861488e+04 0.000000e+00 0.000000e+00 0.000000e+00 0.000000e+00
-7.099205e+04 1.454578e+04 0.000000e+00 1.454578e+04 -8.722351e+04 0.000000e+00 0.000000e+00 0.000000e+00 0.000000e+00
-7.230616e+04 1.591483e+04 0.000000e+00 1.591483e+04 -8.375530e+04 0.000000e+00 0.000000e+00 0.000000e+00 0.000000e+00
-7.247359e+04 1.436078e+04 0.000000e+00 1.436078e+04 -7.545587e+04 0.000000e+00 0.000000e+00 0.000000e+00 0.000000e+00
-7.233382e+04 1.257344e+04 0.000000e+00 1.257344e+04 -7.132242e+04 0.000000e+00 0.000000e+00 0.000000e+00 0.000000e+00
-6.813783e+04 7.401766e+03 0.000000e+00 7.401766e+03 -8.163979e+04 0.000000e+00 0.000000e+00 0.000000e+00 0.000000e+00
-6.747370e+04 7.397889e+03 0.000000e+00 7.397889e+03 -8.161488e+04 0.000000e+00 0.000000e+00 0.000000e+00 0.000000e+00
-6.717068e+04 7.554951e+03 0.000000e+00 7.554951e+03 -8.181456e+04 0.000000e+00 0.000000e+00 0.000000e+00 0.000000e+00
-6.754201e+04 8.271539e+03 0.000000e+00 8.271539e+03 -8.170036e+04 0.000000e+00 0.000000e+00 0.000000e+00 0.000000e+00
-6.841241e+04 9.247626e+03 0.000000e+00 9.247626e+03 -8.114295e+04 0.000000e+00 0.000000e+00 0.000000e+00 0.000000e+00
-6.962370e+04 1.024154e+04 0.000000e+00 1.024154e+04 -7.994534e+04 0.000000e+00 0.000000e+00 0.000000e+00 0.000000e+00
-7.104536e+04 1.102366e+04 0.000000e+00 1.102366e+04 -7.788585e+04 0.000000e+00 0.000000e+00 0.000000e+00 0.000000e+00
-7.241590e+04 1.130455e+04 0.000000e+00 1.130455e+04 -7.465255e+04 0.000000e+00 0.000000e+00 0.000000e+00 0.000000e+00
-7.324888e+04 1.018190e+04 0.000000e+00 1.018190e+04 -6.973317e+04 0.000000e+00 0.000000e+00 0.000000e+00 0.000000e+00
-7.090935e+04 5.857067e+03 0.000000e+00 5.857067e+03 -6.476159e+04 0.000000e+00 0.000000e+00 0.000000e+00 0.000000e+00
-6.096820e+04 1.791457e+03 0.000000e+00 1.791457e+03 -5.977789e+04 0.000000e+00 0.000000e+00 0.000000e+00 0.000000e+00
-6.689367e+04 7.523280e+03 0.000000e+00 7.523280e+03 -7.711635e+04 0.000000e+00 0.000000e+00 0.000000e+00 0.000000e+00
-6.709441e+04 7.435919e+03 0.000000e+00 7.435919e+03 -7.700095e+04 0.000000e+00 0.000000e+00 0.000000e+00 0.000000e+00
-6.754066e+04 7.298593e+03 0.000000e+00 7.298593e+03 -7.662502e+04 0.000000e+00 0.000000e+00 0.000000e+00 0.000000e+00
-6.828942e+04 7.574404e+03 0.000000e+00 7.574404e+03 -7.590791e+04 0.000000e+00 0.000000e+00 0.000000e+00 0.000000e+00
-6.925916e+04 7.957827e+03 0.000000e+00 7.957827e+03 -7.473013e+04 0.000000e+00 0.000000e+00 0.000000e+00 0.000000e+00
-7.033280e+04 8.196291e+03 0.000000e+00 8.196291e+03 -7.299565e+04 0.000000e+00 0.000000e+00 0.000000e+00 0.000000e+00
-7.132473e+04 8.037862e+03 0.000000e+00 8.037862e+03 -7.061419e+04 0.000000e+00 0.000000e+00 0.000000e+00 0.000000e+00
-7.182362e+04 7.135307e+03 0.000000e+00 7.135307e+03 -6.757430e+04 0.000000e+00 0.000000e+00 0.000000e+00 0.000000e+00
-7.076366e+04 4.954261e+03 0.000000e+00 4.954261e+03 -6.425921e+04 0.000000e+00 0.000000e+00 0.000000e+00 0.000000e+00
-6.488801e+04 1.732295e+03 0.000000e+00 1.732295e+03 -6.168362e+04 0.000000e+00 0.000000e+00 0.000000e+00 0.000000e+00
-5.673518e+04 1.455109e+02 0.000000e+00 1.455109e+02 -5.955972e+04 0.000000e+00 0.000000e+00 0.000000e+00 0.000000e+00
-6.563830e+04 7.122807e+03 0.000000e+00 7.122807e+03 -7.299996e+04 0.000000e+00 0.000000e+00 0.000000e+00 0.000000e+00
-6.650577e+04 6.962366e+03 0.000000e+00 6.962366e+03 -7.283270e+04 0.000000e+00 0.000000e+00 0.000000e+00 0.000000e+00
-6.752402e+04 6.568385e+03 0.000000e+00 6.568385e+03 -7.213616e+04 0.000000e+00 0.000000e+00 0.000000e+00 0.000000e+00
-6.848494e+04 6.427349e+03 0.000000e+00 6.427349e+03 -7.118415e+04 0.000000e+00 0.000000e+00 0.000000e+00 0.000000e+00
-6.939589e+04 6.295788e+03 0.000000e+00 6.295788e+03 -6.988512e+04 0.000000e+00 0.000000e+00 0.000000e+00 0.000000e+00
-7.017348e+04 5.964128e+03 0.000000e+00 5.964128e+03 -6.820326e+04 0.000000e+00 0.000000e+00 0.000000e+00 0.000000e+00
-7.060208e+04 5.242907e+03 0.000000e+00 5.242907e+03 -6.617043e+04 0.000000e+00 0.000000e+00 0.000000e+00 0.000000e+00
-7.017162e+04 3.912863e+03 0.000000e+00 3.912863e+03 -6.393648e+04 0.000000e+00 0.000000e+00 0.000000e+00 0.000000e+00
-6.784521e+04 1.967467e+03 0.000000e+00 1.967467e+03 -6.189015e+04 0.000000e+00 0.000000e+00 0.000000e+00 0.000000e+00
-6.235754e+04 2.082979e+02 0.000000e+00 2.082979e+02 -6.055675e+04 0.000000e+00 0.000000e+00 0.000000e+00 0.000000e+00
-5.681441e+04 -4.646854e+02 0.000000e+00 -4.646854e+02 -5.946602e+04 0.000000e+00 0.000000e+00 0.000000e+00 0.000000e+00
-6.451039e+04 6.434804e+03 0.000000e+00 6.434804e+03 -6.958800e+04 0.000000e+00 0.000000e+00 0.000000e+00 0.000000e+00
-6.580227e+04 6.219921e+03 0.000000e+00 6.219921e+03 -6.940695e+04 0.000000e+00 0.000000e+00 0.000000e+00 0.000000e+00
-6.716587e+04 5.646284e+03 0.000000e+00 5.646284e+03 -6.859561e+04 0.000000e+00 0.000000e+00 0.000000e+00 0.000000e+00
-6.821063e+04 5.194648e+03 0.000000e+00 5.194648e+03 -6.762168e+04 0.000000e+00 0.000000e+00 0.000000e+00 0.000000e+00
-6.900743e+04 4.709708e+03 0.000000e+00 4.709708e+03 -6.642150e+04 0.000000e+00 0.000000e+00 0.000000e+00 0.000000e+00
-6.949029e+04 4.052582e+03 0.000000e+00 4.052582e+03 -6.501291e+04 0.000000e+00 0.000000e+00 0.000000e+00 0.000000e+00
-6.944173e+04 3.099815e+03 0.000000e+00 3.099815e+03 -6.347298e+04 0.000000e+00 0.000000e+00 0.000000e+00 0.000000e+00
-6.842592e+04 1.808305e+03 0.000000e+00 1.808305e+03 -6.198423e+04 0.000000e+00 0.000000e+00 0.000000e+00 0.000000e+00
-6.588308e+04 4.174961e+02 0.000000e+00 4.174961e+02 -6.081681e+04 0.000000e+00 0.000000e+00 0.000000e+00 0.000000e+00
-6.145193e+04 -4.080682e+02 0.000000e+00 -4.080682e+02 -6.019285e+04 0.000000e+00 0.000000e+00 0.000000e+00 0.000000e+00
-5.763024e+04 -5.380815e+02 0.000000e+00 -5.380815e+02 -5.963062e+04 0.000000e+00 0.000000e+00 0.000000e+00 0.000000e+00
-6.357535e+04 5.608218e+03 0.000000e+00 5.608218e+03 -6.693084e+04 0.000000e+00 0.000000e+00 0.000000e+00 0.000000e+00
-6.503875e+04 5.354013e+03 0.000000e+00 5.354013e+03 -6.673708e+04 0.000000e+00 0.000000e+00 0.000000e+00 0.000000e+00
-6.655427e+04 4.683908e+03 0.000000e+00 4.683908e+03 -6.590144e+04 0.000000e+00 0.000000e+00 0.000000e+00 0.000000e+00
-6.761855e+04 4.051020e+03 0.000000e+00 4.051020e+03 -6.500310e+04 0.000000e+00 0.000000e+00 0.000000e+00 0.000000e+00
-6.831445e+04 3.375720e+03 0.000000e+00 3.375720e+03 -6.400999e+04 0.000000e+00 0.000000e+00 0.000000e+00 0.000000e+00
-6.857236e+04 2.580225e+03 0.000000e+00 2.580225e+03 -6.293319e+04 0.000000e+00 0.000000e+00 0.000000e+00 0.000000e+00
-6.822718e+04 1.617957e+03 0.000000e+00 1.617957e+03 -6.186451e+04 0.000000e+00 0.000000e+00 0.000000e+00 0.000000e+00
-6.702667e+04 5.581462e+02 0.000000e+00 5.581462e+02 -6.094799e+04 0.000000e+00 0.000000e+00 0.000000e+00 0.000000e+00
-6.474058e+04 -3.383145e+02 0.000000e+00 -3.383145e+02 -6.032211e+04 0.000000e+00 0.000000e+00 0.000000e+00 0.000000e+00
-6.136530e+04 -6.266460e+02 0.000000e+00 -6.266460e+02 -6.004440e+04 0.000000e+00 0.000000e+00 0.000000e+00 0.000000e+00
-5.868240e+04 -5.401541e+02 0.000000e+00 -5.401541e+02 -5.972570e+04 0.000000e+00 0.000000e+00 0.000000e+00 0.000000e+00
-6.279532e+04 4.705214e+03 0.000000e+00 4.705214e+03 -6.491725e+04 0.000000e+00 0.000000e+00 0.000000e+00 0.000000e+00
-6.427622e+04 4.453031e+03 0.000000e+00 4.453031e+03 -6.472529e+04 0.000000e+00 0.000000e+00 0.000000e+00 0.000000e+00
-6.582621e+04 3.779003e+03 0.000000e+00 3.779003e+03 -6.393641e+04 0.000000e+00 0.000000e+00 0.000000e+00 0.000000e+00
-6.687405e+04 3.085239e+03 0.000000e+00 3.085239e+03 -6.315444e+04 0.000000e+00 0.000000e+00 0.000000e+00 0.000000e+00
-6.748595e+04 2.337927e+03 0.000000e+00 2.337927e+03 -6.236773e+04 0.000000e+00 0.000000e+00 0.000000e+00 0.000000e+00
-6.761071e+04 1.532457e+03 0.000000e+00 1.532457e+03 -6.159654e+04 0.000000e+00 0.000000e+00 0.000000e+00 0.000000e+00
-6.715720e+04 6.765678e+02 0.000000e+00 6.765678e+02 -6.090278e+04 0.000000e+00 0.000000e+00 0.000000e+00 0.000000e+00
-6.601951e+04 -1.300843e+02 0.000000e+00 -1.300843e+02 -6.037755e+04 0.000000e+00 0.000000e+00 0.000000e+00 0.000000e+00
-6.414334e+04 -6.765579e+02 0.000000e+00 -6.765579e+02 -6.007351e+04 0.000000e+00 0.000000e+00 0.000000e+00 0.000000e+00
-6.164179e+04 -6.825450e+02 0.000000e+00 -6.825450e+02 -5.998029e+04 0.000000e+00 0.000000e+00 0.000000e+00 0.000000e+00
-5.975875e+04 -4.965340e+02 0.000000e+00 -4.965340e+02 -5.979457e+04 0.000000e+00 0.000000e+00 0.000000e+00 0.000000e+00
-6.216096e+04 3.815615e+03 0.000000e+00 3.815615e+03 -6.345801e+04 0.000000e+00 0.000000e+00 0.000000e+00 0.000000e+00
-6.357954e+04 3.586558e+03 0.000000e+00 3.586558e+03 -6.327011e+04 0.000000e+00 0.000000e+00 0.000000e+00 0.000000e+00
-6.507883e+04 2.955448e+03 0.000000e+00 2.955448e+03 -6.254719e+04 0.000000e+00 0.000000e+00 0.000000e+00 0.000000e+00
-6.608762e+04 2.280690e+03 0.000000e+00 2.280690e+03 -6.187803e+04 0.000000e+00 0.000000e+00 0.000000e+00 0.000000e+00
-6.664902e+04 1.567283e+03 0.000000e+00 1.567283e+03 -6.127109e+04 0.000000e+00 0.000000e+00 0.000000e+00 0.000000e+00
-6.672527e+04 8.335463e+02 0.000000e+00 8.335463e+02 -6.074161e+04 0.000000e+00 0.000000e+00 0.000000e+00 0.000000e+00
-6.629217e+04 1.224408e+02 0.000000e+00 1.224408e+02 -6.031780e+04 0.000000e+00 0.000000e+00 0.000000e+00 0.000000e+00
-6.532896e+04 -4.708702e+02 0.000000e+00 -4.708702e+02 -6.004760e+04 0.000000e+00 0.000000e+00 0.000000e+00 0.000000e+00
-6.387021e+04 -7.871334e+02 0.000000e+00 -7.871334e+02 -5.993579e+04 0.000000e+00 0.000000e+00 0.000000e+00 0.000000e+00
-6.206176e+04 -6.548843e+02 0.000000e+00 -6.548843e+02 -5.994513e+04 0.000000e+00 0.000000e+00 0.000000e+00 0.000000e+00
-6.075955e+04 -4.326450e+02 0.000000e+00 -4.326450e+02 -5.984415e+04 0.000000e+00 0.000000e+00 0.000000e+00 0.000000e+00
-6.168473e+04 2.984372e+03 0.000000e+00 2.984372e+03 -6.240442e+04 0.000000e+00 0.000000e+00 0.000000e+00 0.000000e+00
-6.297393e+04 2.776359e+03 0.000000e+00 2.776359e+03 -6.222279e+04 0.000000e+00 0.000000e+00 0.000000e+00 0.000000e+00
-6.438266e+04 2.228550e+03 0.000000e+00 2.228550e+03 -6.156886e+04 0.000000e+00 0.000000e+00 0.000000e+00 0.000000e+00
-6.535755e+04 1.636110e+03 0.000000e+00 1.636110e+03 -6.100990e+04 0.000000e+00 0.000000e+00 0.000000e+00 0.000000e+00
-6.588976e+04 1.011194e+03 0.000000e+00 1.011194e+03 -6.054984e+04 0.000000e+00 0.000000e+00 0.000000e+00 0.000000e+00
-6.597285e+04 3.903629e+02 0.000000e+00 3.903629e+02 -6.019507e+04 0.000000e+00 0.000000e+00 0.000000e+00 0.000000e+00
-6.562262e+04 -1.720492e+02 0.000000e+00 -1.720492e+02 -5.995838e+04 0.000000e+00 0.000000e+00 0.000000e+00 0.000000e+00
-6.486834e+04 -5.944961e+02 0.000000e+00 -5.944961e+02 -5.985139e+04 0.000000e+00 0.000000e+00 0.000000e+00 0.000000e+00
-6.378291e+04 -7.670304e+02 0.000000e+00 -7.670304e+02 -5.985787e+04 0.000000e+00 0.000000e+00 0.000000e+00 0.000000e+00
-6.251156e+04 -5.819590e+02 0.000000e+00 -5.819590e+02 -5.992573e+04 0.000000e+00 0.000000e+00 0.000000e+00 0.000000e+00
-6.163871e+04 -3.654341e+02 0.000000e+00 -3.654341e+02 -5.988539e+04 0.000000e+00 0.000000e+00 0.000000e+00 0.000000e+00
-6.130848e+04 2.197597e+03 0.000000e+00 2.197597e+03 -6.163080e+04 0.000000e+00 0.000000e+00 0.000000e+00 0.000000e+00
-6.247006e+04 2.032635e+03 0.000000e+00 2.032635e+03 -6.146079e+04 0.000000e+00 0.000000e+00 0.000000e+00 0.000000e+00
-6.379933e+04 1.597897e+03 0.000000e+00 1.597897e+03 -6.088868e+04 0.000000e+00 0.000000e+00 0.000000e+00 0.000000e+00
-6.473616e+04 1.123633e+03 0.000000e+00 1.123633e+03 -6.042927e+04 0.000000e+00 0.000000e+00 0.000000e+00 0.000000e+00
-6.525319e+04 6.141850e+02 0.000000e+00 6.141850e+02 -6.007977e+04 0.000000e+00 0.000000e+00 0.000000e+00 0.000000e+00
-6.537251e+04 1.258198e+02 0.000000e+00 1.258198e+02 -5.985105e+04 0.000000e+00 0.000000e+00 0.000000e+00 0.000000e+00
-6.512569e+04 -2.957098e+02 0.000000e+00 -2.957098e+02 -5.973956e+04 0.000000e+00 0.000000e+00 0.000000e+00 0.000000e+00
-6.457116e+04 -5.850311e+02 0.000000e+00 -5.850311e+02 -5.973933e+04 0.000000e+00 0.000000e+00 0.000000e+00 0.000000e+00
-6.379114e+04 -6.718639e+02 0.000000e+00 -6.718639e+02 -5.981484e+04 0.000000e+00 0.000000e+00 0.000000e+00 0.000000e+00
-6.292915e+04 -4.830888e+02 0.000000e+00 -4.830888e+02 -5.991627e+04 0.000000e+00 0.000000e+00 0.000000e+00 0.000000e+00
-6.237657e+04 -2.944742e+02 0.000000e+00 -2.944742e+02 -5.991702e+04 0.000000e+00 0.000000e+00 0.000000e+00 0.000000e+00
-6.102074e+04 1.495634e+03 0.000000e+00 1.495634e+03 -6.105349e+04 0.000000e+00 0.000000e+00 0.000000e+00 0.000000e+00
-6.208848e+04 1.380097e+03 0.000000e+00 1.380097e+03 -6.090296e+04 0.000000e+00 0.000000e+00 0.000000e+00 0.000000e+00
-6.335134e+04 1.061913e+03 0.000000e+00 1.061913e+03 -6.041126e+04 0.000000e+00 0.000000e+00 0.000000e+00 0.000000e+00
-6.424910e+04 7.081794e+02 0.000000e+00 7.081794e+02 -6.002875e+04 0.000000e+00 0.000000e+00 0.000000e+00 0.000000e+00
-6.476311e+04 3.373402e+02 0.000000e+00 3.373402e+02 -5.976537e+04 0.000000e+00 0.000000e+00 0.000000e+00 0.000000e+00
-6.492591e+04 -1.268811e+01 0.000000e+00 -1.268811e+01 -5.962798e+04 0.000000e+00 0.000000e+00 0.000000e+00 0.000000e+00
-6.477554e+04 -3.054543e+02 0.000000e+00 -3.054543e+02 -5.960414e+04 0.000000e+00 0.000000e+00 0.000000e+00 0.000000e+00
-6.438548e+04 -4.941057e+02 0.000000e+00 -4.941057e+02 -5.967124e+04 0.000000e+00 0.000000e+00 0.000000e+00 0.000000e+00
-6.384008e+04 -5.331578e+02 0.000000e+00 -5.331578e+02 -5.979027e+04 0.000000e+00 0.000000e+00 0.000000e+00 0.000000e+00
-6.327842e+04 -3.708639e+02 0.000000e+00 -3.708639e+02 -5.990957e+04 0.000000e+00 0.000000e+00 0.000000e+00 0.000000e+00
-6.295639e+04 -2.219708e+02 0.000000e+00 -2.219708e+02 -5.994014e+04 0.000000e+00 0.000000e+00 0.000000e+00 0.000000e+00
-6.080731e+04 8.693682e+02 0.000000e+00 8.693682e+02 -6.062408e+04 0.000000e+00 0.000000e+00 0.000000e+00 0.000000e+00
-6.182348e+04 7.953247e+02 0.000000e+00 7.953247e+02 -6.048304e+04 0.000000e+00 0.000000e+00 0.000000e+00 0.000000e+00
-6.304476e+04 5.980459e+02 0.000000e+00 5.980459e+02 -6.004389e+04 0.000000e+00 0.000000e+00 0.000000e+00 0.000000e+00
-6.391740e+04 3.819954e+02 0.000000e+00 3.819954e+02 -5.973480e+04 0.000000e+00 0.000000e+00 0.000000e+00 0.000000e+00
-6.442931e+04 1.586792e+02 0.000000e+00 1.586792e+02 -5.955084e+04 0.000000e+00 0.000000e+00 0.000000e+00 0.000000e+00
-6.462424e+04 -6.014510e+01 0.000000e+00 -6.014510e+01 -5.948351e+04 0.000000e+00 0.000000e+00 0.000000e+00 0.000000e+00
-6.454768e+04 -2.407562e+02 0.000000e+00 -2.407562e+02 -5.951919e+04 0.000000e+00 0.000000e+00 0.000000e+00 0.000000e+00
-6.427519e+04 -3.529266e+02 0.000000e+00 -3.529266e+02 -5.962998e+04 0.000000e+00 0.000000e+00 0.000000e+00 0.000000e+00
-6.389528e+04 -3.678239e+02 0.000000e+00 -3.678239e+02 -5.977609e+04 0.000000e+00 0.000000e+00 0.000000e+00 0.000000e+00
-6.353806e+04 -2.509415e+02 0.000000e+00 -2.509415e+02 -5.990496e+04 0.000000e+00 0.000000e+00 0.000000e+00 0.000000e+00
-6.337246e+04 -1.498338e+02 0.000000e+00 -1.498338e+02 -5.995470e+04 0.000000e+00 0.000000e+00 0.000000e+00 0.000000e+00
-6.064653e+04 2.737412e+02 0.000000e+00 2.737412e+02 -6.015454e+04 0.000000e+00 0.000000e+00 0.000000e+00 0.000000e+00
-6.169735e+04 2.880003e+02 0.000000e+00 2.880003e+02 -6.007341e+04 0.000000e+00 0.000000e+00 0.000000e+00 0.000000e+00
-6.289271e+04 2.324096e+02 0.000000e+00 2.324096e+02 -5.973906e+04 0.000000e+00 0.000000e+00 0.000000e+00 0.000000e+00
-6.373664e+04 1.516133e+02 0.000000e+00 1.516133e+02 -5.952896e+04 0.000000e+00 0.000000e+00 0.000000e+00 0.000000e+00
-6.424377e+04 5.735306e+01 0.000000e+00 5.735306e+01 -5.941511e+04 0.000000e+00 0.000000e+00 0.000000e+00 0.000000e+00
-6.445257e+04 -4.560767e+01 0.000000e+00 -4.560767e+01 -5.940332e+04 0.000000e+00 0.000000e+00 0.000000e+00 0.000000e+00
-6.442042e+04 -1.307210e+02 0.000000e+00 -1.307210e+02 -5.947355e+04 0.000000e+00 0.000000e+00 0.000000e+00 0.000000e+00
-6.421689e+04 -1.822081e+02 0.000000e+00 -1.822081e+02 -5.960734e+04 0.000000e+00 0.000000e+00 0.000000e+00 0.000000e+00
-6.393517e+04 -1.879745e+02 0.000000e+00 -1.879745e+02 -5.976720e+04 0.000000e+00 0.000000e+00 0.000000e+00 0.000000e+00
-6.369715e+04 -1.270587e+02 0.000000e+00 -1.270587e+02 -5.990196e+04 0.000000e+00 0.000000e+00 0.000000e+00 0.000000e+00
-6.361966e+04 -7.624858e+01 0.000000e+00 -7.624858e+01 -5.995988e+04 0.000000e+00 0.000000e+00 0.000000e+00 0.000000e+00
-6.048626e+04 -1.448047e+02 0.000000e+00 -1.448047e+02 -5.964489e+04 0.000000e+00 0.000000e+00 0.000000e+00 0.000000e+00
-6.162361e+04 -3.475188e+01 0.000000e+00 -3.475188e+01 -5.972366e+04 0.000000e+00 0.000000e+00 0.000000e+00 0.000000e+00
-6.284607e+04 2.100073e+01 0.000000e+00 2.100073e+01 -5.958469e+04 0.000000e+00 0.000000e+00 0.000000e+00 0.000000e+00
-6.368177e+04 1.846269e+01 0.000000e+00 1.846269e+01 -5.945487e+04 0.000000e+00 0.000000e+00 0.000000e+00 0.000000e+00
-6.418733e+04 1.428369e+00 0.000000e+00 1.428369e+00 -5.937341e+04 0.000000e+00 0.000000e+00 0.000000e+00 0.000000e+00
-6.439711e+04 -3.067542e+01 0.000000e+00 -3.067542e+01 -5.937818e+04 0.000000e+00 0.000000e+00 0.000000e+00 0.000000e+00
-6.437910e+04 -5.781355e+01 0.000000e+00 -5.781355e+01 -5.945791e+04 0.000000e+00 0.000000e+00 0.000000e+00 0.000000e+00
-6.419761e+04 -7.371445e+01 0.000000e+00 -7.371445e+01 -5.959629e+04 0.000000e+00 0.000000e+00 0.000000e+00 0.000000e+00
-6.394793e+04 -7.787910e+01 0.000000e+00 -7.787910e+01 -5.976121e+04 0.000000e+00 0.000000e+00 0.000000e+00 0.000000e+00
-6.375020e+04 -5.526390e+01 0.000000e+00 -5.526390e+01 -5.990011e+04 0.000000e+00 0.000000e+00 0.000000e+00 0.000000e+00
-6.369981e+04 -3.647726e+01 0.000000e+00 -3.647726e+01 -5.996120e+04 0.000000e+00 0.000000e+00 0.000000e+00 0.000000e+00
</DataArray>
<DataArray Name="vol_eps" type="Float64" NumberOfComponents="1" format="ascii">
-2.907470e-03
-2.717751e-03
-2.692850e-03
-2.772902e-03
-2.956883e-03
-3.263371e-03
-3.695136e-03
-4.250709e-03
-4.864161e-03
-5.436531e-03
-5.563185e-03
-2.810972e-03
-2.638975e-03
-2.618491e-03
-2.698108e-03
-2.876238e-03
-3.164214e-03
-3.569803e-03
-4.107611e-03
-4.779809e-03
-5.490231e-03
-6.194930e-03
-2.591425e-03
-2.449047e-03
-2.427677e-03
-2.494973e-03
-2.639971e-03
-2.863083e-03
-3.173508e-03
-3.612000e-03
-4.320838e-03
-5.595311e-03
-7.459236e-03
-2.280070e-03
-2.181261e-03
-2.165343e-03
-2.205602e-03
-2.275417e-03
-2.344178e-03
-2.379687e-03
-2.318264e-03
-2.041461e-03
-1.314689e-03
-9.106722e-04
-1.912727e-03
-1.867049e-03
-1.859805e-03
-1.875877e-03
-1.894085e-03
-1.890350e-03
-1.841302e-03
-1.714421e-03
-1.448713e-03
-9.921000e-04
-2.610474e-05
-1.539111e-03
-1.546101e-03
-1.553292e-03
-1.555641e-03
-1.541743e-03
-1.496479e-03
-1.403889e-03
-1.237371e-03
-9.562163e-04
-4.173533e-04
2.570990e-04
-1.191618e-03
-1.240673e-03
-1.264930e-03
-1.265421e-03
-1.239814e-03
-1.179506e-03
-1.072914e-03
-8.994887e-04
-6.199076e-04
-1.862828e-04
2.499605e-04
-8.971721e-04
-9.723787e-04
-1.011112e-03
-1.016671e-03
-9.905477e-04
-9.285588e-04
-8.239282e-04
-6.626927e-04
-4.274669e-04
-1.067852e-04
1.812526e-04
-6.636846e-04
-7.497619e-04
-7.974767e-04
-8.100150e-04
-7.898536e-04
-7.353465e-04
-6.431497e-04
-5.076492e-04
-3.236746e-04
-9.254571e-05
1.031036e-04
-4.856118e-04
-5.721122e-04
-6.246638e-04
-6.425607e-04
-6.295035e-04
-5.869193e-04
-5.128839e-04
-4.070924e-04
-2.698780e-04
-1.062624e-04
2.698548e-05
-3.535603e-04
-4.357141e-04
-4.883206e-04
-5.097613e-04
-5.047333e-04
-4.746300e-04
-4.198138e-04
-3.419906e-04
-2.435802e-04
-1.304657e-04
-4.131918e-05
-2.588994e-04
-3.321743e-04
-3.816063e-04
-4.069440e-04
-4.098153e-04
-3.913214e-04
-3.539403e-04
-3.001165e-04
-2.328596e-04
-1.573806e-04
-9.954766e-05
-1.878915e-04
-2.532762e-04
-3.016396e-04
-3.297659e-04
-3.389503e-04
-3.310067e-04
-3.083551e-04
-2.739047e-04
-2.304019e-04
-1.827752e-04
-1.478088e-04
-1.351493e-04
-1.956343e-04
-2.432649e-04
-2.727526e-04
-2.871503e-04
-2.882636e-04
-2.774811e-04
-2.576232e-04
-2.316655e-04
-2.042798e-04
-1.859115e-04
-9.480538e-05
-1.523058e-04
-2.004307e-04
-2.326529e-04
-2.518304e-04
-2.596780e-04
-2.574900e-04
-2.477788e-04
-2.338176e-04
-2.202505e-04
-2.130421e-04
-5.473396e-05
-1.173949e-04
-1.705223e-04
-2.079857e-04
-2.312277e-04
-2.433375e-04
-2.461872e-04
-2.423182e-04
-2.353454e-04
-2.298318e-04
-2.289992e-04
-1.130837e-05
-8.993376e-05
-1.575781e-04
-1.997669e-04
-2.250482e-04
-2.381675e-04
-2.424356e-04
-2.401480e-04
-2.355554e-04
-2.329018e-04
-2.340799e-04
</DataArray>
</PointData>
</Piece>
</UnstructuredGrid>
</VTKFile>
