<?xml version="1.0"?>
<VTKFile type="UnstructuredGrid" version="0.1">
<UnstructuredGrid>
<FieldData>
<DataArray Name="TIME" type="Float64" format="ascii" NumberOfTuples="1">
0.000000e+00
</DataArray>
</FieldData>
<FieldData>
<DataArray Name="CYCLE" type="Int32" format="ascii" NumberOfTuples="1">
0
</DataArray>
</FieldData>
<Piece NumberOfPoints="187" NumberOfCells="160">
<Points>
<DataArray NumberOfComponents="3" type="Float64" format="ascii">
0.000000e+00 0.000000e+00 0.000000e+00
0.000000e+00 1.965325e-01 0.000000e+00
0.000000e+00 3.905790e-01 0.000000e+00
0.000000e+00 5.814297e-01 0.000000e+00
0.000000e+00 7.700002e-01 0.000000e+00
0.000000e+00 9.576526e-01 0.000000e+00
0.000000e+00 1.145590e+00 0.000000e+00
0.000000e+00 1.334480e+00 0.000000e+00
0.000000e+00 1.525780e+00 0.000000e+00
0.000000e+00 1.720844e+00 0.000000e+00
0.000000e+00 1.916750e+00 0.000000e+00
2.250000e-01 0.000000e+00 0.000000e+00
2.273242e-01 1.963321e-01 0.000000e+00
2.314743e-01 3.907036e-01 0.000000e+00
2.349886e-01 5.828417e-01 0.000000e+00
2.371188e-01 7.732355e-01 0.000000e+00
2.374982e-01 9.623342e-01 0.000000e+00
2.367227e-01 1.151041e+00 0.000000e+00
2.347143e-01 1.339996e+00 0.000000e+00
2.303318e-01 1.529685e+00 0.000000e+00
2.255870e-01 1.721296e+00 0.000000e+00
2.250000e-01 1.916750e+00 0.000000e+00
4.500000e-01 0.000000e+00 0.000000e+00
4.550847e-01 1.967577e-01 0.000000e+00
4.612070e-01 3.924731e-01 0.000000e+00
4.664730e-01 5.875980e-01 0.000000e+00
4.701641e-01 7.819280e-01 0.000000e+00
4.720346e-01 9.750151e-01 0.000000e+00
4.720925e-01 1.166327e+00 0.000000e+00
4.706338e-01 1.356176e+00 0.000000e+00
4.663183e-01 1.544211e+00 0.000000e+00
4.602208e-01 1.730476e+00 0.000000e+00
4.500000e-01 1.916750e+00 0.000000e+00
6.750000e-01 0.000000e+00 0.000000e+00
6.821765e-01 1.982381e-01 0.000000e+00
6.887661e-01 3.962313e-01 0.000000e+00
6.938758e-01 5.945959e-01 0.000000e+00
6.977195e-01 7.934797e-01 0.000000e+00
7.002693e-01 9.927878e-01 0.000000e+00
7.012796e-01 1.192632e+00 0.000000e+00
7.006065e-01 1.392904e+00 0.000000e+00
6.980276e-01 1.593509e+00 0.000000e+00
6.931545e-01 1.794002e+00 0.000000e+00
6.850927e-01 1.993381e+00 0.000000e+00
9.000000e-01 0.000000e+00 0.000000e+00
9.078905e-01 1.989736e-01 0.000000e+00
9.140106e-01 3.980145e-01 0.000000e+00
9.183410e-01 5.974212e-01 0.000000e+00
9.215238e-01 7.972543e-01 0.000000e+00
9.235181e-01 9.975692e-01 0.000000e+00
9.241178e-01 1.198290e+00 0.000000e+00
9.231982e-01 1.399331e+00 0.000000e+00
9.206880e-01 1.600439e+00 0.000000e+00
9.165456e-01 1.801299e+00 0.000000e+00
9.112381e-01 2.001400e+00 0.000000e+00
1.125000e+00 0.000000e+00 0.000000e+00
1.132971e+00 1.994841e-01 0.000000e+00
1.138254e+00 3.991905e-01 0.000000e+00
1.141974e+00 5.993243e-01 0.000000e+00
1.144645e+00 7.998622e-01 0.000000e+00
1.146209e+00 1.000777e+00 0.000000e+00
1.146563e+00 1.202001e+00 0.000000e+00
1.145645e+00 1.403368e+00 0.000000e+00
1.143469e+00 1.604642e+00 0.000000e+00
1.140297e+00 1.805463e+00 0.000000e+00
1.137059e+00 2.005521e+00 0.000000e+00
1.350000e+00 0.000000e+00 0.000000e+00
1.357474e+00 1.998993e-01 0.000000e+00
1.361989e+00 4.000983e-01 0.000000e+00
1.365189e+00 6.006641e-01 0.000000e+00
1.367420e+00 8.015825e-01 0.000000e+00
1.368686e+00 1.002843e+00 0.000000e+00
1.368944e+00 1.204311e+00 0.000000e+00
1.368175e+00 1.405800e+00 0.000000e+00
1.366482e+00 1.607084e+00 0.000000e+00
1.364315e+00 1.807837e+00 0.000000e+00
1.362402e+00 2.007996e+00 0.000000e+00
1.575000e+00 0.000000e+00 0.000000e+00
1.581637e+00 2.001733e-01 0.000000e+00
1.585461e+00 4.006460e-01 0.000000e+00
1.588201e+00 6.014725e-01 0.000000e+00
1.590082e+00 8.026261e-01 0.000000e+00
1.591146e+00 1.004033e+00 0.000000e+00
1.591402e+00 1.205564e+00 0.000000e+00
1.590857e+00 1.407057e+00 0.000000e+00
1.589690e+00 1.608296e+00 0.000000e+00
1.588366e+00 1.809033e+00 0.000000e+00
1.587383e+00 2.009275e+00 0.000000e+00
1.800000e+00 0.000000e+00 0.000000e+00
1.805614e+00 2.002867e-01 0.000000e+00
1.808817e+00 4.009168e-01 0.000000e+00
1.811158e+00 6.018910e-01 0.000000e+00
1.812769e+00 8.031234e-01 0.000000e+00
1.813705e+00 1.004534e+00 0.000000e+00
1.814004e+00 1.206030e+00 0.000000e+00
1.813702e+00 1.407467e+00 0.000000e+00
1.813020e+00 1.608647e+00 0.000000e+00
1.812358e+00 1.809390e+00 0.000000e+00
1.812030e+00 2.009741e+00 0.000000e+00
2.025000e+00 0.000000e+00 0.000000e+00
2.029528e+00 2.003315e-01 0.000000e+00
2.032181e+00 4.010040e-01 0.000000e+00
2.034180e+00 6.019882e-01 0.000000e+00
2.035575e+00 8.031874e-01 0.000000e+00
2.036425e+00 1.004531e+00 0.000000e+00
2.036771e+00 1.205942e+00 0.000000e+00
2.036696e+00 1.407287e+00 0.000000e+00
2.036419e+00 1.608405e+00 0.000000e+00
2.036242e+00 1.809175e+00 0.000000e+00
2.036346e+00 2.009657e+00 0.000000e+00
2.250000e+00 0.000000e+00 0.000000e+00
2.253477e+00 2.002819e-01 0.000000e+00
2.255650e+00 4.009116e-01 0.000000e+00
2.257338e+00 6.018366e-01 0.000000e+00
2.258545e+00 8.029545e-01 0.000000e+00
2.259320e+00 1.004200e+00 0.000000e+00
2.259708e+00 1.205495e+00 0.000000e+00
2.259823e+00 1.406735e+00 0.000000e+00
2.259847e+00 1.607798e+00 0.000000e+00
2.259993e+00 1.808611e+00 0.000000e+00
2.260353e+00 2.009228e+00 0.000000e+00
2.475000e+00 0.000000e+00 0.000000e+00
2.477548e+00 2.002060e-01 0.000000e+00
2.479288e+00 4.007396e-01 0.000000e+00
2.480666e+00 6.015451e-01 0.000000e+00
2.481693e+00 8.025436e-01 0.000000e+00
2.482392e+00 1.003673e+00 0.000000e+00
2.482811e+00 1.204845e+00 0.000000e+00
2.483057e+00 1.405983e+00 0.000000e+00
2.483275e+00 1.607002e+00 0.000000e+00
2.483610e+00 1.807868e+00 0.000000e+00
2.484089e+00 2.008630e+00 0.000000e+00
2.700000e+00 0.000000e+00 0.000000e+00
2.701771e+00 2.001251e-01 0.000000e+00
2.703118e+00 4.005511e-01 0.000000e+00
2.704197e+00 6.012152e-01 0.000000e+00
2.705031e+00 8.020742e-01 0.000000e+00
2.705637e+00 1.003066e+00 0.000000e+00
2.706056e+00 1.204119e+00 0.000000e+00
2.706369e+00 1.405169e+00 0.000000e+00
2.706684e+00 1.606157e+00 0.000000e+00
2.707085e+00 1.807084e+00 0.000000e+00
2.707574e+00 2.007998e+00 0.000000e+00
2.925000e+00 0.000000e+00 0.000000e+00
2.926149e+00 2.000592e-01 0.000000e+00
2.927131e+00 4.003696e-01 0.000000e+00
2.927935e+00 6.009039e-01 0.000000e+00
2.928571e+00 8.016187e-01 0.000000e+00
2.929054e+00 1.002478e+00 0.000000e+00
2.929425e+00 1.203426e+00 0.000000e+00
2.929738e+00 1.404405e+00 0.000000e+00
2.930060e+00 1.605382e+00 0.000000e+00
2.930426e+00 1.806374e+00 0.000000e+00
2.930842e+00 2.007420e+00 0.000000e+00
3.150000e+00 0.000000e+00 0.000000e+00
3.150678e+00 1.999981e-01 0.000000e+00
3.151307e+00 4.002077e-01 0.000000e+00
3.151848e+00 6.006337e-01 0.000000e+00
3.152283e+00 8.012451e-01 0.000000e+00
3.152618e+00 1.002003e+00 0.000000e+00
3.152892e+00 1.202867e+00 0.000000e+00
3.153142e+00 1.403795e+00 0.000000e+00
3.153396e+00 1.604771e+00 0.000000e+00
3.153665e+00 1.805814e+00 0.000000e+00
3.153967e+00 2.006943e+00 0.000000e+00
3.375000e+00 0.000000e+00 0.000000e+00
3.375315e+00 1.999544e-01 0.000000e+00
3.375617e+00 4.001023e-01 0.000000e+00
3.375889e+00 6.004567e-01 0.000000e+00
3.376111e+00 8.010030e-01 0.000000e+00
3.376282e+00 1.001697e+00 0.000000e+00
3.376427e+00 1.202504e+00 0.000000e+00
3.376566e+00 1.403398e+00 0.000000e+00
3.376702e+00 1.604375e+00 0.000000e+00
3.376845e+00 1.805443e+00 0.000000e+00
3.377005e+00 2.006619e+00 0.000000e+00
3.600000e+00 0.000000e+00 0.000000e+00
3.600000e+00 1.999512e-01 0.000000e+00
3.600000e+00 4.000792e-01 0.000000e+00
3.600000e+00 6.004045e-01 0.000000e+00
3.600000e+00 8.009202e-01 0.000000e+00
3.600000e+00 1.001584e+00 0.000000e+00
3.600000e+00 1.202364e+00 0.000000e+00
3.600000e+00 1.403244e+00 0.000000e+00
3.600000e+00 1.604218e+00 0.000000e+00
3.600000e+00 1.805287e+00 0.000000e+00
3.600000e+00 2.006474e+00 0.000000e+00
</DataArray>
</Points>
<Cells>
<DataArray Name="connectivity" type="Int32" format="ascii">
0 11 12 1
1 12 13 2
2 13 14 3
3 14 15 4
4 15 16 5
5 16 17 6
6 17 18 7
7 18 19 8
8 19 20 9
9 20 21 10
11 22 23 12
12 23 24 13
13 24 25 14
14 25 26 15
15 26 27 16
16 27 28 17
17 28 29 18
18 29 30 19
19 30 31 20
20 31 32 21
22 33 34 23
23 34 35 24
24 35 36 25
25 36 37 26
26 37 38 27
27 38 39 28
28 39 40 29
29 40 41 30
30 41 42 31
31 42 43 32
33 44 45 34
34 45 46 35
35 46 47 36
36 47 48 37
37 48 49 38
38 49 50 39
39 50 51 40
40 51 52 41
41 52 53 42
42 53 54 43
44 55 56 45
45 56 57 46
46 57 58 47
47 58 59 48
48 59 60 49
49 60 61 50
50 61 62 51
51 62 63 52
52 63 64 53
53 64 65 54
55 66 67 56
56 67 68 57
57 68 69 58
58 69 70 59
59 70 71 60
60 71 72 61
61 72 73 62
62 73 74 63
63 74 75 64
64 75 76 65
66 77 78 67
67 78 79 68
68 79 80 69
69 80 81 70
70 81 82 71
71 82 83 72
72 83 84 73
73 84 85 74
74 85 86 75
75 86 87 76
77 88 89 78
78 89 90 79
79 90 91 80
80 91 92 81
81 92 93 82
82 93 94 83
83 94 95 84
84 95 96 85
85 96 97 86
86 97 98 87
88 99 100 89
89 100 101 90
90 101 102 91
91 102 103 92
92 103 104 93
93 104 105 94
94 105 106 95
95 106 107 96
96 107 108 97
97 108 109 98
99 110 111 100
100 111 112 101
101 112 113 102
102 113 114 103
103 114 115 104
104 115 116 105
105 116 117 106
106 117 118 107
107 118 119 108
108 119 120 109
110 121 122 111
111 122 123 112
112 123 124 113
113 124 125 114
114 125 126 115
115 126 127 116
116 127 128 117
117 128 129 118
118 129 130 119
119 130 131 120
121 132 133 122
122 133 134 123
123 134 135 124
124 135 136 125
125 136 137 126
126 137 138 127
127 138 139 128
128 139 140 129
129 140 141 130
130 141 142 131
132 143 144 133
133 144 145 134
134 145 146 135
135 146 147 136
136 147 148 137
137 148 149 138
138 149 150 139
139 150 151 140
140 151 152 141
141 152 153 142
143 154 155 144
144 155 156 145
145 156 157 146
146 157 158 147
147 158 159 148
148 159 160 149
149 160 161 150
150 161 162 151
151 162 163 152
152 163 164 153
154 165 166 155
155 166 167 156
156 167 168 157
157 168 169 158
158 169 170 159
159 170 171 160
160 171 172 161
161 172 173 162
162 173 174 163
163 174 175 164
165 176 177 166
166 177 178 167
167 178 179 168
168 179 180 169
169 180 181 170
170 181 182 171
171 182 183 172
172 183 184 173
173 184 185 174
174 185 186 175
</DataArray>
<DataArray Name="offsets" type="Int32" format="ascii">
4
8
12
16
20
24
28
32
36
40
44
48
52
56
60
64
68
72
76
80
84
88
92
96
100
104
108
112
116
120
124
128
132
136
140
144
148
152
156
160
164
168
172
176
180
184
188
192
196
200
204
208
212
216
220
224
228
232
236
240
244
248
252
256
260
264
268
272
276
280
284
288
292
296
300
304
308
312
316
320
324
328
332
336
340
344
348
352
356
360
364
368
372
376
380
384
388
392
396
400
404
408
412
416
420
424
428
432
436
440
444
448
452
456
460
464
468
472
476
480
484
488
492
496
500
504
508
512
516
520
524
528
532
536
540
544
548
552
556
560
564
568
572
576
580
584
588
592
596
600
604
608
612
616
620
624
628
632
636
640
</DataArray>
<DataArray Name="types" type="UInt8" format="ascii">
9
9
9
9
9
9
9
9
9
9
9
9
9
9
9
9
9
9
9
9
9
9
9
9
9
9
9
9
9
9
9
9
9
9
9
9
9
9
9
9
9
9
9
9
9
9
9
9
9
9
9
9
9
9
9
9
9
9
9
9
9
9
9
9
9
9
9
9
9
9
9
9
9
9
9
9
9
9
9
9
9
9
9
9
9
9
9
9
9
9
9
9
9
9
9
9
9
9
9
9
9
9
9
9
9
9
9
9
9
9
9
9
9
9
9
9
9
9
9
9
9
9
9
9
9
9
9
9
9
9
9
9
9
9
9
9
9
9
9
9
9
9
9
9
9
9
9
9
9
9
9
9
9
9
9
9
9
9
9
9
</DataArray>
</Cells>
<PointData>
<DataArray Name="disp" type="Float64" NumberOfComponents="3" format="ascii">
0.000000e+00 0.000000e+00 0.000000e+00
0.000000e+00 -3.467505e-03 0.000000e+00
0.000000e+00 -9.421057e-03 0.000000e+00
0.000000e+00 -1.857030e-02 0.000000e+00
0.000000e+00 -2.999980e-02 0.000000e+00
0.000000e+00 -4.234745e-02 0.000000e+00
0.000000e+00 -5.441034e-02 0.000000e+00
0.000000e+00 -6.551991e-02 0.000000e+00
0.000000e+00 -7.421999e-02 0.000000e+00
0.000000e+00 -7.915597e-02 0.000000e+00
0.000000e+00 -8.325000e-02 0.000000e+00
0.000000e+00 0.000000e+00 0.000000e+00
2.324243e-03 -3.667861e-03 0.000000e+00
6.474274e-03 -9.296392e-03 0.000000e+00
9.988609e-03 -1.715831e-02 0.000000e+00
1.211879e-02 -2.676452e-02 0.000000e+00
1.249822e-02 -3.766581e-02 0.000000e+00
1.172270e-02 -4.895879e-02 0.000000e+00
9.714251e-03 -6.000402e-02 0.000000e+00
5.331819e-03 -7.031480e-02 0.000000e+00
5.869613e-04 -7.870416e-02 0.000000e+00
0.000000e+00 -8.325000e-02 0.000000e+00
0.000000e+00 0.000000e+00 0.000000e+00
5.084662e-03 -3.242269e-03 0.000000e+00
1.120700e-02 -7.526860e-03 0.000000e+00
1.647297e-02 -1.240205e-02 0.000000e+00
2.016407e-02 -1.807198e-02 0.000000e+00
2.203456e-02 -2.498491e-02 0.000000e+00
2.209249e-02 -3.367279e-02 0.000000e+00
2.063383e-02 -4.382373e-02 0.000000e+00
1.631833e-02 -5.578894e-02 0.000000e+00
1.022085e-02 -6.952424e-02 0.000000e+00
0.000000e+00 -8.325000e-02 0.000000e+00
0.000000e+00 0.000000e+00 0.000000e+00
7.176463e-03 -1.761946e-03 0.000000e+00
1.376611e-02 -3.768744e-03 0.000000e+00
1.887578e-02 -5.404062e-03 0.000000e+00
2.271945e-02 -6.520272e-03 0.000000e+00
2.526930e-02 -7.212242e-03 0.000000e+00
2.627962e-02 -7.368077e-03 0.000000e+00
2.560646e-02 -7.095943e-03 0.000000e+00
2.302758e-02 -6.491292e-03 0.000000e+00
1.815446e-02 -5.998396e-03 0.000000e+00
1.009275e-02 -6.618668e-03 0.000000e+00
0.000000e+00 0.000000e+00 0.000000e+00
7.890482e-03 -1.026406e-03 0.000000e+00
1.401063e-02 -1.985506e-03 0.000000e+00
1.834096e-02 -2.578745e-03 0.000000e+00
2.152383e-02 -2.745659e-03 0.000000e+00
2.351813e-02 -2.430820e-03 0.000000e+00
2.411781e-02 -1.709996e-03 0.000000e+00
2.319818e-02 -6.688376e-04 0.000000e+00
2.068796e-02 4.389919e-04 0.000000e+00
1.654555e-02 1.299435e-03 0.000000e+00
1.123806e-02 1.399945e-03 0.000000e+00
0.000000e+00 0.000000e+00 0.000000e+00
7.970896e-03 -5.159393e-04 0.000000e+00
1.325398e-02 -8.095588e-04 0.000000e+00
1.697447e-02 -6.757267e-04 0.000000e+00
1.964470e-02 -1.378005e-04 0.000000e+00
2.120916e-02 7.771573e-04 0.000000e+00
2.156270e-02 2.000789e-03 0.000000e+00
2.064524e-02 3.367845e-03 0.000000e+00
1.846923e-02 4.641558e-03 0.000000e+00
1.529716e-02 5.462563e-03 0.000000e+00
1.205896e-02 5.520590e-03 0.000000e+00
0.000000e+00 0.000000e+00 0.000000e+00
7.474421e-03 -1.007160e-04 0.000000e+00
1.198903e-02 9.830677e-05 0.000000e+00
1.518866e-02 6.640549e-04 0.000000e+00
1.741962e-02 1.582501e-03 0.000000e+00
1.868577e-02 2.842899e-03 0.000000e+00
1.894417e-02 4.311220e-03 0.000000e+00
1.817520e-02 5.799797e-03 0.000000e+00
1.648253e-02 7.084210e-03 0.000000e+00
1.431519e-02 7.836509e-03 0.000000e+00
1.240181e-02 7.995881e-03 0.000000e+00
0.000000e+00 0.000000e+00 0.000000e+00
6.637342e-03 1.732596e-04 0.000000e+00
1.046092e-02 6.460314e-04 0.000000e+00
1.320082e-02 1.472477e-03 0.000000e+00
1.508202e-02 2.626160e-03 0.000000e+00
1.614631e-02 4.033348e-03 0.000000e+00
1.640230e-02 5.564233e-03 0.000000e+00
1.585677e-02 7.056993e-03 0.000000e+00
1.469020e-02 8.296203e-03 0.000000e+00
1.336555e-02 9.033135e-03 0.000000e+00
1.238278e-02 9.274773e-03 0.000000e+00
0.000000e+00 0.000000e+00 0.000000e+00
5.614124e-03 2.867072e-04 0.000000e+00
8.817441e-03 9.167781e-04 0.000000e+00
1.115843e-02 1.891005e-03 0.000000e+00
1.276888e-02 3.123380e-03 0.000000e+00
1.370525e-02 4.534135e-03 0.000000e+00
1.400437e-02 6.029767e-03 0.000000e+00
1.370189e-02 7.466595e-03 0.000000e+00
1.302046e-02 8.647353e-03 0.000000e+00
1.235806e-02 9.389765e-03 0.000000e+00
1.203028e-02 9.740931e-03 0.000000e+00
0.000000e+00 0.000000e+00 0.000000e+00
4.527805e-03 3.315260e-04 0.000000e+00
7.180542e-03 1.003969e-03 0.000000e+00
9.179838e-03 1.988183e-03 0.000000e+00
1.057491e-02 3.187393e-03 0.000000e+00
1.142528e-02 4.531119e-03 0.000000e+00
1.177135e-02 5.941831e-03 0.000000e+00
1.169635e-02 7.287153e-03 0.000000e+00
1.141890e-02 8.405008e-03 0.000000e+00
1.124171e-02 9.174859e-03 0.000000e+00
1.134569e-02 9.657424e-03 0.000000e+00
0.000000e+00 0.000000e+00 0.000000e+00
3.477450e-03 2.819326e-04 0.000000e+00
5.649831e-03 9.115651e-04 0.000000e+00
7.337815e-03 1.836610e-03 0.000000e+00
8.545204e-03 2.954484e-03 0.000000e+00
9.320546e-03 4.199692e-03 0.000000e+00
9.708179e-03 5.495287e-03 0.000000e+00
9.823370e-03 6.734691e-03 0.000000e+00
9.847470e-03 7.798161e-03 0.000000e+00
9.993348e-03 8.610744e-03 0.000000e+00
1.035250e-02 9.228547e-03 0.000000e+00
0.000000e+00 0.000000e+00 0.000000e+00
2.548473e-03 2.059530e-04 0.000000e+00
4.287512e-03 7.396258e-04 0.000000e+00
5.666030e-03 1.545076e-03 0.000000e+00
6.693295e-03 2.543637e-03 0.000000e+00
7.392123e-03 3.672801e-03 0.000000e+00
7.811193e-03 4.844600e-03 0.000000e+00
8.056505e-03 5.982585e-03 0.000000e+00
8.275123e-03 7.001672e-03 0.000000e+00
8.609846e-03 7.867765e-03 0.000000e+00
9.088587e-03 8.629457e-03 0.000000e+00
0.000000e+00 0.000000e+00 0.000000e+00
1.771225e-03 1.251273e-04 0.000000e+00
3.117845e-03 5.510479e-04 0.000000e+00
4.197448e-03 1.215190e-03 0.000000e+00
5.031459e-03 2.074219e-03 0.000000e+00
5.636589e-03 3.065591e-03 0.000000e+00
6.055845e-03 4.119447e-03 0.000000e+00
6.369233e-03 5.168590e-03 0.000000e+00
6.684416e-03 6.156741e-03 0.000000e+00
7.084574e-03 7.084271e-03 0.000000e+00
7.573910e-03 7.998518e-03 0.000000e+00
0.000000e+00 0.000000e+00 0.000000e+00
1.149019e-03 5.916221e-05 0.000000e+00
2.131222e-03 3.696155e-04 0.000000e+00
2.934804e-03 9.039500e-04 0.000000e+00
3.570906e-03 1.618666e-03 0.000000e+00
4.054456e-03 2.478366e-03 0.000000e+00
4.424993e-03 3.426479e-03 0.000000e+00
4.738132e-03 4.404780e-03 0.000000e+00
5.060229e-03 5.382349e-03 0.000000e+00
5.426001e-03 6.373709e-03 0.000000e+00
5.841787e-03 7.419674e-03 0.000000e+00
0.000000e+00 0.000000e+00 0.000000e+00
6.783222e-04 -1.875457e-06 0.000000e+00
1.307292e-03 2.077295e-04 0.000000e+00
1.848030e-03 6.336531e-04 0.000000e+00
2.282969e-03 1.245095e-03 0.000000e+00
2.617669e-03 2.003154e-03 0.000000e+00
2.892028e-03 2.867292e-03 0.000000e+00
3.142045e-03 3.794562e-03 0.000000e+00
3.395605e-03 4.771056e-03 0.000000e+00
3.664753e-03 5.814352e-03 0.000000e+00
3.967237e-03 6.943245e-03 0.000000e+00
0.000000e+00 0.000000e+00 0.000000e+00
3.151608e-04 -4.561851e-05 0.000000e+00
6.172142e-04 1.023289e-04 0.000000e+00
8.887294e-04 4.566475e-04 0.000000e+00
1.110647e-03 1.003044e-03 0.000000e+00
1.282080e-03 1.696887e-03 0.000000e+00
1.426829e-03 2.503664e-03 0.000000e+00
1.565582e-03 3.398089e-03 0.000000e+00
1.702227e-03 4.374967e-03 0.000000e+00
1.845197e-03 5.442671e-03 0.000000e+00
2.004615e-03 6.619106e-03 0.000000e+00
0.000000e+00 0.000000e+00 0.000000e+00
0.000000e+00 -4.881006e-05 0.000000e+00
0.000000e+00 7.916689e-05 0.000000e+00
0.000000e+00 4.045090e-04 0.000000e+00
0.000000e+00 9.202135e-04 0.000000e+00
0.000000e+00 1.584081e-03 0.000000e+00
0.000000e+00 2.363969e-03 0.000000e+00
0.000000e+00 3.244034e-03 0.000000e+00
0.000000e+00 4.218120e-03 0.000000e+00
0.000000e+00 5.287032e-03 0.000000e+00
0.000000e+00 6.474179e-03 0.000000e+00
</DataArray>
<DataArray Name="shear" type="Float64" NumberOfComponents="1" format="ascii">
2.157082e-02
3.568176e-02
6.544870e-02
9.323587e-02
1.108055e-01
1.159762e-01
1.109244e-01
9.443661e-02
6.276610e-02
3.183579e-02
2.231833e-02
2.495639e-02
3.823485e-02
6.179597e-02
8.306620e-02
9.940530e-02
1.091629e-01
1.111274e-01
1.039395e-01
8.598082e-02
5.873602e-02
3.812187e-02
3.261109e-02
4.264443e-02
5.581336e-02
6.652588e-02
7.990944e-02
9.692514e-02
1.154430e-01
1.319198e-01
1.471802e-01
1.536336e-01
1.512443e-01
3.834920e-02
4.190347e-02
4.455890e-02
4.624910e-02
5.122354e-02
5.980391e-02
7.241629e-02
8.822466e-02
1.074921e-01
1.279623e-01
1.430224e-01
4.044276e-02
3.819158e-02
3.289864e-02
2.956000e-02
2.816725e-02
2.677792e-02
2.471721e-02
2.157863e-02
1.635672e-02
7.251740e-03
1.118008e-03
4.024189e-02
3.517725e-02
2.755291e-02
2.476813e-02
2.382202e-02
2.288763e-02
2.131358e-02
1.859826e-02
1.412340e-02
6.875219e-03
2.214170e-03
3.767150e-02
3.165329e-02
2.392593e-02
2.196312e-02
2.145138e-02
2.096839e-02
1.974228e-02
1.739776e-02
1.327783e-02
6.864857e-03
2.416157e-03
3.342574e-02
2.757934e-02
2.090197e-02
1.986199e-02
1.976513e-02
1.953650e-02
1.859972e-02
1.656767e-02
1.277869e-02
7.212525e-03
3.524702e-03
2.831162e-02
2.339486e-02
1.841902e-02
1.806407e-02
1.816067e-02
1.811833e-02
1.749002e-02
1.576180e-02
1.241453e-02
7.832392e-03
5.020984e-03
2.289958e-02
1.925155e-02
1.603376e-02
1.617550e-02
1.650399e-02
1.668894e-02
1.632791e-02
1.490429e-02
1.215049e-02
8.678601e-03
6.728754e-03
1.763807e-02
1.527310e-02
1.364346e-02
1.425182e-02
1.487808e-02
1.527474e-02
1.511255e-02
1.404400e-02
1.200742e-02
9.644278e-03
8.437906e-03
1.296361e-02
1.172112e-02
1.132064e-02
1.230958e-02
1.326393e-02
1.387901e-02
1.392724e-02
1.327100e-02
1.200007e-02
1.069064e-02
1.012028e-02
9.037974e-03
8.645761e-03
9.125249e-03
1.038597e-02
1.161713e-02
1.249244e-02
1.283880e-02
1.263887e-02
1.212409e-02
1.177507e-02
1.174951e-02
5.885890e-03
6.021766e-03
7.130899e-03
8.642112e-03
1.008255e-02
1.121923e-02
1.189866e-02
1.217852e-02
1.234762e-02
1.273514e-02
1.309151e-02
3.461832e-03
3.862359e-03
5.459132e-03
7.279782e-03
8.911035e-03
1.022475e-02
1.117886e-02
1.187723e-02
1.256545e-02
1.340714e-02
1.397683e-02
1.611533e-03
2.300670e-03
4.322865e-03
6.398194e-03
8.177349e-03
9.584262e-03
1.071086e-02
1.169434e-02
1.267906e-02
1.376582e-02
1.446665e-02
5.685672e-04
1.681515e-03
3.915053e-03
6.073506e-03
7.905948e-03
9.347620e-03
1.053938e-02
1.162833e-02
1.270304e-02
1.386804e-02
1.461665e-02
</DataArray>
<DataArray Name="stress" type="Float64" NumberOfComponents="9" format="ascii">
-1.258551e+05 7.196774e+03 0.000000e+00 7.196774e+03 -2.254591e+05 0.000000e+00 0.000000e+00 0.000000e+00 0.000000e+00
-1.137177e+05 5.022577e+03 0.000000e+00 5.022577e+03 -2.282391e+05 0.000000e+00 0.000000e+00 0.000000e+00 0.000000e+00
-1.192272e+05 3.389528e+03 0.000000e+00 3.389528e+03 -2.291756e+05 0.000000e+00 0.000000e+00 0.000000e+00 0.000000e+00
-1.307579e+05 5.224802e+03 0.000000e+00 5.224802e+03 -2.405063e+05 0.000000e+00 0.000000e+00 0.000000e+00 0.000000e+00
-1.411196e+05 4.418904e+03 0.000000e+00 4.418904e+03 -2.464755e+05 0.000000e+00 0.000000e+00 0.000000e+00 0.000000e+00
-1.465807e+05 6.494896e+03 0.000000e+00 6.494896e+03 -2.535095e+05 0.000000e+00 0.000000e+00 0.000000e+00 0.000000e+00
-1.497896e+05 8.969953e+03 0.000000e+00 8.969953e+03 -2.687902e+05 0.000000e+00 0.000000e+00 0.000000e+00 0.000000e+00
-1.496419e+05 1.078516e+04 0.000000e+00 1.078516e+04 -2.776372e+05 0.000000e+00 0.000000e+00 0.000000e+00 0.000000e+00
-1.506378e+05 7.342550e+03 0.000000e+00 7.342550e+03 -2.910090e+05 0.000000e+00 0.000000e+00 0.000000e+00 0.000000e+00
-1.590255e+05 -1.683688e+03 0.000000e+00 -1.683688e+03 -3.022418e+05 0.000000e+00 0.000000e+00 0.000000e+00 0.000000e+00
-1.625238e+05 -6.353441e+02 0.000000e+00 -6.353441e+02 -2.870389e+05 0.000000e+00 0.000000e+00 0.000000e+00 0.000000e+00
-1.312164e+05 2.158905e+04 0.000000e+00 2.158905e+04 -2.213347e+05 0.000000e+00 0.000000e+00 0.000000e+00 0.000000e+00
-1.151769e+05 1.798840e+04 0.000000e+00 1.798840e+04 -2.171160e+05 0.000000e+00 0.000000e+00 0.000000e+00 0.000000e+00
-1.171299e+05 1.584953e+04 0.000000e+00 1.584953e+04 -2.266087e+05 0.000000e+00 0.000000e+00 0.000000e+00 0.000000e+00
-1.263657e+05 1.351761e+04 0.000000e+00 1.351761e+04 -2.373736e+05 0.000000e+00 0.000000e+00 0.000000e+00 0.000000e+00
-1.378507e+05 1.213822e+04 0.000000e+00 1.213822e+04 -2.482366e+05 0.000000e+00 0.000000e+00 0.000000e+00 0.000000e+00
-1.473461e+05 1.277346e+04 0.000000e+00 1.277346e+04 -2.573500e+05 0.000000e+00 0.000000e+00 0.000000e+00 0.000000e+00
-1.518113e+05 1.474384e+04 0.000000e+00 1.474384e+04 -2.683257e+05 0.000000e+00 0.000000e+00 0.000000e+00 0.000000e+00
-1.509636e+05 1.397778e+04 0.000000e+00 1.397778e+04 -2.760593e+05 0.000000e+00 0.000000e+00 0.000000e+00 0.000000e+00
-1.529782e+05 6.104106e+03 0.000000e+00 6.104106e+03 -2.878294e+05 0.000000e+00 0.000000e+00 0.000000e+00 0.000000e+00
-1.545230e+05 -2.477115e+03 0.000000e+00 -2.477115e+03 -2.925637e+05 0.000000e+00 0.000000e+00 0.000000e+00 0.000000e+00
-1.777614e+05 -8.607365e+03 0.000000e+00 -8.607365e+03 -3.341217e+05 0.000000e+00 0.000000e+00 0.000000e+00 0.000000e+00
-1.323866e+05 3.502783e+04 0.000000e+00 3.502783e+04 -1.933433e+05 0.000000e+00 0.000000e+00 0.000000e+00 0.000000e+00
-1.144609e+05 2.956828e+04 0.000000e+00 2.956828e+04 -1.810599e+05 0.000000e+00 0.000000e+00 0.000000e+00 0.000000e+00
-1.139870e+05 2.813067e+04 0.000000e+00 2.813067e+04 -1.885182e+05 0.000000e+00 0.000000e+00 0.000000e+00 0.000000e+00
-1.234964e+05 2.902575e+04 0.000000e+00 2.902575e+04 -2.000030e+05 0.000000e+00 0.000000e+00 0.000000e+00 0.000000e+00
-1.378737e+05 3.082654e+04 0.000000e+00 3.082654e+04 -2.158839e+05 0.000000e+00 0.000000e+00 0.000000e+00 0.000000e+00
-1.549668e+05 3.433018e+04 0.000000e+00 3.433018e+04 -2.329323e+05 0.000000e+00 0.000000e+00 0.000000e+00 0.000000e+00
-1.688226e+05 3.587460e+04 0.000000e+00 3.587460e+04 -2.526929e+05 0.000000e+00 0.000000e+00 0.000000e+00 0.000000e+00
-1.757749e+05 3.717966e+04 0.000000e+00 3.717966e+04 -2.698268e+05 0.000000e+00 0.000000e+00 0.000000e+00 0.000000e+00
-1.854462e+05 3.349712e+04 0.000000e+00 3.349712e+04 -2.848935e+05 0.000000e+00 0.000000e+00 0.000000e+00 0.000000e+00
-1.907613e+05 2.052642e+04 0.000000e+00 2.052642e+04 -2.961425e+05 0.000000e+00 0.000000e+00 0.000000e+00 0.000000e+00
-2.109943e+05 -2.904142e+03 0.000000e+00 -2.904142e+03 -3.557222e+05 0.000000e+00 0.000000e+00 0.000000e+00 0.000000e+00
-1.207599e+05 3.299193e+04 0.000000e+00 3.299193e+04 -1.440042e+05 0.000000e+00 0.000000e+00 0.000000e+00 0.000000e+00
-1.070897e+05 2.959788e+04 0.000000e+00 2.959788e+04 -1.339287e+05 0.000000e+00 0.000000e+00 0.000000e+00 0.000000e+00
-1.092940e+05 3.109664e+04 0.000000e+00 3.109664e+04 -1.344935e+05 0.000000e+00 0.000000e+00 0.000000e+00 0.000000e+00
-1.187104e+05 3.432723e+04 0.000000e+00 3.432723e+04 -1.350295e+05 0.000000e+00 0.000000e+00 0.000000e+00 0.000000e+00
-1.270489e+05 3.574740e+04 0.000000e+00 3.574740e+04 -1.326919e+05 0.000000e+00 0.000000e+00 0.000000e+00 0.000000e+00
-1.325995e+05 3.600170e+04 0.000000e+00 3.600170e+04 -1.286098e+05 0.000000e+00 0.000000e+00 0.000000e+00 0.000000e+00
-1.307595e+05 3.165027e+04 0.000000e+00 3.165027e+04 -1.194702e+05 0.000000e+00 0.000000e+00 0.000000e+00 0.000000e+00
-1.221370e+05 2.601132e+04 0.000000e+00 2.601132e+04 -1.077901e+05 0.000000e+00 0.000000e+00 0.000000e+00 0.000000e+00
-1.092616e+05 1.927442e+04 0.000000e+00 1.927442e+04 -9.368845e+04 0.000000e+00 0.000000e+00 0.000000e+00 0.000000e+00
-8.482195e+04 9.686367e+03 0.000000e+00 9.686367e+03 -7.967231e+04 0.000000e+00 0.000000e+00 0.000000e+00 0.000000e+00
-4.601995e+04 3.735542e+03 0.000000e+00 3.735542e+03 -5.736631e+04 0.000000e+00 0.000000e+00 0.000000e+00 0.000000e+00
-1.137275e+05 3.144450e+04 0.000000e+00 3.144450e+04 -1.169408e+05 0.000000e+00 0.000000e+00 0.000000e+00 0.000000e+00
-1.081104e+05 3.011368e+04 0.000000e+00 3.011368e+04 -1.135643e+05 0.000000e+00 0.000000e+00 0.000000e+00 0.000000e+00
-1.153595e+05 3.222071e+04 0.000000e+00 3.222071e+04 -1.162524e+05 0.000000e+00 0.000000e+00 0.000000e+00 0.000000e+00
-1.264316e+05 3.396437e+04 0.000000e+00 3.396437e+04 -1.148892e+05 0.000000e+00 0.000000e+00 0.000000e+00 0.000000e+00
-1.359092e+05 3.354277e+04 0.000000e+00 3.354277e+04 -1.093836e+05 0.000000e+00 0.000000e+00 0.000000e+00 0.000000e+00
-1.414862e+05 3.030361e+04 0.000000e+00 3.030361e+04 -1.013953e+05 0.000000e+00 0.000000e+00 0.000000e+00 0.000000e+00
-1.413337e+05 2.479598e+04 0.000000e+00 2.479598e+04 -9.252534e+04 0.000000e+00 0.000000e+00 0.000000e+00 0.000000e+00
-1.366094e+05 1.814028e+04 0.000000e+00 1.814028e+04 -8.366480e+04 0.000000e+00 0.000000e+00 0.000000e+00 0.000000e+00
-1.250941e+05 9.990513e+03 0.000000e+00 9.990513e+03 -7.507674e+04 0.000000e+00 0.000000e+00 0.000000e+00 0.000000e+00
-9.577653e+04 1.377396e+03 0.000000e+00 1.377396e+03 -6.856172e+04 0.000000e+00 0.000000e+00 0.000000e+00 0.000000e+00
-5.165491e+04 -1.398867e+03 0.000000e+00 -1.398867e+03 -5.377077e+04 0.000000e+00 0.000000e+00 0.000000e+00 0.000000e+00
-1.068954e+05 3.075321e+04 0.000000e+00 3.075321e+04 -1.020446e+05 0.000000e+00 0.000000e+00 0.000000e+00 0.000000e+00
-1.078545e+05 3.074713e+04 0.000000e+00 3.074713e+04 -1.020571e+05 0.000000e+00 0.000000e+00 0.000000e+00 0.000000e+00
-1.162939e+05 3.070351e+04 0.000000e+00 3.070351e+04 -1.020503e+05 0.000000e+00 0.000000e+00 0.000000e+00 0.000000e+00
-1.258590e+05 2.900810e+04 0.000000e+00 2.900810e+04 -9.718423e+04 0.000000e+00 0.000000e+00 0.000000e+00 0.000000e+00
-1.330001e+05 2.619937e+04 0.000000e+00 2.619937e+04 -9.150077e+04 0.000000e+00 0.000000e+00 0.000000e+00 0.000000e+00
-1.361186e+05 2.173994e+04 0.000000e+00 2.173994e+04 -8.533492e+04 0.000000e+00 0.000000e+00 0.000000e+00 0.000000e+00
-1.348800e+05 1.604798e+04 0.000000e+00 1.604798e+04 -7.871336e+04 0.000000e+00 0.000000e+00 0.000000e+00 0.000000e+00
-1.287541e+05 9.265993e+03 0.000000e+00 9.265993e+03 -7.197445e+04 0.000000e+00 0.000000e+00 0.000000e+00 0.000000e+00
-1.158389e+05 1.606053e+03 0.000000e+00 1.606053e+03 -6.608059e+04 0.000000e+00 0.000000e+00 0.000000e+00 0.000000e+00
-9.002738e+04 -3.957874e+03 0.000000e+00 -3.957874e+03 -6.208300e+04 0.000000e+00 0.000000e+00 0.000000e+00 0.000000e+00
-5.697802e+04 -4.704309e+03 0.000000e+00 -4.704309e+03 -5.453471e+04 0.000000e+00 0.000000e+00 0.000000e+00 0.000000e+00
-9.963562e+04 2.958952e+04 0.000000e+00 2.958952e+04 -9.060484e+04 0.000000e+00 0.000000e+00 0.000000e+00 0.000000e+00
-1.058792e+05 2.955644e+04 0.000000e+00 2.955644e+04 -9.244034e+04 0.000000e+00 0.000000e+00 0.000000e+00 0.000000e+00
-1.145967e+05 2.667431e+04 0.000000e+00 2.667431e+04 -8.950767e+04 0.000000e+00 0.000000e+00 0.000000e+00 0.000000e+00
-1.235474e+05 2.388373e+04 0.000000e+00 2.388373e+04 -8.500192e+04 0.000000e+00 0.000000e+00 0.000000e+00 0.000000e+00
-1.289507e+05 2.022198e+04 0.000000e+00 2.022198e+04 -8.040719e+04 0.000000e+00 0.000000e+00 0.000000e+00 0.000000e+00
-1.304559e+05 1.530237e+04 0.000000e+00 1.530237e+04 -7.541604e+04 0.000000e+00 0.000000e+00 0.000000e+00 0.000000e+00
-1.282122e+05 9.472516e+03 0.000000e+00 9.472516e+03 -7.024156e+04 0.000000e+00 0.000000e+00 0.000000e+00 0.000000e+00
-1.210024e+05 2.949398e+03 0.000000e+00 2.949398e+03 -6.553518e+04 0.000000e+00 0.000000e+00 0.000000e+00 0.000000e+00
-1.087441e+05 -3.009961e+03 0.000000e+00 -3.009961e+03 -6.223508e+04 0.000000e+00 0.000000e+00 0.000000e+00 0.000000e+00
-8.846056e+04 -5.233413e+03 0.000000e+00 -5.233413e+03 -6.021946e+04 0.000000e+00 0.000000e+00 0.000000e+00 0.000000e+00
-6.614912e+04 -4.485237e+03 0.000000e+00 -4.485237e+03 -5.610487e+04 0.000000e+00 0.000000e+00 0.000000e+00 0.000000e+00
-9.069139e+04 2.636222e+04 0.000000e+00 2.636222e+04 -8.058594e+04 0.000000e+00 0.000000e+00 0.000000e+00 0.000000e+00
-1.016993e+05 2.660919e+04 0.000000e+00 2.660919e+04 -8.400923e+04 0.000000e+00 0.000000e+00 0.000000e+00 0.000000e+00
-1.119735e+05 2.275367e+04 0.000000e+00 2.275367e+04 -8.036135e+04 0.000000e+00 0.000000e+00 0.000000e+00 0.000000e+00
-1.199878e+05 1.947383e+04 0.000000e+00 1.947383e+04 -7.670720e+04 0.000000e+00 0.000000e+00 0.000000e+00 0.000000e+00
-1.240767e+05 1.525630e+04 0.000000e+00 1.525630e+04 -7.282516e+04 0.000000e+00 0.000000e+00 0.000000e+00 0.000000e+00
-1.247311e+05 1.025080e+04 0.000000e+00 1.025080e+04 -6.881145e+04 0.000000e+00 0.000000e+00 0.000000e+00 0.000000e+00
-1.216469e+05 4.656115e+03 0.000000e+00 4.656115e+03 -6.499818e+04 0.000000e+00 0.000000e+00 0.000000e+00 0.000000e+00
-1.144886e+05 -8.905419e+02 0.000000e+00 -8.905419e+02 -6.206064e+04 0.000000e+00 0.000000e+00 0.000000e+00 0.000000e+00
-1.043011e+05 -4.914274e+03 0.000000e+00 -4.914274e+03 -6.038405e+04 0.000000e+00 0.000000e+00 0.000000e+00 0.000000e+00
-8.993178e+04 -5.279681e+03 0.000000e+00 -5.279681e+03 -5.955457e+04 0.000000e+00 0.000000e+00 0.000000e+00 0.000000e+00
-7.537143e+04 -4.005162e+03 0.000000e+00 -4.005162e+03 -5.686373e+04 0.000000e+00 0.000000e+00 0.000000e+00 0.000000e+00
-8.303380e+04 2.296797e+04 0.000000e+00 2.296797e+04 -7.344966e+04 0.000000e+00 0.000000e+00 0.000000e+00 0.000000e+00
-9.755504e+04 2.326368e+04 0.000000e+00 2.326368e+04 -7.744005e+04 0.000000e+00 0.000000e+00 0.000000e+00 0.000000e+00
-1.087946e+05 1.950572e+04 0.000000e+00 1.950572e+04 -7.387607e+04 0.000000e+00 0.000000e+00 0.000000e+00 0.000000e+00
-1.156055e+05 1.574190e+04 0.000000e+00 1.574190e+04 -7.073636e+04 0.000000e+00 0.000000e+00 0.000000e+00 0.000000e+00
-1.190776e+05 1.130924e+04 0.000000e+00 1.130924e+04 -6.759043e+04 0.000000e+00 0.000000e+00 0.000000e+00 0.000000e+00
-1.191618e+05 6.416569e+03 0.000000e+00 6.416569e+03 -6.451385e+04 0.000000e+00 0.000000e+00 0.000000e+00 0.000000e+00
-1.157884e+05 1.406694e+03 0.000000e+00 1.406694e+03 -6.190152e+04 0.000000e+00 0.000000e+00 0.000000e+00 0.000000e+00
-1.095889e+05 -2.941676e+03 0.000000e+00 -2.941676e+03 -6.016045e+04 0.000000e+00 0.000000e+00 0.000000e+00 0.000000e+00
-1.020003e+05 -5.450152e+03 0.000000e+00 -5.450152e+03 -5.943207e+04 0.000000e+00 0.000000e+00 0.000000e+00 0.000000e+00
-9.252956e+04 -4.827289e+03 0.000000e+00 -4.827289e+03 -5.928031e+04 0.000000e+00 0.000000e+00 0.000000e+00 0.000000e+00
-8.348084e+04 -3.250094e+03 0.000000e+00 -3.250094e+03 -5.762576e+04 0.000000e+00 0.000000e+00 0.000000e+00 0.000000e+00
-7.730227e+04 2.049194e+04 0.000000e+00 2.049194e+04 -6.848245e+04 0.000000e+00 0.000000e+00 0.000000e+00 0.000000e+00
-9.362972e+04 2.050355e+04 0.000000e+00 2.050355e+04 -7.221016e+04 0.000000e+00 0.000000e+00 0.000000e+00 0.000000e+00
-1.050930e+05 1.666822e+04 0.000000e+00 1.666822e+04 -6.921227e+04 0.000000e+00 0.000000e+00 0.000000e+00 0.000000e+00
-1.111963e+05 1.263745e+04 0.000000e+00 1.263745e+04 -6.649472e+04 0.000000e+00 0.000000e+00 0.000000e+00 0.000000e+00
-1.141615e+05 8.230333e+03 0.000000e+00 8.230333e+03 -6.394623e+04 0.000000e+00 0.000000e+00 0.000000e+00 0.000000e+00
-1.139397e+05 3.647471e+03 0.000000e+00 3.647471e+03 -6.169570e+04 0.000000e+00 0.000000e+00 0.000000e+00 0.000000e+00
-1.109625e+05 -6.195668e+02 0.000000e+00 -6.195668e+02 -6.005385e+04 0.000000e+00 0.000000e+00 0.000000e+00 0.000000e+00
-1.062048e+05 -3.857646e+03 0.000000e+00 -3.857646e+03 -5.912258e+04 0.000000e+00 0.000000e+00 0.000000e+00 0.000000e+00
-1.010745e+05 -5.296833e+03 0.000000e+00 -5.296833e+03 -5.893729e+04 0.000000e+00 0.000000e+00 0.000000e+00 0.000000e+00
-9.546806e+04 -4.140887e+03 0.000000e+00 -4.140887e+03 -5.920702e+04 0.000000e+00 0.000000e+00 0.000000e+00 0.000000e+00
-9.030862e+04 -2.521625e+03 0.000000e+00 -2.521625e+03 -5.833331e+04 0.000000e+00 0.000000e+00 0.000000e+00 0.000000e+00
-7.400448e+04 1.854119e+04 0.000000e+00 1.854119e+04 -6.512925e+04 0.000000e+00 0.000000e+00 0.000000e+00 0.000000e+00
-9.013041e+04 1.812902e+04 0.000000e+00 1.812902e+04 -6.841271e+04 0.000000e+00 0.000000e+00 0.000000e+00 0.000000e+00
-1.009185e+05 1.413472e+04 0.000000e+00 1.413472e+04 -6.562024e+04 0.000000e+00 0.000000e+00 0.000000e+00 0.000000e+00
-1.066214e+05 1.008802e+04 0.000000e+00 1.008802e+04 -6.346444e+04 0.000000e+00 0.000000e+00 0.000000e+00 0.000000e+00
-1.093387e+05 5.897525e+03 0.000000e+00 5.897525e+03 -6.149036e+04 0.000000e+00 0.000000e+00 0.000000e+00 0.000000e+00
-1.092777e+05 1.778088e+03 0.000000e+00 1.778088e+03 -5.992806e+04 0.000000e+00 0.000000e+00 0.000000e+00 0.000000e+00
-1.071701e+05 -1.766103e+03 0.000000e+00 -1.766103e+03 -5.889941e+04 0.000000e+00 0.000000e+00 0.000000e+00 0.000000e+00
-1.039888e+05 -4.088204e+03 0.000000e+00 -4.088204e+03 -5.855126e+04 0.000000e+00 0.000000e+00 0.000000e+00 0.000000e+00
-1.010420e+05 -4.749163e+03 0.000000e+00 -4.749163e+03 -5.869836e+04 0.000000e+00 0.000000e+00 0.000000e+00 0.000000e+00
-9.839396e+04 -3.385485e+03 0.000000e+00 -3.385485e+03 -5.921305e+04 0.000000e+00 0.000000e+00 0.000000e+00 0.000000e+00
-9.604464e+04 -1.856772e+03 0.000000e+00 -1.856772e+03 -5.897008e+04 0.000000e+00 0.000000e+00 0.000000e+00 0.000000e+00
-7.157968e+04 1.659501e+04 0.000000e+00 1.659501e+04 -6.288764e+04 0.000000e+00 0.000000e+00 0.000000e+00 0.000000e+00
-8.626809e+04 1.590850e+04 0.000000e+00 1.590850e+04 -6.559398e+04 0.000000e+00 0.000000e+00 0.000000e+00 0.000000e+00
-9.670218e+04 1.194963e+04 0.000000e+00 1.194963e+04 -6.313531e+04 0.000000e+00 0.000000e+00 0.000000e+00 0.000000e+00
-1.022359e+05 8.097433e+03 0.000000e+00 8.097433e+03 -6.144743e+04 0.000000e+00 0.000000e+00 0.000000e+00 0.000000e+00
-1.048466e+05 4.195146e+03 0.000000e+00 4.195146e+03 -5.993002e+04 0.000000e+00 0.000000e+00 0.000000e+00 0.000000e+00
-1.052713e+05 5.756830e+02 0.000000e+00 5.756830e+02 -5.883847e+04 0.000000e+00 0.000000e+00 0.000000e+00 0.000000e+00
-1.042445e+05 -2.269850e+03 0.000000e+00 -2.269850e+03 -5.829602e+04 0.000000e+00 0.000000e+00 0.000000e+00 0.000000e+00
-1.026509e+05 -3.862516e+03 0.000000e+00 -3.862516e+03 -5.833403e+04 0.000000e+00 0.000000e+00 0.000000e+00 0.000000e+00
-1.015327e+05 -4.019400e+03 0.000000e+00 -4.019400e+03 -5.873669e+04 0.000000e+00 0.000000e+00 0.000000e+00 0.000000e+00
-1.009717e+05 -2.659176e+03 0.000000e+00 -2.659176e+03 -5.932191e+04 0.000000e+00 0.000000e+00 0.000000e+00 0.000000e+00
-1.005618e+05 -1.255860e+03 0.000000e+00 -1.255860e+03 -5.951171e+04 0.000000e+00 0.000000e+00 0.000000e+00 0.000000e+00
-6.934229e+04 1.439590e+04 0.000000e+00 1.439590e+04 -6.205897e+04 0.000000e+00 0.000000e+00 0.000000e+00 0.000000e+00
-8.249567e+04 1.356989e+04 0.000000e+00 1.356989e+04 -6.389109e+04 0.000000e+00 0.000000e+00 0.000000e+00 0.000000e+00
-9.276781e+04 9.992401e+03 0.000000e+00 9.992401e+03 -6.149809e+04 0.000000e+00 0.000000e+00 0.000000e+00 0.000000e+00
-9.817519e+04 6.460811e+03 0.000000e+00 6.460811e+03 -5.994152e+04 0.000000e+00 0.000000e+00 0.000000e+00 0.000000e+00
-1.008812e+05 2.976811e+03 0.000000e+00 2.976811e+03 -5.878214e+04 0.000000e+00 0.000000e+00 0.000000e+00 0.000000e+00
-1.019396e+05 -7.208893e+01 0.000000e+00 -7.208893e+01 -5.813547e+04 0.000000e+00 0.000000e+00 0.000000e+00 0.000000e+00
-1.020172e+05 -2.292748e+03 0.000000e+00 -2.292748e+03 -5.800416e+04 0.000000e+00 0.000000e+00 0.000000e+00 0.000000e+00
-1.019323e+05 -3.351677e+03 0.000000e+00 -3.351677e+03 -5.829293e+04 0.000000e+00 0.000000e+00 0.000000e+00 0.000000e+00
-1.022704e+05 -3.216237e+03 0.000000e+00 -3.216237e+03 -5.885193e+04 0.000000e+00 0.000000e+00 0.000000e+00 0.000000e+00
-1.030799e+05 -1.993015e+03 0.000000e+00 -1.993015e+03 -5.948495e+04 0.000000e+00 0.000000e+00 0.000000e+00 0.000000e+00
-1.038964e+05 -8.174343e+02 0.000000e+00 -8.174343e+02 -5.999624e+04 0.000000e+00 0.000000e+00 0.000000e+00 0.000000e+00
-6.782850e+04 1.176250e+04 0.000000e+00 1.176250e+04 -6.219561e+04 0.000000e+00 0.000000e+00 0.000000e+00 0.000000e+00
-7.921373e+04 1.088079e+04 0.000000e+00 1.088079e+04 -6.302643e+04 0.000000e+00 0.000000e+00 0.000000e+00 0.000000e+00
-8.917580e+04 7.971963e+03 0.000000e+00 7.971963e+03 -6.066202e+04 0.000000e+00 0.000000e+00 0.000000e+00 0.000000e+00
-9.457345e+04 4.970503e+03 0.000000e+00 4.970503e+03 -5.898910e+04 0.000000e+00 0.000000e+00 0.000000e+00 0.000000e+00
-9.761396e+04 2.108241e+03 0.000000e+00 2.108241e+03 -5.791830e+04 0.000000e+00 0.000000e+00 0.000000e+00 0.000000e+00
-9.932574e+04 -2.936447e+02 0.000000e+00 -2.936447e+02 -5.753017e+04 0.000000e+00 0.000000e+00 0.000000e+00 0.000000e+00
-1.004679e+05 -1.927583e+03 0.000000e+00 -1.927583e+03 -5.770503e+04 0.000000e+00 0.000000e+00 0.000000e+00 0.000000e+00
-1.015855e+05 -2.604336e+03 0.000000e+00 -2.604336e+03 -5.825803e+04 0.000000e+00 0.000000e+00 0.000000e+00 0.000000e+00
-1.029833e+05 -2.389281e+03 0.000000e+00 -2.389281e+03 -5.896505e+04 0.000000e+00 0.000000e+00 0.000000e+00 0.000000e+00
-1.047074e+05 -1.435125e+03 0.000000e+00 -1.435125e+03 -5.961522e+04 0.000000e+00 0.000000e+00 0.000000e+00 0.000000e+00
-1.064153e+05 -5.857495e+02 0.000000e+00 -5.857495e+02 -6.025338e+04 0.000000e+00 0.000000e+00 0.000000e+00 0.000000e+00
-6.714857e+04 8.609276e+03 0.000000e+00 8.609276e+03 -6.325928e+04 0.000000e+00 0.000000e+00 0.000000e+00 0.000000e+00
-7.689955e+04 7.829851e+03 0.000000e+00 7.829851e+03 -6.306174e+04 0.000000e+00 0.000000e+00 0.000000e+00 0.000000e+00
-8.628812e+04 5.687875e+03 0.000000e+00 5.687875e+03 -6.048648e+04 0.000000e+00 0.000000e+00 0.000000e+00 0.000000e+00
-9.166283e+04 3.392134e+03 0.000000e+00 3.392134e+03 -5.863385e+04 0.000000e+00 0.000000e+00 0.000000e+00 0.000000e+00
-9.507217e+04 1.324556e+03 0.000000e+00 1.324556e+03 -5.758335e+04 0.000000e+00 0.000000e+00 0.000000e+00 0.000000e+00
-9.746045e+04 -2.845166e+02 0.000000e+00 -2.845166e+02 -5.729559e+04 0.000000e+00 0.000000e+00 0.000000e+00 0.000000e+00
-9.943425e+04 -1.322527e+03 0.000000e+00 -1.322527e+03 -5.763243e+04 0.000000e+00 0.000000e+00 0.000000e+00 0.000000e+00
-1.014183e+05 -1.725975e+03 0.000000e+00 -1.725975e+03 -5.830670e+04 0.000000e+00 0.000000e+00 0.000000e+00 0.000000e+00
-1.035112e+05 -1.569730e+03 0.000000e+00 -1.569730e+03 -5.907702e+04 0.000000e+00 0.000000e+00 0.000000e+00 0.000000e+00
-1.059148e+05 -9.271086e+02 0.000000e+00 -9.271086e+02 -5.966007e+04 0.000000e+00 0.000000e+00 0.000000e+00 0.000000e+00
-1.083114e+05 -3.510245e+02 0.000000e+00 -3.510245e+02 -6.038749e+04 0.000000e+00 0.000000e+00 0.000000e+00 0.000000e+00
-6.668704e+04 4.538464e+03 0.000000e+00 4.538464e+03 -6.441125e+04 0.000000e+00 0.000000e+00 0.000000e+00 0.000000e+00
-7.535463e+04 4.097845e+03 0.000000e+00 4.097845e+03 -6.357106e+04 0.000000e+00 0.000000e+00 0.000000e+00 0.000000e+00
-8.431216e+04 2.944108e+03 0.000000e+00 2.944108e+03 -6.059228e+04 0.000000e+00 0.000000e+00 0.000000e+00 0.000000e+00
-8.976763e+04 1.705687e+03 0.000000e+00 1.705687e+03 -5.860667e+04 0.000000e+00 0.000000e+00 0.000000e+00 0.000000e+00
-9.349772e+04 6.369455e+02 0.000000e+00 6.369455e+02 -5.758221e+04 0.000000e+00 0.000000e+00 0.000000e+00 0.000000e+00
-9.636285e+04 -1.564410e+02 0.000000e+00 -1.564410e+02 -5.734208e+04 0.000000e+00 0.000000e+00 0.000000e+00 0.000000e+00
-9.884430e+04 -6.491062e+02 0.000000e+00 -6.491062e+02 -5.770972e+04 0.000000e+00 0.000000e+00 0.000000e+00 0.000000e+00
-1.013245e+05 -8.438763e+02 0.000000e+00 -8.438763e+02 -5.839498e+04 0.000000e+00 0.000000e+00 0.000000e+00 0.000000e+00
-1.038367e+05 -7.889929e+02 0.000000e+00 -7.889929e+02 -5.914982e+04 0.000000e+00 0.000000e+00 0.000000e+00 0.000000e+00
-1.066681e+05 -4.580206e+02 0.000000e+00 -4.580206e+02 -5.967025e+04 0.000000e+00 0.000000e+00 0.000000e+00 0.000000e+00
-1.093880e+05 -1.429354e+02 0.000000e+00 -1.429354e+02 -6.050059e+04 0.000000e+00 0.000000e+00 0.000000e+00 0.000000e+00
-6.644376e+04 1.330743e+03 0.000000e+00 1.330743e+03 -6.461617e+04 0.000000e+00 0.000000e+00 0.000000e+00 0.000000e+00
-7.479933e+04 1.209332e+03 0.000000e+00 1.209332e+03 -6.367288e+04 0.000000e+00 0.000000e+00 0.000000e+00 0.000000e+00
-8.362818e+04 7.693578e+02 0.000000e+00 7.693578e+02 -6.067632e+04 0.000000e+00 0.000000e+00 0.000000e+00 0.000000e+00
-8.912767e+04 3.027027e+02 0.000000e+00 3.027027e+02 -5.870346e+04 0.000000e+00 0.000000e+00 0.000000e+00 0.000000e+00
-9.299643e+04 -8.787327e+01 0.000000e+00 -8.787327e+01 -5.768926e+04 0.000000e+00 0.000000e+00 0.000000e+00 0.000000e+00
-9.606269e+04 -3.827308e+02 0.000000e+00 -3.827308e+02 -5.745809e+04 0.000000e+00 0.000000e+00 0.000000e+00 0.000000e+00
-9.870086e+04 -5.713311e+02 0.000000e+00 -5.713311e+02 -5.779187e+04 0.000000e+00 0.000000e+00 0.000000e+00 0.000000e+00
-1.013077e+05 -6.536800e+02 0.000000e+00 -6.536800e+02 -5.843982e+04 0.000000e+00 0.000000e+00 0.000000e+00 0.000000e+00
-1.039564e+05 -6.396524e+02 0.000000e+00 -6.396524e+02 -5.919570e+04 0.000000e+00 0.000000e+00 0.000000e+00 0.000000e+00
-1.069463e+05 -4.569026e+02 0.000000e+00 -4.569026e+02 -5.972258e+04 0.000000e+00 0.000000e+00 0.000000e+00 0.000000e+00
-1.097636e+05 -2.765305e+02 0.000000e+00 -2.765305e+02 -6.058396e+04 0.000000e+00 0.000000e+00 0.000000e+00 0.000000e+00
</DataArray>
<DataArray Name="vol_eps" type="Float64" NumberOfComponents="1" format="ascii">
-1.438507e-02
-1.212592e-02
-9.203020e-03
-7.644055e-03
-7.140147e-03
-7.688766e-03
-8.916405e-03
-1.142908e-02
-1.580426e-02
-2.046800e-02
-2.057680e-02
-1.421643e-02
-1.123328e-02
-8.963677e-03
-7.816090e-03
-7.581662e-03
-7.977715e-03
-8.610889e-03
-1.001445e-02
-1.290781e-02
-1.608990e-02
-2.277612e-02
-1.189569e-02
-8.458485e-03
-7.260339e-03
-7.330044e-03
-7.921524e-03
-8.776940e-03
-9.595780e-03
-1.004130e-02
-1.016340e-02
-1.069324e-02
-1.537580e-02
-7.452588e-03
-5.292874e-03
-5.083345e-03
-5.532045e-03
-5.513571e-03
-4.473890e-03
-2.463756e-03
1.727581e-04
4.130190e-03
9.042865e-03
1.502201e-02
-4.780439e-03
-4.340679e-03
-5.518063e-03
-6.486540e-03
-6.871059e-03
-6.793734e-03
-6.311239e-03
-5.613903e-03
-4.688218e-03
-2.673716e-03
1.402842e-03
-2.997383e-03
-3.569693e-03
-5.022655e-03
-5.656267e-03
-5.793548e-03
-5.586847e-03
-5.095267e-03
-4.432912e-03
-3.613064e-03
-1.957312e-03
7.349415e-04
-1.628170e-03
-2.961981e-03
-4.360595e-03
-4.840958e-03
-4.845252e-03
-4.548479e-03
-4.105108e-03
-3.570946e-03
-2.962469e-03
-1.774080e-03
-8.589623e-05
-6.556034e-04
-2.461097e-03
-3.785786e-03
-4.111291e-03
-4.045938e-03
-3.782983e-03
-3.408889e-03
-2.992944e-03
-2.584324e-03
-1.843411e-03
-7.506314e-04
-1.910379e-04
-2.144308e-03
-3.268657e-03
-3.492970e-03
-3.460671e-03
-3.245046e-03
-2.931477e-03
-2.623288e-03
-2.394178e-03
-2.003508e-03
-1.339664e-03
-5.584019e-06
-1.916316e-03
-2.853748e-03
-3.036449e-03
-3.032683e-03
-2.858147e-03
-2.620101e-03
-2.412698e-03
-2.321366e-03
-2.180189e-03
-1.832141e-03
-7.836414e-05
-1.765394e-03
-2.502865e-03
-2.683823e-03
-2.707544e-03
-2.591792e-03
-2.427400e-03
-2.307637e-03
-2.315552e-03
-2.335793e-03
-2.211591e-03
-2.375680e-04
-1.627865e-03
-2.227055e-03
-2.424561e-03
-2.466589e-03
-2.408077e-03
-2.316208e-03
-2.277509e-03
-2.351797e-03
-2.456454e-03
-2.475386e-03
-3.980922e-04
-1.494098e-03
-2.007647e-03
-2.209060e-03
-2.273766e-03
-2.267751e-03
-2.247602e-03
-2.286258e-03
-2.403189e-03
-2.541835e-03
-2.643477e-03
-5.092933e-04
-1.359205e-03
-1.837089e-03
-2.034175e-03
-2.115408e-03
-2.148362e-03
-2.198344e-03
-2.301665e-03
-2.446356e-03
-2.588333e-03
-2.726064e-03
-6.124534e-04
-1.254346e-03
-1.694260e-03
-1.889617e-03
-1.992052e-03
-2.070865e-03
-2.175514e-03
-2.319667e-03
-2.474701e-03
-2.608349e-03
-2.769140e-03
-6.967633e-04
-1.200093e-03
-1.586184e-03
-1.793836e-03
-1.923584e-03
-2.039018e-03
-2.172804e-03
-2.332991e-03
-2.491132e-03
-2.618145e-03
-2.792821e-03
-7.057062e-04
-1.174896e-03
-1.550902e-03
-1.770700e-03
-1.915559e-03
-2.044009e-03
-2.181096e-03
-2.341309e-03
-2.502311e-03
-2.631577e-03
-2.809467e-03
</DataArray>
</PointData>
</Piece>
</UnstructuredGrid>
</VTKFile>
