<?xml version="1.0"?>
<VTKFile type="UnstructuredGrid" version="0.1">
<UnstructuredGrid>
<FieldData>
<DataArray Name="TIME" type="Float64" format="ascii" NumberOfTuples="1">
0.000000e+00
</DataArray>
</FieldData>
<FieldData>
<DataArray Name="CYCLE" type="Int32" format="ascii" NumberOfTuples="1">
0
</DataArray>
</FieldData>
<Piece NumberOfPoints="187" NumberOfCells="160">
<Points>
<DataArray NumberOfComponents="3" type="Float64" format="ascii">
0.000000e+00 0.000000e+00 0.000000e+00
0.000000e+00 1.965030e-01 0.000000e+00
0.000000e+00 3.904828e-01 0.000000e+00
0.000000e+00 5.812223e-01 0.000000e+00
0.000000e+00 7.696710e-01 0.000000e+00
0.000000e+00 9.571190e-01 0.000000e+00
0.000000e+00 1.144728e+00 0.000000e+00
0.000000e+00 1.333431e+00 0.000000e+00
0.000000e+00 1.524655e+00 0.000000e+00
0.000000e+00 1.719728e+00 0.000000e+00
0.000000e+00 1.915625e+00 0.000000e+00
2.250000e-01 0.000000e+00 0.000000e+00
2.273524e-01 1.962964e-01 0.000000e+00
2.315756e-01 3.905983e-01 0.000000e+00
2.351283e-01 5.826455e-01 0.000000e+00
2.373060e-01 7.729025e-01 0.000000e+00
2.377826e-01 9.618497e-01 0.000000e+00
2.370612e-01 1.150366e+00 0.000000e+00
2.349582e-01 1.339154e+00 0.000000e+00
2.303817e-01 1.528693e+00 0.000000e+00
2.255544e-01 1.720198e+00 0.000000e+00
2.250000e-01 1.915625e+00 0.000000e+00
4.500000e-01 0.000000e+00 0.000000e+00
4.551540e-01 1.967273e-01 0.000000e+00
4.614026e-01 3.923881e-01 0.000000e+00
4.667341e-01 5.874399e-01 0.000000e+00
4.705949e-01 7.816592e-01 0.000000e+00
4.724626e-01 9.746151e-01 0.000000e+00
4.726030e-01 1.165846e+00 0.000000e+00
4.710120e-01 1.355639e+00 0.000000e+00
4.665613e-01 1.543541e+00 0.000000e+00
4.603686e-01 1.729578e+00 0.000000e+00
4.500000e-01 1.915625e+00 0.000000e+00
6.750000e-01 0.000000e+00 0.000000e+00
6.822841e-01 1.982328e-01 0.000000e+00
6.890030e-01 3.962235e-01 0.000000e+00
6.942123e-01 5.945832e-01 0.000000e+00
6.981927e-01 7.934839e-01 0.000000e+00
7.007528e-01 9.928169e-01 0.000000e+00
7.018194e-01 1.192616e+00 0.000000e+00
7.010153e-01 1.392865e+00 0.000000e+00
6.983483e-01 1.593506e+00 0.000000e+00
6.933945e-01 1.794073e+00 0.000000e+00
6.853077e-01 1.993430e+00 0.000000e+00
9.000000e-01 0.000000e+00 0.000000e+00
9.080148e-01 1.989755e-01 0.000000e+00
9.142510e-01 3.980126e-01 0.000000e+00
9.186846e-01 5.974209e-01 0.000000e+00
9.219635e-01 7.972658e-01 0.000000e+00
9.239944e-01 9.975871e-01 0.000000e+00
9.246037e-01 1.198351e+00 0.000000e+00
9.235979e-01 1.399423e+00 0.000000e+00
9.209912e-01 1.600539e+00 0.000000e+00
9.167888e-01 1.801397e+00 0.000000e+00
9.114395e-01 2.001505e+00 0.000000e+00
1.125000e+00 0.000000e+00 0.000000e+00
1.133107e+00 1.994837e-01 0.000000e+00
1.138497e+00 3.991907e-01 0.000000e+00
1.142301e+00 5.993352e-01 0.000000e+00
1.145051e+00 7.998987e-01 0.000000e+00
1.146643e+00 1.000856e+00 0.000000e+00
1.146989e+00 1.202129e+00 0.000000e+00
1.146019e+00 1.403531e+00 0.000000e+00
1.143775e+00 1.604811e+00 0.000000e+00
1.140542e+00 1.805630e+00 0.000000e+00
1.137249e+00 2.005683e+00 0.000000e+00
1.350000e+00 0.000000e+00 0.000000e+00
1.357612e+00 1.999069e-01 0.000000e+00
1.362222e+00 4.001166e-01 0.000000e+00
1.365490e+00 6.006987e-01 0.000000e+00
1.367774e+00 8.016547e-01 0.000000e+00
1.369069e+00 1.002969e+00 0.000000e+00
1.369322e+00 1.204483e+00 0.000000e+00
1.368521e+00 1.406005e+00 0.000000e+00
1.366778e+00 1.607308e+00 0.000000e+00
1.364557e+00 1.808065e+00 0.000000e+00
1.362596e+00 2.008223e+00 0.000000e+00
1.575000e+00 0.000000e+00 0.000000e+00
1.581767e+00 2.001851e-01 0.000000e+00
1.585676e+00 4.006726e-01 0.000000e+00
1.588466e+00 6.015238e-01 0.000000e+00
1.590387e+00 8.027211e-01 0.000000e+00
1.591478e+00 1.004179e+00 0.000000e+00
1.591735e+00 1.205755e+00 0.000000e+00
1.591169e+00 1.407285e+00 0.000000e+00
1.589965e+00 1.608552e+00 0.000000e+00
1.588599e+00 1.809301e+00 0.000000e+00
1.587586e+00 2.009543e+00 0.000000e+00
1.800000e+00 0.000000e+00 0.000000e+00
1.805730e+00 2.002979e-01 0.000000e+00
1.809003e+00 4.009482e-01 0.000000e+00
1.811387e+00 6.019546e-01 0.000000e+00
1.813026e+00 8.032255e-01 0.000000e+00
1.813988e+00 1.004684e+00 0.000000e+00
1.814294e+00 1.206223e+00 0.000000e+00
1.813977e+00 1.407700e+00 0.000000e+00
1.813269e+00 1.608913e+00 0.000000e+00
1.812580e+00 1.809673e+00 0.000000e+00
1.812238e+00 2.010027e+00 0.000000e+00
2.025000e+00 0.000000e+00 0.000000e+00
2.029629e+00 2.003456e-01 0.000000e+00
2.032336e+00 4.010425e-01 0.000000e+00
2.034373e+00 6.020568e-01 0.000000e+00
2.035790e+00 8.032888e-01 0.000000e+00
2.036660e+00 1.004672e+00 0.000000e+00
2.037016e+00 1.206125e+00 0.000000e+00
2.036933e+00 1.407513e+00 0.000000e+00
2.036640e+00 1.608665e+00 0.000000e+00
2.036449e+00 1.809454e+00 0.000000e+00
2.036552e+00 2.009944e+00 0.000000e+00
2.250000e+00 0.000000e+00 0.000000e+00
2.253556e+00 2.002970e-01 0.000000e+00
2.255773e+00 4.009504e-01 0.000000e+00
2.257496e+00 6.019043e-01 0.000000e+00
2.258726e+00 8.030514e-01 0.000000e+00
2.259516e+00 1.004328e+00 0.000000e+00
2.259911e+00 1.205662e+00 0.000000e+00
2.260022e+00 1.406941e+00 0.000000e+00
2.260038e+00 1.608037e+00 0.000000e+00
2.260182e+00 1.808874e+00 0.000000e+00
2.260548e+00 2.009505e+00 0.000000e+00
2.475000e+00 0.000000e+00 0.000000e+00
2.477605e+00 2.002158e-01 0.000000e+00
2.479379e+00 4.007696e-01 0.000000e+00
2.480792e+00 6.016034e-01 0.000000e+00
2.481842e+00 8.026305e-01 0.000000e+00
2.482553e+00 1.003788e+00 0.000000e+00
2.482975e+00 1.204993e+00 0.000000e+00
2.483219e+00 1.406165e+00 0.000000e+00
2.483436e+00 1.607218e+00 0.000000e+00
2.483774e+00 1.808110e+00 0.000000e+00
2.484263e+00 2.008893e+00 0.000000e+00
2.700000e+00 0.000000e+00 0.000000e+00
2.701811e+00 2.001323e-01 0.000000e+00
2.703183e+00 4.005722e-01 0.000000e+00
2.704290e+00 6.012589e-01 0.000000e+00
2.705147e+00 8.021454e-01 0.000000e+00
2.705766e+00 1.003167e+00 0.000000e+00
2.706187e+00 1.204251e+00 0.000000e+00
2.706499e+00 1.405331e+00 0.000000e+00
2.706815e+00 1.606350e+00 0.000000e+00
2.707219e+00 1.807306e+00 0.000000e+00
2.707716e+00 2.008250e+00 0.000000e+00
2.925000e+00 0.000000e+00 0.000000e+00
2.926175e+00 2.000633e-01 0.000000e+00
2.927177e+00 4.003848e-01 0.000000e+00
2.927998e+00 6.009360e-01 0.000000e+00
2.928653e+00 8.016753e-01 0.000000e+00
2.929148e+00 1.002566e+00 0.000000e+00
2.929523e+00 1.203544e+00 0.000000e+00
2.929836e+00 1.404551e+00 0.000000e+00
2.930158e+00 1.605559e+00 0.000000e+00
2.930525e+00 1.806582e+00 0.000000e+00
2.930948e+00 2.007658e+00 0.000000e+00
3.150000e+00 0.000000e+00 0.000000e+00
3.150692e+00 2.000010e-01 0.000000e+00
3.151336e+00 4.002191e-01 0.000000e+00
3.151889e+00 6.006593e-01 0.000000e+00
3.152334e+00 8.012903e-01 0.000000e+00
3.152677e+00 1.002076e+00 0.000000e+00
3.152957e+00 1.202970e+00 0.000000e+00
3.153208e+00 1.403927e+00 0.000000e+00
3.153459e+00 1.604936e+00 0.000000e+00
3.153731e+00 1.806009e+00 0.000000e+00
3.154041e+00 2.007167e+00 0.000000e+00
3.375000e+00 0.000000e+00 0.000000e+00
3.375321e+00 1.999555e-01 0.000000e+00
3.375630e+00 4.001096e-01 0.000000e+00
3.375909e+00 6.004767e-01 0.000000e+00
3.376135e+00 8.010415e-01 0.000000e+00
3.376311e+00 1.001759e+00 0.000000e+00
3.376460e+00 1.202596e+00 0.000000e+00
3.376598e+00 1.403521e+00 0.000000e+00
3.376734e+00 1.604529e+00 0.000000e+00
3.376879e+00 1.805625e+00 0.000000e+00
3.377042e+00 2.006834e+00 0.000000e+00
3.600000e+00 0.000000e+00 0.000000e+00
3.600000e+00 1.999514e-01 0.000000e+00
3.600000e+00 4.000849e-01 0.000000e+00
3.600000e+00 6.004211e-01 0.000000e+00
3.600000e+00 8.009547e-01 0.000000e+00
3.600000e+00 1.001642e+00 0.000000e+00
3.600000e+00 1.202452e+00 0.000000e+00
3.600000e+00 1.403364e+00 0.000000e+00
3.600000e+00 1.604368e+00 0.000000e+00
3.600000e+00 1.805465e+00 0.000000e+00
3.600000e+00 2.006685e+00 0.000000e+00
</DataArray>
</Points>
<Cells>
<DataArray Name="connectivity" type="Int32" format="ascii">
0 11 12 1
1 12 13 2
2 13 14 3
3 14 15 4
4 15 16 5
5 16 17 6
6 17 18 7
7 18 19 8
8 19 20 9
9 20 21 10
11 22 23 12
12 23 24 13
13 24 25 14
14 25 26 15
15 26 27 16
16 27 28 17
17 28 29 18
18 29 30 19
19 30 31 20
20 31 32 21
22 33 34 23
23 34 35 24
24 35 36 25
25 36 37 26
26 37 38 27
27 38 39 28
28 39 40 29
29 40 41 30
30 41 42 31
31 42 43 32
33 44 45 34
34 45 46 35
35 46 47 36
36 47 48 37
37 48 49 38
38 49 50 39
39 50 51 40
40 51 52 41
41 52 53 42
42 53 54 43
44 55 56 45
45 56 57 46
46 57 58 47
47 58 59 48
48 59 60 49
49 60 61 50
50 61 62 51
51 62 63 52
52 63 64 53
53 64 65 54
55 66 67 56
56 67 68 57
57 68 69 58
58 69 70 59
59 70 71 60
60 71 72 61
61 72 73 62
62 73 74 63
63 74 75 64
64 75 76 65
66 77 78 67
67 78 79 68
68 79 80 69
69 80 81 70
70 81 82 71
71 82 83 72
72 83 84 73
73 84 85 74
74 85 86 75
75 86 87 76
77 88 89 78
78 89 90 79
79 90 91 80
80 91 92 81
81 92 93 82
82 93 94 83
83 94 95 84
84 95 96 85
85 96 97 86
86 97 98 87
88 99 100 89
89 100 101 90
90 101 102 91
91 102 103 92
92 103 104 93
93 104 105 94
94 105 106 95
95 106 107 96
96 107 108 97
97 108 109 98
99 110 111 100
100 111 112 101
101 112 113 102
102 113 114 103
103 114 115 104
104 115 116 105
105 116 117 106
106 117 118 107
107 118 119 108
108 119 120 109
110 121 122 111
111 122 123 112
112 123 124 113
113 124 125 114
114 125 126 115
115 126 127 116
116 127 128 117
117 128 129 118
118 129 130 119
119 130 131 120
121 132 133 122
122 133 134 123
123 134 135 124
124 135 136 125
125 136 137 126
126 137 138 127
127 138 139 128
128 139 140 129
129 140 141 130
130 141 142 131
132 143 144 133
133 144 145 134
134 145 146 135
135 146 147 136
136 147 148 137
137 148 149 138
138 149 150 139
139 150 151 140
140 151 152 141
141 152 153 142
143 154 155 144
144 155 156 145
145 156 157 146
146 157 158 147
147 158 159 148
148 159 160 149
149 160 161 150
150 161 162 151
151 162 163 152
152 163 164 153
154 165 166 155
155 166 167 156
156 167 168 157
157 168 169 158
158 169 170 159
159 170 171 160
160 171 172 161
161 172 173 162
162 173 174 163
163 174 175 164
165 176 177 166
166 177 178 167
167 178 179 168
168 179 180 169
169 180 181 170
170 181 182 171
171 182 183 172
172 183 184 173
173 184 185 174
174 185 186 175
</DataArray>
<DataArray Name="offsets" type="Int32" format="ascii">
4
8
12
16
20
24
28
32
36
40
44
48
52
56
60
64
68
72
76
80
84
88
92
96
100
104
108
112
116
120
124
128
132
136
140
144
148
152
156
160
164
168
172
176
180
184
188
192
196
200
204
208
212
216
220
224
228
232
236
240
244
248
252
256
260
264
268
272
276
280
284
288
292
296
300
304
308
312
316
320
324
328
332
336
340
344
348
352
356
360
364
368
372
376
380
384
388
392
396
400
404
408
412
416
420
424
428
432
436
440
444
448
452
456
460
464
468
472
476
480
484
488
492
496
500
504
508
512
516
520
524
528
532
536
540
544
548
552
556
560
564
568
572
576
580
584
588
592
596
600
604
608
612
616
620
624
628
632
636
640
</DataArray>
<DataArray Name="types" type="UInt8" format="ascii">
9
9
9
9
9
9
9
9
9
9
9
9
9
9
9
9
9
9
9
9
9
9
9
9
9
9
9
9
9
9
9
9
9
9
9
9
9
9
9
9
9
9
9
9
9
9
9
9
9
9
9
9
9
9
9
9
9
9
9
9
9
9
9
9
9
9
9
9
9
9
9
9
9
9
9
9
9
9
9
9
9
9
9
9
9
9
9
9
9
9
9
9
9
9
9
9
9
9
9
9
9
9
9
9
9
9
9
9
9
9
9
9
9
9
9
9
9
9
9
9
9
9
9
9
9
9
9
9
9
9
9
9
9
9
9
9
9
9
9
9
9
9
9
9
9
9
9
9
9
9
9
9
9
9
9
9
9
9
9
9
</DataArray>
</Cells>
<PointData>
<DataArray Name="disp" type="Float64" NumberOfComponents="3" format="ascii">
0.000000e+00 0.000000e+00 0.000000e+00
0.000000e+00 -3.497015e-03 0.000000e+00
0.000000e+00 -9.517148e-03 0.000000e+00
0.000000e+00 -1.877770e-02 0.000000e+00
0.000000e+00 -3.032895e-02 0.000000e+00
0.000000e+00 -4.288093e-02 0.000000e+00
0.000000e+00 -5.527200e-02 0.000000e+00
0.000000e+00 -6.656881e-02 0.000000e+00
0.000000e+00 -7.534543e-02 0.000000e+00
0.000000e+00 -8.027215e-02 0.000000e+00
0.000000e+00 -8.437500e-02 0.000000e+00
0.000000e+00 0.000000e+00 0.000000e+00
2.352384e-03 -3.703617e-03 0.000000e+00
6.575623e-03 -9.401713e-03 0.000000e+00
1.012828e-02 -1.735445e-02 0.000000e+00
1.230596e-02 -2.709752e-02 0.000000e+00
1.278261e-02 -3.815033e-02 0.000000e+00
1.206123e-02 -4.963358e-02 0.000000e+00
9.958246e-03 -6.084629e-02 0.000000e+00
5.381671e-03 -7.130651e-02 0.000000e+00
5.543849e-04 -7.980166e-02 0.000000e+00
0.000000e+00 -8.437500e-02 0.000000e+00
0.000000e+00 0.000000e+00 0.000000e+00
5.154018e-03 -3.272665e-03 0.000000e+00
1.140261e-02 -7.611918e-03 0.000000e+00
1.673413e-02 -1.256010e-02 0.000000e+00
2.059490e-02 -1.834073e-02 0.000000e+00
2.246263e-02 -2.538490e-02 0.000000e+00
2.260296e-02 -3.415446e-02 0.000000e+00
2.101200e-02 -4.436135e-02 0.000000e+00
1.656125e-02 -5.645876e-02 0.000000e+00
1.036857e-02 -7.042205e-02 0.000000e+00
0.000000e+00 -8.437500e-02 0.000000e+00
0.000000e+00 0.000000e+00 0.000000e+00
7.284039e-03 -1.767228e-03 0.000000e+00
1.400302e-02 -3.776489e-03 0.000000e+00
1.921233e-02 -5.416797e-03 0.000000e+00
2.319272e-02 -6.516059e-03 0.000000e+00
2.575279e-02 -7.183141e-03 0.000000e+00
2.681937e-02 -7.384191e-03 0.000000e+00
2.601532e-02 -7.135015e-03 0.000000e+00
2.334835e-02 -6.494257e-03 0.000000e+00
1.839448e-02 -5.927005e-03 0.000000e+00
1.030767e-02 -6.570444e-03 0.000000e+00
0.000000e+00 0.000000e+00 0.000000e+00
8.014780e-03 -1.024485e-03 0.000000e+00
1.425099e-02 -1.987409e-03 0.000000e+00
1.868458e-02 -2.579120e-03 0.000000e+00
2.196343e-02 -2.734154e-03 0.000000e+00
2.399435e-02 -2.412878e-03 0.000000e+00
2.460372e-02 -1.649083e-03 0.000000e+00
2.359789e-02 -5.764936e-04 0.000000e+00
2.099119e-02 5.391646e-04 0.000000e+00
1.678885e-02 1.396787e-03 0.000000e+00
1.143956e-02 1.504680e-03 0.000000e+00
0.000000e+00 0.000000e+00 0.000000e+00
8.107451e-03 -5.163062e-04 0.000000e+00
1.349706e-02 -8.092780e-04 0.000000e+00
1.730145e-02 -6.648169e-04 0.000000e+00
2.005138e-02 -1.012745e-04 0.000000e+00
2.164256e-02 8.560072e-04 0.000000e+00
2.198899e-02 2.128739e-03 0.000000e+00
2.101853e-02 3.531088e-03 0.000000e+00
1.877489e-02 4.811056e-03 0.000000e+00
1.554156e-02 5.630040e-03 0.000000e+00
1.224951e-02 5.683347e-03 0.000000e+00
0.000000e+00 0.000000e+00 0.000000e+00
7.611535e-03 -9.308192e-05 0.000000e+00
1.222225e-02 1.166204e-04 0.000000e+00
1.548989e-02 6.987358e-04 0.000000e+00
1.777402e-02 1.654723e-03 0.000000e+00
1.906879e-02 2.968740e-03 0.000000e+00
1.932185e-02 4.482651e-03 0.000000e+00
1.852078e-02 6.004853e-03 0.000000e+00
1.677804e-02 7.308326e-03 0.000000e+00
1.455667e-02 8.065033e-03 0.000000e+00
1.259574e-02 8.222916e-03 0.000000e+00
0.000000e+00 0.000000e+00 0.000000e+00
6.766931e-03 1.851308e-04 0.000000e+00
1.067645e-02 6.726019e-04 0.000000e+00
1.346645e-02 1.523828e-03 0.000000e+00
1.538703e-02 2.721059e-03 0.000000e+00
1.647844e-02 4.179342e-03 0.000000e+00
1.673514e-02 5.755446e-03 0.000000e+00
1.616885e-02 7.284660e-03 0.000000e+00
1.496534e-02 8.552361e-03 0.000000e+00
1.359894e-02 9.301405e-03 0.000000e+00
1.258553e-02 9.542773e-03 0.000000e+00
0.000000e+00 0.000000e+00 0.000000e+00
5.730447e-03 2.978727e-04 0.000000e+00
9.003301e-03 9.481833e-04 0.000000e+00
1.138706e-02 1.954587e-03 0.000000e+00
1.302603e-02 3.225466e-03 0.000000e+00
1.398758e-02 4.683700e-03 0.000000e+00
1.429345e-02 6.223054e-03 0.000000e+00
1.397737e-02 7.700423e-03 0.000000e+00
1.326926e-02 8.913091e-03 0.000000e+00
1.258006e-02 9.672553e-03 0.000000e+00
1.223785e-02 1.002665e-02 0.000000e+00
0.000000e+00 0.000000e+00 0.000000e+00
4.629175e-03 3.456229e-04 0.000000e+00
7.335409e-03 1.042524e-03 0.000000e+00
9.372693e-03 2.056824e-03 0.000000e+00
1.079054e-02 3.288817e-03 0.000000e+00
1.166035e-02 4.672274e-03 0.000000e+00
1.201641e-02 6.125124e-03 0.000000e+00
1.193275e-02 7.512826e-03 0.000000e+00
1.164025e-02 8.664523e-03 0.000000e+00
1.144861e-02 9.454438e-03 0.000000e+00
1.155234e-02 9.944486e-03 0.000000e+00
0.000000e+00 0.000000e+00 0.000000e+00
3.555695e-03 2.969890e-04 0.000000e+00
5.772789e-03 9.503580e-04 0.000000e+00
7.495787e-03 1.904333e-03 0.000000e+00
8.725545e-03 3.051396e-03 0.000000e+00
9.515550e-03 4.328144e-03 0.000000e+00
9.911079e-03 5.661926e-03 0.000000e+00
1.002174e-02 6.940935e-03 0.000000e+00
1.003842e-02 8.037456e-03 0.000000e+00
1.018189e-02 8.874035e-03 0.000000e+00
1.054799e-02 9.504746e-03 0.000000e+00
0.000000e+00 0.000000e+00 0.000000e+00
2.604900e-03 2.158048e-04 0.000000e+00
4.379469e-03 7.696115e-04 0.000000e+00
5.791860e-03 1.603402e-03 0.000000e+00
6.841534e-03 2.630501e-03 0.000000e+00
7.553087e-03 3.788426e-03 0.000000e+00
7.975109e-03 4.992590e-03 0.000000e+00
8.219278e-03 6.165332e-03 0.000000e+00
8.436211e-03 7.218056e-03 0.000000e+00
8.774112e-03 8.109893e-03 0.000000e+00
9.262973e-03 8.893071e-03 0.000000e+00
0.000000e+00 0.000000e+00 0.000000e+00
1.810635e-03 1.323050e-04 0.000000e+00
3.183511e-03 5.721887e-04 0.000000e+00
4.289659e-03 1.258908e-03 0.000000e+00
5.146991e-03 2.145359e-03 0.000000e+00
5.765751e-03 3.166770e-03 0.000000e+00
6.186896e-03 4.251308e-03 0.000000e+00
6.498715e-03 5.331015e-03 0.000000e+00
6.814714e-03 6.350284e-03 0.000000e+00
7.218766e-03 7.306453e-03 0.000000e+00
7.716389e-03 8.250308e-03 0.000000e+00
0.000000e+00 0.000000e+00 0.000000e+00
1.174694e-03 6.331864e-05 0.000000e+00
2.176820e-03 3.847496e-04 0.000000e+00
2.998388e-03 9.360210e-04 0.000000e+00
3.652420e-03 1.675257e-03 0.000000e+00
4.148063e-03 2.565456e-03 0.000000e+00
4.522507e-03 3.543799e-03 0.000000e+00
4.835605e-03 4.551434e-03 0.000000e+00
5.158404e-03 5.558587e-03 0.000000e+00
5.525265e-03 6.582172e-03 0.000000e+00
5.948358e-03 7.658526e-03 0.000000e+00
0.000000e+00 0.000000e+00 0.000000e+00
6.922273e-04 9.860040e-07 0.000000e+00
1.335660e-03 2.190390e-04 0.000000e+00
1.888644e-03 6.592765e-04 0.000000e+00
2.333942e-03 1.290283e-03 0.000000e+00
2.677252e-03 2.076048e-03 0.000000e+00
2.956759e-03 2.970036e-03 0.000000e+00
3.207552e-03 3.926813e-03 0.000000e+00
3.459382e-03 4.935518e-03 0.000000e+00
3.730894e-03 6.009155e-03 0.000000e+00
4.040549e-03 7.166707e-03 0.000000e+00
0.000000e+00 0.000000e+00 0.000000e+00
3.206634e-04 -4.452604e-05 0.000000e+00
6.301895e-04 1.096385e-04 0.000000e+00
9.085416e-04 4.767157e-04 0.000000e+00
1.135351e-03 1.041519e-03 0.000000e+00
1.310484e-03 1.759442e-03 0.000000e+00
1.459495e-03 2.595699e-03 0.000000e+00
1.598231e-03 3.521258e-03 0.000000e+00
1.733800e-03 4.529255e-03 0.000000e+00
1.878867e-03 5.625173e-03 0.000000e+00
2.041761e-03 6.833670e-03 0.000000e+00
0.000000e+00 0.000000e+00 0.000000e+00
0.000000e+00 -4.859620e-05 0.000000e+00
0.000000e+00 8.485396e-05 0.000000e+00
0.000000e+00 4.211457e-04 0.000000e+00
0.000000e+00 9.546951e-04 0.000000e+00
0.000000e+00 1.641750e-03 0.000000e+00
0.000000e+00 2.451680e-03 0.000000e+00
0.000000e+00 3.363990e-03 0.000000e+00
0.000000e+00 4.368098e-03 0.000000e+00
0.000000e+00 5.465064e-03 0.000000e+00
0.000000e+00 6.685443e-03 0.000000e+00
</DataArray>
<DataArray Name="shear" type="Float64" NumberOfComponents="1" format="ascii">
2.177677e-02
3.609657e-02
6.631005e-02
9.444789e-02
1.124667e-01
1.184246e-01
1.135641e-01
9.622966e-02
6.343797e-02
3.188840e-02
2.234590e-02
2.522625e-02
3.873353e-02
6.266025e-02
8.428730e-02
1.010800e-01
1.111386e-01
1.131787e-01
1.055706e-01
8.720855e-02
5.949030e-02
3.851013e-02
3.302705e-02
4.329684e-02
5.671757e-02
6.780612e-02
8.149910e-02
9.859708e-02
1.170066e-01
1.333525e-01
1.492226e-01
1.561429e-01
1.538373e-01
3.889623e-02
4.256914e-02
4.532258e-02
4.720794e-02
5.221584e-02
6.090442e-02
7.344547e-02
8.909459e-02
1.087774e-01
1.298822e-01
1.454446e-01
4.106283e-02
3.880414e-02
3.346247e-02
3.011480e-02
2.860742e-02
2.711414e-02
2.501050e-02
2.169533e-02
1.642390e-02
7.281077e-03
1.069992e-03
4.091959e-02
3.579656e-02
2.807821e-02
2.529185e-02
2.434854e-02
2.338756e-02
2.171599e-02
1.879262e-02
1.416901e-02
6.873397e-03
2.190528e-03
3.836038e-02
3.226477e-02
2.441237e-02
2.244698e-02
2.199476e-02
2.147217e-02
2.013507e-02
1.765779e-02
1.341510e-02
6.902471e-03
2.401344e-03
3.407473e-02
2.813548e-02
2.132809e-02
2.029719e-02
2.026059e-02
2.000883e-02
1.899350e-02
1.688512e-02
1.299723e-02
7.300013e-03
3.530352e-03
2.889840e-02
2.388850e-02
1.881768e-02
1.846139e-02
1.859451e-02
1.855885e-02
1.789228e-02
1.611692e-02
1.267767e-02
7.958561e-03
5.058465e-03
2.341093e-02
1.968303e-02
1.639768e-02
1.652931e-02
1.687042e-02
1.708300e-02
1.672700e-02
1.527542e-02
1.243661e-02
8.838996e-03
6.814016e-03
1.803893e-02
1.562091e-02
1.396320e-02
1.456972e-02
1.519120e-02
1.561507e-02
1.548524e-02
1.440420e-02
1.230305e-02
9.844708e-03
8.587033e-03
1.325377e-02
1.198175e-02
1.159328e-02
1.260448e-02
1.355501e-02
1.418338e-02
1.425961e-02
1.360602e-02
1.229736e-02
1.093754e-02
1.034731e-02
9.241080e-03
8.836593e-03
9.342731e-03
1.065222e-02
1.190755e-02
1.279414e-02
1.314692e-02
1.294885e-02
1.242425e-02
1.206602e-02
1.204108e-02
6.018280e-03
6.159164e-03
7.301795e-03
8.866045e-03
1.035920e-02
1.152211e-02
1.220020e-02
1.247838e-02
1.265419e-02
1.304182e-02
1.339541e-02
3.536032e-03
3.956136e-03
5.597366e-03
7.467018e-03
9.155248e-03
1.051064e-02
1.147462e-02
1.217917e-02
1.287035e-02
1.370596e-02
1.427683e-02
1.642202e-03
2.357108e-03
4.435143e-03
6.566022e-03
8.397640e-03
9.851255e-03
1.100575e-02
1.199585e-02
1.297284e-02
1.406608e-02
1.478336e-02
5.801088e-04
1.723291e-03
4.015470e-03
6.234073e-03
8.118941e-03
9.608143e-03
1.083634e-02
1.192902e-02
1.299276e-02
1.417178e-02
1.494141e-02
</DataArray>
<DataArray Name="stress" type="Float64" NumberOfComponents="9" format="ascii">
-1.264721e+05 7.257176e+03 0.000000e+00 7.257176e+03 -2.269561e+05 0.000000e+00 0.000000e+00 0.000000e+00 0.000000e+00
-1.144240e+05 5.064624e+03 0.000000e+00 5.064624e+03 -2.297670e+05 0.000000e+00 0.000000e+00 0.000000e+00 0.000000e+00
-1.199258e+05 3.248296e+03 0.000000e+00 3.248296e+03 -2.303463e+05 0.000000e+00 0.000000e+00 0.000000e+00 0.000000e+00
-1.315686e+05 5.253804e+03 0.000000e+00 5.253804e+03 -2.420772e+05 0.000000e+00 0.000000e+00 0.000000e+00 0.000000e+00
-1.415854e+05 4.450417e+03 0.000000e+00 4.450417e+03 -2.482586e+05 0.000000e+00 0.000000e+00 0.000000e+00 0.000000e+00
-1.476039e+05 6.152074e+03 0.000000e+00 6.152074e+03 -2.549881e+05 0.000000e+00 0.000000e+00 0.000000e+00 0.000000e+00
-1.511652e+05 8.384136e+03 0.000000e+00 8.384136e+03 -2.687578e+05 0.000000e+00 0.000000e+00 0.000000e+00 0.000000e+00
-1.497446e+05 1.079730e+04 0.000000e+00 1.079730e+04 -2.773823e+05 0.000000e+00 0.000000e+00 0.000000e+00 0.000000e+00
-1.513183e+05 7.804527e+03 0.000000e+00 7.804527e+03 -2.919326e+05 0.000000e+00 0.000000e+00 0.000000e+00 0.000000e+00
-1.604238e+05 -1.374384e+03 0.000000e+00 -1.374384e+03 -3.035651e+05 0.000000e+00 0.000000e+00 0.000000e+00 0.000000e+00
-1.634098e+05 -3.446316e+02 0.000000e+00 -3.446316e+02 -2.880452e+05 0.000000e+00 0.000000e+00 0.000000e+00 0.000000e+00
-1.319521e+05 2.178288e+04 0.000000e+00 2.178288e+04 -2.228492e+05 0.000000e+00 0.000000e+00 0.000000e+00 0.000000e+00
-1.158755e+05 1.810792e+04 0.000000e+00 1.810792e+04 -2.185701e+05 0.000000e+00 0.000000e+00 0.000000e+00 0.000000e+00
-1.177767e+05 1.577645e+04 0.000000e+00 1.577645e+04 -2.277578e+05 0.000000e+00 0.000000e+00 0.000000e+00 0.000000e+00
-1.272396e+05 1.339147e+04 0.000000e+00 1.339147e+04 -2.386261e+05 0.000000e+00 0.000000e+00 0.000000e+00 0.000000e+00
-1.385378e+05 1.187477e+04 0.000000e+00 1.187477e+04 -2.486778e+05 0.000000e+00 0.000000e+00 0.000000e+00 0.000000e+00
-1.481325e+05 1.289708e+04 0.000000e+00 1.289708e+04 -2.580403e+05 0.000000e+00 0.000000e+00 0.000000e+00 0.000000e+00
-1.524930e+05 1.482850e+04 0.000000e+00 1.482850e+04 -2.693307e+05 0.000000e+00 0.000000e+00 0.000000e+00 0.000000e+00
-1.514168e+05 1.414869e+04 0.000000e+00 1.414869e+04 -2.774969e+05 0.000000e+00 0.000000e+00 0.000000e+00 0.000000e+00
-1.540467e+05 6.349052e+03 0.000000e+00 6.349052e+03 -2.899877e+05 0.000000e+00 0.000000e+00 0.000000e+00 0.000000e+00
-1.560312e+05 -2.259098e+03 0.000000e+00 -2.259098e+03 -2.942229e+05 0.000000e+00 0.000000e+00 0.000000e+00 0.000000e+00
-1.791803e+05 -8.213704e+03 0.000000e+00 -8.213704e+03 -3.365639e+05 0.000000e+00 0.000000e+00 0.000000e+00 0.000000e+00
-1.331091e+05 3.528648e+04 0.000000e+00 3.528648e+04 -1.943979e+05 0.000000e+00 0.000000e+00 0.000000e+00 0.000000e+00
-1.150081e+05 2.964710e+04 0.000000e+00 2.964710e+04 -1.819291e+05 0.000000e+00 0.000000e+00 0.000000e+00 0.000000e+00
-1.144107e+05 2.805485e+04 0.000000e+00 2.805485e+04 -1.894673e+05 0.000000e+00 0.000000e+00 0.000000e+00 0.000000e+00
-1.242712e+05 2.902380e+04 0.000000e+00 2.902380e+04 -2.011614e+05 0.000000e+00 0.000000e+00 0.000000e+00 0.000000e+00
-1.387602e+05 3.066145e+04 0.000000e+00 3.066145e+04 -2.170586e+05 0.000000e+00 0.000000e+00 0.000000e+00 0.000000e+00
-1.563558e+05 3.430691e+04 0.000000e+00 3.430691e+04 -2.344432e+05 0.000000e+00 0.000000e+00 0.000000e+00 0.000000e+00
-1.695840e+05 3.643534e+04 0.000000e+00 3.643534e+04 -2.538709e+05 0.000000e+00 0.000000e+00 0.000000e+00 0.000000e+00
-1.764145e+05 3.845050e+04 0.000000e+00 3.845050e+04 -2.716044e+05 0.000000e+00 0.000000e+00 0.000000e+00 0.000000e+00
-1.867889e+05 3.459571e+04 0.000000e+00 3.459571e+04 -2.874549e+05 0.000000e+00 0.000000e+00 0.000000e+00 0.000000e+00
-1.929276e+05 2.013683e+04 0.000000e+00 2.013683e+04 -2.980126e+05 0.000000e+00 0.000000e+00 0.000000e+00 0.000000e+00
-2.129075e+05 -4.059951e+03 0.000000e+00 -4.059951e+03 -3.574970e+05 0.000000e+00 0.000000e+00 0.000000e+00 0.000000e+00
-1.211314e+05 3.311348e+04 0.000000e+00 3.311348e+04 -1.441375e+05 0.000000e+00 0.000000e+00 0.000000e+00 0.000000e+00
-1.072818e+05 2.975365e+04 0.000000e+00 2.975365e+04 -1.338831e+05 0.000000e+00 0.000000e+00 0.000000e+00 0.000000e+00
-1.096377e+05 3.118502e+04 0.000000e+00 3.118502e+04 -1.345383e+05 0.000000e+00 0.000000e+00 0.000000e+00 0.000000e+00
-1.191262e+05 3.468870e+04 0.000000e+00 3.468870e+04 -1.351480e+05 0.000000e+00 0.000000e+00 0.000000e+00 0.000000e+00
-1.277046e+05 3.617290e+04 0.000000e+00 3.617290e+04 -1.330758e+05 0.000000e+00 0.000000e+00 0.000000e+00 0.000000e+00
-1.332709e+05 3.585616e+04 0.000000e+00 3.585616e+04 -1.290150e+05 0.000000e+00 0.000000e+00 0.000000e+00 0.000000e+00
-1.323700e+05 3.201207e+04 0.000000e+00 3.201207e+04 -1.208470e+05 0.000000e+00 0.000000e+00 0.000000e+00 0.000000e+00
-1.225818e+05 2.641765e+04 0.000000e+00 2.641765e+04 -1.080307e+05 0.000000e+00 0.000000e+00 0.000000e+00 0.000000e+00
-1.090503e+05 1.935348e+04 0.000000e+00 1.935348e+04 -9.294022e+04 0.000000e+00 0.000000e+00 0.000000e+00 0.000000e+00
-8.429652e+04 9.120669e+03 0.000000e+00 9.120669e+03 -7.875402e+04 0.000000e+00 0.000000e+00 0.000000e+00 0.000000e+00
-4.600378e+04 3.348327e+03 0.000000e+00 3.348327e+03 -5.701475e+04 0.000000e+00 0.000000e+00 0.000000e+00 0.000000e+00
-1.140942e+05 3.160538e+04 0.000000e+00 3.160538e+04 -1.170345e+05 0.000000e+00 0.000000e+00 0.000000e+00 0.000000e+00
-1.083873e+05 3.023560e+04 0.000000e+00 3.023560e+04 -1.136212e+05 0.000000e+00 0.000000e+00 0.000000e+00 0.000000e+00
-1.158549e+05 3.250769e+04 0.000000e+00 3.250769e+04 -1.164811e+05 0.000000e+00 0.000000e+00 0.000000e+00 0.000000e+00
-1.271289e+05 3.428062e+04 0.000000e+00 3.428062e+04 -1.151615e+05 0.000000e+00 0.000000e+00 0.000000e+00 0.000000e+00
-1.370512e+05 3.394411e+04 0.000000e+00 3.394411e+04 -1.097470e+05 0.000000e+00 0.000000e+00 0.000000e+00 0.000000e+00
-1.423408e+05 3.055213e+04 0.000000e+00 3.055213e+04 -1.015937e+05 0.000000e+00 0.000000e+00 0.000000e+00 0.000000e+00
-1.425873e+05 2.486634e+04 0.000000e+00 2.486634e+04 -9.279866e+04 0.000000e+00 0.000000e+00 0.000000e+00 0.000000e+00
-1.370612e+05 1.795172e+04 0.000000e+00 1.795172e+04 -8.347412e+04 0.000000e+00 0.000000e+00 0.000000e+00 0.000000e+00
-1.251169e+05 9.876459e+03 0.000000e+00 9.876459e+03 -7.473444e+04 0.000000e+00 0.000000e+00 0.000000e+00 0.000000e+00
-9.563745e+04 1.329773e+03 0.000000e+00 1.329773e+03 -6.830237e+04 0.000000e+00 0.000000e+00 0.000000e+00 0.000000e+00
-5.193546e+04 -1.307554e+03 0.000000e+00 -1.307554e+03 -5.371852e+04 0.000000e+00 0.000000e+00 0.000000e+00 0.000000e+00
-1.074764e+05 3.080472e+04 0.000000e+00 3.080472e+04 -1.023728e+05 0.000000e+00 0.000000e+00 0.000000e+00 0.000000e+00
-1.083165e+05 3.092287e+04 0.000000e+00 3.092287e+04 -1.023235e+05 0.000000e+00 0.000000e+00 0.000000e+00 0.000000e+00
-1.168318e+05 3.106008e+04 0.000000e+00 3.106008e+04 -1.023396e+05 0.000000e+00 0.000000e+00 0.000000e+00 0.000000e+00
-1.265848e+05 2.935332e+04 0.000000e+00 2.935332e+04 -9.748823e+04 0.000000e+00 0.000000e+00 0.000000e+00 0.000000e+00
-1.338958e+05 2.645956e+04 0.000000e+00 2.645956e+04 -9.179520e+04 0.000000e+00 0.000000e+00 0.000000e+00 0.000000e+00
-1.369071e+05 2.187518e+04 0.000000e+00 2.187518e+04 -8.543521e+04 0.000000e+00 0.000000e+00 0.000000e+00 0.000000e+00
-1.357787e+05 1.598047e+04 0.000000e+00 1.598047e+04 -7.878870e+04 0.000000e+00 0.000000e+00 0.000000e+00 0.000000e+00
-1.292564e+05 9.026628e+03 0.000000e+00 9.026628e+03 -7.201724e+04 0.000000e+00 0.000000e+00 0.000000e+00 0.000000e+00
-1.159622e+05 1.472650e+03 0.000000e+00 1.472650e+03 -6.615375e+04 0.000000e+00 0.000000e+00 0.000000e+00 0.000000e+00
-9.003015e+04 -3.901894e+03 0.000000e+00 -3.901894e+03 -6.215825e+04 0.000000e+00 0.000000e+00 0.000000e+00 0.000000e+00
-5.707128e+04 -4.616198e+03 0.000000e+00 -4.616198e+03 -5.455653e+04 0.000000e+00 0.000000e+00 0.000000e+00 0.000000e+00
-1.003243e+05 2.980784e+04 0.000000e+00 2.980784e+04 -9.086719e+04 0.000000e+00 0.000000e+00 0.000000e+00 0.000000e+00
-1.064603e+05 2.981450e+04 0.000000e+00 2.981450e+04 -9.270066e+04 0.000000e+00 0.000000e+00 0.000000e+00 0.000000e+00
-1.151213e+05 2.697586e+04 0.000000e+00 2.697586e+04 -8.978537e+04 0.000000e+00 0.000000e+00 0.000000e+00 0.000000e+00
-1.242404e+05 2.417641e+04 0.000000e+00 2.417641e+04 -8.519920e+04 0.000000e+00 0.000000e+00 0.000000e+00 0.000000e+00
-1.296448e+05 2.036436e+04 0.000000e+00 2.036436e+04 -8.058431e+04 0.000000e+00 0.000000e+00 0.000000e+00 0.000000e+00
-1.311580e+05 1.533502e+04 0.000000e+00 1.533502e+04 -7.545931e+04 0.000000e+00 0.000000e+00 0.000000e+00 0.000000e+00
-1.289393e+05 9.410686e+03 0.000000e+00 9.410686e+03 -7.029234e+04 0.000000e+00 0.000000e+00 0.000000e+00 0.000000e+00
-1.214828e+05 2.796278e+03 0.000000e+00 2.796278e+03 -6.558346e+04 0.000000e+00 0.000000e+00 0.000000e+00 0.000000e+00
-1.090111e+05 -3.120292e+03 0.000000e+00 -3.120292e+03 -6.232241e+04 0.000000e+00 0.000000e+00 0.000000e+00 0.000000e+00
-8.855962e+04 -5.247061e+03 0.000000e+00 -5.247061e+03 -6.029295e+04 0.000000e+00 0.000000e+00 0.000000e+00 0.000000e+00
-6.603334e+04 -4.462405e+03 0.000000e+00 -4.462405e+03 -5.611384e+04 0.000000e+00 0.000000e+00 0.000000e+00 0.000000e+00
-9.132350e+04 2.664770e+04 0.000000e+00 2.664770e+04 -8.077269e+04 0.000000e+00 0.000000e+00 0.000000e+00 0.000000e+00
-1.022509e+05 2.688091e+04 0.000000e+00 2.688091e+04 -8.424144e+04 0.000000e+00 0.000000e+00 0.000000e+00 0.000000e+00
-1.125367e+05 2.300428e+04 0.000000e+00 2.300428e+04 -8.056143e+04 0.000000e+00 0.000000e+00 0.000000e+00 0.000000e+00
-1.206069e+05 1.966927e+04 0.000000e+00 1.966927e+04 -7.680934e+04 0.000000e+00 0.000000e+00 0.000000e+00 0.000000e+00
-1.246579e+05 1.536051e+04 0.000000e+00 1.536051e+04 -7.289731e+04 0.000000e+00 0.000000e+00 0.000000e+00 0.000000e+00
-1.253900e+05 1.027937e+04 0.000000e+00 1.027937e+04 -6.883873e+04 0.000000e+00 0.000000e+00 0.000000e+00 0.000000e+00
-1.222748e+05 4.603728e+03 0.000000e+00 4.603728e+03 -6.502228e+04 0.000000e+00 0.000000e+00 0.000000e+00 0.000000e+00
-1.149413e+05 -9.818167e+02 0.000000e+00 -9.818167e+02 -6.209595e+04 0.000000e+00 0.000000e+00 0.000000e+00 0.000000e+00
-1.046083e+05 -5.019499e+03 0.000000e+00 -5.019499e+03 -6.044323e+04 0.000000e+00 0.000000e+00 0.000000e+00 0.000000e+00
-9.009253e+04 -5.342127e+03 0.000000e+00 -5.342127e+03 -5.959611e+04 0.000000e+00 0.000000e+00 0.000000e+00 0.000000e+00
-7.525813e+04 -4.053971e+03 0.000000e+00 -4.053971e+03 -5.683680e+04 0.000000e+00 0.000000e+00 0.000000e+00 0.000000e+00
-8.351939e+04 2.321264e+04 0.000000e+00 2.321264e+04 -7.358634e+04 0.000000e+00 0.000000e+00 0.000000e+00 0.000000e+00
-9.801770e+04 2.352968e+04 0.000000e+00 2.352968e+04 -7.761459e+04 0.000000e+00 0.000000e+00 0.000000e+00 0.000000e+00
-1.093000e+05 1.967321e+04 0.000000e+00 1.967321e+04 -7.399864e+04 0.000000e+00 0.000000e+00 0.000000e+00 0.000000e+00
-1.161664e+05 1.586483e+04 0.000000e+00 1.586483e+04 -7.077899e+04 0.000000e+00 0.000000e+00 0.000000e+00 0.000000e+00
-1.196216e+05 1.138102e+04 0.000000e+00 1.138102e+04 -6.761423e+04 0.000000e+00 0.000000e+00 0.000000e+00 0.000000e+00
-1.197461e+05 6.435653e+03 0.000000e+00 6.435653e+03 -6.453210e+04 0.000000e+00 0.000000e+00 0.000000e+00 0.000000e+00
-1.163552e+05 1.371636e+03 0.000000e+00 1.371636e+03 -6.191012e+04 0.000000e+00 0.000000e+00 0.000000e+00 0.000000e+00
-1.100259e+05 -3.020519e+03 0.000000e+00 -3.020519e+03 -6.017748e+04 0.000000e+00 0.000000e+00 0.000000e+00 0.000000e+00
-1.023152e+05 -5.551731e+03 0.000000e+00 -5.551731e+03 -5.944410e+04 0.000000e+00 0.000000e+00 0.000000e+00 0.000000e+00
-9.272473e+04 -4.910157e+03 0.000000e+00 -4.910157e+03 -5.929420e+04 0.000000e+00 0.000000e+00 0.000000e+00 0.000000e+00
-8.347838e+04 -3.329823e+03 0.000000e+00 -3.329823e+03 -5.756570e+04 0.000000e+00 0.000000e+00 0.000000e+00 0.000000e+00
-7.757788e+04 2.060975e+04 0.000000e+00 2.060975e+04 -6.848711e+04 0.000000e+00 0.000000e+00 0.000000e+00 0.000000e+00
-9.402537e+04 2.064587e+04 0.000000e+00 2.064587e+04 -7.231002e+04 0.000000e+00 0.000000e+00 0.000000e+00 0.000000e+00
-1.055762e+05 1.679558e+04 0.000000e+00 1.679558e+04 -6.926546e+04 0.000000e+00 0.000000e+00 0.000000e+00 0.000000e+00
-1.117452e+05 1.272540e+04 0.000000e+00 1.272540e+04 -6.651650e+04 0.000000e+00 0.000000e+00 0.000000e+00 0.000000e+00
-1.146987e+05 8.294666e+03 0.000000e+00 8.294666e+03 -6.394487e+04 0.000000e+00 0.000000e+00 0.000000e+00 0.000000e+00
-1.144853e+05 3.663733e+03 0.000000e+00 3.663733e+03 -6.170111e+04 0.000000e+00 0.000000e+00 0.000000e+00 0.000000e+00
-1.114656e+05 -6.523100e+02 0.000000e+00 -6.523100e+02 -6.005434e+04 0.000000e+00 0.000000e+00 0.000000e+00 0.000000e+00
-1.066123e+05 -3.938768e+03 0.000000e+00 -3.938768e+03 -5.910830e+04 0.000000e+00 0.000000e+00 0.000000e+00 0.000000e+00
-1.013691e+05 -5.402933e+03 0.000000e+00 -5.402933e+03 -5.894536e+04 0.000000e+00 0.000000e+00 0.000000e+00 0.000000e+00
-9.570765e+04 -4.228375e+03 0.000000e+00 -4.228375e+03 -5.919492e+04 0.000000e+00 0.000000e+00 0.000000e+00 0.000000e+00
-9.046014e+04 -2.577505e+03 0.000000e+00 -2.577505e+03 -5.828432e+04 0.000000e+00 0.000000e+00 0.000000e+00 0.000000e+00
-7.414284e+04 1.863595e+04 0.000000e+00 1.863595e+04 -6.512750e+04 0.000000e+00 0.000000e+00 0.000000e+00 0.000000e+00
-9.050241e+04 1.826507e+04 0.000000e+00 1.826507e+04 -6.847575e+04 0.000000e+00 0.000000e+00 0.000000e+00 0.000000e+00
-1.013913e+05 1.424159e+04 0.000000e+00 1.424159e+04 -6.565638e+04 0.000000e+00 0.000000e+00 0.000000e+00 0.000000e+00
-1.071293e+05 1.015830e+04 0.000000e+00 1.015830e+04 -6.346961e+04 0.000000e+00 0.000000e+00 0.000000e+00 0.000000e+00
-1.098679e+05 5.940844e+03 0.000000e+00 5.940844e+03 -6.146605e+04 0.000000e+00 0.000000e+00 0.000000e+00 0.000000e+00
-1.097885e+05 1.780484e+03 0.000000e+00 1.780484e+03 -5.989418e+04 0.000000e+00 0.000000e+00 0.000000e+00 0.000000e+00
-1.076196e+05 -1.797364e+03 0.000000e+00 -1.797364e+03 -5.887908e+04 0.000000e+00 0.000000e+00 0.000000e+00 0.000000e+00
-1.043477e+05 -4.173542e+03 0.000000e+00 -4.173542e+03 -5.850472e+04 0.000000e+00 0.000000e+00 0.000000e+00 0.000000e+00
-1.013115e+05 -4.855137e+03 0.000000e+00 -4.855137e+03 -5.868666e+04 0.000000e+00 0.000000e+00 0.000000e+00 0.000000e+00
-9.869838e+04 -3.472053e+03 0.000000e+00 -3.472053e+03 -5.918094e+04 0.000000e+00 0.000000e+00 0.000000e+00 0.000000e+00
-9.635988e+04 -1.891323e+03 0.000000e+00 -1.891323e+03 -5.892874e+04 0.000000e+00 0.000000e+00 0.000000e+00 0.000000e+00
-7.174554e+04 1.671111e+04 0.000000e+00 1.671111e+04 -6.284666e+04 0.000000e+00 0.000000e+00 0.000000e+00 0.000000e+00
-8.662941e+04 1.602029e+04 0.000000e+00 1.602029e+04 -6.563029e+04 0.000000e+00 0.000000e+00 0.000000e+00 0.000000e+00
-9.712962e+04 1.202897e+04 0.000000e+00 1.202897e+04 -6.315479e+04 0.000000e+00 0.000000e+00 0.000000e+00 0.000000e+00
-1.027034e+05 8.148995e+03 0.000000e+00 8.148995e+03 -6.143862e+04 0.000000e+00 0.000000e+00 0.000000e+00 0.000000e+00
-1.053498e+05 4.215564e+03 0.000000e+00 4.215564e+03 -5.989093e+04 0.000000e+00 0.000000e+00 0.000000e+00 0.000000e+00
-1.057414e+05 5.630704e+02 0.000000e+00 5.630704e+02 -5.879032e+04 0.000000e+00 0.000000e+00 0.000000e+00 0.000000e+00
-1.046671e+05 -2.318089e+03 0.000000e+00 -2.318089e+03 -5.823700e+04 0.000000e+00 0.000000e+00 0.000000e+00 0.000000e+00
-1.029778e+05 -3.949749e+03 0.000000e+00 -3.949749e+03 -5.826988e+04 0.000000e+00 0.000000e+00 0.000000e+00 0.000000e+00
-1.018285e+05 -4.111978e+03 0.000000e+00 -4.111978e+03 -5.867754e+04 0.000000e+00 0.000000e+00 0.000000e+00 0.000000e+00
-1.013323e+05 -2.717434e+03 0.000000e+00 -2.717434e+03 -5.929695e+04 0.000000e+00 0.000000e+00 0.000000e+00 0.000000e+00
-1.009500e+05 -1.264389e+03 0.000000e+00 -1.264389e+03 -5.950048e+04 0.000000e+00 0.000000e+00 0.000000e+00 0.000000e+00
-6.948530e+04 1.452783e+04 0.000000e+00 1.452783e+04 -6.198965e+04 0.000000e+00 0.000000e+00 0.000000e+00 0.000000e+00
-8.282774e+04 1.369409e+04 0.000000e+00 1.369409e+04 -6.389691e+04 0.000000e+00 0.000000e+00 0.000000e+00 0.000000e+00
-9.316320e+04 1.007048e+04 0.000000e+00 1.007048e+04 -6.150905e+04 0.000000e+00 0.000000e+00 0.000000e+00 0.000000e+00
-9.862127e+04 6.507227e+03 0.000000e+00 6.507227e+03 -5.995716e+04 0.000000e+00 0.000000e+00 0.000000e+00 0.000000e+00
-1.013350e+05 2.978923e+03 0.000000e+00 2.978923e+03 -5.878868e+04 0.000000e+00 0.000000e+00 0.000000e+00 0.000000e+00
-1.023713e+05 -1.050948e+02 0.000000e+00 -1.050948e+02 -5.811570e+04 0.000000e+00 0.000000e+00 0.000000e+00 0.000000e+00
-1.024062e+05 -2.361101e+03 0.000000e+00 -2.361101e+03 -5.796941e+04 0.000000e+00 0.000000e+00 0.000000e+00 0.000000e+00
-1.022493e+05 -3.429332e+03 0.000000e+00 -3.429332e+03 -5.826507e+04 0.000000e+00 0.000000e+00 0.000000e+00 0.000000e+00
-1.025951e+05 -3.282230e+03 0.000000e+00 -3.282230e+03 -5.881661e+04 0.000000e+00 0.000000e+00 0.000000e+00 0.000000e+00
-1.034718e+05 -2.031132e+03 0.000000e+00 -2.031132e+03 -5.947834e+04 0.000000e+00 0.000000e+00 0.000000e+00 0.000000e+00
-1.043265e+05 -8.379542e+02 0.000000e+00 -8.379542e+02 -6.000177e+04 0.000000e+00 0.000000e+00 0.000000e+00 0.000000e+00
-6.791876e+04 1.188276e+04 0.000000e+00 1.188276e+04 -6.213898e+04 0.000000e+00 0.000000e+00 0.000000e+00 0.000000e+00
-7.950068e+04 1.100340e+04 0.000000e+00 1.100340e+04 -6.301762e+04 0.000000e+00 0.000000e+00 0.000000e+00 0.000000e+00
-8.954084e+04 8.042030e+03 0.000000e+00 8.042030e+03 -6.062922e+04 0.000000e+00 0.000000e+00 0.000000e+00 0.000000e+00
-9.498198e+04 5.014330e+03 0.000000e+00 5.014330e+03 -5.896058e+04 0.000000e+00 0.000000e+00 0.000000e+00 0.000000e+00
-9.801775e+04 2.108233e+03 0.000000e+00 2.108233e+03 -5.790155e+04 0.000000e+00 0.000000e+00 0.000000e+00 0.000000e+00
-9.970505e+04 -3.349723e+02 0.000000e+00 -3.349723e+02 -5.752641e+04 0.000000e+00 0.000000e+00 0.000000e+00 0.000000e+00
-1.008297e+05 -1.997189e+03 0.000000e+00 -1.997189e+03 -5.770007e+04 0.000000e+00 0.000000e+00 0.000000e+00 0.000000e+00
-1.019141e+05 -2.681925e+03 0.000000e+00 -2.681925e+03 -5.825647e+04 0.000000e+00 0.000000e+00 0.000000e+00 0.000000e+00
-1.033105e+05 -2.451909e+03 0.000000e+00 -2.451909e+03 -5.896868e+04 0.000000e+00 0.000000e+00 0.000000e+00 0.000000e+00
-1.051342e+05 -1.471987e+03 0.000000e+00 -1.471987e+03 -5.961324e+04 0.000000e+00 0.000000e+00 0.000000e+00 0.000000e+00
-1.069443e+05 -6.019522e+02 0.000000e+00 -6.019522e+02 -6.025418e+04 0.000000e+00 0.000000e+00 0.000000e+00 0.000000e+00
-6.724268e+04 8.719269e+03 0.000000e+00 8.719269e+03 -6.319926e+04 0.000000e+00 0.000000e+00 0.000000e+00 0.000000e+00
-7.714654e+04 7.930294e+03 0.000000e+00 7.930294e+03 -6.302354e+04 0.000000e+00 0.000000e+00 0.000000e+00 0.000000e+00
-8.661687e+04 5.755252e+03 0.000000e+00 5.755252e+03 -6.042963e+04 0.000000e+00 0.000000e+00 0.000000e+00 0.000000e+00
-9.204501e+04 3.440807e+03 0.000000e+00 3.440807e+03 -5.855130e+04 0.000000e+00 0.000000e+00 0.000000e+00 0.000000e+00
-9.545849e+04 1.343136e+03 0.000000e+00 1.343136e+03 -5.749469e+04 0.000000e+00 0.000000e+00 0.000000e+00 0.000000e+00
-9.779209e+04 -3.018989e+02 0.000000e+00 -3.018989e+02 -5.722757e+04 0.000000e+00 0.000000e+00 0.000000e+00 0.000000e+00
-9.977323e+04 -1.372631e+03 0.000000e+00 -1.372631e+03 -5.757748e+04 0.000000e+00 0.000000e+00 0.000000e+00 0.000000e+00
-1.017347e+05 -1.797045e+03 0.000000e+00 -1.797045e+03 -5.826656e+04 0.000000e+00 0.000000e+00 0.000000e+00 0.000000e+00
-1.038674e+05 -1.636355e+03 0.000000e+00 -1.636355e+03 -5.904202e+04 0.000000e+00 0.000000e+00 0.000000e+00 0.000000e+00
-1.064158e+05 -9.609755e+02 0.000000e+00 -9.609755e+02 -5.962591e+04 0.000000e+00 0.000000e+00 0.000000e+00 0.000000e+00
-1.088949e+05 -3.583207e+02 0.000000e+00 -3.583207e+02 -6.038594e+04 0.000000e+00 0.000000e+00 0.000000e+00 0.000000e+00
-6.677571e+04 4.617686e+03 0.000000e+00 4.617686e+03 -6.437529e+04 0.000000e+00 0.000000e+00 0.000000e+00 0.000000e+00
-7.557157e+04 4.161772e+03 0.000000e+00 4.161772e+03 -6.353687e+04 0.000000e+00 0.000000e+00 0.000000e+00 0.000000e+00
-8.461734e+04 2.986458e+03 0.000000e+00 2.986458e+03 -6.052520e+04 0.000000e+00 0.000000e+00 0.000000e+00 0.000000e+00
-9.010982e+04 1.729828e+03 0.000000e+00 1.729828e+03 -5.851680e+04 0.000000e+00 0.000000e+00 0.000000e+00 0.000000e+00
-9.386328e+04 6.482139e+02 0.000000e+00 6.482139e+02 -5.746888e+04 0.000000e+00 0.000000e+00 0.000000e+00 0.000000e+00
-9.669467e+04 -1.556195e+02 0.000000e+00 -1.556195e+02 -5.722404e+04 0.000000e+00 0.000000e+00 0.000000e+00 0.000000e+00
-9.914866e+04 -6.731154e+02 0.000000e+00 -6.731154e+02 -5.760516e+04 0.000000e+00 0.000000e+00 0.000000e+00 0.000000e+00
-1.016242e+05 -8.907614e+02 0.000000e+00 -8.907614e+02 -5.832407e+04 0.000000e+00 0.000000e+00 0.000000e+00 0.000000e+00
-1.042344e+05 -8.312194e+02 0.000000e+00 -8.312194e+02 -5.910399e+04 0.000000e+00 0.000000e+00 0.000000e+00 0.000000e+00
-1.071881e+05 -4.678300e+02 0.000000e+00 -4.678300e+02 -5.965682e+04 0.000000e+00 0.000000e+00 0.000000e+00 0.000000e+00
-1.099609e+05 -1.441359e+02 0.000000e+00 -1.441359e+02 -6.051429e+04 0.000000e+00 0.000000e+00 0.000000e+00 0.000000e+00
-6.653127e+04 1.360142e+03 0.000000e+00 1.360142e+03 -6.460708e+04 0.000000e+00 0.000000e+00 0.000000e+00 0.000000e+00
-7.500755e+04 1.230915e+03 0.000000e+00 1.230915e+03 -6.364727e+04 0.000000e+00 0.000000e+00 0.000000e+00 0.000000e+00
-8.392426e+04 7.807400e+02 0.000000e+00 7.807400e+02 -6.059712e+04 0.000000e+00 0.000000e+00 0.000000e+00 0.000000e+00
-8.946495e+04 3.040835e+02 0.000000e+00 3.040835e+02 -5.860930e+04 0.000000e+00 0.000000e+00 0.000000e+00 0.000000e+00
-9.335357e+04 -8.940310e+01 0.000000e+00 -8.940310e+01 -5.756426e+04 0.000000e+00 0.000000e+00 0.000000e+00 0.000000e+00
-9.638279e+04 -3.794378e+02 0.000000e+00 -3.794378e+02 -5.731118e+04 0.000000e+00 0.000000e+00 0.000000e+00 0.000000e+00
-9.897958e+04 -5.844637e+02 0.000000e+00 -5.844637e+02 -5.765890e+04 0.000000e+00 0.000000e+00 0.000000e+00 0.000000e+00
-1.016040e+05 -6.797520e+02 0.000000e+00 -6.797520e+02 -5.835786e+04 0.000000e+00 0.000000e+00 0.000000e+00 0.000000e+00
-1.043707e+05 -6.541567e+02 0.000000e+00 -6.541567e+02 -5.915788e+04 0.000000e+00 0.000000e+00 0.000000e+00 0.000000e+00
-1.074808e+05 -4.566927e+02 0.000000e+00 -4.566927e+02 -5.971114e+04 0.000000e+00 0.000000e+00 0.000000e+00 0.000000e+00
-1.103384e+05 -2.887853e+02 0.000000e+00 -2.887853e+02 -6.057687e+04 0.000000e+00 0.000000e+00 0.000000e+00 0.000000e+00
</DataArray>
<DataArray Name="vol_eps" type="Float64" NumberOfComponents="1" format="ascii">
-1.450420e-02
-1.222364e-02
-9.237257e-03
-7.651516e-03
-7.148013e-03
-7.768692e-03
-8.814852e-03
-1.119133e-02
-1.583810e-02
-2.063881e-02
-2.070194e-02
-1.433739e-02
-1.131808e-02
-8.972229e-03
-7.802845e-03
-7.491187e-03
-7.982812e-03
-8.514625e-03
-9.922894e-03
-1.296250e-02
-1.620114e-02
-2.296111e-02
-1.197572e-02
-8.489970e-03
-7.263820e-03
-7.323926e-03
-7.915181e-03
-8.863841e-03
-9.582470e-03
-9.999512e-03
-1.018563e-02
-1.078432e-02
-1.547882e-02
-7.455314e-03
-5.250977e-03
-5.046695e-03
-5.464391e-03
-5.497998e-03
-4.529424e-03
-2.600202e-03
2.456114e-04
4.390284e-03
9.305355e-03
1.528173e-02
-4.757981e-03
-4.303921e-03
-5.508106e-03
-6.487071e-03
-6.921838e-03
-6.827052e-03
-6.378411e-03
-5.613408e-03
-4.651150e-03
-2.643580e-03
1.382978e-03
-2.981763e-03
-3.547727e-03
-5.018356e-03
-5.669915e-03
-5.817302e-03
-5.587364e-03
-5.106831e-03
-4.443973e-03
-3.618181e-03
-1.965054e-03
7.199274e-04
-1.598965e-03
-2.942513e-03
-4.363470e-03
-4.850704e-03
-4.842112e-03
-4.532258e-03
-4.105250e-03
-3.574953e-03
-2.973463e-03
-1.785905e-03
-8.076088e-05
-6.160970e-04
-2.445423e-03
-3.793800e-03
-4.110186e-03
-4.027315e-03
-3.765705e-03
-3.402545e-03
-2.988247e-03
-2.588776e-03
-1.854103e-03
-7.431927e-04
-1.532900e-04
-2.129885e-03
-3.271375e-03
-3.486823e-03
-3.446668e-03
-3.232107e-03
-2.919290e-03
-2.610881e-03
-2.392066e-03
-2.011802e-03
-1.337617e-03
3.485275e-05
-1.903275e-03
-2.854177e-03
-3.036664e-03
-3.025672e-03
-2.847455e-03
-2.603473e-03
-2.395517e-03
-2.315731e-03
-2.186729e-03
-1.836908e-03
-4.154793e-05
-1.762476e-03
-2.507924e-03
-2.686205e-03
-2.706274e-03
-2.583126e-03
-2.412138e-03
-2.290140e-03
-2.307266e-03
-2.341375e-03
-2.224247e-03
-2.149268e-04
-1.631847e-03
-2.233379e-03
-2.428490e-03
-2.468079e-03
-2.401837e-03
-2.304860e-03
-2.260686e-03
-2.341191e-03
-2.461745e-03
-2.488011e-03
-3.852472e-04
-1.502910e-03
-2.018485e-03
-2.219707e-03
-2.279315e-03
-2.266489e-03
-2.242041e-03
-2.276797e-03
-2.396122e-03
-2.545144e-03
-2.651619e-03
-5.059473e-04
-1.372141e-03
-1.849987e-03
-2.044962e-03
-2.121701e-03
-2.150896e-03
-2.198167e-03
-2.297695e-03
-2.441545e-03
-2.587946e-03
-2.730856e-03
-6.134749e-04
-1.268173e-03
-1.709050e-03
-1.901417e-03
-1.998116e-03
-2.070295e-03
-2.172273e-03
-2.312731e-03
-2.468756e-03
-2.608234e-03
-2.774959e-03
-7.008555e-04
-1.211981e-03
-1.600668e-03
-1.805844e-03
-1.929473e-03
-2.035944e-03
-2.164850e-03
-2.323942e-03
-2.487043e-03
-2.618341e-03
-2.794216e-03
-7.113251e-04
-1.185287e-03
-1.565125e-03
-1.783850e-03
-1.921521e-03
-2.038519e-03
-2.170328e-03
-2.331703e-03
-2.500572e-03
-2.631964e-03
-2.807561e-03
</DataArray>
</PointData>
</Piece>
</UnstructuredGrid>
</VTKFile>
