<?xml version="1.0"?>
<VTKFile type="UnstructuredGrid" version="0.1">
<UnstructuredGrid>
<FieldData>
<DataArray Name="TIME" type="Float64" format="ascii" NumberOfTuples="1">
0.000000e+00
</DataArray>
</FieldData>
<FieldData>
<DataArray Name="CYCLE" type="Int32" format="ascii" NumberOfTuples="1">
0
</DataArray>
</FieldData>
<Piece NumberOfPoints="187" NumberOfCells="160">
<Points>
<DataArray NumberOfComponents="3" type="Float64" format="ascii">
0.000000e+00 0.000000e+00 0.000000e+00
0.000000e+00 1.981318e-01 0.000000e+00
0.000000e+00 3.955973e-01 0.000000e+00
0.000000e+00 5.925517e-01 0.000000e+00
0.000000e+00 7.891468e-01 0.000000e+00
0.000000e+00 9.854945e-01 0.000000e+00
0.000000e+00 1.181686e+00 0.000000e+00
0.000000e+00 1.377867e+00 0.000000e+00
0.000000e+00 1.574265e+00 0.000000e+00
0.000000e+00 1.771207e+00 0.000000e+00
0.000000e+00 1.968500e+00 0.000000e+00
2.250000e-01 0.000000e+00 0.000000e+00
2.258378e-01 1.982869e-01 0.000000e+00
2.265469e-01 3.959688e-01 0.000000e+00
2.270405e-01 5.931718e-01 0.000000e+00
2.273288e-01 7.899889e-01 0.000000e+00
2.274575e-01 9.864883e-01 0.000000e+00
2.274064e-01 1.182757e+00 0.000000e+00
2.271231e-01 1.378890e+00 0.000000e+00
2.265271e-01 1.575014e+00 0.000000e+00
2.255006e-01 1.771339e+00 0.000000e+00
2.250000e-01 1.968500e+00 0.000000e+00
4.500000e-01 0.000000e+00 0.000000e+00
4.514884e-01 1.986263e-01 0.000000e+00
4.527361e-01 3.969139e-01 0.000000e+00
4.536648e-01 5.948875e-01 0.000000e+00
4.543360e-01 7.924993e-01 0.000000e+00
4.547762e-01 9.897267e-01 0.000000e+00
4.548969e-01 1.186545e+00 0.000000e+00
4.547553e-01 1.382891e+00 0.000000e+00
4.541031e-01 1.578707e+00 0.000000e+00
4.528691e-01 1.773880e+00 0.000000e+00
4.500000e-01 1.968500e+00 0.000000e+00
6.750000e-01 0.000000e+00 0.000000e+00
6.768289e-01 1.989737e-01 0.000000e+00
6.782693e-01 3.978862e-01 0.000000e+00
6.793866e-01 5.968010e-01 0.000000e+00
6.802691e-01 7.957511e-01 0.000000e+00
6.809768e-01 9.947781e-01 0.000000e+00
6.814445e-01 1.193933e+00 0.000000e+00
6.816404e-01 1.393233e+00 0.000000e+00
6.814014e-01 1.592733e+00 0.000000e+00
6.804873e-01 1.792646e+00 0.000000e+00
6.771522e-01 1.993255e+00 0.000000e+00
9.000000e-01 0.000000e+00 0.000000e+00
9.019203e-01 1.992286e-01 0.000000e+00
9.033141e-01 3.984949e-01 0.000000e+00
9.043587e-01 5.978264e-01 0.000000e+00
9.051557e-01 7.972351e-01 0.000000e+00
9.057360e-01 9.967468e-01 0.000000e+00
9.060635e-01 1.196392e+00 0.000000e+00
9.060856e-01 1.396210e+00 0.000000e+00
9.056506e-01 1.596239e+00 0.000000e+00
9.043797e-01 1.796484e+00 0.000000e+00
9.021973e-01 1.996461e+00 0.000000e+00
1.125000e+00 0.000000e+00 0.000000e+00
1.126860e+00 1.994515e-01 0.000000e+00
1.128137e+00 3.989801e-01 0.000000e+00
1.129077e+00 5.985891e-01 0.000000e+00
1.129770e+00 7.982842e-01 0.000000e+00
1.130232e+00 9.980804e-01 0.000000e+00
1.130435e+00 1.197993e+00 0.000000e+00
1.130334e+00 1.398040e+00 0.000000e+00
1.129806e+00 1.598213e+00 0.000000e+00
1.128781e+00 1.798394e+00 0.000000e+00
1.127446e+00 1.998452e+00 0.000000e+00
1.350000e+00 0.000000e+00 0.000000e+00
1.351697e+00 1.996238e-01 0.000000e+00
1.352839e+00 3.993410e-01 0.000000e+00
1.353670e+00 5.991381e-01 0.000000e+00
1.354263e+00 7.990160e-01 0.000000e+00
1.354630e+00 9.989803e-01 0.000000e+00
1.354755e+00 1.199036e+00 0.000000e+00
1.354599e+00 1.399178e+00 0.000000e+00
1.354131e+00 1.599370e+00 0.000000e+00
1.353388e+00 1.799534e+00 0.000000e+00
1.352557e+00 1.999578e+00 0.000000e+00
1.575000e+00 0.000000e+00 0.000000e+00
1.576479e+00 1.997491e-01 0.000000e+00
1.577480e+00 3.995974e-01 0.000000e+00
1.578208e+00 5.995202e-01 0.000000e+00
1.578716e+00 7.995121e-01 0.000000e+00
1.579016e+00 9.995721e-01 0.000000e+00
1.579095e+00 1.199698e+00 0.000000e+00
1.578944e+00 1.399877e+00 0.000000e+00
1.578582e+00 1.600067e+00 0.000000e+00
1.578075e+00 1.800209e+00 0.000000e+00
1.577561e+00 2.000267e+00 0.000000e+00
1.800000e+00 0.000000e+00 0.000000e+00
1.801240e+00 1.998380e-01 0.000000e+00
1.802103e+00 3.997688e-01 0.000000e+00
1.802736e+00 5.997671e-01 0.000000e+00
1.803174e+00 7.998252e-01 0.000000e+00
1.803421e+00 9.999396e-01 0.000000e+00
1.803481e+00 1.200102e+00 0.000000e+00
1.803367e+00 1.400290e+00 0.000000e+00
1.803113e+00 1.600468e+00 0.000000e+00
1.802782e+00 1.800602e+00 0.000000e+00
1.802476e+00 2.000673e+00 0.000000e+00
2.025000e+00 0.000000e+00 0.000000e+00
2.026005e+00 1.998926e-01 0.000000e+00
2.026739e+00 3.998721e-01 0.000000e+00
2.027282e+00 5.999129e-01 0.000000e+00
2.027654e+00 8.000097e-01 0.000000e+00
2.027863e+00 1.000153e+00 0.000000e+00
2.027922e+00 1.200327e+00 0.000000e+00
2.027853e+00 1.400512e+00 0.000000e+00
2.027689e+00 1.600680e+00 0.000000e+00
2.027484e+00 1.800810e+00 0.000000e+00
2.027318e+00 2.000896e+00 0.000000e+00
2.250000e+00 0.000000e+00 0.000000e+00
2.250794e+00 1.999251e-01 0.000000e+00
2.251404e+00 3.999285e-01 0.000000e+00
2.251857e+00 5.999923e-01 0.000000e+00
2.252170e+00 8.001072e-01 0.000000e+00
2.252351e+00 1.000260e+00 0.000000e+00
2.252415e+00 1.200433e+00 0.000000e+00
2.252384e+00 1.400610e+00 0.000000e+00
2.252288e+00 1.600771e+00 0.000000e+00
2.252173e+00 1.800902e+00 0.000000e+00
2.252097e+00 2.001001e+00 0.000000e+00
2.475000e+00 0.000000e+00 0.000000e+00
2.475613e+00 1.999423e-01 0.000000e+00
2.476103e+00 3.999574e-01 0.000000e+00
2.476470e+00 6.000299e-01 0.000000e+00
2.476729e+00 8.001485e-01 0.000000e+00
2.476885e+00 1.000299e+00 0.000000e+00
2.476952e+00 1.200466e+00 0.000000e+00
2.476948e+00 1.400634e+00 0.000000e+00
2.476900e+00 1.600789e+00 0.000000e+00
2.476845e+00 1.800923e+00 0.000000e+00
2.476825e+00 2.001035e+00 0.000000e+00
2.700000e+00 0.000000e+00 0.000000e+00
2.700458e+00 1.999523e-01 0.000000e+00
2.700835e+00 3.999701e-01 0.000000e+00
2.701124e+00 6.000416e-01 0.000000e+00
2.701330e+00 8.001558e-01 0.000000e+00
2.701460e+00 1.000299e+00 0.000000e+00
2.701523e+00 1.200458e+00 0.000000e+00
2.701535e+00 1.400619e+00 0.000000e+00
2.701517e+00 1.600771e+00 0.000000e+00
2.701499e+00 1.800907e+00 0.000000e+00
2.701509e+00 2.001030e+00 0.000000e+00
2.925000e+00 0.000000e+00 0.000000e+00
2.925325e+00 1.999555e-01 0.000000e+00
2.925600e+00 3.999728e-01 0.000000e+00
2.925813e+00 6.000411e-01 0.000000e+00
2.925967e+00 8.001495e-01 0.000000e+00
2.926067e+00 1.000286e+00 0.000000e+00
2.926120e+00 1.200437e+00 0.000000e+00
2.926138e+00 1.400591e+00 0.000000e+00
2.926137e+00 1.600739e+00 0.000000e+00
2.926138e+00 1.800878e+00 0.000000e+00
2.926160e+00 2.001009e+00 0.000000e+00
3.150000e+00 0.000000e+00 0.000000e+00
3.150209e+00 1.999585e-01 0.000000e+00
3.150388e+00 3.999745e-01 0.000000e+00
3.150528e+00 6.000399e-01 0.000000e+00
3.150630e+00 8.001435e-01 0.000000e+00
3.150698e+00 1.000274e+00 0.000000e+00
3.150736e+00 1.200418e+00 0.000000e+00
3.150753e+00 1.400567e+00 0.000000e+00
3.150758e+00 1.600713e+00 0.000000e+00
3.150765e+00 1.800853e+00 0.000000e+00
3.150787e+00 2.000990e+00 0.000000e+00
3.375000e+00 0.000000e+00 0.000000e+00
3.375104e+00 1.999620e-01 0.000000e+00
3.375191e+00 3.999806e-01 0.000000e+00
3.375260e+00 6.000454e-01 0.000000e+00
3.375311e+00 8.001464e-01 0.000000e+00
3.375345e+00 1.000272e+00 0.000000e+00
3.375365e+00 1.200413e+00 0.000000e+00
3.375375e+00 1.400558e+00 0.000000e+00
3.375379e+00 1.600702e+00 0.000000e+00
3.375385e+00 1.800843e+00 0.000000e+00
3.375397e+00 2.000984e+00 0.000000e+00
3.600000e+00 0.000000e+00 0.000000e+00
3.600000e+00 1.999766e-01 0.000000e+00
3.600000e+00 3.999989e-01 0.000000e+00
3.600000e+00 6.000634e-01 0.000000e+00
3.600000e+00 8.001633e-01 0.000000e+00
3.600000e+00 1.000288e+00 0.000000e+00
3.600000e+00 1.200427e+00 0.000000e+00
3.600000e+00 1.400571e+00 0.000000e+00
3.600000e+00 1.600714e+00 0.000000e+00
3.600000e+00 1.800856e+00 0.000000e+00
3.600000e+00 2.000998e+00 0.000000e+00
</DataArray>
</Points>
<Cells>
<DataArray Name="connectivity" type="Int32" format="ascii">
0 11 12 1
1 12 13 2
2 13 14 3
3 14 15 4
4 15 16 5
5 16 17 6
6 17 18 7
7 18 19 8
8 19 20 9
9 20 21 10
11 22 23 12
12 23 24 13
13 24 25 14
14 25 26 15
15 26 27 16
16 27 28 17
17 28 29 18
18 29 30 19
19 30 31 20
20 31 32 21
22 33 34 23
23 34 35 24
24 35 36 25
25 36 37 26
26 37 38 27
27 38 39 28
28 39 40 29
29 40 41 30
30 41 42 31
31 42 43 32
33 44 45 34
34 45 46 35
35 46 47 36
36 47 48 37
37 48 49 38
38 49 50 39
39 50 51 40
40 51 52 41
41 52 53 42
42 53 54 43
44 55 56 45
45 56 57 46
46 57 58 47
47 58 59 48
48 59 60 49
49 60 61 50
50 61 62 51
51 62 63 52
52 63 64 53
53 64 65 54
55 66 67 56
56 67 68 57
57 68 69 58
58 69 70 59
59 70 71 60
60 71 72 61
61 72 73 62
62 73 74 63
63 74 75 64
64 75 76 65
66 77 78 67
67 78 79 68
68 79 80 69
69 80 81 70
70 81 82 71
71 82 83 72
72 83 84 73
73 84 85 74
74 85 86 75
75 86 87 76
77 88 89 78
78 89 90 79
79 90 91 80
80 91 92 81
81 92 93 82
82 93 94 83
83 94 95 84
84 95 96 85
85 96 97 86
86 97 98 87
88 99 100 89
89 100 101 90
90 101 102 91
91 102 103 92
92 103 104 93
93 104 105 94
94 105 106 95
95 106 107 96
96 107 108 97
97 108 109 98
99 110 111 100
100 111 112 101
101 112 113 102
102 113 114 103
103 114 115 104
104 115 116 105
105 116 117 106
106 117 118 107
107 118 119 108
108 119 120 109
110 121 122 111
111 122 123 112
112 123 124 113
113 124 125 114
114 125 126 115
115 126 127 116
116 127 128 117
117 128 129 118
118 129 130 119
119 130 131 120
121 132 133 122
122 133 134 123
123 134 135 124
124 135 136 125
125 136 137 126
126 137 138 127
127 138 139 128
128 139 140 129
129 140 141 130
130 141 142 131
132 143 144 133
133 144 145 134
134 145 146 135
135 146 147 136
136 147 148 137
137 148 149 138
138 149 150 139
139 150 151 140
140 151 152 141
141 152 153 142
143 154 155 144
144 155 156 145
145 156 157 146
146 157 158 147
147 158 159 148
148 159 160 149
149 160 161 150
150 161 162 151
151 162 163 152
152 163 164 153
154 165 166 155
155 166 167 156
156 167 168 157
157 168 169 158
158 169 170 159
159 170 171 160
160 171 172 161
161 172 173 162
162 173 174 163
163 174 175 164
165 176 177 166
166 177 178 167
167 178 179 168
168 179 180 169
169 180 181 170
170 181 182 171
171 182 183 172
172 183 184 173
173 184 185 174
174 185 186 175
</DataArray>
<DataArray Name="offsets" type="Int32" format="ascii">
4
8
12
16
20
24
28
32
36
40
44
48
52
56
60
64
68
72
76
80
84
88
92
96
100
104
108
112
116
120
124
128
132
136
140
144
148
152
156
160
164
168
172
176
180
184
188
192
196
200
204
208
212
216
220
224
228
232
236
240
244
248
252
256
260
264
268
272
276
280
284
288
292
296
300
304
308
312
316
320
324
328
332
336
340
344
348
352
356
360
364
368
372
376
380
384
388
392
396
400
404
408
412
416
420
424
428
432
436
440
444
448
452
456
460
464
468
472
476
480
484
488
492
496
500
504
508
512
516
520
524
528
532
536
540
544
548
552
556
560
564
568
572
576
580
584
588
592
596
600
604
608
612
616
620
624
628
632
636
640
</DataArray>
<DataArray Name="types" type="UInt8" format="ascii">
9
9
9
9
9
9
9
9
9
9
9
9
9
9
9
9
9
9
9
9
9
9
9
9
9
9
9
9
9
9
9
9
9
9
9
9
9
9
9
9
9
9
9
9
9
9
9
9
9
9
9
9
9
9
9
9
9
9
9
9
9
9
9
9
9
9
9
9
9
9
9
9
9
9
9
9
9
9
9
9
9
9
9
9
9
9
9
9
9
9
9
9
9
9
9
9
9
9
9
9
9
9
9
9
9
9
9
9
9
9
9
9
9
9
9
9
9
9
9
9
9
9
9
9
9
9
9
9
9
9
9
9
9
9
9
9
9
9
9
9
9
9
9
9
9
9
9
9
9
9
9
9
9
9
9
9
9
9
9
9
</DataArray>
</Cells>
<PointData>
<DataArray Name="disp" type="Float64" NumberOfComponents="3" format="ascii">
0.000000e+00 0.000000e+00 0.000000e+00
0.000000e+00 -1.868178e-03 0.000000e+00
0.000000e+00 -4.402719e-03 0.000000e+00
0.000000e+00 -7.448320e-03 0.000000e+00
0.000000e+00 -1.085314e-02 0.000000e+00
0.000000e+00 -1.450553e-02 0.000000e+00
0.000000e+00 -1.831446e-02 0.000000e+00
0.000000e+00 -2.213251e-02 0.000000e+00
0.000000e+00 -2.573549e-02 0.000000e+00
0.000000e+00 -2.879317e-02 0.000000e+00
0.000000e+00 -3.150000e-02 0.000000e+00
0.000000e+00 0.000000e+00 0.000000e+00
8.378201e-04 -1.713121e-03 0.000000e+00
1.546921e-03 -4.031230e-03 0.000000e+00
2.040452e-03 -6.828224e-03 0.000000e+00
2.328840e-03 -1.001110e-02 0.000000e+00
2.457524e-03 -1.351172e-02 0.000000e+00
2.406390e-03 -1.724280e-02 0.000000e+00
2.123141e-03 -2.111043e-02 0.000000e+00
1.527106e-03 -2.498591e-02 0.000000e+00
5.005667e-04 -2.866139e-02 0.000000e+00
0.000000e+00 -3.150000e-02 0.000000e+00
0.000000e+00 0.000000e+00 0.000000e+00
1.488440e-03 -1.373698e-03 0.000000e+00
2.736072e-03 -3.086109e-03 0.000000e+00
3.664803e-03 -5.112491e-03 0.000000e+00
4.336003e-03 -7.500673e-03 0.000000e+00
4.776161e-03 -1.027327e-02 0.000000e+00
4.896860e-03 -1.345523e-02 0.000000e+00
4.755286e-03 -1.710898e-02 0.000000e+00
4.103122e-03 -2.129291e-02 0.000000e+00
2.869075e-03 -2.612009e-02 0.000000e+00
0.000000e+00 -3.150000e-02 0.000000e+00
0.000000e+00 0.000000e+00 0.000000e+00
1.828860e-03 -1.026344e-03 0.000000e+00
3.269351e-03 -2.113760e-03 0.000000e+00
4.386549e-03 -3.198948e-03 0.000000e+00
5.269045e-03 -4.248909e-03 0.000000e+00
5.976779e-03 -5.221890e-03 0.000000e+00
6.444494e-03 -6.066866e-03 0.000000e+00
6.640453e-03 -6.766865e-03 0.000000e+00
6.401376e-03 -7.267191e-03 0.000000e+00
5.487313e-03 -7.354049e-03 0.000000e+00
2.152197e-03 -6.744450e-03 0.000000e+00
0.000000e+00 0.000000e+00 0.000000e+00
1.920347e-03 -7.713630e-04 0.000000e+00
3.314122e-03 -1.505097e-03 0.000000e+00
4.358659e-03 -2.173623e-03 0.000000e+00
5.155656e-03 -2.764937e-03 0.000000e+00
5.735944e-03 -3.253185e-03 0.000000e+00
6.063499e-03 -3.607725e-03 0.000000e+00
6.085551e-03 -3.789897e-03 0.000000e+00
5.650526e-03 -3.760971e-03 0.000000e+00
4.379699e-03 -3.516123e-03 0.000000e+00
2.197312e-03 -3.538883e-03 0.000000e+00
0.000000e+00 0.000000e+00 0.000000e+00
1.860166e-03 -5.485451e-04 0.000000e+00
3.136860e-03 -1.019932e-03 0.000000e+00
4.077299e-03 -1.410908e-03 0.000000e+00
4.769596e-03 -1.715750e-03 0.000000e+00
5.232375e-03 -1.919578e-03 0.000000e+00
5.435080e-03 -2.006740e-03 0.000000e+00
5.333915e-03 -1.959780e-03 0.000000e+00
4.805612e-03 -1.786849e-03 0.000000e+00
3.780798e-03 -1.605885e-03 0.000000e+00
2.446121e-03 -1.548434e-03 0.000000e+00
0.000000e+00 0.000000e+00 0.000000e+00
1.697065e-03 -3.761937e-04 0.000000e+00
2.839490e-03 -6.589498e-04 0.000000e+00
3.670487e-03 -8.618929e-04 0.000000e+00
4.263342e-03 -9.840274e-04 0.000000e+00
4.630283e-03 -1.019728e-03 0.000000e+00
4.754681e-03 -9.639531e-04 0.000000e+00
4.599072e-03 -8.221107e-04 0.000000e+00
4.130794e-03 -6.296870e-04 0.000000e+00
3.388008e-03 -4.664242e-04 0.000000e+00
2.556598e-03 -4.221746e-04 0.000000e+00
0.000000e+00 0.000000e+00 0.000000e+00
1.479094e-03 -2.508571e-04 0.000000e+00
2.479777e-03 -4.025915e-04 0.000000e+00
3.207627e-03 -4.797939e-04 0.000000e+00
3.716450e-03 -4.878309e-04 0.000000e+00
4.015659e-03 -4.278832e-04 0.000000e+00
4.094578e-03 -3.017737e-04 0.000000e+00
3.944122e-03 -1.233927e-04 0.000000e+00
3.582074e-03 6.692646e-05 0.000000e+00
3.074801e-03 2.087174e-04 0.000000e+00
2.560873e-03 2.669109e-04 0.000000e+00
0.000000e+00 0.000000e+00 0.000000e+00
1.239690e-03 -1.620164e-04 0.000000e+00
2.103295e-03 -2.312290e-04 0.000000e+00
2.735577e-03 -2.328482e-04 0.000000e+00
3.173494e-03 -1.748124e-04 0.000000e+00
3.420767e-03 -6.036345e-05 0.000000e+00
3.480927e-03 1.021330e-04 0.000000e+00
3.367072e-03 2.900146e-04 0.000000e+00
3.112847e-03 4.680510e-04 0.000000e+00
2.781677e-03 6.015625e-04 0.000000e+00
2.476000e-03 6.728410e-04 0.000000e+00
0.000000e+00 0.000000e+00 0.000000e+00
1.005015e-03 -1.074341e-04 0.000000e+00
1.739047e-03 -1.279425e-04 0.000000e+00
2.281904e-03 -8.704406e-05 0.000000e+00
2.653819e-03 9.722820e-06 0.000000e+00
2.862884e-03 1.528062e-04 0.000000e+00
2.922426e-03 3.274193e-04 0.000000e+00
2.852664e-03 5.116837e-04 0.000000e+00
2.688431e-03 6.796445e-04 0.000000e+00
2.484429e-03 8.105157e-04 0.000000e+00
2.317738e-03 8.956608e-04 0.000000e+00
0.000000e+00 0.000000e+00 0.000000e+00
7.944083e-04 -7.489626e-05 0.000000e+00
1.403774e-03 -7.155081e-05 0.000000e+00
1.857284e-03 -7.658158e-06 0.000000e+00
2.169980e-03 1.072180e-04 0.000000e+00
2.350979e-03 2.598671e-04 0.000000e+00
2.415184e-03 4.335215e-04 0.000000e+00
2.384009e-03 6.098046e-04 0.000000e+00
2.287913e-03 7.706470e-04 0.000000e+00
2.173273e-03 9.023421e-04 0.000000e+00
2.097258e-03 1.000992e-03 0.000000e+00
0.000000e+00 0.000000e+00 0.000000e+00
6.126653e-04 -5.769311e-05 0.000000e+00
1.102771e-03 -4.254505e-05 0.000000e+00
1.470423e-03 2.989971e-05 0.000000e+00
1.728903e-03 1.485410e-04 0.000000e+00
1.884856e-03 2.989589e-04 0.000000e+00
1.952091e-03 4.657047e-04 0.000000e+00
1.947781e-03 6.337300e-04 0.000000e+00
1.899754e-03 7.894474e-04 0.000000e+00
1.844570e-03 9.234942e-04 0.000000e+00
1.824720e-03 1.034825e-03 0.000000e+00
0.000000e+00 0.000000e+00 0.000000e+00
4.578327e-04 -4.770500e-05 0.000000e+00
8.351554e-04 -2.984360e-05 0.000000e+00
1.124151e-03 4.161662e-05 0.000000e+00
1.330261e-03 1.557556e-04 0.000000e+00
1.460077e-03 2.992729e-04 0.000000e+00
1.523257e-03 4.582284e-04 0.000000e+00
1.534680e-03 6.190318e-04 0.000000e+00
1.517229e-03 7.707963e-04 0.000000e+00
1.498640e-03 9.073477e-04 0.000000e+00
1.509246e-03 1.029663e-03 0.000000e+00
0.000000e+00 0.000000e+00 0.000000e+00
3.250179e-04 -4.453801e-05 0.000000e+00
5.995170e-04 -2.724354e-05 0.000000e+00
8.128100e-04 4.106656e-05 0.000000e+00
9.670267e-04 1.494734e-04 0.000000e+00
1.067102e-03 2.858801e-04 0.000000e+00
1.120259e-03 4.369892e-04 0.000000e+00
1.137878e-03 5.911445e-04 0.000000e+00
1.137142e-03 7.395269e-04 0.000000e+00
1.137595e-03 8.781143e-04 0.000000e+00
1.160375e-03 1.008990e-03 0.000000e+00
0.000000e+00 0.000000e+00 0.000000e+00
2.087823e-04 -4.147596e-05 0.000000e+00
3.879392e-04 -2.551302e-05 0.000000e+00
5.278653e-04 3.990231e-05 0.000000e+00
6.304642e-04 1.434752e-04 0.000000e+00
6.981022e-04 2.736322e-04 0.000000e+00
7.362853e-04 4.182633e-04 0.000000e+00
7.525894e-04 5.671518e-04 0.000000e+00
7.579362e-04 7.128852e-04 0.000000e+00
7.649768e-04 8.528970e-04 0.000000e+00
7.868575e-04 9.900612e-04 0.000000e+00
0.000000e+00 0.000000e+00 0.000000e+00
1.040204e-04 -3.799503e-05 0.000000e+00
1.909586e-04 -1.935498e-05 0.000000e+00
2.599232e-04 4.541353e-05 0.000000e+00
3.110555e-04 1.464144e-04 0.000000e+00
3.450115e-04 2.724060e-04 0.000000e+00
3.649840e-04 4.128014e-04 0.000000e+00
3.744548e-04 5.581632e-04 0.000000e+00
3.789687e-04 7.023809e-04 0.000000e+00
3.844922e-04 8.433503e-04 0.000000e+00
3.973127e-04 9.845077e-04 0.000000e+00
0.000000e+00 0.000000e+00 0.000000e+00
0.000000e+00 -2.342171e-05 0.000000e+00
0.000000e+00 -1.126356e-06 0.000000e+00
0.000000e+00 6.339265e-05 0.000000e+00
0.000000e+00 1.632806e-04 0.000000e+00
0.000000e+00 2.878543e-04 0.000000e+00
0.000000e+00 4.265932e-04 0.000000e+00
0.000000e+00 5.707284e-04 0.000000e+00
0.000000e+00 7.144218e-04 0.000000e+00
0.000000e+00 8.557778e-04 0.000000e+00
0.000000e+00 9.983424e-04 0.000000e+00
</DataArray>
<DataArray Name="shear" type="Float64" NumberOfComponents="1" format="ascii">
1.049122e-02
1.451716e-02
2.052246e-02
2.496524e-02
2.795474e-02
2.969567e-02
3.001661e-02
2.839554e-02
2.405288e-02
1.776052e-02
1.460154e-02
1.052121e-02
1.400577e-02
1.935837e-02
2.372599e-02
2.725072e-02
2.985759e-02
3.126480e-02
3.113952e-02
2.878749e-02
2.346025e-02
1.857039e-02
1.084725e-02
1.288455e-02
1.626902e-02
2.003259e-02
2.448199e-02
2.943717e-02
3.488140e-02
4.050193e-02
4.580801e-02
4.837302e-02
4.824633e-02
1.092254e-02
1.137995e-02
1.212473e-02
1.370615e-02
1.639466e-02
2.007018e-02
2.479132e-02
3.047189e-02
3.675117e-02
4.073235e-02
4.344476e-02
1.060265e-02
1.007924e-02
9.150833e-03
8.974212e-03
9.255338e-03
9.647903e-03
9.955028e-03
9.947315e-03
8.924265e-03
5.410462e-03
1.520380e-03
9.880492e-03
8.956876e-03
7.526812e-03
7.016217e-03
6.888864e-03
6.844214e-03
6.714308e-03
6.261971e-03
5.054596e-03
2.599379e-03
4.182334e-04
8.826138e-03
7.804608e-03
6.314940e-03
5.737856e-03
5.474485e-03
5.285702e-03
5.036880e-03
4.572759e-03
3.629588e-03
1.984531e-03
6.588841e-04
7.603400e-03
6.677014e-03
5.372034e-03
4.846484e-03
4.570703e-03
4.374238e-03
4.156066e-03
3.772362e-03
3.030894e-03
1.824995e-03
8.938714e-04
6.332369e-03
5.595287e-03
4.578788e-03
4.155605e-03
3.943759e-03
3.814623e-03
3.654633e-03
3.328654e-03
2.733173e-03
1.833989e-03
1.173490e-03
5.117604e-03
4.588184e-03
3.877423e-03
3.590887e-03
3.483523e-03
3.425058e-03
3.306849e-03
3.040477e-03
2.576504e-03
1.910327e-03
1.446938e-03
4.035834e-03
3.684943e-03
3.243607e-03
3.107045e-03
3.102953e-03
3.104792e-03
3.033055e-03
2.837744e-03
2.492431e-03
2.014410e-03
1.701613e-03
3.107238e-03
2.890090e-03
2.669917e-03
2.670964e-03
2.761396e-03
2.826879e-03
2.811864e-03
2.688372e-03
2.447171e-03
2.124852e-03
1.928250e-03
2.318057e-03
2.193145e-03
2.153520e-03
2.286425e-03
2.467130e-03
2.598226e-03
2.638701e-03
2.576195e-03
2.422655e-03
2.226619e-03
2.118621e-03
1.644301e-03
1.590014e-03
1.712886e-03
1.975759e-03
2.237363e-03
2.421939e-03
2.504644e-03
2.490968e-03
2.408673e-03
2.310235e-03
2.267184e-03
1.059378e-03
1.073082e-03
1.368269e-03
1.750269e-03
2.073456e-03
2.294056e-03
2.406972e-03
2.430503e-03
2.401290e-03
2.372054e-03
2.373713e-03
5.347939e-04
6.587238e-04
1.146618e-03
1.613944e-03
1.974778e-03
2.215738e-03
2.347295e-03
2.395122e-03
2.399336e-03
2.411132e-03
2.438364e-03
1.953879e-04
4.827023e-04
1.070329e-03
1.565023e-03
1.939241e-03
2.187720e-03
2.326567e-03
2.383647e-03
2.399725e-03
2.424783e-03
2.459866e-03
</DataArray>
<DataArray Name="stress" type="Float64" NumberOfComponents="9" format="ascii">
-9.362044e+04 3.813451e+03 0.000000e+00 3.813451e+03 -1.489879e+05 0.000000e+00 0.000000e+00 0.000000e+00 0.000000e+00
-8.581860e+04 3.766288e+03 0.000000e+00 3.766288e+03 -1.483252e+05 0.000000e+00 0.000000e+00 0.000000e+00 0.000000e+00
-8.243916e+04 4.110581e+03 0.000000e+00 4.110581e+03 -1.569287e+05 0.000000e+00 0.000000e+00 0.000000e+00 0.000000e+00
-8.207092e+04 4.445424e+03 0.000000e+00 4.445424e+03 -1.654065e+05 0.000000e+00 0.000000e+00 0.000000e+00 0.000000e+00
-8.377618e+04 4.646211e+03 0.000000e+00 4.646211e+03 -1.739554e+05 0.000000e+00 0.000000e+00 0.000000e+00 0.000000e+00
-8.698670e+04 4.856044e+03 0.000000e+00 4.856044e+03 -1.823154e+05 0.000000e+00 0.000000e+00 0.000000e+00 0.000000e+00
-9.129972e+04 4.895209e+03 0.000000e+00 4.895209e+03 -1.904166e+05 0.000000e+00 0.000000e+00 0.000000e+00 0.000000e+00
-9.653847e+04 4.373729e+03 0.000000e+00 4.373729e+03 -1.976241e+05 0.000000e+00 0.000000e+00 0.000000e+00 0.000000e+00
-1.037168e+05 2.107033e+03 0.000000e+00 2.107033e+03 -2.013602e+05 0.000000e+00 0.000000e+00 0.000000e+00 0.000000e+00
-1.156383e+05 -1.028449e+03 0.000000e+00 -1.028449e+03 -2.023709e+05 0.000000e+00 0.000000e+00 0.000000e+00 0.000000e+00
-1.229395e+05 -1.745165e+03 0.000000e+00 -1.745165e+03 -2.015519e+05 0.000000e+00 0.000000e+00 0.000000e+00 0.000000e+00
-9.230059e+04 1.036969e+04 0.000000e+00 1.036969e+04 -1.419623e+05 0.000000e+00 0.000000e+00 0.000000e+00 0.000000e+00
-8.536998e+04 9.673628e+03 0.000000e+00 9.673628e+03 -1.413345e+05 0.000000e+00 0.000000e+00 0.000000e+00 0.000000e+00
-8.240142e+04 9.461082e+03 0.000000e+00 9.461082e+03 -1.488711e+05 0.000000e+00 0.000000e+00 0.000000e+00 0.000000e+00
-8.239600e+04 9.529123e+03 0.000000e+00 9.529123e+03 -1.565104e+05 0.000000e+00 0.000000e+00 0.000000e+00 0.000000e+00
-8.450019e+04 9.850951e+03 0.000000e+00 9.850951e+03 -1.647205e+05 0.000000e+00 0.000000e+00 0.000000e+00 0.000000e+00
-8.770588e+04 1.011747e+04 0.000000e+00 1.011747e+04 -1.731844e+05 0.000000e+00 0.000000e+00 0.000000e+00 0.000000e+00
-9.180969e+04 1.025295e+04 0.000000e+00 1.025295e+04 -1.825810e+05 0.000000e+00 0.000000e+00 0.000000e+00 0.000000e+00
-9.615584e+04 9.161354e+03 0.000000e+00 9.161354e+03 -1.919612e+05 0.000000e+00 0.000000e+00 0.000000e+00 0.000000e+00
-1.018313e+05 5.644681e+03 0.000000e+00 5.644681e+03 -2.013974e+05 0.000000e+00 0.000000e+00 0.000000e+00 0.000000e+00
-1.104947e+05 1.229797e+02 0.000000e+00 1.229797e+02 -2.068401e+05 0.000000e+00 0.000000e+00 0.000000e+00 0.000000e+00
-1.261853e+05 -5.359371e+03 0.000000e+00 -5.359371e+03 -2.187392e+05 0.000000e+00 0.000000e+00 0.000000e+00 0.000000e+00
-8.910688e+04 1.696338e+04 0.000000e+00 1.696338e+04 -1.269101e+05 0.000000e+00 0.000000e+00 0.000000e+00 0.000000e+00
-8.396264e+04 1.623259e+04 0.000000e+00 1.623259e+04 -1.259390e+05 0.000000e+00 0.000000e+00 0.000000e+00 0.000000e+00
-8.206833e+04 1.628990e+04 0.000000e+00 1.628990e+04 -1.301506e+05 0.000000e+00 0.000000e+00 0.000000e+00 0.000000e+00
-8.311180e+04 1.738345e+04 0.000000e+00 1.738345e+04 -1.350547e+05 0.000000e+00 0.000000e+00 0.000000e+00 0.000000e+00
-8.657802e+04 1.906499e+04 0.000000e+00 1.906499e+04 -1.410333e+05 0.000000e+00 0.000000e+00 0.000000e+00 0.000000e+00
-9.124575e+04 2.090711e+04 0.000000e+00 2.090711e+04 -1.485984e+05 0.000000e+00 0.000000e+00 0.000000e+00 0.000000e+00
-9.709673e+04 2.284010e+04 0.000000e+00 2.284010e+04 -1.579978e+05 0.000000e+00 0.000000e+00 0.000000e+00 0.000000e+00
-1.028314e+05 2.321148e+04 0.000000e+00 2.321148e+04 -1.673062e+05 0.000000e+00 0.000000e+00 0.000000e+00 0.000000e+00
-1.100977e+05 2.326324e+04 0.000000e+00 2.326324e+04 -1.808395e+05 0.000000e+00 0.000000e+00 0.000000e+00 0.000000e+00
-1.220532e+05 1.966681e+04 0.000000e+00 1.966681e+04 -1.985690e+05 0.000000e+00 0.000000e+00 0.000000e+00 0.000000e+00
-1.444202e+05 1.409740e+04 0.000000e+00 1.409740e+04 -2.228877e+05 0.000000e+00 0.000000e+00 0.000000e+00 0.000000e+00
-8.547484e+04 1.926972e+04 0.000000e+00 1.926972e+04 -1.121499e+05 0.000000e+00 0.000000e+00 0.000000e+00 0.000000e+00
-8.252501e+04 1.862038e+04 0.000000e+00 1.862038e+04 -1.111353e+05 0.000000e+00 0.000000e+00 0.000000e+00 0.000000e+00
-8.158214e+04 1.858973e+04 0.000000e+00 1.858973e+04 -1.117176e+05 0.000000e+00 0.000000e+00 0.000000e+00 0.000000e+00
-8.245497e+04 1.970894e+04 0.000000e+00 1.970894e+04 -1.113335e+05 0.000000e+00 0.000000e+00 0.000000e+00 0.000000e+00
-8.428591e+04 2.110286e+04 0.000000e+00 2.110286e+04 -1.098389e+05 0.000000e+00 0.000000e+00 0.000000e+00 0.000000e+00
-8.631610e+04 2.244049e+04 0.000000e+00 2.244049e+04 -1.076396e+05 0.000000e+00 0.000000e+00 0.000000e+00 0.000000e+00
-8.834312e+04 2.338120e+04 0.000000e+00 2.338120e+04 -1.042128e+05 0.000000e+00 0.000000e+00 0.000000e+00 0.000000e+00
-8.959236e+04 2.329931e+04 0.000000e+00 2.329931e+04 -9.929303e+04 0.000000e+00 0.000000e+00 0.000000e+00 0.000000e+00
-9.045276e+04 2.330485e+04 0.000000e+00 2.330485e+04 -9.310116e+04 0.000000e+00 0.000000e+00 0.000000e+00 0.000000e+00
-8.645559e+04 1.866465e+04 0.000000e+00 1.866465e+04 -8.086749e+04 0.000000e+00 0.000000e+00 0.000000e+00 0.000000e+00
-7.772645e+04 1.523191e+04 0.000000e+00 1.523191e+04 -7.304692e+04 0.000000e+00 0.000000e+00 0.000000e+00 0.000000e+00
-8.194100e+04 1.931123e+04 0.000000e+00 1.931123e+04 -1.003658e+05 0.000000e+00 0.000000e+00 0.000000e+00 0.000000e+00
-8.145908e+04 1.868523e+04 0.000000e+00 1.868523e+04 -9.986273e+04 0.000000e+00 0.000000e+00 0.000000e+00 0.000000e+00
-8.252002e+04 1.814286e+04 0.000000e+00 1.814286e+04 -9.929939e+04 0.000000e+00 0.000000e+00 0.000000e+00 0.000000e+00
-8.481609e+04 1.849624e+04 0.000000e+00 1.849624e+04 -9.796638e+04 0.000000e+00 0.000000e+00 0.000000e+00 0.000000e+00
-8.742163e+04 1.916525e+04 0.000000e+00 1.916525e+04 -9.577361e+04 0.000000e+00 0.000000e+00 0.000000e+00 0.000000e+00
-9.018090e+04 1.961735e+04 0.000000e+00 1.961735e+04 -9.266970e+04 0.000000e+00 0.000000e+00 0.000000e+00 0.000000e+00
-9.249991e+04 1.954366e+04 0.000000e+00 1.954366e+04 -8.842577e+04 0.000000e+00 0.000000e+00 0.000000e+00 0.000000e+00
-9.428951e+04 1.851548e+04 0.000000e+00 1.851548e+04 -8.273650e+04 0.000000e+00 0.000000e+00 0.000000e+00 0.000000e+00
-9.438834e+04 1.526674e+04 0.000000e+00 1.526674e+04 -7.502626e+04 0.000000e+00 0.000000e+00 0.000000e+00 0.000000e+00
-8.737120e+04 7.678682e+03 0.000000e+00 7.678682e+03 -6.783089e+04 0.000000e+00 0.000000e+00 0.000000e+00 0.000000e+00
-6.578234e+04 1.514628e+03 0.000000e+00 1.514628e+03 -5.843125e+04 0.000000e+00 0.000000e+00 0.000000e+00 0.000000e+00
-7.810209e+04 1.835810e+04 0.000000e+00 1.835810e+04 -9.036467e+04 0.000000e+00 0.000000e+00 0.000000e+00 0.000000e+00
-7.976510e+04 1.774706e+04 0.000000e+00 1.774706e+04 -9.020784e+04 0.000000e+00 0.000000e+00 0.000000e+00 0.000000e+00
-8.234352e+04 1.670549e+04 0.000000e+00 1.670549e+04 -8.881077e+04 0.000000e+00 0.000000e+00 0.000000e+00 0.000000e+00
-8.525891e+04 1.633312e+04 0.000000e+00 1.633312e+04 -8.684402e+04 0.000000e+00 0.000000e+00 0.000000e+00 0.000000e+00
-8.783568e+04 1.604828e+04 0.000000e+00 1.604828e+04 -8.425170e+04 0.000000e+00 0.000000e+00 0.000000e+00 0.000000e+00
-9.005931e+04 1.544903e+04 0.000000e+00 1.544903e+04 -8.088072e+04 0.000000e+00 0.000000e+00 0.000000e+00 0.000000e+00
-9.156048e+04 1.413697e+04 0.000000e+00 1.413697e+04 -7.659756e+04 0.000000e+00 0.000000e+00 0.000000e+00 0.000000e+00
-9.190495e+04 1.161108e+04 0.000000e+00 1.161108e+04 -7.148540e+04 0.000000e+00 0.000000e+00 0.000000e+00 0.000000e+00
-8.926837e+04 7.185089e+03 0.000000e+00 7.185089e+03 -6.630857e+04 0.000000e+00 0.000000e+00 0.000000e+00 0.000000e+00
-7.781799e+04 1.708000e+03 0.000000e+00 1.708000e+03 -6.229207e+04 0.000000e+00 0.000000e+00 0.000000e+00 0.000000e+00
-6.120643e+04 -7.311503e+02 0.000000e+00 -7.311503e+02 -5.840296e+04 0.000000e+00 0.000000e+00 0.000000e+00 0.000000e+00
-7.441326e+04 1.684454e+04 0.000000e+00 1.684454e+04 -8.224205e+04 0.000000e+00 0.000000e+00 0.000000e+00 0.000000e+00
-7.779965e+04 1.625338e+04 0.000000e+00 1.625338e+04 -8.231612e+04 0.000000e+00 0.000000e+00 0.000000e+00 0.000000e+00
-8.154710e+04 1.482114e+04 0.000000e+00 1.482114e+04 -8.060404e+04 0.000000e+00 0.000000e+00 0.000000e+00 0.000000e+00
-8.469155e+04 1.384952e+04 0.000000e+00 1.384952e+04 -7.855612e+04 0.000000e+00 0.000000e+00 0.000000e+00 0.000000e+00
-8.706830e+04 1.280205e+04 0.000000e+00 1.280205e+04 -7.600402e+04 0.000000e+00 0.000000e+00 0.000000e+00 0.000000e+00
-8.873398e+04 1.138722e+04 0.000000e+00 1.138722e+04 -7.290958e+04 0.000000e+00 0.000000e+00 0.000000e+00 0.000000e+00
-8.933579e+04 9.337931e+03 0.000000e+00 9.337931e+03 -6.938188e+04 0.000000e+00 0.000000e+00 0.000000e+00 0.000000e+00
-8.826498e+04 6.394021e+03 0.000000e+00 6.394021e+03 -6.577447e+04 0.000000e+00 0.000000e+00 0.000000e+00 0.000000e+00
-8.389605e+04 2.639291e+03 0.000000e+00 2.639291e+03 -6.262401e+04 0.000000e+00 0.000000e+00 0.000000e+00 0.000000e+00
-7.383257e+04 -3.590540e+02 0.000000e+00 -3.590540e+02 -6.060165e+04 0.000000e+00 0.000000e+00 0.000000e+00 0.000000e+00
-6.288625e+04 -1.333699e+03 0.000000e+00 -1.333699e+03 -5.868502e+04 0.000000e+00 0.000000e+00 0.000000e+00 0.000000e+00
-7.122380e+04 1.505506e+04 0.000000e+00 1.505506e+04 -7.600830e+04 0.000000e+00 0.000000e+00 0.000000e+00 0.000000e+00
-7.576253e+04 1.451588e+04 0.000000e+00 1.451588e+04 -7.620529e+04 0.000000e+00 0.000000e+00 0.000000e+00 0.000000e+00
-8.022660e+04 1.286529e+04 0.000000e+00 1.286529e+04 -7.441384e+04 0.000000e+00 0.000000e+00 0.000000e+00 0.000000e+00
-8.341879e+04 1.143605e+04 0.000000e+00 1.143605e+04 -7.248427e+04 0.000000e+00 0.000000e+00 0.000000e+00 0.000000e+00
-8.556910e+04 9.887587e+03 0.000000e+00 9.887587e+03 -7.024587e+04 0.000000e+00 0.000000e+00 0.000000e+00 0.000000e+00
-8.673549e+04 8.058013e+03 0.000000e+00 8.058013e+03 -6.779088e+04 0.000000e+00 0.000000e+00 0.000000e+00 0.000000e+00
-8.661644e+04 5.785364e+03 0.000000e+00 5.785364e+03 -6.523295e+04 0.000000e+00 0.000000e+00 0.000000e+00 0.000000e+00
-8.470684e+04 3.055466e+03 0.000000e+00 3.055466e+03 -6.283347e+04 0.000000e+00 0.000000e+00 0.000000e+00 0.000000e+00
-8.028666e+04 3.467431e+02 0.000000e+00 3.467431e+02 -6.101962e+04 0.000000e+00 0.000000e+00 0.000000e+00 0.000000e+00
-7.250509e+04 -1.097390e+03 0.000000e+00 -1.097390e+03 -6.010691e+04 0.000000e+00 0.000000e+00 0.000000e+00 0.000000e+00
-6.524693e+04 -1.232599e+03 0.000000e+00 -1.232599e+03 -5.911795e+04 0.000000e+00 0.000000e+00 0.000000e+00 0.000000e+00
-6.869384e+04 1.331856e+04 0.000000e+00 1.331856e+04 -7.142950e+04 0.000000e+00 0.000000e+00 0.000000e+00 0.000000e+00
-7.378088e+04 1.273761e+04 0.000000e+00 1.273761e+04 -7.163423e+04 0.000000e+00 0.000000e+00 0.000000e+00 0.000000e+00
-7.857798e+04 1.100078e+04 0.000000e+00 1.100078e+04 -6.992542e+04 0.000000e+00 0.000000e+00 0.000000e+00 0.000000e+00
-8.170345e+04 9.307091e+03 0.000000e+00 9.307091e+03 -6.821937e+04 0.000000e+00 0.000000e+00 0.000000e+00 0.000000e+00
-8.365229e+04 7.536909e+03 0.000000e+00 7.536909e+03 -6.641553e+04 0.000000e+00 0.000000e+00 0.000000e+00 0.000000e+00
-8.443730e+04 5.558165e+03 0.000000e+00 5.558165e+03 -6.457010e+04 0.000000e+00 0.000000e+00 0.000000e+00 0.000000e+00
-8.390280e+04 3.336248e+03 0.000000e+00 3.336248e+03 -6.276102e+04 0.000000e+00 0.000000e+00 0.000000e+00 0.000000e+00
-8.187048e+04 1.075368e+03 0.000000e+00 1.075368e+03 -6.125016e+04 0.000000e+00 0.000000e+00 0.000000e+00 0.000000e+00
-7.813122e+04 -7.224124e+02 0.000000e+00 -7.224124e+02 -6.030127e+04 0.000000e+00 0.000000e+00 0.000000e+00 0.000000e+00
-7.245073e+04 -1.286293e+03 0.000000e+00 -1.286293e+03 -5.993596e+04 0.000000e+00 0.000000e+00 0.000000e+00 0.000000e+00
-6.762280e+04 -1.087458e+03 0.000000e+00 -1.087458e+03 -5.936952e+04 0.000000e+00 0.000000e+00 0.000000e+00 0.000000e+00
-6.683678e+04 1.163194e+04 0.000000e+00 1.163194e+04 -6.825073e+04 0.000000e+00 0.000000e+00 0.000000e+00 0.000000e+00
-7.189405e+04 1.104533e+04 0.000000e+00 1.104533e+04 -6.835126e+04 0.000000e+00 0.000000e+00 0.000000e+00 0.000000e+00
-7.670804e+04 9.294078e+03 0.000000e+00 9.294078e+03 -6.677131e+04 0.000000e+00 0.000000e+00 0.000000e+00 0.000000e+00
-7.978055e+04 7.526169e+03 0.000000e+00 7.526169e+03 -6.531182e+04 0.000000e+00 0.000000e+00 0.000000e+00 0.000000e+00
-8.156355e+04 5.694988e+03 0.000000e+00 5.694988e+03 -6.386309e+04 0.000000e+00 0.000000e+00 0.000000e+00 0.000000e+00
-8.213316e+04 3.731415e+03 0.000000e+00 3.731415e+03 -6.246516e+04 0.000000e+00 0.000000e+00 0.000000e+00 0.000000e+00
-8.152632e+04 1.750681e+03 0.000000e+00 1.750681e+03 -6.125257e+04 0.000000e+00 0.000000e+00 0.000000e+00 0.000000e+00
-7.980152e+04 6.425462e+00 0.000000e+00 6.425462e+00 -6.038567e+04 0.000000e+00 0.000000e+00 0.000000e+00 0.000000e+00
-7.691574e+04 -1.151218e+03 0.000000e+00 -1.151218e+03 -5.995930e+04 0.000000e+00 0.000000e+00 0.000000e+00 0.000000e+00
-7.293502e+04 -1.261313e+03 0.000000e+00 -1.261313e+03 -5.987020e+04 0.000000e+00 0.000000e+00 0.000000e+00 0.000000e+00
-6.976695e+04 -9.186105e+02 0.000000e+00 -9.186105e+02 -5.955527e+04 0.000000e+00 0.000000e+00 0.000000e+00 0.000000e+00
-6.543701e+04 9.894026e+03 0.000000e+00 9.894026e+03 -6.614295e+04 0.000000e+00 0.000000e+00 0.000000e+00 0.000000e+00
-7.014455e+04 9.351330e+03 0.000000e+00 9.351330e+03 -6.610214e+04 0.000000e+00 0.000000e+00 0.000000e+00 0.000000e+00
-7.482652e+04 7.737488e+03 0.000000e+00 7.737488e+03 -6.460948e+04 0.000000e+00 0.000000e+00 0.000000e+00 0.000000e+00
-7.782811e+04 6.028968e+03 0.000000e+00 6.028968e+03 -6.333896e+04 0.000000e+00 0.000000e+00 0.000000e+00 0.000000e+00
-7.949495e+04 4.245879e+03 0.000000e+00 4.245879e+03 -6.215336e+04 0.000000e+00 0.000000e+00 0.000000e+00 0.000000e+00
-8.002614e+04 2.456488e+03 0.000000e+00 2.456488e+03 -6.112910e+04 0.000000e+00 0.000000e+00 0.000000e+00 0.000000e+00
-7.960659e+04 8.129862e+02 0.000000e+00 8.129862e+02 -6.036141e+04 0.000000e+00 0.000000e+00 0.000000e+00 0.000000e+00
-7.833066e+04 -4.988079e+02 0.000000e+00 -4.988079e+02 -5.991983e+04 0.000000e+00 0.000000e+00 0.000000e+00 0.000000e+00
-7.625921e+04 -1.246547e+03 0.000000e+00 -1.246547e+03 -5.978281e+04 0.000000e+00 0.000000e+00 0.000000e+00 0.000000e+00
-7.362232e+04 -1.129681e+03 0.000000e+00 -1.129681e+03 -5.983856e+04 0.000000e+00 0.000000e+00 0.000000e+00 0.000000e+00
-7.163338e+04 -7.576550e+02 0.000000e+00 -7.576550e+02 -5.969241e+04 0.000000e+00 0.000000e+00 0.000000e+00 0.000000e+00
-6.442242e+04 8.158269e+03 0.000000e+00 8.158269e+03 -6.478551e+04 0.000000e+00 0.000000e+00 0.000000e+00 0.000000e+00
-6.862381e+04 7.663371e+03 0.000000e+00 7.663371e+03 -6.462222e+04 0.000000e+00 0.000000e+00 0.000000e+00 0.000000e+00
-7.307183e+04 6.278098e+03 0.000000e+00 6.278098e+03 -6.319987e+04 0.000000e+00 0.000000e+00 0.000000e+00 0.000000e+00
-7.596390e+04 4.731624e+03 0.000000e+00 4.731624e+03 -6.202423e+04 0.000000e+00 0.000000e+00 0.000000e+00 0.000000e+00
-7.760170e+04 3.127427e+03 0.000000e+00 3.127427e+03 -6.105846e+04 0.000000e+00 0.000000e+00 0.000000e+00 0.000000e+00
-7.824430e+04 1.609739e+03 0.000000e+00 1.609739e+03 -6.032659e+04 0.000000e+00 0.000000e+00 0.000000e+00 0.000000e+00
-7.810189e+04 2.969232e+02 0.000000e+00 2.969232e+02 -5.985530e+04 0.000000e+00 0.000000e+00 0.000000e+00 0.000000e+00
-7.728471e+04 -6.825743e+02 0.000000e+00 -6.825743e+02 -5.966482e+04 0.000000e+00 0.000000e+00 0.000000e+00 0.000000e+00
-7.593768e+04 -1.160614e+03 0.000000e+00 -1.160614e+03 -5.968955e+04 0.000000e+00 0.000000e+00 0.000000e+00 0.000000e+00
-7.432930e+04 -9.463398e+02 0.000000e+00 -9.463398e+02 -5.982750e+04 0.000000e+00 0.000000e+00 0.000000e+00 0.000000e+00
-7.318855e+04 -6.009469e+02 0.000000e+00 -6.009469e+02 -5.978895e+04 0.000000e+00 0.000000e+00 0.000000e+00 0.000000e+00
-6.369220e+04 6.421276e+03 0.000000e+00 6.421276e+03 -6.390113e+04 0.000000e+00 0.000000e+00 0.000000e+00 0.000000e+00
-6.739686e+04 6.024938e+03 0.000000e+00 6.024938e+03 -6.365640e+04 0.000000e+00 0.000000e+00 0.000000e+00 0.000000e+00
-7.153553e+04 4.896188e+03 0.000000e+00 4.896188e+03 -6.232694e+04 0.000000e+00 0.000000e+00 0.000000e+00 0.000000e+00
-7.432638e+04 3.581928e+03 0.000000e+00 3.581928e+03 -6.123185e+04 0.000000e+00 0.000000e+00 0.000000e+00 0.000000e+00
-7.599920e+04 2.259848e+03 0.000000e+00 2.259848e+03 -6.041703e+04 0.000000e+00 0.000000e+00 0.000000e+00 0.000000e+00
-7.680553e+04 1.045745e+03 0.000000e+00 1.045745e+03 -5.986493e+04 0.000000e+00 0.000000e+00 0.000000e+00 0.000000e+00
-7.694309e+04 3.378799e+01 0.000000e+00 3.378799e+01 -5.958291e+04 0.000000e+00 0.000000e+00 0.000000e+00 0.000000e+00
-7.655066e+04 -6.793638e+02 0.000000e+00 -6.793638e+02 -5.953574e+04 0.000000e+00 0.000000e+00 0.000000e+00 0.000000e+00
-7.580871e+04 -9.760178e+02 0.000000e+00 -9.760178e+02 -5.965600e+04 0.000000e+00 0.000000e+00 0.000000e+00 0.000000e+00
-7.496409e+04 -7.460907e+02 0.000000e+00 -7.460907e+02 -5.983284e+04 0.000000e+00 0.000000e+00 0.000000e+00 0.000000e+00
-7.442358e+04 -4.538044e+02 0.000000e+00 -4.538044e+02 -5.986668e+04 0.000000e+00 0.000000e+00 0.000000e+00 0.000000e+00
-6.317446e+04 4.724950e+03 0.000000e+00 4.724950e+03 -6.337954e+04 0.000000e+00 0.000000e+00 0.000000e+00 0.000000e+00
-6.645844e+04 4.412047e+03 0.000000e+00 4.412047e+03 -6.306729e+04 0.000000e+00 0.000000e+00 0.000000e+00 0.000000e+00
-7.027422e+04 3.553818e+03 0.000000e+00 3.553818e+03 -6.177455e+04 0.000000e+00 0.000000e+00 0.000000e+00 0.000000e+00
-7.300502e+04 2.553725e+03 0.000000e+00 2.553725e+03 -6.075427e+04 0.000000e+00 0.000000e+00 0.000000e+00 0.000000e+00
-7.473635e+04 1.557266e+03 0.000000e+00 1.557266e+03 -6.004366e+04 0.000000e+00 0.000000e+00 0.000000e+00 0.000000e+00
-7.570577e+04 6.584310e+02 0.000000e+00 6.584310e+02 -5.961961e+04 0.000000e+00 0.000000e+00 0.000000e+00 0.000000e+00
-7.609351e+04 -7.341539e+01 0.000000e+00 -7.341539e+01 -5.945145e+04 0.000000e+00 0.000000e+00 0.000000e+00 0.000000e+00
-7.605443e+04 -5.681500e+02 0.000000e+00 -5.681500e+02 -5.948887e+04 0.000000e+00 0.000000e+00 0.000000e+00 0.000000e+00
-7.577911e+04 -7.446315e+02 0.000000e+00 -7.446315e+02 -5.965671e+04 0.000000e+00 0.000000e+00 0.000000e+00 0.000000e+00
-7.548016e+04 -5.474767e+02 0.000000e+00 -5.474767e+02 -5.984271e+04 0.000000e+00 0.000000e+00 0.000000e+00 0.000000e+00
-7.535045e+04 -3.240987e+02 0.000000e+00 -3.240987e+02 -5.993051e+04 0.000000e+00 0.000000e+00 0.000000e+00 0.000000e+00
-6.280184e+04 3.043552e+03 0.000000e+00 3.043552e+03 -6.302713e+04 0.000000e+00 0.000000e+00 0.000000e+00 0.000000e+00
-6.578777e+04 2.833632e+03 0.000000e+00 2.833632e+03 -6.266566e+04 0.000000e+00 0.000000e+00 0.000000e+00 0.000000e+00
-6.937798e+04 2.271629e+03 0.000000e+00 2.271629e+03 -6.142261e+04 0.000000e+00 0.000000e+00 0.000000e+00 0.000000e+00
-7.205816e+04 1.620163e+03 0.000000e+00 1.620163e+03 -6.047046e+04 0.000000e+00 0.000000e+00 0.000000e+00 0.000000e+00
-7.384335e+04 9.704508e+02 0.000000e+00 9.704508e+02 -5.983223e+04 0.000000e+00 0.000000e+00 0.000000e+00 0.000000e+00
-7.493853e+04 3.852906e+02 0.000000e+00 3.852906e+02 -5.949196e+04 0.000000e+00 0.000000e+00 0.000000e+00 0.000000e+00
-7.551477e+04 -8.844635e+01 0.000000e+00 -8.844635e+01 -5.939327e+04 0.000000e+00 0.000000e+00 0.000000e+00 0.000000e+00
-7.573736e+04 -3.985916e+02 0.000000e+00 -3.985916e+02 -5.948057e+04 0.000000e+00 0.000000e+00 0.000000e+00 0.000000e+00
-7.578800e+04 -4.979410e+02 0.000000e+00 -4.979410e+02 -5.966889e+04 0.000000e+00 0.000000e+00 0.000000e+00 0.000000e+00
-7.585162e+04 -3.585089e+02 0.000000e+00 -3.585089e+02 -5.985420e+04 0.000000e+00 0.000000e+00 0.000000e+00 0.000000e+00
-7.599069e+04 -2.101056e+02 0.000000e+00 -2.101056e+02 -5.997784e+04 0.000000e+00 0.000000e+00 0.000000e+00 0.000000e+00
-6.255008e+04 1.363702e+03 0.000000e+00 1.363702e+03 -6.263485e+04 0.000000e+00 0.000000e+00 0.000000e+00 0.000000e+00
-6.541724e+04 1.310793e+03 0.000000e+00 1.310793e+03 -6.229765e+04 0.000000e+00 0.000000e+00 0.000000e+00 0.000000e+00
-6.887055e+04 1.073039e+03 0.000000e+00 1.073039e+03 -6.116091e+04 0.000000e+00 0.000000e+00 0.000000e+00 0.000000e+00
-7.149984e+04 7.758878e+02 0.000000e+00 7.758878e+02 -6.030173e+04 0.000000e+00 0.000000e+00 0.000000e+00 0.000000e+00
-7.331876e+04 4.645725e+02 0.000000e+00 4.645725e+02 -5.973038e+04 0.000000e+00 0.000000e+00 0.000000e+00 0.000000e+00
-7.448836e+04 1.783355e+02 0.000000e+00 1.783355e+02 -5.943732e+04 0.000000e+00 0.000000e+00 0.000000e+00 0.000000e+00
-7.517930e+04 -5.403823e+01 0.000000e+00 -5.403823e+01 -5.937561e+04 0.000000e+00 0.000000e+00 0.000000e+00 0.000000e+00
-7.556097e+04 -2.030568e+02 0.000000e+00 -2.030568e+02 -5.948311e+04 0.000000e+00 0.000000e+00 0.000000e+00 0.000000e+00
-7.580327e+04 -2.483800e+02 0.000000e+00 -2.483800e+02 -5.967747e+04 0.000000e+00 0.000000e+00 0.000000e+00 0.000000e+00
-7.607350e+04 -1.775296e+02 0.000000e+00 -1.775296e+02 -5.986075e+04 0.000000e+00 0.000000e+00 0.000000e+00 0.000000e+00
-7.636552e+04 -1.034424e+02 0.000000e+00 -1.034424e+02 -5.999747e+04 0.000000e+00 0.000000e+00 0.000000e+00 0.000000e+00
-6.235234e+04 2.245069e+02 0.000000e+00 2.245069e+02 -6.218479e+04 0.000000e+00 0.000000e+00 0.000000e+00 0.000000e+00
-6.526503e+04 3.075420e+02 0.000000e+00 3.075420e+02 -6.198677e+04 0.000000e+00 0.000000e+00 0.000000e+00 0.000000e+00
-6.871088e+04 2.950231e+02 0.000000e+00 2.950231e+02 -6.103737e+04 0.000000e+00 0.000000e+00 0.000000e+00 0.000000e+00
-7.131682e+04 2.161580e+02 0.000000e+00 2.161580e+02 -6.024983e+04 0.000000e+00 0.000000e+00 0.000000e+00 0.000000e+00
-7.314678e+04 1.153099e+02 0.000000e+00 1.153099e+02 -5.970323e+04 0.000000e+00 0.000000e+00 0.000000e+00 0.000000e+00
-7.434044e+04 1.475069e+01 0.000000e+00 1.475069e+01 -5.942325e+04 0.000000e+00 0.000000e+00 0.000000e+00 0.000000e+00
-7.506977e+04 -6.752234e+01 0.000000e+00 -6.752234e+01 -5.937252e+04 0.000000e+00 0.000000e+00 0.000000e+00 0.000000e+00
-7.550446e+04 -1.218580e+02 0.000000e+00 -1.218580e+02 -5.948288e+04 0.000000e+00 0.000000e+00 0.000000e+00 0.000000e+00
-7.580970e+04 -1.388199e+02 0.000000e+00 -1.388199e+02 -5.967973e+04 0.000000e+00 0.000000e+00 0.000000e+00 0.000000e+00
-7.614732e+04 -1.137053e+02 0.000000e+00 -1.137053e+02 -5.986046e+04 0.000000e+00 0.000000e+00 0.000000e+00 0.000000e+00
-7.648600e+04 -8.653111e+01 0.000000e+00 -8.653111e+01 -6.000098e+04 0.000000e+00 0.000000e+00 0.000000e+00 0.000000e+00
</DataArray>
<DataArray Name="vol_eps" type="Float64" NumberOfComponents="1" format="ascii">
-7.881841e-03
-7.132915e-03
-6.960595e-03
-6.977758e-03
-7.297279e-03
-7.894955e-03
-8.749345e-03
-9.826910e-03
-1.108978e-02
-1.253434e-02
-1.310410e-02
-7.345510e-03
-6.678408e-03
-6.548090e-03
-6.590116e-03
-6.862181e-03
-7.356032e-03
-8.125511e-03
-9.096009e-03
-1.039360e-02
-1.188012e-02
-1.419223e-02
-6.154174e-03
-5.639975e-03
-5.551788e-03
-5.637693e-03
-5.831090e-03
-6.047502e-03
-6.401654e-03
-6.929453e-03
-7.715786e-03
-9.241655e-03
-1.230293e-02
-4.905669e-03
-4.607643e-03
-4.528434e-03
-4.426902e-03
-4.203482e-03
-3.764849e-03
-3.118938e-03
-2.359676e-03
-1.167246e-03
8.372603e-04
2.765221e-03
-3.870885e-03
-3.832283e-03
-3.921375e-03
-3.994571e-03
-4.007671e-03
-3.965210e-03
-3.821756e-03
-3.558883e-03
-3.080543e-03
-2.222511e-03
-2.154630e-04
-2.956476e-03
-3.117923e-03
-3.277469e-03
-3.360013e-03
-3.363542e-03
-3.292350e-03
-3.113114e-03
-2.803644e-03
-2.296741e-03
-1.283680e-03
5.515706e-05
-2.205981e-03
-2.504894e-03
-2.709079e-03
-2.798250e-03
-2.795359e-03
-2.706794e-03
-2.515933e-03
-2.204906e-03
-1.701620e-03
-9.131107e-04
-9.180043e-05
-1.625427e-03
-1.995817e-03
-2.225082e-03
-2.321577e-03
-2.322488e-03
-2.238904e-03
-2.059132e-03
-1.768508e-03
-1.354789e-03
-7.947897e-04
-2.720561e-04
-1.190794e-03
-1.585304e-03
-1.824215e-03
-1.927726e-03
-1.939588e-03
-1.868313e-03
-1.710708e-03
-1.473697e-03
-1.164798e-03
-7.797515e-04
-4.386303e-04
-8.858615e-04
-1.259402e-03
-1.496262e-03
-1.607444e-03
-1.628501e-03
-1.573834e-03
-1.452267e-03
-1.278867e-03
-1.063024e-03
-8.061783e-04
-5.862834e-04
-6.781214e-04
-1.007916e-03
-1.232872e-03
-1.347588e-03
-1.377676e-03
-1.345252e-03
-1.265251e-03
-1.150697e-03
-1.009312e-03
-8.474897e-04
-7.124862e-04
-5.439081e-04
-8.228029e-04
-1.028326e-03
-1.138959e-03
-1.180237e-03
-1.172819e-03
-1.131127e-03
-1.065782e-03
-9.828800e-04
-8.911410e-04
-8.166558e-04
-4.573422e-04
-6.916074e-04
-8.752901e-04
-9.813694e-04
-1.033158e-03
-1.047512e-03
-1.037493e-03
-1.010342e-03
-9.724125e-04
-9.313103e-04
-8.996089e-04
-4.072974e-04
-6.032424e-04
-7.623324e-04
-8.668545e-04
-9.283408e-04
-9.613818e-04
-9.751796e-04
-9.758378e-04
-9.704127e-04
-9.647212e-04
-9.626173e-04
-3.707628e-04
-5.407968e-04
-6.862678e-04
-7.898189e-04
-8.590585e-04
-9.051209e-04
-9.352568e-04
-9.554196e-04
-9.718653e-04
-9.889187e-04
-1.005993e-03
-3.354080e-04
-4.964697e-04
-6.388539e-04
-7.447607e-04
-8.199444e-04
-8.736055e-04
-9.131863e-04
-9.446364e-04
-9.733971e-04
-1.003078e-03
-1.030410e-03
-2.955135e-04
-4.677780e-04
-6.215677e-04
-7.305752e-04
-8.075479e-04
-8.635157e-04
-9.062845e-04
-9.411200e-04
-9.739252e-04
-1.007606e-03
-1.038071e-03
</DataArray>
</PointData>
</Piece>
</UnstructuredGrid>
</VTKFile>
