<?xml version="1.0"?>
<VTKFile type="UnstructuredGrid" version="0.1">
<UnstructuredGrid>
<FieldData>
<DataArray Name="TIME" type="Float64" format="ascii" NumberOfTuples="1">
0.000000e+00
</DataArray>
</FieldData>
<FieldData>
<DataArray Name="CYCLE" type="Int32" format="ascii" NumberOfTuples="1">
0
</DataArray>
</FieldData>
<Piece NumberOfPoints="187" NumberOfCells="160">
<Points>
<DataArray NumberOfComponents="3" type="Float64" format="ascii">
0.000000e+00 0.000000e+00 0.000000e+00
0.000000e+00 1.972190e-01 0.000000e+00
0.000000e+00 3.933473e-01 0.000000e+00
0.000000e+00 5.879712e-01 0.000000e+00
0.000000e+00 7.808928e-01 0.000000e+00
0.000000e+00 9.731287e-01 0.000000e+00
0.000000e+00 1.165137e+00 0.000000e+00
0.000000e+00 1.357433e+00 0.000000e+00
0.000000e+00 1.551420e+00 0.000000e+00
0.000000e+00 1.747438e+00 0.000000e+00
0.000000e+00 1.943750e+00 0.000000e+00
2.250000e-01 0.000000e+00 0.000000e+00
2.263755e-01 1.972558e-01 0.000000e+00
2.281533e-01 3.934288e-01 0.000000e+00
2.302737e-01 5.885298e-01 0.000000e+00
2.316853e-01 7.824866e-01 0.000000e+00
2.321598e-01 9.755977e-01 0.000000e+00
2.319425e-01 1.168275e+00 0.000000e+00
2.306322e-01 1.360921e+00 0.000000e+00
2.279926e-01 1.553831e+00 0.000000e+00
2.254841e-01 1.747622e+00 0.000000e+00
2.250000e-01 1.943750e+00 0.000000e+00
4.500000e-01 0.000000e+00 0.000000e+00
4.529338e-01 1.976165e-01 0.000000e+00
4.559505e-01 3.944476e-01 0.000000e+00
4.587054e-01 5.908119e-01 0.000000e+00
4.608175e-01 7.868527e-01 0.000000e+00
4.621207e-01 9.823195e-01 0.000000e+00
4.625496e-01 1.176929e+00 0.000000e+00
4.619549e-01 1.370419e+00 0.000000e+00
4.598671e-01 1.562272e+00 0.000000e+00
4.562936e-01 1.753067e+00 0.000000e+00
4.500000e-01 1.943750e+00 0.000000e+00
6.750000e-01 0.000000e+00 0.000000e+00
6.790865e-01 1.985946e-01 0.000000e+00
6.825748e-01 3.970095e-01 0.000000e+00
6.853773e-01 5.955339e-01 0.000000e+00
6.875936e-01 7.942528e-01 0.000000e+00
6.892200e-01 9.931889e-01 0.000000e+00
6.901975e-01 1.192412e+00 0.000000e+00
6.904267e-01 1.391919e+00 0.000000e+00
6.893548e-01 1.591904e+00 0.000000e+00
6.865079e-01 1.792174e+00 0.000000e+00
6.810240e-01 1.992462e+00 0.000000e+00
9.000000e-01 0.000000e+00 0.000000e+00
9.044487e-01 1.989668e-01 0.000000e+00
9.076548e-01 3.980150e-01 0.000000e+00
9.101113e-01 5.972763e-01 0.000000e+00
9.120035e-01 7.967569e-01 0.000000e+00
9.133571e-01 9.964838e-01 0.000000e+00
9.140556e-01 1.196458e+00 0.000000e+00
9.139342e-01 1.396743e+00 0.000000e+00
9.126886e-01 1.597258e+00 0.000000e+00
9.100784e-01 1.797791e+00 0.000000e+00
9.064090e-01 1.997811e+00 0.000000e+00
1.125000e+00 0.000000e+00 0.000000e+00
1.129451e+00 1.993747e-01 0.000000e+00
1.132233e+00 3.988844e-01 0.000000e+00
1.134372e+00 5.986018e-01 0.000000e+00
1.135981e+00 7.985201e-01 0.000000e+00
1.137069e+00 9.986460e-01 0.000000e+00
1.137524e+00 1.199017e+00 0.000000e+00
1.137239e+00 1.399606e+00 0.000000e+00
1.136074e+00 1.600285e+00 0.000000e+00
1.134117e+00 1.800774e+00 0.000000e+00
1.131900e+00 2.000857e+00 0.000000e+00
1.350000e+00 0.000000e+00 0.000000e+00
1.354116e+00 1.996857e-01 0.000000e+00
1.356552e+00 3.995013e-01 0.000000e+00
1.358395e+00 5.994921e-01 0.000000e+00
1.359755e+00 7.996684e-01 0.000000e+00
1.360631e+00 1.000053e+00 0.000000e+00
1.360928e+00 1.200625e+00 0.000000e+00
1.360605e+00 1.401322e+00 0.000000e+00
1.359691e+00 1.601989e+00 0.000000e+00
1.358381e+00 1.802434e+00 0.000000e+00
1.357090e+00 2.002550e+00 0.000000e+00
1.575000e+00 0.000000e+00 0.000000e+00
1.578601e+00 1.998638e-01 0.000000e+00
1.580727e+00 3.998715e-01 0.000000e+00
1.582308e+00 6.000503e-01 0.000000e+00
1.583467e+00 8.004012e-01 0.000000e+00
1.584169e+00 1.000919e+00 0.000000e+00
1.584381e+00 1.201570e+00 0.000000e+00
1.584129e+00 1.402261e+00 0.000000e+00
1.583514e+00 1.602875e+00 0.000000e+00
1.582715e+00 1.803284e+00 0.000000e+00
1.582026e+00 2.003447e+00 0.000000e+00
1.800000e+00 0.000000e+00 0.000000e+00
1.803009e+00 1.999557e-01 0.000000e+00
1.804841e+00 4.000930e-01 0.000000e+00
1.806205e+00 6.003773e-01 0.000000e+00
1.807183e+00 8.008136e-01 0.000000e+00
1.807760e+00 1.001382e+00 0.000000e+00
1.807949e+00 1.202028e+00 0.000000e+00
1.807819e+00 1.402674e+00 0.000000e+00
1.807466e+00 1.603234e+00 0.000000e+00
1.807043e+00 1.803626e+00 0.000000e+00
1.806747e+00 2.003839e+00 0.000000e+00
2.025000e+00 0.000000e+00 0.000000e+00
2.027414e+00 2.000015e-01 0.000000e+00
2.028967e+00 4.001950e-01 0.000000e+00
2.030136e+00 6.005253e-01 0.000000e+00
2.030958e+00 8.009873e-01 0.000000e+00
2.031448e+00 1.001546e+00 0.000000e+00
2.031654e+00 1.202152e+00 0.000000e+00
2.031641e+00 1.402745e+00 0.000000e+00
2.031491e+00 1.603260e+00 0.000000e+00
2.031330e+00 1.803651e+00 0.000000e+00
2.031282e+00 2.003918e+00 0.000000e+00
2.250000e+00 0.000000e+00 0.000000e+00
2.251861e+00 2.000134e-01 0.000000e+00
2.253152e+00 4.002141e-01 0.000000e+00
2.254133e+00 6.005456e-01 0.000000e+00
2.254824e+00 8.009911e-01 0.000000e+00
2.255258e+00 1.001511e+00 0.000000e+00
2.255486e+00 1.202065e+00 0.000000e+00
2.255560e+00 1.402607e+00 0.000000e+00
2.255554e+00 1.603090e+00 0.000000e+00
2.255560e+00 1.803489e+00 0.000000e+00
2.255660e+00 2.003807e+00 0.000000e+00
2.475000e+00 0.000000e+00 0.000000e+00
2.476379e+00 2.000051e-01 0.000000e+00
2.477416e+00 4.001835e-01 0.000000e+00
2.478223e+00 6.004847e-01 0.000000e+00
2.478801e+00 8.008887e-01 0.000000e+00
2.479188e+00 1.001360e+00 0.000000e+00
2.479422e+00 1.201863e+00 0.000000e+00
2.479550e+00 1.402362e+00 0.000000e+00
2.479632e+00 1.602822e+00 0.000000e+00
2.479733e+00 1.803232e+00 0.000000e+00
2.479907e+00 2.003599e+00 0.000000e+00
2.700000e+00 0.000000e+00 0.000000e+00
2.700982e+00 1.999907e-01 0.000000e+00
2.701782e+00 4.001269e-01 0.000000e+00
2.702415e+00 6.003826e-01 0.000000e+00
2.702886e+00 8.007367e-01 0.000000e+00
2.703218e+00 1.001160e+00 0.000000e+00
2.703440e+00 1.201619e+00 0.000000e+00
2.703590e+00 1.402081e+00 0.000000e+00
2.703713e+00 1.602526e+00 0.000000e+00
2.703852e+00 1.802948e+00 0.000000e+00
2.704044e+00 2.003359e+00 0.000000e+00
2.925000e+00 0.000000e+00 0.000000e+00
2.925668e+00 1.999671e-01 0.000000e+00
2.926243e+00 4.000641e-01 0.000000e+00
2.926712e+00 6.002780e-01 0.000000e+00
2.927070e+00 8.005853e-01 0.000000e+00
2.927333e+00 1.000963e+00 0.000000e+00
2.927523e+00 1.201382e+00 0.000000e+00
2.927666e+00 1.401818e+00 0.000000e+00
2.927790e+00 1.602253e+00 0.000000e+00
2.927927e+00 1.802688e+00 0.000000e+00
2.928098e+00 2.003132e+00 0.000000e+00
3.150000e+00 0.000000e+00 0.000000e+00
3.150416e+00 1.999484e-01 0.000000e+00
3.150782e+00 4.000136e-01 0.000000e+00
3.151092e+00 6.001927e-01 0.000000e+00
3.151336e+00 8.004655e-01 0.000000e+00
3.151517e+00 1.000806e+00 0.000000e+00
3.151654e+00 1.201194e+00 0.000000e+00
3.151764e+00 1.401610e+00 0.000000e+00
3.151863e+00 1.602040e+00 0.000000e+00
3.151968e+00 1.802484e+00 0.000000e+00
3.152095e+00 2.002950e+00 0.000000e+00
3.375000e+00 0.000000e+00 0.000000e+00
3.375201e+00 1.999374e-01 0.000000e+00
3.375378e+00 3.999873e-01 0.000000e+00
3.375530e+00 6.001437e-01 0.000000e+00
3.375655e+00 8.003941e-01 0.000000e+00
3.375747e+00 1.000713e+00 0.000000e+00
3.375818e+00 1.201081e+00 0.000000e+00
3.375877e+00 1.401482e+00 0.000000e+00
3.375932e+00 1.601909e+00 0.000000e+00
3.375989e+00 1.802358e+00 0.000000e+00
3.376055e+00 2.002838e+00 0.000000e+00
3.600000e+00 0.000000e+00 0.000000e+00
3.600000e+00 1.999467e-01 0.000000e+00
3.600000e+00 3.999933e-01 0.000000e+00
3.600000e+00 6.001421e-01 0.000000e+00
3.600000e+00 8.003839e-01 0.000000e+00
3.600000e+00 1.000695e+00 0.000000e+00
3.600000e+00 1.201054e+00 0.000000e+00
3.600000e+00 1.401449e+00 0.000000e+00
3.600000e+00 1.601872e+00 0.000000e+00
3.600000e+00 1.802321e+00 0.000000e+00
3.600000e+00 2.002803e+00 0.000000e+00
</DataArray>
</Points>
<Cells>
<DataArray Name="connectivity" type="Int32" format="ascii">
0 11 12 1
1 12 13 2
2 13 14 3
3 14 15 4
4 15 16 5
5 16 17 6
6 17 18 7
7 18 19 8
8 19 20 9
9 20 21 10
11 22 23 12
12 23 24 13
13 24 25 14
14 25 26 15
15 26 27 16
16 27 28 17
17 28 29 18
18 29 30 19
19 30 31 20
20 31 32 21
22 33 34 23
23 34 35 24
24 35 36 25
25 36 37 26
26 37 38 27
27 38 39 28
28 39 40 29
29 40 41 30
30 41 42 31
31 42 43 32
33 44 45 34
34 45 46 35
35 46 47 36
36 47 48 37
37 48 49 38
38 49 50 39
39 50 51 40
40 51 52 41
41 52 53 42
42 53 54 43
44 55 56 45
45 56 57 46
46 57 58 47
47 58 59 48
48 59 60 49
49 60 61 50
50 61 62 51
51 62 63 52
52 63 64 53
53 64 65 54
55 66 67 56
56 67 68 57
57 68 69 58
58 69 70 59
59 70 71 60
60 71 72 61
61 72 73 62
62 73 74 63
63 74 75 64
64 75 76 65
66 77 78 67
67 78 79 68
68 79 80 69
69 80 81 70
70 81 82 71
71 82 83 72
72 83 84 73
73 84 85 74
74 85 86 75
75 86 87 76
77 88 89 78
78 89 90 79
79 90 91 80
80 91 92 81
81 92 93 82
82 93 94 83
83 94 95 84
84 95 96 85
85 96 97 86
86 97 98 87
88 99 100 89
89 100 101 90
90 101 102 91
91 102 103 92
92 103 104 93
93 104 105 94
94 105 106 95
95 106 107 96
96 107 108 97
97 108 109 98
99 110 111 100
100 111 112 101
101 112 113 102
102 113 114 103
103 114 115 104
104 115 116 105
105 116 117 106
106 117 118 107
107 118 119 108
108 119 120 109
110 121 122 111
111 122 123 112
112 123 124 113
113 124 125 114
114 125 126 115
115 126 127 116
116 127 128 117
117 128 129 118
118 129 130 119
119 130 131 120
121 132 133 122
122 133 134 123
123 134 135 124
124 135 136 125
125 136 137 126
126 137 138 127
127 138 139 128
128 139 140 129
129 140 141 130
130 141 142 131
132 143 144 133
133 144 145 134
134 145 146 135
135 146 147 136
136 147 148 137
137 148 149 138
138 149 150 139
139 150 151 140
140 151 152 141
141 152 153 142
143 154 155 144
144 155 156 145
145 156 157 146
146 157 158 147
147 158 159 148
148 159 160 149
149 160 161 150
150 161 162 151
151 162 163 152
152 163 164 153
154 165 166 155
155 166 167 156
156 167 168 157
157 168 169 158
158 169 170 159
159 170 171 160
160 171 172 161
161 172 173 162
162 173 174 163
163 174 175 164
165 176 177 166
166 177 178 167
167 178 179 168
168 179 180 169
169 180 181 170
170 181 182 171
171 182 183 172
172 183 184 173
173 184 185 174
174 185 186 175
</DataArray>
<DataArray Name="offsets" type="Int32" format="ascii">
4
8
12
16
20
24
28
32
36
40
44
48
52
56
60
64
68
72
76
80
84
88
92
96
100
104
108
112
116
120
124
128
132
136
140
144
148
152
156
160
164
168
172
176
180
184
188
192
196
200
204
208
212
216
220
224
228
232
236
240
244
248
252
256
260
264
268
272
276
280
284
288
292
296
300
304
308
312
316
320
324
328
332
336
340
344
348
352
356
360
364
368
372
376
380
384
388
392
396
400
404
408
412
416
420
424
428
432
436
440
444
448
452
456
460
464
468
472
476
480
484
488
492
496
500
504
508
512
516
520
524
528
532
536
540
544
548
552
556
560
564
568
572
576
580
584
588
592
596
600
604
608
612
616
620
624
628
632
636
640
</DataArray>
<DataArray Name="types" type="UInt8" format="ascii">
9
9
9
9
9
9
9
9
9
9
9
9
9
9
9
9
9
9
9
9
9
9
9
9
9
9
9
9
9
9
9
9
9
9
9
9
9
9
9
9
9
9
9
9
9
9
9
9
9
9
9
9
9
9
9
9
9
9
9
9
9
9
9
9
9
9
9
9
9
9
9
9
9
9
9
9
9
9
9
9
9
9
9
9
9
9
9
9
9
9
9
9
9
9
9
9
9
9
9
9
9
9
9
9
9
9
9
9
9
9
9
9
9
9
9
9
9
9
9
9
9
9
9
9
9
9
9
9
9
9
9
9
9
9
9
9
9
9
9
9
9
9
9
9
9
9
9
9
9
9
9
9
9
9
9
9
9
9
9
9
</DataArray>
</Cells>
<PointData>
<DataArray Name="disp" type="Float64" NumberOfComponents="3" format="ascii">
0.000000e+00 0.000000e+00 0.000000e+00
0.000000e+00 -2.781048e-03 0.000000e+00
0.000000e+00 -6.652711e-03 0.000000e+00
0.000000e+00 -1.202880e-02 0.000000e+00
0.000000e+00 -1.910717e-02 0.000000e+00
0.000000e+00 -2.687132e-02 0.000000e+00
0.000000e+00 -3.486282e-02 0.000000e+00
0.000000e+00 -4.256722e-02 0.000000e+00
0.000000e+00 -4.858010e-02 0.000000e+00
0.000000e+00 -5.256227e-02 0.000000e+00
0.000000e+00 -5.625000e-02 0.000000e+00
0.000000e+00 0.000000e+00 0.000000e+00
1.375466e-03 -2.744246e-03 0.000000e+00
3.153329e-03 -6.571230e-03 0.000000e+00
5.273705e-03 -1.147019e-02 0.000000e+00
6.685256e-03 -1.751345e-02 0.000000e+00
7.159778e-03 -2.440233e-02 0.000000e+00
6.942465e-03 -3.172526e-02 0.000000e+00
5.632160e-03 -3.907862e-02 0.000000e+00
2.992640e-03 -4.616917e-02 0.000000e+00
4.840844e-04 -5.237826e-02 0.000000e+00
0.000000e+00 -5.625000e-02 0.000000e+00
0.000000e+00 0.000000e+00 0.000000e+00
2.933796e-03 -2.383446e-03 0.000000e+00
5.950497e-03 -5.552415e-03 0.000000e+00
8.705412e-03 -9.188111e-03 0.000000e+00
1.081750e-02 -1.314732e-02 0.000000e+00
1.212065e-02 -1.768050e-02 0.000000e+00
1.254961e-02 -2.307057e-02 0.000000e+00
1.195491e-02 -2.958117e-02 0.000000e+00
9.867048e-03 -3.772840e-02 0.000000e+00
6.293560e-03 -4.693288e-02 0.000000e+00
0.000000e+00 -5.625000e-02 0.000000e+00
0.000000e+00 0.000000e+00 0.000000e+00
4.086525e-03 -1.405407e-03 0.000000e+00
7.574819e-03 -2.990548e-03 0.000000e+00
1.037729e-02 -4.466091e-03 0.000000e+00
1.259364e-02 -5.747186e-03 0.000000e+00
1.422002e-02 -6.811135e-03 0.000000e+00
1.519751e-02 -7.587709e-03 0.000000e+00
1.542668e-02 -8.081064e-03 0.000000e+00
1.435482e-02 -8.096343e-03 0.000000e+00
1.150789e-02 -7.825810e-03 0.000000e+00
6.023963e-03 -7.537772e-03 0.000000e+00
0.000000e+00 0.000000e+00 0.000000e+00
4.448769e-03 -1.033220e-03 0.000000e+00
7.654819e-03 -1.985020e-03 0.000000e+00
1.011129e-02 -2.723656e-03 0.000000e+00
1.200349e-02 -3.243111e-03 0.000000e+00
1.335714e-02 -3.516222e-03 0.000000e+00
1.405566e-02 -3.542278e-03 0.000000e+00
1.393422e-02 -3.256649e-03 0.000000e+00
1.268864e-02 -2.741778e-03 0.000000e+00
1.007840e-02 -2.208514e-03 0.000000e+00
6.409024e-03 -2.188970e-03 0.000000e+00
0.000000e+00 0.000000e+00 0.000000e+00
4.451085e-03 -6.253098e-04 0.000000e+00
7.232820e-03 -1.115565e-03 0.000000e+00
9.372106e-03 -1.398251e-03 0.000000e+00
1.098080e-02 -1.479902e-03 0.000000e+00
1.206943e-02 -1.353957e-03 0.000000e+00
1.252411e-02 -9.833633e-04 0.000000e+00
1.223873e-02 -3.942531e-04 0.000000e+00
1.107354e-02 2.851670e-04 0.000000e+00
9.117089e-03 7.745057e-04 0.000000e+00
6.900006e-03 8.570318e-04 0.000000e+00
0.000000e+00 0.000000e+00 0.000000e+00
4.115625e-03 -3.142844e-04 0.000000e+00
6.552535e-03 -4.986824e-04 0.000000e+00
8.395059e-03 -5.079288e-04 0.000000e+00
9.755037e-03 -3.316167e-04 0.000000e+00
1.063045e-02 5.278721e-05 0.000000e+00
1.092796e-02 6.249286e-04 0.000000e+00
1.060540e-02 1.322309e-03 0.000000e+00
9.691368e-03 1.988551e-03 0.000000e+00
8.381015e-03 2.433912e-03 0.000000e+00
7.089640e-03 2.549747e-03 0.000000e+00
0.000000e+00 0.000000e+00 0.000000e+00
3.600954e-03 -1.361899e-04 0.000000e+00
5.726483e-03 -1.284684e-04 0.000000e+00
7.307804e-03 5.031485e-05 0.000000e+00
8.466729e-03 4.012371e-04 0.000000e+00
9.168867e-03 9.185153e-04 0.000000e+00
9.381291e-03 1.570230e-03 0.000000e+00
9.129263e-03 2.261504e-03 0.000000e+00
8.513803e-03 2.874879e-03 0.000000e+00
7.714654e-03 3.283617e-03 0.000000e+00
7.025707e-03 3.446892e-03 0.000000e+00
0.000000e+00 0.000000e+00 0.000000e+00
3.009328e-03 -4.426460e-05 0.000000e+00
4.840583e-03 9.305485e-05 0.000000e+00
6.205355e-03 3.773244e-04 0.000000e+00
7.183400e-03 8.136395e-04 0.000000e+00
7.759685e-03 1.382015e-03 0.000000e+00
7.948737e-03 2.028397e-03 0.000000e+00
7.818537e-03 2.674330e-03 0.000000e+00
7.465865e-03 3.233591e-03 0.000000e+00
7.043489e-03 3.626331e-03 0.000000e+00
6.746629e-03 3.839379e-03 0.000000e+00
0.000000e+00 0.000000e+00 0.000000e+00
2.413599e-03 1.531064e-06 0.000000e+00
3.967184e-03 1.949926e-04 0.000000e+00
5.136069e-03 5.252526e-04 0.000000e+00
5.957884e-03 9.872941e-04 0.000000e+00
6.448183e-03 1.545956e-03 0.000000e+00
6.654145e-03 2.151529e-03 0.000000e+00
6.640644e-03 2.744521e-03 0.000000e+00
6.491342e-03 3.259804e-03 0.000000e+00
6.330092e-03 3.651170e-03 0.000000e+00
6.282181e-03 3.918231e-03 0.000000e+00
0.000000e+00 0.000000e+00 0.000000e+00
1.860603e-03 1.340920e-05 0.000000e+00
3.151805e-03 2.140836e-04 0.000000e+00
4.133198e-03 5.456700e-04 0.000000e+00
4.824509e-03 9.910701e-04 0.000000e+00
5.258344e-03 1.511336e-03 0.000000e+00
5.486028e-03 2.065294e-03 0.000000e+00
5.560209e-03 2.606624e-03 0.000000e+00
5.554204e-03 3.090341e-03 0.000000e+00
5.559793e-03 3.488674e-03 0.000000e+00
5.660086e-03 3.806619e-03 0.000000e+00
0.000000e+00 0.000000e+00 0.000000e+00
1.379254e-03 5.096747e-06 0.000000e+00
2.416008e-03 1.834735e-04 0.000000e+00
3.222508e-03 4.846831e-04 0.000000e+00
3.800614e-03 8.887243e-04 0.000000e+00
4.187813e-03 1.360028e-03 0.000000e+00
4.422109e-03 1.863145e-03 0.000000e+00
4.550357e-03 2.361618e-03 0.000000e+00
4.632062e-03 2.822462e-03 0.000000e+00
4.732519e-03 3.232316e-03 0.000000e+00
4.906507e-03 3.598638e-03 0.000000e+00
0.000000e+00 0.000000e+00 0.000000e+00
9.817532e-04 -9.302851e-06 0.000000e+00
1.781763e-03 1.268692e-04 0.000000e+00
2.414571e-03 3.825406e-04 0.000000e+00
2.885894e-03 7.367255e-04 0.000000e+00
3.218324e-03 1.160332e-03 0.000000e+00
3.440416e-03 1.618626e-03 0.000000e+00
3.590489e-03 2.080708e-03 0.000000e+00
3.712678e-03 2.525831e-03 0.000000e+00
3.851695e-03 2.948255e-03 0.000000e+00
4.044110e-03 3.358580e-03 0.000000e+00
0.000000e+00 0.000000e+00 0.000000e+00
6.685133e-04 -3.285698e-05 0.000000e+00
1.242781e-03 6.406714e-05 0.000000e+00
1.711917e-03 2.780289e-04 0.000000e+00
2.070206e-03 5.852857e-04 0.000000e+00
2.333286e-03 9.626604e-04 0.000000e+00
2.523213e-03 1.382099e-03 0.000000e+00
2.665796e-03 1.817600e-03 0.000000e+00
2.790430e-03 2.253284e-03 0.000000e+00
2.926493e-03 2.687602e-03 0.000000e+00
3.098238e-03 3.131585e-03 0.000000e+00
0.000000e+00 0.000000e+00 0.000000e+00
4.158428e-04 -5.155019e-05 0.000000e+00
7.821606e-04 1.360725e-05 0.000000e+00
1.092079e-03 1.926489e-04 0.000000e+00
1.336101e-03 4.655132e-04 0.000000e+00
1.517232e-03 8.062252e-04 0.000000e+00
1.653478e-03 1.193852e-03 0.000000e+00
1.763844e-03 1.609750e-03 0.000000e+00
1.863155e-03 2.040336e-03 0.000000e+00
1.968469e-03 2.483912e-03 0.000000e+00
2.094720e-03 2.950463e-03 0.000000e+00
0.000000e+00 0.000000e+00 0.000000e+00
2.007236e-04 -6.255788e-05 0.000000e+00
3.775917e-04 -1.273772e-05 0.000000e+00
5.304441e-04 1.437568e-04 0.000000e+00
6.547095e-04 3.941155e-04 0.000000e+00
7.473222e-04 7.134494e-04 0.000000e+00
8.179350e-04 1.080739e-03 0.000000e+00
8.772256e-04 1.482304e-03 0.000000e+00
9.321918e-04 1.908662e-03 0.000000e+00
9.892880e-04 2.357773e-03 0.000000e+00
1.055367e-03 2.837590e-03 0.000000e+00
0.000000e+00 0.000000e+00 0.000000e+00
0.000000e+00 -5.329775e-05 0.000000e+00
0.000000e+00 -6.711538e-06 0.000000e+00
0.000000e+00 1.421341e-04 0.000000e+00
0.000000e+00 3.838780e-04 0.000000e+00
0.000000e+00 6.946610e-04 0.000000e+00
0.000000e+00 1.054240e-03 0.000000e+00
0.000000e+00 1.448988e-03 0.000000e+00
0.000000e+00 1.871914e-03 0.000000e+00
0.000000e+00 2.320642e-03 0.000000e+00
0.000000e+00 2.803424e-03 0.000000e+00
</DataArray>
<DataArray Name="shear" type="Float64" NumberOfComponents="1" format="ascii">
1.614851e-02
2.326118e-02
3.731895e-02
5.330262e-02
6.532575e-02
7.054661e-02
6.986585e-02
6.031795e-02
4.180620e-02
2.505121e-02
1.964336e-02
1.735422e-02
2.433216e-02
3.645473e-02
4.819844e-02
5.806825e-02
6.488452e-02
6.781493e-02
6.537078e-02
5.663635e-02
4.116369e-02
2.879608e-02
2.046701e-02
2.599296e-02
3.412270e-02
4.081646e-02
4.851403e-02
5.848292e-02
6.993525e-02
8.185022e-02
9.278922e-02
9.680732e-02
9.567016e-02
2.259659e-02
2.433171e-02
2.651281e-02
2.918453e-02
3.326348e-02
3.918660e-02
4.729384e-02
5.722173e-02
6.887104e-02
8.032218e-02
8.901136e-02
2.323991e-02
2.154210e-02
1.873519e-02
1.781479e-02
1.770849e-02
1.769223e-02
1.737039e-02
1.616525e-02
1.295151e-02
6.653060e-03
8.466801e-04
2.275895e-02
1.974267e-02
1.567967e-02
1.460081e-02
1.416690e-02
1.383738e-02
1.332963e-02
1.215492e-02
9.530297e-03
4.787720e-03
1.237615e-03
2.085770e-02
1.745695e-02
1.322810e-02
1.229770e-02
1.199113e-02
1.181860e-02
1.145015e-02
1.045864e-02
8.233539e-03
4.516341e-03
1.773367e-03
1.816655e-02
1.505916e-02
1.141015e-02
1.074721e-02
1.062179e-02
1.057483e-02
1.028334e-02
9.347533e-03
7.439346e-03
4.525520e-03
2.460665e-03
1.517399e-02
1.271887e-02
9.988762e-03
9.542978e-03
9.543620e-03
9.572113e-03
9.306005e-03
8.470975e-03
6.919717e-03
4.718449e-03
3.259518e-03
1.218454e-02
1.046319e-02
8.660362e-03
8.442816e-03
8.554959e-03
8.638592e-03
8.431883e-03
7.772593e-03
6.597048e-03
5.037185e-03
4.071757e-03
9.406942e-03
8.345965e-03
7.363192e-03
7.378888e-03
7.607839e-03
7.763909e-03
7.669485e-03
7.223715e-03
6.415494e-03
5.406340e-03
4.825148e-03
6.985399e-03
6.431951e-03
6.086261e-03
6.340858e-03
6.715971e-03
6.986434e-03
7.032833e-03
6.800820e-03
6.329800e-03
5.780361e-03
5.497400e-03
4.975598e-03
4.752515e-03
4.862508e-03
5.364439e-03
5.913268e-03
6.324982e-03
6.513631e-03
6.481020e-03
6.303709e-03
6.123379e-03
6.067864e-03
3.373028e-03
3.333661e-03
3.793856e-03
4.528554e-03
5.227384e-03
5.769946e-03
6.103925e-03
6.253615e-03
6.311003e-03
6.399100e-03
6.501238e-03
2.091401e-03
2.181151e-03
2.943123e-03
3.892321e-03
4.713750e-03
5.347073e-03
5.797367e-03
6.098181e-03
6.328545e-03
6.593275e-03
6.793894e-03
1.014702e-03
1.297012e-03
2.377992e-03
3.482646e-03
4.399074e-03
5.088709e-03
5.600156e-03
5.994743e-03
6.335964e-03
6.704763e-03
6.959375e-03
3.486896e-04
9.207648e-04
2.179807e-03
3.336062e-03
4.287281e-03
4.998851e-03
5.529516e-03
5.953916e-03
6.333442e-03
6.737261e-03
7.009274e-03
</DataArray>
<DataArray Name="stress" type="Float64" NumberOfComponents="9" format="ascii">
-1.143233e+05 5.154532e+03 0.000000e+00 5.154532e+03 -1.930055e+05 0.000000e+00 0.000000e+00 0.000000e+00 0.000000e+00
-1.009253e+05 4.062418e+03 0.000000e+00 4.062418e+03 -1.922907e+05 0.000000e+00 0.000000e+00 0.000000e+00 0.000000e+00
-9.543614e+04 3.035450e+03 0.000000e+00 3.035450e+03 -2.019726e+05 0.000000e+00 0.000000e+00 0.000000e+00 0.000000e+00
-1.046625e+05 2.487735e+03 0.000000e+00 2.487735e+03 -2.046634e+05 0.000000e+00 0.000000e+00 0.000000e+00 0.000000e+00
-1.119560e+05 4.553644e+03 0.000000e+00 4.553644e+03 -2.118156e+05 0.000000e+00 0.000000e+00 0.000000e+00 0.000000e+00
-1.160941e+05 7.534961e+03 0.000000e+00 7.534961e+03 -2.223846e+05 0.000000e+00 0.000000e+00 0.000000e+00 0.000000e+00
-1.237825e+05 1.040315e+04 0.000000e+00 1.040315e+04 -2.351967e+05 0.000000e+00 0.000000e+00 0.000000e+00 0.000000e+00
-1.303676e+05 9.791795e+03 0.000000e+00 9.791795e+03 -2.466517e+05 0.000000e+00 0.000000e+00 0.000000e+00 0.000000e+00
-1.285707e+05 4.919749e+03 0.000000e+00 4.919749e+03 -2.626522e+05 0.000000e+00 0.000000e+00 0.000000e+00 0.000000e+00
-1.431090e+05 -1.061704e+03 0.000000e+00 -1.061704e+03 -2.650059e+05 0.000000e+00 0.000000e+00 0.000000e+00 0.000000e+00
-1.502351e+05 -1.086329e+03 0.000000e+00 -1.086329e+03 -2.585132e+05 0.000000e+00 0.000000e+00 0.000000e+00 0.000000e+00
-1.140057e+05 1.503077e+04 0.000000e+00 1.503077e+04 -1.859903e+05 0.000000e+00 0.000000e+00 0.000000e+00 0.000000e+00
-1.006196e+05 1.266407e+04 0.000000e+00 1.266407e+04 -1.835351e+05 0.000000e+00 0.000000e+00 0.000000e+00 0.000000e+00
-9.594498e+04 1.112000e+04 0.000000e+00 1.112000e+04 -1.930280e+05 0.000000e+00 0.000000e+00 0.000000e+00 0.000000e+00
-1.030816e+05 1.125290e+04 0.000000e+00 1.125290e+04 -2.030617e+05 0.000000e+00 0.000000e+00 0.000000e+00 0.000000e+00
-1.108533e+05 1.221022e+04 0.000000e+00 1.221022e+04 -2.155701e+05 0.000000e+00 0.000000e+00 0.000000e+00 0.000000e+00
-1.167973e+05 1.388369e+04 0.000000e+00 1.388369e+04 -2.263464e+05 0.000000e+00 0.000000e+00 0.000000e+00 0.000000e+00
-1.224905e+05 1.468667e+04 0.000000e+00 1.468667e+04 -2.361991e+05 0.000000e+00 0.000000e+00 0.000000e+00 0.000000e+00
-1.295080e+05 1.180547e+04 0.000000e+00 1.180547e+04 -2.429191e+05 0.000000e+00 0.000000e+00 0.000000e+00 0.000000e+00
-1.315877e+05 6.880374e+03 0.000000e+00 6.880374e+03 -2.567251e+05 0.000000e+00 0.000000e+00 0.000000e+00 0.000000e+00
-1.373625e+05 -3.676263e+02 0.000000e+00 -3.676263e+02 -2.602405e+05 0.000000e+00 0.000000e+00 0.000000e+00 0.000000e+00
-1.546940e+05 -6.754155e+03 0.000000e+00 -6.754155e+03 -2.856358e+05 0.000000e+00 0.000000e+00 0.000000e+00 0.000000e+00
-1.106571e+05 2.580276e+04 0.000000e+00 2.580276e+04 -1.626743e+05 0.000000e+00 0.000000e+00 0.000000e+00 0.000000e+00
-9.919477e+04 2.274842e+04 0.000000e+00 2.274842e+04 -1.577662e+05 0.000000e+00 0.000000e+00 0.000000e+00 0.000000e+00
-9.795434e+04 2.250242e+04 0.000000e+00 2.250242e+04 -1.648932e+05 0.000000e+00 0.000000e+00 0.000000e+00 0.000000e+00
-1.048345e+05 2.528415e+04 0.000000e+00 2.528415e+04 -1.756942e+05 0.000000e+00 0.000000e+00 0.000000e+00 0.000000e+00
-1.130928e+05 2.745536e+04 0.000000e+00 2.745536e+04 -1.861388e+05 0.000000e+00 0.000000e+00 0.000000e+00 0.000000e+00
-1.214010e+05 2.976906e+04 0.000000e+00 2.976906e+04 -1.967235e+05 0.000000e+00 0.000000e+00 0.000000e+00 0.000000e+00
-1.309473e+05 3.107239e+04 0.000000e+00 3.107239e+04 -2.093499e+05 0.000000e+00 0.000000e+00 0.000000e+00 0.000000e+00
-1.447373e+05 3.261113e+04 0.000000e+00 3.261113e+04 -2.230301e+05 0.000000e+00 0.000000e+00 0.000000e+00 0.000000e+00
-1.537121e+05 3.148204e+04 0.000000e+00 3.148204e+04 -2.394777e+05 0.000000e+00 0.000000e+00 0.000000e+00 0.000000e+00
-1.609950e+05 2.457219e+04 0.000000e+00 2.457219e+04 -2.569999e+05 0.000000e+00 0.000000e+00 0.000000e+00 0.000000e+00
-1.774263e+05 7.824909e+03 0.000000e+00 7.824909e+03 -2.969549e+05 0.000000e+00 0.000000e+00 0.000000e+00 0.000000e+00
-1.013555e+05 2.757097e+04 0.000000e+00 2.757097e+04 -1.296124e+05 0.000000e+00 0.000000e+00 0.000000e+00 0.000000e+00
-9.378876e+04 2.557496e+04 0.000000e+00 2.557496e+04 -1.252091e+05 0.000000e+00 0.000000e+00 0.000000e+00 0.000000e+00
-9.496006e+04 2.620970e+04 0.000000e+00 2.620970e+04 -1.262590e+05 0.000000e+00 0.000000e+00 0.000000e+00 0.000000e+00
-1.012080e+05 2.831188e+04 0.000000e+00 2.831188e+04 -1.265436e+05 0.000000e+00 0.000000e+00 0.000000e+00 0.000000e+00
-1.068878e+05 2.934337e+04 0.000000e+00 2.934337e+04 -1.243986e+05 0.000000e+00 0.000000e+00 0.000000e+00 0.000000e+00
-1.107949e+05 3.044162e+04 0.000000e+00 3.044162e+04 -1.216998e+05 0.000000e+00 0.000000e+00 0.000000e+00 0.000000e+00
-1.126258e+05 2.983737e+04 0.000000e+00 2.983737e+04 -1.163284e+05 0.000000e+00 0.000000e+00 0.000000e+00 0.000000e+00
-1.119684e+05 2.769367e+04 0.000000e+00 2.769367e+04 -1.078570e+05 0.000000e+00 0.000000e+00 0.000000e+00 0.000000e+00
-1.065246e+05 2.325770e+04 0.000000e+00 2.325770e+04 -9.732937e+04 0.000000e+00 0.000000e+00 0.000000e+00 0.000000e+00
-8.679249e+04 1.473061e+04 0.000000e+00 1.473061e+04 -7.980480e+04 0.000000e+00 0.000000e+00 0.000000e+00 0.000000e+00
-6.357193e+04 9.223721e+03 0.000000e+00 9.223721e+03 -6.711272e+04 0.000000e+00 0.000000e+00 0.000000e+00 0.000000e+00
-9.726116e+04 2.704055e+04 0.000000e+00 2.704055e+04 -1.122174e+05 0.000000e+00 0.000000e+00 0.000000e+00 0.000000e+00
-9.419300e+04 2.612875e+04 0.000000e+00 2.612875e+04 -1.103728e+05 0.000000e+00 0.000000e+00 0.000000e+00 0.000000e+00
-9.850259e+04 2.660807e+04 0.000000e+00 2.660807e+04 -1.107834e+05 0.000000e+00 0.000000e+00 0.000000e+00 0.000000e+00
-1.057166e+05 2.741375e+04 0.000000e+00 2.741375e+04 -1.090627e+05 0.000000e+00 0.000000e+00 0.000000e+00 0.000000e+00
-1.121155e+05 2.750909e+04 0.000000e+00 2.750909e+04 -1.056702e+05 0.000000e+00 0.000000e+00 0.000000e+00 0.000000e+00
-1.167404e+05 2.671440e+04 0.000000e+00 2.671440e+04 -1.006501e+05 0.000000e+00 0.000000e+00 0.000000e+00 0.000000e+00
-1.197479e+05 2.467345e+04 0.000000e+00 2.467345e+04 -9.408702e+04 0.000000e+00 0.000000e+00 0.000000e+00 0.000000e+00
-1.204757e+05 2.059318e+04 0.000000e+00 2.059318e+04 -8.621774e+04 0.000000e+00 0.000000e+00 0.000000e+00 0.000000e+00
-1.151469e+05 1.382098e+04 0.000000e+00 1.382098e+04 -7.702468e+04 0.000000e+00 0.000000e+00 0.000000e+00 0.000000e+00
-9.508540e+04 4.947242e+03 0.000000e+00 4.947242e+03 -6.873248e+04 0.000000e+00 0.000000e+00 0.000000e+00 0.000000e+00
-6.102402e+04 2.013264e+02 0.000000e+00 2.013264e+02 -5.704600e+04 0.000000e+00 0.000000e+00 0.000000e+00 0.000000e+00
-9.130117e+04 2.551449e+04 0.000000e+00 2.551449e+04 -9.865615e+04 0.000000e+00 0.000000e+00 0.000000e+00 0.000000e+00
-9.298691e+04 2.525883e+04 0.000000e+00 2.525883e+04 -9.844150e+04 0.000000e+00 0.000000e+00 0.000000e+00 0.000000e+00
-9.896062e+04 2.474580e+04 0.000000e+00 2.474580e+04 -9.695593e+04 0.000000e+00 0.000000e+00 0.000000e+00 0.000000e+00
-1.059923e+05 2.412502e+04 0.000000e+00 2.412502e+04 -9.377073e+04 0.000000e+00 0.000000e+00 0.000000e+00 0.000000e+00
-1.114759e+05 2.281153e+04 0.000000e+00 2.281153e+04 -8.979757e+04 0.000000e+00 0.000000e+00 0.000000e+00 0.000000e+00
-1.149700e+05 2.057774e+04 0.000000e+00 2.057774e+04 -8.493648e+04 0.000000e+00 0.000000e+00 0.000000e+00 0.000000e+00
-1.161788e+05 1.703143e+04 0.000000e+00 1.703143e+04 -7.909606e+04 0.000000e+00 0.000000e+00 0.000000e+00 0.000000e+00
-1.144213e+05 1.179027e+04 0.000000e+00 1.179027e+04 -7.282230e+04 0.000000e+00 0.000000e+00 0.000000e+00 0.000000e+00
-1.067264e+05 4.928062e+03 0.000000e+00 4.928062e+03 -6.692448e+04 0.000000e+00 0.000000e+00 0.000000e+00 0.000000e+00
-8.668873e+04 -1.185524e+03 0.000000e+00 -1.185524e+03 -6.235438e+04 0.000000e+00 0.000000e+00 0.000000e+00 0.000000e+00
-6.051487e+04 -2.955269e+03 0.000000e+00 -2.955269e+03 -5.655300e+04 0.000000e+00 0.000000e+00 0.000000e+00 0.000000e+00
-8.493235e+04 2.370528e+04 0.000000e+00 2.370528e+04 -8.763491e+04 0.000000e+00 0.000000e+00 0.000000e+00 0.000000e+00
-9.130255e+04 2.351055e+04 0.000000e+00 2.351055e+04 -8.861527e+04 0.000000e+00 0.000000e+00 0.000000e+00 0.000000e+00
-9.832680e+04 2.189494e+04 0.000000e+00 2.189494e+04 -8.607759e+04 0.000000e+00 0.000000e+00 0.000000e+00 0.000000e+00
-1.047640e+05 2.041010e+04 0.000000e+00 2.041010e+04 -8.307142e+04 0.000000e+00 0.000000e+00 0.000000e+00 0.000000e+00
-1.091397e+05 1.813216e+04 0.000000e+00 1.813216e+04 -7.922337e+04 0.000000e+00 0.000000e+00 0.000000e+00 0.000000e+00
-1.114881e+05 1.493549e+04 0.000000e+00 1.493549e+04 -7.489300e+04 0.000000e+00 0.000000e+00 0.000000e+00 0.000000e+00
-1.113228e+05 1.079919e+04 0.000000e+00 1.079919e+04 -7.033291e+04 0.000000e+00 0.000000e+00 0.000000e+00 0.000000e+00
-1.080142e+05 5.647910e+03 0.000000e+00 5.647910e+03 -6.597927e+04 0.000000e+00 0.000000e+00 0.000000e+00 0.000000e+00
-9.963175e+04 9.734760e+01 0.000000e+00 9.734760e+01 -6.241512e+04 0.000000e+00 0.000000e+00 0.000000e+00 0.000000e+00
-8.377896e+04 -3.054745e+03 0.000000e+00 -3.054745e+03 -6.027174e+04 0.000000e+00 0.000000e+00 0.000000e+00 0.000000e+00
-6.663774e+04 -3.256083e+03 0.000000e+00 -3.256083e+03 -5.737507e+04 0.000000e+00 0.000000e+00 0.000000e+00 0.000000e+00
-7.984048e+04 2.174361e+04 0.000000e+00 2.174361e+04 -7.933056e+04 0.000000e+00 0.000000e+00 0.000000e+00 0.000000e+00
-8.890896e+04 2.134293e+04 0.000000e+00 2.134293e+04 -8.080776e+04 0.000000e+00 0.000000e+00 0.000000e+00 0.000000e+00
-9.666797e+04 1.906558e+04 0.000000e+00 1.906558e+04 -7.816834e+04 0.000000e+00 0.000000e+00 0.000000e+00 0.000000e+00
-1.023519e+05 1.676368e+04 0.000000e+00 1.676368e+04 -7.524535e+04 0.000000e+00 0.000000e+00 0.000000e+00 0.000000e+00
-1.059205e+05 1.387887e+04 0.000000e+00 1.387887e+04 -7.195117e+04 0.000000e+00 0.000000e+00 0.000000e+00 0.000000e+00
-1.074015e+05 1.041555e+04 0.000000e+00 1.041555e+04 -6.858826e+04 0.000000e+00 0.000000e+00 0.000000e+00 0.000000e+00
-1.064066e+05 6.304852e+03 0.000000e+00 6.304852e+03 -6.524964e+04 0.000000e+00 0.000000e+00 0.000000e+00 0.000000e+00
-1.024316e+05 1.789582e+03 0.000000e+00 1.789582e+03 -6.230611e+04 0.000000e+00 0.000000e+00 0.000000e+00 0.000000e+00
-9.494313e+04 -2.095934e+03 0.000000e+00 -2.095934e+03 -6.038547e+04 0.000000e+00 0.000000e+00 0.000000e+00 0.000000e+00
-8.369203e+04 -3.317432e+03 0.000000e+00 -3.317432e+03 -5.962290e+04 0.000000e+00 0.000000e+00 0.000000e+00 0.000000e+00
-7.293030e+04 -2.775392e+03 0.000000e+00 -2.775392e+03 -5.800401e+04 0.000000e+00 0.000000e+00 0.000000e+00 0.000000e+00
-7.614326e+04 1.970643e+04 0.000000e+00 1.970643e+04 -7.330246e+04 0.000000e+00 0.000000e+00 0.000000e+00 0.000000e+00
-8.606580e+04 1.911991e+04 0.000000e+00 1.911991e+04 -7.492625e+04 0.000000e+00 0.000000e+00 0.000000e+00 0.000000e+00
-9.417359e+04 1.633498e+04 0.000000e+00 1.633498e+04 -7.231687e+04 0.000000e+00 0.000000e+00 0.000000e+00 0.000000e+00
-9.940435e+04 1.357153e+04 0.000000e+00 1.357153e+04 -6.972942e+04 0.000000e+00 0.000000e+00 0.000000e+00 0.000000e+00
-1.024080e+05 1.051582e+04 0.000000e+00 1.051582e+04 -6.715127e+04 0.000000e+00 0.000000e+00 0.000000e+00 0.000000e+00
-1.033165e+05 7.033511e+03 0.000000e+00 7.033511e+03 -6.458581e+04 0.000000e+00 0.000000e+00 0.000000e+00 0.000000e+00
-1.018948e+05 3.227919e+03 0.000000e+00 3.227919e+03 -6.221016e+04 0.000000e+00 0.000000e+00 0.000000e+00 0.000000e+00
-9.811030e+04 -3.752652e+02 0.000000e+00 -3.752652e+02 -6.041986e+04 0.000000e+00 0.000000e+00 0.000000e+00 0.000000e+00
-9.230156e+04 -2.865463e+03 0.000000e+00 -2.865463e+03 -5.957349e+04 0.000000e+00 0.000000e+00 0.000000e+00 0.000000e+00
-8.485602e+04 -3.005895e+03 0.000000e+00 -3.005895e+03 -5.948121e+04 0.000000e+00 0.000000e+00 0.000000e+00 0.000000e+00
-7.833416e+04 -2.160804e+03 0.000000e+00 -2.160804e+03 -5.855451e+04 0.000000e+00 0.000000e+00 0.000000e+00 0.000000e+00
-7.286391e+04 1.749668e+04 0.000000e+00 1.749668e+04 -6.904495e+04 0.000000e+00 0.000000e+00 0.000000e+00 0.000000e+00
-8.294609e+04 1.686602e+04 0.000000e+00 1.686602e+04 -7.054745e+04 0.000000e+00 0.000000e+00 0.000000e+00 0.000000e+00
-9.122952e+04 1.388244e+04 0.000000e+00 1.388244e+04 -6.810128e+04 0.000000e+00 0.000000e+00 0.000000e+00 0.000000e+00
-9.620566e+04 1.098258e+04 0.000000e+00 1.098258e+04 -6.600951e+04 0.000000e+00 0.000000e+00 0.000000e+00 0.000000e+00
-9.884724e+04 7.893690e+03 0.000000e+00 7.893690e+03 -6.397354e+04 0.000000e+00 0.000000e+00 0.000000e+00 0.000000e+00
-9.944516e+04 4.582745e+03 0.000000e+00 4.582745e+03 -6.206568e+04 0.000000e+00 0.000000e+00 0.000000e+00 0.000000e+00
-9.802999e+04 1.294048e+03 0.000000e+00 1.294048e+03 -6.047634e+04 0.000000e+00 0.000000e+00 0.000000e+00 0.000000e+00
-9.503730e+04 -1.432566e+03 0.000000e+00 -1.432566e+03 -5.952566e+04 0.000000e+00 0.000000e+00 0.000000e+00 0.000000e+00
-9.102730e+04 -2.917206e+03 0.000000e+00 -2.917206e+03 -5.928273e+04 0.000000e+00 0.000000e+00 0.000000e+00 0.000000e+00
-8.644642e+04 -2.529526e+03 0.000000e+00 -2.529526e+03 -5.949333e+04 0.000000e+00 0.000000e+00 0.000000e+00 0.000000e+00
-8.266004e+04 -1.623846e+03 0.000000e+00 -1.623846e+03 -5.903081e+04 0.000000e+00 0.000000e+00 0.000000e+00 0.000000e+00
-6.998228e+04 1.540242e+04 0.000000e+00 1.540242e+04 -6.622977e+04 0.000000e+00 0.000000e+00 0.000000e+00 0.000000e+00
-7.984470e+04 1.470122e+04 0.000000e+00 1.470122e+04 -6.748045e+04 0.000000e+00 0.000000e+00 0.000000e+00 0.000000e+00
-8.814860e+04 1.175082e+04 0.000000e+00 1.175082e+04 -6.526382e+04 0.000000e+00 0.000000e+00 0.000000e+00 0.000000e+00
-9.295752e+04 8.889027e+03 0.000000e+00 8.889027e+03 -6.350330e+04 0.000000e+00 0.000000e+00 0.000000e+00 0.000000e+00
-9.539566e+04 5.914614e+03 0.000000e+00 5.914614e+03 -6.189358e+04 0.000000e+00 0.000000e+00 0.000000e+00 0.000000e+00
-9.594254e+04 2.903531e+03 0.000000e+00 2.903531e+03 -6.051579e+04 0.000000e+00 0.000000e+00 0.000000e+00 0.000000e+00
-9.494585e+04 1.868097e+02 0.000000e+00 1.868097e+02 -5.954551e+04 0.000000e+00 0.000000e+00 0.000000e+00 0.000000e+00
-9.296588e+04 -1.789546e+03 0.000000e+00 -1.789546e+03 -5.913082e+04 0.000000e+00 0.000000e+00 0.000000e+00 0.000000e+00
-9.055050e+04 -2.623332e+03 0.000000e+00 -2.623332e+03 -5.920933e+04 0.000000e+00 0.000000e+00 0.000000e+00 0.000000e+00
-8.804727e+04 -2.037038e+03 0.000000e+00 -2.037038e+03 -5.956476e+04 0.000000e+00 0.000000e+00 0.000000e+00 0.000000e+00
-8.612484e+04 -1.206861e+03 0.000000e+00 -1.206861e+03 -5.940384e+04 0.000000e+00 0.000000e+00 0.000000e+00 0.000000e+00
-6.780700e+04 1.321680e+04 0.000000e+00 1.321680e+04 -6.463788e+04 0.000000e+00 0.000000e+00 0.000000e+00 0.000000e+00
-7.696340e+04 1.252344e+04 0.000000e+00 1.252344e+04 -6.544977e+04 0.000000e+00 0.000000e+00 0.000000e+00 0.000000e+00
-8.511207e+04 9.851451e+03 0.000000e+00 9.851451e+03 -6.343429e+04 0.000000e+00 0.000000e+00 0.000000e+00 0.000000e+00
-8.984467e+04 7.158175e+03 0.000000e+00 7.158175e+03 -6.193636e+04 0.000000e+00 0.000000e+00 0.000000e+00 0.000000e+00
-9.221708e+04 4.419279e+03 0.000000e+00 4.419279e+03 -6.061610e+04 0.000000e+00 0.000000e+00 0.000000e+00 0.000000e+00
-9.294124e+04 1.810194e+03 0.000000e+00 1.810194e+03 -5.962805e+04 0.000000e+00 0.000000e+00 0.000000e+00 0.000000e+00
-9.256597e+04 -3.547572e+02 0.000000e+00 -3.547572e+02 -5.908965e+04 0.000000e+00 0.000000e+00 0.000000e+00 0.000000e+00
-9.160777e+04 -1.758150e+03 0.000000e+00 -1.758150e+03 -5.900590e+04 0.000000e+00 0.000000e+00 0.000000e+00 0.000000e+00
-9.048609e+04 -2.195028e+03 0.000000e+00 -2.195028e+03 -5.925634e+04 0.000000e+00 0.000000e+00 0.000000e+00 0.000000e+00
-8.946530e+04 -1.574039e+03 0.000000e+00 -1.574039e+03 -5.962751e+04 0.000000e+00 0.000000e+00 0.000000e+00 0.000000e+00
-8.880963e+04 -8.623160e+02 0.000000e+00 -8.623160e+02 -5.967895e+04 0.000000e+00 0.000000e+00 0.000000e+00 0.000000e+00
-6.657929e+04 1.103625e+04 0.000000e+00 1.103625e+04 -6.398315e+04 0.000000e+00 0.000000e+00 0.000000e+00 0.000000e+00
-7.463179e+04 1.033233e+04 0.000000e+00 1.033233e+04 -6.430954e+04 0.000000e+00 0.000000e+00 0.000000e+00 0.000000e+00
-8.237213e+04 8.086747e+03 0.000000e+00 8.086747e+03 -6.242768e+04 0.000000e+00 0.000000e+00 0.000000e+00 0.000000e+00
-8.698215e+04 5.667554e+03 0.000000e+00 5.667554e+03 -6.100030e+04 0.000000e+00 0.000000e+00 0.000000e+00 0.000000e+00
-8.941098e+04 3.256585e+03 0.000000e+00 3.256585e+03 -5.987957e+04 0.000000e+00 0.000000e+00 0.000000e+00 0.000000e+00
-9.048035e+04 1.114100e+03 0.000000e+00 1.114100e+03 -5.917654e+04 0.000000e+00 0.000000e+00 0.000000e+00 0.000000e+00
-9.079198e+04 -5.279872e+02 0.000000e+00 -5.279872e+02 -5.889560e+04 0.000000e+00 0.000000e+00 0.000000e+00 0.000000e+00
-9.074540e+04 -1.509636e+03 0.000000e+00 -1.509636e+03 -5.899742e+04 0.000000e+00 0.000000e+00 0.000000e+00 0.000000e+00
-9.062677e+04 -1.730918e+03 0.000000e+00 -1.730918e+03 -5.933823e+04 0.000000e+00 0.000000e+00 0.000000e+00 0.000000e+00
-9.063816e+04 -1.174512e+03 0.000000e+00 -1.174512e+03 -5.969929e+04 0.000000e+00 0.000000e+00 0.000000e+00 0.000000e+00
-9.080588e+04 -6.033424e+02 0.000000e+00 -6.033424e+02 -5.991189e+04 0.000000e+00 0.000000e+00 0.000000e+00 0.000000e+00
-6.572818e+04 8.606759e+03 0.000000e+00 8.606759e+03 -6.412663e+04 0.000000e+00 0.000000e+00 0.000000e+00 0.000000e+00
-7.272237e+04 7.998610e+03 0.000000e+00 7.998610e+03 -6.395489e+04 0.000000e+00 0.000000e+00 0.000000e+00 0.000000e+00
-7.997585e+04 6.236067e+03 0.000000e+00 6.236067e+03 -6.202171e+04 0.000000e+00 0.000000e+00 0.000000e+00 0.000000e+00
-8.447285e+04 4.234469e+03 0.000000e+00 4.234469e+03 -6.053331e+04 0.000000e+00 0.000000e+00 0.000000e+00 0.000000e+00
-8.712211e+04 2.310650e+03 0.000000e+00 2.310650e+03 -5.947994e+04 0.000000e+00 0.000000e+00 0.000000e+00 0.000000e+00
-8.861773e+04 6.840696e+02 0.000000e+00 6.840696e+02 -5.894943e+04 0.000000e+00 0.000000e+00 0.000000e+00 0.000000e+00
-8.952137e+04 -4.929055e+02 0.000000e+00 -4.929055e+02 -5.883787e+04 0.000000e+00 0.000000e+00 0.000000e+00 0.000000e+00
-9.017823e+04 -1.153318e+03 0.000000e+00 -1.153318e+03 -5.904025e+04 0.000000e+00 0.000000e+00 0.000000e+00 0.000000e+00
-9.081300e+04 -1.265025e+03 0.000000e+00 -1.265025e+03 -5.940627e+04 0.000000e+00 0.000000e+00 0.000000e+00 0.000000e+00
-9.155130e+04 -8.326150e+02 0.000000e+00 -8.326150e+02 -5.974464e+04 0.000000e+00 0.000000e+00 0.000000e+00 0.000000e+00
-9.228422e+04 -4.109050e+02 0.000000e+00 -4.109050e+02 -6.005189e+04 0.000000e+00 0.000000e+00 0.000000e+00 0.000000e+00
-6.516164e+04 5.893164e+03 0.000000e+00 5.893164e+03 -6.447883e+04 0.000000e+00 0.000000e+00 0.000000e+00 0.000000e+00
-7.131936e+04 5.460675e+03 0.000000e+00 5.460675e+03 -6.400367e+04 0.000000e+00 0.000000e+00 0.000000e+00 0.000000e+00
-7.813257e+04 4.223931e+03 0.000000e+00 4.223931e+03 -6.189797e+04 0.000000e+00 0.000000e+00 0.000000e+00 0.000000e+00
-8.253976e+04 2.798957e+03 0.000000e+00 2.798957e+03 -6.035852e+04 0.000000e+00 0.000000e+00 0.000000e+00 0.000000e+00
-8.541759e+04 1.475844e+03 0.000000e+00 1.475844e+03 -5.934721e+04 0.000000e+00 0.000000e+00 0.000000e+00 0.000000e+00
-8.732956e+04 3.998746e+02 0.000000e+00 3.998746e+02 -5.889254e+04 0.000000e+00 0.000000e+00 0.000000e+00 0.000000e+00
-8.868618e+04 -3.530406e+02 0.000000e+00 -3.530406e+02 -5.886098e+04 0.000000e+00 0.000000e+00 0.000000e+00 0.000000e+00
-8.982231e+04 -7.589064e+02 0.000000e+00 -7.589064e+02 -5.910105e+04 0.000000e+00 0.000000e+00 0.000000e+00 0.000000e+00
-9.096493e+04 -8.171027e+02 0.000000e+00 -8.171027e+02 -5.946214e+04 0.000000e+00 0.000000e+00 0.000000e+00 0.000000e+00
-9.219688e+04 -5.267711e+02 0.000000e+00 -5.267711e+02 -5.977426e+04 0.000000e+00 0.000000e+00 0.000000e+00 0.000000e+00
-9.329745e+04 -2.462518e+02 0.000000e+00 -2.462518e+02 -6.014273e+04 0.000000e+00 0.000000e+00 0.000000e+00 0.000000e+00
-6.483004e+04 2.918484e+03 0.000000e+00 2.918484e+03 -6.463398e+04 0.000000e+00 0.000000e+00 0.000000e+00 0.000000e+00
-7.048209e+04 2.704323e+03 0.000000e+00 2.704323e+03 -6.401919e+04 0.000000e+00 0.000000e+00 0.000000e+00 0.000000e+00
-7.696178e+04 2.102519e+03 0.000000e+00 2.102519e+03 -6.182471e+04 0.000000e+00 0.000000e+00 0.000000e+00 0.000000e+00
-8.135025e+04 1.382233e+03 0.000000e+00 1.382233e+03 -6.030174e+04 0.000000e+00 0.000000e+00 0.000000e+00 0.000000e+00
-8.437842e+04 7.183157e+02 0.000000e+00 7.183157e+02 -5.936220e+04 0.000000e+00 0.000000e+00 0.000000e+00 0.000000e+00
-8.656248e+04 1.858707e+02 0.000000e+00 1.858707e+02 -5.893846e+04 0.000000e+00 0.000000e+00 0.000000e+00 0.000000e+00
-8.821288e+04 -1.803721e+02 0.000000e+00 -1.803721e+02 -5.892450e+04 0.000000e+00 0.000000e+00 0.000000e+00 0.000000e+00
-8.963342e+04 -3.727328e+02 0.000000e+00 -3.727328e+02 -5.916869e+04 0.000000e+00 0.000000e+00 0.000000e+00 0.000000e+00
-9.106521e+04 -3.965061e+02 0.000000e+00 -3.965061e+02 -5.951518e+04 0.000000e+00 0.000000e+00 0.000000e+00 0.000000e+00
-9.257605e+04 -2.488353e+02 0.000000e+00 -2.488353e+02 -5.980336e+04 0.000000e+00 0.000000e+00 0.000000e+00 0.000000e+00
-9.385841e+04 -1.069700e+02 0.000000e+00 -1.069700e+02 -6.019647e+04 0.000000e+00 0.000000e+00 0.000000e+00 0.000000e+00
-6.461101e+04 7.532399e+02 0.000000e+00 7.532399e+02 -6.439952e+04 0.000000e+00 0.000000e+00 0.000000e+00 0.000000e+00
-7.015915e+04 7.603887e+02 0.000000e+00 7.603887e+02 -6.386112e+04 0.000000e+00 0.000000e+00 0.000000e+00 0.000000e+00
-7.656177e+04 6.021917e+02 0.000000e+00 6.021917e+02 -6.178528e+04 0.000000e+00 0.000000e+00 0.000000e+00 0.000000e+00
-8.096383e+04 3.427580e+02 0.000000e+00 3.427580e+02 -6.029014e+04 0.000000e+00 0.000000e+00 0.000000e+00 0.000000e+00
-8.404170e+04 9.522912e+01 0.000000e+00 9.522912e+01 -5.938865e+04 0.000000e+00 0.000000e+00 0.000000e+00 0.000000e+00
-8.631443e+04 -1.029862e+02 0.000000e+00 -1.029862e+02 -5.898020e+04 0.000000e+00 0.000000e+00 0.000000e+00 0.000000e+00
-8.806920e+04 -2.420399e+02 0.000000e+00 -2.420399e+02 -5.897421e+04 0.000000e+00 0.000000e+00 0.000000e+00 0.000000e+00
-8.958408e+04 -3.141328e+02 0.000000e+00 -3.141328e+02 -5.922060e+04 0.000000e+00 0.000000e+00 0.000000e+00 0.000000e+00
-9.111773e+04 -3.196076e+02 0.000000e+00 -3.196076e+02 -5.956156e+04 0.000000e+00 0.000000e+00 0.000000e+00 0.000000e+00
-9.271168e+04 -2.524281e+02 0.000000e+00 -2.524281e+02 -5.983558e+04 0.000000e+00 0.000000e+00 0.000000e+00 0.000000e+00
-9.403716e+04 -1.864963e+02 0.000000e+00 -1.864963e+02 -6.022085e+04 0.000000e+00 0.000000e+00 0.000000e+00 0.000000e+00
</DataArray>
<DataArray Name="vol_eps" type="Float64" NumberOfComponents="1" format="ascii">
-1.190165e-02
-1.031327e-02
-8.779538e-03
-7.674792e-03
-7.541406e-03
-7.987150e-03
-9.493670e-03
-1.169933e-02
-1.478214e-02
-1.775430e-02
-1.820161e-02
-1.137077e-02
-9.649156e-03
-8.448400e-03
-8.080685e-03
-8.373450e-03
-8.739477e-03
-9.393155e-03
-1.063299e-02
-1.270429e-02
-1.507103e-02
-1.932040e-02
-9.474335e-03
-7.738703e-03
-7.103587e-03
-7.404122e-03
-7.784588e-03
-8.093620e-03
-8.531380e-03
-9.178891e-03
-9.588175e-03
-1.058913e-02
-1.435766e-02
-6.456770e-03
-5.344851e-03
-5.201973e-03
-5.348885e-03
-5.283687e-03
-4.722043e-03
-3.677289e-03
-1.938490e-03
7.271938e-04
4.517391e-03
8.499748e-03
-4.891646e-03
-4.650988e-03
-5.226376e-03
-5.691688e-03
-5.922662e-03
-5.905498e-03
-5.674277e-03
-5.247771e-03
-4.440169e-03
-2.750364e-03
2.588935e-04
-3.470544e-03
-3.827207e-03
-4.509918e-03
-4.898350e-03
-5.054616e-03
-4.978071e-03
-4.669817e-03
-4.178527e-03
-3.396456e-03
-1.849981e-03
2.630299e-04
-2.320639e-03
-3.185620e-03
-3.906561e-03
-4.235508e-03
-4.287707e-03
-4.141243e-03
-3.834353e-03
-3.383562e-03
-2.683611e-03
-1.534293e-03
-2.223057e-04
-1.576192e-03
-2.666825e-03
-3.370002e-03
-3.603257e-03
-3.614419e-03
-3.485985e-03
-3.229182e-03
-2.828132e-03
-2.265602e-03
-1.487752e-03
-6.711865e-04
-1.141006e-03
-2.234366e-03
-2.865219e-03
-3.065221e-03
-3.090203e-03
-2.997622e-03
-2.779428e-03
-2.449490e-03
-2.050969e-03
-1.557348e-03
-1.059253e-03
-8.721989e-04
-1.878443e-03
-2.433823e-03
-2.638443e-03
-2.683986e-03
-2.616728e-03
-2.437632e-03
-2.205320e-03
-1.954229e-03
-1.667130e-03
-1.380440e-03
-7.161273e-04
-1.594862e-03
-2.091109e-03
-2.299613e-03
-2.355674e-03
-2.307905e-03
-2.190971e-03
-2.055688e-03
-1.920504e-03
-1.781016e-03
-1.639763e-03
-6.305714e-04
-1.363044e-03
-1.811651e-03
-2.025593e-03
-2.088740e-03
-2.070500e-03
-2.018705e-03
-1.965428e-03
-1.920235e-03
-1.880273e-03
-1.838684e-03
-5.805487e-04
-1.173707e-03
-1.581234e-03
-1.791217e-03
-1.871297e-03
-1.893231e-03
-1.900837e-03
-1.912948e-03
-1.933812e-03
-1.959276e-03
-1.982663e-03
-5.793747e-04
-1.043794e-03
-1.399187e-03
-1.596529e-03
-1.701329e-03
-1.765038e-03
-1.819872e-03
-1.880033e-03
-1.948301e-03
-2.017159e-03
-2.082873e-03
-5.978676e-04
-9.698224e-04
-1.271802e-03
-1.458715e-03
-1.582264e-03
-1.680664e-03
-1.768958e-03
-1.860331e-03
-1.958966e-03
-2.056112e-03
-2.148384e-03
-6.039866e-04
-9.245431e-04
-1.191779e-03
-1.376594e-03
-1.515623e-03
-1.634710e-03
-1.742578e-03
-1.851789e-03
-1.966651e-03
-2.078458e-03
-2.183745e-03
-5.793481e-04
-8.966654e-04
-1.164270e-03
-1.349515e-03
-1.495801e-03
-1.622431e-03
-1.737157e-03
-1.852332e-03
-1.973060e-03
-2.088981e-03
-2.196780e-03
</DataArray>
</PointData>
</Piece>
</UnstructuredGrid>
</VTKFile>
