<?xml version="1.0"?>
<VTKFile type="UnstructuredGrid" version="0.1">
<UnstructuredGrid>
<FieldData>
<DataArray Name="TIME" type="Float64" format="ascii" NumberOfTuples="1">
0.000000e+00
</DataArray>
</FieldData>
<FieldData>
<DataArray Name="CYCLE" type="Int32" format="ascii" NumberOfTuples="1">
0
</DataArray>
</FieldData>
<Piece NumberOfPoints="187" NumberOfCells="160">
<Points>
<DataArray NumberOfComponents="3" type="Float64" format="ascii">
0.000000e+00 0.000000e+00 0.000000e+00
0.000000e+00 1.975324e-01 0.000000e+00
0.000000e+00 3.942269e-01 0.000000e+00
0.000000e+00 5.902309e-01 0.000000e+00
0.000000e+00 7.856801e-01 0.000000e+00
0.000000e+00 9.807892e-01 0.000000e+00
0.000000e+00 1.175766e+00 0.000000e+00
0.000000e+00 1.370841e+00 0.000000e+00
0.000000e+00 1.566367e+00 0.000000e+00
0.000000e+00 1.762747e+00 0.000000e+00
0.000000e+00 1.959500e+00 0.000000e+00
2.250000e-01 0.000000e+00 0.000000e+00
2.261619e-01 1.977338e-01 0.000000e+00
2.271418e-01 3.946955e-01 0.000000e+00
2.279155e-01 5.910379e-01 0.000000e+00
2.284364e-01 7.868706e-01 0.000000e+00
2.286215e-01 9.823020e-01 0.000000e+00
2.284996e-01 1.177436e+00 0.000000e+00
2.280024e-01 1.372413e+00 0.000000e+00
2.269779e-01 1.567463e+00 0.000000e+00
2.255781e-01 1.762888e+00 0.000000e+00
2.250000e-01 1.959500e+00 0.000000e+00
4.500000e-01 0.000000e+00 0.000000e+00
4.521335e-01 1.982605e-01 0.000000e+00
4.538760e-01 3.960298e-01 0.000000e+00
4.552424e-01 5.933574e-01 0.000000e+00
4.562146e-01 7.902622e-01 0.000000e+00
4.567555e-01 9.867173e-01 0.000000e+00
4.569837e-01 1.182646e+00 0.000000e+00
4.566732e-01 1.377969e+00 0.000000e+00
4.556910e-01 1.572576e+00 0.000000e+00
4.538211e-01 1.766299e+00 0.000000e+00
4.500000e-01 1.959500e+00 0.000000e+00
6.750000e-01 0.000000e+00 0.000000e+00
6.776438e-01 1.988381e-01 0.000000e+00
6.796891e-01 3.976018e-01 0.000000e+00
6.812875e-01 5.963867e-01 0.000000e+00
6.825362e-01 7.952587e-01 0.000000e+00
6.834574e-01 9.942458e-01 0.000000e+00
6.840858e-01 1.193359e+00 0.000000e+00
6.842305e-01 1.392679e+00 0.000000e+00
6.838982e-01 1.592282e+00 0.000000e+00
6.824899e-01 1.792332e+00 0.000000e+00
6.785483e-01 1.992957e+00 0.000000e+00
9.000000e-01 0.000000e+00 0.000000e+00
9.027580e-01 1.991378e-01 0.000000e+00
9.047097e-01 3.983323e-01 0.000000e+00
9.061629e-01 5.976324e-01 0.000000e+00
9.072587e-01 7.970414e-01 0.000000e+00
9.080303e-01 9.965815e-01 0.000000e+00
9.084593e-01 1.196298e+00 0.000000e+00
9.084334e-01 1.396212e+00 0.000000e+00
9.078396e-01 1.596369e+00 0.000000e+00
9.062234e-01 1.796716e+00 0.000000e+00
9.036322e-01 1.996709e+00 0.000000e+00
1.125000e+00 0.000000e+00 0.000000e+00
1.127681e+00 1.994126e-01 0.000000e+00
1.129434e+00 3.989215e-01 0.000000e+00
1.130720e+00 5.985427e-01 0.000000e+00
1.131668e+00 7.982829e-01 0.000000e+00
1.132291e+00 9.981543e-01 0.000000e+00
1.132565e+00 1.198171e+00 0.000000e+00
1.132424e+00 1.398342e+00 0.000000e+00
1.131744e+00 1.598645e+00 0.000000e+00
1.130480e+00 1.798922e+00 0.000000e+00
1.128906e+00 1.999005e+00 0.000000e+00
1.350000e+00 0.000000e+00 0.000000e+00
1.352450e+00 1.996208e-01 0.000000e+00
1.353998e+00 3.993565e-01 0.000000e+00
1.355131e+00 5.992004e-01 0.000000e+00
1.355938e+00 7.991506e-01 0.000000e+00
1.356445e+00 9.992099e-01 0.000000e+00
1.356626e+00 1.199381e+00 0.000000e+00
1.356431e+00 1.399652e+00 0.000000e+00
1.355848e+00 1.599967e+00 0.000000e+00
1.354957e+00 1.800213e+00 0.000000e+00
1.353997e+00 2.000288e+00 0.000000e+00
1.575000e+00 0.000000e+00 0.000000e+00
1.577127e+00 1.997662e-01 0.000000e+00
1.578484e+00 3.996519e-01 0.000000e+00
1.579469e+00 5.996391e-01 0.000000e+00
1.580166e+00 7.997166e-01 0.000000e+00
1.580585e+00 9.998819e-01 0.000000e+00
1.580708e+00 1.200130e+00 0.000000e+00
1.580534e+00 1.400434e+00 0.000000e+00
1.580105e+00 1.600732e+00 0.000000e+00
1.579518e+00 1.800950e+00 0.000000e+00
1.578946e+00 2.001046e+00 0.000000e+00
1.800000e+00 0.000000e+00 0.000000e+00
1.801772e+00 1.998539e-01 0.000000e+00
1.802942e+00 3.998366e-01 0.000000e+00
1.803798e+00 5.999100e-01 0.000000e+00
1.804401e+00 8.000603e-01 0.000000e+00
1.804751e+00 1.000283e+00 0.000000e+00
1.804854e+00 1.200562e+00 0.000000e+00
1.804739e+00 1.400865e+00 0.000000e+00
1.804457e+00 1.601142e+00 0.000000e+00
1.804095e+00 1.801348e+00 0.000000e+00
1.803779e+00 2.001464e+00 0.000000e+00
2.025000e+00 0.000000e+00 0.000000e+00
2.026423e+00 1.999111e-01 0.000000e+00
2.027413e+00 3.999458e-01 0.000000e+00
2.028153e+00 6.000601e-01 0.000000e+00
2.028668e+00 8.002457e-01 0.000000e+00
2.028970e+00 1.000491e+00 0.000000e+00
2.029077e+00 1.200773e+00 0.000000e+00
2.029024e+00 1.401062e+00 0.000000e+00
2.028862e+00 1.601322e+00 0.000000e+00
2.028661e+00 1.801526e+00 0.000000e+00
2.028513e+00 2.001663e+00 0.000000e+00
2.250000e+00 0.000000e+00 0.000000e+00
2.251106e+00 1.999416e-01 0.000000e+00
2.251930e+00 3.999936e-01 0.000000e+00
2.252553e+00 6.001223e-01 0.000000e+00
2.252990e+00 8.003201e-01 0.000000e+00
2.253255e+00 1.000567e+00 0.000000e+00
2.253371e+00 1.200839e+00 0.000000e+00
2.253369e+00 1.401111e+00 0.000000e+00
2.253294e+00 1.601359e+00 0.000000e+00
2.253205e+00 1.801564e+00 0.000000e+00
2.253164e+00 2.001724e+00 0.000000e+00
2.475000e+00 0.000000e+00 0.000000e+00
2.475839e+00 1.999519e-01 0.000000e+00
2.476501e+00 4.000029e-01 0.000000e+00
2.477009e+00 6.001323e-01 0.000000e+00
2.477372e+00 8.003247e-01 0.000000e+00
2.477604e+00 1.000561e+00 0.000000e+00
2.477723e+00 1.200818e+00 0.000000e+00
2.477755e+00 1.401075e+00 0.000000e+00
2.477740e+00 1.601313e+00 0.000000e+00
2.477722e+00 1.801522e+00 0.000000e+00
2.477745e+00 2.001703e+00 0.000000e+00
2.700000e+00 0.000000e+00 0.000000e+00
2.700619e+00 1.999542e-01 0.000000e+00
2.701126e+00 3.999973e-01 0.000000e+00
2.701524e+00 6.001158e-01 0.000000e+00
2.701815e+00 8.002943e-01 0.000000e+00
2.702010e+00 1.000514e+00 0.000000e+00
2.702122e+00 1.200755e+00 0.000000e+00
2.702173e+00 1.400998e+00 0.000000e+00
2.702192e+00 1.601229e+00 0.000000e+00
2.702212e+00 1.801443e+00 0.000000e+00
2.702266e+00 2.001642e+00 0.000000e+00
2.925000e+00 0.000000e+00 0.000000e+00
2.925434e+00 1.999530e-01 0.000000e+00
2.925801e+00 3.999869e-01 0.000000e+00
2.926093e+00 6.000913e-01 0.000000e+00
2.926312e+00 8.002533e-01 0.000000e+00
2.926465e+00 1.000456e+00 0.000000e+00
2.926559e+00 1.200681e+00 0.000000e+00
2.926612e+00 1.400913e+00 0.000000e+00
2.926645e+00 1.601140e+00 0.000000e+00
2.926679e+00 1.801359e+00 0.000000e+00
2.926740e+00 2.001573e+00 0.000000e+00
3.150000e+00 0.000000e+00 0.000000e+00
3.150276e+00 1.999499e-01 0.000000e+00
3.150514e+00 3.999761e-01 0.000000e+00
3.150705e+00 6.000698e-01 0.000000e+00
3.150851e+00 8.002189e-01 0.000000e+00
3.150956e+00 1.000408e+00 0.000000e+00
3.151024e+00 1.200621e+00 0.000000e+00
3.151067e+00 1.400845e+00 0.000000e+00
3.151097e+00 1.601069e+00 0.000000e+00
3.151129e+00 1.801291e+00 0.000000e+00
3.151179e+00 2.001515e+00 0.000000e+00
3.375000e+00 0.000000e+00 0.000000e+00
3.375136e+00 1.999500e-01 0.000000e+00
3.375252e+00 3.999741e-01 0.000000e+00
3.375346e+00 6.000627e-01 0.000000e+00
3.375419e+00 8.002038e-01 0.000000e+00
3.375472e+00 1.000384e+00 0.000000e+00
3.375508e+00 1.200590e+00 0.000000e+00
3.375531e+00 1.400807e+00 0.000000e+00
3.375549e+00 1.601030e+00 0.000000e+00
3.375568e+00 1.801254e+00 0.000000e+00
3.375595e+00 2.001484e+00 0.000000e+00
3.600000e+00 0.000000e+00 0.000000e+00
3.600000e+00 1.999629e-01 0.000000e+00
3.600000e+00 3.999891e-01 0.000000e+00
3.600000e+00 6.000758e-01 0.000000e+00
3.600000e+00 8.002141e-01 0.000000e+00
3.600000e+00 1.000391e+00 0.000000e+00
3.600000e+00 1.200594e+00 0.000000e+00
3.600000e+00 1.400810e+00 0.000000e+00
3.600000e+00 1.601032e+00 0.000000e+00
3.600000e+00 1.801257e+00 0.000000e+00
3.600000e+00 2.001489e+00 0.000000e+00
</DataArray>
</Points>
<Cells>
<DataArray Name="connectivity" type="Int32" format="ascii">
0 11 12 1
1 12 13 2
2 13 14 3
3 14 15 4
4 15 16 5
5 16 17 6
6 17 18 7
7 18 19 8
8 19 20 9
9 20 21 10
11 22 23 12
12 23 24 13
13 24 25 14
14 25 26 15
15 26 27 16
16 27 28 17
17 28 29 18
18 29 30 19
19 30 31 20
20 31 32 21
22 33 34 23
23 34 35 24
24 35 36 25
25 36 37 26
26 37 38 27
27 38 39 28
28 39 40 29
29 40 41 30
30 41 42 31
31 42 43 32
33 44 45 34
34 45 46 35
35 46 47 36
36 47 48 37
37 48 49 38
38 49 50 39
39 50 51 40
40 51 52 41
41 52 53 42
42 53 54 43
44 55 56 45
45 56 57 46
46 57 58 47
47 58 59 48
48 59 60 49
49 60 61 50
50 61 62 51
51 62 63 52
52 63 64 53
53 64 65 54
55 66 67 56
56 67 68 57
57 68 69 58
58 69 70 59
59 70 71 60
60 71 72 61
61 72 73 62
62 73 74 63
63 74 75 64
64 75 76 65
66 77 78 67
67 78 79 68
68 79 80 69
69 80 81 70
70 81 82 71
71 82 83 72
72 83 84 73
73 84 85 74
74 85 86 75
75 86 87 76
77 88 89 78
78 89 90 79
79 90 91 80
80 91 92 81
81 92 93 82
82 93 94 83
83 94 95 84
84 95 96 85
85 96 97 86
86 97 98 87
88 99 100 89
89 100 101 90
90 101 102 91
91 102 103 92
92 103 104 93
93 104 105 94
94 105 106 95
95 106 107 96
96 107 108 97
97 108 109 98
99 110 111 100
100 111 112 101
101 112 113 102
102 113 114 103
103 114 115 104
104 115 116 105
105 116 117 106
106 117 118 107
107 118 119 108
108 119 120 109
110 121 122 111
111 122 123 112
112 123 124 113
113 124 125 114
114 125 126 115
115 126 127 116
116 127 128 117
117 128 129 118
118 129 130 119
119 130 131 120
121 132 133 122
122 133 134 123
123 134 135 124
124 135 136 125
125 136 137 126
126 137 138 127
127 138 139 128
128 139 140 129
129 140 141 130
130 141 142 131
132 143 144 133
133 144 145 134
134 145 146 135
135 146 147 136
136 147 148 137
137 148 149 138
138 149 150 139
139 150 151 140
140 151 152 141
141 152 153 142
143 154 155 144
144 155 156 145
145 156 157 146
146 157 158 147
147 158 159 148
148 159 160 149
149 160 161 150
150 161 162 151
151 162 163 152
152 163 164 153
154 165 166 155
155 166 167 156
156 167 168 157
157 168 169 158
158 169 170 159
159 170 171 160
160 171 172 161
161 172 173 162
162 173 174 163
163 174 175 164
165 176 177 166
166 177 178 167
167 178 179 168
168 179 180 169
169 180 181 170
170 181 182 171
171 182 183 172
172 183 184 173
173 184 185 174
174 185 186 175
</DataArray>
<DataArray Name="offsets" type="Int32" format="ascii">
4
8
12
16
20
24
28
32
36
40
44
48
52
56
60
64
68
72
76
80
84
88
92
96
100
104
108
112
116
120
124
128
132
136
140
144
148
152
156
160
164
168
172
176
180
184
188
192
196
200
204
208
212
216
220
224
228
232
236
240
244
248
252
256
260
264
268
272
276
280
284
288
292
296
300
304
308
312
316
320
324
328
332
336
340
344
348
352
356
360
364
368
372
376
380
384
388
392
396
400
404
408
412
416
420
424
428
432
436
440
444
448
452
456
460
464
468
472
476
480
484
488
492
496
500
504
508
512
516
520
524
528
532
536
540
544
548
552
556
560
564
568
572
576
580
584
588
592
596
600
604
608
612
616
620
624
628
632
636
640
</DataArray>
<DataArray Name="types" type="UInt8" format="ascii">
9
9
9
9
9
9
9
9
9
9
9
9
9
9
9
9
9
9
9
9
9
9
9
9
9
9
9
9
9
9
9
9
9
9
9
9
9
9
9
9
9
9
9
9
9
9
9
9
9
9
9
9
9
9
9
9
9
9
9
9
9
9
9
9
9
9
9
9
9
9
9
9
9
9
9
9
9
9
9
9
9
9
9
9
9
9
9
9
9
9
9
9
9
9
9
9
9
9
9
9
9
9
9
9
9
9
9
9
9
9
9
9
9
9
9
9
9
9
9
9
9
9
9
9
9
9
9
9
9
9
9
9
9
9
9
9
9
9
9
9
9
9
9
9
9
9
9
9
9
9
9
9
9
9
9
9
9
9
9
9
</DataArray>
</Cells>
<PointData>
<DataArray Name="disp" type="Float64" NumberOfComponents="3" format="ascii">
0.000000e+00 0.000000e+00 0.000000e+00
0.000000e+00 -2.467629e-03 0.000000e+00
0.000000e+00 -5.773047e-03 0.000000e+00
0.000000e+00 -9.769119e-03 0.000000e+00
0.000000e+00 -1.431992e-02 0.000000e+00
0.000000e+00 -1.921076e-02 0.000000e+00
0.000000e+00 -2.423425e-02 0.000000e+00
0.000000e+00 -2.915858e-02 0.000000e+00
0.000000e+00 -3.363328e-02 0.000000e+00
0.000000e+00 -3.725300e-02 0.000000e+00
0.000000e+00 -4.050000e-02 0.000000e+00
0.000000e+00 0.000000e+00 0.000000e+00
1.161927e-03 -2.266212e-03 0.000000e+00
2.141786e-03 -5.304553e-03 0.000000e+00
2.915484e-03 -8.962053e-03 0.000000e+00
3.436393e-03 -1.312940e-02 0.000000e+00
3.621461e-03 -1.769807e-02 0.000000e+00
3.499588e-03 -2.256400e-02 0.000000e+00
3.002394e-03 -2.758714e-02 0.000000e+00
1.977922e-03 -3.253716e-02 0.000000e+00
5.781002e-04 -3.711190e-02 0.000000e+00
0.000000e+00 -4.050000e-02 0.000000e+00
0.000000e+00 0.000000e+00 0.000000e+00
2.133490e-03 -1.739467e-03 0.000000e+00
3.875986e-03 -3.970232e-03 0.000000e+00
5.242386e-03 -6.642628e-03 0.000000e+00
6.214629e-03 -9.737787e-03 0.000000e+00
6.755502e-03 -1.328269e-02 0.000000e+00
6.983680e-03 -1.735410e-02 0.000000e+00
6.673208e-03 -2.203079e-02 0.000000e+00
5.690953e-03 -2.742399e-02 0.000000e+00
3.821111e-03 -3.370103e-02 0.000000e+00
0.000000e+00 -4.050000e-02 0.000000e+00
0.000000e+00 0.000000e+00 0.000000e+00
2.643779e-03 -1.161915e-03 0.000000e+00
4.689106e-03 -2.398212e-03 0.000000e+00
6.287521e-03 -3.613282e-03 0.000000e+00
7.536234e-03 -4.741283e-03 0.000000e+00
8.457367e-03 -5.754148e-03 0.000000e+00
9.085763e-03 -6.640780e-03 0.000000e+00
9.230490e-03 -7.320831e-03 0.000000e+00
8.898226e-03 -7.718367e-03 0.000000e+00
7.489861e-03 -7.667610e-03 0.000000e+00
3.548357e-03 -7.043382e-03 0.000000e+00
0.000000e+00 0.000000e+00 0.000000e+00
2.758023e-03 -8.621684e-04 0.000000e+00
4.709703e-03 -1.667722e-03 0.000000e+00
6.162897e-03 -2.367615e-03 0.000000e+00
7.258767e-03 -2.958617e-03 0.000000e+00
8.030279e-03 -3.418493e-03 0.000000e+00
8.459324e-03 -3.702186e-03 0.000000e+00
8.433395e-03 -3.788486e-03 0.000000e+00
7.839591e-03 -3.631485e-03 0.000000e+00
6.223341e-03 -3.284342e-03 0.000000e+00
3.632167e-03 -3.291263e-03 0.000000e+00
0.000000e+00 0.000000e+00 0.000000e+00
2.681408e-03 -5.874346e-04 0.000000e+00
4.434392e-03 -1.078460e-03 0.000000e+00
5.720131e-03 -1.457242e-03 0.000000e+00
6.668363e-03 -1.717165e-03 0.000000e+00
7.291037e-03 -1.845741e-03 0.000000e+00
7.565455e-03 -1.828944e-03 0.000000e+00
7.424349e-03 -1.657895e-03 0.000000e+00
6.744312e-03 -1.355141e-03 0.000000e+00
5.480153e-03 -1.077918e-03 0.000000e+00
3.905659e-03 -9.946520e-04 0.000000e+00
0.000000e+00 0.000000e+00 0.000000e+00
2.449549e-03 -3.791991e-04 0.000000e+00
3.998150e-03 -6.435480e-04 0.000000e+00
5.130696e-03 -7.996464e-04 0.000000e+00
5.937950e-03 -8.493754e-04 0.000000e+00
6.444992e-03 -7.901118e-04 0.000000e+00
6.626011e-03 -6.193354e-04 0.000000e+00
6.431459e-03 -3.474763e-04 0.000000e+00
5.847941e-03 -3.346198e-05 0.000000e+00
4.957419e-03 2.128159e-04 0.000000e+00
3.996748e-03 2.885009e-04 0.000000e+00
0.000000e+00 0.000000e+00 0.000000e+00
2.127456e-03 -2.337769e-04 0.000000e+00
3.483533e-03 -3.480976e-04 0.000000e+00
4.469196e-03 -3.609670e-04 0.000000e+00
5.166488e-03 -2.833891e-04 0.000000e+00
5.585526e-03 -1.180764e-04 0.000000e+00
5.708154e-03 1.305126e-04 0.000000e+00
5.534210e-03 4.343036e-04 0.000000e+00
5.105257e-03 7.323549e-04 0.000000e+00
4.517878e-03 9.503138e-04 0.000000e+00
3.946498e-03 1.045711e-03 0.000000e+00
0.000000e+00 0.000000e+00 0.000000e+00
1.771913e-03 -1.461369e-04 0.000000e+00
2.941688e-03 -1.633989e-04 0.000000e+00
3.798263e-03 -8.997069e-05 0.000000e+00
4.400758e-03 6.034018e-05 0.000000e+00
4.750754e-03 2.832878e-04 0.000000e+00
4.854241e-03 5.624695e-04 0.000000e+00
4.738772e-03 8.647603e-04 0.000000e+00
4.457147e-03 1.141776e-03 0.000000e+00
4.095180e-03 1.348353e-03 0.000000e+00
3.778495e-03 1.463734e-03 0.000000e+00
0.000000e+00 0.000000e+00 0.000000e+00
1.422923e-03 -8.892759e-05 0.000000e+00
2.412867e-03 -5.416116e-05 0.000000e+00
3.153067e-03 6.010064e-05 0.000000e+00
3.668347e-03 2.457260e-04 0.000000e+00
3.969822e-03 4.910812e-04 0.000000e+00
4.076822e-03 7.735277e-04 0.000000e+00
4.024067e-03 1.062028e-03 0.000000e+00
3.861773e-03 1.322356e-03 0.000000e+00
3.661386e-03 1.525611e-03 0.000000e+00
3.512829e-03 1.663179e-03 0.000000e+00
0.000000e+00 0.000000e+00 0.000000e+00
1.106119e-03 -5.840095e-05 0.000000e+00
1.929910e-03 -6.404040e-06 0.000000e+00
2.553349e-03 1.223356e-04 0.000000e+00
2.989782e-03 3.200925e-04 0.000000e+00
3.254602e-03 5.668437e-04 0.000000e+00
3.370559e-03 8.387879e-04 0.000000e+00
3.368541e-03 1.110896e-03 0.000000e+00
3.294162e-03 1.359090e-03 0.000000e+00
3.204976e-03 1.564289e-03 0.000000e+00
3.164330e-03 1.723789e-03 0.000000e+00
0.000000e+00 0.000000e+00 0.000000e+00
8.385955e-04 -4.806968e-05 0.000000e+00
1.501475e-03 2.932155e-06 0.000000e+00
2.009278e-03 1.323460e-04 0.000000e+00
2.372447e-03 3.246822e-04 0.000000e+00
2.604473e-03 5.604866e-04 0.000000e+00
2.723004e-03 8.175645e-04 0.000000e+00
2.755235e-03 1.074736e-03 0.000000e+00
2.739934e-03 1.313248e-03 0.000000e+00
2.721907e-03 1.522404e-03 0.000000e+00
2.745312e-03 1.702662e-03 0.000000e+00
0.000000e+00 0.000000e+00 0.000000e+00
6.184348e-04 -4.579505e-05 0.000000e+00
1.126357e-03 -2.737921e-06 0.000000e+00
1.523883e-03 1.158025e-04 0.000000e+00
1.815353e-03 2.943225e-04 0.000000e+00
2.010435e-03 5.139285e-04 0.000000e+00
2.122372e-03 7.548170e-04 0.000000e+00
2.172636e-03 9.978669e-04 0.000000e+00
2.191743e-03 1.229314e-03 0.000000e+00
2.212147e-03 1.443202e-03 0.000000e+00
2.266282e-03 1.642274e-03 0.000000e+00
0.000000e+00 0.000000e+00 0.000000e+00
4.341131e-04 -4.701822e-05 0.000000e+00
8.005273e-04 -1.312748e-05 0.000000e+00
1.092524e-03 9.125674e-05 0.000000e+00
1.312441e-03 2.532653e-04 0.000000e+00
1.464786e-03 4.560507e-04 0.000000e+00
1.559406e-03 6.814186e-04 0.000000e+00
1.612376e-03 9.130682e-04 0.000000e+00
1.644892e-03 1.140026e-03 0.000000e+00
1.679491e-03 1.358665e-03 0.000000e+00
1.739711e-03 1.572515e-03 0.000000e+00
0.000000e+00 0.000000e+00 0.000000e+00
2.757458e-04 -5.012661e-05 0.000000e+00
5.140550e-04 -2.385346e-05 0.000000e+00
7.053624e-04 6.983151e-05 0.000000e+00
8.514563e-04 2.189505e-04 0.000000e+00
9.557150e-04 4.081875e-04 0.000000e+00
1.024376e-03 6.214412e-04 0.000000e+00
1.067097e-03 8.446567e-04 0.000000e+00
1.097359e-03 1.068561e-03 0.000000e+00
1.129515e-03 1.290669e-03 0.000000e+00
1.178733e-03 1.514765e-03 0.000000e+00
0.000000e+00 0.000000e+00 0.000000e+00
1.356615e-04 -5.004035e-05 0.000000e+00
2.515444e-04 -2.585198e-05 0.000000e+00
3.460830e-04 6.272515e-05 0.000000e+00
4.189747e-04 2.038090e-04 0.000000e+00
4.714800e-04 3.841677e-04 0.000000e+00
5.076966e-04 5.895404e-04 0.000000e+00
5.312834e-04 8.074139e-04 0.000000e+00
5.489932e-04 1.029648e-03 0.000000e+00
5.678452e-04 1.253814e-03 0.000000e+00
5.947294e-04 1.484354e-03 0.000000e+00
0.000000e+00 0.000000e+00 0.000000e+00
0.000000e+00 -3.712488e-05 0.000000e+00
0.000000e+00 -1.093587e-05 0.000000e+00
0.000000e+00 7.585810e-05 0.000000e+00
0.000000e+00 2.140344e-04 0.000000e+00
0.000000e+00 3.915067e-04 0.000000e+00
0.000000e+00 5.943607e-04 0.000000e+00
0.000000e+00 8.103631e-04 0.000000e+00
0.000000e+00 1.031969e-03 0.000000e+00
0.000000e+00 1.256802e-03 0.000000e+00
0.000000e+00 1.489397e-03 0.000000e+00
</DataArray>
<DataArray Name="shear" type="Float64" NumberOfComponents="1" format="ascii">
1.397559e-02
1.935083e-02
2.746615e-02
3.399824e-02
3.863858e-02
4.097355e-02
4.084798e-02
3.753189e-02
3.023707e-02
2.141869e-02
1.747631e-02
1.414282e-02
1.889775e-02
2.618098e-02
3.226554e-02
3.703713e-02
4.040015e-02
4.216571e-02
4.141354e-02
3.750693e-02
2.962054e-02
2.281739e-02
1.483917e-02
1.774218e-02
2.260508e-02
2.780194e-02
3.354851e-02
4.028296e-02
4.769307e-02
5.516975e-02
6.240319e-02
6.587061e-02
6.597251e-02
1.507290e-02
1.556960e-02
1.654535e-02
1.877125e-02
2.230000e-02
2.731198e-02
3.352525e-02
4.101995e-02
4.929887e-02
5.556054e-02
6.024826e-02
1.475942e-02
1.368706e-02
1.192893e-02
1.139835e-02
1.145445e-02
1.174424e-02
1.193432e-02
1.174787e-02
1.034733e-02
6.070754e-03
1.631592e-03
1.394359e-02
1.231213e-02
9.924503e-03
9.115784e-03
8.834440e-03
8.690930e-03
8.440232e-03
7.830037e-03
6.385696e-03
3.400462e-03
7.952309e-04
1.255025e-02
1.078867e-02
8.400900e-03
7.623509e-03
7.272823e-03
7.028301e-03
6.719233e-03
6.152478e-03
4.964111e-03
2.842825e-03
1.151977e-03
1.081923e-02
9.247199e-03
7.204815e-03
6.552119e-03
6.243549e-03
6.039956e-03
5.800247e-03
5.303530e-03
4.304247e-03
2.699715e-03
1.490681e-03
8.983711e-03
7.757595e-03
6.225188e-03
5.731184e-03
5.517937e-03
5.396694e-03
5.206456e-03
4.766324e-03
3.949110e-03
2.739421e-03
1.882701e-03
7.211489e-03
6.360121e-03
5.332730e-03
5.014135e-03
4.924845e-03
4.884812e-03
4.742308e-03
4.386516e-03
3.752514e-03
2.863927e-03
2.271357e-03
5.606269e-03
5.070438e-03
4.469619e-03
4.349942e-03
4.396989e-03
4.436209e-03
4.359504e-03
4.105900e-03
3.645200e-03
3.026052e-03
2.637159e-03
4.245061e-03
3.933365e-03
3.671484e-03
3.744880e-03
3.918899e-03
4.043580e-03
4.045273e-03
3.891913e-03
3.587599e-03
3.198280e-03
2.969651e-03
3.124575e-03
2.958338e-03
2.952929e-03
3.200016e-03
3.491456e-03
3.703765e-03
3.784204e-03
3.725696e-03
3.560763e-03
3.360465e-03
3.256549e-03
2.189649e-03
2.123620e-03
2.327365e-03
2.733467e-03
3.132115e-03
3.422412e-03
3.574821e-03
3.602962e-03
3.553536e-03
3.494797e-03
3.480909e-03
1.392305e-03
1.415097e-03
1.834346e-03
2.383985e-03
2.865975e-03
3.215105e-03
3.423391e-03
3.519342e-03
3.554226e-03
3.592719e-03
3.639611e-03
6.926506e-04
8.519061e-04
1.516193e-03
2.172747e-03
2.703228e-03
3.086862e-03
3.331674e-03
3.471083e-03
3.557424e-03
3.653347e-03
3.735209e-03
2.453497e-04
6.067437e-04
1.405453e-03
2.098700e-03
2.646570e-03
3.042267e-03
3.300572e-03
3.455464e-03
3.559414e-03
3.673857e-03
3.766147e-03
</DataArray>
<DataArray Name="stress" type="Float64" NumberOfComponents="9" format="ascii">
-1.065085e+05 4.975285e+03 0.000000e+00 4.975285e+03 -1.757286e+05 0.000000e+00 0.000000e+00 0.000000e+00 0.000000e+00
-9.538169e+04 4.615519e+03 0.000000e+00 4.615519e+03 -1.741712e+05 0.000000e+00 0.000000e+00 0.000000e+00 0.000000e+00
-9.047474e+04 4.388314e+03 0.000000e+00 4.388314e+03 -1.844404e+05 0.000000e+00 0.000000e+00 0.000000e+00 0.000000e+00
-9.048285e+04 4.447394e+03 0.000000e+00 4.447394e+03 -1.929989e+05 0.000000e+00 0.000000e+00 0.000000e+00 0.000000e+00
-9.314414e+04 4.753392e+03 0.000000e+00 4.753392e+03 -2.013341e+05 0.000000e+00 0.000000e+00 0.000000e+00 0.000000e+00
-9.721720e+04 5.225457e+03 0.000000e+00 5.225457e+03 -2.101723e+05 0.000000e+00 0.000000e+00 0.000000e+00 0.000000e+00
-1.019143e+05 5.548818e+03 0.000000e+00 5.548818e+03 -2.189571e+05 0.000000e+00 0.000000e+00 0.000000e+00 0.000000e+00
-1.067950e+05 5.142764e+03 0.000000e+00 5.142764e+03 -2.267813e+05 0.000000e+00 0.000000e+00 0.000000e+00 0.000000e+00
-1.143242e+05 2.537502e+03 0.000000e+00 2.537502e+03 -2.318232e+05 0.000000e+00 0.000000e+00 0.000000e+00 0.000000e+00
-1.282909e+05 -1.364093e+03 0.000000e+00 -1.364093e+03 -2.329384e+05 0.000000e+00 0.000000e+00 0.000000e+00 0.000000e+00
-1.367551e+05 -1.795268e+03 0.000000e+00 -1.795268e+03 -2.308839e+05 0.000000e+00 0.000000e+00 0.000000e+00 0.000000e+00
-1.044521e+05 1.353380e+04 0.000000e+00 1.353380e+04 -1.650745e+05 0.000000e+00 0.000000e+00 0.000000e+00 0.000000e+00
-9.429856e+04 1.209019e+04 0.000000e+00 1.209019e+04 -1.634171e+05 0.000000e+00 0.000000e+00 0.000000e+00 0.000000e+00
-9.010829e+04 1.069841e+04 0.000000e+00 1.069841e+04 -1.723842e+05 0.000000e+00 0.000000e+00 0.000000e+00 0.000000e+00
-9.051339e+04 1.041234e+04 0.000000e+00 1.041234e+04 -1.809675e+05 0.000000e+00 0.000000e+00 0.000000e+00 0.000000e+00
-9.341320e+04 1.092633e+04 0.000000e+00 1.092633e+04 -1.902032e+05 0.000000e+00 0.000000e+00 0.000000e+00 0.000000e+00
-9.782992e+04 1.159890e+04 0.000000e+00 1.159890e+04 -2.006429e+05 0.000000e+00 0.000000e+00 0.000000e+00 0.000000e+00
-1.023708e+05 1.162312e+04 0.000000e+00 1.162312e+04 -2.112124e+05 0.000000e+00 0.000000e+00 0.000000e+00 0.000000e+00
-1.068091e+05 1.009791e+04 0.000000e+00 1.009791e+04 -2.217909e+05 0.000000e+00 0.000000e+00 0.000000e+00 0.000000e+00
-1.127863e+05 5.869890e+03 0.000000e+00 5.869890e+03 -2.319669e+05 0.000000e+00 0.000000e+00 0.000000e+00 0.000000e+00
-1.226297e+05 -4.150410e+02 0.000000e+00 -4.150410e+02 -2.375478e+05 0.000000e+00 0.000000e+00 0.000000e+00 0.000000e+00
-1.408432e+05 -6.177315e+03 0.000000e+00 -6.177315e+03 -2.529380e+05 0.000000e+00 0.000000e+00 0.000000e+00 0.000000e+00
-9.878862e+04 2.176927e+04 0.000000e+00 2.176927e+04 -1.415844e+05 0.000000e+00 0.000000e+00 0.000000e+00 0.000000e+00
-9.148566e+04 2.014945e+04 0.000000e+00 2.014945e+04 -1.397071e+05 0.000000e+00 0.000000e+00 0.000000e+00 0.000000e+00
-8.955189e+04 1.933274e+04 0.000000e+00 1.933274e+04 -1.449749e+05 0.000000e+00 0.000000e+00 0.000000e+00 0.000000e+00
-9.207550e+04 2.038965e+04 0.000000e+00 2.038965e+04 -1.518036e+05 0.000000e+00 0.000000e+00 0.000000e+00 0.000000e+00
-9.666666e+04 2.251981e+04 0.000000e+00 2.251981e+04 -1.600809e+05 0.000000e+00 0.000000e+00 0.000000e+00 0.000000e+00
-1.027819e+05 2.485164e+04 0.000000e+00 2.485164e+04 -1.694824e+05 0.000000e+00 0.000000e+00 0.000000e+00 0.000000e+00
-1.086840e+05 2.604456e+04 0.000000e+00 2.604456e+04 -1.782652e+05 0.000000e+00 0.000000e+00 0.000000e+00 0.000000e+00
-1.154482e+05 2.662061e+04 0.000000e+00 2.662061e+04 -1.897271e+05 0.000000e+00 0.000000e+00 0.000000e+00 0.000000e+00
-1.250656e+05 2.700852e+04 0.000000e+00 2.700852e+04 -2.048227e+05 0.000000e+00 0.000000e+00 0.000000e+00 0.000000e+00
-1.384672e+05 2.084400e+04 0.000000e+00 2.084400e+04 -2.237836e+05 0.000000e+00 0.000000e+00 0.000000e+00 0.000000e+00
-1.586370e+05 1.157979e+04 0.000000e+00 1.157979e+04 -2.531148e+05 0.000000e+00 0.000000e+00 0.000000e+00 0.000000e+00
-9.235664e+04 2.362594e+04 0.000000e+00 2.362594e+04 -1.193299e+05 0.000000e+00 0.000000e+00 0.000000e+00 0.000000e+00
-8.822245e+04 2.252676e+04 0.000000e+00 2.252676e+04 -1.175244e+05 0.000000e+00 0.000000e+00 0.000000e+00 0.000000e+00
-8.741219e+04 2.213016e+04 0.000000e+00 2.213016e+04 -1.176326e+05 0.000000e+00 0.000000e+00 0.000000e+00 0.000000e+00
-8.955859e+04 2.295537e+04 0.000000e+00 2.295537e+04 -1.171082e+05 0.000000e+00 0.000000e+00 0.000000e+00 0.000000e+00
-9.217279e+04 2.438988e+04 0.000000e+00 2.438988e+04 -1.154111e+05 0.000000e+00 0.000000e+00 0.000000e+00 0.000000e+00
-9.464369e+04 2.528332e+04 0.000000e+00 2.528332e+04 -1.123055e+05 0.000000e+00 0.000000e+00 0.000000e+00 0.000000e+00
-9.671012e+04 2.574239e+04 0.000000e+00 2.574239e+04 -1.080048e+05 0.000000e+00 0.000000e+00 0.000000e+00 0.000000e+00
-9.739585e+04 2.554460e+04 0.000000e+00 2.554460e+04 -1.025991e+05 0.000000e+00 0.000000e+00 0.000000e+00 0.000000e+00
-9.695570e+04 2.437402e+04 0.000000e+00 2.437402e+04 -9.428054e+04 0.000000e+00 0.000000e+00 0.000000e+00 0.000000e+00
-8.792372e+04 1.759560e+04 0.000000e+00 1.759560e+04 -7.915193e+04 0.000000e+00 0.000000e+00 0.000000e+00 0.000000e+00
-7.441850e+04 1.295027e+04 0.000000e+00 1.295027e+04 -7.180638e+04 0.000000e+00 0.000000e+00 0.000000e+00 0.000000e+00
-8.786454e+04 2.315341e+04 0.000000e+00 2.315341e+04 -1.052252e+05 0.000000e+00 0.000000e+00 0.000000e+00 0.000000e+00
-8.709265e+04 2.228141e+04 0.000000e+00 2.228141e+04 -1.044232e+05 0.000000e+00 0.000000e+00 0.000000e+00 0.000000e+00
-8.895063e+04 2.161352e+04 0.000000e+00 2.161352e+04 -1.037414e+05 0.000000e+00 0.000000e+00 0.000000e+00 0.000000e+00
-9.267759e+04 2.189681e+04 0.000000e+00 2.189681e+04 -1.021583e+05 0.000000e+00 0.000000e+00 0.000000e+00 0.000000e+00
-9.634729e+04 2.226560e+04 0.000000e+00 2.226560e+04 -9.960788e+04 0.000000e+00 0.000000e+00 0.000000e+00 0.000000e+00
-9.943880e+04 2.230422e+04 0.000000e+00 2.230422e+04 -9.587005e+04 0.000000e+00 0.000000e+00 0.000000e+00 0.000000e+00
-1.020752e+05 2.157319e+04 0.000000e+00 2.157319e+04 -9.092946e+04 0.000000e+00 0.000000e+00 0.000000e+00 0.000000e+00
-1.029885e+05 1.970146e+04 0.000000e+00 1.970146e+04 -8.409772e+04 0.000000e+00 0.000000e+00 0.000000e+00 0.000000e+00
-1.021488e+05 1.535479e+04 0.000000e+00 1.535479e+04 -7.593998e+04 0.000000e+00 0.000000e+00 0.000000e+00 0.000000e+00
-9.150745e+04 7.020848e+03 0.000000e+00 7.020848e+03 -6.816430e+04 0.000000e+00 0.000000e+00 0.000000e+00 0.000000e+00
-6.628929e+04 9.623297e+02 0.000000e+00 9.623297e+02 -5.796025e+04 0.000000e+00 0.000000e+00 0.000000e+00 0.000000e+00
-8.307164e+04 2.170005e+04 0.000000e+00 2.170005e+04 -9.370752e+04 0.000000e+00 0.000000e+00 0.000000e+00 0.000000e+00
-8.507775e+04 2.108129e+04 0.000000e+00 2.108129e+04 -9.358117e+04 0.000000e+00 0.000000e+00 0.000000e+00 0.000000e+00
-8.874881e+04 1.990930e+04 0.000000e+00 1.990930e+04 -9.199923e+04 0.000000e+00 0.000000e+00 0.000000e+00 0.000000e+00
-9.286911e+04 1.930126e+04 0.000000e+00 1.930126e+04 -8.955987e+04 0.000000e+00 0.000000e+00 0.000000e+00 0.000000e+00
-9.627145e+04 1.858367e+04 0.000000e+00 1.858367e+04 -8.640638e+04 0.000000e+00 0.000000e+00 0.000000e+00 0.000000e+00
-9.879521e+04 1.739255e+04 0.000000e+00 1.739255e+04 -8.237784e+04 0.000000e+00 0.000000e+00 0.000000e+00 0.000000e+00
-1.002326e+05 1.532008e+04 0.000000e+00 1.532008e+04 -7.750927e+04 0.000000e+00 0.000000e+00 0.000000e+00 0.000000e+00
-9.975599e+04 1.201730e+04 0.000000e+00 1.201730e+04 -7.188583e+04 0.000000e+00 0.000000e+00 0.000000e+00 0.000000e+00
-9.576053e+04 6.809808e+03 0.000000e+00 6.809808e+03 -6.651267e+04 0.000000e+00 0.000000e+00 0.000000e+00 0.000000e+00
-8.189895e+04 9.647969e+02 0.000000e+00 9.647969e+02 -6.228132e+04 0.000000e+00 0.000000e+00 0.000000e+00 0.000000e+00
-6.267482e+04 -1.353286e+03 0.000000e+00 -1.353286e+03 -5.784020e+04 0.000000e+00 0.000000e+00 0.000000e+00 0.000000e+00
-7.860784e+04 1.982268e+04 0.000000e+00 1.982268e+04 -8.447071e+04 0.000000e+00 0.000000e+00 0.000000e+00 0.000000e+00
-8.296847e+04 1.927908e+04 0.000000e+00 1.927908e+04 -8.484091e+04 0.000000e+00 0.000000e+00 0.000000e+00 0.000000e+00
-8.774279e+04 1.761239e+04 0.000000e+00 1.761239e+04 -8.272816e+04 0.000000e+00 0.000000e+00 0.000000e+00 0.000000e+00
-9.188690e+04 1.630732e+04 0.000000e+00 1.630732e+04 -8.024041e+04 0.000000e+00 0.000000e+00 0.000000e+00 0.000000e+00
-9.492998e+04 1.477319e+04 0.000000e+00 1.477319e+04 -7.725490e+04 0.000000e+00 0.000000e+00 0.000000e+00 0.000000e+00
-9.680292e+04 1.274938e+04 0.000000e+00 1.274938e+04 -7.368463e+04 0.000000e+00 0.000000e+00 0.000000e+00 0.000000e+00
-9.718152e+04 1.002796e+04 0.000000e+00 1.002796e+04 -6.977992e+04 0.000000e+00 0.000000e+00 0.000000e+00 0.000000e+00
-9.533615e+04 6.412284e+03 0.000000e+00 6.412284e+03 -6.588938e+04 0.000000e+00 0.000000e+00 0.000000e+00 0.000000e+00
-8.973262e+04 2.101788e+03 0.000000e+00 2.101788e+03 -6.256391e+04 0.000000e+00 0.000000e+00 0.000000e+00 0.000000e+00
-7.812002e+04 -1.018251e+03 0.000000e+00 -1.018251e+03 -6.047648e+04 0.000000e+00 0.000000e+00 0.000000e+00 0.000000e+00
-6.555578e+04 -1.830657e+03 0.000000e+00 -1.830657e+03 -5.830449e+04 0.000000e+00 0.000000e+00 0.000000e+00 0.000000e+00
-7.465440e+04 1.791272e+04 0.000000e+00 1.791272e+04 -7.736450e+04 0.000000e+00 0.000000e+00 0.000000e+00 0.000000e+00
-8.062953e+04 1.730322e+04 0.000000e+00 1.730322e+04 -7.802919e+04 0.000000e+00 0.000000e+00 0.000000e+00 0.000000e+00
-8.609558e+04 1.526313e+04 0.000000e+00 1.526313e+04 -7.586888e+04 0.000000e+00 0.000000e+00 0.000000e+00 0.000000e+00
-9.015695e+04 1.344542e+04 0.000000e+00 1.344542e+04 -7.356825e+04 0.000000e+00 0.000000e+00 0.000000e+00 0.000000e+00
-9.282130e+04 1.139999e+04 0.000000e+00 1.139999e+04 -7.093734e+04 0.000000e+00 0.000000e+00 0.000000e+00 0.000000e+00
-9.408620e+04 8.991869e+03 0.000000e+00 8.991869e+03 -6.814734e+04 0.000000e+00 0.000000e+00 0.000000e+00 0.000000e+00
-9.373443e+04 6.141557e+03 0.000000e+00 6.141557e+03 -6.534740e+04 0.000000e+00 0.000000e+00 0.000000e+00 0.000000e+00
-9.114466e+04 2.864200e+03 0.000000e+00 2.864200e+03 -6.276403e+04 0.000000e+00 0.000000e+00 0.000000e+00 0.000000e+00
-8.578388e+04 -2.172862e+02 0.000000e+00 -2.172862e+02 -6.087716e+04 0.000000e+00 0.000000e+00 0.000000e+00 0.000000e+00
-7.705584e+04 -1.633678e+03 0.000000e+00 -1.633678e+03 -5.998540e+04 0.000000e+00 0.000000e+00 0.000000e+00 0.000000e+00
-6.885268e+04 -1.612103e+03 0.000000e+00 -1.612103e+03 -5.883194e+04 0.000000e+00 0.000000e+00 0.000000e+00 0.000000e+00
-7.133892e+04 1.598683e+04 0.000000e+00 1.598683e+04 -7.227609e+04 0.000000e+00 0.000000e+00 0.000000e+00 0.000000e+00
-7.809134e+04 1.529162e+04 0.000000e+00 1.529162e+04 -7.292479e+04 0.000000e+00 0.000000e+00 0.000000e+00 0.000000e+00
-8.402610e+04 1.303817e+04 0.000000e+00 1.303817e+04 -7.086038e+04 0.000000e+00 0.000000e+00 0.000000e+00 0.000000e+00
-8.795427e+04 1.092850e+04 0.000000e+00 1.092850e+04 -6.882423e+04 0.000000e+00 0.000000e+00 0.000000e+00 0.000000e+00
-9.031385e+04 8.689834e+03 0.000000e+00 8.689834e+03 -6.675959e+04 0.000000e+00 0.000000e+00 0.000000e+00 0.000000e+00
-9.119626e+04 6.213798e+03 0.000000e+00 6.213798e+03 -6.468830e+04 0.000000e+00 0.000000e+00 0.000000e+00 0.000000e+00
-9.044501e+04 3.494363e+03 0.000000e+00 3.494363e+03 -6.271036e+04 0.000000e+00 0.000000e+00 0.000000e+00 0.000000e+00
-8.783380e+04 7.915084e+02 0.000000e+00 7.915084e+02 -6.108560e+04 0.000000e+00 0.000000e+00 0.000000e+00 0.000000e+00
-8.346001e+04 -1.242469e+03 0.000000e+00 -1.242469e+03 -6.014289e+04 0.000000e+00 0.000000e+00 0.000000e+00 0.000000e+00
-7.729330e+04 -1.704788e+03 0.000000e+00 -1.704788e+03 -5.983193e+04 0.000000e+00 0.000000e+00 0.000000e+00 0.000000e+00
-7.195431e+04 -1.360447e+03 0.000000e+00 -1.360447e+03 -5.916732e+04 0.000000e+00 0.000000e+00 0.000000e+00 0.000000e+00
-6.866415e+04 1.395286e+04 0.000000e+00 1.395286e+04 -6.868057e+04 0.000000e+00 0.000000e+00 0.000000e+00 0.000000e+00
-7.557557e+04 1.329411e+04 0.000000e+00 1.329411e+04 -6.921391e+04 0.000000e+00 0.000000e+00 0.000000e+00 0.000000e+00
-8.173376e+04 1.107320e+04 0.000000e+00 1.107320e+04 -6.732778e+04 0.000000e+00 0.000000e+00 0.000000e+00 0.000000e+00
-8.557146e+04 8.895315e+03 0.000000e+00 8.895315e+03 -6.565052e+04 0.000000e+00 0.000000e+00 0.000000e+00 0.000000e+00
-8.772031e+04 6.618250e+03 0.000000e+00 6.618250e+03 -6.402804e+04 0.000000e+00 0.000000e+00 0.000000e+00 0.000000e+00
-8.838530e+04 4.197924e+03 0.000000e+00 4.197924e+03 -6.246716e+04 0.000000e+00 0.000000e+00 0.000000e+00 0.000000e+00
-8.756610e+04 1.775533e+03 0.000000e+00 1.775533e+03 -6.112286e+04 0.000000e+00 0.000000e+00 0.000000e+00 0.000000e+00
-8.542412e+04 -3.039718e+02 0.000000e+00 -3.039718e+02 -6.020155e+04 0.000000e+00 0.000000e+00 0.000000e+00 0.000000e+00
-8.220291e+04 -1.594189e+03 0.000000e+00 -1.594189e+03 -5.980906e+04 0.000000e+00 0.000000e+00 0.000000e+00 0.000000e+00
-7.804227e+04 -1.575430e+03 0.000000e+00 -1.575430e+03 -5.978550e+04 0.000000e+00 0.000000e+00 0.000000e+00 0.000000e+00
-7.464980e+04 -1.110136e+03 0.000000e+00 -1.110136e+03 -5.940768e+04 0.000000e+00 0.000000e+00 0.000000e+00 0.000000e+00
-6.691134e+04 1.205546e+04 0.000000e+00 1.205546e+04 -6.631562e+04 0.000000e+00 0.000000e+00 0.000000e+00 0.000000e+00
-7.336425e+04 1.139941e+04 0.000000e+00 1.139941e+04 -6.665054e+04 0.000000e+00 0.000000e+00 0.000000e+00 0.000000e+00
-7.943684e+04 9.338673e+03 0.000000e+00 9.338673e+03 -6.494243e+04 0.000000e+00 0.000000e+00 0.000000e+00 0.000000e+00
-8.315698e+04 7.211251e+03 0.000000e+00 7.211251e+03 -6.351051e+04 0.000000e+00 0.000000e+00 0.000000e+00 0.000000e+00
-8.515724e+04 5.007686e+03 0.000000e+00 5.007686e+03 -6.218978e+04 0.000000e+00 0.000000e+00 0.000000e+00 0.000000e+00
-8.579406e+04 2.782302e+03 0.000000e+00 2.782302e+03 -6.104454e+04 0.000000e+00 0.000000e+00 0.000000e+00 0.000000e+00
-8.522798e+04 7.557418e+02 0.000000e+00 7.557418e+02 -6.019790e+04 0.000000e+00 0.000000e+00 0.000000e+00 0.000000e+00
-8.373686e+04 -7.969172e+02 0.000000e+00 -7.969172e+02 -5.974029e+04 0.000000e+00 0.000000e+00 0.000000e+00 0.000000e+00
-8.157312e+04 -1.601474e+03 0.000000e+00 -1.601474e+03 -5.965363e+04 0.000000e+00 0.000000e+00 0.000000e+00 0.000000e+00
-7.895087e+04 -1.359964e+03 0.000000e+00 -1.359964e+03 -5.977782e+04 0.000000e+00 0.000000e+00 0.000000e+00 0.000000e+00
-7.692565e+04 -8.820876e+02 0.000000e+00 -8.820876e+02 -5.959302e+04 0.000000e+00 0.000000e+00 0.000000e+00 0.000000e+00
-6.563157e+04 1.014465e+04 0.000000e+00 1.014465e+04 -6.500511e+04 0.000000e+00 0.000000e+00 0.000000e+00 0.000000e+00
-7.143494e+04 9.545745e+03 0.000000e+00 9.545745e+03 -6.504586e+04 0.000000e+00 0.000000e+00 0.000000e+00 0.000000e+00
-7.722034e+04 7.725302e+03 0.000000e+00 7.725302e+03 -6.344095e+04 0.000000e+00 0.000000e+00 0.000000e+00 0.000000e+00
-8.083116e+04 5.766820e+03 0.000000e+00 5.766820e+03 -6.212912e+04 0.000000e+00 0.000000e+00 0.000000e+00 0.000000e+00
-8.278727e+04 3.753342e+03 0.000000e+00 3.753342e+03 -6.103409e+04 0.000000e+00 0.000000e+00 0.000000e+00 0.000000e+00
-8.355765e+04 1.834804e+03 0.000000e+00 1.834804e+03 -6.019813e+04 0.000000e+00 0.000000e+00 0.000000e+00 0.000000e+00
-8.339747e+04 2.084444e+02 0.000000e+00 2.084444e+02 -5.969544e+04 0.000000e+00 0.000000e+00 0.000000e+00 0.000000e+00
-8.256719e+04 -9.365027e+02 0.000000e+00 -9.365027e+02 -5.952045e+04 0.000000e+00 0.000000e+00 0.000000e+00 0.000000e+00
-8.130772e+04 -1.434598e+03 0.000000e+00 -1.434598e+03 -5.959712e+04 0.000000e+00 0.000000e+00 0.000000e+00 0.000000e+00
-7.983371e+04 -1.118136e+03 0.000000e+00 -1.118136e+03 -5.978906e+04 0.000000e+00 0.000000e+00 0.000000e+00 0.000000e+00
-7.877020e+04 -6.792607e+02 0.000000e+00 -6.792607e+02 -5.974886e+04 0.000000e+00 0.000000e+00 0.000000e+00 0.000000e+00
-6.471057e+04 8.164909e+03 0.000000e+00 8.164909e+03 -6.432464e+04 0.000000e+00 0.000000e+00 0.000000e+00 0.000000e+00
-6.981667e+04 7.648709e+03 0.000000e+00 7.648709e+03 -6.413649e+04 0.000000e+00 0.000000e+00 0.000000e+00 0.000000e+00
-7.525344e+04 6.149681e+03 0.000000e+00 6.149681e+03 -6.256487e+04 0.000000e+00 0.000000e+00 0.000000e+00 0.000000e+00
-7.875194e+04 4.456880e+03 0.000000e+00 4.456880e+03 -6.130595e+04 0.000000e+00 0.000000e+00 0.000000e+00 0.000000e+00
-8.075344e+04 2.760202e+03 0.000000e+00 2.760202e+03 -6.034074e+04 0.000000e+00 0.000000e+00 0.000000e+00 0.000000e+00
-8.174377e+04 1.215022e+03 0.000000e+00 1.215022e+03 -5.972127e+04 0.000000e+00 0.000000e+00 0.000000e+00 0.000000e+00
-8.200241e+04 -3.831339e+01 0.000000e+00 -3.831339e+01 -5.943252e+04 0.000000e+00 0.000000e+00 0.000000e+00 0.000000e+00
-8.175981e+04 -8.741297e+02 0.000000e+00 -8.741297e+02 -5.941550e+04 0.000000e+00 0.000000e+00 0.000000e+00 0.000000e+00
-8.123002e+04 -1.183412e+03 0.000000e+00 -1.183412e+03 -5.957923e+04 0.000000e+00 0.000000e+00 0.000000e+00 0.000000e+00
-8.061155e+04 -8.755591e+02 0.000000e+00 -8.755591e+02 -5.980766e+04 0.000000e+00 0.000000e+00 0.000000e+00 0.000000e+00
-8.022686e+04 -5.100272e+02 0.000000e+00 -5.100272e+02 -5.986650e+04 0.000000e+00 0.000000e+00 0.000000e+00 0.000000e+00
-6.409049e+04 6.120303e+03 0.000000e+00 6.120303e+03 -6.395431e+04 0.000000e+00 0.000000e+00 0.000000e+00 0.000000e+00
-6.855633e+04 5.712168e+03 0.000000e+00 5.712168e+03 -6.364125e+04 0.000000e+00 0.000000e+00 0.000000e+00 0.000000e+00
-7.361541e+04 4.578160e+03 0.000000e+00 4.578160e+03 -6.205417e+04 0.000000e+00 0.000000e+00 0.000000e+00 0.000000e+00
-7.703968e+04 3.238288e+03 0.000000e+00 3.238288e+03 -6.083394e+04 0.000000e+00 0.000000e+00 0.000000e+00 0.000000e+00
-7.913845e+04 1.937423e+03 0.000000e+00 1.937423e+03 -5.997407e+04 0.000000e+00 0.000000e+00 0.000000e+00 0.000000e+00
-8.036222e+04 7.910131e+02 0.000000e+00 7.910131e+02 -5.947736e+04 0.000000e+00 0.000000e+00 0.000000e+00 0.000000e+00
-8.097446e+04 -1.198287e+02 0.000000e+00 -1.198287e+02 -5.930311e+04 0.000000e+00 0.000000e+00 0.000000e+00 0.000000e+00
-8.120254e+04 -7.058835e+02 0.000000e+00 -7.058835e+02 -5.937396e+04 0.000000e+00 0.000000e+00 0.000000e+00 0.000000e+00
-8.122945e+04 -8.947170e+02 0.000000e+00 -8.947170e+02 -5.958863e+04 0.000000e+00 0.000000e+00 0.000000e+00 0.000000e+00
-8.123825e+04 -6.407714e+02 0.000000e+00 -6.407714e+02 -5.981651e+04 0.000000e+00 0.000000e+00 0.000000e+00 0.000000e+00
-8.133143e+04 -3.634258e+02 0.000000e+00 -3.634258e+02 -5.994604e+04 0.000000e+00 0.000000e+00 0.000000e+00 0.000000e+00
-6.365812e+04 4.042756e+03 0.000000e+00 4.042756e+03 -6.375876e+04 0.000000e+00 0.000000e+00 0.000000e+00 0.000000e+00
-6.766510e+04 3.744269e+03 0.000000e+00 3.744269e+03 -6.334794e+04 0.000000e+00 0.000000e+00 0.000000e+00 0.000000e+00
-7.240112e+04 2.988257e+03 0.000000e+00 2.988257e+03 -6.176285e+04 0.000000e+00 0.000000e+00 0.000000e+00 0.000000e+00
-7.578091e+04 2.092535e+03 0.000000e+00 2.092535e+03 -6.057079e+04 0.000000e+00 0.000000e+00 0.000000e+00 0.000000e+00
-7.799312e+04 1.231927e+03 0.000000e+00 1.231927e+03 -5.978841e+04 0.000000e+00 0.000000e+00 0.000000e+00 0.000000e+00
-7.939168e+04 4.766670e+02 0.000000e+00 4.766670e+02 -5.937297e+04 0.000000e+00 0.000000e+00 0.000000e+00 0.000000e+00
-8.026718e+04 -1.138585e+02 0.000000e+00 -1.138585e+02 -5.926332e+04 0.000000e+00 0.000000e+00 0.000000e+00 0.000000e+00
-8.084026e+04 -4.855126e+02 0.000000e+00 -4.855126e+02 -5.937590e+04 0.000000e+00 0.000000e+00 0.000000e+00 0.000000e+00
-8.125962e+04 -5.938180e+02 0.000000e+00 -5.938180e+02 -5.960939e+04 0.000000e+00 0.000000e+00 0.000000e+00 0.000000e+00
-8.169032e+04 -4.165653e+02 0.000000e+00 -4.165653e+02 -5.982543e+04 0.000000e+00 0.000000e+00 0.000000e+00 0.000000e+00
-8.209395e+04 -2.315021e+02 0.000000e+00 -2.315021e+02 -6.000668e+04 0.000000e+00 0.000000e+00 0.000000e+00 0.000000e+00
-6.337661e+04 1.885735e+03 0.000000e+00 1.885735e+03 -6.350819e+04 0.000000e+00 0.000000e+00 0.000000e+00 0.000000e+00
-6.715427e+04 1.785350e+03 0.000000e+00 1.785350e+03 -6.307145e+04 0.000000e+00 0.000000e+00 0.000000e+00 0.000000e+00
-7.167789e+04 1.439472e+03 0.000000e+00 1.439472e+03 -6.156141e+04 0.000000e+00 0.000000e+00 0.000000e+00 0.000000e+00
-7.502612e+04 1.016701e+03 0.000000e+00 1.016701e+03 -6.043403e+04 0.000000e+00 0.000000e+00 0.000000e+00 0.000000e+00
-7.731163e+04 5.994931e+02 0.000000e+00 5.994931e+02 -5.971176e+04 0.000000e+00 0.000000e+00 0.000000e+00 0.000000e+00
-7.881738e+04 2.248210e+02 0.000000e+00 2.248210e+02 -5.933800e+04 0.000000e+00 0.000000e+00 0.000000e+00 0.000000e+00
-7.985644e+04 -6.628367e+01 0.000000e+00 -6.628367e+01 -5.925818e+04 0.000000e+00 0.000000e+00 0.000000e+00 0.000000e+00
-8.063578e+04 -2.455390e+02 0.000000e+00 -2.455390e+02 -5.938861e+04 0.000000e+00 0.000000e+00 0.000000e+00 0.000000e+00
-8.129066e+04 -2.948921e+02 0.000000e+00 -2.948921e+02 -5.962385e+04 0.000000e+00 0.000000e+00 0.000000e+00 0.000000e+00
-8.195841e+04 -2.046918e+02 0.000000e+00 -2.046918e+02 -5.983500e+04 0.000000e+00 0.000000e+00 0.000000e+00 0.000000e+00
-8.253373e+04 -1.140803e+02 0.000000e+00 -1.140803e+02 -6.004188e+04 0.000000e+00 0.000000e+00 0.000000e+00 0.000000e+00
-6.317616e+04 3.988711e+02 0.000000e+00 3.988711e+02 -6.310629e+04 0.000000e+00 0.000000e+00 0.000000e+00 0.000000e+00
-6.695667e+04 4.626138e+02 0.000000e+00 4.626138e+02 -6.278950e+04 0.000000e+00 0.000000e+00 0.000000e+00 0.000000e+00
-7.143971e+04 4.072737e+02 0.000000e+00 4.072737e+02 -6.146203e+04 0.000000e+00 0.000000e+00 0.000000e+00 0.000000e+00
-7.478304e+04 2.823517e+02 0.000000e+00 2.823517e+02 -6.038832e+04 0.000000e+00 0.000000e+00 0.000000e+00 0.000000e+00
-7.709023e+04 1.373197e+02 0.000000e+00 1.373197e+02 -5.969305e+04 0.000000e+00 0.000000e+00 0.000000e+00 0.000000e+00
-7.862696e+04 -1.011309e+00 0.000000e+00 -1.011309e+00 -5.932716e+04 0.000000e+00 0.000000e+00 0.000000e+00 0.000000e+00
-7.972249e+04 -1.118291e+02 0.000000e+00 -1.118291e+02 -5.925741e+04 0.000000e+00 0.000000e+00 0.000000e+00 0.000000e+00
-8.057076e+04 -1.765716e+02 0.000000e+00 -1.765716e+02 -5.939557e+04 0.000000e+00 0.000000e+00 0.000000e+00 0.000000e+00
-8.130296e+04 -1.944135e+02 0.000000e+00 -1.944135e+02 -5.963066e+04 0.000000e+00 0.000000e+00 0.000000e+00 0.000000e+00
-8.204814e+04 -1.582499e+02 0.000000e+00 -1.582499e+02 -5.984009e+04 0.000000e+00 0.000000e+00 0.000000e+00 0.000000e+00
-8.267917e+04 -1.227705e+02 0.000000e+00 -1.227705e+02 -6.004933e+04 0.000000e+00 0.000000e+00 0.000000e+00 0.000000e+00
</DataArray>
<DataArray Name="vol_eps" type="Float64" NumberOfComponents="1" format="ascii">
-1.035282e-02
-9.125802e-03
-8.584333e-03
-8.290441e-03
-8.364856e-03
-8.932747e-03
-9.957560e-03
-1.137956e-02
-1.316976e-02
-1.506654e-02
-1.574683e-02
-9.543269e-03
-8.407908e-03
-7.955959e-03
-7.769254e-03
-7.944242e-03
-8.508281e-03
-9.338947e-03
-1.050662e-02
-1.207863e-02
-1.402198e-02
-1.700593e-02
-7.602327e-03
-6.765142e-03
-6.547843e-03
-6.583433e-03
-6.719485e-03
-6.929703e-03
-7.244163e-03
-7.726716e-03
-8.464674e-03
-1.016791e-02
-1.350366e-02
-5.604262e-03
-5.155587e-03
-5.018053e-03
-4.877424e-03
-4.515203e-03
-3.930751e-03
-3.173063e-03
-1.998762e-03
-2.738547e-04
2.386425e-03
4.971106e-03
-4.318512e-03
-4.289834e-03
-4.498144e-03
-4.686409e-03
-4.769592e-03
-4.720964e-03
-4.561583e-03
-4.160644e-03
-3.605827e-03
-2.501522e-03
-2.084801e-04
-3.230021e-03
-3.496001e-03
-3.823096e-03
-3.992868e-03
-4.030271e-03
-3.936047e-03
-3.711771e-03
-3.314540e-03
-2.722717e-03
-1.547779e-03
2.960790e-06
-2.363627e-03
-2.849070e-03
-3.206457e-03
-3.359172e-03
-3.380307e-03
-3.275036e-03
-3.045751e-03
-2.671017e-03
-2.084090e-03
-1.180966e-03
-2.285223e-04
-1.721535e-03
-2.317124e-03
-2.682006e-03
-2.829873e-03
-2.845232e-03
-2.751038e-03
-2.539823e-03
-2.194115e-03
-1.710245e-03
-1.077179e-03
-4.775623e-04
-1.279176e-03
-1.883573e-03
-2.237669e-03
-2.383941e-03
-2.410878e-03
-2.331805e-03
-2.144503e-03
-1.861961e-03
-1.506716e-03
-1.080636e-03
-6.968157e-04
-9.606643e-04
-1.524145e-03
-1.863395e-03
-2.017919e-03
-2.052889e-03
-1.990316e-03
-1.845348e-03
-1.642352e-03
-1.400470e-03
-1.124673e-03
-8.826017e-04
-7.419222e-04
-1.236376e-03
-1.554250e-03
-1.712653e-03
-1.755189e-03
-1.719687e-03
-1.627614e-03
-1.498904e-03
-1.348158e-03
-1.182014e-03
-1.038357e-03
-6.084071e-04
-1.019655e-03
-1.310667e-03
-1.464429e-03
-1.521040e-03
-1.515310e-03
-1.471918e-03
-1.405814e-03
-1.326823e-03
-1.241568e-03
-1.168641e-03
-5.315554e-04
-8.680404e-04
-1.126829e-03
-1.272297e-03
-1.341044e-03
-1.364279e-03
-1.361795e-03
-1.344959e-03
-1.320679e-03
-1.294689e-03
-1.272823e-03
-4.905407e-04
-7.676917e-04
-9.902901e-04
-1.129143e-03
-1.209387e-03
-1.256106e-03
-1.284961e-03
-1.304972e-03
-1.321111e-03
-1.336537e-03
-1.350948e-03
-4.690824e-04
-7.016918e-04
-8.965053e-04
-1.030163e-03
-1.120319e-03
-1.184833e-03
-1.235320e-03
-1.280727e-03
-1.324110e-03
-1.367033e-03
-1.406030e-03
-4.438051e-04
-6.566918e-04
-8.406138e-04
-9.743942e-04
-1.070419e-03
-1.144181e-03
-1.208023e-03
-1.267864e-03
-1.326904e-03
-1.385679e-03
-1.437768e-03
-4.081577e-04
-6.282537e-04
-8.205431e-04
-9.570782e-04
-1.055035e-03
-1.130640e-03
-1.199267e-03
-1.264085e-03
-1.328246e-03
-1.392138e-03
-1.447800e-03
</DataArray>
</PointData>
</Piece>
</UnstructuredGrid>
</VTKFile>
