<?xml version="1.0"?>
<VTKFile type="UnstructuredGrid" version="0.1">
<UnstructuredGrid>
<FieldData>
<DataArray Name="TIME" type="Float64" format="ascii" NumberOfTuples="1">
0.000000e+00
</DataArray>
</FieldData>
<FieldData>
<DataArray Name="CYCLE" type="Int32" format="ascii" NumberOfTuples="1">
0
</DataArray>
</FieldData>
<Piece NumberOfPoints="187" NumberOfCells="160">
<Points>
<DataArray NumberOfComponents="3" type="Float64" format="ascii">
0.000000e+00 0.000000e+00 0.000000e+00
0.000000e+00 1.983801e-01 0.000000e+00
0.000000e+00 3.961579e-01 0.000000e+00
0.000000e+00 5.934830e-01 0.000000e+00
0.000000e+00 7.904587e-01 0.000000e+00
0.000000e+00 9.872007e-01 0.000000e+00
0.000000e+00 1.183804e+00 0.000000e+00
0.000000e+00 1.380381e+00 0.000000e+00
0.000000e+00 1.577121e+00 0.000000e+00
0.000000e+00 1.774336e+00 0.000000e+00
0.000000e+00 1.971875e+00 0.000000e+00
2.250000e-01 0.000000e+00 0.000000e+00
2.257055e-01 1.985034e-01 0.000000e+00
2.263364e-01 3.964717e-01 0.000000e+00
2.267737e-01 5.940006e-01 0.000000e+00
2.270375e-01 7.911748e-01 0.000000e+00
2.271448e-01 9.880643e-01 0.000000e+00
2.271012e-01 1.184729e+00 0.000000e+00
2.268557e-01 1.381263e+00 0.000000e+00
2.263227e-01 1.577795e+00 0.000000e+00
2.254337e-01 1.774477e+00 0.000000e+00
2.250000e-01 1.971875e+00 0.000000e+00
4.500000e-01 0.000000e+00 0.000000e+00
4.512540e-01 1.987599e-01 0.000000e+00
4.523455e-01 3.972290e-01 0.000000e+00
4.531719e-01 5.954230e-01 0.000000e+00
4.537480e-01 7.933136e-01 0.000000e+00
4.541359e-01 9.908435e-01 0.000000e+00
4.542843e-01 1.188009e+00 0.000000e+00
4.540929e-01 1.384765e+00 0.000000e+00
4.535330e-01 1.581029e+00 0.000000e+00
4.524726e-01 1.776695e+00 0.000000e+00
4.500000e-01 1.971875e+00 0.000000e+00
6.750000e-01 0.000000e+00 0.000000e+00
6.765542e-01 1.990462e-01 0.000000e+00
6.778096e-01 3.980269e-01 0.000000e+00
6.787845e-01 5.970075e-01 0.000000e+00
6.795435e-01 7.960165e-01 0.000000e+00
6.801543e-01 9.950870e-01 0.000000e+00
6.805815e-01 1.194271e+00 0.000000e+00
6.807197e-01 1.393603e+00 0.000000e+00
6.805054e-01 1.593116e+00 0.000000e+00
6.797556e-01 1.793019e+00 0.000000e+00
6.767589e-01 1.993605e+00 0.000000e+00
9.000000e-01 0.000000e+00 0.000000e+00
9.016427e-01 1.992774e-01 0.000000e+00
9.028614e-01 3.985839e-01 0.000000e+00
9.037762e-01 5.979465e-01 0.000000e+00
9.044677e-01 7.973771e-01 0.000000e+00
9.049699e-01 9.968988e-01 0.000000e+00
9.052575e-01 1.196545e+00 0.000000e+00
9.052508e-01 1.396346e+00 0.000000e+00
9.048619e-01 1.596339e+00 0.000000e+00
9.037436e-01 1.796543e+00 0.000000e+00
9.017689e-01 1.996517e+00 0.000000e+00
1.125000e+00 0.000000e+00 0.000000e+00
1.126596e+00 1.994814e-01 0.000000e+00
1.127715e+00 3.990303e-01 0.000000e+00
1.128538e+00 5.986499e-01 0.000000e+00
1.129142e+00 7.983430e-01 0.000000e+00
1.129541e+00 9.981261e-01 0.000000e+00
1.129712e+00 1.198017e+00 0.000000e+00
1.129603e+00 1.398028e+00 0.000000e+00
1.129125e+00 1.598156e+00 0.000000e+00
1.128208e+00 1.798303e+00 0.000000e+00
1.126989e+00 1.998352e+00 0.000000e+00
1.350000e+00 0.000000e+00 0.000000e+00
1.351461e+00 1.996395e-01 0.000000e+00
1.352459e+00 3.993627e-01 0.000000e+00
1.353191e+00 5.991555e-01 0.000000e+00
1.353708e+00 7.990191e-01 0.000000e+00
1.354022e+00 9.989600e-01 0.000000e+00
1.354122e+00 1.198984e+00 0.000000e+00
1.353970e+00 1.399084e+00 0.000000e+00
1.353542e+00 1.599234e+00 0.000000e+00
1.352866e+00 1.799365e+00 0.000000e+00
1.352096e+00 1.999400e+00 0.000000e+00
1.575000e+00 0.000000e+00 0.000000e+00
1.576275e+00 1.997580e-01 0.000000e+00
1.577152e+00 3.996011e-01 0.000000e+00
1.577793e+00 5.995092e-01 0.000000e+00
1.578236e+00 7.994789e-01 0.000000e+00
1.578491e+00 9.995106e-01 0.000000e+00
1.578550e+00 1.199602e+00 0.000000e+00
1.578404e+00 1.399740e+00 0.000000e+00
1.578069e+00 1.599892e+00 0.000000e+00
1.577599e+00 1.800008e+00 0.000000e+00
1.577114e+00 2.000054e+00 0.000000e+00
1.800000e+00 0.000000e+00 0.000000e+00
1.801070e+00 1.998400e-01 0.000000e+00
1.801831e+00 3.997606e-01 0.000000e+00
1.802387e+00 5.997400e-01 0.000000e+00
1.802766e+00 7.997735e-01 0.000000e+00
1.802976e+00 9.998583e-01 0.000000e+00
1.803020e+00 1.199986e+00 0.000000e+00
1.802907e+00 1.400137e+00 0.000000e+00
1.802666e+00 1.600282e+00 0.000000e+00
1.802352e+00 1.800391e+00 0.000000e+00
1.802056e+00 2.000448e+00 0.000000e+00
2.025000e+00 0.000000e+00 0.000000e+00
2.025872e+00 1.998920e-01 0.000000e+00
2.026518e+00 3.998590e-01 0.000000e+00
2.026995e+00 5.998814e-01 0.000000e+00
2.027316e+00 7.999538e-01 0.000000e+00
2.027493e+00 1.000067e+00 0.000000e+00
2.027536e+00 1.200208e+00 0.000000e+00
2.027463e+00 1.400358e+00 0.000000e+00
2.027301e+00 1.600497e+00 0.000000e+00
2.027102e+00 1.800606e+00 0.000000e+00
2.026933e+00 2.000675e+00 0.000000e+00
2.250000e+00 0.000000e+00 0.000000e+00
2.250693e+00 1.999238e-01 0.000000e+00
2.251230e+00 3.999172e-01 0.000000e+00
2.251627e+00 5.999640e-01 0.000000e+00
2.251897e+00 8.000545e-01 0.000000e+00
2.252050e+00 1.000178e+00 0.000000e+00
2.252098e+00 1.200321e+00 0.000000e+00
2.252058e+00 1.400467e+00 0.000000e+00
2.251957e+00 1.600601e+00 0.000000e+00
2.251840e+00 1.800711e+00 0.000000e+00
2.251755e+00 2.000791e+00 0.000000e+00
2.475000e+00 0.000000e+00 0.000000e+00
2.475538e+00 1.999428e-01 0.000000e+00
2.475969e+00 3.999496e-01 0.000000e+00
2.476292e+00 6.000056e-01 0.000000e+00
2.476516e+00 8.001021e-01 0.000000e+00
2.476647e+00 1.000226e+00 0.000000e+00
2.476697e+00 1.200366e+00 0.000000e+00
2.476681e+00 1.400507e+00 0.000000e+00
2.476624e+00 1.600637e+00 0.000000e+00
2.476562e+00 1.800748e+00 0.000000e+00
2.476531e+00 2.000839e+00 0.000000e+00
2.700000e+00 0.000000e+00 0.000000e+00
2.700404e+00 1.999528e-01 0.000000e+00
2.700737e+00 3.999639e-01 0.000000e+00
2.700991e+00 6.000231e-01 0.000000e+00
2.701169e+00 8.001192e-01 0.000000e+00
2.701277e+00 1.000240e+00 0.000000e+00
2.701324e+00 1.200375e+00 0.000000e+00
2.701324e+00 1.400510e+00 0.000000e+00
2.701297e+00 1.600637e+00 0.000000e+00
2.701270e+00 1.800750e+00 0.000000e+00
2.701268e+00 2.000850e+00 0.000000e+00
2.925000e+00 0.000000e+00 0.000000e+00
2.925288e+00 1.999582e-01 0.000000e+00
2.925530e+00 3.999714e-01 0.000000e+00
2.925718e+00 6.000296e-01 0.000000e+00
2.925851e+00 8.001225e-01 0.000000e+00
2.925934e+00 1.000239e+00 0.000000e+00
2.925974e+00 1.200368e+00 0.000000e+00
2.925982e+00 1.400498e+00 0.000000e+00
2.925972e+00 1.600622e+00 0.000000e+00
2.925965e+00 1.800737e+00 0.000000e+00
2.925976e+00 2.000844e+00 0.000000e+00
3.150000e+00 0.000000e+00 0.000000e+00
3.150186e+00 1.999621e-01 0.000000e+00
3.150344e+00 3.999761e-01 0.000000e+00
3.150467e+00 6.000336e-01 0.000000e+00
3.150556e+00 8.001240e-01 0.000000e+00
3.150612e+00 1.000236e+00 0.000000e+00
3.150640e+00 1.200360e+00 0.000000e+00
3.150649e+00 1.400487e+00 0.000000e+00
3.150648e+00 1.600609e+00 0.000000e+00
3.150649e+00 1.800725e+00 0.000000e+00
3.150663e+00 2.000838e+00 0.000000e+00
3.375000e+00 0.000000e+00 0.000000e+00
3.375093e+00 1.999671e-01 0.000000e+00
3.375170e+00 3.999845e-01 0.000000e+00
3.375230e+00 6.000426e-01 0.000000e+00
3.375274e+00 8.001314e-01 0.000000e+00
3.375303e+00 1.000241e+00 0.000000e+00
3.375318e+00 1.200362e+00 0.000000e+00
3.375323e+00 1.400486e+00 0.000000e+00
3.375324e+00 1.600607e+00 0.000000e+00
3.375326e+00 1.800724e+00 0.000000e+00
3.375335e+00 2.000840e+00 0.000000e+00
3.600000e+00 0.000000e+00 0.000000e+00
3.600000e+00 1.999822e-01 0.000000e+00
3.600000e+00 4.000036e-01 0.000000e+00
3.600000e+00 6.000619e-01 0.000000e+00
3.600000e+00 8.001503e-01 0.000000e+00
3.600000e+00 1.000259e+00 0.000000e+00
3.600000e+00 1.200379e+00 0.000000e+00
3.600000e+00 1.400502e+00 0.000000e+00
3.600000e+00 1.600622e+00 0.000000e+00
3.600000e+00 1.800740e+00 0.000000e+00
3.600000e+00 2.000857e+00 0.000000e+00
</DataArray>
</Points>
<Cells>
<DataArray Name="connectivity" type="Int32" format="ascii">
0 11 12 1
1 12 13 2
2 13 14 3
3 14 15 4
4 15 16 5
5 16 17 6
6 17 18 7
7 18 19 8
8 19 20 9
9 20 21 10
11 22 23 12
12 23 24 13
13 24 25 14
14 25 26 15
15 26 27 16
16 27 28 17
17 28 29 18
18 29 30 19
19 30 31 20
20 31 32 21
22 33 34 23
23 34 35 24
24 35 36 25
25 36 37 26
26 37 38 27
27 38 39 28
28 39 40 29
29 40 41 30
30 41 42 31
31 42 43 32
33 44 45 34
34 45 46 35
35 46 47 36
36 47 48 37
37 48 49 38
38 49 50 39
39 50 51 40
40 51 52 41
41 52 53 42
42 53 54 43
44 55 56 45
45 56 57 46
46 57 58 47
47 58 59 48
48 59 60 49
49 60 61 50
50 61 62 51
51 62 63 52
52 63 64 53
53 64 65 54
55 66 67 56
56 67 68 57
57 68 69 58
58 69 70 59
59 70 71 60
60 71 72 61
61 72 73 62
62 73 74 63
63 74 75 64
64 75 76 65
66 77 78 67
67 78 79 68
68 79 80 69
69 80 81 70
70 81 82 71
71 82 83 72
72 83 84 73
73 84 85 74
74 85 86 75
75 86 87 76
77 88 89 78
78 89 90 79
79 90 91 80
80 91 92 81
81 92 93 82
82 93 94 83
83 94 95 84
84 95 96 85
85 96 97 86
86 97 98 87
88 99 100 89
89 100 101 90
90 101 102 91
91 102 103 92
92 103 104 93
93 104 105 94
94 105 106 95
95 106 107 96
96 107 108 97
97 108 109 98
99 110 111 100
100 111 112 101
101 112 113 102
102 113 114 103
103 114 115 104
104 115 116 105
105 116 117 106
106 117 118 107
107 118 119 108
108 119 120 109
110 121 122 111
111 122 123 112
112 123 124 113
113 124 125 114
114 125 126 115
115 126 127 116
116 127 128 117
117 128 129 118
118 129 130 119
119 130 131 120
121 132 133 122
122 133 134 123
123 134 135 124
124 135 136 125
125 136 137 126
126 137 138 127
127 138 139 128
128 139 140 129
129 140 141 130
130 141 142 131
132 143 144 133
133 144 145 134
134 145 146 135
135 146 147 136
136 147 148 137
137 148 149 138
138 149 150 139
139 150 151 140
140 151 152 141
141 152 153 142
143 154 155 144
144 155 156 145
145 156 157 146
146 157 158 147
147 158 159 148
148 159 160 149
149 160 161 150
150 161 162 151
151 162 163 152
152 163 164 153
154 165 166 155
155 166 167 156
156 167 168 157
157 168 169 158
158 169 170 159
159 170 171 160
160 171 172 161
161 172 173 162
162 173 174 163
163 174 175 164
165 176 177 166
166 177 178 167
167 178 179 168
168 179 180 169
169 180 181 170
170 181 182 171
171 182 183 172
172 183 184 173
173 184 185 174
174 185 186 175
</DataArray>
<DataArray Name="offsets" type="Int32" format="ascii">
4
8
12
16
20
24
28
32
36
40
44
48
52
56
60
64
68
72
76
80
84
88
92
96
100
104
108
112
116
120
124
128
132
136
140
144
148
152
156
160
164
168
172
176
180
184
188
192
196
200
204
208
212
216
220
224
228
232
236
240
244
248
252
256
260
264
268
272
276
280
284
288
292
296
300
304
308
312
316
320
324
328
332
336
340
344
348
352
356
360
364
368
372
376
380
384
388
392
396
400
404
408
412
416
420
424
428
432
436
440
444
448
452
456
460
464
468
472
476
480
484
488
492
496
500
504
508
512
516
520
524
528
532
536
540
544
548
552
556
560
564
568
572
576
580
584
588
592
596
600
604
608
612
616
620
624
628
632
636
640
</DataArray>
<DataArray Name="types" type="UInt8" format="ascii">
9
9
9
9
9
9
9
9
9
9
9
9
9
9
9
9
9
9
9
9
9
9
9
9
9
9
9
9
9
9
9
9
9
9
9
9
9
9
9
9
9
9
9
9
9
9
9
9
9
9
9
9
9
9
9
9
9
9
9
9
9
9
9
9
9
9
9
9
9
9
9
9
9
9
9
9
9
9
9
9
9
9
9
9
9
9
9
9
9
9
9
9
9
9
9
9
9
9
9
9
9
9
9
9
9
9
9
9
9
9
9
9
9
9
9
9
9
9
9
9
9
9
9
9
9
9
9
9
9
9
9
9
9
9
9
9
9
9
9
9
9
9
9
9
9
9
9
9
9
9
9
9
9
9
9
9
9
9
9
9
</DataArray>
</Cells>
<PointData>
<DataArray Name="disp" type="Float64" NumberOfComponents="3" format="ascii">
0.000000e+00 0.000000e+00 0.000000e+00
0.000000e+00 -1.619887e-03 0.000000e+00
0.000000e+00 -3.842094e-03 0.000000e+00
0.000000e+00 -6.517013e-03 0.000000e+00
0.000000e+00 -9.541254e-03 0.000000e+00
0.000000e+00 -1.279935e-02 0.000000e+00
0.000000e+00 -1.619559e-02 0.000000e+00
0.000000e+00 -1.961882e-02 0.000000e+00
0.000000e+00 -2.287875e-02 0.000000e+00
0.000000e+00 -2.566454e-02 0.000000e+00
0.000000e+00 -2.812500e-02 0.000000e+00
0.000000e+00 0.000000e+00 0.000000e+00
7.055012e-04 -1.496561e-03 0.000000e+00
1.336364e-03 -3.528260e-03 0.000000e+00
1.773680e-03 -5.999335e-03 0.000000e+00
2.037542e-03 -8.825200e-03 0.000000e+00
2.144756e-03 -1.193564e-02 0.000000e+00
2.101234e-03 -1.527152e-02 0.000000e+00
1.855674e-03 -1.873656e-02 0.000000e+00
1.322657e-03 -2.220534e-02 0.000000e+00
4.336640e-04 -2.552300e-02 0.000000e+00
0.000000e+00 -2.812500e-02 0.000000e+00
0.000000e+00 0.000000e+00 0.000000e+00
1.254037e-03 -1.240072e-03 0.000000e+00
2.345524e-03 -2.771057e-03 0.000000e+00
3.171909e-03 -4.577039e-03 0.000000e+00
3.748002e-03 -6.686348e-03 0.000000e+00
4.135872e-03 -9.156494e-03 0.000000e+00
4.284302e-03 -1.199069e-02 0.000000e+00
4.092942e-03 -1.523519e-02 0.000000e+00
3.533028e-03 -1.897121e-02 0.000000e+00
2.472603e-03 -2.330466e-02 0.000000e+00
0.000000e+00 -2.812500e-02 0.000000e+00
0.000000e+00 0.000000e+00 0.000000e+00
1.554226e-03 -9.537868e-04 0.000000e+00
2.809590e-03 -1.973061e-03 0.000000e+00
3.784547e-03 -2.992501e-03 0.000000e+00
4.543488e-03 -3.983566e-03 0.000000e+00
5.154302e-03 -4.912991e-03 0.000000e+00
5.581488e-03 -5.728959e-03 0.000000e+00
5.719674e-03 -6.396969e-03 0.000000e+00
5.505383e-03 -6.884431e-03 0.000000e+00
4.755601e-03 -6.980675e-03 0.000000e+00
1.758912e-03 -6.394609e-03 0.000000e+00
0.000000e+00 0.000000e+00 0.000000e+00
1.642741e-03 -7.226180e-04 0.000000e+00
2.861420e-03 -1.416061e-03 0.000000e+00
3.776220e-03 -2.053562e-03 0.000000e+00
4.467692e-03 -2.622863e-03 0.000000e+00
4.969883e-03 -3.101232e-03 0.000000e+00
5.257509e-03 -3.454524e-03 0.000000e+00
5.250758e-03 -3.653621e-03 0.000000e+00
4.861909e-03 -3.660612e-03 0.000000e+00
3.743617e-03 -3.457307e-03 0.000000e+00
1.768906e-03 -3.482760e-03 0.000000e+00
0.000000e+00 0.000000e+00 0.000000e+00
1.596254e-03 -5.186017e-04 0.000000e+00
2.714831e-03 -9.697374e-04 0.000000e+00
3.538450e-03 -1.350086e-03 0.000000e+00
4.141539e-03 -1.656995e-03 0.000000e+00
4.540698e-03 -1.873937e-03 0.000000e+00
4.712353e-03 -1.982773e-03 0.000000e+00
4.602875e-03 -1.971487e-03 0.000000e+00
4.125079e-03 -1.843654e-03 0.000000e+00
3.207952e-03 -1.696997e-03 0.000000e+00
1.988908e-03 -1.647791e-03 0.000000e+00
0.000000e+00 0.000000e+00 0.000000e+00
1.461017e-03 -3.605145e-04 0.000000e+00
2.458969e-03 -6.372682e-04 0.000000e+00
3.190929e-03 -8.444880e-04 0.000000e+00
3.707826e-03 -9.809006e-04 0.000000e+00
4.021768e-03 -1.040054e-03 0.000000e+00
4.121513e-03 -1.016468e-03 0.000000e+00
3.969593e-03 -9.155007e-04 0.000000e+00
3.541858e-03 -7.660454e-04 0.000000e+00
2.865614e-03 -6.346887e-04 0.000000e+00
2.096320e-03 -6.002035e-04 0.000000e+00
0.000000e+00 0.000000e+00 0.000000e+00
1.274912e-03 -2.419785e-04 0.000000e+00
2.152312e-03 -3.988775e-04 0.000000e+00
2.793533e-03 -4.908083e-04 0.000000e+00
3.236347e-03 -5.210706e-04 0.000000e+00
3.490754e-03 -4.893251e-04 0.000000e+00
3.549752e-03 -3.981004e-04 0.000000e+00
3.404480e-03 -2.595009e-04 0.000000e+00
3.069093e-03 -1.075026e-04 0.000000e+00
2.599173e-03 7.773382e-06 0.000000e+00
2.114148e-03 5.352895e-05 0.000000e+00
0.000000e+00 0.000000e+00 0.000000e+00
1.069957e-03 -1.599874e-04 0.000000e+00
1.830999e-03 -2.394378e-04 0.000000e+00
2.387304e-03 -2.600461e-04 0.000000e+00
2.766476e-03 -2.265135e-04 0.000000e+00
2.976425e-03 -1.416608e-04 0.000000e+00
3.019578e-03 -1.409237e-05 0.000000e+00
2.906539e-03 1.366581e-04 0.000000e+00
2.665888e-03 2.815537e-04 0.000000e+00
2.351695e-03 3.914500e-04 0.000000e+00
2.056035e-03 4.482710e-04 0.000000e+00
0.000000e+00 0.000000e+00 0.000000e+00
8.724004e-04 -1.079892e-04 0.000000e+00
1.518313e-03 -1.410603e-04 0.000000e+00
1.994971e-03 -1.186306e-04 0.000000e+00
2.315751e-03 -4.622708e-05 0.000000e+00
2.493524e-03 6.686675e-05 0.000000e+00
2.536248e-03 2.081674e-04 0.000000e+00
2.462957e-03 3.584124e-04 0.000000e+00
2.300946e-03 4.972386e-04 0.000000e+00
2.101568e-03 6.056736e-04 0.000000e+00
1.933476e-03 6.748413e-04 0.000000e+00
0.000000e+00 0.000000e+00 0.000000e+00
6.931850e-04 -7.615904e-05 0.000000e+00
1.229666e-03 -8.275286e-05 0.000000e+00
1.626997e-03 -3.605897e-05 0.000000e+00
1.897336e-03 5.451320e-05 0.000000e+00
2.050484e-03 1.781973e-04 0.000000e+00
2.098377e-03 3.207524e-04 0.000000e+00
2.057788e-03 4.670824e-04 0.000000e+00
1.957224e-03 6.012603e-04 0.000000e+00
1.839586e-03 7.105296e-04 0.000000e+00
1.755479e-03 7.910935e-04 0.000000e+00
0.000000e+00 0.000000e+00 0.000000e+00
5.377705e-04 -5.724140e-05 0.000000e+00
9.686003e-04 -5.045651e-05 0.000000e+00
1.291972e-03 5.643609e-06 0.000000e+00
1.515626e-03 1.020741e-04 0.000000e+00
1.646992e-03 2.264699e-04 0.000000e+00
1.696664e-03 3.662150e-04 0.000000e+00
1.680660e-03 5.072252e-04 0.000000e+00
1.624553e-03 6.372466e-04 0.000000e+00
1.562392e-03 7.481938e-04 0.000000e+00
1.530924e-03 8.395173e-04 0.000000e+00
0.000000e+00 0.000000e+00 0.000000e+00
4.038288e-04 -4.716816e-05 0.000000e+00
7.365309e-04 -3.614668e-05 0.000000e+00
9.906320e-04 2.310071e-05 0.000000e+00
1.168469e-03 1.191736e-04 0.000000e+00
1.277009e-03 2.404941e-04 0.000000e+00
1.323964e-03 3.748051e-04 0.000000e+00
1.323720e-03 5.100062e-04 0.000000e+00
1.297398e-03 6.367920e-04 0.000000e+00
1.270022e-03 7.497807e-04 0.000000e+00
1.268497e-03 8.501924e-04 0.000000e+00
0.000000e+00 0.000000e+00 0.000000e+00
2.879892e-04 -4.183745e-05 0.000000e+00
5.303672e-04 -2.861980e-05 0.000000e+00
7.178218e-04 2.964649e-05 0.000000e+00
8.508689e-04 1.225205e-04 0.000000e+00
9.340451e-04 2.390882e-04 0.000000e+00
9.740589e-04 3.678129e-04 0.000000e+00
9.816088e-04 4.980894e-04 0.000000e+00
9.725367e-04 6.222752e-04 0.000000e+00
9.644929e-04 7.370710e-04 0.000000e+00
9.763595e-04 8.445459e-04 0.000000e+00
0.000000e+00 0.000000e+00 0.000000e+00
1.861372e-04 -3.789342e-05 0.000000e+00
3.441535e-04 -2.390237e-05 0.000000e+00
4.668711e-04 3.364964e-05 0.000000e+00
5.555018e-04 1.240111e-04 0.000000e+00
6.115636e-04 2.364083e-04 0.000000e+00
6.403282e-04 3.604268e-04 0.000000e+00
6.493555e-04 4.868277e-04 0.000000e+00
6.483554e-04 6.091608e-04 0.000000e+00
6.489185e-04 7.252441e-04 0.000000e+00
6.626633e-04 8.377156e-04 0.000000e+00
0.000000e+00 0.000000e+00 0.000000e+00
9.322656e-05 -3.284687e-05 0.000000e+00
1.697079e-04 -1.550042e-05 0.000000e+00
2.301817e-04 4.260784e-05 0.000000e+00
2.742808e-04 1.314279e-04 0.000000e+00
3.025621e-04 2.414229e-04 0.000000e+00
3.175108e-04 3.623405e-04 0.000000e+00
3.231788e-04 4.861334e-04 0.000000e+00
3.242451e-04 6.073141e-04 0.000000e+00
3.262327e-04 7.243382e-04 0.000000e+00
3.347386e-04 8.399934e-04 0.000000e+00
0.000000e+00 0.000000e+00 0.000000e+00
0.000000e+00 -1.779166e-05 0.000000e+00
0.000000e+00 3.601672e-06 0.000000e+00
0.000000e+00 6.187738e-05 0.000000e+00
0.000000e+00 1.502681e-04 0.000000e+00
0.000000e+00 2.591877e-04 0.000000e+00
0.000000e+00 3.789412e-04 0.000000e+00
0.000000e+00 5.016777e-04 0.000000e+00
0.000000e+00 6.224570e-04 0.000000e+00
0.000000e+00 7.398420e-04 0.000000e+00
0.000000e+00 8.565328e-04 0.000000e+00
</DataArray>
<DataArray Name="shear" type="Float64" NumberOfComponents="1" format="ascii">
9.071976e-03
1.257898e-02
1.791113e-02
2.192330e-02
2.467847e-02
2.625447e-02
2.659680e-02
2.525894e-02
2.151017e-02
1.603096e-02
1.326677e-02
9.108585e-03
1.213644e-02
1.686567e-02
2.076248e-02
2.390066e-02
2.627595e-02
2.761412e-02
2.748101e-02
2.552499e-02
2.099098e-02
1.676967e-02
9.414363e-03
1.121758e-02
1.417688e-02
1.736746e-02
2.117406e-02
2.555669e-02
3.021780e-02
3.508903e-02
3.998312e-02
4.241611e-02
4.237203e-02
9.495505e-03
1.000341e-02
1.073963e-02
1.204533e-02
1.431443e-02
1.754516e-02
2.155385e-02
2.648107e-02
3.222098e-02
3.571986e-02
3.798497e-02
9.207270e-03
8.876448e-03
8.215924e-03
8.099965e-03
8.378563e-03
8.792339e-03
9.059235e-03
9.044829e-03
8.228481e-03
5.061906e-03
1.504971e-03
8.562991e-03
7.853800e-03
6.713600e-03
6.284493e-03
6.173457e-03
6.143277e-03
5.998840e-03
5.564490e-03
4.499488e-03
2.305195e-03
3.346092e-04
7.646553e-03
6.823350e-03
5.599621e-03
5.093195e-03
4.838926e-03
4.661752e-03
4.417178e-03
3.969700e-03
3.120887e-03
1.674145e-03
5.019165e-04
6.582883e-03
5.829727e-03
4.740631e-03
4.261729e-03
3.991665e-03
3.800093e-03
3.585538e-03
3.224771e-03
2.567506e-03
1.515445e-03
6.957932e-04
5.484523e-03
4.883798e-03
4.025333e-03
3.629913e-03
3.423071e-03
3.290225e-03
3.128970e-03
2.830863e-03
2.311929e-03
1.525057e-03
9.364543e-04
4.450413e-03
4.011960e-03
3.403425e-03
3.130248e-03
3.013580e-03
2.943191e-03
2.824184e-03
2.587704e-03
2.184686e-03
1.594574e-03
1.177339e-03
3.527663e-03
3.232221e-03
2.847008e-03
2.702523e-03
2.674871e-03
2.662910e-03
2.593789e-03
2.422706e-03
2.116175e-03
1.686050e-03
1.401759e-03
2.730178e-03
2.540184e-03
2.339520e-03
2.321638e-03
2.384354e-03
2.433356e-03
2.415483e-03
2.299392e-03
2.076634e-03
1.781405e-03
1.600174e-03
2.046839e-03
1.934198e-03
1.891920e-03
1.997660e-03
2.143127e-03
2.247627e-03
2.271504e-03
2.203266e-03
2.054247e-03
1.868907e-03
1.765595e-03
1.459558e-03
1.409409e-03
1.512728e-03
1.735466e-03
1.952430e-03
2.101708e-03
2.159814e-03
2.131263e-03
2.042659e-03
1.940948e-03
1.894038e-03
9.459640e-04
9.556797e-04
1.213346e-03
1.544654e-03
1.817640e-03
1.997120e-03
2.080002e-03
2.082231e-03
2.038044e-03
1.994612e-03
1.985541e-03
4.811439e-04
5.946389e-04
1.023805e-03
1.430159e-03
1.737528e-03
1.934718e-03
2.031710e-03
2.054068e-03
2.038080e-03
2.029120e-03
2.041259e-03
1.793159e-04
4.429328e-04
9.586011e-04
1.388951e-03
1.708467e-03
1.912546e-03
2.015183e-03
2.045130e-03
2.039253e-03
2.041119e-03
2.059531e-03
</DataArray>
<DataArray Name="stress" type="Float64" NumberOfComponents="9" format="ascii">
-8.853920e+04 3.194576e+03 0.000000e+00 3.194576e+03 -1.382719e+05 0.000000e+00 0.000000e+00 0.000000e+00 0.000000e+00
-8.196612e+04 3.285070e+03 0.000000e+00 3.285070e+03 -1.381088e+05 0.000000e+00 0.000000e+00 0.000000e+00 0.000000e+00
-7.911141e+04 3.648345e+03 0.000000e+00 3.648345e+03 -1.455029e+05 0.000000e+00 0.000000e+00 0.000000e+00 0.000000e+00
-7.858302e+04 4.202807e+03 0.000000e+00 4.202807e+03 -1.535063e+05 0.000000e+00 0.000000e+00 0.000000e+00 0.000000e+00
-8.041801e+04 4.570601e+03 0.000000e+00 4.570601e+03 -1.616638e+05 0.000000e+00 0.000000e+00 0.000000e+00 0.000000e+00
-8.338297e+04 4.780393e+03 0.000000e+00 4.780393e+03 -1.699634e+05 0.000000e+00 0.000000e+00 0.000000e+00 0.000000e+00
-8.740605e+04 4.750903e+03 0.000000e+00 4.750903e+03 -1.779342e+05 0.000000e+00 0.000000e+00 0.000000e+00 0.000000e+00
-9.263350e+04 4.176949e+03 0.000000e+00 4.176949e+03 -1.847909e+05 0.000000e+00 0.000000e+00 0.000000e+00 0.000000e+00
-9.991055e+04 2.177256e+03 0.000000e+00 2.177256e+03 -1.887292e+05 0.000000e+00 0.000000e+00 0.000000e+00 0.000000e+00
-1.107781e+05 -6.897936e+02 0.000000e+00 -6.897936e+02 -1.899590e+05 0.000000e+00 0.000000e+00 0.000000e+00 0.000000e+00
-1.170176e+05 -1.534925e+03 0.000000e+00 -1.534925e+03 -1.894865e+05 0.000000e+00 0.000000e+00 0.000000e+00 0.000000e+00
-8.762181e+04 8.953102e+03 0.000000e+00 8.953102e+03 -1.327816e+05 0.000000e+00 0.000000e+00 0.000000e+00 0.000000e+00
-8.164427e+04 8.494971e+03 0.000000e+00 8.494971e+03 -1.326312e+05 0.000000e+00 0.000000e+00 0.000000e+00 0.000000e+00
-7.929327e+04 8.533812e+03 0.000000e+00 8.533812e+03 -1.392448e+05 0.000000e+00 0.000000e+00 0.000000e+00 0.000000e+00
-7.903830e+04 8.956577e+03 0.000000e+00 8.956577e+03 -1.464823e+05 0.000000e+00 0.000000e+00 0.000000e+00 0.000000e+00
-8.102033e+04 9.414378e+03 0.000000e+00 9.414378e+03 -1.540948e+05 0.000000e+00 0.000000e+00 0.000000e+00 0.000000e+00
-8.407475e+04 9.754058e+03 0.000000e+00 9.754058e+03 -1.622888e+05 0.000000e+00 0.000000e+00 0.000000e+00 0.000000e+00
-8.785217e+04 9.700774e+03 0.000000e+00 9.700774e+03 -1.709066e+05 0.000000e+00 0.000000e+00 0.000000e+00 0.000000e+00
-9.244998e+04 8.828774e+03 0.000000e+00 8.828774e+03 -1.800124e+05 0.000000e+00 0.000000e+00 0.000000e+00 0.000000e+00
-9.797609e+04 5.772823e+03 0.000000e+00 5.772823e+03 -1.890884e+05 0.000000e+00 0.000000e+00 0.000000e+00 0.000000e+00
-1.060330e+05 5.160457e+02 0.000000e+00 5.160457e+02 -1.944467e+05 0.000000e+00 0.000000e+00 0.000000e+00 0.000000e+00
-1.202000e+05 -4.611244e+03 0.000000e+00 -4.611244e+03 -2.047610e+05 0.000000e+00 0.000000e+00 0.000000e+00 0.000000e+00
-8.537292e+04 1.492398e+04 0.000000e+00 1.492398e+04 -1.210229e+05 0.000000e+00 0.000000e+00 0.000000e+00 0.000000e+00
-8.081324e+04 1.446954e+04 0.000000e+00 1.446954e+04 -1.204103e+05 0.000000e+00 0.000000e+00 0.000000e+00 0.000000e+00
-7.922365e+04 1.478159e+04 0.000000e+00 1.478159e+04 -1.241880e+05 0.000000e+00 0.000000e+00 0.000000e+00 0.000000e+00
-7.990852e+04 1.605389e+04 0.000000e+00 1.605389e+04 -1.286186e+05 0.000000e+00 0.000000e+00 0.000000e+00 0.000000e+00
-8.284210e+04 1.783322e+04 0.000000e+00 1.783322e+04 -1.340418e+05 0.000000e+00 0.000000e+00 0.000000e+00 0.000000e+00
-8.712183e+04 1.968185e+04 0.000000e+00 1.968185e+04 -1.406796e+05 0.000000e+00 0.000000e+00 0.000000e+00 0.000000e+00
-9.227123e+04 2.129051e+04 0.000000e+00 2.129051e+04 -1.490617e+05 0.000000e+00 0.000000e+00 0.000000e+00 0.000000e+00
-9.852602e+04 2.223076e+04 0.000000e+00 2.223076e+04 -1.589860e+05 0.000000e+00 0.000000e+00 0.000000e+00 0.000000e+00
-1.050048e+05 2.211879e+04 0.000000e+00 2.211879e+04 -1.711507e+05 0.000000e+00 0.000000e+00 0.000000e+00 0.000000e+00
-1.157764e+05 1.819714e+04 0.000000e+00 1.819714e+04 -1.878117e+05 0.000000e+00 0.000000e+00 0.000000e+00 0.000000e+00
-1.377103e+05 1.421008e+04 0.000000e+00 1.421008e+04 -2.097249e+05 0.000000e+00 0.000000e+00 0.000000e+00 0.000000e+00
-8.247466e+04 1.729589e+04 0.000000e+00 1.729589e+04 -1.086137e+05 0.000000e+00 0.000000e+00 0.000000e+00 0.000000e+00
-7.991417e+04 1.683120e+04 0.000000e+00 1.683120e+04 -1.078211e+05 0.000000e+00 0.000000e+00 0.000000e+00 0.000000e+00
-7.923716e+04 1.698253e+04 0.000000e+00 1.698253e+04 -1.085757e+05 0.000000e+00 0.000000e+00 0.000000e+00 0.000000e+00
-7.993647e+04 1.821381e+04 0.000000e+00 1.821381e+04 -1.083743e+05 0.000000e+00 0.000000e+00 0.000000e+00 0.000000e+00
-8.144619e+04 1.981683e+04 0.000000e+00 1.981683e+04 -1.070723e+05 0.000000e+00 0.000000e+00 0.000000e+00 0.000000e+00
-8.343485e+04 2.107931e+04 0.000000e+00 2.107931e+04 -1.049354e+05 0.000000e+00 0.000000e+00 0.000000e+00 0.000000e+00
-8.537472e+04 2.231045e+04 0.000000e+00 2.231045e+04 -1.019379e+05 0.000000e+00 0.000000e+00 0.000000e+00 0.000000e+00
-8.664595e+04 2.240396e+04 0.000000e+00 2.240396e+04 -9.713648e+04 0.000000e+00 0.000000e+00 0.000000e+00 0.000000e+00
-8.715048e+04 2.214762e+04 0.000000e+00 2.214762e+04 -9.074791e+04 0.000000e+00 0.000000e+00 0.000000e+00 0.000000e+00
-8.484209e+04 1.800361e+04 0.000000e+00 1.800361e+04 -7.982259e+04 0.000000e+00 0.000000e+00 0.000000e+00 0.000000e+00
-7.805140e+04 1.469057e+04 0.000000e+00 1.469057e+04 -7.264538e+04 0.000000e+00 0.000000e+00 0.000000e+00 0.000000e+00
-7.935365e+04 1.759978e+04 0.000000e+00 1.759978e+04 -9.798624e+04 0.000000e+00 0.000000e+00 0.000000e+00 0.000000e+00
-7.898430e+04 1.708759e+04 0.000000e+00 1.708759e+04 -9.748673e+04 0.000000e+00 0.000000e+00 0.000000e+00 0.000000e+00
-8.006999e+04 1.663313e+04 0.000000e+00 1.663313e+04 -9.701891e+04 0.000000e+00 0.000000e+00 0.000000e+00 0.000000e+00
-8.207590e+04 1.705202e+04 0.000000e+00 1.705202e+04 -9.581786e+04 0.000000e+00 0.000000e+00 0.000000e+00 0.000000e+00
-8.430902e+04 1.782822e+04 0.000000e+00 1.782822e+04 -9.373418e+04 0.000000e+00 0.000000e+00 0.000000e+00 0.000000e+00
-8.681753e+04 1.843660e+04 0.000000e+00 1.843660e+04 -9.074691e+04 0.000000e+00 0.000000e+00 0.000000e+00 0.000000e+00
-8.914408e+04 1.843554e+04 0.000000e+00 1.843554e+04 -8.674685e+04 0.000000e+00 0.000000e+00 0.000000e+00 0.000000e+00
-9.060151e+04 1.753856e+04 0.000000e+00 1.753856e+04 -8.133009e+04 0.000000e+00 0.000000e+00 0.000000e+00 0.000000e+00
-9.082101e+04 1.472438e+04 0.000000e+00 1.472438e+04 -7.406519e+04 0.000000e+00 0.000000e+00 0.000000e+00 0.000000e+00
-8.518739e+04 7.655284e+03 0.000000e+00 7.655284e+03 -6.733851e+04 0.000000e+00 0.000000e+00 0.000000e+00 0.000000e+00
-6.595470e+04 1.754532e+03 0.000000e+00 1.754532e+03 -5.866336e+04 0.000000e+00 0.000000e+00 0.000000e+00 0.000000e+00
-7.593483e+04 1.675571e+04 0.000000e+00 1.675571e+04 -8.864965e+04 0.000000e+00 0.000000e+00 0.000000e+00 0.000000e+00
-7.749894e+04 1.626422e+04 0.000000e+00 1.626422e+04 -8.839556e+04 0.000000e+00 0.000000e+00 0.000000e+00 0.000000e+00
-7.996041e+04 1.534512e+04 0.000000e+00 1.534512e+04 -8.718398e+04 0.000000e+00 0.000000e+00 0.000000e+00 0.000000e+00
-8.256558e+04 1.507127e+04 0.000000e+00 1.507127e+04 -8.542274e+04 0.000000e+00 0.000000e+00 0.000000e+00 0.000000e+00
-8.487908e+04 1.490526e+04 0.000000e+00 1.490526e+04 -8.301365e+04 0.000000e+00 0.000000e+00 0.000000e+00 0.000000e+00
-8.686287e+04 1.443831e+04 0.000000e+00 1.443831e+04 -7.983888e+04 0.000000e+00 0.000000e+00 0.000000e+00 0.000000e+00
-8.832167e+04 1.331240e+04 0.000000e+00 1.331240e+04 -7.580930e+04 0.000000e+00 0.000000e+00 0.000000e+00 0.000000e+00
-8.854646e+04 1.107172e+04 0.000000e+00 1.107172e+04 -7.096211e+04 0.000000e+00 0.000000e+00 0.000000e+00 0.000000e+00
-8.623632e+04 7.113910e+03 0.000000e+00 7.113910e+03 -6.604557e+04 0.000000e+00 0.000000e+00 0.000000e+00 0.000000e+00
-7.605513e+04 1.962244e+03 0.000000e+00 1.962244e+03 -6.224338e+04 0.000000e+00 0.000000e+00 0.000000e+00 0.000000e+00
-6.103298e+04 -4.096859e+02 0.000000e+00 -4.096859e+02 -5.863626e+04 0.000000e+00 0.000000e+00 0.000000e+00 0.000000e+00
-7.279933e+04 1.536495e+04 0.000000e+00 1.536495e+04 -8.100906e+04 0.000000e+00 0.000000e+00 0.000000e+00 0.000000e+00
-7.583815e+04 1.490726e+04 0.000000e+00 1.490726e+04 -8.100066e+04 0.000000e+00 0.000000e+00 0.000000e+00 0.000000e+00
-7.927343e+04 1.366516e+04 0.000000e+00 1.366516e+04 -7.945610e+04 0.000000e+00 0.000000e+00 0.000000e+00 0.000000e+00
-8.213288e+04 1.280525e+04 0.000000e+00 1.280525e+04 -7.757374e+04 0.000000e+00 0.000000e+00 0.000000e+00 0.000000e+00
-8.425745e+04 1.189430e+04 0.000000e+00 1.189430e+04 -7.521898e+04 0.000000e+00 0.000000e+00 0.000000e+00 0.000000e+00
-8.573288e+04 1.063546e+04 0.000000e+00 1.063546e+04 -7.235002e+04 0.000000e+00 0.000000e+00 0.000000e+00 0.000000e+00
-8.634190e+04 8.804106e+03 0.000000e+00 8.804106e+03 -6.906248e+04 0.000000e+00 0.000000e+00 0.000000e+00 0.000000e+00
-8.531600e+04 6.155118e+03 0.000000e+00 6.155118e+03 -6.563397e+04 0.000000e+00 0.000000e+00 0.000000e+00 0.000000e+00
-8.133168e+04 2.753390e+03 0.000000e+00 2.753390e+03 -6.261757e+04 0.000000e+00 0.000000e+00 0.000000e+00 0.000000e+00
-7.212973e+04 -9.633016e+01 0.000000e+00 -9.633016e+01 -6.065608e+04 0.000000e+00 0.000000e+00 0.000000e+00 0.000000e+00
-6.213796e+04 -1.067486e+03 0.000000e+00 -1.067486e+03 -5.886467e+04 0.000000e+00 0.000000e+00 0.000000e+00 0.000000e+00
-7.002349e+04 1.384260e+04 0.000000e+00 1.384260e+04 -7.518677e+04 0.000000e+00 0.000000e+00 0.000000e+00 0.000000e+00
-7.407152e+04 1.332063e+04 0.000000e+00 1.332063e+04 -7.528673e+04 0.000000e+00 0.000000e+00 0.000000e+00 0.000000e+00
-7.809811e+04 1.186541e+04 0.000000e+00 1.186541e+04 -7.365116e+04 0.000000e+00 0.000000e+00 0.000000e+00 0.000000e+00
-8.097958e+04 1.056615e+04 0.000000e+00 1.056615e+04 -7.187057e+04 0.000000e+00 0.000000e+00 0.000000e+00 0.000000e+00
-8.290875e+04 9.178216e+03 0.000000e+00 9.178216e+03 -6.980291e+04 0.000000e+00 0.000000e+00 0.000000e+00 0.000000e+00
-8.395666e+04 7.528375e+03 0.000000e+00 7.528375e+03 -6.750180e+04 0.000000e+00 0.000000e+00 0.000000e+00 0.000000e+00
-8.386214e+04 5.461768e+03 0.000000e+00 5.461768e+03 -6.510601e+04 0.000000e+00 0.000000e+00 0.000000e+00 0.000000e+00
-8.209875e+04 2.988862e+03 0.000000e+00 2.988862e+03 -6.282830e+04 0.000000e+00 0.000000e+00 0.000000e+00 0.000000e+00
-7.800729e+04 5.181980e+02 0.000000e+00 5.181980e+02 -6.108453e+04 0.000000e+00 0.000000e+00 0.000000e+00 0.000000e+00
-7.074918e+04 -8.807510e+02 0.000000e+00 -8.807510e+02 -6.017550e+04 0.000000e+00 0.000000e+00 0.000000e+00 0.000000e+00
-6.405529e+04 -1.052038e+03 0.000000e+00 -1.052038e+03 -5.923081e+04 0.000000e+00 0.000000e+00 0.000000e+00 0.000000e+00
-6.779832e+04 1.228083e+04 0.000000e+00 1.228083e+04 -7.093234e+04 0.000000e+00 0.000000e+00 0.000000e+00 0.000000e+00
-7.227663e+04 1.173973e+04 0.000000e+00 1.173973e+04 -7.100417e+04 0.000000e+00 0.000000e+00 0.000000e+00 0.000000e+00
-7.658123e+04 1.013609e+04 0.000000e+00 1.013609e+04 -6.943120e+04 0.000000e+00 0.000000e+00 0.000000e+00 0.000000e+00
-7.941736e+04 8.588781e+03 0.000000e+00 8.588781e+03 -6.784891e+04 0.000000e+00 0.000000e+00 0.000000e+00 0.000000e+00
-8.116641e+04 6.971256e+03 0.000000e+00 6.971256e+03 -6.617468e+04 0.000000e+00 0.000000e+00 0.000000e+00 0.000000e+00
-8.187415e+04 5.177590e+03 0.000000e+00 5.177590e+03 -6.442032e+04 0.000000e+00 0.000000e+00 0.000000e+00 0.000000e+00
-8.139420e+04 3.156639e+03 0.000000e+00 3.156639e+03 -6.272126e+04 0.000000e+00 0.000000e+00 0.000000e+00 0.000000e+00
-7.952638e+04 1.105951e+03 0.000000e+00 1.105951e+03 -6.128618e+04 0.000000e+00 0.000000e+00 0.000000e+00 0.000000e+00
-7.598387e+04 -5.581222e+02 0.000000e+00 -5.581222e+02 -6.036311e+04 0.000000e+00 0.000000e+00 0.000000e+00 0.000000e+00
-7.061265e+04 -1.121382e+03 0.000000e+00 -1.121382e+03 -5.998924e+04 0.000000e+00 0.000000e+00 0.000000e+00 0.000000e+00
-6.609565e+04 -9.678239e+02 0.000000e+00 -9.678239e+02 -5.945024e+04 0.000000e+00 0.000000e+00 0.000000e+00 0.000000e+00
-6.612980e+04 1.063927e+04 0.000000e+00 1.063927e+04 -6.794973e+04 0.000000e+00 0.000000e+00 0.000000e+00 0.000000e+00
-7.055764e+04 1.010713e+04 0.000000e+00 1.010713e+04 -6.792723e+04 0.000000e+00 0.000000e+00 0.000000e+00 0.000000e+00
-7.486905e+04 8.526458e+03 0.000000e+00 8.526458e+03 -6.644248e+04 0.000000e+00 0.000000e+00 0.000000e+00 0.000000e+00
-7.765555e+04 6.921960e+03 0.000000e+00 6.921960e+03 -6.507005e+04 0.000000e+00 0.000000e+00 0.000000e+00 0.000000e+00
-7.925805e+04 5.241861e+03 0.000000e+00 5.241861e+03 -6.372111e+04 0.000000e+00 0.000000e+00 0.000000e+00 0.000000e+00
-7.978642e+04 3.460933e+03 0.000000e+00 3.460933e+03 -6.241495e+04 0.000000e+00 0.000000e+00 0.000000e+00 0.000000e+00
-7.924585e+04 1.670961e+03 0.000000e+00 1.670961e+03 -6.127385e+04 0.000000e+00 0.000000e+00 0.000000e+00 0.000000e+00
-7.761835e+04 7.321976e+01 0.000000e+00 7.321976e+01 -6.044914e+04 0.000000e+00 0.000000e+00 0.000000e+00 0.000000e+00
-7.483209e+04 -1.017578e+03 0.000000e+00 -1.017578e+03 -6.000902e+04 0.000000e+00 0.000000e+00 0.000000e+00 0.000000e+00
-7.101862e+04 -1.132737e+03 0.000000e+00 -1.132737e+03 -5.990199e+04 0.000000e+00 0.000000e+00 0.000000e+00 0.000000e+00
-6.801050e+04 -8.403248e+02 0.000000e+00 -8.403248e+02 -5.960557e+04 0.000000e+00 0.000000e+00 0.000000e+00 0.000000e+00
-6.490830e+04 9.037819e+03 0.000000e+00 9.037819e+03 -6.590184e+04 0.000000e+00 0.000000e+00 0.000000e+00 0.000000e+00
-6.898305e+04 8.512158e+03 0.000000e+00 8.512158e+03 -6.579322e+04 0.000000e+00 0.000000e+00 0.000000e+00 0.000000e+00
-7.315211e+04 7.056137e+03 0.000000e+00 7.056137e+03 -6.439588e+04 0.000000e+00 0.000000e+00 0.000000e+00 0.000000e+00
-7.587627e+04 5.511833e+03 0.000000e+00 5.511833e+03 -6.318255e+04 0.000000e+00 0.000000e+00 0.000000e+00 0.000000e+00
-7.737861e+04 3.891641e+03 0.000000e+00 3.891641e+03 -6.208216e+04 0.000000e+00 0.000000e+00 0.000000e+00 0.000000e+00
-7.788618e+04 2.276716e+03 0.000000e+00 2.276716e+03 -6.113501e+04 0.000000e+00 0.000000e+00 0.000000e+00 0.000000e+00
-7.748931e+04 7.802014e+02 0.000000e+00 7.802014e+02 -6.041110e+04 0.000000e+00 0.000000e+00 0.000000e+00 0.000000e+00
-7.624017e+04 -4.370902e+02 0.000000e+00 -4.370902e+02 -5.997792e+04 0.000000e+00 0.000000e+00 0.000000e+00 0.000000e+00
-7.421661e+04 -1.140863e+03 0.000000e+00 -1.140863e+03 -5.981982e+04 0.000000e+00 0.000000e+00 0.000000e+00 0.000000e+00
-7.163509e+04 -1.033479e+03 0.000000e+00 -1.033479e+03 -5.986667e+04 0.000000e+00 0.000000e+00 0.000000e+00 0.000000e+00
-6.970530e+04 -7.019177e+02 0.000000e+00 -7.019177e+02 -5.971999e+04 0.000000e+00 0.000000e+00 0.000000e+00 0.000000e+00
-6.397447e+04 7.374674e+03 0.000000e+00 7.374674e+03 -6.454274e+04 0.000000e+00 0.000000e+00 0.000000e+00 0.000000e+00
-6.762235e+04 6.926902e+03 0.000000e+00 6.926902e+03 -6.434845e+04 0.000000e+00 0.000000e+00 0.000000e+00 0.000000e+00
-7.156734e+04 5.689026e+03 0.000000e+00 5.689026e+03 -6.304661e+04 0.000000e+00 0.000000e+00 0.000000e+00 0.000000e+00
-7.418385e+04 4.293417e+03 0.000000e+00 4.293417e+03 -6.195518e+04 0.000000e+00 0.000000e+00 0.000000e+00 0.000000e+00
-7.567471e+04 2.854660e+03 0.000000e+00 2.854660e+03 -6.105020e+04 0.000000e+00 0.000000e+00 0.000000e+00 0.000000e+00
-7.626377e+04 1.482454e+03 0.000000e+00 1.482454e+03 -6.035456e+04 0.000000e+00 0.000000e+00 0.000000e+00 0.000000e+00
-7.609389e+04 2.760385e+02 0.000000e+00 2.760385e+02 -5.991237e+04 0.000000e+00 0.000000e+00 0.000000e+00 0.000000e+00
-7.526593e+04 -6.299631e+02 0.000000e+00 -6.299631e+02 -5.971930e+04 0.000000e+00 0.000000e+00 0.000000e+00 0.000000e+00
-7.391487e+04 -1.079404e+03 0.000000e+00 -1.079404e+03 -5.973018e+04 0.000000e+00 0.000000e+00 0.000000e+00 0.000000e+00
-7.228559e+04 -8.795287e+02 0.000000e+00 -8.795287e+02 -5.985284e+04 0.000000e+00 0.000000e+00 0.000000e+00 0.000000e+00
-7.113484e+04 -5.624796e+02 0.000000e+00 -5.624796e+02 -5.980282e+04 0.000000e+00 0.000000e+00 0.000000e+00 0.000000e+00
-6.332219e+04 5.766484e+03 0.000000e+00 5.766484e+03 -6.366364e+04 0.000000e+00 0.000000e+00 0.000000e+00 0.000000e+00
-6.655208e+04 5.408833e+03 0.000000e+00 5.408833e+03 -6.341427e+04 0.000000e+00 0.000000e+00 0.000000e+00 0.000000e+00
-7.019226e+04 4.402374e+03 0.000000e+00 4.402374e+03 -6.218057e+04 0.000000e+00 0.000000e+00 0.000000e+00 0.000000e+00
-7.270782e+04 3.228342e+03 0.000000e+00 3.228342e+03 -6.116714e+04 0.000000e+00 0.000000e+00 0.000000e+00 0.000000e+00
-7.422873e+04 2.046136e+03 0.000000e+00 2.046136e+03 -6.041102e+04 0.000000e+00 0.000000e+00 0.000000e+00 0.000000e+00
-7.494911e+04 9.469325e+02 0.000000e+00 9.469325e+02 -5.990180e+04 0.000000e+00 0.000000e+00 0.000000e+00 0.000000e+00
-7.502804e+04 2.156794e+01 0.000000e+00 2.156794e+01 -5.963271e+04 0.000000e+00 0.000000e+00 0.000000e+00 0.000000e+00
-7.458609e+04 -6.364768e+02 0.000000e+00 -6.364768e+02 -5.958234e+04 0.000000e+00 0.000000e+00 0.000000e+00 0.000000e+00
-7.379022e+04 -9.163150e+02 0.000000e+00 -9.163150e+02 -5.968754e+04 0.000000e+00 0.000000e+00 0.000000e+00 0.000000e+00
-7.287700e+04 -7.021337e+02 0.000000e+00 -7.021337e+02 -5.984884e+04 0.000000e+00 0.000000e+00 0.000000e+00 0.000000e+00
-7.228379e+04 -4.327338e+02 0.000000e+00 -4.327338e+02 -5.987325e+04 0.000000e+00 0.000000e+00 0.000000e+00 0.000000e+00
-6.282749e+04 4.213507e+03 0.000000e+00 4.213507e+03 -6.310277e+04 0.000000e+00 0.000000e+00 0.000000e+00 0.000000e+00
-6.570614e+04 3.926475e+03 0.000000e+00 3.926475e+03 -6.280247e+04 0.000000e+00 0.000000e+00 0.000000e+00 0.000000e+00
-6.907870e+04 3.166070e+03 0.000000e+00 3.166070e+03 -6.162733e+04 0.000000e+00 0.000000e+00 0.000000e+00 0.000000e+00
-7.153090e+04 2.284999e+03 0.000000e+00 2.284999e+03 -6.069268e+04 0.000000e+00 0.000000e+00 0.000000e+00 0.000000e+00
-7.309609e+04 1.396321e+03 0.000000e+00 1.396321e+03 -6.003412e+04 0.000000e+00 0.000000e+00 0.000000e+00 0.000000e+00
-7.394884e+04 5.849972e+02 0.000000e+00 5.849972e+02 -5.964568e+04 0.000000e+00 0.000000e+00 0.000000e+00 0.000000e+00
-7.424618e+04 -8.197411e+01 0.000000e+00 -8.197411e+01 -5.948698e+04 0.000000e+00 0.000000e+00 0.000000e+00 0.000000e+00
-7.412438e+04 -5.373948e+02 0.000000e+00 -5.373948e+02 -5.952007e+04 0.000000e+00 0.000000e+00 0.000000e+00 0.000000e+00
-7.375932e+04 -7.034561e+02 0.000000e+00 -7.034561e+02 -5.967549e+04 0.000000e+00 0.000000e+00 0.000000e+00 0.000000e+00
-7.335864e+04 -5.188798e+02 0.000000e+00 -5.188798e+02 -5.985305e+04 0.000000e+00 0.000000e+00 0.000000e+00 0.000000e+00
-7.315530e+04 -3.115140e+02 0.000000e+00 -3.115140e+02 -5.992480e+04 0.000000e+00 0.000000e+00 0.000000e+00 0.000000e+00
-6.247955e+04 2.672696e+03 0.000000e+00 2.672696e+03 -6.269959e+04 0.000000e+00 0.000000e+00 0.000000e+00 0.000000e+00
-6.510954e+04 2.489642e+03 0.000000e+00 2.489642e+03 -6.236867e+04 0.000000e+00 0.000000e+00 0.000000e+00 0.000000e+00
-6.829396e+04 2.003475e+03 0.000000e+00 2.003475e+03 -6.125436e+04 0.000000e+00 0.000000e+00 0.000000e+00 0.000000e+00
-7.069291e+04 1.440359e+03 0.000000e+00 1.440359e+03 -6.038814e+04 0.000000e+00 0.000000e+00 0.000000e+00 0.000000e+00
-7.229663e+04 8.590915e+02 0.000000e+00 8.590915e+02 -5.982366e+04 0.000000e+00 0.000000e+00 0.000000e+00 0.000000e+00
-7.325276e+04 3.329589e+02 0.000000e+00 3.329589e+02 -5.951136e+04 0.000000e+00 0.000000e+00 0.000000e+00 0.000000e+00
-7.371602e+04 -9.599603e+01 0.000000e+00 -9.599603e+01 -5.942336e+04 0.000000e+00 0.000000e+00 0.000000e+00 0.000000e+00
-7.383098e+04 -3.798810e+02 0.000000e+00 -3.798810e+02 -5.950589e+04 0.000000e+00 0.000000e+00 0.000000e+00 0.000000e+00
-7.376720e+04 -4.703449e+02 0.000000e+00 -4.703449e+02 -5.968319e+04 0.000000e+00 0.000000e+00 0.000000e+00 0.000000e+00
-7.370922e+04 -3.394911e+02 0.000000e+00 -3.394911e+02 -5.986284e+04 0.000000e+00 0.000000e+00 0.000000e+00 0.000000e+00
-7.376057e+04 -1.998309e+02 0.000000e+00 -1.998309e+02 -5.995716e+04 0.000000e+00 0.000000e+00 0.000000e+00 0.000000e+00
-6.224219e+04 1.174642e+03 0.000000e+00 1.174642e+03 -6.227287e+04 0.000000e+00 0.000000e+00 0.000000e+00 0.000000e+00
-6.479207e+04 1.136500e+03 0.000000e+00 1.136500e+03 -6.197852e+04 0.000000e+00 0.000000e+00 0.000000e+00 0.000000e+00
-6.785302e+04 9.355692e+02 0.000000e+00 9.355692e+02 -6.097174e+04 0.000000e+00 0.000000e+00 0.000000e+00 0.000000e+00
-7.020852e+04 6.865937e+02 0.000000e+00 6.865937e+02 -6.020411e+04 0.000000e+00 0.000000e+00 0.000000e+00 0.000000e+00
-7.182592e+04 4.057321e+02 0.000000e+00 4.057321e+02 -5.971579e+04 0.000000e+00 0.000000e+00 0.000000e+00 0.000000e+00
-7.284342e+04 1.492174e+02 0.000000e+00 1.492174e+02 -5.945209e+04 0.000000e+00 0.000000e+00 0.000000e+00 0.000000e+00
-7.341102e+04 -5.825616e+01 0.000000e+00 -5.825616e+01 -5.939896e+04 0.000000e+00 0.000000e+00 0.000000e+00 0.000000e+00
-7.366938e+04 -1.949283e+02 0.000000e+00 -1.949283e+02 -5.950768e+04 0.000000e+00 0.000000e+00 0.000000e+00 0.000000e+00
-7.378274e+04 -2.337596e+02 0.000000e+00 -2.337596e+02 -5.969034e+04 0.000000e+00 0.000000e+00 0.000000e+00 0.000000e+00
-7.391929e+04 -1.680464e+02 0.000000e+00 -1.680464e+02 -5.986792e+04 0.000000e+00 0.000000e+00 0.000000e+00 0.000000e+00
-7.410945e+04 -9.798337e+01 0.000000e+00 -9.798337e+01 -5.997700e+04 0.000000e+00 0.000000e+00 0.000000e+00 0.000000e+00
-6.205507e+04 1.595440e+02 0.000000e+00 1.595440e+02 -6.180318e+04 0.000000e+00 0.000000e+00 0.000000e+00 0.000000e+00
-6.465954e+04 2.491553e+02 0.000000e+00 2.491553e+02 -6.165534e+04 0.000000e+00 0.000000e+00 0.000000e+00 0.000000e+00
-6.771998e+04 2.504671e+02 0.000000e+00 2.504671e+02 -6.083499e+04 0.000000e+00 0.000000e+00 0.000000e+00 0.000000e+00
-7.005350e+04 1.918648e+02 0.000000e+00 1.918648e+02 -6.014158e+04 0.000000e+00 0.000000e+00 0.000000e+00 0.000000e+00
-7.166892e+04 9.858258e+01 0.000000e+00 9.858258e+01 -5.968448e+04 0.000000e+00 0.000000e+00 0.000000e+00 0.000000e+00
-7.270917e+04 1.159162e+01 0.000000e+00 1.159162e+01 -5.944143e+04 0.000000e+00 0.000000e+00 0.000000e+00 0.000000e+00
-7.331234e+04 -5.889607e+01 0.000000e+00 -5.889607e+01 -5.939813e+04 0.000000e+00 0.000000e+00 0.000000e+00 0.000000e+00
-7.361807e+04 -1.085549e+02 0.000000e+00 -1.085549e+02 -5.951241e+04 0.000000e+00 0.000000e+00 0.000000e+00 0.000000e+00
-7.378956e+04 -1.217281e+02 0.000000e+00 -1.217281e+02 -5.969363e+04 0.000000e+00 0.000000e+00 0.000000e+00 0.000000e+00
-7.398838e+04 -9.992638e+01 0.000000e+00 -9.992638e+01 -5.986956e+04 0.000000e+00 0.000000e+00 0.000000e+00 0.000000e+00
-7.422234e+04 -7.298884e+01 0.000000e+00 -7.298884e+01 -5.998341e+04 0.000000e+00 0.000000e+00 0.000000e+00 0.000000e+00
</DataArray>
<DataArray Name="vol_eps" type="Float64" NumberOfComponents="1" format="ascii">
-6.879162e-03
-6.311680e-03
-6.204508e-03
-6.282030e-03
-6.632004e-03
-7.215738e-03
-8.024016e-03
-9.049588e-03
-1.024934e-02
-1.150463e-02
-1.197168e-02
-6.470286e-03
-5.952949e-03
-5.899047e-03
-5.989893e-03
-6.301292e-03
-6.787234e-03
-7.486789e-03
-8.456514e-03
-9.671042e-03
-1.100810e-02
-1.300576e-02
-5.567621e-03
-5.140007e-03
-5.100221e-03
-5.194569e-03
-5.433503e-03
-5.695839e-03
-6.002969e-03
-6.544252e-03
-7.336243e-03
-8.714114e-03
-1.148503e-02
-4.540843e-03
-4.286755e-03
-4.241357e-03
-4.170816e-03
-3.991850e-03
-3.650883e-03
-3.093720e-03
-2.355330e-03
-1.307482e-03
4.922749e-04
2.150581e-03
-3.613392e-03
-3.571864e-03
-3.647054e-03
-3.702863e-03
-3.697465e-03
-3.645310e-03
-3.517090e-03
-3.249191e-03
-2.800654e-03
-2.054706e-03
-2.515935e-04
-2.771214e-03
-2.898133e-03
-3.032845e-03
-3.100523e-03
-3.095842e-03
-3.019994e-03
-2.853560e-03
-2.553048e-03
-2.081757e-03
-1.166221e-03
4.652125e-05
-2.076592e-03
-2.321736e-03
-2.491676e-03
-2.564539e-03
-2.556481e-03
-2.470788e-03
-2.295197e-03
-1.998904e-03
-1.532282e-03
-8.085630e-04
-5.643227e-05
-1.531667e-03
-1.845032e-03
-2.035138e-03
-2.118142e-03
-2.113947e-03
-2.030886e-03
-1.864986e-03
-1.595699e-03
-1.210476e-03
-6.889164e-04
-2.061210e-04
-1.123935e-03
-1.456934e-03
-1.661714e-03
-1.752015e-03
-1.757232e-03
-1.685628e-03
-1.540807e-03
-1.321552e-03
-1.031646e-03
-6.682405e-04
-3.492328e-04
-8.362660e-04
-1.151261e-03
-1.356478e-03
-1.452674e-03
-1.466984e-03
-1.413971e-03
-1.301948e-03
-1.140700e-03
-9.348925e-04
-6.879365e-04
-4.792804e-04
-6.396407e-04
-9.176540e-04
-1.111241e-03
-1.211211e-03
-1.234829e-03
-1.203677e-03
-1.129058e-03
-1.021084e-03
-8.833982e-04
-7.243467e-04
-5.938594e-04
-5.080221e-04
-7.452977e-04
-9.233941e-04
-1.020408e-03
-1.055570e-03
-1.046643e-03
-1.006683e-03
-9.424133e-04
-8.585645e-04
-7.642785e-04
-6.888245e-04
-4.248733e-04
-6.257573e-04
-7.818200e-04
-8.746040e-04
-9.211294e-04
-9.331332e-04
-9.208452e-04
-8.905061e-04
-8.478788e-04
-8.010843e-04
-7.649729e-04
-3.716318e-04
-5.406946e-04
-6.780857e-04
-7.707686e-04
-8.254279e-04
-8.534408e-04
-8.620068e-04
-8.570050e-04
-8.449685e-04
-8.313872e-04
-8.229693e-04
-3.328432e-04
-4.804475e-04
-6.069268e-04
-6.994736e-04
-7.615621e-04
-8.009038e-04
-8.243622e-04
-8.372777e-04
-8.456640e-04
-8.539513e-04
-8.636030e-04
-2.937912e-04
-4.376155e-04
-5.632597e-04
-6.578308e-04
-7.251793e-04
-7.713181e-04
-8.035555e-04
-8.270789e-04
-8.469497e-04
-8.675235e-04
-8.870983e-04
-2.521708e-04
-4.089393e-04
-5.470351e-04
-6.445814e-04
-7.136028e-04
-7.623117e-04
-7.973340e-04
-8.241000e-04
-8.474918e-04
-8.719006e-04
-8.945994e-04
</DataArray>
</PointData>
</Piece>
</UnstructuredGrid>
</VTKFile>
