<?xml version="1.0"?>
<VTKFile type="UnstructuredGrid" version="0.1">
<UnstructuredGrid>
<FieldData>
<DataArray Name="TIME" type="Float64" format="ascii" NumberOfTuples="1">
0.000000e+00
</DataArray>
</FieldData>
<FieldData>
<DataArray Name="CYCLE" type="Int32" format="ascii" NumberOfTuples="1">
0
</DataArray>
</FieldData>
<Piece NumberOfPoints="187" NumberOfCells="160">
<Points>
<DataArray NumberOfComponents="3" type="Float64" format="ascii">
0.000000e+00 0.000000e+00 0.000000e+00
0.000000e+00 1.973854e-01 0.000000e+00
0.000000e+00 3.938752e-01 0.000000e+00
0.000000e+00 5.895488e-01 0.000000e+00
0.000000e+00 7.845415e-01 0.000000e+00
0.000000e+00 9.790449e-01 0.000000e+00
0.000000e+00 1.173417e+00 0.000000e+00
0.000000e+00 1.368020e+00 0.000000e+00
0.000000e+00 1.563275e+00 0.000000e+00
0.000000e+00 1.759519e+00 0.000000e+00
0.000000e+00 1.956125e+00 0.000000e+00
2.250000e-01 0.000000e+00 0.000000e+00
2.262400e-01 1.975774e-01 0.000000e+00
2.273665e-01 3.943217e-01 0.000000e+00
2.283275e-01 5.903748e-01 0.000000e+00
2.290238e-01 7.858362e-01 0.000000e+00
2.293105e-01 9.808233e-01 0.000000e+00
2.291229e-01 1.175455e+00 0.000000e+00
2.284158e-01 1.369943e+00 0.000000e+00
2.271384e-01 1.564587e+00 0.000000e+00
2.255933e-01 1.759682e+00 0.000000e+00
2.250000e-01 1.956125e+00 0.000000e+00
4.500000e-01 0.000000e+00 0.000000e+00
4.523418e-01 1.981215e-01 0.000000e+00
4.543211e-01 3.956817e-01 0.000000e+00
4.559157e-01 5.927809e-01 0.000000e+00
4.570756e-01 7.894463e-01 0.000000e+00
4.577562e-01 9.856564e-01 0.000000e+00
4.579592e-01 1.181315e+00 0.000000e+00
4.575848e-01 1.376253e+00 0.000000e+00
4.564208e-01 1.570315e+00 0.000000e+00
4.543473e-01 1.763414e+00 0.000000e+00
4.500000e-01 1.956125e+00 0.000000e+00
6.750000e-01 0.000000e+00 0.000000e+00
6.779557e-01 1.987937e-01 0.000000e+00
6.802763e-01 3.974970e-01 0.000000e+00
6.820996e-01 5.962378e-01 0.000000e+00
6.835243e-01 7.950936e-01 0.000000e+00
6.845534e-01 9.940842e-01 0.000000e+00
6.852056e-01 1.193214e+00 0.000000e+00
6.853701e-01 1.392578e+00 0.000000e+00
6.849528e-01 1.592211e+00 0.000000e+00
6.833640e-01 1.792273e+00 0.000000e+00
6.790711e-01 1.992844e+00 0.000000e+00
9.000000e-01 0.000000e+00 0.000000e+00
9.030968e-01 1.991016e-01 0.000000e+00
9.052910e-01 3.982725e-01 0.000000e+00
9.069339e-01 5.975686e-01 0.000000e+00
9.081675e-01 7.969932e-01 0.000000e+00
9.090279e-01 9.965622e-01 0.000000e+00
9.094865e-01 1.196314e+00 0.000000e+00
9.094540e-01 1.396271e+00 0.000000e+00
9.087966e-01 1.596490e+00 0.000000e+00
9.070246e-01 1.796894e+00 0.000000e+00
9.042255e-01 1.996898e+00 0.000000e+00
1.125000e+00 0.000000e+00 0.000000e+00
1.128017e+00 1.994068e-01 0.000000e+00
1.129982e+00 3.989148e-01 0.000000e+00
1.131423e+00 5.985485e-01 0.000000e+00
1.132486e+00 7.983139e-01 0.000000e+00
1.133184e+00 9.982243e-01 0.000000e+00
1.133487e+00 1.198292e+00 0.000000e+00
1.133329e+00 1.398528e+00 0.000000e+00
1.132586e+00 1.598902e+00 0.000000e+00
1.131213e+00 1.799229e+00 0.000000e+00
1.129532e+00 1.999321e+00 0.000000e+00
1.350000e+00 0.000000e+00 0.000000e+00
1.352761e+00 1.996259e-01 0.000000e+00
1.354493e+00 3.993731e-01 0.000000e+00
1.355754e+00 5.992404e-01 0.000000e+00
1.356660e+00 7.992314e-01 0.000000e+00
1.357231e+00 9.993432e-01 0.000000e+00
1.357435e+00 1.199574e+00 0.000000e+00
1.357221e+00 1.399912e+00 0.000000e+00
1.356589e+00 1.600290e+00 0.000000e+00
1.355636e+00 1.800575e+00 0.000000e+00
1.354625e+00 2.000664e+00 0.000000e+00
1.575000e+00 0.000000e+00 0.000000e+00
1.577406e+00 1.997783e-01 0.000000e+00
1.578914e+00 3.996846e-01 0.000000e+00
1.580008e+00 5.997069e-01 0.000000e+00
1.580791e+00 7.998284e-01 0.000000e+00
1.581264e+00 1.000047e+00 0.000000e+00
1.581405e+00 1.200358e+00 0.000000e+00
1.581218e+00 1.400725e+00 0.000000e+00
1.580760e+00 1.601077e+00 0.000000e+00
1.580145e+00 1.801330e+00 0.000000e+00
1.579556e+00 2.001441e+00 0.000000e+00
1.800000e+00 0.000000e+00 0.000000e+00
1.802007e+00 1.998712e-01 0.000000e+00
1.803304e+00 3.998801e-01 0.000000e+00
1.804255e+00 5.999874e-01 0.000000e+00
1.804931e+00 8.001810e-01 0.000000e+00
1.805324e+00 1.000457e+00 0.000000e+00
1.805444e+00 1.200797e+00 0.000000e+00
1.805326e+00 1.401156e+00 0.000000e+00
1.805036e+00 1.601479e+00 0.000000e+00
1.804669e+00 1.801719e+00 0.000000e+00
1.804355e+00 2.001855e+00 0.000000e+00
2.025000e+00 0.000000e+00 0.000000e+00
2.026608e+00 1.999228e-01 0.000000e+00
2.027709e+00 3.999847e-01 0.000000e+00
2.028531e+00 6.001353e-01 0.000000e+00
2.029106e+00 8.003635e-01 0.000000e+00
2.029443e+00 1.000660e+00 0.000000e+00
2.029569e+00 1.200996e+00 0.000000e+00
2.029525e+00 1.401334e+00 0.000000e+00
2.029368e+00 1.601635e+00 0.000000e+00
2.029177e+00 1.801873e+00 0.000000e+00
2.029044e+00 2.002035e+00 0.000000e+00
2.250000e+00 0.000000e+00 0.000000e+00
2.251245e+00 1.999514e-01 0.000000e+00
2.252160e+00 4.000286e-01 0.000000e+00
2.252855e+00 6.001913e-01 0.000000e+00
2.253342e+00 8.004280e-01 0.000000e+00
2.253639e+00 1.000718e+00 0.000000e+00
2.253776e+00 1.201036e+00 0.000000e+00
2.253790e+00 1.401353e+00 0.000000e+00
2.253729e+00 1.601640e+00 0.000000e+00
2.253656e+00 1.801880e+00 0.000000e+00
2.253639e+00 2.002069e+00 0.000000e+00
2.475000e+00 0.000000e+00 0.000000e+00
2.475938e+00 1.999602e-01 0.000000e+00
2.476673e+00 4.000317e-01 0.000000e+00
2.477242e+00 6.001890e-01 0.000000e+00
2.477649e+00 8.004162e-01 0.000000e+00
2.477911e+00 1.000690e+00 0.000000e+00
2.478051e+00 1.200987e+00 0.000000e+00
2.478102e+00 1.401283e+00 0.000000e+00
2.478104e+00 1.601559e+00 0.000000e+00
2.478104e+00 1.801804e+00 0.000000e+00
2.478152e+00 2.002019e+00 0.000000e+00
2.700000e+00 0.000000e+00 0.000000e+00
2.700686e+00 1.999582e-01 0.000000e+00
2.701251e+00 4.000151e-01 0.000000e+00
2.701696e+00 6.001566e-01 0.000000e+00
2.702026e+00 8.003656e-01 0.000000e+00
2.702248e+00 1.000620e+00 0.000000e+00
2.702380e+00 1.200895e+00 0.000000e+00
2.702449e+00 1.401174e+00 0.000000e+00
2.702483e+00 1.601443e+00 0.000000e+00
2.702521e+00 1.801694e+00 0.000000e+00
2.702598e+00 2.001930e+00 0.000000e+00
2.925000e+00 0.000000e+00 0.000000e+00
2.925479e+00 1.999530e-01 0.000000e+00
2.925885e+00 3.999954e-01 0.000000e+00
2.926213e+00 6.001178e-01 0.000000e+00
2.926462e+00 8.003057e-01 0.000000e+00
2.926638e+00 1.000539e+00 0.000000e+00
2.926751e+00 1.200798e+00 0.000000e+00
2.926818e+00 1.401064e+00 0.000000e+00
2.926864e+00 1.601327e+00 0.000000e+00
2.926914e+00 1.801583e+00 0.000000e+00
2.926991e+00 2.001836e+00 0.000000e+00
3.150000e+00 0.000000e+00 0.000000e+00
3.150303e+00 1.999469e-01 0.000000e+00
3.150566e+00 3.999787e-01 0.000000e+00
3.150780e+00 6.000860e-01 0.000000e+00
3.150948e+00 8.002566e-01 0.000000e+00
3.151069e+00 1.000473e+00 0.000000e+00
3.151150e+00 1.200718e+00 0.000000e+00
3.151204e+00 1.400976e+00 0.000000e+00
3.151244e+00 1.601235e+00 0.000000e+00
3.151287e+00 1.801495e+00 0.000000e+00
3.151347e+00 2.001760e+00 0.000000e+00
3.375000e+00 0.000000e+00 0.000000e+00
3.375149e+00 1.999453e-01 0.000000e+00
3.375277e+00 3.999725e-01 0.000000e+00
3.375382e+00 6.000718e-01 0.000000e+00
3.375465e+00 8.002319e-01 0.000000e+00
3.375528e+00 1.000438e+00 0.000000e+00
3.375570e+00 1.200674e+00 0.000000e+00
3.375599e+00 1.400926e+00 0.000000e+00
3.375623e+00 1.601184e+00 0.000000e+00
3.375647e+00 1.801446e+00 0.000000e+00
3.375679e+00 2.001717e+00 0.000000e+00
3.600000e+00 0.000000e+00 0.000000e+00
3.600000e+00 1.999574e-01 0.000000e+00
3.600000e+00 3.999857e-01 0.000000e+00
3.600000e+00 6.000828e-01 0.000000e+00
3.600000e+00 8.002390e-01 0.000000e+00
3.600000e+00 1.000442e+00 0.000000e+00
3.600000e+00 1.200675e+00 0.000000e+00
3.600000e+00 1.400924e+00 0.000000e+00
3.600000e+00 1.601181e+00 0.000000e+00
3.600000e+00 1.801444e+00 0.000000e+00
3.600000e+00 2.001717e+00 0.000000e+00
</DataArray>
</Points>
<Cells>
<DataArray Name="connectivity" type="Int32" format="ascii">
0 11 12 1
1 12 13 2
2 13 14 3
3 14 15 4
4 15 16 5
5 16 17 6
6 17 18 7
7 18 19 8
8 19 20 9
9 20 21 10
11 22 23 12
12 23 24 13
13 24 25 14
14 25 26 15
15 26 27 16
16 27 28 17
17 28 29 18
18 29 30 19
19 30 31 20
20 31 32 21
22 33 34 23
23 34 35 24
24 35 36 25
25 36 37 26
26 37 38 27
27 38 39 28
28 39 40 29
29 40 41 30
30 41 42 31
31 42 43 32
33 44 45 34
34 45 46 35
35 46 47 36
36 47 48 37
37 48 49 38
38 49 50 39
39 50 51 40
40 51 52 41
41 52 53 42
42 53 54 43
44 55 56 45
45 56 57 46
46 57 58 47
47 58 59 48
48 59 60 49
49 60 61 50
50 61 62 51
51 62 63 52
52 63 64 53
53 64 65 54
55 66 67 56
56 67 68 57
57 68 69 58
58 69 70 59
59 70 71 60
60 71 72 61
61 72 73 62
62 73 74 63
63 74 75 64
64 75 76 65
66 77 78 67
67 78 79 68
68 79 80 69
69 80 81 70
70 81 82 71
71 82 83 72
72 83 84 73
73 84 85 74
74 85 86 75
75 86 87 76
77 88 89 78
78 89 90 79
79 90 91 80
80 91 92 81
81 92 93 82
82 93 94 83
83 94 95 84
84 95 96 85
85 96 97 86
86 97 98 87
88 99 100 89
89 100 101 90
90 101 102 91
91 102 103 92
92 103 104 93
93 104 105 94
94 105 106 95
95 106 107 96
96 107 108 97
97 108 109 98
99 110 111 100
100 111 112 101
101 112 113 102
102 113 114 103
103 114 115 104
104 115 116 105
105 116 117 106
106 117 118 107
107 118 119 108
108 119 120 109
110 121 122 111
111 122 123 112
112 123 124 113
113 124 125 114
114 125 126 115
115 126 127 116
116 127 128 117
117 128 129 118
118 129 130 119
119 130 131 120
121 132 133 122
122 133 134 123
123 134 135 124
124 135 136 125
125 136 137 126
126 137 138 127
127 138 139 128
128 139 140 129
129 140 141 130
130 141 142 131
132 143 144 133
133 144 145 134
134 145 146 135
135 146 147 136
136 147 148 137
137 148 149 138
138 149 150 139
139 150 151 140
140 151 152 141
141 152 153 142
143 154 155 144
144 155 156 145
145 156 157 146
146 157 158 147
147 158 159 148
148 159 160 149
149 160 161 150
150 161 162 151
151 162 163 152
152 163 164 153
154 165 166 155
155 166 167 156
156 167 168 157
157 168 169 158
158 169 170 159
159 170 171 160
160 171 172 161
161 172 173 162
162 173 174 163
163 174 175 164
165 176 177 166
166 177 178 167
167 178 179 168
168 179 180 169
169 180 181 170
170 181 182 171
171 182 183 172
172 183 184 173
173 184 185 174
174 185 186 175
</DataArray>
<DataArray Name="offsets" type="Int32" format="ascii">
4
8
12
16
20
24
28
32
36
40
44
48
52
56
60
64
68
72
76
80
84
88
92
96
100
104
108
112
116
120
124
128
132
136
140
144
148
152
156
160
164
168
172
176
180
184
188
192
196
200
204
208
212
216
220
224
228
232
236
240
244
248
252
256
260
264
268
272
276
280
284
288
292
296
300
304
308
312
316
320
324
328
332
336
340
344
348
352
356
360
364
368
372
376
380
384
388
392
396
400
404
408
412
416
420
424
428
432
436
440
444
448
452
456
460
464
468
472
476
480
484
488
492
496
500
504
508
512
516
520
524
528
532
536
540
544
548
552
556
560
564
568
572
576
580
584
588
592
596
600
604
608
612
616
620
624
628
632
636
640
</DataArray>
<DataArray Name="types" type="UInt8" format="ascii">
9
9
9
9
9
9
9
9
9
9
9
9
9
9
9
9
9
9
9
9
9
9
9
9
9
9
9
9
9
9
9
9
9
9
9
9
9
9
9
9
9
9
9
9
9
9
9
9
9
9
9
9
9
9
9
9
9
9
9
9
9
9
9
9
9
9
9
9
9
9
9
9
9
9
9
9
9
9
9
9
9
9
9
9
9
9
9
9
9
9
9
9
9
9
9
9
9
9
9
9
9
9
9
9
9
9
9
9
9
9
9
9
9
9
9
9
9
9
9
9
9
9
9
9
9
9
9
9
9
9
9
9
9
9
9
9
9
9
9
9
9
9
9
9
9
9
9
9
9
9
9
9
9
9
9
9
9
9
9
9
</DataArray>
</Cells>
<PointData>
<DataArray Name="disp" type="Float64" NumberOfComponents="3" format="ascii">
0.000000e+00 0.000000e+00 0.000000e+00
0.000000e+00 -2.614630e-03 0.000000e+00
0.000000e+00 -6.124836e-03 0.000000e+00
0.000000e+00 -1.045121e-02 0.000000e+00
0.000000e+00 -1.545844e-02 0.000000e+00
0.000000e+00 -2.095512e-02 0.000000e+00
0.000000e+00 -2.658326e-02 0.000000e+00
0.000000e+00 -3.197970e-02 0.000000e+00
0.000000e+00 -3.672481e-02 0.000000e+00
0.000000e+00 -4.048090e-02 0.000000e+00
0.000000e+00 -4.387500e-02 0.000000e+00
0.000000e+00 0.000000e+00 0.000000e+00
1.239988e-03 -2.422617e-03 0.000000e+00
2.366537e-03 -5.678342e-03 0.000000e+00
3.327518e-03 -9.625201e-03 0.000000e+00
4.023802e-03 -1.416380e-02 0.000000e+00
4.310447e-03 -1.917669e-02 0.000000e+00
4.122888e-03 -2.454486e-02 0.000000e+00
3.415756e-03 -3.005653e-02 0.000000e+00
2.138405e-03 -3.541267e-02 0.000000e+00
5.932555e-04 -4.031764e-02 0.000000e+00
0.000000e+00 -4.387500e-02 0.000000e+00
0.000000e+00 0.000000e+00 0.000000e+00
2.341798e-03 -1.878510e-03 0.000000e+00
4.321119e-03 -4.318290e-03 0.000000e+00
5.915735e-03 -7.219077e-03 0.000000e+00
7.075583e-03 -1.055370e-02 0.000000e+00
7.756198e-03 -1.434364e-02 0.000000e+00
7.959207e-03 -1.868483e-02 0.000000e+00
7.584802e-03 -2.374646e-02 0.000000e+00
6.420770e-03 -2.968476e-02 0.000000e+00
4.347288e-03 -3.658610e-02 0.000000e+00
0.000000e+00 -4.387500e-02 0.000000e+00
0.000000e+00 0.000000e+00 0.000000e+00
2.955761e-03 -1.206335e-03 0.000000e+00
5.276249e-03 -2.502976e-03 0.000000e+00
7.099568e-03 -3.762241e-03 0.000000e+00
8.524316e-03 -4.906406e-03 0.000000e+00
9.553378e-03 -5.915836e-03 0.000000e+00
1.020564e-02 -6.785707e-03 0.000000e+00
1.037016e-02 -7.421900e-03 0.000000e+00
9.952788e-03 -7.789291e-03 0.000000e+00
8.364040e-03 -7.727249e-03 0.000000e+00
4.071152e-03 -7.155763e-03 0.000000e+00
0.000000e+00 0.000000e+00 0.000000e+00
3.096780e-03 -8.983909e-04 0.000000e+00
5.291040e-03 -1.727497e-03 0.000000e+00
6.933898e-03 -2.431357e-03 0.000000e+00
8.167473e-03 -3.006801e-03 0.000000e+00
9.027859e-03 -3.437840e-03 0.000000e+00
9.486462e-03 -3.685976e-03 0.000000e+00
9.454075e-03 -3.729192e-03 0.000000e+00
8.796611e-03 -3.510252e-03 0.000000e+00
7.024606e-03 -3.106224e-03 0.000000e+00
4.225505e-03 -3.101773e-03 0.000000e+00
0.000000e+00 0.000000e+00 0.000000e+00
3.017079e-03 -5.931472e-04 0.000000e+00
4.982509e-03 -1.085207e-03 0.000000e+00
6.422820e-03 -1.451461e-03 0.000000e+00
7.486134e-03 -1.686063e-03 0.000000e+00
8.183901e-03 -1.775714e-03 0.000000e+00
8.487251e-03 -1.707774e-03 0.000000e+00
8.328899e-03 -1.471880e-03 0.000000e+00
7.585795e-03 -1.097590e-03 0.000000e+00
6.212604e-03 -7.707379e-04 0.000000e+00
4.532268e-03 -6.791460e-04 0.000000e+00
0.000000e+00 0.000000e+00 0.000000e+00
2.760859e-03 -3.740778e-04 0.000000e+00
4.492552e-03 -6.269540e-04 0.000000e+00
5.753538e-03 -7.595887e-04 0.000000e+00
6.659657e-03 -7.686652e-04 0.000000e+00
7.231021e-03 -6.567642e-04 0.000000e+00
7.434757e-03 -4.255546e-04 0.000000e+00
7.220694e-03 -8.753825e-05 0.000000e+00
6.588822e-03 2.895872e-04 0.000000e+00
5.636264e-03 5.752476e-04 0.000000e+00
4.624846e-03 6.635839e-04 0.000000e+00
0.000000e+00 0.000000e+00 0.000000e+00
2.405835e-03 -2.216834e-04 0.000000e+00
3.914361e-03 -3.154220e-04 0.000000e+00
5.007662e-03 -2.931365e-04 0.000000e+00
5.791442e-03 -1.716024e-04 0.000000e+00
6.263893e-03 4.673274e-05 0.000000e+00
6.404692e-03 3.577803e-04 0.000000e+00
6.217843e-03 7.252228e-04 0.000000e+00
5.760236e-03 1.076648e-03 0.000000e+00
5.145169e-03 1.329681e-03 0.000000e+00
4.556297e-03 1.440854e-03 0.000000e+00
0.000000e+00 0.000000e+00 0.000000e+00
2.006641e-03 -1.287525e-04 0.000000e+00
3.303825e-03 -1.198887e-04 0.000000e+00
4.254997e-03 -1.262028e-05 0.000000e+00
4.930807e-03 1.809605e-04 0.000000e+00
5.324357e-03 4.573336e-04 0.000000e+00
5.444001e-03 7.971741e-04 0.000000e+00
5.325942e-03 1.156297e-03 0.000000e+00
5.036142e-03 1.479033e-03 0.000000e+00
4.668489e-03 1.718772e-03 0.000000e+00
4.355088e-03 1.854646e-03 0.000000e+00
0.000000e+00 0.000000e+00 0.000000e+00
1.608349e-03 -7.716320e-05 0.000000e+00
2.709151e-03 -1.535342e-05 0.000000e+00
3.530577e-03 1.352966e-04 0.000000e+00
4.106235e-03 3.635425e-04 0.000000e+00
4.443175e-03 6.595973e-04 0.000000e+00
4.569195e-03 9.957291e-04 0.000000e+00
4.525364e-03 1.333526e-03 0.000000e+00
4.368140e-03 1.635478e-03 0.000000e+00
4.176866e-03 1.872813e-03 0.000000e+00
4.043805e-03 2.035172e-03 0.000000e+00
0.000000e+00 0.000000e+00 0.000000e+00
1.245614e-03 -4.857508e-05 0.000000e+00
2.159583e-03 2.854482e-05 0.000000e+00
2.855381e-03 1.913164e-04 0.000000e+00
3.341823e-03 4.280165e-04 0.000000e+00
3.639118e-03 7.184901e-04 0.000000e+00
3.776323e-03 1.036505e-03 0.000000e+00
3.790400e-03 1.352592e-03 0.000000e+00
3.728935e-03 1.639626e-03 0.000000e+00
3.656417e-03 1.879619e-03 0.000000e+00
3.638943e-03 2.069067e-03 0.000000e+00
0.000000e+00 0.000000e+00 0.000000e+00
9.378218e-04 -3.975751e-05 0.000000e+00
1.673416e-03 3.166684e-05 0.000000e+00
2.241990e-03 1.890557e-04 0.000000e+00
2.649343e-03 4.162028e-04 0.000000e+00
2.911277e-03 6.900589e-04 0.000000e+00
3.051452e-03 9.868944e-04 0.000000e+00
3.102300e-03 1.282588e-03 0.000000e+00
3.103746e-03 1.558889e-03 0.000000e+00
3.103840e-03 1.804210e-03 0.000000e+00
3.151820e-03 2.019117e-03 0.000000e+00
0.000000e+00 0.000000e+00 0.000000e+00
6.858967e-04 -4.184445e-05 0.000000e+00
1.251225e-03 1.513313e-05 0.000000e+00
1.696047e-03 1.566093e-04 0.000000e+00
2.025628e-03 3.655918e-04 0.000000e+00
2.248408e-03 6.194818e-04 0.000000e+00
2.380472e-03 8.952407e-04 0.000000e+00
2.448623e-03 1.174299e-03 0.000000e+00
2.483500e-03 1.442834e-03 0.000000e+00
2.521368e-03 1.693837e-03 0.000000e+00
2.597754e-03 1.930050e-03 0.000000e+00
0.000000e+00 0.000000e+00 0.000000e+00
4.791548e-04 -4.700477e-05 0.000000e+00
8.854781e-04 -4.651481e-06 0.000000e+00
1.212693e-03 1.177772e-04 0.000000e+00
1.462148e-03 3.056453e-04 0.000000e+00
1.638015e-03 5.391213e-04 0.000000e+00
1.750722e-03 7.976379e-04 0.000000e+00
1.818388e-03 1.063974e-03 0.000000e+00
1.864138e-03 1.327078e-03 0.000000e+00
1.913711e-03 1.582938e-03 0.000000e+00
1.991447e-03 1.835843e-03 0.000000e+00
0.000000e+00 0.000000e+00 0.000000e+00
3.032018e-04 -5.309845e-05 0.000000e+00
5.663061e-04 -2.128377e-05 0.000000e+00
7.801268e-04 8.597373e-05 0.000000e+00
9.476232e-04 2.565539e-04 0.000000e+00
1.068708e-03 4.733721e-04 0.000000e+00
1.150496e-03 7.182455e-04 0.000000e+00
1.204086e-03 9.756421e-04 0.000000e+00
1.244081e-03 1.235446e-03 0.000000e+00
1.286844e-03 1.495291e-03 0.000000e+00
1.347443e-03 1.759721e-03 0.000000e+00
0.000000e+00 0.000000e+00 0.000000e+00
1.485173e-04 -5.469048e-05 0.000000e+00
2.764770e-04 -2.745751e-05 0.000000e+00
3.822591e-04 7.178676e-05 0.000000e+00
4.653572e-04 2.318958e-04 0.000000e+00
5.275082e-04 4.382318e-04 0.000000e+00
5.701585e-04 6.740478e-04 0.000000e+00
5.994917e-04 9.255406e-04 0.000000e+00
6.226011e-04 1.183698e-03 0.000000e+00
6.467637e-04 1.446152e-03 0.000000e+00
6.792960e-04 1.717272e-03 0.000000e+00
0.000000e+00 0.000000e+00 0.000000e+00
0.000000e+00 -4.257437e-05 0.000000e+00
0.000000e+00 -1.426409e-05 0.000000e+00
0.000000e+00 8.273905e-05 0.000000e+00
0.000000e+00 2.390158e-04 0.000000e+00
0.000000e+00 4.418048e-04 0.000000e+00
0.000000e+00 6.745149e-04 0.000000e+00
0.000000e+00 9.238010e-04 0.000000e+00
0.000000e+00 1.181122e-03 0.000000e+00
0.000000e+00 1.443945e-03 0.000000e+00
0.000000e+00 1.716950e-03 0.000000e+00
</DataArray>
<DataArray Name="shear" type="Float64" NumberOfComponents="1" format="ascii">
1.485863e-02
2.066485e-02
2.983251e-02
3.772189e-02
4.372042e-02
4.685577e-02
4.630437e-02
4.146619e-02
3.238655e-02
2.248531e-02
1.828328e-02
1.516656e-02
2.041027e-02
2.856768e-02
3.556002e-02
4.118755e-02
4.516593e-02
4.701826e-02
4.585483e-02
4.115671e-02
3.212304e-02
2.434094e-02
1.620817e-02
1.959161e-02
2.508464e-02
3.072421e-02
3.692742e-02
4.411949e-02
5.232589e-02
6.095199e-02
6.915331e-02
7.258005e-02
7.213848e-02
1.667059e-02
1.731961e-02
1.848778e-02
2.089645e-02
2.464515e-02
2.986484e-02
3.655379e-02
4.479865e-02
5.400873e-02
6.110980e-02
6.625351e-02
1.644460e-02
1.520890e-02
1.318487e-02
1.250726e-02
1.244044e-02
1.259519e-02
1.270343e-02
1.245492e-02
1.089519e-02
6.297652e-03
1.528779e-03
1.561441e-02
1.374370e-02
1.100273e-02
1.006113e-02
9.714404e-03
9.508501e-03
9.213043e-03
8.594520e-03
7.052614e-03
3.770738e-03
9.433424e-04
1.409892e-02
1.205815e-02
9.308882e-03
8.457110e-03
8.097864e-03
7.831688e-03
7.501777e-03
6.906405e-03
5.596122e-03
3.216309e-03
1.343776e-03
1.220460e-02
1.036554e-02
8.010311e-03
7.319979e-03
7.010060e-03
6.805596e-03
6.563266e-03
6.013862e-03
4.882075e-03
3.075827e-03
1.735205e-03
1.015121e-02
8.699302e-03
6.927452e-03
6.414346e-03
6.218655e-03
6.122071e-03
5.926740e-03
5.419114e-03
4.486127e-03
3.132874e-03
2.188532e-03
8.138273e-03
7.130226e-03
5.954619e-03
5.633356e-03
5.567262e-03
5.550704e-03
5.396305e-03
4.983314e-03
4.270426e-03
3.288232e-03
2.639288e-03
6.309578e-03
5.686420e-03
5.020044e-03
4.906394e-03
4.968193e-03
5.023871e-03
4.943866e-03
4.659095e-03
4.154479e-03
3.487702e-03
3.070615e-03
4.747251e-03
4.395904e-03
4.120420e-03
4.222007e-03
4.419348e-03
4.560679e-03
4.569086e-03
4.411025e-03
4.095514e-03
3.692872e-03
3.459128e-03
3.465364e-03
3.287595e-03
3.303686e-03
3.602233e-03
3.936324e-03
4.172137e-03
4.268117e-03
4.224366e-03
4.069752e-03
3.876637e-03
3.781227e-03
2.414285e-03
2.348316e-03
2.598007e-03
3.072209e-03
3.528142e-03
3.858066e-03
4.038375e-03
4.090638e-03
4.061717e-03
4.025477e-03
4.030029e-03
1.528522e-03
1.558543e-03
2.038129e-03
2.666339e-03
3.219697e-03
3.623451e-03
3.873599e-03
4.001332e-03
4.063812e-03
4.134230e-03
4.203767e-03
7.566082e-04
9.326127e-04
1.673748e-03
2.416468e-03
3.029475e-03
3.478415e-03
3.771811e-03
3.949423e-03
4.069490e-03
4.200478e-03
4.304761e-03
2.658437e-04
6.590389e-04
1.547781e-03
2.330605e-03
2.962165e-03
3.427959e-03
3.736513e-03
3.931690e-03
4.071657e-03
4.221743e-03
4.336463e-03
</DataArray>
<DataArray Name="stress" type="Float64" NumberOfComponents="9" format="ascii">
-1.098522e+05 5.204683e+03 0.000000e+00 5.204683e+03 -1.827196e+05 0.000000e+00 0.000000e+00 0.000000e+00 0.000000e+00
-9.775702e+04 4.714339e+03 0.000000e+00 4.714339e+03 -1.813355e+05 0.000000e+00 0.000000e+00 0.000000e+00 0.000000e+00
-9.241169e+04 4.202210e+03 0.000000e+00 4.202210e+03 -1.915542e+05 0.000000e+00 0.000000e+00 0.000000e+00 0.000000e+00
-9.286220e+04 4.148527e+03 0.000000e+00 4.148527e+03 -2.000636e+05 0.000000e+00 0.000000e+00 0.000000e+00 0.000000e+00
-9.740638e+04 4.598748e+03 0.000000e+00 4.598748e+03 -2.074406e+05 0.000000e+00 0.000000e+00 0.000000e+00 0.000000e+00
-1.028043e+05 5.293771e+03 0.000000e+00 5.293771e+03 -2.159497e+05 0.000000e+00 0.000000e+00 0.000000e+00 0.000000e+00
-1.071565e+05 5.861231e+03 0.000000e+00 5.861231e+03 -2.254119e+05 0.000000e+00 0.000000e+00 0.000000e+00 0.000000e+00
-1.107267e+05 5.693649e+03 0.000000e+00 5.693649e+03 -2.341129e+05 0.000000e+00 0.000000e+00 0.000000e+00 0.000000e+00
-1.175043e+05 3.195641e+03 0.000000e+00 3.195641e+03 -2.402280e+05 0.000000e+00 0.000000e+00 0.000000e+00 0.000000e+00
-1.320508e+05 -1.232880e+03 0.000000e+00 -1.232880e+03 -2.420294e+05 0.000000e+00 0.000000e+00 0.000000e+00 0.000000e+00
-1.407484e+05 -1.768257e+03 0.000000e+00 -1.768257e+03 -2.396105e+05 0.000000e+00 0.000000e+00 0.000000e+00 0.000000e+00
-1.078240e+05 1.425249e+04 0.000000e+00 1.425249e+04 -1.718048e+05 0.000000e+00 0.000000e+00 0.000000e+00 0.000000e+00
-9.665141e+04 1.251899e+04 0.000000e+00 1.251899e+04 -1.698872e+05 0.000000e+00 0.000000e+00 0.000000e+00 0.000000e+00
-9.204068e+04 1.086983e+04 0.000000e+00 1.086983e+04 -1.790589e+05 0.000000e+00 0.000000e+00 0.000000e+00 0.000000e+00
-9.284777e+04 1.069055e+04 0.000000e+00 1.069055e+04 -1.880184e+05 0.000000e+00 0.000000e+00 0.000000e+00 0.000000e+00
-9.703177e+04 1.141010e+04 0.000000e+00 1.141010e+04 -1.976884e+05 0.000000e+00 0.000000e+00 0.000000e+00 0.000000e+00
-1.026027e+05 1.211887e+04 0.000000e+00 1.211887e+04 -2.086384e+05 0.000000e+00 0.000000e+00 0.000000e+00 0.000000e+00
-1.075114e+05 1.204139e+04 0.000000e+00 1.204139e+04 -2.199465e+05 0.000000e+00 0.000000e+00 0.000000e+00 0.000000e+00
-1.108959e+05 1.035278e+04 0.000000e+00 1.035278e+04 -2.306113e+05 0.000000e+00 0.000000e+00 0.000000e+00 0.000000e+00
-1.164495e+05 6.107938e+03 0.000000e+00 6.107938e+03 -2.407445e+05 0.000000e+00 0.000000e+00 0.000000e+00 0.000000e+00
-1.258070e+05 -5.690875e+02 0.000000e+00 -5.690875e+02 -2.456258e+05 0.000000e+00 0.000000e+00 0.000000e+00 0.000000e+00
-1.446472e+05 -6.709243e+03 0.000000e+00 -6.709243e+03 -2.627738e+05 0.000000e+00 0.000000e+00 0.000000e+00 0.000000e+00
-1.018404e+05 2.304955e+04 0.000000e+00 2.304955e+04 -1.466021e+05 0.000000e+00 0.000000e+00 0.000000e+00 0.000000e+00
-9.371648e+04 2.106316e+04 0.000000e+00 2.106316e+04 -1.441960e+05 0.000000e+00 0.000000e+00 0.000000e+00 0.000000e+00
-9.186605e+04 2.011047e+04 0.000000e+00 2.011047e+04 -1.500084e+05 0.000000e+00 0.000000e+00 0.000000e+00 0.000000e+00
-9.499248e+04 2.160243e+04 0.000000e+00 2.160243e+04 -1.578518e+05 0.000000e+00 0.000000e+00 0.000000e+00 0.000000e+00
-1.007922e+05 2.404713e+04 0.000000e+00 2.404713e+04 -1.669365e+05 0.000000e+00 0.000000e+00 0.000000e+00 0.000000e+00
-1.075962e+05 2.628641e+04 0.000000e+00 2.628641e+04 -1.766362e+05 0.000000e+00 0.000000e+00 0.000000e+00 0.000000e+00
-1.138241e+05 2.782169e+04 0.000000e+00 2.782169e+04 -1.860874e+05 0.000000e+00 0.000000e+00 0.000000e+00 0.000000e+00
-1.207312e+05 2.795227e+04 0.000000e+00 2.795227e+04 -1.981582e+05 0.000000e+00 0.000000e+00 0.000000e+00 0.000000e+00
-1.320560e+05 2.794426e+04 0.000000e+00 2.794426e+04 -2.124429e+05 0.000000e+00 0.000000e+00 0.000000e+00 0.000000e+00
-1.432104e+05 2.077545e+04 0.000000e+00 2.077545e+04 -2.321136e+05 0.000000e+00 0.000000e+00 0.000000e+00 0.000000e+00
-1.626816e+05 1.154088e+04 0.000000e+00 1.154088e+04 -2.626752e+05 0.000000e+00 0.000000e+00 0.000000e+00 0.000000e+00
-9.443770e+04 2.484257e+04 0.000000e+00 2.484257e+04 -1.214759e+05 0.000000e+00 0.000000e+00 0.000000e+00 0.000000e+00
-8.976462e+04 2.359276e+04 0.000000e+00 2.359276e+04 -1.192667e+05 0.000000e+00 0.000000e+00 0.000000e+00 0.000000e+00
-8.934329e+04 2.323687e+04 0.000000e+00 2.323687e+04 -1.195074e+05 0.000000e+00 0.000000e+00 0.000000e+00 0.000000e+00
-9.211349e+04 2.432823e+04 0.000000e+00 2.432823e+04 -1.191090e+05 0.000000e+00 0.000000e+00 0.000000e+00 0.000000e+00
-9.552874e+04 2.569574e+04 0.000000e+00 2.569574e+04 -1.172000e+05 0.000000e+00 0.000000e+00 0.000000e+00 0.000000e+00
-9.810567e+04 2.606612e+04 0.000000e+00 2.606612e+04 -1.135409e+05 0.000000e+00 0.000000e+00 0.000000e+00 0.000000e+00
-9.989627e+04 2.652259e+04 0.000000e+00 2.652259e+04 -1.093482e+05 0.000000e+00 0.000000e+00 0.000000e+00 0.000000e+00
-1.000837e+05 2.584719e+04 0.000000e+00 2.584719e+04 -1.034745e+05 0.000000e+00 0.000000e+00 0.000000e+00 0.000000e+00
-9.796579e+04 2.363719e+04 0.000000e+00 2.363719e+04 -9.340148e+04 0.000000e+00 0.000000e+00 0.000000e+00 0.000000e+00
-8.936878e+04 1.730536e+04 0.000000e+00 1.730536e+04 -8.047275e+04 0.000000e+00 0.000000e+00 0.000000e+00 0.000000e+00
-7.235726e+04 1.179758e+04 0.000000e+00 1.179758e+04 -7.062630e+04 0.000000e+00 0.000000e+00 0.000000e+00 0.000000e+00
-8.981298e+04 2.431375e+04 0.000000e+00 2.431375e+04 -1.068494e+05 0.000000e+00 0.000000e+00 0.000000e+00 0.000000e+00
-8.889128e+04 2.343315e+04 0.000000e+00 2.343315e+04 -1.059275e+05 0.000000e+00 0.000000e+00 0.000000e+00 0.000000e+00
-9.125545e+04 2.287789e+04 0.000000e+00 2.287789e+04 -1.052561e+05 0.000000e+00 0.000000e+00 0.000000e+00 0.000000e+00
-9.569049e+04 2.316471e+04 0.000000e+00 2.316471e+04 -1.035406e+05 0.000000e+00 0.000000e+00 0.000000e+00 0.000000e+00
-9.994647e+04 2.339921e+04 0.000000e+00 2.339921e+04 -1.007874e+05 0.000000e+00 0.000000e+00 0.000000e+00 0.000000e+00
-1.032224e+05 2.320227e+04 0.000000e+00 2.320227e+04 -9.682297e+04 0.000000e+00 0.000000e+00 0.000000e+00 0.000000e+00
-1.056391e+05 2.225138e+04 0.000000e+00 2.225138e+04 -9.154972e+04 0.000000e+00 0.000000e+00 0.000000e+00 0.000000e+00
-1.064730e+05 1.998008e+04 0.000000e+00 1.998008e+04 -8.457649e+04 0.000000e+00 0.000000e+00 0.000000e+00 0.000000e+00
-1.048739e+05 1.525960e+04 0.000000e+00 1.525960e+04 -7.623500e+04 0.000000e+00 0.000000e+00 0.000000e+00 0.000000e+00
-9.303302e+04 6.654259e+03 0.000000e+00 6.654259e+03 -6.840562e+04 0.000000e+00 0.000000e+00 0.000000e+00 0.000000e+00
-6.551190e+04 5.866078e+02 0.000000e+00 5.866078e+02 -5.763568e+04 0.000000e+00 0.000000e+00 0.000000e+00 0.000000e+00
-8.467955e+04 2.285774e+04 0.000000e+00 2.285774e+04 -9.484775e+04 0.000000e+00 0.000000e+00 0.000000e+00 0.000000e+00
-8.689282e+04 2.219159e+04 0.000000e+00 2.219159e+04 -9.475457e+04 0.000000e+00 0.000000e+00 0.000000e+00 0.000000e+00
-9.108326e+04 2.104339e+04 0.000000e+00 2.104339e+04 -9.311492e+04 0.000000e+00 0.000000e+00 0.000000e+00 0.000000e+00
-9.584857e+04 2.039137e+04 0.000000e+00 2.039137e+04 -9.053903e+04 0.000000e+00 0.000000e+00 0.000000e+00 0.000000e+00
-9.964724e+04 1.949552e+04 0.000000e+00 1.949552e+04 -8.718059e+04 0.000000e+00 0.000000e+00 0.000000e+00 0.000000e+00
-1.022371e+05 1.802835e+04 0.000000e+00 1.802835e+04 -8.291867e+04 0.000000e+00 0.000000e+00 0.000000e+00 0.000000e+00
-1.035128e+05 1.570830e+04 0.000000e+00 1.570830e+04 -7.778180e+04 0.000000e+00 0.000000e+00 0.000000e+00 0.000000e+00
-1.026656e+05 1.211481e+04 0.000000e+00 1.211481e+04 -7.203718e+04 0.000000e+00 0.000000e+00 0.000000e+00 0.000000e+00
-9.822190e+04 6.610388e+03 0.000000e+00 6.610388e+03 -6.657016e+04 0.000000e+00 0.000000e+00 0.000000e+00 0.000000e+00
-8.344135e+04 5.695869e+02 0.000000e+00 5.695869e+02 -6.223900e+04 0.000000e+00 0.000000e+00 0.000000e+00 0.000000e+00
-6.281865e+04 -1.739882e+03 0.000000e+00 -1.739882e+03 -5.749118e+04 0.000000e+00 0.000000e+00 0.000000e+00 0.000000e+00
-7.995956e+04 2.090863e+04 0.000000e+00 2.090863e+04 -8.523010e+04 0.000000e+00 0.000000e+00 0.000000e+00 0.000000e+00
-8.473357e+04 2.036338e+04 0.000000e+00 2.036338e+04 -8.567465e+04 0.000000e+00 0.000000e+00 0.000000e+00 0.000000e+00
-9.010238e+04 1.863070e+04 0.000000e+00 1.863070e+04 -8.346988e+04 0.000000e+00 0.000000e+00 0.000000e+00 0.000000e+00
-9.469988e+04 1.717446e+04 0.000000e+00 1.717446e+04 -8.082871e+04 0.000000e+00 0.000000e+00 0.000000e+00 0.000000e+00
-9.798888e+04 1.542876e+04 0.000000e+00 1.542876e+04 -7.763226e+04 0.000000e+00 0.000000e+00 0.000000e+00 0.000000e+00
-9.995807e+04 1.318026e+04 0.000000e+00 1.318026e+04 -7.392087e+04 0.000000e+00 0.000000e+00 0.000000e+00 0.000000e+00
-1.002121e+05 1.023346e+04 0.000000e+00 1.023346e+04 -6.990920e+04 0.000000e+00 0.000000e+00 0.000000e+00 0.000000e+00
-9.798121e+04 6.375028e+03 0.000000e+00 6.375028e+03 -6.589611e+04 0.000000e+00 0.000000e+00 0.000000e+00 0.000000e+00
-9.193553e+04 1.830652e+03 0.000000e+00 1.830652e+03 -6.248636e+04 0.000000e+00 0.000000e+00 0.000000e+00 0.000000e+00
-7.970250e+04 -1.361976e+03 0.000000e+00 -1.361976e+03 -6.038725e+04 0.000000e+00 0.000000e+00 0.000000e+00 0.000000e+00
-6.639464e+04 -2.099925e+03 0.000000e+00 -2.099925e+03 -5.808303e+04 0.000000e+00 0.000000e+00 0.000000e+00 0.000000e+00
-7.584092e+04 1.880448e+04 0.000000e+00 1.880448e+04 -7.788232e+04 0.000000e+00 0.000000e+00 0.000000e+00 0.000000e+00
-8.235330e+04 1.825779e+04 0.000000e+00 1.825779e+04 -7.859955e+04 0.000000e+00 0.000000e+00 0.000000e+00 0.000000e+00
-8.835479e+04 1.613419e+04 0.000000e+00 1.613419e+04 -7.631884e+04 0.000000e+00 0.000000e+00 0.000000e+00 0.000000e+00
-9.277021e+04 1.414634e+04 0.000000e+00 1.414634e+04 -7.389546e+04 0.000000e+00 0.000000e+00 0.000000e+00 0.000000e+00
-9.568154e+04 1.192240e+04 0.000000e+00 1.192240e+04 -7.114759e+04 0.000000e+00 0.000000e+00 0.000000e+00 0.000000e+00
-9.702203e+04 9.319315e+03 0.000000e+00 9.319315e+03 -6.827323e+04 0.000000e+00 0.000000e+00 0.000000e+00 0.000000e+00
-9.648643e+04 6.215330e+03 0.000000e+00 6.215330e+03 -6.537300e+04 0.000000e+00 0.000000e+00 0.000000e+00 0.000000e+00
-9.355990e+04 2.712163e+03 0.000000e+00 2.712163e+03 -6.270545e+04 0.000000e+00 0.000000e+00 0.000000e+00 0.000000e+00
-8.782786e+04 -4.954264e+02 0.000000e+00 -4.954264e+02 -6.078520e+04 0.000000e+00 0.000000e+00 0.000000e+00 0.000000e+00
-7.875415e+04 -1.891889e+03 0.000000e+00 -1.891889e+03 -5.992632e+04 0.000000e+00 0.000000e+00 0.000000e+00 0.000000e+00
-7.018348e+04 -1.788630e+03 0.000000e+00 -1.788630e+03 -5.869139e+04 0.000000e+00 0.000000e+00 0.000000e+00 0.000000e+00
-7.240075e+04 1.683451e+04 0.000000e+00 1.683451e+04 -7.249764e+04 0.000000e+00 0.000000e+00 0.000000e+00 0.000000e+00
-7.975441e+04 1.618278e+04 0.000000e+00 1.618278e+04 -7.332460e+04 0.000000e+00 0.000000e+00 0.000000e+00 0.000000e+00
-8.614954e+04 1.381643e+04 0.000000e+00 1.381643e+04 -7.117977e+04 0.000000e+00 0.000000e+00 0.000000e+00 0.000000e+00
-9.039866e+04 1.153954e+04 0.000000e+00 1.153954e+04 -6.902793e+04 0.000000e+00 0.000000e+00 0.000000e+00 0.000000e+00
-9.294284e+04 9.110033e+03 0.000000e+00 9.110033e+03 -6.686815e+04 0.000000e+00 0.000000e+00 0.000000e+00 0.000000e+00
-9.385926e+04 6.426023e+03 0.000000e+00 6.426023e+03 -6.472534e+04 0.000000e+00 0.000000e+00 0.000000e+00 0.000000e+00
-9.293447e+04 3.477188e+03 0.000000e+00 3.477188e+03 -6.266586e+04 0.000000e+00 0.000000e+00 0.000000e+00 0.000000e+00
-9.009279e+04 6.072787e+02 0.000000e+00 6.072787e+02 -6.099917e+04 0.000000e+00 0.000000e+00 0.000000e+00 0.000000e+00
-8.547661e+04 -1.484104e+03 0.000000e+00 -1.484104e+03 -6.005143e+04 0.000000e+00 0.000000e+00 0.000000e+00 0.000000e+00
-7.912528e+04 -1.904456e+03 0.000000e+00 -1.904456e+03 -5.978316e+04 0.000000e+00 0.000000e+00 0.000000e+00 0.000000e+00
-7.363070e+04 -1.479398e+03 0.000000e+00 -1.479398e+03 -5.907473e+04 0.000000e+00 0.000000e+00 0.000000e+00 0.000000e+00
-6.952189e+04 1.482741e+04 0.000000e+00 1.482741e+04 -6.878722e+04 0.000000e+00 0.000000e+00 0.000000e+00 0.000000e+00
-7.709705e+04 1.413576e+04 0.000000e+00 1.413576e+04 -6.950897e+04 0.000000e+00 0.000000e+00 0.000000e+00 0.000000e+00
-8.368297e+04 1.172103e+04 0.000000e+00 1.172103e+04 -6.750012e+04 0.000000e+00 0.000000e+00 0.000000e+00 0.000000e+00
-8.781963e+04 9.393592e+03 0.000000e+00 9.393592e+03 -6.570209e+04 0.000000e+00 0.000000e+00 0.000000e+00 0.000000e+00
-9.013212e+04 6.943561e+03 0.000000e+00 6.943561e+03 -6.403015e+04 0.000000e+00 0.000000e+00 0.000000e+00 0.000000e+00
-9.079906e+04 4.330720e+03 0.000000e+00 4.330720e+03 -6.242062e+04 0.000000e+00 0.000000e+00 0.000000e+00 0.000000e+00
-8.985984e+04 1.717991e+03 0.000000e+00 1.717991e+03 -6.103338e+04 0.000000e+00 0.000000e+00 0.000000e+00 0.000000e+00
-8.757841e+04 -4.847250e+02 0.000000e+00 -4.847250e+02 -6.009608e+04 0.000000e+00 0.000000e+00 0.000000e+00 0.000000e+00
-8.422269e+04 -1.792093e+03 0.000000e+00 -1.792093e+03 -5.972913e+04 0.000000e+00 0.000000e+00 0.000000e+00 0.000000e+00
-8.000284e+04 -1.725280e+03 0.000000e+00 -1.725280e+03 -5.974466e+04 0.000000e+00 0.000000e+00 0.000000e+00 0.000000e+00
-7.657799e+04 -1.185944e+03 0.000000e+00 -1.185944e+03 -5.934897e+04 0.000000e+00 0.000000e+00 0.000000e+00 0.000000e+00
-6.744504e+04 1.278632e+04 0.000000e+00 1.278632e+04 -6.635853e+04 0.000000e+00 0.000000e+00 0.000000e+00 0.000000e+00
-7.466007e+04 1.213120e+04 0.000000e+00 1.213120e+04 -6.685184e+04 0.000000e+00 0.000000e+00 0.000000e+00 0.000000e+00
-8.123567e+04 9.894787e+03 0.000000e+00 9.894787e+03 -6.503690e+04 0.000000e+00 0.000000e+00 0.000000e+00 0.000000e+00
-8.524970e+04 7.636133e+03 0.000000e+00 7.636133e+03 -6.354021e+04 0.000000e+00 0.000000e+00 0.000000e+00 0.000000e+00
-8.739138e+04 5.262363e+03 0.000000e+00 5.262363e+03 -6.215856e+04 0.000000e+00 0.000000e+00 0.000000e+00 0.000000e+00
-8.800691e+04 2.871378e+03 0.000000e+00 2.871378e+03 -6.095732e+04 0.000000e+00 0.000000e+00 0.000000e+00 0.000000e+00
-8.737295e+04 6.917242e+02 0.000000e+00 6.917242e+02 -6.009055e+04 0.000000e+00 0.000000e+00 0.000000e+00 0.000000e+00
-8.581970e+04 -9.484624e+02 0.000000e+00 -9.484624e+02 -5.964536e+04 0.000000e+00 0.000000e+00 0.000000e+00 0.000000e+00
-8.362202e+04 -1.754400e+03 0.000000e+00 -1.754400e+03 -5.959127e+04 0.000000e+00 0.000000e+00 0.000000e+00 0.000000e+00
-8.101560e+04 -1.472185e+03 0.000000e+00 -1.472185e+03 -5.974997e+04 0.000000e+00 0.000000e+00 0.000000e+00 0.000000e+00
-7.901936e+04 -9.267692e+02 0.000000e+00 -9.267692e+02 -5.956599e+04 0.000000e+00 0.000000e+00 0.000000e+00 0.000000e+00
-6.610467e+04 1.085933e+04 0.000000e+00 1.085933e+04 -6.496596e+04 0.000000e+00 0.000000e+00 0.000000e+00 0.000000e+00
-7.257848e+04 1.022364e+04 0.000000e+00 1.022364e+04 -6.514249e+04 0.000000e+00 0.000000e+00 0.000000e+00 0.000000e+00
-7.888152e+04 8.250724e+03 0.000000e+00 8.250724e+03 -6.346936e+04 0.000000e+00 0.000000e+00 0.000000e+00 0.000000e+00
-8.275438e+04 6.126243e+03 0.000000e+00 6.126243e+03 -6.213475e+04 0.000000e+00 0.000000e+00 0.000000e+00 0.000000e+00
-8.483346e+04 3.946773e+03 0.000000e+00 3.946773e+03 -6.098076e+04 0.000000e+00 0.000000e+00 0.000000e+00 0.000000e+00
-8.560693e+04 1.885860e+03 0.000000e+00 1.885860e+03 -6.009773e+04 0.000000e+00 0.000000e+00 0.000000e+00 0.000000e+00
-8.543143e+04 1.524831e+02 0.000000e+00 1.524831e+02 -5.958250e+04 0.000000e+00 0.000000e+00 0.000000e+00 0.000000e+00
-8.461329e+04 -1.049431e+03 0.000000e+00 -1.049431e+03 -5.942274e+04 0.000000e+00 0.000000e+00 0.000000e+00 0.000000e+00
-8.337684e+04 -1.545683e+03 0.000000e+00 -1.545683e+03 -5.954160e+04 0.000000e+00 0.000000e+00 0.000000e+00 0.000000e+00
-8.198473e+04 -1.194545e+03 0.000000e+00 -1.194545e+03 -5.976398e+04 0.000000e+00 0.000000e+00 0.000000e+00 0.000000e+00
-8.099833e+04 -7.105490e+02 0.000000e+00 -7.105490e+02 -5.973788e+04 0.000000e+00 0.000000e+00 0.000000e+00 0.000000e+00
-6.512098e+04 8.823645e+03 0.000000e+00 8.823645e+03 -6.436947e+04 0.000000e+00 0.000000e+00 0.000000e+00 0.000000e+00
-7.080877e+04 8.254975e+03 0.000000e+00 8.254975e+03 -6.424291e+04 0.000000e+00 0.000000e+00 0.000000e+00 0.000000e+00
-7.675196e+04 6.619344e+03 0.000000e+00 6.619344e+03 -6.259361e+04 0.000000e+00 0.000000e+00 0.000000e+00 0.000000e+00
-8.049080e+04 4.769700e+03 0.000000e+00 4.769700e+03 -6.129019e+04 0.000000e+00 0.000000e+00 0.000000e+00 0.000000e+00
-8.260952e+04 2.914693e+03 0.000000e+00 2.914693e+03 -6.029309e+04 0.000000e+00 0.000000e+00 0.000000e+00 0.000000e+00
-8.367003e+04 1.237790e+03 0.000000e+00 1.237790e+03 -5.964486e+04 0.000000e+00 0.000000e+00 0.000000e+00 0.000000e+00
-8.396555e+04 -8.713302e+01 0.000000e+00 -8.713302e+01 -5.934642e+04 0.000000e+00 0.000000e+00 0.000000e+00 0.000000e+00
-8.377864e+04 -9.552120e+02 0.000000e+00 -9.552120e+02 -5.934520e+04 0.000000e+00 0.000000e+00 0.000000e+00 0.000000e+00
-8.331446e+04 -1.261672e+03 0.000000e+00 -1.261672e+03 -5.954934e+04 0.000000e+00 0.000000e+00 0.000000e+00 0.000000e+00
-8.282328e+04 -9.216819e+02 0.000000e+00 -9.216819e+02 -5.978593e+04 0.000000e+00 0.000000e+00 0.000000e+00 0.000000e+00
-8.254824e+04 -5.274777e+02 0.000000e+00 -5.274777e+02 -5.987089e+04 0.000000e+00 0.000000e+00 0.000000e+00 0.000000e+00
-6.445052e+04 6.665033e+03 0.000000e+00 6.665033e+03 -6.412328e+04 0.000000e+00 0.000000e+00 0.000000e+00 0.000000e+00
-6.941761e+04 6.216230e+03 0.000000e+00 6.216230e+03 -6.381256e+04 0.000000e+00 0.000000e+00 0.000000e+00 0.000000e+00
-7.496102e+04 4.960044e+03 0.000000e+00 4.960044e+03 -6.213170e+04 0.000000e+00 0.000000e+00 0.000000e+00 0.000000e+00
-7.861398e+04 3.484023e+03 0.000000e+00 3.484023e+03 -6.084112e+04 0.000000e+00 0.000000e+00 0.000000e+00 0.000000e+00
-8.084741e+04 2.064674e+03 0.000000e+00 2.064674e+03 -5.992670e+04 0.000000e+00 0.000000e+00 0.000000e+00 0.000000e+00
-8.218141e+04 8.109015e+02 0.000000e+00 8.109015e+02 -5.942377e+04 0.000000e+00 0.000000e+00 0.000000e+00 0.000000e+00
-8.288898e+04 -1.594471e+02 0.000000e+00 -1.594471e+02 -5.925151e+04 0.000000e+00 0.000000e+00 0.000000e+00 0.000000e+00
-8.321070e+04 -7.646865e+02 0.000000e+00 -7.646865e+02 -5.933500e+04 0.000000e+00 0.000000e+00 0.000000e+00 0.000000e+00
-8.334191e+04 -9.484500e+02 0.000000e+00 -9.484500e+02 -5.956709e+04 0.000000e+00 0.000000e+00 0.000000e+00 0.000000e+00
-8.349404e+04 -6.701288e+02 0.000000e+00 -6.701288e+02 -5.980128e+04 0.000000e+00 0.000000e+00 0.000000e+00 0.000000e+00
-8.370669e+04 -3.732975e+02 0.000000e+00 -3.732975e+02 -5.996637e+04 0.000000e+00 0.000000e+00 0.000000e+00 0.000000e+00
-6.400115e+04 4.440481e+03 0.000000e+00 4.440481e+03 -6.401052e+04 0.000000e+00 0.000000e+00 0.000000e+00 0.000000e+00
-6.843078e+04 4.112942e+03 0.000000e+00 4.112942e+03 -6.357529e+04 0.000000e+00 0.000000e+00 0.000000e+00 0.000000e+00
-7.361551e+04 3.262480e+03 0.000000e+00 3.262480e+03 -6.186631e+04 0.000000e+00 0.000000e+00 0.000000e+00 0.000000e+00
-7.724118e+04 2.270780e+03 0.000000e+00 2.270780e+03 -6.059268e+04 0.000000e+00 0.000000e+00 0.000000e+00 0.000000e+00
-7.958996e+04 1.319972e+03 0.000000e+00 1.319972e+03 -5.975533e+04 0.000000e+00 0.000000e+00 0.000000e+00 0.000000e+00
-8.112826e+04 4.980757e+02 0.000000e+00 4.980757e+02 -5.931891e+04 0.000000e+00 0.000000e+00 0.000000e+00 0.000000e+00
-8.214579e+04 -1.394003e+02 0.000000e+00 -1.394003e+02 -5.921070e+04 0.000000e+00 0.000000e+00 0.000000e+00 0.000000e+00
-8.284170e+04 -5.279055e+02 0.000000e+00 -5.279055e+02 -5.934177e+04 0.000000e+00 0.000000e+00 0.000000e+00 0.000000e+00
-8.339199e+04 -6.320563e+02 0.000000e+00 -6.320563e+02 -5.958517e+04 0.000000e+00 0.000000e+00 0.000000e+00 0.000000e+00
-8.397414e+04 -4.333970e+02 0.000000e+00 -4.333970e+02 -5.981466e+04 0.000000e+00 0.000000e+00 0.000000e+00 0.000000e+00
-8.450595e+04 -2.336821e+02 0.000000e+00 -2.336821e+02 -6.002479e+04 0.000000e+00 0.000000e+00 0.000000e+00 0.000000e+00
-6.370403e+04 2.094218e+03 0.000000e+00 2.094218e+03 -6.382678e+04 0.000000e+00 0.000000e+00 0.000000e+00 0.000000e+00
-6.786141e+04 1.977226e+03 0.000000e+00 1.977226e+03 -6.334875e+04 0.000000e+00 0.000000e+00 0.000000e+00 0.000000e+00
-7.280389e+04 1.586327e+03 0.000000e+00 1.586327e+03 -6.168988e+04 0.000000e+00 0.000000e+00 0.000000e+00 0.000000e+00
-7.641105e+04 1.110593e+03 0.000000e+00 1.110593e+03 -6.046740e+04 0.000000e+00 0.000000e+00 0.000000e+00 0.000000e+00
-7.884241e+04 6.440392e+02 0.000000e+00 6.440392e+02 -5.968595e+04 0.000000e+00 0.000000e+00 0.000000e+00 0.000000e+00
-8.050395e+04 2.369174e+02 0.000000e+00 2.369174e+02 -5.928866e+04 0.000000e+00 0.000000e+00 0.000000e+00 0.000000e+00
-8.171141e+04 -7.733474e+01 0.000000e+00 -7.733474e+01 -5.920728e+04 0.000000e+00 0.000000e+00 0.000000e+00 0.000000e+00
-8.263179e+04 -2.684033e+02 0.000000e+00 -2.684033e+02 -5.935706e+04 0.000000e+00 0.000000e+00 0.000000e+00 0.000000e+00
-8.343246e+04 -3.167197e+02 0.000000e+00 -3.167197e+02 -5.960850e+04 0.000000e+00 0.000000e+00 0.000000e+00 0.000000e+00
-8.426289e+04 -2.110915e+02 0.000000e+00 -2.110915e+02 -5.983104e+04 0.000000e+00 0.000000e+00 0.000000e+00 0.000000e+00
-8.496270e+04 -1.103568e+02 0.000000e+00 -1.103568e+02 -6.005971e+04 0.000000e+00 0.000000e+00 0.000000e+00 0.000000e+00
-6.349559e+04 4.696559e+02 0.000000e+00 4.696559e+02 -6.346333e+04 0.000000e+00 0.000000e+00 0.000000e+00 0.000000e+00
-6.764224e+04 5.269962e+02 0.000000e+00 5.269962e+02 -6.309608e+04 0.000000e+00 0.000000e+00 0.000000e+00 0.000000e+00
-7.253513e+04 4.545817e+02 0.000000e+00 4.545817e+02 -6.160977e+04 0.000000e+00 0.000000e+00 0.000000e+00 0.000000e+00
-7.613625e+04 3.057760e+02 0.000000e+00 3.057760e+02 -6.043560e+04 0.000000e+00 0.000000e+00 0.000000e+00 0.000000e+00
-7.859662e+04 1.391066e+02 0.000000e+00 1.391066e+02 -5.966477e+04 0.000000e+00 0.000000e+00 0.000000e+00 0.000000e+00
-8.029923e+04 -1.607269e+01 0.000000e+00 -1.607269e+01 -5.928179e+04 0.000000e+00 0.000000e+00 0.000000e+00 0.000000e+00
-8.157088e+04 -1.284380e+02 0.000000e+00 -1.284380e+02 -5.920998e+04 0.000000e+00 0.000000e+00 0.000000e+00 0.000000e+00
-8.256582e+04 -2.011977e+02 0.000000e+00 -2.011977e+02 -5.936462e+04 0.000000e+00 0.000000e+00 0.000000e+00 0.000000e+00
-8.345485e+04 -2.188142e+02 0.000000e+00 -2.188142e+02 -5.962270e+04 0.000000e+00 0.000000e+00 0.000000e+00 0.000000e+00
-8.436505e+04 -1.718212e+02 0.000000e+00 -1.718212e+02 -5.984299e+04 0.000000e+00 0.000000e+00 0.000000e+00 0.000000e+00
-8.511271e+04 -1.308829e+02 0.000000e+00 -1.308829e+02 -6.007374e+04 0.000000e+00 0.000000e+00 0.000000e+00 0.000000e+00
</DataArray>
<DataArray Name="vol_eps" type="Float64" NumberOfComponents="1" format="ascii">
-1.099728e-02
-9.641530e-03
-8.904848e-03
-8.396199e-03
-8.360285e-03
-8.922335e-03
-1.002319e-02
-1.162723e-02
-1.370115e-02
-1.580795e-02
-1.650994e-02
-1.015781e-02
-8.865241e-03
-8.253866e-03
-7.969566e-03
-8.133318e-03
-8.734033e-03
-9.642299e-03
-1.077605e-02
-1.239466e-02
-1.441726e-02
-1.773013e-02
-8.067421e-03
-7.079590e-03
-6.790218e-03
-6.831642e-03
-7.031306e-03
-7.286299e-03
-7.606310e-03
-8.052017e-03
-8.782815e-03
-1.031377e-02
-1.363667e-02
-5.805579e-03
-5.265142e-03
-5.115838e-03
-4.976564e-03
-4.636828e-03
-4.069568e-03
-3.203897e-03
-1.941057e-03
-1.012727e-04
2.783411e-03
5.773827e-03
-4.465341e-03
-4.418885e-03
-4.677893e-03
-4.922647e-03
-5.048786e-03
-5.010197e-03
-4.815404e-03
-4.397317e-03
-3.785623e-03
-2.609101e-03
-1.295399e-04
-3.296488e-03
-3.600665e-03
-3.998424e-03
-4.223601e-03
-4.280658e-03
-4.179504e-03
-3.923085e-03
-3.493706e-03
-2.876474e-03
-1.642540e-03
2.011901e-05
-2.384225e-03
-2.940346e-03
-3.378373e-03
-3.564793e-03
-3.586995e-03
-3.476814e-03
-3.231387e-03
-2.831069e-03
-2.222706e-03
-1.278321e-03
-2.668520e-04
-1.719488e-03
-2.401005e-03
-2.837113e-03
-3.007533e-03
-3.031221e-03
-2.933422e-03
-2.708294e-03
-2.344653e-03
-1.841920e-03
-1.183920e-03
-5.516144e-04
-1.270293e-03
-1.969353e-03
-2.382609e-03
-2.548770e-03
-2.585154e-03
-2.500932e-03
-2.301320e-03
-2.006948e-03
-1.637188e-03
-1.196076e-03
-7.947075e-04
-9.693239e-04
-1.617234e-03
-1.997668e-03
-2.169126e-03
-2.215277e-03
-2.147413e-03
-1.992873e-03
-1.781603e-03
-1.531985e-03
-1.249779e-03
-9.998843e-04
-7.562967e-04
-1.323980e-03
-1.679435e-03
-1.853079e-03
-1.903214e-03
-1.862588e-03
-1.765087e-03
-1.634506e-03
-1.481956e-03
-1.317673e-03
-1.173019e-03
-6.225642e-04
-1.095411e-03
-1.420419e-03
-1.591511e-03
-1.651488e-03
-1.644765e-03
-1.602596e-03
-1.538541e-03
-1.461559e-03
-1.383193e-03
-1.315456e-03
-5.515667e-04
-9.352942e-04
-1.225051e-03
-1.385383e-03
-1.459506e-03
-1.486662e-03
-1.488618e-03
-1.476122e-03
-1.457734e-03
-1.440286e-03
-1.427240e-03
-5.193049e-04
-8.312472e-04
-1.081445e-03
-1.232964e-03
-1.319732e-03
-1.373291e-03
-1.409131e-03
-1.436737e-03
-1.460830e-03
-1.485987e-03
-1.510902e-03
-5.066942e-04
-7.644945e-04
-9.799902e-04
-1.126373e-03
-1.224388e-03
-1.296386e-03
-1.356882e-03
-1.412198e-03
-1.465224e-03
-1.519299e-03
-1.569084e-03
-4.866677e-04
-7.197512e-04
-9.200695e-04
-1.064551e-03
-1.169399e-03
-1.252899e-03
-1.327787e-03
-1.398955e-03
-1.469243e-03
-1.540093e-03
-1.602926e-03
-4.531262e-04
-6.917386e-04
-8.988996e-04
-1.045465e-03
-1.151388e-03
-1.238978e-03
-1.318572e-03
-1.394970e-03
-1.471694e-03
-1.547916e-03
-1.614202e-03
</DataArray>
</PointData>
</Piece>
</UnstructuredGrid>
</VTKFile>
