<?xml version="1.0"?>
<VTKFile type="UnstructuredGrid" version="0.1">
<UnstructuredGrid>
<FieldData>
<DataArray Name="TIME" type="Float64" format="ascii" NumberOfTuples="1">
0.000000e+00
</DataArray>
</FieldData>
<FieldData>
<DataArray Name="CYCLE" type="Int32" format="ascii" NumberOfTuples="1">
0
</DataArray>
</FieldData>
<Piece NumberOfPoints="187" NumberOfCells="160">
<Points>
<DataArray NumberOfComponents="3" type="Float64" format="ascii">
0.000000e+00 0.000000e+00 0.000000e+00
0.000000e+00 1.978166e-01 0.000000e+00
0.000000e+00 3.948869e-01 0.000000e+00
0.000000e+00 5.913932e-01 0.000000e+00
0.000000e+00 7.874465e-01 0.000000e+00
0.000000e+00 9.831801e-01 0.000000e+00
0.000000e+00 1.178767e+00 0.000000e+00
0.000000e+00 1.374402e+00 0.000000e+00
0.000000e+00 1.570359e+00 0.000000e+00
0.000000e+00 1.767001e+00 0.000000e+00
0.000000e+00 1.964000e+00 0.000000e+00
2.250000e-01 0.000000e+00 0.000000e+00
2.260112e-01 1.980033e-01 0.000000e+00
2.268259e-01 3.953237e-01 0.000000e+00
2.274257e-01 5.921010e-01 0.000000e+00
2.278352e-01 7.884298e-01 0.000000e+00
2.280197e-01 9.844027e-01 0.000000e+00
2.279176e-01 1.180122e+00 0.000000e+00
2.275376e-01 1.375685e+00 0.000000e+00
2.267562e-01 1.571265e+00 0.000000e+00
2.255578e-01 1.767125e+00 0.000000e+00
2.250000e-01 1.964000e+00 0.000000e+00
4.500000e-01 0.000000e+00 0.000000e+00
4.518132e-01 1.984500e-01 0.000000e+00
4.532759e-01 3.964909e-01 0.000000e+00
4.544017e-01 5.941374e-01 0.000000e+00
4.552344e-01 7.913847e-01 0.000000e+00
4.557320e-01 9.882179e-01 0.000000e+00
4.558497e-01 1.184594e+00 0.000000e+00
4.556891e-01 1.380446e+00 0.000000e+00
4.548978e-01 1.575662e+00 0.000000e+00
4.533598e-01 1.770111e+00 0.000000e+00
4.500000e-01 1.964000e+00 0.000000e+00
6.750000e-01 0.000000e+00 0.000000e+00
6.772250e-01 1.989035e-01 0.000000e+00
6.789390e-01 3.977435e-01 0.000000e+00
6.802804e-01 5.965966e-01 0.000000e+00
6.813626e-01 7.955068e-01 0.000000e+00
6.821749e-01 9.945275e-01 0.000000e+00
6.826879e-01 1.193675e+00 0.000000e+00
6.829136e-01 1.392964e+00 0.000000e+00
6.826064e-01 1.592538e+00 0.000000e+00
6.815670e-01 1.792501e+00 0.000000e+00
6.779266e-01 1.993131e+00 0.000000e+00
9.000000e-01 0.000000e+00 0.000000e+00
9.023264e-01 1.991879e-01 0.000000e+00
9.039693e-01 3.984204e-01 0.000000e+00
9.052114e-01 5.977334e-01 0.000000e+00
9.061646e-01 7.971423e-01 0.000000e+00
9.068352e-01 9.966673e-01 0.000000e+00
9.072083e-01 1.196340e+00 0.000000e+00
9.072267e-01 1.396212e+00 0.000000e+00
9.067358e-01 1.596294e+00 0.000000e+00
9.053453e-01 1.796606e+00 0.000000e+00
9.029747e-01 1.996600e+00 0.000000e+00
1.125000e+00 0.000000e+00 0.000000e+00
1.127252e+00 1.994301e-01 0.000000e+00
1.128744e+00 3.989477e-01 0.000000e+00
1.129855e+00 5.985631e-01 0.000000e+00
1.130677e+00 7.982803e-01 0.000000e+00
1.131219e+00 9.981114e-01 0.000000e+00
1.131456e+00 1.198074e+00 0.000000e+00
1.131349e+00 1.398179e+00 0.000000e+00
1.130769e+00 1.598416e+00 0.000000e+00
1.129653e+00 1.798647e+00 0.000000e+00
1.128216e+00 1.998723e+00 0.000000e+00
1.350000e+00 0.000000e+00 0.000000e+00
1.352050e+00 1.996212e-01 0.000000e+00
1.353384e+00 3.993450e-01 0.000000e+00
1.354361e+00 5.991611e-01 0.000000e+00
1.355062e+00 7.990720e-01 0.000000e+00
1.355498e+00 9.990820e-01 0.000000e+00
1.355653e+00 1.199191e+00 0.000000e+00
1.355489e+00 1.399394e+00 0.000000e+00
1.354982e+00 1.599644e+00 0.000000e+00
1.354184e+00 1.799850e+00 0.000000e+00
1.353300e+00 1.999913e+00 0.000000e+00
1.575000e+00 0.000000e+00 0.000000e+00
1.576779e+00 1.997520e-01 0.000000e+00
1.577952e+00 3.996175e-01 0.000000e+00
1.578803e+00 5.995697e-01 0.000000e+00
1.579405e+00 7.996018e-01 0.000000e+00
1.579764e+00 9.997113e-01 0.000000e+00
1.579869e+00 1.199894e+00 0.000000e+00
1.579718e+00 1.400129e+00 0.000000e+00
1.579335e+00 1.600371e+00 0.000000e+00
1.578800e+00 1.800550e+00 0.000000e+00
1.578264e+00 2.000630e+00 0.000000e+00
1.800000e+00 0.000000e+00 0.000000e+00
1.801485e+00 1.998433e-01 0.000000e+00
1.802494e+00 3.997985e-01 0.000000e+00
1.803236e+00 5.998313e-01 0.000000e+00
1.803754e+00 7.999300e-01 0.000000e+00
1.804055e+00 1.000094e+00 0.000000e+00
1.804142e+00 1.200309e+00 0.000000e+00
1.804036e+00 1.400549e+00 0.000000e+00
1.803776e+00 1.600775e+00 0.000000e+00
1.803436e+00 1.800944e+00 0.000000e+00
1.803128e+00 2.001039e+00 0.000000e+00
2.025000e+00 0.000000e+00 0.000000e+00
2.026197e+00 1.999006e-01 0.000000e+00
2.027052e+00 3.999041e-01 0.000000e+00
2.027692e+00 5.999770e-01 0.000000e+00
2.028135e+00 8.001125e-01 0.000000e+00
2.028392e+00 1.000302e+00 0.000000e+00
2.028480e+00 1.200526e+00 0.000000e+00
2.028423e+00 1.400760e+00 0.000000e+00
2.028265e+00 1.600972e+00 0.000000e+00
2.028066e+00 1.801138e+00 0.000000e+00
2.027911e+00 2.001250e+00 0.000000e+00
2.250000e+00 0.000000e+00 0.000000e+00
2.250938e+00 1.999298e-01 0.000000e+00
2.251648e+00 3.999534e-01 0.000000e+00
2.252186e+00 6.000471e-01 0.000000e+00
2.252559e+00 8.001986e-01 0.000000e+00
2.252783e+00 1.000394e+00 0.000000e+00
2.252875e+00 1.200614e+00 0.000000e+00
2.252862e+00 1.400836e+00 0.000000e+00
2.252781e+00 1.601038e+00 0.000000e+00
2.252680e+00 1.801205e+00 0.000000e+00
2.252622e+00 2.001334e+00 0.000000e+00
2.475000e+00 0.000000e+00 0.000000e+00
2.475718e+00 1.999453e-01 0.000000e+00
2.476288e+00 3.999740e-01 0.000000e+00
2.476725e+00 6.000715e-01 0.000000e+00
2.477034e+00 8.002231e-01 0.000000e+00
2.477228e+00 1.000412e+00 0.000000e+00
2.477322e+00 1.200621e+00 0.000000e+00
2.477339e+00 1.400832e+00 0.000000e+00
2.477310e+00 1.601026e+00 0.000000e+00
2.477273e+00 1.801196e+00 0.000000e+00
2.477274e+00 2.001341e+00 0.000000e+00
2.700000e+00 0.000000e+00 0.000000e+00
2.700534e+00 1.999516e-01 0.000000e+00
2.700972e+00 3.999796e-01 0.000000e+00
2.701313e+00 6.000714e-01 0.000000e+00
2.701560e+00 8.002144e-01 0.000000e+00
2.701722e+00 1.000392e+00 0.000000e+00
2.701810e+00 1.200589e+00 0.000000e+00
2.701843e+00 1.400788e+00 0.000000e+00
2.701846e+00 1.600977e+00 0.000000e+00
2.701846e+00 1.801150e+00 0.000000e+00
2.701877e+00 2.001309e+00 0.000000e+00
2.925000e+00 0.000000e+00 0.000000e+00
2.925377e+00 1.999527e-01 0.000000e+00
2.925695e+00 3.999766e-01 0.000000e+00
2.925946e+00 6.000603e-01 0.000000e+00
2.926131e+00 8.001925e-01 0.000000e+00
2.926256e+00 1.000359e+00 0.000000e+00
2.926330e+00 1.200544e+00 0.000000e+00
2.926367e+00 1.400734e+00 0.000000e+00
2.926384e+00 1.600919e+00 0.000000e+00
2.926402e+00 1.801094e+00 0.000000e+00
2.926442e+00 2.001264e+00 0.000000e+00
3.150000e+00 0.000000e+00 0.000000e+00
3.150241e+00 1.999535e-01 0.000000e+00
3.150449e+00 3.999732e-01 0.000000e+00
3.150612e+00 6.000504e-01 0.000000e+00
3.150736e+00 8.001739e-01 0.000000e+00
3.150821e+00 1.000330e+00 0.000000e+00
3.150874e+00 1.200506e+00 0.000000e+00
3.150904e+00 1.400689e+00 0.000000e+00
3.150923e+00 1.600871e+00 0.000000e+00
3.150943e+00 1.801049e+00 0.000000e+00
3.150978e+00 2.001227e+00 0.000000e+00
3.375000e+00 0.000000e+00 0.000000e+00
3.375119e+00 1.999554e-01 0.000000e+00
3.375220e+00 3.999758e-01 0.000000e+00
3.375301e+00 6.000503e-01 0.000000e+00
3.375362e+00 8.001685e-01 0.000000e+00
3.375406e+00 1.000319e+00 0.000000e+00
3.375433e+00 1.200488e+00 0.000000e+00
3.375450e+00 1.400667e+00 0.000000e+00
3.375462e+00 1.600847e+00 0.000000e+00
3.375474e+00 1.801027e+00 0.000000e+00
3.375494e+00 2.001210e+00 0.000000e+00
3.600000e+00 0.000000e+00 0.000000e+00
3.600000e+00 1.999692e-01 0.000000e+00
3.600000e+00 3.999926e-01 0.000000e+00
3.600000e+00 6.000665e-01 0.000000e+00
3.600000e+00 8.001824e-01 0.000000e+00
3.600000e+00 1.000330e+00 0.000000e+00
3.600000e+00 1.200498e+00 0.000000e+00
3.600000e+00 1.400674e+00 0.000000e+00
3.600000e+00 1.600854e+00 0.000000e+00
3.600000e+00 1.801034e+00 0.000000e+00
3.600000e+00 2.001219e+00 0.000000e+00
</DataArray>
</Points>
<Cells>
<DataArray Name="connectivity" type="Int32" format="ascii">
0 11 12 1
1 12 13 2
2 13 14 3
3 14 15 4
4 15 16 5
5 16 17 6
6 17 18 7
7 18 19 8
8 19 20 9
9 20 21 10
11 22 23 12
12 23 24 13
13 24 25 14
14 25 26 15
15 26 27 16
16 27 28 17
17 28 29 18
18 29 30 19
19 30 31 20
20 31 32 21
22 33 34 23
23 34 35 24
24 35 36 25
25 36 37 26
26 37 38 27
27 38 39 28
28 39 40 29
29 40 41 30
30 41 42 31
31 42 43 32
33 44 45 34
34 45 46 35
35 46 47 36
36 47 48 37
37 48 49 38
38 49 50 39
39 50 51 40
40 51 52 41
41 52 53 42
42 53 54 43
44 55 56 45
45 56 57 46
46 57 58 47
47 58 59 48
48 59 60 49
49 60 61 50
50 61 62 51
51 62 63 52
52 63 64 53
53 64 65 54
55 66 67 56
56 67 68 57
57 68 69 58
58 69 70 59
59 70 71 60
60 71 72 61
61 72 73 62
62 73 74 63
63 74 75 64
64 75 76 65
66 77 78 67
67 78 79 68
68 79 80 69
69 80 81 70
70 81 82 71
71 82 83 72
72 83 84 73
73 84 85 74
74 85 86 75
75 86 87 76
77 88 89 78
78 89 90 79
79 90 91 80
80 91 92 81
81 92 93 82
82 93 94 83
83 94 95 84
84 95 96 85
85 96 97 86
86 97 98 87
88 99 100 89
89 100 101 90
90 101 102 91
91 102 103 92
92 103 104 93
93 104 105 94
94 105 106 95
95 106 107 96
96 107 108 97
97 108 109 98
99 110 111 100
100 111 112 101
101 112 113 102
102 113 114 103
103 114 115 104
104 115 116 105
105 116 117 106
106 117 118 107
107 118 119 108
108 119 120 109
110 121 122 111
111 122 123 112
112 123 124 113
113 124 125 114
114 125 126 115
115 126 127 116
116 127 128 117
117 128 129 118
118 129 130 119
119 130 131 120
121 132 133 122
122 133 134 123
123 134 135 124
124 135 136 125
125 136 137 126
126 137 138 127
127 138 139 128
128 139 140 129
129 140 141 130
130 141 142 131
132 143 144 133
133 144 145 134
134 145 146 135
135 146 147 136
136 147 148 137
137 148 149 138
138 149 150 139
139 150 151 140
140 151 152 141
141 152 153 142
143 154 155 144
144 155 156 145
145 156 157 146
146 157 158 147
147 158 159 148
148 159 160 149
149 160 161 150
150 161 162 151
151 162 163 152
152 163 164 153
154 165 166 155
155 166 167 156
156 167 168 157
157 168 169 158
158 169 170 159
159 170 171 160
160 171 172 161
161 172 173 162
162 173 174 163
163 174 175 164
165 176 177 166
166 177 178 167
167 178 179 168
168 179 180 169
169 180 181 170
170 181 182 171
171 182 183 172
172 183 184 173
173 184 185 174
174 185 186 175
</DataArray>
<DataArray Name="offsets" type="Int32" format="ascii">
4
8
12
16
20
24
28
32
36
40
44
48
52
56
60
64
68
72
76
80
84
88
92
96
100
104
108
112
116
120
124
128
132
136
140
144
148
152
156
160
164
168
172
176
180
184
188
192
196
200
204
208
212
216
220
224
228
232
236
240
244
248
252
256
260
264
268
272
276
280
284
288
292
296
300
304
308
312
316
320
324
328
332
336
340
344
348
352
356
360
364
368
372
376
380
384
388
392
396
400
404
408
412
416
420
424
428
432
436
440
444
448
452
456
460
464
468
472
476
480
484
488
492
496
500
504
508
512
516
520
524
528
532
536
540
544
548
552
556
560
564
568
572
576
580
584
588
592
596
600
604
608
612
616
620
624
628
632
636
640
</DataArray>
<DataArray Name="types" type="UInt8" format="ascii">
9
9
9
9
9
9
9
9
9
9
9
9
9
9
9
9
9
9
9
9
9
9
9
9
9
9
9
9
9
9
9
9
9
9
9
9
9
9
9
9
9
9
9
9
9
9
9
9
9
9
9
9
9
9
9
9
9
9
9
9
9
9
9
9
9
9
9
9
9
9
9
9
9
9
9
9
9
9
9
9
9
9
9
9
9
9
9
9
9
9
9
9
9
9
9
9
9
9
9
9
9
9
9
9
9
9
9
9
9
9
9
9
9
9
9
9
9
9
9
9
9
9
9
9
9
9
9
9
9
9
9
9
9
9
9
9
9
9
9
9
9
9
9
9
9
9
9
9
9
9
9
9
9
9
9
9
9
9
9
9
</DataArray>
</Cells>
<PointData>
<DataArray Name="disp" type="Float64" NumberOfComponents="3" format="ascii">
0.000000e+00 0.000000e+00 0.000000e+00
0.000000e+00 -2.183450e-03 0.000000e+00
0.000000e+00 -5.113163e-03 0.000000e+00
0.000000e+00 -8.606832e-03 0.000000e+00
0.000000e+00 -1.255353e-02 0.000000e+00
0.000000e+00 -1.681990e-02 0.000000e+00
0.000000e+00 -2.123302e-02 0.000000e+00
0.000000e+00 -2.559838e-02 0.000000e+00
0.000000e+00 -2.964056e-02 0.000000e+00
0.000000e+00 -3.299942e-02 0.000000e+00
0.000000e+00 -3.600000e-02 0.000000e+00
0.000000e+00 0.000000e+00 0.000000e+00
1.011164e-03 -1.996668e-03 0.000000e+00
1.825897e-03 -4.676276e-03 0.000000e+00
2.425711e-03 -7.899051e-03 0.000000e+00
2.835232e-03 -1.157017e-02 0.000000e+00
3.019658e-03 -1.559731e-02 0.000000e+00
2.917630e-03 -1.987813e-02 0.000000e+00
2.537578e-03 -2.431501e-02 0.000000e+00
1.756162e-03 -2.873473e-02 0.000000e+00
5.578416e-04 -3.287492e-02 0.000000e+00
0.000000e+00 -3.600000e-02 0.000000e+00
0.000000e+00 0.000000e+00 0.000000e+00
1.813207e-03 -1.549985e-03 0.000000e+00
3.275940e-03 -3.509084e-03 0.000000e+00
4.401661e-03 -5.862656e-03 0.000000e+00
5.234382e-03 -8.615293e-03 0.000000e+00
5.732015e-03 -1.178214e-02 0.000000e+00
5.849705e-03 -1.540602e-02 0.000000e+00
5.689105e-03 -1.955396e-02 0.000000e+00
4.897768e-03 -2.433803e-02 0.000000e+00
3.359786e-03 -2.988870e-02 0.000000e+00
0.000000e+00 -3.600000e-02 0.000000e+00
0.000000e+00 0.000000e+00 0.000000e+00
2.224976e-03 -1.096447e-03 0.000000e+00
3.938959e-03 -2.256479e-03 0.000000e+00
5.280428e-03 -3.403377e-03 0.000000e+00
6.362594e-03 -4.493250e-03 0.000000e+00
7.174851e-03 -5.472474e-03 0.000000e+00
7.687966e-03 -6.324904e-03 0.000000e+00
7.913627e-03 -7.036117e-03 0.000000e+00
7.606373e-03 -7.462514e-03 0.000000e+00
6.566924e-03 -7.498927e-03 0.000000e+00
2.926599e-03 -6.869213e-03 0.000000e+00
0.000000e+00 0.000000e+00 0.000000e+00
2.326390e-03 -8.120886e-04 0.000000e+00
3.969369e-03 -1.579644e-03 0.000000e+00
5.211438e-03 -2.266615e-03 0.000000e+00
6.164644e-03 -2.857719e-03 0.000000e+00
6.835171e-03 -3.332679e-03 0.000000e+00
7.208308e-03 -3.659626e-03 0.000000e+00
7.226758e-03 -3.788283e-03 0.000000e+00
6.735859e-03 -3.706004e-03 0.000000e+00
5.345302e-03 -3.393905e-03 0.000000e+00
2.974696e-03 -3.400221e-03 0.000000e+00
0.000000e+00 0.000000e+00 0.000000e+00
2.251947e-03 -5.699184e-04 0.000000e+00
3.743976e-03 -1.052332e-03 0.000000e+00
4.855142e-03 -1.436882e-03 0.000000e+00
5.677018e-03 -1.719719e-03 0.000000e+00
6.219246e-03 -1.888614e-03 0.000000e+00
6.456252e-03 -1.926534e-03 0.000000e+00
6.348877e-03 -1.821395e-03 0.000000e+00
5.768935e-03 -1.584123e-03 0.000000e+00
4.652539e-03 -1.352987e-03 0.000000e+00
3.216347e-03 -1.276990e-03 0.000000e+00
0.000000e+00 0.000000e+00 0.000000e+00
2.050132e-03 -3.788465e-04 0.000000e+00
3.383906e-03 -6.550635e-04 0.000000e+00
4.361236e-03 -8.388229e-04 0.000000e+00
5.061586e-03 -9.279945e-04 0.000000e+00
5.498336e-03 -9.179485e-04 0.000000e+00
5.652607e-03 -8.086519e-04 0.000000e+00
5.489271e-03 -6.059858e-04 0.000000e+00
4.981684e-03 -3.559602e-04 0.000000e+00
4.183850e-03 -1.502249e-04 0.000000e+00
3.299647e-03 -8.661775e-05 0.000000e+00
0.000000e+00 0.000000e+00 0.000000e+00
1.778558e-03 -2.479900e-04 0.000000e+00
2.951496e-03 -3.825267e-04 0.000000e+00
3.802797e-03 -4.303453e-04 0.000000e+00
4.404623e-03 -3.982059e-04 0.000000e+00
4.764337e-03 -2.887141e-04 0.000000e+00
4.869012e-03 -1.060700e-04 0.000000e+00
4.717842e-03 1.293075e-04 0.000000e+00
4.335209e-03 3.707149e-04 0.000000e+00
3.799755e-03 5.505090e-04 0.000000e+00
3.263778e-03 6.299551e-04 0.000000e+00
0.000000e+00 0.000000e+00 0.000000e+00
1.484638e-03 -1.566494e-04 0.000000e+00
2.493855e-03 -2.014617e-04 0.000000e+00
3.235543e-03 -1.687219e-04 0.000000e+00
3.754507e-03 -7.000389e-05 0.000000e+00
4.054761e-03 9.365114e-05 0.000000e+00
4.142118e-03 3.090514e-04 0.000000e+00
4.035729e-03 5.491801e-04 0.000000e+00
3.775714e-03 7.744866e-04 0.000000e+00
3.436084e-03 9.440166e-04 0.000000e+00
3.128350e-03 1.038555e-03 0.000000e+00
0.000000e+00 0.000000e+00 0.000000e+00
1.196755e-03 -9.935772e-05 0.000000e+00
2.052372e-03 -9.589762e-05 0.000000e+00
2.692005e-03 -2.300052e-05 0.000000e+00
3.134774e-03 1.125018e-04 0.000000e+00
3.391862e-03 3.019824e-04 0.000000e+00
3.479822e-03 5.261879e-04 0.000000e+00
3.423146e-03 7.596335e-04 0.000000e+00
3.265234e-03 9.717522e-04 0.000000e+00
3.066401e-03 1.138279e-03 0.000000e+00
2.910676e-03 1.250154e-03 0.000000e+00
0.000000e+00 0.000000e+00 0.000000e+00
9.382704e-04 -7.016471e-05 0.000000e+00
1.648167e-03 -4.664427e-05 0.000000e+00
2.185939e-03 4.707080e-05 0.000000e+00
2.558687e-03 1.985441e-04 0.000000e+00
2.782926e-03 3.938169e-04 0.000000e+00
2.875378e-03 6.136324e-04 0.000000e+00
2.862375e-03 8.355660e-04 0.000000e+00
2.780752e-03 1.037959e-03 0.000000e+00
2.680153e-03 1.205154e-03 0.000000e+00
2.622191e-03 1.333910e-03 0.000000e+00
0.000000e+00 0.000000e+00 0.000000e+00
7.184571e-04 -5.469336e-05 0.000000e+00
1.288197e-03 -2.597107e-05 0.000000e+00
1.724730e-03 7.156988e-05 0.000000e+00
2.034228e-03 2.231075e-04 0.000000e+00
2.228471e-03 4.123419e-04 0.000000e+00
2.322228e-03 6.213914e-04 0.000000e+00
2.339027e-03 8.317144e-04 0.000000e+00
2.309894e-03 1.026458e-03 0.000000e+00
2.273462e-03 1.196176e-03 0.000000e+00
2.274324e-03 1.341024e-03 0.000000e+00
0.000000e+00 0.000000e+00 0.000000e+00
5.339391e-04 -4.834636e-05 0.000000e+00
9.721491e-04 -2.041592e-05 0.000000e+00
1.312428e-03 7.139512e-05 0.000000e+00
1.560170e-03 2.143335e-04 0.000000e+00
1.722232e-03 3.922104e-04 0.000000e+00
1.810178e-03 5.889201e-04 0.000000e+00
1.843228e-03 7.880880e-04 0.000000e+00
1.845688e-03 9.771818e-04 0.000000e+00
1.846418e-03 1.150131e-03 0.000000e+00
1.877440e-03 1.308690e-03 0.000000e+00
0.000000e+00 0.000000e+00 0.000000e+00
3.771679e-04 -4.730279e-05 0.000000e+00
6.952345e-04 -2.339107e-05 0.000000e+00
9.454365e-04 6.036586e-05 0.000000e+00
1.131092e-03 1.924975e-04 0.000000e+00
1.256516e-03 3.589004e-04 0.000000e+00
1.330201e-03 5.437668e-04 0.000000e+00
1.366868e-03 7.337207e-04 0.000000e+00
1.383970e-03 9.186375e-04 0.000000e+00
1.401892e-03 1.094453e-03 0.000000e+00
1.442269e-03 1.264007e-03 0.000000e+00
0.000000e+00 0.000000e+00 0.000000e+00
2.412150e-04 -4.655284e-05 0.000000e+00
4.485713e-04 -2.676984e-05 0.000000e+00
6.123410e-04 5.036713e-05 0.000000e+00
7.358956e-04 1.738490e-04 0.000000e+00
8.213228e-04 3.303933e-04 0.000000e+00
8.740461e-04 5.060275e-04 0.000000e+00
9.040935e-04 6.888084e-04 0.000000e+00
9.228791e-04 8.706081e-04 0.000000e+00
9.428349e-04 1.048888e-03 0.000000e+00
9.776730e-04 1.226989e-03 0.000000e+00
0.000000e+00 0.000000e+00 0.000000e+00
1.194304e-04 -4.464557e-05 0.000000e+00
2.203471e-04 -2.421107e-05 0.000000e+00
3.011346e-04 5.034089e-05 0.000000e+00
3.624074e-04 1.684830e-04 0.000000e+00
4.059459e-04 3.186183e-04 0.000000e+00
4.332339e-04 4.883569e-04 0.000000e+00
4.498769e-04 6.666600e-04 0.000000e+00
4.616008e-04 8.466341e-04 0.000000e+00
4.738602e-04 1.026558e-03 0.000000e+00
4.934671e-04 1.209710e-03 0.000000e+00
0.000000e+00 0.000000e+00 0.000000e+00
0.000000e+00 -3.082281e-05 0.000000e+00
0.000000e+00 -7.437700e-06 0.000000e+00
0.000000e+00 6.648107e-05 0.000000e+00
0.000000e+00 1.824248e-04 0.000000e+00
0.000000e+00 3.300554e-04 0.000000e+00
0.000000e+00 4.974573e-04 0.000000e+00
0.000000e+00 6.741807e-04 0.000000e+00
0.000000e+00 8.537376e-04 0.000000e+00
0.000000e+00 1.034433e-03 0.000000e+00
0.000000e+00 1.219277e-03 0.000000e+00
</DataArray>
<DataArray Name="shear" type="Float64" NumberOfComponents="1" format="ascii">
1.231716e-02
1.700469e-02
2.387731e-02
2.916826e-02
3.302054e-02
3.516202e-02
3.524431e-02
3.285484e-02
2.720481e-02
1.974386e-02
1.616739e-02
1.238420e-02
1.646075e-02
2.267777e-02
2.785711e-02
3.203271e-02
3.496384e-02
3.648243e-02
3.620469e-02
3.319491e-02
2.663165e-02
2.078974e-02
1.282427e-02
1.521341e-02
1.931145e-02
2.390677e-02
2.906258e-02
3.475375e-02
4.121761e-02
4.789564e-02
5.416176e-02
5.725211e-02
5.720976e-02
1.293742e-02
1.335573e-02
1.419155e-02
1.620460e-02
1.935298e-02
2.359102e-02
2.920058e-02
3.581208e-02
4.317038e-02
4.835888e-02
5.187143e-02
1.260174e-02
1.176764e-02
1.043832e-02
1.016655e-02
1.033004e-02
1.059809e-02
1.088826e-02
1.086546e-02
9.706223e-03
5.906568e-03
1.697933e-03
1.180938e-02
1.051418e-02
8.633859e-03
8.024137e-03
7.813976e-03
7.701651e-03
7.539524e-03
7.049865e-03
5.767251e-03
3.090197e-03
7.035620e-04
1.056854e-02
9.196787e-03
7.296662e-03
6.638849e-03
6.334599e-03
6.112301e-03
5.839182e-03
5.344365e-03
4.307364e-03
2.462132e-03
9.708555e-04
9.089570e-03
7.878261e-03
6.247406e-03
5.665341e-03
5.376566e-03
5.170261e-03
4.937877e-03
4.508747e-03
3.664789e-03
2.292591e-03
1.241948e-03
7.554404e-03
6.608126e-03
5.367677e-03
4.905590e-03
4.687144e-03
4.560984e-03
4.387082e-03
4.019160e-03
3.334921e-03
2.305352e-03
1.561112e-03
6.077316e-03
5.405524e-03
4.557543e-03
4.255302e-03
4.156572e-03
4.113793e-03
3.992337e-03
3.692817e-03
3.157025e-03
2.397540e-03
1.879332e-03
4.758955e-03
4.321052e-03
3.814941e-03
3.690360e-03
3.709663e-03
3.738058e-03
3.673485e-03
3.453689e-03
3.058038e-03
2.522179e-03
2.178913e-03
3.639244e-03
3.373684e-03
3.136535e-03
3.177389e-03
3.306615e-03
3.405815e-03
3.405180e-03
3.269646e-03
3.001739e-03
2.653979e-03
2.446264e-03
2.699085e-03
2.549513e-03
2.522369e-03
2.712687e-03
2.947886e-03
3.120723e-03
3.184640e-03
3.127462e-03
2.971611e-03
2.775712e-03
2.670694e-03
1.905073e-03
1.841761e-03
1.996837e-03
2.325710e-03
2.653578e-03
2.890243e-03
3.010238e-03
3.021355e-03
2.957482e-03
2.878796e-03
2.849628e-03
1.220773e-03
1.235851e-03
1.584008e-03
2.042779e-03
2.441690e-03
2.723515e-03
2.884682e-03
2.947201e-03
2.952616e-03
2.958780e-03
2.982599e-03
6.118395e-04
7.496147e-04
1.318095e-03
1.871758e-03
2.312957e-03
2.622986e-03
2.809590e-03
2.904196e-03
2.952953e-03
3.008704e-03
3.062439e-03
2.195540e-04
5.395138e-04
1.226674e-03
1.811566e-03
2.266355e-03
2.587375e-03
2.783677e-03
2.890295e-03
2.954399e-03
3.025675e-03
3.088249e-03
</DataArray>
<DataArray Name="stress" type="Float64" NumberOfComponents="9" format="ascii">
-1.003180e+05 4.476452e+03 0.000000e+00 4.476452e+03 -1.627372e+05 0.000000e+00 0.000000e+00 0.000000e+00 0.000000e+00
-9.074272e+04 4.274644e+03 0.000000e+00 4.274644e+03 -1.613571e+05 0.000000e+00 0.000000e+00 0.000000e+00 0.000000e+00
-8.648715e+04 4.349486e+03 0.000000e+00 4.349486e+03 -1.710274e+05 0.000000e+00 0.000000e+00 0.000000e+00 0.000000e+00
-8.609487e+04 4.428159e+03 0.000000e+00 4.428159e+03 -1.799113e+05 0.000000e+00 0.000000e+00 0.000000e+00 0.000000e+00
-8.849147e+04 4.710220e+03 0.000000e+00 4.710220e+03 -1.881237e+05 0.000000e+00 0.000000e+00 0.000000e+00 0.000000e+00
-9.206553e+04 5.039504e+03 0.000000e+00 5.039504e+03 -1.966221e+05 0.000000e+00 0.000000e+00 0.000000e+00 0.000000e+00
-9.656522e+04 5.317896e+03 0.000000e+00 5.317896e+03 -2.053537e+05 0.000000e+00 0.000000e+00 0.000000e+00 0.000000e+00
-1.016770e+05 4.864867e+03 0.000000e+00 4.864867e+03 -2.129347e+05 0.000000e+00 0.000000e+00 0.000000e+00 0.000000e+00
-1.090317e+05 2.286894e+03 0.000000e+00 2.286894e+03 -2.173852e+05 0.000000e+00 0.000000e+00 0.000000e+00 0.000000e+00
-1.220548e+05 -1.294591e+03 0.000000e+00 -1.294591e+03 -2.181393e+05 0.000000e+00 0.000000e+00 0.000000e+00 0.000000e+00
-1.302087e+05 -1.850704e+03 0.000000e+00 -1.850704e+03 -2.167857e+05 0.000000e+00 0.000000e+00 0.000000e+00 0.000000e+00
-9.852415e+04 1.206647e+04 0.000000e+00 1.206647e+04 -1.536344e+05 0.000000e+00 0.000000e+00 0.000000e+00 0.000000e+00
-8.992706e+04 1.100721e+04 0.000000e+00 1.100721e+04 -1.524123e+05 0.000000e+00 0.000000e+00 0.000000e+00 0.000000e+00
-8.628886e+04 1.016435e+04 0.000000e+00 1.016435e+04 -1.608125e+05 0.000000e+00 0.000000e+00 0.000000e+00 0.000000e+00
-8.648945e+04 1.003027e+04 0.000000e+00 1.003027e+04 -1.691462e+05 0.000000e+00 0.000000e+00 0.000000e+00 0.000000e+00
-8.899684e+04 1.034334e+04 0.000000e+00 1.034334e+04 -1.776328e+05 0.000000e+00 0.000000e+00 0.000000e+00 0.000000e+00
-9.266804e+04 1.086676e+04 0.000000e+00 1.086676e+04 -1.870822e+05 0.000000e+00 0.000000e+00 0.000000e+00 0.000000e+00
-9.718060e+04 1.105208e+04 0.000000e+00 1.105208e+04 -1.972917e+05 0.000000e+00 0.000000e+00 0.000000e+00 0.000000e+00
-1.014284e+05 9.801835e+03 0.000000e+00 9.801835e+03 -2.071990e+05 0.000000e+00 0.000000e+00 0.000000e+00 0.000000e+00
-1.072128e+05 5.700678e+03 0.000000e+00 5.700678e+03 -2.171272e+05 0.000000e+00 0.000000e+00 0.000000e+00 0.000000e+00
-1.165928e+05 -1.963244e+02 0.000000e+00 -1.963244e+02 -2.227782e+05 0.000000e+00 0.000000e+00 0.000000e+00 0.000000e+00
-1.337830e+05 -5.900595e+03 0.000000e+00 -5.900595e+03 -2.364134e+05 0.000000e+00 0.000000e+00 0.000000e+00 0.000000e+00
-9.396857e+04 1.954538e+04 0.000000e+00 1.954538e+04 -1.341641e+05 0.000000e+00 0.000000e+00 0.000000e+00 0.000000e+00
-8.772798e+04 1.836866e+04 0.000000e+00 1.836866e+04 -1.327521e+05 0.000000e+00 0.000000e+00 0.000000e+00 0.000000e+00
-8.567363e+04 1.793777e+04 0.000000e+00 1.793777e+04 -1.375699e+05 0.000000e+00 0.000000e+00 0.000000e+00 0.000000e+00
-8.762910e+04 1.896733e+04 0.000000e+00 1.896733e+04 -1.433178e+05 0.000000e+00 0.000000e+00 0.000000e+00 0.000000e+00
-9.172942e+04 2.088104e+04 0.000000e+00 2.088104e+04 -1.505696e+05 0.000000e+00 0.000000e+00 0.000000e+00 0.000000e+00
-9.707109e+04 2.300210e+04 0.000000e+00 2.300210e+04 -1.593977e+05 0.000000e+00 0.000000e+00 0.000000e+00 0.000000e+00
-1.030843e+05 2.431486e+04 0.000000e+00 2.431486e+04 -1.684006e+05 0.000000e+00 0.000000e+00 0.000000e+00 0.000000e+00
-1.091112e+05 2.567644e+04 0.000000e+00 2.567644e+04 -1.786349e+05 0.000000e+00 0.000000e+00 0.000000e+00 0.000000e+00
-1.171395e+05 2.492222e+04 0.000000e+00 2.492222e+04 -1.930508e+05 0.000000e+00 0.000000e+00 0.000000e+00 0.000000e+00
-1.308355e+05 2.042161e+04 0.000000e+00 2.042161e+04 -2.106830e+05 0.000000e+00 0.000000e+00 0.000000e+00 0.000000e+00
-1.531012e+05 1.235705e+04 0.000000e+00 1.235705e+04 -2.379535e+05 0.000000e+00 0.000000e+00 0.000000e+00 0.000000e+00
-8.895618e+04 2.156583e+04 0.000000e+00 2.156583e+04 -1.157585e+05 0.000000e+00 0.000000e+00 0.000000e+00 0.000000e+00
-8.538623e+04 2.068777e+04 0.000000e+00 2.068777e+04 -1.143884e+05 0.000000e+00 0.000000e+00 0.000000e+00 0.000000e+00
-8.440097e+04 2.049206e+04 0.000000e+00 2.049206e+04 -1.147461e+05 0.000000e+00 0.000000e+00 0.000000e+00 0.000000e+00
-8.592782e+04 2.148770e+04 0.000000e+00 2.148770e+04 -1.139794e+05 0.000000e+00 0.000000e+00 0.000000e+00 0.000000e+00
-8.823088e+04 2.276946e+04 0.000000e+00 2.276946e+04 -1.124339e+05 0.000000e+00 0.000000e+00 0.000000e+00 0.000000e+00
-9.048250e+04 2.400417e+04 0.000000e+00 2.400417e+04 -1.097613e+05 0.000000e+00 0.000000e+00 0.000000e+00 0.000000e+00
-9.223086e+04 2.416107e+04 0.000000e+00 2.416107e+04 -1.054945e+05 0.000000e+00 0.000000e+00 0.000000e+00 0.000000e+00
-9.356430e+04 2.469278e+04 0.000000e+00 2.469278e+04 -1.009185e+05 0.000000e+00 0.000000e+00 0.000000e+00 0.000000e+00
-9.310738e+04 2.352052e+04 0.000000e+00 2.352052e+04 -9.320177e+04 0.000000e+00 0.000000e+00 0.000000e+00 0.000000e+00
-8.740565e+04 1.796255e+04 0.000000e+00 1.796255e+04 -7.948640e+04 0.000000e+00 0.000000e+00 0.000000e+00 0.000000e+00
-7.657302e+04 1.404423e+04 0.000000e+00 1.404423e+04 -7.199600e+04 0.000000e+00 0.000000e+00 0.000000e+00 0.000000e+00
-8.486202e+04 2.120821e+04 0.000000e+00 2.120821e+04 -1.026675e+05 0.000000e+00 0.000000e+00 0.000000e+00 0.000000e+00
-8.425537e+04 2.054154e+04 0.000000e+00 2.054154e+04 -1.020551e+05 0.000000e+00 0.000000e+00 0.000000e+00 0.000000e+00
-8.565838e+04 1.991862e+04 0.000000e+00 1.991862e+04 -1.014094e+05 0.000000e+00 0.000000e+00 0.000000e+00 0.000000e+00
-8.864420e+04 2.021719e+04 0.000000e+00 2.021719e+04 -9.991482e+04 0.000000e+00 0.000000e+00 0.000000e+00 0.000000e+00
-9.196755e+04 2.068568e+04 0.000000e+00 2.068568e+04 -9.753212e+04 0.000000e+00 0.000000e+00 0.000000e+00 0.000000e+00
-9.481588e+04 2.088746e+04 0.000000e+00 2.088746e+04 -9.415388e+04 0.000000e+00 0.000000e+00 0.000000e+00 0.000000e+00
-9.699429e+04 2.052655e+04 0.000000e+00 2.052655e+04 -8.946178e+04 0.000000e+00 0.000000e+00 0.000000e+00 0.000000e+00
-9.866295e+04 1.902503e+04 0.000000e+00 1.902503e+04 -8.335114e+04 0.000000e+00 0.000000e+00 0.000000e+00 0.000000e+00
-9.790132e+04 1.534447e+04 0.000000e+00 1.534447e+04 -7.529289e+04 0.000000e+00 0.000000e+00 0.000000e+00 0.000000e+00
-9.007497e+04 7.480570e+03 0.000000e+00 7.480570e+03 -6.811860e+04 0.000000e+00 0.000000e+00 0.000000e+00 0.000000e+00
-6.690005e+04 1.258444e+03 0.000000e+00 1.258444e+03 -5.808049e+04 0.000000e+00 0.000000e+00 0.000000e+00 0.000000e+00
-8.063440e+04 1.997916e+04 0.000000e+00 1.997916e+04 -9.198962e+04 0.000000e+00 0.000000e+00 0.000000e+00 0.000000e+00
-8.250359e+04 1.942859e+04 0.000000e+00 1.942859e+04 -9.188712e+04 0.000000e+00 0.000000e+00 0.000000e+00 0.000000e+00
-8.543873e+04 1.833239e+04 0.000000e+00 1.833239e+04 -9.028988e+04 0.000000e+00 0.000000e+00 0.000000e+00 0.000000e+00
-8.894211e+04 1.781026e+04 0.000000e+00 1.781026e+04 -8.809026e+04 0.000000e+00 0.000000e+00 0.000000e+00 0.000000e+00
-9.204877e+04 1.730801e+04 0.000000e+00 1.730801e+04 -8.523792e+04 0.000000e+00 0.000000e+00 0.000000e+00 0.000000e+00
-9.435425e+04 1.637280e+04 0.000000e+00 1.637280e+04 -8.156740e+04 0.000000e+00 0.000000e+00 0.000000e+00 0.000000e+00
-9.571839e+04 1.471473e+04 0.000000e+00 1.471473e+04 -7.698787e+04 0.000000e+00 0.000000e+00 0.000000e+00 0.000000e+00
-9.572470e+04 1.181756e+04 0.000000e+00 1.181756e+04 -7.168531e+04 0.000000e+00 0.000000e+00 0.000000e+00 0.000000e+00
-9.255616e+04 7.125634e+03 0.000000e+00 7.125634e+03 -6.640771e+04 0.000000e+00 0.000000e+00 0.000000e+00 0.000000e+00
-8.039606e+04 1.470211e+03 0.000000e+00 1.470211e+03 -6.230750e+04 0.000000e+00 0.000000e+00 0.000000e+00 0.000000e+00
-6.268759e+04 -9.561090e+02 0.000000e+00 -9.561090e+02 -5.806654e+04 0.000000e+00 0.000000e+00 0.000000e+00 0.000000e+00
-7.654655e+04 1.839943e+04 0.000000e+00 1.839943e+04 -8.330266e+04 0.000000e+00 0.000000e+00 0.000000e+00 0.000000e+00
-8.045984e+04 1.778364e+04 0.000000e+00 1.778364e+04 -8.359173e+04 0.000000e+00 0.000000e+00 0.000000e+00 0.000000e+00
-8.454231e+04 1.619950e+04 0.000000e+00 1.619950e+04 -8.164896e+04 0.000000e+00 0.000000e+00 0.000000e+00 0.000000e+00
-8.819158e+04 1.507971e+04 0.000000e+00 1.507971e+04 -7.939879e+04 0.000000e+00 0.000000e+00 0.000000e+00 0.000000e+00
-9.095002e+04 1.379867e+04 0.000000e+00 1.379867e+04 -7.660768e+04 0.000000e+00 0.000000e+00 0.000000e+00 0.000000e+00
-9.267647e+04 1.205286e+04 0.000000e+00 1.205286e+04 -7.327683e+04 0.000000e+00 0.000000e+00 0.000000e+00 0.000000e+00
-9.312991e+04 9.694396e+03 0.000000e+00 9.694396e+03 -6.956007e+04 0.000000e+00 0.000000e+00 0.000000e+00 0.000000e+00
-9.175495e+04 6.472781e+03 0.000000e+00 6.472781e+03 -6.581878e+04 0.000000e+00 0.000000e+00 0.000000e+00 0.000000e+00
-8.696938e+04 2.488971e+03 0.000000e+00 2.488971e+03 -6.261041e+04 0.000000e+00 0.000000e+00 0.000000e+00 0.000000e+00
-7.639250e+04 -5.849127e+02 0.000000e+00 -5.849127e+02 -6.055638e+04 0.000000e+00 0.000000e+00 0.000000e+00 0.000000e+00
-6.482166e+04 -1.507936e+03 0.000000e+00 -1.507936e+03 -5.851666e+04 0.000000e+00 0.000000e+00 0.000000e+00 0.000000e+00
-7.292377e+04 1.660415e+04 0.000000e+00 1.660415e+04 -7.671015e+04 0.000000e+00 0.000000e+00 0.000000e+00 0.000000e+00
-7.813767e+04 1.593576e+04 0.000000e+00 1.593576e+04 -7.714111e+04 0.000000e+00 0.000000e+00 0.000000e+00 0.000000e+00
-8.307161e+04 1.403728e+04 0.000000e+00 1.403728e+04 -7.513686e+04 0.000000e+00 0.000000e+00 0.000000e+00 0.000000e+00
-8.669170e+04 1.242755e+04 0.000000e+00 1.242755e+04 -7.301521e+04 0.000000e+00 0.000000e+00 0.000000e+00 0.000000e+00
-8.911605e+04 1.063755e+04 0.000000e+00 1.063755e+04 -7.059452e+04 0.000000e+00 0.000000e+00 0.000000e+00 0.000000e+00
-9.034141e+04 8.535038e+03 0.000000e+00 8.535038e+03 -6.798115e+04 0.000000e+00 0.000000e+00 0.000000e+00 0.000000e+00
-9.011998e+04 5.997896e+03 0.000000e+00 5.997896e+03 -6.530916e+04 0.000000e+00 0.000000e+00 0.000000e+00 0.000000e+00
-8.794553e+04 3.052001e+03 0.000000e+00 3.052001e+03 -6.283350e+04 0.000000e+00 0.000000e+00 0.000000e+00 0.000000e+00
-8.319410e+04 1.817861e+02 0.000000e+00 1.817861e+02 -6.098939e+04 0.000000e+00 0.000000e+00 0.000000e+00 0.000000e+00
-7.513502e+04 -1.282869e+03 0.000000e+00 -1.282869e+03 -6.005624e+04 0.000000e+00 0.000000e+00 0.000000e+00 0.000000e+00
-6.749972e+04 -1.367017e+03 0.000000e+00 -1.367017e+03 -5.899095e+04 0.000000e+00 0.000000e+00 0.000000e+00 0.000000e+00
-6.986283e+04 1.463576e+04 0.000000e+00 1.463576e+04 -7.185013e+04 0.000000e+00 0.000000e+00 0.000000e+00 0.000000e+00
-7.580034e+04 1.401290e+04 0.000000e+00 1.401290e+04 -7.225167e+04 0.000000e+00 0.000000e+00 0.000000e+00 0.000000e+00
-8.121588e+04 1.200963e+04 0.000000e+00 1.200963e+04 -7.037046e+04 0.000000e+00 0.000000e+00 0.000000e+00 0.000000e+00
-8.476267e+04 1.012510e+04 0.000000e+00 1.012510e+04 -6.851491e+04 0.000000e+00 0.000000e+00 0.000000e+00 0.000000e+00
-8.692220e+04 8.124511e+03 0.000000e+00 8.124511e+03 -6.661183e+04 0.000000e+00 0.000000e+00 0.000000e+00 0.000000e+00
-8.776969e+04 5.915288e+03 0.000000e+00 5.915288e+03 -6.465759e+04 0.000000e+00 0.000000e+00 0.000000e+00 0.000000e+00
-8.716690e+04 3.469087e+03 0.000000e+00 3.469087e+03 -6.277240e+04 0.000000e+00 0.000000e+00 0.000000e+00 0.000000e+00
-8.490462e+04 1.016173e+03 0.000000e+00 1.016173e+03 -6.121837e+04 0.000000e+00 0.000000e+00 0.000000e+00 0.000000e+00
-8.094893e+04 -8.919749e+02 0.000000e+00 -8.919749e+02 -6.024900e+04 0.000000e+00 0.000000e+00 0.000000e+00 0.000000e+00
-7.516066e+04 -1.428321e+03 0.000000e+00 -1.428321e+03 -5.990454e+04 0.000000e+00 0.000000e+00 0.000000e+00 0.000000e+00
-7.012441e+04 -1.186418e+03 0.000000e+00 -1.186418e+03 -5.928671e+04 0.000000e+00 0.000000e+00 0.000000e+00 0.000000e+00
-6.769702e+04 1.278083e+04 0.000000e+00 1.278083e+04 -6.845200e+04 0.000000e+00 0.000000e+00 0.000000e+00 0.000000e+00
-7.363473e+04 1.215925e+04 0.000000e+00 1.215925e+04 -6.876625e+04 0.000000e+00 0.000000e+00 0.000000e+00 0.000000e+00
-7.915738e+04 1.019873e+04 0.000000e+00 1.019873e+04 -6.706729e+04 0.000000e+00 0.000000e+00 0.000000e+00 0.000000e+00
-8.263159e+04 8.235540e+03 0.000000e+00 8.235540e+03 -6.548656e+04 0.000000e+00 0.000000e+00 0.000000e+00 0.000000e+00
-8.458962e+04 6.180565e+03 0.000000e+00 6.180565e+03 -6.397445e+04 0.000000e+00 0.000000e+00 0.000000e+00 0.000000e+00
-8.522201e+04 4.011029e+03 0.000000e+00 4.011029e+03 -6.250330e+04 0.000000e+00 0.000000e+00 0.000000e+00 0.000000e+00
-8.455730e+04 1.821467e+03 0.000000e+00 1.821467e+03 -6.123011e+04 0.000000e+00 0.000000e+00 0.000000e+00 0.000000e+00
-8.267377e+04 -8.245889e+01 0.000000e+00 -8.245889e+01 -6.033614e+04 0.000000e+00 0.000000e+00 0.000000e+00 0.000000e+00
-7.972088e+04 -1.297106e+03 0.000000e+00 -1.297106e+03 -5.990342e+04 0.000000e+00 0.000000e+00 0.000000e+00 0.000000e+00
-7.572029e+04 -1.364492e+03 0.000000e+00 -1.364492e+03 -5.984509e+04 0.000000e+00 0.000000e+00 0.000000e+00 0.000000e+00
-7.246855e+04 -9.895002e+02 0.000000e+00 -9.895002e+02 -5.948932e+04 0.000000e+00 0.000000e+00 0.000000e+00 0.000000e+00
-6.616061e+04 1.099567e+04 0.000000e+00 1.099567e+04 -6.629376e+04 0.000000e+00 0.000000e+00 0.000000e+00 0.000000e+00
-7.170772e+04 1.039257e+04 0.000000e+00 1.039257e+04 -6.639348e+04 0.000000e+00 0.000000e+00 0.000000e+00 0.000000e+00
-7.704339e+04 8.556494e+03 0.000000e+00 8.556494e+03 -6.480913e+04 0.000000e+00 0.000000e+00 0.000000e+00 0.000000e+00
-8.044049e+04 6.641731e+03 0.000000e+00 6.641731e+03 -6.345176e+04 0.000000e+00 0.000000e+00 0.000000e+00 0.000000e+00
-8.228849e+04 4.660698e+03 0.000000e+00 4.660698e+03 -6.221462e+04 0.000000e+00 0.000000e+00 0.000000e+00 0.000000e+00
-8.288086e+04 2.670146e+03 0.000000e+00 2.670146e+03 -6.112552e+04 0.000000e+00 0.000000e+00 0.000000e+00 0.000000e+00
-8.242920e+04 8.403192e+02 0.000000e+00 8.403192e+02 -6.032258e+04 0.000000e+00 0.000000e+00 0.000000e+00 0.000000e+00
-8.110012e+04 -5.900891e+02 0.000000e+00 -5.900891e+02 -5.986330e+04 0.000000e+00 0.000000e+00 0.000000e+00 0.000000e+00
-7.907980e+04 -1.364960e+03 0.000000e+00 -1.364960e+03 -5.973196e+04 0.000000e+00 0.000000e+00 0.000000e+00 0.000000e+00
-7.647940e+04 -1.206960e+03 0.000000e+00 -1.206960e+03 -5.981757e+04 0.000000e+00 0.000000e+00 0.000000e+00 0.000000e+00
-7.447717e+04 -8.005706e+02 0.000000e+00 -8.005706e+02 -5.964777e+04 0.000000e+00 0.000000e+00 0.000000e+00 0.000000e+00
-6.501008e+04 9.163244e+03 0.000000e+00 9.163244e+03 -6.496807e+04 0.000000e+00 0.000000e+00 0.000000e+00 0.000000e+00
-6.998266e+04 8.620637e+03 0.000000e+00 8.620637e+03 -6.488361e+04 0.000000e+00 0.000000e+00 0.000000e+00 0.000000e+00
-7.506402e+04 7.018612e+03 0.000000e+00 7.018612e+03 -6.337071e+04 0.000000e+00 0.000000e+00 0.000000e+00 0.000000e+00
-7.835245e+04 5.270863e+03 0.000000e+00 5.270863e+03 -6.213566e+04 0.000000e+00 0.000000e+00 0.000000e+00 0.000000e+00
-8.017191e+04 3.470478e+03 0.000000e+00 3.470478e+03 -6.108766e+04 0.000000e+00 0.000000e+00 0.000000e+00 0.000000e+00
-8.088773e+04 1.765583e+03 0.000000e+00 1.765583e+03 -6.028746e+04 0.000000e+00 0.000000e+00 0.000000e+00 0.000000e+00
-8.076475e+04 3.040391e+02 0.000000e+00 3.040391e+02 -5.979549e+04 0.000000e+00 0.000000e+00 0.000000e+00 0.000000e+00
-7.999377e+04 -7.578127e+02 0.000000e+00 -7.578127e+02 -5.960556e+04 0.000000e+00 0.000000e+00 0.000000e+00 0.000000e+00
-7.877371e+04 -1.249156e+03 0.000000e+00 -1.249156e+03 -5.964895e+04 0.000000e+00 0.000000e+00 0.000000e+00 0.000000e+00
-7.724741e+04 -1.005891e+03 0.000000e+00 -1.005891e+03 -5.981240e+04 0.000000e+00 0.000000e+00 0.000000e+00 0.000000e+00
-7.613854e+04 -6.283267e+02 0.000000e+00 -6.283267e+02 -5.977110e+04 0.000000e+00 0.000000e+00 0.000000e+00 0.000000e+00
-6.419687e+04 7.285218e+03 0.000000e+00 7.285218e+03 -6.418485e+04 0.000000e+00 0.000000e+00 0.000000e+00 0.000000e+00
-6.856020e+04 6.825245e+03 0.000000e+00 6.825245e+03 -6.395456e+04 0.000000e+00 0.000000e+00 0.000000e+00 0.000000e+00
-7.332347e+04 5.532086e+03 0.000000e+00 5.532086e+03 -6.247517e+04 0.000000e+00 0.000000e+00 0.000000e+00 0.000000e+00
-7.649558e+04 4.030604e+03 0.000000e+00 4.030604e+03 -6.130177e+04 0.000000e+00 0.000000e+00 0.000000e+00 0.000000e+00
-7.836429e+04 2.529875e+03 0.000000e+00 2.529875e+03 -6.041197e+04 0.000000e+00 0.000000e+00 0.000000e+00 0.000000e+00
-7.928003e+04 1.161556e+03 0.000000e+00 1.161556e+03 -5.981738e+04 0.000000e+00 0.000000e+00 0.000000e+00 0.000000e+00
-7.949791e+04 3.981485e+01 0.000000e+00 3.981485e+01 -5.952068e+04 0.000000e+00 0.000000e+00 0.000000e+00 0.000000e+00
-7.922609e+04 -7.280886e+02 0.000000e+00 -7.280886e+02 -5.948279e+04 0.000000e+00 0.000000e+00 0.000000e+00 0.000000e+00
-7.864929e+04 -1.037411e+03 0.000000e+00 -1.037411e+03 -5.962138e+04 0.000000e+00 0.000000e+00 0.000000e+00 0.000000e+00
-7.792945e+04 -7.873903e+02 0.000000e+00 -7.873903e+02 -5.981717e+04 0.000000e+00 0.000000e+00 0.000000e+00 0.000000e+00
-7.745866e+04 -4.728839e+02 0.000000e+00 -4.728839e+02 -5.986297e+04 0.000000e+00 0.000000e+00 0.000000e+00 0.000000e+00
-6.363929e+04 5.407438e+03 0.000000e+00 5.407438e+03 -6.372574e+04 0.000000e+00 0.000000e+00 0.000000e+00 0.000000e+00
-6.747375e+04 5.047595e+03 0.000000e+00 5.047595e+03 -6.340582e+04 0.000000e+00 0.000000e+00 0.000000e+00 0.000000e+00
-7.189254e+04 4.063475e+03 0.000000e+00 4.063475e+03 -6.195360e+04 0.000000e+00 0.000000e+00 0.000000e+00 0.000000e+00
-7.498678e+04 2.905223e+03 0.000000e+00 2.905223e+03 -6.082825e+04 0.000000e+00 0.000000e+00 0.000000e+00 0.000000e+00
-7.693797e+04 1.766500e+03 0.000000e+00 1.766500e+03 -6.003324e+04 0.000000e+00 0.000000e+00 0.000000e+00 0.000000e+00
-7.805109e+04 7.489980e+02 0.000000e+00 7.489980e+02 -5.956924e+04 0.000000e+00 0.000000e+00 0.000000e+00 0.000000e+00
-7.857208e+04 -6.226068e+01 0.000000e+00 -6.226068e+01 -5.939541e+04 0.000000e+00 0.000000e+00 0.000000e+00 0.000000e+00
-7.870205e+04 -5.938854e+02 0.000000e+00 -5.938854e+02 -5.944524e+04 0.000000e+00 0.000000e+00 0.000000e+00 0.000000e+00
-7.861970e+04 -7.824891e+02 0.000000e+00 -7.824891e+02 -5.962663e+04 0.000000e+00 0.000000e+00 0.000000e+00 0.000000e+00
-7.847403e+04 -5.727906e+02 0.000000e+00 -5.727906e+02 -5.983168e+04 0.000000e+00 0.000000e+00 0.000000e+00 0.000000e+00
-7.844810e+04 -3.331789e+02 0.000000e+00 -3.331789e+02 -5.993203e+04 0.000000e+00 0.000000e+00 0.000000e+00 0.000000e+00
-6.322561e+04 3.514477e+03 0.000000e+00 3.514477e+03 -6.345249e+04 0.000000e+00 0.000000e+00 0.000000e+00 0.000000e+00
-6.669520e+04 3.265417e+03 0.000000e+00 3.265417e+03 -6.306360e+04 0.000000e+00 0.000000e+00 0.000000e+00 0.000000e+00
-7.085223e+04 2.620119e+03 0.000000e+00 2.620119e+03 -6.164761e+04 0.000000e+00 0.000000e+00 0.000000e+00 0.000000e+00
-7.389605e+04 1.858763e+03 0.000000e+00 1.858763e+03 -6.057245e+04 0.000000e+00 0.000000e+00 0.000000e+00 0.000000e+00
-7.592038e+04 1.108687e+03 0.000000e+00 1.108687e+03 -5.985659e+04 0.000000e+00 0.000000e+00 0.000000e+00 0.000000e+00
-7.719465e+04 4.500079e+02 0.000000e+00 4.500079e+02 -5.946672e+04 0.000000e+00 0.000000e+00 0.000000e+00 0.000000e+00
-7.794285e+04 -7.192069e+01 0.000000e+00 -7.192069e+01 -5.935734e+04 0.000000e+00 0.000000e+00 0.000000e+00 0.000000e+00
-7.836438e+04 -4.090800e+02 0.000000e+00 -4.090800e+02 -5.945135e+04 0.000000e+00 0.000000e+00 0.000000e+00 0.000000e+00
-7.862690e+04 -5.177089e+02 0.000000e+00 -5.177089e+02 -5.964691e+04 0.000000e+00 0.000000e+00 0.000000e+00 0.000000e+00
-7.886255e+04 -3.716421e+02 0.000000e+00 -3.716421e+02 -5.984873e+04 0.000000e+00 0.000000e+00 0.000000e+00 0.000000e+00
-7.912491e+04 -2.127589e+02 0.000000e+00 -2.127589e+02 -5.998677e+04 0.000000e+00 0.000000e+00 0.000000e+00 0.000000e+00
-6.296204e+04 1.607215e+03 0.000000e+00 1.607215e+03 -6.312110e+04 0.000000e+00 0.000000e+00 0.000000e+00 0.000000e+00
-6.626732e+04 1.533172e+03 0.000000e+00 1.533172e+03 -6.274269e+04 0.000000e+00 0.000000e+00 0.000000e+00 0.000000e+00
-7.025194e+04 1.251585e+03 0.000000e+00 1.251585e+03 -6.142030e+04 0.000000e+00 0.000000e+00 0.000000e+00 0.000000e+00
-7.325171e+04 8.942322e+02 0.000000e+00 8.942322e+02 -6.042990e+04 0.000000e+00 0.000000e+00 0.000000e+00 0.000000e+00
-7.531916e+04 5.340106e+02 0.000000e+00 5.340106e+02 -5.978211e+04 0.000000e+00 0.000000e+00 0.000000e+00 0.000000e+00
-7.669322e+04 2.099660e+02 0.000000e+00 2.099660e+02 -5.944182e+04 0.000000e+00 0.000000e+00 0.000000e+00 0.000000e+00
-7.757872e+04 -4.050340e+01 0.000000e+00 -4.050340e+01 -5.936136e+04 0.000000e+00 0.000000e+00 0.000000e+00 0.000000e+00
-7.817329e+04 -2.046139e+02 0.000000e+00 -2.046139e+02 -5.946549e+04 0.000000e+00 0.000000e+00 0.000000e+00 0.000000e+00
-7.863895e+04 -2.565786e+02 0.000000e+00 -2.565786e+02 -5.966338e+04 0.000000e+00 0.000000e+00 0.000000e+00 0.000000e+00
-7.909259e+04 -1.833522e+02 0.000000e+00 -1.833522e+02 -5.985832e+04 0.000000e+00 0.000000e+00 0.000000e+00 0.000000e+00
-7.951673e+04 -1.065313e+02 0.000000e+00 -1.065313e+02 -6.001874e+04 0.000000e+00 0.000000e+00 0.000000e+00 0.000000e+00
-6.276532e+04 3.042135e+02 0.000000e+00 3.042135e+02 -6.269088e+04 0.000000e+00 0.000000e+00 0.000000e+00 0.000000e+00
-6.609666e+04 3.783741e+02 0.000000e+00 3.783741e+02 -6.244543e+04 0.000000e+00 0.000000e+00 0.000000e+00 0.000000e+00
-7.005902e+04 3.495630e+02 0.000000e+00 3.495630e+02 -6.130798e+04 0.000000e+00 0.000000e+00 0.000000e+00 0.000000e+00
-7.304145e+04 2.470548e+02 0.000000e+00 2.470548e+02 -6.038838e+04 0.000000e+00 0.000000e+00 0.000000e+00 0.000000e+00
-7.512330e+04 1.268519e+02 0.000000e+00 1.268519e+02 -5.976441e+04 0.000000e+00 0.000000e+00 0.000000e+00 0.000000e+00
-7.653055e+04 1.034742e+01 0.000000e+00 1.034742e+01 -5.944558e+04 0.000000e+00 0.000000e+00 0.000000e+00 0.000000e+00
-7.746263e+04 -7.569106e+01 0.000000e+00 -7.569106e+01 -5.936902e+04 0.000000e+00 0.000000e+00 0.000000e+00 0.000000e+00
-7.811104e+04 -1.384619e+02 0.000000e+00 -1.384619e+02 -5.946745e+04 0.000000e+00 0.000000e+00 0.000000e+00 0.000000e+00
-7.864321e+04 -1.602460e+02 0.000000e+00 -1.602460e+02 -5.966382e+04 0.000000e+00 0.000000e+00 0.000000e+00 0.000000e+00
-7.916611e+04 -1.336541e+02 0.000000e+00 -1.336541e+02 -5.985991e+04 0.000000e+00 0.000000e+00 0.000000e+00 0.000000e+00
-7.964320e+04 -1.057019e+02 0.000000e+00 -1.057019e+02 -6.002579e+04 0.000000e+00 0.000000e+00 0.000000e+00 0.000000e+00
</DataArray>
<DataArray Name="vol_eps" type="Float64" NumberOfComponents="1" format="ascii">
-9.163670e-03
-8.157630e-03
-7.821386e-03
-7.724279e-03
-7.944021e-03
-8.489130e-03
-9.445447e-03
-1.069007e-02
-1.218035e-02
-1.383892e-02
-1.449702e-02
-8.472933e-03
-7.566094e-03
-7.295107e-03
-7.244395e-03
-7.462355e-03
-7.979159e-03
-8.823515e-03
-9.855252e-03
-1.128220e-02
-1.300019e-02
-1.566500e-02
-6.880037e-03
-6.214106e-03
-6.071190e-03
-6.139461e-03
-6.293086e-03
-6.514364e-03
-6.847128e-03
-7.322909e-03
-8.143655e-03
-9.669178e-03
-1.283173e-02
-5.264100e-03
-4.897515e-03
-4.782679e-03
-4.655312e-03
-4.351573e-03
-3.812376e-03
-3.105425e-03
-2.175989e-03
-7.316159e-04
1.641886e-03
3.995101e-03
-4.088029e-03
-4.062528e-03
-4.208556e-03
-4.325545e-03
-4.383655e-03
-4.336582e-03
-4.155561e-03
-3.857092e-03
-3.303609e-03
-2.407156e-03
-2.656221e-04
-3.104289e-03
-3.323160e-03
-3.543246e-03
-3.661530e-03
-3.692048e-03
-3.609027e-03
-3.399227e-03
-3.056068e-03
-2.514616e-03
-1.453975e-03
-2.253444e-05
-2.299253e-03
-2.691900e-03
-2.953342e-03
-3.075216e-03
-3.086683e-03
-2.990245e-03
-2.778489e-03
-2.439159e-03
-1.904854e-03
-1.075506e-03
-2.005165e-04
-1.693985e-03
-2.166357e-03
-2.452380e-03
-2.574706e-03
-2.584100e-03
-2.495293e-03
-2.299840e-03
-1.984471e-03
-1.543560e-03
-9.583430e-04
-4.045035e-04
-1.243731e-03
-1.732796e-03
-2.027726e-03
-2.155237e-03
-2.175516e-03
-2.098335e-03
-1.926861e-03
-1.672089e-03
-1.346038e-03
-9.486603e-04
-5.902165e-04
-9.254590e-04
-1.387431e-03
-1.675796e-03
-1.810784e-03
-1.840610e-03
-1.780739e-03
-1.650086e-03
-1.466102e-03
-1.241202e-03
-9.795685e-04
-7.512433e-04
-7.167942e-04
-1.121015e-03
-1.389562e-03
-1.527204e-03
-1.567816e-03
-1.533639e-03
-1.449468e-03
-1.330307e-03
-1.187432e-03
-1.025629e-03
-8.882373e-04
-5.806899e-04
-9.211269e-04
-1.166863e-03
-1.301253e-03
-1.352288e-03
-1.346029e-03
-1.303621e-03
-1.239960e-03
-1.161760e-03
-1.073581e-03
-1.000336e-03
-4.990163e-04
-7.801358e-04
-9.973317e-04
-1.125192e-03
-1.187687e-03
-1.207805e-03
-1.201760e-03
-1.181199e-03
-1.151479e-03
-1.116977e-03
-1.089732e-03
-4.536309e-04
-6.864447e-04
-8.743177e-04
-9.963990e-04
-1.068007e-03
-1.108977e-03
-1.131827e-03
-1.143837e-03
-1.149918e-03
-1.153725e-03
-1.158825e-03
-4.227515e-04
-6.223430e-04
-7.922121e-04
-9.115804e-04
-9.911702e-04
-1.045755e-03
-1.087215e-03
-1.121609e-03
-1.151830e-03
-1.181162e-03
-1.207942e-03
-3.920069e-04
-5.782596e-04
-7.419629e-04
-8.630127e-04
-9.490727e-04
-1.012159e-03
-1.063309e-03
-1.109770e-03
-1.153731e-03
-1.197297e-03
-1.236460e-03
-3.541053e-04
-5.498098e-04
-7.235804e-04
-8.478793e-04
-9.361668e-04
-1.002415e-03
-1.056165e-03
-1.105757e-03
-1.154048e-03
-1.202247e-03
-1.245408e-03
</DataArray>
</PointData>
</Piece>
</UnstructuredGrid>
</VTKFile>
