<?xml version="1.0"?>
<VTKFile type="UnstructuredGrid" version="0.1">
<UnstructuredGrid>
<FieldData>
<DataArray Name="TIME" type="Float64" format="ascii" NumberOfTuples="1">
0.000000e+00
</DataArray>
</FieldData>
<FieldData>
<DataArray Name="CYCLE" type="Int32" format="ascii" NumberOfTuples="1">
0
</DataArray>
</FieldData>
<Piece NumberOfPoints="187" NumberOfCells="160">
<Points>
<DataArray NumberOfComponents="3" type="Float64" format="ascii">
0.000000e+00 0.000000e+00 0.000000e+00
0.000000e+00 1.992066e-01 0.000000e+00
0.000000e+00 3.982109e-01 0.000000e+00
0.000000e+00 5.969965e-01 0.000000e+00
0.000000e+00 7.955471e-01 0.000000e+00
0.000000e+00 9.938763e-01 0.000000e+00
0.000000e+00 1.192023e+00 0.000000e+00
0.000000e+00 1.390092e+00 0.000000e+00
0.000000e+00 1.588270e+00 0.000000e+00
0.000000e+00 1.786756e+00 0.000000e+00
0.000000e+00 1.985375e+00 0.000000e+00
2.250000e-01 0.000000e+00 0.000000e+00
2.252479e-01 1.992433e-01 0.000000e+00
2.254800e-01 3.983000e-01 0.000000e+00
2.257037e-01 5.971648e-01 0.000000e+00
2.259053e-01 7.958308e-01 0.000000e+00
2.260543e-01 9.942902e-01 0.000000e+00
2.261065e-01 1.192553e+00 0.000000e+00
2.259817e-01 1.390668e+00 0.000000e+00
2.256164e-01 1.588735e+00 0.000000e+00
2.251310e-01 1.786876e+00 0.000000e+00
2.250000e-01 1.985375e+00 0.000000e+00
4.500000e-01 0.000000e+00 0.000000e+00
4.504570e-01 1.993162e-01 0.000000e+00
4.508695e-01 3.985045e-01 0.000000e+00
4.512487e-01 5.975692e-01 0.000000e+00
4.515944e-01 7.965088e-01 0.000000e+00
4.518760e-01 9.953144e-01 0.000000e+00
4.520368e-01 1.193961e+00 0.000000e+00
4.519871e-01 1.392387e+00 0.000000e+00
4.516391e-01 1.590474e+00 0.000000e+00
4.510650e-01 1.788110e+00 0.000000e+00
4.500000e-01 1.985375e+00 0.000000e+00
6.750000e-01 0.000000e+00 0.000000e+00
6.756020e-01 1.994134e-01 0.000000e+00
6.761139e-01 3.987653e-01 0.000000e+00
6.765613e-01 5.980725e-01 0.000000e+00
6.769484e-01 7.973578e-01 0.000000e+00
6.772606e-01 9.966483e-01 0.000000e+00
6.774616e-01 1.195972e+00 0.000000e+00
6.774976e-01 1.395378e+00 0.000000e+00
6.773111e-01 1.594932e+00 0.000000e+00
6.768996e-01 1.794756e+00 0.000000e+00
6.750832e-01 1.995166e+00 0.000000e+00
9.000000e-01 0.000000e+00 0.000000e+00
9.006760e-01 1.995275e-01 0.000000e+00
9.012127e-01 3.990433e-01 0.000000e+00
9.016532e-01 5.985668e-01 0.000000e+00
9.020072e-01 7.981175e-01 0.000000e+00
9.022613e-01 9.977158e-01 0.000000e+00
9.023862e-01 1.197387e+00 0.000000e+00
9.023293e-01 1.397154e+00 0.000000e+00
9.020441e-01 1.597041e+00 0.000000e+00
9.013456e-01 1.797083e+00 0.000000e+00
9.000793e-01 1.997026e+00 0.000000e+00
1.125000e+00 0.000000e+00 0.000000e+00
1.125685e+00 1.996419e-01 0.000000e+00
1.126203e+00 3.993022e-01 0.000000e+00
1.126606e+00 5.989898e-01 0.000000e+00
1.126908e+00 7.987168e-01 0.000000e+00
1.127099e+00 9.984977e-01 0.000000e+00
1.127156e+00 1.198344e+00 0.000000e+00
1.127042e+00 1.398264e+00 0.000000e+00
1.126707e+00 1.598261e+00 0.000000e+00
1.126099e+00 1.798293e+00 0.000000e+00
1.125272e+00 1.998297e+00 0.000000e+00
1.350000e+00 0.000000e+00 0.000000e+00
1.350644e+00 1.997382e-01 0.000000e+00
1.351123e+00 3.995084e-01 0.000000e+00
1.351483e+00 5.993127e-01 0.000000e+00
1.351735e+00 7.991580e-01 0.000000e+00
1.351876e+00 9.990511e-01 0.000000e+00
1.351889e+00 1.198996e+00 0.000000e+00
1.351751e+00 1.398991e+00 0.000000e+00
1.351442e+00 1.599025e+00 0.000000e+00
1.350970e+00 1.799065e+00 0.000000e+00
1.350421e+00 1.999056e+00 0.000000e+00
1.575000e+00 0.000000e+00 0.000000e+00
1.575575e+00 1.998138e-01 0.000000e+00
1.576004e+00 3.996658e-01 0.000000e+00
1.576319e+00 5.995533e-01 0.000000e+00
1.576529e+00 7.994773e-01 0.000000e+00
1.576634e+00 9.994393e-01 0.000000e+00
1.576624e+00 1.199439e+00 0.000000e+00
1.576491e+00 1.399472e+00 0.000000e+00
1.576235e+00 1.599519e+00 0.000000e+00
1.575888e+00 1.799555e+00 0.000000e+00
1.575525e+00 1.999553e+00 0.000000e+00
1.800000e+00 0.000000e+00 0.000000e+00
1.800495e+00 1.998698e-01 0.000000e+00
1.800869e+00 3.997795e-01 0.000000e+00
1.801140e+00 5.997223e-01 0.000000e+00
1.801316e+00 7.996972e-01 0.000000e+00
1.801396e+00 9.997024e-01 0.000000e+00
1.801378e+00 1.199734e+00 0.000000e+00
1.801263e+00 1.399783e+00 0.000000e+00
1.801065e+00 1.599835e+00 0.000000e+00
1.800819e+00 1.799870e+00 0.000000e+00
1.800582e+00 1.999874e+00 0.000000e+00
2.025000e+00 0.000000e+00 0.000000e+00
2.025413e+00 1.999099e-01 0.000000e+00
2.025731e+00 3.998577e-01 0.000000e+00
2.025962e+00 5.998375e-01 0.000000e+00
2.026109e+00 7.998448e-01 0.000000e+00
2.026171e+00 9.998754e-01 0.000000e+00
2.026154e+00 1.199924e+00 0.000000e+00
2.026064e+00 1.399980e+00 0.000000e+00
2.025918e+00 1.600032e+00 0.000000e+00
2.025748e+00 1.800067e+00 0.000000e+00
2.025597e+00 2.000080e+00 0.000000e+00
2.250000e+00 0.000000e+00 0.000000e+00
2.250336e+00 1.999372e-01 0.000000e+00
2.250599e+00 3.999109e-01 0.000000e+00
2.250792e+00 5.999134e-01 0.000000e+00
2.250913e+00 7.999399e-01 0.000000e+00
2.250964e+00 9.999848e-01 0.000000e+00
2.250952e+00 1.200041e+00 0.000000e+00
2.250885e+00 1.400100e+00 0.000000e+00
2.250782e+00 1.600151e+00 0.000000e+00
2.250668e+00 1.800188e+00 0.000000e+00
2.250578e+00 2.000208e+00 0.000000e+00
2.475000e+00 0.000000e+00 0.000000e+00
2.475266e+00 1.999561e-01 0.000000e+00
2.475478e+00 3.999454e-01 0.000000e+00
2.475634e+00 5.999617e-01 0.000000e+00
2.475732e+00 7.999993e-01 0.000000e+00
2.475775e+00 1.000051e+00 0.000000e+00
2.475768e+00 1.200110e+00 0.000000e+00
2.475721e+00 1.400169e+00 0.000000e+00
2.475651e+00 1.600220e+00 0.000000e+00
2.475578e+00 1.800259e+00 0.000000e+00
2.475528e+00 2.000285e+00 0.000000e+00
2.700000e+00 0.000000e+00 0.000000e+00
2.700204e+00 1.999687e-01 0.000000e+00
2.700369e+00 3.999682e-01 0.000000e+00
2.700489e+00 5.999926e-01 0.000000e+00
2.700566e+00 8.000358e-01 0.000000e+00
2.700600e+00 1.000091e+00 0.000000e+00
2.700598e+00 1.200151e+00 0.000000e+00
2.700567e+00 1.400209e+00 0.000000e+00
2.700522e+00 1.600259e+00 0.000000e+00
2.700477e+00 1.800300e+00 0.000000e+00
2.700452e+00 2.000331e+00 0.000000e+00
2.925000e+00 0.000000e+00 0.000000e+00
2.925149e+00 1.999781e-01 0.000000e+00
2.925269e+00 3.999842e-01 0.000000e+00
2.925357e+00 6.000135e-01 0.000000e+00
2.925413e+00 8.000596e-01 0.000000e+00
2.925439e+00 1.000116e+00 0.000000e+00
2.925439e+00 1.200175e+00 0.000000e+00
2.925421e+00 1.400232e+00 0.000000e+00
2.925393e+00 1.600283e+00 0.000000e+00
2.925367e+00 1.800325e+00 0.000000e+00
2.925356e+00 2.000360e+00 0.000000e+00
3.150000e+00 0.000000e+00 0.000000e+00
3.150099e+00 1.999857e-01 0.000000e+00
3.150177e+00 3.999971e-01 0.000000e+00
3.150234e+00 6.000302e-01 0.000000e+00
3.150270e+00 8.000783e-01 0.000000e+00
3.150287e+00 1.000135e+00 0.000000e+00
3.150289e+00 1.200194e+00 0.000000e+00
3.150278e+00 1.400250e+00 0.000000e+00
3.150263e+00 1.600300e+00 0.000000e+00
3.150249e+00 1.800344e+00 0.000000e+00
3.150245e+00 2.000383e+00 0.000000e+00
3.375000e+00 0.000000e+00 0.000000e+00
3.375051e+00 1.999928e-01 0.000000e+00
3.375088e+00 4.000109e-01 0.000000e+00
3.375116e+00 6.000481e-01 0.000000e+00
3.375134e+00 8.000979e-01 0.000000e+00
3.375142e+00 1.000155e+00 0.000000e+00
3.375143e+00 1.200213e+00 0.000000e+00
3.375139e+00 1.400269e+00 0.000000e+00
3.375132e+00 1.600319e+00 0.000000e+00
3.375126e+00 1.800364e+00 0.000000e+00
3.375125e+00 2.000405e+00 0.000000e+00
3.600000e+00 0.000000e+00 0.000000e+00
3.600000e+00 2.000089e-01 0.000000e+00
3.600000e+00 4.000329e-01 0.000000e+00
3.600000e+00 6.000720e-01 0.000000e+00
3.600000e+00 8.001224e-01 0.000000e+00
3.600000e+00 1.000180e+00 0.000000e+00
3.600000e+00 1.200238e+00 0.000000e+00
3.600000e+00 1.400293e+00 0.000000e+00
3.600000e+00 1.600344e+00 0.000000e+00
3.600000e+00 1.800389e+00 0.000000e+00
3.600000e+00 2.000430e+00 0.000000e+00
</DataArray>
</Points>
<Cells>
<DataArray Name="connectivity" type="Int32" format="ascii">
0 11 12 1
1 12 13 2
2 13 14 3
3 14 15 4
4 15 16 5
5 16 17 6
6 17 18 7
7 18 19 8
8 19 20 9
9 20 21 10
11 22 23 12
12 23 24 13
13 24 25 14
14 25 26 15
15 26 27 16
16 27 28 17
17 28 29 18
18 29 30 19
19 30 31 20
20 31 32 21
22 33 34 23
23 34 35 24
24 35 36 25
25 36 37 26
26 37 38 27
27 38 39 28
28 39 40 29
29 40 41 30
30 41 42 31
31 42 43 32
33 44 45 34
34 45 46 35
35 46 47 36
36 47 48 37
37 48 49 38
38 49 50 39
39 50 51 40
40 51 52 41
41 52 53 42
42 53 54 43
44 55 56 45
45 56 57 46
46 57 58 47
47 58 59 48
48 59 60 49
49 60 61 50
50 61 62 51
51 62 63 52
52 63 64 53
53 64 65 54
55 66 67 56
56 67 68 57
57 68 69 58
58 69 70 59
59 70 71 60
60 71 72 61
61 72 73 62
62 73 74 63
63 74 75 64
64 75 76 65
66 77 78 67
67 78 79 68
68 79 80 69
69 80 81 70
70 81 82 71
71 82 83 72
72 83 84 73
73 84 85 74
74 85 86 75
75 86 87 76
77 88 89 78
78 89 90 79
79 90 91 80
80 91 92 81
81 92 93 82
82 93 94 83
83 94 95 84
84 95 96 85
85 96 97 86
86 97 98 87
88 99 100 89
89 100 101 90
90 101 102 91
91 102 103 92
92 103 104 93
93 104 105 94
94 105 106 95
95 106 107 96
96 107 108 97
97 108 109 98
99 110 111 100
100 111 112 101
101 112 113 102
102 113 114 103
103 114 115 104
104 115 116 105
105 116 117 106
106 117 118 107
107 118 119 108
108 119 120 109
110 121 122 111
111 122 123 112
112 123 124 113
113 124 125 114
114 125 126 115
115 126 127 116
116 127 128 117
117 128 129 118
118 129 130 119
119 130 131 120
121 132 133 122
122 133 134 123
123 134 135 124
124 135 136 125
125 136 137 126
126 137 138 127
127 138 139 128
128 139 140 129
129 140 141 130
130 141 142 131
132 143 144 133
133 144 145 134
134 145 146 135
135 146 147 136
136 147 148 137
137 148 149 138
138 149 150 139
139 150 151 140
140 151 152 141
141 152 153 142
143 154 155 144
144 155 156 145
145 156 157 146
146 157 158 147
147 158 159 148
148 159 160 149
149 160 161 150
150 161 162 151
151 162 163 152
152 163 164 153
154 165 166 155
155 166 167 156
156 167 168 157
157 168 169 158
158 169 170 159
159 170 171 160
160 171 172 161
161 172 173 162
162 173 174 163
163 174 175 164
165 176 177 166
166 177 178 167
167 178 179 168
168 179 180 169
169 180 181 170
170 181 182 171
171 182 183 172
172 183 184 173
173 184 185 174
174 185 186 175
</DataArray>
<DataArray Name="offsets" type="Int32" format="ascii">
4
8
12
16
20
24
28
32
36
40
44
48
52
56
60
64
68
72
76
80
84
88
92
96
100
104
108
112
116
120
124
128
132
136
140
144
148
152
156
160
164
168
172
176
180
184
188
192
196
200
204
208
212
216
220
224
228
232
236
240
244
248
252
256
260
264
268
272
276
280
284
288
292
296
300
304
308
312
316
320
324
328
332
336
340
344
348
352
356
360
364
368
372
376
380
384
388
392
396
400
404
408
412
416
420
424
428
432
436
440
444
448
452
456
460
464
468
472
476
480
484
488
492
496
500
504
508
512
516
520
524
528
532
536
540
544
548
552
556
560
564
568
572
576
580
584
588
592
596
600
604
608
612
616
620
624
628
632
636
640
</DataArray>
<DataArray Name="types" type="UInt8" format="ascii">
9
9
9
9
9
9
9
9
9
9
9
9
9
9
9
9
9
9
9
9
9
9
9
9
9
9
9
9
9
9
9
9
9
9
9
9
9
9
9
9
9
9
9
9
9
9
9
9
9
9
9
9
9
9
9
9
9
9
9
9
9
9
9
9
9
9
9
9
9
9
9
9
9
9
9
9
9
9
9
9
9
9
9
9
9
9
9
9
9
9
9
9
9
9
9
9
9
9
9
9
9
9
9
9
9
9
9
9
9
9
9
9
9
9
9
9
9
9
9
9
9
9
9
9
9
9
9
9
9
9
9
9
9
9
9
9
9
9
9
9
9
9
9
9
9
9
9
9
9
9
9
9
9
9
9
9
9
9
9
9
</DataArray>
</Cells>
<PointData>
<DataArray Name="disp" type="Float64" NumberOfComponents="3" format="ascii">
0.000000e+00 0.000000e+00 0.000000e+00
0.000000e+00 -7.934461e-04 0.000000e+00
0.000000e+00 -1.789096e-03 0.000000e+00
0.000000e+00 -3.003502e-03 0.000000e+00
0.000000e+00 -4.452932e-03 0.000000e+00
0.000000e+00 -6.123693e-03 0.000000e+00
0.000000e+00 -7.977312e-03 0.000000e+00
0.000000e+00 -9.907491e-03 0.000000e+00
0.000000e+00 -1.173028e-02 0.000000e+00
0.000000e+00 -1.324411e-02 0.000000e+00
0.000000e+00 -1.462500e-02 0.000000e+00
0.000000e+00 0.000000e+00 0.000000e+00
2.479483e-04 -7.567134e-04 0.000000e+00
4.800027e-04 -1.700043e-03 0.000000e+00
7.037093e-04 -2.835253e-03 0.000000e+00
9.053378e-04 -4.169127e-03 0.000000e+00
1.054255e-03 -5.709747e-03 0.000000e+00
1.106490e-03 -7.446907e-03 0.000000e+00
9.816554e-04 -9.332055e-03 0.000000e+00
6.164285e-04 -1.126506e-02 0.000000e+00
1.309967e-04 -1.312367e-02 0.000000e+00
0.000000e+00 -1.462500e-02 0.000000e+00
0.000000e+00 0.000000e+00 0.000000e+00
4.570486e-04 -6.838141e-04 0.000000e+00
8.695398e-04 -1.495483e-03 0.000000e+00
1.248676e-03 -2.430833e-03 0.000000e+00
1.594347e-03 -3.491135e-03 0.000000e+00
1.876003e-03 -4.685617e-03 0.000000e+00
2.036793e-03 -6.038596e-03 0.000000e+00
1.987136e-03 -7.612726e-03 0.000000e+00
1.639150e-03 -9.526266e-03 0.000000e+00
1.064980e-03 -1.188975e-02 0.000000e+00
0.000000e+00 -1.462500e-02 0.000000e+00
0.000000e+00 0.000000e+00 0.000000e+00
6.019316e-04 -5.866286e-04 0.000000e+00
1.113928e-03 -1.234691e-03 0.000000e+00
1.561276e-03 -1.927492e-03 0.000000e+00
1.948344e-03 -2.642177e-03 0.000000e+00
2.260607e-03 -3.351697e-03 0.000000e+00
2.461654e-03 -4.027731e-03 0.000000e+00
2.497617e-03 -4.622076e-03 0.000000e+00
2.311080e-03 -5.068151e-03 0.000000e+00
1.899609e-03 -5.244007e-03 0.000000e+00
8.321502e-05 -4.833857e-03 0.000000e+00
0.000000e+00 0.000000e+00 0.000000e+00
6.759327e-04 -4.724831e-04 0.000000e+00
1.212693e-03 -9.567468e-04 0.000000e+00
1.653215e-03 -1.433187e-03 0.000000e+00
2.007215e-03 -1.882551e-03 0.000000e+00
2.261314e-03 -2.284157e-03 0.000000e+00
2.386199e-03 -2.612899e-03 0.000000e+00
2.329241e-03 -2.845735e-03 0.000000e+00
2.044107e-03 -2.959398e-03 0.000000e+00
1.345570e-03 -2.916622e-03 0.000000e+00
7.925936e-05 -2.973776e-03 0.000000e+00
0.000000e+00 0.000000e+00 0.000000e+00
6.846872e-04 -3.580695e-04 0.000000e+00
1.202637e-03 -6.977507e-04 0.000000e+00
1.606339e-03 -1.010228e-03 0.000000e+00
1.908174e-03 -1.283176e-03 0.000000e+00
2.099420e-03 -1.502341e-03 0.000000e+00
2.155841e-03 -1.655813e-03 0.000000e+00
2.042332e-03 -1.735653e-03 0.000000e+00
1.706994e-03 -1.738920e-03 0.000000e+00
1.099267e-03 -1.706872e-03 0.000000e+00
2.716719e-04 -1.702846e-03 0.000000e+00
0.000000e+00 0.000000e+00 0.000000e+00
6.434752e-04 -2.618155e-04 0.000000e+00
1.122605e-03 -4.915908e-04 0.000000e+00
1.482642e-03 -6.872817e-04 0.000000e+00
1.735407e-03 -8.420357e-04 0.000000e+00
1.876082e-03 -9.488774e-04 0.000000e+00
1.888530e-03 -1.003905e-03 0.000000e+00
1.751305e-03 -1.008489e-03 0.000000e+00
1.442019e-03 -9.746939e-04 0.000000e+00
9.698512e-04 -9.350152e-04 0.000000e+00
4.211544e-04 -9.443259e-04 0.000000e+00
0.000000e+00 0.000000e+00 0.000000e+00
5.749587e-04 -1.862297e-04 0.000000e+00
1.004073e-03 -3.341579e-04 0.000000e+00
1.318825e-03 -4.466561e-04 0.000000e+00
1.529379e-03 -5.226989e-04 0.000000e+00
1.634166e-03 -5.606849e-04 0.000000e+00
1.624234e-03 -5.606026e-04 0.000000e+00
1.490538e-03 -5.283600e-04 0.000000e+00
1.234592e-03 -4.806583e-04 0.000000e+00
8.884029e-04 -4.451559e-04 0.000000e+00
5.245855e-04 -4.469075e-04 0.000000e+00
0.000000e+00 0.000000e+00 0.000000e+00
4.949049e-04 -1.301967e-04 0.000000e+00
8.686603e-04 -2.204921e-04 0.000000e+00
1.140282e-03 -2.777453e-04 0.000000e+00
1.316536e-03 -3.028100e-04 0.000000e+00
1.396093e-03 -2.975866e-04 0.000000e+00
1.377961e-03 -2.656972e-04 0.000000e+00
1.263140e-03 -2.167299e-04 0.000000e+00
1.065467e-03 -1.652912e-04 0.000000e+00
8.192373e-04 -1.304869e-04 0.000000e+00
5.817459e-04 -1.255278e-04 0.000000e+00
0.000000e+00 0.000000e+00 0.000000e+00
4.132636e-04 -9.014743e-05 0.000000e+00
7.308136e-04 -1.423277e-04 0.000000e+00
9.618834e-04 -1.624647e-04 0.000000e+00
1.108647e-03 -1.551761e-04 0.000000e+00
1.171542e-03 -1.245977e-04 0.000000e+00
1.154056e-03 -7.647213e-05 0.000000e+00
1.063931e-03 -2.012153e-05 0.000000e+00
9.179840e-04 3.203136e-05 0.000000e+00
7.478643e-04 6.738863e-05 0.000000e+00
5.974245e-04 7.986462e-05 0.000000e+00
0.000000e+00 0.000000e+00 0.000000e+00
3.358561e-04 -6.282719e-05 0.000000e+00
5.994771e-04 -8.907096e-05 0.000000e+00
7.915111e-04 -8.656778e-05 0.000000e+00
9.128788e-04 -6.015562e-05 0.000000e+00
9.641945e-04 -1.519359e-05 0.000000e+00
9.516896e-04 4.090494e-05 0.000000e+00
8.851991e-04 9.957061e-05 0.000000e+00
7.818764e-04 1.513879e-04 0.000000e+00
6.681805e-04 1.883391e-04 0.000000e+00
5.775886e-04 2.077081e-04 0.000000e+00
0.000000e+00 0.000000e+00 0.000000e+00
2.661337e-04 -4.388640e-05 0.000000e+00
4.782733e-04 -5.457776e-05 0.000000e+00
6.338105e-04 -3.829740e-05 0.000000e+00
7.317151e-04 -7.069847e-07 0.000000e+00
7.744682e-04 5.139054e-05 0.000000e+00
7.676462e-04 1.104883e-04 0.000000e+00
7.211747e-04 1.692764e-04 0.000000e+00
6.509717e-04 2.204292e-04 0.000000e+00
5.779507e-04 2.592187e-04 0.000000e+00
5.275267e-04 2.848019e-04 0.000000e+00
0.000000e+00 0.000000e+00 0.000000e+00
2.037868e-04 -3.133450e-05 0.000000e+00
3.686537e-04 -3.176585e-05 0.000000e+00
4.893920e-04 -7.342063e-06 0.000000e+00
5.656063e-04 3.584977e-05 0.000000e+00
6.001713e-04 9.095600e-05 0.000000e+00
5.979158e-04 1.507689e-04 0.000000e+00
5.674222e-04 2.086947e-04 0.000000e+00
5.218251e-04 2.593254e-04 0.000000e+00
4.771189e-04 2.999548e-04 0.000000e+00
4.519600e-04 3.310809e-04 0.000000e+00
0.000000e+00 0.000000e+00 0.000000e+00
1.488280e-04 -2.185283e-05 0.000000e+00
2.689725e-04 -1.575103e-05 0.000000e+00
3.569546e-04 1.350217e-05 0.000000e+00
4.127494e-04 5.954965e-05 0.000000e+00
4.389005e-04 1.156650e-04 0.000000e+00
4.393237e-04 1.751164e-04 0.000000e+00
4.206483e-04 2.320891e-04 0.000000e+00
3.926116e-04 2.825173e-04 0.000000e+00
3.667694e-04 3.248276e-04 0.000000e+00
3.562220e-04 3.604730e-04 0.000000e+00
0.000000e+00 0.000000e+00 0.000000e+00
9.877703e-05 -1.425968e-05 0.000000e+00
1.770505e-04 -2.930441e-06 0.000000e+00
2.337478e-04 3.021281e-05 0.000000e+00
2.699757e-04 7.828591e-05 0.000000e+00
2.873219e-04 1.347854e-04 0.000000e+00
2.886239e-04 1.937206e-04 0.000000e+00
2.782907e-04 2.499677e-04 0.000000e+00
2.625398e-04 3.003449e-04 0.000000e+00
2.488548e-04 3.440115e-04 0.000000e+00
2.454898e-04 3.829144e-04 0.000000e+00
0.000000e+00 0.000000e+00 0.000000e+00
5.109879e-05 -7.229890e-06 0.000000e+00
8.847641e-05 1.092720e-05 0.000000e+00
1.158118e-04 4.815042e-05 0.000000e+00
1.334977e-04 9.794001e-05 0.000000e+00
1.421183e-04 1.548047e-04 0.000000e+00
1.429940e-04 2.132432e-04 0.000000e+00
1.385363e-04 2.690195e-04 0.000000e+00
1.315557e-04 3.194445e-04 0.000000e+00
1.257737e-04 3.640344e-04 0.000000e+00
1.250889e-04 4.048838e-04 0.000000e+00
0.000000e+00 0.000000e+00 0.000000e+00
0.000000e+00 8.880928e-06 0.000000e+00
0.000000e+00 3.292546e-05 0.000000e+00
0.000000e+00 7.196036e-05 0.000000e+00
0.000000e+00 1.224403e-04 0.000000e+00
0.000000e+00 1.794954e-04 0.000000e+00
0.000000e+00 2.377353e-04 0.000000e+00
0.000000e+00 2.933446e-04 0.000000e+00
0.000000e+00 3.437924e-04 0.000000e+00
0.000000e+00 3.886655e-04 0.000000e+00
0.000000e+00 4.301681e-04 0.000000e+00
</DataArray>
<DataArray Name="shear" type="Float64" NumberOfComponents="1" format="ascii">
4.305915e-03
5.527178e-03
7.596046e-03
9.689787e-03
1.170509e-02
1.339413e-02
1.431889e-02
1.380632e-02
1.146523e-02
8.497939e-03
7.322715e-03
4.296965e-03
5.403104e-03
7.264754e-03
9.134031e-03
1.098980e-02
1.269894e-02
1.395199e-02
1.427878e-02
1.338826e-02
1.120658e-02
9.261094e-03
4.361187e-03
5.151294e-03
6.470641e-03
7.837016e-03
9.303630e-03
1.092653e-02
1.273522e-02
1.479400e-02
1.730171e-02
1.897544e-02
1.909353e-02
4.381879e-03
4.796226e-03
5.452766e-03
6.188157e-03
7.024601e-03
8.029078e-03
9.294080e-03
1.101046e-02
1.354143e-02
1.501345e-02
1.597034e-02
4.257767e-03
4.357739e-03
4.477968e-03
4.722849e-03
5.020512e-03
5.316024e-03
5.530346e-03
5.570205e-03
5.127708e-03
3.169677e-03
9.539102e-04
3.964882e-03
3.853774e-03
3.643517e-03
3.606826e-03
3.617866e-03
3.598938e-03
3.470372e-03
3.138206e-03
2.421987e-03
1.064609e-03
3.379436e-04
3.550235e-03
3.339826e-03
2.977329e-03
2.800201e-03
2.682707e-03
2.549802e-03
2.343119e-03
1.996275e-03
1.420471e-03
5.151976e-04
2.495890e-04
3.080493e-03
2.851817e-03
2.464596e-03
2.240987e-03
2.082746e-03
1.930827e-03
1.740900e-03
1.464593e-03
1.037064e-03
3.886906e-04
1.485116e-04
2.603078e-03
2.395780e-03
2.051240e-03
1.840662e-03
1.693108e-03
1.568017e-03
1.425682e-03
1.218116e-03
8.941821e-04
4.090412e-04
6.418470e-05
2.148058e-03
1.979180e-03
1.710493e-03
1.548159e-03
1.440638e-03
1.355769e-03
1.255690e-03
1.096810e-03
8.406586e-04
4.628763e-04
1.854163e-04
1.733362e-03
1.606428e-03
1.419412e-03
1.318330e-03
1.264078e-03
1.219798e-03
1.150681e-03
1.025214e-03
8.183058e-04
5.259166e-04
3.265178e-04
1.366263e-03
1.276333e-03
1.166342e-03
1.132359e-03
1.131893e-03
1.122039e-03
1.075561e-03
9.743379e-04
8.084932e-04
5.906374e-04
4.550055e-04
1.044034e-03
9.875278e-04
9.512547e-04
9.826350e-04
1.028470e-03
1.046784e-03
1.017729e-03
9.357751e-04
8.060056e-04
6.518923e-04
5.656347e-04
7.616500e-04
7.355845e-04
7.729123e-04
8.680910e-04
9.514033e-04
9.896620e-04
9.735777e-04
9.081722e-04
8.090315e-04
7.049938e-04
6.541682e-04
5.067164e-04
5.178097e-04
6.419526e-04
7.932891e-04
9.012939e-04
9.508686e-04
9.435780e-04
8.913529e-04
8.156062e-04
7.463034e-04
7.183036e-04
2.734483e-04
3.621246e-04
5.756330e-04
7.564970e-04
8.746575e-04
9.291146e-04
9.272043e-04
8.846918e-04
8.240155e-04
7.740810e-04
7.576712e-04
1.434779e-04
3.129074e-04
5.573325e-04
7.431629e-04
8.647316e-04
9.217858e-04
9.227441e-04
8.847714e-04
8.295348e-04
7.850148e-04
7.714282e-04
</DataArray>
<DataArray Name="stress" type="Float64" NumberOfComponents="9" format="ascii">
-7.352091e+04 1.213586e+03 0.000000e+00 1.213586e+03 -1.014564e+05 0.000000e+00 0.000000e+00 0.000000e+00 0.000000e+00
-6.952798e+04 1.344053e+03 0.000000e+00 1.344053e+03 -1.020767e+05 0.000000e+00 0.000000e+00 0.000000e+00 0.000000e+00
-6.661605e+04 1.612107e+03 0.000000e+00 1.612107e+03 -1.055182e+05 0.000000e+00 0.000000e+00 0.000000e+00 0.000000e+00
-6.583666e+04 2.104284e+03 0.000000e+00 2.104284e+03 -1.094008e+05 0.000000e+00 0.000000e+00 0.000000e+00 0.000000e+00
-6.657566e+04 2.626780e+03 0.000000e+00 2.626780e+03 -1.140379e+05 0.000000e+00 0.000000e+00 0.000000e+00 0.000000e+00
-6.846855e+04 3.187506e+03 0.000000e+00 3.187506e+03 -1.194076e+05 0.000000e+00 0.000000e+00 0.000000e+00 0.000000e+00
-7.141302e+04 3.538147e+03 0.000000e+00 3.538147e+03 -1.251725e+05 0.000000e+00 0.000000e+00 0.000000e+00 0.000000e+00
-7.541602e+04 3.379792e+03 0.000000e+00 3.379792e+03 -1.307327e+05 0.000000e+00 0.000000e+00 0.000000e+00 0.000000e+00
-8.091220e+04 2.197629e+03 0.000000e+00 2.197629e+03 -1.349682e+05 0.000000e+00 0.000000e+00 0.000000e+00 0.000000e+00
-8.845930e+04 1.698982e+02 0.000000e+00 1.698982e+02 -1.370700e+05 0.000000e+00 0.000000e+00 0.000000e+00 0.000000e+00
-9.129843e+04 -4.109971e+02 0.000000e+00 -4.109971e+02 -1.362753e+05 0.000000e+00 0.000000e+00 0.000000e+00 0.000000e+00
-7.321666e+04 3.635862e+03 0.000000e+00 3.635862e+03 -9.983616e+04 0.000000e+00 0.000000e+00 0.000000e+00 0.000000e+00
-6.951461e+04 3.683813e+03 0.000000e+00 3.683813e+03 -1.003890e+05 0.000000e+00 0.000000e+00 0.000000e+00 0.000000e+00
-6.688291e+04 3.980347e+03 0.000000e+00 3.980347e+03 -1.035470e+05 0.000000e+00 0.000000e+00 0.000000e+00 0.000000e+00
-6.620816e+04 4.692832e+03 0.000000e+00 4.692832e+03 -1.070956e+05 0.000000e+00 0.000000e+00 0.000000e+00 0.000000e+00
-6.703083e+04 5.602572e+03 0.000000e+00 5.602572e+03 -1.113303e+05 0.000000e+00 0.000000e+00 0.000000e+00 0.000000e+00
-6.894784e+04 6.533100e+03 0.000000e+00 6.533100e+03 -1.163870e+05 0.000000e+00 0.000000e+00 0.000000e+00 0.000000e+00
-7.172496e+04 7.083400e+03 0.000000e+00 7.083400e+03 -1.222534e+05 0.000000e+00 0.000000e+00 0.000000e+00 0.000000e+00
-7.531525e+04 6.708634e+03 0.000000e+00 6.708634e+03 -1.287884e+05 0.000000e+00 0.000000e+00 0.000000e+00 0.000000e+00
-8.013438e+04 4.802702e+03 0.000000e+00 4.802702e+03 -1.356191e+05 0.000000e+00 0.000000e+00 0.000000e+00 0.000000e+00
-8.633141e+04 1.632986e+03 0.000000e+00 1.632986e+03 -1.403606e+05 0.000000e+00 0.000000e+00 0.000000e+00 0.000000e+00
-9.362873e+04 -1.243620e+03 0.000000e+00 -1.243620e+03 -1.456281e+05 0.000000e+00 0.000000e+00 0.000000e+00 0.000000e+00
-7.256727e+04 6.643646e+03 0.000000e+00 6.643646e+03 -9.608020e+04 0.000000e+00 0.000000e+00 0.000000e+00 0.000000e+00
-6.955729e+04 6.711314e+03 0.000000e+00 6.711314e+03 -9.640659e+04 0.000000e+00 0.000000e+00 0.000000e+00 0.000000e+00
-6.759473e+04 7.224620e+03 0.000000e+00 7.224620e+03 -9.864162e+04 0.000000e+00 0.000000e+00 0.000000e+00 0.000000e+00
-6.736166e+04 8.454384e+03 0.000000e+00 8.454384e+03 -1.011582e+05 0.000000e+00 0.000000e+00 0.000000e+00 0.000000e+00
-6.842645e+04 1.016028e+04 0.000000e+00 1.016028e+04 -1.041064e+05 0.000000e+00 0.000000e+00 0.000000e+00 0.000000e+00
-7.043932e+04 1.204580e+04 0.000000e+00 1.204580e+04 -1.076010e+05 0.000000e+00 0.000000e+00 0.000000e+00 0.000000e+00
-7.326078e+04 1.399213e+04 0.000000e+00 1.399213e+04 -1.122090e+05 0.000000e+00 0.000000e+00 0.000000e+00 0.000000e+00
-7.713484e+04 1.551252e+04 0.000000e+00 1.551252e+04 -1.187037e+05 0.000000e+00 0.000000e+00 0.000000e+00 0.000000e+00
-8.285970e+04 1.602081e+04 0.000000e+00 1.602081e+04 -1.278800e+05 0.000000e+00 0.000000e+00 0.000000e+00 0.000000e+00
-9.276066e+04 1.464536e+04 0.000000e+00 1.464536e+04 -1.407468e+05 0.000000e+00 0.000000e+00 0.000000e+00 0.000000e+00
-1.094972e+05 1.312608e+04 0.000000e+00 1.312608e+04 -1.560702e+05 0.000000e+00 0.000000e+00 0.000000e+00 0.000000e+00
-7.153615e+04 8.572039e+03 0.000000e+00 8.572039e+03 -9.122323e+04 0.000000e+00 0.000000e+00 0.000000e+00 0.000000e+00
-6.956430e+04 8.629417e+03 0.000000e+00 8.629417e+03 -9.129542e+04 0.000000e+00 0.000000e+00 0.000000e+00 0.000000e+00
-6.852955e+04 9.120451e+03 0.000000e+00 9.120451e+03 -9.240698e+04 0.000000e+00 0.000000e+00 0.000000e+00 0.000000e+00
-6.884438e+04 1.039027e+04 0.000000e+00 1.039027e+04 -9.328599e+04 0.000000e+00 0.000000e+00 0.000000e+00 0.000000e+00
-6.999942e+04 1.206937e+04 0.000000e+00 1.206937e+04 -9.383529e+04 0.000000e+00 0.000000e+00 0.000000e+00 0.000000e+00
-7.164605e+04 1.389169e+04 0.000000e+00 1.389169e+04 -9.374334e+04 0.000000e+00 0.000000e+00 0.000000e+00 0.000000e+00
-7.334972e+04 1.579127e+04 0.000000e+00 1.579127e+04 -9.267441e+04 0.000000e+00 0.000000e+00 0.000000e+00 0.000000e+00
-7.453106e+04 1.730026e+04 0.000000e+00 1.730026e+04 -8.999686e+04 0.000000e+00 0.000000e+00 0.000000e+00 0.000000e+00
-7.534846e+04 1.780994e+04 0.000000e+00 1.780994e+04 -8.507138e+04 0.000000e+00 0.000000e+00 0.000000e+00 0.000000e+00
-7.494482e+04 1.515537e+04 0.000000e+00 1.515537e+04 -7.599794e+04 0.000000e+00 0.000000e+00 0.000000e+00 0.000000e+00
-7.373960e+04 1.306366e+04 0.000000e+00 1.306366e+04 -7.143248e+04 0.000000e+00 0.000000e+00 0.000000e+00 0.000000e+00
-7.014126e+04 9.487229e+03 0.000000e+00 9.487229e+03 -8.564464e+04 0.000000e+00 0.000000e+00 0.000000e+00 0.000000e+00
-6.939946e+04 9.460110e+03 0.000000e+00 9.460110e+03 -8.555526e+04 0.000000e+00 0.000000e+00 0.000000e+00 0.000000e+00
-6.938568e+04 9.665684e+03 0.000000e+00 9.665684e+03 -8.572898e+04 0.000000e+00 0.000000e+00 0.000000e+00 0.000000e+00
-7.025830e+04 1.048581e+04 0.000000e+00 1.048581e+04 -8.545601e+04 0.000000e+00 0.000000e+00 0.000000e+00 0.000000e+00
-7.168402e+04 1.150739e+04 0.000000e+00 1.150739e+04 -8.456225e+04 0.000000e+00 0.000000e+00 0.000000e+00 0.000000e+00
-7.343402e+04 1.246094e+04 0.000000e+00 1.246094e+04 -8.284322e+04 0.000000e+00 0.000000e+00 0.000000e+00 0.000000e+00
-7.513936e+04 1.300999e+04 0.000000e+00 1.300999e+04 -8.010503e+04 0.000000e+00 0.000000e+00 0.000000e+00 0.000000e+00
-7.629409e+04 1.291825e+04 0.000000e+00 1.291825e+04 -7.615496e+04 0.000000e+00 0.000000e+00 0.000000e+00 0.000000e+00
-7.665922e+04 1.145691e+04 0.000000e+00 1.145691e+04 -7.056230e+04 0.000000e+00 0.000000e+00 0.000000e+00 0.000000e+00
-7.398884e+04 6.559402e+03 0.000000e+00 6.559402e+03 -6.527595e+04 0.000000e+00 0.000000e+00 0.000000e+00 0.000000e+00
-6.258689e+04 2.044433e+03 0.000000e+00 2.044433e+03 -5.960339e+04 0.000000e+00 0.000000e+00 0.000000e+00 0.000000e+00
-6.852874e+04 9.556859e+03 0.000000e+00 9.556859e+03 -8.007195e+04 0.000000e+00 0.000000e+00 0.000000e+00 0.000000e+00
-6.894840e+04 9.435557e+03 0.000000e+00 9.435557e+03 -7.992377e+04 0.000000e+00 0.000000e+00 0.000000e+00 0.000000e+00
-6.980870e+04 9.271595e+03 0.000000e+00 9.271595e+03 -7.940591e+04 0.000000e+00 0.000000e+00 0.000000e+00 0.000000e+00
-7.105115e+04 9.514009e+03 0.000000e+00 9.514009e+03 -7.846772e+04 0.000000e+00 0.000000e+00 0.000000e+00 0.000000e+00
-7.251632e+04 9.795338e+03 0.000000e+00 9.795338e+03 -7.697018e+04 0.000000e+00 0.000000e+00 0.000000e+00 0.000000e+00
-7.398411e+04 9.834712e+03 0.000000e+00 9.834712e+03 -7.484430e+04 0.000000e+00 0.000000e+00 0.000000e+00 0.000000e+00
-7.512152e+04 9.377525e+03 0.000000e+00 9.377525e+03 -7.204812e+04 0.000000e+00 0.000000e+00 0.000000e+00 0.000000e+00
-7.536780e+04 8.147383e+03 0.000000e+00 8.147383e+03 -6.856352e+04 0.000000e+00 0.000000e+00 0.000000e+00 0.000000e+00
-7.381157e+04 5.653045e+03 0.000000e+00 5.653045e+03 -6.482342e+04 0.000000e+00 0.000000e+00 0.000000e+00 0.000000e+00
-6.710427e+04 2.010948e+03 0.000000e+00 2.010948e+03 -6.191714e+04 0.000000e+00 0.000000e+00 0.000000e+00 0.000000e+00
-5.771047e+04 2.080635e+02 0.000000e+00 2.080635e+02 -5.942158e+04 0.000000e+00 0.000000e+00 0.000000e+00 0.000000e+00
-6.699810e+04 9.061944e+03 0.000000e+00 9.061944e+03 -7.520762e+04 0.000000e+00 0.000000e+00 0.000000e+00 0.000000e+00
-6.826802e+04 8.837025e+03 0.000000e+00 8.837025e+03 -7.502890e+04 0.000000e+00 0.000000e+00 0.000000e+00 0.000000e+00
-6.974876e+04 8.312054e+03 0.000000e+00 8.312054e+03 -7.414297e+04 0.000000e+00 0.000000e+00 0.000000e+00 0.000000e+00
-7.115563e+04 8.053451e+03 0.000000e+00 8.053451e+03 -7.294902e+04 0.000000e+00 0.000000e+00 0.000000e+00 0.000000e+00
-7.247197e+04 7.751729e+03 0.000000e+00 7.751729e+03 -7.135983e+04 0.000000e+00 0.000000e+00 0.000000e+00 0.000000e+00
-7.353721e+04 7.189534e+03 0.000000e+00 7.189534e+03 -6.936968e+04 0.000000e+00 0.000000e+00 0.000000e+00 0.000000e+00
-7.403024e+04 6.168167e+03 0.000000e+00 6.168167e+03 -6.703193e+04 0.000000e+00 0.000000e+00 0.000000e+00 0.000000e+00
-7.336699e+04 4.524600e+03 0.000000e+00 4.524600e+03 -6.450689e+04 0.000000e+00 0.000000e+00 0.000000e+00 0.000000e+00
-7.052834e+04 2.279336e+03 0.000000e+00 2.279336e+03 -6.219271e+04 0.000000e+00 0.000000e+00 0.000000e+00 0.000000e+00
-6.417207e+04 2.558145e+02 0.000000e+00 2.558145e+02 -6.066850e+04 0.000000e+00 0.000000e+00 0.000000e+00 0.000000e+00
-5.771730e+04 -4.842271e+02 0.000000e+00 -4.842271e+02 -5.936447e+04 0.000000e+00 0.000000e+00 0.000000e+00 0.000000e+00
-6.560398e+04 8.178698e+03 0.000000e+00 8.178698e+03 -7.122172e+04 0.000000e+00 0.000000e+00 0.000000e+00 0.000000e+00
-6.736709e+04 7.886528e+03 0.000000e+00 7.886528e+03 -7.101762e+04 0.000000e+00 0.000000e+00 0.000000e+00 0.000000e+00
-6.923877e+04 7.141657e+03 0.000000e+00 7.141657e+03 -6.999321e+04 0.000000e+00 0.000000e+00 0.000000e+00 0.000000e+00
-7.072298e+04 6.547819e+03 0.000000e+00 6.547819e+03 -6.880953e+04 0.000000e+00 0.000000e+00 0.000000e+00 0.000000e+00
-7.186537e+04 5.875002e+03 0.000000e+00 5.875002e+03 -6.739654e+04 0.000000e+00 0.000000e+00 0.000000e+00 0.000000e+00
-7.256831e+04 4.975222e+03 0.000000e+00 4.975222e+03 -6.576167e+04 0.000000e+00 0.000000e+00 0.000000e+00 0.000000e+00
-7.252388e+04 3.737996e+03 0.000000e+00 3.737996e+03 -6.399162e+04 0.000000e+00 0.000000e+00 0.000000e+00 0.000000e+00
-7.128955e+04 2.155272e+03 0.000000e+00 2.155272e+03 -6.229796e+04 0.000000e+00 0.000000e+00 0.000000e+00 0.000000e+00
-6.826952e+04 5.069636e+02 0.000000e+00 5.069636e+02 -6.096829e+04 0.000000e+00 0.000000e+00 0.000000e+00 0.000000e+00
-6.311932e+04 -4.702450e+02 0.000000e+00 -4.702450e+02 -6.023829e+04 0.000000e+00 0.000000e+00 0.000000e+00 0.000000e+00
-5.862288e+04 -5.987316e+02 0.000000e+00 -5.987316e+02 -5.955075e+04 0.000000e+00 0.000000e+00 0.000000e+00 0.000000e+00
-6.442854e+04 7.114090e+03 0.000000e+00 7.114090e+03 -6.811635e+04 0.000000e+00 0.000000e+00 0.000000e+00 0.000000e+00
-6.640350e+04 6.808309e+03 0.000000e+00 6.808309e+03 -6.792007e+04 0.000000e+00 0.000000e+00 0.000000e+00 0.000000e+00
-6.847660e+04 5.981214e+03 0.000000e+00 5.981214e+03 -6.690895e+04 0.000000e+00 0.000000e+00 0.000000e+00 0.000000e+00
-6.995045e+04 5.182838e+03 0.000000e+00 5.182838e+03 -6.582516e+04 0.000000e+00 0.000000e+00 0.000000e+00 0.000000e+00
-7.093425e+04 4.311483e+03 0.000000e+00 4.311483e+03 -6.462961e+04 0.000000e+00 0.000000e+00 0.000000e+00 0.000000e+00
-7.134993e+04 3.273676e+03 0.000000e+00 3.273676e+03 -6.336696e+04 0.000000e+00 0.000000e+00 0.000000e+00 0.000000e+00
-7.099129e+04 2.045833e+03 0.000000e+00 2.045833e+03 -6.213924e+04 0.000000e+00 0.000000e+00 0.000000e+00 0.000000e+00
-6.959182e+04 7.338759e+02 0.000000e+00 7.338759e+02 -6.108750e+04 0.000000e+00 0.000000e+00 0.000000e+00 0.000000e+00
-6.691374e+04 -3.641591e+02 0.000000e+00 -3.641591e+02 -6.038048e+04 0.000000e+00 0.000000e+00 0.000000e+00 0.000000e+00
-6.300839e+04 -7.285480e+02 0.000000e+00 -7.285480e+02 -6.005584e+04 0.000000e+00 0.000000e+00 0.000000e+00 0.000000e+00
-5.984160e+04 -6.129147e+02 0.000000e+00 -6.129147e+02 -5.967334e+04 0.000000e+00 0.000000e+00 0.000000e+00 0.000000e+00
-6.349127e+04 6.027196e+03 0.000000e+00 6.027196e+03 -6.583094e+04 0.000000e+00 0.000000e+00 0.000000e+00 0.000000e+00
-6.548493e+04 5.725571e+03 0.000000e+00 5.725571e+03 -6.562766e+04 0.000000e+00 0.000000e+00 0.000000e+00 0.000000e+00
-6.756640e+04 4.884524e+03 0.000000e+00 4.884524e+03 -6.466261e+04 0.000000e+00 0.000000e+00 0.000000e+00 0.000000e+00
-6.899464e+04 4.004068e+03 0.000000e+00 4.004068e+03 -6.371095e+04 0.000000e+00 0.000000e+00 0.000000e+00 0.000000e+00
-6.986837e+04 3.075200e+03 0.000000e+00 3.075200e+03 -6.276162e+04 0.000000e+00 0.000000e+00 0.000000e+00 0.000000e+00
-7.011445e+04 2.047380e+03 0.000000e+00 2.047380e+03 -6.183801e+04 0.000000e+00 0.000000e+00 0.000000e+00 0.000000e+00
-6.964636e+04 9.594747e+02 0.000000e+00 9.594747e+02 -6.102475e+04 0.000000e+00 0.000000e+00 0.000000e+00 0.000000e+00
-6.834306e+04 -5.254539e+01 0.000000e+00 -5.254539e+01 -6.041678e+04 0.000000e+00 0.000000e+00 0.000000e+00 0.000000e+00
-6.617961e+04 -7.446680e+02 0.000000e+00 -7.446680e+02 -6.007595e+04 0.000000e+00 0.000000e+00 0.000000e+00 0.000000e+00
-6.330458e+04 -7.864827e+02 0.000000e+00 -7.864827e+02 -5.996715e+04 0.000000e+00 0.000000e+00 0.000000e+00 0.000000e+00
-6.108494e+04 -5.723265e+02 0.000000e+00 -5.723265e+02 -5.975900e+04 0.000000e+00 0.000000e+00 0.000000e+00 0.000000e+00
-6.275604e+04 4.957206e+03 0.000000e+00 4.957206e+03 -6.416550e+04 0.000000e+00 0.000000e+00 0.000000e+00 0.000000e+00
-6.462579e+04 4.669066e+03 0.000000e+00 4.669066e+03 -6.396121e+04 0.000000e+00 0.000000e+00 0.000000e+00 0.000000e+00
-6.662848e+04 3.888550e+03 0.000000e+00 3.888550e+03 -6.307768e+04 0.000000e+00 0.000000e+00 0.000000e+00 0.000000e+00
-6.801212e+04 3.035985e+03 0.000000e+00 3.035985e+03 -6.227074e+04 0.000000e+00 0.000000e+00 0.000000e+00 0.000000e+00
-6.880390e+04 2.140097e+03 0.000000e+00 2.140097e+03 -6.152656e+04 0.000000e+00 0.000000e+00 0.000000e+00 0.000000e+00
-6.898947e+04 1.207055e+03 0.000000e+00 1.207055e+03 -6.087019e+04 0.000000e+00 0.000000e+00 0.000000e+00 0.000000e+00
-6.855230e+04 3.066474e+02 0.000000e+00 3.066474e+02 -6.036144e+04 0.000000e+00 0.000000e+00 0.000000e+00 0.000000e+00
-6.747160e+04 -4.427842e+02 0.000000e+00 -4.427842e+02 -6.004254e+04 0.000000e+00 0.000000e+00 0.000000e+00 0.000000e+00
-6.581785e+04 -8.631776e+02 0.000000e+00 -8.631776e+02 -5.991414e+04 0.000000e+00 0.000000e+00 0.000000e+00 0.000000e+00
-6.375866e+04 -7.445428e+02 0.000000e+00 -7.445428e+02 -5.992402e+04 0.000000e+00 0.000000e+00 0.000000e+00 0.000000e+00
-6.225091e+04 -5.011775e+02 0.000000e+00 -5.011775e+02 -5.981577e+04 0.000000e+00 0.000000e+00 0.000000e+00 0.000000e+00
-6.216443e+04 3.923916e+03 0.000000e+00 3.923916e+03 -6.300424e+04 0.000000e+00 0.000000e+00 0.000000e+00 0.000000e+00
-6.387677e+04 3.675694e+03 0.000000e+00 3.675694e+03 -6.279732e+04 0.000000e+00 0.000000e+00 0.000000e+00 0.000000e+00
-6.576391e+04 3.001707e+03 0.000000e+00 3.001707e+03 -6.198719e+04 0.000000e+00 0.000000e+00 0.000000e+00 0.000000e+00
-6.708475e+04 2.240369e+03 0.000000e+00 2.240369e+03 -6.129329e+04 0.000000e+00 0.000000e+00 0.000000e+00 0.000000e+00
-6.783589e+04 1.445855e+03 0.000000e+00 1.445855e+03 -6.071830e+04 0.000000e+00 0.000000e+00 0.000000e+00 0.000000e+00
-6.803655e+04 6.605328e+02 0.000000e+00 6.605328e+02 -6.026252e+04 0.000000e+00 0.000000e+00 0.000000e+00 0.000000e+00
-6.770404e+04 -5.269012e+01 0.000000e+00 -5.269012e+01 -5.996743e+04 0.000000e+00 0.000000e+00 0.000000e+00 0.000000e+00
-6.688062e+04 -5.932209e+02 0.000000e+00 -5.932209e+02 -5.983078e+04 0.000000e+00 0.000000e+00 0.000000e+00 0.000000e+00
-6.567437e+04 -8.387452e+02 0.000000e+00 -8.387452e+02 -5.983038e+04 0.000000e+00 0.000000e+00 0.000000e+00 0.000000e+00
-6.424907e+04 -6.527369e+02 0.000000e+00 -6.527369e+02 -5.990638e+04 0.000000e+00 0.000000e+00 0.000000e+00 0.000000e+00
-6.326498e+04 -4.151419e+02 0.000000e+00 -4.151419e+02 -5.986204e+04 0.000000e+00 0.000000e+00 0.000000e+00 0.000000e+00
-6.173073e+04 2.955378e+03 0.000000e+00 2.955378e+03 -6.217347e+04 0.000000e+00 0.000000e+00 0.000000e+00 0.000000e+00
-6.326364e+04 2.747371e+03 0.000000e+00 2.747371e+03 -6.196454e+04 0.000000e+00 0.000000e+00 0.000000e+00 0.000000e+00
-6.501732e+04 2.200535e+03 0.000000e+00 2.200535e+03 -6.123213e+04 0.000000e+00 0.000000e+00 0.000000e+00 0.000000e+00
-6.628824e+04 1.584539e+03 0.000000e+00 1.584539e+03 -6.063820e+04 0.000000e+00 0.000000e+00 0.000000e+00 0.000000e+00
-6.702681e+04 9.401320e+02 0.000000e+00 9.401320e+02 -6.018971e+04 0.000000e+00 0.000000e+00 0.000000e+00 0.000000e+00
-6.727371e+04 3.203115e+02 0.000000e+00 3.203115e+02 -5.988274e+04 0.000000e+00 0.000000e+00 0.000000e+00 0.000000e+00
-6.707034e+04 -2.172630e+02 0.000000e+00 -2.172630e+02 -5.973048e+04 0.000000e+00 0.000000e+00 0.000000e+00 0.000000e+00
-6.648797e+04 -5.958655e+02 0.000000e+00 -5.958655e+02 -5.970846e+04 0.000000e+00 0.000000e+00 0.000000e+00 0.000000e+00
-6.564731e+04 -7.320439e+02 0.000000e+00 -7.320439e+02 -5.978739e+04 0.000000e+00 0.000000e+00 0.000000e+00 0.000000e+00
-6.470677e+04 -5.367878e+02 0.000000e+00 -5.367878e+02 -5.989814e+04 0.000000e+00 0.000000e+00 0.000000e+00 0.000000e+00
-6.409880e+04 -3.297072e+02 0.000000e+00 -3.297072e+02 -5.990095e+04 0.000000e+00 0.000000e+00 0.000000e+00 0.000000e+00
-6.139040e+04 2.038686e+03 0.000000e+00 2.038686e+03 -6.154246e+04 0.000000e+00 0.000000e+00 0.000000e+00 0.000000e+00
-6.278947e+04 1.896505e+03 0.000000e+00 1.896505e+03 -6.134529e+04 0.000000e+00 0.000000e+00 0.000000e+00 0.000000e+00
-6.444601e+04 1.500762e+03 0.000000e+00 1.500762e+03 -6.069848e+04 0.000000e+00 0.000000e+00 0.000000e+00 0.000000e+00
-6.566473e+04 1.047872e+03 0.000000e+00 1.047872e+03 -6.019388e+04 0.000000e+00 0.000000e+00 0.000000e+00 0.000000e+00
-6.640341e+04 5.741605e+02 0.000000e+00 5.741605e+02 -5.984215e+04 0.000000e+00 0.000000e+00 0.000000e+00 0.000000e+00
-6.670168e+04 1.236417e+02 0.000000e+00 1.236417e+02 -5.964189e+04 0.000000e+00 0.000000e+00 0.000000e+00 0.000000e+00
-6.661788e+04 -2.559949e+02 0.000000e+00 -2.559949e+02 -5.958325e+04 0.000000e+00 0.000000e+00 0.000000e+00 0.000000e+00
-6.623480e+04 -5.086401e+02 0.000000e+00 -5.086401e+02 -5.963707e+04 0.000000e+00 0.000000e+00 0.000000e+00 0.000000e+00
-6.567537e+04 -5.777428e+02 0.000000e+00 -5.777428e+02 -5.976367e+04 0.000000e+00 0.000000e+00 0.000000e+00 0.000000e+00
-6.508915e+04 -4.087093e+02 0.000000e+00 -4.087093e+02 -5.989479e+04 0.000000e+00 0.000000e+00 0.000000e+00 0.000000e+00
-6.474830e+04 -2.464230e+02 0.000000e+00 -2.464230e+02 -5.993061e+04 0.000000e+00 0.000000e+00 0.000000e+00 0.000000e+00
-6.113875e+04 1.221559e+03 0.000000e+00 1.221559e+03 -6.106307e+04 0.000000e+00 0.000000e+00 0.000000e+00 0.000000e+00
-6.246667e+04 1.132310e+03 0.000000e+00 1.132310e+03 -6.088276e+04 0.000000e+00 0.000000e+00 0.000000e+00 0.000000e+00
-6.406167e+04 8.870548e+02 0.000000e+00 8.870548e+02 -6.030373e+04 0.000000e+00 0.000000e+00 0.000000e+00 0.000000e+00
-6.523450e+04 6.086523e+02 0.000000e+00 6.086523e+02 -5.988208e+04 0.000000e+00 0.000000e+00 0.000000e+00 0.000000e+00
-6.597196e+04 3.125889e+02 0.000000e+00 3.125889e+02 -5.961034e+04 0.000000e+00 0.000000e+00 0.000000e+00 0.000000e+00
-6.630959e+04 2.681046e+01 0.000000e+00 2.681046e+01 -5.948724e+04 0.000000e+00 0.000000e+00 0.000000e+00 0.000000e+00
-6.631734e+04 -2.128190e+02 0.000000e+00 -2.128190e+02 -5.949634e+04 0.000000e+00 0.000000e+00 0.000000e+00 0.000000e+00
-6.608178e+04 -3.662156e+02 0.000000e+00 -3.662156e+02 -5.959789e+04 0.000000e+00 0.000000e+00 0.000000e+00 0.000000e+00
-6.571960e+04 -3.965505e+02 0.000000e+00 -3.965505e+02 -5.975154e+04 0.000000e+00 0.000000e+00 0.000000e+00 0.000000e+00
-6.537242e+04 -2.746999e+02 0.000000e+00 -2.746999e+02 -5.989215e+04 0.000000e+00 0.000000e+00 0.000000e+00 0.000000e+00
-6.521175e+04 -1.643668e+02 0.000000e+00 -1.643668e+02 -5.994672e+04 0.000000e+00 0.000000e+00 0.000000e+00 0.000000e+00
-6.095821e+04 4.513621e+02 0.000000e+00 4.513621e+02 -6.058615e+04 0.000000e+00 0.000000e+00 0.000000e+00 0.000000e+00
-6.230640e+04 4.557805e+02 0.000000e+00 4.557805e+02 -6.046148e+04 0.000000e+00 0.000000e+00 0.000000e+00 0.000000e+00
-6.386453e+04 3.770139e+02 0.000000e+00 3.770139e+02 -5.998862e+04 0.000000e+00 0.000000e+00 0.000000e+00 0.000000e+00
-6.499408e+04 2.662477e+02 0.000000e+00 2.662477e+02 -5.966709e+04 0.000000e+00 0.000000e+00 0.000000e+00 0.000000e+00
-6.572417e+04 1.320030e+02 0.000000e+00 1.320030e+02 -5.946965e+04 0.000000e+00 0.000000e+00 0.000000e+00 0.000000e+00
-6.608502e+04 -3.932436e+00 0.000000e+00 -3.932436e+00 -5.940019e+04 0.000000e+00 0.000000e+00 0.000000e+00 0.000000e+00
-6.614667e+04 -1.181498e+02 0.000000e+00 -1.181498e+02 -5.944685e+04 0.000000e+00 0.000000e+00 0.000000e+00 0.000000e+00
-6.600052e+04 -1.911831e+02 0.000000e+00 -1.911831e+02 -5.957777e+04 0.000000e+00 0.000000e+00 0.000000e+00 0.000000e+00
-6.575531e+04 -2.016530e+02 0.000000e+00 -2.016530e+02 -5.974536e+04 0.000000e+00 0.000000e+00 0.000000e+00 0.000000e+00
-6.554512e+04 -1.379885e+02 0.000000e+00 -1.379885e+02 -5.989159e+04 0.000000e+00 0.000000e+00 0.000000e+00 0.000000e+00
-6.548445e+04 -8.184679e+01 0.000000e+00 -8.184679e+01 -5.995686e+04 0.000000e+00 0.000000e+00 0.000000e+00 0.000000e+00
-6.079390e+04 -8.746957e+01 0.000000e+00 -8.746957e+01 -6.007311e+04 0.000000e+00 0.000000e+00 0.000000e+00 0.000000e+00
-6.222248e+04 1.919772e+01 0.000000e+00 1.919772e+01 -6.010979e+04 0.000000e+00 0.000000e+00 0.000000e+00 0.000000e+00
-6.380526e+04 7.132502e+01 0.000000e+00 7.132502e+01 -5.983417e+04 0.000000e+00 0.000000e+00 0.000000e+00 0.000000e+00
-6.491910e+04 6.041059e+01 0.000000e+00 6.041059e+01 -5.958434e+04 0.000000e+00 0.000000e+00 0.000000e+00 0.000000e+00
-6.564456e+04 2.328117e+01 0.000000e+00 2.328117e+01 -5.942162e+04 0.000000e+00 0.000000e+00 0.000000e+00 0.000000e+00
-6.601261e+04 -1.963612e+01 0.000000e+00 -1.963612e+01 -5.937238e+04 0.000000e+00 0.000000e+00 0.000000e+00 0.000000e+00
-6.609115e+04 -5.667227e+01 0.000000e+00 -5.667227e+01 -5.942945e+04 0.000000e+00 0.000000e+00 0.000000e+00 0.000000e+00
-6.597509e+04 -8.275659e+01 0.000000e+00 -8.275659e+01 -5.957107e+04 0.000000e+00 0.000000e+00 0.000000e+00 0.000000e+00
-6.576860e+04 -8.506879e+01 0.000000e+00 -8.506879e+01 -5.974433e+04 0.000000e+00 0.000000e+00 0.000000e+00 0.000000e+00
-6.560270e+04 -6.105415e+01 0.000000e+00 -6.105415e+01 -5.989262e+04 0.000000e+00 0.000000e+00 0.000000e+00 0.000000e+00
-6.557209e+04 -3.991079e+01 0.000000e+00 -3.991079e+01 -5.996055e+04 0.000000e+00 0.000000e+00 0.000000e+00 0.000000e+00
</DataArray>
<DataArray Name="vol_eps" type="Float64" NumberOfComponents="1" format="ascii">
-3.545760e-03
-3.317976e-03
-3.304293e-03
-3.410394e-03
-3.645452e-03
-4.035835e-03
-4.588977e-03
-5.300333e-03
-6.107562e-03
-6.806667e-03
-6.934444e-03
-3.421493e-03
-3.211857e-03
-3.207732e-03
-3.316143e-03
-3.541723e-03
-3.908009e-03
-4.430084e-03
-5.119458e-03
-5.972104e-03
-6.779519e-03
-7.676659e-03
-3.142224e-03
-2.963601e-03
-2.960188e-03
-3.066229e-03
-3.261235e-03
-3.539948e-03
-3.929837e-03
-4.486702e-03
-5.255715e-03
-6.491306e-03
-8.512097e-03
-2.761227e-03
-2.633968e-03
-2.631915e-03
-2.694318e-03
-2.775943e-03
-2.834670e-03
-2.793747e-03
-2.545706e-03
-1.998448e-03
-1.047640e-03
-4.581355e-04
-2.303970e-03
-2.248403e-03
-2.258280e-03
-2.295000e-03
-2.325800e-03
-2.322216e-03
-2.246141e-03
-2.053262e-03
-1.710827e-03
-1.217289e-03
-1.148732e-04
-1.831497e-03
-1.850554e-03
-1.876637e-03
-1.898022e-03
-1.895856e-03
-1.851037e-03
-1.742023e-03
-1.530921e-03
-1.187445e-03
-5.711951e-04
2.044226e-04
-1.408756e-03
-1.487082e-03
-1.532825e-03
-1.548668e-03
-1.530609e-03
-1.468619e-03
-1.347316e-03
-1.139884e-03
-8.085829e-04
-3.072024e-04
1.968096e-04
-1.058160e-03
-1.168822e-03
-1.232206e-03
-1.252411e-03
-1.233742e-03
-1.171325e-03
-1.052286e-03
-8.634665e-04
-5.869825e-04
-2.146306e-04
1.200850e-04
-7.844412e-04
-9.073914e-04
-9.823288e-04
-1.007895e-03
-9.925275e-04
-9.370957e-04
-8.343157e-04
-6.771478e-04
-4.632683e-04
-1.969359e-04
3.062576e-05
-5.793524e-04
-7.018814e-04
-7.793098e-04
-8.101992e-04
-8.031877e-04
-7.589799e-04
-6.760774e-04
-5.540697e-04
-3.969527e-04
-2.101059e-04
-5.565498e-05
-4.302060e-04
-5.422080e-04
-6.178502e-04
-6.543251e-04
-6.553503e-04
-6.238305e-04
-5.628355e-04
-4.747629e-04
-3.635266e-04
-2.357437e-04
-1.329569e-04
-3.226386e-04
-4.225826e-04
-4.935758e-04
-5.320000e-04
-5.413792e-04
-5.239722e-04
-4.835624e-04
-4.238139e-04
-3.488945e-04
-2.652621e-04
-2.002706e-04
-2.461523e-04
-3.336263e-04
-3.991684e-04
-4.395317e-04
-4.558850e-04
-4.511569e-04
-4.284034e-04
-3.912385e-04
-3.442030e-04
-2.931887e-04
-2.555001e-04
-1.886379e-04
-2.672915e-04
-3.300954e-04
-3.718632e-04
-3.939658e-04
-3.991968e-04
-3.903248e-04
-3.704780e-04
-3.441445e-04
-3.165682e-04
-2.978983e-04
-1.441670e-04
-2.185631e-04
-2.810782e-04
-3.246983e-04
-3.518586e-04
-3.645076e-04
-3.655755e-04
-3.578818e-04
-3.456965e-04
-3.337728e-04
-3.276492e-04
-1.017518e-04
-1.812298e-04
-2.484283e-04
-2.958503e-04
-3.270180e-04
-3.444664e-04
-3.515132e-04
-3.510025e-04
-3.471058e-04
-3.441999e-04
-3.450099e-04
-5.814548e-05
-1.529845e-04
-2.345898e-04
-2.860139e-04
-3.186980e-04
-3.378751e-04
-3.468714e-04
-3.487900e-04
-3.477146e-04
-3.477757e-04
-3.507008e-04
</DataArray>
</PointData>
</Piece>
</UnstructuredGrid>
</VTKFile>
