<?xml version="1.0"?>
<VTKFile type="UnstructuredGrid" version="0.1">
<UnstructuredGrid>
<FieldData>
<DataArray Name="TIME" type="Float64" format="ascii" NumberOfTuples="1">
0.000000e+00
</DataArray>
</FieldData>
<FieldData>
<DataArray Name="CYCLE" type="Int32" format="ascii" NumberOfTuples="1">
0
</DataArray>
</FieldData>
<Piece NumberOfPoints="187" NumberOfCells="160">
<Points>
<DataArray NumberOfComponents="3" type="Float64" format="ascii">
0.000000e+00 0.000000e+00 0.000000e+00
0.000000e+00 1.988415e-01 0.000000e+00
0.000000e+00 3.972859e-01 0.000000e+00
0.000000e+00 5.953336e-01 0.000000e+00
0.000000e+00 7.930855e-01 0.000000e+00
0.000000e+00 9.906147e-01 0.000000e+00
0.000000e+00 1.187995e+00 0.000000e+00
0.000000e+00 1.385313e+00 0.000000e+00
0.000000e+00 1.582734e+00 0.000000e+00
0.000000e+00 1.780547e+00 0.000000e+00
0.000000e+00 1.978625e+00 0.000000e+00
2.250000e-01 0.000000e+00 0.000000e+00
2.254413e-01 1.989043e-01 0.000000e+00
2.258818e-01 3.974666e-01 0.000000e+00
2.262530e-01 5.956823e-01 0.000000e+00
2.264911e-01 7.935836e-01 0.000000e+00
2.265970e-01 9.912382e-01 0.000000e+00
2.265760e-01 1.188699e+00 0.000000e+00
2.264113e-01 1.386026e+00 0.000000e+00
2.259840e-01 1.583318e+00 0.000000e+00
2.252716e-01 1.780708e+00 0.000000e+00
2.250000e-01 1.978625e+00 0.000000e+00
4.500000e-01 0.000000e+00 0.000000e+00
4.508018e-01 1.990375e-01 0.000000e+00
4.515480e-01 3.978646e-01 0.000000e+00
4.521944e-01 5.965009e-01 0.000000e+00
4.526806e-01 7.949342e-01 0.000000e+00
4.529828e-01 9.931198e-01 0.000000e+00
4.530925e-01 1.191012e+00 0.000000e+00
4.529987e-01 1.388569e+00 0.000000e+00
4.525103e-01 1.585753e+00 0.000000e+00
4.517403e-01 1.782410e+00 0.000000e+00
4.500000e-01 1.978625e+00 0.000000e+00
6.750000e-01 0.000000e+00 0.000000e+00
6.760333e-01 1.992052e-01 0.000000e+00
6.769070e-01 3.983362e-01 0.000000e+00
6.776338e-01 5.974432e-01 0.000000e+00
6.782132e-01 7.965558e-01 0.000000e+00
6.786392e-01 9.957100e-01 0.000000e+00
6.789116e-01 1.194945e+00 0.000000e+00
6.790296e-01 1.394304e+00 0.000000e+00
6.788340e-01 1.593824e+00 0.000000e+00
6.782821e-01 1.793658e+00 0.000000e+00
6.758317e-01 1.994170e+00 0.000000e+00
9.000000e-01 0.000000e+00 0.000000e+00
9.011271e-01 1.993826e-01 0.000000e+00
9.019976e-01 3.987711e-01 0.000000e+00
9.026824e-01 5.981929e-01 0.000000e+00
9.032026e-01 7.976667e-01 0.000000e+00
9.035581e-01 9.972084e-01 0.000000e+00
9.037380e-01 1.196843e+00 0.000000e+00
9.037139e-01 1.396607e+00 0.000000e+00
9.033874e-01 1.596537e+00 0.000000e+00
9.024801e-01 1.796661e+00 0.000000e+00
9.008309e-01 1.996617e+00 0.000000e+00
1.125000e+00 0.000000e+00 0.000000e+00
1.126114e+00 1.995461e-01 0.000000e+00
1.126927e+00 3.991352e-01 0.000000e+00
1.127542e+00 5.987749e-01 0.000000e+00
1.127988e+00 7.984732e-01 0.000000e+00
1.128269e+00 9.982417e-01 0.000000e+00
1.128366e+00 1.198094e+00 0.000000e+00
1.128252e+00 1.398045e+00 0.000000e+00
1.127849e+00 1.598096e+00 0.000000e+00
1.127083e+00 1.798177e+00 0.000000e+00
1.126042e+00 1.998203e+00 0.000000e+00
1.350000e+00 0.000000e+00 0.000000e+00
1.351029e+00 1.996793e-01 0.000000e+00
1.351764e+00 3.994166e-01 0.000000e+00
1.352308e+00 5.992049e-01 0.000000e+00
1.352689e+00 7.990481e-01 0.000000e+00
1.352906e+00 9.989524e-01 0.000000e+00
1.352951e+00 1.198921e+00 0.000000e+00
1.352801e+00 1.398955e+00 0.000000e+00
1.352431e+00 1.599035e+00 0.000000e+00
1.351850e+00 1.799115e+00 0.000000e+00
1.351177e+00 1.999126e+00 0.000000e+00
1.575000e+00 0.000000e+00 0.000000e+00
1.575905e+00 1.997789e-01 0.000000e+00
1.576557e+00 3.996180e-01 0.000000e+00
1.577034e+00 5.995067e-01 0.000000e+00
1.577356e+00 7.994439e-01 0.000000e+00
1.577528e+00 9.994293e-01 0.000000e+00
1.577544e+00 1.199463e+00 0.000000e+00
1.577400e+00 1.399537e+00 0.000000e+00
1.577098e+00 1.599628e+00 0.000000e+00
1.576680e+00 1.799698e+00 0.000000e+00
1.576244e+00 1.999717e+00 0.000000e+00
1.800000e+00 0.000000e+00 0.000000e+00
1.800767e+00 1.998488e-01 0.000000e+00
1.801334e+00 3.997568e-01 0.000000e+00
1.801746e+00 5.997114e-01 0.000000e+00
1.802020e+00 7.997075e-01 0.000000e+00
1.802159e+00 9.997431e-01 0.000000e+00
1.802166e+00 1.199813e+00 0.000000e+00
1.802046e+00 1.399903e+00 0.000000e+00
1.801819e+00 1.599995e+00 0.000000e+00
1.801528e+00 1.800063e+00 0.000000e+00
1.801250e+00 2.000091e+00 0.000000e+00
2.025000e+00 0.000000e+00 0.000000e+00
2.025632e+00 1.998953e-01 0.000000e+00
2.026114e+00 3.998481e-01 0.000000e+00
2.026465e+00 5.998439e-01 0.000000e+00
2.026696e+00 7.998768e-01 0.000000e+00
2.026812e+00 9.999409e-01 0.000000e+00
2.026820e+00 1.200028e+00 0.000000e+00
2.026731e+00 1.400124e+00 0.000000e+00
2.026569e+00 1.600214e+00 0.000000e+00
2.026374e+00 1.800282e+00 0.000000e+00
2.026205e+00 2.000320e+00 0.000000e+00
2.250000e+00 0.000000e+00 0.000000e+00
2.250508e+00 1.999269e-01 0.000000e+00
2.250907e+00 3.999064e-01 0.000000e+00
2.251201e+00 5.999264e-01 0.000000e+00
2.251395e+00 7.999794e-01 0.000000e+00
2.251493e+00 1.000058e+00 0.000000e+00
2.251505e+00 1.200151e+00 0.000000e+00
2.251445e+00 1.400248e+00 0.000000e+00
2.251335e+00 1.600337e+00 0.000000e+00
2.251210e+00 1.800406e+00 0.000000e+00
2.251114e+00 2.000453e+00 0.000000e+00
2.475000e+00 0.000000e+00 0.000000e+00
2.475398e+00 1.999462e-01 0.000000e+00
2.475719e+00 3.999405e-01 0.000000e+00
2.475958e+00 5.999741e-01 0.000000e+00
2.476117e+00 8.000373e-01 0.000000e+00
2.476200e+00 1.000121e+00 0.000000e+00
2.476217e+00 1.200216e+00 0.000000e+00
2.476179e+00 1.400312e+00 0.000000e+00
2.476109e+00 1.600398e+00 0.000000e+00
2.476033e+00 1.800470e+00 0.000000e+00
2.475985e+00 2.000525e+00 0.000000e+00
2.700000e+00 0.000000e+00 0.000000e+00
2.700302e+00 1.999584e-01 0.000000e+00
2.700550e+00 3.999619e-01 0.000000e+00
2.700738e+00 6.000015e-01 0.000000e+00
2.700863e+00 8.000684e-01 0.000000e+00
2.700931e+00 1.000153e+00 0.000000e+00
2.700949e+00 1.200247e+00 0.000000e+00
2.700928e+00 1.400340e+00 0.000000e+00
2.700886e+00 1.600425e+00 0.000000e+00
2.700844e+00 1.800498e+00 0.000000e+00
2.700824e+00 2.000561e+00 0.000000e+00
2.925000e+00 0.000000e+00 0.000000e+00
2.925218e+00 1.999663e-01 0.000000e+00
2.925399e+00 3.999746e-01 0.000000e+00
2.925536e+00 6.000174e-01 0.000000e+00
2.925630e+00 8.000853e-01 0.000000e+00
2.925682e+00 1.000169e+00 0.000000e+00
2.925698e+00 1.200261e+00 0.000000e+00
2.925688e+00 1.400351e+00 0.000000e+00
2.925665e+00 1.600435e+00 0.000000e+00
2.925643e+00 1.800510e+00 0.000000e+00
2.925639e+00 2.000578e+00 0.000000e+00
3.150000e+00 0.000000e+00 0.000000e+00
3.150142e+00 1.999731e-01 0.000000e+00
3.150260e+00 3.999848e-01 0.000000e+00
3.150350e+00 6.000296e-01 0.000000e+00
3.150412e+00 8.000980e-01 0.000000e+00
3.150446e+00 1.000181e+00 0.000000e+00
3.150459e+00 1.200270e+00 0.000000e+00
3.150455e+00 1.400358e+00 0.000000e+00
3.150443e+00 1.600441e+00 0.000000e+00
3.150434e+00 1.800517e+00 0.000000e+00
3.150436e+00 2.000589e+00 0.000000e+00
3.375000e+00 0.000000e+00 0.000000e+00
3.375072e+00 1.999796e-01 0.000000e+00
3.375129e+00 3.999965e-01 0.000000e+00
3.375173e+00 6.000441e-01 0.000000e+00
3.375203e+00 8.001131e-01 0.000000e+00
3.375221e+00 1.000195e+00 0.000000e+00
3.375227e+00 1.200282e+00 0.000000e+00
3.375226e+00 1.400369e+00 0.000000e+00
3.375222e+00 1.600451e+00 0.000000e+00
3.375218e+00 1.800528e+00 0.000000e+00
3.375221e+00 2.000602e+00 0.000000e+00
3.600000e+00 0.000000e+00 0.000000e+00
3.600000e+00 1.999949e-01 0.000000e+00
3.600000e+00 4.000174e-01 0.000000e+00
3.600000e+00 6.000663e-01 0.000000e+00
3.600000e+00 8.001350e-01 0.000000e+00
3.600000e+00 1.000216e+00 0.000000e+00
3.600000e+00 1.200303e+00 0.000000e+00
3.600000e+00 1.400389e+00 0.000000e+00
3.600000e+00 1.600471e+00 0.000000e+00
3.600000e+00 1.800548e+00 0.000000e+00
3.600000e+00 2.000623e+00 0.000000e+00
</DataArray>
</Points>
<Cells>
<DataArray Name="connectivity" type="Int32" format="ascii">
0 11 12 1
1 12 13 2
2 13 14 3
3 14 15 4
4 15 16 5
5 16 17 6
6 17 18 7
7 18 19 8
8 19 20 9
9 20 21 10
11 22 23 12
12 23 24 13
13 24 25 14
14 25 26 15
15 26 27 16
16 27 28 17
17 28 29 18
18 29 30 19
19 30 31 20
20 31 32 21
22 33 34 23
23 34 35 24
24 35 36 25
25 36 37 26
26 37 38 27
27 38 39 28
28 39 40 29
29 40 41 30
30 41 42 31
31 42 43 32
33 44 45 34
34 45 46 35
35 46 47 36
36 47 48 37
37 48 49 38
38 49 50 39
39 50 51 40
40 51 52 41
41 52 53 42
42 53 54 43
44 55 56 45
45 56 57 46
46 57 58 47
47 58 59 48
48 59 60 49
49 60 61 50
50 61 62 51
51 62 63 52
52 63 64 53
53 64 65 54
55 66 67 56
56 67 68 57
57 68 69 58
58 69 70 59
59 70 71 60
60 71 72 61
61 72 73 62
62 73 74 63
63 74 75 64
64 75 76 65
66 77 78 67
67 78 79 68
68 79 80 69
69 80 81 70
70 81 82 71
71 82 83 72
72 83 84 73
73 84 85 74
74 85 86 75
75 86 87 76
77 88 89 78
78 89 90 79
79 90 91 80
80 91 92 81
81 92 93 82
82 93 94 83
83 94 95 84
84 95 96 85
85 96 97 86
86 97 98 87
88 99 100 89
89 100 101 90
90 101 102 91
91 102 103 92
92 103 104 93
93 104 105 94
94 105 106 95
95 106 107 96
96 107 108 97
97 108 109 98
99 110 111 100
100 111 112 101
101 112 113 102
102 113 114 103
103 114 115 104
104 115 116 105
105 116 117 106
106 117 118 107
107 118 119 108
108 119 120 109
110 121 122 111
111 122 123 112
112 123 124 113
113 124 125 114
114 125 126 115
115 126 127 116
116 127 128 117
117 128 129 118
118 129 130 119
119 130 131 120
121 132 133 122
122 133 134 123
123 134 135 124
124 135 136 125
125 136 137 126
126 137 138 127
127 138 139 128
128 139 140 129
129 140 141 130
130 141 142 131
132 143 144 133
133 144 145 134
134 145 146 135
135 146 147 136
136 147 148 137
137 148 149 138
138 149 150 139
139 150 151 140
140 151 152 141
141 152 153 142
143 154 155 144
144 155 156 145
145 156 157 146
146 157 158 147
147 158 159 148
148 159 160 149
149 160 161 150
150 161 162 151
151 162 163 152
152 163 164 153
154 165 166 155
155 166 167 156
156 167 168 157
157 168 169 158
158 169 170 159
159 170 171 160
160 171 172 161
161 172 173 162
162 173 174 163
163 174 175 164
165 176 177 166
166 177 178 167
167 178 179 168
168 179 180 169
169 180 181 170
170 181 182 171
171 182 183 172
172 183 184 173
173 184 185 174
174 185 186 175
</DataArray>
<DataArray Name="offsets" type="Int32" format="ascii">
4
8
12
16
20
24
28
32
36
40
44
48
52
56
60
64
68
72
76
80
84
88
92
96
100
104
108
112
116
120
124
128
132
136
140
144
148
152
156
160
164
168
172
176
180
184
188
192
196
200
204
208
212
216
220
224
228
232
236
240
244
248
252
256
260
264
268
272
276
280
284
288
292
296
300
304
308
312
316
320
324
328
332
336
340
344
348
352
356
360
364
368
372
376
380
384
388
392
396
400
404
408
412
416
420
424
428
432
436
440
444
448
452
456
460
464
468
472
476
480
484
488
492
496
500
504
508
512
516
520
524
528
532
536
540
544
548
552
556
560
564
568
572
576
580
584
588
592
596
600
604
608
612
616
620
624
628
632
636
640
</DataArray>
<DataArray Name="types" type="UInt8" format="ascii">
9
9
9
9
9
9
9
9
9
9
9
9
9
9
9
9
9
9
9
9
9
9
9
9
9
9
9
9
9
9
9
9
9
9
9
9
9
9
9
9
9
9
9
9
9
9
9
9
9
9
9
9
9
9
9
9
9
9
9
9
9
9
9
9
9
9
9
9
9
9
9
9
9
9
9
9
9
9
9
9
9
9
9
9
9
9
9
9
9
9
9
9
9
9
9
9
9
9
9
9
9
9
9
9
9
9
9
9
9
9
9
9
9
9
9
9
9
9
9
9
9
9
9
9
9
9
9
9
9
9
9
9
9
9
9
9
9
9
9
9
9
9
9
9
9
9
9
9
9
9
9
9
9
9
9
9
9
9
9
9
</DataArray>
</Cells>
<PointData>
<DataArray Name="disp" type="Float64" NumberOfComponents="3" format="ascii">
0.000000e+00 0.000000e+00 0.000000e+00
0.000000e+00 -1.158534e-03 0.000000e+00
0.000000e+00 -2.714061e-03 0.000000e+00
0.000000e+00 -4.666338e-03 0.000000e+00
0.000000e+00 -6.914489e-03 0.000000e+00
0.000000e+00 -9.385346e-03 0.000000e+00
0.000000e+00 -1.200503e-02 0.000000e+00
0.000000e+00 -1.468709e-02 0.000000e+00
0.000000e+00 -1.726566e-02 0.000000e+00
0.000000e+00 -1.945263e-02 0.000000e+00
0.000000e+00 -2.137500e-02 0.000000e+00
0.000000e+00 0.000000e+00 0.000000e+00
4.413272e-04 -1.095673e-03 0.000000e+00
8.817642e-04 -2.533422e-03 0.000000e+00
1.253034e-03 -4.317666e-03 0.000000e+00
1.491098e-03 -6.416371e-03 0.000000e+00
1.596966e-03 -8.761768e-03 0.000000e+00
1.575984e-03 -1.130054e-02 0.000000e+00
1.411253e-03 -1.397365e-02 0.000000e+00
9.839841e-04 -1.668194e-02 0.000000e+00
2.716049e-04 -1.929175e-02 0.000000e+00
0.000000e+00 -2.137500e-02 0.000000e+00
0.000000e+00 0.000000e+00 0.000000e+00
8.017793e-04 -9.625318e-04 0.000000e+00
1.547994e-03 -2.135458e-03 0.000000e+00
2.194392e-03 -3.499099e-03 0.000000e+00
2.680653e-03 -5.065766e-03 0.000000e+00
2.982758e-03 -6.880207e-03 0.000000e+00
3.092498e-03 -8.988271e-03 0.000000e+00
2.998723e-03 -1.143078e-02 0.000000e+00
2.510282e-03 -1.424730e-02 0.000000e+00
1.740277e-03 -1.759006e-02 0.000000e+00
0.000000e+00 -2.137500e-02 0.000000e+00
0.000000e+00 0.000000e+00 0.000000e+00
1.033250e-03 -7.948467e-04 0.000000e+00
1.907021e-03 -1.663788e-03 0.000000e+00
2.633798e-03 -2.556786e-03 0.000000e+00
3.213197e-03 -3.444168e-03 0.000000e+00
3.639211e-03 -4.289958e-03 0.000000e+00
3.911601e-03 -5.055437e-03 0.000000e+00
4.029662e-03 -5.696070e-03 0.000000e+00
3.833966e-03 -6.176005e-03 0.000000e+00
3.282059e-03 -6.342355e-03 0.000000e+00
8.316751e-04 -5.829528e-03 0.000000e+00
0.000000e+00 0.000000e+00 0.000000e+00
1.127111e-03 -6.174258e-04 0.000000e+00
1.997567e-03 -1.228926e-03 0.000000e+00
2.682336e-03 -1.807049e-03 0.000000e+00
3.202570e-03 -2.333292e-03 0.000000e+00
3.558119e-03 -2.791576e-03 0.000000e+00
3.738009e-03 -3.157235e-03 0.000000e+00
3.713930e-03 -3.392686e-03 0.000000e+00
3.387368e-03 -3.462793e-03 0.000000e+00
2.480067e-03 -3.339008e-03 0.000000e+00
8.309114e-04 -3.383218e-03 0.000000e+00
0.000000e+00 0.000000e+00 0.000000e+00
1.114109e-03 -4.539211e-04 0.000000e+00
1.927181e-03 -8.647975e-04 0.000000e+00
2.541867e-03 -1.225067e-03 0.000000e+00
2.988351e-03 -1.526735e-03 0.000000e+00
3.268692e-03 -1.758277e-03 0.000000e+00
3.366469e-03 -1.905586e-03 0.000000e+00
3.252046e-03 -1.955082e-03 0.000000e+00
2.849462e-03 -1.903608e-03 0.000000e+00
2.083347e-03 -1.822516e-03 0.000000e+00
1.042501e-03 -1.796990e-03 0.000000e+00
0.000000e+00 0.000000e+00 0.000000e+00
1.028828e-03 -3.206958e-04 0.000000e+00
1.764442e-03 -5.833708e-04 0.000000e+00
2.308322e-03 -7.951049e-04 0.000000e+00
2.688575e-03 -9.519145e-04 0.000000e+00
2.906322e-03 -1.047613e-03 0.000000e+00
2.950900e-03 -1.078626e-03 0.000000e+00
2.801374e-03 -1.045018e-03 0.000000e+00
2.431336e-03 -9.646332e-04 0.000000e+00
1.849529e-03 -8.846800e-04 0.000000e+00
1.176667e-03 -8.743600e-04 0.000000e+00
0.000000e+00 0.000000e+00 0.000000e+00
9.052810e-04 -2.211012e-04 0.000000e+00
1.556603e-03 -3.820034e-04 0.000000e+00
2.033501e-03 -4.932975e-04 0.000000e+00
2.356138e-03 -5.560818e-04 0.000000e+00
2.528159e-03 -5.706345e-04 0.000000e+00
2.544330e-03 -5.369522e-04 0.000000e+00
2.399776e-03 -4.630116e-04 0.000000e+00
2.098207e-03 -3.723823e-04 0.000000e+00
1.680171e-03 -3.016026e-04 0.000000e+00
1.244006e-03 -2.825061e-04 0.000000e+00
0.000000e+00 0.000000e+00 0.000000e+00
7.672732e-04 -1.512082e-04 0.000000e+00
1.333751e-03 -2.432346e-04 0.000000e+00
1.746442e-03 -2.885843e-04 0.000000e+00
2.020123e-03 -2.925239e-04 0.000000e+00
2.159119e-03 -2.568855e-04 0.000000e+00
2.165667e-03 -1.872696e-04 0.000000e+00
2.045793e-03 -9.661370e-05 0.000000e+00
1.818572e-03 -5.490253e-06 0.000000e+00
1.527900e-03 6.295821e-05 0.000000e+00
1.250515e-03 9.068907e-05 0.000000e+00
0.000000e+00 0.000000e+00 0.000000e+00
6.316241e-04 -1.046924e-04 0.000000e+00
1.113651e-03 -1.518629e-04 0.000000e+00
1.465392e-03 -1.560797e-04 0.000000e+00
1.696435e-03 -1.232059e-04 0.000000e+00
1.812419e-03 -5.910972e-05 0.000000e+00
1.819804e-03 2.760691e-05 0.000000e+00
1.730858e-03 1.239229e-04 0.000000e+00
1.568657e-03 2.139428e-04 0.000000e+00
1.373850e-03 2.821844e-04 0.000000e+00
1.204883e-03 3.198196e-04 0.000000e+00
0.000000e+00 0.000000e+00 0.000000e+00
5.080484e-04 -7.308900e-05 0.000000e+00
9.067763e-04 -9.362476e-05 0.000000e+00
1.200620e-03 -7.366745e-05 0.000000e+00
1.394500e-03 -2.060640e-05 0.000000e+00
1.492754e-03 5.755818e-05 0.000000e+00
1.505130e-03 1.509706e-04 0.000000e+00
1.444485e-03 2.480398e-04 0.000000e+00
1.334796e-03 3.365001e-04 0.000000e+00
1.209823e-03 4.061157e-04 0.000000e+00
1.114098e-03 4.529474e-04 0.000000e+00
0.000000e+00 0.000000e+00 0.000000e+00
3.979843e-04 -5.382922e-05 0.000000e+00
7.187548e-04 -5.952404e-05 0.000000e+00
9.580845e-04 -2.588400e-05 0.000000e+00
1.116923e-03 3.724870e-05 0.000000e+00
1.200325e-03 1.212300e-04 0.000000e+00
1.216565e-03 2.160860e-04 0.000000e+00
1.179006e-03 3.115978e-04 0.000000e+00
1.108772e-03 3.982862e-04 0.000000e+00
1.033064e-03 4.697039e-04 0.000000e+00
9.849004e-04 5.248883e-04 0.000000e+00
0.000000e+00 0.000000e+00 0.000000e+00
3.018768e-04 -4.164490e-05 0.000000e+00
5.498889e-04 -3.811513e-05 0.000000e+00
7.376939e-04 1.525549e-06 0.000000e+00
8.629198e-04 6.837387e-05 0.000000e+00
9.313000e-04 1.532945e-04 0.000000e+00
9.492056e-04 2.469917e-04 0.000000e+00
9.284930e-04 3.400992e-04 0.000000e+00
8.862629e-04 4.251398e-04 0.000000e+00
8.435459e-04 4.984516e-04 0.000000e+00
8.244845e-04 5.606330e-04 0.000000e+00
0.000000e+00 0.000000e+00 0.000000e+00
2.175283e-04 -3.366869e-05 0.000000e+00
3.985064e-04 -2.544558e-05 0.000000e+00
5.365039e-04 1.736824e-05 0.000000e+00
6.295848e-04 8.532366e-05 0.000000e+00
6.815559e-04 1.694197e-04 0.000000e+00
6.980022e-04 2.608493e-04 0.000000e+00
6.882310e-04 3.513859e-04 0.000000e+00
6.647644e-04 4.350994e-04 0.000000e+00
6.429061e-04 5.100680e-04 0.000000e+00
6.393173e-04 5.777045e-04 0.000000e+00
0.000000e+00 0.000000e+00 0.000000e+00
1.421522e-04 -2.690086e-05 0.000000e+00
2.600013e-04 -1.522568e-05 0.000000e+00
3.500207e-04 2.956822e-05 0.000000e+00
4.116214e-04 9.801640e-05 0.000000e+00
4.464333e-04 1.807244e-04 0.000000e+00
4.587966e-04 2.698950e-04 0.000000e+00
4.550552e-04 3.582520e-04 0.000000e+00
4.433708e-04 4.410286e-04 0.000000e+00
4.334776e-04 5.171407e-04 0.000000e+00
4.361272e-04 5.885522e-04 0.000000e+00
0.000000e+00 0.000000e+00 0.000000e+00
7.207356e-05 -2.041333e-05 0.000000e+00
1.287994e-04 -3.455045e-06 0.000000e+00
1.728962e-04 4.405658e-05 0.000000e+00
2.034760e-04 1.131018e-04 0.000000e+00
2.208670e-04 1.950007e-04 0.000000e+00
2.274344e-04 2.824527e-04 0.000000e+00
2.263803e-04 3.693191e-04 0.000000e+00
2.217466e-04 4.514747e-04 0.000000e+00
2.182038e-04 5.282569e-04 0.000000e+00
2.208956e-04 6.018151e-04 0.000000e+00
0.000000e+00 0.000000e+00 0.000000e+00
0.000000e+00 -5.064709e-06 0.000000e+00
0.000000e+00 1.736787e-05 0.000000e+00
0.000000e+00 6.627552e-05 0.000000e+00
0.000000e+00 1.350396e-04 0.000000e+00
0.000000e+00 2.163595e-04 0.000000e+00
0.000000e+00 3.030824e-04 0.000000e+00
0.000000e+00 3.893488e-04 0.000000e+00
0.000000e+00 4.713410e-04 0.000000e+00
0.000000e+00 5.484282e-04 0.000000e+00
0.000000e+00 6.226922e-04 0.000000e+00
</DataArray>
<DataArray Name="shear" type="Float64" NumberOfComponents="1" format="ascii">
6.411073e-03
8.679043e-03
1.251906e-02
1.587524e-02
1.831117e-02
1.981148e-02
2.035047e-02
1.956829e-02
1.666359e-02
1.234792e-02
1.033111e-02
6.448210e-03
8.440004e-03
1.178770e-02
1.487465e-02
1.744521e-02
1.940016e-02
2.063563e-02
2.077571e-02
1.937191e-02
1.612739e-02
1.309039e-02
6.669465e-03
7.980714e-03
1.012403e-02
1.232671e-02
1.480840e-02
1.769391e-02
2.100883e-02
2.444356e-02
2.809186e-02
3.025904e-02
3.026896e-02
6.786240e-03
7.331141e-03
8.119535e-03
9.066097e-03
1.039552e-02
1.233302e-02
1.507850e-02
1.849147e-02
2.262568e-02
2.500600e-02
2.644483e-02
6.614849e-03
6.586175e-03
6.443565e-03
6.543106e-03
6.788830e-03
7.109040e-03
7.423980e-03
7.499642e-03
6.853282e-03
4.236844e-03
1.262990e-03
6.154327e-03
5.808918e-03
5.216992e-03
4.991202e-03
4.905011e-03
4.850287e-03
4.737743e-03
4.392829e-03
3.485250e-03
1.664461e-03
1.279744e-04
5.492982e-03
5.031519e-03
4.294456e-03
3.945360e-03
3.728949e-03
3.539397e-03
3.304192e-03
2.916189e-03
2.212167e-03
1.048257e-03
1.270067e-04
4.737217e-03
4.288152e-03
3.586681e-03
3.221745e-03
2.982046e-03
2.786338e-03
2.575070e-03
2.261650e-03
1.737483e-03
9.059377e-04
2.518023e-04
3.968459e-03
3.596165e-03
3.021670e-03
2.704269e-03
2.505325e-03
2.359031e-03
2.199508e-03
1.952592e-03
1.545309e-03
9.185941e-04
4.371677e-04
3.245706e-03
2.966077e-03
2.542937e-03
2.308332e-03
2.178522e-03
2.088687e-03
1.975954e-03
1.783537e-03
1.461203e-03
9.802632e-04
6.308283e-04
2.597906e-03
2.398204e-03
2.117514e-03
1.983178e-03
1.928815e-03
1.892993e-03
1.822137e-03
1.674747e-03
1.420186e-03
1.058360e-03
8.138857e-04
2.029000e-03
1.893945e-03
1.742435e-03
1.708157e-03
1.727805e-03
1.740675e-03
1.704786e-03
1.593791e-03
1.398226e-03
1.138033e-03
9.757314e-04
1.536362e-03
1.453473e-03
1.416268e-03
1.477653e-03
1.563650e-03
1.618857e-03
1.611550e-03
1.531286e-03
1.387141e-03
1.210884e-03
1.110836e-03
1.107356e-03
1.069297e-03
1.139373e-03
1.294542e-03
1.436765e-03
1.523562e-03
1.538340e-03
1.484166e-03
1.382866e-03
1.271592e-03
1.216536e-03
7.255615e-04
7.354938e-04
9.258672e-04
1.165604e-03
1.349257e-03
1.455526e-03
1.485101e-03
1.451242e-03
1.382360e-03
1.316660e-03
1.291793e-03
3.750505e-04
4.756858e-04
7.974112e-04
1.091395e-03
1.297988e-03
1.414803e-03
1.453141e-03
1.432804e-03
1.384436e-03
1.345006e-03
1.336872e-03
1.534046e-04
3.749432e-04
7.560434e-04
1.063960e-03
1.278198e-03
1.399887e-03
1.442364e-03
1.427662e-03
1.386724e-03
1.355265e-03
1.351724e-03
</DataArray>
<DataArray Name="stress" type="Float64" NumberOfComponents="9" format="ascii">
-7.995303e+04 2.026018e+03 0.000000e+00 2.026018e+03 -1.182374e+05 0.000000e+00 0.000000e+00 0.000000e+00 0.000000e+00
-7.460609e+04 2.198395e+03 0.000000e+00 2.198395e+03 -1.188636e+05 0.000000e+00 0.000000e+00 0.000000e+00 0.000000e+00
-7.234672e+04 2.602191e+03 0.000000e+00 2.602191e+03 -1.241068e+05 0.000000e+00 0.000000e+00 0.000000e+00 0.000000e+00
-7.225441e+04 3.190985e+03 0.000000e+00 3.190985e+03 -1.298390e+05 0.000000e+00 0.000000e+00 0.000000e+00 0.000000e+00
-7.317838e+04 3.857598e+03 0.000000e+00 3.857598e+03 -1.366595e+05 0.000000e+00 0.000000e+00 0.000000e+00 0.000000e+00
-7.557872e+04 4.295841e+03 0.000000e+00 4.295841e+03 -1.440096e+05 0.000000e+00 0.000000e+00 0.000000e+00 0.000000e+00
-7.932736e+04 4.423013e+03 0.000000e+00 4.423013e+03 -1.514768e+05 0.000000e+00 0.000000e+00 0.000000e+00 0.000000e+00
-8.433990e+04 3.945902e+03 0.000000e+00 3.945902e+03 -1.579432e+05 0.000000e+00 0.000000e+00 0.000000e+00 0.000000e+00
-9.115370e+04 2.254510e+03 0.000000e+00 2.254510e+03 -1.620695e+05 0.000000e+00 0.000000e+00 0.000000e+00 0.000000e+00
-1.002347e+05 -1.218676e+02 0.000000e+00 -1.218676e+02 -1.643868e+05 0.000000e+00 0.000000e+00 0.000000e+00 0.000000e+00
-1.043762e+05 -8.161100e+02 0.000000e+00 -8.161100e+02 -1.635833e+05 0.000000e+00 0.000000e+00 0.000000e+00 0.000000e+00
-7.952102e+04 5.943314e+03 0.000000e+00 5.943314e+03 -1.152742e+05 0.000000e+00 0.000000e+00 0.000000e+00 0.000000e+00
-7.456352e+04 5.943437e+03 0.000000e+00 5.943437e+03 -1.157332e+05 0.000000e+00 0.000000e+00 0.000000e+00 0.000000e+00
-7.252098e+04 6.257196e+03 0.000000e+00 6.257196e+03 -1.206221e+05 0.000000e+00 0.000000e+00 0.000000e+00 0.000000e+00
-7.276343e+04 7.018818e+03 0.000000e+00 7.018818e+03 -1.259676e+05 0.000000e+00 0.000000e+00 0.000000e+00 0.000000e+00
-7.391368e+04 7.917030e+03 0.000000e+00 7.917030e+03 -1.322190e+05 0.000000e+00 0.000000e+00 0.000000e+00 0.000000e+00
-7.621920e+04 8.583495e+03 0.000000e+00 8.583495e+03 -1.392465e+05 0.000000e+00 0.000000e+00 0.000000e+00 0.000000e+00
-7.973488e+04 8.820386e+03 0.000000e+00 8.820386e+03 -1.468879e+05 0.000000e+00 0.000000e+00 0.000000e+00 0.000000e+00
-8.402032e+04 8.099122e+03 0.000000e+00 8.099122e+03 -1.547778e+05 0.000000e+00 0.000000e+00 0.000000e+00 0.000000e+00
-8.973596e+04 5.668867e+03 0.000000e+00 5.668867e+03 -1.631472e+05 0.000000e+00 0.000000e+00 0.000000e+00 0.000000e+00
-9.683506e+04 1.235855e+03 0.000000e+00 1.235855e+03 -1.683563e+05 0.000000e+00 0.000000e+00 0.000000e+00 0.000000e+00
-1.075581e+05 -2.883423e+03 0.000000e+00 -2.883423e+03 -1.761052e+05 0.000000e+00 0.000000e+00 0.000000e+00 0.000000e+00
-7.839104e+04 1.055642e+04 0.000000e+00 1.055642e+04 -1.087749e+05 0.000000e+00 0.000000e+00 0.000000e+00 0.000000e+00
-7.457725e+04 1.054071e+04 0.000000e+00 1.054071e+04 -1.087297e+05 0.000000e+00 0.000000e+00 0.000000e+00 0.000000e+00
-7.309375e+04 1.114269e+04 0.000000e+00 1.114269e+04 -1.119594e+05 0.000000e+00 0.000000e+00 0.000000e+00 0.000000e+00
-7.369382e+04 1.252376e+04 0.000000e+00 1.252376e+04 -1.153876e+05 0.000000e+00 0.000000e+00 0.000000e+00 0.000000e+00
-7.540307e+04 1.442832e+04 0.000000e+00 1.442832e+04 -1.194463e+05 0.000000e+00 0.000000e+00 0.000000e+00 0.000000e+00
-7.838263e+04 1.651607e+04 0.000000e+00 1.651607e+04 -1.247521e+05 0.000000e+00 0.000000e+00 0.000000e+00 0.000000e+00
-8.278035e+04 1.828262e+04 0.000000e+00 1.828262e+04 -1.313190e+05 0.000000e+00 0.000000e+00 0.000000e+00 0.000000e+00
-8.792927e+04 1.937113e+04 0.000000e+00 1.937113e+04 -1.397644e+05 0.000000e+00 0.000000e+00 0.000000e+00 0.000000e+00
-9.470145e+04 1.978471e+04 0.000000e+00 1.978471e+04 -1.513469e+05 0.000000e+00 0.000000e+00 0.000000e+00 0.000000e+00
-1.046859e+05 1.683881e+04 0.000000e+00 1.683881e+04 -1.648958e+05 0.000000e+00 0.000000e+00 0.000000e+00 0.000000e+00
-1.249521e+05 1.431275e+04 0.000000e+00 1.431275e+04 -1.845594e+05 0.000000e+00 0.000000e+00 0.000000e+00 0.000000e+00
-7.670646e+04 1.298709e+04 0.000000e+00 1.298709e+04 -1.009082e+05 0.000000e+00 0.000000e+00 0.000000e+00 0.000000e+00
-7.441816e+04 1.287885e+04 0.000000e+00 1.287885e+04 -1.005410e+05 0.000000e+00 0.000000e+00 0.000000e+00 0.000000e+00
-7.388348e+04 1.333320e+04 0.000000e+00 1.333320e+04 -1.016197e+05 0.000000e+00 0.000000e+00 0.000000e+00 0.000000e+00
-7.479015e+04 1.460240e+04 0.000000e+00 1.460240e+04 -1.021882e+05 0.000000e+00 0.000000e+00 0.000000e+00 0.000000e+00
-7.609404e+04 1.643649e+04 0.000000e+00 1.643649e+04 -1.019273e+05 0.000000e+00 0.000000e+00 0.000000e+00 0.000000e+00
-7.753520e+04 1.838033e+04 0.000000e+00 1.838033e+04 -1.004660e+05 0.000000e+00 0.000000e+00 0.000000e+00 0.000000e+00
-7.923404e+04 1.975003e+04 0.000000e+00 1.975003e+04 -9.782169e+04 0.000000e+00 0.000000e+00 0.000000e+00 0.000000e+00
-8.074127e+04 2.051344e+04 0.000000e+00 2.051344e+04 -9.422088e+04 0.000000e+00 0.000000e+00 0.000000e+00 0.000000e+00
-8.170038e+04 2.037550e+04 0.000000e+00 2.037550e+04 -8.834921e+04 0.000000e+00 0.000000e+00 0.000000e+00 0.000000e+00
-8.019663e+04 1.694442e+04 0.000000e+00 1.694442e+04 -7.842077e+04 0.000000e+00 0.000000e+00 0.000000e+00 0.000000e+00
-7.639903e+04 1.479398e+04 0.000000e+00 1.479398e+04 -7.260029e+04 0.000000e+00 0.000000e+00 0.000000e+00 0.000000e+00
-7.455683e+04 1.371083e+04 0.000000e+00 1.371083e+04 -9.275982e+04 0.000000e+00 0.000000e+00 0.000000e+00 0.000000e+00
-7.398939e+04 1.350608e+04 0.000000e+00 1.350608e+04 -9.244309e+04 0.000000e+00 0.000000e+00 0.000000e+00 0.000000e+00
-7.471646e+04 1.350491e+04 0.000000e+00 1.350491e+04 -9.227745e+04 0.000000e+00 0.000000e+00 0.000000e+00 0.000000e+00
-7.641884e+04 1.414129e+04 0.000000e+00 1.414129e+04 -9.150534e+04 0.000000e+00 0.000000e+00 0.000000e+00 0.000000e+00
-7.834457e+04 1.496482e+04 0.000000e+00 1.496482e+04 -8.999344e+04 0.000000e+00 0.000000e+00 0.000000e+00 0.000000e+00
-8.021330e+04 1.575560e+04 0.000000e+00 1.575560e+04 -8.752311e+04 0.000000e+00 0.000000e+00 0.000000e+00 0.000000e+00
-8.196146e+04 1.619263e+04 0.000000e+00 1.619263e+04 -8.392893e+04 0.000000e+00 0.000000e+00 0.000000e+00 0.000000e+00
-8.352621e+04 1.576741e+04 0.000000e+00 1.576741e+04 -7.919919e+04 0.000000e+00 0.000000e+00 0.000000e+00 0.000000e+00
-8.401085e+04 1.359231e+04 0.000000e+00 1.359231e+04 -7.262588e+04 0.000000e+00 0.000000e+00 0.000000e+00 0.000000e+00
-8.011345e+04 7.448833e+03 0.000000e+00 7.448833e+03 -6.656133e+04 0.000000e+00 0.000000e+00 0.000000e+00 0.000000e+00
-6.441595e+04 2.063250e+03 0.000000e+00 2.063250e+03 -5.919342e+04 0.000000e+00 0.000000e+00 0.000000e+00 0.000000e+00
-7.212531e+04 1.340675e+04 0.000000e+00 1.340675e+04 -8.508149e+04 0.000000e+00 0.000000e+00 0.000000e+00 0.000000e+00
-7.316166e+04 1.311117e+04 0.000000e+00 1.311117e+04 -8.485448e+04 0.000000e+00 0.000000e+00 0.000000e+00 0.000000e+00
-7.493605e+04 1.261010e+04 0.000000e+00 1.261010e+04 -8.396076e+04 0.000000e+00 0.000000e+00 0.000000e+00 0.000000e+00
-7.701814e+04 1.258794e+04 0.000000e+00 1.258794e+04 -8.256514e+04 0.000000e+00 0.000000e+00 0.000000e+00 0.000000e+00
-7.896861e+04 1.259493e+04 0.000000e+00 1.259493e+04 -8.056408e+04 0.000000e+00 0.000000e+00 0.000000e+00 0.000000e+00
-8.058763e+04 1.237134e+04 0.000000e+00 1.237134e+04 -7.785765e+04 0.000000e+00 0.000000e+00 0.000000e+00 0.000000e+00
-8.169180e+04 1.165228e+04 0.000000e+00 1.165228e+04 -7.436241e+04 0.000000e+00 0.000000e+00 0.000000e+00 0.000000e+00
-8.201130e+04 1.000960e+04 0.000000e+00 1.000960e+04 -7.011398e+04 0.000000e+00 0.000000e+00 0.000000e+00 0.000000e+00
-8.029590e+04 6.758562e+03 0.000000e+00 6.758562e+03 -6.563920e+04 0.000000e+00 0.000000e+00 0.000000e+00 0.000000e+00
-7.178525e+04 2.174504e+03 0.000000e+00 2.174504e+03 -6.218724e+04 0.000000e+00 0.000000e+00 0.000000e+00 0.000000e+00
-5.919929e+04 -5.563287e+01 0.000000e+00 -5.563287e+01 -5.903369e+04 0.000000e+00 0.000000e+00 0.000000e+00 0.000000e+00
-6.979728e+04 1.248263e+04 0.000000e+00 1.248263e+04 -7.862890e+04 0.000000e+00 0.000000e+00 0.000000e+00 0.000000e+00
-7.201341e+04 1.212666e+04 0.000000e+00 1.212666e+04 -7.848526e+04 0.000000e+00 0.000000e+00 0.000000e+00 0.000000e+00
-7.457645e+04 1.124858e+04 0.000000e+00 1.124858e+04 -7.726000e+04 0.000000e+00 0.000000e+00 0.000000e+00 0.000000e+00
-7.681274e+04 1.067267e+04 0.000000e+00 1.067267e+04 -7.570444e+04 0.000000e+00 0.000000e+00 0.000000e+00 0.000000e+00
-7.860305e+04 1.002885e+04 0.000000e+00 1.002885e+04 -7.369811e+04 0.000000e+00 0.000000e+00 0.000000e+00 0.000000e+00
-7.983348e+04 9.109918e+03 0.000000e+00 9.109918e+03 -7.123123e+04 0.000000e+00 0.000000e+00 0.000000e+00 0.000000e+00
-8.026762e+04 7.709421e+03 0.000000e+00 7.709421e+03 -6.835969e+04 0.000000e+00 0.000000e+00 0.000000e+00 0.000000e+00
-7.943688e+04 5.609865e+03 0.000000e+00 5.609865e+03 -6.529254e+04 0.000000e+00 0.000000e+00 0.000000e+00 0.000000e+00
-7.607055e+04 2.733440e+03 0.000000e+00 2.733440e+03 -6.251512e+04 0.000000e+00 0.000000e+00 0.000000e+00 0.000000e+00
-6.811116e+04 1.708151e+02 0.000000e+00 1.708151e+02 -6.070751e+04 0.000000e+00 0.000000e+00 0.000000e+00 0.000000e+00
-5.968666e+04 -7.747934e+02 0.000000e+00 -7.747934e+02 -5.910356e+04 0.000000e+00 0.000000e+00 0.000000e+00 0.000000e+00
-6.773729e+04 1.125537e+04 0.000000e+00 1.125537e+04 -7.359670e+04 0.000000e+00 0.000000e+00 0.000000e+00 0.000000e+00
-7.070288e+04 1.086091e+04 0.000000e+00 1.086091e+04 -7.349280e+04 0.000000e+00 0.000000e+00 0.000000e+00 0.000000e+00
-7.373287e+04 9.755219e+03 0.000000e+00 9.755219e+03 -7.216012e+04 0.000000e+00 0.000000e+00 0.000000e+00 0.000000e+00
-7.597521e+04 8.770189e+03 0.000000e+00 8.770189e+03 -7.064119e+04 0.000000e+00 0.000000e+00 0.000000e+00 0.000000e+00
-7.758507e+04 7.692395e+03 0.000000e+00 7.692395e+03 -6.887014e+04 0.000000e+00 0.000000e+00 0.000000e+00 0.000000e+00
-7.844262e+04 6.403787e+03 0.000000e+00 6.403787e+03 -6.687563e+04 0.000000e+00 0.000000e+00 0.000000e+00 0.000000e+00
-7.830357e+04 4.754539e+03 0.000000e+00 4.754539e+03 -6.474606e+04 0.000000e+00 0.000000e+00 0.000000e+00 0.000000e+00
-7.679069e+04 2.733207e+03 0.000000e+00 2.733207e+03 -6.269284e+04 0.000000e+00 0.000000e+00 0.000000e+00 0.000000e+00
-7.316151e+04 6.212752e+02 0.000000e+00 6.212752e+02 -6.108722e+04 0.000000e+00 0.000000e+00 0.000000e+00 0.000000e+00
-6.677920e+04 -6.296522e+02 0.000000e+00 -6.296522e+02 -6.022897e+04 0.000000e+00 0.000000e+00 0.000000e+00 0.000000e+00
-6.106596e+04 -8.330982e+02 0.000000e+00 -8.330982e+02 -5.939678e+04 0.000000e+00 0.000000e+00 0.000000e+00 0.000000e+00
-6.612920e+04 9.935439e+03 0.000000e+00 9.935439e+03 -6.983773e+04 0.000000e+00 0.000000e+00 0.000000e+00 0.000000e+00
-6.933843e+04 9.489566e+03 0.000000e+00 9.489566e+03 -6.973123e+04 0.000000e+00 0.000000e+00 0.000000e+00 0.000000e+00
-7.253511e+04 8.252506e+03 0.000000e+00 8.252506e+03 -6.840314e+04 0.000000e+00 0.000000e+00 0.000000e+00 0.000000e+00
-7.477209e+04 7.060417e+03 0.000000e+00 7.060417e+03 -6.703318e+04 0.000000e+00 0.000000e+00 0.000000e+00 0.000000e+00
-7.621465e+04 5.787358e+03 0.000000e+00 5.787358e+03 -6.558030e+04 0.000000e+00 0.000000e+00 0.000000e+00 0.000000e+00
-7.677308e+04 4.341102e+03 0.000000e+00 4.341102e+03 -6.405289e+04 0.000000e+00 0.000000e+00 0.000000e+00 0.000000e+00
-7.631573e+04 2.706669e+03 0.000000e+00 2.706669e+03 -6.255145e+04 0.000000e+00 0.000000e+00 0.000000e+00 0.000000e+00
-7.462869e+04 1.005686e+03 0.000000e+00 1.005686e+03 -6.126811e+04 0.000000e+00 0.000000e+00 0.000000e+00 0.000000e+00
-7.139662e+04 -4.146595e+02 0.000000e+00 -4.146595e+02 -6.040827e+04 0.000000e+00 0.000000e+00 0.000000e+00 0.000000e+00
-6.660635e+04 -9.026560e+02 0.000000e+00 -9.026560e+02 -6.003689e+04 0.000000e+00 0.000000e+00 0.000000e+00 0.000000e+00
-6.268349e+04 -8.031312e+02 0.000000e+00 -8.031312e+02 -5.956402e+04 0.000000e+00 0.000000e+00 0.000000e+00 0.000000e+00
-6.484659e+04 8.538439e+03 0.000000e+00 8.538439e+03 -6.714575e+04 0.000000e+00 0.000000e+00 0.000000e+00 0.000000e+00
-6.798454e+04 8.085208e+03 0.000000e+00 8.085208e+03 -6.698192e+04 0.000000e+00 0.000000e+00 0.000000e+00 0.000000e+00
-7.119934e+04 6.860723e+03 0.000000e+00 6.860723e+03 -6.572707e+04 0.000000e+00 0.000000e+00 0.000000e+00 0.000000e+00
-7.339831e+04 5.606164e+03 0.000000e+00 5.606164e+03 -6.454021e+04 0.000000e+00 0.000000e+00 0.000000e+00 0.000000e+00
-7.468977e+04 4.279776e+03 0.000000e+00 4.279776e+03 -6.336064e+04 0.000000e+00 0.000000e+00 0.000000e+00 0.000000e+00
-7.508697e+04 2.843495e+03 0.000000e+00 2.843495e+03 -6.222573e+04 0.000000e+00 0.000000e+00 0.000000e+00 0.000000e+00
-7.455083e+04 1.382256e+03 0.000000e+00 1.382256e+03 -6.122366e+04 0.000000e+00 0.000000e+00 0.000000e+00 0.000000e+00
-7.301312e+04 5.072054e+01 0.000000e+00 5.072054e+01 -6.047754e+04 0.000000e+00 0.000000e+00 0.000000e+00 0.000000e+00
-7.041681e+04 -8.659966e+02 0.000000e+00 -8.659966e+02 -6.006042e+04 0.000000e+00 0.000000e+00 0.000000e+00 0.000000e+00
-6.694036e+04 -9.531583e+02 0.000000e+00 -9.531583e+02 -5.994347e+04 0.000000e+00 0.000000e+00 0.000000e+00 0.000000e+00
-6.426098e+04 -7.150291e+02 0.000000e+00 -7.150291e+02 -5.967059e+04 0.000000e+00 0.000000e+00 0.000000e+00 0.000000e+00
-6.384068e+04 7.096267e+03 0.000000e+00 7.096267e+03 -6.522501e+04 0.000000e+00 0.000000e+00 0.000000e+00 0.000000e+00
-6.676092e+04 6.700594e+03 0.000000e+00 6.700594e+03 -6.503311e+04 0.000000e+00 0.000000e+00 0.000000e+00 0.000000e+00
-6.988062e+04 5.603658e+03 0.000000e+00 5.603658e+03 -6.388034e+04 0.000000e+00 0.000000e+00 0.000000e+00 0.000000e+00
-7.198662e+04 4.388637e+03 0.000000e+00 4.388637e+03 -6.283807e+04 0.000000e+00 0.000000e+00 0.000000e+00 0.000000e+00
-7.318689e+04 3.106461e+03 0.000000e+00 3.106461e+03 -6.188551e+04 0.000000e+00 0.000000e+00 0.000000e+00 0.000000e+00
-7.354384e+04 1.807345e+03 0.000000e+00 1.807345e+03 -6.105852e+04 0.000000e+00 0.000000e+00 0.000000e+00 0.000000e+00
-7.309501e+04 5.828419e+02 0.000000e+00 5.828419e+02 -6.042260e+04 0.000000e+00 0.000000e+00 0.000000e+00 0.000000e+00
-7.185905e+04 -4.254704e+02 0.000000e+00 -4.254704e+02 -6.002944e+04 0.000000e+00 0.000000e+00 0.000000e+00 0.000000e+00
-6.991150e+04 -1.003548e+03 0.000000e+00 -1.003548e+03 -5.987398e+04 0.000000e+00 0.000000e+00 0.000000e+00 0.000000e+00
-6.747269e+04 -8.925170e+02 0.000000e+00 -8.925170e+02 -5.989815e+04 0.000000e+00 0.000000e+00 0.000000e+00 0.000000e+00
-6.568668e+04 -6.064059e+02 0.000000e+00 -6.064059e+02 -5.975691e+04 0.000000e+00 0.000000e+00 0.000000e+00 0.000000e+00
-6.311064e+04 5.721775e+03 0.000000e+00 5.721775e+03 -6.391619e+04 0.000000e+00 0.000000e+00 0.000000e+00 0.000000e+00
-6.574431e+04 5.385482e+03 0.000000e+00 5.385482e+03 -6.369686e+04 0.000000e+00 0.000000e+00 0.000000e+00 0.000000e+00
-6.864762e+04 4.434116e+03 0.000000e+00 4.434116e+03 -6.261684e+04 0.000000e+00 0.000000e+00 0.000000e+00 0.000000e+00
-7.064856e+04 3.355161e+03 0.000000e+00 3.355161e+03 -6.168560e+04 0.000000e+00 0.000000e+00 0.000000e+00 0.000000e+00
-7.182323e+04 2.213910e+03 0.000000e+00 2.213910e+03 -6.092762e+04 0.000000e+00 0.000000e+00 0.000000e+00 0.000000e+00
-7.222803e+04 1.115249e+03 0.000000e+00 1.115249e+03 -6.033984e+04 0.000000e+00 0.000000e+00 0.000000e+00 0.000000e+00
-7.194770e+04 1.354163e+02 0.000000e+00 1.354163e+02 -5.995468e+04 0.000000e+00 0.000000e+00 0.000000e+00 0.000000e+00
-7.105191e+04 -6.104057e+02 0.000000e+00 -6.104057e+02 -5.978035e+04 0.000000e+00 0.000000e+00 0.000000e+00 0.000000e+00
-6.968153e+04 -9.647646e+02 0.000000e+00 -9.647646e+02 -5.978260e+04 0.000000e+00 0.000000e+00 0.000000e+00 0.000000e+00
-6.804747e+04 -7.727261e+02 0.000000e+00 -7.727261e+02 -5.987944e+04 0.000000e+00 0.000000e+00 0.000000e+00 0.000000e+00
-6.691129e+04 -4.952433e+02 0.000000e+00 -4.952433e+02 -5.983083e+04 0.000000e+00 0.000000e+00 0.000000e+00 0.000000e+00
-6.254305e+04 4.424230e+03 0.000000e+00 4.424230e+03 -6.302714e+04 0.000000e+00 0.000000e+00 0.000000e+00 0.000000e+00
-6.490291e+04 4.137960e+03 0.000000e+00 4.137960e+03 -6.277902e+04 0.000000e+00 0.000000e+00 0.000000e+00 0.000000e+00
-6.758400e+04 3.354815e+03 0.000000e+00 3.354815e+03 -6.177518e+04 0.000000e+00 0.000000e+00 0.000000e+00 0.000000e+00
-6.949999e+04 2.469215e+03 0.000000e+00 2.469215e+03 -6.095083e+04 0.000000e+00 0.000000e+00 0.000000e+00 0.000000e+00
-7.067551e+04 1.541534e+03 0.000000e+00 1.541534e+03 -6.032473e+04 0.000000e+00 0.000000e+00 0.000000e+00 0.000000e+00
-7.116914e+04 6.644980e+02 0.000000e+00 6.644980e+02 -5.990873e+04 0.000000e+00 0.000000e+00 0.000000e+00 0.000000e+00
-7.107449e+04 -8.482851e+01 0.000000e+00 -8.482851e+01 -5.968639e+04 0.000000e+00 0.000000e+00 0.000000e+00 0.000000e+00
-7.050027e+04 -6.189326e+02 0.000000e+00 -6.189326e+02 -5.965014e+04 0.000000e+00 0.000000e+00 0.000000e+00 0.000000e+00
-6.960134e+04 -8.318443e+02 0.000000e+00 -8.318443e+02 -5.974019e+04 0.000000e+00 0.000000e+00 0.000000e+00 0.000000e+00
-6.857634e+04 -6.279578e+02 0.000000e+00 -6.279578e+02 -5.987609e+04 0.000000e+00 0.000000e+00 0.000000e+00 0.000000e+00
-6.791293e+04 -3.901927e+02 0.000000e+00 -3.901927e+02 -5.988525e+04 0.000000e+00 0.000000e+00 0.000000e+00 0.000000e+00
-6.212609e+04 3.154023e+03 0.000000e+00 3.154023e+03 -6.241334e+04 0.000000e+00 0.000000e+00 0.000000e+00 0.000000e+00
-6.424380e+04 2.938912e+03 0.000000e+00 2.938912e+03 -6.214630e+04 0.000000e+00 0.000000e+00 0.000000e+00 0.000000e+00
-6.674640e+04 2.367527e+03 0.000000e+00 2.367527e+03 -6.121132e+04 0.000000e+00 0.000000e+00 0.000000e+00 0.000000e+00
-6.859545e+04 1.702156e+03 0.000000e+00 1.702156e+03 -6.047866e+04 0.000000e+00 0.000000e+00 0.000000e+00 0.000000e+00
-6.978313e+04 1.019211e+03 0.000000e+00 1.019211e+03 -5.994700e+04 0.000000e+00 0.000000e+00 0.000000e+00 0.000000e+00
-7.036534e+04 3.757756e+02 0.000000e+00 3.757756e+02 -5.964434e+04 0.000000e+00 0.000000e+00 0.000000e+00 0.000000e+00
-7.043995e+04 -1.599443e+02 0.000000e+00 -1.599443e+02 -5.953377e+04 0.000000e+00 0.000000e+00 0.000000e+00 0.000000e+00
-7.013334e+04 -5.241055e+02 0.000000e+00 -5.241055e+02 -5.958138e+04 0.000000e+00 0.000000e+00 0.000000e+00 0.000000e+00
-6.959280e+04 -6.491992e+02 0.000000e+00 -6.491992e+02 -5.972406e+04 0.000000e+00 0.000000e+00 0.000000e+00 0.000000e+00
-6.901312e+04 -4.735664e+02 0.000000e+00 -4.735664e+02 -5.987641e+04 0.000000e+00 0.000000e+00 0.000000e+00 0.000000e+00
-6.868855e+04 -2.889980e+02 0.000000e+00 -2.889980e+02 -5.992396e+04 0.000000e+00 0.000000e+00 0.000000e+00 0.000000e+00
-6.182818e+04 1.952146e+03 0.000000e+00 1.952146e+03 -6.192650e+04 0.000000e+00 0.000000e+00 0.000000e+00 0.000000e+00
-6.378935e+04 1.820906e+03 0.000000e+00 1.820906e+03 -6.167007e+04 0.000000e+00 0.000000e+00 0.000000e+00 0.000000e+00
-6.617236e+04 1.462914e+03 0.000000e+00 1.462914e+03 -6.081176e+04 0.000000e+00 0.000000e+00 0.000000e+00 0.000000e+00
-6.796015e+04 1.039475e+03 0.000000e+00 1.039475e+03 -6.016719e+04 0.000000e+00 0.000000e+00 0.000000e+00 0.000000e+00
-6.916117e+04 6.043748e+02 0.000000e+00 6.043748e+02 -5.972098e+04 0.000000e+00 0.000000e+00 0.000000e+00 0.000000e+00
-6.981132e+04 1.940040e+02 0.000000e+00 1.940040e+02 -5.949696e+04 0.000000e+00 0.000000e+00 0.000000e+00 0.000000e+00
-7.001334e+04 -1.459610e+02 0.000000e+00 -1.459610e+02 -5.945235e+04 0.000000e+00 0.000000e+00 0.000000e+00 0.000000e+00
-6.989984e+04 -3.719833e+02 0.000000e+00 -3.719833e+02 -5.954468e+04 0.000000e+00 0.000000e+00 0.000000e+00 0.000000e+00
-6.961176e+04 -4.415730e+02 0.000000e+00 -4.415730e+02 -5.971476e+04 0.000000e+00 0.000000e+00 0.000000e+00 0.000000e+00
-6.933445e+04 -3.158935e+02 0.000000e+00 -3.158935e+02 -5.987507e+04 0.000000e+00 0.000000e+00 0.000000e+00 0.000000e+00
-6.923760e+04 -1.908953e+02 0.000000e+00 -1.908953e+02 -5.994590e+04 0.000000e+00 0.000000e+00 0.000000e+00 0.000000e+00
-6.160588e+04 8.184174e+02 0.000000e+00 8.184174e+02 -6.145523e+04 0.000000e+00 0.000000e+00 0.000000e+00 0.000000e+00
-6.355373e+04 8.031103e+02 0.000000e+00 8.031103e+02 -6.124599e+04 0.000000e+00 0.000000e+00 0.000000e+00 0.000000e+00
-6.585774e+04 6.650085e+02 0.000000e+00 6.650085e+02 -6.049395e+04 0.000000e+00 0.000000e+00 0.000000e+00 0.000000e+00
-6.759470e+04 4.773335e+02 0.000000e+00 4.773335e+02 -5.995780e+04 0.000000e+00 0.000000e+00 0.000000e+00 0.000000e+00
-6.880271e+04 2.766259e+02 0.000000e+00 2.766259e+02 -5.959230e+04 0.000000e+00 0.000000e+00 0.000000e+00 0.000000e+00
-6.949122e+04 8.043546e+01 0.000000e+00 8.043546e+01 -5.942232e+04 0.000000e+00 0.000000e+00 0.000000e+00 0.000000e+00
-6.977025e+04 -8.348050e+01 0.000000e+00 -8.348050e+01 -5.941756e+04 0.000000e+00 0.000000e+00 0.000000e+00 0.000000e+00
-6.976970e+04 -1.911366e+02 0.000000e+00 -1.911366e+02 -5.953117e+04 0.000000e+00 0.000000e+00 0.000000e+00 0.000000e+00
-6.963211e+04 -2.221807e+02 0.000000e+00 -2.221807e+02 -5.971036e+04 0.000000e+00 0.000000e+00 0.000000e+00 0.000000e+00
-6.952867e+04 -1.583303e+02 0.000000e+00 -1.583303e+02 -5.987594e+04 0.000000e+00 0.000000e+00 0.000000e+00 0.000000e+00
-6.956121e+04 -9.566327e+01 0.000000e+00 -9.566327e+01 -5.995929e+04 0.000000e+00 0.000000e+00 0.000000e+00 0.000000e+00
-6.143071e+04 4.197303e+01 0.000000e+00 4.197303e+01 -6.095979e+04 0.000000e+00 0.000000e+00 0.000000e+00 0.000000e+00
-6.344498e+04 1.397629e+02 0.000000e+00 1.397629e+02 -6.090032e+04 0.000000e+00 0.000000e+00 0.000000e+00 0.000000e+00
-6.575698e+04 1.648586e+02 0.000000e+00 1.648586e+02 -6.033783e+04 0.000000e+00 0.000000e+00 0.000000e+00 0.000000e+00
-6.747987e+04 1.213207e+02 0.000000e+00 1.213207e+02 -5.988318e+04 0.000000e+00 0.000000e+00 0.000000e+00 0.000000e+00
-6.868995e+04 6.736804e+01 0.000000e+00 6.736804e+01 -5.955822e+04 0.000000e+00 0.000000e+00 0.000000e+00 0.000000e+00
-6.938818e+04 4.857311e+00 0.000000e+00 4.857311e+00 -5.940405e+04 0.000000e+00 0.000000e+00 0.000000e+00 0.000000e+00
-6.969216e+04 -5.171883e+01 0.000000e+00 -5.171883e+01 -5.941028e+04 0.000000e+00 0.000000e+00 0.000000e+00 0.000000e+00
-6.972848e+04 -8.950164e+01 0.000000e+00 -8.950164e+01 -5.952794e+04 0.000000e+00 0.000000e+00 0.000000e+00 0.000000e+00
-6.964016e+04 -1.015885e+02 0.000000e+00 -1.015885e+02 -5.970882e+04 0.000000e+00 0.000000e+00 0.000000e+00 0.000000e+00
-6.959285e+04 -7.992780e+01 0.000000e+00 -7.992780e+01 -5.987596e+04 0.000000e+00 0.000000e+00 0.000000e+00 0.000000e+00
-6.966691e+04 -5.676862e+01 0.000000e+00 -5.676862e+01 -5.996299e+04 0.000000e+00 0.000000e+00 0.000000e+00 0.000000e+00
</DataArray>
<DataArray Name="vol_eps" type="Float64" NumberOfComponents="1" format="ascii">
-5.049590e-03
-4.697193e-03
-4.706165e-03
-4.831025e-03
-5.123749e-03
-5.649136e-03
-6.386355e-03
-7.274264e-03
-8.291770e-03
-9.281947e-03
-9.524031e-03
-4.840226e-03
-4.503302e-03
-4.523639e-03
-4.683466e-03
-4.969116e-03
-5.428482e-03
-6.092556e-03
-6.930301e-03
-8.025409e-03
-9.064912e-03
-1.047189e-02
-4.357135e-03
-4.068322e-03
-4.082783e-03
-4.220690e-03
-4.441963e-03
-4.777076e-03
-5.222201e-03
-5.731371e-03
-6.472783e-03
-7.774970e-03
-1.023772e-02
-3.733811e-03
-3.538494e-03
-3.539698e-03
-3.588247e-03
-3.566125e-03
-3.403948e-03
-3.076694e-03
-2.564796e-03
-1.741753e-03
-4.155013e-04
6.833669e-04
-3.044677e-03
-2.982691e-03
-3.023287e-03
-3.082580e-03
-3.101729e-03
-3.046392e-03
-2.907500e-03
-2.689316e-03
-2.292027e-03
-1.683718e-03
-1.978316e-04
-2.371253e-03
-2.433633e-03
-2.505652e-03
-2.555087e-03
-2.552343e-03
-2.480035e-03
-2.324424e-03
-2.069910e-03
-1.664610e-03
-8.878192e-04
1.313789e-04
-1.788270e-03
-1.941629e-03
-2.044255e-03
-2.091677e-03
-2.078589e-03
-1.999785e-03
-1.841593e-03
-1.583624e-03
-1.181750e-03
-5.584492e-04
8.287360e-05
-1.325138e-03
-1.530018e-03
-1.654246e-03
-1.706666e-03
-1.698801e-03
-1.624494e-03
-1.473505e-03
-1.238757e-03
-9.016371e-04
-4.443834e-04
-2.881671e-05
-9.788309e-04
-1.198436e-03
-1.333446e-03
-1.394728e-03
-1.393760e-03
-1.328390e-03
-1.198909e-03
-1.006301e-03
-7.456219e-04
-4.209671e-04
-1.433414e-04
-7.282211e-04
-9.362960e-04
-1.074914e-03
-1.142162e-03
-1.147718e-03
-1.098142e-03
-9.978228e-04
-8.514968e-04
-6.610324e-04
-4.354378e-04
-2.495447e-04
-5.489608e-04
-7.368927e-04
-8.708748e-04
-9.394313e-04
-9.537795e-04
-9.225912e-04
-8.526132e-04
-7.491584e-04
-6.169561e-04
-4.657991e-04
-3.448359e-04
-4.278464e-04
-5.919415e-04
-7.126675e-04
-7.794691e-04
-8.046434e-04
-7.914535e-04
-7.489676e-04
-6.819106e-04
-5.963697e-04
-5.003337e-04
-4.257833e-04
-3.454486e-04
-4.850200e-04
-5.928758e-04
-6.602232e-04
-6.933208e-04
-6.964902e-04
-6.763882e-04
-6.387844e-04
-5.886590e-04
-5.328555e-04
-4.916896e-04
-2.876921e-04
-4.087223e-04
-5.058639e-04
-5.730875e-04
-6.126736e-04
-6.291602e-04
-6.270309e-04
-6.117114e-04
-5.872334e-04
-5.602294e-04
-5.427281e-04
-2.424986e-04
-3.528676e-04
-4.460644e-04
-5.132926e-04
-5.588904e-04
-5.850240e-04
-5.950935e-04
-5.949158e-04
-5.880494e-04
-5.807918e-04
-5.792460e-04
-1.999884e-04
-3.118175e-04
-4.069517e-04
-4.771562e-04
-5.281667e-04
-5.604221e-04
-5.775815e-04
-5.857397e-04
-5.890804e-04
-5.933367e-04
-6.011212e-04
-1.576798e-04
-2.829417e-04
-3.906338e-04
-4.654844e-04
-5.190914e-04
-5.529510e-04
-5.721605e-04
-5.827599e-04
-5.893007e-04
-5.973908e-04
-6.081407e-04
</DataArray>
</PointData>
</Piece>
</UnstructuredGrid>
</VTKFile>
