<?xml version="1.0"?>
<VTKFile type="UnstructuredGrid" version="0.1">
<UnstructuredGrid>
<FieldData>
<DataArray Name="TIME" type="Float64" format="ascii" NumberOfTuples="1">
0.000000e+00
</DataArray>
</FieldData>
<FieldData>
<DataArray Name="CYCLE" type="Int32" format="ascii" NumberOfTuples="1">
0
</DataArray>
</FieldData>
<Piece NumberOfPoints="187" NumberOfCells="160">
<Points>
<DataArray NumberOfComponents="3" type="Float64" format="ascii">
0.000000e+00 0.000000e+00 0.000000e+00
0.000000e+00 1.999014e-01 0.000000e+00
0.000000e+00 3.998029e-01 0.000000e+00
0.000000e+00 5.997017e-01 0.000000e+00
0.000000e+00 7.995957e-01 0.000000e+00
0.000000e+00 9.994831e-01 0.000000e+00
0.000000e+00 1.199363e+00 0.000000e+00
0.000000e+00 1.399234e+00 0.000000e+00
0.000000e+00 1.599102e+00 0.000000e+00
0.000000e+00 1.798982e+00 0.000000e+00
0.000000e+00 1.998875e+00 0.000000e+00
2.250000e-01 0.000000e+00 0.000000e+00
2.250196e-01 1.999179e-01 0.000000e+00
2.250302e-01 3.998273e-01 0.000000e+00
2.250379e-01 5.997313e-01 0.000000e+00
2.250442e-01 7.996301e-01 0.000000e+00
2.250492e-01 9.995226e-01 0.000000e+00
2.250523e-01 1.199407e+00 0.000000e+00
2.250511e-01 1.399282e+00 0.000000e+00
2.250396e-01 1.599147e+00 0.000000e+00
2.250100e-01 1.799005e+00 0.000000e+00
2.250000e-01 1.998875e+00 0.000000e+00
4.500000e-01 0.000000e+00 0.000000e+00
4.500330e-01 1.999280e-01 0.000000e+00
4.500549e-01 3.998497e-01 0.000000e+00
4.500704e-01 5.997660e-01 0.000000e+00
4.500823e-01 7.996774e-01 0.000000e+00
4.500917e-01 9.995840e-01 0.000000e+00
4.500979e-01 1.199485e+00 0.000000e+00
4.500984e-01 1.399377e+00 0.000000e+00
4.500882e-01 1.599255e+00 0.000000e+00
4.500553e-01 1.799099e+00 0.000000e+00
4.500000e-01 1.998875e+00 0.000000e+00
6.750000e-01 0.000000e+00 0.000000e+00
6.750424e-01 1.999388e-01 0.000000e+00
6.750722e-01 3.998736e-01 0.000000e+00
6.750938e-01 5.998052e-01 0.000000e+00
6.751099e-01 7.997340e-01 0.000000e+00
6.751217e-01 9.996610e-01 0.000000e+00
6.751289e-01 1.199587e+00 0.000000e+00
6.751293e-01 1.399513e+00 0.000000e+00
6.751170e-01 1.599443e+00 0.000000e+00
6.750838e-01 1.799390e+00 0.000000e+00
6.749173e-01 1.999409e+00 0.000000e+00
9.000000e-01 0.000000e+00 0.000000e+00
9.000478e-01 1.999502e-01 0.000000e+00
9.000822e-01 3.998988e-01 0.000000e+00
9.001071e-01 5.998462e-01 0.000000e+00
9.001249e-01 7.997935e-01 0.000000e+00
9.001365e-01 9.997423e-01 0.000000e+00
9.001414e-01 1.199695e+00 0.000000e+00
9.001362e-01 1.399654e+00 0.000000e+00
9.001141e-01 1.599627e+00 0.000000e+00
9.000504e-01 1.799622e+00 0.000000e+00
8.999353e-01 1.999613e+00 0.000000e+00
1.125000e+00 0.000000e+00 0.000000e+00
1.125049e+00 1.999612e-01 0.000000e+00
1.125085e+00 3.999227e-01 0.000000e+00
1.125111e+00 5.998849e-01 0.000000e+00
1.125129e+00 7.998489e-01 0.000000e+00
1.125138e+00 9.998162e-01 0.000000e+00
1.125139e+00 1.199789e+00 0.000000e+00
1.125127e+00 1.399770e+00 0.000000e+00
1.125097e+00 1.599761e+00 0.000000e+00
1.125042e+00 1.799758e+00 0.000000e+00
1.124968e+00 1.999754e+00 0.000000e+00
1.350000e+00 0.000000e+00 0.000000e+00
1.350048e+00 1.999711e-01 0.000000e+00
1.350083e+00 3.999438e-01 0.000000e+00
1.350108e+00 5.999183e-01 0.000000e+00
1.350124e+00 7.998954e-01 0.000000e+00
1.350130e+00 9.998763e-01 0.000000e+00
1.350128e+00 1.199862e+00 0.000000e+00
1.350114e+00 1.399854e+00 0.000000e+00
1.350086e+00 1.599851e+00 0.000000e+00
1.350044e+00 1.799849e+00 0.000000e+00
1.349998e+00 1.999845e+00 0.000000e+00
1.575000e+00 0.000000e+00 0.000000e+00
1.575044e+00 1.999792e-01 0.000000e+00
1.575077e+00 3.999608e-01 0.000000e+00
1.575100e+00 5.999448e-01 0.000000e+00
1.575113e+00 7.999315e-01 0.000000e+00
1.575118e+00 9.999215e-01 0.000000e+00
1.575114e+00 1.199915e+00 0.000000e+00
1.575100e+00 1.399912e+00 0.000000e+00
1.575078e+00 1.599911e+00 0.000000e+00
1.575050e+00 1.799910e+00 0.000000e+00
1.575023e+00 1.999907e+00 0.000000e+00
1.800000e+00 0.000000e+00 0.000000e+00
1.800040e+00 1.999856e-01 0.000000e+00
1.800069e+00 3.999740e-01 0.000000e+00
1.800089e+00 5.999647e-01 0.000000e+00
1.800100e+00 7.999579e-01 0.000000e+00
1.800104e+00 9.999534e-01 0.000000e+00
1.800100e+00 1.199951e+00 0.000000e+00
1.800088e+00 1.399951e+00 0.000000e+00
1.800072e+00 1.599952e+00 0.000000e+00
1.800054e+00 1.799952e+00 0.000000e+00
1.800041e+00 1.999950e+00 0.000000e+00
2.025000e+00 0.000000e+00 0.000000e+00
2.025034e+00 1.999905e-01 0.000000e+00
2.025060e+00 3.999837e-01 0.000000e+00
2.025077e+00 5.999791e-01 0.000000e+00
2.025087e+00 7.999766e-01 0.000000e+00
2.025090e+00 9.999760e-01 0.000000e+00
2.025086e+00 1.199977e+00 0.000000e+00
2.025077e+00 1.399979e+00 0.000000e+00
2.025067e+00 1.599981e+00 0.000000e+00
2.025058e+00 1.799982e+00 0.000000e+00
2.025053e+00 1.999981e+00 0.000000e+00
2.250000e+00 0.000000e+00 0.000000e+00
2.250029e+00 1.999943e-01 0.000000e+00
2.250051e+00 3.999910e-01 0.000000e+00
2.250066e+00 5.999898e-01 0.000000e+00
2.250074e+00 7.999903e-01 0.000000e+00
2.250076e+00 9.999923e-01 0.000000e+00
2.250073e+00 1.199995e+00 0.000000e+00
2.250067e+00 1.399998e+00 0.000000e+00
2.250061e+00 1.600001e+00 0.000000e+00
2.250057e+00 1.800003e+00 0.000000e+00
2.250058e+00 2.000003e+00 0.000000e+00
2.475000e+00 0.000000e+00 0.000000e+00
2.475024e+00 1.999972e-01 0.000000e+00
2.475043e+00 3.999967e-01 0.000000e+00
2.475055e+00 5.999981e-01 0.000000e+00
2.475061e+00 8.000010e-01 0.000000e+00
2.475063e+00 1.000005e+00 0.000000e+00
2.475061e+00 1.200009e+00 0.000000e+00
2.475057e+00 1.400013e+00 0.000000e+00
2.475053e+00 1.600016e+00 0.000000e+00
2.475053e+00 1.800019e+00 0.000000e+00
2.475058e+00 2.000020e+00 0.000000e+00
2.700000e+00 0.000000e+00 0.000000e+00
2.700020e+00 1.999999e-01 0.000000e+00
2.700035e+00 4.000018e-01 0.000000e+00
2.700044e+00 6.000055e-01 0.000000e+00
2.700049e+00 8.000104e-01 0.000000e+00
2.700050e+00 1.000016e+00 0.000000e+00
2.700049e+00 1.200021e+00 0.000000e+00
2.700046e+00 1.400026e+00 0.000000e+00
2.700044e+00 1.600030e+00 0.000000e+00
2.700046e+00 1.800033e+00 0.000000e+00
2.700053e+00 2.000035e+00 0.000000e+00
2.925000e+00 0.000000e+00 0.000000e+00
2.925016e+00 2.000026e-01 0.000000e+00
2.925027e+00 4.000072e-01 0.000000e+00
2.925034e+00 6.000133e-01 0.000000e+00
2.925037e+00 8.000201e-01 0.000000e+00
2.925038e+00 1.000027e+00 0.000000e+00
2.925037e+00 1.200033e+00 0.000000e+00
2.925035e+00 1.400039e+00 0.000000e+00
2.925035e+00 1.600043e+00 0.000000e+00
2.925037e+00 1.800046e+00 0.000000e+00
2.925043e+00 2.000050e+00 0.000000e+00
3.150000e+00 0.000000e+00 0.000000e+00
3.150013e+00 2.000061e-01 0.000000e+00
3.150020e+00 4.000140e-01 0.000000e+00
3.150024e+00 6.000229e-01 0.000000e+00
3.150025e+00 8.000318e-01 0.000000e+00
3.150026e+00 1.000040e+00 0.000000e+00
3.150025e+00 1.200047e+00 0.000000e+00
3.150024e+00 1.400054e+00 0.000000e+00
3.150024e+00 1.600058e+00 0.000000e+00
3.150026e+00 1.800062e+00 0.000000e+00
3.150030e+00 2.000066e+00 0.000000e+00
3.375000e+00 0.000000e+00 0.000000e+00
3.375009e+00 2.000110e-01 0.000000e+00
3.375011e+00 4.000241e-01 0.000000e+00
3.375012e+00 6.000365e-01 0.000000e+00
3.375013e+00 8.000476e-01 0.000000e+00
3.375013e+00 1.000057e+00 0.000000e+00
3.375013e+00 1.200065e+00 0.000000e+00
3.375012e+00 1.400072e+00 0.000000e+00
3.375012e+00 1.600077e+00 0.000000e+00
3.375013e+00 1.800081e+00 0.000000e+00
3.375015e+00 2.000085e+00 0.000000e+00
3.600000e+00 0.000000e+00 0.000000e+00
3.600000e+00 2.000252e-01 0.000000e+00
3.600000e+00 4.000431e-01 0.000000e+00
3.600000e+00 6.000573e-01 0.000000e+00
3.600000e+00 8.000692e-01 0.000000e+00
3.600000e+00 1.000079e+00 0.000000e+00
3.600000e+00 1.200088e+00 0.000000e+00
3.600000e+00 1.400094e+00 0.000000e+00
3.600000e+00 1.600100e+00 0.000000e+00
3.600000e+00 1.800104e+00 0.000000e+00
3.600000e+00 2.000108e+00 0.000000e+00
</DataArray>
</Points>
<Cells>
<DataArray Name="connectivity" type="Int32" format="ascii">
0 11 12 1
1 12 13 2
2 13 14 3
3 14 15 4
4 15 16 5
5 16 17 6
6 17 18 7
7 18 19 8
8 19 20 9
9 20 21 10
11 22 23 12
12 23 24 13
13 24 25 14
14 25 26 15
15 26 27 16
16 27 28 17
17 28 29 18
18 29 30 19
19 30 31 20
20 31 32 21
22 33 34 23
23 34 35 24
24 35 36 25
25 36 37 26
26 37 38 27
27 38 39 28
28 39 40 29
29 40 41 30
30 41 42 31
31 42 43 32
33 44 45 34
34 45 46 35
35 46 47 36
36 47 48 37
37 48 49 38
38 49 50 39
39 50 51 40
40 51 52 41
41 52 53 42
42 53 54 43
44 55 56 45
45 56 57 46
46 57 58 47
47 58 59 48
48 59 60 49
49 60 61 50
50 61 62 51
51 62 63 52
52 63 64 53
53 64 65 54
55 66 67 56
56 67 68 57
57 68 69 58
58 69 70 59
59 70 71 60
60 71 72 61
61 72 73 62
62 73 74 63
63 74 75 64
64 75 76 65
66 77 78 67
67 78 79 68
68 79 80 69
69 80 81 70
70 81 82 71
71 82 83 72
72 83 84 73
73 84 85 74
74 85 86 75
75 86 87 76
77 88 89 78
78 89 90 79
79 90 91 80
80 91 92 81
81 92 93 82
82 93 94 83
83 94 95 84
84 95 96 85
85 96 97 86
86 97 98 87
88 99 100 89
89 100 101 90
90 101 102 91
91 102 103 92
92 103 104 93
93 104 105 94
94 105 106 95
95 106 107 96
96 107 108 97
97 108 109 98
99 110 111 100
100 111 112 101
101 112 113 102
102 113 114 103
103 114 115 104
104 115 116 105
105 116 117 106
106 117 118 107
107 118 119 108
108 119 120 109
110 121 122 111
111 122 123 112
112 123 124 113
113 124 125 114
114 125 126 115
115 126 127 116
116 127 128 117
117 128 129 118
118 129 130 119
119 130 131 120
121 132 133 122
122 133 134 123
123 134 135 124
124 135 136 125
125 136 137 126
126 137 138 127
127 138 139 128
128 139 140 129
129 140 141 130
130 141 142 131
132 143 144 133
133 144 145 134
134 145 146 135
135 146 147 136
136 147 148 137
137 148 149 138
138 149 150 139
139 150 151 140
140 151 152 141
141 152 153 142
143 154 155 144
144 155 156 145
145 156 157 146
146 157 158 147
147 158 159 148
148 159 160 149
149 160 161 150
150 161 162 151
151 162 163 152
152 163 164 153
154 165 166 155
155 166 167 156
156 167 168 157
157 168 169 158
158 169 170 159
159 170 171 160
160 171 172 161
161 172 173 162
162 173 174 163
163 174 175 164
165 176 177 166
166 177 178 167
167 178 179 168
168 179 180 169
169 180 181 170
170 181 182 171
171 182 183 172
172 183 184 173
173 184 185 174
174 185 186 175
</DataArray>
<DataArray Name="offsets" type="Int32" format="ascii">
4
8
12
16
20
24
28
32
36
40
44
48
52
56
60
64
68
72
76
80
84
88
92
96
100
104
108
112
116
120
124
128
132
136
140
144
148
152
156
160
164
168
172
176
180
184
188
192
196
200
204
208
212
216
220
224
228
232
236
240
244
248
252
256
260
264
268
272
276
280
284
288
292
296
300
304
308
312
316
320
324
328
332
336
340
344
348
352
356
360
364
368
372
376
380
384
388
392
396
400
404
408
412
416
420
424
428
432
436
440
444
448
452
456
460
464
468
472
476
480
484
488
492
496
500
504
508
512
516
520
524
528
532
536
540
544
548
552
556
560
564
568
572
576
580
584
588
592
596
600
604
608
612
616
620
624
628
632
636
640
</DataArray>
<DataArray Name="types" type="UInt8" format="ascii">
9
9
9
9
9
9
9
9
9
9
9
9
9
9
9
9
9
9
9
9
9
9
9
9
9
9
9
9
9
9
9
9
9
9
9
9
9
9
9
9
9
9
9
9
9
9
9
9
9
9
9
9
9
9
9
9
9
9
9
9
9
9
9
9
9
9
9
9
9
9
9
9
9
9
9
9
9
9
9
9
9
9
9
9
9
9
9
9
9
9
9
9
9
9
9
9
9
9
9
9
9
9
9
9
9
9
9
9
9
9
9
9
9
9
9
9
9
9
9
9
9
9
9
9
9
9
9
9
9
9
9
9
9
9
9
9
9
9
9
9
9
9
9
9
9
9
9
9
9
9
9
9
9
9
9
9
9
9
9
9
</DataArray>
</Cells>
<PointData>
<DataArray Name="disp" type="Float64" NumberOfComponents="3" format="ascii">
0.000000e+00 0.000000e+00 0.000000e+00
0.000000e+00 -9.861680e-05 0.000000e+00
0.000000e+00 -1.970892e-04 0.000000e+00
0.000000e+00 -2.982921e-04 0.000000e+00
0.000000e+00 -4.043255e-04 0.000000e+00
0.000000e+00 -5.168947e-04 0.000000e+00
0.000000e+00 -6.374290e-04 0.000000e+00
0.000000e+00 -7.659325e-04 0.000000e+00
0.000000e+00 -8.976107e-04 0.000000e+00
0.000000e+00 -1.018299e-03 0.000000e+00
0.000000e+00 -1.125000e-03 0.000000e+00
0.000000e+00 0.000000e+00 0.000000e+00
1.965558e-05 -8.206409e-05 0.000000e+00
3.014957e-05 -1.727131e-04 0.000000e+00
3.793844e-05 -2.686698e-04 0.000000e+00
4.418916e-05 -3.699040e-04 0.000000e+00
4.915348e-05 -4.774559e-04 0.000000e+00
5.227280e-05 -5.929536e-04 0.000000e+00
5.110339e-05 -7.178414e-04 0.000000e+00
3.960426e-05 -8.530805e-04 0.000000e+00
1.000297e-05 -9.951156e-04 0.000000e+00
0.000000e+00 -1.125000e-03 0.000000e+00
0.000000e+00 0.000000e+00 0.000000e+00
3.300941e-05 -7.204685e-05 0.000000e+00
5.487209e-05 -1.502542e-04 0.000000e+00
7.034277e-05 -2.340627e-04 0.000000e+00
8.231043e-05 -3.226116e-04 0.000000e+00
9.167706e-05 -4.160679e-04 0.000000e+00
9.791194e-05 -5.153265e-04 0.000000e+00
9.842411e-05 -6.227480e-04 0.000000e+00
8.823518e-05 -7.445285e-04 0.000000e+00
5.531167e-05 -9.005667e-04 0.000000e+00
0.000000e+00 -1.125000e-03 0.000000e+00
0.000000e+00 0.000000e+00 0.000000e+00
4.239256e-05 -6.119632e-05 0.000000e+00
7.220730e-05 -1.263415e-04 0.000000e+00
9.377660e-05 -1.948507e-04 0.000000e+00
1.098583e-04 -2.660047e-04 0.000000e+00
1.216855e-04 -3.389811e-04 0.000000e+00
1.288790e-04 -4.129536e-04 0.000000e+00
1.293161e-04 -4.866692e-04 0.000000e+00
1.170050e-04 -5.570169e-04 0.000000e+00
8.373655e-05 -6.101903e-04 0.000000e+00
-8.265382e-05 -5.907690e-04 0.000000e+00
0.000000e+00 0.000000e+00 0.000000e+00
4.776594e-05 -4.974700e-05 0.000000e+00
8.216951e-05 -1.012015e-04 0.000000e+00
1.070856e-04 -1.537676e-04 0.000000e+00
1.248998e-04 -2.064447e-04 0.000000e+00
1.365582e-04 -2.576705e-04 0.000000e+00
1.413775e-04 -3.052678e-04 0.000000e+00
1.362117e-04 -3.457433e-04 0.000000e+00
1.140988e-04 -3.731256e-04 0.000000e+00
5.040594e-05 -3.784427e-04 0.000000e+00
-6.467062e-05 -3.868880e-04 0.000000e+00
0.000000e+00 0.000000e+00 0.000000e+00
4.936248e-05 -3.880546e-05 0.000000e+00
8.533940e-05 -7.730640e-05 0.000000e+00
1.110913e-04 -1.150902e-04 0.000000e+00
1.284661e-04 -1.510818e-04 0.000000e+00
1.380369e-04 -1.837677e-04 0.000000e+00
1.387427e-04 -2.109806e-04 0.000000e+00
1.274893e-04 -2.300859e-04 0.000000e+00
9.742327e-05 -2.389103e-04 0.000000e+00
4.206663e-05 -2.420149e-04 0.000000e+00
-3.163006e-05 -2.461269e-04 0.000000e+00
0.000000e+00 0.000000e+00 0.000000e+00
4.796945e-05 -2.891295e-05 0.000000e+00
8.314478e-05 -5.624210e-05 0.000000e+00
1.078895e-04 -8.171244e-05 0.000000e+00
1.235552e-04 -1.045870e-04 0.000000e+00
1.304766e-04 -1.236977e-04 0.000000e+00
1.279013e-04 -1.377448e-04 0.000000e+00
1.137439e-04 -1.458922e-04 0.000000e+00
8.556909e-05 -1.492394e-04 0.000000e+00
4.414733e-05 -1.506423e-04 0.000000e+00
-1.651156e-06 -1.552058e-04 0.000000e+00
0.000000e+00 0.000000e+00 0.000000e+00
4.436868e-05 -2.075975e-05 0.000000e+00
7.711937e-05 -3.915190e-05 0.000000e+00
9.972951e-05 -5.520378e-05 0.000000e+00
1.132243e-04 -6.850919e-05 0.000000e+00
1.180821e-04 -7.848522e-05 0.000000e+00
1.139040e-04 -8.486501e-05 0.000000e+00
1.004224e-04 -8.794896e-05 0.000000e+00
7.778883e-05 -8.883733e-05 0.000000e+00
4.952370e-05 -8.958657e-05 0.000000e+00
2.281154e-05 -9.286081e-05 0.000000e+00
0.000000e+00 0.000000e+00 0.000000e+00
3.955553e-05 -1.437071e-05 0.000000e+00
6.889515e-05 -2.604575e-05 0.000000e+00
8.894016e-05 -3.528230e-05 0.000000e+00
1.003486e-04 -4.214410e-05 0.000000e+00
1.038417e-04 -4.658631e-05 0.000000e+00
9.964212e-05 -4.853791e-05 0.000000e+00
8.838154e-05 -4.852457e-05 0.000000e+00
7.219556e-05 -4.776027e-05 0.000000e+00
5.446563e-05 -4.769990e-05 0.000000e+00
4.080566e-05 -4.987077e-05 0.000000e+00
0.000000e+00 0.000000e+00 0.000000e+00
3.431140e-05 -9.506603e-06 0.000000e+00
5.991181e-05 -1.632926e-05 0.000000e+00
7.717830e-05 -2.091505e-05 0.000000e+00
8.680350e-05 -2.344207e-05 0.000000e+00
8.952087e-05 -2.401151e-05 0.000000e+00
8.597183e-05 -2.303710e-05 0.000000e+00
7.742955e-05 -2.111557e-05 0.000000e+00
6.666775e-05 -1.908073e-05 0.000000e+00
5.748487e-05 -1.818416e-05 0.000000e+00
5.255873e-05 -1.920828e-05 0.000000e+00
0.000000e+00 0.000000e+00 0.000000e+00
2.914932e-05 -5.713483e-06 0.000000e+00
5.096499e-05 -9.002813e-06 0.000000e+00
6.562818e-05 -1.024645e-05 0.000000e+00
7.358315e-05 -9.716545e-06 0.000000e+00
7.575670e-05 -7.750521e-06 0.000000e+00
7.311474e-05 -4.898773e-06 0.000000e+00
6.695831e-05 -1.817517e-06 0.000000e+00
6.056525e-05 9.426516e-07 0.000000e+00
5.708153e-05 2.648575e-06 0.000000e+00
5.829606e-05 2.940150e-06 0.000000e+00
0.000000e+00 0.000000e+00 0.000000e+00
2.435971e-05 -2.801674e-06 0.000000e+00
4.253699e-05 -3.315582e-06 0.000000e+00
5.463333e-05 -1.909322e-06 0.000000e+00
6.100563e-05 9.719590e-07 0.000000e+00
6.272156e-05 4.788070e-06 0.000000e+00
6.083176e-05 8.975526e-06 0.000000e+00
5.666939e-05 1.290402e-05 0.000000e+00
5.299816e-05 1.623208e-05 0.000000e+00
5.338926e-05 1.871405e-05 0.000000e+00
5.809092e-05 2.015455e-05 0.000000e+00
0.000000e+00 0.000000e+00 0.000000e+00
2.008749e-05 -1.486844e-07 0.000000e+00
3.473193e-05 1.812080e-06 0.000000e+00
4.423912e-05 5.534883e-06 0.000000e+00
4.902489e-05 1.035819e-05 0.000000e+00
5.021354e-05 1.570715e-05 0.000000e+00
4.888939e-05 2.098800e-05 0.000000e+00
4.636732e-05 2.567555e-05 0.000000e+00
4.434678e-05 2.958090e-05 0.000000e+00
4.629378e-05 3.273616e-05 0.000000e+00
5.274378e-05 3.511369e-05 0.000000e+00
0.000000e+00 0.000000e+00 0.000000e+00
1.624472e-05 2.546547e-06 0.000000e+00
2.748777e-05 7.198116e-06 0.000000e+00
3.410608e-05 1.330696e-05 0.000000e+00
3.726458e-05 2.009064e-05 0.000000e+00
3.793363e-05 2.689853e-05 0.000000e+00
3.698995e-05 3.319636e-05 0.000000e+00
3.546151e-05 3.862284e-05 0.000000e+00
3.470872e-05 4.300757e-05 0.000000e+00
3.683433e-05 4.647500e-05 0.000000e+00
4.318963e-05 4.955105e-05 0.000000e+00
0.000000e+00 0.000000e+00 0.000000e+00
1.267536e-05 6.119175e-06 0.000000e+00
1.991124e-05 1.400284e-05 0.000000e+00
2.365991e-05 2.291027e-05 0.000000e+00
2.532853e-05 3.185498e-05 0.000000e+00
2.556067e-05 4.014820e-05 0.000000e+00
2.486143e-05 4.741763e-05 0.000000e+00
2.405533e-05 5.344268e-05 0.000000e+00
2.399931e-05 5.819882e-05 0.000000e+00
2.578117e-05 6.203415e-05 0.000000e+00
3.034078e-05 6.566757e-05 0.000000e+00
0.000000e+00 0.000000e+00 0.000000e+00
8.476081e-06 1.096073e-05 0.000000e+00
1.092375e-05 2.408570e-05 0.000000e+00
1.227062e-05 3.649380e-05 0.000000e+00
1.288550e-05 4.758213e-05 0.000000e+00
1.288381e-05 5.716753e-05 0.000000e+00
1.251710e-05 6.519404e-05 0.000000e+00
1.216438e-05 7.167867e-05 0.000000e+00
1.225358e-05 7.680529e-05 0.000000e+00
1.324134e-05 8.099811e-05 0.000000e+00
1.560024e-05 8.497881e-05 0.000000e+00
0.000000e+00 0.000000e+00 0.000000e+00
0.000000e+00 2.516058e-05 0.000000e+00
0.000000e+00 4.312642e-05 0.000000e+00
0.000000e+00 5.730813e-05 0.000000e+00
0.000000e+00 6.923542e-05 0.000000e+00
0.000000e+00 7.933176e-05 0.000000e+00
0.000000e+00 8.766689e-05 0.000000e+00
0.000000e+00 9.436723e-05 0.000000e+00
0.000000e+00 9.962017e-05 0.000000e+00
0.000000e+00 1.038835e-04 0.000000e+00
0.000000e+00 1.079446e-04 0.000000e+00
</DataArray>
<DataArray Name="shear" type="Float64" NumberOfComponents="1" format="ascii">
4.979215e-04
5.606200e-04
6.321106e-04
6.921337e-04
7.515456e-04
8.121369e-04
8.674857e-04
8.921030e-04
8.280725e-04
6.680951e-04
5.872290e-04
4.544171e-04
5.183286e-04
6.000878e-04
6.659529e-04
7.277340e-04
7.906053e-04
8.523648e-04
8.998482e-04
9.023618e-04
8.310644e-04
7.498910e-04
4.160069e-04
4.617540e-04
5.319171e-04
5.972609e-04
6.596809e-04
7.243536e-04
7.947840e-04
8.750412e-04
9.766445e-04
1.073733e-03
1.073187e-03
3.883365e-04
4.158221e-04
4.588178e-04
5.078289e-04
5.591232e-04
6.135448e-04
6.732448e-04
7.397602e-04
8.137486e-04
7.666086e-04
7.840003e-04
3.582154e-04
3.697088e-04
3.866118e-04
4.142118e-04
4.467013e-04
4.809974e-04
5.135774e-04
5.357111e-04
5.093301e-04
3.561208e-04
2.084950e-04
3.248341e-04
3.239700e-04
3.194567e-04
3.270789e-04
3.400990e-04
3.531302e-04
3.592636e-04
3.445465e-04
2.834830e-04
1.818484e-04
1.741343e-04
2.888644e-04
2.800891e-04
2.611684e-04
2.535159e-04
2.512040e-04
2.487539e-04
2.389091e-04
2.114265e-04
1.602600e-04
1.223579e-04
1.493530e-04
2.518909e-04
2.390405e-04
2.128677e-04
1.961542e-04
1.847288e-04
1.736848e-04
1.579281e-04
1.324125e-04
9.882775e-05
9.517949e-05
1.279209e-04
2.159811e-04
2.021753e-04
1.746848e-04
1.547972e-04
1.401416e-04
1.273223e-04
1.124555e-04
9.332088e-05
7.256536e-05
8.139396e-05
1.086931e-04
1.826347e-04
1.700843e-04
1.452557e-04
1.269223e-04
1.141598e-04
1.038906e-04
9.207583e-05
7.762782e-05
6.468074e-05
7.491439e-05
9.461986e-05
1.526074e-04
1.423959e-04
1.228240e-04
1.092531e-04
1.007308e-04
9.382783e-05
8.459706e-05
7.350726e-05
6.628704e-05
7.608062e-05
8.959122e-05
1.265748e-04
1.193518e-04
1.063969e-04
9.914792e-05
9.531183e-05
9.139565e-05
8.426445e-05
7.552744e-05
7.378840e-05
8.510370e-05
9.490109e-05
1.048910e-04
1.013496e-04
9.593361e-05
9.568512e-05
9.613586e-05
9.423439e-05
8.871104e-05
8.203454e-05
8.280178e-05
9.589544e-05
1.054084e-04
8.815603e-05
8.953045e-05
9.288687e-05
9.950136e-05
1.031152e-04
1.019646e-04
9.736340e-05
9.241404e-05
9.342695e-05
1.060122e-04
1.162897e-04
7.856223e-05
8.677346e-05
1.014031e-04
1.128277e-04
1.166460e-04
1.147102e-04
1.100196e-04
1.059555e-04
1.069581e-04
1.170882e-04
1.262222e-04
8.935006e-05
1.113912e-04
1.291026e-04
1.361003e-04
1.359700e-04
1.318695e-04
1.263658e-04
1.221891e-04
1.219832e-04
1.281058e-04
1.345262e-04
1.199631e-04
1.411571e-04
1.494709e-04
1.498096e-04
1.468943e-04
1.417639e-04
1.358436e-04
1.310152e-04
1.290666e-04
1.319495e-04
1.364149e-04
</DataArray>
<DataArray Name="stress" type="Float64" NumberOfComponents="9" format="ascii">
-6.149861e+04 -2.616500e+02 0.000000e+00 -2.616500e+02 -6.511200e+04 0.000000e+00 0.000000e+00 0.000000e+00 0.000000e+00
-6.095140e+04 -1.455858e+02 0.000000e+00 -1.455858e+02 -6.497995e+04 0.000000e+00 0.000000e+00 0.000000e+00 0.000000e+00
-6.044390e+04 -4.831710e+01 0.000000e+00 -4.831710e+01 -6.494906e+04 0.000000e+00 0.000000e+00 0.000000e+00 0.000000e+00
-6.013963e+04 2.161944e+01 0.000000e+00 2.161944e+01 -6.504648e+04 0.000000e+00 0.000000e+00 0.000000e+00 0.000000e+00
-5.995070e+04 8.451106e+01 0.000000e+00 8.451106e+01 -6.525516e+04 0.000000e+00 0.000000e+00 0.000000e+00 0.000000e+00
-5.986302e+04 1.473471e+02 0.000000e+00 1.473471e+02 -6.557114e+04 0.000000e+00 0.000000e+00 0.000000e+00 0.000000e+00
-5.990112e+04 2.050481e+02 0.000000e+00 2.050481e+02 -6.598438e+04 0.000000e+00 0.000000e+00 0.000000e+00 0.000000e+00
-6.015229e+04 2.108277e+02 0.000000e+00 2.108277e+02 -6.642524e+04 0.000000e+00 0.000000e+00 0.000000e+00 0.000000e+00
-6.078083e+04 5.618180e+01 0.000000e+00 5.618180e+01 -6.668341e+04 0.000000e+00 0.000000e+00 0.000000e+00 0.000000e+00
-6.173427e+04 -2.160376e+02 0.000000e+00 -2.160376e+02 -6.659540e+04 0.000000e+00 0.000000e+00 0.000000e+00 0.000000e+00
-6.208864e+04 -3.883459e+02 0.000000e+00 -3.883459e+02 -6.639657e+04 0.000000e+00 0.000000e+00 0.000000e+00 0.000000e+00
-6.135675e+04 -7.354594e+01 0.000000e+00 -7.354594e+01 -6.456391e+04 0.000000e+00 0.000000e+00 0.000000e+00 0.000000e+00
-6.092296e+04 -1.968541e+01 0.000000e+00 -1.968541e+01 -6.457298e+04 0.000000e+00 0.000000e+00 0.000000e+00 0.000000e+00
-6.047848e+04 4.208573e+01 0.000000e+00 4.208573e+01 -6.469836e+04 0.000000e+00 0.000000e+00 0.000000e+00 0.000000e+00
-6.018786e+04 1.360478e+02 0.000000e+00 1.360478e+02 -6.483816e+04 0.000000e+00 0.000000e+00 0.000000e+00 0.000000e+00
-6.000760e+04 2.422277e+02 0.000000e+00 2.422277e+02 -6.504766e+04 0.000000e+00 0.000000e+00 0.000000e+00 0.000000e+00
-5.992460e+04 3.570135e+02 0.000000e+00 3.570135e+02 -6.535149e+04 0.000000e+00 0.000000e+00 0.000000e+00 0.000000e+00
-5.995606e+04 4.666508e+02 0.000000e+00 4.666508e+02 -6.576645e+04 0.000000e+00 0.000000e+00 0.000000e+00 0.000000e+00
-6.015936e+04 5.119109e+02 0.000000e+00 5.119109e+02 -6.630320e+04 0.000000e+00 0.000000e+00 0.000000e+00 0.000000e+00
-6.064401e+04 3.460483e+02 0.000000e+00 3.460483e+02 -6.693860e+04 0.000000e+00 0.000000e+00 0.000000e+00 0.000000e+00
-6.154134e+04 -1.004014e+01 0.000000e+00 -1.004014e+01 -6.751716e+04 0.000000e+00 0.000000e+00 0.000000e+00 0.000000e+00
-6.236116e+04 -4.096629e+02 0.000000e+00 -4.096629e+02 -6.785580e+04 0.000000e+00 0.000000e+00 0.000000e+00 0.000000e+00
-6.122112e+04 1.407640e+02 0.000000e+00 1.407640e+02 -6.395394e+04 0.000000e+00 0.000000e+00 0.000000e+00 0.000000e+00
-6.092075e+04 1.541146e+02 0.000000e+00 1.541146e+02 -6.399918e+04 0.000000e+00 0.000000e+00 0.000000e+00 0.000000e+00
-6.056522e+04 1.934907e+02 0.000000e+00 1.934907e+02 -6.415142e+04 0.000000e+00 0.000000e+00 0.000000e+00 0.000000e+00
-6.031754e+04 3.158955e+02 0.000000e+00 3.158955e+02 -6.429924e+04 0.000000e+00 0.000000e+00 0.000000e+00 0.000000e+00
-6.016595e+04 4.894211e+02 0.000000e+00 4.894211e+02 -6.446809e+04 0.000000e+00 0.000000e+00 0.000000e+00 0.000000e+00
-6.010276e+04 7.008149e+02 0.000000e+00 7.008149e+02 -6.469044e+04 0.000000e+00 0.000000e+00 0.000000e+00 0.000000e+00
-6.013443e+04 9.392488e+02 0.000000e+00 9.392488e+02 -6.500557e+04 0.000000e+00 0.000000e+00 0.000000e+00 0.000000e+00
-6.028658e+04 1.186291e+03 0.000000e+00 1.186291e+03 -6.549629e+04 0.000000e+00 0.000000e+00 0.000000e+00 0.000000e+00
-6.065077e+04 1.406320e+03 0.000000e+00 1.406320e+03 -6.641273e+04 0.000000e+00 0.000000e+00 0.000000e+00 0.000000e+00
-6.192519e+04 1.642881e+03 0.000000e+00 1.642881e+03 -6.818579e+04 0.000000e+00 0.000000e+00 0.000000e+00 0.000000e+00
-6.423686e+04 1.997602e+03 0.000000e+00 1.997602e+03 -6.981009e+04 0.000000e+00 0.000000e+00 0.000000e+00 0.000000e+00
-6.107533e+04 2.925891e+02 0.000000e+00 2.925891e+02 -6.335427e+04 0.000000e+00 0.000000e+00 0.000000e+00 0.000000e+00
-6.087883e+04 3.027753e+02 0.000000e+00 3.027753e+02 -6.338450e+04 0.000000e+00 0.000000e+00 0.000000e+00 0.000000e+00
-6.064499e+04 3.275805e+02 0.000000e+00 3.275805e+02 -6.348475e+04 0.000000e+00 0.000000e+00 0.000000e+00 0.000000e+00
-6.047761e+04 4.447438e+02 0.000000e+00 4.447438e+02 -6.357051e+04 0.000000e+00 0.000000e+00 0.000000e+00 0.000000e+00
-6.038467e+04 6.310331e+02 0.000000e+00 6.310331e+02 -6.364187e+04 0.000000e+00 0.000000e+00 0.000000e+00 0.000000e+00
-6.036769e+04 8.720834e+02 0.000000e+00 8.720834e+02 -6.370016e+04 0.000000e+00 0.000000e+00 0.000000e+00 0.000000e+00
-6.042902e+04 1.162087e+03 0.000000e+00 1.162087e+03 -6.374118e+04 0.000000e+00 0.000000e+00 0.000000e+00 0.000000e+00
-6.057477e+04 1.500364e+03 0.000000e+00 1.500364e+03 -6.373672e+04 0.000000e+00 0.000000e+00 0.000000e+00 0.000000e+00
-6.083650e+04 1.911084e+03 0.000000e+00 1.911084e+03 -6.354956e+04 0.000000e+00 0.000000e+00 0.000000e+00 0.000000e+00
-6.121930e+04 1.990367e+03 0.000000e+00 1.990367e+03 -6.257072e+04 0.000000e+00 0.000000e+00 0.000000e+00 0.000000e+00
-6.175980e+04 2.109455e+03 0.000000e+00 2.109455e+03 -6.190970e+04 0.000000e+00 0.000000e+00 0.000000e+00 0.000000e+00
-6.091772e+04 3.825615e+02 0.000000e+00 3.825615e+02 -6.273391e+04 0.000000e+00 0.000000e+00 0.000000e+00 0.000000e+00
-6.082274e+04 3.863489e+02 0.000000e+00 3.863489e+02 -6.274458e+04 0.000000e+00 0.000000e+00 0.000000e+00 0.000000e+00
-6.070373e+04 3.925269e+02 0.000000e+00 3.925269e+02 -6.277566e+04 0.000000e+00 0.000000e+00 0.000000e+00 0.000000e+00
-6.062210e+04 4.811381e+02 0.000000e+00 4.811381e+02 -6.277918e+04 0.000000e+00 0.000000e+00 0.000000e+00 0.000000e+00
-6.059094e+04 6.309874e+02 0.000000e+00 6.309874e+02 -6.273925e+04 0.000000e+00 0.000000e+00 0.000000e+00 0.000000e+00
-6.061746e+04 8.218837e+02 0.000000e+00 8.218837e+02 -6.263405e+04 0.000000e+00 0.000000e+00 0.000000e+00 0.000000e+00
-6.070394e+04 1.030524e+03 0.000000e+00 1.030524e+03 -6.243176e+04 0.000000e+00 0.000000e+00 0.000000e+00 0.000000e+00
-6.084314e+04 1.214089e+03 0.000000e+00 1.214089e+03 -6.206457e+04 0.000000e+00 0.000000e+00 0.000000e+00 0.000000e+00
-6.100091e+04 1.218292e+03 0.000000e+00 1.218292e+03 -6.140086e+04 0.000000e+00 0.000000e+00 0.000000e+00 0.000000e+00
-6.076838e+04 7.336785e+02 0.000000e+00 7.336785e+02 -6.063267e+04 0.000000e+00 0.000000e+00 0.000000e+00 0.000000e+00
-5.960447e+04 2.105701e+02 0.000000e+00 2.105701e+02 -6.001555e+04 0.000000e+00 0.000000e+00 0.000000e+00 0.000000e+00
-6.076737e+04 4.067722e+02 0.000000e+00 4.067722e+02 -6.213970e+04 0.000000e+00 0.000000e+00 0.000000e+00 0.000000e+00
-6.075977e+04 4.029505e+02 0.000000e+00 4.029505e+02 -6.213272e+04 0.000000e+00 0.000000e+00 0.000000e+00 0.000000e+00
-6.073856e+04 3.859376e+02 0.000000e+00 3.859376e+02 -6.210642e+04 0.000000e+00 0.000000e+00 0.000000e+00 0.000000e+00
-6.072819e+04 4.322008e+02 0.000000e+00 4.322008e+02 -6.204549e+04 0.000000e+00 0.000000e+00 0.000000e+00 0.000000e+00
-6.074376e+04 5.195774e+02 0.000000e+00 5.195774e+02 -6.193051e+04 0.000000e+00 0.000000e+00 0.000000e+00 0.000000e+00
-6.079039e+04 6.217990e+02 0.000000e+00 6.217990e+02 -6.174126e+04 0.000000e+00 0.000000e+00 0.000000e+00 0.000000e+00
-6.085628e+04 7.015063e+02 0.000000e+00 7.015063e+02 -6.145654e+04 0.000000e+00 0.000000e+00 0.000000e+00 0.000000e+00
-6.089805e+04 6.937336e+02 0.000000e+00 6.937336e+02 -6.104934e+04 0.000000e+00 0.000000e+00 0.000000e+00 0.000000e+00
-6.077347e+04 5.073181e+02 0.000000e+00 5.073181e+02 -6.057798e+04 0.000000e+00 0.000000e+00 0.000000e+00 0.000000e+00
-6.007713e+04 1.634332e+02 0.000000e+00 1.634332e+02 -6.021345e+04 0.000000e+00 0.000000e+00 0.000000e+00 0.000000e+00
-5.914203e+04 -1.796108e+01 0.000000e+00 -1.796108e+01 -5.996426e+04 0.000000e+00 0.000000e+00 0.000000e+00 0.000000e+00
-6.062033e+04 3.809442e+02 0.000000e+00 3.809442e+02 -6.160415e+04 0.000000e+00 0.000000e+00 0.000000e+00 0.000000e+00
-6.067989e+04 3.686739e+02 0.000000e+00 3.686739e+02 -6.158612e+04 0.000000e+00 0.000000e+00 0.000000e+00 0.000000e+00
-6.073287e+04 3.277802e+02 0.000000e+00 3.277802e+02 -6.152323e+04 0.000000e+00 0.000000e+00 0.000000e+00 0.000000e+00
-6.077277e+04 3.306917e+02 0.000000e+00 3.306917e+02 -6.142971e+04 0.000000e+00 0.000000e+00 0.000000e+00 0.000000e+00
-6.081521e+04 3.546562e+02 0.000000e+00 3.546562e+02 -6.129221e+04 0.000000e+00 0.000000e+00 0.000000e+00 0.000000e+00
-6.085475e+04 3.754351e+02 0.000000e+00 3.754351e+02 -6.109683e+04 0.000000e+00 0.000000e+00 0.000000e+00 0.000000e+00
-6.086787e+04 3.603547e+02 0.000000e+00 3.603547e+02 -6.083979e+04 0.000000e+00 0.000000e+00 0.000000e+00 0.000000e+00
-6.079088e+04 2.741202e+02 0.000000e+00 2.741202e+02 -6.054413e+04 0.000000e+00 0.000000e+00 0.000000e+00 0.000000e+00
-6.048601e+04 1.079151e+02 0.000000e+00 1.079151e+02 -6.026878e+04 0.000000e+00 0.000000e+00 0.000000e+00 0.000000e+00
-5.981766e+04 -4.501639e+01 0.000000e+00 -4.501639e+01 -6.009045e+04 0.000000e+00 0.000000e+00 0.000000e+00 0.000000e+00
-5.915200e+04 -1.093501e+02 0.000000e+00 -1.093501e+02 -5.994718e+04 0.000000e+00 0.000000e+00 0.000000e+00 0.000000e+00
-6.048965e+04 3.224757e+02 0.000000e+00 3.224757e+02 -6.115968e+04 0.000000e+00 0.000000e+00 0.000000e+00 0.000000e+00
-6.059361e+04 3.040558e+02 0.000000e+00 3.040558e+02 -6.113615e+04 0.000000e+00 0.000000e+00 0.000000e+00 0.000000e+00
-6.069671e+04 2.461853e+02 0.000000e+00 2.461853e+02 -6.105734e+04 0.000000e+00 0.000000e+00 0.000000e+00 0.000000e+00
-6.076786e+04 2.154813e+02 0.000000e+00 2.154813e+02 -6.095905e+04 0.000000e+00 0.000000e+00 0.000000e+00 0.000000e+00
-6.081889e+04 1.919648e+02 0.000000e+00 1.919648e+02 -6.083000e+04 0.000000e+00 0.000000e+00 0.000000e+00 0.000000e+00
-6.083887e+04 1.615128e+02 0.000000e+00 1.615128e+02 -6.066597e+04 0.000000e+00 0.000000e+00 0.000000e+00 0.000000e+00
-6.080467e+04 1.016556e+02 0.000000e+00 1.016556e+02 -6.047999e+04 0.000000e+00 0.000000e+00 0.000000e+00 0.000000e+00
-6.065527e+04 7.676695e+00 0.000000e+00 7.676695e+00 -6.029086e+04 0.000000e+00 0.000000e+00 0.000000e+00 0.000000e+00
-6.031117e+04 -1.059997e+02 0.000000e+00 -1.059997e+02 -6.012876e+04 0.000000e+00 0.000000e+00 0.000000e+00 0.000000e+00
-5.978101e+04 -1.428569e+02 0.000000e+00 -1.428569e+02 -6.004251e+04 0.000000e+00 0.000000e+00 0.000000e+00 0.000000e+00
-5.930373e+04 -1.300535e+02 0.000000e+00 -1.300535e+02 -5.996209e+04 0.000000e+00 0.000000e+00 0.000000e+00 0.000000e+00
-6.038001e+04 2.448320e+02 0.000000e+00 2.448320e+02 -6.081300e+04 0.000000e+00 0.000000e+00 0.000000e+00 0.000000e+00
-6.050825e+04 2.215833e+02 0.000000e+00 2.215833e+02 -6.078905e+04 0.000000e+00 0.000000e+00 0.000000e+00 0.000000e+00
-6.063902e+04 1.561477e+02 0.000000e+00 1.561477e+02 -6.070780e+04 0.000000e+00 0.000000e+00 0.000000e+00 0.000000e+00
-6.072677e+04 1.057896e+02 0.000000e+00 1.057896e+02 -6.061750e+04 0.000000e+00 0.000000e+00 0.000000e+00 0.000000e+00
-6.077875e+04 5.226525e+01 0.000000e+00 5.226525e+01 -6.051230e+04 0.000000e+00 0.000000e+00 0.000000e+00 0.000000e+00
-6.078491e+04 -6.815573e+00 0.000000e+00 -6.815573e+00 -6.038977e+04 0.000000e+00 0.000000e+00 0.000000e+00 0.000000e+00
-6.072346e+04 -7.786749e+01 0.000000e+00 -7.786749e+01 -6.025909e+04 0.000000e+00 0.000000e+00 0.000000e+00 0.000000e+00
-6.055294e+04 -1.512876e+02 0.000000e+00 -1.512876e+02 -6.013902e+04 0.000000e+00 0.000000e+00 0.000000e+00 0.000000e+00
-6.023391e+04 -2.169294e+02 0.000000e+00 -2.169294e+02 -6.005127e+04 0.000000e+00 0.000000e+00 0.000000e+00 0.000000e+00
-5.984469e+04 -1.821600e+02 0.000000e+00 -1.821600e+02 -6.001736e+04 0.000000e+00 0.000000e+00 0.000000e+00 0.000000e+00
-5.951396e+04 -1.269316e+02 0.000000e+00 -1.269316e+02 -5.998132e+04 0.000000e+00 0.000000e+00 0.000000e+00 0.000000e+00
-6.028869e+04 1.639100e+02 0.000000e+00 1.639100e+02 -6.054862e+04 0.000000e+00 0.000000e+00 0.000000e+00 0.000000e+00
-6.042352e+04 1.429218e+02 0.000000e+00 1.429218e+02 -6.052565e+04 0.000000e+00 0.000000e+00 0.000000e+00 0.000000e+00
-6.056654e+04 7.728863e+01 0.000000e+00 7.728863e+01 -6.044943e+04 0.000000e+00 0.000000e+00 0.000000e+00 0.000000e+00
-6.066166e+04 1.012066e+01 0.000000e+00 1.012066e+01 -6.036954e+04 0.000000e+00 0.000000e+00 0.000000e+00 0.000000e+00
-6.071221e+04 -6.001196e+01 0.000000e+00 -6.001196e+01 -6.028376e+04 0.000000e+00 0.000000e+00 0.000000e+00 0.000000e+00
-6.071278e+04 -1.329989e+02 0.000000e+00 -1.329989e+02 -6.019811e+04 0.000000e+00 0.000000e+00 0.000000e+00 0.000000e+00
-6.064677e+04 -1.971206e+02 0.000000e+00 -1.971206e+02 -6.011349e+04 0.000000e+00 0.000000e+00 0.000000e+00 0.000000e+00
-6.049473e+04 -2.433905e+02 0.000000e+00 -2.433905e+02 -6.004396e+04 0.000000e+00 0.000000e+00 0.000000e+00 0.000000e+00
-6.023907e+04 -2.623765e+02 0.000000e+00 -2.623765e+02 -6.000618e+04 0.000000e+00 0.000000e+00 0.000000e+00 0.000000e+00
-5.996009e+04 -1.966147e+02 0.000000e+00 -1.966147e+02 -6.000354e+04 0.000000e+00 0.000000e+00 0.000000e+00 0.000000e+00
-5.974626e+04 -1.319067e+02 0.000000e+00 -1.319067e+02 -5.998928e+04 0.000000e+00 0.000000e+00 0.000000e+00 0.000000e+00
-6.021374e+04 8.836515e+01 0.000000e+00 8.836515e+01 -6.034558e+04 0.000000e+00 0.000000e+00 0.000000e+00 0.000000e+00
-6.034677e+04 6.476216e+01 0.000000e+00 6.476216e+01 -6.032380e+04 0.000000e+00 0.000000e+00 0.000000e+00 0.000000e+00
-6.048899e+04 -2.045752e+00 0.000000e+00 -2.045752e+00 -6.025289e+04 0.000000e+00 0.000000e+00 0.000000e+00 0.000000e+00
-6.058634e+04 -7.454048e+01 0.000000e+00 -7.454048e+01 -6.018407e+04 0.000000e+00 0.000000e+00 0.000000e+00 0.000000e+00
-6.063880e+04 -1.452081e+02 0.000000e+00 -1.452081e+02 -6.011811e+04 0.000000e+00 0.000000e+00 0.000000e+00 0.000000e+00
-6.064213e+04 -2.112139e+02 0.000000e+00 -2.112139e+02 -6.006247e+04 0.000000e+00 0.000000e+00 0.000000e+00 0.000000e+00
-6.058790e+04 -2.628979e+02 0.000000e+00 -2.628979e+02 -6.001738e+04 0.000000e+00 0.000000e+00 0.000000e+00 0.000000e+00
-6.046840e+04 -2.865970e+02 0.000000e+00 -2.865970e+02 -5.998734e+04 0.000000e+00 0.000000e+00 0.000000e+00 0.000000e+00
-6.027869e+04 -2.759097e+02 0.000000e+00 -2.759097e+02 -5.998111e+04 0.000000e+00 0.000000e+00 0.000000e+00 0.000000e+00
-6.009705e+04 -1.914164e+02 0.000000e+00 -1.914164e+02 -5.999170e+04 0.000000e+00 0.000000e+00 0.000000e+00 0.000000e+00
-5.997315e+04 -1.200554e+02 0.000000e+00 -1.200554e+02 -5.998745e+04 0.000000e+00 0.000000e+00 0.000000e+00 0.000000e+00
-6.015341e+04 1.739435e+01 0.000000e+00 1.739435e+01 -6.018489e+04 0.000000e+00 0.000000e+00 0.000000e+00 0.000000e+00
-6.027620e+04 -6.751736e+00 0.000000e+00 -6.751736e+00 -6.016163e+04 0.000000e+00 0.000000e+00 0.000000e+00 0.000000e+00
-6.041143e+04 -7.326160e+01 0.000000e+00 -7.326160e+01 -6.009443e+04 0.000000e+00 0.000000e+00 0.000000e+00 0.000000e+00
-6.050946e+04 -1.414282e+02 0.000000e+00 -1.414282e+02 -6.003611e+04 0.000000e+00 0.000000e+00 0.000000e+00 0.000000e+00
-6.057328e+04 -2.019781e+02 0.000000e+00 -2.019781e+02 -5.999296e+04 0.000000e+00 0.000000e+00 0.000000e+00 0.000000e+00
-6.058551e+04 -2.519269e+02 0.000000e+00 -2.519269e+02 -5.996322e+04 0.000000e+00 0.000000e+00 0.000000e+00 0.000000e+00
-6.054914e+04 -2.881237e+02 0.000000e+00 -2.881237e+02 -5.995030e+04 0.000000e+00 0.000000e+00 0.000000e+00 0.000000e+00
-6.046273e+04 -2.949806e+02 0.000000e+00 -2.949806e+02 -5.994903e+04 0.000000e+00 0.000000e+00 0.000000e+00 0.000000e+00
-6.034842e+04 -2.582290e+02 0.000000e+00 -2.582290e+02 -5.996194e+04 0.000000e+00 0.000000e+00 0.000000e+00 0.000000e+00
-6.024844e+04 -1.671712e+02 0.000000e+00 -1.671712e+02 -5.998145e+04 0.000000e+00 0.000000e+00 0.000000e+00 0.000000e+00
-6.018658e+04 -1.052001e+02 0.000000e+00 -1.052001e+02 -5.998607e+04 0.000000e+00 0.000000e+00 0.000000e+00 0.000000e+00
-6.010130e+04 -5.767694e+01 0.000000e+00 -5.767694e+01 -6.003943e+04 0.000000e+00 0.000000e+00 0.000000e+00 0.000000e+00
-6.021055e+04 -7.927514e+01 0.000000e+00 -7.927514e+01 -6.001582e+04 0.000000e+00 0.000000e+00 0.000000e+00 0.000000e+00
-6.033609e+04 -1.413543e+02 0.000000e+00 -1.413543e+02 -5.995788e+04 0.000000e+00 0.000000e+00 0.000000e+00 0.000000e+00
-6.044963e+04 -1.890196e+02 0.000000e+00 -1.890196e+02 -5.991354e+04 0.000000e+00 0.000000e+00 0.000000e+00 0.000000e+00
-6.052499e+04 -2.306132e+02 0.000000e+00 -2.306132e+02 -5.989073e+04 0.000000e+00 0.000000e+00 0.000000e+00 0.000000e+00
-6.054781e+04 -2.630380e+02 0.000000e+00 -2.630380e+02 -5.988583e+04 0.000000e+00 0.000000e+00 0.000000e+00 0.000000e+00
-6.052871e+04 -2.815285e+02 0.000000e+00 -2.815285e+02 -5.989752e+04 0.000000e+00 0.000000e+00 0.000000e+00 0.000000e+00
-6.047223e+04 -2.773366e+02 0.000000e+00 -2.773366e+02 -5.991806e+04 0.000000e+00 0.000000e+00 0.000000e+00 0.000000e+00
-6.041334e+04 -2.321358e+02 0.000000e+00 -2.321358e+02 -5.994451e+04 0.000000e+00 0.000000e+00 0.000000e+00 0.000000e+00
-6.038248e+04 -1.456938e+02 0.000000e+00 -1.456938e+02 -5.997451e+04 0.000000e+00 0.000000e+00 0.000000e+00 0.000000e+00
-6.036959e+04 -9.157465e+01 0.000000e+00 -9.157465e+01 -5.998712e+04 0.000000e+00 0.000000e+00 0.000000e+00 0.000000e+00
-6.005277e+04 -1.314490e+02 0.000000e+00 -1.314490e+02 -5.989084e+04 0.000000e+00 0.000000e+00 0.000000e+00 0.000000e+00
-6.015143e+04 -1.503247e+02 0.000000e+00 -1.503247e+02 -5.987250e+04 0.000000e+00 0.000000e+00 0.000000e+00 0.000000e+00
-6.028831e+04 -1.931473e+02 0.000000e+00 -1.931473e+02 -5.982677e+04 0.000000e+00 0.000000e+00 0.000000e+00 0.000000e+00
-6.041777e+04 -2.133231e+02 0.000000e+00 -2.133231e+02 -5.979702e+04 0.000000e+00 0.000000e+00 0.000000e+00 0.000000e+00
-6.049858e+04 -2.309862e+02 0.000000e+00 -2.309862e+02 -5.979714e+04 0.000000e+00 0.000000e+00 0.000000e+00 0.000000e+00
-6.052862e+04 -2.446454e+02 0.000000e+00 -2.446454e+02 -5.981798e+04 0.000000e+00 0.000000e+00 0.000000e+00 0.000000e+00
-6.052487e+04 -2.491206e+02 0.000000e+00 -2.491206e+02 -5.985244e+04 0.000000e+00 0.000000e+00 0.000000e+00 0.000000e+00
-6.049630e+04 -2.375981e+02 0.000000e+00 -2.375981e+02 -5.989371e+04 0.000000e+00 0.000000e+00 0.000000e+00 0.000000e+00
-6.046924e+04 -1.969484e+02 0.000000e+00 -1.969484e+02 -5.993500e+04 0.000000e+00 0.000000e+00 0.000000e+00 0.000000e+00
-6.048656e+04 -1.240673e+02 0.000000e+00 -1.240673e+02 -5.997137e+04 0.000000e+00 0.000000e+00 0.000000e+00 0.000000e+00
-6.051848e+04 -7.864287e+01 0.000000e+00 -7.864287e+01 -5.998973e+04 0.000000e+00 0.000000e+00 0.000000e+00 0.000000e+00
-6.000571e+04 -2.083494e+02 0.000000e+00 -2.083494e+02 -5.971754e+04 0.000000e+00 0.000000e+00 0.000000e+00 0.000000e+00
-6.011395e+04 -2.086653e+02 0.000000e+00 -2.086653e+02 -5.969504e+04 0.000000e+00 0.000000e+00 0.000000e+00 0.000000e+00
-6.028536e+04 -2.137648e+02 0.000000e+00 -2.137648e+02 -5.966365e+04 0.000000e+00 0.000000e+00 0.000000e+00 0.000000e+00
-6.041667e+04 -2.037486e+02 0.000000e+00 -2.037486e+02 -5.967068e+04 0.000000e+00 0.000000e+00 0.000000e+00 0.000000e+00
-6.049215e+04 -1.981921e+02 0.000000e+00 -1.981921e+02 -5.970544e+04 0.000000e+00 0.000000e+00 0.000000e+00 0.000000e+00
-6.052427e+04 -1.967074e+02 0.000000e+00 -1.967074e+02 -5.975638e+04 0.000000e+00 0.000000e+00 0.000000e+00 0.000000e+00
-6.052957e+04 -1.923272e+02 0.000000e+00 -1.923272e+02 -5.981430e+04 0.000000e+00 0.000000e+00 0.000000e+00 0.000000e+00
-6.052282e+04 -1.781744e+02 0.000000e+00 -1.781744e+02 -5.987454e+04 0.000000e+00 0.000000e+00 0.000000e+00 0.000000e+00
-6.052209e+04 -1.479260e+02 0.000000e+00 -1.479260e+02 -5.992909e+04 0.000000e+00 0.000000e+00 0.000000e+00 0.000000e+00
-6.056671e+04 -9.687539e+01 0.000000e+00 -9.687539e+01 -5.996926e+04 0.000000e+00 0.000000e+00 0.000000e+00 0.000000e+00
-6.062695e+04 -6.698270e+01 0.000000e+00 -6.698270e+01 -5.999201e+04 0.000000e+00 0.000000e+00 0.000000e+00 0.000000e+00
-5.993855e+04 -2.569401e+02 0.000000e+00 -2.569401e+02 -5.937449e+04 0.000000e+00 0.000000e+00 0.000000e+00 0.000000e+00
-6.011818e+04 -2.091814e+02 0.000000e+00 -2.091814e+02 -5.940715e+04 0.000000e+00 0.000000e+00 0.000000e+00 0.000000e+00
-6.031037e+04 -1.740273e+02 0.000000e+00 -1.740273e+02 -5.946331e+04 0.000000e+00 0.000000e+00 0.000000e+00 0.000000e+00
-6.043205e+04 -1.409156e+02 0.000000e+00 -1.409156e+02 -5.954524e+04 0.000000e+00 0.000000e+00 0.000000e+00 0.000000e+00
-6.049786e+04 -1.259546e+02 0.000000e+00 -1.259546e+02 -5.962772e+04 0.000000e+00 0.000000e+00 0.000000e+00 0.000000e+00
-6.052755e+04 -1.198472e+02 0.000000e+00 -1.198472e+02 -5.970857e+04 0.000000e+00 0.000000e+00 0.000000e+00 0.000000e+00
-6.053625e+04 -1.142980e+02 0.000000e+00 -1.142980e+02 -5.978622e+04 0.000000e+00 0.000000e+00 0.000000e+00 0.000000e+00
-6.054155e+04 -1.045050e+02 0.000000e+00 -1.045050e+02 -5.985933e+04 0.000000e+00 0.000000e+00 0.000000e+00 0.000000e+00
-6.056243e+04 -8.737408e+01 0.000000e+00 -8.737408e+01 -5.992234e+04 0.000000e+00 0.000000e+00 0.000000e+00 0.000000e+00
-6.062010e+04 -6.367468e+01 0.000000e+00 -6.367468e+01 -5.996754e+04 0.000000e+00 0.000000e+00 0.000000e+00 0.000000e+00
-6.068639e+04 -5.201212e+01 0.000000e+00 -5.201212e+01 -5.999303e+04 0.000000e+00 0.000000e+00 0.000000e+00 0.000000e+00
-5.981096e+04 -3.215689e+02 0.000000e+00 -3.215689e+02 -5.895330e+04 0.000000e+00 0.000000e+00 0.000000e+00 0.000000e+00
-6.008504e+04 -2.143129e+02 0.000000e+00 -2.143129e+02 -5.912907e+04 0.000000e+00 0.000000e+00 0.000000e+00 0.000000e+00
-6.032105e+04 -1.342414e+02 0.000000e+00 -1.342414e+02 -5.935282e+04 0.000000e+00 0.000000e+00 0.000000e+00 0.000000e+00
-6.044022e+04 -9.510922e+01 0.000000e+00 -9.510922e+01 -5.949138e+04 0.000000e+00 0.000000e+00 0.000000e+00 0.000000e+00
-6.050246e+04 -7.999156e+01 0.000000e+00 -7.999156e+01 -5.959729e+04 0.000000e+00 0.000000e+00 0.000000e+00 0.000000e+00
-6.053007e+04 -7.389578e+01 0.000000e+00 -7.389578e+01 -5.968999e+04 0.000000e+00 0.000000e+00 0.000000e+00 0.000000e+00
-6.053975e+04 -6.953150e+01 0.000000e+00 -6.953150e+01 -5.977509e+04 0.000000e+00 0.000000e+00 0.000000e+00 0.000000e+00
-6.054845e+04 -6.448286e+01 0.000000e+00 -6.448286e+01 -5.985305e+04 0.000000e+00 0.000000e+00 0.000000e+00 0.000000e+00
-6.057456e+04 -5.776056e+01 0.000000e+00 -5.776056e+01 -5.991979e+04 0.000000e+00 0.000000e+00 0.000000e+00 0.000000e+00
-6.063650e+04 -5.244687e+01 0.000000e+00 -5.244687e+01 -5.996781e+04 0.000000e+00 0.000000e+00 0.000000e+00 0.000000e+00
-6.070507e+04 -5.032876e+01 0.000000e+00 -5.032876e+01 -5.999366e+04 0.000000e+00 0.000000e+00 0.000000e+00 0.000000e+00
</DataArray>
<DataArray Name="vol_eps" type="Float64" NumberOfComponents="1" format="ascii">
-4.363760e-04
-3.918372e-04
-3.563025e-04
-3.422434e-04
-3.428824e-04
-3.572869e-04
-3.862373e-04
-4.309336e-04
-4.890613e-04
-5.466056e-04
-5.573243e-04
-3.913144e-04
-3.633553e-04
-3.421434e-04
-3.317954e-04
-3.329477e-04
-3.466064e-04
-3.750618e-04
-4.226969e-04
-4.953739e-04
-5.918444e-04
-6.679089e-04
-3.426971e-04
-3.257679e-04
-3.120581e-04
-3.049958e-04
-3.055580e-04
-3.152076e-04
-3.368411e-04
-3.775033e-04
-4.590766e-04
-6.541412e-04
-9.079407e-04
-2.945513e-04
-2.833703e-04
-2.740911e-04
-2.681207e-04
-2.660185e-04
-2.680254e-04
-2.739477e-04
-2.822187e-04
-2.847492e-04
-2.421119e-04
-2.286397e-04
-2.439948e-04
-2.383326e-04
-2.323927e-04
-2.269308e-04
-2.218047e-04
-2.161216e-04
-2.076305e-04
-1.910638e-04
-1.560526e-04
-9.008780e-05
2.933421e-05
-1.947503e-04
-1.937825e-04
-1.906646e-04
-1.858995e-04
-1.791955e-04
-1.693219e-04
-1.536796e-04
-1.284553e-04
-8.838996e-05
-1.674409e-05
6.418015e-05
-1.497130e-04
-1.527035e-04
-1.523713e-04
-1.490683e-04
-1.424706e-04
-1.314429e-04
-1.144465e-04
-8.902035e-05
-4.991995e-05
9.312543e-06
6.481168e-05
-1.115012e-04
-1.172823e-04
-1.193646e-04
-1.177257e-04
-1.122692e-04
-1.022599e-04
-8.695178e-05
-6.407915e-05
-2.974913e-05
1.598721e-05
5.401639e-05
-8.057402e-05
-8.779942e-05
-9.152762e-05
-9.159420e-05
-8.790316e-05
-7.974605e-05
-6.644202e-05
-4.723816e-05
-2.012926e-05
1.344601e-05
3.914907e-05
-5.613370e-05
-6.387632e-05
-6.866732e-05
-6.994986e-05
-6.751924e-05
-6.132717e-05
-5.114511e-05
-3.651865e-05
-1.710550e-05
5.786278e-06
2.286972e-05
-3.667339e-05
-4.436833e-05
-4.971285e-05
-5.175654e-05
-5.083442e-05
-4.703536e-05
-4.038251e-05
-3.072196e-05
-1.837129e-05
-4.170965e-06
6.481050e-06
-2.093646e-05
-2.795922e-05
-3.336036e-05
-3.638595e-05
-3.732415e-05
-3.613393e-05
-3.282396e-05
-2.737579e-05
-2.116292e-05
-1.436999e-05
-9.190542e-06
-6.719277e-06
-1.295810e-05
-1.857541e-05
-2.337559e-05
-2.654778e-05
-2.783426e-05
-2.747593e-05
-2.559018e-05
-2.362141e-05
-2.323654e-05
-2.264997e-05
7.973494e-06
2.116392e-06
-5.025225e-06
-1.226646e-05
-1.778479e-05
-2.144204e-05
-2.375800e-05
-2.506559e-05
-2.639673e-05
-2.989944e-05
-3.312149e-05
2.589885e-05
1.872915e-05
7.603744e-06
-2.597273e-06
-1.047497e-05
-1.646737e-05
-2.107343e-05
-2.500030e-05
-2.915963e-05
-3.490757e-05
-4.035739e-05
5.321343e-05
3.779406e-05
1.999066e-05
5.670703e-06
-4.938363e-06
-1.293910e-05
-1.921864e-05
-2.490929e-05
-3.093519e-05
-3.811726e-05
-4.436538e-05
8.957968e-05
5.874333e-05
2.712233e-05
9.101522e-06
-2.877971e-06
-1.159528e-05
-1.849018e-05
-2.479306e-05
-3.149924e-05
-3.918078e-05
-4.566841e-05
</DataArray>
</PointData>
</Piece>
</UnstructuredGrid>
</VTKFile>
