<?xml version="1.0"?>
<VTKFile type="UnstructuredGrid" version="0.1">
<UnstructuredGrid>
<FieldData>
<DataArray Name="TIME" type="Float64" format="ascii" NumberOfTuples="1">
0.000000e+00
</DataArray>
</FieldData>
<FieldData>
<DataArray Name="CYCLE" type="Int32" format="ascii" NumberOfTuples="1">
0
</DataArray>
</FieldData>
<Piece NumberOfPoints="187" NumberOfCells="160">
<Points>
<DataArray NumberOfComponents="3" type="Float64" format="ascii">
0.000000e+00 0.000000e+00 0.000000e+00
0.000000e+00 1.995156e-01 0.000000e+00
0.000000e+00 3.989539e-01 0.000000e+00
0.000000e+00 5.983126e-01 0.000000e+00
0.000000e+00 7.975811e-01 0.000000e+00
0.000000e+00 9.967491e-01 0.000000e+00
0.000000e+00 1.195818e+00 0.000000e+00
0.000000e+00 1.394816e+00 0.000000e+00
0.000000e+00 1.593819e+00 0.000000e+00
0.000000e+00 1.792940e+00 0.000000e+00
0.000000e+00 1.992125e+00 0.000000e+00
2.250000e-01 0.000000e+00 0.000000e+00
2.251218e-01 1.995403e-01 0.000000e+00
2.252179e-01 3.990029e-01 0.000000e+00
2.253017e-01 5.983917e-01 0.000000e+00
2.253777e-01 7.977014e-01 0.000000e+00
2.254418e-01 9.969205e-01 0.000000e+00
2.254771e-01 1.196043e+00 0.000000e+00
2.254507e-01 1.395074e+00 0.000000e+00
2.253183e-01 1.594041e+00 0.000000e+00
2.250755e-01 1.793007e+00 0.000000e+00
2.250000e-01 1.992125e+00 0.000000e+00
4.500000e-01 0.000000e+00 0.000000e+00
4.502230e-01 1.995803e-01 0.000000e+00
4.504008e-01 3.991035e-01 0.000000e+00
4.505501e-01 5.985726e-01 0.000000e+00
4.506829e-01 7.979901e-01 0.000000e+00
4.507971e-01 9.973511e-01 0.000000e+00
4.508737e-01 1.196643e+00 0.000000e+00
4.508766e-01 1.395843e+00 0.000000e+00
4.507625e-01 1.594892e+00 0.000000e+00
4.504799e-01 1.793671e+00 0.000000e+00
4.500000e-01 1.992125e+00 0.000000e+00
6.750000e-01 0.000000e+00 0.000000e+00
6.752950e-01 1.996366e-01 0.000000e+00
6.755266e-01 3.992409e-01 0.000000e+00
6.757149e-01 5.988188e-01 0.000000e+00
6.758719e-01 7.983762e-01 0.000000e+00
6.759974e-01 9.979229e-01 0.000000e+00
6.760790e-01 1.197472e+00 0.000000e+00
6.760952e-01 1.397042e+00 0.000000e+00
6.760049e-01 1.596666e+00 0.000000e+00
6.757592e-01 1.796439e+00 0.000000e+00
6.746122e-01 1.996665e+00 0.000000e+00
9.000000e-01 0.000000e+00 0.000000e+00
9.003343e-01 1.997017e-01 0.000000e+00
9.005899e-01 3.993932e-01 0.000000e+00
9.007902e-01 5.990812e-01 0.000000e+00
9.009447e-01 7.987748e-01 0.000000e+00
9.010518e-01 9.984865e-01 0.000000e+00
9.010990e-01 1.198233e+00 0.000000e+00
9.010617e-01 1.398036e+00 0.000000e+00
9.008992e-01 1.597921e+00 0.000000e+00
9.004560e-01 1.797925e+00 0.000000e+00
8.996421e-01 1.997877e+00 0.000000e+00
1.125000e+00 0.000000e+00 0.000000e+00
1.125343e+00 1.997676e-01 0.000000e+00
1.125600e+00 3.995408e-01 0.000000e+00
1.125793e+00 5.993241e-01 0.000000e+00
1.125930e+00 7.991251e-01 0.000000e+00
1.126009e+00 9.989540e-01 0.000000e+00
1.126018e+00 1.198822e+00 0.000000e+00
1.125938e+00 1.398740e+00 0.000000e+00
1.125725e+00 1.598716e+00 0.000000e+00
1.125332e+00 1.798721e+00 0.000000e+00
1.124796e+00 1.998714e+00 0.000000e+00
1.350000e+00 0.000000e+00 0.000000e+00
1.350328e+00 1.998267e-01 0.000000e+00
1.350571e+00 3.996681e-01 0.000000e+00
1.350748e+00 5.995258e-01 0.000000e+00
1.350864e+00 7.994047e-01 0.000000e+00
1.350917e+00 9.993109e-01 0.000000e+00
1.350900e+00 1.199250e+00 0.000000e+00
1.350798e+00 1.399225e+00 0.000000e+00
1.350594e+00 1.599229e+00 0.000000e+00
1.350285e+00 1.799241e+00 0.000000e+00
1.349926e+00 1.999224e+00 0.000000e+00
1.575000e+00 0.000000e+00 0.000000e+00
1.575297e+00 1.998748e-01 0.000000e+00
1.575518e+00 3.997692e-01 0.000000e+00
1.575675e+00 5.996823e-01 0.000000e+00
1.575771e+00 7.996155e-01 0.000000e+00
1.575806e+00 9.995718e-01 0.000000e+00
1.575775e+00 1.199552e+00 0.000000e+00
1.575674e+00 1.399554e+00 0.000000e+00
1.575500e+00 1.599569e+00 0.000000e+00
1.575269e+00 1.799578e+00 0.000000e+00
1.575029e+00 1.999566e+00 0.000000e+00
1.800000e+00 0.000000e+00 0.000000e+00
1.800259e+00 1.999122e-01 0.000000e+00
1.800453e+00 3.998454e-01 0.000000e+00
1.800588e+00 5.997968e-01 0.000000e+00
1.800668e+00 7.997666e-01 0.000000e+00
1.800691e+00 9.997547e-01 0.000000e+00
1.800657e+00 1.199759e+00 0.000000e+00
1.800567e+00 1.399774e+00 0.000000e+00
1.800429e+00 1.599792e+00 0.000000e+00
1.800262e+00 1.799802e+00 0.000000e+00
1.800104e+00 1.999793e+00 0.000000e+00
2.025000e+00 0.000000e+00 0.000000e+00
2.025219e+00 1.999395e-01 0.000000e+00
2.025384e+00 3.998997e-01 0.000000e+00
2.025499e+00 5.998778e-01 0.000000e+00
2.025564e+00 7.998717e-01 0.000000e+00
2.025580e+00 9.998788e-01 0.000000e+00
2.025549e+00 1.199896e+00 0.000000e+00
2.025476e+00 1.399918e+00 0.000000e+00
2.025371e+00 1.599937e+00 0.000000e+00
2.025253e+00 1.799948e+00 0.000000e+00
2.025152e+00 1.999944e+00 0.000000e+00
2.250000e+00 0.000000e+00 0.000000e+00
2.250180e+00 1.999591e-01 0.000000e+00
2.250317e+00 3.999384e-01 0.000000e+00
2.250412e+00 5.999337e-01 0.000000e+00
2.250465e+00 7.999421e-01 0.000000e+00
2.250477e+00 9.999604e-01 0.000000e+00
2.250452e+00 1.199984e+00 0.000000e+00
2.250396e+00 1.400009e+00 0.000000e+00
2.250319e+00 1.600030e+00 0.000000e+00
2.250237e+00 1.800042e+00 0.000000e+00
2.250176e+00 2.000043e+00 0.000000e+00
2.475000e+00 0.000000e+00 0.000000e+00
2.475144e+00 1.999738e-01 0.000000e+00
2.475255e+00 3.999655e-01 0.000000e+00
2.475332e+00 5.999716e-01 0.000000e+00
2.475374e+00 7.999888e-01 0.000000e+00
2.475383e+00 1.000013e+00 0.000000e+00
2.475364e+00 1.200041e+00 0.000000e+00
2.475323e+00 1.400067e+00 0.000000e+00
2.475268e+00 1.600088e+00 0.000000e+00
2.475214e+00 1.800102e+00 0.000000e+00
2.475179e+00 2.000107e+00 0.000000e+00
2.700000e+00 0.000000e+00 0.000000e+00
2.700112e+00 1.999843e-01 0.000000e+00
2.700198e+00 3.999844e-01 0.000000e+00
2.700257e+00 5.999973e-01 0.000000e+00
2.700290e+00 8.000198e-01 0.000000e+00
2.700297e+00 1.000048e+00 0.000000e+00
2.700284e+00 1.200077e+00 0.000000e+00
2.700254e+00 1.400104e+00 0.000000e+00
2.700217e+00 1.600126e+00 0.000000e+00
2.700182e+00 1.800141e+00 0.000000e+00
2.700165e+00 2.000150e+00 0.000000e+00
2.925000e+00 0.000000e+00 0.000000e+00
2.925083e+00 1.999917e-01 0.000000e+00
2.925146e+00 3.999979e-01 0.000000e+00
2.925189e+00 6.000160e-01 0.000000e+00
2.925212e+00 8.000422e-01 0.000000e+00
2.925218e+00 1.000072e+00 0.000000e+00
2.925209e+00 1.200103e+00 0.000000e+00
2.925189e+00 1.400130e+00 0.000000e+00
2.925164e+00 1.600152e+00 0.000000e+00
2.925144e+00 1.800169e+00 0.000000e+00
2.925136e+00 2.000181e+00 0.000000e+00
3.150000e+00 0.000000e+00 0.000000e+00
3.150057e+00 1.999982e-01 0.000000e+00
3.150097e+00 4.000100e-01 0.000000e+00
3.150125e+00 6.000324e-01 0.000000e+00
3.150139e+00 8.000613e-01 0.000000e+00
3.150143e+00 1.000093e+00 0.000000e+00
3.150137e+00 1.200124e+00 0.000000e+00
3.150125e+00 1.400152e+00 0.000000e+00
3.150111e+00 1.600175e+00 0.000000e+00
3.150099e+00 1.800193e+00 0.000000e+00
3.150097e+00 2.000207e+00 0.000000e+00
3.375000e+00 0.000000e+00 0.000000e+00
3.375031e+00 2.000051e-01 0.000000e+00
3.375049e+00 4.000239e-01 0.000000e+00
3.375062e+00 6.000508e-01 0.000000e+00
3.375069e+00 8.000823e-01 0.000000e+00
3.375071e+00 1.000115e+00 0.000000e+00
3.375068e+00 1.200147e+00 0.000000e+00
3.375062e+00 1.400175e+00 0.000000e+00
3.375056e+00 1.600198e+00 0.000000e+00
3.375051e+00 1.800216e+00 0.000000e+00
3.375050e+00 2.000232e+00 0.000000e+00
3.600000e+00 0.000000e+00 0.000000e+00
3.600000e+00 2.000216e-01 0.000000e+00
3.600000e+00 4.000466e-01 0.000000e+00
3.600000e+00 6.000756e-01 0.000000e+00
3.600000e+00 8.001082e-01 0.000000e+00
3.600000e+00 1.000142e+00 0.000000e+00
3.600000e+00 1.200173e+00 0.000000e+00
3.600000e+00 1.400201e+00 0.000000e+00
3.600000e+00 1.600225e+00 0.000000e+00
3.600000e+00 1.800244e+00 0.000000e+00
3.600000e+00 2.000260e+00 0.000000e+00
</DataArray>
</Points>
<Cells>
<DataArray Name="connectivity" type="Int32" format="ascii">
0 11 12 1
1 12 13 2
2 13 14 3
3 14 15 4
4 15 16 5
5 16 17 6
6 17 18 7
7 18 19 8
8 19 20 9
9 20 21 10
11 22 23 12
12 23 24 13
13 24 25 14
14 25 26 15
15 26 27 16
16 27 28 17
17 28 29 18
18 29 30 19
19 30 31 20
20 31 32 21
22 33 34 23
23 34 35 24
24 35 36 25
25 36 37 26
26 37 38 27
27 38 39 28
28 39 40 29
29 40 41 30
30 41 42 31
31 42 43 32
33 44 45 34
34 45 46 35
35 46 47 36
36 47 48 37
37 48 49 38
38 49 50 39
39 50 51 40
40 51 52 41
41 52 53 42
42 53 54 43
44 55 56 45
45 56 57 46
46 57 58 47
47 58 59 48
48 59 60 49
49 60 61 50
50 61 62 51
51 62 63 52
52 63 64 53
53 64 65 54
55 66 67 56
56 67 68 57
57 68 69 58
58 69 70 59
59 70 71 60
60 71 72 61
61 72 73 62
62 73 74 63
63 74 75 64
64 75 76 65
66 77 78 67
67 78 79 68
68 79 80 69
69 80 81 70
70 81 82 71
71 82 83 72
72 83 84 73
73 84 85 74
74 85 86 75
75 86 87 76
77 88 89 78
78 89 90 79
79 90 91 80
80 91 92 81
81 92 93 82
82 93 94 83
83 94 95 84
84 95 96 85
85 96 97 86
86 97 98 87
88 99 100 89
89 100 101 90
90 101 102 91
91 102 103 92
92 103 104 93
93 104 105 94
94 105 106 95
95 106 107 96
96 107 108 97
97 108 109 98
99 110 111 100
100 111 112 101
101 112 113 102
102 113 114 103
103 114 115 104
104 115 116 105
105 116 117 106
106 117 118 107
107 118 119 108
108 119 120 109
110 121 122 111
111 122 123 112
112 123 124 113
113 124 125 114
114 125 126 115
115 126 127 116
116 127 128 117
117 128 129 118
118 129 130 119
119 130 131 120
121 132 133 122
122 133 134 123
123 134 135 124
124 135 136 125
125 136 137 126
126 137 138 127
127 138 139 128
128 139 140 129
129 140 141 130
130 141 142 131
132 143 144 133
133 144 145 134
134 145 146 135
135 146 147 136
136 147 148 137
137 148 149 138
138 149 150 139
139 150 151 140
140 151 152 141
141 152 153 142
143 154 155 144
144 155 156 145
145 156 157 146
146 157 158 147
147 158 159 148
148 159 160 149
149 160 161 150
150 161 162 151
151 162 163 152
152 163 164 153
154 165 166 155
155 166 167 156
156 167 168 157
157 168 169 158
158 169 170 159
159 170 171 160
160 171 172 161
161 172 173 162
162 173 174 163
163 174 175 164
165 176 177 166
166 177 178 167
167 178 179 168
168 179 180 169
169 180 181 170
170 181 182 171
171 182 183 172
172 183 184 173
173 184 185 174
174 185 186 175
</DataArray>
<DataArray Name="offsets" type="Int32" format="ascii">
4
8
12
16
20
24
28
32
36
40
44
48
52
56
60
64
68
72
76
80
84
88
92
96
100
104
108
112
116
120
124
128
132
136
140
144
148
152
156
160
164
168
172
176
180
184
188
192
196
200
204
208
212
216
220
224
228
232
236
240
244
248
252
256
260
264
268
272
276
280
284
288
292
296
300
304
308
312
316
320
324
328
332
336
340
344
348
352
356
360
364
368
372
376
380
384
388
392
396
400
404
408
412
416
420
424
428
432
436
440
444
448
452
456
460
464
468
472
476
480
484
488
492
496
500
504
508
512
516
520
524
528
532
536
540
544
548
552
556
560
564
568
572
576
580
584
588
592
596
600
604
608
612
616
620
624
628
632
636
640
</DataArray>
<DataArray Name="types" type="UInt8" format="ascii">
9
9
9
9
9
9
9
9
9
9
9
9
9
9
9
9
9
9
9
9
9
9
9
9
9
9
9
9
9
9
9
9
9
9
9
9
9
9
9
9
9
9
9
9
9
9
9
9
9
9
9
9
9
9
9
9
9
9
9
9
9
9
9
9
9
9
9
9
9
9
9
9
9
9
9
9
9
9
9
9
9
9
9
9
9
9
9
9
9
9
9
9
9
9
9
9
9
9
9
9
9
9
9
9
9
9
9
9
9
9
9
9
9
9
9
9
9
9
9
9
9
9
9
9
9
9
9
9
9
9
9
9
9
9
9
9
9
9
9
9
9
9
9
9
9
9
9
9
9
9
9
9
9
9
9
9
9
9
9
9
</DataArray>
</Cells>
<PointData>
<DataArray Name="disp" type="Float64" NumberOfComponents="3" format="ascii">
0.000000e+00 0.000000e+00 0.000000e+00
0.000000e+00 -4.844310e-04 0.000000e+00
0.000000e+00 -1.046113e-03 0.000000e+00
0.000000e+00 -1.687413e-03 0.000000e+00
0.000000e+00 -2.418905e-03 0.000000e+00
0.000000e+00 -3.250901e-03 0.000000e+00
0.000000e+00 -4.182189e-03 0.000000e+00
0.000000e+00 -5.184022e-03 0.000000e+00
0.000000e+00 -6.181431e-03 0.000000e+00
0.000000e+00 -7.059593e-03 0.000000e+00
0.000000e+00 -7.875000e-03 0.000000e+00
0.000000e+00 0.000000e+00 0.000000e+00
1.218069e-04 -4.597142e-04 0.000000e+00
2.178919e-04 -9.971225e-04 0.000000e+00
3.017200e-04 -1.608333e-03 0.000000e+00
3.776958e-04 -2.298660e-03 0.000000e+00
4.417963e-04 -3.079534e-03 0.000000e+00
4.770527e-04 -3.956944e-03 0.000000e+00
4.506814e-04 -4.925524e-03 0.000000e+00
3.182903e-04 -5.958652e-03 0.000000e+00
7.549867e-05 -6.993118e-03 0.000000e+00
0.000000e+00 -7.875000e-03 0.000000e+00
0.000000e+00 0.000000e+00 0.000000e+00
2.229739e-04 -4.197487e-04 0.000000e+00
4.007925e-04 -8.965454e-04 0.000000e+00
5.501382e-04 -1.427367e-03 0.000000e+00
6.828750e-04 -2.009937e-03 0.000000e+00
7.971327e-04 -2.648965e-03 0.000000e+00
8.737025e-04 -3.356653e-03 0.000000e+00
8.765562e-04 -4.157034e-03 0.000000e+00
7.624691e-04 -5.108399e-03 0.000000e+00
4.798736e-04 -6.328490e-03 0.000000e+00
0.000000e+00 -7.875000e-03 0.000000e+00
0.000000e+00 0.000000e+00 0.000000e+00
2.949734e-04 -3.633845e-04 0.000000e+00
5.265693e-04 -7.591249e-04 0.000000e+00
7.149298e-04 -1.181232e-03 0.000000e+00
8.719231e-04 -1.623792e-03 0.000000e+00
9.973923e-04 -2.077113e-03 0.000000e+00
1.079041e-03 -2.527884e-03 0.000000e+00
1.095202e-03 -2.958098e-03 0.000000e+00
1.004937e-03 -3.333538e-03 0.000000e+00
7.592258e-04 -3.560954e-03 0.000000e+00
-3.877688e-04 -3.334479e-03 0.000000e+00
0.000000e+00 0.000000e+00 0.000000e+00
3.343115e-04 -2.983075e-04 0.000000e+00
5.899424e-04 -6.067791e-04 0.000000e+00
7.901672e-04 -9.187582e-04 0.000000e+00
9.447382e-04 -1.225137e-03 0.000000e+00
1.051805e-03 -1.513474e-03 0.000000e+00
1.099027e-03 -1.767001e-03 0.000000e+00
1.061739e-03 -1.964395e-03 0.000000e+00
8.992535e-04 -2.079164e-03 0.000000e+00
4.560185e-04 -2.075102e-03 0.000000e+00
-3.579244e-04 -2.123000e-03 0.000000e+00
0.000000e+00 0.000000e+00 0.000000e+00
3.428123e-04 -2.323948e-04 0.000000e+00
5.999017e-04 -4.591713e-04 0.000000e+00
7.926969e-04 -6.758859e-04 0.000000e+00
9.295907e-04 -8.748397e-04 0.000000e+00
1.008474e-03 -1.045995e-03 0.000000e+00
1.018078e-03 -1.177992e-03 0.000000e+00
9.376933e-04 -1.260202e-03 0.000000e+00
7.246739e-04 -1.284405e-03 0.000000e+00
3.322545e-04 -1.278922e-03 0.000000e+00
-2.036922e-04 -1.286342e-03 0.000000e+00
0.000000e+00 0.000000e+00 0.000000e+00
3.276286e-04 -1.733339e-04 0.000000e+00
5.710091e-04 -3.319400e-04 0.000000e+00
7.476439e-04 -4.741966e-04 0.000000e+00
8.636612e-04 -5.953085e-04 0.000000e+00
9.173155e-04 -6.890627e-04 0.000000e+00
9.002601e-04 -7.498797e-04 0.000000e+00
7.984203e-04 -7.747406e-04 0.000000e+00
5.939654e-04 -7.709294e-04 0.000000e+00
2.846500e-04 -7.592462e-04 0.000000e+00
-7.350308e-05 -7.763049e-04 0.000000e+00
0.000000e+00 0.000000e+00 0.000000e+00
2.972902e-04 -1.251987e-04 0.000000e+00
5.184043e-04 -2.307595e-04 0.000000e+00
6.747935e-04 -3.176748e-04 0.000000e+00
7.708838e-04 -3.844863e-04 0.000000e+00
8.057579e-04 -4.282280e-04 0.000000e+00
7.752972e-04 -4.477179e-04 0.000000e+00
6.738322e-04 -4.455312e-04 0.000000e+00
4.997132e-04 -4.310288e-04 0.000000e+00
2.691296e-04 -4.216513e-04 0.000000e+00
2.924715e-05 -4.339660e-04 0.000000e+00
0.000000e+00 0.000000e+00 0.000000e+00
2.593088e-04 -8.780452e-05 0.000000e+00
4.532778e-04 -1.546472e-04 0.000000e+00
5.884937e-04 -2.032100e-04 0.000000e+00
6.675532e-04 -2.333797e-04 0.000000e+00
6.904732e-04 -2.453355e-04 0.000000e+00
6.568058e-04 -2.412850e-04 0.000000e+00
5.673288e-04 -2.258119e-04 0.000000e+00
4.291633e-04 -2.078416e-04 0.000000e+00
2.619531e-04 -1.983514e-04 0.000000e+00
1.037450e-04 -2.068801e-04 0.000000e+00
0.000000e+00 0.000000e+00 0.000000e+00
2.186815e-04 -6.052897e-05 0.000000e+00
3.843928e-04 -1.002886e-04 0.000000e+00
4.991584e-04 -1.221658e-04 0.000000e+00
5.638230e-04 -1.282373e-04 0.000000e+00
5.797666e-04 -1.212223e-04 0.000000e+00
5.490102e-04 -1.041986e-04 0.000000e+00
4.761566e-04 -8.240034e-05 0.000000e+00
3.710306e-04 -6.278658e-05 0.000000e+00
2.528174e-04 -5.242381e-05 0.000000e+00
1.516652e-04 -5.600403e-05 0.000000e+00
0.000000e+00 0.000000e+00 0.000000e+00
1.796169e-04 -4.091056e-05 0.000000e+00
3.173797e-04 -6.155260e-05 0.000000e+00
4.124965e-04 -6.633451e-05 0.000000e+00
4.651126e-04 -5.790936e-05 0.000000e+00
4.771469e-04 -3.965991e-05 0.000000e+00
4.520425e-04 -1.567272e-05 0.000000e+00
3.957456e-04 9.247346e-06 0.000000e+00
3.184635e-04 2.985700e-05 0.000000e+00
2.374073e-04 4.179135e-05 0.000000e+00
1.762141e-04 4.280063e-05 0.000000e+00
0.000000e+00 0.000000e+00 0.000000e+00
1.440806e-04 -2.620849e-05 0.000000e+00
2.550007e-04 -3.453086e-05 0.000000e+00
3.314673e-04 -2.841788e-05 0.000000e+00
3.736207e-04 -1.121489e-05 0.000000e+00
3.833420e-04 1.316510e-05 0.000000e+00
3.643170e-04 4.065646e-05 0.000000e+00
3.226955e-04 6.705977e-05 0.000000e+00
2.677985e-04 8.838561e-05 0.000000e+00
2.138260e-04 1.020301e-04 0.000000e+00
1.793547e-04 1.073711e-04 0.000000e+00
0.000000e+00 0.000000e+00 0.000000e+00
1.120040e-04 -1.571131e-05 0.000000e+00
1.978269e-04 -1.560807e-05 0.000000e+00
2.570888e-04 -2.686137e-06 0.000000e+00
2.897621e-04 1.977198e-05 0.000000e+00
2.974392e-04 4.767393e-05 0.000000e+00
2.838402e-04 7.701591e-05 0.000000e+00
2.543933e-04 1.040729e-04 0.000000e+00
2.167978e-04 1.259955e-04 0.000000e+00
1.824476e-04 1.413356e-04 0.000000e+00
1.645375e-04 1.505389e-04 0.000000e+00
0.000000e+00 0.000000e+00 0.000000e+00
8.295217e-05 -8.269193e-06 0.000000e+00
1.458659e-04 -2.060098e-06 0.000000e+00
1.887769e-04 1.601843e-05 0.000000e+00
2.121645e-04 4.212569e-05 0.000000e+00
2.179397e-04 7.226077e-05 0.000000e+00
2.087383e-04 1.026408e-04 0.000000e+00
1.889203e-04 1.299529e-04 0.000000e+00
1.644909e-04 1.523323e-04 0.000000e+00
1.436859e-04 1.692548e-04 0.000000e+00
1.360266e-04 1.815078e-04 0.000000e+00
0.000000e+00 0.000000e+00 0.000000e+00
5.651531e-05 -1.797234e-06 0.000000e+00
9.733905e-05 9.970539e-06 0.000000e+00
1.245073e-04 3.238671e-05 0.000000e+00
1.393155e-04 6.135537e-05 0.000000e+00
1.429410e-04 9.315714e-05 0.000000e+00
1.373321e-04 1.242497e-04 0.000000e+00
1.252776e-04 1.518392e-04 0.000000e+00
1.106829e-04 1.746844e-04 0.000000e+00
9.906337e-05 1.926325e-04 0.000000e+00
9.668666e-05 2.072572e-04 0.000000e+00
0.000000e+00 0.000000e+00 0.000000e+00
3.056681e-05 5.117561e-06 0.000000e+00
4.939567e-05 2.394532e-05 0.000000e+00
6.216874e-05 5.081421e-05 0.000000e+00
6.911615e-05 8.224403e-05 0.000000e+00
7.083116e-05 1.152743e-04 0.000000e+00
6.816447e-05 1.467987e-04 0.000000e+00
6.246350e-05 1.746884e-04 0.000000e+00
5.566739e-05 1.978304e-04 0.000000e+00
5.054558e-05 2.164062e-04 0.000000e+00
4.996565e-05 2.322921e-04 0.000000e+00
0.000000e+00 0.000000e+00 0.000000e+00
0.000000e+00 2.156649e-05 0.000000e+00
0.000000e+00 4.662537e-05 0.000000e+00
0.000000e+00 7.561583e-05 0.000000e+00
0.000000e+00 1.081781e-04 0.000000e+00
0.000000e+00 1.416434e-04 0.000000e+00
0.000000e+00 1.733793e-04 0.000000e+00
0.000000e+00 2.013344e-04 0.000000e+00
0.000000e+00 2.246390e-04 0.000000e+00
0.000000e+00 2.435873e-04 0.000000e+00
0.000000e+00 2.598611e-04 0.000000e+00
</DataArray>
<DataArray Name="shear" type="Float64" NumberOfComponents="1" format="ascii">
2.575027e-03
3.113152e-03
3.942464e-03
4.737625e-03
5.546076e-03
6.326278e-03
6.914542e-03
7.000925e-03
6.219165e-03
4.888333e-03
4.307291e-03
2.535461e-03
3.030340e-03
3.799319e-03
4.531811e-03
5.280877e-03
6.037470e-03
6.699944e-03
7.076795e-03
6.928476e-03
6.089321e-03
5.274517e-03
2.501932e-03
2.866838e-03
3.447884e-03
4.025590e-03
4.629842e-03
5.292995e-03
6.037139e-03
6.904757e-03
7.964281e-03
8.721160e-03
8.736338e-03
2.439982e-03
2.649828e-03
2.979247e-03
3.346078e-03
3.741849e-03
4.178617e-03
4.702399e-03
5.385010e-03
6.303985e-03
6.478583e-03
6.769576e-03
2.318232e-03
2.389859e-03
2.489215e-03
2.651906e-03
2.842870e-03
3.039783e-03
3.220541e-03
3.333535e-03
3.114308e-03
1.929098e-03
6.120807e-04
2.133020e-03
2.106611e-03
2.041191e-03
2.052468e-03
2.089847e-03
2.117294e-03
2.094703e-03
1.941796e-03
1.492602e-03
6.297205e-04
4.268360e-04
1.902311e-03
1.820451e-03
1.662643e-03
1.582583e-03
1.529472e-03
1.467958e-03
1.362049e-03
1.155805e-03
7.746596e-04
2.210247e-04
3.762300e-04
1.650860e-03
1.548286e-03
1.357097e-03
1.234469e-03
1.141576e-03
1.049996e-03
9.303086e-04
7.459669e-04
4.574397e-04
5.694980e-05
3.096366e-04
1.397856e-03
1.296578e-03
1.112756e-03
9.866975e-04
8.913276e-04
8.036545e-04
7.005691e-04
5.556063e-04
3.412003e-04
3.031070e-05
2.121572e-04
1.156971e-03
1.069611e-03
9.177495e-04
8.129834e-04
7.361675e-04
6.686370e-04
5.900268e-04
4.785435e-04
3.138178e-04
7.178466e-05
1.109551e-04
9.391654e-04
8.706994e-04
7.584131e-04
6.860486e-04
6.375484e-04
5.939779e-04
5.360253e-04
4.470819e-04
3.125221e-04
1.197131e-04
4.010877e-05
7.468002e-04
6.962435e-04
6.235391e-04
5.893275e-04
5.712441e-04
5.481625e-04
5.045182e-04
4.296658e-04
3.170191e-04
1.707361e-04
9.932330e-05
5.769693e-04
5.428462e-04
5.111735e-04
5.162628e-04
5.255721e-04
5.176970e-04
4.826303e-04
4.174384e-04
3.242593e-04
2.196966e-04
1.739995e-04
4.272586e-04
4.121781e-04
4.252649e-04
4.674042e-04
4.973019e-04
4.982552e-04
4.672459e-04
4.091615e-04
3.340323e-04
2.634443e-04
2.367646e-04
2.944528e-04
3.064410e-04
3.724938e-04
4.436329e-04
4.840412e-04
4.882826e-04
4.592601e-04
4.069740e-04
3.459812e-04
2.988068e-04
2.851217e-04
1.825846e-04
2.507117e-04
3.615126e-04
4.409834e-04
4.823435e-04
4.866719e-04
4.596241e-04
4.123620e-04
3.603027e-04
3.244590e-04
3.157738e-04
1.465385e-04
2.488624e-04
3.649713e-04
4.415220e-04
4.827568e-04
4.880938e-04
4.632368e-04
4.189671e-04
3.703722e-04
3.361225e-04
3.268804e-04
</DataArray>
<DataArray Name="stress" type="Float64" NumberOfComponents="9" format="ascii">
-6.811057e+04 4.641974e+02 0.000000e+00 4.641974e+02 -8.594223e+04 0.000000e+00 0.000000e+00 0.000000e+00 0.000000e+00
-6.560912e+04 6.009904e+02 0.000000e+00 6.009904e+02 -8.621433e+04 0.000000e+00 0.000000e+00 0.000000e+00 0.000000e+00
-6.335001e+04 8.158809e+02 0.000000e+00 8.158809e+02 -8.793121e+04 0.000000e+00 0.000000e+00 0.000000e+00 0.000000e+00
-6.208036e+04 1.122326e+03 0.000000e+00 1.122326e+03 -9.000837e+04 0.000000e+00 0.000000e+00 0.000000e+00 0.000000e+00
-6.174016e+04 1.479516e+03 0.000000e+00 1.479516e+03 -9.257845e+04 0.000000e+00 0.000000e+00 0.000000e+00 0.000000e+00
-6.224082e+04 1.828191e+03 0.000000e+00 1.828191e+03 -9.568409e+04 0.000000e+00 0.000000e+00 0.000000e+00 0.000000e+00
-6.355524e+04 2.100882e+03 0.000000e+00 2.100882e+03 -9.919855e+04 0.000000e+00 0.000000e+00 0.000000e+00 0.000000e+00
-6.588681e+04 2.060604e+03 0.000000e+00 2.060604e+03 -1.026605e+05 0.000000e+00 0.000000e+00 0.000000e+00 0.000000e+00
-6.972538e+04 1.286619e+03 0.000000e+00 1.286619e+03 -1.051571e+05 0.000000e+00 0.000000e+00 0.000000e+00 0.000000e+00
-7.516375e+04 9.863718e+01 0.000000e+00 9.863718e+01 -1.063383e+05 0.000000e+00 0.000000e+00 0.000000e+00 0.000000e+00
-7.731034e+04 -2.548943e+02 0.000000e+00 -2.548943e+02 -1.059850e+05 0.000000e+00 0.000000e+00 0.000000e+00 0.000000e+00
-6.789210e+04 1.740990e+03 0.000000e+00 1.740990e+03 -8.497149e+04 0.000000e+00 0.000000e+00 0.000000e+00 0.000000e+00
-6.560689e+04 1.823098e+03 0.000000e+00 1.823098e+03 -8.532846e+04 0.000000e+00 0.000000e+00 0.000000e+00 0.000000e+00
-6.352704e+04 2.034014e+03 0.000000e+00 2.034014e+03 -8.700888e+04 0.000000e+00 0.000000e+00 0.000000e+00 0.000000e+00
-6.236031e+04 2.486841e+03 0.000000e+00 2.486841e+03 -8.891057e+04 0.000000e+00 0.000000e+00 0.000000e+00 0.000000e+00
-6.207043e+04 3.084992e+03 0.000000e+00 3.084992e+03 -9.118137e+04 0.000000e+00 0.000000e+00 0.000000e+00 0.000000e+00
-6.257493e+04 3.719345e+03 0.000000e+00 3.719345e+03 -9.399266e+04 0.000000e+00 0.000000e+00 0.000000e+00 0.000000e+00
-6.381828e+04 4.224026e+03 0.000000e+00 4.224026e+03 -9.742694e+04 0.000000e+00 0.000000e+00 0.000000e+00 0.000000e+00
-6.589166e+04 4.231351e+03 0.000000e+00 4.231351e+03 -1.014403e+05 0.000000e+00 0.000000e+00 0.000000e+00 0.000000e+00
-6.911012e+04 3.138987e+03 0.000000e+00 3.138987e+03 -1.057548e+05 0.000000e+00 0.000000e+00 0.000000e+00 0.000000e+00
-7.393625e+04 1.269641e+03 0.000000e+00 1.269641e+03 -1.092676e+05 0.000000e+00 0.000000e+00 0.000000e+00 0.000000e+00
-7.868548e+04 -5.546992e+02 0.000000e+00 -5.546992e+02 -1.120333e+05 0.000000e+00 0.000000e+00 0.000000e+00 0.000000e+00
-6.745548e+04 3.391313e+03 0.000000e+00 3.391313e+03 -8.292836e+04 0.000000e+00 0.000000e+00 0.000000e+00 0.000000e+00
-6.563708e+04 3.471459e+03 0.000000e+00 3.471459e+03 -8.320825e+04 0.000000e+00 0.000000e+00 0.000000e+00 0.000000e+00
-6.399160e+04 3.744692e+03 0.000000e+00 3.744692e+03 -8.448563e+04 0.000000e+00 0.000000e+00 0.000000e+00 0.000000e+00
-6.312587e+04 4.463954e+03 0.000000e+00 4.463954e+03 -8.584634e+04 0.000000e+00 0.000000e+00 0.000000e+00 0.000000e+00
-6.299146e+04 5.501872e+03 0.000000e+00 5.501872e+03 -8.740480e+04 0.000000e+00 0.000000e+00 0.000000e+00 0.000000e+00
-6.356461e+04 6.756753e+03 0.000000e+00 6.756753e+03 -8.930719e+04 0.000000e+00 0.000000e+00 0.000000e+00 0.000000e+00
-6.477632e+04 8.080223e+03 0.000000e+00 8.080223e+03 -9.179427e+04 0.000000e+00 0.000000e+00 0.000000e+00 0.000000e+00
-6.669046e+04 9.298186e+03 0.000000e+00 9.298186e+03 -9.540894e+04 0.000000e+00 0.000000e+00 0.000000e+00 0.000000e+00
-7.000657e+04 1.016021e+04 0.000000e+00 1.016021e+04 -1.012447e+05 0.000000e+00 0.000000e+00 0.000000e+00 0.000000e+00
-7.771515e+04 1.060483e+04 0.000000e+00 1.060483e+04 -1.106177e+05 0.000000e+00 0.000000e+00 0.000000e+00 0.000000e+00
-9.046010e+04 1.103132e+04 0.000000e+00 1.103132e+04 -1.210563e+05 0.000000e+00 0.000000e+00 0.000000e+00 0.000000e+00
-6.680723e+04 4.550577e+03 0.000000e+00 4.550577e+03 -8.004931e+04 0.000000e+00 0.000000e+00 0.000000e+00 0.000000e+00
-6.559546e+04 4.614244e+03 0.000000e+00 4.614244e+03 -8.018971e+04 0.000000e+00 0.000000e+00 0.000000e+00 0.000000e+00
-6.454392e+04 4.856633e+03 0.000000e+00 4.856633e+03 -8.090736e+04 0.000000e+00 0.000000e+00 0.000000e+00 0.000000e+00
-6.412432e+04 5.606516e+03 0.000000e+00 5.606516e+03 -8.153895e+04 0.000000e+00 0.000000e+00 0.000000e+00 0.000000e+00
-6.427376e+04 6.723697e+03 0.000000e+00 6.723697e+03 -8.206696e+04 0.000000e+00 0.000000e+00 0.000000e+00 0.000000e+00
-6.489224e+04 8.083807e+03 0.000000e+00 8.083807e+03 -8.241385e+04 0.000000e+00 0.000000e+00 0.000000e+00 0.000000e+00
-6.585399e+04 9.564895e+03 0.000000e+00 9.564895e+03 -8.239217e+04 0.000000e+00 0.000000e+00 0.000000e+00 0.000000e+00
-6.700277e+04 1.110043e+04 0.000000e+00 1.110043e+04 -8.166562e+04 0.000000e+00 0.000000e+00 0.000000e+00 0.000000e+00
-6.848762e+04 1.255281e+04 0.000000e+00 1.255281e+04 -7.942833e+04 0.000000e+00 0.000000e+00 0.000000e+00 0.000000e+00
-6.965542e+04 1.182477e+04 0.000000e+00 1.182477e+04 -7.296927e+04 0.000000e+00 0.000000e+00 0.000000e+00 0.000000e+00
-7.073313e+04 1.079084e+04 0.000000e+00 1.079084e+04 -6.968558e+04 0.000000e+00 0.000000e+00 0.000000e+00 0.000000e+00
-6.597712e+04 5.161739e+03 0.000000e+00 5.161739e+03 -7.665113e+04 0.000000e+00 0.000000e+00 0.000000e+00 0.000000e+00
-6.543960e+04 5.177306e+03 0.000000e+00 5.177306e+03 -7.666952e+04 0.000000e+00 0.000000e+00 0.000000e+00 0.000000e+00
-6.503517e+04 5.280959e+03 0.000000e+00 5.280959e+03 -7.684132e+04 0.000000e+00 0.000000e+00 0.000000e+00 0.000000e+00
-6.504604e+04 5.846697e+03 0.000000e+00 5.846697e+03 -7.679838e+04 0.000000e+00 0.000000e+00 0.000000e+00 0.000000e+00
-6.545073e+04 6.670934e+03 0.000000e+00 6.670934e+03 -7.642361e+04 0.000000e+00 0.000000e+00 0.000000e+00 0.000000e+00
-6.618978e+04 7.579076e+03 0.000000e+00 7.579076e+03 -7.559234e+04 0.000000e+00 0.000000e+00 0.000000e+00 0.000000e+00
-6.714986e+04 8.367288e+03 0.000000e+00 8.367288e+03 -7.409391e+04 0.000000e+00 0.000000e+00 0.000000e+00 0.000000e+00
-6.819865e+04 8.797585e+03 0.000000e+00 8.797585e+03 -7.167359e+04 0.000000e+00 0.000000e+00 0.000000e+00 0.000000e+00
-6.916727e+04 8.148797e+03 0.000000e+00 8.148797e+03 -6.782679e+04 0.000000e+00 0.000000e+00 0.000000e+00 0.000000e+00
-6.778079e+04 4.760210e+03 0.000000e+00 4.760210e+03 -6.375816e+04 0.000000e+00 0.000000e+00 0.000000e+00 0.000000e+00
-6.035739e+04 1.479534e+03 0.000000e+00 1.479534e+03 -5.993484e+04 0.000000e+00 0.000000e+00 0.000000e+00 0.000000e+00
-6.505138e+04 5.278548e+03 0.000000e+00 5.278548e+03 -7.318165e+04 0.000000e+00 0.000000e+00 0.000000e+00 0.000000e+00
-6.513493e+04 5.231493e+03 0.000000e+00 5.231493e+03 -7.310648e+04 0.000000e+00 0.000000e+00 0.000000e+00 0.000000e+00
-6.531654e+04 5.133211e+03 0.000000e+00 5.133211e+03 -7.285806e+04 0.000000e+00 0.000000e+00 0.000000e+00 0.000000e+00
-6.566960e+04 5.375490e+03 0.000000e+00 5.375490e+03 -7.236788e+04 0.000000e+00 0.000000e+00 0.000000e+00 0.000000e+00
-6.620649e+04 5.752292e+03 0.000000e+00 5.752292e+03 -7.152393e+04 0.000000e+00 0.000000e+00 0.000000e+00 0.000000e+00
-6.687145e+04 6.059507e+03 0.000000e+00 6.059507e+03 -7.023245e+04 0.000000e+00 0.000000e+00 0.000000e+00 0.000000e+00
-6.753586e+04 6.096395e+03 0.000000e+00 6.096395e+03 -6.841630e+04 0.000000e+00 0.000000e+00 0.000000e+00 0.000000e+00
-6.794192e+04 5.557181e+03 0.000000e+00 5.557181e+03 -6.602530e+04 0.000000e+00 0.000000e+00 0.000000e+00 0.000000e+00
-6.731127e+04 3.955851e+03 0.000000e+00 3.955851e+03 -6.337089e+04 0.000000e+00 0.000000e+00 0.000000e+00 0.000000e+00
-6.306950e+04 1.436969e+03 0.000000e+00 1.436969e+03 -6.130653e+04 0.000000e+00 0.000000e+00 0.000000e+00 0.000000e+00
-5.708046e+04 1.843939e+02 0.000000e+00 1.843939e+02 -5.970243e+04 0.000000e+00 0.000000e+00 0.000000e+00 0.000000e+00
-6.414608e+04 5.027678e+03 0.000000e+00 5.027678e+03 -7.003712e+04 0.000000e+00 0.000000e+00 0.000000e+00 0.000000e+00
-6.470354e+04 4.919521e+03 0.000000e+00 4.919521e+03 -6.991193e+04 0.000000e+00 0.000000e+00 0.000000e+00 0.000000e+00
-6.531616e+04 4.631566e+03 0.000000e+00 4.631566e+03 -6.942148e+04 0.000000e+00 0.000000e+00 0.000000e+00 0.000000e+00
-6.587619e+04 4.558431e+03 0.000000e+00 4.558431e+03 -6.873377e+04 0.000000e+00 0.000000e+00 0.000000e+00 0.000000e+00
-6.641448e+04 4.525600e+03 0.000000e+00 4.525600e+03 -6.776383e+04 0.000000e+00 0.000000e+00 0.000000e+00 0.000000e+00
-6.688199e+04 4.365016e+03 0.000000e+00 4.365016e+03 -6.647791e+04 0.000000e+00 0.000000e+00 0.000000e+00 0.000000e+00
-6.712618e+04 3.919204e+03 0.000000e+00 3.919204e+03 -6.488895e+04 0.000000e+00 0.000000e+00 0.000000e+00 0.000000e+00
-6.679302e+04 3.001137e+03 0.000000e+00 3.001137e+03 -6.312928e+04 0.000000e+00 0.000000e+00 0.000000e+00 0.000000e+00
-6.510898e+04 1.574992e+03 0.000000e+00 1.574992e+03 -6.151707e+04 0.000000e+00 0.000000e+00 0.000000e+00 0.000000e+00
-6.107208e+04 2.240489e+02 0.000000e+00 2.240489e+02 -6.045455e+04 0.000000e+00 0.000000e+00 0.000000e+00 0.000000e+00
-5.697832e+04 -2.968341e+02 0.000000e+00 -2.968341e+02 -5.964481e+04 0.000000e+00 0.000000e+00 0.000000e+00 0.000000e+00
-6.331932e+04 4.529091e+03 0.000000e+00 4.529091e+03 -6.739683e+04 0.000000e+00 0.000000e+00 0.000000e+00 0.000000e+00
-6.417024e+04 4.376265e+03 0.000000e+00 4.376265e+03 -6.724245e+04 0.000000e+00 0.000000e+00 0.000000e+00 0.000000e+00
-6.505505e+04 3.958522e+03 0.000000e+00 3.958522e+03 -6.664366e+04 0.000000e+00 0.000000e+00 0.000000e+00 0.000000e+00
-6.571187e+04 3.648810e+03 0.000000e+00 3.648810e+03 -6.592506e+04 0.000000e+00 0.000000e+00 0.000000e+00 0.000000e+00
-6.619358e+04 3.330181e+03 0.000000e+00 3.330181e+03 -6.503206e+04 0.000000e+00 0.000000e+00 0.000000e+00 0.000000e+00
-6.645994e+04 2.893399e+03 0.000000e+00 2.893399e+03 -6.396100e+04 0.000000e+00 0.000000e+00 0.000000e+00 0.000000e+00
-6.635107e+04 2.244350e+03 0.000000e+00 2.244350e+03 -6.277392e+04 0.000000e+00 0.000000e+00 0.000000e+00 0.000000e+00
-6.556112e+04 1.345547e+03 0.000000e+00 1.345547e+03 -6.160804e+04 0.000000e+00 0.000000e+00 0.000000e+00 0.000000e+00
-6.365304e+04 3.416032e+02 0.000000e+00 3.416032e+02 -6.068477e+04 0.000000e+00 0.000000e+00 0.000000e+00 0.000000e+00
-6.035588e+04 -2.841267e+02 0.000000e+00 -2.841267e+02 -6.016853e+04 0.000000e+00 0.000000e+00 0.000000e+00 0.000000e+00
-5.749241e+04 -3.825052e+02 0.000000e+00 -3.825052e+02 -5.973982e+04 0.000000e+00 0.000000e+00 0.000000e+00 0.000000e+00
-6.260872e+04 3.910024e+03 0.000000e+00 3.910024e+03 -6.531426e+04 0.000000e+00 0.000000e+00 0.000000e+00 0.000000e+00
-6.360186e+04 3.737782e+03 0.000000e+00 3.737782e+03 -6.515459e+04 0.000000e+00 0.000000e+00 0.000000e+00 0.000000e+00
-6.461998e+04 3.252984e+03 0.000000e+00 3.252984e+03 -6.454152e+04 0.000000e+00 0.000000e+00 0.000000e+00 0.000000e+00
-6.530457e+04 2.797680e+03 0.000000e+00 2.797680e+03 -6.387000e+04 0.000000e+00 0.000000e+00 0.000000e+00 0.000000e+00
-6.572177e+04 2.322777e+03 0.000000e+00 2.322777e+03 -6.311932e+04 0.000000e+00 0.000000e+00 0.000000e+00 0.000000e+00
-6.583489e+04 1.770089e+03 0.000000e+00 1.770089e+03 -6.230718e+04 0.000000e+00 0.000000e+00 0.000000e+00 0.000000e+00
-6.551307e+04 1.101930e+03 0.000000e+00 1.101930e+03 -6.149583e+04 0.000000e+00 0.000000e+00 0.000000e+00 0.000000e+00
-6.457382e+04 3.624988e+02 0.000000e+00 3.624988e+02 -6.078431e+04 0.000000e+00 0.000000e+00 0.000000e+00 0.000000e+00
-6.282155e+04 -2.735584e+02 0.000000e+00 -2.735584e+02 -6.028758e+04 0.000000e+00 0.000000e+00 0.000000e+00 0.000000e+00
-6.028634e+04 -4.789737e+02 0.000000e+00 -4.789737e+02 -6.005229e+04 0.000000e+00 0.000000e+00 0.000000e+00 0.000000e+00
-5.826011e+04 -4.033472e+02 0.000000e+00 -4.033472e+02 -5.980426e+04 0.000000e+00 0.000000e+00 0.000000e+00 0.000000e+00
-6.202512e+04 3.262144e+03 0.000000e+00 3.262144e+03 -6.374010e+04 0.000000e+00 0.000000e+00 0.000000e+00 0.000000e+00
-6.304104e+04 3.075549e+03 0.000000e+00 3.075549e+03 -6.358063e+04 0.000000e+00 0.000000e+00 0.000000e+00 0.000000e+00
-6.408701e+04 2.573367e+03 0.000000e+00 2.573367e+03 -6.299136e+04 0.000000e+00 0.000000e+00 0.000000e+00 0.000000e+00
-6.476795e+04 2.064641e+03 0.000000e+00 2.064641e+03 -6.240846e+04 0.000000e+00 0.000000e+00 0.000000e+00 0.000000e+00
-6.514486e+04 1.547936e+03 0.000000e+00 1.547936e+03 -6.182257e+04 0.000000e+00 0.000000e+00 0.000000e+00 0.000000e+00
-6.516886e+04 9.817685e+02 0.000000e+00 9.817685e+02 -6.124733e+04 0.000000e+00 0.000000e+00 0.000000e+00 0.000000e+00
-6.477063e+04 3.848256e+02 0.000000e+00 3.848256e+02 -6.072486e+04 0.000000e+00 0.000000e+00 0.000000e+00 0.000000e+00
-6.386536e+04 -1.791493e+02 0.000000e+00 -1.791493e+02 -6.032173e+04 0.000000e+00 0.000000e+00 0.000000e+00 0.000000e+00
-6.240734e+04 -5.523535e+02 0.000000e+00 -5.523535e+02 -6.008195e+04 0.000000e+00 0.000000e+00 0.000000e+00 0.000000e+00
-6.050691e+04 -5.383589e+02 0.000000e+00 -5.383589e+02 -5.999282e+04 0.000000e+00 0.000000e+00 0.000000e+00 0.000000e+00
-5.907344e+04 -3.855904e+02 0.000000e+00 -3.855904e+02 -5.985300e+04 0.000000e+00 0.000000e+00 0.000000e+00 0.000000e+00
-6.155530e+04 2.603308e+03 0.000000e+00 2.603308e+03 -6.256198e+04 0.000000e+00 0.000000e+00 0.000000e+00 0.000000e+00
-6.251291e+04 2.428643e+03 0.000000e+00 2.428643e+03 -6.241309e+04 0.000000e+00 0.000000e+00 0.000000e+00 0.000000e+00
-6.353615e+04 1.965201e+03 0.000000e+00 1.965201e+03 -6.188008e+04 0.000000e+00 0.000000e+00 0.000000e+00 0.000000e+00
-6.421411e+04 1.477451e+03 0.000000e+00 1.477451e+03 -6.140365e+04 0.000000e+00 0.000000e+00 0.000000e+00 0.000000e+00
-6.455866e+04 9.798555e+02 0.000000e+00 9.798555e+02 -6.095912e+04 0.000000e+00 0.000000e+00 0.000000e+00 0.000000e+00
-6.454902e+04 4.619113e+02 0.000000e+00 4.619113e+02 -6.056762e+04 0.000000e+00 0.000000e+00 0.000000e+00 0.000000e+00
-6.416677e+04 -3.423775e+01 0.000000e+00 -3.423775e+01 -6.025430e+04 0.000000e+00 0.000000e+00 0.000000e+00 0.000000e+00
-6.338789e+04 -4.447610e+02 0.000000e+00 -4.447610e+02 -6.004968e+04 0.000000e+00 0.000000e+00 0.000000e+00 0.000000e+00
-6.223526e+04 -6.471011e+02 0.000000e+00 -6.471011e+02 -5.996457e+04 0.000000e+00 0.000000e+00 0.000000e+00 0.000000e+00
-6.084874e+04 -5.254819e+02 0.000000e+00 -5.254819e+02 -5.995757e+04 0.000000e+00 0.000000e+00 0.000000e+00 0.000000e+00
-5.985289e+04 -3.482643e+02 0.000000e+00 -3.482643e+02 -5.988803e+04 0.000000e+00 0.000000e+00 0.000000e+00 0.000000e+00
-6.117668e+04 1.981374e+03 0.000000e+00 1.981374e+03 -6.169974e+04 0.000000e+00 0.000000e+00 0.000000e+00 0.000000e+00
-6.205901e+04 1.836826e+03 0.000000e+00 1.836826e+03 -6.156365e+04 0.000000e+00 0.000000e+00 0.000000e+00 0.000000e+00
-6.303776e+04 1.447030e+03 0.000000e+00 1.447030e+03 -6.110399e+04 0.000000e+00 0.000000e+00 0.000000e+00 0.000000e+00
-6.369678e+04 1.016751e+03 0.000000e+00 1.016751e+03 -6.071620e+04 0.000000e+00 0.000000e+00 0.000000e+00 0.000000e+00
-6.402225e+04 5.753120e+02 0.000000e+00 5.753120e+02 -6.038721e+04 0.000000e+00 0.000000e+00 0.000000e+00 0.000000e+00
-6.402221e+04 1.387022e+02 0.000000e+00 1.387022e+02 -6.013148e+04 0.000000e+00 0.000000e+00 0.000000e+00 0.000000e+00
-6.370217e+04 -2.524002e+02 0.000000e+00 -2.524002e+02 -5.996252e+04 0.000000e+00 0.000000e+00 0.000000e+00 0.000000e+00
-6.307928e+04 -5.383868e+02 0.000000e+00 -5.383868e+02 -5.988782e+04 0.000000e+00 0.000000e+00 0.000000e+00 0.000000e+00
-6.219933e+04 -6.367075e+02 0.000000e+00 -6.367075e+02 -5.989545e+04 0.000000e+00 0.000000e+00 0.000000e+00 0.000000e+00
-6.122373e+04 -4.715568e+02 0.000000e+00 -4.715568e+02 -5.994051e+04 0.000000e+00 0.000000e+00 0.000000e+00 0.000000e+00
-6.056614e+04 -2.933664e+02 0.000000e+00 -2.933664e+02 -5.991942e+04 0.000000e+00 0.000000e+00 0.000000e+00 0.000000e+00
-6.088492e+04 1.441519e+03 0.000000e+00 1.441519e+03 -6.106905e+04 0.000000e+00 0.000000e+00 0.000000e+00 0.000000e+00
-6.169500e+04 1.324990e+03 0.000000e+00 1.324990e+03 -6.095016e+04 0.000000e+00 0.000000e+00 0.000000e+00 0.000000e+00
-6.261198e+04 1.012296e+03 0.000000e+00 1.012296e+03 -6.055898e+04 0.000000e+00 0.000000e+00 0.000000e+00 0.000000e+00
-6.324836e+04 6.561280e+02 0.000000e+00 6.561280e+02 -6.024279e+04 0.000000e+00 0.000000e+00 0.000000e+00 0.000000e+00
-6.357279e+04 2.963862e+02 0.000000e+00 2.963862e+02 -6.000368e+04 0.000000e+00 0.000000e+00 0.000000e+00 0.000000e+00
-6.360313e+04 -4.486597e+01 0.000000e+00 -4.486597e+01 -5.984568e+04 0.000000e+00 0.000000e+00 0.000000e+00 0.000000e+00
-6.336284e+04 -3.333160e+02 0.000000e+00 -3.333160e+02 -5.978005e+04 0.000000e+00 0.000000e+00 0.000000e+00 0.000000e+00
-6.288638e+04 -5.258757e+02 0.000000e+00 -5.258757e+02 -5.979072e+04 0.000000e+00 0.000000e+00 0.000000e+00 0.000000e+00
-6.223574e+04 -5.629191e+02 0.000000e+00 -5.629191e+02 -5.985510e+04 0.000000e+00 0.000000e+00 0.000000e+00 0.000000e+00
-6.157176e+04 -3.950281e+02 0.000000e+00 -3.950281e+02 -5.993030e+04 0.000000e+00 0.000000e+00 0.000000e+00 0.000000e+00
-6.116471e+04 -2.393083e+02 0.000000e+00 -2.393083e+02 -5.993849e+04 0.000000e+00 0.000000e+00 0.000000e+00 0.000000e+00
-6.066889e+04 9.659134e+02 0.000000e+00 9.659134e+02 -6.061019e+04 0.000000e+00 0.000000e+00 0.000000e+00 0.000000e+00
-6.141261e+04 8.736496e+02 0.000000e+00 8.736496e+02 -6.050013e+04 0.000000e+00 0.000000e+00 0.000000e+00 0.000000e+00
-6.227949e+04 6.384650e+02 0.000000e+00 6.384650e+02 -6.015905e+04 0.000000e+00 0.000000e+00 0.000000e+00 0.000000e+00
-6.289733e+04 3.767916e+02 0.000000e+00 3.767916e+02 -5.989928e+04 0.000000e+00 0.000000e+00 0.000000e+00 0.000000e+00
-6.323024e+04 1.167765e+02 0.000000e+00 1.167765e+02 -5.973577e+04 0.000000e+00 0.000000e+00 0.000000e+00 0.000000e+00
-6.329381e+04 -1.247348e+02 0.000000e+00 -1.247348e+02 -5.966009e+04 0.000000e+00 0.000000e+00 0.000000e+00 0.000000e+00
-6.312770e+04 -3.231624e+02 0.000000e+00 -3.231624e+02 -5.966402e+04 0.000000e+00 0.000000e+00 0.000000e+00 0.000000e+00
-6.277081e+04 -4.458538e+02 0.000000e+00 -4.458538e+02 -5.972755e+04 0.000000e+00 0.000000e+00 0.000000e+00 0.000000e+00
-6.230159e+04 -4.507657e+02 0.000000e+00 -4.507657e+02 -5.982950e+04 0.000000e+00 0.000000e+00 0.000000e+00 0.000000e+00
-6.186113e+04 -3.052932e+02 0.000000e+00 -3.052932e+02 -5.992548e+04 0.000000e+00 0.000000e+00 0.000000e+00 0.000000e+00
-6.162964e+04 -1.834514e+02 0.000000e+00 -1.834514e+02 -5.995032e+04 0.000000e+00 0.000000e+00 0.000000e+00 0.000000e+00
-6.050617e+04 5.191419e+02 0.000000e+00 5.191419e+02 -6.023790e+04 0.000000e+00 0.000000e+00 0.000000e+00 0.000000e+00
-6.121288e+04 4.643921e+02 0.000000e+00 4.643921e+02 -6.013888e+04 0.000000e+00 0.000000e+00 0.000000e+00 0.000000e+00
-6.205989e+04 3.215241e+02 0.000000e+00 3.215241e+02 -5.984094e+04 0.000000e+00 0.000000e+00 0.000000e+00 0.000000e+00
-6.266349e+04 1.746449e+02 0.000000e+00 1.746449e+02 -5.963948e+04 0.000000e+00 0.000000e+00 0.000000e+00 0.000000e+00
-6.300062e+04 1.909200e+01 0.000000e+00 1.909200e+01 -5.954264e+04 0.000000e+00 0.000000e+00 0.000000e+00 0.000000e+00
-6.308752e+04 -1.284204e+02 0.000000e+00 -1.284204e+02 -5.952824e+04 0.000000e+00 0.000000e+00 0.000000e+00 0.000000e+00
-6.297523e+04 -2.501926e+02 0.000000e+00 -2.501926e+02 -5.958140e+04 0.000000e+00 0.000000e+00 0.000000e+00 0.000000e+00
-6.270671e+04 -3.205842e+02 0.000000e+00 -3.205842e+02 -5.968546e+04 0.000000e+00 0.000000e+00 0.000000e+00 0.000000e+00
-6.236653e+04 -3.137368e+02 0.000000e+00 -3.137368e+02 -5.981442e+04 0.000000e+00 0.000000e+00 0.000000e+00 0.000000e+00
-6.208155e+04 -2.072477e+02 0.000000e+00 -2.072477e+02 -5.992289e+04 0.000000e+00 0.000000e+00 0.000000e+00 0.000000e+00
-6.196798e+04 -1.214342e+02 0.000000e+00 -1.214342e+02 -5.996150e+04 0.000000e+00 0.000000e+00 0.000000e+00 0.000000e+00
-6.035815e+04 9.806339e+01 0.000000e+00 9.806339e+01 -5.980116e+04 0.000000e+00 0.000000e+00 0.000000e+00 0.000000e+00
-6.112023e+04 1.225827e+02 0.000000e+00 1.225827e+02 -5.975955e+04 0.000000e+00 0.000000e+00 0.000000e+00 0.000000e+00
-6.196588e+04 9.596302e+01 0.000000e+00 9.596302e+01 -5.955818e+04 0.000000e+00 0.000000e+00 0.000000e+00 0.000000e+00
-6.254463e+04 5.374731e+01 0.000000e+00 5.374731e+01 -5.944896e+04 0.000000e+00 0.000000e+00 0.000000e+00 0.000000e+00
-6.287363e+04 -1.212415e+01 0.000000e+00 -1.212415e+01 -5.941802e+04 0.000000e+00 0.000000e+00 0.000000e+00 0.000000e+00
-6.297250e+04 -7.874934e+01 0.000000e+00 -7.874934e+01 -5.944557e+04 0.000000e+00 0.000000e+00 0.000000e+00 0.000000e+00
-6.289118e+04 -1.355085e+02 0.000000e+00 -1.355085e+02 -5.953323e+04 0.000000e+00 0.000000e+00 0.000000e+00 0.000000e+00
-6.267637e+04 -1.666265e+02 0.000000e+00 -1.666265e+02 -5.966156e+04 0.000000e+00 0.000000e+00 0.000000e+00 0.000000e+00
-6.241166e+04 -1.605189e+02 0.000000e+00 -1.605189e+02 -5.980532e+04 0.000000e+00 0.000000e+00 0.000000e+00 0.000000e+00
-6.221870e+04 -1.050610e+02 0.000000e+00 -1.050610e+02 -5.991956e+04 0.000000e+00 0.000000e+00 0.000000e+00 0.000000e+00
-6.216735e+04 -6.180014e+01 0.000000e+00 -6.180014e+01 -5.997155e+04 0.000000e+00 0.000000e+00 0.000000e+00 0.000000e+00
-6.020113e+04 -2.023222e+02 0.000000e+00 -2.023222e+02 -5.928880e+04 0.000000e+00 0.000000e+00 0.000000e+00 0.000000e+00
-6.106017e+04 -9.189314e+01 0.000000e+00 -9.189314e+01 -5.941047e+04 0.000000e+00 0.000000e+00 0.000000e+00 0.000000e+00
-6.194366e+04 -2.445711e+01 0.000000e+00 -2.445711e+01 -5.940818e+04 0.000000e+00 0.000000e+00 0.000000e+00 0.000000e+00
-6.251067e+04 -1.020424e+01 0.000000e+00 -1.020424e+01 -5.937472e+04 0.000000e+00 0.000000e+00 0.000000e+00 0.000000e+00
-6.283370e+04 -2.403002e+01 0.000000e+00 -2.403002e+01 -5.937325e+04 0.000000e+00 0.000000e+00 0.000000e+00 0.000000e+00
-6.293559e+04 -4.237449e+01 0.000000e+00 -4.237449e+01 -5.941965e+04 0.000000e+00 0.000000e+00 0.000000e+00 0.000000e+00
-6.286427e+04 -5.927285e+01 0.000000e+00 -5.927285e+01 -5.951877e+04 0.000000e+00 0.000000e+00 0.000000e+00 0.000000e+00
-6.266731e+04 -6.782661e+01 0.000000e+00 -6.782661e+01 -5.965262e+04 0.000000e+00 0.000000e+00 0.000000e+00 0.000000e+00
-6.242737e+04 -6.579790e+01 0.000000e+00 -6.579790e+01 -5.980062e+04 0.000000e+00 0.000000e+00 0.000000e+00 0.000000e+00
-6.226440e+04 -4.595761e+01 0.000000e+00 -4.595761e+01 -5.991608e+04 0.000000e+00 0.000000e+00 0.000000e+00 0.000000e+00
-6.223138e+04 -3.173837e+01 0.000000e+00 -3.173837e+01 -5.997259e+04 0.000000e+00 0.000000e+00 0.000000e+00 0.000000e+00
</DataArray>
<DataArray Name="vol_eps" type="Float64" NumberOfComponents="1" format="ascii">
-2.202937e-03
-2.055135e-03
-2.007023e-03
-2.043138e-03
-2.169518e-03
-2.388209e-03
-2.697156e-03
-3.087835e-03
-3.526744e-03
-3.968494e-03
-4.083494e-03
-2.122962e-03
-1.995342e-03
-1.959279e-03
-1.994037e-03
-2.108692e-03
-2.310915e-03
-2.606594e-03
-3.005661e-03
-3.511026e-03
-4.069008e-03
-4.562176e-03
-1.958736e-03
-1.857527e-03
-1.827510e-03
-1.852916e-03
-1.936514e-03
-2.089341e-03
-2.320382e-03
-2.664175e-03
-3.228022e-03
-4.282085e-03
-5.754751e-03
-1.728700e-03
-1.658459e-03
-1.633527e-03
-1.642998e-03
-1.682132e-03
-1.739490e-03
-1.790831e-03
-1.795393e-03
-1.689316e-03
-1.263321e-03
-1.071429e-03
-1.456487e-03
-1.422244e-03
-1.406179e-03
-1.402249e-03
-1.402273e-03
-1.392536e-03
-1.353123e-03
-1.258852e-03
-1.069975e-03
-7.293980e-04
-3.520772e-06
-1.173346e-03
-1.174249e-03
-1.170426e-03
-1.161380e-03
-1.140895e-03
-1.098986e-03
-1.022305e-03
-8.915740e-04
-6.806192e-04
-2.792965e-04
2.228063e-04
-9.099283e-04
-9.389148e-04
-9.484003e-04
-9.405477e-04
-9.128338e-04
-8.595656e-04
-7.714860e-04
-6.355799e-04
-4.243921e-04
-9.872532e-05
2.280720e-04
-6.858013e-04
-7.325207e-04
-7.533467e-04
-7.512086e-04
-7.251644e-04
-6.720764e-04
-5.864861e-04
-4.599681e-04
-2.793926e-04
-3.443566e-05
1.847469e-04
-5.058207e-04
-5.619855e-04
-5.911966e-04
-5.937192e-04
-5.716027e-04
-5.248949e-04
-4.505499e-04
-3.440560e-04
-2.011693e-04
-2.268060e-05
1.281903e-04
-3.681296e-04
-4.257484e-04
-4.576066e-04
-4.640959e-04
-4.491207e-04
-4.125642e-04
-3.526713e-04
-2.689695e-04
-1.614412e-04
-3.316085e-05
7.123159e-05
-2.639476e-04
-3.172766e-04
-3.505125e-04
-3.627798e-04
-3.545725e-04
-3.279000e-04
-2.830808e-04
-2.209187e-04
-1.428184e-04
-5.332501e-05
1.707418e-05
-1.846494e-04
-2.341896e-04
-2.686331e-04
-2.844233e-04
-2.825786e-04
-2.656417e-04
-2.344356e-04
-1.904360e-04
-1.359251e-04
-7.609864e-05
-3.165643e-05
-1.263920e-04
-1.722650e-04
-2.063082e-04
-2.245833e-04
-2.286787e-04
-2.202895e-04
-2.008458e-04
-1.718668e-04
-1.355229e-04
-9.724005e-05
-7.079583e-05
-8.326140e-05
-1.252210e-04
-1.584110e-04
-1.796123e-04
-1.892284e-04
-1.880114e-04
-1.780338e-04
-1.606350e-04
-1.379000e-04
-1.155473e-04
-1.015910e-04
-4.742277e-05
-8.761245e-05
-1.231088e-04
-1.479811e-04
-1.617784e-04
-1.661022e-04
-1.630266e-04
-1.537208e-04
-1.408276e-04
-1.293778e-04
-1.243072e-04
-8.330204e-06
-5.629768e-05
-9.835477e-05
-1.279269e-04
-1.452345e-04
-1.533152e-04
-1.544962e-04
-1.500648e-04
-1.429585e-04
-1.379016e-04
-1.379386e-04
3.513475e-05
-2.950320e-05
-8.691473e-05
-1.208619e-04
-1.395952e-04
-1.491478e-04
-1.517561e-04
-1.488834e-04
-1.434941e-04
-1.406139e-04
-1.422291e-04
</DataArray>
</PointData>
</Piece>
</UnstructuredGrid>
</VTKFile>
