<?xml version="1.0"?>
<VTKFile type="UnstructuredGrid" version="0.1">
<UnstructuredGrid>
<FieldData>
<DataArray Name="TIME" type="Float64" format="ascii" NumberOfTuples="1">
0.000000e+00
</DataArray>
</FieldData>
<FieldData>
<DataArray Name="CYCLE" type="Int32" format="ascii" NumberOfTuples="1">
0
</DataArray>
</FieldData>
<Piece NumberOfPoints="187" NumberOfCells="160">
<Points>
<DataArray NumberOfComponents="3" type="Float64" format="ascii">
0.000000e+00 0.000000e+00 0.000000e+00
0.000000e+00 1.970320e-01 0.000000e+00
0.000000e+00 3.925913e-01 0.000000e+00
0.000000e+00 5.859050e-01 0.000000e+00
0.000000e+00 7.778006e-01 0.000000e+00
0.000000e+00 9.690815e-01 0.000000e+00
0.000000e+00 1.160194e+00 0.000000e+00
0.000000e+00 1.351496e+00 0.000000e+00
0.000000e+00 1.544140e+00 0.000000e+00
0.000000e+00 1.739681e+00 0.000000e+00
0.000000e+00 1.935875e+00 0.000000e+00
2.250000e-01 0.000000e+00 0.000000e+00
2.266131e-01 1.969842e-01 0.000000e+00
2.291761e-01 3.926380e-01 0.000000e+00
2.315825e-01 5.868864e-01 0.000000e+00
2.329061e-01 7.798265e-01 0.000000e+00
2.332902e-01 9.718797e-01 0.000000e+00
2.330658e-01 1.163512e+00 0.000000e+00
2.319736e-01 1.355170e+00 0.000000e+00
2.291038e-01 1.547037e+00 0.000000e+00
2.255469e-01 1.740091e+00 0.000000e+00
2.250000e-01 1.935875e+00 0.000000e+00
4.500000e-01 0.000000e+00 0.000000e+00
4.535325e-01 1.973093e-01 0.000000e+00
4.573621e-01 3.937970e-01 0.000000e+00
4.606373e-01 5.898772e-01 0.000000e+00
4.631156e-01 7.855042e-01 0.000000e+00
4.646070e-01 9.802858e-01 0.000000e+00
4.651220e-01 1.173961e+00 0.000000e+00
4.645506e-01 1.366343e+00 0.000000e+00
4.620337e-01 1.557107e+00 0.000000e+00
4.577100e-01 1.746679e+00 0.000000e+00
4.500000e-01 1.935875e+00 0.000000e+00
6.750000e-01 0.000000e+00 0.000000e+00
6.799265e-01 1.984875e-01 0.000000e+00
6.842037e-01 3.967861e-01 0.000000e+00
6.874952e-01 5.952248e-01 0.000000e+00
6.901597e-01 7.938887e-01 0.000000e+00
6.921238e-01 9.928403e-01 0.000000e+00
6.934282e-01 1.192083e+00 0.000000e+00
6.935505e-01 1.391763e+00 0.000000e+00
6.920964e-01 1.591932e+00 0.000000e+00
6.887207e-01 1.792298e+00 0.000000e+00
6.824787e-01 1.992409e+00 0.000000e+00
9.000000e-01 0.000000e+00 0.000000e+00
9.053628e-01 1.989196e-01 0.000000e+00
9.093143e-01 3.979186e-01 0.000000e+00
9.121640e-01 5.971703e-01 0.000000e+00
9.144731e-01 7.966962e-01 0.000000e+00
9.161164e-01 9.965013e-01 0.000000e+00
9.170081e-01 1.196677e+00 0.000000e+00
9.167742e-01 1.397179e+00 0.000000e+00
9.152107e-01 1.597873e+00 0.000000e+00
9.121629e-01 1.798510e+00 0.000000e+00
9.079722e-01 1.998566e+00 0.000000e+00
1.125000e+00 0.000000e+00 0.000000e+00
1.130416e+00 1.993597e-01 0.000000e+00
1.133784e+00 3.988948e-01 0.000000e+00
1.136294e+00 5.986880e-01 0.000000e+00
1.138275e+00 7.987285e-01 0.000000e+00
1.139585e+00 9.990442e-01 0.000000e+00
1.140158e+00 1.199633e+00 0.000000e+00
1.139786e+00 1.400446e+00 0.000000e+00
1.138372e+00 1.601316e+00 0.000000e+00
1.136069e+00 1.801917e+00 0.000000e+00
1.133522e+00 2.002005e+00 0.000000e+00
1.350000e+00 0.000000e+00 0.000000e+00
1.355067e+00 1.997159e-01 0.000000e+00
1.357939e+00 3.996012e-01 0.000000e+00
1.360136e+00 5.997081e-01 0.000000e+00
1.361793e+00 8.000563e-01 0.000000e+00
1.362853e+00 1.000640e+00 0.000000e+00
1.363238e+00 1.201450e+00 0.000000e+00
1.362852e+00 1.402390e+00 0.000000e+00
1.361759e+00 1.603263e+00 0.000000e+00
1.360222e+00 1.803812e+00 0.000000e+00
1.358739e+00 2.003947e+00 0.000000e+00
1.575000e+00 0.000000e+00 0.000000e+00
1.579459e+00 1.999431e-01 0.000000e+00
1.581945e+00 4.000330e-01 0.000000e+00
1.583829e+00 6.003411e-01 0.000000e+00
1.585227e+00 8.008615e-01 0.000000e+00
1.586090e+00 1.001597e+00 0.000000e+00
1.586367e+00 1.202495e+00 0.000000e+00
1.586076e+00 1.403433e+00 0.000000e+00
1.585353e+00 1.604234e+00 0.000000e+00
1.584438e+00 1.804752e+00 0.000000e+00
1.583672e+00 2.004949e+00 0.000000e+00
1.800000e+00 0.000000e+00 0.000000e+00
1.803736e+00 2.000428e-01 0.000000e+00
1.805880e+00 4.002725e-01 0.000000e+00
1.807497e+00 6.006890e-01 0.000000e+00
1.808669e+00 8.013008e-01 0.000000e+00
1.809374e+00 1.002091e+00 0.000000e+00
1.809621e+00 1.202976e+00 0.000000e+00
1.809482e+00 1.403844e+00 0.000000e+00
1.809094e+00 1.604569e+00 0.000000e+00
1.808636e+00 1.805072e+00 0.000000e+00
1.808347e+00 2.005338e+00 0.000000e+00
2.025000e+00 0.000000e+00 0.000000e+00
2.027994e+00 2.000756e-01 0.000000e+00
2.029822e+00 4.003663e-01 0.000000e+00
2.031201e+00 6.008362e-01 0.000000e+00
2.032180e+00 8.014726e-01 0.000000e+00
2.032775e+00 1.002234e+00 0.000000e+00
2.033040e+00 1.203047e+00 0.000000e+00
2.033052e+00 1.403829e+00 0.000000e+00
2.032916e+00 1.604496e+00 0.000000e+00
2.032776e+00 1.805004e+00 0.000000e+00
2.032787e+00 2.005347e+00 0.000000e+00
2.250000e+00 0.000000e+00 0.000000e+00
2.252302e+00 2.000732e-01 0.000000e+00
2.253828e+00 4.003698e-01 0.000000e+00
2.254983e+00 6.008362e-01 0.000000e+00
2.255805e+00 8.014405e-01 0.000000e+00
2.256331e+00 1.002132e+00 0.000000e+00
2.256620e+00 1.202859e+00 0.000000e+00
2.256743e+00 1.403565e+00 0.000000e+00
2.256778e+00 1.604192e+00 0.000000e+00
2.256837e+00 1.804714e+00 0.000000e+00
2.257019e+00 2.005135e+00 0.000000e+00
2.475000e+00 0.000000e+00 0.000000e+00
2.476696e+00 2.000499e-01 0.000000e+00
2.477929e+00 4.003140e-01 0.000000e+00
2.478878e+00 6.007341e-01 0.000000e+00
2.479568e+00 8.012729e-01 0.000000e+00
2.480037e+00 1.001888e+00 0.000000e+00
2.480336e+00 1.202540e+00 0.000000e+00
2.480520e+00 1.403184e+00 0.000000e+00
2.480654e+00 1.603783e+00 0.000000e+00
2.480820e+00 1.804321e+00 0.000000e+00
2.481079e+00 2.004812e+00 0.000000e+00
2.700000e+00 0.000000e+00 0.000000e+00
2.701193e+00 2.000199e-01 0.000000e+00
2.702145e+00 4.002250e-01 0.000000e+00
2.702899e+00 6.005770e-01 0.000000e+00
2.703465e+00 8.010455e-01 0.000000e+00
2.703872e+00 1.001592e+00 0.000000e+00
2.704154e+00 1.202180e+00 0.000000e+00
2.704358e+00 1.402777e+00 0.000000e+00
2.704533e+00 1.603357e+00 0.000000e+00
2.704736e+00 1.803913e+00 0.000000e+00
2.705006e+00 2.004458e+00 0.000000e+00
2.925000e+00 0.000000e+00 0.000000e+00
2.925798e+00 1.999856e-01 0.000000e+00
2.926484e+00 4.001291e-01 0.000000e+00
2.927044e+00 6.004131e-01 0.000000e+00
2.927483e+00 8.008170e-01 0.000000e+00
2.927812e+00 1.001305e+00 0.000000e+00
2.928050e+00 1.201844e+00 0.000000e+00
2.928237e+00 1.402406e+00 0.000000e+00
2.928408e+00 1.602974e+00 0.000000e+00
2.928600e+00 1.803545e+00 0.000000e+00
2.928835e+00 2.004133e+00 0.000000e+00
3.150000e+00 0.000000e+00 0.000000e+00
3.150489e+00 1.999547e-01 0.000000e+00
3.150927e+00 4.000501e-01 0.000000e+00
3.151299e+00 6.002829e-01 0.000000e+00
3.151597e+00 8.006318e-01 0.000000e+00
3.151828e+00 1.001075e+00 0.000000e+00
3.152002e+00 1.201577e+00 0.000000e+00
3.152143e+00 1.402115e+00 0.000000e+00
3.152276e+00 1.602674e+00 0.000000e+00
3.152422e+00 1.803257e+00 0.000000e+00
3.152591e+00 2.003876e+00 0.000000e+00
3.375000e+00 0.000000e+00 0.000000e+00
3.375233e+00 1.999356e-01 0.000000e+00
3.375445e+00 4.000036e-01 0.000000e+00
3.375631e+00 6.002048e-01 0.000000e+00
3.375780e+00 8.005210e-01 0.000000e+00
3.375899e+00 1.000932e+00 0.000000e+00
3.375991e+00 1.201409e+00 0.000000e+00
3.376066e+00 1.401930e+00 0.000000e+00
3.376139e+00 1.602484e+00 0.000000e+00
3.376217e+00 1.803073e+00 0.000000e+00
3.376305e+00 2.003710e+00 0.000000e+00
3.600000e+00 0.000000e+00 0.000000e+00
3.600000e+00 1.999413e-01 0.000000e+00
3.600000e+00 4.000027e-01 0.000000e+00
3.600000e+00 6.001929e-01 0.000000e+00
3.600000e+00 8.004964e-01 0.000000e+00
3.600000e+00 1.000892e+00 0.000000e+00
3.600000e+00 1.201357e+00 0.000000e+00
3.600000e+00 1.401869e+00 0.000000e+00
3.600000e+00 1.602417e+00 0.000000e+00
3.600000e+00 1.803006e+00 0.000000e+00
3.600000e+00 2.003646e+00 0.000000e+00
</DataArray>
</Points>
<Cells>
<DataArray Name="connectivity" type="Int32" format="ascii">
0 11 12 1
1 12 13 2
2 13 14 3
3 14 15 4
4 15 16 5
5 16 17 6
6 17 18 7
7 18 19 8
8 19 20 9
9 20 21 10
11 22 23 12
12 23 24 13
13 24 25 14
14 25 26 15
15 26 27 16
16 27 28 17
17 28 29 18
18 29 30 19
19 30 31 20
20 31 32 21
22 33 34 23
23 34 35 24
24 35 36 25
25 36 37 26
26 37 38 27
27 38 39 28
28 39 40 29
29 40 41 30
30 41 42 31
31 42 43 32
33 44 45 34
34 45 46 35
35 46 47 36
36 47 48 37
37 48 49 38
38 49 50 39
39 50 51 40
40 51 52 41
41 52 53 42
42 53 54 43
44 55 56 45
45 56 57 46
46 57 58 47
47 58 59 48
48 59 60 49
49 60 61 50
50 61 62 51
51 62 63 52
52 63 64 53
53 64 65 54
55 66 67 56
56 67 68 57
57 68 69 58
58 69 70 59
59 70 71 60
60 71 72 61
61 72 73 62
62 73 74 63
63 74 75 64
64 75 76 65
66 77 78 67
67 78 79 68
68 79 80 69
69 80 81 70
70 81 82 71
71 82 83 72
72 83 84 73
73 84 85 74
74 85 86 75
75 86 87 76
77 88 89 78
78 89 90 79
79 90 91 80
80 91 92 81
81 92 93 82
82 93 94 83
83 94 95 84
84 95 96 85
85 96 97 86
86 97 98 87
88 99 100 89
89 100 101 90
90 101 102 91
91 102 103 92
92 103 104 93
93 104 105 94
94 105 106 95
95 106 107 96
96 107 108 97
97 108 109 98
99 110 111 100
100 111 112 101
101 112 113 102
102 113 114 103
103 114 115 104
104 115 116 105
105 116 117 106
106 117 118 107
107 118 119 108
108 119 120 109
110 121 122 111
111 122 123 112
112 123 124 113
113 124 125 114
114 125 126 115
115 126 127 116
116 127 128 117
117 128 129 118
118 129 130 119
119 130 131 120
121 132 133 122
122 133 134 123
123 134 135 124
124 135 136 125
125 136 137 126
126 137 138 127
127 138 139 128
128 139 140 129
129 140 141 130
130 141 142 131
132 143 144 133
133 144 145 134
134 145 146 135
135 146 147 136
136 147 148 137
137 148 149 138
138 149 150 139
139 150 151 140
140 151 152 141
141 152 153 142
143 154 155 144
144 155 156 145
145 156 157 146
146 157 158 147
147 158 159 148
148 159 160 149
149 160 161 150
150 161 162 151
151 162 163 152
152 163 164 153
154 165 166 155
155 166 167 156
156 167 168 157
157 168 169 158
158 169 170 159
159 170 171 160
160 171 172 161
161 172 173 162
162 173 174 163
163 174 175 164
165 176 177 166
166 177 178 167
167 178 179 168
168 179 180 169
169 180 181 170
170 181 182 171
171 182 183 172
172 183 184 173
173 184 185 174
174 185 186 175
</DataArray>
<DataArray Name="offsets" type="Int32" format="ascii">
4
8
12
16
20
24
28
32
36
40
44
48
52
56
60
64
68
72
76
80
84
88
92
96
100
104
108
112
116
120
124
128
132
136
140
144
148
152
156
160
164
168
172
176
180
184
188
192
196
200
204
208
212
216
220
224
228
232
236
240
244
248
252
256
260
264
268
272
276
280
284
288
292
296
300
304
308
312
316
320
324
328
332
336
340
344
348
352
356
360
364
368
372
376
380
384
388
392
396
400
404
408
412
416
420
424
428
432
436
440
444
448
452
456
460
464
468
472
476
480
484
488
492
496
500
504
508
512
516
520
524
528
532
536
540
544
548
552
556
560
564
568
572
576
580
584
588
592
596
600
604
608
612
616
620
624
628
632
636
640
</DataArray>
<DataArray Name="types" type="UInt8" format="ascii">
9
9
9
9
9
9
9
9
9
9
9
9
9
9
9
9
9
9
9
9
9
9
9
9
9
9
9
9
9
9
9
9
9
9
9
9
9
9
9
9
9
9
9
9
9
9
9
9
9
9
9
9
9
9
9
9
9
9
9
9
9
9
9
9
9
9
9
9
9
9
9
9
9
9
9
9
9
9
9
9
9
9
9
9
9
9
9
9
9
9
9
9
9
9
9
9
9
9
9
9
9
9
9
9
9
9
9
9
9
9
9
9
9
9
9
9
9
9
9
9
9
9
9
9
9
9
9
9
9
9
9
9
9
9
9
9
9
9
9
9
9
9
9
9
9
9
9
9
9
9
9
9
9
9
9
9
9
9
9
9
</DataArray>
</Cells>
<PointData>
<DataArray Name="disp" type="Float64" NumberOfComponents="3" format="ascii">
0.000000e+00 0.000000e+00 0.000000e+00
0.000000e+00 -2.967990e-03 0.000000e+00
0.000000e+00 -7.408715e-03 0.000000e+00
0.000000e+00 -1.409498e-02 0.000000e+00
0.000000e+00 -2.219944e-02 0.000000e+00
0.000000e+00 -3.091856e-02 0.000000e+00
0.000000e+00 -3.980558e-02 0.000000e+00
0.000000e+00 -4.850405e-02 0.000000e+00
0.000000e+00 -5.586012e-02 0.000000e+00
0.000000e+00 -6.031892e-02 0.000000e+00
0.000000e+00 -6.412500e-02 0.000000e+00
0.000000e+00 0.000000e+00 0.000000e+00
1.613147e-03 -3.015792e-03 0.000000e+00
4.176081e-03 -7.361968e-03 0.000000e+00
6.582514e-03 -1.311358e-02 0.000000e+00
7.906093e-03 -2.017352e-02 0.000000e+00
8.290168e-03 -2.812026e-02 0.000000e+00
8.065812e-03 -3.648806e-02 0.000000e+00
6.973632e-03 -4.483037e-02 0.000000e+00
4.103805e-03 -5.296276e-02 0.000000e+00
5.469430e-04 -5.990896e-02 0.000000e+00
0.000000e+00 -6.412500e-02 0.000000e+00
0.000000e+00 0.000000e+00 0.000000e+00
3.532446e-03 -2.690682e-03 0.000000e+00
7.362086e-03 -6.203038e-03 0.000000e+00
1.063728e-02 -1.012277e-02 0.000000e+00
1.311564e-02 -1.449577e-02 0.000000e+00
1.460700e-02 -1.971421e-02 0.000000e+00
1.512196e-02 -2.603876e-02 0.000000e+00
1.455058e-02 -3.365675e-02 0.000000e+00
1.203365e-02 -4.289257e-02 0.000000e+00
7.709998e-03 -5.332055e-02 0.000000e+00
0.000000e+00 -6.412500e-02 0.000000e+00
0.000000e+00 0.000000e+00 0.000000e+00
4.926446e-03 -1.512503e-03 0.000000e+00
9.203667e-03 -3.213875e-03 0.000000e+00
1.249523e-02 -4.775191e-03 0.000000e+00
1.515971e-02 -6.111248e-03 0.000000e+00
1.712376e-02 -7.159716e-03 0.000000e+00
1.842817e-02 -7.917375e-03 0.000000e+00
1.855045e-02 -8.237307e-03 0.000000e+00
1.709644e-02 -8.068013e-03 0.000000e+00
1.372071e-02 -7.701803e-03 0.000000e+00
7.478716e-03 -7.590584e-03 0.000000e+00
0.000000e+00 0.000000e+00 0.000000e+00
5.362797e-03 -1.080388e-03 0.000000e+00
9.314274e-03 -2.081359e-03 0.000000e+00
1.216404e-02 -2.829692e-03 0.000000e+00
1.447308e-02 -3.303836e-03 0.000000e+00
1.611638e-02 -3.498753e-03 0.000000e+00
1.700809e-02 -3.323142e-03 0.000000e+00
1.677419e-02 -2.821160e-03 0.000000e+00
1.521074e-02 -2.127307e-03 0.000000e+00
1.216289e-02 -1.489625e-03 0.000000e+00
7.972183e-03 -1.434424e-03 0.000000e+00
0.000000e+00 0.000000e+00 0.000000e+00
5.415764e-03 -6.403021e-04 0.000000e+00
8.783872e-03 -1.105159e-03 0.000000e+00
1.129412e-02 -1.311995e-03 0.000000e+00
1.327458e-02 -1.271494e-03 0.000000e+00
1.458548e-02 -9.557900e-04 0.000000e+00
1.515811e-02 -3.672001e-04 0.000000e+00
1.478550e-02 4.463230e-04 0.000000e+00
1.337155e-02 1.315894e-03 0.000000e+00
1.106931e-02 1.916834e-03 0.000000e+00
8.522044e-03 2.004997e-03 0.000000e+00
0.000000e+00 0.000000e+00 0.000000e+00
5.066901e-03 -2.841290e-04 0.000000e+00
7.939395e-03 -3.988413e-04 0.000000e+00
1.013590e-02 -2.919014e-04 0.000000e+00
1.179304e-02 5.626070e-05 0.000000e+00
1.285322e-02 6.401464e-04 0.000000e+00
1.323776e-02 1.449962e-03 0.000000e+00
1.285179e-02 2.390344e-03 0.000000e+00
1.175901e-02 3.263165e-03 0.000000e+00
1.022199e-02 3.812156e-03 0.000000e+00
8.738901e-03 3.947413e-03 0.000000e+00
0.000000e+00 0.000000e+00 0.000000e+00
4.459347e-03 -5.686834e-05 0.000000e+00
6.944736e-03 3.303003e-05 0.000000e+00
8.828825e-03 3.411112e-04 0.000000e+00
1.022682e-02 8.614582e-04 0.000000e+00
1.108959e-02 1.597128e-03 0.000000e+00
1.136745e-02 2.494955e-03 0.000000e+00
1.107643e-02 3.432799e-03 0.000000e+00
1.035348e-02 4.234327e-03 0.000000e+00
9.438267e-03 4.752370e-03 0.000000e+00
8.671935e-03 4.948718e-03 0.000000e+00
0.000000e+00 0.000000e+00 0.000000e+00
3.736287e-03 4.280042e-05 0.000000e+00
5.879741e-03 2.724728e-04 0.000000e+00
7.496588e-03 6.890132e-04 0.000000e+00
8.668864e-03 1.300827e-03 0.000000e+00
9.373683e-03 2.090875e-03 0.000000e+00
9.621428e-03 2.976147e-03 0.000000e+00
9.482468e-03 3.843466e-03 0.000000e+00
9.094040e-03 4.569305e-03 0.000000e+00
8.636147e-03 5.072174e-03 0.000000e+00
8.347516e-03 5.338379e-03 0.000000e+00
0.000000e+00 0.000000e+00 0.000000e+00
2.994020e-03 7.562596e-05 0.000000e+00
4.822083e-03 3.663096e-04 0.000000e+00
6.200865e-03 8.361698e-04 0.000000e+00
7.179772e-03 1.472596e-03 0.000000e+00
7.775023e-03 2.233549e-03 0.000000e+00
8.039548e-03 3.046745e-03 0.000000e+00
8.051648e-03 3.828698e-03 0.000000e+00
7.916270e-03 4.496454e-03 0.000000e+00
7.775898e-03 5.004504e-03 0.000000e+00
7.786611e-03 5.347348e-03 0.000000e+00
0.000000e+00 0.000000e+00 0.000000e+00
2.302390e-03 7.318460e-05 0.000000e+00
3.828127e-03 3.698127e-04 0.000000e+00
4.983095e-03 8.361767e-04 0.000000e+00
5.805567e-03 1.440461e-03 0.000000e+00
6.330872e-03 2.132052e-03 0.000000e+00
6.620283e-03 2.858949e-03 0.000000e+00
6.743059e-03 3.564798e-03 0.000000e+00
6.777872e-03 4.192385e-03 0.000000e+00
6.836901e-03 4.714116e-03 0.000000e+00
7.018657e-03 5.134507e-03 0.000000e+00
0.000000e+00 0.000000e+00 0.000000e+00
1.696463e-03 4.985673e-05 0.000000e+00
2.929094e-03 3.140372e-04 0.000000e+00
3.877428e-03 7.340398e-04 0.000000e+00
4.567466e-03 1.272956e-03 0.000000e+00
5.037320e-03 1.887892e-03 0.000000e+00
5.335962e-03 2.540253e-03 0.000000e+00
5.520073e-03 3.184224e-03 0.000000e+00
5.654471e-03 3.782982e-03 0.000000e+00
5.819892e-03 4.321393e-03 0.000000e+00
6.079107e-03 4.811906e-03 0.000000e+00
0.000000e+00 0.000000e+00 0.000000e+00
1.193111e-03 1.988000e-05 0.000000e+00
2.144811e-03 2.250479e-04 0.000000e+00
2.899094e-03 5.769756e-04 0.000000e+00
3.465337e-03 1.045469e-03 0.000000e+00
3.872191e-03 1.591900e-03 0.000000e+00
4.154049e-03 2.180259e-03 0.000000e+00
4.357613e-03 2.777228e-03 0.000000e+00
4.533058e-03 3.356802e-03 0.000000e+00
4.736269e-03 3.912595e-03 0.000000e+00
5.006252e-03 4.458116e-03 0.000000e+00
0.000000e+00 0.000000e+00 0.000000e+00
7.977271e-04 -1.438505e-05 0.000000e+00
1.483615e-03 1.290510e-04 0.000000e+00
2.044443e-03 4.130897e-04 0.000000e+00
2.483388e-03 8.169896e-04 0.000000e+00
2.811519e-03 1.305088e-03 0.000000e+00
3.050144e-03 1.844149e-03 0.000000e+00
3.236798e-03 2.406144e-03 0.000000e+00
3.407859e-03 2.973847e-03 0.000000e+00
3.599845e-03 3.544537e-03 0.000000e+00
3.834697e-03 4.133015e-03 0.000000e+00
0.000000e+00 0.000000e+00 0.000000e+00
4.887956e-04 -4.531694e-05 0.000000e+00
9.270406e-04 5.007253e-05 0.000000e+00
1.299540e-03 2.829339e-04 0.000000e+00
1.596893e-03 6.317511e-04 0.000000e+00
1.828164e-03 1.074856e-03 0.000000e+00
2.001799e-03 1.577231e-03 0.000000e+00
2.143135e-03 2.114616e-03 0.000000e+00
2.276182e-03 2.674210e-03 0.000000e+00
2.422001e-03 3.256649e-03 0.000000e+00
2.591531e-03 3.875971e-03 0.000000e+00
0.000000e+00 0.000000e+00 0.000000e+00
2.331824e-04 -6.437449e-05 0.000000e+00
4.445712e-04 3.571868e-06 0.000000e+00
6.308693e-04 2.047953e-04 0.000000e+00
7.801207e-04 5.209908e-04 0.000000e+00
8.988376e-04 9.315946e-04 0.000000e+00
9.908715e-04 1.409097e-03 0.000000e+00
1.066186e-03 1.930283e-03 0.000000e+00
1.138767e-03 2.484207e-03 0.000000e+00
1.217035e-03 3.073198e-03 0.000000e+00
1.305402e-03 3.709763e-03 0.000000e+00
0.000000e+00 0.000000e+00 0.000000e+00
0.000000e+00 -5.866491e-05 0.000000e+00
0.000000e+00 2.671968e-06 0.000000e+00
0.000000e+00 1.928946e-04 0.000000e+00
0.000000e+00 4.963893e-04 0.000000e+00
0.000000e+00 8.916532e-04 0.000000e+00
0.000000e+00 1.357196e-03 0.000000e+00
0.000000e+00 1.869348e-03 0.000000e+00
0.000000e+00 2.417404e-03 0.000000e+00
0.000000e+00 3.005624e-03 0.000000e+00
0.000000e+00 3.645753e-03 0.000000e+00
</DataArray>
<DataArray Name="shear" type="Float64" NumberOfComponents="1" format="ascii">
1.761620e-02
2.671217e-02
4.587191e-02
6.446457e-02
7.594375e-02
8.059683e-02
7.995427e-02
7.162240e-02
5.074075e-02
2.799235e-02
2.071829e-02
1.948373e-02
2.824185e-02
4.344602e-02
5.738565e-02
6.854976e-02
7.619588e-02
7.954706e-02
7.701858e-02
6.623542e-02
4.731109e-02
3.240661e-02
2.395350e-02
3.063269e-02
3.955046e-02
4.711748e-02
5.701001e-02
6.958307e-02
8.336039e-02
9.614838e-02
1.074929e-01
1.122996e-01
1.111480e-01
2.690408e-02
2.902090e-02
3.096720e-02
3.338639e-02
3.812288e-02
4.540449e-02
5.497060e-02
6.604003e-02
7.944290e-02
9.315331e-02
1.037790e-01
2.784526e-02
2.584591e-02
2.205185e-02
2.073505e-02
2.081751e-02
2.087468e-02
2.033711e-02
1.834670e-02
1.441423e-02
7.255466e-03
7.497144e-04
2.757751e-02
2.377441e-02
1.855643e-02
1.736509e-02
1.710320e-02
1.679663e-02
1.610378e-02
1.444232e-02
1.119978e-02
5.604792e-03
1.515666e-03
2.561386e-02
2.114498e-02
1.575750e-02
1.486040e-02
1.465356e-02
1.450404e-02
1.409463e-02
1.281829e-02
9.987528e-03
5.384127e-03
2.084796e-03
2.248228e-02
1.830993e-02
1.361410e-02
1.304782e-02
1.307428e-02
1.316506e-02
1.287890e-02
1.166991e-02
9.179562e-03
5.491601e-03
2.933651e-03
1.882466e-02
1.547014e-02
1.192913e-02
1.162783e-02
1.184441e-02
1.203472e-02
1.174047e-02
1.062370e-02
8.589935e-03
5.799006e-03
3.966355e-03
1.511325e-02
1.275081e-02
1.042391e-02
1.036058e-02
1.065320e-02
1.084239e-02
1.059577e-02
9.722154e-03
8.222711e-03
6.263387e-03
5.058490e-03
1.164595e-02
1.019443e-02
8.937225e-03
9.090641e-03
9.445433e-03
9.668580e-03
9.562098e-03
9.007164e-03
8.021015e-03
6.795048e-03
6.097921e-03
8.599481e-03
7.858231e-03
7.435712e-03
7.813473e-03
8.295704e-03
8.638386e-03
8.715129e-03
8.461536e-03
7.924061e-03
7.300687e-03
6.993613e-03
6.059030e-03
5.788540e-03
5.966061e-03
6.611775e-03
7.281864e-03
7.782959e-03
8.047177e-03
8.058981e-03
7.893064e-03
7.728254e-03
7.700440e-03
4.039622e-03
4.030970e-03
4.636132e-03
5.563137e-03
6.440313e-03
7.107962e-03
7.541256e-03
7.774469e-03
7.900118e-03
8.069388e-03
8.236026e-03
2.460637e-03
2.611804e-03
3.573110e-03
4.742250e-03
5.792530e-03
6.609549e-03
7.180494e-03
7.583191e-03
7.920656e-03
8.317590e-03
8.608996e-03
1.176712e-03
1.546068e-03
2.870172e-03
4.222197e-03
5.373627e-03
6.280812e-03
6.948662e-03
7.459958e-03
7.928198e-03
8.457161e-03
8.816046e-03
3.994970e-04
1.098540e-03
2.622686e-03
4.039813e-03
5.220380e-03
6.155323e-03
6.860354e-03
7.408546e-03
7.922091e-03
8.496419e-03
8.877598e-03
</DataArray>
<DataArray Name="stress" type="Float64" NumberOfComponents="9" format="ascii">
-1.177478e+05 5.695354e+03 0.000000e+00 5.695354e+03 -2.023209e+05 0.000000e+00 0.000000e+00 0.000000e+00 0.000000e+00
-1.037446e+05 4.381952e+03 0.000000e+00 4.381952e+03 -2.027738e+05 0.000000e+00 0.000000e+00 0.000000e+00 0.000000e+00
-1.065971e+05 2.455315e+03 0.000000e+00 2.455315e+03 -2.098258e+05 0.000000e+00 0.000000e+00 0.000000e+00 0.000000e+00
-1.133452e+05 3.594725e+03 0.000000e+00 3.594725e+03 -2.139668e+05 0.000000e+00 0.000000e+00 0.000000e+00 0.000000e+00
-1.165879e+05 5.643708e+03 0.000000e+00 5.643708e+03 -2.235292e+05 0.000000e+00 0.000000e+00 0.000000e+00 0.000000e+00
-1.222664e+05 7.751528e+03 0.000000e+00 7.751528e+03 -2.347541e+05 0.000000e+00 0.000000e+00 0.000000e+00 0.000000e+00
-1.290188e+05 9.851534e+03 0.000000e+00 9.851534e+03 -2.479769e+05 0.000000e+00 0.000000e+00 0.000000e+00 0.000000e+00
-1.381967e+05 1.023489e+04 0.000000e+00 1.023489e+04 -2.597755e+05 0.000000e+00 0.000000e+00 0.000000e+00 0.000000e+00
-1.410330e+05 5.316218e+03 0.000000e+00 5.316218e+03 -2.705902e+05 0.000000e+00 0.000000e+00 0.000000e+00 0.000000e+00
-1.480192e+05 -1.043182e+03 0.000000e+00 -1.043182e+03 -2.789484e+05 0.000000e+00 0.000000e+00 0.000000e+00 0.000000e+00
-1.546704e+05 -5.097602e+02 0.000000e+00 -5.097602e+02 -2.693411e+05 0.000000e+00 0.000000e+00 0.000000e+00 0.000000e+00
-1.189963e+05 1.682104e+04 0.000000e+00 1.682104e+04 -1.967321e+05 0.000000e+00 0.000000e+00 0.000000e+00 0.000000e+00
-1.046454e+05 1.441701e+04 0.000000e+00 1.441701e+04 -1.937469e+05 0.000000e+00 0.000000e+00 0.000000e+00 0.000000e+00
-1.039906e+05 1.276158e+04 0.000000e+00 1.276158e+04 -2.050440e+05 0.000000e+00 0.000000e+00 0.000000e+00 0.000000e+00
-1.111421e+05 1.256944e+04 0.000000e+00 1.256944e+04 -2.157331e+05 0.000000e+00 0.000000e+00 0.000000e+00 0.000000e+00
-1.175746e+05 1.290186e+04 0.000000e+00 1.290186e+04 -2.274664e+05 0.000000e+00 0.000000e+00 0.000000e+00 0.000000e+00
-1.238692e+05 1.382393e+04 0.000000e+00 1.382393e+04 -2.382764e+05 0.000000e+00 0.000000e+00 0.000000e+00 0.000000e+00
-1.292677e+05 1.436093e+04 0.000000e+00 1.436093e+04 -2.474286e+05 0.000000e+00 0.000000e+00 0.000000e+00 0.000000e+00
-1.362034e+05 1.287239e+04 0.000000e+00 1.287239e+04 -2.550330e+05 0.000000e+00 0.000000e+00 0.000000e+00 0.000000e+00
-1.404884e+05 6.930236e+03 0.000000e+00 6.930236e+03 -2.664229e+05 0.000000e+00 0.000000e+00 0.000000e+00 0.000000e+00
-1.432064e+05 -1.504161e+03 0.000000e+00 -1.504161e+03 -2.702286e+05 0.000000e+00 0.000000e+00 0.000000e+00 0.000000e+00
-1.647431e+05 -7.556464e+03 0.000000e+00 -7.556464e+03 -3.041788e+05 0.000000e+00 0.000000e+00 0.000000e+00 0.000000e+00
-1.177470e+05 2.858826e+04 0.000000e+00 2.858826e+04 -1.730162e+05 0.000000e+00 0.000000e+00 0.000000e+00 0.000000e+00
-1.046971e+05 2.541016e+04 0.000000e+00 2.541016e+04 -1.662796e+05 0.000000e+00 0.000000e+00 0.000000e+00 0.000000e+00
-1.042475e+05 2.547724e+04 0.000000e+00 2.547724e+04 -1.741927e+05 0.000000e+00 0.000000e+00 0.000000e+00 0.000000e+00
-1.106324e+05 2.674727e+04 0.000000e+00 2.674727e+04 -1.844079e+05 0.000000e+00 0.000000e+00 0.000000e+00 0.000000e+00
-1.183023e+05 2.815303e+04 0.000000e+00 2.815303e+04 -1.946207e+05 0.000000e+00 0.000000e+00 0.000000e+00 0.000000e+00
-1.285216e+05 3.045331e+04 0.000000e+00 3.045331e+04 -2.066412e+05 0.000000e+00 0.000000e+00 0.000000e+00 0.000000e+00
-1.408571e+05 3.280700e+04 0.000000e+00 3.280700e+04 -2.217812e+05 0.000000e+00 0.000000e+00 0.000000e+00 0.000000e+00
-1.558390e+05 3.361451e+04 0.000000e+00 3.361451e+04 -2.380387e+05 0.000000e+00 0.000000e+00 0.000000e+00 0.000000e+00
-1.628346e+05 3.286100e+04 0.000000e+00 3.286100e+04 -2.544273e+05 0.000000e+00 0.000000e+00 0.000000e+00 0.000000e+00
-1.726640e+05 2.444988e+04 0.000000e+00 2.444988e+04 -2.716699e+05 0.000000e+00 0.000000e+00 0.000000e+00 0.000000e+00
-1.952958e+05 6.111683e+03 0.000000e+00 6.111683e+03 -3.189691e+05 0.000000e+00 0.000000e+00 0.000000e+00 0.000000e+00
-1.079151e+05 3.001121e+04 0.000000e+00 3.001121e+04 -1.352857e+05 0.000000e+00 0.000000e+00 0.000000e+00 0.000000e+00
-9.895234e+04 2.767136e+04 0.000000e+00 2.767136e+04 -1.294109e+05 0.000000e+00 0.000000e+00 0.000000e+00 0.000000e+00
-1.001119e+05 2.811843e+04 0.000000e+00 2.811843e+04 -1.300079e+05 0.000000e+00 0.000000e+00 0.000000e+00 0.000000e+00
-1.063732e+05 2.961217e+04 0.000000e+00 2.961217e+04 -1.298252e+05 0.000000e+00 0.000000e+00 0.000000e+00 0.000000e+00
-1.118902e+05 3.123338e+04 0.000000e+00 3.123338e+04 -1.283315e+05 0.000000e+00 0.000000e+00 0.000000e+00 0.000000e+00
-1.156663e+05 3.191984e+04 0.000000e+00 3.191984e+04 -1.248944e+05 0.000000e+00 0.000000e+00 0.000000e+00 0.000000e+00
-1.188297e+05 3.215938e+04 0.000000e+00 3.215938e+04 -1.190855e+05 0.000000e+00 0.000000e+00 0.000000e+00 0.000000e+00
-1.177220e+05 2.856695e+04 0.000000e+00 2.856695e+04 -1.092576e+05 0.000000e+00 0.000000e+00 0.000000e+00 0.000000e+00
-1.088150e+05 2.251192e+04 0.000000e+00 2.251192e+04 -9.725058e+04 0.000000e+00 0.000000e+00 0.000000e+00 0.000000e+00
-8.876118e+04 1.491812e+04 0.000000e+00 1.491812e+04 -8.162014e+04 0.000000e+00 0.000000e+00 0.000000e+00 0.000000e+00
-5.958115e+04 8.211695e+03 0.000000e+00 8.211695e+03 -6.479248e+04 0.000000e+00 0.000000e+00 0.000000e+00 0.000000e+00
-1.031904e+05 2.918341e+04 0.000000e+00 2.918341e+04 -1.152297e+05 0.000000e+00 0.000000e+00 0.000000e+00 0.000000e+00
-9.896365e+04 2.768574e+04 0.000000e+00 2.768574e+04 -1.127289e+05 0.000000e+00 0.000000e+00 0.000000e+00 0.000000e+00
-1.037588e+05 2.811648e+04 0.000000e+00 2.811648e+04 -1.135681e+05 0.000000e+00 0.000000e+00 0.000000e+00 0.000000e+00
-1.113159e+05 2.891893e+04 0.000000e+00 2.891893e+04 -1.116852e+05 0.000000e+00 0.000000e+00 0.000000e+00 0.000000e+00
-1.180703e+05 2.909036e+04 0.000000e+00 2.909036e+04 -1.078663e+05 0.000000e+00 0.000000e+00 0.000000e+00 0.000000e+00
-1.228685e+05 2.810109e+04 0.000000e+00 2.810109e+04 -1.019886e+05 0.000000e+00 0.000000e+00 0.000000e+00 0.000000e+00
-1.267595e+05 2.555526e+04 0.000000e+00 2.555526e+04 -9.487383e+04 0.000000e+00 0.000000e+00 0.000000e+00 0.000000e+00
-1.266228e+05 2.071319e+04 0.000000e+00 2.071319e+04 -8.638442e+04 0.000000e+00 0.000000e+00 0.000000e+00 0.000000e+00
-1.195888e+05 1.365852e+04 0.000000e+00 1.365852e+04 -7.715272e+04 0.000000e+00 0.000000e+00 0.000000e+00 0.000000e+00
-9.777876e+04 4.662089e+03 0.000000e+00 4.662089e+03 -6.892738e+04 0.000000e+00 0.000000e+00 0.000000e+00 0.000000e+00
-6.024265e+04 -8.001711e+01 0.000000e+00 -8.001711e+01 -5.636762e+04 0.000000e+00 0.000000e+00 0.000000e+00 0.000000e+00
-9.715564e+04 2.739075e+04 0.000000e+00 2.739075e+04 -1.004813e+05 0.000000e+00 0.000000e+00 0.000000e+00 0.000000e+00
-9.726812e+04 2.691938e+04 0.000000e+00 2.691938e+04 -1.000625e+05 0.000000e+00 0.000000e+00 0.000000e+00 0.000000e+00
-1.041656e+05 2.635257e+04 0.000000e+00 2.635257e+04 -9.902676e+04 0.000000e+00 0.000000e+00 0.000000e+00 0.000000e+00
-1.114494e+05 2.532996e+04 0.000000e+00 2.532996e+04 -9.518831e+04 0.000000e+00 0.000000e+00 0.000000e+00 0.000000e+00
-1.170730e+05 2.383524e+04 0.000000e+00 2.383524e+04 -9.095062e+04 0.000000e+00 0.000000e+00 0.000000e+00 0.000000e+00
-1.208002e+05 2.140812e+04 0.000000e+00 2.140812e+04 -8.577945e+04 0.000000e+00 0.000000e+00 0.000000e+00 0.000000e+00
-1.227385e+05 1.751313e+04 0.000000e+00 1.751313e+04 -7.988380e+04 0.000000e+00 0.000000e+00 0.000000e+00 0.000000e+00
-1.201249e+05 1.177192e+04 0.000000e+00 1.177192e+04 -7.341970e+04 0.000000e+00 0.000000e+00 0.000000e+00 0.000000e+00
-1.110530e+05 4.569102e+03 0.000000e+00 4.569102e+03 -6.723156e+04 0.000000e+00 0.000000e+00 0.000000e+00 0.000000e+00
-8.929402e+04 -1.623772e+03 0.000000e+00 -1.623772e+03 -6.245665e+04 0.000000e+00 0.000000e+00 0.000000e+00 0.000000e+00
-6.063496e+04 -3.368143e+03 0.000000e+00 -3.368143e+03 -5.589129e+04 0.000000e+00 0.000000e+00 0.000000e+00 0.000000e+00
-8.930252e+04 2.498959e+04 0.000000e+00 2.498959e+04 -8.852055e+04 0.000000e+00 0.000000e+00 0.000000e+00 0.000000e+00
-9.529752e+04 2.501191e+04 0.000000e+00 2.501191e+04 -8.990863e+04 0.000000e+00 0.000000e+00 0.000000e+00 0.000000e+00
-1.033153e+05 2.319712e+04 0.000000e+00 2.319712e+04 -8.724945e+04 0.000000e+00 0.000000e+00 0.000000e+00 0.000000e+00
-1.099049e+05 2.140605e+04 0.000000e+00 2.140605e+04 -8.391762e+04 0.000000e+00 0.000000e+00 0.000000e+00 0.000000e+00
-1.146992e+05 1.900622e+04 0.000000e+00 1.900622e+04 -8.018276e+04 0.000000e+00 0.000000e+00 0.000000e+00 0.000000e+00
-1.172291e+05 1.564073e+04 0.000000e+00 1.564073e+04 -7.566755e+04 0.000000e+00 0.000000e+00 0.000000e+00 0.000000e+00
-1.172719e+05 1.107586e+04 0.000000e+00 1.107586e+04 -7.091032e+04 0.000000e+00 0.000000e+00 0.000000e+00 0.000000e+00
-1.131362e+05 5.355580e+03 0.000000e+00 5.355580e+03 -6.628692e+04 0.000000e+00 0.000000e+00 0.000000e+00 0.000000e+00
-1.038042e+05 -4.970535e+02 0.000000e+00 -4.970535e+02 -6.260988e+04 0.000000e+00 0.000000e+00 0.000000e+00 0.000000e+00
-8.646990e+04 -3.543819e+03 0.000000e+00 -3.543819e+03 -6.038683e+04 0.000000e+00 0.000000e+00 0.000000e+00 0.000000e+00
-6.743002e+04 -3.606234e+03 0.000000e+00 -3.606234e+03 -5.692372e+04 0.000000e+00 0.000000e+00 0.000000e+00 0.000000e+00
-8.270061e+04 2.287493e+04 0.000000e+00 2.287493e+04 -7.984950e+04 0.000000e+00 0.000000e+00 0.000000e+00 0.000000e+00
-9.294924e+04 2.273871e+04 0.000000e+00 2.273871e+04 -8.203073e+04 0.000000e+00 0.000000e+00 0.000000e+00 0.000000e+00
-1.014601e+05 2.019866e+04 0.000000e+00 2.019866e+04 -7.912480e+04 0.000000e+00 0.000000e+00 0.000000e+00 0.000000e+00
-1.074369e+05 1.780395e+04 0.000000e+00 1.780395e+04 -7.613826e+04 0.000000e+00 0.000000e+00 0.000000e+00 0.000000e+00
-1.112970e+05 1.468589e+04 0.000000e+00 1.468589e+04 -7.274039e+04 0.000000e+00 0.000000e+00 0.000000e+00 0.000000e+00
-1.128075e+05 1.087062e+04 0.000000e+00 1.087062e+04 -6.912361e+04 0.000000e+00 0.000000e+00 0.000000e+00 0.000000e+00
-1.116671e+05 6.286488e+03 0.000000e+00 6.286488e+03 -6.555452e+04 0.000000e+00 0.000000e+00 0.000000e+00 0.000000e+00
-1.071822e+05 1.338541e+03 0.000000e+00 1.338541e+03 -6.246010e+04 0.000000e+00 0.000000e+00 0.000000e+00 0.000000e+00
-9.904351e+04 -2.708827e+03 0.000000e+00 -2.708827e+03 -6.046634e+04 0.000000e+00 0.000000e+00 0.000000e+00 0.000000e+00
-8.659957e+04 -3.857398e+03 0.000000e+00 -3.857398e+03 -5.966352e+04 0.000000e+00 0.000000e+00 0.000000e+00 0.000000e+00
-7.458025e+04 -3.158447e+03 0.000000e+00 -3.158447e+03 -5.759853e+04 0.000000e+00 0.000000e+00 0.000000e+00 0.000000e+00
-7.807707e+04 2.081923e+04 0.000000e+00 2.081923e+04 -7.368986e+04 0.000000e+00 0.000000e+00 0.000000e+00 0.000000e+00
-9.002803e+04 2.043124e+04 0.000000e+00 2.043124e+04 -7.595445e+04 0.000000e+00 0.000000e+00 0.000000e+00 0.000000e+00
-9.882190e+04 1.744512e+04 0.000000e+00 1.744512e+04 -7.311812e+04 0.000000e+00 0.000000e+00 0.000000e+00 0.000000e+00
-1.042970e+05 1.447078e+04 0.000000e+00 1.447078e+04 -7.042042e+04 0.000000e+00 0.000000e+00 0.000000e+00 0.000000e+00
-1.073642e+05 1.109679e+04 0.000000e+00 1.109679e+04 -6.765167e+04 0.000000e+00 0.000000e+00 0.000000e+00 0.000000e+00
-1.082260e+05 7.214546e+03 0.000000e+00 7.214546e+03 -6.488816e+04 0.000000e+00 0.000000e+00 0.000000e+00 0.000000e+00
-1.066681e+05 2.997741e+03 0.000000e+00 2.997741e+03 -6.233910e+04 0.000000e+00 0.000000e+00 0.000000e+00 0.000000e+00
-1.026964e+05 -9.023729e+02 0.000000e+00 -9.023729e+02 -6.044681e+04 0.000000e+00 0.000000e+00 0.000000e+00 0.000000e+00
-9.635798e+04 -3.513095e+03 0.000000e+00 -3.513095e+03 -5.954116e+04 0.000000e+00 0.000000e+00 0.000000e+00 0.000000e+00
-8.806726e+04 -3.545261e+03 0.000000e+00 -3.545261e+03 -5.942962e+04 0.000000e+00 0.000000e+00 0.000000e+00 0.000000e+00
-8.082896e+04 -2.505550e+03 0.000000e+00 -2.505550e+03 -5.826610e+04 0.000000e+00 0.000000e+00 0.000000e+00 0.000000e+00
-7.466995e+04 1.885433e+04 0.000000e+00 1.885433e+04 -6.907038e+04 0.000000e+00 0.000000e+00 0.000000e+00 0.000000e+00
-8.682643e+04 1.818789e+04 0.000000e+00 1.818789e+04 -7.125270e+04 0.000000e+00 0.000000e+00 0.000000e+00 0.000000e+00
-9.560322e+04 1.487436e+04 0.000000e+00 1.487436e+04 -6.858155e+04 0.000000e+00 0.000000e+00 0.000000e+00 0.000000e+00
-1.007442e+05 1.168015e+04 0.000000e+00 1.168015e+04 -6.631577e+04 0.000000e+00 0.000000e+00 0.000000e+00 0.000000e+00
-1.034352e+05 8.263968e+03 0.000000e+00 8.263968e+03 -6.412674e+04 0.000000e+00 0.000000e+00 0.000000e+00 0.000000e+00
-1.039590e+05 4.587008e+03 0.000000e+00 4.587008e+03 -6.205324e+04 0.000000e+00 0.000000e+00 0.000000e+00 0.000000e+00
-1.025144e+05 9.757983e+02 0.000000e+00 9.757983e+02 -6.038655e+04 0.000000e+00 0.000000e+00 0.000000e+00 0.000000e+00
-9.942743e+04 -1.974023e+03 0.000000e+00 -1.974023e+03 -5.935761e+04 0.000000e+00 0.000000e+00 0.000000e+00 0.000000e+00
-9.501219e+04 -3.567155e+03 0.000000e+00 -3.567155e+03 -5.914537e+04 0.000000e+00 0.000000e+00 0.000000e+00 0.000000e+00
-8.999252e+04 -3.004033e+03 0.000000e+00 -3.004033e+03 -5.939229e+04 0.000000e+00 0.000000e+00 0.000000e+00 0.000000e+00
-8.597552e+04 -1.885161e+03 0.000000e+00 -1.885161e+03 -5.884821e+04 0.000000e+00 0.000000e+00 0.000000e+00 0.000000e+00
-7.170543e+04 1.669460e+04 0.000000e+00 1.669460e+04 -6.596571e+04 0.000000e+00 0.000000e+00 0.000000e+00 0.000000e+00
-8.334896e+04 1.596751e+04 0.000000e+00 1.596751e+04 -6.778884e+04 0.000000e+00 0.000000e+00 0.000000e+00 0.000000e+00
-9.221085e+04 1.259951e+04 0.000000e+00 1.259951e+04 -6.538286e+04 0.000000e+00 0.000000e+00 0.000000e+00 0.000000e+00
-9.716846e+04 9.420116e+03 0.000000e+00 9.420116e+03 -6.349065e+04 0.000000e+00 0.000000e+00 0.000000e+00 0.000000e+00
-9.964731e+04 6.124308e+03 0.000000e+00 6.124308e+03 -6.174895e+04 0.000000e+00 0.000000e+00 0.000000e+00 0.000000e+00
-1.001653e+05 2.819361e+03 0.000000e+00 2.819361e+03 -6.025700e+04 0.000000e+00 0.000000e+00 0.000000e+00 0.000000e+00
-9.918781e+04 -1.519956e+02 0.000000e+00 -1.519956e+02 -5.927766e+04 0.000000e+00 0.000000e+00 0.000000e+00 0.000000e+00
-9.716414e+04 -2.317088e+03 0.000000e+00 -2.317088e+03 -5.886131e+04 0.000000e+00 0.000000e+00 0.000000e+00 0.000000e+00
-9.456090e+04 -3.189938e+03 0.000000e+00 -3.189938e+03 -5.903737e+04 0.000000e+00 0.000000e+00 0.000000e+00 0.000000e+00
-9.195440e+04 -2.405513e+03 0.000000e+00 -2.405513e+03 -5.945347e+04 0.000000e+00 0.000000e+00 0.000000e+00 0.000000e+00
-9.003573e+04 -1.370245e+03 0.000000e+00 -1.370245e+03 -5.931679e+04 0.000000e+00 0.000000e+00 0.000000e+00 0.000000e+00
-6.911605e+04 1.452215e+04 0.000000e+00 1.452215e+04 -6.423387e+04 0.000000e+00 0.000000e+00 0.000000e+00 0.000000e+00
-7.996950e+04 1.374539e+04 0.000000e+00 1.374539e+04 -6.554270e+04 0.000000e+00 0.000000e+00 0.000000e+00 0.000000e+00
-8.884700e+04 1.059265e+04 0.000000e+00 1.059265e+04 -6.333738e+04 0.000000e+00 0.000000e+00 0.000000e+00 0.000000e+00
-9.372096e+04 7.566178e+03 0.000000e+00 7.566178e+03 -6.171122e+04 0.000000e+00 0.000000e+00 0.000000e+00 0.000000e+00
-9.616878e+04 4.540275e+03 0.000000e+00 4.540275e+03 -6.033443e+04 0.000000e+00 0.000000e+00 0.000000e+00 0.000000e+00
-9.689286e+04 1.680943e+03 0.000000e+00 1.680943e+03 -5.930971e+04 0.000000e+00 0.000000e+00 0.000000e+00 0.000000e+00
-9.657809e+04 -6.743835e+02 0.000000e+00 -6.743835e+02 -5.876281e+04 0.000000e+00 0.000000e+00 0.000000e+00 0.000000e+00
-9.568701e+04 -2.209609e+03 0.000000e+00 -2.209609e+03 -5.873077e+04 0.000000e+00 0.000000e+00 0.000000e+00 0.000000e+00
-9.459895e+04 -2.637894e+03 0.000000e+00 -2.637894e+03 -5.908358e+04 0.000000e+00 0.000000e+00 0.000000e+00 0.000000e+00
-9.369588e+04 -1.851451e+03 0.000000e+00 -1.851451e+03 -5.955073e+04 0.000000e+00 0.000000e+00 0.000000e+00 0.000000e+00
-9.317810e+04 -9.803369e+02 0.000000e+00 -9.803369e+02 -5.967989e+04 0.000000e+00 0.000000e+00 0.000000e+00 0.000000e+00
-6.743385e+04 1.218408e+04 0.000000e+00 1.218408e+04 -6.355687e+04 0.000000e+00 0.000000e+00 0.000000e+00 0.000000e+00
-7.704768e+04 1.140044e+04 0.000000e+00 1.140044e+04 -6.424414e+04 0.000000e+00 0.000000e+00 0.000000e+00 0.000000e+00
-8.570853e+04 8.741765e+03 0.000000e+00 8.741765e+03 -6.219840e+04 0.000000e+00 0.000000e+00 0.000000e+00 0.000000e+00
-9.053912e+04 6.012312e+03 0.000000e+00 6.012312e+03 -6.072245e+04 0.000000e+00 0.000000e+00 0.000000e+00 0.000000e+00
-9.308359e+04 3.347533e+03 0.000000e+00 3.347533e+03 -5.956804e+04 0.000000e+00 0.000000e+00 0.000000e+00 0.000000e+00
-9.422855e+04 9.848597e+02 0.000000e+00 9.848597e+02 -5.884329e+04 0.000000e+00 0.000000e+00 0.000000e+00 0.000000e+00
-9.464215e+04 -8.166333e+02 0.000000e+00 -8.166333e+02 -5.859075e+04 0.000000e+00 0.000000e+00 0.000000e+00 0.000000e+00
-9.476306e+04 -1.873315e+03 0.000000e+00 -1.873315e+03 -5.875340e+04 0.000000e+00 0.000000e+00 0.000000e+00 0.000000e+00
-9.484077e+04 -2.052972e+03 0.000000e+00 -2.052972e+03 -5.916295e+04 0.000000e+00 0.000000e+00 0.000000e+00 0.000000e+00
-9.512731e+04 -1.360183e+03 0.000000e+00 -1.360183e+03 -5.960845e+04 0.000000e+00 0.000000e+00 0.000000e+00 0.000000e+00
-9.556422e+04 -6.692375e+02 0.000000e+00 -6.692375e+02 -5.992202e+04 0.000000e+00 0.000000e+00 0.000000e+00 0.000000e+00
-6.649028e+04 9.684041e+03 0.000000e+00 9.684041e+03 -6.380032e+04 0.000000e+00 0.000000e+00 0.000000e+00 0.000000e+00
-7.479122e+04 8.968705e+03 0.000000e+00 8.968705e+03 -6.384423e+04 0.000000e+00 0.000000e+00 0.000000e+00 0.000000e+00
-8.299220e+04 6.846953e+03 0.000000e+00 6.846953e+03 -6.178628e+04 0.000000e+00 0.000000e+00 0.000000e+00 0.000000e+00
-8.777959e+04 4.553095e+03 0.000000e+00 4.553095e+03 -6.024976e+04 0.000000e+00 0.000000e+00 0.000000e+00 0.000000e+00
-9.051673e+04 2.389409e+03 0.000000e+00 2.389409e+03 -5.919009e+04 0.000000e+00 0.000000e+00 0.000000e+00 0.000000e+00
-9.215852e+04 5.682623e+02 0.000000e+00 5.682623e+02 -5.863595e+04 0.000000e+00 0.000000e+00 0.000000e+00 0.000000e+00
-9.326084e+04 -7.377378e+02 0.000000e+00 -7.377378e+02 -5.855471e+04 0.000000e+00 0.000000e+00 0.000000e+00 0.000000e+00
-9.419275e+04 -1.432264e+03 0.000000e+00 -1.432264e+03 -5.881995e+04 0.000000e+00 0.000000e+00 0.000000e+00 0.000000e+00
-9.513498e+04 -1.482831e+03 0.000000e+00 -1.482831e+03 -5.925528e+04 0.000000e+00 0.000000e+00 0.000000e+00 0.000000e+00
-9.621609e+04 -9.305528e+02 0.000000e+00 -9.305528e+02 -5.967331e+04 0.000000e+00 0.000000e+00 0.000000e+00 0.000000e+00
-9.726252e+04 -4.232581e+02 0.000000e+00 -4.232581e+02 -6.010250e+04 0.000000e+00 0.000000e+00 0.000000e+00 0.000000e+00
-6.584561e+04 6.734689e+03 0.000000e+00 6.734689e+03 -6.449647e+04 0.000000e+00 0.000000e+00 0.000000e+00 0.000000e+00
-7.307882e+04 6.208917e+03 0.000000e+00 6.208917e+03 -6.404950e+04 0.000000e+00 0.000000e+00 0.000000e+00 0.000000e+00
-8.078454e+04 4.719952e+03 0.000000e+00 4.719952e+03 -6.177042e+04 0.000000e+00 0.000000e+00 0.000000e+00 0.000000e+00
-8.561873e+04 3.054357e+03 0.000000e+00 3.054357e+03 -6.009640e+04 0.000000e+00 0.000000e+00 0.000000e+00 0.000000e+00
-8.862617e+04 1.536653e+03 0.000000e+00 1.536653e+03 -5.906813e+04 0.000000e+00 0.000000e+00 0.000000e+00 0.000000e+00
-9.066070e+04 3.155053e+02 0.000000e+00 3.155053e+02 -5.861545e+04 0.000000e+00 0.000000e+00 0.000000e+00 0.000000e+00
-9.233238e+04 -5.351124e+02 0.000000e+00 -5.351124e+02 -5.862152e+04 0.000000e+00 0.000000e+00 0.000000e+00 0.000000e+00
-9.386655e+04 -9.569449e+02 0.000000e+00 -9.569449e+02 -5.893620e+04 0.000000e+00 0.000000e+00 0.000000e+00 0.000000e+00
-9.540807e+04 -9.448425e+02 0.000000e+00 -9.448425e+02 -5.936247e+04 0.000000e+00 0.000000e+00 0.000000e+00 0.000000e+00
-9.697217e+04 -5.617408e+02 0.000000e+00 -5.617408e+02 -5.974032e+04 0.000000e+00 0.000000e+00 0.000000e+00 0.000000e+00
-9.837787e+04 -2.371179e+02 0.000000e+00 -2.371179e+02 -6.021925e+04 0.000000e+00 0.000000e+00 0.000000e+00 0.000000e+00
-6.549327e+04 3.403867e+03 0.000000e+00 3.403867e+03 -6.494709e+04 0.000000e+00 0.000000e+00 0.000000e+00 0.000000e+00
-7.208641e+04 3.138048e+03 0.000000e+00 3.138048e+03 -6.425672e+04 0.000000e+00 0.000000e+00 0.000000e+00 0.000000e+00
-7.936343e+04 2.378607e+03 0.000000e+00 2.378607e+03 -6.179267e+04 0.000000e+00 0.000000e+00 0.000000e+00 0.000000e+00
-8.422270e+04 1.514110e+03 0.000000e+00 1.514110e+03 -6.009475e+04 0.000000e+00 0.000000e+00 0.000000e+00 0.000000e+00
-8.747477e+04 7.518243e+02 0.000000e+00 7.518243e+02 -5.907443e+04 0.000000e+00 0.000000e+00 0.000000e+00 0.000000e+00
-8.978745e+04 1.433153e+02 0.000000e+00 1.433153e+02 -5.867570e+04 0.000000e+00 0.000000e+00 0.000000e+00 0.000000e+00
-9.180016e+04 -2.766866e+02 0.000000e+00 -2.766866e+02 -5.871987e+04 0.000000e+00 0.000000e+00 0.000000e+00 0.000000e+00
-9.370526e+04 -4.754756e+02 0.000000e+00 -4.754756e+02 -5.904620e+04 0.000000e+00 0.000000e+00 0.000000e+00 0.000000e+00
-9.558936e+04 -4.537519e+02 0.000000e+00 -4.537519e+02 -5.945949e+04 0.000000e+00 0.000000e+00 0.000000e+00 0.000000e+00
-9.740891e+04 -2.568419e+02 0.000000e+00 -2.568419e+02 -5.979322e+04 0.000000e+00 0.000000e+00 0.000000e+00 0.000000e+00
-9.899114e+04 -1.018970e+02 0.000000e+00 -1.018970e+02 -6.027296e+04 0.000000e+00 0.000000e+00 0.000000e+00 0.000000e+00
-6.527027e+04 9.212577e+02 0.000000e+00 9.212577e+02 -6.483766e+04 0.000000e+00 0.000000e+00 0.000000e+00 0.000000e+00
-7.169829e+04 8.999418e+02 0.000000e+00 8.999418e+02 -6.418061e+04 0.000000e+00 0.000000e+00 0.000000e+00 0.000000e+00
-7.887622e+04 6.693713e+02 0.000000e+00 6.693713e+02 -6.179392e+04 0.000000e+00 0.000000e+00 0.000000e+00 0.000000e+00
-8.376834e+04 3.509483e+02 0.000000e+00 3.509483e+02 -6.012509e+04 0.000000e+00 0.000000e+00 0.000000e+00 0.000000e+00
-8.712236e+04 6.770259e+01 0.000000e+00 6.770259e+01 -5.911349e+04 0.000000e+00 0.000000e+00 0.000000e+00 0.000000e+00
-8.952859e+04 -1.691266e+02 0.000000e+00 -1.691266e+02 -5.874143e+04 0.000000e+00 0.000000e+00 0.000000e+00 0.000000e+00
-9.164638e+04 -3.237835e+02 0.000000e+00 -3.237835e+02 -5.880114e+04 0.000000e+00 0.000000e+00 0.000000e+00 0.000000e+00
-9.368270e+04 -3.959541e+02 0.000000e+00 -3.959541e+02 -5.912481e+04 0.000000e+00 0.000000e+00 0.000000e+00 0.000000e+00
-9.568026e+04 -3.784099e+02 0.000000e+00 -3.784099e+02 -5.952463e+04 0.000000e+00 0.000000e+00 0.000000e+00 0.000000e+00
-9.756692e+04 -2.898612e+02 0.000000e+00 -2.898612e+02 -5.983408e+04 0.000000e+00 0.000000e+00 0.000000e+00 0.000000e+00
-9.919962e+04 -2.173363e+02 0.000000e+00 -2.173363e+02 -6.030455e+04 0.000000e+00 0.000000e+00 0.000000e+00 0.000000e+00
</DataArray>
<DataArray Name="vol_eps" type="Float64" NumberOfComponents="1" format="ascii">
-1.264091e-02
-1.081717e-02
-9.058856e-03
-7.908638e-03
-7.511053e-03
-8.104634e-03
-9.545449e-03
-1.201283e-02
-1.515854e-02
-1.867886e-02
-1.909532e-02
-1.226339e-02
-1.019065e-02
-8.889191e-03
-8.470351e-03
-8.386630e-03
-8.552240e-03
-9.093284e-03
-1.062328e-02
-1.285167e-02
-1.540568e-02
-2.080198e-02
-1.039024e-02
-8.179340e-03
-7.479122e-03
-7.623035e-03
-7.738871e-03
-7.983509e-03
-8.501849e-03
-9.597150e-03
-9.986428e-03
-1.060618e-02
-1.494689e-02
-6.889090e-03
-5.503061e-03
-5.351261e-03
-5.592607e-03
-5.435880e-03
-4.703143e-03
-3.326692e-03
-1.353791e-03
1.559283e-03
5.761004e-03
1.055668e-02
-5.063958e-03
-4.757710e-03
-5.529020e-03
-6.054720e-03
-6.253543e-03
-6.180778e-03
-5.969843e-03
-5.490541e-03
-4.641480e-03
-2.903547e-03
3.970612e-04
-3.511355e-03
-3.863715e-03
-4.808777e-03
-5.176121e-03
-5.305334e-03
-5.214723e-03
-4.943503e-03
-4.420049e-03
-3.609427e-03
-2.008201e-03
3.129767e-04
-2.248442e-03
-3.235543e-03
-4.158259e-03
-4.478089e-03
-4.554459e-03
-4.386784e-03
-4.061090e-03
-3.585772e-03
-2.899983e-03
-1.710582e-03
-2.467244e-04
-1.381922e-03
-2.746949e-03
-3.618853e-03
-3.867561e-03
-3.872263e-03
-3.695822e-03
-3.415799e-03
-3.026895e-03
-2.488850e-03
-1.679762e-03
-7.542275e-04
-9.292362e-04
-2.345338e-03
-3.119649e-03
-3.315210e-03
-3.307323e-03
-3.180546e-03
-2.963276e-03
-2.660319e-03
-2.276235e-03
-1.766498e-03
-1.208614e-03
-7.140710e-04
-2.011563e-03
-2.660114e-03
-2.846294e-03
-2.873378e-03
-2.796920e-03
-2.630889e-03
-2.416708e-03
-2.179520e-03
-1.894890e-03
-1.593168e-03
-6.127003e-04
-1.727091e-03
-2.281429e-03
-2.481078e-03
-2.541696e-03
-2.499194e-03
-2.386939e-03
-2.265681e-03
-2.149818e-03
-2.025842e-03
-1.891636e-03
-5.778005e-04
-1.497704e-03
-1.992604e-03
-2.202350e-03
-2.278280e-03
-2.263870e-03
-2.214482e-03
-2.179016e-03
-2.154921e-03
-2.134853e-03
-2.108514e-03
-5.697306e-04
-1.308330e-03
-1.765753e-03
-1.977041e-03
-2.058002e-03
-2.082372e-03
-2.097120e-03
-2.127243e-03
-2.170449e-03
-2.218934e-03
-2.265692e-03
-5.907346e-04
-1.165433e-03
-1.578983e-03
-1.787984e-03
-1.887152e-03
-1.950370e-03
-2.017086e-03
-2.098143e-03
-2.189661e-03
-2.282901e-03
-2.375769e-03
-6.348396e-04
-1.083035e-03
-1.436994e-03
-1.643251e-03
-1.768992e-03
-1.864047e-03
-1.968112e-03
-2.086259e-03
-2.209912e-03
-2.328123e-03
-2.445617e-03
-6.633573e-04
-1.040138e-03
-1.347743e-03
-1.554304e-03
-1.699280e-03
-1.818693e-03
-1.943924e-03
-2.083236e-03
-2.225108e-03
-2.354455e-03
-2.482187e-03
-6.483656e-04
-1.013377e-03
-1.315865e-03
-1.526974e-03
-1.681700e-03
-1.810377e-03
-1.942182e-03
-2.088112e-03
-2.235713e-03
-2.366954e-03
-2.496892e-03
</DataArray>
</PointData>
</Piece>
</UnstructuredGrid>
</VTKFile>
