<?xml version="1.0"?>
<VTKFile type="UnstructuredGrid" version="0.1">
<UnstructuredGrid>
<FieldData>
<DataArray Name="TIME" type="Float64" format="ascii" NumberOfTuples="1">
0.000000e+00
</DataArray>
</FieldData>
<FieldData>
<DataArray Name="CYCLE" type="Int32" format="ascii" NumberOfTuples="1">
0
</DataArray>
</FieldData>
<Piece NumberOfPoints="187" NumberOfCells="160">
<Points>
<DataArray NumberOfComponents="3" type="Float64" format="ascii">
0.000000e+00 0.000000e+00 0.000000e+00
0.000000e+00 1.968735e-01 0.000000e+00
0.000000e+00 3.920707e-01 0.000000e+00
0.000000e+00 5.848522e-01 0.000000e+00
0.000000e+00 7.762461e-01 0.000000e+00
0.000000e+00 9.671516e-01 0.000000e+00
0.000000e+00 1.157897e+00 0.000000e+00
0.000000e+00 1.348841e+00 0.000000e+00
0.000000e+00 1.541136e+00 0.000000e+00
0.000000e+00 1.736413e+00 0.000000e+00
0.000000e+00 1.932500e+00 0.000000e+00
2.250000e-01 0.000000e+00 0.000000e+00
2.267888e-01 1.968129e-01 0.000000e+00
2.296687e-01 3.921776e-01 0.000000e+00
2.321231e-01 5.859892e-01 0.000000e+00
2.333838e-01 7.784628e-01 0.000000e+00
2.337004e-01 9.700918e-01 0.000000e+00
2.334195e-01 1.161340e+00 0.000000e+00
2.323473e-01 1.352619e+00 0.000000e+00
2.294778e-01 1.544038e+00 0.000000e+00
2.256407e-01 1.736796e+00 0.000000e+00
2.250000e-01 1.932500e+00 0.000000e+00
4.500000e-01 0.000000e+00 0.000000e+00
4.539125e-01 1.971752e-01 0.000000e+00
4.580750e-01 3.935162e-01 0.000000e+00
4.615664e-01 5.894439e-01 0.000000e+00
4.640488e-01 7.848226e-01 0.000000e+00
4.655787e-01 9.792368e-01 0.000000e+00
4.659813e-01 1.172490e+00 0.000000e+00
4.655071e-01 1.364400e+00 0.000000e+00
4.630497e-01 1.554697e+00 0.000000e+00
4.580481e-01 1.743774e+00 0.000000e+00
4.500000e-01 1.932500e+00 0.000000e+00
6.750000e-01 0.000000e+00 0.000000e+00
6.804226e-01 1.984881e-01 0.000000e+00
6.849902e-01 3.967953e-01 0.000000e+00
6.884757e-01 5.952649e-01 0.000000e+00
6.912078e-01 7.939986e-01 0.000000e+00
6.932999e-01 9.930422e-01 0.000000e+00
6.945617e-01 1.192368e+00 0.000000e+00
6.947947e-01 1.392130e+00 0.000000e+00
6.931755e-01 1.592357e+00 0.000000e+00
6.895305e-01 1.792747e+00 0.000000e+00
6.830159e-01 1.992687e+00 0.000000e+00
9.000000e-01 0.000000e+00 0.000000e+00
9.058474e-01 1.989444e-01 0.000000e+00
9.100461e-01 3.979730e-01 0.000000e+00
9.130611e-01 5.972791e-01 0.000000e+00
9.154479e-01 7.968617e-01 0.000000e+00
9.171618e-01 9.967445e-01 0.000000e+00
9.180705e-01 1.196994e+00 0.000000e+00
9.178608e-01 1.397605e+00 0.000000e+00
9.161918e-01 1.598402e+00 0.000000e+00
9.129737e-01 1.799080e+00 0.000000e+00
9.086169e-01 1.999158e+00 0.000000e+00
1.125000e+00 0.000000e+00 0.000000e+00
1.130854e+00 1.993896e-01 0.000000e+00
1.134451e+00 3.989705e-01 0.000000e+00
1.137107e+00 5.988235e-01 0.000000e+00
1.139163e+00 7.989351e-01 0.000000e+00
1.140523e+00 9.993273e-01 0.000000e+00
1.141116e+00 1.200008e+00 0.000000e+00
1.140736e+00 1.400930e+00 0.000000e+00
1.139252e+00 1.601905e+00 0.000000e+00
1.136836e+00 1.802571e+00 0.000000e+00
1.134207e+00 2.002661e+00 0.000000e+00
1.350000e+00 0.000000e+00 0.000000e+00
1.355463e+00 1.997520e-01 0.000000e+00
1.358530e+00 3.996922e-01 0.000000e+00
1.360851e+00 5.998746e-01 0.000000e+00
1.362587e+00 8.002975e-01 0.000000e+00
1.363683e+00 1.000963e+00 0.000000e+00
1.364082e+00 1.201870e+00 0.000000e+00
1.363686e+00 1.402911e+00 0.000000e+00
1.362539e+00 1.603881e+00 0.000000e+00
1.360940e+00 1.804487e+00 0.000000e+00
1.359434e+00 2.004637e+00 0.000000e+00
1.575000e+00 0.000000e+00 0.000000e+00
1.579805e+00 1.999847e-01 0.000000e+00
1.582452e+00 4.001397e-01 0.000000e+00
1.584441e+00 6.005138e-01 0.000000e+00
1.585916e+00 8.011150e-01 0.000000e+00
1.586813e+00 1.001938e+00 0.000000e+00
1.587103e+00 1.202922e+00 0.000000e+00
1.586800e+00 1.403957e+00 0.000000e+00
1.586043e+00 1.604850e+00 0.000000e+00
1.585110e+00 1.805415e+00 0.000000e+00
1.584353e+00 2.005629e+00 0.000000e+00
1.800000e+00 0.000000e+00 0.000000e+00
1.804018e+00 2.000878e-01 0.000000e+00
1.806300e+00 4.003722e-01 0.000000e+00
1.808008e+00 6.008501e-01 0.000000e+00
1.809250e+00 8.015414e-01 0.000000e+00
1.809993e+00 1.002419e+00 0.000000e+00
1.810253e+00 1.203393e+00 0.000000e+00
1.810101e+00 1.404355e+00 0.000000e+00
1.809703e+00 1.605155e+00 0.000000e+00
1.809259e+00 1.805700e+00 0.000000e+00
1.809000e+00 2.005990e+00 0.000000e+00
2.025000e+00 0.000000e+00 0.000000e+00
2.028219e+00 2.001107e-01 0.000000e+00
2.030159e+00 4.004476e-01 0.000000e+00
2.031617e+00 6.009788e-01 0.000000e+00
2.032652e+00 8.016918e-01 0.000000e+00
2.033285e+00 1.002541e+00 0.000000e+00
2.033562e+00 1.203444e+00 0.000000e+00
2.033576e+00 1.404304e+00 0.000000e+00
2.033453e+00 1.605031e+00 0.000000e+00
2.033344e+00 1.805580e+00 0.000000e+00
2.033394e+00 2.005954e+00 0.000000e+00
2.250000e+00 0.000000e+00 0.000000e+00
2.252474e+00 2.000994e-01 0.000000e+00
2.254089e+00 4.004377e-01 0.000000e+00
2.255310e+00 6.009622e-01 0.000000e+00
2.256177e+00 8.016384e-01 0.000000e+00
2.256735e+00 1.002409e+00 0.000000e+00
2.257043e+00 1.203212e+00 0.000000e+00
2.257185e+00 1.403985e+00 0.000000e+00
2.257247e+00 1.604663e+00 0.000000e+00
2.257341e+00 1.805228e+00 0.000000e+00
2.257565e+00 2.005691e+00 0.000000e+00
2.475000e+00 0.000000e+00 0.000000e+00
2.476820e+00 2.000697e-01 0.000000e+00
2.478123e+00 4.003712e-01 0.000000e+00
2.479123e+00 6.008437e-01 0.000000e+00
2.479850e+00 8.014429e-01 0.000000e+00
2.480351e+00 1.002120e+00 0.000000e+00
2.480675e+00 1.202835e+00 0.000000e+00
2.480886e+00 1.403537e+00 0.000000e+00
2.481053e+00 1.604189e+00 0.000000e+00
2.481253e+00 1.804776e+00 0.000000e+00
2.481552e+00 2.005315e+00 0.000000e+00
2.700000e+00 0.000000e+00 0.000000e+00
2.701275e+00 2.000345e-01 0.000000e+00
2.702281e+00 4.002707e-01 0.000000e+00
2.703076e+00 6.006649e-01 0.000000e+00
2.703676e+00 8.011801e-01 0.000000e+00
2.704110e+00 1.001777e+00 0.000000e+00
2.704417e+00 1.202419e+00 0.000000e+00
2.704649e+00 1.403069e+00 0.000000e+00
2.704856e+00 1.603702e+00 0.000000e+00
2.705092e+00 1.804311e+00 0.000000e+00
2.705398e+00 2.004912e+00 0.000000e+00
2.925000e+00 0.000000e+00 0.000000e+00
2.925846e+00 1.999956e-01 0.000000e+00
2.926571e+00 4.001598e-01 0.000000e+00
2.927166e+00 6.004753e-01 0.000000e+00
2.927631e+00 8.009179e-01 0.000000e+00
2.927982e+00 1.001449e+00 0.000000e+00
2.928242e+00 1.202034e+00 0.000000e+00
2.928453e+00 1.402646e+00 0.000000e+00
2.928652e+00 1.603266e+00 0.000000e+00
2.928871e+00 1.803894e+00 0.000000e+00
2.929135e+00 2.004543e+00 0.000000e+00
3.150000e+00 0.000000e+00 0.000000e+00
3.150515e+00 1.999589e-01 0.000000e+00
3.150978e+00 4.000677e-01 0.000000e+00
3.151372e+00 6.003230e-01 0.000000e+00
3.151691e+00 8.007046e-01 0.000000e+00
3.151939e+00 1.001185e+00 0.000000e+00
3.152128e+00 1.201729e+00 0.000000e+00
3.152286e+00 1.402313e+00 0.000000e+00
3.152439e+00 1.602926e+00 0.000000e+00
3.152605e+00 1.803566e+00 0.000000e+00
3.152797e+00 2.004250e+00 0.000000e+00
3.375000e+00 0.000000e+00 0.000000e+00
3.375245e+00 1.999365e-01 0.000000e+00
3.375468e+00 4.000134e-01 0.000000e+00
3.375665e+00 6.002319e-01 0.000000e+00
3.375825e+00 8.005733e-01 0.000000e+00
3.375953e+00 1.001019e+00 0.000000e+00
3.376053e+00 1.201536e+00 0.000000e+00
3.376137e+00 1.402101e+00 0.000000e+00
3.376220e+00 1.602707e+00 0.000000e+00
3.376310e+00 1.803355e+00 0.000000e+00
3.376410e+00 2.004060e+00 0.000000e+00
3.600000e+00 0.000000e+00 0.000000e+00
3.600000e+00 1.999412e-01 0.000000e+00
3.600000e+00 4.000100e-01 0.000000e+00
3.600000e+00 6.002151e-01 0.000000e+00
3.600000e+00 8.005410e-01 0.000000e+00
3.600000e+00 1.000969e+00 0.000000e+00
3.600000e+00 1.201472e+00 0.000000e+00
3.600000e+00 1.402027e+00 0.000000e+00
3.600000e+00 1.602626e+00 0.000000e+00
3.600000e+00 1.803274e+00 0.000000e+00
3.600000e+00 2.003984e+00 0.000000e+00
</DataArray>
</Points>
<Cells>
<DataArray Name="connectivity" type="Int32" format="ascii">
0 11 12 1
1 12 13 2
2 13 14 3
3 14 15 4
4 15 16 5
5 16 17 6
6 17 18 7
7 18 19 8
8 19 20 9
9 20 21 10
11 22 23 12
12 23 24 13
13 24 25 14
14 25 26 15
15 26 27 16
16 27 28 17
17 28 29 18
18 29 30 19
19 30 31 20
20 31 32 21
22 33 34 23
23 34 35 24
24 35 36 25
25 36 37 26
26 37 38 27
27 38 39 28
28 39 40 29
29 40 41 30
30 41 42 31
31 42 43 32
33 44 45 34
34 45 46 35
35 46 47 36
36 47 48 37
37 48 49 38
38 49 50 39
39 50 51 40
40 51 52 41
41 52 53 42
42 53 54 43
44 55 56 45
45 56 57 46
46 57 58 47
47 58 59 48
48 59 60 49
49 60 61 50
50 61 62 51
51 62 63 52
52 63 64 53
53 64 65 54
55 66 67 56
56 67 68 57
57 68 69 58
58 69 70 59
59 70 71 60
60 71 72 61
61 72 73 62
62 73 74 63
63 74 75 64
64 75 76 65
66 77 78 67
67 78 79 68
68 79 80 69
69 80 81 70
70 81 82 71
71 82 83 72
72 83 84 73
73 84 85 74
74 85 86 75
75 86 87 76
77 88 89 78
78 89 90 79
79 90 91 80
80 91 92 81
81 92 93 82
82 93 94 83
83 94 95 84
84 95 96 85
85 96 97 86
86 97 98 87
88 99 100 89
89 100 101 90
90 101 102 91
91 102 103 92
92 103 104 93
93 104 105 94
94 105 106 95
95 106 107 96
96 107 108 97
97 108 109 98
99 110 111 100
100 111 112 101
101 112 113 102
102 113 114 103
103 114 115 104
104 115 116 105
105 116 117 106
106 117 118 107
107 118 119 108
108 119 120 109
110 121 122 111
111 122 123 112
112 123 124 113
113 124 125 114
114 125 126 115
115 126 127 116
116 127 128 117
117 128 129 118
118 129 130 119
119 130 131 120
121 132 133 122
122 133 134 123
123 134 135 124
124 135 136 125
125 136 137 126
126 137 138 127
127 138 139 128
128 139 140 129
129 140 141 130
130 141 142 131
132 143 144 133
133 144 145 134
134 145 146 135
135 146 147 136
136 147 148 137
137 148 149 138
138 149 150 139
139 150 151 140
140 151 152 141
141 152 153 142
143 154 155 144
144 155 156 145
145 156 157 146
146 157 158 147
147 158 159 148
148 159 160 149
149 160 161 150
150 161 162 151
151 162 163 152
152 163 164 153
154 165 166 155
155 166 167 156
156 167 168 157
157 168 169 158
158 169 170 159
159 170 171 160
160 171 172 161
161 172 173 162
162 173 174 163
163 174 175 164
165 176 177 166
166 177 178 167
167 178 179 168
168 179 180 169
169 180 181 170
170 181 182 171
171 182 183 172
172 183 184 173
173 184 185 174
174 185 186 175
</DataArray>
<DataArray Name="offsets" type="Int32" format="ascii">
4
8
12
16
20
24
28
32
36
40
44
48
52
56
60
64
68
72
76
80
84
88
92
96
100
104
108
112
116
120
124
128
132
136
140
144
148
152
156
160
164
168
172
176
180
184
188
192
196
200
204
208
212
216
220
224
228
232
236
240
244
248
252
256
260
264
268
272
276
280
284
288
292
296
300
304
308
312
316
320
324
328
332
336
340
344
348
352
356
360
364
368
372
376
380
384
388
392
396
400
404
408
412
416
420
424
428
432
436
440
444
448
452
456
460
464
468
472
476
480
484
488
492
496
500
504
508
512
516
520
524
528
532
536
540
544
548
552
556
560
564
568
572
576
580
584
588
592
596
600
604
608
612
616
620
624
628
632
636
640
</DataArray>
<DataArray Name="types" type="UInt8" format="ascii">
9
9
9
9
9
9
9
9
9
9
9
9
9
9
9
9
9
9
9
9
9
9
9
9
9
9
9
9
9
9
9
9
9
9
9
9
9
9
9
9
9
9
9
9
9
9
9
9
9
9
9
9
9
9
9
9
9
9
9
9
9
9
9
9
9
9
9
9
9
9
9
9
9
9
9
9
9
9
9
9
9
9
9
9
9
9
9
9
9
9
9
9
9
9
9
9
9
9
9
9
9
9
9
9
9
9
9
9
9
9
9
9
9
9
9
9
9
9
9
9
9
9
9
9
9
9
9
9
9
9
9
9
9
9
9
9
9
9
9
9
9
9
9
9
9
9
9
9
9
9
9
9
9
9
9
9
9
9
9
9
</DataArray>
</Cells>
<PointData>
<DataArray Name="disp" type="Float64" NumberOfComponents="3" format="ascii">
0.000000e+00 0.000000e+00 0.000000e+00
0.000000e+00 -3.126476e-03 0.000000e+00
0.000000e+00 -7.929311e-03 0.000000e+00
0.000000e+00 -1.514786e-02 0.000000e+00
0.000000e+00 -2.375394e-02 0.000000e+00
0.000000e+00 -3.284839e-02 0.000000e+00
0.000000e+00 -4.210270e-02 0.000000e+00
0.000000e+00 -5.115944e-02 0.000000e+00
0.000000e+00 -5.886436e-02 0.000000e+00
0.000000e+00 -6.358663e-02 0.000000e+00
0.000000e+00 -6.750000e-02 0.000000e+00
0.000000e+00 0.000000e+00 0.000000e+00
1.788821e-03 -3.187143e-03 0.000000e+00
4.668710e-03 -7.822372e-03 0.000000e+00
7.123101e-03 -1.401083e-02 0.000000e+00
8.383815e-03 -2.153718e-02 0.000000e+00
8.700403e-03 -2.990821e-02 0.000000e+00
8.419544e-03 -3.866045e-02 0.000000e+00
7.347331e-03 -4.738059e-02 0.000000e+00
4.477780e-03 -5.596241e-02 0.000000e+00
6.407160e-04 -6.320447e-02 0.000000e+00
0.000000e+00 -6.750000e-02 0.000000e+00
0.000000e+00 0.000000e+00 0.000000e+00
3.912520e-03 -2.824816e-03 0.000000e+00
8.075038e-03 -6.483827e-03 0.000000e+00
1.156643e-02 -1.055610e-02 0.000000e+00
1.404877e-02 -1.517742e-02 0.000000e+00
1.557868e-02 -2.076322e-02 0.000000e+00
1.598130e-02 -2.750995e-02 0.000000e+00
1.550710e-02 -3.560028e-02 0.000000e+00
1.304965e-02 -4.530308e-02 0.000000e+00
8.048140e-03 -5.622602e-02 0.000000e+00
0.000000e+00 -6.750000e-02 0.000000e+00
0.000000e+00 0.000000e+00 0.000000e+00
5.422595e-03 -1.511877e-03 0.000000e+00
9.990195e-03 -3.204721e-03 0.000000e+00
1.347567e-02 -4.735117e-03 0.000000e+00
1.620784e-02 -6.001421e-03 0.000000e+00
1.829986e-02 -6.957791e-03 0.000000e+00
1.956164e-02 -7.631945e-03 0.000000e+00
1.979472e-02 -7.869975e-03 0.000000e+00
1.817551e-02 -7.643145e-03 0.000000e+00
1.453048e-02 -7.253344e-03 0.000000e+00
8.015937e-03 -7.312799e-03 0.000000e+00
0.000000e+00 0.000000e+00 0.000000e+00
5.847454e-03 -1.055638e-03 0.000000e+00
1.004607e-02 -2.026987e-03 0.000000e+00
1.306106e-02 -2.720851e-03 0.000000e+00
1.544790e-02 -3.138263e-03 0.000000e+00
1.716181e-02 -3.255540e-03 0.000000e+00
1.807050e-02 -3.006310e-03 0.000000e+00
1.786079e-02 -2.395391e-03 0.000000e+00
1.619184e-02 -1.598456e-03 0.000000e+00
1.297369e-02 -9.196269e-04 0.000000e+00
8.616885e-03 -8.416226e-04 0.000000e+00
0.000000e+00 0.000000e+00 0.000000e+00
5.854028e-03 -6.104148e-04 0.000000e+00
9.450528e-03 -1.029496e-03 0.000000e+00
1.210666e-02 -1.176479e-03 0.000000e+00
1.416277e-02 -1.064956e-03 0.000000e+00
1.552255e-02 -6.727242e-04 0.000000e+00
1.611604e-02 7.578671e-06 0.000000e+00
1.573637e-02 9.299587e-04 0.000000e+00
1.425217e-02 1.904883e-03 0.000000e+00
1.183589e-02 2.571165e-03 0.000000e+00
9.206592e-03 2.660581e-03 0.000000e+00
0.000000e+00 0.000000e+00 0.000000e+00
5.462969e-03 -2.480201e-04 0.000000e+00
8.530236e-03 -3.078134e-04 0.000000e+00
1.085127e-02 -1.253911e-04 0.000000e+00
1.258682e-02 2.975115e-04 0.000000e+00
1.368336e-02 9.633527e-04 0.000000e+00
1.408210e-02 1.869827e-03 0.000000e+00
1.368623e-02 2.911188e-03 0.000000e+00
1.253932e-02 3.881153e-03 0.000000e+00
1.094030e-02 4.486932e-03 0.000000e+00
9.434076e-03 4.637394e-03 0.000000e+00
0.000000e+00 0.000000e+00 0.000000e+00
4.804814e-03 -1.532500e-05 0.000000e+00
7.451608e-03 1.397178e-04 0.000000e+00
9.441385e-03 5.137944e-04 0.000000e+00
1.091569e-02 1.115020e-03 0.000000e+00
1.181303e-02 1.938384e-03 0.000000e+00
1.210267e-02 2.922508e-03 0.000000e+00
1.180042e-02 3.957266e-03 0.000000e+00
1.104300e-02 4.849689e-03 0.000000e+00
1.011015e-02 5.415262e-03 0.000000e+00
9.353250e-03 5.629296e-03 0.000000e+00
0.000000e+00 0.000000e+00 0.000000e+00
4.017620e-03 8.785039e-05 0.000000e+00
6.300346e-03 3.721988e-04 0.000000e+00
8.008291e-03 8.500808e-04 0.000000e+00
9.249842e-03 1.541383e-03 0.000000e+00
9.993099e-03 2.418507e-03 0.000000e+00
1.025268e-02 3.393368e-03 0.000000e+00
1.010112e-02 4.354788e-03 0.000000e+00
9.702690e-03 5.155129e-03 0.000000e+00
9.259326e-03 5.699660e-03 0.000000e+00
9.000205e-03 5.989678e-03 0.000000e+00
0.000000e+00 0.000000e+00 0.000000e+00
3.219315e-03 1.106877e-04 0.000000e+00
5.158886e-03 4.475767e-04 0.000000e+00
6.617233e-03 9.787853e-04 0.000000e+00
7.652236e-03 1.691842e-03 0.000000e+00
8.284654e-03 2.540767e-03 0.000000e+00
8.561814e-03 3.444007e-03 0.000000e+00
8.576447e-03 4.303914e-03 0.000000e+00
8.453150e-03 5.030564e-03 0.000000e+00
8.343569e-03 5.579809e-03 0.000000e+00
8.393827e-03 5.953987e-03 0.000000e+00
0.000000e+00 0.000000e+00 0.000000e+00
2.473662e-03 9.941050e-05 0.000000e+00
4.089226e-03 4.377260e-04 0.000000e+00
5.309743e-03 9.622361e-04 0.000000e+00
6.177356e-03 1.638437e-03 0.000000e+00
6.735198e-03 2.409337e-03 0.000000e+00
7.043335e-03 3.212170e-03 0.000000e+00
7.185556e-03 3.984990e-03 0.000000e+00
7.247080e-03 4.663402e-03 0.000000e+00
7.340573e-03 5.228483e-03 0.000000e+00
7.564694e-03 5.691117e-03 0.000000e+00
0.000000e+00 0.000000e+00 0.000000e+00
1.820205e-03 6.968972e-05 0.000000e+00
3.123394e-03 3.711941e-04 0.000000e+00
4.123270e-03 8.436409e-04 0.000000e+00
4.850240e-03 1.442867e-03 0.000000e+00
5.350730e-03 2.120398e-03 0.000000e+00
5.674491e-03 2.835239e-03 0.000000e+00
5.886147e-03 3.537261e-03 0.000000e+00
6.053313e-03 4.188937e-03 0.000000e+00
6.253095e-03 4.775988e-03 0.000000e+00
6.552408e-03 5.314562e-03 0.000000e+00
0.000000e+00 0.000000e+00 0.000000e+00
1.274581e-03 3.449945e-05 0.000000e+00
2.281254e-03 2.706693e-04 0.000000e+00
3.075990e-03 6.648615e-04 0.000000e+00
3.675392e-03 1.180084e-03 0.000000e+00
4.109840e-03 1.777423e-03 0.000000e+00
4.417080e-03 2.419121e-03 0.000000e+00
4.648801e-03 3.069049e-03 0.000000e+00
4.856095e-03 3.701540e-03 0.000000e+00
5.092314e-03 4.310803e-03 0.000000e+00
5.397994e-03 4.911750e-03 0.000000e+00
0.000000e+00 0.000000e+00 0.000000e+00
8.457417e-04 -4.412503e-06 0.000000e+00
1.570757e-03 1.598211e-04 0.000000e+00
2.165492e-03 4.752536e-04 0.000000e+00
2.631055e-03 9.178359e-04 0.000000e+00
2.981998e-03 1.448457e-03 0.000000e+00
3.242544e-03 2.033706e-03 0.000000e+00
3.453475e-03 2.645635e-03 0.000000e+00
3.651570e-03 3.266372e-03 0.000000e+00
3.870972e-03 3.893507e-03 0.000000e+00
4.135389e-03 4.543372e-03 0.000000e+00
0.000000e+00 0.000000e+00 0.000000e+00
5.152598e-04 -4.108285e-05 0.000000e+00
9.779995e-04 6.768487e-05 0.000000e+00
1.372120e-03 3.230491e-04 0.000000e+00
1.690611e-03 7.045979e-04 0.000000e+00
1.938706e-03 1.184955e-03 0.000000e+00
2.127847e-03 1.728828e-03 0.000000e+00
2.286255e-03 2.313274e-03 0.000000e+00
2.438976e-03 2.925593e-03 0.000000e+00
2.605402e-03 3.566371e-03 0.000000e+00
2.796896e-03 4.250281e-03 0.000000e+00
0.000000e+00 0.000000e+00 0.000000e+00
2.450599e-04 -6.347470e-05 0.000000e+00
4.675079e-04 1.338644e-05 0.000000e+00
6.647339e-04 2.319435e-04 0.000000e+00
8.249073e-04 5.733210e-04 0.000000e+00
9.531837e-04 1.018753e-03 0.000000e+00
1.052718e-03 1.535649e-03 0.000000e+00
1.137320e-03 2.101303e-03 0.000000e+00
1.220061e-03 2.706737e-03 0.000000e+00
1.310078e-03 3.355295e-03 0.000000e+00
1.409739e-03 4.060254e-03 0.000000e+00
0.000000e+00 0.000000e+00 0.000000e+00
0.000000e+00 -5.878570e-05 0.000000e+00
0.000000e+00 9.994499e-06 0.000000e+00
0.000000e+00 2.150484e-04 0.000000e+00
0.000000e+00 5.410359e-04 0.000000e+00
0.000000e+00 9.693209e-04 0.000000e+00
0.000000e+00 1.472291e-03 0.000000e+00
0.000000e+00 2.027076e-03 0.000000e+00
0.000000e+00 2.625986e-03 0.000000e+00
0.000000e+00 3.273665e-03 0.000000e+00
0.000000e+00 3.983854e-03 0.000000e+00
</DataArray>
<DataArray Name="shear" type="Float64" NumberOfComponents="1" format="ascii">
1.873219e-02
2.890256e-02
5.001969e-02
6.932953e-02
8.034237e-02
8.440232e-02
8.349507e-02
7.519130e-02
5.382876e-02
2.950265e-02
2.136113e-02
2.089257e-02
3.052253e-02
4.700943e-02
6.173242e-02
7.307190e-02
8.063627e-02
8.386194e-02
8.153173e-02
7.018111e-02
4.938132e-02
3.344776e-02
2.601398e-02
3.305374e-02
4.228958e-02
5.034367e-02
6.126582e-02
7.491866e-02
8.979099e-02
1.036945e-01
1.145216e-01
1.192362e-01
1.186397e-01
2.931857e-02
3.120257e-02
3.278843e-02
3.511035e-02
4.036250e-02
4.839027e-02
5.908146e-02
7.119409e-02
8.481219e-02
9.960672e-02
1.112740e-01
3.019781e-02
2.765202e-02
2.316524e-02
2.153759e-02
2.149611e-02
2.149623e-02
2.100714e-02
1.905134e-02
1.476986e-02
7.239296e-03
4.961383e-04
2.975531e-02
2.544481e-02
1.960865e-02
1.820386e-02
1.786113e-02
1.759608e-02
1.700448e-02
1.537889e-02
1.195283e-02
5.991950e-03
1.713425e-03
2.759309e-02
2.267383e-02
1.676711e-02
1.575031e-02
1.548931e-02
1.537521e-02
1.503364e-02
1.376728e-02
1.078072e-02
5.809130e-03
2.254445e-03
2.421569e-02
1.965784e-02
1.453020e-02
1.390248e-02
1.393519e-02
1.403318e-02
1.378706e-02
1.259086e-02
9.914421e-03
5.898328e-03
3.163900e-03
2.025264e-02
1.659273e-02
1.272781e-02
1.243127e-02
1.271105e-02
1.292453e-02
1.264790e-02
1.147883e-02
9.242534e-03
6.213779e-03
4.274628e-03
1.624819e-02
1.365004e-02
1.113050e-02
1.112360e-02
1.150534e-02
1.173639e-02
1.146272e-02
1.047380e-02
8.811837e-03
6.722655e-03
5.465962e-03
1.251554e-02
1.091256e-02
9.566701e-03
9.794386e-03
1.022404e-02
1.047320e-02
1.032777e-02
9.676677e-03
8.590616e-03
7.314648e-03
6.604922e-03
9.230744e-03
8.412463e-03
7.973573e-03
8.419236e-03
8.950122e-03
9.315388e-03
9.380528e-03
9.089944e-03
8.515454e-03
7.878263e-03
7.575420e-03
6.480261e-03
6.191853e-03
6.400635e-03
7.103964e-03
7.819669e-03
8.358893e-03
8.644518e-03
8.665848e-03
8.510826e-03
8.364697e-03
8.354293e-03
4.291087e-03
4.294651e-03
4.963783e-03
5.962762e-03
6.897206e-03
7.612998e-03
8.091230e-03
8.366578e-03
8.534110e-03
8.749572e-03
8.946673e-03
2.596085e-03
2.770344e-03
3.810935e-03
5.069283e-03
6.192468e-03
7.066776e-03
7.695736e-03
8.159808e-03
8.561208e-03
9.023860e-03
9.357073e-03
1.236657e-03
1.641180e-03
3.051765e-03
4.492077e-03
5.731645e-03
6.711928e-03
7.440614e-03
8.021281e-03
8.569615e-03
9.185469e-03
9.598061e-03
4.200136e-04
1.171592e-03
2.783294e-03
4.287679e-03
5.561020e-03
6.575244e-03
7.341113e-03
7.962825e-03
8.562912e-03
9.234101e-03
9.674141e-03
</DataArray>
<DataArray Name="stress" type="Float64" NumberOfComponents="9" format="ascii">
-1.204932e+05 6.212893e+03 0.000000e+00 6.212893e+03 -2.092687e+05 0.000000e+00 0.000000e+00 0.000000e+00 0.000000e+00
-1.062291e+05 4.706576e+03 0.000000e+00 4.706576e+03 -2.098692e+05 0.000000e+00 0.000000e+00 0.000000e+00 0.000000e+00
-1.099494e+05 2.847825e+03 0.000000e+00 2.847825e+03 -2.154562e+05 0.000000e+00 0.000000e+00 0.000000e+00 0.000000e+00
-1.169648e+05 3.823344e+03 0.000000e+00 3.823344e+03 -2.221774e+05 0.000000e+00 0.000000e+00 0.000000e+00 0.000000e+00
-1.204319e+05 5.548450e+03 0.000000e+00 5.548450e+03 -2.307692e+05 0.000000e+00 0.000000e+00 0.000000e+00 0.000000e+00
-1.252289e+05 7.952868e+03 0.000000e+00 7.952868e+03 -2.425970e+05 0.000000e+00 0.000000e+00 0.000000e+00 0.000000e+00
-1.322576e+05 9.981577e+03 0.000000e+00 9.981577e+03 -2.560758e+05 0.000000e+00 0.000000e+00 0.000000e+00 0.000000e+00
-1.411779e+05 1.042577e+04 0.000000e+00 1.042577e+04 -2.677880e+05 0.000000e+00 0.000000e+00 0.000000e+00 0.000000e+00
-1.439560e+05 4.527239e+03 0.000000e+00 4.527239e+03 -2.770082e+05 0.000000e+00 0.000000e+00 0.000000e+00 0.000000e+00
-1.499762e+05 -2.146833e+03 0.000000e+00 -2.146833e+03 -2.853239e+05 0.000000e+00 0.000000e+00 0.000000e+00 0.000000e+00
-1.561207e+05 -1.149230e+03 0.000000e+00 -1.149230e+03 -2.742083e+05 0.000000e+00 0.000000e+00 0.000000e+00 0.000000e+00
-1.223500e+05 1.812679e+04 0.000000e+00 1.812679e+04 -2.032608e+05 0.000000e+00 0.000000e+00 0.000000e+00 0.000000e+00
-1.070952e+05 1.530918e+04 0.000000e+00 1.530918e+04 -1.996455e+05 0.000000e+00 0.000000e+00 0.000000e+00 0.000000e+00
-1.078919e+05 1.350778e+04 0.000000e+00 1.350778e+04 -2.107622e+05 0.000000e+00 0.000000e+00 0.000000e+00 0.000000e+00
-1.152329e+05 1.294036e+04 0.000000e+00 1.294036e+04 -2.227468e+05 0.000000e+00 0.000000e+00 0.000000e+00 0.000000e+00
-1.218044e+05 1.300769e+04 0.000000e+00 1.300769e+04 -2.340978e+05 0.000000e+00 0.000000e+00 0.000000e+00 0.000000e+00
-1.268393e+05 1.374853e+04 0.000000e+00 1.374853e+04 -2.448287e+05 0.000000e+00 0.000000e+00 0.000000e+00 0.000000e+00
-1.326987e+05 1.428479e+04 0.000000e+00 1.428479e+04 -2.537466e+05 0.000000e+00 0.000000e+00 0.000000e+00 0.000000e+00
-1.394316e+05 1.285170e+04 0.000000e+00 1.285170e+04 -2.605570e+05 0.000000e+00 0.000000e+00 0.000000e+00 0.000000e+00
-1.426475e+05 5.986055e+03 0.000000e+00 5.986055e+03 -2.710844e+05 0.000000e+00 0.000000e+00 0.000000e+00 0.000000e+00
-1.452697e+05 -2.581139e+03 0.000000e+00 -2.581139e+03 -2.766671e+05 0.000000e+00 0.000000e+00 0.000000e+00 0.000000e+00
-1.674559e+05 -8.408277e+03 0.000000e+00 -8.408277e+03 -3.108120e+05 0.000000e+00 0.000000e+00 0.000000e+00 0.000000e+00
-1.213512e+05 3.037474e+04 0.000000e+00 3.037474e+04 -1.777428e+05 0.000000e+00 0.000000e+00 0.000000e+00 0.000000e+00
-1.071052e+05 2.666493e+04 0.000000e+00 2.666493e+04 -1.698155e+05 0.000000e+00 0.000000e+00 0.000000e+00 0.000000e+00
-1.071318e+05 2.681242e+04 0.000000e+00 2.681242e+04 -1.783564e+05 0.000000e+00 0.000000e+00 0.000000e+00 0.000000e+00
-1.137513e+05 2.758222e+04 0.000000e+00 2.758222e+04 -1.885818e+05 0.000000e+00 0.000000e+00 0.000000e+00 0.000000e+00
-1.221705e+05 2.897304e+04 0.000000e+00 2.897304e+04 -1.996170e+05 0.000000e+00 0.000000e+00 0.000000e+00 0.000000e+00
-1.320425e+05 3.005543e+04 0.000000e+00 3.005543e+04 -2.116669e+05 0.000000e+00 0.000000e+00 0.000000e+00 0.000000e+00
-1.460482e+05 3.308791e+04 0.000000e+00 3.308791e+04 -2.269469e+05 0.000000e+00 0.000000e+00 0.000000e+00 0.000000e+00
-1.602157e+05 3.383264e+04 0.000000e+00 3.383264e+04 -2.442747e+05 0.000000e+00 0.000000e+00 0.000000e+00 0.000000e+00
-1.660544e+05 3.295922e+04 0.000000e+00 3.295922e+04 -2.588409e+05 0.000000e+00 0.000000e+00 0.000000e+00 0.000000e+00
-1.758260e+05 2.244300e+04 0.000000e+00 2.244300e+04 -2.756660e+05 0.000000e+00 0.000000e+00 0.000000e+00 0.000000e+00
-1.984953e+05 5.201216e+03 0.000000e+00 5.201216e+03 -3.270082e+05 0.000000e+00 0.000000e+00 0.000000e+00 0.000000e+00
-1.106166e+05 3.111340e+04 0.000000e+00 3.111340e+04 -1.362340e+05 0.000000e+00 0.000000e+00 0.000000e+00 0.000000e+00
-1.008909e+05 2.855495e+04 0.000000e+00 2.855495e+04 -1.297980e+05 0.000000e+00 0.000000e+00 0.000000e+00 0.000000e+00
-1.024068e+05 2.913442e+04 0.000000e+00 2.913442e+04 -1.304422e+05 0.000000e+00 0.000000e+00 0.000000e+00 0.000000e+00
-1.085371e+05 3.037442e+04 0.000000e+00 3.037442e+04 -1.297114e+05 0.000000e+00 0.000000e+00 0.000000e+00 0.000000e+00
-1.137782e+05 3.183136e+04 0.000000e+00 3.183136e+04 -1.279097e+05 0.000000e+00 0.000000e+00 0.000000e+00 0.000000e+00
-1.171181e+05 3.167918e+04 0.000000e+00 3.167918e+04 -1.239641e+05 0.000000e+00 0.000000e+00 0.000000e+00 0.000000e+00
-1.198763e+05 3.150414e+04 0.000000e+00 3.150414e+04 -1.179141e+05 0.000000e+00 0.000000e+00 0.000000e+00 0.000000e+00
-1.200887e+05 2.780164e+04 0.000000e+00 2.780164e+04 -1.101561e+05 0.000000e+00 0.000000e+00 0.000000e+00 0.000000e+00
-1.097566e+05 2.148451e+04 0.000000e+00 2.148451e+04 -9.670253e+04 0.000000e+00 0.000000e+00 0.000000e+00 0.000000e+00
-8.826688e+04 1.357748e+04 0.000000e+00 1.357748e+04 -8.135877e+04 0.000000e+00 0.000000e+00 0.000000e+00 0.000000e+00
-5.634780e+04 7.182770e+03 0.000000e+00 7.182770e+03 -6.306977e+04 0.000000e+00 0.000000e+00 0.000000e+00 0.000000e+00
-1.054351e+05 2.997972e+04 0.000000e+00 2.997972e+04 -1.153692e+05 0.000000e+00 0.000000e+00 0.000000e+00 0.000000e+00
-1.012502e+05 2.854706e+04 0.000000e+00 2.854706e+04 -1.128136e+05 0.000000e+00 0.000000e+00 0.000000e+00 0.000000e+00
-1.060267e+05 2.892673e+04 0.000000e+00 2.892673e+04 -1.134840e+05 0.000000e+00 0.000000e+00 0.000000e+00 0.000000e+00
-1.137345e+05 2.945642e+04 0.000000e+00 2.945642e+04 -1.112957e+05 0.000000e+00 0.000000e+00 0.000000e+00 0.000000e+00
-1.201554e+05 2.946179e+04 0.000000e+00 2.946179e+04 -1.070623e+05 0.000000e+00 0.000000e+00 0.000000e+00 0.000000e+00
-1.254419e+05 2.827016e+04 0.000000e+00 2.827016e+04 -1.013341e+05 0.000000e+00 0.000000e+00 0.000000e+00 0.000000e+00
-1.287297e+05 2.555581e+04 0.000000e+00 2.555581e+04 -9.401704e+04 0.000000e+00 0.000000e+00 0.000000e+00 0.000000e+00
-1.293033e+05 2.046694e+04 0.000000e+00 2.046694e+04 -8.588720e+04 0.000000e+00 0.000000e+00 0.000000e+00 0.000000e+00
-1.212726e+05 1.270110e+04 0.000000e+00 1.270110e+04 -7.661034e+04 0.000000e+00 0.000000e+00 0.000000e+00 0.000000e+00
-9.758260e+04 3.753025e+03 0.000000e+00 3.753025e+03 -6.880196e+04 0.000000e+00 0.000000e+00 0.000000e+00 0.000000e+00
-5.863005e+04 -3.247242e+02 0.000000e+00 -3.247242e+02 -5.608255e+04 0.000000e+00 0.000000e+00 0.000000e+00 0.000000e+00
-9.916259e+04 2.814030e+04 0.000000e+00 2.814030e+04 -1.005752e+05 0.000000e+00 0.000000e+00 0.000000e+00 0.000000e+00
-9.940599e+04 2.753272e+04 0.000000e+00 2.753272e+04 -1.001750e+05 0.000000e+00 0.000000e+00 0.000000e+00 0.000000e+00
-1.061562e+05 2.678220e+04 0.000000e+00 2.678220e+04 -9.891538e+04 0.000000e+00 0.000000e+00 0.000000e+00 0.000000e+00
-1.136783e+05 2.560287e+04 0.000000e+00 2.560287e+04 -9.492257e+04 0.000000e+00 0.000000e+00 0.000000e+00 0.000000e+00
-1.191730e+05 2.410400e+04 0.000000e+00 2.410400e+04 -9.055271e+04 0.000000e+00 0.000000e+00 0.000000e+00 0.000000e+00
-1.230034e+05 2.156070e+04 0.000000e+00 2.156070e+04 -8.541112e+04 0.000000e+00 0.000000e+00 0.000000e+00 0.000000e+00
-1.247307e+05 1.750932e+04 0.000000e+00 1.750932e+04 -7.943430e+04 0.000000e+00 0.000000e+00 0.000000e+00 0.000000e+00
-1.220391e+05 1.146922e+04 0.000000e+00 1.146922e+04 -7.296963e+04 0.000000e+00 0.000000e+00 0.000000e+00 0.000000e+00
-1.123064e+05 3.901827e+03 0.000000e+00 3.901827e+03 -6.688879e+04 0.000000e+00 0.000000e+00 0.000000e+00 0.000000e+00
-8.989015e+04 -2.243592e+03 0.000000e+00 -2.243592e+03 -6.230423e+04 0.000000e+00 0.000000e+00 0.000000e+00 0.000000e+00
-6.034000e+04 -3.787317e+03 0.000000e+00 -3.787317e+03 -5.561987e+04 0.000000e+00 0.000000e+00 0.000000e+00 0.000000e+00
-9.107528e+04 2.557274e+04 0.000000e+00 2.557274e+04 -8.826305e+04 0.000000e+00 0.000000e+00 0.000000e+00 0.000000e+00
-9.707962e+04 2.553154e+04 0.000000e+00 2.553154e+04 -8.987299e+04 0.000000e+00 0.000000e+00 0.000000e+00 0.000000e+00
-1.051177e+05 2.347054e+04 0.000000e+00 2.347054e+04 -8.714999e+04 0.000000e+00 0.000000e+00 0.000000e+00 0.000000e+00
-1.120698e+05 2.163783e+04 0.000000e+00 2.163783e+04 -8.378773e+04 0.000000e+00 0.000000e+00 0.000000e+00 0.000000e+00
-1.168272e+05 1.920823e+04 0.000000e+00 1.920823e+04 -7.999477e+04 0.000000e+00 0.000000e+00 0.000000e+00 0.000000e+00
-1.192270e+05 1.572288e+04 0.000000e+00 1.572288e+04 -7.545015e+04 0.000000e+00 0.000000e+00 0.000000e+00 0.000000e+00
-1.190803e+05 1.099510e+04 0.000000e+00 1.099510e+04 -7.062110e+04 0.000000e+00 0.000000e+00 0.000000e+00 0.000000e+00
-1.146683e+05 5.061192e+03 0.000000e+00 5.061192e+03 -6.597568e+04 0.000000e+00 0.000000e+00 0.000000e+00 0.000000e+00
-1.049904e+05 -9.385435e+02 0.000000e+00 -9.385435e+02 -6.239661e+04 0.000000e+00 0.000000e+00 0.000000e+00 0.000000e+00
-8.732391e+04 -3.922656e+03 0.000000e+00 -3.922656e+03 -6.023658e+04 0.000000e+00 0.000000e+00 0.000000e+00 0.000000e+00
-6.786990e+04 -3.859086e+03 0.000000e+00 -3.859086e+03 -5.672246e+04 0.000000e+00 0.000000e+00 0.000000e+00 0.000000e+00
-8.360072e+04 2.303058e+04 0.000000e+00 2.303058e+04 -7.955595e+04 0.000000e+00 0.000000e+00 0.000000e+00 0.000000e+00
-9.432363e+04 2.307718e+04 0.000000e+00 2.307718e+04 -8.213752e+04 0.000000e+00 0.000000e+00 0.000000e+00 0.000000e+00
-1.032971e+05 2.049280e+04 0.000000e+00 2.049280e+04 -7.913301e+04 0.000000e+00 0.000000e+00 0.000000e+00 0.000000e+00
-1.095762e+05 1.805992e+04 0.000000e+00 1.805992e+04 -7.616691e+04 0.000000e+00 0.000000e+00 0.000000e+00 0.000000e+00
-1.132716e+05 1.480807e+04 0.000000e+00 1.480807e+04 -7.272127e+04 0.000000e+00 0.000000e+00 0.000000e+00 0.000000e+00
-1.146821e+05 1.085518e+04 0.000000e+00 1.085518e+04 -6.898542e+04 0.000000e+00 0.000000e+00 0.000000e+00 0.000000e+00
-1.133612e+05 6.130493e+03 0.000000e+00 6.130493e+03 -6.534436e+04 0.000000e+00 0.000000e+00 0.000000e+00 0.000000e+00
-1.084711e+05 1.060994e+03 0.000000e+00 1.060994e+03 -6.229252e+04 0.000000e+00 0.000000e+00 0.000000e+00 0.000000e+00
-1.002311e+05 -3.021060e+03 0.000000e+00 -3.021060e+03 -6.031504e+04 0.000000e+00 0.000000e+00 0.000000e+00 0.000000e+00
-8.768207e+04 -4.088024e+03 0.000000e+00 -4.088024e+03 -5.952587e+04 0.000000e+00 0.000000e+00 0.000000e+00 0.000000e+00
-7.551838e+04 -3.304390e+03 0.000000e+00 -3.304390e+03 -5.744013e+04 0.000000e+00 0.000000e+00 0.000000e+00 0.000000e+00
-7.864464e+04 2.110631e+04 0.000000e+00 2.110631e+04 -7.353868e+04 0.000000e+00 0.000000e+00 0.000000e+00 0.000000e+00
-9.130859e+04 2.086356e+04 0.000000e+00 2.086356e+04 -7.615292e+04 0.000000e+00 0.000000e+00 0.000000e+00 0.000000e+00
-1.006628e+05 1.778807e+04 0.000000e+00 1.778807e+04 -7.329076e+04 0.000000e+00 0.000000e+00 0.000000e+00 0.000000e+00
-1.062417e+05 1.466446e+04 0.000000e+00 1.466446e+04 -7.056112e+04 0.000000e+00 0.000000e+00 0.000000e+00 0.000000e+00
-1.092064e+05 1.112566e+04 0.000000e+00 1.112566e+04 -6.772779e+04 0.000000e+00 0.000000e+00 0.000000e+00 0.000000e+00
-1.099612e+05 7.121688e+03 0.000000e+00 7.121688e+03 -6.484818e+04 0.000000e+00 0.000000e+00 0.000000e+00 0.000000e+00
-1.081284e+05 2.778192e+03 0.000000e+00 2.778192e+03 -6.227053e+04 0.000000e+00 0.000000e+00 0.000000e+00 0.000000e+00
-1.038999e+05 -1.179100e+03 0.000000e+00 -1.179100e+03 -6.039639e+04 0.000000e+00 0.000000e+00 0.000000e+00 0.000000e+00
-9.759369e+04 -3.749771e+03 0.000000e+00 -3.749771e+03 -5.947317e+04 0.000000e+00 0.000000e+00 0.000000e+00 0.000000e+00
-8.929446e+04 -3.700916e+03 0.000000e+00 -3.700916e+03 -5.936797e+04 0.000000e+00 0.000000e+00 0.000000e+00 0.000000e+00
-8.201523e+04 -2.571824e+03 0.000000e+00 -2.571824e+03 -5.816555e+04 0.000000e+00 0.000000e+00 0.000000e+00 0.000000e+00
-7.504935e+04 1.914281e+04 0.000000e+00 1.914281e+04 -6.904747e+04 0.000000e+00 0.000000e+00 0.000000e+00 0.000000e+00
-8.804259e+04 1.860176e+04 0.000000e+00 1.860176e+04 -7.146176e+04 0.000000e+00 0.000000e+00 0.000000e+00 0.000000e+00
-9.732587e+04 1.520326e+04 0.000000e+00 1.520326e+04 -6.872164e+04 0.000000e+00 0.000000e+00 0.000000e+00 0.000000e+00
-1.024822e+05 1.181848e+04 0.000000e+00 1.181848e+04 -6.640885e+04 0.000000e+00 0.000000e+00 0.000000e+00 0.000000e+00
-1.050888e+05 8.240877e+03 0.000000e+00 8.240877e+03 -6.421948e+04 0.000000e+00 0.000000e+00 0.000000e+00 0.000000e+00
-1.055061e+05 4.415824e+03 0.000000e+00 4.415824e+03 -6.211934e+04 0.000000e+00 0.000000e+00 0.000000e+00 0.000000e+00
-1.038961e+05 7.214037e+02 0.000000e+00 7.214037e+02 -6.042160e+04 0.000000e+00 0.000000e+00 0.000000e+00 0.000000e+00
-1.007289e+05 -2.237068e+03 0.000000e+00 -2.237068e+03 -5.938221e+04 0.000000e+00 0.000000e+00 0.000000e+00 0.000000e+00
-9.635429e+04 -3.758563e+03 0.000000e+00 -3.758563e+03 -5.910732e+04 0.000000e+00 0.000000e+00 0.000000e+00 0.000000e+00
-9.134847e+04 -3.129307e+03 0.000000e+00 -3.129307e+03 -5.937237e+04 0.000000e+00 0.000000e+00 0.000000e+00 0.000000e+00
-8.735419e+04 -1.920169e+03 0.000000e+00 -1.920169e+03 -5.878758e+04 0.000000e+00 0.000000e+00 0.000000e+00 0.000000e+00
-7.216010e+04 1.707528e+04 0.000000e+00 1.707528e+04 -6.586668e+04 0.000000e+00 0.000000e+00 0.000000e+00 0.000000e+00
-8.453433e+04 1.637515e+04 0.000000e+00 1.637515e+04 -6.791173e+04 0.000000e+00 0.000000e+00 0.000000e+00 0.000000e+00
-9.373167e+04 1.287599e+04 0.000000e+00 1.287599e+04 -6.542898e+04 0.000000e+00 0.000000e+00 0.000000e+00 0.000000e+00
-9.872433e+04 9.527007e+03 0.000000e+00 9.527007e+03 -6.348802e+04 0.000000e+00 0.000000e+00 0.000000e+00 0.000000e+00
-1.011344e+05 6.075578e+03 0.000000e+00 6.075578e+03 -6.173911e+04 0.000000e+00 0.000000e+00 0.000000e+00 0.000000e+00
-1.016168e+05 2.639077e+03 0.000000e+00 2.639077e+03 -6.024080e+04 0.000000e+00 0.000000e+00 0.000000e+00 0.000000e+00
-1.005326e+05 -3.999439e+02 0.000000e+00 -3.999439e+02 -5.925081e+04 0.000000e+00 0.000000e+00 0.000000e+00 0.000000e+00
-9.853265e+04 -2.564446e+03 0.000000e+00 -2.564446e+03 -5.884683e+04 0.000000e+00 0.000000e+00 0.000000e+00 0.000000e+00
-9.597984e+04 -3.389100e+03 0.000000e+00 -3.389100e+03 -5.899435e+04 0.000000e+00 0.000000e+00 0.000000e+00 0.000000e+00
-9.342974e+04 -2.520098e+03 0.000000e+00 -2.520098e+03 -5.943773e+04 0.000000e+00 0.000000e+00 0.000000e+00 0.000000e+00
-9.155505e+04 -1.404734e+03 0.000000e+00 -1.404734e+03 -5.929970e+04 0.000000e+00 0.000000e+00 0.000000e+00 0.000000e+00
-6.954427e+04 1.489501e+04 0.000000e+00 1.489501e+04 -6.406698e+04 0.000000e+00 0.000000e+00 0.000000e+00 0.000000e+00
-8.103212e+04 1.411931e+04 0.000000e+00 1.411931e+04 -6.555282e+04 0.000000e+00 0.000000e+00 0.000000e+00 0.000000e+00
-9.018083e+04 1.081902e+04 0.000000e+00 1.081902e+04 -6.326944e+04 0.000000e+00 0.000000e+00 0.000000e+00 0.000000e+00
-9.511186e+04 7.636296e+03 0.000000e+00 7.636296e+03 -6.159553e+04 0.000000e+00 0.000000e+00 0.000000e+00 0.000000e+00
-9.754541e+04 4.482671e+03 0.000000e+00 4.482671e+03 -6.017102e+04 0.000000e+00 0.000000e+00 0.000000e+00 0.000000e+00
-9.826686e+04 1.519264e+03 0.000000e+00 1.519264e+03 -5.915229e+04 0.000000e+00 0.000000e+00 0.000000e+00 0.000000e+00
-9.793403e+04 -8.944852e+02 0.000000e+00 -8.944852e+02 -5.863801e+04 0.000000e+00 0.000000e+00 0.000000e+00 0.000000e+00
-9.708959e+04 -2.424267e+03 0.000000e+00 -2.424267e+03 -5.862695e+04 0.000000e+00 0.000000e+00 0.000000e+00 0.000000e+00
-9.607063e+04 -2.814176e+03 0.000000e+00 -2.814176e+03 -5.901229e+04 0.000000e+00 0.000000e+00 0.000000e+00 0.000000e+00
-9.529128e+04 -1.939119e+03 0.000000e+00 -1.939119e+03 -5.950691e+04 0.000000e+00 0.000000e+00 0.000000e+00 0.000000e+00
-9.487668e+04 -1.004119e+03 0.000000e+00 -1.004119e+03 -5.967264e+04 0.000000e+00 0.000000e+00 0.000000e+00 0.000000e+00
-6.768487e+04 1.253751e+04 0.000000e+00 1.253751e+04 -6.332090e+04 0.000000e+00 0.000000e+00 0.000000e+00 0.000000e+00
-7.791026e+04 1.174057e+04 0.000000e+00 1.174057e+04 -6.417721e+04 0.000000e+00 0.000000e+00 0.000000e+00 0.000000e+00
-8.686148e+04 8.907083e+03 0.000000e+00 8.907083e+03 -6.207014e+04 0.000000e+00 0.000000e+00 0.000000e+00 0.000000e+00
-9.178350e+04 6.054125e+03 0.000000e+00 6.054125e+03 -6.055157e+04 0.000000e+00 0.000000e+00 0.000000e+00 0.000000e+00
-9.434409e+04 3.278242e+03 0.000000e+00 3.278242e+03 -5.937555e+04 0.000000e+00 0.000000e+00 0.000000e+00 0.000000e+00
-9.550740e+04 8.391412e+02 0.000000e+00 8.391412e+02 -5.867469e+04 0.000000e+00 0.000000e+00 0.000000e+00 0.000000e+00
-9.598520e+04 -9.893290e+02 0.000000e+00 -9.893290e+02 -5.844361e+04 0.000000e+00 0.000000e+00 0.000000e+00 0.000000e+00
-9.618129e+04 -2.030778e+03 0.000000e+00 -2.030778e+03 -5.865075e+04 0.000000e+00 0.000000e+00 0.000000e+00 0.000000e+00
-9.637550e+04 -2.174677e+03 0.000000e+00 -2.174677e+03 -5.911881e+04 0.000000e+00 0.000000e+00 0.000000e+00 0.000000e+00
-9.680489e+04 -1.413945e+03 0.000000e+00 -1.413945e+03 -5.959275e+04 0.000000e+00 0.000000e+00 0.000000e+00 0.000000e+00
-9.736127e+04 -6.757301e+02 0.000000e+00 -6.757301e+02 -5.994035e+04 0.000000e+00 0.000000e+00 0.000000e+00 0.000000e+00
-6.673377e+04 1.002902e+04 0.000000e+00 1.002902e+04 -6.355891e+04 0.000000e+00 0.000000e+00 0.000000e+00 0.000000e+00
-7.551891e+04 9.267556e+03 0.000000e+00 9.267556e+03 -6.370664e+04 0.000000e+00 0.000000e+00 0.000000e+00 0.000000e+00
-8.401492e+04 6.998543e+03 0.000000e+00 6.998543e+03 -6.162041e+04 0.000000e+00 0.000000e+00 0.000000e+00 0.000000e+00
-8.888590e+04 4.593680e+03 0.000000e+00 4.593680e+03 -6.007197e+04 0.000000e+00 0.000000e+00 0.000000e+00 0.000000e+00
-9.168874e+04 2.334836e+03 0.000000e+00 2.334836e+03 -5.901888e+04 0.000000e+00 0.000000e+00 0.000000e+00 0.000000e+00
-9.339984e+04 4.563627e+02 0.000000e+00 4.563627e+02 -5.850129e+04 0.000000e+00 0.000000e+00 0.000000e+00 0.000000e+00
-9.460236e+04 -8.648464e+02 0.000000e+00 -8.648464e+02 -5.844730e+04 0.000000e+00 0.000000e+00 0.000000e+00 0.000000e+00
-9.564215e+04 -1.540425e+03 0.000000e+00 -1.540425e+03 -5.875349e+04 0.000000e+00 0.000000e+00 0.000000e+00 0.000000e+00
-9.671673e+04 -1.556385e+03 0.000000e+00 -1.556385e+03 -5.923070e+04 0.000000e+00 0.000000e+00 0.000000e+00 0.000000e+00
-9.795217e+04 -9.684862e+02 0.000000e+00 -9.684862e+02 -5.967456e+04 0.000000e+00 0.000000e+00 0.000000e+00 0.000000e+00
-9.913612e+04 -4.300500e+02 0.000000e+00 -4.300500e+02 -6.012362e+04 0.000000e+00 0.000000e+00 0.000000e+00 0.000000e+00
-6.606540e+04 7.024275e+03 0.000000e+00 7.024275e+03 -6.438545e+04 0.000000e+00 0.000000e+00 0.000000e+00 0.000000e+00
-7.367295e+04 6.444264e+03 0.000000e+00 6.444264e+03 -6.395295e+04 0.000000e+00 0.000000e+00 0.000000e+00 0.000000e+00
-8.168148e+04 4.847798e+03 0.000000e+00 4.847798e+03 -6.163754e+04 0.000000e+00 0.000000e+00 0.000000e+00 0.000000e+00
-8.662857e+04 3.096628e+03 0.000000e+00 3.096628e+03 -5.993910e+04 0.000000e+00 0.000000e+00 0.000000e+00 0.000000e+00
-8.969999e+04 1.504888e+03 0.000000e+00 1.504888e+03 -5.892111e+04 0.000000e+00 0.000000e+00 0.000000e+00 0.000000e+00
-9.188016e+04 2.394254e+02 0.000000e+00 2.394254e+02 -5.849128e+04 0.000000e+00 0.000000e+00 0.000000e+00 0.000000e+00
-9.369200e+04 -6.228054e+02 0.000000e+00 -6.228054e+02 -5.852469e+04 0.000000e+00 0.000000e+00 0.000000e+00 0.000000e+00
-9.534987e+04 -1.024540e+03 0.000000e+00 -1.024540e+03 -5.887991e+04 0.000000e+00 0.000000e+00 0.000000e+00 0.000000e+00
-9.700126e+04 -9.880485e+02 0.000000e+00 -9.880485e+02 -5.934406e+04 0.000000e+00 0.000000e+00 0.000000e+00 0.000000e+00
-9.874627e+04 -5.870668e+02 0.000000e+00 -5.870668e+02 -5.974023e+04 0.000000e+00 0.000000e+00 0.000000e+00 0.000000e+00
-1.003055e+05 -2.342072e+02 0.000000e+00 -2.342072e+02 -6.025219e+04 0.000000e+00 0.000000e+00 0.000000e+00 0.000000e+00
-6.569052e+04 3.560977e+03 0.000000e+00 3.560977e+03 -6.495078e+04 0.000000e+00 0.000000e+00 0.000000e+00 0.000000e+00
-7.259832e+04 3.270964e+03 0.000000e+00 3.270964e+03 -6.424321e+04 0.000000e+00 0.000000e+00 0.000000e+00 0.000000e+00
-8.017262e+04 2.453541e+03 0.000000e+00 2.453541e+03 -6.170467e+04 0.000000e+00 0.000000e+00 0.000000e+00 0.000000e+00
-8.518212e+04 1.541895e+03 0.000000e+00 1.541895e+03 -5.995503e+04 0.000000e+00 0.000000e+00 0.000000e+00 0.000000e+00
-8.849099e+04 7.371559e+02 0.000000e+00 7.371559e+02 -5.894379e+04 0.000000e+00 0.000000e+00 0.000000e+00 0.000000e+00
-9.096058e+04 1.021126e+02 0.000000e+00 1.021126e+02 -5.856820e+04 0.000000e+00 0.000000e+00 0.000000e+00 0.000000e+00
-9.316216e+04 -3.209035e+02 0.000000e+00 -3.209035e+02 -5.864078e+04 0.000000e+00 0.000000e+00 0.000000e+00 0.000000e+00
-9.521355e+04 -5.076405e+02 0.000000e+00 -5.076405e+02 -5.900463e+04 0.000000e+00 0.000000e+00 0.000000e+00 0.000000e+00
-9.719441e+04 -4.733197e+02 0.000000e+00 -4.733197e+02 -5.945541e+04 0.000000e+00 0.000000e+00 0.000000e+00 0.000000e+00
-9.922022e+04 -2.652162e+02 0.000000e+00 -2.652162e+02 -5.979228e+04 0.000000e+00 0.000000e+00 0.000000e+00 0.000000e+00
-1.009354e+05 -8.854665e+01 0.000000e+00 -8.854665e+01 -6.033791e+04 0.000000e+00 0.000000e+00 0.000000e+00 0.000000e+00
-6.546850e+04 9.773052e+02 0.000000e+00 9.773052e+02 -6.488384e+04 0.000000e+00 0.000000e+00 0.000000e+00 0.000000e+00
-7.218262e+04 9.429044e+02 0.000000e+00 9.429044e+02 -6.419683e+04 0.000000e+00 0.000000e+00 0.000000e+00 0.000000e+00
-7.965383e+04 6.816991e+02 0.000000e+00 6.816991e+02 -6.171222e+04 0.000000e+00 0.000000e+00 0.000000e+00 0.000000e+00
-8.469979e+04 3.402480e+02 0.000000e+00 3.402480e+02 -6.000533e+04 0.000000e+00 0.000000e+00 0.000000e+00 0.000000e+00
-8.811402e+04 4.628747e+01 0.000000e+00 4.628747e+01 -5.901011e+04 0.000000e+00 0.000000e+00 0.000000e+00 0.000000e+00
-9.068772e+04 -1.986485e+02 0.000000e+00 -1.986485e+02 -5.865618e+04 0.000000e+00 0.000000e+00 0.000000e+00 0.000000e+00
-9.302071e+04 -3.581517e+02 0.000000e+00 -3.581517e+02 -5.873490e+04 0.000000e+00 0.000000e+00 0.000000e+00 0.000000e+00
-9.520668e+04 -4.278129e+02 0.000000e+00 -4.278129e+02 -5.908863e+04 0.000000e+00 0.000000e+00 0.000000e+00 0.000000e+00
-9.729491e+04 -4.098415e+02 0.000000e+00 -4.098415e+02 -5.953146e+04 0.000000e+00 0.000000e+00 0.000000e+00 0.000000e+00
-9.940391e+04 -3.094182e+02 0.000000e+00 -3.094182e+02 -5.983837e+04 0.000000e+00 0.000000e+00 0.000000e+00 0.000000e+00
-1.011420e+05 -2.215820e+02 0.000000e+00 -2.215820e+02 -6.038682e+04 0.000000e+00 0.000000e+00 0.000000e+00 0.000000e+00
</DataArray>
<DataArray Name="vol_eps" type="Float64" NumberOfComponents="1" format="ascii">
-1.320731e-02
-1.121647e-02
-9.264485e-03
-8.224295e-03
-7.761738e-03
-8.336040e-03
-9.900934e-03
-1.236160e-02
-1.542672e-02
-1.908022e-02
-1.945648e-02
-1.281021e-02
-1.049658e-02
-9.137213e-03
-8.717847e-03
-8.553824e-03
-8.580680e-03
-9.194723e-03
-1.072288e-02
-1.285201e-02
-1.572930e-02
-2.130891e-02
-1.075501e-02
-8.281540e-03
-7.602622e-03
-7.729061e-03
-7.870985e-03
-8.025176e-03
-8.585467e-03
-9.702381e-03
-1.008862e-02
-1.052708e-02
-1.495884e-02
-6.907200e-03
-5.436966e-03
-5.347239e-03
-5.599391e-03
-5.323075e-03
-4.503497e-03
-2.995266e-03
-1.148455e-03
1.727921e-03
6.445698e-03
1.136162e-02
-5.000481e-03
-4.766154e-03
-5.596392e-03
-6.132581e-03
-6.295724e-03
-6.270427e-03
-5.976685e-03
-5.564099e-03
-4.699436e-03
-2.884861e-03
5.541008e-04
-3.427681e-03
-3.863469e-03
-4.857352e-03
-5.243633e-03
-5.359955e-03
-5.270530e-03
-4.953577e-03
-4.424539e-03
-3.622815e-03
-2.025326e-03
3.637875e-04
-2.138133e-03
-3.206972e-03
-4.191685e-03
-4.546793e-03
-4.616177e-03
-4.425813e-03
-4.071363e-03
-3.582387e-03
-2.918612e-03
-1.747275e-03
-2.538186e-04
-1.261354e-03
-2.724522e-03
-3.670987e-03
-3.949498e-03
-3.930759e-03
-3.733633e-03
-3.431239e-03
-3.028536e-03
-2.518334e-03
-1.735450e-03
-7.968844e-04
-8.044050e-04
-2.342818e-03
-3.198163e-03
-3.399104e-03
-3.368106e-03
-3.220642e-03
-2.984765e-03
-2.679302e-03
-2.324933e-03
-1.840005e-03
-1.276345e-03
-6.192501e-04
-2.028864e-03
-2.738214e-03
-2.917116e-03
-2.928860e-03
-2.839952e-03
-2.672835e-03
-2.462781e-03
-2.243676e-03
-1.980727e-03
-1.681193e-03
-5.546940e-04
-1.759865e-03
-2.346131e-03
-2.537928e-03
-2.589958e-03
-2.546808e-03
-2.435674e-03
-2.323226e-03
-2.223952e-03
-2.114028e-03
-1.983827e-03
-5.441260e-04
-1.534672e-03
-2.045329e-03
-2.252836e-03
-2.328802e-03
-2.315914e-03
-2.267110e-03
-2.240672e-03
-2.231251e-03
-2.224260e-03
-2.206404e-03
-5.522174e-04
-1.347742e-03
-1.818194e-03
-2.028283e-03
-2.111077e-03
-2.137312e-03
-2.156452e-03
-2.196579e-03
-2.252400e-03
-2.311582e-03
-2.367620e-03
-5.824913e-04
-1.201043e-03
-1.632568e-03
-1.841170e-03
-1.941213e-03
-2.009929e-03
-2.082355e-03
-2.172310e-03
-2.275004e-03
-2.376557e-03
-2.477828e-03
-6.384112e-04
-1.114135e-03
-1.485585e-03
-1.695964e-03
-1.822262e-03
-1.924819e-03
-2.037606e-03
-2.163281e-03
-2.295848e-03
-2.420420e-03
-2.548178e-03
-6.765293e-04
-1.071528e-03
-1.392197e-03
-1.606560e-03
-1.754610e-03
-1.879364e-03
-2.016338e-03
-2.163907e-03
-2.312477e-03
-2.447256e-03
-2.585688e-03
-6.648673e-04
-1.045239e-03
-1.358957e-03
-1.580395e-03
-1.738164e-03
-1.872494e-03
-2.016809e-03
-2.171293e-03
-2.324469e-03
-2.460964e-03
-2.600104e-03
</DataArray>
</PointData>
</Piece>
</UnstructuredGrid>
</VTKFile>
