<?xml version="1.0"?>
<VTKFile type="UnstructuredGrid" version="0.1">
<UnstructuredGrid>
<FieldData>
<DataArray Name="TIME" type="Float64" format="ascii" NumberOfTuples="1">
0.000000e+00
</DataArray>
</FieldData>
<FieldData>
<DataArray Name="CYCLE" type="Int32" format="ascii" NumberOfTuples="1">
0
</DataArray>
</FieldData>
<Piece NumberOfPoints="187" NumberOfCells="160">
<Points>
<DataArray NumberOfComponents="3" type="Float64" format="ascii">
0.000000e+00 0.000000e+00 0.000000e+00
0.000000e+00 1.970543e-01 0.000000e+00
0.000000e+00 3.927468e-01 0.000000e+00
0.000000e+00 5.863867e-01 0.000000e+00
0.000000e+00 7.784590e-01 0.000000e+00
0.000000e+00 9.698377e-01 0.000000e+00
0.000000e+00 1.161036e+00 0.000000e+00
0.000000e+00 1.352426e+00 0.000000e+00
0.000000e+00 1.545152e+00 0.000000e+00
0.000000e+00 1.740768e+00 0.000000e+00
0.000000e+00 1.937000e+00 0.000000e+00
2.250000e-01 0.000000e+00 0.000000e+00
2.265530e-01 1.970340e-01 0.000000e+00
2.288926e-01 3.927957e-01 0.000000e+00
2.313285e-01 5.872163e-01 0.000000e+00
2.327286e-01 7.803397e-01 0.000000e+00
2.331783e-01 9.725481e-01 0.000000e+00
2.329801e-01 1.164310e+00 0.000000e+00
2.318986e-01 1.356079e+00 0.000000e+00
2.290447e-01 1.548026e+00 0.000000e+00
2.255373e-01 1.741138e+00 0.000000e+00
2.250000e-01 1.937000e+00 0.000000e+00
4.500000e-01 0.000000e+00 0.000000e+00
4.533820e-01 1.973717e-01 0.000000e+00
4.570576e-01 3.939044e-01 0.000000e+00
4.602874e-01 5.900089e-01 0.000000e+00
4.627523e-01 7.857028e-01 0.000000e+00
4.642937e-01 9.806088e-01 0.000000e+00
4.648298e-01 1.174445e+00 0.000000e+00
4.642798e-01 1.367012e+00 0.000000e+00
4.618968e-01 1.557956e+00 0.000000e+00
4.575034e-01 1.747685e+00 0.000000e+00
4.500000e-01 1.937000e+00 0.000000e+00
6.750000e-01 0.000000e+00 0.000000e+00
6.797365e-01 1.984740e-01 0.000000e+00
6.838976e-01 3.967555e-01 0.000000e+00
6.871467e-01 5.951672e-01 0.000000e+00
6.897709e-01 7.937863e-01 0.000000e+00
6.917608e-01 9.926690e-01 0.000000e+00
6.929927e-01 1.191855e+00 0.000000e+00
6.931680e-01 1.391445e+00 0.000000e+00
6.917890e-01 1.591513e+00 0.000000e+00
6.883209e-01 1.791893e+00 0.000000e+00
6.821756e-01 1.992089e+00 0.000000e+00
9.000000e-01 0.000000e+00 0.000000e+00
9.051875e-01 1.988978e-01 0.000000e+00
9.090425e-01 3.978696e-01 0.000000e+00
9.118558e-01 5.970853e-01 0.000000e+00
9.141383e-01 7.965645e-01 0.000000e+00
9.157798e-01 9.963269e-01 0.000000e+00
9.166466e-01 1.196432e+00 0.000000e+00
9.164405e-01 1.396871e+00 0.000000e+00
9.148856e-01 1.597547e+00 0.000000e+00
9.118006e-01 1.798147e+00 0.000000e+00
9.076155e-01 1.998175e+00 0.000000e+00
1.125000e+00 0.000000e+00 0.000000e+00
1.130261e+00 1.993352e-01 0.000000e+00
1.133555e+00 3.988381e-01 0.000000e+00
1.136025e+00 5.985921e-01 0.000000e+00
1.137978e+00 7.985888e-01 0.000000e+00
1.139285e+00 9.988563e-01 0.000000e+00
1.139847e+00 1.199397e+00 0.000000e+00
1.139475e+00 1.400171e+00 0.000000e+00
1.138057e+00 1.601013e+00 0.000000e+00
1.135744e+00 1.801592e+00 0.000000e+00
1.133173e+00 2.001673e+00 0.000000e+00
1.350000e+00 0.000000e+00 0.000000e+00
1.354930e+00 1.996911e-01 0.000000e+00
1.357753e+00 3.995452e-01 0.000000e+00
1.359906e+00 5.996100e-01 0.000000e+00
1.361539e+00 7.999141e-01 0.000000e+00
1.362590e+00 1.000459e+00 0.000000e+00
1.362964e+00 1.201231e+00 0.000000e+00
1.362569e+00 1.402140e+00 0.000000e+00
1.361467e+00 1.602986e+00 0.000000e+00
1.359916e+00 1.803519e+00 0.000000e+00
1.358413e+00 2.003645e+00 0.000000e+00
1.575000e+00 0.000000e+00 0.000000e+00
1.579349e+00 1.999170e-01 0.000000e+00
1.581793e+00 3.999784e-01 0.000000e+00
1.583639e+00 6.002488e-01 0.000000e+00
1.585014e+00 8.007342e-01 0.000000e+00
1.585860e+00 1.001434e+00 0.000000e+00
1.586126e+00 1.202303e+00 0.000000e+00
1.585822e+00 1.403210e+00 0.000000e+00
1.585088e+00 1.603985e+00 0.000000e+00
1.584155e+00 1.804486e+00 0.000000e+00
1.583367e+00 2.004673e+00 0.000000e+00
1.800000e+00 0.000000e+00 0.000000e+00
1.803652e+00 2.000204e-01 0.000000e+00
1.805757e+00 4.002248e-01 0.000000e+00
1.807344e+00 6.006138e-01 0.000000e+00
1.808492e+00 8.011955e-01 0.000000e+00
1.809178e+00 1.001953e+00 0.000000e+00
1.809411e+00 1.202807e+00 0.000000e+00
1.809260e+00 1.403647e+00 0.000000e+00
1.808856e+00 1.604349e+00 0.000000e+00
1.808378e+00 1.804835e+00 0.000000e+00
1.808066e+00 2.005088e+00 0.000000e+00
2.025000e+00 0.000000e+00 0.000000e+00
2.027930e+00 2.000585e-01 0.000000e+00
2.029726e+00 4.003289e-01 0.000000e+00
2.031079e+00 6.007758e-01 0.000000e+00
2.032036e+00 8.013855e-01 0.000000e+00
2.032614e+00 1.002118e+00 0.000000e+00
2.032862e+00 1.202903e+00 0.000000e+00
2.032860e+00 1.403660e+00 0.000000e+00
2.032707e+00 1.604308e+00 0.000000e+00
2.032546e+00 1.804797e+00 0.000000e+00
2.032533e+00 2.005123e+00 0.000000e+00
2.250000e+00 0.000000e+00 0.000000e+00
2.252258e+00 2.000612e-01 0.000000e+00
2.253755e+00 4.003423e-01 0.000000e+00
2.254888e+00 6.007887e-01 0.000000e+00
2.255692e+00 8.013696e-01 0.000000e+00
2.256200e+00 1.002038e+00 0.000000e+00
2.256475e+00 1.202742e+00 0.000000e+00
2.256581e+00 1.403425e+00 0.000000e+00
2.256598e+00 1.604033e+00 0.000000e+00
2.256638e+00 1.804536e+00 0.000000e+00
2.256799e+00 2.004936e+00 0.000000e+00
2.475000e+00 0.000000e+00 0.000000e+00
2.476665e+00 2.000429e-01 0.000000e+00
2.477876e+00 4.002940e-01 0.000000e+00
2.478806e+00 6.006969e-01 0.000000e+00
2.479479e+00 8.012183e-01 0.000000e+00
2.479934e+00 1.001814e+00 0.000000e+00
2.480217e+00 1.202447e+00 0.000000e+00
2.480386e+00 1.403072e+00 0.000000e+00
2.480504e+00 1.603651e+00 0.000000e+00
2.480653e+00 1.804169e+00 0.000000e+00
2.480893e+00 2.004638e+00 0.000000e+00
2.700000e+00 0.000000e+00 0.000000e+00
2.701173e+00 2.000155e-01 0.000000e+00
2.702108e+00 4.002116e-01 0.000000e+00
2.702847e+00 6.005514e-01 0.000000e+00
2.703399e+00 8.010058e-01 0.000000e+00
2.703793e+00 1.001537e+00 0.000000e+00
2.704062e+00 1.202108e+00 0.000000e+00
2.704252e+00 1.402687e+00 0.000000e+00
2.704413e+00 1.603248e+00 0.000000e+00
2.704601e+00 1.803783e+00 0.000000e+00
2.704855e+00 2.004307e+00 0.000000e+00
2.925000e+00 0.000000e+00 0.000000e+00
2.925786e+00 1.999833e-01 0.000000e+00
2.926460e+00 4.001213e-01 0.000000e+00
2.927009e+00 6.003973e-01 0.000000e+00
2.927436e+00 8.007900e-01 0.000000e+00
2.927753e+00 1.001265e+00 0.000000e+00
2.927982e+00 1.201789e+00 0.000000e+00
2.928158e+00 1.402335e+00 0.000000e+00
2.928318e+00 1.602884e+00 0.000000e+00
2.928497e+00 1.803434e+00 0.000000e+00
2.928721e+00 2.003999e+00 0.000000e+00
3.150000e+00 0.000000e+00 0.000000e+00
3.150483e+00 1.999542e-01 0.000000e+00
3.150913e+00 4.000469e-01 0.000000e+00
3.151278e+00 6.002748e-01 0.000000e+00
3.151567e+00 8.006151e-01 0.000000e+00
3.151790e+00 1.001047e+00 0.000000e+00
3.151957e+00 1.201535e+00 0.000000e+00
3.152090e+00 1.402057e+00 0.000000e+00
3.152215e+00 1.602599e+00 0.000000e+00
3.152354e+00 1.803160e+00 0.000000e+00
3.152516e+00 2.003754e+00 0.000000e+00
3.375000e+00 0.000000e+00 0.000000e+00
3.375231e+00 1.999363e-01 0.000000e+00
3.375438e+00 4.000036e-01 0.000000e+00
3.375620e+00 6.002012e-01 0.000000e+00
3.375766e+00 8.005110e-01 0.000000e+00
3.375880e+00 1.000911e+00 0.000000e+00
3.375968e+00 1.201376e+00 0.000000e+00
3.376040e+00 1.401882e+00 0.000000e+00
3.376108e+00 1.602417e+00 0.000000e+00
3.376183e+00 1.802985e+00 0.000000e+00
3.376268e+00 2.003597e+00 0.000000e+00
3.600000e+00 0.000000e+00 0.000000e+00
3.600000e+00 1.999425e-01 0.000000e+00
3.600000e+00 4.000037e-01 0.000000e+00
3.600000e+00 6.001908e-01 0.000000e+00
3.600000e+00 8.004888e-01 0.000000e+00
3.600000e+00 1.000875e+00 0.000000e+00
3.600000e+00 1.201328e+00 0.000000e+00
3.600000e+00 1.401825e+00 0.000000e+00
3.600000e+00 1.602355e+00 0.000000e+00
3.600000e+00 1.802921e+00 0.000000e+00
3.600000e+00 2.003537e+00 0.000000e+00
</DataArray>
</Points>
<Cells>
<DataArray Name="connectivity" type="Int32" format="ascii">
0 11 12 1
1 12 13 2
2 13 14 3
3 14 15 4
4 15 16 5
5 16 17 6
6 17 18 7
7 18 19 8
8 19 20 9
9 20 21 10
11 22 23 12
12 23 24 13
13 24 25 14
14 25 26 15
15 26 27 16
16 27 28 17
17 28 29 18
18 29 30 19
19 30 31 20
20 31 32 21
22 33 34 23
23 34 35 24
24 35 36 25
25 36 37 26
26 37 38 27
27 38 39 28
28 39 40 29
29 40 41 30
30 41 42 31
31 42 43 32
33 44 45 34
34 45 46 35
35 46 47 36
36 47 48 37
37 48 49 38
38 49 50 39
39 50 51 40
40 51 52 41
41 52 53 42
42 53 54 43
44 55 56 45
45 56 57 46
46 57 58 47
47 58 59 48
48 59 60 49
49 60 61 50
50 61 62 51
51 62 63 52
52 63 64 53
53 64 65 54
55 66 67 56
56 67 68 57
57 68 69 58
58 69 70 59
59 70 71 60
60 71 72 61
61 72 73 62
62 73 74 63
63 74 75 64
64 75 76 65
66 77 78 67
67 78 79 68
68 79 80 69
69 80 81 70
70 81 82 71
71 82 83 72
72 83 84 73
73 84 85 74
74 85 86 75
75 86 87 76
77 88 89 78
78 89 90 79
79 90 91 80
80 91 92 81
81 92 93 82
82 93 94 83
83 94 95 84
84 95 96 85
85 96 97 86
86 97 98 87
88 99 100 89
89 100 101 90
90 101 102 91
91 102 103 92
92 103 104 93
93 104 105 94
94 105 106 95
95 106 107 96
96 107 108 97
97 108 109 98
99 110 111 100
100 111 112 101
101 112 113 102
102 113 114 103
103 114 115 104
104 115 116 105
105 116 117 106
106 117 118 107
107 118 119 108
108 119 120 109
110 121 122 111
111 122 123 112
112 123 124 113
113 124 125 114
114 125 126 115
115 126 127 116
116 127 128 117
117 128 129 118
118 129 130 119
119 130 131 120
121 132 133 122
122 133 134 123
123 134 135 124
124 135 136 125
125 136 137 126
126 137 138 127
127 138 139 128
128 139 140 129
129 140 141 130
130 141 142 131
132 143 144 133
133 144 145 134
134 145 146 135
135 146 147 136
136 147 148 137
137 148 149 138
138 149 150 139
139 150 151 140
140 151 152 141
141 152 153 142
143 154 155 144
144 155 156 145
145 156 157 146
146 157 158 147
147 158 159 148
148 159 160 149
149 160 161 150
150 161 162 151
151 162 163 152
152 163 164 153
154 165 166 155
155 166 167 156
156 167 168 157
157 168 169 158
158 169 170 159
159 170 171 160
160 171 172 161
161 172 173 162
162 173 174 163
163 174 175 164
165 176 177 166
166 177 178 167
167 178 179 168
168 179 180 169
169 180 181 170
170 181 182 171
171 182 183 172
172 183 184 173
173 184 185 174
174 185 186 175
</DataArray>
<DataArray Name="offsets" type="Int32" format="ascii">
4
8
12
16
20
24
28
32
36
40
44
48
52
56
60
64
68
72
76
80
84
88
92
96
100
104
108
112
116
120
124
128
132
136
140
144
148
152
156
160
164
168
172
176
180
184
188
192
196
200
204
208
212
216
220
224
228
232
236
240
244
248
252
256
260
264
268
272
276
280
284
288
292
296
300
304
308
312
316
320
324
328
332
336
340
344
348
352
356
360
364
368
372
376
380
384
388
392
396
400
404
408
412
416
420
424
428
432
436
440
444
448
452
456
460
464
468
472
476
480
484
488
492
496
500
504
508
512
516
520
524
528
532
536
540
544
548
552
556
560
564
568
572
576
580
584
588
592
596
600
604
608
612
616
620
624
628
632
636
640
</DataArray>
<DataArray Name="types" type="UInt8" format="ascii">
9
9
9
9
9
9
9
9
9
9
9
9
9
9
9
9
9
9
9
9
9
9
9
9
9
9
9
9
9
9
9
9
9
9
9
9
9
9
9
9
9
9
9
9
9
9
9
9
9
9
9
9
9
9
9
9
9
9
9
9
9
9
9
9
9
9
9
9
9
9
9
9
9
9
9
9
9
9
9
9
9
9
9
9
9
9
9
9
9
9
9
9
9
9
9
9
9
9
9
9
9
9
9
9
9
9
9
9
9
9
9
9
9
9
9
9
9
9
9
9
9
9
9
9
9
9
9
9
9
9
9
9
9
9
9
9
9
9
9
9
9
9
9
9
9
9
9
9
9
9
9
9
9
9
9
9
9
9
9
9
</DataArray>
</Cells>
<PointData>
<DataArray Name="disp" type="Float64" NumberOfComponents="3" format="ascii">
0.000000e+00 0.000000e+00 0.000000e+00
0.000000e+00 -2.945738e-03 0.000000e+00
0.000000e+00 -7.253202e-03 0.000000e+00
0.000000e+00 -1.361325e-02 0.000000e+00
0.000000e+00 -2.154098e-02 0.000000e+00
0.000000e+00 -3.016229e-02 0.000000e+00
0.000000e+00 -3.896364e-02 0.000000e+00
0.000000e+00 -4.757385e-02 0.000000e+00
0.000000e+00 -5.484783e-02 0.000000e+00
0.000000e+00 -5.923226e-02 0.000000e+00
0.000000e+00 -6.300000e-02 0.000000e+00
0.000000e+00 0.000000e+00 0.000000e+00
1.552992e-03 -2.966017e-03 0.000000e+00
3.892625e-03 -7.204284e-03 0.000000e+00
6.328475e-03 -1.278374e-02 0.000000e+00
7.728653e-03 -1.966034e-02 0.000000e+00
8.178271e-03 -2.745193e-02 0.000000e+00
7.980105e-03 -3.569025e-02 0.000000e+00
6.898635e-03 -4.392080e-02 0.000000e+00
4.044730e-03 -5.197424e-02 0.000000e+00
5.373402e-04 -5.886175e-02 0.000000e+00
0.000000e+00 -6.300000e-02 0.000000e+00
0.000000e+00 0.000000e+00 0.000000e+00
3.382022e-03 -2.628333e-03 0.000000e+00
7.057562e-03 -6.095625e-03 0.000000e+00
1.028738e-02 -9.991147e-03 0.000000e+00
1.275232e-02 -1.429718e-02 0.000000e+00
1.429366e-02 -1.939125e-02 0.000000e+00
1.482982e-02 -2.555492e-02 0.000000e+00
1.427977e-02 -3.298804e-02 0.000000e+00
1.189682e-02 -4.204387e-02 0.000000e+00
7.503434e-03 -5.231519e-02 0.000000e+00
0.000000e+00 -6.300000e-02 0.000000e+00
0.000000e+00 0.000000e+00 0.000000e+00
4.736471e-03 -1.525995e-03 0.000000e+00
8.897576e-03 -3.244485e-03 0.000000e+00
1.214672e-02 -4.832844e-03 0.000000e+00
1.477088e-02 -6.213652e-03 0.000000e+00
1.676081e-02 -7.331003e-03 0.000000e+00
1.799267e-02 -8.145168e-03 0.000000e+00
1.816797e-02 -8.554727e-03 0.000000e+00
1.678905e-02 -8.487312e-03 0.000000e+00
1.332089e-02 -8.106759e-03 0.000000e+00
7.175599e-03 -7.911106e-03 0.000000e+00
0.000000e+00 0.000000e+00 0.000000e+00
5.187468e-03 -1.102182e-03 0.000000e+00
9.042456e-03 -2.130339e-03 0.000000e+00
1.185575e-02 -2.914682e-03 0.000000e+00
1.413834e-02 -3.435464e-03 0.000000e+00
1.577985e-02 -3.673062e-03 0.000000e+00
1.664658e-02 -3.568050e-03 0.000000e+00
1.644048e-02 -3.129396e-03 0.000000e+00
1.488556e-02 -2.452814e-03 0.000000e+00
1.180064e-02 -1.852550e-03 0.000000e+00
7.615563e-03 -1.825480e-03 0.000000e+00
0.000000e+00 0.000000e+00 0.000000e+00
5.261187e-03 -6.648450e-04 0.000000e+00
8.555131e-03 -1.161886e-03 0.000000e+00
1.102499e-02 -1.407874e-03 0.000000e+00
1.297761e-02 -1.411231e-03 0.000000e+00
1.428485e-02 -1.143700e-03 0.000000e+00
1.484728e-02 -6.032939e-04 0.000000e+00
1.447520e-02 1.710246e-04 0.000000e+00
1.305711e-02 1.012833e-03 0.000000e+00
1.074361e-02 1.592398e-03 0.000000e+00
8.172898e-03 1.672554e-03 0.000000e+00
0.000000e+00 0.000000e+00 0.000000e+00
4.930336e-03 -3.089482e-04 0.000000e+00
7.752643e-03 -4.548456e-04 0.000000e+00
9.905959e-03 -3.900214e-04 0.000000e+00
1.153914e-02 -8.593665e-05 0.000000e+00
1.259002e-02 4.586411e-04 0.000000e+00
1.296387e-02 1.230608e-03 0.000000e+00
1.256885e-02 2.140161e-03 0.000000e+00
1.146656e-02 2.986137e-03 0.000000e+00
9.915590e-03 3.518717e-03 0.000000e+00
8.412575e-03 3.645226e-03 0.000000e+00
0.000000e+00 0.000000e+00 0.000000e+00
4.348523e-03 -8.303223e-05 0.000000e+00
6.793061e-03 -2.159972e-05 0.000000e+00
8.639315e-03 2.487384e-04 0.000000e+00
1.001406e-02 7.341878e-04 0.000000e+00
1.086009e-02 1.434379e-03 0.000000e+00
1.112562e-02 2.302712e-03 0.000000e+00
1.082218e-02 3.210097e-03 0.000000e+00
1.008753e-02 3.985432e-03 0.000000e+00
9.154646e-03 4.486012e-03 0.000000e+00
8.367004e-03 4.672504e-03 0.000000e+00
0.000000e+00 0.000000e+00 0.000000e+00
3.651675e-03 2.038253e-05 0.000000e+00
5.757462e-03 2.248401e-04 0.000000e+00
7.343879e-03 6.137750e-04 0.000000e+00
8.491958e-03 1.195487e-03 0.000000e+00
9.177576e-03 1.952776e-03 0.000000e+00
9.410759e-03 2.807267e-03 0.000000e+00
9.260177e-03 3.646902e-03 0.000000e+00
8.856429e-03 4.349356e-03 0.000000e+00
8.378508e-03 4.834650e-03 0.000000e+00
8.066495e-03 5.087936e-03 0.000000e+00
0.000000e+00 0.000000e+00 0.000000e+00
2.930502e-03 5.850525e-05 0.000000e+00
4.726053e-03 3.289268e-04 0.000000e+00
6.078955e-03 7.757741e-04 0.000000e+00
7.036167e-03 1.385434e-03 0.000000e+00
7.613637e-03 2.118167e-03 0.000000e+00
7.861987e-03 2.903092e-03 0.000000e+00
7.860123e-03 3.659768e-03 0.000000e+00
7.707061e-03 4.307538e-03 0.000000e+00
7.545993e-03 4.797177e-03 0.000000e+00
7.533461e-03 5.123255e-03 0.000000e+00
0.000000e+00 0.000000e+00 0.000000e+00
2.257539e-03 6.122382e-05 0.000000e+00
3.754739e-03 3.422429e-04 0.000000e+00
4.887925e-03 7.886323e-04 0.000000e+00
5.691700e-03 1.369628e-03 0.000000e+00
6.199657e-03 2.037853e-03 0.000000e+00
6.474904e-03 2.741471e-03 0.000000e+00
6.580576e-03 3.425184e-03 0.000000e+00
6.597564e-03 4.033109e-03 0.000000e+00
6.637754e-03 4.535752e-03 0.000000e+00
6.798614e-03 4.935890e-03 0.000000e+00
0.000000e+00 0.000000e+00 0.000000e+00
1.665561e-03 4.286191e-05 0.000000e+00
2.875781e-03 2.940229e-04 0.000000e+00
3.805743e-03 6.969429e-04 0.000000e+00
4.479293e-03 1.218308e-03 0.000000e+00
4.933751e-03 1.814111e-03 0.000000e+00
5.217487e-03 2.447078e-03 0.000000e+00
5.386041e-03 3.071514e-03 0.000000e+00
5.504062e-03 3.650564e-03 0.000000e+00
5.652691e-03 4.168905e-03 0.000000e+00
5.892903e-03 4.638004e-03 0.000000e+00
0.000000e+00 0.000000e+00 0.000000e+00
1.173058e-03 1.550660e-05 0.000000e+00
2.107933e-03 2.116407e-04 0.000000e+00
2.847137e-03 5.513908e-04 0.000000e+00
3.399486e-03 1.005809e-03 0.000000e+00
3.792889e-03 1.536756e-03 0.000000e+00
4.061706e-03 2.108267e-03 0.000000e+00
4.251637e-03 2.687310e-03 0.000000e+00
4.413042e-03 3.247564e-03 0.000000e+00
4.601382e-03 3.782957e-03 0.000000e+00
4.855228e-03 4.306539e-03 0.000000e+00
0.000000e+00 0.000000e+00 0.000000e+00
7.859796e-04 -1.672172e-05 0.000000e+00
1.459908e-03 1.213419e-04 0.000000e+00
2.009083e-03 3.973467e-04 0.000000e+00
2.436243e-03 7.900351e-04 0.000000e+00
2.753465e-03 1.265391e-03 0.000000e+00
2.981694e-03 1.789329e-03 0.000000e+00
3.157602e-03 2.334796e-03 0.000000e+00
3.317527e-03 2.884144e-03 0.000000e+00
3.497215e-03 3.434215e-03 0.000000e+00
3.720670e-03 3.999063e-03 0.000000e+00
0.000000e+00 0.000000e+00 0.000000e+00
4.826026e-04 -4.585028e-05 0.000000e+00
9.129465e-04 4.691974e-05 0.000000e+00
1.277806e-03 2.747720e-04 0.000000e+00
1.567039e-03 6.151187e-04 0.000000e+00
1.790201e-03 1.046549e-03 0.000000e+00
1.956719e-03 1.535474e-03 0.000000e+00
2.089792e-03 2.057371e-03 0.000000e+00
2.215545e-03 2.599011e-03 0.000000e+00
2.353567e-03 3.159944e-03 0.000000e+00
2.515883e-03 3.754343e-03 0.000000e+00
0.000000e+00 0.000000e+00 0.000000e+00
2.305626e-04 -6.375025e-05 0.000000e+00
4.379822e-04 3.583639e-06 0.000000e+00
6.203668e-04 2.012400e-04 0.000000e+00
7.663366e-04 5.110193e-04 0.000000e+00
8.798299e-04 9.111402e-04 0.000000e+00
9.682189e-04 1.376011e-03 0.000000e+00
1.039512e-03 1.881758e-03 0.000000e+00
1.108329e-03 2.417316e-03 0.000000e+00
1.183033e-03 2.984745e-03 0.000000e+00
1.267726e-03 3.596627e-03 0.000000e+00
0.000000e+00 0.000000e+00 0.000000e+00
0.000000e+00 -5.751784e-05 0.000000e+00
0.000000e+00 3.725462e-06 0.000000e+00
0.000000e+00 1.908298e-04 0.000000e+00
0.000000e+00 4.887753e-04 0.000000e+00
0.000000e+00 8.749148e-04 0.000000e+00
0.000000e+00 1.327788e-03 0.000000e+00
0.000000e+00 1.824648e-03 0.000000e+00
0.000000e+00 2.354892e-03 0.000000e+00
0.000000e+00 2.921199e-03 0.000000e+00
0.000000e+00 3.536809e-03 0.000000e+00
</DataArray>
<DataArray Name="shear" type="Float64" NumberOfComponents="1" format="ascii">
1.736151e-02
2.591562e-02
4.377837e-02
6.218522e-02
7.435169e-02
7.948520e-02
7.904445e-02
7.083668e-02
5.011625e-02
2.761245e-02
2.044228e-02
1.903681e-02
2.736750e-02
4.199177e-02
5.567645e-02
6.685293e-02
7.463854e-02
7.810712e-02
7.581918e-02
6.538305e-02
4.655480e-02
3.183977e-02
2.315069e-02
2.967217e-02
3.867281e-02
4.608980e-02
5.551473e-02
6.755892e-02
8.081282e-02
9.348891e-02
1.044709e-01
1.091558e-01
1.083574e-01
2.599324e-02
2.817393e-02
3.034939e-02
3.282148e-02
3.744793e-02
4.428437e-02
5.338349e-02
6.423801e-02
7.682737e-02
9.009527e-02
1.008264e-01
2.700831e-02
2.520486e-02
2.171651e-02
2.050182e-02
2.063495e-02
2.065794e-02
2.010679e-02
1.830080e-02
1.437772e-02
7.147794e-03
7.567368e-04
2.681924e-02
2.321364e-02
1.823605e-02
1.709067e-02
1.685641e-02
1.653213e-02
1.583830e-02
1.425161e-02
1.101383e-02
5.407036e-03
1.365473e-03
2.494045e-02
2.066192e-02
1.544932e-02
1.455287e-02
1.437383e-02
1.423585e-02
1.382700e-02
1.256872e-02
9.767929e-03
5.216888e-03
1.959136e-03
2.192556e-02
1.790310e-02
1.332965e-02
1.275788e-02
1.279862e-02
1.289544e-02
1.260870e-02
1.140055e-02
8.944775e-03
5.313013e-03
2.785760e-03
1.839506e-02
1.514184e-02
1.168326e-02
1.137018e-02
1.157001e-02
1.175010e-02
1.145971e-02
1.035604e-02
8.355848e-03
5.602544e-03
3.787221e-03
1.479187e-02
1.249110e-02
1.020958e-02
1.012469e-02
1.039147e-02
1.056723e-02
1.032174e-02
9.470165e-03
7.993153e-03
6.044769e-03
4.841959e-03
1.141713e-02
9.994787e-03
8.748783e-03
8.878805e-03
9.213353e-03
9.426673e-03
9.316886e-03
8.770195e-03
7.789441e-03
6.557079e-03
5.852570e-03
8.442267e-03
7.710030e-03
7.276341e-03
7.633836e-03
8.099558e-03
8.428287e-03
8.496986e-03
8.235215e-03
7.689041e-03
7.053380e-03
6.736553e-03
5.956254e-03
5.683212e-03
5.842319e-03
6.466875e-03
7.117859e-03
7.600738e-03
7.847593e-03
7.842463e-03
7.659390e-03
7.476362e-03
7.434318e-03
3.979303e-03
3.963159e-03
4.546594e-03
5.447839e-03
6.300483e-03
6.945605e-03
7.356445e-03
7.568324e-03
7.669064e-03
7.809487e-03
7.956624e-03
2.429486e-03
2.572378e-03
3.511735e-03
4.651927e-03
5.669100e-03
6.459231e-03
7.005139e-03
7.381200e-03
7.687692e-03
8.049706e-03
8.321058e-03
1.163968e-03
1.526205e-03
2.826260e-03
4.147905e-03
5.264644e-03
6.138634e-03
6.777224e-03
7.257231e-03
7.693163e-03
8.188954e-03
8.529199e-03
3.960303e-04
1.087231e-03
2.584602e-03
3.970901e-03
5.119100e-03
6.016226e-03
6.689020e-03
7.206335e-03
7.686867e-03
8.228653e-03
8.592042e-03
</DataArray>
<DataArray Name="stress" type="Float64" NumberOfComponents="9" format="ascii">
-1.174782e+05 5.609474e+03 0.000000e+00 5.609474e+03 -2.012835e+05 0.000000e+00 0.000000e+00 0.000000e+00 0.000000e+00
-1.035211e+05 4.334161e+03 0.000000e+00 4.334161e+03 -2.014177e+05 0.000000e+00 0.000000e+00 0.000000e+00 0.000000e+00
-1.029533e+05 2.978388e+03 0.000000e+00 2.978388e+03 -2.110871e+05 0.000000e+00 0.000000e+00 0.000000e+00 0.000000e+00
-1.111169e+05 3.179708e+03 0.000000e+00 3.179708e+03 -2.118749e+05 0.000000e+00 0.000000e+00 0.000000e+00 0.000000e+00
-1.157146e+05 5.158500e+03 0.000000e+00 5.158500e+03 -2.219813e+05 0.000000e+00 0.000000e+00 0.000000e+00 0.000000e+00
-1.214356e+05 7.339932e+03 0.000000e+00 7.339932e+03 -2.324415e+05 0.000000e+00 0.000000e+00 0.000000e+00 0.000000e+00
-1.279389e+05 9.694409e+03 0.000000e+00 9.694409e+03 -2.453834e+05 0.000000e+00 0.000000e+00 0.000000e+00 0.000000e+00
-1.372608e+05 1.014716e+04 0.000000e+00 1.014716e+04 -2.573239e+05 0.000000e+00 0.000000e+00 0.000000e+00 0.000000e+00
-1.404013e+05 5.259260e+03 0.000000e+00 5.259260e+03 -2.678813e+05 0.000000e+00 0.000000e+00 0.000000e+00 0.000000e+00
-1.467220e+05 -1.228578e+03 0.000000e+00 -1.228578e+03 -2.760234e+05 0.000000e+00 0.000000e+00 0.000000e+00 0.000000e+00
-1.533927e+05 -6.044879e+02 0.000000e+00 -6.044879e+02 -2.663359e+05 0.000000e+00 0.000000e+00 0.000000e+00 0.000000e+00
-1.182151e+05 1.644774e+04 0.000000e+00 1.644774e+04 -1.951353e+05 0.000000e+00 0.000000e+00 0.000000e+00 0.000000e+00
-1.039872e+05 1.396480e+04 0.000000e+00 1.396480e+04 -1.922939e+05 0.000000e+00 0.000000e+00 0.000000e+00 0.000000e+00
-1.017065e+05 1.239450e+04 0.000000e+00 1.239450e+04 -2.034543e+05 0.000000e+00 0.000000e+00 0.000000e+00 0.000000e+00
-1.096399e+05 1.219396e+04 0.000000e+00 1.219396e+04 -2.127891e+05 0.000000e+00 0.000000e+00 0.000000e+00 0.000000e+00
-1.162688e+05 1.268536e+04 0.000000e+00 1.268536e+04 -2.254092e+05 0.000000e+00 0.000000e+00 0.000000e+00 0.000000e+00
-1.226639e+05 1.368712e+04 0.000000e+00 1.368712e+04 -2.363066e+05 0.000000e+00 0.000000e+00 0.000000e+00 0.000000e+00
-1.279817e+05 1.430019e+04 0.000000e+00 1.430019e+04 -2.457122e+05 0.000000e+00 0.000000e+00 0.000000e+00 0.000000e+00
-1.353745e+05 1.292419e+04 0.000000e+00 1.292419e+04 -2.537832e+05 0.000000e+00 0.000000e+00 0.000000e+00 0.000000e+00
-1.397188e+05 6.860943e+03 0.000000e+00 6.860943e+03 -2.647280e+05 0.000000e+00 0.000000e+00 0.000000e+00 0.000000e+00
-1.421849e+05 -1.370533e+03 0.000000e+00 -1.370533e+03 -2.696736e+05 0.000000e+00 0.000000e+00 0.000000e+00 0.000000e+00
-1.630661e+05 -7.186353e+03 0.000000e+00 -7.186353e+03 -3.014642e+05 0.000000e+00 0.000000e+00 0.000000e+00 0.000000e+00
-1.163242e+05 2.788215e+04 0.000000e+00 2.788215e+04 -1.712849e+05 0.000000e+00 0.000000e+00 0.000000e+00 0.000000e+00
-1.036114e+05 2.475498e+04 0.000000e+00 2.475498e+04 -1.651055e+05 0.000000e+00 0.000000e+00 0.000000e+00 0.000000e+00
-1.025050e+05 2.472802e+04 0.000000e+00 2.472802e+04 -1.726623e+05 0.000000e+00 0.000000e+00 0.000000e+00 0.000000e+00
-1.091883e+05 2.642739e+04 0.000000e+00 2.642739e+04 -1.831620e+05 0.000000e+00 0.000000e+00 0.000000e+00 0.000000e+00
-1.170577e+05 2.794051e+04 0.000000e+00 2.794051e+04 -1.935157e+05 0.000000e+00 0.000000e+00 0.000000e+00 0.000000e+00
-1.269110e+05 3.020397e+04 0.000000e+00 3.020397e+04 -2.053522e+05 0.000000e+00 0.000000e+00 0.000000e+00 0.000000e+00
-1.389018e+05 3.252255e+04 0.000000e+00 3.252255e+04 -2.206050e+05 0.000000e+00 0.000000e+00 0.000000e+00 0.000000e+00
-1.546233e+05 3.405820e+04 0.000000e+00 3.405820e+04 -2.373424e+05 0.000000e+00 0.000000e+00 0.000000e+00 0.000000e+00
-1.627328e+05 3.483593e+04 0.000000e+00 3.483593e+04 -2.551499e+05 0.000000e+00 0.000000e+00 0.000000e+00 0.000000e+00
-1.718376e+05 2.567987e+04 0.000000e+00 2.567987e+04 -2.728988e+05 0.000000e+00 0.000000e+00 0.000000e+00 0.000000e+00
-1.950679e+05 7.914329e+03 0.000000e+00 7.914329e+03 -3.206098e+05 0.000000e+00 0.000000e+00 0.000000e+00 0.000000e+00
-1.069265e+05 2.952273e+04 0.000000e+00 2.952273e+04 -1.354242e+05 0.000000e+00 0.000000e+00 0.000000e+00 0.000000e+00
-9.795167e+04 2.722083e+04 0.000000e+00 2.722083e+04 -1.297628e+05 0.000000e+00 0.000000e+00 0.000000e+00 0.000000e+00
-9.877611e+04 2.768196e+04 0.000000e+00 2.768196e+04 -1.304813e+05 0.000000e+00 0.000000e+00 0.000000e+00 0.000000e+00
-1.052366e+05 2.947149e+04 0.000000e+00 2.947149e+04 -1.307006e+05 0.000000e+00 0.000000e+00 0.000000e+00 0.000000e+00
-1.110160e+05 3.122265e+04 0.000000e+00 3.122265e+04 -1.294645e+05 0.000000e+00 0.000000e+00 0.000000e+00 0.000000e+00
-1.156374e+05 3.263700e+04 0.000000e+00 3.263700e+04 -1.266993e+05 0.000000e+00 0.000000e+00 0.000000e+00 0.000000e+00
-1.183622e+05 3.281068e+04 0.000000e+00 3.281068e+04 -1.208828e+05 0.000000e+00 0.000000e+00 0.000000e+00 0.000000e+00
-1.182594e+05 2.974180e+04 0.000000e+00 2.974180e+04 -1.115954e+05 0.000000e+00 0.000000e+00 0.000000e+00 0.000000e+00
-1.101007e+05 2.395246e+04 0.000000e+00 2.395246e+04 -9.960402e+04 0.000000e+00 0.000000e+00 0.000000e+00 0.000000e+00
-8.799955e+04 1.545938e+04 0.000000e+00 1.545938e+04 -8.130634e+04 0.000000e+00 0.000000e+00 0.000000e+00 0.000000e+00
-6.069350e+04 8.896192e+03 0.000000e+00 8.896192e+03 -6.563185e+04 0.000000e+00 0.000000e+00 0.000000e+00 0.000000e+00
-1.025994e+05 2.884668e+04 0.000000e+00 2.884668e+04 -1.158636e+05 0.000000e+00 0.000000e+00 0.000000e+00 0.000000e+00
-9.799940e+04 2.743646e+04 0.000000e+00 2.743646e+04 -1.133803e+05 0.000000e+00 0.000000e+00 0.000000e+00 0.000000e+00
-1.025251e+05 2.799155e+04 0.000000e+00 2.799155e+04 -1.143548e+05 0.000000e+00 0.000000e+00 0.000000e+00 0.000000e+00
-1.102568e+05 2.908529e+04 0.000000e+00 2.908529e+04 -1.127725e+05 0.000000e+00 0.000000e+00 0.000000e+00 0.000000e+00
-1.172334e+05 2.947567e+04 0.000000e+00 2.947567e+04 -1.091228e+05 0.000000e+00 0.000000e+00 0.000000e+00 0.000000e+00
-1.225751e+05 2.864538e+04 0.000000e+00 2.864538e+04 -1.035089e+05 0.000000e+00 0.000000e+00 0.000000e+00 0.000000e+00
-1.261819e+05 2.627051e+04 0.000000e+00 2.627051e+04 -9.624689e+04 0.000000e+00 0.000000e+00 0.000000e+00 0.000000e+00
-1.265795e+05 2.165736e+04 0.000000e+00 2.165736e+04 -8.760645e+04 0.000000e+00 0.000000e+00 0.000000e+00 0.000000e+00
-1.201663e+05 1.424234e+04 0.000000e+00 1.424234e+04 -7.799999e+04 0.000000e+00 0.000000e+00 0.000000e+00 0.000000e+00
-9.736586e+04 4.938975e+03 0.000000e+00 4.938975e+03 -6.897611e+04 0.000000e+00 0.000000e+00 0.000000e+00 0.000000e+00
-6.035892e+04 2.236432e+02 0.000000e+00 2.236432e+02 -5.670957e+04 0.000000e+00 0.000000e+00 0.000000e+00 0.000000e+00
-9.660723e+04 2.719209e+04 0.000000e+00 2.719209e+04 -1.011837e+05 0.000000e+00 0.000000e+00 0.000000e+00 0.000000e+00
-9.646283e+04 2.675969e+04 0.000000e+00 2.675969e+04 -1.007427e+05 0.000000e+00 0.000000e+00 0.000000e+00 0.000000e+00
-1.031572e+05 2.641031e+04 0.000000e+00 2.641031e+04 -9.976924e+04 0.000000e+00 0.000000e+00 0.000000e+00 0.000000e+00
-1.106422e+05 2.568043e+04 0.000000e+00 2.568043e+04 -9.607245e+04 0.000000e+00 0.000000e+00 0.000000e+00 0.000000e+00
-1.165279e+05 2.430906e+04 0.000000e+00 2.430906e+04 -9.185962e+04 0.000000e+00 0.000000e+00 0.000000e+00 0.000000e+00
-1.204813e+05 2.191464e+04 0.000000e+00 2.191464e+04 -8.666049e+04 0.000000e+00 0.000000e+00 0.000000e+00 0.000000e+00
-1.223889e+05 1.803017e+04 0.000000e+00 1.803017e+04 -8.056081e+04 0.000000e+00 0.000000e+00 0.000000e+00 0.000000e+00
-1.200570e+05 1.225175e+04 0.000000e+00 1.225175e+04 -7.389591e+04 0.000000e+00 0.000000e+00 0.000000e+00 0.000000e+00
-1.110155e+05 4.807354e+03 0.000000e+00 4.807354e+03 -6.754139e+04 0.000000e+00 0.000000e+00 0.000000e+00 0.000000e+00
-8.877508e+04 -1.490691e+03 0.000000e+00 -1.490691e+03 -6.256232e+04 0.000000e+00 0.000000e+00 0.000000e+00 0.000000e+00
-5.994264e+04 -3.232871e+03 0.000000e+00 -3.232871e+03 -5.613411e+04 0.000000e+00 0.000000e+00 0.000000e+00 0.000000e+00
-8.884934e+04 2.491186e+04 0.000000e+00 2.491186e+04 -8.921338e+04 0.000000e+00 0.000000e+00 0.000000e+00 0.000000e+00
-9.466309e+04 2.494956e+04 0.000000e+00 2.494956e+04 -9.050835e+04 0.000000e+00 0.000000e+00 0.000000e+00 0.000000e+00
-1.025496e+05 2.335570e+04 0.000000e+00 2.335570e+04 -8.790267e+04 0.000000e+00 0.000000e+00 0.000000e+00 0.000000e+00
-1.092992e+05 2.173476e+04 0.000000e+00 2.173476e+04 -8.455220e+04 0.000000e+00 0.000000e+00 0.000000e+00 0.000000e+00
-1.141885e+05 1.938411e+04 0.000000e+00 1.938411e+04 -8.071171e+04 0.000000e+00 0.000000e+00 0.000000e+00 0.000000e+00
-1.168579e+05 1.599441e+04 0.000000e+00 1.599441e+04 -7.611201e+04 0.000000e+00 0.000000e+00 0.000000e+00 0.000000e+00
-1.169283e+05 1.139234e+04 0.000000e+00 1.139234e+04 -7.122110e+04 0.000000e+00 0.000000e+00 0.000000e+00 0.000000e+00
-1.128772e+05 5.612065e+03 0.000000e+00 5.612065e+03 -6.651998e+04 0.000000e+00 0.000000e+00 0.000000e+00 0.000000e+00
-1.035008e+05 -3.495435e+02 0.000000e+00 -3.495435e+02 -6.274307e+04 0.000000e+00 0.000000e+00 0.000000e+00 0.000000e+00
-8.592537e+04 -3.504650e+03 0.000000e+00 -3.504650e+03 -6.040531e+04 0.000000e+00 0.000000e+00 0.000000e+00 0.000000e+00
-6.661010e+04 -3.648157e+03 0.000000e+00 -3.648157e+03 -5.697896e+04 0.000000e+00 0.000000e+00 0.000000e+00 0.000000e+00
-8.251967e+04 2.285007e+04 0.000000e+00 2.285007e+04 -8.044355e+04 0.000000e+00 0.000000e+00 0.000000e+00 0.000000e+00
-9.243611e+04 2.273788e+04 0.000000e+00 2.273788e+04 -8.244267e+04 0.000000e+00 0.000000e+00 0.000000e+00 0.000000e+00
-1.009169e+05 2.036235e+04 0.000000e+00 2.036235e+04 -7.957873e+04 0.000000e+00 0.000000e+00 0.000000e+00 0.000000e+00
-1.068950e+05 1.802275e+04 0.000000e+00 1.802275e+04 -7.653786e+04 0.000000e+00 0.000000e+00 0.000000e+00 0.000000e+00
-1.107911e+05 1.492903e+04 0.000000e+00 1.492903e+04 -7.304851e+04 0.000000e+00 0.000000e+00 0.000000e+00 0.000000e+00
-1.123752e+05 1.111131e+04 0.000000e+00 1.111131e+04 -6.937797e+04 0.000000e+00 0.000000e+00 0.000000e+00 0.000000e+00
-1.112842e+05 6.500067e+03 0.000000e+00 6.500067e+03 -6.574453e+04 0.000000e+00 0.000000e+00 0.000000e+00 0.000000e+00
-1.068379e+05 1.501495e+03 0.000000e+00 1.501495e+03 -6.258470e+04 0.000000e+00 0.000000e+00 0.000000e+00 0.000000e+00
-9.861718e+04 -2.637805e+03 0.000000e+00 -2.637805e+03 -6.050624e+04 0.000000e+00 0.000000e+00 0.000000e+00 0.000000e+00
-8.598462e+04 -3.862810e+03 0.000000e+00 -3.862810e+03 -5.964793e+04 0.000000e+00 0.000000e+00 0.000000e+00 0.000000e+00
-7.377080e+04 -3.197469e+03 0.000000e+00 -3.197469e+03 -5.761412e+04 0.000000e+00 0.000000e+00 0.000000e+00 0.000000e+00
-7.800402e+04 2.077823e+04 0.000000e+00 2.077823e+04 -7.411573e+04 0.000000e+00 0.000000e+00 0.000000e+00 0.000000e+00
-8.961016e+04 2.042594e+04 0.000000e+00 2.042594e+04 -7.627798e+04 0.000000e+00 0.000000e+00 0.000000e+00 0.000000e+00
-9.834539e+04 1.754165e+04 0.000000e+00 1.754165e+04 -7.341793e+04 0.000000e+00 0.000000e+00 0.000000e+00 0.000000e+00
-1.037718e+05 1.458621e+04 0.000000e+00 1.458621e+04 -7.067751e+04 0.000000e+00 0.000000e+00 0.000000e+00 0.000000e+00
-1.068945e+05 1.125272e+04 0.000000e+00 1.125272e+04 -6.783695e+04 0.000000e+00 0.000000e+00 0.000000e+00 0.000000e+00
-1.077934e+05 7.383919e+03 0.000000e+00 7.383919e+03 -6.502495e+04 0.000000e+00 0.000000e+00 0.000000e+00 0.000000e+00
-1.062584e+05 3.147952e+03 0.000000e+00 3.147952e+03 -6.243871e+04 0.000000e+00 0.000000e+00 0.000000e+00 0.000000e+00
-1.022489e+05 -8.027949e+02 0.000000e+00 -8.027949e+02 -6.049461e+04 0.000000e+00 0.000000e+00 0.000000e+00 0.000000e+00
-9.582777e+04 -3.485362e+03 0.000000e+00 -3.485362e+03 -5.956148e+04 0.000000e+00 0.000000e+00 0.000000e+00 0.000000e+00
-8.741748e+04 -3.553835e+03 0.000000e+00 -3.553835e+03 -5.942355e+04 0.000000e+00 0.000000e+00 0.000000e+00 0.000000e+00
-8.007105e+04 -2.523275e+03 0.000000e+00 -2.523275e+03 -5.827830e+04 0.000000e+00 0.000000e+00 0.000000e+00 0.000000e+00
-7.461275e+04 1.878760e+04 0.000000e+00 1.878760e+04 -6.941080e+04 0.000000e+00 0.000000e+00 0.000000e+00 0.000000e+00
-8.646514e+04 1.816027e+04 0.000000e+00 1.816027e+04 -7.147593e+04 0.000000e+00 0.000000e+00 0.000000e+00 0.000000e+00
-9.516236e+04 1.490226e+04 0.000000e+00 1.490226e+04 -6.877352e+04 0.000000e+00 0.000000e+00 0.000000e+00 0.000000e+00
-1.002830e+05 1.174700e+04 0.000000e+00 1.174700e+04 -6.648489e+04 0.000000e+00 0.000000e+00 0.000000e+00 0.000000e+00
-1.029911e+05 8.358567e+03 0.000000e+00 8.358567e+03 -6.424916e+04 0.000000e+00 0.000000e+00 0.000000e+00 0.000000e+00
-1.035233e+05 4.696802e+03 0.000000e+00 4.696802e+03 -6.213656e+04 0.000000e+00 0.000000e+00 0.000000e+00 0.000000e+00
-1.020787e+05 1.076964e+03 0.000000e+00 1.076964e+03 -6.041871e+04 0.000000e+00 0.000000e+00 0.000000e+00 0.000000e+00
-9.892742e+04 -1.910552e+03 0.000000e+00 -1.910552e+03 -5.937659e+04 0.000000e+00 0.000000e+00 0.000000e+00 0.000000e+00
-9.442061e+04 -3.543274e+03 0.000000e+00 -3.543274e+03 -5.915239e+04 0.000000e+00 0.000000e+00 0.000000e+00 0.000000e+00
-8.932898e+04 -3.011969e+03 0.000000e+00 -3.011969e+03 -5.939381e+04 0.000000e+00 0.000000e+00 0.000000e+00 0.000000e+00
-8.524841e+04 -1.904851e+03 0.000000e+00 -1.904851e+03 -5.883941e+04 0.000000e+00 0.000000e+00 0.000000e+00 0.000000e+00
-7.161427e+04 1.660037e+04 0.000000e+00 1.660037e+04 -6.622916e+04 0.000000e+00 0.000000e+00 0.000000e+00 0.000000e+00
-8.301324e+04 1.589518e+04 0.000000e+00 1.589518e+04 -6.795555e+04 0.000000e+00 0.000000e+00 0.000000e+00 0.000000e+00
-9.180868e+04 1.259132e+04 0.000000e+00 1.259132e+04 -6.552575e+04 0.000000e+00 0.000000e+00 0.000000e+00 0.000000e+00
-9.674798e+04 9.450613e+03 0.000000e+00 9.450613e+03 -6.362301e+04 0.000000e+00 0.000000e+00 0.000000e+00 0.000000e+00
-9.922494e+04 6.176178e+03 0.000000e+00 6.176178e+03 -6.184250e+04 0.000000e+00 0.000000e+00 0.000000e+00 0.000000e+00
-9.972649e+04 2.881323e+03 0.000000e+00 2.881323e+03 -6.033336e+04 0.000000e+00 0.000000e+00 0.000000e+00 0.000000e+00
-9.871804e+04 -9.329866e+01 0.000000e+00 -9.329866e+01 -5.930711e+04 0.000000e+00 0.000000e+00 0.000000e+00 0.000000e+00
-9.662806e+04 -2.274213e+03 0.000000e+00 -2.274213e+03 -5.887932e+04 0.000000e+00 0.000000e+00 0.000000e+00 0.000000e+00
-9.394936e+04 -3.172162e+03 0.000000e+00 -3.172162e+03 -5.903519e+04 0.000000e+00 0.000000e+00 0.000000e+00 0.000000e+00
-9.128162e+04 -2.402392e+03 0.000000e+00 -2.402392e+03 -5.944895e+04 0.000000e+00 0.000000e+00 0.000000e+00 0.000000e+00
-8.931406e+04 -1.375142e+03 0.000000e+00 -1.375142e+03 -5.929781e+04 0.000000e+00 0.000000e+00 0.000000e+00 0.000000e+00
-6.901623e+04 1.441919e+04 0.000000e+00 1.441919e+04 -6.439966e+04 0.000000e+00 0.000000e+00 0.000000e+00 0.000000e+00
-7.969099e+04 1.364865e+04 0.000000e+00 1.364865e+04 -6.566648e+04 0.000000e+00 0.000000e+00 0.000000e+00 0.000000e+00
-8.849222e+04 1.055968e+04 0.000000e+00 1.055968e+04 -6.345402e+04 0.000000e+00 0.000000e+00 0.000000e+00 0.000000e+00
-9.332592e+04 7.570525e+03 0.000000e+00 7.570525e+03 -6.181311e+04 0.000000e+00 0.000000e+00 0.000000e+00 0.000000e+00
-9.574949e+04 4.561338e+03 0.000000e+00 4.561338e+03 -6.041577e+04 0.000000e+00 0.000000e+00 0.000000e+00 0.000000e+00
-9.646084e+04 1.713809e+03 0.000000e+00 1.713809e+03 -5.936932e+04 0.000000e+00 0.000000e+00 0.000000e+00 0.000000e+00
-9.609541e+04 -6.455840e+02 0.000000e+00 -6.455840e+02 -5.881168e+04 0.000000e+00 0.000000e+00 0.000000e+00 0.000000e+00
-9.514159e+04 -2.184297e+03 0.000000e+00 -2.184297e+03 -5.875543e+04 0.000000e+00 0.000000e+00 0.000000e+00 0.000000e+00
-9.397241e+04 -2.633929e+03 0.000000e+00 -2.633929e+03 -5.909230e+04 0.000000e+00 0.000000e+00 0.000000e+00 0.000000e+00
-9.301520e+04 -1.847715e+03 0.000000e+00 -1.847715e+03 -5.954443e+04 0.000000e+00 0.000000e+00 0.000000e+00 0.000000e+00
-9.244049e+04 -9.820279e+02 0.000000e+00 -9.820279e+02 -5.967803e+04 0.000000e+00 0.000000e+00 0.000000e+00 0.000000e+00
-6.735368e+04 1.209234e+04 0.000000e+00 1.209234e+04 -6.366937e+04 0.000000e+00 0.000000e+00 0.000000e+00 0.000000e+00
-7.683466e+04 1.131896e+04 0.000000e+00 1.131896e+04 -6.431436e+04 0.000000e+00 0.000000e+00 0.000000e+00 0.000000e+00
-8.539410e+04 8.696790e+03 0.000000e+00 8.696790e+03 -6.227789e+04 0.000000e+00 0.000000e+00 0.000000e+00 0.000000e+00
-9.017540e+04 6.000310e+03 0.000000e+00 6.000310e+03 -6.079381e+04 0.000000e+00 0.000000e+00 0.000000e+00 0.000000e+00
-9.268932e+04 3.353700e+03 0.000000e+00 3.353700e+03 -5.962311e+04 0.000000e+00 0.000000e+00 0.000000e+00 0.000000e+00
-9.380276e+04 1.002038e+03 0.000000e+00 1.002038e+03 -5.888761e+04 0.000000e+00 0.000000e+00 0.000000e+00 0.000000e+00
-9.415466e+04 -8.011680e+02 0.000000e+00 -8.011680e+02 -5.862433e+04 0.000000e+00 0.000000e+00 0.000000e+00 0.000000e+00
-9.420626e+04 -1.864095e+03 0.000000e+00 -1.864095e+03 -5.877006e+04 0.000000e+00 0.000000e+00 0.000000e+00 0.000000e+00
-9.421054e+04 -2.055518e+03 0.000000e+00 -2.055518e+03 -5.917728e+04 0.000000e+00 0.000000e+00 0.000000e+00 0.000000e+00
-9.443242e+04 -1.363295e+03 0.000000e+00 -1.363295e+03 -5.962139e+04 0.000000e+00 0.000000e+00 0.000000e+00 0.000000e+00
-9.480963e+04 -6.772517e+02 0.000000e+00 -6.772517e+02 -5.991605e+04 0.000000e+00 0.000000e+00 0.000000e+00 0.000000e+00
-6.641873e+04 9.596667e+03 0.000000e+00 9.596667e+03 -6.386264e+04 0.000000e+00 0.000000e+00 0.000000e+00 0.000000e+00
-7.459878e+04 8.887889e+03 0.000000e+00 8.887889e+03 -6.388391e+04 0.000000e+00 0.000000e+00 0.000000e+00 0.000000e+00
-8.269794e+04 6.791382e+03 0.000000e+00 6.791382e+03 -6.182734e+04 0.000000e+00 0.000000e+00 0.000000e+00 0.000000e+00
-8.743889e+04 4.523893e+03 0.000000e+00 4.523893e+03 -6.028959e+04 0.000000e+00 0.000000e+00 0.000000e+00 0.000000e+00
-9.013732e+04 2.380259e+03 0.000000e+00 2.380259e+03 -5.922978e+04 0.000000e+00 0.000000e+00 0.000000e+00 0.000000e+00
-9.172858e+04 5.700924e+02 0.000000e+00 5.700924e+02 -5.867248e+04 0.000000e+00 0.000000e+00 0.000000e+00 0.000000e+00
-9.276547e+04 -7.331633e+02 0.000000e+00 -7.331633e+02 -5.858429e+04 0.000000e+00 0.000000e+00 0.000000e+00 0.000000e+00
-9.362180e+04 -1.434097e+03 0.000000e+00 -1.434097e+03 -5.884114e+04 0.000000e+00 0.000000e+00 0.000000e+00 0.000000e+00
-9.449353e+04 -1.492334e+03 0.000000e+00 -1.492334e+03 -5.927077e+04 0.000000e+00 0.000000e+00 0.000000e+00 0.000000e+00
-9.552105e+04 -9.409224e+02 0.000000e+00 -9.409224e+02 -5.968509e+04 0.000000e+00 0.000000e+00 0.000000e+00 0.000000e+00
-9.650903e+04 -4.288325e+02 0.000000e+00 -4.288325e+02 -6.008728e+04 0.000000e+00 0.000000e+00 0.000000e+00 0.000000e+00
-6.577784e+04 6.665929e+03 0.000000e+00 6.665929e+03 -6.448291e+04 0.000000e+00 0.000000e+00 0.000000e+00 0.000000e+00
-7.290843e+04 6.143562e+03 0.000000e+00 6.143562e+03 -6.403379e+04 0.000000e+00 0.000000e+00 0.000000e+00 0.000000e+00
-8.051946e+04 4.671396e+03 0.000000e+00 4.671396e+03 -6.177633e+04 0.000000e+00 0.000000e+00 0.000000e+00 0.000000e+00
-8.529572e+04 3.029924e+03 0.000000e+00 3.029924e+03 -6.009857e+04 0.000000e+00 0.000000e+00 0.000000e+00 0.000000e+00
-8.825990e+04 1.529061e+03 0.000000e+00 1.529061e+03 -5.907612e+04 0.000000e+00 0.000000e+00 0.000000e+00 0.000000e+00
-9.023915e+04 3.154966e+02 0.000000e+00 3.154966e+02 -5.862450e+04 0.000000e+00 0.000000e+00 0.000000e+00 0.000000e+00
-9.183092e+04 -5.346256e+02 0.000000e+00 -5.346256e+02 -5.862725e+04 0.000000e+00 0.000000e+00 0.000000e+00 0.000000e+00
-9.328662e+04 -9.626106e+02 0.000000e+00 -9.626106e+02 -5.893919e+04 0.000000e+00 0.000000e+00 0.000000e+00 0.000000e+00
-9.475391e+04 -9.561917e+02 0.000000e+00 -9.561917e+02 -5.937041e+04 0.000000e+00 0.000000e+00 0.000000e+00 0.000000e+00
-9.628545e+04 -5.747068e+02 0.000000e+00 -5.747068e+02 -5.974511e+04 0.000000e+00 0.000000e+00 0.000000e+00 0.000000e+00
-9.762648e+04 -2.427144e+02 0.000000e+00 -2.427144e+02 -6.020638e+04 0.000000e+00 0.000000e+00 0.000000e+00 0.000000e+00
-6.541469e+04 3.362681e+03 0.000000e+00 3.362681e+03 -6.487512e+04 0.000000e+00 0.000000e+00 0.000000e+00 0.000000e+00
-7.191695e+04 3.096843e+03 0.000000e+00 3.096843e+03 -6.418815e+04 0.000000e+00 0.000000e+00 0.000000e+00 0.000000e+00
-7.912688e+04 2.350728e+03 0.000000e+00 2.350728e+03 -6.175738e+04 0.000000e+00 0.000000e+00 0.000000e+00 0.000000e+00
-8.391346e+04 1.499918e+03 0.000000e+00 1.499918e+03 -6.007198e+04 0.000000e+00 0.000000e+00 0.000000e+00 0.000000e+00
-8.711798e+04 7.478583e+02 0.000000e+00 7.478583e+02 -5.906614e+04 0.000000e+00 0.000000e+00 0.000000e+00 0.000000e+00
-8.936701e+04 1.427674e+02 0.000000e+00 1.427674e+02 -5.866792e+04 0.000000e+00 0.000000e+00 0.000000e+00 0.000000e+00
-9.129628e+04 -2.787409e+02 0.000000e+00 -2.787409e+02 -5.870441e+04 0.000000e+00 0.000000e+00 0.000000e+00 0.000000e+00
-9.312336e+04 -4.818253e+02 0.000000e+00 -4.818253e+02 -5.903448e+04 0.000000e+00 0.000000e+00 0.000000e+00 0.000000e+00
-9.493977e+04 -4.625462e+02 0.000000e+00 -4.625462e+02 -5.945596e+04 0.000000e+00 0.000000e+00 0.000000e+00 0.000000e+00
-9.672299e+04 -2.640367e+02 0.000000e+00 -2.640367e+02 -5.979658e+04 0.000000e+00 0.000000e+00 0.000000e+00 0.000000e+00
-9.823018e+04 -1.025034e+02 0.000000e+00 -1.025034e+02 -6.027200e+04 0.000000e+00 0.000000e+00 0.000000e+00 0.000000e+00
-6.519015e+04 9.072131e+02 0.000000e+00 9.072131e+02 -6.474485e+04 0.000000e+00 0.000000e+00 0.000000e+00 0.000000e+00
-7.152946e+04 8.880943e+02 0.000000e+00 8.880943e+02 -6.409494e+04 0.000000e+00 0.000000e+00 0.000000e+00 0.000000e+00
-7.864799e+04 6.658654e+02 0.000000e+00 6.658654e+02 -6.174479e+04 0.000000e+00 0.000000e+00 0.000000e+00 0.000000e+00
-8.346405e+04 3.522855e+02 0.000000e+00 3.522855e+02 -6.009753e+04 0.000000e+00 0.000000e+00 0.000000e+00 0.000000e+00
-8.675483e+04 7.505231e+01 0.000000e+00 7.505231e+01 -5.910579e+04 0.000000e+00 0.000000e+00 0.000000e+00 0.000000e+00
-8.909927e+04 -1.590855e+02 0.000000e+00 -1.590855e+02 -5.872108e+04 0.000000e+00 0.000000e+00 0.000000e+00 0.000000e+00
-9.114430e+04 -3.165295e+02 0.000000e+00 -3.165295e+02 -5.877575e+04 0.000000e+00 0.000000e+00 0.000000e+00 0.000000e+00
-9.309040e+04 -3.945647e+02 0.000000e+00 -3.945647e+02 -5.910989e+04 0.000000e+00 0.000000e+00 0.000000e+00 0.000000e+00
-9.503219e+04 -3.807149e+02 0.000000e+00 -3.807149e+02 -5.951976e+04 0.000000e+00 0.000000e+00 0.000000e+00 0.000000e+00
-9.689084e+04 -2.849423e+02 0.000000e+00 -2.849423e+02 -5.983579e+04 0.000000e+00 0.000000e+00 0.000000e+00 0.000000e+00
-9.843774e+04 -2.124248e+02 0.000000e+00 -2.124248e+02 -6.030600e+04 0.000000e+00 0.000000e+00 0.000000e+00 0.000000e+00
</DataArray>
<DataArray Name="vol_eps" type="Float64" NumberOfComponents="1" format="ascii">
-1.257055e-02
-1.080397e-02
-9.085726e-03
-7.798491e-03
-7.511882e-03
-8.046620e-03
-9.412421e-03
-1.187213e-02
-1.500517e-02
-1.844267e-02
-1.884705e-02
-1.213487e-02
-1.014365e-02
-8.807618e-03
-8.347083e-03
-8.362193e-03
-8.544312e-03
-9.081931e-03
-1.061205e-02
-1.277878e-02
-1.535945e-02
-2.055497e-02
-1.024343e-02
-8.137281e-03
-7.365169e-03
-7.556234e-03
-7.739739e-03
-7.989586e-03
-8.579010e-03
-9.674214e-03
-1.004875e-02
-1.091092e-02
-1.534515e-02
-6.916412e-03
-5.548086e-03
-5.358804e-03
-5.615138e-03
-5.526396e-03
-4.879571e-03
-3.612529e-03
-1.774359e-03
1.141735e-03
5.494772e-03
1.009868e-02
-5.141893e-03
-4.793525e-03
-5.523556e-03
-6.074647e-03
-6.297940e-03
-6.287303e-03
-6.053893e-03
-5.582161e-03
-4.741037e-03
-2.889254e-03
3.515734e-04
-3.603190e-03
-3.912348e-03
-4.813767e-03
-5.205480e-03
-5.352857e-03
-5.281501e-03
-4.995448e-03
-4.467366e-03
-3.641366e-03
-1.985297e-03
3.453629e-04
-2.340888e-03
-3.281336e-03
-4.176747e-03
-4.507275e-03
-4.578692e-03
-4.418529e-03
-4.085362e-03
-3.604499e-03
-2.900275e-03
-1.677429e-03
-1.922960e-04
-1.469959e-03
-2.779934e-03
-3.637537e-03
-3.880544e-03
-3.881487e-03
-3.709669e-03
-3.425732e-03
-3.030982e-03
-2.473126e-03
-1.637810e-03
-7.008617e-04
-1.005042e-03
-2.372220e-03
-3.127775e-03
-3.315150e-03
-3.310348e-03
-3.185152e-03
-2.962637e-03
-2.648526e-03
-2.250171e-03
-1.722661e-03
-1.156685e-03
-7.704014e-04
-2.028121e-03
-2.660235e-03
-2.843922e-03
-2.870860e-03
-2.792022e-03
-2.619146e-03
-2.395614e-03
-2.147042e-03
-1.851458e-03
-1.542501e-03
-6.485653e-04
-1.732782e-03
-2.277053e-03
-2.477037e-03
-2.534727e-03
-2.487522e-03
-2.369937e-03
-2.240811e-03
-2.114563e-03
-1.983254e-03
-1.844787e-03
-5.963979e-04
-1.497845e-03
-1.986948e-03
-2.193322e-03
-2.264264e-03
-2.245983e-03
-2.193315e-03
-2.150921e-03
-2.119147e-03
-2.094272e-03
-2.064558e-03
-5.779150e-04
-1.302858e-03
-1.754694e-03
-1.963014e-03
-2.041050e-03
-2.062255e-03
-2.072593e-03
-2.097507e-03
-2.135514e-03
-2.179824e-03
-2.220795e-03
-5.923588e-04
-1.156199e-03
-1.563183e-03
-1.769882e-03
-1.867638e-03
-1.928224e-03
-1.990991e-03
-2.067592e-03
-2.154761e-03
-2.244378e-03
-2.331683e-03
-6.312893e-04
-1.071628e-03
-1.419029e-03
-1.622214e-03
-1.746201e-03
-1.839562e-03
-1.938894e-03
-2.052956e-03
-2.174094e-03
-2.290034e-03
-2.403832e-03
-6.561779e-04
-1.026587e-03
-1.327941e-03
-1.531540e-03
-1.675328e-03
-1.792334e-03
-1.913227e-03
-2.048376e-03
-2.188792e-03
-2.317245e-03
-2.441653e-03
-6.396186e-04
-9.989550e-04
-1.295394e-03
-1.503375e-03
-1.657259e-03
-1.782211e-03
-1.910620e-03
-2.052335e-03
-2.199125e-03
-2.330541e-03
-2.456484e-03
</DataArray>
</PointData>
</Piece>
</UnstructuredGrid>
</VTKFile>
