<?xml version="1.0"?>
<VTKFile type="UnstructuredGrid" version="0.1">
<UnstructuredGrid>
<FieldData>
<DataArray Name="TIME" type="Float64" format="ascii" NumberOfTuples="1">
0.000000e+00
</DataArray>
</FieldData>
<FieldData>
<DataArray Name="CYCLE" type="Int32" format="ascii" NumberOfTuples="1">
0
</DataArray>
</FieldData>
<Piece NumberOfPoints="187" NumberOfCells="160">
<Points>
<DataArray NumberOfComponents="3" type="Float64" format="ascii">
0.000000e+00 0.000000e+00 0.000000e+00
0.000000e+00 1.974240e-01 0.000000e+00
0.000000e+00 3.939710e-01 0.000000e+00
0.000000e+00 5.896624e-01 0.000000e+00
0.000000e+00 7.843571e-01 0.000000e+00
0.000000e+00 9.777937e-01 0.000000e+00
0.000000e+00 1.170894e+00 0.000000e+00
0.000000e+00 1.364571e+00 0.000000e+00
0.000000e+00 1.559717e+00 0.000000e+00
0.000000e+00 1.756122e+00 0.000000e+00
0.000000e+00 1.952750e+00 0.000000e+00
2.250000e-01 0.000000e+00 0.000000e+00
2.262180e-01 1.975597e-01 0.000000e+00
2.274143e-01 3.942595e-01 0.000000e+00
2.286378e-01 5.901818e-01 0.000000e+00
2.299843e-01 7.853366e-01 0.000000e+00
2.308069e-01 9.797357e-01 0.000000e+00
2.306183e-01 1.173570e+00 0.000000e+00
2.292274e-01 1.367350e+00 0.000000e+00
2.272286e-01 1.561541e+00 0.000000e+00
2.254588e-01 1.756346e+00 0.000000e+00
2.250000e-01 1.952750e+00 0.000000e+00
4.500000e-01 0.000000e+00 0.000000e+00
4.523892e-01 1.980199e-01 0.000000e+00
4.545590e-01 3.953866e-01 0.000000e+00
4.565582e-01 5.922061e-01 0.000000e+00
4.582831e-01 7.886235e-01 0.000000e+00
4.595096e-01 9.847018e-01 0.000000e+00
4.596926e-01 1.180303e+00 0.000000e+00
4.589631e-01 1.374998e+00 0.000000e+00
4.573905e-01 1.568409e+00 0.000000e+00
4.548999e-01 1.760644e+00 0.000000e+00
4.500000e-01 1.952750e+00 0.000000e+00
6.750000e-01 0.000000e+00 0.000000e+00
6.781333e-01 1.987615e-01 0.000000e+00
6.807795e-01 3.973698e-01 0.000000e+00
6.830286e-01 5.960038e-01 0.000000e+00
6.848834e-01 7.947779e-01 0.000000e+00
6.862256e-01 9.937301e-01 0.000000e+00
6.868171e-01 1.192870e+00 0.000000e+00
6.868259e-01 1.392292e+00 0.000000e+00
6.862096e-01 1.592064e+00 0.000000e+00
6.842871e-01 1.792275e+00 0.000000e+00
6.796804e-01 1.992788e+00 0.000000e+00
9.000000e-01 0.000000e+00 0.000000e+00
9.033545e-01 1.990466e-01 0.000000e+00
9.058750e-01 3.981528e-01 0.000000e+00
9.078780e-01 5.974143e-01 0.000000e+00
9.094414e-01 7.968540e-01 0.000000e+00
9.105057e-01 9.964948e-01 0.000000e+00
9.109297e-01 1.196333e+00 0.000000e+00
9.107623e-01 1.396372e+00 0.000000e+00
9.099013e-01 1.596672e+00 0.000000e+00
9.079052e-01 1.797112e+00 0.000000e+00
9.048994e-01 1.997127e+00 0.000000e+00
1.125000e+00 0.000000e+00 0.000000e+00
1.128328e+00 1.993878e-01 0.000000e+00
1.130586e+00 3.988804e-01 0.000000e+00
1.132315e+00 5.985294e-01 0.000000e+00
1.133622e+00 7.983452e-01 0.000000e+00
1.134461e+00 9.983389e-01 0.000000e+00
1.134758e+00 1.198499e+00 0.000000e+00
1.134496e+00 1.398820e+00 0.000000e+00
1.133598e+00 1.599259e+00 0.000000e+00
1.132059e+00 1.799621e+00 0.000000e+00
1.130234e+00 1.999712e+00 0.000000e+00
1.350000e+00 0.000000e+00 0.000000e+00
1.353078e+00 1.996285e-01 0.000000e+00
1.355065e+00 3.993825e-01 0.000000e+00
1.356550e+00 5.992795e-01 0.000000e+00
1.357644e+00 7.993374e-01 0.000000e+00
1.358325e+00 9.995418e-01 0.000000e+00
1.358534e+00 1.199878e+00 0.000000e+00
1.358250e+00 1.400309e+00 0.000000e+00
1.357510e+00 1.600753e+00 0.000000e+00
1.356444e+00 1.801072e+00 0.000000e+00
1.355343e+00 2.001168e+00 0.000000e+00
1.575000e+00 0.000000e+00 0.000000e+00
1.577706e+00 1.997848e-01 0.000000e+00
1.579421e+00 3.997115e-01 0.000000e+00
1.580700e+00 5.997844e-01 0.000000e+00
1.581630e+00 7.999776e-01 0.000000e+00
1.582184e+00 1.000291e+00 0.000000e+00
1.582337e+00 1.200706e+00 0.000000e+00
1.582113e+00 1.401164e+00 0.000000e+00
1.581590e+00 1.601584e+00 0.000000e+00
1.580907e+00 1.801876e+00 0.000000e+00
1.580274e+00 2.001999e+00 0.000000e+00
1.800000e+00 0.000000e+00 0.000000e+00
1.802275e+00 1.998868e-01 0.000000e+00
1.803738e+00 3.999252e-01 0.000000e+00
1.804840e+00 6.000828e-01 0.000000e+00
1.805630e+00 8.003482e-01 0.000000e+00
1.806086e+00 1.000714e+00 0.000000e+00
1.806224e+00 1.201148e+00 0.000000e+00
1.806093e+00 1.401594e+00 0.000000e+00
1.805770e+00 1.601985e+00 0.000000e+00
1.805376e+00 1.802266e+00 0.000000e+00
1.805056e+00 2.002421e+00 0.000000e+00
2.025000e+00 0.000000e+00 0.000000e+00
2.026831e+00 1.999390e-01 0.000000e+00
2.028068e+00 4.000340e-01 0.000000e+00
2.029009e+00 6.002325e-01 0.000000e+00
2.029676e+00 8.005288e-01 0.000000e+00
2.030064e+00 1.000905e+00 0.000000e+00
2.030212e+00 1.201325e+00 0.000000e+00
2.030170e+00 1.401743e+00 0.000000e+00
2.030009e+00 1.602106e+00 0.000000e+00
2.029818e+00 1.802387e+00 0.000000e+00
2.029706e+00 2.002578e+00 0.000000e+00
2.250000e+00 0.000000e+00 0.000000e+00
2.251418e+00 1.999640e-01 0.000000e+00
2.252444e+00 4.000730e-01 0.000000e+00
2.253234e+00 6.002812e-01 0.000000e+00
2.253792e+00 8.005770e-01 0.000000e+00
2.254134e+00 1.000938e+00 0.000000e+00
2.254296e+00 1.201331e+00 0.000000e+00
2.254325e+00 1.401714e+00 0.000000e+00
2.254278e+00 1.602058e+00 0.000000e+00
2.254223e+00 1.802344e+00 0.000000e+00
2.254240e+00 2.002570e+00 0.000000e+00
2.475000e+00 0.000000e+00 0.000000e+00
2.476062e+00 1.999718e-01 0.000000e+00
2.476888e+00 4.000700e-01 0.000000e+00
2.477533e+00 6.002666e-01 0.000000e+00
2.477996e+00 8.005441e-01 0.000000e+00
2.478295e+00 1.000877e+00 0.000000e+00
2.478463e+00 1.201235e+00 0.000000e+00
2.478537e+00 1.401590e+00 0.000000e+00
2.478561e+00 1.601920e+00 0.000000e+00
2.478588e+00 1.802212e+00 0.000000e+00
2.478674e+00 2.002470e+00 0.000000e+00
2.700000e+00 0.000000e+00 0.000000e+00
2.700771e+00 1.999656e-01 0.000000e+00
2.701405e+00 4.000441e-01 0.000000e+00
2.701910e+00 6.002188e-01 0.000000e+00
2.702284e+00 8.004697e-01 0.000000e+00
2.702539e+00 1.000771e+00 0.000000e+00
2.702697e+00 1.201099e+00 0.000000e+00
2.702789e+00 1.401430e+00 0.000000e+00
2.702849e+00 1.601749e+00 0.000000e+00
2.702916e+00 1.802048e+00 0.000000e+00
2.703028e+00 2.002331e+00 0.000000e+00
2.925000e+00 0.000000e+00 0.000000e+00
2.925535e+00 1.999561e-01 0.000000e+00
2.925990e+00 4.000125e-01 0.000000e+00
2.926361e+00 6.001610e-01 0.000000e+00
2.926646e+00 8.003847e-01 0.000000e+00
2.926848e+00 1.000659e+00 0.000000e+00
2.926982e+00 1.200962e+00 0.000000e+00
2.927070e+00 1.401276e+00 0.000000e+00
2.927139e+00 1.601587e+00 0.000000e+00
2.927214e+00 1.801891e+00 0.000000e+00
2.927321e+00 2.002195e+00 0.000000e+00
3.150000e+00 0.000000e+00 0.000000e+00
3.150337e+00 1.999468e-01 0.000000e+00
3.150630e+00 3.999875e-01 0.000000e+00
3.150872e+00 6.001147e-01 0.000000e+00
3.151064e+00 8.003153e-01 0.000000e+00
3.151205e+00 1.000569e+00 0.000000e+00
3.151302e+00 1.200853e+00 0.000000e+00
3.151370e+00 1.401154e+00 0.000000e+00
3.151427e+00 1.601460e+00 0.000000e+00
3.151489e+00 1.801769e+00 0.000000e+00
3.151571e+00 2.002087e+00 0.000000e+00
3.375000e+00 0.000000e+00 0.000000e+00
3.375164e+00 1.999425e-01 0.000000e+00
3.375307e+00 3.999760e-01 0.000000e+00
3.375426e+00 6.000910e-01 0.000000e+00
3.375522e+00 8.002768e-01 0.000000e+00
3.375594e+00 1.000517e+00 0.000000e+00
3.375645e+00 1.200791e+00 0.000000e+00
3.375682e+00 1.401083e+00 0.000000e+00
3.375714e+00 1.601386e+00 0.000000e+00
3.375748e+00 1.801697e+00 0.000000e+00
3.375792e+00 2.002024e+00 0.000000e+00
3.600000e+00 0.000000e+00 0.000000e+00
3.600000e+00 1.999539e-01 0.000000e+00
3.600000e+00 3.999874e-01 0.000000e+00
3.600000e+00 6.000983e-01 0.000000e+00
3.600000e+00 8.002791e-01 0.000000e+00
3.600000e+00 1.000514e+00 0.000000e+00
3.600000e+00 1.200784e+00 0.000000e+00
3.600000e+00 1.401073e+00 0.000000e+00
3.600000e+00 1.601374e+00 0.000000e+00
3.600000e+00 1.801686e+00 0.000000e+00
3.600000e+00 2.002016e+00 0.000000e+00
</DataArray>
</Points>
<Cells>
<DataArray Name="connectivity" type="Int32" format="ascii">
0 11 12 1
1 12 13 2
2 13 14 3
3 14 15 4
4 15 16 5
5 16 17 6
6 17 18 7
7 18 19 8
8 19 20 9
9 20 21 10
11 22 23 12
12 23 24 13
13 24 25 14
14 25 26 15
15 26 27 16
16 27 28 17
17 28 29 18
18 29 30 19
19 30 31 20
20 31 32 21
22 33 34 23
23 34 35 24
24 35 36 25
25 36 37 26
26 37 38 27
27 38 39 28
28 39 40 29
29 40 41 30
30 41 42 31
31 42 43 32
33 44 45 34
34 45 46 35
35 46 47 36
36 47 48 37
37 48 49 38
38 49 50 39
39 50 51 40
40 51 52 41
41 52 53 42
42 53 54 43
44 55 56 45
45 56 57 46
46 57 58 47
47 58 59 48
48 59 60 49
49 60 61 50
50 61 62 51
51 62 63 52
52 63 64 53
53 64 65 54
55 66 67 56
56 67 68 57
57 68 69 58
58 69 70 59
59 70 71 60
60 71 72 61
61 72 73 62
62 73 74 63
63 74 75 64
64 75 76 65
66 77 78 67
67 78 79 68
68 79 80 69
69 80 81 70
70 81 82 71
71 82 83 72
72 83 84 73
73 84 85 74
74 85 86 75
75 86 87 76
77 88 89 78
78 89 90 79
79 90 91 80
80 91 92 81
81 92 93 82
82 93 94 83
83 94 95 84
84 95 96 85
85 96 97 86
86 97 98 87
88 99 100 89
89 100 101 90
90 101 102 91
91 102 103 92
92 103 104 93
93 104 105 94
94 105 106 95
95 106 107 96
96 107 108 97
97 108 109 98
99 110 111 100
100 111 112 101
101 112 113 102
102 113 114 103
103 114 115 104
104 115 116 105
105 116 117 106
106 117 118 107
107 118 119 108
108 119 120 109
110 121 122 111
111 122 123 112
112 123 124 113
113 124 125 114
114 125 126 115
115 126 127 116
116 127 128 117
117 128 129 118
118 129 130 119
119 130 131 120
121 132 133 122
122 133 134 123
123 134 135 124
124 135 136 125
125 136 137 126
126 137 138 127
127 138 139 128
128 139 140 129
129 140 141 130
130 141 142 131
132 143 144 133
133 144 145 134
134 145 146 135
135 146 147 136
136 147 148 137
137 148 149 138
138 149 150 139
139 150 151 140
140 151 152 141
141 152 153 142
143 154 155 144
144 155 156 145
145 156 157 146
146 157 158 147
147 158 159 148
148 159 160 149
149 160 161 150
150 161 162 151
151 162 163 152
152 163 164 153
154 165 166 155
155 166 167 156
156 167 168 157
157 168 169 158
158 169 170 159
159 170 171 160
160 171 172 161
161 172 173 162
162 173 174 163
163 174 175 164
165 176 177 166
166 177 178 167
167 178 179 168
168 179 180 169
169 180 181 170
170 181 182 171
171 182 183 172
172 183 184 173
173 184 185 174
174 185 186 175
</DataArray>
<DataArray Name="offsets" type="Int32" format="ascii">
4
8
12
16
20
24
28
32
36
40
44
48
52
56
60
64
68
72
76
80
84
88
92
96
100
104
108
112
116
120
124
128
132
136
140
144
148
152
156
160
164
168
172
176
180
184
188
192
196
200
204
208
212
216
220
224
228
232
236
240
244
248
252
256
260
264
268
272
276
280
284
288
292
296
300
304
308
312
316
320
324
328
332
336
340
344
348
352
356
360
364
368
372
376
380
384
388
392
396
400
404
408
412
416
420
424
428
432
436
440
444
448
452
456
460
464
468
472
476
480
484
488
492
496
500
504
508
512
516
520
524
528
532
536
540
544
548
552
556
560
564
568
572
576
580
584
588
592
596
600
604
608
612
616
620
624
628
632
636
640
</DataArray>
<DataArray Name="types" type="UInt8" format="ascii">
9
9
9
9
9
9
9
9
9
9
9
9
9
9
9
9
9
9
9
9
9
9
9
9
9
9
9
9
9
9
9
9
9
9
9
9
9
9
9
9
9
9
9
9
9
9
9
9
9
9
9
9
9
9
9
9
9
9
9
9
9
9
9
9
9
9
9
9
9
9
9
9
9
9
9
9
9
9
9
9
9
9
9
9
9
9
9
9
9
9
9
9
9
9
9
9
9
9
9
9
9
9
9
9
9
9
9
9
9
9
9
9
9
9
9
9
9
9
9
9
9
9
9
9
9
9
9
9
9
9
9
9
9
9
9
9
9
9
9
9
9
9
9
9
9
9
9
9
9
9
9
9
9
9
9
9
9
9
9
9
</DataArray>
</Cells>
<PointData>
<DataArray Name="disp" type="Float64" NumberOfComponents="3" format="ascii">
0.000000e+00 0.000000e+00 0.000000e+00
0.000000e+00 -2.575985e-03 0.000000e+00
0.000000e+00 -6.029041e-03 0.000000e+00
0.000000e+00 -1.033765e-02 0.000000e+00
0.000000e+00 -1.564291e-02 0.000000e+00
0.000000e+00 -2.220633e-02 0.000000e+00
0.000000e+00 -2.910579e-02 0.000000e+00
0.000000e+00 -3.542932e-02 0.000000e+00
0.000000e+00 -4.028293e-02 0.000000e+00
0.000000e+00 -4.387762e-02 0.000000e+00
0.000000e+00 -4.725000e-02 0.000000e+00
0.000000e+00 0.000000e+00 0.000000e+00
1.218001e-03 -2.440332e-03 0.000000e+00
2.414283e-03 -5.740521e-03 0.000000e+00
3.637759e-03 -9.818161e-03 0.000000e+00
4.984274e-03 -1.466341e-02 0.000000e+00
5.806876e-03 -2.026426e-02 0.000000e+00
5.618322e-03 -2.642955e-02 0.000000e+00
4.227435e-03 -3.264960e-02 0.000000e+00
2.228634e-03 -3.845855e-02 0.000000e+00
4.587561e-04 -4.365373e-02 0.000000e+00
0.000000e+00 -4.725000e-02 0.000000e+00
0.000000e+00 0.000000e+00 0.000000e+00
2.389218e-03 -1.980057e-03 0.000000e+00
4.558974e-03 -4.613382e-03 0.000000e+00
6.558181e-03 -7.793868e-03 0.000000e+00
8.283131e-03 -1.137652e-02 0.000000e+00
9.509588e-03 -1.529818e-02 0.000000e+00
9.692620e-03 -1.969710e-02 0.000000e+00
8.963118e-03 -2.500171e-02 0.000000e+00
7.390465e-03 -3.159135e-02 0.000000e+00
4.899947e-03 -3.935598e-02 0.000000e+00
0.000000e+00 -4.725000e-02 0.000000e+00
0.000000e+00 0.000000e+00 0.000000e+00
3.133334e-03 -1.238491e-03 0.000000e+00
5.779464e-03 -2.630205e-03 0.000000e+00
8.028615e-03 -3.996211e-03 0.000000e+00
9.883427e-03 -5.222078e-03 0.000000e+00
1.122561e-02 -6.269924e-03 0.000000e+00
1.181713e-02 -7.129624e-03 0.000000e+00
1.182595e-02 -7.708248e-03 0.000000e+00
1.120958e-02 -7.935517e-03 0.000000e+00
9.287119e-03 -7.724877e-03 0.000000e+00
4.680435e-03 -7.211520e-03 0.000000e+00
0.000000e+00 0.000000e+00 0.000000e+00
3.354542e-03 -9.534415e-04 0.000000e+00
5.875054e-03 -1.847163e-03 0.000000e+00
7.878005e-03 -2.585699e-03 0.000000e+00
9.441400e-03 -3.146054e-03 0.000000e+00
1.050572e-02 -3.505260e-03 0.000000e+00
1.092976e-02 -3.667122e-03 0.000000e+00
1.076228e-02 -3.628107e-03 0.000000e+00
9.901267e-03 -3.327733e-03 0.000000e+00
7.905163e-03 -2.887717e-03 0.000000e+00
4.899364e-03 -2.872710e-03 0.000000e+00
0.000000e+00 0.000000e+00 0.000000e+00
3.328242e-03 -6.122410e-04 0.000000e+00
5.585777e-03 -1.119591e-03 0.000000e+00
7.315282e-03 -1.470609e-03 0.000000e+00
8.622373e-03 -1.654802e-03 0.000000e+00
9.460633e-03 -1.661083e-03 0.000000e+00
9.758310e-03 -1.501156e-03 0.000000e+00
9.496240e-03 -1.179708e-03 0.000000e+00
8.597834e-03 -7.412097e-04 0.000000e+00
7.058993e-03 -3.789950e-04 0.000000e+00
5.233884e-03 -2.875057e-04 0.000000e+00
0.000000e+00 0.000000e+00 0.000000e+00
3.078512e-03 -3.714800e-04 0.000000e+00
5.064714e-03 -6.174722e-04 0.000000e+00
6.550451e-03 -7.205358e-04 0.000000e+00
7.644050e-03 -6.626120e-04 0.000000e+00
8.325116e-03 -4.581907e-04 0.000000e+00
8.534135e-03 -1.222903e-04 0.000000e+00
8.249923e-03 3.089154e-04 0.000000e+00
7.510304e-03 7.527649e-04 0.000000e+00
6.443918e-03 1.072301e-03 0.000000e+00
5.343399e-03 1.168121e-03 0.000000e+00
0.000000e+00 0.000000e+00 0.000000e+00
2.706230e-03 -2.152076e-04 0.000000e+00
4.421439e-03 -2.885075e-04 0.000000e+00
5.700445e-03 -2.156033e-04 0.000000e+00
6.629492e-03 -2.241188e-05 0.000000e+00
7.184439e-03 2.909057e-04 0.000000e+00
7.337265e-03 7.059203e-04 0.000000e+00
7.112969e-03 1.164356e-03 0.000000e+00
6.589909e-03 1.584415e-03 0.000000e+00
5.906641e-03 1.875550e-03 0.000000e+00
5.273866e-03 1.998915e-03 0.000000e+00
0.000000e+00 0.000000e+00 0.000000e+00
2.275168e-03 -1.131769e-04 0.000000e+00
3.737633e-03 -7.477147e-05 0.000000e+00
4.839719e-03 8.279331e-05 0.000000e+00
5.630173e-03 3.481925e-04 0.000000e+00
6.086267e-03 7.142675e-04 0.000000e+00
6.224391e-03 1.148110e-03 0.000000e+00
6.092500e-03 1.594062e-03 0.000000e+00
5.770353e-03 1.984758e-03 0.000000e+00
5.375620e-03 2.265953e-03 0.000000e+00
5.055656e-03 2.421476e-03 0.000000e+00
0.000000e+00 0.000000e+00 0.000000e+00
1.830597e-03 -6.098350e-05 0.000000e+00
3.067965e-03 3.394646e-05 0.000000e+00
4.008864e-03 2.324931e-04 0.000000e+00
4.676280e-03 5.288384e-04 0.000000e+00
5.064345e-03 9.047425e-04 0.000000e+00
5.212448e-03 1.325434e-03 0.000000e+00
5.170020e-03 1.742757e-03 0.000000e+00
5.008907e-03 2.106463e-03 0.000000e+00
4.818385e-03 2.387397e-03 0.000000e+00
4.705867e-03 2.578257e-03 0.000000e+00
0.000000e+00 0.000000e+00 0.000000e+00
1.417638e-03 -3.599709e-05 0.000000e+00
2.444341e-03 7.298848e-05 0.000000e+00
3.234366e-03 2.811807e-04 0.000000e+00
3.792219e-03 5.769694e-04 0.000000e+00
4.133963e-03 9.382485e-04 0.000000e+00
4.295930e-03 1.330674e-03 0.000000e+00
4.324635e-03 1.714172e-03 0.000000e+00
4.278036e-03 2.058325e-03 0.000000e+00
4.223366e-03 2.343855e-03 0.000000e+00
4.239963e-03 2.569973e-03 0.000000e+00
0.000000e+00 0.000000e+00 0.000000e+00
1.061687e-03 -2.822449e-05 0.000000e+00
1.888216e-03 6.998712e-05 0.000000e+00
2.533069e-03 2.665877e-04 0.000000e+00
2.995624e-03 5.441109e-04 0.000000e+00
3.294974e-03 8.766891e-04 0.000000e+00
3.462986e-03 1.235228e-03 0.000000e+00
3.536656e-03 1.590258e-03 0.000000e+00
3.561205e-03 1.920003e-03 0.000000e+00
3.588143e-03 2.212025e-03 0.000000e+00
3.674210e-03 2.469938e-03 0.000000e+00
0.000000e+00 0.000000e+00 0.000000e+00
7.708849e-04 -3.439748e-05 0.000000e+00
1.405249e-03 4.412760e-05 0.000000e+00
1.909741e-03 2.188210e-04 0.000000e+00
2.283896e-03 4.697199e-04 0.000000e+00
2.538704e-03 7.713420e-04 0.000000e+00
2.696974e-03 1.098850e-03 0.000000e+00
2.789019e-03 1.430195e-03 0.000000e+00
2.849413e-03 1.749070e-03 0.000000e+00
2.916320e-03 2.047843e-03 0.000000e+00
3.028532e-03 2.331335e-03 0.000000e+00
0.000000e+00 0.000000e+00 0.000000e+00
5.349474e-04 -4.394482e-05 0.000000e+00
9.900272e-04 1.253546e-05 0.000000e+00
1.360857e-03 1.609793e-04 0.000000e+00
1.645670e-03 3.847277e-04 0.000000e+00
1.847825e-03 6.594936e-04 0.000000e+00
1.981728e-03 9.623932e-04 0.000000e+00
2.070115e-03 1.275589e-03 0.000000e+00
2.138748e-03 1.586769e-03 0.000000e+00
2.214059e-03 1.891392e-03 0.000000e+00
2.321537e-03 2.195163e-03 0.000000e+00
0.000000e+00 0.000000e+00 0.000000e+00
3.368793e-04 -5.322017e-05 0.000000e+00
6.301170e-04 -1.254840e-05 0.000000e+00
8.721884e-04 1.147005e-04 0.000000e+00
1.064079e-03 3.153049e-04 0.000000e+00
1.205151e-03 5.687189e-04 0.000000e+00
1.301742e-03 8.534819e-04 0.000000e+00
1.370111e-03 1.153877e-03 0.000000e+00
1.426759e-03 1.459998e-03 0.000000e+00
1.488933e-03 1.769113e-03 0.000000e+00
1.570943e-03 2.087341e-03 0.000000e+00
0.000000e+00 0.000000e+00 0.000000e+00
1.640498e-04 -5.749140e-05 0.000000e+00
3.068156e-04 -2.394326e-05 0.000000e+00
4.258669e-04 9.099541e-05 0.000000e+00
5.219414e-04 2.767520e-04 0.000000e+00
5.944293e-04 5.164907e-04 0.000000e+00
6.452735e-04 7.904929e-04 0.000000e+00
6.818636e-04 1.082967e-03 0.000000e+00
7.135503e-04 1.385745e-03 0.000000e+00
7.482467e-04 1.697533e-03 0.000000e+00
7.921574e-04 2.024489e-03 0.000000e+00
0.000000e+00 0.000000e+00 0.000000e+00
0.000000e+00 -4.611634e-05 0.000000e+00
0.000000e+00 -1.256548e-05 0.000000e+00
0.000000e+00 9.825464e-05 0.000000e+00
0.000000e+00 2.790513e-04 0.000000e+00
0.000000e+00 5.138960e-04 0.000000e+00
0.000000e+00 7.837084e-04 0.000000e+00
0.000000e+00 1.072834e-03 0.000000e+00
0.000000e+00 1.374037e-03 0.000000e+00
0.000000e+00 1.686059e-03 0.000000e+00
0.000000e+00 2.015564e-03 0.000000e+00
</DataArray>
<DataArray Name="shear" type="Float64" NumberOfComponents="1" format="ascii">
1.470816e-02
2.049397e-02
3.014715e-02
4.013148e-02
5.085003e-02
5.822500e-02
5.758348e-02
4.803724e-02
3.383977e-02
2.212008e-02
1.806592e-02
1.523921e-02
2.066945e-02
2.955423e-02
3.815015e-02
4.626564e-02
5.246660e-02
5.454473e-02
5.192783e-02
4.543043e-02
3.447371e-02
2.532288e-02
1.676761e-02
2.075023e-02
2.742224e-02
3.405965e-02
4.055002e-02
4.719558e-02
5.518616e-02
6.545156e-02
7.581442e-02
7.978237e-02
7.888424e-02
1.763870e-02
1.887175e-02
2.105416e-02
2.415300e-02
2.799219e-02
3.226820e-02
3.809929e-02
4.681567e-02
5.732364e-02
6.615403e-02
7.244268e-02
1.776531e-02
1.678197e-02
1.515877e-02
1.470068e-02
1.456961e-02
1.419907e-02
1.375475e-02
1.327101e-02
1.142901e-02
6.425044e-03
1.406111e-03
1.718034e-02
1.537758e-02
1.274335e-02
1.188114e-02
1.144229e-02
1.089288e-02
1.020926e-02
9.343769e-03
7.575510e-03
4.008200e-03
1.007306e-03
1.568104e-02
1.353608e-02
1.068375e-02
9.872315e-03
9.497252e-03
9.096802e-03
8.582686e-03
7.783423e-03
6.219485e-03
3.527230e-03
1.451450e-03
1.370154e-02
1.167527e-02
9.168725e-03
8.532370e-03
8.236286e-03
8.008605e-03
7.672159e-03
6.947919e-03
5.568659e-03
3.453785e-03
1.919863e-03
1.149018e-02
9.837240e-03
7.913616e-03
7.457506e-03
7.297427e-03
7.217587e-03
6.978964e-03
6.344256e-03
5.196753e-03
3.576561e-03
2.470188e-03
9.248593e-03
8.072076e-03
6.779580e-03
6.526453e-03
6.518346e-03
6.533385e-03
6.362080e-03
5.850920e-03
4.969286e-03
3.797032e-03
3.037993e-03
7.174016e-03
6.446706e-03
5.720221e-03
5.666899e-03
5.796071e-03
5.895045e-03
5.803279e-03
5.447134e-03
4.836110e-03
4.054641e-03
3.578846e-03
5.376362e-03
4.980618e-03
4.703806e-03
4.862078e-03
5.119594e-03
5.306030e-03
5.320737e-03
5.131749e-03
4.764122e-03
4.307847e-03
4.054099e-03
3.895964e-03
3.706096e-03
3.762630e-03
4.130853e-03
4.522454e-03
4.804323e-03
4.929740e-03
4.892375e-03
4.728341e-03
4.528708e-03
4.439660e-03
2.695165e-03
2.633499e-03
2.945889e-03
3.507594e-03
4.033564e-03
4.413316e-03
4.635163e-03
4.719305e-03
4.714618e-03
4.706328e-03
4.734899e-03
1.695925e-03
1.740762e-03
2.300479e-03
3.029126e-03
3.667134e-03
4.131660e-03
4.429656e-03
4.603667e-03
4.712829e-03
4.835686e-03
4.942169e-03
8.333997e-04
1.039894e-03
1.878167e-03
2.727003e-03
3.436310e-03
3.959345e-03
4.306660e-03
4.534577e-03
4.712607e-03
4.913500e-03
5.064541e-03
2.903981e-04
7.357058e-04
1.731760e-03
2.622294e-03
3.355035e-03
3.898757e-03
4.264202e-03
4.510226e-03
4.711517e-03
4.938061e-03
5.103522e-03
</DataArray>
<DataArray Name="stress" type="Float64" NumberOfComponents="9" format="ascii">
-1.099217e+05 4.795970e+03 0.000000e+00 4.795970e+03 -1.812234e+05 0.000000e+00 0.000000e+00 0.000000e+00 0.000000e+00
-9.800522e+04 3.932083e+03 0.000000e+00 3.932083e+03 -1.793711e+05 0.000000e+00 0.000000e+00 0.000000e+00 0.000000e+00
-9.130454e+04 2.856418e+03 0.000000e+00 2.856418e+03 -1.883786e+05 0.000000e+00 0.000000e+00 0.000000e+00 0.000000e+00
-9.100998e+04 2.696111e+03 0.000000e+00 2.696111e+03 -1.956500e+05 0.000000e+00 0.000000e+00 0.000000e+00 0.000000e+00
-1.020455e+05 3.128077e+03 0.000000e+00 3.128077e+03 -2.002149e+05 0.000000e+00 0.000000e+00 0.000000e+00 0.000000e+00
-1.122014e+05 5.247915e+03 0.000000e+00 5.247915e+03 -2.066683e+05 0.000000e+00 0.000000e+00 0.000000e+00 0.000000e+00
-1.182296e+05 7.398757e+03 0.000000e+00 7.398757e+03 -2.144735e+05 0.000000e+00 0.000000e+00 0.000000e+00 0.000000e+00
-1.156977e+05 7.355354e+03 0.000000e+00 7.355354e+03 -2.299620e+05 0.000000e+00 0.000000e+00 0.000000e+00 0.000000e+00
-1.178054e+05 5.546835e+03 0.000000e+00 5.546835e+03 -2.388139e+05 0.000000e+00 0.000000e+00 0.000000e+00 0.000000e+00
-1.356873e+05 3.438665e+02 0.000000e+00 3.438665e+02 -2.424708e+05 0.000000e+00 0.000000e+00 0.000000e+00 0.000000e+00
-1.430207e+05 -6.243715e+02 0.000000e+00 -6.243715e+02 -2.400416e+05 0.000000e+00 0.000000e+00 0.000000e+00 0.000000e+00
-1.082598e+05 1.361336e+04 0.000000e+00 1.361336e+04 -1.724291e+05 0.000000e+00 0.000000e+00 0.000000e+00 0.000000e+00
-9.683878e+04 1.159077e+04 0.000000e+00 1.159077e+04 -1.704283e+05 0.000000e+00 0.000000e+00 0.000000e+00 0.000000e+00
-9.135097e+04 9.750785e+03 0.000000e+00 9.750785e+03 -1.795732e+05 0.000000e+00 0.000000e+00 0.000000e+00 0.000000e+00
-9.226003e+04 1.019483e+04 0.000000e+00 1.019483e+04 -1.885582e+05 0.000000e+00 0.000000e+00 0.000000e+00 0.000000e+00
-1.007034e+05 1.184441e+04 0.000000e+00 1.184441e+04 -1.990174e+05 0.000000e+00 0.000000e+00 0.000000e+00 0.000000e+00
-1.098488e+05 1.304257e+04 0.000000e+00 1.304257e+04 -2.102739e+05 0.000000e+00 0.000000e+00 0.000000e+00 0.000000e+00
-1.162957e+05 1.271161e+04 0.000000e+00 1.271161e+04 -2.215473e+05 0.000000e+00 0.000000e+00 0.000000e+00 0.000000e+00
-1.163077e+05 1.046246e+04 0.000000e+00 1.046246e+04 -2.333317e+05 0.000000e+00 0.000000e+00 0.000000e+00 0.000000e+00
-1.190511e+05 6.889095e+03 0.000000e+00 6.889095e+03 -2.429181e+05 0.000000e+00 0.000000e+00 0.000000e+00 0.000000e+00
-1.291823e+05 9.238464e+02 0.000000e+00 9.238464e+02 -2.465209e+05 0.000000e+00 0.000000e+00 0.000000e+00 0.000000e+00
-1.465494e+05 -5.386239e+03 0.000000e+00 -5.386239e+03 -2.663103e+05 0.000000e+00 0.000000e+00 0.000000e+00 0.000000e+00
-1.029502e+05 2.292205e+04 0.000000e+00 2.292205e+04 -1.494482e+05 0.000000e+00 0.000000e+00 0.000000e+00 0.000000e+00
-9.415798e+04 2.063460e+04 0.000000e+00 2.063460e+04 -1.468898e+05 0.000000e+00 0.000000e+00 0.000000e+00 0.000000e+00
-9.230038e+04 1.985367e+04 0.000000e+00 1.985367e+04 -1.536906e+05 0.000000e+00 0.000000e+00 0.000000e+00 0.000000e+00
-9.648782e+04 2.196682e+04 0.000000e+00 2.196682e+04 -1.622834e+05 0.000000e+00 0.000000e+00 0.000000e+00 0.000000e+00
-1.052376e+05 2.573677e+04 0.000000e+00 2.573677e+04 -1.728466e+05 0.000000e+00 0.000000e+00 0.000000e+00 0.000000e+00
-1.135797e+05 2.797911e+04 0.000000e+00 2.797911e+04 -1.827208e+05 0.000000e+00 0.000000e+00 0.000000e+00 0.000000e+00
-1.200542e+05 2.954647e+04 0.000000e+00 2.954647e+04 -1.937851e+05 0.000000e+00 0.000000e+00 0.000000e+00 0.000000e+00
-1.264757e+05 2.923906e+04 0.000000e+00 2.923906e+04 -2.065556e+05 0.000000e+00 0.000000e+00 0.000000e+00 0.000000e+00
-1.393504e+05 2.930365e+04 0.000000e+00 2.930365e+04 -2.209460e+05 0.000000e+00 0.000000e+00 0.000000e+00 0.000000e+00
-1.492830e+05 2.217710e+04 0.000000e+00 2.217710e+04 -2.391882e+05 0.000000e+00 0.000000e+00 0.000000e+00 0.000000e+00
-1.656343e+05 1.029744e+04 0.000000e+00 1.029744e+04 -2.718398e+05 0.000000e+00 0.000000e+00 0.000000e+00 0.000000e+00
-9.504914e+04 2.529682e+04 0.000000e+00 2.529682e+04 -1.229515e+05 0.000000e+00 0.000000e+00 0.000000e+00 0.000000e+00
-8.962014e+04 2.390774e+04 0.000000e+00 2.390774e+04 -1.204043e+05 0.000000e+00 0.000000e+00 0.000000e+00 0.000000e+00
-8.960616e+04 2.377806e+04 0.000000e+00 2.377806e+04 -1.213106e+05 0.000000e+00 0.000000e+00 0.000000e+00 0.000000e+00
-9.404231e+04 2.557383e+04 0.000000e+00 2.557383e+04 -1.215088e+05 0.000000e+00 0.000000e+00 0.000000e+00 0.000000e+00
-1.003740e+05 2.747404e+04 0.000000e+00 2.747404e+04 -1.203115e+05 0.000000e+00 0.000000e+00 0.000000e+00 0.000000e+00
-1.050939e+05 2.804450e+04 0.000000e+00 2.804450e+04 -1.170819e+05 0.000000e+00 0.000000e+00 0.000000e+00 0.000000e+00
-1.061426e+05 2.840781e+04 0.000000e+00 2.840781e+04 -1.121944e+05 0.000000e+00 0.000000e+00 0.000000e+00 0.000000e+00
-1.038302e+05 2.712145e+04 0.000000e+00 2.712145e+04 -1.047995e+05 0.000000e+00 0.000000e+00 0.000000e+00 0.000000e+00
-1.000491e+05 2.383196e+04 0.000000e+00 2.383196e+04 -9.394510e+04 0.000000e+00 0.000000e+00 0.000000e+00 0.000000e+00
-8.883401e+04 1.620179e+04 0.000000e+00 1.620179e+04 -8.022083e+04 0.000000e+00 0.000000e+00 0.000000e+00 0.000000e+00
-6.953528e+04 1.070029e+04 0.000000e+00 1.070029e+04 -6.902202e+04 0.000000e+00 0.000000e+00 0.000000e+00 0.000000e+00
-9.096251e+04 2.502563e+04 0.000000e+00 2.502563e+04 -1.087124e+05 0.000000e+00 0.000000e+00 0.000000e+00 0.000000e+00
-8.935510e+04 2.423633e+04 0.000000e+00 2.423633e+04 -1.074833e+05 0.000000e+00 0.000000e+00 0.000000e+00 0.000000e+00
-9.230136e+04 2.415332e+04 0.000000e+00 2.415332e+04 -1.071798e+05 0.000000e+00 0.000000e+00 0.000000e+00 0.000000e+00
-9.841252e+04 2.488849e+04 0.000000e+00 2.488849e+04 -1.056218e+05 0.000000e+00 0.000000e+00 0.000000e+00 0.000000e+00
-1.048391e+05 2.527632e+04 0.000000e+00 2.527632e+04 -1.027338e+05 0.000000e+00 0.000000e+00 0.000000e+00 0.000000e+00
-1.097532e+05 2.453846e+04 0.000000e+00 2.453846e+04 -9.838537e+04 0.000000e+00 0.000000e+00 0.000000e+00 0.000000e+00
-1.112341e+05 2.271081e+04 0.000000e+00 2.271081e+04 -9.214562e+04 0.000000e+00 0.000000e+00 0.000000e+00 0.000000e+00
-1.103957e+05 1.989620e+04 0.000000e+00 1.989620e+04 -8.445033e+04 0.000000e+00 0.000000e+00 0.000000e+00 0.000000e+00
-1.074412e+05 1.476717e+04 0.000000e+00 1.476717e+04 -7.583603e+04 0.000000e+00 0.000000e+00 0.000000e+00 0.000000e+00
-9.366498e+04 6.019780e+03 0.000000e+00 6.019780e+03 -6.803752e+04 0.000000e+00 0.000000e+00 0.000000e+00 0.000000e+00
-6.448015e+04 2.836337e+02 0.000000e+00 2.836337e+02 -5.726333e+04 0.000000e+00 0.000000e+00 0.000000e+00 0.000000e+00
-8.586219e+04 2.373135e+04 0.000000e+00 2.373135e+04 -9.630986e+04 0.000000e+00 0.000000e+00 0.000000e+00 0.000000e+00
-8.772683e+04 2.314870e+04 0.000000e+00 2.314870e+04 -9.598544e+04 0.000000e+00 0.000000e+00 0.000000e+00 0.000000e+00
-9.262053e+04 2.242018e+04 0.000000e+00 2.242018e+04 -9.439988e+04 0.000000e+00 0.000000e+00 0.000000e+00 0.000000e+00
-9.889292e+04 2.204234e+04 0.000000e+00 2.204234e+04 -9.172825e+04 0.000000e+00 0.000000e+00 0.000000e+00 0.000000e+00
-1.043315e+05 2.100965e+04 0.000000e+00 2.100965e+04 -8.813433e+04 0.000000e+00 0.000000e+00 0.000000e+00 0.000000e+00
-1.078729e+05 1.883165e+04 0.000000e+00 1.883165e+04 -8.352820e+04 0.000000e+00 0.000000e+00 0.000000e+00 0.000000e+00
-1.083883e+05 1.571719e+04 0.000000e+00 1.571719e+04 -7.799670e+04 0.000000e+00 0.000000e+00 0.000000e+00 0.000000e+00
-1.062501e+05 1.168362e+04 0.000000e+00 1.168362e+04 -7.209133e+04 0.000000e+00 0.000000e+00 0.000000e+00 0.000000e+00
-1.004293e+05 6.037029e+03 0.000000e+00 6.037029e+03 -6.655749e+04 0.000000e+00 0.000000e+00 0.000000e+00 0.000000e+00
-8.428958e+04 1.435732e+02 0.000000e+00 1.435732e+02 -6.219397e+04 0.000000e+00 0.000000e+00 0.000000e+00 0.000000e+00
-6.253389e+04 -1.982488e+03 0.000000e+00 -1.982488e+03 -5.729317e+04 0.000000e+00 0.000000e+00 0.000000e+00 0.000000e+00
-8.105950e+04 2.189783e+04 0.000000e+00 2.189783e+04 -8.614938e+04 0.000000e+00 0.000000e+00 0.000000e+00 0.000000e+00
-8.591573e+04 2.139946e+04 0.000000e+00 2.139946e+04 -8.660874e+04 0.000000e+00 0.000000e+00 0.000000e+00 0.000000e+00
-9.211334e+04 1.993613e+04 0.000000e+00 1.993613e+04 -8.441905e+04 0.000000e+00 0.000000e+00 0.000000e+00 0.000000e+00
-9.780671e+04 1.858282e+04 0.000000e+00 1.858282e+04 -8.159805e+04 0.000000e+00 0.000000e+00 0.000000e+00 0.000000e+00
-1.022005e+05 1.653882e+04 0.000000e+00 1.653882e+04 -7.808513e+04 0.000000e+00 0.000000e+00 0.000000e+00 0.000000e+00
-1.046364e+05 1.368223e+04 0.000000e+00 1.368223e+04 -7.417456e+04 0.000000e+00 0.000000e+00 0.000000e+00 0.000000e+00
-1.043631e+05 1.011763e+04 0.000000e+00 1.011763e+04 -7.004538e+04 0.000000e+00 0.000000e+00 0.000000e+00 0.000000e+00
-1.012286e+05 5.881406e+03 0.000000e+00 5.881406e+03 -6.598066e+04 0.000000e+00 0.000000e+00 0.000000e+00 0.000000e+00
-9.414465e+04 1.235226e+03 0.000000e+00 1.235226e+03 -6.256423e+04 0.000000e+00 0.000000e+00 0.000000e+00 0.000000e+00
-8.087135e+04 -1.779100e+03 0.000000e+00 -1.779100e+03 -6.040120e+04 0.000000e+00 0.000000e+00 0.000000e+00 0.000000e+00
-6.654862e+04 -2.333650e+03 0.000000e+00 -2.333650e+03 -5.796497e+04 0.000000e+00 0.000000e+00 0.000000e+00 0.000000e+00
-7.694387e+04 1.980106e+04 0.000000e+00 1.980106e+04 -7.855132e+04 0.000000e+00 0.000000e+00 0.000000e+00 0.000000e+00
-8.378875e+04 1.932524e+04 0.000000e+00 1.932524e+04 -7.931434e+04 0.000000e+00 0.000000e+00 0.000000e+00 0.000000e+00
-9.050568e+04 1.727080e+04 0.000000e+00 1.727080e+04 -7.695502e+04 0.000000e+00 0.000000e+00 0.000000e+00 0.000000e+00
-9.573629e+04 1.522525e+04 0.000000e+00 1.522525e+04 -7.429563e+04 0.000000e+00 0.000000e+00 0.000000e+00 0.000000e+00
-9.942638e+04 1.274728e+04 0.000000e+00 1.274728e+04 -7.135075e+04 0.000000e+00 0.000000e+00 0.000000e+00 0.000000e+00
-1.009923e+05 9.684315e+03 0.000000e+00 9.684315e+03 -6.836791e+04 0.000000e+00 0.000000e+00 0.000000e+00 0.000000e+00
-1.001301e+05 6.079500e+03 0.000000e+00 6.079500e+03 -6.537576e+04 0.000000e+00 0.000000e+00 0.000000e+00 0.000000e+00
-9.655070e+04 2.239993e+03 0.000000e+00 2.239993e+03 -6.267328e+04 0.000000e+00 0.000000e+00 0.000000e+00 0.000000e+00
-9.007080e+04 -1.070937e+03 0.000000e+00 -1.070937e+03 -6.077562e+04 0.000000e+00 0.000000e+00 0.000000e+00 0.000000e+00
-8.025877e+04 -2.308164e+03 0.000000e+00 -2.308164e+03 -5.989936e+04 0.000000e+00 0.000000e+00 0.000000e+00 0.000000e+00
-7.091406e+04 -2.058787e+03 0.000000e+00 -2.058787e+03 -5.854293e+04 0.000000e+00 0.000000e+00 0.000000e+00 0.000000e+00
-7.346080e+04 1.769445e+04 0.000000e+00 1.769445e+04 -7.289985e+04 0.000000e+00 0.000000e+00 0.000000e+00 0.000000e+00
-8.127230e+04 1.714468e+04 0.000000e+00 1.714468e+04 -7.383310e+04 0.000000e+00 0.000000e+00 0.000000e+00 0.000000e+00
-8.827609e+04 1.476374e+04 0.000000e+00 1.476374e+04 -7.160523e+04 0.000000e+00 0.000000e+00 0.000000e+00 0.000000e+00
-9.326668e+04 1.240075e+04 0.000000e+00 1.240075e+04 -6.929185e+04 0.000000e+00 0.000000e+00 0.000000e+00 0.000000e+00
-9.630389e+04 9.740149e+03 0.000000e+00 9.740149e+03 -6.696528e+04 0.000000e+00 0.000000e+00 0.000000e+00 0.000000e+00
-9.730848e+04 6.664664e+03 0.000000e+00 6.664664e+03 -6.467746e+04 0.000000e+00 0.000000e+00 0.000000e+00 0.000000e+00
-9.615112e+04 3.315738e+03 0.000000e+00 3.315738e+03 -6.254522e+04 0.000000e+00 0.000000e+00 0.000000e+00 0.000000e+00
-9.283289e+04 1.677230e+02 0.000000e+00 1.677230e+02 -6.088104e+04 0.000000e+00 0.000000e+00 0.000000e+00 0.000000e+00
-8.774050e+04 -2.011965e+03 0.000000e+00 -2.011965e+03 -5.996176e+04 0.000000e+00 0.000000e+00 0.000000e+00 0.000000e+00
-8.092503e+04 -2.274882e+03 0.000000e+00 -2.274882e+03 -5.974000e+04 0.000000e+00 0.000000e+00 0.000000e+00 0.000000e+00
-7.493069e+04 -1.709160e+03 0.000000e+00 -1.709160e+03 -5.892716e+04 0.000000e+00 0.000000e+00 0.000000e+00 0.000000e+00
-7.049144e+04 1.570525e+04 0.000000e+00 1.570525e+04 -6.898098e+04 0.000000e+00 0.000000e+00 0.000000e+00 0.000000e+00
-7.864030e+04 1.506071e+04 0.000000e+00 1.506071e+04 -6.989055e+04 0.000000e+00 0.000000e+00 0.000000e+00 0.000000e+00
-8.578620e+04 1.256561e+04 0.000000e+00 1.256561e+04 -6.776508e+04 0.000000e+00 0.000000e+00 0.000000e+00 0.000000e+00
-9.048544e+04 1.007267e+04 0.000000e+00 1.007267e+04 -6.585852e+04 0.000000e+00 0.000000e+00 0.000000e+00 0.000000e+00
-9.314628e+04 7.384605e+03 0.000000e+00 7.384605e+03 -6.404690e+04 0.000000e+00 0.000000e+00 0.000000e+00 0.000000e+00
-9.384561e+04 4.455276e+03 0.000000e+00 4.455276e+03 -6.231887e+04 0.000000e+00 0.000000e+00 0.000000e+00 0.000000e+00
-9.271289e+04 1.536982e+03 0.000000e+00 1.536982e+03 -6.088243e+04 0.000000e+00 0.000000e+00 0.000000e+00 0.000000e+00
-9.014808e+04 -8.808090e+02 0.000000e+00 -8.808090e+02 -5.994645e+04 0.000000e+00 0.000000e+00 0.000000e+00 0.000000e+00
-8.654702e+04 -2.240771e+03 0.000000e+00 -2.240771e+03 -5.960395e+04 0.000000e+00 0.000000e+00 0.000000e+00 0.000000e+00
-8.205340e+04 -2.038787e+03 0.000000e+00 -2.038787e+03 -5.969996e+04 0.000000e+00 0.000000e+00 0.000000e+00 0.000000e+00
-7.837281e+04 -1.359211e+03 0.000000e+00 -1.359211e+03 -5.924956e+04 0.000000e+00 0.000000e+00 0.000000e+00 0.000000e+00
-6.809764e+04 1.361251e+04 0.000000e+00 1.361251e+04 -6.640316e+04 0.000000e+00 0.000000e+00 0.000000e+00 0.000000e+00
-7.606373e+04 1.298072e+04 0.000000e+00 1.298072e+04 -6.709669e+04 0.000000e+00 0.000000e+00 0.000000e+00 0.000000e+00
-8.321227e+04 1.061360e+04 0.000000e+00 1.061360e+04 -6.511809e+04 0.000000e+00 0.000000e+00 0.000000e+00 0.000000e+00
-8.768624e+04 8.186978e+03 0.000000e+00 8.186978e+03 -6.350739e+04 0.000000e+00 0.000000e+00 0.000000e+00 0.000000e+00
-9.008934e+04 5.588058e+03 0.000000e+00 5.588058e+03 -6.206786e+04 0.000000e+00 0.000000e+00 0.000000e+00 0.000000e+00
-9.071035e+04 2.912918e+03 0.000000e+00 2.912918e+03 -6.080147e+04 0.000000e+00 0.000000e+00 0.000000e+00 0.000000e+00
-8.996516e+04 4.930851e+02 0.000000e+00 4.930851e+02 -5.990337e+04 0.000000e+00 0.000000e+00 0.000000e+00 0.000000e+00
-8.828887e+04 -1.290392e+03 0.000000e+00 -1.290392e+03 -5.946476e+04 0.000000e+00 0.000000e+00 0.000000e+00 0.000000e+00
-8.599088e+04 -2.117055e+03 0.000000e+00 -2.117055e+03 -5.946066e+04 0.000000e+00 0.000000e+00 0.000000e+00 0.000000e+00
-8.329288e+04 -1.711471e+03 0.000000e+00 -1.711471e+03 -5.970293e+04 0.000000e+00 0.000000e+00 0.000000e+00 0.000000e+00
-8.122063e+04 -1.060493e+03 0.000000e+00 -1.060493e+03 -5.950809e+04 0.000000e+00 0.000000e+00 0.000000e+00 0.000000e+00
-6.660703e+04 1.162850e+04 0.000000e+00 1.162850e+04 -6.490314e+04 0.000000e+00 0.000000e+00 0.000000e+00 0.000000e+00
-7.385555e+04 1.097630e+04 0.000000e+00 1.097630e+04 -6.525578e+04 0.000000e+00 0.000000e+00 0.000000e+00 0.000000e+00
-8.074332e+04 8.851256e+03 0.000000e+00 8.851256e+03 -6.347192e+04 0.000000e+00 0.000000e+00 0.000000e+00 0.000000e+00
-8.499403e+04 6.575374e+03 0.000000e+00 6.575374e+03 -6.203672e+04 0.000000e+00 0.000000e+00 0.000000e+00 0.000000e+00
-8.727122e+04 4.183962e+03 0.000000e+00 4.183962e+03 -6.080229e+04 0.000000e+00 0.000000e+00 0.000000e+00 0.000000e+00
-8.805785e+04 1.891428e+03 0.000000e+00 1.891428e+03 -5.987740e+04 0.000000e+00 0.000000e+00 0.000000e+00 0.000000e+00
-8.784266e+04 -2.976422e+01 0.000000e+00 -2.976422e+01 -5.935500e+04 0.000000e+00 0.000000e+00 0.000000e+00 0.000000e+00
-8.700905e+04 -1.326746e+03 0.000000e+00 -1.326746e+03 -5.924183e+04 0.000000e+00 0.000000e+00 0.000000e+00 0.000000e+00
-8.580372e+04 -1.821187e+03 0.000000e+00 -1.821187e+03 -5.942437e+04 0.000000e+00 0.000000e+00 0.000000e+00 0.000000e+00
-8.445534e+04 -1.366378e+03 0.000000e+00 -1.366378e+03 -5.971148e+04 0.000000e+00 0.000000e+00 0.000000e+00 0.000000e+00
-8.351314e+04 -8.022704e+02 0.000000e+00 -8.022704e+02 -5.971680e+04 0.000000e+00 0.000000e+00 0.000000e+00 0.000000e+00
-6.555755e+04 9.549570e+03 0.000000e+00 9.549570e+03 -6.429669e+04 0.000000e+00 0.000000e+00 0.000000e+00 0.000000e+00
-7.194318e+04 8.948522e+03 0.000000e+00 8.948522e+03 -6.426418e+04 0.000000e+00 0.000000e+00 0.000000e+00 0.000000e+00
-7.845842e+04 7.141426e+03 0.000000e+00 7.141426e+03 -6.253377e+04 0.000000e+00 0.000000e+00 0.000000e+00 0.000000e+00
-8.251630e+04 5.128785e+03 0.000000e+00 5.128785e+03 -6.117080e+04 0.000000e+00 0.000000e+00 0.000000e+00 0.000000e+00
-8.482863e+04 3.074426e+03 0.000000e+00 3.074426e+03 -6.010120e+04 0.000000e+00 0.000000e+00 0.000000e+00 0.000000e+00
-8.591027e+04 1.221707e+03 0.000000e+00 1.221707e+03 -5.941162e+04 0.000000e+00 0.000000e+00 0.000000e+00 0.000000e+00
-8.624676e+04 -2.324234e+02 0.000000e+00 -2.324234e+02 -5.912454e+04 0.000000e+00 0.000000e+00 0.000000e+00 0.000000e+00
-8.613424e+04 -1.158905e+03 0.000000e+00 -1.158905e+03 -5.918677e+04 0.000000e+00 0.000000e+00 0.000000e+00 0.000000e+00
-8.579863e+04 -1.453088e+03 0.000000e+00 -1.453088e+03 -5.944546e+04 0.000000e+00 0.000000e+00 0.000000e+00 0.000000e+00
-8.543757e+04 -1.037629e+03 0.000000e+00 -1.037629e+03 -5.973891e+04 0.000000e+00 0.000000e+00 0.000000e+00 0.000000e+00
-8.528833e+04 -5.810723e+02 0.000000e+00 -5.810723e+02 -5.987122e+04 0.000000e+00 0.000000e+00 0.000000e+00 0.000000e+00
-6.482930e+04 7.271150e+03 0.000000e+00 7.271150e+03 -6.417806e+04 0.000000e+00 0.000000e+00 0.000000e+00 0.000000e+00
-7.041707e+04 6.789611e+03 0.000000e+00 6.789611e+03 -6.388257e+04 0.000000e+00 0.000000e+00 0.000000e+00 0.000000e+00
-7.650563e+04 5.393020e+03 0.000000e+00 5.393020e+03 -6.209487e+04 0.000000e+00 0.000000e+00 0.000000e+00 0.000000e+00
-8.043459e+04 3.766091e+03 0.000000e+00 3.766091e+03 -6.072107e+04 0.000000e+00 0.000000e+00 0.000000e+00 0.000000e+00
-8.284286e+04 2.165674e+03 0.000000e+00 2.165674e+03 -5.975874e+04 0.000000e+00 0.000000e+00 0.000000e+00 0.000000e+00
-8.427556e+04 7.837367e+02 0.000000e+00 7.837367e+02 -5.922095e+04 0.000000e+00 0.000000e+00 0.000000e+00 0.000000e+00
-8.508921e+04 -2.608011e+02 0.000000e+00 -2.608011e+02 -5.906927e+04 0.000000e+00 0.000000e+00 0.000000e+00 0.000000e+00
-8.555099e+04 -8.978766e+02 0.000000e+00 -8.978766e+02 -5.920348e+04 0.000000e+00 0.000000e+00 0.000000e+00 0.000000e+00
-8.586564e+04 -1.068096e+03 0.000000e+00 -1.068096e+03 -5.949005e+04 0.000000e+00 0.000000e+00 0.000000e+00 0.000000e+00
-8.620295e+04 -7.374201e+02 0.000000e+00 -7.374201e+02 -5.977484e+04 0.000000e+00 0.000000e+00 0.000000e+00 0.000000e+00
-8.658639e+04 -3.941206e+02 0.000000e+00 -3.941206e+02 -5.998623e+04 0.000000e+00 0.000000e+00 0.000000e+00 0.000000e+00
-6.437909e+04 4.897259e+03 0.000000e+00 4.897259e+03 -6.418422e+04 0.000000e+00 0.000000e+00 0.000000e+00 0.000000e+00
-6.932142e+04 4.537560e+03 0.000000e+00 4.537560e+03 -6.373726e+04 0.000000e+00 0.000000e+00 0.000000e+00 0.000000e+00
-7.502031e+04 3.572679e+03 0.000000e+00 3.572679e+03 -6.188904e+04 0.000000e+00 0.000000e+00 0.000000e+00 0.000000e+00
-7.890153e+04 2.458125e+03 0.000000e+00 2.458125e+03 -6.051607e+04 0.000000e+00 0.000000e+00 0.000000e+00 0.000000e+00
-8.142595e+04 1.391487e+03 0.000000e+00 1.391487e+03 -5.963065e+04 0.000000e+00 0.000000e+00 0.000000e+00 0.000000e+00
-8.313686e+04 4.714355e+02 0.000000e+00 4.714355e+02 -5.918104e+04 0.000000e+00 0.000000e+00 0.000000e+00 0.000000e+00
-8.430817e+04 -2.046707e+02 0.000000e+00 -2.046707e+02 -5.908302e+04 0.000000e+00 0.000000e+00 0.000000e+00 0.000000e+00
-8.518616e+04 -6.027071e+02 0.000000e+00 -6.027071e+02 -5.924627e+04 0.000000e+00 0.000000e+00 0.000000e+00 0.000000e+00
-8.594962e+04 -6.932604e+02 0.000000e+00 -6.932604e+02 -5.953755e+04 0.000000e+00 0.000000e+00 0.000000e+00 0.000000e+00
-8.674463e+04 -4.677792e+02 0.000000e+00 -4.677792e+02 -5.980254e+04 0.000000e+00 0.000000e+00 0.000000e+00 0.000000e+00
-8.745455e+04 -2.405044e+02 0.000000e+00 -2.405044e+02 -6.006565e+04 0.000000e+00 0.000000e+00 0.000000e+00 0.000000e+00
-6.405779e+04 2.354003e+03 0.000000e+00 2.354003e+03 -6.410121e+04 0.000000e+00 0.000000e+00 0.000000e+00 0.000000e+00
-6.866387e+04 2.206890e+03 0.000000e+00 2.206890e+03 -6.357369e+04 0.000000e+00 0.000000e+00 0.000000e+00 0.000000e+00
-7.410005e+04 1.748020e+03 0.000000e+00 1.748020e+03 -6.175719e+04 0.000000e+00 0.000000e+00 0.000000e+00 0.000000e+00
-7.797808e+04 1.207530e+03 0.000000e+00 1.207530e+03 -6.042544e+04 0.000000e+00 0.000000e+00 0.000000e+00 0.000000e+00
-8.057885e+04 6.796190e+02 0.000000e+00 6.796190e+02 -5.958773e+04 0.000000e+00 0.000000e+00 0.000000e+00 0.000000e+00
-8.244898e+04 2.191391e+02 0.000000e+00 2.191391e+02 -5.918512e+04 0.000000e+00 0.000000e+00 0.000000e+00 0.000000e+00
-8.385452e+04 -1.122037e+02 0.000000e+00 -1.122037e+02 -5.911613e+04 0.000000e+00 0.000000e+00 0.000000e+00 0.000000e+00
-8.497676e+04 -3.016146e+02 0.000000e+00 -3.016146e+02 -5.929616e+04 0.000000e+00 0.000000e+00 0.000000e+00 0.000000e+00
-8.601155e+04 -3.407192e+02 0.000000e+00 -3.407192e+02 -5.957362e+04 0.000000e+00 0.000000e+00 0.000000e+00 0.000000e+00
-8.706071e+04 -2.256232e+02 0.000000e+00 -2.256232e+02 -5.982674e+04 0.000000e+00 0.000000e+00 0.000000e+00 0.000000e+00
-8.794332e+04 -1.105284e+02 0.000000e+00 -1.105284e+02 -6.011456e+04 0.000000e+00 0.000000e+00 0.000000e+00 0.000000e+00
-6.383943e+04 5.571510e+02 0.000000e+00 5.571510e+02 -6.378061e+04 0.000000e+00 0.000000e+00 0.000000e+00 0.000000e+00
-6.841032e+04 6.036215e+02 0.000000e+00 6.036215e+02 -6.334216e+04 0.000000e+00 0.000000e+00 0.000000e+00 0.000000e+00
-7.379146e+04 5.003742e+02 0.000000e+00 5.003742e+02 -6.169024e+04 0.000000e+00 0.000000e+00 0.000000e+00 0.000000e+00
-7.767198e+04 3.264413e+02 0.000000e+00 3.264413e+02 -6.039880e+04 0.000000e+00 0.000000e+00 0.000000e+00 0.000000e+00
-8.030216e+04 1.261750e+02 0.000000e+00 1.261750e+02 -5.957280e+04 0.000000e+00 0.000000e+00 0.000000e+00 0.000000e+00
-8.222352e+04 -4.468413e+01 0.000000e+00 -4.468413e+01 -5.919330e+04 0.000000e+00 0.000000e+00 0.000000e+00 0.000000e+00
-8.371336e+04 -1.635148e+02 0.000000e+00 -1.635148e+02 -5.914425e+04 0.000000e+00 0.000000e+00 0.000000e+00 0.000000e+00
-8.491378e+04 -2.322666e+02 0.000000e+00 -2.322666e+02 -5.932308e+04 0.000000e+00 0.000000e+00 0.000000e+00 0.000000e+00
-8.603676e+04 -2.493398e+02 0.000000e+00 -2.493398e+02 -5.959380e+04 0.000000e+00 0.000000e+00 0.000000e+00 0.000000e+00
-8.716538e+04 -2.035022e+02 0.000000e+00 -2.035022e+02 -5.984237e+04 0.000000e+00 0.000000e+00 0.000000e+00 0.000000e+00
-8.809974e+04 -1.559102e+02 0.000000e+00 -1.559102e+02 -6.013325e+04 0.000000e+00 0.000000e+00 0.000000e+00 0.000000e+00
</DataArray>
<DataArray Name="vol_eps" type="Float64" NumberOfComponents="1" format="ascii">
-1.092904e-02
-9.561173e-03
-8.574857e-03
-7.608518e-03
-7.361454e-03
-7.998928e-03
-9.058930e-03
-1.085713e-02
-1.347288e-02
-1.610452e-02
-1.670131e-02
-1.023482e-02
-8.895443e-03
-8.117383e-03
-7.600651e-03
-7.799575e-03
-8.584683e-03
-9.602266e-03
-1.052757e-02
-1.211414e-02
-1.434361e-02
-1.794598e-02
-8.303606e-03
-7.196429e-03
-6.788791e-03
-6.800794e-03
-7.289417e-03
-7.802094e-03
-8.222036e-03
-8.471004e-03
-9.081542e-03
-1.046311e-02
-1.374959e-02
-5.890077e-03
-5.218526e-03
-5.010596e-03
-4.958034e-03
-4.899715e-03
-4.645502e-03
-3.682211e-03
-2.019495e-03
2.092811e-04
3.359117e-03
6.638193e-03
-4.594386e-03
-4.454770e-03
-4.752138e-03
-5.119662e-03
-5.403815e-03
-5.489481e-03
-5.188809e-03
-4.613296e-03
-3.905826e-03
-2.621182e-03
-3.156011e-05
-3.361084e-03
-3.623256e-03
-4.081120e-03
-4.420713e-03
-4.590272e-03
-4.549419e-03
-4.231425e-03
-3.714429e-03
-3.013167e-03
-1.695074e-03
5.924772e-05
-2.394784e-03
-2.981151e-03
-3.512167e-03
-3.772828e-03
-3.849915e-03
-3.761295e-03
-3.484003e-03
-3.032367e-03
-2.369289e-03
-1.357269e-03
-2.667384e-04
-1.719511e-03
-2.458560e-03
-2.974463e-03
-3.187577e-03
-3.248225e-03
-3.163660e-03
-2.922291e-03
-2.526424e-03
-1.989087e-03
-1.281772e-03
-5.884783e-04
-1.257581e-03
-2.033897e-03
-2.516012e-03
-2.720638e-03
-2.775708e-03
-2.697094e-03
-2.486130e-03
-2.174499e-03
-1.785163e-03
-1.312191e-03
-8.666780e-04
-9.634553e-04
-1.696381e-03
-2.131121e-03
-2.335550e-03
-2.393860e-03
-2.323787e-03
-2.159209e-03
-1.941574e-03
-1.682019e-03
-1.384094e-03
-1.109988e-03
-7.641545e-04
-1.412798e-03
-1.809339e-03
-2.008221e-03
-2.070384e-03
-2.024693e-03
-1.921366e-03
-1.788423e-03
-1.634549e-03
-1.466924e-03
-1.315466e-03
-6.318922e-04
-1.178500e-03
-1.543116e-03
-1.732824e-03
-1.801235e-03
-1.793235e-03
-1.748664e-03
-1.687856e-03
-1.619351e-03
-1.546730e-03
-1.482820e-03
-5.649828e-04
-1.005613e-03
-1.331396e-03
-1.510607e-03
-1.591995e-03
-1.621038e-03
-1.627706e-03
-1.625137e-03
-1.620194e-03
-1.615752e-03
-1.613843e-03
-5.409930e-04
-8.963622e-04
-1.177658e-03
-1.344339e-03
-1.438969e-03
-1.499919e-03
-1.546811e-03
-1.587285e-03
-1.627600e-03
-1.669201e-03
-1.708572e-03
-5.367018e-04
-8.284879e-04
-1.069803e-03
-1.229861e-03
-1.337037e-03
-1.420799e-03
-1.495490e-03
-1.566088e-03
-1.636336e-03
-1.706884e-03
-1.771695e-03
-5.240074e-04
-7.831237e-04
-1.004726e-03
-1.162409e-03
-1.277496e-03
-1.375119e-03
-1.466472e-03
-1.555132e-03
-1.642504e-03
-1.729362e-03
-1.807572e-03
-4.926187e-04
-7.545266e-04
-9.826857e-04
-1.141122e-03
-1.258088e-03
-1.360817e-03
-1.458638e-03
-1.552479e-03
-1.645432e-03
-1.737516e-03
-1.819485e-03
</DataArray>
</PointData>
</Piece>
</UnstructuredGrid>
</VTKFile>
