<?xml version="1.0"?>
<VTKFile type="UnstructuredGrid" version="0.1">
<UnstructuredGrid>
<FieldData>
<DataArray Name="TIME" type="Float64" format="ascii" NumberOfTuples="1">
0.000000e+00
</DataArray>
</FieldData>
<FieldData>
<DataArray Name="CYCLE" type="Int32" format="ascii" NumberOfTuples="1">
0
</DataArray>
</FieldData>
<Piece NumberOfPoints="187" NumberOfCells="160">
<Points>
<DataArray NumberOfComponents="3" type="Float64" format="ascii">
0.000000e+00 0.000000e+00 0.000000e+00
0.000000e+00 1.966611e-01 0.000000e+00
0.000000e+00 3.912209e-01 0.000000e+00
0.000000e+00 5.827812e-01 0.000000e+00
0.000000e+00 7.723079e-01 0.000000e+00
0.000000e+00 9.610106e-01 0.000000e+00
0.000000e+00 1.149814e+00 0.000000e+00
0.000000e+00 1.339551e+00 0.000000e+00
0.000000e+00 1.531294e+00 0.000000e+00
0.000000e+00 1.726425e+00 0.000000e+00
0.000000e+00 1.922375e+00 0.000000e+00
2.250000e-01 0.000000e+00 0.000000e+00
2.271006e-01 1.965363e-01 0.000000e+00
2.307422e-01 3.913130e-01 0.000000e+00
2.339734e-01 5.840397e-01 0.000000e+00
2.358455e-01 7.752231e-01 0.000000e+00
2.363269e-01 9.651495e-01 0.000000e+00
2.355640e-01 1.154591e+00 0.000000e+00
2.336602e-01 1.344342e+00 0.000000e+00
2.299164e-01 1.534747e+00 0.000000e+00
2.255530e-01 1.726851e+00 0.000000e+00
2.250000e-01 1.922375e+00 0.000000e+00
4.500000e-01 0.000000e+00 0.000000e+00
4.546189e-01 1.969311e-01 0.000000e+00
4.599606e-01 3.929029e-01 0.000000e+00
4.647079e-01 5.883850e-01 0.000000e+00
4.680440e-01 7.831730e-01 0.000000e+00
4.699808e-01 9.768586e-01 0.000000e+00
4.701200e-01 1.168900e+00 0.000000e+00
4.687122e-01 1.359307e+00 0.000000e+00
4.648884e-01 1.547990e+00 0.000000e+00
4.594165e-01 1.735175e+00 0.000000e+00
4.500000e-01 1.922375e+00 0.000000e+00
6.750000e-01 0.000000e+00 0.000000e+00
6.814986e-01 1.983503e-01 0.000000e+00
6.872895e-01 3.964874e-01 0.000000e+00
6.919060e-01 5.948693e-01 0.000000e+00
6.954814e-01 7.936671e-01 0.000000e+00
6.978780e-01 9.929114e-01 0.000000e+00
6.989504e-01 1.192737e+00 0.000000e+00
6.984230e-01 1.393156e+00 0.000000e+00
6.962276e-01 1.593909e+00 0.000000e+00
6.920208e-01 1.794476e+00 0.000000e+00
6.846336e-01 1.993978e+00 0.000000e+00
9.000000e-01 0.000000e+00 0.000000e+00
9.071066e-01 1.989474e-01 0.000000e+00
9.124650e-01 3.979973e-01 0.000000e+00
9.164232e-01 5.974095e-01 0.000000e+00
9.193971e-01 7.972393e-01 0.000000e+00
9.212714e-01 9.975169e-01 0.000000e+00
9.219014e-01 1.198209e+00 0.000000e+00
9.211366e-01 1.399178e+00 0.000000e+00
9.190006e-01 1.600204e+00 0.000000e+00
9.153926e-01 1.801046e+00 0.000000e+00
9.106603e-01 2.001184e+00 0.000000e+00
1.125000e+00 0.000000e+00 0.000000e+00
1.132158e+00 1.994931e-01 0.000000e+00
1.136771e+00 3.991688e-01 0.000000e+00
1.140168e+00 5.992487e-01 0.000000e+00
1.142654e+00 7.997115e-01 0.000000e+00
1.144125e+00 1.000520e+00 0.000000e+00
1.144520e+00 1.201615e+00 0.000000e+00
1.143779e+00 1.402829e+00 0.000000e+00
1.141921e+00 1.603971e+00 0.000000e+00
1.139172e+00 1.804729e+00 0.000000e+00
1.136329e+00 2.004816e+00 0.000000e+00
1.350000e+00 0.000000e+00 0.000000e+00
1.356686e+00 1.998581e-01 0.000000e+00
1.360620e+00 3.999911e-01 0.000000e+00
1.363539e+00 6.004731e-01 0.000000e+00
1.365611e+00 8.012766e-01 0.000000e+00
1.366807e+00 1.002377e+00 0.000000e+00
1.367107e+00 1.203667e+00 0.000000e+00
1.366505e+00 1.404980e+00 0.000000e+00
1.365079e+00 1.606122e+00 0.000000e+00
1.363225e+00 1.806808e+00 0.000000e+00
1.361563e+00 2.006974e+00 0.000000e+00
1.575000e+00 0.000000e+00 0.000000e+00
1.580916e+00 2.001195e-01 0.000000e+00
1.584248e+00 4.005059e-01 0.000000e+00
1.586732e+00 6.012080e-01 0.000000e+00
1.588484e+00 8.022038e-01 0.000000e+00
1.589493e+00 1.003421e+00 0.000000e+00
1.589781e+00 1.204752e+00 0.000000e+00
1.589371e+00 1.406065e+00 0.000000e+00
1.588419e+00 1.607166e+00 0.000000e+00
1.587314e+00 1.807834e+00 0.000000e+00
1.586475e+00 2.008072e+00 0.000000e+00
1.800000e+00 0.000000e+00 0.000000e+00
1.804967e+00 2.002386e-01 0.000000e+00
1.807785e+00 4.007589e-01 0.000000e+00
1.809894e+00 6.015683e-01 0.000000e+00
1.811396e+00 8.026247e-01 0.000000e+00
1.812282e+00 1.003846e+00 0.000000e+00
1.812595e+00 1.205146e+00 0.000000e+00
1.812394e+00 1.406401e+00 0.000000e+00
1.811870e+00 1.607439e+00 0.000000e+00
1.811349e+00 1.808112e+00 0.000000e+00
1.811092e+00 2.008450e+00 0.000000e+00
2.025000e+00 0.000000e+00 0.000000e+00
2.028975e+00 2.002559e-01 0.000000e+00
2.031334e+00 4.008088e-01 0.000000e+00
2.033129e+00 6.016285e-01 0.000000e+00
2.034415e+00 8.026627e-01 0.000000e+00
2.035214e+00 1.003834e+00 0.000000e+00
2.035566e+00 1.205059e+00 0.000000e+00
2.035563e+00 1.406225e+00 0.000000e+00
2.035388e+00 1.607196e+00 0.000000e+00
2.035286e+00 1.807886e+00 0.000000e+00
2.035410e+00 2.008342e+00 0.000000e+00
2.250000e+00 0.000000e+00 0.000000e+00
2.253045e+00 2.002122e-01 0.000000e+00
2.254986e+00 4.007270e-01 0.000000e+00
2.256488e+00 6.014928e-01 0.000000e+00
2.257583e+00 8.024504e-01 0.000000e+00
2.258302e+00 1.003534e+00 0.000000e+00
2.258695e+00 1.204658e+00 0.000000e+00
2.258858e+00 1.405729e+00 0.000000e+00
2.258944e+00 1.606641e+00 0.000000e+00
2.259109e+00 1.807360e+00 0.000000e+00
2.259451e+00 2.007933e+00 0.000000e+00
2.475000e+00 0.000000e+00 0.000000e+00
2.477229e+00 2.001508e-01 0.000000e+00
2.478790e+00 4.005926e-01 0.000000e+00
2.480008e+00 6.012609e-01 0.000000e+00
2.480920e+00 8.021073e-01 0.000000e+00
2.481560e+00 1.003068e+00 0.000000e+00
2.481976e+00 1.204074e+00 0.000000e+00
2.482256e+00 1.405048e+00 0.000000e+00
2.482504e+00 1.605929e+00 0.000000e+00
2.482819e+00 1.806694e+00 0.000000e+00
2.483259e+00 2.007379e+00 0.000000e+00
2.700000e+00 0.000000e+00 0.000000e+00
2.701551e+00 2.000906e-01 0.000000e+00
2.702757e+00 4.004403e-01 0.000000e+00
2.703715e+00 6.009958e-01 0.000000e+00
2.704451e+00 8.017090e-01 0.000000e+00
2.704999e+00 1.002535e+00 0.000000e+00
2.705403e+00 1.203426e+00 0.000000e+00
2.705729e+00 1.404323e+00 0.000000e+00
2.706044e+00 1.605185e+00 0.000000e+00
2.706416e+00 1.805999e+00 0.000000e+00
2.706865e+00 2.006798e+00 0.000000e+00
2.925000e+00 0.000000e+00 0.000000e+00
2.926012e+00 2.000351e-01 0.000000e+00
2.926884e+00 4.002829e-01 0.000000e+00
2.927601e+00 6.007243e-01 0.000000e+00
2.928169e+00 8.013189e-01 0.000000e+00
2.928603e+00 1.002031e+00 0.000000e+00
2.928946e+00 1.202826e+00 0.000000e+00
2.929250e+00 1.403662e+00 0.000000e+00
2.929559e+00 1.604509e+00 0.000000e+00
2.929909e+00 1.805368e+00 0.000000e+00
2.930301e+00 2.006267e+00 0.000000e+00
3.150000e+00 0.000000e+00 0.000000e+00
3.150605e+00 1.999804e-01 0.000000e+00
3.151160e+00 4.001453e-01 0.000000e+00
3.151641e+00 6.004926e-01 0.000000e+00
3.152030e+00 8.010023e-01 0.000000e+00
3.152333e+00 1.001635e+00 0.000000e+00
3.152577e+00 1.202355e+00 0.000000e+00
3.152808e+00 1.403140e+00 0.000000e+00
3.153051e+00 1.603973e+00 0.000000e+00
3.153317e+00 1.804863e+00 0.000000e+00
3.153604e+00 2.005840e+00 0.000000e+00
3.375000e+00 0.000000e+00 0.000000e+00
3.375283e+00 1.999459e-01 0.000000e+00
3.375551e+00 4.000591e-01 0.000000e+00
3.375791e+00 6.003484e-01 0.000000e+00
3.375989e+00 8.008018e-01 0.000000e+00
3.376144e+00 1.001383e+00 0.000000e+00
3.376272e+00 1.202056e+00 0.000000e+00
3.376395e+00 1.402802e+00 0.000000e+00
3.376529e+00 1.603624e+00 0.000000e+00
3.376670e+00 1.804533e+00 0.000000e+00
3.376820e+00 2.005555e+00 0.000000e+00
3.600000e+00 0.000000e+00 0.000000e+00
3.600000e+00 1.999449e-01 0.000000e+00
3.600000e+00 4.000436e-01 0.000000e+00
3.600000e+00 6.003118e-01 0.000000e+00
3.600000e+00 8.007390e-01 0.000000e+00
3.600000e+00 1.001295e+00 0.000000e+00
3.600000e+00 1.201945e+00 0.000000e+00
3.600000e+00 1.402673e+00 0.000000e+00
3.600000e+00 1.603487e+00 0.000000e+00
3.600000e+00 1.804400e+00 0.000000e+00
3.600000e+00 2.005430e+00 0.000000e+00
</DataArray>
</Points>
<Cells>
<DataArray Name="connectivity" type="Int32" format="ascii">
0 11 12 1
1 12 13 2
2 13 14 3
3 14 15 4
4 15 16 5
5 16 17 6
6 17 18 7
7 18 19 8
8 19 20 9
9 20 21 10
11 22 23 12
12 23 24 13
13 24 25 14
14 25 26 15
15 26 27 16
16 27 28 17
17 28 29 18
18 29 30 19
19 30 31 20
20 31 32 21
22 33 34 23
23 34 35 24
24 35 36 25
25 36 37 26
26 37 38 27
27 38 39 28
28 39 40 29
29 40 41 30
30 41 42 31
31 42 43 32
33 44 45 34
34 45 46 35
35 46 47 36
36 47 48 37
37 48 49 38
38 49 50 39
39 50 51 40
40 51 52 41
41 52 53 42
42 53 54 43
44 55 56 45
45 56 57 46
46 57 58 47
47 58 59 48
48 59 60 49
49 60 61 50
50 61 62 51
51 62 63 52
52 63 64 53
53 64 65 54
55 66 67 56
56 67 68 57
57 68 69 58
58 69 70 59
59 70 71 60
60 71 72 61
61 72 73 62
62 73 74 63
63 74 75 64
64 75 76 65
66 77 78 67
67 78 79 68
68 79 80 69
69 80 81 70
70 81 82 71
71 82 83 72
72 83 84 73
73 84 85 74
74 85 86 75
75 86 87 76
77 88 89 78
78 89 90 79
79 90 91 80
80 91 92 81
81 92 93 82
82 93 94 83
83 94 95 84
84 95 96 85
85 96 97 86
86 97 98 87
88 99 100 89
89 100 101 90
90 101 102 91
91 102 103 92
92 103 104 93
93 104 105 94
94 105 106 95
95 106 107 96
96 107 108 97
97 108 109 98
99 110 111 100
100 111 112 101
101 112 113 102
102 113 114 103
103 114 115 104
104 115 116 105
105 116 117 106
106 117 118 107
107 118 119 108
108 119 120 109
110 121 122 111
111 122 123 112
112 123 124 113
113 124 125 114
114 125 126 115
115 126 127 116
116 127 128 117
117 128 129 118
118 129 130 119
119 130 131 120
121 132 133 122
122 133 134 123
123 134 135 124
124 135 136 125
125 136 137 126
126 137 138 127
127 138 139 128
128 139 140 129
129 140 141 130
130 141 142 131
132 143 144 133
133 144 145 134
134 145 146 135
135 146 147 136
136 147 148 137
137 148 149 138
138 149 150 139
139 150 151 140
140 151 152 141
141 152 153 142
143 154 155 144
144 155 156 145
145 156 157 146
146 157 158 147
147 158 159 148
148 159 160 149
149 160 161 150
150 161 162 151
151 162 163 152
152 163 164 153
154 165 166 155
155 166 167 156
156 167 168 157
157 168 169 158
158 169 170 159
159 170 171 160
160 171 172 161
161 172 173 162
162 173 174 163
163 174 175 164
165 176 177 166
166 177 178 167
167 178 179 168
168 179 180 169
169 180 181 170
170 181 182 171
171 182 183 172
172 183 184 173
173 184 185 174
174 185 186 175
</DataArray>
<DataArray Name="offsets" type="Int32" format="ascii">
4
8
12
16
20
24
28
32
36
40
44
48
52
56
60
64
68
72
76
80
84
88
92
96
100
104
108
112
116
120
124
128
132
136
140
144
148
152
156
160
164
168
172
176
180
184
188
192
196
200
204
208
212
216
220
224
228
232
236
240
244
248
252
256
260
264
268
272
276
280
284
288
292
296
300
304
308
312
316
320
324
328
332
336
340
344
348
352
356
360
364
368
372
376
380
384
388
392
396
400
404
408
412
416
420
424
428
432
436
440
444
448
452
456
460
464
468
472
476
480
484
488
492
496
500
504
508
512
516
520
524
528
532
536
540
544
548
552
556
560
564
568
572
576
580
584
588
592
596
600
604
608
612
616
620
624
628
632
636
640
</DataArray>
<DataArray Name="types" type="UInt8" format="ascii">
9
9
9
9
9
9
9
9
9
9
9
9
9
9
9
9
9
9
9
9
9
9
9
9
9
9
9
9
9
9
9
9
9
9
9
9
9
9
9
9
9
9
9
9
9
9
9
9
9
9
9
9
9
9
9
9
9
9
9
9
9
9
9
9
9
9
9
9
9
9
9
9
9
9
9
9
9
9
9
9
9
9
9
9
9
9
9
9
9
9
9
9
9
9
9
9
9
9
9
9
9
9
9
9
9
9
9
9
9
9
9
9
9
9
9
9
9
9
9
9
9
9
9
9
9
9
9
9
9
9
9
9
9
9
9
9
9
9
9
9
9
9
9
9
9
9
9
9
9
9
9
9
9
9
9
9
9
9
9
9
</DataArray>
</Cells>
<PointData>
<DataArray Name="disp" type="Float64" NumberOfComponents="3" format="ascii">
0.000000e+00 0.000000e+00 0.000000e+00
0.000000e+00 -3.338874e-03 0.000000e+00
0.000000e+00 -8.779138e-03 0.000000e+00
0.000000e+00 -1.721880e-02 0.000000e+00
0.000000e+00 -2.769210e-02 0.000000e+00
0.000000e+00 -3.898941e-02 0.000000e+00
0.000000e+00 -5.018557e-02 0.000000e+00
0.000000e+00 -6.044879e-02 0.000000e+00
0.000000e+00 -6.870648e-02 0.000000e+00
0.000000e+00 -7.357533e-02 0.000000e+00
0.000000e+00 -7.762500e-02 0.000000e+00
0.000000e+00 0.000000e+00 0.000000e+00
2.100607e-03 -3.463652e-03 0.000000e+00
5.742155e-03 -8.687053e-03 0.000000e+00
8.973410e-03 -1.596028e-02 0.000000e+00
1.084549e-02 -2.477689e-02 0.000000e+00
1.132687e-02 -3.485046e-02 0.000000e+00
1.056401e-02 -4.540923e-02 0.000000e+00
8.660209e-03 -5.565837e-02 0.000000e+00
4.916389e-03 -6.525259e-02 0.000000e+00
5.530269e-04 -7.314850e-02 0.000000e+00
0.000000e+00 -7.762500e-02 0.000000e+00
0.000000e+00 0.000000e+00 0.000000e+00
4.618881e-03 -3.068910e-03 0.000000e+00
9.960604e-03 -7.097107e-03 0.000000e+00
1.470793e-02 -1.161501e-02 0.000000e+00
1.804405e-02 -1.682702e-02 0.000000e+00
1.998076e-02 -2.314144e-02 0.000000e+00
2.011999e-02 -3.109960e-02 0.000000e+00
1.871220e-02 -4.069286e-02 0.000000e+00
1.488837e-02 -5.200987e-02 0.000000e+00
9.416546e-03 -6.482492e-02 0.000000e+00
0.000000e+00 -7.762500e-02 0.000000e+00
0.000000e+00 0.000000e+00 0.000000e+00
6.498601e-03 -1.649723e-03 0.000000e+00
1.228945e-02 -3.512581e-03 0.000000e+00
1.690603e-02 -5.130720e-03 0.000000e+00
2.048135e-02 -6.332849e-03 0.000000e+00
2.287801e-02 -7.088629e-03 0.000000e+00
2.395034e-02 -7.262908e-03 0.000000e+00
2.342303e-02 -6.844114e-03 0.000000e+00
2.122759e-02 -6.091319e-03 0.000000e+00
1.702076e-02 -5.523907e-03 0.000000e+00
9.633558e-03 -6.022450e-03 0.000000e+00
0.000000e+00 0.000000e+00 0.000000e+00
7.106628e-03 -1.052604e-03 0.000000e+00
1.246505e-02 -2.002740e-03 0.000000e+00
1.642321e-02 -2.590529e-03 0.000000e+00
1.939713e-02 -2.760721e-03 0.000000e+00
2.127144e-02 -2.483145e-03 0.000000e+00
2.190139e-02 -1.791103e-03 0.000000e+00
2.113660e-02 -8.218913e-04 0.000000e+00
1.900065e-02 2.034676e-04 0.000000e+00
1.539259e-02 1.046411e-03 0.000000e+00
1.066029e-02 1.183850e-03 0.000000e+00
0.000000e+00 0.000000e+00 0.000000e+00
7.158095e-03 -5.069211e-04 0.000000e+00
1.177125e-02 -8.311793e-04 0.000000e+00
1.516761e-02 -7.512855e-04 0.000000e+00
1.765423e-02 -2.884530e-04 0.000000e+00
1.912480e-02 5.199694e-04 0.000000e+00
1.951998e-02 1.614763e-03 0.000000e+00
1.877874e-02 2.828949e-03 0.000000e+00
1.692088e-02 3.970555e-03 0.000000e+00
1.417187e-02 4.729520e-03 0.000000e+00
1.132946e-02 4.816011e-03 0.000000e+00
0.000000e+00 0.000000e+00 0.000000e+00
6.686206e-03 -1.418716e-04 0.000000e+00
1.061980e-02 -8.885087e-06 0.000000e+00
1.353912e-02 4.731283e-04 0.000000e+00
1.561092e-02 1.276556e-03 0.000000e+00
1.680736e-02 2.377298e-03 0.000000e+00
1.710679e-02 3.667310e-03 0.000000e+00
1.650470e-02 4.980120e-03 0.000000e+00
1.507908e-02 6.122525e-03 0.000000e+00
1.322519e-02 6.807566e-03 0.000000e+00
1.156288e-02 6.973964e-03 0.000000e+00
0.000000e+00 0.000000e+00 0.000000e+00
5.915896e-03 1.195246e-04 0.000000e+00
9.247630e-03 5.058761e-04 0.000000e+00
1.173173e-02 1.208033e-03 0.000000e+00
1.348391e-02 2.203838e-03 0.000000e+00
1.449270e-02 3.421400e-03 0.000000e+00
1.478132e-02 4.751844e-03 0.000000e+00
1.437145e-02 6.065316e-03 0.000000e+00
1.341869e-02 7.165920e-03 0.000000e+00
1.231422e-02 7.833857e-03 0.000000e+00
1.147492e-02 8.071967e-03 0.000000e+00
0.000000e+00 0.000000e+00 0.000000e+00
4.967109e-03 2.386255e-04 0.000000e+00
7.785424e-03 7.588820e-04 0.000000e+00
9.893788e-03 1.568291e-03 0.000000e+00
1.139614e-02 2.624691e-03 0.000000e+00
1.228234e-02 3.846372e-03 0.000000e+00
1.259502e-02 5.145957e-03 0.000000e+00
1.239360e-02 6.400933e-03 0.000000e+00
1.187037e-02 7.439348e-03 0.000000e+00
1.134851e-02 8.112279e-03 0.000000e+00
1.109171e-02 8.450158e-03 0.000000e+00
0.000000e+00 0.000000e+00 0.000000e+00
3.974674e-03 2.558953e-04 0.000000e+00
6.333571e-03 8.088209e-04 0.000000e+00
8.128965e-03 1.628525e-03 0.000000e+00
9.415003e-03 2.662759e-03 0.000000e+00
1.021439e-02 3.833611e-03 0.000000e+00
1.056604e-02 5.058732e-03 0.000000e+00
1.056267e-02 6.224561e-03 0.000000e+00
1.038841e-02 7.195945e-03 0.000000e+00
1.028574e-02 7.886254e-03 0.000000e+00
1.041005e-02 8.341691e-03 0.000000e+00
0.000000e+00 0.000000e+00 0.000000e+00
3.045210e-03 2.122128e-04 0.000000e+00
4.985822e-03 7.269923e-04 0.000000e+00
6.488025e-03 1.492838e-03 0.000000e+00
7.582634e-03 2.450372e-03 0.000000e+00
8.302475e-03 3.533843e-03 0.000000e+00
8.694533e-03 4.657929e-03 0.000000e+00
8.858385e-03 5.728893e-03 0.000000e+00
8.944145e-03 6.640520e-03 0.000000e+00
9.109231e-03 7.360369e-03 0.000000e+00
9.451112e-03 7.933381e-03 0.000000e+00
0.000000e+00 0.000000e+00 0.000000e+00
2.229012e-03 1.508191e-04 0.000000e+00
3.789489e-03 5.925979e-04 0.000000e+00
5.008123e-03 1.260897e-03 0.000000e+00
5.919487e-03 2.107272e-03 0.000000e+00
6.559508e-03 3.068382e-03 0.000000e+00
6.976154e-03 4.074390e-03 0.000000e+00
7.256291e-03 5.048508e-03 0.000000e+00
7.503616e-03 5.928876e-03 0.000000e+00
7.818822e-03 6.693693e-03 0.000000e+00
8.258840e-03 7.378693e-03 0.000000e+00
0.000000e+00 0.000000e+00 0.000000e+00
1.550754e-03 9.059711e-05 0.000000e+00
2.757183e-03 4.403023e-04 0.000000e+00
3.715011e-03 9.957730e-04 0.000000e+00
4.451326e-03 1.708976e-03 0.000000e+00
4.998938e-03 2.534913e-03 0.000000e+00
5.402980e-03 3.425669e-03 0.000000e+00
5.728439e-03 4.323143e-03 0.000000e+00
6.044181e-03 5.184537e-03 0.000000e+00
6.415854e-03 5.999425e-03 0.000000e+00
6.865137e-03 6.797494e-03 0.000000e+00
0.000000e+00 0.000000e+00 0.000000e+00
1.011667e-03 3.505882e-05 0.000000e+00
1.884463e-03 2.828917e-04 0.000000e+00
2.600590e-03 7.243193e-04 0.000000e+00
3.169155e-03 1.318967e-03 0.000000e+00
3.603254e-03 2.031385e-03 0.000000e+00
3.945820e-03 2.826097e-03 0.000000e+00
4.249791e-03 3.661669e-03 0.000000e+00
4.559008e-03 4.509085e-03 0.000000e+00
4.908875e-03 5.368243e-03 0.000000e+00
5.300969e-03 6.266533e-03 0.000000e+00
0.000000e+00 0.000000e+00 0.000000e+00
6.050444e-04 -1.956015e-05 0.000000e+00
1.160378e-03 1.452671e-04 0.000000e+00
1.640660e-03 4.925964e-04 0.000000e+00
2.030154e-03 1.002255e-03 0.000000e+00
2.333577e-03 1.635483e-03 0.000000e+00
2.576848e-03 2.355382e-03 0.000000e+00
2.808145e-03 3.139606e-03 0.000000e+00
3.051291e-03 3.973414e-03 0.000000e+00
3.316859e-03 4.863509e-03 0.000000e+00
3.603527e-03 5.840387e-03 0.000000e+00
0.000000e+00 0.000000e+00 0.000000e+00
2.834692e-04 -5.415105e-05 0.000000e+00
5.505666e-04 5.908755e-05 0.000000e+00
7.906088e-04 3.483780e-04 0.000000e+00
9.887470e-04 8.017469e-04 0.000000e+00
1.144297e-03 1.383179e-03 0.000000e+00
1.272129e-03 2.055794e-03 0.000000e+00
1.394602e-03 2.801934e-03 0.000000e+00
1.528828e-03 3.623979e-03 0.000000e+00
1.669916e-03 4.532828e-03 0.000000e+00
1.820023e-03 5.554793e-03 0.000000e+00
0.000000e+00 0.000000e+00 0.000000e+00
0.000000e+00 -5.506557e-05 0.000000e+00
0.000000e+00 4.364175e-05 0.000000e+00
0.000000e+00 3.117638e-04 0.000000e+00
0.000000e+00 7.390125e-04 0.000000e+00
0.000000e+00 1.294938e-03 0.000000e+00
0.000000e+00 1.945426e-03 0.000000e+00
0.000000e+00 2.673302e-03 0.000000e+00
0.000000e+00 3.486574e-03 0.000000e+00
0.000000e+00 4.399651e-03 0.000000e+00
0.000000e+00 5.430399e-03 0.000000e+00
</DataArray>
<DataArray Name="shear" type="Float64" NumberOfComponents="1" format="ascii">
2.042912e-02
3.284658e-02
5.941654e-02
8.472352e-02
1.005829e-01
1.059622e-01
1.013491e-01
8.643195e-02
5.874809e-02
3.075986e-02
2.199876e-02
2.328428e-02
3.509472e-02
5.616531e-02
7.541192e-02
9.043434e-02
1.001184e-01
1.022235e-01
9.580151e-02
7.974813e-02
5.518080e-02
3.646053e-02
2.997191e-02
3.883046e-02
5.078884e-02
6.076414e-02
7.326729e-02
8.901368e-02
1.063316e-01
1.225718e-01
1.373885e-01
1.436326e-01
1.416239e-01
3.481774e-02
3.765387e-02
4.021940e-02
4.254793e-02
4.742182e-02
5.533591e-02
6.689048e-02
8.202899e-02
1.008303e-01
1.199633e-01
1.337698e-01
3.652329e-02
3.412630e-02
2.947464e-02
2.728425e-02
2.641474e-02
2.541633e-02
2.364740e-02
2.060159e-02
1.576471e-02
7.364283e-03
6.756607e-04
3.621013e-02
3.143132e-02
2.479837e-02
2.288346e-02
2.207156e-02
2.117038e-02
1.967155e-02
1.711632e-02
1.311698e-02
6.629287e-03
2.113287e-03
3.371252e-02
2.807435e-02
2.131680e-02
1.999462e-02
1.951762e-02
1.901054e-02
1.791066e-02
1.581391e-02
1.214224e-02
6.463807e-03
2.479407e-03
2.980354e-02
2.444945e-02
1.856379e-02
1.787962e-02
1.776764e-02
1.751816e-02
1.673025e-02
1.497122e-02
1.162777e-02
6.756059e-03
3.529487e-03
2.505406e-02
2.064533e-02
1.622145e-02
1.603645e-02
1.620481e-02
1.617727e-02
1.564684e-02
1.414107e-02
1.124835e-02
7.322200e-03
4.893566e-03
2.009744e-02
1.690201e-02
1.405732e-02
1.426467e-02
1.470142e-02
1.489957e-02
1.454785e-02
1.327297e-02
1.094007e-02
8.063955e-03
6.426909e-03
1.543100e-02
1.341506e-02
1.195890e-02
1.251721e-02
1.320125e-02
1.359782e-02
1.341903e-02
1.244405e-02
1.075379e-02
8.881704e-03
7.914316e-03
1.133060e-02
1.031050e-02
9.928781e-03
1.074524e-02
1.162511e-02
1.220983e-02
1.227724e-02
1.173797e-02
1.074783e-02
9.731119e-03
9.280500e-03
7.905909e-03
7.594110e-03
7.985002e-03
9.010500e-03
1.004273e-02
1.084305e-02
1.123841e-02
1.118709e-02
1.085533e-02
1.057431e-02
1.053986e-02
5.164701e-03
5.257167e-03
6.194506e-03
7.481296e-03
8.698071e-03
9.694584e-03
1.038590e-02
1.076406e-02
1.098886e-02
1.132142e-02
1.162143e-02
3.065923e-03
3.364574e-03
4.720170e-03
6.302161e-03
7.721346e-03
8.856365e-03
9.732189e-03
1.043196e-02
1.108769e-02
1.188337e-02
1.243236e-02
1.438180e-03
1.995801e-03
3.740263e-03
5.544900e-03
7.103039e-03
8.328688e-03
9.302245e-03
1.019432e-02
1.113218e-02
1.220402e-02
1.289434e-02
4.934205e-04
1.440862e-03
3.394258e-03
5.268855e-03
6.870259e-03
8.130581e-03
9.143695e-03
1.010021e-02
1.113955e-02
1.229800e-02
1.302730e-02
</DataArray>
<DataArray Name="stress" type="Float64" NumberOfComponents="9" format="ascii">
-1.238063e+05 6.869805e+03 0.000000e+00 6.869805e+03 -2.189331e+05 0.000000e+00 0.000000e+00 0.000000e+00 0.000000e+00
-1.100172e+05 5.102791e+03 0.000000e+00 5.102791e+03 -2.205358e+05 0.000000e+00 0.000000e+00 0.000000e+00 0.000000e+00
-1.145219e+05 3.974354e+03 0.000000e+00 3.974354e+03 -2.261177e+05 0.000000e+00 0.000000e+00 0.000000e+00 0.000000e+00
-1.248119e+05 4.423920e+03 0.000000e+00 4.423920e+03 -2.354335e+05 0.000000e+00 0.000000e+00 0.000000e+00 0.000000e+00
-1.354388e+05 5.364139e+03 0.000000e+00 5.364139e+03 -2.416983e+05 0.000000e+00 0.000000e+00 0.000000e+00 0.000000e+00
-1.419897e+05 7.081579e+03 0.000000e+00 7.081579e+03 -2.521048e+05 0.000000e+00 0.000000e+00 0.000000e+00 0.000000e+00
-1.453041e+05 9.024260e+03 0.000000e+00 9.024260e+03 -2.646538e+05 0.000000e+00 0.000000e+00 0.000000e+00 0.000000e+00
-1.466290e+05 1.099107e+04 0.000000e+00 1.099107e+04 -2.761551e+05 0.000000e+00 0.000000e+00 0.000000e+00 0.000000e+00
-1.494747e+05 6.697128e+03 0.000000e+00 6.697128e+03 -2.864571e+05 0.000000e+00 0.000000e+00 0.000000e+00 0.000000e+00
-1.576578e+05 -1.487343e+03 0.000000e+00 -1.487343e+03 -2.976241e+05 0.000000e+00 0.000000e+00 0.000000e+00 0.000000e+00
-1.614952e+05 -5.426542e+02 0.000000e+00 -5.426542e+02 -2.841400e+05 0.000000e+00 0.000000e+00 0.000000e+00 0.000000e+00
-1.274438e+05 2.027826e+04 0.000000e+00 2.027826e+04 -2.134540e+05 0.000000e+00 0.000000e+00 0.000000e+00 0.000000e+00
-1.114266e+05 1.706951e+04 0.000000e+00 1.706951e+04 -2.094775e+05 0.000000e+00 0.000000e+00 0.000000e+00 0.000000e+00
-1.133376e+05 1.562611e+04 0.000000e+00 1.562611e+04 -2.204280e+05 0.000000e+00 0.000000e+00 0.000000e+00 0.000000e+00
-1.220179e+05 1.438765e+04 0.000000e+00 1.438765e+04 -2.316229e+05 0.000000e+00 0.000000e+00 0.000000e+00 0.000000e+00
-1.323579e+05 1.322726e+04 0.000000e+00 1.322726e+04 -2.422845e+05 0.000000e+00 0.000000e+00 0.000000e+00 0.000000e+00
-1.421866e+05 1.286143e+04 0.000000e+00 1.286143e+04 -2.532270e+05 0.000000e+00 0.000000e+00 0.000000e+00 0.000000e+00
-1.471361e+05 1.345981e+04 0.000000e+00 1.345981e+04 -2.620505e+05 0.000000e+00 0.000000e+00 0.000000e+00 0.000000e+00
-1.472756e+05 1.314509e+04 0.000000e+00 1.314509e+04 -2.704246e+05 0.000000e+00 0.000000e+00 0.000000e+00 0.000000e+00
-1.512508e+05 7.153165e+03 0.000000e+00 7.153165e+03 -2.819507e+05 0.000000e+00 0.000000e+00 0.000000e+00 0.000000e+00
-1.517979e+05 -1.619186e+03 0.000000e+00 -1.619186e+03 -2.873466e+05 0.000000e+00 0.000000e+00 0.000000e+00 0.000000e+00
-1.745863e+05 -8.126548e+03 0.000000e+00 -8.126548e+03 -3.261170e+05 0.000000e+00 0.000000e+00 0.000000e+00 0.000000e+00
-1.276054e+05 3.336384e+04 0.000000e+00 3.336384e+04 -1.864374e+05 0.000000e+00 0.000000e+00 0.000000e+00 0.000000e+00
-1.111596e+05 2.880254e+04 0.000000e+00 2.880254e+04 -1.759508e+05 0.000000e+00 0.000000e+00 0.000000e+00 0.000000e+00
-1.112808e+05 2.803038e+04 0.000000e+00 2.803038e+04 -1.835228e+05 0.000000e+00 0.000000e+00 0.000000e+00 0.000000e+00
-1.194013e+05 2.875957e+04 0.000000e+00 2.875957e+04 -1.933151e+05 0.000000e+00 0.000000e+00 0.000000e+00 0.000000e+00
-1.315682e+05 3.118156e+04 0.000000e+00 3.118156e+04 -2.068316e+05 0.000000e+00 0.000000e+00 0.000000e+00 0.000000e+00
-1.471070e+05 3.345405e+04 0.000000e+00 3.345405e+04 -2.238127e+05 0.000000e+00 0.000000e+00 0.000000e+00 0.000000e+00
-1.630240e+05 3.495381e+04 0.000000e+00 3.495381e+04 -2.421946e+05 0.000000e+00 0.000000e+00 0.000000e+00 0.000000e+00
-1.720317e+05 3.564493e+04 0.000000e+00 3.564493e+04 -2.615891e+05 0.000000e+00 0.000000e+00 0.000000e+00 0.000000e+00
-1.805685e+05 3.024436e+04 0.000000e+00 3.024436e+04 -2.754282e+05 0.000000e+00 0.000000e+00 0.000000e+00 0.000000e+00
-1.846516e+05 1.707603e+04 0.000000e+00 1.707603e+04 -2.831253e+05 0.000000e+00 0.000000e+00 0.000000e+00 0.000000e+00
-2.024566e+05 -4.787088e+03 0.000000e+00 -4.787088e+03 -3.362121e+05 0.000000e+00 0.000000e+00 0.000000e+00 0.000000e+00
-1.166880e+05 3.279384e+04 0.000000e+00 3.279384e+04 -1.407491e+05 0.000000e+00 0.000000e+00 0.000000e+00 0.000000e+00
-1.044792e+05 2.953850e+04 0.000000e+00 2.953850e+04 -1.319270e+05 0.000000e+00 0.000000e+00 0.000000e+00 0.000000e+00
-1.065120e+05 3.039173e+04 0.000000e+00 3.039173e+04 -1.322449e+05 0.000000e+00 0.000000e+00 0.000000e+00 0.000000e+00
-1.156519e+05 3.312432e+04 0.000000e+00 3.312432e+04 -1.329291e+05 0.000000e+00 0.000000e+00 0.000000e+00 0.000000e+00
-1.237039e+05 3.536673e+04 0.000000e+00 3.536673e+04 -1.306505e+05 0.000000e+00 0.000000e+00 0.000000e+00 0.000000e+00
-1.284650e+05 3.551174e+04 0.000000e+00 3.551174e+04 -1.249515e+05 0.000000e+00 0.000000e+00 0.000000e+00 0.000000e+00
-1.268313e+05 3.118280e+04 0.000000e+00 3.118280e+04 -1.140849e+05 0.000000e+00 0.000000e+00 0.000000e+00 0.000000e+00
-1.182149e+05 2.465490e+04 0.000000e+00 2.465490e+04 -1.021665e+05 0.000000e+00 0.000000e+00 0.000000e+00 0.000000e+00
-1.061206e+05 1.731675e+04 0.000000e+00 1.731675e+04 -8.888078e+04 0.000000e+00 0.000000e+00 0.000000e+00 0.000000e+00
-8.562652e+04 8.788405e+03 0.000000e+00 8.788405e+03 -7.835020e+04 0.000000e+00 0.000000e+00 0.000000e+00 0.000000e+00
-4.696603e+04 2.732841e+03 0.000000e+00 2.732841e+03 -5.631075e+04 0.000000e+00 0.000000e+00 0.000000e+00 0.000000e+00
-1.106222e+05 3.080536e+04 0.000000e+00 3.080536e+04 -1.157685e+05 0.000000e+00 0.000000e+00 0.000000e+00 0.000000e+00
-1.055127e+05 2.947695e+04 0.000000e+00 2.947695e+04 -1.125204e+05 0.000000e+00 0.000000e+00 0.000000e+00 0.000000e+00
-1.115583e+05 3.106854e+04 0.000000e+00 3.106854e+04 -1.141840e+05 0.000000e+00 0.000000e+00 0.000000e+00 0.000000e+00
-1.219204e+05 3.221713e+04 0.000000e+00 3.221713e+04 -1.120851e+05 0.000000e+00 0.000000e+00 0.000000e+00 0.000000e+00
-1.307845e+05 3.143909e+04 0.000000e+00 3.143909e+04 -1.066092e+05 0.000000e+00 0.000000e+00 0.000000e+00 0.000000e+00
-1.360217e+05 2.848726e+04 0.000000e+00 2.848726e+04 -9.860181e+04 0.000000e+00 0.000000e+00 0.000000e+00 0.000000e+00
-1.363072e+05 2.336894e+04 0.000000e+00 2.336894e+04 -8.977665e+04 0.000000e+00 0.000000e+00 0.000000e+00 0.000000e+00
-1.319740e+05 1.715496e+04 0.000000e+00 1.715496e+04 -8.114876e+04 0.000000e+00 0.000000e+00 0.000000e+00 0.000000e+00
-1.220283e+05 9.739332e+03 0.000000e+00 9.739332e+03 -7.342252e+04 0.000000e+00 0.000000e+00 0.000000e+00 0.000000e+00
-9.645461e+04 1.295744e+03 0.000000e+00 1.295744e+03 -6.783755e+04 0.000000e+00 0.000000e+00 0.000000e+00 0.000000e+00
-5.416619e+04 -1.747819e+03 0.000000e+00 -1.747819e+03 -5.427527e+04 0.000000e+00 0.000000e+00 0.000000e+00 0.000000e+00
-1.036426e+05 2.998429e+04 0.000000e+00 2.998429e+04 -1.005858e+05 0.000000e+00 0.000000e+00 0.000000e+00 0.000000e+00
-1.045001e+05 2.951694e+04 0.000000e+00 2.951694e+04 -1.001900e+05 0.000000e+00 0.000000e+00 0.000000e+00 0.000000e+00
-1.121522e+05 2.890805e+04 0.000000e+00 2.890805e+04 -9.947092e+04 0.000000e+00 0.000000e+00 0.000000e+00 0.000000e+00
-1.212907e+05 2.726923e+04 0.000000e+00 2.726923e+04 -9.468298e+04 0.000000e+00 0.000000e+00 0.000000e+00 0.000000e+00
-1.282830e+05 2.446896e+04 0.000000e+00 2.446896e+04 -8.927852e+04 0.000000e+00 0.000000e+00 0.000000e+00 0.000000e+00
-1.314716e+05 2.030824e+04 0.000000e+00 2.030824e+04 -8.338698e+04 0.000000e+00 0.000000e+00 0.000000e+00 0.000000e+00
-1.305459e+05 1.503346e+04 0.000000e+00 1.503346e+04 -7.738241e+04 0.000000e+00 0.000000e+00 0.000000e+00 0.000000e+00
-1.249851e+05 8.965505e+03 0.000000e+00 8.965505e+03 -7.108830e+04 0.000000e+00 0.000000e+00 0.000000e+00 0.000000e+00
-1.133958e+05 2.018395e+03 0.000000e+00 2.018395e+03 -6.557842e+04 0.000000e+00 0.000000e+00 0.000000e+00 0.000000e+00
-9.031113e+04 -3.475801e+03 0.000000e+00 -3.475801e+03 -6.171366e+04 0.000000e+00 0.000000e+00 0.000000e+00 0.000000e+00
-5.981186e+04 -4.607758e+03 0.000000e+00 -4.607758e+03 -5.488001e+04 0.000000e+00 0.000000e+00 0.000000e+00 0.000000e+00
-9.582982e+04 2.773947e+04 0.000000e+00 2.773947e+04 -8.845749e+04 0.000000e+00 0.000000e+00 0.000000e+00 0.000000e+00
-1.021423e+05 2.770899e+04 0.000000e+00 2.770899e+04 -9.005641e+04 0.000000e+00 0.000000e+00 0.000000e+00 0.000000e+00
-1.105891e+05 2.491667e+04 0.000000e+00 2.491667e+04 -8.698388e+04 0.000000e+00 0.000000e+00 0.000000e+00 0.000000e+00
-1.189426e+05 2.236962e+04 0.000000e+00 2.236962e+04 -8.293168e+04 0.000000e+00 0.000000e+00 0.000000e+00 0.000000e+00
-1.244353e+05 1.894019e+04 0.000000e+00 1.894019e+04 -7.875392e+04 0.000000e+00 0.000000e+00 0.000000e+00 0.000000e+00
-1.262182e+05 1.439180e+04 0.000000e+00 1.439180e+04 -7.421574e+04 0.000000e+00 0.000000e+00 0.000000e+00 0.000000e+00
-1.244001e+05 9.011964e+03 0.000000e+00 9.011964e+03 -6.957389e+04 0.000000e+00 0.000000e+00 0.000000e+00 0.000000e+00
-1.179644e+05 3.033698e+03 0.000000e+00 3.033698e+03 -6.515282e+04 0.000000e+00 0.000000e+00 0.000000e+00 0.000000e+00
-1.067688e+05 -2.445595e+03 0.000000e+00 -2.445595e+03 -6.201467e+04 0.000000e+00 0.000000e+00 0.000000e+00 0.000000e+00
-8.847694e+04 -4.619390e+03 0.000000e+00 -4.619390e+03 -6.011056e+04 0.000000e+00 0.000000e+00 0.000000e+00 0.000000e+00
-6.843591e+04 -4.085531e+03 0.000000e+00 -4.085531e+03 -5.637879e+04 0.000000e+00 0.000000e+00 0.000000e+00 0.000000e+00
-8.742120e+04 2.456437e+04 0.000000e+00 2.456437e+04 -7.879513e+04 0.000000e+00 0.000000e+00 0.000000e+00 0.000000e+00
-9.845029e+04 2.469739e+04 0.000000e+00 2.469739e+04 -8.203191e+04 0.000000e+00 0.000000e+00 0.000000e+00 0.000000e+00
-1.082796e+05 2.137077e+04 0.000000e+00 2.137077e+04 -7.849826e+04 0.000000e+00 0.000000e+00 0.000000e+00 0.000000e+00
-1.156640e+05 1.836840e+04 0.000000e+00 1.836840e+04 -7.534656e+04 0.000000e+00 0.000000e+00 0.000000e+00 0.000000e+00
-1.198768e+05 1.446370e+04 0.000000e+00 1.446370e+04 -7.180334e+04 0.000000e+00 0.000000e+00 0.000000e+00 0.000000e+00
-1.209338e+05 9.796331e+03 0.000000e+00 9.796331e+03 -6.814171e+04 0.000000e+00 0.000000e+00 0.000000e+00 0.000000e+00
-1.183725e+05 4.565094e+03 0.000000e+00 4.565094e+03 -6.467660e+04 0.000000e+00 0.000000e+00 0.000000e+00 0.000000e+00
-1.119221e+05 -5.931698e+02 0.000000e+00 -5.931698e+02 -6.190431e+04 0.000000e+00 0.000000e+00 0.000000e+00 0.000000e+00
-1.026873e+05 -4.281707e+03 0.000000e+00 -4.281707e+03 -6.029573e+04 0.000000e+00 0.000000e+00 0.000000e+00 0.000000e+00
-8.966267e+04 -4.661438e+03 0.000000e+00 -4.661438e+03 -5.960739e+04 0.000000e+00 0.000000e+00 0.000000e+00 0.000000e+00
-7.665338e+04 -3.533072e+03 0.000000e+00 -3.533072e+03 -5.715236e+04 0.000000e+00 0.000000e+00 0.000000e+00 0.000000e+00
-8.056938e+04 2.172508e+04 0.000000e+00 2.172508e+04 -7.215287e+04 0.000000e+00 0.000000e+00 0.000000e+00 0.000000e+00
-9.478909e+04 2.180751e+04 0.000000e+00 2.180751e+04 -7.589701e+04 0.000000e+00 0.000000e+00 0.000000e+00 0.000000e+00
-1.053705e+05 1.840265e+04 0.000000e+00 1.840265e+04 -7.265648e+04 0.000000e+00 0.000000e+00 0.000000e+00 0.000000e+00
-1.117368e+05 1.497220e+04 0.000000e+00 1.497220e+04 -6.987922e+04 0.000000e+00 0.000000e+00 0.000000e+00 0.000000e+00
-1.152279e+05 1.084257e+04 0.000000e+00 1.084257e+04 -6.695387e+04 0.000000e+00 0.000000e+00 0.000000e+00 0.000000e+00
-1.156970e+05 6.238623e+03 0.000000e+00 6.238623e+03 -6.410291e+04 0.000000e+00 0.000000e+00 0.000000e+00 0.000000e+00
-1.128825e+05 1.535074e+03 0.000000e+00 1.535074e+03 -6.172198e+04 0.000000e+00 0.000000e+00 0.000000e+00 0.000000e+00
-1.074257e+05 -2.533908e+03 0.000000e+00 -2.533908e+03 -6.014509e+04 0.000000e+00 0.000000e+00 0.000000e+00 0.000000e+00
-1.006369e+05 -4.809482e+03 0.000000e+00 -4.809482e+03 -5.944305e+04 0.000000e+00 0.000000e+00 0.000000e+00 0.000000e+00
-9.191145e+04 -4.255549e+03 0.000000e+00 -4.255549e+03 -5.941974e+04 0.000000e+00 0.000000e+00 0.000000e+00 0.000000e+00
-8.378205e+04 -2.843882e+03 0.000000e+00 -2.843882e+03 -5.787925e+04 0.000000e+00 0.000000e+00 0.000000e+00 0.000000e+00
-7.614544e+04 1.978423e+04 0.000000e+00 1.978423e+04 -6.804764e+04 0.000000e+00 0.000000e+00 0.000000e+00 0.000000e+00
-9.136760e+04 1.950571e+04 0.000000e+00 1.950571e+04 -7.127685e+04 0.000000e+00 0.000000e+00 0.000000e+00 0.000000e+00
-1.018703e+05 1.581545e+04 0.000000e+00 1.581545e+04 -6.840159e+04 0.000000e+00 0.000000e+00 0.000000e+00 0.000000e+00
-1.075381e+05 1.204429e+04 0.000000e+00 1.204429e+04 -6.597112e+04 0.000000e+00 0.000000e+00 0.000000e+00 0.000000e+00
-1.105230e+05 7.989405e+03 0.000000e+00 7.989405e+03 -6.362814e+04 0.000000e+00 0.000000e+00 0.000000e+00 0.000000e+00
-1.107425e+05 3.692443e+03 0.000000e+00 3.692443e+03 -6.155067e+04 0.000000e+00 0.000000e+00 0.000000e+00 0.000000e+00
-1.083642e+05 -3.314374e+02 0.000000e+00 -3.314374e+02 -5.999241e+04 0.000000e+00 0.000000e+00 0.000000e+00 0.000000e+00
-1.043514e+05 -3.334898e+03 0.000000e+00 -3.334898e+03 -5.918375e+04 0.000000e+00 0.000000e+00 0.000000e+00 0.000000e+00
-9.983045e+04 -4.658149e+03 0.000000e+00 -4.658149e+03 -5.900432e+04 0.000000e+00 0.000000e+00 0.000000e+00 0.000000e+00
-9.452645e+04 -3.660025e+03 0.000000e+00 -3.660025e+03 -5.933752e+04 0.000000e+00 0.000000e+00 0.000000e+00 0.000000e+00
-8.980339e+04 -2.205062e+03 0.000000e+00 -2.205062e+03 -5.859592e+04 0.000000e+00 0.000000e+00 0.000000e+00 0.000000e+00
-7.325163e+04 1.784645e+04 0.000000e+00 1.784645e+04 -6.490948e+04 0.000000e+00 0.000000e+00 0.000000e+00 0.000000e+00
-8.781483e+04 1.723088e+04 0.000000e+00 1.723088e+04 -6.776177e+04 0.000000e+00 0.000000e+00 0.000000e+00 0.000000e+00
-9.793884e+04 1.344671e+04 0.000000e+00 1.344671e+04 -6.516926e+04 0.000000e+00 0.000000e+00 0.000000e+00 0.000000e+00
-1.033512e+05 9.682000e+03 0.000000e+00 9.682000e+03 -6.322904e+04 0.000000e+00 0.000000e+00 0.000000e+00 0.000000e+00
-1.060244e+05 5.826984e+03 0.000000e+00 5.826984e+03 -6.142264e+04 0.000000e+00 0.000000e+00 0.000000e+00 0.000000e+00
-1.063310e+05 1.968035e+03 0.000000e+00 1.968035e+03 -5.996020e+04 0.000000e+00 0.000000e+00 0.000000e+00 0.000000e+00
-1.047488e+05 -1.352318e+03 0.000000e+00 -1.352318e+03 -5.901548e+04 0.000000e+00 0.000000e+00 0.000000e+00 0.000000e+00
-1.023168e+05 -3.517166e+03 0.000000e+00 -3.517166e+03 -5.870971e+04 0.000000e+00 0.000000e+00 0.000000e+00 0.000000e+00
-9.974696e+04 -4.180819e+03 0.000000e+00 -4.180819e+03 -5.885746e+04 0.000000e+00 0.000000e+00 0.000000e+00 0.000000e+00
-9.709720e+04 -3.011686e+03 0.000000e+00 -3.011686e+03 -5.933091e+04 0.000000e+00 0.000000e+00 0.000000e+00 0.000000e+00
-9.487042e+04 -1.669101e+03 0.000000e+00 -1.669101e+03 -5.917055e+04 0.000000e+00 0.000000e+00 0.000000e+00 0.000000e+00
-7.077599e+04 1.584583e+04 0.000000e+00 1.584583e+04 -6.300820e+04 0.000000e+00 0.000000e+00 0.000000e+00 0.000000e+00
-8.402524e+04 1.508752e+04 0.000000e+00 1.508752e+04 -6.521570e+04 0.000000e+00 0.000000e+00 0.000000e+00 0.000000e+00
-9.400073e+04 1.139458e+04 0.000000e+00 1.139458e+04 -6.287101e+04 0.000000e+00 0.000000e+00 0.000000e+00 0.000000e+00
-9.932457e+04 7.816228e+03 0.000000e+00 7.816228e+03 -6.123627e+04 0.000000e+00 0.000000e+00 0.000000e+00 0.000000e+00
-1.019140e+05 4.208253e+03 0.000000e+00 4.208253e+03 -5.985107e+04 0.000000e+00 0.000000e+00 0.000000e+00 0.000000e+00
-1.025918e+05 8.718546e+02 0.000000e+00 8.718546e+02 -5.886545e+04 0.000000e+00 0.000000e+00 0.000000e+00 0.000000e+00
-1.020414e+05 -1.772326e+03 0.000000e+00 -1.772326e+03 -5.837200e+04 0.000000e+00 0.000000e+00 0.000000e+00 0.000000e+00
-1.010349e+05 -3.301116e+03 0.000000e+00 -3.301116e+03 -5.840064e+04 0.000000e+00 0.000000e+00 0.000000e+00 0.000000e+00
-1.000666e+05 -3.526609e+03 0.000000e+00 -3.526609e+03 -5.881958e+04 0.000000e+00 0.000000e+00 0.000000e+00 0.000000e+00
-9.938437e+04 -2.348236e+03 0.000000e+00 -2.348236e+03 -5.937376e+04 0.000000e+00 0.000000e+00 0.000000e+00 0.000000e+00
-9.896802e+04 -1.160183e+03 0.000000e+00 -1.160183e+03 -5.958823e+04 0.000000e+00 0.000000e+00 0.000000e+00 0.000000e+00
-6.851848e+04 1.358591e+04 0.000000e+00 1.358591e+04 -6.233015e+04 0.000000e+00 0.000000e+00 0.000000e+00 0.000000e+00
-8.047466e+04 1.275921e+04 0.000000e+00 1.275921e+04 -6.373900e+04 0.000000e+00 0.000000e+00 0.000000e+00 0.000000e+00
-9.027859e+04 9.486038e+03 0.000000e+00 9.486038e+03 -6.145111e+04 0.000000e+00 0.000000e+00 0.000000e+00 0.000000e+00
-9.553909e+04 6.246158e+03 0.000000e+00 6.246158e+03 -5.988486e+04 0.000000e+00 0.000000e+00 0.000000e+00 0.000000e+00
-9.835634e+04 3.076666e+03 0.000000e+00 3.076666e+03 -5.871106e+04 0.000000e+00 0.000000e+00 0.000000e+00 0.000000e+00
-9.959029e+04 2.886918e+02 0.000000e+00 2.886918e+02 -5.809039e+04 0.000000e+00 0.000000e+00 0.000000e+00 0.000000e+00
-1.000015e+05 -1.772336e+03 0.000000e+00 -1.772336e+03 -5.797278e+04 0.000000e+00 0.000000e+00 0.000000e+00 0.000000e+00
-1.002359e+05 -2.801045e+03 0.000000e+00 -2.801045e+03 -5.830150e+04 0.000000e+00 0.000000e+00 0.000000e+00 0.000000e+00
-1.006235e+05 -2.768201e+03 0.000000e+00 -2.768201e+03 -5.888370e+04 0.000000e+00 0.000000e+00 0.000000e+00 0.000000e+00
-1.012439e+05 -1.722636e+03 0.000000e+00 -1.722636e+03 -5.947396e+04 0.000000e+00 0.000000e+00 0.000000e+00 0.000000e+00
-1.019615e+05 -7.223484e+02 0.000000e+00 -7.223484e+02 -5.993965e+04 0.000000e+00 0.000000e+00 0.000000e+00 0.000000e+00
-6.731132e+04 1.098250e+04 0.000000e+00 1.098250e+04 -6.260180e+04 0.000000e+00 0.000000e+00 0.000000e+00 0.000000e+00
-7.760392e+04 1.014922e+04 0.000000e+00 1.014922e+04 -6.313273e+04 0.000000e+00 0.000000e+00 0.000000e+00 0.000000e+00
-8.702191e+04 7.538411e+03 0.000000e+00 7.538411e+03 -6.090612e+04 0.000000e+00 0.000000e+00 0.000000e+00 0.000000e+00
-9.224483e+04 4.784005e+03 0.000000e+00 4.784005e+03 -5.928012e+04 0.000000e+00 0.000000e+00 0.000000e+00 0.000000e+00
-9.532470e+04 2.167189e+03 0.000000e+00 2.167189e+03 -5.820447e+04 0.000000e+00 0.000000e+00 0.000000e+00 0.000000e+00
-9.721329e+04 8.600194e+00 0.000000e+00 8.600194e+00 -5.774730e+04 0.000000e+00 0.000000e+00 0.000000e+00 0.000000e+00
-9.854318e+04 -1.464149e+03 0.000000e+00 -1.464149e+03 -5.787188e+04 0.000000e+00 0.000000e+00 0.000000e+00 0.000000e+00
-9.981184e+04 -2.118622e+03 0.000000e+00 -2.118622e+03 -5.837482e+04 0.000000e+00 0.000000e+00 0.000000e+00 0.000000e+00
-1.012095e+05 -1.976973e+03 0.000000e+00 -1.976973e+03 -5.901717e+04 0.000000e+00 0.000000e+00 0.000000e+00 0.000000e+00
-1.026901e+05 -1.158255e+03 0.000000e+00 -1.158255e+03 -5.959183e+04 0.000000e+00 0.000000e+00 0.000000e+00 0.000000e+00
-1.040814e+05 -4.098633e+02 0.000000e+00 -4.098633e+02 -6.020897e+04 0.000000e+00 0.000000e+00 0.000000e+00 0.000000e+00
-6.668332e+04 7.869658e+03 0.000000e+00 7.869658e+03 -6.373000e+04 0.000000e+00 0.000000e+00 0.000000e+00 0.000000e+00
-7.551509e+04 7.193408e+03 0.000000e+00 7.193408e+03 -6.341415e+04 0.000000e+00 0.000000e+00 0.000000e+00 0.000000e+00
-8.438275e+04 5.299258e+03 0.000000e+00 5.299258e+03 -6.095691e+04 0.000000e+00 0.000000e+00 0.000000e+00 0.000000e+00
-8.961119e+04 3.237775e+03 0.000000e+00 3.237775e+03 -5.916714e+04 0.000000e+00 0.000000e+00 0.000000e+00 0.000000e+00
-9.298242e+04 1.372235e+03 0.000000e+00 1.372235e+03 -5.815279e+04 0.000000e+00 0.000000e+00 0.000000e+00 0.000000e+00
-9.550536e+04 -8.467635e+01 0.000000e+00 -8.467635e+01 -5.778707e+04 0.000000e+00 0.000000e+00 0.000000e+00 0.000000e+00
-9.763152e+04 -1.000890e+03 0.000000e+00 -1.000890e+03 -5.797138e+04 0.000000e+00 0.000000e+00 0.000000e+00 0.000000e+00
-9.963166e+04 -1.369241e+03 0.000000e+00 -1.369241e+03 -5.853800e+04 0.000000e+00 0.000000e+00 0.000000e+00 0.000000e+00
-1.017087e+05 -1.235944e+03 0.000000e+00 -1.235944e+03 -5.918187e+04 0.000000e+00 0.000000e+00 0.000000e+00 0.000000e+00
-1.036716e+05 -7.030809e+02 0.000000e+00 -7.030809e+02 -5.970996e+04 0.000000e+00 0.000000e+00 0.000000e+00 0.000000e+00
-1.054823e+05 -2.310034e+02 0.000000e+00 -2.310034e+02 -6.040364e+04 0.000000e+00 0.000000e+00 0.000000e+00 0.000000e+00
-6.626633e+04 4.095219e+03 0.000000e+00 4.095219e+03 -6.471072e+04 0.000000e+00 0.000000e+00 0.000000e+00 0.000000e+00
-7.419064e+04 3.724883e+03 0.000000e+00 3.724883e+03 -6.395029e+04 0.000000e+00 0.000000e+00 0.000000e+00 0.000000e+00
-8.259259e+04 2.711814e+03 0.000000e+00 2.711814e+03 -6.117929e+04 0.000000e+00 0.000000e+00 0.000000e+00 0.000000e+00
-8.789041e+04 1.620598e+03 0.000000e+00 1.620598e+03 -5.928012e+04 0.000000e+00 0.000000e+00 0.000000e+00 0.000000e+00
-9.153345e+04 6.654650e+02 0.000000e+00 6.654650e+02 -5.827629e+04 0.000000e+00 0.000000e+00 0.000000e+00 0.000000e+00
-9.448991e+04 -6.719772e+01 0.000000e+00 -6.719772e+01 -5.798250e+04 0.000000e+00 0.000000e+00 0.000000e+00 0.000000e+00
-9.712485e+04 -5.002160e+02 0.000000e+00 -5.002160e+02 -5.819618e+04 0.000000e+00 0.000000e+00 0.000000e+00 0.000000e+00
-9.958166e+04 -6.491517e+02 0.000000e+00 -6.491517e+02 -5.873621e+04 0.000000e+00 0.000000e+00 0.000000e+00 0.000000e+00
-1.020095e+05 -5.729894e+02 0.000000e+00 -5.729894e+02 -5.931716e+04 0.000000e+00 0.000000e+00 0.000000e+00 0.000000e+00
-1.042176e+05 -3.360291e+02 0.000000e+00 -3.360291e+02 -5.976500e+04 0.000000e+00 0.000000e+00 0.000000e+00 0.000000e+00
-1.063452e+05 -1.110732e+02 0.000000e+00 -1.110732e+02 -6.047539e+04 0.000000e+00 0.000000e+00 0.000000e+00 0.000000e+00
-6.604116e+04 1.172845e+03 0.000000e+00 1.172845e+03 -6.483461e+04 0.000000e+00 0.000000e+00 0.000000e+00 0.000000e+00
-7.369652e+04 1.088005e+03 0.000000e+00 1.088005e+03 -6.402025e+04 0.000000e+00 0.000000e+00 0.000000e+00 0.000000e+00
-8.198615e+04 7.234572e+02 0.000000e+00 7.234572e+02 -6.125669e+04 0.000000e+00 0.000000e+00 0.000000e+00 0.000000e+00
-8.733030e+04 3.075798e+02 0.000000e+00 3.075798e+02 -5.938141e+04 0.000000e+00 0.000000e+00 0.000000e+00 0.000000e+00
-9.109598e+04 -5.839598e+01 0.000000e+00 -5.839598e+01 -5.840936e+04 0.000000e+00 0.000000e+00 0.000000e+00 0.000000e+00
-9.420279e+04 -3.354778e+02 0.000000e+00 -3.354778e+02 -5.813601e+04 0.000000e+00 0.000000e+00 0.000000e+00 0.000000e+00
-9.701130e+04 -5.014561e+02 0.000000e+00 -5.014561e+02 -5.836893e+04 0.000000e+00 0.000000e+00 0.000000e+00 0.000000e+00
-9.961680e+04 -5.572013e+02 0.000000e+00 -5.572013e+02 -5.886130e+04 0.000000e+00 0.000000e+00 0.000000e+00 0.000000e+00
-1.021372e+05 -5.242482e+02 0.000000e+00 -5.242482e+02 -5.938902e+04 0.000000e+00 0.000000e+00 0.000000e+00 0.000000e+00
-1.044053e+05 -4.082089e+02 0.000000e+00 -4.082089e+02 -5.978652e+04 0.000000e+00 0.000000e+00 0.000000e+00 0.000000e+00
-1.066613e+05 -2.935391e+02 0.000000e+00 -2.935391e+02 -6.050054e+04 0.000000e+00 0.000000e+00 0.000000e+00 0.000000e+00
</DataArray>
<DataArray Name="vol_eps" type="Float64" NumberOfComponents="1" format="ascii">
-1.393379e-02
-1.170020e-02
-9.234639e-03
-7.837145e-03
-7.316383e-03
-7.939629e-03
-9.404243e-03
-1.199852e-02
-1.588745e-02
-2.020645e-02
-2.035805e-02
-1.361179e-02
-1.087040e-02
-9.052621e-03
-8.039447e-03
-7.759803e-03
-8.174047e-03
-8.832484e-03
-1.032557e-02
-1.307099e-02
-1.602319e-02
-2.231893e-02
-1.137220e-02
-8.277635e-03
-7.260714e-03
-7.286172e-03
-7.574499e-03
-8.352065e-03
-9.213653e-03
-9.953370e-03
-1.016876e-02
-1.030486e-02
-1.460642e-02
-7.176588e-03
-5.233120e-03
-5.096508e-03
-5.562928e-03
-5.401289e-03
-4.420302e-03
-2.259837e-03
5.285676e-04
4.076658e-03
8.485818e-03
1.406689e-02
-4.860463e-03
-4.454460e-03
-5.428799e-03
-6.204368e-03
-6.510746e-03
-6.368614e-03
-5.890806e-03
-5.233564e-03
-4.434185e-03
-2.696523e-03
1.111291e-03
-3.023597e-03
-3.589761e-03
-4.844872e-03
-5.353725e-03
-5.500293e-03
-5.327137e-03
-4.906654e-03
-4.294128e-03
-3.515488e-03
-1.983093e-03
4.690747e-04
-1.731506e-03
-2.963693e-03
-4.160097e-03
-4.580006e-03
-4.637579e-03
-4.414217e-03
-4.034254e-03
-3.529015e-03
-2.913334e-03
-1.792866e-03
-2.721547e-04
-8.030660e-04
-2.466148e-03
-3.608234e-03
-3.933967e-03
-3.915918e-03
-3.721073e-03
-3.395420e-03
-2.994042e-03
-2.566944e-03
-1.852793e-03
-8.616401e-04
-3.332833e-04
-2.157862e-03
-3.162409e-03
-3.383820e-03
-3.370322e-03
-3.210084e-03
-2.946771e-03
-2.656939e-03
-2.400048e-03
-1.994988e-03
-1.380650e-03
-1.958174e-04
-1.926074e-03
-2.769046e-03
-2.946447e-03
-2.957921e-03
-2.842956e-03
-2.650751e-03
-2.466607e-03
-2.342070e-03
-2.156062e-03
-1.821998e-03
-2.465411e-04
-1.738311e-03
-2.419004e-03
-2.611688e-03
-2.651014e-03
-2.583923e-03
-2.459600e-03
-2.365874e-03
-2.342203e-03
-2.300975e-03
-2.166707e-03
-3.514973e-04
-1.568887e-03
-2.132708e-03
-2.341910e-03
-2.412662e-03
-2.391757e-03
-2.332890e-03
-2.310968e-03
-2.357643e-03
-2.414078e-03
-2.417233e-03
-4.444737e-04
-1.412560e-03
-1.914063e-03
-2.127628e-03
-2.218300e-03
-2.236781e-03
-2.240375e-03
-2.288518e-03
-2.388104e-03
-2.495684e-03
-2.581156e-03
-5.241816e-04
-1.278183e-03
-1.749934e-03
-1.959000e-03
-2.062080e-03
-2.121635e-03
-2.190550e-03
-2.295182e-03
-2.428900e-03
-2.557073e-03
-2.684744e-03
-6.203779e-04
-1.189068e-03
-1.611569e-03
-1.822029e-03
-1.944318e-03
-2.053400e-03
-2.174305e-03
-2.316811e-03
-2.469947e-03
-2.595358e-03
-2.737044e-03
-6.908958e-04
-1.149793e-03
-1.517209e-03
-1.735477e-03
-1.881779e-03
-2.024389e-03
-2.178065e-03
-2.340876e-03
-2.497653e-03
-2.610145e-03
-2.757720e-03
-6.938293e-04
-1.126639e-03
-1.483531e-03
-1.712516e-03
-1.874373e-03
-2.026699e-03
-2.191994e-03
-2.357826e-03
-2.512068e-03
-2.618433e-03
-2.770789e-03
</DataArray>
</PointData>
</Piece>
</UnstructuredGrid>
</VTKFile>
