<?xml version="1.0"?>
<VTKFile type="UnstructuredGrid" version="0.1">
<UnstructuredGrid>
<FieldData>
<DataArray Name="TIME" type="Float64" format="ascii" NumberOfTuples="1">
0.000000e+00
</DataArray>
</FieldData>
<FieldData>
<DataArray Name="CYCLE" type="Int32" format="ascii" NumberOfTuples="1">
0
</DataArray>
</FieldData>
<Piece NumberOfPoints="187" NumberOfCells="160">
<Points>
<DataArray NumberOfComponents="3" type="Float64" format="ascii">
0.000000e+00 0.000000e+00 0.000000e+00
0.000000e+00 1.965872e-01 0.000000e+00
0.000000e+00 3.907555e-01 0.000000e+00
0.000000e+00 5.818374e-01 0.000000e+00
0.000000e+00 7.706790e-01 0.000000e+00
0.000000e+00 9.589015e-01 0.000000e+00
0.000000e+00 1.147294e+00 0.000000e+00
0.000000e+00 1.336554e+00 0.000000e+00
0.000000e+00 1.528032e+00 0.000000e+00
0.000000e+00 1.723094e+00 0.000000e+00
0.000000e+00 1.919000e+00 0.000000e+00
2.250000e-01 0.000000e+00 0.000000e+00
2.272712e-01 1.964036e-01 0.000000e+00
2.312657e-01 3.909214e-01 0.000000e+00
2.346693e-01 5.832569e-01 0.000000e+00
2.366260e-01 7.739568e-01 0.000000e+00
2.369273e-01 9.633774e-01 0.000000e+00
2.361103e-01 1.152421e+00 0.000000e+00
2.342029e-01 1.341717e+00 0.000000e+00
2.301741e-01 1.531701e+00 0.000000e+00
2.255932e-01 1.723523e+00 0.000000e+00
2.250000e-01 1.919000e+00 0.000000e+00
4.500000e-01 0.000000e+00 0.000000e+00
4.549428e-01 1.968248e-01 0.000000e+00
4.607908e-01 3.926606e-01 0.000000e+00
4.658433e-01 5.879609e-01 0.000000e+00
4.693083e-01 7.825148e-01 0.000000e+00
4.711784e-01 9.758409e-01 0.000000e+00
4.710957e-01 1.167378e+00 0.000000e+00
4.698830e-01 1.357349e+00 0.000000e+00
4.657292e-01 1.545655e+00 0.000000e+00
4.599062e-01 1.732309e+00 0.000000e+00
4.500000e-01 1.919000e+00 0.000000e+00
6.750000e-01 0.000000e+00 0.000000e+00
6.819565e-01 1.982717e-01 0.000000e+00
6.882253e-01 3.963093e-01 0.000000e+00
6.931200e-01 5.946837e-01 0.000000e+00
6.967845e-01 7.935366e-01 0.000000e+00
6.992335e-01 9.928541e-01 0.000000e+00
7.002017e-01 1.192768e+00 0.000000e+00
6.997420e-01 1.393143e+00 0.000000e+00
6.973039e-01 1.593813e+00 0.000000e+00
6.927012e-01 1.794306e+00 0.000000e+00
6.848723e-01 1.993704e+00 0.000000e+00
9.000000e-01 0.000000e+00 0.000000e+00
9.076205e-01 1.989702e-01 0.000000e+00
9.134288e-01 3.980275e-01 0.000000e+00
9.175850e-01 5.974506e-01 0.000000e+00
9.206318e-01 7.973010e-01 0.000000e+00
9.225182e-01 9.976133e-01 0.000000e+00
9.231205e-01 1.198308e+00 0.000000e+00
9.223258e-01 1.399326e+00 0.000000e+00
9.200067e-01 1.600429e+00 0.000000e+00
9.160875e-01 1.801299e+00 0.000000e+00
9.110180e-01 2.001416e+00 0.000000e+00
1.125000e+00 0.000000e+00 0.000000e+00
1.132667e+00 1.995085e-01 0.000000e+00
1.137682e+00 3.992209e-01 0.000000e+00
1.141242e+00 5.993451e-01 0.000000e+00
1.143804e+00 7.998567e-01 0.000000e+00
1.145294e+00 1.000711e+00 0.000000e+00
1.145660e+00 1.201862e+00 0.000000e+00
1.144838e+00 1.403165e+00 0.000000e+00
1.142821e+00 1.604407e+00 0.000000e+00
1.139842e+00 1.805221e+00 0.000000e+00
1.136796e+00 2.005291e+00 0.000000e+00
1.350000e+00 0.000000e+00 0.000000e+00
1.357164e+00 1.998942e-01 0.000000e+00
1.361448e+00 4.000784e-01 0.000000e+00
1.364507e+00 6.006137e-01 0.000000e+00
1.366658e+00 8.014843e-01 0.000000e+00
1.367875e+00 1.002667e+00 0.000000e+00
1.368141e+00 1.204047e+00 0.000000e+00
1.367447e+00 1.405465e+00 0.000000e+00
1.365881e+00 1.606696e+00 0.000000e+00
1.363869e+00 1.807427e+00 0.000000e+00
1.362091e+00 2.007594e+00 0.000000e+00
1.575000e+00 0.000000e+00 0.000000e+00
1.581347e+00 2.001560e-01 0.000000e+00
1.584968e+00 4.006011e-01 0.000000e+00
1.587592e+00 6.013783e-01 0.000000e+00
1.589406e+00 8.024634e-01 0.000000e+00
1.590436e+00 1.003784e+00 0.000000e+00
1.590697e+00 1.205225e+00 0.000000e+00
1.590209e+00 1.406639e+00 0.000000e+00
1.589145e+00 1.607817e+00 0.000000e+00
1.587933e+00 1.808525e+00 0.000000e+00
1.587032e+00 2.008769e+00 0.000000e+00
1.800000e+00 0.000000e+00 0.000000e+00
1.805351e+00 2.002690e-01 0.000000e+00
1.808388e+00 4.008590e-01 0.000000e+00
1.810632e+00 6.017691e-01 0.000000e+00
1.812189e+00 8.029236e-01 0.000000e+00
1.813095e+00 1.004245e+00 0.000000e+00
1.813392e+00 1.205655e+00 0.000000e+00
1.813135e+00 1.407009e+00 0.000000e+00
1.812530e+00 1.608126e+00 0.000000e+00
1.811943e+00 1.808836e+00 0.000000e+00
1.811656e+00 2.009184e+00 0.000000e+00
2.025000e+00 0.000000e+00 0.000000e+00
2.029299e+00 2.003051e-01 0.000000e+00
2.031822e+00 4.009261e-01 0.000000e+00
2.033739e+00 6.018428e-01 0.000000e+00
2.035088e+00 8.029711e-01 0.000000e+00
2.035910e+00 1.004237e+00 0.000000e+00
2.036252e+00 1.205564e+00 0.000000e+00
2.036208e+00 1.406826e+00 0.000000e+00
2.035983e+00 1.607879e+00 0.000000e+00
2.035848e+00 1.808613e+00 0.000000e+00
2.035966e+00 2.009084e+00 0.000000e+00
2.250000e+00 0.000000e+00 0.000000e+00
2.253297e+00 2.002541e-01 0.000000e+00
2.255368e+00 4.008316e-01 0.000000e+00
2.256979e+00 6.016880e-01 0.000000e+00
2.258140e+00 8.027409e-01 0.000000e+00
2.258887e+00 1.003919e+00 0.000000e+00
2.259275e+00 1.205139e+00 0.000000e+00
2.259412e+00 1.406302e+00 0.000000e+00
2.259467e+00 1.607296e+00 0.000000e+00
2.259631e+00 1.808065e+00 0.000000e+00
2.259984e+00 2.008663e+00 0.000000e+00
2.475000e+00 0.000000e+00 0.000000e+00
2.477413e+00 2.001820e-01 0.000000e+00
2.479077e+00 4.006749e-01 0.000000e+00
2.480385e+00 6.014194e-01 0.000000e+00
2.481364e+00 8.023560e-01 0.000000e+00
2.482037e+00 1.003415e+00 0.000000e+00
2.482454e+00 1.204517e+00 0.000000e+00
2.482716e+00 1.405585e+00 0.000000e+00
2.482955e+00 1.606536e+00 0.000000e+00
2.483287e+00 1.807355e+00 0.000000e+00
2.483750e+00 2.008084e+00 0.000000e+00
2.700000e+00 0.000000e+00 0.000000e+00
2.701677e+00 2.001093e-01 0.000000e+00
2.702965e+00 4.005018e-01 0.000000e+00
2.703990e+00 6.011192e-01 0.000000e+00
2.704780e+00 8.019165e-01 0.000000e+00
2.705360e+00 1.002839e+00 0.000000e+00
2.705775e+00 1.203823e+00 0.000000e+00
2.706098e+00 1.404803e+00 0.000000e+00
2.706423e+00 1.605732e+00 0.000000e+00
2.706814e+00 1.806611e+00 0.000000e+00
2.707287e+00 2.007474e+00 0.000000e+00
2.925000e+00 0.000000e+00 0.000000e+00
2.926090e+00 2.000484e-01 0.000000e+00
2.927025e+00 4.003315e-01 0.000000e+00
2.927790e+00 6.008265e-01 0.000000e+00
2.928394e+00 8.014886e-01 0.000000e+00
2.928856e+00 1.002284e+00 0.000000e+00
2.929219e+00 1.203166e+00 0.000000e+00
2.929534e+00 1.404080e+00 0.000000e+00
2.929857e+00 1.604999e+00 0.000000e+00
2.930219e+00 1.805933e+00 0.000000e+00
2.930626e+00 2.006916e+00 0.000000e+00
3.150000e+00 0.000000e+00 0.000000e+00
3.150647e+00 1.999903e-01 0.000000e+00
3.151243e+00 4.001803e-01 0.000000e+00
3.151756e+00 6.005726e-01 0.000000e+00
3.152171e+00 8.011389e-01 0.000000e+00
3.152491e+00 1.001839e+00 0.000000e+00
3.152755e+00 1.202640e+00 0.000000e+00
3.153003e+00 1.403505e+00 0.000000e+00
3.153258e+00 1.604419e+00 0.000000e+00
3.153527e+00 1.805396e+00 0.000000e+00
3.153820e+00 2.006466e+00 0.000000e+00
3.375000e+00 0.000000e+00 0.000000e+00
3.375301e+00 1.999508e-01 0.000000e+00
3.375588e+00 4.000840e-01 0.000000e+00
3.375845e+00 6.004090e-01 0.000000e+00
3.376057e+00 8.009137e-01 0.000000e+00
3.376220e+00 1.001556e+00 0.000000e+00
3.376358e+00 1.202300e+00 0.000000e+00
3.376495e+00 1.403130e+00 0.000000e+00
3.376634e+00 1.604041e+00 0.000000e+00
3.376776e+00 1.805046e+00 0.000000e+00
3.376929e+00 2.006159e+00 0.000000e+00
3.600000e+00 0.000000e+00 0.000000e+00
3.600000e+00 1.999490e-01 0.000000e+00
3.600000e+00 4.000641e-01 0.000000e+00
3.600000e+00 6.003635e-01 0.000000e+00
3.600000e+00 8.008395e-01 0.000000e+00
3.600000e+00 1.001454e+00 0.000000e+00
3.600000e+00 1.202171e+00 0.000000e+00
3.600000e+00 1.402984e+00 0.000000e+00
3.600000e+00 1.603891e+00 0.000000e+00
3.600000e+00 1.804902e+00 0.000000e+00
3.600000e+00 2.006025e+00 0.000000e+00
</DataArray>
</Points>
<Cells>
<DataArray Name="connectivity" type="Int32" format="ascii">
0 11 12 1
1 12 13 2
2 13 14 3
3 14 15 4
4 15 16 5
5 16 17 6
6 17 18 7
7 18 19 8
8 19 20 9
9 20 21 10
11 22 23 12
12 23 24 13
13 24 25 14
14 25 26 15
15 26 27 16
16 27 28 17
17 28 29 18
18 29 30 19
19 30 31 20
20 31 32 21
22 33 34 23
23 34 35 24
24 35 36 25
25 36 37 26
26 37 38 27
27 38 39 28
28 39 40 29
29 40 41 30
30 41 42 31
31 42 43 32
33 44 45 34
34 45 46 35
35 46 47 36
36 47 48 37
37 48 49 38
38 49 50 39
39 50 51 40
40 51 52 41
41 52 53 42
42 53 54 43
44 55 56 45
45 56 57 46
46 57 58 47
47 58 59 48
48 59 60 49
49 60 61 50
50 61 62 51
51 62 63 52
52 63 64 53
53 64 65 54
55 66 67 56
56 67 68 57
57 68 69 58
58 69 70 59
59 70 71 60
60 71 72 61
61 72 73 62
62 73 74 63
63 74 75 64
64 75 76 65
66 77 78 67
67 78 79 68
68 79 80 69
69 80 81 70
70 81 82 71
71 82 83 72
72 83 84 73
73 84 85 74
74 85 86 75
75 86 87 76
77 88 89 78
78 89 90 79
79 90 91 80
80 91 92 81
81 92 93 82
82 93 94 83
83 94 95 84
84 95 96 85
85 96 97 86
86 97 98 87
88 99 100 89
89 100 101 90
90 101 102 91
91 102 103 92
92 103 104 93
93 104 105 94
94 105 106 95
95 106 107 96
96 107 108 97
97 108 109 98
99 110 111 100
100 111 112 101
101 112 113 102
102 113 114 103
103 114 115 104
104 115 116 105
105 116 117 106
106 117 118 107
107 118 119 108
108 119 120 109
110 121 122 111
111 122 123 112
112 123 124 113
113 124 125 114
114 125 126 115
115 126 127 116
116 127 128 117
117 128 129 118
118 129 130 119
119 130 131 120
121 132 133 122
122 133 134 123
123 134 135 124
124 135 136 125
125 136 137 126
126 137 138 127
127 138 139 128
128 139 140 129
129 140 141 130
130 141 142 131
132 143 144 133
133 144 145 134
134 145 146 135
135 146 147 136
136 147 148 137
137 148 149 138
138 149 150 139
139 150 151 140
140 151 152 141
141 152 153 142
143 154 155 144
144 155 156 145
145 156 157 146
146 157 158 147
147 158 159 148
148 159 160 149
149 160 161 150
150 161 162 151
151 162 163 152
152 163 164 153
154 165 166 155
155 166 167 156
156 167 168 157
157 168 169 158
158 169 170 159
159 170 171 160
160 171 172 161
161 172 173 162
162 173 174 163
163 174 175 164
165 176 177 166
166 177 178 167
167 178 179 168
168 179 180 169
169 180 181 170
170 181 182 171
171 182 183 172
172 183 184 173
173 184 185 174
174 185 186 175
</DataArray>
<DataArray Name="offsets" type="Int32" format="ascii">
4
8
12
16
20
24
28
32
36
40
44
48
52
56
60
64
68
72
76
80
84
88
92
96
100
104
108
112
116
120
124
128
132
136
140
144
148
152
156
160
164
168
172
176
180
184
188
192
196
200
204
208
212
216
220
224
228
232
236
240
244
248
252
256
260
264
268
272
276
280
284
288
292
296
300
304
308
312
316
320
324
328
332
336
340
344
348
352
356
360
364
368
372
376
380
384
388
392
396
400
404
408
412
416
420
424
428
432
436
440
444
448
452
456
460
464
468
472
476
480
484
488
492
496
500
504
508
512
516
520
524
528
532
536
540
544
548
552
556
560
564
568
572
576
580
584
588
592
596
600
604
608
612
616
620
624
628
632
636
640
</DataArray>
<DataArray Name="types" type="UInt8" format="ascii">
9
9
9
9
9
9
9
9
9
9
9
9
9
9
9
9
9
9
9
9
9
9
9
9
9
9
9
9
9
9
9
9
9
9
9
9
9
9
9
9
9
9
9
9
9
9
9
9
9
9
9
9
9
9
9
9
9
9
9
9
9
9
9
9
9
9
9
9
9
9
9
9
9
9
9
9
9
9
9
9
9
9
9
9
9
9
9
9
9
9
9
9
9
9
9
9
9
9
9
9
9
9
9
9
9
9
9
9
9
9
9
9
9
9
9
9
9
9
9
9
9
9
9
9
9
9
9
9
9
9
9
9
9
9
9
9
9
9
9
9
9
9
9
9
9
9
9
9
9
9
9
9
9
9
9
9
9
9
9
9
</DataArray>
</Cells>
<PointData>
<DataArray Name="disp" type="Float64" NumberOfComponents="3" format="ascii">
0.000000e+00 0.000000e+00 0.000000e+00
0.000000e+00 -3.412819e-03 0.000000e+00
0.000000e+00 -9.244464e-03 0.000000e+00
0.000000e+00 -1.816263e-02 0.000000e+00
0.000000e+00 -2.932102e-02 0.000000e+00
0.000000e+00 -4.109848e-02 0.000000e+00
0.000000e+00 -5.270585e-02 0.000000e+00
0.000000e+00 -6.344641e-02 0.000000e+00
0.000000e+00 -7.196791e-02 0.000000e+00
0.000000e+00 -7.690594e-02 0.000000e+00
0.000000e+00 -8.100000e-02 0.000000e+00
0.000000e+00 0.000000e+00 0.000000e+00
2.271191e-03 -3.596424e-03 0.000000e+00
6.265695e-03 -9.078612e-03 0.000000e+00
9.669246e-03 -1.674307e-02 0.000000e+00
1.162604e-02 -2.604321e-02 0.000000e+00
1.192735e-02 -3.662259e-02 0.000000e+00
1.111030e-02 -4.757848e-02 0.000000e+00
9.202922e-03 -5.828341e-02 0.000000e+00
5.174074e-03 -6.829931e-02 0.000000e+00
5.931780e-04 -7.647714e-02 0.000000e+00
0.000000e+00 -8.100000e-02 0.000000e+00
0.000000e+00 0.000000e+00 0.000000e+00
4.942812e-03 -3.175237e-03 0.000000e+00
1.079078e-02 -7.339419e-03 0.000000e+00
1.584332e-02 -1.203911e-02 0.000000e+00
1.930833e-02 -1.748528e-02 0.000000e+00
2.117841e-02 -2.415914e-02 0.000000e+00
2.109574e-02 -3.262212e-02 0.000000e+00
1.988297e-02 -4.265114e-02 0.000000e+00
1.572924e-02 -5.434475e-02 0.000000e+00
9.906156e-03 -6.769104e-02 0.000000e+00
0.000000e+00 -8.100000e-02 0.000000e+00
0.000000e+00 0.000000e+00 0.000000e+00
6.956469e-03 -1.728299e-03 0.000000e+00
1.322533e-02 -3.690722e-03 0.000000e+00
1.812001e-02 -5.316301e-03 0.000000e+00
2.178450e-02 -6.463385e-03 0.000000e+00
2.423352e-02 -7.145966e-03 0.000000e+00
2.520172e-02 -7.231680e-03 0.000000e+00
2.474193e-02 -6.856903e-03 0.000000e+00
2.230387e-02 -6.187315e-03 0.000000e+00
1.770123e-02 -5.694358e-03 0.000000e+00
9.872288e-03 -6.295916e-03 0.000000e+00
0.000000e+00 0.000000e+00 0.000000e+00
7.620492e-03 -1.029763e-03 0.000000e+00
1.342885e-02 -1.972520e-03 0.000000e+00
1.758503e-02 -2.549419e-03 0.000000e+00
2.063183e-02 -2.698986e-03 0.000000e+00
2.251821e-02 -2.386728e-03 0.000000e+00
2.312049e-02 -1.692298e-03 0.000000e+00
2.232581e-02 -6.736059e-04 0.000000e+00
2.000671e-02 4.288385e-04 0.000000e+00
1.608749e-02 1.299343e-03 0.000000e+00
1.101798e-02 1.415959e-03 0.000000e+00
0.000000e+00 0.000000e+00 0.000000e+00
7.666936e-03 -4.914760e-04 0.000000e+00
1.268234e-02 -7.790981e-04 0.000000e+00
1.624201e-02 -6.548401e-04 0.000000e+00
1.880361e-02 -1.432786e-04 0.000000e+00
2.029418e-02 7.113584e-04 0.000000e+00
2.066039e-02 1.862020e-03 0.000000e+00
1.983784e-02 3.165228e-03 0.000000e+00
1.782145e-02 4.407163e-03 0.000000e+00
1.484158e-02 5.221256e-03 0.000000e+00
1.179619e-02 5.291035e-03 0.000000e+00
0.000000e+00 0.000000e+00 0.000000e+00
7.163903e-03 -1.058343e-04 0.000000e+00
1.144813e-02 7.836345e-05 0.000000e+00
1.450719e-02 6.137409e-04 0.000000e+00
1.665771e-02 1.484330e-03 0.000000e+00
1.787469e-02 2.667315e-03 0.000000e+00
1.814057e-02 4.047464e-03 0.000000e+00
1.744718e-02 5.465277e-03 0.000000e+00
1.588140e-02 6.695725e-03 0.000000e+00
1.386863e-02 7.426939e-03 0.000000e+00
1.209125e-02 7.594366e-03 0.000000e+00
0.000000e+00 0.000000e+00 0.000000e+00
6.346911e-03 1.559528e-04 0.000000e+00
9.967651e-03 6.010956e-04 0.000000e+00
1.259183e-02 1.378336e-03 0.000000e+00
1.440642e-02 2.463387e-03 0.000000e+00
1.543557e-02 3.784346e-03 0.000000e+00
1.569713e-02 5.225033e-03 0.000000e+00
1.520863e-02 6.639302e-03 0.000000e+00
1.414514e-02 7.816917e-03 0.000000e+00
1.293321e-02 8.525219e-03 0.000000e+00
1.203206e-02 8.768649e-03 0.000000e+00
0.000000e+00 0.000000e+00 0.000000e+00
5.351044e-03 2.689918e-04 0.000000e+00
8.388449e-03 8.590361e-04 0.000000e+00
1.063157e-02 1.769165e-03 0.000000e+00
1.218930e-02 2.923545e-03 0.000000e+00
1.309524e-02 4.244765e-03 0.000000e+00
1.339185e-02 5.654927e-03 0.000000e+00
1.313466e-02 7.009527e-03 0.000000e+00
1.253013e-02 8.125613e-03 0.000000e+00
1.194296e-02 8.836152e-03 0.000000e+00
1.165614e-02 9.183563e-03 0.000000e+00
0.000000e+00 0.000000e+00 0.000000e+00
4.298546e-03 3.050690e-04 0.000000e+00
6.822539e-03 9.261283e-04 0.000000e+00
8.738512e-03 1.842751e-03 0.000000e+00
1.008829e-02 2.971071e-03 0.000000e+00
1.091027e-02 4.236728e-03 0.000000e+00
1.125159e-02 5.564419e-03 0.000000e+00
1.120815e-02 6.826196e-03 0.000000e+00
1.098311e-02 7.879419e-03 0.000000e+00
1.084845e-02 8.612537e-03 0.000000e+00
1.096583e-02 9.084512e-03 0.000000e+00
0.000000e+00 0.000000e+00 0.000000e+00
3.297408e-03 2.541318e-04 0.000000e+00
5.367784e-03 8.316385e-04 0.000000e+00
6.978859e-03 1.687985e-03 0.000000e+00
8.139542e-03 2.740955e-03 0.000000e+00
8.887218e-03 3.919105e-03 0.000000e+00
9.275447e-03 5.139087e-03 0.000000e+00
9.411464e-03 6.301992e-03 0.000000e+00
9.466849e-03 7.295681e-03 0.000000e+00
9.630619e-03 8.064698e-03 0.000000e+00
9.984496e-03 8.662952e-03 0.000000e+00
0.000000e+00 0.000000e+00 0.000000e+00
2.413451e-03 1.820109e-04 0.000000e+00
4.076661e-03 6.748668e-04 0.000000e+00
5.384640e-03 1.419465e-03 0.000000e+00
6.363582e-03 2.356014e-03 0.000000e+00
7.037267e-03 3.415093e-03 0.000000e+00
7.453877e-03 4.516588e-03 0.000000e+00
7.715718e-03 5.584972e-03 0.000000e+00
7.955365e-03 6.535619e-03 0.000000e+00
8.286564e-03 7.354916e-03 0.000000e+00
8.749663e-03 8.083724e-03 0.000000e+00
0.000000e+00 0.000000e+00 0.000000e+00
1.677289e-03 1.093043e-04 0.000000e+00
2.964731e-03 5.017864e-04 0.000000e+00
3.989983e-03 1.119163e-03 0.000000e+00
4.779943e-03 1.916493e-03 0.000000e+00
5.360153e-03 2.839067e-03 0.000000e+00
5.775114e-03 3.822708e-03 0.000000e+00
6.098254e-03 4.802885e-03 0.000000e+00
6.422819e-03 5.732408e-03 0.000000e+00
6.814172e-03 6.611065e-03 0.000000e+00
7.286675e-03 7.473971e-03 0.000000e+00
0.000000e+00 0.000000e+00 0.000000e+00
1.089617e-03 4.841776e-05 0.000000e+00
2.025317e-03 3.314570e-04 0.000000e+00
2.789999e-03 8.264899e-04 0.000000e+00
3.393878e-03 1.488575e-03 0.000000e+00
3.856172e-03 2.284009e-03 0.000000e+00
4.218981e-03 3.165919e-03 0.000000e+00
4.533917e-03 4.079816e-03 0.000000e+00
4.856647e-03 4.999177e-03 0.000000e+00
5.219006e-03 5.932483e-03 0.000000e+00
5.626214e-03 6.916285e-03 0.000000e+00
0.000000e+00 0.000000e+00 0.000000e+00
6.470599e-04 -9.689257e-06 0.000000e+00
1.242936e-03 1.802742e-04 0.000000e+00
1.756370e-03 5.725980e-04 0.000000e+00
2.170871e-03 1.138925e-03 0.000000e+00
2.490815e-03 1.839048e-03 0.000000e+00
2.755569e-03 2.640036e-03 0.000000e+00
3.003432e-03 3.505470e-03 0.000000e+00
3.257945e-03 4.418857e-03 0.000000e+00
3.527502e-03 5.396235e-03 0.000000e+00
3.820177e-03 6.466173e-03 0.000000e+00
0.000000e+00 0.000000e+00 0.000000e+00
3.014473e-04 -4.922358e-05 0.000000e+00
5.881635e-04 8.395594e-05 0.000000e+00
8.451318e-04 4.090145e-04 0.000000e+00
1.057050e-03 9.137142e-04 0.000000e+00
1.220362e-03 1.555815e-03 0.000000e+00
1.358214e-03 2.300105e-03 0.000000e+00
1.495130e-03 3.130088e-03 0.000000e+00
1.634247e-03 4.040644e-03 0.000000e+00
1.776541e-03 5.045644e-03 0.000000e+00
1.928677e-03 6.159399e-03 0.000000e+00
0.000000e+00 0.000000e+00 0.000000e+00
0.000000e+00 -5.105270e-05 0.000000e+00
0.000000e+00 6.407021e-05 0.000000e+00
0.000000e+00 3.635035e-04 0.000000e+00
0.000000e+00 8.394622e-04 0.000000e+00
0.000000e+00 1.453667e-03 0.000000e+00
0.000000e+00 2.171432e-03 0.000000e+00
0.000000e+00 2.983827e-03 0.000000e+00
0.000000e+00 3.891284e-03 0.000000e+00
0.000000e+00 4.901867e-03 0.000000e+00
0.000000e+00 6.024571e-03 0.000000e+00
</DataArray>
<DataArray Name="shear" type="Float64" NumberOfComponents="1" format="ascii">
2.118033e-02
3.488113e-02
6.367499e-02
9.051137e-02
1.067599e-01
1.111100e-01
1.062145e-01
9.077850e-02
6.114408e-02
3.154312e-02
2.228926e-02
2.442166e-02
3.721726e-02
5.992903e-02
8.034165e-02
9.590741e-02
1.053063e-01
1.072143e-01
1.006419e-01
8.341927e-02
5.728192e-02
3.746707e-02
3.175689e-02
4.126639e-02
5.377945e-02
6.397212e-02
7.700343e-02
9.363676e-02
1.122869e-01
1.289391e-01
1.435000e-01
1.497437e-01
1.473758e-01
3.718734e-02
4.034551e-02
4.275961e-02
4.447501e-02
4.931999e-02
5.764639e-02
7.046056e-02
8.633770e-02
1.051476e-01
1.250369e-01
1.394615e-01
3.909478e-02
3.671112e-02
3.157692e-02
2.862295e-02
2.736763e-02
2.609864e-02
2.424862e-02
2.131410e-02
1.617758e-02
7.274739e-03
1.044596e-03
3.873727e-02
3.373864e-02
2.639871e-02
2.387537e-02
2.289722e-02
2.193107e-02
2.051342e-02
1.806190e-02
1.385845e-02
6.862933e-03
2.219329e-03
3.610873e-02
3.021511e-02
2.279470e-02
2.102349e-02
2.049125e-02
1.998091e-02
1.889028e-02
1.675171e-02
1.286284e-02
6.751925e-03
2.478401e-03
3.196602e-02
2.630076e-02
1.991898e-02
1.898130e-02
1.884723e-02
1.860307e-02
1.775980e-02
1.586624e-02
1.227940e-02
7.033907e-03
3.567773e-03
2.698783e-02
2.226182e-02
1.750764e-02
1.720001e-02
1.727723e-02
1.723716e-02
1.666517e-02
1.502970e-02
1.188330e-02
7.612301e-03
4.998554e-03
2.174408e-02
1.826475e-02
1.519360e-02
1.536621e-02
1.571516e-02
1.589262e-02
1.552374e-02
1.416323e-02
1.159955e-02
8.407489e-03
6.617518e-03
1.671512e-02
1.447639e-02
1.291101e-02
1.352261e-02
1.417963e-02
1.455718e-02
1.436552e-02
1.332096e-02
1.143084e-02
9.304171e-03
8.219192e-03
1.227281e-02
1.111864e-02
1.071834e-02
1.165242e-02
1.259086e-02
1.318210e-02
1.322310e-02
1.258473e-02
1.142140e-02
1.026698e-02
9.760859e-03
8.555078e-03
8.198063e-03
8.637872e-03
9.802194e-03
1.096053e-02
1.180197e-02
1.214741e-02
1.199044e-02
1.156070e-02
1.125612e-02
1.122822e-02
5.575566e-03
5.694317e-03
6.732601e-03
8.145087e-03
9.485626e-03
1.056473e-02
1.124182e-02
1.155590e-02
1.175944e-02
1.214021e-02
1.248342e-02
3.291808e-03
3.646284e-03
5.139603e-03
6.854060e-03
8.381308e-03
9.620373e-03
1.055368e-02
1.125546e-02
1.193927e-02
1.278605e-02
1.336480e-02
1.537048e-03
2.169489e-03
4.066616e-03
6.018743e-03
7.694563e-03
9.015815e-03
1.009041e-02
1.105851e-02
1.204924e-02
1.314280e-02
1.383385e-02
5.363729e-04
1.578132e-03
3.685164e-03
5.714578e-03
7.441671e-03
8.791522e-03
9.914500e-03
1.098399e-02
1.208110e-02
1.324708e-02
1.396897e-02
</DataArray>
<DataArray Name="stress" type="Float64" NumberOfComponents="9" format="ascii">
-1.247609e+05 7.127857e+03 0.000000e+00 7.127857e+03 -2.224705e+05 0.000000e+00 0.000000e+00 0.000000e+00 0.000000e+00
-1.125239e+05 5.031940e+03 0.000000e+00 5.031940e+03 -2.251979e+05 0.000000e+00 0.000000e+00 0.000000e+00 0.000000e+00
-1.183242e+05 3.715506e+03 0.000000e+00 3.715506e+03 -2.268751e+05 0.000000e+00 0.000000e+00 0.000000e+00 0.000000e+00
-1.300394e+05 5.413214e+03 0.000000e+00 5.413214e+03 -2.374485e+05 0.000000e+00 0.000000e+00 0.000000e+00 0.000000e+00
-1.388604e+05 5.571145e+03 0.000000e+00 5.571145e+03 -2.459982e+05 0.000000e+00 0.000000e+00 0.000000e+00 0.000000e+00
-1.443894e+05 7.129003e+03 0.000000e+00 7.129003e+03 -2.546269e+05 0.000000e+00 0.000000e+00 0.000000e+00 0.000000e+00
-1.491223e+05 9.052618e+03 0.000000e+00 9.052618e+03 -2.682353e+05 0.000000e+00 0.000000e+00 0.000000e+00 0.000000e+00
-1.493979e+05 1.084321e+04 0.000000e+00 1.084321e+04 -2.798910e+05 0.000000e+00 0.000000e+00 0.000000e+00 0.000000e+00
-1.499802e+05 6.662508e+03 0.000000e+00 6.662508e+03 -2.902980e+05 0.000000e+00 0.000000e+00 0.000000e+00 0.000000e+00
-1.581345e+05 -1.974578e+03 0.000000e+00 -1.974578e+03 -3.011452e+05 0.000000e+00 0.000000e+00 0.000000e+00 0.000000e+00
-1.622087e+05 -7.771823e+02 0.000000e+00 -7.771823e+02 -2.866072e+05 0.000000e+00 0.000000e+00 0.000000e+00 0.000000e+00
-1.298951e+05 2.123962e+04 0.000000e+00 2.123962e+04 -2.181447e+05 0.000000e+00 0.000000e+00 0.000000e+00 0.000000e+00
-1.138155e+05 1.781223e+04 0.000000e+00 1.781223e+04 -2.140572e+05 0.000000e+00 0.000000e+00 0.000000e+00 0.000000e+00
-1.158768e+05 1.612023e+04 0.000000e+00 1.612023e+04 -2.242500e+05 0.000000e+00 0.000000e+00 0.000000e+00 0.000000e+00
-1.250706e+05 1.403938e+04 0.000000e+00 1.403938e+04 -2.353564e+05 0.000000e+00 0.000000e+00 0.000000e+00 0.000000e+00
-1.357695e+05 1.286776e+04 0.000000e+00 1.286776e+04 -2.464737e+05 0.000000e+00 0.000000e+00 0.000000e+00 0.000000e+00
-1.450131e+05 1.303753e+04 0.000000e+00 1.303753e+04 -2.561295e+05 0.000000e+00 0.000000e+00 0.000000e+00 0.000000e+00
-1.512474e+05 1.455037e+04 0.000000e+00 1.455037e+04 -2.659666e+05 0.000000e+00 0.000000e+00 0.000000e+00 0.000000e+00
-1.495852e+05 1.356326e+04 0.000000e+00 1.356326e+04 -2.741508e+05 0.000000e+00 0.000000e+00 0.000000e+00 0.000000e+00
-1.517600e+05 6.123732e+03 0.000000e+00 6.123732e+03 -2.855107e+05 0.000000e+00 0.000000e+00 0.000000e+00 0.000000e+00
-1.530192e+05 -2.494262e+03 0.000000e+00 -2.494262e+03 -2.904089e+05 0.000000e+00 0.000000e+00 0.000000e+00 0.000000e+00
-1.762049e+05 -8.666066e+03 0.000000e+00 -8.666066e+03 -3.309113e+05 0.000000e+00 0.000000e+00 0.000000e+00 0.000000e+00
-1.308077e+05 3.460475e+04 0.000000e+00 3.460475e+04 -1.907602e+05 0.000000e+00 0.000000e+00 0.000000e+00 0.000000e+00
-1.134074e+05 2.940427e+04 0.000000e+00 2.940427e+04 -1.789564e+05 0.000000e+00 0.000000e+00 0.000000e+00 0.000000e+00
-1.132708e+05 2.844898e+04 0.000000e+00 2.844898e+04 -1.863764e+05 0.000000e+00 0.000000e+00 0.000000e+00 0.000000e+00
-1.219027e+05 2.910644e+04 0.000000e+00 2.910644e+04 -1.969556e+05 0.000000e+00 0.000000e+00 0.000000e+00 0.000000e+00
-1.354241e+05 3.157855e+04 0.000000e+00 3.157855e+04 -2.124988e+05 0.000000e+00 0.000000e+00 0.000000e+00 0.000000e+00
-1.517783e+05 3.423467e+04 0.000000e+00 3.423467e+04 -2.293098e+05 0.000000e+00 0.000000e+00 0.000000e+00 0.000000e+00
-1.679609e+05 3.542196e+04 0.000000e+00 3.542196e+04 -2.494301e+05 0.000000e+00 0.000000e+00 0.000000e+00 0.000000e+00
-1.746724e+05 3.511176e+04 0.000000e+00 3.511176e+04 -2.656416e+05 0.000000e+00 0.000000e+00 0.000000e+00 0.000000e+00
-1.830046e+05 3.150650e+04 0.000000e+00 3.150650e+04 -2.800485e+05 0.000000e+00 0.000000e+00 0.000000e+00 0.000000e+00
-1.876608e+05 1.861820e+04 0.000000e+00 1.861820e+04 -2.894565e+05 0.000000e+00 0.000000e+00 0.000000e+00 0.000000e+00
-2.061235e+05 -3.594858e+03 0.000000e+00 -3.594858e+03 -3.469500e+05 0.000000e+00 0.000000e+00 0.000000e+00 0.000000e+00
-1.195029e+05 3.297591e+04 0.000000e+00 3.297591e+04 -1.430762e+05 0.000000e+00 0.000000e+00 0.000000e+00 0.000000e+00
-1.065214e+05 2.966623e+04 0.000000e+00 2.966623e+04 -1.335822e+05 0.000000e+00 0.000000e+00 0.000000e+00 0.000000e+00
-1.087101e+05 3.089506e+04 0.000000e+00 3.089506e+04 -1.339779e+05 0.000000e+00 0.000000e+00 0.000000e+00 0.000000e+00
-1.179228e+05 3.395170e+04 0.000000e+00 3.395170e+04 -1.343094e+05 0.000000e+00 0.000000e+00 0.000000e+00 0.000000e+00
-1.260319e+05 3.611655e+04 0.000000e+00 3.611655e+04 -1.317773e+05 0.000000e+00 0.000000e+00 0.000000e+00 0.000000e+00
-1.304842e+05 3.592492e+04 0.000000e+00 3.592492e+04 -1.263263e+05 0.000000e+00 0.000000e+00 0.000000e+00 0.000000e+00
-1.280564e+05 3.122636e+04 0.000000e+00 3.122636e+04 -1.159188e+05 0.000000e+00 0.000000e+00 0.000000e+00 0.000000e+00
-1.210908e+05 2.487559e+04 0.000000e+00 2.487559e+04 -1.049319e+05 0.000000e+00 0.000000e+00 0.000000e+00 0.000000e+00
-1.083563e+05 1.833820e+04 0.000000e+00 1.833820e+04 -9.198012e+04 0.000000e+00 0.000000e+00 0.000000e+00 0.000000e+00
-8.518083e+04 9.059427e+03 0.000000e+00 9.059427e+03 -7.919543e+04 0.000000e+00 0.000000e+00 0.000000e+00 0.000000e+00
-4.595854e+04 3.273994e+03 0.000000e+00 3.273994e+03 -5.701957e+04 0.000000e+00 0.000000e+00 0.000000e+00 0.000000e+00
-1.127802e+05 3.111609e+04 0.000000e+00 3.111609e+04 -1.163555e+05 0.000000e+00 0.000000e+00 0.000000e+00 0.000000e+00
-1.075142e+05 3.005981e+04 0.000000e+00 3.005981e+04 -1.131116e+05 0.000000e+00 0.000000e+00 0.000000e+00 0.000000e+00
-1.142086e+05 3.166353e+04 0.000000e+00 3.166353e+04 -1.151658e+05 0.000000e+00 0.000000e+00 0.000000e+00 0.000000e+00
-1.250730e+05 3.320498e+04 0.000000e+00 3.320498e+04 -1.134271e+05 0.000000e+00 0.000000e+00 0.000000e+00 0.000000e+00
-1.337810e+05 3.255721e+04 0.000000e+00 3.255721e+04 -1.076451e+05 0.000000e+00 0.000000e+00 0.000000e+00 0.000000e+00
-1.389801e+05 2.941221e+04 0.000000e+00 2.941221e+04 -9.969786e+04 0.000000e+00 0.000000e+00 0.000000e+00 0.000000e+00
-1.386819e+05 2.428869e+04 0.000000e+00 2.428869e+04 -9.078020e+04 0.000000e+00 0.000000e+00 0.000000e+00 0.000000e+00
-1.352991e+05 1.770542e+04 0.000000e+00 1.770542e+04 -8.256454e+04 0.000000e+00 0.000000e+00 0.000000e+00 0.000000e+00
-1.239835e+05 9.510577e+03 0.000000e+00 9.510577e+03 -7.431259e+04 0.000000e+00 0.000000e+00 0.000000e+00 0.000000e+00
-9.583860e+04 1.094373e+03 0.000000e+00 1.094373e+03 -6.832355e+04 0.000000e+00 0.000000e+00 0.000000e+00 0.000000e+00
-5.210901e+04 -1.691363e+03 0.000000e+00 -1.691363e+03 -5.378457e+04 0.000000e+00 0.000000e+00 0.000000e+00 0.000000e+00
-1.055827e+05 3.073785e+04 0.000000e+00 3.073785e+04 -1.011614e+05 0.000000e+00 0.000000e+00 0.000000e+00 0.000000e+00
-1.067063e+05 3.028877e+04 0.000000e+00 3.028877e+04 -1.009075e+05 0.000000e+00 0.000000e+00 0.000000e+00 0.000000e+00
-1.148966e+05 2.989764e+04 0.000000e+00 2.989764e+04 -1.006300e+05 0.000000e+00 0.000000e+00 0.000000e+00 0.000000e+00
-1.243856e+05 2.818966e+04 0.000000e+00 2.818966e+04 -9.585340e+04 0.000000e+00 0.000000e+00 0.000000e+00 0.000000e+00
-1.311939e+05 2.532020e+04 0.000000e+00 2.532020e+04 -9.028059e+04 0.000000e+00 0.000000e+00 0.000000e+00 0.000000e+00
-1.340863e+05 2.111955e+04 0.000000e+00 2.111955e+04 -8.423996e+04 0.000000e+00 0.000000e+00 0.000000e+00 0.000000e+00
-1.328403e+05 1.574296e+04 0.000000e+00 1.574296e+04 -7.788153e+04 0.000000e+00 0.000000e+00 0.000000e+00 0.000000e+00
-1.271903e+05 9.184631e+03 0.000000e+00 9.184631e+03 -7.139448e+04 0.000000e+00 0.000000e+00 0.000000e+00 0.000000e+00
-1.149041e+05 1.599666e+03 0.000000e+00 1.599666e+03 -6.572758e+04 0.000000e+00 0.000000e+00 0.000000e+00 0.000000e+00
-9.013353e+04 -3.979490e+03 0.000000e+00 -3.979490e+03 -6.188931e+04 0.000000e+00 0.000000e+00 0.000000e+00 0.000000e+00
-5.800759e+04 -4.831340e+03 0.000000e+00 -4.831340e+03 -5.465091e+04 0.000000e+00 0.000000e+00 0.000000e+00 0.000000e+00
-9.797156e+04 2.884097e+04 0.000000e+00 2.884097e+04 -8.946235e+04 0.000000e+00 0.000000e+00 0.000000e+00 0.000000e+00
-1.043622e+05 2.879163e+04 0.000000e+00 2.879163e+04 -9.121666e+04 0.000000e+00 0.000000e+00 0.000000e+00 0.000000e+00
-1.132261e+05 2.589353e+04 0.000000e+00 2.589353e+04 -8.826940e+04 0.000000e+00 0.000000e+00 0.000000e+00 0.000000e+00
-1.219399e+05 2.316314e+04 0.000000e+00 2.316314e+04 -8.394069e+04 0.000000e+00 0.000000e+00 0.000000e+00 0.000000e+00
-1.272389e+05 1.956684e+04 0.000000e+00 1.956684e+04 -7.955800e+04 0.000000e+00 0.000000e+00 0.000000e+00 0.000000e+00
-1.286899e+05 1.488179e+04 0.000000e+00 1.488179e+04 -7.476441e+04 0.000000e+00 0.000000e+00 0.000000e+00 0.000000e+00
-1.264154e+05 9.299615e+03 0.000000e+00 9.299615e+03 -6.979512e+04 0.000000e+00 0.000000e+00 0.000000e+00 0.000000e+00
-1.195768e+05 2.999061e+03 0.000000e+00 2.999061e+03 -6.521334e+04 0.000000e+00 0.000000e+00 0.000000e+00 0.000000e+00
-1.079140e+05 -2.819409e+03 0.000000e+00 -2.819409e+03 -6.200996e+04 0.000000e+00 0.000000e+00 0.000000e+00 0.000000e+00
-8.853822e+04 -5.068745e+03 0.000000e+00 -5.068745e+03 -6.005497e+04 0.000000e+00 0.000000e+00 0.000000e+00 0.000000e+00
-6.730046e+04 -4.418503e+03 0.000000e+00 -4.418503e+03 -5.619135e+04 0.000000e+00 0.000000e+00 0.000000e+00 0.000000e+00
-8.919982e+04 2.558820e+04 0.000000e+00 2.558820e+04 -7.969316e+04 0.000000e+00 0.000000e+00 0.000000e+00 0.000000e+00
-1.003606e+05 2.585700e+04 0.000000e+00 2.585700e+04 -8.305489e+04 0.000000e+00 0.000000e+00 0.000000e+00 0.000000e+00
-1.106978e+05 2.218174e+04 0.000000e+00 2.218174e+04 -7.950599e+04 0.000000e+00 0.000000e+00 0.000000e+00 0.000000e+00
-1.184130e+05 1.895544e+04 0.000000e+00 1.895544e+04 -7.602966e+04 0.000000e+00 0.000000e+00 0.000000e+00 0.000000e+00
-1.225151e+05 1.484508e+04 0.000000e+00 1.484508e+04 -7.236801e+04 0.000000e+00 0.000000e+00 0.000000e+00 0.000000e+00
-1.231535e+05 9.986660e+03 0.000000e+00 9.986660e+03 -6.851577e+04 0.000000e+00 0.000000e+00 0.000000e+00 0.000000e+00
-1.200837e+05 4.567623e+03 0.000000e+00 4.567623e+03 -6.483875e+04 0.000000e+00 0.000000e+00 0.000000e+00 0.000000e+00
-1.132863e+05 -7.768986e+02 0.000000e+00 -7.768986e+02 -6.193080e+04 0.000000e+00 0.000000e+00 0.000000e+00 0.000000e+00
-1.035655e+05 -4.643913e+03 0.000000e+00 -4.643913e+03 -6.029432e+04 0.000000e+00 0.000000e+00 0.000000e+00 0.000000e+00
-8.989477e+04 -5.009606e+03 0.000000e+00 -5.009606e+03 -5.951346e+04 0.000000e+00 0.000000e+00 0.000000e+00 0.000000e+00
-7.622123e+04 -3.791639e+03 0.000000e+00 -3.791639e+03 -5.698809e+04 0.000000e+00 0.000000e+00 0.000000e+00 0.000000e+00
-8.189926e+04 2.238635e+04 0.000000e+00 2.238635e+04 -7.284425e+04 0.000000e+00 0.000000e+00 0.000000e+00 0.000000e+00
-9.643541e+04 2.265093e+04 0.000000e+00 2.265093e+04 -7.675558e+04 0.000000e+00 0.000000e+00 0.000000e+00 0.000000e+00
-1.075377e+05 1.904557e+04 0.000000e+00 1.904557e+04 -7.331805e+04 0.000000e+00 0.000000e+00 0.000000e+00 0.000000e+00
-1.141499e+05 1.539406e+04 0.000000e+00 1.539406e+04 -7.032922e+04 0.000000e+00 0.000000e+00 0.000000e+00 0.000000e+00
-1.176753e+05 1.105840e+04 0.000000e+00 1.105840e+04 -6.727443e+04 0.000000e+00 0.000000e+00 0.000000e+00 0.000000e+00
-1.177495e+05 6.259160e+03 0.000000e+00 6.259160e+03 -6.430088e+04 0.000000e+00 0.000000e+00 0.000000e+00 0.000000e+00
-1.144446e+05 1.399314e+03 0.000000e+00 1.399314e+03 -6.179587e+04 0.000000e+00 0.000000e+00 0.000000e+00 0.000000e+00
-1.085980e+05 -2.783229e+03 0.000000e+00 -2.783229e+03 -6.011531e+04 0.000000e+00 0.000000e+00 0.000000e+00 0.000000e+00
-1.013808e+05 -5.163723e+03 0.000000e+00 -5.163723e+03 -5.942773e+04 0.000000e+00 0.000000e+00 0.000000e+00 0.000000e+00
-9.237010e+04 -4.546263e+03 0.000000e+00 -4.546263e+03 -5.932447e+04 0.000000e+00 0.000000e+00 0.000000e+00 0.000000e+00
-8.384770e+04 -3.036609e+03 0.000000e+00 -3.036609e+03 -5.774221e+04 0.000000e+00 0.000000e+00 0.000000e+00 0.000000e+00
-7.670240e+04 2.020396e+04 0.000000e+00 2.020396e+04 -6.821651e+04 0.000000e+00 0.000000e+00 0.000000e+00 0.000000e+00
-9.278481e+04 2.012395e+04 0.000000e+00 2.012395e+04 -7.174855e+04 0.000000e+00 0.000000e+00 0.000000e+00 0.000000e+00
-1.039261e+05 1.633958e+04 0.000000e+00 1.633958e+04 -6.883839e+04 0.000000e+00 0.000000e+00 0.000000e+00 0.000000e+00
-1.097926e+05 1.237821e+04 0.000000e+00 1.237821e+04 -6.624625e+04 0.000000e+00 0.000000e+00 0.000000e+00 0.000000e+00
-1.127690e+05 8.073426e+03 0.000000e+00 8.073426e+03 -6.375882e+04 0.000000e+00 0.000000e+00 0.000000e+00 0.000000e+00
-1.126402e+05 3.592478e+03 0.000000e+00 3.592478e+03 -6.159302e+04 0.000000e+00 0.000000e+00 0.000000e+00 0.000000e+00
-1.098249e+05 -5.506930e+02 0.000000e+00 -5.506930e+02 -5.998276e+04 0.000000e+00 0.000000e+00 0.000000e+00 0.000000e+00
-1.053783e+05 -3.649088e+03 0.000000e+00 -3.649088e+03 -5.912110e+04 0.000000e+00 0.000000e+00 0.000000e+00 0.000000e+00
-1.005541e+05 -4.998755e+03 0.000000e+00 -4.998755e+03 -5.897502e+04 0.000000e+00 0.000000e+00 0.000000e+00 0.000000e+00
-9.517134e+04 -3.891296e+03 0.000000e+00 -3.891296e+03 -5.926775e+04 0.000000e+00 0.000000e+00 0.000000e+00 0.000000e+00
-9.023177e+04 -2.348988e+03 0.000000e+00 -2.348988e+03 -5.846488e+04 0.000000e+00 0.000000e+00 0.000000e+00 0.000000e+00
-7.364927e+04 1.828318e+04 0.000000e+00 1.828318e+04 -6.498064e+04 0.000000e+00 0.000000e+00 0.000000e+00 0.000000e+00
-8.927960e+04 1.778840e+04 0.000000e+00 1.778840e+04 -6.809556e+04 0.000000e+00 0.000000e+00 0.000000e+00 0.000000e+00
-9.981874e+04 1.386588e+04 0.000000e+00 1.386588e+04 -6.539932e+04 0.000000e+00 0.000000e+00 0.000000e+00 0.000000e+00
-1.053430e+05 9.903293e+03 0.000000e+00 9.903293e+03 -6.334801e+04 0.000000e+00 0.000000e+00 0.000000e+00 0.000000e+00
-1.080049e+05 5.824426e+03 0.000000e+00 5.824426e+03 -6.144470e+04 0.000000e+00 0.000000e+00 0.000000e+00 0.000000e+00
-1.080800e+05 1.799901e+03 0.000000e+00 1.799901e+03 -5.992403e+04 0.000000e+00 0.000000e+00 0.000000e+00 0.000000e+00
-1.061588e+05 -1.631738e+03 0.000000e+00 -1.631738e+03 -5.895948e+04 0.000000e+00 0.000000e+00 0.000000e+00 0.000000e+00
-1.032946e+05 -3.837548e+03 0.000000e+00 -3.837548e+03 -5.863958e+04 0.000000e+00 0.000000e+00 0.000000e+00 0.000000e+00
-1.005430e+05 -4.466403e+03 0.000000e+00 -4.466403e+03 -5.879011e+04 0.000000e+00 0.000000e+00 0.000000e+00 0.000000e+00
-9.793507e+04 -3.187786e+03 0.000000e+00 -3.187786e+03 -5.926566e+04 0.000000e+00 0.000000e+00 0.000000e+00 0.000000e+00
-9.563021e+04 -1.756413e+03 0.000000e+00 -1.756413e+03 -5.907087e+04 0.000000e+00 0.000000e+00 0.000000e+00 0.000000e+00
-7.125012e+04 1.636443e+04 0.000000e+00 1.636443e+04 -6.294126e+04 0.000000e+00 0.000000e+00 0.000000e+00 0.000000e+00
-8.541229e+04 1.562060e+04 0.000000e+00 1.562060e+04 -6.544923e+04 0.000000e+00 0.000000e+00 0.000000e+00 0.000000e+00
-9.567984e+04 1.173745e+04 0.000000e+00 1.173745e+04 -6.301893e+04 0.000000e+00 0.000000e+00 0.000000e+00 0.000000e+00
-1.010637e+05 7.968105e+03 0.000000e+00 7.968105e+03 -6.137299e+04 0.000000e+00 0.000000e+00 0.000000e+00 0.000000e+00
-1.036469e+05 4.176925e+03 0.000000e+00 4.176925e+03 -5.993809e+04 0.000000e+00 0.000000e+00 0.000000e+00 0.000000e+00
-1.041704e+05 6.624109e+02 0.000000e+00 6.624109e+02 -5.891126e+04 0.000000e+00 0.000000e+00 0.000000e+00 0.000000e+00
-1.032864e+05 -2.085603e+03 0.000000e+00 -2.085603e+03 -5.839801e+04 0.000000e+00 0.000000e+00 0.000000e+00 0.000000e+00
-1.020230e+05 -3.623564e+03 0.000000e+00 -3.623564e+03 -5.841506e+04 0.000000e+00 0.000000e+00 0.000000e+00 0.000000e+00
-1.010157e+05 -3.784264e+03 0.000000e+00 -3.784264e+03 -5.878798e+04 0.000000e+00 0.000000e+00 0.000000e+00 0.000000e+00
-1.003637e+05 -2.497419e+03 0.000000e+00 -2.497419e+03 -5.934238e+04 0.000000e+00 0.000000e+00 0.000000e+00 0.000000e+00
-9.993249e+04 -1.202370e+03 0.000000e+00 -1.202370e+03 -5.954171e+04 0.000000e+00 0.000000e+00 0.000000e+00 0.000000e+00
-6.898684e+04 1.411512e+04 0.000000e+00 1.411512e+04 -6.218678e+04 0.000000e+00 0.000000e+00 0.000000e+00 0.000000e+00
-8.167940e+04 1.325267e+04 0.000000e+00 1.325267e+04 -6.384463e+04 0.000000e+00 0.000000e+00 0.000000e+00 0.000000e+00
-9.179090e+04 9.783565e+03 0.000000e+00 9.783565e+03 -6.148756e+04 0.000000e+00 0.000000e+00 0.000000e+00 0.000000e+00
-9.711442e+04 6.364512e+03 0.000000e+00 6.364512e+03 -5.992307e+04 0.000000e+00 0.000000e+00 0.000000e+00 0.000000e+00
-9.985415e+04 3.003608e+03 0.000000e+00 3.003608e+03 -5.876743e+04 0.000000e+00 0.000000e+00 0.000000e+00 0.000000e+00
-1.009777e+05 5.285854e+01 0.000000e+00 5.285854e+01 -5.813768e+04 0.000000e+00 0.000000e+00 0.000000e+00 0.000000e+00
-1.012302e+05 -2.083683e+03 0.000000e+00 -2.083683e+03 -5.799300e+04 0.000000e+00 0.000000e+00 0.000000e+00 0.000000e+00
-1.013181e+05 -3.118868e+03 0.000000e+00 -3.118868e+03 -5.829648e+04 0.000000e+00 0.000000e+00 0.000000e+00 0.000000e+00
-1.016699e+05 -3.025524e+03 0.000000e+00 -3.025524e+03 -5.887334e+04 0.000000e+00 0.000000e+00 0.000000e+00 0.000000e+00
-1.023524e+05 -1.871303e+03 0.000000e+00 -1.871303e+03 -5.947873e+04 0.000000e+00 0.000000e+00 0.000000e+00 0.000000e+00
-1.031221e+05 -7.608971e+02 0.000000e+00 -7.608971e+02 -5.994836e+04 0.000000e+00 0.000000e+00 0.000000e+00 0.000000e+00
-6.762059e+04 1.147899e+04 0.000000e+00 1.147899e+04 -6.236188e+04 0.000000e+00 0.000000e+00 0.000000e+00 0.000000e+00
-7.855391e+04 1.061749e+04 0.000000e+00 1.061749e+04 -6.305140e+04 0.000000e+00 0.000000e+00 0.000000e+00 0.000000e+00
-8.830410e+04 7.795226e+03 0.000000e+00 7.795226e+03 -6.075923e+04 0.000000e+00 0.000000e+00 0.000000e+00 0.000000e+00
-9.362941e+04 4.878884e+03 0.000000e+00 4.878884e+03 -5.911322e+04 0.000000e+00 0.000000e+00 0.000000e+00 0.000000e+00
-9.669007e+04 2.118931e+03 0.000000e+00 2.118931e+03 -5.803220e+04 0.000000e+00 0.000000e+00 0.000000e+00 0.000000e+00
-9.847241e+04 -1.719141e+02 0.000000e+00 -1.719141e+02 -5.761701e+04 0.000000e+00 0.000000e+00 0.000000e+00 0.000000e+00
-9.971241e+04 -1.739684e+03 0.000000e+00 -1.739684e+03 -5.778055e+04 0.000000e+00 0.000000e+00 0.000000e+00 0.000000e+00
-1.009404e+05 -2.395637e+03 0.000000e+00 -2.395637e+03 -5.831065e+04 0.000000e+00 0.000000e+00 0.000000e+00 0.000000e+00
-1.023335e+05 -2.205045e+03 0.000000e+00 -2.205045e+03 -5.900436e+04 0.000000e+00 0.000000e+00 0.000000e+00 0.000000e+00
-1.038892e+05 -1.316010e+03 0.000000e+00 -1.316010e+03 -5.962377e+04 0.000000e+00 0.000000e+00 0.000000e+00 0.000000e+00
-1.054322e+05 -5.030551e+02 0.000000e+00 -5.030551e+02 -6.025978e+04 0.000000e+00 0.000000e+00 0.000000e+00 0.000000e+00
-6.694825e+04 8.319845e+03 0.000000e+00 8.319845e+03 -6.347202e+04 0.000000e+00 0.000000e+00 0.000000e+00 0.000000e+00
-7.631476e+04 7.575144e+03 0.000000e+00 7.575144e+03 -6.319926e+04 0.000000e+00 0.000000e+00 0.000000e+00 0.000000e+00
-8.550024e+04 5.526446e+03 0.000000e+00 5.526446e+03 -6.066279e+04 0.000000e+00 0.000000e+00 0.000000e+00 0.000000e+00
-9.081966e+04 3.313484e+03 0.000000e+00 3.313484e+03 -5.884775e+04 0.000000e+00 0.000000e+00 0.000000e+00 0.000000e+00
-9.425488e+04 1.322221e+03 0.000000e+00 1.322221e+03 -5.780945e+04 0.000000e+00 0.000000e+00 0.000000e+00 0.000000e+00
-9.669702e+04 -2.071325e+02 0.000000e+00 -2.071325e+02 -5.749598e+04 0.000000e+00 0.000000e+00 0.000000e+00 0.000000e+00
-9.871322e+04 -1.184561e+03 0.000000e+00 -1.184561e+03 -5.779161e+04 0.000000e+00 0.000000e+00 0.000000e+00 0.000000e+00
-1.007674e+05 -1.560049e+03 0.000000e+00 -1.560049e+03 -5.841689e+04 0.000000e+00 0.000000e+00 0.000000e+00 0.000000e+00
-1.028461e+05 -1.408683e+03 0.000000e+00 -1.408683e+03 -5.913561e+04 0.000000e+00 0.000000e+00 0.000000e+00 0.000000e+00
-1.049529e+05 -8.440637e+02 0.000000e+00 -8.440637e+02 -5.971165e+04 0.000000e+00 0.000000e+00 0.000000e+00 0.000000e+00
-1.071246e+05 -3.257333e+02 0.000000e+00 -3.257333e+02 -6.039678e+04 0.000000e+00 0.000000e+00 0.000000e+00 0.000000e+00
-6.651303e+04 4.360665e+03 0.000000e+00 4.360665e+03 -6.454346e+04 0.000000e+00 0.000000e+00 0.000000e+00 0.000000e+00
-7.485466e+04 3.941105e+03 0.000000e+00 3.941105e+03 -6.372912e+04 0.000000e+00 0.000000e+00 0.000000e+00 0.000000e+00
-8.359820e+04 2.842124e+03 0.000000e+00 2.842124e+03 -6.082305e+04 0.000000e+00 0.000000e+00 0.000000e+00 0.000000e+00
-8.899925e+04 1.669921e+03 0.000000e+00 1.669921e+03 -5.888007e+04 0.000000e+00 0.000000e+00 0.000000e+00 0.000000e+00
-9.270673e+04 6.379572e+02 0.000000e+00 6.379572e+02 -5.786720e+04 0.000000e+00 0.000000e+00 0.000000e+00 0.000000e+00
-9.566127e+04 -1.263597e+02 0.000000e+00 -1.263597e+02 -5.761196e+04 0.000000e+00 0.000000e+00 0.000000e+00 0.000000e+00
-9.819859e+04 -5.772126e+02 0.000000e+00 -5.772126e+02 -5.792574e+04 0.000000e+00 0.000000e+00 0.000000e+00 0.000000e+00
-1.006919e+05 -7.479609e+02 0.000000e+00 -7.479609e+02 -5.855073e+04 0.000000e+00 0.000000e+00 0.000000e+00 0.000000e+00
-1.031178e+05 -6.871416e+02 0.000000e+00 -6.871416e+02 -5.923146e+04 0.000000e+00 0.000000e+00 0.000000e+00 0.000000e+00
-1.055972e+05 -4.181491e+02 0.000000e+00 -4.181491e+02 -5.974433e+04 0.000000e+00 0.000000e+00 0.000000e+00 0.000000e+00
-1.081876e+05 -1.453139e+02 0.000000e+00 -1.453139e+02 -6.046604e+04 0.000000e+00 0.000000e+00 0.000000e+00 0.000000e+00
-6.627108e+04 1.264428e+03 0.000000e+00 1.264428e+03 -6.470693e+04 0.000000e+00 0.000000e+00 0.000000e+00 0.000000e+00
-7.431913e+04 1.152895e+03 0.000000e+00 1.152895e+03 -6.382230e+04 0.000000e+00 0.000000e+00 0.000000e+00 0.000000e+00
-8.293891e+04 7.430182e+02 0.000000e+00 7.430182e+02 -6.092901e+04 0.000000e+00 0.000000e+00 0.000000e+00 0.000000e+00
-8.839704e+04 3.083579e+02 0.000000e+00 3.083579e+02 -5.900173e+04 0.000000e+00 0.000000e+00 0.000000e+00 0.000000e+00
-9.222710e+04 -6.765730e+01 0.000000e+00 -6.765730e+01 -5.801401e+04 0.000000e+00 0.000000e+00 0.000000e+00 0.000000e+00
-9.539369e+04 -3.644410e+02 0.000000e+00 -3.644410e+02 -5.775620e+04 0.000000e+00 0.000000e+00 0.000000e+00 0.000000e+00
-9.809920e+04 -5.404846e+02 0.000000e+00 -5.404846e+02 -5.803420e+04 0.000000e+00 0.000000e+00 0.000000e+00 0.000000e+00
-1.007128e+05 -6.110480e+02 0.000000e+00 -6.110480e+02 -5.862175e+04 0.000000e+00 0.000000e+00 0.000000e+00 0.000000e+00
-1.032308e+05 -5.777487e+02 0.000000e+00 -5.777487e+02 -5.925333e+04 0.000000e+00 0.000000e+00 0.000000e+00 0.000000e+00
-1.058290e+05 -4.462246e+02 0.000000e+00 -4.462246e+02 -5.976716e+04 0.000000e+00 0.000000e+00 0.000000e+00 0.000000e+00
-1.085659e+05 -2.827633e+02 0.000000e+00 -2.827633e+02 -6.051360e+04 0.000000e+00 0.000000e+00 0.000000e+00 0.000000e+00
</DataArray>
<DataArray Name="vol_eps" type="Float64" NumberOfComponents="1" format="ascii">
-1.415696e-02
-1.194630e-02
-9.164224e-03
-7.727813e-03
-7.115548e-03
-7.675471e-03
-9.360802e-03
-1.193072e-02
-1.589358e-02
-2.037135e-02
-2.052863e-02
-1.397564e-02
-1.106522e-02
-8.967976e-03
-7.891247e-03
-7.636903e-03
-8.017950e-03
-8.896281e-03
-1.018314e-02
-1.295781e-02
-1.603628e-02
-2.257989e-02
-1.170151e-02
-8.372247e-03
-7.266096e-03
-7.310309e-03
-7.784845e-03
-8.614590e-03
-9.621684e-03
-1.003155e-02
-1.009548e-02
-1.048656e-02
-1.499173e-02
-7.377166e-03
-5.314022e-03
-5.164200e-03
-5.607666e-03
-5.461806e-03
-4.350787e-03
-2.177025e-03
2.870400e-04
4.093438e-03
8.767090e-03
1.461632e-02
-4.803728e-03
-4.403821e-03
-5.500146e-03
-6.384953e-03
-6.687223e-03
-6.576740e-03
-6.055842e-03
-5.476221e-03
-4.578420e-03
-2.668115e-03
1.355323e-03
-2.951653e-03
-3.563340e-03
-4.954075e-03
-5.552317e-03
-5.682954e-03
-5.480710e-03
-4.997429e-03
-4.350235e-03
-3.551748e-03
-1.958457e-03
6.397662e-04
-1.627372e-03
-2.947599e-03
-4.295395e-03
-4.753301e-03
-4.777998e-03
-4.507053e-03
-4.065325e-03
-3.531424e-03
-2.929521e-03
-1.776458e-03
-1.725315e-04
-6.963877e-04
-2.454250e-03
-3.730458e-03
-4.054205e-03
-4.015462e-03
-3.773997e-03
-3.402377e-03
-2.986566e-03
-2.571699e-03
-1.847458e-03
-8.155537e-04
-2.407659e-04
-2.149184e-03
-3.234254e-03
-3.461706e-03
-3.444406e-03
-3.241009e-03
-2.937408e-03
-2.637200e-03
-2.397021e-03
-2.005997e-03
-1.374263e-03
-6.979494e-05
-1.924335e-03
-2.831371e-03
-3.009350e-03
-3.014598e-03
-2.859988e-03
-2.635335e-03
-2.439189e-03
-2.335049e-03
-2.178458e-03
-1.838587e-03
-1.431127e-04
-1.762944e-03
-2.481512e-03
-2.662185e-03
-2.689286e-03
-2.594702e-03
-2.448719e-03
-2.344325e-03
-2.338998e-03
-2.330618e-03
-2.199791e-03
-2.899776e-04
-1.613824e-03
-2.199713e-03
-2.398405e-03
-2.450126e-03
-2.409445e-03
-2.330788e-03
-2.308325e-03
-2.370115e-03
-2.444791e-03
-2.454700e-03
-4.237869e-04
-1.467895e-03
-1.976376e-03
-2.179640e-03
-2.257347e-03
-2.264140e-03
-2.255640e-03
-2.302490e-03
-2.410200e-03
-2.528726e-03
-2.622435e-03
-5.184104e-04
-1.328828e-03
-1.805535e-03
-2.007819e-03
-2.100350e-03
-2.144439e-03
-2.204552e-03
-2.312522e-03
-2.453606e-03
-2.584111e-03
-2.715400e-03
-6.166343e-04
-1.227378e-03
-1.660317e-03
-1.863350e-03
-1.978527e-03
-2.073030e-03
-2.184367e-03
-2.330883e-03
-2.486698e-03
-2.608116e-03
-2.756445e-03
-6.940126e-04
-1.178196e-03
-1.556552e-03
-1.770008e-03
-1.910691e-03
-2.043935e-03
-2.186954e-03
-2.348593e-03
-2.502123e-03
-2.617463e-03
-2.780714e-03
-6.988738e-04
-1.153113e-03
-1.523209e-03
-1.747796e-03
-1.903868e-03
-2.049653e-03
-2.198877e-03
-2.360636e-03
-2.509856e-03
-2.626512e-03
-2.797477e-03
</DataArray>
</PointData>
</Piece>
</UnstructuredGrid>
</VTKFile>
