<?xml version="1.0"?>
<VTKFile type="UnstructuredGrid" version="0.1">
<UnstructuredGrid>
<FieldData>
<DataArray Name="TIME" type="Float64" format="ascii" NumberOfTuples="1">
0.000000e+00
</DataArray>
</FieldData>
<FieldData>
<DataArray Name="CYCLE" type="Int32" format="ascii" NumberOfTuples="1">
0
</DataArray>
</FieldData>
<Piece NumberOfPoints="187" NumberOfCells="160">
<Points>
<DataArray NumberOfComponents="3" type="Float64" format="ascii">
0.000000e+00 0.000000e+00 0.000000e+00
0.000000e+00 1.994081e-01 0.000000e+00
0.000000e+00 3.987039e-01 0.000000e+00
0.000000e+00 5.978761e-01 0.000000e+00
0.000000e+00 7.969143e-01 0.000000e+00
0.000000e+00 9.958175e-01 0.000000e+00
0.000000e+00 1.194588e+00 0.000000e+00
0.000000e+00 1.393275e+00 0.000000e+00
0.000000e+00 1.591992e+00 0.000000e+00
0.000000e+00 1.790889e+00 0.000000e+00
0.000000e+00 1.989875e+00 0.000000e+00
2.250000e-01 0.000000e+00 0.000000e+00
2.251594e-01 1.994351e-01 0.000000e+00
2.252945e-01 3.987641e-01 0.000000e+00
2.254186e-01 5.979823e-01 0.000000e+00
2.255299e-01 7.970810e-01 0.000000e+00
2.256212e-01 9.960553e-01 0.000000e+00
2.256672e-01 1.194901e+00 0.000000e+00
2.256184e-01 1.393633e+00 0.000000e+00
2.254221e-01 1.592294e+00 0.000000e+00
2.250960e-01 1.790974e+00 0.000000e+00
2.250000e-01 1.989875e+00 0.000000e+00
4.500000e-01 0.000000e+00 0.000000e+00
4.502926e-01 1.994853e-01 0.000000e+00
4.505373e-01 3.988935e-01 0.000000e+00
4.507564e-01 5.982288e-01 0.000000e+00
4.509515e-01 7.974876e-01 0.000000e+00
4.511130e-01 9.966637e-01 0.000000e+00
4.512176e-01 1.195744e+00 0.000000e+00
4.512179e-01 1.394694e+00 0.000000e+00
4.510499e-01 1.593441e+00 0.000000e+00
4.506645e-01 1.791844e+00 0.000000e+00
4.500000e-01 1.989875e+00 0.000000e+00
6.750000e-01 0.000000e+00 0.000000e+00
6.753882e-01 1.995564e-01 0.000000e+00
6.757011e-01 3.990691e-01 0.000000e+00
6.759661e-01 5.985485e-01 0.000000e+00
6.761926e-01 7.980053e-01 0.000000e+00
6.763748e-01 9.974509e-01 0.000000e+00
6.764957e-01 1.196903e+00 0.000000e+00
6.765273e-01 1.396389e+00 0.000000e+00
6.764112e-01 1.595950e+00 0.000000e+00
6.760883e-01 1.795713e+00 0.000000e+00
6.746643e-01 1.996025e+00 0.000000e+00
9.000000e-01 0.000000e+00 0.000000e+00
9.004392e-01 1.996381e-01 0.000000e+00
9.007809e-01 3.992640e-01 0.000000e+00
9.010543e-01 5.988876e-01 0.000000e+00
9.012696e-01 7.985216e-01 0.000000e+00
9.014233e-01 9.981824e-01 0.000000e+00
9.014974e-01 1.197889e+00 0.000000e+00
9.014595e-01 1.397666e+00 0.000000e+00
9.012539e-01 1.597543e+00 0.000000e+00
9.006982e-01 1.797558e+00 0.000000e+00
8.996940e-01 1.997496e+00 0.000000e+00
1.125000e+00 0.000000e+00 0.000000e+00
1.125449e+00 1.997188e-01 0.000000e+00
1.125788e+00 3.994465e-01 0.000000e+00
1.126047e+00 5.991890e-01 0.000000e+00
1.126235e+00 7.989560e-01 0.000000e+00
1.126349e+00 9.987597e-01 0.000000e+00
1.126374e+00 1.198613e+00 0.000000e+00
1.126282e+00 1.398527e+00 0.000000e+00
1.126021e+00 1.598508e+00 0.000000e+00
1.125537e+00 1.798520e+00 0.000000e+00
1.124879e+00 1.998515e+00 0.000000e+00
1.350000e+00 0.000000e+00 0.000000e+00
1.350427e+00 1.997913e-01 0.000000e+00
1.350745e+00 3.996030e-01 0.000000e+00
1.350979e+00 5.994366e-01 0.000000e+00
1.351138e+00 7.992977e-01 0.000000e+00
1.351218e+00 9.991934e-01 0.000000e+00
1.351209e+00 1.199130e+00 0.000000e+00
1.351092e+00 1.399109e+00 0.000000e+00
1.350845e+00 1.599122e+00 0.000000e+00
1.350466e+00 1.799143e+00 0.000000e+00
1.350029e+00 1.999126e+00 0.000000e+00
1.575000e+00 0.000000e+00 0.000000e+00
1.575385e+00 1.998500e-01 0.000000e+00
1.575673e+00 3.997253e-01 0.000000e+00
1.575880e+00 5.996248e-01 0.000000e+00
1.576011e+00 7.995507e-01 0.000000e+00
1.576066e+00 9.995055e-01 0.000000e+00
1.576040e+00 1.199490e+00 0.000000e+00
1.575923e+00 1.399501e+00 0.000000e+00
1.575714e+00 1.599526e+00 0.000000e+00
1.575434e+00 1.799543e+00 0.000000e+00
1.575143e+00 1.999532e+00 0.000000e+00
1.800000e+00 0.000000e+00 0.000000e+00
1.800335e+00 1.998946e-01 0.000000e+00
1.800587e+00 3.998168e-01 0.000000e+00
1.800765e+00 5.997629e-01 0.000000e+00
1.800873e+00 7.997317e-01 0.000000e+00
1.800912e+00 9.997230e-01 0.000000e+00
1.800880e+00 1.199735e+00 0.000000e+00
1.800778e+00 1.399760e+00 0.000000e+00
1.800613e+00 1.599788e+00 0.000000e+00
1.800411e+00 1.799805e+00 0.000000e+00
1.800219e+00 1.999799e+00 0.000000e+00
2.025000e+00 0.000000e+00 0.000000e+00
2.025282e+00 1.999275e-01 0.000000e+00
2.025496e+00 3.998821e-01 0.000000e+00
2.025647e+00 5.998586e-01 0.000000e+00
2.025737e+00 7.998552e-01 0.000000e+00
2.025765e+00 9.998686e-01 0.000000e+00
2.025736e+00 1.199895e+00 0.000000e+00
2.025652e+00 1.399927e+00 0.000000e+00
2.025528e+00 1.599956e+00 0.000000e+00
2.025387e+00 1.799973e+00 0.000000e+00
2.025264e+00 1.999973e+00 0.000000e+00
2.250000e+00 0.000000e+00 0.000000e+00
2.250231e+00 1.999509e-01 0.000000e+00
2.250408e+00 3.999268e-01 0.000000e+00
2.250534e+00 5.999236e-01 0.000000e+00
2.250607e+00 7.999370e-01 0.000000e+00
2.250630e+00 9.999630e-01 0.000000e+00
2.250605e+00 1.199997e+00 0.000000e+00
2.250542e+00 1.400032e+00 0.000000e+00
2.250452e+00 1.600061e+00 0.000000e+00
2.250355e+00 1.800080e+00 0.000000e+00
2.250279e+00 2.000086e+00 0.000000e+00
2.475000e+00 0.000000e+00 0.000000e+00
2.475183e+00 1.999668e-01 0.000000e+00
2.475327e+00 3.999574e-01 0.000000e+00
2.475429e+00 5.999666e-01 0.000000e+00
2.475487e+00 7.999900e-01 0.000000e+00
2.475505e+00 1.000023e+00 0.000000e+00
2.475488e+00 1.200060e+00 0.000000e+00
2.475441e+00 1.400096e+00 0.000000e+00
2.475378e+00 1.600126e+00 0.000000e+00
2.475314e+00 1.800147e+00 0.000000e+00
2.475270e+00 2.000157e+00 0.000000e+00
2.700000e+00 0.000000e+00 0.000000e+00
2.700142e+00 1.999790e-01 0.000000e+00
2.700253e+00 3.999786e-01 0.000000e+00
2.700332e+00 5.999953e-01 0.000000e+00
2.700377e+00 8.000243e-01 0.000000e+00
2.700392e+00 1.000061e+00 0.000000e+00
2.700380e+00 1.200100e+00 0.000000e+00
2.700347e+00 1.400136e+00 0.000000e+00
2.700304e+00 1.600166e+00 0.000000e+00
2.700264e+00 1.800188e+00 0.000000e+00
2.700240e+00 2.000203e+00 0.000000e+00
2.925000e+00 0.000000e+00 0.000000e+00
2.925104e+00 1.999875e-01 0.000000e+00
2.925186e+00 3.999939e-01 0.000000e+00
2.925243e+00 6.000155e-01 0.000000e+00
2.925276e+00 8.000481e-01 0.000000e+00
2.925287e+00 1.000087e+00 0.000000e+00
2.925279e+00 1.200126e+00 0.000000e+00
2.925258e+00 1.400162e+00 0.000000e+00
2.925230e+00 1.600193e+00 0.000000e+00
2.925205e+00 1.800217e+00 0.000000e+00
2.925195e+00 2.000235e+00 0.000000e+00
3.150000e+00 0.000000e+00 0.000000e+00
3.150070e+00 1.999945e-01 0.000000e+00
3.150123e+00 4.000064e-01 0.000000e+00
3.150160e+00 6.000324e-01 0.000000e+00
3.150181e+00 8.000678e-01 0.000000e+00
3.150188e+00 1.000108e+00 0.000000e+00
3.150183e+00 1.200148e+00 0.000000e+00
3.150171e+00 1.400184e+00 0.000000e+00
3.150154e+00 1.600215e+00 0.000000e+00
3.150141e+00 1.800240e+00 0.000000e+00
3.150136e+00 2.000261e+00 0.000000e+00
3.375000e+00 0.000000e+00 0.000000e+00
3.375037e+00 2.000015e-01 0.000000e+00
3.375062e+00 4.000203e-01 0.000000e+00
3.375079e+00 6.000507e-01 0.000000e+00
3.375090e+00 8.000886e-01 0.000000e+00
3.375093e+00 1.000129e+00 0.000000e+00
3.375091e+00 1.200170e+00 0.000000e+00
3.375085e+00 1.400206e+00 0.000000e+00
3.375077e+00 1.600237e+00 0.000000e+00
3.375072e+00 1.800263e+00 0.000000e+00
3.375070e+00 2.000285e+00 0.000000e+00
3.600000e+00 0.000000e+00 0.000000e+00
3.600000e+00 2.000176e-01 0.000000e+00
3.600000e+00 4.000426e-01 0.000000e+00
3.600000e+00 6.000753e-01 0.000000e+00
3.600000e+00 8.001140e-01 0.000000e+00
3.600000e+00 1.000155e+00 0.000000e+00
3.600000e+00 1.200196e+00 0.000000e+00
3.600000e+00 1.400232e+00 0.000000e+00
3.600000e+00 1.600264e+00 0.000000e+00
3.600000e+00 1.800290e+00 0.000000e+00
3.600000e+00 2.000313e+00 0.000000e+00
</DataArray>
</Points>
<Cells>
<DataArray Name="connectivity" type="Int32" format="ascii">
0 11 12 1
1 12 13 2
2 13 14 3
3 14 15 4
4 15 16 5
5 16 17 6
6 17 18 7
7 18 19 8
8 19 20 9
9 20 21 10
11 22 23 12
12 23 24 13
13 24 25 14
14 25 26 15
15 26 27 16
16 27 28 17
17 28 29 18
18 29 30 19
19 30 31 20
20 31 32 21
22 33 34 23
23 34 35 24
24 35 36 25
25 36 37 26
26 37 38 27
27 38 39 28
28 39 40 29
29 40 41 30
30 41 42 31
31 42 43 32
33 44 45 34
34 45 46 35
35 46 47 36
36 47 48 37
37 48 49 38
38 49 50 39
39 50 51 40
40 51 52 41
41 52 53 42
42 53 54 43
44 55 56 45
45 56 57 46
46 57 58 47
47 58 59 48
48 59 60 49
49 60 61 50
50 61 62 51
51 62 63 52
52 63 64 53
53 64 65 54
55 66 67 56
56 67 68 57
57 68 69 58
58 69 70 59
59 70 71 60
60 71 72 61
61 72 73 62
62 73 74 63
63 74 75 64
64 75 76 65
66 77 78 67
67 78 79 68
68 79 80 69
69 80 81 70
70 81 82 71
71 82 83 72
72 83 84 73
73 84 85 74
74 85 86 75
75 86 87 76
77 88 89 78
78 89 90 79
79 90 91 80
80 91 92 81
81 92 93 82
82 93 94 83
83 94 95 84
84 95 96 85
85 96 97 86
86 97 98 87
88 99 100 89
89 100 101 90
90 101 102 91
91 102 103 92
92 103 104 93
93 104 105 94
94 105 106 95
95 106 107 96
96 107 108 97
97 108 109 98
99 110 111 100
100 111 112 101
101 112 113 102
102 113 114 103
103 114 115 104
104 115 116 105
105 116 117 106
106 117 118 107
107 118 119 108
108 119 120 109
110 121 122 111
111 122 123 112
112 123 124 113
113 124 125 114
114 125 126 115
115 126 127 116
116 127 128 117
117 128 129 118
118 129 130 119
119 130 131 120
121 132 133 122
122 133 134 123
123 134 135 124
124 135 136 125
125 136 137 126
126 137 138 127
127 138 139 128
128 139 140 129
129 140 141 130
130 141 142 131
132 143 144 133
133 144 145 134
134 145 146 135
135 146 147 136
136 147 148 137
137 148 149 138
138 149 150 139
139 150 151 140
140 151 152 141
141 152 153 142
143 154 155 144
144 155 156 145
145 156 157 146
146 157 158 147
147 158 159 148
148 159 160 149
149 160 161 150
150 161 162 151
151 162 163 152
152 163 164 153
154 165 166 155
155 166 167 156
156 167 168 157
157 168 169 158
158 169 170 159
159 170 171 160
160 171 172 161
161 172 173 162
162 173 174 163
163 174 175 164
165 176 177 166
166 177 178 167
167 178 179 168
168 179 180 169
169 180 181 170
170 181 182 171
171 182 183 172
172 183 184 173
173 184 185 174
174 185 186 175
</DataArray>
<DataArray Name="offsets" type="Int32" format="ascii">
4
8
12
16
20
24
28
32
36
40
44
48
52
56
60
64
68
72
76
80
84
88
92
96
100
104
108
112
116
120
124
128
132
136
140
144
148
152
156
160
164
168
172
176
180
184
188
192
196
200
204
208
212
216
220
224
228
232
236
240
244
248
252
256
260
264
268
272
276
280
284
288
292
296
300
304
308
312
316
320
324
328
332
336
340
344
348
352
356
360
364
368
372
376
380
384
388
392
396
400
404
408
412
416
420
424
428
432
436
440
444
448
452
456
460
464
468
472
476
480
484
488
492
496
500
504
508
512
516
520
524
528
532
536
540
544
548
552
556
560
564
568
572
576
580
584
588
592
596
600
604
608
612
616
620
624
628
632
636
640
</DataArray>
<DataArray Name="types" type="UInt8" format="ascii">
9
9
9
9
9
9
9
9
9
9
9
9
9
9
9
9
9
9
9
9
9
9
9
9
9
9
9
9
9
9
9
9
9
9
9
9
9
9
9
9
9
9
9
9
9
9
9
9
9
9
9
9
9
9
9
9
9
9
9
9
9
9
9
9
9
9
9
9
9
9
9
9
9
9
9
9
9
9
9
9
9
9
9
9
9
9
9
9
9
9
9
9
9
9
9
9
9
9
9
9
9
9
9
9
9
9
9
9
9
9
9
9
9
9
9
9
9
9
9
9
9
9
9
9
9
9
9
9
9
9
9
9
9
9
9
9
9
9
9
9
9
9
9
9
9
9
9
9
9
9
9
9
9
9
9
9
9
9
9
9
</DataArray>
</Cells>
<PointData>
<DataArray Name="disp" type="Float64" NumberOfComponents="3" format="ascii">
0.000000e+00 0.000000e+00 0.000000e+00
0.000000e+00 -5.919025e-04 0.000000e+00
0.000000e+00 -1.296121e-03 0.000000e+00
0.000000e+00 -2.123906e-03 0.000000e+00
0.000000e+00 -3.085738e-03 0.000000e+00
0.000000e+00 -4.182540e-03 0.000000e+00
0.000000e+00 -5.411762e-03 0.000000e+00
0.000000e+00 -6.724611e-03 0.000000e+00
0.000000e+00 -8.007591e-03 0.000000e+00
0.000000e+00 -9.111124e-03 0.000000e+00
0.000000e+00 -1.012500e-02 0.000000e+00
0.000000e+00 0.000000e+00 0.000000e+00
1.594165e-04 -5.648857e-04 0.000000e+00
2.945078e-04 -1.235888e-03 0.000000e+00
4.185827e-04 -2.017668e-03 0.000000e+00
5.299233e-04 -2.918978e-03 0.000000e+00
6.211697e-04 -3.944686e-03 0.000000e+00
6.671625e-04 -5.099069e-03 0.000000e+00
6.183891e-04 -6.367474e-03 0.000000e+00
4.220500e-04 -7.706296e-03 0.000000e+00
9.597719e-05 -9.025825e-03 0.000000e+00
0.000000e+00 -1.012500e-02 0.000000e+00
0.000000e+00 0.000000e+00 0.000000e+00
2.925764e-04 -5.146512e-04 0.000000e+00
5.373326e-04 -1.106464e-03 0.000000e+00
7.564304e-04 -1.771270e-03 0.000000e+00
9.514608e-04 -2.512362e-03 0.000000e+00
1.113001e-03 -3.336313e-03 0.000000e+00
1.217625e-03 -4.255735e-03 0.000000e+00
1.217896e-03 -5.306042e-03 0.000000e+00
1.049937e-03 -6.559027e-03 0.000000e+00
6.645261e-04 -8.156170e-03 0.000000e+00
0.000000e+00 -1.012500e-02 0.000000e+00
0.000000e+00 0.000000e+00 0.000000e+00
3.881454e-04 -4.436535e-04 0.000000e+00
7.011426e-04 -9.308749e-04 0.000000e+00
9.661493e-04 -1.451472e-03 0.000000e+00
1.192642e-03 -1.994728e-03 0.000000e+00
1.374803e-03 -2.549091e-03 0.000000e+00
1.495691e-03 -3.096545e-03 0.000000e+00
1.527269e-03 -3.610860e-03 0.000000e+00
1.411195e-03 -4.049683e-03 0.000000e+00
1.088264e-03 -4.287031e-03 0.000000e+00
-3.356971e-04 -3.974562e-03 0.000000e+00
0.000000e+00 0.000000e+00 0.000000e+00
4.392011e-04 -3.619417e-04 0.000000e+00
7.808550e-04 -7.359899e-04 0.000000e+00
1.054247e-03 -1.112445e-03 0.000000e+00
1.269574e-03 -1.478419e-03 0.000000e+00
1.423266e-03 -1.817598e-03 0.000000e+00
1.497386e-03 -2.110980e-03 0.000000e+00
1.459428e-03 -2.334315e-03 0.000000e+00
1.253915e-03 -2.456701e-03 0.000000e+00
6.982221e-04 -2.442292e-03 0.000000e+00
-3.060159e-04 -2.503681e-03 0.000000e+00
0.000000e+00 0.000000e+00 0.000000e+00
4.488593e-04 -2.811467e-04 0.000000e+00
7.879654e-04 -5.535330e-04 0.000000e+00
1.046756e-03 -8.110020e-04 0.000000e+00
1.234886e-03 -1.044016e-03 0.000000e+00
1.349271e-03 -1.240279e-03 0.000000e+00
1.374400e-03 -1.386752e-03 0.000000e+00
1.282305e-03 -1.472655e-03 0.000000e+00
1.021290e-03 -1.492148e-03 0.000000e+00
5.369080e-04 -1.479631e-03 0.000000e+00
-1.207870e-04 -1.485210e-03 0.000000e+00
0.000000e+00 0.000000e+00 0.000000e+00
4.268048e-04 -2.086794e-04 0.000000e+00
7.449773e-04 -3.970004e-04 0.000000e+00
9.794387e-04 -5.634244e-04 0.000000e+00
1.137963e-03 -7.023283e-04 0.000000e+00
1.218223e-03 -8.066594e-04 0.000000e+00
1.209436e-03 -8.702058e-04 0.000000e+00
1.092312e-03 -8.908601e-04 0.000000e+00
8.446089e-04 -8.775509e-04 0.000000e+00
4.662623e-04 -8.571533e-04 0.000000e+00
2.922494e-05 -8.740097e-04 0.000000e+00
0.000000e+00 0.000000e+00 0.000000e+00
3.853339e-04 -1.499873e-04 0.000000e+00
6.730786e-04 -2.747381e-04 0.000000e+00
8.797067e-04 -3.751661e-04 0.000000e+00
1.010866e-03 -4.492863e-04 0.000000e+00
1.066191e-03 -4.945538e-04 0.000000e+00
1.039818e-03 -5.098303e-04 0.000000e+00
9.228261e-04 -4.988333e-04 0.000000e+00
7.137280e-04 -4.738266e-04 0.000000e+00
4.338481e-04 -4.568893e-04 0.000000e+00
1.425853e-04 -4.679782e-04 0.000000e+00
0.000000e+00 0.000000e+00 0.000000e+00
3.346080e-04 -1.054221e-04 0.000000e+00
5.867940e-04 -1.831674e-04 0.000000e+00
7.648676e-04 -2.371192e-04 0.000000e+00
8.730601e-04 -2.683395e-04 0.000000e+00
9.121536e-04 -2.769679e-04 0.000000e+00
8.803378e-04 -2.653403e-04 0.000000e+00
7.775215e-04 -2.397304e-04 0.000000e+00
6.128483e-04 -2.117697e-04 0.000000e+00
4.113563e-04 -1.952312e-04 0.000000e+00
2.194760e-04 -2.014189e-04 0.000000e+00
0.000000e+00 0.000000e+00 0.000000e+00
2.817385e-04 -7.251239e-05 0.000000e+00
4.963020e-04 -1.179195e-04 0.000000e+00
6.472882e-04 -1.413505e-04 0.000000e+00
7.365303e-04 -1.448139e-04 0.000000e+00
7.653982e-04 -1.313511e-04 0.000000e+00
7.355851e-04 -1.051020e-04 0.000000e+00
6.524277e-04 -7.296221e-05 0.000000e+00
5.284450e-04 -4.382971e-05 0.000000e+00
3.868205e-04 -2.660014e-05 0.000000e+00
2.635646e-04 -2.684907e-05 0.000000e+00
0.000000e+00 0.000000e+00 0.000000e+00
2.304326e-04 -4.905117e-05 0.000000e+00
4.084775e-04 -7.315184e-05 0.000000e+00
5.341393e-04 -7.639493e-05 0.000000e+00
6.070433e-04 -6.307571e-05 0.000000e+00
6.295542e-04 -3.693497e-05 0.000000e+00
6.053525e-04 -3.284414e-06 0.000000e+00
5.418544e-04 3.179380e-05 0.000000e+00
4.516679e-04 6.146664e-05 0.000000e+00
3.547870e-04 8.021695e-05 0.000000e+00
2.791325e-04 8.555358e-05 0.000000e+00
0.000000e+00 0.000000e+00 0.000000e+00
1.834217e-04 -3.319735e-05 0.000000e+00
3.272246e-04 -4.258103e-05 0.000000e+00
4.286420e-04 -3.338497e-05 0.000000e+00
4.871294e-04 -1.002142e-05 0.000000e+00
5.053635e-04 2.282915e-05 0.000000e+00
4.876198e-04 6.007989e-05 0.000000e+00
4.412229e-04 9.620396e-05 0.000000e+00
3.778206e-04 1.262107e-04 0.000000e+00
3.136203e-04 1.466060e-04 0.000000e+00
2.699567e-04 1.569002e-04 0.000000e+00
0.000000e+00 0.000000e+00 0.000000e+00
1.417660e-04 -2.103275e-05 0.000000e+00
2.532277e-04 -2.140153e-05 0.000000e+00
3.317874e-04 -4.727603e-06 0.000000e+00
3.771723e-04 2.434909e-05 0.000000e+00
3.917554e-04 6.084007e-05 0.000000e+00
3.795850e-04 9.957731e-05 0.000000e+00
3.472962e-04 1.358763e-04 0.000000e+00
3.043696e-04 1.661765e-04 0.000000e+00
2.635475e-04 1.882738e-04 0.000000e+00
2.401970e-04 2.029269e-04 0.000000e+00
0.000000e+00 0.000000e+00 0.000000e+00
1.043903e-04 -1.250421e-05 0.000000e+00
1.858081e-04 -6.089490e-06 0.000000e+00
2.428451e-04 1.554228e-05 0.000000e+00
2.759038e-04 4.812057e-05 0.000000e+00
2.868097e-04 8.659754e-05 0.000000e+00
2.790120e-04 1.259778e-04 0.000000e+00
2.576788e-04 1.624244e-04 0.000000e+00
2.300372e-04 1.930307e-04 0.000000e+00
2.053370e-04 2.166489e-04 0.000000e+00
1.943878e-04 2.348122e-04 0.000000e+00
0.000000e+00 0.000000e+00 0.000000e+00
7.022473e-05 -5.511776e-06 0.000000e+00
1.230141e-04 6.438826e-06 0.000000e+00
1.597224e-04 3.247450e-05 0.000000e+00
1.809489e-04 6.779193e-05 0.000000e+00
1.881013e-04 1.076516e-04 0.000000e+00
1.835141e-04 1.475149e-04 0.000000e+00
1.706480e-04 1.840025e-04 0.000000e+00
1.544048e-04 2.149665e-04 0.000000e+00
1.406593e-04 2.397904e-04 0.000000e+00
1.363193e-04 2.604989e-04 0.000000e+00
0.000000e+00 0.000000e+00 0.000000e+00
3.715253e-05 1.461818e-06 0.000000e+00
6.189258e-05 2.027848e-05 0.000000e+00
7.947786e-05 5.076028e-05 0.000000e+00
8.971845e-05 8.857265e-05 0.000000e+00
9.318438e-05 1.293577e-04 0.000000e+00
9.108934e-05 1.696593e-04 0.000000e+00
8.504673e-05 2.062461e-04 0.000000e+00
7.755058e-05 2.374910e-04 0.000000e+00
7.149683e-05 2.631660e-04 0.000000e+00
7.015137e-05 2.855039e-04 0.000000e+00
0.000000e+00 0.000000e+00 0.000000e+00
0.000000e+00 1.761711e-05 0.000000e+00
0.000000e+00 4.258251e-05 0.000000e+00
0.000000e+00 7.532577e-05 0.000000e+00
0.000000e+00 1.140437e-04 0.000000e+00
0.000000e+00 1.551639e-04 0.000000e+00
0.000000e+00 1.956474e-04 0.000000e+00
0.000000e+00 2.324184e-04 0.000000e+00
0.000000e+00 2.638159e-04 0.000000e+00
0.000000e+00 2.897998e-04 0.000000e+00
0.000000e+00 3.126581e-04 0.000000e+00
</DataArray>
<DataArray Name="shear" type="Float64" NumberOfComponents="1" format="ascii">
3.169231e-03
3.902541e-03
5.094272e-03
6.280137e-03
7.443027e-03
8.513389e-03
9.265851e-03
9.247354e-03
8.026911e-03
6.156440e-03
5.365934e-03
3.138002e-03
3.805406e-03
4.890597e-03
5.974543e-03
7.059956e-03
8.105884e-03
8.980281e-03
9.409964e-03
9.089420e-03
7.832455e-03
6.660173e-03
3.124658e-03
3.615302e-03
4.411153e-03
5.227722e-03
6.097856e-03
7.049347e-03
8.118579e-03
9.346259e-03
1.079895e-02
1.179299e-02
1.183170e-02
3.075499e-03
3.354295e-03
3.793913e-03
4.275766e-03
4.809068e-03
5.429188e-03
6.192350e-03
7.177282e-03
8.482833e-03
8.919240e-03
9.387934e-03
2.943499e-03
3.030824e-03
3.151904e-03
3.351292e-03
3.586004e-03
3.835776e-03
4.065389e-03
4.187758e-03
3.880800e-03
2.376356e-03
6.986372e-04
2.723108e-03
2.676742e-03
2.575499e-03
2.578034e-03
2.615759e-03
2.641079e-03
2.599221e-03
2.390032e-03
1.819164e-03
7.390173e-04
4.531531e-04
2.434796e-03
2.318773e-03
2.103410e-03
1.995388e-03
1.926068e-03
1.848493e-03
1.712053e-03
1.450431e-03
9.813126e-04
2.660154e-04
3.845882e-04
2.113339e-03
1.975248e-03
1.725528e-03
1.570135e-03
1.457123e-03
1.348644e-03
1.204114e-03
9.810328e-04
6.317765e-04
1.139286e-04
2.976489e-04
1.789349e-03
1.657590e-03
1.424190e-03
1.268178e-03
1.154957e-03
1.054068e-03
9.340638e-04
7.620108e-04
5.038531e-04
1.279413e-04
1.750614e-04
1.481391e-03
1.368979e-03
1.177157e-03
1.049802e-03
9.615438e-04
8.869655e-04
7.981712e-04
6.669628e-04
4.676755e-04
1.752478e-04
4.832219e-05
1.198454e-03
1.110454e-03
9.723984e-04
8.884076e-04
8.357004e-04
7.902380e-04
7.259761e-04
6.217370e-04
4.598553e-04
2.286234e-04
7.145957e-05
9.480764e-04
8.853651e-04
8.006236e-04
7.632662e-04
7.478129e-04
7.272146e-04
6.800151e-04
5.933023e-04
4.593789e-04
2.829437e-04
1.781032e-04
7.294652e-04
6.894567e-04
6.554945e-04
6.660870e-04
6.841682e-04
6.821865e-04
6.461075e-04
5.721726e-04
4.625787e-04
3.347271e-04
2.683428e-04
5.362536e-04
5.184461e-04
5.392316e-04
5.962495e-04
6.408633e-04
6.508408e-04
6.216616e-04
5.578091e-04
4.692826e-04
3.806477e-04
3.409818e-04
3.630673e-04
3.755205e-04
4.607647e-04
5.566811e-04
6.169085e-04
6.326286e-04
6.072376e-04
5.509754e-04
4.792386e-04
4.178790e-04
3.952121e-04
2.104381e-04
2.870162e-04
4.315324e-04
5.438909e-04
6.080897e-04
6.255902e-04
6.031074e-04
5.524111e-04
4.916660e-04
4.449726e-04
4.302591e-04
1.444800e-04
2.699836e-04
4.277875e-04
5.400683e-04
6.052234e-04
6.244812e-04
6.046547e-04
5.570828e-04
5.001685e-04
4.567372e-04
4.431437e-04
</DataArray>
<DataArray Name="stress" type="Float64" NumberOfComponents="9" format="ascii">
-7.003229e+04 6.866022e+02 0.000000e+00 6.866022e+02 -9.151159e+04 0.000000e+00 0.000000e+00 0.000000e+00 0.000000e+00
-6.697759e+04 8.551136e+02 0.000000e+00 8.551136e+02 -9.191553e+04 0.000000e+00 0.000000e+00 0.000000e+00 0.000000e+00
-6.438203e+04 1.121856e+03 0.000000e+00 1.121856e+03 -9.426636e+04 0.000000e+00 0.000000e+00 0.000000e+00 0.000000e+00
-6.323464e+04 1.450873e+03 0.000000e+00 1.450873e+03 -9.697847e+04 0.000000e+00 0.000000e+00 0.000000e+00 0.000000e+00
-6.307817e+04 1.847368e+03 0.000000e+00 1.847368e+03 -1.002407e+05 0.000000e+00 0.000000e+00 0.000000e+00 0.000000e+00
-6.396054e+04 2.304371e+03 0.000000e+00 2.304371e+03 -1.041124e+05 0.000000e+00 0.000000e+00 0.000000e+00 0.000000e+00
-6.591995e+04 2.645320e+03 0.000000e+00 2.645320e+03 -1.084517e+05 0.000000e+00 0.000000e+00 0.000000e+00 0.000000e+00
-6.882982e+04 2.545884e+03 0.000000e+00 2.545884e+03 -1.127339e+05 0.000000e+00 0.000000e+00 0.000000e+00 0.000000e+00
-7.328407e+04 1.542735e+03 0.000000e+00 1.542735e+03 -1.158325e+05 0.000000e+00 0.000000e+00 0.000000e+00 0.000000e+00
-7.962738e+04 8.247533e+01 0.000000e+00 8.247533e+01 -1.172373e+05 0.000000e+00 0.000000e+00 0.000000e+00 0.000000e+00
-8.205820e+04 -3.189448e+02 0.000000e+00 -3.189448e+02 -1.167416e+05 0.000000e+00 0.000000e+00 0.000000e+00 0.000000e+00
-6.980573e+04 2.356499e+03 0.000000e+00 2.356499e+03 -9.036394e+04 0.000000e+00 0.000000e+00 0.000000e+00 0.000000e+00
-6.698352e+04 2.451587e+03 0.000000e+00 2.451587e+03 -9.080642e+04 0.000000e+00 0.000000e+00 0.000000e+00 0.000000e+00
-6.458030e+04 2.709978e+03 0.000000e+00 2.709978e+03 -9.300729e+04 0.000000e+00 0.000000e+00 0.000000e+00 0.000000e+00
-6.354096e+04 3.224144e+03 0.000000e+00 3.224144e+03 -9.542815e+04 0.000000e+00 0.000000e+00 0.000000e+00 0.000000e+00
-6.348177e+04 3.916580e+03 0.000000e+00 3.916580e+03 -9.838136e+04 0.000000e+00 0.000000e+00 0.000000e+00 0.000000e+00
-6.436374e+04 4.690105e+03 0.000000e+00 4.690105e+03 -1.019867e+05 0.000000e+00 0.000000e+00 0.000000e+00 0.000000e+00
-6.617154e+04 5.256261e+03 0.000000e+00 5.256261e+03 -1.062512e+05 0.000000e+00 0.000000e+00 0.000000e+00 0.000000e+00
-6.878945e+04 5.147059e+03 0.000000e+00 5.147059e+03 -1.111332e+05 0.000000e+00 0.000000e+00 0.000000e+00 0.000000e+00
-7.259087e+04 3.735802e+03 0.000000e+00 3.735802e+03 -1.163557e+05 0.000000e+00 0.000000e+00 0.000000e+00 0.000000e+00
-7.809493e+04 1.423408e+03 0.000000e+00 1.423408e+03 -1.204638e+05 0.000000e+00 0.000000e+00 0.000000e+00 0.000000e+00
-8.386710e+04 -7.814379e+02 0.000000e+00 -7.814379e+02 -1.241071e+05 0.000000e+00 0.000000e+00 0.000000e+00 0.000000e+00
-6.928342e+04 4.485069e+03 0.000000e+00 4.485069e+03 -8.779930e+04 0.000000e+00 0.000000e+00 0.000000e+00 0.000000e+00
-6.703752e+04 4.565320e+03 0.000000e+00 4.565320e+03 -8.809777e+04 0.000000e+00 0.000000e+00 0.000000e+00 0.000000e+00
-6.512757e+04 4.916240e+03 0.000000e+00 4.916240e+03 -8.971529e+04 0.000000e+00 0.000000e+00 0.000000e+00 0.000000e+00
-6.439044e+04 5.797594e+03 0.000000e+00 5.797594e+03 -9.143337e+04 0.000000e+00 0.000000e+00 0.000000e+00 0.000000e+00
-6.459254e+04 7.054520e+03 0.000000e+00 7.054520e+03 -9.341705e+04 0.000000e+00 0.000000e+00 0.000000e+00 0.000000e+00
-6.556712e+04 8.555501e+03 0.000000e+00 8.555501e+03 -9.586891e+04 0.000000e+00 0.000000e+00 0.000000e+00 0.000000e+00
-6.728912e+04 1.009497e+04 0.000000e+00 1.009497e+04 -9.904636e+04 0.000000e+00 0.000000e+00 0.000000e+00 0.000000e+00
-6.981848e+04 1.142301e+04 0.000000e+00 1.142301e+04 -1.035291e+05 0.000000e+00 0.000000e+00 0.000000e+00 0.000000e+00
-7.401165e+04 1.242704e+04 0.000000e+00 1.242704e+04 -1.107026e+05 0.000000e+00 0.000000e+00 0.000000e+00 0.000000e+00
-8.293902e+04 1.246560e+04 0.000000e+00 1.246560e+04 -1.218002e+05 0.000000e+00 0.000000e+00 0.000000e+00 0.000000e+00
-9.758298e+04 1.229436e+04 0.000000e+00 1.229436e+04 -1.344281e+05 0.000000e+00 0.000000e+00 0.000000e+00 0.000000e+00
-6.846653e+04 5.930204e+03 0.000000e+00 5.930204e+03 -8.422495e+04 0.000000e+00 0.000000e+00 0.000000e+00 0.000000e+00
-6.699455e+04 5.983620e+03 0.000000e+00 5.983620e+03 -8.435386e+04 0.000000e+00 0.000000e+00 0.000000e+00 0.000000e+00
-6.584899e+04 6.300032e+03 0.000000e+00 6.300032e+03 -8.523730e+04 0.000000e+00 0.000000e+00 0.000000e+00 0.000000e+00
-6.557725e+04 7.231090e+03 0.000000e+00 7.231090e+03 -8.602523e+04 0.000000e+00 0.000000e+00 0.000000e+00 0.000000e+00
-6.598458e+04 8.570633e+03 0.000000e+00 8.570633e+03 -8.663150e+04 0.000000e+00 0.000000e+00 0.000000e+00 0.000000e+00
-6.694145e+04 1.012734e+04 0.000000e+00 1.012734e+04 -8.689509e+04 0.000000e+00 0.000000e+00 0.000000e+00 0.000000e+00
-6.822734e+04 1.179908e+04 0.000000e+00 1.179908e+04 -8.667277e+04 0.000000e+00 0.000000e+00 0.000000e+00 0.000000e+00
-6.962230e+04 1.343414e+04 0.000000e+00 1.343414e+04 -8.551942e+04 0.000000e+00 0.000000e+00 0.000000e+00 0.000000e+00
-7.108646e+04 1.494033e+04 0.000000e+00 1.494033e+04 -8.247977e+04 0.000000e+00 0.000000e+00 0.000000e+00 0.000000e+00
-7.156191e+04 1.363478e+04 0.000000e+00 1.363478e+04 -7.476641e+04 0.000000e+00 0.000000e+00 0.000000e+00 0.000000e+00
-7.171391e+04 1.207329e+04 0.000000e+00 1.207329e+04 -7.087276e+04 0.000000e+00 0.000000e+00 0.000000e+00 0.000000e+00
-6.742976e+04 6.669889e+03 0.000000e+00 6.669889e+03 -8.007667e+04 0.000000e+00 0.000000e+00 0.000000e+00 0.000000e+00
-6.680412e+04 6.677340e+03 0.000000e+00 6.677340e+03 -8.007312e+04 0.000000e+00 0.000000e+00 0.000000e+00 0.000000e+00
-6.645817e+04 6.809874e+03 0.000000e+00 6.809874e+03 -8.025259e+04 0.000000e+00 0.000000e+00 0.000000e+00 0.000000e+00
-6.669902e+04 7.479241e+03 0.000000e+00 7.479241e+03 -8.015260e+04 0.000000e+00 0.000000e+00 0.000000e+00 0.000000e+00
-6.739540e+04 8.413006e+03 0.000000e+00 8.413006e+03 -7.964887e+04 0.000000e+00 0.000000e+00 0.000000e+00 0.000000e+00
-6.844295e+04 9.390043e+03 0.000000e+00 9.390043e+03 -7.857927e+04 0.000000e+00 0.000000e+00 0.000000e+00 0.000000e+00
-6.969640e+04 1.018229e+04 0.000000e+00 1.018229e+04 -7.672977e+04 0.000000e+00 0.000000e+00 0.000000e+00 0.000000e+00
-7.099016e+04 1.052673e+04 0.000000e+00 1.052673e+04 -7.376669e+04 0.000000e+00 0.000000e+00 0.000000e+00 0.000000e+00
-7.192674e+04 9.582021e+03 0.000000e+00 9.582021e+03 -6.916234e+04 0.000000e+00 0.000000e+00 0.000000e+00 0.000000e+00
-6.986035e+04 5.523117e+03 0.000000e+00 5.523117e+03 -6.444514e+04 0.000000e+00 0.000000e+00 0.000000e+00 0.000000e+00
-6.068055e+04 1.679362e+03 0.000000e+00 1.679362e+03 -5.981170e+04 0.000000e+00 0.000000e+00 0.000000e+00 0.000000e+00
-6.628173e+04 6.784453e+03 0.000000e+00 6.784453e+03 -7.587694e+04 0.000000e+00 0.000000e+00 0.000000e+00 0.000000e+00
-6.643959e+04 6.711070e+03 0.000000e+00 6.711070e+03 -7.577600e+04 0.000000e+00 0.000000e+00 0.000000e+00 0.000000e+00
-6.679487e+04 6.583275e+03 0.000000e+00 6.583275e+03 -7.544067e+04 0.000000e+00 0.000000e+00 0.000000e+00 0.000000e+00
-6.739898e+04 6.845828e+03 0.000000e+00 6.845828e+03 -7.480604e+04 0.000000e+00 0.000000e+00 0.000000e+00 0.000000e+00
-6.820879e+04 7.230794e+03 0.000000e+00 7.230794e+03 -7.373321e+04 0.000000e+00 0.000000e+00 0.000000e+00 0.000000e+00
-6.913768e+04 7.510636e+03 0.000000e+00 7.510636e+03 -7.213940e+04 0.000000e+00 0.000000e+00 0.000000e+00 0.000000e+00
-7.001580e+04 7.427595e+03 0.000000e+00 7.427595e+03 -6.994080e+04 0.000000e+00 0.000000e+00 0.000000e+00 0.000000e+00
-7.051601e+04 6.648769e+03 0.000000e+00 6.648769e+03 -6.710429e+04 0.000000e+00 0.000000e+00 0.000000e+00 0.000000e+00
-6.961754e+04 4.643089e+03 0.000000e+00 4.643089e+03 -6.398630e+04 0.000000e+00 0.000000e+00 0.000000e+00 0.000000e+00
-6.423421e+04 1.638174e+03 0.000000e+00 1.638174e+03 -6.155833e+04 0.000000e+00 0.000000e+00 0.000000e+00 0.000000e+00
-5.675611e+04 1.523754e+02 0.000000e+00 1.523754e+02 -5.960280e+04 0.000000e+00 0.000000e+00 0.000000e+00 0.000000e+00
-6.513886e+04 6.436602e+03 0.000000e+00 6.436602e+03 -7.205842e+04 0.000000e+00 0.000000e+00 0.000000e+00 0.000000e+00
-6.590688e+04 6.291282e+03 0.000000e+00 6.291282e+03 -7.191059e+04 0.000000e+00 0.000000e+00 0.000000e+00 0.000000e+00
-6.678575e+04 5.933478e+03 0.000000e+00 5.933478e+03 -7.128956e+04 0.000000e+00 0.000000e+00 0.000000e+00 0.000000e+00
-6.760441e+04 5.818507e+03 0.000000e+00 5.818507e+03 -7.042877e+04 0.000000e+00 0.000000e+00 0.000000e+00 0.000000e+00
-6.838568e+04 5.719894e+03 0.000000e+00 5.719894e+03 -6.923848e+04 0.000000e+00 0.000000e+00 0.000000e+00 0.000000e+00
-6.905395e+04 5.458235e+03 0.000000e+00 5.458235e+03 -6.767657e+04 0.000000e+00 0.000000e+00 0.000000e+00 0.000000e+00
-6.941399e+04 4.827148e+03 0.000000e+00 4.827148e+03 -6.577257e+04 0.000000e+00 0.000000e+00 0.000000e+00 0.000000e+00
-6.902041e+04 3.630488e+03 0.000000e+00 3.630488e+03 -6.367749e+04 0.000000e+00 0.000000e+00 0.000000e+00 0.000000e+00
-6.691376e+04 1.843917e+03 0.000000e+00 1.843917e+03 -6.176736e+04 0.000000e+00 0.000000e+00 0.000000e+00 0.000000e+00
-6.186840e+04 2.119284e+02 0.000000e+00 2.119284e+02 -6.051825e+04 0.000000e+00 0.000000e+00 0.000000e+00 0.000000e+00
-5.678441e+04 -4.147185e+02 0.000000e+00 -4.147185e+02 -5.952264e+04 0.000000e+00 0.000000e+00 0.000000e+00 0.000000e+00
-6.412378e+04 5.822775e+03 0.000000e+00 5.822775e+03 -6.890523e+04 0.000000e+00 0.000000e+00 0.000000e+00 0.000000e+00
-6.526346e+04 5.620838e+03 0.000000e+00 5.620838e+03 -6.873254e+04 0.000000e+00 0.000000e+00 0.000000e+00 0.000000e+00
-6.645504e+04 5.096056e+03 0.000000e+00 5.096056e+03 -6.798484e+04 0.000000e+00 0.000000e+00 0.000000e+00 0.000000e+00
-6.736109e+04 4.687976e+03 0.000000e+00 4.687976e+03 -6.708983e+04 0.000000e+00 0.000000e+00 0.000000e+00 0.000000e+00
-6.805385e+04 4.256222e+03 0.000000e+00 4.256222e+03 -6.599129e+04 0.000000e+00 0.000000e+00 0.000000e+00 0.000000e+00
-6.845846e+04 3.671615e+03 0.000000e+00 3.671615e+03 -6.468890e+04 0.000000e+00 0.000000e+00 0.000000e+00 0.000000e+00
-6.838005e+04 2.819868e+03 0.000000e+00 2.819868e+03 -6.325474e+04 0.000000e+00 0.000000e+00 0.000000e+00 0.000000e+00
-6.744306e+04 1.662462e+03 0.000000e+00 1.662462e+03 -6.186464e+04 0.000000e+00 0.000000e+00 0.000000e+00 0.000000e+00
-6.510736e+04 3.965661e+02 0.000000e+00 3.965661e+02 -6.077541e+04 0.000000e+00 0.000000e+00 0.000000e+00 0.000000e+00
-6.102228e+04 -3.687956e+02 0.000000e+00 -3.687956e+02 -6.017896e+04 0.000000e+00 0.000000e+00 0.000000e+00 0.000000e+00
-5.750848e+04 -4.908694e+02 0.000000e+00 -4.908694e+02 -5.966245e+04 0.000000e+00 0.000000e+00 0.000000e+00 0.000000e+00
-6.326229e+04 5.046960e+03 0.000000e+00 5.046960e+03 -6.642256e+04 0.000000e+00 0.000000e+00 0.000000e+00 0.000000e+00
-6.455611e+04 4.821218e+03 0.000000e+00 4.821218e+03 -6.623455e+04 0.000000e+00 0.000000e+00 0.000000e+00 0.000000e+00
-6.589843e+04 4.212562e+03 0.000000e+00 4.212562e+03 -6.546538e+04 0.000000e+00 0.000000e+00 0.000000e+00 0.000000e+00
-6.683167e+04 3.643569e+03 0.000000e+00 3.643569e+03 -6.464287e+04 0.000000e+00 0.000000e+00 0.000000e+00 0.000000e+00
-6.743309e+04 3.030265e+03 0.000000e+00 3.030265e+03 -6.372804e+04 0.000000e+00 0.000000e+00 0.000000e+00 0.000000e+00
-6.763693e+04 2.310555e+03 0.000000e+00 2.310555e+03 -6.273500e+04 0.000000e+00 0.000000e+00 0.000000e+00 0.000000e+00
-6.729461e+04 1.445914e+03 0.000000e+00 1.445914e+03 -6.175324e+04 0.000000e+00 0.000000e+00 0.000000e+00 0.000000e+00
-6.618118e+04 4.942398e+02 0.000000e+00 4.942398e+02 -6.089802e+04 0.000000e+00 0.000000e+00 0.000000e+00 0.000000e+00
-6.406004e+04 -3.204906e+02 0.000000e+00 -3.204906e+02 -6.031437e+04 0.000000e+00 0.000000e+00 0.000000e+00 0.000000e+00
-6.094636e+04 -5.794780e+02 0.000000e+00 -5.794780e+02 -6.004664e+04 0.000000e+00 0.000000e+00 0.000000e+00 0.000000e+00
-5.847572e+04 -4.953982e+02 0.000000e+00 -4.953982e+02 -5.974878e+04 0.000000e+00 0.000000e+00 0.000000e+00 0.000000e+00
-6.253760e+04 4.218087e+03 0.000000e+00 4.218087e+03 -6.454464e+04 0.000000e+00 0.000000e+00 0.000000e+00 0.000000e+00
-6.386038e+04 3.994194e+03 0.000000e+00 3.994194e+03 -6.436159e+04 0.000000e+00 0.000000e+00 0.000000e+00 0.000000e+00
-6.523980e+04 3.383110e+03 0.000000e+00 3.383110e+03 -6.363571e+04 0.000000e+00 0.000000e+00 0.000000e+00 0.000000e+00
-6.615365e+04 2.747278e+03 0.000000e+00 2.747278e+03 -6.291489e+04 0.000000e+00 0.000000e+00 0.000000e+00 0.000000e+00
-6.668241e+04 2.075715e+03 0.000000e+00 2.075715e+03 -6.218936e+04 0.000000e+00 0.000000e+00 0.000000e+00 0.000000e+00
-6.677131e+04 1.348789e+03 0.000000e+00 1.348789e+03 -6.148048e+04 0.000000e+00 0.000000e+00 0.000000e+00 0.000000e+00
-6.633505e+04 5.775737e+02 0.000000e+00 5.775737e+02 -6.084770e+04 0.000000e+00 0.000000e+00 0.000000e+00 0.000000e+00
-6.527000e+04 -1.490489e+02 0.000000e+00 -1.490489e+02 -6.035618e+04 0.000000e+00 0.000000e+00 0.000000e+00 0.000000e+00
-6.352115e+04 -6.419729e+02 0.000000e+00 -6.419729e+02 -6.007368e+04 0.000000e+00 0.000000e+00 0.000000e+00 0.000000e+00
-6.120555e+04 -6.340156e+02 0.000000e+00 -6.340156e+02 -5.998312e+04 0.000000e+00 0.000000e+00 0.000000e+00 0.000000e+00
-5.946625e+04 -4.634169e+02 0.000000e+00 -4.634169e+02 -5.981385e+04 0.000000e+00 0.000000e+00 0.000000e+00 0.000000e+00
-6.196133e+04 3.419372e+03 0.000000e+00 3.419372e+03 -6.317369e+04 0.000000e+00 0.000000e+00 0.000000e+00 0.000000e+00
-6.322411e+04 3.201699e+03 0.000000e+00 3.201699e+03 -6.299634e+04 0.000000e+00 0.000000e+00 0.000000e+00 0.000000e+00
-6.455343e+04 2.624744e+03 0.000000e+00 2.624744e+03 -6.232977e+04 0.000000e+00 0.000000e+00 0.000000e+00 0.000000e+00
-6.544248e+04 2.009940e+03 0.000000e+00 2.009940e+03 -6.172423e+04 0.000000e+00 0.000000e+00 0.000000e+00 0.000000e+00
-6.592875e+04 1.369289e+03 0.000000e+00 1.369289e+03 -6.116939e+04 0.000000e+00 0.000000e+00 0.000000e+00 0.000000e+00
-6.597484e+04 7.074177e+02 0.000000e+00 7.074177e+02 -6.068075e+04 0.000000e+00 0.000000e+00 0.000000e+00 0.000000e+00
-6.555468e+04 6.579395e+01 0.000000e+00 6.579395e+01 -6.029370e+04 0.000000e+00 0.000000e+00 0.000000e+00 0.000000e+00
-6.464828e+04 -4.641028e+02 0.000000e+00 -4.641028e+02 -6.004482e+04 0.000000e+00 0.000000e+00 0.000000e+00 0.000000e+00
-6.328498e+04 -7.475739e+02 0.000000e+00 -7.475739e+02 -5.994479e+04 0.000000e+00 0.000000e+00 0.000000e+00 0.000000e+00
-6.160123e+04 -6.080942e+02 0.000000e+00 -6.080942e+02 -5.994859e+04 0.000000e+00 0.000000e+00 0.000000e+00 0.000000e+00
-6.039996e+04 -4.106371e+02 0.000000e+00 -4.106371e+02 -5.985764e+04 0.000000e+00 0.000000e+00 0.000000e+00 0.000000e+00
-6.151668e+04 2.642988e+03 0.000000e+00 2.642988e+03 -6.217494e+04 0.000000e+00 0.000000e+00 0.000000e+00 0.000000e+00
-6.266411e+04 2.455821e+03 0.000000e+00 2.455821e+03 -6.200594e+04 0.000000e+00 0.000000e+00 0.000000e+00 0.000000e+00
-6.392205e+04 1.959288e+03 0.000000e+00 1.959288e+03 -6.141456e+04 0.000000e+00 0.000000e+00 0.000000e+00 0.000000e+00
-6.478543e+04 1.424994e+03 0.000000e+00 1.424994e+03 -6.091582e+04 0.000000e+00 0.000000e+00 0.000000e+00 0.000000e+00
-6.524447e+04 8.625213e+02 0.000000e+00 8.625213e+02 -6.049362e+04 0.000000e+00 0.000000e+00 0.000000e+00 0.000000e+00
-6.529629e+04 3.028117e+02 0.000000e+00 3.028117e+02 -6.017107e+04 0.000000e+00 0.000000e+00 0.000000e+00 0.000000e+00
-6.495252e+04 -2.025730e+02 0.000000e+00 -2.025730e+02 -5.995869e+04 0.000000e+00 0.000000e+00 0.000000e+00 0.000000e+00
-6.423923e+04 -5.768182e+02 0.000000e+00 -5.768182e+02 -5.986362e+04 0.000000e+00 0.000000e+00 0.000000e+00 0.000000e+00
-6.321625e+04 -7.305677e+02 0.000000e+00 -7.305677e+02 -5.987163e+04 0.000000e+00 0.000000e+00 0.000000e+00 0.000000e+00
-6.202883e+04 -5.425925e+02 0.000000e+00 -5.425925e+02 -5.993068e+04 0.000000e+00 0.000000e+00 0.000000e+00 0.000000e+00
-6.122611e+04 -3.440951e+02 0.000000e+00 -3.440951e+02 -5.989329e+04 0.000000e+00 0.000000e+00 0.000000e+00 0.000000e+00
-6.116476e+04 1.935096e+03 0.000000e+00 1.935096e+03 -6.143784e+04 0.000000e+00 0.000000e+00 0.000000e+00 0.000000e+00
-6.220578e+04 1.789086e+03 0.000000e+00 1.789086e+03 -6.128577e+04 0.000000e+00 0.000000e+00 0.000000e+00 0.000000e+00
-6.339673e+04 1.394914e+03 0.000000e+00 1.394914e+03 -6.077236e+04 0.000000e+00 0.000000e+00 0.000000e+00 0.000000e+00
-6.422556e+04 9.608549e+02 0.000000e+00 9.608549e+02 -6.036712e+04 0.000000e+00 0.000000e+00 0.000000e+00 0.000000e+00
-6.467012e+04 5.063009e+02 0.000000e+00 5.063009e+02 -6.004960e+04 0.000000e+00 0.000000e+00 0.000000e+00 0.000000e+00
-6.475550e+04 6.689690e+01 0.000000e+00 6.689690e+01 -5.984563e+04 0.000000e+00 0.000000e+00 0.000000e+00 0.000000e+00
-6.450911e+04 -3.088900e+02 0.000000e+00 -3.088900e+02 -5.975359e+04 0.000000e+00 0.000000e+00 0.000000e+00 0.000000e+00
-6.397485e+04 -5.678563e+02 0.000000e+00 -5.678563e+02 -5.975424e+04 0.000000e+00 0.000000e+00 0.000000e+00 0.000000e+00
-6.323345e+04 -6.418884e+02 0.000000e+00 -6.418884e+02 -5.982810e+04 0.000000e+00 0.000000e+00 0.000000e+00 0.000000e+00
-6.242580e+04 -4.542311e+02 0.000000e+00 -4.542311e+02 -5.991937e+04 0.000000e+00 0.000000e+00 0.000000e+00 0.000000e+00
-6.191412e+04 -2.767776e+02 0.000000e+00 -2.767776e+02 -5.992040e+04 0.000000e+00 0.000000e+00 0.000000e+00 0.000000e+00
-6.089735e+04 1.318130e+03 0.000000e+00 1.318130e+03 -6.089873e+04 0.000000e+00 0.000000e+00 0.000000e+00 0.000000e+00
-6.185695e+04 1.208983e+03 0.000000e+00 1.208983e+03 -6.076484e+04 0.000000e+00 0.000000e+00 0.000000e+00 0.000000e+00
-6.298729e+04 9.152282e+02 0.000000e+00 9.152282e+02 -6.032171e+04 0.000000e+00 0.000000e+00 0.000000e+00 0.000000e+00
-6.378776e+04 5.915856e+02 0.000000e+00 5.915856e+02 -5.998526e+04 0.000000e+00 0.000000e+00 0.000000e+00 0.000000e+00
-6.423044e+04 2.626443e+02 0.000000e+00 2.626443e+02 -5.975321e+04 0.000000e+00 0.000000e+00 0.000000e+00 0.000000e+00
-6.435586e+04 -4.977506e+01 0.000000e+00 -4.977506e+01 -5.963407e+04 0.000000e+00 0.000000e+00 0.000000e+00 0.000000e+00
-6.419669e+04 -3.106682e+02 0.000000e+00 -3.106682e+02 -5.962009e+04 0.000000e+00 0.000000e+00 0.000000e+00 0.000000e+00
-6.380848e+04 -4.814737e+02 0.000000e+00 -4.814737e+02 -5.968754e+04 0.000000e+00 0.000000e+00 0.000000e+00 0.000000e+00
-6.328766e+04 -5.097478e+02 0.000000e+00 -5.097478e+02 -5.980313e+04 0.000000e+00 0.000000e+00 0.000000e+00 0.000000e+00
-6.276025e+04 -3.508140e+02 0.000000e+00 -3.508140e+02 -5.991384e+04 0.000000e+00 0.000000e+00 0.000000e+00 0.000000e+00
-6.245791e+04 -2.082982e+02 0.000000e+00 -2.082982e+02 -5.994045e+04 0.000000e+00 0.000000e+00 0.000000e+00 0.000000e+00
-6.069960e+04 7.464362e+02 0.000000e+00 7.464362e+02 -6.049191e+04 0.000000e+00 0.000000e+00 0.000000e+00 0.000000e+00
-6.160989e+04 6.801851e+02 0.000000e+00 6.801851e+02 -6.036509e+04 0.000000e+00 0.000000e+00 0.000000e+00 0.000000e+00
-6.271069e+04 5.021735e+02 0.000000e+00 5.021735e+02 -5.997268e+04 0.000000e+00 0.000000e+00 0.000000e+00 0.000000e+00
-6.349021e+04 3.088040e+02 0.000000e+00 3.088040e+02 -5.970224e+04 0.000000e+00 0.000000e+00 0.000000e+00 0.000000e+00
-6.393441e+04 1.106928e+02 0.000000e+00 1.106928e+02 -5.954544e+04 0.000000e+00 0.000000e+00 0.000000e+00 0.000000e+00
-6.408707e+04 -8.198634e+01 0.000000e+00 -8.198634e+01 -5.949777e+04 0.000000e+00 0.000000e+00 0.000000e+00 0.000000e+00
-6.399177e+04 -2.440609e+02 0.000000e+00 -2.440609e+02 -5.953856e+04 0.000000e+00 0.000000e+00 0.000000e+00 0.000000e+00
-6.371142e+04 -3.445830e+02 0.000000e+00 -3.445830e+02 -5.964711e+04 0.000000e+00 0.000000e+00 0.000000e+00 0.000000e+00
-6.334575e+04 -3.516960e+02 0.000000e+00 -3.516960e+02 -5.978941e+04 0.000000e+00 0.000000e+00 0.000000e+00 0.000000e+00
-6.300944e+04 -2.385618e+02 0.000000e+00 -2.385618e+02 -5.991092e+04 0.000000e+00 0.000000e+00 0.000000e+00 0.000000e+00
-6.284926e+04 -1.410606e+02 0.000000e+00 -1.410606e+02 -5.995533e+04 0.000000e+00 0.000000e+00 0.000000e+00 0.000000e+00
-6.054329e+04 2.114616e+02 0.000000e+00 2.114616e+02 -6.002721e+04 0.000000e+00 0.000000e+00 0.000000e+00 0.000000e+00
-6.149617e+04 2.301845e+02 0.000000e+00 2.301845e+02 -5.996089e+04 0.000000e+00 0.000000e+00 0.000000e+00 0.000000e+00
-6.257671e+04 1.850340e+02 0.000000e+00 1.850340e+02 -5.967241e+04 0.000000e+00 0.000000e+00 0.000000e+00 0.000000e+00
-6.332875e+04 1.179537e+02 0.000000e+00 1.179537e+02 -5.949882e+04 0.000000e+00 0.000000e+00 0.000000e+00 0.000000e+00
-6.377108e+04 3.274187e+01 0.000000e+00 3.274187e+01 -5.941331e+04 0.000000e+00 0.000000e+00 0.000000e+00 0.000000e+00
-6.393480e+04 -5.622754e+01 0.000000e+00 -5.622754e+01 -5.941498e+04 0.000000e+00 0.000000e+00 0.000000e+00 0.000000e+00
-6.387671e+04 -1.329083e+02 0.000000e+00 -1.329083e+02 -5.949085e+04 0.000000e+00 0.000000e+00 0.000000e+00 0.000000e+00
-6.366236e+04 -1.797297e+02 0.000000e+00 -1.797297e+02 -5.962425e+04 0.000000e+00 0.000000e+00 0.000000e+00 0.000000e+00
-6.338784e+04 -1.794071e+02 0.000000e+00 -1.794071e+02 -5.978262e+04 0.000000e+00 0.000000e+00 0.000000e+00 0.000000e+00
-6.316086e+04 -1.204408e+02 0.000000e+00 -1.204408e+02 -5.990743e+04 0.000000e+00 0.000000e+00 0.000000e+00 0.000000e+00
-6.308191e+04 -7.232702e+01 0.000000e+00 -7.232702e+01 -5.996182e+04 0.000000e+00 0.000000e+00 0.000000e+00 0.000000e+00
-6.038811e+04 -1.651501e+02 0.000000e+00 -1.651501e+02 -5.951574e+04 0.000000e+00 0.000000e+00 0.000000e+00 0.000000e+00
-6.143023e+04 -5.488729e+01 0.000000e+00 -5.488729e+01 -5.960988e+04 0.000000e+00 0.000000e+00 0.000000e+00 0.000000e+00
-6.253767e+04 4.830319e+00 0.000000e+00 4.830319e+00 -5.951829e+04 0.000000e+00 0.000000e+00 0.000000e+00 0.000000e+00
-6.328023e+04 9.216154e+00 0.000000e+00 9.216154e+00 -5.942096e+04 0.000000e+00 0.000000e+00 0.000000e+00 0.000000e+00
-6.372025e+04 -8.248095e+00 0.000000e+00 -8.248095e+00 -5.936886e+04 0.000000e+00 0.000000e+00 0.000000e+00 0.000000e+00
-6.388563e+04 -3.405833e+01 0.000000e+00 -3.405833e+01 -5.938647e+04 0.000000e+00 0.000000e+00 0.000000e+00 0.000000e+00
-6.383895e+04 -5.773713e+01 0.000000e+00 -5.773713e+01 -5.947426e+04 0.000000e+00 0.000000e+00 0.000000e+00 0.000000e+00
-6.364670e+04 -7.398067e+01 0.000000e+00 -7.398067e+01 -5.961542e+04 0.000000e+00 0.000000e+00 0.000000e+00 0.000000e+00
-6.340289e+04 -7.328223e+01 0.000000e+00 -7.328223e+01 -5.977945e+04 0.000000e+00 0.000000e+00 0.000000e+00 0.000000e+00
-6.321124e+04 -5.171152e+01 0.000000e+00 -5.171152e+01 -5.990605e+04 0.000000e+00 0.000000e+00 0.000000e+00 0.000000e+00
-6.315790e+04 -3.452102e+01 0.000000e+00 -3.452102e+01 -5.996302e+04 0.000000e+00 0.000000e+00 0.000000e+00 0.000000e+00
</DataArray>
<DataArray Name="vol_eps" type="Float64" NumberOfComponents="1" format="ascii">
-2.682096e-03
-2.504405e-03
-2.470371e-03
-2.544530e-03
-2.710429e-03
-2.984046e-03
-3.381909e-03
-3.881593e-03
-4.431235e-03
-4.961306e-03
-5.081437e-03
-2.591899e-03
-2.432933e-03
-2.405303e-03
-2.473921e-03
-2.632162e-03
-2.892796e-03
-3.269566e-03
-3.762335e-03
-4.378308e-03
-5.042525e-03
-5.673131e-03
-2.389543e-03
-2.261280e-03
-2.235098e-03
-2.287719e-03
-2.414222e-03
-2.615513e-03
-2.904146e-03
-3.314782e-03
-3.978804e-03
-5.198043e-03
-6.951171e-03
-2.103083e-03
-2.014709e-03
-1.994629e-03
-2.023971e-03
-2.084516e-03
-2.151245e-03
-2.191935e-03
-2.156989e-03
-1.947725e-03
-1.321753e-03
-9.927654e-04
-1.767177e-03
-1.725192e-03
-1.713317e-03
-1.720939e-03
-1.731678e-03
-1.725970e-03
-1.681541e-03
-1.567613e-03
-1.328752e-03
-9.051643e-04
-1.209161e-05
-1.422956e-03
-1.427731e-03
-1.430854e-03
-1.428810e-03
-1.410995e-03
-1.365068e-03
-1.276164e-03
-1.122807e-03
-8.654335e-04
-3.683181e-04
2.521923e-04
-1.102602e-03
-1.144365e-03
-1.162578e-03
-1.160148e-03
-1.133582e-03
-1.074628e-03
-9.723416e-04
-8.100843e-04
-5.532114e-04
-1.535492e-04
2.483770e-04
-8.303866e-04
-8.953707e-04
-9.266568e-04
-9.289298e-04
-9.028018e-04
-8.433330e-04
-7.440078e-04
-5.939707e-04
-3.762479e-04
-7.923054e-05
1.870256e-04
-6.137720e-04
-6.881683e-04
-7.287859e-04
-7.377532e-04
-7.162873e-04
-6.637897e-04
-5.775872e-04
-4.516646e-04
-2.803717e-04
-6.584912e-05
1.151915e-04
-4.477153e-04
-5.239046e-04
-5.694839e-04
-5.828048e-04
-5.679852e-04
-5.268588e-04
-4.578887e-04
-3.591001e-04
-2.307211e-04
-7.838337e-05
4.530755e-05
-3.244807e-04
-3.971828e-04
-4.423857e-04
-4.599640e-04
-4.536151e-04
-4.241894e-04
-3.725093e-04
-2.994920e-04
-2.073485e-04
-1.017111e-04
-1.844527e-05
-2.347699e-04
-2.992889e-04
-3.428089e-04
-3.650361e-04
-3.662701e-04
-3.480892e-04
-3.124989e-04
-2.614936e-04
-1.980420e-04
-1.276041e-04
-7.424544e-05
-1.667507e-04
-2.254482e-04
-2.688840e-04
-2.935661e-04
-3.005016e-04
-2.923656e-04
-2.708397e-04
-2.374809e-04
-1.961239e-04
-1.516993e-04
-1.196013e-04
-1.168018e-04
-1.706227e-04
-2.138245e-04
-2.409242e-04
-2.528928e-04
-2.527851e-04
-2.419635e-04
-2.223207e-04
-1.977010e-04
-1.721782e-04
-1.549286e-04
-7.738327e-05
-1.288803e-04
-1.734974e-04
-2.036557e-04
-2.204942e-04
-2.264111e-04
-2.232603e-04
-2.132779e-04
-2.001762e-04
-1.875091e-04
-1.804500e-04
-3.705789e-05
-9.538962e-05
-1.454158e-04
-1.801135e-04
-2.014003e-04
-2.113854e-04
-2.126803e-04
-2.084782e-04
-2.020837e-04
-1.967624e-04
-1.954251e-04
6.121591e-06
-6.807115e-05
-1.325569e-04
-1.718494e-04
-1.952559e-04
-2.065481e-04
-2.091735e-04
-2.068425e-04
-2.027292e-04
-1.998874e-04
-2.004004e-04
</DataArray>
</PointData>
</Piece>
</UnstructuredGrid>
</VTKFile>
