<?xml version="1.0"?>
<VTKFile type="UnstructuredGrid" version="0.1">
<UnstructuredGrid>
<FieldData>
<DataArray Name="TIME" type="Float64" format="ascii" NumberOfTuples="1">
0.000000e+00
</DataArray>
</FieldData>
<FieldData>
<DataArray Name="CYCLE" type="Int32" format="ascii" NumberOfTuples="1">
0
</DataArray>
</FieldData>
<Piece NumberOfPoints="187" NumberOfCells="160">
<Points>
<DataArray NumberOfComponents="3" type="Float64" format="ascii">
0.000000e+00 0.000000e+00 0.000000e+00
0.000000e+00 1.966804e-01 0.000000e+00
0.000000e+00 3.913595e-01 0.000000e+00
0.000000e+00 5.831791e-01 0.000000e+00
0.000000e+00 7.733283e-01 0.000000e+00
0.000000e+00 9.625595e-01 0.000000e+00
0.000000e+00 1.151778e+00 0.000000e+00
0.000000e+00 1.341762e+00 0.000000e+00
0.000000e+00 1.533515e+00 0.000000e+00
0.000000e+00 1.728626e+00 0.000000e+00
0.000000e+00 1.924625e+00 0.000000e+00
2.250000e-01 0.000000e+00 0.000000e+00
2.270385e-01 1.965867e-01 0.000000e+00
2.305110e-01 3.914915e-01 0.000000e+00
2.334660e-01 5.844570e-01 0.000000e+00
2.351101e-01 7.759771e-01 0.000000e+00
2.356778e-01 9.663657e-01 0.000000e+00
2.350912e-01 1.156205e+00 0.000000e+00
2.334590e-01 1.346230e+00 0.000000e+00
2.299419e-01 1.536791e+00 0.000000e+00
2.255329e-01 1.729053e+00 0.000000e+00
2.250000e-01 1.924625e+00 0.000000e+00
4.500000e-01 0.000000e+00 0.000000e+00
4.544685e-01 1.969703e-01 0.000000e+00
4.594911e-01 3.930248e-01 0.000000e+00
4.638821e-01 5.886378e-01 0.000000e+00
4.669881e-01 7.835649e-01 0.000000e+00
4.689242e-01 9.774172e-01 0.000000e+00
4.692818e-01 1.169777e+00 0.000000e+00
4.682651e-01 1.360499e+00 0.000000e+00
4.645017e-01 1.549615e+00 0.000000e+00
4.588874e-01 1.737244e+00 0.000000e+00
4.500000e-01 1.924625e+00 0.000000e+00
6.750000e-01 0.000000e+00 0.000000e+00
6.812512e-01 1.983800e-01 0.000000e+00
6.867234e-01 3.965406e-01 0.000000e+00
6.910335e-01 5.948761e-01 0.000000e+00
6.944096e-01 7.935548e-01 0.000000e+00
6.968265e-01 9.926134e-01 0.000000e+00
6.980812e-01 1.192104e+00 0.000000e+00
6.977316e-01 1.392208e+00 0.000000e+00
6.954271e-01 1.592804e+00 0.000000e+00
6.912700e-01 1.793404e+00 0.000000e+00
6.842093e-01 1.993102e+00 0.000000e+00
9.000000e-01 0.000000e+00 0.000000e+00
9.068151e-01 1.988797e-01 0.000000e+00
9.118878e-01 3.978731e-01 0.000000e+00
9.156142e-01 5.971980e-01 0.000000e+00
9.184700e-01 7.968858e-01 0.000000e+00
9.204132e-01 9.969826e-01 0.000000e+00
9.211874e-01 1.197512e+00 0.000000e+00
9.204963e-01 1.398373e+00 0.000000e+00
9.182914e-01 1.599300e+00 0.000000e+00
9.146809e-01 1.800028e+00 0.000000e+00
9.099829e-01 2.000138e+00 0.000000e+00
1.125000e+00 0.000000e+00 0.000000e+00
1.131890e+00 1.994240e-01 0.000000e+00
1.136253e+00 3.990179e-01 0.000000e+00
1.139472e+00 5.989776e-01 0.000000e+00
1.141882e+00 7.992939e-01 0.000000e+00
1.143399e+00 9.999622e-01 0.000000e+00
1.143869e+00 1.200943e+00 0.000000e+00
1.143162e+00 1.402087e+00 0.000000e+00
1.141290e+00 1.603157e+00 0.000000e+00
1.138523e+00 1.803851e+00 0.000000e+00
1.135605e+00 2.003927e+00 0.000000e+00
1.350000e+00 0.000000e+00 0.000000e+00
1.356466e+00 1.997957e-01 0.000000e+00
1.360184e+00 3.998389e-01 0.000000e+00
1.362967e+00 6.002076e-01 0.000000e+00
1.364975e+00 8.008769e-01 0.000000e+00
1.366184e+00 1.001849e+00 0.000000e+00
1.366514e+00 1.203042e+00 0.000000e+00
1.365921e+00 1.404290e+00 0.000000e+00
1.364490e+00 1.605384e+00 0.000000e+00
1.362603e+00 1.806037e+00 0.000000e+00
1.360868e+00 2.006188e+00 0.000000e+00
1.575000e+00 0.000000e+00 0.000000e+00
1.580736e+00 2.000711e-01 0.000000e+00
1.583899e+00 4.003734e-01 0.000000e+00
1.586269e+00 6.009667e-01 0.000000e+00
1.587968e+00 8.018392e-01 0.000000e+00
1.588965e+00 1.002944e+00 0.000000e+00
1.589247e+00 1.204188e+00 0.000000e+00
1.588828e+00 1.405439e+00 0.000000e+00
1.587859e+00 1.606498e+00 0.000000e+00
1.586720e+00 1.807140e+00 0.000000e+00
1.585820e+00 2.007365e+00 0.000000e+00
1.800000e+00 0.000000e+00 0.000000e+00
1.804823e+00 2.001958e-01 0.000000e+00
1.807516e+00 4.006440e-01 0.000000e+00
1.809533e+00 6.013489e-01 0.000000e+00
1.810983e+00 8.023037e-01 0.000000e+00
1.811836e+00 1.003431e+00 0.000000e+00
1.812122e+00 1.204656e+00 0.000000e+00
1.811895e+00 1.405851e+00 0.000000e+00
1.811348e+00 1.606842e+00 0.000000e+00
1.810790e+00 1.807484e+00 0.000000e+00
1.810480e+00 2.007802e+00 0.000000e+00
2.025000e+00 0.000000e+00 0.000000e+00
2.028868e+00 2.002181e-01 0.000000e+00
2.031134e+00 4.007083e-01 0.000000e+00
2.032857e+00 6.014457e-01 0.000000e+00
2.034088e+00 8.023959e-01 0.000000e+00
2.034840e+00 1.003488e+00 0.000000e+00
2.035153e+00 1.204646e+00 0.000000e+00
2.035119e+00 1.405752e+00 0.000000e+00
2.034916e+00 1.606669e+00 0.000000e+00
2.034773e+00 1.807323e+00 0.000000e+00
2.034847e+00 2.007747e+00 0.000000e+00
2.250000e+00 0.000000e+00 0.000000e+00
2.252972e+00 2.001860e-01 0.000000e+00
2.254847e+00 4.006510e-01 0.000000e+00
2.256287e+00 6.013526e-01 0.000000e+00
2.257327e+00 8.022451e-01 0.000000e+00
2.257997e+00 1.003261e+00 0.000000e+00
2.258344e+00 1.204320e+00 0.000000e+00
2.258477e+00 1.405327e+00 0.000000e+00
2.258527e+00 1.606185e+00 0.000000e+00
2.258649e+00 1.806862e+00 0.000000e+00
2.258942e+00 2.007399e+00 0.000000e+00
2.475000e+00 0.000000e+00 0.000000e+00
2.477182e+00 2.001324e-01 0.000000e+00
2.478696e+00 4.005417e-01 0.000000e+00
2.479866e+00 6.011652e-01 0.000000e+00
2.480728e+00 8.019593e-01 0.000000e+00
2.481320e+00 1.002861e+00 0.000000e+00
2.481695e+00 1.203804e+00 0.000000e+00
2.481941e+00 1.404719e+00 0.000000e+00
2.482147e+00 1.605546e+00 0.000000e+00
2.482416e+00 1.806260e+00 0.000000e+00
2.482809e+00 2.006900e+00 0.000000e+00
2.700000e+00 0.000000e+00 0.000000e+00
2.701521e+00 2.000789e-01 0.000000e+00
2.702695e+00 4.004080e-01 0.000000e+00
2.703617e+00 6.009337e-01 0.000000e+00
2.704315e+00 8.016069e-01 0.000000e+00
2.704823e+00 1.002384e+00 0.000000e+00
2.705188e+00 1.203221e+00 0.000000e+00
2.705477e+00 1.404064e+00 0.000000e+00
2.705753e+00 1.604870e+00 0.000000e+00
2.706081e+00 1.805628e+00 0.000000e+00
2.706487e+00 2.006367e+00 0.000000e+00
2.925000e+00 0.000000e+00 0.000000e+00
2.925994e+00 2.000287e-01 0.000000e+00
2.926845e+00 4.002640e-01 0.000000e+00
2.927536e+00 6.006853e-01 0.000000e+00
2.928077e+00 8.012533e-01 0.000000e+00
2.928483e+00 1.001930e+00 0.000000e+00
2.928792e+00 1.202679e+00 0.000000e+00
2.929062e+00 1.403463e+00 0.000000e+00
2.929337e+00 1.604254e+00 0.000000e+00
2.929649e+00 1.805053e+00 0.000000e+00
2.930005e+00 2.005882e+00 0.000000e+00
3.150000e+00 0.000000e+00 0.000000e+00
3.150595e+00 1.999781e-01 0.000000e+00
3.151137e+00 4.001369e-01 0.000000e+00
3.151602e+00 6.004724e-01 0.000000e+00
3.151973e+00 8.009627e-01 0.000000e+00
3.152258e+00 1.001569e+00 0.000000e+00
3.152481e+00 1.202251e+00 0.000000e+00
3.152684e+00 1.402987e+00 0.000000e+00
3.152900e+00 1.603765e+00 0.000000e+00
3.153141e+00 1.804592e+00 0.000000e+00
3.153404e+00 2.005487e+00 0.000000e+00
3.375000e+00 0.000000e+00 0.000000e+00
3.375279e+00 1.999465e-01 0.000000e+00
3.375540e+00 4.000574e-01 0.000000e+00
3.375772e+00 6.003392e-01 0.000000e+00
3.375962e+00 8.007779e-01 0.000000e+00
3.376108e+00 1.001336e+00 0.000000e+00
3.376226e+00 1.201978e+00 0.000000e+00
3.376334e+00 1.402681e+00 0.000000e+00
3.376451e+00 1.603446e+00 0.000000e+00
3.376582e+00 1.804287e+00 0.000000e+00
3.376722e+00 2.005224e+00 0.000000e+00
3.600000e+00 0.000000e+00 0.000000e+00
3.600000e+00 1.999469e-01 0.000000e+00
3.600000e+00 4.000441e-01 0.000000e+00
3.600000e+00 6.003064e-01 0.000000e+00
3.600000e+00 8.007208e-01 0.000000e+00
3.600000e+00 1.001257e+00 0.000000e+00
3.600000e+00 1.201878e+00 0.000000e+00
3.600000e+00 1.402566e+00 0.000000e+00
3.600000e+00 1.603321e+00 0.000000e+00
3.600000e+00 1.804162e+00 0.000000e+00
3.600000e+00 2.005111e+00 0.000000e+00
</DataArray>
</Points>
<Cells>
<DataArray Name="connectivity" type="Int32" format="ascii">
0 11 12 1
1 12 13 2
2 13 14 3
3 14 15 4
4 15 16 5
5 16 17 6
6 17 18 7
7 18 19 8
8 19 20 9
9 20 21 10
11 22 23 12
12 23 24 13
13 24 25 14
14 25 26 15
15 26 27 16
16 27 28 17
17 28 29 18
18 29 30 19
19 30 31 20
20 31 32 21
22 33 34 23
23 34 35 24
24 35 36 25
25 36 37 26
26 37 38 27
27 38 39 28
28 39 40 29
29 40 41 30
30 41 42 31
31 42 43 32
33 44 45 34
34 45 46 35
35 46 47 36
36 47 48 37
37 48 49 38
38 49 50 39
39 50 51 40
40 51 52 41
41 52 53 42
42 53 54 43
44 55 56 45
45 56 57 46
46 57 58 47
47 58 59 48
48 59 60 49
49 60 61 50
50 61 62 51
51 62 63 52
52 63 64 53
53 64 65 54
55 66 67 56
56 67 68 57
57 68 69 58
58 69 70 59
59 70 71 60
60 71 72 61
61 72 73 62
62 73 74 63
63 74 75 64
64 75 76 65
66 77 78 67
67 78 79 68
68 79 80 69
69 80 81 70
70 81 82 71
71 82 83 72
72 83 84 73
73 84 85 74
74 85 86 75
75 86 87 76
77 88 89 78
78 89 90 79
79 90 91 80
80 91 92 81
81 92 93 82
82 93 94 83
83 94 95 84
84 95 96 85
85 96 97 86
86 97 98 87
88 99 100 89
89 100 101 90
90 101 102 91
91 102 103 92
92 103 104 93
93 104 105 94
94 105 106 95
95 106 107 96
96 107 108 97
97 108 109 98
99 110 111 100
100 111 112 101
101 112 113 102
102 113 114 103
103 114 115 104
104 115 116 105
105 116 117 106
106 117 118 107
107 118 119 108
108 119 120 109
110 121 122 111
111 122 123 112
112 123 124 113
113 124 125 114
114 125 126 115
115 126 127 116
116 127 128 117
117 128 129 118
118 129 130 119
119 130 131 120
121 132 133 122
122 133 134 123
123 134 135 124
124 135 136 125
125 136 137 126
126 137 138 127
127 138 139 128
128 139 140 129
129 140 141 130
130 141 142 131
132 143 144 133
133 144 145 134
134 145 146 135
135 146 147 136
136 147 148 137
137 148 149 138
138 149 150 139
139 150 151 140
140 151 152 141
141 152 153 142
143 154 155 144
144 155 156 145
145 156 157 146
146 157 158 147
147 158 159 148
148 159 160 149
149 160 161 150
150 161 162 151
151 162 163 152
152 163 164 153
154 165 166 155
155 166 167 156
156 167 168 157
157 168 169 158
158 169 170 159
159 170 171 160
160 171 172 161
161 172 173 162
162 173 174 163
163 174 175 164
165 176 177 166
166 177 178 167
167 178 179 168
168 179 180 169
169 180 181 170
170 181 182 171
171 182 183 172
172 183 184 173
173 184 185 174
174 185 186 175
</DataArray>
<DataArray Name="offsets" type="Int32" format="ascii">
4
8
12
16
20
24
28
32
36
40
44
48
52
56
60
64
68
72
76
80
84
88
92
96
100
104
108
112
116
120
124
128
132
136
140
144
148
152
156
160
164
168
172
176
180
184
188
192
196
200
204
208
212
216
220
224
228
232
236
240
244
248
252
256
260
264
268
272
276
280
284
288
292
296
300
304
308
312
316
320
324
328
332
336
340
344
348
352
356
360
364
368
372
376
380
384
388
392
396
400
404
408
412
416
420
424
428
432
436
440
444
448
452
456
460
464
468
472
476
480
484
488
492
496
500
504
508
512
516
520
524
528
532
536
540
544
548
552
556
560
564
568
572
576
580
584
588
592
596
600
604
608
612
616
620
624
628
632
636
640
</DataArray>
<DataArray Name="types" type="UInt8" format="ascii">
9
9
9
9
9
9
9
9
9
9
9
9
9
9
9
9
9
9
9
9
9
9
9
9
9
9
9
9
9
9
9
9
9
9
9
9
9
9
9
9
9
9
9
9
9
9
9
9
9
9
9
9
9
9
9
9
9
9
9
9
9
9
9
9
9
9
9
9
9
9
9
9
9
9
9
9
9
9
9
9
9
9
9
9
9
9
9
9
9
9
9
9
9
9
9
9
9
9
9
9
9
9
9
9
9
9
9
9
9
9
9
9
9
9
9
9
9
9
9
9
9
9
9
9
9
9
9
9
9
9
9
9
9
9
9
9
9
9
9
9
9
9
9
9
9
9
9
9
9
9
9
9
9
9
9
9
9
9
9
9
</DataArray>
</Cells>
<PointData>
<DataArray Name="disp" type="Float64" NumberOfComponents="3" format="ascii">
0.000000e+00 0.000000e+00 0.000000e+00
0.000000e+00 -3.319608e-03 0.000000e+00
0.000000e+00 -8.640477e-03 0.000000e+00
0.000000e+00 -1.682097e-02 0.000000e+00
0.000000e+00 -2.667172e-02 0.000000e+00
0.000000e+00 -3.744054e-02 0.000000e+00
0.000000e+00 -4.822252e-02 0.000000e+00
0.000000e+00 -5.823841e-02 0.000000e+00
0.000000e+00 -6.648505e-02 0.000000e+00
0.000000e+00 -7.137411e-02 0.000000e+00
0.000000e+00 -7.537500e-02 0.000000e+00
0.000000e+00 0.000000e+00 0.000000e+00
2.038494e-03 -3.413340e-03 0.000000e+00
5.511034e-03 -8.508503e-03 0.000000e+00
8.466047e-03 -1.554297e-02 0.000000e+00
1.011010e-02 -2.402288e-02 0.000000e+00
1.067780e-02 -3.363432e-02 0.000000e+00
1.009120e-02 -4.379485e-02 0.000000e+00
8.458987e-03 -5.376976e-02 0.000000e+00
4.941883e-03 -6.320859e-02 0.000000e+00
5.329283e-04 -7.094674e-02 0.000000e+00
0.000000e+00 -7.537500e-02 0.000000e+00
0.000000e+00 0.000000e+00 0.000000e+00
4.468473e-03 -3.029680e-03 0.000000e+00
9.491078e-03 -6.975189e-03 0.000000e+00
1.388206e-02 -1.136220e-02 0.000000e+00
1.698813e-02 -1.643515e-02 0.000000e+00
1.892422e-02 -2.258277e-02 0.000000e+00
1.928184e-02 -3.022302e-02 0.000000e+00
1.826507e-02 -3.950068e-02 0.000000e+00
1.450169e-02 -5.038542e-02 0.000000e+00
8.887395e-03 -6.275634e-02 0.000000e+00
0.000000e+00 -7.537500e-02 0.000000e+00
0.000000e+00 0.000000e+00 0.000000e+00
6.251256e-03 -1.619973e-03 0.000000e+00
1.172336e-02 -3.459367e-03 0.000000e+00
1.603357e-02 -5.123938e-03 0.000000e+00
1.940962e-02 -6.445237e-03 0.000000e+00
2.182654e-02 -7.386595e-03 0.000000e+00
2.308118e-02 -7.895932e-03 0.000000e+00
2.273161e-02 -7.792397e-03 0.000000e+00
2.042712e-02 -7.196019e-03 0.000000e+00
1.627000e-02 -6.595934e-03 0.000000e+00
9.209278e-03 -6.897880e-03 0.000000e+00
0.000000e+00 0.000000e+00 0.000000e+00
6.815088e-03 -1.120304e-03 0.000000e+00
1.188784e-02 -2.126929e-03 0.000000e+00
1.561421e-02 -2.801973e-03 0.000000e+00
1.846994e-02 -3.114236e-03 0.000000e+00
2.041320e-02 -3.017451e-03 0.000000e+00
2.118742e-02 -2.487675e-03 0.000000e+00
2.049628e-02 -1.626512e-03 0.000000e+00
1.829142e-02 -6.998397e-04 0.000000e+00
1.468089e-02 2.756608e-05 0.000000e+00
9.982907e-03 1.382398e-04 0.000000e+00
0.000000e+00 0.000000e+00 0.000000e+00
6.889841e-03 -5.759951e-04 0.000000e+00
1.125274e-02 -9.820776e-04 0.000000e+00
1.447241e-02 -1.022454e-03 0.000000e+00
1.688242e-02 -7.060983e-04 0.000000e+00
1.839867e-02 -3.783135e-05 0.000000e+00
1.886892e-02 9.425916e-04 0.000000e+00
1.816202e-02 2.087113e-03 0.000000e+00
1.628987e-02 3.156632e-03 0.000000e+00
1.352305e-02 3.851369e-03 0.000000e+00
1.060530e-02 3.927111e-03 0.000000e+00
0.000000e+00 0.000000e+00 0.000000e+00
6.465660e-03 -2.042866e-04 0.000000e+00
1.018410e-02 -1.611491e-04 0.000000e+00
1.296664e-02 2.075884e-04 0.000000e+00
1.497467e-02 8.768301e-04 0.000000e+00
1.618390e-02 1.848630e-03 0.000000e+00
1.651369e-02 3.041871e-03 0.000000e+00
1.592066e-02 4.290003e-03 0.000000e+00
1.448986e-02 5.384043e-03 0.000000e+00
1.260307e-02 6.037081e-03 0.000000e+00
1.086757e-02 6.187810e-03 0.000000e+00
0.000000e+00 0.000000e+00 0.000000e+00
5.736192e-03 7.109895e-05 0.000000e+00
8.899409e-03 3.734428e-04 0.000000e+00
1.126900e-02 9.666993e-04 0.000000e+00
1.296806e-02 1.839185e-03 0.000000e+00
1.396515e-02 2.943864e-03 0.000000e+00
1.424720e-02 4.187511e-03 0.000000e+00
1.382776e-02 5.439492e-03 0.000000e+00
1.285910e-02 6.498358e-03 0.000000e+00
1.171995e-02 7.140435e-03 0.000000e+00
1.081956e-02 7.364535e-03 0.000000e+00
0.000000e+00 0.000000e+00 0.000000e+00
4.822617e-03 1.958536e-04 0.000000e+00
7.516026e-03 6.439747e-04 0.000000e+00
9.533526e-03 1.348948e-03 0.000000e+00
1.098340e-02 2.303717e-03 0.000000e+00
1.183619e-02 3.431414e-03 0.000000e+00
1.212199e-02 4.656131e-03 0.000000e+00
1.189505e-02 5.850758e-03 0.000000e+00
1.134850e-02 6.842297e-03 0.000000e+00
1.079030e-02 7.484440e-03 0.000000e+00
1.048028e-02 7.801715e-03 0.000000e+00
0.000000e+00 0.000000e+00 0.000000e+00
3.868201e-03 2.180979e-04 0.000000e+00
6.134041e-03 7.082928e-04 0.000000e+00
7.856624e-03 1.445747e-03 0.000000e+00
9.088380e-03 2.395851e-03 0.000000e+00
9.840277e-03 3.487925e-03 0.000000e+00
1.015349e-02 4.645967e-03 0.000000e+00
1.011925e-02 5.752149e-03 0.000000e+00
9.915589e-03 6.669236e-03 0.000000e+00
9.772929e-03 7.322861e-03 0.000000e+00
9.847161e-03 7.747275e-03 0.000000e+00
0.000000e+00 0.000000e+00 0.000000e+00
2.971799e-03 1.859577e-04 0.000000e+00
4.846940e-03 6.510321e-04 0.000000e+00
6.286846e-03 1.352588e-03 0.000000e+00
7.327184e-03 2.245104e-03 0.000000e+00
7.997229e-03 3.260641e-03 0.000000e+00
8.343745e-03 4.320287e-03 0.000000e+00
8.476696e-03 5.327163e-03 0.000000e+00
8.526803e-03 6.185339e-03 0.000000e+00
8.648795e-03 6.862018e-03 0.000000e+00
8.941706e-03 7.399397e-03 0.000000e+00
0.000000e+00 0.000000e+00 0.000000e+00
2.181564e-03 1.323512e-04 0.000000e+00
3.696427e-03 5.417246e-04 0.000000e+00
4.865716e-03 1.165168e-03 0.000000e+00
5.727909e-03 1.959283e-03 0.000000e+00
6.319874e-03 2.861129e-03 0.000000e+00
6.694885e-03 3.804438e-03 0.000000e+00
6.940444e-03 4.719274e-03 0.000000e+00
7.146869e-03 5.546151e-03 0.000000e+00
7.416246e-03 6.260333e-03 0.000000e+00
7.809095e-03 6.900051e-03 0.000000e+00
0.000000e+00 0.000000e+00 0.000000e+00
1.520792e-03 7.890433e-05 0.000000e+00
2.695304e-03 4.079723e-04 0.000000e+00
3.617195e-03 9.337175e-04 0.000000e+00
4.315474e-03 1.606896e-03 0.000000e+00
4.823424e-03 2.384445e-03 0.000000e+00
5.188222e-03 3.221064e-03 0.000000e+00
5.476533e-03 4.063871e-03 0.000000e+00
5.752633e-03 4.869773e-03 0.000000e+00
6.081198e-03 5.627763e-03 0.000000e+00
6.487463e-03 6.367521e-03 0.000000e+00
0.000000e+00 0.000000e+00 0.000000e+00
9.935704e-04 2.868175e-05 0.000000e+00
1.844678e-03 2.639514e-04 0.000000e+00
2.536326e-03 6.852885e-04 0.000000e+00
3.077329e-03 1.253296e-03 0.000000e+00
3.483431e-03 1.930082e-03 0.000000e+00
3.791549e-03 2.679285e-03 0.000000e+00
4.061821e-03 3.462557e-03 0.000000e+00
4.336846e-03 4.253979e-03 0.000000e+00
4.648848e-03 5.052475e-03 0.000000e+00
5.005428e-03 5.882061e-03 0.000000e+00
0.000000e+00 0.000000e+00 0.000000e+00
5.954890e-04 -2.186353e-05 0.000000e+00
1.137341e-03 1.369386e-04 0.000000e+00
1.601686e-03 4.723866e-04 0.000000e+00
1.973297e-03 9.626886e-04 0.000000e+00
2.257866e-03 1.569013e-03 0.000000e+00
2.481185e-03 2.251476e-03 0.000000e+00
2.683745e-03 2.986624e-03 0.000000e+00
2.899961e-03 3.765526e-03 0.000000e+00
3.140810e-03 4.592115e-03 0.000000e+00
3.403664e-03 5.487462e-03 0.000000e+00
0.000000e+00 0.000000e+00 0.000000e+00
2.791972e-04 -5.346528e-05 0.000000e+00
5.399204e-04 5.739800e-05 0.000000e+00
7.721352e-04 3.391631e-04 0.000000e+00
9.617219e-04 7.778539e-04 0.000000e+00
1.108071e-03 1.335800e-03 0.000000e+00
1.225710e-03 1.977887e-03 0.000000e+00
1.333869e-03 2.681174e-03 0.000000e+00
1.451452e-03 3.446457e-03 0.000000e+00
1.581772e-03 4.286894e-03 0.000000e+00
1.721936e-03 5.224068e-03 0.000000e+00
0.000000e+00 0.000000e+00 0.000000e+00
0.000000e+00 -5.314862e-05 0.000000e+00
0.000000e+00 4.404188e-05 0.000000e+00
0.000000e+00 3.063643e-04 0.000000e+00
0.000000e+00 7.207717e-04 0.000000e+00
0.000000e+00 1.256896e-03 0.000000e+00
0.000000e+00 1.878406e-03 0.000000e+00
0.000000e+00 2.565816e-03 0.000000e+00
0.000000e+00 3.321443e-03 0.000000e+00
0.000000e+00 4.162190e-03 0.000000e+00
0.000000e+00 5.110895e-03 0.000000e+00
</DataArray>
<DataArray Name="shear" type="Float64" NumberOfComponents="1" format="ascii">
2.018041e-02
3.210410e-02
5.735654e-02
8.051458e-02
9.485306e-02
1.007261e-01
9.750960e-02
8.457923e-02
5.834005e-02
3.049808e-02
2.172042e-02
2.283961e-02
3.412467e-02
5.397625e-02
7.185465e-02
8.590601e-02
9.552912e-02
9.849196e-02
9.330013e-02
7.774069e-02
5.360973e-02
3.566852e-02
2.914324e-02
3.747159e-02
4.857243e-02
5.807179e-02
7.040153e-02
8.567691e-02
1.023071e-01
1.170371e-01
1.299548e-01
1.369001e-01
1.362717e-01
3.354559e-02
3.601377e-02
3.818649e-02
4.046802e-02
4.559464e-02
5.368727e-02
6.465454e-02
7.800879e-02
9.504373e-02
1.139158e-01
1.278368e-01
3.510219e-02
3.255353e-02
2.778682e-02
2.573868e-02
2.531384e-02
2.481015e-02
2.337135e-02
2.032943e-02
1.534422e-02
7.280650e-03
1.988587e-04
3.491941e-02
3.015664e-02
2.357356e-02
2.179866e-02
2.126021e-02
2.065044e-02
1.931272e-02
1.673610e-02
1.258277e-02
6.200422e-03
1.808289e-03
3.261683e-02
2.697520e-02
2.024605e-02
1.903324e-02
1.868347e-02
1.834364e-02
1.739964e-02
1.539110e-02
1.175267e-02
6.173576e-03
2.279664e-03
2.889815e-02
2.353531e-02
1.761659e-02
1.695223e-02
1.690301e-02
1.678051e-02
1.614591e-02
1.450912e-02
1.126429e-02
6.487130e-03
3.297393e-03
2.431830e-02
1.989501e-02
1.539423e-02
1.518089e-02
1.539757e-02
1.546959e-02
1.504796e-02
1.362654e-02
1.082939e-02
6.999541e-03
4.598069e-03
1.954680e-02
1.632818e-02
1.338362e-02
1.354451e-02
1.399308e-02
1.424118e-02
1.394779e-02
1.271126e-02
1.046100e-02
7.670756e-03
6.054120e-03
1.504962e-02
1.300833e-02
1.144367e-02
1.193240e-02
1.258827e-02
1.297484e-02
1.280250e-02
1.185553e-02
1.023711e-02
8.429626e-03
7.481640e-03
1.107976e-02
1.003227e-02
9.557296e-03
1.028345e-02
1.109107e-02
1.162312e-02
1.167008e-02
1.115236e-02
1.019701e-02
9.205840e-03
8.762257e-03
7.748614e-03
7.411370e-03
7.726036e-03
8.661937e-03
9.604449e-03
1.032566e-02
1.067985e-02
1.061624e-02
1.027062e-02
9.967902e-03
9.915429e-03
5.071530e-03
5.141558e-03
6.017331e-03
7.229744e-03
8.363780e-03
9.267828e-03
9.877594e-03
1.020481e-02
1.038086e-02
1.064253e-02
1.089372e-02
3.017782e-03
3.298657e-03
4.603435e-03
6.118692e-03
7.458936e-03
8.504357e-03
9.277165e-03
9.888005e-03
1.046194e-02
1.114072e-02
1.161148e-02
1.418553e-03
1.962322e-03
3.659741e-03
5.399668e-03
6.879840e-03
8.022353e-03
8.898097e-03
9.667111e-03
1.048315e-02
1.143160e-02
1.204742e-02
4.887218e-04
1.419460e-03
3.325496e-03
5.136671e-03
6.663185e-03
7.841717e-03
8.756191e-03
9.580540e-03
1.047751e-02
1.152043e-02
1.218962e-02
</DataArray>
<DataArray Name="stress" type="Float64" NumberOfComponents="9" format="ascii">
-1.235816e+05 6.794534e+03 0.000000e+00 6.794534e+03 -2.179819e+05 0.000000e+00 0.000000e+00 0.000000e+00 0.000000e+00
-1.094029e+05 5.108333e+03 0.000000e+00 5.108333e+03 -2.192076e+05 0.000000e+00 0.000000e+00 0.000000e+00 0.000000e+00
-1.138464e+05 3.942212e+03 0.000000e+00 3.942212e+03 -2.250349e+05 0.000000e+00 0.000000e+00 0.000000e+00 0.000000e+00
-1.214282e+05 4.362279e+03 0.000000e+00 4.362279e+03 -2.329823e+05 0.000000e+00 0.000000e+00 0.000000e+00 0.000000e+00
-1.302502e+05 5.791588e+03 0.000000e+00 5.791588e+03 -2.435469e+05 0.000000e+00 0.000000e+00 0.000000e+00 0.000000e+00
-1.392234e+05 6.950332e+03 0.000000e+00 6.950332e+03 -2.504288e+05 0.000000e+00 0.000000e+00 0.000000e+00 0.000000e+00
-1.422876e+05 9.288668e+03 0.000000e+00 9.288668e+03 -2.656476e+05 0.000000e+00 0.000000e+00 0.000000e+00 0.000000e+00
-1.449848e+05 1.043774e+04 0.000000e+00 1.043774e+04 -2.758712e+05 0.000000e+00 0.000000e+00 0.000000e+00 0.000000e+00
-1.481450e+05 5.335656e+03 0.000000e+00 5.335656e+03 -2.847294e+05 0.000000e+00 0.000000e+00 0.000000e+00 0.000000e+00
-1.568870e+05 -1.870000e+03 0.000000e+00 -1.870000e+03 -2.950589e+05 0.000000e+00 0.000000e+00 0.000000e+00 0.000000e+00
-1.604988e+05 -3.380732e+02 0.000000e+00 -3.380732e+02 -2.812124e+05 0.000000e+00 0.000000e+00 0.000000e+00 0.000000e+00
-1.266498e+05 1.987382e+04 0.000000e+00 1.987382e+04 -2.119961e+05 0.000000e+00 0.000000e+00 0.000000e+00 0.000000e+00
-1.106958e+05 1.676433e+04 0.000000e+00 1.676433e+04 -2.079633e+05 0.000000e+00 0.000000e+00 0.000000e+00 0.000000e+00
-1.125247e+05 1.524977e+04 0.000000e+00 1.524977e+04 -2.189998e+05 0.000000e+00 0.000000e+00 0.000000e+00 0.000000e+00
-1.200374e+05 1.415185e+04 0.000000e+00 1.415185e+04 -2.299194e+05 0.000000e+00 0.000000e+00 0.000000e+00 0.000000e+00
-1.289207e+05 1.340417e+04 0.000000e+00 1.340417e+04 -2.416305e+05 0.000000e+00 0.000000e+00 0.000000e+00 0.000000e+00
-1.387397e+05 1.288468e+04 0.000000e+00 1.288468e+04 -2.509672e+05 0.000000e+00 0.000000e+00 0.000000e+00 0.000000e+00
-1.437898e+05 1.347927e+04 0.000000e+00 1.347927e+04 -2.612609e+05 0.000000e+00 0.000000e+00 0.000000e+00 0.000000e+00
-1.450208e+05 1.264636e+04 0.000000e+00 1.264636e+04 -2.677690e+05 0.000000e+00 0.000000e+00 0.000000e+00 0.000000e+00
-1.498857e+05 6.533074e+03 0.000000e+00 6.533074e+03 -2.798697e+05 0.000000e+00 0.000000e+00 0.000000e+00 0.000000e+00
-1.521468e+05 -1.098920e+03 0.000000e+00 -1.098920e+03 -2.876521e+05 0.000000e+00 0.000000e+00 0.000000e+00 0.000000e+00
-1.744482e+05 -6.926379e+03 0.000000e+00 -6.926379e+03 -3.249894e+05 0.000000e+00 0.000000e+00 0.000000e+00 0.000000e+00
-1.265316e+05 3.273934e+04 0.000000e+00 3.273934e+04 -1.852777e+05 0.000000e+00 0.000000e+00 0.000000e+00 0.000000e+00
-1.105875e+05 2.846355e+04 0.000000e+00 2.846355e+04 -1.754684e+05 0.000000e+00 0.000000e+00 0.000000e+00 0.000000e+00
-1.103495e+05 2.765914e+04 0.000000e+00 2.765914e+04 -1.831621e+05 0.000000e+00 0.000000e+00 0.000000e+00 0.000000e+00
-1.172470e+05 2.810306e+04 0.000000e+00 2.810306e+04 -1.926118e+05 0.000000e+00 0.000000e+00 0.000000e+00 0.000000e+00
-1.282860e+05 3.036550e+04 0.000000e+00 3.036550e+04 -2.050051e+05 0.000000e+00 0.000000e+00 0.000000e+00 0.000000e+00
-1.427420e+05 3.247453e+04 0.000000e+00 3.247453e+04 -2.212372e+05 0.000000e+00 0.000000e+00 0.000000e+00 0.000000e+00
-1.592498e+05 3.509900e+04 0.000000e+00 3.509900e+04 -2.390227e+05 0.000000e+00 0.000000e+00 0.000000e+00 0.000000e+00
-1.702062e+05 3.795296e+04 0.000000e+00 3.795296e+04 -2.603862e+05 0.000000e+00 0.000000e+00 0.000000e+00 0.000000e+00
-1.772473e+05 3.402009e+04 0.000000e+00 3.402009e+04 -2.763946e+05 0.000000e+00 0.000000e+00 0.000000e+00 0.000000e+00
-1.856224e+05 2.134761e+04 0.000000e+00 2.134761e+04 -2.903716e+05 0.000000e+00 0.000000e+00 0.000000e+00 0.000000e+00
-2.075207e+05 -4.381100e+02 0.000000e+00 -4.381100e+02 -3.436870e+05 0.000000e+00 0.000000e+00 0.000000e+00 0.000000e+00
-1.156164e+05 3.278379e+04 0.000000e+00 3.278379e+04 -1.407458e+05 0.000000e+00 0.000000e+00 0.000000e+00 0.000000e+00
-1.039679e+05 2.973508e+04 0.000000e+00 2.973508e+04 -1.326652e+05 0.000000e+00 0.000000e+00 0.000000e+00 0.000000e+00
-1.055402e+05 3.010492e+04 0.000000e+00 3.010492e+04 -1.334986e+05 0.000000e+00 0.000000e+00 0.000000e+00 0.000000e+00
-1.134998e+05 3.252217e+04 0.000000e+00 3.252217e+04 -1.346146e+05 0.000000e+00 0.000000e+00 0.000000e+00 0.000000e+00
-1.209871e+05 3.504036e+04 0.000000e+00 3.504036e+04 -1.332901e+05 0.000000e+00 0.000000e+00 0.000000e+00 0.000000e+00
-1.264192e+05 3.558388e+04 0.000000e+00 3.558388e+04 -1.289347e+05 0.000000e+00 0.000000e+00 0.000000e+00 0.000000e+00
-1.278789e+05 3.334670e+04 0.000000e+00 3.334670e+04 -1.201774e+05 0.000000e+00 0.000000e+00 0.000000e+00 0.000000e+00
-1.228438e+05 2.805818e+04 0.000000e+00 2.805818e+04 -1.093297e+05 0.000000e+00 0.000000e+00 0.000000e+00 0.000000e+00
-1.064123e+05 1.969003e+04 0.000000e+00 1.969003e+04 -9.167250e+04 0.000000e+00 0.000000e+00 0.000000e+00 0.000000e+00
-8.560158e+04 1.105536e+04 0.000000e+00 1.105536e+04 -7.924939e+04 0.000000e+00 0.000000e+00 0.000000e+00 0.000000e+00
-4.984706e+04 4.269868e+03 0.000000e+00 4.269868e+03 -5.789620e+04 0.000000e+00 0.000000e+00 0.000000e+00 0.000000e+00
-1.103996e+05 3.110636e+04 0.000000e+00 3.110636e+04 -1.180459e+05 0.000000e+00 0.000000e+00 0.000000e+00 0.000000e+00
-1.048309e+05 2.963507e+04 0.000000e+00 2.963507e+04 -1.147231e+05 0.000000e+00 0.000000e+00 0.000000e+00 0.000000e+00
-1.100185e+05 3.085679e+04 0.000000e+00 3.085679e+04 -1.161714e+05 0.000000e+00 0.000000e+00 0.000000e+00 0.000000e+00
-1.195482e+05 3.206154e+04 0.000000e+00 3.206154e+04 -1.142762e+05 0.000000e+00 0.000000e+00 0.000000e+00 0.000000e+00
-1.279895e+05 3.185413e+04 0.000000e+00 3.185413e+04 -1.093966e+05 0.000000e+00 0.000000e+00 0.000000e+00 0.000000e+00
-1.343500e+05 2.989949e+04 0.000000e+00 2.989949e+04 -1.022180e+05 0.000000e+00 0.000000e+00 0.000000e+00 0.000000e+00
-1.368812e+05 2.551433e+04 0.000000e+00 2.551433e+04 -9.343023e+04 0.000000e+00 0.000000e+00 0.000000e+00 0.000000e+00
-1.335119e+05 1.879760e+04 0.000000e+00 1.879760e+04 -8.394975e+04 0.000000e+00 0.000000e+00 0.000000e+00 0.000000e+00
-1.219773e+05 1.098604e+04 0.000000e+00 1.098604e+04 -7.473380e+04 0.000000e+00 0.000000e+00 0.000000e+00 0.000000e+00
-9.680984e+04 2.668535e+03 0.000000e+00 2.668535e+03 -6.809836e+04 0.000000e+00 0.000000e+00 0.000000e+00 0.000000e+00
-5.646004e+04 -7.256523e+02 0.000000e+00 -7.256523e+02 -5.537933e+04 0.000000e+00 0.000000e+00 0.000000e+00 0.000000e+00
-1.034341e+05 2.987556e+04 0.000000e+00 2.987556e+04 -1.025320e+05 0.000000e+00 0.000000e+00 0.000000e+00 0.000000e+00
-1.035098e+05 2.932542e+04 0.000000e+00 2.932542e+04 -1.019989e+05 0.000000e+00 0.000000e+00 0.000000e+00 0.000000e+00
-1.107580e+05 2.885789e+04 0.000000e+00 2.885789e+04 -1.012359e+05 0.000000e+00 0.000000e+00 0.000000e+00 0.000000e+00
-1.194226e+05 2.763063e+04 0.000000e+00 2.763063e+04 -9.662211e+04 0.000000e+00 0.000000e+00 0.000000e+00 0.000000e+00
-1.263027e+05 2.550462e+04 0.000000e+00 2.550462e+04 -9.138223e+04 0.000000e+00 0.000000e+00 0.000000e+00 0.000000e+00
-1.306669e+05 2.188579e+04 0.000000e+00 2.188579e+04 -8.546611e+04 0.000000e+00 0.000000e+00 0.000000e+00 0.000000e+00
-1.310299e+05 1.651577e+04 0.000000e+00 1.651577e+04 -7.903032e+04 0.000000e+00 0.000000e+00 0.000000e+00 0.000000e+00
-1.257113e+05 9.840608e+03 0.000000e+00 9.840608e+03 -7.238496e+04 0.000000e+00 0.000000e+00 0.000000e+00 0.000000e+00
-1.134556e+05 2.647154e+03 0.000000e+00 2.647154e+03 -6.644059e+04 0.000000e+00 0.000000e+00 0.000000e+00 0.000000e+00
-8.993073e+04 -2.756129e+03 0.000000e+00 -2.756129e+03 -6.216617e+04 0.000000e+00 0.000000e+00 0.000000e+00 0.000000e+00
-5.949434e+04 -4.004927e+03 0.000000e+00 -4.004927e+03 -5.533359e+04 0.000000e+00 0.000000e+00 0.000000e+00 0.000000e+00
-9.547794e+04 2.752796e+04 0.000000e+00 2.752796e+04 -8.994448e+04 0.000000e+00 0.000000e+00 0.000000e+00 0.000000e+00
-1.012820e+05 2.749404e+04 0.000000e+00 2.749404e+04 -9.148306e+04 0.000000e+00 0.000000e+00 0.000000e+00 0.000000e+00
-1.095063e+05 2.506059e+04 0.000000e+00 2.506059e+04 -8.844991e+04 0.000000e+00 0.000000e+00 0.000000e+00 0.000000e+00
-1.174932e+05 2.290267e+04 0.000000e+00 2.290267e+04 -8.449608e+04 0.000000e+00 0.000000e+00 0.000000e+00 0.000000e+00
-1.230725e+05 1.989534e+04 0.000000e+00 1.989534e+04 -8.019779e+04 0.000000e+00 0.000000e+00 0.000000e+00 0.000000e+00
-1.256175e+05 1.556748e+04 0.000000e+00 1.556748e+04 -7.539273e+04 0.000000e+00 0.000000e+00 0.000000e+00 0.000000e+00
-1.244542e+05 1.003820e+04 0.000000e+00 1.003820e+04 -7.043709e+04 0.000000e+00 0.000000e+00 0.000000e+00 0.000000e+00
-1.181592e+05 3.714050e+03 0.000000e+00 3.714050e+03 -6.580871e+04 0.000000e+00 0.000000e+00 0.000000e+00 0.000000e+00
-1.067333e+05 -2.041223e+03 0.000000e+00 -2.041223e+03 -6.246148e+04 0.000000e+00 0.000000e+00 0.000000e+00 0.000000e+00
-8.792300e+04 -4.409773e+03 0.000000e+00 -4.409773e+03 -6.037212e+04 0.000000e+00 0.000000e+00 0.000000e+00 0.000000e+00
-6.721712e+04 -4.005701e+03 0.000000e+00 -4.005701e+03 -5.656273e+04 0.000000e+00 0.000000e+00 0.000000e+00 0.000000e+00
-8.705515e+04 2.439540e+04 0.000000e+00 2.439540e+04 -7.997245e+04 0.000000e+00 0.000000e+00 0.000000e+00 0.000000e+00
-9.787361e+04 2.458403e+04 0.000000e+00 2.458403e+04 -8.315786e+04 0.000000e+00 0.000000e+00 0.000000e+00 0.000000e+00
-1.074692e+05 2.156100e+04 0.000000e+00 2.156100e+04 -7.967177e+04 0.000000e+00 0.000000e+00 0.000000e+00 0.000000e+00
-1.146330e+05 1.885288e+04 0.000000e+00 1.885288e+04 -7.646668e+04 0.000000e+00 0.000000e+00 0.000000e+00 0.000000e+00
-1.188728e+05 1.517637e+04 0.000000e+00 1.517637e+04 -7.273944e+04 0.000000e+00 0.000000e+00 0.000000e+00 0.000000e+00
-1.203359e+05 1.062259e+04 0.000000e+00 1.062259e+04 -6.888860e+04 0.000000e+00 0.000000e+00 0.000000e+00 0.000000e+00
-1.181364e+05 5.294399e+03 0.000000e+00 5.294399e+03 -6.519800e+04 0.000000e+00 0.000000e+00 0.000000e+00 0.000000e+00
-1.117643e+05 -9.247054e+01 0.000000e+00 -9.247054e+01 -6.221859e+04 0.000000e+00 0.000000e+00 0.000000e+00 0.000000e+00
-1.024128e+05 -4.032549e+03 0.000000e+00 -4.032549e+03 -6.044302e+04 0.000000e+00 0.000000e+00 0.000000e+00 0.000000e+00
-8.887299e+04 -4.633408e+03 0.000000e+00 -4.633408e+03 -5.964675e+04 0.000000e+00 0.000000e+00 0.000000e+00 0.000000e+00
-7.533285e+04 -3.617012e+03 0.000000e+00 -3.617012e+03 -5.718433e+04 0.000000e+00 0.000000e+00 0.000000e+00 0.000000e+00
-8.046173e+04 2.173953e+04 0.000000e+00 2.173953e+04 -7.320136e+04 0.000000e+00 0.000000e+00 0.000000e+00 0.000000e+00
-9.442723e+04 2.188472e+04 0.000000e+00 2.188472e+04 -7.676705e+04 0.000000e+00 0.000000e+00 0.000000e+00 0.000000e+00
-1.048264e+05 1.858730e+04 0.000000e+00 1.858730e+04 -7.356352e+04 0.000000e+00 0.000000e+00 0.000000e+00 0.000000e+00
-1.109569e+05 1.530257e+04 0.000000e+00 1.530257e+04 -7.072068e+04 0.000000e+00 0.000000e+00 0.000000e+00 0.000000e+00
-1.143671e+05 1.134351e+04 0.000000e+00 1.134351e+04 -6.764320e+04 0.000000e+00 0.000000e+00 0.000000e+00 0.000000e+00
-1.150324e+05 6.827611e+03 0.000000e+00 6.827611e+03 -6.463248e+04 0.000000e+00 0.000000e+00 0.000000e+00 0.000000e+00
-1.124273e+05 2.020686e+03 0.000000e+00 2.020686e+03 -6.204430e+04 0.000000e+00 0.000000e+00 0.000000e+00 0.000000e+00
-1.070349e+05 -2.198699e+03 0.000000e+00 -2.198699e+03 -6.030614e+04 0.000000e+00 0.000000e+00 0.000000e+00 0.000000e+00
-1.001129e+05 -4.659717e+03 0.000000e+00 -4.659717e+03 -5.946299e+04 0.000000e+00 0.000000e+00 0.000000e+00 0.000000e+00
-9.096970e+04 -4.285719e+03 0.000000e+00 -4.285719e+03 -5.939132e+04 0.000000e+00 0.000000e+00 0.000000e+00 0.000000e+00
-8.255517e+04 -2.922262e+03 0.000000e+00 -2.922262e+03 -5.784827e+04 0.000000e+00 0.000000e+00 0.000000e+00 0.000000e+00
-7.620475e+04 1.986766e+04 0.000000e+00 1.986766e+04 -6.884694e+04 0.000000e+00 0.000000e+00 0.000000e+00 0.000000e+00
-9.112609e+04 1.960011e+04 0.000000e+00 1.960011e+04 -7.195389e+04 0.000000e+00 0.000000e+00 0.000000e+00 0.000000e+00
-1.014201e+05 1.596431e+04 0.000000e+00 1.596431e+04 -6.902979e+04 0.000000e+00 0.000000e+00 0.000000e+00 0.000000e+00
-1.068441e+05 1.226700e+04 0.000000e+00 1.226700e+04 -6.657361e+04 0.000000e+00 0.000000e+00 0.000000e+00 0.000000e+00
-1.097997e+05 8.319783e+03 0.000000e+00 8.319783e+03 -6.414627e+04 0.000000e+00 0.000000e+00 0.000000e+00 0.000000e+00
-1.100501e+05 4.064632e+03 0.000000e+00 4.064632e+03 -6.190754e+04 0.000000e+00 0.000000e+00 0.000000e+00 0.000000e+00
-1.077103e+05 -1.309988e+01 0.000000e+00 -1.309988e+01 -6.024737e+04 0.000000e+00 0.000000e+00 0.000000e+00 0.000000e+00
-1.037997e+05 -3.139813e+03 0.000000e+00 -3.139813e+03 -5.928080e+04 0.000000e+00 0.000000e+00 0.000000e+00 0.000000e+00
-9.912342e+04 -4.590168e+03 0.000000e+00 -4.590168e+03 -5.902927e+04 0.000000e+00 0.000000e+00 0.000000e+00 0.000000e+00
-9.351477e+04 -3.700705e+03 0.000000e+00 -3.700705e+03 -5.933171e+04 0.000000e+00 0.000000e+00 0.000000e+00 0.000000e+00
-8.870692e+04 -2.248408e+03 0.000000e+00 -2.248408e+03 -5.854705e+04 0.000000e+00 0.000000e+00 0.000000e+00 0.000000e+00
-7.326298e+04 1.795199e+04 0.000000e+00 1.795199e+04 -6.549904e+04 0.000000e+00 0.000000e+00 0.000000e+00 0.000000e+00
-8.758137e+04 1.732920e+04 0.000000e+00 1.732920e+04 -6.822295e+04 0.000000e+00 0.000000e+00 0.000000e+00 0.000000e+00
-9.753477e+04 1.355057e+04 0.000000e+00 1.355057e+04 -6.560716e+04 0.000000e+00 0.000000e+00 0.000000e+00 0.000000e+00
-1.027412e+05 9.835375e+03 0.000000e+00 9.835375e+03 -6.362146e+04 0.000000e+00 0.000000e+00 0.000000e+00 0.000000e+00
-1.053108e+05 6.016505e+03 0.000000e+00 6.016505e+03 -6.176453e+04 0.000000e+00 0.000000e+00 0.000000e+00 0.000000e+00
-1.055998e+05 2.182825e+03 0.000000e+00 2.182825e+03 -6.019561e+04 0.000000e+00 0.000000e+00 0.000000e+00 0.000000e+00
-1.040414e+05 -1.147525e+03 0.000000e+00 -1.147525e+03 -5.916966e+04 0.000000e+00 0.000000e+00 0.000000e+00 0.000000e+00
-1.016396e+05 -3.393415e+03 0.000000e+00 -3.393415e+03 -5.874386e+04 0.000000e+00 0.000000e+00 0.000000e+00 0.000000e+00
-9.891558e+04 -4.158281e+03 0.000000e+00 -4.158281e+03 -5.887370e+04 0.000000e+00 0.000000e+00 0.000000e+00 0.000000e+00
-9.605898e+04 -3.041968e+03 0.000000e+00 -3.041968e+03 -5.934984e+04 0.000000e+00 0.000000e+00 0.000000e+00 0.000000e+00
-9.373280e+04 -1.696953e+03 0.000000e+00 -1.696953e+03 -5.914223e+04 0.000000e+00 0.000000e+00 0.000000e+00 0.000000e+00
-7.072308e+04 1.586560e+04 0.000000e+00 1.586560e+04 -6.347677e+04 0.000000e+00 0.000000e+00 0.000000e+00 0.000000e+00
-8.379698e+04 1.511560e+04 0.000000e+00 1.511560e+04 -6.557201e+04 0.000000e+00 0.000000e+00 0.000000e+00 0.000000e+00
-9.361535e+04 1.143668e+04 0.000000e+00 1.143668e+04 -6.316233e+04 0.000000e+00 0.000000e+00 0.000000e+00 0.000000e+00
-9.875123e+04 7.891010e+03 0.000000e+00 7.891010e+03 -6.147486e+04 0.000000e+00 0.000000e+00 0.000000e+00 0.000000e+00
-1.012635e+05 4.326921e+03 0.000000e+00 4.326921e+03 -6.003288e+04 0.000000e+00 0.000000e+00 0.000000e+00 0.000000e+00
-1.019010e+05 1.007554e+03 0.000000e+00 1.007554e+03 -5.899669e+04 0.000000e+00 0.000000e+00 0.000000e+00 0.000000e+00
-1.013005e+05 -1.653482e+03 0.000000e+00 -1.653482e+03 -5.842608e+04 0.000000e+00 0.000000e+00 0.000000e+00 0.000000e+00
-1.002263e+05 -3.217666e+03 0.000000e+00 -3.217666e+03 -5.840919e+04 0.000000e+00 0.000000e+00 0.000000e+00 0.000000e+00
-9.915820e+04 -3.505146e+03 0.000000e+00 -3.505146e+03 -5.880353e+04 0.000000e+00 0.000000e+00 0.000000e+00 0.000000e+00
-9.834578e+04 -2.369277e+03 0.000000e+00 -2.369277e+03 -5.936676e+04 0.000000e+00 0.000000e+00 0.000000e+00 0.000000e+00
-9.781973e+04 -1.199041e+03 0.000000e+00 -1.199041e+03 -5.953905e+04 0.000000e+00 0.000000e+00 0.000000e+00 0.000000e+00
-6.848043e+04 1.354399e+04 0.000000e+00 1.354399e+04 -6.264542e+04 0.000000e+00 0.000000e+00 0.000000e+00 0.000000e+00
-8.025696e+04 1.270974e+04 0.000000e+00 1.270974e+04 -6.398732e+04 0.000000e+00 0.000000e+00 0.000000e+00 0.000000e+00
-8.990856e+04 9.461974e+03 0.000000e+00 9.461974e+03 -6.167256e+04 0.000000e+00 0.000000e+00 0.000000e+00 0.000000e+00
-9.502377e+04 6.256742e+03 0.000000e+00 6.256742e+03 -6.006820e+04 0.000000e+00 0.000000e+00 0.000000e+00 0.000000e+00
-9.772587e+04 3.134493e+03 0.000000e+00 3.134493e+03 -5.885283e+04 0.000000e+00 0.000000e+00 0.000000e+00 0.000000e+00
-9.888444e+04 3.653519e+02 0.000000e+00 3.653519e+02 -5.817111e+04 0.000000e+00 0.000000e+00 0.000000e+00 0.000000e+00
-9.922684e+04 -1.697304e+03 0.000000e+00 -1.697304e+03 -5.802997e+04 0.000000e+00 0.000000e+00 0.000000e+00 0.000000e+00
-9.939135e+04 -2.750019e+03 0.000000e+00 -2.750019e+03 -5.832445e+04 0.000000e+00 0.000000e+00 0.000000e+00 0.000000e+00
-9.965666e+04 -2.751383e+03 0.000000e+00 -2.751383e+03 -5.888655e+04 0.000000e+00 0.000000e+00 0.000000e+00 0.000000e+00
-1.002076e+05 -1.727477e+03 0.000000e+00 -1.727477e+03 -5.946862e+04 0.000000e+00 0.000000e+00 0.000000e+00 0.000000e+00
-1.008502e+05 -7.598241e+02 0.000000e+00 -7.598241e+02 -5.988988e+04 0.000000e+00 0.000000e+00 0.000000e+00 0.000000e+00
-6.728949e+04 1.093804e+04 0.000000e+00 1.093804e+04 -6.278374e+04 0.000000e+00 0.000000e+00 0.000000e+00 0.000000e+00
-7.742770e+04 1.010428e+04 0.000000e+00 1.010428e+04 -6.325580e+04 0.000000e+00 0.000000e+00 0.000000e+00 0.000000e+00
-8.667306e+04 7.483679e+03 0.000000e+00 7.483679e+03 -6.105050e+04 0.000000e+00 0.000000e+00 0.000000e+00 0.000000e+00
-9.176267e+04 4.750498e+03 0.000000e+00 4.750498e+03 -5.942083e+04 0.000000e+00 0.000000e+00 0.000000e+00 0.000000e+00
-9.471070e+04 2.168148e+03 0.000000e+00 2.168148e+03 -5.833355e+04 0.000000e+00 0.000000e+00 0.000000e+00 0.000000e+00
-9.649692e+04 3.155589e+01 0.000000e+00 3.155589e+01 -5.784464e+04 0.000000e+00 0.000000e+00 0.000000e+00 0.000000e+00
-9.776421e+04 -1.426853e+03 0.000000e+00 -1.426853e+03 -5.791333e+04 0.000000e+00 0.000000e+00 0.000000e+00 0.000000e+00
-9.895273e+04 -2.085260e+03 0.000000e+00 -2.085260e+03 -5.838781e+04 0.000000e+00 0.000000e+00 0.000000e+00 0.000000e+00
-1.002072e+05 -1.965430e+03 0.000000e+00 -1.965430e+03 -5.902895e+04 0.000000e+00 0.000000e+00 0.000000e+00 0.000000e+00
-1.016160e+05 -1.162325e+03 0.000000e+00 -1.162325e+03 -5.959712e+04 0.000000e+00 0.000000e+00 0.000000e+00 0.000000e+00
-1.029386e+05 -4.391219e+02 0.000000e+00 -4.391219e+02 -6.016690e+04 0.000000e+00 0.000000e+00 0.000000e+00 0.000000e+00
-6.662312e+04 7.826940e+03 0.000000e+00 7.826940e+03 -6.379734e+04 0.000000e+00 0.000000e+00 0.000000e+00 0.000000e+00
-7.530847e+04 7.146698e+03 0.000000e+00 7.146698e+03 -6.344502e+04 0.000000e+00 0.000000e+00 0.000000e+00 0.000000e+00
-8.405395e+04 5.247386e+03 0.000000e+00 5.247386e+03 -6.099587e+04 0.000000e+00 0.000000e+00 0.000000e+00 0.000000e+00
-8.916309e+04 3.207149e+03 0.000000e+00 3.207149e+03 -5.923929e+04 0.000000e+00 0.000000e+00 0.000000e+00 0.000000e+00
-9.241116e+04 1.361459e+03 0.000000e+00 1.361459e+03 -5.820861e+04 0.000000e+00 0.000000e+00 0.000000e+00 0.000000e+00
-9.479927e+04 -8.930238e+01 0.000000e+00 -8.930238e+01 -5.785229e+04 0.000000e+00 0.000000e+00 0.000000e+00 0.000000e+00
-9.685326e+04 -1.004203e+03 0.000000e+00 -1.004203e+03 -5.801110e+04 0.000000e+00 0.000000e+00 0.000000e+00 0.000000e+00
-9.876306e+04 -1.364849e+03 0.000000e+00 -1.364849e+03 -5.854571e+04 0.000000e+00 0.000000e+00 0.000000e+00 0.000000e+00
-1.006845e+05 -1.221532e+03 0.000000e+00 -1.221532e+03 -5.918418e+04 0.000000e+00 0.000000e+00 0.000000e+00 0.000000e+00
-1.025993e+05 -6.921488e+02 0.000000e+00 -6.921488e+02 -5.970093e+04 0.000000e+00 0.000000e+00 0.000000e+00 0.000000e+00
-1.043178e+05 -2.241295e+02 0.000000e+00 -2.241295e+02 -6.033824e+04 0.000000e+00 0.000000e+00 0.000000e+00 0.000000e+00
-6.618127e+04 4.046933e+03 0.000000e+00 4.046933e+03 -6.467278e+04 0.000000e+00 0.000000e+00 0.000000e+00 0.000000e+00
-7.397744e+04 3.682529e+03 0.000000e+00 3.682529e+03 -6.390675e+04 0.000000e+00 0.000000e+00 0.000000e+00 0.000000e+00
-8.228105e+04 2.684055e+03 0.000000e+00 2.684055e+03 -6.115138e+04 0.000000e+00 0.000000e+00 0.000000e+00 0.000000e+00
-8.746541e+04 1.605321e+03 0.000000e+00 1.605321e+03 -5.929244e+04 0.000000e+00 0.000000e+00 0.000000e+00 0.000000e+00
-9.098871e+04 6.495346e+02 0.000000e+00 6.495346e+02 -5.828954e+04 0.000000e+00 0.000000e+00 0.000000e+00 0.000000e+00
-9.380777e+04 -7.245185e+01 0.000000e+00 -7.245185e+01 -5.800012e+04 0.000000e+00 0.000000e+00 0.000000e+00 0.000000e+00
-9.632524e+04 -5.150154e+02 0.000000e+00 -5.150154e+02 -5.823473e+04 0.000000e+00 0.000000e+00 0.000000e+00 0.000000e+00
-9.871579e+04 -6.643052e+02 0.000000e+00 -6.643052e+02 -5.875315e+04 0.000000e+00 0.000000e+00 0.000000e+00 0.000000e+00
-1.010110e+05 -5.696597e+02 0.000000e+00 -5.696597e+02 -5.935129e+04 0.000000e+00 0.000000e+00 0.000000e+00 0.000000e+00
-1.031493e+05 -3.112147e+02 0.000000e+00 -3.112147e+02 -5.979372e+04 0.000000e+00 0.000000e+00 0.000000e+00 0.000000e+00
-1.050621e+05 -8.155187e+01 0.000000e+00 -8.155187e+01 -6.047216e+04 0.000000e+00 0.000000e+00 0.000000e+00 0.000000e+00
-6.593977e+04 1.150354e+03 0.000000e+00 1.150354e+03 -6.475576e+04 0.000000e+00 0.000000e+00 0.000000e+00 0.000000e+00
-7.348387e+04 1.077692e+03 0.000000e+00 1.077692e+03 -6.394564e+04 0.000000e+00 0.000000e+00 0.000000e+00 0.000000e+00
-8.167934e+04 7.271432e+02 0.000000e+00 7.271432e+02 -6.119964e+04 0.000000e+00 0.000000e+00 0.000000e+00 0.000000e+00
-8.691045e+04 3.167058e+02 0.000000e+00 3.167058e+02 -5.936023e+04 0.000000e+00 0.000000e+00 0.000000e+00 0.000000e+00
-9.053421e+04 -5.011171e+01 0.000000e+00 -5.011171e+01 -5.841209e+04 0.000000e+00 0.000000e+00 0.000000e+00 0.000000e+00
-9.351105e+04 -3.124750e+02 0.000000e+00 -3.124750e+02 -5.814098e+04 0.000000e+00 0.000000e+00 0.000000e+00 0.000000e+00
-9.620861e+04 -4.867858e+02 0.000000e+00 -4.867858e+02 -5.838911e+04 0.000000e+00 0.000000e+00 0.000000e+00 0.000000e+00
-9.876187e+04 -5.482156e+02 0.000000e+00 -5.482156e+02 -5.889304e+04 0.000000e+00 0.000000e+00 0.000000e+00 0.000000e+00
-1.011604e+05 -5.043252e+02 0.000000e+00 -5.043252e+02 -5.946591e+04 0.000000e+00 0.000000e+00 0.000000e+00 0.000000e+00
-1.033522e+05 -3.872117e+02 0.000000e+00 -3.872117e+02 -5.984930e+04 0.000000e+00 0.000000e+00 0.000000e+00 0.000000e+00
-1.053312e+05 -2.802634e+02 0.000000e+00 -2.802634e+02 -6.052709e+04 0.000000e+00 0.000000e+00 0.000000e+00 0.000000e+00
</DataArray>
<DataArray Name="vol_eps" type="Float64" NumberOfComponents="1" format="ascii">
-1.387526e-02
-1.166288e-02
-9.343772e-03
-7.934066e-03
-7.498921e-03
-8.218786e-03
-9.604462e-03
-1.207764e-02
-1.572627e-02
-2.002325e-02
-2.013973e-02
-1.350283e-02
-1.084619e-02
-9.193507e-03
-8.255108e-03
-7.892837e-03
-8.234352e-03
-8.865753e-03
-1.027427e-02
-1.308350e-02
-1.629999e-02
-2.235247e-02
-1.130740e-02
-8.359402e-03
-7.412423e-03
-7.373072e-03
-7.557335e-03
-8.227027e-03
-9.112959e-03
-9.972781e-03
-1.030905e-02
-1.090240e-02
-1.556943e-02
-7.200672e-03
-5.378035e-03
-5.278133e-03
-5.746163e-03
-5.614290e-03
-4.853022e-03
-3.076187e-03
-4.589178e-04
3.455441e-03
8.099408e-03
1.317112e-02
-5.132242e-03
-4.706709e-03
-5.617463e-03
-6.356700e-03
-6.651619e-03
-6.587759e-03
-6.221530e-03
-5.571626e-03
-4.566220e-03
-2.763494e-03
7.989745e-04
-3.309900e-03
-3.796837e-03
-4.996122e-03
-5.476948e-03
-5.608491e-03
-5.484128e-03
-5.104381e-03
-4.485848e-03
-3.624188e-03
-2.005240e-03
4.498345e-04
-1.972130e-03
-3.140178e-03
-4.287706e-03
-4.691449e-03
-4.748030e-03
-4.541563e-03
-4.163318e-03
-3.636792e-03
-2.973530e-03
-1.780956e-03
-1.960448e-04
-9.958571e-04
-2.623043e-03
-3.731458e-03
-4.045608e-03
-4.018847e-03
-3.822319e-03
-3.485756e-03
-3.057255e-03
-2.586414e-03
-1.806478e-03
-7.639351e-04
-4.933350e-04
-2.281930e-03
-3.276729e-03
-3.481638e-03
-3.449811e-03
-3.288054e-03
-3.008032e-03
-2.696372e-03
-2.396653e-03
-1.936458e-03
-1.288113e-03
-3.266773e-04
-2.018943e-03
-2.851223e-03
-3.018211e-03
-3.018596e-03
-2.895453e-03
-2.691515e-03
-2.489612e-03
-2.329529e-03
-2.100471e-03
-1.747834e-03
-3.373124e-04
-1.800900e-03
-2.472826e-03
-2.653210e-03
-2.686470e-03
-2.615300e-03
-2.482720e-03
-2.372772e-03
-2.322526e-03
-2.251157e-03
-2.098985e-03
-4.125542e-04
-1.605799e-03
-2.160955e-03
-2.359634e-03
-2.425466e-03
-2.403679e-03
-2.334831e-03
-2.302223e-03
-2.335456e-03
-2.371666e-03
-2.356823e-03
-4.824600e-04
-1.432288e-03
-1.924764e-03
-2.130643e-03
-2.215703e-03
-2.229010e-03
-2.231338e-03
-2.275815e-03
-2.365869e-03
-2.461379e-03
-2.534250e-03
-5.420187e-04
-1.282071e-03
-1.745742e-03
-1.947675e-03
-2.045295e-03
-2.103772e-03
-2.172465e-03
-2.277813e-03
-2.403383e-03
-2.525445e-03
-2.646019e-03
-6.225760e-04
-1.180269e-03
-1.593777e-03
-1.799815e-03
-1.918585e-03
-2.027908e-03
-2.150161e-03
-2.292360e-03
-2.439874e-03
-2.569605e-03
-2.712375e-03
-6.818576e-04
-1.133206e-03
-1.491989e-03
-1.705570e-03
-1.850820e-03
-1.991702e-03
-2.147774e-03
-2.312861e-03
-2.470957e-03
-2.594966e-03
-2.745084e-03
-6.799651e-04
-1.106808e-03
-1.455447e-03
-1.679077e-03
-1.839266e-03
-1.990103e-03
-2.157793e-03
-2.330179e-03
-2.489939e-03
-2.607707e-03
-2.759200e-03
</DataArray>
</PointData>
</Piece>
</UnstructuredGrid>
</VTKFile>
