<?xml version="1.0"?>
<VTKFile type="UnstructuredGrid" version="0.1">
<UnstructuredGrid>
<FieldData>
<DataArray Name="TIME" type="Float64" format="ascii" NumberOfTuples="1">
0.000000e+00
</DataArray>
</FieldData>
<FieldData>
<DataArray Name="CYCLE" type="Int32" format="ascii" NumberOfTuples="1">
0
</DataArray>
</FieldData>
<Piece NumberOfPoints="187" NumberOfCells="160">
<Points>
<DataArray NumberOfComponents="3" type="Float64" format="ascii">
0.000000e+00 0.000000e+00 0.000000e+00
0.000000e+00 1.994607e-01 0.000000e+00
0.000000e+00 3.988274e-01 0.000000e+00
0.000000e+00 5.980935e-01 0.000000e+00
0.000000e+00 7.972469e-01 0.000000e+00
0.000000e+00 9.962802e-01 0.000000e+00
0.000000e+00 1.195203e+00 0.000000e+00
0.000000e+00 1.394050e+00 0.000000e+00
0.000000e+00 1.592911e+00 0.000000e+00
0.000000e+00 1.791917e+00 0.000000e+00
0.000000e+00 1.991000e+00 0.000000e+00
2.250000e-01 0.000000e+00 0.000000e+00
2.251400e-01 1.994864e-01 0.000000e+00
2.252551e-01 3.988813e-01 0.000000e+00
2.253580e-01 5.981861e-01 0.000000e+00
2.254519e-01 7.973905e-01 0.000000e+00
2.255278e-01 9.964868e-01 0.000000e+00
2.255653e-01 1.195473e+00 0.000000e+00
2.255296e-01 1.394357e+00 0.000000e+00
2.253703e-01 1.593172e+00 0.000000e+00
2.250869e-01 1.791993e+00 0.000000e+00
2.250000e-01 1.991000e+00 0.000000e+00
4.500000e-01 0.000000e+00 0.000000e+00
4.502571e-01 1.995317e-01 0.000000e+00
4.504667e-01 3.989958e-01 0.000000e+00
4.506491e-01 5.983978e-01 0.000000e+00
4.508134e-01 7.977366e-01 0.000000e+00
4.509500e-01 9.970056e-01 0.000000e+00
4.510375e-01 1.196192e+00 0.000000e+00
4.510390e-01 1.395267e+00 0.000000e+00
4.509006e-01 1.594166e+00 0.000000e+00
4.505716e-01 1.792759e+00 0.000000e+00
4.500000e-01 1.991000e+00 0.000000e+00
6.750000e-01 0.000000e+00 0.000000e+00
6.753408e-01 1.995956e-01 0.000000e+00
6.756118e-01 3.991532e-01 0.000000e+00
6.758368e-01 5.986800e-01 0.000000e+00
6.760272e-01 7.981854e-01 0.000000e+00
6.761796e-01 9.976801e-01 0.000000e+00
6.762793e-01 1.197179e+00 0.000000e+00
6.763035e-01 1.396703e+00 0.000000e+00
6.762021e-01 1.596292e+00 0.000000e+00
6.759200e-01 1.796054e+00 0.000000e+00
6.746272e-01 1.996321e+00 0.000000e+00
9.000000e-01 0.000000e+00 0.000000e+00
9.003859e-01 1.996687e-01 0.000000e+00
9.006836e-01 3.993263e-01 0.000000e+00
9.009196e-01 5.989807e-01 0.000000e+00
9.011034e-01 7.986426e-01 0.000000e+00
9.012324e-01 9.983270e-01 0.000000e+00
9.012924e-01 1.198052e+00 0.000000e+00
9.012548e-01 1.397840e+00 0.000000e+00
9.010727e-01 1.597719e+00 0.000000e+00
9.005722e-01 1.797728e+00 0.000000e+00
8.996583e-01 1.997673e+00 0.000000e+00
1.125000e+00 0.000000e+00 0.000000e+00
1.125395e+00 1.997421e-01 0.000000e+00
1.125692e+00 3.994914e-01 0.000000e+00
1.125918e+00 5.992532e-01 0.000000e+00
1.126079e+00 7.990361e-01 0.000000e+00
1.126175e+00 9.988511e-01 0.000000e+00
1.126192e+00 1.198710e+00 0.000000e+00
1.126106e+00 1.398625e+00 0.000000e+00
1.125869e+00 1.598602e+00 0.000000e+00
1.125429e+00 1.798611e+00 0.000000e+00
1.124829e+00 1.998605e+00 0.000000e+00
1.350000e+00 0.000000e+00 0.000000e+00
1.350376e+00 1.998083e-01 0.000000e+00
1.350657e+00 3.996341e-01 0.000000e+00
1.350862e+00 5.994787e-01 0.000000e+00
1.350999e+00 7.993476e-01 0.000000e+00
1.351065e+00 9.992476e-01 0.000000e+00
1.351051e+00 1.199184e+00 0.000000e+00
1.350942e+00 1.399161e+00 0.000000e+00
1.350715e+00 1.599169e+00 0.000000e+00
1.350370e+00 1.799185e+00 0.000000e+00
1.349970e+00 1.999168e+00 0.000000e+00
1.575000e+00 0.000000e+00 0.000000e+00
1.575341e+00 1.998617e-01 0.000000e+00
1.575595e+00 3.997459e-01 0.000000e+00
1.575776e+00 5.996517e-01 0.000000e+00
1.575889e+00 7.995809e-01 0.000000e+00
1.575934e+00 9.995358e-01 0.000000e+00
1.575905e+00 1.199518e+00 0.000000e+00
1.575795e+00 1.399524e+00 0.000000e+00
1.575603e+00 1.599543e+00 0.000000e+00
1.575346e+00 1.799556e+00 0.000000e+00
1.575080e+00 1.999544e+00 0.000000e+00
1.800000e+00 0.000000e+00 0.000000e+00
1.800297e+00 1.999028e-01 0.000000e+00
1.800520e+00 3.998302e-01 0.000000e+00
1.800676e+00 5.997785e-01 0.000000e+00
1.800769e+00 7.997473e-01 0.000000e+00
1.800800e+00 9.997365e-01 0.000000e+00
1.800766e+00 1.199744e+00 0.000000e+00
1.800670e+00 1.399764e+00 0.000000e+00
1.800518e+00 1.599787e+00 0.000000e+00
1.800332e+00 1.799800e+00 0.000000e+00
1.800156e+00 1.999792e+00 0.000000e+00
2.025000e+00 0.000000e+00 0.000000e+00
2.025250e+00 1.999333e-01 0.000000e+00
2.025440e+00 3.998903e-01 0.000000e+00
2.025573e+00 5.998672e-01 0.000000e+00
2.025649e+00 7.998620e-01 0.000000e+00
2.025671e+00 9.998719e-01 0.000000e+00
2.025640e+00 1.199893e+00 0.000000e+00
2.025562e+00 1.399920e+00 0.000000e+00
2.025447e+00 1.599944e+00 0.000000e+00
2.025316e+00 1.799958e+00 0.000000e+00
2.025203e+00 1.999956e+00 0.000000e+00
2.250000e+00 0.000000e+00 0.000000e+00
2.250205e+00 1.999547e-01 0.000000e+00
2.250363e+00 3.999320e-01 0.000000e+00
2.250473e+00 5.999279e-01 0.000000e+00
2.250535e+00 7.999386e-01 0.000000e+00
2.250552e+00 9.999605e-01 0.000000e+00
2.250527e+00 1.199989e+00 0.000000e+00
2.250467e+00 1.400019e+00 0.000000e+00
2.250383e+00 1.600044e+00 0.000000e+00
2.250293e+00 1.800059e+00 0.000000e+00
2.250223e+00 2.000062e+00 0.000000e+00
2.475000e+00 0.000000e+00 0.000000e+00
2.475164e+00 1.999700e-01 0.000000e+00
2.475291e+00 3.999610e-01 0.000000e+00
2.475380e+00 5.999686e-01 0.000000e+00
2.475430e+00 7.999887e-01 0.000000e+00
2.475443e+00 1.000017e+00 0.000000e+00
2.475425e+00 1.200049e+00 0.000000e+00
2.475380e+00 1.400080e+00 0.000000e+00
2.475321e+00 1.600106e+00 0.000000e+00
2.475261e+00 1.800123e+00 0.000000e+00
2.475221e+00 2.000130e+00 0.000000e+00
2.700000e+00 0.000000e+00 0.000000e+00
2.700127e+00 1.999816e-01 0.000000e+00
2.700225e+00 3.999813e-01 0.000000e+00
2.700294e+00 5.999959e-01 0.000000e+00
2.700333e+00 8.000214e-01 0.000000e+00
2.700344e+00 1.000053e+00 0.000000e+00
2.700331e+00 1.200087e+00 0.000000e+00
2.700300e+00 1.400119e+00 0.000000e+00
2.700259e+00 1.600145e+00 0.000000e+00
2.700221e+00 1.800163e+00 0.000000e+00
2.700199e+00 2.000175e+00 0.000000e+00
2.925000e+00 0.000000e+00 0.000000e+00
2.925094e+00 1.999895e-01 0.000000e+00
2.925166e+00 3.999956e-01 0.000000e+00
2.925215e+00 6.000153e-01 0.000000e+00
2.925244e+00 8.000446e-01 0.000000e+00
2.925252e+00 1.000079e+00 0.000000e+00
2.925243e+00 1.200114e+00 0.000000e+00
2.925222e+00 1.400145e+00 0.000000e+00
2.925196e+00 1.600172e+00 0.000000e+00
2.925173e+00 1.800191e+00 0.000000e+00
2.925163e+00 2.000206e+00 0.000000e+00
3.150000e+00 0.000000e+00 0.000000e+00
3.150063e+00 1.999962e-01 0.000000e+00
3.150110e+00 4.000078e-01 0.000000e+00
3.150142e+00 6.000319e-01 0.000000e+00
3.150160e+00 8.000641e-01 0.000000e+00
3.150165e+00 1.000100e+00 0.000000e+00
3.150160e+00 1.200135e+00 0.000000e+00
3.150147e+00 1.400167e+00 0.000000e+00
3.150132e+00 1.600194e+00 0.000000e+00
3.150119e+00 1.800215e+00 0.000000e+00
3.150115e+00 2.000232e+00 0.000000e+00
3.375000e+00 0.000000e+00 0.000000e+00
3.375034e+00 2.000029e-01 0.000000e+00
3.375056e+00 4.000217e-01 0.000000e+00
3.375071e+00 6.000504e-01 0.000000e+00
3.375079e+00 8.000851e-01 0.000000e+00
3.375082e+00 1.000122e+00 0.000000e+00
3.375079e+00 1.200158e+00 0.000000e+00
3.375073e+00 1.400190e+00 0.000000e+00
3.375066e+00 1.600217e+00 0.000000e+00
3.375060e+00 1.800239e+00 0.000000e+00
3.375059e+00 2.000257e+00 0.000000e+00
3.600000e+00 0.000000e+00 0.000000e+00
3.600000e+00 2.000193e-01 0.000000e+00
3.600000e+00 4.000441e-01 0.000000e+00
3.600000e+00 6.000751e-01 0.000000e+00
3.600000e+00 8.001108e-01 0.000000e+00
3.600000e+00 1.000148e+00 0.000000e+00
3.600000e+00 1.200184e+00 0.000000e+00
3.600000e+00 1.400216e+00 0.000000e+00
3.600000e+00 1.600243e+00 0.000000e+00
3.600000e+00 1.800266e+00 0.000000e+00
3.600000e+00 2.000285e+00 0.000000e+00
</DataArray>
</Points>
<Cells>
<DataArray Name="connectivity" type="Int32" format="ascii">
0 11 12 1
1 12 13 2
2 13 14 3
3 14 15 4
4 15 16 5
5 16 17 6
6 17 18 7
7 18 19 8
8 19 20 9
9 20 21 10
11 22 23 12
12 23 24 13
13 24 25 14
14 25 26 15
15 26 27 16
16 27 28 17
17 28 29 18
18 29 30 19
19 30 31 20
20 31 32 21
22 33 34 23
23 34 35 24
24 35 36 25
25 36 37 26
26 37 38 27
27 38 39 28
28 39 40 29
29 40 41 30
30 41 42 31
31 42 43 32
33 44 45 34
34 45 46 35
35 46 47 36
36 47 48 37
37 48 49 38
38 49 50 39
39 50 51 40
40 51 52 41
41 52 53 42
42 53 54 43
44 55 56 45
45 56 57 46
46 57 58 47
47 58 59 48
48 59 60 49
49 60 61 50
50 61 62 51
51 62 63 52
52 63 64 53
53 64 65 54
55 66 67 56
56 67 68 57
57 68 69 58
58 69 70 59
59 70 71 60
60 71 72 61
61 72 73 62
62 73 74 63
63 74 75 64
64 75 76 65
66 77 78 67
67 78 79 68
68 79 80 69
69 80 81 70
70 81 82 71
71 82 83 72
72 83 84 73
73 84 85 74
74 85 86 75
75 86 87 76
77 88 89 78
78 89 90 79
79 90 91 80
80 91 92 81
81 92 93 82
82 93 94 83
83 94 95 84
84 95 96 85
85 96 97 86
86 97 98 87
88 99 100 89
89 100 101 90
90 101 102 91
91 102 103 92
92 103 104 93
93 104 105 94
94 105 106 95
95 106 107 96
96 107 108 97
97 108 109 98
99 110 111 100
100 111 112 101
101 112 113 102
102 113 114 103
103 114 115 104
104 115 116 105
105 116 117 106
106 117 118 107
107 118 119 108
108 119 120 109
110 121 122 111
111 122 123 112
112 123 124 113
113 124 125 114
114 125 126 115
115 126 127 116
116 127 128 117
117 128 129 118
118 129 130 119
119 130 131 120
121 132 133 122
122 133 134 123
123 134 135 124
124 135 136 125
125 136 137 126
126 137 138 127
127 138 139 128
128 139 140 129
129 140 141 130
130 141 142 131
132 143 144 133
133 144 145 134
134 145 146 135
135 146 147 136
136 147 148 137
137 148 149 138
138 149 150 139
139 150 151 140
140 151 152 141
141 152 153 142
143 154 155 144
144 155 156 145
145 156 157 146
146 157 158 147
147 158 159 148
148 159 160 149
149 160 161 150
150 161 162 151
151 162 163 152
152 163 164 153
154 165 166 155
155 166 167 156
156 167 168 157
157 168 169 158
158 169 170 159
159 170 171 160
160 171 172 161
161 172 173 162
162 173 174 163
163 174 175 164
165 176 177 166
166 177 178 167
167 178 179 168
168 179 180 169
169 180 181 170
170 181 182 171
171 182 183 172
172 183 184 173
173 184 185 174
174 185 186 175
</DataArray>
<DataArray Name="offsets" type="Int32" format="ascii">
4
8
12
16
20
24
28
32
36
40
44
48
52
56
60
64
68
72
76
80
84
88
92
96
100
104
108
112
116
120
124
128
132
136
140
144
148
152
156
160
164
168
172
176
180
184
188
192
196
200
204
208
212
216
220
224
228
232
236
240
244
248
252
256
260
264
268
272
276
280
284
288
292
296
300
304
308
312
316
320
324
328
332
336
340
344
348
352
356
360
364
368
372
376
380
384
388
392
396
400
404
408
412
416
420
424
428
432
436
440
444
448
452
456
460
464
468
472
476
480
484
488
492
496
500
504
508
512
516
520
524
528
532
536
540
544
548
552
556
560
564
568
572
576
580
584
588
592
596
600
604
608
612
616
620
624
628
632
636
640
</DataArray>
<DataArray Name="types" type="UInt8" format="ascii">
9
9
9
9
9
9
9
9
9
9
9
9
9
9
9
9
9
9
9
9
9
9
9
9
9
9
9
9
9
9
9
9
9
9
9
9
9
9
9
9
9
9
9
9
9
9
9
9
9
9
9
9
9
9
9
9
9
9
9
9
9
9
9
9
9
9
9
9
9
9
9
9
9
9
9
9
9
9
9
9
9
9
9
9
9
9
9
9
9
9
9
9
9
9
9
9
9
9
9
9
9
9
9
9
9
9
9
9
9
9
9
9
9
9
9
9
9
9
9
9
9
9
9
9
9
9
9
9
9
9
9
9
9
9
9
9
9
9
9
9
9
9
9
9
9
9
9
9
9
9
9
9
9
9
9
9
9
9
9
9
</DataArray>
</Cells>
<PointData>
<DataArray Name="disp" type="Float64" NumberOfComponents="3" format="ascii">
0.000000e+00 0.000000e+00 0.000000e+00
0.000000e+00 -5.393263e-04 0.000000e+00
0.000000e+00 -1.172576e-03 0.000000e+00
0.000000e+00 -1.906467e-03 0.000000e+00
0.000000e+00 -2.753121e-03 0.000000e+00
0.000000e+00 -3.719802e-03 0.000000e+00
0.000000e+00 -4.796875e-03 0.000000e+00
0.000000e+00 -5.949632e-03 0.000000e+00
0.000000e+00 -7.089313e-03 0.000000e+00
0.000000e+00 -8.083331e-03 0.000000e+00
0.000000e+00 -9.000000e-03 0.000000e+00
0.000000e+00 0.000000e+00 0.000000e+00
1.400164e-04 -5.136282e-04 0.000000e+00
2.550950e-04 -1.118729e-03 0.000000e+00
3.579808e-04 -1.813927e-03 0.000000e+00
4.518935e-04 -2.609498e-03 0.000000e+00
5.278038e-04 -3.513206e-03 0.000000e+00
5.652633e-04 -4.526671e-03 0.000000e+00
5.296229e-04 -5.643083e-03 0.000000e+00
3.703485e-04 -6.828421e-03 0.000000e+00
8.691865e-05 -8.007083e-03 0.000000e+00
0.000000e+00 -9.000000e-03 0.000000e+00
0.000000e+00 0.000000e+00 0.000000e+00
2.571259e-04 -4.683430e-04 0.000000e+00
4.667149e-04 -1.004244e-03 0.000000e+00
6.490978e-04 -1.602236e-03 0.000000e+00
8.133916e-04 -2.263411e-03 0.000000e+00
9.499584e-04 -2.994371e-03 0.000000e+00
1.037497e-03 -3.807745e-03 0.000000e+00
1.039053e-03 -4.732695e-03 0.000000e+00
9.006461e-04 -5.834155e-03 0.000000e+00
5.715983e-04 -7.240811e-03 0.000000e+00
0.000000e+00 -9.000000e-03 0.000000e+00
0.000000e+00 0.000000e+00 0.000000e+00
3.408525e-04 -4.043976e-04 0.000000e+00
6.117912e-04 -8.468141e-04 0.000000e+00
8.368221e-04 -1.319985e-03 0.000000e+00
1.027250e-03 -1.814604e-03 0.000000e+00
1.179624e-03 -2.319857e-03 0.000000e+00
1.279287e-03 -2.821252e-03 0.000000e+00
1.303501e-03 -3.297375e-03 0.000000e+00
1.202097e-03 -3.708384e-03 0.000000e+00
9.199385e-04 -3.945618e-03 0.000000e+00
-3.727289e-04 -3.678533e-03 0.000000e+00
0.000000e+00 0.000000e+00 0.000000e+00
3.859140e-04 -3.313097e-04 0.000000e+00
6.836318e-04 -6.736861e-04 0.000000e+00
9.196234e-04 -1.019314e-03 0.000000e+00
1.103445e-03 -1.357354e-03 0.000000e+00
1.232368e-03 -1.672961e-03 0.000000e+00
1.292465e-03 -1.948310e-03 0.000000e+00
1.254851e-03 -2.160364e-03 0.000000e+00
1.072739e-03 -2.280772e-03 0.000000e+00
5.721683e-04 -2.272268e-03 0.000000e+00
-3.416545e-04 -2.326729e-03 0.000000e+00
0.000000e+00 0.000000e+00 0.000000e+00
3.949996e-04 -2.579094e-04 0.000000e+00
6.923887e-04 -5.086334e-04 0.000000e+00
9.176013e-04 -7.467877e-04 0.000000e+00
1.079367e-03 -9.638389e-04 0.000000e+00
1.175072e-03 -1.148919e-03 0.000000e+00
1.191830e-03 -1.289558e-03 0.000000e+00
1.105555e-03 -1.374922e-03 0.000000e+00
8.690886e-04 -1.397586e-03 0.000000e+00
4.287888e-04 -1.388627e-03 0.000000e+00
-1.707517e-04 -1.395304e-03 0.000000e+00
0.000000e+00 0.000000e+00 0.000000e+00
3.763729e-04 -1.916751e-04 0.000000e+00
6.567992e-04 -3.658698e-04 0.000000e+00
8.620076e-04 -5.212968e-04 0.000000e+00
9.986889e-04 -6.524259e-04 0.000000e+00
1.064920e-03 -7.524438e-04 0.000000e+00
1.051438e-03 -8.155563e-04 0.000000e+00
9.416032e-04 -8.390077e-04 0.000000e+00
7.151605e-04 -8.306262e-04 0.000000e+00
3.698452e-04 -8.147664e-04 0.000000e+00
-2.994099e-05 -8.319091e-04 0.000000e+00
0.000000e+00 0.000000e+00 0.000000e+00
3.406811e-04 -1.382678e-04 0.000000e+00
5.949299e-04 -2.541580e-04 0.000000e+00
7.762108e-04 -3.483112e-04 0.000000e+00
8.892859e-04 -4.191187e-04 0.000000e+00
9.335906e-04 -4.642073e-04 0.000000e+00
9.046483e-04 -4.821514e-04 0.000000e+00
7.951633e-04 -4.762861e-04 0.000000e+00
6.028289e-04 -4.570897e-04 0.000000e+00
3.464695e-04 -4.442224e-04 0.000000e+00
7.992559e-05 -4.562154e-04 0.000000e+00
0.000000e+00 0.000000e+00 0.000000e+00
2.966408e-04 -9.716966e-05 0.000000e+00
5.195339e-04 -1.698010e-04 0.000000e+00
6.758451e-04 -2.214693e-04 0.000000e+00
7.690744e-04 -2.527188e-04 0.000000e+00
7.995573e-04 -2.634280e-04 0.000000e+00
7.663627e-04 -2.560875e-04 0.000000e+00
6.697517e-04 -2.359580e-04 0.000000e+00
5.176456e-04 -2.131862e-04 0.000000e+00
3.322408e-04 -2.004353e-04 0.000000e+00
1.562644e-04 -2.077793e-04 0.000000e+00
0.000000e+00 0.000000e+00 0.000000e+00
2.500887e-04 -6.672809e-05 0.000000e+00
4.398474e-04 -1.097227e-04 0.000000e+00
5.725617e-04 -1.328420e-04 0.000000e+00
6.491577e-04 -1.379761e-04 0.000000e+00
6.711428e-04 -1.281575e-04 0.000000e+00
6.404161e-04 -1.067029e-04 0.000000e+00
5.618210e-04 -7.988667e-05 0.000000e+00
4.468341e-04 -5.567131e-05 0.000000e+00
3.158975e-04 -4.213617e-05 0.000000e+00
2.033371e-04 -4.445529e-05 0.000000e+00
0.000000e+00 0.000000e+00 0.000000e+00
2.048082e-04 -4.533525e-05 0.000000e+00
3.625272e-04 -6.801933e-05 0.000000e+00
4.728634e-04 -7.212631e-05 0.000000e+00
5.351509e-04 -6.139302e-05 0.000000e+00
5.520820e-04 -3.943793e-05 0.000000e+00
5.270185e-04 -1.086835e-05 0.000000e+00
4.666452e-04 1.891134e-05 0.000000e+00
3.826937e-04 4.388429e-05 0.000000e+00
2.926556e-04 5.897193e-05 0.000000e+00
2.233302e-04 6.198437e-05 0.000000e+00
0.000000e+00 0.000000e+00 0.000000e+00
1.636056e-04 -2.998148e-05 0.000000e+00
2.907236e-04 -3.899265e-05 0.000000e+00
3.796270e-04 -3.144470e-05 0.000000e+00
4.296529e-04 -1.123579e-05 0.000000e+00
4.432758e-04 1.713638e-05 0.000000e+00
4.245246e-04 4.927461e-05 0.000000e+00
3.801816e-04 8.029644e-05 0.000000e+00
3.208363e-04 1.057394e-04 0.000000e+00
2.611183e-04 1.225981e-04 0.000000e+00
2.208339e-04 1.303429e-04 0.000000e+00
0.000000e+00 0.000000e+00 0.000000e+00
1.268033e-04 -1.835200e-05 0.000000e+00
2.251754e-04 -1.871499e-05 0.000000e+00
2.940435e-04 -4.165604e-06 0.000000e+00
3.329927e-04 2.136441e-05 0.000000e+00
3.438107e-04 5.337894e-05 0.000000e+00
3.306477e-04 8.728159e-05 0.000000e+00
2.994477e-04 1.188527e-04 0.000000e+00
2.589559e-04 1.446945e-04 0.000000e+00
2.206522e-04 1.631306e-04 0.000000e+00
1.992847e-04 1.748706e-04 0.000000e+00
0.000000e+00 0.000000e+00 0.000000e+00
9.369261e-05 -1.046248e-05 0.000000e+00
1.656746e-04 -4.360385e-06 0.000000e+00
2.154637e-04 1.532995e-05 0.000000e+00
2.437310e-04 4.459382e-05 0.000000e+00
2.519149e-04 7.871776e-05 0.000000e+00
2.431583e-04 1.135119e-04 0.000000e+00
2.223216e-04 1.453710e-04 0.000000e+00
1.960187e-04 1.715641e-04 0.000000e+00
1.725876e-04 1.914289e-04 0.000000e+00
1.625679e-04 2.063337e-04 0.000000e+00
0.000000e+00 0.000000e+00 0.000000e+00
6.333985e-05 -3.777352e-06 0.000000e+00
1.101194e-04 7.843171e-06 0.000000e+00
1.418481e-04 3.193882e-05 0.000000e+00
1.599185e-04 6.415985e-05 0.000000e+00
1.652654e-04 9.985156e-05 0.000000e+00
1.599738e-04 1.353586e-04 0.000000e+00
1.472686e-04 1.673646e-04 0.000000e+00
1.317029e-04 1.938913e-04 0.000000e+00
1.185185e-04 2.149089e-04 0.000000e+00
1.144517e-04 2.320576e-04 0.000000e+00
0.000000e+00 0.000000e+00 0.000000e+00
3.387585e-05 2.859652e-06 0.000000e+00
5.567928e-05 2.171554e-05 0.000000e+00
7.069330e-05 5.039253e-05 0.000000e+00
7.931585e-05 8.505394e-05 0.000000e+00
8.185602e-05 1.219448e-04 0.000000e+00
7.936028e-05 1.578763e-04 0.000000e+00
7.339100e-05 1.900010e-04 0.000000e+00
6.621728e-05 2.168603e-04 0.000000e+00
6.032480e-05 2.386641e-04 0.000000e+00
5.890572e-05 2.572517e-04 0.000000e+00
0.000000e+00 0.000000e+00 0.000000e+00
0.000000e+00 1.932790e-05 0.000000e+00
0.000000e+00 4.407468e-05 0.000000e+00
0.000000e+00 7.510052e-05 0.000000e+00
0.000000e+00 1.107383e-04 0.000000e+00
0.000000e+00 1.481570e-04 0.000000e+00
0.000000e+00 1.841245e-04 0.000000e+00
0.000000e+00 2.163749e-04 0.000000e+00
0.000000e+00 2.434215e-04 0.000000e+00
0.000000e+00 2.655179e-04 0.000000e+00
0.000000e+00 2.846466e-04 0.000000e+00
</DataArray>
<DataArray Name="shear" type="Float64" NumberOfComponents="1" format="ascii">
2.877159e-03
3.509323e-03
4.511725e-03
5.497623e-03
6.488461e-03
7.399679e-03
8.047538e-03
8.094233e-03
7.125987e-03
5.537950e-03
4.849020e-03
2.841659e-03
3.420556e-03
4.338148e-03
5.240370e-03
6.160810e-03
7.053497e-03
7.810853e-03
8.220139e-03
7.999707e-03
6.966382e-03
5.977758e-03
2.816543e-03
3.244055e-03
3.927607e-03
4.618601e-03
5.350899e-03
6.152241e-03
7.056654e-03
8.102767e-03
9.352977e-03
1.021854e-02
1.023123e-02
2.758603e-03
3.002587e-03
3.388300e-03
3.812362e-03
4.270330e-03
4.792788e-03
5.437903e-03
6.274123e-03
7.381779e-03
7.659518e-03
8.019826e-03
2.630696e-03
2.709795e-03
2.821051e-03
3.004260e-03
3.216874e-03
3.440367e-03
3.649580e-03
3.775830e-03
3.515283e-03
2.163107e-03
6.605302e-04
2.427277e-03
2.391859e-03
2.310142e-03
2.317557e-03
2.355132e-03
2.382654e-03
2.352827e-03
2.175278e-03
1.663976e-03
6.860161e-04
4.424628e-04
2.166598e-03
2.069205e-03
1.884660e-03
1.790827e-03
1.729081e-03
1.659980e-03
1.540069e-03
1.306708e-03
8.793227e-04
2.384134e-04
3.850610e-04
1.880352e-03
1.761070e-03
1.541731e-03
1.402485e-03
1.298709e-03
1.198578e-03
1.066621e-03
8.616516e-04
5.410636e-04
7.311325e-05
3.087424e-04
1.593004e-03
1.477079e-03
1.268607e-03
1.126530e-03
1.020789e-03
9.256825e-04
8.140164e-04
6.557916e-04
4.188813e-04
7.552556e-05
1.967610e-04
1.318752e-03
1.218524e-03
1.046371e-03
9.300988e-04
8.471184e-04
7.758331e-04
6.920950e-04
5.705657e-04
3.876843e-04
1.203295e-04
8.233776e-05
1.068041e-03
9.894436e-04
8.646579e-04
7.864030e-04
7.351501e-04
6.903074e-04
6.288476e-04
5.318971e-04
3.833618e-04
1.711840e-04
3.684487e-05
8.471275e-04
7.904457e-04
7.118774e-04
6.755849e-04
6.574708e-04
6.351919e-04
5.897217e-04
5.088036e-04
3.857069e-04
2.238571e-04
1.316520e-04
6.530113e-04
6.155354e-04
5.821559e-04
5.900136e-04
6.028946e-04
5.975688e-04
5.620720e-04
4.921582e-04
3.906279e-04
2.739973e-04
2.158683e-04
4.816139e-04
4.643804e-04
4.804219e-04
5.307647e-04
5.679354e-04
5.727771e-04
5.427771e-04
4.810490e-04
3.981477e-04
3.175583e-04
2.834904e-04
3.282945e-04
3.398940e-04
4.151959e-04
4.994533e-04
5.498783e-04
5.594499e-04
5.320863e-04
4.765003e-04
4.086626e-04
3.528446e-04
3.334582e-04
1.955496e-04
2.678800e-04
3.959524e-04
4.919739e-04
5.447398e-04
5.553712e-04
5.299081e-04
4.795907e-04
4.219672e-04
3.788702e-04
3.656508e-04
1.441870e-04
2.585778e-04
3.960790e-04
4.905058e-04
5.435621e-04
5.553944e-04
5.320128e-04
4.850964e-04
4.312781e-04
3.906489e-04
3.777657e-04
</DataArray>
<DataArray Name="stress" type="Float64" NumberOfComponents="9" format="ascii">
-6.909507e+04 5.657787e+02 0.000000e+00 5.657787e+02 -8.880582e+04 0.000000e+00 0.000000e+00 0.000000e+00 0.000000e+00
-6.631691e+04 7.250842e+02 0.000000e+00 7.250842e+02 -8.914524e+04 0.000000e+00 0.000000e+00 0.000000e+00 0.000000e+00
-6.385363e+04 9.741519e+02 0.000000e+00 9.741519e+02 -9.118431e+04 0.000000e+00 0.000000e+00 0.000000e+00 0.000000e+00
-6.262768e+04 1.302494e+03 0.000000e+00 1.302494e+03 -9.359899e+04 0.000000e+00 0.000000e+00 0.000000e+00 0.000000e+00
-6.244434e+04 1.675573e+03 0.000000e+00 1.675573e+03 -9.653181e+04 0.000000e+00 0.000000e+00 0.000000e+00 0.000000e+00
-6.306777e+04 2.067189e+03 0.000000e+00 2.067189e+03 -1.000448e+05 0.000000e+00 0.000000e+00 0.000000e+00 0.000000e+00
-6.461966e+04 2.364014e+03 0.000000e+00 2.364014e+03 -1.039833e+05 0.000000e+00 0.000000e+00 0.000000e+00 0.000000e+00
-6.727915e+04 2.301495e+03 0.000000e+00 2.301495e+03 -1.078481e+05 0.000000e+00 0.000000e+00 0.000000e+00 0.000000e+00
-7.148874e+04 1.406898e+03 0.000000e+00 1.406898e+03 -1.106236e+05 0.000000e+00 0.000000e+00 0.000000e+00 0.000000e+00
-7.738745e+04 9.166463e+01 0.000000e+00 9.166463e+01 -1.119392e+05 0.000000e+00 0.000000e+00 0.000000e+00 0.000000e+00
-7.968880e+04 -2.889684e+02 0.000000e+00 -2.889684e+02 -1.115145e+05 0.000000e+00 0.000000e+00 0.000000e+00 0.000000e+00
-6.887568e+04 2.049913e+03 0.000000e+00 2.049913e+03 -8.775388e+04 0.000000e+00 0.000000e+00 0.000000e+00 0.000000e+00
-6.631872e+04 2.141647e+03 0.000000e+00 2.141647e+03 -8.816020e+04 0.000000e+00 0.000000e+00 0.000000e+00 0.000000e+00
-6.404194e+04 2.380107e+03 0.000000e+00 2.380107e+03 -9.010517e+04 0.000000e+00 0.000000e+00 0.000000e+00 0.000000e+00
-6.292528e+04 2.870467e+03 0.000000e+00 2.870467e+03 -9.226247e+04 0.000000e+00 0.000000e+00 0.000000e+00 0.000000e+00
-6.279614e+04 3.510790e+03 0.000000e+00 3.510790e+03 -9.486039e+04 0.000000e+00 0.000000e+00 0.000000e+00 0.000000e+00
-6.342851e+04 4.195442e+03 0.000000e+00 4.195442e+03 -9.807856e+04 0.000000e+00 0.000000e+00 0.000000e+00 0.000000e+00
-6.490353e+04 4.737874e+03 0.000000e+00 4.737874e+03 -1.019535e+05 0.000000e+00 0.000000e+00 0.000000e+00 0.000000e+00
-6.727724e+04 4.700688e+03 0.000000e+00 4.700688e+03 -1.064101e+05 0.000000e+00 0.000000e+00 0.000000e+00 0.000000e+00
-7.081460e+04 3.442291e+03 0.000000e+00 3.442291e+03 -1.111947e+05 0.000000e+00 0.000000e+00 0.000000e+00 0.000000e+00
-7.600895e+04 1.342879e+03 0.000000e+00 1.342879e+03 -1.150056e+05 0.000000e+00 0.000000e+00 0.000000e+00 0.000000e+00
-8.129606e+04 -6.816997e+02 0.000000e+00 -6.816997e+02 -1.182152e+05 0.000000e+00 0.000000e+00 0.000000e+00 0.000000e+00
-6.838777e+04 3.945735e+03 0.000000e+00 3.945735e+03 -8.544615e+04 0.000000e+00 0.000000e+00 0.000000e+00 0.000000e+00
-6.635874e+04 4.026215e+03 0.000000e+00 4.026215e+03 -8.574739e+04 0.000000e+00 0.000000e+00 0.000000e+00 0.000000e+00
-6.456005e+04 4.337266e+03 0.000000e+00 4.337266e+03 -8.719008e+04 0.000000e+00 0.000000e+00 0.000000e+00 0.000000e+00
-6.373068e+04 5.137342e+03 0.000000e+00 5.137342e+03 -8.872772e+04 0.000000e+00 0.000000e+00 0.000000e+00 0.000000e+00
-6.376903e+04 6.285243e+03 0.000000e+00 6.285243e+03 -9.049302e+04 0.000000e+00 0.000000e+00 0.000000e+00 0.000000e+00
-6.453450e+04 7.651030e+03 0.000000e+00 7.651030e+03 -9.264732e+04 0.000000e+00 0.000000e+00 0.000000e+00 0.000000e+00
-6.596226e+04 9.090734e+03 0.000000e+00 9.090734e+03 -9.548262e+04 0.000000e+00 0.000000e+00 0.000000e+00 0.000000e+00
-6.818588e+04 1.036636e+04 0.000000e+00 1.036636e+04 -9.953145e+04 0.000000e+00 0.000000e+00 0.000000e+00 0.000000e+00
-7.196609e+04 1.131307e+04 0.000000e+00 1.131307e+04 -1.060758e+05 0.000000e+00 0.000000e+00 0.000000e+00 0.000000e+00
-8.034197e+04 1.158442e+04 0.000000e+00 1.158442e+04 -1.163671e+05 0.000000e+00 0.000000e+00 0.000000e+00 0.000000e+00
-9.419470e+04 1.179225e+04 0.000000e+00 1.179225e+04 -1.279478e+05 0.000000e+00 0.000000e+00 0.000000e+00 0.000000e+00
-6.764209e+04 5.253142e+03 0.000000e+00 5.253142e+03 -8.221414e+04 0.000000e+00 0.000000e+00 0.000000e+00 0.000000e+00
-6.630435e+04 5.312925e+03 0.000000e+00 5.312925e+03 -8.235657e+04 0.000000e+00 0.000000e+00 0.000000e+00 0.000000e+00
-6.519862e+04 5.582714e+03 0.000000e+00 5.582714e+03 -8.315412e+04 0.000000e+00 0.000000e+00 0.000000e+00 0.000000e+00
-6.484567e+04 6.425700e+03 0.000000e+00 6.425700e+03 -8.386191e+04 0.000000e+00 0.000000e+00 0.000000e+00 0.000000e+00
-6.511288e+04 7.658763e+03 0.000000e+00 7.658763e+03 -8.444720e+04 0.000000e+00 0.000000e+00 0.000000e+00 0.000000e+00
-6.587320e+04 9.125534e+03 0.000000e+00 9.125534e+03 -8.476947e+04 0.000000e+00 0.000000e+00 0.000000e+00 0.000000e+00
-6.698230e+04 1.069329e+04 0.000000e+00 1.069329e+04 -8.463976e+04 0.000000e+00 0.000000e+00 0.000000e+00 0.000000e+00
-6.827044e+04 1.230298e+04 0.000000e+00 1.230298e+04 -8.373333e+04 0.000000e+00 0.000000e+00 0.000000e+00 0.000000e+00
-6.980884e+04 1.381764e+04 0.000000e+00 1.381764e+04 -8.107977e+04 0.000000e+00 0.000000e+00 0.000000e+00 0.000000e+00
-7.069338e+04 1.280347e+04 0.000000e+00 1.280347e+04 -7.399103e+04 0.000000e+00 0.000000e+00 0.000000e+00 0.000000e+00
-7.139812e+04 1.156528e+04 0.000000e+00 1.156528e+04 -7.038744e+04 0.000000e+00 0.000000e+00 0.000000e+00 0.000000e+00
-6.671237e+04 5.924328e+03 0.000000e+00 5.924328e+03 -7.844400e+04 0.000000e+00 0.000000e+00 0.000000e+00 0.000000e+00
-6.613017e+04 5.935450e+03 0.000000e+00 5.935450e+03 -7.845086e+04 0.000000e+00 0.000000e+00 0.000000e+00 0.000000e+00
-6.574342e+04 6.052648e+03 0.000000e+00 6.052648e+03 -7.862739e+04 0.000000e+00 0.000000e+00 0.000000e+00 0.000000e+00
-6.586312e+04 6.673614e+03 0.000000e+00 6.673614e+03 -7.855262e+04 0.000000e+00 0.000000e+00 0.000000e+00 0.000000e+00
-6.640606e+04 7.556265e+03 0.000000e+00 7.556265e+03 -7.811459e+04 0.000000e+00 0.000000e+00 0.000000e+00 0.000000e+00
-6.728536e+04 8.503493e+03 0.000000e+00 8.503493e+03 -7.715553e+04 0.000000e+00 0.000000e+00 0.000000e+00 0.000000e+00
-6.838177e+04 9.305979e+03 0.000000e+00 9.305979e+03 -7.548698e+04 0.000000e+00 0.000000e+00 0.000000e+00 0.000000e+00
-6.955723e+04 9.712074e+03 0.000000e+00 9.712074e+03 -7.281065e+04 0.000000e+00 0.000000e+00 0.000000e+00 0.000000e+00
-7.056516e+04 8.931793e+03 0.000000e+00 8.931793e+03 -6.856163e+04 0.000000e+00 0.000000e+00 0.000000e+00 0.000000e+00
-6.886784e+04 5.184670e+03 0.000000e+00 5.184670e+03 -6.414943e+04 0.000000e+00 0.000000e+00 0.000000e+00 0.000000e+00
-6.050909e+04 1.595769e+03 0.000000e+00 1.595769e+03 -5.988230e+04 0.000000e+00 0.000000e+00 0.000000e+00 0.000000e+00
-6.567108e+04 6.042873e+03 0.000000e+00 6.042873e+03 -7.458029e+04 0.000000e+00 0.000000e+00 0.000000e+00 0.000000e+00
-6.579362e+04 5.978804e+03 0.000000e+00 5.978804e+03 -7.449589e+04 0.000000e+00 0.000000e+00 0.000000e+00 0.000000e+00
-6.605368e+04 5.869122e+03 0.000000e+00 5.869122e+03 -7.420316e+04 0.000000e+00 0.000000e+00 0.000000e+00 0.000000e+00
-6.652527e+04 6.122825e+03 0.000000e+00 6.122825e+03 -7.364058e+04 0.000000e+00 0.000000e+00 0.000000e+00 0.000000e+00
-6.719320e+04 6.504448e+03 0.000000e+00 6.504448e+03 -7.268892e+04 0.000000e+00 0.000000e+00 0.000000e+00 0.000000e+00
-6.798312e+04 6.805237e+03 0.000000e+00 6.805237e+03 -7.124188e+04 0.000000e+00 0.000000e+00 0.000000e+00 0.000000e+00
-6.875299e+04 6.795269e+03 0.000000e+00 6.795269e+03 -6.923430e+04 0.000000e+00 0.000000e+00 0.000000e+00 0.000000e+00
-6.921235e+04 6.146518e+03 0.000000e+00 6.146518e+03 -6.660264e+04 0.000000e+00 0.000000e+00 0.000000e+00 0.000000e+00
-6.848120e+04 4.340455e+03 0.000000e+00 4.340455e+03 -6.370534e+04 0.000000e+00 0.000000e+00 0.000000e+00 0.000000e+00
-6.366326e+04 1.550756e+03 0.000000e+00 1.550756e+03 -6.144427e+04 0.000000e+00 0.000000e+00 0.000000e+00 0.000000e+00
-5.689225e+04 1.655471e+02 0.000000e+00 1.655471e+02 -5.964781e+04 0.000000e+00 0.000000e+00 0.000000e+00 0.000000e+00
-6.464829e+04 5.744582e+03 0.000000e+00 5.744582e+03 -7.109719e+04 0.000000e+00 0.000000e+00 0.000000e+00 0.000000e+00
-6.531138e+04 5.618868e+03 0.000000e+00 5.618868e+03 -7.095615e+04 0.000000e+00 0.000000e+00 0.000000e+00 0.000000e+00
-6.605423e+04 5.296902e+03 0.000000e+00 5.296902e+03 -7.040188e+04 0.000000e+00 0.000000e+00 0.000000e+00 0.000000e+00
-6.673752e+04 5.202617e+03 0.000000e+00 5.202617e+03 -6.962877e+04 0.000000e+00 0.000000e+00 0.000000e+00 0.000000e+00
-6.739040e+04 5.135806e+03 0.000000e+00 5.135806e+03 -6.854501e+04 0.000000e+00 0.000000e+00 0.000000e+00 0.000000e+00
-6.795662e+04 4.929401e+03 0.000000e+00 4.929401e+03 -6.711690e+04 0.000000e+00 0.000000e+00 0.000000e+00 0.000000e+00
-6.825337e+04 4.393198e+03 0.000000e+00 4.393198e+03 -6.536416e+04 0.000000e+00 0.000000e+00 0.000000e+00 0.000000e+00
-6.789795e+04 3.343900e+03 0.000000e+00 3.343900e+03 -6.341972e+04 0.000000e+00 0.000000e+00 0.000000e+00 0.000000e+00
-6.601136e+04 1.730105e+03 0.000000e+00 1.730105e+03 -6.165127e+04 0.000000e+00 0.000000e+00 0.000000e+00 0.000000e+00
-6.145730e+04 2.242896e+02 0.000000e+00 2.242896e+02 -6.049043e+04 0.000000e+00 0.000000e+00 0.000000e+00 0.000000e+00
-5.685735e+04 -3.574615e+02 0.000000e+00 -3.574615e+02 -5.958741e+04 0.000000e+00 0.000000e+00 0.000000e+00 0.000000e+00
-6.373548e+04 5.188240e+03 0.000000e+00 5.188240e+03 -6.818706e+04 0.000000e+00 0.000000e+00 0.000000e+00 0.000000e+00
-6.472362e+04 5.008799e+03 0.000000e+00 5.008799e+03 -6.801941e+04 0.000000e+00 0.000000e+00 0.000000e+00 0.000000e+00
-6.575510e+04 4.534437e+03 0.000000e+00 4.534437e+03 -6.734469e+04 0.000000e+00 0.000000e+00 0.000000e+00 0.000000e+00
-6.653045e+04 4.174166e+03 0.000000e+00 4.174166e+03 -6.653102e+04 0.000000e+00 0.000000e+00 0.000000e+00 0.000000e+00
-6.711526e+04 3.803141e+03 0.000000e+00 3.803141e+03 -6.553589e+04 0.000000e+00 0.000000e+00 0.000000e+00 0.000000e+00
-6.745153e+04 3.294493e+03 0.000000e+00 3.294493e+03 -6.434892e+04 0.000000e+00 0.000000e+00 0.000000e+00 0.000000e+00
-6.735782e+04 2.545440e+03 0.000000e+00 2.545440e+03 -6.303478e+04 0.000000e+00 0.000000e+00 0.000000e+00 0.000000e+00
-6.649427e+04 1.518034e+03 0.000000e+00 1.518034e+03 -6.175284e+04 0.000000e+00 0.000000e+00 0.000000e+00 0.000000e+00
-6.436964e+04 3.790353e+02 0.000000e+00 3.790353e+02 -6.073805e+04 0.000000e+00 0.000000e+00 0.000000e+00 0.000000e+00
-6.066542e+04 -3.241215e+02 0.000000e+00 -3.241215e+02 -6.017543e+04 0.000000e+00 0.000000e+00 0.000000e+00 0.000000e+00
-5.747537e+04 -4.374751e+02 0.000000e+00 -4.374751e+02 -5.970062e+04 0.000000e+00 0.000000e+00 0.000000e+00 0.000000e+00
-6.293902e+04 4.478718e+03 0.000000e+00 4.478718e+03 -6.589175e+04 0.000000e+00 0.000000e+00 0.000000e+00 0.000000e+00
-6.407965e+04 4.284489e+03 0.000000e+00 4.284489e+03 -6.571809e+04 0.000000e+00 0.000000e+00 0.000000e+00 0.000000e+00
-6.525853e+04 3.736380e+03 0.000000e+00 3.736380e+03 -6.502694e+04 0.000000e+00 0.000000e+00 0.000000e+00 0.000000e+00
-6.606605e+04 3.227128e+03 0.000000e+00 3.227128e+03 -6.427864e+04 0.000000e+00 0.000000e+00 0.000000e+00 0.000000e+00
-6.657144e+04 2.686079e+03 0.000000e+00 2.686079e+03 -6.344143e+04 0.000000e+00 0.000000e+00 0.000000e+00 0.000000e+00
-6.672953e+04 2.048064e+03 0.000000e+00 2.048064e+03 -6.253746e+04 0.000000e+00 0.000000e+00 0.000000e+00 0.000000e+00
-6.639804e+04 1.282246e+03 0.000000e+00 1.282246e+03 -6.163517e+04 0.000000e+00 0.000000e+00 0.000000e+00 0.000000e+00
-6.536540e+04 4.348559e+02 0.000000e+00 4.348559e+02 -6.084762e+04 0.000000e+00 0.000000e+00 0.000000e+00 0.000000e+00
-6.342270e+04 -2.953765e+02 0.000000e+00 -2.953765e+02 -6.030267e+04 0.000000e+00 0.000000e+00 0.000000e+00 0.000000e+00
-6.058515e+04 -5.280917e+02 0.000000e+00 -5.280917e+02 -6.004731e+04 0.000000e+00 0.000000e+00 0.000000e+00 0.000000e+00
-5.833875e+04 -4.481121e+02 0.000000e+00 -4.481121e+02 -5.977280e+04 0.000000e+00 0.000000e+00 0.000000e+00 0.000000e+00
-6.228119e+04 3.743705e+03 0.000000e+00 3.743705e+03 -6.416364e+04 0.000000e+00 0.000000e+00 0.000000e+00 0.000000e+00
-6.345360e+04 3.539334e+03 0.000000e+00 3.539334e+03 -6.399225e+04 0.000000e+00 0.000000e+00 0.000000e+00 0.000000e+00
-6.466582e+04 2.982008e+03 0.000000e+00 2.982008e+03 -6.333352e+04 0.000000e+00 0.000000e+00 0.000000e+00 0.000000e+00
-6.545856e+04 2.411402e+03 0.000000e+00 2.411402e+03 -6.267818e+04 0.000000e+00 0.000000e+00 0.000000e+00 0.000000e+00
-6.590708e+04 1.815653e+03 0.000000e+00 1.815653e+03 -6.201593e+04 0.000000e+00 0.000000e+00 0.000000e+00 0.000000e+00
-6.596395e+04 1.169149e+03 0.000000e+00 1.169149e+03 -6.137437e+04 0.000000e+00 0.000000e+00 0.000000e+00 0.000000e+00
-6.554387e+04 4.824866e+02 0.000000e+00 4.824866e+02 -6.079134e+04 0.000000e+00 0.000000e+00 0.000000e+00 0.000000e+00
-6.455609e+04 -1.608459e+02 0.000000e+00 -1.608459e+02 -6.034234e+04 0.000000e+00 0.000000e+00 0.000000e+00 0.000000e+00
-6.294390e+04 -5.984719e+02 0.000000e+00 -5.984719e+02 -6.007982e+04 0.000000e+00 0.000000e+00 0.000000e+00 0.000000e+00
-6.082781e+04 -5.844476e+02 0.000000e+00 -5.844476e+02 -5.999193e+04 0.000000e+00 0.000000e+00 0.000000e+00 0.000000e+00
-5.924201e+04 -4.221175e+02 0.000000e+00 -4.221175e+02 -5.983573e+04 0.000000e+00 0.000000e+00 0.000000e+00 0.000000e+00
-6.176096e+04 3.017051e+03 0.000000e+00 3.017051e+03 -6.288143e+04 0.000000e+00 0.000000e+00 0.000000e+00 0.000000e+00
-6.287390e+04 2.819216e+03 0.000000e+00 2.819216e+03 -6.271983e+04 0.000000e+00 0.000000e+00 0.000000e+00 0.000000e+00
-6.404529e+04 2.294766e+03 0.000000e+00 2.294766e+03 -6.211634e+04 0.000000e+00 0.000000e+00 0.000000e+00 0.000000e+00
-6.482525e+04 1.745588e+03 0.000000e+00 1.745588e+03 -6.157341e+04 0.000000e+00 0.000000e+00 0.000000e+00 0.000000e+00
-6.523770e+04 1.175409e+03 0.000000e+00 1.175409e+03 -6.106941e+04 0.000000e+00 0.000000e+00 0.000000e+00 0.000000e+00
-6.525539e+04 5.852137e+02 0.000000e+00 5.852137e+02 -6.063023e+04 0.000000e+00 0.000000e+00 0.000000e+00 0.000000e+00
-6.485195e+04 1.508260e+01 0.000000e+00 1.508260e+01 -6.027983e+04 0.000000e+00 0.000000e+00 0.000000e+00 0.000000e+00
-6.400702e+04 -4.535176e+02 0.000000e+00 -4.535176e+02 -6.005122e+04 0.000000e+00 0.000000e+00 0.000000e+00 0.000000e+00
-6.273982e+04 -6.998799e+02 0.000000e+00 -6.998799e+02 -5.995321e+04 0.000000e+00 0.000000e+00 0.000000e+00 0.000000e+00
-6.119586e+04 -5.657863e+02 0.000000e+00 -5.657863e+02 -5.995602e+04 0.000000e+00 0.000000e+00 0.000000e+00 0.000000e+00
-6.009618e+04 -3.775638e+02 0.000000e+00 -3.775638e+02 -5.987367e+04 0.000000e+00 0.000000e+00 0.000000e+00 0.000000e+00
-6.135005e+04 2.310010e+03 0.000000e+00 2.310010e+03 -6.194848e+04 0.000000e+00 0.000000e+00 0.000000e+00 0.000000e+00
-6.236248e+04 2.143886e+03 0.000000e+00 2.143886e+03 -6.179441e+04 0.000000e+00 0.000000e+00 0.000000e+00 0.000000e+00
-6.347905e+04 1.703226e+03 0.000000e+00 1.703226e+03 -6.126450e+04 0.000000e+00 0.000000e+00 0.000000e+00 0.000000e+00
-6.423883e+04 1.219602e+03 0.000000e+00 1.219602e+03 -6.082248e+04 0.000000e+00 0.000000e+00 0.000000e+00 0.000000e+00
-6.462753e+04 7.189677e+02 0.000000e+00 7.189677e+02 -6.044598e+04 0.000000e+00 0.000000e+00 0.000000e+00 0.000000e+00
-6.465179e+04 2.208740e+02 0.000000e+00 2.208740e+02 -6.015682e+04 0.000000e+00 0.000000e+00 0.000000e+00 0.000000e+00
-6.431909e+04 -2.274696e+02 0.000000e+00 -2.274696e+02 -5.996364e+04 0.000000e+00 0.000000e+00 0.000000e+00 0.000000e+00
-6.364554e+04 -5.614893e+02 0.000000e+00 -5.614893e+02 -5.987844e+04 0.000000e+00 0.000000e+00 0.000000e+00 0.000000e+00
-6.269199e+04 -6.870095e+02 0.000000e+00 -6.870095e+02 -5.988076e+04 0.000000e+00 0.000000e+00 0.000000e+00 0.000000e+00
-6.159298e+04 -5.064195e+02 0.000000e+00 -5.064195e+02 -5.993587e+04 0.000000e+00 0.000000e+00 0.000000e+00 0.000000e+00
-6.085967e+04 -3.195472e+02 0.000000e+00 -3.195472e+02 -5.990385e+04 0.000000e+00 0.000000e+00 0.000000e+00 0.000000e+00
-6.102226e+04 1.686268e+03 0.000000e+00 1.686268e+03 -6.125299e+04 0.000000e+00 0.000000e+00 0.000000e+00 0.000000e+00
-6.195111e+04 1.557195e+03 0.000000e+00 1.557195e+03 -6.112139e+04 0.000000e+00 0.000000e+00 0.000000e+00 0.000000e+00
-6.300641e+04 1.206345e+03 0.000000e+00 1.206345e+03 -6.066798e+04 0.000000e+00 0.000000e+00 0.000000e+00 0.000000e+00
-6.373498e+04 8.058882e+02 0.000000e+00 8.058882e+02 -6.031210e+04 0.000000e+00 0.000000e+00 0.000000e+00 0.000000e+00
-6.411719e+04 3.991323e+02 0.000000e+00 3.991323e+02 -6.003282e+04 0.000000e+00 0.000000e+00 0.000000e+00 0.000000e+00
-6.417189e+04 1.097233e+01 0.000000e+00 1.097233e+01 -5.984942e+04 0.000000e+00 0.000000e+00 0.000000e+00 0.000000e+00
-6.392401e+04 -3.238483e+02 0.000000e+00 -3.238483e+02 -5.976514e+04 0.000000e+00 0.000000e+00 0.000000e+00 0.000000e+00
-6.341612e+04 -5.513821e+02 0.000000e+00 -5.513821e+02 -5.977452e+04 0.000000e+00 0.000000e+00 0.000000e+00 0.000000e+00
-6.272343e+04 -6.060310e+02 0.000000e+00 -6.060310e+02 -5.984004e+04 0.000000e+00 0.000000e+00 0.000000e+00 0.000000e+00
-6.196930e+04 -4.238519e+02 0.000000e+00 -4.238519e+02 -5.992936e+04 0.000000e+00 0.000000e+00 0.000000e+00 0.000000e+00
-6.150093e+04 -2.588808e+02 0.000000e+00 -2.588808e+02 -5.993098e+04 0.000000e+00 0.000000e+00 0.000000e+00 0.000000e+00
-6.078163e+04 1.146107e+03 0.000000e+00 1.146107e+03 -6.075625e+04 0.000000e+00 0.000000e+00 0.000000e+00 0.000000e+00
-6.163257e+04 1.043555e+03 0.000000e+00 1.043555e+03 -6.063339e+04 0.000000e+00 0.000000e+00 0.000000e+00 0.000000e+00
-6.263217e+04 7.756853e+02 0.000000e+00 7.756853e+02 -6.024040e+04 0.000000e+00 0.000000e+00 0.000000e+00 0.000000e+00
-6.333941e+04 4.825153e+02 0.000000e+00 4.825153e+02 -5.994296e+04 0.000000e+00 0.000000e+00 0.000000e+00 0.000000e+00
-6.372594e+04 1.867140e+02 0.000000e+00 1.867140e+02 -5.974585e+04 0.000000e+00 0.000000e+00 0.000000e+00 0.000000e+00
-6.381802e+04 -9.003451e+01 0.000000e+00 -9.003451e+01 -5.964849e+04 0.000000e+00 0.000000e+00 0.000000e+00 0.000000e+00
-6.364693e+04 -3.213298e+02 0.000000e+00 -3.213298e+02 -5.964074e+04 0.000000e+00 0.000000e+00 0.000000e+00 0.000000e+00
-6.327802e+04 -4.661863e+02 0.000000e+00 -4.661863e+02 -5.970998e+04 0.000000e+00 0.000000e+00 0.000000e+00 0.000000e+00
-6.278486e+04 -4.832184e+02 0.000000e+00 -4.832184e+02 -5.981618e+04 0.000000e+00 0.000000e+00 0.000000e+00 0.000000e+00
-6.228544e+04 -3.278928e+02 0.000000e+00 -3.278928e+02 -5.992261e+04 0.000000e+00 0.000000e+00 0.000000e+00 0.000000e+00
-6.200431e+04 -1.962491e+02 0.000000e+00 -1.962491e+02 -5.994817e+04 0.000000e+00 0.000000e+00 0.000000e+00 0.000000e+00
-6.060043e+04 6.316013e+02 0.000000e+00 6.316013e+02 -6.036222e+04 0.000000e+00 0.000000e+00 0.000000e+00 0.000000e+00
-6.140790e+04 5.715694e+02 0.000000e+00 5.715694e+02 -6.024892e+04 0.000000e+00 0.000000e+00 0.000000e+00 0.000000e+00
-6.238300e+04 4.106419e+02 0.000000e+00 4.106419e+02 -5.990356e+04 0.000000e+00 0.000000e+00 0.000000e+00 0.000000e+00
-6.307466e+04 2.412999e+02 0.000000e+00 2.412999e+02 -5.966759e+04 0.000000e+00 0.000000e+00 0.000000e+00 0.000000e+00
-6.346082e+04 6.328640e+01 0.000000e+00 6.328640e+01 -5.954021e+04 0.000000e+00 0.000000e+00 0.000000e+00 0.000000e+00
-6.357886e+04 -1.093501e+02 0.000000e+00 -1.093501e+02 -5.951157e+04 0.000000e+00 0.000000e+00 0.000000e+00 0.000000e+00
-6.346892e+04 -2.512847e+02 0.000000e+00 -2.512847e+02 -5.956112e+04 0.000000e+00 0.000000e+00 0.000000e+00 0.000000e+00
-6.320030e+04 -3.350107e+02 0.000000e+00 -3.350107e+02 -5.966657e+04 0.000000e+00 0.000000e+00 0.000000e+00 0.000000e+00
-6.284645e+04 -3.346900e+02 0.000000e+00 -3.346900e+02 -5.980045e+04 0.000000e+00 0.000000e+00 0.000000e+00 0.000000e+00
-6.252234e+04 -2.242257e+02 0.000000e+00 -2.242257e+02 -5.991785e+04 0.000000e+00 0.000000e+00 0.000000e+00 0.000000e+00
-6.237475e+04 -1.337723e+02 0.000000e+00 -1.337723e+02 -5.996219e+04 0.000000e+00 0.000000e+00 0.000000e+00 0.000000e+00
-6.044666e+04 1.533641e+02 0.000000e+00 1.533641e+02 -5.990622e+04 0.000000e+00 0.000000e+00 0.000000e+00 0.000000e+00
-6.130418e+04 1.752831e+02 0.000000e+00 1.752831e+02 -5.985304e+04 0.000000e+00 0.000000e+00 0.000000e+00 0.000000e+00
-6.227027e+04 1.395746e+02 0.000000e+00 1.395746e+02 -5.960891e+04 0.000000e+00 0.000000e+00 0.000000e+00 0.000000e+00
-6.293631e+04 8.579272e+01 0.000000e+00 8.579272e+01 -5.946854e+04 0.000000e+00 0.000000e+00 0.000000e+00 0.000000e+00
-6.331330e+04 8.963119e+00 0.000000e+00 8.963119e+00 -5.941088e+04 0.000000e+00 0.000000e+00 0.000000e+00 0.000000e+00
-6.344295e+04 -6.972279e+01 0.000000e+00 -6.972279e+01 -5.942565e+04 0.000000e+00 0.000000e+00 0.000000e+00 0.000000e+00
-6.337097e+04 -1.367276e+02 0.000000e+00 -1.367276e+02 -5.951086e+04 0.000000e+00 0.000000e+00 0.000000e+00 0.000000e+00
-6.316178e+04 -1.747605e+02 0.000000e+00 -1.747605e+02 -5.964098e+04 0.000000e+00 0.000000e+00 0.000000e+00 0.000000e+00
-6.289049e+04 -1.710414e+02 0.000000e+00 -1.710414e+02 -5.979029e+04 0.000000e+00 0.000000e+00 0.000000e+00 0.000000e+00
-6.266687e+04 -1.142015e+02 0.000000e+00 -1.142015e+02 -5.991413e+04 0.000000e+00 0.000000e+00 0.000000e+00 0.000000e+00
-6.259312e+04 -6.871854e+01 0.000000e+00 -6.871854e+01 -5.996858e+04 0.000000e+00 0.000000e+00 0.000000e+00 0.000000e+00
-6.029239e+04 -1.842812e+02 0.000000e+00 -1.842812e+02 -5.939102e+04 0.000000e+00 0.000000e+00 0.000000e+00 0.000000e+00
-6.124290e+04 -7.424068e+01 0.000000e+00 -7.424068e+01 -5.950011e+04 0.000000e+00 0.000000e+00 0.000000e+00 0.000000e+00
-6.224147e+04 -1.028471e+01 0.000000e+00 -1.028471e+01 -5.945450e+04 0.000000e+00 0.000000e+00 0.000000e+00 0.000000e+00
-6.289598e+04 -2.359381e-01 0.000000e+00 -2.359381e-01 -5.938803e+04 0.000000e+00 0.000000e+00 0.000000e+00 0.000000e+00
-6.326659e+04 -1.748935e+01 0.000000e+00 -1.748935e+01 -5.936455e+04 0.000000e+00 0.000000e+00 0.000000e+00 0.000000e+00
-6.339954e+04 -3.867035e+01 0.000000e+00 -3.867035e+01 -5.939665e+04 0.000000e+00 0.000000e+00 0.000000e+00 0.000000e+00
-6.333974e+04 -5.981228e+01 0.000000e+00 -5.981228e+01 -5.949175e+04 0.000000e+00 0.000000e+00 0.000000e+00 0.000000e+00
-6.314988e+04 -7.215318e+01 0.000000e+00 -7.215318e+01 -5.963241e+04 0.000000e+00 0.000000e+00 0.000000e+00 0.000000e+00
-6.290611e+04 -6.961559e+01 0.000000e+00 -6.961559e+01 -5.978616e+04 0.000000e+00 0.000000e+00 0.000000e+00 0.000000e+00
-6.271414e+04 -4.846434e+01 0.000000e+00 -4.846434e+01 -5.991191e+04 0.000000e+00 0.000000e+00 0.000000e+00 0.000000e+00
-6.265927e+04 -3.161828e+01 0.000000e+00 -3.161828e+01 -5.996755e+04 0.000000e+00 0.000000e+00 0.000000e+00 0.000000e+00
</DataArray>
<DataArray Name="vol_eps" type="Float64" NumberOfComponents="1" format="ascii">
-2.449456e-03
-2.286595e-03
-2.242992e-03
-2.299931e-03
-2.453669e-03
-2.699969e-03
-3.048973e-03
-3.493024e-03
-3.986293e-03
-4.473207e-03
-4.591365e-03
-2.364238e-03
-2.221387e-03
-2.187389e-03
-2.239231e-03
-2.379967e-03
-2.609483e-03
-2.943693e-03
-3.393734e-03
-3.957631e-03
-4.567296e-03
-5.128884e-03
-2.179854e-03
-2.066143e-03
-2.037214e-03
-2.074036e-03
-2.180821e-03
-2.357468e-03
-2.615660e-03
-2.996491e-03
-3.615052e-03
-4.758205e-03
-6.382809e-03
-1.920889e-03
-1.841755e-03
-1.819040e-03
-1.837861e-03
-1.888829e-03
-1.951854e-03
-1.998334e-03
-1.984995e-03
-1.831470e-03
-1.314740e-03
-1.059716e-03
-1.617551e-03
-1.579243e-03
-1.564689e-03
-1.566027e-03
-1.570661e-03
-1.562029e-03
-1.519332e-03
-1.416242e-03
-1.204150e-03
-8.226090e-04
-7.135632e-06
-1.303489e-03
-1.306116e-03
-1.304875e-03
-1.298556e-03
-1.278810e-03
-1.234099e-03
-1.150870e-03
-1.008893e-03
-7.756198e-04
-3.249468e-04
2.391896e-04
-1.009850e-03
-1.044929e-03
-1.058372e-03
-1.052892e-03
-1.025265e-03
-9.687651e-04
-8.730570e-04
-7.232531e-04
-4.893490e-04
-1.250002e-04
2.415228e-04
-7.609727e-04
-8.162104e-04
-8.416132e-04
-8.411349e-04
-8.148105e-04
-7.583841e-04
-6.658531e-04
-5.273779e-04
-3.275878e-04
-5.508993e-05
1.892970e-04
-5.620079e-04
-6.265390e-04
-6.613165e-04
-6.671435e-04
-6.449364e-04
-5.945982e-04
-5.141259e-04
-3.977533e-04
-2.399281e-04
-4.257029e-05
1.245098e-04
-4.092975e-04
-4.763197e-04
-5.151570e-04
-5.246174e-04
-5.096486e-04
-4.702635e-04
-4.052489e-04
-3.136308e-04
-1.951255e-04
-5.497771e-05
5.900616e-05
-2.958182e-04
-3.587753e-04
-3.973595e-04
-4.116826e-04
-4.045213e-04
-3.764961e-04
-3.278696e-04
-2.596370e-04
-1.739971e-04
-7.611827e-05
3.425011e-08
-2.108170e-04
-2.676143e-04
-3.063849e-04
-3.250544e-04
-3.244121e-04
-3.068830e-04
-2.731829e-04
-2.254298e-04
-1.662393e-04
-1.002418e-04
-5.080264e-05
-1.466761e-04
-1.991763e-04
-2.382321e-04
-2.597017e-04
-2.646487e-04
-2.558274e-04
-2.348865e-04
-2.039023e-04
-1.655688e-04
-1.239287e-04
-9.388130e-05
-1.003315e-04
-1.484501e-04
-1.865914e-04
-2.105023e-04
-2.210635e-04
-2.199102e-04
-2.089073e-04
-1.907761e-04
-1.677175e-04
-1.434491e-04
-1.275871e-04
-6.323774e-05
-1.090672e-04
-1.486875e-04
-1.755188e-04
-1.908421e-04
-1.958512e-04
-1.922225e-04
-1.831088e-04
-1.703641e-04
-1.578811e-04
-1.516809e-04
-2.442731e-05
-7.680929e-05
-1.218292e-04
-1.534103e-04
-1.727407e-04
-1.817741e-04
-1.828350e-04
-1.788540e-04
-1.722034e-04
-1.663846e-04
-1.651893e-04
1.900797e-05
-5.007336e-05
-1.099031e-04
-1.456243e-04
-1.666893e-04
-1.771498e-04
-1.797949e-04
-1.773626e-04
-1.728333e-04
-1.690909e-04
-1.691966e-04
</DataArray>
</PointData>
</Piece>
</UnstructuredGrid>
</VTKFile>
