<?xml version="1.0"?>
<VTKFile type="UnstructuredGrid" version="0.1">
<UnstructuredGrid>
<FieldData>
<DataArray Name="TIME" type="Float64" format="ascii" NumberOfTuples="1">
0.000000e+00
</DataArray>
</FieldData>
<FieldData>
<DataArray Name="CYCLE" type="Int32" format="ascii" NumberOfTuples="1">
0
</DataArray>
</FieldData>
<Piece NumberOfPoints="187" NumberOfCells="160">
<Points>
<DataArray NumberOfComponents="3" type="Float64" format="ascii">
0.000000e+00 0.000000e+00 0.000000e+00
0.000000e+00 1.966325e-01 0.000000e+00
0.000000e+00 3.910416e-01 0.000000e+00
0.000000e+00 5.824358e-01 0.000000e+00
0.000000e+00 7.717550e-01 0.000000e+00
0.000000e+00 9.602972e-01 0.000000e+00
0.000000e+00 1.148954e+00 0.000000e+00
0.000000e+00 1.338563e+00 0.000000e+00
0.000000e+00 1.530231e+00 0.000000e+00
0.000000e+00 1.725337e+00 0.000000e+00
0.000000e+00 1.921250e+00 0.000000e+00
2.250000e-01 0.000000e+00 0.000000e+00
2.271708e-01 1.964872e-01 0.000000e+00
2.309277e-01 3.911713e-01 0.000000e+00
2.341946e-01 5.837669e-01 0.000000e+00
2.360840e-01 7.747977e-01 0.000000e+00
2.365233e-01 9.645408e-01 0.000000e+00
2.357347e-01 1.153828e+00 0.000000e+00
2.337717e-01 1.343446e+00 0.000000e+00
2.299651e-01 1.533749e+00 0.000000e+00
2.255734e-01 1.725752e+00 0.000000e+00
2.250000e-01 1.921250e+00 0.000000e+00
4.500000e-01 0.000000e+00 0.000000e+00
4.547461e-01 1.968956e-01 0.000000e+00
4.602383e-01 3.928297e-01 0.000000e+00
4.650764e-01 5.882568e-01 0.000000e+00
4.684573e-01 7.829699e-01 0.000000e+00
4.703946e-01 9.765425e-01 0.000000e+00
4.704716e-01 1.168426e+00 0.000000e+00
4.689629e-01 1.358698e+00 0.000000e+00
4.651641e-01 1.547192e+00 0.000000e+00
4.595563e-01 1.734220e+00 0.000000e+00
4.500000e-01 1.921250e+00 0.000000e+00
6.750000e-01 0.000000e+00 0.000000e+00
6.816682e-01 1.983213e-01 0.000000e+00
6.875930e-01 3.964263e-01 0.000000e+00
6.922992e-01 5.948009e-01 0.000000e+00
6.959083e-01 7.936100e-01 0.000000e+00
6.983237e-01 9.928719e-01 0.000000e+00
6.993399e-01 1.192723e+00 0.000000e+00
6.987858e-01 1.393137e+00 0.000000e+00
6.965736e-01 1.593921e+00 0.000000e+00
6.922292e-01 1.794453e+00 0.000000e+00
6.847044e-01 1.993923e+00 0.000000e+00
9.000000e-01 0.000000e+00 0.000000e+00
9.072897e-01 1.989537e-01 0.000000e+00
9.127760e-01 3.980012e-01 0.000000e+00
9.167981e-01 5.974166e-01 0.000000e+00
9.197962e-01 7.972531e-01 0.000000e+00
9.216676e-01 9.975455e-01 0.000000e+00
9.222702e-01 1.198246e+00 0.000000e+00
9.214720e-01 1.399227e+00 0.000000e+00
9.192998e-01 1.600277e+00 0.000000e+00
9.156086e-01 1.801145e+00 0.000000e+00
9.107722e-01 2.001276e+00 0.000000e+00
1.125000e+00 0.000000e+00 0.000000e+00
1.132332e+00 1.995004e-01 0.000000e+00
1.137067e+00 3.991891e-01 0.000000e+00
1.140509e+00 5.992824e-01 0.000000e+00
1.143017e+00 7.997612e-01 0.000000e+00
1.144486e+00 1.000587e+00 0.000000e+00
1.144861e+00 1.201699e+00 0.000000e+00
1.144085e+00 1.402933e+00 0.000000e+00
1.142183e+00 1.604103e+00 0.000000e+00
1.139372e+00 1.804882e+00 0.000000e+00
1.136478e+00 2.004966e+00 0.000000e+00
1.350000e+00 0.000000e+00 0.000000e+00
1.356844e+00 1.998726e-01 0.000000e+00
1.360885e+00 4.000242e-01 0.000000e+00
1.363843e+00 6.005219e-01 0.000000e+00
1.365936e+00 8.013459e-01 0.000000e+00
1.367133e+00 1.002472e+00 0.000000e+00
1.367416e+00 1.203789e+00 0.000000e+00
1.366781e+00 1.405128e+00 0.000000e+00
1.365313e+00 1.606294e+00 0.000000e+00
1.363418e+00 1.806992e+00 0.000000e+00
1.361725e+00 2.007160e+00 0.000000e+00
1.575000e+00 0.000000e+00 0.000000e+00
1.581056e+00 2.001332e-01 0.000000e+00
1.584474e+00 4.005388e-01 0.000000e+00
1.586999e+00 6.012644e-01 0.000000e+00
1.588767e+00 8.022873e-01 0.000000e+00
1.589779e+00 1.003535e+00 0.000000e+00
1.590055e+00 1.204897e+00 0.000000e+00
1.589619e+00 1.406238e+00 0.000000e+00
1.588633e+00 1.607359e+00 0.000000e+00
1.587501e+00 1.808037e+00 0.000000e+00
1.586646e+00 2.008277e+00 0.000000e+00
1.800000e+00 0.000000e+00 0.000000e+00
1.805090e+00 2.002527e-01 0.000000e+00
1.807973e+00 4.007944e-01 0.000000e+00
1.810120e+00 6.016323e-01 0.000000e+00
1.811640e+00 8.027170e-01 0.000000e+00
1.812529e+00 1.003967e+00 0.000000e+00
1.812833e+00 1.205297e+00 0.000000e+00
1.812614e+00 1.406582e+00 0.000000e+00
1.812066e+00 1.607641e+00 0.000000e+00
1.811530e+00 1.808323e+00 0.000000e+00
1.811265e+00 2.008664e+00 0.000000e+00
2.025000e+00 0.000000e+00 0.000000e+00
2.029077e+00 2.002733e-01 0.000000e+00
2.031484e+00 4.008443e-01 0.000000e+00
2.033316e+00 6.016922e-01 0.000000e+00
2.034621e+00 8.027555e-01 0.000000e+00
2.035426e+00 1.003955e+00 0.000000e+00
2.035772e+00 1.205210e+00 0.000000e+00
2.035755e+00 1.406403e+00 0.000000e+00
2.035567e+00 1.607397e+00 0.000000e+00
2.035458e+00 1.808098e+00 0.000000e+00
2.035580e+00 2.008558e+00 0.000000e+00
2.250000e+00 0.000000e+00 0.000000e+00
2.253125e+00 2.002248e-01 0.000000e+00
2.255104e+00 4.007568e-01 0.000000e+00
2.256637e+00 6.015487e-01 0.000000e+00
2.257752e+00 8.025358e-01 0.000000e+00
2.258479e+00 1.003649e+00 0.000000e+00
2.258869e+00 1.204802e+00 0.000000e+00
2.259024e+00 1.405900e+00 0.000000e+00
2.259103e+00 1.606834e+00 0.000000e+00
2.259270e+00 1.807567e+00 0.000000e+00
2.259614e+00 2.008147e+00 0.000000e+00
2.475000e+00 0.000000e+00 0.000000e+00
2.477288e+00 2.001591e-01 0.000000e+00
2.478879e+00 4.006153e-01 0.000000e+00
2.480122e+00 6.013052e-01 0.000000e+00
2.481052e+00 8.021791e-01 0.000000e+00
2.481702e+00 1.003171e+00 0.000000e+00
2.482118e+00 1.204206e+00 0.000000e+00
2.482394e+00 1.405208e+00 0.000000e+00
2.482642e+00 1.606108e+00 0.000000e+00
2.482963e+00 1.806889e+00 0.000000e+00
2.483410e+00 2.007587e+00 0.000000e+00
2.700000e+00 0.000000e+00 0.000000e+00
2.701592e+00 2.000952e-01 0.000000e+00
2.702822e+00 4.004577e-01 0.000000e+00
2.703799e+00 6.010312e-01 0.000000e+00
2.704549e+00 8.017696e-01 0.000000e+00
2.705104e+00 1.002625e+00 0.000000e+00
2.705513e+00 1.203543e+00 0.000000e+00
2.705839e+00 1.404464e+00 0.000000e+00
2.706161e+00 1.605346e+00 0.000000e+00
2.706539e+00 1.806180e+00 0.000000e+00
2.706995e+00 2.006998e+00 0.000000e+00
2.925000e+00 0.000000e+00 0.000000e+00
2.926038e+00 2.000391e-01 0.000000e+00
2.926929e+00 4.002971e-01 0.000000e+00
2.927658e+00 6.007551e-01 0.000000e+00
2.928235e+00 8.013699e-01 0.000000e+00
2.928676e+00 1.002106e+00 0.000000e+00
2.929026e+00 1.202926e+00 0.000000e+00
2.929335e+00 1.403784e+00 0.000000e+00
2.929650e+00 1.604653e+00 0.000000e+00
2.930005e+00 1.805535e+00 0.000000e+00
2.930403e+00 2.006458e+00 0.000000e+00
3.150000e+00 0.000000e+00 0.000000e+00
3.150620e+00 1.999837e-01 0.000000e+00
3.151186e+00 4.001570e-01 0.000000e+00
3.151675e+00 6.005180e-01 0.000000e+00
3.152071e+00 8.010445e-01 0.000000e+00
3.152378e+00 1.001696e+00 0.000000e+00
3.152628e+00 1.202439e+00 0.000000e+00
3.152866e+00 1.403247e+00 0.000000e+00
3.153113e+00 1.604104e+00 0.000000e+00
3.153382e+00 1.805019e+00 0.000000e+00
3.153672e+00 2.006024e+00 0.000000e+00
3.375000e+00 0.000000e+00 0.000000e+00
3.375290e+00 1.999485e-01 0.000000e+00
3.375563e+00 4.000691e-01 0.000000e+00
3.375807e+00 6.003695e-01 0.000000e+00
3.376008e+00 8.008377e-01 0.000000e+00
3.376166e+00 1.001436e+00 0.000000e+00
3.376296e+00 1.202128e+00 0.000000e+00
3.376424e+00 1.402897e+00 0.000000e+00
3.376560e+00 1.603745e+00 0.000000e+00
3.376704e+00 1.804682e+00 0.000000e+00
3.376855e+00 2.005732e+00 0.000000e+00
3.600000e+00 0.000000e+00 0.000000e+00
3.600000e+00 1.999476e-01 0.000000e+00
3.600000e+00 4.000531e-01 0.000000e+00
3.600000e+00 6.003313e-01 0.000000e+00
3.600000e+00 8.007726e-01 0.000000e+00
3.600000e+00 1.001344e+00 0.000000e+00
3.600000e+00 1.202012e+00 0.000000e+00
3.600000e+00 1.402763e+00 0.000000e+00
3.600000e+00 1.603603e+00 0.000000e+00
3.600000e+00 1.804545e+00 0.000000e+00
3.600000e+00 2.005605e+00 0.000000e+00
</DataArray>
</Points>
<Cells>
<DataArray Name="connectivity" type="Int32" format="ascii">
0 11 12 1
1 12 13 2
2 13 14 3
3 14 15 4
4 15 16 5
5 16 17 6
6 17 18 7
7 18 19 8
8 19 20 9
9 20 21 10
11 22 23 12
12 23 24 13
13 24 25 14
14 25 26 15
15 26 27 16
16 27 28 17
17 28 29 18
18 29 30 19
19 30 31 20
20 31 32 21
22 33 34 23
23 34 35 24
24 35 36 25
25 36 37 26
26 37 38 27
27 38 39 28
28 39 40 29
29 40 41 30
30 41 42 31
31 42 43 32
33 44 45 34
34 45 46 35
35 46 47 36
36 47 48 37
37 48 49 38
38 49 50 39
39 50 51 40
40 51 52 41
41 52 53 42
42 53 54 43
44 55 56 45
45 56 57 46
46 57 58 47
47 58 59 48
48 59 60 49
49 60 61 50
50 61 62 51
51 62 63 52
52 63 64 53
53 64 65 54
55 66 67 56
56 67 68 57
57 68 69 58
58 69 70 59
59 70 71 60
60 71 72 61
61 72 73 62
62 73 74 63
63 74 75 64
64 75 76 65
66 77 78 67
67 78 79 68
68 79 80 69
69 80 81 70
70 81 82 71
71 82 83 72
72 83 84 73
73 84 85 74
74 85 86 75
75 86 87 76
77 88 89 78
78 89 90 79
79 90 91 80
80 91 92 81
81 92 93 82
82 93 94 83
83 94 95 84
84 95 96 85
85 96 97 86
86 97 98 87
88 99 100 89
89 100 101 90
90 101 102 91
91 102 103 92
92 103 104 93
93 104 105 94
94 105 106 95
95 106 107 96
96 107 108 97
97 108 109 98
99 110 111 100
100 111 112 101
101 112 113 102
102 113 114 103
103 114 115 104
104 115 116 105
105 116 117 106
106 117 118 107
107 118 119 108
108 119 120 109
110 121 122 111
111 122 123 112
112 123 124 113
113 124 125 114
114 125 126 115
115 126 127 116
116 127 128 117
117 128 129 118
118 129 130 119
119 130 131 120
121 132 133 122
122 133 134 123
123 134 135 124
124 135 136 125
125 136 137 126
126 137 138 127
127 138 139 128
128 139 140 129
129 140 141 130
130 141 142 131
132 143 144 133
133 144 145 134
134 145 146 135
135 146 147 136
136 147 148 137
137 148 149 138
138 149 150 139
139 150 151 140
140 151 152 141
141 152 153 142
143 154 155 144
144 155 156 145
145 156 157 146
146 157 158 147
147 158 159 148
148 159 160 149
149 160 161 150
150 161 162 151
151 162 163 152
152 163 164 153
154 165 166 155
155 166 167 156
156 167 168 157
157 168 169 158
158 169 170 159
159 170 171 160
160 171 172 161
161 172 173 162
162 173 174 163
163 174 175 164
165 176 177 166
166 177 178 167
167 178 179 168
168 179 180 169
169 180 181 170
170 181 182 171
171 182 183 172
172 183 184 173
173 184 185 174
174 185 186 175
</DataArray>
<DataArray Name="offsets" type="Int32" format="ascii">
4
8
12
16
20
24
28
32
36
40
44
48
52
56
60
64
68
72
76
80
84
88
92
96
100
104
108
112
116
120
124
128
132
136
140
144
148
152
156
160
164
168
172
176
180
184
188
192
196
200
204
208
212
216
220
224
228
232
236
240
244
248
252
256
260
264
268
272
276
280
284
288
292
296
300
304
308
312
316
320
324
328
332
336
340
344
348
352
356
360
364
368
372
376
380
384
388
392
396
400
404
408
412
416
420
424
428
432
436
440
444
448
452
456
460
464
468
472
476
480
484
488
492
496
500
504
508
512
516
520
524
528
532
536
540
544
548
552
556
560
564
568
572
576
580
584
588
592
596
600
604
608
612
616
620
624
628
632
636
640
</DataArray>
<DataArray Name="types" type="UInt8" format="ascii">
9
9
9
9
9
9
9
9
9
9
9
9
9
9
9
9
9
9
9
9
9
9
9
9
9
9
9
9
9
9
9
9
9
9
9
9
9
9
9
9
9
9
9
9
9
9
9
9
9
9
9
9
9
9
9
9
9
9
9
9
9
9
9
9
9
9
9
9
9
9
9
9
9
9
9
9
9
9
9
9
9
9
9
9
9
9
9
9
9
9
9
9
9
9
9
9
9
9
9
9
9
9
9
9
9
9
9
9
9
9
9
9
9
9
9
9
9
9
9
9
9
9
9
9
9
9
9
9
9
9
9
9
9
9
9
9
9
9
9
9
9
9
9
9
9
9
9
9
9
9
9
9
9
9
9
9
9
9
9
9
</DataArray>
</Cells>
<PointData>
<DataArray Name="disp" type="Float64" NumberOfComponents="3" format="ascii">
0.000000e+00 0.000000e+00 0.000000e+00
0.000000e+00 -3.367498e-03 0.000000e+00
0.000000e+00 -8.958365e-03 0.000000e+00
0.000000e+00 -1.756413e-02 0.000000e+00
0.000000e+00 -2.824498e-02 0.000000e+00
0.000000e+00 -3.970277e-02 0.000000e+00
0.000000e+00 -5.104640e-02 0.000000e+00
0.000000e+00 -6.143717e-02 0.000000e+00
0.000000e+00 -6.976884e-02 0.000000e+00
0.000000e+00 -7.466314e-02 0.000000e+00
0.000000e+00 -7.875000e-02 0.000000e+00
0.000000e+00 0.000000e+00 0.000000e+00
2.170779e-03 -3.512829e-03 0.000000e+00
5.927701e-03 -8.828660e-03 0.000000e+00
9.194584e-03 -1.623313e-02 0.000000e+00
1.108405e-02 -2.520226e-02 0.000000e+00
1.152330e-02 -3.545922e-02 0.000000e+00
1.073470e-02 -4.617241e-02 0.000000e+00
8.771690e-03 -5.655364e-02 0.000000e+00
4.965065e-03 -6.625130e-02 0.000000e+00
5.734419e-04 -7.424788e-02 0.000000e+00
0.000000e+00 -7.875000e-02 0.000000e+00
0.000000e+00 0.000000e+00 0.000000e+00
4.746086e-03 -3.104368e-03 0.000000e+00
1.023835e-02 -7.170308e-03 0.000000e+00
1.507643e-02 -1.174316e-02 0.000000e+00
1.845731e-02 -1.703014e-02 0.000000e+00
2.039460e-02 -2.345752e-02 0.000000e+00
2.047163e-02 -3.157422e-02 0.000000e+00
1.896288e-02 -4.130207e-02 0.000000e+00
1.516408e-02 -5.280845e-02 0.000000e+00
9.556339e-03 -6.578012e-02 0.000000e+00
0.000000e+00 -7.875000e-02 0.000000e+00
0.000000e+00 0.000000e+00 0.000000e+00
6.668194e-03 -1.678688e-03 0.000000e+00
1.259298e-02 -3.573740e-03 0.000000e+00
1.729918e-02 -5.199109e-03 0.000000e+00
2.090833e-02 -6.390017e-03 0.000000e+00
2.332372e-02 -7.128062e-03 0.000000e+00
2.433989e-02 -7.276752e-03 0.000000e+00
2.378586e-02 -6.862665e-03 0.000000e+00
2.157363e-02 -6.078755e-03 0.000000e+00
1.722915e-02 -5.546882e-03 0.000000e+00
9.704427e-03 -6.076642e-03 0.000000e+00
0.000000e+00 0.000000e+00 0.000000e+00
7.289714e-03 -1.046250e-03 0.000000e+00
1.277597e-02 -1.998793e-03 0.000000e+00
1.679804e-02 -2.583438e-03 0.000000e+00
1.979620e-02 -2.746846e-03 0.000000e+00
2.166763e-02 -2.454506e-03 0.000000e+00
2.227024e-02 -1.753575e-03 0.000000e+00
2.147201e-02 -7.727659e-04 0.000000e+00
1.929977e-02 2.770138e-04 0.000000e+00
1.560865e-02 1.144719e-03 0.000000e+00
1.077218e-02 1.275779e-03 0.000000e+00
0.000000e+00 0.000000e+00 0.000000e+00
7.332094e-03 -4.995578e-04 0.000000e+00
1.206718e-02 -8.109053e-04 0.000000e+00
1.550912e-02 -7.176021e-04 0.000000e+00
1.801731e-02 -2.388407e-04 0.000000e+00
1.948579e-02 5.870176e-04 0.000000e+00
1.986127e-02 1.698892e-03 0.000000e+00
1.908539e-02 2.933441e-03 0.000000e+00
1.718305e-02 4.102638e-03 0.000000e+00
1.437198e-02 4.882327e-03 0.000000e+00
1.147844e-02 4.966346e-03 0.000000e+00
0.000000e+00 0.000000e+00 0.000000e+00
6.844145e-03 -1.274452e-04 0.000000e+00
1.088523e-02 2.423042e-05 0.000000e+00
1.384260e-02 5.219198e-04 0.000000e+00
1.593631e-02 1.345913e-03 0.000000e+00
1.713268e-02 2.472183e-03 0.000000e+00
1.741636e-02 3.788581e-03 0.000000e+00
1.678139e-02 5.128385e-03 0.000000e+00
1.531325e-02 6.293567e-03 0.000000e+00
1.341764e-02 6.991939e-03 0.000000e+00
1.172528e-02 7.159753e-03 0.000000e+00
0.000000e+00 0.000000e+00 0.000000e+00
6.056094e-03 1.331765e-04 0.000000e+00
9.474461e-03 5.388162e-04 0.000000e+00
1.199915e-02 1.264337e-03 0.000000e+00
1.376715e-02 2.287320e-03 0.000000e+00
1.477853e-02 3.534965e-03 0.000000e+00
1.505523e-02 4.896918e-03 0.000000e+00
1.461926e-02 6.237600e-03 0.000000e+00
1.363255e-02 7.358731e-03 0.000000e+00
1.250097e-02 8.036784e-03 0.000000e+00
1.164621e-02 8.276753e-03 0.000000e+00
0.000000e+00 0.000000e+00 0.000000e+00
5.090063e-03 2.526530e-04 0.000000e+00
7.972917e-03 7.943819e-04 0.000000e+00
1.012030e-02 1.632294e-03 0.000000e+00
1.163993e-02 2.716961e-03 0.000000e+00
1.252905e-02 3.967255e-03 0.000000e+00
1.283327e-02 5.297398e-03 0.000000e+00
1.261373e-02 6.581536e-03 0.000000e+00
1.206615e-02 7.641320e-03 0.000000e+00
1.152959e-02 8.323179e-03 0.000000e+00
1.126525e-02 8.664174e-03 0.000000e+00
0.000000e+00 0.000000e+00 0.000000e+00
4.076645e-03 2.733104e-04 0.000000e+00
6.484233e-03 8.442746e-04 0.000000e+00
8.315746e-03 1.692170e-03 0.000000e+00
9.621432e-03 2.755547e-03 0.000000e+00
1.042614e-02 3.955464e-03 0.000000e+00
1.077181e-02 5.210086e-03 0.000000e+00
1.075493e-02 6.402955e-03 0.000000e+00
1.056682e-02 7.396583e-03 0.000000e+00
1.045792e-02 8.097561e-03 0.000000e+00
1.058031e-02 8.558124e-03 0.000000e+00
0.000000e+00 0.000000e+00 0.000000e+00
3.125119e-03 2.248494e-04 0.000000e+00
5.103502e-03 7.568030e-04 0.000000e+00
6.637147e-03 1.548749e-03 0.000000e+00
7.751773e-03 2.535790e-03 0.000000e+00
8.478904e-03 3.649245e-03 0.000000e+00
8.869319e-03 4.802223e-03 0.000000e+00
9.024193e-03 5.900081e-03 0.000000e+00
9.103187e-03 6.833531e-03 0.000000e+00
9.269651e-03 7.566885e-03 0.000000e+00
9.614205e-03 8.146988e-03 0.000000e+00
0.000000e+00 0.000000e+00 0.000000e+00
2.288490e-03 1.591511e-04 0.000000e+00
3.879199e-03 6.152630e-04 0.000000e+00
5.121903e-03 1.305212e-03 0.000000e+00
6.052346e-03 2.179092e-03 0.000000e+00
6.701756e-03 3.170764e-03 0.000000e+00
7.118316e-03 4.206298e-03 0.000000e+00
7.394500e-03 5.208389e-03 0.000000e+00
7.642361e-03 6.108398e-03 0.000000e+00
7.963144e-03 6.888987e-03 0.000000e+00
8.409913e-03 7.586977e-03 0.000000e+00
0.000000e+00 0.000000e+00 0.000000e+00
1.592342e-03 9.519960e-05 0.000000e+00
2.822451e-03 4.576719e-04 0.000000e+00
3.798729e-03 1.031162e-03 0.000000e+00
4.548497e-03 1.769581e-03 0.000000e+00
5.104184e-03 2.624512e-03 0.000000e+00
5.512433e-03 3.543261e-03 0.000000e+00
5.839388e-03 4.464163e-03 0.000000e+00
6.160434e-03 5.346133e-03 0.000000e+00
6.538811e-03 6.180507e-03 0.000000e+00
6.995451e-03 6.998096e-03 0.000000e+00
0.000000e+00 0.000000e+00 0.000000e+00
1.037722e-03 3.906398e-05 0.000000e+00
1.929122e-03 2.971033e-04 0.000000e+00
2.657535e-03 7.551108e-04 0.000000e+00
3.234748e-03 1.369917e-03 0.000000e+00
3.675915e-03 2.105996e-03 0.000000e+00
4.025566e-03 2.925817e-03 0.000000e+00
4.334827e-03 3.784369e-03 0.000000e+00
4.649498e-03 4.653143e-03 0.000000e+00
5.004480e-03 5.534576e-03 0.000000e+00
5.403557e-03 6.458092e-03 0.000000e+00
0.000000e+00 0.000000e+00 0.000000e+00
6.202183e-04 -1.626369e-05 0.000000e+00
1.186317e-03 1.570140e-04 0.000000e+00
1.674821e-03 5.180335e-04 0.000000e+00
2.070741e-03 1.044472e-03 0.000000e+00
2.378420e-03 1.696366e-03 0.000000e+00
2.628051e-03 2.438582e-03 0.000000e+00
2.865847e-03 3.246555e-03 0.000000e+00
3.113405e-03 4.103662e-03 0.000000e+00
3.382252e-03 5.018788e-03 0.000000e+00
3.671585e-03 6.024207e-03 0.000000e+00
0.000000e+00 0.000000e+00 0.000000e+00
2.899244e-04 -5.146269e-05 0.000000e+00
5.627957e-04 6.913055e-05 0.000000e+00
8.067174e-04 3.694451e-04 0.000000e+00
1.008019e-03 8.376906e-04 0.000000e+00
1.165900e-03 1.436080e-03 0.000000e+00
1.296267e-03 2.127603e-03 0.000000e+00
1.424000e-03 2.897152e-03 0.000000e+00
1.560425e-03 3.744601e-03 0.000000e+00
1.703428e-03 4.681575e-03 0.000000e+00
1.855055e-03 5.731728e-03 0.000000e+00
0.000000e+00 0.000000e+00 0.000000e+00
0.000000e+00 -5.244517e-05 0.000000e+00
0.000000e+00 5.308374e-05 0.000000e+00
0.000000e+00 3.312829e-04 0.000000e+00
0.000000e+00 7.725862e-04 0.000000e+00
0.000000e+00 1.344163e-03 0.000000e+00
0.000000e+00 2.012329e-03 0.000000e+00
0.000000e+00 2.762780e-03 0.000000e+00
0.000000e+00 3.602494e-03 0.000000e+00
0.000000e+00 4.544806e-03 0.000000e+00
0.000000e+00 5.604809e-03 0.000000e+00
</DataArray>
<DataArray Name="shear" type="Float64" NumberOfComponents="1" format="ascii">
2.072390e-02
3.362358e-02
6.092511e-02
8.658883e-02
1.025457e-01
1.076920e-01
1.028286e-01
8.750080e-02
5.934945e-02
3.107103e-02
2.220001e-02
2.372398e-02
3.586667e-02
5.744547e-02
7.702652e-02
9.227578e-02
1.019692e-01
1.038454e-01
9.714038e-02
8.089221e-02
5.587705e-02
3.683469e-02
3.064607e-02
3.964261e-02
5.171463e-02
6.180639e-02
7.454196e-02
9.058268e-02
1.080572e-01
1.246915e-01
1.396978e-01
1.457029e-01
1.436495e-01
3.568724e-02
3.852318e-02
4.096848e-02
4.314867e-02
4.802083e-02
5.600761e-02
6.780118e-02
8.340508e-02
1.024243e-01
1.217028e-01
1.357418e-01
3.744002e-02
3.497193e-02
3.012655e-02
2.774168e-02
2.675810e-02
2.565964e-02
2.381072e-02
2.082876e-02
1.596650e-02
7.362972e-03
8.188925e-04
3.707760e-02
3.218763e-02
2.529946e-02
2.320963e-02
2.234782e-02
2.140621e-02
1.988798e-02
1.735515e-02
1.335167e-02
6.732034e-03
2.161562e-03
3.450737e-02
2.876224e-02
2.176666e-02
2.030588e-02
1.981388e-02
1.929318e-02
1.817698e-02
1.605970e-02
1.234017e-02
6.548063e-03
2.487041e-03
3.050950e-02
2.503898e-02
1.897665e-02
1.821083e-02
1.808630e-02
1.783068e-02
1.702180e-02
1.521886e-02
1.180239e-02
6.826327e-03
3.538775e-03
2.567562e-02
2.115177e-02
1.660371e-02
1.638183e-02
1.651993e-02
1.648210e-02
1.594022e-02
1.439527e-02
1.141879e-02
7.396794e-03
4.924831e-03
2.061578e-02
1.731472e-02
1.438530e-02
1.459336e-02
1.501105e-02
1.519705e-02
1.483195e-02
1.352513e-02
1.111651e-02
8.156680e-03
6.484747e-03
1.583515e-02
1.373430e-02
1.223308e-02
1.281994e-02
1.350717e-02
1.389647e-02
1.370387e-02
1.269443e-02
1.093890e-02
9.000559e-03
8.002895e-03
1.163188e-02
1.055763e-02
1.015766e-02
1.101511e-02
1.192420e-02
1.251386e-02
1.256654e-02
1.198662e-02
1.094274e-02
9.889646e-03
9.422687e-03
8.118304e-03
7.783566e-03
8.179853e-03
9.247427e-03
1.032075e-02
1.113486e-02
1.151063e-02
1.142571e-02
1.106949e-02
1.078116e-02
1.074527e-02
5.302758e-03
5.396445e-03
6.358629e-03
7.683090e-03
8.931864e-03
9.949330e-03
1.063822e-02
1.100070e-02
1.122313e-02
1.156918e-02
1.188112e-02
3.146516e-03
3.457502e-03
4.850410e-03
6.468267e-03
7.913826e-03
9.073858e-03
9.970156e-03
1.067618e-02
1.134155e-02
1.215590e-02
1.271888e-02
1.475250e-03
2.058648e-03
3.844923e-03
5.685769e-03
7.272465e-03
8.520204e-03
9.523281e-03
1.044410e-02
1.140332e-02
1.249037e-02
1.318640e-02
5.106959e-04
1.493595e-03
3.490788e-03
5.401738e-03
7.031504e-03
8.312621e-03
9.355981e-03
1.035179e-02
1.141798e-02
1.259173e-02
1.332589e-02
</DataArray>
<DataArray Name="stress" type="Float64" NumberOfComponents="9" format="ascii">
-1.240878e+05 7.024301e+03 0.000000e+00 7.024301e+03 -2.202435e+05 0.000000e+00 0.000000e+00 0.000000e+00 0.000000e+00
-1.109655e+05 5.137446e+03 0.000000e+00 5.137446e+03 -2.221966e+05 0.000000e+00 0.000000e+00 0.000000e+00 0.000000e+00
-1.162998e+05 4.040779e+03 0.000000e+00 4.040779e+03 -2.264586e+05 0.000000e+00 0.000000e+00 0.000000e+00 0.000000e+00
-1.263456e+05 4.872300e+03 0.000000e+00 4.872300e+03 -2.366821e+05 0.000000e+00 0.000000e+00 0.000000e+00 0.000000e+00
-1.362936e+05 5.586472e+03 0.000000e+00 5.586472e+03 -2.437035e+05 0.000000e+00 0.000000e+00 0.000000e+00 0.000000e+00
-1.434727e+05 7.146250e+03 0.000000e+00 7.146250e+03 -2.537716e+05 0.000000e+00 0.000000e+00 0.000000e+00 0.000000e+00
-1.465638e+05 8.925966e+03 0.000000e+00 8.925966e+03 -2.667223e+05 0.000000e+00 0.000000e+00 0.000000e+00 0.000000e+00
-1.474655e+05 1.097367e+04 0.000000e+00 1.097367e+04 -2.785940e+05 0.000000e+00 0.000000e+00 0.000000e+00 0.000000e+00
-1.498924e+05 6.818737e+03 0.000000e+00 6.818737e+03 -2.888047e+05 0.000000e+00 0.000000e+00 0.000000e+00 0.000000e+00
-1.579660e+05 -1.711013e+03 0.000000e+00 -1.711013e+03 -2.996597e+05 0.000000e+00 0.000000e+00 0.000000e+00 0.000000e+00
-1.620965e+05 -7.233591e+02 0.000000e+00 -7.233591e+02 -2.859747e+05 0.000000e+00 0.000000e+00 0.000000e+00 0.000000e+00
-1.283148e+05 2.074657e+04 0.000000e+00 2.074657e+04 -2.151423e+05 0.000000e+00 0.000000e+00 0.000000e+00 0.000000e+00
-1.122605e+05 1.739771e+04 0.000000e+00 1.739771e+04 -2.110627e+05 0.000000e+00 0.000000e+00 0.000000e+00 0.000000e+00
-1.143865e+05 1.586795e+04 0.000000e+00 1.586795e+04 -2.218127e+05 0.000000e+00 0.000000e+00 0.000000e+00 0.000000e+00
-1.229949e+05 1.437589e+04 0.000000e+00 1.437589e+04 -2.329366e+05 0.000000e+00 0.000000e+00 0.000000e+00 0.000000e+00
-1.336086e+05 1.314502e+04 0.000000e+00 1.314502e+04 -2.435972e+05 0.000000e+00 0.000000e+00 0.000000e+00 0.000000e+00
-1.438536e+05 1.299648e+04 0.000000e+00 1.299648e+04 -2.539218e+05 0.000000e+00 0.000000e+00 0.000000e+00 0.000000e+00
-1.484966e+05 1.351361e+04 0.000000e+00 1.351361e+04 -2.627633e+05 0.000000e+00 0.000000e+00 0.000000e+00 0.000000e+00
-1.482439e+05 1.343040e+04 0.000000e+00 1.343040e+04 -2.721610e+05 0.000000e+00 0.000000e+00 0.000000e+00 0.000000e+00
-1.515113e+05 6.972994e+03 0.000000e+00 6.972994e+03 -2.833180e+05 0.000000e+00 0.000000e+00 0.000000e+00 0.000000e+00
-1.524662e+05 -1.818667e+03 0.000000e+00 -1.818667e+03 -2.890403e+05 0.000000e+00 0.000000e+00 0.000000e+00 0.000000e+00
-1.755506e+05 -8.237193e+03 0.000000e+00 -8.237193e+03 -3.283147e+05 0.000000e+00 0.000000e+00 0.000000e+00 0.000000e+00
-1.288097e+05 3.390416e+04 0.000000e+00 3.390416e+04 -1.878909e+05 0.000000e+00 0.000000e+00 0.000000e+00 0.000000e+00
-1.119002e+05 2.908808e+04 0.000000e+00 2.908808e+04 -1.768941e+05 0.000000e+00 0.000000e+00 0.000000e+00 0.000000e+00
-1.119850e+05 2.824909e+04 0.000000e+00 2.824909e+04 -1.844506e+05 0.000000e+00 0.000000e+00 0.000000e+00 0.000000e+00
-1.201468e+05 2.887082e+04 0.000000e+00 2.887082e+04 -1.943095e+05 0.000000e+00 0.000000e+00 0.000000e+00 0.000000e+00
-1.327708e+05 3.139541e+04 0.000000e+00 3.139541e+04 -2.085549e+05 0.000000e+00 0.000000e+00 0.000000e+00 0.000000e+00
-1.488929e+05 3.390998e+04 0.000000e+00 3.390998e+04 -2.254236e+05 0.000000e+00 0.000000e+00 0.000000e+00 0.000000e+00
-1.642988e+05 3.536790e+04 0.000000e+00 3.536790e+04 -2.440969e+05 0.000000e+00 0.000000e+00 0.000000e+00 0.000000e+00
-1.733011e+05 3.697604e+04 0.000000e+00 3.697604e+04 -2.646005e+05 0.000000e+00 0.000000e+00 0.000000e+00 0.000000e+00
-1.815622e+05 2.986498e+04 0.000000e+00 2.986498e+04 -2.770682e+05 0.000000e+00 0.000000e+00 0.000000e+00 0.000000e+00
-1.855550e+05 1.769096e+04 0.000000e+00 1.769096e+04 -2.850532e+05 0.000000e+00 0.000000e+00 0.000000e+00 0.000000e+00
-2.036075e+05 -4.170939e+03 0.000000e+00 -4.170939e+03 -3.394023e+05 0.000000e+00 0.000000e+00 0.000000e+00 0.000000e+00
-1.177207e+05 3.286373e+04 0.000000e+00 3.286373e+04 -1.416560e+05 0.000000e+00 0.000000e+00 0.000000e+00 0.000000e+00
-1.052468e+05 2.953952e+04 0.000000e+00 2.953952e+04 -1.326663e+05 0.000000e+00 0.000000e+00 0.000000e+00 0.000000e+00
-1.071963e+05 3.060602e+04 0.000000e+00 3.060602e+04 -1.329925e+05 0.000000e+00 0.000000e+00 0.000000e+00 0.000000e+00
-1.164124e+05 3.343765e+04 0.000000e+00 3.343765e+04 -1.336375e+05 0.000000e+00 0.000000e+00 0.000000e+00 0.000000e+00
-1.246938e+05 3.587212e+04 0.000000e+00 3.587212e+04 -1.314225e+05 0.000000e+00 0.000000e+00 0.000000e+00 0.000000e+00
-1.296800e+05 3.590395e+04 0.000000e+00 3.590395e+04 -1.258423e+05 0.000000e+00 0.000000e+00 0.000000e+00 0.000000e+00
-1.275019e+05 3.140715e+04 0.000000e+00 3.140715e+04 -1.150057e+05 0.000000e+00 0.000000e+00 0.000000e+00 0.000000e+00
-1.185369e+05 2.514854e+04 0.000000e+00 2.514854e+04 -1.027356e+05 0.000000e+00 0.000000e+00 0.000000e+00 0.000000e+00
-1.069826e+05 1.745997e+04 0.000000e+00 1.745997e+04 -8.958189e+04 0.000000e+00 0.000000e+00 0.000000e+00 0.000000e+00
-8.555360e+04 8.826034e+03 0.000000e+00 8.826034e+03 -7.858556e+04 0.000000e+00 0.000000e+00 0.000000e+00 0.000000e+00
-4.659193e+04 2.868858e+03 0.000000e+00 2.868858e+03 -5.647488e+04 0.000000e+00 0.000000e+00 0.000000e+00 0.000000e+00
-1.114018e+05 3.086789e+04 0.000000e+00 3.086789e+04 -1.160901e+05 0.000000e+00 0.000000e+00 0.000000e+00 0.000000e+00
-1.063611e+05 2.971943e+04 0.000000e+00 2.971943e+04 -1.129128e+05 0.000000e+00 0.000000e+00 0.000000e+00 0.000000e+00
-1.123622e+05 3.127618e+04 0.000000e+00 3.127618e+04 -1.146491e+05 0.000000e+00 0.000000e+00 0.000000e+00 0.000000e+00
-1.230368e+05 3.260990e+04 0.000000e+00 3.260990e+04 -1.127014e+05 0.000000e+00 0.000000e+00 0.000000e+00 0.000000e+00
-1.320604e+05 3.196428e+04 0.000000e+00 3.196428e+04 -1.071313e+05 0.000000e+00 0.000000e+00 0.000000e+00 0.000000e+00
-1.373236e+05 2.884667e+04 0.000000e+00 2.884667e+04 -9.904974e+04 0.000000e+00 0.000000e+00 0.000000e+00 0.000000e+00
-1.371547e+05 2.360624e+04 0.000000e+00 2.360624e+04 -9.003395e+04 0.000000e+00 0.000000e+00 0.000000e+00 0.000000e+00
-1.327440e+05 1.741788e+04 0.000000e+00 1.741788e+04 -8.125039e+04 0.000000e+00 0.000000e+00 0.000000e+00 0.000000e+00
-1.227550e+05 9.693373e+03 0.000000e+00 9.693373e+03 -7.355712e+04 0.000000e+00 0.000000e+00 0.000000e+00 0.000000e+00
-9.627412e+04 1.135221e+03 0.000000e+00 1.135221e+03 -6.789434e+04 0.000000e+00 0.000000e+00 0.000000e+00 0.000000e+00
-5.344657e+04 -1.809075e+03 0.000000e+00 -1.809075e+03 -5.410902e+04 0.000000e+00 0.000000e+00 0.000000e+00 0.000000e+00
-1.043085e+05 3.027143e+04 0.000000e+00 3.027143e+04 -1.009110e+05 0.000000e+00 0.000000e+00 0.000000e+00 0.000000e+00
-1.052842e+05 2.983104e+04 0.000000e+00 2.983104e+04 -1.005566e+05 0.000000e+00 0.000000e+00 0.000000e+00 0.000000e+00
-1.130334e+05 2.924643e+04 0.000000e+00 2.924643e+04 -9.996643e+04 0.000000e+00 0.000000e+00 0.000000e+00 0.000000e+00
-1.224675e+05 2.767660e+04 0.000000e+00 2.767660e+04 -9.519727e+04 0.000000e+00 0.000000e+00 0.000000e+00 0.000000e+00
-1.294822e+05 2.482592e+04 0.000000e+00 2.482592e+04 -8.967632e+04 0.000000e+00 0.000000e+00 0.000000e+00 0.000000e+00
-1.325225e+05 2.054908e+04 0.000000e+00 2.054908e+04 -8.366853e+04 0.000000e+00 0.000000e+00 0.000000e+00 0.000000e+00
-1.313835e+05 1.518647e+04 0.000000e+00 1.518647e+04 -7.749538e+04 0.000000e+00 0.000000e+00 0.000000e+00 0.000000e+00
-1.256098e+05 9.027688e+03 0.000000e+00 9.027688e+03 -7.108103e+04 0.000000e+00 0.000000e+00 0.000000e+00 0.000000e+00
-1.138158e+05 1.940486e+03 0.000000e+00 1.940486e+03 -6.557758e+04 0.000000e+00 0.000000e+00 0.000000e+00 0.000000e+00
-9.028155e+04 -3.658122e+03 0.000000e+00 -3.658122e+03 -6.171327e+04 0.000000e+00 0.000000e+00 0.000000e+00 0.000000e+00
-5.933516e+04 -4.720138e+03 0.000000e+00 -4.720138e+03 -5.480736e+04 0.000000e+00 0.000000e+00 0.000000e+00 0.000000e+00
-9.645711e+04 2.807982e+04 0.000000e+00 2.807982e+04 -8.882560e+04 0.000000e+00 0.000000e+00 0.000000e+00 0.000000e+00
-1.028234e+05 2.808844e+04 0.000000e+00 2.808844e+04 -9.048826e+04 0.000000e+00 0.000000e+00 0.000000e+00 0.000000e+00
-1.115295e+05 2.528810e+04 0.000000e+00 2.528810e+04 -8.746973e+04 0.000000e+00 0.000000e+00 0.000000e+00 0.000000e+00
-1.200771e+05 2.269129e+04 0.000000e+00 2.269129e+04 -8.330880e+04 0.000000e+00 0.000000e+00 0.000000e+00 0.000000e+00
-1.255130e+05 1.916826e+04 0.000000e+00 1.916826e+04 -7.903260e+04 0.000000e+00 0.000000e+00 0.000000e+00 0.000000e+00
-1.271364e+05 1.451616e+04 0.000000e+00 1.451616e+04 -7.438642e+04 0.000000e+00 0.000000e+00 0.000000e+00 0.000000e+00
-1.251216e+05 9.050950e+03 0.000000e+00 9.050950e+03 -6.962746e+04 0.000000e+00 0.000000e+00 0.000000e+00 0.000000e+00
-1.184680e+05 2.990496e+03 0.000000e+00 2.990496e+03 -6.514243e+04 0.000000e+00 0.000000e+00 0.000000e+00 0.000000e+00
-1.070624e+05 -2.553024e+03 0.000000e+00 -2.553024e+03 -6.198758e+04 0.000000e+00 0.000000e+00 0.000000e+00 0.000000e+00
-8.848186e+04 -4.746086e+03 0.000000e+00 -4.746086e+03 -6.004375e+04 0.000000e+00 0.000000e+00 0.000000e+00 0.000000e+00
-6.821008e+04 -4.170546e+03 0.000000e+00 -4.170546e+03 -5.633876e+04 0.000000e+00 0.000000e+00 0.000000e+00 0.000000e+00
-8.785555e+04 2.485811e+04 0.000000e+00 2.485811e+04 -7.915595e+04 0.000000e+00 0.000000e+00 0.000000e+00 0.000000e+00
-9.904614e+04 2.510487e+04 0.000000e+00 2.510487e+04 -8.240861e+04 0.000000e+00 0.000000e+00 0.000000e+00 0.000000e+00
-1.091623e+05 2.168271e+04 0.000000e+00 2.168271e+04 -7.885695e+04 0.000000e+00 0.000000e+00 0.000000e+00 0.000000e+00
-1.166764e+05 1.859790e+04 0.000000e+00 1.859790e+04 -7.558285e+04 0.000000e+00 0.000000e+00 0.000000e+00 0.000000e+00
-1.208332e+05 1.459454e+04 0.000000e+00 1.459454e+04 -7.197836e+04 0.000000e+00 0.000000e+00 0.000000e+00 0.000000e+00
-1.217315e+05 9.842372e+03 0.000000e+00 9.842372e+03 -6.825862e+04 0.000000e+00 0.000000e+00 0.000000e+00 0.000000e+00
-1.189838e+05 4.535883e+03 0.000000e+00 4.535883e+03 -6.472450e+04 0.000000e+00 0.000000e+00 0.000000e+00 0.000000e+00
-1.123602e+05 -6.888776e+02 0.000000e+00 -6.888776e+02 -6.190798e+04 0.000000e+00 0.000000e+00 0.000000e+00 0.000000e+00
-1.029299e+05 -4.403462e+03 0.000000e+00 -4.403462e+03 -6.030190e+04 0.000000e+00 0.000000e+00 0.000000e+00 0.000000e+00
-8.972216e+04 -4.763374e+03 0.000000e+00 -4.763374e+03 -5.956149e+04 0.000000e+00 0.000000e+00 0.000000e+00 0.000000e+00
-7.659829e+04 -3.591156e+03 0.000000e+00 -3.591156e+03 -5.710976e+04 0.000000e+00 0.000000e+00 0.000000e+00 0.000000e+00
-8.081637e+04 2.193297e+04 0.000000e+00 2.193297e+04 -7.236309e+04 0.000000e+00 0.000000e+00 0.000000e+00 0.000000e+00
-9.529095e+04 2.210999e+04 0.000000e+00 2.210999e+04 -7.616962e+04 0.000000e+00 0.000000e+00 0.000000e+00 0.000000e+00
-1.061943e+05 1.865794e+04 0.000000e+00 1.865794e+04 -7.288052e+04 0.000000e+00 0.000000e+00 0.000000e+00 0.000000e+00
-1.126344e+05 1.514702e+04 0.000000e+00 1.514702e+04 -7.003949e+04 0.000000e+00 0.000000e+00 0.000000e+00 0.000000e+00
-1.160898e+05 1.091683e+04 0.000000e+00 1.091683e+04 -6.704141e+04 0.000000e+00 0.000000e+00 0.000000e+00 0.000000e+00
-1.164204e+05 6.236725e+03 0.000000e+00 6.236725e+03 -6.414640e+04 0.000000e+00 0.000000e+00 0.000000e+00 0.000000e+00
-1.134193e+05 1.468953e+03 0.000000e+00 1.468953e+03 -6.173236e+04 0.000000e+00 0.000000e+00 0.000000e+00 0.000000e+00
-1.077956e+05 -2.643502e+03 0.000000e+00 -2.643502e+03 -6.013408e+04 0.000000e+00 0.000000e+00 0.000000e+00 0.000000e+00
-1.008683e+05 -4.936047e+03 0.000000e+00 -4.936047e+03 -5.943948e+04 0.000000e+00 0.000000e+00 0.000000e+00 0.000000e+00
-9.206546e+04 -4.348216e+03 0.000000e+00 -4.348216e+03 -5.937779e+04 0.000000e+00 0.000000e+00 0.000000e+00 0.000000e+00
-8.384243e+04 -2.886154e+03 0.000000e+00 -2.886154e+03 -5.784375e+04 0.000000e+00 0.000000e+00 0.000000e+00 0.000000e+00
-7.618638e+04 1.997957e+04 0.000000e+00 1.997957e+04 -6.811748e+04 0.000000e+00 0.000000e+00 0.000000e+00 0.000000e+00
-9.182455e+04 1.978200e+04 0.000000e+00 1.978200e+04 -7.144157e+04 0.000000e+00 0.000000e+00 0.000000e+00 0.000000e+00
-1.026443e+05 1.603977e+04 0.000000e+00 1.603977e+04 -6.855085e+04 0.000000e+00 0.000000e+00 0.000000e+00 0.000000e+00
-1.083213e+05 1.216859e+04 0.000000e+00 1.216859e+04 -6.607620e+04 0.000000e+00 0.000000e+00 0.000000e+00 0.000000e+00
-1.112709e+05 8.008368e+03 0.000000e+00 8.008368e+03 -6.366980e+04 0.000000e+00 0.000000e+00 0.000000e+00 0.000000e+00
-1.113839e+05 3.640911e+03 0.000000e+00 3.640911e+03 -6.155745e+04 0.000000e+00 0.000000e+00 0.000000e+00 0.000000e+00
-1.088564e+05 -4.211480e+02 0.000000e+00 -4.211480e+02 -5.997269e+04 0.000000e+00 0.000000e+00 0.000000e+00 0.000000e+00
-1.046816e+05 -3.443837e+03 0.000000e+00 -3.443837e+03 -5.916438e+04 0.000000e+00 0.000000e+00 0.000000e+00 0.000000e+00
-1.000609e+05 -4.767403e+03 0.000000e+00 -4.767403e+03 -5.898870e+04 0.000000e+00 0.000000e+00 0.000000e+00 0.000000e+00
-9.475265e+04 -3.731315e+03 0.000000e+00 -3.731315e+03 -5.929413e+04 0.000000e+00 0.000000e+00 0.000000e+00 0.000000e+00
-8.995795e+04 -2.244682e+03 0.000000e+00 -2.244682e+03 -5.855303e+04 0.000000e+00 0.000000e+00 0.000000e+00 0.000000e+00
-7.331944e+04 1.806442e+04 0.000000e+00 1.806442e+04 -6.496690e+04 0.000000e+00 0.000000e+00 0.000000e+00 0.000000e+00
-8.828098e+04 1.748649e+04 0.000000e+00 1.748649e+04 -6.787332e+04 0.000000e+00 0.000000e+00 0.000000e+00 0.000000e+00
-9.858959e+04 1.361913e+04 0.000000e+00 1.361913e+04 -6.524748e+04 0.000000e+00 0.000000e+00 0.000000e+00 0.000000e+00
-1.040207e+05 9.754921e+03 0.000000e+00 9.754921e+03 -6.328953e+04 0.000000e+00 0.000000e+00 0.000000e+00 0.000000e+00
-1.066668e+05 5.827789e+03 0.000000e+00 5.827789e+03 -6.144756e+04 0.000000e+00 0.000000e+00 0.000000e+00 0.000000e+00
-1.069010e+05 1.903533e+03 0.000000e+00 1.903533e+03 -5.997273e+04 0.000000e+00 0.000000e+00 0.000000e+00 0.000000e+00
-1.052086e+05 -1.454252e+03 0.000000e+00 -1.454252e+03 -5.900861e+04 0.000000e+00 0.000000e+00 0.000000e+00 0.000000e+00
-1.026490e+05 -3.626645e+03 0.000000e+00 -3.626645e+03 -5.869190e+04 0.000000e+00 0.000000e+00 0.000000e+00 0.000000e+00
-1.000290e+05 -4.270162e+03 0.000000e+00 -4.270162e+03 -5.882850e+04 0.000000e+00 0.000000e+00 0.000000e+00 0.000000e+00
-9.737772e+04 -3.057874e+03 0.000000e+00 -3.057874e+03 -5.929699e+04 0.000000e+00 0.000000e+00 0.000000e+00 0.000000e+00
-9.512417e+04 -1.694381e+03 0.000000e+00 -1.694381e+03 -5.912326e+04 0.000000e+00 0.000000e+00 0.000000e+00 0.000000e+00
-7.089490e+04 1.606014e+04 0.000000e+00 1.606014e+04 -6.305845e+04 0.000000e+00 0.000000e+00 0.000000e+00 0.000000e+00
-8.444410e+04 1.530712e+04 0.000000e+00 1.530712e+04 -6.532842e+04 0.000000e+00 0.000000e+00 0.000000e+00 0.000000e+00
-9.453759e+04 1.152920e+04 0.000000e+00 1.152920e+04 -6.294138e+04 0.000000e+00 0.000000e+00 0.000000e+00 0.000000e+00
-9.988305e+04 7.865562e+03 0.000000e+00 7.865562e+03 -6.128608e+04 0.000000e+00 0.000000e+00 0.000000e+00 0.000000e+00
-1.024519e+05 4.185187e+03 0.000000e+00 4.185187e+03 -5.990655e+04 0.000000e+00 0.000000e+00 0.000000e+00 0.000000e+00
-1.030990e+05 7.982183e+02 0.000000e+00 7.982183e+02 -5.890805e+04 0.000000e+00 0.000000e+00 0.000000e+00 0.000000e+00
-1.024342e+05 -1.881806e+03 0.000000e+00 -1.881806e+03 -5.841378e+04 0.000000e+00 0.000000e+00 0.000000e+00 0.000000e+00
-1.013765e+05 -3.404200e+03 0.000000e+00 -3.404200e+03 -5.841732e+04 0.000000e+00 0.000000e+00 0.000000e+00 0.000000e+00
-1.004041e+05 -3.606650e+03 0.000000e+00 -3.606650e+03 -5.881870e+04 0.000000e+00 0.000000e+00 0.000000e+00 0.000000e+00
-9.970331e+04 -2.390353e+03 0.000000e+00 -2.390353e+03 -5.936096e+04 0.000000e+00 0.000000e+00 0.000000e+00 0.000000e+00
-9.927088e+04 -1.168849e+03 0.000000e+00 -1.168849e+03 -5.955627e+04 0.000000e+00 0.000000e+00 0.000000e+00 0.000000e+00
-6.862965e+04 1.376485e+04 0.000000e+00 1.376485e+04 -6.232597e+04 0.000000e+00 0.000000e+00 0.000000e+00 0.000000e+00
-8.081533e+04 1.291594e+04 0.000000e+00 1.291594e+04 -6.380216e+04 0.000000e+00 0.000000e+00 0.000000e+00 0.000000e+00
-9.074880e+04 9.576997e+03 0.000000e+00 9.576997e+03 -6.147970e+04 0.000000e+00 0.000000e+00 0.000000e+00 0.000000e+00
-9.603071e+04 6.276275e+03 0.000000e+00 6.276275e+03 -5.990168e+04 0.000000e+00 0.000000e+00 0.000000e+00 0.000000e+00
-9.882788e+04 3.039038e+03 0.000000e+00 3.039038e+03 -5.874918e+04 0.000000e+00 0.000000e+00 0.000000e+00 0.000000e+00
-1.000323e+05 2.080023e+02 0.000000e+00 2.080023e+02 -5.812765e+04 0.000000e+00 0.000000e+00 0.000000e+00 0.000000e+00
-1.004075e+05 -1.873809e+03 0.000000e+00 -1.873809e+03 -5.799231e+04 0.000000e+00 0.000000e+00 0.000000e+00 0.000000e+00
-1.006184e+05 -2.902693e+03 0.000000e+00 -2.902693e+03 -5.829767e+04 0.000000e+00 0.000000e+00 0.000000e+00 0.000000e+00
-1.009863e+05 -2.849225e+03 0.000000e+00 -2.849225e+03 -5.888211e+04 0.000000e+00 0.000000e+00 0.000000e+00 0.000000e+00
-1.015923e+05 -1.768766e+03 0.000000e+00 -1.768766e+03 -5.948360e+04 0.000000e+00 0.000000e+00 0.000000e+00 0.000000e+00
-1.023075e+05 -7.340942e+02 0.000000e+00 -7.340942e+02 -5.993429e+04 0.000000e+00 0.000000e+00 0.000000e+00 0.000000e+00
-6.737039e+04 1.114453e+04 0.000000e+00 1.114453e+04 -6.253945e+04 0.000000e+00 0.000000e+00 0.000000e+00 0.000000e+00
-7.784980e+04 1.028719e+04 0.000000e+00 1.028719e+04 -6.311723e+04 0.000000e+00 0.000000e+00 0.000000e+00 0.000000e+00
-8.740509e+04 7.610643e+03 0.000000e+00 7.610643e+03 -6.086557e+04 0.000000e+00 0.000000e+00 0.000000e+00 0.000000e+00
-9.267399e+04 4.804799e+03 0.000000e+00 4.804799e+03 -5.924601e+04 0.000000e+00 0.000000e+00 0.000000e+00 0.000000e+00
-9.576619e+04 2.146085e+03 0.000000e+00 2.146085e+03 -5.815731e+04 0.000000e+00 0.000000e+00 0.000000e+00 0.000000e+00
-9.763073e+04 -5.110309e+01 0.000000e+00 -5.110309e+01 -5.772096e+04 0.000000e+00 0.000000e+00 0.000000e+00 0.000000e+00
-9.893473e+04 -1.546278e+03 0.000000e+00 -1.546278e+03 -5.785495e+04 0.000000e+00 0.000000e+00 0.000000e+00 0.000000e+00
-1.002038e+05 -2.201448e+03 0.000000e+00 -2.201448e+03 -5.835994e+04 0.000000e+00 0.000000e+00 0.000000e+00 0.000000e+00
-1.015945e+05 -2.050391e+03 0.000000e+00 -2.050391e+03 -5.902725e+04 0.000000e+00 0.000000e+00 0.000000e+00 0.000000e+00
-1.030670e+05 -1.205551e+03 0.000000e+00 -1.205551e+03 -5.961622e+04 0.000000e+00 0.000000e+00 0.000000e+00 0.000000e+00
-1.044781e+05 -4.371029e+02 0.000000e+00 -4.371029e+02 -6.023628e+04 0.000000e+00 0.000000e+00 0.000000e+00 0.000000e+00
-6.673236e+04 7.983224e+03 0.000000e+00 7.983224e+03 -6.364959e+04 0.000000e+00 0.000000e+00 0.000000e+00 0.000000e+00
-7.571716e+04 7.288472e+03 0.000000e+00 7.288472e+03 -6.334233e+04 0.000000e+00 0.000000e+00 0.000000e+00 0.000000e+00
-8.472817e+04 5.362214e+03 0.000000e+00 5.362214e+03 -6.085407e+04 0.000000e+00 0.000000e+00 0.000000e+00 0.000000e+00
-8.999595e+04 3.253707e+03 0.000000e+00 3.253707e+03 -5.907007e+04 0.000000e+00 0.000000e+00 0.000000e+00 0.000000e+00
-9.339241e+04 1.352269e+03 0.000000e+00 1.352269e+03 -5.804698e+04 0.000000e+00 0.000000e+00 0.000000e+00 0.000000e+00
-9.591345e+04 -1.280181e+02 0.000000e+00 -1.280181e+02 -5.770702e+04 0.000000e+00 0.000000e+00 0.000000e+00 0.000000e+00
-9.799594e+04 -1.055238e+03 0.000000e+00 -1.055238e+03 -5.793610e+04 0.000000e+00 0.000000e+00 0.000000e+00 0.000000e+00
-1.000191e+05 -1.422701e+03 0.000000e+00 -1.422701e+03 -5.850941e+04 0.000000e+00 0.000000e+00 0.000000e+00 0.000000e+00
-1.021008e+05 -1.288586e+03 0.000000e+00 -1.288586e+03 -5.918270e+04 0.000000e+00 0.000000e+00 0.000000e+00 0.000000e+00
-1.040762e+05 -7.529187e+02 0.000000e+00 -7.529187e+02 -5.971730e+04 0.000000e+00 0.000000e+00 0.000000e+00 0.000000e+00
-1.059747e+05 -2.646263e+02 0.000000e+00 -2.646263e+02 -6.041724e+04 0.000000e+00 0.000000e+00 0.000000e+00 0.000000e+00
-6.631104e+04 4.154917e+03 0.000000e+00 4.154917e+03 -6.464225e+04 0.000000e+00 0.000000e+00 0.000000e+00 0.000000e+00
-7.435940e+04 3.776108e+03 0.000000e+00 3.776108e+03 -6.387334e+04 0.000000e+00 0.000000e+00 0.000000e+00 0.000000e+00
-8.291298e+04 2.745990e+03 0.000000e+00 2.745990e+03 -6.105188e+04 0.000000e+00 0.000000e+00 0.000000e+00 0.000000e+00
-8.825608e+04 1.631599e+03 0.000000e+00 1.631599e+03 -5.915504e+04 0.000000e+00 0.000000e+00 0.000000e+00 0.000000e+00
-9.191616e+04 6.571660e+02 0.000000e+00 6.571660e+02 -5.814796e+04 0.000000e+00 0.000000e+00 0.000000e+00 0.000000e+00
-9.489476e+04 -8.882241e+01 0.000000e+00 -8.882241e+01 -5.787176e+04 0.000000e+00 0.000000e+00 0.000000e+00 0.000000e+00
-9.751082e+04 -5.243844e+02 0.000000e+00 -5.243844e+02 -5.811621e+04 0.000000e+00 0.000000e+00 0.000000e+00 0.000000e+00
-9.996832e+04 -6.770811e+02 0.000000e+00 -6.770811e+02 -5.867939e+04 0.000000e+00 0.000000e+00 0.000000e+00 0.000000e+00
-1.023826e+05 -6.044926e+02 0.000000e+00 -6.044926e+02 -5.929914e+04 0.000000e+00 0.000000e+00 0.000000e+00 0.000000e+00
-1.046338e+05 -3.637296e+02 0.000000e+00 -3.637296e+02 -5.977521e+04 0.000000e+00 0.000000e+00 0.000000e+00 0.000000e+00
-1.069149e+05 -1.200391e+02 0.000000e+00 -1.200391e+02 -6.048145e+04 0.000000e+00 0.000000e+00 0.000000e+00 0.000000e+00
-6.608415e+04 1.193616e+03 0.000000e+00 1.193616e+03 -6.476576e+04 0.000000e+00 0.000000e+00 0.000000e+00 0.000000e+00
-7.385471e+04 1.103242e+03 0.000000e+00 1.103242e+03 -6.394339e+04 0.000000e+00 0.000000e+00 0.000000e+00 0.000000e+00
-8.229124e+04 7.288211e+02 0.000000e+00 7.288211e+02 -6.113871e+04 0.000000e+00 0.000000e+00 0.000000e+00 0.000000e+00
-8.768559e+04 3.067658e+02 0.000000e+00 3.067658e+02 -5.926716e+04 0.000000e+00 0.000000e+00 0.000000e+00 0.000000e+00
-9.146904e+04 -5.801120e+01 0.000000e+00 -5.801120e+01 -5.828473e+04 0.000000e+00 0.000000e+00 0.000000e+00 0.000000e+00
-9.460509e+04 -3.417254e+02 0.000000e+00 -3.417254e+02 -5.802439e+04 0.000000e+00 0.000000e+00 0.000000e+00 0.000000e+00
-9.740523e+04 -5.128214e+02 0.000000e+00 -5.128214e+02 -5.826680e+04 0.000000e+00 0.000000e+00 0.000000e+00 0.000000e+00
-1.000042e+05 -5.719675e+02 0.000000e+00 -5.719675e+02 -5.880129e+04 0.000000e+00 0.000000e+00 0.000000e+00 0.000000e+00
-1.025077e+05 -5.401972e+02 0.000000e+00 -5.401972e+02 -5.935434e+04 0.000000e+00 0.000000e+00 0.000000e+00 0.000000e+00
-1.048267e+05 -4.310672e+02 0.000000e+00 -4.310672e+02 -5.980503e+04 0.000000e+00 0.000000e+00 0.000000e+00 0.000000e+00
-1.072499e+05 -2.920304e+02 0.000000e+00 -2.920304e+02 -6.051915e+04 0.000000e+00 0.000000e+00 0.000000e+00 0.000000e+00
</DataArray>
<DataArray Name="vol_eps" type="Float64" NumberOfComponents="1" format="ascii">
-1.401028e-02
-1.178558e-02
-9.228650e-03
-7.805452e-03
-7.288740e-03
-7.935802e-03
-9.436687e-03
-1.207867e-02
-1.599680e-02
-2.032517e-02
-2.049807e-02
-1.373895e-02
-1.093282e-02
-9.037325e-03
-7.982306e-03
-7.726211e-03
-8.157076e-03
-8.835545e-03
-1.036810e-02
-1.306754e-02
-1.609633e-02
-2.247754e-02
-1.148593e-02
-8.303327e-03
-7.271016e-03
-7.282966e-03
-7.618118e-03
-8.438607e-03
-9.309587e-03
-1.002185e-02
-1.019275e-02
-1.037429e-02
-1.478686e-02
-7.259394e-03
-5.276956e-03
-5.140763e-03
-5.602731e-03
-5.458996e-03
-4.477398e-03
-2.273378e-03
6.139426e-04
4.114671e-03
8.575069e-03
1.424250e-02
-4.855700e-03
-4.465761e-03
-5.468720e-03
-6.283401e-03
-6.598805e-03
-6.465505e-03
-5.954270e-03
-5.271099e-03
-4.472613e-03
-2.680879e-03
1.195220e-03
-3.001053e-03
-3.596659e-03
-4.892866e-03
-5.439026e-03
-5.581585e-03
-5.394346e-03
-4.949405e-03
-4.309600e-03
-3.521783e-03
-1.972670e-03
5.210881e-04
-1.691430e-03
-2.963457e-03
-4.218861e-03
-4.654088e-03
-4.699574e-03
-4.456068e-03
-4.056080e-03
-3.536117e-03
-2.917095e-03
-1.782939e-03
-2.425164e-04
-7.600027e-04
-2.464206e-03
-3.660826e-03
-3.986668e-03
-3.958969e-03
-3.747997e-03
-3.408295e-03
-2.998234e-03
-2.570343e-03
-1.848142e-03
-8.429913e-04
-2.891822e-04
-2.155809e-03
-3.200629e-03
-3.422692e-03
-3.401025e-03
-3.227355e-03
-2.950440e-03
-2.654594e-03
-2.402326e-03
-1.998597e-03
-1.376735e-03
-1.475328e-04
-1.929864e-03
-2.802365e-03
-2.973995e-03
-2.979807e-03
-2.853644e-03
-2.650650e-03
-2.462374e-03
-2.343037e-03
-2.164601e-03
-1.827357e-03
-2.143912e-04
-1.750109e-03
-2.446464e-03
-2.633927e-03
-2.666899e-03
-2.592030e-03
-2.460979e-03
-2.364178e-03
-2.344906e-03
-2.311614e-03
-2.177322e-03
-3.376976e-04
-1.587766e-03
-2.158487e-03
-2.362758e-03
-2.427137e-03
-2.401315e-03
-2.337527e-03
-2.315636e-03
-2.365668e-03
-2.425387e-03
-2.428576e-03
-4.435864e-04
-1.434571e-03
-1.937198e-03
-2.146373e-03
-2.233145e-03
-2.248958e-03
-2.249962e-03
-2.297753e-03
-2.398551e-03
-2.507778e-03
-2.593059e-03
-5.238086e-04
-1.296162e-03
-1.769970e-03
-1.976611e-03
-2.077118e-03
-2.132610e-03
-2.199283e-03
-2.304932e-03
-2.441698e-03
-2.568956e-03
-2.696843e-03
-6.183241e-04
-1.200492e-03
-1.626512e-03
-1.835265e-03
-1.957048e-03
-2.064090e-03
-2.182795e-03
-2.325572e-03
-2.481072e-03
-2.603173e-03
-2.745180e-03
-6.882407e-04
-1.156360e-03
-1.527195e-03
-1.745184e-03
-1.891553e-03
-2.034857e-03
-2.186401e-03
-2.348181e-03
-2.504189e-03
-2.616410e-03
-2.766724e-03
-6.901756e-04
-1.130762e-03
-1.493172e-03
-1.722134e-03
-1.883932e-03
-2.038174e-03
-2.199909e-03
-2.365112e-03
-2.516432e-03
-2.624480e-03
-2.781688e-03
</DataArray>
</PointData>
</Piece>
</UnstructuredGrid>
</VTKFile>
