<?xml version="1.0"?>
<VTKFile type="UnstructuredGrid" version="0.1">
<UnstructuredGrid>
<FieldData>
<DataArray Name="TIME" type="Float64" format="ascii" NumberOfTuples="1">
0.000000e+00
</DataArray>
</FieldData>
<FieldData>
<DataArray Name="CYCLE" type="Int32" format="ascii" NumberOfTuples="1">
0
</DataArray>
</FieldData>
<Piece NumberOfPoints="187" NumberOfCells="160">
<Points>
<DataArray NumberOfComponents="3" type="Float64" format="ascii">
0.000000e+00 0.000000e+00 0.000000e+00
0.000000e+00 1.966983e-01 0.000000e+00
0.000000e+00 3.914895e-01 0.000000e+00
0.000000e+00 5.835871e-01 0.000000e+00
0.000000e+00 7.741675e-01 0.000000e+00
0.000000e+00 9.641098e-01 0.000000e+00
0.000000e+00 1.153836e+00 0.000000e+00
0.000000e+00 1.344021e+00 0.000000e+00
0.000000e+00 1.535778e+00 0.000000e+00
0.000000e+00 1.730865e+00 0.000000e+00
0.000000e+00 1.926875e+00 0.000000e+00
2.250000e-01 0.000000e+00 0.000000e+00
2.269849e-01 1.966246e-01 0.000000e+00
2.302744e-01 3.916339e-01 0.000000e+00
2.330226e-01 5.848214e-01 0.000000e+00
2.344286e-01 7.766237e-01 0.000000e+00
2.349000e-01 9.674743e-01 0.000000e+00
2.345390e-01 1.157854e+00 0.000000e+00
2.332403e-01 1.348209e+00 0.000000e+00
2.299556e-01 1.538915e+00 0.000000e+00
2.255640e-01 1.731257e+00 0.000000e+00
2.250000e-01 1.926875e+00 0.000000e+00
4.500000e-01 0.000000e+00 0.000000e+00
4.543377e-01 1.970208e-01 0.000000e+00
4.590782e-01 3.931554e-01 0.000000e+00
4.631358e-01 5.888673e-01 0.000000e+00
4.659445e-01 7.839216e-01 0.000000e+00
4.677308e-01 9.779053e-01 0.000000e+00
4.682238e-01 1.170509e+00 0.000000e+00
4.675773e-01 1.361656e+00 0.000000e+00
4.642908e-01 1.551193e+00 0.000000e+00
4.585301e-01 1.739284e+00 0.000000e+00
4.500000e-01 1.926875e+00 0.000000e+00
6.750000e-01 0.000000e+00 0.000000e+00
6.810315e-01 1.984223e-01 0.000000e+00
6.862032e-01 3.966420e-01 0.000000e+00
6.902043e-01 5.950199e-01 0.000000e+00
6.933173e-01 7.937003e-01 0.000000e+00
6.956647e-01 9.927198e-01 0.000000e+00
6.970321e-01 1.192090e+00 0.000000e+00
6.969364e-01 1.392006e+00 0.000000e+00
6.947610e-01 1.592451e+00 0.000000e+00
6.906269e-01 1.793140e+00 0.000000e+00
6.839656e-01 1.993035e+00 0.000000e+00
9.000000e-01 0.000000e+00 0.000000e+00
9.065401e-01 1.988846e-01 0.000000e+00
9.113107e-01 3.978809e-01 0.000000e+00
9.147774e-01 5.971931e-01 0.000000e+00
9.174638e-01 7.968199e-01 0.000000e+00
9.193773e-01 9.968121e-01 0.000000e+00
9.202768e-01 1.197237e+00 0.000000e+00
9.197622e-01 1.398038e+00 0.000000e+00
9.176357e-01 1.598954e+00 0.000000e+00
9.140991e-01 1.799636e+00 0.000000e+00
9.095518e-01 1.999722e+00 0.000000e+00
1.125000e+00 0.000000e+00 0.000000e+00
1.131589e+00 1.994011e-01 0.000000e+00
1.135689e+00 3.989789e-01 0.000000e+00
1.138703e+00 5.988808e-01 0.000000e+00
1.140998e+00 7.991068e-01 0.000000e+00
1.142495e+00 9.996752e-01 0.000000e+00
1.143050e+00 1.200572e+00 0.000000e+00
1.142445e+00 1.401671e+00 0.000000e+00
1.140657e+00 1.602713e+00 0.000000e+00
1.137981e+00 1.803389e+00 0.000000e+00
1.135133e+00 2.003467e+00 0.000000e+00
1.350000e+00 0.000000e+00 0.000000e+00
1.356183e+00 1.997757e-01 0.000000e+00
1.359672e+00 3.997710e-01 0.000000e+00
1.362292e+00 6.000654e-01 0.000000e+00
1.364208e+00 8.006440e-01 0.000000e+00
1.365400e+00 1.001515e+00 0.000000e+00
1.365773e+00 1.202626e+00 0.000000e+00
1.365244e+00 1.403820e+00 0.000000e+00
1.363885e+00 1.604880e+00 0.000000e+00
1.362068e+00 1.805518e+00 0.000000e+00
1.360387e+00 2.005667e+00 0.000000e+00
1.575000e+00 0.000000e+00 0.000000e+00
1.580476e+00 2.000390e-01 0.000000e+00
1.583453e+00 4.002864e-01 0.000000e+00
1.585692e+00 6.008025e-01 0.000000e+00
1.587315e+00 8.015797e-01 0.000000e+00
1.588290e+00 1.002591e+00 0.000000e+00
1.588585e+00 1.203756e+00 0.000000e+00
1.588203e+00 1.404948e+00 0.000000e+00
1.587289e+00 1.605962e+00 0.000000e+00
1.586200e+00 1.806581e+00 0.000000e+00
1.585335e+00 2.006801e+00 0.000000e+00
1.800000e+00 0.000000e+00 0.000000e+00
1.804597e+00 2.001635e-01 0.000000e+00
1.807143e+00 4.005535e-01 0.000000e+00
1.809056e+00 6.011775e-01 0.000000e+00
1.810438e+00 8.020418e-01 0.000000e+00
1.811256e+00 1.003084e+00 0.000000e+00
1.811538e+00 1.204234e+00 0.000000e+00
1.811332e+00 1.405364e+00 0.000000e+00
1.810825e+00 1.606301e+00 0.000000e+00
1.810295e+00 1.806914e+00 0.000000e+00
1.809994e+00 2.007221e+00 0.000000e+00
2.025000e+00 0.000000e+00 0.000000e+00
2.028686e+00 2.001851e-01 0.000000e+00
2.030841e+00 4.006211e-01 0.000000e+00
2.032471e+00 6.012838e-01 0.000000e+00
2.033640e+00 8.021578e-01 0.000000e+00
2.034349e+00 1.003169e+00 0.000000e+00
2.034647e+00 1.204251e+00 0.000000e+00
2.034624e+00 1.405285e+00 0.000000e+00
2.034445e+00 1.606146e+00 0.000000e+00
2.034309e+00 1.806767e+00 0.000000e+00
2.034374e+00 2.007175e+00 0.000000e+00
2.250000e+00 0.000000e+00 0.000000e+00
2.252830e+00 2.001593e-01 0.000000e+00
2.254625e+00 4.005828e-01 0.000000e+00
2.255985e+00 6.012226e-01 0.000000e+00
2.256964e+00 8.020455e-01 0.000000e+00
2.257593e+00 1.002983e+00 0.000000e+00
2.257923e+00 1.203962e+00 0.000000e+00
2.258059e+00 1.404893e+00 0.000000e+00
2.258109e+00 1.605695e+00 0.000000e+00
2.258222e+00 1.806337e+00 0.000000e+00
2.258495e+00 2.006851e+00 0.000000e+00
2.475000e+00 0.000000e+00 0.000000e+00
2.477077e+00 2.001144e-01 0.000000e+00
2.478531e+00 4.004913e-01 0.000000e+00
2.479641e+00 6.010665e-01 0.000000e+00
2.480453e+00 8.017961e-01 0.000000e+00
2.481010e+00 1.002623e+00 0.000000e+00
2.481363e+00 1.203491e+00 0.000000e+00
2.481596e+00 1.404338e+00 0.000000e+00
2.481786e+00 1.605106e+00 0.000000e+00
2.482034e+00 1.805778e+00 0.000000e+00
2.482400e+00 2.006386e+00 0.000000e+00
2.700000e+00 0.000000e+00 0.000000e+00
2.701449e+00 2.000648e-01 0.000000e+00
2.702575e+00 4.003675e-01 0.000000e+00
2.703455e+00 6.008537e-01 0.000000e+00
2.704118e+00 8.014759e-01 0.000000e+00
2.704597e+00 1.002192e+00 0.000000e+00
2.704937e+00 1.202964e+00 0.000000e+00
2.705204e+00 1.403743e+00 0.000000e+00
2.705456e+00 1.604490e+00 0.000000e+00
2.705754e+00 1.805196e+00 0.000000e+00
2.706130e+00 2.005889e+00 0.000000e+00
2.925000e+00 0.000000e+00 0.000000e+00
2.925950e+00 2.000193e-01 0.000000e+00
2.926764e+00 4.002333e-01 0.000000e+00
2.927426e+00 6.006227e-01 0.000000e+00
2.927941e+00 8.011521e-01 0.000000e+00
2.928328e+00 1.001783e+00 0.000000e+00
2.928616e+00 1.202476e+00 0.000000e+00
2.928861e+00 1.403199e+00 0.000000e+00
2.929110e+00 1.603931e+00 0.000000e+00
2.929392e+00 1.804669e+00 0.000000e+00
2.929718e+00 2.005438e+00 0.000000e+00
3.150000e+00 0.000000e+00 0.000000e+00
3.150571e+00 1.999724e-01 0.000000e+00
3.151090e+00 4.001163e-01 0.000000e+00
3.151533e+00 6.004273e-01 0.000000e+00
3.151887e+00 8.008856e-01 0.000000e+00
3.152159e+00 1.001452e+00 0.000000e+00
3.152370e+00 1.202090e+00 0.000000e+00
3.152556e+00 1.402773e+00 0.000000e+00
3.152748e+00 1.603491e+00 0.000000e+00
3.152963e+00 1.804254e+00 0.000000e+00
3.153201e+00 2.005079e+00 0.000000e+00
3.375000e+00 0.000000e+00 0.000000e+00
3.375269e+00 1.999428e-01 0.000000e+00
3.375518e+00 4.000438e-01 0.000000e+00
3.375740e+00 6.003067e-01 0.000000e+00
3.375920e+00 8.007161e-01 0.000000e+00
3.376061e+00 1.001239e+00 0.000000e+00
3.376171e+00 1.201842e+00 0.000000e+00
3.376272e+00 1.402500e+00 0.000000e+00
3.376376e+00 1.603209e+00 0.000000e+00
3.376491e+00 1.803983e+00 0.000000e+00
3.376615e+00 2.004839e+00 0.000000e+00
3.600000e+00 0.000000e+00 0.000000e+00
3.600000e+00 1.999445e-01 0.000000e+00
3.600000e+00 4.000331e-01 0.000000e+00
3.600000e+00 6.002788e-01 0.000000e+00
3.600000e+00 8.006655e-01 0.000000e+00
3.600000e+00 1.001170e+00 0.000000e+00
3.600000e+00 1.201754e+00 0.000000e+00
3.600000e+00 1.402398e+00 0.000000e+00
3.600000e+00 1.603100e+00 0.000000e+00
3.600000e+00 1.803873e+00 0.000000e+00
3.600000e+00 2.004736e+00 0.000000e+00
</DataArray>
</Points>
<Cells>
<DataArray Name="connectivity" type="Int32" format="ascii">
0 11 12 1
1 12 13 2
2 13 14 3
3 14 15 4
4 15 16 5
5 16 17 6
6 17 18 7
7 18 19 8
8 19 20 9
9 20 21 10
11 22 23 12
12 23 24 13
13 24 25 14
14 25 26 15
15 26 27 16
16 27 28 17
17 28 29 18
18 29 30 19
19 30 31 20
20 31 32 21
22 33 34 23
23 34 35 24
24 35 36 25
25 36 37 26
26 37 38 27
27 38 39 28
28 39 40 29
29 40 41 30
30 41 42 31
31 42 43 32
33 44 45 34
34 45 46 35
35 46 47 36
36 47 48 37
37 48 49 38
38 49 50 39
39 50 51 40
40 51 52 41
41 52 53 42
42 53 54 43
44 55 56 45
45 56 57 46
46 57 58 47
47 58 59 48
48 59 60 49
49 60 61 50
50 61 62 51
51 62 63 52
52 63 64 53
53 64 65 54
55 66 67 56
56 67 68 57
57 68 69 58
58 69 70 59
59 70 71 60
60 71 72 61
61 72 73 62
62 73 74 63
63 74 75 64
64 75 76 65
66 77 78 67
67 78 79 68
68 79 80 69
69 80 81 70
70 81 82 71
71 82 83 72
72 83 84 73
73 84 85 74
74 85 86 75
75 86 87 76
77 88 89 78
78 89 90 79
79 90 91 80
80 91 92 81
81 92 93 82
82 93 94 83
83 94 95 84
84 95 96 85
85 96 97 86
86 97 98 87
88 99 100 89
89 100 101 90
90 101 102 91
91 102 103 92
92 103 104 93
93 104 105 94
94 105 106 95
95 106 107 96
96 107 108 97
97 108 109 98
99 110 111 100
100 111 112 101
101 112 113 102
102 113 114 103
103 114 115 104
104 115 116 105
105 116 117 106
106 117 118 107
107 118 119 108
108 119 120 109
110 121 122 111
111 122 123 112
112 123 124 113
113 124 125 114
114 125 126 115
115 126 127 116
116 127 128 117
117 128 129 118
118 129 130 119
119 130 131 120
121 132 133 122
122 133 134 123
123 134 135 124
124 135 136 125
125 136 137 126
126 137 138 127
127 138 139 128
128 139 140 129
129 140 141 130
130 141 142 131
132 143 144 133
133 144 145 134
134 145 146 135
135 146 147 136
136 147 148 137
137 148 149 138
138 149 150 139
139 150 151 140
140 151 152 141
141 152 153 142
143 154 155 144
144 155 156 145
145 156 157 146
146 157 158 147
147 158 159 148
148 159 160 149
149 160 161 150
150 161 162 151
151 162 163 152
152 163 164 153
154 165 166 155
155 166 167 156
156 167 168 157
157 168 169 158
158 169 170 159
159 170 171 160
160 171 172 161
161 172 173 162
162 173 174 163
163 174 175 164
165 176 177 166
166 177 178 167
167 178 179 168
168 179 180 169
169 180 181 170
170 181 182 171
171 182 183 172
172 183 184 173
173 184 185 174
174 185 186 175
</DataArray>
<DataArray Name="offsets" type="Int32" format="ascii">
4
8
12
16
20
24
28
32
36
40
44
48
52
56
60
64
68
72
76
80
84
88
92
96
100
104
108
112
116
120
124
128
132
136
140
144
148
152
156
160
164
168
172
176
180
184
188
192
196
200
204
208
212
216
220
224
228
232
236
240
244
248
252
256
260
264
268
272
276
280
284
288
292
296
300
304
308
312
316
320
324
328
332
336
340
344
348
352
356
360
364
368
372
376
380
384
388
392
396
400
404
408
412
416
420
424
428
432
436
440
444
448
452
456
460
464
468
472
476
480
484
488
492
496
500
504
508
512
516
520
524
528
532
536
540
544
548
552
556
560
564
568
572
576
580
584
588
592
596
600
604
608
612
616
620
624
628
632
636
640
</DataArray>
<DataArray Name="types" type="UInt8" format="ascii">
9
9
9
9
9
9
9
9
9
9
9
9
9
9
9
9
9
9
9
9
9
9
9
9
9
9
9
9
9
9
9
9
9
9
9
9
9
9
9
9
9
9
9
9
9
9
9
9
9
9
9
9
9
9
9
9
9
9
9
9
9
9
9
9
9
9
9
9
9
9
9
9
9
9
9
9
9
9
9
9
9
9
9
9
9
9
9
9
9
9
9
9
9
9
9
9
9
9
9
9
9
9
9
9
9
9
9
9
9
9
9
9
9
9
9
9
9
9
9
9
9
9
9
9
9
9
9
9
9
9
9
9
9
9
9
9
9
9
9
9
9
9
9
9
9
9
9
9
9
9
9
9
9
9
9
9
9
9
9
9
</DataArray>
</Cells>
<PointData>
<DataArray Name="disp" type="Float64" NumberOfComponents="3" format="ascii">
0.000000e+00 0.000000e+00 0.000000e+00
0.000000e+00 -3.301731e-03 0.000000e+00
0.000000e+00 -8.510492e-03 0.000000e+00
0.000000e+00 -1.641287e-02 0.000000e+00
0.000000e+00 -2.583245e-02 0.000000e+00
0.000000e+00 -3.589017e-02 0.000000e+00
0.000000e+00 -4.616445e-02 0.000000e+00
0.000000e+00 -5.597893e-02 0.000000e+00
0.000000e+00 -6.422191e-02 0.000000e+00
0.000000e+00 -6.913485e-02 0.000000e+00
0.000000e+00 -7.312500e-02 0.000000e+00
0.000000e+00 0.000000e+00 0.000000e+00
1.984954e-03 -3.375366e-03 0.000000e+00
5.274421e-03 -8.366088e-03 0.000000e+00
8.022568e-03 -1.517862e-02 0.000000e+00
9.428580e-03 -2.337635e-02 0.000000e+00
9.900038e-03 -3.252566e-02 0.000000e+00
9.538956e-03 -4.214605e-02 0.000000e+00
8.240301e-03 -5.179058e-02 0.000000e+00
4.955560e-03 -6.108481e-02 0.000000e+00
5.639929e-04 -6.874271e-02 0.000000e+00
0.000000e+00 -7.312500e-02 0.000000e+00
0.000000e+00 0.000000e+00 0.000000e+00
4.337676e-03 -2.979252e-03 0.000000e+00
9.078161e-03 -6.844599e-03 0.000000e+00
1.313583e-02 -1.113268e-02 0.000000e+00
1.594450e-02 -1.607841e-02 0.000000e+00
1.773075e-02 -2.209468e-02 0.000000e+00
1.822374e-02 -2.949125e-02 0.000000e+00
1.757728e-02 -3.834369e-02 0.000000e+00
1.429077e-02 -4.880678e-02 0.000000e+00
8.530141e-03 -6.071565e-02 0.000000e+00
0.000000e+00 -7.312500e-02 0.000000e+00
0.000000e+00 0.000000e+00 0.000000e+00
6.031518e-03 -1.577664e-03 0.000000e+00
1.120316e-02 -3.358035e-03 0.000000e+00
1.520425e-02 -4.980123e-03 0.000000e+00
1.831730e-02 -6.299702e-03 0.000000e+00
2.066469e-02 -7.280250e-03 0.000000e+00
2.203207e-02 -7.910017e-03 0.000000e+00
2.193638e-02 -7.993664e-03 0.000000e+00
1.976097e-02 -7.548900e-03 0.000000e+00
1.562683e-02 -6.859632e-03 0.000000e+00
8.965646e-03 -6.964808e-03 0.000000e+00
0.000000e+00 0.000000e+00 0.000000e+00
6.540081e-03 -1.115437e-03 0.000000e+00
1.131074e-02 -2.119080e-03 0.000000e+00
1.477743e-02 -2.806933e-03 0.000000e+00
1.746383e-02 -3.180089e-03 0.000000e+00
1.937734e-02 -3.187907e-03 0.000000e+00
2.027676e-02 -2.762484e-03 0.000000e+00
1.976220e-02 -1.962065e-03 0.000000e+00
1.763571e-02 -1.046203e-03 0.000000e+00
1.409910e-02 -3.637832e-04 0.000000e+00
9.551811e-03 -2.780719e-04 0.000000e+00
0.000000e+00 0.000000e+00 0.000000e+00
6.589200e-03 -5.988725e-04 0.000000e+00
1.068916e-02 -1.021062e-03 0.000000e+00
1.370348e-02 -1.119234e-03 0.000000e+00
1.599793e-02 -8.931594e-04 0.000000e+00
1.749527e-02 -3.248421e-04 0.000000e+00
1.805027e-02 5.719885e-04 0.000000e+00
1.744492e-02 1.670893e-03 0.000000e+00
1.565707e-02 2.713269e-03 0.000000e+00
1.298065e-02 3.389457e-03 0.000000e+00
1.013260e-02 3.466625e-03 0.000000e+00
0.000000e+00 0.000000e+00 0.000000e+00
6.183210e-03 -2.242712e-04 0.000000e+00
9.671764e-03 -2.290376e-04 0.000000e+00
1.229212e-02 6.539302e-05 0.000000e+00
1.420814e-02 6.440074e-04 0.000000e+00
1.540027e-02 1.515424e-03 0.000000e+00
1.577279e-02 2.625793e-03 0.000000e+00
1.524360e-02 3.820417e-03 0.000000e+00
1.388491e-02 4.879886e-03 0.000000e+00
1.206836e-02 5.517586e-03 0.000000e+00
1.038717e-02 5.667092e-03 0.000000e+00
0.000000e+00 0.000000e+00 0.000000e+00
5.475718e-03 3.903927e-05 0.000000e+00
8.453454e-03 2.863925e-04 0.000000e+00
1.069230e-02 8.024875e-04 0.000000e+00
1.231504e-02 1.579741e-03 0.000000e+00
1.329020e-02 2.591267e-03 0.000000e+00
1.358523e-02 3.755804e-03 0.000000e+00
1.320328e-02 4.948364e-03 0.000000e+00
1.228951e-02 5.962159e-03 0.000000e+00
1.120029e-02 6.581258e-03 0.000000e+00
1.033502e-02 6.801134e-03 0.000000e+00
0.000000e+00 0.000000e+00 0.000000e+00
4.597436e-03 1.634617e-04 0.000000e+00
7.143452e-03 5.534581e-04 0.000000e+00
9.055975e-03 1.177516e-03 0.000000e+00
1.043793e-02 2.041828e-03 0.000000e+00
1.125628e-02 3.084259e-03 0.000000e+00
1.153835e-02 4.234191e-03 0.000000e+00
1.133205e-02 5.363563e-03 0.000000e+00
1.082479e-02 6.301001e-03 0.000000e+00
1.029527e-02 6.913894e-03 0.000000e+00
9.993941e-03 7.221510e-03 0.000000e+00
0.000000e+00 0.000000e+00 0.000000e+00
3.685452e-03 1.850883e-04 0.000000e+00
5.840689e-03 6.210900e-04 0.000000e+00
7.471446e-03 1.283798e-03 0.000000e+00
8.640137e-03 2.157734e-03 0.000000e+00
9.348884e-03 3.169279e-03 0.000000e+00
9.647155e-03 4.251206e-03 0.000000e+00
9.624403e-03 5.285510e-03 0.000000e+00
9.444806e-03 6.145457e-03 0.000000e+00
9.309107e-03 6.767121e-03 0.000000e+00
9.374090e-03 7.174933e-03 0.000000e+00
0.000000e+00 0.000000e+00 0.000000e+00
2.830190e-03 1.592672e-04 0.000000e+00
4.625109e-03 5.828141e-04 0.000000e+00
5.985121e-03 1.222545e-03 0.000000e+00
6.964471e-03 2.045463e-03 0.000000e+00
7.593506e-03 2.983021e-03 0.000000e+00
7.923050e-03 3.962333e-03 0.000000e+00
8.058611e-03 4.892560e-03 0.000000e+00
8.108852e-03 5.695444e-03 0.000000e+00
8.221859e-03 6.337401e-03 0.000000e+00
8.495235e-03 6.850729e-03 0.000000e+00
0.000000e+00 0.000000e+00 0.000000e+00
2.077093e-03 1.144346e-04 0.000000e+00
3.530773e-03 4.913229e-04 0.000000e+00
4.640665e-03 1.066518e-03 0.000000e+00
5.452734e-03 1.796158e-03 0.000000e+00
6.009705e-03 2.623269e-03 0.000000e+00
6.363221e-03 3.490606e-03 0.000000e+00
6.596582e-03 4.338170e-03 0.000000e+00
6.785889e-03 5.106223e-03 0.000000e+00
7.033941e-03 5.778060e-03 0.000000e+00
7.399811e-03 6.386369e-03 0.000000e+00
0.000000e+00 0.000000e+00 0.000000e+00
1.448928e-03 6.476562e-05 0.000000e+00
2.575064e-03 3.674948e-04 0.000000e+00
3.454828e-03 8.537398e-04 0.000000e+00
4.117589e-03 1.475859e-03 0.000000e+00
4.597554e-03 2.192196e-03 0.000000e+00
4.936719e-03 2.963872e-03 0.000000e+00
5.203744e-03 3.743235e-03 0.000000e+00
5.456523e-03 4.490049e-03 0.000000e+00
5.754028e-03 5.196013e-03 0.000000e+00
6.130380e-03 5.888863e-03 0.000000e+00
0.000000e+00 0.000000e+00 0.000000e+00
9.499715e-04 1.931076e-05 0.000000e+00
1.763516e-03 2.333237e-04 0.000000e+00
2.425587e-03 6.226413e-04 0.000000e+00
2.940634e-03 1.152065e-03 0.000000e+00
3.327516e-03 1.783424e-03 0.000000e+00
3.616273e-03 2.476397e-03 0.000000e+00
3.861243e-03 3.199421e-03 0.000000e+00
4.110249e-03 3.931026e-03 0.000000e+00
4.392118e-03 4.669384e-03 0.000000e+00
4.718584e-03 5.437967e-03 0.000000e+00
0.000000e+00 0.000000e+00 0.000000e+00
5.713839e-04 -2.761859e-05 0.000000e+00
1.090333e-03 1.163301e-04 0.000000e+00
1.532694e-03 4.272465e-04 0.000000e+00
1.887192e-03 8.855807e-04 0.000000e+00
2.158845e-03 1.451565e-03 0.000000e+00
2.369872e-03 2.090190e-03 0.000000e+00
2.555961e-03 2.773317e-03 0.000000e+00
2.748002e-03 3.491410e-03 0.000000e+00
2.962867e-03 4.253880e-03 0.000000e+00
3.200656e-03 5.079156e-03 0.000000e+00
0.000000e+00 0.000000e+00 0.000000e+00
2.689862e-04 -5.716328e-05 0.000000e+00
5.184066e-04 4.378402e-05 0.000000e+00
7.395564e-04 3.066875e-04 0.000000e+00
9.203884e-04 7.161100e-04 0.000000e+00
1.060841e-03 1.239357e-03 0.000000e+00
1.171255e-03 1.841764e-03 0.000000e+00
1.272096e-03 2.499943e-03 0.000000e+00
1.375630e-03 3.209057e-03 0.000000e+00
1.490578e-03 3.982952e-03 0.000000e+00
1.615144e-03 4.838747e-03 0.000000e+00
0.000000e+00 0.000000e+00 0.000000e+00
0.000000e+00 -5.545563e-05 0.000000e+00
0.000000e+00 3.304602e-05 0.000000e+00
0.000000e+00 2.787936e-04 0.000000e+00
0.000000e+00 6.655114e-04 0.000000e+00
0.000000e+00 1.169603e-03 0.000000e+00
0.000000e+00 1.753630e-03 0.000000e+00
0.000000e+00 2.398279e-03 0.000000e+00
0.000000e+00 3.100394e-03 0.000000e+00
0.000000e+00 3.873426e-03 0.000000e+00
0.000000e+00 4.735744e-03 0.000000e+00
</DataArray>
<DataArray Name="shear" type="Float64" NumberOfComponents="1" format="ascii">
1.996918e-02
3.141933e-02
5.533732e-02
7.686626e-02
8.928426e-02
9.444424e-02
9.306969e-02
8.269445e-02
5.803944e-02
3.051961e-02
2.165325e-02
2.246401e-02
3.327324e-02
5.202305e-02
6.866713e-02
8.141620e-02
9.023143e-02
9.388737e-02
9.036635e-02
7.613432e-02
5.248015e-02
3.505535e-02
2.839324e-02
3.626577e-02
4.666733e-02
5.563658e-02
6.767587e-02
8.274505e-02
9.885982e-02
1.129642e-01
1.244024e-01
1.313697e-01
1.320587e-01
3.239844e-02
3.453134e-02
3.631011e-02
3.852218e-02
4.390174e-02
5.243549e-02
6.345829e-02
7.586983e-02
9.105207e-02
1.092460e-01
1.235125e-01
3.370326e-02
3.098306e-02
2.608041e-02
2.410784e-02
2.393419e-02
2.386371e-02
2.288950e-02
2.012394e-02
1.519611e-02
7.257511e-03
4.705805e-04
3.344195e-02
2.870165e-02
2.219321e-02
2.052842e-02
2.017775e-02
1.987228e-02
1.885902e-02
1.648214e-02
1.236547e-02
6.048407e-03
1.677291e-03
3.119987e-02
2.564999e-02
1.904924e-02
1.793766e-02
1.770555e-02
1.753515e-02
1.681544e-02
1.498647e-02
1.147562e-02
6.051781e-03
2.247986e-03
2.758898e-02
2.235094e-02
1.657617e-02
1.594931e-02
1.595793e-02
1.596117e-02
1.548773e-02
1.399184e-02
1.089078e-02
6.309571e-03
3.240573e-03
2.318181e-02
1.889146e-02
1.448874e-02
1.426450e-02
1.451842e-02
1.468332e-02
1.436023e-02
1.302737e-02
1.037594e-02
6.759905e-03
4.483956e-03
1.861585e-02
1.551800e-02
1.261825e-02
1.274397e-02
1.319993e-02
1.346986e-02
1.321595e-02
1.205425e-02
9.973336e-03
7.379312e-03
5.857170e-03
1.432947e-02
1.239436e-02
1.083580e-02
1.123474e-02
1.183933e-02
1.219072e-02
1.203042e-02
1.117712e-02
9.734644e-03
8.084435e-03
7.203104e-03
1.054646e-02
9.563846e-03
9.070696e-03
9.681015e-03
1.039062e-02
1.086779e-02
1.093242e-02
1.049233e-02
9.654670e-03
8.783040e-03
8.389586e-03
7.377919e-03
7.056602e-03
7.331212e-03
8.172024e-03
9.022480e-03
9.672487e-03
1.000640e-02
9.974246e-03
9.682421e-03
9.435778e-03
9.406012e-03
4.841852e-03
4.893383e-03
5.703926e-03
6.841790e-03
7.902754e-03
8.728664e-03
9.274971e-03
9.577405e-03
9.753014e-03
1.000871e-02
1.025251e-02
2.890288e-03
3.140044e-03
4.365108e-03
5.802324e-03
7.068078e-03
8.048767e-03
8.758927e-03
9.296549e-03
9.812642e-03
1.043476e-02
1.086833e-02
1.362559e-03
1.864645e-03
3.478250e-03
5.126399e-03
6.528943e-03
7.613885e-03
8.432701e-03
9.122141e-03
9.835608e-03
1.066814e-02
1.121179e-02
4.662817e-04
1.343671e-03
3.164054e-03
4.879820e-03
6.328453e-03
7.452061e-03
8.308177e-03
9.054251e-03
9.833147e-03
1.073290e-02
1.131275e-02
</DataArray>
<DataArray Name="stress" type="Float64" NumberOfComponents="9" format="ascii">
-1.234424e+05 6.708996e+03 0.000000e+00 6.708996e+03 -2.171588e+05 0.000000e+00 0.000000e+00 0.000000e+00 0.000000e+00
-1.090537e+05 5.038501e+03 0.000000e+00 5.038501e+03 -2.180417e+05 0.000000e+00 0.000000e+00 0.000000e+00 0.000000e+00
-1.130846e+05 3.746547e+03 0.000000e+00 3.746547e+03 -2.238263e+05 0.000000e+00 0.000000e+00 0.000000e+00 0.000000e+00
-1.200973e+05 4.251099e+03 0.000000e+00 4.251099e+03 -2.310638e+05 0.000000e+00 0.000000e+00 0.000000e+00 0.000000e+00
-1.257947e+05 5.721261e+03 0.000000e+00 5.721261e+03 -2.419750e+05 0.000000e+00 0.000000e+00 0.000000e+00 0.000000e+00
-1.335917e+05 7.595819e+03 0.000000e+00 7.595819e+03 -2.516769e+05 0.000000e+00 0.000000e+00 0.000000e+00 0.000000e+00
-1.390269e+05 9.412600e+03 0.000000e+00 9.412600e+03 -2.654754e+05 0.000000e+00 0.000000e+00 0.000000e+00 0.000000e+00
-1.446242e+05 1.004586e+04 0.000000e+00 1.004586e+04 -2.762043e+05 0.000000e+00 0.000000e+00 0.000000e+00 0.000000e+00
-1.472645e+05 4.432972e+03 0.000000e+00 4.432972e+03 -2.843102e+05 0.000000e+00 0.000000e+00 0.000000e+00 0.000000e+00
-1.553490e+05 -2.551160e+03 0.000000e+00 -2.551160e+03 -2.936810e+05 0.000000e+00 0.000000e+00 0.000000e+00 0.000000e+00
-1.595064e+05 -6.803371e+02 0.000000e+00 -6.803371e+02 -2.795968e+05 0.000000e+00 0.000000e+00 0.000000e+00 0.000000e+00
-1.260468e+05 1.954347e+04 0.000000e+00 1.954347e+04 -2.107304e+05 0.000000e+00 0.000000e+00 0.000000e+00 0.000000e+00
-1.101340e+05 1.642778e+04 0.000000e+00 1.642778e+04 -2.067248e+05 0.000000e+00 0.000000e+00 0.000000e+00 0.000000e+00
-1.118392e+05 1.476697e+04 0.000000e+00 1.476697e+04 -2.176811e+05 0.000000e+00 0.000000e+00 0.000000e+00 0.000000e+00
-1.189400e+05 1.367049e+04 0.000000e+00 1.367049e+04 -2.293384e+05 0.000000e+00 0.000000e+00 0.000000e+00 0.000000e+00
-1.260466e+05 1.351626e+04 0.000000e+00 1.351626e+04 -2.411298e+05 0.000000e+00 0.000000e+00 0.000000e+00 0.000000e+00
-1.339445e+05 1.364746e+04 0.000000e+00 1.364746e+04 -2.507055e+05 0.000000e+00 0.000000e+00 0.000000e+00 0.000000e+00
-1.400609e+05 1.382341e+04 0.000000e+00 1.382341e+04 -2.597931e+05 0.000000e+00 0.000000e+00 0.000000e+00 0.000000e+00
-1.445307e+05 1.249573e+04 0.000000e+00 1.249573e+04 -2.658857e+05 0.000000e+00 0.000000e+00 0.000000e+00 0.000000e+00
-1.483564e+05 5.719413e+03 0.000000e+00 5.719413e+03 -2.776321e+05 0.000000e+00 0.000000e+00 0.000000e+00 0.000000e+00
-1.516874e+05 -1.412168e+03 0.000000e+00 -1.412168e+03 -2.869127e+05 0.000000e+00 0.000000e+00 0.000000e+00 0.000000e+00
-1.737086e+05 -6.787482e+03 0.000000e+00 -6.787482e+03 -3.230558e+05 0.000000e+00 0.000000e+00 0.000000e+00 0.000000e+00
-1.253828e+05 3.223154e+04 0.000000e+00 3.223154e+04 -1.835862e+05 0.000000e+00 0.000000e+00 0.000000e+00 0.000000e+00
-1.098912e+05 2.810054e+04 0.000000e+00 2.810054e+04 -1.743137e+05 0.000000e+00 0.000000e+00 0.000000e+00 0.000000e+00
-1.097516e+05 2.743423e+04 0.000000e+00 2.743423e+04 -1.822496e+05 0.000000e+00 0.000000e+00 0.000000e+00 0.000000e+00
-1.163220e+05 2.808760e+04 0.000000e+00 2.808760e+04 -1.920887e+05 0.000000e+00 0.000000e+00 0.000000e+00 0.000000e+00
-1.259064e+05 2.976972e+04 0.000000e+00 2.976972e+04 -2.036910e+05 0.000000e+00 0.000000e+00 0.000000e+00 0.000000e+00
-1.386742e+05 3.158311e+04 0.000000e+00 3.158311e+04 -2.187840e+05 0.000000e+00 0.000000e+00 0.000000e+00 0.000000e+00
-1.545643e+05 3.417624e+04 0.000000e+00 3.417624e+04 -2.352034e+05 0.000000e+00 0.000000e+00 0.000000e+00 0.000000e+00
-1.675439e+05 3.714346e+04 0.000000e+00 3.714346e+04 -2.553223e+05 0.000000e+00 0.000000e+00 0.000000e+00 0.000000e+00
-1.741308e+05 3.621615e+04 0.000000e+00 3.621615e+04 -2.733972e+05 0.000000e+00 0.000000e+00 0.000000e+00 0.000000e+00
-1.835152e+05 2.297733e+04 0.000000e+00 2.297733e+04 -2.896860e+05 0.000000e+00 0.000000e+00 0.000000e+00 0.000000e+00
-2.085988e+05 -1.497465e+03 0.000000e+00 -1.497465e+03 -3.422377e+05 0.000000e+00 0.000000e+00 0.000000e+00 0.000000e+00
-1.143554e+05 3.252182e+04 0.000000e+00 3.252182e+04 -1.394710e+05 0.000000e+00 0.000000e+00 0.000000e+00 0.000000e+00
-1.033371e+05 2.964321e+04 0.000000e+00 2.964321e+04 -1.319454e+05 0.000000e+00 0.000000e+00 0.000000e+00 0.000000e+00
-1.048936e+05 2.991119e+04 0.000000e+00 2.991119e+04 -1.330045e+05 0.000000e+00 0.000000e+00 0.000000e+00 0.000000e+00
-1.117906e+05 3.185111e+04 0.000000e+00 3.185111e+04 -1.335156e+05 0.000000e+00 0.000000e+00 0.000000e+00 0.000000e+00
-1.180667e+05 3.385368e+04 0.000000e+00 3.385368e+04 -1.320928e+05 0.000000e+00 0.000000e+00 0.000000e+00 0.000000e+00
-1.229224e+05 3.459917e+04 0.000000e+00 3.459917e+04 -1.283710e+05 0.000000e+00 0.000000e+00 0.000000e+00 0.000000e+00
-1.259639e+05 3.322695e+04 0.000000e+00 3.322695e+04 -1.206430e+05 0.000000e+00 0.000000e+00 0.000000e+00 0.000000e+00
-1.242510e+05 2.886231e+04 0.000000e+00 2.886231e+04 -1.114302e+05 0.000000e+00 0.000000e+00 0.000000e+00 0.000000e+00
-1.080574e+05 2.108697e+04 0.000000e+00 2.108697e+04 -9.356248e+04 0.000000e+00 0.000000e+00 0.000000e+00 0.000000e+00
-8.445218e+04 1.199749e+04 0.000000e+00 1.199749e+04 -7.789855e+04 0.000000e+00 0.000000e+00 0.000000e+00 0.000000e+00
-5.227436e+04 4.439732e+03 0.000000e+00 4.439732e+03 -5.745775e+04 0.000000e+00 0.000000e+00 0.000000e+00 0.000000e+00
-1.092827e+05 3.112811e+04 0.000000e+00 3.112811e+04 -1.179418e+05 0.000000e+00 0.000000e+00 0.000000e+00 0.000000e+00
-1.040198e+05 2.955118e+04 0.000000e+00 2.955118e+04 -1.147546e+05 0.000000e+00 0.000000e+00 0.000000e+00 0.000000e+00
-1.088406e+05 3.038425e+04 0.000000e+00 3.038425e+04 -1.158741e+05 0.000000e+00 0.000000e+00 0.000000e+00 0.000000e+00
-1.175749e+05 3.130003e+04 0.000000e+00 3.130003e+04 -1.138084e+05 0.000000e+00 0.000000e+00 0.000000e+00 0.000000e+00
-1.250576e+05 3.129686e+04 0.000000e+00 3.129686e+04 -1.092130e+05 0.000000e+00 0.000000e+00 0.000000e+00 0.000000e+00
-1.313319e+05 2.980438e+04 0.000000e+00 2.980438e+04 -1.026980e+05 0.000000e+00 0.000000e+00 0.000000e+00 0.000000e+00
-1.349871e+05 2.608802e+04 0.000000e+00 2.608802e+04 -9.437711e+04 0.000000e+00 0.000000e+00 0.000000e+00 0.000000e+00
-1.334312e+05 1.947977e+04 0.000000e+00 1.947977e+04 -8.504259e+04 0.000000e+00 0.000000e+00 0.000000e+00 0.000000e+00
-1.218431e+05 1.125754e+04 0.000000e+00 1.125754e+04 -7.527583e+04 0.000000e+00 0.000000e+00 0.000000e+00 0.000000e+00
-9.620558e+04 3.027865e+03 0.000000e+00 3.027865e+03 -6.780037e+04 0.000000e+00 0.000000e+00 0.000000e+00 0.000000e+00
-5.856059e+04 -1.393352e+02 0.000000e+00 -1.393352e+02 -5.586372e+04 0.000000e+00 0.000000e+00 0.000000e+00 0.000000e+00
-1.024787e+05 2.948275e+04 0.000000e+00 2.948275e+04 -1.024281e+05 0.000000e+00 0.000000e+00 0.000000e+00 0.000000e+00
-1.023527e+05 2.880199e+04 0.000000e+00 2.880199e+04 -1.019129e+05 0.000000e+00 0.000000e+00 0.000000e+00 0.000000e+00
-1.094193e+05 2.827492e+04 0.000000e+00 2.827492e+04 -1.009401e+05 0.000000e+00 0.000000e+00 0.000000e+00 0.000000e+00
-1.176383e+05 2.714922e+04 0.000000e+00 2.714922e+04 -9.653329e+04 0.000000e+00 0.000000e+00 0.000000e+00 0.000000e+00
-1.237115e+05 2.530226e+04 0.000000e+00 2.530226e+04 -9.153995e+04 0.000000e+00 0.000000e+00 0.000000e+00 0.000000e+00
-1.281829e+05 2.217688e+04 0.000000e+00 2.217688e+04 -8.576859e+04 0.000000e+00 0.000000e+00 0.000000e+00 0.000000e+00
-1.295746e+05 1.713644e+04 0.000000e+00 1.713644e+04 -7.937128e+04 0.000000e+00 0.000000e+00 0.000000e+00 0.000000e+00
-1.253470e+05 1.026531e+04 0.000000e+00 1.026531e+04 -7.274547e+04 0.000000e+00 0.000000e+00 0.000000e+00 0.000000e+00
-1.130388e+05 2.761278e+03 0.000000e+00 2.761278e+03 -6.683463e+04 0.000000e+00 0.000000e+00 0.000000e+00 0.000000e+00
-8.951023e+04 -2.486459e+03 0.000000e+00 -2.486459e+03 -6.247956e+04 0.000000e+00 0.000000e+00 0.000000e+00 0.000000e+00
-5.992225e+04 -3.607494e+03 0.000000e+00 -3.607494e+03 -5.569770e+04 0.000000e+00 0.000000e+00 0.000000e+00 0.000000e+00
-9.430592e+04 2.695804e+04 0.000000e+00 2.695804e+04 -8.975756e+04 0.000000e+00 0.000000e+00 0.000000e+00 0.000000e+00
-1.001398e+05 2.684682e+04 0.000000e+00 2.684682e+04 -9.134688e+04 0.000000e+00 0.000000e+00 0.000000e+00 0.000000e+00
-1.083390e+05 2.463129e+04 0.000000e+00 2.463129e+04 -8.840955e+04 0.000000e+00 0.000000e+00 0.000000e+00 0.000000e+00
-1.157768e+05 2.260826e+04 0.000000e+00 2.260826e+04 -8.457104e+04 0.000000e+00 0.000000e+00 0.000000e+00 0.000000e+00
-1.208914e+05 1.983871e+04 0.000000e+00 1.983871e+04 -8.036648e+04 0.000000e+00 0.000000e+00 0.000000e+00 0.000000e+00
-1.236493e+05 1.588128e+04 0.000000e+00 1.588128e+04 -7.553434e+04 0.000000e+00 0.000000e+00 0.000000e+00 0.000000e+00
-1.231387e+05 1.051718e+04 0.000000e+00 1.051718e+04 -7.057971e+04 0.000000e+00 0.000000e+00 0.000000e+00 0.000000e+00
-1.174670e+05 4.098731e+03 0.000000e+00 4.098731e+03 -6.591689e+04 0.000000e+00 0.000000e+00 0.000000e+00 0.000000e+00
-1.063007e+05 -1.792887e+03 0.000000e+00 -1.792887e+03 -6.252790e+04 0.000000e+00 0.000000e+00 0.000000e+00 0.000000e+00
-8.765383e+04 -4.257162e+03 0.000000e+00 -4.257162e+03 -6.043496e+04 0.000000e+00 0.000000e+00 0.000000e+00 0.000000e+00
-6.714148e+04 -3.925551e+03 0.000000e+00 -3.925551e+03 -5.663779e+04 0.000000e+00 0.000000e+00 0.000000e+00 0.000000e+00
-8.621921e+04 2.403254e+04 0.000000e+00 2.403254e+04 -7.995298e+04 0.000000e+00 0.000000e+00 0.000000e+00 0.000000e+00
-9.701116e+04 2.416395e+04 0.000000e+00 2.416395e+04 -8.309109e+04 0.000000e+00 0.000000e+00 0.000000e+00 0.000000e+00
-1.063412e+05 2.126171e+04 0.000000e+00 2.126171e+04 -7.972927e+04 0.000000e+00 0.000000e+00 0.000000e+00 0.000000e+00
-1.130514e+05 1.865661e+04 0.000000e+00 1.865661e+04 -7.654822e+04 0.000000e+00 0.000000e+00 0.000000e+00 0.000000e+00
-1.170329e+05 1.518556e+04 0.000000e+00 1.518556e+04 -7.287783e+04 0.000000e+00 0.000000e+00 0.000000e+00 0.000000e+00
-1.186259e+05 1.085701e+04 0.000000e+00 1.085701e+04 -6.901205e+04 0.000000e+00 0.000000e+00 0.000000e+00 0.000000e+00
-1.168572e+05 5.664855e+03 0.000000e+00 5.664855e+03 -6.526231e+04 0.000000e+00 0.000000e+00 0.000000e+00 0.000000e+00
-1.109383e+05 2.665282e+02 0.000000e+00 2.665282e+02 -6.224250e+04 0.000000e+00 0.000000e+00 0.000000e+00 0.000000e+00
-1.018761e+05 -3.762272e+03 0.000000e+00 -3.762272e+03 -6.043395e+04 0.000000e+00 0.000000e+00 0.000000e+00 0.000000e+00
-8.849319e+04 -4.503891e+03 0.000000e+00 -4.503891e+03 -5.964288e+04 0.000000e+00 0.000000e+00 0.000000e+00 0.000000e+00
-7.509502e+04 -3.559458e+03 0.000000e+00 -3.559458e+03 -5.728446e+04 0.000000e+00 0.000000e+00 0.000000e+00 0.000000e+00
-8.003060e+04 2.163248e+04 0.000000e+00 2.163248e+04 -7.340849e+04 0.000000e+00 0.000000e+00 0.000000e+00 0.000000e+00
-9.365772e+04 2.159621e+04 0.000000e+00 2.159621e+04 -7.673149e+04 0.000000e+00 0.000000e+00 0.000000e+00 0.000000e+00
-1.037193e+05 1.836852e+04 0.000000e+00 1.836852e+04 -7.363801e+04 0.000000e+00 0.000000e+00 0.000000e+00 0.000000e+00
-1.095429e+05 1.513401e+04 0.000000e+00 1.513401e+04 -7.081570e+04 0.000000e+00 0.000000e+00 0.000000e+00 0.000000e+00
-1.127485e+05 1.135054e+04 0.000000e+00 1.135054e+04 -6.775462e+04 0.000000e+00 0.000000e+00 0.000000e+00 0.000000e+00
-1.135082e+05 7.006974e+03 0.000000e+00 7.006974e+03 -6.476088e+04 0.000000e+00 0.000000e+00 0.000000e+00 0.000000e+00
-1.111829e+05 2.309654e+03 0.000000e+00 2.309654e+03 -6.215166e+04 0.000000e+00 0.000000e+00 0.000000e+00 0.000000e+00
-1.061962e+05 -1.888137e+03 0.000000e+00 -1.888137e+03 -6.035045e+04 0.000000e+00 0.000000e+00 0.000000e+00 0.000000e+00
-9.948018e+04 -4.408012e+03 0.000000e+00 -4.408012e+03 -5.946165e+04 0.000000e+00 0.000000e+00 0.000000e+00 0.000000e+00
-9.043738e+04 -4.149863e+03 0.000000e+00 -4.149863e+03 -5.937968e+04 0.000000e+00 0.000000e+00 0.000000e+00 0.000000e+00
-8.221222e+04 -2.883911e+03 0.000000e+00 -2.883911e+03 -5.792881e+04 0.000000e+00 0.000000e+00 0.000000e+00 0.000000e+00
-7.594745e+04 1.971143e+04 0.000000e+00 1.971143e+04 -6.904366e+04 0.000000e+00 0.000000e+00 0.000000e+00 0.000000e+00
-9.042162e+04 1.932392e+04 0.000000e+00 1.932392e+04 -7.192012e+04 0.000000e+00 0.000000e+00 0.000000e+00 0.000000e+00
-1.003217e+05 1.575519e+04 0.000000e+00 1.575519e+04 -6.902994e+04 0.000000e+00 0.000000e+00 0.000000e+00 0.000000e+00
-1.055460e+05 1.214293e+04 0.000000e+00 1.214293e+04 -6.663724e+04 0.000000e+00 0.000000e+00 0.000000e+00 0.000000e+00
-1.083435e+05 8.331589e+03 0.000000e+00 8.331589e+03 -6.427714e+04 0.000000e+00 0.000000e+00 0.000000e+00 0.000000e+00
-1.086602e+05 4.218025e+03 0.000000e+00 4.218025e+03 -6.204558e+04 0.000000e+00 0.000000e+00 0.000000e+00 0.000000e+00
-1.065568e+05 2.335987e+02 0.000000e+00 2.335987e+02 -6.032543e+04 0.000000e+00 0.000000e+00 0.000000e+00 0.000000e+00
-1.029337e+05 -2.881872e+03 0.000000e+00 -2.881872e+03 -5.931574e+04 0.000000e+00 0.000000e+00 0.000000e+00 0.000000e+00
-9.838452e+04 -4.379092e+03 0.000000e+00 -4.379092e+03 -5.904892e+04 0.000000e+00 0.000000e+00 0.000000e+00 0.000000e+00
-9.283580e+04 -3.562283e+03 0.000000e+00 -3.562283e+03 -5.934245e+04 0.000000e+00 0.000000e+00 0.000000e+00 0.000000e+00
-8.820780e+04 -2.170605e+03 0.000000e+00 -2.170605e+03 -5.858039e+04 0.000000e+00 0.000000e+00 0.000000e+00 0.000000e+00
-7.305128e+04 1.775819e+04 0.000000e+00 1.775819e+04 -6.563730e+04 0.000000e+00 0.000000e+00 0.000000e+00 0.000000e+00
-8.684727e+04 1.708267e+04 0.000000e+00 1.708267e+04 -6.820253e+04 0.000000e+00 0.000000e+00 0.000000e+00 0.000000e+00
-9.651492e+04 1.336756e+04 0.000000e+00 1.336756e+04 -6.559406e+04 0.000000e+00 0.000000e+00 0.000000e+00 0.000000e+00
-1.015499e+05 9.756702e+03 0.000000e+00 9.756702e+03 -6.362976e+04 0.000000e+00 0.000000e+00 0.000000e+00 0.000000e+00
-1.040353e+05 6.043716e+03 0.000000e+00 6.043716e+03 -6.179983e+04 0.000000e+00 0.000000e+00 0.000000e+00 0.000000e+00
-1.043478e+05 2.324278e+03 0.000000e+00 2.324278e+03 -6.024617e+04 0.000000e+00 0.000000e+00 0.000000e+00 0.000000e+00
-1.029893e+05 -9.301489e+02 0.000000e+00 -9.301489e+02 -5.919190e+04 0.000000e+00 0.000000e+00 0.000000e+00 0.000000e+00
-1.007578e+05 -3.165717e+03 0.000000e+00 -3.165717e+03 -5.874820e+04 0.000000e+00 0.000000e+00 0.000000e+00 0.000000e+00
-9.807863e+04 -3.960048e+03 0.000000e+00 -3.960048e+03 -5.889867e+04 0.000000e+00 0.000000e+00 0.000000e+00 0.000000e+00
-9.526090e+04 -2.911466e+03 0.000000e+00 -2.911466e+03 -5.939141e+04 0.000000e+00 0.000000e+00 0.000000e+00 0.000000e+00
-9.303501e+04 -1.622174e+03 0.000000e+00 -1.622174e+03 -5.919507e+04 0.000000e+00 0.000000e+00 0.000000e+00 0.000000e+00
-7.044052e+04 1.563822e+04 0.000000e+00 1.563822e+04 -6.363604e+04 0.000000e+00 0.000000e+00 0.000000e+00 0.000000e+00
-8.308531e+04 1.486103e+04 0.000000e+00 1.486103e+04 -6.558166e+04 0.000000e+00 0.000000e+00 0.000000e+00 0.000000e+00
-9.270123e+04 1.125646e+04 0.000000e+00 1.125646e+04 -6.319384e+04 0.000000e+00 0.000000e+00 0.000000e+00 0.000000e+00
-9.768263e+04 7.818523e+03 0.000000e+00 7.818523e+03 -6.148178e+04 0.000000e+00 0.000000e+00 0.000000e+00 0.000000e+00
-1.001372e+05 4.368703e+03 0.000000e+00 4.368703e+03 -6.003245e+04 0.000000e+00 0.000000e+00 0.000000e+00 0.000000e+00
-1.008035e+05 1.169307e+03 0.000000e+00 1.169307e+03 -5.899587e+04 0.000000e+00 0.000000e+00 0.000000e+00 0.000000e+00
-1.002567e+05 -1.435372e+03 0.000000e+00 -1.435372e+03 -5.845982e+04 0.000000e+00 0.000000e+00 0.000000e+00 0.000000e+00
-9.929827e+04 -3.009949e+03 0.000000e+00 -3.009949e+03 -5.846396e+04 0.000000e+00 0.000000e+00 0.000000e+00 0.000000e+00
-9.828394e+04 -3.327800e+03 0.000000e+00 -3.327800e+03 -5.884808e+04 0.000000e+00 0.000000e+00 0.000000e+00 0.000000e+00
-9.744160e+04 -2.264365e+03 0.000000e+00 -2.264365e+03 -5.941850e+04 0.000000e+00 0.000000e+00 0.000000e+00 0.000000e+00
-9.690459e+04 -1.159709e+03 0.000000e+00 -1.159709e+03 -5.960353e+04 0.000000e+00 0.000000e+00 0.000000e+00 0.000000e+00
-6.827025e+04 1.328746e+04 0.000000e+00 1.328746e+04 -6.283736e+04 0.000000e+00 0.000000e+00 0.000000e+00 0.000000e+00
-7.961127e+04 1.245246e+04 0.000000e+00 1.245246e+04 -6.403675e+04 0.000000e+00 0.000000e+00 0.000000e+00 0.000000e+00
-8.907695e+04 9.293422e+03 0.000000e+00 9.293422e+03 -6.177040e+04 0.000000e+00 0.000000e+00 0.000000e+00 0.000000e+00
-9.407102e+04 6.179080e+03 0.000000e+00 6.179080e+03 -6.017808e+04 0.000000e+00 0.000000e+00 0.000000e+00 0.000000e+00
-9.670259e+04 3.166569e+03 0.000000e+00 3.166569e+03 -5.895737e+04 0.000000e+00 0.000000e+00 0.000000e+00 0.000000e+00
-9.786034e+04 4.948818e+02 0.000000e+00 4.948818e+02 -5.825518e+04 0.000000e+00 0.000000e+00 0.000000e+00 0.000000e+00
-9.819730e+04 -1.495985e+03 0.000000e+00 -1.495985e+03 -5.808543e+04 0.000000e+00 0.000000e+00 0.000000e+00 0.000000e+00
-9.842239e+04 -2.550711e+03 0.000000e+00 -2.550711e+03 -5.838148e+04 0.000000e+00 0.000000e+00 0.000000e+00 0.000000e+00
-9.873390e+04 -2.589561e+03 0.000000e+00 -2.589561e+03 -5.890892e+04 0.000000e+00 0.000000e+00 0.000000e+00 0.000000e+00
-9.923507e+04 -1.644151e+03 0.000000e+00 -1.644151e+03 -5.948462e+04 0.000000e+00 0.000000e+00 0.000000e+00 0.000000e+00
-9.984787e+04 -7.503836e+02 0.000000e+00 -7.503836e+02 -5.991054e+04 0.000000e+00 0.000000e+00 0.000000e+00 0.000000e+00
-6.713488e+04 1.069677e+04 0.000000e+00 1.069677e+04 -6.299333e+04 0.000000e+00 0.000000e+00 0.000000e+00 0.000000e+00
-7.691195e+04 9.888517e+03 0.000000e+00 9.888517e+03 -6.337036e+04 0.000000e+00 0.000000e+00 0.000000e+00 0.000000e+00
-8.594241e+04 7.346888e+03 0.000000e+00 7.346888e+03 -6.119226e+04 0.000000e+00 0.000000e+00 0.000000e+00 0.000000e+00
-9.093346e+04 4.677444e+03 0.000000e+00 4.677444e+03 -5.959981e+04 0.000000e+00 0.000000e+00 0.000000e+00 0.000000e+00
-9.377544e+04 2.192164e+03 0.000000e+00 2.192164e+03 -5.851761e+04 0.000000e+00 0.000000e+00 0.000000e+00 0.000000e+00
-9.553276e+04 1.377209e+02 0.000000e+00 1.377209e+02 -5.801361e+04 0.000000e+00 0.000000e+00 0.000000e+00 0.000000e+00
-9.679457e+04 -1.277844e+03 0.000000e+00 -1.277844e+03 -5.801491e+04 0.000000e+00 0.000000e+00 0.000000e+00 0.000000e+00
-9.798816e+04 -1.925817e+03 0.000000e+00 -1.925817e+03 -5.844278e+04 0.000000e+00 0.000000e+00 0.000000e+00 0.000000e+00
-9.923340e+04 -1.832677e+03 0.000000e+00 -1.832677e+03 -5.905764e+04 0.000000e+00 0.000000e+00 0.000000e+00 0.000000e+00
-1.005392e+05 -1.096638e+03 0.000000e+00 -1.096638e+03 -5.961815e+04 0.000000e+00 0.000000e+00 0.000000e+00 0.000000e+00
-1.018401e+05 -4.408712e+02 0.000000e+00 -4.408712e+02 -6.016286e+04 0.000000e+00 0.000000e+00 0.000000e+00 0.000000e+00
-6.646768e+04 7.615793e+03 0.000000e+00 7.615793e+03 -6.394668e+04 0.000000e+00 0.000000e+00 0.000000e+00 0.000000e+00
-7.484234e+04 6.952351e+03 0.000000e+00 6.952351e+03 -6.357265e+04 0.000000e+00 0.000000e+00 0.000000e+00 0.000000e+00
-8.337837e+04 5.125176e+03 0.000000e+00 5.125176e+03 -6.116627e+04 0.000000e+00 0.000000e+00 0.000000e+00 0.000000e+00
-8.840876e+04 3.162188e+03 0.000000e+00 3.162188e+03 -5.942684e+04 0.000000e+00 0.000000e+00 0.000000e+00 0.000000e+00
-9.158120e+04 1.385032e+03 0.000000e+00 1.385032e+03 -5.840927e+04 0.000000e+00 0.000000e+00 0.000000e+00 0.000000e+00
-9.389622e+04 -1.388257e+01 0.000000e+00 -1.388257e+01 -5.803746e+04 0.000000e+00 0.000000e+00 0.000000e+00 0.000000e+00
-9.584952e+04 -9.080706e+02 0.000000e+00 -9.080706e+02 -5.817345e+04 0.000000e+00 0.000000e+00 0.000000e+00 0.000000e+00
-9.780141e+04 -1.261214e+03 0.000000e+00 -1.261214e+03 -5.863313e+04 0.000000e+00 0.000000e+00 0.000000e+00 0.000000e+00
-9.965941e+04 -1.138074e+03 0.000000e+00 -1.138074e+03 -5.922842e+04 0.000000e+00 0.000000e+00 0.000000e+00 0.000000e+00
-1.014479e+05 -6.430627e+02 0.000000e+00 -6.430627e+02 -5.971688e+04 0.000000e+00 0.000000e+00 0.000000e+00 0.000000e+00
-1.031259e+05 -2.268879e+02 0.000000e+00 -2.268879e+02 -6.031288e+04 0.000000e+00 0.000000e+00 0.000000e+00 0.000000e+00
-6.603850e+04 3.910694e+03 0.000000e+00 3.910694e+03 -6.474080e+04 0.000000e+00 0.000000e+00 0.000000e+00 0.000000e+00
-7.357865e+04 3.567156e+03 0.000000e+00 3.567156e+03 -6.398302e+04 0.000000e+00 0.000000e+00 0.000000e+00 0.000000e+00
-8.166642e+04 2.612549e+03 0.000000e+00 2.612549e+03 -6.130671e+04 0.000000e+00 0.000000e+00 0.000000e+00 0.000000e+00
-8.679477e+04 1.578398e+03 0.000000e+00 1.578398e+03 -5.946499e+04 0.000000e+00 0.000000e+00 0.000000e+00 0.000000e+00
-9.021262e+04 6.603549e+02 0.000000e+00 6.603549e+02 -5.848218e+04 0.000000e+00 0.000000e+00 0.000000e+00 0.000000e+00
-9.292551e+04 -3.287643e+01 0.000000e+00 -3.287643e+01 -5.817489e+04 0.000000e+00 0.000000e+00 0.000000e+00 0.000000e+00
-9.534098e+04 -4.606170e+02 0.000000e+00 -4.606170e+02 -5.837175e+04 0.000000e+00 0.000000e+00 0.000000e+00 0.000000e+00
-9.773042e+04 -6.168688e+02 0.000000e+00 -6.168688e+02 -5.884248e+04 0.000000e+00 0.000000e+00 0.000000e+00 0.000000e+00
-9.994282e+04 -5.364211e+02 0.000000e+00 -5.364211e+02 -5.938084e+04 0.000000e+00 0.000000e+00 0.000000e+00 0.000000e+00
-1.019925e+05 -2.850741e+02 0.000000e+00 -2.850741e+02 -5.979283e+04 0.000000e+00 0.000000e+00 0.000000e+00 0.000000e+00
-1.038400e+05 -7.662003e+01 0.000000e+00 -7.662003e+01 -6.041435e+04 0.000000e+00 0.000000e+00 0.000000e+00 0.000000e+00
-6.580073e+04 1.101202e+03 0.000000e+00 1.101202e+03 -6.478966e+04 0.000000e+00 0.000000e+00 0.000000e+00 0.000000e+00
-7.310766e+04 1.041818e+03 0.000000e+00 1.041818e+03 -6.400698e+04 0.000000e+00 0.000000e+00 0.000000e+00 0.000000e+00
-8.108201e+04 7.162878e+02 0.000000e+00 7.162878e+02 -6.134052e+04 0.000000e+00 0.000000e+00 0.000000e+00 0.000000e+00
-8.625848e+04 3.220956e+02 0.000000e+00 3.220956e+02 -5.951846e+04 0.000000e+00 0.000000e+00 0.000000e+00 0.000000e+00
-8.979148e+04 -3.254483e+01 0.000000e+00 -3.254483e+01 -5.857574e+04 0.000000e+00 0.000000e+00 0.000000e+00 0.000000e+00
-9.263426e+04 -2.859497e+02 0.000000e+00 -2.859497e+02 -5.830773e+04 0.000000e+00 0.000000e+00 0.000000e+00 0.000000e+00
-9.522585e+04 -4.468182e+02 0.000000e+00 -4.468182e+02 -5.850771e+04 0.000000e+00 0.000000e+00 0.000000e+00 0.000000e+00
-9.775500e+04 -5.095361e+02 0.000000e+00 -5.095361e+02 -5.896904e+04 0.000000e+00 0.000000e+00 0.000000e+00 0.000000e+00
-1.000899e+05 -4.744097e+02 0.000000e+00 -4.744097e+02 -5.947705e+04 0.000000e+00 0.000000e+00 0.000000e+00 0.000000e+00
-1.022038e+05 -3.531931e+02 0.000000e+00 -3.531931e+02 -5.985673e+04 0.000000e+00 0.000000e+00 0.000000e+00 0.000000e+00
-1.040909e+05 -2.510325e+02 0.000000e+00 -2.510325e+02 -6.047305e+04 0.000000e+00 0.000000e+00 0.000000e+00 0.000000e+00
</DataArray>
<DataArray Name="vol_eps" type="Float64" NumberOfComponents="1" format="ascii">
-1.382961e-02
-1.165002e-02
-9.432992e-03
-8.183898e-03
-7.650551e-03
-8.285029e-03
-9.884798e-03
-1.232655e-02
-1.566937e-02
-1.983788e-02
-1.997897e-02
-1.341309e-02
-1.083500e-02
-9.299284e-03
-8.555808e-03
-8.147922e-03
-8.240595e-03
-8.970896e-03
-1.049755e-02
-1.304076e-02
-1.640182e-02
-2.227335e-02
-1.119100e-02
-8.377152e-03
-7.520558e-03
-7.523241e-03
-7.632827e-03
-8.090508e-03
-8.868060e-03
-9.915783e-03
-1.031761e-02
-1.113387e-02
-1.596411e-02
-7.116159e-03
-5.413212e-03
-5.341224e-03
-5.750533e-03
-5.519711e-03
-4.742391e-03
-3.179579e-03
-1.004662e-03
2.825021e-03
7.901631e-03
1.270563e-02
-5.156982e-03
-4.795781e-03
-5.680074e-03
-6.354295e-03
-6.579497e-03
-6.526969e-03
-6.220745e-03
-5.662929e-03
-4.599649e-03
-2.716355e-03
5.746926e-04
-3.402936e-03
-3.869602e-03
-5.012515e-03
-5.458657e-03
-5.554500e-03
-5.421792e-03
-5.080037e-03
-4.512930e-03
-3.638440e-03
-2.008681e-03
3.852710e-04
-2.054024e-03
-3.200135e-03
-4.310998e-03
-4.677615e-03
-4.716775e-03
-4.506188e-03
-4.147870e-03
-3.638928e-03
-2.970455e-03
-1.778258e-03
-2.072196e-04
-1.103261e-03
-2.695373e-03
-3.754931e-03
-4.041173e-03
-4.002416e-03
-3.803959e-03
-3.476358e-03
-3.057894e-03
-2.577480e-03
-1.789061e-03
-7.677173e-04
-5.976536e-04
-2.332393e-03
-3.288156e-03
-3.480867e-03
-3.438342e-03
-3.280712e-03
-3.009266e-03
-2.702529e-03
-2.383832e-03
-1.908612e-03
-1.279207e-03
-4.239252e-04
-2.049941e-03
-2.845433e-03
-3.008370e-03
-3.008950e-03
-2.895257e-03
-2.696810e-03
-2.491148e-03
-2.312227e-03
-2.066220e-03
-1.721262e-03
-4.107901e-04
-1.808299e-03
-2.453575e-03
-2.631002e-03
-2.669392e-03
-2.605672e-03
-2.479502e-03
-2.366318e-03
-2.300813e-03
-2.213913e-03
-2.063619e-03
-4.546962e-04
-1.593875e-03
-2.137061e-03
-2.332955e-03
-2.401198e-03
-2.382654e-03
-2.318579e-03
-2.292410e-03
-2.314547e-03
-2.332984e-03
-2.313313e-03
-5.072685e-04
-1.411820e-03
-1.899540e-03
-2.104639e-03
-2.189139e-03
-2.204086e-03
-2.208867e-03
-2.260077e-03
-2.342381e-03
-2.424477e-03
-2.491394e-03
-5.544865e-04
-1.260572e-03
-1.717124e-03
-1.918810e-03
-2.013591e-03
-2.077621e-03
-2.149320e-03
-2.253389e-03
-2.376648e-03
-2.490325e-03
-2.605226e-03
-6.279363e-04
-1.161420e-03
-1.563579e-03
-1.769506e-03
-1.889057e-03
-1.998803e-03
-2.121071e-03
-2.263943e-03
-2.410251e-03
-2.534209e-03
-2.671436e-03
-6.830535e-04
-1.115878e-03
-1.462474e-03
-1.675584e-03
-1.821529e-03
-1.958351e-03
-2.111609e-03
-2.279520e-03
-2.436551e-03
-2.562490e-03
-2.709485e-03
-6.786929e-04
-1.090225e-03
-1.425810e-03
-1.649216e-03
-1.809430e-03
-1.955556e-03
-2.118186e-03
-2.293061e-03
-2.453040e-03
-2.578021e-03
-2.726199e-03
</DataArray>
</PointData>
</Piece>
</UnstructuredGrid>
</VTKFile>
