<?xml version="1.0"?>
<VTKFile type="UnstructuredGrid" version="0.1">
<UnstructuredGrid>
<FieldData>
<DataArray Name="TIME" type="Float64" format="ascii" NumberOfTuples="1">
0.000000e+00
</DataArray>
</FieldData>
<FieldData>
<DataArray Name="CYCLE" type="Int32" format="ascii" NumberOfTuples="1">
0
</DataArray>
</FieldData>
<Piece NumberOfPoints="187" NumberOfCells="160">
<Points>
<DataArray NumberOfComponents="3" type="Float64" format="ascii">
0.000000e+00 0.000000e+00 0.000000e+00
0.000000e+00 1.990372e-01 0.000000e+00
0.000000e+00 3.977886e-01 0.000000e+00
0.000000e+00 5.962292e-01 0.000000e+00
0.000000e+00 7.943689e-01 0.000000e+00
0.000000e+00 9.922723e-01 0.000000e+00
0.000000e+00 1.190022e+00 0.000000e+00
0.000000e+00 1.387708e+00 0.000000e+00
0.000000e+00 1.585495e+00 0.000000e+00
0.000000e+00 1.783649e+00 0.000000e+00
0.000000e+00 1.982000e+00 0.000000e+00
2.250000e-01 0.000000e+00 0.000000e+00
2.253320e-01 1.990836e-01 0.000000e+00
2.256592e-01 3.979109e-01 0.000000e+00
2.259689e-01 5.964733e-01 0.000000e+00
2.262180e-01 7.947667e-01 0.000000e+00
2.263572e-01 9.928066e-01 0.000000e+00
2.263601e-01 1.190649e+00 0.000000e+00
2.262016e-01 1.388366e+00 0.000000e+00
2.258038e-01 1.586041e+00 0.000000e+00
2.251933e-01 1.783797e+00 0.000000e+00
2.250000e-01 1.982000e+00 0.000000e+00
4.500000e-01 0.000000e+00 0.000000e+00
4.506117e-01 1.991805e-01 0.000000e+00
4.511777e-01 3.981892e-01 0.000000e+00
4.517019e-01 5.970386e-01 0.000000e+00
4.521448e-01 7.957288e-01 0.000000e+00
4.524601e-01 9.942386e-01 0.000000e+00
4.525949e-01 1.192515e+00 0.000000e+00
4.524829e-01 1.390497e+00 0.000000e+00
4.520834e-01 1.588118e+00 0.000000e+00
4.513798e-01 1.785275e+00 0.000000e+00
4.500000e-01 1.982000e+00 0.000000e+00
6.750000e-01 0.000000e+00 0.000000e+00
6.758003e-01 1.993065e-01 0.000000e+00
6.764881e-01 3.985379e-01 0.000000e+00
6.770818e-01 5.977299e-01 0.000000e+00
6.775785e-01 7.969131e-01 0.000000e+00
6.779594e-01 9.961160e-01 0.000000e+00
6.781886e-01 1.195384e+00 0.000000e+00
6.782266e-01 1.394765e+00 0.000000e+00
6.780716e-01 1.594301e+00 0.000000e+00
6.775768e-01 1.794115e+00 0.000000e+00
6.754161e-01 1.994582e+00 0.000000e+00
9.000000e-01 0.000000e+00 0.000000e+00
9.008883e-01 1.994488e-01 0.000000e+00
9.015913e-01 3.988928e-01 0.000000e+00
9.021604e-01 5.983567e-01 0.000000e+00
9.026063e-01 7.978612e-01 0.000000e+00
9.029174e-01 9.974272e-01 0.000000e+00
9.030610e-01 1.197076e+00 0.000000e+00
9.030034e-01 1.396832e+00 0.000000e+00
9.027068e-01 1.596733e+00 0.000000e+00
9.018959e-01 1.796818e+00 0.000000e+00
9.004183e-01 1.996764e+00 0.000000e+00
1.125000e+00 0.000000e+00 0.000000e+00
1.125891e+00 1.995893e-01 0.000000e+00
1.126557e+00 3.992080e-01 0.000000e+00
1.127070e+00 5.988662e-01 0.000000e+00
1.127450e+00 7.985744e-01 0.000000e+00
1.127688e+00 9.983456e-01 0.000000e+00
1.127761e+00 1.198191e+00 0.000000e+00
1.127638e+00 1.398121e+00 0.000000e+00
1.127267e+00 1.598141e+00 0.000000e+00
1.126573e+00 1.798195e+00 0.000000e+00
1.125628e+00 1.998210e+00 0.000000e+00
1.350000e+00 0.000000e+00 0.000000e+00
1.350830e+00 1.997061e-01 0.000000e+00
1.351438e+00 3.994555e-01 0.000000e+00
1.351894e+00 5.992474e-01 0.000000e+00
1.352214e+00 7.990881e-01 0.000000e+00
1.352394e+00 9.989839e-01 0.000000e+00
1.352420e+00 1.198938e+00 0.000000e+00
1.352271e+00 1.398949e+00 0.000000e+00
1.351927e+00 1.599002e+00 0.000000e+00
1.351393e+00 1.799061e+00 0.000000e+00
1.350774e+00 1.999061e+00 0.000000e+00
1.575000e+00 0.000000e+00 0.000000e+00
1.575736e+00 1.997933e-01 0.000000e+00
1.576278e+00 3.996353e-01 0.000000e+00
1.576676e+00 5.995203e-01 0.000000e+00
1.576944e+00 7.994491e-01 0.000000e+00
1.577083e+00 9.994214e-01 0.000000e+00
1.577085e+00 1.199436e+00 0.000000e+00
1.576941e+00 1.399486e+00 0.000000e+00
1.576657e+00 1.599554e+00 0.000000e+00
1.576269e+00 1.799606e+00 0.000000e+00
1.575863e+00 1.999614e+00 0.000000e+00
1.800000e+00 0.000000e+00 0.000000e+00
1.800628e+00 1.998567e-01 0.000000e+00
1.801100e+00 3.997636e-01 0.000000e+00
1.801443e+00 5.997106e-01 0.000000e+00
1.801669e+00 7.996945e-01 0.000000e+00
1.801779e+00 9.997132e-01 0.000000e+00
1.801772e+00 1.199762e+00 0.000000e+00
1.801652e+00 1.399831e+00 0.000000e+00
1.801434e+00 1.599901e+00 0.000000e+00
1.801161e+00 1.799952e+00 0.000000e+00
1.800898e+00 1.999967e+00 0.000000e+00
2.025000e+00 0.000000e+00 0.000000e+00
2.025521e+00 1.999011e-01 0.000000e+00
2.025922e+00 3.998499e-01 0.000000e+00
2.026214e+00 5.998362e-01 0.000000e+00
2.026404e+00 7.998549e-01 0.000000e+00
2.026494e+00 9.999015e-01 0.000000e+00
2.026487e+00 1.199968e+00 0.000000e+00
2.026395e+00 1.400044e+00 0.000000e+00
2.026237e+00 1.600114e+00 0.000000e+00
2.026050e+00 1.800165e+00 0.000000e+00
2.025887e+00 2.000189e+00 0.000000e+00
2.250000e+00 0.000000e+00 0.000000e+00
2.250422e+00 1.999308e-01 0.000000e+00
2.250753e+00 3.999056e-01 0.000000e+00
2.250998e+00 5.999162e-01 0.000000e+00
2.251155e+00 7.999558e-01 0.000000e+00
2.251230e+00 1.000017e+00 0.000000e+00
2.251228e+00 1.200091e+00 0.000000e+00
2.251163e+00 1.400168e+00 0.000000e+00
2.251053e+00 1.600238e+00 0.000000e+00
2.250931e+00 1.800290e+00 0.000000e+00
2.250835e+00 2.000322e+00 0.000000e+00
2.475000e+00 0.000000e+00 0.000000e+00
2.475332e+00 1.999501e-01 0.000000e+00
2.475599e+00 3.999417e-01 0.000000e+00
2.475798e+00 5.999660e-01 0.000000e+00
2.475926e+00 8.000158e-01 0.000000e+00
2.475988e+00 1.000083e+00 0.000000e+00
2.475992e+00 1.200160e+00 0.000000e+00
2.475948e+00 1.400236e+00 0.000000e+00
2.475876e+00 1.600305e+00 0.000000e+00
2.475799e+00 1.800360e+00 0.000000e+00
2.475749e+00 2.000399e+00 0.000000e+00
2.700000e+00 0.000000e+00 0.000000e+00
2.700253e+00 1.999629e-01 0.000000e+00
2.700460e+00 3.999636e-01 0.000000e+00
2.700615e+00 5.999955e-01 0.000000e+00
2.700716e+00 8.000507e-01 0.000000e+00
2.700767e+00 1.000120e+00 0.000000e+00
2.700773e+00 1.200197e+00 0.000000e+00
2.700747e+00 1.400272e+00 0.000000e+00
2.700701e+00 1.600340e+00 0.000000e+00
2.700655e+00 1.800396e+00 0.000000e+00
2.700633e+00 2.000443e+00 0.000000e+00
2.925000e+00 0.000000e+00 0.000000e+00
2.925184e+00 1.999716e-01 0.000000e+00
2.925334e+00 3.999785e-01 0.000000e+00
2.925447e+00 6.000146e-01 0.000000e+00
2.925523e+00 8.000720e-01 0.000000e+00
2.925561e+00 1.000142e+00 0.000000e+00
2.925569e+00 1.200217e+00 0.000000e+00
2.925554e+00 1.400290e+00 0.000000e+00
2.925527e+00 1.600358e+00 0.000000e+00
2.925501e+00 1.800416e+00 0.000000e+00
2.925494e+00 2.000467e+00 0.000000e+00
3.150000e+00 0.000000e+00 0.000000e+00
3.150121e+00 1.999792e-01 0.000000e+00
3.150219e+00 3.999906e-01 0.000000e+00
3.150292e+00 6.000292e-01 0.000000e+00
3.150342e+00 8.000879e-01 0.000000e+00
3.150368e+00 1.000158e+00 0.000000e+00
3.150374e+00 1.200232e+00 0.000000e+00
3.150367e+00 1.400304e+00 0.000000e+00
3.150352e+00 1.600371e+00 0.000000e+00
3.150339e+00 1.800431e+00 0.000000e+00
3.150338e+00 2.000485e+00 0.000000e+00
3.375000e+00 0.000000e+00 0.000000e+00
3.375062e+00 1.999859e-01 0.000000e+00
3.375109e+00 4.000036e-01 0.000000e+00
3.375144e+00 6.000458e-01 0.000000e+00
3.375169e+00 8.001055e-01 0.000000e+00
3.375182e+00 1.000175e+00 0.000000e+00
3.375186e+00 1.200249e+00 0.000000e+00
3.375182e+00 1.400320e+00 0.000000e+00
3.375176e+00 1.600387e+00 0.000000e+00
3.375171e+00 1.800448e+00 0.000000e+00
3.375172e+00 2.000505e+00 0.000000e+00
3.600000e+00 0.000000e+00 0.000000e+00
3.600000e+00 2.000018e-01 0.000000e+00
3.600000e+00 4.000251e-01 0.000000e+00
3.600000e+00 6.000690e-01 0.000000e+00
3.600000e+00 8.001293e-01 0.000000e+00
3.600000e+00 1.000199e+00 0.000000e+00
3.600000e+00 1.200272e+00 0.000000e+00
3.600000e+00 1.400344e+00 0.000000e+00
3.600000e+00 1.600410e+00 0.000000e+00
3.600000e+00 1.800471e+00 0.000000e+00
3.600000e+00 2.000529e+00 0.000000e+00
</DataArray>
</Points>
<Cells>
<DataArray Name="connectivity" type="Int32" format="ascii">
0 11 12 1
1 12 13 2
2 13 14 3
3 14 15 4
4 15 16 5
5 16 17 6
6 17 18 7
7 18 19 8
8 19 20 9
9 20 21 10
11 22 23 12
12 23 24 13
13 24 25 14
14 25 26 15
15 26 27 16
16 27 28 17
17 28 29 18
18 29 30 19
19 30 31 20
20 31 32 21
22 33 34 23
23 34 35 24
24 35 36 25
25 36 37 26
26 37 38 27
27 38 39 28
28 39 40 29
29 40 41 30
30 41 42 31
31 42 43 32
33 44 45 34
34 45 46 35
35 46 47 36
36 47 48 37
37 48 49 38
38 49 50 39
39 50 51 40
40 51 52 41
41 52 53 42
42 53 54 43
44 55 56 45
45 56 57 46
46 57 58 47
47 58 59 48
48 59 60 49
49 60 61 50
50 61 62 51
51 62 63 52
52 63 64 53
53 64 65 54
55 66 67 56
56 67 68 57
57 68 69 58
58 69 70 59
59 70 71 60
60 71 72 61
61 72 73 62
62 73 74 63
63 74 75 64
64 75 76 65
66 77 78 67
67 78 79 68
68 79 80 69
69 80 81 70
70 81 82 71
71 82 83 72
72 83 84 73
73 84 85 74
74 85 86 75
75 86 87 76
77 88 89 78
78 89 90 79
79 90 91 80
80 91 92 81
81 92 93 82
82 93 94 83
83 94 95 84
84 95 96 85
85 96 97 86
86 97 98 87
88 99 100 89
89 100 101 90
90 101 102 91
91 102 103 92
92 103 104 93
93 104 105 94
94 105 106 95
95 106 107 96
96 107 108 97
97 108 109 98
99 110 111 100
100 111 112 101
101 112 113 102
102 113 114 103
103 114 115 104
104 115 116 105
105 116 117 106
106 117 118 107
107 118 119 108
108 119 120 109
110 121 122 111
111 122 123 112
112 123 124 113
113 124 125 114
114 125 126 115
115 126 127 116
116 127 128 117
117 128 129 118
118 129 130 119
119 130 131 120
121 132 133 122
122 133 134 123
123 134 135 124
124 135 136 125
125 136 137 126
126 137 138 127
127 138 139 128
128 139 140 129
129 140 141 130
130 141 142 131
132 143 144 133
133 144 145 134
134 145 146 135
135 146 147 136
136 147 148 137
137 148 149 138
138 149 150 139
139 150 151 140
140 151 152 141
141 152 153 142
143 154 155 144
144 155 156 145
145 156 157 146
146 157 158 147
147 158 159 148
148 159 160 149
149 160 161 150
150 161 162 151
151 162 163 152
152 163 164 153
154 165 166 155
155 166 167 156
156 167 168 157
157 168 169 158
158 169 170 159
159 170 171 160
160 171 172 161
161 172 173 162
162 173 174 163
163 174 175 164
165 176 177 166
166 177 178 167
167 178 179 168
168 179 180 169
169 180 181 170
170 181 182 171
171 182 183 172
172 183 184 173
173 184 185 174
174 185 186 175
</DataArray>
<DataArray Name="offsets" type="Int32" format="ascii">
4
8
12
16
20
24
28
32
36
40
44
48
52
56
60
64
68
72
76
80
84
88
92
96
100
104
108
112
116
120
124
128
132
136
140
144
148
152
156
160
164
168
172
176
180
184
188
192
196
200
204
208
212
216
220
224
228
232
236
240
244
248
252
256
260
264
268
272
276
280
284
288
292
296
300
304
308
312
316
320
324
328
332
336
340
344
348
352
356
360
364
368
372
376
380
384
388
392
396
400
404
408
412
416
420
424
428
432
436
440
444
448
452
456
460
464
468
472
476
480
484
488
492
496
500
504
508
512
516
520
524
528
532
536
540
544
548
552
556
560
564
568
572
576
580
584
588
592
596
600
604
608
612
616
620
624
628
632
636
640
</DataArray>
<DataArray Name="types" type="UInt8" format="ascii">
9
9
9
9
9
9
9
9
9
9
9
9
9
9
9
9
9
9
9
9
9
9
9
9
9
9
9
9
9
9
9
9
9
9
9
9
9
9
9
9
9
9
9
9
9
9
9
9
9
9
9
9
9
9
9
9
9
9
9
9
9
9
9
9
9
9
9
9
9
9
9
9
9
9
9
9
9
9
9
9
9
9
9
9
9
9
9
9
9
9
9
9
9
9
9
9
9
9
9
9
9
9
9
9
9
9
9
9
9
9
9
9
9
9
9
9
9
9
9
9
9
9
9
9
9
9
9
9
9
9
9
9
9
9
9
9
9
9
9
9
9
9
9
9
9
9
9
9
9
9
9
9
9
9
9
9
9
9
9
9
</DataArray>
</Cells>
<PointData>
<DataArray Name="disp" type="Float64" NumberOfComponents="3" format="ascii">
0.000000e+00 0.000000e+00 0.000000e+00
0.000000e+00 -9.628325e-04 0.000000e+00
0.000000e+00 -2.211347e-03 0.000000e+00
0.000000e+00 -3.770808e-03 0.000000e+00
0.000000e+00 -5.631113e-03 0.000000e+00
0.000000e+00 -7.727765e-03 0.000000e+00
0.000000e+00 -9.978259e-03 0.000000e+00
0.000000e+00 -1.229190e-02 0.000000e+00
0.000000e+00 -1.450486e-02 0.000000e+00
0.000000e+00 -1.635134e-02 0.000000e+00
0.000000e+00 -1.800000e-02 0.000000e+00
0.000000e+00 0.000000e+00 0.000000e+00
3.319595e-04 -9.163528e-04 0.000000e+00
6.591581e-04 -2.089108e-03 0.000000e+00
9.688988e-04 -3.526713e-03 0.000000e+00
1.217956e-03 -5.233308e-03 0.000000e+00
1.357234e-03 -7.193447e-03 0.000000e+00
1.360114e-03 -9.351026e-03 0.000000e+00
1.201642e-03 -1.163414e-02 0.000000e+00
8.038182e-04 -1.395899e-02 0.000000e+00
1.933377e-04 -1.620265e-02 0.000000e+00
0.000000e+00 -1.800000e-02 0.000000e+00
0.000000e+00 0.000000e+00 0.000000e+00
6.117124e-04 -8.194551e-04 0.000000e+00
1.177700e-03 -1.810845e-03 0.000000e+00
1.701926e-03 -2.961450e-03 0.000000e+00
2.144824e-03 -4.271198e-03 0.000000e+00
2.460147e-03 -5.761373e-03 0.000000e+00
2.594872e-03 -7.484654e-03 0.000000e+00
2.482871e-03 -9.502714e-03 0.000000e+00
2.083428e-03 -1.188166e-02 0.000000e+00
1.379837e-03 -1.472500e-02 0.000000e+00
0.000000e+00 -1.800000e-02 0.000000e+00
0.000000e+00 0.000000e+00 0.000000e+00
8.002999e-04 -6.934491e-04 0.000000e+00
1.488107e-03 -1.462074e-03 0.000000e+00
2.081808e-03 -2.270118e-03 0.000000e+00
2.578523e-03 -3.086837e-03 0.000000e+00
2.959365e-03 -3.883931e-03 0.000000e+00
3.188643e-03 -4.616126e-03 0.000000e+00
3.226678e-03 -5.234987e-03 0.000000e+00
3.071623e-03 -5.699254e-03 0.000000e+00
2.576840e-03 -5.885237e-03 0.000000e+00
4.161110e-04 -5.418299e-03 0.000000e+00
0.000000e+00 0.000000e+00 0.000000e+00
8.883403e-04 -5.512085e-04 0.000000e+00
1.591307e-03 -1.107202e-03 0.000000e+00
2.160416e-03 -1.643274e-03 0.000000e+00
2.606319e-03 -2.138869e-03 0.000000e+00
2.917378e-03 -2.572855e-03 0.000000e+00
3.060946e-03 -2.923864e-03 0.000000e+00
3.003417e-03 -3.168196e-03 0.000000e+00
2.706807e-03 -3.267077e-03 0.000000e+00
1.895934e-03 -3.181907e-03 0.000000e+00
4.183245e-04 -3.235932e-03 0.000000e+00
0.000000e+00 0.000000e+00 0.000000e+00
8.909355e-04 -4.107090e-04 0.000000e+00
1.556769e-03 -7.919504e-04 0.000000e+00
2.070292e-03 -1.133859e-03 0.000000e+00
2.450255e-03 -1.425530e-03 0.000000e+00
2.688006e-03 -1.654465e-03 0.000000e+00
2.760639e-03 -1.808870e-03 0.000000e+00
2.638391e-03 -1.879336e-03 0.000000e+00
2.266567e-03 -1.859388e-03 0.000000e+00
1.572799e-03 -1.804487e-03 0.000000e+00
6.275137e-04 -1.790148e-03 0.000000e+00
0.000000e+00 0.000000e+00 0.000000e+00
8.304906e-04 -2.939193e-04 0.000000e+00
1.437998e-03 -5.445148e-04 0.000000e+00
1.893875e-03 -7.526166e-04 0.000000e+00
2.213725e-03 -9.119009e-04 0.000000e+00
2.394067e-03 -1.016053e-03 0.000000e+00
2.419995e-03 -1.062156e-03 0.000000e+00
2.271193e-03 -1.051390e-03 0.000000e+00
1.926583e-03 -9.977461e-04 0.000000e+00
1.392485e-03 -9.388532e-04 0.000000e+00
7.736202e-04 -9.392722e-04 0.000000e+00
0.000000e+00 0.000000e+00 0.000000e+00
7.359462e-04 -2.066596e-04 0.000000e+00
1.277841e-03 -3.646784e-04 0.000000e+00
1.675797e-03 -4.797381e-04 0.000000e+00
1.944317e-03 -5.509342e-04 0.000000e+00
2.083328e-03 -5.786495e-04 0.000000e+00
2.084617e-03 -5.639395e-04 0.000000e+00
1.941493e-03 -5.135609e-04 0.000000e+00
1.657405e-03 -4.461747e-04 0.000000e+00
1.269111e-03 -3.939604e-04 0.000000e+00
8.629042e-04 -3.862682e-04 0.000000e+00
0.000000e+00 0.000000e+00 0.000000e+00
6.283813e-04 -1.433051e-04 0.000000e+00
1.099944e-03 -2.364269e-04 0.000000e+00
1.443059e-03 -2.893285e-04 0.000000e+00
1.669266e-03 -3.054887e-04 0.000000e+00
1.779411e-03 -2.867911e-04 0.000000e+00
1.771996e-03 -2.378063e-04 0.000000e+00
1.651538e-03 -1.692924e-04 0.000000e+00
1.434341e-03 -9.906328e-05 0.000000e+00
1.160721e-03 -4.832392e-05 0.000000e+00
8.983974e-04 -3.318442e-05 0.000000e+00
0.000000e+00 0.000000e+00 0.000000e+00
5.213875e-04 -9.892755e-05 0.000000e+00
9.217167e-04 -1.501267e-04 0.000000e+00
1.213916e-03 -1.637756e-04 0.000000e+00
1.403623e-03 -1.450922e-04 0.000000e+00
1.493553e-03 -9.850299e-05 0.000000e+00
1.487122e-03 -3.205445e-05 0.000000e+00
1.394774e-03 4.356083e-05 0.000000e+00
1.236929e-03 1.137473e-04 0.000000e+00
1.050343e-03 1.648195e-04 0.000000e+00
8.872004e-04 1.885050e-04 0.000000e+00
0.000000e+00 0.000000e+00 0.000000e+00
4.217498e-04 -6.920561e-05 0.000000e+00
7.531203e-04 -9.441275e-05 0.000000e+00
9.976145e-04 -8.380035e-05 0.000000e+00
1.154708e-03 -4.423492e-05 0.000000e+00
1.229613e-03 1.674595e-05 0.000000e+00
1.228422e-03 9.103095e-05 0.000000e+00
1.162559e-03 1.682175e-04 0.000000e+00
1.053166e-03 2.376347e-04 0.000000e+00
9.306619e-04 2.904010e-04 0.000000e+00
8.350619e-04 3.222566e-04 0.000000e+00
0.000000e+00 0.000000e+00 0.000000e+00
3.320908e-04 -4.990711e-05 0.000000e+00
5.988670e-04 -5.829336e-05 0.000000e+00
7.975519e-04 -3.402784e-05 0.000000e+00
9.256982e-04 1.582228e-05 0.000000e+00
9.880788e-04 8.325060e-05 0.000000e+00
9.918383e-04 1.598494e-04 0.000000e+00
9.483389e-04 2.364381e-04 0.000000e+00
8.759393e-04 3.051574e-04 0.000000e+00
7.990649e-04 3.599446e-04 0.000000e+00
7.484313e-04 3.994121e-04 0.000000e+00
0.000000e+00 0.000000e+00 0.000000e+00
2.530882e-04 -3.708153e-05 0.000000e+00
4.599159e-04 -3.639377e-05 0.000000e+00
6.147714e-04 -4.519830e-06 0.000000e+00
7.159560e-04 5.065244e-05 0.000000e+00
7.666065e-04 1.203957e-04 0.000000e+00
7.735400e-04 1.965171e-04 0.000000e+00
7.467155e-04 2.716958e-04 0.000000e+00
7.010585e-04 3.395444e-04 0.000000e+00
6.555284e-04 3.963254e-04 0.000000e+00
6.325462e-04 4.424517e-04 0.000000e+00
0.000000e+00 0.000000e+00 0.000000e+00
1.834995e-04 -2.844168e-05 0.000000e+00
3.343573e-04 -2.147643e-05 0.000000e+00
4.473613e-04 1.459109e-05 0.000000e+00
5.226091e-04 7.193259e-05 0.000000e+00
5.614724e-04 1.419257e-04 0.000000e+00
5.690256e-04 2.168783e-04 0.000000e+00
5.537302e-04 2.903941e-04 0.000000e+00
5.266563e-04 3.575297e-04 0.000000e+00
5.014240e-04 4.160496e-04 0.000000e+00
4.937308e-04 4.673072e-04 0.000000e+00
0.000000e+00 0.000000e+00 0.000000e+00
1.208111e-04 -2.078797e-05 0.000000e+00
2.189953e-04 -9.409515e-06 0.000000e+00
2.921374e-04 2.923848e-05 0.000000e+00
3.417424e-04 8.788304e-05 0.000000e+00
3.681453e-04 1.578687e-04 0.000000e+00
3.744557e-04 2.318133e-04 0.000000e+00
3.664471e-04 3.040571e-04 0.000000e+00
3.516985e-04 3.707952e-04 0.000000e+00
3.390340e-04 4.306050e-04 0.000000e+00
3.381571e-04 4.854409e-04 0.000000e+00
0.000000e+00 0.000000e+00 0.000000e+00
6.180696e-05 -1.411247e-05 0.000000e+00
1.089361e-04 3.627940e-06 0.000000e+00
1.445129e-04 4.579330e-05 0.000000e+00
1.689717e-04 1.054385e-04 0.000000e+00
1.823530e-04 1.753636e-04 0.000000e+00
1.859022e-04 2.488537e-04 0.000000e+00
1.824235e-04 3.204634e-04 0.000000e+00
1.760641e-04 3.869416e-04 0.000000e+00
1.709590e-04 4.475701e-04 0.000000e+00
1.716924e-04 5.046219e-04 0.000000e+00
0.000000e+00 0.000000e+00 0.000000e+00
0.000000e+00 1.830796e-06 0.000000e+00
0.000000e+00 2.507647e-05 0.000000e+00
0.000000e+00 6.901684e-05 0.000000e+00
0.000000e+00 1.293202e-04 0.000000e+00
0.000000e+00 1.991725e-04 0.000000e+00
0.000000e+00 2.724603e-04 0.000000e+00
0.000000e+00 3.438370e-04 0.000000e+00
0.000000e+00 4.102603e-04 0.000000e+00
0.000000e+00 4.712169e-04 0.000000e+00
0.000000e+00 5.289866e-04 0.000000e+00
</DataArray>
<DataArray Name="shear" type="Float64" NumberOfComponents="1" format="ascii">
5.275941e-03
6.954888e-03
9.852714e-03
1.270331e-02
1.515669e-02
1.682684e-02
1.747428e-02
1.676376e-02
1.410293e-02
1.040170e-02
8.812061e-03
5.292026e-03
6.798677e-03
9.361687e-03
1.189939e-02
1.424953e-02
1.616796e-02
1.737932e-02
1.755505e-02
1.640733e-02
1.365956e-02
1.117895e-02
5.436385e-03
6.486551e-03
8.233789e-03
1.001551e-02
1.194368e-02
1.414538e-02
1.663619e-02
1.941301e-02
2.251668e-02
2.441972e-02
2.455104e-02
5.516690e-03
6.025562e-03
6.806425e-03
7.664531e-03
8.709544e-03
1.007716e-02
1.193617e-02
1.458504e-02
1.797867e-02
1.978557e-02
2.097291e-02
5.388767e-03
5.458979e-03
5.504231e-03
5.710416e-03
5.996026e-03
6.286293e-03
6.503785e-03
6.597629e-03
6.076113e-03
3.728173e-03
1.094593e-03
5.027454e-03
4.827569e-03
4.463886e-03
4.348991e-03
4.309634e-03
4.248300e-03
4.097400e-03
3.765004e-03
2.965907e-03
1.352768e-03
2.237138e-04
4.496307e-03
4.178182e-03
3.653238e-03
3.398025e-03
3.227576e-03
3.053705e-03
2.814864e-03
2.439403e-03
1.801873e-03
7.647459e-04
1.259306e-04
3.889580e-03
3.563629e-03
3.035271e-03
2.744715e-03
2.544770e-03
2.361888e-03
2.149207e-03
1.848320e-03
1.373697e-03
6.322262e-04
9.056313e-05
3.274461e-03
2.994746e-03
2.544986e-03
2.281405e-03
2.106457e-03
1.963711e-03
1.806255e-03
1.576179e-03
1.208630e-03
6.483325e-04
2.192127e-04
2.692302e-03
2.472215e-03
2.129243e-03
1.929711e-03
1.811819e-03
1.722509e-03
1.612196e-03
1.433915e-03
1.141643e-03
7.066254e-04
3.877432e-04
2.164610e-03
2.002163e-03
1.771915e-03
1.653075e-03
1.597109e-03
1.556617e-03
1.484093e-03
1.344636e-03
1.111389e-03
7.788938e-04
5.519713e-04
1.698442e-03
1.586570e-03
1.458467e-03
1.423120e-03
1.428581e-03
1.429546e-03
1.387416e-03
1.279851e-03
1.097458e-03
8.534314e-04
7.005180e-04
1.291774e-03
1.221798e-03
1.185237e-03
1.233791e-03
1.296829e-03
1.329827e-03
1.310783e-03
1.230172e-03
1.091958e-03
9.228743e-04
8.274578e-04
9.364936e-04
9.042386e-04
9.581932e-04
1.085521e-03
1.197159e-03
1.254964e-03
1.252612e-03
1.193346e-03
1.091913e-03
9.811596e-04
9.267544e-04
6.179534e-04
6.282252e-04
7.846821e-04
9.816830e-04
1.129351e-03
1.204808e-03
1.213495e-03
1.169885e-03
1.095785e-03
1.025298e-03
9.975785e-04
3.245606e-04
4.197612e-04
6.873376e-04
9.255018e-04
1.090834e-03
1.177132e-03
1.193469e-03
1.159247e-03
1.101715e-03
1.054255e-03
1.040805e-03
1.467479e-04
3.449240e-04
6.577330e-04
9.057025e-04
1.076659e-03
1.167659e-03
1.187946e-03
1.157594e-03
1.105926e-03
1.065183e-03
1.055456e-03
</DataArray>
<DataArray Name="stress" type="Float64" NumberOfComponents="9" format="ascii">
-7.647466e+04 1.589049e+03 0.000000e+00 1.589049e+03 -1.094477e+05 0.000000e+00 0.000000e+00 0.000000e+00 0.000000e+00
-7.178866e+04 1.715308e+03 0.000000e+00 1.715308e+03 -1.100598e+05 0.000000e+00 0.000000e+00 0.000000e+00 0.000000e+00
-6.899859e+04 2.084079e+03 0.000000e+00 2.084079e+03 -1.143588e+05 0.000000e+00 0.000000e+00 0.000000e+00 0.000000e+00
-6.887662e+04 2.588752e+03 0.000000e+00 2.588752e+03 -1.191881e+05 0.000000e+00 0.000000e+00 0.000000e+00 0.000000e+00
-7.001027e+04 3.224629e+03 0.000000e+00 3.224629e+03 -1.247139e+05 0.000000e+00 0.000000e+00 0.000000e+00 0.000000e+00
-7.200259e+04 3.815812e+03 0.000000e+00 3.815812e+03 -1.311485e+05 0.000000e+00 0.000000e+00 0.000000e+00 0.000000e+00
-7.520552e+04 4.066737e+03 0.000000e+00 4.066737e+03 -1.379567e+05 0.000000e+00 0.000000e+00 0.000000e+00 0.000000e+00
-7.998622e+04 3.738178e+03 0.000000e+00 3.738178e+03 -1.441220e+05 0.000000e+00 0.000000e+00 0.000000e+00 0.000000e+00
-8.622994e+04 2.331578e+03 0.000000e+00 2.331578e+03 -1.482768e+05 0.000000e+00 0.000000e+00 0.000000e+00 0.000000e+00
-9.442791e+04 1.115940e+02 0.000000e+00 1.115940e+02 -1.508062e+05 0.000000e+00 0.000000e+00 0.000000e+00 0.000000e+00
-9.783003e+04 -5.370114e+02 0.000000e+00 -5.370114e+02 -1.499524e+05 0.000000e+00 0.000000e+00 0.000000e+00 0.000000e+00
-7.610580e+04 4.681233e+03 0.000000e+00 4.681233e+03 -1.072780e+05 0.000000e+00 0.000000e+00 0.000000e+00 0.000000e+00
-7.177798e+04 4.703280e+03 0.000000e+00 4.703280e+03 -1.077763e+05 0.000000e+00 0.000000e+00 0.000000e+00 0.000000e+00
-6.925655e+04 5.060227e+03 0.000000e+00 5.060227e+03 -1.117494e+05 0.000000e+00 0.000000e+00 0.000000e+00 0.000000e+00
-6.926188e+04 5.823266e+03 0.000000e+00 5.823266e+03 -1.162076e+05 0.000000e+00 0.000000e+00 0.000000e+00 0.000000e+00
-7.058195e+04 6.787489e+03 0.000000e+00 6.787489e+03 -1.213959e+05 0.000000e+00 0.000000e+00 0.000000e+00 0.000000e+00
-7.267534e+04 7.665693e+03 0.000000e+00 7.665693e+03 -1.275090e+05 0.000000e+00 0.000000e+00 0.000000e+00 0.000000e+00
-7.564566e+04 8.077502e+03 0.000000e+00 8.077502e+03 -1.343892e+05 0.000000e+00 0.000000e+00 0.000000e+00 0.000000e+00
-7.980400e+04 7.611973e+03 0.000000e+00 7.611973e+03 -1.418847e+05 0.000000e+00 0.000000e+00 0.000000e+00 0.000000e+00
-8.502634e+04 5.349122e+03 0.000000e+00 5.349122e+03 -1.494290e+05 0.000000e+00 0.000000e+00 0.000000e+00 0.000000e+00
-9.189623e+04 1.503619e+03 0.000000e+00 1.503619e+03 -1.545711e+05 0.000000e+00 0.000000e+00 0.000000e+00 0.000000e+00
-1.008568e+05 -1.924371e+03 0.000000e+00 -1.924371e+03 -1.610672e+05 0.000000e+00 0.000000e+00 0.000000e+00 0.000000e+00
-7.527621e+04 8.453434e+03 0.000000e+00 8.453434e+03 -1.023961e+05 0.000000e+00 0.000000e+00 0.000000e+00 0.000000e+00
-7.183755e+04 8.500080e+03 0.000000e+00 8.500080e+03 -1.025644e+05 0.000000e+00 0.000000e+00 0.000000e+00 0.000000e+00
-7.003257e+04 9.113654e+03 0.000000e+00 9.113654e+03 -1.053389e+05 0.000000e+00 0.000000e+00 0.000000e+00 0.000000e+00
-7.040097e+04 1.052024e+04 0.000000e+00 1.052024e+04 -1.084268e+05 0.000000e+00 0.000000e+00 0.000000e+00 0.000000e+00
-7.194222e+04 1.232400e+04 0.000000e+00 1.232400e+04 -1.119232e+05 0.000000e+00 0.000000e+00 0.000000e+00 0.000000e+00
-7.437747e+04 1.443161e+04 0.000000e+00 1.443161e+04 -1.162843e+05 0.000000e+00 0.000000e+00 0.000000e+00 0.000000e+00
-7.795820e+04 1.639650e+04 0.000000e+00 1.639650e+04 -1.220680e+05 0.000000e+00 0.000000e+00 0.000000e+00 0.000000e+00
-8.269328e+04 1.771139e+04 0.000000e+00 1.771139e+04 -1.296444e+05 0.000000e+00 0.000000e+00 0.000000e+00 0.000000e+00
-8.866097e+04 1.794169e+04 0.000000e+00 1.794169e+04 -1.398533e+05 0.000000e+00 0.000000e+00 0.000000e+00 0.000000e+00
-9.927219e+04 1.597052e+04 0.000000e+00 1.597052e+04 -1.535314e+05 0.000000e+00 0.000000e+00 0.000000e+00 0.000000e+00
-1.177402e+05 1.414394e+04 0.000000e+00 1.414394e+04 -1.707577e+05 0.000000e+00 0.000000e+00 0.000000e+00 0.000000e+00
-7.402293e+04 1.072178e+04 0.000000e+00 1.072178e+04 -9.624993e+04 0.000000e+00 0.000000e+00 0.000000e+00 0.000000e+00
-7.182291e+04 1.074542e+04 0.000000e+00 1.074542e+04 -9.616680e+04 0.000000e+00 0.000000e+00 0.000000e+00 0.000000e+00
-7.103965e+04 1.128058e+04 0.000000e+00 1.128058e+04 -9.733194e+04 0.000000e+00 0.000000e+00 0.000000e+00 0.000000e+00
-7.180306e+04 1.262539e+04 0.000000e+00 1.262539e+04 -9.818093e+04 0.000000e+00 0.000000e+00 0.000000e+00 0.000000e+00
-7.326510e+04 1.433994e+04 0.000000e+00 1.433994e+04 -9.845337e+04 0.000000e+00 0.000000e+00 0.000000e+00 0.000000e+00
-7.490973e+04 1.634537e+04 0.000000e+00 1.634537e+04 -9.780598e+04 0.000000e+00 0.000000e+00 0.000000e+00 0.000000e+00
-7.638955e+04 1.814469e+04 0.000000e+00 1.814469e+04 -9.577482e+04 0.000000e+00 0.000000e+00 0.000000e+00 0.000000e+00
-7.758171e+04 1.909989e+04 0.000000e+00 1.909989e+04 -9.234433e+04 0.000000e+00 0.000000e+00 0.000000e+00 0.000000e+00
-7.865240e+04 1.930432e+04 0.000000e+00 1.930432e+04 -8.704918e+04 0.000000e+00 0.000000e+00 0.000000e+00 0.000000e+00
-7.773430e+04 1.635759e+04 0.000000e+00 1.635759e+04 -7.745016e+04 0.000000e+00 0.000000e+00 0.000000e+00 0.000000e+00
-7.509671e+04 1.413755e+04 0.000000e+00 1.413755e+04 -7.226320e+04 0.000000e+00 0.000000e+00 0.000000e+00 0.000000e+00
-7.231388e+04 1.161183e+04 0.000000e+00 1.161183e+04 -8.951371e+04 0.000000e+00 0.000000e+00 0.000000e+00 0.000000e+00
-7.158263e+04 1.153153e+04 0.000000e+00 1.153153e+04 -8.931430e+04 0.000000e+00 0.000000e+00 0.000000e+00 0.000000e+00
-7.192995e+04 1.168987e+04 0.000000e+00 1.168987e+04 -8.933438e+04 0.000000e+00 0.000000e+00 0.000000e+00 0.000000e+00
-7.330191e+04 1.248755e+04 0.000000e+00 1.248755e+04 -8.880993e+04 0.000000e+00 0.000000e+00 0.000000e+00 0.000000e+00
-7.513907e+04 1.343491e+04 0.000000e+00 1.343491e+04 -8.758089e+04 0.000000e+00 0.000000e+00 0.000000e+00 0.000000e+00
-7.708199e+04 1.423892e+04 0.000000e+00 1.423892e+04 -8.546007e+04 0.000000e+00 0.000000e+00 0.000000e+00 0.000000e+00
-7.870558e+04 1.470555e+04 0.000000e+00 1.470555e+04 -8.228155e+04 0.000000e+00 0.000000e+00 0.000000e+00 0.000000e+00
-7.977862e+04 1.453143e+04 0.000000e+00 1.453143e+04 -7.780988e+04 0.000000e+00 0.000000e+00 0.000000e+00 0.000000e+00
-8.054849e+04 1.275540e+04 0.000000e+00 1.275540e+04 -7.178169e+04 0.000000e+00 0.000000e+00 0.000000e+00 0.000000e+00
-7.717717e+04 7.096841e+03 0.000000e+00 7.096841e+03 -6.599709e+04 0.000000e+00 0.000000e+00 0.000000e+00 0.000000e+00
-6.336872e+04 2.081127e+03 0.000000e+00 2.081127e+03 -5.942475e+04 0.000000e+00 0.000000e+00 0.000000e+00 0.000000e+00
-7.031166e+04 1.152926e+04 0.000000e+00 1.152926e+04 -8.283172e+04 0.000000e+00 0.000000e+00 0.000000e+00 0.000000e+00
-7.098101e+04 1.133537e+04 0.000000e+00 1.133537e+04 -8.262889e+04 0.000000e+00 0.000000e+00 0.000000e+00 0.000000e+00
-7.231461e+04 1.105375e+04 0.000000e+00 1.105375e+04 -8.191871e+04 0.000000e+00 0.000000e+00 0.000000e+00 0.000000e+00
-7.403969e+04 1.119712e+04 0.000000e+00 1.119712e+04 -8.074285e+04 0.000000e+00 0.000000e+00 0.000000e+00 0.000000e+00
-7.585845e+04 1.133887e+04 0.000000e+00 1.133887e+04 -7.897855e+04 0.000000e+00 0.000000e+00 0.000000e+00 0.000000e+00
-7.748993e+04 1.121203e+04 0.000000e+00 1.121203e+04 -7.655036e+04 0.000000e+00 0.000000e+00 0.000000e+00 0.000000e+00
-7.855896e+04 1.060777e+04 0.000000e+00 1.060777e+04 -7.338940e+04 0.000000e+00 0.000000e+00 0.000000e+00 0.000000e+00
-7.871134e+04 9.210990e+03 0.000000e+00 9.210990e+03 -6.946716e+04 0.000000e+00 0.000000e+00 0.000000e+00 0.000000e+00
-7.715341e+04 6.337625e+03 0.000000e+00 6.337625e+03 -6.531811e+04 0.000000e+00 0.000000e+00 0.000000e+00 0.000000e+00
-6.945704e+04 2.130367e+03 0.000000e+00 2.130367e+03 -6.206557e+04 0.000000e+00 0.000000e+00 0.000000e+00 0.000000e+00
-5.827334e+04 6.518375e+01 0.000000e+00 6.518375e+01 -5.921560e+04 0.000000e+00 0.000000e+00 0.000000e+00 0.000000e+00
-6.838187e+04 1.082480e+04 0.000000e+00 1.082480e+04 -7.709171e+04 0.000000e+00 0.000000e+00 0.000000e+00 0.000000e+00
-7.011445e+04 1.055157e+04 0.000000e+00 1.055157e+04 -7.694302e+04 0.000000e+00 0.000000e+00 0.000000e+00 0.000000e+00
-7.215957e+04 9.900838e+03 0.000000e+00 9.900838e+03 -7.589462e+04 0.000000e+00 0.000000e+00 0.000000e+00 0.000000e+00
-7.402259e+04 9.497799e+03 0.000000e+00 9.497799e+03 -7.450847e+04 0.000000e+00 0.000000e+00 0.000000e+00 0.000000e+00
-7.563835e+04 9.013829e+03 0.000000e+00 9.013829e+03 -7.268871e+04 0.000000e+00 0.000000e+00 0.000000e+00 0.000000e+00
-7.683159e+04 8.239650e+03 0.000000e+00 8.239650e+03 -7.043714e+04 0.000000e+00 0.000000e+00 0.000000e+00 0.000000e+00
-7.728508e+04 7.008436e+03 0.000000e+00 7.008436e+03 -6.780752e+04 0.000000e+00 0.000000e+00 0.000000e+00 0.000000e+00
-7.647480e+04 5.133526e+03 0.000000e+00 5.133526e+03 -6.497069e+04 0.000000e+00 0.000000e+00 0.000000e+00 0.000000e+00
-7.332782e+04 2.558076e+03 0.000000e+00 2.558076e+03 -6.238490e+04 0.000000e+00 0.000000e+00 0.000000e+00 0.000000e+00
-6.607204e+04 2.228502e+02 0.000000e+00 2.228502e+02 -6.069005e+04 0.000000e+00 0.000000e+00 0.000000e+00 0.000000e+00
-5.854161e+04 -6.304064e+02 0.000000e+00 -6.304064e+02 -5.922088e+04 0.000000e+00 0.000000e+00 0.000000e+00 0.000000e+00
-6.670232e+04 9.828661e+03 0.000000e+00 9.828661e+03 -7.256141e+04 0.000000e+00 0.000000e+00 0.000000e+00 0.000000e+00
-6.905024e+04 9.470405e+03 0.000000e+00 9.470405e+03 -7.240950e+04 0.000000e+00 0.000000e+00 0.000000e+00 0.000000e+00
-7.149579e+04 8.553018e+03 0.000000e+00 8.553018e+03 -7.122016e+04 0.000000e+00 0.000000e+00 0.000000e+00 0.000000e+00
-7.337714e+04 7.749481e+03 0.000000e+00 7.749481e+03 -6.985301e+04 0.000000e+00 0.000000e+00 0.000000e+00 0.000000e+00
-7.480250e+04 6.873484e+03 0.000000e+00 6.873484e+03 -6.823202e+04 0.000000e+00 0.000000e+00 0.000000e+00 0.000000e+00
-7.561904e+04 5.761541e+03 0.000000e+00 5.761541e+03 -6.639986e+04 0.000000e+00 0.000000e+00 0.000000e+00 0.000000e+00
-7.553394e+04 4.297889e+03 0.000000e+00 4.297889e+03 -6.443477e+04 0.000000e+00 0.000000e+00 0.000000e+00 0.000000e+00
-7.411016e+04 2.473290e+03 0.000000e+00 2.473290e+03 -6.254012e+04 0.000000e+00 0.000000e+00 0.000000e+00 0.000000e+00
-7.071159e+04 5.777684e+02 0.000000e+00 5.777684e+02 -6.105191e+04 0.000000e+00 0.000000e+00 0.000000e+00 0.000000e+00
-6.485343e+04 -5.569574e+02 0.000000e+00 -5.569574e+02 -6.024541e+04 0.000000e+00 0.000000e+00 0.000000e+00 0.000000e+00
-5.969120e+04 -7.090770e+02 0.000000e+00 -7.090770e+02 -5.947582e+04 0.000000e+00 0.000000e+00 0.000000e+00 0.000000e+00
-6.530580e+04 8.630484e+03 0.000000e+00 8.630484e+03 -6.912452e+04 0.000000e+00 0.000000e+00 0.000000e+00 0.000000e+00
-6.787120e+04 8.235145e+03 0.000000e+00 8.235145e+03 -6.893421e+04 0.000000e+00 0.000000e+00 0.000000e+00 0.000000e+00
-7.050344e+04 7.195271e+03 0.000000e+00 7.195271e+03 -6.774699e+04 0.000000e+00 0.000000e+00 0.000000e+00 0.000000e+00
-7.238580e+04 6.193049e+03 0.000000e+00 6.193049e+03 -6.652176e+04 0.000000e+00 0.000000e+00 0.000000e+00 0.000000e+00
-7.364284e+04 5.113604e+03 0.000000e+00 5.113604e+03 -6.518579e+04 0.000000e+00 0.000000e+00 0.000000e+00 0.000000e+00
-7.415652e+04 3.860202e+03 0.000000e+00 3.860202e+03 -6.376868e+04 0.000000e+00 0.000000e+00 0.000000e+00 0.000000e+00
-7.374676e+04 2.408744e+03 0.000000e+00 2.408744e+03 -6.238207e+04 0.000000e+00 0.000000e+00 0.000000e+00 0.000000e+00
-7.215438e+04 8.767364e+02 0.000000e+00 8.767364e+02 -6.119932e+04 0.000000e+00 0.000000e+00 0.000000e+00 0.000000e+00
-6.913755e+04 -3.905191e+02 0.000000e+00 -3.905191e+02 -6.040586e+04 0.000000e+00 0.000000e+00 0.000000e+00 0.000000e+00
-6.471413e+04 -8.302630e+02 0.000000e+00 -8.302630e+02 -6.005512e+04 0.000000e+00 0.000000e+00 0.000000e+00 0.000000e+00
-6.111554e+04 -7.111697e+02 0.000000e+00 -7.111697e+02 -5.961521e+04 0.000000e+00 0.000000e+00 0.000000e+00 0.000000e+00
-6.417702e+04 7.336387e+03 0.000000e+00 7.336387e+03 -6.657398e+04 0.000000e+00 0.000000e+00 0.000000e+00 0.000000e+00
-6.671985e+04 6.955800e+03 0.000000e+00 6.955800e+03 -6.638065e+04 0.000000e+00 0.000000e+00 0.000000e+00 0.000000e+00
-6.939560e+04 5.945825e+03 0.000000e+00 5.945825e+03 -6.525862e+04 0.000000e+00 0.000000e+00 0.000000e+00 0.000000e+00
-7.122093e+04 4.881139e+03 0.000000e+00 4.881139e+03 -6.417880e+04 0.000000e+00 0.000000e+00 0.000000e+00 0.000000e+00
-7.232571e+04 3.723164e+03 0.000000e+00 3.723164e+03 -6.310629e+04 0.000000e+00 0.000000e+00 0.000000e+00 0.000000e+00
-7.267552e+04 2.478913e+03 0.000000e+00 2.478913e+03 -6.205832e+04 0.000000e+00 0.000000e+00 0.000000e+00 0.000000e+00
-7.216375e+04 1.185424e+03 0.000000e+00 1.185424e+03 -6.113973e+04 0.000000e+00 0.000000e+00 0.000000e+00 0.000000e+00
-7.070414e+04 -3.700712e+00 0.000000e+00 -3.700712e+00 -6.045405e+04 0.000000e+00 0.000000e+00 0.000000e+00 0.000000e+00
-6.826973e+04 -8.137009e+02 0.000000e+00 -8.137009e+02 -6.007600e+04 0.000000e+00 0.000000e+00 0.000000e+00 0.000000e+00
-6.503470e+04 -8.866917e+02 0.000000e+00 -8.866917e+02 -5.996184e+04 0.000000e+00 0.000000e+00 0.000000e+00 0.000000e+00
-6.254899e+04 -6.499108e+02 0.000000e+00 -6.499108e+02 -5.971361e+04 0.000000e+00 0.000000e+00 0.000000e+00 0.000000e+00
-6.331758e+04 6.072153e+03 0.000000e+00 6.072153e+03 -6.476663e+04 0.000000e+00 0.000000e+00 0.000000e+00 0.000000e+00
-6.570468e+04 5.730657e+03 0.000000e+00 5.730657e+03 -6.456250e+04 0.000000e+00 0.000000e+00 0.000000e+00 0.000000e+00
-6.826755e+04 4.792265e+03 0.000000e+00 4.792265e+03 -6.352356e+04 0.000000e+00 0.000000e+00 0.000000e+00 0.000000e+00
-7.000789e+04 3.761744e+03 0.000000e+00 3.761744e+03 -6.257304e+04 0.000000e+00 0.000000e+00 0.000000e+00 0.000000e+00
-7.102329e+04 2.660066e+03 0.000000e+00 2.660066e+03 -6.171404e+04 0.000000e+00 0.000000e+00 0.000000e+00 0.000000e+00
-7.132280e+04 1.532063e+03 0.000000e+00 1.532063e+03 -6.097264e+04 0.000000e+00 0.000000e+00 0.000000e+00 0.000000e+00
-7.086730e+04 4.502315e+02 0.000000e+00 4.502315e+02 -6.039738e+04 0.000000e+00 0.000000e+00 0.000000e+00 0.000000e+00
-6.968162e+04 -4.397095e+02 0.000000e+00 -4.397095e+02 -6.003246e+04 0.000000e+00 0.000000e+00 0.000000e+00 0.000000e+00
-6.782733e+04 -9.440267e+02 0.000000e+00 -9.440267e+02 -5.989686e+04 0.000000e+00 0.000000e+00 0.000000e+00 0.000000e+00
-6.553503e+04 -8.357630e+02 0.000000e+00 -8.357630e+02 -5.991328e+04 0.000000e+00 0.000000e+00 0.000000e+00 0.000000e+00
-6.386475e+04 -5.608978e+02 0.000000e+00 -5.608978e+02 -5.978900e+04 0.000000e+00 0.000000e+00 0.000000e+00 0.000000e+00
-6.265839e+04 4.861187e+03 0.000000e+00 4.861187e+03 -6.349493e+04 0.000000e+00 0.000000e+00 0.000000e+00 0.000000e+00
-6.482175e+04 4.562502e+03 0.000000e+00 4.562502e+03 -6.327643e+04 0.000000e+00 0.000000e+00 0.000000e+00 0.000000e+00
-6.721325e+04 3.743297e+03 0.000000e+00 3.743297e+03 -6.232550e+04 0.000000e+00 0.000000e+00 0.000000e+00 0.000000e+00
-6.888090e+04 2.822820e+03 0.000000e+00 2.822820e+03 -6.151256e+04 0.000000e+00 0.000000e+00 0.000000e+00 0.000000e+00
-6.985377e+04 1.862159e+03 0.000000e+00 1.862159e+03 -6.082033e+04 0.000000e+00 0.000000e+00 0.000000e+00 0.000000e+00
-7.016804e+04 9.062899e+02 0.000000e+00 9.062899e+02 -6.029483e+04 0.000000e+00 0.000000e+00 0.000000e+00 0.000000e+00
-6.985405e+04 4.672609e+01 0.000000e+00 4.672609e+01 -5.995082e+04 0.000000e+00 0.000000e+00 0.000000e+00 0.000000e+00
-6.897210e+04 -6.066790e+02 0.000000e+00 -6.066790e+02 -5.979461e+04 0.000000e+00 0.000000e+00 0.000000e+00 0.000000e+00
-6.763373e+04 -9.120523e+02 0.000000e+00 -9.120523e+02 -5.980074e+04 0.000000e+00 0.000000e+00 0.000000e+00 0.000000e+00
-6.607402e+04 -7.259179e+02 0.000000e+00 -7.259179e+02 -5.989134e+04 0.000000e+00 0.000000e+00 0.000000e+00 0.000000e+00
-6.499990e+04 -4.623380e+02 0.000000e+00 -4.623380e+02 -5.984596e+04 0.000000e+00 0.000000e+00 0.000000e+00 0.000000e+00
-6.214089e+04 3.712240e+03 0.000000e+00 3.712240e+03 -6.263596e+04 0.000000e+00 0.000000e+00 0.000000e+00 0.000000e+00
-6.408764e+04 3.466345e+03 0.000000e+00 3.466345e+03 -6.240368e+04 0.000000e+00 0.000000e+00 0.000000e+00 0.000000e+00
-6.631184e+04 2.802337e+03 0.000000e+00 2.802337e+03 -6.152357e+04 0.000000e+00 0.000000e+00 0.000000e+00 0.000000e+00
-6.790788e+04 2.040861e+03 0.000000e+00 2.040861e+03 -6.081075e+04 0.000000e+00 0.000000e+00 0.000000e+00 0.000000e+00
-6.886820e+04 1.258152e+03 0.000000e+00 1.258152e+03 -6.025782e+04 0.000000e+00 0.000000e+00 0.000000e+00 0.000000e+00
-6.924388e+04 5.037271e+02 0.000000e+00 5.037271e+02 -5.988650e+04 0.000000e+00 0.000000e+00 0.000000e+00 0.000000e+00
-6.909054e+04 -1.465193e+02 0.000000e+00 -1.465193e+02 -5.969611e+04 0.000000e+00 0.000000e+00 0.000000e+00 0.000000e+00
-6.849047e+04 -6.116277e+02 0.000000e+00 -6.116277e+02 -5.966820e+04 0.000000e+00 0.000000e+00 0.000000e+00 0.000000e+00
-6.757735e+04 -7.893087e+02 0.000000e+00 -7.893087e+02 -5.975608e+04 0.000000e+00 0.000000e+00 0.000000e+00 0.000000e+00
-6.657230e+04 -5.889045e+02 0.000000e+00 -5.889045e+02 -5.988151e+04 0.000000e+00 0.000000e+00 0.000000e+00 0.000000e+00
-6.593159e+04 -3.650966e+02 0.000000e+00 -3.650966e+02 -5.988903e+04 0.000000e+00 0.000000e+00 0.000000e+00 0.000000e+00
-6.176617e+04 2.606228e+03 0.000000e+00 2.606228e+03 -6.200745e+04 0.000000e+00 0.000000e+00 0.000000e+00 0.000000e+00
-6.352203e+04 2.426711e+03 0.000000e+00 2.426711e+03 -6.176711e+04 0.000000e+00 0.000000e+00 0.000000e+00 0.000000e+00
-6.560533e+04 1.941262e+03 0.000000e+00 1.941262e+03 -6.096851e+04 0.000000e+00 0.000000e+00 0.000000e+00 0.000000e+00
-6.714489e+04 1.384297e+03 0.000000e+00 1.384297e+03 -6.034523e+04 0.000000e+00 0.000000e+00 0.000000e+00 0.000000e+00
-6.810403e+04 8.029778e+02 0.000000e+00 8.029778e+02 -5.990391e+04 0.000000e+00 0.000000e+00 0.000000e+00 0.000000e+00
-6.855201e+04 2.538533e+02 0.000000e+00 2.538533e+02 -5.964109e+04 0.000000e+00 0.000000e+00 0.000000e+00 0.000000e+00
-6.854079e+04 -2.068312e+02 0.000000e+00 -2.068312e+02 -5.955268e+04 0.000000e+00 0.000000e+00 0.000000e+00 0.000000e+00
-6.817352e+04 -5.194656e+02 0.000000e+00 -5.194656e+02 -5.960192e+04 0.000000e+00 0.000000e+00 0.000000e+00 0.000000e+00
-6.758709e+04 -6.180909e+02 0.000000e+00 -6.180909e+02 -5.973761e+04 0.000000e+00 0.000000e+00 0.000000e+00 0.000000e+00
-6.698590e+04 -4.432428e+02 0.000000e+00 -4.432428e+02 -5.987973e+04 0.000000e+00 0.000000e+00 0.000000e+00 0.000000e+00
-6.665073e+04 -2.689104e+02 0.000000e+00 -2.689104e+02 -5.992137e+04 0.000000e+00 0.000000e+00 0.000000e+00 0.000000e+00
-6.148316e+04 1.585503e+03 0.000000e+00 1.585503e+03 -6.150721e+04 0.000000e+00 0.000000e+00 0.000000e+00 0.000000e+00
-6.313119e+04 1.477741e+03 0.000000e+00 1.477741e+03 -6.128477e+04 0.000000e+00 0.000000e+00 0.000000e+00 0.000000e+00
-6.512941e+04 1.177168e+03 0.000000e+00 1.177168e+03 -6.056564e+04 0.000000e+00 0.000000e+00 0.000000e+00 0.000000e+00
-6.661469e+04 8.319501e+02 0.000000e+00 8.319501e+02 -6.002546e+04 0.000000e+00 0.000000e+00 0.000000e+00 0.000000e+00
-6.757060e+04 4.605989e+02 0.000000e+00 4.605989e+02 -5.967140e+04 0.000000e+00 0.000000e+00 0.000000e+00 0.000000e+00
-6.807580e+04 1.094683e+02 0.000000e+00 1.094683e+02 -5.949002e+04 0.000000e+00 0.000000e+00 0.000000e+00 0.000000e+00
-6.817600e+04 -1.810009e+02 0.000000e+00 -1.810009e+02 -5.947041e+04 0.000000e+00 0.000000e+00 0.000000e+00 0.000000e+00
-6.797680e+04 -3.716190e+02 0.000000e+00 -3.716190e+02 -5.956840e+04 0.000000e+00 0.000000e+00 0.000000e+00 0.000000e+00
-6.762013e+04 -4.213897e+02 0.000000e+00 -4.213897e+02 -5.973077e+04 0.000000e+00 0.000000e+00 0.000000e+00 0.000000e+00
-6.729131e+04 -2.958969e+02 0.000000e+00 -2.958969e+02 -5.988226e+04 0.000000e+00 0.000000e+00 0.000000e+00 0.000000e+00
-6.715605e+04 -1.767931e+02 0.000000e+00 -1.767931e+02 -5.994539e+04 0.000000e+00 0.000000e+00 0.000000e+00 0.000000e+00
-6.128209e+04 6.323930e+02 0.000000e+00 6.323930e+02 -6.102081e+04 0.000000e+00 0.000000e+00 0.000000e+00 0.000000e+00
-6.293672e+04 6.282892e+02 0.000000e+00 6.282892e+02 -6.085491e+04 0.000000e+00 0.000000e+00 0.000000e+00 0.000000e+00
-6.487646e+04 5.226810e+02 0.000000e+00 5.226810e+02 -6.024236e+04 0.000000e+00 0.000000e+00 0.000000e+00 0.000000e+00
-6.631145e+04 3.783451e+02 0.000000e+00 3.783451e+02 -5.980638e+04 0.000000e+00 0.000000e+00 0.000000e+00 0.000000e+00
-6.726398e+04 2.030600e+02 0.000000e+00 2.030600e+02 -5.953499e+04 0.000000e+00 0.000000e+00 0.000000e+00 0.000000e+00
-6.779987e+04 3.680770e+01 0.000000e+00 3.680770e+01 -5.940810e+04 0.000000e+00 0.000000e+00 0.000000e+00 0.000000e+00
-6.796829e+04 -1.033612e+02 0.000000e+00 -1.033612e+02 -5.942861e+04 0.000000e+00 0.000000e+00 0.000000e+00 0.000000e+00
-6.787128e+04 -1.923863e+02 0.000000e+00 -1.923863e+02 -5.955209e+04 0.000000e+00 0.000000e+00 0.000000e+00 0.000000e+00
-6.764967e+04 -2.125402e+02 0.000000e+00 -2.125402e+02 -5.972812e+04 0.000000e+00 0.000000e+00 0.000000e+00 0.000000e+00
-6.747593e+04 -1.478699e+02 0.000000e+00 -1.478699e+02 -5.988307e+04 0.000000e+00 0.000000e+00 0.000000e+00 0.000000e+00
-6.745190e+04 -8.846950e+01 0.000000e+00 -8.846950e+01 -5.995823e+04 0.000000e+00 0.000000e+00 0.000000e+00 0.000000e+00
-6.111110e+04 -2.429382e+01 0.000000e+00 -2.429382e+01 -6.051418e+04 0.000000e+00 0.000000e+00 0.000000e+00 0.000000e+00
-6.284070e+04 7.825037e+01 0.000000e+00 7.825037e+01 -6.050486e+04 0.000000e+00 0.000000e+00 0.000000e+00 0.000000e+00
-6.479719e+04 1.199485e+02 0.000000e+00 1.199485e+02 -6.008533e+04 0.000000e+00 0.000000e+00 0.000000e+00 0.000000e+00
-6.621448e+04 9.561024e+01 0.000000e+00 9.561024e+01 -5.971867e+04 0.000000e+00 0.000000e+00 0.000000e+00 0.000000e+00
-6.716429e+04 4.089147e+01 0.000000e+00 4.089147e+01 -5.948695e+04 0.000000e+00 0.000000e+00 0.000000e+00 0.000000e+00
-6.771027e+04 -9.156306e+00 0.000000e+00 -9.156306e+00 -5.938588e+04 0.000000e+00 0.000000e+00 0.000000e+00 0.000000e+00
-6.790124e+04 -5.548785e+01 0.000000e+00 -5.548785e+01 -5.941877e+04 0.000000e+00 0.000000e+00 0.000000e+00 0.000000e+00
-6.783855e+04 -8.467149e+01 0.000000e+00 -8.467149e+01 -5.954764e+04 0.000000e+00 0.000000e+00 0.000000e+00 0.000000e+00
-6.766055e+04 -9.265107e+01 0.000000e+00 -9.265107e+01 -5.972745e+04 0.000000e+00 0.000000e+00 0.000000e+00 0.000000e+00
-6.753726e+04 -6.962929e+01 0.000000e+00 -6.962929e+01 -5.988300e+04 0.000000e+00 0.000000e+00 0.000000e+00 0.000000e+00
-6.754806e+04 -4.794339e+01 0.000000e+00 -4.794339e+01 -5.996151e+04 0.000000e+00 0.000000e+00 0.000000e+00 0.000000e+00
</DataArray>
<DataArray Name="vol_eps" type="Float64" NumberOfComponents="1" format="ascii">
-4.255512e-03
-3.969842e-03
-3.965180e-03
-4.100192e-03
-4.376417e-03
-4.815907e-03
-5.458301e-03
-6.293333e-03
-7.214579e-03
-8.064455e-03
-8.238564e-03
-4.096515e-03
-3.829462e-03
-3.835663e-03
-3.975662e-03
-4.258777e-03
-4.675989e-03
-5.256043e-03
-6.054765e-03
-7.023982e-03
-7.974631e-03
-9.117000e-03
-3.734368e-03
-3.508469e-03
-3.519504e-03
-3.654796e-03
-3.880752e-03
-4.196172e-03
-4.641139e-03
-5.221589e-03
-5.907720e-03
-7.181625e-03
-9.501530e-03
-3.255127e-03
-3.098279e-03
-3.102900e-03
-3.175788e-03
-3.239502e-03
-3.212627e-03
-3.019781e-03
-2.606607e-03
-1.929376e-03
-7.661378e-04
5.631787e-05
-2.694757e-03
-2.630822e-03
-2.655416e-03
-2.708898e-03
-2.742848e-03
-2.720883e-03
-2.604436e-03
-2.368144e-03
-2.026338e-03
-1.463566e-03
-1.486903e-04
-2.118932e-03
-2.154550e-03
-2.203753e-03
-2.241521e-03
-2.244107e-03
-2.190322e-03
-2.052849e-03
-1.807539e-03
-1.436530e-03
-7.308050e-04
1.799185e-04
-1.610627e-03
-1.724800e-03
-1.799486e-03
-1.832440e-03
-1.819881e-03
-1.751230e-03
-1.609325e-03
-1.370686e-03
-9.987471e-04
-4.284456e-04
1.503346e-04
-1.203827e-03
-1.359271e-03
-1.451713e-03
-1.489177e-03
-1.476775e-03
-1.409725e-03
-1.274786e-03
-1.058312e-03
-7.453049e-04
-3.240579e-04
5.512100e-05
-8.917573e-04
-1.059173e-03
-1.163545e-03
-1.208460e-03
-1.201686e-03
-1.141861e-03
-1.024439e-03
-8.456456e-04
-6.034239e-04
-3.034052e-04
-4.779716e-05
-6.601677e-04
-8.231390e-04
-9.311140e-04
-9.793846e-04
-9.801642e-04
-9.343066e-04
-8.417319e-04
-7.051607e-04
-5.273434e-04
-3.176388e-04
-1.455266e-04
-4.950678e-04
-6.445023e-04
-7.478484e-04
-7.974765e-04
-8.065556e-04
-7.774424e-04
-7.113889e-04
-6.132183e-04
-4.876829e-04
-3.458274e-04
-2.327571e-04
-3.799345e-04
-5.102938e-04
-6.050193e-04
-6.580469e-04
-6.744423e-04
-6.603078e-04
-6.184457e-04
-5.524796e-04
-4.691181e-04
-3.779147e-04
-3.073451e-04
-2.990012e-04
-4.121008e-04
-4.980143e-04
-5.515434e-04
-5.752142e-04
-5.748784e-04
-5.531531e-04
-5.134320e-04
-4.626093e-04
-4.083332e-04
-3.686185e-04
-2.410346e-04
-3.401448e-04
-4.194455e-04
-4.736073e-04
-5.039808e-04
-5.148270e-04
-5.086796e-04
-4.890205e-04
-4.618650e-04
-4.339557e-04
-4.158097e-04
-1.949093e-04
-2.869453e-04
-3.650702e-04
-4.198891e-04
-4.554051e-04
-4.748917e-04
-4.799560e-04
-4.744214e-04
-4.634058e-04
-4.531379e-04
-4.491120e-04
-1.523333e-04
-2.475572e-04
-3.288311e-04
-3.870537e-04
-4.273776e-04
-4.523927e-04
-4.641807e-04
-4.667201e-04
-4.650060e-04
-4.647077e-04
-4.683981e-04
-1.089816e-04
-2.190442e-04
-3.138287e-04
-3.756869e-04
-4.181897e-04
-4.454589e-04
-4.593791e-04
-4.642577e-04
-4.655462e-04
-4.685100e-04
-4.746467e-04
</DataArray>
</PointData>
</Piece>
</UnstructuredGrid>
</VTKFile>
