<?xml version="1.0"?>
<VTKFile type="UnstructuredGrid" version="0.1">
<UnstructuredGrid>
<FieldData>
<DataArray Name="TIME" type="Float64" format="ascii" NumberOfTuples="1">
0.000000e+00
</DataArray>
</FieldData>
<FieldData>
<DataArray Name="CYCLE" type="Int32" format="ascii" NumberOfTuples="1">
0
</DataArray>
</FieldData>
<Piece NumberOfPoints="187" NumberOfCells="160">
<Points>
<DataArray NumberOfComponents="3" type="Float64" format="ascii">
0.000000e+00 0.000000e+00 0.000000e+00
0.000000e+00 1.971875e-01 0.000000e+00
0.000000e+00 3.932482e-01 0.000000e+00
0.000000e+00 5.877249e-01 0.000000e+00
0.000000e+00 7.805040e-01 0.000000e+00
0.000000e+00 9.726050e-01 0.000000e+00
0.000000e+00 1.164469e+00 0.000000e+00
0.000000e+00 1.356626e+00 0.000000e+00
0.000000e+00 1.550364e+00 0.000000e+00
0.000000e+00 1.746329e+00 0.000000e+00
0.000000e+00 1.942625e+00 0.000000e+00
2.250000e-01 0.000000e+00 0.000000e+00
2.264047e-01 1.972142e-01 0.000000e+00
2.282603e-01 3.933145e-01 0.000000e+00
2.304353e-01 5.883131e-01 0.000000e+00
2.318528e-01 7.821400e-01 0.000000e+00
2.323298e-01 9.750966e-01 0.000000e+00
2.321057e-01 1.167622e+00 0.000000e+00
2.308434e-01 1.360114e+00 0.000000e+00
2.281474e-01 1.552883e+00 0.000000e+00
2.254892e-01 1.746550e+00 0.000000e+00
2.250000e-01 1.942625e+00 0.000000e+00
4.500000e-01 0.000000e+00 0.000000e+00
4.530091e-01 1.975749e-01 0.000000e+00
4.561246e-01 3.943555e-01 0.000000e+00
4.589497e-01 5.906751e-01 0.000000e+00
4.611345e-01 7.866616e-01 0.000000e+00
4.624691e-01 9.820505e-01 0.000000e+00
4.629234e-01 1.176539e+00 0.000000e+00
4.623537e-01 1.369865e+00 0.000000e+00
4.601461e-01 1.561543e+00 0.000000e+00
4.565094e-01 1.752141e+00 0.000000e+00
4.500000e-01 1.942625e+00 0.000000e+00
6.750000e-01 0.000000e+00 0.000000e+00
6.791959e-01 1.985706e-01 0.000000e+00
6.827860e-01 3.969617e-01 0.000000e+00
6.856499e-01 5.954631e-01 0.000000e+00
6.879497e-01 7.941589e-01 0.000000e+00
6.896198e-01 9.930785e-01 0.000000e+00
6.906480e-01 1.192301e+00 0.000000e+00
6.908792e-01 1.391830e+00 0.000000e+00
6.897053e-01 1.591856e+00 0.000000e+00
6.867664e-01 1.792189e+00 0.000000e+00
6.812368e-01 1.992453e+00 0.000000e+00
9.000000e-01 0.000000e+00 0.000000e+00
9.045747e-01 1.989585e-01 0.000000e+00
9.078746e-01 3.979926e-01 0.000000e+00
9.103872e-01 5.972449e-01 0.000000e+00
9.123468e-01 7.967256e-01 0.000000e+00
9.137387e-01 9.964585e-01 0.000000e+00
9.144684e-01 1.196455e+00 0.000000e+00
9.143298e-01 1.396779e+00 0.000000e+00
9.130067e-01 1.597320e+00 0.000000e+00
9.103345e-01 1.797852e+00 0.000000e+00
9.066140e-01 1.997877e+00 0.000000e+00
1.125000e+00 0.000000e+00 0.000000e+00
1.129588e+00 1.993659e-01 0.000000e+00
1.132442e+00 3.988743e-01 0.000000e+00
1.134634e+00 5.985964e-01 0.000000e+00
1.136294e+00 7.985279e-01 0.000000e+00
1.137416e+00 9.986792e-01 0.000000e+00
1.137887e+00 1.199083e+00 0.000000e+00
1.137584e+00 1.399706e+00 0.000000e+00
1.136373e+00 1.600404e+00 0.000000e+00
1.134366e+00 1.800900e+00 0.000000e+00
1.132102e+00 2.000981e+00 0.000000e+00
1.350000e+00 0.000000e+00 0.000000e+00
1.354253e+00 1.996889e-01 0.000000e+00
1.356743e+00 3.995087e-01 0.000000e+00
1.358633e+00 5.995104e-01 0.000000e+00
1.360031e+00 7.997053e-01 0.000000e+00
1.360933e+00 1.000117e+00 0.000000e+00
1.361240e+00 1.200723e+00 0.000000e+00
1.360907e+00 1.401455e+00 0.000000e+00
1.359965e+00 1.602144e+00 0.000000e+00
1.358619e+00 1.802600e+00 0.000000e+00
1.357296e+00 2.002717e+00 0.000000e+00
1.575000e+00 0.000000e+00 0.000000e+00
1.578726e+00 1.998742e-01 0.000000e+00
1.580896e+00 3.998905e-01 0.000000e+00
1.582517e+00 6.000830e-01 0.000000e+00
1.583705e+00 8.004553e-01 0.000000e+00
1.584427e+00 1.001001e+00 0.000000e+00
1.584647e+00 1.201687e+00 0.000000e+00
1.584390e+00 1.402409e+00 0.000000e+00
1.583759e+00 1.603044e+00 0.000000e+00
1.582938e+00 1.803467e+00 0.000000e+00
1.582234e+00 2.003634e+00 0.000000e+00
1.800000e+00 0.000000e+00 0.000000e+00
1.803113e+00 1.999681e-01 0.000000e+00
1.804986e+00 4.001173e-01 0.000000e+00
1.806383e+00 6.004176e-01 0.000000e+00
1.807384e+00 8.008751e-01 0.000000e+00
1.807976e+00 1.001472e+00 0.000000e+00
1.808172e+00 1.202147e+00 0.000000e+00
1.808042e+00 1.402821e+00 0.000000e+00
1.807682e+00 1.603402e+00 0.000000e+00
1.807250e+00 1.803810e+00 0.000000e+00
1.806951e+00 2.004029e+00 0.000000e+00
2.025000e+00 0.000000e+00 0.000000e+00
2.027496e+00 2.000102e-01 0.000000e+00
2.029088e+00 4.002172e-01 0.000000e+00
2.030284e+00 6.005658e-01 0.000000e+00
2.031126e+00 8.010499e-01 0.000000e+00
2.031627e+00 1.001633e+00 0.000000e+00
2.031840e+00 1.202263e+00 0.000000e+00
2.031830e+00 1.402881e+00 0.000000e+00
2.031680e+00 1.603418e+00 0.000000e+00
2.031518e+00 1.803824e+00 0.000000e+00
2.031476e+00 2.004100e+00 0.000000e+00
2.250000e+00 0.000000e+00 0.000000e+00
2.251923e+00 2.000217e-01 0.000000e+00
2.253247e+00 4.002355e-01 0.000000e+00
2.254252e+00 6.005835e-01 0.000000e+00
2.254960e+00 8.010494e-01 0.000000e+00
2.255405e+00 1.001591e+00 0.000000e+00
2.255639e+00 1.202166e+00 0.000000e+00
2.255718e+00 1.402729e+00 0.000000e+00
2.255715e+00 1.603232e+00 0.000000e+00
2.255726e+00 1.803646e+00 0.000000e+00
2.255836e+00 2.003976e+00 0.000000e+00
2.475000e+00 0.000000e+00 0.000000e+00
2.476424e+00 2.000113e-01 0.000000e+00
2.477489e+00 4.002008e-01 0.000000e+00
2.478315e+00 6.005175e-01 0.000000e+00
2.478907e+00 8.009388e-01 0.000000e+00
2.479305e+00 1.001429e+00 0.000000e+00
2.479546e+00 1.201951e+00 0.000000e+00
2.479679e+00 1.402468e+00 0.000000e+00
2.479766e+00 1.602947e+00 0.000000e+00
2.479874e+00 1.803373e+00 0.000000e+00
2.480059e+00 2.003755e+00 0.000000e+00
2.700000e+00 0.000000e+00 0.000000e+00
2.701011e+00 1.999947e-01 0.000000e+00
2.701833e+00 4.001400e-01 0.000000e+00
2.702483e+00 6.004077e-01 0.000000e+00
2.702967e+00 8.007773e-01 0.000000e+00
2.703309e+00 1.001217e+00 0.000000e+00
2.703538e+00 1.201693e+00 0.000000e+00
2.703693e+00 1.402172e+00 0.000000e+00
2.703821e+00 1.602634e+00 0.000000e+00
2.703967e+00 1.803073e+00 0.000000e+00
2.704168e+00 2.003501e+00 0.000000e+00
2.925000e+00 0.000000e+00 0.000000e+00
2.925687e+00 1.999695e-01 0.000000e+00
2.926277e+00 4.000721e-01 0.000000e+00
2.926759e+00 6.002957e-01 0.000000e+00
2.927128e+00 8.006156e-01 0.000000e+00
2.927399e+00 1.001009e+00 0.000000e+00
2.927595e+00 1.201444e+00 0.000000e+00
2.927743e+00 1.401896e+00 0.000000e+00
2.927872e+00 1.602348e+00 0.000000e+00
2.928014e+00 1.802800e+00 0.000000e+00
2.928193e+00 2.003262e+00 0.000000e+00
3.150000e+00 0.000000e+00 0.000000e+00
3.150427e+00 1.999489e-01 0.000000e+00
3.150803e+00 4.000182e-01 0.000000e+00
3.151122e+00 6.002048e-01 0.000000e+00
3.151372e+00 8.004881e-01 0.000000e+00
3.151559e+00 1.000842e+00 0.000000e+00
3.151702e+00 1.201246e+00 0.000000e+00
3.151816e+00 1.401678e+00 0.000000e+00
3.151918e+00 1.602125e+00 0.000000e+00
3.152028e+00 1.802586e+00 0.000000e+00
3.152159e+00 2.003073e+00 0.000000e+00
3.375000e+00 0.000000e+00 0.000000e+00
3.375206e+00 1.999373e-01 0.000000e+00
3.375387e+00 3.999898e-01 0.000000e+00
3.375545e+00 6.001526e-01 0.000000e+00
3.375672e+00 8.004121e-01 0.000000e+00
3.375768e+00 1.000743e+00 0.000000e+00
3.375842e+00 1.201125e+00 0.000000e+00
3.375903e+00 1.401543e+00 0.000000e+00
3.375960e+00 1.601987e+00 0.000000e+00
3.376019e+00 1.802454e+00 0.000000e+00
3.376088e+00 2.002953e+00 0.000000e+00
3.600000e+00 0.000000e+00 0.000000e+00
3.600000e+00 1.999461e-01 0.000000e+00
3.600000e+00 3.999949e-01 0.000000e+00
3.600000e+00 6.001495e-01 0.000000e+00
3.600000e+00 8.004000e-01 0.000000e+00
3.600000e+00 1.000722e+00 0.000000e+00
3.600000e+00 1.201096e+00 0.000000e+00
3.600000e+00 1.401507e+00 0.000000e+00
3.600000e+00 1.601946e+00 0.000000e+00
3.600000e+00 1.802413e+00 0.000000e+00
3.600000e+00 2.002915e+00 0.000000e+00
</DataArray>
</Points>
<Cells>
<DataArray Name="connectivity" type="Int32" format="ascii">
0 11 12 1
1 12 13 2
2 13 14 3
3 14 15 4
4 15 16 5
5 16 17 6
6 17 18 7
7 18 19 8
8 19 20 9
9 20 21 10
11 22 23 12
12 23 24 13
13 24 25 14
14 25 26 15
15 26 27 16
16 27 28 17
17 28 29 18
18 29 30 19
19 30 31 20
20 31 32 21
22 33 34 23
23 34 35 24
24 35 36 25
25 36 37 26
26 37 38 27
27 38 39 28
28 39 40 29
29 40 41 30
30 41 42 31
31 42 43 32
33 44 45 34
34 45 46 35
35 46 47 36
36 47 48 37
37 48 49 38
38 49 50 39
39 50 51 40
40 51 52 41
41 52 53 42
42 53 54 43
44 55 56 45
45 56 57 46
46 57 58 47
47 58 59 48
48 59 60 49
49 60 61 50
50 61 62 51
51 62 63 52
52 63 64 53
53 64 65 54
55 66 67 56
56 67 68 57
57 68 69 58
58 69 70 59
59 70 71 60
60 71 72 61
61 72 73 62
62 73 74 63
63 74 75 64
64 75 76 65
66 77 78 67
67 78 79 68
68 79 80 69
69 80 81 70
70 81 82 71
71 82 83 72
72 83 84 73
73 84 85 74
74 85 86 75
75 86 87 76
77 88 89 78
78 89 90 79
79 90 91 80
80 91 92 81
81 92 93 82
82 93 94 83
83 94 95 84
84 95 96 85
85 96 97 86
86 97 98 87
88 99 100 89
89 100 101 90
90 101 102 91
91 102 103 92
92 103 104 93
93 104 105 94
94 105 106 95
95 106 107 96
96 107 108 97
97 108 109 98
99 110 111 100
100 111 112 101
101 112 113 102
102 113 114 103
103 114 115 104
104 115 116 105
105 116 117 106
106 117 118 107
107 118 119 108
108 119 120 109
110 121 122 111
111 122 123 112
112 123 124 113
113 124 125 114
114 125 126 115
115 126 127 116
116 127 128 117
117 128 129 118
118 129 130 119
119 130 131 120
121 132 133 122
122 133 134 123
123 134 135 124
124 135 136 125
125 136 137 126
126 137 138 127
127 138 139 128
128 139 140 129
129 140 141 130
130 141 142 131
132 143 144 133
133 144 145 134
134 145 146 135
135 146 147 136
136 147 148 137
137 148 149 138
138 149 150 139
139 150 151 140
140 151 152 141
141 152 153 142
143 154 155 144
144 155 156 145
145 156 157 146
146 157 158 147
147 158 159 148
148 159 160 149
149 160 161 150
150 161 162 151
151 162 163 152
152 163 164 153
154 165 166 155
155 166 167 156
156 167 168 157
157 168 169 158
158 169 170 159
159 170 171 160
160 171 172 161
161 172 173 162
162 173 174 163
163 174 175 164
165 176 177 166
166 177 178 167
167 178 179 168
168 179 180 169
169 180 181 170
170 181 182 171
171 182 183 172
172 183 184 173
173 184 185 174
174 185 186 175
</DataArray>
<DataArray Name="offsets" type="Int32" format="ascii">
4
8
12
16
20
24
28
32
36
40
44
48
52
56
60
64
68
72
76
80
84
88
92
96
100
104
108
112
116
120
124
128
132
136
140
144
148
152
156
160
164
168
172
176
180
184
188
192
196
200
204
208
212
216
220
224
228
232
236
240
244
248
252
256
260
264
268
272
276
280
284
288
292
296
300
304
308
312
316
320
324
328
332
336
340
344
348
352
356
360
364
368
372
376
380
384
388
392
396
400
404
408
412
416
420
424
428
432
436
440
444
448
452
456
460
464
468
472
476
480
484
488
492
496
500
504
508
512
516
520
524
528
532
536
540
544
548
552
556
560
564
568
572
576
580
584
588
592
596
600
604
608
612
616
620
624
628
632
636
640
</DataArray>
<DataArray Name="types" type="UInt8" format="ascii">
9
9
9
9
9
9
9
9
9
9
9
9
9
9
9
9
9
9
9
9
9
9
9
9
9
9
9
9
9
9
9
9
9
9
9
9
9
9
9
9
9
9
9
9
9
9
9
9
9
9
9
9
9
9
9
9
9
9
9
9
9
9
9
9
9
9
9
9
9
9
9
9
9
9
9
9
9
9
9
9
9
9
9
9
9
9
9
9
9
9
9
9
9
9
9
9
9
9
9
9
9
9
9
9
9
9
9
9
9
9
9
9
9
9
9
9
9
9
9
9
9
9
9
9
9
9
9
9
9
9
9
9
9
9
9
9
9
9
9
9
9
9
9
9
9
9
9
9
9
9
9
9
9
9
9
9
9
9
9
9
</DataArray>
</Cells>
<PointData>
<DataArray Name="disp" type="Float64" NumberOfComponents="3" format="ascii">
0.000000e+00 0.000000e+00 0.000000e+00
0.000000e+00 -2.812484e-03 0.000000e+00
0.000000e+00 -6.751815e-03 0.000000e+00
0.000000e+00 -1.227505e-02 0.000000e+00
0.000000e+00 -1.949593e-02 0.000000e+00
0.000000e+00 -2.739503e-02 0.000000e+00
0.000000e+00 -3.553150e-02 0.000000e+00
0.000000e+00 -4.337411e-02 0.000000e+00
0.000000e+00 -4.963604e-02 0.000000e+00
0.000000e+00 -5.367102e-02 0.000000e+00
0.000000e+00 -5.737500e-02 0.000000e+00
0.000000e+00 0.000000e+00 0.000000e+00
1.404699e-03 -2.785828e-03 0.000000e+00
3.260344e-03 -6.685486e-03 0.000000e+00
5.435321e-03 -1.168690e-02 0.000000e+00
6.852846e-03 -1.785996e-02 0.000000e+00
7.329775e-03 -2.490334e-02 0.000000e+00
7.105651e-03 -3.237835e-02 0.000000e+00
5.843413e-03 -3.988639e-02 0.000000e+00
3.147381e-03 -4.711702e-02 0.000000e+00
4.892151e-04 -5.345006e-02 0.000000e+00
0.000000e+00 -5.737500e-02 0.000000e+00
0.000000e+00 0.000000e+00 0.000000e+00
3.009122e-03 -2.425128e-03 0.000000e+00
6.124563e-03 -5.644469e-03 0.000000e+00
8.949670e-03 -9.324967e-03 0.000000e+00
1.113448e-02 -1.333846e-02 0.000000e+00
1.246907e-02 -1.794947e-02 0.000000e+00
1.292340e-02 -2.346105e-02 0.000000e+00
1.235371e-02 -3.013530e-02 0.000000e+00
1.014608e-02 -3.845707e-02 0.000000e+00
6.509417e-03 -4.785858e-02 0.000000e+00
0.000000e+00 -5.737500e-02 0.000000e+00
0.000000e+00 0.000000e+00 0.000000e+00
4.195908e-03 -1.429415e-03 0.000000e+00
7.786013e-03 -3.038265e-03 0.000000e+00
1.064994e-02 -4.536889e-03 0.000000e+00
1.294967e-02 -5.841148e-03 0.000000e+00
1.461978e-02 -6.921472e-03 0.000000e+00
1.564803e-02 -7.699266e-03 0.000000e+00
1.587922e-02 -8.169926e-03 0.000000e+00
1.470531e-02 -8.143959e-03 0.000000e+00
1.176636e-02 -7.811458e-03 0.000000e+00
6.236810e-03 -7.546801e-03 0.000000e+00
0.000000e+00 0.000000e+00 0.000000e+00
4.574670e-03 -1.041514e-03 0.000000e+00
7.874586e-03 -2.007430e-03 0.000000e+00
1.038713e-02 -2.755133e-03 0.000000e+00
1.234676e-02 -3.274427e-03 0.000000e+00
1.373868e-02 -3.541479e-03 0.000000e+00
1.446843e-02 -3.545375e-03 0.000000e+00
1.432982e-02 -3.220963e-03 0.000000e+00
1.300666e-02 -2.680304e-03 0.000000e+00
1.033445e-02 -2.148453e-03 0.000000e+00
6.613993e-03 -2.122598e-03 0.000000e+00
0.000000e+00 0.000000e+00 0.000000e+00
4.588237e-03 -6.341010e-04 0.000000e+00
7.442429e-03 -1.125748e-03 0.000000e+00
9.633498e-03 -1.403603e-03 0.000000e+00
1.129418e-02 -1.472103e-03 0.000000e+00
1.241651e-02 -1.320801e-03 0.000000e+00
1.288660e-02 -9.169632e-04 0.000000e+00
1.258373e-02 -2.942419e-04 0.000000e+00
1.137282e-02 4.043865e-04 0.000000e+00
9.365813e-03 9.003311e-04 0.000000e+00
7.101574e-03 9.808338e-04 0.000000e+00
0.000000e+00 0.000000e+00 0.000000e+00
4.252805e-03 -3.111327e-04 0.000000e+00
6.743470e-03 -4.912488e-04 0.000000e+00
8.632946e-03 -4.896220e-04 0.000000e+00
1.003117e-02 -2.946500e-04 0.000000e+00
1.093263e-02 1.172837e-04 0.000000e+00
1.124019e-02 7.233635e-04 0.000000e+00
1.090727e-02 1.455375e-03 0.000000e+00
9.965210e-03 2.144489e-03 0.000000e+00
8.618801e-03 2.600107e-03 0.000000e+00
7.295975e-03 2.717092e-03 0.000000e+00
0.000000e+00 0.000000e+00 0.000000e+00
3.725724e-03 -1.258179e-04 0.000000e+00
5.896283e-03 -1.095322e-04 0.000000e+00
7.516832e-03 8.298117e-05 0.000000e+00
8.704553e-03 4.552767e-04 0.000000e+00
9.426529e-03 1.000964e-03 0.000000e+00
9.646583e-03 1.686512e-03 0.000000e+00
9.390280e-03 2.409201e-03 0.000000e+00
8.759107e-03 3.044230e-03 0.000000e+00
7.938380e-03 3.467022e-03 0.000000e+00
7.233934e-03 3.634187e-03 0.000000e+00
0.000000e+00 0.000000e+00 0.000000e+00
3.113061e-03 -3.191546e-05 0.000000e+00
4.986324e-03 1.172871e-04 0.000000e+00
6.383193e-03 4.176366e-04 0.000000e+00
7.384502e-03 8.751565e-04 0.000000e+00
7.975686e-03 1.471795e-03 0.000000e+00
8.171917e-03 2.147517e-03 0.000000e+00
8.041978e-03 2.820631e-03 0.000000e+00
7.682414e-03 3.401964e-03 0.000000e+00
7.250151e-03 3.809591e-03 0.000000e+00
6.950719e-03 4.029181e-03 0.000000e+00
0.000000e+00 0.000000e+00 0.000000e+00
2.495646e-03 1.017573e-05 0.000000e+00
4.087781e-03 2.171952e-04 0.000000e+00
5.283982e-03 5.657711e-04 0.000000e+00
6.125454e-03 1.049876e-03 0.000000e+00
6.627122e-03 1.633262e-03 0.000000e+00
6.840094e-03 2.263280e-03 0.000000e+00
6.829625e-03 2.880924e-03 0.000000e+00
6.679961e-03 3.417611e-03 0.000000e+00
6.517617e-03 3.824125e-03 0.000000e+00
6.475686e-03 4.099962e-03 0.000000e+00
0.000000e+00 0.000000e+00 0.000000e+00
1.922826e-03 2.172860e-05 0.000000e+00
3.247466e-03 2.354593e-04 0.000000e+00
4.251660e-03 5.835174e-04 0.000000e+00
4.960391e-03 1.049366e-03 0.000000e+00
5.405051e-03 1.590564e-03 0.000000e+00
5.638993e-03 2.166036e-03 0.000000e+00
5.717603e-03 2.728627e-03 0.000000e+00
5.715108e-03 3.232230e-03 0.000000e+00
5.726411e-03 3.646215e-03 0.000000e+00
5.836238e-03 3.976172e-03 0.000000e+00
0.000000e+00 0.000000e+00 0.000000e+00
1.424134e-03 1.126235e-05 0.000000e+00
2.488446e-03 2.008548e-04 0.000000e+00
3.315000e-03 5.174942e-04 0.000000e+00
3.907049e-03 9.388457e-04 0.000000e+00
4.304485e-03 1.429163e-03 0.000000e+00
4.545712e-03 1.951102e-03 0.000000e+00
4.679411e-03 2.467768e-03 0.000000e+00
4.766301e-03 2.946603e-03 0.000000e+00
4.874348e-03 3.372799e-03 0.000000e+00
5.058956e-03 3.754601e-03 0.000000e+00
0.000000e+00 0.000000e+00 0.000000e+00
1.011341e-03 -5.335065e-06 0.000000e+00
1.832830e-03 1.399743e-04 0.000000e+00
2.482911e-03 4.077352e-04 0.000000e+00
2.966899e-03 7.772835e-04 0.000000e+00
3.308767e-03 1.217266e-03 0.000000e+00
3.538145e-03 1.692715e-03 0.000000e+00
3.693317e-03 2.172389e-03 0.000000e+00
3.820871e-03 2.634276e-03 0.000000e+00
3.967200e-03 3.072827e-03 0.000000e+00
4.168371e-03 3.500663e-03 0.000000e+00
0.000000e+00 0.000000e+00 0.000000e+00
6.868066e-04 -3.051666e-05 0.000000e+00
1.277055e-03 7.211495e-05 0.000000e+00
1.759313e-03 2.957047e-04 0.000000e+00
2.127545e-03 6.155905e-04 0.000000e+00
2.399499e-03 1.008598e-03 0.000000e+00
2.595422e-03 1.444439e-03 0.000000e+00
2.742778e-03 1.896259e-03 0.000000e+00
2.872413e-03 2.348474e-03 0.000000e+00
3.014341e-03 2.800191e-03 0.000000e+00
3.193163e-03 3.262075e-03 0.000000e+00
0.000000e+00 0.000000e+00 0.000000e+00
4.265377e-04 -5.109856e-05 0.000000e+00
8.028997e-04 1.824894e-05 0.000000e+00
1.121571e-03 2.048551e-04 0.000000e+00
1.372126e-03 4.881350e-04 0.000000e+00
1.559264e-03 8.420610e-04 0.000000e+00
1.701599e-03 1.245879e-03 0.000000e+00
1.815658e-03 1.678134e-03 0.000000e+00
1.918286e-03 2.125155e-03 0.000000e+00
2.027760e-03 2.586396e-03 0.000000e+00
2.159018e-03 3.072394e-03 0.000000e+00
0.000000e+00 0.000000e+00 0.000000e+00
2.055759e-04 -6.274038e-05 0.000000e+00
3.871065e-04 -1.018110e-05 0.000000e+00
5.446459e-04 1.526246e-04 0.000000e+00
6.722706e-04 4.120394e-04 0.000000e+00
7.677473e-04 7.430470e-04 0.000000e+00
8.415731e-04 1.125011e-03 0.000000e+00
9.033142e-04 1.543372e-03 0.000000e+00
9.597723e-04 1.986599e-03 0.000000e+00
1.019054e-03 2.453624e-03 0.000000e+00
1.087627e-03 2.953152e-03 0.000000e+00
0.000000e+00 0.000000e+00 0.000000e+00
0.000000e+00 -5.392599e-05 0.000000e+00
0.000000e+00 -5.088584e-06 0.000000e+00
0.000000e+00 1.494739e-04 0.000000e+00
0.000000e+00 4.000050e-04 0.000000e+00
0.000000e+00 7.219035e-04 0.000000e+00
0.000000e+00 1.095568e-03 0.000000e+00
0.000000e+00 1.506812e-03 0.000000e+00
0.000000e+00 1.946473e-03 0.000000e+00
0.000000e+00 2.413140e-03 0.000000e+00
0.000000e+00 2.915371e-03 0.000000e+00
</DataArray>
<DataArray Name="shear" type="Float64" NumberOfComponents="1" format="ascii">
1.637093e-02
2.369350e-02
3.828945e-02
5.467601e-02
6.678218e-02
7.202251e-02
7.136071e-02
6.207050e-02
4.317116e-02
2.544857e-02
1.979524e-02
1.765335e-02
2.483825e-02
3.732356e-02
4.936623e-02
5.949160e-02
6.647780e-02
6.953873e-02
6.709362e-02
5.802767e-02
4.208634e-02
2.932454e-02
2.092340e-02
2.659658e-02
3.485562e-02
4.167337e-02
4.962176e-02
5.989151e-02
7.173322e-02
8.370163e-02
9.471980e-02
9.898384e-02
9.782638e-02
2.317562e-02
2.496098e-02
2.711562e-02
2.980981e-02
3.395568e-02
3.998323e-02
4.829837e-02
5.827159e-02
7.014340e-02
8.212975e-02
9.122127e-02
2.387927e-02
2.212927e-02
1.919529e-02
1.827324e-02
1.820949e-02
1.821526e-02
1.789255e-02
1.651447e-02
1.310636e-02
6.702859e-03
8.774454e-04
2.344551e-02
2.029281e-02
1.606069e-02
1.499028e-02
1.459220e-02
1.427708e-02
1.375196e-02
1.246476e-02
9.688865e-03
4.845541e-03
1.241463e-03
2.154689e-02
1.797494e-02
1.356617e-02
1.264858e-02
1.236850e-02
1.221288e-02
1.183407e-02
1.077040e-02
8.434161e-03
4.606752e-03
1.796611e-03
1.879132e-02
1.551411e-02
1.170097e-02
1.105407e-02
1.095506e-02
1.093417e-02
1.063801e-02
9.648550e-03
7.659941e-03
4.648295e-03
2.515280e-03
1.569478e-02
1.310336e-02
1.024636e-02
9.814349e-03
9.840271e-03
9.890255e-03
9.619497e-03
8.752748e-03
7.144298e-03
4.861018e-03
3.345384e-03
1.259810e-02
1.078418e-02
8.898467e-03
8.691708e-03
8.820477e-03
8.913422e-03
8.708171e-03
8.034805e-03
6.817996e-03
5.193771e-03
4.189602e-03
9.723310e-03
8.608405e-03
7.578457e-03
7.604045e-03
7.846237e-03
8.006768e-03
7.914405e-03
7.462483e-03
6.630020e-03
5.582084e-03
4.981082e-03
7.212780e-03
6.631795e-03
6.271253e-03
6.537417e-03
6.926058e-03
7.203675e-03
7.250500e-03
7.016838e-03
6.536910e-03
5.975480e-03
5.689085e-03
5.127335e-03
4.896907e-03
5.013869e-03
5.533772e-03
6.099300e-03
6.520930e-03
6.715619e-03
6.685140e-03
6.506228e-03
6.329350e-03
6.279925e-03
3.466768e-03
3.430302e-03
3.910231e-03
4.670893e-03
5.395221e-03
5.955757e-03
6.297528e-03
6.451619e-03
6.515386e-03
6.613425e-03
6.722709e-03
2.145082e-03
2.242390e-03
3.032992e-03
4.011750e-03
4.861107e-03
5.520757e-03
5.986557e-03
6.295071e-03
6.535941e-03
6.815560e-03
7.026397e-03
1.039111e-03
1.333748e-03
2.448655e-03
3.586693e-03
4.531439e-03
5.248823e-03
5.785191e-03
6.193816e-03
6.545936e-03
6.931041e-03
7.197101e-03
3.563537e-04
9.473498e-04
2.242895e-03
3.435082e-03
4.415412e-03
5.153981e-03
5.711458e-03
6.152968e-03
6.543759e-03
6.963919e-03
7.247126e-03
</DataArray>
<DataArray Name="stress" type="Float64" NumberOfComponents="9" format="ascii">
-1.149802e+05 5.230448e+03 0.000000e+00 5.230448e+03 -1.946005e+05 0.000000e+00 0.000000e+00 0.000000e+00 0.000000e+00
-1.014391e+05 4.064609e+03 0.000000e+00 4.064609e+03 -1.939697e+05 0.000000e+00 0.000000e+00 0.000000e+00 0.000000e+00
-9.647985e+04 3.018107e+03 0.000000e+00 3.018107e+03 -2.038139e+05 0.000000e+00 0.000000e+00 0.000000e+00 0.000000e+00
-1.059765e+05 2.760324e+03 0.000000e+00 2.760324e+03 -2.058043e+05 0.000000e+00 0.000000e+00 0.000000e+00 0.000000e+00
-1.124227e+05 4.756439e+03 0.000000e+00 4.756439e+03 -2.137781e+05 0.000000e+00 0.000000e+00 0.000000e+00 0.000000e+00
-1.171132e+05 7.517677e+03 0.000000e+00 7.517677e+03 -2.240757e+05 0.000000e+00 0.000000e+00 0.000000e+00 0.000000e+00
-1.245302e+05 1.023828e+04 0.000000e+00 1.023828e+04 -2.371373e+05 0.000000e+00 0.000000e+00 0.000000e+00 0.000000e+00
-1.328599e+05 9.741855e+03 0.000000e+00 9.741855e+03 -2.469808e+05 0.000000e+00 0.000000e+00 0.000000e+00 0.000000e+00
-1.306685e+05 4.993378e+03 0.000000e+00 4.993378e+03 -2.648084e+05 0.000000e+00 0.000000e+00 0.000000e+00 0.000000e+00
-1.438182e+05 -9.240436e+02 0.000000e+00 -9.240436e+02 -2.670292e+05 0.000000e+00 0.000000e+00 0.000000e+00 0.000000e+00
-1.509394e+05 -9.611427e+02 0.000000e+00 -9.611427e+02 -2.601516e+05 0.000000e+00 0.000000e+00 0.000000e+00 0.000000e+00
-1.147988e+05 1.526402e+04 0.000000e+00 1.526402e+04 -1.877080e+05 0.000000e+00 0.000000e+00 0.000000e+00 0.000000e+00
-1.012417e+05 1.283541e+04 0.000000e+00 1.283541e+04 -1.851912e+05 0.000000e+00 0.000000e+00 0.000000e+00 0.000000e+00
-9.671309e+04 1.126934e+04 0.000000e+00 1.126934e+04 -1.949163e+05 0.000000e+00 0.000000e+00 0.000000e+00 0.000000e+00
-1.037862e+05 1.142266e+04 0.000000e+00 1.142266e+04 -2.050665e+05 0.000000e+00 0.000000e+00 0.000000e+00 0.000000e+00
-1.115051e+05 1.231145e+04 0.000000e+00 1.231145e+04 -2.174369e+05 0.000000e+00 0.000000e+00 0.000000e+00 0.000000e+00
-1.178479e+05 1.386248e+04 0.000000e+00 1.386248e+04 -2.282958e+05 0.000000e+00 0.000000e+00 0.000000e+00 0.000000e+00
-1.234308e+05 1.473115e+04 0.000000e+00 1.473115e+04 -2.382503e+05 0.000000e+00 0.000000e+00 0.000000e+00 0.000000e+00
-1.304626e+05 1.188019e+04 0.000000e+00 1.188019e+04 -2.447968e+05 0.000000e+00 0.000000e+00 0.000000e+00 0.000000e+00
-1.331418e+05 6.999600e+03 0.000000e+00 6.999600e+03 -2.590858e+05 0.000000e+00 0.000000e+00 0.000000e+00 0.000000e+00
-1.382474e+05 -4.295084e+02 0.000000e+00 -4.295084e+02 -2.622758e+05 0.000000e+00 0.000000e+00 0.000000e+00 0.000000e+00
-1.559918e+05 -6.855700e+03 0.000000e+00 -6.855700e+03 -2.884749e+05 0.000000e+00 0.000000e+00 0.000000e+00 0.000000e+00
-1.116556e+05 2.613212e+04 0.000000e+00 2.613212e+04 -1.641810e+05 0.000000e+00 0.000000e+00 0.000000e+00 0.000000e+00
-9.992224e+04 2.306761e+04 0.000000e+00 2.306761e+04 -1.590384e+05 0.000000e+00 0.000000e+00 0.000000e+00 0.000000e+00
-9.860652e+04 2.283005e+04 0.000000e+00 2.283005e+04 -1.661758e+05 0.000000e+00 0.000000e+00 0.000000e+00 0.000000e+00
-1.055331e+05 2.556307e+04 0.000000e+00 2.556307e+04 -1.769841e+05 0.000000e+00 0.000000e+00 0.000000e+00 0.000000e+00
-1.136052e+05 2.765398e+04 0.000000e+00 2.765398e+04 -1.872461e+05 0.000000e+00 0.000000e+00 0.000000e+00 0.000000e+00
-1.222462e+05 2.996938e+04 0.000000e+00 2.996938e+04 -1.981460e+05 0.000000e+00 0.000000e+00 0.000000e+00 0.000000e+00
-1.323331e+05 3.144923e+04 0.000000e+00 3.144923e+04 -2.114410e+05 0.000000e+00 0.000000e+00 0.000000e+00 0.000000e+00
-1.467156e+05 3.283728e+04 0.000000e+00 3.283728e+04 -2.254315e+05 0.000000e+00 0.000000e+00 0.000000e+00 0.000000e+00
-1.557176e+05 3.230477e+04 0.000000e+00 3.230477e+04 -2.433117e+05 0.000000e+00 0.000000e+00 0.000000e+00 0.000000e+00
-1.624254e+05 2.396403e+04 0.000000e+00 2.396403e+04 -2.598861e+05 0.000000e+00 0.000000e+00 0.000000e+00 0.000000e+00
-1.798152e+05 7.641056e+03 0.000000e+00 7.641056e+03 -3.004427e+05 0.000000e+00 0.000000e+00 0.000000e+00 0.000000e+00
-1.023419e+05 2.787991e+04 0.000000e+00 2.787991e+04 -1.306783e+05 0.000000e+00 0.000000e+00 0.000000e+00 0.000000e+00
-9.446543e+04 2.581974e+04 0.000000e+00 2.581974e+04 -1.260758e+05 0.000000e+00 0.000000e+00 0.000000e+00 0.000000e+00
-9.552577e+04 2.642397e+04 0.000000e+00 2.642397e+04 -1.270837e+05 0.000000e+00 0.000000e+00 0.000000e+00 0.000000e+00
-1.018493e+05 2.849266e+04 0.000000e+00 2.849266e+04 -1.274475e+05 0.000000e+00 0.000000e+00 0.000000e+00 0.000000e+00
-1.075459e+05 2.958761e+04 0.000000e+00 2.958761e+04 -1.254109e+05 0.000000e+00 0.000000e+00 0.000000e+00 0.000000e+00
-1.116398e+05 3.100750e+04 0.000000e+00 3.100750e+04 -1.227115e+05 0.000000e+00 0.000000e+00 0.000000e+00 0.000000e+00
-1.136485e+05 3.061376e+04 0.000000e+00 3.061376e+04 -1.171449e+05 0.000000e+00 0.000000e+00 0.000000e+00 0.000000e+00
-1.131233e+05 2.835499e+04 0.000000e+00 2.835499e+04 -1.082586e+05 0.000000e+00 0.000000e+00 0.000000e+00 0.000000e+00
-1.068617e+05 2.337532e+04 0.000000e+00 2.337532e+04 -9.690535e+04 0.000000e+00 0.000000e+00 0.000000e+00 0.000000e+00
-8.662297e+04 1.442745e+04 0.000000e+00 1.442745e+04 -7.943140e+04 0.000000e+00 0.000000e+00 0.000000e+00 0.000000e+00
-6.341988e+04 9.334773e+03 0.000000e+00 9.334773e+03 -6.739044e+04 0.000000e+00 0.000000e+00 0.000000e+00 0.000000e+00
-9.811370e+04 2.737240e+04 0.000000e+00 2.737240e+04 -1.127807e+05 0.000000e+00 0.000000e+00 0.000000e+00 0.000000e+00
-9.478917e+04 2.633901e+04 0.000000e+00 2.633901e+04 -1.108577e+05 0.000000e+00 0.000000e+00 0.000000e+00 0.000000e+00
-9.910953e+04 2.684134e+04 0.000000e+00 2.684134e+04 -1.114444e+05 0.000000e+00 0.000000e+00 0.000000e+00 0.000000e+00
-1.064142e+05 2.772638e+04 0.000000e+00 2.772638e+04 -1.097291e+05 0.000000e+00 0.000000e+00 0.000000e+00 0.000000e+00
-1.131300e+05 2.787522e+04 0.000000e+00 2.787522e+04 -1.063406e+05 0.000000e+00 0.000000e+00 0.000000e+00 0.000000e+00
-1.177855e+05 2.706103e+04 0.000000e+00 2.706103e+04 -1.011129e+05 0.000000e+00 0.000000e+00 0.000000e+00 0.000000e+00
-1.208096e+05 2.491829e+04 0.000000e+00 2.491829e+04 -9.432820e+04 0.000000e+00 0.000000e+00 0.000000e+00 0.000000e+00
-1.215702e+05 2.064945e+04 0.000000e+00 2.064945e+04 -8.624901e+04 0.000000e+00 0.000000e+00 0.000000e+00 0.000000e+00
-1.157159e+05 1.374261e+04 0.000000e+00 1.374261e+04 -7.685347e+04 0.000000e+00 0.000000e+00 0.000000e+00 0.000000e+00
-9.527702e+04 4.911217e+03 0.000000e+00 4.911217e+03 -6.860495e+04 0.000000e+00 0.000000e+00 0.000000e+00 0.000000e+00
-6.115169e+04 2.803047e+02 0.000000e+00 2.803047e+02 -5.704014e+04 0.000000e+00 0.000000e+00 0.000000e+00 0.000000e+00
-9.214519e+04 2.579672e+04 0.000000e+00 2.579672e+04 -9.913138e+04 0.000000e+00 0.000000e+00 0.000000e+00 0.000000e+00
-9.351779e+04 2.554699e+04 0.000000e+00 2.554699e+04 -9.885344e+04 0.000000e+00 0.000000e+00 0.000000e+00 0.000000e+00
-9.961623e+04 2.503900e+04 0.000000e+00 2.503900e+04 -9.742600e+04 0.000000e+00 0.000000e+00 0.000000e+00 0.000000e+00
-1.067675e+05 2.441038e+04 0.000000e+00 2.441038e+04 -9.416280e+04 0.000000e+00 0.000000e+00 0.000000e+00 0.000000e+00
-1.124086e+05 2.306924e+04 0.000000e+00 2.306924e+04 -9.013415e+04 0.000000e+00 0.000000e+00 0.000000e+00 0.000000e+00
-1.158855e+05 2.074935e+04 0.000000e+00 2.074935e+04 -8.514802e+04 0.000000e+00 0.000000e+00 0.000000e+00 0.000000e+00
-1.171547e+05 1.711695e+04 0.000000e+00 1.711695e+04 -7.925000e+04 0.000000e+00 0.000000e+00 0.000000e+00 0.000000e+00
-1.153567e+05 1.175065e+04 0.000000e+00 1.175065e+04 -7.296123e+04 0.000000e+00 0.000000e+00 0.000000e+00 0.000000e+00
-1.073014e+05 4.840062e+03 0.000000e+00 4.840062e+03 -6.699718e+04 0.000000e+00 0.000000e+00 0.000000e+00 0.000000e+00
-8.693824e+04 -1.167485e+03 0.000000e+00 -1.167485e+03 -6.242989e+04 0.000000e+00 0.000000e+00 0.000000e+00 0.000000e+00
-6.053796e+04 -2.926835e+03 0.000000e+00 -2.926835e+03 -5.654631e+04 0.000000e+00 0.000000e+00 0.000000e+00 0.000000e+00
-8.553000e+04 2.391096e+04 0.000000e+00 2.391096e+04 -8.791934e+04 0.000000e+00 0.000000e+00 0.000000e+00 0.000000e+00
-9.186120e+04 2.375173e+04 0.000000e+00 2.375173e+04 -8.893550e+04 0.000000e+00 0.000000e+00 0.000000e+00 0.000000e+00
-9.902845e+04 2.216155e+04 0.000000e+00 2.216155e+04 -8.637711e+04 0.000000e+00 0.000000e+00 0.000000e+00 0.000000e+00
-1.055575e+05 2.065354e+04 0.000000e+00 2.065354e+04 -8.329324e+04 0.000000e+00 0.000000e+00 0.000000e+00 0.000000e+00
-1.100138e+05 1.832010e+04 0.000000e+00 1.832010e+04 -7.944484e+04 0.000000e+00 0.000000e+00 0.000000e+00 0.000000e+00
-1.123357e+05 1.505689e+04 0.000000e+00 1.505689e+04 -7.507018e+04 0.000000e+00 0.000000e+00 0.000000e+00 0.000000e+00
-1.121802e+05 1.083328e+04 0.000000e+00 1.083328e+04 -7.046978e+04 0.000000e+00 0.000000e+00 0.000000e+00 0.000000e+00
-1.088221e+05 5.594590e+03 0.000000e+00 5.594590e+03 -6.607962e+04 0.000000e+00 0.000000e+00 0.000000e+00 0.000000e+00
-1.002335e+05 4.144365e+00 0.000000e+00 4.144365e+00 -6.248200e+04 0.000000e+00 0.000000e+00 0.000000e+00 0.000000e+00
-8.407339e+04 -3.103249e+03 0.000000e+00 -3.103249e+03 -6.034225e+04 0.000000e+00 0.000000e+00 0.000000e+00 0.000000e+00
-6.664029e+04 -3.295185e+03 0.000000e+00 -3.295185e+03 -5.734943e+04 0.000000e+00 0.000000e+00 0.000000e+00 0.000000e+00
-8.024566e+04 2.188771e+04 0.000000e+00 2.188771e+04 -7.950783e+04 0.000000e+00 0.000000e+00 0.000000e+00 0.000000e+00
-8.952209e+04 2.155430e+04 0.000000e+00 2.155430e+04 -8.110736e+04 0.000000e+00 0.000000e+00 0.000000e+00 0.000000e+00
-9.737334e+04 1.928583e+04 0.000000e+00 1.928583e+04 -7.838725e+04 0.000000e+00 0.000000e+00 0.000000e+00 0.000000e+00
-1.031039e+05 1.696426e+04 0.000000e+00 1.696426e+04 -7.542488e+04 0.000000e+00 0.000000e+00 0.000000e+00 0.000000e+00
-1.067103e+05 1.402351e+04 0.000000e+00 1.402351e+04 -7.208669e+04 0.000000e+00 0.000000e+00 0.000000e+00 0.000000e+00
-1.081719e+05 1.048766e+04 0.000000e+00 1.048766e+04 -6.869414e+04 0.000000e+00 0.000000e+00 0.000000e+00 0.000000e+00
-1.071669e+05 6.305060e+03 0.000000e+00 6.305060e+03 -6.531312e+04 0.000000e+00 0.000000e+00 0.000000e+00 0.000000e+00
-1.031815e+05 1.725787e+03 0.000000e+00 1.725787e+03 -6.234948e+04 0.000000e+00 0.000000e+00 0.000000e+00 0.000000e+00
-9.553411e+04 -2.204585e+03 0.000000e+00 -2.204585e+03 -6.041102e+04 0.000000e+00 0.000000e+00 0.000000e+00 0.000000e+00
-8.404247e+04 -3.410256e+03 0.000000e+00 -3.410256e+03 -5.964268e+04 0.000000e+00 0.000000e+00 0.000000e+00 0.000000e+00
-7.304023e+04 -2.850615e+03 0.000000e+00 -2.850615e+03 -5.795444e+04 0.000000e+00 0.000000e+00 0.000000e+00 0.000000e+00
-7.643073e+04 1.990177e+04 0.000000e+00 1.990177e+04 -7.336891e+04 0.000000e+00 0.000000e+00 0.000000e+00 0.000000e+00
-8.668234e+04 1.934684e+04 0.000000e+00 1.934684e+04 -7.510645e+04 0.000000e+00 0.000000e+00 0.000000e+00 0.000000e+00
-9.486848e+04 1.651910e+04 0.000000e+00 1.651910e+04 -7.243371e+04 0.000000e+00 0.000000e+00 0.000000e+00 0.000000e+00
-1.001224e+05 1.371798e+04 0.000000e+00 1.371798e+04 -6.983225e+04 0.000000e+00 0.000000e+00 0.000000e+00 0.000000e+00
-1.031277e+05 1.061200e+04 0.000000e+00 1.061200e+04 -6.719217e+04 0.000000e+00 0.000000e+00 0.000000e+00 0.000000e+00
-1.040118e+05 7.065149e+03 0.000000e+00 7.065149e+03 -6.461334e+04 0.000000e+00 0.000000e+00 0.000000e+00 0.000000e+00
-1.025970e+05 3.209917e+03 0.000000e+00 3.209917e+03 -6.220246e+04 0.000000e+00 0.000000e+00 0.000000e+00 0.000000e+00
-9.878713e+04 -4.518651e+02 0.000000e+00 -4.518651e+02 -6.039802e+04 0.000000e+00 0.000000e+00 0.000000e+00 0.000000e+00
-9.285362e+04 -2.987627e+03 0.000000e+00 -2.987627e+03 -5.955950e+04 0.000000e+00 0.000000e+00 0.000000e+00 0.000000e+00
-8.526464e+04 -3.104479e+03 0.000000e+00 -3.104479e+03 -5.947160e+04 0.000000e+00 0.000000e+00 0.000000e+00 0.000000e+00
-7.861151e+04 -2.231404e+03 0.000000e+00 -2.231404e+03 -5.850965e+04 0.000000e+00 0.000000e+00 0.000000e+00 0.000000e+00
-7.316749e+04 1.770458e+04 0.000000e+00 1.770458e+04 -6.906029e+04 0.000000e+00 0.000000e+00 0.000000e+00 0.000000e+00
-8.354124e+04 1.707282e+04 0.000000e+00 1.707282e+04 -7.065037e+04 0.000000e+00 0.000000e+00 0.000000e+00 0.000000e+00
-9.188259e+04 1.401426e+04 0.000000e+00 1.401426e+04 -6.813989e+04 0.000000e+00 0.000000e+00 0.000000e+00 0.000000e+00
-9.688551e+04 1.108822e+04 0.000000e+00 1.108822e+04 -6.602192e+04 0.000000e+00 0.000000e+00 0.000000e+00 0.000000e+00
-9.949662e+04 7.954438e+03 0.000000e+00 7.954438e+03 -6.395526e+04 0.000000e+00 0.000000e+00 0.000000e+00 0.000000e+00
-1.000968e+05 4.597391e+03 0.000000e+00 4.597391e+03 -6.203261e+04 0.000000e+00 0.000000e+00 0.000000e+00 0.000000e+00
-9.868662e+04 1.264062e+03 0.000000e+00 1.264062e+03 -6.043886e+04 0.000000e+00 0.000000e+00 0.000000e+00 0.000000e+00
-9.565016e+04 -1.505629e+03 0.000000e+00 -1.505629e+03 -5.948372e+04 0.000000e+00 0.000000e+00 0.000000e+00 0.000000e+00
-9.156052e+04 -3.025492e+03 0.000000e+00 -3.025492e+03 -5.924821e+04 0.000000e+00 0.000000e+00 0.000000e+00 0.000000e+00
-8.691382e+04 -2.608815e+03 0.000000e+00 -2.608815e+03 -5.947068e+04 0.000000e+00 0.000000e+00 0.000000e+00 0.000000e+00
-8.307280e+04 -1.668608e+03 0.000000e+00 -1.668608e+03 -5.900360e+04 0.000000e+00 0.000000e+00 0.000000e+00 0.000000e+00
-7.023780e+04 1.559586e+04 0.000000e+00 1.559586e+04 -6.618975e+04 0.000000e+00 0.000000e+00 0.000000e+00 0.000000e+00
-8.035409e+04 1.488786e+04 0.000000e+00 1.488786e+04 -6.752117e+04 0.000000e+00 0.000000e+00 0.000000e+00 0.000000e+00
-8.877397e+04 1.187444e+04 0.000000e+00 1.187444e+04 -6.527507e+04 0.000000e+00 0.000000e+00 0.000000e+00 0.000000e+00
-9.359353e+04 8.972240e+03 0.000000e+00 8.972240e+03 -6.350893e+04 0.000000e+00 0.000000e+00 0.000000e+00 0.000000e+00
-9.600121e+04 5.952580e+03 0.000000e+00 5.952580e+03 -6.188886e+04 0.000000e+00 0.000000e+00 0.000000e+00 0.000000e+00
-9.655028e+04 2.906082e+03 0.000000e+00 2.906082e+03 -6.048761e+04 0.000000e+00 0.000000e+00 0.000000e+00 0.000000e+00
-9.554569e+04 1.461234e+02 0.000000e+00 1.461234e+02 -5.951467e+04 0.000000e+00 0.000000e+00 0.000000e+00 0.000000e+00
-9.353100e+04 -1.866643e+03 0.000000e+00 -1.866643e+03 -5.909502e+04 0.000000e+00 0.000000e+00 0.000000e+00 0.000000e+00
-9.107606e+04 -2.710529e+03 0.000000e+00 -2.710529e+03 -5.918578e+04 0.000000e+00 0.000000e+00 0.000000e+00 0.000000e+00
-8.857855e+04 -2.094402e+03 0.000000e+00 -2.094402e+03 -5.954115e+04 0.000000e+00 0.000000e+00 0.000000e+00 0.000000e+00
-8.664034e+04 -1.229024e+03 0.000000e+00 -1.229024e+03 -5.939572e+04 0.000000e+00 0.000000e+00 0.000000e+00 0.000000e+00
-6.798124e+04 1.341224e+04 0.000000e+00 1.341224e+04 -6.457933e+04 0.000000e+00 0.000000e+00 0.000000e+00 0.000000e+00
-7.740163e+04 1.270239e+04 0.000000e+00 1.270239e+04 -6.547104e+04 0.000000e+00 0.000000e+00 0.000000e+00 0.000000e+00
-8.568459e+04 9.969506e+03 0.000000e+00 9.969506e+03 -6.342256e+04 0.000000e+00 0.000000e+00 0.000000e+00 0.000000e+00
-9.043143e+04 7.220418e+03 0.000000e+00 7.220418e+03 -6.191468e+04 0.000000e+00 0.000000e+00 0.000000e+00 0.000000e+00
-9.279330e+04 4.442979e+03 0.000000e+00 4.442979e+03 -6.059520e+04 0.000000e+00 0.000000e+00 0.000000e+00 0.000000e+00
-9.351485e+04 1.797699e+03 0.000000e+00 1.797699e+03 -5.959213e+04 0.000000e+00 0.000000e+00 0.000000e+00 0.000000e+00
-9.313288e+04 -3.995189e+02 0.000000e+00 -3.995189e+02 -5.904755e+04 0.000000e+00 0.000000e+00 0.000000e+00 0.000000e+00
-9.215751e+04 -1.826442e+03 0.000000e+00 -1.826442e+03 -5.896843e+04 0.000000e+00 0.000000e+00 0.000000e+00 0.000000e+00
-9.104080e+04 -2.261877e+03 0.000000e+00 -2.261877e+03 -5.922736e+04 0.000000e+00 0.000000e+00 0.000000e+00 0.000000e+00
-9.004410e+04 -1.612878e+03 0.000000e+00 -1.612878e+03 -5.961214e+04 0.000000e+00 0.000000e+00 0.000000e+00 0.000000e+00
-8.939640e+04 -8.757068e+02 0.000000e+00 -8.757068e+02 -5.968605e+04 0.000000e+00 0.000000e+00 0.000000e+00 0.000000e+00
-6.670341e+04 1.121438e+04 0.000000e+00 1.121438e+04 -6.392807e+04 0.000000e+00 0.000000e+00 0.000000e+00 0.000000e+00
-7.498579e+04 1.050190e+04 0.000000e+00 1.050190e+04 -6.430566e+04 0.000000e+00 0.000000e+00 0.000000e+00 0.000000e+00
-8.289111e+04 8.201382e+03 0.000000e+00 8.201382e+03 -6.238878e+04 0.000000e+00 0.000000e+00 0.000000e+00 0.000000e+00
-8.753060e+04 5.726917e+03 0.000000e+00 5.726917e+03 -6.096155e+04 0.000000e+00 0.000000e+00 0.000000e+00 0.000000e+00
-8.994427e+04 3.272710e+03 0.000000e+00 3.272710e+03 -5.984099e+04 0.000000e+00 0.000000e+00 0.000000e+00 0.000000e+00
-9.101674e+04 1.099465e+03 0.000000e+00 1.099465e+03 -5.912607e+04 0.000000e+00 0.000000e+00 0.000000e+00 0.000000e+00
-9.132547e+04 -5.704962e+02 0.000000e+00 -5.704962e+02 -5.885723e+04 0.000000e+00 0.000000e+00 0.000000e+00 0.000000e+00
-9.128867e+04 -1.565788e+03 0.000000e+00 -1.565788e+03 -5.896802e+04 0.000000e+00 0.000000e+00 0.000000e+00 0.000000e+00
-9.120316e+04 -1.780226e+03 0.000000e+00 -1.780226e+03 -5.930827e+04 0.000000e+00 0.000000e+00 0.000000e+00 0.000000e+00
-9.125010e+04 -1.205277e+03 0.000000e+00 -1.205277e+03 -5.968662e+04 0.000000e+00 0.000000e+00 0.000000e+00 0.000000e+00
-9.144307e+04 -6.166778e+02 0.000000e+00 -6.166778e+02 -5.991692e+04 0.000000e+00 0.000000e+00 0.000000e+00 0.000000e+00
-6.584626e+04 8.773322e+03 0.000000e+00 8.773322e+03 -6.409570e+04 0.000000e+00 0.000000e+00 0.000000e+00 0.000000e+00
-7.302776e+04 8.160351e+03 0.000000e+00 8.160351e+03 -6.394331e+04 0.000000e+00 0.000000e+00 0.000000e+00 0.000000e+00
-8.042854e+04 6.333775e+03 0.000000e+00 6.333775e+03 -6.198828e+04 0.000000e+00 0.000000e+00 0.000000e+00 0.000000e+00
-8.497310e+04 4.284328e+03 0.000000e+00 4.284328e+03 -6.048711e+04 0.000000e+00 0.000000e+00 0.000000e+00 0.000000e+00
-8.762009e+04 2.323304e+03 0.000000e+00 2.323304e+03 -5.944775e+04 0.000000e+00 0.000000e+00 0.000000e+00 0.000000e+00
-8.911539e+04 6.693473e+02 0.000000e+00 6.693473e+02 -5.890962e+04 0.000000e+00 0.000000e+00 0.000000e+00 0.000000e+00
-9.003122e+04 -5.292447e+02 0.000000e+00 -5.292447e+02 -5.880181e+04 0.000000e+00 0.000000e+00 0.000000e+00 0.000000e+00
-9.072556e+04 -1.196672e+03 0.000000e+00 -1.196672e+03 -5.901163e+04 0.000000e+00 0.000000e+00 0.000000e+00 0.000000e+00
-9.139950e+04 -1.299502e+03 0.000000e+00 -1.299502e+03 -5.937837e+04 0.000000e+00 0.000000e+00 0.000000e+00 0.000000e+00
-9.219016e+04 -8.468596e+02 0.000000e+00 -8.468596e+02 -5.973046e+04 0.000000e+00 0.000000e+00 0.000000e+00 0.000000e+00
-9.296870e+04 -4.136655e+02 0.000000e+00 -4.136655e+02 -6.006030e+04 0.000000e+00 0.000000e+00 0.000000e+00 0.000000e+00
-6.526341e+04 6.022616e+03 0.000000e+00 6.022616e+03 -6.449782e+04 0.000000e+00 0.000000e+00 0.000000e+00 0.000000e+00
-7.157542e+04 5.576884e+03 0.000000e+00 5.576884e+03 -6.402021e+04 0.000000e+00 0.000000e+00 0.000000e+00 0.000000e+00
-7.851986e+04 4.302683e+03 0.000000e+00 4.302683e+03 -6.188765e+04 0.000000e+00 0.000000e+00 0.000000e+00 0.000000e+00
-8.299724e+04 2.836542e+03 0.000000e+00 2.836542e+03 -6.032414e+04 0.000000e+00 0.000000e+00 0.000000e+00 0.000000e+00
-8.589477e+04 1.484261e+03 0.000000e+00 1.484261e+03 -5.930439e+04 0.000000e+00 0.000000e+00 0.000000e+00 0.000000e+00
-8.780656e+04 3.891832e+02 0.000000e+00 3.891832e+02 -5.884959e+04 0.000000e+00 0.000000e+00 0.000000e+00 0.000000e+00
-8.916794e+04 -3.780570e+02 0.000000e+00 -3.780570e+02 -5.882468e+04 0.000000e+00 0.000000e+00 0.000000e+00 0.000000e+00
-9.036686e+04 -7.939456e+02 0.000000e+00 -7.939456e+02 -5.907720e+04 0.000000e+00 0.000000e+00 0.000000e+00 0.000000e+00
-9.157278e+04 -8.419766e+02 0.000000e+00 -8.419766e+02 -5.944627e+04 0.000000e+00 0.000000e+00 0.000000e+00 0.000000e+00
-9.285467e+04 -5.304385e+02 0.000000e+00 -5.304385e+02 -5.976771e+04 0.000000e+00 0.000000e+00 0.000000e+00 0.000000e+00
-9.397577e+04 -2.453303e+02 0.000000e+00 -2.453303e+02 -6.015687e+04 0.000000e+00 0.000000e+00 0.000000e+00 0.000000e+00
-6.492588e+04 2.991427e+03 0.000000e+00 2.991427e+03 -6.468077e+04 0.000000e+00 0.000000e+00 0.000000e+00 0.000000e+00
-7.071280e+04 2.768370e+03 0.000000e+00 2.768370e+03 -6.405605e+04 0.000000e+00 0.000000e+00 0.000000e+00 0.000000e+00
-7.731706e+04 2.146872e+03 0.000000e+00 2.146872e+03 -6.181902e+04 0.000000e+00 0.000000e+00 0.000000e+00 0.000000e+00
-8.177112e+04 1.400127e+03 0.000000e+00 1.400127e+03 -6.027060e+04 0.000000e+00 0.000000e+00 0.000000e+00 0.000000e+00
-8.483634e+04 7.210760e+02 0.000000e+00 7.210760e+02 -5.931590e+04 0.000000e+00 0.000000e+00 0.000000e+00 0.000000e+00
-8.702934e+04 1.788226e+02 0.000000e+00 1.788226e+02 -5.889658e+04 0.000000e+00 0.000000e+00 0.000000e+00 0.000000e+00
-8.868265e+04 -1.912755e+02 0.000000e+00 -1.912755e+02 -5.889765e+04 0.000000e+00 0.000000e+00 0.000000e+00 0.000000e+00
-9.017341e+04 -3.909774e+02 0.000000e+00 -3.909774e+02 -5.915377e+04 0.000000e+00 0.000000e+00 0.000000e+00 0.000000e+00
-9.168427e+04 -4.100735e+02 0.000000e+00 -4.100735e+02 -5.950881e+04 0.000000e+00 0.000000e+00 0.000000e+00 0.000000e+00
-9.324055e+04 -2.504023e+02 0.000000e+00 -2.504023e+02 -5.980784e+04 0.000000e+00 0.000000e+00 0.000000e+00 0.000000e+00
-9.454274e+04 -1.052528e+02 0.000000e+00 -1.052528e+02 -6.020466e+04 0.000000e+00 0.000000e+00 0.000000e+00 0.000000e+00
-6.470358e+04 7.791067e+02 0.000000e+00 7.791067e+02 -6.445925e+04 0.000000e+00 0.000000e+00 0.000000e+00 0.000000e+00
-7.037965e+04 7.815081e+02 0.000000e+00 7.815081e+02 -6.390461e+04 0.000000e+00 0.000000e+00 0.000000e+00 0.000000e+00
-7.690627e+04 6.162629e+02 0.000000e+00 6.162629e+02 -6.177802e+04 0.000000e+00 0.000000e+00 0.000000e+00 0.000000e+00
-8.137230e+04 3.429433e+02 0.000000e+00 3.429433e+02 -6.025716e+04 0.000000e+00 0.000000e+00 0.000000e+00 0.000000e+00
-8.449196e+04 9.226637e+01 0.000000e+00 9.226637e+01 -5.934886e+04 0.000000e+00 0.000000e+00 0.000000e+00 0.000000e+00
-8.678158e+04 -1.098243e+02 0.000000e+00 -1.098243e+02 -5.893847e+04 0.000000e+00 0.000000e+00 0.000000e+00 0.000000e+00
-8.854163e+04 -2.503300e+02 0.000000e+00 -2.503300e+02 -5.894293e+04 0.000000e+00 0.000000e+00 0.000000e+00 0.000000e+00
-9.012923e+04 -3.269314e+02 0.000000e+00 -3.269314e+02 -5.920679e+04 0.000000e+00 0.000000e+00 0.000000e+00 0.000000e+00
-9.174229e+04 -3.312141e+02 0.000000e+00 -3.312141e+02 -5.955541e+04 0.000000e+00 0.000000e+00 0.000000e+00 0.000000e+00
-9.337423e+04 -2.590281e+02 0.000000e+00 -2.590281e+02 -5.984564e+04 0.000000e+00 0.000000e+00 0.000000e+00 0.000000e+00
-9.472719e+04 -1.901692e+02 0.000000e+00 -1.901692e+02 -6.023475e+04 0.000000e+00 0.000000e+00 0.000000e+00 0.000000e+00
</DataArray>
<DataArray Name="vol_eps" type="Float64" NumberOfComponents="1" format="ascii">
-1.203488e-02
-1.041344e-02
-8.843771e-03
-7.705476e-03
-7.545553e-03
-8.011791e-03
-9.507245e-03
-1.178053e-02
-1.491374e-02
-1.789243e-02
-1.833955e-02
-1.151731e-02
-9.749277e-03
-8.509171e-03
-8.115019e-03
-8.369263e-03
-8.725044e-03
-9.361912e-03
-1.063717e-02
-1.280475e-02
-1.514713e-02
-1.952401e-02
-9.611471e-03
-7.808612e-03
-7.141585e-03
-7.430643e-03
-7.758895e-03
-8.074041e-03
-8.560164e-03
-9.308693e-03
-9.770870e-03
-1.070257e-02
-1.444851e-02
-6.542937e-03
-5.384639e-03
-5.238274e-03
-5.407250e-03
-5.350446e-03
-4.761082e-03
-3.674853e-03
-1.902632e-03
8.802744e-04
4.657700e-03
8.711568e-03
-4.926951e-03
-4.673858e-03
-5.282302e-03
-5.755375e-03
-6.004274e-03
-5.972227e-03
-5.728104e-03
-5.298768e-03
-4.456101e-03
-2.752264e-03
2.447183e-04
-3.496435e-03
-3.845684e-03
-4.562085e-03
-4.954212e-03
-5.114657e-03
-5.025752e-03
-4.719459e-03
-4.231439e-03
-3.432936e-03
-1.873597e-03
2.561231e-04
-2.318509e-03
-3.203774e-03
-3.955055e-03
-4.286440e-03
-4.340734e-03
-4.187314e-03
-3.875205e-03
-3.424766e-03
-2.722346e-03
-1.558778e-03
-2.236373e-04
-1.553704e-03
-2.688984e-03
-3.417494e-03
-3.651837e-03
-3.658688e-03
-3.523045e-03
-3.263026e-03
-2.866827e-03
-2.302771e-03
-1.512149e-03
-6.777851e-04
-1.115680e-03
-2.258649e-03
-2.908091e-03
-3.107474e-03
-3.124762e-03
-3.028789e-03
-2.812484e-03
-2.484434e-03
-2.084097e-03
-1.584595e-03
-1.075635e-03
-8.568991e-04
-1.902661e-03
-2.468816e-03
-2.671702e-03
-2.713481e-03
-2.647092e-03
-2.469771e-03
-2.236415e-03
-1.985601e-03
-1.697512e-03
-1.407036e-03
-7.035825e-04
-1.615793e-03
-2.123549e-03
-2.330814e-03
-2.387032e-03
-2.339788e-03
-2.222341e-03
-2.085707e-03
-1.952100e-03
-1.815174e-03
-1.674519e-03
-6.239371e-04
-1.384654e-03
-1.843077e-03
-2.055740e-03
-2.119025e-03
-2.100606e-03
-2.048304e-03
-1.995169e-03
-1.952336e-03
-1.916653e-03
-1.877672e-03
-5.799139e-04
-1.194838e-03
-1.611622e-03
-1.821988e-03
-1.900060e-03
-1.920747e-03
-1.928579e-03
-1.943063e-03
-1.967827e-03
-1.996444e-03
-2.022261e-03
-5.818746e-04
-1.062230e-03
-1.426315e-03
-1.626189e-03
-1.730484e-03
-1.792657e-03
-1.848163e-03
-1.911490e-03
-1.982771e-03
-2.054639e-03
-2.123568e-03
-6.045156e-04
-9.867690e-04
-1.296099e-03
-1.486356e-03
-1.610977e-03
-1.708330e-03
-1.796261e-03
-1.892091e-03
-1.995116e-03
-2.094013e-03
-2.188872e-03
-6.126646e-04
-9.412183e-04
-1.214173e-03
-1.402349e-03
-1.543096e-03
-1.661894e-03
-1.770400e-03
-1.883790e-03
-2.003540e-03
-2.117564e-03
-2.225661e-03
-5.889364e-04
-9.132760e-04
-1.185837e-03
-1.374854e-03
-1.523332e-03
-1.649918e-03
-1.764982e-03
-1.884753e-03
-2.010077e-03
-2.128634e-03
-2.239655e-03
</DataArray>
</PointData>
</Piece>
</UnstructuredGrid>
</VTKFile>
