<?xml version="1.0"?>
<VTKFile type="UnstructuredGrid" version="0.1">
<UnstructuredGrid>
<FieldData>
<DataArray Name="TIME" type="Float64" format="ascii" NumberOfTuples="1">
0.000000e+00
</DataArray>
</FieldData>
<FieldData>
<DataArray Name="CYCLE" type="Int32" format="ascii" NumberOfTuples="1">
0
</DataArray>
</FieldData>
<Piece NumberOfPoints="187" NumberOfCells="160">
<Points>
<DataArray NumberOfComponents="3" type="Float64" format="ascii">
0.000000e+00 0.000000e+00 0.000000e+00
0.000000e+00 1.974148e-01 0.000000e+00
0.000000e+00 3.939545e-01 0.000000e+00
0.000000e+00 5.895912e-01 0.000000e+00
0.000000e+00 7.840864e-01 0.000000e+00
0.000000e+00 9.773120e-01 0.000000e+00
0.000000e+00 1.170208e+00 0.000000e+00
0.000000e+00 1.363628e+00 0.000000e+00
0.000000e+00 1.558633e+00 0.000000e+00
0.000000e+00 1.755031e+00 0.000000e+00
0.000000e+00 1.951625e+00 0.000000e+00
2.250000e-01 0.000000e+00 0.000000e+00
2.262169e-01 1.975414e-01 0.000000e+00
2.274406e-01 3.942120e-01 0.000000e+00
2.287646e-01 5.900772e-01 0.000000e+00
2.302394e-01 7.851403e-01 0.000000e+00
2.310797e-01 9.792966e-01 0.000000e+00
2.308824e-01 1.172975e+00 0.000000e+00
2.294869e-01 1.366552e+00 0.000000e+00
2.272938e-01 1.560590e+00 0.000000e+00
2.254318e-01 1.755255e+00 0.000000e+00
2.250000e-01 1.951625e+00 0.000000e+00
4.500000e-01 0.000000e+00 0.000000e+00
4.524096e-01 1.979806e-01 0.000000e+00
4.546456e-01 3.952869e-01 0.000000e+00
4.567550e-01 5.920370e-01 0.000000e+00
4.586175e-01 7.883976e-01 0.000000e+00
4.599311e-01 9.844382e-01 0.000000e+00
4.601348e-01 1.179952e+00 0.000000e+00
4.594053e-01 1.374542e+00 0.000000e+00
4.577499e-01 1.567744e+00 0.000000e+00
4.551324e-01 1.759718e+00 0.000000e+00
4.500000e-01 1.951625e+00 0.000000e+00
6.750000e-01 0.000000e+00 0.000000e+00
6.781943e-01 1.987407e-01 0.000000e+00
6.809328e-01 3.973156e-01 0.000000e+00
6.832942e-01 5.959135e-01 0.000000e+00
6.852536e-01 7.946561e-01 0.000000e+00
6.866624e-01 9.935793e-01 0.000000e+00
6.872872e-01 1.192712e+00 0.000000e+00
6.873072e-01 1.392132e+00 0.000000e+00
6.866510e-01 1.591933e+00 0.000000e+00
6.846241e-01 1.792157e+00 0.000000e+00
6.798165e-01 1.992650e+00 0.000000e+00
9.000000e-01 0.000000e+00 0.000000e+00
9.034387e-01 1.990269e-01 0.000000e+00
9.060518e-01 3.981091e-01 0.000000e+00
9.081507e-01 5.973535e-01 0.000000e+00
9.097982e-01 7.967880e-01 0.000000e+00
9.109182e-01 9.964371e-01 0.000000e+00
9.113640e-01 1.196290e+00 0.000000e+00
9.111897e-01 1.396355e+00 0.000000e+00
9.102871e-01 1.596681e+00 0.000000e+00
9.082037e-01 1.797142e+00 0.000000e+00
9.050817e-01 1.997157e+00 0.000000e+00
1.125000e+00 0.000000e+00 0.000000e+00
1.128427e+00 1.993773e-01 0.000000e+00
1.130767e+00 3.988614e-01 0.000000e+00
1.132577e+00 5.985098e-01 0.000000e+00
1.133949e+00 7.983350e-01 0.000000e+00
1.134833e+00 9.983431e-01 0.000000e+00
1.135144e+00 1.198526e+00 0.000000e+00
1.134869e+00 1.398878e+00 0.000000e+00
1.133933e+00 1.599346e+00 0.000000e+00
1.132333e+00 1.799727e+00 0.000000e+00
1.130445e+00 1.999819e+00 0.000000e+00
1.350000e+00 0.000000e+00 0.000000e+00
1.353180e+00 1.996266e-01 0.000000e+00
1.355238e+00 3.993799e-01 0.000000e+00
1.356787e+00 5.992823e-01 0.000000e+00
1.357933e+00 7.993534e-01 0.000000e+00
1.358650e+00 9.995819e-01 0.000000e+00
1.358869e+00 1.199948e+00 0.000000e+00
1.358572e+00 1.400410e+00 0.000000e+00
1.357804e+00 1.600881e+00 0.000000e+00
1.356700e+00 1.801217e+00 0.000000e+00
1.355566e+00 2.001315e+00 0.000000e+00
1.575000e+00 0.000000e+00 0.000000e+00
1.577801e+00 1.997866e-01 0.000000e+00
1.579578e+00 3.997169e-01 0.000000e+00
1.580907e+00 5.997993e-01 0.000000e+00
1.581879e+00 8.000116e-01 0.000000e+00
1.582461e+00 1.000353e+00 0.000000e+00
1.582622e+00 1.200799e+00 0.000000e+00
1.582389e+00 1.401286e+00 0.000000e+00
1.581850e+00 1.601730e+00 0.000000e+00
1.581146e+00 1.802035e+00 0.000000e+00
1.580499e+00 2.002164e+00 0.000000e+00
1.800000e+00 0.000000e+00 0.000000e+00
1.802359e+00 1.998900e-01 0.000000e+00
1.803873e+00 3.999359e-01 0.000000e+00
1.805017e+00 6.001071e-01 0.000000e+00
1.805840e+00 8.003928e-01 0.000000e+00
1.806316e+00 1.000785e+00 0.000000e+00
1.806463e+00 1.201247e+00 0.000000e+00
1.806330e+00 1.401719e+00 0.000000e+00
1.805999e+00 1.602131e+00 0.000000e+00
1.805596e+00 1.802426e+00 0.000000e+00
1.805273e+00 2.002589e+00 0.000000e+00
2.025000e+00 0.000000e+00 0.000000e+00
2.026900e+00 1.999432e-01 0.000000e+00
2.028180e+00 4.000473e-01 0.000000e+00
2.029156e+00 6.002601e-01 0.000000e+00
2.029849e+00 8.005760e-01 0.000000e+00
2.030254e+00 1.000975e+00 0.000000e+00
2.030411e+00 1.201420e+00 0.000000e+00
2.030371e+00 1.401861e+00 0.000000e+00
2.030208e+00 1.602245e+00 0.000000e+00
2.030018e+00 1.802540e+00 0.000000e+00
2.029910e+00 2.002740e+00 0.000000e+00
2.250000e+00 0.000000e+00 0.000000e+00
2.251472e+00 1.999672e-01 0.000000e+00
2.252533e+00 4.000856e-01 0.000000e+00
2.253353e+00 6.003067e-01 0.000000e+00
2.253932e+00 8.006200e-01 0.000000e+00
2.254288e+00 1.001002e+00 0.000000e+00
2.254458e+00 1.201416e+00 0.000000e+00
2.254491e+00 1.401822e+00 0.000000e+00
2.254448e+00 1.602184e+00 0.000000e+00
2.254399e+00 1.802484e+00 0.000000e+00
2.254424e+00 2.002722e+00 0.000000e+00
2.475000e+00 0.000000e+00 0.000000e+00
2.476101e+00 1.999744e-01 0.000000e+00
2.476956e+00 4.000810e-01 0.000000e+00
2.477624e+00 6.002887e-01 0.000000e+00
2.478103e+00 8.005806e-01 0.000000e+00
2.478415e+00 1.000932e+00 0.000000e+00
2.478591e+00 1.201310e+00 0.000000e+00
2.478671e+00 1.401683e+00 0.000000e+00
2.478703e+00 1.602030e+00 0.000000e+00
2.478738e+00 1.802337e+00 0.000000e+00
2.478834e+00 2.002608e+00 0.000000e+00
2.700000e+00 0.000000e+00 0.000000e+00
2.700798e+00 1.999676e-01 0.000000e+00
2.701455e+00 4.000517e-01 0.000000e+00
2.701977e+00 6.002364e-01 0.000000e+00
2.702365e+00 8.004999e-01 0.000000e+00
2.702629e+00 1.000816e+00 0.000000e+00
2.702795e+00 1.201160e+00 0.000000e+00
2.702894e+00 1.401508e+00 0.000000e+00
2.702962e+00 1.601844e+00 0.000000e+00
2.703039e+00 1.802158e+00 0.000000e+00
2.703161e+00 2.002456e+00 0.000000e+00
2.925000e+00 0.000000e+00 0.000000e+00
2.925553e+00 1.999566e-01 0.000000e+00
2.926023e+00 4.000174e-01 0.000000e+00
2.926408e+00 6.001739e-01 0.000000e+00
2.926703e+00 8.004082e-01 0.000000e+00
2.926913e+00 1.000696e+00 0.000000e+00
2.927053e+00 1.201013e+00 0.000000e+00
2.927148e+00 1.401341e+00 0.000000e+00
2.927224e+00 1.601668e+00 0.000000e+00
2.927308e+00 1.801988e+00 0.000000e+00
2.927424e+00 2.002308e+00 0.000000e+00
3.150000e+00 0.000000e+00 0.000000e+00
3.150347e+00 1.999464e-01 0.000000e+00
3.150651e+00 3.999897e-01 0.000000e+00
3.150902e+00 6.001232e-01 0.000000e+00
3.151101e+00 8.003331e-01 0.000000e+00
3.151248e+00 1.000598e+00 0.000000e+00
3.151349e+00 1.200895e+00 0.000000e+00
3.151422e+00 1.401209e+00 0.000000e+00
3.151484e+00 1.601530e+00 0.000000e+00
3.151552e+00 1.801855e+00 0.000000e+00
3.151640e+00 2.002192e+00 0.000000e+00
3.375000e+00 0.000000e+00 0.000000e+00
3.375169e+00 1.999413e-01 0.000000e+00
3.375316e+00 3.999764e-01 0.000000e+00
3.375440e+00 6.000965e-01 0.000000e+00
3.375540e+00 8.002908e-01 0.000000e+00
3.375615e+00 1.000541e+00 0.000000e+00
3.375668e+00 1.200826e+00 0.000000e+00
3.375707e+00 1.401132e+00 0.000000e+00
3.375742e+00 1.601449e+00 0.000000e+00
3.375780e+00 1.801777e+00 0.000000e+00
3.375827e+00 2.002123e+00 0.000000e+00
3.600000e+00 0.000000e+00 0.000000e+00
3.600000e+00 1.999523e-01 0.000000e+00
3.600000e+00 3.999873e-01 0.000000e+00
3.600000e+00 6.001028e-01 0.000000e+00
3.600000e+00 8.002915e-01 0.000000e+00
3.600000e+00 1.000537e+00 0.000000e+00
3.600000e+00 1.200817e+00 0.000000e+00
3.600000e+00 1.401119e+00 0.000000e+00
3.600000e+00 1.601435e+00 0.000000e+00
3.600000e+00 1.801763e+00 0.000000e+00
3.600000e+00 2.002111e+00 0.000000e+00
</DataArray>
</Points>
<Cells>
<DataArray Name="connectivity" type="Int32" format="ascii">
0 11 12 1
1 12 13 2
2 13 14 3
3 14 15 4
4 15 16 5
5 16 17 6
6 17 18 7
7 18 19 8
8 19 20 9
9 20 21 10
11 22 23 12
12 23 24 13
13 24 25 14
14 25 26 15
15 26 27 16
16 27 28 17
17 28 29 18
18 29 30 19
19 30 31 20
20 31 32 21
22 33 34 23
23 34 35 24
24 35 36 25
25 36 37 26
26 37 38 27
27 38 39 28
28 39 40 29
29 40 41 30
30 41 42 31
31 42 43 32
33 44 45 34
34 45 46 35
35 46 47 36
36 47 48 37
37 48 49 38
38 49 50 39
39 50 51 40
40 51 52 41
41 52 53 42
42 53 54 43
44 55 56 45
45 56 57 46
46 57 58 47
47 58 59 48
48 59 60 49
49 60 61 50
50 61 62 51
51 62 63 52
52 63 64 53
53 64 65 54
55 66 67 56
56 67 68 57
57 68 69 58
58 69 70 59
59 70 71 60
60 71 72 61
61 72 73 62
62 73 74 63
63 74 75 64
64 75 76 65
66 77 78 67
67 78 79 68
68 79 80 69
69 80 81 70
70 81 82 71
71 82 83 72
72 83 84 73
73 84 85 74
74 85 86 75
75 86 87 76
77 88 89 78
78 89 90 79
79 90 91 80
80 91 92 81
81 92 93 82
82 93 94 83
83 94 95 84
84 95 96 85
85 96 97 86
86 97 98 87
88 99 100 89
89 100 101 90
90 101 102 91
91 102 103 92
92 103 104 93
93 104 105 94
94 105 106 95
95 106 107 96
96 107 108 97
97 108 109 98
99 110 111 100
100 111 112 101
101 112 113 102
102 113 114 103
103 114 115 104
104 115 116 105
105 116 117 106
106 117 118 107
107 118 119 108
108 119 120 109
110 121 122 111
111 122 123 112
112 123 124 113
113 124 125 114
114 125 126 115
115 126 127 116
116 127 128 117
117 128 129 118
118 129 130 119
119 130 131 120
121 132 133 122
122 133 134 123
123 134 135 124
124 135 136 125
125 136 137 126
126 137 138 127
127 138 139 128
128 139 140 129
129 140 141 130
130 141 142 131
132 143 144 133
133 144 145 134
134 145 146 135
135 146 147 136
136 147 148 137
137 148 149 138
138 149 150 139
139 150 151 140
140 151 152 141
141 152 153 142
143 154 155 144
144 155 156 145
145 156 157 146
146 157 158 147
147 158 159 148
148 159 160 149
149 160 161 150
150 161 162 151
151 162 163 152
152 163 164 153
154 165 166 155
155 166 167 156
156 167 168 157
157 168 169 158
158 169 170 159
159 170 171 160
160 171 172 161
161 172 173 162
162 173 174 163
163 174 175 164
165 176 177 166
166 177 178 167
167 178 179 168
168 179 180 169
169 180 181 170
170 181 182 171
171 182 183 172
172 183 184 173
173 184 185 174
174 185 186 175
</DataArray>
<DataArray Name="offsets" type="Int32" format="ascii">
4
8
12
16
20
24
28
32
36
40
44
48
52
56
60
64
68
72
76
80
84
88
92
96
100
104
108
112
116
120
124
128
132
136
140
144
148
152
156
160
164
168
172
176
180
184
188
192
196
200
204
208
212
216
220
224
228
232
236
240
244
248
252
256
260
264
268
272
276
280
284
288
292
296
300
304
308
312
316
320
324
328
332
336
340
344
348
352
356
360
364
368
372
376
380
384
388
392
396
400
404
408
412
416
420
424
428
432
436
440
444
448
452
456
460
464
468
472
476
480
484
488
492
496
500
504
508
512
516
520
524
528
532
536
540
544
548
552
556
560
564
568
572
576
580
584
588
592
596
600
604
608
612
616
620
624
628
632
636
640
</DataArray>
<DataArray Name="types" type="UInt8" format="ascii">
9
9
9
9
9
9
9
9
9
9
9
9
9
9
9
9
9
9
9
9
9
9
9
9
9
9
9
9
9
9
9
9
9
9
9
9
9
9
9
9
9
9
9
9
9
9
9
9
9
9
9
9
9
9
9
9
9
9
9
9
9
9
9
9
9
9
9
9
9
9
9
9
9
9
9
9
9
9
9
9
9
9
9
9
9
9
9
9
9
9
9
9
9
9
9
9
9
9
9
9
9
9
9
9
9
9
9
9
9
9
9
9
9
9
9
9
9
9
9
9
9
9
9
9
9
9
9
9
9
9
9
9
9
9
9
9
9
9
9
9
9
9
9
9
9
9
9
9
9
9
9
9
9
9
9
9
9
9
9
9
</DataArray>
</Cells>
<PointData>
<DataArray Name="disp" type="Float64" NumberOfComponents="3" format="ascii">
0.000000e+00 0.000000e+00 0.000000e+00
0.000000e+00 -2.585155e-03 0.000000e+00
0.000000e+00 -6.045530e-03 0.000000e+00
0.000000e+00 -1.040880e-02 0.000000e+00
0.000000e+00 -1.591359e-02 0.000000e+00
0.000000e+00 -2.268797e-02 0.000000e+00
0.000000e+00 -2.979218e-02 0.000000e+00
0.000000e+00 -3.637176e-02 0.000000e+00
0.000000e+00 -4.136736e-02 0.000000e+00
0.000000e+00 -4.496919e-02 0.000000e+00
0.000000e+00 -4.837500e-02 0.000000e+00
0.000000e+00 0.000000e+00 0.000000e+00
1.216926e-03 -2.458645e-03 0.000000e+00
2.440577e-03 -5.787983e-03 0.000000e+00
3.764625e-03 -9.922802e-03 0.000000e+00
5.239367e-03 -1.485965e-02 0.000000e+00
6.079745e-03 -2.070335e-02 0.000000e+00
5.882358e-03 -2.702466e-02 0.000000e+00
4.486923e-03 -3.344825e-02 0.000000e+00
2.293786e-03 -3.940959e-02 0.000000e+00
4.317852e-04 -4.474548e-02 0.000000e+00
0.000000e+00 -4.837500e-02 0.000000e+00
0.000000e+00 0.000000e+00 0.000000e+00
2.409581e-03 -2.019399e-03 0.000000e+00
4.645592e-03 -4.713125e-03 0.000000e+00
6.755051e-03 -7.963007e-03 0.000000e+00
8.617530e-03 -1.160244e-02 0.000000e+00
9.931103e-03 -1.556180e-02 0.000000e+00
1.013484e-02 -2.004836e-02 0.000000e+00
9.405292e-03 -2.545785e-02 0.000000e+00
7.749914e-03 -3.225564e-02 0.000000e+00
5.132372e-03 -4.028208e-02 0.000000e+00
0.000000e+00 -4.837500e-02 0.000000e+00
0.000000e+00 0.000000e+00 0.000000e+00
3.194289e-03 -1.259289e-03 0.000000e+00
5.932837e-03 -2.684410e-03 0.000000e+00
8.294176e-03 -4.086478e-03 0.000000e+00
1.025365e-02 -5.343882e-03 0.000000e+00
1.166245e-02 -6.420694e-03 0.000000e+00
1.228723e-02 -7.288440e-03 0.000000e+00
1.230719e-02 -7.867598e-03 0.000000e+00
1.165098e-02 -8.067193e-03 0.000000e+00
9.624082e-03 -7.843236e-03 0.000000e+00
4.816547e-03 -7.350297e-03 0.000000e+00
0.000000e+00 0.000000e+00 0.000000e+00
3.438713e-03 -9.731317e-04 0.000000e+00
6.051815e-03 -1.890924e-03 0.000000e+00
8.150694e-03 -2.646539e-03 0.000000e+00
9.798230e-03 -3.212026e-03 0.000000e+00
1.091823e-02 -3.562941e-03 0.000000e+00
1.136401e-02 -3.710238e-03 0.000000e+00
1.118967e-02 -3.645413e-03 0.000000e+00
1.028710e-02 -3.318478e-03 0.000000e+00
8.203651e-03 -2.857944e-03 0.000000e+00
5.081682e-03 -2.842489e-03 0.000000e+00
0.000000e+00 0.000000e+00 0.000000e+00
3.427043e-03 -6.227095e-04 0.000000e+00
5.767427e-03 -1.138551e-03 0.000000e+00
7.576589e-03 -1.490226e-03 0.000000e+00
8.948849e-03 -1.664985e-03 0.000000e+00
9.832575e-03 -1.656860e-03 0.000000e+00
1.014353e-02 -1.473785e-03 0.000000e+00
9.869386e-03 -1.122502e-03 0.000000e+00
8.933089e-03 -6.538858e-04 0.000000e+00
7.332582e-03 -2.725716e-04 0.000000e+00
5.444618e-03 -1.814844e-04 0.000000e+00
0.000000e+00 0.000000e+00 0.000000e+00
3.180250e-03 -3.734489e-04 0.000000e+00
5.237841e-03 -6.200898e-04 0.000000e+00
6.787024e-03 -7.176494e-04 0.000000e+00
7.932962e-03 -6.465515e-04 0.000000e+00
8.650058e-03 -4.181264e-04 0.000000e+00
8.868693e-03 -5.180283e-05 0.000000e+00
8.571997e-03 4.100447e-04 0.000000e+00
7.804027e-03 8.812498e-04 0.000000e+00
6.699801e-03 1.216662e-03 0.000000e+00
5.566206e-03 1.314788e-03 0.000000e+00
0.000000e+00 0.000000e+00 0.000000e+00
2.800740e-03 -2.134267e-04 0.000000e+00
4.578157e-03 -2.830978e-04 0.000000e+00
5.907029e-03 -2.006613e-04 0.000000e+00
6.879103e-03 1.158333e-05 0.000000e+00
7.460804e-03 3.526073e-04 0.000000e+00
7.622165e-03 7.991178e-04 0.000000e+00
7.389250e-03 1.286312e-03 0.000000e+00
6.849645e-03 1.729664e-03 0.000000e+00
6.145892e-03 2.035099e-03 0.000000e+00
5.498977e-03 2.163550e-03 0.000000e+00
0.000000e+00 0.000000e+00 0.000000e+00
2.358985e-03 -1.099490e-04 0.000000e+00
3.872947e-03 -6.413683e-05 0.000000e+00
5.016563e-03 1.071495e-04 0.000000e+00
5.839957e-03 3.928349e-04 0.000000e+00
6.316544e-03 7.850796e-04 0.000000e+00
6.462515e-03 1.247294e-03 0.000000e+00
6.329914e-03 1.719013e-03 0.000000e+00
5.999130e-03 2.131330e-03 0.000000e+00
5.595983e-03 2.426371e-03 0.000000e+00
5.273166e-03 2.589000e-03 0.000000e+00
0.000000e+00 0.000000e+00 0.000000e+00
1.899735e-03 -5.683258e-05 0.000000e+00
3.179961e-03 4.733282e-05 0.000000e+00
4.156200e-03 2.601254e-04 0.000000e+00
4.849279e-03 5.760457e-04 0.000000e+00
5.253810e-03 9.751513e-04 0.000000e+00
5.410786e-03 1.419612e-03 0.000000e+00
5.370920e-03 1.861245e-03 0.000000e+00
5.207818e-03 2.245243e-03 0.000000e+00
5.017586e-03 2.540141e-03 0.000000e+00
4.909936e-03 2.740361e-03 0.000000e+00
0.000000e+00 0.000000e+00 0.000000e+00
1.471646e-03 -3.284315e-05 0.000000e+00
2.533309e-03 8.557396e-05 0.000000e+00
3.352530e-03 3.067619e-04 0.000000e+00
3.931680e-03 6.199318e-04 0.000000e+00
4.287624e-03 1.001578e-03 0.000000e+00
4.457687e-03 1.416129e-03 0.000000e+00
4.490916e-03 1.821889e-03 0.000000e+00
4.448057e-03 2.184337e-03 0.000000e+00
4.398820e-03 2.483716e-03 0.000000e+00
4.424219e-03 2.721884e-03 0.000000e+00
0.000000e+00 0.000000e+00 0.000000e+00
1.100999e-03 -2.557553e-05 0.000000e+00
1.956084e-03 8.097602e-05 0.000000e+00
2.624040e-03 2.886654e-04 0.000000e+00
3.103375e-03 5.806380e-04 0.000000e+00
3.414929e-03 9.316572e-04 0.000000e+00
3.590958e-03 1.309810e-03 0.000000e+00
3.671216e-03 1.683363e-03 0.000000e+00
3.702593e-03 2.030259e-03 0.000000e+00
3.738012e-03 2.336909e-03 0.000000e+00
3.834382e-03 2.607845e-03 0.000000e+00
0.000000e+00 0.000000e+00 0.000000e+00
7.983079e-04 -3.238548e-05 0.000000e+00
1.454651e-03 5.173749e-05 0.000000e+00
1.977426e-03 2.363527e-04 0.000000e+00
2.364640e-03 4.998858e-04 0.000000e+00
2.629245e-03 8.161661e-04 0.000000e+00
2.795113e-03 1.160264e-03 0.000000e+00
2.894527e-03 1.508476e-03 0.000000e+00
2.962482e-03 1.843667e-03 0.000000e+00
3.038621e-03 2.157634e-03 0.000000e+00
3.161335e-03 2.456034e-03 0.000000e+00
0.000000e+00 0.000000e+00 0.000000e+00
5.529353e-04 -4.345120e-05 0.000000e+00
1.023535e-03 1.742453e-05 0.000000e+00
1.408207e-03 1.738998e-04 0.000000e+00
1.703502e-03 4.082682e-04 0.000000e+00
1.913195e-03 6.956693e-04 0.000000e+00
2.053056e-03 1.012686e-03 0.000000e+00
2.147703e-03 1.340862e-03 0.000000e+00
2.223715e-03 1.667539e-03 0.000000e+00
2.307755e-03 1.987797e-03 0.000000e+00
2.423727e-03 2.308289e-03 0.000000e+00
0.000000e+00 0.000000e+00 0.000000e+00
3.475781e-04 -5.356591e-05 0.000000e+00
6.504442e-04 -1.034501e-05 0.000000e+00
9.018169e-04 1.232379e-04 0.000000e+00
1.101103e-03 3.331088e-04 0.000000e+00
1.247407e-03 5.978752e-04 0.000000e+00
1.348562e-03 8.953243e-04 0.000000e+00
1.421434e-03 1.209524e-03 0.000000e+00
1.483739e-03 1.530265e-03 0.000000e+00
1.552033e-03 1.855422e-03 0.000000e+00
1.639696e-03 2.191741e-03 0.000000e+00
0.000000e+00 0.000000e+00 0.000000e+00
1.690467e-04 -5.873545e-05 0.000000e+00
3.164964e-04 -2.360353e-05 0.000000e+00
4.398416e-04 9.647991e-05 0.000000e+00
5.399370e-04 2.907969e-04 0.000000e+00
6.151865e-04 5.408872e-04 0.000000e+00
6.680616e-04 8.264135e-04 0.000000e+00
7.074812e-04 1.132095e-03 0.000000e+00
7.421367e-04 1.449395e-03 0.000000e+00
7.798788e-04 1.777485e-03 0.000000e+00
8.267334e-04 2.123013e-03 0.000000e+00
0.000000e+00 0.000000e+00 0.000000e+00
0.000000e+00 -4.769571e-05 0.000000e+00
0.000000e+00 -1.273193e-05 0.000000e+00
0.000000e+00 1.028290e-04 0.000000e+00
0.000000e+00 2.914778e-04 0.000000e+00
0.000000e+00 5.365593e-04 0.000000e+00
0.000000e+00 8.172683e-04 0.000000e+00
0.000000e+00 1.119522e-03 0.000000e+00
0.000000e+00 1.434887e-03 0.000000e+00
0.000000e+00 1.763294e-03 0.000000e+00
0.000000e+00 2.111122e-03 0.000000e+00
</DataArray>
<DataArray Name="shear" type="Float64" NumberOfComponents="1" format="ascii">
1.476539e-02
2.057392e-02
3.049103e-02
4.127372e-02
5.289887e-02
6.046170e-02
5.987084e-02
5.006422e-02
3.473303e-02
2.230541e-02
1.819468e-02
1.534179e-02
2.084973e-02
3.000334e-02
3.906526e-02
4.782976e-02
5.435012e-02
5.653792e-02
5.388276e-02
4.700064e-02
3.546974e-02
2.580181e-02
1.699526e-02
2.115270e-02
2.811665e-02
3.493606e-02
4.149681e-02
4.832741e-02
5.657754e-02
6.713848e-02
7.788331e-02
8.184676e-02
8.064542e-02
1.798636e-02
1.937072e-02
2.178218e-02
2.500107e-02
2.880506e-02
3.299126e-02
3.887665e-02
4.771916e-02
5.847468e-02
6.756573e-02
7.400180e-02
1.820493e-02
1.727520e-02
1.573123e-02
1.531412e-02
1.517281e-02
1.475855e-02
1.427398e-02
1.374778e-02
1.177315e-02
6.536584e-03
1.311081e-03
1.768303e-02
1.587445e-02
1.324164e-02
1.239513e-02
1.194431e-02
1.135225e-02
1.062853e-02
9.723934e-03
7.868512e-03
4.133319e-03
1.032136e-03
1.619015e-02
1.399355e-02
1.108315e-02
1.027652e-02
9.909552e-03
9.506253e-03
8.968083e-03
8.129706e-03
6.483626e-03
3.654992e-03
1.487723e-03
1.417468e-02
1.208131e-02
9.501854e-03
8.878162e-03
8.606984e-03
8.387624e-03
8.031060e-03
7.259957e-03
5.808018e-03
3.589521e-03
1.986257e-03
1.190833e-02
1.019016e-02
8.205235e-03
7.761118e-03
7.622175e-03
7.552107e-03
7.300925e-03
6.629610e-03
5.424648e-03
3.725070e-03
2.569963e-03
9.595396e-03
8.367094e-03
7.032836e-03
6.789106e-03
6.796688e-03
6.822076e-03
6.649903e-03
6.119209e-03
5.190056e-03
3.959663e-03
3.168932e-03
7.445190e-03
6.683814e-03
5.935617e-03
5.894429e-03
6.040785e-03
6.154119e-03
6.067369e-03
5.696183e-03
5.049282e-03
4.231941e-03
3.740053e-03
5.576218e-03
5.164772e-03
4.882028e-03
5.054696e-03
5.333776e-03
5.538188e-03
5.556977e-03
5.358780e-03
4.972856e-03
4.497534e-03
4.236175e-03
4.034831e-03
3.839739e-03
3.905013e-03
4.292462e-03
4.702932e-03
5.002949e-03
5.139035e-03
5.103031e-03
4.934140e-03
4.730258e-03
4.642045e-03
2.785746e-03
2.725022e-03
3.057367e-03
3.643476e-03
4.189354e-03
4.587166e-03
4.822876e-03
4.916670e-03
4.918279e-03
4.919725e-03
4.957247e-03
1.749560e-03
1.798586e-03
2.384025e-03
3.144088e-03
3.806977e-03
4.290531e-03
4.604102e-03
4.791615e-03
4.915967e-03
5.058858e-03
5.178375e-03
8.580007e-04
1.072722e-03
1.942909e-03
2.827356e-03
3.565420e-03
4.108191e-03
4.473068e-03
4.718750e-03
4.916598e-03
5.140678e-03
5.305695e-03
2.982303e-04
7.585390e-04
1.790500e-03
2.716616e-03
3.479956e-03
4.043966e-03
4.426868e-03
4.693007e-03
4.915510e-03
5.165795e-03
5.345188e-03
</DataArray>
<DataArray Name="stress" type="Float64" NumberOfComponents="9" format="ascii">
-1.101871e+05 4.745534e+03 0.000000e+00 4.745534e+03 -1.819741e+05 0.000000e+00 0.000000e+00 0.000000e+00 0.000000e+00
-9.814033e+04 3.861958e+03 0.000000e+00 3.861958e+03 -1.802104e+05 0.000000e+00 0.000000e+00 0.000000e+00 0.000000e+00
-9.116158e+04 2.884973e+03 0.000000e+00 2.884973e+03 -1.894469e+05 0.000000e+00 0.000000e+00 0.000000e+00 0.000000e+00
-9.187604e+04 2.804080e+03 0.000000e+00 2.804080e+03 -1.969548e+05 0.000000e+00 0.000000e+00 0.000000e+00 0.000000e+00
-1.037466e+05 3.367976e+03 0.000000e+00 3.367976e+03 -2.004100e+05 0.000000e+00 0.000000e+00 0.000000e+00 0.000000e+00
-1.121474e+05 5.448572e+03 0.000000e+00 5.448572e+03 -2.078748e+05 0.000000e+00 0.000000e+00 0.000000e+00 0.000000e+00
-1.181649e+05 8.024369e+03 0.000000e+00 8.024369e+03 -2.171831e+05 0.000000e+00 0.000000e+00 0.000000e+00 0.000000e+00
-1.180791e+05 7.791675e+03 0.000000e+00 7.791675e+03 -2.306293e+05 0.000000e+00 0.000000e+00 0.000000e+00 0.000000e+00
-1.188166e+05 5.689920e+03 0.000000e+00 5.689920e+03 -2.415476e+05 0.000000e+00 0.000000e+00 0.000000e+00 0.000000e+00
-1.371411e+05 4.364681e+02 0.000000e+00 4.364681e+02 -2.452325e+05 0.000000e+00 0.000000e+00 0.000000e+00 0.000000e+00
-1.442418e+05 -4.707861e+02 0.000000e+00 -4.707861e+02 -2.423942e+05 0.000000e+00 0.000000e+00 0.000000e+00 0.000000e+00
-1.086318e+05 1.359618e+04 0.000000e+00 1.359618e+04 -1.735088e+05 0.000000e+00 0.000000e+00 0.000000e+00 0.000000e+00
-9.702538e+04 1.157074e+04 0.000000e+00 1.157074e+04 -1.715552e+05 0.000000e+00 0.000000e+00 0.000000e+00 0.000000e+00
-9.143320e+04 9.813888e+03 0.000000e+00 9.813888e+03 -1.806558e+05 0.000000e+00 0.000000e+00 0.000000e+00 0.000000e+00
-9.266379e+04 1.036242e+04 0.000000e+00 1.036242e+04 -1.896494e+05 0.000000e+00 0.000000e+00 0.000000e+00 0.000000e+00
-1.027147e+05 1.177220e+04 0.000000e+00 1.177220e+04 -1.998309e+05 0.000000e+00 0.000000e+00 0.000000e+00 0.000000e+00
-1.110701e+05 1.303648e+04 0.000000e+00 1.303648e+04 -2.114647e+05 0.000000e+00 0.000000e+00 0.000000e+00 0.000000e+00
-1.169890e+05 1.310125e+04 0.000000e+00 1.310125e+04 -2.231911e+05 0.000000e+00 0.000000e+00 0.000000e+00 0.000000e+00
-1.187383e+05 1.073429e+04 0.000000e+00 1.073429e+04 -2.337350e+05 0.000000e+00 0.000000e+00 0.000000e+00 0.000000e+00
-1.205603e+05 6.828492e+03 0.000000e+00 6.828492e+03 -2.441973e+05 0.000000e+00 0.000000e+00 0.000000e+00 0.000000e+00
-1.306305e+05 8.864332e+02 0.000000e+00 8.864332e+02 -2.472703e+05 0.000000e+00 0.000000e+00 0.000000e+00 0.000000e+00
-1.474694e+05 -5.400360e+03 0.000000e+00 -5.400360e+03 -2.684764e+05 0.000000e+00 0.000000e+00 0.000000e+00 0.000000e+00
-1.035113e+05 2.308768e+04 0.000000e+00 2.308768e+04 -1.508953e+05 0.000000e+00 0.000000e+00 0.000000e+00 0.000000e+00
-9.451187e+04 2.072051e+04 0.000000e+00 2.072051e+04 -1.482002e+05 0.000000e+00 0.000000e+00 0.000000e+00 0.000000e+00
-9.267983e+04 1.997715e+04 0.000000e+00 1.997715e+04 -1.550259e+05 0.000000e+00 0.000000e+00 0.000000e+00 0.000000e+00
-9.713651e+04 2.223655e+04 0.000000e+00 2.223655e+04 -1.637220e+05 0.000000e+00 0.000000e+00 0.000000e+00 0.000000e+00
-1.062243e+05 2.598571e+04 0.000000e+00 2.598571e+04 -1.745066e+05 0.000000e+00 0.000000e+00 0.000000e+00 0.000000e+00
-1.145104e+05 2.821764e+04 0.000000e+00 2.821764e+04 -1.844035e+05 0.000000e+00 0.000000e+00 0.000000e+00 0.000000e+00
-1.212114e+05 2.999718e+04 0.000000e+00 2.999718e+04 -1.957547e+05 0.000000e+00 0.000000e+00 0.000000e+00 0.000000e+00
-1.287416e+05 2.989676e+04 0.000000e+00 2.989676e+04 -2.090314e+05 0.000000e+00 0.000000e+00 0.000000e+00 0.000000e+00
-1.416515e+05 3.012350e+04 0.000000e+00 3.012350e+04 -2.235502e+05 0.000000e+00 0.000000e+00 0.000000e+00 0.000000e+00
-1.514818e+05 2.290108e+04 0.000000e+00 2.290108e+04 -2.412560e+05 0.000000e+00 0.000000e+00 0.000000e+00 0.000000e+00
-1.671989e+05 1.044971e+04 0.000000e+00 1.044971e+04 -2.759464e+05 0.000000e+00 0.000000e+00 0.000000e+00 0.000000e+00
-9.557130e+04 2.550002e+04 0.000000e+00 2.550002e+04 -1.237913e+05 0.000000e+00 0.000000e+00 0.000000e+00 0.000000e+00
-8.988517e+04 2.403001e+04 0.000000e+00 2.403001e+04 -1.210870e+05 0.000000e+00 0.000000e+00 0.000000e+00 0.000000e+00
-8.991977e+04 2.397652e+04 0.000000e+00 2.397652e+04 -1.221237e+05 0.000000e+00 0.000000e+00 0.000000e+00 0.000000e+00
-9.472717e+04 2.590399e+04 0.000000e+00 2.590399e+04 -1.224823e+05 0.000000e+00 0.000000e+00 0.000000e+00 0.000000e+00
-1.015037e+05 2.789594e+04 0.000000e+00 2.789594e+04 -1.214491e+05 0.000000e+00 0.000000e+00 0.000000e+00 0.000000e+00
-1.063534e+05 2.862634e+04 0.000000e+00 2.862634e+04 -1.184312e+05 0.000000e+00 0.000000e+00 0.000000e+00 0.000000e+00
-1.073799e+05 2.899493e+04 0.000000e+00 2.899493e+04 -1.135331e+05 0.000000e+00 0.000000e+00 0.000000e+00 0.000000e+00
-1.051482e+05 2.760532e+04 0.000000e+00 2.760532e+04 -1.059649e+05 0.000000e+00 0.000000e+00 0.000000e+00 0.000000e+00
-1.012276e+05 2.410061e+04 0.000000e+00 2.410061e+04 -9.491324e+04 0.000000e+00 0.000000e+00 0.000000e+00 0.000000e+00
-8.943313e+04 1.638771e+04 0.000000e+00 1.638771e+04 -8.089638e+04 0.000000e+00 0.000000e+00 0.000000e+00 0.000000e+00
-6.867865e+04 1.062830e+04 0.000000e+00 1.062830e+04 -6.873449e+04 0.000000e+00 0.000000e+00 0.000000e+00 0.000000e+00
-9.152814e+04 2.531146e+04 0.000000e+00 2.531146e+04 -1.094840e+05 0.000000e+00 0.000000e+00 0.000000e+00 0.000000e+00
-8.969716e+04 2.448163e+04 0.000000e+00 2.448163e+04 -1.081752e+05 0.000000e+00 0.000000e+00 0.000000e+00 0.000000e+00
-9.275723e+04 2.449148e+04 0.000000e+00 2.449148e+04 -1.079576e+05 0.000000e+00 0.000000e+00 0.000000e+00 0.000000e+00
-9.922423e+04 2.535471e+04 0.000000e+00 2.535471e+04 -1.064877e+05 0.000000e+00 0.000000e+00 0.000000e+00 0.000000e+00
-1.059991e+05 2.577226e+04 0.000000e+00 2.577226e+04 -1.035963e+05 0.000000e+00 0.000000e+00 0.000000e+00 0.000000e+00
-1.110158e+05 2.503114e+04 0.000000e+00 2.503114e+04 -9.912952e+04 0.000000e+00 0.000000e+00 0.000000e+00 0.000000e+00
-1.125479e+05 2.314415e+04 0.000000e+00 2.314415e+04 -9.276572e+04 0.000000e+00 0.000000e+00 0.000000e+00 0.000000e+00
-1.118206e+05 2.021581e+04 0.000000e+00 2.021581e+04 -8.496073e+04 0.000000e+00 0.000000e+00 0.000000e+00 0.000000e+00
-1.087689e+05 1.494124e+04 0.000000e+00 1.494124e+04 -7.619962e+04 0.000000e+00 0.000000e+00 0.000000e+00 0.000000e+00
-9.437436e+04 5.979443e+03 0.000000e+00 5.979443e+03 -6.820449e+04 0.000000e+00 0.000000e+00 0.000000e+00 0.000000e+00
-6.377756e+04 1.326235e+02 0.000000e+00 1.326235e+02 -5.707016e+04 0.000000e+00 0.000000e+00 0.000000e+00 0.000000e+00
-8.634209e+04 2.400155e+04 0.000000e+00 2.400155e+04 -9.691231e+04 0.000000e+00 0.000000e+00 0.000000e+00 0.000000e+00
-8.810769e+04 2.344686e+04 0.000000e+00 2.344686e+04 -9.653816e+04 0.000000e+00 0.000000e+00 0.000000e+00 0.000000e+00
-9.317041e+04 2.280188e+04 0.000000e+00 2.280188e+04 -9.496888e+04 0.000000e+00 0.000000e+00 0.000000e+00 0.000000e+00
-9.978664e+04 2.249774e+04 0.000000e+00 2.249774e+04 -9.228348e+04 0.000000e+00 0.000000e+00 0.000000e+00 0.000000e+00
-1.055129e+05 2.143901e+04 0.000000e+00 2.143901e+04 -8.864708e+04 0.000000e+00 0.000000e+00 0.000000e+00 0.000000e+00
-1.091539e+05 1.920379e+04 0.000000e+00 1.920379e+04 -8.396106e+04 0.000000e+00 0.000000e+00 0.000000e+00 0.000000e+00
-1.096401e+05 1.600329e+04 0.000000e+00 1.600329e+04 -7.831397e+04 0.000000e+00 0.000000e+00 0.000000e+00 0.000000e+00
-1.074745e+05 1.184804e+04 0.000000e+00 1.184804e+04 -7.228973e+04 0.000000e+00 0.000000e+00 0.000000e+00 0.000000e+00
-1.015014e+05 6.021275e+03 0.000000e+00 6.021275e+03 -6.664519e+04 0.000000e+00 0.000000e+00 0.000000e+00 0.000000e+00
-8.479067e+04 -3.530256e+01 0.000000e+00 -3.530256e+01 -6.219328e+04 0.000000e+00 0.000000e+00 0.000000e+00 0.000000e+00
-6.220718e+04 -2.188358e+03 0.000000e+00 -2.188358e+03 -5.711827e+04 0.000000e+00 0.000000e+00 0.000000e+00 0.000000e+00
-8.148333e+04 2.215969e+04 0.000000e+00 2.215969e+04 -8.656027e+04 0.000000e+00 0.000000e+00 0.000000e+00 0.000000e+00
-8.636608e+04 2.169019e+04 0.000000e+00 2.169019e+04 -8.701575e+04 0.000000e+00 0.000000e+00 0.000000e+00 0.000000e+00
-9.276546e+04 2.031495e+04 0.000000e+00 2.031495e+04 -8.483387e+04 0.000000e+00 0.000000e+00 0.000000e+00 0.000000e+00
-9.874049e+04 1.900550e+04 0.000000e+00 1.900550e+04 -8.198971e+04 0.000000e+00 0.000000e+00 0.000000e+00 0.000000e+00
-1.032915e+05 1.690222e+04 0.000000e+00 1.690222e+04 -7.840433e+04 0.000000e+00 0.000000e+00 0.000000e+00 0.000000e+00
-1.057886e+05 1.393840e+04 0.000000e+00 1.393840e+04 -7.440890e+04 0.000000e+00 0.000000e+00 0.000000e+00 0.000000e+00
-1.055024e+05 1.027118e+04 0.000000e+00 1.027118e+04 -7.018344e+04 0.000000e+00 0.000000e+00 0.000000e+00 0.000000e+00
-1.023138e+05 5.925204e+03 0.000000e+00 5.925204e+03 -6.604187e+04 0.000000e+00 0.000000e+00 0.000000e+00 0.000000e+00
-9.502426e+04 1.138563e+03 0.000000e+00 1.138563e+03 -6.254422e+04 0.000000e+00 0.000000e+00 0.000000e+00 0.000000e+00
-8.133862e+04 -1.942054e+03 0.000000e+00 -1.942054e+03 -6.035237e+04 0.000000e+00 0.000000e+00 0.000000e+00 0.000000e+00
-6.663701e+04 -2.464401e+03 0.000000e+00 -2.464401e+03 -5.785738e+04 0.000000e+00 0.000000e+00 0.000000e+00 0.000000e+00
-7.735268e+04 2.010988e+04 0.000000e+00 2.010988e+04 -7.880896e+04 0.000000e+00 0.000000e+00 0.000000e+00 0.000000e+00
-8.428544e+04 1.964823e+04 0.000000e+00 1.964823e+04 -7.962700e+04 0.000000e+00 0.000000e+00 0.000000e+00 0.000000e+00
-9.120398e+04 1.763565e+04 0.000000e+00 1.763565e+04 -7.725230e+04 0.000000e+00 0.000000e+00 0.000000e+00 0.000000e+00
-9.663688e+04 1.556285e+04 0.000000e+00 1.556285e+04 -7.452976e+04 0.000000e+00 0.000000e+00 0.000000e+00 0.000000e+00
-1.004136e+05 1.301202e+04 0.000000e+00 1.301202e+04 -7.151997e+04 0.000000e+00 0.000000e+00 0.000000e+00 0.000000e+00
-1.020379e+05 9.859376e+03 0.000000e+00 9.859376e+03 -6.848643e+04 0.000000e+00 0.000000e+00 0.000000e+00 0.000000e+00
-1.011800e+05 6.149675e+03 0.000000e+00 6.149675e+03 -6.542770e+04 0.000000e+00 0.000000e+00 0.000000e+00 0.000000e+00
-9.750090e+04 2.211108e+03 0.000000e+00 2.211108e+03 -6.266514e+04 0.000000e+00 0.000000e+00 0.000000e+00 0.000000e+00
-9.083734e+04 -1.191962e+03 0.000000e+00 -1.191962e+03 -6.073402e+04 0.000000e+00 0.000000e+00 0.000000e+00 0.000000e+00
-8.077345e+04 -2.429305e+03 0.000000e+00 -2.429305e+03 -5.985792e+04 0.000000e+00 0.000000e+00 0.000000e+00 0.000000e+00
-7.122866e+04 -2.133275e+03 0.000000e+00 -2.133275e+03 -5.846786e+04 0.000000e+00 0.000000e+00 0.000000e+00 0.000000e+00
-7.383836e+04 1.794682e+04 0.000000e+00 1.794682e+04 -7.309352e+04 0.000000e+00 0.000000e+00 0.000000e+00 0.000000e+00
-8.180630e+04 1.745296e+04 0.000000e+00 1.745296e+04 -7.406393e+04 0.000000e+00 0.000000e+00 0.000000e+00 0.000000e+00
-8.898595e+04 1.507167e+04 0.000000e+00 1.507167e+04 -7.178491e+04 0.000000e+00 0.000000e+00 0.000000e+00 0.000000e+00
-9.410526e+04 1.266530e+04 0.000000e+00 1.266530e+04 -6.940564e+04 0.000000e+00 0.000000e+00 0.000000e+00 0.000000e+00
-9.722154e+04 9.942745e+03 0.000000e+00 9.942745e+03 -6.704247e+04 0.000000e+00 0.000000e+00 0.000000e+00 0.000000e+00
-9.825407e+04 6.784750e+03 0.000000e+00 6.784750e+03 -6.471020e+04 0.000000e+00 0.000000e+00 0.000000e+00 0.000000e+00
-9.709272e+04 3.340454e+03 0.000000e+00 3.340454e+03 -6.254111e+04 0.000000e+00 0.000000e+00 0.000000e+00 0.000000e+00
-9.368450e+04 1.062765e+02 0.000000e+00 1.062765e+02 -6.084548e+04 0.000000e+00 0.000000e+00 0.000000e+00 0.000000e+00
-8.846419e+04 -2.129703e+03 0.000000e+00 -2.129703e+03 -5.992575e+04 0.000000e+00 0.000000e+00 0.000000e+00 0.000000e+00
-8.150963e+04 -2.370920e+03 0.000000e+00 -2.370920e+03 -5.971923e+04 0.000000e+00 0.000000e+00 0.000000e+00 0.000000e+00
-7.539124e+04 -1.760252e+03 0.000000e+00 -1.760252e+03 -5.887846e+04 0.000000e+00 0.000000e+00 0.000000e+00 0.000000e+00
-7.083252e+04 1.596650e+04 0.000000e+00 1.596650e+04 -6.909648e+04 0.000000e+00 0.000000e+00 0.000000e+00 0.000000e+00
-7.915922e+04 1.534999e+04 0.000000e+00 1.534999e+04 -7.006698e+04 0.000000e+00 0.000000e+00 0.000000e+00 0.000000e+00
-8.645521e+04 1.280353e+04 0.000000e+00 1.280353e+04 -6.789386e+04 0.000000e+00 0.000000e+00 0.000000e+00 0.000000e+00
-9.127441e+04 1.027919e+04 0.000000e+00 1.027919e+04 -6.592828e+04 0.000000e+00 0.000000e+00 0.000000e+00 0.000000e+00
-9.399379e+04 7.533615e+03 0.000000e+00 7.533615e+03 -6.406586e+04 0.000000e+00 0.000000e+00 0.000000e+00 0.000000e+00
-9.471773e+04 4.538076e+03 0.000000e+00 4.538076e+03 -6.230105e+04 0.000000e+00 0.000000e+00 0.000000e+00 0.000000e+00
-9.356809e+04 1.542576e+03 0.000000e+00 1.542576e+03 -6.083707e+04 0.000000e+00 0.000000e+00 0.000000e+00 0.000000e+00
-9.091758e+04 -9.455320e+02 0.000000e+00 -9.455320e+02 -5.990786e+04 0.000000e+00 0.000000e+00 0.000000e+00 0.000000e+00
-8.726047e+04 -2.337208e+03 0.000000e+00 -2.337208e+03 -5.956859e+04 0.000000e+00 0.000000e+00 0.000000e+00 0.000000e+00
-8.269993e+04 -2.107316e+03 0.000000e+00 -2.107316e+03 -5.968499e+04 0.000000e+00 0.000000e+00 0.000000e+00 0.000000e+00
-7.895025e+04 -1.403655e+03 0.000000e+00 -1.403655e+03 -5.921918e+04 0.000000e+00 0.000000e+00 0.000000e+00 0.000000e+00
-6.835453e+04 1.390372e+04 0.000000e+00 1.390372e+04 -6.646387e+04 0.000000e+00 0.000000e+00 0.000000e+00 0.000000e+00
-7.652955e+04 1.325568e+04 0.000000e+00 1.325568e+04 -6.720718e+04 0.000000e+00 0.000000e+00 0.000000e+00 0.000000e+00
-8.382526e+04 1.081783e+04 0.000000e+00 1.081783e+04 -6.519377e+04 0.000000e+00 0.000000e+00 0.000000e+00 0.000000e+00
-8.841879e+04 8.341016e+03 0.000000e+00 8.341016e+03 -6.356960e+04 0.000000e+00 0.000000e+00 0.000000e+00 0.000000e+00
-9.087599e+04 5.694171e+03 0.000000e+00 5.694171e+03 -6.209949e+04 0.000000e+00 0.000000e+00 0.000000e+00 0.000000e+00
-9.149640e+04 2.958935e+03 0.000000e+00 2.958935e+03 -6.080884e+04 0.000000e+00 0.000000e+00 0.000000e+00 0.000000e+00
-9.072305e+04 4.807053e+02 0.000000e+00 4.807053e+02 -5.988120e+04 0.000000e+00 0.000000e+00 0.000000e+00 0.000000e+00
-8.900625e+04 -1.353516e+03 0.000000e+00 -1.353516e+03 -5.943948e+04 0.000000e+00 0.000000e+00 0.000000e+00 0.000000e+00
-8.671071e+04 -2.196469e+03 0.000000e+00 -2.196469e+03 -5.943635e+04 0.000000e+00 0.000000e+00 0.000000e+00 0.000000e+00
-8.399339e+04 -1.762360e+03 0.000000e+00 -1.762360e+03 -5.968229e+04 0.000000e+00 0.000000e+00 0.000000e+00 0.000000e+00
-8.187819e+04 -1.088502e+03 0.000000e+00 -1.088502e+03 -5.949832e+04 0.000000e+00 0.000000e+00 0.000000e+00 0.000000e+00
-6.678075e+04 1.185773e+04 0.000000e+00 1.185773e+04 -6.491839e+04 0.000000e+00 0.000000e+00 0.000000e+00 0.000000e+00
-7.423680e+04 1.119669e+04 0.000000e+00 1.119669e+04 -6.532152e+04 0.000000e+00 0.000000e+00 0.000000e+00 0.000000e+00
-8.131580e+04 9.034771e+03 0.000000e+00 9.034771e+03 -6.350467e+04 0.000000e+00 0.000000e+00 0.000000e+00 0.000000e+00
-8.568255e+04 6.711381e+03 0.000000e+00 6.711381e+03 -6.205970e+04 0.000000e+00 0.000000e+00 0.000000e+00 0.000000e+00
-8.800746e+04 4.263062e+03 0.000000e+00 4.263062e+03 -6.080350e+04 0.000000e+00 0.000000e+00 0.000000e+00 0.000000e+00
-8.877505e+04 1.910641e+03 0.000000e+00 1.910641e+03 -5.987264e+04 0.000000e+00 0.000000e+00 0.000000e+00 0.000000e+00
-8.855141e+04 -5.642567e+01 0.000000e+00 -5.642567e+01 -5.933625e+04 0.000000e+00 0.000000e+00 0.000000e+00 0.000000e+00
-8.770369e+04 -1.382247e+03 0.000000e+00 -1.382247e+03 -5.921240e+04 0.000000e+00 0.000000e+00 0.000000e+00 0.000000e+00
-8.652580e+04 -1.882129e+03 0.000000e+00 -1.882129e+03 -5.940207e+04 0.000000e+00 0.000000e+00 0.000000e+00 0.000000e+00
-8.519641e+04 -1.407788e+03 0.000000e+00 -1.407788e+03 -5.970074e+04 0.000000e+00 0.000000e+00 0.000000e+00 0.000000e+00
-8.424688e+04 -8.240410e+02 0.000000e+00 -8.240410e+02 -5.971544e+04 0.000000e+00 0.000000e+00 0.000000e+00 0.000000e+00
-6.569744e+04 9.748873e+03 0.000000e+00 9.748873e+03 -6.430255e+04 0.000000e+00 0.000000e+00 0.000000e+00 0.000000e+00
-7.229593e+04 9.153046e+03 0.000000e+00 9.153046e+03 -6.431054e+04 0.000000e+00 0.000000e+00 0.000000e+00 0.000000e+00
-7.898643e+04 7.307228e+03 0.000000e+00 7.307228e+03 -6.255356e+04 0.000000e+00 0.000000e+00 0.000000e+00 0.000000e+00
-8.313435e+04 5.242252e+03 0.000000e+00 5.242252e+03 -6.116262e+04 0.000000e+00 0.000000e+00 0.000000e+00 0.000000e+00
-8.549275e+04 3.132113e+03 0.000000e+00 3.132113e+03 -6.006626e+04 0.000000e+00 0.000000e+00 0.000000e+00 0.000000e+00
-8.657954e+04 1.227811e+03 0.000000e+00 1.227811e+03 -5.937012e+04 0.000000e+00 0.000000e+00 0.000000e+00 0.000000e+00
-8.691784e+04 -2.633498e+02 0.000000e+00 -2.633498e+02 -5.908307e+04 0.000000e+00 0.000000e+00 0.000000e+00 0.000000e+00
-8.682119e+04 -1.203000e+03 0.000000e+00 -1.203000e+03 -5.914454e+04 0.000000e+00 0.000000e+00 0.000000e+00 0.000000e+00
-8.652901e+04 -1.494354e+03 0.000000e+00 -1.494354e+03 -5.941638e+04 0.000000e+00 0.000000e+00 0.000000e+00 0.000000e+00
-8.620859e+04 -1.066335e+03 0.000000e+00 -1.066335e+03 -5.972917e+04 0.000000e+00 0.000000e+00 0.000000e+00 0.000000e+00
-8.607373e+04 -5.922563e+02 0.000000e+00 -5.922563e+02 -5.987832e+04 0.000000e+00 0.000000e+00 0.000000e+00 0.000000e+00
-6.495854e+04 7.461935e+03 0.000000e+00 7.461935e+03 -6.422080e+04 0.000000e+00 0.000000e+00 0.000000e+00 0.000000e+00
-7.073658e+04 6.969654e+03 0.000000e+00 6.969654e+03 -6.393209e+04 0.000000e+00 0.000000e+00 0.000000e+00 0.000000e+00
-7.698238e+04 5.525787e+03 0.000000e+00 5.525787e+03 -6.211894e+04 0.000000e+00 0.000000e+00 0.000000e+00 0.000000e+00
-8.099588e+04 3.853805e+03 0.000000e+00 3.853805e+03 -6.071605e+04 0.000000e+00 0.000000e+00 0.000000e+00 0.000000e+00
-8.345449e+04 2.204282e+03 0.000000e+00 2.204282e+03 -5.972984e+04 0.000000e+00 0.000000e+00 0.000000e+00 0.000000e+00
-8.490465e+04 7.837446e+02 0.000000e+00 7.837446e+02 -5.918352e+04 0.000000e+00 0.000000e+00 0.000000e+00 0.000000e+00
-8.574369e+04 -2.871635e+02 0.000000e+00 -2.871635e+02 -5.902849e+04 0.000000e+00 0.000000e+00 0.000000e+00 0.000000e+00
-8.624401e+04 -9.291290e+02 0.000000e+00 -9.291290e+02 -5.916761e+04 0.000000e+00 0.000000e+00 0.000000e+00 0.000000e+00
-8.660573e+04 -1.091588e+03 0.000000e+00 -1.091588e+03 -5.946389e+04 0.000000e+00 0.000000e+00 0.000000e+00 0.000000e+00
-8.699527e+04 -7.514346e+02 0.000000e+00 -7.514346e+02 -5.975918e+04 0.000000e+00 0.000000e+00 0.000000e+00 0.000000e+00
-8.741288e+04 -3.992232e+02 0.000000e+00 -3.992232e+02 -5.999831e+04 0.000000e+00 0.000000e+00 0.000000e+00 0.000000e+00
-6.449862e+04 5.040107e+03 0.000000e+00 5.040107e+03 -6.425786e+04 0.000000e+00 0.000000e+00 0.000000e+00 0.000000e+00
-6.960177e+04 4.673552e+03 0.000000e+00 4.673552e+03 -6.380303e+04 0.000000e+00 0.000000e+00 0.000000e+00 0.000000e+00
-7.545430e+04 3.668438e+03 0.000000e+00 3.668438e+03 -6.191348e+04 0.000000e+00 0.000000e+00 0.000000e+00 0.000000e+00
-7.940888e+04 2.517729e+03 0.000000e+00 2.517729e+03 -6.051608e+04 0.000000e+00 0.000000e+00 0.000000e+00 0.000000e+00
-8.199034e+04 1.409813e+03 0.000000e+00 1.409813e+03 -5.960961e+04 0.000000e+00 0.000000e+00 0.000000e+00 0.000000e+00
-8.373902e+04 4.683705e+02 0.000000e+00 4.683705e+02 -5.914698e+04 0.000000e+00 0.000000e+00 0.000000e+00 0.000000e+00
-8.495030e+04 -2.228512e+02 0.000000e+00 -2.228512e+02 -5.905556e+04 0.000000e+00 0.000000e+00 0.000000e+00 0.000000e+00
-8.587954e+04 -6.235867e+02 0.000000e+00 -6.235867e+02 -5.922505e+04 0.000000e+00 0.000000e+00 0.000000e+00 0.000000e+00
-8.669966e+04 -7.068699e+02 0.000000e+00 -7.068699e+02 -5.952354e+04 0.000000e+00 0.000000e+00 0.000000e+00 0.000000e+00
-8.754069e+04 -4.720847e+02 0.000000e+00 -4.720847e+02 -5.979864e+04 0.000000e+00 0.000000e+00 0.000000e+00 0.000000e+00
-8.829806e+04 -2.400952e+02 0.000000e+00 -2.400952e+02 -6.007671e+04 0.000000e+00 0.000000e+00 0.000000e+00 0.000000e+00
-6.417439e+04 2.432934e+03 0.000000e+00 2.432934e+03 -6.419671e+04 0.000000e+00 0.000000e+00 0.000000e+00 0.000000e+00
-6.891952e+04 2.279053e+03 0.000000e+00 2.279053e+03 -6.365861e+04 0.000000e+00 0.000000e+00 0.000000e+00 0.000000e+00
-7.450198e+04 1.799391e+03 0.000000e+00 1.799391e+03 -6.178589e+04 0.000000e+00 0.000000e+00 0.000000e+00 0.000000e+00
-7.845263e+04 1.238974e+03 0.000000e+00 1.238974e+03 -6.042008e+04 0.000000e+00 0.000000e+00 0.000000e+00 0.000000e+00
-8.110965e+04 6.886714e+02 0.000000e+00 6.886714e+02 -5.956884e+04 0.000000e+00 0.000000e+00 0.000000e+00 0.000000e+00
-8.304377e+04 2.157984e+02 0.000000e+00 2.157984e+02 -5.916126e+04 0.000000e+00 0.000000e+00 0.000000e+00 0.000000e+00
-8.449083e+04 -1.193574e+02 0.000000e+00 -1.193574e+02 -5.909457e+04 0.000000e+00 0.000000e+00 0.000000e+00 0.000000e+00
-8.567634e+04 -3.125812e+02 0.000000e+00 -3.125812e+02 -5.927994e+04 0.000000e+00 0.000000e+00 0.000000e+00 0.000000e+00
-8.676792e+04 -3.471062e+02 0.000000e+00 -3.471062e+02 -5.956992e+04 0.000000e+00 0.000000e+00 0.000000e+00 0.000000e+00
-8.786010e+04 -2.262061e+02 0.000000e+00 -2.262061e+02 -5.982898e+04 0.000000e+00 0.000000e+00 0.000000e+00 0.000000e+00
-8.879076e+04 -1.085475e+02 0.000000e+00 -1.085475e+02 -6.012610e+04 0.000000e+00 0.000000e+00 0.000000e+00 0.000000e+00
-6.394994e+04 5.830276e+02 0.000000e+00 5.830276e+02 -6.388630e+04 0.000000e+00 0.000000e+00 0.000000e+00 0.000000e+00
-6.865284e+04 6.280751e+02 0.000000e+00 6.280751e+02 -6.343012e+04 0.000000e+00 0.000000e+00 0.000000e+00 0.000000e+00
-7.417940e+04 5.151316e+02 0.000000e+00 5.151316e+02 -6.172007e+04 0.000000e+00 0.000000e+00 0.000000e+00 0.000000e+00
-7.813618e+04 3.312057e+02 0.000000e+00 3.312057e+02 -6.039044e+04 0.000000e+00 0.000000e+00 0.000000e+00 0.000000e+00
-8.082133e+04 1.243134e+02 0.000000e+00 1.243134e+02 -5.955496e+04 0.000000e+00 0.000000e+00 0.000000e+00 0.000000e+00
-8.281714e+04 -5.268707e+01 0.000000e+00 -5.268707e+01 -5.917152e+04 0.000000e+00 0.000000e+00 0.000000e+00 0.000000e+00
-8.434838e+04 -1.712784e+02 0.000000e+00 -1.712784e+02 -5.911492e+04 0.000000e+00 0.000000e+00 0.000000e+00 0.000000e+00
-8.561565e+04 -2.455234e+02 0.000000e+00 -2.455234e+02 -5.930824e+04 0.000000e+00 0.000000e+00 0.000000e+00 0.000000e+00
-8.679520e+04 -2.585984e+02 0.000000e+00 -2.585984e+02 -5.959729e+04 0.000000e+00 0.000000e+00 0.000000e+00 0.000000e+00
-8.797009e+04 -2.118011e+02 0.000000e+00 -2.118011e+02 -5.984665e+04 0.000000e+00 0.000000e+00 0.000000e+00 0.000000e+00
-8.894690e+04 -1.613211e+02 0.000000e+00 -1.613211e+02 -6.015591e+04 0.000000e+00 0.000000e+00 0.000000e+00 0.000000e+00
</DataArray>
<DataArray Name="vol_eps" type="Float64" NumberOfComponents="1" format="ascii">
-1.099247e-02
-9.612973e-03
-8.584445e-03
-7.595303e-03
-7.324242e-03
-7.894626e-03
-9.012283e-03
-1.084814e-02
-1.361289e-02
-1.635215e-02
-1.691105e-02
-1.032230e-02
-8.962611e-03
-8.138823e-03
-7.577564e-03
-7.880507e-03
-8.610045e-03
-9.543707e-03
-1.049509e-02
-1.209335e-02
-1.437589e-02
-1.808344e-02
-8.423137e-03
-7.269895e-03
-6.816860e-03
-6.822555e-03
-7.350444e-03
-7.853084e-03
-8.267318e-03
-8.593068e-03
-9.185761e-03
-1.051017e-02
-1.385951e-02
-5.962553e-03
-5.243774e-03
-5.019252e-03
-4.989507e-03
-4.993038e-03
-4.767451e-03
-3.785297e-03
-2.090815e-03
1.943642e-04
3.436521e-03
6.869241e-03
-4.658802e-03
-4.493204e-03
-4.802098e-03
-5.197457e-03
-5.508981e-03
-5.598735e-03
-5.294526e-03
-4.719080e-03
-4.003426e-03
-2.672173e-03
3.496874e-05
-3.401607e-03
-3.650765e-03
-4.125885e-03
-4.490408e-03
-4.683267e-03
-4.649008e-03
-4.321351e-03
-3.795279e-03
-3.082046e-03
-1.724874e-03
9.440816e-05
-2.412082e-03
-3.007489e-03
-3.562448e-03
-3.846650e-03
-3.930136e-03
-3.839473e-03
-3.556334e-03
-3.098160e-03
-2.420933e-03
-1.383160e-03
-2.575597e-04
-1.725940e-03
-2.487164e-03
-3.027288e-03
-3.251008e-03
-3.311401e-03
-3.226478e-03
-2.984515e-03
-2.581819e-03
-2.034657e-03
-1.311625e-03
-5.974885e-04
-1.260737e-03
-2.062756e-03
-2.563720e-03
-2.771572e-03
-2.829765e-03
-2.752407e-03
-2.540298e-03
-2.222435e-03
-1.829557e-03
-1.349386e-03
-8.918935e-04
-9.664025e-04
-1.725889e-03
-2.175688e-03
-2.383144e-03
-2.442624e-03
-2.373878e-03
-2.206854e-03
-1.986864e-03
-1.727387e-03
-1.426673e-03
-1.145592e-03
-7.700701e-04
-1.442301e-03
-1.851662e-03
-2.057343e-03
-2.119867e-03
-2.072403e-03
-1.966810e-03
-1.833738e-03
-1.682070e-03
-1.513547e-03
-1.358519e-03
-6.384486e-04
-1.205878e-03
-1.582273e-03
-1.779730e-03
-1.848866e-03
-1.838492e-03
-1.793421e-03
-1.732945e-03
-1.666926e-03
-1.596603e-03
-1.532893e-03
-5.714467e-04
-1.030664e-03
-1.367340e-03
-1.550684e-03
-1.633800e-03
-1.662738e-03
-1.669660e-03
-1.669047e-03
-1.667428e-03
-1.666606e-03
-1.667301e-03
-5.503424e-04
-9.196894e-04
-1.210234e-03
-1.380885e-03
-1.477282e-03
-1.539398e-03
-1.587741e-03
-1.631331e-03
-1.675373e-03
-1.721209e-03
-1.764604e-03
-5.481015e-04
-8.507245e-04
-1.099562e-03
-1.263563e-03
-1.373257e-03
-1.459632e-03
-1.536988e-03
-1.610758e-03
-1.685672e-03
-1.760413e-03
-1.828735e-03
-5.376854e-04
-8.051047e-04
-1.032364e-03
-1.193102e-03
-1.311559e-03
-1.413809e-03
-1.508611e-03
-1.600628e-03
-1.692932e-03
-1.783200e-03
-1.864573e-03
-5.073622e-04
-7.765155e-04
-1.009625e-03
-1.170762e-03
-1.291458e-03
-1.399387e-03
-1.500237e-03
-1.598293e-03
-1.696462e-03
-1.791727e-03
-1.877431e-03
</DataArray>
</PointData>
</Piece>
</UnstructuredGrid>
</VTKFile>
