<?xml version="1.0"?>
<VTKFile type="UnstructuredGrid" version="0.1">
<UnstructuredGrid>
<FieldData>
<DataArray Name="TIME" type="Float64" format="ascii" NumberOfTuples="1">
0.000000e+00
</DataArray>
</FieldData>
<FieldData>
<DataArray Name="CYCLE" type="Int32" format="ascii" NumberOfTuples="1">
0
</DataArray>
</FieldData>
<Piece NumberOfPoints="187" NumberOfCells="160">
<Points>
<DataArray NumberOfComponents="3" type="Float64" format="ascii">
0.000000e+00 0.000000e+00 0.000000e+00
0.000000e+00 1.976037e-01 0.000000e+00
0.000000e+00 3.943932e-01 0.000000e+00
0.000000e+00 5.905310e-01 0.000000e+00
0.000000e+00 7.861323e-01 0.000000e+00
0.000000e+00 9.813867e-01 0.000000e+00
0.000000e+00 1.176505e+00 0.000000e+00
0.000000e+00 1.371716e+00 0.000000e+00
0.000000e+00 1.567353e+00 0.000000e+00
0.000000e+00 1.763807e+00 0.000000e+00
0.000000e+00 1.960625e+00 0.000000e+00
2.250000e-01 0.000000e+00 0.000000e+00
2.261240e-01 1.978017e-01 0.000000e+00
2.270580e-01 3.948549e-01 0.000000e+00
2.277843e-01 5.913092e-01 0.000000e+00
2.282890e-01 7.872676e-01 0.000000e+00
2.284789e-01 9.828320e-01 0.000000e+00
2.283625e-01 1.178104e+00 0.000000e+00
2.278865e-01 1.373219e+00 0.000000e+00
2.269049e-01 1.568397e+00 0.000000e+00
2.255519e-01 1.763944e+00 0.000000e+00
2.250000e-01 1.960625e+00 0.000000e+00
4.500000e-01 0.000000e+00 0.000000e+00
4.520505e-01 1.983104e-01 0.000000e+00
4.537193e-01 3.961505e-01 0.000000e+00
4.550243e-01 5.935577e-01 0.000000e+00
4.559661e-01 7.905492e-01 0.000000e+00
4.565071e-01 9.871025e-01 0.000000e+00
4.567142e-01 1.183156e+00 0.000000e+00
4.564308e-01 1.378620e+00 0.000000e+00
4.554804e-01 1.573373e+00 0.000000e+00
4.536207e-01 1.767258e+00 0.000000e+00
4.500000e-01 1.960625e+00 0.000000e+00
6.750000e-01 0.000000e+00 0.000000e+00
6.775331e-01 1.988533e-01 0.000000e+00
6.794950e-01 3.976343e-01 0.000000e+00
6.810291e-01 5.964336e-01 0.000000e+00
6.822374e-01 7.953120e-01 0.000000e+00
6.831347e-01 9.943067e-01 0.000000e+00
6.837344e-01 1.193431e+00 0.000000e+00
6.839109e-01 1.392738e+00 0.000000e+00
6.835231e-01 1.592363e+00 0.000000e+00
6.821974e-01 1.792438e+00 0.000000e+00
6.784194e-01 1.993070e+00 0.000000e+00
9.000000e-01 0.000000e+00 0.000000e+00
9.026454e-01 1.991501e-01 0.000000e+00
9.045200e-01 3.983538e-01 0.000000e+00
9.059189e-01 5.976560e-01 0.000000e+00
9.069806e-01 7.970645e-01 0.000000e+00
9.077259e-01 9.966016e-01 0.000000e+00
9.081432e-01 1.196310e+00 0.000000e+00
9.081208e-01 1.396227e+00 0.000000e+00
9.075155e-01 1.596365e+00 0.000000e+00
9.059644e-01 1.796691e+00 0.000000e+00
9.034644e-01 1.996687e+00 0.000000e+00
1.125000e+00 0.000000e+00 0.000000e+00
1.127571e+00 1.994161e-01 0.000000e+00
1.129256e+00 3.989263e-01 0.000000e+00
1.130498e+00 5.985466e-01 0.000000e+00
1.131414e+00 7.982826e-01 0.000000e+00
1.132016e+00 9.981471e-01 0.000000e+00
1.132278e+00 1.198154e+00 0.000000e+00
1.132139e+00 1.398310e+00 0.000000e+00
1.131472e+00 1.598590e+00 0.000000e+00
1.130248e+00 1.798846e+00 0.000000e+00
1.128717e+00 1.998926e+00 0.000000e+00
1.350000e+00 0.000000e+00 0.000000e+00
1.352347e+00 1.996205e-01 0.000000e+00
1.353839e+00 3.993532e-01 0.000000e+00
1.354932e+00 5.991917e-01 0.000000e+00
1.355711e+00 7.991336e-01 0.000000e+00
1.356199e+00 9.991815e-01 0.000000e+00
1.356372e+00 1.199337e+00 0.000000e+00
1.356181e+00 1.399590e+00 0.000000e+00
1.355613e+00 1.599885e+00 0.000000e+00
1.354746e+00 1.800117e+00 0.000000e+00
1.353804e+00 2.000188e+00 0.000000e+00
1.575000e+00 0.000000e+00 0.000000e+00
1.577037e+00 1.997626e-01 0.000000e+00
1.578345e+00 3.996435e-01 0.000000e+00
1.579296e+00 5.996222e-01 0.000000e+00
1.579969e+00 7.996895e-01 0.000000e+00
1.580370e+00 9.998415e-01 0.000000e+00
1.580488e+00 1.200073e+00 0.000000e+00
1.580318e+00 1.400359e+00 0.000000e+00
1.579899e+00 1.600641e+00 0.000000e+00
1.579323e+00 1.800847e+00 0.000000e+00
1.578760e+00 2.000937e+00 0.000000e+00
1.800000e+00 0.000000e+00 0.000000e+00
1.801696e+00 1.998516e-01 0.000000e+00
1.802824e+00 3.998278e-01 0.000000e+00
1.803650e+00 5.998911e-01 0.000000e+00
1.804232e+00 8.000292e-01 0.000000e+00
1.804568e+00 1.000237e+00 0.000000e+00
1.804667e+00 1.200500e+00 0.000000e+00
1.804553e+00 1.400785e+00 0.000000e+00
1.804275e+00 1.601049e+00 0.000000e+00
1.803918e+00 1.801245e+00 0.000000e+00
1.803603e+00 2.001354e+00 0.000000e+00
2.025000e+00 0.000000e+00 0.000000e+00
2.026363e+00 1.999085e-01 0.000000e+00
2.027318e+00 3.999359e-01 0.000000e+00
2.028031e+00 6.000398e-01 0.000000e+00
2.028528e+00 8.002134e-01 0.000000e+00
2.028817e+00 1.000444e+00 0.000000e+00
2.028920e+00 1.200712e+00 0.000000e+00
2.028866e+00 1.400985e+00 0.000000e+00
2.028703e+00 1.601233e+00 0.000000e+00
2.028502e+00 1.801426e+00 0.000000e+00
2.028352e+00 2.001556e+00 0.000000e+00
2.250000e+00 0.000000e+00 0.000000e+00
2.251061e+00 1.999390e-01 0.000000e+00
2.251856e+00 3.999841e-01 0.000000e+00
2.252455e+00 6.001035e-01 0.000000e+00
2.252876e+00 8.002893e-01 0.000000e+00
2.253130e+00 1.000523e+00 0.000000e+00
2.253241e+00 1.200782e+00 0.000000e+00
2.253235e+00 1.401041e+00 0.000000e+00
2.253158e+00 1.601277e+00 0.000000e+00
2.253065e+00 1.801472e+00 0.000000e+00
2.253020e+00 2.001623e+00 0.000000e+00
2.475000e+00 0.000000e+00 0.000000e+00
2.475806e+00 1.999504e-01 0.000000e+00
2.476445e+00 3.999956e-01 0.000000e+00
2.476934e+00 6.001170e-01 0.000000e+00
2.477282e+00 8.002989e-01 0.000000e+00
2.477505e+00 1.000523e+00 0.000000e+00
2.477617e+00 1.200768e+00 0.000000e+00
2.477645e+00 1.401013e+00 0.000000e+00
2.477627e+00 1.601240e+00 0.000000e+00
2.477603e+00 1.801438e+00 0.000000e+00
2.477620e+00 2.001609e+00 0.000000e+00
2.700000e+00 0.000000e+00 0.000000e+00
2.700596e+00 1.999536e-01 0.000000e+00
2.701085e+00 3.999927e-01 0.000000e+00
2.701467e+00 6.001045e-01 0.000000e+00
2.701747e+00 8.002738e-01 0.000000e+00
2.701934e+00 1.000482e+00 0.000000e+00
2.702039e+00 1.200712e+00 0.000000e+00
2.702086e+00 1.400944e+00 0.000000e+00
2.702101e+00 1.601164e+00 0.000000e+00
2.702116e+00 1.801367e+00 0.000000e+00
2.702164e+00 2.001555e+00 0.000000e+00
2.925000e+00 0.000000e+00 0.000000e+00
2.925419e+00 1.999530e-01 0.000000e+00
2.925772e+00 3.999846e-01 0.000000e+00
2.926053e+00 6.000834e-01 0.000000e+00
2.926264e+00 8.002377e-01 0.000000e+00
2.926409e+00 1.000431e+00 0.000000e+00
2.926498e+00 1.200645e+00 0.000000e+00
2.926548e+00 1.400866e+00 0.000000e+00
2.926576e+00 1.601082e+00 0.000000e+00
2.926607e+00 1.801290e+00 0.000000e+00
2.926662e+00 2.001492e+00 0.000000e+00
3.150000e+00 0.000000e+00 0.000000e+00
3.150267e+00 1.999507e-01 0.000000e+00
3.150497e+00 3.999754e-01 0.000000e+00
3.150681e+00 6.000648e-01 0.000000e+00
3.150820e+00 8.002071e-01 0.000000e+00
3.150919e+00 1.000388e+00 0.000000e+00
3.150984e+00 1.200591e+00 0.000000e+00
3.151024e+00 1.400803e+00 0.000000e+00
3.151052e+00 1.601016e+00 0.000000e+00
3.151080e+00 1.801227e+00 0.000000e+00
3.151126e+00 2.001439e+00 0.000000e+00
3.375000e+00 0.000000e+00 0.000000e+00
3.375131e+00 1.999512e-01 0.000000e+00
3.375243e+00 3.999746e-01 0.000000e+00
3.375334e+00 6.000594e-01 0.000000e+00
3.375404e+00 8.001945e-01 0.000000e+00
3.375454e+00 1.000367e+00 0.000000e+00
3.375488e+00 1.200563e+00 0.000000e+00
3.375510e+00 1.400770e+00 0.000000e+00
3.375526e+00 1.600981e+00 0.000000e+00
3.375543e+00 1.801194e+00 0.000000e+00
3.375568e+00 2.001412e+00 0.000000e+00
3.600000e+00 0.000000e+00 0.000000e+00
3.600000e+00 1.999643e-01 0.000000e+00
3.600000e+00 3.999900e-01 0.000000e+00
3.600000e+00 6.000733e-01 0.000000e+00
3.600000e+00 8.002056e-01 0.000000e+00
3.600000e+00 1.000375e+00 0.000000e+00
3.600000e+00 1.200568e+00 0.000000e+00
3.600000e+00 1.400774e+00 0.000000e+00
3.600000e+00 1.600985e+00 0.000000e+00
3.600000e+00 1.801198e+00 0.000000e+00
3.600000e+00 2.001418e+00 0.000000e+00
</DataArray>
</Points>
<Cells>
<DataArray Name="connectivity" type="Int32" format="ascii">
0 11 12 1
1 12 13 2
2 13 14 3
3 14 15 4
4 15 16 5
5 16 17 6
6 17 18 7
7 18 19 8
8 19 20 9
9 20 21 10
11 22 23 12
12 23 24 13
13 24 25 14
14 25 26 15
15 26 27 16
16 27 28 17
17 28 29 18
18 29 30 19
19 30 31 20
20 31 32 21
22 33 34 23
23 34 35 24
24 35 36 25
25 36 37 26
26 37 38 27
27 38 39 28
28 39 40 29
29 40 41 30
30 41 42 31
31 42 43 32
33 44 45 34
34 45 46 35
35 46 47 36
36 47 48 37
37 48 49 38
38 49 50 39
39 50 51 40
40 51 52 41
41 52 53 42
42 53 54 43
44 55 56 45
45 56 57 46
46 57 58 47
47 58 59 48
48 59 60 49
49 60 61 50
50 61 62 51
51 62 63 52
52 63 64 53
53 64 65 54
55 66 67 56
56 67 68 57
57 68 69 58
58 69 70 59
59 70 71 60
60 71 72 61
61 72 73 62
62 73 74 63
63 74 75 64
64 75 76 65
66 77 78 67
67 78 79 68
68 79 80 69
69 80 81 70
70 81 82 71
71 82 83 72
72 83 84 73
73 84 85 74
74 85 86 75
75 86 87 76
77 88 89 78
78 89 90 79
79 90 91 80
80 91 92 81
81 92 93 82
82 93 94 83
83 94 95 84
84 95 96 85
85 96 97 86
86 97 98 87
88 99 100 89
89 100 101 90
90 101 102 91
91 102 103 92
92 103 104 93
93 104 105 94
94 105 106 95
95 106 107 96
96 107 108 97
97 108 109 98
99 110 111 100
100 111 112 101
101 112 113 102
102 113 114 103
103 114 115 104
104 115 116 105
105 116 117 106
106 117 118 107
107 118 119 108
108 119 120 109
110 121 122 111
111 122 123 112
112 123 124 113
113 124 125 114
114 125 126 115
115 126 127 116
116 127 128 117
117 128 129 118
118 129 130 119
119 130 131 120
121 132 133 122
122 133 134 123
123 134 135 124
124 135 136 125
125 136 137 126
126 137 138 127
127 138 139 128
128 139 140 129
129 140 141 130
130 141 142 131
132 143 144 133
133 144 145 134
134 145 146 135
135 146 147 136
136 147 148 137
137 148 149 138
138 149 150 139
139 150 151 140
140 151 152 141
141 152 153 142
143 154 155 144
144 155 156 145
145 156 157 146
146 157 158 147
147 158 159 148
148 159 160 149
149 160 161 150
150 161 162 151
151 162 163 152
152 163 164 153
154 165 166 155
155 166 167 156
156 167 168 157
157 168 169 158
158 169 170 159
159 170 171 160
160 171 172 161
161 172 173 162
162 173 174 163
163 174 175 164
165 176 177 166
166 177 178 167
167 178 179 168
168 179 180 169
169 180 181 170
170 181 182 171
171 182 183 172
172 183 184 173
173 184 185 174
174 185 186 175
</DataArray>
<DataArray Name="offsets" type="Int32" format="ascii">
4
8
12
16
20
24
28
32
36
40
44
48
52
56
60
64
68
72
76
80
84
88
92
96
100
104
108
112
116
120
124
128
132
136
140
144
148
152
156
160
164
168
172
176
180
184
188
192
196
200
204
208
212
216
220
224
228
232
236
240
244
248
252
256
260
264
268
272
276
280
284
288
292
296
300
304
308
312
316
320
324
328
332
336
340
344
348
352
356
360
364
368
372
376
380
384
388
392
396
400
404
408
412
416
420
424
428
432
436
440
444
448
452
456
460
464
468
472
476
480
484
488
492
496
500
504
508
512
516
520
524
528
532
536
540
544
548
552
556
560
564
568
572
576
580
584
588
592
596
600
604
608
612
616
620
624
628
632
636
640
</DataArray>
<DataArray Name="types" type="UInt8" format="ascii">
9
9
9
9
9
9
9
9
9
9
9
9
9
9
9
9
9
9
9
9
9
9
9
9
9
9
9
9
9
9
9
9
9
9
9
9
9
9
9
9
9
9
9
9
9
9
9
9
9
9
9
9
9
9
9
9
9
9
9
9
9
9
9
9
9
9
9
9
9
9
9
9
9
9
9
9
9
9
9
9
9
9
9
9
9
9
9
9
9
9
9
9
9
9
9
9
9
9
9
9
9
9
9
9
9
9
9
9
9
9
9
9
9
9
9
9
9
9
9
9
9
9
9
9
9
9
9
9
9
9
9
9
9
9
9
9
9
9
9
9
9
9
9
9
9
9
9
9
9
9
9
9
9
9
9
9
9
9
9
9
</DataArray>
</Cells>
<PointData>
<DataArray Name="disp" type="Float64" NumberOfComponents="3" format="ascii">
0.000000e+00 0.000000e+00 0.000000e+00
0.000000e+00 -2.396265e-03 0.000000e+00
0.000000e+00 -5.606785e-03 0.000000e+00
0.000000e+00 -9.468987e-03 0.000000e+00
0.000000e+00 -1.386766e-02 0.000000e+00
0.000000e+00 -1.861326e-02 0.000000e+00
0.000000e+00 -2.349518e-02 0.000000e+00
0.000000e+00 -2.828449e-02 0.000000e+00
0.000000e+00 -3.264687e-02 0.000000e+00
0.000000e+00 -3.619273e-02 0.000000e+00
0.000000e+00 -3.937500e-02 0.000000e+00
0.000000e+00 0.000000e+00 0.000000e+00
1.124017e-03 -2.198304e-03 0.000000e+00
2.057974e-03 -5.145084e-03 0.000000e+00
2.784255e-03 -8.690739e-03 0.000000e+00
3.288973e-03 -1.273244e-02 0.000000e+00
3.478944e-03 -1.716806e-02 0.000000e+00
3.362464e-03 -2.189635e-02 0.000000e+00
2.886483e-03 -2.678122e-02 0.000000e+00
1.904867e-03 -3.160308e-02 0.000000e+00
5.518688e-04 -3.605601e-02 0.000000e+00
0.000000e+00 -3.937500e-02 0.000000e+00
0.000000e+00 0.000000e+00 0.000000e+00
2.050518e-03 -1.689559e-03 0.000000e+00
3.719244e-03 -3.849463e-03 0.000000e+00
5.024320e-03 -6.442286e-03 0.000000e+00
5.966152e-03 -9.450824e-03 0.000000e+00
6.507101e-03 -1.289750e-02 0.000000e+00
6.714239e-03 -1.684371e-02 0.000000e+00
6.430825e-03 -2.138016e-02 0.000000e+00
5.480361e-03 -2.662651e-02 0.000000e+00
3.620735e-03 -3.274232e-02 0.000000e+00
0.000000e+00 -3.937500e-02 0.000000e+00
0.000000e+00 0.000000e+00 0.000000e+00
2.533078e-03 -1.146726e-03 0.000000e+00
4.494949e-03 -2.365691e-03 0.000000e+00
6.029150e-03 -3.566355e-03 0.000000e+00
7.237403e-03 -4.688021e-03 0.000000e+00
8.134720e-03 -5.693241e-03 0.000000e+00
8.734371e-03 -6.568498e-03 0.000000e+00
8.910893e-03 -7.262454e-03 0.000000e+00
8.523146e-03 -7.637166e-03 0.000000e+00
7.197405e-03 -7.562005e-03 0.000000e+00
3.419429e-03 -6.929810e-03 0.000000e+00
0.000000e+00 0.000000e+00 0.000000e+00
2.645392e-03 -8.499164e-04 0.000000e+00
4.520011e-03 -1.646250e-03 0.000000e+00
5.918916e-03 -2.344006e-03 0.000000e+00
6.980596e-03 -2.935459e-03 0.000000e+00
7.725846e-03 -3.398363e-03 0.000000e+00
8.143185e-03 -3.689699e-03 0.000000e+00
8.120773e-03 -3.772833e-03 0.000000e+00
7.515531e-03 -3.634905e-03 0.000000e+00
5.964435e-03 -3.308552e-03 0.000000e+00
3.464372e-03 -3.313087e-03 0.000000e+00
0.000000e+00 0.000000e+00 0.000000e+00
2.571232e-03 -5.838712e-04 0.000000e+00
4.255961e-03 -1.073656e-03 0.000000e+00
5.497943e-03 -1.453424e-03 0.000000e+00
6.414356e-03 -1.717389e-03 0.000000e+00
7.015604e-03 -1.852923e-03 0.000000e+00
7.278322e-03 -1.845791e-03 0.000000e+00
7.139176e-03 -1.690296e-03 0.000000e+00
6.472495e-03 -1.410411e-03 0.000000e+00
5.247821e-03 -1.153598e-03 0.000000e+00
3.716777e-03 -1.073914e-03 0.000000e+00
0.000000e+00 0.000000e+00 0.000000e+00
2.346604e-03 -3.794665e-04 0.000000e+00
3.838997e-03 -6.467614e-04 0.000000e+00
4.932140e-03 -8.082670e-04 0.000000e+00
5.711079e-03 -8.663989e-04 0.000000e+00
6.198706e-03 -8.185038e-04 0.000000e+00
6.371805e-03 -6.628188e-04 0.000000e+00
6.181265e-03 -4.097434e-04 0.000000e+00
5.612879e-03 -1.149752e-04 0.000000e+00
4.745585e-03 1.171949e-04 0.000000e+00
3.804260e-03 1.881136e-04 0.000000e+00
0.000000e+00 0.000000e+00 0.000000e+00
2.036793e-03 -2.373772e-04 0.000000e+00
3.344965e-03 -3.565303e-04 0.000000e+00
4.295552e-03 -3.777410e-04 0.000000e+00
4.968677e-03 -3.105564e-04 0.000000e+00
5.369907e-03 -1.585777e-04 0.000000e+00
5.487950e-03 7.342311e-05 0.000000e+00
5.318034e-03 3.585078e-04 0.000000e+00
4.898554e-03 6.405004e-04 0.000000e+00
4.323193e-03 8.470692e-04 0.000000e+00
3.759779e-03 9.374824e-04 0.000000e+00
0.000000e+00 0.000000e+00 0.000000e+00
1.695990e-03 -1.483620e-04 0.000000e+00
2.824528e-03 -1.722324e-04 0.000000e+00
3.650421e-03 -1.089028e-04 0.000000e+00
4.231493e-03 2.916224e-05 0.000000e+00
4.567537e-03 2.370120e-04 0.000000e+00
4.667183e-03 4.998667e-04 0.000000e+00
4.552725e-03 7.854423e-04 0.000000e+00
4.275397e-03 1.048649e-03 0.000000e+00
3.917657e-03 1.244723e-03 0.000000e+00
3.602916e-03 1.353879e-03 0.000000e+00
0.000000e+00 0.000000e+00 0.000000e+00
1.362538e-03 -9.153158e-05 0.000000e+00
2.318301e-03 -6.410673e-05 0.000000e+00
3.030665e-03 3.980491e-05 0.000000e+00
3.527999e-03 2.134035e-04 0.000000e+00
3.817474e-03 4.444040e-04 0.000000e+00
3.919785e-03 7.115808e-04 0.000000e+00
3.865550e-03 9.854947e-04 0.000000e+00
3.702994e-03 1.233285e-03 0.000000e+00
3.502239e-03 1.426358e-03 0.000000e+00
3.351699e-03 1.556457e-03 0.000000e+00
0.000000e+00 0.000000e+00 0.000000e+00
1.061046e-03 -6.100350e-05 0.000000e+00
1.855655e-03 -1.590220e-05 0.000000e+00
2.455535e-03 1.034811e-04 0.000000e+00
2.876015e-03 2.893478e-04 0.000000e+00
3.130296e-03 5.229453e-04 0.000000e+00
3.240496e-03 7.816470e-04 0.000000e+00
3.234735e-03 1.041298e-03 0.000000e+00
3.158263e-03 1.277173e-03 0.000000e+00
3.065355e-03 1.471619e-03 0.000000e+00
3.020195e-03 1.622643e-03 0.000000e+00
0.000000e+00 0.000000e+00 0.000000e+00
8.064223e-04 -4.960513e-05 0.000000e+00
1.444945e-03 -4.414727e-06 0.000000e+00
1.933729e-03 1.170309e-04 0.000000e+00
2.282274e-03 2.989337e-04 0.000000e+00
2.504723e-03 5.228817e-04 0.000000e+00
2.617006e-03 7.681222e-04 0.000000e+00
2.645159e-03 1.013005e-03 0.000000e+00
2.626991e-03 1.239657e-03 0.000000e+00
2.603410e-03 1.438174e-03 0.000000e+00
2.620392e-03 1.608532e-03 0.000000e+00
0.000000e+00 0.000000e+00 0.000000e+00
5.959786e-04 -4.644039e-05 0.000000e+00
1.085417e-03 -7.262595e-06 0.000000e+00
1.467237e-03 1.044397e-04 0.000000e+00
1.747396e-03 2.737538e-04 0.000000e+00
1.933596e-03 4.824143e-04 0.000000e+00
2.039387e-03 7.119657e-04 0.000000e+00
2.085831e-03 9.436301e-04 0.000000e+00
2.100941e-03 1.164083e-03 0.000000e+00
2.115982e-03 1.367362e-03 0.000000e+00
2.164486e-03 1.554957e-03 0.000000e+00
0.000000e+00 0.000000e+00 0.000000e+00
4.190133e-04 -4.698419e-05 0.000000e+00
7.723161e-04 -1.543465e-05 0.000000e+00
1.052961e-03 8.341582e-05 0.000000e+00
1.263680e-03 2.376560e-04 0.000000e+00
1.408932e-03 4.306538e-04 0.000000e+00
1.498317e-03 6.454251e-04 0.000000e+00
1.547585e-03 8.661819e-04 0.000000e+00
1.576266e-03 1.082211e-03 0.000000e+00
1.606662e-03 1.289520e-03 0.000000e+00
1.662159e-03 1.491647e-03 0.000000e+00
0.000000e+00 0.000000e+00 0.000000e+00
2.668294e-04 -4.935515e-05 0.000000e+00
4.966459e-04 -2.464022e-05 0.000000e+00
6.804643e-04 6.477111e-05 0.000000e+00
8.205592e-04 2.070552e-04 0.000000e+00
9.194626e-04 3.876777e-04 0.000000e+00
9.842872e-04 5.909732e-04 0.000000e+00
1.023989e-03 8.033725e-04 0.000000e+00
1.051420e-03 1.016350e-03 0.000000e+00
1.080398e-03 1.226816e-03 0.000000e+00
1.126046e-03 1.439100e-03 0.000000e+00
0.000000e+00 0.000000e+00 0.000000e+00
1.313118e-04 -4.878437e-05 0.000000e+00
2.431111e-04 -2.534398e-05 0.000000e+00
3.340681e-04 5.946048e-05 0.000000e+00
4.039778e-04 1.945298e-04 0.000000e+00
4.536810e-04 3.669505e-04 0.000000e+00
4.876014e-04 5.627418e-04 0.000000e+00
5.099279e-04 7.699229e-04 0.000000e+00
5.259733e-04 9.811505e-04 0.000000e+00
5.430039e-04 1.193791e-03 0.000000e+00
5.681239e-04 1.411738e-03 0.000000e+00
0.000000e+00 0.000000e+00 0.000000e+00
0.000000e+00 -3.566750e-05 0.000000e+00
0.000000e+00 -9.991860e-06 0.000000e+00
0.000000e+00 7.331085e-05 0.000000e+00
0.000000e+00 2.056192e-04 0.000000e+00
0.000000e+00 3.751860e-04 0.000000e+00
0.000000e+00 5.684732e-04 0.000000e+00
0.000000e+00 7.743099e-04 0.000000e+00
0.000000e+00 9.848493e-04 0.000000e+00
0.000000e+00 1.198132e-03 0.000000e+00
0.000000e+00 1.417690e-03 0.000000e+00
</DataArray>
<DataArray Name="shear" type="Float64" NumberOfComponents="1" format="ascii">
1.355853e-02
1.875537e-02
2.652740e-02
3.274278e-02
3.725919e-02
3.960086e-02
3.952092e-02
3.636678e-02
2.938022e-02
2.089010e-02
1.709983e-02
1.369660e-02
1.827330e-02
2.527533e-02
3.113931e-02
3.579375e-02
3.908835e-02
4.081182e-02
4.014919e-02
3.637365e-02
2.872501e-02
2.222150e-02
1.431443e-02
1.708197e-02
2.175821e-02
2.681623e-02
3.241124e-02
3.886909e-02
4.603250e-02
5.329270e-02
6.022223e-02
6.384511e-02
6.422905e-02
1.451194e-02
1.499568e-02
1.594652e-02
1.812311e-02
2.155643e-02
2.635317e-02
3.240384e-02
3.955138e-02
4.754252e-02
5.389731e-02
5.854737e-02
1.419826e-02
1.319693e-02
1.155614e-02
1.109938e-02
1.119251e-02
1.148573e-02
1.170404e-02
1.147558e-02
1.006053e-02
5.975887e-03
1.705046e-03
1.339422e-02
1.184872e-02
9.594665e-03
8.845738e-03
8.585959e-03
8.451959e-03
8.210013e-03
7.569706e-03
6.124724e-03
3.264767e-03
7.594944e-04
1.203931e-02
1.037768e-02
8.119732e-03
7.377421e-03
7.035592e-03
6.794218e-03
6.480769e-03
5.911023e-03
4.749840e-03
2.710783e-03
1.084865e-03
1.036920e-02
8.892088e-03
6.958270e-03
6.326472e-03
6.019630e-03
5.813309e-03
5.570286e-03
5.082019e-03
4.119174e-03
2.576804e-03
1.410719e-03
8.606178e-03
7.457296e-03
6.002770e-03
5.519676e-03
5.304901e-03
5.178091e-03
4.989111e-03
4.564521e-03
3.780233e-03
2.614891e-03
1.785838e-03
6.908754e-03
6.109732e-03
5.129716e-03
4.816358e-03
4.725703e-03
4.681806e-03
4.544255e-03
4.202537e-03
3.591638e-03
2.733258e-03
2.158789e-03
5.378899e-03
4.872851e-03
4.296346e-03
4.174921e-03
4.218461e-03
4.255057e-03
4.181987e-03
3.934737e-03
3.485502e-03
2.886779e-03
2.510329e-03
4.082329e-03
3.783916e-03
3.529015e-03
3.594579e-03
3.759230e-03
3.879545e-03
3.880402e-03
3.727357e-03
3.430152e-03
3.049752e-03
2.824960e-03
3.011134e-03
2.849516e-03
2.838675e-03
3.071503e-03
3.348265e-03
3.551242e-03
3.627771e-03
3.568419e-03
3.406132e-03
3.203616e-03
3.096072e-03
2.114128e-03
2.048039e-03
2.238670e-03
2.624437e-03
3.004861e-03
3.281670e-03
3.426083e-03
3.450520e-03
3.397542e-03
3.332648e-03
3.314619e-03
1.347361e-03
1.366865e-03
1.767136e-03
2.292295e-03
2.751995e-03
3.084227e-03
3.280408e-03
3.368295e-03
3.396244e-03
3.426904e-03
3.468768e-03
6.712781e-04
8.248051e-04
1.463936e-03
2.092486e-03
2.599181e-03
2.962559e-03
3.192170e-03
3.321160e-03
3.398656e-03
3.483671e-03
3.557919e-03
2.383853e-04
5.886298e-04
1.357811e-03
2.022046e-03
2.545481e-03
2.919766e-03
3.162171e-03
3.306691e-03
3.400387e-03
3.502273e-03
3.585912e-03
</DataArray>
<DataArray Name="stress" type="Float64" NumberOfComponents="9" format="ascii">
-1.049636e+05 4.857677e+03 0.000000e+00 4.857677e+03 -1.724622e+05 0.000000e+00 0.000000e+00 0.000000e+00 0.000000e+00
-9.422473e+04 4.544319e+03 0.000000e+00 4.544319e+03 -1.709280e+05 0.000000e+00 0.000000e+00 0.000000e+00 0.000000e+00
-8.940702e+04 4.372303e+03 0.000000e+00 4.372303e+03 -1.810682e+05 0.000000e+00 0.000000e+00 0.000000e+00 0.000000e+00
-8.931288e+04 4.448288e+03 0.000000e+00 4.448288e+03 -1.897487e+05 0.000000e+00 0.000000e+00 0.000000e+00 0.000000e+00
-9.201532e+04 4.765436e+03 0.000000e+00 4.765436e+03 -1.980568e+05 0.000000e+00 0.000000e+00 0.000000e+00 0.000000e+00
-9.594970e+04 5.236864e+03 0.000000e+00 5.236864e+03 -2.069609e+05 0.000000e+00 0.000000e+00 0.000000e+00 0.000000e+00
-1.005515e+05 5.552750e+03 0.000000e+00 5.552750e+03 -2.157240e+05 0.000000e+00 0.000000e+00 0.000000e+00 0.000000e+00
-1.055826e+05 5.068438e+03 0.000000e+00 5.068438e+03 -2.235199e+05 0.000000e+00 0.000000e+00 0.000000e+00 0.000000e+00
-1.132052e+05 2.428571e+03 0.000000e+00 2.428571e+03 -2.284276e+05 0.000000e+00 0.000000e+00 0.000000e+00 0.000000e+00
-1.271074e+05 -1.304502e+03 0.000000e+00 -1.304502e+03 -2.293884e+05 0.000000e+00 0.000000e+00 0.000000e+00 0.000000e+00
-1.353131e+05 -1.695038e+03 0.000000e+00 -1.695038e+03 -2.273772e+05 0.000000e+00 0.000000e+00 0.000000e+00 0.000000e+00
-1.029443e+05 1.317629e+04 0.000000e+00 1.317629e+04 -1.621748e+05 0.000000e+00 0.000000e+00 0.000000e+00 0.000000e+00
-9.318448e+04 1.183682e+04 0.000000e+00 1.183682e+04 -1.606402e+05 0.000000e+00 0.000000e+00 0.000000e+00 0.000000e+00
-8.907834e+04 1.057023e+04 0.000000e+00 1.057023e+04 -1.694571e+05 0.000000e+00 0.000000e+00 0.000000e+00 0.000000e+00
-8.948959e+04 1.033974e+04 0.000000e+00 1.033974e+04 -1.780094e+05 0.000000e+00 0.000000e+00 0.000000e+00 0.000000e+00
-9.235162e+04 1.085071e+04 0.000000e+00 1.085071e+04 -1.870984e+05 0.000000e+00 0.000000e+00 0.000000e+00 0.000000e+00
-9.659609e+04 1.149530e+04 0.000000e+00 1.149530e+04 -1.972645e+05 0.000000e+00 0.000000e+00 0.000000e+00 0.000000e+00
-1.010756e+05 1.155935e+04 0.000000e+00 1.155935e+04 -2.077704e+05 0.000000e+00 0.000000e+00 0.000000e+00 0.000000e+00
-1.055381e+05 1.003224e+04 0.000000e+00 1.003224e+04 -2.183110e+05 0.000000e+00 0.000000e+00 0.000000e+00 0.000000e+00
-1.115819e+05 5.773320e+03 0.000000e+00 5.773320e+03 -2.285084e+05 0.000000e+00 0.000000e+00 0.000000e+00 0.000000e+00
-1.216812e+05 -1.680002e+02 0.000000e+00 -1.680002e+02 -2.345650e+05 0.000000e+00 0.000000e+00 0.000000e+00 0.000000e+00
-1.394376e+05 -5.722118e+03 0.000000e+00 -5.722118e+03 -2.491672e+05 0.000000e+00 0.000000e+00 0.000000e+00 0.000000e+00
-9.755255e+04 2.121450e+04 0.000000e+00 2.121450e+04 -1.396892e+05 0.000000e+00 0.000000e+00 0.000000e+00 0.000000e+00
-9.054353e+04 1.971896e+04 0.000000e+00 1.971896e+04 -1.379585e+05 0.000000e+00 0.000000e+00 0.000000e+00 0.000000e+00
-8.851747e+04 1.900946e+04 0.000000e+00 1.900946e+04 -1.431056e+05 0.000000e+00 0.000000e+00 0.000000e+00 0.000000e+00
-9.094500e+04 2.003664e+04 0.000000e+00 2.003664e+04 -1.496523e+05 0.000000e+00 0.000000e+00 0.000000e+00 0.000000e+00
-9.549088e+04 2.210532e+04 0.000000e+00 2.210532e+04 -1.576640e+05 0.000000e+00 0.000000e+00 0.000000e+00 0.000000e+00
-1.014015e+05 2.454091e+04 0.000000e+00 2.454091e+04 -1.668579e+05 0.000000e+00 0.000000e+00 0.000000e+00 0.000000e+00
-1.071711e+05 2.567994e+04 0.000000e+00 2.567994e+04 -1.756568e+05 0.000000e+00 0.000000e+00 0.000000e+00 0.000000e+00
-1.139024e+05 2.683852e+04 0.000000e+00 2.683852e+04 -1.870232e+05 0.000000e+00 0.000000e+00 0.000000e+00 0.000000e+00
-1.232728e+05 2.671021e+04 0.000000e+00 2.671021e+04 -2.023989e+05 0.000000e+00 0.000000e+00 0.000000e+00 0.000000e+00
-1.370055e+05 2.046557e+04 0.000000e+00 2.046557e+04 -2.207885e+05 0.000000e+00 0.000000e+00 0.000000e+00 0.000000e+00
-1.571675e+05 1.098062e+04 0.000000e+00 1.098062e+04 -2.490593e+05 0.000000e+00 0.000000e+00 0.000000e+00 0.000000e+00
-9.149540e+04 2.312615e+04 0.000000e+00 2.312615e+04 -1.184886e+05 0.000000e+00 0.000000e+00 0.000000e+00 0.000000e+00
-8.751122e+04 2.210748e+04 0.000000e+00 2.210748e+04 -1.167875e+05 0.000000e+00 0.000000e+00 0.000000e+00 0.000000e+00
-8.663277e+04 2.174082e+04 0.000000e+00 2.174082e+04 -1.169706e+05 0.000000e+00 0.000000e+00 0.000000e+00 0.000000e+00
-8.865627e+04 2.265540e+04 0.000000e+00 2.265540e+04 -1.163472e+05 0.000000e+00 0.000000e+00 0.000000e+00 0.000000e+00
-9.123948e+04 2.403612e+04 0.000000e+00 2.403612e+04 -1.147171e+05 0.000000e+00 0.000000e+00 0.000000e+00 0.000000e+00
-9.373764e+04 2.508099e+04 0.000000e+00 2.508099e+04 -1.117804e+05 0.000000e+00 0.000000e+00 0.000000e+00 0.000000e+00
-9.571081e+04 2.541643e+04 0.000000e+00 2.541643e+04 -1.074684e+05 0.000000e+00 0.000000e+00 0.000000e+00 0.000000e+00
-9.678208e+04 2.567424e+04 0.000000e+00 2.567424e+04 -1.021061e+05 0.000000e+00 0.000000e+00 0.000000e+00 0.000000e+00
-9.566530e+04 2.412295e+04 0.000000e+00 2.412295e+04 -9.325299e+04 0.000000e+00 0.000000e+00 0.000000e+00 0.000000e+00
-8.695481e+04 1.717113e+04 0.000000e+00 1.717113e+04 -7.811618e+04 0.000000e+00 0.000000e+00 0.000000e+00 0.000000e+00
-7.464329e+04 1.278859e+04 0.000000e+00 1.278859e+04 -7.145691e+04 0.000000e+00 0.000000e+00 0.000000e+00 0.000000e+00
-8.710978e+04 2.268843e+04 0.000000e+00 2.268843e+04 -1.046030e+05 0.000000e+00 0.000000e+00 0.000000e+00 0.000000e+00
-8.636047e+04 2.186719e+04 0.000000e+00 2.186719e+04 -1.038324e+05 0.000000e+00 0.000000e+00 0.000000e+00 0.000000e+00
-8.812848e+04 2.120855e+04 0.000000e+00 2.120855e+04 -1.031659e+05 0.000000e+00 0.000000e+00 0.000000e+00 0.000000e+00
-9.167427e+04 2.149363e+04 0.000000e+00 2.149363e+04 -1.016200e+05 0.000000e+00 0.000000e+00 0.000000e+00 0.000000e+00
-9.529142e+04 2.189809e+04 0.000000e+00 2.189809e+04 -9.910145e+04 0.000000e+00 0.000000e+00 0.000000e+00 0.000000e+00
-9.835536e+04 2.195592e+04 0.000000e+00 2.195592e+04 -9.539553e+04 0.000000e+00 0.000000e+00 0.000000e+00 0.000000e+00
-1.009320e+05 2.132419e+04 0.000000e+00 2.132419e+04 -9.039876e+04 0.000000e+00 0.000000e+00 0.000000e+00 0.000000e+00
-1.021554e+05 1.936997e+04 0.000000e+00 1.936997e+04 -8.364870e+04 0.000000e+00 0.000000e+00 0.000000e+00 0.000000e+00
-1.007194e+05 1.509234e+04 0.000000e+00 1.509234e+04 -7.537702e+04 0.000000e+00 0.000000e+00 0.000000e+00 0.000000e+00
-9.069556e+04 7.064063e+03 0.000000e+00 7.064063e+03 -6.790821e+04 0.000000e+00 0.000000e+00 0.000000e+00 0.000000e+00
-6.684730e+04 1.175247e+03 0.000000e+00 1.175247e+03 -5.809919e+04 0.000000e+00 0.000000e+00 0.000000e+00 0.000000e+00
-8.249498e+04 2.127677e+04 0.000000e+00 2.127677e+04 -9.328721e+04 0.000000e+00 0.000000e+00 0.000000e+00 0.000000e+00
-8.443008e+04 2.068150e+04 0.000000e+00 2.068150e+04 -9.314597e+04 0.000000e+00 0.000000e+00 0.000000e+00 0.000000e+00
-8.791391e+04 1.953967e+04 0.000000e+00 1.953967e+04 -9.155973e+04 0.000000e+00 0.000000e+00 0.000000e+00 0.000000e+00
-9.188078e+04 1.894254e+04 0.000000e+00 1.894254e+04 -8.914509e+04 0.000000e+00 0.000000e+00 0.000000e+00 0.000000e+00
-9.523853e+04 1.824803e+04 0.000000e+00 1.824803e+04 -8.605989e+04 0.000000e+00 0.000000e+00 0.000000e+00 0.000000e+00
-9.772146e+04 1.710227e+04 0.000000e+00 1.710227e+04 -8.207430e+04 0.000000e+00 0.000000e+00 0.000000e+00 0.000000e+00
-9.918848e+04 1.509048e+04 0.000000e+00 1.509048e+04 -7.726328e+04 0.000000e+00 0.000000e+00 0.000000e+00 0.000000e+00
-9.879473e+04 1.178362e+04 0.000000e+00 1.178362e+04 -7.177473e+04 0.000000e+00 0.000000e+00 0.000000e+00 0.000000e+00
-9.468073e+04 6.756748e+03 0.000000e+00 6.756748e+03 -6.646014e+04 0.000000e+00 0.000000e+00 0.000000e+00 0.000000e+00
-8.130618e+04 1.138496e+03 0.000000e+00 1.138496e+03 -6.231786e+04 0.000000e+00 0.000000e+00 0.000000e+00 0.000000e+00
-6.280305e+04 -1.127817e+03 0.000000e+00 -1.127817e+03 -5.801814e+04 0.000000e+00 0.000000e+00 0.000000e+00 0.000000e+00
-7.811809e+04 1.947567e+04 0.000000e+00 1.947567e+04 -8.415310e+04 0.000000e+00 0.000000e+00 0.000000e+00 0.000000e+00
-8.235762e+04 1.889747e+04 0.000000e+00 1.889747e+04 -8.450345e+04 0.000000e+00 0.000000e+00 0.000000e+00 0.000000e+00
-8.692794e+04 1.726097e+04 0.000000e+00 1.726097e+04 -8.240732e+04 0.000000e+00 0.000000e+00 0.000000e+00 0.000000e+00
-9.095239e+04 1.599693e+04 0.000000e+00 1.599693e+04 -7.996878e+04 0.000000e+00 0.000000e+00 0.000000e+00 0.000000e+00
-9.394295e+04 1.450946e+04 0.000000e+00 1.450946e+04 -7.703239e+04 0.000000e+00 0.000000e+00 0.000000e+00 0.000000e+00
-9.579420e+04 1.253108e+04 0.000000e+00 1.253108e+04 -7.352576e+04 0.000000e+00 0.000000e+00 0.000000e+00 0.000000e+00
-9.618752e+04 9.871946e+03 0.000000e+00 9.871946e+03 -6.968313e+04 0.000000e+00 0.000000e+00 0.000000e+00 0.000000e+00
-9.441774e+04 6.327120e+03 0.000000e+00 6.327120e+03 -6.587221e+04 0.000000e+00 0.000000e+00 0.000000e+00 0.000000e+00
-8.890170e+04 2.143131e+03 0.000000e+00 2.143131e+03 -6.261633e+04 0.000000e+00 0.000000e+00 0.000000e+00 0.000000e+00
-7.756111e+04 -8.931151e+02 0.000000e+00 -8.931151e+02 -6.053391e+04 0.000000e+00 0.000000e+00 0.000000e+00 0.000000e+00
-6.530155e+04 -1.708031e+03 0.000000e+00 -1.708031e+03 -5.841013e+04 0.000000e+00 0.000000e+00 0.000000e+00 0.000000e+00
-7.421400e+04 1.760018e+04 0.000000e+00 1.760018e+04 -7.717800e+04 0.000000e+00 0.000000e+00 0.000000e+00 0.000000e+00
-8.001048e+04 1.695940e+04 0.000000e+00 1.695940e+04 -7.778766e+04 0.000000e+00 0.000000e+00 0.000000e+00 0.000000e+00
-8.533045e+04 1.494434e+04 0.000000e+00 1.494434e+04 -7.565636e+04 0.000000e+00 0.000000e+00 0.000000e+00 0.000000e+00
-8.927593e+04 1.317143e+04 0.000000e+00 1.317143e+04 -7.339845e+04 0.000000e+00 0.000000e+00 0.000000e+00 0.000000e+00
-9.188063e+04 1.119135e+04 0.000000e+00 1.119135e+04 -7.080144e+04 0.000000e+00 0.000000e+00 0.000000e+00 0.000000e+00
-9.314026e+04 8.844122e+03 0.000000e+00 8.844122e+03 -6.805473e+04 0.000000e+00 0.000000e+00 0.000000e+00 0.000000e+00
-9.281349e+04 6.061125e+03 0.000000e+00 6.061125e+03 -6.531312e+04 0.000000e+00 0.000000e+00 0.000000e+00 0.000000e+00
-9.031919e+04 2.860927e+03 0.000000e+00 2.860927e+03 -6.278072e+04 0.000000e+00 0.000000e+00 0.000000e+00 0.000000e+00
-8.506558e+04 -1.517404e+02 0.000000e+00 -1.517404e+02 -6.092001e+04 0.000000e+00 0.000000e+00 0.000000e+00 0.000000e+00
-7.649105e+04 -1.556113e+03 0.000000e+00 -1.556113e+03 -6.001293e+04 0.000000e+00 0.000000e+00 0.000000e+00 0.000000e+00
-6.840167e+04 -1.553303e+03 0.000000e+00 -1.553303e+03 -5.888325e+04 0.000000e+00 0.000000e+00 0.000000e+00 0.000000e+00
-7.093641e+04 1.566060e+04 0.000000e+00 1.566060e+04 -7.212205e+04 0.000000e+00 0.000000e+00 0.000000e+00 0.000000e+00
-7.749806e+04 1.497189e+04 0.000000e+00 1.497189e+04 -7.271675e+04 0.000000e+00 0.000000e+00 0.000000e+00 0.000000e+00
-8.330178e+04 1.276125e+04 0.000000e+00 1.276125e+04 -7.069892e+04 0.000000e+00 0.000000e+00 0.000000e+00 0.000000e+00
-8.713891e+04 1.070401e+04 0.000000e+00 1.070401e+04 -6.871981e+04 0.000000e+00 0.000000e+00 0.000000e+00 0.000000e+00
-8.945657e+04 8.531711e+03 0.000000e+00 8.531711e+03 -6.669313e+04 0.000000e+00 0.000000e+00 0.000000e+00 0.000000e+00
-9.032312e+04 6.118880e+03 0.000000e+00 6.118880e+03 -6.464837e+04 0.000000e+00 0.000000e+00 0.000000e+00 0.000000e+00
-8.960430e+04 3.461395e+03 0.000000e+00 3.461395e+03 -6.270235e+04 0.000000e+00 0.000000e+00 0.000000e+00 0.000000e+00
-8.707505e+04 8.158198e+02 0.000000e+00 8.158198e+02 -6.110416e+04 0.000000e+00 0.000000e+00 0.000000e+00 0.000000e+00
-8.278138e+04 -1.180391e+03 0.000000e+00 -1.180391e+03 -6.016595e+04 0.000000e+00 0.000000e+00 0.000000e+00 0.000000e+00
-7.669486e+04 -1.650189e+03 0.000000e+00 -1.650189e+03 -5.984808e+04 0.000000e+00 0.000000e+00 0.000000e+00 0.000000e+00
-7.140148e+04 -1.328594e+03 0.000000e+00 -1.328594e+03 -5.919498e+04 0.000000e+00 0.000000e+00 0.000000e+00 0.000000e+00
-6.839359e+04 1.364330e+04 0.000000e+00 1.364330e+04 -6.859984e+04 0.000000e+00 0.000000e+00 0.000000e+00 0.000000e+00
-7.506183e+04 1.300251e+04 0.000000e+00 1.300251e+04 -6.907043e+04 0.000000e+00 0.000000e+00 0.000000e+00 0.000000e+00
-8.107511e+04 1.084213e+04 0.000000e+00 1.084213e+04 -6.721802e+04 0.000000e+00 0.000000e+00 0.000000e+00 0.000000e+00
-8.482321e+04 8.717635e+03 0.000000e+00 8.717635e+03 -6.556817e+04 0.000000e+00 0.000000e+00 0.000000e+00 0.000000e+00
-8.691947e+04 6.496038e+03 0.000000e+00 6.496038e+03 -6.398246e+04 0.000000e+00 0.000000e+00 0.000000e+00 0.000000e+00
-8.757202e+04 4.129114e+03 0.000000e+00 4.129114e+03 -6.245852e+04 0.000000e+00 0.000000e+00 0.000000e+00 0.000000e+00
-8.678925e+04 1.769047e+03 0.000000e+00 1.769047e+03 -6.112912e+04 0.000000e+00 0.000000e+00 0.000000e+00 0.000000e+00
-8.470721e+04 -2.674910e+02 0.000000e+00 -2.674910e+02 -6.022207e+04 0.000000e+00 0.000000e+00 0.000000e+00 0.000000e+00
-8.153534e+04 -1.541061e+03 0.000000e+00 -1.541061e+03 -5.982256e+04 0.000000e+00 0.000000e+00 0.000000e+00 0.000000e+00
-7.741042e+04 -1.535192e+03 0.000000e+00 -1.535192e+03 -5.979062e+04 0.000000e+00 0.000000e+00 0.000000e+00 0.000000e+00
-7.403272e+04 -1.091221e+03 0.000000e+00 -1.091221e+03 -5.942593e+04 0.000000e+00 0.000000e+00 0.000000e+00 0.000000e+00
-6.670139e+04 1.178547e+04 0.000000e+00 1.178547e+04 -6.628644e+04 0.000000e+00 0.000000e+00 0.000000e+00 0.000000e+00
-7.292802e+04 1.114435e+04 0.000000e+00 1.114435e+04 -6.655070e+04 0.000000e+00 0.000000e+00 0.000000e+00 0.000000e+00
-7.882492e+04 9.136062e+03 0.000000e+00 9.136062e+03 -6.488827e+04 0.000000e+00 0.000000e+00 0.000000e+00 0.000000e+00
-8.245836e+04 7.062409e+03 0.000000e+00 7.062409e+03 -6.346355e+04 0.000000e+00 0.000000e+00 0.000000e+00 0.000000e+00
-8.441507e+04 4.910495e+03 0.000000e+00 4.910495e+03 -6.217530e+04 0.000000e+00 0.000000e+00 0.000000e+00 0.000000e+00
-8.504158e+04 2.737391e+03 0.000000e+00 2.737391e+03 -6.105470e+04 0.000000e+00 0.000000e+00 0.000000e+00 0.000000e+00
-8.449945e+04 7.595625e+02 0.000000e+00 7.595625e+02 -6.021621e+04 0.000000e+00 0.000000e+00 0.000000e+00 0.000000e+00
-8.304558e+04 -7.598964e+02 0.000000e+00 -7.598964e+02 -5.976280e+04 0.000000e+00 0.000000e+00 0.000000e+00 0.000000e+00
-8.090912e+04 -1.558679e+03 0.000000e+00 -1.558679e+03 -5.966273e+04 0.000000e+00 0.000000e+00 0.000000e+00 0.000000e+00
-7.829038e+04 -1.332486e+03 0.000000e+00 -1.332486e+03 -5.977725e+04 0.000000e+00 0.000000e+00 0.000000e+00 0.000000e+00
-7.626452e+04 -8.685624e+02 0.000000e+00 -8.685624e+02 -5.960366e+04 0.000000e+00 0.000000e+00 0.000000e+00 0.000000e+00
-6.545615e+04 9.886862e+03 0.000000e+00 9.886862e+03 -6.498131e+04 0.000000e+00 0.000000e+00 0.000000e+00 0.000000e+00
-7.104894e+04 9.301823e+03 0.000000e+00 9.301823e+03 -6.498284e+04 0.000000e+00 0.000000e+00 0.000000e+00 0.000000e+00
-7.666367e+04 7.538956e+03 0.000000e+00 7.538956e+03 -6.341038e+04 0.000000e+00 0.000000e+00 0.000000e+00 0.000000e+00
-8.018862e+04 5.631996e+03 0.000000e+00 5.631996e+03 -6.211373e+04 0.000000e+00 0.000000e+00 0.000000e+00 0.000000e+00
-8.210468e+04 3.673135e+03 0.000000e+00 3.673135e+03 -6.102810e+04 0.000000e+00 0.000000e+00 0.000000e+00 0.000000e+00
-8.286111e+04 1.808901e+03 0.000000e+00 1.808901e+03 -6.020656e+04 0.000000e+00 0.000000e+00 0.000000e+00 0.000000e+00
-8.271426e+04 2.195144e+02 0.000000e+00 2.195144e+02 -5.970928e+04 0.000000e+00 0.000000e+00 0.000000e+00 0.000000e+00
-8.189750e+04 -9.036500e+02 0.000000e+00 -9.036500e+02 -5.953039e+04 0.000000e+00 0.000000e+00 0.000000e+00 0.000000e+00
-8.063438e+04 -1.401866e+03 0.000000e+00 -1.401866e+03 -5.960283e+04 0.000000e+00 0.000000e+00 0.000000e+00 0.000000e+00
-7.915155e+04 -1.096874e+03 0.000000e+00 -1.096874e+03 -5.978752e+04 0.000000e+00 0.000000e+00 0.000000e+00 0.000000e+00
-7.807970e+04 -6.712094e+02 0.000000e+00 -6.712094e+02 -5.975068e+04 0.000000e+00 0.000000e+00 0.000000e+00 0.000000e+00
-6.456893e+04 7.938485e+03 0.000000e+00 7.938485e+03 -6.427895e+04 0.000000e+00 0.000000e+00 0.000000e+00 0.000000e+00
-6.947984e+04 7.431188e+03 0.000000e+00 7.431188e+03 -6.407845e+04 0.000000e+00 0.000000e+00 0.000000e+00 0.000000e+00
-7.475185e+04 5.987120e+03 0.000000e+00 5.987120e+03 -6.252707e+04 0.000000e+00 0.000000e+00 0.000000e+00 0.000000e+00
-7.816188e+04 4.338114e+03 0.000000e+00 4.338114e+03 -6.129445e+04 0.000000e+00 0.000000e+00 0.000000e+00 0.000000e+00
-8.012969e+04 2.692496e+03 0.000000e+00 2.692496e+03 -6.034514e+04 0.000000e+00 0.000000e+00 0.000000e+00 0.000000e+00
-8.110278e+04 1.194832e+03 0.000000e+00 1.194832e+03 -5.972946e+04 0.000000e+00 0.000000e+00 0.000000e+00 0.000000e+00
-8.134955e+04 -2.663094e+01 0.000000e+00 -2.663094e+01 -5.943796e+04 0.000000e+00 0.000000e+00 0.000000e+00 0.000000e+00
-8.109395e+04 -8.483226e+02 0.000000e+00 -8.483226e+02 -5.941923e+04 0.000000e+00 0.000000e+00 0.000000e+00 0.000000e+00
-8.054602e+04 -1.157331e+03 0.000000e+00 -1.157331e+03 -5.958713e+04 0.000000e+00 0.000000e+00 0.000000e+00 0.000000e+00
-7.990990e+04 -8.589763e+02 0.000000e+00 -8.589763e+02 -5.980725e+04 0.000000e+00 0.000000e+00 0.000000e+00 0.000000e+00
-7.950016e+04 -5.013432e+02 0.000000e+00 -5.013432e+02 -5.986876e+04 0.000000e+00 0.000000e+00 0.000000e+00 0.000000e+00
-6.396968e+04 5.932012e+03 0.000000e+00 5.932012e+03 -6.388317e+04 0.000000e+00 0.000000e+00 0.000000e+00 0.000000e+00
-6.826892e+04 5.538273e+03 0.000000e+00 5.538273e+03 -6.356403e+04 0.000000e+00 0.000000e+00 0.000000e+00 0.000000e+00
-7.316706e+04 4.441688e+03 0.000000e+00 4.441688e+03 -6.201138e+04 0.000000e+00 0.000000e+00 0.000000e+00 0.000000e+00
-7.650414e+04 3.147905e+03 0.000000e+00 3.147905e+03 -6.081462e+04 0.000000e+00 0.000000e+00 0.000000e+00 0.000000e+00
-7.856837e+04 1.887769e+03 0.000000e+00 1.887769e+03 -5.997862e+04 0.000000e+00 0.000000e+00 0.000000e+00 0.000000e+00
-7.975669e+04 7.739531e+02 0.000000e+00 7.739531e+02 -5.949263e+04 0.000000e+00 0.000000e+00 0.000000e+00 0.000000e+00
-8.034562e+04 -1.107503e+02 0.000000e+00 -1.107503e+02 -5.931718e+04 0.000000e+00 0.000000e+00 0.000000e+00 0.000000e+00
-8.054217e+04 -6.826204e+02 0.000000e+00 -6.826204e+02 -5.938977e+04 0.000000e+00 0.000000e+00 0.000000e+00 0.000000e+00
-8.054411e+04 -8.718721e+02 0.000000e+00 -8.718721e+02 -5.959709e+04 0.000000e+00 0.000000e+00 0.000000e+00 0.000000e+00
-8.052055e+04 -6.278632e+02 0.000000e+00 -6.278632e+02 -5.982110e+04 0.000000e+00 0.000000e+00 0.000000e+00 0.000000e+00
-8.057994e+04 -3.579884e+02 0.000000e+00 -3.579884e+02 -5.995014e+04 0.000000e+00 0.000000e+00 0.000000e+00 0.000000e+00
-6.354079e+04 3.900990e+03 0.000000e+00 3.900990e+03 -6.366639e+04 0.000000e+00 0.000000e+00 0.000000e+00 0.000000e+00
-6.740823e+04 3.616188e+03 0.000000e+00 3.616188e+03 -6.326167e+04 0.000000e+00 0.000000e+00 0.000000e+00 0.000000e+00
-7.199735e+04 2.887794e+03 0.000000e+00 2.887794e+03 -6.171700e+04 0.000000e+00 0.000000e+00 0.000000e+00 0.000000e+00
-7.528645e+04 2.030087e+03 0.000000e+00 2.030087e+03 -6.055429e+04 0.000000e+00 0.000000e+00 0.000000e+00 0.000000e+00
-7.745602e+04 1.196925e+03 0.000000e+00 1.196925e+03 -5.979070e+04 0.000000e+00 0.000000e+00 0.000000e+00 0.000000e+00
-7.881526e+04 4.662352e+02 0.000000e+00 4.662352e+02 -5.938676e+04 0.000000e+00 0.000000e+00 0.000000e+00 0.000000e+00
-7.966108e+04 -1.058335e+02 0.000000e+00 -1.058335e+02 -5.927868e+04 0.000000e+00 0.000000e+00 0.000000e+00 0.000000e+00
-8.018527e+04 -4.686137e+02 0.000000e+00 -4.686137e+02 -5.939183e+04 0.000000e+00 0.000000e+00 0.000000e+00 0.000000e+00
-8.056958e+04 -5.775283e+02 0.000000e+00 -5.775283e+02 -5.961138e+04 0.000000e+00 0.000000e+00 0.000000e+00 0.000000e+00
-8.095794e+04 -4.101869e+02 0.000000e+00 -4.101869e+02 -5.983291e+04 0.000000e+00 0.000000e+00 0.000000e+00 0.000000e+00
-8.133320e+04 -2.310197e+02 0.000000e+00 -2.310197e+02 -5.999776e+04 0.000000e+00 0.000000e+00 0.000000e+00 0.000000e+00
-6.326503e+04 1.811378e+03 0.000000e+00 1.811378e+03 -6.339461e+04 0.000000e+00 0.000000e+00 0.000000e+00 0.000000e+00
-6.691840e+04 1.717727e+03 0.000000e+00 1.717727e+03 -6.297519e+04 0.000000e+00 0.000000e+00 0.000000e+00 0.000000e+00
-7.130458e+04 1.387967e+03 0.000000e+00 1.387967e+03 -6.151354e+04 0.000000e+00 0.000000e+00 0.000000e+00 0.000000e+00
-7.456225e+04 9.844658e+02 0.000000e+00 9.844658e+02 -6.042169e+04 0.000000e+00 0.000000e+00 0.000000e+00 0.000000e+00
-7.679427e+04 5.794060e+02 0.000000e+00 5.794060e+02 -5.971841e+04 0.000000e+00 0.000000e+00 0.000000e+00 0.000000e+00
-7.826511e+04 2.230166e+02 0.000000e+00 2.230166e+02 -5.935353e+04 0.000000e+00 0.000000e+00 0.000000e+00 0.000000e+00
-7.925966e+04 -5.958858e+01 0.000000e+00 -5.958858e+01 -5.927856e+04 0.000000e+00 0.000000e+00 0.000000e+00 0.000000e+00
-7.998420e+04 -2.380237e+02 0.000000e+00 -2.380237e+02 -5.940305e+04 0.000000e+00 0.000000e+00 0.000000e+00 0.000000e+00
-8.059345e+04 -2.867131e+02 0.000000e+00 -2.867131e+02 -5.962224e+04 0.000000e+00 0.000000e+00 0.000000e+00 0.000000e+00
-8.121777e+04 -2.026918e+02 0.000000e+00 -2.026918e+02 -5.984130e+04 0.000000e+00 0.000000e+00 0.000000e+00 0.000000e+00
-8.177013e+04 -1.133233e+02 0.000000e+00 -1.133233e+02 -6.002783e+04 0.000000e+00 0.000000e+00 0.000000e+00 0.000000e+00
-6.306621e+04 3.734348e+02 0.000000e+00 3.734348e+02 -6.298227e+04 0.000000e+00 0.000000e+00 0.000000e+00 0.000000e+00
-6.672702e+04 4.399840e+02 0.000000e+00 4.399840e+02 -6.268657e+04 0.000000e+00 0.000000e+00 0.000000e+00 0.000000e+00
-7.107748e+04 3.912102e+02 0.000000e+00 3.912102e+02 -6.140501e+04 0.000000e+00 0.000000e+00 0.000000e+00 0.000000e+00
-7.432802e+04 2.699079e+02 0.000000e+00 2.699079e+02 -6.037882e+04 0.000000e+00 0.000000e+00 0.000000e+00 0.000000e+00
-7.657538e+04 1.330701e+02 0.000000e+00 1.330701e+02 -5.970361e+04 0.000000e+00 0.000000e+00 0.000000e+00 0.000000e+00
-7.808341e+04 6.749718e+00 0.000000e+00 6.749718e+00 -5.934519e+04 0.000000e+00 0.000000e+00 0.000000e+00 0.000000e+00
-7.912484e+04 -1.030364e+02 0.000000e+00 -1.030364e+02 -5.927320e+04 0.000000e+00 0.000000e+00 0.000000e+00 0.000000e+00
-7.991917e+04 -1.709155e+02 0.000000e+00 -1.709155e+02 -5.940884e+04 0.000000e+00 0.000000e+00 0.000000e+00 0.000000e+00
-8.060516e+04 -1.856228e+02 0.000000e+00 -1.856228e+02 -5.962873e+04 0.000000e+00 0.000000e+00 0.000000e+00 0.000000e+00
-8.130687e+04 -1.547954e+02 0.000000e+00 -1.547954e+02 -5.984541e+04 0.000000e+00 0.000000e+00 0.000000e+00 0.000000e+00
-8.191505e+04 -1.192701e+02 0.000000e+00 -1.192701e+02 -6.003925e+04 0.000000e+00 0.000000e+00 0.000000e+00 0.000000e+00
</DataArray>
<DataArray Name="vol_eps" type="Float64" NumberOfComponents="1" format="ascii">
-1.005371e-02
-8.883448e-03
-8.393819e-03
-8.155019e-03
-8.267773e-03
-8.835683e-03
-9.838961e-03
-1.122376e-02
-1.295978e-02
-1.480098e-02
-1.544933e-02
-9.273501e-03
-8.196999e-03
-7.790309e-03
-7.640071e-03
-7.831566e-03
-8.380980e-03
-9.210446e-03
-1.035658e-02
-1.191588e-02
-1.387357e-02
-1.672447e-02
-7.417906e-03
-6.627200e-03
-6.426894e-03
-6.471207e-03
-6.621711e-03
-6.822097e-03
-7.131887e-03
-7.615608e-03
-8.443632e-03
-1.012535e-02
-1.336534e-02
-5.522522e-03
-5.095566e-03
-4.962438e-03
-4.828639e-03
-4.484708e-03
-3.915071e-03
-3.182009e-03
-2.033280e-03
-3.103216e-04
2.313124e-03
4.741110e-03
-4.261067e-03
-4.230803e-03
-4.427415e-03
-4.599273e-03
-4.675146e-03
-4.625844e-03
-4.454464e-03
-4.085986e-03
-3.485099e-03
-2.433239e-03
-2.537306e-04
-3.200604e-03
-3.453942e-03
-3.754654e-03
-3.907459e-03
-3.942681e-03
-3.850017e-03
-3.632647e-03
-3.252487e-03
-2.653947e-03
-1.512461e-03
-1.611184e-05
-2.349900e-03
-2.811800e-03
-3.140783e-03
-3.283714e-03
-3.303387e-03
-3.203415e-03
-2.979860e-03
-2.613425e-03
-2.033362e-03
-1.149202e-03
-2.212863e-04
-1.715515e-03
-2.280349e-03
-2.622920e-03
-2.763498e-03
-2.776185e-03
-2.684633e-03
-2.479271e-03
-2.140501e-03
-1.664375e-03
-1.042500e-03
-4.530069e-04
-1.269305e-03
-1.844642e-03
-2.182646e-03
-2.324328e-03
-2.349194e-03
-2.269939e-03
-2.087751e-03
-1.811570e-03
-1.462303e-03
-1.042656e-03
-6.636314e-04
-9.504945e-04
-1.486638e-03
-1.812824e-03
-1.962430e-03
-1.995644e-03
-1.934321e-03
-1.793478e-03
-1.594680e-03
-1.356431e-03
-1.084074e-03
-8.449381e-04
-7.331460e-04
-1.203458e-03
-1.510124e-03
-1.662696e-03
-1.705686e-03
-1.670082e-03
-1.579500e-03
-1.453544e-03
-1.304231e-03
-1.139129e-03
-9.971448e-04
-5.994820e-04
-9.918619e-04
-1.271779e-03
-1.420143e-03
-1.476054e-03
-1.470038e-03
-1.427233e-03
-1.361610e-03
-1.282325e-03
-1.196002e-03
-1.123134e-03
-5.223131e-04
-8.438004e-04
-1.092031e-03
-1.232957e-03
-1.300075e-03
-1.322514e-03
-1.318816e-03
-1.300980e-03
-1.275713e-03
-1.247782e-03
-1.224834e-03
-4.802937e-04
-7.449613e-04
-9.586188e-04
-1.093032e-03
-1.171602e-03
-1.217127e-03
-1.243870e-03
-1.262208e-03
-1.276260e-03
-1.289143e-03
-1.301534e-03
-4.574724e-04
-6.804894e-04
-8.678563e-04
-9.975521e-04
-1.084716e-03
-1.147301e-03
-1.196182e-03
-1.238403e-03
-1.278670e-03
-1.318614e-03
-1.354318e-03
-4.311546e-04
-6.361102e-04
-8.138870e-04
-9.443629e-04
-1.037279e-03
-1.108199e-03
-1.169664e-03
-1.225937e-03
-1.280773e-03
-1.336273e-03
-1.385664e-03
-3.947604e-04
-6.071097e-04
-7.938313e-04
-9.277860e-04
-1.022953e-03
-1.095430e-03
-1.160263e-03
-1.222070e-03
-1.281991e-03
-1.342520e-03
-1.396252e-03
</DataArray>
</PointData>
</Piece>
</UnstructuredGrid>
</VTKFile>
