<?xml version="1.0"?>
<VTKFile type="UnstructuredGrid" version="0.1">
<UnstructuredGrid>
<FieldData>
<DataArray Name="TIME" type="Float64" format="ascii" NumberOfTuples="1">
0.000000e+00
</DataArray>
</FieldData>
<FieldData>
<DataArray Name="CYCLE" type="Int32" format="ascii" NumberOfTuples="1">
0
</DataArray>
</FieldData>
<Piece NumberOfPoints="187" NumberOfCells="160">
<Points>
<DataArray NumberOfComponents="3" type="Float64" format="ascii">
0.000000e+00 0.000000e+00 0.000000e+00
0.000000e+00 1.991538e-01 0.000000e+00
0.000000e+00 3.980813e-01 0.000000e+00
0.000000e+00 5.967598e-01 0.000000e+00
0.000000e+00 7.951807e-01 0.000000e+00
0.000000e+00 9.933617e-01 0.000000e+00
0.000000e+00 1.191360e+00 0.000000e+00
0.000000e+00 1.389293e+00 0.000000e+00
0.000000e+00 1.587336e+00 0.000000e+00
0.000000e+00 1.785718e+00 0.000000e+00
0.000000e+00 1.984250e+00 0.000000e+00
2.250000e-01 0.000000e+00 0.000000e+00
2.252732e-01 1.991938e-01 0.000000e+00
2.255338e-01 3.981796e-01 0.000000e+00
2.257874e-01 5.969490e-01 0.000000e+00
2.260085e-01 7.954978e-01 0.000000e+00
2.261673e-01 9.938197e-01 0.000000e+00
2.262069e-01 1.191934e+00 0.000000e+00
2.260616e-01 1.389905e+00 0.000000e+00
2.256745e-01 1.587838e+00 0.000000e+00
2.251459e-01 1.785849e+00 0.000000e+00
2.250000e-01 1.984250e+00 0.000000e+00
4.500000e-01 0.000000e+00 0.000000e+00
4.505039e-01 1.992740e-01 0.000000e+00
4.509644e-01 3.984044e-01 0.000000e+00
4.513920e-01 5.973990e-01 0.000000e+00
4.517747e-01 7.962568e-01 0.000000e+00
4.520791e-01 9.949660e-01 0.000000e+00
4.522378e-01 1.193496e+00 0.000000e+00
4.521640e-01 1.391777e+00 0.000000e+00
4.517833e-01 1.589697e+00 0.000000e+00
4.511627e-01 1.787174e+00 0.000000e+00
4.500000e-01 1.984250e+00 0.000000e+00
6.750000e-01 0.000000e+00 0.000000e+00
6.756632e-01 1.993789e-01 0.000000e+00
6.762316e-01 3.986911e-01 0.000000e+00
6.767288e-01 5.979584e-01 0.000000e+00
6.771551e-01 7.972085e-01 0.000000e+00
6.774977e-01 9.964681e-01 0.000000e+00
6.777084e-01 1.195772e+00 0.000000e+00
6.777406e-01 1.395174e+00 0.000000e+00
6.775531e-01 1.594735e+00 0.000000e+00
6.771264e-01 1.794553e+00 0.000000e+00
6.751946e-01 1.994991e+00 0.000000e+00
9.000000e-01 0.000000e+00 0.000000e+00
9.007427e-01 1.995013e-01 0.000000e+00
9.013333e-01 3.989926e-01 0.000000e+00
9.018175e-01 5.984960e-01 0.000000e+00
9.022046e-01 7.980310e-01 0.000000e+00
9.024808e-01 9.976197e-01 0.000000e+00
9.026126e-01 1.197286e+00 0.000000e+00
9.025498e-01 1.397052e+00 0.000000e+00
9.022573e-01 1.596941e+00 0.000000e+00
9.015258e-01 1.797000e+00 0.000000e+00
9.001946e-01 1.996944e+00 0.000000e+00
1.125000e+00 0.000000e+00 0.000000e+00
1.125750e+00 1.996245e-01 0.000000e+00
1.126316e+00 3.992712e-01 0.000000e+00
1.126757e+00 5.989485e-01 0.000000e+00
1.127086e+00 7.986695e-01 0.000000e+00
1.127295e+00 9.984476e-01 0.000000e+00
1.127356e+00 1.198295e+00 0.000000e+00
1.127238e+00 1.398218e+00 0.000000e+00
1.126889e+00 1.598222e+00 0.000000e+00
1.126254e+00 1.798260e+00 0.000000e+00
1.125391e+00 1.998268e+00 0.000000e+00
1.350000e+00 0.000000e+00 0.000000e+00
1.350703e+00 1.997271e-01 0.000000e+00
1.351224e+00 3.994903e-01 0.000000e+00
1.351617e+00 5.992905e-01 0.000000e+00
1.351892e+00 7.991343e-01 0.000000e+00
1.352047e+00 9.990287e-01 0.000000e+00
1.352064e+00 1.198977e+00 0.000000e+00
1.351922e+00 1.398978e+00 0.000000e+00
1.351601e+00 1.599017e+00 0.000000e+00
1.351108e+00 1.799063e+00 0.000000e+00
1.350537e+00 1.999056e+00 0.000000e+00
1.575000e+00 0.000000e+00 0.000000e+00
1.575626e+00 1.998068e-01 0.000000e+00
1.576092e+00 3.996553e-01 0.000000e+00
1.576435e+00 5.995418e-01 0.000000e+00
1.576665e+00 7.994673e-01 0.000000e+00
1.576782e+00 9.994327e-01 0.000000e+00
1.576776e+00 1.199438e+00 0.000000e+00
1.576639e+00 1.399476e+00 0.000000e+00
1.576373e+00 1.599530e+00 0.000000e+00
1.576013e+00 1.799571e+00 0.000000e+00
1.575635e+00 1.999572e+00 0.000000e+00
1.800000e+00 0.000000e+00 0.000000e+00
1.800537e+00 1.998654e-01 0.000000e+00
1.800943e+00 3.997740e-01 0.000000e+00
1.801239e+00 5.997182e-01 0.000000e+00
1.801432e+00 7.996959e-01 0.000000e+00
1.801522e+00 9.997056e-01 0.000000e+00
1.801508e+00 1.199743e+00 0.000000e+00
1.801391e+00 1.399798e+00 0.000000e+00
1.801187e+00 1.599856e+00 0.000000e+00
1.800931e+00 1.799896e+00 0.000000e+00
1.800685e+00 1.999904e+00 0.000000e+00
2.025000e+00 0.000000e+00 0.000000e+00
2.025448e+00 1.999068e-01 0.000000e+00
2.025792e+00 3.998547e-01 0.000000e+00
2.026044e+00 5.998365e-01 0.000000e+00
2.026205e+00 7.998475e-01 0.000000e+00
2.026277e+00 9.998835e-01 0.000000e+00
2.026264e+00 1.199938e+00 0.000000e+00
2.026173e+00 1.400000e+00 0.000000e+00
2.026023e+00 1.600058e+00 0.000000e+00
2.025847e+00 1.800099e+00 0.000000e+00
2.025692e+00 2.000115e+00 0.000000e+00
2.250000e+00 0.000000e+00 0.000000e+00
2.250363e+00 1.999349e-01 0.000000e+00
2.250649e+00 3.999088e-01 0.000000e+00
2.250859e+00 5.999137e-01 0.000000e+00
2.250992e+00 7.999443e-01 0.000000e+00
2.251051e+00 9.999945e-01 0.000000e+00
2.251043e+00 1.200056e+00 0.000000e+00
2.250977e+00 1.400121e+00 0.000000e+00
2.250871e+00 1.600179e+00 0.000000e+00
2.250754e+00 1.800221e+00 0.000000e+00
2.250662e+00 2.000244e+00 0.000000e+00
2.475000e+00 0.000000e+00 0.000000e+00
2.475287e+00 1.999539e-01 0.000000e+00
2.475517e+00 3.999437e-01 0.000000e+00
2.475687e+00 5.999625e-01 0.000000e+00
2.475795e+00 8.000041e-01 0.000000e+00
2.475845e+00 1.000061e+00 0.000000e+00
2.475842e+00 1.200126e+00 0.000000e+00
2.475796e+00 1.400190e+00 0.000000e+00
2.475724e+00 1.600248e+00 0.000000e+00
2.475650e+00 1.800292e+00 0.000000e+00
2.475600e+00 2.000322e+00 0.000000e+00
2.700000e+00 0.000000e+00 0.000000e+00
2.700220e+00 1.999665e-01 0.000000e+00
2.700398e+00 3.999662e-01 0.000000e+00
2.700530e+00 5.999928e-01 0.000000e+00
2.700615e+00 8.000399e-01 0.000000e+00
2.700655e+00 1.000100e+00 0.000000e+00
2.700656e+00 1.200165e+00 0.000000e+00
2.700626e+00 1.400229e+00 0.000000e+00
2.700580e+00 1.600285e+00 0.000000e+00
2.700536e+00 1.800331e+00 0.000000e+00
2.700511e+00 2.000367e+00 0.000000e+00
2.925000e+00 0.000000e+00 0.000000e+00
2.925160e+00 1.999758e-01 0.000000e+00
2.925290e+00 3.999818e-01 0.000000e+00
2.925386e+00 6.000130e-01 0.000000e+00
2.925449e+00 8.000628e-01 0.000000e+00
2.925479e+00 1.000124e+00 0.000000e+00
2.925482e+00 1.200188e+00 0.000000e+00
2.925464e+00 1.400251e+00 0.000000e+00
2.925436e+00 1.600307e+00 0.000000e+00
2.925411e+00 1.800354e+00 0.000000e+00
2.925401e+00 2.000395e+00 0.000000e+00
3.150000e+00 0.000000e+00 0.000000e+00
3.150106e+00 1.999833e-01 0.000000e+00
3.150191e+00 3.999943e-01 0.000000e+00
3.150253e+00 6.000292e-01 0.000000e+00
3.150293e+00 8.000807e-01 0.000000e+00
3.150314e+00 1.000142e+00 0.000000e+00
3.150317e+00 1.200206e+00 0.000000e+00
3.150307e+00 1.400268e+00 0.000000e+00
3.150292e+00 1.600323e+00 0.000000e+00
3.150278e+00 1.800372e+00 0.000000e+00
3.150276e+00 2.000416e+00 0.000000e+00
3.375000e+00 0.000000e+00 0.000000e+00
3.375055e+00 1.999900e-01 0.000000e+00
3.375095e+00 4.000080e-01 0.000000e+00
3.375125e+00 6.000469e-01 0.000000e+00
3.375145e+00 8.000998e-01 0.000000e+00
3.375155e+00 1.000161e+00 0.000000e+00
3.375157e+00 1.200225e+00 0.000000e+00
3.375153e+00 1.400286e+00 0.000000e+00
3.375146e+00 1.600342e+00 0.000000e+00
3.375140e+00 1.800391e+00 0.000000e+00
3.375140e+00 2.000437e+00 0.000000e+00
3.600000e+00 0.000000e+00 0.000000e+00
3.600000e+00 2.000063e-01 0.000000e+00
3.600000e+00 4.000299e-01 0.000000e+00
3.600000e+00 6.000705e-01 0.000000e+00
3.600000e+00 8.001243e-01 0.000000e+00
3.600000e+00 1.000186e+00 0.000000e+00
3.600000e+00 1.200249e+00 0.000000e+00
3.600000e+00 1.400310e+00 0.000000e+00
3.600000e+00 1.600366e+00 0.000000e+00
3.600000e+00 1.800416e+00 0.000000e+00
3.600000e+00 2.000463e+00 0.000000e+00
</DataArray>
</Points>
<Cells>
<DataArray Name="connectivity" type="Int32" format="ascii">
0 11 12 1
1 12 13 2
2 13 14 3
3 14 15 4
4 15 16 5
5 16 17 6
6 17 18 7
7 18 19 8
8 19 20 9
9 20 21 10
11 22 23 12
12 23 24 13
13 24 25 14
14 25 26 15
15 26 27 16
16 27 28 17
17 28 29 18
18 29 30 19
19 30 31 20
20 31 32 21
22 33 34 23
23 34 35 24
24 35 36 25
25 36 37 26
26 37 38 27
27 38 39 28
28 39 40 29
29 40 41 30
30 41 42 31
31 42 43 32
33 44 45 34
34 45 46 35
35 46 47 36
36 47 48 37
37 48 49 38
38 49 50 39
39 50 51 40
40 51 52 41
41 52 53 42
42 53 54 43
44 55 56 45
45 56 57 46
46 57 58 47
47 58 59 48
48 59 60 49
49 60 61 50
50 61 62 51
51 62 63 52
52 63 64 53
53 64 65 54
55 66 67 56
56 67 68 57
57 68 69 58
58 69 70 59
59 70 71 60
60 71 72 61
61 72 73 62
62 73 74 63
63 74 75 64
64 75 76 65
66 77 78 67
67 78 79 68
68 79 80 69
69 80 81 70
70 81 82 71
71 82 83 72
72 83 84 73
73 84 85 74
74 85 86 75
75 86 87 76
77 88 89 78
78 89 90 79
79 90 91 80
80 91 92 81
81 92 93 82
82 93 94 83
83 94 95 84
84 95 96 85
85 96 97 86
86 97 98 87
88 99 100 89
89 100 101 90
90 101 102 91
91 102 103 92
92 103 104 93
93 104 105 94
94 105 106 95
95 106 107 96
96 107 108 97
97 108 109 98
99 110 111 100
100 111 112 101
101 112 113 102
102 113 114 103
103 114 115 104
104 115 116 105
105 116 117 106
106 117 118 107
107 118 119 108
108 119 120 109
110 121 122 111
111 122 123 112
112 123 124 113
113 124 125 114
114 125 126 115
115 126 127 116
116 127 128 117
117 128 129 118
118 129 130 119
119 130 131 120
121 132 133 122
122 133 134 123
123 134 135 124
124 135 136 125
125 136 137 126
126 137 138 127
127 138 139 128
128 139 140 129
129 140 141 130
130 141 142 131
132 143 144 133
133 144 145 134
134 145 146 135
135 146 147 136
136 147 148 137
137 148 149 138
138 149 150 139
139 150 151 140
140 151 152 141
141 152 153 142
143 154 155 144
144 155 156 145
145 156 157 146
146 157 158 147
147 158 159 148
148 159 160 149
149 160 161 150
150 161 162 151
151 162 163 152
152 163 164 153
154 165 166 155
155 166 167 156
156 167 168 157
157 168 169 158
158 169 170 159
159 170 171 160
160 171 172 161
161 172 173 162
162 173 174 163
163 174 175 164
165 176 177 166
166 177 178 167
167 178 179 168
168 179 180 169
169 180 181 170
170 181 182 171
171 182 183 172
172 183 184 173
173 184 185 174
174 185 186 175
</DataArray>
<DataArray Name="offsets" type="Int32" format="ascii">
4
8
12
16
20
24
28
32
36
40
44
48
52
56
60
64
68
72
76
80
84
88
92
96
100
104
108
112
116
120
124
128
132
136
140
144
148
152
156
160
164
168
172
176
180
184
188
192
196
200
204
208
212
216
220
224
228
232
236
240
244
248
252
256
260
264
268
272
276
280
284
288
292
296
300
304
308
312
316
320
324
328
332
336
340
344
348
352
356
360
364
368
372
376
380
384
388
392
396
400
404
408
412
416
420
424
428
432
436
440
444
448
452
456
460
464
468
472
476
480
484
488
492
496
500
504
508
512
516
520
524
528
532
536
540
544
548
552
556
560
564
568
572
576
580
584
588
592
596
600
604
608
612
616
620
624
628
632
636
640
</DataArray>
<DataArray Name="types" type="UInt8" format="ascii">
9
9
9
9
9
9
9
9
9
9
9
9
9
9
9
9
9
9
9
9
9
9
9
9
9
9
9
9
9
9
9
9
9
9
9
9
9
9
9
9
9
9
9
9
9
9
9
9
9
9
9
9
9
9
9
9
9
9
9
9
9
9
9
9
9
9
9
9
9
9
9
9
9
9
9
9
9
9
9
9
9
9
9
9
9
9
9
9
9
9
9
9
9
9
9
9
9
9
9
9
9
9
9
9
9
9
9
9
9
9
9
9
9
9
9
9
9
9
9
9
9
9
9
9
9
9
9
9
9
9
9
9
9
9
9
9
9
9
9
9
9
9
9
9
9
9
9
9
9
9
9
9
9
9
9
9
9
9
9
9
</DataArray>
</Cells>
<PointData>
<DataArray Name="disp" type="Float64" NumberOfComponents="3" format="ascii">
0.000000e+00 0.000000e+00 0.000000e+00
0.000000e+00 -8.461662e-04 0.000000e+00
0.000000e+00 -1.918728e-03 0.000000e+00
0.000000e+00 -3.240220e-03 0.000000e+00
0.000000e+00 -4.819333e-03 0.000000e+00
0.000000e+00 -6.638316e-03 0.000000e+00
0.000000e+00 -8.639714e-03 0.000000e+00
0.000000e+00 -1.070743e-02 0.000000e+00
0.000000e+00 -1.266412e-02 0.000000e+00
0.000000e+00 -1.428244e-02 0.000000e+00
0.000000e+00 -1.575000e-02 0.000000e+00
0.000000e+00 0.000000e+00 0.000000e+00
2.732421e-04 -8.062345e-04 0.000000e+00
5.338420e-04 -1.820385e-03 0.000000e+00
7.873813e-04 -3.051012e-03 0.000000e+00
1.008487e-03 -4.502183e-03 0.000000e+00
1.167303e-03 -6.180292e-03 0.000000e+00
1.206948e-03 -8.066019e-03 0.000000e+00
1.061583e-03 -1.009488e-02 0.000000e+00
6.744563e-04 -1.216216e-02 0.000000e+00
1.459352e-04 -1.415070e-02 0.000000e+00
0.000000e+00 -1.575000e-02 0.000000e+00
0.000000e+00 0.000000e+00 0.000000e+00
5.039396e-04 -7.260450e-04 0.000000e+00
9.644113e-04 -1.595571e-03 0.000000e+00
1.392000e-03 -2.600995e-03 0.000000e+00
1.774687e-03 -3.743200e-03 0.000000e+00
2.079155e-03 -5.034004e-03 0.000000e+00
2.237806e-03 -6.503525e-03 0.000000e+00
2.163962e-03 -8.223002e-03 0.000000e+00
1.783328e-03 -1.030315e-02 0.000000e+00
1.162659e-03 -1.282569e-02 0.000000e+00
0.000000e+00 -1.575000e-02 0.000000e+00
0.000000e+00 0.000000e+00 0.000000e+00
6.631769e-04 -6.210705e-04 0.000000e+00
1.231628e-03 -1.308935e-03 0.000000e+00
1.728828e-03 -2.041610e-03 0.000000e+00
2.155074e-03 -2.791474e-03 0.000000e+00
2.497720e-03 -3.531952e-03 0.000000e+00
2.708375e-03 -4.227781e-03 0.000000e+00
2.740561e-03 -4.825943e-03 0.000000e+00
2.553042e-03 -5.264575e-03 0.000000e+00
2.126426e-03 -5.447107e-03 0.000000e+00
1.946498e-04 -5.008851e-03 0.000000e+00
0.000000e+00 0.000000e+00 0.000000e+00
7.426631e-04 -4.986821e-04 0.000000e+00
1.333339e-03 -1.007422e-03 0.000000e+00
1.817481e-03 -1.503953e-03 0.000000e+00
2.204599e-03 -1.968983e-03 0.000000e+00
2.480818e-03 -2.380239e-03 0.000000e+00
2.612538e-03 -2.713579e-03 0.000000e+00
2.549801e-03 -2.948171e-03 0.000000e+00
2.257309e-03 -3.058494e-03 0.000000e+00
1.525789e-03 -2.999561e-03 0.000000e+00
1.946248e-04 -3.056002e-03 0.000000e+00
0.000000e+00 0.000000e+00 0.000000e+00
7.499566e-04 -3.754800e-04 0.000000e+00
1.316371e-03 -7.288291e-04 0.000000e+00
1.757107e-03 -1.051517e-03 0.000000e+00
2.086321e-03 -1.330503e-03 0.000000e+00
2.294676e-03 -1.552414e-03 0.000000e+00
2.356331e-03 -1.705247e-03 0.000000e+00
2.238089e-03 -1.782055e-03 0.000000e+00
1.888830e-03 -1.778112e-03 0.000000e+00
1.254284e-03 -1.739493e-03 0.000000e+00
3.907644e-04 -1.731489e-03 0.000000e+00
0.000000e+00 0.000000e+00 0.000000e+00
7.030376e-04 -2.728891e-04 0.000000e+00
1.224084e-03 -5.097059e-04 0.000000e+00
1.616536e-03 -7.094844e-04 0.000000e+00
1.892457e-03 -8.656943e-04 0.000000e+00
2.046983e-03 -9.712530e-04 0.000000e+00
2.064168e-03 -1.022881e-03 0.000000e+00
1.922332e-03 -1.022522e-03 0.000000e+00
1.600599e-03 -9.829106e-04 0.000000e+00
1.108199e-03 -9.371911e-04 0.000000e+00
5.369682e-04 -9.438025e-04 0.000000e+00
0.000000e+00 0.000000e+00 0.000000e+00
6.260674e-04 -1.932241e-04 0.000000e+00
1.092335e-03 -3.446848e-04 0.000000e+00
1.434993e-03 -4.581557e-04 0.000000e+00
1.665168e-03 -5.326787e-04 0.000000e+00
1.781999e-03 -5.672746e-04 0.000000e+00
1.775899e-03 -5.624327e-04 0.000000e+00
1.638863e-03 -5.240469e-04 0.000000e+00
1.373389e-03 -4.697799e-04 0.000000e+00
1.013234e-03 -4.290507e-04 0.000000e+00
6.353478e-04 -4.280335e-04 0.000000e+00
0.000000e+00 0.000000e+00 0.000000e+00
5.373343e-04 -1.345794e-04 0.000000e+00
9.433551e-04 -2.259763e-04 0.000000e+00
1.238665e-03 -2.818194e-04 0.000000e+00
1.431710e-03 -3.040713e-04 0.000000e+00
1.522171e-03 -2.944244e-04 0.000000e+00
1.507818e-03 -2.568964e-04 0.000000e+00
1.390805e-03 -2.015883e-04 0.000000e+00
1.186588e-03 -1.442083e-04 0.000000e+00
9.312301e-04 -1.041472e-04 0.000000e+00
6.853080e-04 -9.587273e-05 0.000000e+00
0.000000e+00 0.000000e+00 0.000000e+00
4.478670e-04 -9.319308e-05 0.000000e+00
7.923600e-04 -1.452367e-04 0.000000e+00
1.044113e-03 -1.634981e-04 0.000000e+00
1.205008e-03 -1.525067e-04 0.000000e+00
1.277078e-03 -1.165377e-04 0.000000e+00
1.263631e-03 -6.226338e-05 0.000000e+00
1.172680e-03 2.266459e-08 0.000000e+00
1.022729e-03 5.810649e-05 0.000000e+00
8.469987e-04 9.867750e-05 0.000000e+00
6.923670e-04 1.147202e-04 0.000000e+00
0.000000e+00 0.000000e+00 0.000000e+00
3.632501e-04 -6.514368e-05 0.000000e+00
6.490144e-04 -9.123749e-05 0.000000e+00
8.588186e-04 -8.627536e-05 0.000000e+00
9.920219e-04 -5.568213e-05 0.000000e+00
1.051140e-03 -5.525927e-06 0.000000e+00
1.042659e-03 5.639272e-05 0.000000e+00
9.765260e-04 1.210746e-04 0.000000e+00
8.708391e-04 1.788503e-04 0.000000e+00
7.541495e-04 2.210391e-04 0.000000e+00
6.620341e-04 2.442931e-04 0.000000e+00
0.000000e+00 0.000000e+00 0.000000e+00
2.873637e-04 -4.615233e-05 0.000000e+00
5.172213e-04 -5.628295e-05 0.000000e+00
6.871614e-04 -3.747205e-05 0.000000e+00
7.953829e-04 4.096042e-06 0.000000e+00
8.447033e-04 6.106569e-05 0.000000e+00
8.414865e-04 1.257086e-04 0.000000e+00
7.961118e-04 1.904462e-04 0.000000e+00
7.245425e-04 2.475047e-04 0.000000e+00
6.503057e-04 2.915016e-04 0.000000e+00
5.996501e-04 3.216381e-04 0.000000e+00
0.000000e+00 0.000000e+00 0.000000e+00
2.198128e-04 -3.351037e-05 0.000000e+00
3.982325e-04 -3.382643e-05 0.000000e+00
5.301838e-04 -7.160270e-06 0.000000e+00
6.150782e-04 3.993068e-05 0.000000e+00
6.551850e-04 9.988741e-05 0.000000e+00
6.560865e-04 1.650426e-04 0.000000e+00
6.264446e-04 2.287876e-04 0.000000e+00
5.804127e-04 2.851454e-04 0.000000e+00
5.354350e-04 3.309177e-04 0.000000e+00
5.107480e-04 3.668678e-04 0.000000e+00
0.000000e+00 0.000000e+00 0.000000e+00
1.602375e-04 -2.418155e-05 0.000000e+00
2.903251e-04 -1.817902e-05 0.000000e+00
3.865032e-04 1.303212e-05 0.000000e+00
4.487413e-04 6.277768e-05 0.000000e+00
4.794651e-04 1.236194e-04 0.000000e+00
4.822942e-04 1.883161e-04 0.000000e+00
4.644267e-04 2.508927e-04 0.000000e+00
4.363950e-04 3.068247e-04 0.000000e+00
4.108129e-04 3.542869e-04 0.000000e+00
4.010495e-04 3.949445e-04 0.000000e+00
0.000000e+00 0.000000e+00 0.000000e+00
1.059517e-04 -1.667403e-05 0.000000e+00
1.908177e-04 -5.667274e-06 0.000000e+00
2.529186e-04 2.919414e-05 0.000000e+00
2.933625e-04 8.068885e-05 0.000000e+00
3.139478e-04 1.417450e-04 0.000000e+00
3.170260e-04 2.058667e-04 0.000000e+00
3.072852e-04 2.675479e-04 0.000000e+00
2.916825e-04 3.232312e-04 0.000000e+00
2.783560e-04 3.720444e-04 0.000000e+00
2.758091e-04 4.160770e-04 0.000000e+00
0.000000e+00 0.000000e+00 0.000000e+00
5.460895e-05 -9.954635e-06 0.000000e+00
9.521167e-05 7.967005e-06 0.000000e+00
1.252629e-04 4.688256e-05 0.000000e+00
1.449743e-04 9.987174e-05 0.000000e+00
1.552883e-04 1.610560e-04 0.000000e+00
1.572033e-04 2.247260e-04 0.000000e+00
1.529866e-04 2.858906e-04 0.000000e+00
1.460908e-04 3.415491e-04 0.000000e+00
1.405472e-04 3.912474e-04 0.000000e+00
1.403321e-04 4.373078e-04 0.000000e+00
0.000000e+00 0.000000e+00 0.000000e+00
0.000000e+00 6.336384e-06 0.000000e+00
0.000000e+00 2.988402e-05 0.000000e+00
0.000000e+00 7.055892e-05 0.000000e+00
0.000000e+00 1.242769e-04 0.000000e+00
0.000000e+00 1.856896e-04 0.000000e+00
0.000000e+00 2.491708e-04 0.000000e+00
0.000000e+00 3.102217e-04 0.000000e+00
0.000000e+00 3.658244e-04 0.000000e+00
0.000000e+00 4.158179e-04 0.000000e+00
0.000000e+00 4.625375e-04 0.000000e+00
</DataArray>
<DataArray Name="shear" type="Float64" NumberOfComponents="1" format="ascii">
4.606044e-03
5.963671e-03
8.289506e-03
1.063784e-02
1.284814e-02
1.462978e-02
1.549423e-02
1.485815e-02
1.233449e-02
9.097647e-03
7.800321e-03
4.603606e-03
5.832355e-03
7.917281e-03
1.000858e-02
1.205478e-02
1.389144e-02
1.516468e-02
1.542543e-02
1.440429e-02
1.201574e-02
9.896002e-03
4.692057e-03
5.568149e-03
7.033597e-03
8.540456e-03
1.016367e-02
1.196672e-02
1.398491e-02
1.629172e-02
1.902978e-02
2.083164e-02
2.098135e-02
4.735602e-03
5.185853e-03
5.895166e-03
6.678591e-03
7.589530e-03
8.698495e-03
1.012009e-02
1.211695e-02
1.499471e-02
1.662390e-02
1.764809e-02
4.615238e-03
4.711615e-03
4.818213e-03
5.058635e-03
5.358814e-03
5.649660e-03
5.848851e-03
5.886481e-03
5.420656e-03
3.354332e-03
9.908524e-04
4.302175e-03
4.167279e-03
3.915547e-03
3.858014e-03
3.854349e-03
3.816565e-03
3.667892e-03
3.325286e-03
2.587239e-03
1.156226e-03
2.952101e-04
3.851537e-03
3.609367e-03
3.199419e-03
2.999694e-03
2.864854e-03
2.716368e-03
2.493929e-03
2.133582e-03
1.538285e-03
5.948373e-04
2.023704e-04
3.338011e-03
3.081893e-03
2.653650e-03
2.409067e-03
2.237542e-03
2.073992e-03
1.874062e-03
1.588782e-03
1.145392e-03
4.669778e-04
1.082118e-04
2.816718e-03
2.589113e-03
2.213760e-03
1.985913e-03
1.830498e-03
1.700113e-03
1.550869e-03
1.334842e-03
9.969778e-04
4.874089e-04
1.058218e-04
2.321822e-03
2.137699e-03
1.847624e-03
1.672834e-03
1.561889e-03
1.477153e-03
1.372519e-03
1.206589e-03
9.399070e-04
5.429147e-04
2.508699e-04
1.871133e-03
1.733595e-03
1.534898e-03
1.428535e-03
1.372605e-03
1.329508e-03
1.259398e-03
1.130006e-03
9.155411e-04
6.089380e-04
4.000636e-04
1.473174e-03
1.376092e-03
1.261210e-03
1.228084e-03
1.228795e-03
1.221508e-03
1.177100e-03
1.075276e-03
9.039301e-04
6.769157e-04
5.359598e-04
1.124699e-03
1.063252e-03
1.026373e-03
1.064532e-03
1.116966e-03
1.139646e-03
1.114100e-03
1.033340e-03
8.997026e-04
7.401074e-04
6.509052e-04
8.190188e-04
7.901898e-04
8.319797e-04
9.385368e-04
1.033115e-03
1.078316e-03
1.066556e-03
1.002494e-03
9.013165e-04
7.945303e-04
7.423259e-04
5.428076e-04
5.530139e-04
6.878556e-04
8.546886e-04
9.767822e-04
1.035991e-03
1.033821e-03
9.832272e-04
9.068222e-04
8.369122e-04
8.089432e-04
2.897059e-04
3.801453e-04
6.121645e-04
8.119628e-04
9.455854e-04
1.011709e-03
1.016255e-03
9.752983e-04
9.144415e-04
8.651462e-04
8.498189e-04
1.433859e-04
3.226489e-04
5.901161e-04
7.965720e-04
9.340823e-04
1.003445e-03
1.011548e-03
9.749308e-04
9.194572e-04
8.760148e-04
8.638010e-04
</DataArray>
<DataArray Name="stress" type="Float64" NumberOfComponents="9" format="ascii">
-7.442808e+04 1.349108e+03 0.000000e+00 1.349108e+03 -1.039616e+05 0.000000e+00 0.000000e+00 0.000000e+00 0.000000e+00
-7.020271e+04 1.466748e+03 0.000000e+00 1.466748e+03 -1.045868e+05 0.000000e+00 0.000000e+00 0.000000e+00 0.000000e+00
-6.730941e+04 1.746326e+03 0.000000e+00 1.746326e+03 -1.083196e+05 0.000000e+00 0.000000e+00 0.000000e+00 0.000000e+00
-6.672167e+04 2.252144e+03 0.000000e+00 2.252144e+03 -1.124721e+05 0.000000e+00 0.000000e+00 0.000000e+00 0.000000e+00
-6.764697e+04 2.801804e+03 0.000000e+00 2.801804e+03 -1.174349e+05 0.000000e+00 0.000000e+00 0.000000e+00 0.000000e+00
-6.972003e+04 3.403540e+03 0.000000e+00 3.403540e+03 -1.230664e+05 0.000000e+00 0.000000e+00 0.000000e+00 0.000000e+00
-7.275266e+04 3.773545e+03 0.000000e+00 3.773545e+03 -1.292749e+05 0.000000e+00 0.000000e+00 0.000000e+00 0.000000e+00
-7.706588e+04 3.515923e+03 0.000000e+00 3.515923e+03 -1.350643e+05 0.000000e+00 0.000000e+00 0.000000e+00 0.000000e+00
-8.278162e+04 2.305735e+03 0.000000e+00 2.305735e+03 -1.393892e+05 0.000000e+00 0.000000e+00 0.000000e+00 0.000000e+00
-9.050106e+04 1.931339e+02 0.000000e+00 1.931339e+02 -1.416652e+05 0.000000e+00 0.000000e+00 0.000000e+00 0.000000e+00
-9.347553e+04 -4.315894e+02 0.000000e+00 -4.315894e+02 -1.408389e+05 0.000000e+00 0.000000e+00 0.000000e+00 0.000000e+00
-7.409878e+04 3.968333e+03 0.000000e+00 3.968333e+03 -1.021873e+05 0.000000e+00 0.000000e+00 0.000000e+00 0.000000e+00
-7.018909e+04 4.008749e+03 0.000000e+00 4.008749e+03 -1.027342e+05 0.000000e+00 0.000000e+00 0.000000e+00 0.000000e+00
-6.756797e+04 4.317881e+03 0.000000e+00 4.317881e+03 -1.061596e+05 0.000000e+00 0.000000e+00 0.000000e+00 0.000000e+00
-6.710573e+04 5.045188e+03 0.000000e+00 5.045188e+03 -1.099756e+05 0.000000e+00 0.000000e+00 0.000000e+00 0.000000e+00
-6.812645e+04 5.997455e+03 0.000000e+00 5.997455e+03 -1.145566e+05 0.000000e+00 0.000000e+00 0.000000e+00 0.000000e+00
-7.021143e+04 6.941364e+03 0.000000e+00 6.941364e+03 -1.199455e+05 0.000000e+00 0.000000e+00 0.000000e+00 0.000000e+00
-7.312058e+04 7.469005e+03 0.000000e+00 7.469005e+03 -1.262214e+05 0.000000e+00 0.000000e+00 0.000000e+00 0.000000e+00
-7.696118e+04 7.034797e+03 0.000000e+00 7.034797e+03 -1.330758e+05 0.000000e+00 0.000000e+00 0.000000e+00 0.000000e+00
-8.190642e+04 5.039875e+03 0.000000e+00 5.039875e+03 -1.402528e+05 0.000000e+00 0.000000e+00 0.000000e+00 0.000000e+00
-8.829081e+04 1.670970e+03 0.000000e+00 1.670970e+03 -1.451587e+05 0.000000e+00 0.000000e+00 0.000000e+00 0.000000e+00
-9.607276e+04 -1.385365e+03 0.000000e+00 -1.385365e+03 -1.508698e+05 0.000000e+00 0.000000e+00 0.000000e+00 0.000000e+00
-7.340177e+04 7.215144e+03 0.000000e+00 7.215144e+03 -9.808977e+04 0.000000e+00 0.000000e+00 0.000000e+00 0.000000e+00
-7.023820e+04 7.278292e+03 0.000000e+00 7.278292e+03 -9.838973e+04 0.000000e+00 0.000000e+00 0.000000e+00 0.000000e+00
-6.832216e+04 7.828606e+03 0.000000e+00 7.828606e+03 -1.008084e+05 0.000000e+00 0.000000e+00 0.000000e+00 0.000000e+00
-6.827168e+04 9.124837e+03 0.000000e+00 9.124837e+03 -1.035182e+05 0.000000e+00 0.000000e+00 0.000000e+00 0.000000e+00
-6.956830e+04 1.091624e+04 0.000000e+00 1.091624e+04 -1.066947e+05 0.000000e+00 0.000000e+00 0.000000e+00 0.000000e+00
-7.177047e+04 1.288450e+04 0.000000e+00 1.288450e+04 -1.104706e+05 0.000000e+00 0.000000e+00 0.000000e+00 0.000000e+00
-7.484516e+04 1.489551e+04 0.000000e+00 1.489551e+04 -1.154964e+05 0.000000e+00 0.000000e+00 0.000000e+00 0.000000e+00
-7.914326e+04 1.634626e+04 0.000000e+00 1.634626e+04 -1.224590e+05 0.000000e+00 0.000000e+00 0.000000e+00 0.000000e+00
-8.488970e+04 1.666815e+04 0.000000e+00 1.666815e+04 -1.318898e+05 0.000000e+00 0.000000e+00 0.000000e+00 0.000000e+00
-9.498373e+04 1.520773e+04 0.000000e+00 1.520773e+04 -1.450400e+05 0.000000e+00 0.000000e+00 0.000000e+00 0.000000e+00
-1.122307e+05 1.300879e+04 0.000000e+00 1.300879e+04 -1.606528e+05 0.000000e+00 0.000000e+00 0.000000e+00 0.000000e+00
-7.231960e+04 9.265093e+03 0.000000e+00 9.265093e+03 -9.286137e+04 0.000000e+00 0.000000e+00 0.000000e+00 0.000000e+00
-7.024596e+04 9.315534e+03 0.000000e+00 9.315534e+03 -9.289285e+04 0.000000e+00 0.000000e+00 0.000000e+00 0.000000e+00
-6.929657e+04 9.850843e+03 0.000000e+00 9.850843e+03 -9.401886e+04 0.000000e+00 0.000000e+00 0.000000e+00 0.000000e+00
-6.976834e+04 1.114834e+04 0.000000e+00 1.114834e+04 -9.492596e+04 0.000000e+00 0.000000e+00 0.000000e+00 0.000000e+00
-7.109197e+04 1.287596e+04 0.000000e+00 1.287596e+04 -9.539501e+04 0.000000e+00 0.000000e+00 0.000000e+00 0.000000e+00
-7.285562e+04 1.475220e+04 0.000000e+00 1.475220e+04 -9.515475e+04 0.000000e+00 0.000000e+00 0.000000e+00 0.000000e+00
-7.446721e+04 1.663466e+04 0.000000e+00 1.663466e+04 -9.371862e+04 0.000000e+00 0.000000e+00 0.000000e+00 0.000000e+00
-7.557801e+04 1.802004e+04 0.000000e+00 1.802004e+04 -9.060914e+04 0.000000e+00 0.000000e+00 0.000000e+00 0.000000e+00
-7.641612e+04 1.800392e+04 0.000000e+00 1.800392e+04 -8.544142e+04 0.000000e+00 0.000000e+00 0.000000e+00 0.000000e+00
-7.582471e+04 1.559532e+04 0.000000e+00 1.559532e+04 -7.639026e+04 0.000000e+00 0.000000e+00 0.000000e+00 0.000000e+00
-7.394020e+04 1.322138e+04 0.000000e+00 1.322138e+04 -7.143342e+04 0.000000e+00 0.000000e+00 0.000000e+00 0.000000e+00
-7.083531e+04 1.017954e+04 0.000000e+00 1.017954e+04 -8.692715e+04 0.000000e+00 0.000000e+00 0.000000e+00 0.000000e+00
-7.007638e+04 1.014279e+04 0.000000e+00 1.014279e+04 -8.680571e+04 0.000000e+00 0.000000e+00 0.000000e+00 0.000000e+00
-7.017995e+04 1.034868e+04 0.000000e+00 1.034868e+04 -8.692165e+04 0.000000e+00 0.000000e+00 0.000000e+00 0.000000e+00
-7.122668e+04 1.117550e+04 0.000000e+00 1.117550e+04 -8.657929e+04 0.000000e+00 0.000000e+00 0.000000e+00 0.000000e+00
-7.283802e+04 1.221008e+04 0.000000e+00 1.221008e+04 -8.555166e+04 0.000000e+00 0.000000e+00 0.000000e+00 0.000000e+00
-7.472783e+04 1.310051e+04 0.000000e+00 1.310051e+04 -8.367892e+04 0.000000e+00 0.000000e+00 0.000000e+00 0.000000e+00
-7.640176e+04 1.355904e+04 0.000000e+00 1.355904e+04 -8.075462e+04 0.000000e+00 0.000000e+00 0.000000e+00 0.000000e+00
-7.745871e+04 1.342922e+04 0.000000e+00 1.342922e+04 -7.662166e+04 0.000000e+00 0.000000e+00 0.000000e+00 0.000000e+00
-7.786931e+04 1.187452e+04 0.000000e+00 1.187452e+04 -7.086791e+04 0.000000e+00 0.000000e+00 0.000000e+00 0.000000e+00
-7.506934e+04 6.723073e+03 0.000000e+00 6.723073e+03 -6.547771e+04 0.000000e+00 0.000000e+00 0.000000e+00 0.000000e+00
-6.284672e+04 2.016827e+03 0.000000e+00 2.016827e+03 -5.948995e+04 0.000000e+00 0.000000e+00 0.000000e+00 0.000000e+00
-6.910650e+04 1.019639e+04 0.000000e+00 1.019639e+04 -8.098466e+04 0.000000e+00 0.000000e+00 0.000000e+00 0.000000e+00
-6.958627e+04 1.007229e+04 0.000000e+00 1.007229e+04 -8.080541e+04 0.000000e+00 0.000000e+00 0.000000e+00 0.000000e+00
-7.060332e+04 9.871746e+03 0.000000e+00 9.871746e+03 -8.023738e+04 0.000000e+00 0.000000e+00 0.000000e+00 0.000000e+00
-7.202277e+04 1.009957e+04 0.000000e+00 1.009957e+04 -7.921565e+04 0.000000e+00 0.000000e+00 0.000000e+00 0.000000e+00
-7.364108e+04 1.034320e+04 0.000000e+00 1.034320e+04 -7.762166e+04 0.000000e+00 0.000000e+00 0.000000e+00 0.000000e+00
-7.520195e+04 1.031172e+04 0.000000e+00 1.031172e+04 -7.538015e+04 0.000000e+00 0.000000e+00 0.000000e+00 0.000000e+00
-7.631352e+04 9.769716e+03 0.000000e+00 9.769716e+03 -7.246383e+04 0.000000e+00 0.000000e+00 0.000000e+00 0.000000e+00
-7.648473e+04 8.474249e+03 0.000000e+00 8.474249e+03 -6.883862e+04 0.000000e+00 0.000000e+00 0.000000e+00 0.000000e+00
-7.487073e+04 5.869481e+03 0.000000e+00 5.869481e+03 -6.496662e+04 0.000000e+00 0.000000e+00 0.000000e+00 0.000000e+00
-6.787169e+04 2.052463e+03 0.000000e+00 2.052463e+03 -6.196121e+04 0.000000e+00 0.000000e+00 0.000000e+00 0.000000e+00
-5.791010e+04 1.674877e+02 0.000000e+00 1.674877e+02 -5.935074e+04 0.000000e+00 0.000000e+00 0.000000e+00 0.000000e+00
-6.744488e+04 9.658150e+03 0.000000e+00 9.658150e+03 -7.584028e+04 0.000000e+00 0.000000e+00 0.000000e+00 0.000000e+00
-6.886392e+04 9.416384e+03 0.000000e+00 9.416384e+03 -7.566535e+04 0.000000e+00 0.000000e+00 0.000000e+00 0.000000e+00
-7.053415e+04 8.862492e+03 0.000000e+00 8.862492e+03 -7.473124e+04 0.000000e+00 0.000000e+00 0.000000e+00 0.000000e+00
-7.209927e+04 8.554393e+03 0.000000e+00 8.554393e+03 -7.346358e+04 0.000000e+00 0.000000e+00 0.000000e+00 0.000000e+00
-7.353401e+04 8.189755e+03 0.000000e+00 8.189755e+03 -7.178830e+04 0.000000e+00 0.000000e+00 0.000000e+00 0.000000e+00
-7.465565e+04 7.546271e+03 0.000000e+00 7.546271e+03 -6.970627e+04 0.000000e+00 0.000000e+00 0.000000e+00 0.000000e+00
-7.513420e+04 6.438317e+03 0.000000e+00 6.438317e+03 -6.727888e+04 0.000000e+00 0.000000e+00 0.000000e+00 0.000000e+00
-7.440252e+04 4.711855e+03 0.000000e+00 4.711855e+03 -6.465833e+04 0.000000e+00 0.000000e+00 0.000000e+00 0.000000e+00
-7.143232e+04 2.363040e+03 0.000000e+00 2.363040e+03 -6.226286e+04 0.000000e+00 0.000000e+00 0.000000e+00 0.000000e+00
-6.479475e+04 2.511809e+02 0.000000e+00 2.511809e+02 -6.068195e+04 0.000000e+00 0.000000e+00 0.000000e+00 0.000000e+00
-5.799780e+04 -5.296459e+02 0.000000e+00 -5.296459e+02 -5.932193e+04 0.000000e+00 0.000000e+00 0.000000e+00 0.000000e+00
-6.597002e+04 8.753174e+03 0.000000e+00 8.753174e+03 -7.168672e+04 0.000000e+00 0.000000e+00 0.000000e+00 0.000000e+00
-6.791691e+04 8.433324e+03 0.000000e+00 8.433324e+03 -7.149178e+04 0.000000e+00 0.000000e+00 0.000000e+00 0.000000e+00
-6.996597e+04 7.621446e+03 0.000000e+00 7.621446e+03 -7.040806e+04 0.000000e+00 0.000000e+00 0.000000e+00 0.000000e+00
-7.158977e+04 6.954493e+03 0.000000e+00 6.954493e+03 -6.915984e+04 0.000000e+00 0.000000e+00 0.000000e+00 0.000000e+00
-7.284293e+04 6.214286e+03 0.000000e+00 6.214286e+03 -6.767927e+04 0.000000e+00 0.000000e+00 0.000000e+00 0.000000e+00
-7.359554e+04 5.241858e+03 0.000000e+00 5.241858e+03 -6.597462e+04 0.000000e+00 0.000000e+00 0.000000e+00 0.000000e+00
-7.353528e+04 3.922111e+03 0.000000e+00 3.922111e+03 -6.413863e+04 0.000000e+00 0.000000e+00 0.000000e+00 0.000000e+00
-7.222355e+04 2.253328e+03 0.000000e+00 2.253328e+03 -6.237661e+04 0.000000e+00 0.000000e+00 0.000000e+00 0.000000e+00
-6.906957e+04 5.279496e+02 0.000000e+00 5.279496e+02 -6.100300e+04 0.000000e+00 0.000000e+00 0.000000e+00 0.000000e+00
-6.369114e+04 -4.989408e+02 0.000000e+00 -4.989408e+02 -6.024532e+04 0.000000e+00 0.000000e+00 0.000000e+00 0.000000e+00
-5.897192e+04 -6.326881e+02 0.000000e+00 -6.326881e+02 -5.953541e+04 0.000000e+00 0.000000e+00 0.000000e+00 0.000000e+00
-6.470958e+04 7.623765e+03 0.000000e+00 7.623765e+03 -6.845853e+04 0.000000e+00 0.000000e+00 0.000000e+00 0.000000e+00
-6.686971e+04 7.283953e+03 0.000000e+00 7.283953e+03 -6.826218e+04 0.000000e+00 0.000000e+00 0.000000e+00 0.000000e+00
-6.913356e+04 6.394232e+03 0.000000e+00 6.394232e+03 -6.718954e+04 0.000000e+00 0.000000e+00 0.000000e+00 0.000000e+00
-7.075255e+04 5.535725e+03 0.000000e+00 5.535725e+03 -6.605768e+04 0.000000e+00 0.000000e+00 0.000000e+00 0.000000e+00
-7.183109e+04 4.591064e+03 0.000000e+00 4.591064e+03 -6.481742e+04 0.000000e+00 0.000000e+00 0.000000e+00 0.000000e+00
-7.228695e+04 3.470092e+03 0.000000e+00 3.470092e+03 -6.351051e+04 0.000000e+00 0.000000e+00 0.000000e+00 0.000000e+00
-7.191186e+04 2.162404e+03 0.000000e+00 2.162404e+03 -6.222329e+04 0.000000e+00 0.000000e+00 0.000000e+00 0.000000e+00
-7.044432e+04 7.781614e+02 0.000000e+00 7.781614e+02 -6.112557e+04 0.000000e+00 0.000000e+00 0.000000e+00 0.000000e+00
-6.764591e+04 -3.753488e+02 0.000000e+00 -3.753488e+02 -6.039517e+04 0.000000e+00 0.000000e+00 0.000000e+00 0.000000e+00
-6.357054e+04 -7.658414e+02 0.000000e+00 -7.658414e+02 -6.005880e+04 0.000000e+00 0.000000e+00 0.000000e+00 0.000000e+00
-6.025436e+04 -6.477081e+02 0.000000e+00 -6.477081e+02 -5.965912e+04 0.000000e+00 0.000000e+00 0.000000e+00 0.000000e+00
-6.371034e+04 6.459767e+03 0.000000e+00 6.459767e+03 -6.608139e+04 0.000000e+00 0.000000e+00 0.000000e+00 0.000000e+00
-6.588411e+04 6.136235e+03 0.000000e+00 6.136235e+03 -6.588090e+04 0.000000e+00 0.000000e+00 0.000000e+00 0.000000e+00
-6.816441e+04 5.246198e+03 0.000000e+00 5.246198e+03 -6.486675e+04 0.000000e+00 0.000000e+00 0.000000e+00 0.000000e+00
-6.972300e+04 4.304201e+03 0.000000e+00 4.304201e+03 -6.386633e+04 0.000000e+00 0.000000e+00 0.000000e+00 0.000000e+00
-7.067430e+04 3.302766e+03 0.000000e+00 3.302766e+03 -6.286580e+04 0.000000e+00 0.000000e+00 0.000000e+00 0.000000e+00
-7.095995e+04 2.193034e+03 0.000000e+00 2.193034e+03 -6.190929e+04 0.000000e+00 0.000000e+00 0.000000e+00 0.000000e+00
-7.048576e+04 1.033284e+03 0.000000e+00 1.033284e+03 -6.106264e+04 0.000000e+00 0.000000e+00 0.000000e+00 0.000000e+00
-6.912966e+04 -3.848133e+01 0.000000e+00 -3.848133e+01 -6.042666e+04 0.000000e+00 0.000000e+00 0.000000e+00 0.000000e+00
-6.686555e+04 -7.722406e+02 0.000000e+00 -7.722406e+02 -6.007596e+04 0.000000e+00 0.000000e+00 0.000000e+00 0.000000e+00
-6.387474e+04 -8.236094e+02 0.000000e+00 -8.236094e+02 -5.996655e+04 0.000000e+00 0.000000e+00 0.000000e+00 0.000000e+00
-6.156629e+04 -6.015236e+02 0.000000e+00 -6.015236e+02 -5.974225e+04 0.000000e+00 0.000000e+00 0.000000e+00 0.000000e+00
-6.294597e+04 5.334200e+03 0.000000e+00 5.334200e+03 -6.437351e+04 0.000000e+00 0.000000e+00 0.000000e+00 0.000000e+00
-6.497616e+04 5.026638e+03 0.000000e+00 5.026638e+03 -6.416389e+04 0.000000e+00 0.000000e+00 0.000000e+00 0.000000e+00
-6.716201e+04 4.192667e+03 0.000000e+00 4.192667e+03 -6.323003e+04 0.000000e+00 0.000000e+00 0.000000e+00 0.000000e+00
-6.866566e+04 3.278245e+03 0.000000e+00 3.278245e+03 -6.237283e+04 0.000000e+00 0.000000e+00 0.000000e+00 0.000000e+00
-6.953125e+04 2.320180e+03 0.000000e+00 2.320180e+03 -6.158264e+04 0.000000e+00 0.000000e+00 0.000000e+00 0.000000e+00
-6.975501e+04 1.320729e+03 0.000000e+00 1.320729e+03 -6.089702e+04 0.000000e+00 0.000000e+00 0.000000e+00 0.000000e+00
-6.932082e+04 3.573437e+02 0.000000e+00 3.573437e+02 -6.036490e+04 0.000000e+00 0.000000e+00 0.000000e+00 0.000000e+00
-6.820338e+04 -4.445009e+02 0.000000e+00 -4.445009e+02 -6.003516e+04 0.000000e+00 0.000000e+00 0.000000e+00 0.000000e+00
-6.647744e+04 -8.949259e+02 0.000000e+00 -8.949259e+02 -5.990639e+04 0.000000e+00 0.000000e+00 0.000000e+00 0.000000e+00
-6.434846e+04 -7.756392e+02 0.000000e+00 -7.756392e+02 -5.992061e+04 0.000000e+00 0.000000e+00 0.000000e+00 0.000000e+00
-6.278738e+04 -5.215350e+02 0.000000e+00 -5.215350e+02 -5.980314e+04 0.000000e+00 0.000000e+00 0.000000e+00 0.000000e+00
-6.232244e+04 4.233972e+03 0.000000e+00 4.233972e+03 -6.317864e+04 0.000000e+00 0.000000e+00 0.000000e+00 0.000000e+00
-6.418248e+04 3.969516e+03 0.000000e+00 3.969516e+03 -6.296379e+04 0.000000e+00 0.000000e+00 0.000000e+00 0.000000e+00
-6.623867e+04 3.250595e+03 0.000000e+00 3.250595e+03 -6.210375e+04 0.000000e+00 0.000000e+00 0.000000e+00 0.000000e+00
-6.767347e+04 2.434142e+03 0.000000e+00 2.434142e+03 -6.137002e+04 0.000000e+00 0.000000e+00 0.000000e+00 0.000000e+00
-6.849684e+04 1.586822e+03 0.000000e+00 1.586822e+03 -6.075369e+04 0.000000e+00 0.000000e+00 0.000000e+00 0.000000e+00
-6.873534e+04 7.464959e+02 0.000000e+00 7.464959e+02 -6.027322e+04 0.000000e+00 0.000000e+00 0.000000e+00 0.000000e+00
-6.841320e+04 -1.660500e+01 0.000000e+00 -1.660500e+01 -5.995495e+04 0.000000e+00 0.000000e+00 0.000000e+00 0.000000e+00
-6.756702e+04 -5.979079e+02 0.000000e+00 -5.979079e+02 -5.981695e+04 0.000000e+00 0.000000e+00 0.000000e+00 0.000000e+00
-6.631783e+04 -8.660776e+02 0.000000e+00 -8.660776e+02 -5.981770e+04 0.000000e+00 0.000000e+00 0.000000e+00 0.000000e+00
-6.485895e+04 -6.778915e+02 0.000000e+00 -6.778915e+02 -5.990001e+04 0.000000e+00 0.000000e+00 0.000000e+00 0.000000e+00
-6.384091e+04 -4.324885e+02 0.000000e+00 -4.324885e+02 -5.985240e+04 0.000000e+00 0.000000e+00 0.000000e+00 0.000000e+00
-6.186412e+04 3.204849e+03 0.000000e+00 3.204849e+03 -6.233682e+04 0.000000e+00 0.000000e+00 0.000000e+00 0.000000e+00
-6.353026e+04 2.984748e+03 0.000000e+00 2.984748e+03 -6.211752e+04 0.000000e+00 0.000000e+00 0.000000e+00 0.000000e+00
-6.543736e+04 2.400394e+03 0.000000e+00 2.400394e+03 -6.133228e+04 0.000000e+00 0.000000e+00 0.000000e+00 0.000000e+00
-6.681888e+04 1.737844e+03 0.000000e+00 1.737844e+03 -6.069929e+04 0.000000e+00 0.000000e+00 0.000000e+00 0.000000e+00
-6.762945e+04 1.046843e+03 0.000000e+00 1.046843e+03 -6.021659e+04 0.000000e+00 0.000000e+00 0.000000e+00 0.000000e+00
-6.791951e+04 3.835619e+02 0.000000e+00 3.835619e+02 -5.988605e+04 0.000000e+00 0.000000e+00 0.000000e+00 0.000000e+00
-6.773275e+04 -1.928838e+02 0.000000e+00 -1.928838e+02 -5.971600e+04 0.000000e+00 0.000000e+00 0.000000e+00 0.000000e+00
-6.714134e+04 -6.019965e+02 0.000000e+00 -6.019965e+02 -5.969697e+04 0.000000e+00 0.000000e+00 0.000000e+00 0.000000e+00
-6.628185e+04 -7.519799e+02 0.000000e+00 -7.519799e+02 -5.977566e+04 0.000000e+00 0.000000e+00 0.000000e+00 0.000000e+00
-6.533129e+04 -5.552650e+02 0.000000e+00 -5.552650e+02 -5.989321e+04 0.000000e+00 0.000000e+00 0.000000e+00 0.000000e+00
-6.470906e+04 -3.414556e+02 0.000000e+00 -3.414556e+02 -5.989533e+04 0.000000e+00 0.000000e+00 0.000000e+00 0.000000e+00
-6.151338e+04 2.219505e+03 0.000000e+00 2.219505e+03 -6.169891e+04 0.000000e+00 0.000000e+00 0.000000e+00 0.000000e+00
-6.302877e+04 2.068017e+03 0.000000e+00 2.068017e+03 -6.148797e+04 0.000000e+00 0.000000e+00 0.000000e+00 0.000000e+00
-6.482696e+04 1.644550e+03 0.000000e+00 1.644550e+03 -6.079557e+04 0.000000e+00 0.000000e+00 0.000000e+00 0.000000e+00
-6.614940e+04 1.161298e+03 0.000000e+00 1.161298e+03 -6.024652e+04 0.000000e+00 0.000000e+00 0.000000e+00 0.000000e+00
-6.696022e+04 6.500793e+02 0.000000e+00 6.500793e+02 -5.986759e+04 0.000000e+00 0.000000e+00 0.000000e+00 0.000000e+00
-6.730663e+04 1.678411e+02 0.000000e+00 1.678411e+02 -5.964579e+04 0.000000e+00 0.000000e+00 0.000000e+00 0.000000e+00
-6.724541e+04 -2.403182e+02 0.000000e+00 -2.403182e+02 -5.957512e+04 0.000000e+00 0.000000e+00 0.000000e+00 0.000000e+00
-6.686674e+04 -5.138965e+02 0.000000e+00 -5.138965e+02 -5.962766e+04 0.000000e+00 0.000000e+00 0.000000e+00 0.000000e+00
-6.630427e+04 -5.915676e+02 0.000000e+00 -5.915676e+02 -5.975427e+04 0.000000e+00 0.000000e+00 0.000000e+00 0.000000e+00
-6.572388e+04 -4.212536e+02 0.000000e+00 -4.212536e+02 -5.988987e+04 0.000000e+00 0.000000e+00 0.000000e+00 0.000000e+00
-6.538346e+04 -2.541816e+02 0.000000e+00 -2.541816e+02 -5.992680e+04 0.000000e+00 0.000000e+00 0.000000e+00 0.000000e+00
-6.125071e+04 1.342133e+03 0.000000e+00 1.342133e+03 -6.120968e+04 0.000000e+00 0.000000e+00 0.000000e+00 0.000000e+00
-6.268558e+04 1.246857e+03 0.000000e+00 1.246857e+03 -6.101614e+04 0.000000e+00 0.000000e+00 0.000000e+00 0.000000e+00
-6.441371e+04 9.819461e+02 0.000000e+00 9.819461e+02 -6.039461e+04 0.000000e+00 0.000000e+00 0.000000e+00 0.000000e+00
-6.568657e+04 6.834868e+02 0.000000e+00 6.834868e+02 -5.993023e+04 0.000000e+00 0.000000e+00 0.000000e+00 0.000000e+00
-6.649680e+04 3.620802e+02 0.000000e+00 3.620802e+02 -5.963438e+04 0.000000e+00 0.000000e+00 0.000000e+00 0.000000e+00
-6.688426e+04 5.390483e+01 0.000000e+00 5.390483e+01 -5.949320e+04 0.000000e+00 0.000000e+00 0.000000e+00 0.000000e+00
-6.692177e+04 -2.044401e+02 0.000000e+00 -2.044401e+02 -5.948860e+04 0.000000e+00 0.000000e+00 0.000000e+00 0.000000e+00
-6.670010e+04 -3.701710e+02 0.000000e+00 -3.701710e+02 -5.958874e+04 0.000000e+00 0.000000e+00 0.000000e+00 0.000000e+00
-6.634636e+04 -4.056004e+02 0.000000e+00 -4.056004e+02 -5.974291e+04 0.000000e+00 0.000000e+00 0.000000e+00 0.000000e+00
-6.601375e+04 -2.822758e+02 0.000000e+00 -2.822758e+02 -5.988864e+04 0.000000e+00 0.000000e+00 0.000000e+00 0.000000e+00
-6.586203e+04 -1.687303e+02 0.000000e+00 -1.687303e+02 -5.994655e+04 0.000000e+00 0.000000e+00 0.000000e+00 0.000000e+00
-6.106362e+04 5.105581e+02 0.000000e+00 5.105581e+02 -6.072698e+04 0.000000e+00 0.000000e+00 0.000000e+00 0.000000e+00
-6.251354e+04 5.127195e+02 0.000000e+00 5.127195e+02 -6.058875e+04 0.000000e+00 0.000000e+00 0.000000e+00 0.000000e+00
-6.419632e+04 4.255759e+02 0.000000e+00 4.255759e+02 -6.006921e+04 0.000000e+00 0.000000e+00 0.000000e+00 0.000000e+00
-6.542652e+04 3.041407e+02 0.000000e+00 3.041407e+02 -5.970995e+04 0.000000e+00 0.000000e+00 0.000000e+00 0.000000e+00
-6.622912e+04 1.570480e+02 0.000000e+00 1.570480e+02 -5.948837e+04 0.000000e+00 0.000000e+00 0.000000e+00 0.000000e+00
-6.664040e+04 8.737632e+00 0.000000e+00 8.737632e+00 -5.940114e+04 0.000000e+00 0.000000e+00 0.000000e+00 0.000000e+00
-6.673765e+04 -1.159153e+02 0.000000e+00 -1.159153e+02 -5.944030e+04 0.000000e+00 0.000000e+00 0.000000e+00 0.000000e+00
-6.661206e+04 -1.940094e+02 0.000000e+00 -1.940094e+02 -5.956796e+04 0.000000e+00 0.000000e+00 0.000000e+00 0.000000e+00
-6.638145e+04 -2.055620e+02 0.000000e+00 -2.055620e+02 -5.973766e+04 0.000000e+00 0.000000e+00 0.000000e+00 0.000000e+00
-6.619019e+04 -1.415405e+02 0.000000e+00 -1.415405e+02 -5.988852e+04 0.000000e+00 0.000000e+00 0.000000e+00 0.000000e+00
-6.614348e+04 -8.451158e+01 0.000000e+00 -8.451158e+01 -5.995704e+04 0.000000e+00 0.000000e+00 0.000000e+00 0.000000e+00
-6.089730e+04 -6.733710e+01 0.000000e+00 -6.733710e+01 -6.021458e+04 0.000000e+00 0.000000e+00 0.000000e+00 0.000000e+00
-6.242624e+04 3.901310e+01 0.000000e+00 3.901310e+01 -6.023650e+04 0.000000e+00 0.000000e+00 0.000000e+00 0.000000e+00
-6.413106e+04 8.777216e+01 0.000000e+00 8.777216e+01 -5.991245e+04 0.000000e+00 0.000000e+00 0.000000e+00 0.000000e+00
-6.534564e+04 7.345324e+01 0.000000e+00 7.345324e+01 -5.962298e+04 0.000000e+00 0.000000e+00 0.000000e+00 0.000000e+00
-6.614128e+04 3.108443e+01 0.000000e+00 3.108443e+01 -5.943205e+04 0.000000e+00 0.000000e+00 0.000000e+00 0.000000e+00
-6.656098e+04 -1.774111e+01 0.000000e+00 -1.774111e+01 -5.936671e+04 0.000000e+00 0.000000e+00 0.000000e+00 0.000000e+00
-6.667782e+04 -5.903859e+01 0.000000e+00 -5.903859e+01 -5.942373e+04 0.000000e+00 0.000000e+00 0.000000e+00 0.000000e+00
-6.658528e+04 -8.537393e+01 0.000000e+00 -8.537393e+01 -5.956247e+04 0.000000e+00 0.000000e+00 0.000000e+00 0.000000e+00
-6.639559e+04 -8.683629e+01 0.000000e+00 -8.683629e+01 -5.973700e+04 0.000000e+00 0.000000e+00 0.000000e+00 0.000000e+00
-6.624895e+04 -6.398776e+01 0.000000e+00 -6.398776e+01 -5.988944e+04 0.000000e+00 0.000000e+00 0.000000e+00 0.000000e+00
-6.623438e+04 -4.253167e+01 0.000000e+00 -4.253167e+01 -5.996062e+04 0.000000e+00 0.000000e+00 0.000000e+00 0.000000e+00
</DataArray>
<DataArray Name="vol_eps" type="Float64" NumberOfComponents="1" format="ascii">
-3.767579e-03
-3.521055e-03
-3.512252e-03
-3.623024e-03
-3.876648e-03
-4.290373e-03
-4.876264e-03
-5.638013e-03
-6.488741e-03
-7.231853e-03
-7.367742e-03
-3.631901e-03
-3.404992e-03
-3.406487e-03
-3.522773e-03
-3.767119e-03
-4.162197e-03
-4.714660e-03
-5.443424e-03
-6.338418e-03
-7.190873e-03
-8.165025e-03
-3.327108e-03
-3.135758e-03
-3.138941e-03
-3.256225e-03
-3.465655e-03
-3.763595e-03
-4.179783e-03
-4.761071e-03
-5.498563e-03
-6.726356e-03
-8.860517e-03
-2.918948e-03
-2.782446e-03
-2.784628e-03
-2.852486e-03
-2.933946e-03
-2.975887e-03
-2.886154e-03
-2.568842e-03
-1.972665e-03
-9.431004e-04
-2.599471e-04
-2.431935e-03
-2.372838e-03
-2.387121e-03
-2.430505e-03
-2.464220e-03
-2.458415e-03
-2.366702e-03
-2.153778e-03
-1.804116e-03
-1.298085e-03
-1.227117e-04
-1.926150e-03
-1.949106e-03
-1.982440e-03
-2.009895e-03
-2.010640e-03
-1.964625e-03
-1.846633e-03
-1.620842e-03
-1.265431e-03
-6.236580e-04
1.918995e-04
-1.476633e-03
-1.565245e-03
-1.619297e-03
-1.641166e-03
-1.625959e-03
-1.562560e-03
-1.434889e-03
-1.216569e-03
-8.703197e-04
-3.480768e-04
1.773874e-04
-1.107120e-03
-1.231635e-03
-1.303590e-03
-1.330306e-03
-1.314621e-03
-1.250640e-03
-1.126224e-03
-9.277375e-04
-6.388997e-04
-2.513145e-04
9.692021e-05
-8.196812e-04
-9.565541e-04
-1.041235e-03
-1.073228e-03
-1.061433e-03
-1.005111e-03
-8.975433e-04
-7.333026e-04
-5.096400e-04
-2.321220e-04
4.582292e-06
-6.062441e-04
-7.415542e-04
-8.291646e-04
-8.651742e-04
-8.606034e-04
-8.167955e-04
-7.316644e-04
-6.043883e-04
-4.398056e-04
-2.456337e-04
-8.533968e-05
-4.522702e-04
-5.759491e-04
-6.605529e-04
-7.015541e-04
-7.045352e-04
-6.740519e-04
-6.119008e-04
-5.198552e-04
-4.042563e-04
-2.725034e-04
-1.668906e-04
-3.423617e-04
-4.514345e-04
-5.299860e-04
-5.735423e-04
-5.847457e-04
-5.682872e-04
-5.272725e-04
-4.655695e-04
-3.884291e-04
-3.027904e-04
-2.363525e-04
-2.645118e-04
-3.598580e-04
-4.317193e-04
-4.762959e-04
-4.949624e-04
-4.913717e-04
-4.688125e-04
-4.311078e-04
-3.832165e-04
-3.313955e-04
-2.928890e-04
-2.067842e-04
-2.923129e-04
-3.601619e-04
-4.053161e-04
-4.301658e-04
-4.370650e-04
-4.289577e-04
-4.091467e-04
-3.829611e-04
-3.553703e-04
-3.364520e-04
-1.622788e-04
-2.424911e-04
-3.094097e-04
-3.560322e-04
-3.858662e-04
-4.004984e-04
-4.025967e-04
-3.959099e-04
-3.846044e-04
-3.733045e-04
-3.675806e-04
-1.202820e-04
-2.043033e-04
-2.751091e-04
-3.257103e-04
-3.596423e-04
-3.791601e-04
-3.876622e-04
-3.887237e-04
-3.861163e-04
-3.841826e-04
-3.858300e-04
-7.636889e-05
-1.759136e-04
-2.610404e-04
-3.153249e-04
-3.505693e-04
-3.720103e-04
-3.828250e-04
-3.864316e-04
-3.867292e-04
-3.878212e-04
-3.917202e-04
</DataArray>
</PointData>
</Piece>
</UnstructuredGrid>
</VTKFile>
