<?xml version="1.0"?>
<VTKFile type="UnstructuredGrid" version="0.1">
<UnstructuredGrid>
<FieldData>
<DataArray Name="TIME" type="Float64" format="ascii" NumberOfTuples="1">
0.000000e+00
</DataArray>
</FieldData>
<FieldData>
<DataArray Name="CYCLE" type="Int32" format="ascii" NumberOfTuples="1">
0
</DataArray>
</FieldData>
<Piece NumberOfPoints="187" NumberOfCells="160">
<Points>
<DataArray NumberOfComponents="3" type="Float64" format="ascii">
0.000000e+00 0.000000e+00 0.000000e+00
0.000000e+00 1.977445e-01 0.000000e+00
0.000000e+00 3.947202e-01 0.000000e+00
0.000000e+00 5.911092e-01 0.000000e+00
0.000000e+00 7.870123e-01 0.000000e+00
0.000000e+00 9.825936e-01 0.000000e+00
0.000000e+00 1.178023e+00 0.000000e+00
0.000000e+00 1.373515e+00 0.000000e+00
0.000000e+00 1.569358e+00 0.000000e+00
0.000000e+00 1.765937e+00 0.000000e+00
0.000000e+00 1.962875e+00 0.000000e+00
2.250000e-01 0.000000e+00 0.000000e+00
2.260508e-01 1.979351e-01 0.000000e+00
2.268999e-01 3.951671e-01 0.000000e+00
2.275405e-01 5.918393e-01 0.000000e+00
2.279819e-01 7.880433e-01 0.000000e+00
2.281624e-01 9.838855e-01 0.000000e+00
2.280644e-01 1.179457e+00 0.000000e+00
2.276606e-01 1.374866e+00 0.000000e+00
2.268111e-01 1.570312e+00 0.000000e+00
2.255571e-01 1.766066e+00 0.000000e+00
2.250000e-01 1.962875e+00 0.000000e+00
4.500000e-01 0.000000e+00 0.000000e+00
4.518931e-01 1.984052e-01 0.000000e+00
4.534175e-01 3.963819e-01 0.000000e+00
4.546061e-01 5.939481e-01 0.000000e+00
4.554730e-01 7.911111e-01 0.000000e+00
4.559689e-01 9.878508e-01 0.000000e+00
4.561435e-01 1.184108e+00 0.000000e+00
4.559393e-01 1.379837e+00 0.000000e+00
4.550902e-01 1.574904e+00 0.000000e+00
4.534512e-01 1.769167e+00 0.000000e+00
4.500000e-01 1.962875e+00 0.000000e+00
6.750000e-01 0.000000e+00 0.000000e+00
6.773255e-01 1.988854e-01 0.000000e+00
6.791171e-01 3.977057e-01 0.000000e+00
6.805253e-01 5.965412e-01 0.000000e+00
6.816413e-01 7.954434e-01 0.000000e+00
6.824772e-01 9.944620e-01 0.000000e+00
6.830401e-01 1.193610e+00 0.000000e+00
6.832498e-01 1.392903e+00 0.000000e+00
6.829078e-01 1.592488e+00 0.000000e+00
6.817939e-01 1.792489e+00 0.000000e+00
6.781003e-01 1.993126e+00 0.000000e+00
9.000000e-01 0.000000e+00 0.000000e+00
9.024295e-01 1.991774e-01 0.000000e+00
9.041471e-01 3.984017e-01 0.000000e+00
9.054399e-01 5.977123e-01 0.000000e+00
9.064243e-01 7.971230e-01 0.000000e+00
9.071184e-01 9.966519e-01 0.000000e+00
9.075162e-01 1.196337e+00 0.000000e+00
9.075279e-01 1.396224e+00 0.000000e+00
9.069986e-01 1.596323e+00 0.000000e+00
9.055613e-01 1.796641e+00 0.000000e+00
9.031504e-01 1.996636e+00 0.000000e+00
1.125000e+00 0.000000e+00 0.000000e+00
1.127355e+00 1.994264e-01 0.000000e+00
1.128908e+00 3.989422e-01 0.000000e+00
1.130062e+00 5.985605e-01 0.000000e+00
1.130913e+00 7.982838e-01 0.000000e+00
1.131474e+00 9.981247e-01 0.000000e+00
1.131725e+00 1.198101e+00 0.000000e+00
1.131614e+00 1.398224e+00 0.000000e+00
1.131007e+00 1.598475e+00 0.000000e+00
1.129859e+00 1.798715e+00 0.000000e+00
1.128394e+00 1.998793e+00 0.000000e+00
1.350000e+00 0.000000e+00 0.000000e+00
1.352145e+00 1.996216e-01 0.000000e+00
1.353530e+00 3.993484e-01 0.000000e+00
1.354544e+00 5.991719e-01 0.000000e+00
1.355270e+00 7.990924e-01 0.000000e+00
1.355724e+00 9.991140e-01 0.000000e+00
1.355888e+00 1.199238e+00 0.000000e+00
1.355720e+00 1.399457e+00 0.000000e+00
1.355195e+00 1.599723e+00 0.000000e+00
1.354377e+00 1.799938e+00 0.000000e+00
1.353477e+00 2.000005e+00 0.000000e+00
1.575000e+00 0.000000e+00 0.000000e+00
1.576860e+00 1.997550e-01 0.000000e+00
1.578078e+00 3.996252e-01 0.000000e+00
1.578961e+00 5.995856e-01 0.000000e+00
1.579586e+00 7.996287e-01 0.000000e+00
1.579961e+00 9.997519e-01 0.000000e+00
1.580072e+00 1.199950e+00 0.000000e+00
1.579917e+00 1.400202e+00 0.000000e+00
1.579525e+00 1.600457e+00 0.000000e+00
1.578979e+00 1.800646e+00 0.000000e+00
1.578436e+00 2.000730e+00 0.000000e+00
1.800000e+00 0.000000e+00 0.000000e+00
1.801551e+00 1.998453e-01 0.000000e+00
1.802600e+00 3.998076e-01 0.000000e+00
1.803369e+00 5.998495e-01 0.000000e+00
1.803908e+00 7.999606e-01 0.000000e+00
1.804221e+00 1.000138e+00 0.000000e+00
1.804314e+00 1.200369e+00 0.000000e+00
1.804208e+00 1.400623e+00 0.000000e+00
1.803944e+00 1.600861e+00 0.000000e+00
1.803600e+00 1.801040e+00 0.000000e+00
1.803291e+00 2.001140e+00 0.000000e+00
2.025000e+00 0.000000e+00 0.000000e+00
2.026249e+00 1.999029e-01 0.000000e+00
2.027138e+00 3.999138e-01 0.000000e+00
2.027801e+00 5.999962e-01 0.000000e+00
2.028262e+00 8.001435e-01 0.000000e+00
2.028530e+00 1.000346e+00 0.000000e+00
2.028624e+00 1.200584e+00 0.000000e+00
2.028570e+00 1.400830e+00 0.000000e+00
2.028412e+00 1.601054e+00 0.000000e+00
2.028214e+00 1.801230e+00 0.000000e+00
2.028060e+00 2.001348e+00 0.000000e+00
2.250000e+00 0.000000e+00 0.000000e+00
2.250977e+00 1.999324e-01 0.000000e+00
2.251715e+00 3.999625e-01 0.000000e+00
2.252273e+00 6.000639e-01 0.000000e+00
2.252662e+00 8.002260e-01 0.000000e+00
2.252897e+00 1.000434e+00 0.000000e+00
2.252996e+00 1.200666e+00 0.000000e+00
2.252986e+00 1.400900e+00 0.000000e+00
2.252908e+00 1.601113e+00 0.000000e+00
2.252810e+00 1.801289e+00 0.000000e+00
2.252756e+00 2.001426e+00 0.000000e+00
2.475000e+00 0.000000e+00 0.000000e+00
2.475747e+00 1.999466e-01 0.000000e+00
2.476339e+00 3.999799e-01 0.000000e+00
2.476792e+00 6.000847e-01 0.000000e+00
2.477115e+00 8.002458e-01 0.000000e+00
2.477319e+00 1.000446e+00 0.000000e+00
2.477419e+00 1.200667e+00 0.000000e+00
2.477441e+00 1.400888e+00 0.000000e+00
2.477417e+00 1.601093e+00 0.000000e+00
2.477384e+00 1.801273e+00 0.000000e+00
2.477391e+00 2.001426e+00 0.000000e+00
2.700000e+00 0.000000e+00 0.000000e+00
2.700554e+00 1.999519e-01 0.000000e+00
2.701009e+00 3.999829e-01 0.000000e+00
2.701362e+00 6.000804e-01 0.000000e+00
2.701621e+00 8.002316e-01 0.000000e+00
2.701791e+00 1.000419e+00 0.000000e+00
2.701886e+00 1.200626e+00 0.000000e+00
2.701924e+00 1.400836e+00 0.000000e+00
2.701931e+00 1.601036e+00 0.000000e+00
2.701937e+00 1.801219e+00 0.000000e+00
2.701974e+00 2.001386e+00 0.000000e+00
2.925000e+00 0.000000e+00 0.000000e+00
2.925391e+00 1.999522e-01 0.000000e+00
2.925720e+00 3.999781e-01 0.000000e+00
2.925980e+00 6.000664e-01 0.000000e+00
2.926174e+00 8.002052e-01 0.000000e+00
2.926306e+00 1.000380e+00 0.000000e+00
2.926385e+00 1.200574e+00 0.000000e+00
2.926427e+00 1.400774e+00 0.000000e+00
2.926448e+00 1.600969e+00 0.000000e+00
2.926471e+00 1.801155e+00 0.000000e+00
2.926517e+00 2.001336e+00 0.000000e+00
3.150000e+00 0.000000e+00 0.000000e+00
3.150250e+00 1.999517e-01 0.000000e+00
3.150464e+00 3.999726e-01 0.000000e+00
3.150635e+00 6.000534e-01 0.000000e+00
3.150764e+00 8.001827e-01 0.000000e+00
3.150853e+00 1.000347e+00 0.000000e+00
3.150910e+00 1.200531e+00 0.000000e+00
3.150944e+00 1.400723e+00 0.000000e+00
3.150966e+00 1.600915e+00 0.000000e+00
3.150989e+00 1.801104e+00 0.000000e+00
3.151028e+00 2.001294e+00 0.000000e+00
3.375000e+00 0.000000e+00 0.000000e+00
3.375123e+00 1.999533e-01 0.000000e+00
3.375228e+00 3.999742e-01 0.000000e+00
3.375312e+00 6.000517e-01 0.000000e+00
3.375376e+00 8.001751e-01 0.000000e+00
3.375422e+00 1.000332e+00 0.000000e+00
3.375451e+00 1.200510e+00 0.000000e+00
3.375470e+00 1.400698e+00 0.000000e+00
3.375483e+00 1.600888e+00 0.000000e+00
3.375497e+00 1.801079e+00 0.000000e+00
3.375519e+00 2.001273e+00 0.000000e+00
3.600000e+00 0.000000e+00 0.000000e+00
3.600000e+00 1.999668e-01 0.000000e+00
3.600000e+00 3.999904e-01 0.000000e+00
3.600000e+00 6.000671e-01 0.000000e+00
3.600000e+00 8.001881e-01 0.000000e+00
3.600000e+00 1.000342e+00 0.000000e+00
3.600000e+00 1.200518e+00 0.000000e+00
3.600000e+00 1.400704e+00 0.000000e+00
3.600000e+00 1.600894e+00 0.000000e+00
3.600000e+00 1.801086e+00 0.000000e+00
3.600000e+00 2.001282e+00 0.000000e+00
</DataArray>
</Points>
<Cells>
<DataArray Name="connectivity" type="Int32" format="ascii">
0 11 12 1
1 12 13 2
2 13 14 3
3 14 15 4
4 15 16 5
5 16 17 6
6 17 18 7
7 18 19 8
8 19 20 9
9 20 21 10
11 22 23 12
12 23 24 13
13 24 25 14
14 25 26 15
15 26 27 16
16 27 28 17
17 28 29 18
18 29 30 19
19 30 31 20
20 31 32 21
22 33 34 23
23 34 35 24
24 35 36 25
25 36 37 26
26 37 38 27
27 38 39 28
28 39 40 29
29 40 41 30
30 41 42 31
31 42 43 32
33 44 45 34
34 45 46 35
35 46 47 36
36 47 48 37
37 48 49 38
38 49 50 39
39 50 51 40
40 51 52 41
41 52 53 42
42 53 54 43
44 55 56 45
45 56 57 46
46 57 58 47
47 58 59 48
48 59 60 49
49 60 61 50
50 61 62 51
51 62 63 52
52 63 64 53
53 64 65 54
55 66 67 56
56 67 68 57
57 68 69 58
58 69 70 59
59 70 71 60
60 71 72 61
61 72 73 62
62 73 74 63
63 74 75 64
64 75 76 65
66 77 78 67
67 78 79 68
68 79 80 69
69 80 81 70
70 81 82 71
71 82 83 72
72 83 84 73
73 84 85 74
74 85 86 75
75 86 87 76
77 88 89 78
78 89 90 79
79 90 91 80
80 91 92 81
81 92 93 82
82 93 94 83
83 94 95 84
84 95 96 85
85 96 97 86
86 97 98 87
88 99 100 89
89 100 101 90
90 101 102 91
91 102 103 92
92 103 104 93
93 104 105 94
94 105 106 95
95 106 107 96
96 107 108 97
97 108 109 98
99 110 111 100
100 111 112 101
101 112 113 102
102 113 114 103
103 114 115 104
104 115 116 105
105 116 117 106
106 117 118 107
107 118 119 108
108 119 120 109
110 121 122 111
111 122 123 112
112 123 124 113
113 124 125 114
114 125 126 115
115 126 127 116
116 127 128 117
117 128 129 118
118 129 130 119
119 130 131 120
121 132 133 122
122 133 134 123
123 134 135 124
124 135 136 125
125 136 137 126
126 137 138 127
127 138 139 128
128 139 140 129
129 140 141 130
130 141 142 131
132 143 144 133
133 144 145 134
134 145 146 135
135 146 147 136
136 147 148 137
137 148 149 138
138 149 150 139
139 150 151 140
140 151 152 141
141 152 153 142
143 154 155 144
144 155 156 145
145 156 157 146
146 157 158 147
147 158 159 148
148 159 160 149
149 160 161 150
150 161 162 151
151 162 163 152
152 163 164 153
154 165 166 155
155 166 167 156
156 167 168 157
157 168 169 158
158 169 170 159
159 170 171 160
160 171 172 161
161 172 173 162
162 173 174 163
163 174 175 164
165 176 177 166
166 177 178 167
167 178 179 168
168 179 180 169
169 180 181 170
170 181 182 171
171 182 183 172
172 183 184 173
173 184 185 174
174 185 186 175
</DataArray>
<DataArray Name="offsets" type="Int32" format="ascii">
4
8
12
16
20
24
28
32
36
40
44
48
52
56
60
64
68
72
76
80
84
88
92
96
100
104
108
112
116
120
124
128
132
136
140
144
148
152
156
160
164
168
172
176
180
184
188
192
196
200
204
208
212
216
220
224
228
232
236
240
244
248
252
256
260
264
268
272
276
280
284
288
292
296
300
304
308
312
316
320
324
328
332
336
340
344
348
352
356
360
364
368
372
376
380
384
388
392
396
400
404
408
412
416
420
424
428
432
436
440
444
448
452
456
460
464
468
472
476
480
484
488
492
496
500
504
508
512
516
520
524
528
532
536
540
544
548
552
556
560
564
568
572
576
580
584
588
592
596
600
604
608
612
616
620
624
628
632
636
640
</DataArray>
<DataArray Name="types" type="UInt8" format="ascii">
9
9
9
9
9
9
9
9
9
9
9
9
9
9
9
9
9
9
9
9
9
9
9
9
9
9
9
9
9
9
9
9
9
9
9
9
9
9
9
9
9
9
9
9
9
9
9
9
9
9
9
9
9
9
9
9
9
9
9
9
9
9
9
9
9
9
9
9
9
9
9
9
9
9
9
9
9
9
9
9
9
9
9
9
9
9
9
9
9
9
9
9
9
9
9
9
9
9
9
9
9
9
9
9
9
9
9
9
9
9
9
9
9
9
9
9
9
9
9
9
9
9
9
9
9
9
9
9
9
9
9
9
9
9
9
9
9
9
9
9
9
9
9
9
9
9
9
9
9
9
9
9
9
9
9
9
9
9
9
9
</DataArray>
</Cells>
<PointData>
<DataArray Name="disp" type="Float64" NumberOfComponents="3" format="ascii">
0.000000e+00 0.000000e+00 0.000000e+00
0.000000e+00 -2.255494e-03 0.000000e+00
0.000000e+00 -5.279833e-03 0.000000e+00
0.000000e+00 -8.890807e-03 0.000000e+00
0.000000e+00 -1.298770e-02 0.000000e+00
0.000000e+00 -1.740640e-02 0.000000e+00
0.000000e+00 -2.197678e-02 0.000000e+00
0.000000e+00 -2.648537e-02 0.000000e+00
0.000000e+00 -3.064177e-02 0.000000e+00
0.000000e+00 -3.406318e-02 0.000000e+00
0.000000e+00 -3.712500e-02 0.000000e+00
0.000000e+00 0.000000e+00 0.000000e+00
1.050777e-03 -2.064883e-03 0.000000e+00
1.899900e-03 -4.832938e-03 0.000000e+00
2.540529e-03 -8.160708e-03 0.000000e+00
2.981880e-03 -1.195670e-02 0.000000e+00
3.162356e-03 -1.611456e-02 0.000000e+00
3.064405e-03 -2.054273e-02 0.000000e+00
2.660621e-03 -2.513421e-02 0.000000e+00
1.811049e-03 -2.968769e-02 0.000000e+00
5.571133e-04 -3.393432e-02 0.000000e+00
0.000000e+00 -3.712500e-02 0.000000e+00
0.000000e+00 0.000000e+00 0.000000e+00
1.893067e-03 -1.594764e-03 0.000000e+00
3.417525e-03 -3.618069e-03 0.000000e+00
4.606044e-03 -6.051878e-03 0.000000e+00
5.473022e-03 -8.888860e-03 0.000000e+00
5.968942e-03 -1.214924e-02 0.000000e+00
6.143457e-03 -1.589182e-02 0.000000e+00
5.939264e-03 -2.016255e-02 0.000000e+00
5.090187e-03 -2.509585e-02 0.000000e+00
3.451209e-03 -3.083290e-02 0.000000e+00
0.000000e+00 -3.712500e-02 0.000000e+00
0.000000e+00 0.000000e+00 0.000000e+00
2.325516e-03 -1.114580e-03 0.000000e+00
4.117064e-03 -2.294338e-03 0.000000e+00
5.525328e-03 -3.458807e-03 0.000000e+00
6.641326e-03 -4.556605e-03 0.000000e+00
7.477186e-03 -5.538051e-03 0.000000e+00
8.040114e-03 -6.389725e-03 0.000000e+00
8.249814e-03 -7.096514e-03 0.000000e+00
7.907763e-03 -7.511871e-03 0.000000e+00
6.793912e-03 -7.511116e-03 0.000000e+00
3.100340e-03 -6.873816e-03 0.000000e+00
0.000000e+00 0.000000e+00 0.000000e+00
2.429505e-03 -8.226247e-04 0.000000e+00
4.147166e-03 -1.598330e-03 0.000000e+00
5.439845e-03 -2.287643e-03 0.000000e+00
6.424279e-03 -2.877005e-03 0.000000e+00
7.118378e-03 -3.348071e-03 0.000000e+00
7.516159e-03 -3.663006e-03 0.000000e+00
7.527946e-03 -3.775651e-03 0.000000e+00
6.998563e-03 -3.677522e-03 0.000000e+00
5.561255e-03 -3.358754e-03 0.000000e+00
3.150413e-03 -3.363565e-03 0.000000e+00
0.000000e+00 0.000000e+00 0.000000e+00
2.354816e-03 -5.736279e-04 0.000000e+00
3.907909e-03 -1.057788e-03 0.000000e+00
5.061571e-03 -1.439569e-03 0.000000e+00
5.912595e-03 -1.716260e-03 0.000000e+00
6.474500e-03 -1.875367e-03 0.000000e+00
6.725481e-03 -1.898846e-03 0.000000e+00
6.613745e-03 -1.776246e-03 0.000000e+00
6.007308e-03 -1.524535e-03 0.000000e+00
4.858641e-03 -1.284693e-03 0.000000e+00
3.394315e-03 -1.206867e-03 0.000000e+00
0.000000e+00 0.000000e+00 0.000000e+00
2.145230e-03 -3.783788e-04 0.000000e+00
3.529581e-03 -6.516346e-04 0.000000e+00
4.544453e-03 -8.280703e-04 0.000000e+00
5.270129e-03 -9.076251e-04 0.000000e+00
5.724430e-03 -8.859755e-04 0.000000e+00
5.887927e-03 -7.621255e-04 0.000000e+00
5.719637e-03 -5.429198e-04 0.000000e+00
5.195198e-03 -2.773311e-04 0.000000e+00
4.377323e-03 -6.218725e-05 0.000000e+00
3.476701e-03 4.520220e-06 0.000000e+00
0.000000e+00 0.000000e+00 0.000000e+00
1.860440e-03 -2.450498e-04 0.000000e+00
3.077922e-03 -3.748348e-04 0.000000e+00
3.960918e-03 -4.144261e-04 0.000000e+00
4.586221e-03 -3.713373e-04 0.000000e+00
4.960587e-03 -2.480783e-04 0.000000e+00
5.072327e-03 -4.960577e-05 0.000000e+00
4.917415e-03 2.017846e-04 0.000000e+00
4.525137e-03 4.569538e-04 0.000000e+00
3.978743e-03 6.464013e-04 0.000000e+00
3.435487e-03 7.301124e-04 0.000000e+00
0.000000e+00 0.000000e+00 0.000000e+00
1.551376e-03 -1.547434e-04 0.000000e+00
2.600083e-03 -1.924110e-04 0.000000e+00
3.368783e-03 -1.504614e-04 0.000000e+00
3.908269e-03 -3.941882e-05 0.000000e+00
4.220742e-03 1.378289e-04 0.000000e+00
4.314552e-03 3.687780e-04 0.000000e+00
4.207522e-03 6.234051e-04 0.000000e+00
3.943751e-03 8.613933e-04 0.000000e+00
3.599601e-03 1.040030e-03 0.000000e+00
3.290927e-03 1.139920e-03 0.000000e+00
0.000000e+00 0.000000e+00 0.000000e+00
1.249347e-03 -9.710890e-05 0.000000e+00
2.137869e-03 -8.623367e-05 0.000000e+00
2.800867e-03 -3.777643e-06 0.000000e+00
3.262265e-03 1.434639e-04 0.000000e+00
3.530316e-03 3.457811e-04 0.000000e+00
3.624366e-03 5.835646e-04 0.000000e+00
3.570304e-03 8.302387e-04 0.000000e+00
3.412413e-03 1.054123e-03 0.000000e+00
3.213781e-03 1.229630e-03 0.000000e+00
3.060433e-03 1.347874e-03 0.000000e+00
0.000000e+00 0.000000e+00 0.000000e+00
9.772957e-04 -6.765060e-05 0.000000e+00
1.714884e-03 -3.747074e-05 0.000000e+00
2.273210e-03 6.390407e-05 0.000000e+00
2.661631e-03 2.259854e-04 0.000000e+00
2.896827e-03 4.335566e-04 0.000000e+00
2.995882e-03 6.658282e-04 0.000000e+00
2.986122e-03 8.998103e-04 0.000000e+00
2.907634e-03 1.113196e-03 0.000000e+00
2.809838e-03 1.289413e-03 0.000000e+00
2.756394e-03 1.425714e-03 0.000000e+00
0.000000e+00 0.000000e+00 0.000000e+00
7.465390e-04 -5.335793e-05 0.000000e+00
1.338665e-03 -2.005493e-05 0.000000e+00
1.792398e-03 8.470397e-05 0.000000e+00
2.114627e-03 2.457546e-04 0.000000e+00
2.318625e-03 4.459411e-04 0.000000e+00
2.419282e-03 6.666215e-04 0.000000e+00
2.441197e-03 8.880623e-04 0.000000e+00
2.416502e-03 1.093437e-03 0.000000e+00
2.384159e-03 1.272508e-03 0.000000e+00
2.390583e-03 1.425910e-03 0.000000e+00
0.000000e+00 0.000000e+00 0.000000e+00
5.538937e-04 -4.807971e-05 0.000000e+00
1.008788e-03 -1.714370e-05 0.000000e+00
1.362458e-03 8.044185e-05 0.000000e+00
1.620846e-03 2.316014e-04 0.000000e+00
1.791338e-03 4.191099e-04 0.000000e+00
1.885757e-03 6.260895e-04 0.000000e+00
1.924093e-03 8.360843e-04 0.000000e+00
1.931340e-03 1.035733e-03 0.000000e+00
1.937229e-03 1.218493e-03 0.000000e+00
1.973848e-03 1.386425e-03 0.000000e+00
0.000000e+00 0.000000e+00 0.000000e+00
3.906671e-04 -4.779518e-05 0.000000e+00
7.201607e-04 -2.192167e-05 0.000000e+00
9.802929e-04 6.637666e-05 0.000000e+00
1.174163e-03 2.052218e-04 0.000000e+00
1.306225e-03 3.798180e-04 0.000000e+00
1.385469e-03 5.741770e-04 0.000000e+00
1.426802e-03 7.741513e-04 0.000000e+00
1.448415e-03 9.693899e-04 0.000000e+00
1.470865e-03 1.155492e-03 0.000000e+00
1.516415e-03 1.335597e-03 0.000000e+00
0.000000e+00 0.000000e+00 0.000000e+00
2.496355e-04 -4.832714e-05 0.000000e+00
4.641991e-04 -2.739432e-05 0.000000e+00
6.344786e-04 5.341296e-05 0.000000e+00
7.635914e-04 1.826995e-04 0.000000e+00
8.533154e-04 3.468365e-04 0.000000e+00
9.099739e-04 5.311038e-04 0.000000e+00
9.436833e-04 7.233983e-04 0.000000e+00
9.658040e-04 9.154667e-04 0.000000e+00
9.891879e-04 1.104357e-03 0.000000e+00
1.027770e-03 1.293760e-03 0.000000e+00
0.000000e+00 0.000000e+00 0.000000e+00
1.233005e-04 -4.668398e-05 0.000000e+00
2.277500e-04 -2.577995e-05 0.000000e+00
3.119040e-04 5.168992e-05 0.000000e+00
3.760137e-04 1.751118e-04 0.000000e+00
4.216091e-04 3.323730e-04 0.000000e+00
4.508759e-04 5.101533e-04 0.000000e+00
4.696792e-04 6.977100e-04 0.000000e+00
4.830757e-04 8.878435e-04 0.000000e+00
4.971510e-04 1.078507e-03 0.000000e+00
5.186633e-04 1.273288e-03 0.000000e+00
0.000000e+00 0.000000e+00 0.000000e+00
0.000000e+00 -3.314861e-05 0.000000e+00
0.000000e+00 -9.577969e-06 0.000000e+00
0.000000e+00 6.708460e-05 0.000000e+00
0.000000e+00 1.880772e-04 0.000000e+00
0.000000e+00 3.425461e-04 0.000000e+00
0.000000e+00 5.181831e-04 0.000000e+00
0.000000e+00 7.042990e-04 0.000000e+00
0.000000e+00 8.940568e-04 0.000000e+00
0.000000e+00 1.085573e-03 0.000000e+00
0.000000e+00 1.281931e-03 0.000000e+00
</DataArray>
<DataArray Name="shear" type="Float64" NumberOfComponents="1" format="ascii">
1.273965e-02
1.759519e-02
2.473831e-02
3.032823e-02
3.438965e-02
3.658747e-02
3.667026e-02
3.406612e-02
2.796570e-02
2.013770e-02
1.648395e-02
1.282870e-02
1.706283e-02
2.352548e-02
2.893848e-02
3.325469e-02
3.629730e-02
3.793781e-02
3.752936e-02
3.425710e-02
2.734297e-02
2.127995e-02
1.331737e-02
1.581461e-02
2.010828e-02
2.486623e-02
3.013680e-02
3.614547e-02
4.288265e-02
4.968892e-02
5.618677e-02
5.948754e-02
5.957926e-02
1.345231e-02
1.388335e-02
1.476544e-02
1.682608e-02
2.004945e-02
2.454511e-02
3.033259e-02
3.706257e-02
4.465755e-02
5.023545e-02
5.408337e-02
1.311742e-02
1.223030e-02
1.080495e-02
1.046627e-02
1.059944e-02
1.089979e-02
1.117065e-02
1.104880e-02
9.816243e-03
5.946338e-03
1.704954e-03
1.231734e-02
1.093837e-02
8.936081e-03
8.277375e-03
8.046691e-03
7.942020e-03
7.769141e-03
7.224387e-03
5.886379e-03
3.156869e-03
7.330498e-04
1.103789e-02
9.571654e-03
7.555536e-03
6.867898e-03
6.551116e-03
6.330505e-03
6.052978e-03
5.537898e-03
4.461410e-03
2.554568e-03
1.019591e-03
9.494507e-03
8.200748e-03
6.473824e-03
5.873212e-03
5.580848e-03
5.379178e-03
5.146097e-03
4.700734e-03
3.821937e-03
2.396676e-03
1.309219e-03
7.886939e-03
6.880675e-03
5.573202e-03
5.101677e-03
4.884497e-03
4.761123e-03
4.585265e-03
4.199848e-03
3.485793e-03
2.415041e-03
1.644999e-03
6.340926e-03
5.631443e-03
4.741191e-03
4.433803e-03
4.337736e-03
4.295187e-03
4.171760e-03
3.860883e-03
3.302400e-03
2.513723e-03
1.979179e-03
4.955788e-03
4.497414e-03
3.969094e-03
3.844308e-03
3.873634e-03
3.905790e-03
3.838932e-03
3.611383e-03
3.200247e-03
2.646492e-03
2.293697e-03
3.780585e-03
3.504857e-03
3.261567e-03
3.310672e-03
3.452747e-03
3.560246e-03
3.560773e-03
3.420444e-03
3.144254e-03
2.786193e-03
2.573902e-03
2.799008e-03
2.645079e-03
2.622448e-03
2.826883e-03
3.076366e-03
3.259699e-03
3.329856e-03
3.274774e-03
3.116645e-03
2.917202e-03
2.811338e-03
1.972185e-03
1.906588e-03
2.072850e-03
2.420421e-03
2.765462e-03
3.016679e-03
3.146926e-03
3.164362e-03
3.104433e-03
3.029716e-03
3.003734e-03
1.262196e-03
1.276838e-03
1.641390e-03
2.122043e-03
2.541007e-03
2.839558e-03
3.013550e-03
3.086209e-03
3.100365e-03
3.115201e-03
3.145277e-03
6.315568e-04
7.723282e-04
1.363502e-03
1.942074e-03
2.405279e-03
2.732229e-03
2.933132e-03
3.040929e-03
3.100804e-03
3.167689e-03
3.228911e-03
2.256511e-04
5.525221e-04
1.267117e-03
1.878740e-03
2.356269e-03
2.694618e-03
2.906045e-03
3.026864e-03
3.102511e-03
3.185245e-03
3.255292e-03
</DataArray>
<DataArray Name="stress" type="Float64" NumberOfComponents="9" format="ascii">
-1.019032e+05 4.622045e+03 0.000000e+00 4.622045e+03 -1.659439e+05 0.000000e+00 0.000000e+00 0.000000e+00 0.000000e+00
-9.193609e+04 4.381141e+03 0.000000e+00 4.381141e+03 -1.644849e+05 0.000000e+00 0.000000e+00 0.000000e+00 0.000000e+00
-8.741000e+04 4.380000e+03 0.000000e+00 4.380000e+03 -1.743551e+05 0.000000e+00 0.000000e+00 0.000000e+00 0.000000e+00
-8.716924e+04 4.416217e+03 0.000000e+00 4.416217e+03 -1.831802e+05 0.000000e+00 0.000000e+00 0.000000e+00 0.000000e+00
-8.967300e+04 4.724919e+03 0.000000e+00 4.724919e+03 -1.914227e+05 0.000000e+00 0.000000e+00 0.000000e+00 0.000000e+00
-9.339794e+04 5.134307e+03 0.000000e+00 5.134307e+03 -2.000407e+05 0.000000e+00 0.000000e+00 0.000000e+00 0.000000e+00
-9.795591e+04 5.447708e+03 0.000000e+00 5.447708e+03 -2.088700e+05 0.000000e+00 0.000000e+00 0.000000e+00 0.000000e+00
-1.029393e+05 4.923333e+03 0.000000e+00 4.923333e+03 -2.164767e+05 0.000000e+00 0.000000e+00 0.000000e+00 0.000000e+00
-1.103600e+05 2.330834e+03 0.000000e+00 2.330834e+03 -2.211122e+05 0.000000e+00 0.000000e+00 0.000000e+00 0.000000e+00
-1.236853e+05 -1.291207e+03 0.000000e+00 -1.291207e+03 -2.219002e+05 0.000000e+00 0.000000e+00 0.000000e+00 0.000000e+00
-1.319189e+05 -1.788367e+03 0.000000e+00 -1.788367e+03 -2.203070e+05 0.000000e+00 0.000000e+00 0.000000e+00 0.000000e+00
-1.000244e+05 1.246134e+04 0.000000e+00 1.246134e+04 -1.564562e+05 0.000000e+00 0.000000e+00 0.000000e+00 0.000000e+00
-9.102960e+04 1.130091e+04 0.000000e+00 1.130091e+04 -1.551202e+05 0.000000e+00 0.000000e+00 0.000000e+00 0.000000e+00
-8.717350e+04 1.032103e+04 0.000000e+00 1.032103e+04 -1.636892e+05 0.000000e+00 0.000000e+00 0.000000e+00 0.000000e+00
-8.745882e+04 1.015521e+04 0.000000e+00 1.015521e+04 -1.721528e+05 0.000000e+00 0.000000e+00 0.000000e+00 0.000000e+00
-9.012110e+04 1.050374e+04 0.000000e+00 1.050374e+04 -1.808367e+05 0.000000e+00 0.000000e+00 0.000000e+00 0.000000e+00
-9.403506e+04 1.111472e+04 0.000000e+00 1.111472e+04 -1.905621e+05 0.000000e+00 0.000000e+00 0.000000e+00 0.000000e+00
-9.848650e+04 1.126787e+04 0.000000e+00 1.126787e+04 -2.008578e+05 0.000000e+00 0.000000e+00 0.000000e+00 0.000000e+00
-1.027490e+05 9.874709e+03 0.000000e+00 9.874709e+03 -2.109426e+05 0.000000e+00 0.000000e+00 0.000000e+00 0.000000e+00
-1.086075e+05 5.691146e+03 0.000000e+00 5.691146e+03 -2.209514e+05 0.000000e+00 0.000000e+00 0.000000e+00 0.000000e+00
-1.182599e+05 -1.785083e+02 0.000000e+00 -1.785083e+02 -2.267236e+05 0.000000e+00 0.000000e+00 0.000000e+00 0.000000e+00
-1.356956e+05 -5.840132e+03 0.000000e+00 -5.840132e+03 -2.407281e+05 0.000000e+00 0.000000e+00 0.000000e+00 0.000000e+00
-9.518205e+04 2.012200e+04 0.000000e+00 2.012200e+04 -1.359878e+05 0.000000e+00 0.000000e+00 0.000000e+00 0.000000e+00
-8.866140e+04 1.885598e+04 0.000000e+00 1.885598e+04 -1.344783e+05 0.000000e+00 0.000000e+00 0.000000e+00 0.000000e+00
-8.658817e+04 1.833061e+04 0.000000e+00 1.833061e+04 -1.394143e+05 0.000000e+00 0.000000e+00 0.000000e+00 0.000000e+00
-8.871789e+04 1.932689e+04 0.000000e+00 1.932689e+04 -1.454195e+05 0.000000e+00 0.000000e+00 0.000000e+00 0.000000e+00
-9.295820e+04 2.132391e+04 0.000000e+00 2.132391e+04 -1.530130e+05 0.000000e+00 0.000000e+00 0.000000e+00 0.000000e+00
-9.861133e+04 2.353399e+04 0.000000e+00 2.353399e+04 -1.620967e+05 0.000000e+00 0.000000e+00 0.000000e+00 0.000000e+00
-1.044200e+05 2.442217e+04 0.000000e+00 2.442217e+04 -1.706323e+05 0.000000e+00 0.000000e+00 0.000000e+00 0.000000e+00
-1.106630e+05 2.598913e+04 0.000000e+00 2.598913e+04 -1.812767e+05 0.000000e+00 0.000000e+00 0.000000e+00 0.000000e+00
-1.190528e+05 2.539239e+04 0.000000e+00 2.539239e+04 -1.961416e+05 0.000000e+00 0.000000e+00 0.000000e+00 0.000000e+00
-1.332482e+05 2.086525e+04 0.000000e+00 2.086525e+04 -2.142312e+05 0.000000e+00 0.000000e+00 0.000000e+00 0.000000e+00
-1.545678e+05 1.154693e+04 0.000000e+00 1.154693e+04 -2.415460e+05 0.000000e+00 0.000000e+00 0.000000e+00 0.000000e+00
-8.983895e+04 2.209924e+04 0.000000e+00 2.209924e+04 -1.166963e+05 0.000000e+00 0.000000e+00 0.000000e+00 0.000000e+00
-8.611333e+04 2.119272e+04 0.000000e+00 2.119272e+04 -1.152221e+05 0.000000e+00 0.000000e+00 0.000000e+00 0.000000e+00
-8.511842e+04 2.092556e+04 0.000000e+00 2.092556e+04 -1.155092e+05 0.000000e+00 0.000000e+00 0.000000e+00 0.000000e+00
-8.682945e+04 2.191983e+04 0.000000e+00 2.191983e+04 -1.147110e+05 0.000000e+00 0.000000e+00 0.000000e+00 0.000000e+00
-8.918325e+04 2.325303e+04 0.000000e+00 2.325303e+04 -1.131138e+05 0.000000e+00 0.000000e+00 0.000000e+00 0.000000e+00
-9.144201e+04 2.436226e+04 0.000000e+00 2.436226e+04 -1.102620e+05 0.000000e+00 0.000000e+00 0.000000e+00 0.000000e+00
-9.335166e+04 2.442676e+04 0.000000e+00 2.442676e+04 -1.060333e+05 0.000000e+00 0.000000e+00 0.000000e+00 0.000000e+00
-9.471361e+04 2.505438e+04 0.000000e+00 2.505438e+04 -1.013531e+05 0.000000e+00 0.000000e+00 0.000000e+00 0.000000e+00
-9.390609e+04 2.382848e+04 0.000000e+00 2.382848e+04 -9.328507e+04 0.000000e+00 0.000000e+00 0.000000e+00 0.000000e+00
-8.758491e+04 1.784928e+04 0.000000e+00 1.784928e+04 -7.919554e+04 0.000000e+00 0.000000e+00 0.000000e+00 0.000000e+00
-7.536562e+04 1.299600e+04 0.000000e+00 1.299600e+04 -7.081255e+04 0.000000e+00 0.000000e+00 0.000000e+00 0.000000e+00
-8.560934e+04 2.170630e+04 0.000000e+00 2.170630e+04 -1.032493e+05 0.000000e+00 0.000000e+00 0.000000e+00 0.000000e+00
-8.494963e+04 2.100590e+04 0.000000e+00 2.100590e+04 -1.025822e+05 0.000000e+00 0.000000e+00 0.000000e+00 0.000000e+00
-8.645745e+04 2.034975e+04 0.000000e+00 2.034975e+04 -1.019301e+05 0.000000e+00 0.000000e+00 0.000000e+00 0.000000e+00
-8.965179e+04 2.063127e+04 0.000000e+00 2.063127e+04 -1.004117e+05 0.000000e+00 0.000000e+00 0.000000e+00 0.000000e+00
-9.299043e+04 2.107459e+04 0.000000e+00 2.107459e+04 -9.796609e+04 0.000000e+00 0.000000e+00 0.000000e+00 0.000000e+00
-9.586415e+04 2.125579e+04 0.000000e+00 2.125579e+04 -9.448590e+04 0.000000e+00 0.000000e+00 0.000000e+00 0.000000e+00
-9.837296e+04 2.079010e+04 0.000000e+00 2.079010e+04 -8.977568e+04 0.000000e+00 0.000000e+00 0.000000e+00 0.000000e+00
-9.991604e+04 1.912121e+04 0.000000e+00 1.912121e+04 -8.349170e+04 0.000000e+00 0.000000e+00 0.000000e+00 0.000000e+00
-9.880502e+04 1.528216e+04 0.000000e+00 1.528216e+04 -7.529739e+04 0.000000e+00 0.000000e+00 0.000000e+00 0.000000e+00
-9.037592e+04 7.357077e+03 0.000000e+00 7.357077e+03 -6.802062e+04 0.000000e+00 0.000000e+00 0.000000e+00 0.000000e+00
-6.695228e+04 1.191130e+03 0.000000e+00 1.191130e+03 -5.801716e+04 0.000000e+00 0.000000e+00 0.000000e+00 0.000000e+00
-8.123428e+04 2.041609e+04 0.000000e+00 2.041609e+04 -9.239033e+04 0.000000e+00 0.000000e+00 0.000000e+00 0.000000e+00
-8.312665e+04 1.984955e+04 0.000000e+00 1.984955e+04 -9.226241e+04 0.000000e+00 0.000000e+00 0.000000e+00 0.000000e+00
-8.624689e+04 1.873284e+04 0.000000e+00 1.873284e+04 -9.066057e+04 0.000000e+00 0.000000e+00 0.000000e+00 0.000000e+00
-8.989488e+04 1.817661e+04 0.000000e+00 1.817661e+04 -8.838752e+04 0.000000e+00 0.000000e+00 0.000000e+00 0.000000e+00
-9.304012e+04 1.761880e+04 0.000000e+00 1.761880e+04 -8.547145e+04 0.000000e+00 0.000000e+00 0.000000e+00 0.000000e+00
-9.539662e+04 1.664858e+04 0.000000e+00 1.664858e+04 -8.170138e+04 0.000000e+00 0.000000e+00 0.000000e+00 0.000000e+00
-9.689299e+04 1.486851e+04 0.000000e+00 1.486851e+04 -7.705862e+04 0.000000e+00 0.000000e+00 0.000000e+00 0.000000e+00
-9.682151e+04 1.180468e+04 0.000000e+00 1.180468e+04 -7.170973e+04 0.000000e+00 0.000000e+00 0.000000e+00 0.000000e+00
-9.328556e+04 6.991447e+03 0.000000e+00 6.991447e+03 -6.642145e+04 0.000000e+00 0.000000e+00 0.000000e+00 0.000000e+00
-8.076235e+04 1.357539e+03 0.000000e+00 1.357539e+03 -6.231210e+04 0.000000e+00 0.000000e+00 0.000000e+00 0.000000e+00
-6.283543e+04 -1.013894e+03 0.000000e+00 -1.013894e+03 -5.805175e+04 0.000000e+00 0.000000e+00 0.000000e+00 0.000000e+00
-7.704796e+04 1.873905e+04 0.000000e+00 1.873905e+04 -8.354091e+04 0.000000e+00 0.000000e+00 0.000000e+00 0.000000e+00
-8.107934e+04 1.814651e+04 0.000000e+00 1.814651e+04 -8.386973e+04 0.000000e+00 0.000000e+00 0.000000e+00 0.000000e+00
-8.530877e+04 1.655033e+04 0.000000e+00 1.655033e+04 -8.186865e+04 0.000000e+00 0.000000e+00 0.000000e+00 0.000000e+00
-8.909113e+04 1.538624e+04 0.000000e+00 1.538624e+04 -7.956605e+04 0.000000e+00 0.000000e+00 0.000000e+00 0.000000e+00
-9.190609e+04 1.404918e+04 0.000000e+00 1.404918e+04 -7.672799e+04 0.000000e+00 0.000000e+00 0.000000e+00 0.000000e+00
-9.367046e+04 1.224218e+04 0.000000e+00 1.224218e+04 -7.333560e+04 0.000000e+00 0.000000e+00 0.000000e+00 0.000000e+00
-9.414805e+04 9.781726e+03 0.000000e+00 9.781726e+03 -6.957827e+04 0.000000e+00 0.000000e+00 0.000000e+00 0.000000e+00
-9.267127e+04 6.438854e+03 0.000000e+00 6.438854e+03 -6.582622e+04 0.000000e+00 0.000000e+00 0.000000e+00 0.000000e+00
-8.764533e+04 2.374902e+03 0.000000e+00 2.374902e+03 -6.260095e+04 0.000000e+00 0.000000e+00 0.000000e+00 0.000000e+00
-7.684717e+04 -6.808230e+02 0.000000e+00 -6.808230e+02 -6.055188e+04 0.000000e+00 0.000000e+00 0.000000e+00 0.000000e+00
-6.509439e+04 -1.562657e+03 0.000000e+00 -1.562657e+03 -5.848309e+04 0.000000e+00 0.000000e+00 0.000000e+00 0.000000e+00
-7.335170e+04 1.694223e+04 0.000000e+00 1.694223e+04 -7.686095e+04 0.000000e+00 0.000000e+00 0.000000e+00 0.000000e+00
-7.875317e+04 1.628028e+04 0.000000e+00 1.628028e+04 -7.735801e+04 0.000000e+00 0.000000e+00 0.000000e+00 0.000000e+00
-8.380348e+04 1.433143e+04 0.000000e+00 1.433143e+04 -7.530305e+04 0.000000e+00 0.000000e+00 0.000000e+00 0.000000e+00
-8.753855e+04 1.267961e+04 0.000000e+00 1.267961e+04 -7.313755e+04 0.000000e+00 0.000000e+00 0.000000e+00 0.000000e+00
-8.999705e+04 1.082653e+04 0.000000e+00 1.082653e+04 -7.065833e+04 0.000000e+00 0.000000e+00 0.000000e+00 0.000000e+00
-9.124365e+04 8.658577e+03 0.000000e+00 8.658577e+03 -6.799745e+04 0.000000e+00 0.000000e+00 0.000000e+00 0.000000e+00
-9.100649e+04 6.041634e+03 0.000000e+00 6.041634e+03 -6.529905e+04 0.000000e+00 0.000000e+00 0.000000e+00 0.000000e+00
-8.875768e+04 3.008179e+03 0.000000e+00 3.008179e+03 -6.280330e+04 0.000000e+00 0.000000e+00 0.000000e+00 0.000000e+00
-8.384578e+04 8.208199e+01 0.000000e+00 8.208199e+01 -6.096275e+04 0.000000e+00 0.000000e+00 0.000000e+00 0.000000e+00
-7.564913e+04 -1.363440e+03 0.000000e+00 -1.363440e+03 -6.004818e+04 0.000000e+00 0.000000e+00 0.000000e+00 0.000000e+00
-6.789591e+04 -1.422775e+03 0.000000e+00 -1.422775e+03 -5.895646e+04 0.000000e+00 0.000000e+00 0.000000e+00 0.000000e+00
-7.020006e+04 1.498346e+04 0.000000e+00 1.498346e+04 -7.193470e+04 0.000000e+00 0.000000e+00 0.000000e+00 0.000000e+00
-7.634147e+04 1.433418e+04 0.000000e+00 1.433418e+04 -7.239327e+04 0.000000e+00 0.000000e+00 0.000000e+00 0.000000e+00
-8.189057e+04 1.225612e+04 0.000000e+00 1.225612e+04 -7.047352e+04 0.000000e+00 0.000000e+00 0.000000e+00 0.000000e+00
-8.553877e+04 1.031945e+04 0.000000e+00 1.031945e+04 -6.858905e+04 0.000000e+00 0.000000e+00 0.000000e+00 0.000000e+00
-8.774552e+04 8.272093e+03 0.000000e+00 8.272093e+03 -6.663908e+04 0.000000e+00 0.000000e+00 0.000000e+00 0.000000e+00
-8.860062e+04 6.000529e+03 0.000000e+00 6.000529e+03 -6.466174e+04 0.000000e+00 0.000000e+00 0.000000e+00 0.000000e+00
-8.796991e+04 3.488093e+03 0.000000e+00 3.488093e+03 -6.275548e+04 0.000000e+00 0.000000e+00 0.000000e+00 0.000000e+00
-8.564293e+04 9.722977e+02 0.000000e+00 9.722977e+02 -6.118086e+04 0.000000e+00 0.000000e+00 0.000000e+00 0.000000e+00
-8.158662e+04 -9.709998e+02 0.000000e+00 -9.709998e+02 -6.022341e+04 0.000000e+00 0.000000e+00 0.000000e+00 0.000000e+00
-7.572806e+04 -1.490641e+03 0.000000e+00 -1.490641e+03 -5.988842e+04 0.000000e+00 0.000000e+00 0.000000e+00 0.000000e+00
-7.062303e+04 -1.227265e+03 0.000000e+00 -1.227265e+03 -5.925946e+04 0.000000e+00 0.000000e+00 0.000000e+00 0.000000e+00
-6.791345e+04 1.306044e+04 0.000000e+00 1.306044e+04 -6.850944e+04 0.000000e+00 0.000000e+00 0.000000e+00 0.000000e+00
-7.409032e+04 1.244085e+04 0.000000e+00 1.244085e+04 -6.887105e+04 0.000000e+00 0.000000e+00 0.000000e+00 0.000000e+00
-7.979363e+04 1.042704e+04 0.000000e+00 1.042704e+04 -6.711184e+04 0.000000e+00 0.000000e+00 0.000000e+00 0.000000e+00
-8.334805e+04 8.400444e+03 0.000000e+00 8.400444e+03 -6.551554e+04 0.000000e+00 0.000000e+00 0.000000e+00 0.000000e+00
-8.535711e+04 6.298920e+03 0.000000e+00 6.298920e+03 -6.398026e+04 0.000000e+00 0.000000e+00 0.000000e+00 0.000000e+00
-8.599418e+04 4.066970e+03 0.000000e+00 4.066970e+03 -6.248447e+04 0.000000e+00 0.000000e+00 0.000000e+00 0.000000e+00
-8.529908e+04 1.822779e+03 0.000000e+00 1.822779e+03 -6.119952e+04 0.000000e+00 0.000000e+00 0.000000e+00 0.000000e+00
-8.336179e+04 -1.235843e+02 0.000000e+00 -1.235843e+02 -6.030203e+04 0.000000e+00 0.000000e+00 0.000000e+00 0.000000e+00
-8.034645e+04 -1.363067e+03 0.000000e+00 -1.363067e+03 -5.987361e+04 0.000000e+00 0.000000e+00 0.000000e+00 0.000000e+00
-7.633230e+04 -1.410149e+03 0.000000e+00 -1.410149e+03 -5.982727e+04 0.000000e+00 0.000000e+00 0.000000e+00 0.000000e+00
-7.304634e+04 -1.014887e+03 0.000000e+00 -1.014887e+03 -5.947621e+04 0.000000e+00 0.000000e+00 0.000000e+00 0.000000e+00
-6.634609e+04 1.125166e+04 0.000000e+00 1.125166e+04 -6.629879e+04 0.000000e+00 0.000000e+00 0.000000e+00 0.000000e+00
-7.210912e+04 1.063825e+04 0.000000e+00 1.063825e+04 -6.645688e+04 0.000000e+00 0.000000e+00 0.000000e+00 0.000000e+00
-7.763395e+04 8.756996e+03 0.000000e+00 8.756996e+03 -6.484563e+04 0.000000e+00 0.000000e+00 0.000000e+00 0.000000e+00
-8.110200e+04 6.788456e+03 0.000000e+00 6.788456e+03 -6.346543e+04 0.000000e+00 0.000000e+00 0.000000e+00 0.000000e+00
-8.299377e+04 4.756735e+03 0.000000e+00 4.756735e+03 -6.221018e+04 0.000000e+00 0.000000e+00 0.000000e+00 0.000000e+00
-8.359473e+04 2.709729e+03 0.000000e+00 2.709729e+03 -6.110310e+04 0.000000e+00 0.000000e+00 0.000000e+00 0.000000e+00
-8.312234e+04 8.304911e+02 0.000000e+00 8.304911e+02 -6.029450e+04 0.000000e+00 0.000000e+00 0.000000e+00 0.000000e+00
-8.175791e+04 -6.303475e+02 0.000000e+00 -6.303475e+02 -5.983279e+04 0.000000e+00 0.000000e+00 0.000000e+00 0.000000e+00
-7.970588e+04 -1.413505e+03 0.000000e+00 -1.413505e+03 -5.971153e+04 0.000000e+00 0.000000e+00 0.000000e+00 0.000000e+00
-7.712205e+04 -1.239560e+03 0.000000e+00 -1.239560e+03 -5.981090e+04 0.000000e+00 0.000000e+00 0.000000e+00 0.000000e+00
-7.510969e+04 -8.171976e+02 0.000000e+00 -8.171976e+02 -5.964620e+04 0.000000e+00 0.000000e+00 0.000000e+00 0.000000e+00
-6.515583e+04 9.412422e+03 0.000000e+00 9.412422e+03 -6.499191e+04 0.000000e+00 0.000000e+00 0.000000e+00 0.000000e+00
-7.033594e+04 8.853337e+03 0.000000e+00 8.853337e+03 -6.493045e+04 0.000000e+00 0.000000e+00 0.000000e+00 0.000000e+00
-7.559273e+04 7.198298e+03 0.000000e+00 7.198298e+03 -6.340406e+04 0.000000e+00 0.000000e+00 0.000000e+00 0.000000e+00
-7.895864e+04 5.395853e+03 0.000000e+00 5.395853e+03 -6.215155e+04 0.000000e+00 0.000000e+00 0.000000e+00 0.000000e+00
-8.081586e+04 3.546710e+03 0.000000e+00 3.546710e+03 -6.107953e+04 0.000000e+00 0.000000e+00 0.000000e+00 0.000000e+00
-8.154090e+04 1.790131e+03 0.000000e+00 1.790131e+03 -6.027341e+04 0.000000e+00 0.000000e+00 0.000000e+00 0.000000e+00
-8.141731e+04 2.913319e+02 0.000000e+00 2.913319e+02 -5.977871e+04 0.000000e+00 0.000000e+00 0.000000e+00 0.000000e+00
-8.063306e+04 -7.911381e+02 0.000000e+00 -7.911381e+02 -5.958161e+04 0.000000e+00 0.000000e+00 0.000000e+00 0.000000e+00
-7.940656e+04 -1.285321e+03 0.000000e+00 -1.285321e+03 -5.963949e+04 0.000000e+00 0.000000e+00 0.000000e+00 0.000000e+00
-7.791618e+04 -1.028919e+03 0.000000e+00 -1.028919e+03 -5.980436e+04 0.000000e+00 0.000000e+00 0.000000e+00 0.000000e+00
-7.681320e+04 -6.378332e+02 0.000000e+00 -6.378332e+02 -5.976709e+04 0.000000e+00 0.000000e+00 0.000000e+00 0.000000e+00
-6.432380e+04 7.504388e+03 0.000000e+00 7.504388e+03 -6.424004e+04 0.000000e+00 0.000000e+00 0.000000e+00 0.000000e+00
-6.886221e+04 7.026501e+03 0.000000e+00 7.026501e+03 -6.401747e+04 0.000000e+00 0.000000e+00 0.000000e+00 0.000000e+00
-7.379499e+04 5.687877e+03 0.000000e+00 5.687877e+03 -6.251362e+04 0.000000e+00 0.000000e+00 0.000000e+00 0.000000e+00
-7.704958e+04 4.135155e+03 0.000000e+00 4.135155e+03 -6.131678e+04 0.000000e+00 0.000000e+00 0.000000e+00 0.000000e+00
-7.895292e+04 2.589367e+03 0.000000e+00 2.589367e+03 -6.039972e+04 0.000000e+00 0.000000e+00 0.000000e+00 0.000000e+00
-7.988857e+04 1.180394e+03 0.000000e+00 1.180394e+03 -5.980134e+04 0.000000e+00 0.000000e+00 0.000000e+00 0.000000e+00
-8.012095e+04 2.682237e+01 0.000000e+00 2.682237e+01 -5.950607e+04 0.000000e+00 0.000000e+00 0.000000e+00 0.000000e+00
-7.985130e+04 -7.566755e+02 0.000000e+00 -7.566755e+02 -5.947084e+04 0.000000e+00 0.000000e+00 0.000000e+00 0.000000e+00
-7.929209e+04 -1.063932e+03 0.000000e+00 -1.063932e+03 -5.961746e+04 0.000000e+00 0.000000e+00 0.000000e+00 0.000000e+00
-7.861717e+04 -8.040833e+02 0.000000e+00 -8.040833e+02 -5.981104e+04 0.000000e+00 0.000000e+00 0.000000e+00 0.000000e+00
-7.816668e+04 -4.787792e+02 0.000000e+00 -4.787792e+02 -5.986324e+04 0.000000e+00 0.000000e+00 0.000000e+00 0.000000e+00
-6.375113e+04 5.581651e+03 0.000000e+00 5.581651e+03 -6.379811e+04 0.000000e+00 0.000000e+00 0.000000e+00 0.000000e+00
-6.773148e+04 5.208973e+03 0.000000e+00 5.208973e+03 -6.347075e+04 0.000000e+00 0.000000e+00 0.000000e+00 0.000000e+00
-7.231277e+04 4.190320e+03 0.000000e+00 4.190320e+03 -6.198852e+04 0.000000e+00 0.000000e+00 0.000000e+00 0.000000e+00
-7.549353e+04 2.988802e+03 0.000000e+00 2.988802e+03 -6.083261e+04 0.000000e+00 0.000000e+00 0.000000e+00 0.000000e+00
-7.748396e+04 1.811141e+03 0.000000e+00 1.811141e+03 -6.002808e+04 0.000000e+00 0.000000e+00 0.000000e+00 0.000000e+00
-7.862518e+04 7.629191e+02 0.000000e+00 7.629191e+02 -5.955538e+04 0.000000e+00 0.000000e+00 0.000000e+00 0.000000e+00
-7.917227e+04 -7.117083e+01 0.000000e+00 -7.117083e+01 -5.938102e+04 0.000000e+00 0.000000e+00 0.000000e+00 0.000000e+00
-7.932039e+04 -6.155932e+02 0.000000e+00 -6.155932e+02 -5.943786e+04 0.000000e+00 0.000000e+00 0.000000e+00 0.000000e+00
-7.927102e+04 -8.040395e+02 0.000000e+00 -8.040395e+02 -5.962430e+04 0.000000e+00 0.000000e+00 0.000000e+00 0.000000e+00
-7.917462e+04 -5.880797e+02 0.000000e+00 -5.880797e+02 -5.983058e+04 0.000000e+00 0.000000e+00 0.000000e+00 0.000000e+00
-7.917602e+04 -3.407812e+02 0.000000e+00 -3.407812e+02 -5.993654e+04 0.000000e+00 0.000000e+00 0.000000e+00 0.000000e+00
-6.333329e+04 3.641511e+03 0.000000e+00 3.641511e+03 -6.353524e+04 0.000000e+00 0.000000e+00 0.000000e+00 0.000000e+00
-6.693139e+04 3.382145e+03 0.000000e+00 3.382145e+03 -6.313816e+04 0.000000e+00 0.000000e+00 0.000000e+00 0.000000e+00
-7.122934e+04 2.709453e+03 0.000000e+00 2.709453e+03 -6.168302e+04 0.000000e+00 0.000000e+00 0.000000e+00 0.000000e+00
-7.435893e+04 1.917744e+03 0.000000e+00 1.917744e+03 -6.057374e+04 0.000000e+00 0.000000e+00 0.000000e+00 0.000000e+00
-7.643311e+04 1.139865e+03 0.000000e+00 1.139865e+03 -5.984646e+04 0.000000e+00 0.000000e+00 0.000000e+00 0.000000e+00
-7.774291e+04 4.606469e+02 0.000000e+00 4.606469e+02 -5.945111e+04 0.000000e+00 0.000000e+00 0.000000e+00 0.000000e+00
-7.852627e+04 -7.938100e+01 0.000000e+00 -7.938100e+01 -5.933875e+04 0.000000e+00 0.000000e+00 0.000000e+00 0.000000e+00
-7.897709e+04 -4.228529e+02 0.000000e+00 -4.228529e+02 -5.943431e+04 0.000000e+00 0.000000e+00 0.000000e+00 0.000000e+00
-7.928098e+04 -5.329232e+02 0.000000e+00 -5.329232e+02 -5.963911e+04 0.000000e+00 0.000000e+00 0.000000e+00 0.000000e+00
-7.957259e+04 -3.844676e+02 0.000000e+00 -3.844676e+02 -5.984538e+04 0.000000e+00 0.000000e+00 0.000000e+00 0.000000e+00
-7.987606e+04 -2.190176e+02 0.000000e+00 -2.190176e+02 -5.998904e+04 0.000000e+00 0.000000e+00 0.000000e+00 0.000000e+00
-6.306397e+04 1.674127e+03 0.000000e+00 1.674127e+03 -6.322201e+04 0.000000e+00 0.000000e+00 0.000000e+00 0.000000e+00
-6.648060e+04 1.594188e+03 0.000000e+00 1.594188e+03 -6.282709e+04 0.000000e+00 0.000000e+00 0.000000e+00 0.000000e+00
-7.059204e+04 1.296168e+03 0.000000e+00 1.296168e+03 -6.145875e+04 0.000000e+00 0.000000e+00 0.000000e+00 0.000000e+00
-7.368855e+04 9.269558e+02 0.000000e+00 9.269558e+02 -6.043768e+04 0.000000e+00 0.000000e+00 0.000000e+00 0.000000e+00
-7.581134e+04 5.486750e+02 0.000000e+00 5.486750e+02 -5.977199e+04 0.000000e+00 0.000000e+00 0.000000e+00 0.000000e+00
-7.722749e+04 2.198144e+02 0.000000e+00 2.198144e+02 -5.942408e+04 0.000000e+00 0.000000e+00 0.000000e+00 0.000000e+00
-7.814984e+04 -4.579641e+01 0.000000e+00 -4.579641e+01 -5.933508e+04 0.000000e+00 0.000000e+00 0.000000e+00 0.000000e+00
-7.878346e+04 -2.131107e+02 0.000000e+00 -2.131107e+02 -5.944381e+04 0.000000e+00 0.000000e+00 0.000000e+00 0.000000e+00
-7.929502e+04 -2.639774e+02 0.000000e+00 -2.639774e+02 -5.965280e+04 0.000000e+00 0.000000e+00 0.000000e+00 0.000000e+00
-7.981066e+04 -1.910061e+02 0.000000e+00 -1.910061e+02 -5.985356e+04 0.000000e+00 0.000000e+00 0.000000e+00 0.000000e+00
-8.028141e+04 -1.086241e+02 0.000000e+00 -1.086241e+02 -6.002495e+04 0.000000e+00 0.000000e+00 0.000000e+00 0.000000e+00
-6.286711e+04 3.272282e+02 0.000000e+00 3.272282e+02 -6.279914e+04 0.000000e+00 0.000000e+00 0.000000e+00 0.000000e+00
-6.630100e+04 3.990678e+02 0.000000e+00 3.990678e+02 -6.253159e+04 0.000000e+00 0.000000e+00 0.000000e+00 0.000000e+00
-7.038036e+04 3.624196e+02 0.000000e+00 3.624196e+02 -6.134541e+04 0.000000e+00 0.000000e+00 0.000000e+00 0.000000e+00
-7.347045e+04 2.580509e+02 0.000000e+00 2.580509e+02 -6.040067e+04 0.000000e+00 0.000000e+00 0.000000e+00 0.000000e+00
-7.560920e+04 1.268846e+02 0.000000e+00 1.268846e+02 -5.975380e+04 0.000000e+00 0.000000e+00 0.000000e+00 0.000000e+00
-7.706039e+04 1.332057e+01 0.000000e+00 1.332057e+01 -5.942101e+04 0.000000e+00 0.000000e+00 0.000000e+00 0.000000e+00
-7.802595e+04 -8.407491e+01 0.000000e+00 -8.407491e+01 -5.933505e+04 0.000000e+00 0.000000e+00 0.000000e+00 0.000000e+00
-7.871952e+04 -1.496296e+02 0.000000e+00 -1.496296e+02 -5.944587e+04 0.000000e+00 0.000000e+00 0.000000e+00 0.000000e+00
-7.929919e+04 -1.671991e+02 0.000000e+00 -1.671991e+02 -5.965431e+04 0.000000e+00 0.000000e+00 0.000000e+00 0.000000e+00
-7.989005e+04 -1.420563e+02 0.000000e+00 -1.420563e+02 -5.985355e+04 0.000000e+00 0.000000e+00 0.000000e+00 0.000000e+00
-8.041124e+04 -1.097348e+02 0.000000e+00 -1.097348e+02 -6.003982e+04 0.000000e+00 0.000000e+00 0.000000e+00 0.000000e+00
</DataArray>
<DataArray Name="vol_eps" type="Float64" NumberOfComponents="1" format="ascii">
-9.462684e-03
-8.399871e-03
-8.013225e-03
-7.875443e-03
-8.058545e-03
-8.621372e-03
-9.590725e-03
-1.086509e-02
-1.243307e-02
-1.415601e-02
-1.481643e-02
-8.741968e-03
-7.777039e-03
-7.461421e-03
-7.379590e-03
-7.590602e-03
-8.133524e-03
-8.959938e-03
-1.002386e-02
-1.149654e-02
-1.329302e-02
-1.602446e-02
-7.058450e-03
-6.352379e-03
-6.191319e-03
-6.251339e-03
-6.409534e-03
-6.639181e-03
-6.946084e-03
-7.411623e-03
-8.246102e-03
-9.807013e-03
-1.300207e-02
-5.354552e-03
-4.968221e-03
-4.842283e-03
-4.714926e-03
-4.388137e-03
-3.821825e-03
-3.132783e-03
-2.138002e-03
-5.927219e-04
1.887113e-03
4.284407e-03
-4.140166e-03
-4.114537e-03
-4.277039e-03
-4.413327e-03
-4.469033e-03
-4.418720e-03
-4.261130e-03
-3.942903e-03
-3.360564e-03
-2.418621e-03
-2.571965e-04
-3.131299e-03
-3.363032e-03
-3.609854e-03
-3.738683e-03
-3.768940e-03
-3.682553e-03
-3.476997e-03
-3.126110e-03
-2.562530e-03
-1.477031e-03
-2.526043e-05
-2.314047e-03
-2.730633e-03
-3.012207e-03
-3.141470e-03
-3.154882e-03
-3.056816e-03
-2.844405e-03
-2.499275e-03
-1.949595e-03
-1.104335e-03
-2.137819e-04
-1.703282e-03
-2.205188e-03
-2.507508e-03
-2.636187e-03
-2.645804e-03
-2.556191e-03
-2.358973e-03
-2.037422e-03
-1.585350e-03
-9.904453e-04
-4.267498e-04
-1.254778e-03
-1.769170e-03
-2.078011e-03
-2.211069e-03
-2.232077e-03
-2.154378e-03
-1.980727e-03
-1.719610e-03
-1.386027e-03
-9.832868e-04
-6.195168e-04
-9.348255e-04
-1.419524e-03
-1.720764e-03
-1.860564e-03
-1.891283e-03
-1.829879e-03
-1.697102e-03
-1.509529e-03
-1.280772e-03
-1.017115e-03
-7.864939e-04
-7.235856e-04
-1.148574e-03
-1.430071e-03
-1.572569e-03
-1.614072e-03
-1.578882e-03
-1.493224e-03
-1.372002e-03
-1.227712e-03
-1.066132e-03
-9.276078e-04
-5.880441e-04
-9.454971e-04
-1.203072e-03
-1.342047e-03
-1.394422e-03
-1.388709e-03
-1.346016e-03
-1.280911e-03
-1.203230e-03
-1.115896e-03
-1.042688e-03
-5.082248e-04
-8.026838e-04
-1.030527e-03
-1.162220e-03
-1.225801e-03
-1.247295e-03
-1.241758e-03
-1.221934e-03
-1.194417e-03
-1.162098e-03
-1.136061e-03
-4.650712e-04
-7.077718e-04
-9.035880e-04
-1.029275e-03
-1.103220e-03
-1.146516e-03
-1.170945e-03
-1.184671e-03
-1.193673e-03
-1.200947e-03
-1.208202e-03
-4.379086e-04
-6.441902e-04
-8.185429e-04
-9.408507e-04
-1.022769e-03
-1.080477e-03
-1.125050e-03
-1.161601e-03
-1.195419e-03
-1.228614e-03
-1.258407e-03
-4.084585e-04
-6.003001e-04
-7.675944e-04
-8.910724e-04
-9.790588e-04
-1.044957e-03
-1.099507e-03
-1.149084e-03
-1.197106e-03
-1.244969e-03
-1.287520e-03
-3.709914e-04
-5.716454e-04
-7.486885e-04
-8.756051e-04
-9.660278e-04
-1.034364e-03
-1.091105e-03
-1.144792e-03
-1.197390e-03
-1.250233e-03
-1.297098e-03
</DataArray>
</PointData>
</Piece>
</UnstructuredGrid>
</VTKFile>
