<?xml version="1.0"?>
<VTKFile type="UnstructuredGrid" version="0.1">
<UnstructuredGrid>
<FieldData>
<DataArray Name="TIME" type="Float64" format="ascii" NumberOfTuples="1">
0.000000e+00
</DataArray>
</FieldData>
<FieldData>
<DataArray Name="CYCLE" type="Int32" format="ascii" NumberOfTuples="1">
0
</DataArray>
</FieldData>
<Piece NumberOfPoints="187" NumberOfCells="160">
<Points>
<DataArray NumberOfComponents="3" type="Float64" format="ascii">
0.000000e+00 0.000000e+00 0.000000e+00
0.000000e+00 1.974802e-01 0.000000e+00
0.000000e+00 3.941046e-01 0.000000e+00
0.000000e+00 5.899971e-01 0.000000e+00
0.000000e+00 7.853078e-01 0.000000e+00
0.000000e+00 9.802149e-01 0.000000e+00
0.000000e+00 1.174962e+00 0.000000e+00
0.000000e+00 1.369902e+00 0.000000e+00
0.000000e+00 1.565346e+00 0.000000e+00
0.000000e+00 1.761677e+00 0.000000e+00
0.000000e+00 1.958375e+00 0.000000e+00
2.250000e-01 0.000000e+00 0.000000e+00
2.261901e-01 1.976802e-01 0.000000e+00
2.272171e-01 3.945667e-01 0.000000e+00
2.280507e-01 5.908118e-01 0.000000e+00
2.286178e-01 7.865233e-01 0.000000e+00
2.288653e-01 9.818099e-01 0.000000e+00
2.287146e-01 1.176770e+00 0.000000e+00
2.281180e-01 1.371582e+00 0.000000e+00
2.270161e-01 1.566518e+00 0.000000e+00
2.255892e-01 1.761839e+00 0.000000e+00
2.250000e-01 1.958375e+00 0.000000e+00
4.500000e-01 0.000000e+00 0.000000e+00
4.522046e-01 1.982157e-01 0.000000e+00
4.540261e-01 3.959146e-01 0.000000e+00
4.554647e-01 5.931659e-01 0.000000e+00
4.564950e-01 7.899874e-01 0.000000e+00
4.570864e-01 9.863565e-01 0.000000e+00
4.573169e-01 1.182203e+00 0.000000e+00
4.569569e-01 1.377399e+00 0.000000e+00
4.558541e-01 1.571811e+00 0.000000e+00
4.540457e-01 1.765314e+00 0.000000e+00
4.500000e-01 1.958375e+00 0.000000e+00
6.750000e-01 0.000000e+00 0.000000e+00
6.777478e-01 1.988233e-01 0.000000e+00
6.798831e-01 3.975695e-01 0.000000e+00
6.815539e-01 5.963424e-01 0.000000e+00
6.828629e-01 7.952117e-01 0.000000e+00
6.838277e-01 9.941975e-01 0.000000e+00
6.844649e-01 1.193311e+00 0.000000e+00
6.845808e-01 1.392660e+00 0.000000e+00
6.841947e-01 1.592320e+00 0.000000e+00
6.828288e-01 1.792332e+00 0.000000e+00
6.787188e-01 1.992929e+00 0.000000e+00
9.000000e-01 0.000000e+00 0.000000e+00
9.028702e-01 1.991271e-01 0.000000e+00
9.049006e-01 3.983144e-01 0.000000e+00
9.064141e-01 5.976132e-01 0.000000e+00
9.075580e-01 7.970278e-01 0.000000e+00
9.083624e-01 9.965810e-01 0.000000e+00
9.087967e-01 1.196319e+00 0.000000e+00
9.087458e-01 1.396251e+00 0.000000e+00
9.081409e-01 1.596411e+00 0.000000e+00
9.065056e-01 1.796790e+00 0.000000e+00
9.038467e-01 1.996795e+00 0.000000e+00
1.125000e+00 0.000000e+00 0.000000e+00
1.127792e+00 1.994110e-01 0.000000e+00
1.129614e+00 3.989207e-01 0.000000e+00
1.130948e+00 5.985470e-01 0.000000e+00
1.131935e+00 7.982975e-01 0.000000e+00
1.132582e+00 9.981852e-01 0.000000e+00
1.132862e+00 1.198222e+00 0.000000e+00
1.132712e+00 1.398411e+00 0.000000e+00
1.132016e+00 1.598734e+00 0.000000e+00
1.130727e+00 1.799027e+00 0.000000e+00
1.129129e+00 1.999116e+00 0.000000e+00
1.350000e+00 0.000000e+00 0.000000e+00
1.352553e+00 1.996234e-01 0.000000e+00
1.354159e+00 3.993638e-01 0.000000e+00
1.355332e+00 5.992167e-01 0.000000e+00
1.356171e+00 7.991814e-01 0.000000e+00
1.356699e+00 9.992591e-01 0.000000e+00
1.356886e+00 1.199449e+00 0.000000e+00
1.356686e+00 1.399742e+00 0.000000e+00
1.356090e+00 1.600073e+00 0.000000e+00
1.355186e+00 1.800331e+00 0.000000e+00
1.354213e+00 2.000412e+00 0.000000e+00
1.575000e+00 0.000000e+00 0.000000e+00
1.577219e+00 1.997714e-01 0.000000e+00
1.578623e+00 3.996649e-01 0.000000e+00
1.579643e+00 5.996636e-01 0.000000e+00
1.580367e+00 7.997555e-01 0.000000e+00
1.580804e+00 9.999380e-01 0.000000e+00
1.580933e+00 1.200207e+00 0.000000e+00
1.580756e+00 1.400530e+00 0.000000e+00
1.580321e+00 1.600843e+00 0.000000e+00
1.579728e+00 1.801072e+00 0.000000e+00
1.579153e+00 2.001173e+00 0.000000e+00
1.800000e+00 0.000000e+00 0.000000e+00
1.801849e+00 1.998598e-01 0.000000e+00
1.803058e+00 3.998514e-01 0.000000e+00
1.803946e+00 5.999364e-01 0.000000e+00
1.804571e+00 8.001012e-01 0.000000e+00
1.804936e+00 1.000340e+00 0.000000e+00
1.805045e+00 1.200638e+00 0.000000e+00
1.804931e+00 1.400958e+00 0.000000e+00
1.804649e+00 1.601249e+00 0.000000e+00
1.804287e+00 1.801466e+00 0.000000e+00
1.803972e+00 2.001589e+00 0.000000e+00
2.025000e+00 0.000000e+00 0.000000e+00
2.026483e+00 1.999154e-01 0.000000e+00
2.027508e+00 3.999589e-01 0.000000e+00
2.028275e+00 6.000851e-01 0.000000e+00
2.028809e+00 8.002841e-01 0.000000e+00
2.029124e+00 1.000545e+00 0.000000e+00
2.029237e+00 1.200844e+00 0.000000e+00
2.029189e+00 1.401148e+00 0.000000e+00
2.029030e+00 1.601421e+00 0.000000e+00
2.028833e+00 1.801636e+00 0.000000e+00
2.028690e+00 2.001782e+00 0.000000e+00
2.250000e+00 0.000000e+00 0.000000e+00
2.251151e+00 1.999449e-01 0.000000e+00
2.252003e+00 4.000050e-01 0.000000e+00
2.252650e+00 6.001443e-01 0.000000e+00
2.253104e+00 8.003545e-01 0.000000e+00
2.253380e+00 1.000615e+00 0.000000e+00
2.253504e+00 1.200902e+00 0.000000e+00
2.253507e+00 1.401187e+00 0.000000e+00
2.253438e+00 1.601448e+00 0.000000e+00
2.253355e+00 1.801664e+00 0.000000e+00
2.253322e+00 2.001834e+00 0.000000e+00
2.475000e+00 0.000000e+00 0.000000e+00
2.475870e+00 1.999544e-01 0.000000e+00
2.476557e+00 4.000118e-01 0.000000e+00
2.477084e+00 6.001498e-01 0.000000e+00
2.477462e+00 8.003532e-01 0.000000e+00
2.477705e+00 1.000601e+00 0.000000e+00
2.477831e+00 1.200871e+00 0.000000e+00
2.477870e+00 1.401140e+00 0.000000e+00
2.477860e+00 1.601391e+00 0.000000e+00
2.477849e+00 1.801612e+00 0.000000e+00
2.477880e+00 2.001804e+00 0.000000e+00
2.700000e+00 0.000000e+00 0.000000e+00
2.700640e+00 1.999552e-01 0.000000e+00
2.701167e+00 4.000027e-01 0.000000e+00
2.701580e+00 6.001284e-01 0.000000e+00
2.701884e+00 8.003164e-01 0.000000e+00
2.702089e+00 1.000547e+00 0.000000e+00
2.702208e+00 1.200799e+00 0.000000e+00
2.702264e+00 1.401054e+00 0.000000e+00
2.702288e+00 1.601297e+00 0.000000e+00
2.702315e+00 1.801523e+00 0.000000e+00
2.702376e+00 2.001734e+00 0.000000e+00
2.925000e+00 0.000000e+00 0.000000e+00
2.925448e+00 1.999526e-01 0.000000e+00
2.925828e+00 3.999890e-01 0.000000e+00
2.926131e+00 6.000991e-01 0.000000e+00
2.926361e+00 8.002689e-01 0.000000e+00
2.926522e+00 1.000481e+00 0.000000e+00
2.926622e+00 1.200718e+00 0.000000e+00
2.926680e+00 1.400961e+00 0.000000e+00
2.926718e+00 1.601200e+00 0.000000e+00
2.926757e+00 1.801430e+00 0.000000e+00
2.926824e+00 2.001657e+00 0.000000e+00
3.150000e+00 0.000000e+00 0.000000e+00
3.150285e+00 1.999486e-01 0.000000e+00
3.150531e+00 3.999764e-01 0.000000e+00
3.150730e+00 6.000742e-01 0.000000e+00
3.150883e+00 8.002299e-01 0.000000e+00
3.150993e+00 1.000428e+00 0.000000e+00
3.151066e+00 1.200651e+00 0.000000e+00
3.151112e+00 1.400885e+00 0.000000e+00
3.151146e+00 1.601121e+00 0.000000e+00
3.151182e+00 1.801356e+00 0.000000e+00
3.151235e+00 2.001593e+00 0.000000e+00
3.375000e+00 0.000000e+00 0.000000e+00
3.375140e+00 1.999480e-01 0.000000e+00
3.375260e+00 3.999729e-01 0.000000e+00
3.375358e+00 6.000647e-01 0.000000e+00
3.375434e+00 8.002116e-01 0.000000e+00
3.375490e+00 1.000400e+00 0.000000e+00
3.375528e+00 1.200616e+00 0.000000e+00
3.375554e+00 1.400844e+00 0.000000e+00
3.375573e+00 1.601078e+00 0.000000e+00
3.375594e+00 1.801315e+00 0.000000e+00
3.375623e+00 2.001559e+00 0.000000e+00
3.600000e+00 0.000000e+00 0.000000e+00
3.600000e+00 1.999607e-01 0.000000e+00
3.600000e+00 3.999873e-01 0.000000e+00
3.600000e+00 6.000769e-01 0.000000e+00
3.600000e+00 8.002208e-01 0.000000e+00
3.600000e+00 1.000407e+00 0.000000e+00
3.600000e+00 1.200619e+00 0.000000e+00
3.600000e+00 1.400845e+00 0.000000e+00
3.600000e+00 1.601079e+00 0.000000e+00
3.600000e+00 1.801316e+00 0.000000e+00
3.600000e+00 2.001563e+00 0.000000e+00
</DataArray>
</Points>
<Cells>
<DataArray Name="connectivity" type="Int32" format="ascii">
0 11 12 1
1 12 13 2
2 13 14 3
3 14 15 4
4 15 16 5
5 16 17 6
6 17 18 7
7 18 19 8
8 19 20 9
9 20 21 10
11 22 23 12
12 23 24 13
13 24 25 14
14 25 26 15
15 26 27 16
16 27 28 17
17 28 29 18
18 29 30 19
19 30 31 20
20 31 32 21
22 33 34 23
23 34 35 24
24 35 36 25
25 36 37 26
26 37 38 27
27 38 39 28
28 39 40 29
29 40 41 30
30 41 42 31
31 42 43 32
33 44 45 34
34 45 46 35
35 46 47 36
36 47 48 37
37 48 49 38
38 49 50 39
39 50 51 40
40 51 52 41
41 52 53 42
42 53 54 43
44 55 56 45
45 56 57 46
46 57 58 47
47 58 59 48
48 59 60 49
49 60 61 50
50 61 62 51
51 62 63 52
52 63 64 53
53 64 65 54
55 66 67 56
56 67 68 57
57 68 69 58
58 69 70 59
59 70 71 60
60 71 72 61
61 72 73 62
62 73 74 63
63 74 75 64
64 75 76 65
66 77 78 67
67 78 79 68
68 79 80 69
69 80 81 70
70 81 82 71
71 82 83 72
72 83 84 73
73 84 85 74
74 85 86 75
75 86 87 76
77 88 89 78
78 89 90 79
79 90 91 80
80 91 92 81
81 92 93 82
82 93 94 83
83 94 95 84
84 95 96 85
85 96 97 86
86 97 98 87
88 99 100 89
89 100 101 90
90 101 102 91
91 102 103 92
92 103 104 93
93 104 105 94
94 105 106 95
95 106 107 96
96 107 108 97
97 108 109 98
99 110 111 100
100 111 112 101
101 112 113 102
102 113 114 103
103 114 115 104
104 115 116 105
105 116 117 106
106 117 118 107
107 118 119 108
108 119 120 109
110 121 122 111
111 122 123 112
112 123 124 113
113 124 125 114
114 125 126 115
115 126 127 116
116 127 128 117
117 128 129 118
118 129 130 119
119 130 131 120
121 132 133 122
122 133 134 123
123 134 135 124
124 135 136 125
125 136 137 126
126 137 138 127
127 138 139 128
128 139 140 129
129 140 141 130
130 141 142 131
132 143 144 133
133 144 145 134
134 145 146 135
135 146 147 136
136 147 148 137
137 148 149 138
138 149 150 139
139 150 151 140
140 151 152 141
141 152 153 142
143 154 155 144
144 155 156 145
145 156 157 146
146 157 158 147
147 158 159 148
148 159 160 149
149 160 161 150
150 161 162 151
151 162 163 152
152 163 164 153
154 165 166 155
155 166 167 156
156 167 168 157
157 168 169 158
158 169 170 159
159 170 171 160
160 171 172 161
161 172 173 162
162 173 174 163
163 174 175 164
165 176 177 166
166 177 178 167
167 178 179 168
168 179 180 169
169 180 181 170
170 181 182 171
171 182 183 172
172 183 184 173
173 184 185 174
174 185 186 175
</DataArray>
<DataArray Name="offsets" type="Int32" format="ascii">
4
8
12
16
20
24
28
32
36
40
44
48
52
56
60
64
68
72
76
80
84
88
92
96
100
104
108
112
116
120
124
128
132
136
140
144
148
152
156
160
164
168
172
176
180
184
188
192
196
200
204
208
212
216
220
224
228
232
236
240
244
248
252
256
260
264
268
272
276
280
284
288
292
296
300
304
308
312
316
320
324
328
332
336
340
344
348
352
356
360
364
368
372
376
380
384
388
392
396
400
404
408
412
416
420
424
428
432
436
440
444
448
452
456
460
464
468
472
476
480
484
488
492
496
500
504
508
512
516
520
524
528
532
536
540
544
548
552
556
560
564
568
572
576
580
584
588
592
596
600
604
608
612
616
620
624
628
632
636
640
</DataArray>
<DataArray Name="types" type="UInt8" format="ascii">
9
9
9
9
9
9
9
9
9
9
9
9
9
9
9
9
9
9
9
9
9
9
9
9
9
9
9
9
9
9
9
9
9
9
9
9
9
9
9
9
9
9
9
9
9
9
9
9
9
9
9
9
9
9
9
9
9
9
9
9
9
9
9
9
9
9
9
9
9
9
9
9
9
9
9
9
9
9
9
9
9
9
9
9
9
9
9
9
9
9
9
9
9
9
9
9
9
9
9
9
9
9
9
9
9
9
9
9
9
9
9
9
9
9
9
9
9
9
9
9
9
9
9
9
9
9
9
9
9
9
9
9
9
9
9
9
9
9
9
9
9
9
9
9
9
9
9
9
9
9
9
9
9
9
9
9
9
9
9
9
</DataArray>
</Cells>
<PointData>
<DataArray Name="disp" type="Float64" NumberOfComponents="3" format="ascii">
0.000000e+00 0.000000e+00 0.000000e+00
0.000000e+00 -2.519789e-03 0.000000e+00
0.000000e+00 -5.895368e-03 0.000000e+00
0.000000e+00 -1.000292e-02 0.000000e+00
0.000000e+00 -1.469219e-02 0.000000e+00
0.000000e+00 -1.978513e-02 0.000000e+00
0.000000e+00 -2.503822e-02 0.000000e+00
0.000000e+00 -3.009817e-02 0.000000e+00
0.000000e+00 -3.465369e-02 0.000000e+00
0.000000e+00 -3.832338e-02 0.000000e+00
0.000000e+00 -4.162500e-02 0.000000e+00
0.000000e+00 0.000000e+00 0.000000e+00
1.190117e-03 -2.319805e-03 0.000000e+00
2.217087e-03 -5.433270e-03 0.000000e+00
3.050675e-03 -9.188138e-03 0.000000e+00
3.617829e-03 -1.347663e-02 0.000000e+00
3.865320e-03 -1.819009e-02 0.000000e+00
3.714639e-03 -2.323038e-02 0.000000e+00
3.118030e-03 -2.841819e-02 0.000000e+00
2.016088e-03 -3.348191e-02 0.000000e+00
5.891600e-04 -3.816096e-02 0.000000e+00
0.000000e+00 -4.162500e-02 0.000000e+00
0.000000e+00 0.000000e+00 0.000000e+00
2.204565e-03 -1.784256e-03 0.000000e+00
4.026084e-03 -4.085368e-03 0.000000e+00
5.464708e-03 -6.834104e-03 0.000000e+00
6.495011e-03 -1.001260e-02 0.000000e+00
7.086375e-03 -1.364348e-02 0.000000e+00
7.316937e-03 -1.779733e-02 0.000000e+00
6.956914e-03 -2.260132e-02 0.000000e+00
5.854051e-03 -2.818873e-02 0.000000e+00
4.045727e-03 -3.468572e-02 0.000000e+00
0.000000e+00 -4.162500e-02 0.000000e+00
0.000000e+00 0.000000e+00 0.000000e+00
2.747807e-03 -1.176687e-03 0.000000e+00
4.883111e-03 -2.430457e-03 0.000000e+00
6.553890e-03 -3.657542e-03 0.000000e+00
7.862865e-03 -4.788344e-03 0.000000e+00
8.827724e-03 -5.802460e-03 0.000000e+00
9.464908e-03 -6.688611e-03 0.000000e+00
9.580799e-03 -7.339761e-03 0.000000e+00
9.194668e-03 -7.680348e-03 0.000000e+00
7.828813e-03 -7.667643e-03 0.000000e+00
3.718796e-03 -7.070829e-03 0.000000e+00
0.000000e+00 0.000000e+00 0.000000e+00
2.870247e-03 -8.729242e-04 0.000000e+00
4.900524e-03 -1.685651e-03 0.000000e+00
6.414067e-03 -2.386830e-03 0.000000e+00
7.557963e-03 -2.972193e-03 0.000000e+00
8.362439e-03 -3.419053e-03 0.000000e+00
8.796709e-03 -3.681330e-03 0.000000e+00
8.745755e-03 -3.748948e-03 0.000000e+00
8.140900e-03 -3.588858e-03 0.000000e+00
6.505640e-03 -3.209697e-03 0.000000e+00
3.846675e-03 -3.205327e-03 0.000000e+00
0.000000e+00 0.000000e+00 0.000000e+00
2.791659e-03 -5.889590e-04 0.000000e+00
4.614213e-03 -1.079311e-03 0.000000e+00
5.948314e-03 -1.452931e-03 0.000000e+00
6.934677e-03 -1.702453e-03 0.000000e+00
7.582082e-03 -1.814861e-03 0.000000e+00
7.862459e-03 -1.778148e-03 0.000000e+00
7.711552e-03 -1.588794e-03 0.000000e+00
7.015917e-03 -1.265856e-03 0.000000e+00
5.727118e-03 -9.727331e-04 0.000000e+00
4.128682e-03 -8.840126e-04 0.000000e+00
0.000000e+00 0.000000e+00 0.000000e+00
2.552641e-03 -3.766288e-04 0.000000e+00
4.158999e-03 -6.362363e-04 0.000000e+00
5.332024e-03 -7.832818e-04 0.000000e+00
6.170959e-03 -8.186097e-04 0.000000e+00
6.698654e-03 -7.409459e-04 0.000000e+00
6.885835e-03 -5.505290e-04 0.000000e+00
6.686122e-03 -2.582511e-04 0.000000e+00
6.090202e-03 7.315088e-05 0.000000e+00
5.185568e-03 3.311979e-04 0.000000e+00
4.213134e-03 4.114978e-04 0.000000e+00
0.000000e+00 0.000000e+00 0.000000e+00
2.219000e-03 -2.285467e-04 0.000000e+00
3.622856e-03 -3.350913e-04 0.000000e+00
4.643182e-03 -3.364591e-04 0.000000e+00
5.367230e-03 -2.445349e-04 0.000000e+00
5.804042e-03 -6.196096e-05 0.000000e+00
5.932908e-03 2.064663e-04 0.000000e+00
5.756361e-03 5.295768e-04 0.000000e+00
5.321431e-03 8.430976e-04 0.000000e+00
4.728232e-03 1.071834e-03 0.000000e+00
4.153145e-03 1.172650e-03 0.000000e+00
0.000000e+00 0.000000e+00 0.000000e+00
1.848643e-03 -1.402327e-04 0.000000e+00
3.058140e-03 -1.486022e-04 0.000000e+00
3.945741e-03 -6.361469e-05 0.000000e+00
4.570823e-03 1.011476e-04 0.000000e+00
4.935645e-03 3.404641e-04 0.000000e+00
5.044623e-03 6.380021e-04 0.000000e+00
4.930953e-03 9.577257e-04 0.000000e+00
4.648849e-03 1.248883e-03 0.000000e+00
4.287036e-03 1.466376e-03 0.000000e+00
3.972026e-03 1.589038e-03 0.000000e+00
0.000000e+00 0.000000e+00 0.000000e+00
1.482965e-03 -8.458763e-05 0.000000e+00
2.507434e-03 -4.112734e-05 0.000000e+00
3.274736e-03 8.514256e-05 0.000000e+00
3.809121e-03 2.840597e-04 0.000000e+00
4.123609e-03 5.448672e-04 0.000000e+00
4.237080e-03 8.437896e-04 0.000000e+00
4.188672e-03 1.147576e-03 0.000000e+00
4.029509e-03 1.421123e-03 0.000000e+00
3.833123e-03 1.635746e-03 0.000000e+00
3.690052e-03 1.781895e-03 0.000000e+00
0.000000e+00 0.000000e+00 0.000000e+00
1.150628e-03 -5.505002e-05 0.000000e+00
2.003472e-03 4.963538e-06 0.000000e+00
2.650470e-03 1.443127e-04 0.000000e+00
3.103621e-03 3.545025e-04 0.000000e+00
3.380068e-03 6.149592e-04 0.000000e+00
3.503673e-03 9.015112e-04 0.000000e+00
3.507331e-03 1.186879e-03 0.000000e+00
3.438085e-03 1.447604e-03 0.000000e+00
3.355355e-03 1.664327e-03 0.000000e+00
3.321609e-03 1.833630e-03 0.000000e+00
0.000000e+00 0.000000e+00 0.000000e+00
8.702735e-04 -4.556412e-05 0.000000e+00
1.556951e-03 1.183599e-05 0.000000e+00
2.084198e-03 1.497789e-04 0.000000e+00
2.462399e-03 3.531583e-04 0.000000e+00
2.704622e-03 6.010787e-04 0.000000e+00
2.831023e-03 8.705236e-04 0.000000e+00
2.870150e-03 1.140126e-03 0.000000e+00
2.860265e-03 1.391056e-03 0.000000e+00
2.848848e-03 1.612110e-03 0.000000e+00
2.880315e-03 1.803619e-03 0.000000e+00
0.000000e+00 0.000000e+00 0.000000e+00
6.396633e-04 -4.476328e-05 0.000000e+00
1.166734e-03 2.649759e-06 0.000000e+00
1.579633e-03 1.283796e-04 0.000000e+00
1.883450e-03 3.163752e-04 0.000000e+00
2.088596e-03 5.467504e-04 0.000000e+00
2.207533e-03 7.987332e-04 0.000000e+00
2.264062e-03 1.053694e-03 0.000000e+00
2.288157e-03 1.297501e-03 0.000000e+00
2.314858e-03 1.523282e-03 0.000000e+00
2.376375e-03 1.734579e-03 0.000000e+00
0.000000e+00 0.000000e+00 0.000000e+00
4.483970e-04 -4.734953e-05 0.000000e+00
8.278736e-04 -1.097842e-05 0.000000e+00
1.131444e-03 9.916974e-05 0.000000e+00
1.361406e-03 2.689270e-04 0.000000e+00
1.521474e-03 4.814687e-04 0.000000e+00
1.622408e-03 7.176481e-04 0.000000e+00
1.680244e-03 9.607254e-04 0.000000e+00
1.717420e-03 1.199666e-03 0.000000e+00
1.757450e-03 1.430519e-03 0.000000e+00
1.823573e-03 1.657082e-03 0.000000e+00
0.000000e+00 0.000000e+00 0.000000e+00
2.844719e-04 -5.142304e-05 0.000000e+00
5.307117e-04 -2.357368e-05 0.000000e+00
7.297696e-04 7.423740e-05 0.000000e+00
8.827210e-04 2.298922e-04 0.000000e+00
9.929409e-04 4.280487e-04 0.000000e+00
1.065918e-03 6.513518e-04 0.000000e+00
1.112138e-03 8.854389e-04 0.000000e+00
1.145762e-03 1.121198e-03 0.000000e+00
1.181779e-03 1.355717e-03 0.000000e+00
1.235161e-03 1.593184e-03 0.000000e+00
0.000000e+00 0.000000e+00 0.000000e+00
1.396671e-04 -5.195533e-05 0.000000e+00
2.595239e-04 -2.706409e-05 0.000000e+00
3.579628e-04 6.471697e-05 0.000000e+00
4.341310e-04 2.116167e-04 0.000000e+00
4.898225e-04 4.002864e-04 0.000000e+00
5.282518e-04 6.155619e-04 0.000000e+00
5.537282e-04 8.440533e-04 0.000000e+00
5.732236e-04 1.077803e-03 0.000000e+00
5.940113e-04 1.314583e-03 0.000000e+00
6.232481e-04 1.558871e-03 0.000000e+00
0.000000e+00 0.000000e+00 0.000000e+00
0.000000e+00 -3.930541e-05 0.000000e+00
0.000000e+00 -1.267523e-05 0.000000e+00
0.000000e+00 7.684712e-05 0.000000e+00
0.000000e+00 2.208619e-04 0.000000e+00
0.000000e+00 4.064544e-04 0.000000e+00
0.000000e+00 6.188295e-04 0.000000e+00
0.000000e+00 8.454648e-04 0.000000e+00
0.000000e+00 1.078540e-03 0.000000e+00
0.000000e+00 1.316145e-03 0.000000e+00
0.000000e+00 1.562569e-03 0.000000e+00
</DataArray>
<DataArray Name="shear" type="Float64" NumberOfComponents="1" format="ascii">
1.428698e-02
1.980814e-02
2.826466e-02
3.519889e-02
4.026918e-02
4.302115e-02
4.270006e-02
3.869891e-02
3.086805e-02
2.180826e-02
1.780560e-02
1.449609e-02
1.941670e-02
2.698753e-02
3.334684e-02
3.840088e-02
4.200967e-02
4.378622e-02
4.277895e-02
3.858787e-02
3.052066e-02
2.342262e-02
1.529802e-02
1.835983e-02
2.343110e-02
2.877897e-02
3.471168e-02
4.158923e-02
4.919245e-02
5.697415e-02
6.482810e-02
6.828267e-02
6.784661e-02
1.560359e-02
1.614423e-02
1.717492e-02
1.947052e-02
2.310976e-02
2.820704e-02
3.447948e-02
4.215205e-02
5.109410e-02
5.762254e-02
6.210636e-02
1.531542e-02
1.418475e-02
1.232992e-02
1.175536e-02
1.178639e-02
1.203298e-02
1.214770e-02
1.189828e-02
1.050554e-02
6.213462e-03
1.603613e-03
1.449243e-02
1.277964e-02
1.027073e-02
9.424593e-03
9.132807e-03
8.960322e-03
8.658797e-03
8.023853e-03
6.593340e-03
3.555782e-03
8.819739e-04
1.306147e-02
1.120309e-02
8.691986e-03
7.891861e-03
7.539766e-03
7.281461e-03
6.954426e-03
6.371912e-03
5.152034e-03
2.968615e-03
1.231876e-03
1.127378e-02
9.607743e-03
7.459790e-03
6.794424e-03
6.485947e-03
6.279957e-03
6.035575e-03
5.519665e-03
4.482139e-03
2.824679e-03
1.580983e-03
9.364370e-03
8.059004e-03
6.447752e-03
5.948347e-03
5.738093e-03
5.621653e-03
5.430174e-03
4.970600e-03
4.121401e-03
2.872697e-03
1.991654e-03
7.511382e-03
6.606501e-03
5.531448e-03
5.211740e-03
5.126419e-03
5.092207e-03
4.945988e-03
4.576264e-03
3.921736e-03
3.007325e-03
2.399147e-03
5.830769e-03
5.266415e-03
4.643901e-03
4.526711e-03
4.578492e-03
4.623535e-03
4.544373e-03
4.282483e-03
3.812138e-03
3.179662e-03
2.782373e-03
4.404631e-03
4.081164e-03
3.814236e-03
3.896805e-03
4.079861e-03
4.209498e-03
4.213736e-03
4.060482e-03
3.754717e-03
3.361746e-03
3.130838e-03
3.232010e-03
3.063907e-03
3.066116e-03
3.328471e-03
3.634125e-03
3.855073e-03
3.942410e-03
3.890895e-03
3.728402e-03
3.530145e-03
3.429498e-03
2.260609e-03
2.195097e-03
2.414699e-03
2.841670e-03
3.258768e-03
3.564149e-03
3.727239e-03
3.764661e-03
3.721543e-03
3.669812e-03
3.661714e-03
1.435449e-03
1.460182e-03
1.899499e-03
2.473872e-03
2.980050e-03
3.348008e-03
3.570057e-03
3.677381e-03
3.722697e-03
3.772426e-03
3.826796e-03
7.127487e-04
8.764281e-04
1.565636e-03
2.250372e-03
2.808398e-03
3.214642e-03
3.475064e-03
3.626841e-03
3.725788e-03
3.835554e-03
3.926211e-03
2.517848e-04
6.216340e-04
1.449492e-03
2.172756e-03
2.748887e-03
3.167673e-03
3.442435e-03
3.610536e-03
3.727871e-03
3.856927e-03
3.958603e-03
</DataArray>
<DataArray Name="stress" type="Float64" NumberOfComponents="9" format="ascii">
-1.076918e+05 5.081585e+03 0.000000e+00 5.081585e+03 -1.781365e+05 0.000000e+00 0.000000e+00 0.000000e+00 0.000000e+00
-9.620313e+04 4.665120e+03 0.000000e+00 4.665120e+03 -1.766423e+05 0.000000e+00 0.000000e+00 0.000000e+00 0.000000e+00
-9.112649e+04 4.314737e+03 0.000000e+00 4.314737e+03 -1.869181e+05 0.000000e+00 0.000000e+00 0.000000e+00 0.000000e+00
-9.117299e+04 4.338163e+03 0.000000e+00 4.338163e+03 -1.952128e+05 0.000000e+00 0.000000e+00 0.000000e+00 0.000000e+00
-9.433429e+04 4.653667e+03 0.000000e+00 4.653667e+03 -2.036611e+05 0.000000e+00 0.000000e+00 0.000000e+00 0.000000e+00
-9.975845e+04 5.193797e+03 0.000000e+00 5.193797e+03 -2.117192e+05 0.000000e+00 0.000000e+00 0.000000e+00 0.000000e+00
-1.039988e+05 5.572144e+03 0.000000e+00 5.572144e+03 -2.209008e+05 0.000000e+00 0.000000e+00 0.000000e+00 0.000000e+00
-1.078477e+05 5.332944e+03 0.000000e+00 5.332944e+03 -2.292340e+05 0.000000e+00 0.000000e+00 0.000000e+00 0.000000e+00
-1.155268e+05 2.904596e+03 0.000000e+00 2.904596e+03 -2.347129e+05 0.000000e+00 0.000000e+00 0.000000e+00 0.000000e+00
-1.296671e+05 -1.168479e+03 0.000000e+00 -1.168479e+03 -2.362212e+05 0.000000e+00 0.000000e+00 0.000000e+00 0.000000e+00
-1.382844e+05 -1.751602e+03 0.000000e+00 -1.751602e+03 -2.342968e+05 0.000000e+00 0.000000e+00 0.000000e+00 0.000000e+00
-1.056234e+05 1.381069e+04 0.000000e+00 1.381069e+04 -1.673550e+05 0.000000e+00 0.000000e+00 0.000000e+00 0.000000e+00
-9.511576e+04 1.226630e+04 0.000000e+00 1.226630e+04 -1.656099e+05 0.000000e+00 0.000000e+00 0.000000e+00 0.000000e+00
-9.076251e+04 1.074159e+04 0.000000e+00 1.074159e+04 -1.746535e+05 0.000000e+00 0.000000e+00 0.000000e+00 0.000000e+00
-9.122168e+04 1.046430e+04 0.000000e+00 1.046430e+04 -1.832870e+05 0.000000e+00 0.000000e+00 0.000000e+00 0.000000e+00
-9.449505e+04 1.111183e+04 0.000000e+00 1.111183e+04 -1.928014e+05 0.000000e+00 0.000000e+00 0.000000e+00 0.000000e+00
-9.984841e+04 1.184366e+04 0.000000e+00 1.184366e+04 -2.032148e+05 0.000000e+00 0.000000e+00 0.000000e+00 0.000000e+00
-1.041997e+05 1.172023e+04 0.000000e+00 1.172023e+04 -2.142287e+05 0.000000e+00 0.000000e+00 0.000000e+00 0.000000e+00
-1.080256e+05 1.012758e+04 0.000000e+00 1.012758e+04 -2.248565e+05 0.000000e+00 0.000000e+00 0.000000e+00 0.000000e+00
-1.142319e+05 6.176924e+03 0.000000e+00 6.176924e+03 -2.354198e+05 0.000000e+00 0.000000e+00 0.000000e+00 0.000000e+00
-1.235429e+05 -4.615605e+02 0.000000e+00 -4.615605e+02 -2.402495e+05 0.000000e+00 0.000000e+00 0.000000e+00 0.000000e+00
-1.421606e+05 -6.541610e+03 0.000000e+00 -6.541610e+03 -2.565109e+05 0.000000e+00 0.000000e+00 0.000000e+00 0.000000e+00
-9.979948e+04 2.221791e+04 0.000000e+00 2.221791e+04 -1.432051e+05 0.000000e+00 0.000000e+00 0.000000e+00 0.000000e+00
-9.222745e+04 2.049451e+04 0.000000e+00 2.049451e+04 -1.412018e+05 0.000000e+00 0.000000e+00 0.000000e+00 0.000000e+00
-9.031527e+04 1.957682e+04 0.000000e+00 1.957682e+04 -1.466363e+05 0.000000e+00 0.000000e+00 0.000000e+00 0.000000e+00
-9.303847e+04 2.079863e+04 0.000000e+00 2.079863e+04 -1.538686e+05 0.000000e+00 0.000000e+00 0.000000e+00 0.000000e+00
-9.806950e+04 2.309495e+04 0.000000e+00 2.309495e+04 -1.624333e+05 0.000000e+00 0.000000e+00 0.000000e+00 0.000000e+00
-1.045581e+05 2.536722e+04 0.000000e+00 2.536722e+04 -1.719059e+05 0.000000e+00 0.000000e+00 0.000000e+00 0.000000e+00
-1.103770e+05 2.684096e+04 0.000000e+00 2.684096e+04 -1.809058e+05 0.000000e+00 0.000000e+00 0.000000e+00 0.000000e+00
-1.171011e+05 2.718793e+04 0.000000e+00 2.718793e+04 -1.928780e+05 0.000000e+00 0.000000e+00 0.000000e+00 0.000000e+00
-1.276707e+05 2.711363e+04 0.000000e+00 2.711363e+04 -2.076520e+05 0.000000e+00 0.000000e+00 0.000000e+00 0.000000e+00
-1.397368e+05 2.054573e+04 0.000000e+00 2.054573e+04 -2.257836e+05 0.000000e+00 0.000000e+00 0.000000e+00 0.000000e+00
-1.595171e+05 1.148162e+04 0.000000e+00 1.148162e+04 -2.556566e+05 0.000000e+00 0.000000e+00 0.000000e+00 0.000000e+00
-9.306119e+04 2.405133e+04 0.000000e+00 2.405133e+04 -1.200335e+05 0.000000e+00 0.000000e+00 0.000000e+00 0.000000e+00
-8.872214e+04 2.290626e+04 0.000000e+00 2.290626e+04 -1.180977e+05 0.000000e+00 0.000000e+00 0.000000e+00 0.000000e+00
-8.801561e+04 2.250476e+04 0.000000e+00 2.250476e+04 -1.182140e+05 0.000000e+00 0.000000e+00 0.000000e+00 0.000000e+00
-9.039291e+04 2.340899e+04 0.000000e+00 2.340899e+04 -1.177685e+05 0.000000e+00 0.000000e+00 0.000000e+00 0.000000e+00
-9.333609e+04 2.484313e+04 0.000000e+00 2.484313e+04 -1.159896e+05 0.000000e+00 0.000000e+00 0.000000e+00 0.000000e+00
-9.609524e+04 2.557913e+04 0.000000e+00 2.557913e+04 -1.127374e+05 0.000000e+00 0.000000e+00 0.000000e+00 0.000000e+00
-9.796541e+04 2.615166e+04 0.000000e+00 2.615166e+04 -1.083179e+05 0.000000e+00 0.000000e+00 0.000000e+00 0.000000e+00
-9.795441e+04 2.584913e+04 0.000000e+00 2.584913e+04 -1.022531e+05 0.000000e+00 0.000000e+00 0.000000e+00 0.000000e+00
-9.655436e+04 2.349359e+04 0.000000e+00 2.349359e+04 -9.316931e+04 0.000000e+00 0.000000e+00 0.000000e+00 0.000000e+00
-8.901971e+04 1.760047e+04 0.000000e+00 1.760047e+04 -8.009966e+04 0.000000e+00 0.000000e+00 0.000000e+00 0.000000e+00
-7.387279e+04 1.258122e+04 0.000000e+00 1.258122e+04 -7.173998e+04 0.000000e+00 0.000000e+00 0.000000e+00 0.000000e+00
-8.850706e+04 2.355820e+04 0.000000e+00 2.355820e+04 -1.057525e+05 0.000000e+00 0.000000e+00 0.000000e+00 0.000000e+00
-8.768447e+04 2.268476e+04 0.000000e+00 2.268476e+04 -1.048895e+05 0.000000e+00 0.000000e+00 0.000000e+00 0.000000e+00
-8.971213e+04 2.204325e+04 0.000000e+00 2.204325e+04 -1.042080e+05 0.000000e+00 0.000000e+00 0.000000e+00 0.000000e+00
-9.370835e+04 2.234394e+04 0.000000e+00 2.234394e+04 -1.025862e+05 0.000000e+00 0.000000e+00 0.000000e+00 0.000000e+00
-9.763662e+04 2.265644e+04 0.000000e+00 2.265644e+04 -9.995012e+04 0.000000e+00 0.000000e+00 0.000000e+00 0.000000e+00
-1.008755e+05 2.256494e+04 0.000000e+00 2.256494e+04 -9.605891e+04 0.000000e+00 0.000000e+00 0.000000e+00 0.000000e+00
-1.033665e+05 2.162815e+04 0.000000e+00 2.162815e+04 -9.092184e+04 0.000000e+00 0.000000e+00 0.000000e+00 0.000000e+00
-1.038067e+05 1.955898e+04 0.000000e+00 1.955898e+04 -8.400254e+04 0.000000e+00 0.000000e+00 0.000000e+00 0.000000e+00
-1.025707e+05 1.537956e+04 0.000000e+00 1.537956e+04 -7.581591e+04 0.000000e+00 0.000000e+00 0.000000e+00 0.000000e+00
-9.242717e+04 7.011292e+03 0.000000e+00 7.011292e+03 -6.835841e+04 0.000000e+00 0.000000e+00 0.000000e+00 0.000000e+00
-6.601243e+04 6.856108e+02 0.000000e+00 6.856108e+02 -5.767732e+04 0.000000e+00 0.000000e+00 0.000000e+00 0.000000e+00
-8.360051e+04 2.209663e+04 0.000000e+00 2.209663e+04 -9.404975e+04 0.000000e+00 0.000000e+00 0.000000e+00 0.000000e+00
-8.566634e+04 2.145704e+04 0.000000e+00 2.145704e+04 -9.391678e+04 0.000000e+00 0.000000e+00 0.000000e+00 0.000000e+00
-8.952690e+04 2.029487e+04 0.000000e+00 2.029487e+04 -9.232012e+04 0.000000e+00 0.000000e+00 0.000000e+00 0.000000e+00
-9.386927e+04 1.966924e+04 0.000000e+00 1.966924e+04 -8.982591e+04 0.000000e+00 0.000000e+00 0.000000e+00 0.000000e+00
-9.745910e+04 1.887215e+04 0.000000e+00 1.887215e+04 -8.658540e+04 0.000000e+00 0.000000e+00 0.000000e+00 0.000000e+00
-1.000234e+05 1.752548e+04 0.000000e+00 1.752548e+04 -8.245683e+04 0.000000e+00 0.000000e+00 0.000000e+00 0.000000e+00
-1.013170e+05 1.529667e+04 0.000000e+00 1.529667e+04 -7.755096e+04 0.000000e+00 0.000000e+00 0.000000e+00 0.000000e+00
-1.005009e+05 1.195561e+04 0.000000e+00 1.195561e+04 -7.192329e+04 0.000000e+00 0.000000e+00 0.000000e+00 0.000000e+00
-9.645180e+04 6.842752e+03 0.000000e+00 6.842752e+03 -6.651400e+04 0.000000e+00 0.000000e+00 0.000000e+00 0.000000e+00
-8.256125e+04 9.076312e+02 0.000000e+00 9.076312e+02 -6.224786e+04 0.000000e+00 0.000000e+00 0.000000e+00 0.000000e+00
-6.293047e+04 -1.492382e+03 0.000000e+00 -1.492382e+03 -5.763750e+04 0.000000e+00 0.000000e+00 0.000000e+00 0.000000e+00
-7.905345e+04 2.017135e+04 0.000000e+00 2.017135e+04 -8.470273e+04 0.000000e+00 0.000000e+00 0.000000e+00 0.000000e+00
-8.354902e+04 1.963631e+04 0.000000e+00 1.963631e+04 -8.506154e+04 0.000000e+00 0.000000e+00 0.000000e+00 0.000000e+00
-8.853409e+04 1.795491e+04 0.000000e+00 1.795491e+04 -8.292044e+04 0.000000e+00 0.000000e+00 0.000000e+00 0.000000e+00
-9.282870e+04 1.658912e+04 0.000000e+00 1.658912e+04 -8.036445e+04 0.000000e+00 0.000000e+00 0.000000e+00 0.000000e+00
-9.596820e+04 1.495769e+04 0.000000e+00 1.495769e+04 -7.730927e+04 0.000000e+00 0.000000e+00 0.000000e+00 0.000000e+00
-9.786352e+04 1.282342e+04 0.000000e+00 1.282342e+04 -7.371113e+04 0.000000e+00 0.000000e+00 0.000000e+00 0.000000e+00
-9.814930e+04 1.002061e+04 0.000000e+00 1.002061e+04 -6.980880e+04 0.000000e+00 0.000000e+00 0.000000e+00 0.000000e+00
-9.614233e+04 6.367348e+03 0.000000e+00 6.367348e+03 -6.589883e+04 0.000000e+00 0.000000e+00 0.000000e+00 0.000000e+00
-9.042904e+04 2.037548e+03 0.000000e+00 2.037548e+03 -6.255191e+04 0.000000e+00 0.000000e+00 0.000000e+00 0.000000e+00
-7.870219e+04 -1.086246e+03 0.000000e+00 -1.086246e+03 -6.046450e+04 0.000000e+00 0.000000e+00 0.000000e+00 0.000000e+00
-6.600788e+04 -1.874508e+03 0.000000e+00 -1.874508e+03 -5.824036e+04 0.000000e+00 0.000000e+00 0.000000e+00 0.000000e+00
-7.504182e+04 1.818860e+04 0.000000e+00 1.818860e+04 -7.747248e+04 0.000000e+00 0.000000e+00 0.000000e+00 0.000000e+00
-8.119917e+04 1.761040e+04 0.000000e+00 1.761040e+04 -7.816077e+04 0.000000e+00 0.000000e+00 0.000000e+00 0.000000e+00
-8.685410e+04 1.554576e+04 0.000000e+00 1.554576e+04 -7.597781e+04 0.000000e+00 0.000000e+00 0.000000e+00 0.000000e+00
-9.102802e+04 1.367494e+04 0.000000e+00 1.367494e+04 -7.362109e+04 0.000000e+00 0.000000e+00 0.000000e+00 0.000000e+00
-9.376416e+04 1.155598e+04 0.000000e+00 1.155598e+04 -7.095639e+04 0.000000e+00 0.000000e+00 0.000000e+00 0.000000e+00
-9.504238e+04 9.072788e+03 0.000000e+00 9.072788e+03 -6.815420e+04 0.000000e+00 0.000000e+00 0.000000e+00 0.000000e+00
-9.462151e+04 6.135107e+03 0.000000e+00 6.135107e+03 -6.534893e+04 0.000000e+00 0.000000e+00 0.000000e+00 0.000000e+00
-9.192585e+04 2.800726e+03 0.000000e+00 2.800726e+03 -6.275734e+04 0.000000e+00 0.000000e+00 0.000000e+00 0.000000e+00
-8.646597e+04 -2.925820e+02 0.000000e+00 -2.925820e+02 -6.086488e+04 0.000000e+00 0.000000e+00 0.000000e+00 0.000000e+00
-7.766870e+04 -1.697299e+03 0.000000e+00 -1.697299e+03 -5.998389e+04 0.000000e+00 0.000000e+00 0.000000e+00 0.000000e+00
-6.939450e+04 -1.647392e+03 0.000000e+00 -1.647392e+03 -5.880775e+04 0.000000e+00 0.000000e+00 0.000000e+00 0.000000e+00
-7.167865e+04 1.626698e+04 0.000000e+00 1.626698e+04 -7.231448e+04 0.000000e+00 0.000000e+00 0.000000e+00 0.000000e+00
-7.865502e+04 1.559540e+04 0.000000e+00 1.559540e+04 -7.302387e+04 0.000000e+00 0.000000e+00 0.000000e+00 0.000000e+00
-8.473672e+04 1.329174e+04 0.000000e+00 1.329174e+04 -7.093167e+04 0.000000e+00 0.000000e+00 0.000000e+00 0.000000e+00
-8.876000e+04 1.112183e+04 0.000000e+00 1.112183e+04 -6.885252e+04 0.000000e+00 0.000000e+00 0.000000e+00 0.000000e+00
-9.116624e+04 8.814660e+03 0.000000e+00 8.814660e+03 -6.675834e+04 0.000000e+00 0.000000e+00 0.000000e+00 0.000000e+00
-9.206031e+04 6.273502e+03 0.000000e+00 6.273502e+03 -6.467605e+04 0.000000e+00 0.000000e+00 0.000000e+00 0.000000e+00
-9.125521e+04 3.483881e+03 0.000000e+00 3.483881e+03 -6.268663e+04 0.000000e+00 0.000000e+00 0.000000e+00 0.000000e+00
-8.857923e+04 7.335447e+02 0.000000e+00 7.335447e+02 -6.106321e+04 0.000000e+00 0.000000e+00 0.000000e+00 0.000000e+00
-8.414229e+04 -1.308196e+03 0.000000e+00 -1.308196e+03 -6.012718e+04 0.000000e+00 0.000000e+00 0.000000e+00 0.000000e+00
-7.793763e+04 -1.756524e+03 0.000000e+00 -1.756524e+03 -5.982348e+04 0.000000e+00 0.000000e+00 0.000000e+00 0.000000e+00
-7.257419e+04 -1.389075e+03 0.000000e+00 -1.389075e+03 -5.913943e+04 0.000000e+00 0.000000e+00 0.000000e+00 0.000000e+00
-6.892258e+04 1.424003e+04 0.000000e+00 1.424003e+04 -6.869253e+04 0.000000e+00 0.000000e+00 0.000000e+00 0.000000e+00
-7.608938e+04 1.357561e+04 0.000000e+00 1.357561e+04 -6.928934e+04 0.000000e+00 0.000000e+00 0.000000e+00 0.000000e+00
-8.237604e+04 1.128524e+04 0.000000e+00 1.128524e+04 -6.736645e+04 0.000000e+00 0.000000e+00 0.000000e+00 0.000000e+00
-8.631169e+04 9.049511e+03 0.000000e+00 9.049511e+03 -6.565493e+04 0.000000e+00 0.000000e+00 0.000000e+00 0.000000e+00
-8.850954e+04 6.721346e+03 0.000000e+00 6.721346e+03 -6.401050e+04 0.000000e+00 0.000000e+00 0.000000e+00 0.000000e+00
-8.917336e+04 4.242456e+03 0.000000e+00 4.242456e+03 -6.244027e+04 0.000000e+00 0.000000e+00 0.000000e+00 0.000000e+00
-8.831927e+04 1.764896e+03 0.000000e+00 1.764896e+03 -6.108312e+04 0.000000e+00 0.000000e+00 0.000000e+00 0.000000e+00
-8.614258e+04 -3.514553e+02 0.000000e+00 -3.514553e+02 -6.017230e+04 0.000000e+00 0.000000e+00 0.000000e+00 0.000000e+00
-8.288910e+04 -1.646061e+03 0.000000e+00 -1.646061e+03 -5.979000e+04 0.000000e+00 0.000000e+00 0.000000e+00 0.000000e+00
-7.872677e+04 -1.617186e+03 0.000000e+00 -1.617186e+03 -5.977287e+04 0.000000e+00 0.000000e+00 0.000000e+00 0.000000e+00
-7.532909e+04 -1.125634e+03 0.000000e+00 -1.125634e+03 -5.940132e+04 0.000000e+00 0.000000e+00 0.000000e+00 0.000000e+00
-6.708946e+04 1.231290e+04 0.000000e+00 1.231290e+04 -6.630990e+04 0.000000e+00 0.000000e+00 0.000000e+00 0.000000e+00
-7.379105e+04 1.164645e+04 0.000000e+00 1.164645e+04 -6.671198e+04 0.000000e+00 0.000000e+00 0.000000e+00 0.000000e+00
-8.003127e+04 9.528322e+03 0.000000e+00 9.528322e+03 -6.495720e+04 0.000000e+00 0.000000e+00 0.000000e+00 0.000000e+00
-8.384012e+04 7.346790e+03 0.000000e+00 7.346790e+03 -6.351879e+04 0.000000e+00 0.000000e+00 0.000000e+00 0.000000e+00
-8.588372e+04 5.090774e+03 0.000000e+00 5.090774e+03 -6.217872e+04 0.000000e+00 0.000000e+00 0.000000e+00 0.000000e+00
-8.652119e+04 2.812979e+03 0.000000e+00 2.812979e+03 -6.102551e+04 0.000000e+00 0.000000e+00 0.000000e+00 0.000000e+00
-8.593744e+04 7.460902e+02 0.000000e+00 7.460902e+02 -6.017057e+04 0.000000e+00 0.000000e+00 0.000000e+00 0.000000e+00
-8.444033e+04 -8.320875e+02 0.000000e+00 -8.320875e+02 -5.971245e+04 0.000000e+00 0.000000e+00 0.000000e+00 0.000000e+00
-8.226744e+04 -1.640267e+03 0.000000e+00 -1.640267e+03 -5.963332e+04 0.000000e+00 0.000000e+00 0.000000e+00 0.000000e+00
-7.966301e+04 -1.390565e+03 0.000000e+00 -1.390565e+03 -5.976723e+04 0.000000e+00 0.000000e+00 0.000000e+00 0.000000e+00
-7.764481e+04 -8.929806e+02 0.000000e+00 -8.929806e+02 -5.959754e+04 0.000000e+00 0.000000e+00 0.000000e+00 0.000000e+00
-6.579087e+04 1.037829e+04 0.000000e+00 1.037829e+04 -6.500046e+04 0.000000e+00 0.000000e+00 0.000000e+00 0.000000e+00
-7.181345e+04 9.769073e+03 0.000000e+00 9.769073e+03 -6.508312e+04 0.000000e+00 0.000000e+00 0.000000e+00 0.000000e+00
-7.776541e+04 7.900168e+03 0.000000e+00 7.900168e+03 -6.344779e+04 0.000000e+00 0.000000e+00 0.000000e+00 0.000000e+00
-8.145660e+04 5.888640e+03 0.000000e+00 5.888640e+03 -6.212880e+04 0.000000e+00 0.000000e+00 0.000000e+00 0.000000e+00
-8.345968e+04 3.822978e+03 0.000000e+00 3.822978e+03 -6.101947e+04 0.000000e+00 0.000000e+00 0.000000e+00 0.000000e+00
-8.424188e+04 1.856321e+03 0.000000e+00 1.856321e+03 -6.017336e+04 0.000000e+00 0.000000e+00 0.000000e+00 0.000000e+00
-8.407442e+04 2.013556e+02 0.000000e+00 2.013556e+02 -5.966530e+04 0.000000e+00 0.000000e+00 0.000000e+00 0.000000e+00
-8.325146e+04 -9.606817e+02 0.000000e+00 -9.606817e+02 -5.948875e+04 0.000000e+00 0.000000e+00 0.000000e+00 0.000000e+00
-8.200488e+04 -1.461439e+03 0.000000e+00 -1.461439e+03 -5.957755e+04 0.000000e+00 0.000000e+00 0.000000e+00 0.000000e+00
-8.056998e+04 -1.138055e+03 0.000000e+00 -1.138055e+03 -5.978310e+04 0.000000e+00 0.000000e+00 0.000000e+00 0.000000e+00
-7.951977e+04 -6.851509e+02 0.000000e+00 -6.851509e+02 -5.974859e+04 0.000000e+00 0.000000e+00 0.000000e+00 0.000000e+00
-6.485013e+04 8.393353e+03 0.000000e+00 8.393353e+03 -6.435005e+04 0.000000e+00 0.000000e+00 0.000000e+00 0.000000e+00
-7.014227e+04 7.847864e+03 0.000000e+00 7.847864e+03 -6.417904e+04 0.000000e+00 0.000000e+00 0.000000e+00 0.000000e+00
-7.574415e+04 6.303468e+03 0.000000e+00 6.303468e+03 -6.258576e+04 0.000000e+00 0.000000e+00 0.000000e+00 0.000000e+00
-7.931991e+04 4.562915e+03 0.000000e+00 4.562915e+03 -6.130898e+04 0.000000e+00 0.000000e+00 0.000000e+00 0.000000e+00
-8.136114e+04 2.817088e+03 0.000000e+00 2.817088e+03 -6.033205e+04 0.000000e+00 0.000000e+00 0.000000e+00 0.000000e+00
-8.238591e+04 1.231594e+03 0.000000e+00 1.231594e+03 -5.970624e+04 0.000000e+00 0.000000e+00 0.000000e+00 0.000000e+00
-8.265839e+04 -4.951763e+01 0.000000e+00 -4.951763e+01 -5.941642e+04 0.000000e+00 0.000000e+00 0.000000e+00 0.000000e+00
-8.243225e+04 -8.939595e+02 0.000000e+00 -8.939595e+02 -5.940113e+04 0.000000e+00 0.000000e+00 0.000000e+00 0.000000e+00
-8.193330e+04 -1.199350e+03 0.000000e+00 -1.199350e+03 -5.957130e+04 0.000000e+00 0.000000e+00 0.000000e+00 0.000000e+00
-8.136562e+04 -8.860594e+02 0.000000e+00 -8.860594e+02 -5.980118e+04 0.000000e+00 0.000000e+00 0.000000e+00 0.000000e+00
-8.100327e+04 -5.124481e+02 0.000000e+00 -5.124481e+02 -5.987256e+04 0.000000e+00 0.000000e+00 0.000000e+00 0.000000e+00
-6.420760e+04 6.301698e+03 0.000000e+00 6.301698e+03 -6.402352e+04 0.000000e+00 0.000000e+00 0.000000e+00 0.000000e+00
-6.883041e+04 5.881685e+03 0.000000e+00 5.881685e+03 -6.370545e+04 0.000000e+00 0.000000e+00 0.000000e+00 0.000000e+00
-7.405471e+04 4.704763e+03 0.000000e+00 4.704763e+03 -6.209109e+04 0.000000e+00 0.000000e+00 0.000000e+00 0.000000e+00
-7.756210e+04 3.321265e+03 0.000000e+00 3.321265e+03 -6.084524e+04 0.000000e+00 0.000000e+00 0.000000e+00 0.000000e+00
-7.970538e+04 1.982746e+03 0.000000e+00 1.982746e+03 -5.996924e+04 0.000000e+00 0.000000e+00 0.000000e+00 0.000000e+00
-8.096776e+04 8.051208e+02 0.000000e+00 8.051208e+02 -5.946561e+04 0.000000e+00 0.000000e+00 0.000000e+00 0.000000e+00
-8.161371e+04 -1.273331e+02 0.000000e+00 -1.273331e+02 -5.929388e+04 0.000000e+00 0.000000e+00 0.000000e+00 0.000000e+00
-8.187099e+04 -7.200249e+02 0.000000e+00 -7.200249e+02 -5.937184e+04 0.000000e+00 0.000000e+00 0.000000e+00 0.000000e+00
-8.194325e+04 -9.032167e+02 0.000000e+00 -9.032167e+02 -5.958139e+04 0.000000e+00 0.000000e+00 0.000000e+00 0.000000e+00
-8.199490e+04 -6.462484e+02 0.000000e+00 -6.462484e+02 -5.981612e+04 0.000000e+00 0.000000e+00 0.000000e+00 0.000000e+00
-8.211728e+04 -3.657878e+02 0.000000e+00 -3.657878e+02 -5.995975e+04 0.000000e+00 0.000000e+00 0.000000e+00 0.000000e+00
-6.377156e+04 4.172770e+03 0.000000e+00 4.172770e+03 -6.385349e+04 0.000000e+00 0.000000e+00 0.000000e+00 0.000000e+00
-6.791108e+04 3.865377e+03 0.000000e+00 3.865377e+03 -6.343265e+04 0.000000e+00 0.000000e+00 0.000000e+00 0.000000e+00
-7.279602e+04 3.080224e+03 0.000000e+00 3.080224e+03 -6.180934e+04 0.000000e+00 0.000000e+00 0.000000e+00 0.000000e+00
-7.626930e+04 2.153042e+03 0.000000e+00 2.153042e+03 -6.058723e+04 0.000000e+00 0.000000e+00 0.000000e+00 0.000000e+00
-7.852352e+04 1.264107e+03 0.000000e+00 1.264107e+03 -5.979250e+04 0.000000e+00 0.000000e+00 0.000000e+00 0.000000e+00
-7.996968e+04 4.869402e+02 0.000000e+00 4.869402e+02 -5.936518e+04 0.000000e+00 0.000000e+00 0.000000e+00 0.000000e+00
-8.090138e+04 -1.196832e+02 0.000000e+00 -1.196832e+02 -5.925604e+04 0.000000e+00 0.000000e+00 0.000000e+00 0.000000e+00
-8.151141e+04 -4.939319e+02 0.000000e+00 -4.939319e+02 -5.937016e+04 0.000000e+00 0.000000e+00 0.000000e+00 0.000000e+00
-8.198023e+04 -5.989695e+02 0.000000e+00 -5.989695e+02 -5.959998e+04 0.000000e+00 0.000000e+00 0.000000e+00 0.000000e+00
-8.245014e+04 -4.203840e+02 0.000000e+00 -4.203840e+02 -5.982857e+04 0.000000e+00 0.000000e+00 0.000000e+00 0.000000e+00
-8.288923e+04 -2.340692e+02 0.000000e+00 -2.340692e+02 -6.002293e+04 0.000000e+00 0.000000e+00 0.000000e+00 0.000000e+00
-6.348530e+04 1.953006e+03 0.000000e+00 1.953006e+03 -6.362484e+04 0.000000e+00 0.000000e+00 0.000000e+00 0.000000e+00
-6.738510e+04 1.848791e+03 0.000000e+00 1.848791e+03 -6.317507e+04 0.000000e+00 0.000000e+00 0.000000e+00 0.000000e+00
-7.204476e+04 1.490956e+03 0.000000e+00 1.490956e+03 -6.161484e+04 0.000000e+00 0.000000e+00 0.000000e+00 0.000000e+00
-7.548766e+04 1.047633e+03 0.000000e+00 1.047633e+03 -6.045620e+04 0.000000e+00 0.000000e+00 0.000000e+00 0.000000e+00
-7.782175e+04 6.172123e+02 0.000000e+00 6.172123e+02 -5.971393e+04 0.000000e+00 0.000000e+00 0.000000e+00 0.000000e+00
-7.937670e+04 2.282386e+02 0.000000e+00 2.282386e+02 -5.933039e+04 0.000000e+00 0.000000e+00 0.000000e+00 0.000000e+00
-8.048493e+04 -6.924267e+01 0.000000e+00 -6.924267e+01 -5.925206e+04 0.000000e+00 0.000000e+00 0.000000e+00 0.000000e+00
-8.131330e+04 -2.490918e+02 0.000000e+00 -2.490918e+02 -5.938189e+04 0.000000e+00 0.000000e+00 0.000000e+00 0.000000e+00
-8.200984e+04 -2.969663e+02 0.000000e+00 -2.969663e+02 -5.961637e+04 0.000000e+00 0.000000e+00 0.000000e+00 0.000000e+00
-8.272318e+04 -2.071151e+02 0.000000e+00 -2.071151e+02 -5.983606e+04 0.000000e+00 0.000000e+00 0.000000e+00 0.000000e+00
-8.333970e+04 -1.140204e+02 0.000000e+00 -1.140204e+02 -6.005231e+04 0.000000e+00 0.000000e+00 0.000000e+00 0.000000e+00
-6.328324e+04 4.221940e+02 0.000000e+00 4.221940e+02 -6.323746e+04 0.000000e+00 0.000000e+00 0.000000e+00 0.000000e+00
-6.718321e+04 4.844924e+02 0.000000e+00 4.844924e+02 -6.290339e+04 0.000000e+00 0.000000e+00 0.000000e+00 0.000000e+00
-7.179723e+04 4.242331e+02 0.000000e+00 4.242331e+02 -6.152192e+04 0.000000e+00 0.000000e+00 0.000000e+00 0.000000e+00
-7.523405e+04 2.894852e+02 0.000000e+00 2.894852e+02 -6.041314e+04 0.000000e+00 0.000000e+00 0.000000e+00 0.000000e+00
-7.759064e+04 1.403882e+02 0.000000e+00 1.403882e+02 -5.969060e+04 0.000000e+00 0.000000e+00 0.000000e+00 0.000000e+00
-7.918051e+04 -7.552379e+00 0.000000e+00 -7.552379e+00 -5.931711e+04 0.000000e+00 0.000000e+00 0.000000e+00 0.000000e+00
-8.035007e+04 -1.176053e+02 0.000000e+00 -1.176053e+02 -5.924891e+04 0.000000e+00 0.000000e+00 0.000000e+00 0.000000e+00
-8.124966e+04 -1.822776e+02 0.000000e+00 -1.822776e+02 -5.938752e+04 0.000000e+00 0.000000e+00 0.000000e+00 0.000000e+00
-8.202257e+04 -1.986400e+02 0.000000e+00 -1.986400e+02 -5.962186e+04 0.000000e+00 0.000000e+00 0.000000e+00 0.000000e+00
-8.281471e+04 -1.647542e+02 0.000000e+00 -1.647542e+02 -5.983927e+04 0.000000e+00 0.000000e+00 0.000000e+00 0.000000e+00
-8.348759e+04 -1.286113e+02 0.000000e+00 -1.286113e+02 -6.006062e+04 0.000000e+00 0.000000e+00 0.000000e+00 0.000000e+00
</DataArray>
<DataArray Name="vol_eps" type="Float64" NumberOfComponents="1" format="ascii">
-1.057749e-02
-9.302964e-03
-8.698295e-03
-8.319000e-03
-8.367054e-03
-8.942578e-03
-9.980565e-03
-1.146199e-02
-1.337203e-02
-1.533590e-02
-1.604421e-02
-9.753123e-03
-8.565949e-03
-8.060449e-03
-7.833599e-03
-8.005559e-03
-8.603242e-03
-9.448607e-03
-1.060796e-02
-1.225331e-02
-1.413505e-02
-1.726251e-02
-7.754841e-03
-6.872876e-03
-6.633735e-03
-6.668582e-03
-6.820881e-03
-7.058049e-03
-7.355808e-03
-7.836918e-03
-8.654142e-03
-1.019262e-02
-1.345515e-02
-5.670534e-03
-5.191480e-03
-5.050622e-03
-4.908756e-03
-4.553393e-03
-3.983636e-03
-3.177323e-03
-1.873722e-03
-1.553549e-04
2.415629e-03
5.247894e-03
-4.363921e-03
-4.330680e-03
-4.556675e-03
-4.765087e-03
-4.864182e-03
-4.820796e-03
-4.641196e-03
-4.204547e-03
-3.617450e-03
-2.568325e-03
-1.693961e-04
-3.249051e-03
-3.527272e-03
-3.878563e-03
-4.066203e-03
-4.111636e-03
-4.016499e-03
-3.780637e-03
-3.361593e-03
-2.764007e-03
-1.587213e-03
-9.136414e-07
-2.366005e-03
-2.874993e-03
-3.260748e-03
-3.423363e-03
-3.446548e-03
-3.340639e-03
-3.105488e-03
-2.721541e-03
-2.129321e-03
-1.218537e-03
-2.549952e-04
-1.716649e-03
-2.342017e-03
-2.731611e-03
-2.886413e-03
-2.905517e-03
-2.810627e-03
-2.595187e-03
-2.244795e-03
-1.755723e-03
-1.116844e-03
-5.103231e-04
-1.274877e-03
-1.911465e-03
-2.284625e-03
-2.436075e-03
-2.467174e-03
-2.387837e-03
-2.196799e-03
-1.910600e-03
-1.551552e-03
-1.121540e-03
-7.332260e-04
-9.623540e-04
-1.555238e-03
-1.906983e-03
-2.067003e-03
-2.105688e-03
-2.041451e-03
-1.893053e-03
-1.689430e-03
-1.445335e-03
-1.167797e-03
-9.243943e-04
-7.460570e-04
-1.264855e-03
-1.594270e-03
-1.758390e-03
-1.802840e-03
-1.767053e-03
-1.673697e-03
-1.544615e-03
-1.393264e-03
-1.228344e-03
-1.085110e-03
-6.136422e-04
-1.044648e-03
-1.346434e-03
-1.505986e-03
-1.564002e-03
-1.558710e-03
-1.515848e-03
-1.449414e-03
-1.372070e-03
-1.290025e-03
-1.218254e-03
-5.391830e-04
-8.906581e-04
-1.159452e-03
-1.309816e-03
-1.380730e-03
-1.405582e-03
-1.404372e-03
-1.388797e-03
-1.366743e-03
-1.343972e-03
-1.324446e-03
-5.011240e-04
-7.890668e-04
-1.020800e-03
-1.164215e-03
-1.246857e-03
-1.295496e-03
-1.326836e-03
-1.349333e-03
-1.367875e-03
-1.386919e-03
-1.404445e-03
-4.828898e-04
-7.232464e-04
-9.244992e-04
-1.062861e-03
-1.155850e-03
-1.222331e-03
-1.276810e-03
-1.325072e-03
-1.371409e-03
-1.418156e-03
-1.460134e-03
-4.595521e-04
-6.784291e-04
-8.673976e-04
-1.005351e-03
-1.103920e-03
-1.180900e-03
-1.248980e-03
-1.312632e-03
-1.374552e-03
-1.436536e-03
-1.491977e-03
-4.245547e-04
-6.499542e-04
-8.474576e-04
-9.877139e-04
-1.087446e-03
-1.167072e-03
-1.239952e-03
-1.308776e-03
-1.375869e-03
-1.442810e-03
-1.502455e-03
</DataArray>
</PointData>
</Piece>
</UnstructuredGrid>
</VTKFile>
