<?xml version="1.0"?>
<VTKFile type="UnstructuredGrid" version="0.1">
<UnstructuredGrid>
<FieldData>
<DataArray Name="TIME" type="Float64" format="ascii" NumberOfTuples="1">
0.000000e+00
</DataArray>
</FieldData>
<FieldData>
<DataArray Name="CYCLE" type="Int32" format="ascii" NumberOfTuples="1">
0
</DataArray>
</FieldData>
<Piece NumberOfPoints="187" NumberOfCells="160">
<Points>
<DataArray NumberOfComponents="3" type="Float64" format="ascii">
0.000000e+00 0.000000e+00 0.000000e+00
0.000000e+00 1.998260e-01 0.000000e+00
0.000000e+00 3.996428e-01 0.000000e+00
0.000000e+00 5.994481e-01 0.000000e+00
0.000000e+00 7.992398e-01 0.000000e+00
0.000000e+00 9.990144e-01 0.000000e+00
0.000000e+00 1.198770e+00 0.000000e+00
0.000000e+00 1.398507e+00 0.000000e+00
0.000000e+00 1.598236e+00 0.000000e+00
0.000000e+00 1.797984e+00 0.000000e+00
0.000000e+00 1.997750e+00 0.000000e+00
2.250000e-01 0.000000e+00 0.000000e+00
2.250356e-01 1.998449e-01 0.000000e+00
2.250578e-01 3.996726e-01 0.000000e+00
2.250749e-01 5.994868e-01 0.000000e+00
2.250887e-01 7.992873e-01 0.000000e+00
2.250996e-01 9.990720e-01 0.000000e+00
2.251061e-01 1.198838e+00 0.000000e+00
2.251032e-01 1.398583e+00 0.000000e+00
2.250784e-01 1.598306e+00 0.000000e+00
2.250189e-01 1.798016e+00 0.000000e+00
2.250000e-01 1.997750e+00 0.000000e+00
4.500000e-01 0.000000e+00 0.000000e+00
4.500627e-01 1.998606e-01 0.000000e+00
4.501063e-01 3.997082e-01 0.000000e+00
4.501389e-01 5.995440e-01 0.000000e+00
4.501647e-01 7.993690e-01 0.000000e+00
4.501848e-01 9.991826e-01 0.000000e+00
4.501976e-01 1.198983e+00 0.000000e+00
4.501978e-01 1.398765e+00 0.000000e+00
4.501750e-01 1.598517e+00 0.000000e+00
4.501050e-01 1.798199e+00 0.000000e+00
4.500000e-01 1.997750e+00 0.000000e+00
6.750000e-01 0.000000e+00 0.000000e+00
6.750820e-01 1.998800e-01 0.000000e+00
6.751412e-01 3.997515e-01 0.000000e+00
6.751851e-01 5.996162e-01 0.000000e+00
6.752185e-01 7.994754e-01 0.000000e+00
6.752428e-01 9.993309e-01 0.000000e+00
6.752569e-01 1.199184e+00 0.000000e+00
6.752559e-01 1.399039e+00 0.000000e+00
6.752273e-01 1.598901e+00 0.000000e+00
6.751555e-01 1.798801e+00 0.000000e+00
6.748134e-01 1.998850e+00 0.000000e+00
9.000000e-01 0.000000e+00 0.000000e+00
9.000932e-01 1.999014e-01 0.000000e+00
9.001610e-01 3.997993e-01 0.000000e+00
9.002107e-01 5.996951e-01 0.000000e+00
9.002463e-01 7.995911e-01 0.000000e+00
9.002691e-01 9.994902e-01 0.000000e+00
9.002769e-01 1.199397e+00 0.000000e+00
9.002627e-01 1.399319e+00 0.000000e+00
9.002126e-01 1.599267e+00 0.000000e+00
9.000767e-01 1.799260e+00 0.000000e+00
8.998333e-01 1.999245e+00 0.000000e+00
1.125000e+00 0.000000e+00 0.000000e+00
1.125097e+00 1.999224e-01 0.000000e+00
1.125167e+00 3.998455e-01 0.000000e+00
1.125218e+00 5.997705e-01 0.000000e+00
1.125251e+00 7.996994e-01 0.000000e+00
1.125269e+00 9.996356e-01 0.000000e+00
1.125267e+00 1.199583e+00 0.000000e+00
1.125240e+00 1.399547e+00 0.000000e+00
1.125172e+00 1.599531e+00 0.000000e+00
1.125051e+00 1.799527e+00 0.000000e+00
1.124888e+00 1.999521e+00 0.000000e+00
1.350000e+00 0.000000e+00 0.000000e+00
1.350094e+00 1.999417e-01 0.000000e+00
1.350162e+00 3.998870e-01 0.000000e+00
1.350210e+00 5.998365e-01 0.000000e+00
1.350239e+00 7.997915e-01 0.000000e+00
1.350251e+00 9.997545e-01 0.000000e+00
1.350242e+00 1.199728e+00 0.000000e+00
1.350207e+00 1.399713e+00 0.000000e+00
1.350143e+00 1.599708e+00 0.000000e+00
1.350047e+00 1.799706e+00 0.000000e+00
1.349939e+00 1.999698e+00 0.000000e+00
1.575000e+00 0.000000e+00 0.000000e+00
1.575086e+00 1.999580e-01 0.000000e+00
1.575150e+00 3.999211e-01 0.000000e+00
1.575193e+00 5.998893e-01 0.000000e+00
1.575217e+00 7.998633e-01 0.000000e+00
1.575224e+00 9.998440e-01 0.000000e+00
1.575211e+00 1.199832e+00 0.000000e+00
1.575178e+00 1.399827e+00 0.000000e+00
1.575124e+00 1.599827e+00 0.000000e+00
1.575052e+00 1.799826e+00 0.000000e+00
1.574982e+00 1.999820e+00 0.000000e+00
1.800000e+00 0.000000e+00 0.000000e+00
1.800076e+00 1.999708e-01 0.000000e+00
1.800133e+00 3.999473e-01 0.000000e+00
1.800170e+00 5.999290e-01 0.000000e+00
1.800191e+00 7.999156e-01 0.000000e+00
1.800194e+00 9.999076e-01 0.000000e+00
1.800182e+00 1.199905e+00 0.000000e+00
1.800153e+00 1.399905e+00 0.000000e+00
1.800110e+00 1.599907e+00 0.000000e+00
1.800058e+00 1.799907e+00 0.000000e+00
1.800014e+00 1.999903e+00 0.000000e+00
2.025000e+00 0.000000e+00 0.000000e+00
2.025065e+00 1.999805e-01 0.000000e+00
2.025114e+00 3.999665e-01 0.000000e+00
2.025146e+00 5.999573e-01 0.000000e+00
2.025163e+00 7.999525e-01 0.000000e+00
2.025165e+00 9.999517e-01 0.000000e+00
2.025154e+00 1.199954e+00 0.000000e+00
2.025131e+00 1.399958e+00 0.000000e+00
2.025098e+00 1.599961e+00 0.000000e+00
2.025062e+00 1.799962e+00 0.000000e+00
2.025037e+00 1.999959e+00 0.000000e+00
2.250000e+00 0.000000e+00 0.000000e+00
2.250055e+00 1.999876e-01 0.000000e+00
2.250095e+00 3.999804e-01 0.000000e+00
2.250122e+00 5.999774e-01 0.000000e+00
2.250136e+00 7.999783e-01 0.000000e+00
2.250138e+00 9.999819e-01 0.000000e+00
2.250129e+00 1.199987e+00 0.000000e+00
2.250111e+00 1.399993e+00 0.000000e+00
2.250087e+00 1.599997e+00 0.000000e+00
2.250063e+00 1.799999e+00 0.000000e+00
2.250050e+00 1.999998e+00 0.000000e+00
2.475000e+00 0.000000e+00 0.000000e+00
2.475045e+00 1.999930e-01 0.000000e+00
2.475078e+00 3.999906e-01 0.000000e+00
2.475099e+00 5.999919e-01 0.000000e+00
2.475110e+00 7.999965e-01 0.000000e+00
2.475112e+00 1.000003e+00 0.000000e+00
2.475106e+00 1.200010e+00 0.000000e+00
2.475093e+00 1.400017e+00 0.000000e+00
2.475076e+00 1.600022e+00 0.000000e+00
2.475061e+00 1.800024e+00 0.000000e+00
2.475055e+00 2.000025e+00 0.000000e+00
2.700000e+00 0.000000e+00 0.000000e+00
2.700036e+00 1.999972e-01 0.000000e+00
2.700062e+00 3.999982e-01 0.000000e+00
2.700078e+00 6.000028e-01 0.000000e+00
2.700087e+00 8.000099e-01 0.000000e+00
2.700088e+00 1.000019e+00 0.000000e+00
2.700083e+00 1.200027e+00 0.000000e+00
2.700075e+00 1.400035e+00 0.000000e+00
2.700064e+00 1.600040e+00 0.000000e+00
2.700055e+00 1.800044e+00 0.000000e+00
2.700054e+00 2.000046e+00 0.000000e+00
2.925000e+00 0.000000e+00 0.000000e+00
2.925028e+00 2.000007e-01 0.000000e+00
2.925047e+00 4.000047e-01 0.000000e+00
2.925059e+00 6.000121e-01 0.000000e+00
2.925065e+00 8.000218e-01 0.000000e+00
2.925066e+00 1.000032e+00 0.000000e+00
2.925062e+00 1.200042e+00 0.000000e+00
2.925057e+00 1.400050e+00 0.000000e+00
2.925050e+00 1.600056e+00 0.000000e+00
2.925045e+00 1.800061e+00 0.000000e+00
2.925046e+00 2.000064e+00 0.000000e+00
3.150000e+00 0.000000e+00 0.000000e+00
3.150020e+00 2.000039e-01 0.000000e+00
3.150033e+00 4.000115e-01 0.000000e+00
3.150040e+00 6.000224e-01 0.000000e+00
3.150043e+00 8.000347e-01 0.000000e+00
3.150043e+00 1.000047e+00 0.000000e+00
3.150042e+00 1.200058e+00 0.000000e+00
3.150038e+00 1.400066e+00 0.000000e+00
3.150034e+00 1.600073e+00 0.000000e+00
3.150032e+00 1.800078e+00 0.000000e+00
3.150034e+00 2.000082e+00 0.000000e+00
3.375000e+00 0.000000e+00 0.000000e+00
3.375012e+00 2.000087e-01 0.000000e+00
3.375018e+00 4.000227e-01 0.000000e+00
3.375020e+00 6.000374e-01 0.000000e+00
3.375021e+00 8.000517e-01 0.000000e+00
3.375022e+00 1.000065e+00 0.000000e+00
3.375021e+00 1.200077e+00 0.000000e+00
3.375019e+00 1.400086e+00 0.000000e+00
3.375017e+00 1.600093e+00 0.000000e+00
3.375016e+00 1.800099e+00 0.000000e+00
3.375018e+00 2.000103e+00 0.000000e+00
3.600000e+00 0.000000e+00 0.000000e+00
3.600000e+00 2.000245e-01 0.000000e+00
3.600000e+00 4.000434e-01 0.000000e+00
3.600000e+00 6.000600e-01 0.000000e+00
3.600000e+00 8.000751e-01 0.000000e+00
3.600000e+00 1.000089e+00 0.000000e+00
3.600000e+00 1.200100e+00 0.000000e+00
3.600000e+00 1.400109e+00 0.000000e+00
3.600000e+00 1.600117e+00 0.000000e+00
3.600000e+00 1.800122e+00 0.000000e+00
3.600000e+00 2.000128e+00 0.000000e+00
</DataArray>
</Points>
<Cells>
<DataArray Name="connectivity" type="Int32" format="ascii">
0 11 12 1
1 12 13 2
2 13 14 3
3 14 15 4
4 15 16 5
5 16 17 6
6 17 18 7
7 18 19 8
8 19 20 9
9 20 21 10
11 22 23 12
12 23 24 13
13 24 25 14
14 25 26 15
15 26 27 16
16 27 28 17
17 28 29 18
18 29 30 19
19 30 31 20
20 31 32 21
22 33 34 23
23 34 35 24
24 35 36 25
25 36 37 26
26 37 38 27
27 38 39 28
28 39 40 29
29 40 41 30
30 41 42 31
31 42 43 32
33 44 45 34
34 45 46 35
35 46 47 36
36 47 48 37
37 48 49 38
38 49 50 39
39 50 51 40
40 51 52 41
41 52 53 42
42 53 54 43
44 55 56 45
45 56 57 46
46 57 58 47
47 58 59 48
48 59 60 49
49 60 61 50
50 61 62 51
51 62 63 52
52 63 64 53
53 64 65 54
55 66 67 56
56 67 68 57
57 68 69 58
58 69 70 59
59 70 71 60
60 71 72 61
61 72 73 62
62 73 74 63
63 74 75 64
64 75 76 65
66 77 78 67
67 78 79 68
68 79 80 69
69 80 81 70
70 81 82 71
71 82 83 72
72 83 84 73
73 84 85 74
74 85 86 75
75 86 87 76
77 88 89 78
78 89 90 79
79 90 91 80
80 91 92 81
81 92 93 82
82 93 94 83
83 94 95 84
84 95 96 85
85 96 97 86
86 97 98 87
88 99 100 89
89 100 101 90
90 101 102 91
91 102 103 92
92 103 104 93
93 104 105 94
94 105 106 95
95 106 107 96
96 107 108 97
97 108 109 98
99 110 111 100
100 111 112 101
101 112 113 102
102 113 114 103
103 114 115 104
104 115 116 105
105 116 117 106
106 117 118 107
107 118 119 108
108 119 120 109
110 121 122 111
111 122 123 112
112 123 124 113
113 124 125 114
114 125 126 115
115 126 127 116
116 127 128 117
117 128 129 118
118 129 130 119
119 130 131 120
121 132 133 122
122 133 134 123
123 134 135 124
124 135 136 125
125 136 137 126
126 137 138 127
127 138 139 128
128 139 140 129
129 140 141 130
130 141 142 131
132 143 144 133
133 144 145 134
134 145 146 135
135 146 147 136
136 147 148 137
137 148 149 138
138 149 150 139
139 150 151 140
140 151 152 141
141 152 153 142
143 154 155 144
144 155 156 145
145 156 157 146
146 157 158 147
147 158 159 148
148 159 160 149
149 160 161 150
150 161 162 151
151 162 163 152
152 163 164 153
154 165 166 155
155 166 167 156
156 167 168 157
157 168 169 158
158 169 170 159
159 170 171 160
160 171 172 161
161 172 173 162
162 173 174 163
163 174 175 164
165 176 177 166
166 177 178 167
167 178 179 168
168 179 180 169
169 180 181 170
170 181 182 171
171 182 183 172
172 183 184 173
173 184 185 174
174 185 186 175
</DataArray>
<DataArray Name="offsets" type="Int32" format="ascii">
4
8
12
16
20
24
28
32
36
40
44
48
52
56
60
64
68
72
76
80
84
88
92
96
100
104
108
112
116
120
124
128
132
136
140
144
148
152
156
160
164
168
172
176
180
184
188
192
196
200
204
208
212
216
220
224
228
232
236
240
244
248
252
256
260
264
268
272
276
280
284
288
292
296
300
304
308
312
316
320
324
328
332
336
340
344
348
352
356
360
364
368
372
376
380
384
388
392
396
400
404
408
412
416
420
424
428
432
436
440
444
448
452
456
460
464
468
472
476
480
484
488
492
496
500
504
508
512
516
520
524
528
532
536
540
544
548
552
556
560
564
568
572
576
580
584
588
592
596
600
604
608
612
616
620
624
628
632
636
640
</DataArray>
<DataArray Name="types" type="UInt8" format="ascii">
9
9
9
9
9
9
9
9
9
9
9
9
9
9
9
9
9
9
9
9
9
9
9
9
9
9
9
9
9
9
9
9
9
9
9
9
9
9
9
9
9
9
9
9
9
9
9
9
9
9
9
9
9
9
9
9
9
9
9
9
9
9
9
9
9
9
9
9
9
9
9
9
9
9
9
9
9
9
9
9
9
9
9
9
9
9
9
9
9
9
9
9
9
9
9
9
9
9
9
9
9
9
9
9
9
9
9
9
9
9
9
9
9
9
9
9
9
9
9
9
9
9
9
9
9
9
9
9
9
9
9
9
9
9
9
9
9
9
9
9
9
9
9
9
9
9
9
9
9
9
9
9
9
9
9
9
9
9
9
9
</DataArray>
</Cells>
<PointData>
<DataArray Name="disp" type="Float64" NumberOfComponents="3" format="ascii">
0.000000e+00 0.000000e+00 0.000000e+00
0.000000e+00 -1.739626e-04 0.000000e+00
0.000000e+00 -3.572470e-04 0.000000e+00
0.000000e+00 -5.518483e-04 0.000000e+00
0.000000e+00 -7.602249e-04 0.000000e+00
0.000000e+00 -9.855430e-04 0.000000e+00
0.000000e+00 -1.230043e-03 0.000000e+00
0.000000e+00 -1.493119e-03 0.000000e+00
0.000000e+00 -1.764412e-03 0.000000e+00
0.000000e+00 -2.016442e-03 0.000000e+00
0.000000e+00 -2.250000e-03 0.000000e+00
0.000000e+00 0.000000e+00 0.000000e+00
3.562767e-05 -1.550610e-04 0.000000e+00
5.776734e-05 -3.274018e-04 0.000000e+00
7.488351e-05 -5.132050e-04 0.000000e+00
8.868231e-05 -7.127559e-04 0.000000e+00
9.961870e-05 -9.279927e-04 0.000000e+00
1.061310e-04 -1.161884e-03 0.000000e+00
1.032226e-04 -1.416817e-03 0.000000e+00
7.837229e-05 -1.693927e-03 0.000000e+00
1.890185e-05 -1.984421e-03 0.000000e+00
0.000000e+00 -2.250000e-03 0.000000e+00
0.000000e+00 0.000000e+00 0.000000e+00
6.265038e-05 -1.393922e-04 0.000000e+00
1.063005e-04 -2.918139e-04 0.000000e+00
1.389058e-04 -4.559355e-04 0.000000e+00
1.647152e-04 -6.309469e-04 0.000000e+00
1.847675e-04 -8.173651e-04 0.000000e+00
1.975946e-04 -1.017043e-03 0.000000e+00
1.977981e-04 -1.234803e-03 0.000000e+00
1.750590e-04 -1.482801e-03 0.000000e+00
1.050134e-04 -1.800647e-03 0.000000e+00
0.000000e+00 -2.250000e-03 0.000000e+00
0.000000e+00 0.000000e+00 0.000000e+00
8.204242e-05 -1.200359e-04 0.000000e+00
1.411995e-04 -2.484492e-04 0.000000e+00
1.850909e-04 -3.838011e-04 0.000000e+00
2.184561e-04 -5.245745e-04 0.000000e+00
2.428327e-04 -6.691120e-04 0.000000e+00
2.569183e-04 -8.156433e-04 0.000000e+00
2.559196e-04 -9.611957e-04 0.000000e+00
2.272835e-04 -1.098686e-03 0.000000e+00
1.554338e-04 -1.199184e-03 0.000000e+00
-1.866039e-04 -1.150289e-03 0.000000e+00
0.000000e+00 0.000000e+00 0.000000e+00
9.318691e-05 -9.862975e-05 0.000000e+00
1.610269e-04 -2.007198e-04 0.000000e+00
2.106729e-04 -3.048906e-04 0.000000e+00
2.463191e-04 -4.089313e-04 0.000000e+00
2.690942e-04 -5.097695e-04 0.000000e+00
2.768807e-04 -6.028322e-04 0.000000e+00
2.627159e-04 -6.810520e-04 0.000000e+00
2.125973e-04 -7.325215e-04 0.000000e+00
7.669617e-05 -7.397335e-04 0.000000e+00
-1.667563e-04 -7.550189e-04 0.000000e+00
0.000000e+00 0.000000e+00 0.000000e+00
9.680240e-05 -7.761367e-05 0.000000e+00
1.672721e-04 -1.544926e-04 0.000000e+00
2.176520e-04 -2.295313e-04 0.000000e+00
2.512815e-04 -3.005756e-04 0.000000e+00
2.686417e-04 -3.644330e-04 0.000000e+00
2.670590e-04 -4.169318e-04 0.000000e+00
2.395562e-04 -4.530707e-04 0.000000e+00
1.717260e-04 -4.686704e-04 0.000000e+00
5.124996e-05 -4.730977e-04 0.000000e+00
-1.121612e-04 -4.791919e-04 0.000000e+00
0.000000e+00 0.000000e+00 0.000000e+00
9.395005e-05 -5.829276e-05 0.000000e+00
1.623413e-04 -1.130011e-04 0.000000e+00
2.099691e-04 -1.635459e-04 0.000000e+00
2.393371e-04 -2.084664e-04 0.000000e+00
2.505940e-04 -2.455213e-04 0.000000e+00
2.416169e-04 -2.722149e-04 0.000000e+00
2.074196e-04 -2.871678e-04 0.000000e+00
1.430565e-04 -2.923749e-04 0.000000e+00
4.717965e-05 -2.936694e-04 0.000000e+00
-6.129976e-05 -3.017942e-04 0.000000e+00
0.000000e+00 0.000000e+00 0.000000e+00
8.636553e-05 -4.203395e-05 0.000000e+00
1.495398e-04 -7.889632e-05 0.000000e+00
1.925596e-04 -1.107367e-04 0.000000e+00
2.172866e-04 -1.367326e-04 0.000000e+00
2.239425e-04 -1.560027e-04 0.000000e+00
2.114455e-04 -1.677958e-04 0.000000e+00
1.780921e-04 -1.726356e-04 0.000000e+00
1.237235e-04 -1.729187e-04 0.000000e+00
5.151467e-05 -1.737190e-04 0.000000e+00
-1.845251e-05 -1.800608e-04 0.000000e+00
0.000000e+00 0.000000e+00 0.000000e+00
7.631207e-05 -2.921926e-05 0.000000e+00
1.325013e-04 -5.266255e-05 0.000000e+00
1.701511e-04 -7.103910e-05 0.000000e+00
1.905506e-04 -8.443747e-05 0.000000e+00
1.943774e-04 -9.247351e-05 0.000000e+00
1.816604e-04 -9.543428e-05 0.000000e+00
1.527964e-04 -9.468169e-05 0.000000e+00
1.095462e-04 -9.276972e-05 0.000000e+00
5.747555e-05 -9.268930e-05 0.000000e+00
1.447161e-05 -9.737313e-05 0.000000e+00
0.000000e+00 0.000000e+00 0.000000e+00
6.543477e-05 -1.955437e-05 0.000000e+00
1.138532e-04 -3.345616e-05 0.000000e+00
1.457560e-04 -4.269996e-05 0.000000e+00
1.626787e-04 -4.747340e-05 0.000000e+00
1.651365e-04 -4.827257e-05 0.000000e+00
1.540241e-04 -4.598005e-05 0.000000e+00
1.308803e-04 -4.239327e-05 0.000000e+00
9.804501e-05 -3.944205e-05 0.000000e+00
6.171533e-05 -3.845158e-05 0.000000e+00
3.693005e-05 -4.086949e-05 0.000000e+00
0.000000e+00 0.000000e+00 0.000000e+00
5.477041e-05 -1.237126e-05 0.000000e+00
9.524888e-05 -1.957905e-05 0.000000e+00
1.216324e-04 -2.255002e-05 0.000000e+00
1.355963e-04 -2.173315e-05 0.000000e+00
1.374803e-04 -1.805328e-05 0.000000e+00
1.286794e-04 -1.266717e-05 0.000000e+00
1.113136e-04 -7.091784e-06 0.000000e+00
8.729730e-05 -3.210531e-06 0.000000e+00
6.292264e-05 -1.477118e-06 0.000000e+00
4.976586e-05 -2.223724e-06 0.000000e+00
0.000000e+00 0.000000e+00 0.000000e+00
4.484214e-05 -6.975469e-06 0.000000e+00
7.769950e-05 -9.374550e-06 0.000000e+00
9.892036e-05 -8.071336e-06 0.000000e+00
1.102263e-04 -3.475107e-06 0.000000e+00
1.118478e-04 3.031779e-06 0.000000e+00
1.054158e-04 1.026106e-05 0.000000e+00
9.275731e-05 1.678597e-05 0.000000e+00
7.623103e-05 2.161817e-05 0.000000e+00
6.070576e-05 2.419579e-05 0.000000e+00
5.500955e-05 2.485697e-05 0.000000e+00
0.000000e+00 0.000000e+00 0.000000e+00
3.581062e-05 -2.771583e-06 0.000000e+00
6.161840e-05 -1.850841e-06 0.000000e+00
7.799957e-05 2.790846e-06 0.000000e+00
8.663332e-05 9.923318e-06 0.000000e+00
8.800279e-05 1.855172e-05 0.000000e+00
8.355502e-05 2.731818e-05 0.000000e+00
7.464270e-05 3.478155e-05 0.000000e+00
6.376432e-05 4.018324e-05 0.000000e+00
5.475930e-05 4.363480e-05 0.000000e+00
5.363811e-05 4.560887e-05 0.000000e+00
0.000000e+00 0.000000e+00 0.000000e+00
2.752275e-05 6.691575e-07 0.000000e+00
4.664306e-05 4.695590e-06 0.000000e+00
5.857660e-05 1.205146e-05 0.000000e+00
6.448916e-05 2.179356e-05 0.000000e+00
6.541838e-05 3.226065e-05 0.000000e+00
6.237523e-05 4.195858e-05 0.000000e+00
5.663648e-05 5.014215e-05 0.000000e+00
4.958717e-05 5.646637e-05 0.000000e+00
4.488612e-05 6.070603e-05 0.000000e+00
4.646844e-05 6.375838e-05 0.000000e+00
0.000000e+00 0.000000e+00 0.000000e+00
1.995455e-05 3.888037e-06 0.000000e+00
3.271500e-05 1.144062e-05 0.000000e+00
3.962499e-05 2.234857e-05 0.000000e+00
4.300139e-05 3.468659e-05 0.000000e+00
4.337715e-05 4.671214e-05 0.000000e+00
4.157022e-05 5.751271e-05 0.000000e+00
3.801668e-05 6.652351e-05 0.000000e+00
3.410439e-05 7.326368e-05 0.000000e+00
3.170260e-05 7.830773e-05 0.000000e+00
3.417290e-05 8.246907e-05 0.000000e+00
0.000000e+00 0.000000e+00 0.000000e+00
1.233480e-05 8.719358e-06 0.000000e+00
1.755378e-05 2.267527e-05 0.000000e+00
2.023129e-05 3.737723e-05 0.000000e+00
2.149897e-05 5.173409e-05 0.000000e+00
2.157690e-05 6.491168e-05 0.000000e+00
2.091417e-05 7.656593e-05 0.000000e+00
1.905564e-05 8.593721e-05 0.000000e+00
1.726998e-05 9.317875e-05 0.000000e+00
1.640039e-05 9.856241e-05 0.000000e+00
1.803393e-05 1.033666e-04 0.000000e+00
0.000000e+00 0.000000e+00 0.000000e+00
0.000000e+00 2.448607e-05 0.000000e+00
0.000000e+00 4.342127e-05 0.000000e+00
0.000000e+00 6.007505e-05 0.000000e+00
0.000000e+00 7.509794e-05 0.000000e+00
0.000000e+00 8.856883e-05 0.000000e+00
0.000000e+00 9.996950e-05 0.000000e+00
0.000000e+00 1.091929e-04 0.000000e+00
0.000000e+00 1.165972e-04 0.000000e+00
0.000000e+00 1.225397e-04 0.000000e+00
0.000000e+00 1.278189e-04 0.000000e+00
</DataArray>
<DataArray Name="shear" type="Float64" NumberOfComponents="1" format="ascii">
8.955405e-04
1.024595e-03
1.192786e-03
1.338004e-03
1.479150e-03
1.619856e-03
1.745085e-03
1.803010e-03
1.682619e-03
1.389582e-03
1.249634e-03
8.476729e-04
9.727571e-04
1.144554e-03
1.290861e-03
1.430167e-03
1.570237e-03
1.705308e-03
1.808403e-03
1.819456e-03
1.684203e-03
1.532661e-03
8.008542e-04
8.937973e-04
1.034713e-03
1.166624e-03
1.295344e-03
1.429499e-03
1.576221e-03
1.743141e-03
1.952969e-03
2.153281e-03
2.167094e-03
7.575414e-04
8.145527e-04
9.017882e-04
9.967993e-04
1.095623e-03
1.200907e-03
1.317397e-03
1.448697e-03
1.600294e-03
1.517654e-03
1.570169e-03
7.040654e-04
7.278792e-04
7.614106e-04
8.127371e-04
8.717164e-04
9.329130e-04
9.893611e-04
1.024175e-03
9.633353e-04
6.400472e-04
3.031814e-04
6.409272e-04
6.386252e-04
6.278846e-04
6.395289e-04
6.601471e-04
6.792162e-04
6.827480e-04
6.428961e-04
5.104179e-04
2.753321e-04
2.391786e-04
5.694116e-04
5.505151e-04
5.108421e-04
4.933861e-04
4.852854e-04
4.746439e-04
4.470711e-04
3.835825e-04
2.651969e-04
1.512171e-04
2.073508e-04
4.936530e-04
4.670265e-04
4.138453e-04
3.795168e-04
3.541989e-04
3.282000e-04
2.905229e-04
2.299892e-04
1.387915e-04
9.852199e-05
1.775585e-04
4.192692e-04
3.913080e-04
3.363136e-04
2.966848e-04
2.664558e-04
2.380221e-04
2.025572e-04
1.507514e-04
7.912823e-05
6.918282e-05
1.404819e-04
3.500403e-04
3.243691e-04
2.748439e-04
2.397011e-04
2.143987e-04
1.906545e-04
1.610826e-04
1.178530e-04
6.086352e-05
4.937461e-05
1.049163e-04
2.878343e-04
2.662035e-04
2.265279e-04
2.015780e-04
1.850986e-04
1.679684e-04
1.446345e-04
1.090850e-04
6.221431e-05
4.323363e-05
8.033132e-05
2.330953e-04
2.162436e-04
1.879983e-04
1.753378e-04
1.684787e-04
1.577558e-04
1.389011e-04
1.096058e-04
7.136062e-05
5.304421e-05
7.347940e-05
1.853437e-04
1.740358e-04
1.590443e-04
1.589013e-04
1.608749e-04
1.553757e-04
1.393692e-04
1.140069e-04
8.505973e-05
7.380660e-05
8.465814e-05
1.439203e-04
1.396340e-04
1.409888e-04
1.540774e-04
1.623703e-04
1.586572e-04
1.441481e-04
1.228551e-04
1.018243e-04
9.794170e-05
1.061176e-04
1.104402e-04
1.184716e-04
1.411685e-04
1.632717e-04
1.720743e-04
1.677642e-04
1.542524e-04
1.362208e-04
1.207302e-04
1.208117e-04
1.285645e-04
9.942025e-05
1.331871e-04
1.673035e-04
1.836800e-04
1.871860e-04
1.813991e-04
1.683177e-04
1.520511e-04
1.400470e-04
1.396052e-04
1.454251e-04
1.225649e-04
1.603552e-04
1.862979e-04
1.953726e-04
1.954958e-04
1.888726e-04
1.764297e-04
1.614406e-04
1.502704e-04
1.478862e-04
1.514325e-04
</DataArray>
<DataArray Name="stress" type="Float64" NumberOfComponents="9" format="ascii">
-6.275747e+04 -1.306203e+02 0.000000e+00 -1.306203e+02 -6.931917e+04 0.000000e+00 0.000000e+00 0.000000e+00 0.000000e+00
-6.182716e+04 -3.967136e+00 0.000000e+00 -3.967136e+00 -6.924835e+04 0.000000e+00 0.000000e+00 0.000000e+00 0.000000e+00
-6.094318e+04 1.161857e+02 0.000000e+00 1.161857e+02 -6.947523e+04 0.000000e+00 0.000000e+00 0.000000e+00 0.000000e+00
-6.039872e+04 2.242147e+02 0.000000e+00 2.242147e+02 -6.985911e+04 0.000000e+00 0.000000e+00 0.000000e+00 0.000000e+00
-6.007164e+04 3.421228e+02 0.000000e+00 3.421228e+02 -7.042438e+04 0.000000e+00 0.000000e+00 0.000000e+00 0.000000e+00
-5.995612e+04 4.706306e+02 0.000000e+00 4.706306e+02 -7.119252e+04 0.000000e+00 0.000000e+00 0.000000e+00 0.000000e+00
-6.010730e+04 5.796589e+02 0.000000e+00 5.796589e+02 -7.214951e+04 0.000000e+00 0.000000e+00 0.000000e+00 0.000000e+00
-6.068638e+04 5.895624e+02 0.000000e+00 5.895624e+02 -7.315764e+04 0.000000e+00 0.000000e+00 0.000000e+00 0.000000e+00
-6.197963e+04 3.170299e+02 0.000000e+00 3.170299e+02 -7.384618e+04 0.000000e+00 0.000000e+00 0.000000e+00 0.000000e+00
-6.389950e+04 -1.205504e+02 0.000000e+00 -1.205504e+02 -7.398899e+04 0.000000e+00 0.000000e+00 0.000000e+00 0.000000e+00
-6.462754e+04 -3.361083e+02 0.000000e+00 -3.361083e+02 -7.379194e+04 0.000000e+00 0.000000e+00 0.000000e+00 0.000000e+00
-6.259325e+04 2.303855e+02 0.000000e+00 2.303855e+02 -6.864819e+04 0.000000e+00 0.000000e+00 0.000000e+00 0.000000e+00
-6.180007e+04 2.932337e+02 0.000000e+00 2.932337e+02 -6.871895e+04 0.000000e+00 0.000000e+00 0.000000e+00 0.000000e+00
-6.099800e+04 3.771375e+02 0.000000e+00 3.771375e+02 -6.909072e+04 0.000000e+00 0.000000e+00 0.000000e+00 0.000000e+00
-6.048811e+04 5.295634e+02 0.000000e+00 5.295634e+02 -6.950327e+04 0.000000e+00 0.000000e+00 0.000000e+00 0.000000e+00
-6.018709e+04 7.260315e+02 0.000000e+00 7.260315e+02 -7.004255e+04 0.000000e+00 0.000000e+00 0.000000e+00 0.000000e+00
-6.008195e+04 9.530637e+02 0.000000e+00 9.530637e+02 -7.075808e+04 0.000000e+00 0.000000e+00 0.000000e+00 0.000000e+00
-6.021964e+04 1.166044e+03 0.000000e+00 1.166044e+03 -7.168916e+04 0.000000e+00 0.000000e+00 0.000000e+00 0.000000e+00
-6.070389e+04 1.249169e+03 0.000000e+00 1.249169e+03 -7.285957e+04 0.000000e+00 0.000000e+00 0.000000e+00 0.000000e+00
-6.173522e+04 9.428183e+02 0.000000e+00 9.428183e+02 -7.421473e+04 0.000000e+00 0.000000e+00 0.000000e+00 0.000000e+00
-6.353997e+04 3.327237e+02 0.000000e+00 3.327237e+02 -7.545778e+04 0.000000e+00 0.000000e+00 0.000000e+00 0.000000e+00
-6.507604e+04 -3.384686e+02 0.000000e+00 -3.384686e+02 -7.617547e+04 0.000000e+00 0.000000e+00 0.000000e+00 0.000000e+00
-6.239312e+04 6.788409e+02 0.000000e+00 6.788409e+02 -6.772971e+04 0.000000e+00 0.000000e+00 0.000000e+00 0.000000e+00
-6.180220e+04 7.055131e+02 0.000000e+00 7.055131e+02 -6.782381e+04 0.000000e+00 0.000000e+00 0.000000e+00 0.000000e+00
-6.115007e+04 7.804757e+02 0.000000e+00 7.804757e+02 -6.816658e+04 0.000000e+00 0.000000e+00 0.000000e+00 0.000000e+00
-6.072352e+04 1.005993e+03 0.000000e+00 1.005993e+03 -6.852685e+04 0.000000e+00 0.000000e+00 0.000000e+00 0.000000e+00
-6.049368e+04 1.333577e+03 0.000000e+00 1.333577e+03 -6.894229e+04 0.000000e+00 0.000000e+00 0.000000e+00 0.000000e+00
-6.044041e+04 1.741928e+03 0.000000e+00 1.741928e+03 -6.945827e+04 0.000000e+00 0.000000e+00 0.000000e+00 0.000000e+00
-6.058132e+04 2.205121e+03 0.000000e+00 2.205121e+03 -7.014212e+04 0.000000e+00 0.000000e+00 0.000000e+00 0.000000e+00
-6.097257e+04 2.688544e+03 0.000000e+00 2.688544e+03 -7.116324e+04 0.000000e+00 0.000000e+00 0.000000e+00 0.000000e+00
-6.181655e+04 3.122830e+03 0.000000e+00 3.122830e+03 -7.300362e+04 0.000000e+00 0.000000e+00 0.000000e+00 0.000000e+00
-6.448421e+04 3.596665e+03 0.000000e+00 3.596665e+03 -7.640170e+04 0.000000e+00 0.000000e+00 0.000000e+00 0.000000e+00
-6.908144e+04 4.190604e+03 0.000000e+00 4.190604e+03 -7.960920e+04 0.000000e+00 0.000000e+00 0.000000e+00 0.000000e+00
-6.214481e+04 1.010917e+03 0.000000e+00 1.010917e+03 -6.667684e+04 0.000000e+00 0.000000e+00 0.000000e+00 0.000000e+00
-6.175040e+04 1.032149e+03 0.000000e+00 1.032149e+03 -6.673910e+04 0.000000e+00 0.000000e+00 0.000000e+00 0.000000e+00
-6.131543e+04 1.088347e+03 0.000000e+00 1.088347e+03 -6.695139e+04 0.000000e+00 0.000000e+00 0.000000e+00 0.000000e+00
-6.103625e+04 1.319195e+03 0.000000e+00 1.319195e+03 -6.714277e+04 0.000000e+00 0.000000e+00 0.000000e+00 0.000000e+00
-6.091251e+04 1.679208e+03 0.000000e+00 1.679208e+03 -6.731372e+04 0.000000e+00 0.000000e+00 0.000000e+00 0.000000e+00
-6.093962e+04 2.143078e+03 0.000000e+00 2.143078e+03 -6.745988e+04 0.000000e+00 0.000000e+00 0.000000e+00 0.000000e+00
-6.112698e+04 2.699328e+03 0.000000e+00 2.699328e+03 -6.756208e+04 0.000000e+00 0.000000e+00 0.000000e+00 0.000000e+00
-6.149004e+04 3.348647e+03 0.000000e+00 3.348647e+03 -6.754805e+04 0.000000e+00 0.000000e+00 0.000000e+00 0.000000e+00
-6.208938e+04 4.117416e+03 0.000000e+00 4.117416e+03 -6.711523e+04 0.000000e+00 0.000000e+00 0.000000e+00 0.000000e+00
-6.292745e+04 4.171737e+03 0.000000e+00 4.171737e+03 -6.507054e+04 0.000000e+00 0.000000e+00 0.000000e+00 0.000000e+00
-6.408505e+04 4.187434e+03 0.000000e+00 4.187434e+03 -6.374653e+04 0.000000e+00 0.000000e+00 0.000000e+00 0.000000e+00
-6.186705e+04 1.206125e+03 0.000000e+00 1.206125e+03 -6.550686e+04 0.000000e+00 0.000000e+00 0.000000e+00 0.000000e+00
-6.167044e+04 1.214658e+03 0.000000e+00 1.214658e+03 -6.552793e+04 0.000000e+00 0.000000e+00 0.000000e+00 0.000000e+00
-6.145181e+04 1.232984e+03 0.000000e+00 1.232984e+03 -6.559621e+04 0.000000e+00 0.000000e+00 0.000000e+00 0.000000e+00
-6.132791e+04 1.412582e+03 0.000000e+00 1.412582e+03 -6.560608e+04 0.000000e+00 0.000000e+00 0.000000e+00 0.000000e+00
-6.131429e+04 1.705005e+03 0.000000e+00 1.705005e+03 -6.552957e+04 0.000000e+00 0.000000e+00 0.000000e+00 0.000000e+00
-6.141821e+04 2.067535e+03 0.000000e+00 2.067535e+03 -6.532235e+04 0.000000e+00 0.000000e+00 0.000000e+00 0.000000e+00
-6.164188e+04 2.449161e+03 0.000000e+00 2.449161e+03 -6.491017e+04 0.000000e+00 0.000000e+00 0.000000e+00 0.000000e+00
-6.198009e+04 2.766393e+03 0.000000e+00 2.766393e+03 -6.416147e+04 0.000000e+00 0.000000e+00 0.000000e+00 0.000000e+00
-6.235098e+04 2.699910e+03 0.000000e+00 2.699910e+03 -6.282232e+04 0.000000e+00 0.000000e+00 0.000000e+00 0.000000e+00
-6.196263e+04 1.635040e+03 0.000000e+00 1.635040e+03 -6.129605e+04 0.000000e+00 0.000000e+00 0.000000e+00 0.000000e+00
-5.972025e+04 5.215308e+02 0.000000e+00 5.215308e+02 -6.004853e+04 0.000000e+00 0.000000e+00 0.000000e+00 0.000000e+00
-6.157488e+04 1.252091e+03 0.000000e+00 1.252091e+03 -6.435214e+04 0.000000e+00 0.000000e+00 0.000000e+00 0.000000e+00
-6.155755e+04 1.242643e+03 0.000000e+00 1.242643e+03 -6.433342e+04 0.000000e+00 0.000000e+00 0.000000e+00 0.000000e+00
-6.153037e+04 1.209251e+03 0.000000e+00 1.209251e+03 -6.427222e+04 0.000000e+00 0.000000e+00 0.000000e+00 0.000000e+00
-6.153864e+04 1.298840e+03 0.000000e+00 1.298840e+03 -6.414209e+04 0.000000e+00 0.000000e+00 0.000000e+00 0.000000e+00
-6.160235e+04 1.458070e+03 0.000000e+00 1.458070e+03 -6.390314e+04 0.000000e+00 0.000000e+00 0.000000e+00 0.000000e+00
-6.172488e+04 1.634083e+03 0.000000e+00 1.634083e+03 -6.351370e+04 0.000000e+00 0.000000e+00 0.000000e+00 0.000000e+00
-6.189134e+04 1.754119e+03 0.000000e+00 1.754119e+03 -6.293359e+04 0.000000e+00 0.000000e+00 0.000000e+00 0.000000e+00
-6.201079e+04 1.682234e+03 0.000000e+00 1.682234e+03 -6.211451e+04 0.000000e+00 0.000000e+00 0.000000e+00 0.000000e+00
-6.180613e+04 1.230193e+03 0.000000e+00 1.230193e+03 -6.117310e+04 0.000000e+00 0.000000e+00 0.000000e+00 0.000000e+00
-6.046973e+04 4.794237e+02 0.000000e+00 4.794237e+02 -6.043440e+04 0.000000e+00 0.000000e+00 0.000000e+00 0.000000e+00
-5.867903e+04 6.619971e+01 0.000000e+00 6.619971e+01 -5.994489e+04 0.000000e+00 0.000000e+00 0.000000e+00 0.000000e+00
-6.127709e+04 1.179023e+03 0.000000e+00 1.179023e+03 -6.328780e+04 0.000000e+00 0.000000e+00 0.000000e+00 0.000000e+00
-6.140202e+04 1.151437e+03 0.000000e+00 1.151437e+03 -6.324603e+04 0.000000e+00 0.000000e+00 0.000000e+00 0.000000e+00
-6.152072e+04 1.067271e+03 0.000000e+00 1.067271e+03 -6.310406e+04 0.000000e+00 0.000000e+00 0.000000e+00 0.000000e+00
-6.161938e+04 1.065301e+03 0.000000e+00 1.065301e+03 -6.290449e+04 0.000000e+00 0.000000e+00 0.000000e+00 0.000000e+00
-6.171927e+04 1.098894e+03 0.000000e+00 1.098894e+03 -6.261762e+04 0.000000e+00 0.000000e+00 0.000000e+00 0.000000e+00
-6.181338e+04 1.112581e+03 0.000000e+00 1.112581e+03 -6.221715e+04 0.000000e+00 0.000000e+00 0.000000e+00 0.000000e+00
-6.185620e+04 1.040342e+03 0.000000e+00 1.040342e+03 -6.169633e+04 0.000000e+00 0.000000e+00 0.000000e+00 0.000000e+00
-6.172339e+04 8.105081e+02 0.000000e+00 8.105081e+02 -6.109870e+04 0.000000e+00 0.000000e+00 0.000000e+00 0.000000e+00
-6.116227e+04 4.097354e+02 0.000000e+00 4.097354e+02 -6.053707e+04 0.000000e+00 0.000000e+00 0.000000e+00 0.000000e+00
-5.988636e+04 6.328753e+01 0.000000e+00 6.328753e+01 -6.017248e+04 0.000000e+00 0.000000e+00 0.000000e+00 0.000000e+00
-5.860813e+04 -1.198603e+02 0.000000e+00 -1.198603e+02 -5.990546e+04 0.000000e+00 0.000000e+00 0.000000e+00 0.000000e+00
-6.101168e+04 1.039116e+03 0.000000e+00 1.039116e+03 -6.238866e+04 0.000000e+00 0.000000e+00 0.000000e+00 0.000000e+00
-6.123275e+04 9.972404e+02 0.000000e+00 9.972404e+02 -6.234130e+04 0.000000e+00 0.000000e+00 0.000000e+00 0.000000e+00
-6.145130e+04 8.750279e+02 0.000000e+00 8.750279e+02 -6.216995e+04 0.000000e+00 0.000000e+00 0.000000e+00 0.000000e+00
-6.160349e+04 7.986221e+02 0.000000e+00 7.986221e+02 -6.195918e+04 0.000000e+00 0.000000e+00 0.000000e+00 0.000000e+00
-6.170588e+04 7.364765e+02 0.000000e+00 7.364765e+02 -6.168687e+04 0.000000e+00 0.000000e+00 0.000000e+00 0.000000e+00
-6.174660e+04 6.450616e+02 0.000000e+00 6.450616e+02 -6.135106e+04 0.000000e+00 0.000000e+00 0.000000e+00 0.000000e+00
-6.167552e+04 4.878071e+02 0.000000e+00 4.878071e+02 -6.096525e+04 0.000000e+00 0.000000e+00 0.000000e+00 0.000000e+00
-6.139412e+04 2.492427e+02 0.000000e+00 2.492427e+02 -6.057419e+04 0.000000e+00 0.000000e+00 0.000000e+00 0.000000e+00
-6.076370e+04 -1.912828e+00 0.000000e+00 -1.912828e+00 -6.025147e+04 0.000000e+00 0.000000e+00 0.000000e+00 0.000000e+00
-5.970812e+04 -1.120193e+02 0.000000e+00 -1.120193e+02 -6.007970e+04 0.000000e+00 0.000000e+00 0.000000e+00 0.000000e+00
-5.880419e+04 -1.695840e+02 0.000000e+00 -1.695840e+02 -5.992173e+04 0.000000e+00 0.000000e+00 0.000000e+00 0.000000e+00
-6.078975e+04 8.613055e+02 0.000000e+00 8.613055e+02 -6.168524e+04 0.000000e+00 0.000000e+00 0.000000e+00 0.000000e+00
-6.105496e+04 8.127435e+02 0.000000e+00 8.127435e+02 -6.163394e+04 0.000000e+00 0.000000e+00 0.000000e+00 0.000000e+00
-6.132777e+04 6.701072e+02 0.000000e+00 6.701072e+02 -6.145906e+04 0.000000e+00 0.000000e+00 0.000000e+00 0.000000e+00
-6.150686e+04 5.479916e+02 0.000000e+00 5.479916e+02 -6.126611e+04 0.000000e+00 0.000000e+00 0.000000e+00 0.000000e+00
-6.159945e+04 4.288899e+02 0.000000e+00 4.288899e+02 -6.104036e+04 0.000000e+00 0.000000e+00 0.000000e+00 0.000000e+00
-6.159464e+04 2.895759e+02 0.000000e+00 2.895759e+02 -6.078446e+04 0.000000e+00 0.000000e+00 0.000000e+00 0.000000e+00
-6.145724e+04 1.148836e+02 0.000000e+00 1.148836e+02 -6.052381e+04 0.000000e+00 0.000000e+00 0.000000e+00 0.000000e+00
-6.113607e+04 -8.578092e+01 0.000000e+00 -8.578092e+01 -6.028875e+04 0.000000e+00 0.000000e+00 0.000000e+00 0.000000e+00
-6.056549e+04 -2.062163e+02 0.000000e+00 -2.062163e+02 -6.011021e+04 0.000000e+00 0.000000e+00 0.000000e+00 0.000000e+00
-5.975351e+04 -1.861939e+02 0.000000e+00 -1.861939e+02 -6.003148e+04 0.000000e+00 0.000000e+00 0.000000e+00 0.000000e+00
-5.911167e+04 -1.734027e+02 0.000000e+00 -1.734027e+02 -5.994517e+04 0.000000e+00 0.000000e+00 0.000000e+00 0.000000e+00
-6.060448e+04 6.747296e+02 0.000000e+00 6.747296e+02 -6.114612e+04 0.000000e+00 0.000000e+00 0.000000e+00 0.000000e+00
-6.088300e+04 6.224427e+02 0.000000e+00 6.224427e+02 -6.109784e+04 0.000000e+00 0.000000e+00 0.000000e+00 0.000000e+00
-6.117560e+04 4.761475e+02 0.000000e+00 4.761475e+02 -6.093473e+04 0.000000e+00 0.000000e+00 0.000000e+00 0.000000e+00
-6.136271e+04 3.351118e+02 0.000000e+00 3.351118e+02 -6.076929e+04 0.000000e+00 0.000000e+00 0.000000e+00 0.000000e+00
-6.144500e+04 1.898376e+02 0.000000e+00 1.898376e+02 -6.059920e+04 0.000000e+00 0.000000e+00 0.000000e+00 0.000000e+00
-6.141802e+04 4.025305e+01 0.000000e+00 4.025305e+01 -6.042205e+04 0.000000e+00 0.000000e+00 0.000000e+00 0.000000e+00
-6.126261e+04 -1.172726e+02 0.000000e+00 -1.172726e+02 -6.025663e+04 0.000000e+00 0.000000e+00 0.000000e+00 0.000000e+00
-6.096046e+04 -2.606150e+02 0.000000e+00 -2.606150e+02 -6.012487e+04 0.000000e+00 0.000000e+00 0.000000e+00 0.000000e+00
-6.049728e+04 -2.947398e+02 0.000000e+00 -2.947398e+02 -6.003181e+04 0.000000e+00 0.000000e+00 0.000000e+00 0.000000e+00
-5.990204e+04 -2.057554e+02 0.000000e+00 -2.057554e+02 -6.000110e+04 0.000000e+00 0.000000e+00 0.000000e+00 0.000000e+00
-5.946780e+04 -1.338436e+02 0.000000e+00 -1.338436e+02 -5.996349e+04 0.000000e+00 0.000000e+00 0.000000e+00 0.000000e+00
-6.045180e+04 4.975886e+02 0.000000e+00 4.975886e+02 -6.073832e+04 0.000000e+00 0.000000e+00 0.000000e+00 0.000000e+00
-6.072159e+04 4.462516e+02 0.000000e+00 4.462516e+02 -6.069683e+04 0.000000e+00 0.000000e+00 0.000000e+00 0.000000e+00
-6.101374e+04 3.093510e+02 0.000000e+00 3.093510e+02 -6.055433e+04 0.000000e+00 0.000000e+00 0.000000e+00 0.000000e+00
-6.120032e+04 1.650610e+02 0.000000e+00 1.650610e+02 -6.042083e+04 0.000000e+00 0.000000e+00 0.000000e+00 0.000000e+00
-6.127865e+04 2.004696e+01 0.000000e+00 2.004696e+01 -6.029453e+04 0.000000e+00 0.000000e+00 0.000000e+00 0.000000e+00
-6.124978e+04 -1.195404e+02 0.000000e+00 -1.195404e+02 -6.017839e+04 0.000000e+00 0.000000e+00 0.000000e+00 0.000000e+00
-6.110872e+04 -2.485722e+02 0.000000e+00 -2.485722e+02 -6.008205e+04 0.000000e+00 0.000000e+00 0.000000e+00 0.000000e+00
-6.085876e+04 -3.404549e+02 0.000000e+00 -3.404549e+02 -6.001708e+04 0.000000e+00 0.000000e+00 0.000000e+00 0.000000e+00
-6.050639e+04 -3.222725e+02 0.000000e+00 -3.222725e+02 -5.998361e+04 0.000000e+00 0.000000e+00 0.000000e+00 0.000000e+00
-6.008838e+04 -2.125900e+02 0.000000e+00 -2.125900e+02 -5.998301e+04 0.000000e+00 0.000000e+00 0.000000e+00 0.000000e+00
-5.980738e+04 -1.214669e+02 0.000000e+00 -1.214669e+02 -5.997099e+04 0.000000e+00 0.000000e+00 0.000000e+00 0.000000e+00
-6.032586e+04 3.368268e+02 0.000000e+00 3.368268e+02 -6.043055e+04 0.000000e+00 0.000000e+00 0.000000e+00 0.000000e+00
-6.057484e+04 2.911623e+02 0.000000e+00 2.911623e+02 -6.039339e+04 0.000000e+00 0.000000e+00 0.000000e+00 0.000000e+00
-6.085520e+04 1.699368e+02 0.000000e+00 1.699368e+02 -6.027062e+04 0.000000e+00 0.000000e+00 0.000000e+00 0.000000e+00
-6.104354e+04 3.438041e+01 0.000000e+00 3.438041e+01 -6.016682e+04 0.000000e+00 0.000000e+00 0.000000e+00 0.000000e+00
-6.112438e+04 -9.634142e+01 0.000000e+00 -9.634142e+01 -6.008013e+04 0.000000e+00 0.000000e+00 0.000000e+00 0.000000e+00
-6.110780e+04 -2.122570e+02 0.000000e+00 -2.122570e+02 -6.001000e+04 0.000000e+00 0.000000e+00 0.000000e+00 0.000000e+00
-6.099918e+04 -3.099590e+02 0.000000e+00 -3.099590e+02 -5.996897e+04 0.000000e+00 0.000000e+00 0.000000e+00 0.000000e+00
-6.081243e+04 -3.655723e+02 0.000000e+00 -3.655723e+02 -5.995194e+04 0.000000e+00 0.000000e+00 0.000000e+00 0.000000e+00
-6.055618e+04 -3.191207e+02 0.000000e+00 -3.191207e+02 -5.995443e+04 0.000000e+00 0.000000e+00 0.000000e+00 0.000000e+00
-6.027591e+04 -2.017700e+02 0.000000e+00 -2.017700e+02 -5.997334e+04 0.000000e+00 0.000000e+00 0.000000e+00 0.000000e+00
-6.009896e+04 -1.183587e+02 0.000000e+00 -1.183587e+02 -5.997554e+04 0.000000e+00 0.000000e+00 0.000000e+00 0.000000e+00
-6.022339e+04 1.983810e+02 0.000000e+00 1.983810e+02 -6.018886e+04 0.000000e+00 0.000000e+00 0.000000e+00 0.000000e+00
-6.044883e+04 1.578631e+02 0.000000e+00 1.578631e+02 -6.015406e+04 0.000000e+00 0.000000e+00 0.000000e+00 0.000000e+00
-6.072661e+04 5.664997e+01 0.000000e+00 5.664997e+01 -6.005052e+04 0.000000e+00 0.000000e+00 0.000000e+00 0.000000e+00
-6.090787e+04 -6.281305e+01 0.000000e+00 -6.281305e+01 -5.996983e+04 0.000000e+00 0.000000e+00 0.000000e+00 0.000000e+00
-6.099766e+04 -1.680145e+02 0.000000e+00 -1.680145e+02 -5.991845e+04 0.000000e+00 0.000000e+00 0.000000e+00 0.000000e+00
-6.100151e+04 -2.528339e+02 0.000000e+00 -2.528339e+02 -5.988416e+04 0.000000e+00 0.000000e+00 0.000000e+00 0.000000e+00
-6.092855e+04 -3.197904e+02 0.000000e+00 -3.197904e+02 -5.988438e+04 0.000000e+00 0.000000e+00 0.000000e+00 0.000000e+00
-6.079334e+04 -3.383533e+02 0.000000e+00 -3.383533e+02 -5.990345e+04 0.000000e+00 0.000000e+00 0.000000e+00 0.000000e+00
-6.061946e+04 -2.852613e+02 0.000000e+00 -2.852613e+02 -5.993557e+04 0.000000e+00 0.000000e+00 0.000000e+00 0.000000e+00
-6.045488e+04 -1.745297e+02 0.000000e+00 -1.745297e+02 -5.996969e+04 0.000000e+00 0.000000e+00 0.000000e+00 0.000000e+00
-6.035946e+04 -9.844376e+01 0.000000e+00 -9.844376e+01 -5.998147e+04 0.000000e+00 0.000000e+00 0.000000e+00 0.000000e+00
-6.013366e+04 6.924938e+01 0.000000e+00 6.924938e+01 -5.996407e+04 0.000000e+00 0.000000e+00 0.000000e+00 0.000000e+00
-6.034177e+04 4.242434e+01 0.000000e+00 4.242434e+01 -5.992685e+04 0.000000e+00 0.000000e+00 0.000000e+00 0.000000e+00
-6.061800e+04 -4.038948e+01 0.000000e+00 -4.038948e+01 -5.984791e+04 0.000000e+00 0.000000e+00 0.000000e+00 0.000000e+00
-6.080779e+04 -1.249496e+02 0.000000e+00 -1.249496e+02 -5.979495e+04 0.000000e+00 0.000000e+00 0.000000e+00 0.000000e+00
-6.090740e+04 -1.973069e+02 0.000000e+00 -1.973069e+02 -5.977821e+04 0.000000e+00 0.000000e+00 0.000000e+00 0.000000e+00
-6.093327e+04 -2.513916e+02 0.000000e+00 -2.513916e+02 -5.978942e+04 0.000000e+00 0.000000e+00 0.000000e+00 0.000000e+00
-6.089009e+04 -2.859958e+02 0.000000e+00 -2.859958e+02 -5.982203e+04 0.000000e+00 0.000000e+00 0.000000e+00 0.000000e+00
-6.079221e+04 -2.811935e+02 0.000000e+00 -2.811935e+02 -5.986590e+04 0.000000e+00 0.000000e+00 0.000000e+00 0.000000e+00
-6.068577e+04 -2.291414e+02 0.000000e+00 -2.291414e+02 -5.991880e+04 0.000000e+00 0.000000e+00 0.000000e+00 0.000000e+00
-6.060402e+04 -1.401029e+02 0.000000e+00 -1.401029e+02 -5.996975e+04 0.000000e+00 0.000000e+00 0.000000e+00 0.000000e+00
-6.057146e+04 -7.818584e+01 0.000000e+00 -7.818584e+01 -5.999034e+04 0.000000e+00 0.000000e+00 0.000000e+00 0.000000e+00
-6.005526e+04 -4.497331e+01 0.000000e+00 -4.497331e+01 -5.971511e+04 0.000000e+00 0.000000e+00 0.000000e+00 0.000000e+00
-6.025973e+04 -6.260967e+01 0.000000e+00 -6.260967e+01 -5.968518e+04 0.000000e+00 0.000000e+00 0.000000e+00 0.000000e+00
-6.054119e+04 -1.086625e+02 0.000000e+00 -1.086625e+02 -5.962882e+04 0.000000e+00 0.000000e+00 0.000000e+00 0.000000e+00
-6.075116e+04 -1.441564e+02 0.000000e+00 -1.441564e+02 -5.962680e+04 0.000000e+00 0.000000e+00 0.000000e+00 0.000000e+00
-6.085753e+04 -1.816239e+02 0.000000e+00 -1.816239e+02 -5.965996e+04 0.000000e+00 0.000000e+00 0.000000e+00 0.000000e+00
-6.089441e+04 -2.069277e+02 0.000000e+00 -2.069277e+02 -5.970992e+04 0.000000e+00 0.000000e+00 0.000000e+00 0.000000e+00
-6.087059e+04 -2.174767e+02 0.000000e+00 -2.174767e+02 -5.976739e+04 0.000000e+00 0.000000e+00 0.000000e+00 0.000000e+00
-6.080488e+04 -2.066154e+02 0.000000e+00 -2.066154e+02 -5.984233e+04 0.000000e+00 0.000000e+00 0.000000e+00 0.000000e+00
-6.074171e+04 -1.598496e+02 0.000000e+00 -1.598496e+02 -5.991047e+04 0.000000e+00 0.000000e+00 0.000000e+00 0.000000e+00
-6.071393e+04 -9.833189e+01 0.000000e+00 -9.833189e+01 -5.996607e+04 0.000000e+00 0.000000e+00 0.000000e+00 0.000000e+00
-6.072280e+04 -6.075299e+01 0.000000e+00 -6.075299e+01 -5.999507e+04 0.000000e+00 0.000000e+00 0.000000e+00 0.000000e+00
-5.996866e+04 -1.785635e+02 0.000000e+00 -1.785635e+02 -5.937509e+04 0.000000e+00 0.000000e+00 0.000000e+00 0.000000e+00
-6.023250e+04 -1.355044e+02 0.000000e+00 -1.355044e+02 -5.939818e+04 0.000000e+00 0.000000e+00 0.000000e+00 0.000000e+00
-6.052668e+04 -1.188673e+02 0.000000e+00 -1.188673e+02 -5.942553e+04 0.000000e+00 0.000000e+00 0.000000e+00 0.000000e+00
-6.073287e+04 -1.073685e+02 0.000000e+00 -1.073685e+02 -5.949596e+04 0.000000e+00 0.000000e+00 0.000000e+00 0.000000e+00
-6.083702e+04 -1.125867e+02 0.000000e+00 -1.125867e+02 -5.956875e+04 0.000000e+00 0.000000e+00 0.000000e+00 0.000000e+00
-6.087546e+04 -1.207087e+02 0.000000e+00 -1.207087e+02 -5.964862e+04 0.000000e+00 0.000000e+00 0.000000e+00 0.000000e+00
-6.086762e+04 -1.290405e+02 0.000000e+00 -1.290405e+02 -5.973514e+04 0.000000e+00 0.000000e+00 0.000000e+00 0.000000e+00
-6.081893e+04 -1.158275e+02 0.000000e+00 -1.158275e+02 -5.982457e+04 0.000000e+00 0.000000e+00 0.000000e+00 0.000000e+00
-6.077655e+04 -8.173307e+01 0.000000e+00 -8.173307e+01 -5.990307e+04 0.000000e+00 0.000000e+00 0.000000e+00 0.000000e+00
-6.077964e+04 -5.154384e+01 0.000000e+00 -5.154384e+01 -5.996328e+04 0.000000e+00 0.000000e+00 0.000000e+00 0.000000e+00
-6.081578e+04 -3.606465e+01 0.000000e+00 -3.606465e+01 -5.999557e+04 0.000000e+00 0.000000e+00 0.000000e+00 0.000000e+00
-5.983291e+04 -2.915620e+02 0.000000e+00 -2.915620e+02 -5.894056e+04 0.000000e+00 0.000000e+00 0.000000e+00 0.000000e+00
-6.019480e+04 -1.736171e+02 0.000000e+00 -1.736171e+02 -5.910825e+04 0.000000e+00 0.000000e+00 0.000000e+00 0.000000e+00
-6.053976e+04 -1.018266e+02 0.000000e+00 -1.018266e+02 -5.931512e+04 0.000000e+00 0.000000e+00 0.000000e+00 0.000000e+00
-6.073600e+04 -7.593508e+01 0.000000e+00 -7.593508e+01 -5.944284e+04 0.000000e+00 0.000000e+00 0.000000e+00 0.000000e+00
-6.083282e+04 -6.683240e+01 0.000000e+00 -6.683240e+01 -5.953433e+04 0.000000e+00 0.000000e+00 0.000000e+00 0.000000e+00
-6.087170e+04 -6.937213e+01 0.000000e+00 -6.937213e+01 -5.963040e+04 0.000000e+00 0.000000e+00 0.000000e+00 0.000000e+00
-6.087252e+04 -7.876440e+01 0.000000e+00 -7.876440e+01 -5.973317e+04 0.000000e+00 0.000000e+00 0.000000e+00 0.000000e+00
-6.082531e+04 -6.352964e+01 0.000000e+00 -6.352964e+01 -5.982065e+04 0.000000e+00 0.000000e+00 0.000000e+00 0.000000e+00
-6.078903e+04 -3.691251e+01 0.000000e+00 -3.691251e+01 -5.989496e+04 0.000000e+00 0.000000e+00 0.000000e+00 0.000000e+00
-6.079959e+04 -3.037098e+01 0.000000e+00 -3.037098e+01 -5.995720e+04 0.000000e+00 0.000000e+00 0.000000e+00 0.000000e+00
-6.084614e+04 -2.797076e+01 0.000000e+00 -2.797076e+01 -5.999150e+04 0.000000e+00 0.000000e+00 0.000000e+00 0.000000e+00
</DataArray>
<DataArray Name="vol_eps" type="Float64" NumberOfComponents="1" format="ascii">
-7.857022e-04
-7.200862e-04
-6.754733e-04
-6.626758e-04
-6.767836e-04
-7.182147e-04
-7.890436e-04
-8.919575e-04
-1.022997e-03
-1.159049e-03
-1.193526e-03
-7.317429e-04
-6.841008e-04
-6.543364e-04
-6.455657e-04
-6.590173e-04
-6.976145e-04
-7.661143e-04
-8.728537e-04
-1.028786e-03
-1.228838e-03
-1.377051e-03
-6.596301e-04
-6.267751e-04
-6.052690e-04
-5.988150e-04
-6.082173e-04
-6.361030e-04
-6.884217e-04
-7.789668e-04
-9.512558e-04
-1.343440e-03
-1.853323e-03
-5.759461e-04
-5.539080e-04
-5.386142e-04
-5.316109e-04
-5.329420e-04
-5.424340e-04
-5.595211e-04
-5.804747e-04
-5.875502e-04
-5.036287e-04
-4.897463e-04
-4.826075e-04
-4.709833e-04
-4.609138e-04
-4.529915e-04
-4.464075e-04
-4.388649e-04
-4.256227e-04
-3.966417e-04
-3.319667e-04
-2.099821e-04
1.880554e-05
-3.889598e-04
-3.866424e-04
-3.810892e-04
-3.732114e-04
-3.618719e-04
-3.443688e-04
-3.160129e-04
-2.693123e-04
-1.947510e-04
-6.089163e-05
9.497726e-05
-3.017735e-04
-3.076455e-04
-3.068177e-04
-3.004473e-04
-2.879373e-04
-2.670919e-04
-2.349607e-04
-1.866548e-04
-1.132814e-04
-5.559922e-06
1.017650e-04
-2.261204e-04
-2.377241e-04
-2.412981e-04
-2.375452e-04
-2.263919e-04
-2.064775e-04
-1.758525e-04
-1.313242e-04
-6.967553e-05
1.324311e-05
8.814854e-05
-1.642337e-04
-1.788229e-04
-1.859414e-04
-1.856930e-04
-1.769320e-04
-1.592624e-04
-1.324849e-04
-9.566628e-05
-4.720184e-05
1.490917e-05
6.672607e-05
-1.158011e-04
-1.315789e-04
-1.413887e-04
-1.435388e-04
-1.368086e-04
-1.225854e-04
-1.014764e-04
-7.335956e-05
-3.655075e-05
9.032851e-06
4.375195e-05
-7.860164e-05
-9.437987e-05
-1.056056e-04
-1.091820e-04
-1.049963e-04
-9.492270e-05
-7.941720e-05
-5.933778e-05
-3.271412e-05
-4.712225e-07
2.209031e-05
-4.991589e-05
-6.510007e-05
-7.675909e-05
-8.139505e-05
-8.008112e-05
-7.423065e-05
-6.450462e-05
-5.152436e-05
-3.308649e-05
-1.130139e-05
2.920003e-06
-2.732347e-05
-4.219644e-05
-5.381210e-05
-5.900809e-05
-6.058552e-05
-5.855070e-05
-5.410783e-05
-4.710189e-05
-3.646289e-05
-2.303486e-05
-1.469466e-05
-8.584416e-06
-2.237451e-05
-3.392714e-05
-4.063073e-05
-4.498342e-05
-4.745751e-05
-4.747477e-05
-4.469300e-05
-3.983890e-05
-3.410160e-05
-3.062772e-05
9.533777e-06
-2.802775e-06
-1.547328e-05
-2.553158e-05
-3.363278e-05
-3.943914e-05
-4.235184e-05
-4.378276e-05
-4.304371e-05
-4.207567e-05
-4.280713e-05
3.792921e-05
1.897167e-05
-2.516236e-07
-1.543396e-05
-2.653581e-05
-3.432772e-05
-3.984290e-05
-4.317075e-05
-4.483428e-05
-4.676399e-05
-5.022925e-05
7.787954e-05
4.171425e-05
7.060123e-06
-1.186529e-05
-2.423774e-05
-3.320579e-05
-4.017377e-05
-4.319058e-05
-4.466954e-05
-4.755288e-05
-5.212711e-05
</DataArray>
</PointData>
</Piece>
</UnstructuredGrid>
</VTKFile>
