<?xml version="1.0"?>
<VTKFile type="UnstructuredGrid" version="0.1">
<UnstructuredGrid>
<FieldData>
<DataArray Name="TIME" type="Float64" format="ascii" NumberOfTuples="1">
0.000000e+00
</DataArray>
</FieldData>
<FieldData>
<DataArray Name="CYCLE" type="Int32" format="ascii" NumberOfTuples="1">
0
</DataArray>
</FieldData>
<Piece NumberOfPoints="187" NumberOfCells="160">
<Points>
<DataArray NumberOfComponents="3" type="Float64" format="ascii">
0.000000e+00 0.000000e+00 0.000000e+00
0.000000e+00 1.971476e-01 0.000000e+00
0.000000e+00 3.930846e-01 0.000000e+00
0.000000e+00 5.872098e-01 0.000000e+00
0.000000e+00 7.797351e-01 0.000000e+00
0.000000e+00 9.715666e-01 0.000000e+00
0.000000e+00 1.163149e+00 0.000000e+00
0.000000e+00 1.354980e+00 0.000000e+00
0.000000e+00 1.548260e+00 0.000000e+00
0.000000e+00 1.744079e+00 0.000000e+00
0.000000e+00 1.940375e+00 0.000000e+00
2.250000e-01 0.000000e+00 0.000000e+00
2.264548e-01 1.971453e-01 0.000000e+00
2.284999e-01 3.931124e-01 0.000000e+00
2.307975e-01 5.879177e-01 0.000000e+00
2.321851e-01 7.814685e-01 0.000000e+00
2.326820e-01 9.741151e-01 0.000000e+00
2.324793e-01 1.166328e+00 0.000000e+00
2.313143e-01 1.358537e+00 0.000000e+00
2.285761e-01 1.550927e+00 0.000000e+00
2.255147e-01 1.744373e+00 0.000000e+00
2.250000e-01 1.940375e+00 0.000000e+00
4.500000e-01 0.000000e+00 0.000000e+00
4.531455e-01 1.974936e-01 0.000000e+00
4.564845e-01 3.941759e-01 0.000000e+00
4.594624e-01 5.904104e-01 0.000000e+00
4.617743e-01 7.862875e-01 0.000000e+00
4.632166e-01 9.814861e-01 0.000000e+00
4.637297e-01 1.175714e+00 0.000000e+00
4.631678e-01 1.368733e+00 0.000000e+00
4.608917e-01 1.560134e+00 0.000000e+00
4.568700e-01 1.750364e+00 0.000000e+00
4.500000e-01 1.940375e+00 0.000000e+00
6.750000e-01 0.000000e+00 0.000000e+00
6.794017e-01 1.985184e-01 0.000000e+00
6.832212e-01 3.968502e-01 0.000000e+00
6.862278e-01 5.952982e-01 0.000000e+00
6.886684e-01 7.939449e-01 0.000000e+00
6.904952e-01 9.928305e-01 0.000000e+00
6.916127e-01 1.192022e+00 0.000000e+00
6.918259e-01 1.391558e+00 0.000000e+00
6.905282e-01 1.591611e+00 0.000000e+00
6.873467e-01 1.791985e+00 0.000000e+00
6.815966e-01 1.992249e+00 0.000000e+00
9.000000e-01 0.000000e+00 0.000000e+00
9.048207e-01 1.989244e-01 0.000000e+00
9.083355e-01 3.979251e-01 0.000000e+00
9.109662e-01 5.971522e-01 0.000000e+00
9.130683e-01 7.966172e-01 0.000000e+00
9.145746e-01 9.963504e-01 0.000000e+00
9.153660e-01 1.196385e+00 0.000000e+00
9.151905e-01 1.396760e+00 0.000000e+00
9.137394e-01 1.597352e+00 0.000000e+00
9.108871e-01 1.797898e+00 0.000000e+00
9.069819e-01 1.997918e+00 0.000000e+00
1.125000e+00 0.000000e+00 0.000000e+00
1.129868e+00 1.993450e-01 0.000000e+00
1.132883e+00 3.988419e-01 0.000000e+00
1.135190e+00 5.985675e-01 0.000000e+00
1.136974e+00 7.985180e-01 0.000000e+00
1.138177e+00 9.987156e-01 0.000000e+00
1.138689e+00 1.199176e+00 0.000000e+00
1.138348e+00 1.399858e+00 0.000000e+00
1.137036e+00 1.600606e+00 0.000000e+00
1.134896e+00 1.801124e+00 0.000000e+00
1.132496e+00 2.001201e+00 0.000000e+00
1.350000e+00 0.000000e+00 0.000000e+00
1.354532e+00 1.996873e-01 0.000000e+00
1.357150e+00 3.995131e-01 0.000000e+00
1.359145e+00 5.995319e-01 0.000000e+00
1.360642e+00 7.997649e-01 0.000000e+00
1.361604e+00 1.000227e+00 0.000000e+00
1.361939e+00 1.200901e+00 0.000000e+00
1.361576e+00 1.401706e+00 0.000000e+00
1.360560e+00 1.602452e+00 0.000000e+00
1.359123e+00 1.802933e+00 0.000000e+00
1.357714e+00 2.003051e+00 0.000000e+00
1.575000e+00 0.000000e+00 0.000000e+00
1.578982e+00 1.998900e-01 0.000000e+00
1.581262e+00 3.999200e-01 0.000000e+00
1.582971e+00 6.001366e-01 0.000000e+00
1.584236e+00 8.005515e-01 0.000000e+00
1.585004e+00 1.001158e+00 0.000000e+00
1.585240e+00 1.201918e+00 0.000000e+00
1.584965e+00 1.402715e+00 0.000000e+00
1.584288e+00 1.603400e+00 0.000000e+00
1.583413e+00 1.803851e+00 0.000000e+00
1.582666e+00 2.004024e+00 0.000000e+00
1.800000e+00 0.000000e+00 0.000000e+00
1.803333e+00 1.999874e-01 0.000000e+00
1.805302e+00 4.001563e-01 0.000000e+00
1.806775e+00 6.004902e-01 0.000000e+00
1.807833e+00 8.009967e-01 0.000000e+00
1.808460e+00 1.001658e+00 0.000000e+00
1.808669e+00 1.202401e+00 0.000000e+00
1.808532e+00 1.403136e+00 0.000000e+00
1.808151e+00 1.603764e+00 0.000000e+00
1.807692e+00 1.804203e+00 0.000000e+00
1.807381e+00 2.004435e+00 0.000000e+00
2.025000e+00 0.000000e+00 0.000000e+00
2.027673e+00 2.000282e-01 0.000000e+00
2.029349e+00 4.002610e-01 0.000000e+00
2.030608e+00 6.006488e-01 0.000000e+00
2.031494e+00 8.011811e-01 0.000000e+00
2.032026e+00 1.001823e+00 0.000000e+00
2.032254e+00 1.202510e+00 0.000000e+00
2.032245e+00 1.403181e+00 0.000000e+00
2.032089e+00 1.603762e+00 0.000000e+00
2.031922e+00 1.804201e+00 0.000000e+00
2.031887e+00 2.004495e+00 0.000000e+00
2.250000e+00 0.000000e+00 0.000000e+00
2.252058e+00 2.000375e-01 0.000000e+00
2.253455e+00 4.002781e-01 0.000000e+00
2.254512e+00 6.006644e-01 0.000000e+00
2.255258e+00 8.011747e-01 0.000000e+00
2.255728e+00 1.001764e+00 0.000000e+00
2.255978e+00 1.202390e+00 0.000000e+00
2.256065e+00 1.403000e+00 0.000000e+00
2.256067e+00 1.603546e+00 0.000000e+00
2.256086e+00 1.803994e+00 0.000000e+00
2.256213e+00 2.004350e+00 0.000000e+00
2.475000e+00 0.000000e+00 0.000000e+00
2.476522e+00 2.000230e-01 0.000000e+00
2.477647e+00 4.002369e-01 0.000000e+00
2.478517e+00 6.005871e-01 0.000000e+00
2.479140e+00 8.010483e-01 0.000000e+00
2.479560e+00 1.001580e+00 0.000000e+00
2.479819e+00 1.202146e+00 0.000000e+00
2.479964e+00 1.402706e+00 0.000000e+00
2.480061e+00 1.603225e+00 0.000000e+00
2.480182e+00 1.803686e+00 0.000000e+00
2.480385e+00 2.004102e+00 0.000000e+00
2.700000e+00 0.000000e+00 0.000000e+00
2.701077e+00 2.000028e-01 0.000000e+00
2.701945e+00 4.001678e-01 0.000000e+00
2.702632e+00 6.004638e-01 0.000000e+00
2.703145e+00 8.008676e-01 0.000000e+00
2.703507e+00 1.001343e+00 0.000000e+00
2.703751e+00 1.201857e+00 0.000000e+00
2.703918e+00 1.402376e+00 0.000000e+00
2.704057e+00 1.602879e+00 0.000000e+00
2.704218e+00 1.803356e+00 0.000000e+00
2.704437e+00 2.003821e+00 0.000000e+00
2.925000e+00 0.000000e+00 0.000000e+00
2.925727e+00 1.999747e-01 0.000000e+00
2.926352e+00 4.000914e-01 0.000000e+00
2.926862e+00 6.003361e-01 0.000000e+00
2.927254e+00 8.006844e-01 0.000000e+00
2.927545e+00 1.001111e+00 0.000000e+00
2.927753e+00 1.201583e+00 0.000000e+00
2.927909e+00 1.402071e+00 0.000000e+00
2.928049e+00 1.602563e+00 0.000000e+00
2.928205e+00 1.803054e+00 0.000000e+00
2.928400e+00 2.003556e+00 0.000000e+00
3.150000e+00 0.000000e+00 0.000000e+00
3.150450e+00 1.999510e-01 0.000000e+00
3.150848e+00 4.000295e-01 0.000000e+00
3.151186e+00 6.002328e-01 0.000000e+00
3.151452e+00 8.005390e-01 0.000000e+00
3.151653e+00 1.000924e+00 0.000000e+00
3.151806e+00 1.201363e+00 0.000000e+00
3.151926e+00 1.401831e+00 0.000000e+00
3.152036e+00 1.602316e+00 0.000000e+00
3.152155e+00 1.802818e+00 0.000000e+00
3.152298e+00 2.003345e+00 0.000000e+00
3.375000e+00 0.000000e+00 0.000000e+00
3.375216e+00 1.999369e-01 0.000000e+00
3.375408e+00 3.999954e-01 0.000000e+00
3.375576e+00 6.001726e-01 0.000000e+00
3.375711e+00 8.004531e-01 0.000000e+00
3.375813e+00 1.000811e+00 0.000000e+00
3.375893e+00 1.201227e+00 0.000000e+00
3.375959e+00 1.401682e+00 0.000000e+00
3.376018e+00 1.602162e+00 0.000000e+00
3.376083e+00 1.802668e+00 0.000000e+00
3.376158e+00 2.003210e+00 0.000000e+00
3.600000e+00 0.000000e+00 0.000000e+00
3.600000e+00 1.999446e-01 0.000000e+00
3.600000e+00 3.999988e-01 0.000000e+00
3.600000e+00 6.001674e-01 0.000000e+00
3.600000e+00 8.004373e-01 0.000000e+00
3.600000e+00 1.000785e+00 0.000000e+00
3.600000e+00 1.201190e+00 0.000000e+00
3.600000e+00 1.401637e+00 0.000000e+00
3.600000e+00 1.602113e+00 0.000000e+00
3.600000e+00 1.802618e+00 0.000000e+00
3.600000e+00 2.003163e+00 0.000000e+00
</DataArray>
</Points>
<Cells>
<DataArray Name="connectivity" type="Int32" format="ascii">
0 11 12 1
1 12 13 2
2 13 14 3
3 14 15 4
4 15 16 5
5 16 17 6
6 17 18 7
7 18 19 8
8 19 20 9
9 20 21 10
11 22 23 12
12 23 24 13
13 24 25 14
14 25 26 15
15 26 27 16
16 27 28 17
17 28 29 18
18 29 30 19
19 30 31 20
20 31 32 21
22 33 34 23
23 34 35 24
24 35 36 25
25 36 37 26
26 37 38 27
27 38 39 28
28 39 40 29
29 40 41 30
30 41 42 31
31 42 43 32
33 44 45 34
34 45 46 35
35 46 47 36
36 47 48 37
37 48 49 38
38 49 50 39
39 50 51 40
40 51 52 41
41 52 53 42
42 53 54 43
44 55 56 45
45 56 57 46
46 57 58 47
47 58 59 48
48 59 60 49
49 60 61 50
50 61 62 51
51 62 63 52
52 63 64 53
53 64 65 54
55 66 67 56
56 67 68 57
57 68 69 58
58 69 70 59
59 70 71 60
60 71 72 61
61 72 73 62
62 73 74 63
63 74 75 64
64 75 76 65
66 77 78 67
67 78 79 68
68 79 80 69
69 80 81 70
70 81 82 71
71 82 83 72
72 83 84 73
73 84 85 74
74 85 86 75
75 86 87 76
77 88 89 78
78 89 90 79
79 90 91 80
80 91 92 81
81 92 93 82
82 93 94 83
83 94 95 84
84 95 96 85
85 96 97 86
86 97 98 87
88 99 100 89
89 100 101 90
90 101 102 91
91 102 103 92
92 103 104 93
93 104 105 94
94 105 106 95
95 106 107 96
96 107 108 97
97 108 109 98
99 110 111 100
100 111 112 101
101 112 113 102
102 113 114 103
103 114 115 104
104 115 116 105
105 116 117 106
106 117 118 107
107 118 119 108
108 119 120 109
110 121 122 111
111 122 123 112
112 123 124 113
113 124 125 114
114 125 126 115
115 126 127 116
116 127 128 117
117 128 129 118
118 129 130 119
119 130 131 120
121 132 133 122
122 133 134 123
123 134 135 124
124 135 136 125
125 136 137 126
126 137 138 127
127 138 139 128
128 139 140 129
129 140 141 130
130 141 142 131
132 143 144 133
133 144 145 134
134 145 146 135
135 146 147 136
136 147 148 137
137 148 149 138
138 149 150 139
139 150 151 140
140 151 152 141
141 152 153 142
143 154 155 144
144 155 156 145
145 156 157 146
146 157 158 147
147 158 159 148
148 159 160 149
149 160 161 150
150 161 162 151
151 162 163 152
152 163 164 153
154 165 166 155
155 166 167 156
156 167 168 157
157 168 169 158
158 169 170 159
159 170 171 160
160 171 172 161
161 172 173 162
162 173 174 163
163 174 175 164
165 176 177 166
166 177 178 167
167 178 179 168
168 179 180 169
169 180 181 170
170 181 182 171
171 182 183 172
172 183 184 173
173 184 185 174
174 185 186 175
</DataArray>
<DataArray Name="offsets" type="Int32" format="ascii">
4
8
12
16
20
24
28
32
36
40
44
48
52
56
60
64
68
72
76
80
84
88
92
96
100
104
108
112
116
120
124
128
132
136
140
144
148
152
156
160
164
168
172
176
180
184
188
192
196
200
204
208
212
216
220
224
228
232
236
240
244
248
252
256
260
264
268
272
276
280
284
288
292
296
300
304
308
312
316
320
324
328
332
336
340
344
348
352
356
360
364
368
372
376
380
384
388
392
396
400
404
408
412
416
420
424
428
432
436
440
444
448
452
456
460
464
468
472
476
480
484
488
492
496
500
504
508
512
516
520
524
528
532
536
540
544
548
552
556
560
564
568
572
576
580
584
588
592
596
600
604
608
612
616
620
624
628
632
636
640
</DataArray>
<DataArray Name="types" type="UInt8" format="ascii">
9
9
9
9
9
9
9
9
9
9
9
9
9
9
9
9
9
9
9
9
9
9
9
9
9
9
9
9
9
9
9
9
9
9
9
9
9
9
9
9
9
9
9
9
9
9
9
9
9
9
9
9
9
9
9
9
9
9
9
9
9
9
9
9
9
9
9
9
9
9
9
9
9
9
9
9
9
9
9
9
9
9
9
9
9
9
9
9
9
9
9
9
9
9
9
9
9
9
9
9
9
9
9
9
9
9
9
9
9
9
9
9
9
9
9
9
9
9
9
9
9
9
9
9
9
9
9
9
9
9
9
9
9
9
9
9
9
9
9
9
9
9
9
9
9
9
9
9
9
9
9
9
9
9
9
9
9
9
9
9
</DataArray>
</Cells>
<PointData>
<DataArray Name="disp" type="Float64" NumberOfComponents="3" format="ascii">
0.000000e+00 0.000000e+00 0.000000e+00
0.000000e+00 -2.852412e-03 0.000000e+00
0.000000e+00 -6.915345e-03 0.000000e+00
0.000000e+00 -1.279019e-02 0.000000e+00
0.000000e+00 -2.026485e-02 0.000000e+00
0.000000e+00 -2.843343e-02 0.000000e+00
0.000000e+00 -3.685073e-02 0.000000e+00
0.000000e+00 -4.501979e-02 0.000000e+00
0.000000e+00 -5.173984e-02 0.000000e+00
0.000000e+00 -5.592074e-02 0.000000e+00
0.000000e+00 -5.962500e-02 0.000000e+00
0.000000e+00 0.000000e+00 0.000000e+00
1.454809e-03 -2.854733e-03 0.000000e+00
3.499885e-03 -6.887641e-03 0.000000e+00
5.797544e-03 -1.208226e-02 0.000000e+00
7.185103e-03 -1.853156e-02 0.000000e+00
7.682013e-03 -2.588495e-02 0.000000e+00
7.479329e-03 -3.367152e-02 0.000000e+00
6.314292e-03 -4.146263e-02 0.000000e+00
3.576092e-03 -4.907311e-02 0.000000e+00
5.147152e-04 -5.562719e-02 0.000000e+00
0.000000e+00 -5.962500e-02 0.000000e+00
0.000000e+00 0.000000e+00 0.000000e+00
3.145531e-03 -2.506363e-03 0.000000e+00
6.484470e-03 -5.824112e-03 0.000000e+00
9.462416e-03 -9.589626e-03 0.000000e+00
1.177435e-02 -1.371254e-02 0.000000e+00
1.321664e-02 -1.851384e-02 0.000000e+00
1.372975e-02 -2.428546e-02 0.000000e+00
1.316781e-02 -3.126718e-02 0.000000e+00
1.089170e-02 -3.986630e-02 0.000000e+00
6.870044e-03 -4.963597e-02 0.000000e+00
0.000000e+00 -5.962500e-02 0.000000e+00
0.000000e+00 0.000000e+00 0.000000e+00
4.401690e-03 -1.481559e-03 0.000000e+00
8.221183e-03 -3.149787e-03 0.000000e+00
1.122783e-02 -4.701773e-03 0.000000e+00
1.366842e-02 -6.055103e-03 0.000000e+00
1.549517e-02 -7.169511e-03 0.000000e+00
1.661275e-02 -7.977555e-03 0.000000e+00
1.682587e-02 -8.442226e-03 0.000000e+00
1.552824e-02 -8.389397e-03 0.000000e+00
1.234671e-02 -8.014849e-03 0.000000e+00
6.596655e-03 -7.750838e-03 0.000000e+00
0.000000e+00 0.000000e+00 0.000000e+00
4.820767e-03 -1.075636e-03 0.000000e+00
8.335493e-03 -2.074907e-03 0.000000e+00
1.096615e-02 -2.847790e-03 0.000000e+00
1.306827e-02 -3.382820e-03 0.000000e+00
1.457464e-02 -3.649597e-03 0.000000e+00
1.536602e-02 -3.614616e-03 0.000000e+00
1.519053e-02 -3.239823e-03 0.000000e+00
1.373947e-02 -2.648401e-03 0.000000e+00
1.088706e-02 -2.101613e-03 0.000000e+00
6.981861e-03 -2.081645e-03 0.000000e+00
0.000000e+00 0.000000e+00 0.000000e+00
4.867837e-03 -6.549697e-04 0.000000e+00
7.883451e-03 -1.158101e-03 0.000000e+00
1.018957e-02 -1.432524e-03 0.000000e+00
1.197444e-02 -1.481991e-03 0.000000e+00
1.317722e-02 -1.284374e-03 0.000000e+00
1.368895e-02 -8.235215e-04 0.000000e+00
1.334768e-02 -1.419184e-04 0.000000e+00
1.203571e-02 6.062140e-04 0.000000e+00
9.895585e-03 1.124399e-03 0.000000e+00
7.496148e-03 1.201450e-03 0.000000e+00
0.000000e+00 0.000000e+00 0.000000e+00
4.532347e-03 -3.126526e-04 0.000000e+00
7.149561e-03 -4.868784e-04 0.000000e+00
9.145237e-03 -4.681016e-04 0.000000e+00
1.064191e-02 -2.351400e-04 0.000000e+00
1.160438e-02 2.266777e-04 0.000000e+00
1.193930e-02 9.010268e-04 0.000000e+00
1.157637e-02 1.706425e-03 0.000000e+00
1.056038e-02 2.452013e-03 0.000000e+00
9.122626e-03 2.932841e-03 0.000000e+00
7.714365e-03 3.050892e-03 0.000000e+00
0.000000e+00 0.000000e+00 0.000000e+00
3.982500e-03 -1.100382e-04 0.000000e+00
6.262114e-03 -7.999728e-05 0.000000e+00
7.971280e-03 1.366615e-04 0.000000e+00
9.236147e-03 5.515367e-04 0.000000e+00
1.000422e-02 1.158199e-03 0.000000e+00
1.024052e-02 1.918508e-03 0.000000e+00
9.964572e-03 2.714640e-03 0.000000e+00
9.288146e-03 3.399501e-03 0.000000e+00
8.413515e-03 3.850903e-03 0.000000e+00
7.666331e-03 4.023674e-03 0.000000e+00
0.000000e+00 0.000000e+00 0.000000e+00
3.333451e-03 -1.257767e-05 0.000000e+00
5.301755e-03 1.563377e-04 0.000000e+00
6.774705e-03 4.902105e-04 0.000000e+00
7.833031e-03 9.967231e-04 0.000000e+00
8.460230e-03 1.657845e-03 0.000000e+00
8.669199e-03 2.401074e-03 0.000000e+00
8.531678e-03 3.135763e-03 0.000000e+00
8.150583e-03 3.764381e-03 0.000000e+00
7.692169e-03 4.202588e-03 0.000000e+00
7.381293e-03 4.434480e-03 0.000000e+00
0.000000e+00 0.000000e+00 0.000000e+00
2.672490e-03 2.814624e-05 0.000000e+00
4.348511e-03 2.609985e-04 0.000000e+00
5.607637e-03 6.487956e-04 0.000000e+00
6.494115e-03 1.181069e-03 0.000000e+00
7.026145e-03 1.822823e-03 0.000000e+00
7.253829e-03 2.510289e-03 0.000000e+00
7.244826e-03 3.180837e-03 0.000000e+00
7.089314e-03 3.761947e-03 0.000000e+00
6.921690e-03 4.201085e-03 0.000000e+00
6.886691e-03 4.495037e-03 0.000000e+00
0.000000e+00 0.000000e+00 0.000000e+00
2.058160e-03 3.753270e-05 0.000000e+00
3.455363e-03 2.780505e-04 0.000000e+00
4.511504e-03 6.643840e-04 0.000000e+00
5.257930e-03 1.174693e-03 0.000000e+00
5.727751e-03 1.763750e-03 0.000000e+00
5.978420e-03 2.389812e-03 0.000000e+00
6.065313e-03 3.000105e-03 0.000000e+00
6.066687e-03 3.545505e-03 0.000000e+00
6.085762e-03 3.994025e-03 0.000000e+00
6.212689e-03 4.349860e-03 0.000000e+00
0.000000e+00 0.000000e+00 0.000000e+00
1.522471e-03 2.296685e-05 0.000000e+00
2.646769e-03 2.368781e-04 0.000000e+00
3.516656e-03 5.870911e-04 0.000000e+00
4.140368e-03 1.048342e-03 0.000000e+00
4.560429e-03 1.580231e-03 0.000000e+00
4.818858e-03 2.145992e-03 0.000000e+00
4.964225e-03 2.705683e-03 0.000000e+00
5.060761e-03 3.224820e-03 0.000000e+00
5.182105e-03 3.686543e-03 0.000000e+00
5.385369e-03 4.102417e-03 0.000000e+00
0.000000e+00 0.000000e+00 0.000000e+00
1.077107e-03 2.767783e-06 0.000000e+00
1.945381e-03 1.677893e-04 0.000000e+00
2.632409e-03 4.638009e-04 0.000000e+00
3.144460e-03 8.675845e-04 0.000000e+00
3.507056e-03 1.343272e-03 0.000000e+00
3.750615e-03 1.856680e-03 0.000000e+00
3.917948e-03 2.376449e-03 0.000000e+00
4.057129e-03 2.878561e-03 0.000000e+00
4.217682e-03 3.355859e-03 0.000000e+00
4.437345e-03 3.820554e-03 0.000000e+00
0.000000e+00 0.000000e+00 0.000000e+00
7.273115e-04 -2.527623e-05 0.000000e+00
1.352343e-03 9.142302e-05 0.000000e+00
1.861867e-03 3.361072e-04 0.000000e+00
2.253831e-03 6.843857e-04 0.000000e+00
2.544754e-03 1.111288e-03 0.000000e+00
2.752889e-03 1.582660e-03 0.000000e+00
2.909340e-03 2.071528e-03 0.000000e+00
3.049221e-03 2.562943e-03 0.000000e+00
3.204651e-03 3.054060e-03 0.000000e+00
3.399446e-03 3.556546e-03 0.000000e+00
0.000000e+00 0.000000e+00 0.000000e+00
4.497733e-04 -4.902824e-05 0.000000e+00
8.481008e-04 2.949033e-05 0.000000e+00
1.186254e-03 2.328052e-04 0.000000e+00
1.451975e-03 5.389442e-04 0.000000e+00
1.653039e-03 9.242276e-04 0.000000e+00
1.806120e-03 1.363467e-03 0.000000e+00
1.926121e-03 1.831260e-03 0.000000e+00
2.035785e-03 2.316083e-03 0.000000e+00
2.155173e-03 2.817569e-03 0.000000e+00
2.298041e-03 3.345122e-03 0.000000e+00
0.000000e+00 0.000000e+00 0.000000e+00
2.160551e-04 -6.314883e-05 0.000000e+00
4.084012e-04 -4.577677e-06 0.000000e+00
5.760118e-04 1.726132e-04 0.000000e+00
7.108336e-04 4.530635e-04 0.000000e+00
8.128310e-04 8.107583e-04 0.000000e+00
8.933527e-04 1.227374e-03 0.000000e+00
9.586244e-04 1.681549e-03 0.000000e+00
1.018078e-03 2.161599e-03 0.000000e+00
1.082776e-03 2.668217e-03 0.000000e+00
1.157884e-03 3.209881e-03 0.000000e+00
0.000000e+00 0.000000e+00 0.000000e+00
0.000000e+00 -5.544639e-05 0.000000e+00
0.000000e+00 -1.146011e-06 0.000000e+00
0.000000e+00 1.674213e-04 0.000000e+00
0.000000e+00 4.372909e-04 0.000000e+00
0.000000e+00 7.849227e-04 0.000000e+00
0.000000e+00 1.190452e-03 0.000000e+00
0.000000e+00 1.637448e-03 0.000000e+00
0.000000e+00 2.113070e-03 0.000000e+00
0.000000e+00 2.618405e-03 0.000000e+00
0.000000e+00 3.162983e-03 0.000000e+00
</DataArray>
<DataArray Name="shear" type="Float64" NumberOfComponents="1" format="ascii">
1.669905e-02
2.447067e-02
4.038940e-02
5.761845e-02
6.969283e-02
7.504404e-02
7.459483e-02
6.595015e-02
4.633347e-02
2.634042e-02
1.995608e-02
1.815572e-02
2.578071e-02
3.907648e-02
5.175418e-02
6.239149e-02
6.979588e-02
7.305515e-02
7.078516e-02
6.113911e-02
4.381075e-02
3.024003e-02
2.176396e-02
2.778287e-02
3.630259e-02
4.327848e-02
5.186837e-02
6.286481e-02
7.520273e-02
8.735139e-02
9.823591e-02
1.027895e-01
1.019856e-01
2.427731e-02
2.623907e-02
2.838521e-02
3.099104e-02
3.536357e-02
4.166898e-02
5.021685e-02
6.041856e-02
7.243911e-02
8.508795e-02
9.496972e-02
2.515193e-02
2.337465e-02
2.021879e-02
1.923759e-02
1.931224e-02
1.934657e-02
1.891817e-02
1.730591e-02
1.360988e-02
6.864558e-03
8.511632e-04
2.484813e-02
2.147202e-02
1.692256e-02
1.586724e-02
1.556213e-02
1.526503e-02
1.465486e-02
1.317969e-02
1.015291e-02
4.998094e-03
1.240284e-03
2.295364e-02
1.906940e-02
1.431778e-02
1.343282e-02
1.320322e-02
1.306588e-02
1.267670e-02
1.148791e-02
8.921781e-03
4.805732e-03
1.826757e-03
2.008203e-02
1.648710e-02
1.234747e-02
1.174199e-02
1.171181e-02
1.174316e-02
1.144682e-02
1.033854e-02
8.147165e-03
4.890948e-03
2.594608e-03
1.679957e-02
1.393626e-02
1.083003e-02
1.044571e-02
1.054339e-02
1.063116e-02
1.033478e-02
9.375986e-03
7.620469e-03
5.145072e-03
3.500777e-03
1.349112e-02
1.148437e-02
9.436268e-03
9.267246e-03
9.443915e-03
9.560186e-03
9.331832e-03
8.599657e-03
7.285005e-03
5.520358e-03
4.428154e-03
1.040939e-02
9.174668e-03
8.052675e-03
8.108465e-03
8.383711e-03
8.566596e-03
8.470608e-03
7.984066e-03
7.089414e-03
5.957493e-03
5.309918e-03
7.711677e-03
7.069688e-03
6.678538e-03
6.976823e-03
7.393707e-03
7.691117e-03
7.750493e-03
7.506798e-03
6.994505e-03
6.396872e-03
6.096660e-03
5.464679e-03
5.217839e-03
5.350963e-03
5.913180e-03
6.510070e-03
6.952894e-03
7.170622e-03
7.153203e-03
6.970057e-03
6.782967e-03
6.731518e-03
3.675876e-03
3.647959e-03
4.169834e-03
4.985668e-03
5.763833e-03
6.360017e-03
6.723303e-03
6.899868e-03
6.979470e-03
7.088990e-03
7.208402e-03
2.262610e-03
2.377641e-03
3.228859e-03
4.272643e-03
5.189791e-03
5.906198e-03
6.400430e-03
6.729583e-03
6.996537e-03
7.302628e-03
7.530331e-03
1.091182e-03
1.413505e-03
2.604760e-03
3.818810e-03
4.829134e-03
5.610151e-03
6.191445e-03
6.622331e-03
7.000337e-03
7.419965e-03
7.708841e-03
3.728170e-04
1.006250e-03
2.386647e-03
3.657519e-03
4.701290e-03
5.501929e-03
6.111290e-03
6.579375e-03
6.993839e-03
7.452241e-03
7.762274e-03
</DataArray>
<DataArray Name="stress" type="Float64" NumberOfComponents="9" format="ascii">
-1.157682e+05 5.308264e+03 0.000000e+00 5.308264e+03 -1.968465e+05 0.000000e+00 0.000000e+00 0.000000e+00 0.000000e+00
-1.020695e+05 4.067708e+03 0.000000e+00 4.067708e+03 -1.964999e+05 0.000000e+00 0.000000e+00 0.000000e+00 0.000000e+00
-9.882688e+04 2.898672e+03 0.000000e+00 2.898672e+03 -2.069350e+05 0.000000e+00 0.000000e+00 0.000000e+00 0.000000e+00
-1.087689e+05 2.808134e+03 0.000000e+00 2.808134e+03 -2.065481e+05 0.000000e+00 0.000000e+00 0.000000e+00 0.000000e+00
-1.133501e+05 5.045642e+03 0.000000e+00 5.045642e+03 -2.170006e+05 0.000000e+00 0.000000e+00 0.000000e+00 0.000000e+00
-1.189087e+05 7.495431e+03 0.000000e+00 7.495431e+03 -2.265733e+05 0.000000e+00 0.000000e+00 0.000000e+00 0.000000e+00
-1.256416e+05 1.005380e+04 0.000000e+00 1.005380e+04 -2.401808e+05 0.000000e+00 0.000000e+00 0.000000e+00 0.000000e+00
-1.344123e+05 9.851117e+03 0.000000e+00 9.851117e+03 -2.509799e+05 0.000000e+00 0.000000e+00 0.000000e+00 0.000000e+00
-1.351250e+05 4.526142e+03 0.000000e+00 4.526142e+03 -2.648387e+05 0.000000e+00 0.000000e+00 0.000000e+00 0.000000e+00
-1.442727e+05 -1.134117e+03 0.000000e+00 -1.134117e+03 -2.697041e+05 0.000000e+00 0.000000e+00 0.000000e+00 0.000000e+00
-1.513641e+05 -7.963499e+02 0.000000e+00 -7.963499e+02 -2.615094e+05 0.000000e+00 0.000000e+00 0.000000e+00 0.000000e+00
-1.160648e+05 1.564132e+04 0.000000e+00 1.564132e+04 -1.905240e+05 0.000000e+00 0.000000e+00 0.000000e+00 0.000000e+00
-1.022653e+05 1.323091e+04 0.000000e+00 1.323091e+04 -1.879704e+05 0.000000e+00 0.000000e+00 0.000000e+00 0.000000e+00
-9.826434e+04 1.172210e+04 0.000000e+00 1.172210e+04 -1.981495e+05 0.000000e+00 0.000000e+00 0.000000e+00 0.000000e+00
-1.055591e+05 1.175738e+04 0.000000e+00 1.175738e+04 -2.083752e+05 0.000000e+00 0.000000e+00 0.000000e+00 0.000000e+00
-1.133347e+05 1.246151e+04 0.000000e+00 1.246151e+04 -2.206597e+05 0.000000e+00 0.000000e+00 0.000000e+00 0.000000e+00
-1.198824e+05 1.380240e+04 0.000000e+00 1.380240e+04 -2.312722e+05 0.000000e+00 0.000000e+00 0.000000e+00 0.000000e+00
-1.248019e+05 1.461319e+04 0.000000e+00 1.461319e+04 -2.408695e+05 0.000000e+00 0.000000e+00 0.000000e+00 0.000000e+00
-1.326825e+05 1.239145e+04 0.000000e+00 1.239145e+04 -2.484660e+05 0.000000e+00 0.000000e+00 0.000000e+00 0.000000e+00
-1.374617e+05 6.845604e+03 0.000000e+00 6.845604e+03 -2.603432e+05 0.000000e+00 0.000000e+00 0.000000e+00 0.000000e+00
-1.393851e+05 -7.788556e+02 0.000000e+00 -7.788556e+02 -2.659898e+05 0.000000e+00 0.000000e+00 0.000000e+00 0.000000e+00
-1.584638e+05 -6.869710e+03 0.000000e+00 -6.869710e+03 -2.935672e+05 0.000000e+00 0.000000e+00 0.000000e+00 0.000000e+00
-1.135035e+05 2.679023e+04 0.000000e+00 2.679023e+04 -1.671963e+05 0.000000e+00 0.000000e+00 0.000000e+00 0.000000e+00
-1.013531e+05 2.371140e+04 0.000000e+00 2.371140e+04 -1.615848e+05 0.000000e+00 0.000000e+00 0.000000e+00 0.000000e+00
-9.996980e+04 2.351470e+04 0.000000e+00 2.351470e+04 -1.687795e+05 0.000000e+00 0.000000e+00 0.000000e+00 0.000000e+00
-1.068038e+05 2.594978e+04 0.000000e+00 2.594978e+04 -1.796256e+05 0.000000e+00 0.000000e+00 0.000000e+00 0.000000e+00
-1.148631e+05 2.782280e+04 0.000000e+00 2.782280e+04 -1.898404e+05 0.000000e+00 0.000000e+00 0.000000e+00 0.000000e+00
-1.239494e+05 3.006608e+04 0.000000e+00 3.006608e+04 -2.013807e+05 0.000000e+00 0.000000e+00 0.000000e+00 0.000000e+00
-1.347648e+05 3.196146e+04 0.000000e+00 3.196146e+04 -2.154237e+05 0.000000e+00 0.000000e+00 0.000000e+00 0.000000e+00
-1.499659e+05 3.394921e+04 0.000000e+00 3.394921e+04 -2.312277e+05 0.000000e+00 0.000000e+00 0.000000e+00 0.000000e+00
-1.592657e+05 3.382875e+04 0.000000e+00 3.382875e+04 -2.496398e+05 0.000000e+00 0.000000e+00 0.000000e+00 0.000000e+00
-1.661386e+05 2.526299e+04 0.000000e+00 2.526299e+04 -2.673419e+05 0.000000e+00 0.000000e+00 0.000000e+00 0.000000e+00
-1.863831e+05 7.330892e+03 0.000000e+00 7.330892e+03 -3.091970e+05 0.000000e+00 0.000000e+00 0.000000e+00 0.000000e+00
-1.042765e+05 2.855955e+04 0.000000e+00 2.855955e+04 -1.331190e+05 0.000000e+00 0.000000e+00 0.000000e+00 0.000000e+00
-9.585755e+04 2.633206e+04 0.000000e+00 2.633206e+04 -1.280123e+05 0.000000e+00 0.000000e+00 0.000000e+00 0.000000e+00
-9.673062e+04 2.688195e+04 0.000000e+00 2.688195e+04 -1.290138e+05 0.000000e+00 0.000000e+00 0.000000e+00 0.000000e+00
-1.031355e+05 2.895294e+04 0.000000e+00 2.895294e+04 -1.294095e+05 0.000000e+00 0.000000e+00 0.000000e+00 0.000000e+00
-1.089531e+05 3.029332e+04 0.000000e+00 3.029332e+04 -1.276698e+05 0.000000e+00 0.000000e+00 0.000000e+00 0.000000e+00
-1.134100e+05 3.184537e+04 0.000000e+00 3.184537e+04 -1.251263e+05 0.000000e+00 0.000000e+00 0.000000e+00 0.000000e+00
-1.157745e+05 3.183763e+04 0.000000e+00 3.183763e+04 -1.194129e+05 0.000000e+00 0.000000e+00 0.000000e+00 0.000000e+00
-1.154658e+05 2.947388e+04 0.000000e+00 2.947388e+04 -1.101460e+05 0.000000e+00 0.000000e+00 0.000000e+00 0.000000e+00
-1.085195e+05 2.407245e+04 0.000000e+00 2.407245e+04 -9.824839e+04 0.000000e+00 0.000000e+00 0.000000e+00 0.000000e+00
-8.679275e+04 1.504166e+04 0.000000e+00 1.504166e+04 -7.968459e+04 0.000000e+00 0.000000e+00 0.000000e+00 0.000000e+00
-6.269648e+04 9.401716e+03 0.000000e+00 9.401716e+03 -6.687131e+04 0.000000e+00 0.000000e+00 0.000000e+00 0.000000e+00
-1.001685e+05 2.794184e+04 0.000000e+00 2.794184e+04 -1.143898e+05 0.000000e+00 0.000000e+00 0.000000e+00 0.000000e+00
-9.601875e+04 2.674128e+04 0.000000e+00 2.674128e+04 -1.121756e+05 0.000000e+00 0.000000e+00 0.000000e+00 0.000000e+00
-1.004120e+05 2.736341e+04 0.000000e+00 2.736341e+04 -1.130449e+05 0.000000e+00 0.000000e+00 0.000000e+00 0.000000e+00
-1.078755e+05 2.836802e+04 0.000000e+00 2.836802e+04 -1.114143e+05 0.000000e+00 0.000000e+00 0.000000e+00 0.000000e+00
-1.148009e+05 2.867157e+04 0.000000e+00 2.867157e+04 -1.080140e+05 0.000000e+00 0.000000e+00 0.000000e+00 0.000000e+00
-1.199219e+05 2.786760e+04 0.000000e+00 2.786760e+04 -1.026556e+05 0.000000e+00 0.000000e+00 0.000000e+00 0.000000e+00
-1.231392e+05 2.561504e+04 0.000000e+00 2.561504e+04 -9.552606e+04 0.000000e+00 0.000000e+00 0.000000e+00 0.000000e+00
-1.238575e+05 2.118413e+04 0.000000e+00 2.118413e+04 -8.708840e+04 0.000000e+00 0.000000e+00 0.000000e+00 0.000000e+00
-1.176186e+05 1.403059e+04 0.000000e+00 1.403059e+04 -7.742524e+04 0.000000e+00 0.000000e+00 0.000000e+00 0.000000e+00
-9.606930e+04 5.062824e+03 0.000000e+00 5.062824e+03 -6.867723e+04 0.000000e+00 0.000000e+00 0.000000e+00 0.000000e+00
-6.099965e+04 3.382151e+02 0.000000e+00 3.382151e+02 -5.697761e+04 0.000000e+00 0.000000e+00 0.000000e+00 0.000000e+00
-9.411789e+04 2.644645e+04 0.000000e+00 2.644645e+04 -1.002657e+05 0.000000e+00 0.000000e+00 0.000000e+00 0.000000e+00
-9.474030e+04 2.606330e+04 0.000000e+00 2.606330e+04 -9.989193e+04 0.000000e+00 0.000000e+00 0.000000e+00 0.000000e+00
-1.010189e+05 2.567887e+04 0.000000e+00 2.567887e+04 -9.869134e+04 0.000000e+00 0.000000e+00 0.000000e+00 0.000000e+00
-1.083077e+05 2.505730e+04 0.000000e+00 2.505730e+04 -9.522873e+04 0.000000e+00 0.000000e+00 0.000000e+00 0.000000e+00
-1.141141e+05 2.371746e+04 0.000000e+00 2.371746e+04 -9.109175e+04 0.000000e+00 0.000000e+00 0.000000e+00 0.000000e+00
-1.178723e+05 2.134355e+04 0.000000e+00 2.134355e+04 -8.600160e+04 0.000000e+00 0.000000e+00 0.000000e+00 0.000000e+00
-1.194504e+05 1.755577e+04 0.000000e+00 1.755577e+04 -8.000789e+04 0.000000e+00 0.000000e+00 0.000000e+00 0.000000e+00
-1.175083e+05 1.197915e+04 0.000000e+00 1.197915e+04 -7.352569e+04 0.000000e+00 0.000000e+00 0.000000e+00 0.000000e+00
-1.088832e+05 4.852530e+03 0.000000e+00 4.852530e+03 -6.732847e+04 0.000000e+00 0.000000e+00 0.000000e+00 0.000000e+00
-8.757748e+04 -1.238011e+03 0.000000e+00 -1.238011e+03 -6.254675e+04 0.000000e+00 0.000000e+00 0.000000e+00 0.000000e+00
-6.017248e+04 -2.974934e+03 0.000000e+00 -2.974934e+03 -5.648576e+04 0.000000e+00 0.000000e+00 0.000000e+00 0.000000e+00
-8.689000e+04 2.434069e+04 0.000000e+00 2.434069e+04 -8.866330e+04 0.000000e+00 0.000000e+00 0.000000e+00 0.000000e+00
-9.308672e+04 2.427503e+04 0.000000e+00 2.427503e+04 -8.978857e+04 0.000000e+00 0.000000e+00 0.000000e+00 0.000000e+00
-1.004716e+05 2.272548e+04 0.000000e+00 2.272548e+04 -8.720193e+04 0.000000e+00 0.000000e+00 0.000000e+00 0.000000e+00
-1.071140e+05 2.120060e+04 0.000000e+00 2.120060e+04 -8.399464e+04 0.000000e+00 0.000000e+00 0.000000e+00 0.000000e+00
-1.117612e+05 1.887715e+04 0.000000e+00 1.887715e+04 -8.013611e+04 0.000000e+00 0.000000e+00 0.000000e+00 0.000000e+00
-1.142566e+05 1.553492e+04 0.000000e+00 1.553492e+04 -7.562402e+04 0.000000e+00 0.000000e+00 0.000000e+00 0.000000e+00
-1.142149e+05 1.109832e+04 0.000000e+00 1.109832e+04 -7.090912e+04 0.000000e+00 0.000000e+00 0.000000e+00 0.000000e+00
-1.106147e+05 5.593413e+03 0.000000e+00 5.593413e+03 -6.639177e+04 0.000000e+00 0.000000e+00 0.000000e+00 0.000000e+00
-1.016308e+05 -1.355044e+02 0.000000e+00 -1.355044e+02 -6.267473e+04 0.000000e+00 0.000000e+00 0.000000e+00 0.000000e+00
-8.472890e+04 -3.264169e+03 0.000000e+00 -3.264169e+03 -6.040930e+04 0.000000e+00 0.000000e+00 0.000000e+00 0.000000e+00
-6.641630e+04 -3.431183e+03 0.000000e+00 -3.431183e+03 -5.724055e+04 0.000000e+00 0.000000e+00 0.000000e+00 0.000000e+00
-8.125274e+04 2.231009e+04 0.000000e+00 2.231009e+04 -8.007672e+04 0.000000e+00 0.000000e+00 0.000000e+00 0.000000e+00
-9.080273e+04 2.208628e+04 0.000000e+00 2.208628e+04 -8.181588e+04 0.000000e+00 0.000000e+00 0.000000e+00 0.000000e+00
-9.887659e+04 1.978576e+04 0.000000e+00 1.978576e+04 -7.901522e+04 0.000000e+00 0.000000e+00 0.000000e+00 0.000000e+00
-1.046848e+05 1.748402e+04 0.000000e+00 1.748402e+04 -7.599973e+04 0.000000e+00 0.000000e+00 0.000000e+00 0.000000e+00
-1.084045e+05 1.447135e+04 0.000000e+00 1.447135e+04 -7.258450e+04 0.000000e+00 0.000000e+00 0.000000e+00 0.000000e+00
-1.099067e+05 1.079416e+04 0.000000e+00 1.079416e+04 -6.903141e+04 0.000000e+00 0.000000e+00 0.000000e+00 0.000000e+00
-1.088738e+05 6.417777e+03 0.000000e+00 6.417777e+03 -6.555863e+04 0.000000e+00 0.000000e+00 0.000000e+00 0.000000e+00
-1.048008e+05 1.646787e+03 0.000000e+00 1.646787e+03 -6.250616e+04 0.000000e+00 0.000000e+00 0.000000e+00 0.000000e+00
-9.684360e+04 -2.407318e+03 0.000000e+00 -2.407318e+03 -6.049791e+04 0.000000e+00 0.000000e+00 0.000000e+00 0.000000e+00
-8.474051e+04 -3.635778e+03 0.000000e+00 -3.635778e+03 -5.967007e+04 0.000000e+00 0.000000e+00 0.000000e+00 0.000000e+00
-7.313762e+04 -3.030111e+03 0.000000e+00 -3.030111e+03 -5.782555e+04 0.000000e+00 0.000000e+00 0.000000e+00 0.000000e+00
-7.709886e+04 2.032070e+04 0.000000e+00 2.032070e+04 -7.376255e+04 0.000000e+00 0.000000e+00 0.000000e+00 0.000000e+00
-8.794630e+04 1.983698e+04 0.000000e+00 1.983698e+04 -7.569356e+04 0.000000e+00 0.000000e+00 0.000000e+00 0.000000e+00
-9.635618e+04 1.697570e+04 0.000000e+00 1.697570e+04 -7.291284e+04 0.000000e+00 0.000000e+00 0.000000e+00 0.000000e+00
-1.016479e+05 1.411486e+04 0.000000e+00 1.411486e+04 -7.023301e+04 0.000000e+00 0.000000e+00 0.000000e+00 0.000000e+00
-1.046706e+05 1.091182e+04 0.000000e+00 1.091182e+04 -6.750918e+04 0.000000e+00 0.000000e+00 0.000000e+00 0.000000e+00
-1.055749e+05 7.229164e+03 0.000000e+00 7.229164e+03 -6.478918e+04 0.000000e+00 0.000000e+00 0.000000e+00 0.000000e+00
-1.041630e+05 3.222729e+03 0.000000e+00 3.222729e+03 -6.230182e+04 0.000000e+00 0.000000e+00 0.000000e+00 0.000000e+00
-1.002865e+05 -5.781343e+02 0.000000e+00 -5.781343e+02 -6.041479e+04 0.000000e+00 0.000000e+00 0.000000e+00 0.000000e+00
-9.406034e+04 -3.219200e+03 0.000000e+00 -3.219200e+03 -5.954186e+04 0.000000e+00 0.000000e+00 0.000000e+00 0.000000e+00
-8.606694e+04 -3.329778e+03 0.000000e+00 -3.329778e+03 -5.945001e+04 0.000000e+00 0.000000e+00 0.000000e+00 0.000000e+00
-7.907465e+04 -2.386830e+03 0.000000e+00 -2.386830e+03 -5.839887e+04 0.000000e+00 0.000000e+00 0.000000e+00 0.000000e+00
-7.383647e+04 1.821552e+04 0.000000e+00 1.821552e+04 -6.922349e+04 0.000000e+00 0.000000e+00 0.000000e+00 0.000000e+00
-8.479300e+04 1.756965e+04 0.000000e+00 1.756965e+04 -7.102476e+04 0.000000e+00 0.000000e+00 0.000000e+00 0.000000e+00
-9.326695e+04 1.439700e+04 0.000000e+00 1.439700e+04 -6.839865e+04 0.000000e+00 0.000000e+00 0.000000e+00 0.000000e+00
-9.832783e+04 1.137642e+04 0.000000e+00 1.137642e+04 -6.620966e+04 0.000000e+00 0.000000e+00 0.000000e+00 0.000000e+00
-1.009376e+05 8.138932e+03 0.000000e+00 8.138932e+03 -6.408037e+04 0.000000e+00 0.000000e+00 0.000000e+00 0.000000e+00
-1.015099e+05 4.660291e+03 0.000000e+00 4.660291e+03 -6.205895e+04 0.000000e+00 0.000000e+00 0.000000e+00 0.000000e+00
-1.001310e+05 1.206296e+03 0.000000e+00 1.206296e+03 -6.040353e+04 0.000000e+00 0.000000e+00 0.000000e+00 0.000000e+00
-9.700102e+04 -1.666273e+03 0.000000e+00 -1.666273e+03 -5.941564e+04 0.000000e+00 0.000000e+00 0.000000e+00 0.000000e+00
-9.269850e+04 -3.259253e+03 0.000000e+00 -3.259253e+03 -5.918993e+04 0.000000e+00 0.000000e+00 0.000000e+00 0.000000e+00
-8.784512e+04 -2.800323e+03 0.000000e+00 -2.800323e+03 -5.943719e+04 0.000000e+00 0.000000e+00 0.000000e+00 0.000000e+00
-8.389286e+04 -1.786451e+03 0.000000e+00 -1.786451e+03 -5.892223e+04 0.000000e+00 0.000000e+00 0.000000e+00 0.000000e+00
-7.082208e+04 1.602649e+04 0.000000e+00 1.602649e+04 -6.621652e+04 0.000000e+00 0.000000e+00 0.000000e+00 0.000000e+00
-8.144863e+04 1.532263e+04 0.000000e+00 1.532263e+04 -6.770841e+04 0.000000e+00 0.000000e+00 0.000000e+00 0.000000e+00
-9.006885e+04 1.218451e+04 0.000000e+00 1.218451e+04 -6.537432e+04 0.000000e+00 0.000000e+00 0.000000e+00 0.000000e+00
-9.493511e+04 9.185725e+03 0.000000e+00 9.185725e+03 -6.354868e+04 0.000000e+00 0.000000e+00 0.000000e+00 0.000000e+00
-9.734186e+04 6.060448e+03 0.000000e+00 6.060448e+03 -6.187591e+04 0.000000e+00 0.000000e+00 0.000000e+00 0.000000e+00
-9.786890e+04 2.914556e+03 0.000000e+00 2.914556e+03 -6.043161e+04 0.000000e+00 0.000000e+00 0.000000e+00 0.000000e+00
-9.687823e+04 6.663466e+01 0.000000e+00 6.663466e+01 -5.942887e+04 0.000000e+00 0.000000e+00 0.000000e+00 0.000000e+00
-9.479693e+04 -2.034301e+03 0.000000e+00 -2.034301e+03 -5.900001e+04 0.000000e+00 0.000000e+00 0.000000e+00 0.000000e+00
-9.220644e+04 -2.917308e+03 0.000000e+00 -2.917308e+03 -5.912055e+04 0.000000e+00 0.000000e+00 0.000000e+00 0.000000e+00
-8.963803e+04 -2.233113e+03 0.000000e+00 -2.233113e+03 -5.950902e+04 0.000000e+00 0.000000e+00 0.000000e+00 0.000000e+00
-8.769543e+04 -1.296628e+03 0.000000e+00 -1.296628e+03 -5.934990e+04 0.000000e+00 0.000000e+00 0.000000e+00 0.000000e+00
-6.839603e+04 1.385814e+04 0.000000e+00 1.385814e+04 -6.451820e+04 0.000000e+00 0.000000e+00 0.000000e+00 0.000000e+00
-7.833752e+04 1.310903e+04 0.000000e+00 1.310903e+04 -6.556693e+04 0.000000e+00 0.000000e+00 0.000000e+00 0.000000e+00
-8.686849e+04 1.022858e+04 0.000000e+00 1.022858e+04 -6.345416e+04 0.000000e+00 0.000000e+00 0.000000e+00 0.000000e+00
-9.165571e+04 7.381109e+03 0.000000e+00 7.381109e+03 -6.188802e+04 0.000000e+00 0.000000e+00 0.000000e+00 0.000000e+00
-9.403012e+04 4.505140e+03 0.000000e+00 4.505140e+03 -6.053248e+04 0.000000e+00 0.000000e+00 0.000000e+00 0.000000e+00
-9.473824e+04 1.776741e+03 0.000000e+00 1.776741e+03 -5.951312e+04 0.000000e+00 0.000000e+00 0.000000e+00 0.000000e+00
-9.436212e+04 -4.927801e+02 0.000000e+00 -4.927801e+02 -5.895585e+04 0.000000e+00 0.000000e+00 0.000000e+00 0.000000e+00
-9.335841e+04 -1.981364e+03 0.000000e+00 -1.981364e+03 -5.887543e+04 0.000000e+00 0.000000e+00 0.000000e+00 0.000000e+00
-9.219859e+04 -2.424071e+03 0.000000e+00 -2.424071e+03 -5.917184e+04 0.000000e+00 0.000000e+00 0.000000e+00 0.000000e+00
-9.121902e+04 -1.713295e+03 0.000000e+00 -1.713295e+03 -5.959212e+04 0.000000e+00 0.000000e+00 0.000000e+00 0.000000e+00
-9.058016e+04 -9.261375e+02 0.000000e+00 -9.261375e+02 -5.969243e+04 0.000000e+00 0.000000e+00 0.000000e+00 0.000000e+00
-6.698146e+04 1.159394e+04 0.000000e+00 1.159394e+04 -6.384210e+04 0.000000e+00 0.000000e+00 0.000000e+00 0.000000e+00
-7.575935e+04 1.085290e+04 0.000000e+00 1.085290e+04 -6.433154e+04 0.000000e+00 0.000000e+00 0.000000e+00 0.000000e+00
-8.394212e+04 8.424053e+03 0.000000e+00 8.424053e+03 -6.235886e+04 0.000000e+00 0.000000e+00 0.000000e+00 0.000000e+00
-8.863737e+04 5.854181e+03 0.000000e+00 5.854181e+03 -6.090978e+04 0.000000e+00 0.000000e+00 0.000000e+00 0.000000e+00
-9.108609e+04 3.317855e+03 0.000000e+00 3.317855e+03 -5.976255e+04 0.000000e+00 0.000000e+00 0.000000e+00 0.000000e+00
-9.217939e+04 1.066657e+03 0.000000e+00 1.066657e+03 -5.903053e+04 0.000000e+00 0.000000e+00 0.000000e+00 0.000000e+00
-9.248668e+04 -6.709309e+02 0.000000e+00 -6.709309e+02 -5.876681e+04 0.000000e+00 0.000000e+00 0.000000e+00 0.000000e+00
-9.245078e+04 -1.696231e+03 0.000000e+00 -1.696231e+03 -5.889557e+04 0.000000e+00 0.000000e+00 0.000000e+00 0.000000e+00
-9.239317e+04 -1.898625e+03 0.000000e+00 -1.898625e+03 -5.926482e+04 0.000000e+00 0.000000e+00 0.000000e+00 0.000000e+00
-9.252184e+04 -1.273670e+03 0.000000e+00 -1.273670e+03 -5.967119e+04 0.000000e+00 0.000000e+00 0.000000e+00 0.000000e+00
-9.278708e+04 -6.459811e+02 0.000000e+00 -6.459811e+02 -5.992531e+04 0.000000e+00 0.000000e+00 0.000000e+00 0.000000e+00
-6.609744e+04 9.144343e+03 0.000000e+00 9.144343e+03 -6.401813e+04 0.000000e+00 0.000000e+00 0.000000e+00 0.000000e+00
-7.368590e+04 8.484532e+03 0.000000e+00 8.484532e+03 -6.393066e+04 0.000000e+00 0.000000e+00 0.000000e+00 0.000000e+00
-8.137060e+04 6.536231e+03 0.000000e+00 6.536231e+03 -6.193220e+04 0.000000e+00 0.000000e+00 0.000000e+00 0.000000e+00
-8.601324e+04 4.392053e+03 0.000000e+00 4.392053e+03 -6.041082e+04 0.000000e+00 0.000000e+00 0.000000e+00 0.000000e+00
-8.867068e+04 2.354233e+03 0.000000e+00 2.354233e+03 -5.937098e+04 0.000000e+00 0.000000e+00 0.000000e+00 0.000000e+00
-9.018265e+04 6.362739e+02 0.000000e+00 6.362739e+02 -5.883136e+04 0.000000e+00 0.000000e+00 0.000000e+00 0.000000e+00
-9.114312e+04 -6.150034e+02 0.000000e+00 -6.150034e+02 -5.872359e+04 0.000000e+00 0.000000e+00 0.000000e+00 0.000000e+00
-9.189068e+04 -1.303205e+03 0.000000e+00 -1.303205e+03 -5.895512e+04 0.000000e+00 0.000000e+00 0.000000e+00 0.000000e+00
-9.263426e+04 -1.383118e+03 0.000000e+00 -1.383118e+03 -5.935024e+04 0.000000e+00 0.000000e+00 0.000000e+00 0.000000e+00
-9.351930e+04 -8.961013e+02 0.000000e+00 -8.961013e+02 -5.972909e+04 0.000000e+00 0.000000e+00 0.000000e+00 0.000000e+00
-9.439248e+04 -4.331213e+02 0.000000e+00 -4.331213e+02 -6.007195e+04 0.000000e+00 0.000000e+00 0.000000e+00 0.000000e+00
-6.548198e+04 6.299696e+03 0.000000e+00 6.299696e+03 -6.450146e+04 0.000000e+00 0.000000e+00 0.000000e+00 0.000000e+00
-7.212990e+04 5.821883e+03 0.000000e+00 5.821883e+03 -6.403146e+04 0.000000e+00 0.000000e+00 0.000000e+00 0.000000e+00
-7.935059e+04 4.469339e+03 0.000000e+00 4.469339e+03 -6.184443e+04 0.000000e+00 0.000000e+00 0.000000e+00 0.000000e+00
-8.396166e+04 2.928031e+03 0.000000e+00 2.928031e+03 -6.023237e+04 0.000000e+00 0.000000e+00 0.000000e+00 0.000000e+00
-8.689432e+04 1.509535e+03 0.000000e+00 1.509535e+03 -5.920486e+04 0.000000e+00 0.000000e+00 0.000000e+00 0.000000e+00
-8.880005e+04 3.665355e+02 0.000000e+00 3.665355e+02 -5.876421e+04 0.000000e+00 0.000000e+00 0.000000e+00 0.000000e+00
-9.023349e+04 -4.436163e+02 0.000000e+00 -4.436163e+02 -5.873771e+04 0.000000e+00 0.000000e+00 0.000000e+00 0.000000e+00
-9.154758e+04 -8.721979e+02 0.000000e+00 -8.721979e+02 -5.900829e+04 0.000000e+00 0.000000e+00 0.000000e+00 0.000000e+00
-9.284435e+04 -8.959748e+02 0.000000e+00 -8.959748e+02 -5.941065e+04 0.000000e+00 0.000000e+00 0.000000e+00 0.000000e+00
-9.422284e+04 -5.638823e+02 0.000000e+00 -5.638823e+02 -5.975858e+04 0.000000e+00 0.000000e+00 0.000000e+00 0.000000e+00
-9.547892e+04 -2.551031e+02 0.000000e+00 -2.551031e+02 -6.016066e+04 0.000000e+00 0.000000e+00 0.000000e+00 0.000000e+00
-6.513143e+04 3.150574e+03 0.000000e+00 3.150574e+03 -6.476698e+04 0.000000e+00 0.000000e+00 0.000000e+00 0.000000e+00
-7.121608e+04 2.910792e+03 0.000000e+00 2.910792e+03 -6.411149e+04 0.000000e+00 0.000000e+00 0.000000e+00 0.000000e+00
-7.807114e+04 2.237252e+03 0.000000e+00 2.237252e+03 -6.179146e+04 0.000000e+00 0.000000e+00 0.000000e+00 0.000000e+00
-8.265934e+04 1.445579e+03 0.000000e+00 1.445579e+03 -6.018609e+04 0.000000e+00 0.000000e+00 0.000000e+00 0.000000e+00
-8.580175e+04 7.368188e+02 0.000000e+00 7.368188e+02 -5.919436e+04 0.000000e+00 0.000000e+00 0.000000e+00 0.000000e+00
-8.799278e+04 1.696451e+02 0.000000e+00 1.696451e+02 -5.878467e+04 0.000000e+00 0.000000e+00 0.000000e+00 0.000000e+00
-8.970905e+04 -2.257794e+02 0.000000e+00 -2.257794e+02 -5.880546e+04 0.000000e+00 0.000000e+00 0.000000e+00 0.000000e+00
-9.135830e+04 -4.349402e+02 0.000000e+00 -4.349402e+02 -5.908423e+04 0.000000e+00 0.000000e+00 0.000000e+00 0.000000e+00
-9.298653e+04 -4.386742e+02 0.000000e+00 -4.386742e+02 -5.947427e+04 0.000000e+00 0.000000e+00 0.000000e+00 0.000000e+00
-9.464102e+04 -2.653633e+02 0.000000e+00 -2.653633e+02 -5.979379e+04 0.000000e+00 0.000000e+00 0.000000e+00 0.000000e+00
-9.607475e+04 -1.033706e+02 0.000000e+00 -1.033706e+02 -6.023131e+04 0.000000e+00 0.000000e+00 0.000000e+00 0.000000e+00
-6.490746e+04 8.347086e+02 0.000000e+00 8.347086e+02 -6.458425e+04 0.000000e+00 0.000000e+00 0.000000e+00 0.000000e+00
-7.085973e+04 8.292906e+02 0.000000e+00 8.292906e+02 -6.398396e+04 0.000000e+00 0.000000e+00 0.000000e+00 0.000000e+00
-7.763310e+04 6.436227e+02 0.000000e+00 6.436227e+02 -6.176439e+04 0.000000e+00 0.000000e+00 0.000000e+00 0.000000e+00
-8.223922e+04 3.500007e+02 0.000000e+00 3.500007e+02 -6.018507e+04 0.000000e+00 0.000000e+00 0.000000e+00 0.000000e+00
-8.544362e+04 8.739130e+01 0.000000e+00 8.739130e+01 -5.922580e+04 0.000000e+00 0.000000e+00 0.000000e+00 0.000000e+00
-8.773702e+04 -1.262710e+02 0.000000e+00 -1.262710e+02 -5.882926e+04 0.000000e+00 0.000000e+00 0.000000e+00 0.000000e+00
-8.955696e+04 -2.762789e+02 0.000000e+00 -2.762789e+02 -5.886296e+04 0.000000e+00 0.000000e+00 0.000000e+00 0.000000e+00
-9.131595e+04 -3.569364e+02 0.000000e+00 -3.569364e+02 -5.914400e+04 0.000000e+00 0.000000e+00 0.000000e+00 0.000000e+00
-9.305052e+04 -3.534536e+02 0.000000e+00 -3.534536e+02 -5.953370e+04 0.000000e+00 0.000000e+00 0.000000e+00 0.000000e+00
-9.479073e+04 -2.761854e+02 0.000000e+00 -2.761854e+02 -5.983749e+04 0.000000e+00 0.000000e+00 0.000000e+00 0.000000e+00
-9.626703e+04 -1.955472e+02 0.000000e+00 -1.955472e+02 -6.028051e+04 0.000000e+00 0.000000e+00 0.000000e+00 0.000000e+00
</DataArray>
<DataArray Name="vol_eps" type="Float64" NumberOfComponents="1" format="ascii">
-1.221210e-02
-1.053872e-02
-8.934772e-03
-7.689796e-03
-7.489189e-03
-7.988668e-03
-9.413199e-03
-1.176881e-02
-1.484876e-02
-1.799846e-02
-1.842635e-02
-1.175155e-02
-9.904978e-03
-8.586811e-03
-8.161677e-03
-8.359931e-03
-8.638164e-03
-9.179851e-03
-1.063408e-02
-1.283539e-02
-1.524694e-02
-1.990382e-02
-9.873334e-03
-7.948003e-03
-7.226692e-03
-7.493033e-03
-7.745363e-03
-8.043871e-03
-8.588185e-03
-9.509883e-03
-1.002462e-02
-1.090981e-02
-1.488173e-02
-6.735502e-03
-5.482534e-03
-5.327138e-03
-5.529001e-03
-5.467650e-03
-4.873068e-03
-3.744615e-03
-1.926356e-03
9.382650e-04
5.017576e-03
9.270151e-03
-5.049039e-03
-4.739222e-03
-5.409032e-03
-5.910006e-03
-6.155858e-03
-6.145351e-03
-5.896460e-03
-5.454230e-03
-4.589410e-03
-2.800074e-03
2.722585e-04
-3.572565e-03
-3.899890e-03
-4.688529e-03
-5.077251e-03
-5.232701e-03
-5.153012e-03
-4.860099e-03
-4.360852e-03
-3.535700e-03
-1.917851e-03
2.949686e-04
-2.345860e-03
-3.261722e-03
-4.065094e-03
-4.395335e-03
-4.454958e-03
-4.299661e-03
-3.980181e-03
-3.520789e-03
-2.809978e-03
-1.604551e-03
-1.972187e-04
-1.530616e-03
-2.744278e-03
-3.525787e-03
-3.759155e-03
-3.760807e-03
-3.609426e-03
-3.342216e-03
-2.952124e-03
-2.383698e-03
-1.559602e-03
-6.743756e-04
-1.082458e-03
-2.321091e-03
-3.011898e-03
-3.201388e-03
-3.207535e-03
-3.099612e-03
-2.885278e-03
-2.560615e-03
-2.153708e-03
-1.635845e-03
-1.099302e-03
-8.307524e-04
-1.961979e-03
-2.551987e-03
-2.750050e-03
-2.785197e-03
-2.715130e-03
-2.540331e-03
-2.305944e-03
-2.050565e-03
-1.756525e-03
-1.456776e-03
-6.843139e-04
-1.666110e-03
-2.190787e-03
-2.396154e-03
-2.455415e-03
-2.408193e-03
-2.288104e-03
-2.151014e-03
-2.016879e-03
-1.881927e-03
-1.742188e-03
-6.164997e-04
-1.433857e-03
-1.908021e-03
-2.117045e-03
-2.181706e-03
-2.163943e-03
-2.111536e-03
-2.059239e-03
-2.019399e-03
-1.988920e-03
-1.952712e-03
-5.815974e-04
-1.241982e-03
-1.674477e-03
-1.884579e-03
-1.960900e-03
-1.981192e-03
-1.989642e-03
-2.005773e-03
-2.034853e-03
-2.071470e-03
-2.103428e-03
-5.874133e-04
-1.101794e-03
-1.484164e-03
-1.688532e-03
-1.790672e-03
-1.850536e-03
-1.907297e-03
-1.974875e-03
-2.051597e-03
-2.131658e-03
-2.208136e-03
-6.158179e-04
-1.022175e-03
-1.347503e-03
-1.543443e-03
-1.668960e-03
-1.763614e-03
-1.854501e-03
-1.957047e-03
-2.065607e-03
-2.173773e-03
-2.278492e-03
-6.307788e-04
-9.767618e-04
-1.261005e-03
-1.455509e-03
-1.599874e-03
-1.716033e-03
-1.826925e-03
-1.949550e-03
-2.076295e-03
-2.199056e-03
-2.317571e-03
-6.102137e-04
-9.489075e-04
-1.230680e-03
-1.427466e-03
-1.580018e-03
-1.704262e-03
-1.822560e-03
-1.951518e-03
-2.084509e-03
-2.211352e-03
-2.332842e-03
</DataArray>
</PointData>
</Piece>
</UnstructuredGrid>
</VTKFile>
