<?xml version="1.0"?>
<VTKFile type="UnstructuredGrid" version="0.1">
<UnstructuredGrid>
<FieldData>
<DataArray Name="TIME" type="Float64" format="ascii" NumberOfTuples="1">
0.000000e+00
</DataArray>
</FieldData>
<FieldData>
<DataArray Name="CYCLE" type="Int32" format="ascii" NumberOfTuples="1">
0
</DataArray>
</FieldData>
<Piece NumberOfPoints="187" NumberOfCells="160">
<Points>
<DataArray NumberOfComponents="3" type="Float64" format="ascii">
0.000000e+00 0.000000e+00 0.000000e+00
0.000000e+00 1.969213e-01 0.000000e+00
0.000000e+00 3.922202e-01 0.000000e+00
0.000000e+00 5.851508e-01 0.000000e+00
0.000000e+00 7.767049e-01 0.000000e+00
0.000000e+00 9.677544e-01 0.000000e+00
0.000000e+00 1.158650e+00 0.000000e+00
0.000000e+00 1.349745e+00 0.000000e+00
0.000000e+00 1.542161e+00 0.000000e+00
0.000000e+00 1.737512e+00 0.000000e+00
0.000000e+00 1.933625e+00 0.000000e+00
2.250000e-01 0.000000e+00 0.000000e+00
2.267402e-01 1.968617e-01 0.000000e+00
2.295239e-01 3.923116e-01 0.000000e+00
2.319552e-01 5.862685e-01 0.000000e+00
2.332220e-01 7.788851e-01 0.000000e+00
2.335259e-01 9.706499e-01 0.000000e+00
2.332456e-01 1.162044e+00 0.000000e+00
2.321746e-01 1.353480e+00 0.000000e+00
2.293597e-01 1.545035e+00 0.000000e+00
2.256228e-01 1.737881e+00 0.000000e+00
2.250000e-01 1.933625e+00 0.000000e+00
4.500000e-01 0.000000e+00 0.000000e+00
4.538058e-01 1.972177e-01 0.000000e+00
4.578556e-01 3.936118e-01 0.000000e+00
4.612634e-01 5.895953e-01 0.000000e+00
4.637374e-01 7.850587e-01 0.000000e+00
4.652257e-01 9.795945e-01 0.000000e+00
4.656003e-01 1.172971e+00 0.000000e+00
4.651345e-01 1.365016e+00 0.000000e+00
4.628016e-01 1.555434e+00 0.000000e+00
4.578848e-01 1.744720e+00 0.000000e+00
4.500000e-01 1.933625e+00 0.000000e+00
6.750000e-01 0.000000e+00 0.000000e+00
6.802769e-01 1.985049e-01 0.000000e+00
6.847351e-01 3.968273e-01 0.000000e+00
6.881530e-01 5.953085e-01 0.000000e+00
6.908473e-01 7.940438e-01 0.000000e+00
6.928742e-01 9.930891e-01 0.000000e+00
6.941050e-01 1.192446e+00 0.000000e+00
6.943782e-01 1.392226e+00 0.000000e+00
6.928593e-01 1.592474e+00 0.000000e+00
6.892927e-01 1.792828e+00 0.000000e+00
6.828957e-01 1.992794e+00 0.000000e+00
9.000000e-01 0.000000e+00 0.000000e+00
9.056929e-01 1.989549e-01 0.000000e+00
9.097958e-01 3.979943e-01 0.000000e+00
9.127486e-01 5.973057e-01 0.000000e+00
9.150984e-01 7.968935e-01 0.000000e+00
9.167561e-01 9.967751e-01 0.000000e+00
9.176558e-01 1.197011e+00 0.000000e+00
9.174747e-01 1.397601e+00 0.000000e+00
9.158844e-01 1.598383e+00 0.000000e+00
9.127515e-01 1.799063e+00 0.000000e+00
9.084814e-01 1.999138e+00 0.000000e+00
1.125000e+00 0.000000e+00 0.000000e+00
1.130703e+00 1.993969e-01 0.000000e+00
1.134212e+00 3.989834e-01 0.000000e+00
1.136810e+00 5.988346e-01 0.000000e+00
1.138834e+00 7.989398e-01 0.000000e+00
1.140160e+00 9.993126e-01 0.000000e+00
1.140749e+00 1.199963e+00 0.000000e+00
1.140393e+00 1.400851e+00 0.000000e+00
1.138965e+00 1.601805e+00 0.000000e+00
1.136620e+00 1.802463e+00 0.000000e+00
1.134059e+00 2.002557e+00 0.000000e+00
1.350000e+00 0.000000e+00 0.000000e+00
1.355315e+00 1.997559e-01 0.000000e+00
1.358310e+00 3.996914e-01 0.000000e+00
1.360581e+00 5.998581e-01 0.000000e+00
1.362288e+00 8.002641e-01 0.000000e+00
1.363366e+00 1.000905e+00 0.000000e+00
1.363762e+00 1.201777e+00 0.000000e+00
1.363384e+00 1.402786e+00 0.000000e+00
1.362280e+00 1.603728e+00 0.000000e+00
1.360733e+00 1.804322e+00 0.000000e+00
1.359273e+00 2.004474e+00 0.000000e+00
1.575000e+00 0.000000e+00 0.000000e+00
1.579668e+00 1.999794e-01 0.000000e+00
1.582256e+00 4.001203e-01 0.000000e+00
1.584207e+00 6.004784e-01 0.000000e+00
1.585652e+00 8.010553e-01 0.000000e+00
1.586537e+00 1.001850e+00 0.000000e+00
1.586826e+00 1.202804e+00 0.000000e+00
1.586539e+00 1.403806e+00 0.000000e+00
1.585814e+00 1.604668e+00 0.000000e+00
1.584913e+00 1.805220e+00 0.000000e+00
1.584181e+00 2.005432e+00 0.000000e+00
1.800000e+00 0.000000e+00 0.000000e+00
1.803905e+00 2.000770e-01 0.000000e+00
1.806133e+00 4.003460e-01 0.000000e+00
1.807808e+00 6.008063e-01 0.000000e+00
1.809024e+00 8.014714e-01 0.000000e+00
1.809756e+00 1.002321e+00 0.000000e+00
1.810016e+00 1.203264e+00 0.000000e+00
1.809879e+00 1.404190e+00 0.000000e+00
1.809501e+00 1.604963e+00 0.000000e+00
1.809073e+00 1.805495e+00 0.000000e+00
1.808821e+00 2.005781e+00 0.000000e+00
2.025000e+00 0.000000e+00 0.000000e+00
2.028127e+00 2.001005e-01 0.000000e+00
2.030022e+00 4.004226e-01 0.000000e+00
2.031452e+00 6.009336e-01 0.000000e+00
2.032465e+00 8.016204e-01 0.000000e+00
2.033087e+00 1.002439e+00 0.000000e+00
2.033366e+00 1.203309e+00 0.000000e+00
2.033390e+00 1.404139e+00 0.000000e+00
2.033276e+00 1.604843e+00 0.000000e+00
2.033170e+00 1.805380e+00 0.000000e+00
2.033217e+00 2.005748e+00 0.000000e+00
2.250000e+00 0.000000e+00 0.000000e+00
2.252403e+00 2.000906e-01 0.000000e+00
2.253982e+00 4.004142e-01 0.000000e+00
2.255178e+00 6.009188e-01 0.000000e+00
2.256029e+00 8.015692e-01 0.000000e+00
2.256578e+00 1.002310e+00 0.000000e+00
2.256886e+00 1.203084e+00 0.000000e+00
2.257030e+00 1.403831e+00 0.000000e+00
2.257092e+00 1.604491e+00 0.000000e+00
2.257182e+00 1.805043e+00 0.000000e+00
2.257399e+00 2.005495e+00 0.000000e+00
2.475000e+00 0.000000e+00 0.000000e+00
2.476767e+00 2.000622e-01 0.000000e+00
2.478042e+00 4.003499e-01 0.000000e+00
2.479022e+00 6.008028e-01 0.000000e+00
2.479737e+00 8.013787e-01 0.000000e+00
2.480229e+00 1.002032e+00 0.000000e+00
2.480550e+00 1.202722e+00 0.000000e+00
2.480759e+00 1.403402e+00 0.000000e+00
2.480921e+00 1.604035e+00 0.000000e+00
2.481114e+00 1.804607e+00 0.000000e+00
2.481404e+00 2.005132e+00 0.000000e+00
2.700000e+00 0.000000e+00 0.000000e+00
2.701239e+00 2.000291e-01 0.000000e+00
2.702223e+00 4.002525e-01 0.000000e+00
2.703002e+00 6.006295e-01 0.000000e+00
2.703590e+00 8.011262e-01 0.000000e+00
2.704018e+00 1.001703e+00 0.000000e+00
2.704320e+00 1.202323e+00 0.000000e+00
2.704547e+00 1.402954e+00 0.000000e+00
2.704749e+00 1.603568e+00 0.000000e+00
2.704977e+00 1.804160e+00 0.000000e+00
2.705272e+00 2.004744e+00 0.000000e+00
2.925000e+00 0.000000e+00 0.000000e+00
2.925826e+00 1.999913e-01 0.000000e+00
2.926533e+00 4.001466e-01 0.000000e+00
2.927115e+00 6.004486e-01 0.000000e+00
2.927572e+00 8.008748e-01 0.000000e+00
2.927916e+00 1.001388e+00 0.000000e+00
2.928172e+00 1.201955e+00 0.000000e+00
2.928378e+00 1.402548e+00 0.000000e+00
2.928570e+00 1.603150e+00 0.000000e+00
2.928782e+00 1.803759e+00 0.000000e+00
2.929037e+00 2.004390e+00 0.000000e+00
3.150000e+00 0.000000e+00 0.000000e+00
3.150505e+00 1.999569e-01 0.000000e+00
3.150956e+00 4.000594e-01 0.000000e+00
3.151342e+00 6.003045e-01 0.000000e+00
3.151653e+00 8.006717e-01 0.000000e+00
3.151896e+00 1.001137e+00 0.000000e+00
3.152081e+00 1.201663e+00 0.000000e+00
3.152236e+00 1.402230e+00 0.000000e+00
3.152384e+00 1.602824e+00 0.000000e+00
3.152544e+00 1.803445e+00 0.000000e+00
3.152729e+00 2.004108e+00 0.000000e+00
3.375000e+00 0.000000e+00 0.000000e+00
3.375240e+00 1.999362e-01 0.000000e+00
3.375458e+00 4.000088e-01 0.000000e+00
3.375651e+00 6.002190e-01 0.000000e+00
3.375807e+00 8.005486e-01 0.000000e+00
3.375932e+00 1.000979e+00 0.000000e+00
3.376030e+00 1.201480e+00 0.000000e+00
3.376112e+00 1.402029e+00 0.000000e+00
3.376193e+00 1.602616e+00 0.000000e+00
3.376278e+00 1.803244e+00 0.000000e+00
3.376374e+00 2.003925e+00 0.000000e+00
3.600000e+00 0.000000e+00 0.000000e+00
3.600000e+00 1.999414e-01 0.000000e+00
3.600000e+00 4.000067e-01 0.000000e+00
3.600000e+00 6.002046e-01 0.000000e+00
3.600000e+00 8.005197e-01 0.000000e+00
3.600000e+00 1.000934e+00 0.000000e+00
3.600000e+00 1.201421e+00 0.000000e+00
3.600000e+00 1.401960e+00 0.000000e+00
3.600000e+00 1.602540e+00 0.000000e+00
3.600000e+00 1.803167e+00 0.000000e+00
3.600000e+00 2.003852e+00 0.000000e+00
</DataArray>
</Points>
<Cells>
<DataArray Name="connectivity" type="Int32" format="ascii">
0 11 12 1
1 12 13 2
2 13 14 3
3 14 15 4
4 15 16 5
5 16 17 6
6 17 18 7
7 18 19 8
8 19 20 9
9 20 21 10
11 22 23 12
12 23 24 13
13 24 25 14
14 25 26 15
15 26 27 16
16 27 28 17
17 28 29 18
18 29 30 19
19 30 31 20
20 31 32 21
22 33 34 23
23 34 35 24
24 35 36 25
25 36 37 26
26 37 38 27
27 38 39 28
28 39 40 29
29 40 41 30
30 41 42 31
31 42 43 32
33 44 45 34
34 45 46 35
35 46 47 36
36 47 48 37
37 48 49 38
38 49 50 39
39 50 51 40
40 51 52 41
41 52 53 42
42 53 54 43
44 55 56 45
45 56 57 46
46 57 58 47
47 58 59 48
48 59 60 49
49 60 61 50
50 61 62 51
51 62 63 52
52 63 64 53
53 64 65 54
55 66 67 56
56 67 68 57
57 68 69 58
58 69 70 59
59 70 71 60
60 71 72 61
61 72 73 62
62 73 74 63
63 74 75 64
64 75 76 65
66 77 78 67
67 78 79 68
68 79 80 69
69 80 81 70
70 81 82 71
71 82 83 72
72 83 84 73
73 84 85 74
74 85 86 75
75 86 87 76
77 88 89 78
78 89 90 79
79 90 91 80
80 91 92 81
81 92 93 82
82 93 94 83
83 94 95 84
84 95 96 85
85 96 97 86
86 97 98 87
88 99 100 89
89 100 101 90
90 101 102 91
91 102 103 92
92 103 104 93
93 104 105 94
94 105 106 95
95 106 107 96
96 107 108 97
97 108 109 98
99 110 111 100
100 111 112 101
101 112 113 102
102 113 114 103
103 114 115 104
104 115 116 105
105 116 117 106
106 117 118 107
107 118 119 108
108 119 120 109
110 121 122 111
111 122 123 112
112 123 124 113
113 124 125 114
114 125 126 115
115 126 127 116
116 127 128 117
117 128 129 118
118 129 130 119
119 130 131 120
121 132 133 122
122 133 134 123
123 134 135 124
124 135 136 125
125 136 137 126
126 137 138 127
127 138 139 128
128 139 140 129
129 140 141 130
130 141 142 131
132 143 144 133
133 144 145 134
134 145 146 135
135 146 147 136
136 147 148 137
137 148 149 138
138 149 150 139
139 150 151 140
140 151 152 141
141 152 153 142
143 154 155 144
144 155 156 145
145 156 157 146
146 157 158 147
147 158 159 148
148 159 160 149
149 160 161 150
150 161 162 151
151 162 163 152
152 163 164 153
154 165 166 155
155 166 167 156
156 167 168 157
157 168 169 158
158 169 170 159
159 170 171 160
160 171 172 161
161 172 173 162
162 173 174 163
163 174 175 164
165 176 177 166
166 177 178 167
167 178 179 168
168 179 180 169
169 180 181 170
170 181 182 171
171 182 183 172
172 183 184 173
173 184 185 174
174 185 186 175
</DataArray>
<DataArray Name="offsets" type="Int32" format="ascii">
4
8
12
16
20
24
28
32
36
40
44
48
52
56
60
64
68
72
76
80
84
88
92
96
100
104
108
112
116
120
124
128
132
136
140
144
148
152
156
160
164
168
172
176
180
184
188
192
196
200
204
208
212
216
220
224
228
232
236
240
244
248
252
256
260
264
268
272
276
280
284
288
292
296
300
304
308
312
316
320
324
328
332
336
340
344
348
352
356
360
364
368
372
376
380
384
388
392
396
400
404
408
412
416
420
424
428
432
436
440
444
448
452
456
460
464
468
472
476
480
484
488
492
496
500
504
508
512
516
520
524
528
532
536
540
544
548
552
556
560
564
568
572
576
580
584
588
592
596
600
604
608
612
616
620
624
628
632
636
640
</DataArray>
<DataArray Name="types" type="UInt8" format="ascii">
9
9
9
9
9
9
9
9
9
9
9
9
9
9
9
9
9
9
9
9
9
9
9
9
9
9
9
9
9
9
9
9
9
9
9
9
9
9
9
9
9
9
9
9
9
9
9
9
9
9
9
9
9
9
9
9
9
9
9
9
9
9
9
9
9
9
9
9
9
9
9
9
9
9
9
9
9
9
9
9
9
9
9
9
9
9
9
9
9
9
9
9
9
9
9
9
9
9
9
9
9
9
9
9
9
9
9
9
9
9
9
9
9
9
9
9
9
9
9
9
9
9
9
9
9
9
9
9
9
9
9
9
9
9
9
9
9
9
9
9
9
9
9
9
9
9
9
9
9
9
9
9
9
9
9
9
9
9
9
9
</DataArray>
</Cells>
<PointData>
<DataArray Name="disp" type="Float64" NumberOfComponents="3" format="ascii">
0.000000e+00 0.000000e+00 0.000000e+00
0.000000e+00 -3.078706e-03 0.000000e+00
0.000000e+00 -7.779840e-03 0.000000e+00
0.000000e+00 -1.484923e-02 0.000000e+00
0.000000e+00 -2.329511e-02 0.000000e+00
0.000000e+00 -3.224561e-02 0.000000e+00
0.000000e+00 -4.135018e-02 0.000000e+00
0.000000e+00 -5.025508e-02 0.000000e+00
0.000000e+00 -5.783949e-02 0.000000e+00
0.000000e+00 -6.248824e-02 0.000000e+00
0.000000e+00 -6.637500e-02 0.000000e+00
0.000000e+00 0.000000e+00 0.000000e+00
1.740166e-03 -3.138263e-03 0.000000e+00
4.523934e-03 -7.688395e-03 0.000000e+00
6.955169e-03 -1.373146e-02 0.000000e+00
8.221959e-03 -2.111488e-02 0.000000e+00
8.525877e-03 -2.935011e-02 0.000000e+00
8.245564e-03 -3.795556e-02 0.000000e+00
7.174646e-03 -4.651959e-02 0.000000e+00
4.359683e-03 -5.496525e-02 0.000000e+00
6.227706e-04 -6.211888e-02 0.000000e+00
0.000000e+00 -6.637500e-02 0.000000e+00
0.000000e+00 0.000000e+00 0.000000e+00
3.805836e-03 -2.782311e-03 0.000000e+00
7.855567e-03 -6.388245e-03 0.000000e+00
1.126343e-02 -1.040469e-02 0.000000e+00
1.373737e-02 -1.494135e-02 0.000000e+00
1.522572e-02 -2.040551e-02 0.000000e+00
1.560035e-02 -2.702898e-02 0.000000e+00
1.513450e-02 -3.498431e-02 0.000000e+00
1.280161e-02 -4.456580e-02 0.000000e+00
7.884780e-03 -5.527962e-02 0.000000e+00
0.000000e+00 -6.637500e-02 0.000000e+00
0.000000e+00 0.000000e+00 0.000000e+00
5.276848e-03 -1.495126e-03 0.000000e+00
9.735088e-03 -3.172703e-03 0.000000e+00
1.315299e-02 -4.691528e-03 0.000000e+00
1.584734e-02 -5.956179e-03 0.000000e+00
1.787419e-02 -6.910878e-03 0.000000e+00
1.910505e-02 -7.553790e-03 0.000000e+00
1.937817e-02 -7.774503e-03 0.000000e+00
1.785930e-02 -7.526374e-03 0.000000e+00
1.429268e-02 -7.171785e-03 0.000000e+00
7.895724e-03 -7.206219e-03 0.000000e+00
0.000000e+00 0.000000e+00 0.000000e+00
5.692854e-03 -1.045144e-03 0.000000e+00
9.795763e-03 -2.005743e-03 0.000000e+00
1.274864e-02 -2.694356e-03 0.000000e+00
1.509844e-02 -3.106476e-03 0.000000e+00
1.675607e-02 -3.224925e-03 0.000000e+00
1.765576e-02 -2.988814e-03 0.000000e+00
1.747475e-02 -2.399370e-03 0.000000e+00
1.588437e-02 -1.617412e-03 0.000000e+00
1.275150e-02 -9.369022e-04 0.000000e+00
8.481422e-03 -8.620772e-04 0.000000e+00
0.000000e+00 0.000000e+00 0.000000e+00
5.703026e-03 -6.031365e-04 0.000000e+00
9.211803e-03 -1.016647e-03 0.000000e+00
1.180967e-02 -1.165368e-03 0.000000e+00
1.383415e-02 -1.060214e-03 0.000000e+00
1.515982e-02 -6.874451e-04 0.000000e+00
1.574882e-02 -3.673969e-05 0.000000e+00
1.539285e-02 8.513961e-04 0.000000e+00
1.396502e-02 1.804676e-03 0.000000e+00
1.162033e-02 2.462934e-03 0.000000e+00
9.058633e-03 2.556577e-03 0.000000e+00
0.000000e+00 0.000000e+00 0.000000e+00
5.315002e-03 -2.441235e-04 0.000000e+00
8.310349e-03 -3.085988e-04 0.000000e+00
1.058112e-02 -1.418979e-04 0.000000e+00
1.228758e-02 2.640467e-04 0.000000e+00
1.336575e-02 9.046610e-04 0.000000e+00
1.376235e-02 1.777259e-03 0.000000e+00
1.338405e-02 2.785914e-03 0.000000e+00
1.227970e-02 3.728262e-03 0.000000e+00
1.073335e-02 4.322170e-03 0.000000e+00
9.272618e-03 4.473680e-03 0.000000e+00
0.000000e+00 0.000000e+00 0.000000e+00
4.668392e-03 -2.061696e-05 0.000000e+00
7.255745e-03 1.203175e-04 0.000000e+00
9.206722e-03 4.783898e-04 0.000000e+00
1.065156e-02 1.055233e-03 0.000000e+00
1.153699e-02 1.850053e-03 0.000000e+00
1.182634e-02 2.804496e-03 0.000000e+00
1.153873e-02 3.805856e-03 0.000000e+00
1.081351e-02 4.668116e-03 0.000000e+00
9.913074e-03 5.219861e-03 0.000000e+00
9.180749e-03 5.432221e-03 0.000000e+00
0.000000e+00 0.000000e+00 0.000000e+00
3.904762e-03 7.702099e-05 0.000000e+00
6.132626e-03 3.459498e-04 0.000000e+00
7.808402e-03 8.063143e-04 0.000000e+00
9.024332e-03 1.471364e-03 0.000000e+00
9.755866e-03 2.320475e-03 0.000000e+00
1.001585e-02 3.264073e-03 0.000000e+00
9.878764e-03 4.190418e-03 0.000000e+00
9.501427e-03 4.963155e-03 0.000000e+00
9.072887e-03 5.494982e-03 0.000000e+00
8.821299e-03 5.781518e-03 0.000000e+00
0.000000e+00 0.000000e+00 0.000000e+00
3.127357e-03 1.005103e-04 0.000000e+00
5.022230e-03 4.226042e-04 0.000000e+00
6.451717e-03 9.336008e-04 0.000000e+00
7.465423e-03 1.620412e-03 0.000000e+00
8.087403e-03 2.439062e-03 0.000000e+00
8.366421e-03 3.309102e-03 0.000000e+00
8.390203e-03 4.139442e-03 0.000000e+00
8.276410e-03 4.843357e-03 0.000000e+00
8.169619e-03 5.380120e-03 0.000000e+00
8.217144e-03 5.748306e-03 0.000000e+00
0.000000e+00 0.000000e+00 0.000000e+00
2.402441e-03 9.058266e-05 0.000000e+00
3.982028e-03 4.142423e-04 0.000000e+00
5.177874e-03 9.188150e-04 0.000000e+00
6.029013e-03 1.569197e-03 0.000000e+00
6.578241e-03 2.309941e-03 0.000000e+00
6.885423e-03 3.084043e-03 0.000000e+00
7.030229e-03 3.830748e-03 0.000000e+00
7.092575e-03 4.490622e-03 0.000000e+00
7.182466e-03 5.042508e-03 0.000000e+00
7.398879e-03 5.495071e-03 0.000000e+00
0.000000e+00 0.000000e+00 0.000000e+00
1.767410e-03 6.218518e-05 0.000000e+00
3.041910e-03 3.498457e-04 0.000000e+00
4.022188e-03 8.027684e-04 0.000000e+00
4.736882e-03 1.378703e-03 0.000000e+00
5.229058e-03 2.032070e-03 0.000000e+00
5.549788e-03 2.722020e-03 0.000000e+00
5.758681e-03 3.402095e-03 0.000000e+00
5.921047e-03 4.035420e-03 0.000000e+00
6.114373e-03 4.606756e-03 0.000000e+00
6.403893e-03 5.131667e-03 0.000000e+00
0.000000e+00 0.000000e+00 0.000000e+00
1.239359e-03 2.910274e-05 0.000000e+00
2.223156e-03 2.524514e-04 0.000000e+00
3.002302e-03 6.295346e-04 0.000000e+00
3.590409e-03 1.126262e-03 0.000000e+00
4.017961e-03 1.702702e-03 0.000000e+00
4.320350e-03 2.323420e-03 0.000000e+00
4.547162e-03 2.953842e-03 0.000000e+00
4.748634e-03 3.567887e-03 0.000000e+00
4.977348e-03 4.159683e-03 0.000000e+00
5.272459e-03 4.743807e-03 0.000000e+00
0.000000e+00 0.000000e+00 0.000000e+00
8.254803e-04 -8.737756e-06 0.000000e+00
1.533244e-03 1.466006e-04 0.000000e+00
2.114639e-03 4.486160e-04 0.000000e+00
2.571704e-03 8.747469e-04 0.000000e+00
2.916067e-03 1.387642e-03 0.000000e+00
3.171944e-03 1.954752e-03 0.000000e+00
3.377568e-03 2.548023e-03 0.000000e+00
3.569993e-03 3.150131e-03 0.000000e+00
3.781914e-03 3.759005e-03 0.000000e+00
4.036752e-03 4.389783e-03 0.000000e+00
0.000000e+00 0.000000e+00 0.000000e+00
5.046222e-04 -4.313569e-05 0.000000e+00
9.565055e-04 5.939501e-05 0.000000e+00
1.341676e-03 3.044679e-04 0.000000e+00
1.652643e-03 6.716860e-04 0.000000e+00
1.896228e-03 1.136694e-03 0.000000e+00
2.081533e-03 1.663529e-03 0.000000e+00
2.236052e-03 2.230112e-03 0.000000e+00
2.384102e-03 2.823699e-03 0.000000e+00
2.543554e-03 3.445381e-03 0.000000e+00
2.728495e-03 4.108471e-03 0.000000e+00
0.000000e+00 0.000000e+00 0.000000e+00
2.401955e-04 -6.384584e-05 0.000000e+00
4.580599e-04 8.754981e-06 0.000000e+00
6.506221e-04 2.189698e-04 0.000000e+00
8.065461e-04 5.485986e-04 0.000000e+00
9.322181e-04 9.789275e-04 0.000000e+00
1.030102e-03 1.480170e-03 0.000000e+00
1.112538e-03 2.028598e-03 0.000000e+00
1.192500e-03 2.615616e-03 0.000000e+00
1.278066e-03 3.244100e-03 0.000000e+00
1.373989e-03 3.925103e-03 0.000000e+00
0.000000e+00 0.000000e+00 0.000000e+00
0.000000e+00 -5.859342e-05 0.000000e+00
0.000000e+00 6.671688e-06 0.000000e+00
0.000000e+00 2.046391e-04 0.000000e+00
0.000000e+00 5.197052e-04 0.000000e+00
0.000000e+00 9.334823e-04 0.000000e+00
0.000000e+00 1.421184e-03 0.000000e+00
0.000000e+00 1.959499e-03 0.000000e+00
0.000000e+00 2.540069e-03 0.000000e+00
0.000000e+00 3.167458e-03 0.000000e+00
0.000000e+00 3.852338e-03 0.000000e+00
</DataArray>
<DataArray Name="shear" type="Float64" NumberOfComponents="1" format="ascii">
1.840706e-02
2.827351e-02
4.880359e-02
6.783839e-02
7.885443e-02
8.289167e-02
8.194608e-02
7.375345e-02
5.282478e-02
2.908186e-02
2.117680e-02
2.048952e-02
2.985541e-02
4.591011e-02
6.035582e-02
7.159460e-02
7.904294e-02
8.217309e-02
7.995511e-02
6.898756e-02
4.862106e-02
3.301070e-02
2.541701e-02
3.231710e-02
4.140605e-02
4.932545e-02
5.993763e-02
7.322448e-02
8.793146e-02
1.019114e-01
1.126677e-01
1.172090e-01
1.167012e-01
2.858288e-02
3.048789e-02
3.216183e-02
3.455521e-02
3.963860e-02
4.740315e-02
5.802155e-02
7.012892e-02
8.353550e-02
9.794688e-02
1.093941e-01
2.942688e-02
2.700690e-02
2.272454e-02
2.121891e-02
2.116517e-02
2.114245e-02
2.069536e-02
1.882587e-02
1.464211e-02
7.195730e-03
5.353867e-04
2.899297e-02
2.483153e-02
1.919240e-02
1.786318e-02
1.749855e-02
1.718025e-02
1.661151e-02
1.507272e-02
1.178226e-02
5.947206e-03
1.719659e-03
2.684985e-02
2.209287e-02
1.636763e-02
1.538465e-02
1.512313e-02
1.498226e-02
1.465387e-02
1.344490e-02
1.055965e-02
5.732018e-03
2.262286e-03
2.353062e-02
1.912557e-02
1.417359e-02
1.356247e-02
1.359080e-02
1.368963e-02
1.344261e-02
1.226432e-02
9.675542e-03
5.803707e-03
3.156373e-03
1.967751e-02
1.614056e-02
1.241853e-02
1.212487e-02
1.238610e-02
1.259652e-02
1.230954e-02
1.116165e-02
9.016714e-03
6.111278e-03
4.240868e-03
1.578360e-02
1.328234e-02
1.085429e-02
1.083477e-02
1.118892e-02
1.140555e-02
1.113658e-02
1.018978e-02
8.607662e-03
6.604869e-03
5.392046e-03
1.215308e-02
1.061631e-02
9.319830e-03
9.525712e-03
9.925796e-03
1.016520e-02
1.003461e-02
9.426156e-03
8.398753e-03
7.172286e-03
6.485764e-03
8.962347e-03
8.181205e-03
7.759053e-03
8.182103e-03
8.694287e-03
9.051208e-03
9.125283e-03
8.861685e-03
8.317913e-03
7.705823e-03
7.414755e-03
6.298785e-03
6.019277e-03
6.219928e-03
6.904828e-03
7.604343e-03
8.132345e-03
8.419599e-03
8.450020e-03
8.304176e-03
8.166720e-03
8.159366e-03
4.183723e-03
4.178748e-03
4.821952e-03
5.795666e-03
6.710524e-03
7.413655e-03
7.884443e-03
8.155837e-03
8.322546e-03
8.535713e-03
8.726966e-03
2.540734e-03
2.702031e-03
3.705920e-03
4.929129e-03
6.028453e-03
6.885773e-03
7.500638e-03
7.953069e-03
8.345173e-03
8.794749e-03
9.115760e-03
1.212564e-03
1.601511e-03
2.972298e-03
4.374331e-03
5.581319e-03
6.540658e-03
7.254546e-03
7.819432e-03
8.350031e-03
8.938546e-03
9.332059e-03
4.118090e-04
1.140843e-03
2.713331e-03
4.178735e-03
5.415895e-03
6.407253e-03
7.159412e-03
7.763841e-03
8.342004e-03
8.978961e-03
9.395825e-03
</DataArray>
<DataArray Name="stress" type="Float64" NumberOfComponents="9" format="ascii">
-1.196840e+05 6.063213e+03 0.000000e+00 6.063213e+03 -2.071356e+05 0.000000e+00 0.000000e+00 0.000000e+00 0.000000e+00
-1.054922e+05 4.611941e+03 0.000000e+00 4.611941e+03 -2.077515e+05 0.000000e+00 0.000000e+00 0.000000e+00 0.000000e+00
-1.090360e+05 2.664173e+03 0.000000e+00 2.664173e+03 -2.136036e+05 0.000000e+00 0.000000e+00 0.000000e+00 0.000000e+00
-1.160011e+05 3.909984e+03 0.000000e+00 3.909984e+03 -2.196240e+05 0.000000e+00 0.000000e+00 0.000000e+00 0.000000e+00
-1.192969e+05 5.757767e+03 0.000000e+00 5.757767e+03 -2.284299e+05 0.000000e+00 0.000000e+00 0.000000e+00 0.000000e+00
-1.242136e+05 7.957345e+03 0.000000e+00 7.957345e+03 -2.403107e+05 0.000000e+00 0.000000e+00 0.000000e+00 0.000000e+00
-1.311970e+05 1.003350e+04 0.000000e+00 1.003350e+04 -2.537945e+05 0.000000e+00 0.000000e+00 0.000000e+00 0.000000e+00
-1.405970e+05 1.046426e+04 0.000000e+00 1.046426e+04 -2.658252e+05 0.000000e+00 0.000000e+00 0.000000e+00 0.000000e+00
-1.433588e+05 4.682762e+03 0.000000e+00 4.682762e+03 -2.751869e+05 0.000000e+00 0.000000e+00 0.000000e+00 0.000000e+00
-1.491242e+05 -2.038415e+03 0.000000e+00 -2.038415e+03 -2.834168e+05 0.000000e+00 0.000000e+00 0.000000e+00 0.000000e+00
-1.554650e+05 -1.136557e+03 0.000000e+00 -1.136557e+03 -2.726519e+05 0.000000e+00 0.000000e+00 0.000000e+00 0.000000e+00
-1.213740e+05 1.776460e+04 0.000000e+00 1.776460e+04 -2.012942e+05 0.000000e+00 0.000000e+00 0.000000e+00 0.000000e+00
-1.063579e+05 1.504611e+04 0.000000e+00 1.504611e+04 -1.978154e+05 0.000000e+00 0.000000e+00 0.000000e+00 0.000000e+00
-1.064774e+05 1.326709e+04 0.000000e+00 1.326709e+04 -2.091743e+05 0.000000e+00 0.000000e+00 0.000000e+00 0.000000e+00
-1.138647e+05 1.289110e+04 0.000000e+00 1.289110e+04 -2.207755e+05 0.000000e+00 0.000000e+00 0.000000e+00 0.000000e+00
-1.206432e+05 1.301106e+04 0.000000e+00 1.301106e+04 -2.320306e+05 0.000000e+00 0.000000e+00 0.000000e+00 0.000000e+00
-1.259384e+05 1.364182e+04 0.000000e+00 1.364182e+04 -2.427188e+05 0.000000e+00 0.000000e+00 0.000000e+00 0.000000e+00
-1.317321e+05 1.438831e+04 0.000000e+00 1.438831e+04 -2.520087e+05 0.000000e+00 0.000000e+00 0.000000e+00 0.000000e+00
-1.387231e+05 1.305498e+04 0.000000e+00 1.305498e+04 -2.590780e+05 0.000000e+00 0.000000e+00 0.000000e+00 0.000000e+00
-1.417195e+05 6.068623e+03 0.000000e+00 6.068623e+03 -2.691416e+05 0.000000e+00 0.000000e+00 0.000000e+00 0.000000e+00
-1.445903e+05 -2.593110e+03 0.000000e+00 -2.593110e+03 -2.743876e+05 0.000000e+00 0.000000e+00 0.000000e+00 0.000000e+00
-1.664204e+05 -8.336582e+03 0.000000e+00 -8.336582e+03 -3.082112e+05 0.000000e+00 0.000000e+00 0.000000e+00 0.000000e+00
-1.202377e+05 2.986365e+04 0.000000e+00 2.986365e+04 -1.760746e+05 0.000000e+00 0.000000e+00 0.000000e+00 0.000000e+00
-1.063332e+05 2.626472e+04 0.000000e+00 2.626472e+04 -1.684152e+05 0.000000e+00 0.000000e+00 0.000000e+00 0.000000e+00
-1.062972e+05 2.646202e+04 0.000000e+00 2.646202e+04 -1.768067e+05 0.000000e+00 0.000000e+00 0.000000e+00 0.000000e+00
-1.128991e+05 2.740949e+04 0.000000e+00 2.740949e+04 -1.870105e+05 0.000000e+00 0.000000e+00 0.000000e+00 0.000000e+00
-1.210453e+05 2.871344e+04 0.000000e+00 2.871344e+04 -1.976777e+05 0.000000e+00 0.000000e+00 0.000000e+00 0.000000e+00
-1.310278e+05 3.022362e+04 0.000000e+00 3.022362e+04 -2.098000e+05 0.000000e+00 0.000000e+00 0.000000e+00 0.000000e+00
-1.445238e+05 3.283338e+04 0.000000e+00 3.283338e+04 -2.252275e+05 0.000000e+00 0.000000e+00 0.000000e+00 0.000000e+00
-1.592758e+05 3.290941e+04 0.000000e+00 3.290941e+04 -2.417928e+05 0.000000e+00 0.000000e+00 0.000000e+00 0.000000e+00
-1.647897e+05 3.164811e+04 0.000000e+00 3.164811e+04 -2.549187e+05 0.000000e+00 0.000000e+00 0.000000e+00 0.000000e+00
-1.744311e+05 2.256623e+04 0.000000e+00 2.256623e+04 -2.719804e+05 0.000000e+00 0.000000e+00 0.000000e+00 0.000000e+00
-1.964202e+05 4.684381e+03 0.000000e+00 4.684381e+03 -3.222942e+05 0.000000e+00 0.000000e+00 0.000000e+00 0.000000e+00
-1.095831e+05 3.075037e+04 0.000000e+00 3.075037e+04 -1.352700e+05 0.000000e+00 0.000000e+00 0.000000e+00 0.000000e+00
-1.001948e+05 2.824261e+04 0.000000e+00 2.824261e+04 -1.290452e+05 0.000000e+00 0.000000e+00 0.000000e+00 0.000000e+00
-1.016919e+05 2.876363e+04 0.000000e+00 2.876363e+04 -1.296184e+05 0.000000e+00 0.000000e+00 0.000000e+00 0.000000e+00
-1.078564e+05 3.001626e+04 0.000000e+00 3.001626e+04 -1.288461e+05 0.000000e+00 0.000000e+00 0.000000e+00 0.000000e+00
-1.132161e+05 3.148555e+04 0.000000e+00 3.148555e+04 -1.270259e+05 0.000000e+00 0.000000e+00 0.000000e+00 0.000000e+00
-1.163826e+05 3.143817e+04 0.000000e+00 3.143817e+04 -1.227802e+05 0.000000e+00 0.000000e+00 0.000000e+00 0.000000e+00
-1.183844e+05 3.118139e+04 0.000000e+00 3.118139e+04 -1.163245e+05 0.000000e+00 0.000000e+00 0.000000e+00 0.000000e+00
-1.191796e+05 2.755127e+04 0.000000e+00 2.755127e+04 -1.087992e+05 0.000000e+00 0.000000e+00 0.000000e+00 0.000000e+00
-1.098639e+05 2.094905e+04 0.000000e+00 2.094905e+04 -9.623906e+04 0.000000e+00 0.000000e+00 0.000000e+00 0.000000e+00
-8.790436e+04 1.359476e+04 0.000000e+00 1.359476e+04 -8.103457e+04 0.000000e+00 0.000000e+00 0.000000e+00 0.000000e+00
-5.653842e+04 7.178554e+03 0.000000e+00 7.178554e+03 -6.293576e+04 0.000000e+00 0.000000e+00 0.000000e+00 0.000000e+00
-1.044590e+05 2.961377e+04 0.000000e+00 2.961377e+04 -1.145461e+05 0.000000e+00 0.000000e+00 0.000000e+00 0.000000e+00
-1.004270e+05 2.817503e+04 0.000000e+00 2.817503e+04 -1.120483e+05 0.000000e+00 0.000000e+00 0.000000e+00 0.000000e+00
-1.052584e+05 2.853159e+04 0.000000e+00 2.853159e+04 -1.126935e+05 0.000000e+00 0.000000e+00 0.000000e+00 0.000000e+00
-1.130218e+05 2.906923e+04 0.000000e+00 2.906923e+04 -1.105225e+05 0.000000e+00 0.000000e+00 0.000000e+00 0.000000e+00
-1.194811e+05 2.905017e+04 0.000000e+00 2.905017e+04 -1.062574e+05 0.000000e+00 0.000000e+00 0.000000e+00 0.000000e+00
-1.243030e+05 2.775419e+04 0.000000e+00 2.775419e+04 -1.004841e+05 0.000000e+00 0.000000e+00 0.000000e+00 0.000000e+00
-1.273202e+05 2.520248e+04 0.000000e+00 2.520248e+04 -9.325304e+04 0.000000e+00 0.000000e+00 0.000000e+00 0.000000e+00
-1.283100e+05 2.031405e+04 0.000000e+00 2.031405e+04 -8.535300e+04 0.000000e+00 0.000000e+00 0.000000e+00 0.000000e+00
-1.208736e+05 1.251802e+04 0.000000e+00 1.251802e+04 -7.645763e+04 0.000000e+00 0.000000e+00 0.000000e+00 0.000000e+00
-9.743385e+04 3.678142e+03 0.000000e+00 3.678142e+03 -6.880677e+04 0.000000e+00 0.000000e+00 0.000000e+00 0.000000e+00
-5.889266e+04 -4.065277e+02 0.000000e+00 -4.065277e+02 -5.618177e+04 0.000000e+00 0.000000e+00 0.000000e+00 0.000000e+00
-9.824758e+04 2.775470e+04 0.000000e+00 2.775470e+04 -9.979219e+04 0.000000e+00 0.000000e+00 0.000000e+00 0.000000e+00
-9.859016e+04 2.720084e+04 0.000000e+00 2.720084e+04 -9.944541e+04 0.000000e+00 0.000000e+00 0.000000e+00 0.000000e+00
-1.054150e+05 2.646756e+04 0.000000e+00 2.646756e+04 -9.818018e+04 0.000000e+00 0.000000e+00 0.000000e+00 0.000000e+00
-1.129392e+05 2.524429e+04 0.000000e+00 2.524429e+04 -9.424538e+04 0.000000e+00 0.000000e+00 0.000000e+00 0.000000e+00
-1.184101e+05 2.367386e+04 0.000000e+00 2.367386e+04 -8.999098e+04 0.000000e+00 0.000000e+00 0.000000e+00 0.000000e+00
-1.219040e+05 2.116650e+04 0.000000e+00 2.116650e+04 -8.491225e+04 0.000000e+00 0.000000e+00 0.000000e+00 0.000000e+00
-1.236743e+05 1.733366e+04 0.000000e+00 1.733366e+04 -7.907885e+04 0.000000e+00 0.000000e+00 0.000000e+00 0.000000e+00
-1.211940e+05 1.147440e+04 0.000000e+00 1.147440e+04 -7.270584e+04 0.000000e+00 0.000000e+00 0.000000e+00 0.000000e+00
-1.118364e+05 3.956437e+03 0.000000e+00 3.956437e+03 -6.673394e+04 0.000000e+00 0.000000e+00 0.000000e+00 0.000000e+00
-8.976984e+04 -2.218313e+03 0.000000e+00 -2.218313e+03 -6.224404e+04 0.000000e+00 0.000000e+00 0.000000e+00 0.000000e+00
-6.065087e+04 -3.809548e+03 0.000000e+00 -3.809548e+03 -5.563433e+04 0.000000e+00 0.000000e+00 0.000000e+00 0.000000e+00
-9.015015e+04 2.526881e+04 0.000000e+00 2.526881e+04 -8.770228e+04 0.000000e+00 0.000000e+00 0.000000e+00 0.000000e+00
-9.630738e+04 2.524966e+04 0.000000e+00 2.524966e+04 -8.932319e+04 0.000000e+00 0.000000e+00 0.000000e+00 0.000000e+00
-1.044599e+05 2.322414e+04 0.000000e+00 2.322414e+04 -8.663063e+04 0.000000e+00 0.000000e+00 0.000000e+00 0.000000e+00
-1.112765e+05 2.134285e+04 0.000000e+00 2.134285e+04 -8.332395e+04 0.000000e+00 0.000000e+00 0.000000e+00 0.000000e+00
-1.160043e+05 1.888176e+04 0.000000e+00 1.888176e+04 -7.967327e+04 0.000000e+00 0.000000e+00 0.000000e+00 0.000000e+00
-1.183067e+05 1.549575e+04 0.000000e+00 1.549575e+04 -7.518075e+04 0.000000e+00 0.000000e+00 0.000000e+00 0.000000e+00
-1.181826e+05 1.090552e+04 0.000000e+00 1.090552e+04 -7.043816e+04 0.000000e+00 0.000000e+00 0.000000e+00 0.000000e+00
-1.139419e+05 5.097090e+03 0.000000e+00 5.097090e+03 -6.585666e+04 0.000000e+00 0.000000e+00 0.000000e+00 0.000000e+00
-1.045169e+05 -8.398912e+02 0.000000e+00 -8.398912e+02 -6.229832e+04 0.000000e+00 0.000000e+00 0.000000e+00 0.000000e+00
-8.719047e+04 -3.823886e+03 0.000000e+00 -3.823886e+03 -6.020142e+04 0.000000e+00 0.000000e+00 0.000000e+00 0.000000e+00
-6.819858e+04 -3.790778e+03 0.000000e+00 -3.790778e+03 -5.673516e+04 0.000000e+00 0.000000e+00 0.000000e+00 0.000000e+00
-8.297199e+04 2.291779e+04 0.000000e+00 2.291779e+04 -7.929112e+04 0.000000e+00 0.000000e+00 0.000000e+00 0.000000e+00
-9.365274e+04 2.286646e+04 0.000000e+00 2.286646e+04 -8.171556e+04 0.000000e+00 0.000000e+00 0.000000e+00 0.000000e+00
-1.025995e+05 2.027455e+04 0.000000e+00 2.027455e+04 -7.876612e+04 0.000000e+00 0.000000e+00 0.000000e+00 0.000000e+00
-1.087568e+05 1.781913e+04 0.000000e+00 1.781913e+04 -7.585977e+04 0.000000e+00 0.000000e+00 0.000000e+00 0.000000e+00
-1.124978e+05 1.461391e+04 0.000000e+00 1.461391e+04 -7.250767e+04 0.000000e+00 0.000000e+00 0.000000e+00 0.000000e+00
-1.138713e+05 1.072390e+04 0.000000e+00 1.072390e+04 -6.884960e+04 0.000000e+00 0.000000e+00 0.000000e+00 0.000000e+00
-1.125669e+05 6.094196e+03 0.000000e+00 6.094196e+03 -6.527945e+04 0.000000e+00 0.000000e+00 0.000000e+00 0.000000e+00
-1.078728e+05 1.124190e+03 0.000000e+00 1.124190e+03 -6.224674e+04 0.000000e+00 0.000000e+00 0.000000e+00 0.000000e+00
-9.978408e+04 -2.897707e+03 0.000000e+00 -2.897707e+03 -6.030301e+04 0.000000e+00 0.000000e+00 0.000000e+00 0.000000e+00
-8.750002e+04 -3.968678e+03 0.000000e+00 -3.968678e+03 -5.955399e+04 0.000000e+00 0.000000e+00 0.000000e+00 0.000000e+00
-7.564911e+04 -3.214610e+03 0.000000e+00 -3.214610e+03 -5.749858e+04 0.000000e+00 0.000000e+00 0.000000e+00 0.000000e+00
-7.821755e+04 2.092030e+04 0.000000e+00 2.092030e+04 -7.332688e+04 0.000000e+00 0.000000e+00 0.000000e+00 0.000000e+00
-9.068825e+04 2.064155e+04 0.000000e+00 2.064155e+04 -7.582159e+04 0.000000e+00 0.000000e+00 0.000000e+00 0.000000e+00
-9.992431e+04 1.760396e+04 0.000000e+00 1.760396e+04 -7.301141e+04 0.000000e+00 0.000000e+00 0.000000e+00 0.000000e+00
-1.054890e+05 1.451035e+04 0.000000e+00 1.451035e+04 -7.033855e+04 0.000000e+00 0.000000e+00 0.000000e+00 0.000000e+00
-1.084538e+05 1.101921e+04 0.000000e+00 1.101921e+04 -6.757990e+04 0.000000e+00 0.000000e+00 0.000000e+00 0.000000e+00
-1.092079e+05 7.061834e+03 0.000000e+00 7.061834e+03 -6.476932e+04 0.000000e+00 0.000000e+00 0.000000e+00 0.000000e+00
-1.074874e+05 2.801876e+03 0.000000e+00 2.801876e+03 -6.223886e+04 0.000000e+00 0.000000e+00 0.000000e+00 0.000000e+00
-1.034179e+05 -1.087197e+03 0.000000e+00 -1.087197e+03 -6.038255e+04 0.000000e+00 0.000000e+00 0.000000e+00 0.000000e+00
-9.719866e+04 -3.619589e+03 0.000000e+00 -3.619589e+03 -5.947789e+04 0.000000e+00 0.000000e+00 0.000000e+00 0.000000e+00
-8.905874e+04 -3.584473e+03 0.000000e+00 -3.584473e+03 -5.939779e+04 0.000000e+00 0.000000e+00 0.000000e+00 0.000000e+00
-8.197199e+04 -2.500827e+03 0.000000e+00 -2.500827e+03 -5.821721e+04 0.000000e+00 0.000000e+00 0.000000e+00 0.000000e+00
-7.478575e+04 1.897229e+04 0.000000e+00 1.897229e+04 -6.890027e+04 0.000000e+00 0.000000e+00 0.000000e+00 0.000000e+00
-8.749122e+04 1.840554e+04 0.000000e+00 1.840554e+04 -7.123037e+04 0.000000e+00 0.000000e+00 0.000000e+00 0.000000e+00
-9.660414e+04 1.504592e+04 0.000000e+00 1.504592e+04 -6.853315e+04 0.000000e+00 0.000000e+00 0.000000e+00 0.000000e+00
-1.017933e+05 1.172015e+04 0.000000e+00 1.172015e+04 -6.625123e+04 0.000000e+00 0.000000e+00 0.000000e+00 0.000000e+00
-1.044132e+05 8.190175e+03 0.000000e+00 8.190175e+03 -6.409249e+04 0.000000e+00 0.000000e+00 0.000000e+00 0.000000e+00
-1.048498e+05 4.427344e+03 0.000000e+00 4.427344e+03 -6.205006e+04 0.000000e+00 0.000000e+00 0.000000e+00 0.000000e+00
-1.033368e+05 7.955194e+02 0.000000e+00 7.955194e+02 -6.038644e+04 0.000000e+00 0.000000e+00 0.000000e+00 0.000000e+00
-1.002561e+05 -2.127259e+03 0.000000e+00 -2.127259e+03 -5.937278e+04 0.000000e+00 0.000000e+00 0.000000e+00 0.000000e+00
-9.595796e+04 -3.636896e+03 0.000000e+00 -3.636896e+03 -5.912332e+04 0.000000e+00 0.000000e+00 0.000000e+00 0.000000e+00
-9.104498e+04 -3.029109e+03 0.000000e+00 -3.029109e+03 -5.939614e+04 0.000000e+00 0.000000e+00 0.000000e+00 0.000000e+00
-8.715171e+04 -1.866649e+03 0.000000e+00 -1.866649e+03 -5.882544e+04 0.000000e+00 0.000000e+00 0.000000e+00 0.000000e+00
-7.192730e+04 1.688103e+04 0.000000e+00 1.688103e+04 -6.584077e+04 0.000000e+00 0.000000e+00 0.000000e+00 0.000000e+00
-8.401427e+04 1.617491e+04 0.000000e+00 1.617491e+04 -6.779007e+04 0.000000e+00 0.000000e+00 0.000000e+00 0.000000e+00
-9.308303e+04 1.274311e+04 0.000000e+00 1.274311e+04 -6.533162e+04 0.000000e+00 0.000000e+00 0.000000e+00 0.000000e+00
-9.808072e+04 9.452574e+03 0.000000e+00 9.452574e+03 -6.339978e+04 0.000000e+00 0.000000e+00 0.000000e+00 0.000000e+00
-1.005216e+05 6.068535e+03 0.000000e+00 6.068535e+03 -6.166235e+04 0.000000e+00 0.000000e+00 0.000000e+00 0.000000e+00
-1.010182e+05 2.690523e+03 0.000000e+00 2.690523e+03 -6.020450e+04 0.000000e+00 0.000000e+00 0.000000e+00 0.000000e+00
-1.000239e+05 -2.939776e+02 0.000000e+00 -2.939776e+02 -5.923287e+04 0.000000e+00 0.000000e+00 0.000000e+00 0.000000e+00
-9.807020e+04 -2.436979e+03 0.000000e+00 -2.436979e+03 -5.884720e+04 0.000000e+00 0.000000e+00 0.000000e+00 0.000000e+00
-9.556252e+04 -3.269577e+03 0.000000e+00 -3.269577e+03 -5.901736e+04 0.000000e+00 0.000000e+00 0.000000e+00 0.000000e+00
-9.306012e+04 -2.438317e+03 0.000000e+00 -2.438317e+03 -5.945668e+04 0.000000e+00 0.000000e+00 0.000000e+00 0.000000e+00
-9.122590e+04 -1.365306e+03 0.000000e+00 -1.365306e+03 -5.932458e+04 0.000000e+00 0.000000e+00 0.000000e+00 0.000000e+00
-6.934538e+04 1.472305e+04 0.000000e+00 1.472305e+04 -6.409319e+04 0.000000e+00 0.000000e+00 0.000000e+00 0.000000e+00
-8.056745e+04 1.392951e+04 0.000000e+00 1.392951e+04 -6.551503e+04 0.000000e+00 0.000000e+00 0.000000e+00 0.000000e+00
-8.960861e+04 1.070438e+04 0.000000e+00 1.070438e+04 -6.326426e+04 0.000000e+00 0.000000e+00 0.000000e+00 0.000000e+00
-9.453905e+04 7.582640e+03 0.000000e+00 7.582640e+03 -6.161086e+04 0.000000e+00 0.000000e+00 0.000000e+00 0.000000e+00
-9.698830e+04 4.489454e+03 0.000000e+00 4.489454e+03 -6.021268e+04 0.000000e+00 0.000000e+00 0.000000e+00 0.000000e+00
-9.773417e+04 1.586917e+03 0.000000e+00 1.586917e+03 -5.919404e+04 0.000000e+00 0.000000e+00 0.000000e+00 0.000000e+00
-9.744552e+04 -7.835066e+02 0.000000e+00 -7.835066e+02 -5.867189e+04 0.000000e+00 0.000000e+00 0.000000e+00 0.000000e+00
-9.661122e+04 -2.300161e+03 0.000000e+00 -2.300161e+03 -5.867350e+04 0.000000e+00 0.000000e+00 0.000000e+00 0.000000e+00
-9.563217e+04 -2.698207e+03 0.000000e+00 -2.698207e+03 -5.904145e+04 0.000000e+00 0.000000e+00 0.000000e+00 0.000000e+00
-9.485214e+04 -1.874325e+03 0.000000e+00 -1.874325e+03 -5.952538e+04 0.000000e+00 0.000000e+00 0.000000e+00 0.000000e+00
-9.443668e+04 -9.746962e+02 0.000000e+00 -9.746962e+02 -5.968816e+04 0.000000e+00 0.000000e+00 0.000000e+00 0.000000e+00
-6.755382e+04 1.237765e+04 0.000000e+00 1.237765e+04 -6.338878e+04 0.000000e+00 0.000000e+00 0.000000e+00 0.000000e+00
-7.752638e+04 1.158184e+04 0.000000e+00 1.158184e+04 -6.417203e+04 0.000000e+00 0.000000e+00 0.000000e+00 0.000000e+00
-8.636780e+04 8.819384e+03 0.000000e+00 8.819384e+03 -6.211327e+04 0.000000e+00 0.000000e+00 0.000000e+00 0.000000e+00
-9.127016e+04 6.021413e+03 0.000000e+00 6.021413e+03 -6.061635e+04 0.000000e+00 0.000000e+00 0.000000e+00 0.000000e+00
-9.384861e+04 3.300078e+03 0.000000e+00 3.300078e+03 -5.945421e+04 0.000000e+00 0.000000e+00 0.000000e+00 0.000000e+00
-9.502991e+04 9.089871e+02 0.000000e+00 9.089871e+02 -5.875774e+04 0.000000e+00 0.000000e+00 0.000000e+00 0.000000e+00
-9.551216e+04 -8.932758e+02 0.000000e+00 -8.932758e+02 -5.852812e+04 0.000000e+00 0.000000e+00 0.000000e+00 0.000000e+00
-9.571349e+04 -1.927728e+03 0.000000e+00 -1.927728e+03 -5.871915e+04 0.000000e+00 0.000000e+00 0.000000e+00 0.000000e+00
-9.590545e+04 -2.086387e+03 0.000000e+00 -2.086387e+03 -5.914741e+04 0.000000e+00 0.000000e+00 0.000000e+00 0.000000e+00
-9.630527e+04 -1.367309e+03 0.000000e+00 -1.367309e+03 -5.960665e+04 0.000000e+00 0.000000e+00 0.000000e+00 0.000000e+00
-9.684755e+04 -6.559448e+02 0.000000e+00 -6.559448e+02 -5.994054e+04 0.000000e+00 0.000000e+00 0.000000e+00 0.000000e+00
-6.662095e+04 9.871621e+03 0.000000e+00 9.871621e+03 -6.365467e+04 0.000000e+00 0.000000e+00 0.000000e+00 0.000000e+00
-7.519419e+04 9.128331e+03 0.000000e+00 9.128331e+03 -6.375257e+04 0.000000e+00 0.000000e+00 0.000000e+00 0.000000e+00
-8.357892e+04 6.925233e+03 0.000000e+00 6.925233e+03 -6.168733e+04 0.000000e+00 0.000000e+00 0.000000e+00 0.000000e+00
-8.843502e+04 4.575586e+03 0.000000e+00 4.575586e+03 -6.015353e+04 0.000000e+00 0.000000e+00 0.000000e+00 0.000000e+00
-9.123966e+04 2.365371e+03 0.000000e+00 2.365371e+03 -5.910647e+04 0.000000e+00 0.000000e+00 0.000000e+00 0.000000e+00
-9.295190e+04 5.202533e+02 0.000000e+00 5.202533e+02 -5.857541e+04 0.000000e+00 0.000000e+00 0.000000e+00 0.000000e+00
-9.413837e+04 -7.858107e+02 0.000000e+00 -7.858107e+02 -5.851879e+04 0.000000e+00 0.000000e+00 0.000000e+00 0.000000e+00
-9.517904e+04 -1.465920e+03 0.000000e+00 -1.465920e+03 -5.880458e+04 0.000000e+00 0.000000e+00 0.000000e+00 0.000000e+00
-9.621292e+04 -1.497953e+03 0.000000e+00 -1.497953e+03 -5.926451e+04 0.000000e+00 0.000000e+00 0.000000e+00 0.000000e+00
-9.741313e+04 -9.340638e+02 0.000000e+00 -9.340638e+02 -5.969043e+04 0.000000e+00 0.000000e+00 0.000000e+00 0.000000e+00
-9.856922e+04 -4.166353e+02 0.000000e+00 -4.166353e+02 -6.012233e+04 0.000000e+00 0.000000e+00 0.000000e+00 0.000000e+00
-6.596184e+04 6.876091e+03 0.000000e+00 6.876091e+03 -6.446554e+04 0.000000e+00 0.000000e+00 0.000000e+00 0.000000e+00
-7.340365e+04 6.322571e+03 0.000000e+00 6.322571e+03 -6.402847e+04 0.000000e+00 0.000000e+00 0.000000e+00 0.000000e+00
-8.130576e+04 4.788264e+03 0.000000e+00 4.788264e+03 -6.171896e+04 0.000000e+00 0.000000e+00 0.000000e+00 0.000000e+00
-8.623255e+04 3.085009e+03 0.000000e+00 3.085009e+03 -6.003190e+04 0.000000e+00 0.000000e+00 0.000000e+00 0.000000e+00
-8.930025e+04 1.531177e+03 0.000000e+00 1.531177e+03 -5.902043e+04 0.000000e+00 0.000000e+00 0.000000e+00 0.000000e+00
-9.144562e+04 2.873107e+02 0.000000e+00 2.873107e+02 -5.857203e+04 0.000000e+00 0.000000e+00 0.000000e+00 0.000000e+00
-9.323167e+04 -5.637191e+02 0.000000e+00 -5.637191e+02 -5.858806e+04 0.000000e+00 0.000000e+00 0.000000e+00 0.000000e+00
-9.488106e+04 -9.697819e+02 0.000000e+00 -9.697819e+02 -5.890988e+04 0.000000e+00 0.000000e+00 0.000000e+00 0.000000e+00
-9.648089e+04 -9.503376e+02 0.000000e+00 -9.503376e+02 -5.936474e+04 0.000000e+00 0.000000e+00 0.000000e+00 0.000000e+00
-9.817485e+04 -5.691483e+02 0.000000e+00 -5.691483e+02 -5.974044e+04 0.000000e+00 0.000000e+00 0.000000e+00 0.000000e+00
-9.970117e+04 -2.327463e+02 0.000000e+00 -2.327463e+02 -6.023476e+04 0.000000e+00 0.000000e+00 0.000000e+00 0.000000e+00
-6.561019e+04 3.477826e+03 0.000000e+00 3.477826e+03 -6.499229e+04 0.000000e+00 0.000000e+00 0.000000e+00 0.000000e+00
-7.237590e+04 3.200797e+03 0.000000e+00 3.200797e+03 -6.430638e+04 0.000000e+00 0.000000e+00 0.000000e+00 0.000000e+00
-7.984847e+04 2.420677e+03 0.000000e+00 2.420677e+03 -6.179468e+04 0.000000e+00 0.000000e+00 0.000000e+00 0.000000e+00
-8.481151e+04 1.534700e+03 0.000000e+00 1.534700e+03 -6.006898e+04 0.000000e+00 0.000000e+00 0.000000e+00 0.000000e+00
-8.811855e+04 7.481343e+02 0.000000e+00 7.481343e+02 -5.905012e+04 0.000000e+00 0.000000e+00 0.000000e+00 0.000000e+00
-9.054447e+04 1.288746e+02 0.000000e+00 1.288746e+02 -5.865419e+04 0.000000e+00 0.000000e+00 0.000000e+00 0.000000e+00
-9.270809e+04 -2.909163e+02 0.000000e+00 -2.909163e+02 -5.869959e+04 0.000000e+00 0.000000e+00 0.000000e+00 0.000000e+00
-9.473253e+04 -4.794074e+02 0.000000e+00 -4.794074e+02 -5.903526e+04 0.000000e+00 0.000000e+00 0.000000e+00 0.000000e+00
-9.666175e+04 -4.517693e+02 0.000000e+00 -4.517693e+02 -5.946505e+04 0.000000e+00 0.000000e+00 0.000000e+00 0.000000e+00
-9.862027e+04 -2.607674e+02 0.000000e+00 -2.607674e+02 -5.979788e+04 0.000000e+00 0.000000e+00 0.000000e+00 0.000000e+00
-1.003354e+05 -9.253041e+01 0.000000e+00 -9.253041e+01 -6.031044e+04 0.000000e+00 0.000000e+00 0.000000e+00 0.000000e+00
-6.539189e+04 9.478332e+02 0.000000e+00 9.478332e+02 -6.490807e+04 0.000000e+00 0.000000e+00 0.000000e+00 0.000000e+00
-7.197697e+04 9.186007e+02 0.000000e+00 9.186007e+02 -6.424716e+04 0.000000e+00 0.000000e+00 0.000000e+00 0.000000e+00
-7.934668e+04 6.760754e+02 0.000000e+00 6.760754e+02 -6.180348e+04 0.000000e+00 0.000000e+00 0.000000e+00 0.000000e+00
-8.434436e+04 3.483103e+02 0.000000e+00 3.483103e+02 -6.011759e+04 0.000000e+00 0.000000e+00 0.000000e+00 0.000000e+00
-8.775248e+04 5.526958e+01 0.000000e+00 5.526958e+01 -5.911589e+04 0.000000e+00 0.000000e+00 0.000000e+00 0.000000e+00
-9.027516e+04 -1.845625e+02 0.000000e+00 -1.845625e+02 -5.873970e+04 0.000000e+00 0.000000e+00 0.000000e+00 0.000000e+00
-9.255926e+04 -3.418786e+02 0.000000e+00 -3.418786e+02 -5.879963e+04 0.000000e+00 0.000000e+00 0.000000e+00 0.000000e+00
-9.471837e+04 -4.102680e+02 0.000000e+00 -4.102680e+02 -5.913312e+04 0.000000e+00 0.000000e+00 0.000000e+00 0.000000e+00
-9.675301e+04 -3.894268e+02 0.000000e+00 -3.894268e+02 -5.954125e+04 0.000000e+00 0.000000e+00 0.000000e+00 0.000000e+00
-9.878840e+04 -3.005385e+02 0.000000e+00 -3.005385e+02 -5.984779e+04 0.000000e+00 0.000000e+00 0.000000e+00 0.000000e+00
-1.005514e+05 -2.186609e+02 0.000000e+00 -2.186609e+02 -6.034723e+04 0.000000e+00 0.000000e+00 0.000000e+00 0.000000e+00
</DataArray>
<DataArray Name="vol_eps" type="Float64" NumberOfComponents="1" format="ascii">
-1.303483e-02
-1.109720e-02
-9.213355e-03
-8.142562e-03
-7.697791e-03
-8.315718e-03
-9.856925e-03
-1.234130e-02
-1.538182e-02
-1.894037e-02
-1.932555e-02
-1.264712e-02
-1.040101e-02
-9.054252e-03
-8.653062e-03
-8.530164e-03
-8.607564e-03
-9.230759e-03
-1.075538e-02
-1.280536e-02
-1.563829e-02
-2.112205e-02
-1.062667e-02
-8.228699e-03
-7.552675e-03
-7.688220e-03
-7.821024e-03
-7.993989e-03
-8.574082e-03
-9.679648e-03
-9.960614e-03
-1.037293e-02
-1.480562e-02
-6.840348e-03
-5.411832e-03
-5.308475e-03
-5.544224e-03
-5.296223e-03
-4.441435e-03
-2.891084e-03
-1.076412e-03
1.656437e-03
6.313397e-03
1.118520e-02
-4.948370e-03
-4.711766e-03
-5.522250e-03
-6.053889e-03
-6.214302e-03
-6.158740e-03
-5.856846e-03
-5.485607e-03
-4.674397e-03
-2.877078e-03
5.232923e-04
-3.385816e-03
-3.810972e-03
-4.787304e-03
-5.171073e-03
-5.292811e-03
-5.194980e-03
-4.895769e-03
-4.382322e-03
-3.592294e-03
-2.014229e-03
3.403439e-04
-2.112105e-03
-3.172237e-03
-4.142576e-03
-4.486728e-03
-4.565654e-03
-4.380086e-03
-4.035935e-03
-3.555891e-03
-2.894144e-03
-1.736638e-03
-2.740606e-04
-1.258335e-03
-2.695708e-03
-3.625461e-03
-3.895881e-03
-3.891765e-03
-3.700489e-03
-3.407420e-03
-3.013705e-03
-2.501014e-03
-1.727605e-03
-8.159982e-04
-8.202957e-04
-2.316670e-03
-3.149327e-03
-3.353688e-03
-3.332875e-03
-3.192706e-03
-2.968664e-03
-2.669114e-03
-2.309577e-03
-1.828668e-03
-1.283444e-03
-6.386907e-04
-2.006814e-03
-2.693639e-03
-2.878837e-03
-2.898089e-03
-2.816349e-03
-2.654628e-03
-2.447365e-03
-2.226911e-03
-1.963425e-03
-1.671902e-03
-5.698454e-04
-1.739633e-03
-2.311544e-03
-2.507271e-03
-2.564540e-03
-2.524971e-03
-2.416822e-03
-2.305355e-03
-2.204257e-03
-2.093224e-03
-1.965662e-03
-5.543404e-04
-1.515959e-03
-2.019739e-03
-2.229492e-03
-2.307145e-03
-2.296034e-03
-2.249205e-03
-2.221740e-03
-2.209971e-03
-2.200437e-03
-2.182286e-03
-5.559781e-04
-1.327924e-03
-1.795172e-03
-2.006701e-03
-2.090815e-03
-2.119076e-03
-2.138064e-03
-2.176189e-03
-2.228524e-03
-2.285060e-03
-2.339669e-03
-5.849174e-04
-1.184092e-03
-1.609573e-03
-1.820654e-03
-1.922472e-03
-1.990733e-03
-2.062343e-03
-2.150410e-03
-2.249810e-03
-2.349595e-03
-2.447987e-03
-6.377723e-04
-1.102163e-03
-1.466662e-03
-1.677526e-03
-1.805732e-03
-1.906416e-03
-2.017448e-03
-2.140367e-03
-2.269366e-03
-2.392088e-03
-2.516966e-03
-6.714394e-04
-1.060343e-03
-1.377336e-03
-1.590433e-03
-1.738656e-03
-1.861828e-03
-1.995292e-03
-2.140420e-03
-2.284771e-03
-2.417878e-03
-2.555580e-03
-6.576373e-04
-1.033199e-03
-1.344972e-03
-1.564498e-03
-1.722131e-03
-1.854728e-03
-1.995541e-03
-2.147620e-03
-2.296246e-03
-2.430730e-03
-2.569705e-03
</DataArray>
</PointData>
</Piece>
</UnstructuredGrid>
</VTKFile>
